<?xml version="1.0" encoding="utf-8" standalone="no"?>
<!DOCTYPE svg PUBLIC "-//W3C//DTD SVG 1.1//EN"
  "http://www.w3.org/Graphics/SVG/1.1/DTD/svg11.dtd">
<svg xmlns:xlink="http://www.w3.org/1999/xlink" width="576pt" height="432pt" viewBox="0 0 576 432" xmlns="http://www.w3.org/2000/svg" version="1.1">
 <metadata>
  <rdf:RDF xmlns:dc="http://purl.org/dc/elements/1.1/" xmlns:cc="http://creativecommons.org/ns#" xmlns:rdf="http://www.w3.org/1999/02/22-rdf-syntax-ns#">
   <cc:Work>
    <dc:type rdf:resource="http://purl.org/dc/dcmitype/StillImage"/>
    <dc:date>2023-05-03T15:08:08.252357</dc:date>
    <dc:format>image/svg+xml</dc:format>
    <dc:creator>
     <cc:Agent>
      <dc:title>Matplotlib v3.7.1, https://matplotlib.org/</dc:title>
     </cc:Agent>
    </dc:creator>
   </cc:Work>
  </rdf:RDF>
 </metadata>
 <defs>
  <style type="text/css">*{stroke-linejoin: round; stroke-linecap: butt}</style>
 </defs>
 <g id="figure_1">
  <g id="patch_1">
   <path d="M 0 432 
L 576 432 
L 576 0 
L 0 0 
z
" style="fill: #ffffff"/>
  </g>
  <g id="axes_1">
   <g id="patch_2">
    <path d="M 72 384.48 
L 518.4 384.48 
L 518.4 51.84 
L 72 51.84 
z
" style="fill: #ffffff"/>
   </g>
   <g id="matplotlib.axis_1">
    <g id="xtick_1">
     <g id="line2d_1">
      <defs>
       <path id="m7f0b2d7c85" d="M 0 0 
L 0 3.5 
" style="stroke: #000000; stroke-width: 0.8"/>
      </defs>
      <g>
       <use xlink:href="#m7f0b2d7c85" x="92.290909" y="384.48" style="stroke: #000000; stroke-width: 0.8"/>
      </g>
     </g>
     <g id="text_1">
      <!-- 0.0 -->
      <g transform="translate(84.339347 399.078438) scale(0.1 -0.1)">
       <defs>
        <path id="DejaVuSans-30" d="M 2034 4250 
Q 1547 4250 1301 3770 
Q 1056 3291 1056 2328 
Q 1056 1369 1301 889 
Q 1547 409 2034 409 
Q 2525 409 2770 889 
Q 3016 1369 3016 2328 
Q 3016 3291 2770 3770 
Q 2525 4250 2034 4250 
z
M 2034 4750 
Q 2819 4750 3233 4129 
Q 3647 3509 3647 2328 
Q 3647 1150 3233 529 
Q 2819 -91 2034 -91 
Q 1250 -91 836 529 
Q 422 1150 422 2328 
Q 422 3509 836 4129 
Q 1250 4750 2034 4750 
z
" transform="scale(0.015625)"/>
        <path id="DejaVuSans-2e" d="M 684 794 
L 1344 794 
L 1344 0 
L 684 0 
L 684 794 
z
" transform="scale(0.015625)"/>
       </defs>
       <use xlink:href="#DejaVuSans-30"/>
       <use xlink:href="#DejaVuSans-2e" x="63.623047"/>
       <use xlink:href="#DejaVuSans-30" x="95.410156"/>
      </g>
     </g>
    </g>
    <g id="xtick_2">
     <g id="line2d_2">
      <g>
       <use xlink:href="#m7f0b2d7c85" x="173.454545" y="384.48" style="stroke: #000000; stroke-width: 0.8"/>
      </g>
     </g>
     <g id="text_2">
      <!-- 0.2 -->
      <g transform="translate(165.502983 399.078438) scale(0.1 -0.1)">
       <defs>
        <path id="DejaVuSans-32" d="M 1228 531 
L 3431 531 
L 3431 0 
L 469 0 
L 469 531 
Q 828 903 1448 1529 
Q 2069 2156 2228 2338 
Q 2531 2678 2651 2914 
Q 2772 3150 2772 3378 
Q 2772 3750 2511 3984 
Q 2250 4219 1831 4219 
Q 1534 4219 1204 4116 
Q 875 4013 500 3803 
L 500 4441 
Q 881 4594 1212 4672 
Q 1544 4750 1819 4750 
Q 2544 4750 2975 4387 
Q 3406 4025 3406 3419 
Q 3406 3131 3298 2873 
Q 3191 2616 2906 2266 
Q 2828 2175 2409 1742 
Q 1991 1309 1228 531 
z
" transform="scale(0.015625)"/>
       </defs>
       <use xlink:href="#DejaVuSans-30"/>
       <use xlink:href="#DejaVuSans-2e" x="63.623047"/>
       <use xlink:href="#DejaVuSans-32" x="95.410156"/>
      </g>
     </g>
    </g>
    <g id="xtick_3">
     <g id="line2d_3">
      <g>
       <use xlink:href="#m7f0b2d7c85" x="254.618182" y="384.48" style="stroke: #000000; stroke-width: 0.8"/>
      </g>
     </g>
     <g id="text_3">
      <!-- 0.4 -->
      <g transform="translate(246.666619 399.078438) scale(0.1 -0.1)">
       <defs>
        <path id="DejaVuSans-34" d="M 2419 4116 
L 825 1625 
L 2419 1625 
L 2419 4116 
z
M 2253 4666 
L 3047 4666 
L 3047 1625 
L 3713 1625 
L 3713 1100 
L 3047 1100 
L 3047 0 
L 2419 0 
L 2419 1100 
L 313 1100 
L 313 1709 
L 2253 4666 
z
" transform="scale(0.015625)"/>
       </defs>
       <use xlink:href="#DejaVuSans-30"/>
       <use xlink:href="#DejaVuSans-2e" x="63.623047"/>
       <use xlink:href="#DejaVuSans-34" x="95.410156"/>
      </g>
     </g>
    </g>
    <g id="xtick_4">
     <g id="line2d_4">
      <g>
       <use xlink:href="#m7f0b2d7c85" x="335.781818" y="384.48" style="stroke: #000000; stroke-width: 0.8"/>
      </g>
     </g>
     <g id="text_4">
      <!-- 0.6 -->
      <g transform="translate(327.830256 399.078438) scale(0.1 -0.1)">
       <defs>
        <path id="DejaVuSans-36" d="M 2113 2584 
Q 1688 2584 1439 2293 
Q 1191 2003 1191 1497 
Q 1191 994 1439 701 
Q 1688 409 2113 409 
Q 2538 409 2786 701 
Q 3034 994 3034 1497 
Q 3034 2003 2786 2293 
Q 2538 2584 2113 2584 
z
M 3366 4563 
L 3366 3988 
Q 3128 4100 2886 4159 
Q 2644 4219 2406 4219 
Q 1781 4219 1451 3797 
Q 1122 3375 1075 2522 
Q 1259 2794 1537 2939 
Q 1816 3084 2150 3084 
Q 2853 3084 3261 2657 
Q 3669 2231 3669 1497 
Q 3669 778 3244 343 
Q 2819 -91 2113 -91 
Q 1303 -91 875 529 
Q 447 1150 447 2328 
Q 447 3434 972 4092 
Q 1497 4750 2381 4750 
Q 2619 4750 2861 4703 
Q 3103 4656 3366 4563 
z
" transform="scale(0.015625)"/>
       </defs>
       <use xlink:href="#DejaVuSans-30"/>
       <use xlink:href="#DejaVuSans-2e" x="63.623047"/>
       <use xlink:href="#DejaVuSans-36" x="95.410156"/>
      </g>
     </g>
    </g>
    <g id="xtick_5">
     <g id="line2d_5">
      <g>
       <use xlink:href="#m7f0b2d7c85" x="416.945455" y="384.48" style="stroke: #000000; stroke-width: 0.8"/>
      </g>
     </g>
     <g id="text_5">
      <!-- 0.8 -->
      <g transform="translate(408.993892 399.078438) scale(0.1 -0.1)">
       <defs>
        <path id="DejaVuSans-38" d="M 2034 2216 
Q 1584 2216 1326 1975 
Q 1069 1734 1069 1313 
Q 1069 891 1326 650 
Q 1584 409 2034 409 
Q 2484 409 2743 651 
Q 3003 894 3003 1313 
Q 3003 1734 2745 1975 
Q 2488 2216 2034 2216 
z
M 1403 2484 
Q 997 2584 770 2862 
Q 544 3141 544 3541 
Q 544 4100 942 4425 
Q 1341 4750 2034 4750 
Q 2731 4750 3128 4425 
Q 3525 4100 3525 3541 
Q 3525 3141 3298 2862 
Q 3072 2584 2669 2484 
Q 3125 2378 3379 2068 
Q 3634 1759 3634 1313 
Q 3634 634 3220 271 
Q 2806 -91 2034 -91 
Q 1263 -91 848 271 
Q 434 634 434 1313 
Q 434 1759 690 2068 
Q 947 2378 1403 2484 
z
M 1172 3481 
Q 1172 3119 1398 2916 
Q 1625 2713 2034 2713 
Q 2441 2713 2670 2916 
Q 2900 3119 2900 3481 
Q 2900 3844 2670 4047 
Q 2441 4250 2034 4250 
Q 1625 4250 1398 4047 
Q 1172 3844 1172 3481 
z
" transform="scale(0.015625)"/>
       </defs>
       <use xlink:href="#DejaVuSans-30"/>
       <use xlink:href="#DejaVuSans-2e" x="63.623047"/>
       <use xlink:href="#DejaVuSans-38" x="95.410156"/>
      </g>
     </g>
    </g>
    <g id="xtick_6">
     <g id="line2d_6">
      <g>
       <use xlink:href="#m7f0b2d7c85" x="498.109091" y="384.48" style="stroke: #000000; stroke-width: 0.8"/>
      </g>
     </g>
     <g id="text_6">
      <!-- 1.0 -->
      <g transform="translate(490.157528 399.078438) scale(0.1 -0.1)">
       <defs>
        <path id="DejaVuSans-31" d="M 794 531 
L 1825 531 
L 1825 4091 
L 703 3866 
L 703 4441 
L 1819 4666 
L 2450 4666 
L 2450 531 
L 3481 531 
L 3481 0 
L 794 0 
L 794 531 
z
" transform="scale(0.015625)"/>
       </defs>
       <use xlink:href="#DejaVuSans-31"/>
       <use xlink:href="#DejaVuSans-2e" x="63.623047"/>
       <use xlink:href="#DejaVuSans-30" x="95.410156"/>
      </g>
     </g>
    </g>
   </g>
   <g id="matplotlib.axis_2">
    <g id="ytick_1">
     <g id="line2d_7">
      <defs>
       <path id="m88d2c2f3cf" d="M 0 0 
L -3.5 0 
" style="stroke: #000000; stroke-width: 0.8"/>
      </defs>
      <g>
       <use xlink:href="#m88d2c2f3cf" x="72" y="369.36" style="stroke: #000000; stroke-width: 0.8"/>
      </g>
     </g>
     <g id="text_7">
      <!-- −5.0 -->
      <g transform="translate(40.717187 373.159219) scale(0.1 -0.1)">
       <defs>
        <path id="DejaVuSans-2212" d="M 678 2272 
L 4684 2272 
L 4684 1741 
L 678 1741 
L 678 2272 
z
" transform="scale(0.015625)"/>
        <path id="DejaVuSans-35" d="M 691 4666 
L 3169 4666 
L 3169 4134 
L 1269 4134 
L 1269 2991 
Q 1406 3038 1543 3061 
Q 1681 3084 1819 3084 
Q 2600 3084 3056 2656 
Q 3513 2228 3513 1497 
Q 3513 744 3044 326 
Q 2575 -91 1722 -91 
Q 1428 -91 1123 -41 
Q 819 9 494 109 
L 494 744 
Q 775 591 1075 516 
Q 1375 441 1709 441 
Q 2250 441 2565 725 
Q 2881 1009 2881 1497 
Q 2881 1984 2565 2268 
Q 2250 2553 1709 2553 
Q 1456 2553 1204 2497 
Q 953 2441 691 2322 
L 691 4666 
z
" transform="scale(0.015625)"/>
       </defs>
       <use xlink:href="#DejaVuSans-2212"/>
       <use xlink:href="#DejaVuSans-35" x="83.789062"/>
       <use xlink:href="#DejaVuSans-2e" x="147.412109"/>
       <use xlink:href="#DejaVuSans-30" x="179.199219"/>
      </g>
     </g>
    </g>
    <g id="ytick_2">
     <g id="line2d_8">
      <g>
       <use xlink:href="#m88d2c2f3cf" x="72" y="331.56" style="stroke: #000000; stroke-width: 0.8"/>
      </g>
     </g>
     <g id="text_8">
      <!-- −2.5 -->
      <g transform="translate(40.717187 335.359219) scale(0.1 -0.1)">
       <use xlink:href="#DejaVuSans-2212"/>
       <use xlink:href="#DejaVuSans-32" x="83.789062"/>
       <use xlink:href="#DejaVuSans-2e" x="147.412109"/>
       <use xlink:href="#DejaVuSans-35" x="179.199219"/>
      </g>
     </g>
    </g>
    <g id="ytick_3">
     <g id="line2d_9">
      <g>
       <use xlink:href="#m88d2c2f3cf" x="72" y="293.76" style="stroke: #000000; stroke-width: 0.8"/>
      </g>
     </g>
     <g id="text_9">
      <!-- 0.0 -->
      <g transform="translate(49.096875 297.559219) scale(0.1 -0.1)">
       <use xlink:href="#DejaVuSans-30"/>
       <use xlink:href="#DejaVuSans-2e" x="63.623047"/>
       <use xlink:href="#DejaVuSans-30" x="95.410156"/>
      </g>
     </g>
    </g>
    <g id="ytick_4">
     <g id="line2d_10">
      <g>
       <use xlink:href="#m88d2c2f3cf" x="72" y="255.96" style="stroke: #000000; stroke-width: 0.8"/>
      </g>
     </g>
     <g id="text_10">
      <!-- 2.5 -->
      <g transform="translate(49.096875 259.759219) scale(0.1 -0.1)">
       <use xlink:href="#DejaVuSans-32"/>
       <use xlink:href="#DejaVuSans-2e" x="63.623047"/>
       <use xlink:href="#DejaVuSans-35" x="95.410156"/>
      </g>
     </g>
    </g>
    <g id="ytick_5">
     <g id="line2d_11">
      <g>
       <use xlink:href="#m88d2c2f3cf" x="72" y="218.16" style="stroke: #000000; stroke-width: 0.8"/>
      </g>
     </g>
     <g id="text_11">
      <!-- 5.0 -->
      <g transform="translate(49.096875 221.959219) scale(0.1 -0.1)">
       <use xlink:href="#DejaVuSans-35"/>
       <use xlink:href="#DejaVuSans-2e" x="63.623047"/>
       <use xlink:href="#DejaVuSans-30" x="95.410156"/>
      </g>
     </g>
    </g>
    <g id="ytick_6">
     <g id="line2d_12">
      <g>
       <use xlink:href="#m88d2c2f3cf" x="72" y="180.36" style="stroke: #000000; stroke-width: 0.8"/>
      </g>
     </g>
     <g id="text_12">
      <!-- 7.5 -->
      <g transform="translate(49.096875 184.159219) scale(0.1 -0.1)">
       <defs>
        <path id="DejaVuSans-37" d="M 525 4666 
L 3525 4666 
L 3525 4397 
L 1831 0 
L 1172 0 
L 2766 4134 
L 525 4134 
L 525 4666 
z
" transform="scale(0.015625)"/>
       </defs>
       <use xlink:href="#DejaVuSans-37"/>
       <use xlink:href="#DejaVuSans-2e" x="63.623047"/>
       <use xlink:href="#DejaVuSans-35" x="95.410156"/>
      </g>
     </g>
    </g>
    <g id="ytick_7">
     <g id="line2d_13">
      <g>
       <use xlink:href="#m88d2c2f3cf" x="72" y="142.56" style="stroke: #000000; stroke-width: 0.8"/>
      </g>
     </g>
     <g id="text_13">
      <!-- 10.0 -->
      <g transform="translate(42.734375 146.359219) scale(0.1 -0.1)">
       <use xlink:href="#DejaVuSans-31"/>
       <use xlink:href="#DejaVuSans-30" x="63.623047"/>
       <use xlink:href="#DejaVuSans-2e" x="127.246094"/>
       <use xlink:href="#DejaVuSans-30" x="159.033203"/>
      </g>
     </g>
    </g>
    <g id="ytick_8">
     <g id="line2d_14">
      <g>
       <use xlink:href="#m88d2c2f3cf" x="72" y="104.76" style="stroke: #000000; stroke-width: 0.8"/>
      </g>
     </g>
     <g id="text_14">
      <!-- 12.5 -->
      <g transform="translate(42.734375 108.559219) scale(0.1 -0.1)">
       <use xlink:href="#DejaVuSans-31"/>
       <use xlink:href="#DejaVuSans-32" x="63.623047"/>
       <use xlink:href="#DejaVuSans-2e" x="127.246094"/>
       <use xlink:href="#DejaVuSans-35" x="159.033203"/>
      </g>
     </g>
    </g>
    <g id="ytick_9">
     <g id="line2d_15">
      <g>
       <use xlink:href="#m88d2c2f3cf" x="72" y="66.96" style="stroke: #000000; stroke-width: 0.8"/>
      </g>
     </g>
     <g id="text_15">
      <!-- 15.0 -->
      <g transform="translate(42.734375 70.759219) scale(0.1 -0.1)">
       <use xlink:href="#DejaVuSans-31"/>
       <use xlink:href="#DejaVuSans-35" x="63.623047"/>
       <use xlink:href="#DejaVuSans-2e" x="127.246094"/>
       <use xlink:href="#DejaVuSans-30" x="159.033203"/>
      </g>
     </g>
    </g>
   </g>
   <g id="line2d_16">
    <path d="M 92.290909 323.136648 
L 96.349091 323.18352 
L 100.407273 323.318088 
L 104.465455 323.535816 
L 108.523636 323.829144 
L 112.581818 324.187488 
L 116.64 324.600264 
L 120.698182 325.059912 
L 124.756364 325.558872 
L 128.814545 326.089584 
L 132.872727 326.646 
L 136.930909 327.225096 
L 140.989091 327.823848 
L 145.047273 328.436208 
L 149.105455 329.063688 
L 153.163636 329.70024 
L 157.221818 330.345864 
L 161.28 331.00056 
L 165.338182 331.659792 
L 169.396364 332.32356 
L 173.454545 332.991864 
L 177.512727 333.663192 
L 181.570909 334.337544 
L 185.629091 335.011896 
L 189.687273 335.68776 
L 193.745455 336.362112 
L 197.803636 337.036464 
L 201.861818 337.710816 
L 205.92 338.382144 
L 209.978182 339.05196 
L 214.036364 339.718752 
L 218.094545 340.38252 
L 222.152727 341.043264 
L 226.210909 341.699472 
L 230.269091 342.351144 
L 234.327273 342.99828 
L 238.385455 343.64088 
L 242.443636 344.278944 
L 246.501818 344.909448 
L 250.56 345.535416 
L 254.618182 346.155336 
L 258.676364 346.767696 
L 262.734545 347.37552 
L 266.792727 347.974272 
L 270.850909 348.566976 
L 274.909091 349.15212 
L 278.967273 349.728192 
L 283.025455 350.298216 
L 287.083636 350.859168 
L 291.141818 351.41256 
L 295.2 351.95688 
L 299.258182 352.49364 
L 303.316364 353.021328 
L 307.374545 353.539944 
L 311.432727 354.049488 
L 315.490909 354.54996 
L 319.549091 355.04136 
L 323.607273 355.523688 
L 327.665455 355.995432 
L 331.723636 356.458104 
L 335.781818 356.910192 
L 339.84 357.353208 
L 343.898182 357.78564 
L 347.956364 358.209 
L 352.014545 358.621776 
L 356.072727 359.023968 
L 360.130909 359.415576 
L 364.189091 359.7966 
L 368.247273 360.16704 
L 372.305455 360.526896 
L 376.363636 360.876168 
L 380.421818 361.213344 
L 384.48 361.541448 
L 388.538182 361.857456 
L 392.596364 362.16288 
L 396.654545 362.45772 
L 400.712727 362.740464 
L 404.770909 363.012624 
L 408.829091 363.2742 
L 412.887273 363.52368 
L 416.945455 363.762576 
L 421.003636 363.989376 
L 425.061818 364.20408 
L 429.12 364.4082 
L 433.178182 364.601736 
L 437.236364 364.781664 
L 441.294545 364.951008 
L 445.352727 365.109768 
L 449.410909 365.256432 
L 453.469091 365.391 
L 457.527273 365.513472 
L 461.585455 365.62536 
L 465.643636 365.725152 
L 469.701818 365.812848 
L 473.76 365.88996 
L 477.818182 365.954976 
L 481.876364 366.007896 
L 485.934545 366.04872 
L 489.992727 366.077448 
L 494.050909 366.095592 
L 498.109091 366.10164 
" clip-path="url(#pfa7e0c07fc)" style="fill: none; stroke: #000000; stroke-opacity: 0.5; stroke-linecap: square"/>
   </g>
   <g id="line2d_17">
    <path d="M 92.290909 312.844464 
L 96.349091 312.802128 
L 100.407273 312.681168 
L 104.465455 312.48612 
L 108.523636 312.226056 
L 112.581818 311.908536 
L 116.64 311.545656 
L 120.698182 311.143464 
L 124.756364 310.711032 
L 128.814545 310.254408 
L 132.872727 309.778128 
L 136.930909 309.286728 
L 140.989091 308.78172 
L 145.047273 308.26764 
L 149.105455 307.746 
L 153.163636 307.2168 
L 157.221818 306.683064 
L 161.28 306.144792 
L 165.338182 305.601984 
L 169.396364 305.057664 
L 173.454545 304.508808 
L 177.512727 303.95844 
L 181.570909 303.40656 
L 185.629091 302.850144 
L 189.687273 302.292216 
L 193.745455 301.732776 
L 197.803636 301.170312 
L 201.861818 300.604824 
L 205.92 300.037824 
L 209.978182 299.466288 
L 214.036364 298.89324 
L 218.094545 298.317168 
L 222.152727 297.73656 
L 226.210909 297.152928 
L 230.269091 296.566272 
L 234.327273 295.97508 
L 238.385455 295.380864 
L 242.443636 294.782112 
L 246.501818 294.178824 
L 250.56 293.571 
L 254.618182 292.95864 
L 258.676364 292.341744 
L 262.734545 291.720312 
L 266.792727 291.094344 
L 270.850909 290.462328 
L 274.909091 289.825776 
L 278.967273 289.184688 
L 283.025455 288.537552 
L 287.083636 287.884368 
L 291.141818 287.22816 
L 295.2 286.565904 
L 299.258182 285.8976 
L 303.316364 285.22476 
L 307.374545 284.545872 
L 311.432727 283.86396 
L 315.490909 283.174488 
L 319.549091 282.481992 
L 323.607273 281.783448 
L 327.665455 281.08188 
L 331.723636 280.374264 
L 335.781818 279.662112 
L 339.84 278.946936 
L 343.898182 278.227224 
L 347.956364 277.504488 
L 352.014545 276.777216 
L 356.072727 276.04692 
L 360.130909 275.315112 
L 364.189091 274.58028 
L 368.247273 273.842424 
L 372.305455 273.104568 
L 376.363636 272.363688 
L 380.421818 271.62432 
L 384.48 270.88344 
L 388.538182 270.144072 
L 392.596364 269.406216 
L 396.654545 268.669872 
L 400.712727 267.938064 
L 404.770909 267.20928 
L 408.829091 266.485032 
L 412.887273 265.766832 
L 416.945455 265.056192 
L 421.003636 264.354624 
L 425.061818 263.66364 
L 429.12 262.984752 
L 433.178182 262.319472 
L 437.236364 261.670824 
L 441.294545 261.038808 
L 445.352727 260.429472 
L 449.410909 259.842816 
L 453.469091 259.283376 
L 457.527273 258.752664 
L 461.585455 258.256728 
L 465.643636 257.798592 
L 469.701818 257.379768 
L 473.76 257.006304 
L 477.818182 256.682736 
L 481.876364 256.412088 
L 485.934545 256.197384 
L 489.992727 256.041648 
L 494.050909 255.946392 
L 498.109091 255.91464 
" clip-path="url(#pfa7e0c07fc)" style="fill: none; stroke: #000000; stroke-opacity: 0.5; stroke-linecap: square"/>
   </g>
   <g id="line2d_18">
    <path d="M 92.290909 263.984184 
L 96.349091 263.993256 
L 100.407273 264.01896 
L 104.465455 264.059784 
L 108.523636 264.112704 
L 112.581818 264.176208 
L 116.64 264.244248 
L 120.698182 264.315312 
L 124.756364 264.386376 
L 128.814545 264.454416 
L 132.872727 264.516408 
L 136.930909 264.569328 
L 140.989091 264.613176 
L 145.047273 264.644928 
L 149.105455 264.664584 
L 153.163636 264.670632 
L 157.221818 264.66156 
L 161.28 264.63888 
L 165.338182 264.599568 
L 169.396364 264.543624 
L 173.454545 264.474072 
L 177.512727 264.386376 
L 181.570909 264.282048 
L 185.629091 264.1626 
L 189.687273 264.02652 
L 193.745455 263.873808 
L 197.803636 263.704464 
L 201.861818 263.52 
L 205.92 263.318904 
L 209.978182 263.101176 
L 214.036364 262.868328 
L 218.094545 262.62036 
L 222.152727 262.357272 
L 226.210909 262.079064 
L 230.269091 261.785736 
L 234.327273 261.477288 
L 238.385455 261.15372 
L 242.443636 260.818056 
L 246.501818 260.46576 
L 250.56 260.101368 
L 254.618182 259.723368 
L 258.676364 259.33176 
L 262.734545 258.926544 
L 266.792727 258.509232 
L 270.850909 258.078312 
L 274.909091 257.635296 
L 278.967273 257.181696 
L 283.025455 256.714488 
L 287.083636 256.236696 
L 291.141818 255.746808 
L 295.2 255.246336 
L 299.258182 254.73528 
L 303.316364 254.212128 
L 307.374545 253.681416 
L 311.432727 253.138608 
L 315.490909 252.58824 
L 319.549091 252.027288 
L 323.607273 251.457264 
L 327.665455 250.87968 
L 331.723636 250.294536 
L 335.781818 249.701832 
L 339.84 249.100056 
L 343.898182 248.493744 
L 347.956364 247.879872 
L 352.014545 247.261464 
L 356.072727 246.637008 
L 360.130909 246.008016 
L 364.189091 245.374488 
L 368.247273 244.737936 
L 372.305455 244.099872 
L 376.363636 243.458784 
L 380.421818 242.816184 
L 384.48 242.173584 
L 388.538182 241.532496 
L 392.596364 240.89292 
L 396.654545 240.254856 
L 400.712727 239.62284 
L 404.770909 238.993848 
L 408.829091 238.372416 
L 412.887273 237.758544 
L 416.945455 237.153744 
L 421.003636 236.559528 
L 425.061818 235.980432 
L 429.12 235.414944 
L 433.178182 234.866088 
L 437.236364 234.336888 
L 441.294545 233.83188 
L 445.352727 233.354088 
L 449.410909 232.906536 
L 453.469091 232.50132 
L 457.527273 232.149024 
L 461.585455 231.878376 
L 465.643636 231.734736 
L 469.701818 231.746832 
L 473.76 231.869304 
L 477.818182 232.034112 
L 481.876364 232.195896 
L 485.934545 232.335 
L 489.992727 232.44084 
L 494.050909 232.505856 
L 498.109091 232.527024 
" clip-path="url(#pfa7e0c07fc)" style="fill: none; stroke: #000000; stroke-opacity: 0.5; stroke-linecap: square"/>
   </g>
   <g id="line2d_19">
    <path d="M 92.290909 255.488256 
L 96.349091 255.454992 
L 100.407273 255.356712 
L 104.465455 255.19644 
L 108.523636 254.974176 
L 112.581818 254.694456 
L 116.64 254.361816 
L 120.698182 253.980792 
L 124.756364 253.552896 
L 128.814545 253.082664 
L 132.872727 252.57312 
L 136.930909 252.0288 
L 140.989091 251.449704 
L 145.047273 250.840368 
L 149.105455 250.202304 
L 153.163636 249.537024 
L 157.221818 248.84604 
L 161.28 248.133888 
L 165.338182 247.399056 
L 169.396364 246.644568 
L 173.454545 245.871936 
L 177.512727 245.082672 
L 181.570909 244.278288 
L 185.629091 243.461808 
L 189.687273 242.63172 
L 193.745455 241.79256 
L 197.803636 240.944328 
L 201.861818 240.090048 
L 205.92 239.228208 
L 209.978182 238.364856 
L 214.036364 237.499992 
L 218.094545 236.633616 
L 222.152727 235.770264 
L 226.210909 234.911448 
L 230.269091 234.057168 
L 234.327273 233.213472 
L 238.385455 232.378848 
L 242.443636 231.55632 
L 246.501818 230.748912 
L 250.56 229.958136 
L 254.618182 229.188528 
L 258.676364 228.440088 
L 262.734545 227.71584 
L 266.792727 227.017296 
L 270.850909 226.348992 
L 274.909091 225.710928 
L 278.967273 225.104616 
L 283.025455 224.534592 
L 287.083636 224.002368 
L 291.141818 223.507944 
L 295.2 223.052832 
L 299.258182 222.638544 
L 303.316364 222.266592 
L 307.374545 221.936976 
L 311.432727 221.649696 
L 315.490909 221.404752 
L 319.549091 221.202144 
L 323.607273 221.043384 
L 327.665455 220.923936 
L 331.723636 220.845312 
L 335.781818 220.806 
L 339.84 220.804488 
L 343.898182 220.839264 
L 347.956364 220.908816 
L 352.014545 221.011632 
L 356.072727 221.1462 
L 360.130909 221.311008 
L 364.189091 221.504544 
L 368.247273 221.725296 
L 372.305455 221.971752 
L 376.363636 222.240888 
L 380.421818 222.532704 
L 384.48 222.845688 
L 388.538182 223.176816 
L 392.596364 223.526088 
L 396.654545 223.89048 
L 400.712727 224.269992 
L 404.770909 224.6616 
L 408.829091 225.065304 
L 412.887273 225.47808 
L 416.945455 225.898416 
L 421.003636 226.3248 
L 425.061818 226.75572 
L 429.12 227.18664 
L 433.178182 227.61756 
L 437.236364 228.045456 
L 441.294545 228.465792 
L 445.352727 228.87252 
L 449.410909 229.264128 
L 453.469091 229.627008 
L 457.527273 229.949064 
L 461.585455 230.200056 
L 465.643636 230.333112 
L 469.701818 230.319504 
L 473.76 230.201568 
L 477.818182 230.045832 
L 481.876364 229.89312 
L 485.934545 229.7646 
L 489.992727 229.667832 
L 494.050909 229.608864 
L 498.109091 229.589208 
" clip-path="url(#pfa7e0c07fc)" style="fill: none; stroke: #000000; stroke-opacity: 0.5; stroke-linecap: square"/>
   </g>
   <g id="line2d_20">
    <path d="M 92.290909 148.686624 
L 96.349091 148.6836 
L 100.407273 148.674528 
L 104.465455 148.659408 
L 108.523636 148.641264 
L 112.581818 148.617072 
L 116.64 148.591368 
L 120.698182 148.565664 
L 124.756364 148.544496 
L 128.814545 148.5324 
L 132.872727 148.53996 
L 136.930909 148.582296 
L 140.989091 148.685112 
L 145.047273 148.883184 
L 149.105455 149.218848 
L 153.163636 149.710248 
L 157.221818 150.336216 
L 161.28 151.05744 
L 165.338182 151.834608 
L 169.396364 152.638992 
L 173.454545 153.455472 
L 177.512727 154.273464 
L 181.570909 155.083896 
L 185.629091 155.885256 
L 189.687273 156.671496 
L 193.745455 157.441104 
L 197.803636 158.192568 
L 201.861818 158.921352 
L 205.92 159.628968 
L 209.978182 160.312392 
L 214.036364 160.9686 
L 218.094545 161.599104 
L 222.152727 162.199368 
L 226.210909 162.770904 
L 230.269091 163.309176 
L 234.327273 163.815696 
L 238.385455 164.28744 
L 242.443636 164.721384 
L 246.501818 165.117528 
L 250.56 165.475872 
L 254.618182 165.790368 
L 258.676364 166.062528 
L 262.734545 166.29084 
L 266.792727 166.47228 
L 270.850909 166.605336 
L 274.909091 166.690008 
L 278.967273 166.723272 
L 283.025455 166.705128 
L 287.083636 166.634064 
L 291.141818 166.508568 
L 295.2 166.330152 
L 299.258182 166.097304 
L 303.316364 165.810024 
L 307.374545 165.469824 
L 311.432727 165.078216 
L 315.490909 164.633688 
L 319.549091 164.140776 
L 323.607273 163.600992 
L 327.665455 163.018872 
L 331.723636 162.39744 
L 335.781818 161.744256 
L 339.84 161.068392 
L 343.898182 160.384968 
L 347.956364 159.7212 
L 352.014545 159.13152 
L 356.072727 158.726304 
L 360.130909 158.679432 
L 364.189091 159.102792 
L 368.247273 159.882984 
L 372.305455 160.853688 
L 376.363636 161.909064 
L 380.421818 163.00224 
L 384.48 164.104488 
L 388.538182 165.206736 
L 392.596364 166.296888 
L 396.654545 167.373432 
L 400.712727 168.43032 
L 404.770909 169.467552 
L 408.829091 170.480592 
L 412.887273 171.467928 
L 416.945455 172.428048 
L 421.003636 173.35944 
L 425.061818 174.25908 
L 429.12 175.126968 
L 433.178182 175.961592 
L 437.236364 176.759928 
L 441.294545 177.518952 
L 445.352727 178.240176 
L 449.410909 178.917552 
L 453.469091 179.552592 
L 457.527273 180.142272 
L 461.585455 180.682056 
L 465.643636 181.173456 
L 469.701818 181.611936 
L 473.76 181.997496 
L 477.818182 182.3256 
L 481.876364 182.59776 
L 485.934545 182.810952 
L 489.992727 182.963664 
L 494.050909 183.055896 
L 498.109091 183.086136 
" clip-path="url(#pfa7e0c07fc)" style="fill: none; stroke: #000000; stroke-opacity: 0.5; stroke-linecap: square"/>
   </g>
   <g id="line2d_21">
    <path d="M 92.290909 135.500472 
L 96.349091 135.641088 
L 100.407273 136.037232 
L 104.465455 136.634472 
L 108.523636 137.370816 
L 112.581818 138.19788 
L 116.64 139.080888 
L 120.698182 139.992624 
L 124.756364 140.914944 
L 128.814545 141.831216 
L 132.872727 142.72632 
L 136.930909 143.576064 
L 140.989091 144.354744 
L 145.047273 145.020024 
L 149.105455 145.529568 
L 153.163636 145.86372 
L 157.221818 146.039112 
L 161.28 146.099592 
L 165.338182 146.078424 
L 169.396364 146.004336 
L 173.454545 145.892448 
L 177.512727 145.751832 
L 181.570909 145.590048 
L 185.629091 145.41012 
L 189.687273 145.21356 
L 193.745455 145.004904 
L 197.803636 144.78264 
L 201.861818 144.551304 
L 205.92 144.307872 
L 209.978182 144.055368 
L 214.036364 143.795304 
L 218.094545 143.524656 
L 222.152727 143.246448 
L 226.210909 142.96068 
L 230.269091 142.667352 
L 234.327273 142.367976 
L 238.385455 142.06104 
L 242.443636 141.748056 
L 246.501818 141.429024 
L 250.56 141.103944 
L 254.618182 140.77584 
L 258.676364 140.441688 
L 262.734545 140.103 
L 266.792727 139.761288 
L 270.850909 139.416552 
L 274.909091 139.070304 
L 278.967273 138.724056 
L 283.025455 138.37932 
L 287.083636 138.040632 
L 291.141818 137.71404 
L 295.2 137.423736 
L 299.258182 137.239272 
L 303.316364 137.440368 
L 307.374545 138.361176 
L 311.432727 139.637304 
L 315.490909 141.004152 
L 319.549091 142.389144 
L 323.607273 143.774136 
L 327.665455 145.147032 
L 331.723636 146.503296 
L 335.781818 147.833856 
L 339.84 149.132664 
L 343.898182 150.383088 
L 347.956364 151.559424 
L 352.014545 152.611776 
L 356.072727 153.432792 
L 360.130909 153.84708 
L 364.189091 153.7488 
L 368.247273 153.252864 
L 372.305455 152.533152 
L 376.363636 151.695504 
L 380.421818 150.797376 
L 384.48 149.872032 
L 388.538182 148.943664 
L 392.596364 148.041 
L 396.654545 147.195792 
L 400.712727 146.456424 
L 404.770909 145.889424 
L 408.829091 145.565856 
L 412.887273 145.52352 
L 416.945455 145.733688 
L 421.003636 146.125296 
L 425.061818 146.622744 
L 429.12 147.176136 
L 433.178182 147.750696 
L 437.236364 148.326768 
L 441.294545 148.889232 
L 445.352727 149.430528 
L 449.410909 149.94612 
L 453.469091 150.428448 
L 457.527273 150.876 
L 461.585455 151.287264 
L 465.643636 151.657704 
L 469.701818 151.988832 
L 473.76 152.277624 
L 477.818182 152.522568 
L 481.876364 152.725176 
L 485.934545 152.882424 
L 489.992727 152.995824 
L 494.050909 153.063864 
L 498.109091 153.086544 
" clip-path="url(#pfa7e0c07fc)" style="fill: none; stroke: #000000; stroke-opacity: 0.5; stroke-linecap: square"/>
   </g>
   <g id="line2d_22">
    <path d="M 92.290909 128.356272 
L 96.349091 128.31696 
L 100.407273 128.21868 
L 104.465455 128.09016 
L 108.523636 127.955592 
L 112.581818 127.822536 
L 116.64 127.690992 
L 120.698182 127.556424 
L 124.756364 127.415808 
L 128.814545 127.267632 
L 132.872727 127.108872 
L 136.930909 126.939528 
L 140.989091 126.756576 
L 145.047273 126.561528 
L 149.105455 126.35136 
L 153.163636 126.129096 
L 157.221818 125.891712 
L 161.28 125.64072 
L 165.338182 125.374608 
L 169.396364 125.094888 
L 173.454545 124.80156 
L 177.512727 124.4916 
L 181.570909 124.169544 
L 185.629091 123.832368 
L 189.687273 123.480072 
L 193.745455 123.11568 
L 197.803636 122.736168 
L 201.861818 122.343048 
L 205.92 121.939344 
L 209.978182 121.522032 
L 214.036364 121.092624 
L 218.094545 120.655656 
L 222.152727 120.211128 
L 226.210909 119.763576 
L 230.269091 119.317536 
L 234.327273 118.888128 
L 238.385455 118.493496 
L 242.443636 118.183536 
L 246.501818 118.059552 
L 250.56 118.30752 
L 254.618182 119.05596 
L 258.676364 120.188448 
L 262.734545 121.52052 
L 266.792727 122.943312 
L 270.850909 124.411464 
L 274.909091 125.89776 
L 278.967273 127.391616 
L 283.025455 128.88396 
L 287.083636 130.36572 
L 291.141818 131.826312 
L 295.2 133.244568 
L 299.258182 134.547912 
L 303.316364 135.4536 
L 307.374545 135.630504 
L 311.432727 135.43848 
L 315.490909 135.14364 
L 319.549091 134.815536 
L 323.607273 134.473824 
L 327.665455 134.126064 
L 331.723636 133.779816 
L 335.781818 133.436592 
L 339.84 133.100928 
L 343.898182 132.774336 
L 347.956364 132.464376 
L 352.014545 132.18012 
L 356.072727 131.9382 
L 360.130909 131.765832 
L 364.189091 131.725008 
L 368.247273 131.909472 
L 372.305455 132.388776 
L 376.363636 133.116048 
L 380.421818 133.973352 
L 384.48 134.87148 
L 388.538182 135.757512 
L 392.596364 136.589112 
L 396.654545 137.331504 
L 400.712727 137.930256 
L 404.770909 138.321864 
L 408.829091 138.43224 
L 412.887273 138.22812 
L 416.945455 137.73672 
L 421.003636 137.035152 
L 425.061818 136.199016 
L 429.12 135.281232 
L 433.178182 134.321112 
L 437.236364 133.341336 
L 441.294545 132.36156 
L 445.352727 131.396904 
L 449.410909 130.460976 
L 453.469091 129.567384 
L 457.527273 128.729736 
L 461.585455 127.963152 
L 465.643636 127.284264 
L 469.701818 126.705168 
L 473.76 126.233424 
L 477.818182 125.864496 
L 481.876364 125.5878 
L 485.934545 125.39124 
L 489.992727 125.259696 
L 494.050909 125.184096 
L 498.109091 125.159904 
" clip-path="url(#pfa7e0c07fc)" style="fill: none; stroke: #000000; stroke-opacity: 0.5; stroke-linecap: square"/>
   </g>
   <g id="line2d_23">
    <path d="M 92.290909 124.573248 
L 96.349091 124.447752 
L 100.407273 124.080336 
L 104.465455 123.495192 
L 108.523636 122.728608 
L 112.581818 121.821408 
L 116.64 120.808368 
L 120.698182 119.715192 
L 124.756364 118.561536 
L 128.814545 117.359496 
L 132.872727 116.118144 
L 136.930909 114.846552 
L 140.989091 113.546232 
L 145.047273 112.223232 
L 149.105455 110.879064 
L 153.163636 109.518264 
L 157.221818 108.13932 
L 161.28 106.746768 
L 165.338182 105.34212 
L 169.396364 103.923864 
L 173.454545 102.496536 
L 177.512727 101.061648 
L 181.570909 99.620712 
L 185.629091 98.1828 
L 189.687273 96.767568 
L 193.745455 95.477832 
L 197.803636 95.22684 
L 201.861818 96.516576 
L 205.92 98.063352 
L 209.978182 99.652464 
L 214.036364 101.249136 
L 218.094545 102.845808 
L 222.152727 104.43492 
L 226.210909 106.011936 
L 230.269091 107.569296 
L 234.327273 109.093392 
L 238.385455 110.563056 
L 242.443636 111.929904 
L 246.501818 113.089608 
L 250.56 113.859216 
L 254.618182 114.108696 
L 258.676364 113.954472 
L 262.734545 113.581008 
L 266.792727 113.097168 
L 270.850909 112.549824 
L 274.909091 111.966192 
L 278.967273 111.35988 
L 283.025455 110.744496 
L 287.083636 110.13516 
L 291.141818 109.556064 
L 295.2 109.058616 
L 299.258182 108.7668 
L 303.316364 108.908928 
L 307.374545 109.634688 
L 311.432727 110.764152 
L 315.490909 112.075056 
L 319.549091 113.458536 
L 323.607273 114.86772 
L 327.665455 116.279928 
L 331.723636 117.683064 
L 335.781818 119.07108 
L 339.84 120.434904 
L 343.898182 121.771512 
L 347.956364 123.073344 
L 352.014545 124.326792 
L 356.072727 125.518248 
L 360.130909 126.612936 
L 364.189091 127.551888 
L 368.247273 128.236824 
L 372.305455 128.59668 
L 376.363636 128.675304 
L 380.421818 128.583072 
L 384.48 128.403144 
L 388.538182 128.179368 
L 392.596364 127.9314 
L 396.654545 127.672848 
L 400.712727 127.40976 
L 404.770909 127.14516 
L 408.829091 126.883584 
L 412.887273 126.626544 
L 416.945455 126.372528 
L 421.003636 126.12456 
L 425.061818 125.88264 
L 429.12 125.646768 
L 433.178182 125.416944 
L 437.236364 125.190144 
L 441.294545 124.969392 
L 445.352727 124.750152 
L 449.410909 124.5294 
L 453.469091 124.305624 
L 457.527273 124.072776 
L 461.585455 123.824808 
L 465.643636 123.557184 
L 469.701818 123.26688 
L 473.76 122.95692 
L 477.818182 122.6394 
L 481.876364 122.338512 
L 485.934545 122.073912 
L 489.992727 121.869792 
L 494.050909 121.73976 
L 498.109091 121.695912 
" clip-path="url(#pfa7e0c07fc)" style="fill: none; stroke: #000000; stroke-opacity: 0.5; stroke-linecap: square"/>
   </g>
   <g id="patch_3">
    <path d="M 72 384.48 
L 72 51.84 
" style="fill: none; stroke: #000000; stroke-width: 0.8; stroke-linejoin: miter; stroke-linecap: square"/>
   </g>
   <g id="patch_4">
    <path d="M 518.4 384.48 
L 518.4 51.84 
" style="fill: none; stroke: #000000; stroke-width: 0.8; stroke-linejoin: miter; stroke-linecap: square"/>
   </g>
   <g id="patch_5">
    <path d="M 72 384.48 
L 518.4 384.48 
" style="fill: none; stroke: #000000; stroke-width: 0.8; stroke-linejoin: miter; stroke-linecap: square"/>
   </g>
   <g id="patch_6">
    <path d="M 72 51.84 
L 518.4 51.84 
" style="fill: none; stroke: #000000; stroke-width: 0.8; stroke-linejoin: miter; stroke-linecap: square"/>
   </g>
  </g>
 </g>
 <defs>
  <clipPath id="pfa7e0c07fc">
   <rect x="72" y="51.84" width="446.4" height="332.64"/>
  </clipPath>
 </defs>
</svg>
