<?xml version="1.0" encoding="utf-8" standalone="no"?>
<!DOCTYPE svg PUBLIC "-//W3C//DTD SVG 1.1//EN"
  "http://www.w3.org/Graphics/SVG/1.1/DTD/svg11.dtd">
<svg xmlns:xlink="http://www.w3.org/1999/xlink" width="576pt" height="432pt" viewBox="0 0 576 432" xmlns="http://www.w3.org/2000/svg" version="1.1">
 <metadata>
  <rdf:RDF xmlns:dc="http://purl.org/dc/elements/1.1/" xmlns:cc="http://creativecommons.org/ns#" xmlns:rdf="http://www.w3.org/1999/02/22-rdf-syntax-ns#">
   <cc:Work>
    <dc:type rdf:resource="http://purl.org/dc/dcmitype/StillImage"/>
    <dc:date>2023-05-02T20:45:46.716208</dc:date>
    <dc:format>image/svg+xml</dc:format>
    <dc:creator>
     <cc:Agent>
      <dc:title>Matplotlib v3.7.1, https://matplotlib.org/</dc:title>
     </cc:Agent>
    </dc:creator>
   </cc:Work>
  </rdf:RDF>
 </metadata>
 <defs>
  <style type="text/css">*{stroke-linejoin: round; stroke-linecap: butt}</style>
 </defs>
 <g id="figure_1">
  <g id="patch_1">
   <path d="M 0 432 
L 576 432 
L 576 0 
L 0 0 
z
" style="fill: #ffffff"/>
  </g>
  <g id="axes_1">
   <g id="patch_2">
    <path d="M 72 384.48 
L 518.4 384.48 
L 518.4 51.84 
L 72 51.84 
z
" style="fill: #ffffff"/>
   </g>
   <g id="matplotlib.axis_1">
    <g id="xtick_1">
     <g id="line2d_1">
      <defs>
       <path id="md963821cd4" d="M 0 0 
L 0 3.5 
" style="stroke: #000000; stroke-width: 0.8"/>
      </defs>
      <g>
       <use xlink:href="#md963821cd4" x="92.290909" y="384.48" style="stroke: #000000; stroke-width: 0.8"/>
      </g>
     </g>
     <g id="text_1">
      <!-- 0.0 -->
      <g transform="translate(84.339347 399.078438) scale(0.1 -0.1)">
       <defs>
        <path id="DejaVuSans-30" d="M 2034 4250 
Q 1547 4250 1301 3770 
Q 1056 3291 1056 2328 
Q 1056 1369 1301 889 
Q 1547 409 2034 409 
Q 2525 409 2770 889 
Q 3016 1369 3016 2328 
Q 3016 3291 2770 3770 
Q 2525 4250 2034 4250 
z
M 2034 4750 
Q 2819 4750 3233 4129 
Q 3647 3509 3647 2328 
Q 3647 1150 3233 529 
Q 2819 -91 2034 -91 
Q 1250 -91 836 529 
Q 422 1150 422 2328 
Q 422 3509 836 4129 
Q 1250 4750 2034 4750 
z
" transform="scale(0.015625)"/>
        <path id="DejaVuSans-2e" d="M 684 794 
L 1344 794 
L 1344 0 
L 684 0 
L 684 794 
z
" transform="scale(0.015625)"/>
       </defs>
       <use xlink:href="#DejaVuSans-30"/>
       <use xlink:href="#DejaVuSans-2e" x="63.623047"/>
       <use xlink:href="#DejaVuSans-30" x="95.410156"/>
      </g>
     </g>
    </g>
    <g id="xtick_2">
     <g id="line2d_2">
      <g>
       <use xlink:href="#md963821cd4" x="173.454545" y="384.48" style="stroke: #000000; stroke-width: 0.8"/>
      </g>
     </g>
     <g id="text_2">
      <!-- 0.2 -->
      <g transform="translate(165.502983 399.078438) scale(0.1 -0.1)">
       <defs>
        <path id="DejaVuSans-32" d="M 1228 531 
L 3431 531 
L 3431 0 
L 469 0 
L 469 531 
Q 828 903 1448 1529 
Q 2069 2156 2228 2338 
Q 2531 2678 2651 2914 
Q 2772 3150 2772 3378 
Q 2772 3750 2511 3984 
Q 2250 4219 1831 4219 
Q 1534 4219 1204 4116 
Q 875 4013 500 3803 
L 500 4441 
Q 881 4594 1212 4672 
Q 1544 4750 1819 4750 
Q 2544 4750 2975 4387 
Q 3406 4025 3406 3419 
Q 3406 3131 3298 2873 
Q 3191 2616 2906 2266 
Q 2828 2175 2409 1742 
Q 1991 1309 1228 531 
z
" transform="scale(0.015625)"/>
       </defs>
       <use xlink:href="#DejaVuSans-30"/>
       <use xlink:href="#DejaVuSans-2e" x="63.623047"/>
       <use xlink:href="#DejaVuSans-32" x="95.410156"/>
      </g>
     </g>
    </g>
    <g id="xtick_3">
     <g id="line2d_3">
      <g>
       <use xlink:href="#md963821cd4" x="254.618182" y="384.48" style="stroke: #000000; stroke-width: 0.8"/>
      </g>
     </g>
     <g id="text_3">
      <!-- 0.4 -->
      <g transform="translate(246.666619 399.078438) scale(0.1 -0.1)">
       <defs>
        <path id="DejaVuSans-34" d="M 2419 4116 
L 825 1625 
L 2419 1625 
L 2419 4116 
z
M 2253 4666 
L 3047 4666 
L 3047 1625 
L 3713 1625 
L 3713 1100 
L 3047 1100 
L 3047 0 
L 2419 0 
L 2419 1100 
L 313 1100 
L 313 1709 
L 2253 4666 
z
" transform="scale(0.015625)"/>
       </defs>
       <use xlink:href="#DejaVuSans-30"/>
       <use xlink:href="#DejaVuSans-2e" x="63.623047"/>
       <use xlink:href="#DejaVuSans-34" x="95.410156"/>
      </g>
     </g>
    </g>
    <g id="xtick_4">
     <g id="line2d_4">
      <g>
       <use xlink:href="#md963821cd4" x="335.781818" y="384.48" style="stroke: #000000; stroke-width: 0.8"/>
      </g>
     </g>
     <g id="text_4">
      <!-- 0.6 -->
      <g transform="translate(327.830256 399.078438) scale(0.1 -0.1)">
       <defs>
        <path id="DejaVuSans-36" d="M 2113 2584 
Q 1688 2584 1439 2293 
Q 1191 2003 1191 1497 
Q 1191 994 1439 701 
Q 1688 409 2113 409 
Q 2538 409 2786 701 
Q 3034 994 3034 1497 
Q 3034 2003 2786 2293 
Q 2538 2584 2113 2584 
z
M 3366 4563 
L 3366 3988 
Q 3128 4100 2886 4159 
Q 2644 4219 2406 4219 
Q 1781 4219 1451 3797 
Q 1122 3375 1075 2522 
Q 1259 2794 1537 2939 
Q 1816 3084 2150 3084 
Q 2853 3084 3261 2657 
Q 3669 2231 3669 1497 
Q 3669 778 3244 343 
Q 2819 -91 2113 -91 
Q 1303 -91 875 529 
Q 447 1150 447 2328 
Q 447 3434 972 4092 
Q 1497 4750 2381 4750 
Q 2619 4750 2861 4703 
Q 3103 4656 3366 4563 
z
" transform="scale(0.015625)"/>
       </defs>
       <use xlink:href="#DejaVuSans-30"/>
       <use xlink:href="#DejaVuSans-2e" x="63.623047"/>
       <use xlink:href="#DejaVuSans-36" x="95.410156"/>
      </g>
     </g>
    </g>
    <g id="xtick_5">
     <g id="line2d_5">
      <g>
       <use xlink:href="#md963821cd4" x="416.945455" y="384.48" style="stroke: #000000; stroke-width: 0.8"/>
      </g>
     </g>
     <g id="text_5">
      <!-- 0.8 -->
      <g transform="translate(408.993892 399.078438) scale(0.1 -0.1)">
       <defs>
        <path id="DejaVuSans-38" d="M 2034 2216 
Q 1584 2216 1326 1975 
Q 1069 1734 1069 1313 
Q 1069 891 1326 650 
Q 1584 409 2034 409 
Q 2484 409 2743 651 
Q 3003 894 3003 1313 
Q 3003 1734 2745 1975 
Q 2488 2216 2034 2216 
z
M 1403 2484 
Q 997 2584 770 2862 
Q 544 3141 544 3541 
Q 544 4100 942 4425 
Q 1341 4750 2034 4750 
Q 2731 4750 3128 4425 
Q 3525 4100 3525 3541 
Q 3525 3141 3298 2862 
Q 3072 2584 2669 2484 
Q 3125 2378 3379 2068 
Q 3634 1759 3634 1313 
Q 3634 634 3220 271 
Q 2806 -91 2034 -91 
Q 1263 -91 848 271 
Q 434 634 434 1313 
Q 434 1759 690 2068 
Q 947 2378 1403 2484 
z
M 1172 3481 
Q 1172 3119 1398 2916 
Q 1625 2713 2034 2713 
Q 2441 2713 2670 2916 
Q 2900 3119 2900 3481 
Q 2900 3844 2670 4047 
Q 2441 4250 2034 4250 
Q 1625 4250 1398 4047 
Q 1172 3844 1172 3481 
z
" transform="scale(0.015625)"/>
       </defs>
       <use xlink:href="#DejaVuSans-30"/>
       <use xlink:href="#DejaVuSans-2e" x="63.623047"/>
       <use xlink:href="#DejaVuSans-38" x="95.410156"/>
      </g>
     </g>
    </g>
    <g id="xtick_6">
     <g id="line2d_6">
      <g>
       <use xlink:href="#md963821cd4" x="498.109091" y="384.48" style="stroke: #000000; stroke-width: 0.8"/>
      </g>
     </g>
     <g id="text_6">
      <!-- 1.0 -->
      <g transform="translate(490.157528 399.078438) scale(0.1 -0.1)">
       <defs>
        <path id="DejaVuSans-31" d="M 794 531 
L 1825 531 
L 1825 4091 
L 703 3866 
L 703 4441 
L 1819 4666 
L 2450 4666 
L 2450 531 
L 3481 531 
L 3481 0 
L 794 0 
L 794 531 
z
" transform="scale(0.015625)"/>
       </defs>
       <use xlink:href="#DejaVuSans-31"/>
       <use xlink:href="#DejaVuSans-2e" x="63.623047"/>
       <use xlink:href="#DejaVuSans-30" x="95.410156"/>
      </g>
     </g>
    </g>
   </g>
   <g id="matplotlib.axis_2">
    <g id="ytick_1">
     <g id="line2d_7">
      <defs>
       <path id="m2c71553138" d="M 0 0 
L -3.5 0 
" style="stroke: #000000; stroke-width: 0.8"/>
      </defs>
      <g>
       <use xlink:href="#m2c71553138" x="72" y="369.36" style="stroke: #000000; stroke-width: 0.8"/>
      </g>
     </g>
     <g id="text_7">
      <!-- −5.0 -->
      <g transform="translate(40.717187 373.159219) scale(0.1 -0.1)">
       <defs>
        <path id="DejaVuSans-2212" d="M 678 2272 
L 4684 2272 
L 4684 1741 
L 678 1741 
L 678 2272 
z
" transform="scale(0.015625)"/>
        <path id="DejaVuSans-35" d="M 691 4666 
L 3169 4666 
L 3169 4134 
L 1269 4134 
L 1269 2991 
Q 1406 3038 1543 3061 
Q 1681 3084 1819 3084 
Q 2600 3084 3056 2656 
Q 3513 2228 3513 1497 
Q 3513 744 3044 326 
Q 2575 -91 1722 -91 
Q 1428 -91 1123 -41 
Q 819 9 494 109 
L 494 744 
Q 775 591 1075 516 
Q 1375 441 1709 441 
Q 2250 441 2565 725 
Q 2881 1009 2881 1497 
Q 2881 1984 2565 2268 
Q 2250 2553 1709 2553 
Q 1456 2553 1204 2497 
Q 953 2441 691 2322 
L 691 4666 
z
" transform="scale(0.015625)"/>
       </defs>
       <use xlink:href="#DejaVuSans-2212"/>
       <use xlink:href="#DejaVuSans-35" x="83.789062"/>
       <use xlink:href="#DejaVuSans-2e" x="147.412109"/>
       <use xlink:href="#DejaVuSans-30" x="179.199219"/>
      </g>
     </g>
    </g>
    <g id="ytick_2">
     <g id="line2d_8">
      <g>
       <use xlink:href="#m2c71553138" x="72" y="331.56" style="stroke: #000000; stroke-width: 0.8"/>
      </g>
     </g>
     <g id="text_8">
      <!-- −2.5 -->
      <g transform="translate(40.717187 335.359219) scale(0.1 -0.1)">
       <use xlink:href="#DejaVuSans-2212"/>
       <use xlink:href="#DejaVuSans-32" x="83.789062"/>
       <use xlink:href="#DejaVuSans-2e" x="147.412109"/>
       <use xlink:href="#DejaVuSans-35" x="179.199219"/>
      </g>
     </g>
    </g>
    <g id="ytick_3">
     <g id="line2d_9">
      <g>
       <use xlink:href="#m2c71553138" x="72" y="293.76" style="stroke: #000000; stroke-width: 0.8"/>
      </g>
     </g>
     <g id="text_9">
      <!-- 0.0 -->
      <g transform="translate(49.096875 297.559219) scale(0.1 -0.1)">
       <use xlink:href="#DejaVuSans-30"/>
       <use xlink:href="#DejaVuSans-2e" x="63.623047"/>
       <use xlink:href="#DejaVuSans-30" x="95.410156"/>
      </g>
     </g>
    </g>
    <g id="ytick_4">
     <g id="line2d_10">
      <g>
       <use xlink:href="#m2c71553138" x="72" y="255.96" style="stroke: #000000; stroke-width: 0.8"/>
      </g>
     </g>
     <g id="text_10">
      <!-- 2.5 -->
      <g transform="translate(49.096875 259.759219) scale(0.1 -0.1)">
       <use xlink:href="#DejaVuSans-32"/>
       <use xlink:href="#DejaVuSans-2e" x="63.623047"/>
       <use xlink:href="#DejaVuSans-35" x="95.410156"/>
      </g>
     </g>
    </g>
    <g id="ytick_5">
     <g id="line2d_11">
      <g>
       <use xlink:href="#m2c71553138" x="72" y="218.16" style="stroke: #000000; stroke-width: 0.8"/>
      </g>
     </g>
     <g id="text_11">
      <!-- 5.0 -->
      <g transform="translate(49.096875 221.959219) scale(0.1 -0.1)">
       <use xlink:href="#DejaVuSans-35"/>
       <use xlink:href="#DejaVuSans-2e" x="63.623047"/>
       <use xlink:href="#DejaVuSans-30" x="95.410156"/>
      </g>
     </g>
    </g>
    <g id="ytick_6">
     <g id="line2d_12">
      <g>
       <use xlink:href="#m2c71553138" x="72" y="180.36" style="stroke: #000000; stroke-width: 0.8"/>
      </g>
     </g>
     <g id="text_12">
      <!-- 7.5 -->
      <g transform="translate(49.096875 184.159219) scale(0.1 -0.1)">
       <defs>
        <path id="DejaVuSans-37" d="M 525 4666 
L 3525 4666 
L 3525 4397 
L 1831 0 
L 1172 0 
L 2766 4134 
L 525 4134 
L 525 4666 
z
" transform="scale(0.015625)"/>
       </defs>
       <use xlink:href="#DejaVuSans-37"/>
       <use xlink:href="#DejaVuSans-2e" x="63.623047"/>
       <use xlink:href="#DejaVuSans-35" x="95.410156"/>
      </g>
     </g>
    </g>
    <g id="ytick_7">
     <g id="line2d_13">
      <g>
       <use xlink:href="#m2c71553138" x="72" y="142.56" style="stroke: #000000; stroke-width: 0.8"/>
      </g>
     </g>
     <g id="text_13">
      <!-- 10.0 -->
      <g transform="translate(42.734375 146.359219) scale(0.1 -0.1)">
       <use xlink:href="#DejaVuSans-31"/>
       <use xlink:href="#DejaVuSans-30" x="63.623047"/>
       <use xlink:href="#DejaVuSans-2e" x="127.246094"/>
       <use xlink:href="#DejaVuSans-30" x="159.033203"/>
      </g>
     </g>
    </g>
    <g id="ytick_8">
     <g id="line2d_14">
      <g>
       <use xlink:href="#m2c71553138" x="72" y="104.76" style="stroke: #000000; stroke-width: 0.8"/>
      </g>
     </g>
     <g id="text_14">
      <!-- 12.5 -->
      <g transform="translate(42.734375 108.559219) scale(0.1 -0.1)">
       <use xlink:href="#DejaVuSans-31"/>
       <use xlink:href="#DejaVuSans-32" x="63.623047"/>
       <use xlink:href="#DejaVuSans-2e" x="127.246094"/>
       <use xlink:href="#DejaVuSans-35" x="159.033203"/>
      </g>
     </g>
    </g>
    <g id="ytick_9">
     <g id="line2d_15">
      <g>
       <use xlink:href="#m2c71553138" x="72" y="66.96" style="stroke: #000000; stroke-width: 0.8"/>
      </g>
     </g>
     <g id="text_15">
      <!-- 15.0 -->
      <g transform="translate(42.734375 70.759219) scale(0.1 -0.1)">
       <use xlink:href="#DejaVuSans-31"/>
       <use xlink:href="#DejaVuSans-35" x="63.623047"/>
       <use xlink:href="#DejaVuSans-2e" x="127.246094"/>
       <use xlink:href="#DejaVuSans-30" x="159.033203"/>
      </g>
     </g>
    </g>
   </g>
   <g id="line2d_16">
    <path d="M 92.290909 320.717448 
L 96.349091 320.729544 
L 100.407273 320.767344 
L 104.465455 320.826312 
L 108.523636 320.904936 
L 112.581818 320.997168 
L 116.64 321.103008 
L 120.698182 321.216408 
L 124.756364 321.33888 
L 128.814545 321.465888 
L 132.872727 321.598944 
L 136.930909 321.735024 
L 140.989091 321.874128 
L 145.047273 322.017768 
L 149.105455 322.164432 
L 153.163636 322.31412 
L 157.221818 322.46532 
L 161.28 322.619544 
L 165.338182 322.778304 
L 169.396364 322.938576 
L 173.454545 323.103384 
L 177.512727 323.269704 
L 181.570909 323.44056 
L 185.629091 323.615952 
L 189.687273 323.792856 
L 193.745455 323.974296 
L 197.803636 324.160272 
L 201.861818 324.350784 
L 205.92 324.54432 
L 209.978182 324.742392 
L 214.036364 324.945 
L 218.094545 325.150632 
L 222.152727 325.362312 
L 226.210909 325.577016 
L 230.269091 325.796256 
L 234.327273 326.020032 
L 238.385455 326.246832 
L 242.443636 326.47968 
L 246.501818 326.71404 
L 250.56 326.954448 
L 254.618182 327.196368 
L 258.676364 327.442824 
L 262.734545 327.692304 
L 266.792727 327.944808 
L 270.850909 328.200336 
L 274.909091 328.457376 
L 278.967273 328.71744 
L 283.025455 328.979016 
L 287.083636 329.242104 
L 291.141818 329.506704 
L 295.2 329.771304 
L 299.258182 330.037416 
L 303.316364 330.30504 
L 307.374545 330.571152 
L 311.432727 330.837264 
L 315.490909 331.103376 
L 319.549091 331.367976 
L 323.607273 331.632576 
L 327.665455 331.894152 
L 331.723636 332.154216 
L 335.781818 332.412768 
L 339.84 332.668296 
L 343.898182 332.922312 
L 347.956364 333.171792 
L 352.014545 333.418248 
L 356.072727 333.66168 
L 360.130909 333.900576 
L 364.189091 334.134936 
L 368.247273 334.36476 
L 372.305455 334.59156 
L 376.363636 334.812312 
L 380.421818 335.028528 
L 384.48 335.238696 
L 388.538182 335.442816 
L 392.596364 335.6424 
L 396.654545 335.835936 
L 400.712727 336.021912 
L 404.770909 336.203352 
L 408.829091 336.377232 
L 412.887273 336.545064 
L 416.945455 336.705336 
L 421.003636 336.85956 
L 425.061818 337.006224 
L 429.12 337.145328 
L 433.178182 337.278384 
L 437.236364 337.402368 
L 441.294545 337.520304 
L 445.352727 337.629168 
L 449.410909 337.730472 
L 453.469091 337.824216 
L 457.527273 337.9104 
L 461.585455 337.989024 
L 465.643636 338.058576 
L 469.701818 338.120568 
L 473.76 338.175 
L 477.818182 338.22036 
L 481.876364 338.256648 
L 485.934545 338.286888 
L 489.992727 338.306544 
L 494.050909 338.320152 
L 498.109091 338.323176 
" clip-path="url(#pc87ffc9333)" style="fill: none; stroke: #000000; stroke-opacity: 0.5; stroke-linecap: square"/>
   </g>
   <g id="line2d_17">
    <path d="M 92.290909 318.540168 
L 96.349091 318.525048 
L 100.407273 318.479688 
L 104.465455 318.408624 
L 108.523636 318.313368 
L 112.581818 318.198456 
L 116.64 318.066912 
L 120.698182 317.92176 
L 124.756364 317.764512 
L 128.814545 317.59668 
L 132.872727 317.419776 
L 136.930909 317.235312 
L 140.989091 317.043288 
L 145.047273 316.845216 
L 149.105455 316.639584 
L 153.163636 316.429416 
L 157.221818 316.2132 
L 161.28 315.990936 
L 165.338182 315.762624 
L 169.396364 315.531288 
L 173.454545 315.293904 
L 177.512727 315.051984 
L 181.570909 314.804016 
L 185.629091 314.553024 
L 189.687273 314.297496 
L 193.745455 314.037432 
L 197.803636 313.774344 
L 201.861818 313.50672 
L 205.92 313.23456 
L 209.978182 312.959376 
L 214.036364 312.681168 
L 218.094545 312.399936 
L 222.152727 312.11568 
L 226.210909 311.8284 
L 230.269091 311.539608 
L 234.327273 311.24628 
L 238.385455 310.952952 
L 242.443636 310.658112 
L 246.501818 310.360248 
L 250.56 310.062384 
L 254.618182 309.763008 
L 258.676364 309.463632 
L 262.734545 309.164256 
L 266.792727 308.863368 
L 270.850909 308.563992 
L 274.909091 308.266128 
L 278.967273 307.968264 
L 283.025455 307.671912 
L 287.083636 307.378584 
L 291.141818 307.085256 
L 295.2 306.796464 
L 299.258182 306.509184 
L 303.316364 306.22644 
L 307.374545 305.94672 
L 311.432727 305.671536 
L 315.490909 305.400888 
L 319.549091 305.134776 
L 323.607273 304.8732 
L 327.665455 304.61616 
L 331.723636 304.36668 
L 335.781818 304.121736 
L 339.84 303.884352 
L 343.898182 303.653016 
L 347.956364 303.427728 
L 352.014545 303.21 
L 356.072727 302.999832 
L 360.130909 302.795712 
L 364.189091 302.599152 
L 368.247273 302.410152 
L 372.305455 302.230224 
L 376.363636 302.056344 
L 380.421818 301.890024 
L 384.48 301.731264 
L 388.538182 301.581576 
L 392.596364 301.437936 
L 396.654545 301.301856 
L 400.712727 301.173336 
L 404.770909 301.052376 
L 408.829091 300.937464 
L 412.887273 300.830112 
L 416.945455 300.73032 
L 421.003636 300.636576 
L 425.061818 300.54888 
L 429.12 300.467232 
L 433.178182 300.391632 
L 437.236364 300.32208 
L 441.294545 300.257064 
L 445.352727 300.199608 
L 449.410909 300.145176 
L 453.469091 300.096792 
L 457.527273 300.052944 
L 461.585455 300.015144 
L 465.643636 299.980368 
L 469.701818 299.950128 
L 473.76 299.924424 
L 477.818182 299.903256 
L 481.876364 299.885112 
L 485.934545 299.871504 
L 489.992727 299.862432 
L 494.050909 299.856384 
L 498.109091 299.854872 
" clip-path="url(#pc87ffc9333)" style="fill: none; stroke: #000000; stroke-opacity: 0.5; stroke-linecap: square"/>
   </g>
   <g id="line2d_18">
    <path d="M 92.290909 250.719408 
L 96.349091 251.256168 
L 100.407273 251.8776 
L 104.465455 252.503568 
L 108.523636 253.131048 
L 112.581818 253.76004 
L 116.64 254.38752 
L 120.698182 255.011976 
L 124.756364 255.630384 
L 128.814545 256.242744 
L 132.872727 256.849056 
L 136.930909 257.444784 
L 140.989091 258.029928 
L 145.047273 258.604488 
L 149.105455 259.166952 
L 153.163636 259.714296 
L 157.221818 260.248032 
L 161.28 260.766648 
L 165.338182 261.26712 
L 169.396364 261.75096 
L 173.454545 262.218168 
L 177.512727 262.664208 
L 181.570909 263.092104 
L 185.629091 263.500344 
L 189.687273 263.885904 
L 193.745455 264.251808 
L 197.803636 264.595032 
L 201.861818 264.915576 
L 205.92 265.214952 
L 209.978182 265.490136 
L 214.036364 265.74264 
L 218.094545 265.970952 
L 222.152727 266.175072 
L 226.210909 266.356512 
L 230.269091 266.512248 
L 234.327273 266.643792 
L 238.385455 266.752656 
L 242.443636 266.835816 
L 246.501818 266.894784 
L 250.56 266.928048 
L 254.618182 266.938632 
L 258.676364 266.925024 
L 262.734545 266.887224 
L 266.792727 266.825232 
L 270.850909 266.74056 
L 274.909091 266.631696 
L 278.967273 266.501664 
L 283.025455 266.34744 
L 287.083636 266.170536 
L 291.141818 265.972464 
L 295.2 265.751712 
L 299.258182 265.511304 
L 303.316364 265.248216 
L 307.374545 264.965472 
L 311.432727 264.663072 
L 315.490909 264.341016 
L 319.549091 264.000816 
L 323.607273 263.64096 
L 327.665455 263.264472 
L 331.723636 262.86984 
L 335.781818 262.458576 
L 339.84 262.032192 
L 343.898182 261.589176 
L 347.956364 261.13104 
L 352.014545 260.659296 
L 356.072727 260.173944 
L 360.130909 259.676496 
L 364.189091 259.166952 
L 368.247273 258.645312 
L 372.305455 258.1146 
L 376.363636 257.573304 
L 380.421818 257.024448 
L 384.48 256.468032 
L 388.538182 255.904056 
L 392.596364 255.335544 
L 396.654545 254.764008 
L 400.712727 254.187936 
L 404.770909 253.611864 
L 408.829091 253.03428 
L 412.887273 252.45972 
L 416.945455 251.888184 
L 421.003636 251.321184 
L 425.061818 250.761744 
L 429.12 250.209864 
L 433.178182 249.67008 
L 437.236364 249.143904 
L 441.294545 248.632848 
L 445.352727 248.138424 
L 449.410909 247.66668 
L 453.469091 247.217616 
L 457.527273 246.794256 
L 461.585455 246.399624 
L 465.643636 246.035232 
L 469.701818 245.704104 
L 473.76 245.409264 
L 477.818182 245.152224 
L 481.876364 244.934496 
L 485.934545 244.754568 
L 489.992727 244.615464 
L 494.050909 244.515672 
L 498.109091 244.458216 
" clip-path="url(#pc87ffc9333)" style="fill: none; stroke: #000000; stroke-opacity: 0.5; stroke-linecap: square"/>
   </g>
   <g id="line2d_19">
    <path d="M 92.290909 250.54704 
L 96.349091 250.01784 
L 100.407273 249.4206 
L 104.465455 248.835456 
L 108.523636 248.262408 
L 112.581818 247.707504 
L 116.64 247.170744 
L 120.698182 246.656664 
L 124.756364 246.166776 
L 128.814545 245.702592 
L 132.872727 245.265624 
L 136.930909 244.86192 
L 140.989091 244.488456 
L 145.047273 244.15128 
L 149.105455 243.847368 
L 153.163636 243.582768 
L 157.221818 243.354456 
L 161.28 243.163944 
L 165.338182 243.011232 
L 169.396364 242.897832 
L 173.454545 242.822232 
L 177.512727 242.781408 
L 181.570909 242.776872 
L 185.629091 242.8056 
L 189.687273 242.86608 
L 193.745455 242.9568 
L 197.803636 243.076248 
L 201.861818 243.2214 
L 205.92 243.389232 
L 209.978182 243.578232 
L 214.036364 243.786888 
L 218.094545 244.012176 
L 222.152727 244.251072 
L 226.210909 244.502064 
L 230.269091 244.76364 
L 234.327273 245.032776 
L 238.385455 245.309472 
L 242.443636 245.589192 
L 246.501818 245.871936 
L 250.56 246.15468 
L 254.618182 246.437424 
L 258.676364 246.717144 
L 262.734545 246.99384 
L 266.792727 247.264488 
L 270.850909 247.529088 
L 274.909091 247.786128 
L 278.967273 248.034096 
L 283.025455 248.274504 
L 287.083636 248.501304 
L 291.141818 248.719032 
L 295.2 248.923152 
L 299.258182 249.113664 
L 303.316364 249.290568 
L 307.374545 249.453864 
L 311.432727 249.600528 
L 315.490909 249.732072 
L 319.549091 249.848496 
L 323.607273 249.946776 
L 327.665455 250.028424 
L 331.723636 250.09344 
L 335.781818 250.140312 
L 339.84 250.16904 
L 343.898182 250.179624 
L 347.956364 250.173576 
L 352.014545 250.149384 
L 356.072727 250.107048 
L 360.130909 250.04808 
L 364.189091 249.97248 
L 368.247273 249.878736 
L 372.305455 249.76836 
L 376.363636 249.642864 
L 380.421818 249.502248 
L 384.48 249.348024 
L 388.538182 249.17868 
L 392.596364 248.99724 
L 396.654545 248.802192 
L 400.712727 248.598072 
L 404.770909 248.383368 
L 408.829091 248.161104 
L 412.887273 247.93128 
L 416.945455 247.695408 
L 421.003636 247.455 
L 425.061818 247.211568 
L 429.12 246.968136 
L 433.178182 246.724704 
L 437.236364 246.484296 
L 441.294545 246.246912 
L 445.352727 246.017088 
L 449.410909 245.794824 
L 453.469091 245.581632 
L 457.527273 245.380536 
L 461.585455 245.193048 
L 465.643636 245.022192 
L 469.701818 244.867968 
L 473.76 244.7334 
L 477.818182 244.62 
L 481.876364 244.530792 
L 485.934545 244.465776 
L 489.992727 244.429488 
L 494.050909 244.424952 
L 498.109091 244.44612 
" clip-path="url(#pc87ffc9333)" style="fill: none; stroke: #000000; stroke-opacity: 0.5; stroke-linecap: square"/>
   </g>
   <g id="line2d_20">
    <path d="M 92.290909 183.252456 
L 96.349091 183.836088 
L 100.407273 184.558824 
L 104.465455 185.24376 
L 108.523636 185.883336 
L 112.581818 186.474528 
L 116.64 187.014312 
L 120.698182 187.498152 
L 124.756364 187.926048 
L 128.814545 188.294976 
L 132.872727 188.603424 
L 136.930909 188.848368 
L 140.989091 189.028296 
L 145.047273 189.141696 
L 149.105455 189.187056 
L 153.163636 189.164376 
L 157.221818 189.072144 
L 161.28 188.91036 
L 165.338182 188.677512 
L 169.396364 188.376624 
L 173.454545 188.006184 
L 177.512727 187.567704 
L 181.570909 187.062696 
L 185.629091 186.492672 
L 189.687273 185.860656 
L 193.745455 185.165136 
L 197.803636 184.41216 
L 201.861818 183.601728 
L 205.92 182.736864 
L 209.978182 181.81908 
L 214.036364 180.8514 
L 218.094545 179.836848 
L 222.152727 178.775424 
L 226.210909 177.671664 
L 230.269091 176.528592 
L 234.327273 175.344696 
L 238.385455 174.124512 
L 242.443636 172.869552 
L 246.501818 171.581328 
L 250.56 170.261352 
L 254.618182 168.912648 
L 258.676364 167.535216 
L 262.734545 166.13208 
L 266.792727 164.704752 
L 270.850909 163.254744 
L 274.909091 161.783568 
L 278.967273 160.294248 
L 283.025455 158.788296 
L 287.083636 157.270248 
L 291.141818 155.740104 
L 295.2 154.205424 
L 299.258182 152.673768 
L 303.316364 151.157232 
L 307.374545 149.675472 
L 311.432727 148.273848 
L 315.490909 147.079368 
L 319.549091 147.182184 
L 323.607273 148.679064 
L 327.665455 150.266664 
L 331.723636 151.860312 
L 335.781818 153.447912 
L 339.84 155.023416 
L 343.898182 156.588336 
L 347.956364 158.138136 
L 352.014545 159.672816 
L 356.072727 161.190864 
L 360.130909 162.69228 
L 364.189091 164.177064 
L 368.247273 165.642192 
L 372.305455 167.087664 
L 376.363636 168.51348 
L 380.421818 169.916616 
L 384.48 171.298584 
L 388.538182 172.657872 
L 392.596364 173.991456 
L 396.654545 175.300848 
L 400.712727 176.583024 
L 404.770909 177.837984 
L 408.829091 179.061192 
L 412.887273 180.255672 
L 416.945455 181.416888 
L 421.003636 182.543328 
L 425.061818 183.634992 
L 429.12 184.687344 
L 433.178182 185.700384 
L 437.236364 186.671088 
L 441.294545 187.596432 
L 445.352727 188.474904 
L 449.410909 189.30348 
L 453.469091 190.079136 
L 457.527273 190.80036 
L 461.585455 191.464128 
L 465.643636 192.067416 
L 469.701818 192.6072 
L 473.76 193.080456 
L 477.818182 193.485672 
L 481.876364 193.821336 
L 485.934545 194.082912 
L 489.992727 194.271912 
L 494.050909 194.385312 
L 498.109091 194.424624 
" clip-path="url(#pc87ffc9333)" style="fill: none; stroke: #000000; stroke-opacity: 0.5; stroke-linecap: square"/>
   </g>
   <g id="line2d_21">
    <path d="M 92.290909 182.795832 
L 96.349091 182.168352 
L 100.407273 181.321632 
L 104.465455 180.425016 
L 108.523636 179.4906 
L 112.581818 178.518384 
L 116.64 177.512904 
L 120.698182 176.47416 
L 124.756364 175.405176 
L 128.814545 174.305952 
L 132.872727 173.179512 
L 136.930909 172.024344 
L 140.989091 170.843472 
L 145.047273 169.638408 
L 149.105455 168.40764 
L 153.163636 167.154192 
L 157.221818 165.876552 
L 161.28 164.579256 
L 165.338182 163.25928 
L 169.396364 161.919648 
L 173.454545 160.56036 
L 177.512727 159.181416 
L 181.570909 157.784328 
L 185.629091 156.369096 
L 189.687273 154.938744 
L 193.745455 153.490248 
L 197.803636 152.028144 
L 201.861818 150.549408 
L 205.92 149.057064 
L 209.978182 147.552624 
L 214.036364 146.036088 
L 218.094545 144.51048 
L 222.152727 142.974288 
L 226.210909 141.432048 
L 230.269091 139.886784 
L 234.327273 138.343032 
L 238.385455 136.805328 
L 242.443636 135.284256 
L 246.501818 133.793424 
L 250.56 132.358536 
L 254.618182 131.021928 
L 258.676364 129.86676 
L 262.734545 129.030624 
L 266.792727 128.704032 
L 270.850909 129.006432 
L 274.909091 129.850128 
L 278.967273 131.04612 
L 283.025455 132.441696 
L 287.083636 133.950672 
L 291.141818 135.523152 
L 295.2 137.130408 
L 299.258182 138.75732 
L 303.316364 140.393304 
L 307.374545 142.027776 
L 311.432727 143.647128 
L 315.490909 145.193904 
L 319.549091 145.723104 
L 323.607273 145.382904 
L 327.665455 145.655064 
L 331.723636 146.494224 
L 335.781818 147.650904 
L 339.84 148.960296 
L 343.898182 150.342264 
L 347.956364 151.755984 
L 352.014545 153.183312 
L 356.072727 154.61064 
L 360.130909 156.030408 
L 364.189091 157.43808 
L 368.247273 158.830632 
L 372.305455 160.20504 
L 376.363636 161.55828 
L 380.421818 162.890352 
L 384.48 164.198232 
L 388.538182 165.48192 
L 392.596364 166.73688 
L 396.654545 167.966136 
L 400.712727 169.16364 
L 404.770909 170.332416 
L 408.829091 171.467928 
L 412.887273 172.568664 
L 416.945455 173.636136 
L 421.003636 174.665808 
L 425.061818 175.65768 
L 429.12 176.61024 
L 433.178182 177.520464 
L 437.236364 178.38684 
L 441.294545 179.209368 
L 445.352727 179.985024 
L 449.410909 180.712296 
L 453.469091 181.389672 
L 457.527273 182.01564 
L 461.585455 182.587176 
L 465.643636 183.10428 
L 469.701818 183.563928 
L 473.76 183.96612 
L 477.818182 184.307832 
L 481.876364 184.589064 
L 485.934545 184.809816 
L 489.992727 184.968576 
L 494.050909 185.06232 
L 498.109091 185.094072 
" clip-path="url(#pc87ffc9333)" style="fill: none; stroke: #000000; stroke-opacity: 0.5; stroke-linecap: square"/>
   </g>
   <g id="line2d_22">
    <path d="M 92.290909 73.825992 
L 96.349091 73.841112 
L 100.407273 73.887984 
L 104.465455 73.963584 
L 108.523636 74.063376 
L 112.581818 74.185848 
L 116.64 74.326464 
L 120.698182 74.486736 
L 124.756364 74.66364 
L 128.814545 74.863224 
L 132.872727 75.085488 
L 136.930909 75.339504 
L 140.989091 75.635856 
L 145.047273 75.98664 
L 149.105455 76.416048 
L 153.163636 76.949784 
L 157.221818 77.621112 
L 161.28 78.461784 
L 165.338182 79.488432 
L 169.396364 80.701056 
L 173.454545 82.07244 
L 177.512727 83.573856 
L 181.570909 85.169016 
L 185.629091 86.836752 
L 189.687273 88.555896 
L 193.745455 90.309816 
L 197.803636 92.090952 
L 201.861818 93.890232 
L 205.92 95.700096 
L 209.978182 97.51752 
L 214.036364 99.337968 
L 218.094545 101.158416 
L 222.152727 102.972816 
L 226.210909 104.781168 
L 230.269091 106.577424 
L 234.327273 108.355536 
L 238.385455 110.110968 
L 242.443636 111.834648 
L 246.501818 113.508432 
L 250.56 115.10964 
L 254.618182 116.595936 
L 258.676364 117.890208 
L 262.734545 118.860912 
L 266.792727 119.355336 
L 270.850909 119.553408 
L 274.909091 120.707064 
L 278.967273 122.368752 
L 283.025455 124.087896 
L 287.083636 125.808552 
L 291.141818 127.514088 
L 295.2 129.195432 
L 299.258182 130.846536 
L 303.316364 132.453792 
L 307.374545 133.999056 
L 311.432727 135.447552 
L 315.490909 136.728216 
L 319.549091 137.692872 
L 323.607273 138.093552 
L 327.665455 137.748816 
L 331.723636 136.793232 
L 335.781818 135.48384 
L 339.84 133.989984 
L 343.898182 132.390288 
L 347.956364 130.7286 
L 352.014545 129.024576 
L 356.072727 127.2888 
L 360.130909 125.531856 
L 364.189091 123.755256 
L 368.247273 121.965048 
L 372.305455 120.162744 
L 376.363636 118.351368 
L 380.421818 116.53092 
L 384.48 114.705936 
L 388.538182 112.874904 
L 392.596364 111.040848 
L 396.654545 109.203768 
L 400.712727 107.3682 
L 404.770909 105.532632 
L 408.829091 103.700088 
L 412.887273 101.87208 
L 416.945455 100.05012 
L 421.003636 98.238744 
L 425.061818 96.437952 
L 429.12 94.650768 
L 433.178182 92.88324 
L 437.236364 91.135368 
L 441.294545 89.416224 
L 445.352727 87.72732 
L 449.410909 86.076216 
L 453.469091 84.471984 
L 457.527273 82.922184 
L 461.585455 81.438912 
L 465.643636 80.032752 
L 469.701818 78.721848 
L 473.76 77.52132 
L 477.818182 76.450824 
L 481.876364 75.531528 
L 485.934545 74.787624 
L 489.992727 74.237256 
L 494.050909 73.90008 
L 498.109091 73.90008 
" clip-path="url(#pc87ffc9333)" style="fill: none; stroke: #000000; stroke-opacity: 0.5; stroke-linecap: square"/>
   </g>
   <g id="line2d_23">
    <path d="M 92.290909 71.273736 
L 96.349091 71.257104 
L 100.407273 71.210232 
L 104.465455 71.13312 
L 108.523636 71.033328 
L 112.581818 70.916904 
L 116.64 70.786872 
L 120.698182 70.650792 
L 124.756364 70.5132 
L 128.814545 70.383168 
L 132.872727 70.268256 
L 136.930909 70.182072 
L 140.989091 70.14276 
L 145.047273 70.179048 
L 149.105455 70.33176 
L 153.163636 70.64928 
L 157.221818 71.166384 
L 161.28 71.867952 
L 165.338182 72.714672 
L 169.396364 73.70352 
L 173.454545 74.876832 
L 177.512727 76.257288 
L 181.570909 77.813136 
L 185.629091 79.491456 
L 189.687273 81.251424 
L 193.745455 83.064312 
L 197.803636 84.911976 
L 201.861818 86.78232 
L 205.92 88.669296 
L 209.978182 90.565344 
L 214.036364 92.46744 
L 218.094545 94.371048 
L 222.152727 96.274656 
L 226.210909 98.176752 
L 230.269091 100.075824 
L 234.327273 101.968848 
L 238.385455 103.855824 
L 242.443636 105.73524 
L 246.501818 107.605584 
L 250.56 109.463832 
L 254.618182 111.309984 
L 258.676364 113.137992 
L 262.734545 114.938784 
L 266.792727 116.673048 
L 270.850909 118.041408 
L 274.909091 117.875088 
L 278.967273 116.812152 
L 283.025455 115.452864 
L 287.083636 113.939352 
L 291.141818 112.333608 
L 295.2 110.66436 
L 299.258182 108.951264 
L 303.316364 107.206416 
L 307.374545 105.434352 
L 311.432727 103.639608 
L 315.490909 101.828232 
L 319.549091 100.000224 
L 323.607273 98.16012 
L 327.665455 96.309432 
L 331.723636 94.44816 
L 335.781818 92.579328 
L 339.84 90.707472 
L 343.898182 88.832592 
L 347.956364 86.959224 
L 352.014545 85.094928 
L 356.072727 83.250288 
L 360.130909 81.443448 
L 364.189091 79.707672 
L 368.247273 78.111 
L 372.305455 76.766832 
L 376.363636 75.793104 
L 380.421818 75.183768 
L 384.48 74.820888 
L 388.538182 74.594088 
L 392.596364 74.4444 
L 396.654545 74.33856 
L 400.712727 74.259936 
L 404.770909 74.199456 
L 408.829091 74.151072 
L 412.887273 74.11176 
L 416.945455 74.080008 
L 421.003636 74.052792 
L 425.061818 74.0286 
L 429.12 74.008944 
L 433.178182 73.992312 
L 437.236364 73.977192 
L 441.294545 73.965096 
L 445.352727 73.954512 
L 449.410909 73.943928 
L 453.469091 73.936368 
L 457.527273 73.928808 
L 461.585455 73.92276 
L 465.643636 73.916712 
L 469.701818 73.912176 
L 473.76 73.909152 
L 477.818182 73.906128 
L 481.876364 73.903104 
L 485.934545 73.901592 
L 489.992727 73.90008 
L 494.050909 73.90008 
L 498.109091 73.785168 
" clip-path="url(#pc87ffc9333)" style="fill: none; stroke: #000000; stroke-opacity: 0.5; stroke-linecap: square"/>
   </g>
   <g id="patch_3">
    <path d="M 72 384.48 
L 72 51.84 
" style="fill: none; stroke: #000000; stroke-width: 0.8; stroke-linejoin: miter; stroke-linecap: square"/>
   </g>
   <g id="patch_4">
    <path d="M 518.4 384.48 
L 518.4 51.84 
" style="fill: none; stroke: #000000; stroke-width: 0.8; stroke-linejoin: miter; stroke-linecap: square"/>
   </g>
   <g id="patch_5">
    <path d="M 72 384.48 
L 518.4 384.48 
" style="fill: none; stroke: #000000; stroke-width: 0.8; stroke-linejoin: miter; stroke-linecap: square"/>
   </g>
   <g id="patch_6">
    <path d="M 72 51.84 
L 518.4 51.84 
" style="fill: none; stroke: #000000; stroke-width: 0.8; stroke-linejoin: miter; stroke-linecap: square"/>
   </g>
  </g>
 </g>
 <defs>
  <clipPath id="pc87ffc9333">
   <rect x="72" y="51.84" width="446.4" height="332.64"/>
  </clipPath>
 </defs>
</svg>
