<?xml version="1.0" encoding="utf-8" standalone="no"?>
<!DOCTYPE svg PUBLIC "-//W3C//DTD SVG 1.1//EN"
  "http://www.w3.org/Graphics/SVG/1.1/DTD/svg11.dtd">
<svg xmlns:xlink="http://www.w3.org/1999/xlink" width="576pt" height="432pt" viewBox="0 0 576 432" xmlns="http://www.w3.org/2000/svg" version="1.1">
 <metadata>
  <rdf:RDF xmlns:dc="http://purl.org/dc/elements/1.1/" xmlns:cc="http://creativecommons.org/ns#" xmlns:rdf="http://www.w3.org/1999/02/22-rdf-syntax-ns#">
   <cc:Work>
    <dc:type rdf:resource="http://purl.org/dc/dcmitype/StillImage"/>
    <dc:date>2023-05-03T15:54:00.175600</dc:date>
    <dc:format>image/svg+xml</dc:format>
    <dc:creator>
     <cc:Agent>
      <dc:title>Matplotlib v3.7.1, https://matplotlib.org/</dc:title>
     </cc:Agent>
    </dc:creator>
   </cc:Work>
  </rdf:RDF>
 </metadata>
 <defs>
  <style type="text/css">*{stroke-linejoin: round; stroke-linecap: butt}</style>
 </defs>
 <g id="figure_1">
  <g id="patch_1">
   <path d="M 0 432 
L 576 432 
L 576 0 
L 0 0 
z
" style="fill: #ffffff"/>
  </g>
  <g id="axes_1">
   <g id="patch_2">
    <path d="M 72 384.48 
L 518.4 384.48 
L 518.4 51.84 
L 72 51.84 
z
" style="fill: #ffffff"/>
   </g>
   <g id="matplotlib.axis_1">
    <g id="xtick_1">
     <g id="line2d_1">
      <defs>
       <path id="mf1d253b5af" d="M 0 0 
L 0 3.5 
" style="stroke: #000000; stroke-width: 0.8"/>
      </defs>
      <g>
       <use xlink:href="#mf1d253b5af" x="92.290909" y="384.48" style="stroke: #000000; stroke-width: 0.8"/>
      </g>
     </g>
     <g id="text_1">
      <!-- 0.0 -->
      <g transform="translate(84.339347 399.078438) scale(0.1 -0.1)">
       <defs>
        <path id="DejaVuSans-30" d="M 2034 4250 
Q 1547 4250 1301 3770 
Q 1056 3291 1056 2328 
Q 1056 1369 1301 889 
Q 1547 409 2034 409 
Q 2525 409 2770 889 
Q 3016 1369 3016 2328 
Q 3016 3291 2770 3770 
Q 2525 4250 2034 4250 
z
M 2034 4750 
Q 2819 4750 3233 4129 
Q 3647 3509 3647 2328 
Q 3647 1150 3233 529 
Q 2819 -91 2034 -91 
Q 1250 -91 836 529 
Q 422 1150 422 2328 
Q 422 3509 836 4129 
Q 1250 4750 2034 4750 
z
" transform="scale(0.015625)"/>
        <path id="DejaVuSans-2e" d="M 684 794 
L 1344 794 
L 1344 0 
L 684 0 
L 684 794 
z
" transform="scale(0.015625)"/>
       </defs>
       <use xlink:href="#DejaVuSans-30"/>
       <use xlink:href="#DejaVuSans-2e" x="63.623047"/>
       <use xlink:href="#DejaVuSans-30" x="95.410156"/>
      </g>
     </g>
    </g>
    <g id="xtick_2">
     <g id="line2d_2">
      <g>
       <use xlink:href="#mf1d253b5af" x="173.454545" y="384.48" style="stroke: #000000; stroke-width: 0.8"/>
      </g>
     </g>
     <g id="text_2">
      <!-- 0.2 -->
      <g transform="translate(165.502983 399.078438) scale(0.1 -0.1)">
       <defs>
        <path id="DejaVuSans-32" d="M 1228 531 
L 3431 531 
L 3431 0 
L 469 0 
L 469 531 
Q 828 903 1448 1529 
Q 2069 2156 2228 2338 
Q 2531 2678 2651 2914 
Q 2772 3150 2772 3378 
Q 2772 3750 2511 3984 
Q 2250 4219 1831 4219 
Q 1534 4219 1204 4116 
Q 875 4013 500 3803 
L 500 4441 
Q 881 4594 1212 4672 
Q 1544 4750 1819 4750 
Q 2544 4750 2975 4387 
Q 3406 4025 3406 3419 
Q 3406 3131 3298 2873 
Q 3191 2616 2906 2266 
Q 2828 2175 2409 1742 
Q 1991 1309 1228 531 
z
" transform="scale(0.015625)"/>
       </defs>
       <use xlink:href="#DejaVuSans-30"/>
       <use xlink:href="#DejaVuSans-2e" x="63.623047"/>
       <use xlink:href="#DejaVuSans-32" x="95.410156"/>
      </g>
     </g>
    </g>
    <g id="xtick_3">
     <g id="line2d_3">
      <g>
       <use xlink:href="#mf1d253b5af" x="254.618182" y="384.48" style="stroke: #000000; stroke-width: 0.8"/>
      </g>
     </g>
     <g id="text_3">
      <!-- 0.4 -->
      <g transform="translate(246.666619 399.078438) scale(0.1 -0.1)">
       <defs>
        <path id="DejaVuSans-34" d="M 2419 4116 
L 825 1625 
L 2419 1625 
L 2419 4116 
z
M 2253 4666 
L 3047 4666 
L 3047 1625 
L 3713 1625 
L 3713 1100 
L 3047 1100 
L 3047 0 
L 2419 0 
L 2419 1100 
L 313 1100 
L 313 1709 
L 2253 4666 
z
" transform="scale(0.015625)"/>
       </defs>
       <use xlink:href="#DejaVuSans-30"/>
       <use xlink:href="#DejaVuSans-2e" x="63.623047"/>
       <use xlink:href="#DejaVuSans-34" x="95.410156"/>
      </g>
     </g>
    </g>
    <g id="xtick_4">
     <g id="line2d_4">
      <g>
       <use xlink:href="#mf1d253b5af" x="335.781818" y="384.48" style="stroke: #000000; stroke-width: 0.8"/>
      </g>
     </g>
     <g id="text_4">
      <!-- 0.6 -->
      <g transform="translate(327.830256 399.078438) scale(0.1 -0.1)">
       <defs>
        <path id="DejaVuSans-36" d="M 2113 2584 
Q 1688 2584 1439 2293 
Q 1191 2003 1191 1497 
Q 1191 994 1439 701 
Q 1688 409 2113 409 
Q 2538 409 2786 701 
Q 3034 994 3034 1497 
Q 3034 2003 2786 2293 
Q 2538 2584 2113 2584 
z
M 3366 4563 
L 3366 3988 
Q 3128 4100 2886 4159 
Q 2644 4219 2406 4219 
Q 1781 4219 1451 3797 
Q 1122 3375 1075 2522 
Q 1259 2794 1537 2939 
Q 1816 3084 2150 3084 
Q 2853 3084 3261 2657 
Q 3669 2231 3669 1497 
Q 3669 778 3244 343 
Q 2819 -91 2113 -91 
Q 1303 -91 875 529 
Q 447 1150 447 2328 
Q 447 3434 972 4092 
Q 1497 4750 2381 4750 
Q 2619 4750 2861 4703 
Q 3103 4656 3366 4563 
z
" transform="scale(0.015625)"/>
       </defs>
       <use xlink:href="#DejaVuSans-30"/>
       <use xlink:href="#DejaVuSans-2e" x="63.623047"/>
       <use xlink:href="#DejaVuSans-36" x="95.410156"/>
      </g>
     </g>
    </g>
    <g id="xtick_5">
     <g id="line2d_5">
      <g>
       <use xlink:href="#mf1d253b5af" x="416.945455" y="384.48" style="stroke: #000000; stroke-width: 0.8"/>
      </g>
     </g>
     <g id="text_5">
      <!-- 0.8 -->
      <g transform="translate(408.993892 399.078438) scale(0.1 -0.1)">
       <defs>
        <path id="DejaVuSans-38" d="M 2034 2216 
Q 1584 2216 1326 1975 
Q 1069 1734 1069 1313 
Q 1069 891 1326 650 
Q 1584 409 2034 409 
Q 2484 409 2743 651 
Q 3003 894 3003 1313 
Q 3003 1734 2745 1975 
Q 2488 2216 2034 2216 
z
M 1403 2484 
Q 997 2584 770 2862 
Q 544 3141 544 3541 
Q 544 4100 942 4425 
Q 1341 4750 2034 4750 
Q 2731 4750 3128 4425 
Q 3525 4100 3525 3541 
Q 3525 3141 3298 2862 
Q 3072 2584 2669 2484 
Q 3125 2378 3379 2068 
Q 3634 1759 3634 1313 
Q 3634 634 3220 271 
Q 2806 -91 2034 -91 
Q 1263 -91 848 271 
Q 434 634 434 1313 
Q 434 1759 690 2068 
Q 947 2378 1403 2484 
z
M 1172 3481 
Q 1172 3119 1398 2916 
Q 1625 2713 2034 2713 
Q 2441 2713 2670 2916 
Q 2900 3119 2900 3481 
Q 2900 3844 2670 4047 
Q 2441 4250 2034 4250 
Q 1625 4250 1398 4047 
Q 1172 3844 1172 3481 
z
" transform="scale(0.015625)"/>
       </defs>
       <use xlink:href="#DejaVuSans-30"/>
       <use xlink:href="#DejaVuSans-2e" x="63.623047"/>
       <use xlink:href="#DejaVuSans-38" x="95.410156"/>
      </g>
     </g>
    </g>
    <g id="xtick_6">
     <g id="line2d_6">
      <g>
       <use xlink:href="#mf1d253b5af" x="498.109091" y="384.48" style="stroke: #000000; stroke-width: 0.8"/>
      </g>
     </g>
     <g id="text_6">
      <!-- 1.0 -->
      <g transform="translate(490.157528 399.078438) scale(0.1 -0.1)">
       <defs>
        <path id="DejaVuSans-31" d="M 794 531 
L 1825 531 
L 1825 4091 
L 703 3866 
L 703 4441 
L 1819 4666 
L 2450 4666 
L 2450 531 
L 3481 531 
L 3481 0 
L 794 0 
L 794 531 
z
" transform="scale(0.015625)"/>
       </defs>
       <use xlink:href="#DejaVuSans-31"/>
       <use xlink:href="#DejaVuSans-2e" x="63.623047"/>
       <use xlink:href="#DejaVuSans-30" x="95.410156"/>
      </g>
     </g>
    </g>
   </g>
   <g id="matplotlib.axis_2">
    <g id="ytick_1">
     <g id="line2d_7">
      <defs>
       <path id="mb78adf1557" d="M 0 0 
L -3.5 0 
" style="stroke: #000000; stroke-width: 0.8"/>
      </defs>
      <g>
       <use xlink:href="#mb78adf1557" x="72" y="369.36" style="stroke: #000000; stroke-width: 0.8"/>
      </g>
     </g>
     <g id="text_7">
      <!-- −5.0 -->
      <g transform="translate(40.717187 373.159219) scale(0.1 -0.1)">
       <defs>
        <path id="DejaVuSans-2212" d="M 678 2272 
L 4684 2272 
L 4684 1741 
L 678 1741 
L 678 2272 
z
" transform="scale(0.015625)"/>
        <path id="DejaVuSans-35" d="M 691 4666 
L 3169 4666 
L 3169 4134 
L 1269 4134 
L 1269 2991 
Q 1406 3038 1543 3061 
Q 1681 3084 1819 3084 
Q 2600 3084 3056 2656 
Q 3513 2228 3513 1497 
Q 3513 744 3044 326 
Q 2575 -91 1722 -91 
Q 1428 -91 1123 -41 
Q 819 9 494 109 
L 494 744 
Q 775 591 1075 516 
Q 1375 441 1709 441 
Q 2250 441 2565 725 
Q 2881 1009 2881 1497 
Q 2881 1984 2565 2268 
Q 2250 2553 1709 2553 
Q 1456 2553 1204 2497 
Q 953 2441 691 2322 
L 691 4666 
z
" transform="scale(0.015625)"/>
       </defs>
       <use xlink:href="#DejaVuSans-2212"/>
       <use xlink:href="#DejaVuSans-35" x="83.789062"/>
       <use xlink:href="#DejaVuSans-2e" x="147.412109"/>
       <use xlink:href="#DejaVuSans-30" x="179.199219"/>
      </g>
     </g>
    </g>
    <g id="ytick_2">
     <g id="line2d_8">
      <g>
       <use xlink:href="#mb78adf1557" x="72" y="331.56" style="stroke: #000000; stroke-width: 0.8"/>
      </g>
     </g>
     <g id="text_8">
      <!-- −2.5 -->
      <g transform="translate(40.717187 335.359219) scale(0.1 -0.1)">
       <use xlink:href="#DejaVuSans-2212"/>
       <use xlink:href="#DejaVuSans-32" x="83.789062"/>
       <use xlink:href="#DejaVuSans-2e" x="147.412109"/>
       <use xlink:href="#DejaVuSans-35" x="179.199219"/>
      </g>
     </g>
    </g>
    <g id="ytick_3">
     <g id="line2d_9">
      <g>
       <use xlink:href="#mb78adf1557" x="72" y="293.76" style="stroke: #000000; stroke-width: 0.8"/>
      </g>
     </g>
     <g id="text_9">
      <!-- 0.0 -->
      <g transform="translate(49.096875 297.559219) scale(0.1 -0.1)">
       <use xlink:href="#DejaVuSans-30"/>
       <use xlink:href="#DejaVuSans-2e" x="63.623047"/>
       <use xlink:href="#DejaVuSans-30" x="95.410156"/>
      </g>
     </g>
    </g>
    <g id="ytick_4">
     <g id="line2d_10">
      <g>
       <use xlink:href="#mb78adf1557" x="72" y="255.96" style="stroke: #000000; stroke-width: 0.8"/>
      </g>
     </g>
     <g id="text_10">
      <!-- 2.5 -->
      <g transform="translate(49.096875 259.759219) scale(0.1 -0.1)">
       <use xlink:href="#DejaVuSans-32"/>
       <use xlink:href="#DejaVuSans-2e" x="63.623047"/>
       <use xlink:href="#DejaVuSans-35" x="95.410156"/>
      </g>
     </g>
    </g>
    <g id="ytick_5">
     <g id="line2d_11">
      <g>
       <use xlink:href="#mb78adf1557" x="72" y="218.16" style="stroke: #000000; stroke-width: 0.8"/>
      </g>
     </g>
     <g id="text_11">
      <!-- 5.0 -->
      <g transform="translate(49.096875 221.959219) scale(0.1 -0.1)">
       <use xlink:href="#DejaVuSans-35"/>
       <use xlink:href="#DejaVuSans-2e" x="63.623047"/>
       <use xlink:href="#DejaVuSans-30" x="95.410156"/>
      </g>
     </g>
    </g>
    <g id="ytick_6">
     <g id="line2d_12">
      <g>
       <use xlink:href="#mb78adf1557" x="72" y="180.36" style="stroke: #000000; stroke-width: 0.8"/>
      </g>
     </g>
     <g id="text_12">
      <!-- 7.5 -->
      <g transform="translate(49.096875 184.159219) scale(0.1 -0.1)">
       <defs>
        <path id="DejaVuSans-37" d="M 525 4666 
L 3525 4666 
L 3525 4397 
L 1831 0 
L 1172 0 
L 2766 4134 
L 525 4134 
L 525 4666 
z
" transform="scale(0.015625)"/>
       </defs>
       <use xlink:href="#DejaVuSans-37"/>
       <use xlink:href="#DejaVuSans-2e" x="63.623047"/>
       <use xlink:href="#DejaVuSans-35" x="95.410156"/>
      </g>
     </g>
    </g>
    <g id="ytick_7">
     <g id="line2d_13">
      <g>
       <use xlink:href="#mb78adf1557" x="72" y="142.56" style="stroke: #000000; stroke-width: 0.8"/>
      </g>
     </g>
     <g id="text_13">
      <!-- 10.0 -->
      <g transform="translate(42.734375 146.359219) scale(0.1 -0.1)">
       <use xlink:href="#DejaVuSans-31"/>
       <use xlink:href="#DejaVuSans-30" x="63.623047"/>
       <use xlink:href="#DejaVuSans-2e" x="127.246094"/>
       <use xlink:href="#DejaVuSans-30" x="159.033203"/>
      </g>
     </g>
    </g>
    <g id="ytick_8">
     <g id="line2d_14">
      <g>
       <use xlink:href="#mb78adf1557" x="72" y="104.76" style="stroke: #000000; stroke-width: 0.8"/>
      </g>
     </g>
     <g id="text_14">
      <!-- 12.5 -->
      <g transform="translate(42.734375 108.559219) scale(0.1 -0.1)">
       <use xlink:href="#DejaVuSans-31"/>
       <use xlink:href="#DejaVuSans-32" x="63.623047"/>
       <use xlink:href="#DejaVuSans-2e" x="127.246094"/>
       <use xlink:href="#DejaVuSans-35" x="159.033203"/>
      </g>
     </g>
    </g>
    <g id="ytick_9">
     <g id="line2d_15">
      <g>
       <use xlink:href="#mb78adf1557" x="72" y="66.96" style="stroke: #000000; stroke-width: 0.8"/>
      </g>
     </g>
     <g id="text_15">
      <!-- 15.0 -->
      <g transform="translate(42.734375 70.759219) scale(0.1 -0.1)">
       <use xlink:href="#DejaVuSans-31"/>
       <use xlink:href="#DejaVuSans-35" x="63.623047"/>
       <use xlink:href="#DejaVuSans-2e" x="127.246094"/>
       <use xlink:href="#DejaVuSans-30" x="159.033203"/>
      </g>
     </g>
    </g>
   </g>
   <g id="line2d_16">
    <path d="M 92.290909 356.117904 
L 96.349091 356.113368 
L 100.407273 356.09976 
L 104.465455 356.075568 
L 108.523636 356.043816 
L 112.581818 356.00148 
L 116.64 355.950072 
L 120.698182 355.889592 
L 124.756364 355.82004 
L 128.814545 355.741416 
L 132.872727 355.65372 
L 136.930909 355.556952 
L 140.989091 355.451112 
L 145.047273 355.3362 
L 149.105455 355.212216 
L 153.163636 355.080672 
L 157.221818 354.940056 
L 161.28 354.79188 
L 165.338182 354.634632 
L 169.396364 354.469824 
L 173.454545 354.295944 
L 177.512727 354.116016 
L 181.570909 353.927016 
L 185.629091 353.731968 
L 189.687273 353.52936 
L 193.745455 353.319192 
L 197.803636 353.102976 
L 201.861818 352.880712 
L 205.92 352.6524 
L 209.978182 352.416528 
L 214.036364 352.17612 
L 218.094545 351.931176 
L 222.152727 351.681696 
L 226.210909 351.426168 
L 230.269091 351.167616 
L 234.327273 350.904528 
L 238.385455 350.638416 
L 242.443636 350.36928 
L 246.501818 350.098632 
L 250.56 349.82496 
L 254.618182 349.549776 
L 258.676364 349.274592 
L 262.734545 348.999408 
L 266.792727 348.722712 
L 270.850909 348.447528 
L 274.909091 348.175368 
L 278.967273 347.903208 
L 283.025455 347.634072 
L 287.083636 347.369472 
L 291.141818 347.107896 
L 295.2 346.849344 
L 299.258182 346.598352 
L 303.316364 346.351896 
L 307.374545 346.111488 
L 311.432727 345.880152 
L 315.490909 345.654864 
L 319.549091 345.437136 
L 323.607273 345.22848 
L 327.665455 345.028896 
L 331.723636 344.839896 
L 335.781818 344.658456 
L 339.84 344.489112 
L 343.898182 344.32884 
L 347.956364 344.179152 
L 352.014545 344.040048 
L 356.072727 343.91304 
L 360.130909 343.795104 
L 364.189091 343.68624 
L 368.247273 343.589472 
L 372.305455 343.501776 
L 376.363636 343.424664 
L 380.421818 343.355112 
L 384.48 343.294632 
L 388.538182 343.243224 
L 392.596364 343.199376 
L 396.654545 343.163088 
L 400.712727 343.13436 
L 404.770909 343.11168 
L 408.829091 343.093536 
L 412.887273 343.08144 
L 416.945455 343.07388 
L 421.003636 343.070856 
L 425.061818 343.070856 
L 429.12 343.07388 
L 433.178182 343.079928 
L 437.236364 343.087488 
L 441.294545 343.098072 
L 445.352727 343.108656 
L 449.410909 343.120752 
L 453.469091 343.132848 
L 457.527273 343.144944 
L 461.585455 343.15704 
L 465.643636 343.167624 
L 469.701818 343.17972 
L 473.76 343.188792 
L 477.818182 343.197864 
L 481.876364 343.205424 
L 485.934545 343.20996 
L 489.992727 343.214496 
L 494.050909 343.21752 
L 498.109091 343.21752 
" clip-path="url(#pcbc09860c5)" style="fill: none; stroke: #000000; stroke-opacity: 0.5; stroke-linecap: square"/>
   </g>
   <g id="line2d_17">
    <path d="M 92.290909 277.797816 
L 96.349091 277.837128 
L 100.407273 277.955064 
L 104.465455 278.147088 
L 108.523636 278.411688 
L 112.581818 278.741304 
L 116.64 279.132912 
L 120.698182 279.578952 
L 124.756364 280.071864 
L 128.814545 280.607112 
L 132.872727 281.178648 
L 136.930909 281.781936 
L 140.989091 282.410928 
L 145.047273 283.061088 
L 149.105455 283.729392 
L 153.163636 284.411304 
L 157.221818 285.105312 
L 161.28 285.80688 
L 165.338182 286.512984 
L 169.396364 287.225136 
L 173.454545 287.937288 
L 177.512727 288.64944 
L 181.570909 289.36008 
L 185.629091 290.066184 
L 189.687273 290.769264 
L 193.745455 291.466296 
L 197.803636 292.155768 
L 201.861818 292.83768 
L 205.92 293.512032 
L 209.978182 294.174288 
L 214.036364 294.827472 
L 218.094545 295.46856 
L 222.152727 296.097552 
L 226.210909 296.712936 
L 230.269091 297.314712 
L 234.327273 297.90288 
L 238.385455 298.474416 
L 242.443636 299.030832 
L 246.501818 299.570616 
L 250.56 300.093768 
L 254.618182 300.598776 
L 258.676364 301.084128 
L 262.734545 301.549824 
L 266.792727 301.997376 
L 270.850909 302.422248 
L 274.909091 302.827464 
L 278.967273 303.21 
L 283.025455 303.569856 
L 287.083636 303.907032 
L 291.141818 304.218504 
L 295.2 304.507296 
L 299.258182 304.770384 
L 303.316364 305.006256 
L 307.374545 305.217936 
L 311.432727 305.400888 
L 315.490909 305.558136 
L 319.549091 305.686656 
L 323.607273 305.78796 
L 327.665455 305.860536 
L 331.723636 305.902872 
L 335.781818 305.917992 
L 339.84 305.904384 
L 343.898182 305.862048 
L 347.956364 305.790984 
L 352.014545 305.691192 
L 356.072727 305.562672 
L 360.130909 305.406936 
L 364.189091 305.223984 
L 368.247273 305.015328 
L 372.305455 304.779456 
L 376.363636 304.519392 
L 380.421818 304.235136 
L 384.48 303.926688 
L 388.538182 303.597072 
L 392.596364 303.2478 
L 396.654545 302.878872 
L 400.712727 302.4918 
L 404.770909 302.088096 
L 408.829091 301.669272 
L 412.887273 301.239864 
L 416.945455 300.79836 
L 421.003636 300.347784 
L 425.061818 299.89116 
L 429.12 299.43 
L 433.178182 298.967328 
L 437.236364 298.504656 
L 441.294545 298.048032 
L 445.352727 297.597456 
L 449.410909 297.157464 
L 453.469091 296.73108 
L 457.527273 296.32284 
L 461.585455 295.935768 
L 465.643636 295.575912 
L 469.701818 295.244784 
L 473.76 294.94692 
L 477.818182 294.686856 
L 481.876364 294.469128 
L 485.934545 294.295248 
L 489.992727 294.169752 
L 494.050909 294.09264 
L 498.109091 294.066936 
" clip-path="url(#pcbc09860c5)" style="fill: none; stroke: #000000; stroke-opacity: 0.5; stroke-linecap: square"/>
   </g>
   <g id="line2d_18">
    <path d="M 92.290909 251.942616 
L 96.349091 251.898768 
L 100.407273 251.767224 
L 104.465455 251.551008 
L 108.523636 251.256168 
L 112.581818 250.884216 
L 116.64 250.442712 
L 120.698182 249.939216 
L 124.756364 249.379776 
L 128.814545 248.77044 
L 132.872727 248.117256 
L 136.930909 247.426272 
L 140.989091 246.703536 
L 145.047273 245.953584 
L 149.105455 245.180952 
L 153.163636 244.388664 
L 157.221818 243.58428 
L 161.28 242.7678 
L 165.338182 241.945272 
L 169.396364 241.118208 
L 173.454545 240.292656 
L 177.512727 239.468616 
L 181.570909 238.652136 
L 185.629091 237.84624 
L 189.687273 237.05244 
L 193.745455 236.278296 
L 197.803636 235.52532 
L 201.861818 234.79956 
L 205.92 234.107064 
L 209.978182 233.45388 
L 214.036364 232.847568 
L 218.094545 232.298712 
L 222.152727 231.816384 
L 226.210909 231.408144 
L 230.269091 231.081552 
L 234.327273 230.841144 
L 238.385455 230.682384 
L 242.443636 230.600736 
L 246.501818 230.584104 
L 250.56 230.624928 
L 254.618182 230.714136 
L 258.676364 230.844168 
L 262.734545 231.007464 
L 266.792727 231.201 
L 270.850909 231.423264 
L 274.909091 231.668208 
L 278.967273 231.935832 
L 283.025455 232.226136 
L 287.083636 232.536096 
L 291.141818 232.865712 
L 295.2 233.214984 
L 299.258182 233.583912 
L 303.316364 233.970984 
L 307.374545 234.379224 
L 311.432727 234.805608 
L 315.490909 235.25316 
L 319.549091 235.720368 
L 323.607273 236.207232 
L 327.665455 236.716776 
L 331.723636 237.247488 
L 335.781818 237.799368 
L 339.84 238.372416 
L 343.898182 238.969656 
L 347.956364 239.588064 
L 352.014545 240.22764 
L 356.072727 240.888384 
L 360.130909 241.570296 
L 364.189091 242.273376 
L 368.247273 242.9946 
L 372.305455 243.733968 
L 376.363636 244.488456 
L 380.421818 245.259576 
L 384.48 246.042792 
L 388.538182 246.838104 
L 392.596364 247.644 
L 396.654545 248.455944 
L 400.712727 249.273936 
L 404.770909 250.09344 
L 408.829091 250.915968 
L 412.887273 251.735472 
L 416.945455 252.55044 
L 421.003636 253.35936 
L 425.061818 254.159208 
L 429.12 254.94696 
L 433.178182 255.71808 
L 437.236364 256.472568 
L 441.294545 257.204376 
L 445.352727 257.911992 
L 449.410909 258.59088 
L 453.469091 259.236504 
L 457.527273 259.847352 
L 461.585455 260.417376 
L 465.643636 260.94204 
L 469.701818 261.41832 
L 473.76 261.84168 
L 477.818182 262.209096 
L 481.876364 262.51452 
L 485.934545 262.75644 
L 489.992727 262.93032 
L 494.050909 263.03616 
L 498.109091 263.072448 
" clip-path="url(#pcbc09860c5)" style="fill: none; stroke: #000000; stroke-opacity: 0.5; stroke-linecap: square"/>
   </g>
   <g id="line2d_19">
    <path d="M 92.290909 226.296072 
L 96.349091 226.296072 
L 100.407273 226.296072 
L 104.465455 226.296072 
L 108.523636 226.296072 
L 112.581818 226.296072 
L 116.64 226.296072 
L 120.698182 226.297584 
L 124.756364 226.297584 
L 128.814545 226.299096 
L 132.872727 226.30212 
L 136.930909 226.305144 
L 140.989091 226.30968 
L 145.047273 226.315728 
L 149.105455 226.321776 
L 153.163636 226.330848 
L 157.221818 226.341432 
L 161.28 226.352016 
L 165.338182 226.367136 
L 169.396364 226.382256 
L 173.454545 226.398888 
L 177.512727 226.418544 
L 181.570909 226.439712 
L 185.629091 226.46088 
L 189.687273 226.480536 
L 193.745455 226.501704 
L 197.803636 226.518336 
L 201.861818 226.530432 
L 205.92 226.534968 
L 209.978182 226.527408 
L 214.036364 226.501704 
L 218.094545 226.45332 
L 222.152727 226.374696 
L 226.210909 226.259784 
L 230.269091 226.104048 
L 234.327273 225.905976 
L 238.385455 225.670104 
L 242.443636 225.408528 
L 246.501818 225.128808 
L 250.56 224.846064 
L 254.618182 224.569368 
L 258.676364 224.307792 
L 262.734545 224.070408 
L 266.792727 223.86024 
L 270.850909 223.684848 
L 274.909091 223.544232 
L 278.967273 223.442928 
L 283.025455 223.380936 
L 287.083636 223.359768 
L 291.141818 223.379424 
L 295.2 223.438392 
L 299.258182 223.536672 
L 303.316364 223.672752 
L 307.374545 223.843608 
L 311.432727 224.04924 
L 315.490909 224.285112 
L 319.549091 224.5482 
L 323.607273 224.836992 
L 327.665455 225.148464 
L 331.723636 225.47808 
L 335.781818 225.822816 
L 339.84 226.179648 
L 343.898182 226.545552 
L 347.956364 226.919016 
L 352.014545 227.293992 
L 356.072727 227.671992 
L 360.130909 228.046968 
L 364.189091 228.41892 
L 368.247273 228.786336 
L 372.305455 229.146192 
L 376.363636 229.5 
L 380.421818 229.843224 
L 384.48 230.177376 
L 388.538182 230.499432 
L 392.596364 230.812416 
L 396.654545 231.113304 
L 400.712727 231.402096 
L 404.770909 231.678792 
L 408.829091 231.944904 
L 412.887273 232.197408 
L 416.945455 232.439328 
L 421.003636 232.66764 
L 425.061818 232.883856 
L 429.12 233.087976 
L 433.178182 233.281512 
L 437.236364 233.46144 
L 441.294545 233.630784 
L 445.352727 233.78652 
L 449.410909 233.931672 
L 453.469091 234.064728 
L 457.527273 234.185688 
L 461.585455 234.296064 
L 465.643636 234.392832 
L 469.701818 234.480528 
L 473.76 234.554616 
L 477.818182 234.61812 
L 481.876364 234.669528 
L 485.934545 234.710352 
L 489.992727 234.73908 
L 494.050909 234.755712 
L 498.109091 234.76176 
" clip-path="url(#pcbc09860c5)" style="fill: none; stroke: #000000; stroke-opacity: 0.5; stroke-linecap: square"/>
   </g>
   <g id="line2d_20">
    <path d="M 92.290909 156.393288 
L 96.349091 156.453768 
L 100.407273 156.630672 
L 104.465455 156.911904 
L 108.523636 157.280832 
L 112.581818 157.720824 
L 116.64 158.219784 
L 120.698182 158.76108 
L 124.756364 159.33564 
L 128.814545 159.934392 
L 132.872727 160.548264 
L 136.930909 161.17272 
L 140.989091 161.801712 
L 145.047273 162.429192 
L 149.105455 163.052136 
L 153.163636 163.669032 
L 157.221818 164.273832 
L 161.28 164.868048 
L 165.338182 165.445632 
L 169.396364 166.006584 
L 173.454545 166.549392 
L 177.512727 167.071032 
L 181.570909 167.573016 
L 185.629091 168.053832 
L 189.687273 168.510456 
L 193.745455 168.9444 
L 197.803636 169.354152 
L 201.861818 169.739712 
L 205.92 170.10108 
L 209.978182 170.436744 
L 214.036364 170.749728 
L 218.094545 171.03852 
L 222.152727 171.30312 
L 226.210909 171.54504 
L 230.269091 171.765792 
L 234.327273 171.963864 
L 238.385455 172.14228 
L 242.443636 172.30104 
L 246.501818 172.441656 
L 250.56 172.562616 
L 254.618182 172.668456 
L 258.676364 172.757664 
L 262.734545 172.828728 
L 266.792727 172.884672 
L 270.850909 172.922472 
L 274.909091 172.94364 
L 278.967273 172.946664 
L 283.025455 172.930032 
L 287.083636 172.892232 
L 291.141818 172.831752 
L 295.2 172.748592 
L 299.258182 172.639728 
L 303.316364 172.506672 
L 307.374545 172.344888 
L 311.432727 172.155888 
L 315.490909 171.93816 
L 319.549091 171.690192 
L 323.607273 171.413496 
L 327.665455 171.10656 
L 331.723636 170.770896 
L 335.781818 170.406504 
L 339.84 170.013384 
L 343.898182 169.591536 
L 347.956364 169.142472 
L 352.014545 168.666192 
L 356.072727 168.16572 
L 360.130909 167.641056 
L 364.189091 167.095224 
L 368.247273 166.526712 
L 372.305455 165.940056 
L 376.363636 165.336768 
L 380.421818 164.721384 
L 384.48 164.096928 
L 388.538182 163.47096 
L 392.596364 162.849528 
L 396.654545 162.247752 
L 400.712727 161.680752 
L 404.770909 161.174232 
L 408.829091 160.750872 
L 412.887273 160.433352 
L 416.945455 160.224696 
L 421.003636 160.109784 
L 425.061818 160.067448 
L 429.12 160.075008 
L 433.178182 160.115832 
L 437.236364 160.1748 
L 441.294545 160.247376 
L 445.352727 160.324488 
L 449.410909 160.404624 
L 453.469091 160.48476 
L 457.527273 160.56036 
L 461.585455 160.631424 
L 465.643636 160.697952 
L 469.701818 160.758432 
L 473.76 160.811352 
L 477.818182 160.858224 
L 481.876364 160.896024 
L 485.934545 160.924752 
L 489.992727 160.94592 
L 494.050909 160.959528 
L 498.109091 160.964064 
" clip-path="url(#pcbc09860c5)" style="fill: none; stroke: #000000; stroke-opacity: 0.5; stroke-linecap: square"/>
   </g>
   <g id="line2d_21">
    <path d="M 92.290909 152.388 
L 96.349091 152.375904 
L 100.407273 152.339616 
L 104.465455 152.288208 
L 108.523636 152.22924 
L 112.581818 152.167248 
L 116.64 152.109792 
L 120.698182 152.058384 
L 124.756364 152.013024 
L 128.814545 151.975224 
L 132.872727 151.944984 
L 136.930909 151.922304 
L 140.989091 151.907184 
L 145.047273 151.899624 
L 149.105455 151.898112 
L 153.163636 151.905672 
L 157.221818 151.920792 
L 161.28 151.944984 
L 165.338182 151.976736 
L 169.396364 152.019072 
L 173.454545 152.071992 
L 177.512727 152.135496 
L 181.570909 152.211096 
L 185.629091 152.300304 
L 189.687273 152.401608 
L 193.745455 152.519544 
L 197.803636 152.649576 
L 201.861818 152.79624 
L 205.92 152.955 
L 209.978182 153.12888 
L 214.036364 153.314856 
L 218.094545 153.509904 
L 222.152727 153.712512 
L 226.210909 153.918144 
L 230.269091 154.122264 
L 234.327273 154.320336 
L 238.385455 154.507824 
L 242.443636 154.677168 
L 246.501818 154.825344 
L 250.56 154.944792 
L 254.618182 155.032488 
L 258.676364 155.082384 
L 262.734545 155.09448 
L 266.792727 155.062728 
L 270.850909 154.98864 
L 274.909091 154.872216 
L 278.967273 154.71648 
L 283.025455 154.524456 
L 287.083636 154.303704 
L 291.141818 154.06632 
L 295.2 153.822888 
L 299.258182 153.593064 
L 303.316364 153.394992 
L 307.374545 153.246816 
L 311.432727 153.160632 
L 315.490909 153.139464 
L 319.549091 153.178776 
L 323.607273 153.267984 
L 327.665455 153.398016 
L 331.723636 153.558288 
L 335.781818 153.74124 
L 339.84 153.942336 
L 343.898182 154.154016 
L 347.956364 154.373256 
L 352.014545 154.597032 
L 356.072727 154.823832 
L 360.130909 155.04912 
L 364.189091 155.272896 
L 368.247273 155.490624 
L 372.305455 155.700792 
L 376.363636 155.901888 
L 380.421818 156.090888 
L 384.48 156.260232 
L 388.538182 156.406896 
L 392.596364 156.520296 
L 396.654545 156.59136 
L 400.712727 156.600432 
L 404.770909 156.524832 
L 408.829091 156.340368 
L 412.887273 156.025872 
L 416.945455 155.579832 
L 421.003636 155.015856 
L 425.061818 154.358136 
L 429.12 153.629352 
L 433.178182 152.846136 
L 437.236364 152.02512 
L 441.294545 151.173864 
L 445.352727 150.30144 
L 449.410909 149.413896 
L 453.469091 148.515768 
L 457.527273 147.616128 
L 461.585455 146.718 
L 465.643636 145.830456 
L 469.701818 144.96408 
L 473.76 144.130968 
L 477.818182 143.349264 
L 481.876364 142.638624 
L 485.934545 142.0308 
L 489.992727 141.557544 
L 494.050909 141.253632 
L 498.109091 141.149304 
" clip-path="url(#pcbc09860c5)" style="fill: none; stroke: #000000; stroke-opacity: 0.5; stroke-linecap: square"/>
   </g>
   <g id="line2d_22">
    <path d="M 92.290909 136.69344 
L 96.349091 136.628424 
L 100.407273 136.434888 
L 104.465455 136.120392 
L 108.523636 135.690984 
L 112.581818 135.160272 
L 116.64 134.53884 
L 120.698182 133.840296 
L 124.756364 133.07976 
L 128.814545 132.273864 
L 132.872727 131.4468 
L 136.930909 130.63788 
L 140.989091 129.928752 
L 145.047273 129.472128 
L 149.105455 129.455496 
L 153.163636 129.869784 
L 157.221818 130.536576 
L 161.28 131.32584 
L 165.338182 132.171048 
L 169.396364 133.043472 
L 173.454545 133.924968 
L 177.512727 134.804952 
L 181.570909 135.67284 
L 185.629091 136.52712 
L 189.687273 137.360232 
L 193.745455 138.169152 
L 197.803636 138.950856 
L 201.861818 139.700808 
L 205.92 140.417496 
L 209.978182 141.097896 
L 214.036364 141.74352 
L 218.094545 142.349832 
L 222.152727 142.918344 
L 226.210909 143.450568 
L 230.269091 143.946504 
L 234.327273 144.409176 
L 238.385455 144.838584 
L 242.443636 145.239264 
L 246.501818 145.612728 
L 250.56 145.962 
L 254.618182 146.288592 
L 258.676364 146.594016 
L 262.734545 146.881296 
L 266.792727 147.14892 
L 270.850909 147.399912 
L 274.909091 147.631248 
L 278.967273 147.839904 
L 283.025455 148.024368 
L 287.083636 148.17708 
L 291.141818 148.29048 
L 295.2 148.35096 
L 299.258182 148.3434 
L 303.316364 148.251168 
L 307.374545 148.059144 
L 311.432727 147.756744 
L 315.490909 147.343968 
L 319.549091 146.826864 
L 323.607273 146.216016 
L 327.665455 145.528056 
L 331.723636 144.769032 
L 335.781818 143.952552 
L 339.84 143.086176 
L 343.898182 142.17444 
L 347.956364 141.223392 
L 352.014545 140.237568 
L 356.072727 139.219992 
L 360.130909 138.1752 
L 364.189091 137.104704 
L 368.247273 136.01304 
L 372.305455 134.900208 
L 376.363636 133.76772 
L 380.421818 132.620112 
L 384.48 131.458896 
L 388.538182 130.284072 
L 392.596364 129.098664 
L 396.654545 127.905696 
L 400.712727 126.703656 
L 404.770909 125.498592 
L 408.829091 124.290504 
L 412.887273 123.083928 
L 416.945455 121.8834 
L 421.003636 120.69648 
L 425.061818 119.533752 
L 429.12 118.42092 
L 433.178182 117.416952 
L 437.236364 116.683632 
L 441.294545 116.562672 
L 445.352727 117.161424 
L 449.410909 118.130616 
L 453.469091 119.223792 
L 457.527273 120.353256 
L 461.585455 121.478184 
L 465.643636 122.57892 
L 469.701818 123.640344 
L 473.76 124.644312 
L 477.818182 125.57268 
L 481.876364 126.402768 
L 485.934545 127.105848 
L 489.992727 127.647144 
L 494.050909 127.990368 
L 498.109091 128.108304 
" clip-path="url(#pcbc09860c5)" style="fill: none; stroke: #000000; stroke-opacity: 0.5; stroke-linecap: square"/>
   </g>
   <g id="line2d_23">
    <path d="M 92.290909 118.873008 
L 96.349091 118.933488 
L 100.407273 119.11644 
L 104.465455 119.412792 
L 108.523636 119.814984 
L 112.581818 120.312432 
L 116.64 120.888504 
L 120.698182 121.531104 
L 124.756364 122.2236 
L 128.814545 122.947848 
L 132.872727 123.676632 
L 136.930909 124.369128 
L 140.989091 124.943688 
L 145.047273 125.243064 
L 149.105455 125.078256 
L 153.163636 124.46136 
L 157.221818 123.564744 
L 161.28 122.516928 
L 165.338182 121.381416 
L 169.396364 120.18996 
L 173.454545 118.956168 
L 177.512727 117.690624 
L 181.570909 116.397864 
L 185.629091 115.083936 
L 189.687273 113.74884 
L 193.745455 112.398624 
L 197.803636 111.033288 
L 201.861818 109.657368 
L 205.92 108.269352 
L 209.978182 106.873776 
L 214.036364 105.472152 
L 218.094545 104.065992 
L 222.152727 102.65832 
L 226.210909 101.25216 
L 230.269091 99.850536 
L 234.327273 98.457984 
L 238.385455 97.076016 
L 242.443636 95.712192 
L 246.501818 94.37256 
L 250.56 93.061656 
L 254.618182 91.790064 
L 258.676364 90.566856 
L 262.734545 89.404128 
L 266.792727 88.30944 
L 270.850909 87.297912 
L 274.909091 86.377104 
L 278.967273 85.556088 
L 283.025455 84.837888 
L 287.083636 84.217968 
L 291.141818 83.693304 
L 295.2 83.256336 
L 299.258182 82.894968 
L 303.316364 82.604664 
L 307.374545 82.376352 
L 311.432727 82.20852 
L 315.490909 82.099656 
L 319.549091 82.055808 
L 323.607273 82.084536 
L 327.665455 82.194912 
L 331.723636 82.406592 
L 335.781818 82.734696 
L 339.84 83.197368 
L 343.898182 83.806704 
L 347.956364 84.564216 
L 352.014545 85.462344 
L 356.072727 86.482944 
L 360.130909 87.604848 
L 364.189091 88.806888 
L 368.247273 90.069408 
L 372.305455 91.377288 
L 376.363636 92.719944 
L 380.421818 94.086792 
L 384.48 95.471784 
L 388.538182 96.865848 
L 392.596364 98.267472 
L 396.654545 99.670608 
L 400.712727 101.073744 
L 404.770909 102.470832 
L 408.829091 103.86036 
L 412.887273 105.237792 
L 416.945455 106.598592 
L 421.003636 107.9352 
L 425.061818 109.238544 
L 429.12 110.479896 
L 433.178182 111.604824 
L 437.236364 112.451544 
L 441.294545 112.676832 
L 445.352727 112.17636 
L 449.410909 111.302424 
L 453.469091 110.299968 
L 457.527273 109.262736 
L 461.585455 108.23004 
L 465.643636 107.226072 
L 469.701818 106.270488 
L 473.76 105.378408 
L 477.818182 104.569488 
L 481.876364 103.864896 
L 485.934545 103.2858 
L 489.992727 102.851856 
L 494.050909 102.58272 
L 498.109091 102.492 
" clip-path="url(#pcbc09860c5)" style="fill: none; stroke: #000000; stroke-opacity: 0.5; stroke-linecap: square"/>
   </g>
   <g id="patch_3">
    <path d="M 72 384.48 
L 72 51.84 
" style="fill: none; stroke: #000000; stroke-width: 0.8; stroke-linejoin: miter; stroke-linecap: square"/>
   </g>
   <g id="patch_4">
    <path d="M 518.4 384.48 
L 518.4 51.84 
" style="fill: none; stroke: #000000; stroke-width: 0.8; stroke-linejoin: miter; stroke-linecap: square"/>
   </g>
   <g id="patch_5">
    <path d="M 72 384.48 
L 518.4 384.48 
" style="fill: none; stroke: #000000; stroke-width: 0.8; stroke-linejoin: miter; stroke-linecap: square"/>
   </g>
   <g id="patch_6">
    <path d="M 72 51.84 
L 518.4 51.84 
" style="fill: none; stroke: #000000; stroke-width: 0.8; stroke-linejoin: miter; stroke-linecap: square"/>
   </g>
  </g>
 </g>
 <defs>
  <clipPath id="pcbc09860c5">
   <rect x="72" y="51.84" width="446.4" height="332.64"/>
  </clipPath>
 </defs>
</svg>
