<?xml version="1.0" encoding="utf-8" standalone="no"?>
<!DOCTYPE svg PUBLIC "-//W3C//DTD SVG 1.1//EN"
  "http://www.w3.org/Graphics/SVG/1.1/DTD/svg11.dtd">
<svg xmlns:xlink="http://www.w3.org/1999/xlink" width="576pt" height="432pt" viewBox="0 0 576 432" xmlns="http://www.w3.org/2000/svg" version="1.1">
 <metadata>
  <rdf:RDF xmlns:dc="http://purl.org/dc/elements/1.1/" xmlns:cc="http://creativecommons.org/ns#" xmlns:rdf="http://www.w3.org/1999/02/22-rdf-syntax-ns#">
   <cc:Work>
    <dc:type rdf:resource="http://purl.org/dc/dcmitype/StillImage"/>
    <dc:date>2023-05-03T07:55:18.201336</dc:date>
    <dc:format>image/svg+xml</dc:format>
    <dc:creator>
     <cc:Agent>
      <dc:title>Matplotlib v3.7.1, https://matplotlib.org/</dc:title>
     </cc:Agent>
    </dc:creator>
   </cc:Work>
  </rdf:RDF>
 </metadata>
 <defs>
  <style type="text/css">*{stroke-linejoin: round; stroke-linecap: butt}</style>
 </defs>
 <g id="figure_1">
  <g id="patch_1">
   <path d="M 0 432 
L 576 432 
L 576 0 
L 0 0 
z
" style="fill: #ffffff"/>
  </g>
  <g id="axes_1">
   <g id="patch_2">
    <path d="M 72 384.48 
L 518.4 384.48 
L 518.4 51.84 
L 72 51.84 
z
" style="fill: #ffffff"/>
   </g>
   <g id="matplotlib.axis_1">
    <g id="xtick_1">
     <g id="line2d_1">
      <defs>
       <path id="m1c863050dd" d="M 0 0 
L 0 3.5 
" style="stroke: #000000; stroke-width: 0.8"/>
      </defs>
      <g>
       <use xlink:href="#m1c863050dd" x="92.290909" y="384.48" style="stroke: #000000; stroke-width: 0.8"/>
      </g>
     </g>
     <g id="text_1">
      <!-- 0.0 -->
      <g transform="translate(84.339347 399.078438) scale(0.1 -0.1)">
       <defs>
        <path id="DejaVuSans-30" d="M 2034 4250 
Q 1547 4250 1301 3770 
Q 1056 3291 1056 2328 
Q 1056 1369 1301 889 
Q 1547 409 2034 409 
Q 2525 409 2770 889 
Q 3016 1369 3016 2328 
Q 3016 3291 2770 3770 
Q 2525 4250 2034 4250 
z
M 2034 4750 
Q 2819 4750 3233 4129 
Q 3647 3509 3647 2328 
Q 3647 1150 3233 529 
Q 2819 -91 2034 -91 
Q 1250 -91 836 529 
Q 422 1150 422 2328 
Q 422 3509 836 4129 
Q 1250 4750 2034 4750 
z
" transform="scale(0.015625)"/>
        <path id="DejaVuSans-2e" d="M 684 794 
L 1344 794 
L 1344 0 
L 684 0 
L 684 794 
z
" transform="scale(0.015625)"/>
       </defs>
       <use xlink:href="#DejaVuSans-30"/>
       <use xlink:href="#DejaVuSans-2e" x="63.623047"/>
       <use xlink:href="#DejaVuSans-30" x="95.410156"/>
      </g>
     </g>
    </g>
    <g id="xtick_2">
     <g id="line2d_2">
      <g>
       <use xlink:href="#m1c863050dd" x="173.454545" y="384.48" style="stroke: #000000; stroke-width: 0.8"/>
      </g>
     </g>
     <g id="text_2">
      <!-- 0.2 -->
      <g transform="translate(165.502983 399.078438) scale(0.1 -0.1)">
       <defs>
        <path id="DejaVuSans-32" d="M 1228 531 
L 3431 531 
L 3431 0 
L 469 0 
L 469 531 
Q 828 903 1448 1529 
Q 2069 2156 2228 2338 
Q 2531 2678 2651 2914 
Q 2772 3150 2772 3378 
Q 2772 3750 2511 3984 
Q 2250 4219 1831 4219 
Q 1534 4219 1204 4116 
Q 875 4013 500 3803 
L 500 4441 
Q 881 4594 1212 4672 
Q 1544 4750 1819 4750 
Q 2544 4750 2975 4387 
Q 3406 4025 3406 3419 
Q 3406 3131 3298 2873 
Q 3191 2616 2906 2266 
Q 2828 2175 2409 1742 
Q 1991 1309 1228 531 
z
" transform="scale(0.015625)"/>
       </defs>
       <use xlink:href="#DejaVuSans-30"/>
       <use xlink:href="#DejaVuSans-2e" x="63.623047"/>
       <use xlink:href="#DejaVuSans-32" x="95.410156"/>
      </g>
     </g>
    </g>
    <g id="xtick_3">
     <g id="line2d_3">
      <g>
       <use xlink:href="#m1c863050dd" x="254.618182" y="384.48" style="stroke: #000000; stroke-width: 0.8"/>
      </g>
     </g>
     <g id="text_3">
      <!-- 0.4 -->
      <g transform="translate(246.666619 399.078438) scale(0.1 -0.1)">
       <defs>
        <path id="DejaVuSans-34" d="M 2419 4116 
L 825 1625 
L 2419 1625 
L 2419 4116 
z
M 2253 4666 
L 3047 4666 
L 3047 1625 
L 3713 1625 
L 3713 1100 
L 3047 1100 
L 3047 0 
L 2419 0 
L 2419 1100 
L 313 1100 
L 313 1709 
L 2253 4666 
z
" transform="scale(0.015625)"/>
       </defs>
       <use xlink:href="#DejaVuSans-30"/>
       <use xlink:href="#DejaVuSans-2e" x="63.623047"/>
       <use xlink:href="#DejaVuSans-34" x="95.410156"/>
      </g>
     </g>
    </g>
    <g id="xtick_4">
     <g id="line2d_4">
      <g>
       <use xlink:href="#m1c863050dd" x="335.781818" y="384.48" style="stroke: #000000; stroke-width: 0.8"/>
      </g>
     </g>
     <g id="text_4">
      <!-- 0.6 -->
      <g transform="translate(327.830256 399.078438) scale(0.1 -0.1)">
       <defs>
        <path id="DejaVuSans-36" d="M 2113 2584 
Q 1688 2584 1439 2293 
Q 1191 2003 1191 1497 
Q 1191 994 1439 701 
Q 1688 409 2113 409 
Q 2538 409 2786 701 
Q 3034 994 3034 1497 
Q 3034 2003 2786 2293 
Q 2538 2584 2113 2584 
z
M 3366 4563 
L 3366 3988 
Q 3128 4100 2886 4159 
Q 2644 4219 2406 4219 
Q 1781 4219 1451 3797 
Q 1122 3375 1075 2522 
Q 1259 2794 1537 2939 
Q 1816 3084 2150 3084 
Q 2853 3084 3261 2657 
Q 3669 2231 3669 1497 
Q 3669 778 3244 343 
Q 2819 -91 2113 -91 
Q 1303 -91 875 529 
Q 447 1150 447 2328 
Q 447 3434 972 4092 
Q 1497 4750 2381 4750 
Q 2619 4750 2861 4703 
Q 3103 4656 3366 4563 
z
" transform="scale(0.015625)"/>
       </defs>
       <use xlink:href="#DejaVuSans-30"/>
       <use xlink:href="#DejaVuSans-2e" x="63.623047"/>
       <use xlink:href="#DejaVuSans-36" x="95.410156"/>
      </g>
     </g>
    </g>
    <g id="xtick_5">
     <g id="line2d_5">
      <g>
       <use xlink:href="#m1c863050dd" x="416.945455" y="384.48" style="stroke: #000000; stroke-width: 0.8"/>
      </g>
     </g>
     <g id="text_5">
      <!-- 0.8 -->
      <g transform="translate(408.993892 399.078438) scale(0.1 -0.1)">
       <defs>
        <path id="DejaVuSans-38" d="M 2034 2216 
Q 1584 2216 1326 1975 
Q 1069 1734 1069 1313 
Q 1069 891 1326 650 
Q 1584 409 2034 409 
Q 2484 409 2743 651 
Q 3003 894 3003 1313 
Q 3003 1734 2745 1975 
Q 2488 2216 2034 2216 
z
M 1403 2484 
Q 997 2584 770 2862 
Q 544 3141 544 3541 
Q 544 4100 942 4425 
Q 1341 4750 2034 4750 
Q 2731 4750 3128 4425 
Q 3525 4100 3525 3541 
Q 3525 3141 3298 2862 
Q 3072 2584 2669 2484 
Q 3125 2378 3379 2068 
Q 3634 1759 3634 1313 
Q 3634 634 3220 271 
Q 2806 -91 2034 -91 
Q 1263 -91 848 271 
Q 434 634 434 1313 
Q 434 1759 690 2068 
Q 947 2378 1403 2484 
z
M 1172 3481 
Q 1172 3119 1398 2916 
Q 1625 2713 2034 2713 
Q 2441 2713 2670 2916 
Q 2900 3119 2900 3481 
Q 2900 3844 2670 4047 
Q 2441 4250 2034 4250 
Q 1625 4250 1398 4047 
Q 1172 3844 1172 3481 
z
" transform="scale(0.015625)"/>
       </defs>
       <use xlink:href="#DejaVuSans-30"/>
       <use xlink:href="#DejaVuSans-2e" x="63.623047"/>
       <use xlink:href="#DejaVuSans-38" x="95.410156"/>
      </g>
     </g>
    </g>
    <g id="xtick_6">
     <g id="line2d_6">
      <g>
       <use xlink:href="#m1c863050dd" x="498.109091" y="384.48" style="stroke: #000000; stroke-width: 0.8"/>
      </g>
     </g>
     <g id="text_6">
      <!-- 1.0 -->
      <g transform="translate(490.157528 399.078438) scale(0.1 -0.1)">
       <defs>
        <path id="DejaVuSans-31" d="M 794 531 
L 1825 531 
L 1825 4091 
L 703 3866 
L 703 4441 
L 1819 4666 
L 2450 4666 
L 2450 531 
L 3481 531 
L 3481 0 
L 794 0 
L 794 531 
z
" transform="scale(0.015625)"/>
       </defs>
       <use xlink:href="#DejaVuSans-31"/>
       <use xlink:href="#DejaVuSans-2e" x="63.623047"/>
       <use xlink:href="#DejaVuSans-30" x="95.410156"/>
      </g>
     </g>
    </g>
   </g>
   <g id="matplotlib.axis_2">
    <g id="ytick_1">
     <g id="line2d_7">
      <defs>
       <path id="mb42101a06b" d="M 0 0 
L -3.5 0 
" style="stroke: #000000; stroke-width: 0.8"/>
      </defs>
      <g>
       <use xlink:href="#mb42101a06b" x="72" y="369.36" style="stroke: #000000; stroke-width: 0.8"/>
      </g>
     </g>
     <g id="text_7">
      <!-- −5.0 -->
      <g transform="translate(40.717187 373.159219) scale(0.1 -0.1)">
       <defs>
        <path id="DejaVuSans-2212" d="M 678 2272 
L 4684 2272 
L 4684 1741 
L 678 1741 
L 678 2272 
z
" transform="scale(0.015625)"/>
        <path id="DejaVuSans-35" d="M 691 4666 
L 3169 4666 
L 3169 4134 
L 1269 4134 
L 1269 2991 
Q 1406 3038 1543 3061 
Q 1681 3084 1819 3084 
Q 2600 3084 3056 2656 
Q 3513 2228 3513 1497 
Q 3513 744 3044 326 
Q 2575 -91 1722 -91 
Q 1428 -91 1123 -41 
Q 819 9 494 109 
L 494 744 
Q 775 591 1075 516 
Q 1375 441 1709 441 
Q 2250 441 2565 725 
Q 2881 1009 2881 1497 
Q 2881 1984 2565 2268 
Q 2250 2553 1709 2553 
Q 1456 2553 1204 2497 
Q 953 2441 691 2322 
L 691 4666 
z
" transform="scale(0.015625)"/>
       </defs>
       <use xlink:href="#DejaVuSans-2212"/>
       <use xlink:href="#DejaVuSans-35" x="83.789062"/>
       <use xlink:href="#DejaVuSans-2e" x="147.412109"/>
       <use xlink:href="#DejaVuSans-30" x="179.199219"/>
      </g>
     </g>
    </g>
    <g id="ytick_2">
     <g id="line2d_8">
      <g>
       <use xlink:href="#mb42101a06b" x="72" y="331.56" style="stroke: #000000; stroke-width: 0.8"/>
      </g>
     </g>
     <g id="text_8">
      <!-- −2.5 -->
      <g transform="translate(40.717187 335.359219) scale(0.1 -0.1)">
       <use xlink:href="#DejaVuSans-2212"/>
       <use xlink:href="#DejaVuSans-32" x="83.789062"/>
       <use xlink:href="#DejaVuSans-2e" x="147.412109"/>
       <use xlink:href="#DejaVuSans-35" x="179.199219"/>
      </g>
     </g>
    </g>
    <g id="ytick_3">
     <g id="line2d_9">
      <g>
       <use xlink:href="#mb42101a06b" x="72" y="293.76" style="stroke: #000000; stroke-width: 0.8"/>
      </g>
     </g>
     <g id="text_9">
      <!-- 0.0 -->
      <g transform="translate(49.096875 297.559219) scale(0.1 -0.1)">
       <use xlink:href="#DejaVuSans-30"/>
       <use xlink:href="#DejaVuSans-2e" x="63.623047"/>
       <use xlink:href="#DejaVuSans-30" x="95.410156"/>
      </g>
     </g>
    </g>
    <g id="ytick_4">
     <g id="line2d_10">
      <g>
       <use xlink:href="#mb42101a06b" x="72" y="255.96" style="stroke: #000000; stroke-width: 0.8"/>
      </g>
     </g>
     <g id="text_10">
      <!-- 2.5 -->
      <g transform="translate(49.096875 259.759219) scale(0.1 -0.1)">
       <use xlink:href="#DejaVuSans-32"/>
       <use xlink:href="#DejaVuSans-2e" x="63.623047"/>
       <use xlink:href="#DejaVuSans-35" x="95.410156"/>
      </g>
     </g>
    </g>
    <g id="ytick_5">
     <g id="line2d_11">
      <g>
       <use xlink:href="#mb42101a06b" x="72" y="218.16" style="stroke: #000000; stroke-width: 0.8"/>
      </g>
     </g>
     <g id="text_11">
      <!-- 5.0 -->
      <g transform="translate(49.096875 221.959219) scale(0.1 -0.1)">
       <use xlink:href="#DejaVuSans-35"/>
       <use xlink:href="#DejaVuSans-2e" x="63.623047"/>
       <use xlink:href="#DejaVuSans-30" x="95.410156"/>
      </g>
     </g>
    </g>
    <g id="ytick_6">
     <g id="line2d_12">
      <g>
       <use xlink:href="#mb42101a06b" x="72" y="180.36" style="stroke: #000000; stroke-width: 0.8"/>
      </g>
     </g>
     <g id="text_12">
      <!-- 7.5 -->
      <g transform="translate(49.096875 184.159219) scale(0.1 -0.1)">
       <defs>
        <path id="DejaVuSans-37" d="M 525 4666 
L 3525 4666 
L 3525 4397 
L 1831 0 
L 1172 0 
L 2766 4134 
L 525 4134 
L 525 4666 
z
" transform="scale(0.015625)"/>
       </defs>
       <use xlink:href="#DejaVuSans-37"/>
       <use xlink:href="#DejaVuSans-2e" x="63.623047"/>
       <use xlink:href="#DejaVuSans-35" x="95.410156"/>
      </g>
     </g>
    </g>
    <g id="ytick_7">
     <g id="line2d_13">
      <g>
       <use xlink:href="#mb42101a06b" x="72" y="142.56" style="stroke: #000000; stroke-width: 0.8"/>
      </g>
     </g>
     <g id="text_13">
      <!-- 10.0 -->
      <g transform="translate(42.734375 146.359219) scale(0.1 -0.1)">
       <use xlink:href="#DejaVuSans-31"/>
       <use xlink:href="#DejaVuSans-30" x="63.623047"/>
       <use xlink:href="#DejaVuSans-2e" x="127.246094"/>
       <use xlink:href="#DejaVuSans-30" x="159.033203"/>
      </g>
     </g>
    </g>
    <g id="ytick_8">
     <g id="line2d_14">
      <g>
       <use xlink:href="#mb42101a06b" x="72" y="104.76" style="stroke: #000000; stroke-width: 0.8"/>
      </g>
     </g>
     <g id="text_14">
      <!-- 12.5 -->
      <g transform="translate(42.734375 108.559219) scale(0.1 -0.1)">
       <use xlink:href="#DejaVuSans-31"/>
       <use xlink:href="#DejaVuSans-32" x="63.623047"/>
       <use xlink:href="#DejaVuSans-2e" x="127.246094"/>
       <use xlink:href="#DejaVuSans-35" x="159.033203"/>
      </g>
     </g>
    </g>
    <g id="ytick_9">
     <g id="line2d_15">
      <g>
       <use xlink:href="#mb42101a06b" x="72" y="66.96" style="stroke: #000000; stroke-width: 0.8"/>
      </g>
     </g>
     <g id="text_15">
      <!-- 15.0 -->
      <g transform="translate(42.734375 70.759219) scale(0.1 -0.1)">
       <use xlink:href="#DejaVuSans-31"/>
       <use xlink:href="#DejaVuSans-35" x="63.623047"/>
       <use xlink:href="#DejaVuSans-2e" x="127.246094"/>
       <use xlink:href="#DejaVuSans-30" x="159.033203"/>
      </g>
     </g>
    </g>
   </g>
   <g id="line2d_16">
    <path d="M 92.290909 364.439952 
L 96.349091 364.435416 
L 100.407273 364.418784 
L 104.465455 364.390056 
L 108.523636 364.352256 
L 112.581818 364.30236 
L 116.64 364.240368 
L 120.698182 364.169304 
L 124.756364 364.086144 
L 128.814545 363.9924 
L 132.872727 363.88656 
L 136.930909 363.770136 
L 140.989091 363.64464 
L 145.047273 363.507048 
L 149.105455 363.35736 
L 153.163636 363.1986 
L 157.221818 363.029256 
L 161.28 362.847816 
L 165.338182 362.657304 
L 169.396364 362.454696 
L 173.454545 362.243016 
L 177.512727 362.020752 
L 181.570909 361.787904 
L 185.629091 361.545984 
L 189.687273 361.291968 
L 193.745455 361.02888 
L 197.803636 360.75672 
L 201.861818 360.473976 
L 205.92 360.18216 
L 209.978182 359.87976 
L 214.036364 359.568288 
L 218.094545 359.247744 
L 222.152727 358.918128 
L 226.210909 358.57944 
L 230.269091 358.233192 
L 234.327273 357.87636 
L 238.385455 357.51348 
L 242.443636 357.140016 
L 246.501818 356.760504 
L 250.56 356.37192 
L 254.618182 355.977288 
L 258.676364 355.573584 
L 262.734545 355.163832 
L 266.792727 354.748032 
L 270.850909 354.324672 
L 274.909091 353.896776 
L 278.967273 353.46132 
L 283.025455 353.021328 
L 287.083636 352.5768 
L 291.141818 352.126224 
L 295.2 351.672624 
L 299.258182 351.216 
L 303.316364 350.75484 
L 307.374545 350.290656 
L 311.432727 349.82496 
L 315.490909 349.357752 
L 319.549091 348.88752 
L 323.607273 348.4188 
L 327.665455 347.948568 
L 331.723636 347.479848 
L 335.781818 347.01264 
L 339.84 346.546944 
L 343.898182 346.084272 
L 347.956364 345.624624 
L 352.014545 345.168 
L 356.072727 344.717424 
L 360.130909 344.272896 
L 364.189091 343.834416 
L 368.247273 343.403496 
L 372.305455 342.980136 
L 376.363636 342.565848 
L 380.421818 342.160632 
L 384.48 341.767512 
L 388.538182 341.383464 
L 392.596364 341.011512 
L 396.654545 340.651656 
L 400.712727 340.305408 
L 404.770909 339.972768 
L 408.829091 339.653736 
L 412.887273 339.348312 
L 416.945455 339.058008 
L 421.003636 338.782824 
L 425.061818 338.52276 
L 429.12 338.277816 
L 433.178182 338.047992 
L 437.236364 337.8348 
L 441.294545 337.635216 
L 445.352727 337.450752 
L 449.410909 337.281408 
L 453.469091 337.127184 
L 457.527273 336.986568 
L 461.585455 336.861072 
L 465.643636 336.749184 
L 469.701818 336.652416 
L 473.76 336.567744 
L 477.818182 336.49668 
L 481.876364 336.439224 
L 485.934545 336.393864 
L 489.992727 336.362112 
L 494.050909 336.343968 
L 498.109091 336.33792 
" clip-path="url(#pe891089113)" style="fill: none; stroke: #000000; stroke-opacity: 0.5; stroke-linecap: square"/>
   </g>
   <g id="line2d_17">
    <path d="M 92.290909 265.051656 
L 96.349091 265.104576 
L 100.407273 265.260312 
L 104.465455 265.51584 
L 108.523636 265.8636 
L 112.581818 266.293008 
L 116.64 266.79348 
L 120.698182 267.357456 
L 124.756364 267.974352 
L 128.814545 268.635096 
L 132.872727 269.33364 
L 136.930909 270.062424 
L 140.989091 270.8154 
L 145.047273 271.588032 
L 149.105455 272.375784 
L 153.163636 273.175632 
L 157.221818 273.984552 
L 161.28 274.79952 
L 165.338182 275.619024 
L 169.396364 276.44004 
L 173.454545 277.262568 
L 177.512727 278.082072 
L 181.570909 278.901576 
L 185.629091 279.716544 
L 189.687273 280.526976 
L 193.745455 281.332872 
L 197.803636 282.13272 
L 201.861818 282.925008 
L 205.92 283.711248 
L 209.978182 284.488416 
L 214.036364 285.256512 
L 218.094545 286.017048 
L 222.152727 286.767 
L 226.210909 287.506368 
L 230.269091 288.236664 
L 234.327273 288.954864 
L 238.385455 289.66248 
L 242.443636 290.359512 
L 246.501818 291.042936 
L 250.56 291.714264 
L 254.618182 292.373496 
L 258.676364 293.020632 
L 262.734545 293.652648 
L 266.792727 294.272568 
L 270.850909 294.87888 
L 274.909091 295.470072 
L 278.967273 296.046144 
L 283.025455 296.608608 
L 287.083636 297.15444 
L 291.141818 297.685152 
L 295.2 298.200744 
L 299.258182 298.698192 
L 303.316364 299.18052 
L 307.374545 299.646216 
L 311.432727 300.093768 
L 315.490909 300.523176 
L 319.549091 300.93444 
L 323.607273 301.32756 
L 327.665455 301.702536 
L 331.723636 302.057856 
L 335.781818 302.392008 
L 339.84 302.708016 
L 343.898182 303.001344 
L 347.956364 303.275016 
L 352.014545 303.52752 
L 356.072727 303.757344 
L 360.130909 303.966 
L 364.189091 304.151976 
L 368.247273 304.315272 
L 372.305455 304.455888 
L 376.363636 304.572312 
L 380.421818 304.667568 
L 384.48 304.738632 
L 388.538182 304.787016 
L 392.596364 304.811208 
L 396.654545 304.814232 
L 400.712727 304.794576 
L 404.770909 304.75224 
L 408.829091 304.690248 
L 412.887273 304.6086 
L 416.945455 304.507296 
L 421.003636 304.387848 
L 425.061818 304.251768 
L 429.12 304.10208 
L 433.178182 303.938784 
L 437.236364 303.766416 
L 441.294545 303.583464 
L 445.352727 303.395976 
L 449.410909 303.205464 
L 453.469091 303.01344 
L 457.527273 302.82444 
L 461.585455 302.641488 
L 465.643636 302.466096 
L 469.701818 302.3028 
L 473.76 302.153112 
L 477.818182 302.021568 
L 481.876364 301.911192 
L 485.934545 301.821984 
L 489.992727 301.756968 
L 494.050909 301.716144 
L 498.109091 301.702536 
" clip-path="url(#pe891089113)" style="fill: none; stroke: #000000; stroke-opacity: 0.5; stroke-linecap: square"/>
   </g>
   <g id="line2d_18">
    <path d="M 92.290909 243.613008 
L 96.349091 243.555552 
L 100.407273 243.384696 
L 104.465455 243.108 
L 108.523636 242.73 
L 112.581818 242.26128 
L 116.64 241.713936 
L 120.698182 241.095528 
L 124.756364 240.41664 
L 128.814545 239.686344 
L 132.872727 238.913712 
L 136.930909 238.104792 
L 140.989091 237.267144 
L 145.047273 236.405304 
L 149.105455 235.52532 
L 153.163636 234.63324 
L 157.221818 233.730576 
L 161.28 232.824888 
L 165.338182 231.916176 
L 169.396364 231.010488 
L 173.454545 230.110848 
L 177.512727 229.221792 
L 181.570909 228.346344 
L 185.629091 227.48904 
L 189.687273 226.652904 
L 193.745455 225.843984 
L 197.803636 225.066816 
L 201.861818 224.324424 
L 205.92 223.624368 
L 209.978182 222.972696 
L 214.036364 222.376968 
L 218.094545 221.846256 
L 222.152727 221.398704 
L 226.210909 221.064552 
L 230.269091 220.905792 
L 234.327273 220.961736 
L 238.385455 221.162832 
L 242.443636 221.434992 
L 246.501818 221.74344 
L 250.56 222.077592 
L 254.618182 222.432912 
L 258.676364 222.806376 
L 262.734545 223.201008 
L 266.792727 223.616808 
L 270.850909 224.059824 
L 274.909091 224.530056 
L 278.967273 225.033552 
L 283.025455 225.57636 
L 287.083636 226.159992 
L 291.141818 226.788984 
L 295.2 227.46636 
L 299.258182 228.189096 
L 303.316364 228.960216 
L 307.374545 229.77216 
L 311.432727 230.624928 
L 315.490909 231.513984 
L 319.549091 232.434792 
L 323.607273 233.382816 
L 327.665455 234.355032 
L 331.723636 235.348416 
L 335.781818 236.358432 
L 339.84 237.383568 
L 343.898182 238.4208 
L 347.956364 239.468616 
L 352.014545 240.52248 
L 356.072727 241.582392 
L 360.130909 242.645328 
L 364.189091 243.711288 
L 368.247273 244.775736 
L 372.305455 245.840184 
L 376.363636 246.900096 
L 380.421818 247.955472 
L 384.48 249.0048 
L 388.538182 250.045056 
L 392.596364 251.07624 
L 396.654545 252.09684 
L 400.712727 253.103832 
L 404.770909 254.097216 
L 408.829091 255.073968 
L 412.887273 256.034088 
L 416.945455 256.97304 
L 421.003636 257.890824 
L 425.061818 258.785928 
L 429.12 259.653816 
L 433.178182 260.494488 
L 437.236364 261.30492 
L 441.294545 262.082088 
L 445.352727 262.82448 
L 449.410909 263.529072 
L 453.469091 264.191328 
L 457.527273 264.809736 
L 461.585455 265.382784 
L 465.643636 265.904424 
L 469.701818 266.373144 
L 473.76 266.787432 
L 477.818182 267.142752 
L 481.876364 267.437592 
L 485.934545 267.668928 
L 489.992727 267.835248 
L 494.050909 267.936552 
L 498.109091 267.969816 
" clip-path="url(#pe891089113)" style="fill: none; stroke: #000000; stroke-opacity: 0.5; stroke-linecap: square"/>
   </g>
   <g id="line2d_19">
    <path d="M 92.290909 215.049816 
L 96.349091 215.05284 
L 100.407273 215.066448 
L 104.465455 215.089128 
L 108.523636 215.12088 
L 112.581818 215.160192 
L 116.64 215.210088 
L 120.698182 215.269056 
L 124.756364 215.335584 
L 128.814545 215.411184 
L 132.872727 215.497368 
L 136.930909 215.591112 
L 140.989091 215.69544 
L 145.047273 215.807328 
L 149.105455 215.9298 
L 153.163636 216.059832 
L 157.221818 216.200448 
L 161.28 216.348624 
L 165.338182 216.507384 
L 169.396364 216.673704 
L 173.454545 216.849096 
L 177.512727 217.035072 
L 181.570909 217.227096 
L 185.629091 217.429704 
L 189.687273 217.639872 
L 193.745455 217.8576 
L 197.803636 218.0844 
L 201.861818 218.317248 
L 205.92 218.556144 
L 209.978182 218.801088 
L 214.036364 219.047544 
L 218.094545 219.290976 
L 222.152727 219.5208 
L 226.210909 219.7098 
L 230.269091 219.80052 
L 234.327273 219.758184 
L 238.385455 219.655368 
L 242.443636 219.569184 
L 246.501818 219.534408 
L 250.56 219.563136 
L 254.618182 219.659904 
L 258.676364 219.821688 
L 262.734545 220.046976 
L 266.792727 220.32972 
L 270.850909 220.66236 
L 274.909091 221.034312 
L 278.967273 221.439528 
L 283.025455 221.865912 
L 287.083636 222.305904 
L 291.141818 222.74892 
L 295.2 223.188912 
L 299.258182 223.619832 
L 303.316364 224.04168 
L 307.374545 224.44992 
L 311.432727 224.846064 
L 315.490909 225.2286 
L 319.549091 225.600552 
L 323.607273 225.960408 
L 327.665455 226.311192 
L 331.723636 226.651392 
L 335.781818 226.98252 
L 339.84 227.306088 
L 343.898182 227.620584 
L 347.956364 227.92752 
L 352.014545 228.226896 
L 356.072727 228.518712 
L 360.130909 228.802968 
L 364.189091 229.079664 
L 368.247273 229.350312 
L 372.305455 229.611888 
L 376.363636 229.867416 
L 380.421818 230.115384 
L 384.48 230.355792 
L 388.538182 230.58864 
L 392.596364 230.812416 
L 396.654545 231.030144 
L 400.712727 231.240312 
L 404.770909 231.44292 
L 408.829091 231.636456 
L 412.887273 231.822432 
L 416.945455 232.000848 
L 421.003636 232.170192 
L 425.061818 232.331976 
L 429.12 232.484688 
L 433.178182 232.62984 
L 437.236364 232.76592 
L 441.294545 232.89444 
L 445.352727 233.013888 
L 449.410909 233.124264 
L 453.469091 233.22708 
L 457.527273 233.319312 
L 461.585455 233.403984 
L 465.643636 233.479584 
L 469.701818 233.547624 
L 473.76 233.60508 
L 477.818182 233.654976 
L 481.876364 233.694288 
L 485.934545 233.72604 
L 489.992727 233.74872 
L 494.050909 233.762328 
L 498.109091 233.766864 
" clip-path="url(#pe891089113)" style="fill: none; stroke: #000000; stroke-opacity: 0.5; stroke-linecap: square"/>
   </g>
   <g id="line2d_20">
    <path d="M 92.290909 159.083136 
L 96.349091 159.114888 
L 100.407273 159.210144 
L 104.465455 159.370416 
L 108.523636 159.594192 
L 112.581818 159.878448 
L 116.64 160.224696 
L 120.698182 160.6284 
L 124.756364 161.08956 
L 128.814545 161.602128 
L 132.872727 162.164592 
L 136.930909 162.770904 
L 140.989091 163.419552 
L 145.047273 164.102976 
L 149.105455 164.81664 
L 153.163636 165.55752 
L 157.221818 166.319568 
L 161.28 167.098248 
L 165.338182 167.889024 
L 169.396364 168.68736 
L 173.454545 169.48872 
L 177.512727 170.288568 
L 181.570909 171.082368 
L 185.629091 171.864072 
L 189.687273 172.630656 
L 193.745455 173.377584 
L 197.803636 174.098808 
L 201.861818 174.78828 
L 205.92 175.444488 
L 209.978182 176.05836 
L 214.036364 176.626872 
L 218.094545 177.142464 
L 222.152727 177.602112 
L 226.210909 178.00128 
L 230.269091 178.332408 
L 234.327273 178.593984 
L 238.385455 178.782984 
L 242.443636 178.896384 
L 246.501818 178.932672 
L 250.56 178.89336 
L 254.618182 178.77996 
L 258.676364 178.593984 
L 262.734545 178.339968 
L 266.792727 178.022448 
L 270.850909 177.648984 
L 274.909091 177.225624 
L 278.967273 176.759928 
L 283.025455 176.259456 
L 287.083636 175.731768 
L 291.141818 175.18896 
L 295.2 174.63708 
L 299.258182 174.089736 
L 303.316364 173.554488 
L 307.374545 173.04192 
L 311.432727 172.562616 
L 315.490909 172.12716 
L 319.549091 171.7416 
L 323.607273 171.413496 
L 327.665455 171.147384 
L 331.723636 170.946288 
L 335.781818 170.807184 
L 339.84 170.730072 
L 343.898182 170.708904 
L 347.956364 170.737632 
L 352.014545 170.81172 
L 356.072727 170.92512 
L 360.130909 171.070272 
L 364.189091 171.24264 
L 368.247273 171.437688 
L 372.305455 171.649368 
L 376.363636 171.876168 
L 380.421818 172.11204 
L 384.48 172.35396 
L 388.538182 172.601928 
L 392.596364 172.851408 
L 396.654545 173.1024 
L 400.712727 173.350368 
L 404.770909 173.596824 
L 408.829091 173.838744 
L 412.887273 174.074616 
L 416.945455 174.30444 
L 421.003636 174.528216 
L 425.061818 174.74292 
L 429.12 174.948552 
L 433.178182 175.146624 
L 437.236364 175.334112 
L 441.294545 175.511016 
L 445.352727 175.677336 
L 449.410909 175.83156 
L 453.469091 175.976712 
L 457.527273 176.108256 
L 461.585455 176.229216 
L 465.643636 176.336568 
L 469.701818 176.433336 
L 473.76 176.516496 
L 477.818182 176.58756 
L 481.876364 176.645016 
L 485.934545 176.690376 
L 489.992727 176.72364 
L 494.050909 176.741784 
L 498.109091 176.749344 
" clip-path="url(#pe891089113)" style="fill: none; stroke: #000000; stroke-opacity: 0.5; stroke-linecap: square"/>
   </g>
   <g id="line2d_21">
    <path d="M 92.290909 150.806448 
L 96.349091 150.81552 
L 100.407273 150.841224 
L 104.465455 150.885072 
L 108.523636 150.941016 
L 112.581818 151.01208 
L 116.64 151.093728 
L 120.698182 151.182936 
L 124.756364 151.281216 
L 128.814545 151.384032 
L 132.872727 151.489872 
L 136.930909 151.600248 
L 140.989091 151.712136 
L 145.047273 151.824024 
L 149.105455 151.937424 
L 153.163636 152.049312 
L 157.221818 152.1612 
L 161.28 152.271576 
L 165.338182 152.377416 
L 169.396364 152.480232 
L 173.454545 152.577 
L 177.512727 152.66772 
L 181.570909 152.752392 
L 185.629091 152.82648 
L 189.687273 152.891496 
L 193.745455 152.944416 
L 197.803636 152.986752 
L 201.861818 153.013968 
L 205.92 153.027576 
L 209.978182 153.026064 
L 214.036364 153.009432 
L 218.094545 152.974656 
L 222.152727 152.926272 
L 226.210909 152.859744 
L 230.269091 152.779608 
L 234.327273 152.687376 
L 238.385455 152.590608 
L 242.443636 152.496864 
L 246.501818 152.434872 
L 250.56 152.437896 
L 254.618182 152.536176 
L 258.676364 152.714592 
L 262.734545 152.941392 
L 266.792727 153.190872 
L 270.850909 153.447912 
L 274.909091 153.704952 
L 278.967273 153.954432 
L 283.025455 154.190304 
L 287.083636 154.40652 
L 291.141818 154.598544 
L 295.2 154.758816 
L 299.258182 154.881288 
L 303.316364 154.956888 
L 307.374545 154.98108 
L 311.432727 154.944792 
L 315.490909 154.840464 
L 319.549091 154.662048 
L 323.607273 154.403496 
L 327.665455 154.063296 
L 331.723636 153.641448 
L 335.781818 153.137952 
L 339.84 152.558856 
L 343.898182 151.905672 
L 347.956364 151.188984 
L 352.014545 150.413328 
L 356.072727 149.584752 
L 360.130909 148.712328 
L 364.189091 147.800592 
L 368.247273 146.85408 
L 372.305455 145.87884 
L 376.363636 144.879408 
L 380.421818 143.858808 
L 384.48 142.821576 
L 388.538182 141.769224 
L 392.596364 140.703264 
L 396.654545 139.628232 
L 400.712727 138.544128 
L 404.770909 137.452464 
L 408.829091 136.356264 
L 412.887273 135.255528 
L 416.945455 134.151768 
L 421.003636 133.046496 
L 425.061818 131.941224 
L 429.12 130.835952 
L 433.178182 129.732192 
L 437.236364 128.631456 
L 441.294545 127.536768 
L 445.352727 126.44964 
L 449.410909 125.373096 
L 453.469091 124.31016 
L 457.527273 123.265368 
L 461.585455 122.244768 
L 465.643636 121.25592 
L 469.701818 120.309408 
L 473.76 119.417328 
L 477.818182 118.596312 
L 481.876364 117.86904 
L 485.934545 117.259704 
L 489.992727 116.794008 
L 494.050909 116.502192 
L 498.109091 116.4024 
" clip-path="url(#pe891089113)" style="fill: none; stroke: #000000; stroke-opacity: 0.5; stroke-linecap: square"/>
   </g>
   <g id="line2d_22">
    <path d="M 92.290909 140.716872 
L 96.349091 140.751648 
L 100.407273 140.852952 
L 104.465455 141.01776 
L 108.523636 141.237 
L 112.581818 141.503112 
L 116.64 141.805512 
L 120.698182 142.13664 
L 124.756364 142.487424 
L 128.814545 142.850304 
L 132.872727 143.219232 
L 136.930909 143.589672 
L 140.989091 143.957088 
L 145.047273 144.319968 
L 149.105455 144.672264 
L 153.163636 145.017 
L 157.221818 145.34964 
L 161.28 145.671696 
L 165.338182 145.983168 
L 169.396364 146.284056 
L 173.454545 146.57436 
L 177.512727 146.855592 
L 181.570909 147.130776 
L 185.629091 147.3984 
L 189.687273 147.661488 
L 193.745455 147.92004 
L 197.803636 148.175568 
L 201.861818 148.431096 
L 205.92 148.685112 
L 209.978182 148.94064 
L 214.036364 149.196168 
L 218.094545 149.453208 
L 222.152727 149.713272 
L 226.210909 149.971824 
L 230.269091 150.231888 
L 234.327273 150.485904 
L 238.385455 150.730848 
L 242.443636 150.9516 
L 246.501818 151.12548 
L 250.56 151.213176 
L 254.618182 151.18596 
L 258.676364 151.054416 
L 262.734545 150.851808 
L 266.792727 150.600816 
L 270.850909 150.310512 
L 274.909091 149.989968 
L 278.967273 149.640696 
L 283.025455 149.264208 
L 287.083636 148.863528 
L 291.141818 148.438656 
L 295.2 147.989592 
L 299.258182 147.517848 
L 303.316364 147.021912 
L 307.374545 146.503296 
L 311.432727 145.962 
L 315.490909 145.398024 
L 319.549091 144.811368 
L 323.607273 144.202032 
L 327.665455 143.571528 
L 331.723636 142.918344 
L 335.781818 142.24248 
L 339.84 141.545448 
L 343.898182 140.825736 
L 347.956364 140.086368 
L 352.014545 139.322808 
L 356.072727 138.539592 
L 360.130909 137.735208 
L 364.189091 136.909656 
L 368.247273 136.062936 
L 372.305455 135.195048 
L 376.363636 134.307504 
L 380.421818 133.400304 
L 384.48 132.473448 
L 388.538182 131.528448 
L 392.596364 130.563792 
L 396.654545 129.582504 
L 400.712727 128.583072 
L 404.770909 127.56852 
L 408.829091 126.538848 
L 412.887273 125.495568 
L 416.945455 124.43868 
L 421.003636 123.37272 
L 425.061818 122.296176 
L 429.12 121.213584 
L 433.178182 120.126456 
L 437.236364 119.037816 
L 441.294545 117.9522 
L 445.352727 116.874144 
L 449.410909 115.806672 
L 453.469091 114.760368 
L 457.527273 113.742792 
L 461.585455 112.764528 
L 465.643636 111.839184 
L 469.701818 110.986416 
L 473.76 110.221344 
L 477.818182 109.566648 
L 481.876364 109.0314 
L 485.934545 108.626184 
L 489.992727 108.344952 
L 494.050909 108.181656 
L 498.109091 108.127224 
" clip-path="url(#pe891089113)" style="fill: none; stroke: #000000; stroke-opacity: 0.5; stroke-linecap: square"/>
   </g>
   <g id="line2d_23">
    <path d="M 92.290909 122.513904 
L 96.349091 122.4504 
L 100.407273 122.265936 
L 104.465455 121.962024 
L 108.523636 121.549248 
L 112.581818 121.035168 
L 116.64 120.428856 
L 120.698182 119.74392 
L 124.756364 118.984896 
L 128.814545 118.16388 
L 132.872727 117.28692 
L 136.930909 116.360064 
L 140.989091 115.38936 
L 145.047273 114.379344 
L 149.105455 113.334552 
L 153.163636 112.256496 
L 157.221818 111.151224 
L 161.28 110.018736 
L 165.338182 108.862056 
L 169.396364 107.684208 
L 173.454545 106.486704 
L 177.512727 105.271056 
L 181.570909 104.038776 
L 185.629091 102.7944 
L 189.687273 101.537928 
L 193.745455 100.272384 
L 197.803636 98.99928 
L 201.861818 97.724664 
L 205.92 96.450048 
L 209.978182 95.182992 
L 214.036364 93.929544 
L 218.094545 92.700288 
L 222.152727 91.505808 
L 226.210909 90.364248 
L 230.269091 89.302824 
L 234.327273 88.356312 
L 238.385455 87.570072 
L 242.443636 86.995512 
L 246.501818 86.664384 
L 250.56 86.573664 
L 254.618182 86.682528 
L 258.676364 86.935032 
L 262.734545 87.284304 
L 266.792727 87.69708 
L 270.850909 88.147656 
L 274.909091 88.622424 
L 278.967273 89.1108 
L 283.025455 89.608248 
L 287.083636 90.10872 
L 291.141818 90.609192 
L 295.2 91.108152 
L 299.258182 91.604088 
L 303.316364 92.095488 
L 307.374545 92.582352 
L 311.432727 93.061656 
L 315.490909 93.534912 
L 319.549091 94.00212 
L 323.607273 94.460256 
L 327.665455 94.910832 
L 331.723636 95.353848 
L 335.781818 95.787792 
L 339.84 96.214176 
L 343.898182 96.629976 
L 347.956364 97.038216 
L 352.014545 97.435872 
L 356.072727 97.824456 
L 360.130909 98.203968 
L 364.189091 98.572896 
L 368.247273 98.93124 
L 372.305455 99.279 
L 376.363636 99.617688 
L 380.421818 99.94428 
L 384.48 100.260288 
L 388.538182 100.565712 
L 392.596364 100.860552 
L 396.654545 101.143296 
L 400.712727 101.413944 
L 404.770909 101.672496 
L 408.829091 101.920464 
L 412.887273 102.154824 
L 416.945455 102.375576 
L 421.003636 102.584232 
L 425.061818 102.777768 
L 429.12 102.957696 
L 433.178182 103.122504 
L 437.236364 103.27068 
L 441.294545 103.402224 
L 445.352727 103.5126 
L 449.410909 103.60332 
L 453.469091 103.668336 
L 457.527273 103.706136 
L 461.585455 103.710672 
L 465.643636 103.677408 
L 469.701818 103.600296 
L 473.76 103.473288 
L 477.818182 103.299408 
L 481.876364 103.087728 
L 485.934545 102.863952 
L 489.992727 102.664368 
L 494.050909 102.525264 
L 498.109091 102.47688 
" clip-path="url(#pe891089113)" style="fill: none; stroke: #000000; stroke-opacity: 0.5; stroke-linecap: square"/>
   </g>
   <g id="patch_3">
    <path d="M 72 384.48 
L 72 51.84 
" style="fill: none; stroke: #000000; stroke-width: 0.8; stroke-linejoin: miter; stroke-linecap: square"/>
   </g>
   <g id="patch_4">
    <path d="M 518.4 384.48 
L 518.4 51.84 
" style="fill: none; stroke: #000000; stroke-width: 0.8; stroke-linejoin: miter; stroke-linecap: square"/>
   </g>
   <g id="patch_5">
    <path d="M 72 384.48 
L 518.4 384.48 
" style="fill: none; stroke: #000000; stroke-width: 0.8; stroke-linejoin: miter; stroke-linecap: square"/>
   </g>
   <g id="patch_6">
    <path d="M 72 51.84 
L 518.4 51.84 
" style="fill: none; stroke: #000000; stroke-width: 0.8; stroke-linejoin: miter; stroke-linecap: square"/>
   </g>
  </g>
 </g>
 <defs>
  <clipPath id="pe891089113">
   <rect x="72" y="51.84" width="446.4" height="332.64"/>
  </clipPath>
 </defs>
</svg>
