<?xml version="1.0" encoding="utf-8" standalone="no"?>
<!DOCTYPE svg PUBLIC "-//W3C//DTD SVG 1.1//EN"
  "http://www.w3.org/Graphics/SVG/1.1/DTD/svg11.dtd">
<svg xmlns:xlink="http://www.w3.org/1999/xlink" width="576pt" height="432pt" viewBox="0 0 576 432" xmlns="http://www.w3.org/2000/svg" version="1.1">
 <metadata>
  <rdf:RDF xmlns:dc="http://purl.org/dc/elements/1.1/" xmlns:cc="http://creativecommons.org/ns#" xmlns:rdf="http://www.w3.org/1999/02/22-rdf-syntax-ns#">
   <cc:Work>
    <dc:type rdf:resource="http://purl.org/dc/dcmitype/StillImage"/>
    <dc:date>2023-05-03T13:15:39.316808</dc:date>
    <dc:format>image/svg+xml</dc:format>
    <dc:creator>
     <cc:Agent>
      <dc:title>Matplotlib v3.7.1, https://matplotlib.org/</dc:title>
     </cc:Agent>
    </dc:creator>
   </cc:Work>
  </rdf:RDF>
 </metadata>
 <defs>
  <style type="text/css">*{stroke-linejoin: round; stroke-linecap: butt}</style>
 </defs>
 <g id="figure_1">
  <g id="patch_1">
   <path d="M 0 432 
L 576 432 
L 576 0 
L 0 0 
z
" style="fill: #ffffff"/>
  </g>
  <g id="axes_1">
   <g id="patch_2">
    <path d="M 72 384.48 
L 518.4 384.48 
L 518.4 51.84 
L 72 51.84 
z
" style="fill: #ffffff"/>
   </g>
   <g id="matplotlib.axis_1">
    <g id="xtick_1">
     <g id="line2d_1">
      <defs>
       <path id="m70fe575267" d="M 0 0 
L 0 3.5 
" style="stroke: #000000; stroke-width: 0.8"/>
      </defs>
      <g>
       <use xlink:href="#m70fe575267" x="92.290909" y="384.48" style="stroke: #000000; stroke-width: 0.8"/>
      </g>
     </g>
     <g id="text_1">
      <!-- 0.0 -->
      <g transform="translate(84.339347 399.078438) scale(0.1 -0.1)">
       <defs>
        <path id="DejaVuSans-30" d="M 2034 4250 
Q 1547 4250 1301 3770 
Q 1056 3291 1056 2328 
Q 1056 1369 1301 889 
Q 1547 409 2034 409 
Q 2525 409 2770 889 
Q 3016 1369 3016 2328 
Q 3016 3291 2770 3770 
Q 2525 4250 2034 4250 
z
M 2034 4750 
Q 2819 4750 3233 4129 
Q 3647 3509 3647 2328 
Q 3647 1150 3233 529 
Q 2819 -91 2034 -91 
Q 1250 -91 836 529 
Q 422 1150 422 2328 
Q 422 3509 836 4129 
Q 1250 4750 2034 4750 
z
" transform="scale(0.015625)"/>
        <path id="DejaVuSans-2e" d="M 684 794 
L 1344 794 
L 1344 0 
L 684 0 
L 684 794 
z
" transform="scale(0.015625)"/>
       </defs>
       <use xlink:href="#DejaVuSans-30"/>
       <use xlink:href="#DejaVuSans-2e" x="63.623047"/>
       <use xlink:href="#DejaVuSans-30" x="95.410156"/>
      </g>
     </g>
    </g>
    <g id="xtick_2">
     <g id="line2d_2">
      <g>
       <use xlink:href="#m70fe575267" x="173.454545" y="384.48" style="stroke: #000000; stroke-width: 0.8"/>
      </g>
     </g>
     <g id="text_2">
      <!-- 0.2 -->
      <g transform="translate(165.502983 399.078438) scale(0.1 -0.1)">
       <defs>
        <path id="DejaVuSans-32" d="M 1228 531 
L 3431 531 
L 3431 0 
L 469 0 
L 469 531 
Q 828 903 1448 1529 
Q 2069 2156 2228 2338 
Q 2531 2678 2651 2914 
Q 2772 3150 2772 3378 
Q 2772 3750 2511 3984 
Q 2250 4219 1831 4219 
Q 1534 4219 1204 4116 
Q 875 4013 500 3803 
L 500 4441 
Q 881 4594 1212 4672 
Q 1544 4750 1819 4750 
Q 2544 4750 2975 4387 
Q 3406 4025 3406 3419 
Q 3406 3131 3298 2873 
Q 3191 2616 2906 2266 
Q 2828 2175 2409 1742 
Q 1991 1309 1228 531 
z
" transform="scale(0.015625)"/>
       </defs>
       <use xlink:href="#DejaVuSans-30"/>
       <use xlink:href="#DejaVuSans-2e" x="63.623047"/>
       <use xlink:href="#DejaVuSans-32" x="95.410156"/>
      </g>
     </g>
    </g>
    <g id="xtick_3">
     <g id="line2d_3">
      <g>
       <use xlink:href="#m70fe575267" x="254.618182" y="384.48" style="stroke: #000000; stroke-width: 0.8"/>
      </g>
     </g>
     <g id="text_3">
      <!-- 0.4 -->
      <g transform="translate(246.666619 399.078438) scale(0.1 -0.1)">
       <defs>
        <path id="DejaVuSans-34" d="M 2419 4116 
L 825 1625 
L 2419 1625 
L 2419 4116 
z
M 2253 4666 
L 3047 4666 
L 3047 1625 
L 3713 1625 
L 3713 1100 
L 3047 1100 
L 3047 0 
L 2419 0 
L 2419 1100 
L 313 1100 
L 313 1709 
L 2253 4666 
z
" transform="scale(0.015625)"/>
       </defs>
       <use xlink:href="#DejaVuSans-30"/>
       <use xlink:href="#DejaVuSans-2e" x="63.623047"/>
       <use xlink:href="#DejaVuSans-34" x="95.410156"/>
      </g>
     </g>
    </g>
    <g id="xtick_4">
     <g id="line2d_4">
      <g>
       <use xlink:href="#m70fe575267" x="335.781818" y="384.48" style="stroke: #000000; stroke-width: 0.8"/>
      </g>
     </g>
     <g id="text_4">
      <!-- 0.6 -->
      <g transform="translate(327.830256 399.078438) scale(0.1 -0.1)">
       <defs>
        <path id="DejaVuSans-36" d="M 2113 2584 
Q 1688 2584 1439 2293 
Q 1191 2003 1191 1497 
Q 1191 994 1439 701 
Q 1688 409 2113 409 
Q 2538 409 2786 701 
Q 3034 994 3034 1497 
Q 3034 2003 2786 2293 
Q 2538 2584 2113 2584 
z
M 3366 4563 
L 3366 3988 
Q 3128 4100 2886 4159 
Q 2644 4219 2406 4219 
Q 1781 4219 1451 3797 
Q 1122 3375 1075 2522 
Q 1259 2794 1537 2939 
Q 1816 3084 2150 3084 
Q 2853 3084 3261 2657 
Q 3669 2231 3669 1497 
Q 3669 778 3244 343 
Q 2819 -91 2113 -91 
Q 1303 -91 875 529 
Q 447 1150 447 2328 
Q 447 3434 972 4092 
Q 1497 4750 2381 4750 
Q 2619 4750 2861 4703 
Q 3103 4656 3366 4563 
z
" transform="scale(0.015625)"/>
       </defs>
       <use xlink:href="#DejaVuSans-30"/>
       <use xlink:href="#DejaVuSans-2e" x="63.623047"/>
       <use xlink:href="#DejaVuSans-36" x="95.410156"/>
      </g>
     </g>
    </g>
    <g id="xtick_5">
     <g id="line2d_5">
      <g>
       <use xlink:href="#m70fe575267" x="416.945455" y="384.48" style="stroke: #000000; stroke-width: 0.8"/>
      </g>
     </g>
     <g id="text_5">
      <!-- 0.8 -->
      <g transform="translate(408.993892 399.078438) scale(0.1 -0.1)">
       <defs>
        <path id="DejaVuSans-38" d="M 2034 2216 
Q 1584 2216 1326 1975 
Q 1069 1734 1069 1313 
Q 1069 891 1326 650 
Q 1584 409 2034 409 
Q 2484 409 2743 651 
Q 3003 894 3003 1313 
Q 3003 1734 2745 1975 
Q 2488 2216 2034 2216 
z
M 1403 2484 
Q 997 2584 770 2862 
Q 544 3141 544 3541 
Q 544 4100 942 4425 
Q 1341 4750 2034 4750 
Q 2731 4750 3128 4425 
Q 3525 4100 3525 3541 
Q 3525 3141 3298 2862 
Q 3072 2584 2669 2484 
Q 3125 2378 3379 2068 
Q 3634 1759 3634 1313 
Q 3634 634 3220 271 
Q 2806 -91 2034 -91 
Q 1263 -91 848 271 
Q 434 634 434 1313 
Q 434 1759 690 2068 
Q 947 2378 1403 2484 
z
M 1172 3481 
Q 1172 3119 1398 2916 
Q 1625 2713 2034 2713 
Q 2441 2713 2670 2916 
Q 2900 3119 2900 3481 
Q 2900 3844 2670 4047 
Q 2441 4250 2034 4250 
Q 1625 4250 1398 4047 
Q 1172 3844 1172 3481 
z
" transform="scale(0.015625)"/>
       </defs>
       <use xlink:href="#DejaVuSans-30"/>
       <use xlink:href="#DejaVuSans-2e" x="63.623047"/>
       <use xlink:href="#DejaVuSans-38" x="95.410156"/>
      </g>
     </g>
    </g>
    <g id="xtick_6">
     <g id="line2d_6">
      <g>
       <use xlink:href="#m70fe575267" x="498.109091" y="384.48" style="stroke: #000000; stroke-width: 0.8"/>
      </g>
     </g>
     <g id="text_6">
      <!-- 1.0 -->
      <g transform="translate(490.157528 399.078438) scale(0.1 -0.1)">
       <defs>
        <path id="DejaVuSans-31" d="M 794 531 
L 1825 531 
L 1825 4091 
L 703 3866 
L 703 4441 
L 1819 4666 
L 2450 4666 
L 2450 531 
L 3481 531 
L 3481 0 
L 794 0 
L 794 531 
z
" transform="scale(0.015625)"/>
       </defs>
       <use xlink:href="#DejaVuSans-31"/>
       <use xlink:href="#DejaVuSans-2e" x="63.623047"/>
       <use xlink:href="#DejaVuSans-30" x="95.410156"/>
      </g>
     </g>
    </g>
   </g>
   <g id="matplotlib.axis_2">
    <g id="ytick_1">
     <g id="line2d_7">
      <defs>
       <path id="me586198311" d="M 0 0 
L -3.5 0 
" style="stroke: #000000; stroke-width: 0.8"/>
      </defs>
      <g>
       <use xlink:href="#me586198311" x="72" y="369.36" style="stroke: #000000; stroke-width: 0.8"/>
      </g>
     </g>
     <g id="text_7">
      <!-- −5.0 -->
      <g transform="translate(40.717187 373.159219) scale(0.1 -0.1)">
       <defs>
        <path id="DejaVuSans-2212" d="M 678 2272 
L 4684 2272 
L 4684 1741 
L 678 1741 
L 678 2272 
z
" transform="scale(0.015625)"/>
        <path id="DejaVuSans-35" d="M 691 4666 
L 3169 4666 
L 3169 4134 
L 1269 4134 
L 1269 2991 
Q 1406 3038 1543 3061 
Q 1681 3084 1819 3084 
Q 2600 3084 3056 2656 
Q 3513 2228 3513 1497 
Q 3513 744 3044 326 
Q 2575 -91 1722 -91 
Q 1428 -91 1123 -41 
Q 819 9 494 109 
L 494 744 
Q 775 591 1075 516 
Q 1375 441 1709 441 
Q 2250 441 2565 725 
Q 2881 1009 2881 1497 
Q 2881 1984 2565 2268 
Q 2250 2553 1709 2553 
Q 1456 2553 1204 2497 
Q 953 2441 691 2322 
L 691 4666 
z
" transform="scale(0.015625)"/>
       </defs>
       <use xlink:href="#DejaVuSans-2212"/>
       <use xlink:href="#DejaVuSans-35" x="83.789062"/>
       <use xlink:href="#DejaVuSans-2e" x="147.412109"/>
       <use xlink:href="#DejaVuSans-30" x="179.199219"/>
      </g>
     </g>
    </g>
    <g id="ytick_2">
     <g id="line2d_8">
      <g>
       <use xlink:href="#me586198311" x="72" y="331.56" style="stroke: #000000; stroke-width: 0.8"/>
      </g>
     </g>
     <g id="text_8">
      <!-- −2.5 -->
      <g transform="translate(40.717187 335.359219) scale(0.1 -0.1)">
       <use xlink:href="#DejaVuSans-2212"/>
       <use xlink:href="#DejaVuSans-32" x="83.789062"/>
       <use xlink:href="#DejaVuSans-2e" x="147.412109"/>
       <use xlink:href="#DejaVuSans-35" x="179.199219"/>
      </g>
     </g>
    </g>
    <g id="ytick_3">
     <g id="line2d_9">
      <g>
       <use xlink:href="#me586198311" x="72" y="293.76" style="stroke: #000000; stroke-width: 0.8"/>
      </g>
     </g>
     <g id="text_9">
      <!-- 0.0 -->
      <g transform="translate(49.096875 297.559219) scale(0.1 -0.1)">
       <use xlink:href="#DejaVuSans-30"/>
       <use xlink:href="#DejaVuSans-2e" x="63.623047"/>
       <use xlink:href="#DejaVuSans-30" x="95.410156"/>
      </g>
     </g>
    </g>
    <g id="ytick_4">
     <g id="line2d_10">
      <g>
       <use xlink:href="#me586198311" x="72" y="255.96" style="stroke: #000000; stroke-width: 0.8"/>
      </g>
     </g>
     <g id="text_10">
      <!-- 2.5 -->
      <g transform="translate(49.096875 259.759219) scale(0.1 -0.1)">
       <use xlink:href="#DejaVuSans-32"/>
       <use xlink:href="#DejaVuSans-2e" x="63.623047"/>
       <use xlink:href="#DejaVuSans-35" x="95.410156"/>
      </g>
     </g>
    </g>
    <g id="ytick_5">
     <g id="line2d_11">
      <g>
       <use xlink:href="#me586198311" x="72" y="218.16" style="stroke: #000000; stroke-width: 0.8"/>
      </g>
     </g>
     <g id="text_11">
      <!-- 5.0 -->
      <g transform="translate(49.096875 221.959219) scale(0.1 -0.1)">
       <use xlink:href="#DejaVuSans-35"/>
       <use xlink:href="#DejaVuSans-2e" x="63.623047"/>
       <use xlink:href="#DejaVuSans-30" x="95.410156"/>
      </g>
     </g>
    </g>
    <g id="ytick_6">
     <g id="line2d_12">
      <g>
       <use xlink:href="#me586198311" x="72" y="180.36" style="stroke: #000000; stroke-width: 0.8"/>
      </g>
     </g>
     <g id="text_12">
      <!-- 7.5 -->
      <g transform="translate(49.096875 184.159219) scale(0.1 -0.1)">
       <defs>
        <path id="DejaVuSans-37" d="M 525 4666 
L 3525 4666 
L 3525 4397 
L 1831 0 
L 1172 0 
L 2766 4134 
L 525 4134 
L 525 4666 
z
" transform="scale(0.015625)"/>
       </defs>
       <use xlink:href="#DejaVuSans-37"/>
       <use xlink:href="#DejaVuSans-2e" x="63.623047"/>
       <use xlink:href="#DejaVuSans-35" x="95.410156"/>
      </g>
     </g>
    </g>
    <g id="ytick_7">
     <g id="line2d_13">
      <g>
       <use xlink:href="#me586198311" x="72" y="142.56" style="stroke: #000000; stroke-width: 0.8"/>
      </g>
     </g>
     <g id="text_13">
      <!-- 10.0 -->
      <g transform="translate(42.734375 146.359219) scale(0.1 -0.1)">
       <use xlink:href="#DejaVuSans-31"/>
       <use xlink:href="#DejaVuSans-30" x="63.623047"/>
       <use xlink:href="#DejaVuSans-2e" x="127.246094"/>
       <use xlink:href="#DejaVuSans-30" x="159.033203"/>
      </g>
     </g>
    </g>
    <g id="ytick_8">
     <g id="line2d_14">
      <g>
       <use xlink:href="#me586198311" x="72" y="104.76" style="stroke: #000000; stroke-width: 0.8"/>
      </g>
     </g>
     <g id="text_14">
      <!-- 12.5 -->
      <g transform="translate(42.734375 108.559219) scale(0.1 -0.1)">
       <use xlink:href="#DejaVuSans-31"/>
       <use xlink:href="#DejaVuSans-32" x="63.623047"/>
       <use xlink:href="#DejaVuSans-2e" x="127.246094"/>
       <use xlink:href="#DejaVuSans-35" x="159.033203"/>
      </g>
     </g>
    </g>
    <g id="ytick_9">
     <g id="line2d_15">
      <g>
       <use xlink:href="#me586198311" x="72" y="66.96" style="stroke: #000000; stroke-width: 0.8"/>
      </g>
     </g>
     <g id="text_15">
      <!-- 15.0 -->
      <g transform="translate(42.734375 70.759219) scale(0.1 -0.1)">
       <use xlink:href="#DejaVuSans-31"/>
       <use xlink:href="#DejaVuSans-35" x="63.623047"/>
       <use xlink:href="#DejaVuSans-2e" x="127.246094"/>
       <use xlink:href="#DejaVuSans-30" x="159.033203"/>
      </g>
     </g>
    </g>
   </g>
   <g id="line2d_16">
    <path d="M 92.290909 356.193504 
L 96.349091 356.188968 
L 100.407273 356.17536 
L 104.465455 356.15268 
L 108.523636 356.120928 
L 112.581818 356.080104 
L 116.64 356.030208 
L 120.698182 355.97124 
L 124.756364 355.904712 
L 128.814545 355.8276 
L 132.872727 355.742928 
L 136.930909 355.649184 
L 140.989091 355.54788 
L 145.047273 355.437504 
L 149.105455 355.318056 
L 153.163636 355.191048 
L 157.221818 355.054968 
L 161.28 354.91284 
L 165.338182 354.76164 
L 169.396364 354.60288 
L 173.454545 354.43656 
L 177.512727 354.264192 
L 181.570909 354.084264 
L 185.629091 353.896776 
L 189.687273 353.70324 
L 193.745455 353.503656 
L 197.803636 353.298024 
L 201.861818 353.086344 
L 205.92 352.868616 
L 209.978182 352.646352 
L 214.036364 352.419552 
L 218.094545 352.188216 
L 222.152727 351.953856 
L 226.210909 351.71496 
L 230.269091 351.47304 
L 234.327273 351.228096 
L 238.385455 350.980128 
L 242.443636 350.73216 
L 246.501818 350.481168 
L 250.56 350.230176 
L 254.618182 349.979184 
L 258.676364 349.728192 
L 262.734545 349.478712 
L 266.792727 349.230744 
L 270.850909 348.984288 
L 274.909091 348.740856 
L 278.967273 348.500448 
L 283.025455 348.264576 
L 287.083636 348.03324 
L 291.141818 347.807952 
L 295.2 347.5872 
L 299.258182 347.374008 
L 303.316364 347.166864 
L 307.374545 346.968792 
L 311.432727 346.77828 
L 315.490909 346.595328 
L 319.549091 346.42296 
L 323.607273 346.259664 
L 327.665455 346.10544 
L 331.723636 345.9618 
L 335.781818 345.828744 
L 339.84 345.70476 
L 343.898182 345.592872 
L 347.956364 345.490056 
L 352.014545 345.397824 
L 356.072727 345.316176 
L 360.130909 345.2436 
L 364.189091 345.180096 
L 368.247273 345.127176 
L 372.305455 345.083328 
L 376.363636 345.04704 
L 380.421818 345.019824 
L 384.48 344.998656 
L 388.538182 344.985048 
L 392.596364 344.977488 
L 396.654545 344.977488 
L 400.712727 344.980512 
L 404.770909 344.989584 
L 408.829091 345.003192 
L 412.887273 345.019824 
L 416.945455 345.03948 
L 421.003636 345.060648 
L 425.061818 345.086352 
L 429.12 345.112056 
L 433.178182 345.13776 
L 437.236364 345.166488 
L 441.294545 345.193704 
L 445.352727 345.22092 
L 449.410909 345.248136 
L 453.469091 345.27384 
L 457.527273 345.299544 
L 461.585455 345.322224 
L 465.643636 345.343392 
L 469.701818 345.363048 
L 473.76 345.381192 
L 477.818182 345.396312 
L 481.876364 345.408408 
L 485.934545 345.418992 
L 489.992727 345.42504 
L 494.050909 345.429576 
L 498.109091 345.431088 
" clip-path="url(#p42357e30e3)" style="fill: none; stroke: #000000; stroke-opacity: 0.5; stroke-linecap: square"/>
   </g>
   <g id="line2d_17">
    <path d="M 92.290909 278.62488 
L 96.349091 278.668728 
L 100.407273 278.79876 
L 104.465455 279.011952 
L 108.523636 279.302256 
L 112.581818 279.665136 
L 116.64 280.09152 
L 120.698182 280.57536 
L 124.756364 281.109096 
L 128.814545 281.683656 
L 132.872727 282.296016 
L 136.930909 282.937104 
L 140.989091 283.602384 
L 145.047273 284.288832 
L 149.105455 284.9904 
L 153.163636 285.704064 
L 157.221818 286.4268 
L 161.28 287.155584 
L 165.338182 287.887392 
L 169.396364 288.620712 
L 173.454545 289.35252 
L 177.512727 290.084328 
L 181.570909 290.810088 
L 185.629091 291.531312 
L 189.687273 292.246488 
L 193.745455 292.952592 
L 197.803636 293.651136 
L 201.861818 294.339096 
L 205.92 295.016472 
L 209.978182 295.681752 
L 214.036364 296.334936 
L 218.094545 296.974512 
L 222.152727 297.598968 
L 226.210909 298.209816 
L 230.269091 298.804032 
L 234.327273 299.383128 
L 238.385455 299.94408 
L 242.443636 300.486888 
L 246.501818 301.011552 
L 250.56 301.51656 
L 254.618182 302.001912 
L 258.676364 302.466096 
L 262.734545 302.909112 
L 266.792727 303.329448 
L 270.850909 303.728616 
L 274.909091 304.10208 
L 278.967273 304.452864 
L 283.025455 304.779456 
L 287.083636 305.078832 
L 291.141818 305.352504 
L 295.2 305.600472 
L 299.258182 305.819712 
L 303.316364 306.011736 
L 307.374545 306.175032 
L 311.432727 306.3096 
L 315.490909 306.41544 
L 319.549091 306.49104 
L 323.607273 306.537912 
L 327.665455 306.554544 
L 331.723636 306.539424 
L 335.781818 306.495576 
L 339.84 306.421488 
L 343.898182 306.318672 
L 347.956364 306.184104 
L 352.014545 306.020808 
L 356.072727 305.830296 
L 360.130909 305.609544 
L 364.189091 305.361576 
L 368.247273 305.086392 
L 372.305455 304.785504 
L 376.363636 304.460424 
L 380.421818 304.10964 
L 384.48 303.736176 
L 388.538182 303.340032 
L 392.596364 302.924232 
L 396.654545 302.488776 
L 400.712727 302.035176 
L 404.770909 301.564944 
L 408.829091 301.079592 
L 412.887273 300.580632 
L 416.945455 300.0726 
L 421.003636 299.553984 
L 425.061818 299.027808 
L 429.12 298.498608 
L 433.178182 297.966384 
L 437.236364 297.435672 
L 441.294545 296.907984 
L 445.352727 296.387856 
L 449.410909 295.878312 
L 453.469091 295.383888 
L 457.527273 294.907608 
L 461.585455 294.45552 
L 465.643636 294.03216 
L 469.701818 293.640552 
L 473.76 293.288256 
L 477.818182 292.978296 
L 481.876364 292.718232 
L 485.934545 292.509576 
L 489.992727 292.358376 
L 494.050909 292.266144 
L 498.109091 292.235904 
" clip-path="url(#p42357e30e3)" style="fill: none; stroke: #000000; stroke-opacity: 0.5; stroke-linecap: square"/>
   </g>
   <g id="line2d_18">
    <path d="M 92.290909 253.79784 
L 96.349091 253.747944 
L 100.407273 253.595232 
L 104.465455 253.345752 
L 108.523636 253.00404 
L 112.581818 252.574632 
L 116.64 252.068112 
L 120.698182 251.490528 
L 124.756364 250.84944 
L 128.814545 250.150896 
L 132.872727 249.403968 
L 136.930909 248.613192 
L 140.989091 247.786128 
L 145.047273 246.9258 
L 149.105455 246.038256 
L 153.163636 245.12652 
L 157.221818 244.195128 
L 161.28 243.247104 
L 165.338182 242.285472 
L 169.396364 241.314768 
L 173.454545 240.336504 
L 177.512727 239.352192 
L 181.570909 238.366368 
L 185.629091 237.382056 
L 189.687273 236.399256 
L 193.745455 235.422504 
L 197.803636 234.453312 
L 201.861818 233.494704 
L 205.92 232.549704 
L 209.978182 231.622848 
L 214.036364 230.715648 
L 218.094545 229.831128 
L 222.152727 228.972312 
L 226.210909 228.145248 
L 230.269091 227.35296 
L 234.327273 226.598472 
L 238.385455 225.889344 
L 242.443636 225.2286 
L 246.501818 224.622288 
L 250.56 224.080992 
L 254.618182 223.627392 
L 258.676364 223.332552 
L 262.734545 223.287192 
L 266.792727 223.385472 
L 270.850909 223.538184 
L 274.909091 223.719624 
L 278.967273 223.925256 
L 283.025455 224.156592 
L 287.083636 224.415144 
L 291.141818 224.705448 
L 295.2 225.03204 
L 299.258182 225.399456 
L 303.316364 225.81072 
L 307.374545 226.273392 
L 311.432727 226.787472 
L 315.490909 227.355984 
L 319.549091 227.977416 
L 323.607273 228.650256 
L 327.665455 229.37148 
L 331.723636 230.138064 
L 335.781818 230.945472 
L 339.84 231.789168 
L 343.898182 232.666128 
L 347.956364 233.571816 
L 352.014545 234.50472 
L 356.072727 235.45728 
L 360.130909 236.431008 
L 364.189091 237.419856 
L 368.247273 238.422312 
L 372.305455 239.435352 
L 376.363636 240.455952 
L 380.421818 241.484112 
L 384.48 242.515296 
L 388.538182 243.549504 
L 392.596364 244.5822 
L 396.654545 245.614896 
L 400.712727 246.641544 
L 404.770909 247.663656 
L 408.829091 248.678208 
L 412.887273 249.682176 
L 416.945455 250.674048 
L 421.003636 251.6508 
L 425.061818 252.612432 
L 429.12 253.554408 
L 433.178182 254.475216 
L 437.236364 255.371832 
L 441.294545 256.241232 
L 445.352727 257.07888 
L 449.410909 257.881752 
L 453.469091 258.646824 
L 457.527273 259.36956 
L 461.585455 260.045424 
L 465.643636 260.66988 
L 469.701818 261.23688 
L 473.76 261.741888 
L 477.818182 262.178856 
L 481.876364 262.546272 
L 485.934545 262.836576 
L 489.992727 263.046744 
L 494.050909 263.173752 
L 498.109091 263.216088 
" clip-path="url(#p42357e30e3)" style="fill: none; stroke: #000000; stroke-opacity: 0.5; stroke-linecap: square"/>
   </g>
   <g id="line2d_19">
    <path d="M 92.290909 221.475816 
L 96.349091 221.475816 
L 100.407273 221.475816 
L 104.465455 221.475816 
L 108.523636 221.475816 
L 112.581818 221.475816 
L 116.64 221.475816 
L 120.698182 221.475816 
L 124.756364 221.475816 
L 128.814545 221.477328 
L 132.872727 221.47884 
L 136.930909 221.481864 
L 140.989091 221.484888 
L 145.047273 221.487912 
L 149.105455 221.49396 
L 153.163636 221.500008 
L 157.221818 221.50908 
L 161.28 221.518152 
L 165.338182 221.530248 
L 169.396364 221.543856 
L 173.454545 221.560488 
L 177.512727 221.580144 
L 181.570909 221.602824 
L 185.629091 221.627016 
L 189.687273 221.655744 
L 193.745455 221.687496 
L 197.803636 221.723784 
L 201.861818 221.764608 
L 205.92 221.809968 
L 209.978182 221.858352 
L 214.036364 221.912784 
L 218.094545 221.973264 
L 222.152727 222.03828 
L 226.210909 222.109344 
L 230.269091 222.186456 
L 234.327273 222.268104 
L 238.385455 222.357312 
L 242.443636 222.451056 
L 246.501818 222.549336 
L 250.56 222.644592 
L 254.618182 222.723216 
L 258.676364 222.715656 
L 262.734545 222.535728 
L 266.792727 222.290784 
L 270.850909 222.077592 
L 274.909091 221.920344 
L 278.967273 221.825088 
L 283.025455 221.790312 
L 287.083636 221.814504 
L 291.141818 221.890104 
L 295.2 222.011064 
L 299.258182 222.169824 
L 303.316364 222.3558 
L 307.374545 222.561432 
L 311.432727 222.780672 
L 315.490909 223.004448 
L 319.549091 223.228224 
L 323.607273 223.452 
L 327.665455 223.67124 
L 331.723636 223.887456 
L 335.781818 224.097624 
L 339.84 224.303256 
L 343.898182 224.50284 
L 347.956364 224.6994 
L 352.014545 224.891424 
L 356.072727 225.078912 
L 360.130909 225.263376 
L 364.189091 225.441792 
L 368.247273 225.618696 
L 372.305455 225.791064 
L 376.363636 225.958896 
L 380.421818 226.123704 
L 384.48 226.283976 
L 388.538182 226.439712 
L 392.596364 226.590912 
L 396.654545 226.739088 
L 400.712727 226.882728 
L 404.770909 227.021832 
L 408.829091 227.154888 
L 412.887273 227.28492 
L 416.945455 227.408904 
L 421.003636 227.52684 
L 425.061818 227.64024 
L 429.12 227.749104 
L 433.178182 227.85192 
L 437.236364 227.948688 
L 441.294545 228.04092 
L 445.352727 228.127104 
L 449.410909 228.205728 
L 453.469091 228.279816 
L 457.527273 228.347856 
L 461.585455 228.408336 
L 465.643636 228.46428 
L 469.701818 228.512664 
L 473.76 228.555 
L 477.818182 228.591288 
L 481.876364 228.620016 
L 485.934545 228.644208 
L 489.992727 228.66084 
L 494.050909 228.669912 
L 498.109091 228.672936 
" clip-path="url(#p42357e30e3)" style="fill: none; stroke: #000000; stroke-opacity: 0.5; stroke-linecap: square"/>
   </g>
   <g id="line2d_20">
    <path d="M 92.290909 161.803224 
L 96.349091 161.80776 
L 100.407273 161.824392 
L 104.465455 161.854632 
L 108.523636 161.895456 
L 112.581818 161.9514 
L 116.64 162.020952 
L 120.698182 162.108648 
L 124.756364 162.216 
L 128.814545 162.34452 
L 132.872727 162.497232 
L 136.930909 162.67716 
L 140.989091 162.88884 
L 145.047273 163.133784 
L 149.105455 163.416528 
L 153.163636 163.738584 
L 157.221818 164.104488 
L 161.28 164.512728 
L 165.338182 164.964816 
L 169.396364 165.45924 
L 173.454545 165.996 
L 177.512727 166.57056 
L 181.570909 167.179896 
L 185.629091 167.819472 
L 189.687273 168.484752 
L 193.745455 169.1712 
L 197.803636 169.872768 
L 201.861818 170.58492 
L 205.92 171.304632 
L 209.978182 172.024344 
L 214.036364 172.741032 
L 218.094545 173.448648 
L 222.152727 174.142656 
L 226.210909 174.820032 
L 230.269091 175.473216 
L 234.327273 176.097672 
L 238.385455 176.688864 
L 242.443636 177.240744 
L 246.501818 177.750288 
L 250.56 178.211448 
L 254.618182 178.618176 
L 258.676364 178.965936 
L 262.734545 179.251704 
L 266.792727 179.472456 
L 270.850909 179.623656 
L 274.909091 179.705304 
L 278.967273 179.714376 
L 283.025455 179.650872 
L 287.083636 179.517816 
L 291.141818 179.31672 
L 295.2 179.050608 
L 299.258182 178.724016 
L 303.316364 178.338456 
L 307.374545 177.903 
L 311.432727 177.422184 
L 315.490909 176.900544 
L 319.549091 176.34564 
L 323.607273 175.765032 
L 327.665455 175.163256 
L 331.723636 174.54636 
L 335.781818 173.923416 
L 339.84 173.301984 
L 343.898182 172.6866 
L 347.956364 172.087848 
L 352.014545 171.508752 
L 356.072727 170.961408 
L 360.130909 170.44884 
L 364.189091 169.978608 
L 368.247273 169.555248 
L 372.305455 169.183296 
L 376.363636 168.862752 
L 380.421818 168.593616 
L 384.48 168.3774 
L 388.538182 168.208056 
L 392.596364 168.081048 
L 396.654545 167.994864 
L 400.712727 167.941944 
L 404.770909 167.919264 
L 408.829091 167.920776 
L 412.887273 167.941944 
L 416.945455 167.979744 
L 421.003636 168.031152 
L 425.061818 168.093144 
L 429.12 168.161184 
L 433.178182 168.235272 
L 437.236364 168.310872 
L 441.294545 168.389496 
L 445.352727 168.466608 
L 449.410909 168.542208 
L 453.469091 168.616296 
L 457.527273 168.685848 
L 461.585455 168.750864 
L 465.643636 168.809832 
L 469.701818 168.864264 
L 473.76 168.912648 
L 477.818182 168.953472 
L 481.876364 168.988248 
L 485.934545 169.013952 
L 489.992727 169.033608 
L 494.050909 169.045704 
L 498.109091 169.05024 
" clip-path="url(#p42357e30e3)" style="fill: none; stroke: #000000; stroke-opacity: 0.5; stroke-linecap: square"/>
   </g>
   <g id="line2d_21">
    <path d="M 92.290909 144.369864 
L 96.349091 144.418248 
L 100.407273 144.558864 
L 104.465455 144.787176 
L 108.523636 145.097136 
L 112.581818 145.475136 
L 116.64 145.912104 
L 120.698182 146.394432 
L 124.756364 146.913048 
L 128.814545 147.455856 
L 132.872727 148.012272 
L 136.930909 148.573224 
L 140.989091 149.128128 
L 145.047273 149.669424 
L 149.105455 150.192576 
L 153.163636 150.687 
L 157.221818 151.151184 
L 161.28 151.580592 
L 165.338182 151.9722 
L 169.396364 152.324496 
L 173.454545 152.63748 
L 177.512727 152.914176 
L 181.570909 153.156096 
L 185.629091 153.364752 
L 189.687273 153.54468 
L 193.745455 153.697392 
L 197.803636 153.827424 
L 201.861818 153.936288 
L 205.92 154.02852 
L 209.978182 154.10412 
L 214.036364 154.166112 
L 218.094545 154.21752 
L 222.152727 154.256832 
L 226.210909 154.287072 
L 230.269091 154.306728 
L 234.327273 154.3158 
L 238.385455 154.3158 
L 242.443636 154.305216 
L 246.501818 154.282536 
L 250.56 154.24776 
L 254.618182 154.197864 
L 258.676364 154.13436 
L 262.734545 154.055736 
L 266.792727 153.96048 
L 270.850909 153.84708 
L 274.909091 153.717048 
L 278.967273 153.57492 
L 283.025455 153.428256 
L 287.083636 153.319392 
L 291.141818 153.331488 
L 295.2 153.46152 
L 299.258182 153.636912 
L 303.316364 153.8244 
L 307.374545 154.011888 
L 311.432727 154.196352 
L 315.490909 154.373256 
L 319.549091 154.541088 
L 323.607273 154.696824 
L 327.665455 154.835928 
L 331.723636 154.955376 
L 335.781818 155.052144 
L 339.84 155.121696 
L 343.898182 155.157984 
L 347.956364 155.157984 
L 352.014545 155.115648 
L 356.072727 155.024928 
L 360.130909 154.879776 
L 364.189091 154.67868 
L 368.247273 154.41408 
L 372.305455 154.085976 
L 376.363636 153.691344 
L 380.421818 153.231696 
L 384.48 152.710056 
L 388.538182 152.129448 
L 392.596364 151.492896 
L 396.654545 150.806448 
L 400.712727 150.07464 
L 404.770909 149.30352 
L 408.829091 148.497624 
L 412.887273 147.659976 
L 416.945455 146.796624 
L 421.003636 145.912104 
L 425.061818 145.007928 
L 429.12 144.088632 
L 433.178182 143.15724 
L 437.236364 142.216776 
L 441.294545 141.270264 
L 445.352727 140.323752 
L 449.410909 139.37724 
L 453.469091 138.438288 
L 457.527273 137.511432 
L 461.585455 136.60272 
L 465.643636 135.721224 
L 469.701818 134.876016 
L 473.76 134.082216 
L 477.818182 133.353432 
L 481.876364 132.70932 
L 485.934545 132.17256 
L 489.992727 131.765832 
L 494.050909 131.511816 
L 498.109091 131.42412 
" clip-path="url(#p42357e30e3)" style="fill: none; stroke: #000000; stroke-opacity: 0.5; stroke-linecap: square"/>
   </g>
   <g id="line2d_22">
    <path d="M 92.290909 128.484792 
L 96.349091 128.58156 
L 100.407273 128.852208 
L 104.465455 129.263472 
L 108.523636 129.77604 
L 112.581818 130.362696 
L 116.64 131.006808 
L 120.698182 131.693256 
L 124.756364 132.412968 
L 128.814545 133.158384 
L 132.872727 133.921944 
L 136.930909 134.699112 
L 140.989091 135.482328 
L 145.047273 136.27008 
L 149.105455 137.05632 
L 153.163636 137.838024 
L 157.221818 138.612168 
L 161.28 139.375728 
L 165.338182 140.12568 
L 169.396364 140.860512 
L 173.454545 141.5772 
L 177.512727 142.274232 
L 181.570909 142.951608 
L 185.629091 143.604792 
L 189.687273 144.235296 
L 193.745455 144.840096 
L 197.803636 145.420704 
L 201.861818 145.975608 
L 205.92 146.504808 
L 209.978182 147.006792 
L 214.036364 147.483072 
L 218.094545 147.93516 
L 222.152727 148.360032 
L 226.210909 148.762224 
L 230.269091 149.140224 
L 234.327273 149.497056 
L 238.385455 149.83272 
L 242.443636 150.15024 
L 246.501818 150.451128 
L 250.56 150.735384 
L 254.618182 151.007544 
L 258.676364 151.266096 
L 262.734545 151.515576 
L 266.792727 151.755984 
L 270.850909 151.985808 
L 274.909091 152.20656 
L 278.967273 152.415216 
L 283.025455 152.59968 
L 287.083636 152.72064 
L 291.141818 152.691912 
L 295.2 152.51652 
L 299.258182 152.265528 
L 303.316364 151.9722 
L 307.374545 151.644096 
L 311.432727 151.285752 
L 315.490909 150.897168 
L 319.549091 150.481368 
L 323.607273 150.035328 
L 327.665455 149.56056 
L 331.723636 149.057064 
L 335.781818 148.526352 
L 339.84 147.966912 
L 343.898182 147.380256 
L 347.956364 146.766384 
L 352.014545 146.123784 
L 356.072727 145.45548 
L 360.130909 144.75996 
L 364.189091 144.038736 
L 368.247273 143.291808 
L 372.305455 142.519176 
L 376.363636 141.723864 
L 380.421818 140.90436 
L 384.48 140.060664 
L 388.538182 139.197312 
L 392.596364 138.31128 
L 396.654545 137.405592 
L 400.712727 136.480248 
L 404.770909 135.538272 
L 408.829091 134.578152 
L 412.887273 133.604424 
L 416.945455 132.615576 
L 421.003636 131.616144 
L 425.061818 130.606128 
L 429.12 129.58704 
L 433.178182 128.561904 
L 437.236364 127.533744 
L 441.294545 126.505584 
L 445.352727 125.480448 
L 449.410909 124.462872 
L 453.469091 123.45588 
L 457.527273 122.467032 
L 461.585455 121.503888 
L 465.643636 120.572496 
L 469.701818 119.68344 
L 473.76 118.847304 
L 477.818182 118.076184 
L 481.876364 117.382176 
L 485.934545 116.77284 
L 489.992727 116.2512 
L 494.050909 115.81272 
L 498.109091 115.54812 
" clip-path="url(#p42357e30e3)" style="fill: none; stroke: #000000; stroke-opacity: 0.5; stroke-linecap: square"/>
   </g>
   <g id="line2d_23">
    <path d="M 92.290909 123.185232 
L 96.349091 123.076368 
L 100.407273 122.766408 
L 104.465455 122.29164 
L 108.523636 121.688352 
L 112.581818 120.985272 
L 116.64 120.200544 
L 120.698182 119.346264 
L 124.756364 118.433016 
L 128.814545 117.466848 
L 132.872727 116.453808 
L 136.930909 115.399944 
L 140.989091 114.309792 
L 145.047273 113.184864 
L 149.105455 112.03272 
L 153.163636 110.85336 
L 157.221818 109.649808 
L 161.28 108.4266 
L 165.338182 107.185248 
L 169.396364 105.928776 
L 173.454545 104.660208 
L 177.512727 103.382568 
L 181.570909 102.097368 
L 185.629091 100.810656 
L 189.687273 99.523944 
L 193.745455 98.244792 
L 197.803636 96.977736 
L 201.861818 95.731848 
L 205.92 94.513176 
L 209.978182 93.33684 
L 214.036364 92.213424 
L 218.094545 91.161072 
L 222.152727 90.197928 
L 226.210909 89.342136 
L 230.269091 88.608816 
L 234.327273 88.010064 
L 238.385455 87.544368 
L 242.443636 87.202656 
L 246.501818 86.968296 
L 250.56 86.82012 
L 254.618182 86.733936 
L 258.676364 86.6916 
L 262.734545 86.67648 
L 266.792727 86.671944 
L 270.850909 86.667408 
L 274.909091 86.655312 
L 278.967273 86.629608 
L 283.025455 86.584248 
L 287.083636 86.516208 
L 291.141818 86.422464 
L 295.2 86.301504 
L 299.258182 86.15484 
L 303.316364 85.98096 
L 307.374545 85.781376 
L 311.432727 85.5576 
L 315.490909 85.311144 
L 319.549091 85.045032 
L 323.607273 84.762288 
L 327.665455 84.465936 
L 331.723636 84.162024 
L 335.781818 83.855088 
L 339.84 83.551176 
L 343.898182 83.257848 
L 347.956364 82.985688 
L 352.014545 82.74528 
L 356.072727 82.553256 
L 360.130909 82.429272 
L 364.189091 82.399032 
L 368.247273 82.4958 
L 372.305455 82.755864 
L 376.363636 83.207952 
L 380.421818 83.861136 
L 384.48 84.700296 
L 388.538182 85.692168 
L 392.596364 86.795928 
L 396.654545 87.981336 
L 400.712727 89.222688 
L 404.770909 90.500328 
L 408.829091 91.803672 
L 412.887273 93.122136 
L 416.945455 94.446648 
L 421.003636 95.774184 
L 425.061818 97.098696 
L 429.12 98.415648 
L 433.178182 99.723528 
L 437.236364 101.0178 
L 441.294545 102.29544 
L 445.352727 103.553424 
L 449.410909 104.787216 
L 453.469091 105.99228 
L 457.527273 107.165592 
L 461.585455 108.299592 
L 465.643636 109.38672 
L 469.701818 110.417904 
L 473.76 111.384072 
L 477.818182 112.271616 
L 481.876364 113.069952 
L 485.934545 113.765472 
L 489.992727 114.355152 
L 494.050909 114.835968 
L 498.109091 115.115688 
" clip-path="url(#p42357e30e3)" style="fill: none; stroke: #000000; stroke-opacity: 0.5; stroke-linecap: square"/>
   </g>
   <g id="patch_3">
    <path d="M 72 384.48 
L 72 51.84 
" style="fill: none; stroke: #000000; stroke-width: 0.8; stroke-linejoin: miter; stroke-linecap: square"/>
   </g>
   <g id="patch_4">
    <path d="M 518.4 384.48 
L 518.4 51.84 
" style="fill: none; stroke: #000000; stroke-width: 0.8; stroke-linejoin: miter; stroke-linecap: square"/>
   </g>
   <g id="patch_5">
    <path d="M 72 384.48 
L 518.4 384.48 
" style="fill: none; stroke: #000000; stroke-width: 0.8; stroke-linejoin: miter; stroke-linecap: square"/>
   </g>
   <g id="patch_6">
    <path d="M 72 51.84 
L 518.4 51.84 
" style="fill: none; stroke: #000000; stroke-width: 0.8; stroke-linejoin: miter; stroke-linecap: square"/>
   </g>
  </g>
 </g>
 <defs>
  <clipPath id="p42357e30e3">
   <rect x="72" y="51.84" width="446.4" height="332.64"/>
  </clipPath>
 </defs>
</svg>
