<?xml version="1.0" encoding="utf-8" standalone="no"?>
<!DOCTYPE svg PUBLIC "-//W3C//DTD SVG 1.1//EN"
  "http://www.w3.org/Graphics/SVG/1.1/DTD/svg11.dtd">
<svg xmlns:xlink="http://www.w3.org/1999/xlink" width="576pt" height="432pt" viewBox="0 0 576 432" xmlns="http://www.w3.org/2000/svg" version="1.1">
 <metadata>
  <rdf:RDF xmlns:dc="http://purl.org/dc/elements/1.1/" xmlns:cc="http://creativecommons.org/ns#" xmlns:rdf="http://www.w3.org/1999/02/22-rdf-syntax-ns#">
   <cc:Work>
    <dc:type rdf:resource="http://purl.org/dc/dcmitype/StillImage"/>
    <dc:date>2023-05-04T01:05:47.604764</dc:date>
    <dc:format>image/svg+xml</dc:format>
    <dc:creator>
     <cc:Agent>
      <dc:title>Matplotlib v3.7.1, https://matplotlib.org/</dc:title>
     </cc:Agent>
    </dc:creator>
   </cc:Work>
  </rdf:RDF>
 </metadata>
 <defs>
  <style type="text/css">*{stroke-linejoin: round; stroke-linecap: butt}</style>
 </defs>
 <g id="figure_1">
  <g id="patch_1">
   <path d="M 0 432 
L 576 432 
L 576 0 
L 0 0 
z
" style="fill: #ffffff"/>
  </g>
  <g id="axes_1">
   <g id="patch_2">
    <path d="M 72 384.48 
L 518.4 384.48 
L 518.4 51.84 
L 72 51.84 
z
" style="fill: #ffffff"/>
   </g>
   <g id="matplotlib.axis_1">
    <g id="xtick_1">
     <g id="line2d_1">
      <defs>
       <path id="m885d9a485c" d="M 0 0 
L 0 3.5 
" style="stroke: #000000; stroke-width: 0.8"/>
      </defs>
      <g>
       <use xlink:href="#m885d9a485c" x="92.290909" y="384.48" style="stroke: #000000; stroke-width: 0.8"/>
      </g>
     </g>
     <g id="text_1">
      <!-- 0.0 -->
      <g transform="translate(84.339347 399.078438) scale(0.1 -0.1)">
       <defs>
        <path id="DejaVuSans-30" d="M 2034 4250 
Q 1547 4250 1301 3770 
Q 1056 3291 1056 2328 
Q 1056 1369 1301 889 
Q 1547 409 2034 409 
Q 2525 409 2770 889 
Q 3016 1369 3016 2328 
Q 3016 3291 2770 3770 
Q 2525 4250 2034 4250 
z
M 2034 4750 
Q 2819 4750 3233 4129 
Q 3647 3509 3647 2328 
Q 3647 1150 3233 529 
Q 2819 -91 2034 -91 
Q 1250 -91 836 529 
Q 422 1150 422 2328 
Q 422 3509 836 4129 
Q 1250 4750 2034 4750 
z
" transform="scale(0.015625)"/>
        <path id="DejaVuSans-2e" d="M 684 794 
L 1344 794 
L 1344 0 
L 684 0 
L 684 794 
z
" transform="scale(0.015625)"/>
       </defs>
       <use xlink:href="#DejaVuSans-30"/>
       <use xlink:href="#DejaVuSans-2e" x="63.623047"/>
       <use xlink:href="#DejaVuSans-30" x="95.410156"/>
      </g>
     </g>
    </g>
    <g id="xtick_2">
     <g id="line2d_2">
      <g>
       <use xlink:href="#m885d9a485c" x="173.454545" y="384.48" style="stroke: #000000; stroke-width: 0.8"/>
      </g>
     </g>
     <g id="text_2">
      <!-- 0.2 -->
      <g transform="translate(165.502983 399.078438) scale(0.1 -0.1)">
       <defs>
        <path id="DejaVuSans-32" d="M 1228 531 
L 3431 531 
L 3431 0 
L 469 0 
L 469 531 
Q 828 903 1448 1529 
Q 2069 2156 2228 2338 
Q 2531 2678 2651 2914 
Q 2772 3150 2772 3378 
Q 2772 3750 2511 3984 
Q 2250 4219 1831 4219 
Q 1534 4219 1204 4116 
Q 875 4013 500 3803 
L 500 4441 
Q 881 4594 1212 4672 
Q 1544 4750 1819 4750 
Q 2544 4750 2975 4387 
Q 3406 4025 3406 3419 
Q 3406 3131 3298 2873 
Q 3191 2616 2906 2266 
Q 2828 2175 2409 1742 
Q 1991 1309 1228 531 
z
" transform="scale(0.015625)"/>
       </defs>
       <use xlink:href="#DejaVuSans-30"/>
       <use xlink:href="#DejaVuSans-2e" x="63.623047"/>
       <use xlink:href="#DejaVuSans-32" x="95.410156"/>
      </g>
     </g>
    </g>
    <g id="xtick_3">
     <g id="line2d_3">
      <g>
       <use xlink:href="#m885d9a485c" x="254.618182" y="384.48" style="stroke: #000000; stroke-width: 0.8"/>
      </g>
     </g>
     <g id="text_3">
      <!-- 0.4 -->
      <g transform="translate(246.666619 399.078438) scale(0.1 -0.1)">
       <defs>
        <path id="DejaVuSans-34" d="M 2419 4116 
L 825 1625 
L 2419 1625 
L 2419 4116 
z
M 2253 4666 
L 3047 4666 
L 3047 1625 
L 3713 1625 
L 3713 1100 
L 3047 1100 
L 3047 0 
L 2419 0 
L 2419 1100 
L 313 1100 
L 313 1709 
L 2253 4666 
z
" transform="scale(0.015625)"/>
       </defs>
       <use xlink:href="#DejaVuSans-30"/>
       <use xlink:href="#DejaVuSans-2e" x="63.623047"/>
       <use xlink:href="#DejaVuSans-34" x="95.410156"/>
      </g>
     </g>
    </g>
    <g id="xtick_4">
     <g id="line2d_4">
      <g>
       <use xlink:href="#m885d9a485c" x="335.781818" y="384.48" style="stroke: #000000; stroke-width: 0.8"/>
      </g>
     </g>
     <g id="text_4">
      <!-- 0.6 -->
      <g transform="translate(327.830256 399.078438) scale(0.1 -0.1)">
       <defs>
        <path id="DejaVuSans-36" d="M 2113 2584 
Q 1688 2584 1439 2293 
Q 1191 2003 1191 1497 
Q 1191 994 1439 701 
Q 1688 409 2113 409 
Q 2538 409 2786 701 
Q 3034 994 3034 1497 
Q 3034 2003 2786 2293 
Q 2538 2584 2113 2584 
z
M 3366 4563 
L 3366 3988 
Q 3128 4100 2886 4159 
Q 2644 4219 2406 4219 
Q 1781 4219 1451 3797 
Q 1122 3375 1075 2522 
Q 1259 2794 1537 2939 
Q 1816 3084 2150 3084 
Q 2853 3084 3261 2657 
Q 3669 2231 3669 1497 
Q 3669 778 3244 343 
Q 2819 -91 2113 -91 
Q 1303 -91 875 529 
Q 447 1150 447 2328 
Q 447 3434 972 4092 
Q 1497 4750 2381 4750 
Q 2619 4750 2861 4703 
Q 3103 4656 3366 4563 
z
" transform="scale(0.015625)"/>
       </defs>
       <use xlink:href="#DejaVuSans-30"/>
       <use xlink:href="#DejaVuSans-2e" x="63.623047"/>
       <use xlink:href="#DejaVuSans-36" x="95.410156"/>
      </g>
     </g>
    </g>
    <g id="xtick_5">
     <g id="line2d_5">
      <g>
       <use xlink:href="#m885d9a485c" x="416.945455" y="384.48" style="stroke: #000000; stroke-width: 0.8"/>
      </g>
     </g>
     <g id="text_5">
      <!-- 0.8 -->
      <g transform="translate(408.993892 399.078438) scale(0.1 -0.1)">
       <defs>
        <path id="DejaVuSans-38" d="M 2034 2216 
Q 1584 2216 1326 1975 
Q 1069 1734 1069 1313 
Q 1069 891 1326 650 
Q 1584 409 2034 409 
Q 2484 409 2743 651 
Q 3003 894 3003 1313 
Q 3003 1734 2745 1975 
Q 2488 2216 2034 2216 
z
M 1403 2484 
Q 997 2584 770 2862 
Q 544 3141 544 3541 
Q 544 4100 942 4425 
Q 1341 4750 2034 4750 
Q 2731 4750 3128 4425 
Q 3525 4100 3525 3541 
Q 3525 3141 3298 2862 
Q 3072 2584 2669 2484 
Q 3125 2378 3379 2068 
Q 3634 1759 3634 1313 
Q 3634 634 3220 271 
Q 2806 -91 2034 -91 
Q 1263 -91 848 271 
Q 434 634 434 1313 
Q 434 1759 690 2068 
Q 947 2378 1403 2484 
z
M 1172 3481 
Q 1172 3119 1398 2916 
Q 1625 2713 2034 2713 
Q 2441 2713 2670 2916 
Q 2900 3119 2900 3481 
Q 2900 3844 2670 4047 
Q 2441 4250 2034 4250 
Q 1625 4250 1398 4047 
Q 1172 3844 1172 3481 
z
" transform="scale(0.015625)"/>
       </defs>
       <use xlink:href="#DejaVuSans-30"/>
       <use xlink:href="#DejaVuSans-2e" x="63.623047"/>
       <use xlink:href="#DejaVuSans-38" x="95.410156"/>
      </g>
     </g>
    </g>
    <g id="xtick_6">
     <g id="line2d_6">
      <g>
       <use xlink:href="#m885d9a485c" x="498.109091" y="384.48" style="stroke: #000000; stroke-width: 0.8"/>
      </g>
     </g>
     <g id="text_6">
      <!-- 1.0 -->
      <g transform="translate(490.157528 399.078438) scale(0.1 -0.1)">
       <defs>
        <path id="DejaVuSans-31" d="M 794 531 
L 1825 531 
L 1825 4091 
L 703 3866 
L 703 4441 
L 1819 4666 
L 2450 4666 
L 2450 531 
L 3481 531 
L 3481 0 
L 794 0 
L 794 531 
z
" transform="scale(0.015625)"/>
       </defs>
       <use xlink:href="#DejaVuSans-31"/>
       <use xlink:href="#DejaVuSans-2e" x="63.623047"/>
       <use xlink:href="#DejaVuSans-30" x="95.410156"/>
      </g>
     </g>
    </g>
   </g>
   <g id="matplotlib.axis_2">
    <g id="ytick_1">
     <g id="line2d_7">
      <defs>
       <path id="mcaf4ed9964" d="M 0 0 
L -3.5 0 
" style="stroke: #000000; stroke-width: 0.8"/>
      </defs>
      <g>
       <use xlink:href="#mcaf4ed9964" x="72" y="369.36" style="stroke: #000000; stroke-width: 0.8"/>
      </g>
     </g>
     <g id="text_7">
      <!-- −5.0 -->
      <g transform="translate(40.717187 373.159219) scale(0.1 -0.1)">
       <defs>
        <path id="DejaVuSans-2212" d="M 678 2272 
L 4684 2272 
L 4684 1741 
L 678 1741 
L 678 2272 
z
" transform="scale(0.015625)"/>
        <path id="DejaVuSans-35" d="M 691 4666 
L 3169 4666 
L 3169 4134 
L 1269 4134 
L 1269 2991 
Q 1406 3038 1543 3061 
Q 1681 3084 1819 3084 
Q 2600 3084 3056 2656 
Q 3513 2228 3513 1497 
Q 3513 744 3044 326 
Q 2575 -91 1722 -91 
Q 1428 -91 1123 -41 
Q 819 9 494 109 
L 494 744 
Q 775 591 1075 516 
Q 1375 441 1709 441 
Q 2250 441 2565 725 
Q 2881 1009 2881 1497 
Q 2881 1984 2565 2268 
Q 2250 2553 1709 2553 
Q 1456 2553 1204 2497 
Q 953 2441 691 2322 
L 691 4666 
z
" transform="scale(0.015625)"/>
       </defs>
       <use xlink:href="#DejaVuSans-2212"/>
       <use xlink:href="#DejaVuSans-35" x="83.789062"/>
       <use xlink:href="#DejaVuSans-2e" x="147.412109"/>
       <use xlink:href="#DejaVuSans-30" x="179.199219"/>
      </g>
     </g>
    </g>
    <g id="ytick_2">
     <g id="line2d_8">
      <g>
       <use xlink:href="#mcaf4ed9964" x="72" y="331.56" style="stroke: #000000; stroke-width: 0.8"/>
      </g>
     </g>
     <g id="text_8">
      <!-- −2.5 -->
      <g transform="translate(40.717187 335.359219) scale(0.1 -0.1)">
       <use xlink:href="#DejaVuSans-2212"/>
       <use xlink:href="#DejaVuSans-32" x="83.789062"/>
       <use xlink:href="#DejaVuSans-2e" x="147.412109"/>
       <use xlink:href="#DejaVuSans-35" x="179.199219"/>
      </g>
     </g>
    </g>
    <g id="ytick_3">
     <g id="line2d_9">
      <g>
       <use xlink:href="#mcaf4ed9964" x="72" y="293.76" style="stroke: #000000; stroke-width: 0.8"/>
      </g>
     </g>
     <g id="text_9">
      <!-- 0.0 -->
      <g transform="translate(49.096875 297.559219) scale(0.1 -0.1)">
       <use xlink:href="#DejaVuSans-30"/>
       <use xlink:href="#DejaVuSans-2e" x="63.623047"/>
       <use xlink:href="#DejaVuSans-30" x="95.410156"/>
      </g>
     </g>
    </g>
    <g id="ytick_4">
     <g id="line2d_10">
      <g>
       <use xlink:href="#mcaf4ed9964" x="72" y="255.96" style="stroke: #000000; stroke-width: 0.8"/>
      </g>
     </g>
     <g id="text_10">
      <!-- 2.5 -->
      <g transform="translate(49.096875 259.759219) scale(0.1 -0.1)">
       <use xlink:href="#DejaVuSans-32"/>
       <use xlink:href="#DejaVuSans-2e" x="63.623047"/>
       <use xlink:href="#DejaVuSans-35" x="95.410156"/>
      </g>
     </g>
    </g>
    <g id="ytick_5">
     <g id="line2d_11">
      <g>
       <use xlink:href="#mcaf4ed9964" x="72" y="218.16" style="stroke: #000000; stroke-width: 0.8"/>
      </g>
     </g>
     <g id="text_11">
      <!-- 5.0 -->
      <g transform="translate(49.096875 221.959219) scale(0.1 -0.1)">
       <use xlink:href="#DejaVuSans-35"/>
       <use xlink:href="#DejaVuSans-2e" x="63.623047"/>
       <use xlink:href="#DejaVuSans-30" x="95.410156"/>
      </g>
     </g>
    </g>
    <g id="ytick_6">
     <g id="line2d_12">
      <g>
       <use xlink:href="#mcaf4ed9964" x="72" y="180.36" style="stroke: #000000; stroke-width: 0.8"/>
      </g>
     </g>
     <g id="text_12">
      <!-- 7.5 -->
      <g transform="translate(49.096875 184.159219) scale(0.1 -0.1)">
       <defs>
        <path id="DejaVuSans-37" d="M 525 4666 
L 3525 4666 
L 3525 4397 
L 1831 0 
L 1172 0 
L 2766 4134 
L 525 4134 
L 525 4666 
z
" transform="scale(0.015625)"/>
       </defs>
       <use xlink:href="#DejaVuSans-37"/>
       <use xlink:href="#DejaVuSans-2e" x="63.623047"/>
       <use xlink:href="#DejaVuSans-35" x="95.410156"/>
      </g>
     </g>
    </g>
    <g id="ytick_7">
     <g id="line2d_13">
      <g>
       <use xlink:href="#mcaf4ed9964" x="72" y="142.56" style="stroke: #000000; stroke-width: 0.8"/>
      </g>
     </g>
     <g id="text_13">
      <!-- 10.0 -->
      <g transform="translate(42.734375 146.359219) scale(0.1 -0.1)">
       <use xlink:href="#DejaVuSans-31"/>
       <use xlink:href="#DejaVuSans-30" x="63.623047"/>
       <use xlink:href="#DejaVuSans-2e" x="127.246094"/>
       <use xlink:href="#DejaVuSans-30" x="159.033203"/>
      </g>
     </g>
    </g>
    <g id="ytick_8">
     <g id="line2d_14">
      <g>
       <use xlink:href="#mcaf4ed9964" x="72" y="104.76" style="stroke: #000000; stroke-width: 0.8"/>
      </g>
     </g>
     <g id="text_14">
      <!-- 12.5 -->
      <g transform="translate(42.734375 108.559219) scale(0.1 -0.1)">
       <use xlink:href="#DejaVuSans-31"/>
       <use xlink:href="#DejaVuSans-32" x="63.623047"/>
       <use xlink:href="#DejaVuSans-2e" x="127.246094"/>
       <use xlink:href="#DejaVuSans-35" x="159.033203"/>
      </g>
     </g>
    </g>
    <g id="ytick_9">
     <g id="line2d_15">
      <g>
       <use xlink:href="#mcaf4ed9964" x="72" y="66.96" style="stroke: #000000; stroke-width: 0.8"/>
      </g>
     </g>
     <g id="text_15">
      <!-- 15.0 -->
      <g transform="translate(42.734375 70.759219) scale(0.1 -0.1)">
       <use xlink:href="#DejaVuSans-31"/>
       <use xlink:href="#DejaVuSans-35" x="63.623047"/>
       <use xlink:href="#DejaVuSans-2e" x="127.246094"/>
       <use xlink:href="#DejaVuSans-30" x="159.033203"/>
      </g>
     </g>
    </g>
   </g>
   <g id="line2d_16">
    <path d="M 92.290909 330.611976 
L 96.349091 330.631632 
L 100.407273 330.692112 
L 104.465455 330.791904 
L 108.523636 330.93252 
L 112.581818 331.109424 
L 116.64 331.324128 
L 120.698182 331.573608 
L 124.756364 331.859376 
L 128.814545 332.175384 
L 132.872727 332.523144 
L 136.930909 332.899632 
L 140.989091 333.304848 
L 145.047273 333.732744 
L 149.105455 334.186344 
L 153.163636 334.6596 
L 157.221818 335.154024 
L 161.28 335.666592 
L 165.338182 336.195792 
L 169.396364 336.7386 
L 173.454545 337.296528 
L 177.512727 337.86504 
L 181.570909 338.444136 
L 185.629091 339.032304 
L 189.687273 339.629544 
L 193.745455 340.232832 
L 197.803636 340.842168 
L 201.861818 341.45604 
L 205.92 342.072936 
L 209.978182 342.692856 
L 214.036364 343.3158 
L 218.094545 343.938744 
L 222.152727 344.5632 
L 226.210909 345.186144 
L 230.269091 345.809088 
L 234.327273 346.429008 
L 238.385455 347.047416 
L 242.443636 347.6628 
L 246.501818 348.27516 
L 250.56 348.884496 
L 254.618182 349.487784 
L 258.676364 350.088048 
L 262.734545 350.682264 
L 266.792727 351.270432 
L 270.850909 351.854064 
L 274.909091 352.430136 
L 278.967273 353.00016 
L 283.025455 353.564136 
L 287.083636 354.120552 
L 291.141818 354.669408 
L 295.2 355.210704 
L 299.258182 355.74444 
L 303.316364 356.269104 
L 307.374545 356.786208 
L 311.432727 357.29424 
L 315.490909 357.7932 
L 319.549091 358.2846 
L 323.607273 358.765416 
L 327.665455 359.238672 
L 331.723636 359.701344 
L 335.781818 360.154944 
L 339.84 360.59796 
L 343.898182 361.031904 
L 347.956364 361.455264 
L 352.014545 361.869552 
L 356.072727 362.273256 
L 360.130909 362.666376 
L 364.189091 363.048912 
L 368.247273 363.420864 
L 372.305455 363.782232 
L 376.363636 364.133016 
L 380.421818 364.473216 
L 384.48 364.802832 
L 388.538182 365.120352 
L 392.596364 365.4288 
L 396.654545 365.72364 
L 400.712727 366.009408 
L 404.770909 366.28308 
L 408.829091 366.546168 
L 412.887273 366.79716 
L 416.945455 367.037568 
L 421.003636 367.26588 
L 425.061818 367.482096 
L 429.12 367.687728 
L 433.178182 367.881264 
L 437.236364 368.064216 
L 441.294545 368.235072 
L 445.352727 368.393832 
L 449.410909 368.542008 
L 453.469091 368.678088 
L 457.527273 368.802072 
L 461.585455 368.91396 
L 465.643636 369.013752 
L 469.701818 369.10296 
L 473.76 369.180072 
L 477.818182 369.245088 
L 481.876364 369.298008 
L 485.934545 369.340344 
L 489.992727 369.369072 
L 494.050909 369.387216 
L 498.109091 369.393264 
" clip-path="url(#p367082d8ea)" style="fill: none; stroke: #000000; stroke-opacity: 0.5; stroke-linecap: square"/>
   </g>
   <g id="line2d_17">
    <path d="M 92.290909 307.244016 
L 96.349091 307.234944 
L 100.407273 307.20924 
L 104.465455 307.166904 
L 108.523636 307.107936 
L 112.581818 307.030824 
L 116.64 306.940104 
L 120.698182 306.832752 
L 124.756364 306.708768 
L 128.814545 306.571176 
L 132.872727 306.418464 
L 136.930909 306.252144 
L 140.989091 306.072216 
L 145.047273 305.87868 
L 149.105455 305.671536 
L 153.163636 305.452296 
L 157.221818 305.22096 
L 161.28 304.977528 
L 165.338182 304.720488 
L 169.396364 304.452864 
L 173.454545 304.173144 
L 177.512727 303.881328 
L 181.570909 303.578928 
L 185.629091 303.264432 
L 189.687273 302.93784 
L 193.745455 302.600664 
L 197.803636 302.251392 
L 201.861818 301.891536 
L 205.92 301.519584 
L 209.978182 301.135536 
L 214.036364 300.742416 
L 218.094545 300.335688 
L 222.152727 299.918376 
L 226.210909 299.49048 
L 230.269091 299.050488 
L 234.327273 298.5984 
L 238.385455 298.135728 
L 242.443636 297.662472 
L 246.501818 297.17712 
L 250.56 296.681184 
L 254.618182 296.173152 
L 258.676364 295.653024 
L 262.734545 295.122312 
L 266.792727 294.581016 
L 270.850909 294.029136 
L 274.909091 293.46516 
L 278.967273 292.889088 
L 283.025455 292.302432 
L 287.083636 291.705192 
L 291.141818 291.097368 
L 295.2 290.47896 
L 299.258182 289.848456 
L 303.316364 289.207368 
L 307.374545 288.557208 
L 311.432727 287.894952 
L 315.490909 287.222112 
L 319.549091 286.538688 
L 323.607273 285.846192 
L 327.665455 285.143112 
L 331.723636 284.429448 
L 335.781818 283.706712 
L 339.84 282.973392 
L 343.898182 282.231 
L 347.956364 281.478024 
L 352.014545 280.717488 
L 356.072727 279.946368 
L 360.130909 279.167688 
L 364.189091 278.379936 
L 368.247273 277.583112 
L 372.305455 276.778728 
L 376.363636 275.966784 
L 380.421818 275.14728 
L 384.48 274.321728 
L 388.538182 273.488616 
L 392.596364 272.649456 
L 396.654545 271.804248 
L 400.712727 270.954504 
L 404.770909 270.101736 
L 408.829091 269.24292 
L 412.887273 268.382592 
L 416.945455 267.520752 
L 421.003636 266.6574 
L 425.061818 265.79556 
L 429.12 264.935232 
L 433.178182 264.07944 
L 437.236364 263.228184 
L 441.294545 262.386 
L 445.352727 261.555912 
L 449.410909 260.73792 
L 453.469091 259.939584 
L 457.527273 259.16544 
L 461.585455 258.420024 
L 465.643636 257.709384 
L 469.701818 257.044104 
L 473.76 256.431744 
L 477.818182 255.882888 
L 481.876364 255.411144 
L 485.934545 255.027096 
L 489.992727 254.741328 
L 494.050909 254.567448 
L 498.109091 254.506968 
" clip-path="url(#p367082d8ea)" style="fill: none; stroke: #000000; stroke-opacity: 0.5; stroke-linecap: square"/>
   </g>
   <g id="line2d_18">
    <path d="M 92.290909 268.70616 
L 96.349091 268.680456 
L 100.407273 268.603344 
L 104.465455 268.473312 
L 108.523636 268.294896 
L 112.581818 268.065072 
L 116.64 267.785352 
L 120.698182 267.45876 
L 124.756364 267.083784 
L 128.814545 266.663448 
L 132.872727 266.199264 
L 136.930909 265.692744 
L 140.989091 265.1454 
L 145.047273 264.557232 
L 149.105455 263.931264 
L 153.163636 263.27052 
L 157.221818 262.573488 
L 161.28 261.844704 
L 165.338182 261.08568 
L 169.396364 260.296416 
L 173.454545 259.479936 
L 177.512727 258.63624 
L 181.570909 257.768352 
L 185.629091 256.877784 
L 189.687273 255.966048 
L 193.745455 255.034656 
L 197.803636 254.08512 
L 201.861818 253.11744 
L 205.92 252.13464 
L 209.978182 251.13672 
L 214.036364 250.126704 
L 218.094545 249.104592 
L 222.152727 248.073408 
L 226.210909 247.03164 
L 230.269091 245.983824 
L 234.327273 244.928448 
L 238.385455 243.868536 
L 242.443636 242.8056 
L 246.501818 241.741152 
L 250.56 240.675192 
L 254.618182 239.612256 
L 258.676364 238.550832 
L 262.734545 237.493944 
L 266.792727 236.444616 
L 270.850909 235.40436 
L 274.909091 234.374688 
L 278.967273 233.360136 
L 283.025455 232.362216 
L 287.083636 231.386976 
L 291.141818 230.435928 
L 295.2 229.51512 
L 299.258182 228.6306 
L 303.316364 227.786904 
L 307.374545 226.988568 
L 311.432727 226.24164 
L 315.490909 225.54612 
L 319.549091 224.898984 
L 323.607273 224.297208 
L 327.665455 223.733232 
L 331.723636 223.199496 
L 335.781818 222.691464 
L 339.84 222.203088 
L 343.898182 221.731344 
L 347.956364 221.27472 
L 352.014545 220.831704 
L 356.072727 220.400784 
L 360.130909 219.983472 
L 364.189091 219.584304 
L 368.247273 219.209328 
L 372.305455 218.8782 
L 376.363636 218.633256 
L 380.421818 218.548584 
L 384.48 218.663496 
L 388.538182 218.932632 
L 392.596364 219.30912 
L 396.654545 219.768768 
L 400.712727 220.296456 
L 404.770909 220.880088 
L 408.829091 221.513616 
L 412.887273 222.18948 
L 416.945455 222.901632 
L 421.003636 223.645536 
L 425.061818 224.413632 
L 429.12 225.202896 
L 433.178182 226.00728 
L 437.236364 226.820736 
L 441.294545 227.638728 
L 445.352727 228.45672 
L 449.410909 229.268664 
L 453.469091 230.068512 
L 457.527273 230.848704 
L 461.585455 231.604704 
L 465.643636 232.325928 
L 469.701818 233.004816 
L 473.76 233.630784 
L 477.818182 234.190224 
L 481.876364 234.674064 
L 485.934545 235.067184 
L 489.992727 235.359 
L 494.050909 235.538928 
L 498.109091 235.599408 
" clip-path="url(#p367082d8ea)" style="fill: none; stroke: #000000; stroke-opacity: 0.5; stroke-linecap: square"/>
   </g>
   <g id="line2d_19">
    <path d="M 92.290909 237.118968 
L 96.349091 237.114432 
L 100.407273 237.099312 
L 104.465455 237.07512 
L 108.523636 237.040344 
L 112.581818 236.994984 
L 116.64 236.940552 
L 120.698182 236.875536 
L 124.756364 236.801448 
L 128.814545 236.718288 
L 132.872727 236.624544 
L 136.930909 236.520216 
L 140.989091 236.406816 
L 145.047273 236.284344 
L 149.105455 236.151288 
L 153.163636 236.00916 
L 157.221818 235.85796 
L 161.28 235.696176 
L 165.338182 235.52532 
L 169.396364 235.345392 
L 173.454545 235.156392 
L 177.512727 234.956808 
L 181.570909 234.749664 
L 185.629091 234.531936 
L 189.687273 234.306648 
L 193.745455 234.070776 
L 197.803636 233.827344 
L 201.861818 233.57484 
L 205.92 233.313264 
L 209.978182 233.042616 
L 214.036364 232.762896 
L 218.094545 232.475616 
L 222.152727 232.180776 
L 226.210909 231.876864 
L 230.269091 231.56388 
L 234.327273 231.243336 
L 238.385455 230.915232 
L 242.443636 230.578056 
L 246.501818 230.23332 
L 250.56 229.879512 
L 254.618182 229.518144 
L 258.676364 229.149216 
L 262.734545 228.771216 
L 266.792727 228.384144 
L 270.850909 227.988 
L 274.909091 227.582784 
L 278.967273 227.166984 
L 283.025455 226.739088 
L 287.083636 226.300608 
L 291.141818 225.845496 
L 295.2 225.375264 
L 299.258182 224.885376 
L 303.316364 224.375832 
L 307.374545 223.840584 
L 311.432727 223.284168 
L 315.490909 222.706584 
L 319.549091 222.11388 
L 323.607273 221.518152 
L 327.665455 220.928472 
L 331.723636 220.356936 
L 335.781818 219.81564 
L 339.84 219.313656 
L 343.898182 218.860056 
L 347.956364 218.463912 
L 352.014545 218.12976 
L 356.072727 217.860624 
L 360.130909 217.662552 
L 364.189091 217.531008 
L 368.247273 217.462968 
L 372.305455 217.440288 
L 376.363636 217.417608 
L 380.421818 217.319328 
L 384.48 217.107648 
L 388.538182 216.818856 
L 392.596364 216.498312 
L 396.654545 216.165672 
L 400.712727 215.833032 
L 404.770909 215.503416 
L 408.829091 215.179848 
L 412.887273 214.86384 
L 416.945455 214.558416 
L 421.003636 214.263576 
L 425.061818 213.97932 
L 429.12 213.70716 
L 433.178182 213.448608 
L 437.236364 213.202152 
L 441.294545 212.969304 
L 445.352727 212.750064 
L 449.410909 212.545944 
L 453.469091 212.355432 
L 457.527273 212.181552 
L 461.585455 212.022792 
L 465.643636 211.880664 
L 469.701818 211.753656 
L 473.76 211.64328 
L 477.818182 211.549536 
L 481.876364 211.472424 
L 485.934545 211.413456 
L 489.992727 211.369608 
L 494.050909 211.343904 
L 498.109091 211.336344 
" clip-path="url(#p367082d8ea)" style="fill: none; stroke: #000000; stroke-opacity: 0.5; stroke-linecap: square"/>
   </g>
   <g id="line2d_20">
    <path d="M 92.290909 181.44864 
L 96.349091 181.44108 
L 100.407273 181.419912 
L 104.465455 181.382112 
L 108.523636 181.332216 
L 112.581818 181.265688 
L 116.64 181.185552 
L 120.698182 181.091808 
L 124.756364 180.982944 
L 128.814545 180.85896 
L 132.872727 180.72288 
L 136.930909 180.57168 
L 140.989091 180.406872 
L 145.047273 180.226944 
L 149.105455 180.03492 
L 153.163636 179.829288 
L 157.221818 179.610048 
L 161.28 179.378712 
L 165.338182 179.13528 
L 169.396364 178.87824 
L 173.454545 178.610616 
L 177.512727 178.329384 
L 181.570909 178.03908 
L 185.629091 177.73668 
L 189.687273 177.425208 
L 193.745455 177.103152 
L 197.803636 176.773536 
L 201.861818 176.434848 
L 205.92 176.0886 
L 209.978182 175.736304 
L 214.036364 175.37796 
L 218.094545 175.01508 
L 222.152727 174.650688 
L 226.210909 174.283272 
L 230.269091 173.917368 
L 234.327273 173.552976 
L 238.385455 173.194632 
L 242.443636 172.842336 
L 246.501818 172.499112 
L 250.56 172.171008 
L 254.618182 171.861048 
L 258.676364 171.573768 
L 262.734545 171.313704 
L 266.792727 171.086904 
L 270.850909 170.900928 
L 274.909091 170.761824 
L 278.967273 170.677152 
L 283.025455 170.65296 
L 287.083636 170.693784 
L 291.141818 170.805672 
L 295.2 170.990136 
L 299.258182 171.24264 
L 303.316364 171.56016 
L 307.374545 171.935136 
L 311.432727 172.356984 
L 315.490909 172.81512 
L 319.549091 173.295936 
L 323.607273 173.788848 
L 327.665455 174.283272 
L 331.723636 174.7656 
L 335.781818 175.225248 
L 339.84 175.653144 
L 343.898182 176.040216 
L 347.956364 176.377392 
L 352.014545 176.657112 
L 356.072727 176.87484 
L 360.130909 177.023016 
L 364.189091 177.098616 
L 368.247273 177.098616 
L 372.305455 177.021504 
L 376.363636 176.868792 
L 380.421818 176.638968 
L 384.48 176.336568 
L 388.538182 175.964616 
L 392.596364 175.527648 
L 396.654545 175.028688 
L 400.712727 174.473784 
L 404.770909 173.867472 
L 408.829091 173.2158 
L 412.887273 172.524816 
L 416.945455 171.799056 
L 421.003636 171.043056 
L 425.061818 170.264376 
L 429.12 169.464528 
L 433.178182 168.651072 
L 437.236364 167.828544 
L 441.294545 167.00148 
L 445.352727 166.175928 
L 449.410909 165.354912 
L 453.469091 164.545992 
L 457.527273 163.755216 
L 461.585455 162.98712 
L 465.643636 162.250776 
L 469.701818 161.553744 
L 473.76 160.903584 
L 477.818182 160.312392 
L 481.876364 159.793776 
L 485.934545 159.361344 
L 489.992727 159.031728 
L 494.050909 158.824584 
L 498.109091 158.75352 
" clip-path="url(#p367082d8ea)" style="fill: none; stroke: #000000; stroke-opacity: 0.5; stroke-linecap: square"/>
   </g>
   <g id="line2d_21">
    <path d="M 92.290909 125.350416 
L 96.349091 125.34588 
L 100.407273 125.327736 
L 104.465455 125.30052 
L 108.523636 125.261208 
L 112.581818 125.211312 
L 116.64 125.150832 
L 120.698182 125.079768 
L 124.756364 125.001144 
L 128.814545 124.913448 
L 132.872727 124.818192 
L 136.930909 124.719912 
L 140.989091 124.618608 
L 145.047273 124.520328 
L 149.105455 124.43112 
L 153.163636 124.361568 
L 157.221818 124.329816 
L 161.28 124.360056 
L 165.338182 124.497648 
L 169.396364 124.792488 
L 173.454545 125.291448 
L 177.512727 125.994528 
L 181.570909 126.860904 
L 185.629091 127.84068 
L 189.687273 128.893032 
L 193.745455 129.993768 
L 197.803636 131.124744 
L 201.861818 132.275376 
L 205.92 133.438104 
L 209.978182 134.608392 
L 214.036364 135.781704 
L 218.094545 136.953504 
L 222.152727 138.120768 
L 226.210909 139.281984 
L 230.269091 140.434128 
L 234.327273 141.574176 
L 238.385455 142.697592 
L 242.443636 143.804376 
L 246.501818 144.886968 
L 250.56 145.943856 
L 254.618182 146.968992 
L 258.676364 147.95784 
L 262.734545 148.904352 
L 266.792727 149.80248 
L 270.850909 150.646176 
L 274.909091 151.424856 
L 278.967273 152.132472 
L 283.025455 152.761464 
L 287.083636 153.304272 
L 291.141818 153.757872 
L 295.2 154.11924 
L 299.258182 154.386864 
L 303.316364 154.56528 
L 307.374545 154.660536 
L 311.432727 154.67868 
L 315.490909 154.630296 
L 319.549091 154.524456 
L 323.607273 154.36872 
L 327.665455 154.173672 
L 331.723636 153.946872 
L 335.781818 153.694368 
L 339.84 153.42372 
L 343.898182 153.140976 
L 347.956364 152.853696 
L 352.014545 152.564904 
L 356.072727 152.285184 
L 360.130909 152.02512 
L 364.189091 151.80588 
L 368.247273 151.659216 
L 372.305455 151.62444 
L 376.363636 151.70004 
L 380.421818 151.839144 
L 384.48 152.006976 
L 388.538182 152.182368 
L 392.596364 152.353224 
L 396.654545 152.518032 
L 400.712727 152.672256 
L 404.770909 152.815896 
L 408.829091 152.948952 
L 412.887273 153.069912 
L 416.945455 153.180288 
L 421.003636 153.28008 
L 425.061818 153.3708 
L 429.12 153.452448 
L 433.178182 153.526536 
L 437.236364 153.594576 
L 441.294545 153.656568 
L 445.352727 153.714024 
L 449.410909 153.769968 
L 453.469091 153.825912 
L 457.527273 153.883368 
L 461.585455 153.942336 
L 465.643636 154.007352 
L 469.701818 154.076904 
L 473.76 154.154016 
L 477.818182 154.237176 
L 481.876364 154.32336 
L 485.934545 154.408032 
L 489.992727 154.480608 
L 494.050909 154.532016 
L 498.109091 154.55016 
" clip-path="url(#p367082d8ea)" style="fill: none; stroke: #000000; stroke-opacity: 0.5; stroke-linecap: square"/>
   </g>
   <g id="line2d_22">
    <path d="M 92.290909 103.798368 
L 96.349091 103.907232 
L 100.407273 104.22324 
L 104.465455 104.725224 
L 108.523636 105.378408 
L 112.581818 106.155576 
L 116.64 107.023464 
L 120.698182 107.962416 
L 124.756364 108.952776 
L 128.814545 109.979424 
L 132.872727 111.033288 
L 136.930909 112.103784 
L 140.989091 113.183352 
L 145.047273 114.26292 
L 149.105455 115.333416 
L 153.163636 116.384256 
L 157.221818 117.394272 
L 161.28 118.33776 
L 165.338182 119.173896 
L 169.396364 119.851272 
L 173.454545 120.332088 
L 177.512727 120.634488 
L 181.570909 120.850704 
L 185.629091 121.190904 
L 189.687273 121.862232 
L 193.745455 122.743728 
L 197.803636 123.693264 
L 201.861818 124.656408 
L 205.92 125.616528 
L 209.978182 126.567576 
L 214.036364 127.503504 
L 218.094545 128.425824 
L 222.152727 129.331512 
L 226.210909 130.22208 
L 230.269091 131.094504 
L 234.327273 131.951808 
L 238.385455 132.790968 
L 242.443636 133.613496 
L 246.501818 134.419392 
L 250.56 135.208656 
L 254.618182 135.981288 
L 258.676364 136.737288 
L 262.734545 137.475144 
L 266.792727 138.19788 
L 270.850909 138.902472 
L 274.909091 139.590432 
L 278.967273 140.26176 
L 283.025455 140.916456 
L 287.083636 141.55452 
L 291.141818 142.17444 
L 295.2 142.777728 
L 299.258182 143.364384 
L 303.316364 143.932896 
L 307.374545 144.484776 
L 311.432727 145.018512 
L 315.490909 145.535616 
L 319.549091 146.033064 
L 323.607273 146.51388 
L 327.665455 146.976552 
L 331.723636 147.42108 
L 335.781818 147.847464 
L 339.84 148.25268 
L 343.898182 148.63824 
L 347.956364 149.002632 
L 352.014545 149.34132 
L 356.072727 149.652792 
L 360.130909 149.926464 
L 364.189091 150.145704 
L 368.247273 150.27876 
L 372.305455 150.289344 
L 376.363636 150.183504 
L 380.421818 150.005088 
L 384.48 149.79492 
L 388.538182 149.572656 
L 392.596364 149.350392 
L 396.654545 149.134176 
L 400.712727 148.928544 
L 404.770909 148.735008 
L 408.829091 148.553568 
L 412.887273 148.387248 
L 416.945455 148.236048 
L 421.003636 148.099968 
L 425.061818 147.98052 
L 429.12 147.877704 
L 433.178182 147.79152 
L 437.236364 147.72348 
L 441.294545 147.672072 
L 445.352727 147.637296 
L 449.410909 147.619152 
L 453.469091 147.61764 
L 457.527273 147.63276 
L 461.585455 147.659976 
L 465.643636 147.699288 
L 469.701818 147.749184 
L 473.76 147.805128 
L 477.818182 147.864096 
L 481.876364 147.921552 
L 485.934545 147.971448 
L 489.992727 148.012272 
L 494.050909 148.037976 
L 498.109091 148.047048 
" clip-path="url(#p367082d8ea)" style="fill: none; stroke: #000000; stroke-opacity: 0.5; stroke-linecap: square"/>
   </g>
   <g id="line2d_23">
    <path d="M 92.290909 94.169952 
L 96.349091 94.699152 
L 100.407273 95.681952 
L 104.465455 96.775128 
L 108.523636 97.916688 
L 112.581818 99.088488 
L 116.64 100.282968 
L 120.698182 101.492568 
L 124.756364 102.71124 
L 128.814545 103.937472 
L 132.872727 105.163704 
L 136.930909 106.389936 
L 140.989091 107.611632 
L 145.047273 108.82728 
L 149.105455 110.032344 
L 153.163636 111.226824 
L 157.221818 112.407696 
L 161.28 113.570424 
L 165.338182 114.715008 
L 169.396364 115.836912 
L 173.454545 116.925552 
L 177.512727 117.962784 
L 181.570909 118.894176 
L 185.629091 119.559456 
L 189.687273 119.790792 
L 193.745455 119.7288 
L 197.803636 119.538288 
L 201.861818 119.279736 
L 205.92 118.975824 
L 209.978182 118.638648 
L 214.036364 118.274256 
L 218.094545 117.88416 
L 222.152727 117.474408 
L 226.210909 117.043488 
L 230.269091 116.592912 
L 234.327273 116.124192 
L 238.385455 115.637328 
L 242.443636 115.13232 
L 246.501818 114.61068 
L 250.56 114.072408 
L 254.618182 113.515992 
L 258.676364 112.942944 
L 262.734545 112.353264 
L 266.792727 111.74544 
L 270.850909 111.120984 
L 274.909091 110.478384 
L 278.967273 109.819152 
L 283.025455 109.143288 
L 287.083636 108.44928 
L 291.141818 107.73864 
L 295.2 107.009856 
L 299.258182 106.262928 
L 303.316364 105.499368 
L 307.374545 104.717664 
L 311.432727 103.919328 
L 315.490909 103.102848 
L 319.549091 102.269736 
L 323.607273 101.41848 
L 327.665455 100.550592 
L 331.723636 99.667584 
L 335.781818 98.767944 
L 339.84 97.853184 
L 343.898182 96.924816 
L 347.956364 95.98284 
L 352.014545 95.031792 
L 356.072727 94.074696 
L 360.130909 93.123648 
L 364.189091 92.214936 
L 368.247273 91.699344 
L 372.305455 92.54304 
L 376.363636 93.787416 
L 380.421818 95.074128 
L 384.48 96.3684 
L 388.538182 97.658136 
L 392.596364 98.940312 
L 396.654545 100.211904 
L 400.712727 101.472912 
L 404.770909 102.720312 
L 408.829091 103.952592 
L 412.887273 105.16824 
L 416.945455 106.365744 
L 421.003636 107.543592 
L 425.061818 108.69876 
L 429.12 109.829736 
L 433.178182 110.931984 
L 437.236364 112.00248 
L 441.294545 113.039712 
L 445.352727 114.03612 
L 449.410909 114.990192 
L 453.469091 115.89588 
L 457.527273 116.748648 
L 461.585455 117.542448 
L 465.643636 118.272744 
L 469.701818 118.935 
L 473.76 119.521656 
L 477.818182 120.028176 
L 481.876364 120.451536 
L 485.934545 120.784176 
L 489.992727 121.026096 
L 494.050909 121.171248 
L 498.109091 121.219632 
" clip-path="url(#p367082d8ea)" style="fill: none; stroke: #000000; stroke-opacity: 0.5; stroke-linecap: square"/>
   </g>
   <g id="patch_3">
    <path d="M 72 384.48 
L 72 51.84 
" style="fill: none; stroke: #000000; stroke-width: 0.8; stroke-linejoin: miter; stroke-linecap: square"/>
   </g>
   <g id="patch_4">
    <path d="M 518.4 384.48 
L 518.4 51.84 
" style="fill: none; stroke: #000000; stroke-width: 0.8; stroke-linejoin: miter; stroke-linecap: square"/>
   </g>
   <g id="patch_5">
    <path d="M 72 384.48 
L 518.4 384.48 
" style="fill: none; stroke: #000000; stroke-width: 0.8; stroke-linejoin: miter; stroke-linecap: square"/>
   </g>
   <g id="patch_6">
    <path d="M 72 51.84 
L 518.4 51.84 
" style="fill: none; stroke: #000000; stroke-width: 0.8; stroke-linejoin: miter; stroke-linecap: square"/>
   </g>
  </g>
 </g>
 <defs>
  <clipPath id="p367082d8ea">
   <rect x="72" y="51.84" width="446.4" height="332.64"/>
  </clipPath>
 </defs>
</svg>
