<?xml version="1.0" encoding="utf-8" standalone="no"?>
<!DOCTYPE svg PUBLIC "-//W3C//DTD SVG 1.1//EN"
  "http://www.w3.org/Graphics/SVG/1.1/DTD/svg11.dtd">
<svg xmlns:xlink="http://www.w3.org/1999/xlink" width="576pt" height="432pt" viewBox="0 0 576 432" xmlns="http://www.w3.org/2000/svg" version="1.1">
 <metadata>
  <rdf:RDF xmlns:dc="http://purl.org/dc/elements/1.1/" xmlns:cc="http://creativecommons.org/ns#" xmlns:rdf="http://www.w3.org/1999/02/22-rdf-syntax-ns#">
   <cc:Work>
    <dc:type rdf:resource="http://purl.org/dc/dcmitype/StillImage"/>
    <dc:date>2023-05-04T00:56:46.428609</dc:date>
    <dc:format>image/svg+xml</dc:format>
    <dc:creator>
     <cc:Agent>
      <dc:title>Matplotlib v3.7.1, https://matplotlib.org/</dc:title>
     </cc:Agent>
    </dc:creator>
   </cc:Work>
  </rdf:RDF>
 </metadata>
 <defs>
  <style type="text/css">*{stroke-linejoin: round; stroke-linecap: butt}</style>
 </defs>
 <g id="figure_1">
  <g id="patch_1">
   <path d="M 0 432 
L 576 432 
L 576 0 
L 0 0 
z
" style="fill: #ffffff"/>
  </g>
  <g id="axes_1">
   <g id="patch_2">
    <path d="M 72 384.48 
L 518.4 384.48 
L 518.4 51.84 
L 72 51.84 
z
" style="fill: #ffffff"/>
   </g>
   <g id="matplotlib.axis_1">
    <g id="xtick_1">
     <g id="line2d_1">
      <defs>
       <path id="m972a254635" d="M 0 0 
L 0 3.5 
" style="stroke: #000000; stroke-width: 0.8"/>
      </defs>
      <g>
       <use xlink:href="#m972a254635" x="92.290909" y="384.48" style="stroke: #000000; stroke-width: 0.8"/>
      </g>
     </g>
     <g id="text_1">
      <!-- 0.0 -->
      <g transform="translate(84.339347 399.078438) scale(0.1 -0.1)">
       <defs>
        <path id="DejaVuSans-30" d="M 2034 4250 
Q 1547 4250 1301 3770 
Q 1056 3291 1056 2328 
Q 1056 1369 1301 889 
Q 1547 409 2034 409 
Q 2525 409 2770 889 
Q 3016 1369 3016 2328 
Q 3016 3291 2770 3770 
Q 2525 4250 2034 4250 
z
M 2034 4750 
Q 2819 4750 3233 4129 
Q 3647 3509 3647 2328 
Q 3647 1150 3233 529 
Q 2819 -91 2034 -91 
Q 1250 -91 836 529 
Q 422 1150 422 2328 
Q 422 3509 836 4129 
Q 1250 4750 2034 4750 
z
" transform="scale(0.015625)"/>
        <path id="DejaVuSans-2e" d="M 684 794 
L 1344 794 
L 1344 0 
L 684 0 
L 684 794 
z
" transform="scale(0.015625)"/>
       </defs>
       <use xlink:href="#DejaVuSans-30"/>
       <use xlink:href="#DejaVuSans-2e" x="63.623047"/>
       <use xlink:href="#DejaVuSans-30" x="95.410156"/>
      </g>
     </g>
    </g>
    <g id="xtick_2">
     <g id="line2d_2">
      <g>
       <use xlink:href="#m972a254635" x="173.454545" y="384.48" style="stroke: #000000; stroke-width: 0.8"/>
      </g>
     </g>
     <g id="text_2">
      <!-- 0.2 -->
      <g transform="translate(165.502983 399.078438) scale(0.1 -0.1)">
       <defs>
        <path id="DejaVuSans-32" d="M 1228 531 
L 3431 531 
L 3431 0 
L 469 0 
L 469 531 
Q 828 903 1448 1529 
Q 2069 2156 2228 2338 
Q 2531 2678 2651 2914 
Q 2772 3150 2772 3378 
Q 2772 3750 2511 3984 
Q 2250 4219 1831 4219 
Q 1534 4219 1204 4116 
Q 875 4013 500 3803 
L 500 4441 
Q 881 4594 1212 4672 
Q 1544 4750 1819 4750 
Q 2544 4750 2975 4387 
Q 3406 4025 3406 3419 
Q 3406 3131 3298 2873 
Q 3191 2616 2906 2266 
Q 2828 2175 2409 1742 
Q 1991 1309 1228 531 
z
" transform="scale(0.015625)"/>
       </defs>
       <use xlink:href="#DejaVuSans-30"/>
       <use xlink:href="#DejaVuSans-2e" x="63.623047"/>
       <use xlink:href="#DejaVuSans-32" x="95.410156"/>
      </g>
     </g>
    </g>
    <g id="xtick_3">
     <g id="line2d_3">
      <g>
       <use xlink:href="#m972a254635" x="254.618182" y="384.48" style="stroke: #000000; stroke-width: 0.8"/>
      </g>
     </g>
     <g id="text_3">
      <!-- 0.4 -->
      <g transform="translate(246.666619 399.078438) scale(0.1 -0.1)">
       <defs>
        <path id="DejaVuSans-34" d="M 2419 4116 
L 825 1625 
L 2419 1625 
L 2419 4116 
z
M 2253 4666 
L 3047 4666 
L 3047 1625 
L 3713 1625 
L 3713 1100 
L 3047 1100 
L 3047 0 
L 2419 0 
L 2419 1100 
L 313 1100 
L 313 1709 
L 2253 4666 
z
" transform="scale(0.015625)"/>
       </defs>
       <use xlink:href="#DejaVuSans-30"/>
       <use xlink:href="#DejaVuSans-2e" x="63.623047"/>
       <use xlink:href="#DejaVuSans-34" x="95.410156"/>
      </g>
     </g>
    </g>
    <g id="xtick_4">
     <g id="line2d_4">
      <g>
       <use xlink:href="#m972a254635" x="335.781818" y="384.48" style="stroke: #000000; stroke-width: 0.8"/>
      </g>
     </g>
     <g id="text_4">
      <!-- 0.6 -->
      <g transform="translate(327.830256 399.078438) scale(0.1 -0.1)">
       <defs>
        <path id="DejaVuSans-36" d="M 2113 2584 
Q 1688 2584 1439 2293 
Q 1191 2003 1191 1497 
Q 1191 994 1439 701 
Q 1688 409 2113 409 
Q 2538 409 2786 701 
Q 3034 994 3034 1497 
Q 3034 2003 2786 2293 
Q 2538 2584 2113 2584 
z
M 3366 4563 
L 3366 3988 
Q 3128 4100 2886 4159 
Q 2644 4219 2406 4219 
Q 1781 4219 1451 3797 
Q 1122 3375 1075 2522 
Q 1259 2794 1537 2939 
Q 1816 3084 2150 3084 
Q 2853 3084 3261 2657 
Q 3669 2231 3669 1497 
Q 3669 778 3244 343 
Q 2819 -91 2113 -91 
Q 1303 -91 875 529 
Q 447 1150 447 2328 
Q 447 3434 972 4092 
Q 1497 4750 2381 4750 
Q 2619 4750 2861 4703 
Q 3103 4656 3366 4563 
z
" transform="scale(0.015625)"/>
       </defs>
       <use xlink:href="#DejaVuSans-30"/>
       <use xlink:href="#DejaVuSans-2e" x="63.623047"/>
       <use xlink:href="#DejaVuSans-36" x="95.410156"/>
      </g>
     </g>
    </g>
    <g id="xtick_5">
     <g id="line2d_5">
      <g>
       <use xlink:href="#m972a254635" x="416.945455" y="384.48" style="stroke: #000000; stroke-width: 0.8"/>
      </g>
     </g>
     <g id="text_5">
      <!-- 0.8 -->
      <g transform="translate(408.993892 399.078438) scale(0.1 -0.1)">
       <defs>
        <path id="DejaVuSans-38" d="M 2034 2216 
Q 1584 2216 1326 1975 
Q 1069 1734 1069 1313 
Q 1069 891 1326 650 
Q 1584 409 2034 409 
Q 2484 409 2743 651 
Q 3003 894 3003 1313 
Q 3003 1734 2745 1975 
Q 2488 2216 2034 2216 
z
M 1403 2484 
Q 997 2584 770 2862 
Q 544 3141 544 3541 
Q 544 4100 942 4425 
Q 1341 4750 2034 4750 
Q 2731 4750 3128 4425 
Q 3525 4100 3525 3541 
Q 3525 3141 3298 2862 
Q 3072 2584 2669 2484 
Q 3125 2378 3379 2068 
Q 3634 1759 3634 1313 
Q 3634 634 3220 271 
Q 2806 -91 2034 -91 
Q 1263 -91 848 271 
Q 434 634 434 1313 
Q 434 1759 690 2068 
Q 947 2378 1403 2484 
z
M 1172 3481 
Q 1172 3119 1398 2916 
Q 1625 2713 2034 2713 
Q 2441 2713 2670 2916 
Q 2900 3119 2900 3481 
Q 2900 3844 2670 4047 
Q 2441 4250 2034 4250 
Q 1625 4250 1398 4047 
Q 1172 3844 1172 3481 
z
" transform="scale(0.015625)"/>
       </defs>
       <use xlink:href="#DejaVuSans-30"/>
       <use xlink:href="#DejaVuSans-2e" x="63.623047"/>
       <use xlink:href="#DejaVuSans-38" x="95.410156"/>
      </g>
     </g>
    </g>
    <g id="xtick_6">
     <g id="line2d_6">
      <g>
       <use xlink:href="#m972a254635" x="498.109091" y="384.48" style="stroke: #000000; stroke-width: 0.8"/>
      </g>
     </g>
     <g id="text_6">
      <!-- 1.0 -->
      <g transform="translate(490.157528 399.078438) scale(0.1 -0.1)">
       <defs>
        <path id="DejaVuSans-31" d="M 794 531 
L 1825 531 
L 1825 4091 
L 703 3866 
L 703 4441 
L 1819 4666 
L 2450 4666 
L 2450 531 
L 3481 531 
L 3481 0 
L 794 0 
L 794 531 
z
" transform="scale(0.015625)"/>
       </defs>
       <use xlink:href="#DejaVuSans-31"/>
       <use xlink:href="#DejaVuSans-2e" x="63.623047"/>
       <use xlink:href="#DejaVuSans-30" x="95.410156"/>
      </g>
     </g>
    </g>
   </g>
   <g id="matplotlib.axis_2">
    <g id="ytick_1">
     <g id="line2d_7">
      <defs>
       <path id="m0179014f41" d="M 0 0 
L -3.5 0 
" style="stroke: #000000; stroke-width: 0.8"/>
      </defs>
      <g>
       <use xlink:href="#m0179014f41" x="72" y="369.36" style="stroke: #000000; stroke-width: 0.8"/>
      </g>
     </g>
     <g id="text_7">
      <!-- −5.0 -->
      <g transform="translate(40.717187 373.159219) scale(0.1 -0.1)">
       <defs>
        <path id="DejaVuSans-2212" d="M 678 2272 
L 4684 2272 
L 4684 1741 
L 678 1741 
L 678 2272 
z
" transform="scale(0.015625)"/>
        <path id="DejaVuSans-35" d="M 691 4666 
L 3169 4666 
L 3169 4134 
L 1269 4134 
L 1269 2991 
Q 1406 3038 1543 3061 
Q 1681 3084 1819 3084 
Q 2600 3084 3056 2656 
Q 3513 2228 3513 1497 
Q 3513 744 3044 326 
Q 2575 -91 1722 -91 
Q 1428 -91 1123 -41 
Q 819 9 494 109 
L 494 744 
Q 775 591 1075 516 
Q 1375 441 1709 441 
Q 2250 441 2565 725 
Q 2881 1009 2881 1497 
Q 2881 1984 2565 2268 
Q 2250 2553 1709 2553 
Q 1456 2553 1204 2497 
Q 953 2441 691 2322 
L 691 4666 
z
" transform="scale(0.015625)"/>
       </defs>
       <use xlink:href="#DejaVuSans-2212"/>
       <use xlink:href="#DejaVuSans-35" x="83.789062"/>
       <use xlink:href="#DejaVuSans-2e" x="147.412109"/>
       <use xlink:href="#DejaVuSans-30" x="179.199219"/>
      </g>
     </g>
    </g>
    <g id="ytick_2">
     <g id="line2d_8">
      <g>
       <use xlink:href="#m0179014f41" x="72" y="331.56" style="stroke: #000000; stroke-width: 0.8"/>
      </g>
     </g>
     <g id="text_8">
      <!-- −2.5 -->
      <g transform="translate(40.717187 335.359219) scale(0.1 -0.1)">
       <use xlink:href="#DejaVuSans-2212"/>
       <use xlink:href="#DejaVuSans-32" x="83.789062"/>
       <use xlink:href="#DejaVuSans-2e" x="147.412109"/>
       <use xlink:href="#DejaVuSans-35" x="179.199219"/>
      </g>
     </g>
    </g>
    <g id="ytick_3">
     <g id="line2d_9">
      <g>
       <use xlink:href="#m0179014f41" x="72" y="293.76" style="stroke: #000000; stroke-width: 0.8"/>
      </g>
     </g>
     <g id="text_9">
      <!-- 0.0 -->
      <g transform="translate(49.096875 297.559219) scale(0.1 -0.1)">
       <use xlink:href="#DejaVuSans-30"/>
       <use xlink:href="#DejaVuSans-2e" x="63.623047"/>
       <use xlink:href="#DejaVuSans-30" x="95.410156"/>
      </g>
     </g>
    </g>
    <g id="ytick_4">
     <g id="line2d_10">
      <g>
       <use xlink:href="#m0179014f41" x="72" y="255.96" style="stroke: #000000; stroke-width: 0.8"/>
      </g>
     </g>
     <g id="text_10">
      <!-- 2.5 -->
      <g transform="translate(49.096875 259.759219) scale(0.1 -0.1)">
       <use xlink:href="#DejaVuSans-32"/>
       <use xlink:href="#DejaVuSans-2e" x="63.623047"/>
       <use xlink:href="#DejaVuSans-35" x="95.410156"/>
      </g>
     </g>
    </g>
    <g id="ytick_5">
     <g id="line2d_11">
      <g>
       <use xlink:href="#m0179014f41" x="72" y="218.16" style="stroke: #000000; stroke-width: 0.8"/>
      </g>
     </g>
     <g id="text_11">
      <!-- 5.0 -->
      <g transform="translate(49.096875 221.959219) scale(0.1 -0.1)">
       <use xlink:href="#DejaVuSans-35"/>
       <use xlink:href="#DejaVuSans-2e" x="63.623047"/>
       <use xlink:href="#DejaVuSans-30" x="95.410156"/>
      </g>
     </g>
    </g>
    <g id="ytick_6">
     <g id="line2d_12">
      <g>
       <use xlink:href="#m0179014f41" x="72" y="180.36" style="stroke: #000000; stroke-width: 0.8"/>
      </g>
     </g>
     <g id="text_12">
      <!-- 7.5 -->
      <g transform="translate(49.096875 184.159219) scale(0.1 -0.1)">
       <defs>
        <path id="DejaVuSans-37" d="M 525 4666 
L 3525 4666 
L 3525 4397 
L 1831 0 
L 1172 0 
L 2766 4134 
L 525 4134 
L 525 4666 
z
" transform="scale(0.015625)"/>
       </defs>
       <use xlink:href="#DejaVuSans-37"/>
       <use xlink:href="#DejaVuSans-2e" x="63.623047"/>
       <use xlink:href="#DejaVuSans-35" x="95.410156"/>
      </g>
     </g>
    </g>
    <g id="ytick_7">
     <g id="line2d_13">
      <g>
       <use xlink:href="#m0179014f41" x="72" y="142.56" style="stroke: #000000; stroke-width: 0.8"/>
      </g>
     </g>
     <g id="text_13">
      <!-- 10.0 -->
      <g transform="translate(42.734375 146.359219) scale(0.1 -0.1)">
       <use xlink:href="#DejaVuSans-31"/>
       <use xlink:href="#DejaVuSans-30" x="63.623047"/>
       <use xlink:href="#DejaVuSans-2e" x="127.246094"/>
       <use xlink:href="#DejaVuSans-30" x="159.033203"/>
      </g>
     </g>
    </g>
    <g id="ytick_8">
     <g id="line2d_14">
      <g>
       <use xlink:href="#m0179014f41" x="72" y="104.76" style="stroke: #000000; stroke-width: 0.8"/>
      </g>
     </g>
     <g id="text_14">
      <!-- 12.5 -->
      <g transform="translate(42.734375 108.559219) scale(0.1 -0.1)">
       <use xlink:href="#DejaVuSans-31"/>
       <use xlink:href="#DejaVuSans-32" x="63.623047"/>
       <use xlink:href="#DejaVuSans-2e" x="127.246094"/>
       <use xlink:href="#DejaVuSans-35" x="159.033203"/>
      </g>
     </g>
    </g>
    <g id="ytick_9">
     <g id="line2d_15">
      <g>
       <use xlink:href="#m0179014f41" x="72" y="66.96" style="stroke: #000000; stroke-width: 0.8"/>
      </g>
     </g>
     <g id="text_15">
      <!-- 15.0 -->
      <g transform="translate(42.734375 70.759219) scale(0.1 -0.1)">
       <use xlink:href="#DejaVuSans-31"/>
       <use xlink:href="#DejaVuSans-35" x="63.623047"/>
       <use xlink:href="#DejaVuSans-2e" x="127.246094"/>
       <use xlink:href="#DejaVuSans-30" x="159.033203"/>
      </g>
     </g>
    </g>
   </g>
   <g id="line2d_16">
    <path d="M 92.290909 341.93232 
L 96.349091 341.93232 
L 100.407273 341.927784 
L 104.465455 341.923248 
L 108.523636 341.915688 
L 112.581818 341.906616 
L 116.64 341.89452 
L 120.698182 341.880912 
L 124.756364 341.867304 
L 128.814545 341.850672 
L 132.872727 341.83404 
L 136.930909 341.815896 
L 140.989091 341.797752 
L 145.047273 341.779608 
L 149.105455 341.761464 
L 153.163636 341.744832 
L 157.221818 341.7282 
L 161.28 341.71308 
L 165.338182 341.699472 
L 169.396364 341.688888 
L 173.454545 341.681328 
L 177.512727 341.676792 
L 181.570909 341.676792 
L 185.629091 341.681328 
L 189.687273 341.6904 
L 193.745455 341.70552 
L 197.803636 341.725176 
L 201.861818 341.753904 
L 205.92 341.78868 
L 209.978182 341.831016 
L 214.036364 341.880912 
L 218.094545 341.93988 
L 222.152727 342.009432 
L 226.210909 342.086544 
L 230.269091 342.17424 
L 234.327273 342.27252 
L 238.385455 342.379872 
L 242.443636 342.497808 
L 246.501818 342.626328 
L 250.56 342.76392 
L 254.618182 342.913608 
L 258.676364 343.072368 
L 262.734545 343.2402 
L 266.792727 343.418616 
L 270.850909 343.607616 
L 274.909091 343.804176 
L 278.967273 344.008296 
L 283.025455 344.221488 
L 287.083636 344.44224 
L 291.141818 344.66904 
L 295.2 344.901888 
L 299.258182 345.140784 
L 303.316364 345.385728 
L 307.374545 345.633696 
L 311.432727 345.8862 
L 315.490909 346.141728 
L 319.549091 346.40028 
L 323.607273 346.660344 
L 327.665455 346.92192 
L 331.723636 347.183496 
L 335.781818 347.445072 
L 339.84 347.70816 
L 343.898182 347.968224 
L 347.956364 348.228288 
L 352.014545 348.485328 
L 356.072727 348.740856 
L 360.130909 348.99336 
L 364.189091 349.24284 
L 368.247273 349.487784 
L 372.305455 349.729704 
L 376.363636 349.965576 
L 380.421818 350.198424 
L 384.48 350.425224 
L 388.538182 350.645976 
L 392.596364 350.862192 
L 396.654545 351.070848 
L 400.712727 351.274968 
L 404.770909 351.471528 
L 408.829091 351.66204 
L 412.887273 351.84348 
L 416.945455 352.020384 
L 421.003636 352.188216 
L 425.061818 352.348488 
L 429.12 352.5012 
L 433.178182 352.646352 
L 437.236364 352.782432 
L 441.294545 352.910952 
L 445.352727 353.031912 
L 449.410909 353.142288 
L 453.469091 353.246616 
L 457.527273 353.34036 
L 461.585455 353.426544 
L 465.643636 353.503656 
L 469.701818 353.571696 
L 473.76 353.630664 
L 477.818182 353.68056 
L 481.876364 353.721384 
L 485.934545 353.753136 
L 489.992727 353.775816 
L 494.050909 353.789424 
L 498.109091 353.79396 
" clip-path="url(#pd1de4cdaae)" style="fill: none; stroke: #000000; stroke-opacity: 0.5; stroke-linecap: square"/>
   </g>
   <g id="line2d_17">
    <path d="M 92.290909 294.763968 
L 96.349091 294.785136 
L 100.407273 294.847128 
L 104.465455 294.948432 
L 108.523636 295.087536 
L 112.581818 295.265952 
L 116.64 295.477632 
L 120.698182 295.721064 
L 124.756364 295.996248 
L 128.814545 296.295624 
L 132.872727 296.620704 
L 136.930909 296.96544 
L 140.989091 297.329832 
L 145.047273 297.70632 
L 149.105455 298.096416 
L 153.163636 298.495584 
L 157.221818 298.899288 
L 161.28 299.307528 
L 165.338182 299.71728 
L 169.396364 300.12552 
L 173.454545 300.530736 
L 177.512727 300.929904 
L 181.570909 301.321512 
L 185.629091 301.704048 
L 189.687273 302.074488 
L 193.745455 302.43132 
L 197.803636 302.774544 
L 201.861818 303.101136 
L 205.92 303.409584 
L 209.978182 303.699888 
L 214.036364 303.969024 
L 218.094545 304.216992 
L 222.152727 304.44228 
L 226.210909 304.644888 
L 230.269091 304.823304 
L 234.327273 304.976016 
L 238.385455 305.103024 
L 242.443636 305.204328 
L 246.501818 305.278416 
L 250.56 305.3268 
L 254.618182 305.346456 
L 258.676364 305.340408 
L 262.734545 305.305632 
L 266.792727 305.245152 
L 270.850909 305.155944 
L 274.909091 305.041032 
L 278.967273 304.898904 
L 283.025455 304.731072 
L 287.083636 304.536024 
L 291.141818 304.316784 
L 295.2 304.073352 
L 299.258182 303.804216 
L 303.316364 303.5124 
L 307.374545 303.197904 
L 311.432727 302.860728 
L 315.490909 302.500872 
L 319.549091 302.119848 
L 323.607273 301.719168 
L 327.665455 301.298832 
L 331.723636 300.860352 
L 335.781818 300.402216 
L 339.84 299.927448 
L 343.898182 299.434536 
L 347.956364 298.926504 
L 352.014545 298.403352 
L 356.072727 297.86508 
L 360.130909 297.314712 
L 364.189091 296.749224 
L 368.247273 296.173152 
L 372.305455 295.584984 
L 376.363636 294.986232 
L 380.421818 294.378408 
L 384.48 293.761512 
L 388.538182 293.137056 
L 392.596364 292.506552 
L 396.654545 291.87 
L 400.712727 291.228912 
L 404.770909 290.5848 
L 408.829091 289.939176 
L 412.887273 289.29204 
L 416.945455 288.647928 
L 421.003636 288.005328 
L 425.061818 287.368776 
L 429.12 286.738272 
L 433.178182 286.11684 
L 437.236364 285.507504 
L 441.294545 284.911776 
L 445.352727 284.33268 
L 449.410909 283.77324 
L 453.469091 283.237992 
L 457.527273 282.728448 
L 461.585455 282.250656 
L 465.643636 281.80764 
L 469.701818 281.402424 
L 473.76 281.041056 
L 477.818182 280.728072 
L 481.876364 280.463472 
L 485.934545 280.254816 
L 489.992727 280.103616 
L 494.050909 280.012896 
L 498.109091 279.981144 
" clip-path="url(#pd1de4cdaae)" style="fill: none; stroke: #000000; stroke-opacity: 0.5; stroke-linecap: square"/>
   </g>
   <g id="line2d_18">
    <path d="M 92.290909 261.286776 
L 96.349091 261.262584 
L 100.407273 261.19152 
L 104.465455 261.073584 
L 108.523636 260.910288 
L 112.581818 260.704656 
L 116.64 260.4582 
L 120.698182 260.172432 
L 124.756364 259.851888 
L 128.814545 259.49808 
L 132.872727 259.117056 
L 136.930909 258.708816 
L 140.989091 258.277896 
L 145.047273 257.828832 
L 149.105455 257.363136 
L 153.163636 256.885344 
L 157.221818 256.395456 
L 161.28 255.898008 
L 165.338182 255.396024 
L 169.396364 254.889504 
L 173.454545 254.381472 
L 177.512727 253.87344 
L 181.570909 253.36692 
L 185.629091 252.863424 
L 189.687273 252.364464 
L 193.745455 251.87004 
L 197.803636 251.380152 
L 201.861818 250.896312 
L 205.92 250.420032 
L 209.978182 249.948288 
L 214.036364 249.485616 
L 218.094545 249.028992 
L 222.152727 248.578416 
L 226.210909 248.1354 
L 230.269091 247.699944 
L 234.327273 247.270536 
L 238.385455 246.848688 
L 242.443636 246.4344 
L 246.501818 246.02616 
L 250.56 245.62548 
L 254.618182 245.23236 
L 258.676364 244.845288 
L 262.734545 244.467288 
L 266.792727 244.096848 
L 270.850909 243.73548 
L 274.909091 243.381672 
L 278.967273 243.036936 
L 283.025455 242.702784 
L 287.083636 242.379216 
L 291.141818 242.066232 
L 295.2 241.765344 
L 299.258182 241.476552 
L 303.316364 241.201368 
L 307.374545 240.941304 
L 311.432727 240.69636 
L 315.490909 240.468048 
L 319.549091 240.256368 
L 323.607273 240.064344 
L 327.665455 239.893488 
L 331.723636 239.7438 
L 335.781818 239.616792 
L 339.84 239.513976 
L 343.898182 239.438376 
L 347.956364 239.38848 
L 352.014545 239.370336 
L 356.072727 239.38092 
L 360.130909 239.424768 
L 364.189091 239.500368 
L 368.247273 239.612256 
L 372.305455 239.75892 
L 376.363636 239.94036 
L 380.421818 240.1596 
L 384.48 240.413616 
L 388.538182 240.702408 
L 392.596364 241.025976 
L 396.654545 241.381296 
L 400.712727 241.768368 
L 404.770909 242.182656 
L 408.829091 242.622648 
L 412.887273 243.086832 
L 416.945455 243.56916 
L 421.003636 244.06812 
L 425.061818 244.580688 
L 429.12 245.100816 
L 433.178182 245.628504 
L 437.236364 246.157704 
L 441.294545 246.68388 
L 445.352727 247.204008 
L 449.410909 247.713552 
L 453.469091 248.207976 
L 457.527273 248.681232 
L 461.585455 249.130296 
L 465.643636 249.550632 
L 469.701818 249.936192 
L 473.76 250.28244 
L 477.818182 250.58484 
L 481.876364 250.840368 
L 485.934545 251.041464 
L 489.992727 251.18964 
L 494.050909 251.278848 
L 498.109091 251.307576 
" clip-path="url(#pd1de4cdaae)" style="fill: none; stroke: #000000; stroke-opacity: 0.5; stroke-linecap: square"/>
   </g>
   <g id="line2d_19">
    <path d="M 92.290909 240.452928 
L 96.349091 240.442344 
L 100.407273 240.410592 
L 104.465455 240.357672 
L 108.523636 240.282072 
L 112.581818 240.186816 
L 116.64 240.06888 
L 120.698182 239.929776 
L 124.756364 239.769504 
L 128.814545 239.588064 
L 132.872727 239.383944 
L 136.930909 239.158656 
L 140.989091 238.913712 
L 145.047273 238.646088 
L 149.105455 238.358808 
L 153.163636 238.05036 
L 157.221818 237.722256 
L 161.28 237.376008 
L 165.338182 237.010104 
L 169.396364 236.627568 
L 173.454545 236.2284 
L 177.512727 235.814112 
L 181.570909 235.387728 
L 185.629091 234.949248 
L 189.687273 234.500184 
L 193.745455 234.04356 
L 197.803636 233.5824 
L 201.861818 233.116704 
L 205.92 232.651008 
L 209.978182 232.186824 
L 214.036364 231.725664 
L 218.094545 231.272064 
L 222.152727 230.829048 
L 226.210909 230.396616 
L 230.269091 229.979304 
L 234.327273 229.578624 
L 238.385455 229.1976 
L 242.443636 228.836232 
L 246.501818 228.499056 
L 250.56 228.186072 
L 254.618182 227.898792 
L 258.676364 227.64024 
L 262.734545 227.407392 
L 266.792727 227.204784 
L 270.850909 227.032416 
L 274.909091 226.887264 
L 278.967273 226.772352 
L 283.025455 226.686168 
L 287.083636 226.628712 
L 291.141818 226.598472 
L 295.2 226.593936 
L 299.258182 226.616616 
L 303.316364 226.661976 
L 307.374545 226.731528 
L 311.432727 226.82376 
L 315.490909 226.935648 
L 319.549091 227.067192 
L 323.607273 227.215368 
L 327.665455 227.380176 
L 331.723636 227.558592 
L 335.781818 227.750616 
L 339.84 227.953224 
L 343.898182 228.164904 
L 347.956364 228.382632 
L 352.014545 228.60792 
L 356.072727 228.83472 
L 360.130909 229.063032 
L 364.189091 229.291344 
L 368.247273 229.518144 
L 372.305455 229.740408 
L 376.363636 229.956624 
L 380.421818 230.166792 
L 384.48 230.3694 
L 388.538182 230.562936 
L 392.596364 230.7474 
L 396.654545 230.922792 
L 400.712727 231.0876 
L 404.770909 231.243336 
L 408.829091 231.39 
L 412.887273 231.529104 
L 416.945455 231.657624 
L 421.003636 231.780096 
L 425.061818 231.895008 
L 429.12 232.000848 
L 433.178182 232.10064 
L 437.236364 232.194384 
L 441.294545 232.280568 
L 445.352727 232.362216 
L 449.410909 232.436304 
L 453.469091 232.504344 
L 457.527273 232.566336 
L 461.585455 232.623792 
L 465.643636 232.673688 
L 469.701818 232.719048 
L 473.76 232.756848 
L 477.818182 232.790112 
L 481.876364 232.817328 
L 485.934545 232.838496 
L 489.992727 232.853616 
L 494.050909 232.862688 
L 498.109091 232.865712 
" clip-path="url(#pd1de4cdaae)" style="fill: none; stroke: #000000; stroke-opacity: 0.5; stroke-linecap: square"/>
   </g>
   <g id="line2d_20">
    <path d="M 92.290909 151.816464 
L 96.349091 151.932888 
L 100.407273 152.262504 
L 104.465455 152.762976 
L 108.523636 153.387432 
L 112.581818 154.099584 
L 116.64 154.86768 
L 120.698182 155.673576 
L 124.756364 156.502152 
L 128.814545 157.342824 
L 132.872727 158.18652 
L 136.930909 159.02568 
L 140.989091 159.858792 
L 145.047273 160.679808 
L 149.105455 161.485704 
L 153.163636 162.274968 
L 157.221818 163.044576 
L 161.28 163.791504 
L 165.338182 164.515752 
L 169.396364 165.212784 
L 173.454545 165.884112 
L 177.512727 166.526712 
L 181.570909 167.139072 
L 185.629091 167.718168 
L 189.687273 168.265512 
L 193.745455 168.776568 
L 197.803636 169.251336 
L 201.861818 169.688304 
L 205.92 170.084448 
L 209.978182 170.44128 
L 214.036364 170.754264 
L 218.094545 171.0234 
L 222.152727 171.248688 
L 226.210909 171.427104 
L 230.269091 171.557136 
L 234.327273 171.640296 
L 238.385455 171.67356 
L 242.443636 171.65844 
L 246.501818 171.594936 
L 250.56 171.483048 
L 254.618182 171.321264 
L 258.676364 171.11412 
L 262.734545 170.861616 
L 266.792727 170.568288 
L 270.850909 170.234136 
L 274.909091 169.86672 
L 278.967273 169.469064 
L 283.025455 169.051752 
L 287.083636 168.620832 
L 291.141818 168.192936 
L 295.2 167.781672 
L 299.258182 167.406696 
L 303.316364 167.095224 
L 307.374545 166.87296 
L 311.432727 166.764096 
L 315.490909 166.78224 
L 319.549091 166.930416 
L 323.607273 167.195016 
L 327.665455 167.548824 
L 331.723636 167.96916 
L 335.781818 168.428808 
L 339.84 168.908112 
L 343.898182 169.393464 
L 347.956364 169.868232 
L 352.014545 170.32788 
L 356.072727 170.760312 
L 360.130909 171.164016 
L 364.189091 171.531432 
L 368.247273 171.861048 
L 372.305455 172.14984 
L 376.363636 172.394784 
L 380.421818 172.597392 
L 384.48 172.753128 
L 388.538182 172.863504 
L 392.596364 172.92852 
L 396.654545 172.946664 
L 400.712727 172.919448 
L 404.770909 172.848384 
L 408.829091 172.733472 
L 412.887273 172.576224 
L 416.945455 172.378152 
L 421.003636 172.140768 
L 425.061818 171.865584 
L 429.12 171.557136 
L 433.178182 171.215424 
L 437.236364 170.843472 
L 441.294545 170.445816 
L 445.352727 170.02548 
L 449.410909 169.585488 
L 453.469091 169.131888 
L 457.527273 168.670728 
L 461.585455 168.205032 
L 465.643636 167.745384 
L 469.701818 167.299344 
L 473.76 166.875984 
L 477.818182 166.4874 
L 481.876364 166.144176 
L 485.934545 165.85992 
L 489.992727 165.646728 
L 494.050909 165.513672 
L 498.109091 165.469824 
" clip-path="url(#pd1de4cdaae)" style="fill: none; stroke: #000000; stroke-opacity: 0.5; stroke-linecap: square"/>
   </g>
   <g id="line2d_21">
    <path d="M 92.290909 148.84992 
L 96.349091 148.831776 
L 100.407273 148.783392 
L 104.465455 148.7214 
L 108.523636 148.654872 
L 112.581818 148.586832 
L 116.64 148.51728 
L 120.698182 148.446216 
L 124.756364 148.370616 
L 128.814545 148.29048 
L 132.872727 148.20732 
L 136.930909 148.1166 
L 140.989091 148.021344 
L 145.047273 147.92004 
L 149.105455 147.812688 
L 153.163636 147.699288 
L 157.221818 147.57984 
L 161.28 147.454344 
L 165.338182 147.324312 
L 169.396364 147.189744 
L 173.454545 147.049128 
L 177.512727 146.905488 
L 181.570909 146.757312 
L 185.629091 146.606112 
L 189.687273 146.451888 
L 193.745455 146.297664 
L 197.803636 146.140416 
L 201.861818 145.98468 
L 205.92 145.831968 
L 209.978182 145.680768 
L 214.036364 145.537128 
L 218.094545 145.401048 
L 222.152727 145.277064 
L 226.210909 145.172736 
L 230.269091 145.0926 
L 234.327273 145.04724 
L 238.385455 145.053288 
L 242.443636 145.127376 
L 246.501818 145.298232 
L 250.56 145.593072 
L 254.618182 146.033064 
L 258.676364 146.624256 
L 262.734545 147.348504 
L 266.792727 148.172544 
L 270.850909 149.063112 
L 274.909091 149.985432 
L 278.967273 150.916824 
L 283.025455 151.833096 
L 287.083636 152.717616 
L 291.141818 153.549216 
L 295.2 154.30824 
L 299.258182 154.972008 
L 303.316364 155.514816 
L 307.374545 155.906424 
L 311.432727 156.124152 
L 315.490909 156.15288 
L 319.549091 155.992608 
L 323.607273 155.656944 
L 327.665455 155.171592 
L 331.723636 154.563768 
L 335.781818 153.8622 
L 339.84 153.086544 
L 343.898182 152.257968 
L 347.956364 151.391592 
L 352.014545 150.501024 
L 356.072727 149.601384 
L 360.130909 148.704768 
L 364.189091 147.823272 
L 368.247273 146.968992 
L 372.305455 146.155536 
L 376.363636 145.393488 
L 380.421818 144.696456 
L 384.48 144.067464 
L 388.538182 143.514072 
L 392.596364 143.033256 
L 396.654545 142.623504 
L 400.712727 142.275744 
L 404.770909 141.982416 
L 408.829091 141.738984 
L 412.887273 141.534864 
L 416.945455 141.364008 
L 421.003636 141.22188 
L 425.061818 141.103944 
L 429.12 141.007176 
L 433.178182 140.925528 
L 437.236364 140.859 
L 441.294545 140.807592 
L 445.352727 140.769792 
L 449.410909 140.787936 
L 453.469091 141.406344 
L 457.527273 142.381584 
L 461.585455 143.329608 
L 465.643636 144.2232 
L 469.701818 145.051776 
L 473.76 145.806264 
L 477.818182 146.47608 
L 481.876364 147.047616 
L 485.934545 147.508776 
L 489.992727 147.848976 
L 494.050909 148.057632 
L 498.109091 148.128696 
" clip-path="url(#pd1de4cdaae)" style="fill: none; stroke: #000000; stroke-opacity: 0.5; stroke-linecap: square"/>
   </g>
   <g id="line2d_22">
    <path d="M 92.290909 140.134752 
L 96.349091 140.015304 
L 100.407273 139.667544 
L 104.465455 139.1202 
L 108.523636 138.411072 
L 112.581818 137.573424 
L 116.64 136.634472 
L 120.698182 135.615384 
L 124.756364 134.535816 
L 128.814545 133.403328 
L 132.872727 132.230016 
L 136.930909 131.020416 
L 140.989091 129.779064 
L 145.047273 128.512008 
L 149.105455 127.219248 
L 153.163636 125.90532 
L 157.221818 124.573248 
L 161.28 123.223032 
L 165.338182 121.857696 
L 169.396364 120.481776 
L 173.454545 119.102832 
L 177.512727 117.769248 
L 181.570909 117.326232 
L 185.629091 118.547928 
L 189.687273 119.926872 
L 193.745455 121.322448 
L 197.803636 122.719536 
L 201.861818 124.112088 
L 205.92 125.49708 
L 209.978182 126.869976 
L 214.036364 128.229264 
L 218.094545 129.568896 
L 222.152727 130.885848 
L 226.210909 132.174072 
L 230.269091 133.422984 
L 234.327273 134.623512 
L 238.385455 135.760536 
L 242.443636 136.811376 
L 246.501818 137.750328 
L 250.56 138.54564 
L 254.618182 139.174632 
L 258.676364 139.631256 
L 262.734545 139.930632 
L 266.792727 140.101488 
L 270.850909 140.177088 
L 274.909091 140.183136 
L 278.967273 140.1408 
L 283.025455 140.0652 
L 287.083636 139.963896 
L 291.141818 139.844448 
L 295.2 139.714416 
L 299.258182 139.5738 
L 303.316364 139.427136 
L 307.374545 139.274424 
L 311.432727 139.118688 
L 315.490909 138.959928 
L 319.549091 138.796632 
L 323.607273 138.630312 
L 327.665455 138.459456 
L 331.723636 138.282552 
L 335.781818 138.0996 
L 339.84 137.907576 
L 343.898182 137.704968 
L 347.956364 137.485728 
L 352.014545 137.248344 
L 356.072727 136.986768 
L 360.130909 136.69344 
L 364.189091 136.3608 
L 368.247273 135.981288 
L 372.305455 135.545832 
L 376.363636 135.043848 
L 380.421818 134.4708 
L 384.48 133.817616 
L 388.538182 133.08732 
L 392.596364 132.282936 
L 396.654545 131.412024 
L 400.712727 130.492728 
L 404.770909 129.573432 
L 408.829091 128.935368 
L 412.887273 129.547728 
L 416.945455 130.739184 
L 421.003636 131.995656 
L 425.061818 133.252128 
L 429.12 134.491968 
L 433.178182 135.71064 
L 437.236364 136.900584 
L 441.294545 138.060288 
L 445.352727 139.179168 
L 449.410909 140.217912 
L 453.469091 140.620104 
L 457.527273 140.62464 
L 461.585455 140.611032 
L 465.643636 140.597424 
L 469.701818 140.585328 
L 473.76 140.574744 
L 477.818182 140.567184 
L 481.876364 140.561136 
L 485.934545 140.5566 
L 489.992727 140.553576 
L 494.050909 140.552064 
L 498.109091 140.550552 
" clip-path="url(#pd1de4cdaae)" style="fill: none; stroke: #000000; stroke-opacity: 0.5; stroke-linecap: square"/>
   </g>
   <g id="line2d_23">
    <path d="M 92.290909 93.237048 
L 96.349091 93.333816 
L 100.407273 93.619584 
L 104.465455 94.083768 
L 108.523636 94.708224 
L 112.581818 95.471784 
L 116.64 96.354792 
L 120.698182 97.337592 
L 124.756364 98.403552 
L 128.814545 99.539064 
L 132.872727 100.73052 
L 136.930909 101.968848 
L 140.989091 103.244976 
L 145.047273 104.551344 
L 149.105455 105.883416 
L 153.163636 107.236656 
L 157.221818 108.605016 
L 161.28 109.986984 
L 165.338182 111.376512 
L 169.396364 112.769064 
L 173.454545 114.155568 
L 177.512727 115.48764 
L 181.570909 115.915536 
L 185.629091 114.669648 
L 189.687273 113.252904 
L 193.745455 111.804408 
L 197.803636 110.33928 
L 201.861818 108.862056 
L 205.92 107.377272 
L 209.978182 105.883416 
L 214.036364 104.383512 
L 218.094545 102.879072 
L 222.152727 101.370096 
L 226.210909 99.859608 
L 230.269091 98.34912 
L 234.327273 96.840144 
L 238.385455 95.334192 
L 242.443636 93.8358 
L 246.501818 92.347992 
L 250.56 90.87228 
L 254.618182 89.417736 
L 258.676364 87.988896 
L 262.734545 86.597856 
L 266.792727 85.261248 
L 270.850909 84.012336 
L 274.909091 82.923696 
L 278.967273 82.184328 
L 283.025455 82.157112 
L 287.083636 82.928232 
L 291.141818 84.13632 
L 295.2 85.528872 
L 299.258182 87.006096 
L 303.316364 88.530192 
L 307.374545 90.081504 
L 311.432727 91.649448 
L 315.490909 93.226464 
L 319.549091 94.808016 
L 323.607273 96.394104 
L 327.665455 97.97868 
L 331.723636 99.561744 
L 335.781818 101.141784 
L 339.84 102.715776 
L 343.898182 104.28372 
L 347.956364 105.845616 
L 352.014545 107.399952 
L 356.072727 108.943704 
L 360.130909 110.478384 
L 364.189091 112.00248 
L 368.247273 113.515992 
L 372.305455 115.017408 
L 376.363636 116.505216 
L 380.421818 117.977904 
L 384.48 119.436984 
L 388.538182 120.87792 
L 392.596364 122.300712 
L 396.654545 123.700824 
L 400.712727 125.06616 
L 404.770909 126.35892 
L 408.829091 127.306944 
L 412.887273 126.947088 
L 416.945455 125.959752 
L 421.003636 124.863552 
L 425.061818 123.72804 
L 429.12 122.577408 
L 433.178182 121.417704 
L 437.236364 120.261024 
L 441.294545 119.111904 
L 445.352727 117.976392 
L 449.410909 116.86356 
L 453.469091 115.777944 
L 457.527273 114.728616 
L 461.585455 113.724648 
L 465.643636 112.775112 
L 469.701818 111.892104 
L 473.76 111.086208 
L 477.818182 110.372544 
L 481.876364 109.763208 
L 485.934545 109.270296 
L 489.992727 108.908928 
L 494.050909 108.688176 
L 498.109091 108.612576 
" clip-path="url(#pd1de4cdaae)" style="fill: none; stroke: #000000; stroke-opacity: 0.5; stroke-linecap: square"/>
   </g>
   <g id="patch_3">
    <path d="M 72 384.48 
L 72 51.84 
" style="fill: none; stroke: #000000; stroke-width: 0.8; stroke-linejoin: miter; stroke-linecap: square"/>
   </g>
   <g id="patch_4">
    <path d="M 518.4 384.48 
L 518.4 51.84 
" style="fill: none; stroke: #000000; stroke-width: 0.8; stroke-linejoin: miter; stroke-linecap: square"/>
   </g>
   <g id="patch_5">
    <path d="M 72 384.48 
L 518.4 384.48 
" style="fill: none; stroke: #000000; stroke-width: 0.8; stroke-linejoin: miter; stroke-linecap: square"/>
   </g>
   <g id="patch_6">
    <path d="M 72 51.84 
L 518.4 51.84 
" style="fill: none; stroke: #000000; stroke-width: 0.8; stroke-linejoin: miter; stroke-linecap: square"/>
   </g>
  </g>
 </g>
 <defs>
  <clipPath id="pd1de4cdaae">
   <rect x="72" y="51.84" width="446.4" height="332.64"/>
  </clipPath>
 </defs>
</svg>
