<?xml version="1.0" encoding="utf-8" standalone="no"?>
<!DOCTYPE svg PUBLIC "-//W3C//DTD SVG 1.1//EN"
  "http://www.w3.org/Graphics/SVG/1.1/DTD/svg11.dtd">
<svg xmlns:xlink="http://www.w3.org/1999/xlink" width="576pt" height="432pt" viewBox="0 0 576 432" xmlns="http://www.w3.org/2000/svg" version="1.1">
 <metadata>
  <rdf:RDF xmlns:dc="http://purl.org/dc/elements/1.1/" xmlns:cc="http://creativecommons.org/ns#" xmlns:rdf="http://www.w3.org/1999/02/22-rdf-syntax-ns#">
   <cc:Work>
    <dc:type rdf:resource="http://purl.org/dc/dcmitype/StillImage"/>
    <dc:date>2023-05-02T22:07:26.504188</dc:date>
    <dc:format>image/svg+xml</dc:format>
    <dc:creator>
     <cc:Agent>
      <dc:title>Matplotlib v3.7.1, https://matplotlib.org/</dc:title>
     </cc:Agent>
    </dc:creator>
   </cc:Work>
  </rdf:RDF>
 </metadata>
 <defs>
  <style type="text/css">*{stroke-linejoin: round; stroke-linecap: butt}</style>
 </defs>
 <g id="figure_1">
  <g id="patch_1">
   <path d="M 0 432 
L 576 432 
L 576 0 
L 0 0 
z
" style="fill: #ffffff"/>
  </g>
  <g id="axes_1">
   <g id="patch_2">
    <path d="M 72 384.48 
L 518.4 384.48 
L 518.4 51.84 
L 72 51.84 
z
" style="fill: #ffffff"/>
   </g>
   <g id="matplotlib.axis_1">
    <g id="xtick_1">
     <g id="line2d_1">
      <defs>
       <path id="mc6b6d3092e" d="M 0 0 
L 0 3.5 
" style="stroke: #000000; stroke-width: 0.8"/>
      </defs>
      <g>
       <use xlink:href="#mc6b6d3092e" x="92.290909" y="384.48" style="stroke: #000000; stroke-width: 0.8"/>
      </g>
     </g>
     <g id="text_1">
      <!-- 0.0 -->
      <g transform="translate(84.339347 399.078438) scale(0.1 -0.1)">
       <defs>
        <path id="DejaVuSans-30" d="M 2034 4250 
Q 1547 4250 1301 3770 
Q 1056 3291 1056 2328 
Q 1056 1369 1301 889 
Q 1547 409 2034 409 
Q 2525 409 2770 889 
Q 3016 1369 3016 2328 
Q 3016 3291 2770 3770 
Q 2525 4250 2034 4250 
z
M 2034 4750 
Q 2819 4750 3233 4129 
Q 3647 3509 3647 2328 
Q 3647 1150 3233 529 
Q 2819 -91 2034 -91 
Q 1250 -91 836 529 
Q 422 1150 422 2328 
Q 422 3509 836 4129 
Q 1250 4750 2034 4750 
z
" transform="scale(0.015625)"/>
        <path id="DejaVuSans-2e" d="M 684 794 
L 1344 794 
L 1344 0 
L 684 0 
L 684 794 
z
" transform="scale(0.015625)"/>
       </defs>
       <use xlink:href="#DejaVuSans-30"/>
       <use xlink:href="#DejaVuSans-2e" x="63.623047"/>
       <use xlink:href="#DejaVuSans-30" x="95.410156"/>
      </g>
     </g>
    </g>
    <g id="xtick_2">
     <g id="line2d_2">
      <g>
       <use xlink:href="#mc6b6d3092e" x="173.454545" y="384.48" style="stroke: #000000; stroke-width: 0.8"/>
      </g>
     </g>
     <g id="text_2">
      <!-- 0.2 -->
      <g transform="translate(165.502983 399.078438) scale(0.1 -0.1)">
       <defs>
        <path id="DejaVuSans-32" d="M 1228 531 
L 3431 531 
L 3431 0 
L 469 0 
L 469 531 
Q 828 903 1448 1529 
Q 2069 2156 2228 2338 
Q 2531 2678 2651 2914 
Q 2772 3150 2772 3378 
Q 2772 3750 2511 3984 
Q 2250 4219 1831 4219 
Q 1534 4219 1204 4116 
Q 875 4013 500 3803 
L 500 4441 
Q 881 4594 1212 4672 
Q 1544 4750 1819 4750 
Q 2544 4750 2975 4387 
Q 3406 4025 3406 3419 
Q 3406 3131 3298 2873 
Q 3191 2616 2906 2266 
Q 2828 2175 2409 1742 
Q 1991 1309 1228 531 
z
" transform="scale(0.015625)"/>
       </defs>
       <use xlink:href="#DejaVuSans-30"/>
       <use xlink:href="#DejaVuSans-2e" x="63.623047"/>
       <use xlink:href="#DejaVuSans-32" x="95.410156"/>
      </g>
     </g>
    </g>
    <g id="xtick_3">
     <g id="line2d_3">
      <g>
       <use xlink:href="#mc6b6d3092e" x="254.618182" y="384.48" style="stroke: #000000; stroke-width: 0.8"/>
      </g>
     </g>
     <g id="text_3">
      <!-- 0.4 -->
      <g transform="translate(246.666619 399.078438) scale(0.1 -0.1)">
       <defs>
        <path id="DejaVuSans-34" d="M 2419 4116 
L 825 1625 
L 2419 1625 
L 2419 4116 
z
M 2253 4666 
L 3047 4666 
L 3047 1625 
L 3713 1625 
L 3713 1100 
L 3047 1100 
L 3047 0 
L 2419 0 
L 2419 1100 
L 313 1100 
L 313 1709 
L 2253 4666 
z
" transform="scale(0.015625)"/>
       </defs>
       <use xlink:href="#DejaVuSans-30"/>
       <use xlink:href="#DejaVuSans-2e" x="63.623047"/>
       <use xlink:href="#DejaVuSans-34" x="95.410156"/>
      </g>
     </g>
    </g>
    <g id="xtick_4">
     <g id="line2d_4">
      <g>
       <use xlink:href="#mc6b6d3092e" x="335.781818" y="384.48" style="stroke: #000000; stroke-width: 0.8"/>
      </g>
     </g>
     <g id="text_4">
      <!-- 0.6 -->
      <g transform="translate(327.830256 399.078438) scale(0.1 -0.1)">
       <defs>
        <path id="DejaVuSans-36" d="M 2113 2584 
Q 1688 2584 1439 2293 
Q 1191 2003 1191 1497 
Q 1191 994 1439 701 
Q 1688 409 2113 409 
Q 2538 409 2786 701 
Q 3034 994 3034 1497 
Q 3034 2003 2786 2293 
Q 2538 2584 2113 2584 
z
M 3366 4563 
L 3366 3988 
Q 3128 4100 2886 4159 
Q 2644 4219 2406 4219 
Q 1781 4219 1451 3797 
Q 1122 3375 1075 2522 
Q 1259 2794 1537 2939 
Q 1816 3084 2150 3084 
Q 2853 3084 3261 2657 
Q 3669 2231 3669 1497 
Q 3669 778 3244 343 
Q 2819 -91 2113 -91 
Q 1303 -91 875 529 
Q 447 1150 447 2328 
Q 447 3434 972 4092 
Q 1497 4750 2381 4750 
Q 2619 4750 2861 4703 
Q 3103 4656 3366 4563 
z
" transform="scale(0.015625)"/>
       </defs>
       <use xlink:href="#DejaVuSans-30"/>
       <use xlink:href="#DejaVuSans-2e" x="63.623047"/>
       <use xlink:href="#DejaVuSans-36" x="95.410156"/>
      </g>
     </g>
    </g>
    <g id="xtick_5">
     <g id="line2d_5">
      <g>
       <use xlink:href="#mc6b6d3092e" x="416.945455" y="384.48" style="stroke: #000000; stroke-width: 0.8"/>
      </g>
     </g>
     <g id="text_5">
      <!-- 0.8 -->
      <g transform="translate(408.993892 399.078438) scale(0.1 -0.1)">
       <defs>
        <path id="DejaVuSans-38" d="M 2034 2216 
Q 1584 2216 1326 1975 
Q 1069 1734 1069 1313 
Q 1069 891 1326 650 
Q 1584 409 2034 409 
Q 2484 409 2743 651 
Q 3003 894 3003 1313 
Q 3003 1734 2745 1975 
Q 2488 2216 2034 2216 
z
M 1403 2484 
Q 997 2584 770 2862 
Q 544 3141 544 3541 
Q 544 4100 942 4425 
Q 1341 4750 2034 4750 
Q 2731 4750 3128 4425 
Q 3525 4100 3525 3541 
Q 3525 3141 3298 2862 
Q 3072 2584 2669 2484 
Q 3125 2378 3379 2068 
Q 3634 1759 3634 1313 
Q 3634 634 3220 271 
Q 2806 -91 2034 -91 
Q 1263 -91 848 271 
Q 434 634 434 1313 
Q 434 1759 690 2068 
Q 947 2378 1403 2484 
z
M 1172 3481 
Q 1172 3119 1398 2916 
Q 1625 2713 2034 2713 
Q 2441 2713 2670 2916 
Q 2900 3119 2900 3481 
Q 2900 3844 2670 4047 
Q 2441 4250 2034 4250 
Q 1625 4250 1398 4047 
Q 1172 3844 1172 3481 
z
" transform="scale(0.015625)"/>
       </defs>
       <use xlink:href="#DejaVuSans-30"/>
       <use xlink:href="#DejaVuSans-2e" x="63.623047"/>
       <use xlink:href="#DejaVuSans-38" x="95.410156"/>
      </g>
     </g>
    </g>
    <g id="xtick_6">
     <g id="line2d_6">
      <g>
       <use xlink:href="#mc6b6d3092e" x="498.109091" y="384.48" style="stroke: #000000; stroke-width: 0.8"/>
      </g>
     </g>
     <g id="text_6">
      <!-- 1.0 -->
      <g transform="translate(490.157528 399.078438) scale(0.1 -0.1)">
       <defs>
        <path id="DejaVuSans-31" d="M 794 531 
L 1825 531 
L 1825 4091 
L 703 3866 
L 703 4441 
L 1819 4666 
L 2450 4666 
L 2450 531 
L 3481 531 
L 3481 0 
L 794 0 
L 794 531 
z
" transform="scale(0.015625)"/>
       </defs>
       <use xlink:href="#DejaVuSans-31"/>
       <use xlink:href="#DejaVuSans-2e" x="63.623047"/>
       <use xlink:href="#DejaVuSans-30" x="95.410156"/>
      </g>
     </g>
    </g>
   </g>
   <g id="matplotlib.axis_2">
    <g id="ytick_1">
     <g id="line2d_7">
      <defs>
       <path id="m5392655f32" d="M 0 0 
L -3.5 0 
" style="stroke: #000000; stroke-width: 0.8"/>
      </defs>
      <g>
       <use xlink:href="#m5392655f32" x="72" y="369.36" style="stroke: #000000; stroke-width: 0.8"/>
      </g>
     </g>
     <g id="text_7">
      <!-- −5.0 -->
      <g transform="translate(40.717187 373.159219) scale(0.1 -0.1)">
       <defs>
        <path id="DejaVuSans-2212" d="M 678 2272 
L 4684 2272 
L 4684 1741 
L 678 1741 
L 678 2272 
z
" transform="scale(0.015625)"/>
        <path id="DejaVuSans-35" d="M 691 4666 
L 3169 4666 
L 3169 4134 
L 1269 4134 
L 1269 2991 
Q 1406 3038 1543 3061 
Q 1681 3084 1819 3084 
Q 2600 3084 3056 2656 
Q 3513 2228 3513 1497 
Q 3513 744 3044 326 
Q 2575 -91 1722 -91 
Q 1428 -91 1123 -41 
Q 819 9 494 109 
L 494 744 
Q 775 591 1075 516 
Q 1375 441 1709 441 
Q 2250 441 2565 725 
Q 2881 1009 2881 1497 
Q 2881 1984 2565 2268 
Q 2250 2553 1709 2553 
Q 1456 2553 1204 2497 
Q 953 2441 691 2322 
L 691 4666 
z
" transform="scale(0.015625)"/>
       </defs>
       <use xlink:href="#DejaVuSans-2212"/>
       <use xlink:href="#DejaVuSans-35" x="83.789062"/>
       <use xlink:href="#DejaVuSans-2e" x="147.412109"/>
       <use xlink:href="#DejaVuSans-30" x="179.199219"/>
      </g>
     </g>
    </g>
    <g id="ytick_2">
     <g id="line2d_8">
      <g>
       <use xlink:href="#m5392655f32" x="72" y="331.56" style="stroke: #000000; stroke-width: 0.8"/>
      </g>
     </g>
     <g id="text_8">
      <!-- −2.5 -->
      <g transform="translate(40.717187 335.359219) scale(0.1 -0.1)">
       <use xlink:href="#DejaVuSans-2212"/>
       <use xlink:href="#DejaVuSans-32" x="83.789062"/>
       <use xlink:href="#DejaVuSans-2e" x="147.412109"/>
       <use xlink:href="#DejaVuSans-35" x="179.199219"/>
      </g>
     </g>
    </g>
    <g id="ytick_3">
     <g id="line2d_9">
      <g>
       <use xlink:href="#m5392655f32" x="72" y="293.76" style="stroke: #000000; stroke-width: 0.8"/>
      </g>
     </g>
     <g id="text_9">
      <!-- 0.0 -->
      <g transform="translate(49.096875 297.559219) scale(0.1 -0.1)">
       <use xlink:href="#DejaVuSans-30"/>
       <use xlink:href="#DejaVuSans-2e" x="63.623047"/>
       <use xlink:href="#DejaVuSans-30" x="95.410156"/>
      </g>
     </g>
    </g>
    <g id="ytick_4">
     <g id="line2d_10">
      <g>
       <use xlink:href="#m5392655f32" x="72" y="255.96" style="stroke: #000000; stroke-width: 0.8"/>
      </g>
     </g>
     <g id="text_10">
      <!-- 2.5 -->
      <g transform="translate(49.096875 259.759219) scale(0.1 -0.1)">
       <use xlink:href="#DejaVuSans-32"/>
       <use xlink:href="#DejaVuSans-2e" x="63.623047"/>
       <use xlink:href="#DejaVuSans-35" x="95.410156"/>
      </g>
     </g>
    </g>
    <g id="ytick_5">
     <g id="line2d_11">
      <g>
       <use xlink:href="#m5392655f32" x="72" y="218.16" style="stroke: #000000; stroke-width: 0.8"/>
      </g>
     </g>
     <g id="text_11">
      <!-- 5.0 -->
      <g transform="translate(49.096875 221.959219) scale(0.1 -0.1)">
       <use xlink:href="#DejaVuSans-35"/>
       <use xlink:href="#DejaVuSans-2e" x="63.623047"/>
       <use xlink:href="#DejaVuSans-30" x="95.410156"/>
      </g>
     </g>
    </g>
    <g id="ytick_6">
     <g id="line2d_12">
      <g>
       <use xlink:href="#m5392655f32" x="72" y="180.36" style="stroke: #000000; stroke-width: 0.8"/>
      </g>
     </g>
     <g id="text_12">
      <!-- 7.5 -->
      <g transform="translate(49.096875 184.159219) scale(0.1 -0.1)">
       <defs>
        <path id="DejaVuSans-37" d="M 525 4666 
L 3525 4666 
L 3525 4397 
L 1831 0 
L 1172 0 
L 2766 4134 
L 525 4134 
L 525 4666 
z
" transform="scale(0.015625)"/>
       </defs>
       <use xlink:href="#DejaVuSans-37"/>
       <use xlink:href="#DejaVuSans-2e" x="63.623047"/>
       <use xlink:href="#DejaVuSans-35" x="95.410156"/>
      </g>
     </g>
    </g>
    <g id="ytick_7">
     <g id="line2d_13">
      <g>
       <use xlink:href="#m5392655f32" x="72" y="142.56" style="stroke: #000000; stroke-width: 0.8"/>
      </g>
     </g>
     <g id="text_13">
      <!-- 10.0 -->
      <g transform="translate(42.734375 146.359219) scale(0.1 -0.1)">
       <use xlink:href="#DejaVuSans-31"/>
       <use xlink:href="#DejaVuSans-30" x="63.623047"/>
       <use xlink:href="#DejaVuSans-2e" x="127.246094"/>
       <use xlink:href="#DejaVuSans-30" x="159.033203"/>
      </g>
     </g>
    </g>
    <g id="ytick_8">
     <g id="line2d_14">
      <g>
       <use xlink:href="#m5392655f32" x="72" y="104.76" style="stroke: #000000; stroke-width: 0.8"/>
      </g>
     </g>
     <g id="text_14">
      <!-- 12.5 -->
      <g transform="translate(42.734375 108.559219) scale(0.1 -0.1)">
       <use xlink:href="#DejaVuSans-31"/>
       <use xlink:href="#DejaVuSans-32" x="63.623047"/>
       <use xlink:href="#DejaVuSans-2e" x="127.246094"/>
       <use xlink:href="#DejaVuSans-35" x="159.033203"/>
      </g>
     </g>
    </g>
    <g id="ytick_9">
     <g id="line2d_15">
      <g>
       <use xlink:href="#m5392655f32" x="72" y="66.96" style="stroke: #000000; stroke-width: 0.8"/>
      </g>
     </g>
     <g id="text_15">
      <!-- 15.0 -->
      <g transform="translate(42.734375 70.759219) scale(0.1 -0.1)">
       <use xlink:href="#DejaVuSans-31"/>
       <use xlink:href="#DejaVuSans-35" x="63.623047"/>
       <use xlink:href="#DejaVuSans-2e" x="127.246094"/>
       <use xlink:href="#DejaVuSans-30" x="159.033203"/>
      </g>
     </g>
    </g>
   </g>
   <g id="line2d_16">
    <path d="M 92.290909 354.690576 
L 96.349091 354.684528 
L 100.407273 354.67092 
L 104.465455 354.645216 
L 108.523636 354.61044 
L 112.581818 354.56508 
L 116.64 354.510648 
L 120.698182 354.445632 
L 124.756364 354.371544 
L 128.814545 354.286872 
L 132.872727 354.193128 
L 136.930909 354.0888 
L 140.989091 353.9754 
L 145.047273 353.852928 
L 149.105455 353.719872 
L 153.163636 353.577744 
L 157.221818 353.426544 
L 161.28 353.266272 
L 165.338182 353.096928 
L 169.396364 352.917 
L 173.454545 352.729512 
L 177.512727 352.532952 
L 181.570909 352.32732 
L 185.629091 352.112616 
L 189.687273 351.890352 
L 193.745455 351.660528 
L 197.803636 351.421632 
L 201.861818 351.173664 
L 205.92 350.919648 
L 209.978182 350.658072 
L 214.036364 350.388936 
L 218.094545 350.11224 
L 222.152727 349.827984 
L 226.210909 349.53768 
L 230.269091 349.241328 
L 234.327273 348.938928 
L 238.385455 348.63048 
L 242.443636 348.317496 
L 246.501818 347.998464 
L 250.56 347.674896 
L 254.618182 347.34528 
L 258.676364 347.014152 
L 262.734545 346.676976 
L 266.792727 346.338288 
L 270.850909 345.995064 
L 274.909091 345.65184 
L 278.967273 345.30408 
L 283.025455 344.95632 
L 287.083636 344.60856 
L 291.141818 344.259288 
L 295.2 343.910016 
L 299.258182 343.560744 
L 303.316364 343.214496 
L 307.374545 342.86976 
L 311.432727 342.526536 
L 315.490909 342.187848 
L 319.549091 341.852184 
L 323.607273 341.521056 
L 327.665455 341.195976 
L 331.723636 340.875432 
L 335.781818 340.562448 
L 339.84 340.255512 
L 343.898182 339.956136 
L 347.956364 339.665832 
L 352.014545 339.383088 
L 356.072727 339.109416 
L 360.130909 338.846328 
L 364.189091 338.592312 
L 368.247273 338.350392 
L 372.305455 338.117544 
L 376.363636 337.896792 
L 380.421818 337.686624 
L 384.48 337.48704 
L 388.538182 337.299552 
L 392.596364 337.122648 
L 396.654545 336.956328 
L 400.712727 336.802104 
L 404.770909 336.658464 
L 408.829091 336.523896 
L 412.887273 336.401424 
L 416.945455 336.288024 
L 421.003636 336.183696 
L 425.061818 336.08844 
L 429.12 336.000744 
L 433.178182 335.92212 
L 437.236364 335.851056 
L 441.294545 335.78604 
L 445.352727 335.728584 
L 449.410909 335.678688 
L 453.469091 335.633328 
L 457.527273 335.592504 
L 461.585455 335.557728 
L 465.643636 335.527488 
L 469.701818 335.501784 
L 473.76 335.479104 
L 477.818182 335.46096 
L 481.876364 335.447352 
L 485.934545 335.435256 
L 489.992727 335.427696 
L 494.050909 335.42316 
L 498.109091 335.421648 
" clip-path="url(#p5b2967a069)" style="fill: none; stroke: #000000; stroke-opacity: 0.5; stroke-linecap: square"/>
   </g>
   <g id="line2d_17">
    <path d="M 92.290909 277.471224 
L 96.349091 277.493904 
L 100.407273 277.561944 
L 104.465455 277.673832 
L 108.523636 277.829568 
L 112.581818 278.02764 
L 116.64 278.265024 
L 120.698182 278.54172 
L 124.756364 278.854704 
L 128.814545 279.202464 
L 132.872727 279.581976 
L 136.930909 279.990216 
L 140.989091 280.425672 
L 145.047273 280.886832 
L 149.105455 281.36916 
L 153.163636 281.872656 
L 157.221818 282.392784 
L 161.28 282.929544 
L 165.338182 283.481424 
L 169.396364 284.043888 
L 173.454545 284.616936 
L 177.512727 285.199056 
L 181.570909 285.787224 
L 185.629091 286.38144 
L 189.687273 286.980192 
L 193.745455 287.580456 
L 197.803636 288.183744 
L 201.861818 288.787032 
L 205.92 289.388808 
L 209.978182 289.990584 
L 214.036364 290.589336 
L 218.094545 291.183552 
L 222.152727 291.774744 
L 226.210909 292.359888 
L 230.269091 292.938984 
L 234.327273 293.51052 
L 238.385455 294.076008 
L 242.443636 294.632424 
L 246.501818 295.179768 
L 250.56 295.71804 
L 254.618182 296.24724 
L 258.676364 296.764344 
L 262.734545 297.269352 
L 266.792727 297.763776 
L 270.850909 298.244592 
L 274.909091 298.713312 
L 278.967273 299.166912 
L 283.025455 299.606904 
L 287.083636 300.033288 
L 291.141818 300.44304 
L 295.2 300.83616 
L 299.258182 301.21416 
L 303.316364 301.574016 
L 307.374545 301.91724 
L 311.432727 302.24232 
L 315.490909 302.547744 
L 319.549091 302.835024 
L 323.607273 303.10416 
L 327.665455 303.352128 
L 331.723636 303.58044 
L 335.781818 303.787584 
L 339.84 303.97356 
L 343.898182 304.13988 
L 347.956364 304.285032 
L 352.014545 304.407504 
L 356.072727 304.51032 
L 360.130909 304.590456 
L 364.189091 304.649424 
L 368.247273 304.688736 
L 372.305455 304.705368 
L 376.363636 304.703856 
L 380.421818 304.681176 
L 384.48 304.640352 
L 388.538182 304.581384 
L 392.596364 304.504272 
L 396.654545 304.410528 
L 400.712727 304.303176 
L 404.770909 304.180704 
L 408.829091 304.046136 
L 412.887273 303.899472 
L 416.945455 303.742224 
L 421.003636 303.578928 
L 425.061818 303.408072 
L 429.12 303.23268 
L 433.178182 303.052752 
L 437.236364 302.872824 
L 441.294545 302.694408 
L 445.352727 302.517504 
L 449.410909 302.345136 
L 453.469091 302.177304 
L 457.527273 302.018544 
L 461.585455 301.868856 
L 465.643636 301.729752 
L 469.701818 301.604256 
L 473.76 301.492368 
L 477.818182 301.394088 
L 481.876364 301.313952 
L 485.934545 301.248936 
L 489.992727 301.203576 
L 494.050909 301.174848 
L 498.109091 301.165776 
" clip-path="url(#p5b2967a069)" style="fill: none; stroke: #000000; stroke-opacity: 0.5; stroke-linecap: square"/>
   </g>
   <g id="line2d_18">
    <path d="M 92.290909 246.13956 
L 96.349091 246.130488 
L 100.407273 246.103272 
L 104.465455 246.060936 
L 108.523636 246.000456 
L 112.581818 245.926368 
L 116.64 245.840184 
L 120.698182 245.743416 
L 124.756364 245.637576 
L 128.814545 245.5272 
L 132.872727 245.4138 
L 136.930909 245.3004 
L 140.989091 245.187 
L 145.047273 245.079648 
L 149.105455 244.979856 
L 153.163636 244.887624 
L 157.221818 244.807488 
L 161.28 244.739448 
L 165.338182 244.686528 
L 169.396364 244.65024 
L 173.454545 244.630584 
L 177.512727 244.630584 
L 181.570909 244.648728 
L 185.629091 244.686528 
L 189.687273 244.743984 
L 193.745455 244.82412 
L 197.803636 244.9224 
L 201.861818 245.04336 
L 205.92 245.183976 
L 209.978182 245.344248 
L 214.036364 245.522664 
L 218.094545 245.722248 
L 222.152727 245.938464 
L 226.210909 246.171312 
L 230.269091 246.420792 
L 234.327273 246.685392 
L 238.385455 246.9636 
L 242.443636 247.255416 
L 246.501818 247.559328 
L 250.56 247.873824 
L 254.618182 248.197392 
L 258.676364 248.531544 
L 262.734545 248.871744 
L 266.792727 249.219504 
L 270.850909 249.573312 
L 274.909091 249.931656 
L 278.967273 250.294536 
L 283.025455 250.66044 
L 287.083636 251.027856 
L 291.141818 251.396784 
L 295.2 251.765712 
L 299.258182 252.13464 
L 303.316364 252.503568 
L 307.374545 252.869472 
L 311.432727 253.235376 
L 315.490909 253.596744 
L 319.549091 253.955088 
L 323.607273 254.308896 
L 327.665455 254.658168 
L 331.723636 255.004416 
L 335.781818 255.343104 
L 339.84 255.675744 
L 343.898182 256.003848 
L 347.956364 256.32288 
L 352.014545 256.635864 
L 356.072727 256.941288 
L 360.130909 257.239152 
L 364.189091 257.527944 
L 368.247273 257.807664 
L 372.305455 258.078312 
L 376.363636 258.339888 
L 380.421818 258.592392 
L 384.48 258.834312 
L 388.538182 259.06716 
L 392.596364 259.287912 
L 396.654545 259.499592 
L 400.712727 259.699176 
L 404.770909 259.888176 
L 408.829091 260.06508 
L 412.887273 260.2314 
L 416.945455 260.387136 
L 421.003636 260.530776 
L 425.061818 260.66232 
L 429.12 260.78328 
L 433.178182 260.892144 
L 437.236364 260.990424 
L 441.294545 261.076608 
L 445.352727 261.15372 
L 449.410909 261.220248 
L 453.469091 261.276192 
L 457.527273 261.323064 
L 461.585455 261.362376 
L 465.643636 261.394128 
L 469.701818 261.419832 
L 473.76 261.439488 
L 477.818182 261.453096 
L 481.876364 261.46368 
L 485.934545 261.47124 
L 489.992727 261.475776 
L 494.050909 261.477288 
L 498.109091 261.4788 
" clip-path="url(#p5b2967a069)" style="fill: none; stroke: #000000; stroke-opacity: 0.5; stroke-linecap: square"/>
   </g>
   <g id="line2d_19">
    <path d="M 92.290909 236.237472 
L 96.349091 236.232936 
L 100.407273 236.216304 
L 104.465455 236.189088 
L 108.523636 236.151288 
L 112.581818 236.104416 
L 116.64 236.045448 
L 120.698182 235.977408 
L 124.756364 235.898784 
L 128.814545 235.811088 
L 132.872727 235.71432 
L 136.930909 235.60848 
L 140.989091 235.493568 
L 145.047273 235.372608 
L 149.105455 235.242576 
L 153.163636 235.106496 
L 157.221818 234.964368 
L 161.28 234.81468 
L 165.338182 234.660456 
L 169.396364 234.501696 
L 173.454545 234.3384 
L 177.512727 234.169056 
L 181.570909 233.996688 
L 185.629091 233.819784 
L 189.687273 233.639856 
L 193.745455 233.456904 
L 197.803636 233.269416 
L 201.861818 233.080416 
L 205.92 232.888392 
L 209.978182 232.693344 
L 214.036364 232.496784 
L 218.094545 232.298712 
L 222.152727 232.099128 
L 226.210909 231.899544 
L 230.269091 231.69996 
L 234.327273 231.500376 
L 238.385455 231.302304 
L 242.443636 231.107256 
L 246.501818 230.91372 
L 250.56 230.726232 
L 254.618182 230.541768 
L 258.676364 230.364864 
L 262.734545 230.19552 
L 266.792727 230.033736 
L 270.850909 229.882536 
L 274.909091 229.743432 
L 278.967273 229.616424 
L 283.025455 229.504536 
L 287.083636 229.40928 
L 291.141818 229.332168 
L 295.2 229.2732 
L 299.258182 229.236912 
L 303.316364 229.223304 
L 307.374545 229.233888 
L 311.432727 229.271688 
L 315.490909 229.336704 
L 319.549091 229.43196 
L 323.607273 229.555944 
L 327.665455 229.71168 
L 331.723636 229.90068 
L 335.781818 230.122944 
L 339.84 230.37696 
L 343.898182 230.665752 
L 347.956364 230.987808 
L 352.014545 231.343128 
L 356.072727 231.7302 
L 360.130909 232.147512 
L 364.189091 232.595064 
L 368.247273 233.069832 
L 372.305455 233.571816 
L 376.363636 234.097992 
L 380.421818 234.645336 
L 384.48 235.212336 
L 388.538182 235.79748 
L 392.596364 236.396232 
L 396.654545 237.008592 
L 400.712727 237.628512 
L 404.770909 238.255992 
L 408.829091 238.886496 
L 412.887273 239.518512 
L 416.945455 240.147504 
L 421.003636 240.77196 
L 425.061818 241.390368 
L 429.12 241.998192 
L 433.178182 242.592408 
L 437.236364 243.169992 
L 441.294545 243.729432 
L 445.352727 244.266192 
L 449.410909 244.780272 
L 453.469091 245.265624 
L 457.527273 245.722248 
L 461.585455 246.145608 
L 465.643636 246.53268 
L 469.701818 246.881952 
L 473.76 247.1904 
L 477.818182 247.456512 
L 481.876364 247.675752 
L 485.934545 247.849632 
L 489.992727 247.975128 
L 494.050909 248.050728 
L 498.109091 248.07492 
" clip-path="url(#p5b2967a069)" style="fill: none; stroke: #000000; stroke-opacity: 0.5; stroke-linecap: square"/>
   </g>
   <g id="line2d_20">
    <path d="M 92.290909 177.596064 
L 96.349091 177.612696 
L 100.407273 177.659568 
L 104.465455 177.733656 
L 108.523636 177.833448 
L 112.581818 177.949872 
L 116.64 178.07688 
L 120.698182 178.209936 
L 124.756364 178.339968 
L 128.814545 178.460928 
L 132.872727 178.566768 
L 136.930909 178.65144 
L 140.989091 178.71192 
L 145.047273 178.740648 
L 149.105455 178.736112 
L 153.163636 178.695288 
L 157.221818 178.612128 
L 161.28 178.486632 
L 165.338182 178.317288 
L 169.396364 178.09956 
L 173.454545 177.83496 
L 177.512727 177.521976 
L 181.570909 177.159096 
L 185.629091 176.747832 
L 189.687273 176.28516 
L 193.745455 175.774104 
L 197.803636 175.214664 
L 201.861818 174.60684 
L 205.92 173.953656 
L 209.978182 173.2536 
L 214.036364 172.508184 
L 218.094545 171.721944 
L 222.152727 170.89488 
L 226.210909 170.028504 
L 230.269091 169.12584 
L 234.327273 168.191424 
L 238.385455 167.22828 
L 242.443636 166.239432 
L 246.501818 165.236976 
L 250.56 164.229984 
L 254.618182 163.242648 
L 258.676364 162.32184 
L 262.734545 161.561304 
L 266.792727 161.139456 
L 270.850909 161.231688 
L 274.909091 161.779032 
L 278.967273 162.575856 
L 283.025455 163.47852 
L 287.083636 164.418984 
L 291.141818 165.362472 
L 295.2 166.29084 
L 299.258182 167.191992 
L 303.316364 168.05988 
L 307.374545 168.888456 
L 311.432727 169.673184 
L 315.490909 170.412552 
L 319.549091 171.102024 
L 323.607273 171.738576 
L 327.665455 172.322208 
L 331.723636 172.849896 
L 335.781818 173.320128 
L 339.84 173.731392 
L 343.898182 174.0852 
L 347.956364 174.377016 
L 352.014545 174.611376 
L 356.072727 174.783744 
L 360.130909 174.898656 
L 364.189091 174.953088 
L 368.247273 174.950064 
L 372.305455 174.891096 
L 376.363636 174.776184 
L 380.421818 174.608352 
L 384.48 174.3876 
L 388.538182 174.11544 
L 392.596364 173.794896 
L 396.654545 173.42748 
L 400.712727 173.014704 
L 404.770909 172.55808 
L 408.829091 172.05912 
L 412.887273 171.520848 
L 416.945455 170.946288 
L 421.003636 170.333928 
L 425.061818 169.686792 
L 429.12 169.007904 
L 433.178182 168.297264 
L 437.236364 167.556384 
L 441.294545 166.7898 
L 445.352727 165.996 
L 449.410909 165.17952 
L 453.469091 164.341872 
L 457.527273 163.48608 
L 461.585455 162.613656 
L 465.643636 161.730648 
L 469.701818 160.84008 
L 473.76 159.954048 
L 477.818182 159.080112 
L 481.876364 158.240952 
L 485.934545 157.466808 
L 489.992727 156.809088 
L 494.050909 156.350952 
L 498.109091 156.18312 
" clip-path="url(#p5b2967a069)" style="fill: none; stroke: #000000; stroke-opacity: 0.5; stroke-linecap: square"/>
   </g>
   <g id="line2d_21">
    <path d="M 92.290909 159.334128 
L 96.349091 159.281208 
L 100.407273 159.12396 
L 104.465455 158.862384 
L 108.523636 158.50404 
L 112.581818 158.053464 
L 116.64 157.516704 
L 120.698182 156.898296 
L 124.756364 156.208824 
L 128.814545 155.451312 
L 132.872727 154.631808 
L 136.930909 153.754848 
L 140.989091 152.827992 
L 145.047273 151.852752 
L 149.105455 150.833664 
L 153.163636 149.77224 
L 157.221818 148.674528 
L 161.28 147.540528 
L 165.338182 146.374776 
L 169.396364 145.177272 
L 173.454545 143.95104 
L 177.512727 142.69608 
L 181.570909 141.416928 
L 185.629091 140.112072 
L 189.687273 138.784536 
L 193.745455 137.435832 
L 197.803636 136.072008 
L 201.861818 136.573992 
L 205.92 137.921184 
L 209.978182 139.283496 
L 214.036364 140.651856 
L 218.094545 142.02324 
L 222.152727 143.3916 
L 226.210909 144.753912 
L 230.269091 146.10564 
L 234.327273 147.442248 
L 238.385455 148.760712 
L 242.443636 150.05196 
L 246.501818 151.309944 
L 250.56 152.521056 
L 254.618182 153.661104 
L 258.676364 154.684728 
L 262.734545 155.49516 
L 266.792727 155.913984 
L 270.850909 155.764296 
L 274.909091 155.106576 
L 278.967273 154.144944 
L 283.025455 153.018504 
L 287.083636 151.799832 
L 291.141818 150.519168 
L 295.2 149.196168 
L 299.258182 147.839904 
L 303.316364 146.457936 
L 307.374545 145.053288 
L 311.432727 143.632008 
L 315.490909 142.19712 
L 319.549091 140.754672 
L 323.607273 139.3092 
L 327.665455 137.871288 
L 331.723636 136.45908 
L 335.781818 135.111888 
L 339.84 133.915896 
L 343.898182 133.031376 
L 347.956364 132.5808 
L 352.014545 132.458328 
L 356.072727 132.503688 
L 360.130909 132.627672 
L 364.189091 132.790968 
L 368.247273 132.975432 
L 372.305455 133.171992 
L 376.363636 133.376112 
L 380.421818 133.584768 
L 384.48 133.794936 
L 388.538182 134.008128 
L 392.596364 134.222832 
L 396.654545 134.437536 
L 400.712727 134.655264 
L 404.770909 134.876016 
L 408.829091 135.101304 
L 412.887273 135.33264 
L 416.945455 135.576072 
L 421.003636 135.834624 
L 425.061818 136.117368 
L 429.12 136.433376 
L 433.178182 136.79928 
L 437.236364 137.233224 
L 441.294545 137.7594 
L 445.352727 138.395952 
L 449.410909 139.148928 
L 453.469091 140.009256 
L 457.527273 140.954256 
L 461.585455 141.9552 
L 465.643636 142.989408 
L 469.701818 144.035712 
L 473.76 145.072944 
L 477.818182 146.081448 
L 481.876364 147.038544 
L 485.934545 147.906432 
L 489.992727 148.632192 
L 494.050909 149.132664 
L 498.109091 149.314104 
" clip-path="url(#p5b2967a069)" style="fill: none; stroke: #000000; stroke-opacity: 0.5; stroke-linecap: square"/>
   </g>
   <g id="line2d_22">
    <path d="M 92.290909 124.638264 
L 96.349091 124.641288 
L 100.407273 124.651872 
L 104.465455 124.668504 
L 108.523636 124.692696 
L 112.581818 124.724448 
L 116.64 124.765272 
L 120.698182 124.815168 
L 124.756364 124.875648 
L 128.814545 124.949736 
L 132.872727 125.038944 
L 136.930909 125.147808 
L 140.989091 125.279352 
L 145.047273 125.439624 
L 149.105455 125.637696 
L 153.163636 125.884152 
L 157.221818 126.195624 
L 161.28 126.588744 
L 165.338182 127.086192 
L 169.396364 127.707624 
L 173.454545 128.465136 
L 177.512727 129.358728 
L 181.570909 130.374792 
L 185.629091 131.49216 
L 189.687273 132.689664 
L 193.745455 133.943112 
L 197.803636 135.237384 
L 201.861818 134.676432 
L 205.92 133.27632 
L 209.978182 131.8626 
L 214.036364 130.445856 
L 218.094545 129.038184 
L 222.152727 127.683432 
L 226.210909 126.51012 
L 230.269091 125.808552 
L 234.327273 125.613504 
L 238.385455 125.637696 
L 242.443636 125.740512 
L 246.501818 125.878104 
L 250.56 126.035352 
L 254.618182 126.203184 
L 258.676364 126.3816 
L 262.734545 126.566064 
L 266.792727 126.758088 
L 270.850909 126.954648 
L 274.909091 127.155744 
L 278.967273 127.361376 
L 283.025455 127.571544 
L 287.083636 127.784736 
L 291.141818 127.99944 
L 295.2 128.217168 
L 299.258182 128.436408 
L 303.316364 128.655648 
L 307.374545 128.874888 
L 311.432727 129.091104 
L 315.490909 129.304296 
L 319.549091 129.508416 
L 323.607273 129.701952 
L 327.665455 129.872808 
L 331.723636 130.004352 
L 335.781818 130.058784 
L 339.84 129.952944 
L 343.898182 129.522024 
L 347.956364 128.6496 
L 352.014545 127.438488 
L 356.072727 126.051984 
L 360.130909 124.579296 
L 364.189091 123.061248 
L 368.247273 121.517496 
L 372.305455 119.961648 
L 376.363636 118.404288 
L 380.421818 116.875656 
L 384.48 115.501248 
L 388.538182 115.289568 
L 392.596364 116.474976 
L 396.654545 117.872064 
L 400.712727 119.293344 
L 404.770909 120.710088 
L 408.829091 122.111712 
L 412.887273 123.492168 
L 416.945455 124.845408 
L 421.003636 126.163872 
L 425.061818 127.44 
L 429.12 128.660184 
L 433.178182 129.807792 
L 437.236364 130.866192 
L 441.294545 131.806656 
L 445.352727 132.612552 
L 449.410909 133.274808 
L 453.469091 133.800984 
L 457.527273 134.212248 
L 461.585455 134.532792 
L 465.643636 134.783784 
L 469.701818 134.981856 
L 473.76 135.137592 
L 477.818182 135.260064 
L 481.876364 135.353808 
L 485.934545 135.424872 
L 489.992727 135.473256 
L 494.050909 135.501984 
L 498.109091 135.511056 
" clip-path="url(#p5b2967a069)" style="fill: none; stroke: #000000; stroke-opacity: 0.5; stroke-linecap: square"/>
   </g>
   <g id="line2d_23">
    <path d="M 92.290909 104.14764 
L 96.349091 104.226264 
L 100.407273 104.460624 
L 104.465455 104.84316 
L 108.523636 105.363288 
L 112.581818 106.008912 
L 116.64 106.766424 
L 120.698182 107.620704 
L 124.756364 108.558144 
L 128.814545 109.563624 
L 132.872727 110.625048 
L 136.930909 111.728808 
L 140.989091 112.862808 
L 145.047273 114.01344 
L 149.105455 115.164072 
L 153.163636 116.301096 
L 157.221818 117.404856 
L 161.28 118.449648 
L 165.338182 119.41128 
L 169.396364 120.268584 
L 173.454545 121.004928 
L 177.512727 121.6188 
L 181.570909 122.119272 
L 185.629091 122.529024 
L 189.687273 122.8662 
L 193.745455 123.148944 
L 197.803636 123.390864 
L 201.861818 123.601032 
L 205.92 123.78852 
L 209.978182 123.953328 
L 214.036364 124.093944 
L 218.094545 124.199784 
L 222.152727 124.231536 
L 226.210909 124.065216 
L 230.269091 123.409008 
L 234.327273 122.229648 
L 238.385455 120.818952 
L 242.443636 119.317536 
L 246.501818 117.767736 
L 250.56 116.189208 
L 254.618182 114.588 
L 258.676364 112.967136 
L 262.734545 111.32964 
L 266.792727 109.677024 
L 270.850909 108.0108 
L 274.909091 106.330968 
L 278.967273 104.63904 
L 283.025455 102.935016 
L 287.083636 101.218896 
L 291.141818 99.493704 
L 295.2 97.760952 
L 299.258182 96.019128 
L 303.316364 94.27428 
L 307.374545 92.530944 
L 311.432727 90.810288 
L 315.490909 89.206056 
L 319.549091 88.593696 
L 323.607273 89.779104 
L 327.665455 91.301688 
L 331.723636 92.87568 
L 335.781818 94.466304 
L 339.84 96.061464 
L 343.898182 97.655112 
L 347.956364 99.245736 
L 352.014545 100.831824 
L 356.072727 102.410352 
L 360.130909 103.98132 
L 364.189091 105.543216 
L 368.247273 107.091504 
L 372.305455 108.624672 
L 376.363636 110.13516 
L 380.421818 111.597264 
L 384.48 112.885488 
L 388.538182 112.994352 
L 392.596364 111.686472 
L 396.654545 110.151792 
L 400.712727 108.573264 
L 404.770909 106.98264 
L 408.829091 105.38748 
L 412.887273 103.793832 
L 416.945455 102.203208 
L 421.003636 100.620144 
L 425.061818 99.04464 
L 429.12 97.482744 
L 433.178182 95.935968 
L 437.236364 94.408848 
L 441.294545 92.90592 
L 445.352727 91.433232 
L 449.410909 90.001368 
L 453.469091 88.623936 
L 457.527273 87.32664 
L 461.585455 86.16996 
L 465.643636 85.279392 
L 469.701818 84.783456 
L 473.76 84.58992 
L 477.818182 84.524904 
L 481.876364 84.509784 
L 485.934545 84.511296 
L 489.992727 84.517344 
L 494.050909 84.52188 
L 498.109091 84.524904 
" clip-path="url(#p5b2967a069)" style="fill: none; stroke: #000000; stroke-opacity: 0.5; stroke-linecap: square"/>
   </g>
   <g id="patch_3">
    <path d="M 72 384.48 
L 72 51.84 
" style="fill: none; stroke: #000000; stroke-width: 0.8; stroke-linejoin: miter; stroke-linecap: square"/>
   </g>
   <g id="patch_4">
    <path d="M 518.4 384.48 
L 518.4 51.84 
" style="fill: none; stroke: #000000; stroke-width: 0.8; stroke-linejoin: miter; stroke-linecap: square"/>
   </g>
   <g id="patch_5">
    <path d="M 72 384.48 
L 518.4 384.48 
" style="fill: none; stroke: #000000; stroke-width: 0.8; stroke-linejoin: miter; stroke-linecap: square"/>
   </g>
   <g id="patch_6">
    <path d="M 72 51.84 
L 518.4 51.84 
" style="fill: none; stroke: #000000; stroke-width: 0.8; stroke-linejoin: miter; stroke-linecap: square"/>
   </g>
  </g>
 </g>
 <defs>
  <clipPath id="p5b2967a069">
   <rect x="72" y="51.84" width="446.4" height="332.64"/>
  </clipPath>
 </defs>
</svg>
