<?xml version="1.0" encoding="utf-8" standalone="no"?>
<!DOCTYPE svg PUBLIC "-//W3C//DTD SVG 1.1//EN"
  "http://www.w3.org/Graphics/SVG/1.1/DTD/svg11.dtd">
<svg xmlns:xlink="http://www.w3.org/1999/xlink" width="576pt" height="432pt" viewBox="0 0 576 432" xmlns="http://www.w3.org/2000/svg" version="1.1">
 <metadata>
  <rdf:RDF xmlns:dc="http://purl.org/dc/elements/1.1/" xmlns:cc="http://creativecommons.org/ns#" xmlns:rdf="http://www.w3.org/1999/02/22-rdf-syntax-ns#">
   <cc:Work>
    <dc:type rdf:resource="http://purl.org/dc/dcmitype/StillImage"/>
    <dc:date>2023-05-03T12:33:04.056501</dc:date>
    <dc:format>image/svg+xml</dc:format>
    <dc:creator>
     <cc:Agent>
      <dc:title>Matplotlib v3.7.1, https://matplotlib.org/</dc:title>
     </cc:Agent>
    </dc:creator>
   </cc:Work>
  </rdf:RDF>
 </metadata>
 <defs>
  <style type="text/css">*{stroke-linejoin: round; stroke-linecap: butt}</style>
 </defs>
 <g id="figure_1">
  <g id="patch_1">
   <path d="M 0 432 
L 576 432 
L 576 0 
L 0 0 
z
" style="fill: #ffffff"/>
  </g>
  <g id="axes_1">
   <g id="patch_2">
    <path d="M 72 384.48 
L 518.4 384.48 
L 518.4 51.84 
L 72 51.84 
z
" style="fill: #ffffff"/>
   </g>
   <g id="matplotlib.axis_1">
    <g id="xtick_1">
     <g id="line2d_1">
      <defs>
       <path id="m436ddb2166" d="M 0 0 
L 0 3.5 
" style="stroke: #000000; stroke-width: 0.8"/>
      </defs>
      <g>
       <use xlink:href="#m436ddb2166" x="92.290909" y="384.48" style="stroke: #000000; stroke-width: 0.8"/>
      </g>
     </g>
     <g id="text_1">
      <!-- 0.0 -->
      <g transform="translate(84.339347 399.078438) scale(0.1 -0.1)">
       <defs>
        <path id="DejaVuSans-30" d="M 2034 4250 
Q 1547 4250 1301 3770 
Q 1056 3291 1056 2328 
Q 1056 1369 1301 889 
Q 1547 409 2034 409 
Q 2525 409 2770 889 
Q 3016 1369 3016 2328 
Q 3016 3291 2770 3770 
Q 2525 4250 2034 4250 
z
M 2034 4750 
Q 2819 4750 3233 4129 
Q 3647 3509 3647 2328 
Q 3647 1150 3233 529 
Q 2819 -91 2034 -91 
Q 1250 -91 836 529 
Q 422 1150 422 2328 
Q 422 3509 836 4129 
Q 1250 4750 2034 4750 
z
" transform="scale(0.015625)"/>
        <path id="DejaVuSans-2e" d="M 684 794 
L 1344 794 
L 1344 0 
L 684 0 
L 684 794 
z
" transform="scale(0.015625)"/>
       </defs>
       <use xlink:href="#DejaVuSans-30"/>
       <use xlink:href="#DejaVuSans-2e" x="63.623047"/>
       <use xlink:href="#DejaVuSans-30" x="95.410156"/>
      </g>
     </g>
    </g>
    <g id="xtick_2">
     <g id="line2d_2">
      <g>
       <use xlink:href="#m436ddb2166" x="173.454545" y="384.48" style="stroke: #000000; stroke-width: 0.8"/>
      </g>
     </g>
     <g id="text_2">
      <!-- 0.2 -->
      <g transform="translate(165.502983 399.078438) scale(0.1 -0.1)">
       <defs>
        <path id="DejaVuSans-32" d="M 1228 531 
L 3431 531 
L 3431 0 
L 469 0 
L 469 531 
Q 828 903 1448 1529 
Q 2069 2156 2228 2338 
Q 2531 2678 2651 2914 
Q 2772 3150 2772 3378 
Q 2772 3750 2511 3984 
Q 2250 4219 1831 4219 
Q 1534 4219 1204 4116 
Q 875 4013 500 3803 
L 500 4441 
Q 881 4594 1212 4672 
Q 1544 4750 1819 4750 
Q 2544 4750 2975 4387 
Q 3406 4025 3406 3419 
Q 3406 3131 3298 2873 
Q 3191 2616 2906 2266 
Q 2828 2175 2409 1742 
Q 1991 1309 1228 531 
z
" transform="scale(0.015625)"/>
       </defs>
       <use xlink:href="#DejaVuSans-30"/>
       <use xlink:href="#DejaVuSans-2e" x="63.623047"/>
       <use xlink:href="#DejaVuSans-32" x="95.410156"/>
      </g>
     </g>
    </g>
    <g id="xtick_3">
     <g id="line2d_3">
      <g>
       <use xlink:href="#m436ddb2166" x="254.618182" y="384.48" style="stroke: #000000; stroke-width: 0.8"/>
      </g>
     </g>
     <g id="text_3">
      <!-- 0.4 -->
      <g transform="translate(246.666619 399.078438) scale(0.1 -0.1)">
       <defs>
        <path id="DejaVuSans-34" d="M 2419 4116 
L 825 1625 
L 2419 1625 
L 2419 4116 
z
M 2253 4666 
L 3047 4666 
L 3047 1625 
L 3713 1625 
L 3713 1100 
L 3047 1100 
L 3047 0 
L 2419 0 
L 2419 1100 
L 313 1100 
L 313 1709 
L 2253 4666 
z
" transform="scale(0.015625)"/>
       </defs>
       <use xlink:href="#DejaVuSans-30"/>
       <use xlink:href="#DejaVuSans-2e" x="63.623047"/>
       <use xlink:href="#DejaVuSans-34" x="95.410156"/>
      </g>
     </g>
    </g>
    <g id="xtick_4">
     <g id="line2d_4">
      <g>
       <use xlink:href="#m436ddb2166" x="335.781818" y="384.48" style="stroke: #000000; stroke-width: 0.8"/>
      </g>
     </g>
     <g id="text_4">
      <!-- 0.6 -->
      <g transform="translate(327.830256 399.078438) scale(0.1 -0.1)">
       <defs>
        <path id="DejaVuSans-36" d="M 2113 2584 
Q 1688 2584 1439 2293 
Q 1191 2003 1191 1497 
Q 1191 994 1439 701 
Q 1688 409 2113 409 
Q 2538 409 2786 701 
Q 3034 994 3034 1497 
Q 3034 2003 2786 2293 
Q 2538 2584 2113 2584 
z
M 3366 4563 
L 3366 3988 
Q 3128 4100 2886 4159 
Q 2644 4219 2406 4219 
Q 1781 4219 1451 3797 
Q 1122 3375 1075 2522 
Q 1259 2794 1537 2939 
Q 1816 3084 2150 3084 
Q 2853 3084 3261 2657 
Q 3669 2231 3669 1497 
Q 3669 778 3244 343 
Q 2819 -91 2113 -91 
Q 1303 -91 875 529 
Q 447 1150 447 2328 
Q 447 3434 972 4092 
Q 1497 4750 2381 4750 
Q 2619 4750 2861 4703 
Q 3103 4656 3366 4563 
z
" transform="scale(0.015625)"/>
       </defs>
       <use xlink:href="#DejaVuSans-30"/>
       <use xlink:href="#DejaVuSans-2e" x="63.623047"/>
       <use xlink:href="#DejaVuSans-36" x="95.410156"/>
      </g>
     </g>
    </g>
    <g id="xtick_5">
     <g id="line2d_5">
      <g>
       <use xlink:href="#m436ddb2166" x="416.945455" y="384.48" style="stroke: #000000; stroke-width: 0.8"/>
      </g>
     </g>
     <g id="text_5">
      <!-- 0.8 -->
      <g transform="translate(408.993892 399.078438) scale(0.1 -0.1)">
       <defs>
        <path id="DejaVuSans-38" d="M 2034 2216 
Q 1584 2216 1326 1975 
Q 1069 1734 1069 1313 
Q 1069 891 1326 650 
Q 1584 409 2034 409 
Q 2484 409 2743 651 
Q 3003 894 3003 1313 
Q 3003 1734 2745 1975 
Q 2488 2216 2034 2216 
z
M 1403 2484 
Q 997 2584 770 2862 
Q 544 3141 544 3541 
Q 544 4100 942 4425 
Q 1341 4750 2034 4750 
Q 2731 4750 3128 4425 
Q 3525 4100 3525 3541 
Q 3525 3141 3298 2862 
Q 3072 2584 2669 2484 
Q 3125 2378 3379 2068 
Q 3634 1759 3634 1313 
Q 3634 634 3220 271 
Q 2806 -91 2034 -91 
Q 1263 -91 848 271 
Q 434 634 434 1313 
Q 434 1759 690 2068 
Q 947 2378 1403 2484 
z
M 1172 3481 
Q 1172 3119 1398 2916 
Q 1625 2713 2034 2713 
Q 2441 2713 2670 2916 
Q 2900 3119 2900 3481 
Q 2900 3844 2670 4047 
Q 2441 4250 2034 4250 
Q 1625 4250 1398 4047 
Q 1172 3844 1172 3481 
z
" transform="scale(0.015625)"/>
       </defs>
       <use xlink:href="#DejaVuSans-30"/>
       <use xlink:href="#DejaVuSans-2e" x="63.623047"/>
       <use xlink:href="#DejaVuSans-38" x="95.410156"/>
      </g>
     </g>
    </g>
    <g id="xtick_6">
     <g id="line2d_6">
      <g>
       <use xlink:href="#m436ddb2166" x="498.109091" y="384.48" style="stroke: #000000; stroke-width: 0.8"/>
      </g>
     </g>
     <g id="text_6">
      <!-- 1.0 -->
      <g transform="translate(490.157528 399.078438) scale(0.1 -0.1)">
       <defs>
        <path id="DejaVuSans-31" d="M 794 531 
L 1825 531 
L 1825 4091 
L 703 3866 
L 703 4441 
L 1819 4666 
L 2450 4666 
L 2450 531 
L 3481 531 
L 3481 0 
L 794 0 
L 794 531 
z
" transform="scale(0.015625)"/>
       </defs>
       <use xlink:href="#DejaVuSans-31"/>
       <use xlink:href="#DejaVuSans-2e" x="63.623047"/>
       <use xlink:href="#DejaVuSans-30" x="95.410156"/>
      </g>
     </g>
    </g>
   </g>
   <g id="matplotlib.axis_2">
    <g id="ytick_1">
     <g id="line2d_7">
      <defs>
       <path id="meab65d4d4f" d="M 0 0 
L -3.5 0 
" style="stroke: #000000; stroke-width: 0.8"/>
      </defs>
      <g>
       <use xlink:href="#meab65d4d4f" x="72" y="369.36" style="stroke: #000000; stroke-width: 0.8"/>
      </g>
     </g>
     <g id="text_7">
      <!-- −5.0 -->
      <g transform="translate(40.717187 373.159219) scale(0.1 -0.1)">
       <defs>
        <path id="DejaVuSans-2212" d="M 678 2272 
L 4684 2272 
L 4684 1741 
L 678 1741 
L 678 2272 
z
" transform="scale(0.015625)"/>
        <path id="DejaVuSans-35" d="M 691 4666 
L 3169 4666 
L 3169 4134 
L 1269 4134 
L 1269 2991 
Q 1406 3038 1543 3061 
Q 1681 3084 1819 3084 
Q 2600 3084 3056 2656 
Q 3513 2228 3513 1497 
Q 3513 744 3044 326 
Q 2575 -91 1722 -91 
Q 1428 -91 1123 -41 
Q 819 9 494 109 
L 494 744 
Q 775 591 1075 516 
Q 1375 441 1709 441 
Q 2250 441 2565 725 
Q 2881 1009 2881 1497 
Q 2881 1984 2565 2268 
Q 2250 2553 1709 2553 
Q 1456 2553 1204 2497 
Q 953 2441 691 2322 
L 691 4666 
z
" transform="scale(0.015625)"/>
       </defs>
       <use xlink:href="#DejaVuSans-2212"/>
       <use xlink:href="#DejaVuSans-35" x="83.789062"/>
       <use xlink:href="#DejaVuSans-2e" x="147.412109"/>
       <use xlink:href="#DejaVuSans-30" x="179.199219"/>
      </g>
     </g>
    </g>
    <g id="ytick_2">
     <g id="line2d_8">
      <g>
       <use xlink:href="#meab65d4d4f" x="72" y="331.56" style="stroke: #000000; stroke-width: 0.8"/>
      </g>
     </g>
     <g id="text_8">
      <!-- −2.5 -->
      <g transform="translate(40.717187 335.359219) scale(0.1 -0.1)">
       <use xlink:href="#DejaVuSans-2212"/>
       <use xlink:href="#DejaVuSans-32" x="83.789062"/>
       <use xlink:href="#DejaVuSans-2e" x="147.412109"/>
       <use xlink:href="#DejaVuSans-35" x="179.199219"/>
      </g>
     </g>
    </g>
    <g id="ytick_3">
     <g id="line2d_9">
      <g>
       <use xlink:href="#meab65d4d4f" x="72" y="293.76" style="stroke: #000000; stroke-width: 0.8"/>
      </g>
     </g>
     <g id="text_9">
      <!-- 0.0 -->
      <g transform="translate(49.096875 297.559219) scale(0.1 -0.1)">
       <use xlink:href="#DejaVuSans-30"/>
       <use xlink:href="#DejaVuSans-2e" x="63.623047"/>
       <use xlink:href="#DejaVuSans-30" x="95.410156"/>
      </g>
     </g>
    </g>
    <g id="ytick_4">
     <g id="line2d_10">
      <g>
       <use xlink:href="#meab65d4d4f" x="72" y="255.96" style="stroke: #000000; stroke-width: 0.8"/>
      </g>
     </g>
     <g id="text_10">
      <!-- 2.5 -->
      <g transform="translate(49.096875 259.759219) scale(0.1 -0.1)">
       <use xlink:href="#DejaVuSans-32"/>
       <use xlink:href="#DejaVuSans-2e" x="63.623047"/>
       <use xlink:href="#DejaVuSans-35" x="95.410156"/>
      </g>
     </g>
    </g>
    <g id="ytick_5">
     <g id="line2d_11">
      <g>
       <use xlink:href="#meab65d4d4f" x="72" y="218.16" style="stroke: #000000; stroke-width: 0.8"/>
      </g>
     </g>
     <g id="text_11">
      <!-- 5.0 -->
      <g transform="translate(49.096875 221.959219) scale(0.1 -0.1)">
       <use xlink:href="#DejaVuSans-35"/>
       <use xlink:href="#DejaVuSans-2e" x="63.623047"/>
       <use xlink:href="#DejaVuSans-30" x="95.410156"/>
      </g>
     </g>
    </g>
    <g id="ytick_6">
     <g id="line2d_12">
      <g>
       <use xlink:href="#meab65d4d4f" x="72" y="180.36" style="stroke: #000000; stroke-width: 0.8"/>
      </g>
     </g>
     <g id="text_12">
      <!-- 7.5 -->
      <g transform="translate(49.096875 184.159219) scale(0.1 -0.1)">
       <defs>
        <path id="DejaVuSans-37" d="M 525 4666 
L 3525 4666 
L 3525 4397 
L 1831 0 
L 1172 0 
L 2766 4134 
L 525 4134 
L 525 4666 
z
" transform="scale(0.015625)"/>
       </defs>
       <use xlink:href="#DejaVuSans-37"/>
       <use xlink:href="#DejaVuSans-2e" x="63.623047"/>
       <use xlink:href="#DejaVuSans-35" x="95.410156"/>
      </g>
     </g>
    </g>
    <g id="ytick_7">
     <g id="line2d_13">
      <g>
       <use xlink:href="#meab65d4d4f" x="72" y="142.56" style="stroke: #000000; stroke-width: 0.8"/>
      </g>
     </g>
     <g id="text_13">
      <!-- 10.0 -->
      <g transform="translate(42.734375 146.359219) scale(0.1 -0.1)">
       <use xlink:href="#DejaVuSans-31"/>
       <use xlink:href="#DejaVuSans-30" x="63.623047"/>
       <use xlink:href="#DejaVuSans-2e" x="127.246094"/>
       <use xlink:href="#DejaVuSans-30" x="159.033203"/>
      </g>
     </g>
    </g>
    <g id="ytick_8">
     <g id="line2d_14">
      <g>
       <use xlink:href="#meab65d4d4f" x="72" y="104.76" style="stroke: #000000; stroke-width: 0.8"/>
      </g>
     </g>
     <g id="text_14">
      <!-- 12.5 -->
      <g transform="translate(42.734375 108.559219) scale(0.1 -0.1)">
       <use xlink:href="#DejaVuSans-31"/>
       <use xlink:href="#DejaVuSans-32" x="63.623047"/>
       <use xlink:href="#DejaVuSans-2e" x="127.246094"/>
       <use xlink:href="#DejaVuSans-35" x="159.033203"/>
      </g>
     </g>
    </g>
    <g id="ytick_9">
     <g id="line2d_15">
      <g>
       <use xlink:href="#meab65d4d4f" x="72" y="66.96" style="stroke: #000000; stroke-width: 0.8"/>
      </g>
     </g>
     <g id="text_15">
      <!-- 15.0 -->
      <g transform="translate(42.734375 70.759219) scale(0.1 -0.1)">
       <use xlink:href="#DejaVuSans-31"/>
       <use xlink:href="#DejaVuSans-35" x="63.623047"/>
       <use xlink:href="#DejaVuSans-2e" x="127.246094"/>
       <use xlink:href="#DejaVuSans-30" x="159.033203"/>
      </g>
     </g>
    </g>
   </g>
   <g id="line2d_16">
    <path d="M 92.290909 366.10164 
L 96.349091 366.095592 
L 100.407273 366.077448 
L 104.465455 366.04872 
L 108.523636 366.007896 
L 112.581818 365.954976 
L 116.64 365.88996 
L 120.698182 365.812848 
L 124.756364 365.725152 
L 128.814545 365.62536 
L 132.872727 365.513472 
L 136.930909 365.391 
L 140.989091 365.256432 
L 145.047273 365.109768 
L 149.105455 364.951008 
L 153.163636 364.781664 
L 157.221818 364.601736 
L 161.28 364.4082 
L 165.338182 364.20408 
L 169.396364 363.989376 
L 173.454545 363.762576 
L 177.512727 363.52368 
L 181.570909 363.2742 
L 185.629091 363.012624 
L 189.687273 362.740464 
L 193.745455 362.45772 
L 197.803636 362.16288 
L 201.861818 361.857456 
L 205.92 361.541448 
L 209.978182 361.213344 
L 214.036364 360.876168 
L 218.094545 360.526896 
L 222.152727 360.16704 
L 226.210909 359.7966 
L 230.269091 359.415576 
L 234.327273 359.023968 
L 238.385455 358.621776 
L 242.443636 358.209 
L 246.501818 357.78564 
L 250.56 357.353208 
L 254.618182 356.910192 
L 258.676364 356.458104 
L 262.734545 355.995432 
L 266.792727 355.523688 
L 270.850909 355.04136 
L 274.909091 354.54996 
L 278.967273 354.049488 
L 283.025455 353.539944 
L 287.083636 353.021328 
L 291.141818 352.49364 
L 295.2 351.95688 
L 299.258182 351.41256 
L 303.316364 350.859168 
L 307.374545 350.298216 
L 311.432727 349.728192 
L 315.490909 349.15212 
L 319.549091 348.566976 
L 323.607273 347.974272 
L 327.665455 347.37552 
L 331.723636 346.767696 
L 335.781818 346.155336 
L 339.84 345.535416 
L 343.898182 344.909448 
L 347.956364 344.278944 
L 352.014545 343.64088 
L 356.072727 342.99828 
L 360.130909 342.351144 
L 364.189091 341.699472 
L 368.247273 341.043264 
L 372.305455 340.38252 
L 376.363636 339.718752 
L 380.421818 339.05196 
L 384.48 338.382144 
L 388.538182 337.710816 
L 392.596364 337.036464 
L 396.654545 336.362112 
L 400.712727 335.68776 
L 404.770909 335.011896 
L 408.829091 334.337544 
L 412.887273 333.663192 
L 416.945455 332.991864 
L 421.003636 332.32356 
L 425.061818 331.659792 
L 429.12 331.00056 
L 433.178182 330.345864 
L 437.236364 329.70024 
L 441.294545 329.063688 
L 445.352727 328.436208 
L 449.410909 327.823848 
L 453.469091 327.225096 
L 457.527273 326.646 
L 461.585455 326.089584 
L 465.643636 325.558872 
L 469.701818 325.059912 
L 473.76 324.600264 
L 477.818182 324.187488 
L 481.876364 323.829144 
L 485.934545 323.535816 
L 489.992727 323.318088 
L 494.050909 323.18352 
L 498.109091 323.136648 
" clip-path="url(#paed1b18fa9)" style="fill: none; stroke: #000000; stroke-opacity: 0.5; stroke-linecap: square"/>
   </g>
   <g id="line2d_17">
    <path d="M 92.290909 255.91464 
L 96.349091 255.946392 
L 100.407273 256.041648 
L 104.465455 256.197384 
L 108.523636 256.412088 
L 112.581818 256.682736 
L 116.64 257.006304 
L 120.698182 257.379768 
L 124.756364 257.798592 
L 128.814545 258.256728 
L 132.872727 258.752664 
L 136.930909 259.283376 
L 140.989091 259.842816 
L 145.047273 260.429472 
L 149.105455 261.038808 
L 153.163636 261.670824 
L 157.221818 262.319472 
L 161.28 262.984752 
L 165.338182 263.66364 
L 169.396364 264.354624 
L 173.454545 265.056192 
L 177.512727 265.766832 
L 181.570909 266.485032 
L 185.629091 267.20928 
L 189.687273 267.938064 
L 193.745455 268.669872 
L 197.803636 269.406216 
L 201.861818 270.144072 
L 205.92 270.88344 
L 209.978182 271.62432 
L 214.036364 272.363688 
L 218.094545 273.104568 
L 222.152727 273.842424 
L 226.210909 274.58028 
L 230.269091 275.315112 
L 234.327273 276.04692 
L 238.385455 276.777216 
L 242.443636 277.504488 
L 246.501818 278.227224 
L 250.56 278.946936 
L 254.618182 279.662112 
L 258.676364 280.374264 
L 262.734545 281.08188 
L 266.792727 281.783448 
L 270.850909 282.481992 
L 274.909091 283.174488 
L 278.967273 283.86396 
L 283.025455 284.545872 
L 287.083636 285.22476 
L 291.141818 285.8976 
L 295.2 286.565904 
L 299.258182 287.22816 
L 303.316364 287.884368 
L 307.374545 288.537552 
L 311.432727 289.184688 
L 315.490909 289.825776 
L 319.549091 290.462328 
L 323.607273 291.094344 
L 327.665455 291.720312 
L 331.723636 292.341744 
L 335.781818 292.95864 
L 339.84 293.571 
L 343.898182 294.178824 
L 347.956364 294.782112 
L 352.014545 295.380864 
L 356.072727 295.97508 
L 360.130909 296.566272 
L 364.189091 297.152928 
L 368.247273 297.73656 
L 372.305455 298.317168 
L 376.363636 298.89324 
L 380.421818 299.466288 
L 384.48 300.037824 
L 388.538182 300.604824 
L 392.596364 301.170312 
L 396.654545 301.732776 
L 400.712727 302.292216 
L 404.770909 302.850144 
L 408.829091 303.40656 
L 412.887273 303.95844 
L 416.945455 304.508808 
L 421.003636 305.057664 
L 425.061818 305.601984 
L 429.12 306.144792 
L 433.178182 306.683064 
L 437.236364 307.2168 
L 441.294545 307.746 
L 445.352727 308.26764 
L 449.410909 308.78172 
L 453.469091 309.286728 
L 457.527273 309.778128 
L 461.585455 310.254408 
L 465.643636 310.711032 
L 469.701818 311.143464 
L 473.76 311.545656 
L 477.818182 311.908536 
L 481.876364 312.226056 
L 485.934545 312.48612 
L 489.992727 312.681168 
L 494.050909 312.802128 
L 498.109091 312.844464 
" clip-path="url(#paed1b18fa9)" style="fill: none; stroke: #000000; stroke-opacity: 0.5; stroke-linecap: square"/>
   </g>
   <g id="line2d_18">
    <path d="M 92.290909 232.527024 
L 96.349091 232.505856 
L 100.407273 232.44084 
L 104.465455 232.335 
L 108.523636 232.195896 
L 112.581818 232.034112 
L 116.64 231.869304 
L 120.698182 231.746832 
L 124.756364 231.734736 
L 128.814545 231.878376 
L 132.872727 232.149024 
L 136.930909 232.50132 
L 140.989091 232.906536 
L 145.047273 233.354088 
L 149.105455 233.83188 
L 153.163636 234.336888 
L 157.221818 234.866088 
L 161.28 235.414944 
L 165.338182 235.980432 
L 169.396364 236.559528 
L 173.454545 237.153744 
L 177.512727 237.758544 
L 181.570909 238.372416 
L 185.629091 238.993848 
L 189.687273 239.62284 
L 193.745455 240.254856 
L 197.803636 240.89292 
L 201.861818 241.532496 
L 205.92 242.173584 
L 209.978182 242.816184 
L 214.036364 243.458784 
L 218.094545 244.099872 
L 222.152727 244.737936 
L 226.210909 245.374488 
L 230.269091 246.008016 
L 234.327273 246.637008 
L 238.385455 247.261464 
L 242.443636 247.879872 
L 246.501818 248.493744 
L 250.56 249.100056 
L 254.618182 249.701832 
L 258.676364 250.294536 
L 262.734545 250.87968 
L 266.792727 251.457264 
L 270.850909 252.027288 
L 274.909091 252.58824 
L 278.967273 253.138608 
L 283.025455 253.681416 
L 287.083636 254.212128 
L 291.141818 254.73528 
L 295.2 255.246336 
L 299.258182 255.746808 
L 303.316364 256.236696 
L 307.374545 256.714488 
L 311.432727 257.181696 
L 315.490909 257.635296 
L 319.549091 258.078312 
L 323.607273 258.509232 
L 327.665455 258.926544 
L 331.723636 259.33176 
L 335.781818 259.723368 
L 339.84 260.101368 
L 343.898182 260.46576 
L 347.956364 260.818056 
L 352.014545 261.15372 
L 356.072727 261.477288 
L 360.130909 261.785736 
L 364.189091 262.079064 
L 368.247273 262.357272 
L 372.305455 262.62036 
L 376.363636 262.868328 
L 380.421818 263.101176 
L 384.48 263.318904 
L 388.538182 263.52 
L 392.596364 263.704464 
L 396.654545 263.873808 
L 400.712727 264.02652 
L 404.770909 264.1626 
L 408.829091 264.282048 
L 412.887273 264.386376 
L 416.945455 264.474072 
L 421.003636 264.543624 
L 425.061818 264.599568 
L 429.12 264.63888 
L 433.178182 264.66156 
L 437.236364 264.670632 
L 441.294545 264.664584 
L 445.352727 264.644928 
L 449.410909 264.613176 
L 453.469091 264.569328 
L 457.527273 264.516408 
L 461.585455 264.454416 
L 465.643636 264.386376 
L 469.701818 264.315312 
L 473.76 264.244248 
L 477.818182 264.176208 
L 481.876364 264.112704 
L 485.934545 264.059784 
L 489.992727 264.01896 
L 494.050909 263.993256 
L 498.109091 263.984184 
" clip-path="url(#paed1b18fa9)" style="fill: none; stroke: #000000; stroke-opacity: 0.5; stroke-linecap: square"/>
   </g>
   <g id="line2d_19">
    <path d="M 92.290909 229.589208 
L 96.349091 229.608864 
L 100.407273 229.667832 
L 104.465455 229.7646 
L 108.523636 229.89312 
L 112.581818 230.045832 
L 116.64 230.201568 
L 120.698182 230.319504 
L 124.756364 230.333112 
L 128.814545 230.200056 
L 132.872727 229.949064 
L 136.930909 229.627008 
L 140.989091 229.264128 
L 145.047273 228.87252 
L 149.105455 228.465792 
L 153.163636 228.045456 
L 157.221818 227.61756 
L 161.28 227.18664 
L 165.338182 226.75572 
L 169.396364 226.3248 
L 173.454545 225.898416 
L 177.512727 225.47808 
L 181.570909 225.065304 
L 185.629091 224.6616 
L 189.687273 224.269992 
L 193.745455 223.89048 
L 197.803636 223.526088 
L 201.861818 223.176816 
L 205.92 222.845688 
L 209.978182 222.532704 
L 214.036364 222.240888 
L 218.094545 221.971752 
L 222.152727 221.725296 
L 226.210909 221.504544 
L 230.269091 221.311008 
L 234.327273 221.1462 
L 238.385455 221.011632 
L 242.443636 220.908816 
L 246.501818 220.839264 
L 250.56 220.804488 
L 254.618182 220.806 
L 258.676364 220.845312 
L 262.734545 220.923936 
L 266.792727 221.043384 
L 270.850909 221.202144 
L 274.909091 221.404752 
L 278.967273 221.649696 
L 283.025455 221.936976 
L 287.083636 222.266592 
L 291.141818 222.638544 
L 295.2 223.052832 
L 299.258182 223.507944 
L 303.316364 224.002368 
L 307.374545 224.534592 
L 311.432727 225.104616 
L 315.490909 225.710928 
L 319.549091 226.348992 
L 323.607273 227.017296 
L 327.665455 227.71584 
L 331.723636 228.440088 
L 335.781818 229.188528 
L 339.84 229.958136 
L 343.898182 230.748912 
L 347.956364 231.55632 
L 352.014545 232.378848 
L 356.072727 233.213472 
L 360.130909 234.057168 
L 364.189091 234.911448 
L 368.247273 235.770264 
L 372.305455 236.633616 
L 376.363636 237.499992 
L 380.421818 238.364856 
L 384.48 239.228208 
L 388.538182 240.090048 
L 392.596364 240.944328 
L 396.654545 241.79256 
L 400.712727 242.63172 
L 404.770909 243.461808 
L 408.829091 244.278288 
L 412.887273 245.082672 
L 416.945455 245.871936 
L 421.003636 246.644568 
L 425.061818 247.399056 
L 429.12 248.133888 
L 433.178182 248.84604 
L 437.236364 249.537024 
L 441.294545 250.202304 
L 445.352727 250.840368 
L 449.410909 251.449704 
L 453.469091 252.0288 
L 457.527273 252.57312 
L 461.585455 253.082664 
L 465.643636 253.552896 
L 469.701818 253.980792 
L 473.76 254.361816 
L 477.818182 254.694456 
L 481.876364 254.974176 
L 485.934545 255.19644 
L 489.992727 255.356712 
L 494.050909 255.454992 
L 498.109091 255.488256 
" clip-path="url(#paed1b18fa9)" style="fill: none; stroke: #000000; stroke-opacity: 0.5; stroke-linecap: square"/>
   </g>
   <g id="line2d_20">
    <path d="M 92.290909 183.086136 
L 96.349091 183.055896 
L 100.407273 182.963664 
L 104.465455 182.810952 
L 108.523636 182.59776 
L 112.581818 182.3256 
L 116.64 181.997496 
L 120.698182 181.611936 
L 124.756364 181.173456 
L 128.814545 180.682056 
L 132.872727 180.142272 
L 136.930909 179.552592 
L 140.989091 178.917552 
L 145.047273 178.240176 
L 149.105455 177.518952 
L 153.163636 176.759928 
L 157.221818 175.961592 
L 161.28 175.126968 
L 165.338182 174.25908 
L 169.396364 173.35944 
L 173.454545 172.428048 
L 177.512727 171.467928 
L 181.570909 170.480592 
L 185.629091 169.467552 
L 189.687273 168.43032 
L 193.745455 167.373432 
L 197.803636 166.296888 
L 201.861818 165.206736 
L 205.92 164.104488 
L 209.978182 163.00224 
L 214.036364 161.909064 
L 218.094545 160.853688 
L 222.152727 159.882984 
L 226.210909 159.102792 
L 230.269091 158.679432 
L 234.327273 158.726304 
L 238.385455 159.13152 
L 242.443636 159.7212 
L 246.501818 160.384968 
L 250.56 161.068392 
L 254.618182 161.744256 
L 258.676364 162.39744 
L 262.734545 163.018872 
L 266.792727 163.600992 
L 270.850909 164.140776 
L 274.909091 164.633688 
L 278.967273 165.078216 
L 283.025455 165.469824 
L 287.083636 165.810024 
L 291.141818 166.097304 
L 295.2 166.330152 
L 299.258182 166.508568 
L 303.316364 166.634064 
L 307.374545 166.705128 
L 311.432727 166.723272 
L 315.490909 166.690008 
L 319.549091 166.605336 
L 323.607273 166.47228 
L 327.665455 166.29084 
L 331.723636 166.062528 
L 335.781818 165.790368 
L 339.84 165.475872 
L 343.898182 165.117528 
L 347.956364 164.721384 
L 352.014545 164.28744 
L 356.072727 163.815696 
L 360.130909 163.309176 
L 364.189091 162.770904 
L 368.247273 162.199368 
L 372.305455 161.599104 
L 376.363636 160.9686 
L 380.421818 160.312392 
L 384.48 159.628968 
L 388.538182 158.921352 
L 392.596364 158.192568 
L 396.654545 157.441104 
L 400.712727 156.671496 
L 404.770909 155.885256 
L 408.829091 155.083896 
L 412.887273 154.273464 
L 416.945455 153.455472 
L 421.003636 152.638992 
L 425.061818 151.834608 
L 429.12 151.05744 
L 433.178182 150.336216 
L 437.236364 149.710248 
L 441.294545 149.218848 
L 445.352727 148.883184 
L 449.410909 148.685112 
L 453.469091 148.582296 
L 457.527273 148.53996 
L 461.585455 148.5324 
L 465.643636 148.544496 
L 469.701818 148.565664 
L 473.76 148.591368 
L 477.818182 148.617072 
L 481.876364 148.641264 
L 485.934545 148.659408 
L 489.992727 148.674528 
L 494.050909 148.6836 
L 498.109091 148.686624 
" clip-path="url(#paed1b18fa9)" style="fill: none; stroke: #000000; stroke-opacity: 0.5; stroke-linecap: square"/>
   </g>
   <g id="line2d_21">
    <path d="M 92.290909 153.086544 
L 96.349091 153.063864 
L 100.407273 152.995824 
L 104.465455 152.882424 
L 108.523636 152.725176 
L 112.581818 152.522568 
L 116.64 152.277624 
L 120.698182 151.988832 
L 124.756364 151.657704 
L 128.814545 151.287264 
L 132.872727 150.876 
L 136.930909 150.428448 
L 140.989091 149.94612 
L 145.047273 149.430528 
L 149.105455 148.889232 
L 153.163636 148.326768 
L 157.221818 147.750696 
L 161.28 147.176136 
L 165.338182 146.622744 
L 169.396364 146.125296 
L 173.454545 145.733688 
L 177.512727 145.52352 
L 181.570909 145.565856 
L 185.629091 145.889424 
L 189.687273 146.456424 
L 193.745455 147.195792 
L 197.803636 148.041 
L 201.861818 148.943664 
L 205.92 149.872032 
L 209.978182 150.797376 
L 214.036364 151.695504 
L 218.094545 152.533152 
L 222.152727 153.252864 
L 226.210909 153.7488 
L 230.269091 153.84708 
L 234.327273 153.432792 
L 238.385455 152.611776 
L 242.443636 151.559424 
L 246.501818 150.383088 
L 250.56 149.132664 
L 254.618182 147.833856 
L 258.676364 146.503296 
L 262.734545 145.147032 
L 266.792727 143.774136 
L 270.850909 142.389144 
L 274.909091 141.004152 
L 278.967273 139.637304 
L 283.025455 138.361176 
L 287.083636 137.440368 
L 291.141818 137.239272 
L 295.2 137.423736 
L 299.258182 137.71404 
L 303.316364 138.040632 
L 307.374545 138.37932 
L 311.432727 138.724056 
L 315.490909 139.070304 
L 319.549091 139.416552 
L 323.607273 139.761288 
L 327.665455 140.103 
L 331.723636 140.441688 
L 335.781818 140.77584 
L 339.84 141.103944 
L 343.898182 141.429024 
L 347.956364 141.748056 
L 352.014545 142.06104 
L 356.072727 142.367976 
L 360.130909 142.667352 
L 364.189091 142.96068 
L 368.247273 143.246448 
L 372.305455 143.524656 
L 376.363636 143.795304 
L 380.421818 144.055368 
L 384.48 144.307872 
L 388.538182 144.551304 
L 392.596364 144.78264 
L 396.654545 145.004904 
L 400.712727 145.21356 
L 404.770909 145.41012 
L 408.829091 145.590048 
L 412.887273 145.751832 
L 416.945455 145.892448 
L 421.003636 146.004336 
L 425.061818 146.078424 
L 429.12 146.099592 
L 433.178182 146.039112 
L 437.236364 145.86372 
L 441.294545 145.529568 
L 445.352727 145.020024 
L 449.410909 144.354744 
L 453.469091 143.576064 
L 457.527273 142.72632 
L 461.585455 141.831216 
L 465.643636 140.914944 
L 469.701818 139.992624 
L 473.76 139.080888 
L 477.818182 138.19788 
L 481.876364 137.370816 
L 485.934545 136.634472 
L 489.992727 136.037232 
L 494.050909 135.641088 
L 498.109091 135.500472 
" clip-path="url(#paed1b18fa9)" style="fill: none; stroke: #000000; stroke-opacity: 0.5; stroke-linecap: square"/>
   </g>
   <g id="line2d_22">
    <path d="M 92.290909 125.159904 
L 96.349091 125.184096 
L 100.407273 125.259696 
L 104.465455 125.39124 
L 108.523636 125.5878 
L 112.581818 125.864496 
L 116.64 126.233424 
L 120.698182 126.705168 
L 124.756364 127.284264 
L 128.814545 127.963152 
L 132.872727 128.729736 
L 136.930909 129.567384 
L 140.989091 130.460976 
L 145.047273 131.396904 
L 149.105455 132.36156 
L 153.163636 133.341336 
L 157.221818 134.321112 
L 161.28 135.281232 
L 165.338182 136.199016 
L 169.396364 137.035152 
L 173.454545 137.73672 
L 177.512727 138.22812 
L 181.570909 138.43224 
L 185.629091 138.321864 
L 189.687273 137.930256 
L 193.745455 137.331504 
L 197.803636 136.589112 
L 201.861818 135.757512 
L 205.92 134.87148 
L 209.978182 133.973352 
L 214.036364 133.116048 
L 218.094545 132.388776 
L 222.152727 131.909472 
L 226.210909 131.725008 
L 230.269091 131.765832 
L 234.327273 131.9382 
L 238.385455 132.18012 
L 242.443636 132.464376 
L 246.501818 132.774336 
L 250.56 133.100928 
L 254.618182 133.436592 
L 258.676364 133.779816 
L 262.734545 134.126064 
L 266.792727 134.473824 
L 270.850909 134.815536 
L 274.909091 135.14364 
L 278.967273 135.43848 
L 283.025455 135.630504 
L 287.083636 135.4536 
L 291.141818 134.547912 
L 295.2 133.244568 
L 299.258182 131.826312 
L 303.316364 130.36572 
L 307.374545 128.88396 
L 311.432727 127.391616 
L 315.490909 125.89776 
L 319.549091 124.411464 
L 323.607273 122.943312 
L 327.665455 121.52052 
L 331.723636 120.188448 
L 335.781818 119.05596 
L 339.84 118.30752 
L 343.898182 118.059552 
L 347.956364 118.183536 
L 352.014545 118.493496 
L 356.072727 118.888128 
L 360.130909 119.317536 
L 364.189091 119.763576 
L 368.247273 120.211128 
L 372.305455 120.655656 
L 376.363636 121.092624 
L 380.421818 121.522032 
L 384.48 121.939344 
L 388.538182 122.343048 
L 392.596364 122.736168 
L 396.654545 123.11568 
L 400.712727 123.480072 
L 404.770909 123.832368 
L 408.829091 124.169544 
L 412.887273 124.4916 
L 416.945455 124.80156 
L 421.003636 125.094888 
L 425.061818 125.374608 
L 429.12 125.64072 
L 433.178182 125.891712 
L 437.236364 126.129096 
L 441.294545 126.35136 
L 445.352727 126.561528 
L 449.410909 126.756576 
L 453.469091 126.939528 
L 457.527273 127.108872 
L 461.585455 127.267632 
L 465.643636 127.415808 
L 469.701818 127.556424 
L 473.76 127.690992 
L 477.818182 127.822536 
L 481.876364 127.955592 
L 485.934545 128.09016 
L 489.992727 128.21868 
L 494.050909 128.31696 
L 498.109091 128.356272 
" clip-path="url(#paed1b18fa9)" style="fill: none; stroke: #000000; stroke-opacity: 0.5; stroke-linecap: square"/>
   </g>
   <g id="line2d_23">
    <path d="M 92.290909 121.695912 
L 96.349091 121.73976 
L 100.407273 121.869792 
L 104.465455 122.073912 
L 108.523636 122.338512 
L 112.581818 122.6394 
L 116.64 122.95692 
L 120.698182 123.26688 
L 124.756364 123.557184 
L 128.814545 123.824808 
L 132.872727 124.072776 
L 136.930909 124.305624 
L 140.989091 124.5294 
L 145.047273 124.750152 
L 149.105455 124.969392 
L 153.163636 125.190144 
L 157.221818 125.416944 
L 161.28 125.646768 
L 165.338182 125.88264 
L 169.396364 126.12456 
L 173.454545 126.372528 
L 177.512727 126.626544 
L 181.570909 126.883584 
L 185.629091 127.14516 
L 189.687273 127.40976 
L 193.745455 127.672848 
L 197.803636 127.9314 
L 201.861818 128.179368 
L 205.92 128.403144 
L 209.978182 128.583072 
L 214.036364 128.675304 
L 218.094545 128.59668 
L 222.152727 128.236824 
L 226.210909 127.551888 
L 230.269091 126.612936 
L 234.327273 125.518248 
L 238.385455 124.326792 
L 242.443636 123.073344 
L 246.501818 121.771512 
L 250.56 120.434904 
L 254.618182 119.07108 
L 258.676364 117.683064 
L 262.734545 116.279928 
L 266.792727 114.86772 
L 270.850909 113.458536 
L 274.909091 112.075056 
L 278.967273 110.764152 
L 283.025455 109.634688 
L 287.083636 108.908928 
L 291.141818 108.7668 
L 295.2 109.058616 
L 299.258182 109.556064 
L 303.316364 110.13516 
L 307.374545 110.744496 
L 311.432727 111.35988 
L 315.490909 111.966192 
L 319.549091 112.549824 
L 323.607273 113.097168 
L 327.665455 113.581008 
L 331.723636 113.954472 
L 335.781818 114.108696 
L 339.84 113.859216 
L 343.898182 113.089608 
L 347.956364 111.929904 
L 352.014545 110.563056 
L 356.072727 109.093392 
L 360.130909 107.569296 
L 364.189091 106.011936 
L 368.247273 104.43492 
L 372.305455 102.845808 
L 376.363636 101.249136 
L 380.421818 99.652464 
L 384.48 98.063352 
L 388.538182 96.516576 
L 392.596364 95.22684 
L 396.654545 95.477832 
L 400.712727 96.767568 
L 404.770909 98.1828 
L 408.829091 99.620712 
L 412.887273 101.061648 
L 416.945455 102.496536 
L 421.003636 103.923864 
L 425.061818 105.34212 
L 429.12 106.746768 
L 433.178182 108.13932 
L 437.236364 109.518264 
L 441.294545 110.879064 
L 445.352727 112.223232 
L 449.410909 113.546232 
L 453.469091 114.846552 
L 457.527273 116.118144 
L 461.585455 117.359496 
L 465.643636 118.561536 
L 469.701818 119.715192 
L 473.76 120.808368 
L 477.818182 121.821408 
L 481.876364 122.728608 
L 485.934545 123.495192 
L 489.992727 124.080336 
L 494.050909 124.447752 
L 498.109091 124.573248 
" clip-path="url(#paed1b18fa9)" style="fill: none; stroke: #000000; stroke-opacity: 0.5; stroke-linecap: square"/>
   </g>
   <g id="patch_3">
    <path d="M 72 384.48 
L 72 51.84 
" style="fill: none; stroke: #000000; stroke-width: 0.8; stroke-linejoin: miter; stroke-linecap: square"/>
   </g>
   <g id="patch_4">
    <path d="M 518.4 384.48 
L 518.4 51.84 
" style="fill: none; stroke: #000000; stroke-width: 0.8; stroke-linejoin: miter; stroke-linecap: square"/>
   </g>
   <g id="patch_5">
    <path d="M 72 384.48 
L 518.4 384.48 
" style="fill: none; stroke: #000000; stroke-width: 0.8; stroke-linejoin: miter; stroke-linecap: square"/>
   </g>
   <g id="patch_6">
    <path d="M 72 51.84 
L 518.4 51.84 
" style="fill: none; stroke: #000000; stroke-width: 0.8; stroke-linejoin: miter; stroke-linecap: square"/>
   </g>
  </g>
 </g>
 <defs>
  <clipPath id="paed1b18fa9">
   <rect x="72" y="51.84" width="446.4" height="332.64"/>
  </clipPath>
 </defs>
</svg>
