<?xml version="1.0" encoding="utf-8" standalone="no"?>
<!DOCTYPE svg PUBLIC "-//W3C//DTD SVG 1.1//EN"
  "http://www.w3.org/Graphics/SVG/1.1/DTD/svg11.dtd">
<svg xmlns:xlink="http://www.w3.org/1999/xlink" width="576pt" height="432pt" viewBox="0 0 576 432" xmlns="http://www.w3.org/2000/svg" version="1.1">
 <metadata>
  <rdf:RDF xmlns:dc="http://purl.org/dc/elements/1.1/" xmlns:cc="http://creativecommons.org/ns#" xmlns:rdf="http://www.w3.org/1999/02/22-rdf-syntax-ns#">
   <cc:Work>
    <dc:type rdf:resource="http://purl.org/dc/dcmitype/StillImage"/>
    <dc:date>2023-05-02T22:23:35.440871</dc:date>
    <dc:format>image/svg+xml</dc:format>
    <dc:creator>
     <cc:Agent>
      <dc:title>Matplotlib v3.7.1, https://matplotlib.org/</dc:title>
     </cc:Agent>
    </dc:creator>
   </cc:Work>
  </rdf:RDF>
 </metadata>
 <defs>
  <style type="text/css">*{stroke-linejoin: round; stroke-linecap: butt}</style>
 </defs>
 <g id="figure_1">
  <g id="patch_1">
   <path d="M 0 432 
L 576 432 
L 576 0 
L 0 0 
z
" style="fill: #ffffff"/>
  </g>
  <g id="axes_1">
   <g id="patch_2">
    <path d="M 72 384.48 
L 518.4 384.48 
L 518.4 51.84 
L 72 51.84 
z
" style="fill: #ffffff"/>
   </g>
   <g id="matplotlib.axis_1">
    <g id="xtick_1">
     <g id="line2d_1">
      <defs>
       <path id="mff8f127f06" d="M 0 0 
L 0 3.5 
" style="stroke: #000000; stroke-width: 0.8"/>
      </defs>
      <g>
       <use xlink:href="#mff8f127f06" x="92.290909" y="384.48" style="stroke: #000000; stroke-width: 0.8"/>
      </g>
     </g>
     <g id="text_1">
      <!-- 0.0 -->
      <g transform="translate(84.339347 399.078438) scale(0.1 -0.1)">
       <defs>
        <path id="DejaVuSans-30" d="M 2034 4250 
Q 1547 4250 1301 3770 
Q 1056 3291 1056 2328 
Q 1056 1369 1301 889 
Q 1547 409 2034 409 
Q 2525 409 2770 889 
Q 3016 1369 3016 2328 
Q 3016 3291 2770 3770 
Q 2525 4250 2034 4250 
z
M 2034 4750 
Q 2819 4750 3233 4129 
Q 3647 3509 3647 2328 
Q 3647 1150 3233 529 
Q 2819 -91 2034 -91 
Q 1250 -91 836 529 
Q 422 1150 422 2328 
Q 422 3509 836 4129 
Q 1250 4750 2034 4750 
z
" transform="scale(0.015625)"/>
        <path id="DejaVuSans-2e" d="M 684 794 
L 1344 794 
L 1344 0 
L 684 0 
L 684 794 
z
" transform="scale(0.015625)"/>
       </defs>
       <use xlink:href="#DejaVuSans-30"/>
       <use xlink:href="#DejaVuSans-2e" x="63.623047"/>
       <use xlink:href="#DejaVuSans-30" x="95.410156"/>
      </g>
     </g>
    </g>
    <g id="xtick_2">
     <g id="line2d_2">
      <g>
       <use xlink:href="#mff8f127f06" x="173.454545" y="384.48" style="stroke: #000000; stroke-width: 0.8"/>
      </g>
     </g>
     <g id="text_2">
      <!-- 0.2 -->
      <g transform="translate(165.502983 399.078438) scale(0.1 -0.1)">
       <defs>
        <path id="DejaVuSans-32" d="M 1228 531 
L 3431 531 
L 3431 0 
L 469 0 
L 469 531 
Q 828 903 1448 1529 
Q 2069 2156 2228 2338 
Q 2531 2678 2651 2914 
Q 2772 3150 2772 3378 
Q 2772 3750 2511 3984 
Q 2250 4219 1831 4219 
Q 1534 4219 1204 4116 
Q 875 4013 500 3803 
L 500 4441 
Q 881 4594 1212 4672 
Q 1544 4750 1819 4750 
Q 2544 4750 2975 4387 
Q 3406 4025 3406 3419 
Q 3406 3131 3298 2873 
Q 3191 2616 2906 2266 
Q 2828 2175 2409 1742 
Q 1991 1309 1228 531 
z
" transform="scale(0.015625)"/>
       </defs>
       <use xlink:href="#DejaVuSans-30"/>
       <use xlink:href="#DejaVuSans-2e" x="63.623047"/>
       <use xlink:href="#DejaVuSans-32" x="95.410156"/>
      </g>
     </g>
    </g>
    <g id="xtick_3">
     <g id="line2d_3">
      <g>
       <use xlink:href="#mff8f127f06" x="254.618182" y="384.48" style="stroke: #000000; stroke-width: 0.8"/>
      </g>
     </g>
     <g id="text_3">
      <!-- 0.4 -->
      <g transform="translate(246.666619 399.078438) scale(0.1 -0.1)">
       <defs>
        <path id="DejaVuSans-34" d="M 2419 4116 
L 825 1625 
L 2419 1625 
L 2419 4116 
z
M 2253 4666 
L 3047 4666 
L 3047 1625 
L 3713 1625 
L 3713 1100 
L 3047 1100 
L 3047 0 
L 2419 0 
L 2419 1100 
L 313 1100 
L 313 1709 
L 2253 4666 
z
" transform="scale(0.015625)"/>
       </defs>
       <use xlink:href="#DejaVuSans-30"/>
       <use xlink:href="#DejaVuSans-2e" x="63.623047"/>
       <use xlink:href="#DejaVuSans-34" x="95.410156"/>
      </g>
     </g>
    </g>
    <g id="xtick_4">
     <g id="line2d_4">
      <g>
       <use xlink:href="#mff8f127f06" x="335.781818" y="384.48" style="stroke: #000000; stroke-width: 0.8"/>
      </g>
     </g>
     <g id="text_4">
      <!-- 0.6 -->
      <g transform="translate(327.830256 399.078438) scale(0.1 -0.1)">
       <defs>
        <path id="DejaVuSans-36" d="M 2113 2584 
Q 1688 2584 1439 2293 
Q 1191 2003 1191 1497 
Q 1191 994 1439 701 
Q 1688 409 2113 409 
Q 2538 409 2786 701 
Q 3034 994 3034 1497 
Q 3034 2003 2786 2293 
Q 2538 2584 2113 2584 
z
M 3366 4563 
L 3366 3988 
Q 3128 4100 2886 4159 
Q 2644 4219 2406 4219 
Q 1781 4219 1451 3797 
Q 1122 3375 1075 2522 
Q 1259 2794 1537 2939 
Q 1816 3084 2150 3084 
Q 2853 3084 3261 2657 
Q 3669 2231 3669 1497 
Q 3669 778 3244 343 
Q 2819 -91 2113 -91 
Q 1303 -91 875 529 
Q 447 1150 447 2328 
Q 447 3434 972 4092 
Q 1497 4750 2381 4750 
Q 2619 4750 2861 4703 
Q 3103 4656 3366 4563 
z
" transform="scale(0.015625)"/>
       </defs>
       <use xlink:href="#DejaVuSans-30"/>
       <use xlink:href="#DejaVuSans-2e" x="63.623047"/>
       <use xlink:href="#DejaVuSans-36" x="95.410156"/>
      </g>
     </g>
    </g>
    <g id="xtick_5">
     <g id="line2d_5">
      <g>
       <use xlink:href="#mff8f127f06" x="416.945455" y="384.48" style="stroke: #000000; stroke-width: 0.8"/>
      </g>
     </g>
     <g id="text_5">
      <!-- 0.8 -->
      <g transform="translate(408.993892 399.078438) scale(0.1 -0.1)">
       <defs>
        <path id="DejaVuSans-38" d="M 2034 2216 
Q 1584 2216 1326 1975 
Q 1069 1734 1069 1313 
Q 1069 891 1326 650 
Q 1584 409 2034 409 
Q 2484 409 2743 651 
Q 3003 894 3003 1313 
Q 3003 1734 2745 1975 
Q 2488 2216 2034 2216 
z
M 1403 2484 
Q 997 2584 770 2862 
Q 544 3141 544 3541 
Q 544 4100 942 4425 
Q 1341 4750 2034 4750 
Q 2731 4750 3128 4425 
Q 3525 4100 3525 3541 
Q 3525 3141 3298 2862 
Q 3072 2584 2669 2484 
Q 3125 2378 3379 2068 
Q 3634 1759 3634 1313 
Q 3634 634 3220 271 
Q 2806 -91 2034 -91 
Q 1263 -91 848 271 
Q 434 634 434 1313 
Q 434 1759 690 2068 
Q 947 2378 1403 2484 
z
M 1172 3481 
Q 1172 3119 1398 2916 
Q 1625 2713 2034 2713 
Q 2441 2713 2670 2916 
Q 2900 3119 2900 3481 
Q 2900 3844 2670 4047 
Q 2441 4250 2034 4250 
Q 1625 4250 1398 4047 
Q 1172 3844 1172 3481 
z
" transform="scale(0.015625)"/>
       </defs>
       <use xlink:href="#DejaVuSans-30"/>
       <use xlink:href="#DejaVuSans-2e" x="63.623047"/>
       <use xlink:href="#DejaVuSans-38" x="95.410156"/>
      </g>
     </g>
    </g>
    <g id="xtick_6">
     <g id="line2d_6">
      <g>
       <use xlink:href="#mff8f127f06" x="498.109091" y="384.48" style="stroke: #000000; stroke-width: 0.8"/>
      </g>
     </g>
     <g id="text_6">
      <!-- 1.0 -->
      <g transform="translate(490.157528 399.078438) scale(0.1 -0.1)">
       <defs>
        <path id="DejaVuSans-31" d="M 794 531 
L 1825 531 
L 1825 4091 
L 703 3866 
L 703 4441 
L 1819 4666 
L 2450 4666 
L 2450 531 
L 3481 531 
L 3481 0 
L 794 0 
L 794 531 
z
" transform="scale(0.015625)"/>
       </defs>
       <use xlink:href="#DejaVuSans-31"/>
       <use xlink:href="#DejaVuSans-2e" x="63.623047"/>
       <use xlink:href="#DejaVuSans-30" x="95.410156"/>
      </g>
     </g>
    </g>
   </g>
   <g id="matplotlib.axis_2">
    <g id="ytick_1">
     <g id="line2d_7">
      <defs>
       <path id="m4bbef75887" d="M 0 0 
L -3.5 0 
" style="stroke: #000000; stroke-width: 0.8"/>
      </defs>
      <g>
       <use xlink:href="#m4bbef75887" x="72" y="369.36" style="stroke: #000000; stroke-width: 0.8"/>
      </g>
     </g>
     <g id="text_7">
      <!-- −5.0 -->
      <g transform="translate(40.717187 373.159219) scale(0.1 -0.1)">
       <defs>
        <path id="DejaVuSans-2212" d="M 678 2272 
L 4684 2272 
L 4684 1741 
L 678 1741 
L 678 2272 
z
" transform="scale(0.015625)"/>
        <path id="DejaVuSans-35" d="M 691 4666 
L 3169 4666 
L 3169 4134 
L 1269 4134 
L 1269 2991 
Q 1406 3038 1543 3061 
Q 1681 3084 1819 3084 
Q 2600 3084 3056 2656 
Q 3513 2228 3513 1497 
Q 3513 744 3044 326 
Q 2575 -91 1722 -91 
Q 1428 -91 1123 -41 
Q 819 9 494 109 
L 494 744 
Q 775 591 1075 516 
Q 1375 441 1709 441 
Q 2250 441 2565 725 
Q 2881 1009 2881 1497 
Q 2881 1984 2565 2268 
Q 2250 2553 1709 2553 
Q 1456 2553 1204 2497 
Q 953 2441 691 2322 
L 691 4666 
z
" transform="scale(0.015625)"/>
       </defs>
       <use xlink:href="#DejaVuSans-2212"/>
       <use xlink:href="#DejaVuSans-35" x="83.789062"/>
       <use xlink:href="#DejaVuSans-2e" x="147.412109"/>
       <use xlink:href="#DejaVuSans-30" x="179.199219"/>
      </g>
     </g>
    </g>
    <g id="ytick_2">
     <g id="line2d_8">
      <g>
       <use xlink:href="#m4bbef75887" x="72" y="331.56" style="stroke: #000000; stroke-width: 0.8"/>
      </g>
     </g>
     <g id="text_8">
      <!-- −2.5 -->
      <g transform="translate(40.717187 335.359219) scale(0.1 -0.1)">
       <use xlink:href="#DejaVuSans-2212"/>
       <use xlink:href="#DejaVuSans-32" x="83.789062"/>
       <use xlink:href="#DejaVuSans-2e" x="147.412109"/>
       <use xlink:href="#DejaVuSans-35" x="179.199219"/>
      </g>
     </g>
    </g>
    <g id="ytick_3">
     <g id="line2d_9">
      <g>
       <use xlink:href="#m4bbef75887" x="72" y="293.76" style="stroke: #000000; stroke-width: 0.8"/>
      </g>
     </g>
     <g id="text_9">
      <!-- 0.0 -->
      <g transform="translate(49.096875 297.559219) scale(0.1 -0.1)">
       <use xlink:href="#DejaVuSans-30"/>
       <use xlink:href="#DejaVuSans-2e" x="63.623047"/>
       <use xlink:href="#DejaVuSans-30" x="95.410156"/>
      </g>
     </g>
    </g>
    <g id="ytick_4">
     <g id="line2d_10">
      <g>
       <use xlink:href="#m4bbef75887" x="72" y="255.96" style="stroke: #000000; stroke-width: 0.8"/>
      </g>
     </g>
     <g id="text_10">
      <!-- 2.5 -->
      <g transform="translate(49.096875 259.759219) scale(0.1 -0.1)">
       <use xlink:href="#DejaVuSans-32"/>
       <use xlink:href="#DejaVuSans-2e" x="63.623047"/>
       <use xlink:href="#DejaVuSans-35" x="95.410156"/>
      </g>
     </g>
    </g>
    <g id="ytick_5">
     <g id="line2d_11">
      <g>
       <use xlink:href="#m4bbef75887" x="72" y="218.16" style="stroke: #000000; stroke-width: 0.8"/>
      </g>
     </g>
     <g id="text_11">
      <!-- 5.0 -->
      <g transform="translate(49.096875 221.959219) scale(0.1 -0.1)">
       <use xlink:href="#DejaVuSans-35"/>
       <use xlink:href="#DejaVuSans-2e" x="63.623047"/>
       <use xlink:href="#DejaVuSans-30" x="95.410156"/>
      </g>
     </g>
    </g>
    <g id="ytick_6">
     <g id="line2d_12">
      <g>
       <use xlink:href="#m4bbef75887" x="72" y="180.36" style="stroke: #000000; stroke-width: 0.8"/>
      </g>
     </g>
     <g id="text_12">
      <!-- 7.5 -->
      <g transform="translate(49.096875 184.159219) scale(0.1 -0.1)">
       <defs>
        <path id="DejaVuSans-37" d="M 525 4666 
L 3525 4666 
L 3525 4397 
L 1831 0 
L 1172 0 
L 2766 4134 
L 525 4134 
L 525 4666 
z
" transform="scale(0.015625)"/>
       </defs>
       <use xlink:href="#DejaVuSans-37"/>
       <use xlink:href="#DejaVuSans-2e" x="63.623047"/>
       <use xlink:href="#DejaVuSans-35" x="95.410156"/>
      </g>
     </g>
    </g>
    <g id="ytick_7">
     <g id="line2d_13">
      <g>
       <use xlink:href="#m4bbef75887" x="72" y="142.56" style="stroke: #000000; stroke-width: 0.8"/>
      </g>
     </g>
     <g id="text_13">
      <!-- 10.0 -->
      <g transform="translate(42.734375 146.359219) scale(0.1 -0.1)">
       <use xlink:href="#DejaVuSans-31"/>
       <use xlink:href="#DejaVuSans-30" x="63.623047"/>
       <use xlink:href="#DejaVuSans-2e" x="127.246094"/>
       <use xlink:href="#DejaVuSans-30" x="159.033203"/>
      </g>
     </g>
    </g>
    <g id="ytick_8">
     <g id="line2d_14">
      <g>
       <use xlink:href="#m4bbef75887" x="72" y="104.76" style="stroke: #000000; stroke-width: 0.8"/>
      </g>
     </g>
     <g id="text_14">
      <!-- 12.5 -->
      <g transform="translate(42.734375 108.559219) scale(0.1 -0.1)">
       <use xlink:href="#DejaVuSans-31"/>
       <use xlink:href="#DejaVuSans-32" x="63.623047"/>
       <use xlink:href="#DejaVuSans-2e" x="127.246094"/>
       <use xlink:href="#DejaVuSans-35" x="159.033203"/>
      </g>
     </g>
    </g>
    <g id="ytick_9">
     <g id="line2d_15">
      <g>
       <use xlink:href="#m4bbef75887" x="72" y="66.96" style="stroke: #000000; stroke-width: 0.8"/>
      </g>
     </g>
     <g id="text_15">
      <!-- 15.0 -->
      <g transform="translate(42.734375 70.759219) scale(0.1 -0.1)">
       <use xlink:href="#DejaVuSans-31"/>
       <use xlink:href="#DejaVuSans-35" x="63.623047"/>
       <use xlink:href="#DejaVuSans-2e" x="127.246094"/>
       <use xlink:href="#DejaVuSans-30" x="159.033203"/>
      </g>
     </g>
    </g>
   </g>
   <g id="line2d_16">
    <path d="M 92.290909 377.092368 
L 96.349091 377.08632 
L 100.407273 377.066664 
L 104.465455 377.034912 
L 108.523636 376.991064 
L 112.581818 376.93512 
L 116.64 376.865568 
L 120.698182 376.78392 
L 124.756364 376.688664 
L 128.814545 376.581312 
L 132.872727 376.461864 
L 136.930909 376.328808 
L 140.989091 376.185168 
L 145.047273 376.026408 
L 149.105455 375.857064 
L 153.163636 375.674112 
L 157.221818 375.479064 
L 161.28 375.27192 
L 165.338182 375.051168 
L 169.396364 374.819832 
L 173.454545 374.574888 
L 177.512727 374.317848 
L 181.570909 374.0472 
L 185.629091 373.765968 
L 189.687273 373.471128 
L 193.745455 373.164192 
L 197.803636 372.84516 
L 201.861818 372.514032 
L 205.92 372.169296 
L 209.978182 371.813976 
L 214.036364 371.44656 
L 218.094545 371.065536 
L 222.152727 370.673928 
L 226.210909 370.268712 
L 230.269091 369.852912 
L 234.327273 369.425016 
L 238.385455 368.983512 
L 242.443636 368.531424 
L 246.501818 368.06724 
L 250.56 367.59096 
L 254.618182 367.104096 
L 258.676364 366.603624 
L 262.734545 366.092568 
L 266.792727 365.569416 
L 270.850909 365.03568 
L 274.909091 364.489848 
L 278.967273 363.93192 
L 283.025455 363.363408 
L 287.083636 362.7828 
L 291.141818 362.191608 
L 295.2 361.58832 
L 299.258182 360.974448 
L 303.316364 360.349992 
L 307.374545 359.714952 
L 311.432727 359.067816 
L 315.490909 358.410096 
L 319.549091 357.741792 
L 323.607273 357.062904 
L 327.665455 356.373432 
L 331.723636 355.673376 
L 335.781818 354.962736 
L 339.84 354.241512 
L 343.898182 353.511216 
L 347.956364 352.770336 
L 352.014545 352.020384 
L 356.072727 351.259848 
L 360.130909 350.488728 
L 364.189091 349.710048 
L 368.247273 348.920784 
L 372.305455 348.122448 
L 376.363636 347.31504 
L 380.421818 346.49856 
L 384.48 345.67452 
L 388.538182 344.839896 
L 392.596364 343.997712 
L 396.654545 343.147968 
L 400.712727 342.290664 
L 404.770909 341.424288 
L 408.829091 340.551864 
L 412.887273 339.67188 
L 416.945455 338.784336 
L 421.003636 337.892256 
L 425.061818 336.992616 
L 429.12 336.086928 
L 433.178182 335.176704 
L 437.236364 334.261944 
L 441.294545 333.34416 
L 445.352727 332.42184 
L 449.410909 331.49952 
L 453.469091 330.575688 
L 457.527273 329.653368 
L 461.585455 328.734072 
L 465.643636 327.822336 
L 469.701818 326.921184 
L 473.76 326.038176 
L 477.818182 325.185408 
L 481.876364 324.378 
L 485.934545 323.646192 
L 489.992727 323.035344 
L 494.050909 322.61652 
L 498.109091 322.463808 
" clip-path="url(#p5fb6a4c74e)" style="fill: none; stroke: #000000; stroke-opacity: 0.5; stroke-linecap: square"/>
   </g>
   <g id="line2d_17">
    <path d="M 92.290909 229.766112 
L 96.349091 229.844736 
L 100.407273 230.071536 
L 104.465455 230.434416 
L 108.523636 230.91372 
L 112.581818 231.48828 
L 116.64 232.139952 
L 120.698182 232.852104 
L 124.756364 233.614152 
L 128.814545 234.414 
L 132.872727 235.242576 
L 136.930909 236.096856 
L 140.989091 236.970792 
L 145.047273 237.858336 
L 149.105455 238.757976 
L 153.163636 239.666688 
L 157.221818 240.584472 
L 161.28 241.50528 
L 165.338182 242.432136 
L 169.396364 243.360504 
L 173.454545 244.291896 
L 177.512727 245.223288 
L 181.570909 246.156192 
L 185.629091 247.087584 
L 189.687273 248.018976 
L 193.745455 248.947344 
L 197.803636 249.875712 
L 201.861818 250.801056 
L 205.92 251.723376 
L 209.978182 252.644184 
L 214.036364 253.561968 
L 218.094545 254.47824 
L 222.152727 255.389976 
L 226.210909 256.298688 
L 230.269091 257.204376 
L 234.327273 258.10704 
L 238.385455 259.00668 
L 242.443636 259.904808 
L 246.501818 260.7984 
L 250.56 261.688968 
L 254.618182 262.578024 
L 258.676364 263.462544 
L 262.734545 264.347064 
L 266.792727 265.227048 
L 270.850909 266.107032 
L 274.909091 266.983992 
L 278.967273 267.85944 
L 283.025455 268.733376 
L 287.083636 269.607312 
L 291.141818 270.479736 
L 295.2 271.35216 
L 299.258182 272.224584 
L 303.316364 273.097008 
L 307.374545 273.969432 
L 311.432727 274.841856 
L 315.490909 275.717304 
L 319.549091 276.594264 
L 323.607273 277.471224 
L 327.665455 278.35272 
L 331.723636 279.235728 
L 335.781818 280.120248 
L 339.84 281.009304 
L 343.898182 281.902896 
L 347.956364 282.798 
L 352.014545 283.699152 
L 356.072727 284.603328 
L 360.130909 285.51204 
L 364.189091 286.425288 
L 368.247273 287.344584 
L 372.305455 288.266904 
L 376.363636 289.195272 
L 380.421818 290.129688 
L 384.48 291.067128 
L 388.538182 292.010616 
L 392.596364 292.960152 
L 396.654545 293.912712 
L 400.712727 294.87132 
L 404.770909 295.832952 
L 408.829091 296.79912 
L 412.887273 297.769824 
L 416.945455 298.743552 
L 421.003636 299.720304 
L 425.061818 300.70008 
L 429.12 301.68288 
L 433.178182 302.66568 
L 437.236364 303.651504 
L 441.294545 304.635816 
L 445.352727 305.618616 
L 449.410909 306.599904 
L 453.469091 307.578168 
L 457.527273 308.550384 
L 461.585455 309.51504 
L 465.643636 310.4676 
L 469.701818 311.40504 
L 473.76 312.3198 
L 477.818182 313.199784 
L 481.876364 314.02836 
L 485.934545 314.778312 
L 489.992727 315.401256 
L 494.050909 315.829152 
L 498.109091 315.983376 
" clip-path="url(#p5fb6a4c74e)" style="fill: none; stroke: #000000; stroke-opacity: 0.5; stroke-linecap: square"/>
   </g>
   <g id="line2d_18">
    <path d="M 92.290909 218.017872 
L 96.349091 217.954368 
L 100.407273 217.769904 
L 104.465455 217.481112 
L 108.523636 217.106136 
L 112.581818 216.667656 
L 116.64 216.189864 
L 120.698182 215.689392 
L 124.756364 215.184384 
L 128.814545 214.692984 
L 132.872727 214.231824 
L 136.930909 213.82056 
L 140.989091 213.484896 
L 145.047273 213.258096 
L 149.105455 213.176448 
L 153.163636 213.256584 
L 157.221818 213.484896 
L 161.28 213.82812 
L 165.338182 214.248456 
L 169.396364 214.724736 
L 173.454545 215.24184 
L 177.512727 215.78616 
L 181.570909 216.354672 
L 185.629091 216.941328 
L 189.687273 217.544616 
L 193.745455 218.158488 
L 197.803636 218.785968 
L 201.861818 219.421008 
L 205.92 220.06512 
L 209.978182 220.716792 
L 214.036364 221.376024 
L 218.094545 222.039792 
L 222.152727 222.709608 
L 226.210909 223.385472 
L 230.269091 224.065872 
L 234.327273 224.750808 
L 238.385455 225.441792 
L 242.443636 226.1358 
L 246.501818 226.837368 
L 250.56 227.54196 
L 254.618182 228.254112 
L 258.676364 228.972312 
L 262.734545 229.69656 
L 266.792727 230.426856 
L 270.850909 231.164712 
L 274.909091 231.910128 
L 278.967273 232.663104 
L 283.025455 233.42364 
L 287.083636 234.191736 
L 291.141818 234.967392 
L 295.2 235.749096 
L 299.258182 236.536848 
L 303.316364 237.330648 
L 307.374545 238.127472 
L 311.432727 238.92732 
L 315.490909 239.72868 
L 319.549091 240.53004 
L 323.607273 241.3314 
L 327.665455 242.128224 
L 331.723636 242.922024 
L 335.781818 243.709776 
L 339.84 244.49148 
L 343.898182 245.264112 
L 347.956364 246.02616 
L 352.014545 246.779136 
L 356.072727 247.518504 
L 360.130909 248.245776 
L 364.189091 248.95944 
L 368.247273 249.656472 
L 372.305455 250.338384 
L 376.363636 251.003664 
L 380.421818 251.6508 
L 384.48 252.279792 
L 388.538182 252.89064 
L 392.596364 253.481832 
L 396.654545 254.051856 
L 400.712727 254.602224 
L 404.770909 255.131424 
L 408.829091 255.640968 
L 412.887273 256.127832 
L 416.945455 256.592016 
L 421.003636 257.035032 
L 425.061818 257.45688 
L 429.12 257.854536 
L 433.178182 258.231024 
L 437.236364 258.58332 
L 441.294545 258.914448 
L 445.352727 259.222896 
L 449.410909 259.508664 
L 453.469091 259.77024 
L 457.527273 260.010648 
L 461.585455 260.226864 
L 465.643636 260.4204 
L 469.701818 260.591256 
L 473.76 260.739432 
L 477.818182 260.864928 
L 481.876364 260.967744 
L 485.934545 261.04788 
L 489.992727 261.105336 
L 494.050909 261.1386 
L 498.109091 261.150696 
" clip-path="url(#p5fb6a4c74e)" style="fill: none; stroke: #000000; stroke-opacity: 0.5; stroke-linecap: square"/>
   </g>
   <g id="line2d_19">
    <path d="M 92.290909 207.619848 
L 96.349091 207.639504 
L 100.407273 207.698472 
L 104.465455 207.79524 
L 108.523636 207.929808 
L 112.581818 208.099152 
L 116.64 208.300248 
L 120.698182 208.533096 
L 124.756364 208.790136 
L 128.814545 209.066832 
L 132.872727 209.355624 
L 136.930909 209.642904 
L 140.989091 209.909016 
L 145.047273 210.128256 
L 149.105455 210.26736 
L 153.163636 210.315744 
L 157.221818 210.29004 
L 161.28 210.226536 
L 165.338182 210.163032 
L 169.396364 210.126744 
L 173.454545 210.132792 
L 177.512727 210.190248 
L 181.570909 210.306672 
L 185.629091 210.485088 
L 189.687273 210.723984 
L 193.745455 211.02336 
L 197.803636 211.381704 
L 201.861818 211.797504 
L 205.92 212.264712 
L 209.978182 212.780304 
L 214.036364 213.341256 
L 218.094545 213.94152 
L 222.152727 214.578072 
L 226.210909 215.246376 
L 230.269091 215.943408 
L 234.327273 216.66312 
L 238.385455 217.402488 
L 242.443636 218.158488 
L 246.501818 218.926584 
L 250.56 219.703752 
L 254.618182 220.485456 
L 258.676364 221.271696 
L 262.734545 222.056424 
L 266.792727 222.838128 
L 270.850909 223.613784 
L 274.909091 224.38188 
L 278.967273 225.139392 
L 283.025455 225.88632 
L 287.083636 226.618128 
L 291.141818 227.334816 
L 295.2 228.036384 
L 299.258182 228.719808 
L 303.316364 229.3866 
L 307.374545 230.035248 
L 311.432727 230.665752 
L 315.490909 231.278112 
L 319.549091 231.87384 
L 323.607273 232.451424 
L 327.665455 233.010864 
L 331.723636 233.553672 
L 335.781818 234.079848 
L 339.84 234.590904 
L 343.898182 235.085328 
L 347.956364 235.564632 
L 352.014545 236.027304 
L 356.072727 236.476368 
L 360.130909 236.911824 
L 364.189091 237.33216 
L 368.247273 237.738888 
L 372.305455 238.130496 
L 376.363636 238.510008 
L 380.421818 238.875912 
L 384.48 239.228208 
L 388.538182 239.566896 
L 392.596364 239.893488 
L 396.654545 240.206472 
L 400.712727 240.50736 
L 404.770909 240.79464 
L 408.829091 241.069824 
L 412.887273 241.332912 
L 416.945455 241.583904 
L 421.003636 241.821288 
L 425.061818 242.046576 
L 429.12 242.259768 
L 433.178182 242.460864 
L 437.236364 242.649864 
L 441.294545 242.825256 
L 445.352727 242.990064 
L 449.410909 243.141264 
L 453.469091 243.280368 
L 457.527273 243.408888 
L 461.585455 243.5238 
L 465.643636 243.626616 
L 469.701818 243.717336 
L 473.76 243.797472 
L 477.818182 243.864 
L 481.876364 243.918432 
L 485.934545 243.960768 
L 489.992727 243.991008 
L 494.050909 244.009152 
L 498.109091 244.0152 
" clip-path="url(#p5fb6a4c74e)" style="fill: none; stroke: #000000; stroke-opacity: 0.5; stroke-linecap: square"/>
   </g>
   <g id="line2d_20">
    <path d="M 92.290909 165.165912 
L 96.349091 165.162888 
L 100.407273 165.15684 
L 104.465455 165.155328 
L 108.523636 165.168936 
L 112.581818 165.21732 
L 116.64 165.317112 
L 120.698182 165.486456 
L 124.756364 165.729888 
L 128.814545 166.039848 
L 132.872727 166.398192 
L 136.930909 166.785264 
L 140.989091 167.181408 
L 145.047273 167.566968 
L 149.105455 167.932872 
L 153.163636 168.264 
L 157.221818 168.555816 
L 161.28 168.797736 
L 165.338182 168.986736 
L 169.396364 169.11828 
L 173.454545 169.189344 
L 177.512727 169.202952 
L 181.570909 169.157592 
L 185.629091 169.056288 
L 189.687273 168.905088 
L 193.745455 168.71004 
L 197.803636 168.480216 
L 201.861818 168.2262 
L 205.92 167.960088 
L 209.978182 167.697 
L 214.036364 167.453568 
L 218.094545 167.244912 
L 222.152727 167.087664 
L 226.210909 166.99392 
L 230.269091 166.969728 
L 234.327273 167.0166 
L 238.385455 167.134536 
L 242.443636 167.315976 
L 246.501818 167.55336 
L 250.56 167.839128 
L 254.618182 168.164208 
L 258.676364 168.522552 
L 262.734545 168.908112 
L 266.792727 169.31484 
L 270.850909 169.741224 
L 274.909091 170.179704 
L 278.967273 170.63028 
L 283.025455 171.089928 
L 287.083636 171.555624 
L 291.141818 172.027368 
L 295.2 172.500624 
L 299.258182 172.976904 
L 303.316364 173.454696 
L 307.374545 173.930976 
L 311.432727 174.405744 
L 315.490909 174.879 
L 319.549091 175.349232 
L 323.607273 175.81644 
L 327.665455 176.279112 
L 331.723636 176.737248 
L 335.781818 177.189336 
L 339.84 177.635376 
L 343.898182 178.07688 
L 347.956364 178.509312 
L 352.014545 178.935696 
L 356.072727 179.35452 
L 360.130909 179.765784 
L 364.189091 180.167976 
L 368.247273 180.561096 
L 372.305455 180.946656 
L 376.363636 181.321632 
L 380.421818 181.687536 
L 384.48 182.042856 
L 388.538182 182.387592 
L 392.596364 182.723256 
L 396.654545 183.046824 
L 400.712727 183.36132 
L 404.770909 183.66372 
L 408.829091 183.954024 
L 412.887273 184.233744 
L 416.945455 184.501368 
L 421.003636 184.756896 
L 425.061818 185.000328 
L 429.12 185.231664 
L 433.178182 185.449392 
L 437.236364 185.656536 
L 441.294545 185.850072 
L 445.352727 186.03 
L 449.410909 186.197832 
L 453.469091 186.352056 
L 457.527273 186.494184 
L 461.585455 186.622704 
L 465.643636 186.737616 
L 469.701818 186.83892 
L 473.76 186.928128 
L 477.818182 187.002216 
L 481.876364 187.064208 
L 485.934545 187.11108 
L 489.992727 187.145856 
L 494.050909 187.165512 
L 498.109091 187.173072 
" clip-path="url(#p5fb6a4c74e)" style="fill: none; stroke: #000000; stroke-opacity: 0.5; stroke-linecap: square"/>
   </g>
   <g id="line2d_21">
    <path d="M 92.290909 159.223752 
L 96.349091 159.299352 
L 100.407273 159.504984 
L 104.465455 159.790752 
L 108.523636 160.103736 
L 112.581818 160.397064 
L 116.64 160.629912 
L 120.698182 160.769016 
L 124.756364 160.800768 
L 128.814545 160.722144 
L 132.872727 160.546752 
L 136.930909 160.289712 
L 140.989091 159.967656 
L 145.047273 159.594192 
L 149.105455 159.18444 
L 153.163636 158.748984 
L 157.221818 158.301432 
L 161.28 157.859928 
L 165.338182 157.441104 
L 169.396364 157.0752 
L 173.454545 156.786408 
L 177.512727 156.597408 
L 181.570909 156.5082 
L 185.629091 156.5082 
L 189.687273 156.56868 
L 193.745455 156.668472 
L 197.803636 156.783384 
L 201.861818 156.89376 
L 205.92 156.985992 
L 209.978182 157.040424 
L 214.036364 157.041936 
L 218.094545 156.972384 
L 222.152727 156.821184 
L 226.210909 156.57624 
L 230.269091 156.233016 
L 234.327273 155.791512 
L 238.385455 155.254752 
L 242.443636 154.63332 
L 246.501818 153.934776 
L 250.56 153.172728 
L 254.618182 152.353224 
L 258.676364 151.489872 
L 262.734545 150.58872 
L 266.792727 149.660352 
L 270.850909 148.710816 
L 274.909091 147.752208 
L 278.967273 146.796624 
L 283.025455 145.859184 
L 287.083636 144.970128 
L 291.141818 144.174816 
L 295.2 143.548848 
L 299.258182 143.198064 
L 303.316364 143.190504 
L 307.374545 143.492904 
L 311.432727 144.002448 
L 315.490909 144.629928 
L 319.549091 145.3194 
L 323.607273 146.040624 
L 327.665455 146.773944 
L 331.723636 147.508776 
L 335.781818 148.239072 
L 339.84 148.960296 
L 343.898182 149.669424 
L 347.956364 150.364944 
L 352.014545 151.045344 
L 356.072727 151.709112 
L 360.130909 152.356248 
L 364.189091 152.98524 
L 368.247273 153.594576 
L 372.305455 154.18728 
L 376.363636 154.760328 
L 380.421818 155.315232 
L 384.48 155.85048 
L 388.538182 156.366072 
L 392.596364 156.86352 
L 396.654545 157.341312 
L 400.712727 157.799448 
L 404.770909 158.23944 
L 408.829091 158.659776 
L 412.887273 159.060456 
L 416.945455 159.44148 
L 421.003636 159.80436 
L 425.061818 160.149096 
L 429.12 160.472664 
L 433.178182 160.778088 
L 437.236364 161.065368 
L 441.294545 161.332992 
L 445.352727 161.582472 
L 449.410909 161.813808 
L 453.469091 162.025488 
L 457.527273 162.219024 
L 461.585455 162.392904 
L 465.643636 162.550152 
L 469.701818 162.687744 
L 473.76 162.807192 
L 477.818182 162.906984 
L 481.876364 162.990144 
L 485.934545 163.053648 
L 489.992727 163.10052 
L 494.050909 163.127736 
L 498.109091 163.136808 
" clip-path="url(#p5fb6a4c74e)" style="fill: none; stroke: #000000; stroke-opacity: 0.5; stroke-linecap: square"/>
   </g>
   <g id="line2d_22">
    <path d="M 92.290909 155.451312 
L 96.349091 155.384784 
L 100.407273 155.203344 
L 104.465455 154.947816 
L 108.523636 154.660536 
L 112.581818 154.36872 
L 116.64 154.093536 
L 120.698182 153.845568 
L 124.756364 153.632376 
L 128.814545 153.456984 
L 132.872727 153.322416 
L 136.930909 153.225648 
L 140.989091 153.165168 
L 145.047273 153.134928 
L 149.105455 153.130392 
L 153.163636 153.144 
L 157.221818 153.162144 
L 161.28 153.171216 
L 165.338182 153.150048 
L 169.396364 153.074448 
L 173.454545 152.912664 
L 177.512727 152.642016 
L 181.570909 152.25948 
L 185.629091 151.774128 
L 189.687273 151.205616 
L 193.745455 150.575112 
L 197.803636 149.897736 
L 201.861818 149.18256 
L 205.92 148.437144 
L 209.978182 147.667536 
L 214.036364 146.878272 
L 218.094545 146.070864 
L 222.152727 145.246824 
L 226.210909 144.410688 
L 230.269091 143.560944 
L 234.327273 142.699104 
L 238.385455 141.828192 
L 242.443636 140.946696 
L 246.501818 140.054616 
L 250.56 139.156488 
L 254.618182 138.2508 
L 258.676364 137.3436 
L 262.734545 136.4364 
L 266.792727 135.548856 
L 270.850909 134.739936 
L 274.909091 134.299944 
L 278.967273 134.668872 
L 283.025455 135.379512 
L 287.083636 136.102248 
L 291.141818 136.729728 
L 295.2 137.172744 
L 299.258182 137.319408 
L 303.316364 137.100168 
L 307.374545 136.546776 
L 311.432727 135.762048 
L 315.490909 134.835192 
L 319.549091 133.822152 
L 323.607273 132.756192 
L 327.665455 131.653944 
L 331.723636 130.527504 
L 335.781818 129.38292 
L 339.84 128.22624 
L 343.898182 127.057464 
L 347.956364 125.881128 
L 352.014545 124.698744 
L 356.072727 123.510312 
L 360.130909 122.317344 
L 364.189091 121.11984 
L 368.247273 119.919312 
L 372.305455 118.714248 
L 376.363636 117.50616 
L 380.421818 116.295048 
L 384.48 115.080912 
L 388.538182 113.86224 
L 392.596364 112.642056 
L 396.654545 111.417336 
L 400.712727 110.191104 
L 404.770909 108.960336 
L 408.829091 107.726544 
L 412.887273 106.488216 
L 416.945455 105.248376 
L 421.003636 104.004 
L 425.061818 102.7566 
L 429.12 101.506176 
L 433.178182 100.252728 
L 437.236364 98.996256 
L 441.294545 97.73676 
L 445.352727 96.477264 
L 449.410909 95.216256 
L 453.469091 93.955248 
L 457.527273 92.697264 
L 461.585455 91.442304 
L 465.643636 90.194904 
L 469.701818 88.958088 
L 473.76 87.74244 
L 477.818182 86.55552 
L 481.876364 85.416984 
L 485.934545 84.361608 
L 489.992727 83.449872 
L 494.050909 82.793664 
L 498.109091 82.545696 
" clip-path="url(#p5fb6a4c74e)" style="fill: none; stroke: #000000; stroke-opacity: 0.5; stroke-linecap: square"/>
   </g>
   <g id="line2d_23">
    <path d="M 92.290909 133.005672 
L 96.349091 132.96636 
L 100.407273 132.849936 
L 104.465455 132.6564 
L 108.523636 132.38424 
L 112.581818 132.037992 
L 116.64 131.619168 
L 120.698182 131.12928 
L 124.756364 130.571352 
L 128.814545 129.94992 
L 132.872727 129.26952 
L 136.930909 128.5362 
L 140.989091 127.75752 
L 145.047273 126.936504 
L 149.105455 126.083736 
L 153.163636 125.205264 
L 157.221818 124.308648 
L 161.28 123.407496 
L 165.338182 122.509368 
L 169.396364 121.629384 
L 173.454545 120.784176 
L 177.512727 119.991888 
L 181.570909 119.276712 
L 185.629091 118.667376 
L 189.687273 118.19412 
L 193.745455 117.88416 
L 197.803636 117.7632 
L 201.861818 117.837288 
L 205.92 118.101888 
L 209.978182 118.537344 
L 214.036364 119.117952 
L 218.094545 119.816496 
L 222.152727 120.60576 
L 226.210909 121.4676 
L 230.269091 122.383872 
L 234.327273 123.337944 
L 238.385455 124.320744 
L 242.443636 125.321688 
L 246.501818 126.334728 
L 250.56 127.350792 
L 254.618182 128.363832 
L 258.676364 129.366288 
L 262.734545 130.347576 
L 266.792727 131.285016 
L 270.850909 132.115104 
L 274.909091 132.541488 
L 278.967273 132.109056 
L 283.025455 131.27292 
L 287.083636 130.336992 
L 291.141818 129.361752 
L 295.2 128.36232 
L 299.258182 127.347768 
L 303.316364 126.316584 
L 307.374545 125.273304 
L 311.432727 124.217928 
L 315.490909 123.150456 
L 319.549091 122.070888 
L 323.607273 120.979224 
L 327.665455 119.875464 
L 331.723636 118.759608 
L 335.781818 117.633168 
L 339.84 116.496144 
L 343.898182 115.345512 
L 347.956364 114.185808 
L 352.014545 113.014008 
L 356.072727 111.831624 
L 360.130909 110.637144 
L 364.189091 109.433592 
L 368.247273 108.219456 
L 372.305455 106.996248 
L 376.363636 105.762456 
L 380.421818 104.519592 
L 384.48 103.269168 
L 388.538182 102.00816 
L 392.596364 100.741104 
L 396.654545 99.464976 
L 400.712727 98.181288 
L 404.770909 96.893064 
L 408.829091 95.59728 
L 412.887273 94.29696 
L 416.945455 92.992104 
L 421.003636 91.682712 
L 425.061818 90.371808 
L 429.12 89.059392 
L 433.178182 87.748488 
L 437.236364 86.439096 
L 441.294545 85.13424 
L 445.352727 83.839968 
L 449.410909 82.557792 
L 453.469091 81.298296 
L 457.527273 80.06904 
L 461.585455 78.88968 
L 465.643636 77.787432 
L 469.701818 76.806144 
L 473.76 76.021416 
L 477.818182 75.531528 
L 481.876364 75.421152 
L 485.934545 75.66156 
L 489.992727 76.098528 
L 494.050909 76.514328 
L 498.109091 76.688208 
" clip-path="url(#p5fb6a4c74e)" style="fill: none; stroke: #000000; stroke-opacity: 0.5; stroke-linecap: square"/>
   </g>
   <g id="patch_3">
    <path d="M 72 384.48 
L 72 51.84 
" style="fill: none; stroke: #000000; stroke-width: 0.8; stroke-linejoin: miter; stroke-linecap: square"/>
   </g>
   <g id="patch_4">
    <path d="M 518.4 384.48 
L 518.4 51.84 
" style="fill: none; stroke: #000000; stroke-width: 0.8; stroke-linejoin: miter; stroke-linecap: square"/>
   </g>
   <g id="patch_5">
    <path d="M 72 384.48 
L 518.4 384.48 
" style="fill: none; stroke: #000000; stroke-width: 0.8; stroke-linejoin: miter; stroke-linecap: square"/>
   </g>
   <g id="patch_6">
    <path d="M 72 51.84 
L 518.4 51.84 
" style="fill: none; stroke: #000000; stroke-width: 0.8; stroke-linejoin: miter; stroke-linecap: square"/>
   </g>
  </g>
 </g>
 <defs>
  <clipPath id="p5fb6a4c74e">
   <rect x="72" y="51.84" width="446.4" height="332.64"/>
  </clipPath>
 </defs>
</svg>
