<?xml version="1.0" encoding="utf-8" standalone="no"?>
<!DOCTYPE svg PUBLIC "-//W3C//DTD SVG 1.1//EN"
  "http://www.w3.org/Graphics/SVG/1.1/DTD/svg11.dtd">
<svg xmlns:xlink="http://www.w3.org/1999/xlink" width="576pt" height="432pt" viewBox="0 0 576 432" xmlns="http://www.w3.org/2000/svg" version="1.1">
 <metadata>
  <rdf:RDF xmlns:dc="http://purl.org/dc/elements/1.1/" xmlns:cc="http://creativecommons.org/ns#" xmlns:rdf="http://www.w3.org/1999/02/22-rdf-syntax-ns#">
   <cc:Work>
    <dc:type rdf:resource="http://purl.org/dc/dcmitype/StillImage"/>
    <dc:date>2023-05-02T15:13:21.864477</dc:date>
    <dc:format>image/svg+xml</dc:format>
    <dc:creator>
     <cc:Agent>
      <dc:title>Matplotlib v3.7.1, https://matplotlib.org/</dc:title>
     </cc:Agent>
    </dc:creator>
   </cc:Work>
  </rdf:RDF>
 </metadata>
 <defs>
  <style type="text/css">*{stroke-linejoin: round; stroke-linecap: butt}</style>
 </defs>
 <g id="figure_1">
  <g id="patch_1">
   <path d="M 0 432 
L 576 432 
L 576 0 
L 0 0 
z
" style="fill: #ffffff"/>
  </g>
  <g id="axes_1">
   <g id="patch_2">
    <path d="M 72 384.48 
L 518.4 384.48 
L 518.4 51.84 
L 72 51.84 
z
" style="fill: #ffffff"/>
   </g>
   <g id="matplotlib.axis_1">
    <g id="xtick_1">
     <g id="line2d_1">
      <defs>
       <path id="m91a8befebd" d="M 0 0 
L 0 3.5 
" style="stroke: #000000; stroke-width: 0.8"/>
      </defs>
      <g>
       <use xlink:href="#m91a8befebd" x="92.290909" y="384.48" style="stroke: #000000; stroke-width: 0.8"/>
      </g>
     </g>
     <g id="text_1">
      <!-- 0.0 -->
      <g transform="translate(84.339347 399.078438) scale(0.1 -0.1)">
       <defs>
        <path id="DejaVuSans-30" d="M 2034 4250 
Q 1547 4250 1301 3770 
Q 1056 3291 1056 2328 
Q 1056 1369 1301 889 
Q 1547 409 2034 409 
Q 2525 409 2770 889 
Q 3016 1369 3016 2328 
Q 3016 3291 2770 3770 
Q 2525 4250 2034 4250 
z
M 2034 4750 
Q 2819 4750 3233 4129 
Q 3647 3509 3647 2328 
Q 3647 1150 3233 529 
Q 2819 -91 2034 -91 
Q 1250 -91 836 529 
Q 422 1150 422 2328 
Q 422 3509 836 4129 
Q 1250 4750 2034 4750 
z
" transform="scale(0.015625)"/>
        <path id="DejaVuSans-2e" d="M 684 794 
L 1344 794 
L 1344 0 
L 684 0 
L 684 794 
z
" transform="scale(0.015625)"/>
       </defs>
       <use xlink:href="#DejaVuSans-30"/>
       <use xlink:href="#DejaVuSans-2e" x="63.623047"/>
       <use xlink:href="#DejaVuSans-30" x="95.410156"/>
      </g>
     </g>
    </g>
    <g id="xtick_2">
     <g id="line2d_2">
      <g>
       <use xlink:href="#m91a8befebd" x="173.454545" y="384.48" style="stroke: #000000; stroke-width: 0.8"/>
      </g>
     </g>
     <g id="text_2">
      <!-- 0.2 -->
      <g transform="translate(165.502983 399.078438) scale(0.1 -0.1)">
       <defs>
        <path id="DejaVuSans-32" d="M 1228 531 
L 3431 531 
L 3431 0 
L 469 0 
L 469 531 
Q 828 903 1448 1529 
Q 2069 2156 2228 2338 
Q 2531 2678 2651 2914 
Q 2772 3150 2772 3378 
Q 2772 3750 2511 3984 
Q 2250 4219 1831 4219 
Q 1534 4219 1204 4116 
Q 875 4013 500 3803 
L 500 4441 
Q 881 4594 1212 4672 
Q 1544 4750 1819 4750 
Q 2544 4750 2975 4387 
Q 3406 4025 3406 3419 
Q 3406 3131 3298 2873 
Q 3191 2616 2906 2266 
Q 2828 2175 2409 1742 
Q 1991 1309 1228 531 
z
" transform="scale(0.015625)"/>
       </defs>
       <use xlink:href="#DejaVuSans-30"/>
       <use xlink:href="#DejaVuSans-2e" x="63.623047"/>
       <use xlink:href="#DejaVuSans-32" x="95.410156"/>
      </g>
     </g>
    </g>
    <g id="xtick_3">
     <g id="line2d_3">
      <g>
       <use xlink:href="#m91a8befebd" x="254.618182" y="384.48" style="stroke: #000000; stroke-width: 0.8"/>
      </g>
     </g>
     <g id="text_3">
      <!-- 0.4 -->
      <g transform="translate(246.666619 399.078438) scale(0.1 -0.1)">
       <defs>
        <path id="DejaVuSans-34" d="M 2419 4116 
L 825 1625 
L 2419 1625 
L 2419 4116 
z
M 2253 4666 
L 3047 4666 
L 3047 1625 
L 3713 1625 
L 3713 1100 
L 3047 1100 
L 3047 0 
L 2419 0 
L 2419 1100 
L 313 1100 
L 313 1709 
L 2253 4666 
z
" transform="scale(0.015625)"/>
       </defs>
       <use xlink:href="#DejaVuSans-30"/>
       <use xlink:href="#DejaVuSans-2e" x="63.623047"/>
       <use xlink:href="#DejaVuSans-34" x="95.410156"/>
      </g>
     </g>
    </g>
    <g id="xtick_4">
     <g id="line2d_4">
      <g>
       <use xlink:href="#m91a8befebd" x="335.781818" y="384.48" style="stroke: #000000; stroke-width: 0.8"/>
      </g>
     </g>
     <g id="text_4">
      <!-- 0.6 -->
      <g transform="translate(327.830256 399.078438) scale(0.1 -0.1)">
       <defs>
        <path id="DejaVuSans-36" d="M 2113 2584 
Q 1688 2584 1439 2293 
Q 1191 2003 1191 1497 
Q 1191 994 1439 701 
Q 1688 409 2113 409 
Q 2538 409 2786 701 
Q 3034 994 3034 1497 
Q 3034 2003 2786 2293 
Q 2538 2584 2113 2584 
z
M 3366 4563 
L 3366 3988 
Q 3128 4100 2886 4159 
Q 2644 4219 2406 4219 
Q 1781 4219 1451 3797 
Q 1122 3375 1075 2522 
Q 1259 2794 1537 2939 
Q 1816 3084 2150 3084 
Q 2853 3084 3261 2657 
Q 3669 2231 3669 1497 
Q 3669 778 3244 343 
Q 2819 -91 2113 -91 
Q 1303 -91 875 529 
Q 447 1150 447 2328 
Q 447 3434 972 4092 
Q 1497 4750 2381 4750 
Q 2619 4750 2861 4703 
Q 3103 4656 3366 4563 
z
" transform="scale(0.015625)"/>
       </defs>
       <use xlink:href="#DejaVuSans-30"/>
       <use xlink:href="#DejaVuSans-2e" x="63.623047"/>
       <use xlink:href="#DejaVuSans-36" x="95.410156"/>
      </g>
     </g>
    </g>
    <g id="xtick_5">
     <g id="line2d_5">
      <g>
       <use xlink:href="#m91a8befebd" x="416.945455" y="384.48" style="stroke: #000000; stroke-width: 0.8"/>
      </g>
     </g>
     <g id="text_5">
      <!-- 0.8 -->
      <g transform="translate(408.993892 399.078438) scale(0.1 -0.1)">
       <defs>
        <path id="DejaVuSans-38" d="M 2034 2216 
Q 1584 2216 1326 1975 
Q 1069 1734 1069 1313 
Q 1069 891 1326 650 
Q 1584 409 2034 409 
Q 2484 409 2743 651 
Q 3003 894 3003 1313 
Q 3003 1734 2745 1975 
Q 2488 2216 2034 2216 
z
M 1403 2484 
Q 997 2584 770 2862 
Q 544 3141 544 3541 
Q 544 4100 942 4425 
Q 1341 4750 2034 4750 
Q 2731 4750 3128 4425 
Q 3525 4100 3525 3541 
Q 3525 3141 3298 2862 
Q 3072 2584 2669 2484 
Q 3125 2378 3379 2068 
Q 3634 1759 3634 1313 
Q 3634 634 3220 271 
Q 2806 -91 2034 -91 
Q 1263 -91 848 271 
Q 434 634 434 1313 
Q 434 1759 690 2068 
Q 947 2378 1403 2484 
z
M 1172 3481 
Q 1172 3119 1398 2916 
Q 1625 2713 2034 2713 
Q 2441 2713 2670 2916 
Q 2900 3119 2900 3481 
Q 2900 3844 2670 4047 
Q 2441 4250 2034 4250 
Q 1625 4250 1398 4047 
Q 1172 3844 1172 3481 
z
" transform="scale(0.015625)"/>
       </defs>
       <use xlink:href="#DejaVuSans-30"/>
       <use xlink:href="#DejaVuSans-2e" x="63.623047"/>
       <use xlink:href="#DejaVuSans-38" x="95.410156"/>
      </g>
     </g>
    </g>
    <g id="xtick_6">
     <g id="line2d_6">
      <g>
       <use xlink:href="#m91a8befebd" x="498.109091" y="384.48" style="stroke: #000000; stroke-width: 0.8"/>
      </g>
     </g>
     <g id="text_6">
      <!-- 1.0 -->
      <g transform="translate(490.157528 399.078438) scale(0.1 -0.1)">
       <defs>
        <path id="DejaVuSans-31" d="M 794 531 
L 1825 531 
L 1825 4091 
L 703 3866 
L 703 4441 
L 1819 4666 
L 2450 4666 
L 2450 531 
L 3481 531 
L 3481 0 
L 794 0 
L 794 531 
z
" transform="scale(0.015625)"/>
       </defs>
       <use xlink:href="#DejaVuSans-31"/>
       <use xlink:href="#DejaVuSans-2e" x="63.623047"/>
       <use xlink:href="#DejaVuSans-30" x="95.410156"/>
      </g>
     </g>
    </g>
   </g>
   <g id="matplotlib.axis_2">
    <g id="ytick_1">
     <g id="line2d_7">
      <defs>
       <path id="m18a63488cb" d="M 0 0 
L -3.5 0 
" style="stroke: #000000; stroke-width: 0.8"/>
      </defs>
      <g>
       <use xlink:href="#m18a63488cb" x="72" y="369.36" style="stroke: #000000; stroke-width: 0.8"/>
      </g>
     </g>
     <g id="text_7">
      <!-- −5.0 -->
      <g transform="translate(40.717187 373.159219) scale(0.1 -0.1)">
       <defs>
        <path id="DejaVuSans-2212" d="M 678 2272 
L 4684 2272 
L 4684 1741 
L 678 1741 
L 678 2272 
z
" transform="scale(0.015625)"/>
        <path id="DejaVuSans-35" d="M 691 4666 
L 3169 4666 
L 3169 4134 
L 1269 4134 
L 1269 2991 
Q 1406 3038 1543 3061 
Q 1681 3084 1819 3084 
Q 2600 3084 3056 2656 
Q 3513 2228 3513 1497 
Q 3513 744 3044 326 
Q 2575 -91 1722 -91 
Q 1428 -91 1123 -41 
Q 819 9 494 109 
L 494 744 
Q 775 591 1075 516 
Q 1375 441 1709 441 
Q 2250 441 2565 725 
Q 2881 1009 2881 1497 
Q 2881 1984 2565 2268 
Q 2250 2553 1709 2553 
Q 1456 2553 1204 2497 
Q 953 2441 691 2322 
L 691 4666 
z
" transform="scale(0.015625)"/>
       </defs>
       <use xlink:href="#DejaVuSans-2212"/>
       <use xlink:href="#DejaVuSans-35" x="83.789062"/>
       <use xlink:href="#DejaVuSans-2e" x="147.412109"/>
       <use xlink:href="#DejaVuSans-30" x="179.199219"/>
      </g>
     </g>
    </g>
    <g id="ytick_2">
     <g id="line2d_8">
      <g>
       <use xlink:href="#m18a63488cb" x="72" y="331.56" style="stroke: #000000; stroke-width: 0.8"/>
      </g>
     </g>
     <g id="text_8">
      <!-- −2.5 -->
      <g transform="translate(40.717187 335.359219) scale(0.1 -0.1)">
       <use xlink:href="#DejaVuSans-2212"/>
       <use xlink:href="#DejaVuSans-32" x="83.789062"/>
       <use xlink:href="#DejaVuSans-2e" x="147.412109"/>
       <use xlink:href="#DejaVuSans-35" x="179.199219"/>
      </g>
     </g>
    </g>
    <g id="ytick_3">
     <g id="line2d_9">
      <g>
       <use xlink:href="#m18a63488cb" x="72" y="293.76" style="stroke: #000000; stroke-width: 0.8"/>
      </g>
     </g>
     <g id="text_9">
      <!-- 0.0 -->
      <g transform="translate(49.096875 297.559219) scale(0.1 -0.1)">
       <use xlink:href="#DejaVuSans-30"/>
       <use xlink:href="#DejaVuSans-2e" x="63.623047"/>
       <use xlink:href="#DejaVuSans-30" x="95.410156"/>
      </g>
     </g>
    </g>
    <g id="ytick_4">
     <g id="line2d_10">
      <g>
       <use xlink:href="#m18a63488cb" x="72" y="255.96" style="stroke: #000000; stroke-width: 0.8"/>
      </g>
     </g>
     <g id="text_10">
      <!-- 2.5 -->
      <g transform="translate(49.096875 259.759219) scale(0.1 -0.1)">
       <use xlink:href="#DejaVuSans-32"/>
       <use xlink:href="#DejaVuSans-2e" x="63.623047"/>
       <use xlink:href="#DejaVuSans-35" x="95.410156"/>
      </g>
     </g>
    </g>
    <g id="ytick_5">
     <g id="line2d_11">
      <g>
       <use xlink:href="#m18a63488cb" x="72" y="218.16" style="stroke: #000000; stroke-width: 0.8"/>
      </g>
     </g>
     <g id="text_11">
      <!-- 5.0 -->
      <g transform="translate(49.096875 221.959219) scale(0.1 -0.1)">
       <use xlink:href="#DejaVuSans-35"/>
       <use xlink:href="#DejaVuSans-2e" x="63.623047"/>
       <use xlink:href="#DejaVuSans-30" x="95.410156"/>
      </g>
     </g>
    </g>
    <g id="ytick_6">
     <g id="line2d_12">
      <g>
       <use xlink:href="#m18a63488cb" x="72" y="180.36" style="stroke: #000000; stroke-width: 0.8"/>
      </g>
     </g>
     <g id="text_12">
      <!-- 7.5 -->
      <g transform="translate(49.096875 184.159219) scale(0.1 -0.1)">
       <defs>
        <path id="DejaVuSans-37" d="M 525 4666 
L 3525 4666 
L 3525 4397 
L 1831 0 
L 1172 0 
L 2766 4134 
L 525 4134 
L 525 4666 
z
" transform="scale(0.015625)"/>
       </defs>
       <use xlink:href="#DejaVuSans-37"/>
       <use xlink:href="#DejaVuSans-2e" x="63.623047"/>
       <use xlink:href="#DejaVuSans-35" x="95.410156"/>
      </g>
     </g>
    </g>
    <g id="ytick_7">
     <g id="line2d_13">
      <g>
       <use xlink:href="#m18a63488cb" x="72" y="142.56" style="stroke: #000000; stroke-width: 0.8"/>
      </g>
     </g>
     <g id="text_13">
      <!-- 10.0 -->
      <g transform="translate(42.734375 146.359219) scale(0.1 -0.1)">
       <use xlink:href="#DejaVuSans-31"/>
       <use xlink:href="#DejaVuSans-30" x="63.623047"/>
       <use xlink:href="#DejaVuSans-2e" x="127.246094"/>
       <use xlink:href="#DejaVuSans-30" x="159.033203"/>
      </g>
     </g>
    </g>
    <g id="ytick_8">
     <g id="line2d_14">
      <g>
       <use xlink:href="#m18a63488cb" x="72" y="104.76" style="stroke: #000000; stroke-width: 0.8"/>
      </g>
     </g>
     <g id="text_14">
      <!-- 12.5 -->
      <g transform="translate(42.734375 108.559219) scale(0.1 -0.1)">
       <use xlink:href="#DejaVuSans-31"/>
       <use xlink:href="#DejaVuSans-32" x="63.623047"/>
       <use xlink:href="#DejaVuSans-2e" x="127.246094"/>
       <use xlink:href="#DejaVuSans-35" x="159.033203"/>
      </g>
     </g>
    </g>
    <g id="ytick_9">
     <g id="line2d_15">
      <g>
       <use xlink:href="#m18a63488cb" x="72" y="66.96" style="stroke: #000000; stroke-width: 0.8"/>
      </g>
     </g>
     <g id="text_15">
      <!-- 15.0 -->
      <g transform="translate(42.734375 70.759219) scale(0.1 -0.1)">
       <use xlink:href="#DejaVuSans-31"/>
       <use xlink:href="#DejaVuSans-35" x="63.623047"/>
       <use xlink:href="#DejaVuSans-2e" x="127.246094"/>
       <use xlink:href="#DejaVuSans-30" x="159.033203"/>
      </g>
     </g>
    </g>
   </g>
   <g id="line2d_16">
    <path d="M 92.290909 372.56544 
L 96.349091 372.559392 
L 100.407273 372.541248 
L 104.465455 372.511008 
L 108.523636 372.46716 
L 112.581818 372.412728 
L 116.64 372.344688 
L 120.698182 372.264552 
L 124.756364 372.17232 
L 128.814545 372.067992 
L 132.872727 371.951568 
L 136.930909 371.821536 
L 140.989091 371.68092 
L 145.047273 371.528208 
L 149.105455 371.361888 
L 153.163636 371.183472 
L 157.221818 370.994472 
L 161.28 370.791864 
L 165.338182 370.57716 
L 169.396364 370.351872 
L 173.454545 370.112976 
L 177.512727 369.861984 
L 181.570909 369.600408 
L 185.629091 369.325224 
L 189.687273 369.039456 
L 193.745455 368.741592 
L 197.803636 368.431632 
L 201.861818 368.109576 
L 205.92 367.775424 
L 209.978182 367.429176 
L 214.036364 367.072344 
L 218.094545 366.703416 
L 222.152727 366.322392 
L 226.210909 365.930784 
L 230.269091 365.52708 
L 234.327273 365.11128 
L 238.385455 364.684896 
L 242.443636 364.246416 
L 246.501818 363.797352 
L 250.56 363.336192 
L 254.618182 362.864448 
L 258.676364 362.38212 
L 262.734545 361.887696 
L 266.792727 361.382688 
L 270.850909 360.867096 
L 274.909091 360.339408 
L 278.967273 359.802648 
L 283.025455 359.253792 
L 287.083636 358.695864 
L 291.141818 358.12584 
L 295.2 357.546744 
L 299.258182 356.957064 
L 303.316364 356.3568 
L 307.374545 355.747464 
L 311.432727 355.126032 
L 315.490909 354.49704 
L 319.549091 353.857464 
L 323.607273 353.207304 
L 327.665455 352.549584 
L 331.723636 351.88128 
L 335.781818 351.203904 
L 339.84 350.517456 
L 343.898182 349.821936 
L 347.956364 349.117344 
L 352.014545 348.405192 
L 356.072727 347.683968 
L 360.130909 346.955184 
L 364.189091 346.217328 
L 368.247273 345.471912 
L 372.305455 344.720448 
L 376.363636 343.959912 
L 380.421818 343.191816 
L 384.48 342.417672 
L 388.538182 341.63748 
L 392.596364 340.849728 
L 396.654545 340.055928 
L 400.712727 339.25608 
L 404.770909 338.451696 
L 408.829091 337.641264 
L 412.887273 336.826296 
L 416.945455 336.006792 
L 421.003636 335.182752 
L 425.061818 334.355688 
L 429.12 333.5256 
L 433.178182 332.694 
L 437.236364 331.859376 
L 441.294545 331.024752 
L 445.352727 330.188616 
L 449.410909 329.355504 
L 453.469091 328.523904 
L 457.527273 327.69684 
L 461.585455 326.877336 
L 465.643636 326.066904 
L 469.701818 325.271592 
L 473.76 324.497448 
L 477.818182 323.755056 
L 481.876364 323.059536 
L 485.934545 322.438104 
L 489.992727 321.927048 
L 494.050909 321.582312 
L 498.109091 321.458328 
" clip-path="url(#p9687b9a02e)" style="fill: none; stroke: #000000; stroke-opacity: 0.5; stroke-linecap: square"/>
   </g>
   <g id="line2d_17">
    <path d="M 92.290909 240.675192 
L 96.349091 240.729624 
L 100.407273 240.886872 
L 104.465455 241.145424 
L 108.523636 241.493184 
L 112.581818 241.924104 
L 116.64 242.424576 
L 120.698182 242.985528 
L 124.756364 243.597888 
L 128.814545 244.254096 
L 132.872727 244.948104 
L 136.930909 245.67084 
L 140.989091 246.41928 
L 145.047273 247.1904 
L 149.105455 247.978152 
L 153.163636 248.779512 
L 157.221818 249.59448 
L 161.28 250.41852 
L 165.338182 251.251632 
L 169.396364 252.090792 
L 173.454545 252.934488 
L 177.512727 253.78272 
L 181.570909 254.633976 
L 185.629091 255.486744 
L 189.687273 256.341024 
L 193.745455 257.195304 
L 197.803636 258.049584 
L 201.861818 258.903864 
L 205.92 259.756632 
L 209.978182 260.607888 
L 214.036364 261.457632 
L 218.094545 262.304352 
L 222.152727 263.14956 
L 226.210909 263.991744 
L 230.269091 264.830904 
L 234.327273 265.66704 
L 238.385455 266.500152 
L 242.443636 267.33024 
L 246.501818 268.155792 
L 250.56 268.979832 
L 254.618182 269.799336 
L 258.676364 270.614304 
L 262.734545 271.426248 
L 266.792727 272.235168 
L 270.850909 273.039552 
L 274.909091 273.840912 
L 278.967273 274.639248 
L 283.025455 275.43456 
L 287.083636 276.226848 
L 291.141818 277.0146 
L 295.2 277.80084 
L 299.258182 278.582544 
L 303.316364 279.362736 
L 307.374545 280.141416 
L 311.432727 280.91556 
L 315.490909 281.689704 
L 319.549091 282.460824 
L 323.607273 283.230432 
L 327.665455 283.998528 
L 331.723636 284.766624 
L 335.781818 285.533208 
L 339.84 286.29828 
L 343.898182 287.063352 
L 347.956364 287.828424 
L 352.014545 288.595008 
L 356.072727 289.36008 
L 360.130909 290.126664 
L 364.189091 290.89476 
L 368.247273 291.662856 
L 372.305455 292.433976 
L 376.363636 293.206608 
L 380.421818 293.97924 
L 384.48 294.756408 
L 388.538182 295.535088 
L 392.596364 296.316792 
L 396.654545 297.100008 
L 400.712727 297.88776 
L 404.770909 298.677024 
L 408.829091 299.469312 
L 412.887273 300.266136 
L 416.945455 301.064472 
L 421.003636 301.865832 
L 425.061818 302.671728 
L 429.12 303.477624 
L 433.178182 304.288056 
L 437.236364 305.098488 
L 441.294545 305.911944 
L 445.352727 306.7254 
L 449.410909 307.537344 
L 453.469091 308.349288 
L 457.527273 309.156696 
L 461.585455 309.959568 
L 465.643636 310.75488 
L 469.701818 311.535072 
L 473.76 312.29712 
L 477.818182 313.027416 
L 481.876364 313.713864 
L 485.934545 314.329248 
L 489.992727 314.834256 
L 494.050909 315.17748 
L 498.109091 315.299952 
" clip-path="url(#p9687b9a02e)" style="fill: none; stroke: #000000; stroke-opacity: 0.5; stroke-linecap: square"/>
   </g>
   <g id="line2d_18">
    <path d="M 92.290909 224.779536 
L 96.349091 224.734176 
L 100.407273 224.60112 
L 104.465455 224.386416 
L 108.523636 224.100648 
L 112.581818 223.760448 
L 116.64 223.402104 
L 120.698182 223.178328 
L 124.756364 223.33104 
L 128.814545 223.669728 
L 132.872727 224.074944 
L 136.930909 224.524008 
L 140.989091 225.006336 
L 145.047273 225.518904 
L 149.105455 226.057176 
L 153.163636 226.618128 
L 157.221818 227.200248 
L 161.28 227.799 
L 165.338182 228.414384 
L 169.396364 229.043376 
L 173.454545 229.684464 
L 177.512727 230.336136 
L 181.570909 230.995368 
L 185.629091 231.66216 
L 189.687273 232.333488 
L 193.745455 233.009352 
L 197.803636 233.689752 
L 201.861818 234.370152 
L 205.92 235.053576 
L 209.978182 235.735488 
L 214.036364 236.4174 
L 218.094545 237.0978 
L 222.152727 237.776688 
L 226.210909 238.452552 
L 230.269091 239.12388 
L 234.327273 239.792184 
L 238.385455 240.45444 
L 242.443636 241.11216 
L 246.501818 241.765344 
L 250.56 242.410968 
L 254.618182 243.052056 
L 258.676364 243.684072 
L 262.734545 244.31004 
L 266.792727 244.928448 
L 270.850909 245.539296 
L 274.909091 246.141072 
L 278.967273 246.735288 
L 283.025455 247.320432 
L 287.083636 247.896504 
L 291.141818 248.463504 
L 295.2 249.021432 
L 299.258182 249.568776 
L 303.316364 250.107048 
L 307.374545 250.636248 
L 311.432727 251.153352 
L 315.490909 251.661384 
L 319.549091 252.158832 
L 323.607273 252.645696 
L 327.665455 253.120464 
L 331.723636 253.58616 
L 335.781818 254.03976 
L 339.84 254.482776 
L 343.898182 254.913696 
L 347.956364 255.33252 
L 352.014545 255.74076 
L 356.072727 256.136904 
L 360.130909 256.522464 
L 364.189091 256.894416 
L 368.247273 257.255784 
L 372.305455 257.605056 
L 376.363636 257.942232 
L 380.421818 258.2658 
L 384.48 258.578784 
L 388.538182 258.87816 
L 392.596364 259.166952 
L 396.654545 259.442136 
L 400.712727 259.705224 
L 404.770909 259.956216 
L 408.829091 260.195112 
L 412.887273 260.421912 
L 416.945455 260.635104 
L 421.003636 260.837712 
L 425.061818 261.026712 
L 429.12 261.205128 
L 433.178182 261.369936 
L 437.236364 261.52416 
L 441.294545 261.6678 
L 445.352727 261.797832 
L 449.410909 261.918792 
L 453.469091 262.027656 
L 457.527273 262.125936 
L 461.585455 262.213632 
L 465.643636 262.290744 
L 469.701818 262.358784 
L 473.76 262.41624 
L 477.818182 262.464624 
L 481.876364 262.503936 
L 485.934545 262.534176 
L 489.992727 262.556856 
L 494.050909 262.568952 
L 498.109091 262.573488 
" clip-path="url(#p9687b9a02e)" style="fill: none; stroke: #000000; stroke-opacity: 0.5; stroke-linecap: square"/>
   </g>
   <g id="line2d_19">
    <path d="M 92.290909 221.61492 
L 96.349091 221.640624 
L 100.407273 221.7132 
L 104.465455 221.835672 
L 108.523636 222.00048 
L 112.581818 222.201576 
L 116.64 222.410232 
L 120.698182 222.485832 
L 124.756364 222.18948 
L 128.814545 221.72076 
L 132.872727 221.200632 
L 136.930909 220.660848 
L 140.989091 220.11048 
L 145.047273 219.5586 
L 149.105455 219.011256 
L 153.163636 218.46996 
L 157.221818 217.942272 
L 161.28 217.431216 
L 165.338182 216.939816 
L 169.396364 216.471096 
L 173.454545 216.02808 
L 177.512727 215.613792 
L 181.570909 215.232768 
L 185.629091 214.885008 
L 189.687273 214.573536 
L 193.745455 214.302888 
L 197.803636 214.073064 
L 201.861818 213.887088 
L 205.92 213.746472 
L 209.978182 213.65424 
L 214.036364 213.610392 
L 218.094545 213.61644 
L 222.152727 213.673896 
L 226.210909 213.78276 
L 230.269091 213.943032 
L 234.327273 214.154712 
L 238.385455 214.4178 
L 242.443636 214.730784 
L 246.501818 215.093664 
L 250.56 215.501904 
L 254.618182 215.958528 
L 258.676364 216.457488 
L 262.734545 216.998784 
L 266.792727 217.579392 
L 270.850909 218.196288 
L 274.909091 218.849472 
L 278.967273 219.532896 
L 283.025455 220.24656 
L 287.083636 220.98744 
L 291.141818 221.752512 
L 295.2 222.540264 
L 299.258182 223.34616 
L 303.316364 224.1702 
L 307.374545 225.00936 
L 311.432727 225.860616 
L 315.490909 226.722456 
L 319.549091 227.591856 
L 323.607273 228.468816 
L 327.665455 229.350312 
L 331.723636 230.234832 
L 335.781818 231.119352 
L 339.84 232.003872 
L 343.898182 232.885368 
L 347.956364 233.76384 
L 352.014545 234.636264 
L 356.072727 235.50264 
L 360.130909 236.359944 
L 364.189091 237.208176 
L 368.247273 238.044312 
L 372.305455 238.869864 
L 376.363636 239.681808 
L 380.421818 240.478632 
L 384.48 241.260336 
L 388.538182 242.025408 
L 392.596364 242.772336 
L 396.654545 243.50112 
L 400.712727 244.210248 
L 404.770909 244.898208 
L 408.829091 245.563488 
L 412.887273 246.2076 
L 416.945455 246.829032 
L 421.003636 247.426272 
L 425.061818 247.997808 
L 429.12 248.54364 
L 433.178182 249.063768 
L 437.236364 249.55668 
L 441.294545 250.020864 
L 445.352727 250.457832 
L 449.410909 250.86456 
L 453.469091 251.24256 
L 457.527273 251.59032 
L 461.585455 251.906328 
L 465.643636 252.190584 
L 469.701818 252.443088 
L 473.76 252.662328 
L 477.818182 252.849816 
L 481.876364 253.00404 
L 485.934545 253.123488 
L 489.992727 253.20816 
L 494.050909 253.26108 
L 498.109091 253.277712 
" clip-path="url(#p9687b9a02e)" style="fill: none; stroke: #000000; stroke-opacity: 0.5; stroke-linecap: square"/>
   </g>
   <g id="line2d_20">
    <path d="M 92.290909 177.659568 
L 96.349091 177.626304 
L 100.407273 177.528024 
L 104.465455 177.364728 
L 108.523636 177.137928 
L 112.581818 176.849136 
L 116.64 176.499864 
L 120.698182 176.093136 
L 124.756364 175.631976 
L 128.814545 175.117896 
L 132.872727 174.55392 
L 136.930909 173.943072 
L 140.989091 173.288376 
L 145.047273 172.592856 
L 149.105455 171.859536 
L 153.163636 171.09144 
L 157.221818 170.291592 
L 161.28 169.464528 
L 165.338182 168.61176 
L 169.396364 167.739336 
L 173.454545 166.85028 
L 177.512727 165.952152 
L 181.570909 165.052512 
L 185.629091 164.16648 
L 189.687273 163.309176 
L 193.745455 162.512352 
L 197.803636 161.81532 
L 201.861818 161.269488 
L 205.92 160.914168 
L 209.978182 160.747848 
L 214.036364 160.722144 
L 218.094545 160.781112 
L 222.152727 160.879392 
L 226.210909 160.986744 
L 230.269091 161.082 
L 234.327273 161.156088 
L 238.385455 161.198424 
L 242.443636 161.205984 
L 246.501818 161.175744 
L 250.56 161.106192 
L 254.618182 160.995816 
L 258.676364 160.846128 
L 262.734545 160.657128 
L 266.792727 160.428816 
L 270.850909 160.165728 
L 274.909091 159.869376 
L 278.967273 159.541272 
L 283.025455 159.185952 
L 287.083636 158.807952 
L 291.141818 158.41332 
L 295.2 158.014152 
L 299.258182 157.625568 
L 303.316364 157.274784 
L 307.374545 157.001112 
L 311.432727 156.851424 
L 315.490909 156.846888 
L 319.549091 156.970872 
L 323.607273 157.182552 
L 327.665455 157.448664 
L 331.723636 157.746528 
L 335.781818 158.062536 
L 339.84 158.387616 
L 343.898182 158.71572 
L 347.956364 159.045336 
L 352.014545 159.371928 
L 356.072727 159.697008 
L 360.130909 160.017552 
L 364.189091 160.332048 
L 368.247273 160.642008 
L 372.305455 160.944408 
L 376.363636 161.239248 
L 380.421818 161.52804 
L 384.48 161.80776 
L 388.538182 162.07992 
L 392.596364 162.34452 
L 396.654545 162.600048 
L 400.712727 162.846504 
L 404.770909 163.0854 
L 408.829091 163.313712 
L 412.887273 163.532952 
L 416.945455 163.744632 
L 421.003636 163.944216 
L 425.061818 164.13624 
L 429.12 164.31768 
L 433.178182 164.488536 
L 437.236364 164.65032 
L 441.294545 164.803032 
L 445.352727 164.943648 
L 449.410909 165.075192 
L 453.469091 165.196152 
L 457.527273 165.30804 
L 461.585455 165.407832 
L 465.643636 165.498552 
L 469.701818 165.577176 
L 473.76 165.646728 
L 477.818182 165.704184 
L 481.876364 165.752568 
L 485.934545 165.790368 
L 489.992727 165.816072 
L 494.050909 165.832704 
L 498.109091 165.83724 
" clip-path="url(#p9687b9a02e)" style="fill: none; stroke: #000000; stroke-opacity: 0.5; stroke-linecap: square"/>
   </g>
   <g id="line2d_21">
    <path d="M 92.290909 143.840664 
L 96.349091 143.873928 
L 100.407273 143.975232 
L 104.465455 144.14004 
L 108.523636 144.369864 
L 112.581818 144.663192 
L 116.64 145.013976 
L 120.698182 145.420704 
L 124.756364 145.877328 
L 128.814545 146.3778 
L 132.872727 146.919096 
L 136.930909 147.493656 
L 140.989091 148.096944 
L 145.047273 148.7214 
L 149.105455 149.362488 
L 153.163636 150.012648 
L 157.221818 150.668856 
L 161.28 151.32204 
L 165.338182 151.967664 
L 169.396364 152.598168 
L 173.454545 153.209016 
L 177.512727 153.788112 
L 181.570909 154.326384 
L 185.629091 154.808712 
L 189.687273 155.21544 
L 193.745455 155.514816 
L 197.803636 155.666016 
L 201.861818 155.613096 
L 205.92 155.319768 
L 209.978182 154.789056 
L 214.036364 154.067832 
L 218.094545 153.215064 
L 222.152727 152.286696 
L 226.210909 151.3296 
L 230.269091 150.396696 
L 234.327273 149.572656 
L 238.385455 148.986 
L 242.443636 148.738032 
L 246.501818 148.783392 
L 250.56 149.00112 
L 254.618182 149.306544 
L 258.676364 149.660352 
L 262.734545 150.03684 
L 266.792727 150.428448 
L 270.850909 150.826104 
L 274.909091 151.225272 
L 278.967273 151.621416 
L 283.025455 152.01 
L 287.083636 152.388 
L 291.141818 152.747856 
L 295.2 153.080496 
L 299.258182 153.369288 
L 303.316364 153.59004 
L 307.374545 153.701928 
L 311.432727 153.659592 
L 315.490909 153.443376 
L 319.549091 153.071424 
L 323.607273 152.583048 
L 327.665455 152.016048 
L 331.723636 151.391592 
L 335.781818 150.726312 
L 339.84 150.027768 
L 343.898182 149.306544 
L 347.956364 148.565664 
L 352.014545 147.811176 
L 356.072727 147.052152 
L 360.130909 146.297664 
L 364.189091 145.565856 
L 368.247273 144.889992 
L 372.305455 144.326016 
L 376.363636 143.961624 
L 380.421818 143.854272 
L 384.48 143.970696 
L 388.538182 144.224712 
L 392.596364 144.54828 
L 396.654545 144.902088 
L 400.712727 145.267992 
L 404.770909 145.633896 
L 408.829091 145.995264 
L 412.887273 146.346048 
L 416.945455 146.684736 
L 421.003636 147.011328 
L 425.061818 147.3228 
L 429.12 147.619152 
L 433.178182 147.898872 
L 437.236364 148.163472 
L 441.294545 148.41144 
L 445.352727 148.642776 
L 449.410909 148.85748 
L 453.469091 149.055552 
L 457.527273 149.23548 
L 461.585455 149.398776 
L 465.643636 149.54544 
L 469.701818 149.675472 
L 473.76 149.78736 
L 477.818182 149.882616 
L 481.876364 149.959728 
L 485.934545 150.020208 
L 489.992727 150.062544 
L 494.050909 150.088248 
L 498.109091 150.09732 
" clip-path="url(#p9687b9a02e)" style="fill: none; stroke: #000000; stroke-opacity: 0.5; stroke-linecap: square"/>
   </g>
   <g id="line2d_22">
    <path d="M 92.290909 136.778112 
L 96.349091 136.78416 
L 100.407273 136.803816 
L 104.465455 136.838592 
L 108.523636 136.891512 
L 112.581818 136.964088 
L 116.64 137.057832 
L 120.698182 137.172744 
L 124.756364 137.308824 
L 128.814545 137.46456 
L 132.872727 137.639952 
L 136.930909 137.835 
L 140.989091 138.048192 
L 145.047273 138.278016 
L 149.105455 138.524472 
L 153.163636 138.78756 
L 157.221818 139.065768 
L 161.28 139.359096 
L 165.338182 139.666032 
L 169.396364 139.985064 
L 173.454545 140.316192 
L 177.512727 140.657904 
L 181.570909 141.011712 
L 185.629091 141.37308 
L 189.687273 141.742008 
L 193.745455 142.118496 
L 197.803636 142.501032 
L 201.861818 142.888104 
L 205.92 143.275176 
L 209.978182 143.66376 
L 214.036364 144.046296 
L 218.094545 144.418248 
L 222.152727 144.772056 
L 226.210909 145.086552 
L 230.269091 145.328472 
L 234.327273 145.42524 
L 238.385455 145.254384 
L 242.443636 144.720648 
L 246.501818 143.872416 
L 250.56 142.83216 
L 254.618182 141.687576 
L 258.676364 140.481 
L 262.734545 139.2336 
L 266.792727 137.962008 
L 270.850909 136.672272 
L 274.909091 135.374976 
L 278.967273 134.079192 
L 283.025455 132.803064 
L 287.083636 131.579856 
L 291.141818 130.492728 
L 295.2 129.747312 
L 299.258182 129.60216 
L 303.316364 129.966552 
L 307.374545 130.565304 
L 311.432727 131.253264 
L 315.490909 131.972976 
L 319.549091 132.703272 
L 323.607273 133.430544 
L 327.665455 134.148744 
L 331.723636 134.854848 
L 335.781818 135.54432 
L 339.84 136.215648 
L 343.898182 136.86732 
L 347.956364 137.4948 
L 352.014545 138.093552 
L 356.072727 138.662064 
L 360.130909 139.186728 
L 364.189091 139.650912 
L 368.247273 140.025888 
L 372.305455 140.252688 
L 376.363636 140.245128 
L 380.421818 139.945752 
L 384.48 139.389336 
L 388.538182 138.662064 
L 392.596364 137.833488 
L 396.654545 136.939896 
L 400.712727 136.002456 
L 404.770909 135.033264 
L 408.829091 134.036856 
L 412.887273 133.017768 
L 416.945455 131.980536 
L 421.003636 130.92516 
L 425.061818 129.853152 
L 429.12 128.766024 
L 433.178182 127.663776 
L 437.236364 126.54792 
L 441.294545 125.418456 
L 445.352727 124.275384 
L 449.410909 123.120216 
L 453.469091 121.952952 
L 457.527273 120.773592 
L 461.585455 119.583648 
L 465.643636 118.381608 
L 469.701818 117.170496 
L 473.76 115.950312 
L 477.818182 114.72408 
L 481.876364 113.494824 
L 485.934545 112.270104 
L 489.992727 111.071088 
L 494.050909 109.977912 
L 498.109091 109.398816 
" clip-path="url(#p9687b9a02e)" style="fill: none; stroke: #000000; stroke-opacity: 0.5; stroke-linecap: square"/>
   </g>
   <g id="line2d_23">
    <path d="M 92.290909 135.964656 
L 96.349091 135.954072 
L 100.407273 135.920808 
L 104.465455 135.863352 
L 108.523636 135.775656 
L 112.581818 135.654696 
L 116.64 135.49896 
L 120.698182 135.305424 
L 124.756364 135.072576 
L 128.814545 134.801928 
L 132.872727 134.490456 
L 136.930909 134.141184 
L 140.989091 133.754112 
L 145.047273 133.32924 
L 149.105455 132.866568 
L 153.163636 132.366096 
L 157.221818 131.829336 
L 161.28 131.2578 
L 165.338182 130.651488 
L 169.396364 130.0104 
L 173.454545 129.336048 
L 177.512727 128.628432 
L 181.570909 127.889064 
L 185.629091 127.119456 
L 189.687273 126.32112 
L 193.745455 125.494056 
L 197.803636 124.6428 
L 201.861818 123.767352 
L 205.92 122.870736 
L 209.978182 121.960512 
L 214.036364 121.041216 
L 218.094545 120.123432 
L 222.152727 119.225304 
L 226.210909 118.374048 
L 230.269091 117.61956 
L 234.327273 117.038952 
L 238.385455 116.736552 
L 242.443636 116.7804 
L 246.501818 117.144792 
L 250.56 117.734472 
L 254.618182 118.460232 
L 258.676364 119.264616 
L 262.734545 120.111336 
L 266.792727 120.977712 
L 270.850909 121.850136 
L 274.909091 122.715 
L 278.967273 123.560208 
L 283.025455 124.367616 
L 287.083636 125.099424 
L 291.141818 125.672472 
L 295.2 125.88264 
L 299.258182 125.468352 
L 303.316364 124.52184 
L 307.374545 123.316776 
L 311.432727 121.998312 
L 315.490909 120.622392 
L 319.549091 119.211696 
L 323.607273 117.779832 
L 327.665455 116.331336 
L 331.723636 114.870744 
L 335.781818 113.398056 
L 339.84 111.917808 
L 343.898182 110.43 
L 347.956364 108.936144 
L 352.014545 107.43624 
L 356.072727 105.930288 
L 360.130909 104.421312 
L 364.189091 102.906288 
L 368.247273 101.389752 
L 372.305455 99.86868 
L 376.363636 98.346096 
L 380.421818 96.822 
L 384.48 95.296392 
L 388.538182 93.769272 
L 392.596364 92.245176 
L 396.654545 90.722592 
L 400.712727 89.204544 
L 404.770909 87.698592 
L 408.829091 86.216832 
L 412.887273 84.791016 
L 416.945455 83.548152 
L 421.003636 83.050704 
L 425.061818 83.794608 
L 429.12 85.02084 
L 433.178182 86.363496 
L 437.236364 87.74244 
L 441.294545 89.134992 
L 445.352727 90.530568 
L 449.410909 91.926144 
L 453.469091 93.317184 
L 457.527273 94.702176 
L 461.585455 96.08112 
L 465.643636 97.452504 
L 469.701818 98.814816 
L 473.76 100.165032 
L 477.818182 101.503152 
L 481.876364 102.823128 
L 485.934545 104.120424 
L 489.992727 105.369336 
L 494.050909 106.492752 
L 498.109091 107.082432 
" clip-path="url(#p9687b9a02e)" style="fill: none; stroke: #000000; stroke-opacity: 0.5; stroke-linecap: square"/>
   </g>
   <g id="patch_3">
    <path d="M 72 384.48 
L 72 51.84 
" style="fill: none; stroke: #000000; stroke-width: 0.8; stroke-linejoin: miter; stroke-linecap: square"/>
   </g>
   <g id="patch_4">
    <path d="M 518.4 384.48 
L 518.4 51.84 
" style="fill: none; stroke: #000000; stroke-width: 0.8; stroke-linejoin: miter; stroke-linecap: square"/>
   </g>
   <g id="patch_5">
    <path d="M 72 384.48 
L 518.4 384.48 
" style="fill: none; stroke: #000000; stroke-width: 0.8; stroke-linejoin: miter; stroke-linecap: square"/>
   </g>
   <g id="patch_6">
    <path d="M 72 51.84 
L 518.4 51.84 
" style="fill: none; stroke: #000000; stroke-width: 0.8; stroke-linejoin: miter; stroke-linecap: square"/>
   </g>
  </g>
 </g>
 <defs>
  <clipPath id="p9687b9a02e">
   <rect x="72" y="51.84" width="446.4" height="332.64"/>
  </clipPath>
 </defs>
</svg>
