<?xml version="1.0" encoding="utf-8" standalone="no"?>
<!DOCTYPE svg PUBLIC "-//W3C//DTD SVG 1.1//EN"
  "http://www.w3.org/Graphics/SVG/1.1/DTD/svg11.dtd">
<svg xmlns:xlink="http://www.w3.org/1999/xlink" width="576pt" height="432pt" viewBox="0 0 576 432" xmlns="http://www.w3.org/2000/svg" version="1.1">
 <metadata>
  <rdf:RDF xmlns:dc="http://purl.org/dc/elements/1.1/" xmlns:cc="http://creativecommons.org/ns#" xmlns:rdf="http://www.w3.org/1999/02/22-rdf-syntax-ns#">
   <cc:Work>
    <dc:type rdf:resource="http://purl.org/dc/dcmitype/StillImage"/>
    <dc:date>2023-05-03T17:15:25.704936</dc:date>
    <dc:format>image/svg+xml</dc:format>
    <dc:creator>
     <cc:Agent>
      <dc:title>Matplotlib v3.7.1, https://matplotlib.org/</dc:title>
     </cc:Agent>
    </dc:creator>
   </cc:Work>
  </rdf:RDF>
 </metadata>
 <defs>
  <style type="text/css">*{stroke-linejoin: round; stroke-linecap: butt}</style>
 </defs>
 <g id="figure_1">
  <g id="patch_1">
   <path d="M 0 432 
L 576 432 
L 576 0 
L 0 0 
z
" style="fill: #ffffff"/>
  </g>
  <g id="axes_1">
   <g id="patch_2">
    <path d="M 72 384.48 
L 518.4 384.48 
L 518.4 51.84 
L 72 51.84 
z
" style="fill: #ffffff"/>
   </g>
   <g id="matplotlib.axis_1">
    <g id="xtick_1">
     <g id="line2d_1">
      <defs>
       <path id="ma8e49bc0ae" d="M 0 0 
L 0 3.5 
" style="stroke: #000000; stroke-width: 0.8"/>
      </defs>
      <g>
       <use xlink:href="#ma8e49bc0ae" x="92.290909" y="384.48" style="stroke: #000000; stroke-width: 0.8"/>
      </g>
     </g>
     <g id="text_1">
      <!-- 0.0 -->
      <g transform="translate(84.339347 399.078438) scale(0.1 -0.1)">
       <defs>
        <path id="DejaVuSans-30" d="M 2034 4250 
Q 1547 4250 1301 3770 
Q 1056 3291 1056 2328 
Q 1056 1369 1301 889 
Q 1547 409 2034 409 
Q 2525 409 2770 889 
Q 3016 1369 3016 2328 
Q 3016 3291 2770 3770 
Q 2525 4250 2034 4250 
z
M 2034 4750 
Q 2819 4750 3233 4129 
Q 3647 3509 3647 2328 
Q 3647 1150 3233 529 
Q 2819 -91 2034 -91 
Q 1250 -91 836 529 
Q 422 1150 422 2328 
Q 422 3509 836 4129 
Q 1250 4750 2034 4750 
z
" transform="scale(0.015625)"/>
        <path id="DejaVuSans-2e" d="M 684 794 
L 1344 794 
L 1344 0 
L 684 0 
L 684 794 
z
" transform="scale(0.015625)"/>
       </defs>
       <use xlink:href="#DejaVuSans-30"/>
       <use xlink:href="#DejaVuSans-2e" x="63.623047"/>
       <use xlink:href="#DejaVuSans-30" x="95.410156"/>
      </g>
     </g>
    </g>
    <g id="xtick_2">
     <g id="line2d_2">
      <g>
       <use xlink:href="#ma8e49bc0ae" x="173.454545" y="384.48" style="stroke: #000000; stroke-width: 0.8"/>
      </g>
     </g>
     <g id="text_2">
      <!-- 0.2 -->
      <g transform="translate(165.502983 399.078438) scale(0.1 -0.1)">
       <defs>
        <path id="DejaVuSans-32" d="M 1228 531 
L 3431 531 
L 3431 0 
L 469 0 
L 469 531 
Q 828 903 1448 1529 
Q 2069 2156 2228 2338 
Q 2531 2678 2651 2914 
Q 2772 3150 2772 3378 
Q 2772 3750 2511 3984 
Q 2250 4219 1831 4219 
Q 1534 4219 1204 4116 
Q 875 4013 500 3803 
L 500 4441 
Q 881 4594 1212 4672 
Q 1544 4750 1819 4750 
Q 2544 4750 2975 4387 
Q 3406 4025 3406 3419 
Q 3406 3131 3298 2873 
Q 3191 2616 2906 2266 
Q 2828 2175 2409 1742 
Q 1991 1309 1228 531 
z
" transform="scale(0.015625)"/>
       </defs>
       <use xlink:href="#DejaVuSans-30"/>
       <use xlink:href="#DejaVuSans-2e" x="63.623047"/>
       <use xlink:href="#DejaVuSans-32" x="95.410156"/>
      </g>
     </g>
    </g>
    <g id="xtick_3">
     <g id="line2d_3">
      <g>
       <use xlink:href="#ma8e49bc0ae" x="254.618182" y="384.48" style="stroke: #000000; stroke-width: 0.8"/>
      </g>
     </g>
     <g id="text_3">
      <!-- 0.4 -->
      <g transform="translate(246.666619 399.078438) scale(0.1 -0.1)">
       <defs>
        <path id="DejaVuSans-34" d="M 2419 4116 
L 825 1625 
L 2419 1625 
L 2419 4116 
z
M 2253 4666 
L 3047 4666 
L 3047 1625 
L 3713 1625 
L 3713 1100 
L 3047 1100 
L 3047 0 
L 2419 0 
L 2419 1100 
L 313 1100 
L 313 1709 
L 2253 4666 
z
" transform="scale(0.015625)"/>
       </defs>
       <use xlink:href="#DejaVuSans-30"/>
       <use xlink:href="#DejaVuSans-2e" x="63.623047"/>
       <use xlink:href="#DejaVuSans-34" x="95.410156"/>
      </g>
     </g>
    </g>
    <g id="xtick_4">
     <g id="line2d_4">
      <g>
       <use xlink:href="#ma8e49bc0ae" x="335.781818" y="384.48" style="stroke: #000000; stroke-width: 0.8"/>
      </g>
     </g>
     <g id="text_4">
      <!-- 0.6 -->
      <g transform="translate(327.830256 399.078438) scale(0.1 -0.1)">
       <defs>
        <path id="DejaVuSans-36" d="M 2113 2584 
Q 1688 2584 1439 2293 
Q 1191 2003 1191 1497 
Q 1191 994 1439 701 
Q 1688 409 2113 409 
Q 2538 409 2786 701 
Q 3034 994 3034 1497 
Q 3034 2003 2786 2293 
Q 2538 2584 2113 2584 
z
M 3366 4563 
L 3366 3988 
Q 3128 4100 2886 4159 
Q 2644 4219 2406 4219 
Q 1781 4219 1451 3797 
Q 1122 3375 1075 2522 
Q 1259 2794 1537 2939 
Q 1816 3084 2150 3084 
Q 2853 3084 3261 2657 
Q 3669 2231 3669 1497 
Q 3669 778 3244 343 
Q 2819 -91 2113 -91 
Q 1303 -91 875 529 
Q 447 1150 447 2328 
Q 447 3434 972 4092 
Q 1497 4750 2381 4750 
Q 2619 4750 2861 4703 
Q 3103 4656 3366 4563 
z
" transform="scale(0.015625)"/>
       </defs>
       <use xlink:href="#DejaVuSans-30"/>
       <use xlink:href="#DejaVuSans-2e" x="63.623047"/>
       <use xlink:href="#DejaVuSans-36" x="95.410156"/>
      </g>
     </g>
    </g>
    <g id="xtick_5">
     <g id="line2d_5">
      <g>
       <use xlink:href="#ma8e49bc0ae" x="416.945455" y="384.48" style="stroke: #000000; stroke-width: 0.8"/>
      </g>
     </g>
     <g id="text_5">
      <!-- 0.8 -->
      <g transform="translate(408.993892 399.078438) scale(0.1 -0.1)">
       <defs>
        <path id="DejaVuSans-38" d="M 2034 2216 
Q 1584 2216 1326 1975 
Q 1069 1734 1069 1313 
Q 1069 891 1326 650 
Q 1584 409 2034 409 
Q 2484 409 2743 651 
Q 3003 894 3003 1313 
Q 3003 1734 2745 1975 
Q 2488 2216 2034 2216 
z
M 1403 2484 
Q 997 2584 770 2862 
Q 544 3141 544 3541 
Q 544 4100 942 4425 
Q 1341 4750 2034 4750 
Q 2731 4750 3128 4425 
Q 3525 4100 3525 3541 
Q 3525 3141 3298 2862 
Q 3072 2584 2669 2484 
Q 3125 2378 3379 2068 
Q 3634 1759 3634 1313 
Q 3634 634 3220 271 
Q 2806 -91 2034 -91 
Q 1263 -91 848 271 
Q 434 634 434 1313 
Q 434 1759 690 2068 
Q 947 2378 1403 2484 
z
M 1172 3481 
Q 1172 3119 1398 2916 
Q 1625 2713 2034 2713 
Q 2441 2713 2670 2916 
Q 2900 3119 2900 3481 
Q 2900 3844 2670 4047 
Q 2441 4250 2034 4250 
Q 1625 4250 1398 4047 
Q 1172 3844 1172 3481 
z
" transform="scale(0.015625)"/>
       </defs>
       <use xlink:href="#DejaVuSans-30"/>
       <use xlink:href="#DejaVuSans-2e" x="63.623047"/>
       <use xlink:href="#DejaVuSans-38" x="95.410156"/>
      </g>
     </g>
    </g>
    <g id="xtick_6">
     <g id="line2d_6">
      <g>
       <use xlink:href="#ma8e49bc0ae" x="498.109091" y="384.48" style="stroke: #000000; stroke-width: 0.8"/>
      </g>
     </g>
     <g id="text_6">
      <!-- 1.0 -->
      <g transform="translate(490.157528 399.078438) scale(0.1 -0.1)">
       <defs>
        <path id="DejaVuSans-31" d="M 794 531 
L 1825 531 
L 1825 4091 
L 703 3866 
L 703 4441 
L 1819 4666 
L 2450 4666 
L 2450 531 
L 3481 531 
L 3481 0 
L 794 0 
L 794 531 
z
" transform="scale(0.015625)"/>
       </defs>
       <use xlink:href="#DejaVuSans-31"/>
       <use xlink:href="#DejaVuSans-2e" x="63.623047"/>
       <use xlink:href="#DejaVuSans-30" x="95.410156"/>
      </g>
     </g>
    </g>
   </g>
   <g id="matplotlib.axis_2">
    <g id="ytick_1">
     <g id="line2d_7">
      <defs>
       <path id="m81de3fb391" d="M 0 0 
L -3.5 0 
" style="stroke: #000000; stroke-width: 0.8"/>
      </defs>
      <g>
       <use xlink:href="#m81de3fb391" x="72" y="369.36" style="stroke: #000000; stroke-width: 0.8"/>
      </g>
     </g>
     <g id="text_7">
      <!-- −5.0 -->
      <g transform="translate(40.717187 373.159219) scale(0.1 -0.1)">
       <defs>
        <path id="DejaVuSans-2212" d="M 678 2272 
L 4684 2272 
L 4684 1741 
L 678 1741 
L 678 2272 
z
" transform="scale(0.015625)"/>
        <path id="DejaVuSans-35" d="M 691 4666 
L 3169 4666 
L 3169 4134 
L 1269 4134 
L 1269 2991 
Q 1406 3038 1543 3061 
Q 1681 3084 1819 3084 
Q 2600 3084 3056 2656 
Q 3513 2228 3513 1497 
Q 3513 744 3044 326 
Q 2575 -91 1722 -91 
Q 1428 -91 1123 -41 
Q 819 9 494 109 
L 494 744 
Q 775 591 1075 516 
Q 1375 441 1709 441 
Q 2250 441 2565 725 
Q 2881 1009 2881 1497 
Q 2881 1984 2565 2268 
Q 2250 2553 1709 2553 
Q 1456 2553 1204 2497 
Q 953 2441 691 2322 
L 691 4666 
z
" transform="scale(0.015625)"/>
       </defs>
       <use xlink:href="#DejaVuSans-2212"/>
       <use xlink:href="#DejaVuSans-35" x="83.789062"/>
       <use xlink:href="#DejaVuSans-2e" x="147.412109"/>
       <use xlink:href="#DejaVuSans-30" x="179.199219"/>
      </g>
     </g>
    </g>
    <g id="ytick_2">
     <g id="line2d_8">
      <g>
       <use xlink:href="#m81de3fb391" x="72" y="331.56" style="stroke: #000000; stroke-width: 0.8"/>
      </g>
     </g>
     <g id="text_8">
      <!-- −2.5 -->
      <g transform="translate(40.717187 335.359219) scale(0.1 -0.1)">
       <use xlink:href="#DejaVuSans-2212"/>
       <use xlink:href="#DejaVuSans-32" x="83.789062"/>
       <use xlink:href="#DejaVuSans-2e" x="147.412109"/>
       <use xlink:href="#DejaVuSans-35" x="179.199219"/>
      </g>
     </g>
    </g>
    <g id="ytick_3">
     <g id="line2d_9">
      <g>
       <use xlink:href="#m81de3fb391" x="72" y="293.76" style="stroke: #000000; stroke-width: 0.8"/>
      </g>
     </g>
     <g id="text_9">
      <!-- 0.0 -->
      <g transform="translate(49.096875 297.559219) scale(0.1 -0.1)">
       <use xlink:href="#DejaVuSans-30"/>
       <use xlink:href="#DejaVuSans-2e" x="63.623047"/>
       <use xlink:href="#DejaVuSans-30" x="95.410156"/>
      </g>
     </g>
    </g>
    <g id="ytick_4">
     <g id="line2d_10">
      <g>
       <use xlink:href="#m81de3fb391" x="72" y="255.96" style="stroke: #000000; stroke-width: 0.8"/>
      </g>
     </g>
     <g id="text_10">
      <!-- 2.5 -->
      <g transform="translate(49.096875 259.759219) scale(0.1 -0.1)">
       <use xlink:href="#DejaVuSans-32"/>
       <use xlink:href="#DejaVuSans-2e" x="63.623047"/>
       <use xlink:href="#DejaVuSans-35" x="95.410156"/>
      </g>
     </g>
    </g>
    <g id="ytick_5">
     <g id="line2d_11">
      <g>
       <use xlink:href="#m81de3fb391" x="72" y="218.16" style="stroke: #000000; stroke-width: 0.8"/>
      </g>
     </g>
     <g id="text_11">
      <!-- 5.0 -->
      <g transform="translate(49.096875 221.959219) scale(0.1 -0.1)">
       <use xlink:href="#DejaVuSans-35"/>
       <use xlink:href="#DejaVuSans-2e" x="63.623047"/>
       <use xlink:href="#DejaVuSans-30" x="95.410156"/>
      </g>
     </g>
    </g>
    <g id="ytick_6">
     <g id="line2d_12">
      <g>
       <use xlink:href="#m81de3fb391" x="72" y="180.36" style="stroke: #000000; stroke-width: 0.8"/>
      </g>
     </g>
     <g id="text_12">
      <!-- 7.5 -->
      <g transform="translate(49.096875 184.159219) scale(0.1 -0.1)">
       <defs>
        <path id="DejaVuSans-37" d="M 525 4666 
L 3525 4666 
L 3525 4397 
L 1831 0 
L 1172 0 
L 2766 4134 
L 525 4134 
L 525 4666 
z
" transform="scale(0.015625)"/>
       </defs>
       <use xlink:href="#DejaVuSans-37"/>
       <use xlink:href="#DejaVuSans-2e" x="63.623047"/>
       <use xlink:href="#DejaVuSans-35" x="95.410156"/>
      </g>
     </g>
    </g>
    <g id="ytick_7">
     <g id="line2d_13">
      <g>
       <use xlink:href="#m81de3fb391" x="72" y="142.56" style="stroke: #000000; stroke-width: 0.8"/>
      </g>
     </g>
     <g id="text_13">
      <!-- 10.0 -->
      <g transform="translate(42.734375 146.359219) scale(0.1 -0.1)">
       <use xlink:href="#DejaVuSans-31"/>
       <use xlink:href="#DejaVuSans-30" x="63.623047"/>
       <use xlink:href="#DejaVuSans-2e" x="127.246094"/>
       <use xlink:href="#DejaVuSans-30" x="159.033203"/>
      </g>
     </g>
    </g>
    <g id="ytick_8">
     <g id="line2d_14">
      <g>
       <use xlink:href="#m81de3fb391" x="72" y="104.76" style="stroke: #000000; stroke-width: 0.8"/>
      </g>
     </g>
     <g id="text_14">
      <!-- 12.5 -->
      <g transform="translate(42.734375 108.559219) scale(0.1 -0.1)">
       <use xlink:href="#DejaVuSans-31"/>
       <use xlink:href="#DejaVuSans-32" x="63.623047"/>
       <use xlink:href="#DejaVuSans-2e" x="127.246094"/>
       <use xlink:href="#DejaVuSans-35" x="159.033203"/>
      </g>
     </g>
    </g>
    <g id="ytick_9">
     <g id="line2d_15">
      <g>
       <use xlink:href="#m81de3fb391" x="72" y="66.96" style="stroke: #000000; stroke-width: 0.8"/>
      </g>
     </g>
     <g id="text_15">
      <!-- 15.0 -->
      <g transform="translate(42.734375 70.759219) scale(0.1 -0.1)">
       <use xlink:href="#DejaVuSans-31"/>
       <use xlink:href="#DejaVuSans-35" x="63.623047"/>
       <use xlink:href="#DejaVuSans-2e" x="127.246094"/>
       <use xlink:href="#DejaVuSans-30" x="159.033203"/>
      </g>
     </g>
    </g>
   </g>
   <g id="line2d_16">
    <path d="M 92.290909 324.47628 
L 96.349091 324.518616 
L 100.407273 324.6426 
L 104.465455 324.845208 
L 108.523636 325.120392 
L 112.581818 325.45908 
L 116.64 325.855224 
L 120.698182 326.299752 
L 124.756364 326.786616 
L 128.814545 327.308256 
L 132.872727 327.861648 
L 136.930909 328.439232 
L 140.989091 329.039496 
L 145.047273 329.657904 
L 149.105455 330.291432 
L 153.163636 330.937056 
L 157.221818 331.594776 
L 161.28 332.261568 
L 165.338182 332.934408 
L 169.396364 333.614808 
L 173.454545 334.298232 
L 177.512727 334.986192 
L 181.570909 335.675664 
L 185.629091 336.36816 
L 189.687273 337.060656 
L 193.745455 337.754664 
L 197.803636 338.445648 
L 201.861818 339.138144 
L 205.92 339.826104 
L 209.978182 340.514064 
L 214.036364 341.197488 
L 218.094545 341.8794 
L 222.152727 342.555264 
L 226.210909 343.228104 
L 230.269091 343.896408 
L 234.327273 344.560176 
L 238.385455 345.217896 
L 242.443636 345.87108 
L 246.501818 346.516704 
L 250.56 347.15628 
L 254.618182 347.789808 
L 258.676364 348.417288 
L 262.734545 349.037208 
L 266.792727 349.649568 
L 270.850909 350.254368 
L 274.909091 350.851608 
L 278.967273 351.441288 
L 283.025455 352.021896 
L 287.083636 352.594944 
L 291.141818 353.15892 
L 295.2 353.713824 
L 299.258182 354.259656 
L 303.316364 354.797928 
L 307.374545 355.325616 
L 311.432727 355.844232 
L 315.490909 356.353776 
L 319.549091 356.854248 
L 323.607273 357.344136 
L 327.665455 357.824952 
L 331.723636 358.295184 
L 335.781818 358.754832 
L 339.84 359.205408 
L 343.898182 359.6454 
L 347.956364 360.074808 
L 352.014545 360.493632 
L 356.072727 360.901872 
L 360.130909 361.299528 
L 364.189091 361.685088 
L 368.247273 362.061576 
L 372.305455 362.42748 
L 376.363636 362.781288 
L 380.421818 363.124512 
L 384.48 363.457152 
L 388.538182 363.777696 
L 392.596364 364.087656 
L 396.654545 364.38552 
L 400.712727 364.6728 
L 404.770909 364.949496 
L 408.829091 365.214096 
L 412.887273 365.4666 
L 416.945455 365.70852 
L 421.003636 365.938344 
L 425.061818 366.156072 
L 429.12 366.363216 
L 433.178182 366.558264 
L 437.236364 366.741216 
L 441.294545 366.913584 
L 445.352727 367.073856 
L 449.410909 367.222032 
L 453.469091 367.358112 
L 457.527273 367.482096 
L 461.585455 367.595496 
L 465.643636 367.6968 
L 469.701818 367.786008 
L 473.76 367.86312 
L 477.818182 367.928136 
L 481.876364 367.982568 
L 485.934545 368.023392 
L 489.992727 368.053632 
L 494.050909 368.071776 
L 498.109091 368.077824 
" clip-path="url(#p3ebb470723)" style="fill: none; stroke: #000000; stroke-opacity: 0.5; stroke-linecap: square"/>
   </g>
   <g id="line2d_17">
    <path d="M 92.290909 311.829912 
L 96.349091 311.793624 
L 100.407273 311.68476 
L 104.465455 311.507856 
L 108.523636 311.26896 
L 112.581818 310.975632 
L 116.64 310.635432 
L 120.698182 310.25592 
L 124.756364 309.843144 
L 128.814545 309.403152 
L 132.872727 308.94048 
L 136.930909 308.461176 
L 140.989091 307.96524 
L 145.047273 307.45872 
L 149.105455 306.941616 
L 153.163636 306.416952 
L 157.221818 305.88624 
L 161.28 305.34948 
L 165.338182 304.809696 
L 169.396364 304.265376 
L 173.454545 303.71652 
L 177.512727 303.166152 
L 181.570909 302.61276 
L 185.629091 302.056344 
L 189.687273 301.498416 
L 193.745455 300.937464 
L 197.803636 300.375 
L 201.861818 299.808 
L 205.92 299.239488 
L 209.978182 298.667952 
L 214.036364 298.093392 
L 218.094545 297.514296 
L 222.152727 296.933688 
L 226.210909 296.348544 
L 230.269091 295.758864 
L 234.327273 295.16616 
L 238.385455 294.56892 
L 242.443636 293.965632 
L 246.501818 293.35932 
L 250.56 292.748472 
L 254.618182 292.131576 
L 258.676364 291.510144 
L 262.734545 290.882664 
L 266.792727 290.250648 
L 270.850909 289.612584 
L 274.909091 288.968472 
L 278.967273 288.319824 
L 283.025455 287.663616 
L 287.083636 287.002872 
L 291.141818 286.334568 
L 295.2 285.661728 
L 299.258182 284.981328 
L 303.316364 284.29488 
L 307.374545 283.603896 
L 311.432727 282.905352 
L 315.490909 282.20076 
L 319.549091 281.491632 
L 323.607273 280.774944 
L 327.665455 280.052208 
L 331.723636 279.324936 
L 335.781818 278.590104 
L 339.84 277.850736 
L 343.898182 277.106832 
L 347.956364 276.35688 
L 352.014545 275.602392 
L 356.072727 274.841856 
L 360.130909 274.078296 
L 364.189091 273.308688 
L 368.247273 272.537568 
L 372.305455 271.7604 
L 376.363636 270.98172 
L 380.421818 270.200016 
L 384.48 269.4168 
L 388.538182 268.63056 
L 392.596364 267.84432 
L 396.654545 267.056568 
L 400.712727 266.270328 
L 404.770909 265.484088 
L 408.829091 264.700872 
L 412.887273 263.92068 
L 416.945455 263.145024 
L 421.003636 262.373904 
L 425.061818 261.610344 
L 429.12 260.855856 
L 433.178182 260.111952 
L 437.236364 259.381656 
L 441.294545 258.664968 
L 445.352727 257.967936 
L 449.410909 257.292072 
L 453.469091 256.6404 
L 457.527273 256.017456 
L 461.585455 255.427776 
L 465.643636 254.877408 
L 469.701818 254.370888 
L 473.76 253.912752 
L 477.818182 253.512072 
L 481.876364 253.173384 
L 485.934545 252.902736 
L 489.992727 252.704664 
L 494.050909 252.585216 
L 498.109091 252.544392 
" clip-path="url(#p3ebb470723)" style="fill: none; stroke: #000000; stroke-opacity: 0.5; stroke-linecap: square"/>
   </g>
   <g id="line2d_18">
    <path d="M 92.290909 265.178664 
L 96.349091 265.172616 
L 100.407273 265.154472 
L 104.465455 265.124232 
L 108.523636 265.081896 
L 112.581818 265.028976 
L 116.64 264.962448 
L 120.698182 264.885336 
L 124.756364 264.796128 
L 128.814545 264.694824 
L 132.872727 264.581424 
L 136.930909 264.45744 
L 140.989091 264.319848 
L 145.047273 264.171672 
L 149.105455 264.0114 
L 153.163636 263.839032 
L 157.221818 263.65608 
L 161.28 263.461032 
L 165.338182 263.253888 
L 169.396364 263.034648 
L 173.454545 262.804824 
L 177.512727 262.562904 
L 181.570909 262.3104 
L 185.629091 262.0458 
L 189.687273 261.769104 
L 193.745455 261.481824 
L 197.803636 261.18396 
L 201.861818 260.874 
L 205.92 260.553456 
L 209.978182 260.222328 
L 214.036364 259.879104 
L 218.094545 259.525296 
L 222.152727 259.160904 
L 226.210909 258.785928 
L 230.269091 258.398856 
L 234.327273 258.002712 
L 238.385455 257.595984 
L 242.443636 257.178672 
L 246.501818 256.750776 
L 250.56 256.313808 
L 254.618182 255.866256 
L 258.676364 255.40812 
L 262.734545 254.940912 
L 266.792727 254.46312 
L 270.850909 253.977768 
L 274.909091 253.481832 
L 278.967273 252.976824 
L 283.025455 252.462744 
L 287.083636 251.941104 
L 291.141818 251.40888 
L 295.2 250.870608 
L 299.258182 250.323264 
L 303.316364 249.766848 
L 307.374545 249.204384 
L 311.432727 248.63436 
L 315.490909 248.056776 
L 319.549091 247.473144 
L 323.607273 246.881952 
L 327.665455 246.284712 
L 331.723636 245.682936 
L 335.781818 245.075112 
L 339.84 244.46124 
L 343.898182 243.844344 
L 347.956364 243.222912 
L 352.014545 242.598456 
L 356.072727 241.969464 
L 360.130909 241.33896 
L 364.189091 240.706944 
L 368.247273 240.073416 
L 372.305455 239.439888 
L 376.363636 238.804848 
L 380.421818 238.17132 
L 384.48 237.540816 
L 388.538182 236.911824 
L 392.596364 236.287368 
L 396.654545 235.665936 
L 400.712727 235.052064 
L 404.770909 234.44424 
L 408.829091 233.843976 
L 412.887273 233.254296 
L 416.945455 232.6752 
L 421.003636 232.1082 
L 425.061818 231.55632 
L 429.12 231.021072 
L 433.178182 230.503968 
L 437.236364 230.009544 
L 441.294545 229.542336 
L 445.352727 229.11444 
L 449.410909 228.760632 
L 453.469091 228.610944 
L 457.527273 228.831696 
L 461.585455 229.226328 
L 465.643636 229.645152 
L 469.701818 230.05188 
L 473.76 230.426856 
L 477.818182 230.761008 
L 481.876364 231.046776 
L 485.934545 231.278112 
L 489.992727 231.447456 
L 494.050909 231.550272 
L 498.109091 231.585048 
" clip-path="url(#p3ebb470723)" style="fill: none; stroke: #000000; stroke-opacity: 0.5; stroke-linecap: square"/>
   </g>
   <g id="line2d_19">
    <path d="M 92.290909 252.458208 
L 96.349091 252.438552 
L 100.407273 252.381096 
L 104.465455 252.28584 
L 108.523636 252.152784 
L 112.581818 251.981928 
L 116.64 251.774784 
L 120.698182 251.52984 
L 124.756364 251.248608 
L 128.814545 250.9326 
L 132.872727 250.580304 
L 136.930909 250.194744 
L 140.989091 249.77592 
L 145.047273 249.323832 
L 149.105455 248.841504 
L 153.163636 248.327424 
L 157.221818 247.783104 
L 161.28 247.211568 
L 165.338182 246.611304 
L 169.396364 245.985336 
L 173.454545 245.335176 
L 177.512727 244.660824 
L 181.570909 243.963792 
L 185.629091 243.247104 
L 189.687273 242.509248 
L 193.745455 241.75476 
L 197.803636 240.98364 
L 201.861818 240.195888 
L 205.92 239.39604 
L 209.978182 238.584096 
L 214.036364 237.76308 
L 218.094545 236.93148 
L 222.152727 236.095344 
L 226.210909 235.25316 
L 230.269091 234.407952 
L 234.327273 233.562744 
L 238.385455 232.717536 
L 242.443636 231.876864 
L 246.501818 231.040728 
L 250.56 230.212152 
L 254.618182 229.392648 
L 258.676364 228.58524 
L 262.734545 227.79144 
L 266.792727 227.015784 
L 270.850909 226.258272 
L 274.909091 225.52344 
L 278.967273 224.8128 
L 283.025455 224.127864 
L 287.083636 223.471656 
L 291.141818 222.8472 
L 295.2 222.25752 
L 299.258182 221.702616 
L 303.316364 221.185512 
L 307.374545 220.709232 
L 311.432727 220.273776 
L 315.490909 219.880656 
L 319.549091 219.532896 
L 323.607273 219.228984 
L 327.665455 218.971944 
L 331.723636 218.760264 
L 335.781818 218.593944 
L 339.84 218.474496 
L 343.898182 218.400408 
L 347.956364 218.370168 
L 352.014545 218.385288 
L 356.072727 218.441232 
L 360.130909 218.539512 
L 364.189091 218.678616 
L 368.247273 218.854008 
L 372.305455 219.0672 
L 376.363636 219.315168 
L 380.421818 219.597912 
L 384.48 219.910896 
L 388.538182 220.252608 
L 392.596364 220.623048 
L 396.654545 221.019192 
L 400.712727 221.439528 
L 404.770909 221.881032 
L 408.829091 222.343704 
L 412.887273 222.823008 
L 416.945455 223.317432 
L 421.003636 223.825464 
L 425.061818 224.34408 
L 429.12 224.868744 
L 433.178182 225.397944 
L 437.236364 225.927144 
L 441.294545 226.448784 
L 445.352727 226.950768 
L 449.410909 227.396808 
L 453.469091 227.652336 
L 457.527273 227.548008 
L 461.585455 227.280384 
L 465.643636 226.991592 
L 469.701818 226.719432 
L 473.76 226.474488 
L 477.818182 226.262808 
L 481.876364 226.084392 
L 485.934545 225.945288 
L 489.992727 225.845496 
L 494.050909 225.783504 
L 498.109091 225.763848 
" clip-path="url(#p3ebb470723)" style="fill: none; stroke: #000000; stroke-opacity: 0.5; stroke-linecap: square"/>
   </g>
   <g id="line2d_20">
    <path d="M 92.290909 157.835736 
L 96.349091 157.829688 
L 100.407273 157.813056 
L 104.465455 157.784328 
L 108.523636 157.743504 
L 112.581818 157.692096 
L 116.64 157.628592 
L 120.698182 157.554504 
L 124.756364 157.469832 
L 128.814545 157.373064 
L 132.872727 157.2642 
L 136.930909 157.144752 
L 140.989091 157.01472 
L 145.047273 156.872592 
L 149.105455 156.721392 
L 153.163636 156.558096 
L 157.221818 156.382704 
L 161.28 156.19824 
L 165.338182 156.003192 
L 169.396364 155.79756 
L 173.454545 155.581344 
L 177.512727 155.356056 
L 181.570909 155.120184 
L 185.629091 154.87524 
L 189.687273 154.621224 
L 193.745455 154.358136 
L 197.803636 154.092024 
L 201.861818 153.83196 
L 205.92 153.700416 
L 209.978182 154.226592 
L 214.036364 154.962936 
L 218.094545 155.700792 
L 222.152727 156.422016 
L 226.210909 157.122072 
L 230.269091 157.799448 
L 234.327273 158.45112 
L 238.385455 159.077088 
L 242.443636 159.67584 
L 246.501818 160.245864 
L 250.56 160.785648 
L 254.618182 161.295192 
L 258.676364 161.76996 
L 262.734545 162.212976 
L 266.792727 162.618192 
L 270.850909 162.988632 
L 274.909091 163.31976 
L 278.967273 163.610064 
L 283.025455 163.861056 
L 287.083636 164.0682 
L 291.141818 164.231496 
L 295.2 164.350944 
L 299.258182 164.425032 
L 303.316364 164.452248 
L 307.374545 164.432592 
L 311.432727 164.367576 
L 315.490909 164.255688 
L 319.549091 164.099952 
L 323.607273 163.900368 
L 327.665455 163.661472 
L 331.723636 163.384776 
L 335.781818 163.07784 
L 339.84 162.748224 
L 343.898182 162.403488 
L 347.956364 162.063288 
L 352.014545 161.74728 
L 356.072727 161.49024 
L 360.130909 161.336016 
L 364.189091 161.332992 
L 368.247273 161.521992 
L 372.305455 161.909064 
L 376.363636 162.46548 
L 380.421818 163.14588 
L 384.48 163.907928 
L 388.538182 164.716848 
L 392.596364 165.552984 
L 396.654545 166.398192 
L 400.712727 167.244912 
L 404.770909 168.08256 
L 408.829091 168.9066 
L 412.887273 169.71552 
L 416.945455 170.50176 
L 421.003636 171.266832 
L 425.061818 172.0062 
L 429.12 172.718352 
L 433.178182 173.401776 
L 437.236364 174.05496 
L 441.294545 174.67488 
L 445.352727 175.263048 
L 449.410909 175.813416 
L 453.469091 176.329008 
L 457.527273 176.805288 
L 461.585455 177.242256 
L 465.643636 177.636888 
L 469.701818 177.989184 
L 473.76 178.297632 
L 477.818182 178.562232 
L 481.876364 178.778448 
L 485.934545 178.949304 
L 489.992727 179.070264 
L 494.050909 179.144352 
L 498.109091 179.168544 
" clip-path="url(#p3ebb470723)" style="fill: none; stroke: #000000; stroke-opacity: 0.5; stroke-linecap: square"/>
   </g>
   <g id="line2d_21">
    <path d="M 92.290909 133.717824 
L 96.349091 133.740504 
L 100.407273 133.814592 
L 104.465455 133.944624 
L 108.523636 134.141184 
L 112.581818 134.41788 
L 116.64 134.789832 
L 120.698182 135.263088 
L 124.756364 135.842184 
L 128.814545 136.518048 
L 132.872727 137.274048 
L 136.930909 138.095064 
L 140.989091 138.962952 
L 145.047273 139.864104 
L 149.105455 140.787936 
L 153.163636 141.723864 
L 157.221818 142.66584 
L 161.28 143.609328 
L 165.338182 144.549792 
L 169.396364 145.48572 
L 173.454545 146.412576 
L 177.512727 147.328848 
L 181.570909 148.234536 
L 185.629091 149.125104 
L 189.687273 150.000552 
L 193.745455 150.859368 
L 197.803636 151.695504 
L 201.861818 152.498376 
L 205.92 153.145512 
L 209.978182 153.1062 
L 214.036364 152.827992 
L 218.094545 152.518032 
L 222.152727 152.192952 
L 226.210909 151.8588 
L 230.269091 151.514064 
L 234.327273 151.161768 
L 238.385455 150.801912 
L 242.443636 150.432984 
L 246.501818 150.058008 
L 250.56 149.676984 
L 254.618182 149.2884 
L 258.676364 148.89528 
L 262.734545 148.4946 
L 266.792727 148.089384 
L 270.850909 147.679632 
L 274.909091 147.265344 
L 278.967273 146.84652 
L 283.025455 146.42316 
L 287.083636 145.998288 
L 291.141818 145.570392 
L 295.2 145.139472 
L 299.258182 144.710064 
L 303.316364 144.279144 
L 307.374545 143.854272 
L 311.432727 143.439984 
L 315.490909 143.075592 
L 319.549091 143.046864 
L 323.607273 143.963136 
L 327.665455 145.14552 
L 331.723636 146.343024 
L 335.781818 147.51936 
L 339.84 148.66092 
L 343.898182 149.754096 
L 347.956364 150.783768 
L 352.014545 151.728768 
L 356.072727 152.557344 
L 360.130909 153.22716 
L 364.189091 153.691344 
L 368.247273 153.912096 
L 372.305455 153.886392 
L 376.363636 153.644472 
L 380.421818 153.237744 
L 384.48 152.711568 
L 388.538182 152.102232 
L 392.596364 151.436952 
L 396.654545 150.73992 
L 400.712727 150.026256 
L 404.770909 149.312592 
L 408.829091 148.614048 
L 412.887273 147.948768 
L 416.945455 147.334896 
L 421.003636 146.795112 
L 425.061818 146.350584 
L 429.12 146.019456 
L 433.178182 145.812312 
L 437.236364 145.730664 
L 441.294545 145.760904 
L 445.352727 145.881864 
L 449.410909 146.066328 
L 453.469091 146.293128 
L 457.527273 146.542608 
L 461.585455 146.798136 
L 465.643636 147.047616 
L 469.701818 147.283488 
L 473.76 147.498192 
L 477.818182 147.68568 
L 481.876364 147.84444 
L 485.934545 147.969936 
L 489.992727 148.060656 
L 494.050909 148.115088 
L 498.109091 148.134744 
" clip-path="url(#p3ebb470723)" style="fill: none; stroke: #000000; stroke-opacity: 0.5; stroke-linecap: square"/>
   </g>
   <g id="line2d_22">
    <path d="M 92.290909 122.287104 
L 96.349091 122.85864 
L 100.407273 123.793056 
L 104.465455 124.727472 
L 108.523636 125.601408 
L 112.581818 126.387648 
L 116.64 127.065024 
L 120.698182 127.62144 
L 124.756364 128.05236 
L 128.814545 128.363832 
L 132.872727 128.570976 
L 136.930909 128.690424 
L 140.989091 128.735784 
L 145.047273 128.720664 
L 149.105455 128.658672 
L 153.163636 128.554344 
L 157.221818 128.413728 
L 161.28 128.244384 
L 165.338182 128.047824 
L 169.396364 127.827072 
L 173.454545 127.582128 
L 177.512727 127.317528 
L 181.570909 127.033272 
L 185.629091 126.72936 
L 189.687273 126.408816 
L 193.745455 126.070128 
L 197.803636 125.714808 
L 201.861818 125.344368 
L 205.92 124.957296 
L 209.978182 124.558128 
L 214.036364 124.14384 
L 218.094545 123.718968 
L 222.152727 123.285024 
L 226.210909 122.84352 
L 230.269091 122.400504 
L 234.327273 121.965048 
L 238.385455 121.552272 
L 242.443636 121.193928 
L 246.501818 120.956544 
L 250.56 120.9762 
L 254.618182 121.419216 
L 258.676364 122.2992 
L 262.734545 123.451344 
L 266.792727 124.74108 
L 270.850909 126.092808 
L 274.909091 127.476288 
L 278.967273 128.873376 
L 283.025455 130.275 
L 287.083636 131.6736 
L 291.141818 133.067664 
L 295.2 134.451144 
L 299.258182 135.82404 
L 303.316364 137.181816 
L 307.374545 138.519936 
L 311.432727 139.829328 
L 315.490909 141.072192 
L 319.549091 141.959736 
L 323.607273 141.8796 
L 327.665455 141.50916 
L 331.723636 141.094872 
L 335.781818 140.671512 
L 339.84 140.245128 
L 343.898182 139.818744 
L 347.956364 139.393872 
L 352.014545 138.972024 
L 356.072727 138.5532 
L 360.130909 138.140424 
L 364.189091 137.733696 
L 368.247273 137.333016 
L 372.305455 136.939896 
L 376.363636 136.555848 
L 380.421818 136.182384 
L 384.48 135.822528 
L 388.538182 135.479304 
L 392.596364 135.15876 
L 396.654545 134.874504 
L 400.712727 134.655264 
L 404.770909 134.552448 
L 408.829091 134.647704 
L 412.887273 134.944056 
L 416.945455 135.33264 
L 421.003636 135.70308 
L 425.061818 135.988848 
L 429.12 136.15668 
L 433.178182 136.188432 
L 437.236364 136.085616 
L 441.294545 135.863352 
L 445.352727 135.548856 
L 449.410909 135.170856 
L 453.469091 134.762616 
L 457.527273 134.345304 
L 461.585455 133.9416 
L 465.643636 133.566624 
L 469.701818 133.23096 
L 473.76 132.939144 
L 477.818182 132.6942 
L 481.876364 132.49764 
L 485.934545 132.347952 
L 489.992727 132.2406 
L 494.050909 132.178608 
L 498.109091 132.15744 
" clip-path="url(#p3ebb470723)" style="fill: none; stroke: #000000; stroke-opacity: 0.5; stroke-linecap: square"/>
   </g>
   <g id="line2d_23">
    <path d="M 92.290909 120.793248 
L 96.349091 120.177864 
L 100.407273 119.111904 
L 104.465455 117.949176 
L 108.523636 116.741088 
L 112.581818 115.501248 
L 116.64 114.237216 
L 120.698182 112.950504 
L 124.756364 111.645648 
L 128.814545 110.32416 
L 132.872727 108.987552 
L 136.930909 107.637336 
L 140.989091 106.272 
L 145.047273 104.89608 
L 149.105455 103.508064 
L 153.163636 102.107952 
L 157.221818 100.698768 
L 161.28 99.280512 
L 165.338182 97.854696 
L 169.396364 96.419808 
L 173.454545 94.980384 
L 177.512727 93.537936 
L 181.570909 92.177136 
L 185.629091 93.199248 
L 189.687273 94.741488 
L 193.745455 96.291288 
L 197.803636 97.8426 
L 201.861818 99.390888 
L 205.92 100.936152 
L 209.978182 102.478392 
L 214.036364 104.013072 
L 218.094545 105.541704 
L 222.152727 107.05824 
L 226.210909 108.56268 
L 230.269091 110.048976 
L 234.327273 111.506544 
L 238.385455 112.918752 
L 242.443636 114.256872 
L 246.501818 115.451352 
L 250.56 116.367624 
L 254.618182 116.834832 
L 258.676364 116.845416 
L 262.734545 116.558136 
L 266.792727 116.112096 
L 270.850909 115.576848 
L 274.909091 114.98868 
L 278.967273 114.362712 
L 283.025455 113.708016 
L 287.083636 113.032152 
L 291.141818 112.338144 
L 295.2 111.635064 
L 299.258182 110.924424 
L 303.316364 110.221344 
L 307.374545 109.542456 
L 311.432727 108.936144 
L 315.490909 108.520344 
L 319.549091 108.561168 
L 323.607273 109.247616 
L 327.665455 110.352888 
L 331.723636 111.622968 
L 335.781818 112.953528 
L 339.84 114.302232 
L 343.898182 115.647912 
L 347.956364 116.983008 
L 352.014545 118.29996 
L 356.072727 119.597256 
L 360.130909 120.868848 
L 364.189091 122.116248 
L 368.247273 123.331896 
L 372.305455 124.517304 
L 376.363636 125.666424 
L 380.421818 126.776232 
L 384.48 127.843704 
L 388.538182 128.86128 
L 392.596364 129.816864 
L 396.654545 130.695336 
L 400.712727 131.463432 
L 404.770909 132.05916 
L 408.829091 132.396336 
L 412.887273 132.455304 
L 416.945455 132.335856 
L 421.003636 132.130224 
L 425.061818 131.883768 
L 429.12 131.619168 
L 433.178182 131.343984 
L 437.236364 131.062752 
L 441.294545 130.775472 
L 445.352727 130.485168 
L 449.410909 130.188816 
L 453.469091 129.886416 
L 457.527273 129.576456 
L 461.585455 129.26196 
L 465.643636 128.945952 
L 469.701818 128.63448 
L 473.76 128.33208 
L 477.818182 128.05236 
L 481.876364 127.805904 
L 485.934545 127.600272 
L 489.992727 127.446048 
L 494.050909 127.350792 
L 498.109091 127.317528 
" clip-path="url(#p3ebb470723)" style="fill: none; stroke: #000000; stroke-opacity: 0.5; stroke-linecap: square"/>
   </g>
   <g id="patch_3">
    <path d="M 72 384.48 
L 72 51.84 
" style="fill: none; stroke: #000000; stroke-width: 0.8; stroke-linejoin: miter; stroke-linecap: square"/>
   </g>
   <g id="patch_4">
    <path d="M 518.4 384.48 
L 518.4 51.84 
" style="fill: none; stroke: #000000; stroke-width: 0.8; stroke-linejoin: miter; stroke-linecap: square"/>
   </g>
   <g id="patch_5">
    <path d="M 72 384.48 
L 518.4 384.48 
" style="fill: none; stroke: #000000; stroke-width: 0.8; stroke-linejoin: miter; stroke-linecap: square"/>
   </g>
   <g id="patch_6">
    <path d="M 72 51.84 
L 518.4 51.84 
" style="fill: none; stroke: #000000; stroke-width: 0.8; stroke-linejoin: miter; stroke-linecap: square"/>
   </g>
  </g>
 </g>
 <defs>
  <clipPath id="p3ebb470723">
   <rect x="72" y="51.84" width="446.4" height="332.64"/>
  </clipPath>
 </defs>
</svg>
