<?xml version="1.0" encoding="utf-8" standalone="no"?>
<!DOCTYPE svg PUBLIC "-//W3C//DTD SVG 1.1//EN"
  "http://www.w3.org/Graphics/SVG/1.1/DTD/svg11.dtd">
<svg xmlns:xlink="http://www.w3.org/1999/xlink" width="576pt" height="432pt" viewBox="0 0 576 432" xmlns="http://www.w3.org/2000/svg" version="1.1">
 <metadata>
  <rdf:RDF xmlns:dc="http://purl.org/dc/elements/1.1/" xmlns:cc="http://creativecommons.org/ns#" xmlns:rdf="http://www.w3.org/1999/02/22-rdf-syntax-ns#">
   <cc:Work>
    <dc:type rdf:resource="http://purl.org/dc/dcmitype/StillImage"/>
    <dc:date>2023-05-04T13:29:12.700967</dc:date>
    <dc:format>image/svg+xml</dc:format>
    <dc:creator>
     <cc:Agent>
      <dc:title>Matplotlib v3.7.1, https://matplotlib.org/</dc:title>
     </cc:Agent>
    </dc:creator>
   </cc:Work>
  </rdf:RDF>
 </metadata>
 <defs>
  <style type="text/css">*{stroke-linejoin: round; stroke-linecap: butt}</style>
 </defs>
 <g id="figure_1">
  <g id="patch_1">
   <path d="M 0 432 
L 576 432 
L 576 0 
L 0 0 
z
" style="fill: #ffffff"/>
  </g>
  <g id="axes_1">
   <g id="patch_2">
    <path d="M 72 384.48 
L 518.4 384.48 
L 518.4 51.84 
L 72 51.84 
z
" style="fill: #ffffff"/>
   </g>
   <g id="matplotlib.axis_1">
    <g id="xtick_1">
     <g id="line2d_1">
      <defs>
       <path id="m290070ad74" d="M 0 0 
L 0 3.5 
" style="stroke: #000000; stroke-width: 0.8"/>
      </defs>
      <g>
       <use xlink:href="#m290070ad74" x="92.290909" y="384.48" style="stroke: #000000; stroke-width: 0.8"/>
      </g>
     </g>
     <g id="text_1">
      <!-- 0.0 -->
      <g transform="translate(84.339347 399.078438) scale(0.1 -0.1)">
       <defs>
        <path id="DejaVuSans-30" d="M 2034 4250 
Q 1547 4250 1301 3770 
Q 1056 3291 1056 2328 
Q 1056 1369 1301 889 
Q 1547 409 2034 409 
Q 2525 409 2770 889 
Q 3016 1369 3016 2328 
Q 3016 3291 2770 3770 
Q 2525 4250 2034 4250 
z
M 2034 4750 
Q 2819 4750 3233 4129 
Q 3647 3509 3647 2328 
Q 3647 1150 3233 529 
Q 2819 -91 2034 -91 
Q 1250 -91 836 529 
Q 422 1150 422 2328 
Q 422 3509 836 4129 
Q 1250 4750 2034 4750 
z
" transform="scale(0.015625)"/>
        <path id="DejaVuSans-2e" d="M 684 794 
L 1344 794 
L 1344 0 
L 684 0 
L 684 794 
z
" transform="scale(0.015625)"/>
       </defs>
       <use xlink:href="#DejaVuSans-30"/>
       <use xlink:href="#DejaVuSans-2e" x="63.623047"/>
       <use xlink:href="#DejaVuSans-30" x="95.410156"/>
      </g>
     </g>
    </g>
    <g id="xtick_2">
     <g id="line2d_2">
      <g>
       <use xlink:href="#m290070ad74" x="173.454545" y="384.48" style="stroke: #000000; stroke-width: 0.8"/>
      </g>
     </g>
     <g id="text_2">
      <!-- 0.2 -->
      <g transform="translate(165.502983 399.078438) scale(0.1 -0.1)">
       <defs>
        <path id="DejaVuSans-32" d="M 1228 531 
L 3431 531 
L 3431 0 
L 469 0 
L 469 531 
Q 828 903 1448 1529 
Q 2069 2156 2228 2338 
Q 2531 2678 2651 2914 
Q 2772 3150 2772 3378 
Q 2772 3750 2511 3984 
Q 2250 4219 1831 4219 
Q 1534 4219 1204 4116 
Q 875 4013 500 3803 
L 500 4441 
Q 881 4594 1212 4672 
Q 1544 4750 1819 4750 
Q 2544 4750 2975 4387 
Q 3406 4025 3406 3419 
Q 3406 3131 3298 2873 
Q 3191 2616 2906 2266 
Q 2828 2175 2409 1742 
Q 1991 1309 1228 531 
z
" transform="scale(0.015625)"/>
       </defs>
       <use xlink:href="#DejaVuSans-30"/>
       <use xlink:href="#DejaVuSans-2e" x="63.623047"/>
       <use xlink:href="#DejaVuSans-32" x="95.410156"/>
      </g>
     </g>
    </g>
    <g id="xtick_3">
     <g id="line2d_3">
      <g>
       <use xlink:href="#m290070ad74" x="254.618182" y="384.48" style="stroke: #000000; stroke-width: 0.8"/>
      </g>
     </g>
     <g id="text_3">
      <!-- 0.4 -->
      <g transform="translate(246.666619 399.078438) scale(0.1 -0.1)">
       <defs>
        <path id="DejaVuSans-34" d="M 2419 4116 
L 825 1625 
L 2419 1625 
L 2419 4116 
z
M 2253 4666 
L 3047 4666 
L 3047 1625 
L 3713 1625 
L 3713 1100 
L 3047 1100 
L 3047 0 
L 2419 0 
L 2419 1100 
L 313 1100 
L 313 1709 
L 2253 4666 
z
" transform="scale(0.015625)"/>
       </defs>
       <use xlink:href="#DejaVuSans-30"/>
       <use xlink:href="#DejaVuSans-2e" x="63.623047"/>
       <use xlink:href="#DejaVuSans-34" x="95.410156"/>
      </g>
     </g>
    </g>
    <g id="xtick_4">
     <g id="line2d_4">
      <g>
       <use xlink:href="#m290070ad74" x="335.781818" y="384.48" style="stroke: #000000; stroke-width: 0.8"/>
      </g>
     </g>
     <g id="text_4">
      <!-- 0.6 -->
      <g transform="translate(327.830256 399.078438) scale(0.1 -0.1)">
       <defs>
        <path id="DejaVuSans-36" d="M 2113 2584 
Q 1688 2584 1439 2293 
Q 1191 2003 1191 1497 
Q 1191 994 1439 701 
Q 1688 409 2113 409 
Q 2538 409 2786 701 
Q 3034 994 3034 1497 
Q 3034 2003 2786 2293 
Q 2538 2584 2113 2584 
z
M 3366 4563 
L 3366 3988 
Q 3128 4100 2886 4159 
Q 2644 4219 2406 4219 
Q 1781 4219 1451 3797 
Q 1122 3375 1075 2522 
Q 1259 2794 1537 2939 
Q 1816 3084 2150 3084 
Q 2853 3084 3261 2657 
Q 3669 2231 3669 1497 
Q 3669 778 3244 343 
Q 2819 -91 2113 -91 
Q 1303 -91 875 529 
Q 447 1150 447 2328 
Q 447 3434 972 4092 
Q 1497 4750 2381 4750 
Q 2619 4750 2861 4703 
Q 3103 4656 3366 4563 
z
" transform="scale(0.015625)"/>
       </defs>
       <use xlink:href="#DejaVuSans-30"/>
       <use xlink:href="#DejaVuSans-2e" x="63.623047"/>
       <use xlink:href="#DejaVuSans-36" x="95.410156"/>
      </g>
     </g>
    </g>
    <g id="xtick_5">
     <g id="line2d_5">
      <g>
       <use xlink:href="#m290070ad74" x="416.945455" y="384.48" style="stroke: #000000; stroke-width: 0.8"/>
      </g>
     </g>
     <g id="text_5">
      <!-- 0.8 -->
      <g transform="translate(408.993892 399.078438) scale(0.1 -0.1)">
       <defs>
        <path id="DejaVuSans-38" d="M 2034 2216 
Q 1584 2216 1326 1975 
Q 1069 1734 1069 1313 
Q 1069 891 1326 650 
Q 1584 409 2034 409 
Q 2484 409 2743 651 
Q 3003 894 3003 1313 
Q 3003 1734 2745 1975 
Q 2488 2216 2034 2216 
z
M 1403 2484 
Q 997 2584 770 2862 
Q 544 3141 544 3541 
Q 544 4100 942 4425 
Q 1341 4750 2034 4750 
Q 2731 4750 3128 4425 
Q 3525 4100 3525 3541 
Q 3525 3141 3298 2862 
Q 3072 2584 2669 2484 
Q 3125 2378 3379 2068 
Q 3634 1759 3634 1313 
Q 3634 634 3220 271 
Q 2806 -91 2034 -91 
Q 1263 -91 848 271 
Q 434 634 434 1313 
Q 434 1759 690 2068 
Q 947 2378 1403 2484 
z
M 1172 3481 
Q 1172 3119 1398 2916 
Q 1625 2713 2034 2713 
Q 2441 2713 2670 2916 
Q 2900 3119 2900 3481 
Q 2900 3844 2670 4047 
Q 2441 4250 2034 4250 
Q 1625 4250 1398 4047 
Q 1172 3844 1172 3481 
z
" transform="scale(0.015625)"/>
       </defs>
       <use xlink:href="#DejaVuSans-30"/>
       <use xlink:href="#DejaVuSans-2e" x="63.623047"/>
       <use xlink:href="#DejaVuSans-38" x="95.410156"/>
      </g>
     </g>
    </g>
    <g id="xtick_6">
     <g id="line2d_6">
      <g>
       <use xlink:href="#m290070ad74" x="498.109091" y="384.48" style="stroke: #000000; stroke-width: 0.8"/>
      </g>
     </g>
     <g id="text_6">
      <!-- 1.0 -->
      <g transform="translate(490.157528 399.078438) scale(0.1 -0.1)">
       <defs>
        <path id="DejaVuSans-31" d="M 794 531 
L 1825 531 
L 1825 4091 
L 703 3866 
L 703 4441 
L 1819 4666 
L 2450 4666 
L 2450 531 
L 3481 531 
L 3481 0 
L 794 0 
L 794 531 
z
" transform="scale(0.015625)"/>
       </defs>
       <use xlink:href="#DejaVuSans-31"/>
       <use xlink:href="#DejaVuSans-2e" x="63.623047"/>
       <use xlink:href="#DejaVuSans-30" x="95.410156"/>
      </g>
     </g>
    </g>
   </g>
   <g id="matplotlib.axis_2">
    <g id="ytick_1">
     <g id="line2d_7">
      <defs>
       <path id="md92afa561c" d="M 0 0 
L -3.5 0 
" style="stroke: #000000; stroke-width: 0.8"/>
      </defs>
      <g>
       <use xlink:href="#md92afa561c" x="72" y="369.36" style="stroke: #000000; stroke-width: 0.8"/>
      </g>
     </g>
     <g id="text_7">
      <!-- −5.0 -->
      <g transform="translate(40.717187 373.159219) scale(0.1 -0.1)">
       <defs>
        <path id="DejaVuSans-2212" d="M 678 2272 
L 4684 2272 
L 4684 1741 
L 678 1741 
L 678 2272 
z
" transform="scale(0.015625)"/>
        <path id="DejaVuSans-35" d="M 691 4666 
L 3169 4666 
L 3169 4134 
L 1269 4134 
L 1269 2991 
Q 1406 3038 1543 3061 
Q 1681 3084 1819 3084 
Q 2600 3084 3056 2656 
Q 3513 2228 3513 1497 
Q 3513 744 3044 326 
Q 2575 -91 1722 -91 
Q 1428 -91 1123 -41 
Q 819 9 494 109 
L 494 744 
Q 775 591 1075 516 
Q 1375 441 1709 441 
Q 2250 441 2565 725 
Q 2881 1009 2881 1497 
Q 2881 1984 2565 2268 
Q 2250 2553 1709 2553 
Q 1456 2553 1204 2497 
Q 953 2441 691 2322 
L 691 4666 
z
" transform="scale(0.015625)"/>
       </defs>
       <use xlink:href="#DejaVuSans-2212"/>
       <use xlink:href="#DejaVuSans-35" x="83.789062"/>
       <use xlink:href="#DejaVuSans-2e" x="147.412109"/>
       <use xlink:href="#DejaVuSans-30" x="179.199219"/>
      </g>
     </g>
    </g>
    <g id="ytick_2">
     <g id="line2d_8">
      <g>
       <use xlink:href="#md92afa561c" x="72" y="331.56" style="stroke: #000000; stroke-width: 0.8"/>
      </g>
     </g>
     <g id="text_8">
      <!-- −2.5 -->
      <g transform="translate(40.717187 335.359219) scale(0.1 -0.1)">
       <use xlink:href="#DejaVuSans-2212"/>
       <use xlink:href="#DejaVuSans-32" x="83.789062"/>
       <use xlink:href="#DejaVuSans-2e" x="147.412109"/>
       <use xlink:href="#DejaVuSans-35" x="179.199219"/>
      </g>
     </g>
    </g>
    <g id="ytick_3">
     <g id="line2d_9">
      <g>
       <use xlink:href="#md92afa561c" x="72" y="293.76" style="stroke: #000000; stroke-width: 0.8"/>
      </g>
     </g>
     <g id="text_9">
      <!-- 0.0 -->
      <g transform="translate(49.096875 297.559219) scale(0.1 -0.1)">
       <use xlink:href="#DejaVuSans-30"/>
       <use xlink:href="#DejaVuSans-2e" x="63.623047"/>
       <use xlink:href="#DejaVuSans-30" x="95.410156"/>
      </g>
     </g>
    </g>
    <g id="ytick_4">
     <g id="line2d_10">
      <g>
       <use xlink:href="#md92afa561c" x="72" y="255.96" style="stroke: #000000; stroke-width: 0.8"/>
      </g>
     </g>
     <g id="text_10">
      <!-- 2.5 -->
      <g transform="translate(49.096875 259.759219) scale(0.1 -0.1)">
       <use xlink:href="#DejaVuSans-32"/>
       <use xlink:href="#DejaVuSans-2e" x="63.623047"/>
       <use xlink:href="#DejaVuSans-35" x="95.410156"/>
      </g>
     </g>
    </g>
    <g id="ytick_5">
     <g id="line2d_11">
      <g>
       <use xlink:href="#md92afa561c" x="72" y="218.16" style="stroke: #000000; stroke-width: 0.8"/>
      </g>
     </g>
     <g id="text_11">
      <!-- 5.0 -->
      <g transform="translate(49.096875 221.959219) scale(0.1 -0.1)">
       <use xlink:href="#DejaVuSans-35"/>
       <use xlink:href="#DejaVuSans-2e" x="63.623047"/>
       <use xlink:href="#DejaVuSans-30" x="95.410156"/>
      </g>
     </g>
    </g>
    <g id="ytick_6">
     <g id="line2d_12">
      <g>
       <use xlink:href="#md92afa561c" x="72" y="180.36" style="stroke: #000000; stroke-width: 0.8"/>
      </g>
     </g>
     <g id="text_12">
      <!-- 7.5 -->
      <g transform="translate(49.096875 184.159219) scale(0.1 -0.1)">
       <defs>
        <path id="DejaVuSans-37" d="M 525 4666 
L 3525 4666 
L 3525 4397 
L 1831 0 
L 1172 0 
L 2766 4134 
L 525 4134 
L 525 4666 
z
" transform="scale(0.015625)"/>
       </defs>
       <use xlink:href="#DejaVuSans-37"/>
       <use xlink:href="#DejaVuSans-2e" x="63.623047"/>
       <use xlink:href="#DejaVuSans-35" x="95.410156"/>
      </g>
     </g>
    </g>
    <g id="ytick_7">
     <g id="line2d_13">
      <g>
       <use xlink:href="#md92afa561c" x="72" y="142.56" style="stroke: #000000; stroke-width: 0.8"/>
      </g>
     </g>
     <g id="text_13">
      <!-- 10.0 -->
      <g transform="translate(42.734375 146.359219) scale(0.1 -0.1)">
       <use xlink:href="#DejaVuSans-31"/>
       <use xlink:href="#DejaVuSans-30" x="63.623047"/>
       <use xlink:href="#DejaVuSans-2e" x="127.246094"/>
       <use xlink:href="#DejaVuSans-30" x="159.033203"/>
      </g>
     </g>
    </g>
    <g id="ytick_8">
     <g id="line2d_14">
      <g>
       <use xlink:href="#md92afa561c" x="72" y="104.76" style="stroke: #000000; stroke-width: 0.8"/>
      </g>
     </g>
     <g id="text_14">
      <!-- 12.5 -->
      <g transform="translate(42.734375 108.559219) scale(0.1 -0.1)">
       <use xlink:href="#DejaVuSans-31"/>
       <use xlink:href="#DejaVuSans-32" x="63.623047"/>
       <use xlink:href="#DejaVuSans-2e" x="127.246094"/>
       <use xlink:href="#DejaVuSans-35" x="159.033203"/>
      </g>
     </g>
    </g>
    <g id="ytick_9">
     <g id="line2d_15">
      <g>
       <use xlink:href="#md92afa561c" x="72" y="66.96" style="stroke: #000000; stroke-width: 0.8"/>
      </g>
     </g>
     <g id="text_15">
      <!-- 15.0 -->
      <g transform="translate(42.734375 70.759219) scale(0.1 -0.1)">
       <use xlink:href="#DejaVuSans-31"/>
       <use xlink:href="#DejaVuSans-35" x="63.623047"/>
       <use xlink:href="#DejaVuSans-2e" x="127.246094"/>
       <use xlink:href="#DejaVuSans-30" x="159.033203"/>
      </g>
     </g>
    </g>
   </g>
   <g id="line2d_16">
    <path d="M 92.290909 325.604232 
L 96.349091 325.60272 
L 100.407273 325.59516 
L 104.465455 325.584576 
L 108.523636 325.569456 
L 112.581818 325.551312 
L 116.64 325.52712 
L 120.698182 325.501416 
L 124.756364 325.469664 
L 128.814545 325.434888 
L 132.872727 325.397088 
L 136.930909 325.354752 
L 140.989091 325.309392 
L 145.047273 325.261008 
L 149.105455 325.211112 
L 153.163636 325.15668 
L 157.221818 325.100736 
L 161.28 325.04328 
L 165.338182 324.9828 
L 169.396364 324.920808 
L 173.454545 324.858816 
L 177.512727 324.795312 
L 181.570909 324.731808 
L 185.629091 324.668304 
L 189.687273 324.603288 
L 193.745455 324.541296 
L 197.803636 324.479304 
L 201.861818 324.418824 
L 205.92 324.359856 
L 209.978182 324.303912 
L 214.036364 324.250992 
L 218.094545 324.201096 
L 222.152727 324.154224 
L 226.210909 324.111888 
L 230.269091 324.074088 
L 234.327273 324.040824 
L 238.385455 324.013608 
L 242.443636 323.990928 
L 246.501818 323.975808 
L 250.56 323.965224 
L 254.618182 323.9622 
L 258.676364 323.965224 
L 262.734545 323.975808 
L 266.792727 323.993952 
L 270.850909 324.018144 
L 274.909091 324.049896 
L 278.967273 324.087696 
L 283.025455 324.134568 
L 287.083636 324.187488 
L 291.141818 324.247968 
L 295.2 324.314496 
L 299.258182 324.388584 
L 303.316364 324.467208 
L 307.374545 324.553392 
L 311.432727 324.645624 
L 315.490909 324.742392 
L 319.549091 324.845208 
L 323.607273 324.95256 
L 327.665455 325.062936 
L 331.723636 325.17936 
L 335.781818 325.297296 
L 339.84 325.419768 
L 343.898182 325.545264 
L 347.956364 325.672272 
L 352.014545 325.800792 
L 356.072727 325.930824 
L 360.130909 326.06388 
L 364.189091 326.195424 
L 368.247273 326.32848 
L 372.305455 326.460024 
L 376.363636 326.59308 
L 380.421818 326.724624 
L 384.48 326.854656 
L 388.538182 326.983176 
L 392.596364 327.108672 
L 396.654545 327.234168 
L 400.712727 327.355128 
L 404.770909 327.474576 
L 408.829091 327.591 
L 412.887273 327.702888 
L 416.945455 327.813264 
L 421.003636 327.917592 
L 425.061818 328.018896 
L 429.12 328.115664 
L 433.178182 328.207896 
L 437.236364 328.295592 
L 441.294545 328.378752 
L 445.352727 328.457376 
L 449.410909 328.529952 
L 453.469091 328.597992 
L 457.527273 328.659984 
L 461.585455 328.715928 
L 465.643636 328.765824 
L 469.701818 328.811184 
L 473.76 328.850496 
L 477.818182 328.88376 
L 481.876364 328.910976 
L 485.934545 328.932144 
L 489.992727 328.947264 
L 494.050909 328.956336 
L 498.109091 328.95936 
" clip-path="url(#pbcc96ccd1b)" style="fill: none; stroke: #000000; stroke-opacity: 0.5; stroke-linecap: square"/>
   </g>
   <g id="line2d_17">
    <path d="M 92.290909 314.336808 
L 96.349091 314.335296 
L 100.407273 314.33076 
L 104.465455 314.3232 
L 108.523636 314.312616 
L 112.581818 314.299008 
L 116.64 314.283888 
L 120.698182 314.264232 
L 124.756364 314.243064 
L 128.814545 314.218872 
L 132.872727 314.191656 
L 136.930909 314.162928 
L 140.989091 314.131176 
L 145.047273 314.0964 
L 149.105455 314.060112 
L 153.163636 314.0208 
L 157.221818 313.979976 
L 161.28 313.936128 
L 165.338182 313.890768 
L 169.396364 313.843896 
L 173.454545 313.794 
L 177.512727 313.742592 
L 181.570909 313.691184 
L 185.629091 313.636752 
L 189.687273 313.580808 
L 193.745455 313.523352 
L 197.803636 313.464384 
L 201.861818 313.403904 
L 205.92 313.343424 
L 209.978182 313.27992 
L 214.036364 313.216416 
L 218.094545 313.1514 
L 222.152727 313.084872 
L 226.210909 313.016832 
L 230.269091 312.94728 
L 234.327273 312.877728 
L 238.385455 312.806664 
L 242.443636 312.7356 
L 246.501818 312.663024 
L 250.56 312.588936 
L 254.618182 312.514848 
L 258.676364 312.44076 
L 262.734545 312.36516 
L 266.792727 312.28956 
L 270.850909 312.212448 
L 274.909091 312.136848 
L 278.967273 312.059736 
L 283.025455 311.984136 
L 287.083636 311.908536 
L 291.141818 311.834448 
L 295.2 311.76036 
L 299.258182 311.687784 
L 303.316364 311.615208 
L 307.374545 311.545656 
L 311.432727 311.477616 
L 315.490909 311.4126 
L 319.549091 311.347584 
L 323.607273 311.287104 
L 327.665455 311.228136 
L 331.723636 311.172192 
L 335.781818 311.119272 
L 339.84 311.069376 
L 343.898182 311.022504 
L 347.956364 310.980168 
L 352.014545 310.939344 
L 356.072727 310.903056 
L 360.130909 310.869792 
L 364.189091 310.839552 
L 368.247273 310.812336 
L 372.305455 310.789656 
L 376.363636 310.77 
L 380.421818 310.751856 
L 384.48 310.738248 
L 388.538182 310.726152 
L 392.596364 310.718592 
L 396.654545 310.712544 
L 400.712727 310.708008 
L 404.770909 310.706496 
L 408.829091 310.706496 
L 412.887273 310.70952 
L 416.945455 310.712544 
L 421.003636 310.71708 
L 425.061818 310.723128 
L 429.12 310.730688 
L 433.178182 310.738248 
L 437.236364 310.74732 
L 441.294545 310.756392 
L 445.352727 310.765464 
L 449.410909 310.774536 
L 453.469091 310.783608 
L 457.527273 310.79268 
L 461.585455 310.80024 
L 465.643636 310.8078 
L 469.701818 310.81536 
L 473.76 310.821408 
L 477.818182 310.827456 
L 481.876364 310.831992 
L 485.934545 310.836528 
L 489.992727 310.839552 
L 494.050909 310.841064 
L 498.109091 310.841064 
" clip-path="url(#pbcc96ccd1b)" style="fill: none; stroke: #000000; stroke-opacity: 0.5; stroke-linecap: square"/>
   </g>
   <g id="line2d_18">
    <path d="M 92.290909 247.240296 
L 96.349091 247.518504 
L 100.407273 247.9086 
L 104.465455 248.327424 
L 108.523636 248.768928 
L 112.581818 249.230088 
L 116.64 249.70788 
L 120.698182 250.19928 
L 124.756364 250.702776 
L 128.814545 251.215344 
L 132.872727 251.736984 
L 136.930909 252.26316 
L 140.989091 252.793872 
L 145.047273 253.324584 
L 149.105455 253.856808 
L 153.163636 254.386008 
L 157.221818 254.912184 
L 161.28 255.433824 
L 165.338182 255.947904 
L 169.396364 256.455936 
L 173.454545 256.953384 
L 177.512727 257.44176 
L 181.570909 257.91804 
L 185.629091 258.383736 
L 189.687273 258.834312 
L 193.745455 259.27128 
L 197.803636 259.693128 
L 201.861818 260.099856 
L 205.92 260.489952 
L 209.978182 260.861904 
L 214.036364 261.217224 
L 218.094545 261.552888 
L 222.152727 261.870408 
L 226.210909 262.168272 
L 230.269091 262.44648 
L 234.327273 262.705032 
L 238.385455 262.942416 
L 242.443636 263.160144 
L 246.501818 263.356704 
L 250.56 263.533608 
L 254.618182 263.687832 
L 258.676364 263.820888 
L 262.734545 263.934288 
L 266.792727 264.02652 
L 270.850909 264.097584 
L 274.909091 264.14748 
L 278.967273 264.17772 
L 283.025455 264.186792 
L 287.083636 264.176208 
L 291.141818 264.144456 
L 295.2 264.09456 
L 299.258182 264.023496 
L 303.316364 263.934288 
L 307.374545 263.826936 
L 311.432727 263.699928 
L 315.490909 263.554776 
L 319.549091 263.389968 
L 323.607273 263.208528 
L 327.665455 263.010456 
L 331.723636 262.79424 
L 335.781818 262.55988 
L 339.84 262.308888 
L 343.898182 262.042776 
L 347.956364 261.75852 
L 352.014545 261.459144 
L 356.072727 261.143136 
L 360.130909 260.81352 
L 364.189091 260.467272 
L 368.247273 260.105904 
L 372.305455 259.730928 
L 376.363636 259.340832 
L 380.421818 258.93864 
L 384.48 258.52284 
L 388.538182 258.094944 
L 392.596364 257.654952 
L 396.654545 257.204376 
L 400.712727 256.744728 
L 404.770909 256.274496 
L 408.829091 255.796704 
L 412.887273 255.311352 
L 416.945455 254.819952 
L 421.003636 254.324016 
L 425.061818 253.823544 
L 429.12 253.32156 
L 433.178182 252.818064 
L 437.236364 252.31608 
L 441.294545 251.815608 
L 445.352727 251.319672 
L 449.410909 250.829784 
L 453.469091 250.348968 
L 457.527273 249.877224 
L 461.585455 249.417576 
L 465.643636 248.973048 
L 469.701818 248.545152 
L 473.76 248.136912 
L 477.818182 247.74984 
L 481.876364 247.385448 
L 485.934545 247.048272 
L 489.992727 246.739824 
L 494.050909 246.46464 
L 498.109091 246.277152 
" clip-path="url(#pbcc96ccd1b)" style="fill: none; stroke: #000000; stroke-opacity: 0.5; stroke-linecap: square"/>
   </g>
   <g id="line2d_19">
    <path d="M 92.290909 247.019544 
L 96.349091 246.770064 
L 100.407273 246.46464 
L 104.465455 246.18492 
L 108.523636 245.938464 
L 112.581818 245.726784 
L 116.64 245.551392 
L 120.698182 245.412288 
L 124.756364 245.312496 
L 128.814545 245.248992 
L 132.872727 245.223288 
L 136.930909 245.235384 
L 140.989091 245.282256 
L 145.047273 245.365416 
L 149.105455 245.480328 
L 153.163636 245.626992 
L 157.221818 245.803896 
L 161.28 246.008016 
L 165.338182 246.23784 
L 169.396364 246.490344 
L 173.454545 246.762504 
L 177.512727 247.052808 
L 181.570909 247.359744 
L 185.629091 247.678776 
L 189.687273 248.009904 
L 193.745455 248.348592 
L 197.803636 248.69484 
L 201.861818 249.045624 
L 205.92 249.399432 
L 209.978182 249.75324 
L 214.036364 250.107048 
L 218.094545 250.457832 
L 222.152727 250.80408 
L 226.210909 251.14428 
L 230.269091 251.47692 
L 234.327273 251.800488 
L 238.385455 252.114984 
L 242.443636 252.417384 
L 246.501818 252.707688 
L 250.56 252.982872 
L 254.618182 253.244448 
L 258.676364 253.490904 
L 262.734545 253.719216 
L 266.792727 253.930896 
L 270.850909 254.12292 
L 274.909091 254.2968 
L 278.967273 254.449512 
L 283.025455 254.582568 
L 287.083636 254.694456 
L 291.141818 254.785176 
L 295.2 254.853216 
L 299.258182 254.898576 
L 303.316364 254.921256 
L 307.374545 254.921256 
L 311.432727 254.898576 
L 315.490909 254.851704 
L 319.549091 254.783664 
L 323.607273 254.691432 
L 327.665455 254.578032 
L 331.723636 254.441952 
L 335.781818 254.284704 
L 339.84 254.106288 
L 343.898182 253.908216 
L 347.956364 253.690488 
L 352.014545 253.454616 
L 356.072727 253.2006 
L 360.130909 252.929952 
L 364.189091 252.644184 
L 368.247273 252.344808 
L 372.305455 252.031824 
L 376.363636 251.706744 
L 380.421818 251.372592 
L 384.48 251.03088 
L 388.538182 250.680096 
L 392.596364 250.326288 
L 396.654545 249.967944 
L 400.712727 249.6096 
L 404.770909 249.251256 
L 408.829091 248.895936 
L 412.887273 248.545152 
L 416.945455 248.201928 
L 421.003636 247.867776 
L 425.061818 247.54572 
L 429.12 247.237272 
L 433.178182 246.945456 
L 437.236364 246.673296 
L 441.294545 246.422304 
L 445.352727 246.195504 
L 449.410909 245.99592 
L 453.469091 245.823552 
L 457.527273 245.681424 
L 461.585455 245.57256 
L 465.643636 245.49696 
L 469.701818 245.457648 
L 473.76 245.453112 
L 477.818182 245.486376 
L 481.876364 245.555928 
L 485.934545 245.661768 
L 489.992727 245.805408 
L 494.050909 245.979288 
L 498.109091 246.133512 
" clip-path="url(#pbcc96ccd1b)" style="fill: none; stroke: #000000; stroke-opacity: 0.5; stroke-linecap: square"/>
   </g>
   <g id="line2d_20">
    <path d="M 92.290909 191.169288 
L 96.349091 191.211624 
L 100.407273 191.318976 
L 104.465455 191.447496 
L 108.523636 191.562408 
L 112.581818 191.641032 
L 116.64 191.66976 
L 120.698182 191.641032 
L 124.756364 191.551824 
L 128.814545 191.396088 
L 132.872727 191.176848 
L 136.930909 190.889568 
L 140.989091 190.537272 
L 145.047273 190.118448 
L 149.105455 189.63612 
L 153.163636 189.090288 
L 157.221818 188.482464 
L 161.28 187.815672 
L 165.338182 187.092936 
L 169.396364 186.312744 
L 173.454545 185.481144 
L 177.512727 184.599648 
L 181.570909 183.668256 
L 185.629091 182.691504 
L 189.687273 181.669392 
L 193.745455 180.606456 
L 197.803636 179.504208 
L 201.861818 178.362648 
L 205.92 177.1848 
L 209.978182 175.972176 
L 214.036364 174.7278 
L 218.094545 173.451672 
L 222.152727 172.146816 
L 226.210909 170.813232 
L 230.269091 169.452432 
L 234.327273 168.06744 
L 238.385455 166.658256 
L 242.443636 165.226392 
L 246.501818 163.77336 
L 250.56 162.300672 
L 254.618182 160.80984 
L 258.676364 159.302376 
L 262.734545 157.781304 
L 266.792727 156.249648 
L 270.850909 154.70892 
L 274.909091 153.165168 
L 278.967273 151.62444 
L 283.025455 150.101856 
L 287.083636 148.617072 
L 291.141818 147.223008 
L 295.2 146.05272 
L 299.258182 145.466064 
L 303.316364 145.8864 
L 307.374545 147.009816 
L 311.432727 148.397832 
L 315.490909 149.88564 
L 319.549091 151.41276 
L 323.607273 152.955 
L 327.665455 154.498752 
L 331.723636 156.03948 
L 335.781818 157.571136 
L 339.84 159.090696 
L 343.898182 160.595136 
L 347.956364 162.084456 
L 352.014545 163.555632 
L 356.072727 165.008664 
L 360.130909 166.440528 
L 364.189091 167.849712 
L 368.247273 169.236216 
L 372.305455 170.598528 
L 376.363636 171.936648 
L 380.421818 173.24604 
L 384.48 174.528216 
L 388.538182 175.781664 
L 392.596364 177.00336 
L 396.654545 178.191792 
L 400.712727 179.34696 
L 404.770909 180.467352 
L 408.829091 181.549944 
L 412.887273 182.591712 
L 416.945455 183.594168 
L 421.003636 184.552776 
L 425.061818 185.467536 
L 429.12 186.335424 
L 433.178182 187.154928 
L 437.236364 187.923024 
L 441.294545 188.6382 
L 445.352727 189.300456 
L 449.410909 189.90828 
L 453.469091 190.457136 
L 457.527273 190.950048 
L 461.585455 191.385504 
L 465.643636 191.763504 
L 469.701818 192.08556 
L 473.76 192.351672 
L 477.818182 192.567888 
L 481.876364 192.734208 
L 485.934545 192.85668 
L 489.992727 192.93984 
L 494.050909 192.988224 
L 498.109091 193.003344 
" clip-path="url(#pbcc96ccd1b)" style="fill: none; stroke: #000000; stroke-opacity: 0.5; stroke-linecap: square"/>
   </g>
   <g id="line2d_21">
    <path d="M 92.290909 188.58528 
L 96.349091 188.480952 
L 100.407273 188.190648 
L 104.465455 187.756704 
L 108.523636 187.215408 
L 112.581818 186.58944 
L 116.64 185.892408 
L 120.698182 185.136408 
L 124.756364 184.324464 
L 128.814545 183.464136 
L 132.872727 182.556936 
L 136.930909 181.605888 
L 140.989091 180.614016 
L 145.047273 179.585856 
L 149.105455 178.519896 
L 153.163636 177.41916 
L 157.221818 176.286672 
L 161.28 175.122432 
L 165.338182 173.927952 
L 169.396364 172.706256 
L 173.454545 171.457344 
L 177.512727 170.181216 
L 181.570909 168.880896 
L 185.629091 167.556384 
L 189.687273 166.210704 
L 193.745455 164.840832 
L 197.803636 163.451304 
L 201.861818 162.04212 
L 205.92 160.61328 
L 209.978182 159.166296 
L 214.036364 157.701168 
L 218.094545 156.22092 
L 222.152727 154.725552 
L 226.210909 153.216576 
L 230.269091 151.695504 
L 234.327273 150.16536 
L 238.385455 148.626144 
L 242.443636 147.082392 
L 246.501818 145.53864 
L 250.56 144.000936 
L 254.618182 142.481376 
L 258.676364 140.993568 
L 262.734545 139.570776 
L 266.792727 138.26592 
L 270.850909 137.189376 
L 274.909091 136.536192 
L 278.967273 136.525608 
L 283.025455 137.159136 
L 287.083636 138.19788 
L 291.141818 139.393872 
L 295.2 140.512752 
L 299.258182 141.162912 
L 303.316364 140.946696 
L 307.374545 140.267808 
L 311.432727 139.759776 
L 315.490909 139.827816 
L 319.549091 140.521824 
L 323.607273 141.63012 
L 327.665455 142.95312 
L 331.723636 144.383472 
L 335.781818 145.87128 
L 339.84 147.384792 
L 343.898182 148.911912 
L 347.956364 150.440544 
L 352.014545 151.967664 
L 356.072727 153.487224 
L 360.130909 154.994688 
L 364.189091 156.491568 
L 368.247273 157.973328 
L 372.305455 159.439968 
L 376.363636 160.888464 
L 380.421818 162.318816 
L 384.48 163.729512 
L 388.538182 165.11904 
L 392.596364 166.4874 
L 396.654545 167.83308 
L 400.712727 169.154568 
L 404.770909 170.450352 
L 408.829091 171.720432 
L 412.887273 172.961784 
L 416.945455 174.17592 
L 421.003636 175.358304 
L 425.061818 176.508936 
L 429.12 177.626304 
L 433.178182 178.707384 
L 437.236364 179.750664 
L 441.294545 180.754632 
L 445.352727 181.717776 
L 449.410909 182.63556 
L 453.469091 183.50496 
L 457.527273 184.325976 
L 461.585455 185.091048 
L 465.643636 185.798664 
L 469.701818 186.444288 
L 473.76 187.021872 
L 477.818182 187.52688 
L 481.876364 187.953264 
L 485.934545 188.293464 
L 489.992727 188.542944 
L 494.050909 188.694144 
L 498.109091 188.745552 
" clip-path="url(#pbcc96ccd1b)" style="fill: none; stroke: #000000; stroke-opacity: 0.5; stroke-linecap: square"/>
   </g>
   <g id="line2d_22">
    <path d="M 92.290909 64.182456 
L 96.349091 64.188504 
L 100.407273 64.209672 
L 104.465455 64.24596 
L 108.523636 64.303416 
L 112.581818 64.391112 
L 116.64 64.531728 
L 120.698182 64.79028 
L 124.756364 65.333088 
L 128.814545 66.303792 
L 132.872727 67.575384 
L 136.930909 69.013296 
L 140.989091 70.554024 
L 145.047273 72.173376 
L 149.105455 73.850184 
L 153.163636 75.575376 
L 157.221818 77.336856 
L 161.28 79.130088 
L 165.338182 80.949024 
L 169.396364 82.787616 
L 173.454545 84.64284 
L 177.512727 86.511672 
L 181.570909 88.389576 
L 185.629091 90.273528 
L 189.687273 92.16504 
L 193.745455 94.058064 
L 197.803636 95.954112 
L 201.861818 97.85016 
L 205.92 99.743184 
L 209.978182 101.634696 
L 214.036364 103.521672 
L 218.094545 105.404112 
L 222.152727 107.27748 
L 226.210909 109.1448 
L 230.269091 111.000024 
L 234.327273 112.844664 
L 238.385455 114.674184 
L 242.443636 116.487072 
L 246.501818 118.27728 
L 250.56 120.040272 
L 254.618182 121.765464 
L 258.676364 123.437736 
L 262.734545 125.02836 
L 266.792727 126.485928 
L 270.850909 127.707624 
L 274.909091 128.510496 
L 278.967273 128.699496 
L 283.025455 128.338128 
L 287.083636 127.822536 
L 291.141818 127.71972 
L 295.2 128.338128 
L 299.258182 129.39804 
L 303.316364 130.559256 
L 307.374545 131.576832 
L 311.432727 132.18768 
L 315.490909 132.1272 
L 319.549091 131.38632 
L 323.607273 130.196376 
L 327.665455 128.758464 
L 331.723636 127.18296 
L 335.781818 125.524296 
L 339.84 123.812712 
L 343.898182 122.061816 
L 347.956364 120.283704 
L 352.014545 118.4814 
L 356.072727 116.662464 
L 360.130909 114.82992 
L 364.189091 112.982256 
L 368.247273 111.12552 
L 372.305455 109.259712 
L 376.363636 107.386344 
L 380.421818 105.506928 
L 384.48 103.621464 
L 388.538182 101.734488 
L 392.596364 99.842976 
L 396.654545 97.951464 
L 400.712727 96.061464 
L 404.770909 94.171464 
L 408.829091 92.286 
L 412.887273 90.405072 
L 416.945455 88.533216 
L 421.003636 86.670432 
L 425.061818 84.821256 
L 429.12 82.9872 
L 433.178182 81.1728 
L 437.236364 79.38108 
L 441.294545 77.618088 
L 445.352727 75.891384 
L 449.410909 74.205504 
L 453.469091 72.568008 
L 457.527273 70.992504 
L 461.585455 69.488064 
L 465.643636 68.068296 
L 469.701818 66.75588 
L 473.76 65.582568 
L 477.818182 64.698048 
L 481.876364 64.45008 
L 485.934545 64.395648 
L 489.992727 64.371456 
L 494.050909 64.35936 
L 498.109091 64.356336 
" clip-path="url(#pbcc96ccd1b)" style="fill: none; stroke: #000000; stroke-opacity: 0.5; stroke-linecap: square"/>
   </g>
   <g id="line2d_23">
    <path d="M 92.290909 59.046192 
L 96.349091 59.132376 
L 100.407273 59.386392 
L 104.465455 59.80824 
L 108.523636 60.391872 
L 112.581818 61.122168 
L 116.64 61.968888 
L 120.698182 62.859456 
L 124.756364 63.616968 
L 128.814545 64.0872 
L 132.872727 64.386576 
L 136.930909 64.648152 
L 140.989091 64.930896 
L 145.047273 65.27412 
L 149.105455 65.709576 
L 153.163636 66.275064 
L 157.221818 67.006872 
L 161.28 67.933728 
L 165.338182 69.064704 
L 169.396364 70.38468 
L 173.454545 71.861904 
L 177.512727 73.4616 
L 181.570909 75.152016 
L 185.629091 76.90896 
L 189.687273 78.712776 
L 193.745455 80.551368 
L 197.803636 82.415664 
L 201.861818 84.296592 
L 205.92 86.189616 
L 209.978182 88.0902 
L 214.036364 89.99532 
L 218.094545 91.901952 
L 222.152727 93.808584 
L 226.210909 95.713704 
L 230.269091 97.614288 
L 234.327273 99.508824 
L 238.385455 101.3958 
L 242.443636 103.275216 
L 246.501818 105.144048 
L 250.56 107.000784 
L 254.618182 108.8424 
L 258.676364 110.667384 
L 262.734545 112.472712 
L 266.792727 114.249312 
L 270.850909 115.991136 
L 274.909091 117.68004 
L 278.967273 119.28276 
L 283.025455 120.725208 
L 287.083636 121.821408 
L 291.141818 122.206968 
L 295.2 121.676256 
L 299.258182 120.533184 
L 303.316364 119.096784 
L 307.374545 117.515232 
L 311.432727 115.847496 
L 315.490909 114.12684 
L 319.549091 112.368384 
L 323.607273 110.5812 
L 327.665455 108.771336 
L 331.723636 106.941816 
L 335.781818 105.097176 
L 339.84 103.238928 
L 343.898182 101.368584 
L 347.956364 99.489168 
L 352.014545 97.60068 
L 356.072727 95.706144 
L 360.130909 93.80556 
L 364.189091 91.901952 
L 368.247273 89.996832 
L 372.305455 88.0902 
L 376.363636 86.188104 
L 380.421818 84.293568 
L 384.48 82.408104 
L 388.538182 80.53776 
L 392.596364 78.69312 
L 396.654545 76.880232 
L 400.712727 75.115728 
L 404.770909 73.419264 
L 408.829091 71.818056 
L 412.887273 70.348392 
L 416.945455 69.048072 
L 421.003636 67.953384 
L 425.061818 67.074912 
L 429.12 66.40056 
L 433.178182 65.895552 
L 437.236364 65.519064 
L 441.294545 65.237832 
L 445.352727 65.023128 
L 449.410909 64.859832 
L 453.469091 64.732824 
L 457.527273 64.63152 
L 461.585455 64.549872 
L 465.643636 64.481832 
L 469.701818 64.41984 
L 473.76 64.347264 
L 477.818182 64.128024 
L 481.876364 63.43704 
L 485.934545 62.73396 
L 489.992727 62.203248 
L 494.050909 61.875144 
L 498.109091 61.763256 
" clip-path="url(#pbcc96ccd1b)" style="fill: none; stroke: #000000; stroke-opacity: 0.5; stroke-linecap: square"/>
   </g>
   <g id="patch_3">
    <path d="M 72 384.48 
L 72 51.84 
" style="fill: none; stroke: #000000; stroke-width: 0.8; stroke-linejoin: miter; stroke-linecap: square"/>
   </g>
   <g id="patch_4">
    <path d="M 518.4 384.48 
L 518.4 51.84 
" style="fill: none; stroke: #000000; stroke-width: 0.8; stroke-linejoin: miter; stroke-linecap: square"/>
   </g>
   <g id="patch_5">
    <path d="M 72 384.48 
L 518.4 384.48 
" style="fill: none; stroke: #000000; stroke-width: 0.8; stroke-linejoin: miter; stroke-linecap: square"/>
   </g>
   <g id="patch_6">
    <path d="M 72 51.84 
L 518.4 51.84 
" style="fill: none; stroke: #000000; stroke-width: 0.8; stroke-linejoin: miter; stroke-linecap: square"/>
   </g>
  </g>
 </g>
 <defs>
  <clipPath id="pbcc96ccd1b">
   <rect x="72" y="51.84" width="446.4" height="332.64"/>
  </clipPath>
 </defs>
</svg>
