<?xml version="1.0" encoding="utf-8" standalone="no"?>
<!DOCTYPE svg PUBLIC "-//W3C//DTD SVG 1.1//EN"
  "http://www.w3.org/Graphics/SVG/1.1/DTD/svg11.dtd">
<svg xmlns:xlink="http://www.w3.org/1999/xlink" width="576pt" height="432pt" viewBox="0 0 576 432" xmlns="http://www.w3.org/2000/svg" version="1.1">
 <metadata>
  <rdf:RDF xmlns:dc="http://purl.org/dc/elements/1.1/" xmlns:cc="http://creativecommons.org/ns#" xmlns:rdf="http://www.w3.org/1999/02/22-rdf-syntax-ns#">
   <cc:Work>
    <dc:type rdf:resource="http://purl.org/dc/dcmitype/StillImage"/>
    <dc:date>2023-05-03T20:45:34.017230</dc:date>
    <dc:format>image/svg+xml</dc:format>
    <dc:creator>
     <cc:Agent>
      <dc:title>Matplotlib v3.7.1, https://matplotlib.org/</dc:title>
     </cc:Agent>
    </dc:creator>
   </cc:Work>
  </rdf:RDF>
 </metadata>
 <defs>
  <style type="text/css">*{stroke-linejoin: round; stroke-linecap: butt}</style>
 </defs>
 <g id="figure_1">
  <g id="patch_1">
   <path d="M 0 432 
L 576 432 
L 576 0 
L 0 0 
z
" style="fill: #ffffff"/>
  </g>
  <g id="axes_1">
   <g id="patch_2">
    <path d="M 72 384.48 
L 518.4 384.48 
L 518.4 51.84 
L 72 51.84 
z
" style="fill: #ffffff"/>
   </g>
   <g id="matplotlib.axis_1">
    <g id="xtick_1">
     <g id="line2d_1">
      <defs>
       <path id="m47cba57932" d="M 0 0 
L 0 3.5 
" style="stroke: #000000; stroke-width: 0.8"/>
      </defs>
      <g>
       <use xlink:href="#m47cba57932" x="92.290909" y="384.48" style="stroke: #000000; stroke-width: 0.8"/>
      </g>
     </g>
     <g id="text_1">
      <!-- 0.0 -->
      <g transform="translate(84.339347 399.078438) scale(0.1 -0.1)">
       <defs>
        <path id="DejaVuSans-30" d="M 2034 4250 
Q 1547 4250 1301 3770 
Q 1056 3291 1056 2328 
Q 1056 1369 1301 889 
Q 1547 409 2034 409 
Q 2525 409 2770 889 
Q 3016 1369 3016 2328 
Q 3016 3291 2770 3770 
Q 2525 4250 2034 4250 
z
M 2034 4750 
Q 2819 4750 3233 4129 
Q 3647 3509 3647 2328 
Q 3647 1150 3233 529 
Q 2819 -91 2034 -91 
Q 1250 -91 836 529 
Q 422 1150 422 2328 
Q 422 3509 836 4129 
Q 1250 4750 2034 4750 
z
" transform="scale(0.015625)"/>
        <path id="DejaVuSans-2e" d="M 684 794 
L 1344 794 
L 1344 0 
L 684 0 
L 684 794 
z
" transform="scale(0.015625)"/>
       </defs>
       <use xlink:href="#DejaVuSans-30"/>
       <use xlink:href="#DejaVuSans-2e" x="63.623047"/>
       <use xlink:href="#DejaVuSans-30" x="95.410156"/>
      </g>
     </g>
    </g>
    <g id="xtick_2">
     <g id="line2d_2">
      <g>
       <use xlink:href="#m47cba57932" x="173.454545" y="384.48" style="stroke: #000000; stroke-width: 0.8"/>
      </g>
     </g>
     <g id="text_2">
      <!-- 0.2 -->
      <g transform="translate(165.502983 399.078438) scale(0.1 -0.1)">
       <defs>
        <path id="DejaVuSans-32" d="M 1228 531 
L 3431 531 
L 3431 0 
L 469 0 
L 469 531 
Q 828 903 1448 1529 
Q 2069 2156 2228 2338 
Q 2531 2678 2651 2914 
Q 2772 3150 2772 3378 
Q 2772 3750 2511 3984 
Q 2250 4219 1831 4219 
Q 1534 4219 1204 4116 
Q 875 4013 500 3803 
L 500 4441 
Q 881 4594 1212 4672 
Q 1544 4750 1819 4750 
Q 2544 4750 2975 4387 
Q 3406 4025 3406 3419 
Q 3406 3131 3298 2873 
Q 3191 2616 2906 2266 
Q 2828 2175 2409 1742 
Q 1991 1309 1228 531 
z
" transform="scale(0.015625)"/>
       </defs>
       <use xlink:href="#DejaVuSans-30"/>
       <use xlink:href="#DejaVuSans-2e" x="63.623047"/>
       <use xlink:href="#DejaVuSans-32" x="95.410156"/>
      </g>
     </g>
    </g>
    <g id="xtick_3">
     <g id="line2d_3">
      <g>
       <use xlink:href="#m47cba57932" x="254.618182" y="384.48" style="stroke: #000000; stroke-width: 0.8"/>
      </g>
     </g>
     <g id="text_3">
      <!-- 0.4 -->
      <g transform="translate(246.666619 399.078438) scale(0.1 -0.1)">
       <defs>
        <path id="DejaVuSans-34" d="M 2419 4116 
L 825 1625 
L 2419 1625 
L 2419 4116 
z
M 2253 4666 
L 3047 4666 
L 3047 1625 
L 3713 1625 
L 3713 1100 
L 3047 1100 
L 3047 0 
L 2419 0 
L 2419 1100 
L 313 1100 
L 313 1709 
L 2253 4666 
z
" transform="scale(0.015625)"/>
       </defs>
       <use xlink:href="#DejaVuSans-30"/>
       <use xlink:href="#DejaVuSans-2e" x="63.623047"/>
       <use xlink:href="#DejaVuSans-34" x="95.410156"/>
      </g>
     </g>
    </g>
    <g id="xtick_4">
     <g id="line2d_4">
      <g>
       <use xlink:href="#m47cba57932" x="335.781818" y="384.48" style="stroke: #000000; stroke-width: 0.8"/>
      </g>
     </g>
     <g id="text_4">
      <!-- 0.6 -->
      <g transform="translate(327.830256 399.078438) scale(0.1 -0.1)">
       <defs>
        <path id="DejaVuSans-36" d="M 2113 2584 
Q 1688 2584 1439 2293 
Q 1191 2003 1191 1497 
Q 1191 994 1439 701 
Q 1688 409 2113 409 
Q 2538 409 2786 701 
Q 3034 994 3034 1497 
Q 3034 2003 2786 2293 
Q 2538 2584 2113 2584 
z
M 3366 4563 
L 3366 3988 
Q 3128 4100 2886 4159 
Q 2644 4219 2406 4219 
Q 1781 4219 1451 3797 
Q 1122 3375 1075 2522 
Q 1259 2794 1537 2939 
Q 1816 3084 2150 3084 
Q 2853 3084 3261 2657 
Q 3669 2231 3669 1497 
Q 3669 778 3244 343 
Q 2819 -91 2113 -91 
Q 1303 -91 875 529 
Q 447 1150 447 2328 
Q 447 3434 972 4092 
Q 1497 4750 2381 4750 
Q 2619 4750 2861 4703 
Q 3103 4656 3366 4563 
z
" transform="scale(0.015625)"/>
       </defs>
       <use xlink:href="#DejaVuSans-30"/>
       <use xlink:href="#DejaVuSans-2e" x="63.623047"/>
       <use xlink:href="#DejaVuSans-36" x="95.410156"/>
      </g>
     </g>
    </g>
    <g id="xtick_5">
     <g id="line2d_5">
      <g>
       <use xlink:href="#m47cba57932" x="416.945455" y="384.48" style="stroke: #000000; stroke-width: 0.8"/>
      </g>
     </g>
     <g id="text_5">
      <!-- 0.8 -->
      <g transform="translate(408.993892 399.078438) scale(0.1 -0.1)">
       <defs>
        <path id="DejaVuSans-38" d="M 2034 2216 
Q 1584 2216 1326 1975 
Q 1069 1734 1069 1313 
Q 1069 891 1326 650 
Q 1584 409 2034 409 
Q 2484 409 2743 651 
Q 3003 894 3003 1313 
Q 3003 1734 2745 1975 
Q 2488 2216 2034 2216 
z
M 1403 2484 
Q 997 2584 770 2862 
Q 544 3141 544 3541 
Q 544 4100 942 4425 
Q 1341 4750 2034 4750 
Q 2731 4750 3128 4425 
Q 3525 4100 3525 3541 
Q 3525 3141 3298 2862 
Q 3072 2584 2669 2484 
Q 3125 2378 3379 2068 
Q 3634 1759 3634 1313 
Q 3634 634 3220 271 
Q 2806 -91 2034 -91 
Q 1263 -91 848 271 
Q 434 634 434 1313 
Q 434 1759 690 2068 
Q 947 2378 1403 2484 
z
M 1172 3481 
Q 1172 3119 1398 2916 
Q 1625 2713 2034 2713 
Q 2441 2713 2670 2916 
Q 2900 3119 2900 3481 
Q 2900 3844 2670 4047 
Q 2441 4250 2034 4250 
Q 1625 4250 1398 4047 
Q 1172 3844 1172 3481 
z
" transform="scale(0.015625)"/>
       </defs>
       <use xlink:href="#DejaVuSans-30"/>
       <use xlink:href="#DejaVuSans-2e" x="63.623047"/>
       <use xlink:href="#DejaVuSans-38" x="95.410156"/>
      </g>
     </g>
    </g>
    <g id="xtick_6">
     <g id="line2d_6">
      <g>
       <use xlink:href="#m47cba57932" x="498.109091" y="384.48" style="stroke: #000000; stroke-width: 0.8"/>
      </g>
     </g>
     <g id="text_6">
      <!-- 1.0 -->
      <g transform="translate(490.157528 399.078438) scale(0.1 -0.1)">
       <defs>
        <path id="DejaVuSans-31" d="M 794 531 
L 1825 531 
L 1825 4091 
L 703 3866 
L 703 4441 
L 1819 4666 
L 2450 4666 
L 2450 531 
L 3481 531 
L 3481 0 
L 794 0 
L 794 531 
z
" transform="scale(0.015625)"/>
       </defs>
       <use xlink:href="#DejaVuSans-31"/>
       <use xlink:href="#DejaVuSans-2e" x="63.623047"/>
       <use xlink:href="#DejaVuSans-30" x="95.410156"/>
      </g>
     </g>
    </g>
   </g>
   <g id="matplotlib.axis_2">
    <g id="ytick_1">
     <g id="line2d_7">
      <defs>
       <path id="m43391bcdfe" d="M 0 0 
L -3.5 0 
" style="stroke: #000000; stroke-width: 0.8"/>
      </defs>
      <g>
       <use xlink:href="#m43391bcdfe" x="72" y="369.36" style="stroke: #000000; stroke-width: 0.8"/>
      </g>
     </g>
     <g id="text_7">
      <!-- −5.0 -->
      <g transform="translate(40.717187 373.159219) scale(0.1 -0.1)">
       <defs>
        <path id="DejaVuSans-2212" d="M 678 2272 
L 4684 2272 
L 4684 1741 
L 678 1741 
L 678 2272 
z
" transform="scale(0.015625)"/>
        <path id="DejaVuSans-35" d="M 691 4666 
L 3169 4666 
L 3169 4134 
L 1269 4134 
L 1269 2991 
Q 1406 3038 1543 3061 
Q 1681 3084 1819 3084 
Q 2600 3084 3056 2656 
Q 3513 2228 3513 1497 
Q 3513 744 3044 326 
Q 2575 -91 1722 -91 
Q 1428 -91 1123 -41 
Q 819 9 494 109 
L 494 744 
Q 775 591 1075 516 
Q 1375 441 1709 441 
Q 2250 441 2565 725 
Q 2881 1009 2881 1497 
Q 2881 1984 2565 2268 
Q 2250 2553 1709 2553 
Q 1456 2553 1204 2497 
Q 953 2441 691 2322 
L 691 4666 
z
" transform="scale(0.015625)"/>
       </defs>
       <use xlink:href="#DejaVuSans-2212"/>
       <use xlink:href="#DejaVuSans-35" x="83.789062"/>
       <use xlink:href="#DejaVuSans-2e" x="147.412109"/>
       <use xlink:href="#DejaVuSans-30" x="179.199219"/>
      </g>
     </g>
    </g>
    <g id="ytick_2">
     <g id="line2d_8">
      <g>
       <use xlink:href="#m43391bcdfe" x="72" y="331.56" style="stroke: #000000; stroke-width: 0.8"/>
      </g>
     </g>
     <g id="text_8">
      <!-- −2.5 -->
      <g transform="translate(40.717187 335.359219) scale(0.1 -0.1)">
       <use xlink:href="#DejaVuSans-2212"/>
       <use xlink:href="#DejaVuSans-32" x="83.789062"/>
       <use xlink:href="#DejaVuSans-2e" x="147.412109"/>
       <use xlink:href="#DejaVuSans-35" x="179.199219"/>
      </g>
     </g>
    </g>
    <g id="ytick_3">
     <g id="line2d_9">
      <g>
       <use xlink:href="#m43391bcdfe" x="72" y="293.76" style="stroke: #000000; stroke-width: 0.8"/>
      </g>
     </g>
     <g id="text_9">
      <!-- 0.0 -->
      <g transform="translate(49.096875 297.559219) scale(0.1 -0.1)">
       <use xlink:href="#DejaVuSans-30"/>
       <use xlink:href="#DejaVuSans-2e" x="63.623047"/>
       <use xlink:href="#DejaVuSans-30" x="95.410156"/>
      </g>
     </g>
    </g>
    <g id="ytick_4">
     <g id="line2d_10">
      <g>
       <use xlink:href="#m43391bcdfe" x="72" y="255.96" style="stroke: #000000; stroke-width: 0.8"/>
      </g>
     </g>
     <g id="text_10">
      <!-- 2.5 -->
      <g transform="translate(49.096875 259.759219) scale(0.1 -0.1)">
       <use xlink:href="#DejaVuSans-32"/>
       <use xlink:href="#DejaVuSans-2e" x="63.623047"/>
       <use xlink:href="#DejaVuSans-35" x="95.410156"/>
      </g>
     </g>
    </g>
    <g id="ytick_5">
     <g id="line2d_11">
      <g>
       <use xlink:href="#m43391bcdfe" x="72" y="218.16" style="stroke: #000000; stroke-width: 0.8"/>
      </g>
     </g>
     <g id="text_11">
      <!-- 5.0 -->
      <g transform="translate(49.096875 221.959219) scale(0.1 -0.1)">
       <use xlink:href="#DejaVuSans-35"/>
       <use xlink:href="#DejaVuSans-2e" x="63.623047"/>
       <use xlink:href="#DejaVuSans-30" x="95.410156"/>
      </g>
     </g>
    </g>
    <g id="ytick_6">
     <g id="line2d_12">
      <g>
       <use xlink:href="#m43391bcdfe" x="72" y="180.36" style="stroke: #000000; stroke-width: 0.8"/>
      </g>
     </g>
     <g id="text_12">
      <!-- 7.5 -->
      <g transform="translate(49.096875 184.159219) scale(0.1 -0.1)">
       <defs>
        <path id="DejaVuSans-37" d="M 525 4666 
L 3525 4666 
L 3525 4397 
L 1831 0 
L 1172 0 
L 2766 4134 
L 525 4134 
L 525 4666 
z
" transform="scale(0.015625)"/>
       </defs>
       <use xlink:href="#DejaVuSans-37"/>
       <use xlink:href="#DejaVuSans-2e" x="63.623047"/>
       <use xlink:href="#DejaVuSans-35" x="95.410156"/>
      </g>
     </g>
    </g>
    <g id="ytick_7">
     <g id="line2d_13">
      <g>
       <use xlink:href="#m43391bcdfe" x="72" y="142.56" style="stroke: #000000; stroke-width: 0.8"/>
      </g>
     </g>
     <g id="text_13">
      <!-- 10.0 -->
      <g transform="translate(42.734375 146.359219) scale(0.1 -0.1)">
       <use xlink:href="#DejaVuSans-31"/>
       <use xlink:href="#DejaVuSans-30" x="63.623047"/>
       <use xlink:href="#DejaVuSans-2e" x="127.246094"/>
       <use xlink:href="#DejaVuSans-30" x="159.033203"/>
      </g>
     </g>
    </g>
    <g id="ytick_8">
     <g id="line2d_14">
      <g>
       <use xlink:href="#m43391bcdfe" x="72" y="104.76" style="stroke: #000000; stroke-width: 0.8"/>
      </g>
     </g>
     <g id="text_14">
      <!-- 12.5 -->
      <g transform="translate(42.734375 108.559219) scale(0.1 -0.1)">
       <use xlink:href="#DejaVuSans-31"/>
       <use xlink:href="#DejaVuSans-32" x="63.623047"/>
       <use xlink:href="#DejaVuSans-2e" x="127.246094"/>
       <use xlink:href="#DejaVuSans-35" x="159.033203"/>
      </g>
     </g>
    </g>
    <g id="ytick_9">
     <g id="line2d_15">
      <g>
       <use xlink:href="#m43391bcdfe" x="72" y="66.96" style="stroke: #000000; stroke-width: 0.8"/>
      </g>
     </g>
     <g id="text_15">
      <!-- 15.0 -->
      <g transform="translate(42.734375 70.759219) scale(0.1 -0.1)">
       <use xlink:href="#DejaVuSans-31"/>
       <use xlink:href="#DejaVuSans-35" x="63.623047"/>
       <use xlink:href="#DejaVuSans-2e" x="127.246094"/>
       <use xlink:href="#DejaVuSans-30" x="159.033203"/>
      </g>
     </g>
    </g>
   </g>
   <g id="line2d_16">
    <path d="M 92.290909 343.888848 
L 96.349091 343.888848 
L 100.407273 343.885824 
L 104.465455 343.881288 
L 108.523636 343.87524 
L 112.581818 343.869192 
L 116.64 343.86012 
L 120.698182 343.849536 
L 124.756364 343.838952 
L 128.814545 343.826856 
L 132.872727 343.81476 
L 136.930909 343.802664 
L 140.989091 343.789056 
L 145.047273 343.77696 
L 149.105455 343.766376 
L 153.163636 343.755792 
L 157.221818 343.748232 
L 161.28 343.742184 
L 165.338182 343.737648 
L 169.396364 343.737648 
L 173.454545 343.73916 
L 177.512727 343.74672 
L 181.570909 343.758816 
L 185.629091 343.775448 
L 189.687273 343.796616 
L 193.745455 343.825344 
L 197.803636 343.861632 
L 201.861818 343.903968 
L 205.92 343.955376 
L 209.978182 344.014344 
L 214.036364 344.082384 
L 218.094545 344.159496 
L 222.152727 344.24568 
L 226.210909 344.342448 
L 230.269091 344.4498 
L 234.327273 344.566224 
L 238.385455 344.694744 
L 242.443636 344.832336 
L 246.501818 344.982024 
L 250.56 345.140784 
L 254.618182 345.310128 
L 258.676364 345.490056 
L 262.734545 345.679056 
L 266.792727 345.87864 
L 270.850909 346.085784 
L 274.909091 346.303512 
L 278.967273 346.527288 
L 283.025455 346.760136 
L 287.083636 347.000544 
L 291.141818 347.245488 
L 295.2 347.497992 
L 299.258182 347.755032 
L 303.316364 348.016608 
L 307.374545 348.28272 
L 311.432727 348.551856 
L 315.490909 348.822504 
L 319.549091 349.096176 
L 323.607273 349.37136 
L 327.665455 349.648056 
L 331.723636 349.924752 
L 335.781818 350.199936 
L 339.84 350.47512 
L 343.898182 350.748792 
L 347.956364 351.020952 
L 352.014545 351.290088 
L 356.072727 351.5562 
L 360.130909 351.819288 
L 364.189091 352.079352 
L 368.247273 352.33488 
L 372.305455 352.58436 
L 376.363636 352.830816 
L 380.421818 353.071224 
L 384.48 353.307096 
L 388.538182 353.535408 
L 392.596364 353.759184 
L 396.654545 353.9754 
L 400.712727 354.185568 
L 404.770909 354.389688 
L 408.829091 354.584736 
L 412.887273 354.773736 
L 416.945455 354.955176 
L 421.003636 355.127544 
L 425.061818 355.293864 
L 429.12 355.451112 
L 433.178182 355.6008 
L 437.236364 355.741416 
L 441.294545 355.87296 
L 445.352727 355.996944 
L 449.410909 356.111856 
L 453.469091 356.217696 
L 457.527273 356.314464 
L 461.585455 356.40216 
L 465.643636 356.482296 
L 469.701818 356.551848 
L 473.76 356.612328 
L 477.818182 356.663736 
L 481.876364 356.706072 
L 485.934545 356.739336 
L 489.992727 356.762016 
L 494.050909 356.775624 
L 498.109091 356.781672 
" clip-path="url(#p4b2c3f9871)" style="fill: none; stroke: #000000; stroke-opacity: 0.5; stroke-linecap: square"/>
   </g>
   <g id="line2d_17">
    <path d="M 92.290909 293.679864 
L 96.349091 293.708592 
L 100.407273 293.791752 
L 104.465455 293.927832 
L 108.523636 294.11532 
L 112.581818 294.351192 
L 116.64 294.630912 
L 120.698182 294.951456 
L 124.756364 295.306776 
L 128.814545 295.692336 
L 132.872727 296.105112 
L 136.930909 296.540568 
L 140.989091 296.992656 
L 145.047273 297.458352 
L 149.105455 297.934632 
L 153.163636 298.41696 
L 157.221818 298.903824 
L 161.28 299.390688 
L 165.338182 299.873016 
L 169.396364 300.35232 
L 173.454545 300.824064 
L 177.512727 301.285224 
L 181.570909 301.734288 
L 185.629091 302.171256 
L 189.687273 302.591592 
L 193.745455 302.995296 
L 197.803636 303.380856 
L 201.861818 303.745248 
L 205.92 304.088472 
L 209.978182 304.409016 
L 214.036364 304.705368 
L 218.094545 304.977528 
L 222.152727 305.223984 
L 226.210909 305.444736 
L 230.269091 305.63676 
L 234.327273 305.801568 
L 238.385455 305.937648 
L 242.443636 306.046512 
L 246.501818 306.125136 
L 250.56 306.17352 
L 254.618182 306.193176 
L 258.676364 306.184104 
L 262.734545 306.146304 
L 266.792727 306.078264 
L 270.850909 305.981496 
L 274.909091 305.856 
L 278.967273 305.701776 
L 283.025455 305.520336 
L 287.083636 305.310168 
L 291.141818 305.075808 
L 295.2 304.81272 
L 299.258182 304.52544 
L 303.316364 304.212456 
L 307.374545 303.87528 
L 311.432727 303.513912 
L 315.490909 303.129864 
L 319.549091 302.721624 
L 323.607273 302.293728 
L 327.665455 301.843152 
L 331.723636 301.37292 
L 335.781818 300.883032 
L 339.84 300.373488 
L 343.898182 299.8458 
L 347.956364 299.299968 
L 352.014545 298.735992 
L 356.072727 298.156896 
L 360.130909 297.561168 
L 364.189091 296.95032 
L 368.247273 296.325864 
L 372.305455 295.686288 
L 376.363636 295.034616 
L 380.421818 294.370848 
L 384.48 293.696496 
L 388.538182 293.010048 
L 392.596364 292.314528 
L 396.654545 291.609936 
L 400.712727 290.897784 
L 404.770909 290.178072 
L 408.829091 289.453824 
L 412.887273 288.72504 
L 416.945455 287.993232 
L 421.003636 287.259912 
L 425.061818 286.528104 
L 429.12 285.796296 
L 433.178182 285.070536 
L 437.236364 284.352336 
L 441.294545 283.643208 
L 445.352727 282.947688 
L 449.410909 282.267288 
L 453.469091 281.609568 
L 457.527273 280.97604 
L 461.585455 280.372752 
L 465.643636 279.805752 
L 469.701818 279.281088 
L 473.76 278.80632 
L 477.818182 278.389008 
L 481.876364 278.033688 
L 485.934545 277.749432 
L 489.992727 277.542288 
L 494.050909 277.41528 
L 498.109091 277.372944 
" clip-path="url(#p4b2c3f9871)" style="fill: none; stroke: #000000; stroke-opacity: 0.5; stroke-linecap: square"/>
   </g>
   <g id="line2d_18">
    <path d="M 92.290909 263.60316 
L 96.349091 263.563848 
L 100.407273 263.445912 
L 104.465455 263.252376 
L 108.523636 262.984752 
L 112.581818 262.646064 
L 116.64 262.240848 
L 120.698182 261.772128 
L 124.756364 261.245952 
L 128.814545 260.665344 
L 132.872727 260.036352 
L 136.930909 259.362 
L 140.989091 258.646824 
L 145.047273 257.896872 
L 149.105455 257.112144 
L 153.163636 256.3002 
L 157.221818 255.46104 
L 161.28 254.5992 
L 165.338182 253.719216 
L 169.396364 252.821088 
L 173.454545 251.909352 
L 177.512727 250.98552 
L 181.570909 250.052616 
L 185.629091 249.112152 
L 189.687273 248.167152 
L 193.745455 247.22064 
L 197.803636 246.272616 
L 201.861818 245.327616 
L 205.92 244.38564 
L 209.978182 243.451224 
L 214.036364 242.524368 
L 218.094545 241.609608 
L 222.152727 240.706944 
L 226.210909 239.820912 
L 230.269091 238.953024 
L 234.327273 238.106304 
L 238.385455 237.280752 
L 242.443636 236.480904 
L 246.501818 235.708272 
L 250.56 234.96588 
L 254.618182 234.252216 
L 258.676364 233.571816 
L 262.734545 232.92468 
L 266.792727 232.310808 
L 270.850909 231.7302 
L 274.909091 231.182856 
L 278.967273 230.668776 
L 283.025455 230.186448 
L 287.083636 229.732848 
L 291.141818 229.309488 
L 295.2 228.914856 
L 299.258182 228.544416 
L 303.316364 228.201192 
L 307.374545 227.880648 
L 311.432727 227.585808 
L 315.490909 227.312136 
L 319.549091 227.064168 
L 323.607273 226.841904 
L 327.665455 226.64988 
L 331.723636 226.492632 
L 335.781818 226.383768 
L 339.84 226.341432 
L 343.898182 226.397376 
L 347.956364 226.580328 
L 352.014545 226.905408 
L 356.072727 227.359008 
L 360.130909 227.9124 
L 364.189091 228.541392 
L 368.247273 229.229352 
L 372.305455 229.964184 
L 376.363636 230.736816 
L 380.421818 231.5412 
L 384.48 232.374312 
L 388.538182 233.228592 
L 392.596364 234.102528 
L 396.654545 234.993096 
L 400.712727 235.894248 
L 404.770909 236.805984 
L 408.829091 237.72528 
L 412.887273 238.6476 
L 416.945455 239.56992 
L 421.003636 240.49224 
L 425.061818 241.408512 
L 429.12 242.318736 
L 433.178182 243.218376 
L 437.236364 244.102896 
L 441.294545 244.970784 
L 445.352727 245.817504 
L 449.410909 246.63852 
L 453.469091 247.429296 
L 457.527273 248.183784 
L 461.585455 248.89896 
L 465.643636 249.567264 
L 469.701818 250.181136 
L 473.76 250.733016 
L 477.818182 251.218368 
L 481.876364 251.62812 
L 485.934545 251.954712 
L 489.992727 252.193608 
L 494.050909 252.33876 
L 498.109091 252.387144 
" clip-path="url(#p4b2c3f9871)" style="fill: none; stroke: #000000; stroke-opacity: 0.5; stroke-linecap: square"/>
   </g>
   <g id="line2d_19">
    <path d="M 92.290909 231.72264 
L 96.349091 231.719616 
L 100.407273 231.706008 
L 104.465455 231.68484 
L 108.523636 231.6546 
L 112.581818 231.615288 
L 116.64 231.566904 
L 120.698182 231.51096 
L 124.756364 231.445944 
L 128.814545 231.373368 
L 132.872727 231.29172 
L 136.930909 231.201 
L 140.989091 231.10272 
L 145.047273 230.995368 
L 149.105455 230.878944 
L 153.163636 230.75496 
L 157.221818 230.623416 
L 161.28 230.4828 
L 165.338182 230.333112 
L 169.396364 230.175864 
L 173.454545 230.011056 
L 177.512727 229.837176 
L 181.570909 229.654224 
L 185.629091 229.465224 
L 189.687273 229.26564 
L 193.745455 229.060008 
L 197.803636 228.845304 
L 201.861818 228.621528 
L 205.92 228.390192 
L 209.978182 228.151296 
L 214.036364 227.903328 
L 218.094545 227.6478 
L 222.152727 227.3832 
L 226.210909 227.11104 
L 230.269091 226.83132 
L 234.327273 226.542528 
L 238.385455 226.247688 
L 242.443636 225.9468 
L 246.501818 225.639864 
L 250.56 225.328392 
L 254.618182 225.013896 
L 258.676364 224.6994 
L 262.734545 224.387928 
L 266.792727 224.07948 
L 270.850909 223.781616 
L 274.909091 223.49736 
L 278.967273 223.229736 
L 283.025455 222.984792 
L 287.083636 222.767064 
L 291.141818 222.5826 
L 295.2 222.434424 
L 299.258182 222.32556 
L 303.316364 222.263568 
L 307.374545 222.248448 
L 311.432727 222.283224 
L 315.490909 222.367896 
L 319.549091 222.502464 
L 323.607273 222.686928 
L 327.665455 222.913728 
L 331.723636 223.176816 
L 335.781818 223.462584 
L 339.84 223.74684 
L 343.898182 223.999344 
L 347.956364 224.183808 
L 352.014545 224.2836 
L 356.072727 224.310816 
L 360.130909 224.288136 
L 364.189091 224.235216 
L 368.247273 224.168688 
L 372.305455 224.0946 
L 376.363636 224.017488 
L 380.421818 223.941888 
L 384.48 223.8678 
L 388.538182 223.798248 
L 392.596364 223.733232 
L 396.654545 223.67124 
L 400.712727 223.615296 
L 404.770909 223.562376 
L 408.829091 223.515504 
L 412.887273 223.471656 
L 416.945455 223.432344 
L 421.003636 223.397568 
L 425.061818 223.365816 
L 429.12 223.337088 
L 433.178182 223.311384 
L 437.236364 223.290216 
L 441.294545 223.27056 
L 445.352727 223.252416 
L 449.410909 223.238808 
L 453.469091 223.2252 
L 457.527273 223.214616 
L 461.585455 223.205544 
L 465.643636 223.196472 
L 469.701818 223.190424 
L 473.76 223.184376 
L 477.818182 223.181352 
L 481.876364 223.176816 
L 485.934545 223.175304 
L 489.992727 223.17228 
L 494.050909 223.17228 
L 498.109091 223.170768 
" clip-path="url(#p4b2c3f9871)" style="fill: none; stroke: #000000; stroke-opacity: 0.5; stroke-linecap: square"/>
   </g>
   <g id="line2d_20">
    <path d="M 92.290909 166.130568 
L 96.349091 166.127544 
L 100.407273 166.113936 
L 104.465455 166.092768 
L 108.523636 166.06404 
L 112.581818 166.02624 
L 116.64 165.98088 
L 120.698182 165.92796 
L 124.756364 165.86748 
L 128.814545 165.800952 
L 132.872727 165.726864 
L 136.930909 165.649752 
L 140.989091 165.566592 
L 145.047273 165.480408 
L 149.105455 165.3912 
L 153.163636 165.301992 
L 157.221818 165.212784 
L 161.28 165.1266 
L 165.338182 165.046464 
L 169.396364 164.9754 
L 173.454545 164.91492 
L 177.512727 164.872584 
L 181.570909 164.851416 
L 185.629091 164.857464 
L 189.687273 164.898288 
L 193.745455 164.979936 
L 197.803636 165.109968 
L 201.861818 165.294432 
L 205.92 165.537864 
L 209.978182 165.840264 
L 214.036364 166.20012 
L 218.094545 166.614408 
L 222.152727 167.075568 
L 226.210909 167.574528 
L 230.269091 168.10524 
L 234.327273 168.658632 
L 238.385455 169.227144 
L 242.443636 169.804728 
L 246.501818 170.383824 
L 250.56 170.961408 
L 254.618182 171.52992 
L 258.676364 172.087848 
L 262.734545 172.627632 
L 266.792727 173.14776 
L 270.850909 173.643696 
L 274.909091 174.110904 
L 278.967273 174.547872 
L 283.025455 174.948552 
L 287.083636 175.311432 
L 291.141818 175.631976 
L 295.2 175.908672 
L 299.258182 176.138496 
L 303.316364 176.319936 
L 307.374545 176.449968 
L 311.432727 176.528592 
L 315.490909 176.554296 
L 319.549091 176.52708 
L 323.607273 176.446944 
L 327.665455 176.316912 
L 331.723636 176.136984 
L 335.781818 175.90716 
L 339.84 175.633488 
L 343.898182 175.315968 
L 347.956364 174.957624 
L 352.014545 174.56148 
L 356.072727 174.129048 
L 360.130909 173.664864 
L 364.189091 173.171952 
L 368.247273 172.651824 
L 372.305455 172.105992 
L 376.363636 171.538992 
L 380.421818 170.950824 
L 384.48 170.346024 
L 388.538182 169.724592 
L 392.596364 169.089552 
L 396.654545 168.442416 
L 400.712727 167.786208 
L 404.770909 167.120928 
L 408.829091 166.4496 
L 412.887273 165.775248 
L 416.945455 165.099384 
L 421.003636 164.426544 
L 425.061818 163.75824 
L 429.12 163.099008 
L 433.178182 162.453384 
L 437.236364 161.825904 
L 441.294545 161.22564 
L 445.352727 160.655616 
L 449.410909 160.126416 
L 453.469091 159.642576 
L 457.527273 159.210144 
L 461.585455 158.833656 
L 465.643636 158.513112 
L 469.701818 158.247 
L 473.76 158.032296 
L 477.818182 157.862952 
L 481.876364 157.731408 
L 485.934545 157.636152 
L 489.992727 157.571136 
L 494.050909 157.531824 
L 498.109091 157.519728 
" clip-path="url(#p4b2c3f9871)" style="fill: none; stroke: #000000; stroke-opacity: 0.5; stroke-linecap: square"/>
   </g>
   <g id="line2d_21">
    <path d="M 92.290909 135.568512 
L 96.349091 135.666792 
L 100.407273 135.954072 
L 104.465455 136.407672 
L 108.523636 136.99584 
L 112.581818 137.689848 
L 116.64 138.460968 
L 120.698182 139.291056 
L 124.756364 140.161968 
L 128.814545 141.060096 
L 132.872727 141.974856 
L 136.930909 142.901712 
L 140.989091 143.831592 
L 145.047273 144.75996 
L 149.105455 145.68228 
L 153.163636 146.595528 
L 157.221818 147.495168 
L 161.28 148.378176 
L 165.338182 149.241528 
L 169.396364 150.080688 
L 173.454545 150.889608 
L 177.512727 151.666776 
L 181.570909 152.40312 
L 185.629091 153.094104 
L 189.687273 153.73368 
L 193.745455 154.312776 
L 197.803636 154.825344 
L 201.861818 155.265336 
L 205.92 155.628216 
L 209.978182 155.912472 
L 214.036364 156.119616 
L 218.094545 156.255696 
L 222.152727 156.325248 
L 226.210909 156.335832 
L 230.269091 156.29652 
L 234.327273 156.21336 
L 238.385455 156.095424 
L 242.443636 155.947248 
L 246.501818 155.77488 
L 250.56 155.584368 
L 254.618182 155.377224 
L 258.676364 155.157984 
L 262.734545 154.931184 
L 266.792727 154.699848 
L 270.850909 154.468512 
L 274.909091 154.2402 
L 278.967273 154.023984 
L 283.025455 153.8244 
L 287.083636 153.65808 
L 291.141818 153.540144 
L 295.2 153.493272 
L 299.258182 153.523512 
L 303.316364 153.626328 
L 307.374545 153.774504 
L 311.432727 153.942336 
L 315.490909 154.113192 
L 319.549091 154.274976 
L 323.607273 154.42164 
L 327.665455 154.55016 
L 331.723636 154.657512 
L 335.781818 154.74672 
L 339.84 154.81476 
L 343.898182 154.864656 
L 347.956364 154.899432 
L 352.014545 154.917576 
L 356.072727 154.925136 
L 360.130909 154.9206 
L 364.189091 154.908504 
L 368.247273 154.888848 
L 372.305455 154.864656 
L 376.363636 154.835928 
L 380.421818 154.805688 
L 384.48 154.773936 
L 388.538182 154.742184 
L 392.596364 154.70892 
L 396.654545 154.677168 
L 400.712727 154.643904 
L 404.770909 154.609128 
L 408.829091 154.574352 
L 412.887273 154.53504 
L 416.945455 154.492704 
L 421.003636 154.445832 
L 425.061818 154.389888 
L 429.12 154.32336 
L 433.178182 154.243224 
L 437.236364 154.146456 
L 441.294545 154.030032 
L 445.352727 153.887904 
L 449.410909 153.717048 
L 453.469091 153.51444 
L 457.527273 153.278568 
L 461.585455 153.010944 
L 465.643636 152.719128 
L 469.701818 152.41068 
L 473.76 152.097696 
L 477.818182 151.796808 
L 481.876364 151.521624 
L 485.934545 151.288776 
L 489.992727 151.111872 
L 494.050909 151.001496 
L 498.109091 150.963696 
" clip-path="url(#p4b2c3f9871)" style="fill: none; stroke: #000000; stroke-opacity: 0.5; stroke-linecap: square"/>
   </g>
   <g id="line2d_22">
    <path d="M 92.290909 121.357224 
L 96.349091 121.251384 
L 100.407273 120.942936 
L 104.465455 120.456072 
L 108.523636 119.828592 
L 112.581818 119.098296 
L 116.64 118.312056 
L 120.698182 117.533376 
L 124.756364 116.872632 
L 128.814545 116.520336 
L 132.872727 116.656416 
L 136.930909 117.223416 
L 140.989091 118.04292 
L 145.047273 118.990944 
L 149.105455 120.011544 
L 153.163636 121.072968 
L 157.221818 122.160096 
L 161.28 123.262344 
L 165.338182 124.373664 
L 169.396364 125.488008 
L 173.454545 126.603864 
L 177.512727 127.716696 
L 181.570909 128.82348 
L 185.629091 129.924216 
L 189.687273 131.01588 
L 193.745455 132.09696 
L 197.803636 133.165944 
L 201.861818 134.22132 
L 205.92 135.261576 
L 209.978182 136.2852 
L 214.036364 137.29068 
L 218.094545 138.276504 
L 222.152727 139.24116 
L 226.210909 140.184648 
L 230.269091 141.105456 
L 234.327273 141.999048 
L 238.385455 142.868448 
L 242.443636 143.70912 
L 246.501818 144.521064 
L 250.56 145.301256 
L 254.618182 146.051208 
L 258.676364 146.766384 
L 262.734545 147.445272 
L 266.792727 148.08636 
L 270.850909 148.686624 
L 274.909091 149.241528 
L 278.967273 149.748048 
L 283.025455 150.194088 
L 287.083636 150.570576 
L 291.141818 150.857856 
L 295.2 151.039296 
L 299.258182 151.1028 
L 303.316364 151.058952 
L 307.374545 150.930432 
L 311.432727 150.745968 
L 315.490909 150.522192 
L 319.549091 150.269688 
L 323.607273 149.997528 
L 327.665455 149.707224 
L 331.723636 149.400288 
L 335.781818 149.079744 
L 339.84 148.742568 
L 343.898182 148.38876 
L 347.956364 148.016808 
L 352.014545 147.6252 
L 356.072727 147.213936 
L 360.130909 146.77848 
L 364.189091 146.320344 
L 368.247273 145.836504 
L 372.305455 145.325448 
L 376.363636 144.788688 
L 380.421818 144.2232 
L 384.48 143.632008 
L 388.538182 143.012088 
L 392.596364 142.364952 
L 396.654545 141.692112 
L 400.712727 140.99508 
L 404.770909 140.273856 
L 408.829091 139.531464 
L 412.887273 138.770928 
L 416.945455 137.992248 
L 421.003636 137.198448 
L 425.061818 136.395576 
L 429.12 135.583632 
L 433.178182 134.768664 
L 437.236364 133.955208 
L 441.294545 133.149312 
L 445.352727 132.358536 
L 449.410909 131.593464 
L 453.469091 130.866192 
L 457.527273 130.1994 
L 461.585455 129.623328 
L 465.643636 129.190896 
L 469.701818 128.964096 
L 473.76 128.979216 
L 477.818182 129.181824 
L 481.876364 129.469104 
L 485.934545 129.756384 
L 489.992727 129.989232 
L 494.050909 130.140432 
L 498.109091 130.19184 
" clip-path="url(#p4b2c3f9871)" style="fill: none; stroke: #000000; stroke-opacity: 0.5; stroke-linecap: square"/>
   </g>
   <g id="line2d_23">
    <path d="M 92.290909 108.096984 
L 96.349091 108.181656 
L 100.407273 108.428112 
L 104.465455 108.822744 
L 108.523636 109.34136 
L 112.581818 109.952208 
L 116.64 110.612952 
L 120.698182 111.266136 
L 124.756364 111.801384 
L 128.814545 112.02516 
L 132.872727 111.757536 
L 136.930909 111.051432 
L 140.989091 110.088288 
L 145.047273 108.98604 
L 149.105455 107.803656 
L 153.163636 106.569864 
L 157.221818 105.298272 
L 161.28 103.999464 
L 165.338182 102.681 
L 169.396364 101.345904 
L 173.454545 99.998712 
L 177.512727 98.64396 
L 181.570909 97.28316 
L 185.629091 95.92236 
L 189.687273 94.564584 
L 193.745455 93.214368 
L 197.803636 91.880784 
L 201.861818 90.571392 
L 205.92 89.295264 
L 209.978182 88.072056 
L 214.036364 86.919912 
L 218.094545 85.86756 
L 222.152727 84.943728 
L 226.210909 84.178656 
L 230.269091 83.590488 
L 234.327273 83.174688 
L 238.385455 82.913112 
L 242.443636 82.778544 
L 246.501818 82.739232 
L 250.56 82.774008 
L 254.618182 82.860192 
L 258.676364 82.985688 
L 262.734545 83.139912 
L 266.792727 83.310768 
L 270.850909 83.495232 
L 274.909091 83.687256 
L 278.967273 83.882304 
L 283.025455 84.078864 
L 287.083636 84.273912 
L 291.141818 84.46896 
L 295.2 84.66552 
L 299.258182 84.865104 
L 303.316364 85.070736 
L 307.374545 85.291488 
L 311.432727 85.53492 
L 315.490909 85.811616 
L 319.549091 86.133672 
L 323.607273 86.51772 
L 327.665455 86.977368 
L 331.723636 87.526224 
L 335.781818 88.176384 
L 339.84 88.92936 
L 343.898182 89.786664 
L 347.956364 90.740736 
L 352.014545 91.77948 
L 356.072727 92.8908 
L 360.130909 94.0626 
L 364.189091 95.281272 
L 368.247273 96.537744 
L 372.305455 97.822944 
L 376.363636 99.129312 
L 380.421818 100.449288 
L 384.48 101.778336 
L 388.538182 103.11192 
L 392.596364 104.447016 
L 396.654545 105.777576 
L 400.712727 107.1036 
L 404.770909 108.420552 
L 408.829091 109.72692 
L 412.887273 111.018168 
L 416.945455 112.295808 
L 421.003636 113.55228 
L 425.061818 114.789096 
L 429.12 116.000208 
L 433.178182 117.184104 
L 437.236364 118.33776 
L 441.294545 119.452104 
L 445.352727 120.524112 
L 449.410909 121.5432 
L 453.469091 122.498784 
L 457.527273 123.369696 
L 461.585455 124.124184 
L 465.643636 124.715376 
L 469.701818 125.076744 
L 473.76 125.17956 
L 477.818182 125.07372 
L 481.876364 124.865064 
L 485.934545 124.639776 
L 489.992727 124.450776 
L 494.050909 124.326792 
L 498.109091 124.284456 
" clip-path="url(#p4b2c3f9871)" style="fill: none; stroke: #000000; stroke-opacity: 0.5; stroke-linecap: square"/>
   </g>
   <g id="patch_3">
    <path d="M 72 384.48 
L 72 51.84 
" style="fill: none; stroke: #000000; stroke-width: 0.8; stroke-linejoin: miter; stroke-linecap: square"/>
   </g>
   <g id="patch_4">
    <path d="M 518.4 384.48 
L 518.4 51.84 
" style="fill: none; stroke: #000000; stroke-width: 0.8; stroke-linejoin: miter; stroke-linecap: square"/>
   </g>
   <g id="patch_5">
    <path d="M 72 384.48 
L 518.4 384.48 
" style="fill: none; stroke: #000000; stroke-width: 0.8; stroke-linejoin: miter; stroke-linecap: square"/>
   </g>
   <g id="patch_6">
    <path d="M 72 51.84 
L 518.4 51.84 
" style="fill: none; stroke: #000000; stroke-width: 0.8; stroke-linejoin: miter; stroke-linecap: square"/>
   </g>
  </g>
 </g>
 <defs>
  <clipPath id="p4b2c3f9871">
   <rect x="72" y="51.84" width="446.4" height="332.64"/>
  </clipPath>
 </defs>
</svg>
