<?xml version="1.0" encoding="utf-8" standalone="no"?>
<!DOCTYPE svg PUBLIC "-//W3C//DTD SVG 1.1//EN"
  "http://www.w3.org/Graphics/SVG/1.1/DTD/svg11.dtd">
<svg xmlns:xlink="http://www.w3.org/1999/xlink" width="576pt" height="432pt" viewBox="0 0 576 432" xmlns="http://www.w3.org/2000/svg" version="1.1">
 <metadata>
  <rdf:RDF xmlns:dc="http://purl.org/dc/elements/1.1/" xmlns:cc="http://creativecommons.org/ns#" xmlns:rdf="http://www.w3.org/1999/02/22-rdf-syntax-ns#">
   <cc:Work>
    <dc:type rdf:resource="http://purl.org/dc/dcmitype/StillImage"/>
    <dc:date>2023-05-04T05:30:09.573029</dc:date>
    <dc:format>image/svg+xml</dc:format>
    <dc:creator>
     <cc:Agent>
      <dc:title>Matplotlib v3.7.1, https://matplotlib.org/</dc:title>
     </cc:Agent>
    </dc:creator>
   </cc:Work>
  </rdf:RDF>
 </metadata>
 <defs>
  <style type="text/css">*{stroke-linejoin: round; stroke-linecap: butt}</style>
 </defs>
 <g id="figure_1">
  <g id="patch_1">
   <path d="M 0 432 
L 576 432 
L 576 0 
L 0 0 
z
" style="fill: #ffffff"/>
  </g>
  <g id="axes_1">
   <g id="patch_2">
    <path d="M 72 384.48 
L 518.4 384.48 
L 518.4 51.84 
L 72 51.84 
z
" style="fill: #ffffff"/>
   </g>
   <g id="matplotlib.axis_1">
    <g id="xtick_1">
     <g id="line2d_1">
      <defs>
       <path id="m31fe70866e" d="M 0 0 
L 0 3.5 
" style="stroke: #000000; stroke-width: 0.8"/>
      </defs>
      <g>
       <use xlink:href="#m31fe70866e" x="92.290909" y="384.48" style="stroke: #000000; stroke-width: 0.8"/>
      </g>
     </g>
     <g id="text_1">
      <!-- 0.0 -->
      <g transform="translate(84.339347 399.078438) scale(0.1 -0.1)">
       <defs>
        <path id="DejaVuSans-30" d="M 2034 4250 
Q 1547 4250 1301 3770 
Q 1056 3291 1056 2328 
Q 1056 1369 1301 889 
Q 1547 409 2034 409 
Q 2525 409 2770 889 
Q 3016 1369 3016 2328 
Q 3016 3291 2770 3770 
Q 2525 4250 2034 4250 
z
M 2034 4750 
Q 2819 4750 3233 4129 
Q 3647 3509 3647 2328 
Q 3647 1150 3233 529 
Q 2819 -91 2034 -91 
Q 1250 -91 836 529 
Q 422 1150 422 2328 
Q 422 3509 836 4129 
Q 1250 4750 2034 4750 
z
" transform="scale(0.015625)"/>
        <path id="DejaVuSans-2e" d="M 684 794 
L 1344 794 
L 1344 0 
L 684 0 
L 684 794 
z
" transform="scale(0.015625)"/>
       </defs>
       <use xlink:href="#DejaVuSans-30"/>
       <use xlink:href="#DejaVuSans-2e" x="63.623047"/>
       <use xlink:href="#DejaVuSans-30" x="95.410156"/>
      </g>
     </g>
    </g>
    <g id="xtick_2">
     <g id="line2d_2">
      <g>
       <use xlink:href="#m31fe70866e" x="173.454545" y="384.48" style="stroke: #000000; stroke-width: 0.8"/>
      </g>
     </g>
     <g id="text_2">
      <!-- 0.2 -->
      <g transform="translate(165.502983 399.078438) scale(0.1 -0.1)">
       <defs>
        <path id="DejaVuSans-32" d="M 1228 531 
L 3431 531 
L 3431 0 
L 469 0 
L 469 531 
Q 828 903 1448 1529 
Q 2069 2156 2228 2338 
Q 2531 2678 2651 2914 
Q 2772 3150 2772 3378 
Q 2772 3750 2511 3984 
Q 2250 4219 1831 4219 
Q 1534 4219 1204 4116 
Q 875 4013 500 3803 
L 500 4441 
Q 881 4594 1212 4672 
Q 1544 4750 1819 4750 
Q 2544 4750 2975 4387 
Q 3406 4025 3406 3419 
Q 3406 3131 3298 2873 
Q 3191 2616 2906 2266 
Q 2828 2175 2409 1742 
Q 1991 1309 1228 531 
z
" transform="scale(0.015625)"/>
       </defs>
       <use xlink:href="#DejaVuSans-30"/>
       <use xlink:href="#DejaVuSans-2e" x="63.623047"/>
       <use xlink:href="#DejaVuSans-32" x="95.410156"/>
      </g>
     </g>
    </g>
    <g id="xtick_3">
     <g id="line2d_3">
      <g>
       <use xlink:href="#m31fe70866e" x="254.618182" y="384.48" style="stroke: #000000; stroke-width: 0.8"/>
      </g>
     </g>
     <g id="text_3">
      <!-- 0.4 -->
      <g transform="translate(246.666619 399.078438) scale(0.1 -0.1)">
       <defs>
        <path id="DejaVuSans-34" d="M 2419 4116 
L 825 1625 
L 2419 1625 
L 2419 4116 
z
M 2253 4666 
L 3047 4666 
L 3047 1625 
L 3713 1625 
L 3713 1100 
L 3047 1100 
L 3047 0 
L 2419 0 
L 2419 1100 
L 313 1100 
L 313 1709 
L 2253 4666 
z
" transform="scale(0.015625)"/>
       </defs>
       <use xlink:href="#DejaVuSans-30"/>
       <use xlink:href="#DejaVuSans-2e" x="63.623047"/>
       <use xlink:href="#DejaVuSans-34" x="95.410156"/>
      </g>
     </g>
    </g>
    <g id="xtick_4">
     <g id="line2d_4">
      <g>
       <use xlink:href="#m31fe70866e" x="335.781818" y="384.48" style="stroke: #000000; stroke-width: 0.8"/>
      </g>
     </g>
     <g id="text_4">
      <!-- 0.6 -->
      <g transform="translate(327.830256 399.078438) scale(0.1 -0.1)">
       <defs>
        <path id="DejaVuSans-36" d="M 2113 2584 
Q 1688 2584 1439 2293 
Q 1191 2003 1191 1497 
Q 1191 994 1439 701 
Q 1688 409 2113 409 
Q 2538 409 2786 701 
Q 3034 994 3034 1497 
Q 3034 2003 2786 2293 
Q 2538 2584 2113 2584 
z
M 3366 4563 
L 3366 3988 
Q 3128 4100 2886 4159 
Q 2644 4219 2406 4219 
Q 1781 4219 1451 3797 
Q 1122 3375 1075 2522 
Q 1259 2794 1537 2939 
Q 1816 3084 2150 3084 
Q 2853 3084 3261 2657 
Q 3669 2231 3669 1497 
Q 3669 778 3244 343 
Q 2819 -91 2113 -91 
Q 1303 -91 875 529 
Q 447 1150 447 2328 
Q 447 3434 972 4092 
Q 1497 4750 2381 4750 
Q 2619 4750 2861 4703 
Q 3103 4656 3366 4563 
z
" transform="scale(0.015625)"/>
       </defs>
       <use xlink:href="#DejaVuSans-30"/>
       <use xlink:href="#DejaVuSans-2e" x="63.623047"/>
       <use xlink:href="#DejaVuSans-36" x="95.410156"/>
      </g>
     </g>
    </g>
    <g id="xtick_5">
     <g id="line2d_5">
      <g>
       <use xlink:href="#m31fe70866e" x="416.945455" y="384.48" style="stroke: #000000; stroke-width: 0.8"/>
      </g>
     </g>
     <g id="text_5">
      <!-- 0.8 -->
      <g transform="translate(408.993892 399.078438) scale(0.1 -0.1)">
       <defs>
        <path id="DejaVuSans-38" d="M 2034 2216 
Q 1584 2216 1326 1975 
Q 1069 1734 1069 1313 
Q 1069 891 1326 650 
Q 1584 409 2034 409 
Q 2484 409 2743 651 
Q 3003 894 3003 1313 
Q 3003 1734 2745 1975 
Q 2488 2216 2034 2216 
z
M 1403 2484 
Q 997 2584 770 2862 
Q 544 3141 544 3541 
Q 544 4100 942 4425 
Q 1341 4750 2034 4750 
Q 2731 4750 3128 4425 
Q 3525 4100 3525 3541 
Q 3525 3141 3298 2862 
Q 3072 2584 2669 2484 
Q 3125 2378 3379 2068 
Q 3634 1759 3634 1313 
Q 3634 634 3220 271 
Q 2806 -91 2034 -91 
Q 1263 -91 848 271 
Q 434 634 434 1313 
Q 434 1759 690 2068 
Q 947 2378 1403 2484 
z
M 1172 3481 
Q 1172 3119 1398 2916 
Q 1625 2713 2034 2713 
Q 2441 2713 2670 2916 
Q 2900 3119 2900 3481 
Q 2900 3844 2670 4047 
Q 2441 4250 2034 4250 
Q 1625 4250 1398 4047 
Q 1172 3844 1172 3481 
z
" transform="scale(0.015625)"/>
       </defs>
       <use xlink:href="#DejaVuSans-30"/>
       <use xlink:href="#DejaVuSans-2e" x="63.623047"/>
       <use xlink:href="#DejaVuSans-38" x="95.410156"/>
      </g>
     </g>
    </g>
    <g id="xtick_6">
     <g id="line2d_6">
      <g>
       <use xlink:href="#m31fe70866e" x="498.109091" y="384.48" style="stroke: #000000; stroke-width: 0.8"/>
      </g>
     </g>
     <g id="text_6">
      <!-- 1.0 -->
      <g transform="translate(490.157528 399.078438) scale(0.1 -0.1)">
       <defs>
        <path id="DejaVuSans-31" d="M 794 531 
L 1825 531 
L 1825 4091 
L 703 3866 
L 703 4441 
L 1819 4666 
L 2450 4666 
L 2450 531 
L 3481 531 
L 3481 0 
L 794 0 
L 794 531 
z
" transform="scale(0.015625)"/>
       </defs>
       <use xlink:href="#DejaVuSans-31"/>
       <use xlink:href="#DejaVuSans-2e" x="63.623047"/>
       <use xlink:href="#DejaVuSans-30" x="95.410156"/>
      </g>
     </g>
    </g>
   </g>
   <g id="matplotlib.axis_2">
    <g id="ytick_1">
     <g id="line2d_7">
      <defs>
       <path id="m63f6f9b469" d="M 0 0 
L -3.5 0 
" style="stroke: #000000; stroke-width: 0.8"/>
      </defs>
      <g>
       <use xlink:href="#m63f6f9b469" x="72" y="369.36" style="stroke: #000000; stroke-width: 0.8"/>
      </g>
     </g>
     <g id="text_7">
      <!-- −5.0 -->
      <g transform="translate(40.717187 373.159219) scale(0.1 -0.1)">
       <defs>
        <path id="DejaVuSans-2212" d="M 678 2272 
L 4684 2272 
L 4684 1741 
L 678 1741 
L 678 2272 
z
" transform="scale(0.015625)"/>
        <path id="DejaVuSans-35" d="M 691 4666 
L 3169 4666 
L 3169 4134 
L 1269 4134 
L 1269 2991 
Q 1406 3038 1543 3061 
Q 1681 3084 1819 3084 
Q 2600 3084 3056 2656 
Q 3513 2228 3513 1497 
Q 3513 744 3044 326 
Q 2575 -91 1722 -91 
Q 1428 -91 1123 -41 
Q 819 9 494 109 
L 494 744 
Q 775 591 1075 516 
Q 1375 441 1709 441 
Q 2250 441 2565 725 
Q 2881 1009 2881 1497 
Q 2881 1984 2565 2268 
Q 2250 2553 1709 2553 
Q 1456 2553 1204 2497 
Q 953 2441 691 2322 
L 691 4666 
z
" transform="scale(0.015625)"/>
       </defs>
       <use xlink:href="#DejaVuSans-2212"/>
       <use xlink:href="#DejaVuSans-35" x="83.789062"/>
       <use xlink:href="#DejaVuSans-2e" x="147.412109"/>
       <use xlink:href="#DejaVuSans-30" x="179.199219"/>
      </g>
     </g>
    </g>
    <g id="ytick_2">
     <g id="line2d_8">
      <g>
       <use xlink:href="#m63f6f9b469" x="72" y="331.56" style="stroke: #000000; stroke-width: 0.8"/>
      </g>
     </g>
     <g id="text_8">
      <!-- −2.5 -->
      <g transform="translate(40.717187 335.359219) scale(0.1 -0.1)">
       <use xlink:href="#DejaVuSans-2212"/>
       <use xlink:href="#DejaVuSans-32" x="83.789062"/>
       <use xlink:href="#DejaVuSans-2e" x="147.412109"/>
       <use xlink:href="#DejaVuSans-35" x="179.199219"/>
      </g>
     </g>
    </g>
    <g id="ytick_3">
     <g id="line2d_9">
      <g>
       <use xlink:href="#m63f6f9b469" x="72" y="293.76" style="stroke: #000000; stroke-width: 0.8"/>
      </g>
     </g>
     <g id="text_9">
      <!-- 0.0 -->
      <g transform="translate(49.096875 297.559219) scale(0.1 -0.1)">
       <use xlink:href="#DejaVuSans-30"/>
       <use xlink:href="#DejaVuSans-2e" x="63.623047"/>
       <use xlink:href="#DejaVuSans-30" x="95.410156"/>
      </g>
     </g>
    </g>
    <g id="ytick_4">
     <g id="line2d_10">
      <g>
       <use xlink:href="#m63f6f9b469" x="72" y="255.96" style="stroke: #000000; stroke-width: 0.8"/>
      </g>
     </g>
     <g id="text_10">
      <!-- 2.5 -->
      <g transform="translate(49.096875 259.759219) scale(0.1 -0.1)">
       <use xlink:href="#DejaVuSans-32"/>
       <use xlink:href="#DejaVuSans-2e" x="63.623047"/>
       <use xlink:href="#DejaVuSans-35" x="95.410156"/>
      </g>
     </g>
    </g>
    <g id="ytick_5">
     <g id="line2d_11">
      <g>
       <use xlink:href="#m63f6f9b469" x="72" y="218.16" style="stroke: #000000; stroke-width: 0.8"/>
      </g>
     </g>
     <g id="text_11">
      <!-- 5.0 -->
      <g transform="translate(49.096875 221.959219) scale(0.1 -0.1)">
       <use xlink:href="#DejaVuSans-35"/>
       <use xlink:href="#DejaVuSans-2e" x="63.623047"/>
       <use xlink:href="#DejaVuSans-30" x="95.410156"/>
      </g>
     </g>
    </g>
    <g id="ytick_6">
     <g id="line2d_12">
      <g>
       <use xlink:href="#m63f6f9b469" x="72" y="180.36" style="stroke: #000000; stroke-width: 0.8"/>
      </g>
     </g>
     <g id="text_12">
      <!-- 7.5 -->
      <g transform="translate(49.096875 184.159219) scale(0.1 -0.1)">
       <defs>
        <path id="DejaVuSans-37" d="M 525 4666 
L 3525 4666 
L 3525 4397 
L 1831 0 
L 1172 0 
L 2766 4134 
L 525 4134 
L 525 4666 
z
" transform="scale(0.015625)"/>
       </defs>
       <use xlink:href="#DejaVuSans-37"/>
       <use xlink:href="#DejaVuSans-2e" x="63.623047"/>
       <use xlink:href="#DejaVuSans-35" x="95.410156"/>
      </g>
     </g>
    </g>
    <g id="ytick_7">
     <g id="line2d_13">
      <g>
       <use xlink:href="#m63f6f9b469" x="72" y="142.56" style="stroke: #000000; stroke-width: 0.8"/>
      </g>
     </g>
     <g id="text_13">
      <!-- 10.0 -->
      <g transform="translate(42.734375 146.359219) scale(0.1 -0.1)">
       <use xlink:href="#DejaVuSans-31"/>
       <use xlink:href="#DejaVuSans-30" x="63.623047"/>
       <use xlink:href="#DejaVuSans-2e" x="127.246094"/>
       <use xlink:href="#DejaVuSans-30" x="159.033203"/>
      </g>
     </g>
    </g>
    <g id="ytick_8">
     <g id="line2d_14">
      <g>
       <use xlink:href="#m63f6f9b469" x="72" y="104.76" style="stroke: #000000; stroke-width: 0.8"/>
      </g>
     </g>
     <g id="text_14">
      <!-- 12.5 -->
      <g transform="translate(42.734375 108.559219) scale(0.1 -0.1)">
       <use xlink:href="#DejaVuSans-31"/>
       <use xlink:href="#DejaVuSans-32" x="63.623047"/>
       <use xlink:href="#DejaVuSans-2e" x="127.246094"/>
       <use xlink:href="#DejaVuSans-35" x="159.033203"/>
      </g>
     </g>
    </g>
    <g id="ytick_9">
     <g id="line2d_15">
      <g>
       <use xlink:href="#m63f6f9b469" x="72" y="66.96" style="stroke: #000000; stroke-width: 0.8"/>
      </g>
     </g>
     <g id="text_15">
      <!-- 15.0 -->
      <g transform="translate(42.734375 70.759219) scale(0.1 -0.1)">
       <use xlink:href="#DejaVuSans-31"/>
       <use xlink:href="#DejaVuSans-35" x="63.623047"/>
       <use xlink:href="#DejaVuSans-2e" x="127.246094"/>
       <use xlink:href="#DejaVuSans-30" x="159.033203"/>
      </g>
     </g>
    </g>
   </g>
   <g id="line2d_16">
    <path d="M 92.290909 341.235288 
L 96.349091 341.232264 
L 100.407273 341.218656 
L 104.465455 341.195976 
L 108.523636 341.165736 
L 112.581818 341.126424 
L 116.64 341.07804 
L 120.698182 341.020584 
L 124.756364 340.955568 
L 128.814545 340.88148 
L 132.872727 340.79832 
L 136.930909 340.7076 
L 140.989091 340.607808 
L 145.047273 340.500456 
L 149.105455 340.384032 
L 153.163636 340.260048 
L 157.221818 340.126992 
L 161.28 339.986376 
L 165.338182 339.8382 
L 169.396364 339.680952 
L 173.454545 339.517656 
L 177.512727 339.345288 
L 181.570909 339.166872 
L 185.629091 338.980896 
L 189.687273 338.78736 
L 193.745455 338.586264 
L 197.803636 338.37912 
L 201.861818 338.164416 
L 205.92 337.945176 
L 209.978182 337.718376 
L 214.036364 337.485528 
L 218.094545 337.246632 
L 222.152727 337.001688 
L 226.210909 336.752208 
L 230.269091 336.49668 
L 234.327273 336.236616 
L 238.385455 335.970504 
L 242.443636 335.701368 
L 246.501818 335.427696 
L 250.56 335.151 
L 254.618182 334.869768 
L 258.676364 334.584 
L 262.734545 334.29672 
L 266.792727 334.006416 
L 270.850909 333.713088 
L 274.909091 333.416736 
L 278.967273 333.120384 
L 283.025455 332.821008 
L 287.083636 332.521632 
L 291.141818 332.220744 
L 295.2 331.918344 
L 299.258182 331.617456 
L 303.316364 331.315056 
L 307.374545 331.014168 
L 311.432727 330.71328 
L 315.490909 330.415416 
L 319.549091 330.117552 
L 323.607273 329.8212 
L 327.665455 329.52636 
L 331.723636 329.234544 
L 335.781818 328.945752 
L 339.84 328.659984 
L 343.898182 328.37724 
L 347.956364 328.09752 
L 352.014545 327.822336 
L 356.072727 327.550176 
L 360.130909 327.282552 
L 364.189091 327.017952 
L 368.247273 326.7594 
L 372.305455 326.505384 
L 376.363636 326.254392 
L 380.421818 326.009448 
L 384.48 325.770552 
L 388.538182 325.53468 
L 392.596364 325.304856 
L 396.654545 325.079568 
L 400.712727 324.858816 
L 404.770909 324.644112 
L 408.829091 324.433944 
L 412.887273 324.229824 
L 416.945455 324.03024 
L 421.003636 323.835192 
L 425.061818 323.646192 
L 429.12 323.46324 
L 433.178182 323.284824 
L 437.236364 323.112456 
L 441.294545 322.944624 
L 445.352727 322.784352 
L 449.410909 322.630128 
L 453.469091 322.481952 
L 457.527273 322.342848 
L 461.585455 322.209792 
L 465.643636 322.08732 
L 469.701818 321.97392 
L 473.76 321.872616 
L 477.818182 321.783408 
L 481.876364 321.707808 
L 485.934545 321.647328 
L 489.992727 321.60348 
L 494.050909 321.576264 
L 498.109091 321.567192 
" clip-path="url(#p36f57eb9f8)" style="fill: none; stroke: #000000; stroke-opacity: 0.5; stroke-linecap: square"/>
   </g>
   <g id="line2d_17">
    <path d="M 92.290909 296.099064 
L 96.349091 296.102088 
L 100.407273 296.11116 
L 104.465455 296.12628 
L 108.523636 296.147448 
L 112.581818 296.174664 
L 116.64 296.207928 
L 120.698182 296.24724 
L 124.756364 296.2926 
L 128.814545 296.34552 
L 132.872727 296.404488 
L 136.930909 296.471016 
L 140.989091 296.543592 
L 145.047273 296.622216 
L 149.105455 296.709912 
L 153.163636 296.803656 
L 157.221818 296.906472 
L 161.28 297.015336 
L 165.338182 297.13176 
L 169.396364 297.257256 
L 173.454545 297.390312 
L 177.512727 297.53244 
L 181.570909 297.682128 
L 185.629091 297.840888 
L 189.687273 298.007208 
L 193.745455 298.1826 
L 197.803636 298.365552 
L 201.861818 298.557576 
L 205.92 298.758672 
L 209.978182 298.967328 
L 214.036364 299.185056 
L 218.094545 299.410344 
L 222.152727 299.643192 
L 226.210909 299.885112 
L 230.269091 300.134592 
L 234.327273 300.391632 
L 238.385455 300.65472 
L 242.443636 300.925368 
L 246.501818 301.203576 
L 250.56 301.487832 
L 254.618182 301.776624 
L 258.676364 302.072976 
L 262.734545 302.373864 
L 266.792727 302.6808 
L 270.850909 302.99076 
L 274.909091 303.305256 
L 278.967273 303.624288 
L 283.025455 303.946344 
L 287.083636 304.271424 
L 291.141818 304.599528 
L 295.2 304.929144 
L 299.258182 305.260272 
L 303.316364 305.592912 
L 307.374545 305.928576 
L 311.432727 306.262728 
L 315.490909 306.598392 
L 319.549091 306.932544 
L 323.607273 307.268208 
L 327.665455 307.60236 
L 331.723636 307.935 
L 335.781818 308.266128 
L 339.84 308.595744 
L 343.898182 308.923848 
L 347.956364 309.25044 
L 352.014545 309.572496 
L 356.072727 309.89304 
L 360.130909 310.21056 
L 364.189091 310.523544 
L 368.247273 310.835016 
L 372.305455 311.14044 
L 376.363636 311.444352 
L 380.421818 311.742216 
L 384.48 312.037056 
L 388.538182 312.325848 
L 392.596364 312.610104 
L 396.654545 312.891336 
L 400.712727 313.165008 
L 404.770909 313.434144 
L 408.829091 313.698744 
L 412.887273 313.957296 
L 416.945455 314.2098 
L 421.003636 314.454744 
L 425.061818 314.695152 
L 429.12 314.928 
L 433.178182 315.1548 
L 437.236364 315.372528 
L 441.294545 315.584208 
L 445.352727 315.786816 
L 449.410909 315.981864 
L 453.469091 316.166328 
L 457.527273 316.34172 
L 461.585455 316.505016 
L 465.643636 316.656216 
L 469.701818 316.79532 
L 473.76 316.920816 
L 477.818182 317.02968 
L 481.876364 317.1204 
L 485.934545 317.192976 
L 489.992727 317.247408 
L 494.050909 317.27916 
L 498.109091 317.289744 
" clip-path="url(#p36f57eb9f8)" style="fill: none; stroke: #000000; stroke-opacity: 0.5; stroke-linecap: square"/>
   </g>
   <g id="line2d_18">
    <path d="M 92.290909 243.889704 
L 96.349091 243.968328 
L 100.407273 244.104408 
L 104.465455 244.276776 
L 108.523636 244.485432 
L 112.581818 244.730376 
L 116.64 245.010096 
L 120.698182 245.32308 
L 124.756364 245.669328 
L 128.814545 246.045816 
L 132.872727 246.451032 
L 136.930909 246.881952 
L 140.989091 247.338576 
L 145.047273 247.816368 
L 149.105455 248.313816 
L 153.163636 248.827896 
L 157.221818 249.358608 
L 161.28 249.901416 
L 165.338182 250.45632 
L 169.396364 251.018784 
L 173.454545 251.59032 
L 177.512727 252.16488 
L 181.570909 252.743976 
L 185.629091 253.326096 
L 189.687273 253.908216 
L 193.745455 254.490336 
L 197.803636 255.069432 
L 201.861818 255.645504 
L 205.92 256.21704 
L 209.978182 256.782528 
L 214.036364 257.341968 
L 218.094545 257.893848 
L 222.152727 258.438168 
L 226.210909 258.971904 
L 230.269091 259.495056 
L 234.327273 260.009136 
L 238.385455 260.509608 
L 242.443636 260.999496 
L 246.501818 261.475776 
L 250.56 261.938448 
L 254.618182 262.386 
L 258.676364 262.818432 
L 262.734545 263.235744 
L 266.792727 263.636424 
L 270.850909 264.020472 
L 274.909091 264.387888 
L 278.967273 264.73716 
L 283.025455 265.068288 
L 287.083636 265.381272 
L 291.141818 265.673088 
L 295.2 265.94676 
L 299.258182 266.199264 
L 303.316364 266.432112 
L 307.374545 266.643792 
L 311.432727 266.834304 
L 315.490909 267.002136 
L 319.549091 267.147288 
L 323.607273 267.271272 
L 327.665455 267.372576 
L 331.723636 267.449688 
L 335.781818 267.50412 
L 339.84 267.53436 
L 343.898182 267.54192 
L 347.956364 267.523776 
L 352.014545 267.482952 
L 356.072727 267.417936 
L 360.130909 267.327216 
L 364.189091 267.212304 
L 368.247273 267.074712 
L 372.305455 266.911416 
L 376.363636 266.723928 
L 380.421818 266.512248 
L 384.48 266.276376 
L 388.538182 266.016312 
L 392.596364 265.733568 
L 396.654545 265.426632 
L 400.712727 265.097016 
L 404.770909 264.74472 
L 408.829091 264.369744 
L 412.887273 263.9736 
L 416.945455 263.554776 
L 421.003636 263.116296 
L 425.061818 262.65816 
L 429.12 262.180368 
L 433.178182 261.68292 
L 437.236364 261.16884 
L 441.294545 260.636616 
L 445.352727 260.08776 
L 449.410909 259.523784 
L 453.469091 258.944688 
L 457.527273 258.353496 
L 461.585455 257.748696 
L 465.643636 257.1318 
L 469.701818 256.505832 
L 473.76 255.872304 
L 477.818182 255.229704 
L 481.876364 254.582568 
L 485.934545 253.930896 
L 489.992727 253.280736 
L 494.050909 252.64116 
L 498.109091 252.17244 
" clip-path="url(#p36f57eb9f8)" style="fill: none; stroke: #000000; stroke-opacity: 0.5; stroke-linecap: square"/>
   </g>
   <g id="line2d_19">
    <path d="M 92.290909 243.830736 
L 96.349091 243.785376 
L 100.407273 243.7506 
L 104.465455 243.746064 
L 108.523636 243.768744 
L 112.581818 243.81864 
L 116.64 243.892728 
L 120.698182 243.989496 
L 124.756364 244.10592 
L 128.814545 244.240488 
L 132.872727 244.391688 
L 136.930909 244.556496 
L 140.989091 244.731888 
L 145.047273 244.917864 
L 149.105455 245.109888 
L 153.163636 245.30796 
L 157.221818 245.509056 
L 161.28 245.711664 
L 165.338182 245.915784 
L 169.396364 246.115368 
L 173.454545 246.31344 
L 177.512727 246.505464 
L 181.570909 246.69144 
L 185.629091 246.868344 
L 189.687273 247.037688 
L 193.745455 247.194936 
L 197.803636 247.343112 
L 201.861818 247.47768 
L 205.92 247.59864 
L 209.978182 247.707504 
L 214.036364 247.799736 
L 218.094545 247.87836 
L 222.152727 247.941864 
L 226.210909 247.988736 
L 230.269091 248.018976 
L 234.327273 248.032584 
L 238.385455 248.02956 
L 242.443636 248.011416 
L 246.501818 247.975128 
L 250.56 247.922208 
L 254.618182 247.854168 
L 258.676364 247.769496 
L 262.734545 247.668192 
L 266.792727 247.55328 
L 270.850909 247.421736 
L 274.909091 247.276584 
L 278.967273 247.117824 
L 283.025455 246.945456 
L 287.083636 246.760992 
L 291.141818 246.564432 
L 295.2 246.357288 
L 299.258182 246.13956 
L 303.316364 245.91276 
L 307.374545 245.6784 
L 311.432727 245.43648 
L 315.490909 245.188512 
L 319.549091 244.936008 
L 323.607273 244.68048 
L 327.665455 244.42344 
L 331.723636 244.164888 
L 335.781818 243.907848 
L 339.84 243.655344 
L 343.898182 243.405864 
L 347.956364 243.162432 
L 352.014545 242.928072 
L 356.072727 242.702784 
L 360.130909 242.491104 
L 364.189091 242.294544 
L 368.247273 242.113104 
L 372.305455 241.952832 
L 376.363636 241.812216 
L 380.421818 241.695792 
L 384.48 241.605072 
L 388.538182 241.54308 
L 392.596364 241.509816 
L 396.654545 241.509816 
L 400.712727 241.54308 
L 404.770909 241.61112 
L 408.829091 241.715448 
L 412.887273 241.857576 
L 416.945455 242.037504 
L 421.003636 242.255232 
L 425.061818 242.51076 
L 429.12 242.804088 
L 433.178182 243.135216 
L 437.236364 243.50112 
L 441.294545 243.9018 
L 445.352727 244.334232 
L 449.410909 244.796904 
L 453.469091 245.289816 
L 457.527273 245.80692 
L 461.585455 246.349728 
L 465.643636 246.913704 
L 469.701818 247.497336 
L 473.76 248.0976 
L 477.818182 248.712984 
L 481.876364 249.338952 
L 485.934545 249.973992 
L 489.992727 250.61508 
L 494.050909 251.248608 
L 498.109091 251.714304 
" clip-path="url(#p36f57eb9f8)" style="fill: none; stroke: #000000; stroke-opacity: 0.5; stroke-linecap: square"/>
   </g>
   <g id="line2d_20">
    <path d="M 92.290909 194.20236 
L 96.349091 194.166072 
L 100.407273 194.054184 
L 104.465455 193.86972 
L 108.523636 193.611168 
L 112.581818 193.283064 
L 116.64 192.885408 
L 120.698182 192.419712 
L 124.756364 191.890512 
L 128.814545 191.297808 
L 132.872727 190.646136 
L 136.930909 189.937008 
L 140.989091 189.173448 
L 145.047273 188.356968 
L 149.105455 187.492104 
L 153.163636 186.580368 
L 157.221818 185.624784 
L 161.28 184.626864 
L 165.338182 183.58812 
L 169.396364 182.511576 
L 173.454545 181.400256 
L 177.512727 180.252648 
L 181.570909 179.073288 
L 185.629091 177.863688 
L 189.687273 176.623848 
L 193.745455 175.35528 
L 197.803636 174.061008 
L 201.861818 172.741032 
L 205.92 171.395352 
L 209.978182 170.026992 
L 214.036364 168.635952 
L 218.094545 167.223744 
L 222.152727 165.790368 
L 226.210909 164.337336 
L 230.269091 162.86616 
L 234.327273 161.37684 
L 238.385455 159.869376 
L 242.443636 158.346792 
L 246.501818 156.809088 
L 250.56 155.259288 
L 254.618182 153.69588 
L 258.676364 152.127936 
L 262.734545 150.563016 
L 266.792727 149.0616 
L 270.850909 148.288968 
L 274.909091 149.315616 
L 278.967273 150.727824 
L 283.025455 152.218656 
L 287.083636 153.738216 
L 291.141818 155.263824 
L 295.2 156.78792 
L 299.258182 158.301432 
L 303.316364 159.802848 
L 307.374545 161.28612 
L 311.432727 162.751248 
L 315.490909 164.195208 
L 319.549091 165.616488 
L 323.607273 167.012064 
L 327.665455 168.380424 
L 331.723636 169.720056 
L 335.781818 171.029448 
L 339.84 172.305576 
L 343.898182 173.54844 
L 347.956364 174.753504 
L 352.014545 175.92228 
L 356.072727 177.04872 
L 360.130909 178.134336 
L 364.189091 179.174592 
L 368.247273 180.166464 
L 372.305455 181.109952 
L 376.363636 182.002032 
L 380.421818 182.83968 
L 384.48 183.621384 
L 388.538182 184.34412 
L 392.596364 185.006376 
L 396.654545 185.605128 
L 400.712727 186.140376 
L 404.770909 186.609096 
L 408.829091 187.011288 
L 412.887273 187.343928 
L 416.945455 187.608528 
L 421.003636 187.803576 
L 425.061818 187.929072 
L 429.12 187.985016 
L 433.178182 187.97292 
L 437.236364 187.892784 
L 441.294545 187.747632 
L 445.352727 187.538976 
L 449.410909 187.265304 
L 453.469091 186.932664 
L 457.527273 186.539544 
L 461.585455 186.091992 
L 465.643636 185.588496 
L 469.701818 185.033592 
L 473.76 184.428792 
L 477.818182 183.77712 
L 481.876364 183.0816 
L 485.934545 182.345256 
L 489.992727 181.574136 
L 494.050909 180.795456 
L 498.109091 180.264744 
" clip-path="url(#p36f57eb9f8)" style="fill: none; stroke: #000000; stroke-opacity: 0.5; stroke-linecap: square"/>
   </g>
   <g id="line2d_21">
    <path d="M 92.290909 183.185928 
L 96.349091 183.154176 
L 100.407273 183.060432 
L 104.465455 182.903184 
L 108.523636 182.683944 
L 112.581818 182.404224 
L 116.64 182.062512 
L 120.698182 181.663344 
L 124.756364 181.205208 
L 128.814545 180.691128 
L 132.872727 180.122616 
L 136.930909 179.499672 
L 140.989091 178.82532 
L 145.047273 178.101072 
L 149.105455 177.32844 
L 153.163636 176.507424 
L 157.221818 175.644072 
L 161.28 174.73536 
L 165.338182 173.785824 
L 169.396364 172.796976 
L 173.454545 171.768816 
L 177.512727 170.704368 
L 181.570909 169.605144 
L 185.629091 168.471144 
L 189.687273 167.305392 
L 193.745455 166.1094 
L 197.803636 164.883168 
L 201.861818 163.62972 
L 205.92 162.349056 
L 209.978182 161.042688 
L 214.036364 159.71364 
L 218.094545 158.363424 
L 222.152727 156.993552 
L 226.210909 155.605536 
L 230.269091 154.205424 
L 234.327273 152.797752 
L 238.385455 151.388568 
L 242.443636 149.99148 
L 246.501818 148.632192 
L 250.56 147.357576 
L 254.618182 146.278008 
L 258.676364 145.618776 
L 262.734545 145.66716 
L 266.792727 146.352096 
L 270.850909 146.708928 
L 274.909091 145.443384 
L 278.967273 143.869392 
L 283.025455 142.247016 
L 287.083636 140.606496 
L 291.141818 138.958416 
L 295.2 137.308824 
L 299.258182 135.66528 
L 303.316364 134.033832 
L 307.374545 132.428088 
L 311.432727 130.869216 
L 315.490909 129.396528 
L 319.549091 128.076552 
L 323.607273 127.043856 
L 327.665455 126.495 
L 331.723636 126.596304 
L 335.781818 127.291824 
L 339.84 128.374416 
L 343.898182 129.673224 
L 347.956364 131.088456 
L 352.014545 132.567192 
L 356.072727 134.080704 
L 360.130909 135.61236 
L 364.189091 137.151576 
L 368.247273 138.693816 
L 372.305455 140.233032 
L 376.363636 141.764688 
L 380.421818 143.290296 
L 384.48 144.80532 
L 388.538182 146.308248 
L 392.596364 147.79908 
L 396.654545 149.277816 
L 400.712727 150.741432 
L 404.770909 152.189928 
L 408.829091 153.623304 
L 412.887273 155.040048 
L 416.945455 156.44016 
L 421.003636 157.82364 
L 425.061818 159.187464 
L 429.12 160.533144 
L 433.178182 161.859168 
L 437.236364 163.165536 
L 441.294545 164.450736 
L 445.352727 165.71628 
L 449.410909 166.957632 
L 453.469091 168.176304 
L 457.527273 169.372296 
L 461.585455 170.542584 
L 465.643636 171.687168 
L 469.701818 172.806048 
L 473.76 173.8962 
L 477.818182 174.956112 
L 481.876364 175.985784 
L 485.934545 176.98068 
L 489.992727 177.934752 
L 494.050909 178.823808 
L 498.109091 179.390808 
" clip-path="url(#p36f57eb9f8)" style="fill: none; stroke: #000000; stroke-opacity: 0.5; stroke-linecap: square"/>
   </g>
   <g id="line2d_22">
    <path d="M 92.290909 78.396768 
L 96.349091 78.396768 
L 100.407273 78.4134 
L 104.465455 78.936552 
L 108.523636 79.662312 
L 112.581818 80.558928 
L 116.64 81.606744 
L 120.698182 82.781568 
L 124.756364 84.066768 
L 128.814545 85.445712 
L 132.872727 86.901768 
L 136.930909 88.42284 
L 140.989091 89.999856 
L 145.047273 91.622232 
L 149.105455 93.28392 
L 153.163636 94.975848 
L 157.221818 96.696504 
L 161.28 98.436816 
L 165.338182 100.196784 
L 169.396364 101.97036 
L 173.454545 103.756032 
L 177.512727 105.550776 
L 181.570909 107.351568 
L 185.629091 109.158408 
L 189.687273 110.96676 
L 193.745455 112.776624 
L 197.803636 114.586488 
L 201.861818 116.39484 
L 205.92 118.198656 
L 209.978182 119.996424 
L 214.036364 121.788144 
L 218.094545 123.570792 
L 222.152727 125.342856 
L 226.210909 127.101312 
L 230.269091 128.843136 
L 234.327273 130.56228 
L 238.385455 132.251184 
L 242.443636 133.89624 
L 246.501818 135.473256 
L 250.56 136.932336 
L 254.618182 138.163104 
L 258.676364 138.934224 
L 262.734545 138.950856 
L 266.792727 138.225096 
L 270.850909 137.057832 
L 274.909091 135.669816 
L 278.967273 134.165376 
L 283.025455 132.591384 
L 287.083636 130.97052 
L 291.141818 129.316392 
L 295.2 127.638072 
L 299.258182 125.940096 
L 303.316364 124.228512 
L 307.374545 122.51088 
L 311.432727 120.805344 
L 315.490909 119.163312 
L 319.549091 117.828216 
L 323.607273 117.540936 
L 327.665455 117.708768 
L 331.723636 117.416952 
L 335.781818 116.56872 
L 339.84 115.33644 
L 343.898182 113.881896 
L 347.956364 112.29732 
L 352.014545 110.635632 
L 356.072727 108.924048 
L 360.130909 107.182224 
L 364.189091 105.41772 
L 368.247273 103.639608 
L 372.305455 101.853936 
L 376.363636 100.066752 
L 380.421818 98.28108 
L 384.48 96.50448 
L 388.538182 94.744512 
L 392.596364 93.008736 
L 396.654545 91.312272 
L 400.712727 89.673264 
L 404.770909 88.12044 
L 408.829091 86.690088 
L 412.887273 85.432104 
L 416.945455 84.388824 
L 421.003636 83.573856 
L 425.061818 82.96452 
L 429.12 82.515456 
L 433.178182 82.179792 
L 437.236364 81.919728 
L 441.294545 81.714096 
L 445.352727 81.544752 
L 449.410909 81.402624 
L 453.469091 81.280152 
L 457.527273 81.174312 
L 461.585455 81.080568 
L 465.643636 80.997408 
L 469.701818 80.924832 
L 473.76 80.861328 
L 477.818182 80.806896 
L 481.876364 80.761536 
L 485.934545 80.72676 
L 489.992727 80.701056 
L 494.050909 80.685936 
L 498.109091 80.6814 
" clip-path="url(#p36f57eb9f8)" style="fill: none; stroke: #000000; stroke-opacity: 0.5; stroke-linecap: square"/>
   </g>
   <g id="line2d_23">
    <path d="M 92.290909 77.958288 
L 96.349091 78.068664 
L 100.407273 78.38316 
L 104.465455 78.399792 
L 108.523636 78.402816 
L 112.581818 78.407352 
L 116.64 78.411888 
L 120.698182 78.417936 
L 124.756364 78.425496 
L 128.814545 78.433056 
L 132.872727 78.442128 
L 136.930909 78.4512 
L 140.989091 78.461784 
L 145.047273 78.47388 
L 149.105455 78.487488 
L 153.163636 78.502608 
L 157.221818 78.517728 
L 161.28 78.535872 
L 165.338182 78.554016 
L 169.396364 78.573672 
L 173.454545 78.596352 
L 177.512727 78.619032 
L 181.570909 78.644736 
L 185.629091 78.671952 
L 189.687273 78.70068 
L 193.745455 78.732432 
L 197.803636 78.76872 
L 201.861818 78.80652 
L 205.92 78.848856 
L 209.978182 78.89724 
L 214.036364 78.954696 
L 218.094545 79.024248 
L 222.152727 79.11648 
L 226.210909 79.25256 
L 230.269091 79.495992 
L 234.327273 80.03124 
L 238.385455 81.151632 
L 242.443636 82.743768 
L 246.501818 84.517344 
L 250.56 86.3514 
L 254.618182 88.208136 
L 258.676364 90.07092 
L 262.734545 91.932192 
L 266.792727 93.788928 
L 270.850909 95.63508 
L 274.909091 97.47216 
L 278.967273 99.295632 
L 283.025455 101.105496 
L 287.083636 102.897216 
L 291.141818 104.66928 
L 295.2 106.41564 
L 299.258182 108.130248 
L 303.316364 109.80252 
L 307.374545 111.414312 
L 311.432727 112.930848 
L 315.490909 114.26292 
L 319.549091 115.099056 
L 323.607273 114.568344 
L 327.665455 113.066928 
L 331.723636 111.343248 
L 335.781818 109.55304 
L 339.84 107.73108 
L 343.898182 105.892488 
L 347.956364 104.038776 
L 352.014545 102.177504 
L 356.072727 100.308672 
L 360.130909 98.435304 
L 364.189091 96.561936 
L 368.247273 94.69008 
L 372.305455 92.825784 
L 376.363636 90.975096 
L 380.421818 89.147088 
L 384.48 87.359904 
L 388.538182 85.637736 
L 392.596364 84.03048 
L 396.654545 82.610712 
L 400.712727 81.451008 
L 404.770909 80.54532 
L 408.829091 79.78176 
L 412.887273 79.031808 
L 416.945455 78.212304 
L 421.003636 77.312664 
L 425.061818 76.403952 
L 429.12 75.610152 
L 433.178182 75.03408 
L 437.236364 74.695392 
L 441.294545 74.541168 
L 445.352727 74.50488 
L 449.410909 74.539656 
L 453.469091 74.613744 
L 457.527273 74.710512 
L 461.585455 74.816352 
L 465.643636 74.925216 
L 469.701818 75.031056 
L 473.76 75.129336 
L 477.818182 75.217032 
L 481.876364 75.29112 
L 485.934545 75.3516 
L 489.992727 75.395448 
L 494.050909 75.421152 
L 498.109091 75.430224 
" clip-path="url(#p36f57eb9f8)" style="fill: none; stroke: #000000; stroke-opacity: 0.5; stroke-linecap: square"/>
   </g>
   <g id="patch_3">
    <path d="M 72 384.48 
L 72 51.84 
" style="fill: none; stroke: #000000; stroke-width: 0.8; stroke-linejoin: miter; stroke-linecap: square"/>
   </g>
   <g id="patch_4">
    <path d="M 518.4 384.48 
L 518.4 51.84 
" style="fill: none; stroke: #000000; stroke-width: 0.8; stroke-linejoin: miter; stroke-linecap: square"/>
   </g>
   <g id="patch_5">
    <path d="M 72 384.48 
L 518.4 384.48 
" style="fill: none; stroke: #000000; stroke-width: 0.8; stroke-linejoin: miter; stroke-linecap: square"/>
   </g>
   <g id="patch_6">
    <path d="M 72 51.84 
L 518.4 51.84 
" style="fill: none; stroke: #000000; stroke-width: 0.8; stroke-linejoin: miter; stroke-linecap: square"/>
   </g>
  </g>
 </g>
 <defs>
  <clipPath id="p36f57eb9f8">
   <rect x="72" y="51.84" width="446.4" height="332.64"/>
  </clipPath>
 </defs>
</svg>
