<?xml version="1.0" encoding="utf-8" standalone="no"?>
<!DOCTYPE svg PUBLIC "-//W3C//DTD SVG 1.1//EN"
  "http://www.w3.org/Graphics/SVG/1.1/DTD/svg11.dtd">
<svg xmlns:xlink="http://www.w3.org/1999/xlink" width="576pt" height="432pt" viewBox="0 0 576 432" xmlns="http://www.w3.org/2000/svg" version="1.1">
 <metadata>
  <rdf:RDF xmlns:dc="http://purl.org/dc/elements/1.1/" xmlns:cc="http://creativecommons.org/ns#" xmlns:rdf="http://www.w3.org/1999/02/22-rdf-syntax-ns#">
   <cc:Work>
    <dc:type rdf:resource="http://purl.org/dc/dcmitype/StillImage"/>
    <dc:date>2023-05-04T12:52:03.648438</dc:date>
    <dc:format>image/svg+xml</dc:format>
    <dc:creator>
     <cc:Agent>
      <dc:title>Matplotlib v3.7.1, https://matplotlib.org/</dc:title>
     </cc:Agent>
    </dc:creator>
   </cc:Work>
  </rdf:RDF>
 </metadata>
 <defs>
  <style type="text/css">*{stroke-linejoin: round; stroke-linecap: butt}</style>
 </defs>
 <g id="figure_1">
  <g id="patch_1">
   <path d="M 0 432 
L 576 432 
L 576 0 
L 0 0 
z
" style="fill: #ffffff"/>
  </g>
  <g id="axes_1">
   <g id="patch_2">
    <path d="M 72 384.48 
L 518.4 384.48 
L 518.4 51.84 
L 72 51.84 
z
" style="fill: #ffffff"/>
   </g>
   <g id="matplotlib.axis_1">
    <g id="xtick_1">
     <g id="line2d_1">
      <defs>
       <path id="m89ae49464b" d="M 0 0 
L 0 3.5 
" style="stroke: #000000; stroke-width: 0.8"/>
      </defs>
      <g>
       <use xlink:href="#m89ae49464b" x="92.290909" y="384.48" style="stroke: #000000; stroke-width: 0.8"/>
      </g>
     </g>
     <g id="text_1">
      <!-- 0.0 -->
      <g transform="translate(84.339347 399.078438) scale(0.1 -0.1)">
       <defs>
        <path id="DejaVuSans-30" d="M 2034 4250 
Q 1547 4250 1301 3770 
Q 1056 3291 1056 2328 
Q 1056 1369 1301 889 
Q 1547 409 2034 409 
Q 2525 409 2770 889 
Q 3016 1369 3016 2328 
Q 3016 3291 2770 3770 
Q 2525 4250 2034 4250 
z
M 2034 4750 
Q 2819 4750 3233 4129 
Q 3647 3509 3647 2328 
Q 3647 1150 3233 529 
Q 2819 -91 2034 -91 
Q 1250 -91 836 529 
Q 422 1150 422 2328 
Q 422 3509 836 4129 
Q 1250 4750 2034 4750 
z
" transform="scale(0.015625)"/>
        <path id="DejaVuSans-2e" d="M 684 794 
L 1344 794 
L 1344 0 
L 684 0 
L 684 794 
z
" transform="scale(0.015625)"/>
       </defs>
       <use xlink:href="#DejaVuSans-30"/>
       <use xlink:href="#DejaVuSans-2e" x="63.623047"/>
       <use xlink:href="#DejaVuSans-30" x="95.410156"/>
      </g>
     </g>
    </g>
    <g id="xtick_2">
     <g id="line2d_2">
      <g>
       <use xlink:href="#m89ae49464b" x="173.454545" y="384.48" style="stroke: #000000; stroke-width: 0.8"/>
      </g>
     </g>
     <g id="text_2">
      <!-- 0.2 -->
      <g transform="translate(165.502983 399.078438) scale(0.1 -0.1)">
       <defs>
        <path id="DejaVuSans-32" d="M 1228 531 
L 3431 531 
L 3431 0 
L 469 0 
L 469 531 
Q 828 903 1448 1529 
Q 2069 2156 2228 2338 
Q 2531 2678 2651 2914 
Q 2772 3150 2772 3378 
Q 2772 3750 2511 3984 
Q 2250 4219 1831 4219 
Q 1534 4219 1204 4116 
Q 875 4013 500 3803 
L 500 4441 
Q 881 4594 1212 4672 
Q 1544 4750 1819 4750 
Q 2544 4750 2975 4387 
Q 3406 4025 3406 3419 
Q 3406 3131 3298 2873 
Q 3191 2616 2906 2266 
Q 2828 2175 2409 1742 
Q 1991 1309 1228 531 
z
" transform="scale(0.015625)"/>
       </defs>
       <use xlink:href="#DejaVuSans-30"/>
       <use xlink:href="#DejaVuSans-2e" x="63.623047"/>
       <use xlink:href="#DejaVuSans-32" x="95.410156"/>
      </g>
     </g>
    </g>
    <g id="xtick_3">
     <g id="line2d_3">
      <g>
       <use xlink:href="#m89ae49464b" x="254.618182" y="384.48" style="stroke: #000000; stroke-width: 0.8"/>
      </g>
     </g>
     <g id="text_3">
      <!-- 0.4 -->
      <g transform="translate(246.666619 399.078438) scale(0.1 -0.1)">
       <defs>
        <path id="DejaVuSans-34" d="M 2419 4116 
L 825 1625 
L 2419 1625 
L 2419 4116 
z
M 2253 4666 
L 3047 4666 
L 3047 1625 
L 3713 1625 
L 3713 1100 
L 3047 1100 
L 3047 0 
L 2419 0 
L 2419 1100 
L 313 1100 
L 313 1709 
L 2253 4666 
z
" transform="scale(0.015625)"/>
       </defs>
       <use xlink:href="#DejaVuSans-30"/>
       <use xlink:href="#DejaVuSans-2e" x="63.623047"/>
       <use xlink:href="#DejaVuSans-34" x="95.410156"/>
      </g>
     </g>
    </g>
    <g id="xtick_4">
     <g id="line2d_4">
      <g>
       <use xlink:href="#m89ae49464b" x="335.781818" y="384.48" style="stroke: #000000; stroke-width: 0.8"/>
      </g>
     </g>
     <g id="text_4">
      <!-- 0.6 -->
      <g transform="translate(327.830256 399.078438) scale(0.1 -0.1)">
       <defs>
        <path id="DejaVuSans-36" d="M 2113 2584 
Q 1688 2584 1439 2293 
Q 1191 2003 1191 1497 
Q 1191 994 1439 701 
Q 1688 409 2113 409 
Q 2538 409 2786 701 
Q 3034 994 3034 1497 
Q 3034 2003 2786 2293 
Q 2538 2584 2113 2584 
z
M 3366 4563 
L 3366 3988 
Q 3128 4100 2886 4159 
Q 2644 4219 2406 4219 
Q 1781 4219 1451 3797 
Q 1122 3375 1075 2522 
Q 1259 2794 1537 2939 
Q 1816 3084 2150 3084 
Q 2853 3084 3261 2657 
Q 3669 2231 3669 1497 
Q 3669 778 3244 343 
Q 2819 -91 2113 -91 
Q 1303 -91 875 529 
Q 447 1150 447 2328 
Q 447 3434 972 4092 
Q 1497 4750 2381 4750 
Q 2619 4750 2861 4703 
Q 3103 4656 3366 4563 
z
" transform="scale(0.015625)"/>
       </defs>
       <use xlink:href="#DejaVuSans-30"/>
       <use xlink:href="#DejaVuSans-2e" x="63.623047"/>
       <use xlink:href="#DejaVuSans-36" x="95.410156"/>
      </g>
     </g>
    </g>
    <g id="xtick_5">
     <g id="line2d_5">
      <g>
       <use xlink:href="#m89ae49464b" x="416.945455" y="384.48" style="stroke: #000000; stroke-width: 0.8"/>
      </g>
     </g>
     <g id="text_5">
      <!-- 0.8 -->
      <g transform="translate(408.993892 399.078438) scale(0.1 -0.1)">
       <defs>
        <path id="DejaVuSans-38" d="M 2034 2216 
Q 1584 2216 1326 1975 
Q 1069 1734 1069 1313 
Q 1069 891 1326 650 
Q 1584 409 2034 409 
Q 2484 409 2743 651 
Q 3003 894 3003 1313 
Q 3003 1734 2745 1975 
Q 2488 2216 2034 2216 
z
M 1403 2484 
Q 997 2584 770 2862 
Q 544 3141 544 3541 
Q 544 4100 942 4425 
Q 1341 4750 2034 4750 
Q 2731 4750 3128 4425 
Q 3525 4100 3525 3541 
Q 3525 3141 3298 2862 
Q 3072 2584 2669 2484 
Q 3125 2378 3379 2068 
Q 3634 1759 3634 1313 
Q 3634 634 3220 271 
Q 2806 -91 2034 -91 
Q 1263 -91 848 271 
Q 434 634 434 1313 
Q 434 1759 690 2068 
Q 947 2378 1403 2484 
z
M 1172 3481 
Q 1172 3119 1398 2916 
Q 1625 2713 2034 2713 
Q 2441 2713 2670 2916 
Q 2900 3119 2900 3481 
Q 2900 3844 2670 4047 
Q 2441 4250 2034 4250 
Q 1625 4250 1398 4047 
Q 1172 3844 1172 3481 
z
" transform="scale(0.015625)"/>
       </defs>
       <use xlink:href="#DejaVuSans-30"/>
       <use xlink:href="#DejaVuSans-2e" x="63.623047"/>
       <use xlink:href="#DejaVuSans-38" x="95.410156"/>
      </g>
     </g>
    </g>
    <g id="xtick_6">
     <g id="line2d_6">
      <g>
       <use xlink:href="#m89ae49464b" x="498.109091" y="384.48" style="stroke: #000000; stroke-width: 0.8"/>
      </g>
     </g>
     <g id="text_6">
      <!-- 1.0 -->
      <g transform="translate(490.157528 399.078438) scale(0.1 -0.1)">
       <defs>
        <path id="DejaVuSans-31" d="M 794 531 
L 1825 531 
L 1825 4091 
L 703 3866 
L 703 4441 
L 1819 4666 
L 2450 4666 
L 2450 531 
L 3481 531 
L 3481 0 
L 794 0 
L 794 531 
z
" transform="scale(0.015625)"/>
       </defs>
       <use xlink:href="#DejaVuSans-31"/>
       <use xlink:href="#DejaVuSans-2e" x="63.623047"/>
       <use xlink:href="#DejaVuSans-30" x="95.410156"/>
      </g>
     </g>
    </g>
   </g>
   <g id="matplotlib.axis_2">
    <g id="ytick_1">
     <g id="line2d_7">
      <defs>
       <path id="m10b1dddb4f" d="M 0 0 
L -3.5 0 
" style="stroke: #000000; stroke-width: 0.8"/>
      </defs>
      <g>
       <use xlink:href="#m10b1dddb4f" x="72" y="369.36" style="stroke: #000000; stroke-width: 0.8"/>
      </g>
     </g>
     <g id="text_7">
      <!-- −5.0 -->
      <g transform="translate(40.717187 373.159219) scale(0.1 -0.1)">
       <defs>
        <path id="DejaVuSans-2212" d="M 678 2272 
L 4684 2272 
L 4684 1741 
L 678 1741 
L 678 2272 
z
" transform="scale(0.015625)"/>
        <path id="DejaVuSans-35" d="M 691 4666 
L 3169 4666 
L 3169 4134 
L 1269 4134 
L 1269 2991 
Q 1406 3038 1543 3061 
Q 1681 3084 1819 3084 
Q 2600 3084 3056 2656 
Q 3513 2228 3513 1497 
Q 3513 744 3044 326 
Q 2575 -91 1722 -91 
Q 1428 -91 1123 -41 
Q 819 9 494 109 
L 494 744 
Q 775 591 1075 516 
Q 1375 441 1709 441 
Q 2250 441 2565 725 
Q 2881 1009 2881 1497 
Q 2881 1984 2565 2268 
Q 2250 2553 1709 2553 
Q 1456 2553 1204 2497 
Q 953 2441 691 2322 
L 691 4666 
z
" transform="scale(0.015625)"/>
       </defs>
       <use xlink:href="#DejaVuSans-2212"/>
       <use xlink:href="#DejaVuSans-35" x="83.789062"/>
       <use xlink:href="#DejaVuSans-2e" x="147.412109"/>
       <use xlink:href="#DejaVuSans-30" x="179.199219"/>
      </g>
     </g>
    </g>
    <g id="ytick_2">
     <g id="line2d_8">
      <g>
       <use xlink:href="#m10b1dddb4f" x="72" y="331.56" style="stroke: #000000; stroke-width: 0.8"/>
      </g>
     </g>
     <g id="text_8">
      <!-- −2.5 -->
      <g transform="translate(40.717187 335.359219) scale(0.1 -0.1)">
       <use xlink:href="#DejaVuSans-2212"/>
       <use xlink:href="#DejaVuSans-32" x="83.789062"/>
       <use xlink:href="#DejaVuSans-2e" x="147.412109"/>
       <use xlink:href="#DejaVuSans-35" x="179.199219"/>
      </g>
     </g>
    </g>
    <g id="ytick_3">
     <g id="line2d_9">
      <g>
       <use xlink:href="#m10b1dddb4f" x="72" y="293.76" style="stroke: #000000; stroke-width: 0.8"/>
      </g>
     </g>
     <g id="text_9">
      <!-- 0.0 -->
      <g transform="translate(49.096875 297.559219) scale(0.1 -0.1)">
       <use xlink:href="#DejaVuSans-30"/>
       <use xlink:href="#DejaVuSans-2e" x="63.623047"/>
       <use xlink:href="#DejaVuSans-30" x="95.410156"/>
      </g>
     </g>
    </g>
    <g id="ytick_4">
     <g id="line2d_10">
      <g>
       <use xlink:href="#m10b1dddb4f" x="72" y="255.96" style="stroke: #000000; stroke-width: 0.8"/>
      </g>
     </g>
     <g id="text_10">
      <!-- 2.5 -->
      <g transform="translate(49.096875 259.759219) scale(0.1 -0.1)">
       <use xlink:href="#DejaVuSans-32"/>
       <use xlink:href="#DejaVuSans-2e" x="63.623047"/>
       <use xlink:href="#DejaVuSans-35" x="95.410156"/>
      </g>
     </g>
    </g>
    <g id="ytick_5">
     <g id="line2d_11">
      <g>
       <use xlink:href="#m10b1dddb4f" x="72" y="218.16" style="stroke: #000000; stroke-width: 0.8"/>
      </g>
     </g>
     <g id="text_11">
      <!-- 5.0 -->
      <g transform="translate(49.096875 221.959219) scale(0.1 -0.1)">
       <use xlink:href="#DejaVuSans-35"/>
       <use xlink:href="#DejaVuSans-2e" x="63.623047"/>
       <use xlink:href="#DejaVuSans-30" x="95.410156"/>
      </g>
     </g>
    </g>
    <g id="ytick_6">
     <g id="line2d_12">
      <g>
       <use xlink:href="#m10b1dddb4f" x="72" y="180.36" style="stroke: #000000; stroke-width: 0.8"/>
      </g>
     </g>
     <g id="text_12">
      <!-- 7.5 -->
      <g transform="translate(49.096875 184.159219) scale(0.1 -0.1)">
       <defs>
        <path id="DejaVuSans-37" d="M 525 4666 
L 3525 4666 
L 3525 4397 
L 1831 0 
L 1172 0 
L 2766 4134 
L 525 4134 
L 525 4666 
z
" transform="scale(0.015625)"/>
       </defs>
       <use xlink:href="#DejaVuSans-37"/>
       <use xlink:href="#DejaVuSans-2e" x="63.623047"/>
       <use xlink:href="#DejaVuSans-35" x="95.410156"/>
      </g>
     </g>
    </g>
    <g id="ytick_7">
     <g id="line2d_13">
      <g>
       <use xlink:href="#m10b1dddb4f" x="72" y="142.56" style="stroke: #000000; stroke-width: 0.8"/>
      </g>
     </g>
     <g id="text_13">
      <!-- 10.0 -->
      <g transform="translate(42.734375 146.359219) scale(0.1 -0.1)">
       <use xlink:href="#DejaVuSans-31"/>
       <use xlink:href="#DejaVuSans-30" x="63.623047"/>
       <use xlink:href="#DejaVuSans-2e" x="127.246094"/>
       <use xlink:href="#DejaVuSans-30" x="159.033203"/>
      </g>
     </g>
    </g>
    <g id="ytick_8">
     <g id="line2d_14">
      <g>
       <use xlink:href="#m10b1dddb4f" x="72" y="104.76" style="stroke: #000000; stroke-width: 0.8"/>
      </g>
     </g>
     <g id="text_14">
      <!-- 12.5 -->
      <g transform="translate(42.734375 108.559219) scale(0.1 -0.1)">
       <use xlink:href="#DejaVuSans-31"/>
       <use xlink:href="#DejaVuSans-32" x="63.623047"/>
       <use xlink:href="#DejaVuSans-2e" x="127.246094"/>
       <use xlink:href="#DejaVuSans-35" x="159.033203"/>
      </g>
     </g>
    </g>
    <g id="ytick_9">
     <g id="line2d_15">
      <g>
       <use xlink:href="#m10b1dddb4f" x="72" y="66.96" style="stroke: #000000; stroke-width: 0.8"/>
      </g>
     </g>
     <g id="text_15">
      <!-- 15.0 -->
      <g transform="translate(42.734375 70.759219) scale(0.1 -0.1)">
       <use xlink:href="#DejaVuSans-31"/>
       <use xlink:href="#DejaVuSans-35" x="63.623047"/>
       <use xlink:href="#DejaVuSans-2e" x="127.246094"/>
       <use xlink:href="#DejaVuSans-30" x="159.033203"/>
      </g>
     </g>
    </g>
   </g>
   <g id="line2d_16">
    <path d="M 92.290909 320.487624 
L 96.349091 321.21792 
L 100.407273 322.279344 
L 104.465455 323.36496 
L 108.523636 324.452088 
L 112.581818 325.53468 
L 116.64 326.611224 
L 120.698182 327.680208 
L 124.756364 328.743144 
L 128.814545 329.79852 
L 132.872727 330.844824 
L 136.930909 331.883568 
L 140.989091 332.91324 
L 145.047273 333.93384 
L 149.105455 334.94688 
L 153.163636 335.949336 
L 157.221818 336.944232 
L 161.28 337.930056 
L 165.338182 338.905296 
L 169.396364 339.872976 
L 173.454545 340.830072 
L 177.512727 341.776584 
L 181.570909 342.715536 
L 185.629091 343.642392 
L 189.687273 344.560176 
L 193.745455 345.468888 
L 197.803636 346.367016 
L 201.861818 347.25456 
L 205.92 348.13152 
L 209.978182 348.997896 
L 214.036364 349.8552 
L 218.094545 350.700408 
L 222.152727 351.536544 
L 226.210909 352.360584 
L 230.269091 353.17404 
L 234.327273 353.976912 
L 238.385455 354.7692 
L 242.443636 355.550904 
L 246.501818 356.320512 
L 250.56 357.079536 
L 254.618182 357.826464 
L 258.676364 358.562808 
L 262.734545 359.287056 
L 266.792727 360.00072 
L 270.850909 360.7038 
L 274.909091 361.393272 
L 278.967273 362.073672 
L 283.025455 362.740464 
L 287.083636 363.396672 
L 291.141818 364.040784 
L 295.2 364.6728 
L 299.258182 365.29272 
L 303.316364 365.902056 
L 307.374545 366.497784 
L 311.432727 367.082928 
L 315.490909 367.655976 
L 319.549091 368.216928 
L 323.607273 368.765784 
L 327.665455 369.301032 
L 331.723636 369.825696 
L 335.781818 370.338264 
L 339.84 370.838736 
L 343.898182 371.3256 
L 347.956364 371.80188 
L 352.014545 372.264552 
L 356.072727 372.715128 
L 360.130909 373.153608 
L 364.189091 373.579992 
L 368.247273 373.992768 
L 372.305455 374.39496 
L 376.363636 374.783544 
L 380.421818 375.15852 
L 384.48 375.522912 
L 388.538182 375.873696 
L 392.596364 376.212384 
L 396.654545 376.537464 
L 400.712727 376.85196 
L 404.770909 377.151336 
L 408.829091 377.440128 
L 412.887273 377.715312 
L 416.945455 377.9784 
L 421.003636 378.22788 
L 425.061818 378.465264 
L 429.12 378.68904 
L 433.178182 378.90072 
L 437.236364 379.100304 
L 441.294545 379.28628 
L 445.352727 379.458648 
L 449.410909 379.61892 
L 453.469091 379.767096 
L 457.527273 379.901664 
L 461.585455 380.024136 
L 465.643636 380.133 
L 469.701818 380.229768 
L 473.76 380.312928 
L 477.818182 380.383992 
L 481.876364 380.441448 
L 485.934545 380.486808 
L 489.992727 380.51856 
L 494.050909 380.538216 
L 498.109091 380.544264 
" clip-path="url(#pd7ab42ee51)" style="fill: none; stroke: #000000; stroke-opacity: 0.5; stroke-linecap: square"/>
   </g>
   <g id="line2d_17">
    <path d="M 92.290909 319.507848 
L 96.349091 318.769992 
L 100.407273 317.6874 
L 104.465455 316.567008 
L 108.523636 315.431496 
L 112.581818 314.2854 
L 116.64 313.131744 
L 120.698182 311.970528 
L 124.756364 310.803264 
L 128.814545 309.629952 
L 132.872727 308.450592 
L 136.930909 307.266696 
L 140.989091 306.076752 
L 145.047273 304.882272 
L 149.105455 303.683256 
L 153.163636 302.479704 
L 157.221818 301.271616 
L 161.28 300.058992 
L 165.338182 298.843344 
L 169.396364 297.624672 
L 173.454545 296.401464 
L 177.512727 295.175232 
L 181.570909 293.945976 
L 185.629091 292.715208 
L 189.687273 291.481416 
L 193.745455 290.2446 
L 197.803636 289.007784 
L 201.861818 287.767944 
L 205.92 286.526592 
L 209.978182 285.283728 
L 214.036364 284.040864 
L 218.094545 282.798 
L 222.152727 281.553624 
L 226.210909 280.309248 
L 230.269091 279.064872 
L 234.327273 277.820496 
L 238.385455 276.57612 
L 242.443636 275.334768 
L 246.501818 274.093416 
L 250.56 272.852064 
L 254.618182 271.613736 
L 258.676364 270.37692 
L 262.734545 269.143128 
L 266.792727 267.910848 
L 270.850909 266.681592 
L 274.909091 265.45536 
L 278.967273 264.232152 
L 283.025455 263.011968 
L 287.083636 261.794808 
L 291.141818 260.582184 
L 295.2 259.374096 
L 299.258182 258.169032 
L 303.316364 256.970016 
L 307.374545 255.774024 
L 311.432727 254.58408 
L 315.490909 253.398672 
L 319.549091 252.219312 
L 323.607273 251.044488 
L 327.665455 249.875712 
L 331.723636 248.711472 
L 335.781818 247.554792 
L 339.84 246.402648 
L 343.898182 245.258064 
L 347.956364 244.118016 
L 352.014545 242.985528 
L 356.072727 241.859088 
L 360.130909 240.738696 
L 364.189091 239.624352 
L 368.247273 238.517568 
L 372.305455 237.416832 
L 376.363636 236.323656 
L 380.421818 235.236528 
L 384.48 234.15696 
L 388.538182 233.08344 
L 392.596364 232.018992 
L 396.654545 230.960592 
L 400.712727 229.909752 
L 404.770909 228.867984 
L 408.829091 227.833776 
L 412.887273 226.810152 
L 416.945455 225.794088 
L 421.003636 224.787096 
L 425.061818 223.7922 
L 429.12 222.806376 
L 433.178182 221.83416 
L 437.236364 220.875552 
L 441.294545 219.92904 
L 445.352727 219.000672 
L 449.410909 218.087424 
L 453.469091 217.195344 
L 457.527273 216.32292 
L 461.585455 215.4762 
L 465.643636 214.658208 
L 469.701818 213.871968 
L 473.76 213.12504 
L 477.818182 212.424984 
L 481.876364 211.782384 
L 485.934545 211.21992 
L 489.992727 210.761784 
L 494.050909 210.454848 
L 498.109091 210.344472 
" clip-path="url(#pd7ab42ee51)" style="fill: none; stroke: #000000; stroke-opacity: 0.5; stroke-linecap: square"/>
   </g>
   <g id="line2d_18">
    <path d="M 92.290909 249.886296 
L 96.349091 249.878736 
L 100.407273 249.85908 
L 104.465455 249.824304 
L 108.523636 249.777432 
L 112.581818 249.716952 
L 116.64 249.642864 
L 120.698182 249.555168 
L 124.756364 249.453864 
L 128.814545 249.338952 
L 132.872727 249.210432 
L 136.930909 249.068304 
L 140.989091 248.91408 
L 145.047273 248.744736 
L 149.105455 248.561784 
L 153.163636 248.366736 
L 157.221818 248.156568 
L 161.28 247.934304 
L 165.338182 247.69692 
L 169.396364 247.44744 
L 173.454545 247.184352 
L 177.512727 246.906144 
L 181.570909 246.61584 
L 185.629091 246.311928 
L 189.687273 245.992896 
L 193.745455 245.661768 
L 197.803636 245.317032 
L 201.861818 244.957176 
L 205.92 244.585224 
L 209.978182 244.199664 
L 214.036364 243.798984 
L 218.094545 243.386208 
L 222.152727 242.958312 
L 226.210909 242.51832 
L 230.269091 242.06472 
L 234.327273 241.596 
L 238.385455 241.115184 
L 242.443636 240.619248 
L 246.501818 240.111216 
L 250.56 239.588064 
L 254.618182 239.052816 
L 258.676364 238.50396 
L 262.734545 237.941496 
L 266.792727 237.365424 
L 270.850909 236.775744 
L 274.909091 236.173968 
L 278.967273 235.557072 
L 283.025455 234.929592 
L 287.083636 234.286992 
L 291.141818 233.632296 
L 295.2 232.965504 
L 299.258182 232.286616 
L 303.316364 231.595632 
L 307.374545 230.89104 
L 311.432727 230.177376 
L 315.490909 229.450104 
L 319.549091 228.71376 
L 323.607273 227.96532 
L 327.665455 227.207808 
L 331.723636 226.441224 
L 335.781818 225.71244 
L 339.84 225.087984 
L 343.898182 224.45748 
L 347.956364 223.820928 
L 352.014545 223.178328 
L 356.072727 222.531192 
L 360.130909 221.87952 
L 364.189091 221.223312 
L 368.247273 220.56408 
L 372.305455 219.900312 
L 376.363636 219.235032 
L 380.421818 218.56824 
L 384.48 217.899936 
L 388.538182 217.23012 
L 392.596364 216.561816 
L 396.654545 215.893512 
L 400.712727 215.229744 
L 404.770909 214.567488 
L 408.829091 213.91128 
L 412.887273 213.259608 
L 416.945455 212.615496 
L 421.003636 211.980456 
L 425.061818 211.356 
L 429.12 210.74364 
L 433.178182 210.1464 
L 437.236364 209.56428 
L 441.294545 209.001816 
L 445.352727 208.46052 
L 449.410909 207.941904 
L 453.469091 207.448992 
L 457.527273 206.98632 
L 461.585455 206.5554 
L 465.643636 206.159256 
L 469.701818 205.800912 
L 473.76 205.899192 
L 477.818182 206.04888 
L 481.876364 206.240904 
L 485.934545 206.454096 
L 489.992727 206.66124 
L 494.050909 206.818488 
L 498.109091 206.878968 
" clip-path="url(#pd7ab42ee51)" style="fill: none; stroke: #000000; stroke-opacity: 0.5; stroke-linecap: square"/>
   </g>
   <g id="line2d_19">
    <path d="M 92.290909 245.61036 
L 96.349091 245.604312 
L 100.407273 245.58768 
L 104.465455 245.558952 
L 108.523636 245.518128 
L 112.581818 245.46672 
L 116.64 245.401704 
L 120.698182 245.327616 
L 124.756364 245.23992 
L 128.814545 245.14164 
L 132.872727 245.031264 
L 136.930909 244.910304 
L 140.989091 244.777248 
L 145.047273 244.633608 
L 149.105455 244.477872 
L 153.163636 244.31004 
L 157.221818 244.131624 
L 161.28 243.941112 
L 165.338182 243.740016 
L 169.396364 243.526824 
L 173.454545 243.301536 
L 177.512727 243.067176 
L 181.570909 242.819208 
L 185.629091 242.562168 
L 189.687273 242.293032 
L 193.745455 242.0118 
L 197.803636 241.719984 
L 201.861818 241.417584 
L 205.92 241.1046 
L 209.978182 240.77952 
L 214.036364 240.443856 
L 218.094545 240.097608 
L 222.152727 239.740776 
L 226.210909 239.37336 
L 230.269091 238.993848 
L 234.327273 238.605264 
L 238.385455 238.204584 
L 242.443636 237.794832 
L 246.501818 237.374496 
L 250.56 236.943576 
L 254.618182 236.502072 
L 258.676364 236.049984 
L 262.734545 235.588824 
L 266.792727 235.11708 
L 270.850909 234.636264 
L 274.909091 234.144864 
L 278.967273 233.644392 
L 283.025455 233.133336 
L 287.083636 232.61472 
L 291.141818 232.08552 
L 295.2 231.547248 
L 299.258182 231.001416 
L 303.316364 230.445 
L 307.374545 229.881024 
L 311.432727 229.309488 
L 315.490909 228.72888 
L 319.549091 228.140712 
L 323.607273 227.544984 
L 327.665455 226.940184 
L 331.723636 226.329336 
L 335.781818 225.664056 
L 339.84 224.88084 
L 343.898182 224.088552 
L 347.956364 223.290216 
L 352.014545 222.485832 
L 356.072727 221.6754 
L 360.130909 220.863456 
L 364.189091 220.046976 
L 368.247273 219.230496 
L 372.305455 218.414016 
L 376.363636 217.60056 
L 380.421818 216.788616 
L 384.48 215.984232 
L 388.538182 215.185896 
L 392.596364 214.399656 
L 396.654545 213.624 
L 400.712727 212.864976 
L 404.770909 212.124096 
L 408.829091 211.405896 
L 412.887273 210.711888 
L 416.945455 210.046608 
L 421.003636 209.414592 
L 425.061818 208.818864 
L 429.12 208.265472 
L 433.178182 207.755928 
L 437.236364 207.297792 
L 441.294545 206.892576 
L 445.352727 206.544816 
L 449.410909 206.259048 
L 453.469091 206.035272 
L 457.527273 205.878024 
L 461.585455 205.787304 
L 465.643636 205.763112 
L 469.701818 205.800912 
L 473.76 205.483392 
L 477.818182 205.20972 
L 481.876364 204.98292 
L 485.934545 204.802992 
L 489.992727 204.67296 
L 494.050909 204.594336 
L 498.109091 204.568632 
" clip-path="url(#pd7ab42ee51)" style="fill: none; stroke: #000000; stroke-opacity: 0.5; stroke-linecap: square"/>
   </g>
   <g id="line2d_20">
    <path d="M 92.290909 191.727216 
L 96.349091 191.73024 
L 100.407273 191.739312 
L 104.465455 191.754432 
L 108.523636 191.772576 
L 112.581818 191.793744 
L 116.64 191.816424 
L 120.698182 191.83608 
L 124.756364 191.854224 
L 128.814545 191.869344 
L 132.872727 191.876904 
L 136.930909 191.878416 
L 140.989091 191.870856 
L 145.047273 191.855736 
L 149.105455 191.830032 
L 153.163636 191.793744 
L 157.221818 191.746872 
L 161.28 191.689416 
L 165.338182 191.619864 
L 169.396364 191.538216 
L 173.454545 191.444472 
L 177.512727 191.338632 
L 181.570909 191.219184 
L 185.629091 191.08764 
L 189.687273 190.944 
L 193.745455 190.788264 
L 197.803636 190.61892 
L 201.861818 190.435968 
L 205.92 190.242432 
L 209.978182 190.033776 
L 214.036364 189.814536 
L 218.094545 189.5832 
L 222.152727 189.338256 
L 226.210909 189.081216 
L 230.269091 188.81208 
L 234.327273 188.530848 
L 238.385455 188.23752 
L 242.443636 187.932096 
L 246.501818 187.616088 
L 250.56 187.287984 
L 254.618182 186.949296 
L 258.676364 186.598512 
L 262.734545 186.237144 
L 266.792727 185.865192 
L 270.850909 185.482656 
L 274.909091 185.091048 
L 278.967273 184.688856 
L 283.025455 184.27608 
L 287.083636 183.854232 
L 291.141818 183.423312 
L 295.2 182.98332 
L 299.258182 182.534256 
L 303.316364 182.077632 
L 307.374545 181.613448 
L 311.432727 181.140192 
L 315.490909 180.660888 
L 319.549091 180.174024 
L 323.607273 179.681112 
L 327.665455 179.182152 
L 331.723636 178.678656 
L 335.781818 178.169112 
L 339.84 177.655032 
L 343.898182 177.137928 
L 347.956364 176.6178 
L 352.014545 176.093136 
L 356.072727 175.56696 
L 360.130909 175.040784 
L 364.189091 174.511584 
L 368.247273 173.983896 
L 372.305455 173.45772 
L 376.363636 172.931544 
L 380.421818 172.409904 
L 384.48 171.889776 
L 388.538182 171.375696 
L 392.596364 170.867664 
L 396.654545 170.36568 
L 400.712727 169.872768 
L 404.770909 169.388928 
L 408.829091 168.917184 
L 412.887273 168.459048 
L 416.945455 168.01452 
L 421.003636 167.586624 
L 425.061818 167.179896 
L 429.12 166.795848 
L 433.178182 166.440528 
L 437.236364 166.11696 
L 441.294545 165.834216 
L 445.352727 165.599856 
L 449.410909 165.424464 
L 453.469091 165.309552 
L 457.527273 165.244536 
L 461.585455 165.206736 
L 465.643636 165.168936 
L 469.701818 165.112992 
L 473.76 165.031344 
L 477.818182 164.923992 
L 481.876364 164.792448 
L 485.934545 164.65032 
L 489.992727 164.80152 
L 494.050909 164.901312 
L 498.109091 164.936088 
" clip-path="url(#pd7ab42ee51)" style="fill: none; stroke: #000000; stroke-opacity: 0.5; stroke-linecap: square"/>
   </g>
   <g id="line2d_21">
    <path d="M 92.290909 186.404976 
L 96.349091 186.383808 
L 100.407273 186.323328 
L 104.465455 186.223536 
L 108.523636 186.084432 
L 112.581818 185.910552 
L 116.64 185.700384 
L 120.698182 185.456952 
L 124.756364 185.181768 
L 128.814545 184.877856 
L 132.872727 184.545216 
L 136.930909 184.18536 
L 140.989091 183.7998 
L 145.047273 183.390048 
L 149.105455 182.954592 
L 153.163636 182.496456 
L 157.221818 182.01564 
L 161.28 181.510632 
L 165.338182 180.985968 
L 169.396364 180.438624 
L 173.454545 179.870112 
L 177.512727 179.281944 
L 181.570909 178.672608 
L 185.629091 178.042104 
L 189.687273 177.391944 
L 193.745455 176.720616 
L 197.803636 176.031144 
L 201.861818 175.322016 
L 205.92 174.59172 
L 209.978182 173.844792 
L 214.036364 173.076696 
L 218.094545 172.290456 
L 222.152727 171.486072 
L 226.210909 170.663544 
L 230.269091 169.822872 
L 234.327273 168.965568 
L 238.385455 168.09012 
L 242.443636 167.196528 
L 246.501818 166.287816 
L 250.56 165.363984 
L 254.618182 164.42352 
L 258.676364 163.467936 
L 262.734545 162.498744 
L 266.792727 161.517456 
L 270.850909 160.52256 
L 274.909091 159.51708 
L 278.967273 158.501016 
L 283.025455 157.477392 
L 287.083636 156.44772 
L 291.141818 155.413512 
L 295.2 154.37628 
L 299.258182 153.342072 
L 303.316364 152.310888 
L 307.374545 151.2918 
L 311.432727 150.289344 
L 315.490909 149.312592 
L 319.549091 148.372128 
L 323.607273 147.483072 
L 327.665455 146.669616 
L 331.723636 145.962 
L 335.781818 145.401048 
L 339.84 145.033632 
L 343.898182 144.905112 
L 347.956364 145.03968 
L 352.014545 145.420704 
L 356.072727 145.9998 
L 360.130909 146.727072 
L 364.189091 147.552624 
L 368.247273 148.443192 
L 372.305455 149.373072 
L 376.363636 150.32412 
L 380.421818 151.287264 
L 384.48 152.248896 
L 388.538182 153.20448 
L 392.596364 154.147968 
L 396.654545 155.0718 
L 400.712727 155.974464 
L 404.770909 156.849912 
L 408.829091 157.693608 
L 412.887273 158.501016 
L 416.945455 159.269112 
L 421.003636 159.99336 
L 425.061818 160.6662 
L 429.12 161.284608 
L 433.178182 161.839512 
L 437.236364 162.326376 
L 441.294545 162.736128 
L 445.352727 163.056672 
L 449.410909 163.28196 
L 453.469091 163.408968 
L 457.527273 163.451304 
L 461.585455 163.436184 
L 465.643636 163.393848 
L 469.701818 163.346976 
L 473.76 163.75824 
L 477.818182 164.112048 
L 481.876364 164.405376 
L 485.934545 164.6352 
L 489.992727 164.51424 
L 494.050909 164.4084 
L 498.109091 164.367576 
" clip-path="url(#pd7ab42ee51)" style="fill: none; stroke: #000000; stroke-opacity: 0.5; stroke-linecap: square"/>
   </g>
   <g id="line2d_22">
    <path d="M 92.290909 60.915024 
L 96.349091 61.05564 
L 100.407273 61.465392 
L 104.465455 62.101944 
L 108.523636 62.916912 
L 112.581818 63.86796 
L 116.64 64.917288 
L 120.698182 66.03768 
L 124.756364 67.212504 
L 128.814545 68.425128 
L 132.872727 69.664968 
L 136.930909 70.925976 
L 140.989091 72.203616 
L 145.047273 73.490328 
L 149.105455 74.786112 
L 153.163636 76.087944 
L 157.221818 77.3928 
L 161.28 78.735456 
L 165.338182 80.140104 
L 169.396364 81.544752 
L 173.454545 82.9494 
L 177.512727 84.352536 
L 181.570909 85.75416 
L 185.629091 87.155784 
L 189.687273 88.552872 
L 193.745455 89.94996 
L 197.803636 91.344024 
L 201.861818 92.735064 
L 205.92 94.124592 
L 209.978182 95.509584 
L 214.036364 96.893064 
L 218.094545 98.27352 
L 222.152727 99.64944 
L 226.210909 101.022336 
L 230.269091 102.392208 
L 234.327273 103.757544 
L 238.385455 105.119856 
L 242.443636 106.477632 
L 246.501818 107.830872 
L 250.56 109.179576 
L 254.618182 110.523744 
L 258.676364 111.861864 
L 262.734545 113.195448 
L 266.792727 114.521472 
L 270.850909 115.841448 
L 274.909091 117.155376 
L 278.967273 118.460232 
L 283.025455 119.756016 
L 287.083636 121.042728 
L 291.141818 122.317344 
L 295.2 123.579864 
L 299.258182 124.827264 
L 303.316364 126.058032 
L 307.374545 127.26612 
L 311.432727 128.450016 
L 315.490909 129.600648 
L 319.549091 130.710456 
L 323.607273 131.76432 
L 327.665455 132.745608 
L 331.723636 133.627104 
L 335.781818 134.37252 
L 339.84 134.938008 
L 343.898182 135.284256 
L 347.956364 136.02816 
L 352.014545 137.172744 
L 356.072727 138.31128 
L 360.130909 139.440744 
L 364.189091 140.561136 
L 368.247273 141.672456 
L 372.305455 142.774704 
L 376.363636 143.866368 
L 380.421818 144.945936 
L 384.48 146.01492 
L 388.538182 147.070296 
L 392.596364 148.110552 
L 396.654545 149.138712 
L 400.712727 150.148728 
L 404.770909 151.143624 
L 408.829091 152.120376 
L 412.887273 153.07596 
L 416.945455 154.011888 
L 421.003636 154.925136 
L 425.061818 155.814192 
L 429.12 156.676032 
L 433.178182 157.510656 
L 437.236364 158.31504 
L 441.294545 159.08616 
L 445.352727 159.822504 
L 449.410909 160.521048 
L 453.469091 161.178768 
L 457.527273 161.79264 
L 461.585455 162.361152 
L 465.643636 162.88128 
L 469.701818 163.346976 
L 473.76 163.315224 
L 477.818182 163.30464 
L 481.876364 163.322784 
L 485.934545 163.36512 
L 489.992727 163.424088 
L 494.050909 163.480032 
L 498.109091 163.504224 
" clip-path="url(#pd7ab42ee51)" style="fill: none; stroke: #000000; stroke-opacity: 0.5; stroke-linecap: square"/>
   </g>
   <g id="line2d_23">
    <path d="M 92.290909 58.660632 
L 96.349091 58.861728 
L 100.407273 59.428728 
L 104.465455 60.267888 
L 108.523636 61.293024 
L 112.581818 62.43912 
L 116.64 63.666864 
L 120.698182 64.947528 
L 124.756364 66.265992 
L 128.814545 67.61016 
L 132.872727 68.972472 
L 136.930909 70.349904 
L 140.989091 71.734896 
L 145.047273 73.127448 
L 149.105455 74.526048 
L 153.163636 75.927672 
L 157.221818 77.330808 
L 161.28 78.699168 
L 165.338182 80.00856 
L 169.396364 81.31644 
L 173.454545 82.62432 
L 177.512727 83.930688 
L 181.570909 85.235544 
L 185.629091 86.538888 
L 189.687273 87.84072 
L 193.745455 89.139528 
L 197.803636 90.435312 
L 201.861818 91.728072 
L 205.92 93.01932 
L 209.978182 94.306032 
L 214.036364 95.591232 
L 218.094545 96.871896 
L 222.152727 98.149536 
L 226.210909 99.424152 
L 230.269091 100.697256 
L 234.327273 101.965824 
L 238.385455 103.231368 
L 242.443636 104.492376 
L 246.501818 105.751872 
L 250.56 107.008344 
L 254.618182 108.26028 
L 258.676364 109.510704 
L 262.734545 110.756592 
L 266.792727 111.999456 
L 270.850909 113.239296 
L 274.909091 114.4746 
L 278.967273 115.708392 
L 283.025455 116.937648 
L 287.083636 118.16388 
L 291.141818 119.385576 
L 295.2 120.604248 
L 299.258182 121.819896 
L 303.316364 123.029496 
L 307.374545 124.236072 
L 311.432727 125.438112 
L 315.490909 126.637128 
L 319.549091 127.830096 
L 323.607273 129.018528 
L 327.665455 130.200912 
L 331.723636 131.37876 
L 335.781818 132.55056 
L 339.84 133.716312 
L 343.898182 134.876016 
L 347.956364 135.399168 
L 352.014545 135.305424 
L 356.072727 135.058968 
L 360.130909 134.726328 
L 364.189091 134.36496 
L 368.247273 134.02476 
L 372.305455 133.742016 
L 376.363636 133.546968 
L 380.421818 133.45776 
L 384.48 133.492536 
L 388.538182 133.65432 
L 392.596364 133.944624 
L 396.654545 134.3574 
L 400.712727 134.882064 
L 404.770909 135.50652 
L 408.829091 136.21716 
L 412.887273 136.998864 
L 416.945455 137.839536 
L 421.003636 138.724056 
L 425.061818 139.644864 
L 429.12 140.588352 
L 433.178182 141.545448 
L 437.236364 142.510104 
L 441.294545 143.471736 
L 445.352727 144.422784 
L 449.410909 145.3572 
L 453.469091 146.265912 
L 457.527273 147.142872 
L 461.585455 147.977496 
L 465.643636 148.763736 
L 469.701818 149.489496 
L 473.76 150.148728 
L 477.818182 150.727824 
L 481.876364 151.219224 
L 485.934545 151.612344 
L 489.992727 151.899624 
L 494.050909 152.075016 
L 498.109091 152.133984 
" clip-path="url(#pd7ab42ee51)" style="fill: none; stroke: #000000; stroke-opacity: 0.5; stroke-linecap: square"/>
   </g>
   <g id="patch_3">
    <path d="M 72 384.48 
L 72 51.84 
" style="fill: none; stroke: #000000; stroke-width: 0.8; stroke-linejoin: miter; stroke-linecap: square"/>
   </g>
   <g id="patch_4">
    <path d="M 518.4 384.48 
L 518.4 51.84 
" style="fill: none; stroke: #000000; stroke-width: 0.8; stroke-linejoin: miter; stroke-linecap: square"/>
   </g>
   <g id="patch_5">
    <path d="M 72 384.48 
L 518.4 384.48 
" style="fill: none; stroke: #000000; stroke-width: 0.8; stroke-linejoin: miter; stroke-linecap: square"/>
   </g>
   <g id="patch_6">
    <path d="M 72 51.84 
L 518.4 51.84 
" style="fill: none; stroke: #000000; stroke-width: 0.8; stroke-linejoin: miter; stroke-linecap: square"/>
   </g>
  </g>
 </g>
 <defs>
  <clipPath id="pd7ab42ee51">
   <rect x="72" y="51.84" width="446.4" height="332.64"/>
  </clipPath>
 </defs>
</svg>
