<?xml version="1.0" encoding="utf-8" standalone="no"?>
<!DOCTYPE svg PUBLIC "-//W3C//DTD SVG 1.1//EN"
  "http://www.w3.org/Graphics/SVG/1.1/DTD/svg11.dtd">
<svg xmlns:xlink="http://www.w3.org/1999/xlink" width="576pt" height="432pt" viewBox="0 0 576 432" xmlns="http://www.w3.org/2000/svg" version="1.1">
 <metadata>
  <rdf:RDF xmlns:dc="http://purl.org/dc/elements/1.1/" xmlns:cc="http://creativecommons.org/ns#" xmlns:rdf="http://www.w3.org/1999/02/22-rdf-syntax-ns#">
   <cc:Work>
    <dc:type rdf:resource="http://purl.org/dc/dcmitype/StillImage"/>
    <dc:date>2023-05-04T08:16:42.600876</dc:date>
    <dc:format>image/svg+xml</dc:format>
    <dc:creator>
     <cc:Agent>
      <dc:title>Matplotlib v3.7.1, https://matplotlib.org/</dc:title>
     </cc:Agent>
    </dc:creator>
   </cc:Work>
  </rdf:RDF>
 </metadata>
 <defs>
  <style type="text/css">*{stroke-linejoin: round; stroke-linecap: butt}</style>
 </defs>
 <g id="figure_1">
  <g id="patch_1">
   <path d="M 0 432 
L 576 432 
L 576 0 
L 0 0 
z
" style="fill: #ffffff"/>
  </g>
  <g id="axes_1">
   <g id="patch_2">
    <path d="M 72 384.48 
L 518.4 384.48 
L 518.4 51.84 
L 72 51.84 
z
" style="fill: #ffffff"/>
   </g>
   <g id="matplotlib.axis_1">
    <g id="xtick_1">
     <g id="line2d_1">
      <defs>
       <path id="ma0ac53b5e4" d="M 0 0 
L 0 3.5 
" style="stroke: #000000; stroke-width: 0.8"/>
      </defs>
      <g>
       <use xlink:href="#ma0ac53b5e4" x="92.290909" y="384.48" style="stroke: #000000; stroke-width: 0.8"/>
      </g>
     </g>
     <g id="text_1">
      <!-- 0.0 -->
      <g transform="translate(84.339347 399.078438) scale(0.1 -0.1)">
       <defs>
        <path id="DejaVuSans-30" d="M 2034 4250 
Q 1547 4250 1301 3770 
Q 1056 3291 1056 2328 
Q 1056 1369 1301 889 
Q 1547 409 2034 409 
Q 2525 409 2770 889 
Q 3016 1369 3016 2328 
Q 3016 3291 2770 3770 
Q 2525 4250 2034 4250 
z
M 2034 4750 
Q 2819 4750 3233 4129 
Q 3647 3509 3647 2328 
Q 3647 1150 3233 529 
Q 2819 -91 2034 -91 
Q 1250 -91 836 529 
Q 422 1150 422 2328 
Q 422 3509 836 4129 
Q 1250 4750 2034 4750 
z
" transform="scale(0.015625)"/>
        <path id="DejaVuSans-2e" d="M 684 794 
L 1344 794 
L 1344 0 
L 684 0 
L 684 794 
z
" transform="scale(0.015625)"/>
       </defs>
       <use xlink:href="#DejaVuSans-30"/>
       <use xlink:href="#DejaVuSans-2e" x="63.623047"/>
       <use xlink:href="#DejaVuSans-30" x="95.410156"/>
      </g>
     </g>
    </g>
    <g id="xtick_2">
     <g id="line2d_2">
      <g>
       <use xlink:href="#ma0ac53b5e4" x="173.454545" y="384.48" style="stroke: #000000; stroke-width: 0.8"/>
      </g>
     </g>
     <g id="text_2">
      <!-- 0.2 -->
      <g transform="translate(165.502983 399.078438) scale(0.1 -0.1)">
       <defs>
        <path id="DejaVuSans-32" d="M 1228 531 
L 3431 531 
L 3431 0 
L 469 0 
L 469 531 
Q 828 903 1448 1529 
Q 2069 2156 2228 2338 
Q 2531 2678 2651 2914 
Q 2772 3150 2772 3378 
Q 2772 3750 2511 3984 
Q 2250 4219 1831 4219 
Q 1534 4219 1204 4116 
Q 875 4013 500 3803 
L 500 4441 
Q 881 4594 1212 4672 
Q 1544 4750 1819 4750 
Q 2544 4750 2975 4387 
Q 3406 4025 3406 3419 
Q 3406 3131 3298 2873 
Q 3191 2616 2906 2266 
Q 2828 2175 2409 1742 
Q 1991 1309 1228 531 
z
" transform="scale(0.015625)"/>
       </defs>
       <use xlink:href="#DejaVuSans-30"/>
       <use xlink:href="#DejaVuSans-2e" x="63.623047"/>
       <use xlink:href="#DejaVuSans-32" x="95.410156"/>
      </g>
     </g>
    </g>
    <g id="xtick_3">
     <g id="line2d_3">
      <g>
       <use xlink:href="#ma0ac53b5e4" x="254.618182" y="384.48" style="stroke: #000000; stroke-width: 0.8"/>
      </g>
     </g>
     <g id="text_3">
      <!-- 0.4 -->
      <g transform="translate(246.666619 399.078438) scale(0.1 -0.1)">
       <defs>
        <path id="DejaVuSans-34" d="M 2419 4116 
L 825 1625 
L 2419 1625 
L 2419 4116 
z
M 2253 4666 
L 3047 4666 
L 3047 1625 
L 3713 1625 
L 3713 1100 
L 3047 1100 
L 3047 0 
L 2419 0 
L 2419 1100 
L 313 1100 
L 313 1709 
L 2253 4666 
z
" transform="scale(0.015625)"/>
       </defs>
       <use xlink:href="#DejaVuSans-30"/>
       <use xlink:href="#DejaVuSans-2e" x="63.623047"/>
       <use xlink:href="#DejaVuSans-34" x="95.410156"/>
      </g>
     </g>
    </g>
    <g id="xtick_4">
     <g id="line2d_4">
      <g>
       <use xlink:href="#ma0ac53b5e4" x="335.781818" y="384.48" style="stroke: #000000; stroke-width: 0.8"/>
      </g>
     </g>
     <g id="text_4">
      <!-- 0.6 -->
      <g transform="translate(327.830256 399.078438) scale(0.1 -0.1)">
       <defs>
        <path id="DejaVuSans-36" d="M 2113 2584 
Q 1688 2584 1439 2293 
Q 1191 2003 1191 1497 
Q 1191 994 1439 701 
Q 1688 409 2113 409 
Q 2538 409 2786 701 
Q 3034 994 3034 1497 
Q 3034 2003 2786 2293 
Q 2538 2584 2113 2584 
z
M 3366 4563 
L 3366 3988 
Q 3128 4100 2886 4159 
Q 2644 4219 2406 4219 
Q 1781 4219 1451 3797 
Q 1122 3375 1075 2522 
Q 1259 2794 1537 2939 
Q 1816 3084 2150 3084 
Q 2853 3084 3261 2657 
Q 3669 2231 3669 1497 
Q 3669 778 3244 343 
Q 2819 -91 2113 -91 
Q 1303 -91 875 529 
Q 447 1150 447 2328 
Q 447 3434 972 4092 
Q 1497 4750 2381 4750 
Q 2619 4750 2861 4703 
Q 3103 4656 3366 4563 
z
" transform="scale(0.015625)"/>
       </defs>
       <use xlink:href="#DejaVuSans-30"/>
       <use xlink:href="#DejaVuSans-2e" x="63.623047"/>
       <use xlink:href="#DejaVuSans-36" x="95.410156"/>
      </g>
     </g>
    </g>
    <g id="xtick_5">
     <g id="line2d_5">
      <g>
       <use xlink:href="#ma0ac53b5e4" x="416.945455" y="384.48" style="stroke: #000000; stroke-width: 0.8"/>
      </g>
     </g>
     <g id="text_5">
      <!-- 0.8 -->
      <g transform="translate(408.993892 399.078438) scale(0.1 -0.1)">
       <defs>
        <path id="DejaVuSans-38" d="M 2034 2216 
Q 1584 2216 1326 1975 
Q 1069 1734 1069 1313 
Q 1069 891 1326 650 
Q 1584 409 2034 409 
Q 2484 409 2743 651 
Q 3003 894 3003 1313 
Q 3003 1734 2745 1975 
Q 2488 2216 2034 2216 
z
M 1403 2484 
Q 997 2584 770 2862 
Q 544 3141 544 3541 
Q 544 4100 942 4425 
Q 1341 4750 2034 4750 
Q 2731 4750 3128 4425 
Q 3525 4100 3525 3541 
Q 3525 3141 3298 2862 
Q 3072 2584 2669 2484 
Q 3125 2378 3379 2068 
Q 3634 1759 3634 1313 
Q 3634 634 3220 271 
Q 2806 -91 2034 -91 
Q 1263 -91 848 271 
Q 434 634 434 1313 
Q 434 1759 690 2068 
Q 947 2378 1403 2484 
z
M 1172 3481 
Q 1172 3119 1398 2916 
Q 1625 2713 2034 2713 
Q 2441 2713 2670 2916 
Q 2900 3119 2900 3481 
Q 2900 3844 2670 4047 
Q 2441 4250 2034 4250 
Q 1625 4250 1398 4047 
Q 1172 3844 1172 3481 
z
" transform="scale(0.015625)"/>
       </defs>
       <use xlink:href="#DejaVuSans-30"/>
       <use xlink:href="#DejaVuSans-2e" x="63.623047"/>
       <use xlink:href="#DejaVuSans-38" x="95.410156"/>
      </g>
     </g>
    </g>
    <g id="xtick_6">
     <g id="line2d_6">
      <g>
       <use xlink:href="#ma0ac53b5e4" x="498.109091" y="384.48" style="stroke: #000000; stroke-width: 0.8"/>
      </g>
     </g>
     <g id="text_6">
      <!-- 1.0 -->
      <g transform="translate(490.157528 399.078438) scale(0.1 -0.1)">
       <defs>
        <path id="DejaVuSans-31" d="M 794 531 
L 1825 531 
L 1825 4091 
L 703 3866 
L 703 4441 
L 1819 4666 
L 2450 4666 
L 2450 531 
L 3481 531 
L 3481 0 
L 794 0 
L 794 531 
z
" transform="scale(0.015625)"/>
       </defs>
       <use xlink:href="#DejaVuSans-31"/>
       <use xlink:href="#DejaVuSans-2e" x="63.623047"/>
       <use xlink:href="#DejaVuSans-30" x="95.410156"/>
      </g>
     </g>
    </g>
   </g>
   <g id="matplotlib.axis_2">
    <g id="ytick_1">
     <g id="line2d_7">
      <defs>
       <path id="me39b25f17e" d="M 0 0 
L -3.5 0 
" style="stroke: #000000; stroke-width: 0.8"/>
      </defs>
      <g>
       <use xlink:href="#me39b25f17e" x="72" y="369.36" style="stroke: #000000; stroke-width: 0.8"/>
      </g>
     </g>
     <g id="text_7">
      <!-- −5.0 -->
      <g transform="translate(40.717187 373.159219) scale(0.1 -0.1)">
       <defs>
        <path id="DejaVuSans-2212" d="M 678 2272 
L 4684 2272 
L 4684 1741 
L 678 1741 
L 678 2272 
z
" transform="scale(0.015625)"/>
        <path id="DejaVuSans-35" d="M 691 4666 
L 3169 4666 
L 3169 4134 
L 1269 4134 
L 1269 2991 
Q 1406 3038 1543 3061 
Q 1681 3084 1819 3084 
Q 2600 3084 3056 2656 
Q 3513 2228 3513 1497 
Q 3513 744 3044 326 
Q 2575 -91 1722 -91 
Q 1428 -91 1123 -41 
Q 819 9 494 109 
L 494 744 
Q 775 591 1075 516 
Q 1375 441 1709 441 
Q 2250 441 2565 725 
Q 2881 1009 2881 1497 
Q 2881 1984 2565 2268 
Q 2250 2553 1709 2553 
Q 1456 2553 1204 2497 
Q 953 2441 691 2322 
L 691 4666 
z
" transform="scale(0.015625)"/>
       </defs>
       <use xlink:href="#DejaVuSans-2212"/>
       <use xlink:href="#DejaVuSans-35" x="83.789062"/>
       <use xlink:href="#DejaVuSans-2e" x="147.412109"/>
       <use xlink:href="#DejaVuSans-30" x="179.199219"/>
      </g>
     </g>
    </g>
    <g id="ytick_2">
     <g id="line2d_8">
      <g>
       <use xlink:href="#me39b25f17e" x="72" y="331.56" style="stroke: #000000; stroke-width: 0.8"/>
      </g>
     </g>
     <g id="text_8">
      <!-- −2.5 -->
      <g transform="translate(40.717187 335.359219) scale(0.1 -0.1)">
       <use xlink:href="#DejaVuSans-2212"/>
       <use xlink:href="#DejaVuSans-32" x="83.789062"/>
       <use xlink:href="#DejaVuSans-2e" x="147.412109"/>
       <use xlink:href="#DejaVuSans-35" x="179.199219"/>
      </g>
     </g>
    </g>
    <g id="ytick_3">
     <g id="line2d_9">
      <g>
       <use xlink:href="#me39b25f17e" x="72" y="293.76" style="stroke: #000000; stroke-width: 0.8"/>
      </g>
     </g>
     <g id="text_9">
      <!-- 0.0 -->
      <g transform="translate(49.096875 297.559219) scale(0.1 -0.1)">
       <use xlink:href="#DejaVuSans-30"/>
       <use xlink:href="#DejaVuSans-2e" x="63.623047"/>
       <use xlink:href="#DejaVuSans-30" x="95.410156"/>
      </g>
     </g>
    </g>
    <g id="ytick_4">
     <g id="line2d_10">
      <g>
       <use xlink:href="#me39b25f17e" x="72" y="255.96" style="stroke: #000000; stroke-width: 0.8"/>
      </g>
     </g>
     <g id="text_10">
      <!-- 2.5 -->
      <g transform="translate(49.096875 259.759219) scale(0.1 -0.1)">
       <use xlink:href="#DejaVuSans-32"/>
       <use xlink:href="#DejaVuSans-2e" x="63.623047"/>
       <use xlink:href="#DejaVuSans-35" x="95.410156"/>
      </g>
     </g>
    </g>
    <g id="ytick_5">
     <g id="line2d_11">
      <g>
       <use xlink:href="#me39b25f17e" x="72" y="218.16" style="stroke: #000000; stroke-width: 0.8"/>
      </g>
     </g>
     <g id="text_11">
      <!-- 5.0 -->
      <g transform="translate(49.096875 221.959219) scale(0.1 -0.1)">
       <use xlink:href="#DejaVuSans-35"/>
       <use xlink:href="#DejaVuSans-2e" x="63.623047"/>
       <use xlink:href="#DejaVuSans-30" x="95.410156"/>
      </g>
     </g>
    </g>
    <g id="ytick_6">
     <g id="line2d_12">
      <g>
       <use xlink:href="#me39b25f17e" x="72" y="180.36" style="stroke: #000000; stroke-width: 0.8"/>
      </g>
     </g>
     <g id="text_12">
      <!-- 7.5 -->
      <g transform="translate(49.096875 184.159219) scale(0.1 -0.1)">
       <defs>
        <path id="DejaVuSans-37" d="M 525 4666 
L 3525 4666 
L 3525 4397 
L 1831 0 
L 1172 0 
L 2766 4134 
L 525 4134 
L 525 4666 
z
" transform="scale(0.015625)"/>
       </defs>
       <use xlink:href="#DejaVuSans-37"/>
       <use xlink:href="#DejaVuSans-2e" x="63.623047"/>
       <use xlink:href="#DejaVuSans-35" x="95.410156"/>
      </g>
     </g>
    </g>
    <g id="ytick_7">
     <g id="line2d_13">
      <g>
       <use xlink:href="#me39b25f17e" x="72" y="142.56" style="stroke: #000000; stroke-width: 0.8"/>
      </g>
     </g>
     <g id="text_13">
      <!-- 10.0 -->
      <g transform="translate(42.734375 146.359219) scale(0.1 -0.1)">
       <use xlink:href="#DejaVuSans-31"/>
       <use xlink:href="#DejaVuSans-30" x="63.623047"/>
       <use xlink:href="#DejaVuSans-2e" x="127.246094"/>
       <use xlink:href="#DejaVuSans-30" x="159.033203"/>
      </g>
     </g>
    </g>
    <g id="ytick_8">
     <g id="line2d_14">
      <g>
       <use xlink:href="#me39b25f17e" x="72" y="104.76" style="stroke: #000000; stroke-width: 0.8"/>
      </g>
     </g>
     <g id="text_14">
      <!-- 12.5 -->
      <g transform="translate(42.734375 108.559219) scale(0.1 -0.1)">
       <use xlink:href="#DejaVuSans-31"/>
       <use xlink:href="#DejaVuSans-32" x="63.623047"/>
       <use xlink:href="#DejaVuSans-2e" x="127.246094"/>
       <use xlink:href="#DejaVuSans-35" x="159.033203"/>
      </g>
     </g>
    </g>
    <g id="ytick_9">
     <g id="line2d_15">
      <g>
       <use xlink:href="#me39b25f17e" x="72" y="66.96" style="stroke: #000000; stroke-width: 0.8"/>
      </g>
     </g>
     <g id="text_15">
      <!-- 15.0 -->
      <g transform="translate(42.734375 70.759219) scale(0.1 -0.1)">
       <use xlink:href="#DejaVuSans-31"/>
       <use xlink:href="#DejaVuSans-35" x="63.623047"/>
       <use xlink:href="#DejaVuSans-2e" x="127.246094"/>
       <use xlink:href="#DejaVuSans-30" x="159.033203"/>
      </g>
     </g>
    </g>
   </g>
   <g id="line2d_16">
    <path d="M 92.290909 332.786232 
L 96.349091 332.787744 
L 100.407273 332.790768 
L 104.465455 332.795304 
L 108.523636 332.802864 
L 112.581818 332.811936 
L 116.64 332.82252 
L 120.698182 332.836128 
L 124.756364 332.85276 
L 128.814545 332.872416 
L 132.872727 332.896608 
L 136.930909 332.923824 
L 140.989091 332.954064 
L 145.047273 332.98884 
L 149.105455 333.029664 
L 153.163636 333.075024 
L 157.221818 333.126432 
L 161.28 333.183888 
L 165.338182 333.248904 
L 169.396364 333.319968 
L 173.454545 333.398592 
L 177.512727 333.484776 
L 181.570909 333.580032 
L 185.629091 333.68436 
L 189.687273 333.79776 
L 193.745455 333.920232 
L 197.803636 334.053288 
L 201.861818 334.195416 
L 205.92 334.348128 
L 209.978182 334.511424 
L 214.036364 334.685304 
L 218.094545 334.868256 
L 222.152727 335.063304 
L 226.210909 335.267424 
L 230.269091 335.482128 
L 234.327273 335.707416 
L 238.385455 335.940264 
L 242.443636 336.183696 
L 246.501818 336.4362 
L 250.56 336.696264 
L 254.618182 336.963888 
L 258.676364 337.240584 
L 262.734545 337.523328 
L 266.792727 337.810608 
L 270.850909 338.105448 
L 274.909091 338.404824 
L 278.967273 338.708736 
L 283.025455 339.017184 
L 287.083636 339.328656 
L 291.141818 339.643152 
L 295.2 339.95916 
L 299.258182 340.27668 
L 303.316364 340.595712 
L 307.374545 340.914744 
L 311.432727 341.233776 
L 315.490909 341.552808 
L 319.549091 341.870328 
L 323.607273 342.186336 
L 327.665455 342.500832 
L 331.723636 342.812304 
L 335.781818 343.120752 
L 339.84 343.426176 
L 343.898182 343.728576 
L 347.956364 344.02644 
L 352.014545 344.319768 
L 356.072727 344.60856 
L 360.130909 344.891304 
L 364.189091 345.171024 
L 368.247273 345.443184 
L 372.305455 345.709296 
L 376.363636 345.970872 
L 380.421818 346.224888 
L 384.48 346.471344 
L 388.538182 346.711752 
L 392.596364 346.946112 
L 396.654545 347.1714 
L 400.712727 347.39064 
L 404.770909 347.600808 
L 408.829091 347.803416 
L 412.887273 347.998464 
L 416.945455 348.185952 
L 421.003636 348.364368 
L 425.061818 348.535224 
L 429.12 348.697008 
L 433.178182 348.84972 
L 437.236364 348.99336 
L 441.294545 349.12944 
L 445.352727 349.254936 
L 449.410909 349.372872 
L 453.469091 349.480224 
L 457.527273 349.580016 
L 461.585455 349.669224 
L 465.643636 349.74936 
L 469.701818 349.820424 
L 473.76 349.882416 
L 477.818182 349.935336 
L 481.876364 349.977672 
L 485.934545 350.010936 
L 489.992727 350.035128 
L 494.050909 350.050248 
L 498.109091 350.054784 
" clip-path="url(#p98516c10d3)" style="fill: none; stroke: #000000; stroke-opacity: 0.5; stroke-linecap: square"/>
   </g>
   <g id="line2d_17">
    <path d="M 92.290909 304.136856 
L 96.349091 304.141392 
L 100.407273 304.153488 
L 104.465455 304.173144 
L 108.523636 304.20036 
L 112.581818 304.236648 
L 116.64 304.278984 
L 120.698182 304.327368 
L 124.756364 304.383312 
L 128.814545 304.443792 
L 132.872727 304.508808 
L 136.930909 304.579872 
L 140.989091 304.652448 
L 145.047273 304.72956 
L 149.105455 304.806672 
L 153.163636 304.885296 
L 157.221818 304.96392 
L 161.28 305.041032 
L 165.338182 305.116632 
L 169.396364 305.187696 
L 173.454545 305.255736 
L 177.512727 305.316216 
L 181.570909 305.37216 
L 185.629091 305.419032 
L 189.687273 305.456832 
L 193.745455 305.48556 
L 197.803636 305.503704 
L 201.861818 305.509752 
L 205.92 305.503704 
L 209.978182 305.484048 
L 214.036364 305.449272 
L 218.094545 305.400888 
L 222.152727 305.337384 
L 226.210909 305.257248 
L 230.269091 305.161992 
L 234.327273 305.050104 
L 238.385455 304.923096 
L 242.443636 304.777944 
L 246.501818 304.61616 
L 250.56 304.437744 
L 254.618182 304.242696 
L 258.676364 304.031016 
L 262.734545 303.802704 
L 266.792727 303.559272 
L 270.850909 303.299208 
L 274.909091 303.024024 
L 278.967273 302.73372 
L 283.025455 302.429808 
L 287.083636 302.110776 
L 291.141818 301.778136 
L 295.2 301.4334 
L 299.258182 301.075056 
L 303.316364 300.704616 
L 307.374545 300.323592 
L 311.432727 299.930472 
L 315.490909 299.526768 
L 319.549091 299.113992 
L 323.607273 298.693656 
L 327.665455 298.262736 
L 331.723636 297.824256 
L 335.781818 297.379728 
L 339.84 296.929152 
L 343.898182 296.472528 
L 347.956364 296.009856 
L 352.014545 295.54416 
L 356.072727 295.07544 
L 360.130909 294.603696 
L 364.189091 294.13044 
L 368.247273 293.655672 
L 372.305455 293.180904 
L 376.363636 292.707648 
L 380.421818 292.237416 
L 384.48 291.768696 
L 388.538182 291.303 
L 392.596364 290.843352 
L 396.654545 290.389752 
L 400.712727 289.9422 
L 404.770909 289.502208 
L 408.829091 289.071288 
L 412.887273 288.64944 
L 416.945455 288.239688 
L 421.003636 287.842032 
L 425.061818 287.456472 
L 429.12 287.086032 
L 433.178182 286.7292 
L 437.236364 286.390512 
L 441.294545 286.066944 
L 445.352727 285.763032 
L 449.410909 285.475752 
L 453.469091 285.20964 
L 457.527273 284.963184 
L 461.585455 284.739408 
L 465.643636 284.535288 
L 469.701818 284.35536 
L 473.76 284.198112 
L 477.818182 284.063544 
L 481.876364 283.953168 
L 485.934545 283.866984 
L 489.992727 283.804992 
L 494.050909 283.768704 
L 498.109091 283.756608 
" clip-path="url(#p98516c10d3)" style="fill: none; stroke: #000000; stroke-opacity: 0.5; stroke-linecap: square"/>
   </g>
   <g id="line2d_18">
    <path d="M 92.290909 258.17508 
L 96.349091 258.215904 
L 100.407273 258.336864 
L 104.465455 258.525864 
L 108.523636 258.767784 
L 112.581818 259.047504 
L 116.64 259.352928 
L 120.698182 259.67196 
L 124.756364 259.99704 
L 128.814545 260.32212 
L 132.872727 260.641152 
L 136.930909 260.9496 
L 140.989091 261.245952 
L 145.047273 261.527184 
L 149.105455 261.790272 
L 153.163636 262.036728 
L 157.221818 262.263528 
L 161.28 262.470672 
L 165.338182 262.656648 
L 169.396364 262.821456 
L 173.454545 262.966608 
L 177.512727 263.08908 
L 181.570909 263.191896 
L 185.629091 263.272032 
L 189.687273 263.332512 
L 193.745455 263.371824 
L 197.803636 263.39148 
L 201.861818 263.39148 
L 205.92 263.370312 
L 209.978182 263.331 
L 214.036364 263.272032 
L 218.094545 263.196432 
L 222.152727 263.102688 
L 226.210909 262.9908 
L 230.269091 262.863792 
L 234.327273 262.720152 
L 238.385455 262.561392 
L 242.443636 262.387512 
L 246.501818 262.198512 
L 250.56 261.997416 
L 254.618182 261.782712 
L 258.676364 261.5544 
L 262.734545 261.317016 
L 266.792727 261.066024 
L 270.850909 260.80596 
L 274.909091 260.536824 
L 278.967273 260.258616 
L 283.025455 259.971336 
L 287.083636 259.676496 
L 291.141818 259.375608 
L 295.2 259.068672 
L 299.258182 258.7572 
L 303.316364 258.43968 
L 307.374545 258.119136 
L 311.432727 257.795568 
L 315.490909 257.470488 
L 319.549091 257.142384 
L 323.607273 256.815792 
L 327.665455 256.487688 
L 331.723636 256.162608 
L 335.781818 255.837528 
L 339.84 255.515472 
L 343.898182 255.194928 
L 347.956364 254.87892 
L 352.014545 254.567448 
L 356.072727 254.260512 
L 360.130909 253.9566 
L 364.189091 253.660248 
L 368.247273 253.36692 
L 372.305455 253.07964 
L 376.363636 252.796896 
L 380.421818 252.5202 
L 384.48 252.24804 
L 388.538182 251.978904 
L 392.596364 251.714304 
L 396.654545 251.452728 
L 400.712727 251.192664 
L 404.770909 250.935624 
L 408.829091 250.678584 
L 412.887273 250.421544 
L 416.945455 250.164504 
L 421.003636 249.905952 
L 425.061818 249.6474 
L 429.12 249.385824 
L 433.178182 249.121224 
L 437.236364 248.8536 
L 441.294545 248.584464 
L 445.352727 248.312304 
L 449.410909 248.040144 
L 453.469091 247.76496 
L 457.527273 247.4928 
L 461.585455 247.22064 
L 465.643636 246.954528 
L 469.701818 246.697488 
L 473.76 246.452544 
L 477.818182 246.225744 
L 481.876364 246.023136 
L 485.934545 245.853792 
L 489.992727 245.72376 
L 494.050909 245.642112 
L 498.109091 245.613384 
" clip-path="url(#p98516c10d3)" style="fill: none; stroke: #000000; stroke-opacity: 0.5; stroke-linecap: square"/>
   </g>
   <g id="line2d_19">
    <path d="M 92.290909 250.915968 
L 96.349091 250.858512 
L 100.407273 250.687656 
L 104.465455 250.417008 
L 108.523636 250.061688 
L 112.581818 249.635304 
L 116.64 249.152976 
L 120.698182 248.625288 
L 124.756364 248.064336 
L 128.814545 247.474656 
L 132.872727 246.86532 
L 136.930909 246.239352 
L 140.989091 245.6028 
L 145.047273 244.958688 
L 149.105455 244.311552 
L 153.163636 243.665928 
L 157.221818 243.021816 
L 161.28 242.385264 
L 165.338182 241.757784 
L 169.396364 241.140888 
L 173.454545 240.540624 
L 177.512727 239.956992 
L 181.570909 239.393016 
L 185.629091 238.853232 
L 189.687273 238.336128 
L 193.745455 237.84624 
L 197.803636 237.38508 
L 201.861818 236.955672 
L 205.92 236.556504 
L 209.978182 236.1906 
L 214.036364 235.859472 
L 218.094545 235.561608 
L 222.152727 235.29852 
L 226.210909 235.070208 
L 230.269091 234.876672 
L 234.327273 234.714888 
L 238.385455 234.586368 
L 242.443636 234.4896 
L 246.501818 234.42156 
L 250.56 234.380736 
L 254.618182 234.367128 
L 258.676364 234.377712 
L 262.734545 234.410976 
L 266.792727 234.463896 
L 270.850909 234.53496 
L 274.909091 234.622656 
L 278.967273 234.72396 
L 283.025455 234.83736 
L 287.083636 234.961344 
L 291.141818 235.092888 
L 295.2 235.231992 
L 299.258182 235.375632 
L 303.316364 235.522296 
L 307.374545 235.670472 
L 311.432727 235.818648 
L 315.490909 235.965312 
L 319.549091 236.110464 
L 323.607273 236.25108 
L 327.665455 236.38716 
L 331.723636 236.518704 
L 335.781818 236.642688 
L 339.84 236.759112 
L 343.898182 236.869488 
L 347.956364 236.970792 
L 352.014545 237.064536 
L 356.072727 237.149208 
L 360.130909 237.22632 
L 364.189091 237.295872 
L 368.247273 237.357864 
L 372.305455 237.413808 
L 376.363636 237.463704 
L 380.421818 237.509064 
L 384.48 237.549888 
L 388.538182 237.5892 
L 392.596364 237.628512 
L 396.654545 237.667824 
L 400.712727 237.71016 
L 404.770909 237.75552 
L 408.829091 237.80844 
L 412.887273 237.867408 
L 416.945455 237.93696 
L 421.003636 238.015584 
L 425.061818 238.106304 
L 429.12 238.20912 
L 433.178182 238.327056 
L 437.236364 238.457088 
L 441.294545 238.60224 
L 445.352727 238.761 
L 449.410909 238.931856 
L 453.469091 239.114808 
L 457.527273 239.308344 
L 461.585455 239.50944 
L 465.643636 239.71356 
L 469.701818 239.919192 
L 473.76 240.1218 
L 477.818182 240.312312 
L 481.876364 240.486192 
L 485.934545 240.634368 
L 489.992727 240.74928 
L 494.050909 240.821856 
L 498.109091 240.84756 
" clip-path="url(#p98516c10d3)" style="fill: none; stroke: #000000; stroke-opacity: 0.5; stroke-linecap: square"/>
   </g>
   <g id="line2d_20">
    <path d="M 92.290909 166.999968 
L 96.349091 167.181408 
L 100.407273 167.663736 
L 104.465455 168.330528 
L 108.523636 169.091064 
L 112.581818 169.895448 
L 116.64 170.714952 
L 120.698182 171.531432 
L 124.756364 172.337328 
L 128.814545 173.122056 
L 132.872727 173.884104 
L 136.930909 174.617424 
L 140.989091 175.320504 
L 145.047273 175.99032 
L 149.105455 176.623848 
L 153.163636 177.218064 
L 157.221818 177.771456 
L 161.28 178.282512 
L 165.338182 178.746696 
L 169.396364 179.164008 
L 173.454545 179.532936 
L 177.512727 179.848944 
L 181.570909 180.112032 
L 185.629091 180.319176 
L 189.687273 180.468864 
L 193.745455 180.558072 
L 197.803636 180.588312 
L 201.861818 180.555048 
L 205.92 180.459792 
L 209.978182 180.29952 
L 214.036364 180.075744 
L 218.094545 179.786952 
L 222.152727 179.433144 
L 226.210909 179.01432 
L 230.269091 178.531992 
L 234.327273 177.987672 
L 238.385455 177.38136 
L 242.443636 176.714568 
L 246.501818 175.988808 
L 250.56 175.208616 
L 254.618182 174.37248 
L 258.676364 173.483424 
L 262.734545 172.544472 
L 266.792727 171.557136 
L 270.850909 170.52444 
L 274.909091 169.446384 
L 278.967273 168.329016 
L 283.025455 167.170824 
L 287.083636 165.976344 
L 291.141818 164.745576 
L 295.2 163.483056 
L 299.258182 162.190296 
L 303.316364 160.868808 
L 307.374545 159.52464 
L 311.432727 158.16384 
L 315.490909 156.830256 
L 319.549091 156.31164 
L 323.607273 157.539384 
L 327.665455 158.909256 
L 331.723636 160.274592 
L 335.781818 161.623296 
L 339.84 162.94932 
L 343.898182 164.24964 
L 347.956364 165.522744 
L 352.014545 166.76712 
L 356.072727 167.982768 
L 360.130909 169.165152 
L 364.189091 170.315784 
L 368.247273 171.43164 
L 372.305455 172.51272 
L 376.363636 173.556 
L 380.421818 174.559968 
L 384.48 175.523112 
L 388.538182 176.445432 
L 392.596364 177.322392 
L 396.654545 178.157016 
L 400.712727 178.943256 
L 404.770909 179.682624 
L 408.829091 180.372096 
L 412.887273 181.013184 
L 416.945455 181.602864 
L 421.003636 182.142648 
L 425.061818 182.629512 
L 429.12 183.064968 
L 433.178182 183.450528 
L 437.236364 183.78468 
L 441.294545 184.070448 
L 445.352727 184.307832 
L 449.410909 184.501368 
L 453.469091 184.651056 
L 457.527273 184.762944 
L 461.585455 184.840056 
L 465.643636 184.885416 
L 469.701818 184.906584 
L 473.76 184.908096 
L 477.818182 184.894488 
L 481.876364 184.874832 
L 485.934545 184.85064 
L 489.992727 184.829472 
L 494.050909 184.815864 
L 498.109091 184.811328 
" clip-path="url(#p98516c10d3)" style="fill: none; stroke: #000000; stroke-opacity: 0.5; stroke-linecap: square"/>
   </g>
   <g id="line2d_21">
    <path d="M 92.290909 161.258904 
L 96.349091 161.053272 
L 100.407273 160.49988 
L 104.465455 159.715152 
L 108.523636 158.786784 
L 112.581818 157.766184 
L 116.64 156.683592 
L 120.698182 155.552616 
L 124.756364 154.385352 
L 128.814545 153.184824 
L 132.872727 151.95708 
L 136.930909 150.706656 
L 140.989091 149.43204 
L 145.047273 148.137768 
L 149.105455 146.82384 
L 153.163636 145.491768 
L 157.221818 144.143064 
L 161.28 142.777728 
L 165.338182 141.397272 
L 169.396364 140.001696 
L 173.454545 138.594024 
L 177.512727 137.174256 
L 181.570909 135.742392 
L 185.629091 134.299944 
L 189.687273 132.851448 
L 193.745455 131.396904 
L 197.803636 129.939336 
L 201.861818 128.484792 
L 205.92 127.040832 
L 209.978182 125.622576 
L 214.036364 124.252704 
L 218.094545 122.98716 
L 222.152727 121.963536 
L 226.210909 121.511448 
L 230.269091 121.987728 
L 234.327273 123.148944 
L 238.385455 124.594416 
L 242.443636 126.153288 
L 246.501818 127.762056 
L 250.56 129.39048 
L 254.618182 131.027976 
L 258.676364 132.668496 
L 262.734545 134.30448 
L 266.792727 135.935928 
L 270.850909 137.559816 
L 274.909091 139.174632 
L 278.967273 140.778864 
L 283.025455 142.371 
L 287.083636 143.949528 
L 291.141818 145.514448 
L 295.2 147.064248 
L 299.258182 148.597416 
L 303.316364 150.11244 
L 307.374545 151.606296 
L 311.432727 153.071424 
L 315.490909 154.467 
L 319.549091 155.002248 
L 323.607273 153.750312 
L 327.665455 152.315424 
L 331.723636 150.842736 
L 335.781818 149.34888 
L 339.84 147.838392 
L 343.898182 146.315808 
L 347.956364 144.787176 
L 352.014545 143.257032 
L 356.072727 141.745032 
L 360.130909 140.292 
L 364.189091 139.071816 
L 368.247273 138.775464 
L 372.305455 139.678128 
L 376.363636 140.963328 
L 380.421818 142.331688 
L 384.48 143.719704 
L 388.538182 145.103184 
L 392.596364 146.47608 
L 396.654545 147.832344 
L 400.712727 149.168952 
L 404.770909 150.48288 
L 408.829091 151.774128 
L 412.887273 153.039672 
L 416.945455 154.279512 
L 421.003636 155.490624 
L 425.061818 156.669984 
L 429.12 157.819104 
L 433.178182 158.933448 
L 437.236364 160.009992 
L 441.294545 161.048736 
L 445.352727 162.046656 
L 449.410909 162.997704 
L 453.469091 163.90188 
L 457.527273 164.753136 
L 461.585455 165.548448 
L 465.643636 166.281768 
L 469.701818 166.94856 
L 473.76 167.542776 
L 477.818182 168.05988 
L 481.876364 168.493824 
L 485.934545 168.837048 
L 489.992727 169.086528 
L 494.050909 169.237728 
L 498.109091 169.289136 
" clip-path="url(#p98516c10d3)" style="fill: none; stroke: #000000; stroke-opacity: 0.5; stroke-linecap: square"/>
   </g>
   <g id="line2d_22">
    <path d="M 92.290909 117.834264 
L 96.349091 117.829728 
L 100.407273 117.819144 
L 104.465455 117.801 
L 108.523636 117.776808 
L 112.581818 117.745056 
L 116.64 117.705744 
L 120.698182 117.660384 
L 124.756364 117.607464 
L 128.814545 117.546984 
L 132.872727 117.480456 
L 136.930909 117.406368 
L 140.989091 117.326232 
L 145.047273 117.240048 
L 149.105455 117.146304 
L 153.163636 117.045 
L 157.221818 116.93916 
L 161.28 116.82576 
L 165.338182 116.706312 
L 169.396364 116.580816 
L 173.454545 116.449272 
L 177.512727 116.310168 
L 181.570909 116.166528 
L 185.629091 116.013816 
L 189.687273 115.856568 
L 193.745455 115.690248 
L 197.803636 115.516368 
L 201.861818 115.334928 
L 205.92 115.142904 
L 209.978182 114.94332 
L 214.036364 114.748272 
L 218.094545 114.857136 
L 222.152727 115.950312 
L 226.210909 116.718408 
L 230.269091 116.680608 
L 234.327273 116.133264 
L 238.385455 115.523928 
L 242.443636 115.014384 
L 246.501818 114.612192 
L 250.56 114.2856 
L 254.618182 114.007392 
L 258.676364 113.760936 
L 262.734545 113.538672 
L 266.792727 113.33304 
L 270.850909 113.142528 
L 274.909091 112.965624 
L 278.967273 112.80384 
L 283.025455 112.661712 
L 287.083636 112.548312 
L 291.141818 112.477248 
L 295.2 112.490856 
L 299.258182 112.678344 
L 303.316364 113.215104 
L 307.374545 114.226632 
L 311.432727 115.576848 
L 315.490909 117.087336 
L 319.549091 118.664352 
L 323.607273 120.270096 
L 327.665455 121.8834 
L 331.723636 123.495192 
L 335.781818 125.100936 
L 339.84 126.694584 
L 343.898182 128.273112 
L 347.956364 129.831984 
L 352.014545 131.36364 
L 356.072727 132.85296 
L 360.130909 134.256096 
L 364.189091 135.399168 
L 368.247273 135.595728 
L 372.305455 134.567568 
L 376.363636 133.134192 
L 380.421818 131.593464 
L 384.48 130.0104 
L 388.538182 128.409192 
L 392.596364 126.798912 
L 396.654545 125.18712 
L 400.712727 123.575328 
L 404.770909 121.969584 
L 408.829091 120.372912 
L 412.887273 118.792872 
L 416.945455 117.235512 
L 421.003636 115.71444 
L 425.061818 114.2478 
L 429.12 112.868856 
L 433.178182 111.6396 
L 437.236364 110.647728 
L 441.294545 109.956744 
L 445.352727 109.525824 
L 449.410909 109.262736 
L 453.469091 109.093392 
L 457.527273 108.976968 
L 461.585455 108.89532 
L 465.643636 108.833328 
L 469.701818 108.787968 
L 473.76 108.75168 
L 477.818182 108.724464 
L 481.876364 108.703296 
L 485.934545 108.688176 
L 489.992727 108.677592 
L 494.050909 108.671544 
L 498.109091 108.670032 
" clip-path="url(#p98516c10d3)" style="fill: none; stroke: #000000; stroke-opacity: 0.5; stroke-linecap: square"/>
   </g>
   <g id="line2d_23">
    <path d="M 92.290909 78.741504 
L 96.349091 78.74604 
L 100.407273 78.76116 
L 104.465455 78.788376 
L 108.523636 78.838272 
L 112.581818 78.924456 
L 116.64 79.068096 
L 120.698182 79.308504 
L 124.756364 79.701624 
L 128.814545 80.312472 
L 132.872727 81.174312 
L 136.930909 82.262952 
L 140.989091 83.526984 
L 145.047273 84.915 
L 149.105455 86.392224 
L 153.163636 87.93144 
L 157.221818 89.516016 
L 161.28 91.135368 
L 165.338182 92.781936 
L 169.396364 94.449672 
L 173.454545 96.132528 
L 177.512727 97.825968 
L 181.570909 99.529992 
L 185.629091 101.23704 
L 189.687273 102.948624 
L 193.745455 104.658696 
L 197.803636 106.365744 
L 201.861818 108.06372 
L 205.92 109.743552 
L 209.978182 111.393144 
L 214.036364 112.971672 
L 218.094545 114.125328 
L 222.152727 114.03612 
L 226.210909 113.686848 
L 230.269091 113.19696 
L 234.327273 112.518072 
L 238.385455 111.600288 
L 242.443636 110.455704 
L 246.501818 109.1448 
L 250.56 107.728056 
L 254.618182 106.24932 
L 258.676364 104.74488 
L 262.734545 103.249512 
L 266.792727 101.83428 
L 270.850909 100.697256 
L 274.909091 100.391832 
L 278.967273 101.243088 
L 283.025455 102.644712 
L 287.083636 104.203584 
L 291.141818 105.786648 
L 295.2 107.313768 
L 299.258182 108.679104 
L 303.316364 109.69668 
L 307.374545 110.239488 
L 311.432727 110.440584 
L 315.490909 110.47536 
L 319.549091 110.436048 
L 323.607273 110.36196 
L 327.665455 110.27124 
L 331.723636 110.169936 
L 335.781818 110.065608 
L 339.84 109.959768 
L 343.898182 109.853928 
L 347.956364 109.7496 
L 352.014545 109.648296 
L 356.072727 109.548504 
L 360.130909 109.451736 
L 364.189091 109.359504 
L 368.247273 109.268784 
L 372.305455 109.181088 
L 376.363636 109.097928 
L 380.421818 109.01628 
L 384.48 108.937656 
L 388.538182 108.860544 
L 392.596364 108.784944 
L 396.654545 108.709344 
L 400.712727 108.633744 
L 404.770909 108.556632 
L 408.829091 108.474984 
L 412.887273 108.385776 
L 416.945455 108.284472 
L 421.003636 108.158976 
L 425.061818 107.994168 
L 429.12 107.759808 
L 433.178182 107.396928 
L 437.236364 106.820856 
L 441.294545 105.974136 
L 445.352727 104.902128 
L 449.410909 103.703112 
L 453.469091 102.455712 
L 457.527273 101.209824 
L 461.585455 99.995688 
L 465.643636 98.835984 
L 469.701818 97.750368 
L 473.76 96.755472 
L 477.818182 95.870952 
L 481.876364 95.11344 
L 485.934545 94.502592 
L 489.992727 94.052016 
L 494.050909 93.77532 
L 498.109091 93.683088 
" clip-path="url(#p98516c10d3)" style="fill: none; stroke: #000000; stroke-opacity: 0.5; stroke-linecap: square"/>
   </g>
   <g id="patch_3">
    <path d="M 72 384.48 
L 72 51.84 
" style="fill: none; stroke: #000000; stroke-width: 0.8; stroke-linejoin: miter; stroke-linecap: square"/>
   </g>
   <g id="patch_4">
    <path d="M 518.4 384.48 
L 518.4 51.84 
" style="fill: none; stroke: #000000; stroke-width: 0.8; stroke-linejoin: miter; stroke-linecap: square"/>
   </g>
   <g id="patch_5">
    <path d="M 72 384.48 
L 518.4 384.48 
" style="fill: none; stroke: #000000; stroke-width: 0.8; stroke-linejoin: miter; stroke-linecap: square"/>
   </g>
   <g id="patch_6">
    <path d="M 72 51.84 
L 518.4 51.84 
" style="fill: none; stroke: #000000; stroke-width: 0.8; stroke-linejoin: miter; stroke-linecap: square"/>
   </g>
  </g>
 </g>
 <defs>
  <clipPath id="p98516c10d3">
   <rect x="72" y="51.84" width="446.4" height="332.64"/>
  </clipPath>
 </defs>
</svg>
