<?xml version="1.0" encoding="utf-8" standalone="no"?>
<!DOCTYPE svg PUBLIC "-//W3C//DTD SVG 1.1//EN"
  "http://www.w3.org/Graphics/SVG/1.1/DTD/svg11.dtd">
<svg xmlns:xlink="http://www.w3.org/1999/xlink" width="576pt" height="432pt" viewBox="0 0 576 432" xmlns="http://www.w3.org/2000/svg" version="1.1">
 <metadata>
  <rdf:RDF xmlns:dc="http://purl.org/dc/elements/1.1/" xmlns:cc="http://creativecommons.org/ns#" xmlns:rdf="http://www.w3.org/1999/02/22-rdf-syntax-ns#">
   <cc:Work>
    <dc:type rdf:resource="http://purl.org/dc/dcmitype/StillImage"/>
    <dc:date>2023-05-03T06:29:53.272754</dc:date>
    <dc:format>image/svg+xml</dc:format>
    <dc:creator>
     <cc:Agent>
      <dc:title>Matplotlib v3.7.1, https://matplotlib.org/</dc:title>
     </cc:Agent>
    </dc:creator>
   </cc:Work>
  </rdf:RDF>
 </metadata>
 <defs>
  <style type="text/css">*{stroke-linejoin: round; stroke-linecap: butt}</style>
 </defs>
 <g id="figure_1">
  <g id="patch_1">
   <path d="M 0 432 
L 576 432 
L 576 0 
L 0 0 
z
" style="fill: #ffffff"/>
  </g>
  <g id="axes_1">
   <g id="patch_2">
    <path d="M 72 384.48 
L 518.4 384.48 
L 518.4 51.84 
L 72 51.84 
z
" style="fill: #ffffff"/>
   </g>
   <g id="matplotlib.axis_1">
    <g id="xtick_1">
     <g id="line2d_1">
      <defs>
       <path id="m173228ebbd" d="M 0 0 
L 0 3.5 
" style="stroke: #000000; stroke-width: 0.8"/>
      </defs>
      <g>
       <use xlink:href="#m173228ebbd" x="92.290909" y="384.48" style="stroke: #000000; stroke-width: 0.8"/>
      </g>
     </g>
     <g id="text_1">
      <!-- 0.0 -->
      <g transform="translate(84.339347 399.078438) scale(0.1 -0.1)">
       <defs>
        <path id="DejaVuSans-30" d="M 2034 4250 
Q 1547 4250 1301 3770 
Q 1056 3291 1056 2328 
Q 1056 1369 1301 889 
Q 1547 409 2034 409 
Q 2525 409 2770 889 
Q 3016 1369 3016 2328 
Q 3016 3291 2770 3770 
Q 2525 4250 2034 4250 
z
M 2034 4750 
Q 2819 4750 3233 4129 
Q 3647 3509 3647 2328 
Q 3647 1150 3233 529 
Q 2819 -91 2034 -91 
Q 1250 -91 836 529 
Q 422 1150 422 2328 
Q 422 3509 836 4129 
Q 1250 4750 2034 4750 
z
" transform="scale(0.015625)"/>
        <path id="DejaVuSans-2e" d="M 684 794 
L 1344 794 
L 1344 0 
L 684 0 
L 684 794 
z
" transform="scale(0.015625)"/>
       </defs>
       <use xlink:href="#DejaVuSans-30"/>
       <use xlink:href="#DejaVuSans-2e" x="63.623047"/>
       <use xlink:href="#DejaVuSans-30" x="95.410156"/>
      </g>
     </g>
    </g>
    <g id="xtick_2">
     <g id="line2d_2">
      <g>
       <use xlink:href="#m173228ebbd" x="173.454545" y="384.48" style="stroke: #000000; stroke-width: 0.8"/>
      </g>
     </g>
     <g id="text_2">
      <!-- 0.2 -->
      <g transform="translate(165.502983 399.078438) scale(0.1 -0.1)">
       <defs>
        <path id="DejaVuSans-32" d="M 1228 531 
L 3431 531 
L 3431 0 
L 469 0 
L 469 531 
Q 828 903 1448 1529 
Q 2069 2156 2228 2338 
Q 2531 2678 2651 2914 
Q 2772 3150 2772 3378 
Q 2772 3750 2511 3984 
Q 2250 4219 1831 4219 
Q 1534 4219 1204 4116 
Q 875 4013 500 3803 
L 500 4441 
Q 881 4594 1212 4672 
Q 1544 4750 1819 4750 
Q 2544 4750 2975 4387 
Q 3406 4025 3406 3419 
Q 3406 3131 3298 2873 
Q 3191 2616 2906 2266 
Q 2828 2175 2409 1742 
Q 1991 1309 1228 531 
z
" transform="scale(0.015625)"/>
       </defs>
       <use xlink:href="#DejaVuSans-30"/>
       <use xlink:href="#DejaVuSans-2e" x="63.623047"/>
       <use xlink:href="#DejaVuSans-32" x="95.410156"/>
      </g>
     </g>
    </g>
    <g id="xtick_3">
     <g id="line2d_3">
      <g>
       <use xlink:href="#m173228ebbd" x="254.618182" y="384.48" style="stroke: #000000; stroke-width: 0.8"/>
      </g>
     </g>
     <g id="text_3">
      <!-- 0.4 -->
      <g transform="translate(246.666619 399.078438) scale(0.1 -0.1)">
       <defs>
        <path id="DejaVuSans-34" d="M 2419 4116 
L 825 1625 
L 2419 1625 
L 2419 4116 
z
M 2253 4666 
L 3047 4666 
L 3047 1625 
L 3713 1625 
L 3713 1100 
L 3047 1100 
L 3047 0 
L 2419 0 
L 2419 1100 
L 313 1100 
L 313 1709 
L 2253 4666 
z
" transform="scale(0.015625)"/>
       </defs>
       <use xlink:href="#DejaVuSans-30"/>
       <use xlink:href="#DejaVuSans-2e" x="63.623047"/>
       <use xlink:href="#DejaVuSans-34" x="95.410156"/>
      </g>
     </g>
    </g>
    <g id="xtick_4">
     <g id="line2d_4">
      <g>
       <use xlink:href="#m173228ebbd" x="335.781818" y="384.48" style="stroke: #000000; stroke-width: 0.8"/>
      </g>
     </g>
     <g id="text_4">
      <!-- 0.6 -->
      <g transform="translate(327.830256 399.078438) scale(0.1 -0.1)">
       <defs>
        <path id="DejaVuSans-36" d="M 2113 2584 
Q 1688 2584 1439 2293 
Q 1191 2003 1191 1497 
Q 1191 994 1439 701 
Q 1688 409 2113 409 
Q 2538 409 2786 701 
Q 3034 994 3034 1497 
Q 3034 2003 2786 2293 
Q 2538 2584 2113 2584 
z
M 3366 4563 
L 3366 3988 
Q 3128 4100 2886 4159 
Q 2644 4219 2406 4219 
Q 1781 4219 1451 3797 
Q 1122 3375 1075 2522 
Q 1259 2794 1537 2939 
Q 1816 3084 2150 3084 
Q 2853 3084 3261 2657 
Q 3669 2231 3669 1497 
Q 3669 778 3244 343 
Q 2819 -91 2113 -91 
Q 1303 -91 875 529 
Q 447 1150 447 2328 
Q 447 3434 972 4092 
Q 1497 4750 2381 4750 
Q 2619 4750 2861 4703 
Q 3103 4656 3366 4563 
z
" transform="scale(0.015625)"/>
       </defs>
       <use xlink:href="#DejaVuSans-30"/>
       <use xlink:href="#DejaVuSans-2e" x="63.623047"/>
       <use xlink:href="#DejaVuSans-36" x="95.410156"/>
      </g>
     </g>
    </g>
    <g id="xtick_5">
     <g id="line2d_5">
      <g>
       <use xlink:href="#m173228ebbd" x="416.945455" y="384.48" style="stroke: #000000; stroke-width: 0.8"/>
      </g>
     </g>
     <g id="text_5">
      <!-- 0.8 -->
      <g transform="translate(408.993892 399.078438) scale(0.1 -0.1)">
       <defs>
        <path id="DejaVuSans-38" d="M 2034 2216 
Q 1584 2216 1326 1975 
Q 1069 1734 1069 1313 
Q 1069 891 1326 650 
Q 1584 409 2034 409 
Q 2484 409 2743 651 
Q 3003 894 3003 1313 
Q 3003 1734 2745 1975 
Q 2488 2216 2034 2216 
z
M 1403 2484 
Q 997 2584 770 2862 
Q 544 3141 544 3541 
Q 544 4100 942 4425 
Q 1341 4750 2034 4750 
Q 2731 4750 3128 4425 
Q 3525 4100 3525 3541 
Q 3525 3141 3298 2862 
Q 3072 2584 2669 2484 
Q 3125 2378 3379 2068 
Q 3634 1759 3634 1313 
Q 3634 634 3220 271 
Q 2806 -91 2034 -91 
Q 1263 -91 848 271 
Q 434 634 434 1313 
Q 434 1759 690 2068 
Q 947 2378 1403 2484 
z
M 1172 3481 
Q 1172 3119 1398 2916 
Q 1625 2713 2034 2713 
Q 2441 2713 2670 2916 
Q 2900 3119 2900 3481 
Q 2900 3844 2670 4047 
Q 2441 4250 2034 4250 
Q 1625 4250 1398 4047 
Q 1172 3844 1172 3481 
z
" transform="scale(0.015625)"/>
       </defs>
       <use xlink:href="#DejaVuSans-30"/>
       <use xlink:href="#DejaVuSans-2e" x="63.623047"/>
       <use xlink:href="#DejaVuSans-38" x="95.410156"/>
      </g>
     </g>
    </g>
    <g id="xtick_6">
     <g id="line2d_6">
      <g>
       <use xlink:href="#m173228ebbd" x="498.109091" y="384.48" style="stroke: #000000; stroke-width: 0.8"/>
      </g>
     </g>
     <g id="text_6">
      <!-- 1.0 -->
      <g transform="translate(490.157528 399.078438) scale(0.1 -0.1)">
       <defs>
        <path id="DejaVuSans-31" d="M 794 531 
L 1825 531 
L 1825 4091 
L 703 3866 
L 703 4441 
L 1819 4666 
L 2450 4666 
L 2450 531 
L 3481 531 
L 3481 0 
L 794 0 
L 794 531 
z
" transform="scale(0.015625)"/>
       </defs>
       <use xlink:href="#DejaVuSans-31"/>
       <use xlink:href="#DejaVuSans-2e" x="63.623047"/>
       <use xlink:href="#DejaVuSans-30" x="95.410156"/>
      </g>
     </g>
    </g>
   </g>
   <g id="matplotlib.axis_2">
    <g id="ytick_1">
     <g id="line2d_7">
      <defs>
       <path id="m5653e792e4" d="M 0 0 
L -3.5 0 
" style="stroke: #000000; stroke-width: 0.8"/>
      </defs>
      <g>
       <use xlink:href="#m5653e792e4" x="72" y="369.36" style="stroke: #000000; stroke-width: 0.8"/>
      </g>
     </g>
     <g id="text_7">
      <!-- −5.0 -->
      <g transform="translate(40.717187 373.159219) scale(0.1 -0.1)">
       <defs>
        <path id="DejaVuSans-2212" d="M 678 2272 
L 4684 2272 
L 4684 1741 
L 678 1741 
L 678 2272 
z
" transform="scale(0.015625)"/>
        <path id="DejaVuSans-35" d="M 691 4666 
L 3169 4666 
L 3169 4134 
L 1269 4134 
L 1269 2991 
Q 1406 3038 1543 3061 
Q 1681 3084 1819 3084 
Q 2600 3084 3056 2656 
Q 3513 2228 3513 1497 
Q 3513 744 3044 326 
Q 2575 -91 1722 -91 
Q 1428 -91 1123 -41 
Q 819 9 494 109 
L 494 744 
Q 775 591 1075 516 
Q 1375 441 1709 441 
Q 2250 441 2565 725 
Q 2881 1009 2881 1497 
Q 2881 1984 2565 2268 
Q 2250 2553 1709 2553 
Q 1456 2553 1204 2497 
Q 953 2441 691 2322 
L 691 4666 
z
" transform="scale(0.015625)"/>
       </defs>
       <use xlink:href="#DejaVuSans-2212"/>
       <use xlink:href="#DejaVuSans-35" x="83.789062"/>
       <use xlink:href="#DejaVuSans-2e" x="147.412109"/>
       <use xlink:href="#DejaVuSans-30" x="179.199219"/>
      </g>
     </g>
    </g>
    <g id="ytick_2">
     <g id="line2d_8">
      <g>
       <use xlink:href="#m5653e792e4" x="72" y="331.56" style="stroke: #000000; stroke-width: 0.8"/>
      </g>
     </g>
     <g id="text_8">
      <!-- −2.5 -->
      <g transform="translate(40.717187 335.359219) scale(0.1 -0.1)">
       <use xlink:href="#DejaVuSans-2212"/>
       <use xlink:href="#DejaVuSans-32" x="83.789062"/>
       <use xlink:href="#DejaVuSans-2e" x="147.412109"/>
       <use xlink:href="#DejaVuSans-35" x="179.199219"/>
      </g>
     </g>
    </g>
    <g id="ytick_3">
     <g id="line2d_9">
      <g>
       <use xlink:href="#m5653e792e4" x="72" y="293.76" style="stroke: #000000; stroke-width: 0.8"/>
      </g>
     </g>
     <g id="text_9">
      <!-- 0.0 -->
      <g transform="translate(49.096875 297.559219) scale(0.1 -0.1)">
       <use xlink:href="#DejaVuSans-30"/>
       <use xlink:href="#DejaVuSans-2e" x="63.623047"/>
       <use xlink:href="#DejaVuSans-30" x="95.410156"/>
      </g>
     </g>
    </g>
    <g id="ytick_4">
     <g id="line2d_10">
      <g>
       <use xlink:href="#m5653e792e4" x="72" y="255.96" style="stroke: #000000; stroke-width: 0.8"/>
      </g>
     </g>
     <g id="text_10">
      <!-- 2.5 -->
      <g transform="translate(49.096875 259.759219) scale(0.1 -0.1)">
       <use xlink:href="#DejaVuSans-32"/>
       <use xlink:href="#DejaVuSans-2e" x="63.623047"/>
       <use xlink:href="#DejaVuSans-35" x="95.410156"/>
      </g>
     </g>
    </g>
    <g id="ytick_5">
     <g id="line2d_11">
      <g>
       <use xlink:href="#m5653e792e4" x="72" y="218.16" style="stroke: #000000; stroke-width: 0.8"/>
      </g>
     </g>
     <g id="text_11">
      <!-- 5.0 -->
      <g transform="translate(49.096875 221.959219) scale(0.1 -0.1)">
       <use xlink:href="#DejaVuSans-35"/>
       <use xlink:href="#DejaVuSans-2e" x="63.623047"/>
       <use xlink:href="#DejaVuSans-30" x="95.410156"/>
      </g>
     </g>
    </g>
    <g id="ytick_6">
     <g id="line2d_12">
      <g>
       <use xlink:href="#m5653e792e4" x="72" y="180.36" style="stroke: #000000; stroke-width: 0.8"/>
      </g>
     </g>
     <g id="text_12">
      <!-- 7.5 -->
      <g transform="translate(49.096875 184.159219) scale(0.1 -0.1)">
       <defs>
        <path id="DejaVuSans-37" d="M 525 4666 
L 3525 4666 
L 3525 4397 
L 1831 0 
L 1172 0 
L 2766 4134 
L 525 4134 
L 525 4666 
z
" transform="scale(0.015625)"/>
       </defs>
       <use xlink:href="#DejaVuSans-37"/>
       <use xlink:href="#DejaVuSans-2e" x="63.623047"/>
       <use xlink:href="#DejaVuSans-35" x="95.410156"/>
      </g>
     </g>
    </g>
    <g id="ytick_7">
     <g id="line2d_13">
      <g>
       <use xlink:href="#m5653e792e4" x="72" y="142.56" style="stroke: #000000; stroke-width: 0.8"/>
      </g>
     </g>
     <g id="text_13">
      <!-- 10.0 -->
      <g transform="translate(42.734375 146.359219) scale(0.1 -0.1)">
       <use xlink:href="#DejaVuSans-31"/>
       <use xlink:href="#DejaVuSans-30" x="63.623047"/>
       <use xlink:href="#DejaVuSans-2e" x="127.246094"/>
       <use xlink:href="#DejaVuSans-30" x="159.033203"/>
      </g>
     </g>
    </g>
    <g id="ytick_8">
     <g id="line2d_14">
      <g>
       <use xlink:href="#m5653e792e4" x="72" y="104.76" style="stroke: #000000; stroke-width: 0.8"/>
      </g>
     </g>
     <g id="text_14">
      <!-- 12.5 -->
      <g transform="translate(42.734375 108.559219) scale(0.1 -0.1)">
       <use xlink:href="#DejaVuSans-31"/>
       <use xlink:href="#DejaVuSans-32" x="63.623047"/>
       <use xlink:href="#DejaVuSans-2e" x="127.246094"/>
       <use xlink:href="#DejaVuSans-35" x="159.033203"/>
      </g>
     </g>
    </g>
    <g id="ytick_9">
     <g id="line2d_15">
      <g>
       <use xlink:href="#m5653e792e4" x="72" y="66.96" style="stroke: #000000; stroke-width: 0.8"/>
      </g>
     </g>
     <g id="text_15">
      <!-- 15.0 -->
      <g transform="translate(42.734375 70.759219) scale(0.1 -0.1)">
       <use xlink:href="#DejaVuSans-31"/>
       <use xlink:href="#DejaVuSans-35" x="63.623047"/>
       <use xlink:href="#DejaVuSans-2e" x="127.246094"/>
       <use xlink:href="#DejaVuSans-30" x="159.033203"/>
      </g>
     </g>
    </g>
   </g>
   <g id="line2d_16">
    <path d="M 92.290909 349.2882 
L 96.349091 349.285176 
L 100.407273 349.274592 
L 104.465455 349.256448 
L 108.523636 349.232256 
L 112.581818 349.200504 
L 116.64 349.162704 
L 120.698182 349.117344 
L 124.756364 349.065936 
L 128.814545 349.00848 
L 132.872727 348.943464 
L 136.930909 348.8724 
L 140.989091 348.795288 
L 145.047273 348.712128 
L 149.105455 348.62292 
L 153.163636 348.527664 
L 157.221818 348.427872 
L 161.28 348.323544 
L 165.338182 348.213168 
L 169.396364 348.099768 
L 173.454545 347.98032 
L 177.512727 347.857848 
L 181.570909 347.73084 
L 185.629091 347.60232 
L 189.687273 347.469264 
L 193.745455 347.334696 
L 197.803636 347.197104 
L 201.861818 347.059512 
L 205.92 346.918896 
L 209.978182 346.77828 
L 214.036364 346.637664 
L 218.094545 346.49856 
L 222.152727 346.359456 
L 226.210909 346.221864 
L 230.269091 346.085784 
L 234.327273 345.952728 
L 238.385455 345.824208 
L 242.443636 345.6972 
L 246.501818 345.57624 
L 250.56 345.459816 
L 254.618182 345.34944 
L 258.676364 345.245112 
L 262.734545 345.148344 
L 266.792727 345.057624 
L 270.850909 344.975976 
L 274.909091 344.901888 
L 278.967273 344.83536 
L 283.025455 344.779416 
L 287.083636 344.732544 
L 291.141818 344.694744 
L 295.2 344.666016 
L 299.258182 344.647872 
L 303.316364 344.640312 
L 307.374545 344.641824 
L 311.432727 344.65392 
L 315.490909 344.675088 
L 319.549091 344.705328 
L 323.607273 344.74464 
L 327.665455 344.793024 
L 331.723636 344.85048 
L 335.781818 344.913984 
L 339.84 344.98656 
L 343.898182 345.065184 
L 347.956364 345.151368 
L 352.014545 345.242088 
L 356.072727 345.338856 
L 360.130909 345.44016 
L 364.189091 345.544488 
L 368.247273 345.653352 
L 372.305455 345.76524 
L 376.363636 345.87864 
L 380.421818 345.995064 
L 384.48 346.111488 
L 388.538182 346.229424 
L 392.596364 346.345848 
L 396.654545 346.463784 
L 400.712727 346.578696 
L 404.770909 346.693608 
L 408.829091 346.807008 
L 412.887273 346.917384 
L 416.945455 347.026248 
L 421.003636 347.130576 
L 425.061818 347.23188 
L 429.12 347.33016 
L 433.178182 347.423904 
L 437.236364 347.514624 
L 441.294545 347.599296 
L 445.352727 347.679432 
L 449.410909 347.755032 
L 453.469091 347.824584 
L 457.527273 347.8896 
L 461.585455 347.948568 
L 465.643636 348.001488 
L 469.701818 348.04836 
L 473.76 348.089184 
L 477.818182 348.12396 
L 481.876364 348.152688 
L 485.934545 348.175368 
L 489.992727 348.192 
L 494.050909 348.201072 
L 498.109091 348.204096 
" clip-path="url(#pcf6f281cd7)" style="fill: none; stroke: #000000; stroke-opacity: 0.5; stroke-linecap: square"/>
   </g>
   <g id="line2d_17">
    <path d="M 92.290909 286.460064 
L 96.349091 286.490304 
L 100.407273 286.578 
L 104.465455 286.724664 
L 108.523636 286.92576 
L 112.581818 287.179776 
L 116.64 287.482176 
L 120.698182 287.828424 
L 124.756364 288.217008 
L 128.814545 288.64188 
L 132.872727 289.098504 
L 136.930909 289.582344 
L 140.989091 290.091888 
L 145.047273 290.621088 
L 149.105455 291.168432 
L 153.163636 291.729384 
L 157.221818 292.30092 
L 161.28 292.880016 
L 165.338182 293.466672 
L 169.396364 294.05484 
L 173.454545 294.64452 
L 177.512727 295.232688 
L 181.570909 295.819344 
L 185.629091 296.401464 
L 189.687273 296.976024 
L 193.745455 297.544536 
L 197.803636 298.103976 
L 201.861818 298.65132 
L 205.92 299.189592 
L 209.978182 299.712744 
L 214.036364 300.222288 
L 218.094545 300.718224 
L 222.152727 301.196016 
L 226.210909 301.657176 
L 230.269091 302.100192 
L 234.327273 302.52204 
L 238.385455 302.925744 
L 242.443636 303.306768 
L 246.501818 303.666624 
L 250.56 304.002288 
L 254.618182 304.315272 
L 258.676364 304.602552 
L 262.734545 304.864128 
L 266.792727 305.101512 
L 270.850909 305.310168 
L 274.909091 305.491608 
L 278.967273 305.645832 
L 283.025455 305.77284 
L 287.083636 305.869608 
L 291.141818 305.937648 
L 295.2 305.97696 
L 299.258182 305.987544 
L 303.316364 305.967888 
L 307.374545 305.919504 
L 311.432727 305.842392 
L 315.490909 305.736552 
L 319.549091 305.601984 
L 323.607273 305.438688 
L 327.665455 305.248176 
L 331.723636 305.030448 
L 335.781818 304.785504 
L 339.84 304.516368 
L 343.898182 304.220016 
L 347.956364 303.900984 
L 352.014545 303.55776 
L 356.072727 303.191856 
L 360.130909 302.804784 
L 364.189091 302.398056 
L 368.247273 301.97016 
L 372.305455 301.52412 
L 376.363636 301.059936 
L 380.421818 300.57912 
L 384.48 300.084696 
L 388.538182 299.575152 
L 392.596364 299.053512 
L 396.654545 298.519776 
L 400.712727 297.976968 
L 404.770909 297.425088 
L 408.829091 296.865648 
L 412.887273 296.301672 
L 416.945455 295.734672 
L 421.003636 295.164648 
L 425.061818 294.596136 
L 429.12 294.030648 
L 433.178182 293.469696 
L 437.236364 292.916304 
L 441.294545 292.371984 
L 445.352727 291.842784 
L 449.410909 291.328704 
L 453.469091 290.835792 
L 457.527273 290.36556 
L 461.585455 289.922544 
L 465.643636 289.51128 
L 469.701818 289.136304 
L 473.76 288.799128 
L 477.818182 288.507312 
L 481.876364 288.260856 
L 485.934545 288.065808 
L 489.992727 287.925192 
L 494.050909 287.839008 
L 498.109091 287.81028 
" clip-path="url(#pcf6f281cd7)" style="fill: none; stroke: #000000; stroke-opacity: 0.5; stroke-linecap: square"/>
   </g>
   <g id="line2d_18">
    <path d="M 92.290909 256.861152 
L 96.349091 256.827888 
L 100.407273 256.729608 
L 104.465455 256.566312 
L 108.523636 256.342536 
L 112.581818 256.05828 
L 116.64 255.721104 
L 120.698182 255.33252 
L 124.756364 254.898576 
L 128.814545 254.423808 
L 132.872727 253.91124 
L 136.930909 253.36692 
L 140.989091 252.795384 
L 145.047273 252.201168 
L 149.105455 251.587296 
L 153.163636 250.959816 
L 157.221818 250.32024 
L 161.28 249.673104 
L 165.338182 249.021432 
L 169.396364 248.368248 
L 173.454545 247.718088 
L 177.512727 247.073976 
L 181.570909 246.435912 
L 185.629091 245.808432 
L 189.687273 245.193048 
L 193.745455 244.594296 
L 197.803636 244.010664 
L 201.861818 243.445176 
L 205.92 242.900856 
L 209.978182 242.377704 
L 214.036364 241.877232 
L 218.094545 241.400952 
L 222.152727 240.948864 
L 226.210909 240.52248 
L 230.269091 240.1218 
L 234.327273 239.746824 
L 238.385455 239.397552 
L 242.443636 239.075496 
L 246.501818 238.780656 
L 250.56 238.513032 
L 254.618182 238.271112 
L 258.676364 238.054896 
L 262.734545 237.865896 
L 266.792727 237.704112 
L 270.850909 237.568032 
L 274.909091 237.459168 
L 278.967273 237.376008 
L 283.025455 237.318552 
L 287.083636 237.2868 
L 291.141818 237.280752 
L 295.2 237.300408 
L 299.258182 237.345768 
L 303.316364 237.416832 
L 307.374545 237.512088 
L 311.432727 237.633048 
L 315.490909 237.7782 
L 319.549091 237.947544 
L 323.607273 238.14108 
L 327.665455 238.358808 
L 331.723636 238.600728 
L 335.781818 238.86684 
L 339.84 239.155632 
L 343.898182 239.468616 
L 347.956364 239.805792 
L 352.014545 240.165648 
L 356.072727 240.549696 
L 360.130909 240.956424 
L 364.189091 241.387344 
L 368.247273 241.839432 
L 372.305455 242.3142 
L 376.363636 242.810136 
L 380.421818 243.328752 
L 384.48 243.865512 
L 388.538182 244.42344 
L 392.596364 244.998 
L 396.654545 245.589192 
L 400.712727 246.195504 
L 404.770909 246.813912 
L 408.829091 247.444416 
L 412.887273 248.083992 
L 416.945455 248.729616 
L 421.003636 249.378264 
L 425.061818 250.028424 
L 429.12 250.677072 
L 433.178182 251.321184 
L 437.236364 251.956224 
L 441.294545 252.58068 
L 445.352727 253.188504 
L 449.410909 253.778184 
L 453.469091 254.343672 
L 457.527273 254.880432 
L 461.585455 255.386952 
L 465.643636 255.855672 
L 469.701818 256.283568 
L 473.76 256.666104 
L 477.818182 256.997232 
L 481.876364 257.27544 
L 485.934545 257.496192 
L 489.992727 257.656464 
L 494.050909 257.753232 
L 498.109091 257.784984 
" clip-path="url(#pcf6f281cd7)" style="fill: none; stroke: #000000; stroke-opacity: 0.5; stroke-linecap: square"/>
   </g>
   <g id="line2d_19">
    <path d="M 92.290909 234.02088 
L 96.349091 234.016344 
L 100.407273 233.999712 
L 104.465455 233.974008 
L 108.523636 233.936208 
L 112.581818 233.889336 
L 116.64 233.83188 
L 120.698182 233.76384 
L 124.756364 233.685216 
L 128.814545 233.596008 
L 132.872727 233.496216 
L 136.930909 233.38584 
L 140.989091 233.26488 
L 145.047273 233.134848 
L 149.105455 232.99272 
L 153.163636 232.84152 
L 157.221818 232.679736 
L 161.28 232.50888 
L 165.338182 232.32744 
L 169.396364 232.136928 
L 173.454545 231.935832 
L 177.512727 231.727176 
L 181.570909 231.509448 
L 185.629091 231.282648 
L 189.687273 231.0498 
L 193.745455 230.809392 
L 197.803636 230.564448 
L 201.861818 230.311944 
L 205.92 230.057928 
L 209.978182 229.799376 
L 214.036364 229.540824 
L 218.094545 229.282272 
L 222.152727 229.025232 
L 226.210909 228.769704 
L 230.269091 228.520224 
L 234.327273 228.276792 
L 238.385455 228.04092 
L 242.443636 227.815632 
L 246.501818 227.599416 
L 250.56 227.396808 
L 254.618182 227.207808 
L 258.676364 227.032416 
L 262.734545 226.872144 
L 266.792727 226.730016 
L 270.850909 226.603008 
L 274.909091 226.494144 
L 278.967273 226.404936 
L 283.025455 226.333872 
L 287.083636 226.280952 
L 291.141818 226.247688 
L 295.2 226.235592 
L 299.258182 226.24164 
L 303.316364 226.268856 
L 307.374545 226.315728 
L 311.432727 226.382256 
L 315.490909 226.469952 
L 319.549091 226.577304 
L 323.607273 226.704312 
L 327.665455 226.850976 
L 331.723636 227.015784 
L 335.781818 227.197224 
L 339.84 227.396808 
L 343.898182 227.611512 
L 347.956364 227.841336 
L 352.014545 228.084768 
L 356.072727 228.338784 
L 360.130909 228.601872 
L 364.189091 228.874032 
L 368.247273 229.15224 
L 372.305455 229.436496 
L 376.363636 229.720752 
L 380.421818 230.008032 
L 384.48 230.2938 
L 388.538182 230.576544 
L 392.596364 230.856264 
L 396.654545 231.131448 
L 400.712727 231.399072 
L 404.770909 231.660648 
L 408.829091 231.913152 
L 412.887273 232.156584 
L 416.945455 232.392456 
L 421.003636 232.616232 
L 425.061818 232.830936 
L 429.12 233.033544 
L 433.178182 233.225568 
L 437.236364 233.407008 
L 441.294545 233.576352 
L 445.352727 233.735112 
L 449.410909 233.880264 
L 453.469091 234.016344 
L 457.527273 234.138816 
L 461.585455 234.250704 
L 465.643636 234.348984 
L 469.701818 234.438192 
L 473.76 234.513792 
L 477.818182 234.577296 
L 481.876364 234.630216 
L 485.934545 234.67104 
L 489.992727 234.70128 
L 494.050909 234.717912 
L 498.109091 234.72396 
" clip-path="url(#pcf6f281cd7)" style="fill: none; stroke: #000000; stroke-opacity: 0.5; stroke-linecap: square"/>
   </g>
   <g id="line2d_20">
    <path d="M 92.290909 156.2058 
L 96.349091 156.278376 
L 100.407273 156.491568 
L 104.465455 156.83328 
L 108.523636 157.27932 
L 112.581818 157.810032 
L 116.64 158.404248 
L 120.698182 159.045336 
L 124.756364 159.718176 
L 128.814545 160.410672 
L 132.872727 161.113752 
L 136.930909 161.819856 
L 140.989091 162.524448 
L 145.047273 163.219968 
L 149.105455 163.903392 
L 153.163636 164.571696 
L 157.221818 165.220344 
L 161.28 165.849336 
L 165.338182 166.452624 
L 169.396364 167.03172 
L 173.454545 167.582088 
L 177.512727 168.102216 
L 181.570909 168.592104 
L 185.629091 169.047216 
L 189.687273 169.469064 
L 193.745455 169.854624 
L 197.803636 170.203896 
L 201.861818 170.513856 
L 205.92 170.782992 
L 209.978182 171.014328 
L 214.036364 171.203328 
L 218.094545 171.349992 
L 222.152727 171.455832 
L 226.210909 171.519336 
L 230.269091 171.542016 
L 234.327273 171.523872 
L 238.385455 171.467928 
L 242.443636 171.372672 
L 246.501818 171.244152 
L 250.56 171.08388 
L 254.618182 170.896392 
L 258.676364 170.686224 
L 262.734545 170.460936 
L 266.792727 170.226576 
L 270.850909 169.993728 
L 274.909091 169.772976 
L 278.967273 169.573392 
L 283.025455 169.410096 
L 287.083636 169.29216 
L 291.141818 169.227144 
L 295.2 169.222608 
L 299.258182 169.27704 
L 303.316364 169.385904 
L 307.374545 169.54164 
L 311.432727 169.733664 
L 315.490909 169.948368 
L 319.549091 170.17668 
L 323.607273 170.408016 
L 327.665455 170.63028 
L 331.723636 170.838936 
L 335.781818 171.024912 
L 339.84 171.183672 
L 343.898182 171.31068 
L 347.956364 171.404424 
L 352.014545 171.460368 
L 356.072727 171.477 
L 360.130909 171.452808 
L 364.189091 171.387792 
L 368.247273 171.28044 
L 372.305455 171.130752 
L 376.363636 170.94024 
L 380.421818 170.707392 
L 384.48 170.43372 
L 388.538182 170.122248 
L 392.596364 169.769952 
L 396.654545 169.381368 
L 400.712727 168.954984 
L 404.770909 168.493824 
L 408.829091 168.000912 
L 412.887273 167.473224 
L 416.945455 166.916808 
L 421.003636 166.331664 
L 425.061818 165.717792 
L 429.12 165.079728 
L 433.178182 164.418984 
L 437.236364 163.737072 
L 441.294545 163.037016 
L 445.352727 162.32184 
L 449.410909 161.594568 
L 453.469091 160.858224 
L 457.527273 160.120368 
L 461.585455 159.385536 
L 465.643636 158.659776 
L 469.701818 157.955184 
L 473.76 157.282344 
L 477.818182 156.654864 
L 481.876364 156.093912 
L 485.934545 155.619144 
L 489.992727 155.256264 
L 494.050909 155.027952 
L 498.109091 154.949328 
" clip-path="url(#pcf6f281cd7)" style="fill: none; stroke: #000000; stroke-opacity: 0.5; stroke-linecap: square"/>
   </g>
   <g id="line2d_21">
    <path d="M 92.290909 148.67604 
L 96.349091 148.674528 
L 100.407273 148.666968 
L 104.465455 148.656384 
L 108.523636 148.639752 
L 112.581818 148.618584 
L 116.64 148.594392 
L 120.698182 148.565664 
L 124.756364 148.5324 
L 128.814545 148.496112 
L 132.872727 148.455288 
L 136.930909 148.412952 
L 140.989091 148.36608 
L 145.047273 148.319208 
L 149.105455 148.2678 
L 153.163636 148.216392 
L 157.221818 148.164984 
L 161.28 148.112064 
L 165.338182 148.060656 
L 169.396364 148.01076 
L 173.454545 147.963888 
L 177.512727 147.92004 
L 181.570909 147.88224 
L 185.629091 147.852 
L 189.687273 147.82932 
L 193.745455 147.818736 
L 197.803636 147.823272 
L 201.861818 147.84444 
L 205.92 147.888288 
L 209.978182 147.95784 
L 214.036364 148.062168 
L 218.094545 148.205808 
L 222.152727 148.39632 
L 226.210909 148.641264 
L 230.269091 148.9482 
L 234.327273 149.323176 
L 238.385455 149.763168 
L 242.443636 150.268176 
L 246.501818 150.826104 
L 250.56 151.424856 
L 254.618182 152.049312 
L 258.676364 152.68284 
L 262.734545 153.308808 
L 266.792727 153.910584 
L 270.850909 154.470024 
L 274.909091 154.970496 
L 278.967273 155.398392 
L 283.025455 155.73708 
L 287.083636 155.972952 
L 291.141818 156.095424 
L 295.2 156.09996 
L 299.258182 155.985048 
L 303.316364 155.755224 
L 307.374545 155.422584 
L 311.432727 154.999224 
L 315.490909 154.500264 
L 319.549091 153.942336 
L 323.607273 153.34056 
L 327.665455 152.714592 
L 331.723636 152.079552 
L 335.781818 151.455096 
L 339.84 150.859368 
L 343.898182 150.309 
L 347.956364 149.8176 
L 352.014545 149.395752 
L 356.072727 149.044968 
L 360.130909 148.76676 
L 364.189091 148.552056 
L 368.247273 148.393296 
L 372.305455 148.28292 
L 376.363636 148.210344 
L 380.421818 148.171032 
L 384.48 148.157424 
L 388.538182 148.164984 
L 392.596364 148.187664 
L 396.654545 148.223952 
L 400.712727 148.270824 
L 404.770909 148.325256 
L 408.829091 148.385736 
L 412.887273 148.450752 
L 416.945455 148.518792 
L 421.003636 148.588344 
L 425.061818 148.657896 
L 429.12 148.72896 
L 433.178182 148.798512 
L 437.236364 148.86504 
L 441.294545 148.931568 
L 445.352727 148.99356 
L 449.410909 149.05404 
L 453.469091 149.109984 
L 457.527273 149.162904 
L 461.585455 149.211288 
L 465.643636 149.256648 
L 469.701818 149.29596 
L 473.76 149.330736 
L 477.818182 149.359464 
L 481.876364 149.383656 
L 485.934545 149.403312 
L 489.992727 149.41692 
L 494.050909 149.425992 
L 498.109091 149.427504 
" clip-path="url(#pcf6f281cd7)" style="fill: none; stroke: #000000; stroke-opacity: 0.5; stroke-linecap: square"/>
   </g>
   <g id="line2d_22">
    <path d="M 92.290909 141.280848 
L 96.349091 141.188616 
L 100.407273 140.916456 
L 104.465455 140.479488 
L 108.523636 139.89888 
L 112.581818 139.194288 
L 116.64 138.38688 
L 120.698182 137.4948 
L 124.756364 136.530144 
L 128.814545 135.508032 
L 132.872727 134.434512 
L 136.930909 133.318656 
L 140.989091 132.168024 
L 145.047273 130.987152 
L 149.105455 129.780576 
L 153.163636 128.555856 
L 157.221818 127.323576 
L 161.28 126.104904 
L 165.338182 124.973928 
L 169.396364 124.243632 
L 173.454545 124.570224 
L 177.512727 125.54244 
L 181.570909 126.670392 
L 185.629091 127.839168 
L 189.687273 129.017016 
L 193.745455 130.188816 
L 197.803636 131.347008 
L 201.861818 132.48252 
L 205.92 133.589304 
L 209.978182 134.661312 
L 214.036364 135.689472 
L 218.094545 136.666224 
L 222.152727 137.580984 
L 226.210909 138.42468 
L 230.269091 139.18824 
L 234.327273 139.864104 
L 238.385455 140.449248 
L 242.443636 140.945184 
L 246.501818 141.356448 
L 250.56 141.693624 
L 254.618182 141.964272 
L 258.676364 142.180488 
L 262.734545 142.352856 
L 266.792727 142.490448 
L 270.850909 142.5978 
L 274.909091 142.682472 
L 278.967273 142.750512 
L 283.025455 142.80192 
L 287.083636 142.841232 
L 291.141818 142.868448 
L 295.2 142.88508 
L 299.258182 142.891128 
L 303.316364 142.886592 
L 307.374545 142.86996 
L 311.432727 142.836696 
L 315.490909 142.7868 
L 319.549091 142.712712 
L 323.607273 142.609896 
L 327.665455 142.46928 
L 331.723636 142.283304 
L 335.781818 142.039872 
L 339.84 141.7284 
L 343.898182 141.333768 
L 347.956364 140.849928 
L 352.014545 140.26932 
L 356.072727 139.591944 
L 360.130909 138.820824 
L 364.189091 137.966544 
L 368.247273 137.036664 
L 372.305455 136.044792 
L 376.363636 135 
L 380.421818 133.91136 
L 384.48 132.78492 
L 388.538182 131.631264 
L 392.596364 130.453416 
L 396.654545 129.257424 
L 400.712727 128.050848 
L 404.770909 126.841248 
L 408.829091 125.642232 
L 412.887273 124.48404 
L 416.945455 123.484608 
L 421.003636 123.150456 
L 425.061818 123.907968 
L 429.12 125.060112 
L 433.178182 126.293904 
L 437.236364 127.541304 
L 441.294545 128.779632 
L 445.352727 130.00284 
L 449.410909 131.200344 
L 453.469091 132.36912 
L 457.527273 133.50312 
L 461.585455 134.596296 
L 465.643636 135.641088 
L 469.701818 136.626912 
L 473.76 137.544696 
L 477.818182 138.377808 
L 481.876364 139.106592 
L 485.934545 139.712904 
L 489.992727 140.168016 
L 494.050909 140.453784 
L 498.109091 140.550552 
" clip-path="url(#pcf6f281cd7)" style="fill: none; stroke: #000000; stroke-opacity: 0.5; stroke-linecap: square"/>
   </g>
   <g id="line2d_23">
    <path d="M 92.290909 105.398064 
L 96.349091 105.479712 
L 100.407273 105.723144 
L 104.465455 106.117776 
L 108.523636 106.653024 
L 112.581818 107.310744 
L 116.64 108.077328 
L 120.698182 108.936144 
L 124.756364 109.872072 
L 128.814545 110.871504 
L 132.872727 111.923856 
L 136.930909 113.018544 
L 140.989091 114.148008 
L 145.047273 115.303176 
L 149.105455 116.476488 
L 153.163636 117.658872 
L 157.221818 118.83672 
L 161.28 119.988864 
L 165.338182 121.041216 
L 169.396364 121.673232 
L 173.454545 121.23324 
L 177.512727 120.127968 
L 181.570909 118.84428 
L 185.629091 117.495576 
L 189.687273 116.112096 
L 193.745455 114.707448 
L 197.803636 113.283144 
L 201.861818 111.846744 
L 205.92 110.39976 
L 209.978182 108.942192 
L 214.036364 107.475552 
L 218.094545 106.004376 
L 222.152727 104.528664 
L 226.210909 103.049928 
L 230.269091 101.56968 
L 234.327273 100.092456 
L 238.385455 98.618256 
L 242.443636 97.150104 
L 246.501818 95.694048 
L 250.56 94.250088 
L 254.618182 92.827296 
L 258.676364 91.430208 
L 262.734545 90.066384 
L 266.792727 88.746408 
L 270.850909 87.483888 
L 274.909091 86.295456 
L 278.967273 85.205304 
L 283.025455 84.246696 
L 287.083636 83.464992 
L 291.141818 82.913112 
L 295.2 82.647 
L 299.258182 82.69992 
L 303.316364 83.061288 
L 307.374545 83.688768 
L 311.432727 84.526416 
L 315.490909 85.522824 
L 319.549091 86.640192 
L 323.607273 87.846768 
L 327.665455 89.122896 
L 331.723636 90.450432 
L 335.781818 91.820304 
L 339.84 93.220416 
L 343.898182 94.646232 
L 347.956364 96.08868 
L 352.014545 97.544736 
L 356.072727 99.009864 
L 360.130909 100.482552 
L 364.189091 101.956752 
L 368.247273 103.432464 
L 372.305455 104.908176 
L 376.363636 106.379352 
L 380.421818 107.845992 
L 384.48 109.305072 
L 388.538182 110.75508 
L 392.596364 112.196016 
L 396.654545 113.623344 
L 400.712727 115.035552 
L 404.770909 116.42508 
L 408.829091 117.782856 
L 412.887273 119.077128 
L 416.945455 120.194496 
L 421.003636 120.629952 
L 425.061818 119.957112 
L 429.12 118.87452 
L 433.178182 117.699696 
L 437.236364 116.499168 
L 441.294545 115.297128 
L 445.352727 114.10416 
L 449.410909 112.930848 
L 453.469091 111.78324 
L 457.527273 110.670408 
L 461.585455 109.599912 
L 465.643636 108.582336 
L 469.701818 107.628264 
L 473.76 106.752816 
L 477.818182 105.971112 
L 481.876364 105.29676 
L 485.934545 104.749416 
L 489.992727 104.3442 
L 494.050909 104.09472 
L 498.109091 104.01156 
" clip-path="url(#pcf6f281cd7)" style="fill: none; stroke: #000000; stroke-opacity: 0.5; stroke-linecap: square"/>
   </g>
   <g id="patch_3">
    <path d="M 72 384.48 
L 72 51.84 
" style="fill: none; stroke: #000000; stroke-width: 0.8; stroke-linejoin: miter; stroke-linecap: square"/>
   </g>
   <g id="patch_4">
    <path d="M 518.4 384.48 
L 518.4 51.84 
" style="fill: none; stroke: #000000; stroke-width: 0.8; stroke-linejoin: miter; stroke-linecap: square"/>
   </g>
   <g id="patch_5">
    <path d="M 72 384.48 
L 518.4 384.48 
" style="fill: none; stroke: #000000; stroke-width: 0.8; stroke-linejoin: miter; stroke-linecap: square"/>
   </g>
   <g id="patch_6">
    <path d="M 72 51.84 
L 518.4 51.84 
" style="fill: none; stroke: #000000; stroke-width: 0.8; stroke-linejoin: miter; stroke-linecap: square"/>
   </g>
  </g>
 </g>
 <defs>
  <clipPath id="pcf6f281cd7">
   <rect x="72" y="51.84" width="446.4" height="332.64"/>
  </clipPath>
 </defs>
</svg>
