<?xml version="1.0" encoding="utf-8" standalone="no"?>
<!DOCTYPE svg PUBLIC "-//W3C//DTD SVG 1.1//EN"
  "http://www.w3.org/Graphics/SVG/1.1/DTD/svg11.dtd">
<svg xmlns:xlink="http://www.w3.org/1999/xlink" width="576pt" height="432pt" viewBox="0 0 576 432" xmlns="http://www.w3.org/2000/svg" version="1.1">
 <metadata>
  <rdf:RDF xmlns:dc="http://purl.org/dc/elements/1.1/" xmlns:cc="http://creativecommons.org/ns#" xmlns:rdf="http://www.w3.org/1999/02/22-rdf-syntax-ns#">
   <cc:Work>
    <dc:type rdf:resource="http://purl.org/dc/dcmitype/StillImage"/>
    <dc:date>2023-05-03T01:53:11.865911</dc:date>
    <dc:format>image/svg+xml</dc:format>
    <dc:creator>
     <cc:Agent>
      <dc:title>Matplotlib v3.7.1, https://matplotlib.org/</dc:title>
     </cc:Agent>
    </dc:creator>
   </cc:Work>
  </rdf:RDF>
 </metadata>
 <defs>
  <style type="text/css">*{stroke-linejoin: round; stroke-linecap: butt}</style>
 </defs>
 <g id="figure_1">
  <g id="patch_1">
   <path d="M 0 432 
L 576 432 
L 576 0 
L 0 0 
z
" style="fill: #ffffff"/>
  </g>
  <g id="axes_1">
   <g id="patch_2">
    <path d="M 72 384.48 
L 518.4 384.48 
L 518.4 51.84 
L 72 51.84 
z
" style="fill: #ffffff"/>
   </g>
   <g id="matplotlib.axis_1">
    <g id="xtick_1">
     <g id="line2d_1">
      <defs>
       <path id="mb4218877f8" d="M 0 0 
L 0 3.5 
" style="stroke: #000000; stroke-width: 0.8"/>
      </defs>
      <g>
       <use xlink:href="#mb4218877f8" x="92.290909" y="384.48" style="stroke: #000000; stroke-width: 0.8"/>
      </g>
     </g>
     <g id="text_1">
      <!-- 0.0 -->
      <g transform="translate(84.339347 399.078438) scale(0.1 -0.1)">
       <defs>
        <path id="DejaVuSans-30" d="M 2034 4250 
Q 1547 4250 1301 3770 
Q 1056 3291 1056 2328 
Q 1056 1369 1301 889 
Q 1547 409 2034 409 
Q 2525 409 2770 889 
Q 3016 1369 3016 2328 
Q 3016 3291 2770 3770 
Q 2525 4250 2034 4250 
z
M 2034 4750 
Q 2819 4750 3233 4129 
Q 3647 3509 3647 2328 
Q 3647 1150 3233 529 
Q 2819 -91 2034 -91 
Q 1250 -91 836 529 
Q 422 1150 422 2328 
Q 422 3509 836 4129 
Q 1250 4750 2034 4750 
z
" transform="scale(0.015625)"/>
        <path id="DejaVuSans-2e" d="M 684 794 
L 1344 794 
L 1344 0 
L 684 0 
L 684 794 
z
" transform="scale(0.015625)"/>
       </defs>
       <use xlink:href="#DejaVuSans-30"/>
       <use xlink:href="#DejaVuSans-2e" x="63.623047"/>
       <use xlink:href="#DejaVuSans-30" x="95.410156"/>
      </g>
     </g>
    </g>
    <g id="xtick_2">
     <g id="line2d_2">
      <g>
       <use xlink:href="#mb4218877f8" x="173.454545" y="384.48" style="stroke: #000000; stroke-width: 0.8"/>
      </g>
     </g>
     <g id="text_2">
      <!-- 0.2 -->
      <g transform="translate(165.502983 399.078438) scale(0.1 -0.1)">
       <defs>
        <path id="DejaVuSans-32" d="M 1228 531 
L 3431 531 
L 3431 0 
L 469 0 
L 469 531 
Q 828 903 1448 1529 
Q 2069 2156 2228 2338 
Q 2531 2678 2651 2914 
Q 2772 3150 2772 3378 
Q 2772 3750 2511 3984 
Q 2250 4219 1831 4219 
Q 1534 4219 1204 4116 
Q 875 4013 500 3803 
L 500 4441 
Q 881 4594 1212 4672 
Q 1544 4750 1819 4750 
Q 2544 4750 2975 4387 
Q 3406 4025 3406 3419 
Q 3406 3131 3298 2873 
Q 3191 2616 2906 2266 
Q 2828 2175 2409 1742 
Q 1991 1309 1228 531 
z
" transform="scale(0.015625)"/>
       </defs>
       <use xlink:href="#DejaVuSans-30"/>
       <use xlink:href="#DejaVuSans-2e" x="63.623047"/>
       <use xlink:href="#DejaVuSans-32" x="95.410156"/>
      </g>
     </g>
    </g>
    <g id="xtick_3">
     <g id="line2d_3">
      <g>
       <use xlink:href="#mb4218877f8" x="254.618182" y="384.48" style="stroke: #000000; stroke-width: 0.8"/>
      </g>
     </g>
     <g id="text_3">
      <!-- 0.4 -->
      <g transform="translate(246.666619 399.078438) scale(0.1 -0.1)">
       <defs>
        <path id="DejaVuSans-34" d="M 2419 4116 
L 825 1625 
L 2419 1625 
L 2419 4116 
z
M 2253 4666 
L 3047 4666 
L 3047 1625 
L 3713 1625 
L 3713 1100 
L 3047 1100 
L 3047 0 
L 2419 0 
L 2419 1100 
L 313 1100 
L 313 1709 
L 2253 4666 
z
" transform="scale(0.015625)"/>
       </defs>
       <use xlink:href="#DejaVuSans-30"/>
       <use xlink:href="#DejaVuSans-2e" x="63.623047"/>
       <use xlink:href="#DejaVuSans-34" x="95.410156"/>
      </g>
     </g>
    </g>
    <g id="xtick_4">
     <g id="line2d_4">
      <g>
       <use xlink:href="#mb4218877f8" x="335.781818" y="384.48" style="stroke: #000000; stroke-width: 0.8"/>
      </g>
     </g>
     <g id="text_4">
      <!-- 0.6 -->
      <g transform="translate(327.830256 399.078438) scale(0.1 -0.1)">
       <defs>
        <path id="DejaVuSans-36" d="M 2113 2584 
Q 1688 2584 1439 2293 
Q 1191 2003 1191 1497 
Q 1191 994 1439 701 
Q 1688 409 2113 409 
Q 2538 409 2786 701 
Q 3034 994 3034 1497 
Q 3034 2003 2786 2293 
Q 2538 2584 2113 2584 
z
M 3366 4563 
L 3366 3988 
Q 3128 4100 2886 4159 
Q 2644 4219 2406 4219 
Q 1781 4219 1451 3797 
Q 1122 3375 1075 2522 
Q 1259 2794 1537 2939 
Q 1816 3084 2150 3084 
Q 2853 3084 3261 2657 
Q 3669 2231 3669 1497 
Q 3669 778 3244 343 
Q 2819 -91 2113 -91 
Q 1303 -91 875 529 
Q 447 1150 447 2328 
Q 447 3434 972 4092 
Q 1497 4750 2381 4750 
Q 2619 4750 2861 4703 
Q 3103 4656 3366 4563 
z
" transform="scale(0.015625)"/>
       </defs>
       <use xlink:href="#DejaVuSans-30"/>
       <use xlink:href="#DejaVuSans-2e" x="63.623047"/>
       <use xlink:href="#DejaVuSans-36" x="95.410156"/>
      </g>
     </g>
    </g>
    <g id="xtick_5">
     <g id="line2d_5">
      <g>
       <use xlink:href="#mb4218877f8" x="416.945455" y="384.48" style="stroke: #000000; stroke-width: 0.8"/>
      </g>
     </g>
     <g id="text_5">
      <!-- 0.8 -->
      <g transform="translate(408.993892 399.078438) scale(0.1 -0.1)">
       <defs>
        <path id="DejaVuSans-38" d="M 2034 2216 
Q 1584 2216 1326 1975 
Q 1069 1734 1069 1313 
Q 1069 891 1326 650 
Q 1584 409 2034 409 
Q 2484 409 2743 651 
Q 3003 894 3003 1313 
Q 3003 1734 2745 1975 
Q 2488 2216 2034 2216 
z
M 1403 2484 
Q 997 2584 770 2862 
Q 544 3141 544 3541 
Q 544 4100 942 4425 
Q 1341 4750 2034 4750 
Q 2731 4750 3128 4425 
Q 3525 4100 3525 3541 
Q 3525 3141 3298 2862 
Q 3072 2584 2669 2484 
Q 3125 2378 3379 2068 
Q 3634 1759 3634 1313 
Q 3634 634 3220 271 
Q 2806 -91 2034 -91 
Q 1263 -91 848 271 
Q 434 634 434 1313 
Q 434 1759 690 2068 
Q 947 2378 1403 2484 
z
M 1172 3481 
Q 1172 3119 1398 2916 
Q 1625 2713 2034 2713 
Q 2441 2713 2670 2916 
Q 2900 3119 2900 3481 
Q 2900 3844 2670 4047 
Q 2441 4250 2034 4250 
Q 1625 4250 1398 4047 
Q 1172 3844 1172 3481 
z
" transform="scale(0.015625)"/>
       </defs>
       <use xlink:href="#DejaVuSans-30"/>
       <use xlink:href="#DejaVuSans-2e" x="63.623047"/>
       <use xlink:href="#DejaVuSans-38" x="95.410156"/>
      </g>
     </g>
    </g>
    <g id="xtick_6">
     <g id="line2d_6">
      <g>
       <use xlink:href="#mb4218877f8" x="498.109091" y="384.48" style="stroke: #000000; stroke-width: 0.8"/>
      </g>
     </g>
     <g id="text_6">
      <!-- 1.0 -->
      <g transform="translate(490.157528 399.078438) scale(0.1 -0.1)">
       <defs>
        <path id="DejaVuSans-31" d="M 794 531 
L 1825 531 
L 1825 4091 
L 703 3866 
L 703 4441 
L 1819 4666 
L 2450 4666 
L 2450 531 
L 3481 531 
L 3481 0 
L 794 0 
L 794 531 
z
" transform="scale(0.015625)"/>
       </defs>
       <use xlink:href="#DejaVuSans-31"/>
       <use xlink:href="#DejaVuSans-2e" x="63.623047"/>
       <use xlink:href="#DejaVuSans-30" x="95.410156"/>
      </g>
     </g>
    </g>
   </g>
   <g id="matplotlib.axis_2">
    <g id="ytick_1">
     <g id="line2d_7">
      <defs>
       <path id="m6646986865" d="M 0 0 
L -3.5 0 
" style="stroke: #000000; stroke-width: 0.8"/>
      </defs>
      <g>
       <use xlink:href="#m6646986865" x="72" y="369.36" style="stroke: #000000; stroke-width: 0.8"/>
      </g>
     </g>
     <g id="text_7">
      <!-- −5.0 -->
      <g transform="translate(40.717187 373.159219) scale(0.1 -0.1)">
       <defs>
        <path id="DejaVuSans-2212" d="M 678 2272 
L 4684 2272 
L 4684 1741 
L 678 1741 
L 678 2272 
z
" transform="scale(0.015625)"/>
        <path id="DejaVuSans-35" d="M 691 4666 
L 3169 4666 
L 3169 4134 
L 1269 4134 
L 1269 2991 
Q 1406 3038 1543 3061 
Q 1681 3084 1819 3084 
Q 2600 3084 3056 2656 
Q 3513 2228 3513 1497 
Q 3513 744 3044 326 
Q 2575 -91 1722 -91 
Q 1428 -91 1123 -41 
Q 819 9 494 109 
L 494 744 
Q 775 591 1075 516 
Q 1375 441 1709 441 
Q 2250 441 2565 725 
Q 2881 1009 2881 1497 
Q 2881 1984 2565 2268 
Q 2250 2553 1709 2553 
Q 1456 2553 1204 2497 
Q 953 2441 691 2322 
L 691 4666 
z
" transform="scale(0.015625)"/>
       </defs>
       <use xlink:href="#DejaVuSans-2212"/>
       <use xlink:href="#DejaVuSans-35" x="83.789062"/>
       <use xlink:href="#DejaVuSans-2e" x="147.412109"/>
       <use xlink:href="#DejaVuSans-30" x="179.199219"/>
      </g>
     </g>
    </g>
    <g id="ytick_2">
     <g id="line2d_8">
      <g>
       <use xlink:href="#m6646986865" x="72" y="331.56" style="stroke: #000000; stroke-width: 0.8"/>
      </g>
     </g>
     <g id="text_8">
      <!-- −2.5 -->
      <g transform="translate(40.717187 335.359219) scale(0.1 -0.1)">
       <use xlink:href="#DejaVuSans-2212"/>
       <use xlink:href="#DejaVuSans-32" x="83.789062"/>
       <use xlink:href="#DejaVuSans-2e" x="147.412109"/>
       <use xlink:href="#DejaVuSans-35" x="179.199219"/>
      </g>
     </g>
    </g>
    <g id="ytick_3">
     <g id="line2d_9">
      <g>
       <use xlink:href="#m6646986865" x="72" y="293.76" style="stroke: #000000; stroke-width: 0.8"/>
      </g>
     </g>
     <g id="text_9">
      <!-- 0.0 -->
      <g transform="translate(49.096875 297.559219) scale(0.1 -0.1)">
       <use xlink:href="#DejaVuSans-30"/>
       <use xlink:href="#DejaVuSans-2e" x="63.623047"/>
       <use xlink:href="#DejaVuSans-30" x="95.410156"/>
      </g>
     </g>
    </g>
    <g id="ytick_4">
     <g id="line2d_10">
      <g>
       <use xlink:href="#m6646986865" x="72" y="255.96" style="stroke: #000000; stroke-width: 0.8"/>
      </g>
     </g>
     <g id="text_10">
      <!-- 2.5 -->
      <g transform="translate(49.096875 259.759219) scale(0.1 -0.1)">
       <use xlink:href="#DejaVuSans-32"/>
       <use xlink:href="#DejaVuSans-2e" x="63.623047"/>
       <use xlink:href="#DejaVuSans-35" x="95.410156"/>
      </g>
     </g>
    </g>
    <g id="ytick_5">
     <g id="line2d_11">
      <g>
       <use xlink:href="#m6646986865" x="72" y="218.16" style="stroke: #000000; stroke-width: 0.8"/>
      </g>
     </g>
     <g id="text_11">
      <!-- 5.0 -->
      <g transform="translate(49.096875 221.959219) scale(0.1 -0.1)">
       <use xlink:href="#DejaVuSans-35"/>
       <use xlink:href="#DejaVuSans-2e" x="63.623047"/>
       <use xlink:href="#DejaVuSans-30" x="95.410156"/>
      </g>
     </g>
    </g>
    <g id="ytick_6">
     <g id="line2d_12">
      <g>
       <use xlink:href="#m6646986865" x="72" y="180.36" style="stroke: #000000; stroke-width: 0.8"/>
      </g>
     </g>
     <g id="text_12">
      <!-- 7.5 -->
      <g transform="translate(49.096875 184.159219) scale(0.1 -0.1)">
       <defs>
        <path id="DejaVuSans-37" d="M 525 4666 
L 3525 4666 
L 3525 4397 
L 1831 0 
L 1172 0 
L 2766 4134 
L 525 4134 
L 525 4666 
z
" transform="scale(0.015625)"/>
       </defs>
       <use xlink:href="#DejaVuSans-37"/>
       <use xlink:href="#DejaVuSans-2e" x="63.623047"/>
       <use xlink:href="#DejaVuSans-35" x="95.410156"/>
      </g>
     </g>
    </g>
    <g id="ytick_7">
     <g id="line2d_13">
      <g>
       <use xlink:href="#m6646986865" x="72" y="142.56" style="stroke: #000000; stroke-width: 0.8"/>
      </g>
     </g>
     <g id="text_13">
      <!-- 10.0 -->
      <g transform="translate(42.734375 146.359219) scale(0.1 -0.1)">
       <use xlink:href="#DejaVuSans-31"/>
       <use xlink:href="#DejaVuSans-30" x="63.623047"/>
       <use xlink:href="#DejaVuSans-2e" x="127.246094"/>
       <use xlink:href="#DejaVuSans-30" x="159.033203"/>
      </g>
     </g>
    </g>
    <g id="ytick_8">
     <g id="line2d_14">
      <g>
       <use xlink:href="#m6646986865" x="72" y="104.76" style="stroke: #000000; stroke-width: 0.8"/>
      </g>
     </g>
     <g id="text_14">
      <!-- 12.5 -->
      <g transform="translate(42.734375 108.559219) scale(0.1 -0.1)">
       <use xlink:href="#DejaVuSans-31"/>
       <use xlink:href="#DejaVuSans-32" x="63.623047"/>
       <use xlink:href="#DejaVuSans-2e" x="127.246094"/>
       <use xlink:href="#DejaVuSans-35" x="159.033203"/>
      </g>
     </g>
    </g>
    <g id="ytick_9">
     <g id="line2d_15">
      <g>
       <use xlink:href="#m6646986865" x="72" y="66.96" style="stroke: #000000; stroke-width: 0.8"/>
      </g>
     </g>
     <g id="text_15">
      <!-- 15.0 -->
      <g transform="translate(42.734375 70.759219) scale(0.1 -0.1)">
       <use xlink:href="#DejaVuSans-31"/>
       <use xlink:href="#DejaVuSans-35" x="63.623047"/>
       <use xlink:href="#DejaVuSans-2e" x="127.246094"/>
       <use xlink:href="#DejaVuSans-30" x="159.033203"/>
      </g>
     </g>
    </g>
   </g>
   <g id="line2d_16">
    <path d="M 92.290909 333.589104 
L 96.349091 333.589104 
L 100.407273 333.587592 
L 104.465455 333.584568 
L 108.523636 333.581544 
L 112.581818 333.577008 
L 116.64 333.572472 
L 120.698182 333.567936 
L 124.756364 333.561888 
L 128.814545 333.55584 
L 132.872727 333.551304 
L 136.930909 333.546768 
L 140.989091 333.542232 
L 145.047273 333.539208 
L 149.105455 333.537696 
L 153.163636 333.539208 
L 157.221818 333.542232 
L 161.28 333.54828 
L 165.338182 333.557352 
L 169.396364 333.569448 
L 173.454545 333.587592 
L 177.512727 333.60876 
L 181.570909 333.635976 
L 185.629091 333.66924 
L 189.687273 333.708552 
L 193.745455 333.753912 
L 197.803636 333.806832 
L 201.861818 333.867312 
L 205.92 333.936864 
L 209.978182 334.013976 
L 214.036364 334.10016 
L 218.094545 334.195416 
L 222.152727 334.299744 
L 226.210909 334.413144 
L 230.269091 334.537128 
L 234.327273 334.671696 
L 238.385455 334.813824 
L 242.443636 334.968048 
L 246.501818 335.129832 
L 250.56 335.3022 
L 254.618182 335.48364 
L 258.676364 335.674152 
L 262.734545 335.873736 
L 266.792727 336.079368 
L 270.850909 336.295584 
L 274.909091 336.516336 
L 278.967273 336.74616 
L 283.025455 336.982032 
L 287.083636 337.22244 
L 291.141818 337.468896 
L 295.2 337.719888 
L 299.258182 337.973904 
L 303.316364 338.232456 
L 307.374545 338.494032 
L 311.432727 338.75712 
L 315.490909 339.023232 
L 319.549091 339.289344 
L 323.607273 339.556968 
L 327.665455 339.824592 
L 331.723636 340.092216 
L 335.781818 340.358328 
L 339.84 340.622928 
L 343.898182 340.886016 
L 347.956364 341.147592 
L 352.014545 341.406144 
L 356.072727 341.661672 
L 360.130909 341.914176 
L 364.189091 342.162144 
L 368.247273 342.405576 
L 372.305455 342.644472 
L 376.363636 342.880344 
L 380.421818 343.108656 
L 384.48 343.333944 
L 388.538182 343.551672 
L 392.596364 343.764864 
L 396.654545 343.970496 
L 400.712727 344.17008 
L 404.770909 344.363616 
L 408.829091 344.549592 
L 412.887273 344.72952 
L 416.945455 344.901888 
L 421.003636 345.066696 
L 425.061818 345.223944 
L 429.12 345.373632 
L 433.178182 345.51576 
L 437.236364 345.648816 
L 441.294545 345.774312 
L 445.352727 345.892248 
L 449.410909 346.001112 
L 453.469091 346.102416 
L 457.527273 346.194648 
L 461.585455 346.277808 
L 465.643636 346.353408 
L 469.701818 346.419936 
L 473.76 346.477392 
L 477.818182 346.525776 
L 481.876364 346.565088 
L 485.934545 346.59684 
L 489.992727 346.61952 
L 494.050909 346.633128 
L 498.109091 346.637664 
" clip-path="url(#pfdddb9dfad)" style="fill: none; stroke: #000000; stroke-opacity: 0.5; stroke-linecap: square"/>
   </g>
   <g id="line2d_17">
    <path d="M 92.290909 303.61824 
L 96.349091 303.622776 
L 100.407273 303.63336 
L 104.465455 303.653016 
L 108.523636 303.680232 
L 112.581818 303.715008 
L 116.64 303.757344 
L 120.698182 303.805728 
L 124.756364 303.861672 
L 128.814545 303.923664 
L 132.872727 303.991704 
L 136.930909 304.065792 
L 140.989091 304.144416 
L 145.047273 304.226064 
L 149.105455 304.312248 
L 153.163636 304.401456 
L 157.221818 304.493688 
L 161.28 304.58592 
L 165.338182 304.679664 
L 169.396364 304.771896 
L 173.454545 304.864128 
L 177.512727 304.953336 
L 181.570909 305.041032 
L 185.629091 305.12268 
L 189.687273 305.199792 
L 193.745455 305.270856 
L 197.803636 305.33436 
L 201.861818 305.388792 
L 205.92 305.435664 
L 209.978182 305.471952 
L 214.036364 305.496144 
L 218.094545 305.509752 
L 222.152727 305.509752 
L 226.210909 305.497656 
L 230.269091 305.47044 
L 234.327273 305.429616 
L 238.385455 305.37216 
L 242.443636 305.301096 
L 246.501818 305.2134 
L 250.56 305.109072 
L 254.618182 304.989624 
L 258.676364 304.853544 
L 262.734545 304.702344 
L 266.792727 304.533 
L 270.850909 304.350048 
L 274.909091 304.150464 
L 278.967273 303.93576 
L 283.025455 303.705936 
L 287.083636 303.460992 
L 291.141818 303.20244 
L 295.2 302.93028 
L 299.258182 302.644512 
L 303.316364 302.346648 
L 307.374545 302.036688 
L 311.432727 301.716144 
L 315.490909 301.385016 
L 319.549091 301.043304 
L 323.607273 300.69252 
L 327.665455 300.334176 
L 331.723636 299.96676 
L 335.781818 299.593296 
L 339.84 299.213784 
L 343.898182 298.829736 
L 347.956364 298.43964 
L 352.014545 298.04652 
L 356.072727 297.651888 
L 360.130909 297.254232 
L 364.189091 296.855064 
L 368.247273 296.455896 
L 372.305455 296.05824 
L 376.363636 295.662096 
L 380.421818 295.267464 
L 384.48 294.877368 
L 388.538182 294.491808 
L 392.596364 294.110784 
L 396.654545 293.735808 
L 400.712727 293.368392 
L 404.770909 293.008536 
L 408.829091 292.657752 
L 412.887273 292.317552 
L 416.945455 291.986424 
L 421.003636 291.667392 
L 425.061818 291.358944 
L 429.12 291.064104 
L 433.178182 290.782872 
L 437.236364 290.51676 
L 441.294545 290.264256 
L 445.352727 290.026872 
L 449.410909 289.804608 
L 453.469091 289.598976 
L 457.527273 289.409976 
L 461.585455 289.237608 
L 465.643636 289.083384 
L 469.701818 288.945792 
L 473.76 288.826344 
L 477.818182 288.72504 
L 481.876364 288.64188 
L 485.934545 288.576864 
L 489.992727 288.531504 
L 494.050909 288.502776 
L 498.109091 288.493704 
" clip-path="url(#pfdddb9dfad)" style="fill: none; stroke: #000000; stroke-opacity: 0.5; stroke-linecap: square"/>
   </g>
   <g id="line2d_18">
    <path d="M 92.290909 256.00536 
L 96.349091 256.06584 
L 100.407273 256.238208 
L 104.465455 256.501296 
L 108.523636 256.827888 
L 112.581818 257.19984 
L 116.64 257.595984 
L 120.698182 258.005736 
L 124.756364 258.418512 
L 128.814545 258.828264 
L 132.872727 259.231968 
L 136.930909 259.623576 
L 140.989091 260.001576 
L 145.047273 260.364456 
L 149.105455 260.709192 
L 153.163636 261.035784 
L 157.221818 261.341208 
L 161.28 261.626976 
L 165.338182 261.893088 
L 169.396364 262.13652 
L 173.454545 262.358784 
L 177.512727 262.558368 
L 181.570909 262.736784 
L 185.629091 262.894032 
L 189.687273 263.0286 
L 193.745455 263.142 
L 197.803636 263.234232 
L 201.861818 263.305296 
L 205.92 263.356704 
L 209.978182 263.386944 
L 214.036364 263.39904 
L 218.094545 263.39148 
L 222.152727 263.364264 
L 226.210909 263.320416 
L 230.269091 263.258424 
L 234.327273 263.1798 
L 238.385455 263.086056 
L 242.443636 262.97568 
L 246.501818 262.850184 
L 250.56 262.712592 
L 254.618182 262.55988 
L 258.676364 262.395072 
L 262.734545 262.21968 
L 266.792727 262.032192 
L 270.850909 261.83412 
L 274.909091 261.626976 
L 278.967273 261.41076 
L 283.025455 261.186984 
L 287.083636 260.955648 
L 291.141818 260.718264 
L 295.2 260.476344 
L 299.258182 260.228376 
L 303.316364 259.977384 
L 307.374545 259.723368 
L 311.432727 259.466328 
L 315.490909 259.207776 
L 319.549091 258.949224 
L 323.607273 258.68916 
L 327.665455 258.430608 
L 331.723636 258.170544 
L 335.781818 257.913504 
L 339.84 257.657976 
L 343.898182 257.402448 
L 347.956364 257.149944 
L 352.014545 256.898952 
L 356.072727 256.649472 
L 360.130909 256.401504 
L 364.189091 256.15656 
L 368.247273 255.910104 
L 372.305455 255.66516 
L 376.363636 255.420216 
L 380.421818 255.17376 
L 384.48 254.925792 
L 388.538182 254.6748 
L 392.596364 254.422296 
L 396.654545 254.163744 
L 400.712727 253.902168 
L 404.770909 253.634544 
L 408.829091 253.360872 
L 412.887273 253.07964 
L 416.945455 252.79236 
L 421.003636 252.496008 
L 425.061818 252.193608 
L 429.12 251.880624 
L 433.178182 251.561592 
L 437.236364 251.233488 
L 441.294545 250.897824 
L 445.352727 250.5546 
L 449.410909 250.205328 
L 453.469091 249.85152 
L 457.527273 249.494688 
L 461.585455 249.137856 
L 465.643636 248.781024 
L 469.701818 248.43024 
L 473.76 248.091552 
L 477.818182 247.769496 
L 481.876364 247.473144 
L 485.934545 247.217616 
L 489.992727 247.015008 
L 494.050909 246.884976 
L 498.109091 246.839616 
" clip-path="url(#pfdddb9dfad)" style="fill: none; stroke: #000000; stroke-opacity: 0.5; stroke-linecap: square"/>
   </g>
   <g id="line2d_19">
    <path d="M 92.290909 250.19928 
L 96.349091 250.128216 
L 100.407273 249.921072 
L 104.465455 249.600528 
L 108.523636 249.192288 
L 112.581818 248.720544 
L 116.64 248.201928 
L 120.698182 247.650048 
L 124.756364 247.075488 
L 128.814545 246.484296 
L 132.872727 245.885544 
L 136.930909 245.282256 
L 140.989091 244.677456 
L 145.047273 244.078704 
L 149.105455 243.487512 
L 153.163636 242.905392 
L 157.221818 242.338392 
L 161.28 241.788024 
L 165.338182 241.2558 
L 169.396364 240.746256 
L 173.454545 240.260904 
L 177.512727 239.802768 
L 181.570909 239.371848 
L 185.629091 238.971168 
L 189.687273 238.60224 
L 193.745455 238.265064 
L 197.803636 237.962664 
L 201.861818 237.693528 
L 205.92 237.457656 
L 209.978182 237.258072 
L 214.036364 237.09024 
L 218.094545 236.955672 
L 222.152727 236.852856 
L 226.210909 236.78028 
L 230.269091 236.736432 
L 234.327273 236.7198 
L 238.385455 236.72736 
L 242.443636 236.759112 
L 246.501818 236.812032 
L 250.56 236.883096 
L 254.618182 236.972304 
L 258.676364 237.07512 
L 262.734545 237.191544 
L 266.792727 237.31704 
L 270.850909 237.451608 
L 274.909091 237.592224 
L 278.967273 237.737376 
L 283.025455 237.885552 
L 287.083636 238.033728 
L 291.141818 238.181904 
L 295.2 238.327056 
L 299.258182 238.469184 
L 303.316364 238.605264 
L 307.374545 238.735296 
L 311.432727 238.857768 
L 315.490909 238.971168 
L 319.549091 239.075496 
L 323.607273 239.16924 
L 327.665455 239.2524 
L 331.723636 239.323464 
L 335.781818 239.383944 
L 339.84 239.432328 
L 343.898182 239.468616 
L 347.956364 239.492808 
L 352.014545 239.506416 
L 356.072727 239.510952 
L 360.130909 239.504904 
L 364.189091 239.489784 
L 368.247273 239.468616 
L 372.305455 239.4414 
L 376.363636 239.409648 
L 380.421818 239.374872 
L 384.48 239.340096 
L 388.538182 239.306832 
L 392.596364 239.276592 
L 396.654545 239.2524 
L 400.712727 239.235768 
L 404.770909 239.22972 
L 408.829091 239.234256 
L 412.887273 239.2524 
L 416.945455 239.287176 
L 421.003636 239.337072 
L 425.061818 239.408136 
L 429.12 239.497344 
L 433.178182 239.606208 
L 437.236364 239.737752 
L 441.294545 239.888952 
L 445.352727 240.062832 
L 449.410909 240.254856 
L 453.469091 240.468048 
L 457.527273 240.69636 
L 461.585455 240.941304 
L 465.643636 241.196832 
L 469.701818 241.45992 
L 473.76 241.72452 
L 477.818182 241.984584 
L 481.876364 242.229528 
L 485.934545 242.447256 
L 489.992727 242.621136 
L 494.050909 242.736048 
L 498.109091 242.77536 
" clip-path="url(#pfdddb9dfad)" style="fill: none; stroke: #000000; stroke-opacity: 0.5; stroke-linecap: square"/>
   </g>
   <g id="line2d_20">
    <path d="M 92.290909 172.591344 
L 96.349091 172.744056 
L 100.407273 173.153808 
L 104.465455 173.731392 
L 108.523636 174.401208 
L 112.581818 175.110336 
L 116.64 175.834584 
L 120.698182 176.552784 
L 124.756364 177.255864 
L 128.814545 177.934752 
L 132.872727 178.584912 
L 136.930909 179.200296 
L 140.989091 179.779392 
L 145.047273 180.317664 
L 149.105455 180.812088 
L 153.163636 181.261152 
L 157.221818 181.66032 
L 161.28 182.009592 
L 165.338182 182.304432 
L 169.396364 182.543328 
L 173.454545 182.724768 
L 177.512727 182.84724 
L 181.570909 182.909232 
L 185.629091 182.906208 
L 189.687273 182.841192 
L 193.745455 182.71116 
L 197.803636 182.5146 
L 201.861818 182.253024 
L 205.92 181.926432 
L 209.978182 181.533312 
L 214.036364 181.076688 
L 218.094545 180.555048 
L 222.152727 179.971416 
L 226.210909 179.327304 
L 230.269091 178.622712 
L 234.327273 177.860664 
L 238.385455 177.042672 
L 242.443636 176.170248 
L 246.501818 175.247928 
L 250.56 174.2742 
L 254.618182 173.255112 
L 258.676364 172.190664 
L 262.734545 171.082368 
L 266.792727 169.933248 
L 270.850909 168.746328 
L 274.909091 167.52312 
L 278.967273 166.265136 
L 283.025455 164.973888 
L 287.083636 163.650888 
L 291.141818 162.29916 
L 295.2 160.920216 
L 299.258182 159.515568 
L 303.316364 158.085216 
L 307.374545 156.633696 
L 311.432727 155.16252 
L 315.490909 155.809656 
L 319.549091 157.273272 
L 323.607273 158.71572 
L 327.665455 160.137 
L 331.723636 161.534088 
L 335.781818 162.905472 
L 339.84 164.252664 
L 343.898182 165.57264 
L 347.956364 166.863888 
L 352.014545 168.126408 
L 356.072727 169.358688 
L 360.130909 170.557704 
L 364.189091 171.721944 
L 368.247273 172.85292 
L 372.305455 173.946096 
L 376.363636 174.99996 
L 380.421818 176.014512 
L 384.48 176.986728 
L 388.538182 177.915096 
L 392.596364 178.799616 
L 396.654545 179.635752 
L 400.712727 180.425016 
L 404.770909 181.162872 
L 408.829091 181.850832 
L 412.887273 182.48436 
L 416.945455 183.06648 
L 421.003636 183.592656 
L 425.061818 184.0644 
L 429.12 184.481712 
L 433.178182 184.844592 
L 437.236364 185.15304 
L 441.294545 185.407056 
L 445.352727 185.611176 
L 449.410909 185.766912 
L 453.469091 185.875776 
L 457.527273 185.943816 
L 461.585455 185.972544 
L 465.643636 185.968008 
L 469.701818 185.93928 
L 473.76 185.889384 
L 477.818182 185.827392 
L 481.876364 185.760864 
L 485.934545 185.698872 
L 489.992727 185.648976 
L 494.050909 185.615712 
L 498.109091 185.603616 
" clip-path="url(#pfdddb9dfad)" style="fill: none; stroke: #000000; stroke-opacity: 0.5; stroke-linecap: square"/>
   </g>
   <g id="line2d_21">
    <path d="M 92.290909 166.54788 
L 96.349091 166.367952 
L 100.407273 165.87504 
L 104.465455 165.158352 
L 108.523636 164.296512 
L 112.581818 163.33488 
L 116.64 162.305208 
L 120.698182 161.221104 
L 124.756364 160.094664 
L 128.814545 158.933448 
L 132.872727 157.74048 
L 136.930909 156.520296 
L 140.989091 155.274408 
L 145.047273 154.004328 
L 149.105455 152.71308 
L 153.163636 151.400664 
L 157.221818 150.068592 
L 161.28 148.718376 
L 165.338182 147.350016 
L 169.396364 145.965024 
L 173.454545 144.5634 
L 177.512727 143.146656 
L 181.570909 141.714792 
L 185.629091 140.26932 
L 189.687273 138.811752 
L 193.745455 137.3436 
L 197.803636 135.864864 
L 201.861818 134.38008 
L 205.92 132.89076 
L 209.978182 131.404464 
L 214.036364 129.930264 
L 218.094545 128.484792 
L 222.152727 127.110384 
L 226.210909 125.902296 
L 230.269091 125.105472 
L 234.327273 125.128152 
L 238.385455 126.002088 
L 242.443636 127.323576 
L 246.501818 128.829528 
L 250.56 130.414104 
L 254.618182 132.033456 
L 258.676364 133.66944 
L 262.734545 135.311472 
L 266.792727 136.951992 
L 270.850909 138.589488 
L 274.909091 140.219424 
L 278.967273 141.840288 
L 283.025455 143.450568 
L 287.083636 145.048752 
L 291.141818 146.63484 
L 295.2 148.205808 
L 299.258182 149.760144 
L 303.316364 151.29936 
L 307.374545 152.820432 
L 311.432727 154.321848 
L 315.490909 153.66564 
L 319.549091 152.155152 
L 323.607273 150.629544 
L 327.665455 149.088816 
L 331.723636 147.537504 
L 335.781818 145.978632 
L 339.84 144.418248 
L 343.898182 142.866936 
L 347.956364 141.345864 
L 352.014545 139.909464 
L 356.072727 138.730104 
L 360.130909 138.299184 
L 364.189091 138.93876 
L 368.247273 140.116608 
L 372.305455 141.462288 
L 376.363636 142.863912 
L 380.421818 144.282168 
L 384.48 145.6974 
L 388.538182 147.105072 
L 392.596364 148.500648 
L 396.654545 149.87808 
L 400.712727 151.237368 
L 404.770909 152.575488 
L 408.829091 153.89244 
L 412.887273 155.1852 
L 416.945455 156.452256 
L 421.003636 157.693608 
L 425.061818 158.906232 
L 429.12 160.090128 
L 433.178182 161.24076 
L 437.236364 162.356616 
L 441.294545 163.436184 
L 445.352727 164.477952 
L 449.410909 165.475872 
L 453.469091 166.42692 
L 457.527273 167.329584 
L 461.585455 168.176304 
L 465.643636 168.964056 
L 469.701818 169.68528 
L 473.76 170.332416 
L 477.818182 170.900928 
L 481.876364 171.380232 
L 485.934545 171.762768 
L 489.992727 172.042488 
L 494.050909 172.213344 
L 498.109091 172.2708 
" clip-path="url(#pfdddb9dfad)" style="fill: none; stroke: #000000; stroke-opacity: 0.5; stroke-linecap: square"/>
   </g>
   <g id="line2d_22">
    <path d="M 92.290909 110.478384 
L 96.349091 110.47536 
L 100.407273 110.4678 
L 104.465455 110.45268 
L 108.523636 110.431512 
L 112.581818 110.405808 
L 116.64 110.374056 
L 120.698182 110.336256 
L 124.756364 110.29392 
L 128.814545 110.245536 
L 132.872727 110.191104 
L 136.930909 110.132136 
L 140.989091 110.06712 
L 145.047273 109.997568 
L 149.105455 109.92348 
L 153.163636 109.844856 
L 157.221818 109.760184 
L 161.28 109.670976 
L 165.338182 109.578744 
L 169.396364 109.480464 
L 173.454545 109.37916 
L 177.512727 109.274832 
L 181.570909 109.165968 
L 185.629091 109.05408 
L 189.687273 108.939168 
L 193.745455 108.821232 
L 197.803636 108.700272 
L 201.861818 108.624672 
L 205.92 110.302992 
L 209.978182 112.013064 
L 214.036364 113.69592 
L 218.094545 115.334928 
L 222.152727 116.887752 
L 226.210909 118.257624 
L 230.269091 119.201112 
L 234.327273 119.308464 
L 238.385455 118.547928 
L 242.443636 117.326232 
L 246.501818 115.906464 
L 250.56 114.395976 
L 254.618182 112.843152 
L 258.676364 111.272184 
L 262.734545 109.7118 
L 266.792727 108.220968 
L 270.850909 107.077896 
L 274.909091 106.746768 
L 278.967273 106.77096 
L 283.025455 107.052192 
L 287.083636 107.741664 
L 291.141818 108.875664 
L 295.2 110.290896 
L 299.258182 111.845232 
L 303.316364 113.464584 
L 307.374545 115.115688 
L 311.432727 116.778888 
L 315.490909 118.445112 
L 319.549091 120.108312 
L 323.607273 121.763952 
L 327.665455 123.409008 
L 331.723636 125.038944 
L 335.781818 126.649224 
L 339.84 128.236824 
L 343.898182 129.788136 
L 347.956364 131.283504 
L 352.014545 132.668496 
L 356.072727 133.770744 
L 360.130909 134.101872 
L 364.189091 133.3368 
L 368.247273 132.009264 
L 372.305455 130.488192 
L 376.363636 128.89152 
L 380.421818 127.255536 
L 384.48 125.598384 
L 388.538182 123.929136 
L 392.596364 122.252328 
L 396.654545 120.572496 
L 400.712727 118.892664 
L 404.770909 117.214344 
L 408.829091 115.545096 
L 412.887273 113.88492 
L 416.945455 112.242888 
L 421.003636 110.625048 
L 425.061818 109.048032 
L 429.12 107.54208 
L 433.178182 106.182792 
L 437.236364 105.12288 
L 441.294545 104.496912 
L 445.352727 104.191488 
L 449.410909 104.035752 
L 453.469091 103.946544 
L 457.527273 103.8906 
L 461.585455 103.854312 
L 465.643636 103.828608 
L 469.701818 103.808952 
L 473.76 103.795344 
L 477.818182 103.78476 
L 481.876364 103.7772 
L 485.934545 103.772664 
L 489.992727 103.768128 
L 494.050909 103.766616 
L 498.109091 103.766616 
" clip-path="url(#pfdddb9dfad)" style="fill: none; stroke: #000000; stroke-opacity: 0.5; stroke-linecap: square"/>
   </g>
   <g id="line2d_23">
    <path d="M 92.290909 73.266552 
L 96.349091 73.324008 
L 100.407273 73.500912 
L 104.465455 73.810872 
L 108.523636 74.27052 
L 112.581818 74.894976 
L 116.64 75.690288 
L 120.698182 76.647384 
L 124.756364 77.749632 
L 128.814545 78.977376 
L 132.872727 80.306424 
L 136.930909 81.720144 
L 140.989091 83.201904 
L 145.047273 84.739608 
L 149.105455 86.322672 
L 153.163636 87.942024 
L 157.221818 89.590104 
L 161.28 91.263888 
L 165.338182 92.957328 
L 169.396364 94.6674 
L 173.454545 96.389568 
L 177.512727 98.120808 
L 181.570909 99.859608 
L 185.629091 101.602944 
L 189.687273 103.349304 
L 193.745455 105.094152 
L 197.803636 106.837488 
L 201.861818 108.526392 
L 205.92 108.44928 
L 209.978182 108.322272 
L 214.036364 108.193752 
L 218.094545 108.06372 
L 222.152727 107.932176 
L 226.210909 107.800632 
L 230.269091 107.667576 
L 234.327273 107.536032 
L 238.385455 107.404488 
L 242.443636 107.274456 
L 246.501818 107.145936 
L 250.56 107.018928 
L 254.618182 106.893432 
L 258.676364 106.77096 
L 262.734545 106.643952 
L 266.792727 106.486704 
L 270.850909 106.076952 
L 274.909091 105.088104 
L 278.967273 104.318496 
L 283.025455 104.292792 
L 287.083636 104.648112 
L 291.141818 104.894568 
L 295.2 104.983776 
L 299.258182 104.989824 
L 303.316364 104.953536 
L 307.374545 104.89608 
L 311.432727 104.82804 
L 315.490909 104.753952 
L 319.549091 104.678352 
L 323.607273 104.60124 
L 327.665455 104.52564 
L 331.723636 104.451552 
L 335.781818 104.380488 
L 339.84 104.310936 
L 343.898182 104.244408 
L 347.956364 104.180904 
L 352.014545 104.121936 
L 356.072727 104.06448 
L 360.130909 104.010048 
L 364.189091 103.95864 
L 368.247273 103.911768 
L 372.305455 103.866408 
L 376.363636 103.824072 
L 380.421818 103.78476 
L 384.48 103.74696 
L 388.538182 103.710672 
L 392.596364 103.677408 
L 396.654545 103.644144 
L 400.712727 103.61088 
L 404.770909 103.577616 
L 408.829091 103.541328 
L 412.887273 103.502016 
L 416.945455 103.453632 
L 421.003636 103.39164 
L 425.061818 103.303944 
L 429.12 103.158792 
L 433.178182 102.889656 
L 437.236364 102.342312 
L 441.294545 101.389752 
L 445.352727 100.1484 
L 449.410909 98.796672 
L 453.469091 97.423776 
L 457.527273 96.070536 
L 461.585455 94.764168 
L 465.643636 93.521304 
L 469.701818 92.358576 
L 473.76 91.297152 
L 477.818182 90.35064 
L 481.876364 89.540208 
L 485.934545 88.885512 
L 489.992727 88.403184 
L 494.050909 88.106832 
L 498.109091 88.00704 
" clip-path="url(#pfdddb9dfad)" style="fill: none; stroke: #000000; stroke-opacity: 0.5; stroke-linecap: square"/>
   </g>
   <g id="patch_3">
    <path d="M 72 384.48 
L 72 51.84 
" style="fill: none; stroke: #000000; stroke-width: 0.8; stroke-linejoin: miter; stroke-linecap: square"/>
   </g>
   <g id="patch_4">
    <path d="M 518.4 384.48 
L 518.4 51.84 
" style="fill: none; stroke: #000000; stroke-width: 0.8; stroke-linejoin: miter; stroke-linecap: square"/>
   </g>
   <g id="patch_5">
    <path d="M 72 384.48 
L 518.4 384.48 
" style="fill: none; stroke: #000000; stroke-width: 0.8; stroke-linejoin: miter; stroke-linecap: square"/>
   </g>
   <g id="patch_6">
    <path d="M 72 51.84 
L 518.4 51.84 
" style="fill: none; stroke: #000000; stroke-width: 0.8; stroke-linejoin: miter; stroke-linecap: square"/>
   </g>
  </g>
 </g>
 <defs>
  <clipPath id="pfdddb9dfad">
   <rect x="72" y="51.84" width="446.4" height="332.64"/>
  </clipPath>
 </defs>
</svg>
