<?xml version="1.0" encoding="utf-8" standalone="no"?>
<!DOCTYPE svg PUBLIC "-//W3C//DTD SVG 1.1//EN"
  "http://www.w3.org/Graphics/SVG/1.1/DTD/svg11.dtd">
<svg xmlns:xlink="http://www.w3.org/1999/xlink" width="576pt" height="432pt" viewBox="0 0 576 432" xmlns="http://www.w3.org/2000/svg" version="1.1">
 <metadata>
  <rdf:RDF xmlns:dc="http://purl.org/dc/elements/1.1/" xmlns:cc="http://creativecommons.org/ns#" xmlns:rdf="http://www.w3.org/1999/02/22-rdf-syntax-ns#">
   <cc:Work>
    <dc:type rdf:resource="http://purl.org/dc/dcmitype/StillImage"/>
    <dc:date>2023-05-04T14:29:01.540735</dc:date>
    <dc:format>image/svg+xml</dc:format>
    <dc:creator>
     <cc:Agent>
      <dc:title>Matplotlib v3.7.1, https://matplotlib.org/</dc:title>
     </cc:Agent>
    </dc:creator>
   </cc:Work>
  </rdf:RDF>
 </metadata>
 <defs>
  <style type="text/css">*{stroke-linejoin: round; stroke-linecap: butt}</style>
 </defs>
 <g id="figure_1">
  <g id="patch_1">
   <path d="M 0 432 
L 576 432 
L 576 0 
L 0 0 
z
" style="fill: #ffffff"/>
  </g>
  <g id="axes_1">
   <g id="patch_2">
    <path d="M 72 384.48 
L 518.4 384.48 
L 518.4 51.84 
L 72 51.84 
z
" style="fill: #ffffff"/>
   </g>
   <g id="matplotlib.axis_1">
    <g id="xtick_1">
     <g id="line2d_1">
      <defs>
       <path id="mfd3a0b3bed" d="M 0 0 
L 0 3.5 
" style="stroke: #000000; stroke-width: 0.8"/>
      </defs>
      <g>
       <use xlink:href="#mfd3a0b3bed" x="92.290909" y="384.48" style="stroke: #000000; stroke-width: 0.8"/>
      </g>
     </g>
     <g id="text_1">
      <!-- 0.0 -->
      <g transform="translate(84.339347 399.078438) scale(0.1 -0.1)">
       <defs>
        <path id="DejaVuSans-30" d="M 2034 4250 
Q 1547 4250 1301 3770 
Q 1056 3291 1056 2328 
Q 1056 1369 1301 889 
Q 1547 409 2034 409 
Q 2525 409 2770 889 
Q 3016 1369 3016 2328 
Q 3016 3291 2770 3770 
Q 2525 4250 2034 4250 
z
M 2034 4750 
Q 2819 4750 3233 4129 
Q 3647 3509 3647 2328 
Q 3647 1150 3233 529 
Q 2819 -91 2034 -91 
Q 1250 -91 836 529 
Q 422 1150 422 2328 
Q 422 3509 836 4129 
Q 1250 4750 2034 4750 
z
" transform="scale(0.015625)"/>
        <path id="DejaVuSans-2e" d="M 684 794 
L 1344 794 
L 1344 0 
L 684 0 
L 684 794 
z
" transform="scale(0.015625)"/>
       </defs>
       <use xlink:href="#DejaVuSans-30"/>
       <use xlink:href="#DejaVuSans-2e" x="63.623047"/>
       <use xlink:href="#DejaVuSans-30" x="95.410156"/>
      </g>
     </g>
    </g>
    <g id="xtick_2">
     <g id="line2d_2">
      <g>
       <use xlink:href="#mfd3a0b3bed" x="173.454545" y="384.48" style="stroke: #000000; stroke-width: 0.8"/>
      </g>
     </g>
     <g id="text_2">
      <!-- 0.2 -->
      <g transform="translate(165.502983 399.078438) scale(0.1 -0.1)">
       <defs>
        <path id="DejaVuSans-32" d="M 1228 531 
L 3431 531 
L 3431 0 
L 469 0 
L 469 531 
Q 828 903 1448 1529 
Q 2069 2156 2228 2338 
Q 2531 2678 2651 2914 
Q 2772 3150 2772 3378 
Q 2772 3750 2511 3984 
Q 2250 4219 1831 4219 
Q 1534 4219 1204 4116 
Q 875 4013 500 3803 
L 500 4441 
Q 881 4594 1212 4672 
Q 1544 4750 1819 4750 
Q 2544 4750 2975 4387 
Q 3406 4025 3406 3419 
Q 3406 3131 3298 2873 
Q 3191 2616 2906 2266 
Q 2828 2175 2409 1742 
Q 1991 1309 1228 531 
z
" transform="scale(0.015625)"/>
       </defs>
       <use xlink:href="#DejaVuSans-30"/>
       <use xlink:href="#DejaVuSans-2e" x="63.623047"/>
       <use xlink:href="#DejaVuSans-32" x="95.410156"/>
      </g>
     </g>
    </g>
    <g id="xtick_3">
     <g id="line2d_3">
      <g>
       <use xlink:href="#mfd3a0b3bed" x="254.618182" y="384.48" style="stroke: #000000; stroke-width: 0.8"/>
      </g>
     </g>
     <g id="text_3">
      <!-- 0.4 -->
      <g transform="translate(246.666619 399.078438) scale(0.1 -0.1)">
       <defs>
        <path id="DejaVuSans-34" d="M 2419 4116 
L 825 1625 
L 2419 1625 
L 2419 4116 
z
M 2253 4666 
L 3047 4666 
L 3047 1625 
L 3713 1625 
L 3713 1100 
L 3047 1100 
L 3047 0 
L 2419 0 
L 2419 1100 
L 313 1100 
L 313 1709 
L 2253 4666 
z
" transform="scale(0.015625)"/>
       </defs>
       <use xlink:href="#DejaVuSans-30"/>
       <use xlink:href="#DejaVuSans-2e" x="63.623047"/>
       <use xlink:href="#DejaVuSans-34" x="95.410156"/>
      </g>
     </g>
    </g>
    <g id="xtick_4">
     <g id="line2d_4">
      <g>
       <use xlink:href="#mfd3a0b3bed" x="335.781818" y="384.48" style="stroke: #000000; stroke-width: 0.8"/>
      </g>
     </g>
     <g id="text_4">
      <!-- 0.6 -->
      <g transform="translate(327.830256 399.078438) scale(0.1 -0.1)">
       <defs>
        <path id="DejaVuSans-36" d="M 2113 2584 
Q 1688 2584 1439 2293 
Q 1191 2003 1191 1497 
Q 1191 994 1439 701 
Q 1688 409 2113 409 
Q 2538 409 2786 701 
Q 3034 994 3034 1497 
Q 3034 2003 2786 2293 
Q 2538 2584 2113 2584 
z
M 3366 4563 
L 3366 3988 
Q 3128 4100 2886 4159 
Q 2644 4219 2406 4219 
Q 1781 4219 1451 3797 
Q 1122 3375 1075 2522 
Q 1259 2794 1537 2939 
Q 1816 3084 2150 3084 
Q 2853 3084 3261 2657 
Q 3669 2231 3669 1497 
Q 3669 778 3244 343 
Q 2819 -91 2113 -91 
Q 1303 -91 875 529 
Q 447 1150 447 2328 
Q 447 3434 972 4092 
Q 1497 4750 2381 4750 
Q 2619 4750 2861 4703 
Q 3103 4656 3366 4563 
z
" transform="scale(0.015625)"/>
       </defs>
       <use xlink:href="#DejaVuSans-30"/>
       <use xlink:href="#DejaVuSans-2e" x="63.623047"/>
       <use xlink:href="#DejaVuSans-36" x="95.410156"/>
      </g>
     </g>
    </g>
    <g id="xtick_5">
     <g id="line2d_5">
      <g>
       <use xlink:href="#mfd3a0b3bed" x="416.945455" y="384.48" style="stroke: #000000; stroke-width: 0.8"/>
      </g>
     </g>
     <g id="text_5">
      <!-- 0.8 -->
      <g transform="translate(408.993892 399.078438) scale(0.1 -0.1)">
       <defs>
        <path id="DejaVuSans-38" d="M 2034 2216 
Q 1584 2216 1326 1975 
Q 1069 1734 1069 1313 
Q 1069 891 1326 650 
Q 1584 409 2034 409 
Q 2484 409 2743 651 
Q 3003 894 3003 1313 
Q 3003 1734 2745 1975 
Q 2488 2216 2034 2216 
z
M 1403 2484 
Q 997 2584 770 2862 
Q 544 3141 544 3541 
Q 544 4100 942 4425 
Q 1341 4750 2034 4750 
Q 2731 4750 3128 4425 
Q 3525 4100 3525 3541 
Q 3525 3141 3298 2862 
Q 3072 2584 2669 2484 
Q 3125 2378 3379 2068 
Q 3634 1759 3634 1313 
Q 3634 634 3220 271 
Q 2806 -91 2034 -91 
Q 1263 -91 848 271 
Q 434 634 434 1313 
Q 434 1759 690 2068 
Q 947 2378 1403 2484 
z
M 1172 3481 
Q 1172 3119 1398 2916 
Q 1625 2713 2034 2713 
Q 2441 2713 2670 2916 
Q 2900 3119 2900 3481 
Q 2900 3844 2670 4047 
Q 2441 4250 2034 4250 
Q 1625 4250 1398 4047 
Q 1172 3844 1172 3481 
z
" transform="scale(0.015625)"/>
       </defs>
       <use xlink:href="#DejaVuSans-30"/>
       <use xlink:href="#DejaVuSans-2e" x="63.623047"/>
       <use xlink:href="#DejaVuSans-38" x="95.410156"/>
      </g>
     </g>
    </g>
    <g id="xtick_6">
     <g id="line2d_6">
      <g>
       <use xlink:href="#mfd3a0b3bed" x="498.109091" y="384.48" style="stroke: #000000; stroke-width: 0.8"/>
      </g>
     </g>
     <g id="text_6">
      <!-- 1.0 -->
      <g transform="translate(490.157528 399.078438) scale(0.1 -0.1)">
       <defs>
        <path id="DejaVuSans-31" d="M 794 531 
L 1825 531 
L 1825 4091 
L 703 3866 
L 703 4441 
L 1819 4666 
L 2450 4666 
L 2450 531 
L 3481 531 
L 3481 0 
L 794 0 
L 794 531 
z
" transform="scale(0.015625)"/>
       </defs>
       <use xlink:href="#DejaVuSans-31"/>
       <use xlink:href="#DejaVuSans-2e" x="63.623047"/>
       <use xlink:href="#DejaVuSans-30" x="95.410156"/>
      </g>
     </g>
    </g>
   </g>
   <g id="matplotlib.axis_2">
    <g id="ytick_1">
     <g id="line2d_7">
      <defs>
       <path id="m9b0786ac82" d="M 0 0 
L -3.5 0 
" style="stroke: #000000; stroke-width: 0.8"/>
      </defs>
      <g>
       <use xlink:href="#m9b0786ac82" x="72" y="369.36" style="stroke: #000000; stroke-width: 0.8"/>
      </g>
     </g>
     <g id="text_7">
      <!-- −5.0 -->
      <g transform="translate(40.717187 373.159219) scale(0.1 -0.1)">
       <defs>
        <path id="DejaVuSans-2212" d="M 678 2272 
L 4684 2272 
L 4684 1741 
L 678 1741 
L 678 2272 
z
" transform="scale(0.015625)"/>
        <path id="DejaVuSans-35" d="M 691 4666 
L 3169 4666 
L 3169 4134 
L 1269 4134 
L 1269 2991 
Q 1406 3038 1543 3061 
Q 1681 3084 1819 3084 
Q 2600 3084 3056 2656 
Q 3513 2228 3513 1497 
Q 3513 744 3044 326 
Q 2575 -91 1722 -91 
Q 1428 -91 1123 -41 
Q 819 9 494 109 
L 494 744 
Q 775 591 1075 516 
Q 1375 441 1709 441 
Q 2250 441 2565 725 
Q 2881 1009 2881 1497 
Q 2881 1984 2565 2268 
Q 2250 2553 1709 2553 
Q 1456 2553 1204 2497 
Q 953 2441 691 2322 
L 691 4666 
z
" transform="scale(0.015625)"/>
       </defs>
       <use xlink:href="#DejaVuSans-2212"/>
       <use xlink:href="#DejaVuSans-35" x="83.789062"/>
       <use xlink:href="#DejaVuSans-2e" x="147.412109"/>
       <use xlink:href="#DejaVuSans-30" x="179.199219"/>
      </g>
     </g>
    </g>
    <g id="ytick_2">
     <g id="line2d_8">
      <g>
       <use xlink:href="#m9b0786ac82" x="72" y="331.56" style="stroke: #000000; stroke-width: 0.8"/>
      </g>
     </g>
     <g id="text_8">
      <!-- −2.5 -->
      <g transform="translate(40.717187 335.359219) scale(0.1 -0.1)">
       <use xlink:href="#DejaVuSans-2212"/>
       <use xlink:href="#DejaVuSans-32" x="83.789062"/>
       <use xlink:href="#DejaVuSans-2e" x="147.412109"/>
       <use xlink:href="#DejaVuSans-35" x="179.199219"/>
      </g>
     </g>
    </g>
    <g id="ytick_3">
     <g id="line2d_9">
      <g>
       <use xlink:href="#m9b0786ac82" x="72" y="293.76" style="stroke: #000000; stroke-width: 0.8"/>
      </g>
     </g>
     <g id="text_9">
      <!-- 0.0 -->
      <g transform="translate(49.096875 297.559219) scale(0.1 -0.1)">
       <use xlink:href="#DejaVuSans-30"/>
       <use xlink:href="#DejaVuSans-2e" x="63.623047"/>
       <use xlink:href="#DejaVuSans-30" x="95.410156"/>
      </g>
     </g>
    </g>
    <g id="ytick_4">
     <g id="line2d_10">
      <g>
       <use xlink:href="#m9b0786ac82" x="72" y="255.96" style="stroke: #000000; stroke-width: 0.8"/>
      </g>
     </g>
     <g id="text_10">
      <!-- 2.5 -->
      <g transform="translate(49.096875 259.759219) scale(0.1 -0.1)">
       <use xlink:href="#DejaVuSans-32"/>
       <use xlink:href="#DejaVuSans-2e" x="63.623047"/>
       <use xlink:href="#DejaVuSans-35" x="95.410156"/>
      </g>
     </g>
    </g>
    <g id="ytick_5">
     <g id="line2d_11">
      <g>
       <use xlink:href="#m9b0786ac82" x="72" y="218.16" style="stroke: #000000; stroke-width: 0.8"/>
      </g>
     </g>
     <g id="text_11">
      <!-- 5.0 -->
      <g transform="translate(49.096875 221.959219) scale(0.1 -0.1)">
       <use xlink:href="#DejaVuSans-35"/>
       <use xlink:href="#DejaVuSans-2e" x="63.623047"/>
       <use xlink:href="#DejaVuSans-30" x="95.410156"/>
      </g>
     </g>
    </g>
    <g id="ytick_6">
     <g id="line2d_12">
      <g>
       <use xlink:href="#m9b0786ac82" x="72" y="180.36" style="stroke: #000000; stroke-width: 0.8"/>
      </g>
     </g>
     <g id="text_12">
      <!-- 7.5 -->
      <g transform="translate(49.096875 184.159219) scale(0.1 -0.1)">
       <defs>
        <path id="DejaVuSans-37" d="M 525 4666 
L 3525 4666 
L 3525 4397 
L 1831 0 
L 1172 0 
L 2766 4134 
L 525 4134 
L 525 4666 
z
" transform="scale(0.015625)"/>
       </defs>
       <use xlink:href="#DejaVuSans-37"/>
       <use xlink:href="#DejaVuSans-2e" x="63.623047"/>
       <use xlink:href="#DejaVuSans-35" x="95.410156"/>
      </g>
     </g>
    </g>
    <g id="ytick_7">
     <g id="line2d_13">
      <g>
       <use xlink:href="#m9b0786ac82" x="72" y="142.56" style="stroke: #000000; stroke-width: 0.8"/>
      </g>
     </g>
     <g id="text_13">
      <!-- 10.0 -->
      <g transform="translate(42.734375 146.359219) scale(0.1 -0.1)">
       <use xlink:href="#DejaVuSans-31"/>
       <use xlink:href="#DejaVuSans-30" x="63.623047"/>
       <use xlink:href="#DejaVuSans-2e" x="127.246094"/>
       <use xlink:href="#DejaVuSans-30" x="159.033203"/>
      </g>
     </g>
    </g>
    <g id="ytick_8">
     <g id="line2d_14">
      <g>
       <use xlink:href="#m9b0786ac82" x="72" y="104.76" style="stroke: #000000; stroke-width: 0.8"/>
      </g>
     </g>
     <g id="text_14">
      <!-- 12.5 -->
      <g transform="translate(42.734375 108.559219) scale(0.1 -0.1)">
       <use xlink:href="#DejaVuSans-31"/>
       <use xlink:href="#DejaVuSans-32" x="63.623047"/>
       <use xlink:href="#DejaVuSans-2e" x="127.246094"/>
       <use xlink:href="#DejaVuSans-35" x="159.033203"/>
      </g>
     </g>
    </g>
    <g id="ytick_9">
     <g id="line2d_15">
      <g>
       <use xlink:href="#m9b0786ac82" x="72" y="66.96" style="stroke: #000000; stroke-width: 0.8"/>
      </g>
     </g>
     <g id="text_15">
      <!-- 15.0 -->
      <g transform="translate(42.734375 70.759219) scale(0.1 -0.1)">
       <use xlink:href="#DejaVuSans-31"/>
       <use xlink:href="#DejaVuSans-35" x="63.623047"/>
       <use xlink:href="#DejaVuSans-2e" x="127.246094"/>
       <use xlink:href="#DejaVuSans-30" x="159.033203"/>
      </g>
     </g>
    </g>
   </g>
   <g id="line2d_16">
    <path d="M 92.290909 320.324328 
L 96.349091 321.237576 
L 100.407273 322.342848 
L 104.465455 323.449632 
L 108.523636 324.550368 
L 112.581818 325.643544 
L 116.64 326.72916 
L 120.698182 327.807216 
L 124.756364 328.877712 
L 128.814545 329.939136 
L 132.872727 330.991488 
L 136.930909 332.03628 
L 140.989091 333.072 
L 145.047273 334.098648 
L 149.105455 335.116224 
L 153.163636 336.124728 
L 157.221818 337.12416 
L 161.28 338.11452 
L 165.338182 339.094296 
L 169.396364 340.065 
L 173.454545 341.026632 
L 177.512727 341.97768 
L 181.570909 342.919656 
L 185.629091 343.851048 
L 189.687273 344.771856 
L 193.745455 345.683592 
L 197.803636 346.584744 
L 201.861818 347.475312 
L 205.92 348.355296 
L 209.978182 349.226208 
L 214.036364 350.085024 
L 218.094545 350.933256 
L 222.152727 351.770904 
L 226.210909 352.597968 
L 230.269091 353.414448 
L 234.327273 354.218832 
L 238.385455 355.014144 
L 242.443636 355.79736 
L 246.501818 356.56848 
L 250.56 357.329016 
L 254.618182 358.078968 
L 258.676364 358.816824 
L 262.734545 359.544096 
L 266.792727 360.259272 
L 270.850909 360.962352 
L 274.909091 361.654848 
L 278.967273 362.335248 
L 283.025455 363.005064 
L 287.083636 363.661272 
L 291.141818 364.306896 
L 295.2 364.940424 
L 299.258182 365.561856 
L 303.316364 366.172704 
L 307.374545 366.769944 
L 311.432727 367.3566 
L 315.490909 367.929648 
L 319.549091 368.492112 
L 323.607273 369.040968 
L 327.665455 369.57924 
L 331.723636 370.103904 
L 335.781818 370.617984 
L 339.84 371.118456 
L 343.898182 371.606832 
L 347.956364 372.083112 
L 352.014545 372.547296 
L 356.072727 372.999384 
L 360.130909 373.437864 
L 364.189091 373.86576 
L 368.247273 374.280048 
L 372.305455 374.680728 
L 376.363636 375.070824 
L 380.421818 375.447312 
L 384.48 375.811704 
L 388.538182 376.162488 
L 392.596364 376.502688 
L 396.654545 376.827768 
L 400.712727 377.142264 
L 404.770909 377.443152 
L 408.829091 377.731944 
L 412.887273 378.007128 
L 416.945455 378.270216 
L 421.003636 378.519696 
L 425.061818 378.758592 
L 429.12 378.982368 
L 433.178182 379.194048 
L 437.236364 379.393632 
L 441.294545 379.579608 
L 445.352727 379.753488 
L 449.410909 379.91376 
L 453.469091 380.061936 
L 457.527273 380.198016 
L 461.585455 380.318976 
L 465.643636 380.429352 
L 469.701818 380.52612 
L 473.76 380.60928 
L 477.818182 380.680344 
L 481.876364 380.7378 
L 485.934545 380.78316 
L 489.992727 380.814912 
L 494.050909 380.834568 
L 498.109091 380.840616 
" clip-path="url(#p0b27c1f6dd)" style="fill: none; stroke: #000000; stroke-opacity: 0.5; stroke-linecap: square"/>
   </g>
   <g id="line2d_17">
    <path d="M 92.290909 319.848048 
L 96.349091 318.928752 
L 100.407273 317.8008 
L 104.465455 316.657728 
L 108.523636 315.505584 
L 112.581818 314.34588 
L 116.64 313.180128 
L 120.698182 312.006816 
L 124.756364 310.827456 
L 128.814545 309.640536 
L 132.872727 308.44908 
L 136.930909 307.251576 
L 140.989091 306.049536 
L 145.047273 304.841448 
L 149.105455 303.627312 
L 153.163636 302.40864 
L 157.221818 301.185432 
L 161.28 299.957688 
L 165.338182 298.723896 
L 169.396364 297.488592 
L 173.454545 296.24724 
L 177.512727 295.002864 
L 181.570909 293.753952 
L 185.629091 292.502016 
L 189.687273 291.247056 
L 193.745455 289.989072 
L 197.803636 288.729576 
L 201.861818 287.465544 
L 205.92 286.2 
L 209.978182 284.931432 
L 214.036364 283.661352 
L 218.094545 282.38976 
L 222.152727 281.116656 
L 226.210909 279.84204 
L 230.269091 278.567424 
L 234.327273 277.289784 
L 238.385455 276.013656 
L 242.443636 274.736016 
L 246.501818 273.456864 
L 250.56 272.179224 
L 254.618182 270.901584 
L 258.676364 269.623944 
L 262.734545 268.347816 
L 266.792727 267.0732 
L 270.850909 265.798584 
L 274.909091 264.52548 
L 278.967273 263.253888 
L 283.025455 261.983808 
L 287.083636 260.716752 
L 291.141818 259.45272 
L 295.2 258.1902 
L 299.258182 256.930704 
L 303.316364 255.674232 
L 307.374545 254.420784 
L 311.432727 253.171872 
L 315.490909 251.925984 
L 319.549091 250.684632 
L 323.607273 249.447816 
L 327.665455 248.215536 
L 331.723636 246.989304 
L 335.781818 245.767608 
L 339.84 244.55196 
L 343.898182 243.340848 
L 347.956364 242.137296 
L 352.014545 240.939792 
L 356.072727 239.748336 
L 360.130909 238.56444 
L 364.189091 237.389616 
L 368.247273 236.22084 
L 372.305455 235.059624 
L 376.363636 233.908992 
L 380.421818 232.76592 
L 384.48 231.63192 
L 388.538182 230.506992 
L 392.596364 229.392648 
L 396.654545 228.288888 
L 400.712727 227.1942 
L 404.770909 226.11312 
L 408.829091 225.042624 
L 412.887273 223.984224 
L 416.945455 222.939432 
L 421.003636 221.90976 
L 425.061818 220.892184 
L 429.12 219.892752 
L 433.178182 218.90844 
L 437.236364 217.94076 
L 441.294545 216.994248 
L 445.352727 216.06588 
L 449.410909 215.161704 
L 453.469091 214.280208 
L 457.527273 213.425928 
L 461.585455 212.600376 
L 465.643636 211.808088 
L 469.701818 211.050576 
L 473.76 210.333888 
L 477.818182 209.66256 
L 481.876364 209.047176 
L 485.934545 208.499832 
L 489.992727 208.04472 
L 494.050909 207.722664 
L 498.109091 207.603216 
" clip-path="url(#p0b27c1f6dd)" style="fill: none; stroke: #000000; stroke-opacity: 0.5; stroke-linecap: square"/>
   </g>
   <g id="line2d_18">
    <path d="M 92.290909 248.14296 
L 96.349091 248.1354 
L 100.407273 248.117256 
L 104.465455 248.085504 
L 108.523636 248.041656 
L 112.581818 247.985712 
L 116.64 247.91616 
L 120.698182 247.834512 
L 124.756364 247.740768 
L 128.814545 247.633416 
L 132.872727 247.513968 
L 136.930909 247.382424 
L 140.989091 247.237272 
L 145.047273 247.081536 
L 149.105455 246.912192 
L 153.163636 246.72924 
L 157.221818 246.535704 
L 161.28 246.32856 
L 165.338182 246.10932 
L 169.396364 245.877984 
L 173.454545 245.63304 
L 177.512727 245.376 
L 181.570909 245.108376 
L 185.629091 244.825632 
L 189.687273 244.532304 
L 193.745455 244.22688 
L 197.803636 243.907848 
L 201.861818 243.578232 
L 205.92 243.235008 
L 209.978182 242.879688 
L 214.036364 242.512272 
L 218.094545 242.13276 
L 222.152727 241.741152 
L 226.210909 241.33896 
L 230.269091 240.92316 
L 234.327273 240.495264 
L 238.385455 240.056784 
L 242.443636 239.604696 
L 246.501818 239.143536 
L 250.56 238.668768 
L 254.618182 238.183416 
L 258.676364 237.685968 
L 262.734545 237.177936 
L 266.792727 236.65932 
L 270.850909 236.128608 
L 274.909091 235.587312 
L 278.967273 235.036944 
L 283.025455 234.475992 
L 287.083636 233.904456 
L 291.141818 233.323848 
L 295.2 232.734168 
L 299.258182 232.135416 
L 303.316364 231.527592 
L 307.374545 230.91372 
L 311.432727 230.292288 
L 315.490909 229.663296 
L 319.549091 229.028256 
L 323.607273 228.387168 
L 327.665455 227.741544 
L 331.723636 227.091384 
L 335.781818 226.435176 
L 339.84 225.775944 
L 343.898182 225.112176 
L 347.956364 224.445384 
L 352.014545 223.774056 
L 356.072727 223.099704 
L 360.130909 222.42384 
L 364.189091 221.74344 
L 368.247273 221.061528 
L 372.305455 220.378104 
L 376.363636 219.693168 
L 380.421818 219.00672 
L 384.48 218.31876 
L 388.538182 217.632312 
L 392.596364 216.947376 
L 396.654545 216.263952 
L 400.712727 215.58204 
L 404.770909 214.904664 
L 408.829091 214.231824 
L 412.887273 213.566544 
L 416.945455 212.907312 
L 421.003636 212.257152 
L 425.061818 211.617576 
L 429.12 210.991608 
L 433.178182 210.379248 
L 437.236364 209.78352 
L 441.294545 209.207448 
L 445.352727 208.652544 
L 449.410909 208.121832 
L 453.469091 207.618336 
L 457.527273 207.14508 
L 461.585455 206.7066 
L 465.643636 206.30592 
L 469.701818 205.949088 
L 473.76 205.646688 
L 477.818182 205.4214 
L 481.876364 205.321608 
L 485.934545 205.369992 
L 489.992727 205.495488 
L 494.050909 205.62552 
L 498.109091 205.682976 
" clip-path="url(#p0b27c1f6dd)" style="fill: none; stroke: #000000; stroke-opacity: 0.5; stroke-linecap: square"/>
   </g>
   <g id="line2d_19">
    <path d="M 92.290909 245.944512 
L 96.349091 245.938464 
L 100.407273 245.921832 
L 104.465455 245.891592 
L 108.523636 245.850768 
L 112.581818 245.797848 
L 116.64 245.734344 
L 120.698182 245.657232 
L 124.756364 245.569536 
L 128.814545 245.471256 
L 132.872727 245.359368 
L 136.930909 245.236896 
L 140.989091 245.102328 
L 145.047273 244.955664 
L 149.105455 244.798416 
L 153.163636 244.629072 
L 157.221818 244.449144 
L 161.28 244.255608 
L 165.338182 244.051488 
L 169.396364 243.836784 
L 173.454545 243.609984 
L 177.512727 243.371088 
L 181.570909 243.121608 
L 185.629091 242.860032 
L 189.687273 242.587872 
L 193.745455 242.303616 
L 197.803636 242.007264 
L 201.861818 241.700328 
L 205.92 241.382808 
L 209.978182 241.053192 
L 214.036364 240.71148 
L 218.094545 240.360696 
L 222.152727 239.997816 
L 226.210909 239.62284 
L 230.269091 239.23728 
L 234.327273 238.841136 
L 238.385455 238.432896 
L 242.443636 238.014072 
L 246.501818 237.584664 
L 250.56 237.144672 
L 254.618182 236.692584 
L 258.676364 236.229912 
L 262.734545 235.756656 
L 266.792727 235.271304 
L 270.850909 234.775368 
L 274.909091 234.268848 
L 278.967273 233.751744 
L 283.025455 233.222544 
L 287.083636 232.68276 
L 291.141818 232.13088 
L 295.2 231.568416 
L 299.258182 230.992344 
L 303.316364 230.4072 
L 307.374545 229.808448 
L 311.432727 229.1976 
L 315.490909 228.574656 
L 319.549091 227.941128 
L 323.607273 227.293992 
L 327.665455 226.63476 
L 331.723636 225.963432 
L 335.781818 225.280008 
L 339.84 224.584488 
L 343.898182 223.879896 
L 347.956364 223.163208 
L 352.014545 222.437448 
L 356.072727 221.704128 
L 360.130909 220.961736 
L 364.189091 220.213296 
L 368.247273 219.457296 
L 372.305455 218.698272 
L 376.363636 217.934712 
L 380.421818 217.171152 
L 384.48 216.404568 
L 388.538182 215.641008 
L 392.596364 214.880472 
L 396.654545 214.124472 
L 400.712727 213.376032 
L 404.770909 212.638176 
L 408.829091 211.912416 
L 412.887273 211.201776 
L 416.945455 210.50928 
L 421.003636 209.840976 
L 425.061818 209.196864 
L 429.12 208.582992 
L 433.178182 208.002384 
L 437.236364 207.459576 
L 441.294545 206.960616 
L 445.352727 206.507016 
L 449.410909 206.104824 
L 453.469091 205.757064 
L 457.527273 205.468272 
L 461.585455 205.23996 
L 465.643636 205.072128 
L 469.701818 204.964776 
L 473.76 204.910344 
L 477.818182 204.887664 
L 481.876364 204.842304 
L 485.934545 204.745536 
L 489.992727 204.647256 
L 494.050909 204.579216 
L 498.109091 204.556536 
" clip-path="url(#p0b27c1f6dd)" style="fill: none; stroke: #000000; stroke-opacity: 0.5; stroke-linecap: square"/>
   </g>
   <g id="line2d_20">
    <path d="M 92.290909 191.88144 
L 96.349091 191.898072 
L 100.407273 191.943432 
L 104.465455 192.011472 
L 108.523636 192.096144 
L 112.581818 192.188376 
L 116.64 192.283632 
L 120.698182 192.375864 
L 124.756364 192.462048 
L 128.814545 192.540672 
L 132.872727 192.608712 
L 136.930909 192.664656 
L 140.989091 192.710016 
L 145.047273 192.741768 
L 149.105455 192.759912 
L 153.163636 192.764448 
L 157.221818 192.755376 
L 161.28 192.732696 
L 165.338182 192.696408 
L 169.396364 192.645 
L 173.454545 192.578472 
L 177.512727 192.499848 
L 181.570909 192.406104 
L 185.629091 192.29724 
L 189.687273 192.17628 
L 193.745455 192.0402 
L 197.803636 191.890512 
L 201.861818 191.725704 
L 205.92 191.5488 
L 209.978182 191.358288 
L 214.036364 191.152656 
L 218.094545 190.934928 
L 222.152727 190.705104 
L 226.210909 190.46016 
L 230.269091 190.20312 
L 234.327273 189.933984 
L 238.385455 189.65124 
L 242.443636 189.3564 
L 246.501818 189.049464 
L 250.56 188.730432 
L 254.618182 188.399304 
L 258.676364 188.057592 
L 262.734545 187.703784 
L 266.792727 187.33788 
L 270.850909 186.962904 
L 274.909091 186.575832 
L 278.967273 186.178176 
L 283.025455 185.769936 
L 287.083636 185.352624 
L 291.141818 184.92624 
L 295.2 184.489272 
L 299.258182 184.043232 
L 303.316364 183.58812 
L 307.374545 183.125448 
L 311.432727 182.655216 
L 315.490909 182.175912 
L 319.549091 181.689048 
L 323.607273 181.196136 
L 327.665455 180.697176 
L 331.723636 180.192168 
L 335.781818 179.681112 
L 339.84 179.16552 
L 343.898182 178.645392 
L 347.956364 178.120728 
L 352.014545 177.59304 
L 356.072727 177.062328 
L 360.130909 176.530104 
L 364.189091 175.994856 
L 368.247273 175.46112 
L 372.305455 174.925872 
L 376.363636 174.392136 
L 380.421818 173.859912 
L 384.48 173.330712 
L 388.538182 172.804536 
L 392.596364 172.282896 
L 396.654545 171.767304 
L 400.712727 171.25776 
L 404.770909 170.755776 
L 408.829091 170.262864 
L 412.887273 169.780536 
L 416.945455 169.308792 
L 421.003636 168.849144 
L 425.061818 168.404616 
L 429.12 167.973696 
L 433.178182 167.56092 
L 437.236364 167.1678 
L 441.294545 166.792824 
L 445.352727 166.440528 
L 449.410909 166.112424 
L 453.469091 165.810024 
L 457.527273 165.53484 
L 461.585455 165.291408 
L 465.643636 165.084264 
L 469.701818 164.925504 
L 473.76 164.868048 
L 477.818182 164.989008 
L 481.876364 165.176496 
L 485.934545 165.351888 
L 489.992727 165.48948 
L 494.050909 165.575664 
L 498.109091 165.605904 
" clip-path="url(#p0b27c1f6dd)" style="fill: none; stroke: #000000; stroke-opacity: 0.5; stroke-linecap: square"/>
   </g>
   <g id="line2d_21">
    <path d="M 92.290909 189.17496 
L 96.349091 189.141696 
L 100.407273 189.044928 
L 104.465455 188.889192 
L 108.523636 188.68356 
L 112.581818 188.435592 
L 116.64 188.151336 
L 120.698182 187.835328 
L 124.756364 187.490592 
L 128.814545 187.120152 
L 132.872727 186.72552 
L 136.930909 186.306696 
L 140.989091 185.866704 
L 145.047273 185.404032 
L 149.105455 184.921704 
L 153.163636 184.418208 
L 157.221818 183.895056 
L 161.28 183.352248 
L 165.338182 182.789784 
L 169.396364 182.207664 
L 173.454545 181.604376 
L 177.512727 180.984456 
L 181.570909 180.343368 
L 185.629091 179.684136 
L 189.687273 179.005248 
L 193.745455 178.308216 
L 197.803636 177.591528 
L 201.861818 176.856696 
L 205.92 176.102208 
L 209.978182 175.331088 
L 214.036364 174.540312 
L 218.094545 173.731392 
L 222.152727 172.90584 
L 226.210909 172.060632 
L 230.269091 171.198792 
L 234.327273 170.32032 
L 238.385455 169.423704 
L 242.443636 168.511968 
L 246.501818 167.5836 
L 250.56 166.6386 
L 254.618182 165.679992 
L 258.676364 164.704752 
L 262.734545 163.717416 
L 266.792727 162.71496 
L 270.850909 161.70192 
L 274.909091 160.675272 
L 278.967273 159.639552 
L 283.025455 158.59476 
L 287.083636 157.542408 
L 291.141818 156.484008 
L 295.2 155.421072 
L 299.258182 154.358136 
L 303.316364 153.2952 
L 307.374545 152.2368 
L 311.432727 151.187472 
L 315.490909 150.153264 
L 319.549091 149.140224 
L 323.607273 148.158936 
L 327.665455 147.218472 
L 331.723636 146.336976 
L 335.781818 145.537128 
L 339.84 144.852192 
L 343.898182 144.327528 
L 347.956364 144.016056 
L 352.014545 143.969184 
L 356.072727 144.20052 
L 360.130909 144.681336 
L 364.189091 145.351152 
L 368.247273 146.149488 
L 372.305455 147.032496 
L 376.363636 147.963888 
L 380.421818 148.92552 
L 384.48 149.90076 
L 388.538182 150.879024 
L 392.596364 151.855776 
L 396.654545 152.821944 
L 400.712727 153.772992 
L 404.770909 154.707408 
L 408.829091 155.617632 
L 412.887273 156.503664 
L 416.945455 157.359456 
L 421.003636 158.183496 
L 425.061818 158.969736 
L 429.12 159.716664 
L 433.178182 160.421256 
L 437.236364 161.078976 
L 441.294545 161.6868 
L 445.352727 162.243216 
L 449.410909 162.743688 
L 453.469091 163.188216 
L 457.527273 163.5768 
L 461.585455 163.90944 
L 465.643636 164.190672 
L 469.701818 164.420496 
L 473.76 164.568672 
L 477.818182 164.580768 
L 481.876364 164.565648 
L 485.934545 164.564136 
L 489.992727 164.56716 
L 494.050909 164.565648 
L 498.109091 164.564136 
" clip-path="url(#p0b27c1f6dd)" style="fill: none; stroke: #000000; stroke-opacity: 0.5; stroke-linecap: square"/>
   </g>
   <g id="line2d_22">
    <path d="M 92.290909 58.420224 
L 96.349091 58.6062 
L 100.407273 59.124816 
L 104.465455 59.892912 
L 108.523636 60.8364 
L 112.581818 61.899336 
L 116.64 63.048456 
L 120.698182 64.256544 
L 124.756364 65.506968 
L 128.814545 66.789144 
L 132.872727 68.094 
L 136.930909 69.415488 
L 140.989091 70.750584 
L 145.047273 72.09324 
L 149.105455 73.444968 
L 153.163636 74.79972 
L 157.221818 76.159008 
L 161.28 77.52132 
L 165.338182 78.883632 
L 169.396364 80.247456 
L 173.454545 81.61128 
L 177.512727 82.976616 
L 181.570909 84.338928 
L 185.629091 85.70124 
L 189.687273 87.063552 
L 193.745455 88.42284 
L 197.803636 89.782128 
L 201.861818 91.139904 
L 205.92 92.494656 
L 209.978182 93.847896 
L 214.036364 95.199624 
L 218.094545 96.548328 
L 222.152727 97.89552 
L 226.210909 99.2412 
L 230.269091 100.583856 
L 234.327273 101.923488 
L 238.385455 103.260096 
L 242.443636 104.595192 
L 246.501818 105.927264 
L 250.56 107.2548 
L 254.618182 108.579312 
L 258.676364 109.9008 
L 262.734545 111.217752 
L 266.792727 112.53168 
L 270.850909 113.83956 
L 274.909091 115.142904 
L 278.967273 116.441712 
L 283.025455 117.73296 
L 287.083636 119.01816 
L 291.141818 120.2958 
L 295.2 121.56588 
L 299.258182 122.825376 
L 303.316364 124.0758 
L 307.374545 125.311104 
L 311.432727 126.5328 
L 315.490909 127.736352 
L 319.549091 128.917224 
L 323.607273 130.07088 
L 327.665455 131.188248 
L 331.723636 132.25572 
L 335.781818 133.258176 
L 339.84 134.166888 
L 343.898182 134.944056 
L 347.956364 135.585144 
L 352.014545 136.767528 
L 356.072727 137.943864 
L 360.130909 139.109616 
L 364.189091 140.266296 
L 368.247273 141.413904 
L 372.305455 142.550928 
L 376.363636 143.675856 
L 380.421818 144.788688 
L 384.48 145.887912 
L 388.538182 146.97504 
L 392.596364 148.047048 
L 396.654545 149.103936 
L 400.712727 150.144192 
L 404.770909 151.167816 
L 408.829091 152.170272 
L 412.887273 153.154584 
L 416.945455 154.116216 
L 421.003636 155.053656 
L 425.061818 155.965392 
L 429.12 156.851424 
L 433.178182 157.707216 
L 437.236364 158.531256 
L 441.294545 159.32052 
L 445.352727 160.071984 
L 449.410909 160.782624 
L 453.469091 161.449416 
L 457.527273 162.0648 
L 461.585455 162.625752 
L 465.643636 163.120176 
L 469.701818 163.535976 
L 473.76 163.855008 
L 477.818182 164.056104 
L 481.876364 164.146824 
L 485.934545 164.167992 
L 489.992727 164.163456 
L 494.050909 164.157408 
L 498.109091 164.155896 
" clip-path="url(#p0b27c1f6dd)" style="fill: none; stroke: #000000; stroke-opacity: 0.5; stroke-linecap: square"/>
   </g>
   <g id="line2d_23">
    <path d="M 92.290909 57.198528 
L 96.349091 57.316464 
L 100.407273 57.677832 
L 104.465455 58.275072 
L 108.523636 59.076432 
L 112.581818 60.036552 
L 116.64 61.111584 
L 120.698182 62.271288 
L 124.756364 63.492984 
L 128.814545 64.757016 
L 132.872727 66.054312 
L 136.930909 67.374288 
L 140.989091 68.712408 
L 145.047273 70.064136 
L 149.105455 71.423424 
L 153.163636 72.790272 
L 157.221818 74.163168 
L 161.28 75.537576 
L 165.338182 76.913496 
L 169.396364 78.29244 
L 173.454545 79.669872 
L 177.512727 81.045792 
L 181.570909 82.421712 
L 185.629091 83.79612 
L 189.687273 85.167504 
L 193.745455 86.537376 
L 197.803636 87.902712 
L 201.861818 89.266536 
L 205.92 90.627336 
L 209.978182 91.985112 
L 214.036364 93.338352 
L 218.094545 94.688568 
L 222.152727 96.034248 
L 226.210909 97.376904 
L 230.269091 98.715024 
L 234.327273 100.05012 
L 238.385455 101.38068 
L 242.443636 102.708216 
L 246.501818 104.031216 
L 250.56 105.34968 
L 254.618182 106.663608 
L 258.676364 107.974512 
L 262.734545 109.28088 
L 266.792727 110.582712 
L 270.850909 111.880008 
L 274.909091 113.172768 
L 278.967273 114.462504 
L 283.025455 115.746192 
L 287.083636 117.026856 
L 291.141818 118.301472 
L 295.2 119.573064 
L 299.258182 120.838608 
L 303.316364 122.099616 
L 307.374545 123.354576 
L 311.432727 124.605 
L 315.490909 125.849376 
L 319.549091 127.089216 
L 323.607273 128.323008 
L 327.665455 129.54924 
L 331.723636 130.770936 
L 335.781818 131.985072 
L 339.84 133.191648 
L 343.898182 134.392176 
L 347.956364 135.542808 
L 352.014545 135.926856 
L 356.072727 136.087128 
L 360.130909 136.067472 
L 364.189091 135.938952 
L 368.247273 135.774144 
L 372.305455 135.630504 
L 376.363636 135.55188 
L 380.421818 135.565488 
L 384.48 135.686448 
L 388.538182 135.923832 
L 392.596364 136.276128 
L 396.654545 136.740312 
L 400.712727 137.304288 
L 404.770909 137.958984 
L 408.829091 138.690792 
L 412.887273 139.486104 
L 416.945455 140.334336 
L 421.003636 141.22188 
L 425.061818 142.141176 
L 429.12 143.080128 
L 433.178182 144.031176 
L 437.236364 144.98676 
L 441.294545 145.937808 
L 445.352727 146.878272 
L 449.410909 147.800592 
L 453.469091 148.69872 
L 457.527273 149.563584 
L 461.585455 150.389136 
L 465.643636 151.166304 
L 469.701818 151.886016 
L 473.76 152.537688 
L 477.818182 153.115272 
L 481.876364 153.60516 
L 485.934545 153.999792 
L 489.992727 154.288584 
L 494.050909 154.463976 
L 498.109091 154.524456 
" clip-path="url(#p0b27c1f6dd)" style="fill: none; stroke: #000000; stroke-opacity: 0.5; stroke-linecap: square"/>
   </g>
   <g id="patch_3">
    <path d="M 72 384.48 
L 72 51.84 
" style="fill: none; stroke: #000000; stroke-width: 0.8; stroke-linejoin: miter; stroke-linecap: square"/>
   </g>
   <g id="patch_4">
    <path d="M 518.4 384.48 
L 518.4 51.84 
" style="fill: none; stroke: #000000; stroke-width: 0.8; stroke-linejoin: miter; stroke-linecap: square"/>
   </g>
   <g id="patch_5">
    <path d="M 72 384.48 
L 518.4 384.48 
" style="fill: none; stroke: #000000; stroke-width: 0.8; stroke-linejoin: miter; stroke-linecap: square"/>
   </g>
   <g id="patch_6">
    <path d="M 72 51.84 
L 518.4 51.84 
" style="fill: none; stroke: #000000; stroke-width: 0.8; stroke-linejoin: miter; stroke-linecap: square"/>
   </g>
  </g>
 </g>
 <defs>
  <clipPath id="p0b27c1f6dd">
   <rect x="72" y="51.84" width="446.4" height="332.64"/>
  </clipPath>
 </defs>
</svg>
