<?xml version="1.0" encoding="utf-8" standalone="no"?>
<!DOCTYPE svg PUBLIC "-//W3C//DTD SVG 1.1//EN"
  "http://www.w3.org/Graphics/SVG/1.1/DTD/svg11.dtd">
<svg xmlns:xlink="http://www.w3.org/1999/xlink" width="576pt" height="432pt" viewBox="0 0 576 432" xmlns="http://www.w3.org/2000/svg" version="1.1">
 <metadata>
  <rdf:RDF xmlns:dc="http://purl.org/dc/elements/1.1/" xmlns:cc="http://creativecommons.org/ns#" xmlns:rdf="http://www.w3.org/1999/02/22-rdf-syntax-ns#">
   <cc:Work>
    <dc:type rdf:resource="http://purl.org/dc/dcmitype/StillImage"/>
    <dc:date>2023-05-04T04:01:08.536637</dc:date>
    <dc:format>image/svg+xml</dc:format>
    <dc:creator>
     <cc:Agent>
      <dc:title>Matplotlib v3.7.1, https://matplotlib.org/</dc:title>
     </cc:Agent>
    </dc:creator>
   </cc:Work>
  </rdf:RDF>
 </metadata>
 <defs>
  <style type="text/css">*{stroke-linejoin: round; stroke-linecap: butt}</style>
 </defs>
 <g id="figure_1">
  <g id="patch_1">
   <path d="M 0 432 
L 576 432 
L 576 0 
L 0 0 
z
" style="fill: #ffffff"/>
  </g>
  <g id="axes_1">
   <g id="patch_2">
    <path d="M 72 384.48 
L 518.4 384.48 
L 518.4 51.84 
L 72 51.84 
z
" style="fill: #ffffff"/>
   </g>
   <g id="matplotlib.axis_1">
    <g id="xtick_1">
     <g id="line2d_1">
      <defs>
       <path id="mf60d09a165" d="M 0 0 
L 0 3.5 
" style="stroke: #000000; stroke-width: 0.8"/>
      </defs>
      <g>
       <use xlink:href="#mf60d09a165" x="92.290909" y="384.48" style="stroke: #000000; stroke-width: 0.8"/>
      </g>
     </g>
     <g id="text_1">
      <!-- 0.0 -->
      <g transform="translate(84.339347 399.078438) scale(0.1 -0.1)">
       <defs>
        <path id="DejaVuSans-30" d="M 2034 4250 
Q 1547 4250 1301 3770 
Q 1056 3291 1056 2328 
Q 1056 1369 1301 889 
Q 1547 409 2034 409 
Q 2525 409 2770 889 
Q 3016 1369 3016 2328 
Q 3016 3291 2770 3770 
Q 2525 4250 2034 4250 
z
M 2034 4750 
Q 2819 4750 3233 4129 
Q 3647 3509 3647 2328 
Q 3647 1150 3233 529 
Q 2819 -91 2034 -91 
Q 1250 -91 836 529 
Q 422 1150 422 2328 
Q 422 3509 836 4129 
Q 1250 4750 2034 4750 
z
" transform="scale(0.015625)"/>
        <path id="DejaVuSans-2e" d="M 684 794 
L 1344 794 
L 1344 0 
L 684 0 
L 684 794 
z
" transform="scale(0.015625)"/>
       </defs>
       <use xlink:href="#DejaVuSans-30"/>
       <use xlink:href="#DejaVuSans-2e" x="63.623047"/>
       <use xlink:href="#DejaVuSans-30" x="95.410156"/>
      </g>
     </g>
    </g>
    <g id="xtick_2">
     <g id="line2d_2">
      <g>
       <use xlink:href="#mf60d09a165" x="173.454545" y="384.48" style="stroke: #000000; stroke-width: 0.8"/>
      </g>
     </g>
     <g id="text_2">
      <!-- 0.2 -->
      <g transform="translate(165.502983 399.078438) scale(0.1 -0.1)">
       <defs>
        <path id="DejaVuSans-32" d="M 1228 531 
L 3431 531 
L 3431 0 
L 469 0 
L 469 531 
Q 828 903 1448 1529 
Q 2069 2156 2228 2338 
Q 2531 2678 2651 2914 
Q 2772 3150 2772 3378 
Q 2772 3750 2511 3984 
Q 2250 4219 1831 4219 
Q 1534 4219 1204 4116 
Q 875 4013 500 3803 
L 500 4441 
Q 881 4594 1212 4672 
Q 1544 4750 1819 4750 
Q 2544 4750 2975 4387 
Q 3406 4025 3406 3419 
Q 3406 3131 3298 2873 
Q 3191 2616 2906 2266 
Q 2828 2175 2409 1742 
Q 1991 1309 1228 531 
z
" transform="scale(0.015625)"/>
       </defs>
       <use xlink:href="#DejaVuSans-30"/>
       <use xlink:href="#DejaVuSans-2e" x="63.623047"/>
       <use xlink:href="#DejaVuSans-32" x="95.410156"/>
      </g>
     </g>
    </g>
    <g id="xtick_3">
     <g id="line2d_3">
      <g>
       <use xlink:href="#mf60d09a165" x="254.618182" y="384.48" style="stroke: #000000; stroke-width: 0.8"/>
      </g>
     </g>
     <g id="text_3">
      <!-- 0.4 -->
      <g transform="translate(246.666619 399.078438) scale(0.1 -0.1)">
       <defs>
        <path id="DejaVuSans-34" d="M 2419 4116 
L 825 1625 
L 2419 1625 
L 2419 4116 
z
M 2253 4666 
L 3047 4666 
L 3047 1625 
L 3713 1625 
L 3713 1100 
L 3047 1100 
L 3047 0 
L 2419 0 
L 2419 1100 
L 313 1100 
L 313 1709 
L 2253 4666 
z
" transform="scale(0.015625)"/>
       </defs>
       <use xlink:href="#DejaVuSans-30"/>
       <use xlink:href="#DejaVuSans-2e" x="63.623047"/>
       <use xlink:href="#DejaVuSans-34" x="95.410156"/>
      </g>
     </g>
    </g>
    <g id="xtick_4">
     <g id="line2d_4">
      <g>
       <use xlink:href="#mf60d09a165" x="335.781818" y="384.48" style="stroke: #000000; stroke-width: 0.8"/>
      </g>
     </g>
     <g id="text_4">
      <!-- 0.6 -->
      <g transform="translate(327.830256 399.078438) scale(0.1 -0.1)">
       <defs>
        <path id="DejaVuSans-36" d="M 2113 2584 
Q 1688 2584 1439 2293 
Q 1191 2003 1191 1497 
Q 1191 994 1439 701 
Q 1688 409 2113 409 
Q 2538 409 2786 701 
Q 3034 994 3034 1497 
Q 3034 2003 2786 2293 
Q 2538 2584 2113 2584 
z
M 3366 4563 
L 3366 3988 
Q 3128 4100 2886 4159 
Q 2644 4219 2406 4219 
Q 1781 4219 1451 3797 
Q 1122 3375 1075 2522 
Q 1259 2794 1537 2939 
Q 1816 3084 2150 3084 
Q 2853 3084 3261 2657 
Q 3669 2231 3669 1497 
Q 3669 778 3244 343 
Q 2819 -91 2113 -91 
Q 1303 -91 875 529 
Q 447 1150 447 2328 
Q 447 3434 972 4092 
Q 1497 4750 2381 4750 
Q 2619 4750 2861 4703 
Q 3103 4656 3366 4563 
z
" transform="scale(0.015625)"/>
       </defs>
       <use xlink:href="#DejaVuSans-30"/>
       <use xlink:href="#DejaVuSans-2e" x="63.623047"/>
       <use xlink:href="#DejaVuSans-36" x="95.410156"/>
      </g>
     </g>
    </g>
    <g id="xtick_5">
     <g id="line2d_5">
      <g>
       <use xlink:href="#mf60d09a165" x="416.945455" y="384.48" style="stroke: #000000; stroke-width: 0.8"/>
      </g>
     </g>
     <g id="text_5">
      <!-- 0.8 -->
      <g transform="translate(408.993892 399.078438) scale(0.1 -0.1)">
       <defs>
        <path id="DejaVuSans-38" d="M 2034 2216 
Q 1584 2216 1326 1975 
Q 1069 1734 1069 1313 
Q 1069 891 1326 650 
Q 1584 409 2034 409 
Q 2484 409 2743 651 
Q 3003 894 3003 1313 
Q 3003 1734 2745 1975 
Q 2488 2216 2034 2216 
z
M 1403 2484 
Q 997 2584 770 2862 
Q 544 3141 544 3541 
Q 544 4100 942 4425 
Q 1341 4750 2034 4750 
Q 2731 4750 3128 4425 
Q 3525 4100 3525 3541 
Q 3525 3141 3298 2862 
Q 3072 2584 2669 2484 
Q 3125 2378 3379 2068 
Q 3634 1759 3634 1313 
Q 3634 634 3220 271 
Q 2806 -91 2034 -91 
Q 1263 -91 848 271 
Q 434 634 434 1313 
Q 434 1759 690 2068 
Q 947 2378 1403 2484 
z
M 1172 3481 
Q 1172 3119 1398 2916 
Q 1625 2713 2034 2713 
Q 2441 2713 2670 2916 
Q 2900 3119 2900 3481 
Q 2900 3844 2670 4047 
Q 2441 4250 2034 4250 
Q 1625 4250 1398 4047 
Q 1172 3844 1172 3481 
z
" transform="scale(0.015625)"/>
       </defs>
       <use xlink:href="#DejaVuSans-30"/>
       <use xlink:href="#DejaVuSans-2e" x="63.623047"/>
       <use xlink:href="#DejaVuSans-38" x="95.410156"/>
      </g>
     </g>
    </g>
    <g id="xtick_6">
     <g id="line2d_6">
      <g>
       <use xlink:href="#mf60d09a165" x="498.109091" y="384.48" style="stroke: #000000; stroke-width: 0.8"/>
      </g>
     </g>
     <g id="text_6">
      <!-- 1.0 -->
      <g transform="translate(490.157528 399.078438) scale(0.1 -0.1)">
       <defs>
        <path id="DejaVuSans-31" d="M 794 531 
L 1825 531 
L 1825 4091 
L 703 3866 
L 703 4441 
L 1819 4666 
L 2450 4666 
L 2450 531 
L 3481 531 
L 3481 0 
L 794 0 
L 794 531 
z
" transform="scale(0.015625)"/>
       </defs>
       <use xlink:href="#DejaVuSans-31"/>
       <use xlink:href="#DejaVuSans-2e" x="63.623047"/>
       <use xlink:href="#DejaVuSans-30" x="95.410156"/>
      </g>
     </g>
    </g>
   </g>
   <g id="matplotlib.axis_2">
    <g id="ytick_1">
     <g id="line2d_7">
      <defs>
       <path id="mf1aafc29cb" d="M 0 0 
L -3.5 0 
" style="stroke: #000000; stroke-width: 0.8"/>
      </defs>
      <g>
       <use xlink:href="#mf1aafc29cb" x="72" y="369.36" style="stroke: #000000; stroke-width: 0.8"/>
      </g>
     </g>
     <g id="text_7">
      <!-- −5.0 -->
      <g transform="translate(40.717187 373.159219) scale(0.1 -0.1)">
       <defs>
        <path id="DejaVuSans-2212" d="M 678 2272 
L 4684 2272 
L 4684 1741 
L 678 1741 
L 678 2272 
z
" transform="scale(0.015625)"/>
        <path id="DejaVuSans-35" d="M 691 4666 
L 3169 4666 
L 3169 4134 
L 1269 4134 
L 1269 2991 
Q 1406 3038 1543 3061 
Q 1681 3084 1819 3084 
Q 2600 3084 3056 2656 
Q 3513 2228 3513 1497 
Q 3513 744 3044 326 
Q 2575 -91 1722 -91 
Q 1428 -91 1123 -41 
Q 819 9 494 109 
L 494 744 
Q 775 591 1075 516 
Q 1375 441 1709 441 
Q 2250 441 2565 725 
Q 2881 1009 2881 1497 
Q 2881 1984 2565 2268 
Q 2250 2553 1709 2553 
Q 1456 2553 1204 2497 
Q 953 2441 691 2322 
L 691 4666 
z
" transform="scale(0.015625)"/>
       </defs>
       <use xlink:href="#DejaVuSans-2212"/>
       <use xlink:href="#DejaVuSans-35" x="83.789062"/>
       <use xlink:href="#DejaVuSans-2e" x="147.412109"/>
       <use xlink:href="#DejaVuSans-30" x="179.199219"/>
      </g>
     </g>
    </g>
    <g id="ytick_2">
     <g id="line2d_8">
      <g>
       <use xlink:href="#mf1aafc29cb" x="72" y="331.56" style="stroke: #000000; stroke-width: 0.8"/>
      </g>
     </g>
     <g id="text_8">
      <!-- −2.5 -->
      <g transform="translate(40.717187 335.359219) scale(0.1 -0.1)">
       <use xlink:href="#DejaVuSans-2212"/>
       <use xlink:href="#DejaVuSans-32" x="83.789062"/>
       <use xlink:href="#DejaVuSans-2e" x="147.412109"/>
       <use xlink:href="#DejaVuSans-35" x="179.199219"/>
      </g>
     </g>
    </g>
    <g id="ytick_3">
     <g id="line2d_9">
      <g>
       <use xlink:href="#mf1aafc29cb" x="72" y="293.76" style="stroke: #000000; stroke-width: 0.8"/>
      </g>
     </g>
     <g id="text_9">
      <!-- 0.0 -->
      <g transform="translate(49.096875 297.559219) scale(0.1 -0.1)">
       <use xlink:href="#DejaVuSans-30"/>
       <use xlink:href="#DejaVuSans-2e" x="63.623047"/>
       <use xlink:href="#DejaVuSans-30" x="95.410156"/>
      </g>
     </g>
    </g>
    <g id="ytick_4">
     <g id="line2d_10">
      <g>
       <use xlink:href="#mf1aafc29cb" x="72" y="255.96" style="stroke: #000000; stroke-width: 0.8"/>
      </g>
     </g>
     <g id="text_10">
      <!-- 2.5 -->
      <g transform="translate(49.096875 259.759219) scale(0.1 -0.1)">
       <use xlink:href="#DejaVuSans-32"/>
       <use xlink:href="#DejaVuSans-2e" x="63.623047"/>
       <use xlink:href="#DejaVuSans-35" x="95.410156"/>
      </g>
     </g>
    </g>
    <g id="ytick_5">
     <g id="line2d_11">
      <g>
       <use xlink:href="#mf1aafc29cb" x="72" y="218.16" style="stroke: #000000; stroke-width: 0.8"/>
      </g>
     </g>
     <g id="text_11">
      <!-- 5.0 -->
      <g transform="translate(49.096875 221.959219) scale(0.1 -0.1)">
       <use xlink:href="#DejaVuSans-35"/>
       <use xlink:href="#DejaVuSans-2e" x="63.623047"/>
       <use xlink:href="#DejaVuSans-30" x="95.410156"/>
      </g>
     </g>
    </g>
    <g id="ytick_6">
     <g id="line2d_12">
      <g>
       <use xlink:href="#mf1aafc29cb" x="72" y="180.36" style="stroke: #000000; stroke-width: 0.8"/>
      </g>
     </g>
     <g id="text_12">
      <!-- 7.5 -->
      <g transform="translate(49.096875 184.159219) scale(0.1 -0.1)">
       <defs>
        <path id="DejaVuSans-37" d="M 525 4666 
L 3525 4666 
L 3525 4397 
L 1831 0 
L 1172 0 
L 2766 4134 
L 525 4134 
L 525 4666 
z
" transform="scale(0.015625)"/>
       </defs>
       <use xlink:href="#DejaVuSans-37"/>
       <use xlink:href="#DejaVuSans-2e" x="63.623047"/>
       <use xlink:href="#DejaVuSans-35" x="95.410156"/>
      </g>
     </g>
    </g>
    <g id="ytick_7">
     <g id="line2d_13">
      <g>
       <use xlink:href="#mf1aafc29cb" x="72" y="142.56" style="stroke: #000000; stroke-width: 0.8"/>
      </g>
     </g>
     <g id="text_13">
      <!-- 10.0 -->
      <g transform="translate(42.734375 146.359219) scale(0.1 -0.1)">
       <use xlink:href="#DejaVuSans-31"/>
       <use xlink:href="#DejaVuSans-30" x="63.623047"/>
       <use xlink:href="#DejaVuSans-2e" x="127.246094"/>
       <use xlink:href="#DejaVuSans-30" x="159.033203"/>
      </g>
     </g>
    </g>
    <g id="ytick_8">
     <g id="line2d_14">
      <g>
       <use xlink:href="#mf1aafc29cb" x="72" y="104.76" style="stroke: #000000; stroke-width: 0.8"/>
      </g>
     </g>
     <g id="text_14">
      <!-- 12.5 -->
      <g transform="translate(42.734375 108.559219) scale(0.1 -0.1)">
       <use xlink:href="#DejaVuSans-31"/>
       <use xlink:href="#DejaVuSans-32" x="63.623047"/>
       <use xlink:href="#DejaVuSans-2e" x="127.246094"/>
       <use xlink:href="#DejaVuSans-35" x="159.033203"/>
      </g>
     </g>
    </g>
    <g id="ytick_9">
     <g id="line2d_15">
      <g>
       <use xlink:href="#mf1aafc29cb" x="72" y="66.96" style="stroke: #000000; stroke-width: 0.8"/>
      </g>
     </g>
     <g id="text_15">
      <!-- 15.0 -->
      <g transform="translate(42.734375 70.759219) scale(0.1 -0.1)">
       <use xlink:href="#DejaVuSans-31"/>
       <use xlink:href="#DejaVuSans-35" x="63.623047"/>
       <use xlink:href="#DejaVuSans-2e" x="127.246094"/>
       <use xlink:href="#DejaVuSans-30" x="159.033203"/>
      </g>
     </g>
    </g>
   </g>
   <g id="line2d_16">
    <path d="M 92.290909 342.27252 
L 96.349091 342.269496 
L 100.407273 342.258912 
L 104.465455 342.240768 
L 108.523636 342.215064 
L 112.581818 342.183312 
L 116.64 342.142488 
L 120.698182 342.097128 
L 124.756364 342.042696 
L 128.814545 341.983728 
L 132.872727 341.915688 
L 136.930909 341.843112 
L 140.989091 341.762976 
L 145.047273 341.67528 
L 149.105455 341.583048 
L 153.163636 341.484768 
L 157.221818 341.38044 
L 161.28 341.270064 
L 165.338182 341.15364 
L 169.396364 341.03268 
L 173.454545 340.907184 
L 177.512727 340.777152 
L 181.570909 340.642584 
L 185.629091 340.50348 
L 189.687273 340.361352 
L 193.745455 340.2162 
L 197.803636 340.066512 
L 201.861818 339.915312 
L 205.92 339.7626 
L 209.978182 339.606864 
L 214.036364 339.449616 
L 218.094545 339.292368 
L 222.152727 339.133608 
L 226.210909 338.97636 
L 230.269091 338.819112 
L 234.327273 338.661864 
L 238.385455 338.50764 
L 242.443636 338.354928 
L 246.501818 338.20524 
L 250.56 338.060088 
L 254.618182 337.91796 
L 258.676364 337.780368 
L 262.734545 337.647312 
L 266.792727 337.520304 
L 270.850909 337.399344 
L 274.909091 337.285944 
L 278.967273 337.178592 
L 283.025455 337.080312 
L 287.083636 336.98808 
L 291.141818 336.906432 
L 295.2 336.832344 
L 299.258182 336.767328 
L 303.316364 336.711384 
L 307.374545 336.664512 
L 311.432727 336.626712 
L 315.490909 336.599496 
L 319.549091 336.581352 
L 323.607273 336.57228 
L 327.665455 336.57228 
L 331.723636 336.581352 
L 335.781818 336.599496 
L 339.84 336.6252 
L 343.898182 336.658464 
L 347.956364 336.699288 
L 352.014545 336.74616 
L 356.072727 336.800592 
L 360.130909 336.861072 
L 364.189091 336.926088 
L 368.247273 336.997152 
L 372.305455 337.07124 
L 376.363636 337.149864 
L 380.421818 337.231512 
L 384.48 337.314672 
L 388.538182 337.400856 
L 392.596364 337.488552 
L 396.654545 337.576248 
L 400.712727 337.665456 
L 404.770909 337.754664 
L 408.829091 337.84236 
L 412.887273 337.930056 
L 416.945455 338.01624 
L 421.003636 338.100912 
L 425.061818 338.18256 
L 429.12 338.262696 
L 433.178182 338.338296 
L 437.236364 338.412384 
L 441.294545 338.483448 
L 445.352727 338.549976 
L 449.410909 338.611968 
L 453.469091 338.670936 
L 457.527273 338.725368 
L 461.585455 338.773752 
L 465.643636 338.819112 
L 469.701818 338.858424 
L 473.76 338.8932 
L 477.818182 338.92344 
L 481.876364 338.947632 
L 485.934545 338.967288 
L 489.992727 338.980896 
L 494.050909 338.988456 
L 498.109091 338.99148 
" clip-path="url(#p655dbc7745)" style="fill: none; stroke: #000000; stroke-opacity: 0.5; stroke-linecap: square"/>
   </g>
   <g id="line2d_17">
    <path d="M 92.290909 294.007968 
L 96.349091 294.01704 
L 100.407273 294.041232 
L 104.465455 294.083568 
L 108.523636 294.141024 
L 112.581818 294.216624 
L 116.64 294.307344 
L 120.698182 294.414696 
L 124.756364 294.537168 
L 128.814545 294.676272 
L 132.872727 294.830496 
L 136.930909 294.998328 
L 140.989091 295.18128 
L 145.047273 295.37784 
L 149.105455 295.588008 
L 153.163636 295.811784 
L 157.221818 296.046144 
L 161.28 296.2926 
L 165.338182 296.54964 
L 169.396364 296.817264 
L 173.454545 297.09396 
L 177.512727 297.378216 
L 181.570909 297.66852 
L 185.629091 297.966384 
L 189.687273 298.270296 
L 193.745455 298.577232 
L 197.803636 298.888704 
L 201.861818 299.201688 
L 205.92 299.514672 
L 209.978182 299.829168 
L 214.036364 300.142152 
L 218.094545 300.453624 
L 222.152727 300.76056 
L 226.210909 301.064472 
L 230.269091 301.362336 
L 234.327273 301.654152 
L 238.385455 301.938408 
L 242.443636 302.213592 
L 246.501818 302.479704 
L 250.56 302.735232 
L 254.618182 302.978664 
L 258.676364 303.21 
L 262.734545 303.427728 
L 266.792727 303.630336 
L 270.850909 303.819336 
L 274.909091 303.991704 
L 278.967273 304.14744 
L 283.025455 304.288056 
L 287.083636 304.409016 
L 291.141818 304.511832 
L 295.2 304.598016 
L 299.258182 304.664544 
L 303.316364 304.711416 
L 307.374545 304.740144 
L 311.432727 304.750728 
L 315.490909 304.741656 
L 319.549091 304.712928 
L 323.607273 304.667568 
L 327.665455 304.604064 
L 331.723636 304.522416 
L 335.781818 304.424136 
L 339.84 304.310736 
L 343.898182 304.180704 
L 347.956364 304.037064 
L 352.014545 303.878304 
L 356.072727 303.707448 
L 360.130909 303.526008 
L 364.189091 303.333984 
L 368.247273 303.131376 
L 372.305455 302.919696 
L 376.363636 302.701968 
L 380.421818 302.478192 
L 384.48 302.248368 
L 388.538182 302.01552 
L 392.596364 301.779648 
L 396.654545 301.542264 
L 400.712727 301.30488 
L 404.770909 301.069008 
L 408.829091 300.833136 
L 412.887273 300.6018 
L 416.945455 300.373488 
L 421.003636 300.151224 
L 425.061818 299.933496 
L 429.12 299.723328 
L 433.178182 299.52072 
L 437.236364 299.327184 
L 441.294545 299.141208 
L 445.352727 298.967328 
L 449.410909 298.80252 
L 453.469091 298.648296 
L 457.527273 298.50768 
L 461.585455 298.377648 
L 465.643636 298.261224 
L 469.701818 298.156896 
L 473.76 298.066176 
L 477.818182 297.989064 
L 481.876364 297.92556 
L 485.934545 297.875664 
L 489.992727 297.840888 
L 494.050909 297.81972 
L 498.109091 297.81216 
" clip-path="url(#p655dbc7745)" style="fill: none; stroke: #000000; stroke-opacity: 0.5; stroke-linecap: square"/>
   </g>
   <g id="line2d_18">
    <path d="M 92.290909 250.775352 
L 96.349091 250.820712 
L 100.407273 250.950744 
L 104.465455 251.154864 
L 108.523636 251.414928 
L 112.581818 251.715816 
L 116.64 252.04392 
L 120.698182 252.388656 
L 124.756364 252.742464 
L 128.814545 253.097784 
L 132.872727 253.451592 
L 136.930909 253.799352 
L 140.989091 254.139552 
L 145.047273 254.469168 
L 149.105455 254.785176 
L 153.163636 255.089088 
L 157.221818 255.37788 
L 161.28 255.653064 
L 165.338182 255.911616 
L 169.396364 256.155048 
L 173.454545 256.38336 
L 177.512727 256.596552 
L 181.570909 256.793112 
L 185.629091 256.974552 
L 189.687273 257.142384 
L 193.745455 257.296608 
L 197.803636 257.437224 
L 201.861818 257.564232 
L 205.92 257.680656 
L 209.978182 257.784984 
L 214.036364 257.88024 
L 218.094545 257.964912 
L 222.152727 258.042024 
L 226.210909 258.111576 
L 230.269091 258.17508 
L 234.327273 258.234048 
L 238.385455 258.28848 
L 242.443636 258.338376 
L 246.501818 258.38676 
L 250.56 258.435144 
L 254.618182 258.480504 
L 258.676364 258.527376 
L 262.734545 258.57576 
L 266.792727 258.625656 
L 270.850909 258.677064 
L 274.909091 258.731496 
L 278.967273 258.78744 
L 283.025455 258.84792 
L 287.083636 258.909912 
L 291.141818 258.97644 
L 295.2 259.045992 
L 299.258182 259.117056 
L 303.316364 259.189632 
L 307.374545 259.265232 
L 311.432727 259.340832 
L 315.490909 259.416432 
L 319.549091 259.492032 
L 323.607273 259.567632 
L 327.665455 259.638696 
L 331.723636 259.708248 
L 335.781818 259.773264 
L 339.84 259.833744 
L 343.898182 259.888176 
L 347.956364 259.935048 
L 352.014545 259.97436 
L 356.072727 260.006112 
L 360.130909 260.02728 
L 364.189091 260.037864 
L 368.247273 260.036352 
L 372.305455 260.022744 
L 376.363636 259.995528 
L 380.421818 259.954704 
L 384.48 259.89876 
L 388.538182 259.827696 
L 392.596364 259.74 
L 396.654545 259.635672 
L 400.712727 259.514712 
L 404.770909 259.375608 
L 408.829091 259.21836 
L 412.887273 259.042968 
L 416.945455 258.84792 
L 421.003636 258.634728 
L 425.061818 258.403392 
L 429.12 258.1524 
L 433.178182 257.884776 
L 437.236364 257.599008 
L 441.294545 257.295096 
L 445.352727 256.977576 
L 449.410909 256.643424 
L 453.469091 256.297176 
L 457.527273 255.940344 
L 461.585455 255.575952 
L 465.643636 255.208536 
L 469.701818 254.839608 
L 473.76 254.479752 
L 477.818182 254.135016 
L 481.876364 253.817496 
L 485.934545 253.542312 
L 489.992727 253.326096 
L 494.050909 253.186992 
L 498.109091 253.138608 
" clip-path="url(#p655dbc7745)" style="fill: none; stroke: #000000; stroke-opacity: 0.5; stroke-linecap: square"/>
   </g>
   <g id="line2d_19">
    <path d="M 92.290909 245.19456 
L 96.349091 245.146176 
L 100.407273 245.004048 
L 104.465455 244.783296 
L 108.523636 244.500552 
L 112.581818 244.170936 
L 116.64 243.81108 
L 120.698182 243.430056 
L 124.756364 243.036936 
L 128.814545 242.640792 
L 132.872727 242.24616 
L 136.930909 241.857576 
L 140.989091 241.481088 
L 145.047273 241.118208 
L 149.105455 240.773472 
L 153.163636 240.448392 
L 157.221818 240.145992 
L 161.28 239.866272 
L 165.338182 239.612256 
L 169.396364 239.383944 
L 173.454545 239.182848 
L 177.512727 239.007456 
L 181.570909 238.85928 
L 185.629091 238.73832 
L 189.687273 238.643064 
L 193.745455 238.570488 
L 197.803636 238.522104 
L 201.861818 238.494888 
L 205.92 238.48884 
L 209.978182 238.499424 
L 214.036364 238.525128 
L 218.094545 238.565952 
L 222.152727 238.61736 
L 226.210909 238.67784 
L 230.269091 238.74588 
L 234.327273 238.818456 
L 238.385455 238.894056 
L 242.443636 238.969656 
L 246.501818 239.045256 
L 250.56 239.11632 
L 254.618182 239.182848 
L 258.676364 239.241816 
L 262.734545 239.294736 
L 266.792727 239.337072 
L 270.850909 239.370336 
L 274.909091 239.391504 
L 278.967273 239.402088 
L 283.025455 239.400576 
L 287.083636 239.386968 
L 291.141818 239.359752 
L 295.2 239.321952 
L 299.258182 239.272056 
L 303.316364 239.210064 
L 307.374545 239.139 
L 311.432727 239.058864 
L 315.490909 238.969656 
L 319.549091 238.875912 
L 323.607273 238.774608 
L 327.665455 238.67028 
L 331.723636 238.56444 
L 335.781818 238.4586 
L 339.84 238.355784 
L 343.898182 238.255992 
L 347.956364 238.162248 
L 352.014545 238.076064 
L 356.072727 238.000464 
L 360.130909 237.938472 
L 364.189091 237.890088 
L 368.247273 237.859848 
L 372.305455 237.849264 
L 376.363636 237.858336 
L 380.421818 237.8916 
L 384.48 237.950568 
L 388.538182 238.033728 
L 392.596364 238.147128 
L 396.654545 238.287744 
L 400.712727 238.4586 
L 404.770909 238.658184 
L 408.829091 238.88952 
L 412.887273 239.149584 
L 416.945455 239.439888 
L 421.003636 239.75892 
L 425.061818 240.105168 
L 429.12 240.47712 
L 433.178182 240.871752 
L 437.236364 241.289064 
L 441.294545 241.726032 
L 445.352727 242.17812 
L 449.410909 242.643816 
L 453.469091 243.120096 
L 457.527273 243.602424 
L 461.585455 244.084752 
L 465.643636 244.564056 
L 469.701818 245.032776 
L 473.76 245.48184 
L 477.818182 245.9052 
L 481.876364 246.287736 
L 485.934545 246.614328 
L 489.992727 246.868344 
L 494.050909 247.030128 
L 498.109091 247.086072 
" clip-path="url(#p655dbc7745)" style="fill: none; stroke: #000000; stroke-opacity: 0.5; stroke-linecap: square"/>
   </g>
   <g id="line2d_20">
    <path d="M 92.290909 180.8514 
L 96.349091 180.902808 
L 100.407273 181.04796 
L 104.465455 181.27476 
L 108.523636 181.559016 
L 112.581818 181.884096 
L 116.64 182.228832 
L 120.698182 182.576592 
L 124.756364 182.916792 
L 128.814545 183.235824 
L 132.872727 183.52764 
L 136.930909 183.783168 
L 140.989091 183.999384 
L 145.047273 184.17024 
L 149.105455 184.2912 
L 153.163636 184.35924 
L 157.221818 184.372848 
L 161.28 184.329 
L 165.338182 184.226184 
L 169.396364 184.0644 
L 173.454545 183.839112 
L 177.512727 183.553344 
L 181.570909 183.205584 
L 185.629091 182.797344 
L 189.687273 182.327112 
L 193.745455 181.7964 
L 197.803636 181.20672 
L 201.861818 180.559584 
L 205.92 179.856504 
L 209.978182 179.098992 
L 214.036364 178.28856 
L 218.094545 177.42672 
L 222.152727 176.516496 
L 226.210909 175.557888 
L 230.269091 174.555432 
L 234.327273 173.509128 
L 238.385455 172.422 
L 242.443636 171.29556 
L 246.501818 170.13132 
L 250.56 168.930792 
L 254.618182 167.697 
L 258.676364 166.429944 
L 262.734545 165.132648 
L 266.792727 163.806624 
L 270.850909 162.451872 
L 274.909091 161.071416 
L 278.967273 159.665256 
L 283.025455 158.234904 
L 287.083636 156.781872 
L 291.141818 155.53296 
L 295.2 157.004136 
L 299.258182 158.452632 
L 303.316364 159.87996 
L 307.374545 161.283096 
L 311.432727 162.659016 
L 315.490909 164.009232 
L 319.549091 165.329208 
L 323.607273 166.620456 
L 327.665455 167.87844 
L 331.723636 169.10316 
L 335.781818 170.293104 
L 339.84 171.445248 
L 343.898182 172.55808 
L 347.956364 173.628576 
L 352.014545 174.656736 
L 356.072727 175.641048 
L 360.130909 176.575464 
L 364.189091 177.463008 
L 368.247273 178.297632 
L 372.305455 179.077824 
L 376.363636 179.803584 
L 380.421818 180.4734 
L 384.48 181.082736 
L 388.538182 181.631592 
L 392.596364 182.119968 
L 396.654545 182.54484 
L 400.712727 182.906208 
L 404.770909 183.204072 
L 408.829091 183.438432 
L 412.887273 183.607776 
L 416.945455 183.713616 
L 421.003636 183.757464 
L 425.061818 183.740832 
L 429.12 183.662208 
L 433.178182 183.52764 
L 437.236364 183.335616 
L 441.294545 183.090672 
L 445.352727 182.795832 
L 449.410909 182.452608 
L 453.469091 182.065536 
L 457.527273 181.639152 
L 461.585455 181.177992 
L 465.643636 180.689616 
L 469.701818 180.181584 
L 473.76 179.66448 
L 477.818182 179.1504 
L 481.876364 178.660512 
L 485.934545 178.22052 
L 489.992727 177.863688 
L 494.050909 177.627816 
L 498.109091 177.544656 
" clip-path="url(#p655dbc7745)" style="fill: none; stroke: #000000; stroke-opacity: 0.5; stroke-linecap: square"/>
   </g>
   <g id="line2d_21">
    <path d="M 92.290909 170.409528 
L 96.349091 170.321832 
L 100.407273 170.066304 
L 104.465455 169.65504 
L 108.523636 169.109208 
L 112.581818 168.448464 
L 116.64 167.693976 
L 120.698182 166.85784 
L 124.756364 165.953664 
L 128.814545 164.992032 
L 132.872727 163.978992 
L 136.930909 162.920592 
L 140.989091 161.82288 
L 145.047273 160.687368 
L 149.105455 159.518592 
L 153.163636 158.319576 
L 157.221818 157.091832 
L 161.28 155.838384 
L 165.338182 154.55772 
L 169.396364 153.254376 
L 173.454545 151.929864 
L 177.512727 150.582672 
L 181.570909 149.215824 
L 185.629091 147.832344 
L 189.687273 146.429208 
L 193.745455 145.010952 
L 197.803636 143.5806 
L 201.861818 142.138152 
L 205.92 140.686632 
L 209.978182 139.236624 
L 214.036364 137.794176 
L 218.094545 136.386504 
L 222.152727 135.06804 
L 226.210909 133.999056 
L 230.269091 133.590816 
L 234.327273 134.189568 
L 238.385455 135.40824 
L 242.443636 136.85976 
L 246.501818 138.400488 
L 250.56 139.977504 
L 254.618182 141.566616 
L 258.676364 143.160264 
L 262.734545 144.747864 
L 266.792727 146.329416 
L 270.850909 147.900384 
L 274.909091 149.459256 
L 278.967273 151.003008 
L 283.025455 152.530128 
L 287.083636 154.040616 
L 291.141818 155.307672 
L 295.2 153.815328 
L 299.258182 152.301816 
L 303.316364 150.771672 
L 307.374545 149.224896 
L 311.432727 147.663 
L 315.490909 146.087496 
L 319.549091 144.498384 
L 323.607273 142.9002 
L 327.665455 141.292944 
L 331.723636 139.681152 
L 335.781818 138.06936 
L 339.84 136.462104 
L 343.898182 134.876016 
L 347.956364 133.335288 
L 352.014545 131.901912 
L 356.072727 130.740696 
L 360.130909 130.24476 
L 364.189091 130.711968 
L 368.247273 131.791536 
L 372.305455 133.116048 
L 376.363636 134.532792 
L 380.421818 135.985824 
L 384.48 137.453976 
L 388.538182 138.922128 
L 392.596364 140.385744 
L 396.654545 141.8418 
L 400.712727 143.284248 
L 404.770909 144.7146 
L 408.829091 146.129832 
L 412.887273 147.529944 
L 416.945455 148.911912 
L 421.003636 150.274224 
L 425.061818 151.618392 
L 429.12 152.942904 
L 433.178182 154.244736 
L 437.236364 155.523888 
L 441.294545 156.778848 
L 445.352727 158.006592 
L 449.410909 159.20712 
L 453.469091 160.377408 
L 457.527273 161.514432 
L 461.585455 162.613656 
L 465.643636 163.669032 
L 469.701818 164.676024 
L 473.76 165.622536 
L 477.818182 166.497984 
L 481.876364 167.282712 
L 485.934545 167.952528 
L 489.992727 168.471144 
L 494.050909 168.805296 
L 498.109091 168.92172 
" clip-path="url(#p655dbc7745)" style="fill: none; stroke: #000000; stroke-opacity: 0.5; stroke-linecap: square"/>
   </g>
   <g id="line2d_22">
    <path d="M 92.290909 107.409024 
L 96.349091 107.407512 
L 100.407273 107.404488 
L 104.465455 107.39844 
L 108.523636 107.39088 
L 112.581818 107.380296 
L 116.64 107.3682 
L 120.698182 107.354592 
L 124.756364 107.33796 
L 128.814545 107.321328 
L 132.872727 107.303184 
L 136.930909 107.28504 
L 140.989091 107.266896 
L 145.047273 107.250264 
L 149.105455 107.236656 
L 153.163636 107.227584 
L 157.221818 107.23212 
L 161.28 107.257824 
L 165.338182 107.333424 
L 169.396364 107.543592 
L 173.454545 108.113616 
L 177.512727 109.249128 
L 181.570909 110.72484 
L 185.629091 112.32756 
L 189.687273 113.978664 
L 193.745455 115.652448 
L 197.803636 117.335304 
L 201.861818 119.01816 
L 205.92 120.694968 
L 209.978182 122.356656 
L 214.036364 123.991128 
L 218.094545 125.575704 
L 222.152727 127.049904 
L 226.210909 128.254968 
L 230.269091 128.77812 
L 234.327273 128.276136 
L 238.385455 127.131552 
L 242.443636 125.73144 
L 246.501818 124.21944 
L 250.56 122.651496 
L 254.618182 121.047264 
L 258.676364 119.41884 
L 262.734545 117.772272 
L 266.792727 116.113608 
L 270.850909 114.450408 
L 274.909091 112.787208 
L 278.967273 111.14064 
L 283.025455 109.543968 
L 287.083636 108.098496 
L 291.141818 107.106624 
L 295.2 106.731648 
L 299.258182 106.628832 
L 303.316364 106.622784 
L 307.374545 106.74072 
L 311.432727 107.72352 
L 315.490909 109.300536 
L 319.549091 110.947104 
L 323.607273 112.605768 
L 327.665455 114.264432 
L 331.723636 115.911 
L 335.781818 117.540936 
L 339.84 119.145168 
L 343.898182 120.710088 
L 347.956364 122.209992 
L 352.014545 123.581376 
L 356.072727 124.660944 
L 360.130909 125.054064 
L 364.189091 124.465896 
L 368.247273 123.247224 
L 372.305455 121.765464 
L 376.363636 120.17484 
L 380.421818 118.531296 
L 384.48 116.859024 
L 388.538182 115.176168 
L 392.596364 113.4918 
L 396.654545 111.830112 
L 400.712727 110.251584 
L 404.770909 109.028376 
L 408.829091 108.576288 
L 412.887273 108.496152 
L 416.945455 108.505224 
L 421.003636 108.541512 
L 425.061818 108.588384 
L 429.12 108.63828 
L 433.178182 108.689688 
L 437.236364 108.742608 
L 441.294545 108.792504 
L 445.352727 108.839376 
L 449.410909 108.886248 
L 453.469091 108.928584 
L 457.527273 108.967896 
L 461.585455 109.005696 
L 465.643636 109.03896 
L 469.701818 109.067688 
L 473.76 109.093392 
L 477.818182 109.116072 
L 481.876364 109.134216 
L 485.934545 109.147824 
L 489.992727 109.158408 
L 494.050909 109.164456 
L 498.109091 109.165968 
" clip-path="url(#p655dbc7745)" style="fill: none; stroke: #000000; stroke-opacity: 0.5; stroke-linecap: square"/>
   </g>
   <g id="line2d_23">
    <path d="M 92.290909 82.470096 
L 96.349091 82.575936 
L 100.407273 82.887408 
L 104.465455 83.393928 
L 108.523636 84.080376 
L 112.581818 84.927096 
L 116.64 85.914432 
L 120.698182 87.022728 
L 124.756364 88.235352 
L 128.814545 89.532648 
L 132.872727 90.90252 
L 136.930909 92.334384 
L 140.989091 93.814632 
L 145.047273 95.335704 
L 149.105455 96.888528 
L 153.163636 98.464032 
L 157.221818 100.053144 
L 161.28 101.639232 
L 165.338182 103.190544 
L 169.396364 104.622408 
L 173.454545 105.701976 
L 177.512727 106.22664 
L 181.570909 106.417152 
L 185.629091 106.48368 
L 189.687273 106.503336 
L 193.745455 106.500312 
L 197.803636 106.485192 
L 201.861818 106.464024 
L 205.92 106.439832 
L 209.978182 106.412616 
L 214.036364 106.383888 
L 218.094545 106.356672 
L 222.152727 106.329456 
L 226.210909 106.30224 
L 230.269091 106.276536 
L 234.327273 106.253856 
L 238.385455 106.231176 
L 242.443636 106.21152 
L 246.501818 106.193376 
L 250.56 106.178256 
L 254.618182 106.164648 
L 258.676364 106.152552 
L 262.734545 106.141968 
L 266.792727 106.131384 
L 270.850909 106.119288 
L 274.909091 106.102656 
L 278.967273 106.072416 
L 283.025455 106.002864 
L 287.083636 105.816888 
L 291.141818 105.260472 
L 295.2 104.335128 
L 299.258182 103.901184 
L 303.316364 104.611824 
L 307.374545 105.869808 
L 311.432727 106.482168 
L 315.490909 106.5744 
L 319.549091 106.630344 
L 323.607273 106.683264 
L 327.665455 106.737696 
L 331.723636 106.795152 
L 335.781818 106.855632 
L 339.84 106.917624 
L 343.898182 106.98264 
L 347.956364 107.049168 
L 352.014545 107.11872 
L 356.072727 107.188272 
L 360.130909 107.260848 
L 364.189091 107.333424 
L 368.247273 107.406 
L 372.305455 107.478576 
L 376.363636 107.54964 
L 380.421818 107.619192 
L 384.48 107.684208 
L 388.538182 107.743176 
L 392.596364 107.790048 
L 396.654545 107.808192 
L 400.712727 107.73864 
L 404.770909 107.310744 
L 408.829091 106.111728 
L 412.887273 104.543784 
L 416.945455 102.889656 
L 421.003636 101.21436 
L 425.061818 99.539064 
L 429.12 97.869816 
L 433.178182 96.212664 
L 437.236364 94.575168 
L 441.294545 92.960352 
L 445.352727 91.375776 
L 449.410909 89.824464 
L 453.469091 88.317 
L 457.527273 86.859432 
L 461.585455 85.463856 
L 465.643636 84.140856 
L 469.701818 82.905552 
L 473.76 81.773064 
L 477.818182 80.763048 
L 481.876364 79.89516 
L 485.934545 79.19208 
L 489.992727 78.671952 
L 494.050909 78.351408 
L 498.109091 78.244056 
" clip-path="url(#p655dbc7745)" style="fill: none; stroke: #000000; stroke-opacity: 0.5; stroke-linecap: square"/>
   </g>
   <g id="patch_3">
    <path d="M 72 384.48 
L 72 51.84 
" style="fill: none; stroke: #000000; stroke-width: 0.8; stroke-linejoin: miter; stroke-linecap: square"/>
   </g>
   <g id="patch_4">
    <path d="M 518.4 384.48 
L 518.4 51.84 
" style="fill: none; stroke: #000000; stroke-width: 0.8; stroke-linejoin: miter; stroke-linecap: square"/>
   </g>
   <g id="patch_5">
    <path d="M 72 384.48 
L 518.4 384.48 
" style="fill: none; stroke: #000000; stroke-width: 0.8; stroke-linejoin: miter; stroke-linecap: square"/>
   </g>
   <g id="patch_6">
    <path d="M 72 51.84 
L 518.4 51.84 
" style="fill: none; stroke: #000000; stroke-width: 0.8; stroke-linejoin: miter; stroke-linecap: square"/>
   </g>
  </g>
 </g>
 <defs>
  <clipPath id="p655dbc7745">
   <rect x="72" y="51.84" width="446.4" height="332.64"/>
  </clipPath>
 </defs>
</svg>
