<?xml version="1.0" encoding="utf-8" standalone="no"?>
<!DOCTYPE svg PUBLIC "-//W3C//DTD SVG 1.1//EN"
  "http://www.w3.org/Graphics/SVG/1.1/DTD/svg11.dtd">
<svg xmlns:xlink="http://www.w3.org/1999/xlink" width="576pt" height="432pt" viewBox="0 0 576 432" xmlns="http://www.w3.org/2000/svg" version="1.1">
 <metadata>
  <rdf:RDF xmlns:dc="http://purl.org/dc/elements/1.1/" xmlns:cc="http://creativecommons.org/ns#" xmlns:rdf="http://www.w3.org/1999/02/22-rdf-syntax-ns#">
   <cc:Work>
    <dc:type rdf:resource="http://purl.org/dc/dcmitype/StillImage"/>
    <dc:date>2023-05-03T18:02:21.121240</dc:date>
    <dc:format>image/svg+xml</dc:format>
    <dc:creator>
     <cc:Agent>
      <dc:title>Matplotlib v3.7.1, https://matplotlib.org/</dc:title>
     </cc:Agent>
    </dc:creator>
   </cc:Work>
  </rdf:RDF>
 </metadata>
 <defs>
  <style type="text/css">*{stroke-linejoin: round; stroke-linecap: butt}</style>
 </defs>
 <g id="figure_1">
  <g id="patch_1">
   <path d="M 0 432 
L 576 432 
L 576 0 
L 0 0 
z
" style="fill: #ffffff"/>
  </g>
  <g id="axes_1">
   <g id="patch_2">
    <path d="M 72 384.48 
L 518.4 384.48 
L 518.4 51.84 
L 72 51.84 
z
" style="fill: #ffffff"/>
   </g>
   <g id="matplotlib.axis_1">
    <g id="xtick_1">
     <g id="line2d_1">
      <defs>
       <path id="m79f1cd1a63" d="M 0 0 
L 0 3.5 
" style="stroke: #000000; stroke-width: 0.8"/>
      </defs>
      <g>
       <use xlink:href="#m79f1cd1a63" x="92.290909" y="384.48" style="stroke: #000000; stroke-width: 0.8"/>
      </g>
     </g>
     <g id="text_1">
      <!-- 0.0 -->
      <g transform="translate(84.339347 399.078438) scale(0.1 -0.1)">
       <defs>
        <path id="DejaVuSans-30" d="M 2034 4250 
Q 1547 4250 1301 3770 
Q 1056 3291 1056 2328 
Q 1056 1369 1301 889 
Q 1547 409 2034 409 
Q 2525 409 2770 889 
Q 3016 1369 3016 2328 
Q 3016 3291 2770 3770 
Q 2525 4250 2034 4250 
z
M 2034 4750 
Q 2819 4750 3233 4129 
Q 3647 3509 3647 2328 
Q 3647 1150 3233 529 
Q 2819 -91 2034 -91 
Q 1250 -91 836 529 
Q 422 1150 422 2328 
Q 422 3509 836 4129 
Q 1250 4750 2034 4750 
z
" transform="scale(0.015625)"/>
        <path id="DejaVuSans-2e" d="M 684 794 
L 1344 794 
L 1344 0 
L 684 0 
L 684 794 
z
" transform="scale(0.015625)"/>
       </defs>
       <use xlink:href="#DejaVuSans-30"/>
       <use xlink:href="#DejaVuSans-2e" x="63.623047"/>
       <use xlink:href="#DejaVuSans-30" x="95.410156"/>
      </g>
     </g>
    </g>
    <g id="xtick_2">
     <g id="line2d_2">
      <g>
       <use xlink:href="#m79f1cd1a63" x="173.454545" y="384.48" style="stroke: #000000; stroke-width: 0.8"/>
      </g>
     </g>
     <g id="text_2">
      <!-- 0.2 -->
      <g transform="translate(165.502983 399.078438) scale(0.1 -0.1)">
       <defs>
        <path id="DejaVuSans-32" d="M 1228 531 
L 3431 531 
L 3431 0 
L 469 0 
L 469 531 
Q 828 903 1448 1529 
Q 2069 2156 2228 2338 
Q 2531 2678 2651 2914 
Q 2772 3150 2772 3378 
Q 2772 3750 2511 3984 
Q 2250 4219 1831 4219 
Q 1534 4219 1204 4116 
Q 875 4013 500 3803 
L 500 4441 
Q 881 4594 1212 4672 
Q 1544 4750 1819 4750 
Q 2544 4750 2975 4387 
Q 3406 4025 3406 3419 
Q 3406 3131 3298 2873 
Q 3191 2616 2906 2266 
Q 2828 2175 2409 1742 
Q 1991 1309 1228 531 
z
" transform="scale(0.015625)"/>
       </defs>
       <use xlink:href="#DejaVuSans-30"/>
       <use xlink:href="#DejaVuSans-2e" x="63.623047"/>
       <use xlink:href="#DejaVuSans-32" x="95.410156"/>
      </g>
     </g>
    </g>
    <g id="xtick_3">
     <g id="line2d_3">
      <g>
       <use xlink:href="#m79f1cd1a63" x="254.618182" y="384.48" style="stroke: #000000; stroke-width: 0.8"/>
      </g>
     </g>
     <g id="text_3">
      <!-- 0.4 -->
      <g transform="translate(246.666619 399.078438) scale(0.1 -0.1)">
       <defs>
        <path id="DejaVuSans-34" d="M 2419 4116 
L 825 1625 
L 2419 1625 
L 2419 4116 
z
M 2253 4666 
L 3047 4666 
L 3047 1625 
L 3713 1625 
L 3713 1100 
L 3047 1100 
L 3047 0 
L 2419 0 
L 2419 1100 
L 313 1100 
L 313 1709 
L 2253 4666 
z
" transform="scale(0.015625)"/>
       </defs>
       <use xlink:href="#DejaVuSans-30"/>
       <use xlink:href="#DejaVuSans-2e" x="63.623047"/>
       <use xlink:href="#DejaVuSans-34" x="95.410156"/>
      </g>
     </g>
    </g>
    <g id="xtick_4">
     <g id="line2d_4">
      <g>
       <use xlink:href="#m79f1cd1a63" x="335.781818" y="384.48" style="stroke: #000000; stroke-width: 0.8"/>
      </g>
     </g>
     <g id="text_4">
      <!-- 0.6 -->
      <g transform="translate(327.830256 399.078438) scale(0.1 -0.1)">
       <defs>
        <path id="DejaVuSans-36" d="M 2113 2584 
Q 1688 2584 1439 2293 
Q 1191 2003 1191 1497 
Q 1191 994 1439 701 
Q 1688 409 2113 409 
Q 2538 409 2786 701 
Q 3034 994 3034 1497 
Q 3034 2003 2786 2293 
Q 2538 2584 2113 2584 
z
M 3366 4563 
L 3366 3988 
Q 3128 4100 2886 4159 
Q 2644 4219 2406 4219 
Q 1781 4219 1451 3797 
Q 1122 3375 1075 2522 
Q 1259 2794 1537 2939 
Q 1816 3084 2150 3084 
Q 2853 3084 3261 2657 
Q 3669 2231 3669 1497 
Q 3669 778 3244 343 
Q 2819 -91 2113 -91 
Q 1303 -91 875 529 
Q 447 1150 447 2328 
Q 447 3434 972 4092 
Q 1497 4750 2381 4750 
Q 2619 4750 2861 4703 
Q 3103 4656 3366 4563 
z
" transform="scale(0.015625)"/>
       </defs>
       <use xlink:href="#DejaVuSans-30"/>
       <use xlink:href="#DejaVuSans-2e" x="63.623047"/>
       <use xlink:href="#DejaVuSans-36" x="95.410156"/>
      </g>
     </g>
    </g>
    <g id="xtick_5">
     <g id="line2d_5">
      <g>
       <use xlink:href="#m79f1cd1a63" x="416.945455" y="384.48" style="stroke: #000000; stroke-width: 0.8"/>
      </g>
     </g>
     <g id="text_5">
      <!-- 0.8 -->
      <g transform="translate(408.993892 399.078438) scale(0.1 -0.1)">
       <defs>
        <path id="DejaVuSans-38" d="M 2034 2216 
Q 1584 2216 1326 1975 
Q 1069 1734 1069 1313 
Q 1069 891 1326 650 
Q 1584 409 2034 409 
Q 2484 409 2743 651 
Q 3003 894 3003 1313 
Q 3003 1734 2745 1975 
Q 2488 2216 2034 2216 
z
M 1403 2484 
Q 997 2584 770 2862 
Q 544 3141 544 3541 
Q 544 4100 942 4425 
Q 1341 4750 2034 4750 
Q 2731 4750 3128 4425 
Q 3525 4100 3525 3541 
Q 3525 3141 3298 2862 
Q 3072 2584 2669 2484 
Q 3125 2378 3379 2068 
Q 3634 1759 3634 1313 
Q 3634 634 3220 271 
Q 2806 -91 2034 -91 
Q 1263 -91 848 271 
Q 434 634 434 1313 
Q 434 1759 690 2068 
Q 947 2378 1403 2484 
z
M 1172 3481 
Q 1172 3119 1398 2916 
Q 1625 2713 2034 2713 
Q 2441 2713 2670 2916 
Q 2900 3119 2900 3481 
Q 2900 3844 2670 4047 
Q 2441 4250 2034 4250 
Q 1625 4250 1398 4047 
Q 1172 3844 1172 3481 
z
" transform="scale(0.015625)"/>
       </defs>
       <use xlink:href="#DejaVuSans-30"/>
       <use xlink:href="#DejaVuSans-2e" x="63.623047"/>
       <use xlink:href="#DejaVuSans-38" x="95.410156"/>
      </g>
     </g>
    </g>
    <g id="xtick_6">
     <g id="line2d_6">
      <g>
       <use xlink:href="#m79f1cd1a63" x="498.109091" y="384.48" style="stroke: #000000; stroke-width: 0.8"/>
      </g>
     </g>
     <g id="text_6">
      <!-- 1.0 -->
      <g transform="translate(490.157528 399.078438) scale(0.1 -0.1)">
       <defs>
        <path id="DejaVuSans-31" d="M 794 531 
L 1825 531 
L 1825 4091 
L 703 3866 
L 703 4441 
L 1819 4666 
L 2450 4666 
L 2450 531 
L 3481 531 
L 3481 0 
L 794 0 
L 794 531 
z
" transform="scale(0.015625)"/>
       </defs>
       <use xlink:href="#DejaVuSans-31"/>
       <use xlink:href="#DejaVuSans-2e" x="63.623047"/>
       <use xlink:href="#DejaVuSans-30" x="95.410156"/>
      </g>
     </g>
    </g>
   </g>
   <g id="matplotlib.axis_2">
    <g id="ytick_1">
     <g id="line2d_7">
      <defs>
       <path id="mfb1df9c87c" d="M 0 0 
L -3.5 0 
" style="stroke: #000000; stroke-width: 0.8"/>
      </defs>
      <g>
       <use xlink:href="#mfb1df9c87c" x="72" y="369.36" style="stroke: #000000; stroke-width: 0.8"/>
      </g>
     </g>
     <g id="text_7">
      <!-- −5.0 -->
      <g transform="translate(40.717187 373.159219) scale(0.1 -0.1)">
       <defs>
        <path id="DejaVuSans-2212" d="M 678 2272 
L 4684 2272 
L 4684 1741 
L 678 1741 
L 678 2272 
z
" transform="scale(0.015625)"/>
        <path id="DejaVuSans-35" d="M 691 4666 
L 3169 4666 
L 3169 4134 
L 1269 4134 
L 1269 2991 
Q 1406 3038 1543 3061 
Q 1681 3084 1819 3084 
Q 2600 3084 3056 2656 
Q 3513 2228 3513 1497 
Q 3513 744 3044 326 
Q 2575 -91 1722 -91 
Q 1428 -91 1123 -41 
Q 819 9 494 109 
L 494 744 
Q 775 591 1075 516 
Q 1375 441 1709 441 
Q 2250 441 2565 725 
Q 2881 1009 2881 1497 
Q 2881 1984 2565 2268 
Q 2250 2553 1709 2553 
Q 1456 2553 1204 2497 
Q 953 2441 691 2322 
L 691 4666 
z
" transform="scale(0.015625)"/>
       </defs>
       <use xlink:href="#DejaVuSans-2212"/>
       <use xlink:href="#DejaVuSans-35" x="83.789062"/>
       <use xlink:href="#DejaVuSans-2e" x="147.412109"/>
       <use xlink:href="#DejaVuSans-30" x="179.199219"/>
      </g>
     </g>
    </g>
    <g id="ytick_2">
     <g id="line2d_8">
      <g>
       <use xlink:href="#mfb1df9c87c" x="72" y="331.56" style="stroke: #000000; stroke-width: 0.8"/>
      </g>
     </g>
     <g id="text_8">
      <!-- −2.5 -->
      <g transform="translate(40.717187 335.359219) scale(0.1 -0.1)">
       <use xlink:href="#DejaVuSans-2212"/>
       <use xlink:href="#DejaVuSans-32" x="83.789062"/>
       <use xlink:href="#DejaVuSans-2e" x="147.412109"/>
       <use xlink:href="#DejaVuSans-35" x="179.199219"/>
      </g>
     </g>
    </g>
    <g id="ytick_3">
     <g id="line2d_9">
      <g>
       <use xlink:href="#mfb1df9c87c" x="72" y="293.76" style="stroke: #000000; stroke-width: 0.8"/>
      </g>
     </g>
     <g id="text_9">
      <!-- 0.0 -->
      <g transform="translate(49.096875 297.559219) scale(0.1 -0.1)">
       <use xlink:href="#DejaVuSans-30"/>
       <use xlink:href="#DejaVuSans-2e" x="63.623047"/>
       <use xlink:href="#DejaVuSans-30" x="95.410156"/>
      </g>
     </g>
    </g>
    <g id="ytick_4">
     <g id="line2d_10">
      <g>
       <use xlink:href="#mfb1df9c87c" x="72" y="255.96" style="stroke: #000000; stroke-width: 0.8"/>
      </g>
     </g>
     <g id="text_10">
      <!-- 2.5 -->
      <g transform="translate(49.096875 259.759219) scale(0.1 -0.1)">
       <use xlink:href="#DejaVuSans-32"/>
       <use xlink:href="#DejaVuSans-2e" x="63.623047"/>
       <use xlink:href="#DejaVuSans-35" x="95.410156"/>
      </g>
     </g>
    </g>
    <g id="ytick_5">
     <g id="line2d_11">
      <g>
       <use xlink:href="#mfb1df9c87c" x="72" y="218.16" style="stroke: #000000; stroke-width: 0.8"/>
      </g>
     </g>
     <g id="text_11">
      <!-- 5.0 -->
      <g transform="translate(49.096875 221.959219) scale(0.1 -0.1)">
       <use xlink:href="#DejaVuSans-35"/>
       <use xlink:href="#DejaVuSans-2e" x="63.623047"/>
       <use xlink:href="#DejaVuSans-30" x="95.410156"/>
      </g>
     </g>
    </g>
    <g id="ytick_6">
     <g id="line2d_12">
      <g>
       <use xlink:href="#mfb1df9c87c" x="72" y="180.36" style="stroke: #000000; stroke-width: 0.8"/>
      </g>
     </g>
     <g id="text_12">
      <!-- 7.5 -->
      <g transform="translate(49.096875 184.159219) scale(0.1 -0.1)">
       <defs>
        <path id="DejaVuSans-37" d="M 525 4666 
L 3525 4666 
L 3525 4397 
L 1831 0 
L 1172 0 
L 2766 4134 
L 525 4134 
L 525 4666 
z
" transform="scale(0.015625)"/>
       </defs>
       <use xlink:href="#DejaVuSans-37"/>
       <use xlink:href="#DejaVuSans-2e" x="63.623047"/>
       <use xlink:href="#DejaVuSans-35" x="95.410156"/>
      </g>
     </g>
    </g>
    <g id="ytick_7">
     <g id="line2d_13">
      <g>
       <use xlink:href="#mfb1df9c87c" x="72" y="142.56" style="stroke: #000000; stroke-width: 0.8"/>
      </g>
     </g>
     <g id="text_13">
      <!-- 10.0 -->
      <g transform="translate(42.734375 146.359219) scale(0.1 -0.1)">
       <use xlink:href="#DejaVuSans-31"/>
       <use xlink:href="#DejaVuSans-30" x="63.623047"/>
       <use xlink:href="#DejaVuSans-2e" x="127.246094"/>
       <use xlink:href="#DejaVuSans-30" x="159.033203"/>
      </g>
     </g>
    </g>
    <g id="ytick_8">
     <g id="line2d_14">
      <g>
       <use xlink:href="#mfb1df9c87c" x="72" y="104.76" style="stroke: #000000; stroke-width: 0.8"/>
      </g>
     </g>
     <g id="text_14">
      <!-- 12.5 -->
      <g transform="translate(42.734375 108.559219) scale(0.1 -0.1)">
       <use xlink:href="#DejaVuSans-31"/>
       <use xlink:href="#DejaVuSans-32" x="63.623047"/>
       <use xlink:href="#DejaVuSans-2e" x="127.246094"/>
       <use xlink:href="#DejaVuSans-35" x="159.033203"/>
      </g>
     </g>
    </g>
    <g id="ytick_9">
     <g id="line2d_15">
      <g>
       <use xlink:href="#mfb1df9c87c" x="72" y="66.96" style="stroke: #000000; stroke-width: 0.8"/>
      </g>
     </g>
     <g id="text_15">
      <!-- 15.0 -->
      <g transform="translate(42.734375 70.759219) scale(0.1 -0.1)">
       <use xlink:href="#DejaVuSans-31"/>
       <use xlink:href="#DejaVuSans-35" x="63.623047"/>
       <use xlink:href="#DejaVuSans-2e" x="127.246094"/>
       <use xlink:href="#DejaVuSans-30" x="159.033203"/>
      </g>
     </g>
    </g>
   </g>
   <g id="line2d_16">
    <path d="M 92.290909 353.12868 
L 96.349091 353.124144 
L 100.407273 353.112048 
L 104.465455 353.09088 
L 108.523636 353.06064 
L 112.581818 353.02284 
L 116.64 352.975968 
L 120.698182 352.921536 
L 124.756364 352.859544 
L 128.814545 352.78848 
L 132.872727 352.709856 
L 136.930909 352.62216 
L 140.989091 352.526904 
L 145.047273 352.4256 
L 149.105455 352.315224 
L 153.163636 352.197288 
L 157.221818 352.071792 
L 161.28 351.940248 
L 165.338182 351.801144 
L 169.396364 351.655992 
L 173.454545 351.50328 
L 177.512727 351.346032 
L 181.570909 351.181224 
L 185.629091 351.010368 
L 189.687273 350.834976 
L 193.745455 350.653536 
L 197.803636 350.46756 
L 201.861818 350.277048 
L 205.92 350.083512 
L 209.978182 349.883928 
L 214.036364 349.682832 
L 218.094545 349.4772 
L 222.152727 349.270056 
L 226.210909 349.059888 
L 230.269091 348.84972 
L 234.327273 348.636528 
L 238.385455 348.423336 
L 242.443636 348.210144 
L 246.501818 347.998464 
L 250.56 347.786784 
L 254.618182 347.576616 
L 258.676364 347.369472 
L 262.734545 347.16384 
L 266.792727 346.962744 
L 270.850909 346.766184 
L 274.909091 346.572648 
L 278.967273 346.38516 
L 283.025455 346.205232 
L 287.083636 346.02984 
L 291.141818 345.862008 
L 295.2 345.701736 
L 299.258182 345.549024 
L 303.316364 345.405384 
L 307.374545 345.270816 
L 311.432727 345.14532 
L 315.490909 345.030408 
L 319.549091 344.924568 
L 323.607273 344.8278 
L 327.665455 344.741616 
L 331.723636 344.666016 
L 335.781818 344.601 
L 339.84 344.545056 
L 343.898182 344.498184 
L 347.956364 344.461896 
L 352.014545 344.43468 
L 356.072727 344.416536 
L 360.130909 344.405952 
L 364.189091 344.40444 
L 368.247273 344.410488 
L 372.305455 344.422584 
L 376.363636 344.44224 
L 380.421818 344.467944 
L 384.48 344.498184 
L 388.538182 344.534472 
L 392.596364 344.573784 
L 396.654545 344.617632 
L 400.712727 344.662992 
L 404.770909 344.712888 
L 408.829091 344.762784 
L 412.887273 344.815704 
L 416.945455 344.868624 
L 421.003636 344.923056 
L 425.061818 344.977488 
L 429.12 345.030408 
L 433.178182 345.083328 
L 437.236364 345.134736 
L 441.294545 345.184632 
L 445.352727 345.233016 
L 449.410909 345.278376 
L 453.469091 345.320712 
L 457.527273 345.361536 
L 461.585455 345.397824 
L 465.643636 345.4326 
L 469.701818 345.46284 
L 473.76 345.488544 
L 477.818182 345.511224 
L 481.876364 345.53088 
L 485.934545 345.544488 
L 489.992727 345.555072 
L 494.050909 345.56112 
L 498.109091 345.564144 
" clip-path="url(#pcb71964311)" style="fill: none; stroke: #000000; stroke-opacity: 0.5; stroke-linecap: square"/>
   </g>
   <g id="line2d_17">
    <path d="M 92.290909 281.772864 
L 96.349091 281.80764 
L 100.407273 281.91348 
L 104.465455 282.085848 
L 108.523636 282.323232 
L 112.581818 282.621096 
L 116.64 282.973392 
L 120.698182 283.378608 
L 124.756364 283.827672 
L 128.814545 284.31756 
L 132.872727 284.840712 
L 136.930909 285.395616 
L 140.989091 285.976224 
L 145.047273 286.578 
L 149.105455 287.196408 
L 153.163636 287.831448 
L 157.221818 288.47556 
L 161.28 289.128744 
L 165.338182 289.787976 
L 169.396364 290.450232 
L 173.454545 291.114 
L 177.512727 291.777768 
L 181.570909 292.440024 
L 185.629091 293.097744 
L 189.687273 293.750928 
L 193.745455 294.398064 
L 197.803636 295.036128 
L 201.861818 295.666632 
L 205.92 296.286552 
L 209.978182 296.895888 
L 214.036364 297.493128 
L 218.094545 298.07676 
L 222.152727 298.646784 
L 226.210909 299.201688 
L 230.269091 299.741472 
L 234.327273 300.264624 
L 238.385455 300.769632 
L 242.443636 301.258008 
L 246.501818 301.725216 
L 250.56 302.17428 
L 254.618182 302.602176 
L 258.676364 303.008904 
L 262.734545 303.392952 
L 266.792727 303.755832 
L 270.850909 304.093008 
L 274.909091 304.405992 
L 278.967273 304.694784 
L 283.025455 304.957872 
L 287.083636 305.193744 
L 291.141818 305.403912 
L 295.2 305.586864 
L 299.258182 305.741088 
L 303.316364 305.866584 
L 307.374545 305.963352 
L 311.432727 306.032904 
L 315.490909 306.070704 
L 319.549091 306.081288 
L 323.607273 306.061632 
L 327.665455 306.013248 
L 331.723636 305.934624 
L 335.781818 305.827272 
L 339.84 305.691192 
L 343.898182 305.527896 
L 347.956364 305.335872 
L 352.014545 305.116632 
L 356.072727 304.871688 
L 360.130909 304.60104 
L 364.189091 304.304688 
L 368.247273 303.984144 
L 372.305455 303.64092 
L 376.363636 303.275016 
L 380.421818 302.889456 
L 384.48 302.482728 
L 388.538182 302.059368 
L 392.596364 301.617864 
L 396.654545 301.159728 
L 400.712727 300.689496 
L 404.770909 300.204144 
L 408.829091 299.70972 
L 412.887273 299.206224 
L 416.945455 298.693656 
L 421.003636 298.176552 
L 425.061818 297.657936 
L 429.12 297.136296 
L 433.178182 296.61768 
L 437.236364 296.102088 
L 441.294545 295.594056 
L 445.352727 295.096608 
L 449.410909 294.612768 
L 453.469091 294.14556 
L 457.527273 293.69952 
L 461.585455 293.277672 
L 465.643636 292.884552 
L 469.701818 292.526208 
L 473.76 292.20264 
L 477.818182 291.921408 
L 481.876364 291.685536 
L 485.934545 291.498048 
L 489.992727 291.361968 
L 494.050909 291.278808 
L 498.109091 291.251592 
" clip-path="url(#pcb71964311)" style="fill: none; stroke: #000000; stroke-opacity: 0.5; stroke-linecap: square"/>
   </g>
   <g id="line2d_18">
    <path d="M 92.290909 254.34972 
L 96.349091 254.308896 
L 100.407273 254.19096 
L 104.465455 253.997424 
L 108.523636 253.7298 
L 112.581818 253.394136 
L 116.64 252.994968 
L 120.698182 252.536832 
L 124.756364 252.025776 
L 128.814545 251.467848 
L 132.872727 250.869096 
L 136.930909 250.234056 
L 140.989091 249.567264 
L 145.047273 248.874768 
L 149.105455 248.159592 
L 153.163636 247.427784 
L 157.221818 246.68388 
L 161.28 245.92788 
L 165.338182 245.167344 
L 169.396364 244.403784 
L 173.454545 243.641736 
L 177.512727 242.884224 
L 181.570909 242.13276 
L 185.629091 241.393392 
L 189.687273 240.669144 
L 193.745455 239.961528 
L 197.803636 239.27508 
L 201.861818 238.612824 
L 205.92 237.980808 
L 209.978182 237.380544 
L 214.036364 236.816568 
L 218.094545 236.291904 
L 222.152727 235.811088 
L 226.210909 235.375632 
L 230.269091 234.987048 
L 234.327273 234.649872 
L 238.385455 234.362592 
L 242.443636 234.125208 
L 246.501818 233.936208 
L 250.56 233.79408 
L 254.618182 233.6958 
L 258.676364 233.638344 
L 262.734545 233.6202 
L 266.792727 233.636832 
L 270.850909 233.68824 
L 274.909091 233.7714 
L 278.967273 233.881776 
L 283.025455 234.022392 
L 287.083636 234.1872 
L 291.141818 234.377712 
L 295.2 234.592416 
L 299.258182 234.831312 
L 303.316364 235.091376 
L 307.374545 235.375632 
L 311.432727 235.679544 
L 315.490909 236.007648 
L 319.549091 236.355408 
L 323.607273 236.725848 
L 327.665455 237.118968 
L 331.723636 237.533256 
L 335.781818 237.968712 
L 339.84 238.426848 
L 343.898182 238.907664 
L 347.956364 239.41116 
L 352.014545 239.935824 
L 356.072727 240.483168 
L 360.130909 241.053192 
L 364.189091 241.644384 
L 368.247273 242.256744 
L 372.305455 242.88876 
L 376.363636 243.540432 
L 380.421818 244.210248 
L 384.48 244.898208 
L 388.538182 245.599776 
L 392.596364 246.316464 
L 396.654545 247.043736 
L 400.712727 247.781592 
L 404.770909 248.527008 
L 408.829091 249.278472 
L 412.887273 250.03296 
L 416.945455 250.787448 
L 421.003636 251.538912 
L 425.061818 252.287352 
L 429.12 253.02672 
L 433.178182 253.755504 
L 437.236364 254.47068 
L 441.294545 255.167712 
L 445.352727 255.843576 
L 449.410909 256.495248 
L 453.469091 257.118192 
L 457.527273 257.70636 
L 461.585455 258.25824 
L 465.643636 258.769296 
L 469.701818 259.23348 
L 473.76 259.646256 
L 477.818182 260.006112 
L 481.876364 260.305488 
L 485.934545 260.542872 
L 489.992727 260.713728 
L 494.050909 260.818056 
L 498.109091 260.852832 
" clip-path="url(#pcb71964311)" style="fill: none; stroke: #000000; stroke-opacity: 0.5; stroke-linecap: square"/>
   </g>
   <g id="line2d_19">
    <path d="M 92.290909 229.678416 
L 96.349091 229.676904 
L 100.407273 229.669344 
L 104.465455 229.65876 
L 108.523636 229.64364 
L 112.581818 229.625496 
L 116.64 229.601304 
L 120.698182 229.574088 
L 124.756364 229.542336 
L 128.814545 229.50756 
L 132.872727 229.468248 
L 136.930909 229.425912 
L 140.989091 229.37904 
L 145.047273 229.329144 
L 149.105455 229.276224 
L 153.163636 229.218768 
L 157.221818 229.158288 
L 161.28 229.096296 
L 165.338182 229.028256 
L 169.396364 228.958704 
L 173.454545 228.886128 
L 177.512727 228.809016 
L 181.570909 228.727368 
L 185.629091 228.642696 
L 189.687273 228.553488 
L 193.745455 228.458232 
L 197.803636 228.356928 
L 201.861818 228.249576 
L 205.92 228.133152 
L 209.978182 228.007656 
L 214.036364 227.873088 
L 218.094545 227.726424 
L 222.152727 227.566152 
L 226.210909 227.395296 
L 230.269091 227.210832 
L 234.327273 227.014272 
L 238.385455 226.807128 
L 242.443636 226.590912 
L 246.501818 226.371672 
L 250.56 226.15092 
L 254.618182 225.933192 
L 258.676364 225.721512 
L 262.734545 225.521928 
L 266.792727 225.337464 
L 270.850909 225.171144 
L 274.909091 225.025992 
L 278.967273 224.905032 
L 283.025455 224.811288 
L 287.083636 224.74476 
L 291.141818 224.70696 
L 295.2 224.700912 
L 299.258182 224.723592 
L 303.316364 224.778024 
L 307.374545 224.862696 
L 311.432727 224.977608 
L 315.490909 225.121248 
L 319.549091 225.292104 
L 323.607273 225.488664 
L 327.665455 225.710928 
L 331.723636 225.95436 
L 335.781818 226.217448 
L 339.84 226.49868 
L 343.898182 226.795032 
L 347.956364 227.10348 
L 352.014545 227.422512 
L 356.072727 227.749104 
L 360.130909 228.080232 
L 364.189091 228.414384 
L 368.247273 228.748536 
L 372.305455 229.082688 
L 376.363636 229.413816 
L 380.421818 229.738896 
L 384.48 230.057928 
L 388.538182 230.370912 
L 392.596364 230.673312 
L 396.654545 230.968152 
L 400.712727 231.252408 
L 404.770909 231.527592 
L 408.829091 231.79068 
L 412.887273 232.043184 
L 416.945455 232.283592 
L 421.003636 232.513416 
L 425.061818 232.729632 
L 429.12 232.935264 
L 433.178182 233.130312 
L 437.236364 233.311752 
L 441.294545 233.481096 
L 445.352727 233.639856 
L 449.410909 233.785008 
L 453.469091 233.919576 
L 457.527273 234.042048 
L 461.585455 234.152424 
L 465.643636 234.252216 
L 469.701818 234.339912 
L 473.76 234.414 
L 477.818182 234.479016 
L 481.876364 234.530424 
L 485.934545 234.571248 
L 489.992727 234.599976 
L 494.050909 234.61812 
L 498.109091 234.624168 
" clip-path="url(#pcb71964311)" style="fill: none; stroke: #000000; stroke-opacity: 0.5; stroke-linecap: square"/>
   </g>
   <g id="line2d_20">
    <path d="M 92.290909 156.248136 
L 96.349091 156.310128 
L 100.407273 156.494592 
L 104.465455 156.789432 
L 108.523636 157.179528 
L 112.581818 157.648248 
L 116.64 158.17896 
L 120.698182 158.755032 
L 124.756364 159.367392 
L 128.814545 160.002432 
L 132.872727 160.652592 
L 136.930909 161.310312 
L 140.989091 161.969544 
L 145.047273 162.62424 
L 149.105455 163.271376 
L 153.163636 163.907928 
L 157.221818 164.52936 
L 161.28 165.13416 
L 165.338182 165.719304 
L 169.396364 166.281768 
L 173.454545 166.821552 
L 177.512727 167.335632 
L 181.570909 167.824008 
L 185.629091 168.283656 
L 189.687273 168.714576 
L 193.745455 169.115256 
L 197.803636 169.485696 
L 201.861818 169.822872 
L 205.92 170.129808 
L 209.978182 170.40348 
L 214.036364 170.643888 
L 218.094545 170.854056 
L 222.152727 171.03096 
L 226.210909 171.177624 
L 230.269091 171.29556 
L 234.327273 171.384768 
L 238.385455 171.448272 
L 242.443636 171.489096 
L 246.501818 171.510264 
L 250.56 171.513288 
L 254.618182 171.502704 
L 258.676364 171.48456 
L 262.734545 171.460368 
L 266.792727 171.436176 
L 270.850909 171.415008 
L 274.909091 171.398376 
L 278.967273 171.390816 
L 283.025455 171.392328 
L 287.083636 171.402912 
L 291.141818 171.419544 
L 295.2 171.443736 
L 299.258182 171.467928 
L 303.316364 171.490608 
L 307.374545 171.50724 
L 311.432727 171.513288 
L 315.490909 171.505728 
L 319.549091 171.477 
L 323.607273 171.427104 
L 327.665455 171.353016 
L 331.723636 171.2502 
L 335.781818 171.117144 
L 339.84 170.953848 
L 343.898182 170.757288 
L 347.956364 170.527464 
L 352.014545 170.264376 
L 356.072727 169.966512 
L 360.130909 169.633872 
L 364.189091 169.26948 
L 368.247273 168.870312 
L 372.305455 168.439392 
L 376.363636 167.975208 
L 380.421818 167.480784 
L 384.48 166.95612 
L 388.538182 166.401216 
L 392.596364 165.819096 
L 396.654545 165.20976 
L 400.712727 164.57472 
L 404.770909 163.915488 
L 408.829091 163.232064 
L 412.887273 162.52596 
L 416.945455 161.801712 
L 421.003636 161.057808 
L 425.061818 160.300296 
L 429.12 159.530688 
L 433.178182 158.756544 
L 437.236364 157.986936 
L 441.294545 157.247568 
L 445.352727 156.59136 
L 449.410909 156.124152 
L 453.469091 155.900376 
L 457.527273 155.832336 
L 461.585455 155.829312 
L 465.643636 155.853504 
L 469.701818 155.885256 
L 473.76 155.91852 
L 477.818182 155.951784 
L 481.876364 155.979 
L 485.934545 156.00168 
L 489.992727 156.018312 
L 494.050909 156.027384 
L 498.109091 156.030408 
" clip-path="url(#pcb71964311)" style="fill: none; stroke: #000000; stroke-opacity: 0.5; stroke-linecap: square"/>
   </g>
   <g id="line2d_21">
    <path d="M 92.290909 150.916824 
L 96.349091 150.910776 
L 100.407273 150.895656 
L 104.465455 150.871464 
L 108.523636 150.842736 
L 112.581818 150.809472 
L 116.64 150.77772 
L 120.698182 150.744456 
L 124.756364 150.712704 
L 128.814545 150.682464 
L 132.872727 150.653736 
L 136.930909 150.62652 
L 140.989091 150.599304 
L 145.047273 150.576624 
L 149.105455 150.553944 
L 153.163636 150.5358 
L 157.221818 150.52068 
L 161.28 150.510096 
L 165.338182 150.50556 
L 169.396364 150.50556 
L 173.454545 150.514632 
L 177.512727 150.531264 
L 181.570909 150.55848 
L 185.629091 150.59628 
L 189.687273 150.6492 
L 193.745455 150.71724 
L 197.803636 150.803424 
L 201.861818 150.910776 
L 205.92 151.039296 
L 209.978182 151.195032 
L 214.036364 151.376472 
L 218.094545 151.588152 
L 222.152727 151.82856 
L 226.210909 152.099208 
L 230.269091 152.398584 
L 234.327273 152.719128 
L 238.385455 153.059328 
L 242.443636 153.410112 
L 246.501818 153.76392 
L 250.56 154.110168 
L 254.618182 154.438272 
L 258.676364 154.73916 
L 262.734545 155.00376 
L 266.792727 155.221488 
L 270.850909 155.386296 
L 274.909091 155.490624 
L 278.967273 155.529936 
L 283.025455 155.50272 
L 287.083636 155.408976 
L 291.141818 155.251728 
L 295.2 155.035512 
L 299.258182 154.767888 
L 303.316364 154.457928 
L 307.374545 154.117728 
L 311.432727 153.76392 
L 315.490909 153.411624 
L 319.549091 153.077472 
L 323.607273 152.779608 
L 327.665455 152.528616 
L 331.723636 152.33508 
L 335.781818 152.199 
L 339.84 152.118864 
L 343.898182 152.087112 
L 347.956364 152.096184 
L 352.014545 152.140032 
L 356.072727 152.212608 
L 360.130909 152.30484 
L 364.189091 152.415216 
L 368.247273 152.5392 
L 372.305455 152.673768 
L 376.363636 152.815896 
L 380.421818 152.96256 
L 384.48 153.112248 
L 388.538182 153.26496 
L 392.596364 153.419184 
L 396.654545 153.571896 
L 400.712727 153.723096 
L 404.770909 153.871272 
L 408.829091 154.016424 
L 412.887273 154.15704 
L 416.945455 154.291608 
L 421.003636 154.418616 
L 425.061818 154.536552 
L 429.12 154.643904 
L 433.178182 154.734624 
L 437.236364 154.798128 
L 441.294545 154.813248 
L 445.352727 154.728576 
L 449.410909 154.441296 
L 453.469091 153.9 
L 457.527273 153.19692 
L 461.585455 152.4258 
L 465.643636 151.636536 
L 469.701818 150.851808 
L 473.76 150.092784 
L 477.818182 149.37912 
L 481.876364 148.733496 
L 485.934545 148.181616 
L 489.992727 147.755232 
L 494.050909 147.484584 
L 498.109091 147.39084 
" clip-path="url(#pcb71964311)" style="fill: none; stroke: #000000; stroke-opacity: 0.5; stroke-linecap: square"/>
   </g>
   <g id="line2d_22">
    <path d="M 92.290909 138.845016 
L 96.349091 138.767904 
L 100.407273 138.539592 
L 104.465455 138.170664 
L 108.523636 137.671704 
L 112.581818 137.05632 
L 116.64 136.344168 
L 120.698182 135.54432 
L 124.756364 134.673408 
L 128.814545 133.742016 
L 132.872727 132.76224 
L 136.930909 131.743152 
L 140.989091 130.699872 
L 145.047273 129.652056 
L 149.105455 128.639016 
L 153.163636 127.754496 
L 157.221818 127.244952 
L 161.28 127.405224 
L 165.338182 128.078064 
L 169.396364 128.968632 
L 173.454545 129.943872 
L 177.512727 130.949352 
L 181.570909 131.963904 
L 185.629091 132.97392 
L 189.687273 133.97184 
L 193.745455 134.950104 
L 197.803636 135.905688 
L 201.861818 136.82952 
L 205.92 137.718576 
L 209.978182 138.566808 
L 214.036364 139.371192 
L 218.094545 140.127192 
L 222.152727 140.82876 
L 226.210909 141.475896 
L 230.269091 142.067088 
L 234.327273 142.600824 
L 238.385455 143.08164 
L 242.443636 143.509536 
L 246.501818 143.889048 
L 250.56 144.226224 
L 254.618182 144.5256 
L 258.676364 144.791712 
L 262.734545 145.029096 
L 266.792727 145.242288 
L 270.850909 145.431288 
L 274.909091 145.602144 
L 278.967273 145.753344 
L 283.025455 145.887912 
L 287.083636 146.002824 
L 291.141818 146.099592 
L 295.2 146.17368 
L 299.258182 146.220552 
L 303.316364 146.235672 
L 307.374545 146.21148 
L 311.432727 146.13588 
L 315.490909 145.9998 
L 319.549091 145.789632 
L 323.607273 145.491768 
L 327.665455 145.101672 
L 331.723636 144.610272 
L 335.781818 144.022104 
L 339.84 143.343216 
L 343.898182 142.58268 
L 347.956364 141.749568 
L 352.014545 140.854464 
L 356.072727 139.904928 
L 360.130909 138.910032 
L 364.189091 137.874312 
L 368.247273 136.805328 
L 372.305455 135.707616 
L 376.363636 134.5842 
L 380.421818 133.438104 
L 384.48 132.273864 
L 388.538182 131.094504 
L 392.596364 129.901536 
L 396.654545 128.697984 
L 400.712727 127.488384 
L 404.770909 126.274248 
L 408.829091 125.060112 
L 412.887273 123.853536 
L 416.945455 122.665104 
L 421.003636 121.517496 
L 425.061818 120.472704 
L 429.12 119.724264 
L 433.178182 119.727288 
L 437.236364 120.505968 
L 441.294545 121.585536 
L 445.352727 122.754312 
L 449.410909 123.941232 
L 453.469091 125.122104 
L 457.527273 126.28332 
L 461.585455 127.412784 
L 465.643636 128.502936 
L 469.701818 129.54168 
L 473.76 130.515408 
L 477.818182 131.410512 
L 481.876364 132.2028 
L 485.934545 132.866568 
L 489.992727 133.373088 
L 494.050909 133.693632 
L 498.109091 133.802496 
" clip-path="url(#pcb71964311)" style="fill: none; stroke: #000000; stroke-opacity: 0.5; stroke-linecap: square"/>
   </g>
   <g id="line2d_23">
    <path d="M 92.290909 112.988304 
L 96.349091 113.06088 
L 100.407273 113.27256 
L 104.465455 113.618808 
L 108.523636 114.086016 
L 112.581818 114.665112 
L 116.64 115.339464 
L 120.698182 116.093952 
L 124.756364 116.91648 
L 128.814545 117.794952 
L 132.872727 118.714248 
L 136.930909 119.662272 
L 140.989091 120.623904 
L 145.047273 121.577976 
L 149.105455 122.482152 
L 153.163636 123.241176 
L 157.221818 123.605568 
L 161.28 123.280488 
L 165.338182 122.42016 
L 169.396364 121.317912 
L 173.454545 120.1068 
L 177.512727 118.83672 
L 181.570909 117.52884 
L 185.629091 116.192232 
L 189.687273 114.832944 
L 193.745455 113.457024 
L 197.803636 112.064472 
L 201.861818 110.661336 
L 205.92 109.246104 
L 209.978182 107.823312 
L 214.036364 106.39296 
L 218.094545 104.958072 
L 222.152727 103.52016 
L 226.210909 102.08376 
L 230.269091 100.648872 
L 234.327273 99.21852 
L 238.385455 97.798752 
L 242.443636 96.39108 
L 246.501818 95.001552 
L 250.56 93.634704 
L 254.618182 92.299608 
L 258.676364 91.002312 
L 262.734545 89.754912 
L 266.792727 88.56648 
L 270.850909 87.449112 
L 274.909091 86.417928 
L 278.967273 85.486536 
L 283.025455 84.66552 
L 287.083636 83.965464 
L 291.141818 83.392416 
L 295.2 82.947888 
L 299.258182 82.634904 
L 303.316364 82.453464 
L 307.374545 82.403568 
L 311.432727 82.491264 
L 315.490909 82.718064 
L 319.549091 83.090016 
L 323.607273 83.608632 
L 327.665455 84.273912 
L 331.723636 85.07376 
L 335.781818 85.999104 
L 339.84 87.030288 
L 343.898182 88.152192 
L 347.956364 89.349696 
L 352.014545 90.606168 
L 356.072727 91.909512 
L 360.130909 93.249144 
L 364.189091 94.619016 
L 368.247273 96.008544 
L 372.305455 97.414704 
L 376.363636 98.831448 
L 380.421818 100.25424 
L 384.48 101.680056 
L 388.538182 103.107384 
L 392.596364 104.531688 
L 396.654545 105.949944 
L 400.712727 107.36064 
L 404.770909 108.75924 
L 408.829091 110.144232 
L 412.887273 111.506544 
L 416.945455 112.838616 
L 421.003636 114.116256 
L 425.061818 115.278984 
L 429.12 116.134776 
L 433.178182 116.227008 
L 437.236364 115.536024 
L 441.294545 114.53508 
L 445.352727 113.440392 
L 449.410909 112.32 
L 453.469091 111.205656 
L 457.527273 110.110968 
L 461.585455 109.048032 
L 465.643636 108.030456 
L 469.701818 107.071848 
L 473.76 106.184304 
L 477.818182 105.385968 
L 481.876364 104.694984 
L 485.934545 104.129496 
L 489.992727 103.70916 
L 494.050909 103.449096 
L 498.109091 103.3614 
" clip-path="url(#pcb71964311)" style="fill: none; stroke: #000000; stroke-opacity: 0.5; stroke-linecap: square"/>
   </g>
   <g id="patch_3">
    <path d="M 72 384.48 
L 72 51.84 
" style="fill: none; stroke: #000000; stroke-width: 0.8; stroke-linejoin: miter; stroke-linecap: square"/>
   </g>
   <g id="patch_4">
    <path d="M 518.4 384.48 
L 518.4 51.84 
" style="fill: none; stroke: #000000; stroke-width: 0.8; stroke-linejoin: miter; stroke-linecap: square"/>
   </g>
   <g id="patch_5">
    <path d="M 72 384.48 
L 518.4 384.48 
" style="fill: none; stroke: #000000; stroke-width: 0.8; stroke-linejoin: miter; stroke-linecap: square"/>
   </g>
   <g id="patch_6">
    <path d="M 72 51.84 
L 518.4 51.84 
" style="fill: none; stroke: #000000; stroke-width: 0.8; stroke-linejoin: miter; stroke-linecap: square"/>
   </g>
  </g>
 </g>
 <defs>
  <clipPath id="pcb71964311">
   <rect x="72" y="51.84" width="446.4" height="332.64"/>
  </clipPath>
 </defs>
</svg>
