<?xml version="1.0" encoding="utf-8" standalone="no"?>
<!DOCTYPE svg PUBLIC "-//W3C//DTD SVG 1.1//EN"
  "http://www.w3.org/Graphics/SVG/1.1/DTD/svg11.dtd">
<svg xmlns:xlink="http://www.w3.org/1999/xlink" width="576pt" height="432pt" viewBox="0 0 576 432" xmlns="http://www.w3.org/2000/svg" version="1.1">
 <metadata>
  <rdf:RDF xmlns:dc="http://purl.org/dc/elements/1.1/" xmlns:cc="http://creativecommons.org/ns#" xmlns:rdf="http://www.w3.org/1999/02/22-rdf-syntax-ns#">
   <cc:Work>
    <dc:type rdf:resource="http://purl.org/dc/dcmitype/StillImage"/>
    <dc:date>2023-05-04T00:52:38.592799</dc:date>
    <dc:format>image/svg+xml</dc:format>
    <dc:creator>
     <cc:Agent>
      <dc:title>Matplotlib v3.7.1, https://matplotlib.org/</dc:title>
     </cc:Agent>
    </dc:creator>
   </cc:Work>
  </rdf:RDF>
 </metadata>
 <defs>
  <style type="text/css">*{stroke-linejoin: round; stroke-linecap: butt}</style>
 </defs>
 <g id="figure_1">
  <g id="patch_1">
   <path d="M 0 432 
L 576 432 
L 576 0 
L 0 0 
z
" style="fill: #ffffff"/>
  </g>
  <g id="axes_1">
   <g id="patch_2">
    <path d="M 72 384.48 
L 518.4 384.48 
L 518.4 51.84 
L 72 51.84 
z
" style="fill: #ffffff"/>
   </g>
   <g id="matplotlib.axis_1">
    <g id="xtick_1">
     <g id="line2d_1">
      <defs>
       <path id="me61e162d22" d="M 0 0 
L 0 3.5 
" style="stroke: #000000; stroke-width: 0.8"/>
      </defs>
      <g>
       <use xlink:href="#me61e162d22" x="92.290909" y="384.48" style="stroke: #000000; stroke-width: 0.8"/>
      </g>
     </g>
     <g id="text_1">
      <!-- 0.0 -->
      <g transform="translate(84.339347 399.078438) scale(0.1 -0.1)">
       <defs>
        <path id="DejaVuSans-30" d="M 2034 4250 
Q 1547 4250 1301 3770 
Q 1056 3291 1056 2328 
Q 1056 1369 1301 889 
Q 1547 409 2034 409 
Q 2525 409 2770 889 
Q 3016 1369 3016 2328 
Q 3016 3291 2770 3770 
Q 2525 4250 2034 4250 
z
M 2034 4750 
Q 2819 4750 3233 4129 
Q 3647 3509 3647 2328 
Q 3647 1150 3233 529 
Q 2819 -91 2034 -91 
Q 1250 -91 836 529 
Q 422 1150 422 2328 
Q 422 3509 836 4129 
Q 1250 4750 2034 4750 
z
" transform="scale(0.015625)"/>
        <path id="DejaVuSans-2e" d="M 684 794 
L 1344 794 
L 1344 0 
L 684 0 
L 684 794 
z
" transform="scale(0.015625)"/>
       </defs>
       <use xlink:href="#DejaVuSans-30"/>
       <use xlink:href="#DejaVuSans-2e" x="63.623047"/>
       <use xlink:href="#DejaVuSans-30" x="95.410156"/>
      </g>
     </g>
    </g>
    <g id="xtick_2">
     <g id="line2d_2">
      <g>
       <use xlink:href="#me61e162d22" x="173.454545" y="384.48" style="stroke: #000000; stroke-width: 0.8"/>
      </g>
     </g>
     <g id="text_2">
      <!-- 0.2 -->
      <g transform="translate(165.502983 399.078438) scale(0.1 -0.1)">
       <defs>
        <path id="DejaVuSans-32" d="M 1228 531 
L 3431 531 
L 3431 0 
L 469 0 
L 469 531 
Q 828 903 1448 1529 
Q 2069 2156 2228 2338 
Q 2531 2678 2651 2914 
Q 2772 3150 2772 3378 
Q 2772 3750 2511 3984 
Q 2250 4219 1831 4219 
Q 1534 4219 1204 4116 
Q 875 4013 500 3803 
L 500 4441 
Q 881 4594 1212 4672 
Q 1544 4750 1819 4750 
Q 2544 4750 2975 4387 
Q 3406 4025 3406 3419 
Q 3406 3131 3298 2873 
Q 3191 2616 2906 2266 
Q 2828 2175 2409 1742 
Q 1991 1309 1228 531 
z
" transform="scale(0.015625)"/>
       </defs>
       <use xlink:href="#DejaVuSans-30"/>
       <use xlink:href="#DejaVuSans-2e" x="63.623047"/>
       <use xlink:href="#DejaVuSans-32" x="95.410156"/>
      </g>
     </g>
    </g>
    <g id="xtick_3">
     <g id="line2d_3">
      <g>
       <use xlink:href="#me61e162d22" x="254.618182" y="384.48" style="stroke: #000000; stroke-width: 0.8"/>
      </g>
     </g>
     <g id="text_3">
      <!-- 0.4 -->
      <g transform="translate(246.666619 399.078438) scale(0.1 -0.1)">
       <defs>
        <path id="DejaVuSans-34" d="M 2419 4116 
L 825 1625 
L 2419 1625 
L 2419 4116 
z
M 2253 4666 
L 3047 4666 
L 3047 1625 
L 3713 1625 
L 3713 1100 
L 3047 1100 
L 3047 0 
L 2419 0 
L 2419 1100 
L 313 1100 
L 313 1709 
L 2253 4666 
z
" transform="scale(0.015625)"/>
       </defs>
       <use xlink:href="#DejaVuSans-30"/>
       <use xlink:href="#DejaVuSans-2e" x="63.623047"/>
       <use xlink:href="#DejaVuSans-34" x="95.410156"/>
      </g>
     </g>
    </g>
    <g id="xtick_4">
     <g id="line2d_4">
      <g>
       <use xlink:href="#me61e162d22" x="335.781818" y="384.48" style="stroke: #000000; stroke-width: 0.8"/>
      </g>
     </g>
     <g id="text_4">
      <!-- 0.6 -->
      <g transform="translate(327.830256 399.078438) scale(0.1 -0.1)">
       <defs>
        <path id="DejaVuSans-36" d="M 2113 2584 
Q 1688 2584 1439 2293 
Q 1191 2003 1191 1497 
Q 1191 994 1439 701 
Q 1688 409 2113 409 
Q 2538 409 2786 701 
Q 3034 994 3034 1497 
Q 3034 2003 2786 2293 
Q 2538 2584 2113 2584 
z
M 3366 4563 
L 3366 3988 
Q 3128 4100 2886 4159 
Q 2644 4219 2406 4219 
Q 1781 4219 1451 3797 
Q 1122 3375 1075 2522 
Q 1259 2794 1537 2939 
Q 1816 3084 2150 3084 
Q 2853 3084 3261 2657 
Q 3669 2231 3669 1497 
Q 3669 778 3244 343 
Q 2819 -91 2113 -91 
Q 1303 -91 875 529 
Q 447 1150 447 2328 
Q 447 3434 972 4092 
Q 1497 4750 2381 4750 
Q 2619 4750 2861 4703 
Q 3103 4656 3366 4563 
z
" transform="scale(0.015625)"/>
       </defs>
       <use xlink:href="#DejaVuSans-30"/>
       <use xlink:href="#DejaVuSans-2e" x="63.623047"/>
       <use xlink:href="#DejaVuSans-36" x="95.410156"/>
      </g>
     </g>
    </g>
    <g id="xtick_5">
     <g id="line2d_5">
      <g>
       <use xlink:href="#me61e162d22" x="416.945455" y="384.48" style="stroke: #000000; stroke-width: 0.8"/>
      </g>
     </g>
     <g id="text_5">
      <!-- 0.8 -->
      <g transform="translate(408.993892 399.078438) scale(0.1 -0.1)">
       <defs>
        <path id="DejaVuSans-38" d="M 2034 2216 
Q 1584 2216 1326 1975 
Q 1069 1734 1069 1313 
Q 1069 891 1326 650 
Q 1584 409 2034 409 
Q 2484 409 2743 651 
Q 3003 894 3003 1313 
Q 3003 1734 2745 1975 
Q 2488 2216 2034 2216 
z
M 1403 2484 
Q 997 2584 770 2862 
Q 544 3141 544 3541 
Q 544 4100 942 4425 
Q 1341 4750 2034 4750 
Q 2731 4750 3128 4425 
Q 3525 4100 3525 3541 
Q 3525 3141 3298 2862 
Q 3072 2584 2669 2484 
Q 3125 2378 3379 2068 
Q 3634 1759 3634 1313 
Q 3634 634 3220 271 
Q 2806 -91 2034 -91 
Q 1263 -91 848 271 
Q 434 634 434 1313 
Q 434 1759 690 2068 
Q 947 2378 1403 2484 
z
M 1172 3481 
Q 1172 3119 1398 2916 
Q 1625 2713 2034 2713 
Q 2441 2713 2670 2916 
Q 2900 3119 2900 3481 
Q 2900 3844 2670 4047 
Q 2441 4250 2034 4250 
Q 1625 4250 1398 4047 
Q 1172 3844 1172 3481 
z
" transform="scale(0.015625)"/>
       </defs>
       <use xlink:href="#DejaVuSans-30"/>
       <use xlink:href="#DejaVuSans-2e" x="63.623047"/>
       <use xlink:href="#DejaVuSans-38" x="95.410156"/>
      </g>
     </g>
    </g>
    <g id="xtick_6">
     <g id="line2d_6">
      <g>
       <use xlink:href="#me61e162d22" x="498.109091" y="384.48" style="stroke: #000000; stroke-width: 0.8"/>
      </g>
     </g>
     <g id="text_6">
      <!-- 1.0 -->
      <g transform="translate(490.157528 399.078438) scale(0.1 -0.1)">
       <defs>
        <path id="DejaVuSans-31" d="M 794 531 
L 1825 531 
L 1825 4091 
L 703 3866 
L 703 4441 
L 1819 4666 
L 2450 4666 
L 2450 531 
L 3481 531 
L 3481 0 
L 794 0 
L 794 531 
z
" transform="scale(0.015625)"/>
       </defs>
       <use xlink:href="#DejaVuSans-31"/>
       <use xlink:href="#DejaVuSans-2e" x="63.623047"/>
       <use xlink:href="#DejaVuSans-30" x="95.410156"/>
      </g>
     </g>
    </g>
   </g>
   <g id="matplotlib.axis_2">
    <g id="ytick_1">
     <g id="line2d_7">
      <defs>
       <path id="m78c8c84d26" d="M 0 0 
L -3.5 0 
" style="stroke: #000000; stroke-width: 0.8"/>
      </defs>
      <g>
       <use xlink:href="#m78c8c84d26" x="72" y="369.36" style="stroke: #000000; stroke-width: 0.8"/>
      </g>
     </g>
     <g id="text_7">
      <!-- −5.0 -->
      <g transform="translate(40.717187 373.159219) scale(0.1 -0.1)">
       <defs>
        <path id="DejaVuSans-2212" d="M 678 2272 
L 4684 2272 
L 4684 1741 
L 678 1741 
L 678 2272 
z
" transform="scale(0.015625)"/>
        <path id="DejaVuSans-35" d="M 691 4666 
L 3169 4666 
L 3169 4134 
L 1269 4134 
L 1269 2991 
Q 1406 3038 1543 3061 
Q 1681 3084 1819 3084 
Q 2600 3084 3056 2656 
Q 3513 2228 3513 1497 
Q 3513 744 3044 326 
Q 2575 -91 1722 -91 
Q 1428 -91 1123 -41 
Q 819 9 494 109 
L 494 744 
Q 775 591 1075 516 
Q 1375 441 1709 441 
Q 2250 441 2565 725 
Q 2881 1009 2881 1497 
Q 2881 1984 2565 2268 
Q 2250 2553 1709 2553 
Q 1456 2553 1204 2497 
Q 953 2441 691 2322 
L 691 4666 
z
" transform="scale(0.015625)"/>
       </defs>
       <use xlink:href="#DejaVuSans-2212"/>
       <use xlink:href="#DejaVuSans-35" x="83.789062"/>
       <use xlink:href="#DejaVuSans-2e" x="147.412109"/>
       <use xlink:href="#DejaVuSans-30" x="179.199219"/>
      </g>
     </g>
    </g>
    <g id="ytick_2">
     <g id="line2d_8">
      <g>
       <use xlink:href="#m78c8c84d26" x="72" y="331.56" style="stroke: #000000; stroke-width: 0.8"/>
      </g>
     </g>
     <g id="text_8">
      <!-- −2.5 -->
      <g transform="translate(40.717187 335.359219) scale(0.1 -0.1)">
       <use xlink:href="#DejaVuSans-2212"/>
       <use xlink:href="#DejaVuSans-32" x="83.789062"/>
       <use xlink:href="#DejaVuSans-2e" x="147.412109"/>
       <use xlink:href="#DejaVuSans-35" x="179.199219"/>
      </g>
     </g>
    </g>
    <g id="ytick_3">
     <g id="line2d_9">
      <g>
       <use xlink:href="#m78c8c84d26" x="72" y="293.76" style="stroke: #000000; stroke-width: 0.8"/>
      </g>
     </g>
     <g id="text_9">
      <!-- 0.0 -->
      <g transform="translate(49.096875 297.559219) scale(0.1 -0.1)">
       <use xlink:href="#DejaVuSans-30"/>
       <use xlink:href="#DejaVuSans-2e" x="63.623047"/>
       <use xlink:href="#DejaVuSans-30" x="95.410156"/>
      </g>
     </g>
    </g>
    <g id="ytick_4">
     <g id="line2d_10">
      <g>
       <use xlink:href="#m78c8c84d26" x="72" y="255.96" style="stroke: #000000; stroke-width: 0.8"/>
      </g>
     </g>
     <g id="text_10">
      <!-- 2.5 -->
      <g transform="translate(49.096875 259.759219) scale(0.1 -0.1)">
       <use xlink:href="#DejaVuSans-32"/>
       <use xlink:href="#DejaVuSans-2e" x="63.623047"/>
       <use xlink:href="#DejaVuSans-35" x="95.410156"/>
      </g>
     </g>
    </g>
    <g id="ytick_5">
     <g id="line2d_11">
      <g>
       <use xlink:href="#m78c8c84d26" x="72" y="218.16" style="stroke: #000000; stroke-width: 0.8"/>
      </g>
     </g>
     <g id="text_11">
      <!-- 5.0 -->
      <g transform="translate(49.096875 221.959219) scale(0.1 -0.1)">
       <use xlink:href="#DejaVuSans-35"/>
       <use xlink:href="#DejaVuSans-2e" x="63.623047"/>
       <use xlink:href="#DejaVuSans-30" x="95.410156"/>
      </g>
     </g>
    </g>
    <g id="ytick_6">
     <g id="line2d_12">
      <g>
       <use xlink:href="#m78c8c84d26" x="72" y="180.36" style="stroke: #000000; stroke-width: 0.8"/>
      </g>
     </g>
     <g id="text_12">
      <!-- 7.5 -->
      <g transform="translate(49.096875 184.159219) scale(0.1 -0.1)">
       <defs>
        <path id="DejaVuSans-37" d="M 525 4666 
L 3525 4666 
L 3525 4397 
L 1831 0 
L 1172 0 
L 2766 4134 
L 525 4134 
L 525 4666 
z
" transform="scale(0.015625)"/>
       </defs>
       <use xlink:href="#DejaVuSans-37"/>
       <use xlink:href="#DejaVuSans-2e" x="63.623047"/>
       <use xlink:href="#DejaVuSans-35" x="95.410156"/>
      </g>
     </g>
    </g>
    <g id="ytick_7">
     <g id="line2d_13">
      <g>
       <use xlink:href="#m78c8c84d26" x="72" y="142.56" style="stroke: #000000; stroke-width: 0.8"/>
      </g>
     </g>
     <g id="text_13">
      <!-- 10.0 -->
      <g transform="translate(42.734375 146.359219) scale(0.1 -0.1)">
       <use xlink:href="#DejaVuSans-31"/>
       <use xlink:href="#DejaVuSans-30" x="63.623047"/>
       <use xlink:href="#DejaVuSans-2e" x="127.246094"/>
       <use xlink:href="#DejaVuSans-30" x="159.033203"/>
      </g>
     </g>
    </g>
    <g id="ytick_8">
     <g id="line2d_14">
      <g>
       <use xlink:href="#m78c8c84d26" x="72" y="104.76" style="stroke: #000000; stroke-width: 0.8"/>
      </g>
     </g>
     <g id="text_14">
      <!-- 12.5 -->
      <g transform="translate(42.734375 108.559219) scale(0.1 -0.1)">
       <use xlink:href="#DejaVuSans-31"/>
       <use xlink:href="#DejaVuSans-32" x="63.623047"/>
       <use xlink:href="#DejaVuSans-2e" x="127.246094"/>
       <use xlink:href="#DejaVuSans-35" x="159.033203"/>
      </g>
     </g>
    </g>
    <g id="ytick_9">
     <g id="line2d_15">
      <g>
       <use xlink:href="#m78c8c84d26" x="72" y="66.96" style="stroke: #000000; stroke-width: 0.8"/>
      </g>
     </g>
     <g id="text_15">
      <!-- 15.0 -->
      <g transform="translate(42.734375 70.759219) scale(0.1 -0.1)">
       <use xlink:href="#DejaVuSans-31"/>
       <use xlink:href="#DejaVuSans-35" x="63.623047"/>
       <use xlink:href="#DejaVuSans-2e" x="127.246094"/>
       <use xlink:href="#DejaVuSans-30" x="159.033203"/>
      </g>
     </g>
    </g>
   </g>
   <g id="line2d_16">
    <path d="M 92.290909 346.176504 
L 96.349091 346.17348 
L 100.407273 346.162896 
L 104.465455 346.14324 
L 108.523636 346.117536 
L 112.581818 346.084272 
L 116.64 346.04496 
L 120.698182 345.996576 
L 124.756364 345.942144 
L 128.814545 345.880152 
L 132.872727 345.812112 
L 136.930909 345.736512 
L 140.989091 345.654864 
L 145.047273 345.565656 
L 149.105455 345.4704 
L 153.163636 345.370608 
L 157.221818 345.263256 
L 161.28 345.149856 
L 165.338182 345.03192 
L 169.396364 344.907936 
L 173.454545 344.779416 
L 177.512727 344.64636 
L 181.570909 344.508768 
L 185.629091 344.36664 
L 189.687273 344.221488 
L 193.745455 344.0718 
L 197.803636 343.919088 
L 201.861818 343.764864 
L 205.92 343.607616 
L 209.978182 343.448856 
L 214.036364 343.288584 
L 218.094545 343.1268 
L 222.152727 342.965016 
L 226.210909 342.804744 
L 230.269091 342.64296 
L 234.327273 342.4842 
L 238.385455 342.326952 
L 242.443636 342.171216 
L 246.501818 342.018504 
L 250.56 341.870328 
L 254.618182 341.725176 
L 258.676364 341.586072 
L 262.734545 341.451504 
L 266.792727 341.322984 
L 270.850909 341.200512 
L 274.909091 341.0856 
L 278.967273 340.978248 
L 283.025455 340.878456 
L 287.083636 340.786224 
L 291.141818 340.703064 
L 295.2 340.630488 
L 299.258182 340.565472 
L 303.316364 340.51104 
L 307.374545 340.46568 
L 311.432727 340.429392 
L 315.490909 340.403688 
L 319.549091 340.388568 
L 323.607273 340.381008 
L 327.665455 340.384032 
L 331.723636 340.396128 
L 335.781818 340.415784 
L 339.84 340.444512 
L 343.898182 340.4808 
L 347.956364 340.52616 
L 352.014545 340.577568 
L 356.072727 340.635024 
L 360.130909 340.698528 
L 364.189091 340.76808 
L 368.247273 340.842168 
L 372.305455 340.920792 
L 376.363636 341.00244 
L 380.421818 341.087112 
L 384.48 341.174808 
L 388.538182 341.264016 
L 392.596364 341.356248 
L 396.654545 341.446968 
L 400.712727 341.5392 
L 404.770909 341.631432 
L 408.829091 341.723664 
L 412.887273 341.814384 
L 416.945455 341.903592 
L 421.003636 341.991288 
L 425.061818 342.07596 
L 429.12 342.15912 
L 433.178182 342.237744 
L 437.236364 342.314856 
L 441.294545 342.387432 
L 445.352727 342.455472 
L 449.410909 342.520488 
L 453.469091 342.580968 
L 457.527273 342.636912 
L 461.585455 342.68832 
L 465.643636 342.73368 
L 469.701818 342.774504 
L 473.76 342.810792 
L 477.818182 342.841032 
L 481.876364 342.866736 
L 485.934545 342.886392 
L 489.992727 342.9 
L 494.050909 342.909072 
L 498.109091 342.912096 
" clip-path="url(#pcca50e5201)" style="fill: none; stroke: #000000; stroke-opacity: 0.5; stroke-linecap: square"/>
   </g>
   <g id="line2d_17">
    <path d="M 92.290909 289.172592 
L 96.349091 289.189224 
L 100.407273 289.23912 
L 104.465455 289.320768 
L 108.523636 289.434168 
L 112.581818 289.57932 
L 116.64 289.754712 
L 120.698182 289.958832 
L 124.756364 290.19168 
L 128.814545 290.450232 
L 132.872727 290.734488 
L 136.930909 291.041424 
L 140.989091 291.369528 
L 145.047273 291.7188 
L 149.105455 292.086216 
L 153.163636 292.468752 
L 157.221818 292.86792 
L 161.28 293.279184 
L 165.338182 293.701032 
L 169.396364 294.131952 
L 173.454545 294.571944 
L 177.512727 295.017984 
L 181.570909 295.46856 
L 185.629091 295.92216 
L 189.687273 296.37576 
L 193.745455 296.830872 
L 197.803636 297.284472 
L 201.861818 297.735048 
L 205.92 298.181088 
L 209.978182 298.622592 
L 214.036364 299.056536 
L 218.094545 299.48292 
L 222.152727 299.900232 
L 226.210909 300.30696 
L 230.269091 300.703104 
L 234.327273 301.08564 
L 238.385455 301.454568 
L 242.443636 301.809888 
L 246.501818 302.148576 
L 250.56 302.470632 
L 254.618182 302.774544 
L 258.676364 303.060312 
L 262.734545 303.327936 
L 266.792727 303.574392 
L 270.850909 303.79968 
L 274.909091 304.002288 
L 278.967273 304.183728 
L 283.025455 304.342488 
L 287.083636 304.478568 
L 291.141818 304.588944 
L 295.2 304.67664 
L 299.258182 304.740144 
L 303.316364 304.777944 
L 307.374545 304.791552 
L 311.432727 304.779456 
L 315.490909 304.743168 
L 319.549091 304.682688 
L 323.607273 304.598016 
L 327.665455 304.490664 
L 331.723636 304.35912 
L 335.781818 304.204896 
L 339.84 304.027992 
L 343.898182 303.831432 
L 347.956364 303.613704 
L 352.014545 303.37632 
L 356.072727 303.120792 
L 360.130909 302.84712 
L 364.189091 302.556816 
L 368.247273 302.251392 
L 372.305455 301.93236 
L 376.363636 301.59972 
L 380.421818 301.254984 
L 384.48 300.901176 
L 388.538182 300.538296 
L 392.596364 300.167856 
L 396.654545 299.789856 
L 400.712727 299.408832 
L 404.770909 299.024784 
L 408.829091 298.637712 
L 412.887273 298.252152 
L 416.945455 297.868104 
L 421.003636 297.48708 
L 425.061818 297.112104 
L 429.12 296.743176 
L 433.178182 296.38332 
L 437.236364 296.032536 
L 441.294545 295.69536 
L 445.352727 295.37028 
L 449.410909 295.061832 
L 453.469091 294.770016 
L 457.527273 294.497856 
L 461.585455 294.245352 
L 465.643636 294.015528 
L 469.701818 293.808384 
L 473.76 293.626944 
L 477.818182 293.471208 
L 481.876364 293.341176 
L 485.934545 293.239872 
L 489.992727 293.167296 
L 494.050909 293.123448 
L 498.109091 293.108328 
" clip-path="url(#pcca50e5201)" style="fill: none; stroke: #000000; stroke-opacity: 0.5; stroke-linecap: square"/>
   </g>
   <g id="line2d_18">
    <path d="M 92.290909 253.078128 
L 96.349091 253.07964 
L 100.407273 253.085688 
L 104.465455 253.093248 
L 108.523636 253.103832 
L 112.581818 253.115928 
L 116.64 253.128024 
L 120.698182 253.14012 
L 124.756364 253.150704 
L 128.814545 253.156752 
L 132.872727 253.161288 
L 136.930909 253.159776 
L 140.989091 253.152216 
L 145.047273 253.14012 
L 149.105455 253.121976 
L 153.163636 253.096272 
L 157.221818 253.06452 
L 161.28 253.02672 
L 165.338182 252.98136 
L 169.396364 252.929952 
L 173.454545 252.872496 
L 177.512727 252.808992 
L 181.570909 252.740952 
L 185.629091 252.666864 
L 189.687273 252.589752 
L 193.745455 252.508104 
L 197.803636 252.424944 
L 201.861818 252.337248 
L 205.92 252.249552 
L 209.978182 252.160344 
L 214.036364 252.072648 
L 218.094545 251.98344 
L 222.152727 251.897256 
L 226.210909 251.814096 
L 230.269091 251.73396 
L 234.327273 251.65836 
L 238.385455 251.588808 
L 242.443636 251.525304 
L 246.501818 251.467848 
L 250.56 251.419464 
L 254.618182 251.380152 
L 258.676364 251.349912 
L 262.734545 251.328744 
L 266.792727 251.319672 
L 270.850909 251.321184 
L 274.909091 251.334792 
L 278.967273 251.358984 
L 283.025455 251.396784 
L 287.083636 251.445168 
L 291.141818 251.505648 
L 295.2 251.576712 
L 299.258182 251.659872 
L 303.316364 251.753616 
L 307.374545 251.857944 
L 311.432727 251.971344 
L 315.490909 252.092304 
L 319.549091 252.222336 
L 323.607273 252.359928 
L 327.665455 252.503568 
L 331.723636 252.651744 
L 335.781818 252.804456 
L 339.84 252.961704 
L 343.898182 253.120464 
L 347.956364 253.282248 
L 352.014545 253.444032 
L 356.072727 253.605816 
L 360.130909 253.7676 
L 364.189091 253.927872 
L 368.247273 254.08512 
L 372.305455 254.239344 
L 376.363636 254.389032 
L 380.421818 254.535696 
L 384.48 254.676312 
L 388.538182 254.81088 
L 392.596364 254.9394 
L 396.654545 255.06036 
L 400.712727 255.175272 
L 404.770909 255.281112 
L 408.829091 255.379392 
L 412.887273 255.4686 
L 416.945455 255.548736 
L 421.003636 255.618288 
L 425.061818 255.68028 
L 429.12 255.731688 
L 433.178182 255.774024 
L 437.236364 255.805776 
L 441.294545 255.829968 
L 445.352727 255.843576 
L 449.410909 255.849624 
L 453.469091 255.848112 
L 457.527273 255.840552 
L 461.585455 255.825432 
L 465.643636 255.807288 
L 469.701818 255.78612 
L 473.76 255.76344 
L 477.818182 255.74076 
L 481.876364 255.71808 
L 485.934545 255.699936 
L 489.992727 255.686328 
L 494.050909 255.677256 
L 498.109091 255.674232 
" clip-path="url(#pcca50e5201)" style="fill: none; stroke: #000000; stroke-opacity: 0.5; stroke-linecap: square"/>
   </g>
   <g id="line2d_19">
    <path d="M 92.290909 241.99668 
L 96.349091 241.977024 
L 100.407273 241.916544 
L 104.465455 241.816752 
L 108.523636 241.680672 
L 112.581818 241.508304 
L 116.64 241.302672 
L 120.698182 241.0668 
L 124.756364 240.803712 
L 128.814545 240.516432 
L 132.872727 240.209496 
L 136.930909 239.884416 
L 140.989091 239.54724 
L 145.047273 239.197968 
L 149.105455 238.84416 
L 153.163636 238.485816 
L 157.221818 238.12596 
L 161.28 237.77064 
L 165.338182 237.419856 
L 169.396364 237.076632 
L 173.454545 236.743992 
L 177.512727 236.42496 
L 181.570909 236.119536 
L 185.629091 235.830744 
L 189.687273 235.558584 
L 193.745455 235.304568 
L 197.803636 235.07172 
L 201.861818 234.857016 
L 205.92 234.66348 
L 209.978182 234.488088 
L 214.036364 234.333864 
L 218.094545 234.196272 
L 222.152727 234.076824 
L 226.210909 233.974008 
L 230.269091 233.8848 
L 234.327273 233.810712 
L 238.385455 233.747208 
L 242.443636 233.694288 
L 246.501818 233.65044 
L 250.56 233.614152 
L 254.618182 233.5824 
L 258.676364 233.553672 
L 262.734545 233.52948 
L 266.792727 233.505288 
L 270.850909 233.481096 
L 274.909091 233.458416 
L 278.967273 233.432712 
L 283.025455 233.405496 
L 287.083636 233.376768 
L 291.141818 233.346528 
L 295.2 233.314776 
L 299.258182 233.281512 
L 303.316364 233.248248 
L 307.374545 233.214984 
L 311.432727 233.184744 
L 315.490909 233.156016 
L 319.549091 233.133336 
L 323.607273 233.116704 
L 327.665455 233.107632 
L 331.723636 233.107632 
L 335.781818 233.119728 
L 339.84 233.14392 
L 343.898182 233.184744 
L 347.956364 233.240688 
L 352.014545 233.314776 
L 356.072727 233.410032 
L 360.130909 233.526456 
L 364.189091 233.66556 
L 368.247273 233.827344 
L 372.305455 234.01332 
L 376.363636 234.225 
L 380.421818 234.460872 
L 384.48 234.722448 
L 388.538182 235.006704 
L 392.596364 235.316664 
L 396.654545 235.647792 
L 400.712727 236.0016 
L 404.770909 236.373552 
L 408.829091 236.76516 
L 412.887273 237.170376 
L 416.945455 237.590712 
L 421.003636 238.021632 
L 425.061818 238.460112 
L 429.12 238.90464 
L 433.178182 239.349168 
L 437.236364 239.795208 
L 441.294545 240.2352 
L 445.352727 240.669144 
L 449.410909 241.090992 
L 453.469091 241.49772 
L 457.527273 241.886304 
L 461.585455 242.25372 
L 465.643636 242.59392 
L 469.701818 242.906904 
L 473.76 243.185112 
L 477.818182 243.428544 
L 481.876364 243.632664 
L 485.934545 243.794448 
L 489.992727 243.910872 
L 494.050909 243.981936 
L 498.109091 244.006128 
" clip-path="url(#pcca50e5201)" style="fill: none; stroke: #000000; stroke-opacity: 0.5; stroke-linecap: square"/>
   </g>
   <g id="line2d_20">
    <path d="M 92.290909 172.382688 
L 96.349091 172.44468 
L 100.407273 172.621584 
L 104.465455 172.899792 
L 108.523636 173.259648 
L 112.581818 173.679984 
L 116.64 174.13812 
L 120.698182 174.620448 
L 124.756364 175.111848 
L 128.814545 175.601736 
L 132.872727 176.079528 
L 136.930909 176.539176 
L 140.989091 176.974632 
L 145.047273 177.378336 
L 149.105455 177.748776 
L 153.163636 178.081416 
L 157.221818 178.37172 
L 161.28 178.616664 
L 165.338182 178.816248 
L 169.396364 178.964424 
L 173.454545 179.061192 
L 177.512727 179.10504 
L 181.570909 179.092944 
L 185.629091 179.023392 
L 189.687273 178.897896 
L 193.745455 178.713432 
L 197.803636 178.47 
L 201.861818 178.1676 
L 205.92 177.806232 
L 209.978182 177.385896 
L 214.036364 176.909616 
L 218.094545 176.374368 
L 222.152727 175.784688 
L 226.210909 175.140576 
L 230.269091 174.442032 
L 234.327273 173.693592 
L 238.385455 172.895256 
L 242.443636 172.050048 
L 246.501818 171.15948 
L 250.56 170.225064 
L 254.618182 169.251336 
L 258.676364 168.239808 
L 262.734545 167.195016 
L 266.792727 166.119984 
L 270.850909 165.02076 
L 274.909091 163.910952 
L 278.967273 162.807192 
L 283.025455 161.760888 
L 287.083636 160.906608 
L 291.141818 160.5906 
L 295.2 161.057808 
L 299.258182 161.969544 
L 303.316364 163.030968 
L 307.374545 164.133216 
L 311.432727 165.236976 
L 315.490909 166.324104 
L 319.549091 167.384016 
L 323.607273 168.413688 
L 327.665455 169.408584 
L 331.723636 170.362656 
L 335.781818 171.274392 
L 339.84 172.140768 
L 343.898182 172.960272 
L 347.956364 173.72988 
L 352.014545 174.449592 
L 356.072727 175.114872 
L 360.130909 175.724208 
L 364.189091 176.2776 
L 368.247273 176.773536 
L 372.305455 177.210504 
L 376.363636 177.586992 
L 380.421818 177.903 
L 384.48 178.16004 
L 388.538182 178.355088 
L 392.596364 178.491168 
L 396.654545 178.566768 
L 400.712727 178.584912 
L 404.770909 178.5456 
L 408.829091 178.448832 
L 412.887273 178.297632 
L 416.945455 178.093512 
L 421.003636 177.839496 
L 425.061818 177.535584 
L 429.12 177.1848 
L 433.178182 176.790168 
L 437.236364 176.3532 
L 441.294545 175.878432 
L 445.352727 175.367376 
L 449.410909 174.823056 
L 453.469091 174.25152 
L 457.527273 173.657304 
L 461.585455 173.043432 
L 465.643636 172.417464 
L 469.701818 171.789984 
L 473.76 171.170064 
L 477.818182 170.574336 
L 481.876364 170.022456 
L 485.934545 169.540128 
L 489.992727 169.157592 
L 494.050909 168.911136 
L 498.109091 168.824952 
" clip-path="url(#pcca50e5201)" style="fill: none; stroke: #000000; stroke-opacity: 0.5; stroke-linecap: square"/>
   </g>
   <g id="line2d_21">
    <path d="M 92.290909 159.969168 
L 96.349091 159.878448 
L 100.407273 159.613848 
L 104.465455 159.190488 
L 108.523636 158.626512 
L 112.581818 157.9446 
L 116.64 157.164408 
L 120.698182 156.299544 
L 124.756364 155.365128 
L 128.814545 154.371744 
L 132.872727 153.328464 
L 136.930909 152.238312 
L 140.989091 151.11036 
L 145.047273 149.94612 
L 149.105455 148.750128 
L 153.163636 147.523896 
L 157.221818 146.27196 
L 161.28 144.99432 
L 165.338182 143.694 
L 169.396364 142.372512 
L 173.454545 141.029856 
L 177.512727 139.670568 
L 181.570909 138.29616 
L 185.629091 136.908144 
L 189.687273 135.511056 
L 193.745455 134.11548 
L 197.803636 132.744096 
L 201.861818 131.46192 
L 205.92 130.545648 
L 209.978182 130.674168 
L 214.036364 131.6736 
L 218.094545 132.964848 
L 222.152727 134.361936 
L 226.210909 135.80892 
L 230.269091 137.278584 
L 234.327273 138.761856 
L 238.385455 140.248152 
L 242.443636 141.732936 
L 246.501818 143.211672 
L 250.56 144.682848 
L 254.618182 146.140416 
L 258.676364 147.584376 
L 262.734545 149.010192 
L 266.792727 150.411816 
L 270.850909 151.784712 
L 274.909091 153.119808 
L 278.967273 154.392912 
L 283.025455 155.560176 
L 287.083636 156.482496 
L 291.141818 156.815136 
L 295.2 156.31164 
L 299.258182 155.312208 
L 303.316364 154.11168 
L 307.374545 152.817408 
L 311.432727 151.470216 
L 315.490909 150.085224 
L 319.549091 148.671504 
L 323.607273 147.236616 
L 327.665455 145.782072 
L 331.723636 144.31392 
L 335.781818 142.83216 
L 339.84 141.341328 
L 343.898182 139.844448 
L 347.956364 138.344544 
L 352.014545 136.849176 
L 356.072727 135.36288 
L 360.130909 133.897752 
L 364.189091 132.47496 
L 368.247273 131.124744 
L 372.305455 129.910608 
L 376.363636 128.93688 
L 380.421818 128.371392 
L 384.48 128.383488 
L 388.538182 129.007944 
L 392.596364 130.049712 
L 396.654545 131.291064 
L 400.712727 132.6186 
L 404.770909 133.980912 
L 408.829091 135.35532 
L 412.887273 136.729728 
L 416.945455 138.098088 
L 421.003636 139.455864 
L 425.061818 140.79852 
L 429.12 142.126056 
L 433.178182 143.435448 
L 437.236364 144.725184 
L 441.294545 145.99224 
L 445.352727 147.235104 
L 449.410909 148.452264 
L 453.469091 149.637672 
L 457.527273 150.791328 
L 461.585455 151.907184 
L 465.643636 152.979192 
L 469.701818 153.999792 
L 473.76 154.956888 
L 477.818182 155.838384 
L 481.876364 156.623112 
L 485.934545 157.28688 
L 489.992727 157.797936 
L 494.050909 158.123016 
L 498.109091 158.233392 
" clip-path="url(#pcca50e5201)" style="fill: none; stroke: #000000; stroke-opacity: 0.5; stroke-linecap: square"/>
   </g>
   <g id="line2d_22">
    <path d="M 92.290909 124.750152 
L 96.349091 124.74864 
L 100.407273 124.745616 
L 104.465455 124.738056 
L 108.523636 124.728984 
L 112.581818 124.7184 
L 116.64 124.704792 
L 120.698182 124.689672 
L 124.756364 124.67304 
L 128.814545 124.653384 
L 132.872727 124.633728 
L 136.930909 124.614072 
L 140.989091 124.592904 
L 145.047273 124.573248 
L 149.105455 124.553592 
L 153.163636 124.538472 
L 157.221818 124.526376 
L 161.28 124.518816 
L 165.338182 124.52184 
L 169.396364 124.53696 
L 173.454545 124.568712 
L 177.512727 124.629192 
L 181.570909 124.730496 
L 185.629091 124.896816 
L 189.687273 125.162928 
L 193.745455 125.577216 
L 197.803636 126.175968 
L 201.861818 126.912312 
L 205.92 127.479312 
L 209.978182 127.13004 
L 214.036364 125.98848 
L 218.094545 124.603488 
L 222.152727 123.182208 
L 226.210909 122.690808 
L 230.269091 122.690808 
L 234.327273 122.69988 
L 238.385455 122.705928 
L 242.443636 122.710464 
L 246.501818 122.711976 
L 250.56 122.715 
L 254.618182 122.719536 
L 258.676364 122.725584 
L 262.734545 122.733144 
L 266.792727 122.743728 
L 270.850909 122.757336 
L 274.909091 122.773968 
L 278.967273 122.795136 
L 283.025455 122.82084 
L 287.083636 122.849568 
L 291.141818 122.882832 
L 295.2 122.920632 
L 299.258182 122.961456 
L 303.316364 123.006816 
L 307.374545 123.0552 
L 311.432727 123.10812 
L 315.490909 123.164064 
L 319.549091 123.223032 
L 323.607273 123.285024 
L 327.665455 123.348528 
L 331.723636 123.413544 
L 335.781818 123.47856 
L 339.84 123.543576 
L 343.898182 123.60708 
L 347.956364 123.666048 
L 352.014545 123.717456 
L 356.072727 123.756768 
L 360.130909 123.776424 
L 364.189091 123.762816 
L 368.247273 123.693264 
L 372.305455 123.525432 
L 376.363636 123.195816 
L 380.421818 123.564744 
L 384.48 124.455312 
L 388.538182 124.976952 
L 392.596364 125.233992 
L 396.654545 125.374608 
L 400.712727 125.4744 
L 404.770909 125.560584 
L 408.829091 125.64072 
L 412.887273 125.717832 
L 416.945455 125.794944 
L 421.003636 125.869032 
L 425.061818 125.94312 
L 429.12 126.014184 
L 433.178182 126.083736 
L 437.236364 126.150264 
L 441.294545 126.213768 
L 445.352727 126.274248 
L 449.410909 126.330192 
L 453.469091 126.383112 
L 457.527273 126.433008 
L 461.585455 126.478368 
L 465.643636 126.519192 
L 469.701818 126.553968 
L 473.76 126.58572 
L 477.818182 126.612936 
L 481.876364 126.635616 
L 485.934545 126.652248 
L 489.992727 126.664344 
L 494.050909 126.671904 
L 498.109091 126.674928 
" clip-path="url(#pcca50e5201)" style="fill: none; stroke: #000000; stroke-opacity: 0.5; stroke-linecap: square"/>
   </g>
   <g id="line2d_23">
    <path d="M 92.290909 91.655496 
L 96.349091 91.74924 
L 100.407273 92.031984 
L 104.465455 92.491632 
L 108.523636 93.114576 
L 112.581818 93.884184 
L 116.64 94.7808 
L 120.698182 95.790816 
L 124.756364 96.893064 
L 128.814545 98.07696 
L 132.872727 99.327384 
L 136.930909 100.633752 
L 140.989091 101.986992 
L 145.047273 103.378032 
L 149.105455 104.799312 
L 153.163636 106.246296 
L 157.221818 107.709912 
L 161.28 109.187136 
L 165.338182 110.668896 
L 169.396364 112.152168 
L 173.454545 113.623344 
L 177.512727 115.074864 
L 181.570909 116.488584 
L 185.629091 117.835776 
L 189.687273 119.077128 
L 193.745455 120.155184 
L 197.803636 121.009464 
L 201.861818 121.6188 
L 205.92 122.017968 
L 209.978182 122.270472 
L 214.036364 122.426208 
L 218.094545 122.51844 
L 222.152727 122.521464 
L 226.210909 121.529592 
L 230.269091 120.00096 
L 234.327273 118.434528 
L 238.385455 116.845416 
L 242.443636 115.239672 
L 246.501818 113.618808 
L 250.56 111.984336 
L 254.618182 110.33928 
L 258.676364 108.682128 
L 262.734545 107.01288 
L 266.792727 105.336072 
L 270.850909 103.64868 
L 274.909091 101.95524 
L 278.967273 100.25424 
L 283.025455 98.551728 
L 287.083636 96.85224 
L 291.141818 95.17392 
L 295.2 93.592368 
L 299.258182 92.700288 
L 303.316364 93.687624 
L 307.374545 95.254056 
L 311.432727 96.90516 
L 315.490909 98.574408 
L 319.549091 100.248192 
L 323.607273 101.918952 
L 327.665455 103.583664 
L 331.723636 105.240816 
L 335.781818 106.888896 
L 339.84 108.526392 
L 343.898182 110.153304 
L 347.956364 111.766608 
L 352.014545 113.364792 
L 356.072727 114.944832 
L 360.130909 116.505216 
L 364.189091 118.039896 
L 368.247273 119.538288 
L 372.305455 120.98376 
L 376.363636 122.330952 
L 380.421818 122.554728 
L 384.48 121.662648 
L 388.538182 120.510504 
L 392.596364 119.190528 
L 396.654545 117.769248 
L 400.712727 116.290512 
L 404.770909 114.773976 
L 408.829091 113.237784 
L 412.887273 111.689496 
L 416.945455 110.136672 
L 421.003636 108.58536 
L 425.061818 107.037072 
L 429.12 105.497856 
L 433.178182 103.970736 
L 437.236364 102.46176 
L 441.294545 100.97244 
L 445.352727 99.510336 
L 449.410909 98.079984 
L 453.469091 96.688944 
L 457.527273 95.343264 
L 461.585455 94.05504 
L 465.643636 92.833344 
L 469.701818 91.691784 
L 473.76 90.64548 
L 477.818182 89.712576 
L 481.876364 88.911216 
L 485.934545 88.259544 
L 489.992727 87.778728 
L 494.050909 87.482376 
L 498.109091 87.382584 
" clip-path="url(#pcca50e5201)" style="fill: none; stroke: #000000; stroke-opacity: 0.5; stroke-linecap: square"/>
   </g>
   <g id="patch_3">
    <path d="M 72 384.48 
L 72 51.84 
" style="fill: none; stroke: #000000; stroke-width: 0.8; stroke-linejoin: miter; stroke-linecap: square"/>
   </g>
   <g id="patch_4">
    <path d="M 518.4 384.48 
L 518.4 51.84 
" style="fill: none; stroke: #000000; stroke-width: 0.8; stroke-linejoin: miter; stroke-linecap: square"/>
   </g>
   <g id="patch_5">
    <path d="M 72 384.48 
L 518.4 384.48 
" style="fill: none; stroke: #000000; stroke-width: 0.8; stroke-linejoin: miter; stroke-linecap: square"/>
   </g>
   <g id="patch_6">
    <path d="M 72 51.84 
L 518.4 51.84 
" style="fill: none; stroke: #000000; stroke-width: 0.8; stroke-linejoin: miter; stroke-linecap: square"/>
   </g>
  </g>
 </g>
 <defs>
  <clipPath id="pcca50e5201">
   <rect x="72" y="51.84" width="446.4" height="332.64"/>
  </clipPath>
 </defs>
</svg>
