<?xml version="1.0" encoding="utf-8" standalone="no"?>
<!DOCTYPE svg PUBLIC "-//W3C//DTD SVG 1.1//EN"
  "http://www.w3.org/Graphics/SVG/1.1/DTD/svg11.dtd">
<svg xmlns:xlink="http://www.w3.org/1999/xlink" width="576pt" height="432pt" viewBox="0 0 576 432" xmlns="http://www.w3.org/2000/svg" version="1.1">
 <metadata>
  <rdf:RDF xmlns:dc="http://purl.org/dc/elements/1.1/" xmlns:cc="http://creativecommons.org/ns#" xmlns:rdf="http://www.w3.org/1999/02/22-rdf-syntax-ns#">
   <cc:Work>
    <dc:type rdf:resource="http://purl.org/dc/dcmitype/StillImage"/>
    <dc:date>2023-05-02T22:25:42.140001</dc:date>
    <dc:format>image/svg+xml</dc:format>
    <dc:creator>
     <cc:Agent>
      <dc:title>Matplotlib v3.7.1, https://matplotlib.org/</dc:title>
     </cc:Agent>
    </dc:creator>
   </cc:Work>
  </rdf:RDF>
 </metadata>
 <defs>
  <style type="text/css">*{stroke-linejoin: round; stroke-linecap: butt}</style>
 </defs>
 <g id="figure_1">
  <g id="patch_1">
   <path d="M 0 432 
L 576 432 
L 576 0 
L 0 0 
z
" style="fill: #ffffff"/>
  </g>
  <g id="axes_1">
   <g id="patch_2">
    <path d="M 72 384.48 
L 518.4 384.48 
L 518.4 51.84 
L 72 51.84 
z
" style="fill: #ffffff"/>
   </g>
   <g id="matplotlib.axis_1">
    <g id="xtick_1">
     <g id="line2d_1">
      <defs>
       <path id="mc3caa08e45" d="M 0 0 
L 0 3.5 
" style="stroke: #000000; stroke-width: 0.8"/>
      </defs>
      <g>
       <use xlink:href="#mc3caa08e45" x="92.290909" y="384.48" style="stroke: #000000; stroke-width: 0.8"/>
      </g>
     </g>
     <g id="text_1">
      <!-- 0.0 -->
      <g transform="translate(84.339347 399.078438) scale(0.1 -0.1)">
       <defs>
        <path id="DejaVuSans-30" d="M 2034 4250 
Q 1547 4250 1301 3770 
Q 1056 3291 1056 2328 
Q 1056 1369 1301 889 
Q 1547 409 2034 409 
Q 2525 409 2770 889 
Q 3016 1369 3016 2328 
Q 3016 3291 2770 3770 
Q 2525 4250 2034 4250 
z
M 2034 4750 
Q 2819 4750 3233 4129 
Q 3647 3509 3647 2328 
Q 3647 1150 3233 529 
Q 2819 -91 2034 -91 
Q 1250 -91 836 529 
Q 422 1150 422 2328 
Q 422 3509 836 4129 
Q 1250 4750 2034 4750 
z
" transform="scale(0.015625)"/>
        <path id="DejaVuSans-2e" d="M 684 794 
L 1344 794 
L 1344 0 
L 684 0 
L 684 794 
z
" transform="scale(0.015625)"/>
       </defs>
       <use xlink:href="#DejaVuSans-30"/>
       <use xlink:href="#DejaVuSans-2e" x="63.623047"/>
       <use xlink:href="#DejaVuSans-30" x="95.410156"/>
      </g>
     </g>
    </g>
    <g id="xtick_2">
     <g id="line2d_2">
      <g>
       <use xlink:href="#mc3caa08e45" x="173.454545" y="384.48" style="stroke: #000000; stroke-width: 0.8"/>
      </g>
     </g>
     <g id="text_2">
      <!-- 0.2 -->
      <g transform="translate(165.502983 399.078438) scale(0.1 -0.1)">
       <defs>
        <path id="DejaVuSans-32" d="M 1228 531 
L 3431 531 
L 3431 0 
L 469 0 
L 469 531 
Q 828 903 1448 1529 
Q 2069 2156 2228 2338 
Q 2531 2678 2651 2914 
Q 2772 3150 2772 3378 
Q 2772 3750 2511 3984 
Q 2250 4219 1831 4219 
Q 1534 4219 1204 4116 
Q 875 4013 500 3803 
L 500 4441 
Q 881 4594 1212 4672 
Q 1544 4750 1819 4750 
Q 2544 4750 2975 4387 
Q 3406 4025 3406 3419 
Q 3406 3131 3298 2873 
Q 3191 2616 2906 2266 
Q 2828 2175 2409 1742 
Q 1991 1309 1228 531 
z
" transform="scale(0.015625)"/>
       </defs>
       <use xlink:href="#DejaVuSans-30"/>
       <use xlink:href="#DejaVuSans-2e" x="63.623047"/>
       <use xlink:href="#DejaVuSans-32" x="95.410156"/>
      </g>
     </g>
    </g>
    <g id="xtick_3">
     <g id="line2d_3">
      <g>
       <use xlink:href="#mc3caa08e45" x="254.618182" y="384.48" style="stroke: #000000; stroke-width: 0.8"/>
      </g>
     </g>
     <g id="text_3">
      <!-- 0.4 -->
      <g transform="translate(246.666619 399.078438) scale(0.1 -0.1)">
       <defs>
        <path id="DejaVuSans-34" d="M 2419 4116 
L 825 1625 
L 2419 1625 
L 2419 4116 
z
M 2253 4666 
L 3047 4666 
L 3047 1625 
L 3713 1625 
L 3713 1100 
L 3047 1100 
L 3047 0 
L 2419 0 
L 2419 1100 
L 313 1100 
L 313 1709 
L 2253 4666 
z
" transform="scale(0.015625)"/>
       </defs>
       <use xlink:href="#DejaVuSans-30"/>
       <use xlink:href="#DejaVuSans-2e" x="63.623047"/>
       <use xlink:href="#DejaVuSans-34" x="95.410156"/>
      </g>
     </g>
    </g>
    <g id="xtick_4">
     <g id="line2d_4">
      <g>
       <use xlink:href="#mc3caa08e45" x="335.781818" y="384.48" style="stroke: #000000; stroke-width: 0.8"/>
      </g>
     </g>
     <g id="text_4">
      <!-- 0.6 -->
      <g transform="translate(327.830256 399.078438) scale(0.1 -0.1)">
       <defs>
        <path id="DejaVuSans-36" d="M 2113 2584 
Q 1688 2584 1439 2293 
Q 1191 2003 1191 1497 
Q 1191 994 1439 701 
Q 1688 409 2113 409 
Q 2538 409 2786 701 
Q 3034 994 3034 1497 
Q 3034 2003 2786 2293 
Q 2538 2584 2113 2584 
z
M 3366 4563 
L 3366 3988 
Q 3128 4100 2886 4159 
Q 2644 4219 2406 4219 
Q 1781 4219 1451 3797 
Q 1122 3375 1075 2522 
Q 1259 2794 1537 2939 
Q 1816 3084 2150 3084 
Q 2853 3084 3261 2657 
Q 3669 2231 3669 1497 
Q 3669 778 3244 343 
Q 2819 -91 2113 -91 
Q 1303 -91 875 529 
Q 447 1150 447 2328 
Q 447 3434 972 4092 
Q 1497 4750 2381 4750 
Q 2619 4750 2861 4703 
Q 3103 4656 3366 4563 
z
" transform="scale(0.015625)"/>
       </defs>
       <use xlink:href="#DejaVuSans-30"/>
       <use xlink:href="#DejaVuSans-2e" x="63.623047"/>
       <use xlink:href="#DejaVuSans-36" x="95.410156"/>
      </g>
     </g>
    </g>
    <g id="xtick_5">
     <g id="line2d_5">
      <g>
       <use xlink:href="#mc3caa08e45" x="416.945455" y="384.48" style="stroke: #000000; stroke-width: 0.8"/>
      </g>
     </g>
     <g id="text_5">
      <!-- 0.8 -->
      <g transform="translate(408.993892 399.078438) scale(0.1 -0.1)">
       <defs>
        <path id="DejaVuSans-38" d="M 2034 2216 
Q 1584 2216 1326 1975 
Q 1069 1734 1069 1313 
Q 1069 891 1326 650 
Q 1584 409 2034 409 
Q 2484 409 2743 651 
Q 3003 894 3003 1313 
Q 3003 1734 2745 1975 
Q 2488 2216 2034 2216 
z
M 1403 2484 
Q 997 2584 770 2862 
Q 544 3141 544 3541 
Q 544 4100 942 4425 
Q 1341 4750 2034 4750 
Q 2731 4750 3128 4425 
Q 3525 4100 3525 3541 
Q 3525 3141 3298 2862 
Q 3072 2584 2669 2484 
Q 3125 2378 3379 2068 
Q 3634 1759 3634 1313 
Q 3634 634 3220 271 
Q 2806 -91 2034 -91 
Q 1263 -91 848 271 
Q 434 634 434 1313 
Q 434 1759 690 2068 
Q 947 2378 1403 2484 
z
M 1172 3481 
Q 1172 3119 1398 2916 
Q 1625 2713 2034 2713 
Q 2441 2713 2670 2916 
Q 2900 3119 2900 3481 
Q 2900 3844 2670 4047 
Q 2441 4250 2034 4250 
Q 1625 4250 1398 4047 
Q 1172 3844 1172 3481 
z
" transform="scale(0.015625)"/>
       </defs>
       <use xlink:href="#DejaVuSans-30"/>
       <use xlink:href="#DejaVuSans-2e" x="63.623047"/>
       <use xlink:href="#DejaVuSans-38" x="95.410156"/>
      </g>
     </g>
    </g>
    <g id="xtick_6">
     <g id="line2d_6">
      <g>
       <use xlink:href="#mc3caa08e45" x="498.109091" y="384.48" style="stroke: #000000; stroke-width: 0.8"/>
      </g>
     </g>
     <g id="text_6">
      <!-- 1.0 -->
      <g transform="translate(490.157528 399.078438) scale(0.1 -0.1)">
       <defs>
        <path id="DejaVuSans-31" d="M 794 531 
L 1825 531 
L 1825 4091 
L 703 3866 
L 703 4441 
L 1819 4666 
L 2450 4666 
L 2450 531 
L 3481 531 
L 3481 0 
L 794 0 
L 794 531 
z
" transform="scale(0.015625)"/>
       </defs>
       <use xlink:href="#DejaVuSans-31"/>
       <use xlink:href="#DejaVuSans-2e" x="63.623047"/>
       <use xlink:href="#DejaVuSans-30" x="95.410156"/>
      </g>
     </g>
    </g>
   </g>
   <g id="matplotlib.axis_2">
    <g id="ytick_1">
     <g id="line2d_7">
      <defs>
       <path id="m48c2407386" d="M 0 0 
L -3.5 0 
" style="stroke: #000000; stroke-width: 0.8"/>
      </defs>
      <g>
       <use xlink:href="#m48c2407386" x="72" y="369.36" style="stroke: #000000; stroke-width: 0.8"/>
      </g>
     </g>
     <g id="text_7">
      <!-- −5.0 -->
      <g transform="translate(40.717187 373.159219) scale(0.1 -0.1)">
       <defs>
        <path id="DejaVuSans-2212" d="M 678 2272 
L 4684 2272 
L 4684 1741 
L 678 1741 
L 678 2272 
z
" transform="scale(0.015625)"/>
        <path id="DejaVuSans-35" d="M 691 4666 
L 3169 4666 
L 3169 4134 
L 1269 4134 
L 1269 2991 
Q 1406 3038 1543 3061 
Q 1681 3084 1819 3084 
Q 2600 3084 3056 2656 
Q 3513 2228 3513 1497 
Q 3513 744 3044 326 
Q 2575 -91 1722 -91 
Q 1428 -91 1123 -41 
Q 819 9 494 109 
L 494 744 
Q 775 591 1075 516 
Q 1375 441 1709 441 
Q 2250 441 2565 725 
Q 2881 1009 2881 1497 
Q 2881 1984 2565 2268 
Q 2250 2553 1709 2553 
Q 1456 2553 1204 2497 
Q 953 2441 691 2322 
L 691 4666 
z
" transform="scale(0.015625)"/>
       </defs>
       <use xlink:href="#DejaVuSans-2212"/>
       <use xlink:href="#DejaVuSans-35" x="83.789062"/>
       <use xlink:href="#DejaVuSans-2e" x="147.412109"/>
       <use xlink:href="#DejaVuSans-30" x="179.199219"/>
      </g>
     </g>
    </g>
    <g id="ytick_2">
     <g id="line2d_8">
      <g>
       <use xlink:href="#m48c2407386" x="72" y="331.56" style="stroke: #000000; stroke-width: 0.8"/>
      </g>
     </g>
     <g id="text_8">
      <!-- −2.5 -->
      <g transform="translate(40.717187 335.359219) scale(0.1 -0.1)">
       <use xlink:href="#DejaVuSans-2212"/>
       <use xlink:href="#DejaVuSans-32" x="83.789062"/>
       <use xlink:href="#DejaVuSans-2e" x="147.412109"/>
       <use xlink:href="#DejaVuSans-35" x="179.199219"/>
      </g>
     </g>
    </g>
    <g id="ytick_3">
     <g id="line2d_9">
      <g>
       <use xlink:href="#m48c2407386" x="72" y="293.76" style="stroke: #000000; stroke-width: 0.8"/>
      </g>
     </g>
     <g id="text_9">
      <!-- 0.0 -->
      <g transform="translate(49.096875 297.559219) scale(0.1 -0.1)">
       <use xlink:href="#DejaVuSans-30"/>
       <use xlink:href="#DejaVuSans-2e" x="63.623047"/>
       <use xlink:href="#DejaVuSans-30" x="95.410156"/>
      </g>
     </g>
    </g>
    <g id="ytick_4">
     <g id="line2d_10">
      <g>
       <use xlink:href="#m48c2407386" x="72" y="255.96" style="stroke: #000000; stroke-width: 0.8"/>
      </g>
     </g>
     <g id="text_10">
      <!-- 2.5 -->
      <g transform="translate(49.096875 259.759219) scale(0.1 -0.1)">
       <use xlink:href="#DejaVuSans-32"/>
       <use xlink:href="#DejaVuSans-2e" x="63.623047"/>
       <use xlink:href="#DejaVuSans-35" x="95.410156"/>
      </g>
     </g>
    </g>
    <g id="ytick_5">
     <g id="line2d_11">
      <g>
       <use xlink:href="#m48c2407386" x="72" y="218.16" style="stroke: #000000; stroke-width: 0.8"/>
      </g>
     </g>
     <g id="text_11">
      <!-- 5.0 -->
      <g transform="translate(49.096875 221.959219) scale(0.1 -0.1)">
       <use xlink:href="#DejaVuSans-35"/>
       <use xlink:href="#DejaVuSans-2e" x="63.623047"/>
       <use xlink:href="#DejaVuSans-30" x="95.410156"/>
      </g>
     </g>
    </g>
    <g id="ytick_6">
     <g id="line2d_12">
      <g>
       <use xlink:href="#m48c2407386" x="72" y="180.36" style="stroke: #000000; stroke-width: 0.8"/>
      </g>
     </g>
     <g id="text_12">
      <!-- 7.5 -->
      <g transform="translate(49.096875 184.159219) scale(0.1 -0.1)">
       <defs>
        <path id="DejaVuSans-37" d="M 525 4666 
L 3525 4666 
L 3525 4397 
L 1831 0 
L 1172 0 
L 2766 4134 
L 525 4134 
L 525 4666 
z
" transform="scale(0.015625)"/>
       </defs>
       <use xlink:href="#DejaVuSans-37"/>
       <use xlink:href="#DejaVuSans-2e" x="63.623047"/>
       <use xlink:href="#DejaVuSans-35" x="95.410156"/>
      </g>
     </g>
    </g>
    <g id="ytick_7">
     <g id="line2d_13">
      <g>
       <use xlink:href="#m48c2407386" x="72" y="142.56" style="stroke: #000000; stroke-width: 0.8"/>
      </g>
     </g>
     <g id="text_13">
      <!-- 10.0 -->
      <g transform="translate(42.734375 146.359219) scale(0.1 -0.1)">
       <use xlink:href="#DejaVuSans-31"/>
       <use xlink:href="#DejaVuSans-30" x="63.623047"/>
       <use xlink:href="#DejaVuSans-2e" x="127.246094"/>
       <use xlink:href="#DejaVuSans-30" x="159.033203"/>
      </g>
     </g>
    </g>
    <g id="ytick_8">
     <g id="line2d_14">
      <g>
       <use xlink:href="#m48c2407386" x="72" y="104.76" style="stroke: #000000; stroke-width: 0.8"/>
      </g>
     </g>
     <g id="text_14">
      <!-- 12.5 -->
      <g transform="translate(42.734375 108.559219) scale(0.1 -0.1)">
       <use xlink:href="#DejaVuSans-31"/>
       <use xlink:href="#DejaVuSans-32" x="63.623047"/>
       <use xlink:href="#DejaVuSans-2e" x="127.246094"/>
       <use xlink:href="#DejaVuSans-35" x="159.033203"/>
      </g>
     </g>
    </g>
    <g id="ytick_9">
     <g id="line2d_15">
      <g>
       <use xlink:href="#m48c2407386" x="72" y="66.96" style="stroke: #000000; stroke-width: 0.8"/>
      </g>
     </g>
     <g id="text_15">
      <!-- 15.0 -->
      <g transform="translate(42.734375 70.759219) scale(0.1 -0.1)">
       <use xlink:href="#DejaVuSans-31"/>
       <use xlink:href="#DejaVuSans-35" x="63.623047"/>
       <use xlink:href="#DejaVuSans-2e" x="127.246094"/>
       <use xlink:href="#DejaVuSans-30" x="159.033203"/>
      </g>
     </g>
    </g>
   </g>
   <g id="line2d_16">
    <path d="M 92.290909 375.539544 
L 96.349091 375.533496 
L 100.407273 375.515352 
L 104.465455 375.4836 
L 108.523636 375.439752 
L 112.581818 375.383808 
L 116.64 375.314256 
L 120.698182 375.23412 
L 124.756364 375.140376 
L 128.814545 375.034536 
L 132.872727 374.915088 
L 136.930909 374.785056 
L 140.989091 374.641416 
L 145.047273 374.48568 
L 149.105455 374.317848 
L 153.163636 374.136408 
L 157.221818 373.942872 
L 161.28 373.738752 
L 165.338182 373.521024 
L 169.396364 373.2912 
L 173.454545 373.04928 
L 177.512727 372.793752 
L 181.570909 372.52764 
L 185.629091 372.24792 
L 189.687273 371.957616 
L 193.745455 371.653704 
L 197.803636 371.339208 
L 201.861818 371.011104 
L 205.92 370.672416 
L 209.978182 370.32012 
L 214.036364 369.95724 
L 218.094545 369.582264 
L 222.152727 369.19368 
L 226.210909 368.794512 
L 230.269091 368.38476 
L 234.327273 367.9614 
L 238.385455 367.527456 
L 242.443636 367.081416 
L 246.501818 366.62328 
L 250.56 366.153048 
L 254.618182 365.672232 
L 258.676364 365.180832 
L 262.734545 364.677336 
L 266.792727 364.161744 
L 270.850909 363.635568 
L 274.909091 363.098808 
L 278.967273 362.549952 
L 283.025455 361.990512 
L 287.083636 361.420488 
L 291.141818 360.838368 
L 295.2 360.247176 
L 299.258182 359.643888 
L 303.316364 359.030016 
L 307.374545 358.407072 
L 311.432727 357.772032 
L 315.490909 357.12792 
L 319.549091 356.473224 
L 323.607273 355.807944 
L 327.665455 355.133592 
L 331.723636 354.448656 
L 335.781818 353.754648 
L 339.84 353.051568 
L 343.898182 352.337904 
L 347.956364 351.61668 
L 352.014545 350.884872 
L 356.072727 350.145504 
L 360.130909 349.395552 
L 364.189091 348.63804 
L 368.247273 347.872968 
L 372.305455 347.098824 
L 376.363636 346.318632 
L 380.421818 345.529368 
L 384.48 344.732544 
L 388.538182 343.929672 
L 392.596364 343.11924 
L 396.654545 342.30276 
L 400.712727 341.481744 
L 404.770909 340.653168 
L 408.829091 339.820056 
L 412.887273 338.982408 
L 416.945455 338.140224 
L 421.003636 337.296528 
L 425.061818 336.448296 
L 429.12 335.598552 
L 433.178182 334.747296 
L 437.236364 333.897552 
L 441.294545 333.04932 
L 445.352727 332.2026 
L 449.410909 331.361928 
L 453.469091 330.530328 
L 457.527273 329.7078 
L 461.585455 328.901904 
L 465.643636 328.115664 
L 469.701818 327.35664 
L 473.76 326.635416 
L 477.818182 325.964088 
L 481.876364 325.359288 
L 485.934545 324.845208 
L 489.992727 324.447552 
L 494.050909 324.193536 
L 498.109091 324.10584 
" clip-path="url(#p7fe91f8683)" style="fill: none; stroke: #000000; stroke-opacity: 0.5; stroke-linecap: square"/>
   </g>
   <g id="line2d_17">
    <path d="M 92.290909 236.506608 
L 96.349091 236.579184 
L 100.407273 236.789352 
L 104.465455 237.129552 
L 108.523636 237.580128 
L 112.581818 238.127472 
L 116.64 238.751928 
L 120.698182 239.439888 
L 124.756364 240.179256 
L 128.814545 240.957936 
L 132.872727 241.76988 
L 136.930909 242.607528 
L 140.989091 243.464832 
L 145.047273 244.338768 
L 149.105455 245.223288 
L 153.163636 246.118392 
L 157.221818 247.021056 
L 161.28 247.929768 
L 165.338182 248.839992 
L 169.396364 249.75324 
L 173.454545 250.668 
L 177.512727 251.58276 
L 181.570909 252.496008 
L 185.629091 253.409256 
L 189.687273 254.317968 
L 193.745455 255.22668 
L 197.803636 256.130856 
L 201.861818 257.030496 
L 205.92 257.928624 
L 209.978182 258.820704 
L 214.036364 259.70976 
L 218.094545 260.592768 
L 222.152727 261.47124 
L 226.210909 262.345176 
L 230.269091 263.214576 
L 234.327273 264.07944 
L 238.385455 264.938256 
L 242.443636 265.791024 
L 246.501818 266.639256 
L 250.56 267.482952 
L 254.618182 268.3206 
L 258.676364 269.153712 
L 262.734545 269.982288 
L 266.792727 270.804816 
L 270.850909 271.62432 
L 274.909091 272.437776 
L 278.967273 273.246696 
L 283.025455 274.05108 
L 287.083636 274.85244 
L 291.141818 275.649264 
L 295.2 276.443064 
L 299.258182 277.232328 
L 303.316364 278.02008 
L 307.374545 278.803296 
L 311.432727 279.585 
L 315.490909 280.365192 
L 319.549091 281.14236 
L 323.607273 281.918016 
L 327.665455 282.69216 
L 331.723636 283.466304 
L 335.781818 284.238936 
L 339.84 285.01308 
L 343.898182 285.785712 
L 347.956364 286.561368 
L 352.014545 287.335512 
L 356.072727 288.11268 
L 360.130909 288.89136 
L 364.189091 289.673064 
L 368.247273 290.45628 
L 372.305455 291.24252 
L 376.363636 292.031784 
L 380.421818 292.825584 
L 384.48 293.622408 
L 388.538182 294.423768 
L 392.596364 295.228152 
L 396.654545 296.037072 
L 400.712727 296.850528 
L 404.770909 297.667008 
L 408.829091 298.489536 
L 412.887273 299.315088 
L 416.945455 300.143664 
L 421.003636 300.975264 
L 425.061818 301.8114 
L 429.12 302.647536 
L 433.178182 303.486696 
L 437.236364 304.325856 
L 441.294545 305.163504 
L 445.352727 305.998128 
L 449.410909 306.829728 
L 453.469091 307.653768 
L 457.527273 308.467224 
L 461.585455 309.267072 
L 465.643636 310.047264 
L 469.701818 310.80024 
L 473.76 311.516928 
L 477.818182 312.185232 
L 481.876364 312.785496 
L 485.934545 313.296552 
L 489.992727 313.692696 
L 494.050909 313.946712 
L 498.109091 314.032896 
" clip-path="url(#p7fe91f8683)" style="fill: none; stroke: #000000; stroke-opacity: 0.5; stroke-linecap: square"/>
   </g>
   <g id="line2d_18">
    <path d="M 92.290909 222.48432 
L 96.349091 222.420816 
L 100.407273 222.233328 
L 104.465455 221.933952 
L 108.523636 221.53932 
L 112.581818 221.067576 
L 116.64 220.536864 
L 120.698182 219.965328 
L 124.756364 219.363552 
L 128.814545 218.748168 
L 132.872727 218.128248 
L 136.930909 217.512864 
L 140.989091 216.9126 
L 145.047273 216.335016 
L 149.105455 215.78616 
L 153.163636 215.275104 
L 157.221818 214.806384 
L 161.28 214.389072 
L 165.338182 214.026192 
L 169.396364 213.725304 
L 173.454545 213.490944 
L 177.512727 213.327648 
L 181.570909 213.82812 
L 185.629091 214.336152 
L 189.687273 214.854768 
L 193.745455 215.379432 
L 197.803636 215.910144 
L 201.861818 216.446904 
L 205.92 216.9882 
L 209.978182 217.53252 
L 214.036364 218.079864 
L 218.094545 218.630232 
L 222.152727 219.1806 
L 226.210909 219.73248 
L 230.269091 220.28436 
L 234.327273 220.834728 
L 238.385455 221.385096 
L 242.443636 221.93244 
L 246.501818 222.479784 
L 250.56 223.022592 
L 254.618182 223.562376 
L 258.676364 224.099136 
L 262.734545 224.660088 
L 266.792727 225.623232 
L 270.850909 226.599984 
L 274.909091 227.58732 
L 278.967273 228.58524 
L 283.025455 229.589208 
L 287.083636 230.600736 
L 291.141818 231.615288 
L 295.2 232.632864 
L 299.258182 233.651952 
L 303.316364 234.67104 
L 307.374545 235.688616 
L 311.432727 236.703168 
L 315.490909 237.713184 
L 319.549091 238.718664 
L 323.607273 239.718096 
L 327.665455 240.709968 
L 331.723636 241.692768 
L 335.781818 242.666496 
L 339.84 243.62964 
L 343.898182 244.580688 
L 347.956364 245.518128 
L 352.014545 246.44196 
L 356.072727 247.352184 
L 360.130909 248.245776 
L 364.189091 249.122736 
L 368.247273 249.983064 
L 372.305455 250.823736 
L 376.363636 251.644752 
L 380.421818 252.446112 
L 384.48 253.226304 
L 388.538182 253.983816 
L 392.596364 254.72016 
L 396.654545 255.432312 
L 400.712727 256.121784 
L 404.770909 256.785552 
L 408.829091 257.423616 
L 412.887273 258.037488 
L 416.945455 258.624144 
L 421.003636 259.183584 
L 425.061818 259.71732 
L 429.12 260.22384 
L 433.178182 260.701632 
L 437.236364 261.150696 
L 441.294545 261.572544 
L 445.352727 261.967176 
L 449.410909 262.331568 
L 453.469091 262.667232 
L 457.527273 262.974168 
L 461.585455 263.252376 
L 465.643636 263.500344 
L 469.701818 263.721096 
L 473.76 263.911608 
L 477.818182 264.07188 
L 481.876364 264.204936 
L 485.934545 264.30624 
L 489.992727 264.380328 
L 494.050909 264.424176 
L 498.109091 264.439296 
" clip-path="url(#p7fe91f8683)" style="fill: none; stroke: #000000; stroke-opacity: 0.5; stroke-linecap: square"/>
   </g>
   <g id="line2d_19">
    <path d="M 92.290909 207.225216 
L 96.349091 207.241848 
L 100.407273 207.290232 
L 104.465455 207.373392 
L 108.523636 207.486792 
L 112.581818 207.631944 
L 116.64 207.807336 
L 120.698182 208.01448 
L 124.756364 208.24884 
L 128.814545 208.510416 
L 132.872727 208.799208 
L 136.930909 209.112192 
L 140.989091 209.45088 
L 145.047273 209.809224 
L 149.105455 210.190248 
L 153.163636 210.590928 
L 157.221818 211.009752 
L 161.28 211.445208 
L 165.338182 211.895784 
L 169.396364 212.359968 
L 173.454545 212.83776 
L 177.512727 213.327648 
L 181.570909 213.236928 
L 185.629091 213.22332 
L 189.687273 213.285312 
L 193.745455 213.425928 
L 197.803636 213.643656 
L 201.861818 213.93396 
L 205.92 214.298352 
L 209.978182 214.729272 
L 214.036364 215.225208 
L 218.094545 215.783136 
L 222.152727 216.395496 
L 226.210909 217.057752 
L 230.269091 217.768392 
L 234.327273 218.521368 
L 238.385455 219.312144 
L 242.443636 220.137696 
L 246.501818 220.993488 
L 250.56 221.878008 
L 254.618182 222.785208 
L 258.676364 223.713576 
L 262.734545 224.632872 
L 266.792727 225.16056 
L 270.850909 225.685224 
L 274.909091 226.20384 
L 278.967273 226.71792 
L 283.025455 227.225952 
L 287.083636 227.727936 
L 291.141818 228.22236 
L 295.2 228.712248 
L 299.258182 229.194576 
L 303.316364 229.670856 
L 307.374545 230.138064 
L 311.432727 230.599224 
L 315.490909 231.052824 
L 319.549091 231.498864 
L 323.607273 231.935832 
L 327.665455 232.36524 
L 331.723636 232.787088 
L 335.781818 233.198352 
L 339.84 233.603568 
L 343.898182 233.9982 
L 347.956364 234.385272 
L 352.014545 234.76176 
L 356.072727 235.130688 
L 360.130909 235.489032 
L 364.189091 235.838304 
L 368.247273 236.178504 
L 372.305455 236.509632 
L 376.363636 236.830176 
L 380.421818 237.141648 
L 384.48 237.442536 
L 388.538182 237.73284 
L 392.596364 238.014072 
L 396.654545 238.286232 
L 400.712727 238.547808 
L 404.770909 238.7988 
L 408.829091 239.039208 
L 412.887273 239.269032 
L 416.945455 239.489784 
L 421.003636 239.69844 
L 425.061818 239.898024 
L 429.12 240.085512 
L 433.178182 240.263928 
L 437.236364 240.43176 
L 441.294545 240.589008 
L 445.352727 240.73416 
L 449.410909 240.87024 
L 453.469091 240.994224 
L 457.527273 241.109136 
L 461.585455 241.211952 
L 465.643636 241.304184 
L 469.701818 241.385832 
L 473.76 241.455384 
L 477.818182 241.515864 
L 481.876364 241.564248 
L 485.934545 241.60356 
L 489.992727 241.630776 
L 494.050909 241.645896 
L 498.109091 241.651944 
" clip-path="url(#p7fe91f8683)" style="fill: none; stroke: #000000; stroke-opacity: 0.5; stroke-linecap: square"/>
   </g>
   <g id="line2d_20">
    <path d="M 92.290909 160.090128 
L 96.349091 160.25796 
L 100.407273 160.694928 
L 104.465455 161.28612 
L 108.523636 161.963496 
L 112.581818 162.687744 
L 116.64 163.437696 
L 120.698182 164.199744 
L 124.756364 164.964816 
L 128.814545 165.72384 
L 132.872727 166.469256 
L 136.930909 167.196528 
L 140.989091 167.898096 
L 145.047273 168.569424 
L 149.105455 169.202952 
L 153.163636 169.794144 
L 157.221818 170.336952 
L 161.28 170.82684 
L 165.338182 171.25776 
L 169.396364 171.625176 
L 173.454545 171.926064 
L 177.512727 172.158912 
L 181.570909 172.319184 
L 185.629091 172.405368 
L 189.687273 172.422 
L 193.745455 172.367568 
L 197.803636 172.246608 
L 201.861818 172.063656 
L 205.92 171.826272 
L 209.978182 171.542016 
L 214.036364 171.21996 
L 218.094545 170.8722 
L 222.152727 170.50932 
L 226.210909 170.14644 
L 230.269091 169.795656 
L 234.327273 169.475112 
L 238.385455 169.196904 
L 242.443636 168.976152 
L 246.501818 168.821928 
L 250.56 168.738768 
L 254.618182 168.73272 
L 258.676364 168.797736 
L 262.734545 168.930792 
L 266.792727 169.12584 
L 270.850909 169.373808 
L 274.909091 169.668648 
L 278.967273 170.001288 
L 283.025455 170.367192 
L 287.083636 170.760312 
L 291.141818 171.1746 
L 295.2 171.607032 
L 299.258182 172.053072 
L 303.316364 172.511208 
L 307.374545 172.978416 
L 311.432727 173.451672 
L 315.490909 173.927952 
L 319.549091 174.408768 
L 323.607273 174.889584 
L 327.665455 175.3704 
L 331.723636 175.849704 
L 335.781818 176.325984 
L 339.84 176.79924 
L 343.898182 177.26796 
L 347.956364 177.730632 
L 352.014545 178.188768 
L 356.072727 178.639344 
L 360.130909 179.08236 
L 364.189091 179.517816 
L 368.247273 179.9442 
L 372.305455 180.361512 
L 376.363636 180.769752 
L 380.421818 181.167408 
L 384.48 181.555992 
L 388.538182 181.93248 
L 392.596364 182.298384 
L 396.654545 182.653704 
L 400.712727 182.995416 
L 404.770909 183.326544 
L 408.829091 183.644064 
L 412.887273 183.951 
L 416.945455 184.242816 
L 421.003636 184.522536 
L 425.061818 184.79016 
L 429.12 185.042664 
L 433.178182 185.283072 
L 437.236364 185.50836 
L 441.294545 185.72004 
L 445.352727 185.918112 
L 449.410909 186.102576 
L 453.469091 186.27192 
L 457.527273 186.426144 
L 461.585455 186.56676 
L 465.643636 186.692256 
L 469.701818 186.804144 
L 473.76 186.900912 
L 477.818182 186.98256 
L 481.876364 187.049088 
L 485.934545 187.102008 
L 489.992727 187.138296 
L 494.050909 187.160976 
L 498.109091 187.168536 
" clip-path="url(#p7fe91f8683)" style="fill: none; stroke: #000000; stroke-opacity: 0.5; stroke-linecap: square"/>
   </g>
   <g id="line2d_21">
    <path d="M 92.290909 159.72876 
L 96.349091 159.712128 
L 100.407273 159.659208 
L 104.465455 159.574536 
L 108.523636 159.455088 
L 112.581818 159.302376 
L 116.64 159.117912 
L 120.698182 158.901696 
L 124.756364 158.65524 
L 128.814545 158.378544 
L 132.872727 158.074632 
L 136.930909 157.743504 
L 140.989091 157.38516 
L 145.047273 157.002624 
L 149.105455 156.597408 
L 153.163636 156.168 
L 157.221818 155.718936 
L 161.28 155.248704 
L 165.338182 154.760328 
L 169.396364 154.25532 
L 173.454545 153.732168 
L 177.512727 153.192384 
L 181.570909 153.384408 
L 185.629091 153.594576 
L 189.687273 153.819864 
L 193.745455 154.054224 
L 197.803636 154.296144 
L 201.861818 154.538064 
L 205.92 154.77696 
L 209.978182 155.00376 
L 214.036364 155.21544 
L 218.094545 155.401416 
L 222.152727 155.552616 
L 226.210909 155.658456 
L 230.269091 155.709864 
L 234.327273 155.693232 
L 238.385455 155.596464 
L 242.443636 155.412 
L 246.501818 155.129256 
L 250.56 154.74672 
L 254.618182 154.26288 
L 258.676364 153.683784 
L 262.734545 153.013968 
L 266.792727 152.262504 
L 270.850909 151.439976 
L 274.909091 150.552432 
L 278.967273 149.610456 
L 283.025455 148.621608 
L 287.083636 147.591936 
L 291.141818 146.529 
L 295.2 145.438848 
L 299.258182 144.327528 
L 303.316364 143.2026 
L 307.374545 142.079184 
L 311.432727 140.978448 
L 315.490909 139.953312 
L 319.549091 139.15044 
L 323.607273 138.841992 
L 327.665455 139.07484 
L 331.723636 139.575312 
L 335.781818 140.17104 
L 339.84 140.797008 
L 343.898182 141.430536 
L 347.956364 142.058016 
L 352.014545 142.676424 
L 356.072727 143.281224 
L 360.130909 143.870904 
L 364.189091 144.445464 
L 368.247273 145.00188 
L 372.305455 145.541664 
L 376.363636 146.064816 
L 380.421818 146.569824 
L 384.48 147.056688 
L 388.538182 147.52692 
L 392.596364 147.979008 
L 396.654545 148.412952 
L 400.712727 148.828752 
L 404.770909 149.22792 
L 408.829091 149.608944 
L 412.887273 149.973336 
L 416.945455 150.319584 
L 421.003636 150.647688 
L 425.061818 150.95916 
L 429.12 151.254 
L 433.178182 151.530696 
L 437.236364 151.79076 
L 441.294545 152.034192 
L 445.352727 152.25948 
L 449.410909 152.468136 
L 453.469091 152.66016 
L 457.527273 152.835552 
L 461.585455 152.994312 
L 465.643636 153.134928 
L 469.701818 153.260424 
L 473.76 153.367776 
L 477.818182 153.460008 
L 481.876364 153.534096 
L 485.934545 153.593064 
L 489.992727 153.633888 
L 494.050909 153.659592 
L 498.109091 153.667152 
" clip-path="url(#p7fe91f8683)" style="fill: none; stroke: #000000; stroke-opacity: 0.5; stroke-linecap: square"/>
   </g>
   <g id="line2d_22">
    <path d="M 92.290909 156.890736 
L 96.349091 156.751632 
L 100.407273 156.40236 
L 104.465455 155.953296 
L 108.523636 155.477016 
L 112.581818 155.006784 
L 116.64 154.563768 
L 120.698182 154.15704 
L 124.756364 153.795672 
L 128.814545 153.481176 
L 132.872727 153.216576 
L 136.930909 153.00036 
L 140.989091 152.83404 
L 145.047273 152.714592 
L 149.105455 152.642016 
L 153.163636 152.613288 
L 157.221818 152.625384 
L 161.28 152.67528 
L 165.338182 152.759952 
L 169.396364 152.876376 
L 173.454545 153.021528 
L 177.512727 153.192384 
L 181.570909 152.638992 
L 185.629091 152.07048 
L 189.687273 151.48836 
L 193.745455 150.894144 
L 197.803636 150.287832 
L 201.861818 149.670936 
L 205.92 149.041944 
L 209.978182 148.402368 
L 214.036364 147.752208 
L 218.094545 147.092976 
L 222.152727 146.424672 
L 226.210909 145.745784 
L 230.269091 145.059336 
L 234.327273 144.362304 
L 238.385455 143.657712 
L 242.443636 142.94556 
L 246.501818 142.222824 
L 250.56 141.492528 
L 254.618182 140.754672 
L 258.676364 140.007744 
L 262.734545 139.253256 
L 266.792727 138.489696 
L 270.850909 137.718576 
L 274.909091 136.939896 
L 278.967273 136.150632 
L 283.025455 135.35532 
L 287.083636 134.549424 
L 291.141818 133.735968 
L 295.2 132.91344 
L 299.258182 132.456816 
L 303.316364 133.280856 
L 307.374545 134.064072 
L 311.432727 134.786808 
L 315.490909 135.394632 
L 319.549091 135.74844 
L 323.607273 135.57456 
L 327.665455 134.827632 
L 331.723636 133.781328 
L 335.781818 132.609528 
L 339.84 131.37876 
L 343.898182 130.111704 
L 347.956364 128.82348 
L 352.014545 127.518624 
L 356.072727 126.201672 
L 360.130909 124.872624 
L 364.189091 123.536016 
L 368.247273 122.190336 
L 372.305455 120.837096 
L 376.363636 119.47932 
L 380.421818 118.113984 
L 384.48 116.744112 
L 388.538182 115.369704 
L 392.596364 113.989248 
L 396.654545 112.605768 
L 400.712727 111.217752 
L 404.770909 109.8252 
L 408.829091 108.429624 
L 412.887273 107.029512 
L 416.945455 105.626376 
L 421.003636 104.220216 
L 425.061818 102.811032 
L 429.12 101.398824 
L 433.178182 99.98208 
L 437.236364 98.565336 
L 441.294545 97.452504 
L 445.352727 96.347232 
L 449.410909 95.24952 
L 453.469091 94.159368 
L 457.527273 93.081312 
L 461.585455 92.024424 
L 465.643636 90.99324 
L 469.701818 90.001368 
L 473.76 89.059392 
L 477.818182 88.186968 
L 481.876364 87.406776 
L 485.934545 86.747544 
L 489.992727 86.242536 
L 494.050909 85.921992 
L 498.109091 85.811616 
" clip-path="url(#p7fe91f8683)" style="fill: none; stroke: #000000; stroke-opacity: 0.5; stroke-linecap: square"/>
   </g>
   <g id="line2d_23">
    <path d="M 92.290909 126.863928 
L 96.349091 126.82764 
L 100.407273 126.715752 
L 104.465455 126.531288 
L 108.523636 126.271224 
L 112.581818 125.940096 
L 116.64 125.536392 
L 120.698182 125.060112 
L 124.756364 124.517304 
L 128.814545 123.906456 
L 132.872727 123.233616 
L 136.930909 122.500296 
L 140.989091 121.712544 
L 145.047273 120.874896 
L 149.105455 119.991888 
L 153.163636 119.069568 
L 157.221818 118.117008 
L 161.28 117.14328 
L 165.338182 116.157456 
L 169.396364 115.174656 
L 173.454545 114.211512 
L 177.512727 113.290704 
L 181.570909 112.445496 
L 185.629091 111.7152 
L 189.687273 111.1482 
L 193.745455 110.794392 
L 197.803636 110.68704 
L 201.861818 110.83068 
L 205.92 111.20112 
L 209.978182 111.753 
L 214.036364 112.445496 
L 218.094545 113.240808 
L 222.152727 114.108696 
L 226.210909 115.031016 
L 230.269091 115.991136 
L 234.327273 116.97696 
L 238.385455 117.980928 
L 242.443636 118.993968 
L 246.501818 120.011544 
L 250.56 121.032144 
L 254.618182 122.048208 
L 258.676364 123.061248 
L 262.734545 124.065216 
L 266.792727 125.0586 
L 270.850909 126.0414 
L 274.909091 127.010592 
L 278.967273 127.964664 
L 283.025455 128.903616 
L 287.083636 129.822912 
L 291.141818 130.724064 
L 295.2 131.602536 
L 299.258182 132.083352 
L 303.316364 131.244192 
L 307.374545 130.39596 
L 311.432727 129.538656 
L 315.490909 128.67228 
L 319.549091 127.796832 
L 323.607273 126.912312 
L 327.665455 126.01872 
L 331.723636 125.117568 
L 335.781818 124.205832 
L 339.84 123.285024 
L 343.898182 122.353632 
L 347.956364 121.41468 
L 352.014545 120.465144 
L 356.072727 119.508048 
L 360.130909 118.540368 
L 364.189091 117.563616 
L 368.247273 116.57628 
L 372.305455 115.581384 
L 376.363636 114.577416 
L 380.421818 113.562864 
L 384.48 112.540752 
L 388.538182 111.509568 
L 392.596364 110.469312 
L 396.654545 109.419984 
L 400.712727 108.363096 
L 404.770909 107.298648 
L 408.829091 106.225128 
L 412.887273 105.14556 
L 416.945455 104.059944 
L 421.003636 102.96828 
L 425.061818 101.870568 
L 429.12 100.769832 
L 433.178182 99.66456 
L 437.236364 98.557776 
L 441.294545 97.144056 
L 445.352727 95.721264 
L 449.410909 94.295448 
L 453.469091 92.866608 
L 457.527273 91.437768 
L 461.585455 90.005904 
L 465.643636 88.572528 
L 469.701818 87.13764 
L 473.76 85.70124 
L 477.818182 84.26484 
L 481.876364 82.826928 
L 485.934545 81.389016 
L 489.992727 79.952616 
L 494.050909 78.517728 
L 498.109091 77.202288 
" clip-path="url(#p7fe91f8683)" style="fill: none; stroke: #000000; stroke-opacity: 0.5; stroke-linecap: square"/>
   </g>
   <g id="patch_3">
    <path d="M 72 384.48 
L 72 51.84 
" style="fill: none; stroke: #000000; stroke-width: 0.8; stroke-linejoin: miter; stroke-linecap: square"/>
   </g>
   <g id="patch_4">
    <path d="M 518.4 384.48 
L 518.4 51.84 
" style="fill: none; stroke: #000000; stroke-width: 0.8; stroke-linejoin: miter; stroke-linecap: square"/>
   </g>
   <g id="patch_5">
    <path d="M 72 384.48 
L 518.4 384.48 
" style="fill: none; stroke: #000000; stroke-width: 0.8; stroke-linejoin: miter; stroke-linecap: square"/>
   </g>
   <g id="patch_6">
    <path d="M 72 51.84 
L 518.4 51.84 
" style="fill: none; stroke: #000000; stroke-width: 0.8; stroke-linejoin: miter; stroke-linecap: square"/>
   </g>
  </g>
 </g>
 <defs>
  <clipPath id="p7fe91f8683">
   <rect x="72" y="51.84" width="446.4" height="332.64"/>
  </clipPath>
 </defs>
</svg>
