<?xml version="1.0" encoding="utf-8" standalone="no"?>
<!DOCTYPE svg PUBLIC "-//W3C//DTD SVG 1.1//EN"
  "http://www.w3.org/Graphics/SVG/1.1/DTD/svg11.dtd">
<svg xmlns:xlink="http://www.w3.org/1999/xlink" width="576pt" height="432pt" viewBox="0 0 576 432" xmlns="http://www.w3.org/2000/svg" version="1.1">
 <metadata>
  <rdf:RDF xmlns:dc="http://purl.org/dc/elements/1.1/" xmlns:cc="http://creativecommons.org/ns#" xmlns:rdf="http://www.w3.org/1999/02/22-rdf-syntax-ns#">
   <cc:Work>
    <dc:type rdf:resource="http://purl.org/dc/dcmitype/StillImage"/>
    <dc:date>2023-05-02T22:06:30.556631</dc:date>
    <dc:format>image/svg+xml</dc:format>
    <dc:creator>
     <cc:Agent>
      <dc:title>Matplotlib v3.7.1, https://matplotlib.org/</dc:title>
     </cc:Agent>
    </dc:creator>
   </cc:Work>
  </rdf:RDF>
 </metadata>
 <defs>
  <style type="text/css">*{stroke-linejoin: round; stroke-linecap: butt}</style>
 </defs>
 <g id="figure_1">
  <g id="patch_1">
   <path d="M 0 432 
L 576 432 
L 576 0 
L 0 0 
z
" style="fill: #ffffff"/>
  </g>
  <g id="axes_1">
   <g id="patch_2">
    <path d="M 72 384.48 
L 518.4 384.48 
L 518.4 51.84 
L 72 51.84 
z
" style="fill: #ffffff"/>
   </g>
   <g id="matplotlib.axis_1">
    <g id="xtick_1">
     <g id="line2d_1">
      <defs>
       <path id="m81ce5627a3" d="M 0 0 
L 0 3.5 
" style="stroke: #000000; stroke-width: 0.8"/>
      </defs>
      <g>
       <use xlink:href="#m81ce5627a3" x="92.290909" y="384.48" style="stroke: #000000; stroke-width: 0.8"/>
      </g>
     </g>
     <g id="text_1">
      <!-- 0.0 -->
      <g transform="translate(84.339347 399.078438) scale(0.1 -0.1)">
       <defs>
        <path id="DejaVuSans-30" d="M 2034 4250 
Q 1547 4250 1301 3770 
Q 1056 3291 1056 2328 
Q 1056 1369 1301 889 
Q 1547 409 2034 409 
Q 2525 409 2770 889 
Q 3016 1369 3016 2328 
Q 3016 3291 2770 3770 
Q 2525 4250 2034 4250 
z
M 2034 4750 
Q 2819 4750 3233 4129 
Q 3647 3509 3647 2328 
Q 3647 1150 3233 529 
Q 2819 -91 2034 -91 
Q 1250 -91 836 529 
Q 422 1150 422 2328 
Q 422 3509 836 4129 
Q 1250 4750 2034 4750 
z
" transform="scale(0.015625)"/>
        <path id="DejaVuSans-2e" d="M 684 794 
L 1344 794 
L 1344 0 
L 684 0 
L 684 794 
z
" transform="scale(0.015625)"/>
       </defs>
       <use xlink:href="#DejaVuSans-30"/>
       <use xlink:href="#DejaVuSans-2e" x="63.623047"/>
       <use xlink:href="#DejaVuSans-30" x="95.410156"/>
      </g>
     </g>
    </g>
    <g id="xtick_2">
     <g id="line2d_2">
      <g>
       <use xlink:href="#m81ce5627a3" x="173.454545" y="384.48" style="stroke: #000000; stroke-width: 0.8"/>
      </g>
     </g>
     <g id="text_2">
      <!-- 0.2 -->
      <g transform="translate(165.502983 399.078438) scale(0.1 -0.1)">
       <defs>
        <path id="DejaVuSans-32" d="M 1228 531 
L 3431 531 
L 3431 0 
L 469 0 
L 469 531 
Q 828 903 1448 1529 
Q 2069 2156 2228 2338 
Q 2531 2678 2651 2914 
Q 2772 3150 2772 3378 
Q 2772 3750 2511 3984 
Q 2250 4219 1831 4219 
Q 1534 4219 1204 4116 
Q 875 4013 500 3803 
L 500 4441 
Q 881 4594 1212 4672 
Q 1544 4750 1819 4750 
Q 2544 4750 2975 4387 
Q 3406 4025 3406 3419 
Q 3406 3131 3298 2873 
Q 3191 2616 2906 2266 
Q 2828 2175 2409 1742 
Q 1991 1309 1228 531 
z
" transform="scale(0.015625)"/>
       </defs>
       <use xlink:href="#DejaVuSans-30"/>
       <use xlink:href="#DejaVuSans-2e" x="63.623047"/>
       <use xlink:href="#DejaVuSans-32" x="95.410156"/>
      </g>
     </g>
    </g>
    <g id="xtick_3">
     <g id="line2d_3">
      <g>
       <use xlink:href="#m81ce5627a3" x="254.618182" y="384.48" style="stroke: #000000; stroke-width: 0.8"/>
      </g>
     </g>
     <g id="text_3">
      <!-- 0.4 -->
      <g transform="translate(246.666619 399.078438) scale(0.1 -0.1)">
       <defs>
        <path id="DejaVuSans-34" d="M 2419 4116 
L 825 1625 
L 2419 1625 
L 2419 4116 
z
M 2253 4666 
L 3047 4666 
L 3047 1625 
L 3713 1625 
L 3713 1100 
L 3047 1100 
L 3047 0 
L 2419 0 
L 2419 1100 
L 313 1100 
L 313 1709 
L 2253 4666 
z
" transform="scale(0.015625)"/>
       </defs>
       <use xlink:href="#DejaVuSans-30"/>
       <use xlink:href="#DejaVuSans-2e" x="63.623047"/>
       <use xlink:href="#DejaVuSans-34" x="95.410156"/>
      </g>
     </g>
    </g>
    <g id="xtick_4">
     <g id="line2d_4">
      <g>
       <use xlink:href="#m81ce5627a3" x="335.781818" y="384.48" style="stroke: #000000; stroke-width: 0.8"/>
      </g>
     </g>
     <g id="text_4">
      <!-- 0.6 -->
      <g transform="translate(327.830256 399.078438) scale(0.1 -0.1)">
       <defs>
        <path id="DejaVuSans-36" d="M 2113 2584 
Q 1688 2584 1439 2293 
Q 1191 2003 1191 1497 
Q 1191 994 1439 701 
Q 1688 409 2113 409 
Q 2538 409 2786 701 
Q 3034 994 3034 1497 
Q 3034 2003 2786 2293 
Q 2538 2584 2113 2584 
z
M 3366 4563 
L 3366 3988 
Q 3128 4100 2886 4159 
Q 2644 4219 2406 4219 
Q 1781 4219 1451 3797 
Q 1122 3375 1075 2522 
Q 1259 2794 1537 2939 
Q 1816 3084 2150 3084 
Q 2853 3084 3261 2657 
Q 3669 2231 3669 1497 
Q 3669 778 3244 343 
Q 2819 -91 2113 -91 
Q 1303 -91 875 529 
Q 447 1150 447 2328 
Q 447 3434 972 4092 
Q 1497 4750 2381 4750 
Q 2619 4750 2861 4703 
Q 3103 4656 3366 4563 
z
" transform="scale(0.015625)"/>
       </defs>
       <use xlink:href="#DejaVuSans-30"/>
       <use xlink:href="#DejaVuSans-2e" x="63.623047"/>
       <use xlink:href="#DejaVuSans-36" x="95.410156"/>
      </g>
     </g>
    </g>
    <g id="xtick_5">
     <g id="line2d_5">
      <g>
       <use xlink:href="#m81ce5627a3" x="416.945455" y="384.48" style="stroke: #000000; stroke-width: 0.8"/>
      </g>
     </g>
     <g id="text_5">
      <!-- 0.8 -->
      <g transform="translate(408.993892 399.078438) scale(0.1 -0.1)">
       <defs>
        <path id="DejaVuSans-38" d="M 2034 2216 
Q 1584 2216 1326 1975 
Q 1069 1734 1069 1313 
Q 1069 891 1326 650 
Q 1584 409 2034 409 
Q 2484 409 2743 651 
Q 3003 894 3003 1313 
Q 3003 1734 2745 1975 
Q 2488 2216 2034 2216 
z
M 1403 2484 
Q 997 2584 770 2862 
Q 544 3141 544 3541 
Q 544 4100 942 4425 
Q 1341 4750 2034 4750 
Q 2731 4750 3128 4425 
Q 3525 4100 3525 3541 
Q 3525 3141 3298 2862 
Q 3072 2584 2669 2484 
Q 3125 2378 3379 2068 
Q 3634 1759 3634 1313 
Q 3634 634 3220 271 
Q 2806 -91 2034 -91 
Q 1263 -91 848 271 
Q 434 634 434 1313 
Q 434 1759 690 2068 
Q 947 2378 1403 2484 
z
M 1172 3481 
Q 1172 3119 1398 2916 
Q 1625 2713 2034 2713 
Q 2441 2713 2670 2916 
Q 2900 3119 2900 3481 
Q 2900 3844 2670 4047 
Q 2441 4250 2034 4250 
Q 1625 4250 1398 4047 
Q 1172 3844 1172 3481 
z
" transform="scale(0.015625)"/>
       </defs>
       <use xlink:href="#DejaVuSans-30"/>
       <use xlink:href="#DejaVuSans-2e" x="63.623047"/>
       <use xlink:href="#DejaVuSans-38" x="95.410156"/>
      </g>
     </g>
    </g>
    <g id="xtick_6">
     <g id="line2d_6">
      <g>
       <use xlink:href="#m81ce5627a3" x="498.109091" y="384.48" style="stroke: #000000; stroke-width: 0.8"/>
      </g>
     </g>
     <g id="text_6">
      <!-- 1.0 -->
      <g transform="translate(490.157528 399.078438) scale(0.1 -0.1)">
       <defs>
        <path id="DejaVuSans-31" d="M 794 531 
L 1825 531 
L 1825 4091 
L 703 3866 
L 703 4441 
L 1819 4666 
L 2450 4666 
L 2450 531 
L 3481 531 
L 3481 0 
L 794 0 
L 794 531 
z
" transform="scale(0.015625)"/>
       </defs>
       <use xlink:href="#DejaVuSans-31"/>
       <use xlink:href="#DejaVuSans-2e" x="63.623047"/>
       <use xlink:href="#DejaVuSans-30" x="95.410156"/>
      </g>
     </g>
    </g>
   </g>
   <g id="matplotlib.axis_2">
    <g id="ytick_1">
     <g id="line2d_7">
      <defs>
       <path id="m75096e5bcb" d="M 0 0 
L -3.5 0 
" style="stroke: #000000; stroke-width: 0.8"/>
      </defs>
      <g>
       <use xlink:href="#m75096e5bcb" x="72" y="369.36" style="stroke: #000000; stroke-width: 0.8"/>
      </g>
     </g>
     <g id="text_7">
      <!-- −5.0 -->
      <g transform="translate(40.717187 373.159219) scale(0.1 -0.1)">
       <defs>
        <path id="DejaVuSans-2212" d="M 678 2272 
L 4684 2272 
L 4684 1741 
L 678 1741 
L 678 2272 
z
" transform="scale(0.015625)"/>
        <path id="DejaVuSans-35" d="M 691 4666 
L 3169 4666 
L 3169 4134 
L 1269 4134 
L 1269 2991 
Q 1406 3038 1543 3061 
Q 1681 3084 1819 3084 
Q 2600 3084 3056 2656 
Q 3513 2228 3513 1497 
Q 3513 744 3044 326 
Q 2575 -91 1722 -91 
Q 1428 -91 1123 -41 
Q 819 9 494 109 
L 494 744 
Q 775 591 1075 516 
Q 1375 441 1709 441 
Q 2250 441 2565 725 
Q 2881 1009 2881 1497 
Q 2881 1984 2565 2268 
Q 2250 2553 1709 2553 
Q 1456 2553 1204 2497 
Q 953 2441 691 2322 
L 691 4666 
z
" transform="scale(0.015625)"/>
       </defs>
       <use xlink:href="#DejaVuSans-2212"/>
       <use xlink:href="#DejaVuSans-35" x="83.789062"/>
       <use xlink:href="#DejaVuSans-2e" x="147.412109"/>
       <use xlink:href="#DejaVuSans-30" x="179.199219"/>
      </g>
     </g>
    </g>
    <g id="ytick_2">
     <g id="line2d_8">
      <g>
       <use xlink:href="#m75096e5bcb" x="72" y="331.56" style="stroke: #000000; stroke-width: 0.8"/>
      </g>
     </g>
     <g id="text_8">
      <!-- −2.5 -->
      <g transform="translate(40.717187 335.359219) scale(0.1 -0.1)">
       <use xlink:href="#DejaVuSans-2212"/>
       <use xlink:href="#DejaVuSans-32" x="83.789062"/>
       <use xlink:href="#DejaVuSans-2e" x="147.412109"/>
       <use xlink:href="#DejaVuSans-35" x="179.199219"/>
      </g>
     </g>
    </g>
    <g id="ytick_3">
     <g id="line2d_9">
      <g>
       <use xlink:href="#m75096e5bcb" x="72" y="293.76" style="stroke: #000000; stroke-width: 0.8"/>
      </g>
     </g>
     <g id="text_9">
      <!-- 0.0 -->
      <g transform="translate(49.096875 297.559219) scale(0.1 -0.1)">
       <use xlink:href="#DejaVuSans-30"/>
       <use xlink:href="#DejaVuSans-2e" x="63.623047"/>
       <use xlink:href="#DejaVuSans-30" x="95.410156"/>
      </g>
     </g>
    </g>
    <g id="ytick_4">
     <g id="line2d_10">
      <g>
       <use xlink:href="#m75096e5bcb" x="72" y="255.96" style="stroke: #000000; stroke-width: 0.8"/>
      </g>
     </g>
     <g id="text_10">
      <!-- 2.5 -->
      <g transform="translate(49.096875 259.759219) scale(0.1 -0.1)">
       <use xlink:href="#DejaVuSans-32"/>
       <use xlink:href="#DejaVuSans-2e" x="63.623047"/>
       <use xlink:href="#DejaVuSans-35" x="95.410156"/>
      </g>
     </g>
    </g>
    <g id="ytick_5">
     <g id="line2d_11">
      <g>
       <use xlink:href="#m75096e5bcb" x="72" y="218.16" style="stroke: #000000; stroke-width: 0.8"/>
      </g>
     </g>
     <g id="text_11">
      <!-- 5.0 -->
      <g transform="translate(49.096875 221.959219) scale(0.1 -0.1)">
       <use xlink:href="#DejaVuSans-35"/>
       <use xlink:href="#DejaVuSans-2e" x="63.623047"/>
       <use xlink:href="#DejaVuSans-30" x="95.410156"/>
      </g>
     </g>
    </g>
    <g id="ytick_6">
     <g id="line2d_12">
      <g>
       <use xlink:href="#m75096e5bcb" x="72" y="180.36" style="stroke: #000000; stroke-width: 0.8"/>
      </g>
     </g>
     <g id="text_12">
      <!-- 7.5 -->
      <g transform="translate(49.096875 184.159219) scale(0.1 -0.1)">
       <defs>
        <path id="DejaVuSans-37" d="M 525 4666 
L 3525 4666 
L 3525 4397 
L 1831 0 
L 1172 0 
L 2766 4134 
L 525 4134 
L 525 4666 
z
" transform="scale(0.015625)"/>
       </defs>
       <use xlink:href="#DejaVuSans-37"/>
       <use xlink:href="#DejaVuSans-2e" x="63.623047"/>
       <use xlink:href="#DejaVuSans-35" x="95.410156"/>
      </g>
     </g>
    </g>
    <g id="ytick_7">
     <g id="line2d_13">
      <g>
       <use xlink:href="#m75096e5bcb" x="72" y="142.56" style="stroke: #000000; stroke-width: 0.8"/>
      </g>
     </g>
     <g id="text_13">
      <!-- 10.0 -->
      <g transform="translate(42.734375 146.359219) scale(0.1 -0.1)">
       <use xlink:href="#DejaVuSans-31"/>
       <use xlink:href="#DejaVuSans-30" x="63.623047"/>
       <use xlink:href="#DejaVuSans-2e" x="127.246094"/>
       <use xlink:href="#DejaVuSans-30" x="159.033203"/>
      </g>
     </g>
    </g>
    <g id="ytick_8">
     <g id="line2d_14">
      <g>
       <use xlink:href="#m75096e5bcb" x="72" y="104.76" style="stroke: #000000; stroke-width: 0.8"/>
      </g>
     </g>
     <g id="text_14">
      <!-- 12.5 -->
      <g transform="translate(42.734375 108.559219) scale(0.1 -0.1)">
       <use xlink:href="#DejaVuSans-31"/>
       <use xlink:href="#DejaVuSans-32" x="63.623047"/>
       <use xlink:href="#DejaVuSans-2e" x="127.246094"/>
       <use xlink:href="#DejaVuSans-35" x="159.033203"/>
      </g>
     </g>
    </g>
    <g id="ytick_9">
     <g id="line2d_15">
      <g>
       <use xlink:href="#m75096e5bcb" x="72" y="66.96" style="stroke: #000000; stroke-width: 0.8"/>
      </g>
     </g>
     <g id="text_15">
      <!-- 15.0 -->
      <g transform="translate(42.734375 70.759219) scale(0.1 -0.1)">
       <use xlink:href="#DejaVuSans-31"/>
       <use xlink:href="#DejaVuSans-35" x="63.623047"/>
       <use xlink:href="#DejaVuSans-2e" x="127.246094"/>
       <use xlink:href="#DejaVuSans-30" x="159.033203"/>
      </g>
     </g>
    </g>
   </g>
   <g id="line2d_16">
    <path d="M 92.290909 356.895072 
L 96.349091 356.890536 
L 100.407273 356.873904 
L 104.465455 356.8482 
L 108.523636 356.811912 
L 112.581818 356.766552 
L 116.64 356.709096 
L 120.698182 356.642568 
L 124.756364 356.565456 
L 128.814545 356.47776 
L 132.872727 356.37948 
L 136.930909 356.272128 
L 140.989091 356.154192 
L 145.047273 356.025672 
L 149.105455 355.88808 
L 153.163636 355.741416 
L 157.221818 355.584168 
L 161.28 355.416336 
L 165.338182 355.239432 
L 169.396364 355.053456 
L 173.454545 354.856896 
L 177.512727 354.652776 
L 181.570909 354.438072 
L 185.629091 354.214296 
L 189.687273 353.981448 
L 193.745455 353.739528 
L 197.803636 353.490048 
L 201.861818 353.231496 
L 205.92 352.963872 
L 209.978182 352.688688 
L 214.036364 352.404432 
L 218.094545 352.114128 
L 222.152727 351.814752 
L 226.210909 351.507816 
L 230.269091 351.19332 
L 234.327273 350.872776 
L 238.385455 350.546184 
L 242.443636 350.212032 
L 246.501818 349.871832 
L 250.56 349.525584 
L 254.618182 349.173288 
L 258.676364 348.816456 
L 262.734545 348.453576 
L 266.792727 348.087672 
L 270.850909 347.71572 
L 274.909091 347.342256 
L 278.967273 346.964256 
L 283.025455 346.583232 
L 287.083636 346.199184 
L 291.141818 345.813624 
L 295.2 345.426552 
L 299.258182 345.03948 
L 303.316364 344.650896 
L 307.374545 344.262312 
L 311.432727 343.87524 
L 315.490909 343.488168 
L 319.549091 343.10412 
L 323.607273 342.723096 
L 327.665455 342.343584 
L 331.723636 341.97012 
L 335.781818 341.59968 
L 339.84 341.235288 
L 343.898182 340.875432 
L 347.956364 340.523136 
L 352.014545 340.176888 
L 356.072727 339.839712 
L 360.130909 339.511608 
L 364.189091 339.191064 
L 368.247273 338.879592 
L 372.305455 338.580216 
L 376.363636 338.289912 
L 380.421818 338.010192 
L 384.48 337.742568 
L 388.538182 337.48704 
L 392.596364 337.242096 
L 396.654545 337.009248 
L 400.712727 336.790008 
L 404.770909 336.581352 
L 408.829091 336.384792 
L 412.887273 336.20184 
L 416.945455 336.029472 
L 421.003636 335.867688 
L 425.061818 335.719512 
L 429.12 335.580408 
L 433.178182 335.4534 
L 437.236364 335.335464 
L 441.294545 335.228112 
L 445.352727 335.131344 
L 449.410909 335.042136 
L 453.469091 334.962 
L 457.527273 334.890936 
L 461.585455 334.827432 
L 465.643636 334.773 
L 469.701818 334.724616 
L 473.76 334.68228 
L 477.818182 334.649016 
L 481.876364 334.620288 
L 485.934545 334.59912 
L 489.992727 334.584 
L 494.050909 334.574928 
L 498.109091 334.571904 
" clip-path="url(#p5dd98f7c27)" style="fill: none; stroke: #000000; stroke-opacity: 0.5; stroke-linecap: square"/>
   </g>
   <g id="line2d_17">
    <path d="M 92.290909 274.24764 
L 96.349091 274.274856 
L 100.407273 274.35348 
L 104.465455 274.482 
L 108.523636 274.661928 
L 112.581818 274.888728 
L 116.64 275.1624 
L 120.698182 275.478408 
L 124.756364 275.83524 
L 128.814545 276.22836 
L 132.872727 276.656256 
L 136.930909 277.114392 
L 140.989091 277.601256 
L 145.047273 278.113824 
L 149.105455 278.649072 
L 153.163636 279.205488 
L 157.221818 279.778536 
L 161.28 280.366704 
L 165.338182 280.966968 
L 169.396364 281.579328 
L 173.454545 282.202272 
L 177.512727 282.831264 
L 181.570909 283.466304 
L 185.629091 284.10588 
L 189.687273 284.749992 
L 193.745455 285.394104 
L 197.803636 286.039728 
L 201.861818 286.685352 
L 205.92 287.329464 
L 209.978182 287.970552 
L 214.036364 288.608616 
L 218.094545 289.243656 
L 222.152727 289.872648 
L 226.210909 290.497104 
L 230.269091 291.114 
L 234.327273 291.724848 
L 238.385455 292.326624 
L 242.443636 292.92084 
L 246.501818 293.507496 
L 250.56 294.083568 
L 254.618182 294.649056 
L 258.676364 295.205472 
L 262.734545 295.749792 
L 266.792727 296.283528 
L 270.850909 296.803656 
L 274.909091 297.311688 
L 278.967273 297.807624 
L 283.025455 298.289952 
L 287.083636 298.75716 
L 291.141818 299.21076 
L 295.2 299.64924 
L 299.258182 300.0726 
L 303.316364 300.479328 
L 307.374545 300.869424 
L 311.432727 301.2444 
L 315.490909 301.601232 
L 319.549091 301.93992 
L 323.607273 302.260464 
L 327.665455 302.562864 
L 331.723636 302.84712 
L 335.781818 303.110208 
L 339.84 303.355152 
L 343.898182 303.58044 
L 347.956364 303.78456 
L 352.014545 303.969024 
L 356.072727 304.13232 
L 360.130909 304.274448 
L 364.189091 304.395408 
L 368.247273 304.496712 
L 372.305455 304.576848 
L 376.363636 304.637328 
L 380.421818 304.67664 
L 384.48 304.697808 
L 388.538182 304.697808 
L 392.596364 304.679664 
L 396.654545 304.643376 
L 400.712727 304.591968 
L 404.770909 304.522416 
L 408.829091 304.439256 
L 412.887273 304.340976 
L 416.945455 304.2306 
L 421.003636 304.111152 
L 425.061818 303.98112 
L 429.12 303.842016 
L 433.178182 303.698376 
L 437.236364 303.551712 
L 441.294545 303.400512 
L 445.352727 303.250824 
L 449.410909 303.101136 
L 453.469091 302.955984 
L 457.527273 302.815368 
L 461.585455 302.6808 
L 465.643636 302.556816 
L 469.701818 302.441904 
L 473.76 302.339088 
L 477.818182 302.24988 
L 481.876364 302.175792 
L 485.934545 302.115312 
L 489.992727 302.072976 
L 494.050909 302.047272 
L 498.109091 302.0382 
" clip-path="url(#p5dd98f7c27)" style="fill: none; stroke: #000000; stroke-opacity: 0.5; stroke-linecap: square"/>
   </g>
   <g id="line2d_18">
    <path d="M 92.290909 244.878552 
L 96.349091 244.86192 
L 100.407273 244.812024 
L 104.465455 244.731888 
L 108.523636 244.62 
L 112.581818 244.482408 
L 116.64 244.319112 
L 120.698182 244.134648 
L 124.756364 243.933552 
L 128.814545 243.72036 
L 132.872727 243.498096 
L 136.930909 243.271296 
L 140.989091 243.04752 
L 145.047273 242.82828 
L 149.105455 242.619624 
L 153.163636 242.424576 
L 157.221818 242.250696 
L 161.28 242.099496 
L 165.338182 241.974 
L 169.396364 241.878744 
L 173.454545 241.81524 
L 177.512727 241.783488 
L 181.570909 241.786512 
L 185.629091 241.8228 
L 189.687273 241.892352 
L 193.745455 241.993656 
L 197.803636 242.1252 
L 201.861818 242.285472 
L 205.92 242.47296 
L 209.978182 242.686152 
L 214.036364 242.922024 
L 218.094545 243.180576 
L 222.152727 243.457272 
L 226.210909 243.753624 
L 230.269091 244.065096 
L 234.327273 244.391688 
L 238.385455 244.7334 
L 242.443636 245.085696 
L 246.501818 245.448576 
L 250.56 245.82204 
L 254.618182 246.203064 
L 258.676364 246.591648 
L 262.734545 246.98628 
L 266.792727 247.38696 
L 270.850909 247.790664 
L 274.909091 248.198904 
L 278.967273 248.608656 
L 283.025455 249.021432 
L 287.083636 249.434208 
L 291.141818 249.848496 
L 295.2 250.261272 
L 299.258182 250.674048 
L 303.316364 251.0838 
L 307.374545 251.493552 
L 311.432727 251.898768 
L 315.490909 252.302472 
L 319.549091 252.70164 
L 323.607273 253.097784 
L 327.665455 253.489392 
L 331.723636 253.876464 
L 335.781818 254.257488 
L 339.84 254.633976 
L 343.898182 255.004416 
L 347.956364 255.367296 
L 352.014545 255.72564 
L 356.072727 256.077936 
L 360.130909 256.422672 
L 364.189091 256.759848 
L 368.247273 257.089464 
L 372.305455 257.413032 
L 376.363636 257.727528 
L 380.421818 258.035976 
L 384.48 258.335352 
L 388.538182 258.627168 
L 392.596364 258.909912 
L 396.654545 259.185096 
L 400.712727 259.451208 
L 404.770909 259.708248 
L 408.829091 259.957728 
L 412.887273 260.196624 
L 416.945455 260.42796 
L 421.003636 260.648712 
L 425.061818 260.861904 
L 429.12 261.064512 
L 433.178182 261.258048 
L 437.236364 261.441 
L 441.294545 261.613368 
L 445.352727 261.776664 
L 449.410909 261.929376 
L 453.469091 262.071504 
L 457.527273 262.201536 
L 461.585455 262.320984 
L 465.643636 262.428336 
L 469.701818 262.525104 
L 473.76 262.608264 
L 477.818182 262.68084 
L 481.876364 262.739808 
L 485.934545 262.785168 
L 489.992727 262.818432 
L 494.050909 262.838088 
L 498.109091 262.845648 
" clip-path="url(#p5dd98f7c27)" style="fill: none; stroke: #000000; stroke-opacity: 0.5; stroke-linecap: square"/>
   </g>
   <g id="line2d_19">
    <path d="M 92.290909 234.057168 
L 96.349091 234.055656 
L 100.407273 234.054144 
L 104.465455 234.05112 
L 108.523636 234.045072 
L 112.581818 234.037512 
L 116.64 234.02844 
L 120.698182 234.014832 
L 124.756364 233.999712 
L 128.814545 233.978544 
L 132.872727 233.95284 
L 136.930909 233.921088 
L 140.989091 233.880264 
L 145.047273 233.83188 
L 149.105455 233.772912 
L 153.163636 233.700336 
L 157.221818 233.615664 
L 161.28 233.51436 
L 165.338182 233.397936 
L 169.396364 233.26488 
L 173.454545 233.112168 
L 177.512727 232.944336 
L 181.570909 232.75836 
L 185.629091 232.557264 
L 189.687273 232.34256 
L 193.745455 232.114248 
L 197.803636 231.875352 
L 201.861818 231.627384 
L 205.92 231.373368 
L 209.978182 231.114816 
L 214.036364 230.85324 
L 218.094545 230.590152 
L 222.152727 230.328576 
L 226.210909 230.068512 
L 230.269091 229.811472 
L 234.327273 229.56048 
L 238.385455 229.315536 
L 242.443636 229.078152 
L 246.501818 228.851352 
L 250.56 228.633624 
L 254.618182 228.429504 
L 258.676364 228.23748 
L 262.734545 228.062088 
L 266.792727 227.903328 
L 270.850909 227.7612 
L 274.909091 227.64024 
L 278.967273 227.538936 
L 283.025455 227.460312 
L 287.083636 227.407392 
L 291.141818 227.380176 
L 295.2 227.380176 
L 299.258182 227.408904 
L 303.316364 227.467872 
L 307.374545 227.55708 
L 311.432727 227.681064 
L 315.490909 227.8368 
L 319.549091 228.028824 
L 323.607273 228.254112 
L 327.665455 228.514176 
L 331.723636 228.809016 
L 335.781818 229.140144 
L 339.84 229.503024 
L 343.898182 229.90068 
L 347.956364 230.330088 
L 352.014545 230.789736 
L 356.072727 231.278112 
L 360.130909 231.793704 
L 364.189091 232.333488 
L 368.247273 232.895952 
L 372.305455 233.479584 
L 376.363636 234.08136 
L 380.421818 234.696744 
L 384.48 235.325736 
L 388.538182 235.965312 
L 392.596364 236.610936 
L 396.654545 237.261096 
L 400.712727 237.91428 
L 404.770909 238.56444 
L 408.829091 239.213088 
L 412.887273 239.854176 
L 416.945455 240.487704 
L 421.003636 241.109136 
L 425.061818 241.71696 
L 429.12 242.308152 
L 433.178182 242.8812 
L 437.236364 243.431568 
L 441.294545 243.959256 
L 445.352727 244.46124 
L 449.410909 244.936008 
L 453.469091 245.380536 
L 457.527273 245.793312 
L 461.585455 246.172824 
L 465.643636 246.51756 
L 469.701818 246.824496 
L 473.76 247.095144 
L 477.818182 247.324968 
L 481.876364 247.513968 
L 485.934545 247.662144 
L 489.992727 247.769496 
L 494.050909 247.833 
L 498.109091 247.854168 
" clip-path="url(#p5dd98f7c27)" style="fill: none; stroke: #000000; stroke-opacity: 0.5; stroke-linecap: square"/>
   </g>
   <g id="line2d_20">
    <path d="M 92.290909 176.629896 
L 96.349091 176.641992 
L 100.407273 176.676768 
L 104.465455 176.734224 
L 108.523636 176.808312 
L 112.581818 176.896008 
L 116.64 176.991264 
L 120.698182 177.089544 
L 124.756364 177.1848 
L 128.814545 177.272496 
L 132.872727 177.345072 
L 136.930909 177.397992 
L 140.989091 177.428232 
L 145.047273 177.429744 
L 149.105455 177.401016 
L 153.163636 177.337512 
L 157.221818 177.23772 
L 161.28 177.097104 
L 165.338182 176.915664 
L 169.396364 176.690376 
L 173.454545 176.419728 
L 177.512727 176.105232 
L 181.570909 175.743864 
L 185.629091 175.337136 
L 189.687273 174.883536 
L 193.745455 174.383064 
L 197.803636 173.838744 
L 201.861818 173.249064 
L 205.92 172.617048 
L 209.978182 171.942696 
L 214.036364 171.22752 
L 218.094545 170.473032 
L 222.152727 169.683768 
L 226.210909 168.862752 
L 230.269091 168.011496 
L 234.327273 167.13756 
L 238.385455 166.248504 
L 242.443636 165.356424 
L 246.501818 164.477952 
L 250.56 163.646352 
L 254.618182 162.914544 
L 258.676364 162.37476 
L 262.734545 162.1404 
L 266.792727 162.274968 
L 270.850909 162.72252 
L 274.909091 163.36512 
L 278.967273 164.109024 
L 283.025455 164.896776 
L 287.083636 165.695112 
L 291.141818 166.482864 
L 295.2 167.246424 
L 299.258182 167.979744 
L 303.316364 168.675264 
L 307.374545 169.326936 
L 311.432727 169.933248 
L 315.490909 170.489664 
L 319.549091 170.99316 
L 323.607273 171.443736 
L 327.665455 171.83988 
L 331.723636 172.178568 
L 335.781818 172.4598 
L 339.84 172.683576 
L 343.898182 172.849896 
L 347.956364 172.95876 
L 352.014545 173.01168 
L 356.072727 173.007144 
L 360.130909 172.948176 
L 364.189091 172.836288 
L 368.247273 172.67148 
L 372.305455 172.456776 
L 376.363636 172.192176 
L 380.421818 171.879192 
L 384.48 171.52236 
L 388.538182 171.118656 
L 392.596364 170.674128 
L 396.654545 170.188776 
L 400.712727 169.665624 
L 404.770909 169.10316 
L 408.829091 168.50592 
L 412.887273 167.875416 
L 416.945455 167.211648 
L 421.003636 166.516128 
L 425.061818 165.79188 
L 429.12 165.040416 
L 433.178182 164.261736 
L 437.236364 163.458864 
L 441.294545 162.6318 
L 445.352727 161.783568 
L 449.410909 160.91568 
L 453.469091 160.029648 
L 457.527273 159.126984 
L 461.585455 158.213736 
L 465.643636 157.289904 
L 469.701818 156.36456 
L 473.76 155.440728 
L 477.818182 154.530504 
L 481.876364 153.652032 
L 485.934545 152.83404 
L 489.992727 152.127936 
L 494.050909 151.621416 
L 498.109091 151.430904 
" clip-path="url(#p5dd98f7c27)" style="fill: none; stroke: #000000; stroke-opacity: 0.5; stroke-linecap: square"/>
   </g>
   <g id="line2d_21">
    <path d="M 92.290909 156.703248 
L 96.349091 156.653352 
L 100.407273 156.5082 
L 104.465455 156.26628 
L 108.523636 155.93364 
L 112.581818 155.513304 
L 116.64 155.01132 
L 120.698182 154.430712 
L 124.756364 153.77904 
L 128.814545 153.06084 
L 132.872727 152.28216 
L 136.930909 151.446024 
L 140.989091 150.556968 
L 145.047273 149.619528 
L 149.105455 148.63824 
L 153.163636 147.614616 
L 157.221818 146.553192 
L 161.28 145.45548 
L 165.338182 144.326016 
L 169.396364 143.166312 
L 173.454545 141.982416 
L 177.512727 140.77584 
L 181.570909 139.561704 
L 185.629091 138.376296 
L 189.687273 137.452464 
L 193.745455 137.739744 
L 197.803636 138.769416 
L 201.861818 139.938192 
L 205.92 141.15384 
L 209.978182 142.39368 
L 214.036364 143.642592 
L 218.094545 144.894528 
L 222.152727 146.141928 
L 226.210909 147.378744 
L 230.269091 148.598928 
L 234.327273 149.796432 
L 238.385455 150.95916 
L 242.443636 152.076528 
L 246.501818 153.127368 
L 250.56 154.079928 
L 254.618182 154.879776 
L 258.676364 155.433168 
L 262.734545 155.626704 
L 266.792727 155.395368 
L 270.850909 154.795104 
L 274.909091 153.940824 
L 278.967273 152.926272 
L 283.025455 151.808904 
L 287.083636 150.620472 
L 291.141818 149.382144 
L 295.2 148.104504 
L 299.258182 146.796624 
L 303.316364 145.467576 
L 307.374545 144.123408 
L 311.432727 142.770168 
L 315.490909 141.421464 
L 319.549091 140.09544 
L 323.607273 138.83292 
L 327.665455 137.717064 
L 331.723636 136.900584 
L 335.781818 136.487808 
L 339.84 136.39104 
L 343.898182 136.45908 
L 347.956364 136.607256 
L 352.014545 136.796256 
L 356.072727 137.006424 
L 360.130909 137.228688 
L 364.189091 137.457 
L 368.247273 137.688336 
L 372.305455 137.919672 
L 376.363636 138.151008 
L 380.421818 138.380832 
L 384.48 138.60612 
L 388.538182 138.829896 
L 392.596364 139.049136 
L 396.654545 139.26384 
L 400.712727 139.47552 
L 404.770909 139.681152 
L 408.829091 139.88376 
L 412.887273 140.08032 
L 416.945455 140.272344 
L 421.003636 140.461344 
L 425.061818 140.645808 
L 429.12 140.82876 
L 433.178182 141.008688 
L 437.236364 141.187104 
L 441.294545 141.367032 
L 445.352727 141.549984 
L 449.410909 141.740496 
L 453.469091 141.943104 
L 457.527273 142.165368 
L 461.585455 142.414848 
L 465.643636 142.70364 
L 469.701818 143.046864 
L 473.76 143.456616 
L 477.818182 143.940456 
L 481.876364 144.4878 
L 485.934545 145.068408 
L 489.992727 145.618776 
L 494.050909 146.039112 
L 498.109091 146.200896 
" clip-path="url(#p5dd98f7c27)" style="fill: none; stroke: #000000; stroke-opacity: 0.5; stroke-linecap: square"/>
   </g>
   <g id="line2d_22">
    <path d="M 92.290909 127.849752 
L 96.349091 127.8558 
L 100.407273 127.869408 
L 104.465455 127.8936 
L 108.523636 127.928376 
L 112.581818 127.973736 
L 116.64 128.02968 
L 120.698182 128.100744 
L 124.756364 128.185416 
L 128.814545 128.288232 
L 132.872727 128.410704 
L 136.930909 128.557368 
L 140.989091 128.731248 
L 145.047273 128.939904 
L 149.105455 129.192408 
L 153.163636 129.49632 
L 157.221818 129.865248 
L 161.28 130.311288 
L 165.338182 130.84956 
L 169.396364 131.487624 
L 173.454545 132.230016 
L 177.512727 133.070688 
L 181.570909 133.989984 
L 185.629091 134.938008 
L 189.687273 135.671328 
L 193.745455 135.225288 
L 197.803636 134.06256 
L 201.861818 132.781896 
L 205.92 131.4846 
L 209.978182 130.231152 
L 214.036364 129.16368 
L 218.094545 128.56644 
L 222.152727 128.439432 
L 226.210909 128.515032 
L 230.269091 128.661696 
L 234.327273 128.841624 
L 238.385455 129.036672 
L 242.443636 129.243816 
L 246.501818 129.45852 
L 250.56 129.680784 
L 254.618182 129.907584 
L 258.676364 130.13892 
L 262.734545 130.376304 
L 266.792727 130.616712 
L 270.850909 130.860144 
L 274.909091 131.1066 
L 278.967273 131.35608 
L 283.025455 131.608584 
L 287.083636 131.861088 
L 291.141818 132.113592 
L 295.2 132.366096 
L 299.258182 132.615576 
L 303.316364 132.862032 
L 307.374545 133.097904 
L 311.432727 133.32168 
L 315.490909 133.522776 
L 319.549091 133.681536 
L 323.607273 133.761672 
L 327.665455 133.678512 
L 331.723636 133.282368 
L 335.781818 132.4674 
L 339.84 131.32584 
L 343.898182 130.004352 
L 347.956364 128.590632 
L 352.014545 127.125504 
L 356.072727 125.628624 
L 360.130909 124.110576 
L 364.189091 122.575896 
L 368.247273 121.02912 
L 372.305455 119.473272 
L 376.363636 117.912888 
L 380.421818 116.34948 
L 384.48 114.789096 
L 388.538182 113.25744 
L 392.596364 112.084128 
L 396.654545 113.033664 
L 400.712727 114.460992 
L 404.770909 115.911 
L 408.829091 117.357984 
L 412.887273 118.792872 
L 416.945455 120.217176 
L 421.003636 121.624848 
L 425.061818 123.015888 
L 429.12 124.390296 
L 433.178182 125.742024 
L 437.236364 127.072584 
L 441.294545 128.378952 
L 445.352727 129.653568 
L 449.410909 130.89492 
L 453.469091 132.09696 
L 457.527273 133.247592 
L 461.585455 134.337744 
L 465.643636 135.350784 
L 469.701818 136.27008 
L 473.76 137.072952 
L 477.818182 137.74428 
L 481.876364 138.274992 
L 485.934545 138.668112 
L 489.992727 138.934224 
L 494.050909 139.088448 
L 498.109091 139.138344 
" clip-path="url(#p5dd98f7c27)" style="fill: none; stroke: #000000; stroke-opacity: 0.5; stroke-linecap: square"/>
   </g>
   <g id="line2d_23">
    <path d="M 92.290909 108.43416 
L 96.349091 108.506736 
L 100.407273 108.72144 
L 104.465455 109.072224 
L 108.523636 109.550016 
L 112.581818 110.144232 
L 116.64 110.841264 
L 120.698182 111.629016 
L 124.756364 112.492368 
L 128.814545 113.419224 
L 132.872727 114.394464 
L 136.930909 115.407504 
L 140.989091 116.444736 
L 145.047273 117.494064 
L 149.105455 118.538856 
L 153.163636 119.563992 
L 157.221818 120.555864 
L 161.28 121.491792 
L 165.338182 122.358168 
L 169.396364 123.141384 
L 173.454545 123.829344 
L 177.512727 124.426584 
L 181.570909 124.936128 
L 185.629091 125.371584 
L 189.687273 125.745048 
L 193.745455 126.065592 
L 197.803636 126.342288 
L 201.861818 126.576648 
L 205.92 126.758088 
L 209.978182 126.851832 
L 214.036364 126.723312 
L 218.094545 126.095832 
L 222.152727 124.972416 
L 226.210909 123.628248 
L 230.269091 122.191848 
L 234.327273 120.708576 
L 238.385455 119.19204 
L 242.443636 117.6498 
L 246.501818 116.087904 
L 250.56 114.506352 
L 254.618182 112.908168 
L 258.676364 111.294864 
L 262.734545 109.66644 
L 266.792727 108.022896 
L 270.850909 106.367256 
L 274.909091 104.698008 
L 278.967273 103.016664 
L 283.025455 101.323224 
L 287.083636 99.6192 
L 291.141818 97.904592 
L 295.2 96.1794 
L 299.258182 94.446648 
L 303.316364 92.707848 
L 307.374545 90.963 
L 311.432727 89.219664 
L 315.490909 87.491448 
L 319.549091 85.84488 
L 323.607273 85.305096 
L 327.665455 86.649264 
L 331.723636 88.179408 
L 335.781818 89.736768 
L 339.84 91.304712 
L 343.898182 92.87568 
L 347.956364 94.44816 
L 352.014545 96.017616 
L 356.072727 97.58556 
L 360.130909 99.147456 
L 364.189091 100.706328 
L 368.247273 102.25764 
L 372.305455 103.801392 
L 376.363636 105.336072 
L 380.421818 106.858656 
L 384.48 108.364608 
L 388.538182 109.829736 
L 392.596364 110.924424 
L 396.654545 109.884168 
L 400.712727 108.357048 
L 404.770909 106.795152 
L 408.829091 105.227208 
L 412.887273 103.660776 
L 416.945455 102.09888 
L 421.003636 100.543032 
L 425.061818 98.99928 
L 429.12 97.469136 
L 433.178182 95.957136 
L 437.236364 94.472352 
L 441.294545 93.029904 
L 445.352727 91.670616 
L 449.410909 90.526032 
L 453.469091 89.901576 
L 457.527273 89.747352 
L 461.585455 89.751888 
L 465.643636 89.79876 
L 469.701818 89.856216 
L 473.76 89.913672 
L 477.818182 89.966592 
L 481.876364 90.01044 
L 485.934545 90.045216 
L 489.992727 90.07092 
L 494.050909 90.08604 
L 498.109091 90.092088 
" clip-path="url(#p5dd98f7c27)" style="fill: none; stroke: #000000; stroke-opacity: 0.5; stroke-linecap: square"/>
   </g>
   <g id="patch_3">
    <path d="M 72 384.48 
L 72 51.84 
" style="fill: none; stroke: #000000; stroke-width: 0.8; stroke-linejoin: miter; stroke-linecap: square"/>
   </g>
   <g id="patch_4">
    <path d="M 518.4 384.48 
L 518.4 51.84 
" style="fill: none; stroke: #000000; stroke-width: 0.8; stroke-linejoin: miter; stroke-linecap: square"/>
   </g>
   <g id="patch_5">
    <path d="M 72 384.48 
L 518.4 384.48 
" style="fill: none; stroke: #000000; stroke-width: 0.8; stroke-linejoin: miter; stroke-linecap: square"/>
   </g>
   <g id="patch_6">
    <path d="M 72 51.84 
L 518.4 51.84 
" style="fill: none; stroke: #000000; stroke-width: 0.8; stroke-linejoin: miter; stroke-linecap: square"/>
   </g>
  </g>
 </g>
 <defs>
  <clipPath id="p5dd98f7c27">
   <rect x="72" y="51.84" width="446.4" height="332.64"/>
  </clipPath>
 </defs>
</svg>
