<?xml version="1.0" encoding="utf-8" standalone="no"?>
<!DOCTYPE svg PUBLIC "-//W3C//DTD SVG 1.1//EN"
  "http://www.w3.org/Graphics/SVG/1.1/DTD/svg11.dtd">
<svg xmlns:xlink="http://www.w3.org/1999/xlink" width="576pt" height="432pt" viewBox="0 0 576 432" xmlns="http://www.w3.org/2000/svg" version="1.1">
 <metadata>
  <rdf:RDF xmlns:dc="http://purl.org/dc/elements/1.1/" xmlns:cc="http://creativecommons.org/ns#" xmlns:rdf="http://www.w3.org/1999/02/22-rdf-syntax-ns#">
   <cc:Work>
    <dc:type rdf:resource="http://purl.org/dc/dcmitype/StillImage"/>
    <dc:date>2023-05-04T03:39:00.988874</dc:date>
    <dc:format>image/svg+xml</dc:format>
    <dc:creator>
     <cc:Agent>
      <dc:title>Matplotlib v3.7.1, https://matplotlib.org/</dc:title>
     </cc:Agent>
    </dc:creator>
   </cc:Work>
  </rdf:RDF>
 </metadata>
 <defs>
  <style type="text/css">*{stroke-linejoin: round; stroke-linecap: butt}</style>
 </defs>
 <g id="figure_1">
  <g id="patch_1">
   <path d="M 0 432 
L 576 432 
L 576 0 
L 0 0 
z
" style="fill: #ffffff"/>
  </g>
  <g id="axes_1">
   <g id="patch_2">
    <path d="M 72 384.48 
L 518.4 384.48 
L 518.4 51.84 
L 72 51.84 
z
" style="fill: #ffffff"/>
   </g>
   <g id="matplotlib.axis_1">
    <g id="xtick_1">
     <g id="line2d_1">
      <defs>
       <path id="m7b27017a6e" d="M 0 0 
L 0 3.5 
" style="stroke: #000000; stroke-width: 0.8"/>
      </defs>
      <g>
       <use xlink:href="#m7b27017a6e" x="92.290909" y="384.48" style="stroke: #000000; stroke-width: 0.8"/>
      </g>
     </g>
     <g id="text_1">
      <!-- 0.0 -->
      <g transform="translate(84.339347 399.078438) scale(0.1 -0.1)">
       <defs>
        <path id="DejaVuSans-30" d="M 2034 4250 
Q 1547 4250 1301 3770 
Q 1056 3291 1056 2328 
Q 1056 1369 1301 889 
Q 1547 409 2034 409 
Q 2525 409 2770 889 
Q 3016 1369 3016 2328 
Q 3016 3291 2770 3770 
Q 2525 4250 2034 4250 
z
M 2034 4750 
Q 2819 4750 3233 4129 
Q 3647 3509 3647 2328 
Q 3647 1150 3233 529 
Q 2819 -91 2034 -91 
Q 1250 -91 836 529 
Q 422 1150 422 2328 
Q 422 3509 836 4129 
Q 1250 4750 2034 4750 
z
" transform="scale(0.015625)"/>
        <path id="DejaVuSans-2e" d="M 684 794 
L 1344 794 
L 1344 0 
L 684 0 
L 684 794 
z
" transform="scale(0.015625)"/>
       </defs>
       <use xlink:href="#DejaVuSans-30"/>
       <use xlink:href="#DejaVuSans-2e" x="63.623047"/>
       <use xlink:href="#DejaVuSans-30" x="95.410156"/>
      </g>
     </g>
    </g>
    <g id="xtick_2">
     <g id="line2d_2">
      <g>
       <use xlink:href="#m7b27017a6e" x="173.454545" y="384.48" style="stroke: #000000; stroke-width: 0.8"/>
      </g>
     </g>
     <g id="text_2">
      <!-- 0.2 -->
      <g transform="translate(165.502983 399.078438) scale(0.1 -0.1)">
       <defs>
        <path id="DejaVuSans-32" d="M 1228 531 
L 3431 531 
L 3431 0 
L 469 0 
L 469 531 
Q 828 903 1448 1529 
Q 2069 2156 2228 2338 
Q 2531 2678 2651 2914 
Q 2772 3150 2772 3378 
Q 2772 3750 2511 3984 
Q 2250 4219 1831 4219 
Q 1534 4219 1204 4116 
Q 875 4013 500 3803 
L 500 4441 
Q 881 4594 1212 4672 
Q 1544 4750 1819 4750 
Q 2544 4750 2975 4387 
Q 3406 4025 3406 3419 
Q 3406 3131 3298 2873 
Q 3191 2616 2906 2266 
Q 2828 2175 2409 1742 
Q 1991 1309 1228 531 
z
" transform="scale(0.015625)"/>
       </defs>
       <use xlink:href="#DejaVuSans-30"/>
       <use xlink:href="#DejaVuSans-2e" x="63.623047"/>
       <use xlink:href="#DejaVuSans-32" x="95.410156"/>
      </g>
     </g>
    </g>
    <g id="xtick_3">
     <g id="line2d_3">
      <g>
       <use xlink:href="#m7b27017a6e" x="254.618182" y="384.48" style="stroke: #000000; stroke-width: 0.8"/>
      </g>
     </g>
     <g id="text_3">
      <!-- 0.4 -->
      <g transform="translate(246.666619 399.078438) scale(0.1 -0.1)">
       <defs>
        <path id="DejaVuSans-34" d="M 2419 4116 
L 825 1625 
L 2419 1625 
L 2419 4116 
z
M 2253 4666 
L 3047 4666 
L 3047 1625 
L 3713 1625 
L 3713 1100 
L 3047 1100 
L 3047 0 
L 2419 0 
L 2419 1100 
L 313 1100 
L 313 1709 
L 2253 4666 
z
" transform="scale(0.015625)"/>
       </defs>
       <use xlink:href="#DejaVuSans-30"/>
       <use xlink:href="#DejaVuSans-2e" x="63.623047"/>
       <use xlink:href="#DejaVuSans-34" x="95.410156"/>
      </g>
     </g>
    </g>
    <g id="xtick_4">
     <g id="line2d_4">
      <g>
       <use xlink:href="#m7b27017a6e" x="335.781818" y="384.48" style="stroke: #000000; stroke-width: 0.8"/>
      </g>
     </g>
     <g id="text_4">
      <!-- 0.6 -->
      <g transform="translate(327.830256 399.078438) scale(0.1 -0.1)">
       <defs>
        <path id="DejaVuSans-36" d="M 2113 2584 
Q 1688 2584 1439 2293 
Q 1191 2003 1191 1497 
Q 1191 994 1439 701 
Q 1688 409 2113 409 
Q 2538 409 2786 701 
Q 3034 994 3034 1497 
Q 3034 2003 2786 2293 
Q 2538 2584 2113 2584 
z
M 3366 4563 
L 3366 3988 
Q 3128 4100 2886 4159 
Q 2644 4219 2406 4219 
Q 1781 4219 1451 3797 
Q 1122 3375 1075 2522 
Q 1259 2794 1537 2939 
Q 1816 3084 2150 3084 
Q 2853 3084 3261 2657 
Q 3669 2231 3669 1497 
Q 3669 778 3244 343 
Q 2819 -91 2113 -91 
Q 1303 -91 875 529 
Q 447 1150 447 2328 
Q 447 3434 972 4092 
Q 1497 4750 2381 4750 
Q 2619 4750 2861 4703 
Q 3103 4656 3366 4563 
z
" transform="scale(0.015625)"/>
       </defs>
       <use xlink:href="#DejaVuSans-30"/>
       <use xlink:href="#DejaVuSans-2e" x="63.623047"/>
       <use xlink:href="#DejaVuSans-36" x="95.410156"/>
      </g>
     </g>
    </g>
    <g id="xtick_5">
     <g id="line2d_5">
      <g>
       <use xlink:href="#m7b27017a6e" x="416.945455" y="384.48" style="stroke: #000000; stroke-width: 0.8"/>
      </g>
     </g>
     <g id="text_5">
      <!-- 0.8 -->
      <g transform="translate(408.993892 399.078438) scale(0.1 -0.1)">
       <defs>
        <path id="DejaVuSans-38" d="M 2034 2216 
Q 1584 2216 1326 1975 
Q 1069 1734 1069 1313 
Q 1069 891 1326 650 
Q 1584 409 2034 409 
Q 2484 409 2743 651 
Q 3003 894 3003 1313 
Q 3003 1734 2745 1975 
Q 2488 2216 2034 2216 
z
M 1403 2484 
Q 997 2584 770 2862 
Q 544 3141 544 3541 
Q 544 4100 942 4425 
Q 1341 4750 2034 4750 
Q 2731 4750 3128 4425 
Q 3525 4100 3525 3541 
Q 3525 3141 3298 2862 
Q 3072 2584 2669 2484 
Q 3125 2378 3379 2068 
Q 3634 1759 3634 1313 
Q 3634 634 3220 271 
Q 2806 -91 2034 -91 
Q 1263 -91 848 271 
Q 434 634 434 1313 
Q 434 1759 690 2068 
Q 947 2378 1403 2484 
z
M 1172 3481 
Q 1172 3119 1398 2916 
Q 1625 2713 2034 2713 
Q 2441 2713 2670 2916 
Q 2900 3119 2900 3481 
Q 2900 3844 2670 4047 
Q 2441 4250 2034 4250 
Q 1625 4250 1398 4047 
Q 1172 3844 1172 3481 
z
" transform="scale(0.015625)"/>
       </defs>
       <use xlink:href="#DejaVuSans-30"/>
       <use xlink:href="#DejaVuSans-2e" x="63.623047"/>
       <use xlink:href="#DejaVuSans-38" x="95.410156"/>
      </g>
     </g>
    </g>
    <g id="xtick_6">
     <g id="line2d_6">
      <g>
       <use xlink:href="#m7b27017a6e" x="498.109091" y="384.48" style="stroke: #000000; stroke-width: 0.8"/>
      </g>
     </g>
     <g id="text_6">
      <!-- 1.0 -->
      <g transform="translate(490.157528 399.078438) scale(0.1 -0.1)">
       <defs>
        <path id="DejaVuSans-31" d="M 794 531 
L 1825 531 
L 1825 4091 
L 703 3866 
L 703 4441 
L 1819 4666 
L 2450 4666 
L 2450 531 
L 3481 531 
L 3481 0 
L 794 0 
L 794 531 
z
" transform="scale(0.015625)"/>
       </defs>
       <use xlink:href="#DejaVuSans-31"/>
       <use xlink:href="#DejaVuSans-2e" x="63.623047"/>
       <use xlink:href="#DejaVuSans-30" x="95.410156"/>
      </g>
     </g>
    </g>
   </g>
   <g id="matplotlib.axis_2">
    <g id="ytick_1">
     <g id="line2d_7">
      <defs>
       <path id="m406884c8c1" d="M 0 0 
L -3.5 0 
" style="stroke: #000000; stroke-width: 0.8"/>
      </defs>
      <g>
       <use xlink:href="#m406884c8c1" x="72" y="369.36" style="stroke: #000000; stroke-width: 0.8"/>
      </g>
     </g>
     <g id="text_7">
      <!-- −5.0 -->
      <g transform="translate(40.717187 373.159219) scale(0.1 -0.1)">
       <defs>
        <path id="DejaVuSans-2212" d="M 678 2272 
L 4684 2272 
L 4684 1741 
L 678 1741 
L 678 2272 
z
" transform="scale(0.015625)"/>
        <path id="DejaVuSans-35" d="M 691 4666 
L 3169 4666 
L 3169 4134 
L 1269 4134 
L 1269 2991 
Q 1406 3038 1543 3061 
Q 1681 3084 1819 3084 
Q 2600 3084 3056 2656 
Q 3513 2228 3513 1497 
Q 3513 744 3044 326 
Q 2575 -91 1722 -91 
Q 1428 -91 1123 -41 
Q 819 9 494 109 
L 494 744 
Q 775 591 1075 516 
Q 1375 441 1709 441 
Q 2250 441 2565 725 
Q 2881 1009 2881 1497 
Q 2881 1984 2565 2268 
Q 2250 2553 1709 2553 
Q 1456 2553 1204 2497 
Q 953 2441 691 2322 
L 691 4666 
z
" transform="scale(0.015625)"/>
       </defs>
       <use xlink:href="#DejaVuSans-2212"/>
       <use xlink:href="#DejaVuSans-35" x="83.789062"/>
       <use xlink:href="#DejaVuSans-2e" x="147.412109"/>
       <use xlink:href="#DejaVuSans-30" x="179.199219"/>
      </g>
     </g>
    </g>
    <g id="ytick_2">
     <g id="line2d_8">
      <g>
       <use xlink:href="#m406884c8c1" x="72" y="331.56" style="stroke: #000000; stroke-width: 0.8"/>
      </g>
     </g>
     <g id="text_8">
      <!-- −2.5 -->
      <g transform="translate(40.717187 335.359219) scale(0.1 -0.1)">
       <use xlink:href="#DejaVuSans-2212"/>
       <use xlink:href="#DejaVuSans-32" x="83.789062"/>
       <use xlink:href="#DejaVuSans-2e" x="147.412109"/>
       <use xlink:href="#DejaVuSans-35" x="179.199219"/>
      </g>
     </g>
    </g>
    <g id="ytick_3">
     <g id="line2d_9">
      <g>
       <use xlink:href="#m406884c8c1" x="72" y="293.76" style="stroke: #000000; stroke-width: 0.8"/>
      </g>
     </g>
     <g id="text_9">
      <!-- 0.0 -->
      <g transform="translate(49.096875 297.559219) scale(0.1 -0.1)">
       <use xlink:href="#DejaVuSans-30"/>
       <use xlink:href="#DejaVuSans-2e" x="63.623047"/>
       <use xlink:href="#DejaVuSans-30" x="95.410156"/>
      </g>
     </g>
    </g>
    <g id="ytick_4">
     <g id="line2d_10">
      <g>
       <use xlink:href="#m406884c8c1" x="72" y="255.96" style="stroke: #000000; stroke-width: 0.8"/>
      </g>
     </g>
     <g id="text_10">
      <!-- 2.5 -->
      <g transform="translate(49.096875 259.759219) scale(0.1 -0.1)">
       <use xlink:href="#DejaVuSans-32"/>
       <use xlink:href="#DejaVuSans-2e" x="63.623047"/>
       <use xlink:href="#DejaVuSans-35" x="95.410156"/>
      </g>
     </g>
    </g>
    <g id="ytick_5">
     <g id="line2d_11">
      <g>
       <use xlink:href="#m406884c8c1" x="72" y="218.16" style="stroke: #000000; stroke-width: 0.8"/>
      </g>
     </g>
     <g id="text_11">
      <!-- 5.0 -->
      <g transform="translate(49.096875 221.959219) scale(0.1 -0.1)">
       <use xlink:href="#DejaVuSans-35"/>
       <use xlink:href="#DejaVuSans-2e" x="63.623047"/>
       <use xlink:href="#DejaVuSans-30" x="95.410156"/>
      </g>
     </g>
    </g>
    <g id="ytick_6">
     <g id="line2d_12">
      <g>
       <use xlink:href="#m406884c8c1" x="72" y="180.36" style="stroke: #000000; stroke-width: 0.8"/>
      </g>
     </g>
     <g id="text_12">
      <!-- 7.5 -->
      <g transform="translate(49.096875 184.159219) scale(0.1 -0.1)">
       <defs>
        <path id="DejaVuSans-37" d="M 525 4666 
L 3525 4666 
L 3525 4397 
L 1831 0 
L 1172 0 
L 2766 4134 
L 525 4134 
L 525 4666 
z
" transform="scale(0.015625)"/>
       </defs>
       <use xlink:href="#DejaVuSans-37"/>
       <use xlink:href="#DejaVuSans-2e" x="63.623047"/>
       <use xlink:href="#DejaVuSans-35" x="95.410156"/>
      </g>
     </g>
    </g>
    <g id="ytick_7">
     <g id="line2d_13">
      <g>
       <use xlink:href="#m406884c8c1" x="72" y="142.56" style="stroke: #000000; stroke-width: 0.8"/>
      </g>
     </g>
     <g id="text_13">
      <!-- 10.0 -->
      <g transform="translate(42.734375 146.359219) scale(0.1 -0.1)">
       <use xlink:href="#DejaVuSans-31"/>
       <use xlink:href="#DejaVuSans-30" x="63.623047"/>
       <use xlink:href="#DejaVuSans-2e" x="127.246094"/>
       <use xlink:href="#DejaVuSans-30" x="159.033203"/>
      </g>
     </g>
    </g>
    <g id="ytick_8">
     <g id="line2d_14">
      <g>
       <use xlink:href="#m406884c8c1" x="72" y="104.76" style="stroke: #000000; stroke-width: 0.8"/>
      </g>
     </g>
     <g id="text_14">
      <!-- 12.5 -->
      <g transform="translate(42.734375 108.559219) scale(0.1 -0.1)">
       <use xlink:href="#DejaVuSans-31"/>
       <use xlink:href="#DejaVuSans-32" x="63.623047"/>
       <use xlink:href="#DejaVuSans-2e" x="127.246094"/>
       <use xlink:href="#DejaVuSans-35" x="159.033203"/>
      </g>
     </g>
    </g>
    <g id="ytick_9">
     <g id="line2d_15">
      <g>
       <use xlink:href="#m406884c8c1" x="72" y="66.96" style="stroke: #000000; stroke-width: 0.8"/>
      </g>
     </g>
     <g id="text_15">
      <!-- 15.0 -->
      <g transform="translate(42.734375 70.759219) scale(0.1 -0.1)">
       <use xlink:href="#DejaVuSans-31"/>
       <use xlink:href="#DejaVuSans-35" x="63.623047"/>
       <use xlink:href="#DejaVuSans-2e" x="127.246094"/>
       <use xlink:href="#DejaVuSans-30" x="159.033203"/>
      </g>
     </g>
    </g>
   </g>
   <g id="line2d_16">
    <path d="M 92.290909 334.336032 
L 96.349091 334.34208 
L 100.407273 334.361736 
L 104.465455 334.396512 
L 108.523636 334.443384 
L 112.581818 334.503864 
L 116.64 334.577952 
L 120.698182 334.665648 
L 124.756364 334.768464 
L 128.814545 334.884888 
L 132.872727 335.016432 
L 136.930909 335.161584 
L 140.989091 335.321856 
L 145.047273 335.49876 
L 149.105455 335.689272 
L 153.163636 335.896416 
L 157.221818 336.117168 
L 161.28 336.354552 
L 165.338182 336.607056 
L 169.396364 336.87468 
L 173.454545 337.157424 
L 177.512727 337.455288 
L 181.570909 337.768272 
L 185.629091 338.093352 
L 189.687273 338.433552 
L 193.745455 338.785848 
L 197.803636 339.151752 
L 201.861818 339.52824 
L 205.92 339.916824 
L 209.978182 340.315992 
L 214.036364 340.724232 
L 218.094545 341.141544 
L 222.152727 341.567928 
L 226.210909 342.001872 
L 230.269091 342.443376 
L 234.327273 342.889416 
L 238.385455 343.341504 
L 242.443636 343.796616 
L 246.501818 344.257776 
L 250.56 344.720448 
L 254.618182 345.186144 
L 258.676364 345.65184 
L 262.734545 346.12056 
L 266.792727 346.58928 
L 270.850909 347.056488 
L 274.909091 347.523696 
L 278.967273 347.989392 
L 283.025455 348.453576 
L 287.083636 348.914736 
L 291.141818 349.372872 
L 295.2 349.827984 
L 299.258182 350.280072 
L 303.316364 350.726112 
L 307.374545 351.169128 
L 311.432727 351.606096 
L 315.490909 352.037016 
L 319.549091 352.4634 
L 323.607273 352.883736 
L 327.665455 353.296512 
L 331.723636 353.70324 
L 335.781818 354.102408 
L 339.84 354.495528 
L 343.898182 354.881088 
L 347.956364 355.257576 
L 352.014545 355.628016 
L 356.072727 355.989384 
L 360.130909 356.34168 
L 364.189091 356.686416 
L 368.247273 357.02208 
L 372.305455 357.348672 
L 376.363636 357.667704 
L 380.421818 357.976152 
L 384.48 358.275528 
L 388.538182 358.565832 
L 392.596364 358.845552 
L 396.654545 359.1162 
L 400.712727 359.377776 
L 404.770909 359.628768 
L 408.829091 359.869176 
L 412.887273 360.100512 
L 416.945455 360.321264 
L 421.003636 360.531432 
L 425.061818 360.731016 
L 429.12 360.921528 
L 433.178182 361.099944 
L 437.236364 361.267776 
L 441.294545 361.426536 
L 445.352727 361.5732 
L 449.410909 361.710792 
L 453.469091 361.836288 
L 457.527273 361.9512 
L 461.585455 362.055528 
L 465.643636 362.149272 
L 469.701818 362.23092 
L 473.76 362.301984 
L 477.818182 362.362464 
L 481.876364 362.41236 
L 485.934545 362.45016 
L 489.992727 362.478888 
L 494.050909 362.49552 
L 498.109091 362.500056 
" clip-path="url(#pcfed592788)" style="fill: none; stroke: #000000; stroke-opacity: 0.5; stroke-linecap: square"/>
   </g>
   <g id="line2d_17">
    <path d="M 92.290909 302.813856 
L 96.349091 302.822928 
L 100.407273 302.848632 
L 104.465455 302.89248 
L 108.523636 302.951448 
L 112.581818 303.024024 
L 116.64 303.11172 
L 120.698182 303.208488 
L 124.756364 303.31584 
L 128.814545 303.430752 
L 132.872727 303.551712 
L 136.930909 303.674184 
L 140.989091 303.796656 
L 145.047273 303.919128 
L 149.105455 304.037064 
L 153.163636 304.148952 
L 157.221818 304.25328 
L 161.28 304.347024 
L 165.338182 304.430184 
L 169.396364 304.499736 
L 173.454545 304.554168 
L 177.512727 304.594992 
L 181.570909 304.61616 
L 185.629091 304.622208 
L 189.687273 304.607088 
L 193.745455 304.573824 
L 197.803636 304.522416 
L 201.861818 304.448328 
L 205.92 304.354584 
L 209.978182 304.241184 
L 214.036364 304.106616 
L 218.094545 303.95088 
L 222.152727 303.775488 
L 226.210909 303.578928 
L 230.269091 303.3612 
L 234.327273 303.125328 
L 238.385455 302.868288 
L 242.443636 302.591592 
L 246.501818 302.296752 
L 250.56 301.982256 
L 254.618182 301.648104 
L 258.676364 301.29732 
L 262.734545 300.928392 
L 266.792727 300.54132 
L 270.850909 300.137616 
L 274.909091 299.715768 
L 278.967273 299.2788 
L 283.025455 298.8252 
L 287.083636 298.354968 
L 291.141818 297.871128 
L 295.2 297.370656 
L 299.258182 296.856576 
L 303.316364 296.327376 
L 307.374545 295.783056 
L 311.432727 295.22664 
L 315.490909 294.656616 
L 319.549091 294.072984 
L 323.607273 293.475744 
L 327.665455 292.866408 
L 331.723636 292.246488 
L 335.781818 291.61296 
L 339.84 290.968848 
L 343.898182 290.314152 
L 347.956364 289.64736 
L 352.014545 288.971496 
L 356.072727 288.285048 
L 360.130909 287.589528 
L 364.189091 286.884936 
L 368.247273 286.172784 
L 372.305455 285.45156 
L 376.363636 284.721264 
L 380.421818 283.986432 
L 384.48 283.24404 
L 388.538182 282.4956 
L 392.596364 281.742624 
L 396.654545 280.985112 
L 400.712727 280.224576 
L 404.770909 279.461016 
L 408.829091 278.697456 
L 412.887273 277.932384 
L 416.945455 277.167312 
L 421.003636 276.406776 
L 425.061818 275.649264 
L 429.12 274.8978 
L 433.178182 274.153896 
L 437.236364 273.420576 
L 441.294545 272.699352 
L 445.352727 271.99476 
L 449.410909 271.309824 
L 453.469091 270.647568 
L 457.527273 270.012528 
L 461.585455 269.410752 
L 465.643636 268.846776 
L 469.701818 268.32816 
L 473.76 267.857928 
L 477.818182 267.445152 
L 481.876364 267.09588 
L 485.934545 266.817672 
L 489.992727 266.613552 
L 494.050909 266.488056 
L 498.109091 266.447232 
" clip-path="url(#pcfed592788)" style="fill: none; stroke: #000000; stroke-opacity: 0.5; stroke-linecap: square"/>
   </g>
   <g id="line2d_18">
    <path d="M 92.290909 266.355 
L 96.349091 266.330808 
L 100.407273 266.258232 
L 104.465455 266.138784 
L 108.523636 265.972464 
L 112.581818 265.762296 
L 116.64 265.506768 
L 120.698182 265.210416 
L 124.756364 264.874752 
L 128.814545 264.501288 
L 132.872727 264.09456 
L 136.930909 263.654568 
L 140.989091 263.184336 
L 145.047273 262.686888 
L 149.105455 262.16676 
L 153.163636 261.62244 
L 157.221818 261.061488 
L 161.28 260.482392 
L 165.338182 259.889688 
L 169.396364 259.284888 
L 173.454545 258.669504 
L 177.512727 258.048072 
L 181.570909 257.41908 
L 185.629091 256.788576 
L 189.687273 256.153536 
L 193.745455 255.520008 
L 197.803636 254.884968 
L 201.861818 254.252952 
L 205.92 253.62396 
L 209.978182 252.997992 
L 214.036364 252.375048 
L 218.094545 251.758152 
L 222.152727 251.145792 
L 226.210909 250.53948 
L 230.269091 249.939216 
L 234.327273 249.343488 
L 238.385455 248.752296 
L 242.443636 248.167152 
L 246.501818 247.588056 
L 250.56 247.013496 
L 254.618182 246.444984 
L 258.676364 245.879496 
L 262.734545 245.320056 
L 266.792727 244.76364 
L 270.850909 244.21176 
L 274.909091 243.662904 
L 278.967273 243.118584 
L 283.025455 242.5788 
L 287.083636 242.04204 
L 291.141818 241.508304 
L 295.2 240.979104 
L 299.258182 240.452928 
L 303.316364 239.931288 
L 307.374545 239.412672 
L 311.432727 238.898592 
L 315.490909 238.389048 
L 319.549091 237.882528 
L 323.607273 237.383568 
L 327.665455 236.887632 
L 331.723636 236.399256 
L 335.781818 235.915416 
L 339.84 235.440648 
L 343.898182 234.971928 
L 347.956364 234.51228 
L 352.014545 234.060192 
L 356.072727 233.6202 
L 360.130909 233.190792 
L 364.189091 232.77348 
L 368.247273 232.3728 
L 372.305455 231.988752 
L 376.363636 231.625872 
L 380.421818 231.29172 
L 384.48 230.995368 
L 388.538182 230.750424 
L 392.596364 230.584104 
L 396.654545 230.529672 
L 400.712727 230.627952 
L 404.770909 230.892552 
L 408.829091 231.303816 
L 412.887273 231.82092 
L 416.945455 232.407576 
L 421.003636 233.03808 
L 425.061818 233.698824 
L 429.12 234.377712 
L 433.178182 235.067184 
L 437.236364 235.75968 
L 441.294545 236.450664 
L 445.352727 237.132576 
L 449.410909 237.803904 
L 453.469091 238.455576 
L 457.527273 239.084568 
L 461.585455 239.684832 
L 465.643636 240.248808 
L 469.701818 240.770448 
L 473.76 241.242192 
L 477.818182 241.657992 
L 481.876364 242.010288 
L 485.934545 242.29152 
L 489.992727 242.497152 
L 494.050909 242.622648 
L 498.109091 242.664984 
" clip-path="url(#pcfed592788)" style="fill: none; stroke: #000000; stroke-opacity: 0.5; stroke-linecap: square"/>
   </g>
   <g id="line2d_19">
    <path d="M 92.290909 242.686152 
L 96.349091 242.67708 
L 100.407273 242.64684 
L 104.465455 242.598456 
L 108.523636 242.530416 
L 112.581818 242.441208 
L 116.64 242.333856 
L 120.698182 242.205336 
L 124.756364 242.05716 
L 128.814545 241.889328 
L 132.872727 241.700328 
L 136.930909 241.491672 
L 140.989091 241.261848 
L 145.047273 241.009344 
L 149.105455 240.737184 
L 153.163636 240.443856 
L 157.221818 240.12936 
L 161.28 239.792184 
L 165.338182 239.43384 
L 169.396364 239.054328 
L 173.454545 238.653648 
L 177.512727 238.2318 
L 181.570909 237.787272 
L 185.629091 237.323088 
L 189.687273 236.839248 
L 193.745455 236.335752 
L 197.803636 235.814112 
L 201.861818 235.274328 
L 205.92 234.719424 
L 209.978182 234.147888 
L 214.036364 233.564256 
L 218.094545 232.968528 
L 222.152727 232.362216 
L 226.210909 231.749856 
L 230.269091 231.129936 
L 234.327273 230.508504 
L 238.385455 229.887072 
L 242.443636 229.26564 
L 246.501818 228.650256 
L 250.56 228.042432 
L 254.618182 227.446704 
L 258.676364 226.863072 
L 262.734545 226.29456 
L 266.792727 225.747216 
L 270.850909 225.222552 
L 274.909091 224.72208 
L 278.967273 224.250336 
L 283.025455 223.810344 
L 287.083636 223.403616 
L 291.141818 223.031664 
L 295.2 222.699024 
L 299.258182 222.405696 
L 303.316364 222.154704 
L 307.374545 221.94756 
L 311.432727 221.784264 
L 315.490909 221.666328 
L 319.549091 221.595264 
L 323.607273 221.56956 
L 327.665455 221.589216 
L 331.723636 221.655744 
L 335.781818 221.767632 
L 339.84 221.921856 
L 343.898182 222.119928 
L 347.956364 222.358824 
L 352.014545 222.638544 
L 356.072727 222.954552 
L 360.130909 223.306848 
L 364.189091 223.692408 
L 368.247273 224.105184 
L 372.305455 224.545176 
L 376.363636 225.003312 
L 380.421818 225.475056 
L 384.48 225.9468 
L 388.538182 226.404936 
L 392.596364 226.819224 
L 396.654545 227.154888 
L 400.712727 227.371104 
L 404.770909 227.448216 
L 408.829091 227.408904 
L 412.887273 227.289456 
L 416.945455 227.124648 
L 421.003636 226.935648 
L 425.061818 226.736064 
L 429.12 226.534968 
L 433.178182 226.336896 
L 437.236364 226.146384 
L 441.294545 225.96192 
L 445.352727 225.789552 
L 449.410909 225.627768 
L 453.469091 225.47808 
L 457.527273 225.340488 
L 461.585455 225.214992 
L 465.643636 225.103104 
L 469.701818 225.003312 
L 473.76 224.917128 
L 477.818182 224.844552 
L 481.876364 224.785584 
L 485.934545 224.738712 
L 489.992727 224.705448 
L 494.050909 224.685792 
L 498.109091 224.678232 
" clip-path="url(#pcfed592788)" style="fill: none; stroke: #000000; stroke-opacity: 0.5; stroke-linecap: square"/>
   </g>
   <g id="line2d_20">
    <path d="M 92.290909 161.461512 
L 96.349091 161.455464 
L 100.407273 161.43732 
L 104.465455 161.408592 
L 108.523636 161.367768 
L 112.581818 161.314848 
L 116.64 161.251344 
L 120.698182 161.175744 
L 124.756364 161.088048 
L 128.814545 160.989768 
L 132.872727 160.880904 
L 136.930909 160.759944 
L 140.989091 160.6284 
L 145.047273 160.486272 
L 149.105455 160.335072 
L 153.163636 160.171776 
L 157.221818 159.999408 
L 161.28 159.817968 
L 165.338182 159.628968 
L 169.396364 159.432408 
L 173.454545 159.2298 
L 177.512727 159.02568 
L 181.570909 158.824584 
L 185.629091 158.635584 
L 189.687273 158.482872 
L 193.745455 158.41332 
L 197.803636 158.51916 
L 201.861818 158.87448 
L 205.92 159.415776 
L 209.978182 160.041744 
L 214.036364 160.694928 
L 218.094545 161.351136 
L 222.152727 161.995248 
L 226.210909 162.622728 
L 230.269091 163.22904 
L 234.327273 163.812672 
L 238.385455 164.369088 
L 242.443636 164.898288 
L 246.501818 165.397248 
L 250.56 165.865968 
L 254.618182 166.304448 
L 258.676364 166.708152 
L 262.734545 167.078592 
L 266.792727 167.414256 
L 270.850909 167.713632 
L 274.909091 167.97672 
L 278.967273 168.20352 
L 283.025455 168.394032 
L 287.083636 168.548256 
L 291.141818 168.666192 
L 295.2 168.750864 
L 299.258182 168.802272 
L 303.316364 168.82344 
L 307.374545 168.817392 
L 311.432727 168.787152 
L 315.490909 168.74028 
L 319.549091 168.6798 
L 323.607273 168.61176 
L 327.665455 168.54372 
L 331.723636 168.484752 
L 335.781818 168.439392 
L 339.84 168.416712 
L 343.898182 168.419736 
L 347.956364 168.453 
L 352.014545 168.519528 
L 356.072727 168.614784 
L 360.130909 168.738768 
L 364.189091 168.88392 
L 368.247273 169.045704 
L 372.305455 169.21656 
L 376.363636 169.391952 
L 380.421818 169.565832 
L 384.48 169.732152 
L 388.538182 169.886376 
L 392.596364 170.023968 
L 396.654545 170.143416 
L 400.712727 170.241696 
L 404.770909 170.317296 
L 408.829091 170.368704 
L 412.887273 170.394408 
L 416.945455 170.39592 
L 421.003636 170.371728 
L 425.061818 170.321832 
L 429.12 170.249256 
L 433.178182 170.154 
L 437.236364 170.039088 
L 441.294545 169.90452 
L 445.352727 169.754832 
L 449.410909 169.590024 
L 453.469091 169.417656 
L 457.527273 169.237728 
L 461.585455 169.054776 
L 465.643636 168.873336 
L 469.701818 168.699456 
L 473.76 168.534648 
L 477.818182 168.386472 
L 481.876364 168.25644 
L 485.934545 168.152112 
L 489.992727 168.073488 
L 494.050909 168.026616 
L 498.109091 168.009984 
" clip-path="url(#pcfed592788)" style="fill: none; stroke: #000000; stroke-opacity: 0.5; stroke-linecap: square"/>
   </g>
   <g id="line2d_21">
    <path d="M 92.290909 134.53128 
L 96.349091 134.68248 
L 100.407273 135.108864 
L 104.465455 135.74844 
L 108.523636 136.533168 
L 112.581818 137.413152 
L 116.64 138.353616 
L 120.698182 139.33188 
L 124.756364 140.331312 
L 128.814545 141.34284 
L 132.872727 142.360416 
L 136.930909 143.37648 
L 140.989091 144.38952 
L 145.047273 145.395 
L 149.105455 146.389896 
L 153.163636 147.374208 
L 157.221818 148.346424 
L 161.28 149.30352 
L 165.338182 150.243984 
L 169.396364 151.164792 
L 173.454545 152.065944 
L 177.512727 152.942904 
L 181.570909 153.789624 
L 185.629091 154.594008 
L 189.687273 155.334888 
L 193.745455 155.96388 
L 197.803636 156.38724 
L 201.861818 156.53088 
L 205.92 156.458304 
L 209.978182 156.270816 
L 214.036364 156.022848 
L 218.094545 155.741616 
L 222.152727 155.439216 
L 226.210909 155.118672 
L 230.269091 154.787544 
L 234.327273 154.44432 
L 238.385455 154.093536 
L 242.443636 153.73368 
L 246.501818 153.367776 
L 250.56 152.997336 
L 254.618182 152.620848 
L 258.676364 152.242848 
L 262.734545 151.861824 
L 266.792727 151.4808 
L 270.850909 151.1028 
L 274.909091 150.729336 
L 278.967273 150.364944 
L 283.025455 150.020208 
L 287.083636 149.705712 
L 291.141818 149.450184 
L 295.2 149.302008 
L 299.258182 149.339808 
L 303.316364 149.624064 
L 307.374545 150.118488 
L 311.432727 150.723288 
L 315.490909 151.35984 
L 319.549091 151.981272 
L 323.607273 152.564904 
L 327.665455 153.089568 
L 331.723636 153.54468 
L 335.781818 153.919656 
L 339.84 154.206936 
L 343.898182 154.403496 
L 347.956364 154.5048 
L 352.014545 154.510848 
L 356.072727 154.426176 
L 360.130909 154.256832 
L 364.189091 154.008864 
L 368.247273 153.692856 
L 372.305455 153.316368 
L 376.363636 152.893008 
L 380.421818 152.430336 
L 384.48 151.938936 
L 388.538182 151.426368 
L 392.596364 150.903216 
L 396.654545 150.378552 
L 400.712727 149.8554 
L 404.770909 149.345856 
L 408.829091 148.852944 
L 412.887273 148.382712 
L 416.945455 147.939696 
L 421.003636 147.529944 
L 425.061818 147.153456 
L 429.12 146.81628 
L 433.178182 146.519928 
L 437.236364 146.265912 
L 441.294545 146.055744 
L 445.352727 145.890936 
L 449.410909 145.774512 
L 453.469091 145.70496 
L 457.527273 145.683792 
L 461.585455 145.706472 
L 465.643636 145.773 
L 469.701818 145.87128 
L 473.76 145.993752 
L 477.818182 146.126808 
L 481.876364 146.25684 
L 485.934545 146.373264 
L 489.992727 146.465496 
L 494.050909 146.522952 
L 498.109091 146.542608 
" clip-path="url(#pcfed592788)" style="fill: none; stroke: #000000; stroke-opacity: 0.5; stroke-linecap: square"/>
   </g>
   <g id="line2d_22">
    <path d="M 92.290909 124.964856 
L 96.349091 124.80156 
L 100.407273 124.338888 
L 104.465455 123.640344 
L 108.523636 122.772456 
L 112.581818 121.78512 
L 116.64 120.714624 
L 120.698182 119.583648 
L 124.756364 118.407312 
L 128.814545 117.199224 
L 132.872727 115.96392 
L 136.930909 114.710472 
L 140.989091 113.443416 
L 145.047273 112.170312 
L 149.105455 110.897208 
L 153.163636 109.634688 
L 157.221818 108.406944 
L 161.28 107.26992 
L 165.338182 106.49124 
L 169.396364 106.848072 
L 173.454545 107.977536 
L 177.512727 109.279368 
L 181.570909 110.631096 
L 185.629091 112.00248 
L 189.687273 113.381424 
L 193.745455 114.766416 
L 197.803636 116.151408 
L 201.861818 117.534888 
L 205.92 118.915344 
L 209.978182 120.292776 
L 214.036364 121.662648 
L 218.094545 123.027984 
L 222.152727 124.384248 
L 226.210909 125.732952 
L 230.269091 127.071072 
L 234.327273 128.398608 
L 238.385455 129.714048 
L 242.443636 131.01588 
L 246.501818 132.304104 
L 250.56 133.575696 
L 254.618182 134.829144 
L 258.676364 136.062936 
L 262.734545 137.274048 
L 266.792727 138.460968 
L 270.850909 139.620672 
L 274.909091 140.747112 
L 278.967273 141.83424 
L 283.025455 142.872984 
L 287.083636 143.848224 
L 291.141818 144.731232 
L 295.2 145.469088 
L 299.258182 145.980144 
L 303.316364 146.202408 
L 307.374545 146.167632 
L 311.432727 145.971072 
L 315.490909 145.686816 
L 319.549091 145.355688 
L 323.607273 144.995832 
L 327.665455 144.620856 
L 331.723636 144.235296 
L 335.781818 143.842176 
L 339.84 143.446032 
L 343.898182 143.046864 
L 347.956364 142.64316 
L 352.014545 142.237944 
L 356.072727 141.829704 
L 360.130909 141.419952 
L 364.189091 141.004152 
L 368.247273 140.585328 
L 372.305455 140.158944 
L 376.363636 139.726512 
L 380.421818 139.285008 
L 384.48 138.831408 
L 388.538182 138.365712 
L 392.596364 137.884896 
L 396.654545 137.38896 
L 400.712727 136.876392 
L 404.770909 136.344168 
L 408.829091 135.795312 
L 412.887273 135.231336 
L 416.945455 134.6598 
L 421.003636 134.098848 
L 425.061818 133.598376 
L 429.12 133.315632 
L 433.178182 133.542432 
L 437.236364 134.180496 
L 441.294545 134.941032 
L 445.352727 135.701568 
L 449.410909 136.424304 
L 453.469091 137.091096 
L 457.527273 137.688336 
L 461.585455 138.213 
L 465.643636 138.662064 
L 469.701818 139.035528 
L 473.76 139.337928 
L 477.818182 139.575312 
L 481.876364 139.756752 
L 485.934545 139.888296 
L 489.992727 139.977504 
L 494.050909 140.028912 
L 498.109091 140.045544 
" clip-path="url(#pcfed592788)" style="fill: none; stroke: #000000; stroke-opacity: 0.5; stroke-linecap: square"/>
   </g>
   <g id="line2d_23">
    <path d="M 92.290909 102.458736 
L 96.349091 102.451176 
L 100.407273 102.43152 
L 104.465455 102.396744 
L 108.523636 102.349872 
L 112.581818 102.289392 
L 116.64 102.215304 
L 120.698182 102.127608 
L 124.756364 102.024792 
L 128.814545 101.90988 
L 132.872727 101.78136 
L 136.930909 101.640744 
L 140.989091 101.491056 
L 145.047273 101.34288 
L 149.105455 101.23704 
L 153.163636 101.382192 
L 157.221818 102.188088 
L 161.28 103.299408 
L 165.338182 104.17788 
L 169.396364 104.005512 
L 173.454545 103.161816 
L 177.512727 102.271248 
L 181.570909 101.47896 
L 185.629091 100.807632 
L 189.687273 100.237608 
L 193.745455 99.737136 
L 197.803636 99.280512 
L 201.861818 98.851104 
L 205.92 98.433792 
L 209.978182 98.022528 
L 214.036364 97.611264 
L 218.094545 97.198488 
L 222.152727 96.779664 
L 226.210909 96.35328 
L 230.269091 95.920848 
L 234.327273 95.477832 
L 238.385455 95.025744 
L 242.443636 94.564584 
L 246.501818 94.09284 
L 250.56 93.610512 
L 254.618182 93.1176 
L 258.676364 92.614104 
L 262.734545 92.100024 
L 266.792727 91.576872 
L 270.850909 91.04616 
L 274.909091 90.506376 
L 278.967273 89.963568 
L 283.025455 89.423784 
L 287.083636 88.89912 
L 291.141818 88.421328 
L 295.2 88.091712 
L 299.258182 88.189992 
L 303.316364 89.023104 
L 307.374545 90.323424 
L 311.432727 91.790064 
L 315.490909 93.315672 
L 319.549091 94.86396 
L 323.607273 96.419808 
L 327.665455 97.974144 
L 331.723636 99.523944 
L 335.781818 101.067696 
L 339.84 102.600864 
L 343.898182 104.123448 
L 347.956364 105.633936 
L 352.014545 107.132328 
L 356.072727 108.617112 
L 360.130909 110.085264 
L 364.189091 111.539808 
L 368.247273 112.976208 
L 372.305455 114.394464 
L 376.363636 115.794576 
L 380.421818 117.175032 
L 384.48 118.53432 
L 388.538182 119.87244 
L 392.596364 121.184856 
L 396.654545 122.47308 
L 400.712727 123.732576 
L 404.770909 124.961832 
L 408.829091 126.157824 
L 412.887273 127.314504 
L 416.945455 128.421288 
L 421.003636 129.45852 
L 425.061818 130.377816 
L 429.12 131.01588 
L 433.178182 131.085432 
L 437.236364 130.680216 
L 441.294545 130.092048 
L 445.352727 129.440376 
L 449.410909 128.767536 
L 453.469091 128.091672 
L 457.527273 127.426392 
L 461.585455 126.783792 
L 465.643636 126.171432 
L 469.701818 125.599896 
L 473.76 125.078256 
L 477.818182 124.617096 
L 481.876364 124.225488 
L 485.934545 123.910992 
L 489.992727 123.681168 
L 494.050909 123.540552 
L 498.109091 123.49368 
" clip-path="url(#pcfed592788)" style="fill: none; stroke: #000000; stroke-opacity: 0.5; stroke-linecap: square"/>
   </g>
   <g id="patch_3">
    <path d="M 72 384.48 
L 72 51.84 
" style="fill: none; stroke: #000000; stroke-width: 0.8; stroke-linejoin: miter; stroke-linecap: square"/>
   </g>
   <g id="patch_4">
    <path d="M 518.4 384.48 
L 518.4 51.84 
" style="fill: none; stroke: #000000; stroke-width: 0.8; stroke-linejoin: miter; stroke-linecap: square"/>
   </g>
   <g id="patch_5">
    <path d="M 72 384.48 
L 518.4 384.48 
" style="fill: none; stroke: #000000; stroke-width: 0.8; stroke-linejoin: miter; stroke-linecap: square"/>
   </g>
   <g id="patch_6">
    <path d="M 72 51.84 
L 518.4 51.84 
" style="fill: none; stroke: #000000; stroke-width: 0.8; stroke-linejoin: miter; stroke-linecap: square"/>
   </g>
  </g>
 </g>
 <defs>
  <clipPath id="pcfed592788">
   <rect x="72" y="51.84" width="446.4" height="332.64"/>
  </clipPath>
 </defs>
</svg>
