<?xml version="1.0" encoding="utf-8" standalone="no"?>
<!DOCTYPE svg PUBLIC "-//W3C//DTD SVG 1.1//EN"
  "http://www.w3.org/Graphics/SVG/1.1/DTD/svg11.dtd">
<svg xmlns:xlink="http://www.w3.org/1999/xlink" width="576pt" height="432pt" viewBox="0 0 576 432" xmlns="http://www.w3.org/2000/svg" version="1.1">
 <metadata>
  <rdf:RDF xmlns:dc="http://purl.org/dc/elements/1.1/" xmlns:cc="http://creativecommons.org/ns#" xmlns:rdf="http://www.w3.org/1999/02/22-rdf-syntax-ns#">
   <cc:Work>
    <dc:type rdf:resource="http://purl.org/dc/dcmitype/StillImage"/>
    <dc:date>2023-05-04T03:13:42.392502</dc:date>
    <dc:format>image/svg+xml</dc:format>
    <dc:creator>
     <cc:Agent>
      <dc:title>Matplotlib v3.7.1, https://matplotlib.org/</dc:title>
     </cc:Agent>
    </dc:creator>
   </cc:Work>
  </rdf:RDF>
 </metadata>
 <defs>
  <style type="text/css">*{stroke-linejoin: round; stroke-linecap: butt}</style>
 </defs>
 <g id="figure_1">
  <g id="patch_1">
   <path d="M 0 432 
L 576 432 
L 576 0 
L 0 0 
z
" style="fill: #ffffff"/>
  </g>
  <g id="axes_1">
   <g id="patch_2">
    <path d="M 72 384.48 
L 518.4 384.48 
L 518.4 51.84 
L 72 51.84 
z
" style="fill: #ffffff"/>
   </g>
   <g id="matplotlib.axis_1">
    <g id="xtick_1">
     <g id="line2d_1">
      <defs>
       <path id="mb0211f90cd" d="M 0 0 
L 0 3.5 
" style="stroke: #000000; stroke-width: 0.8"/>
      </defs>
      <g>
       <use xlink:href="#mb0211f90cd" x="92.290909" y="384.48" style="stroke: #000000; stroke-width: 0.8"/>
      </g>
     </g>
     <g id="text_1">
      <!-- 0.0 -->
      <g transform="translate(84.339347 399.078438) scale(0.1 -0.1)">
       <defs>
        <path id="DejaVuSans-30" d="M 2034 4250 
Q 1547 4250 1301 3770 
Q 1056 3291 1056 2328 
Q 1056 1369 1301 889 
Q 1547 409 2034 409 
Q 2525 409 2770 889 
Q 3016 1369 3016 2328 
Q 3016 3291 2770 3770 
Q 2525 4250 2034 4250 
z
M 2034 4750 
Q 2819 4750 3233 4129 
Q 3647 3509 3647 2328 
Q 3647 1150 3233 529 
Q 2819 -91 2034 -91 
Q 1250 -91 836 529 
Q 422 1150 422 2328 
Q 422 3509 836 4129 
Q 1250 4750 2034 4750 
z
" transform="scale(0.015625)"/>
        <path id="DejaVuSans-2e" d="M 684 794 
L 1344 794 
L 1344 0 
L 684 0 
L 684 794 
z
" transform="scale(0.015625)"/>
       </defs>
       <use xlink:href="#DejaVuSans-30"/>
       <use xlink:href="#DejaVuSans-2e" x="63.623047"/>
       <use xlink:href="#DejaVuSans-30" x="95.410156"/>
      </g>
     </g>
    </g>
    <g id="xtick_2">
     <g id="line2d_2">
      <g>
       <use xlink:href="#mb0211f90cd" x="173.454545" y="384.48" style="stroke: #000000; stroke-width: 0.8"/>
      </g>
     </g>
     <g id="text_2">
      <!-- 0.2 -->
      <g transform="translate(165.502983 399.078438) scale(0.1 -0.1)">
       <defs>
        <path id="DejaVuSans-32" d="M 1228 531 
L 3431 531 
L 3431 0 
L 469 0 
L 469 531 
Q 828 903 1448 1529 
Q 2069 2156 2228 2338 
Q 2531 2678 2651 2914 
Q 2772 3150 2772 3378 
Q 2772 3750 2511 3984 
Q 2250 4219 1831 4219 
Q 1534 4219 1204 4116 
Q 875 4013 500 3803 
L 500 4441 
Q 881 4594 1212 4672 
Q 1544 4750 1819 4750 
Q 2544 4750 2975 4387 
Q 3406 4025 3406 3419 
Q 3406 3131 3298 2873 
Q 3191 2616 2906 2266 
Q 2828 2175 2409 1742 
Q 1991 1309 1228 531 
z
" transform="scale(0.015625)"/>
       </defs>
       <use xlink:href="#DejaVuSans-30"/>
       <use xlink:href="#DejaVuSans-2e" x="63.623047"/>
       <use xlink:href="#DejaVuSans-32" x="95.410156"/>
      </g>
     </g>
    </g>
    <g id="xtick_3">
     <g id="line2d_3">
      <g>
       <use xlink:href="#mb0211f90cd" x="254.618182" y="384.48" style="stroke: #000000; stroke-width: 0.8"/>
      </g>
     </g>
     <g id="text_3">
      <!-- 0.4 -->
      <g transform="translate(246.666619 399.078438) scale(0.1 -0.1)">
       <defs>
        <path id="DejaVuSans-34" d="M 2419 4116 
L 825 1625 
L 2419 1625 
L 2419 4116 
z
M 2253 4666 
L 3047 4666 
L 3047 1625 
L 3713 1625 
L 3713 1100 
L 3047 1100 
L 3047 0 
L 2419 0 
L 2419 1100 
L 313 1100 
L 313 1709 
L 2253 4666 
z
" transform="scale(0.015625)"/>
       </defs>
       <use xlink:href="#DejaVuSans-30"/>
       <use xlink:href="#DejaVuSans-2e" x="63.623047"/>
       <use xlink:href="#DejaVuSans-34" x="95.410156"/>
      </g>
     </g>
    </g>
    <g id="xtick_4">
     <g id="line2d_4">
      <g>
       <use xlink:href="#mb0211f90cd" x="335.781818" y="384.48" style="stroke: #000000; stroke-width: 0.8"/>
      </g>
     </g>
     <g id="text_4">
      <!-- 0.6 -->
      <g transform="translate(327.830256 399.078438) scale(0.1 -0.1)">
       <defs>
        <path id="DejaVuSans-36" d="M 2113 2584 
Q 1688 2584 1439 2293 
Q 1191 2003 1191 1497 
Q 1191 994 1439 701 
Q 1688 409 2113 409 
Q 2538 409 2786 701 
Q 3034 994 3034 1497 
Q 3034 2003 2786 2293 
Q 2538 2584 2113 2584 
z
M 3366 4563 
L 3366 3988 
Q 3128 4100 2886 4159 
Q 2644 4219 2406 4219 
Q 1781 4219 1451 3797 
Q 1122 3375 1075 2522 
Q 1259 2794 1537 2939 
Q 1816 3084 2150 3084 
Q 2853 3084 3261 2657 
Q 3669 2231 3669 1497 
Q 3669 778 3244 343 
Q 2819 -91 2113 -91 
Q 1303 -91 875 529 
Q 447 1150 447 2328 
Q 447 3434 972 4092 
Q 1497 4750 2381 4750 
Q 2619 4750 2861 4703 
Q 3103 4656 3366 4563 
z
" transform="scale(0.015625)"/>
       </defs>
       <use xlink:href="#DejaVuSans-30"/>
       <use xlink:href="#DejaVuSans-2e" x="63.623047"/>
       <use xlink:href="#DejaVuSans-36" x="95.410156"/>
      </g>
     </g>
    </g>
    <g id="xtick_5">
     <g id="line2d_5">
      <g>
       <use xlink:href="#mb0211f90cd" x="416.945455" y="384.48" style="stroke: #000000; stroke-width: 0.8"/>
      </g>
     </g>
     <g id="text_5">
      <!-- 0.8 -->
      <g transform="translate(408.993892 399.078438) scale(0.1 -0.1)">
       <defs>
        <path id="DejaVuSans-38" d="M 2034 2216 
Q 1584 2216 1326 1975 
Q 1069 1734 1069 1313 
Q 1069 891 1326 650 
Q 1584 409 2034 409 
Q 2484 409 2743 651 
Q 3003 894 3003 1313 
Q 3003 1734 2745 1975 
Q 2488 2216 2034 2216 
z
M 1403 2484 
Q 997 2584 770 2862 
Q 544 3141 544 3541 
Q 544 4100 942 4425 
Q 1341 4750 2034 4750 
Q 2731 4750 3128 4425 
Q 3525 4100 3525 3541 
Q 3525 3141 3298 2862 
Q 3072 2584 2669 2484 
Q 3125 2378 3379 2068 
Q 3634 1759 3634 1313 
Q 3634 634 3220 271 
Q 2806 -91 2034 -91 
Q 1263 -91 848 271 
Q 434 634 434 1313 
Q 434 1759 690 2068 
Q 947 2378 1403 2484 
z
M 1172 3481 
Q 1172 3119 1398 2916 
Q 1625 2713 2034 2713 
Q 2441 2713 2670 2916 
Q 2900 3119 2900 3481 
Q 2900 3844 2670 4047 
Q 2441 4250 2034 4250 
Q 1625 4250 1398 4047 
Q 1172 3844 1172 3481 
z
" transform="scale(0.015625)"/>
       </defs>
       <use xlink:href="#DejaVuSans-30"/>
       <use xlink:href="#DejaVuSans-2e" x="63.623047"/>
       <use xlink:href="#DejaVuSans-38" x="95.410156"/>
      </g>
     </g>
    </g>
    <g id="xtick_6">
     <g id="line2d_6">
      <g>
       <use xlink:href="#mb0211f90cd" x="498.109091" y="384.48" style="stroke: #000000; stroke-width: 0.8"/>
      </g>
     </g>
     <g id="text_6">
      <!-- 1.0 -->
      <g transform="translate(490.157528 399.078438) scale(0.1 -0.1)">
       <defs>
        <path id="DejaVuSans-31" d="M 794 531 
L 1825 531 
L 1825 4091 
L 703 3866 
L 703 4441 
L 1819 4666 
L 2450 4666 
L 2450 531 
L 3481 531 
L 3481 0 
L 794 0 
L 794 531 
z
" transform="scale(0.015625)"/>
       </defs>
       <use xlink:href="#DejaVuSans-31"/>
       <use xlink:href="#DejaVuSans-2e" x="63.623047"/>
       <use xlink:href="#DejaVuSans-30" x="95.410156"/>
      </g>
     </g>
    </g>
   </g>
   <g id="matplotlib.axis_2">
    <g id="ytick_1">
     <g id="line2d_7">
      <defs>
       <path id="mf49ecdf8b4" d="M 0 0 
L -3.5 0 
" style="stroke: #000000; stroke-width: 0.8"/>
      </defs>
      <g>
       <use xlink:href="#mf49ecdf8b4" x="72" y="369.36" style="stroke: #000000; stroke-width: 0.8"/>
      </g>
     </g>
     <g id="text_7">
      <!-- −5.0 -->
      <g transform="translate(40.717187 373.159219) scale(0.1 -0.1)">
       <defs>
        <path id="DejaVuSans-2212" d="M 678 2272 
L 4684 2272 
L 4684 1741 
L 678 1741 
L 678 2272 
z
" transform="scale(0.015625)"/>
        <path id="DejaVuSans-35" d="M 691 4666 
L 3169 4666 
L 3169 4134 
L 1269 4134 
L 1269 2991 
Q 1406 3038 1543 3061 
Q 1681 3084 1819 3084 
Q 2600 3084 3056 2656 
Q 3513 2228 3513 1497 
Q 3513 744 3044 326 
Q 2575 -91 1722 -91 
Q 1428 -91 1123 -41 
Q 819 9 494 109 
L 494 744 
Q 775 591 1075 516 
Q 1375 441 1709 441 
Q 2250 441 2565 725 
Q 2881 1009 2881 1497 
Q 2881 1984 2565 2268 
Q 2250 2553 1709 2553 
Q 1456 2553 1204 2497 
Q 953 2441 691 2322 
L 691 4666 
z
" transform="scale(0.015625)"/>
       </defs>
       <use xlink:href="#DejaVuSans-2212"/>
       <use xlink:href="#DejaVuSans-35" x="83.789062"/>
       <use xlink:href="#DejaVuSans-2e" x="147.412109"/>
       <use xlink:href="#DejaVuSans-30" x="179.199219"/>
      </g>
     </g>
    </g>
    <g id="ytick_2">
     <g id="line2d_8">
      <g>
       <use xlink:href="#mf49ecdf8b4" x="72" y="331.56" style="stroke: #000000; stroke-width: 0.8"/>
      </g>
     </g>
     <g id="text_8">
      <!-- −2.5 -->
      <g transform="translate(40.717187 335.359219) scale(0.1 -0.1)">
       <use xlink:href="#DejaVuSans-2212"/>
       <use xlink:href="#DejaVuSans-32" x="83.789062"/>
       <use xlink:href="#DejaVuSans-2e" x="147.412109"/>
       <use xlink:href="#DejaVuSans-35" x="179.199219"/>
      </g>
     </g>
    </g>
    <g id="ytick_3">
     <g id="line2d_9">
      <g>
       <use xlink:href="#mf49ecdf8b4" x="72" y="293.76" style="stroke: #000000; stroke-width: 0.8"/>
      </g>
     </g>
     <g id="text_9">
      <!-- 0.0 -->
      <g transform="translate(49.096875 297.559219) scale(0.1 -0.1)">
       <use xlink:href="#DejaVuSans-30"/>
       <use xlink:href="#DejaVuSans-2e" x="63.623047"/>
       <use xlink:href="#DejaVuSans-30" x="95.410156"/>
      </g>
     </g>
    </g>
    <g id="ytick_4">
     <g id="line2d_10">
      <g>
       <use xlink:href="#mf49ecdf8b4" x="72" y="255.96" style="stroke: #000000; stroke-width: 0.8"/>
      </g>
     </g>
     <g id="text_10">
      <!-- 2.5 -->
      <g transform="translate(49.096875 259.759219) scale(0.1 -0.1)">
       <use xlink:href="#DejaVuSans-32"/>
       <use xlink:href="#DejaVuSans-2e" x="63.623047"/>
       <use xlink:href="#DejaVuSans-35" x="95.410156"/>
      </g>
     </g>
    </g>
    <g id="ytick_5">
     <g id="line2d_11">
      <g>
       <use xlink:href="#mf49ecdf8b4" x="72" y="218.16" style="stroke: #000000; stroke-width: 0.8"/>
      </g>
     </g>
     <g id="text_11">
      <!-- 5.0 -->
      <g transform="translate(49.096875 221.959219) scale(0.1 -0.1)">
       <use xlink:href="#DejaVuSans-35"/>
       <use xlink:href="#DejaVuSans-2e" x="63.623047"/>
       <use xlink:href="#DejaVuSans-30" x="95.410156"/>
      </g>
     </g>
    </g>
    <g id="ytick_6">
     <g id="line2d_12">
      <g>
       <use xlink:href="#mf49ecdf8b4" x="72" y="180.36" style="stroke: #000000; stroke-width: 0.8"/>
      </g>
     </g>
     <g id="text_12">
      <!-- 7.5 -->
      <g transform="translate(49.096875 184.159219) scale(0.1 -0.1)">
       <defs>
        <path id="DejaVuSans-37" d="M 525 4666 
L 3525 4666 
L 3525 4397 
L 1831 0 
L 1172 0 
L 2766 4134 
L 525 4134 
L 525 4666 
z
" transform="scale(0.015625)"/>
       </defs>
       <use xlink:href="#DejaVuSans-37"/>
       <use xlink:href="#DejaVuSans-2e" x="63.623047"/>
       <use xlink:href="#DejaVuSans-35" x="95.410156"/>
      </g>
     </g>
    </g>
    <g id="ytick_7">
     <g id="line2d_13">
      <g>
       <use xlink:href="#mf49ecdf8b4" x="72" y="142.56" style="stroke: #000000; stroke-width: 0.8"/>
      </g>
     </g>
     <g id="text_13">
      <!-- 10.0 -->
      <g transform="translate(42.734375 146.359219) scale(0.1 -0.1)">
       <use xlink:href="#DejaVuSans-31"/>
       <use xlink:href="#DejaVuSans-30" x="63.623047"/>
       <use xlink:href="#DejaVuSans-2e" x="127.246094"/>
       <use xlink:href="#DejaVuSans-30" x="159.033203"/>
      </g>
     </g>
    </g>
    <g id="ytick_8">
     <g id="line2d_14">
      <g>
       <use xlink:href="#mf49ecdf8b4" x="72" y="104.76" style="stroke: #000000; stroke-width: 0.8"/>
      </g>
     </g>
     <g id="text_14">
      <!-- 12.5 -->
      <g transform="translate(42.734375 108.559219) scale(0.1 -0.1)">
       <use xlink:href="#DejaVuSans-31"/>
       <use xlink:href="#DejaVuSans-32" x="63.623047"/>
       <use xlink:href="#DejaVuSans-2e" x="127.246094"/>
       <use xlink:href="#DejaVuSans-35" x="159.033203"/>
      </g>
     </g>
    </g>
    <g id="ytick_9">
     <g id="line2d_15">
      <g>
       <use xlink:href="#mf49ecdf8b4" x="72" y="66.96" style="stroke: #000000; stroke-width: 0.8"/>
      </g>
     </g>
     <g id="text_15">
      <!-- 15.0 -->
      <g transform="translate(42.734375 70.759219) scale(0.1 -0.1)">
       <use xlink:href="#DejaVuSans-31"/>
       <use xlink:href="#DejaVuSans-35" x="63.623047"/>
       <use xlink:href="#DejaVuSans-2e" x="127.246094"/>
       <use xlink:href="#DejaVuSans-30" x="159.033203"/>
      </g>
     </g>
    </g>
   </g>
   <g id="line2d_16">
    <path d="M 92.290909 327.751272 
L 96.349091 327.786048 
L 100.407273 327.891888 
L 104.465455 328.065768 
L 108.523636 328.303152 
L 112.581818 328.602528 
L 116.64 328.954824 
L 120.698182 329.358528 
L 124.756364 329.807592 
L 128.814545 330.295968 
L 132.872727 330.81912 
L 136.930909 331.372512 
L 140.989091 331.95312 
L 145.047273 332.556408 
L 149.105455 333.180864 
L 153.163636 333.821952 
L 157.221818 334.47816 
L 161.28 335.144952 
L 165.338182 335.82384 
L 169.396364 336.5118 
L 173.454545 337.205808 
L 177.512727 337.905864 
L 181.570909 338.608944 
L 185.629091 339.31656 
L 189.687273 340.025688 
L 193.745455 340.736328 
L 197.803636 341.446968 
L 201.861818 342.157608 
L 205.92 342.866736 
L 209.978182 343.574352 
L 214.036364 344.277432 
L 218.094545 344.979 
L 222.152727 345.677544 
L 226.210909 346.37004 
L 230.269091 347.059512 
L 234.327273 347.742936 
L 238.385455 348.420312 
L 242.443636 349.093152 
L 246.501818 349.759944 
L 250.56 350.419176 
L 254.618182 351.070848 
L 258.676364 351.716472 
L 262.734545 352.356048 
L 266.792727 352.986552 
L 270.850909 353.607984 
L 274.909091 354.223368 
L 278.967273 354.82968 
L 283.025455 355.42692 
L 287.083636 356.015088 
L 291.141818 356.595696 
L 295.2 357.16572 
L 299.258182 357.726672 
L 303.316364 358.280064 
L 307.374545 358.82136 
L 311.432727 359.355096 
L 315.490909 359.876736 
L 319.549091 360.389304 
L 323.607273 360.8928 
L 327.665455 361.385712 
L 331.723636 361.866528 
L 335.781818 362.338272 
L 339.84 362.799432 
L 343.898182 363.250008 
L 347.956364 363.69 
L 352.014545 364.119408 
L 356.072727 364.53672 
L 360.130909 364.943448 
L 364.189091 365.339592 
L 368.247273 365.72364 
L 372.305455 366.098616 
L 376.363636 366.459984 
L 380.421818 366.810768 
L 384.48 367.150968 
L 388.538182 367.479072 
L 392.596364 367.79508 
L 396.654545 368.100504 
L 400.712727 368.393832 
L 404.770909 368.675064 
L 408.829091 368.945712 
L 412.887273 369.204264 
L 416.945455 369.45072 
L 421.003636 369.68508 
L 425.061818 369.907344 
L 429.12 370.119024 
L 433.178182 370.318608 
L 437.236364 370.506096 
L 441.294545 370.679976 
L 445.352727 370.843272 
L 449.410909 370.994472 
L 453.469091 371.135088 
L 457.527273 371.262096 
L 461.585455 371.377008 
L 465.643636 371.479824 
L 469.701818 371.570544 
L 473.76 371.649168 
L 477.818182 371.715696 
L 481.876364 371.770128 
L 485.934545 371.813976 
L 489.992727 371.844216 
L 494.050909 371.86236 
L 498.109091 371.868408 
" clip-path="url(#p6d84457387)" style="fill: none; stroke: #000000; stroke-opacity: 0.5; stroke-linecap: square"/>
   </g>
   <g id="line2d_17">
    <path d="M 92.290909 310.047264 
L 96.349091 310.020048 
L 100.407273 309.935376 
L 104.465455 309.796272 
L 108.523636 309.60576 
L 112.581818 309.369888 
L 116.64 309.09168 
L 120.698182 308.775672 
L 124.756364 308.4264 
L 128.814545 308.049912 
L 132.872727 307.649232 
L 136.930909 307.227384 
L 140.989091 306.788904 
L 145.047273 306.336816 
L 149.105455 305.87112 
L 153.163636 305.396352 
L 157.221818 304.912512 
L 161.28 304.422624 
L 165.338182 303.925176 
L 169.396364 303.423192 
L 173.454545 302.91516 
L 177.512727 302.404104 
L 181.570909 301.888512 
L 185.629091 301.369896 
L 189.687273 300.846744 
L 193.745455 300.320568 
L 197.803636 299.789856 
L 201.861818 299.25612 
L 205.92 298.717848 
L 209.978182 298.176552 
L 214.036364 297.629208 
L 218.094545 297.077328 
L 222.152727 296.522424 
L 226.210909 295.95996 
L 230.269091 295.394472 
L 234.327273 294.821424 
L 238.385455 294.24384 
L 242.443636 293.660208 
L 246.501818 293.069016 
L 250.56 292.473288 
L 254.618182 291.87 
L 258.676364 291.259152 
L 262.734545 290.642256 
L 266.792727 290.016288 
L 270.850909 289.384272 
L 274.909091 288.744696 
L 278.967273 288.09756 
L 283.025455 287.442864 
L 287.083636 286.779096 
L 291.141818 286.10928 
L 295.2 285.42888 
L 299.258182 284.742432 
L 303.316364 284.046912 
L 307.374545 283.34232 
L 311.432727 282.630168 
L 315.490909 281.910456 
L 319.549091 281.181672 
L 323.607273 280.443816 
L 327.665455 279.699912 
L 331.723636 278.945424 
L 335.781818 278.183376 
L 339.84 277.413768 
L 343.898182 276.635088 
L 347.956364 275.85036 
L 352.014545 275.05656 
L 356.072727 274.253688 
L 360.130909 273.444768 
L 364.189091 272.628288 
L 368.247273 271.804248 
L 372.305455 270.97416 
L 376.363636 270.136512 
L 380.421818 269.292816 
L 384.48 268.443072 
L 388.538182 267.585768 
L 392.596364 266.72544 
L 396.654545 265.859064 
L 400.712727 264.988152 
L 404.770909 264.114216 
L 408.829091 263.237256 
L 412.887273 262.357272 
L 416.945455 261.475776 
L 421.003636 260.592768 
L 425.061818 259.712784 
L 429.12 258.8328 
L 433.178182 257.957352 
L 437.236364 257.087952 
L 441.294545 256.226112 
L 445.352727 255.374856 
L 449.410909 254.537208 
L 453.469091 253.717704 
L 457.527273 252.919368 
L 461.585455 252.151272 
L 465.643636 251.41644 
L 469.701818 250.725456 
L 473.76 250.087392 
L 477.818182 249.514344 
L 481.876364 249.016896 
L 485.934545 248.61168 
L 489.992727 248.30928 
L 494.050909 248.123304 
L 498.109091 248.061312 
" clip-path="url(#p6d84457387)" style="fill: none; stroke: #000000; stroke-opacity: 0.5; stroke-linecap: square"/>
   </g>
   <g id="line2d_18">
    <path d="M 92.290909 267.895728 
L 96.349091 267.873048 
L 100.407273 267.809544 
L 104.465455 267.703704 
L 108.523636 267.555528 
L 112.581818 267.366528 
L 116.64 267.135192 
L 120.698182 266.863032 
L 124.756364 266.550048 
L 128.814545 266.197752 
L 132.872727 265.807656 
L 136.930909 265.378248 
L 140.989091 264.91104 
L 145.047273 264.407544 
L 149.105455 263.869272 
L 153.163636 263.296224 
L 157.221818 262.689912 
L 161.28 262.051848 
L 165.338182 261.383544 
L 169.396364 260.683488 
L 173.454545 259.956216 
L 177.512727 259.201728 
L 181.570909 258.420024 
L 185.629091 257.614128 
L 189.687273 256.785552 
L 193.745455 255.932784 
L 197.803636 255.06036 
L 201.861818 254.16828 
L 205.92 253.258056 
L 209.978182 252.3312 
L 214.036364 251.387712 
L 218.094545 250.429104 
L 222.152727 249.4584 
L 226.210909 248.4756 
L 230.269091 247.482216 
L 234.327273 246.47976 
L 238.385455 245.469744 
L 242.443636 244.45368 
L 246.501818 243.43308 
L 250.56 242.407944 
L 254.618182 241.381296 
L 258.676364 240.35616 
L 262.734545 239.331024 
L 266.792727 238.310424 
L 270.850909 237.297384 
L 274.909091 236.290392 
L 278.967273 235.295496 
L 283.025455 234.314208 
L 287.083636 233.349552 
L 291.141818 232.406064 
L 295.2 231.485256 
L 299.258182 230.593176 
L 303.316364 229.731336 
L 307.374545 228.90276 
L 311.432727 228.110472 
L 315.490909 227.354472 
L 319.549091 226.633248 
L 323.607273 225.9468 
L 327.665455 225.290592 
L 331.723636 224.660088 
L 335.781818 224.053776 
L 339.84 223.468632 
L 343.898182 222.90012 
L 347.956364 222.346728 
L 352.014545 221.806944 
L 356.072727 221.279256 
L 360.130909 220.763664 
L 364.189091 220.260168 
L 368.247273 219.768768 
L 372.305455 219.292488 
L 376.363636 218.831328 
L 380.421818 218.39436 
L 384.48 217.992168 
L 388.538182 217.647432 
L 392.596364 217.405512 
L 396.654545 217.325376 
L 400.712727 217.43424 
L 404.770909 217.700352 
L 408.829091 218.081376 
L 412.887273 218.544048 
L 416.945455 219.07476 
L 421.003636 219.658392 
L 425.061818 220.285872 
L 429.12 220.951152 
L 433.178182 221.64516 
L 437.236364 222.36336 
L 441.294545 223.099704 
L 445.352727 223.84512 
L 449.410909 224.596584 
L 453.469091 225.345024 
L 457.527273 226.084392 
L 461.585455 226.807128 
L 465.643636 227.50416 
L 469.701818 228.166416 
L 473.76 228.7818 
L 477.818182 229.338216 
L 481.876364 229.820544 
L 485.934545 230.2182 
L 489.992727 230.51304 
L 494.050909 230.695992 
L 498.109091 230.757984 
" clip-path="url(#p6d84457387)" style="fill: none; stroke: #000000; stroke-opacity: 0.5; stroke-linecap: square"/>
   </g>
   <g id="line2d_19">
    <path d="M 92.290909 239.1768 
L 96.349091 239.170752 
L 100.407273 239.155632 
L 104.465455 239.128416 
L 108.523636 239.092128 
L 112.581818 239.045256 
L 116.64 238.986288 
L 120.698182 238.918248 
L 124.756364 238.839624 
L 128.814545 238.748904 
L 132.872727 238.649112 
L 136.930909 238.538736 
L 140.989091 238.417776 
L 145.047273 238.286232 
L 149.105455 238.145616 
L 153.163636 237.992904 
L 157.221818 237.83112 
L 161.28 237.658752 
L 165.338182 237.4758 
L 169.396364 237.282264 
L 173.454545 237.079656 
L 177.512727 236.866464 
L 181.570909 236.642688 
L 185.629091 236.408328 
L 189.687273 236.164896 
L 193.745455 235.912392 
L 197.803636 235.647792 
L 201.861818 235.37412 
L 205.92 235.091376 
L 209.978182 234.798048 
L 214.036364 234.495648 
L 218.094545 234.182664 
L 222.152727 233.859096 
L 226.210909 233.527968 
L 230.269091 233.184744 
L 234.327273 232.832448 
L 238.385455 232.47108 
L 242.443636 232.099128 
L 246.501818 231.716592 
L 250.56 231.324984 
L 254.618182 230.922792 
L 258.676364 230.508504 
L 262.734545 230.083632 
L 266.792727 229.648176 
L 270.850909 229.200624 
L 274.909091 228.739464 
L 278.967273 228.264696 
L 283.025455 227.774808 
L 287.083636 227.2698 
L 291.141818 226.74816 
L 295.2 226.206864 
L 299.258182 225.645912 
L 303.316364 225.063792 
L 307.374545 224.460504 
L 311.432727 223.83756 
L 315.490909 223.196472 
L 319.549091 222.541776 
L 323.607273 221.87952 
L 327.665455 221.215752 
L 331.723636 220.559544 
L 335.781818 219.916944 
L 339.84 219.297024 
L 343.898182 218.705832 
L 347.956364 218.15244 
L 352.014545 217.644408 
L 356.072727 217.186272 
L 360.130909 216.78408 
L 364.189091 216.442368 
L 368.247273 216.165672 
L 372.305455 215.955504 
L 376.363636 215.810352 
L 380.421818 215.727192 
L 384.48 215.69544 
L 388.538182 215.692416 
L 392.596364 215.669736 
L 396.654545 215.56692 
L 400.712727 215.353728 
L 404.770909 215.058888 
L 408.829091 214.721712 
L 412.887273 214.366392 
L 416.945455 214.006536 
L 421.003636 213.649704 
L 425.061818 213.300432 
L 429.12 212.960232 
L 433.178182 212.63364 
L 437.236364 212.319144 
L 441.294545 212.02128 
L 445.352727 211.738536 
L 449.410909 211.472424 
L 453.469091 211.225968 
L 457.527273 210.996144 
L 461.585455 210.787488 
L 465.643636 210.598488 
L 469.701818 210.429144 
L 473.76 210.28248 
L 477.818182 210.156984 
L 481.876364 210.054168 
L 485.934545 209.974032 
L 489.992727 209.916576 
L 494.050909 209.8818 
L 498.109091 209.869704 
" clip-path="url(#p6d84457387)" style="fill: none; stroke: #000000; stroke-opacity: 0.5; stroke-linecap: square"/>
   </g>
   <g id="line2d_20">
    <path d="M 92.290909 183.426336 
L 96.349091 183.418776 
L 100.407273 183.396096 
L 104.465455 183.358296 
L 108.523636 183.306888 
L 112.581818 183.238848 
L 116.64 183.1572 
L 120.698182 183.060432 
L 124.756364 182.948544 
L 128.814545 182.821536 
L 132.872727 182.68092 
L 136.930909 182.525184 
L 140.989091 182.35584 
L 145.047273 182.171376 
L 149.105455 181.973304 
L 153.163636 181.760112 
L 157.221818 181.534824 
L 161.28 181.294416 
L 165.338182 181.041912 
L 169.396364 180.7758 
L 173.454545 180.49608 
L 177.512727 180.204264 
L 181.570909 179.900352 
L 185.629091 179.584344 
L 189.687273 179.25624 
L 193.745455 178.917552 
L 197.803636 178.566768 
L 201.861818 178.206912 
L 205.92 177.837984 
L 209.978182 177.458472 
L 214.036364 177.0714 
L 218.094545 176.675256 
L 222.152727 176.273064 
L 226.210909 175.864824 
L 230.269091 175.452048 
L 234.327273 175.034736 
L 238.385455 174.615912 
L 242.443636 174.195576 
L 246.501818 173.77524 
L 250.56 173.357928 
L 254.618182 172.946664 
L 258.676364 172.541448 
L 262.734545 172.148328 
L 266.792727 171.767304 
L 270.850909 171.404424 
L 274.909091 171.065736 
L 278.967273 170.752752 
L 283.025455 170.474544 
L 287.083636 170.235648 
L 291.141818 170.045136 
L 295.2 169.909056 
L 299.258182 169.834968 
L 303.316364 169.827408 
L 307.374545 169.893936 
L 311.432727 170.03304 
L 315.490909 170.243208 
L 319.549091 170.521416 
L 323.607273 170.85708 
L 327.665455 171.239616 
L 331.723636 171.65844 
L 335.781818 172.099944 
L 339.84 172.55052 
L 343.898182 172.998072 
L 347.956364 173.430504 
L 352.014545 173.838744 
L 356.072727 174.209184 
L 360.130909 174.537288 
L 364.189091 174.812472 
L 368.247273 175.028688 
L 372.305455 175.178376 
L 376.363636 175.260024 
L 380.421818 175.270608 
L 384.48 175.205592 
L 388.538182 175.066488 
L 392.596364 174.853296 
L 396.654545 174.56904 
L 400.712727 174.216744 
L 404.770909 173.799432 
L 408.829091 173.32164 
L 412.887273 172.787904 
L 416.945455 172.204272 
L 421.003636 171.57528 
L 425.061818 170.906976 
L 429.12 170.203896 
L 433.178182 169.470576 
L 437.236364 168.714576 
L 441.294545 167.940432 
L 445.352727 167.15268 
L 449.410909 166.355856 
L 453.469091 165.556008 
L 457.527273 164.760696 
L 461.585455 163.972944 
L 465.643636 163.200312 
L 469.701818 162.45036 
L 473.76 161.727624 
L 477.818182 161.041176 
L 481.876364 160.4016 
L 485.934545 159.816456 
L 489.992727 159.299352 
L 494.050909 158.883552 
L 498.109091 158.688504 
" clip-path="url(#p6d84457387)" style="fill: none; stroke: #000000; stroke-opacity: 0.5; stroke-linecap: square"/>
   </g>
   <g id="line2d_21">
    <path d="M 92.290909 135.9828 
L 96.349091 135.976752 
L 100.407273 135.954072 
L 104.465455 135.917784 
L 108.523636 135.867888 
L 112.581818 135.802872 
L 116.64 135.722736 
L 120.698182 135.628992 
L 124.756364 135.520128 
L 128.814545 135.397656 
L 132.872727 135.260064 
L 136.930909 135.108864 
L 140.989091 134.942544 
L 145.047273 134.762616 
L 149.105455 134.567568 
L 153.163636 134.358912 
L 157.221818 134.135136 
L 161.28 133.899264 
L 165.338182 133.648272 
L 169.396364 133.385184 
L 173.454545 133.108488 
L 177.512727 132.819696 
L 181.570909 132.52032 
L 185.629091 132.213384 
L 189.687273 131.9004 
L 193.745455 131.588928 
L 197.803636 131.291064 
L 201.861818 131.03856 
L 205.92 130.900968 
L 209.978182 131.032512 
L 214.036364 131.584392 
L 218.094545 132.4674 
L 222.152727 133.509168 
L 226.210909 134.618976 
L 230.269091 135.759024 
L 234.327273 136.911168 
L 238.385455 138.067848 
L 242.443636 139.219992 
L 246.501818 140.366088 
L 250.56 141.5016 
L 254.618182 142.623504 
L 258.676364 143.725752 
L 262.734545 144.808344 
L 266.792727 145.86372 
L 270.850909 146.890368 
L 274.909091 147.880728 
L 278.967273 148.828752 
L 283.025455 149.729904 
L 287.083636 150.576624 
L 291.141818 151.358328 
L 295.2 152.07048 
L 299.258182 152.702496 
L 303.316364 153.246816 
L 307.374545 153.698904 
L 311.432727 154.057248 
L 315.490909 154.320336 
L 319.549091 154.491192 
L 323.607273 154.575864 
L 327.665455 154.584936 
L 331.723636 154.525968 
L 335.781818 154.409544 
L 339.84 154.246248 
L 343.898182 154.045152 
L 347.956364 153.815328 
L 352.014545 153.564336 
L 356.072727 153.301248 
L 360.130909 153.033624 
L 364.189091 152.769024 
L 368.247273 152.518032 
L 372.305455 152.295768 
L 376.363636 152.1234 
L 380.421818 152.029656 
L 384.48 152.041752 
L 388.538182 152.1612 
L 392.596364 152.359272 
L 396.654545 152.601192 
L 400.712727 152.865792 
L 404.770909 153.137952 
L 408.829091 153.410112 
L 412.887273 153.677736 
L 416.945455 153.9378 
L 421.003636 154.190304 
L 425.061818 154.433736 
L 429.12 154.666584 
L 433.178182 154.888848 
L 437.236364 155.100528 
L 441.294545 155.303136 
L 445.352727 155.496672 
L 449.410909 155.681136 
L 453.469091 155.85804 
L 457.527273 156.028896 
L 461.585455 156.195216 
L 465.643636 156.358512 
L 469.701818 156.52332 
L 473.76 156.692664 
L 477.818182 156.87108 
L 481.876364 157.066128 
L 485.934545 157.282344 
L 489.992727 157.52124 
L 494.050909 157.76316 
L 498.109091 157.89924 
" clip-path="url(#p6d84457387)" style="fill: none; stroke: #000000; stroke-opacity: 0.5; stroke-linecap: square"/>
   </g>
   <g id="line2d_22">
    <path d="M 92.290909 98.2584 
L 96.349091 98.392968 
L 100.407273 98.778528 
L 104.465455 99.378792 
L 108.523636 100.145376 
L 112.581818 101.034432 
L 116.64 102.011184 
L 120.698182 103.05144 
L 124.756364 104.138568 
L 128.814545 105.257448 
L 132.872727 106.40052 
L 136.930909 107.560224 
L 140.989091 108.733536 
L 145.047273 109.91592 
L 149.105455 111.104352 
L 153.163636 112.298832 
L 157.221818 113.496336 
L 161.28 114.696864 
L 165.338182 115.897392 
L 169.396364 117.099432 
L 173.454545 118.301472 
L 177.512727 119.502 
L 181.570909 120.697992 
L 185.629091 121.889448 
L 189.687273 123.071832 
L 193.745455 124.239096 
L 197.803636 125.374608 
L 201.861818 126.451152 
L 205.92 127.397664 
L 209.978182 128.055384 
L 214.036364 128.277648 
L 218.094545 128.149128 
L 222.152727 127.843704 
L 226.210909 127.452096 
L 230.269091 127.022688 
L 234.327273 126.995472 
L 238.385455 127.87092 
L 242.443636 128.776608 
L 246.501818 129.6702 
L 250.56 130.548672 
L 254.618182 131.412024 
L 258.676364 132.258744 
L 262.734545 133.090344 
L 266.792727 133.905312 
L 270.850909 134.703648 
L 274.909091 135.486864 
L 278.967273 136.25496 
L 283.025455 137.007936 
L 287.083636 137.74428 
L 291.141818 138.465504 
L 295.2 139.171608 
L 299.258182 139.86108 
L 303.316364 140.536944 
L 307.374545 141.197688 
L 311.432727 141.8418 
L 315.490909 142.470792 
L 319.549091 143.084664 
L 323.607273 143.683416 
L 327.665455 144.267048 
L 331.723636 144.83556 
L 335.781818 145.38744 
L 339.84 145.922688 
L 343.898182 146.441304 
L 347.956364 146.943288 
L 352.014545 147.427128 
L 356.072727 147.891312 
L 360.130909 148.332816 
L 364.189091 148.750128 
L 368.247273 149.134176 
L 372.305455 149.4774 
L 376.363636 149.758632 
L 380.421818 149.952168 
L 384.48 150.033816 
L 388.538182 150.0066 
L 392.596364 149.899248 
L 396.654545 149.746536 
L 400.712727 149.57568 
L 404.770909 149.4018 
L 408.829091 149.233968 
L 412.887273 149.07672 
L 416.945455 148.937616 
L 421.003636 148.816656 
L 425.061818 148.716864 
L 429.12 148.641264 
L 433.178182 148.591368 
L 437.236364 148.567176 
L 441.294545 148.571712 
L 445.352727 148.604976 
L 449.410909 148.666968 
L 453.469091 148.757688 
L 457.527273 148.875624 
L 461.585455 149.019264 
L 465.643636 149.185584 
L 469.701818 149.370048 
L 473.76 149.563584 
L 477.818182 149.760144 
L 481.876364 149.94612 
L 485.934545 150.11244 
L 489.992727 150.242472 
L 494.050909 150.327144 
L 498.109091 150.355872 
" clip-path="url(#p6d84457387)" style="fill: none; stroke: #000000; stroke-opacity: 0.5; stroke-linecap: square"/>
   </g>
   <g id="line2d_23">
    <path d="M 92.290909 88.23384 
L 96.349091 88.776648 
L 100.407273 89.641512 
L 104.465455 90.598608 
L 108.523636 91.62828 
L 112.581818 92.71692 
L 116.64 93.853944 
L 120.698182 95.027256 
L 124.756364 96.227784 
L 128.814545 97.446456 
L 132.872727 98.678736 
L 136.930909 99.917064 
L 140.989091 101.159928 
L 145.047273 102.40128 
L 149.105455 103.642632 
L 153.163636 104.877936 
L 157.221818 106.107192 
L 161.28 107.328888 
L 165.338182 108.541512 
L 169.396364 109.74204 
L 173.454545 110.931984 
L 177.512727 112.10832 
L 181.570909 113.271048 
L 185.629091 114.418656 
L 189.687273 115.551144 
L 193.745455 116.668512 
L 197.803636 117.769248 
L 201.861818 118.854864 
L 205.92 119.922336 
L 209.978182 120.971664 
L 214.036364 122.00436 
L 218.094545 123.020424 
L 222.152727 124.016832 
L 226.210909 124.993584 
L 230.269091 125.938584 
L 234.327273 126.42696 
L 238.385455 125.967312 
L 242.443636 125.438112 
L 246.501818 124.880184 
L 250.56 124.301088 
L 254.618182 123.700824 
L 258.676364 123.080904 
L 262.734545 122.44284 
L 266.792727 121.78512 
L 270.850909 121.109256 
L 274.909091 120.415248 
L 278.967273 119.703096 
L 283.025455 118.9728 
L 287.083636 118.22436 
L 291.141818 117.457776 
L 295.2 116.67456 
L 299.258182 115.8732 
L 303.316364 115.053696 
L 307.374545 114.21756 
L 311.432727 113.364792 
L 315.490909 112.495392 
L 319.549091 111.610872 
L 323.607273 110.711232 
L 327.665455 109.79496 
L 331.723636 108.866592 
L 335.781818 107.924616 
L 339.84 106.972056 
L 343.898182 106.008912 
L 347.956364 105.038208 
L 352.014545 104.061456 
L 356.072727 103.083192 
L 360.130909 102.109464 
L 364.189091 101.14632 
L 368.247273 100.211904 
L 372.305455 99.34704 
L 376.363636 98.672688 
L 380.421818 98.550216 
L 384.48 99.21852 
L 388.538182 100.272384 
L 392.596364 101.439648 
L 396.654545 102.640176 
L 400.712727 103.848264 
L 404.770909 105.051816 
L 408.829091 106.244784 
L 412.887273 107.42112 
L 416.945455 108.5778 
L 421.003636 109.713312 
L 425.061818 110.82312 
L 429.12 111.9042 
L 433.178182 112.953528 
L 437.236364 113.966568 
L 441.294545 114.941808 
L 445.352727 115.8732 
L 449.410909 116.75772 
L 453.469091 117.590832 
L 457.527273 118.369512 
L 461.585455 119.089224 
L 465.643636 119.74392 
L 469.701818 120.332088 
L 473.76 120.850704 
L 477.818182 121.29372 
L 481.876364 121.661136 
L 485.934545 121.948416 
L 489.992727 122.15556 
L 494.050909 122.281056 
L 498.109091 122.32188 
" clip-path="url(#p6d84457387)" style="fill: none; stroke: #000000; stroke-opacity: 0.5; stroke-linecap: square"/>
   </g>
   <g id="patch_3">
    <path d="M 72 384.48 
L 72 51.84 
" style="fill: none; stroke: #000000; stroke-width: 0.8; stroke-linejoin: miter; stroke-linecap: square"/>
   </g>
   <g id="patch_4">
    <path d="M 518.4 384.48 
L 518.4 51.84 
" style="fill: none; stroke: #000000; stroke-width: 0.8; stroke-linejoin: miter; stroke-linecap: square"/>
   </g>
   <g id="patch_5">
    <path d="M 72 384.48 
L 518.4 384.48 
" style="fill: none; stroke: #000000; stroke-width: 0.8; stroke-linejoin: miter; stroke-linecap: square"/>
   </g>
   <g id="patch_6">
    <path d="M 72 51.84 
L 518.4 51.84 
" style="fill: none; stroke: #000000; stroke-width: 0.8; stroke-linejoin: miter; stroke-linecap: square"/>
   </g>
  </g>
 </g>
 <defs>
  <clipPath id="p6d84457387">
   <rect x="72" y="51.84" width="446.4" height="332.64"/>
  </clipPath>
 </defs>
</svg>
