<?xml version="1.0" encoding="utf-8" standalone="no"?>
<!DOCTYPE svg PUBLIC "-//W3C//DTD SVG 1.1//EN"
  "http://www.w3.org/Graphics/SVG/1.1/DTD/svg11.dtd">
<svg xmlns:xlink="http://www.w3.org/1999/xlink" width="576pt" height="432pt" viewBox="0 0 576 432" xmlns="http://www.w3.org/2000/svg" version="1.1">
 <metadata>
  <rdf:RDF xmlns:dc="http://purl.org/dc/elements/1.1/" xmlns:cc="http://creativecommons.org/ns#" xmlns:rdf="http://www.w3.org/1999/02/22-rdf-syntax-ns#">
   <cc:Work>
    <dc:type rdf:resource="http://purl.org/dc/dcmitype/StillImage"/>
    <dc:date>2023-05-02T21:04:12.700599</dc:date>
    <dc:format>image/svg+xml</dc:format>
    <dc:creator>
     <cc:Agent>
      <dc:title>Matplotlib v3.7.1, https://matplotlib.org/</dc:title>
     </cc:Agent>
    </dc:creator>
   </cc:Work>
  </rdf:RDF>
 </metadata>
 <defs>
  <style type="text/css">*{stroke-linejoin: round; stroke-linecap: butt}</style>
 </defs>
 <g id="figure_1">
  <g id="patch_1">
   <path d="M 0 432 
L 576 432 
L 576 0 
L 0 0 
z
" style="fill: #ffffff"/>
  </g>
  <g id="axes_1">
   <g id="patch_2">
    <path d="M 72 384.48 
L 518.4 384.48 
L 518.4 51.84 
L 72 51.84 
z
" style="fill: #ffffff"/>
   </g>
   <g id="matplotlib.axis_1">
    <g id="xtick_1">
     <g id="line2d_1">
      <defs>
       <path id="m39d1aa76f1" d="M 0 0 
L 0 3.5 
" style="stroke: #000000; stroke-width: 0.8"/>
      </defs>
      <g>
       <use xlink:href="#m39d1aa76f1" x="92.290909" y="384.48" style="stroke: #000000; stroke-width: 0.8"/>
      </g>
     </g>
     <g id="text_1">
      <!-- 0.0 -->
      <g transform="translate(84.339347 399.078438) scale(0.1 -0.1)">
       <defs>
        <path id="DejaVuSans-30" d="M 2034 4250 
Q 1547 4250 1301 3770 
Q 1056 3291 1056 2328 
Q 1056 1369 1301 889 
Q 1547 409 2034 409 
Q 2525 409 2770 889 
Q 3016 1369 3016 2328 
Q 3016 3291 2770 3770 
Q 2525 4250 2034 4250 
z
M 2034 4750 
Q 2819 4750 3233 4129 
Q 3647 3509 3647 2328 
Q 3647 1150 3233 529 
Q 2819 -91 2034 -91 
Q 1250 -91 836 529 
Q 422 1150 422 2328 
Q 422 3509 836 4129 
Q 1250 4750 2034 4750 
z
" transform="scale(0.015625)"/>
        <path id="DejaVuSans-2e" d="M 684 794 
L 1344 794 
L 1344 0 
L 684 0 
L 684 794 
z
" transform="scale(0.015625)"/>
       </defs>
       <use xlink:href="#DejaVuSans-30"/>
       <use xlink:href="#DejaVuSans-2e" x="63.623047"/>
       <use xlink:href="#DejaVuSans-30" x="95.410156"/>
      </g>
     </g>
    </g>
    <g id="xtick_2">
     <g id="line2d_2">
      <g>
       <use xlink:href="#m39d1aa76f1" x="173.454545" y="384.48" style="stroke: #000000; stroke-width: 0.8"/>
      </g>
     </g>
     <g id="text_2">
      <!-- 0.2 -->
      <g transform="translate(165.502983 399.078438) scale(0.1 -0.1)">
       <defs>
        <path id="DejaVuSans-32" d="M 1228 531 
L 3431 531 
L 3431 0 
L 469 0 
L 469 531 
Q 828 903 1448 1529 
Q 2069 2156 2228 2338 
Q 2531 2678 2651 2914 
Q 2772 3150 2772 3378 
Q 2772 3750 2511 3984 
Q 2250 4219 1831 4219 
Q 1534 4219 1204 4116 
Q 875 4013 500 3803 
L 500 4441 
Q 881 4594 1212 4672 
Q 1544 4750 1819 4750 
Q 2544 4750 2975 4387 
Q 3406 4025 3406 3419 
Q 3406 3131 3298 2873 
Q 3191 2616 2906 2266 
Q 2828 2175 2409 1742 
Q 1991 1309 1228 531 
z
" transform="scale(0.015625)"/>
       </defs>
       <use xlink:href="#DejaVuSans-30"/>
       <use xlink:href="#DejaVuSans-2e" x="63.623047"/>
       <use xlink:href="#DejaVuSans-32" x="95.410156"/>
      </g>
     </g>
    </g>
    <g id="xtick_3">
     <g id="line2d_3">
      <g>
       <use xlink:href="#m39d1aa76f1" x="254.618182" y="384.48" style="stroke: #000000; stroke-width: 0.8"/>
      </g>
     </g>
     <g id="text_3">
      <!-- 0.4 -->
      <g transform="translate(246.666619 399.078438) scale(0.1 -0.1)">
       <defs>
        <path id="DejaVuSans-34" d="M 2419 4116 
L 825 1625 
L 2419 1625 
L 2419 4116 
z
M 2253 4666 
L 3047 4666 
L 3047 1625 
L 3713 1625 
L 3713 1100 
L 3047 1100 
L 3047 0 
L 2419 0 
L 2419 1100 
L 313 1100 
L 313 1709 
L 2253 4666 
z
" transform="scale(0.015625)"/>
       </defs>
       <use xlink:href="#DejaVuSans-30"/>
       <use xlink:href="#DejaVuSans-2e" x="63.623047"/>
       <use xlink:href="#DejaVuSans-34" x="95.410156"/>
      </g>
     </g>
    </g>
    <g id="xtick_4">
     <g id="line2d_4">
      <g>
       <use xlink:href="#m39d1aa76f1" x="335.781818" y="384.48" style="stroke: #000000; stroke-width: 0.8"/>
      </g>
     </g>
     <g id="text_4">
      <!-- 0.6 -->
      <g transform="translate(327.830256 399.078438) scale(0.1 -0.1)">
       <defs>
        <path id="DejaVuSans-36" d="M 2113 2584 
Q 1688 2584 1439 2293 
Q 1191 2003 1191 1497 
Q 1191 994 1439 701 
Q 1688 409 2113 409 
Q 2538 409 2786 701 
Q 3034 994 3034 1497 
Q 3034 2003 2786 2293 
Q 2538 2584 2113 2584 
z
M 3366 4563 
L 3366 3988 
Q 3128 4100 2886 4159 
Q 2644 4219 2406 4219 
Q 1781 4219 1451 3797 
Q 1122 3375 1075 2522 
Q 1259 2794 1537 2939 
Q 1816 3084 2150 3084 
Q 2853 3084 3261 2657 
Q 3669 2231 3669 1497 
Q 3669 778 3244 343 
Q 2819 -91 2113 -91 
Q 1303 -91 875 529 
Q 447 1150 447 2328 
Q 447 3434 972 4092 
Q 1497 4750 2381 4750 
Q 2619 4750 2861 4703 
Q 3103 4656 3366 4563 
z
" transform="scale(0.015625)"/>
       </defs>
       <use xlink:href="#DejaVuSans-30"/>
       <use xlink:href="#DejaVuSans-2e" x="63.623047"/>
       <use xlink:href="#DejaVuSans-36" x="95.410156"/>
      </g>
     </g>
    </g>
    <g id="xtick_5">
     <g id="line2d_5">
      <g>
       <use xlink:href="#m39d1aa76f1" x="416.945455" y="384.48" style="stroke: #000000; stroke-width: 0.8"/>
      </g>
     </g>
     <g id="text_5">
      <!-- 0.8 -->
      <g transform="translate(408.993892 399.078438) scale(0.1 -0.1)">
       <defs>
        <path id="DejaVuSans-38" d="M 2034 2216 
Q 1584 2216 1326 1975 
Q 1069 1734 1069 1313 
Q 1069 891 1326 650 
Q 1584 409 2034 409 
Q 2484 409 2743 651 
Q 3003 894 3003 1313 
Q 3003 1734 2745 1975 
Q 2488 2216 2034 2216 
z
M 1403 2484 
Q 997 2584 770 2862 
Q 544 3141 544 3541 
Q 544 4100 942 4425 
Q 1341 4750 2034 4750 
Q 2731 4750 3128 4425 
Q 3525 4100 3525 3541 
Q 3525 3141 3298 2862 
Q 3072 2584 2669 2484 
Q 3125 2378 3379 2068 
Q 3634 1759 3634 1313 
Q 3634 634 3220 271 
Q 2806 -91 2034 -91 
Q 1263 -91 848 271 
Q 434 634 434 1313 
Q 434 1759 690 2068 
Q 947 2378 1403 2484 
z
M 1172 3481 
Q 1172 3119 1398 2916 
Q 1625 2713 2034 2713 
Q 2441 2713 2670 2916 
Q 2900 3119 2900 3481 
Q 2900 3844 2670 4047 
Q 2441 4250 2034 4250 
Q 1625 4250 1398 4047 
Q 1172 3844 1172 3481 
z
" transform="scale(0.015625)"/>
       </defs>
       <use xlink:href="#DejaVuSans-30"/>
       <use xlink:href="#DejaVuSans-2e" x="63.623047"/>
       <use xlink:href="#DejaVuSans-38" x="95.410156"/>
      </g>
     </g>
    </g>
    <g id="xtick_6">
     <g id="line2d_6">
      <g>
       <use xlink:href="#m39d1aa76f1" x="498.109091" y="384.48" style="stroke: #000000; stroke-width: 0.8"/>
      </g>
     </g>
     <g id="text_6">
      <!-- 1.0 -->
      <g transform="translate(490.157528 399.078438) scale(0.1 -0.1)">
       <defs>
        <path id="DejaVuSans-31" d="M 794 531 
L 1825 531 
L 1825 4091 
L 703 3866 
L 703 4441 
L 1819 4666 
L 2450 4666 
L 2450 531 
L 3481 531 
L 3481 0 
L 794 0 
L 794 531 
z
" transform="scale(0.015625)"/>
       </defs>
       <use xlink:href="#DejaVuSans-31"/>
       <use xlink:href="#DejaVuSans-2e" x="63.623047"/>
       <use xlink:href="#DejaVuSans-30" x="95.410156"/>
      </g>
     </g>
    </g>
   </g>
   <g id="matplotlib.axis_2">
    <g id="ytick_1">
     <g id="line2d_7">
      <defs>
       <path id="mc24216502d" d="M 0 0 
L -3.5 0 
" style="stroke: #000000; stroke-width: 0.8"/>
      </defs>
      <g>
       <use xlink:href="#mc24216502d" x="72" y="369.36" style="stroke: #000000; stroke-width: 0.8"/>
      </g>
     </g>
     <g id="text_7">
      <!-- −5.0 -->
      <g transform="translate(40.717187 373.159219) scale(0.1 -0.1)">
       <defs>
        <path id="DejaVuSans-2212" d="M 678 2272 
L 4684 2272 
L 4684 1741 
L 678 1741 
L 678 2272 
z
" transform="scale(0.015625)"/>
        <path id="DejaVuSans-35" d="M 691 4666 
L 3169 4666 
L 3169 4134 
L 1269 4134 
L 1269 2991 
Q 1406 3038 1543 3061 
Q 1681 3084 1819 3084 
Q 2600 3084 3056 2656 
Q 3513 2228 3513 1497 
Q 3513 744 3044 326 
Q 2575 -91 1722 -91 
Q 1428 -91 1123 -41 
Q 819 9 494 109 
L 494 744 
Q 775 591 1075 516 
Q 1375 441 1709 441 
Q 2250 441 2565 725 
Q 2881 1009 2881 1497 
Q 2881 1984 2565 2268 
Q 2250 2553 1709 2553 
Q 1456 2553 1204 2497 
Q 953 2441 691 2322 
L 691 4666 
z
" transform="scale(0.015625)"/>
       </defs>
       <use xlink:href="#DejaVuSans-2212"/>
       <use xlink:href="#DejaVuSans-35" x="83.789062"/>
       <use xlink:href="#DejaVuSans-2e" x="147.412109"/>
       <use xlink:href="#DejaVuSans-30" x="179.199219"/>
      </g>
     </g>
    </g>
    <g id="ytick_2">
     <g id="line2d_8">
      <g>
       <use xlink:href="#mc24216502d" x="72" y="331.56" style="stroke: #000000; stroke-width: 0.8"/>
      </g>
     </g>
     <g id="text_8">
      <!-- −2.5 -->
      <g transform="translate(40.717187 335.359219) scale(0.1 -0.1)">
       <use xlink:href="#DejaVuSans-2212"/>
       <use xlink:href="#DejaVuSans-32" x="83.789062"/>
       <use xlink:href="#DejaVuSans-2e" x="147.412109"/>
       <use xlink:href="#DejaVuSans-35" x="179.199219"/>
      </g>
     </g>
    </g>
    <g id="ytick_3">
     <g id="line2d_9">
      <g>
       <use xlink:href="#mc24216502d" x="72" y="293.76" style="stroke: #000000; stroke-width: 0.8"/>
      </g>
     </g>
     <g id="text_9">
      <!-- 0.0 -->
      <g transform="translate(49.096875 297.559219) scale(0.1 -0.1)">
       <use xlink:href="#DejaVuSans-30"/>
       <use xlink:href="#DejaVuSans-2e" x="63.623047"/>
       <use xlink:href="#DejaVuSans-30" x="95.410156"/>
      </g>
     </g>
    </g>
    <g id="ytick_4">
     <g id="line2d_10">
      <g>
       <use xlink:href="#mc24216502d" x="72" y="255.96" style="stroke: #000000; stroke-width: 0.8"/>
      </g>
     </g>
     <g id="text_10">
      <!-- 2.5 -->
      <g transform="translate(49.096875 259.759219) scale(0.1 -0.1)">
       <use xlink:href="#DejaVuSans-32"/>
       <use xlink:href="#DejaVuSans-2e" x="63.623047"/>
       <use xlink:href="#DejaVuSans-35" x="95.410156"/>
      </g>
     </g>
    </g>
    <g id="ytick_5">
     <g id="line2d_11">
      <g>
       <use xlink:href="#mc24216502d" x="72" y="218.16" style="stroke: #000000; stroke-width: 0.8"/>
      </g>
     </g>
     <g id="text_11">
      <!-- 5.0 -->
      <g transform="translate(49.096875 221.959219) scale(0.1 -0.1)">
       <use xlink:href="#DejaVuSans-35"/>
       <use xlink:href="#DejaVuSans-2e" x="63.623047"/>
       <use xlink:href="#DejaVuSans-30" x="95.410156"/>
      </g>
     </g>
    </g>
    <g id="ytick_6">
     <g id="line2d_12">
      <g>
       <use xlink:href="#mc24216502d" x="72" y="180.36" style="stroke: #000000; stroke-width: 0.8"/>
      </g>
     </g>
     <g id="text_12">
      <!-- 7.5 -->
      <g transform="translate(49.096875 184.159219) scale(0.1 -0.1)">
       <defs>
        <path id="DejaVuSans-37" d="M 525 4666 
L 3525 4666 
L 3525 4397 
L 1831 0 
L 1172 0 
L 2766 4134 
L 525 4134 
L 525 4666 
z
" transform="scale(0.015625)"/>
       </defs>
       <use xlink:href="#DejaVuSans-37"/>
       <use xlink:href="#DejaVuSans-2e" x="63.623047"/>
       <use xlink:href="#DejaVuSans-35" x="95.410156"/>
      </g>
     </g>
    </g>
    <g id="ytick_7">
     <g id="line2d_13">
      <g>
       <use xlink:href="#mc24216502d" x="72" y="142.56" style="stroke: #000000; stroke-width: 0.8"/>
      </g>
     </g>
     <g id="text_13">
      <!-- 10.0 -->
      <g transform="translate(42.734375 146.359219) scale(0.1 -0.1)">
       <use xlink:href="#DejaVuSans-31"/>
       <use xlink:href="#DejaVuSans-30" x="63.623047"/>
       <use xlink:href="#DejaVuSans-2e" x="127.246094"/>
       <use xlink:href="#DejaVuSans-30" x="159.033203"/>
      </g>
     </g>
    </g>
    <g id="ytick_8">
     <g id="line2d_14">
      <g>
       <use xlink:href="#mc24216502d" x="72" y="104.76" style="stroke: #000000; stroke-width: 0.8"/>
      </g>
     </g>
     <g id="text_14">
      <!-- 12.5 -->
      <g transform="translate(42.734375 108.559219) scale(0.1 -0.1)">
       <use xlink:href="#DejaVuSans-31"/>
       <use xlink:href="#DejaVuSans-32" x="63.623047"/>
       <use xlink:href="#DejaVuSans-2e" x="127.246094"/>
       <use xlink:href="#DejaVuSans-35" x="159.033203"/>
      </g>
     </g>
    </g>
    <g id="ytick_9">
     <g id="line2d_15">
      <g>
       <use xlink:href="#mc24216502d" x="72" y="66.96" style="stroke: #000000; stroke-width: 0.8"/>
      </g>
     </g>
     <g id="text_15">
      <!-- 15.0 -->
      <g transform="translate(42.734375 70.759219) scale(0.1 -0.1)">
       <use xlink:href="#DejaVuSans-31"/>
       <use xlink:href="#DejaVuSans-35" x="63.623047"/>
       <use xlink:href="#DejaVuSans-2e" x="127.246094"/>
       <use xlink:href="#DejaVuSans-30" x="159.033203"/>
      </g>
     </g>
    </g>
   </g>
   <g id="line2d_16">
    <path d="M 92.290909 358.029072 
L 96.349091 358.023024 
L 100.407273 358.007904 
L 104.465455 357.980688 
L 108.523636 357.9444 
L 112.581818 357.896016 
L 116.64 357.83856 
L 120.698182 357.769008 
L 124.756364 357.690384 
L 128.814545 357.599664 
L 132.872727 357.499872 
L 136.930909 357.389496 
L 140.989091 357.268536 
L 145.047273 357.136992 
L 149.105455 356.994864 
L 153.163636 356.843664 
L 157.221818 356.68188 
L 161.28 356.509512 
L 165.338182 356.328072 
L 169.396364 356.136048 
L 173.454545 355.93344 
L 177.512727 355.72176 
L 181.570909 355.501008 
L 185.629091 355.271184 
L 189.687273 355.030776 
L 193.745455 354.781296 
L 197.803636 354.521232 
L 201.861818 354.253608 
L 205.92 353.976912 
L 209.978182 353.691144 
L 214.036364 353.397816 
L 218.094545 353.093904 
L 222.152727 352.783944 
L 226.210909 352.4634 
L 230.269091 352.136808 
L 234.327273 351.801144 
L 238.385455 351.459432 
L 242.443636 351.108648 
L 246.501818 350.751816 
L 250.56 350.388936 
L 254.618182 350.018496 
L 258.676364 349.642008 
L 262.734545 349.25796 
L 266.792727 348.870888 
L 270.850909 348.476256 
L 274.909091 348.077088 
L 278.967273 347.674896 
L 283.025455 347.266656 
L 287.083636 346.855392 
L 291.141818 346.439592 
L 295.2 346.020768 
L 299.258182 345.600432 
L 303.316364 345.177072 
L 307.374545 344.7522 
L 311.432727 344.327328 
L 315.490909 343.900944 
L 319.549091 343.47456 
L 323.607273 343.048176 
L 327.665455 342.623304 
L 331.723636 342.199944 
L 335.781818 341.779608 
L 339.84 341.362296 
L 343.898182 340.94952 
L 347.956364 340.539768 
L 352.014545 340.136064 
L 356.072727 339.736896 
L 360.130909 339.345288 
L 364.189091 338.959728 
L 368.247273 338.58324 
L 372.305455 338.214312 
L 376.363636 337.855968 
L 380.421818 337.506696 
L 384.48 337.168008 
L 388.538182 336.839904 
L 392.596364 336.522384 
L 396.654545 336.218472 
L 400.712727 335.925144 
L 404.770909 335.645424 
L 408.829091 335.379312 
L 412.887273 335.125296 
L 416.945455 334.884888 
L 421.003636 334.658088 
L 425.061818 334.443384 
L 429.12 334.2438 
L 433.178182 334.056312 
L 437.236364 333.882432 
L 441.294545 333.72216 
L 445.352727 333.573984 
L 449.410909 333.437904 
L 453.469091 333.31392 
L 457.527273 333.203544 
L 461.585455 333.103752 
L 465.643636 333.014544 
L 469.701818 332.937432 
L 473.76 332.870904 
L 477.818182 332.81496 
L 481.876364 332.7696 
L 485.934545 332.734824 
L 489.992727 332.710632 
L 494.050909 332.695512 
L 498.109091 332.689464 
" clip-path="url(#p28b1a96dcc)" style="fill: none; stroke: #000000; stroke-opacity: 0.5; stroke-linecap: square"/>
   </g>
   <g id="line2d_17">
    <path d="M 92.290909 272.20644 
L 96.349091 272.232144 
L 100.407273 272.309256 
L 104.465455 272.437776 
L 108.523636 272.616192 
L 112.581818 272.84148 
L 116.64 273.110616 
L 120.698182 273.425112 
L 124.756364 273.777408 
L 128.814545 274.169016 
L 132.872727 274.593888 
L 136.930909 275.050512 
L 140.989091 275.534352 
L 145.047273 276.045408 
L 149.105455 276.579144 
L 153.163636 277.134048 
L 157.221818 277.705584 
L 161.28 278.293752 
L 165.338182 278.895528 
L 169.396364 279.5094 
L 173.454545 280.133856 
L 177.512727 280.765872 
L 181.570909 281.403936 
L 185.629091 282.048048 
L 189.687273 282.696696 
L 193.745455 283.346856 
L 197.803636 284.00004 
L 201.861818 284.653224 
L 205.92 285.304896 
L 209.978182 285.956568 
L 214.036364 286.605216 
L 218.094545 287.25084 
L 222.152727 287.891928 
L 226.210909 288.529992 
L 230.269091 289.162008 
L 234.327273 289.787976 
L 238.385455 290.407896 
L 242.443636 291.020256 
L 246.501818 291.625056 
L 250.56 292.222296 
L 254.618182 292.810464 
L 258.676364 293.38956 
L 262.734545 293.959584 
L 266.792727 294.519024 
L 270.850909 295.06788 
L 274.909091 295.606152 
L 278.967273 296.132328 
L 283.025455 296.64792 
L 287.083636 297.149904 
L 291.141818 297.641304 
L 295.2 298.119096 
L 299.258182 298.58328 
L 303.316364 299.033856 
L 307.374545 299.469312 
L 311.432727 299.89116 
L 315.490909 300.2994 
L 319.549091 300.691008 
L 323.607273 301.067496 
L 327.665455 301.427352 
L 331.723636 301.772088 
L 335.781818 302.100192 
L 339.84 302.410152 
L 343.898182 302.70348 
L 347.956364 302.980176 
L 352.014545 303.238728 
L 356.072727 303.479136 
L 360.130909 303.7014 
L 364.189091 303.90552 
L 368.247273 304.089984 
L 372.305455 304.257816 
L 376.363636 304.405992 
L 380.421818 304.536024 
L 384.48 304.647912 
L 388.538182 304.743168 
L 392.596364 304.818768 
L 396.654545 304.877736 
L 400.712727 304.921584 
L 404.770909 304.947288 
L 408.829091 304.959384 
L 412.887273 304.95636 
L 416.945455 304.939728 
L 421.003636 304.911 
L 425.061818 304.870176 
L 429.12 304.82028 
L 433.178182 304.762824 
L 437.236364 304.696296 
L 441.294545 304.625232 
L 445.352727 304.549632 
L 449.410909 304.47252 
L 453.469091 304.393896 
L 457.527273 304.315272 
L 461.585455 304.239672 
L 465.643636 304.165584 
L 469.701818 304.099056 
L 473.76 304.037064 
L 477.818182 303.982632 
L 481.876364 303.937272 
L 485.934545 303.900984 
L 489.992727 303.873768 
L 494.050909 303.858648 
L 498.109091 303.8526 
" clip-path="url(#p28b1a96dcc)" style="fill: none; stroke: #000000; stroke-opacity: 0.5; stroke-linecap: square"/>
   </g>
   <g id="line2d_18">
    <path d="M 92.290909 243.133704 
L 96.349091 243.118584 
L 100.407273 243.073224 
L 104.465455 243.000648 
L 108.523636 242.900856 
L 112.581818 242.776872 
L 116.64 242.633232 
L 120.698182 242.471448 
L 124.756364 242.297568 
L 128.814545 242.116128 
L 132.872727 241.931664 
L 136.930909 241.748712 
L 140.989091 241.574832 
L 145.047273 241.413048 
L 149.105455 241.27092 
L 153.163636 241.152984 
L 157.221818 241.062264 
L 161.28 241.004808 
L 165.338182 240.982128 
L 169.396364 240.995736 
L 173.454545 241.047144 
L 177.512727 241.13484 
L 181.570909 241.258824 
L 185.629091 241.416072 
L 189.687273 241.606584 
L 193.745455 241.825824 
L 197.803636 242.07228 
L 201.861818 242.342928 
L 205.92 242.637768 
L 209.978182 242.952264 
L 214.036364 243.284904 
L 218.094545 243.634176 
L 222.152727 243.998568 
L 226.210909 244.376568 
L 230.269091 244.766664 
L 234.327273 245.167344 
L 238.385455 245.577096 
L 242.443636 245.994408 
L 246.501818 246.41928 
L 250.56 246.848688 
L 254.618182 247.284144 
L 258.676364 247.722624 
L 262.734545 248.164128 
L 266.792727 248.607144 
L 270.850909 249.051672 
L 274.909091 249.4962 
L 278.967273 249.940728 
L 283.025455 250.385256 
L 287.083636 250.82676 
L 291.141818 251.266752 
L 295.2 251.70372 
L 299.258182 252.137664 
L 303.316364 252.568584 
L 307.374545 252.993456 
L 311.432727 253.415304 
L 315.490909 253.831104 
L 319.549091 254.240856 
L 323.607273 254.64456 
L 327.665455 255.043728 
L 331.723636 255.433824 
L 335.781818 255.817872 
L 339.84 256.19436 
L 343.898182 256.563288 
L 347.956364 256.924656 
L 352.014545 257.276952 
L 356.072727 257.621688 
L 360.130909 257.95584 
L 364.189091 258.282432 
L 368.247273 258.599952 
L 372.305455 258.906888 
L 376.363636 259.204752 
L 380.421818 259.492032 
L 384.48 259.77024 
L 388.538182 260.037864 
L 392.596364 260.294904 
L 396.654545 260.54136 
L 400.712727 260.77572 
L 404.770909 261.001008 
L 408.829091 261.2142 
L 412.887273 261.41832 
L 416.945455 261.608832 
L 421.003636 261.790272 
L 425.061818 261.958104 
L 429.12 262.116864 
L 433.178182 262.263528 
L 437.236364 262.399608 
L 441.294545 262.525104 
L 445.352727 262.638504 
L 449.410909 262.742832 
L 453.469091 262.836576 
L 457.527273 262.919736 
L 461.585455 262.993824 
L 465.643636 263.05884 
L 469.701818 263.113272 
L 473.76 263.161656 
L 477.818182 263.199456 
L 481.876364 263.231208 
L 485.934545 263.2554 
L 489.992727 263.272032 
L 494.050909 263.282616 
L 498.109091 263.28564 
" clip-path="url(#p28b1a96dcc)" style="fill: none; stroke: #000000; stroke-opacity: 0.5; stroke-linecap: square"/>
   </g>
   <g id="line2d_19">
    <path d="M 92.290909 233.75628 
L 96.349091 233.75628 
L 100.407273 233.760816 
L 104.465455 233.766864 
L 108.523636 233.774424 
L 112.581818 233.783496 
L 116.64 233.792568 
L 120.698182 233.800128 
L 124.756364 233.806176 
L 128.814545 233.8092 
L 132.872727 233.806176 
L 136.930909 233.795592 
L 140.989091 233.774424 
L 145.047273 233.74116 
L 149.105455 233.692776 
L 153.163636 233.624736 
L 157.221818 233.53704 
L 161.28 233.426664 
L 165.338182 233.293608 
L 169.396364 233.13636 
L 173.454545 232.957944 
L 177.512727 232.756848 
L 181.570909 232.537608 
L 185.629091 232.300224 
L 189.687273 232.050744 
L 193.745455 231.789168 
L 197.803636 231.517008 
L 201.861818 231.240312 
L 205.92 230.95908 
L 209.978182 230.674824 
L 214.036364 230.39208 
L 218.094545 230.109336 
L 222.152727 229.831128 
L 226.210909 229.557456 
L 230.269091 229.289832 
L 234.327273 229.028256 
L 238.385455 228.777264 
L 242.443636 228.536856 
L 246.501818 228.307032 
L 250.56 228.090816 
L 254.618182 227.88972 
L 258.676364 227.703744 
L 262.734545 227.535912 
L 266.792727 227.386224 
L 270.850909 227.257704 
L 274.909091 227.150352 
L 278.967273 227.067192 
L 283.025455 227.009736 
L 287.083636 226.977984 
L 291.141818 226.97496 
L 295.2 227.002176 
L 299.258182 227.061144 
L 303.316364 227.151864 
L 307.374545 227.27736 
L 311.432727 227.43612 
L 315.490909 227.631168 
L 319.549091 227.860992 
L 323.607273 228.128616 
L 327.665455 228.431016 
L 331.723636 228.771216 
L 335.781818 229.14468 
L 339.84 229.554432 
L 343.898182 229.997448 
L 347.956364 230.472216 
L 352.014545 230.977224 
L 356.072727 231.51096 
L 360.130909 232.071912 
L 364.189091 232.657056 
L 368.247273 233.26488 
L 372.305455 233.890848 
L 376.363636 234.53496 
L 380.421818 235.194192 
L 384.48 235.864008 
L 388.538182 236.544408 
L 392.596364 237.230856 
L 396.654545 237.92184 
L 400.712727 238.612824 
L 404.770909 239.303808 
L 408.829091 239.991768 
L 412.887273 240.672168 
L 416.945455 241.345008 
L 421.003636 242.00424 
L 425.061818 242.651376 
L 429.12 243.28188 
L 433.178182 243.892728 
L 437.236364 244.48392 
L 441.294545 245.05092 
L 445.352727 245.590704 
L 449.410909 246.103272 
L 453.469091 246.5856 
L 457.527273 247.034664 
L 461.585455 247.448952 
L 465.643636 247.82544 
L 469.701818 248.162616 
L 473.76 248.46048 
L 477.818182 248.714496 
L 481.876364 248.924664 
L 485.934545 249.089472 
L 489.992727 249.207408 
L 494.050909 249.279984 
L 498.109091 249.302664 
" clip-path="url(#p28b1a96dcc)" style="fill: none; stroke: #000000; stroke-opacity: 0.5; stroke-linecap: square"/>
   </g>
   <g id="line2d_20">
    <path d="M 92.290909 178.525944 
L 96.349091 178.528968 
L 100.407273 178.539552 
L 104.465455 178.556184 
L 108.523636 178.577352 
L 112.581818 178.597008 
L 116.64 178.61364 
L 120.698182 178.624224 
L 124.756364 178.622712 
L 128.814545 178.604568 
L 132.872727 178.56828 
L 136.930909 178.5078 
L 140.989091 178.421616 
L 145.047273 178.30368 
L 149.105455 178.153992 
L 153.163636 177.968016 
L 157.221818 177.74424 
L 161.28 177.47964 
L 165.338182 177.175728 
L 169.396364 176.827968 
L 173.454545 176.437872 
L 177.512727 176.003928 
L 181.570909 175.526136 
L 185.629091 175.004496 
L 189.687273 174.44052 
L 193.745455 173.831184 
L 197.803636 173.181024 
L 201.861818 172.49004 
L 205.92 171.759744 
L 209.978182 170.990136 
L 214.036364 170.18424 
L 218.094545 169.34508 
L 222.152727 168.474168 
L 226.210909 167.57604 
L 230.269091 166.655232 
L 234.327273 165.719304 
L 238.385455 164.77884 
L 242.443636 163.851984 
L 246.501818 162.970488 
L 250.56 162.191808 
L 254.618182 161.615736 
L 258.676364 161.378352 
L 262.734545 161.549208 
L 266.792727 162.04968 
L 270.850909 162.742176 
L 274.909091 163.526904 
L 278.967273 164.349432 
L 283.025455 165.174984 
L 287.083636 165.986928 
L 291.141818 166.773168 
L 295.2 167.526144 
L 299.258182 168.239808 
L 303.316364 168.908112 
L 307.374545 169.531056 
L 311.432727 170.10108 
L 315.490909 170.621208 
L 319.549091 171.085392 
L 323.607273 171.493632 
L 327.665455 171.844416 
L 331.723636 172.137744 
L 335.781818 172.373616 
L 339.84 172.552032 
L 343.898182 172.67148 
L 347.956364 172.734984 
L 352.014545 172.741032 
L 356.072727 172.691136 
L 360.130909 172.58832 
L 364.189091 172.432584 
L 368.247273 172.22544 
L 372.305455 171.969912 
L 376.363636 171.664488 
L 380.421818 171.315216 
L 384.48 170.919072 
L 388.538182 170.482104 
L 392.596364 170.004312 
L 396.654545 169.485696 
L 400.712727 168.930792 
L 404.770909 168.3396 
L 408.829091 167.713632 
L 412.887273 167.055912 
L 416.945455 166.36644 
L 421.003636 165.646728 
L 425.061818 164.898288 
L 429.12 164.124144 
L 433.178182 163.322784 
L 437.236364 162.498744 
L 441.294545 161.650512 
L 445.352727 160.782624 
L 449.410909 159.893568 
L 453.469091 158.98788 
L 457.527273 158.067072 
L 461.585455 157.131144 
L 465.643636 156.186144 
L 469.701818 155.235096 
L 473.76 154.284048 
L 477.818182 153.342072 
L 481.876364 152.422776 
L 485.934545 151.551864 
L 489.992727 150.77772 
L 494.050909 150.197112 
L 498.109091 149.970312 
" clip-path="url(#p28b1a96dcc)" style="fill: none; stroke: #000000; stroke-opacity: 0.5; stroke-linecap: square"/>
   </g>
   <g id="line2d_21">
    <path d="M 92.290909 157.487976 
L 96.349091 157.444128 
L 100.407273 157.314096 
L 104.465455 157.09788 
L 108.523636 156.796992 
L 112.581818 156.41748 
L 116.64 155.960856 
L 120.698182 155.431656 
L 124.756364 154.832904 
L 128.814545 154.170648 
L 132.872727 153.4464 
L 136.930909 152.666208 
L 140.989091 151.831584 
L 145.047273 150.948576 
L 149.105455 150.020208 
L 153.163636 149.047992 
L 157.221818 148.034952 
L 161.28 146.985624 
L 165.338182 145.90152 
L 169.396364 144.785664 
L 173.454545 143.642592 
L 177.512727 142.475328 
L 181.570909 141.295968 
L 185.629091 140.124168 
L 189.687273 139.056696 
L 193.745455 138.657528 
L 197.803636 139.455864 
L 201.861818 140.60952 
L 205.92 141.840288 
L 209.978182 143.095248 
L 214.036364 144.35928 
L 218.094545 145.620288 
L 222.152727 146.872224 
L 226.210909 148.10904 
L 230.269091 149.323176 
L 234.327273 150.50556 
L 238.385455 151.644096 
L 242.443636 152.72064 
L 246.501818 153.701928 
L 250.56 154.52748 
L 254.618182 155.099016 
L 258.676364 155.277432 
L 262.734545 154.993176 
L 266.792727 154.324872 
L 270.850909 153.407088 
L 274.909091 152.338104 
L 278.967273 151.173864 
L 283.025455 149.94612 
L 287.083636 148.669992 
L 291.141818 147.357576 
L 295.2 146.017944 
L 299.258182 144.65412 
L 303.316364 143.273664 
L 307.374545 141.881112 
L 311.432727 140.487048 
L 315.490909 139.103568 
L 319.549091 137.765448 
L 323.607273 136.55736 
L 327.665455 135.686448 
L 331.723636 135.334152 
L 335.781818 135.334152 
L 339.84 135.482328 
L 343.898182 135.689472 
L 347.956364 135.92232 
L 352.014545 136.168776 
L 356.072727 136.42128 
L 360.130909 136.676808 
L 364.189091 136.932336 
L 368.247273 137.186352 
L 372.305455 137.438856 
L 376.363636 137.686824 
L 380.421818 137.931768 
L 384.48 138.172176 
L 388.538182 138.408048 
L 392.596364 138.639384 
L 396.654545 138.864672 
L 400.712727 139.085424 
L 404.770909 139.300128 
L 408.829091 139.510296 
L 412.887273 139.714416 
L 416.945455 139.914 
L 421.003636 140.109048 
L 425.061818 140.29956 
L 429.12 140.485536 
L 433.178182 140.668488 
L 437.236364 140.85144 
L 441.294545 141.03288 
L 445.352727 141.217344 
L 449.410909 141.406344 
L 453.469091 141.605928 
L 457.527273 141.820632 
L 461.585455 142.06104 
L 465.643636 142.334712 
L 469.701818 142.656768 
L 473.76 143.042328 
L 477.818182 143.498952 
L 481.876364 144.029664 
L 485.934545 144.610272 
L 489.992727 145.187856 
L 494.050909 145.656576 
L 498.109091 145.847088 
" clip-path="url(#p28b1a96dcc)" style="fill: none; stroke: #000000; stroke-opacity: 0.5; stroke-linecap: square"/>
   </g>
   <g id="line2d_22">
    <path d="M 92.290909 125.959752 
L 96.349091 125.9658 
L 100.407273 125.985456 
L 104.465455 126.017208 
L 108.523636 126.062568 
L 112.581818 126.12456 
L 116.64 126.201672 
L 120.698182 126.296928 
L 124.756364 126.413352 
L 128.814545 126.553968 
L 132.872727 126.724824 
L 136.930909 126.930456 
L 140.989091 127.179936 
L 145.047273 127.482336 
L 149.105455 127.851264 
L 153.163636 128.298816 
L 157.221818 128.840112 
L 161.28 129.485736 
L 165.338182 130.240224 
L 169.396364 131.100552 
L 173.454545 132.0516 
L 177.512727 133.081272 
L 181.570909 134.162352 
L 185.629091 135.263088 
L 189.687273 136.274616 
L 193.745455 136.626912 
L 197.803636 135.784728 
L 201.861818 134.585712 
L 205.92 133.312608 
L 209.978182 132.02136 
L 214.036364 130.754304 
L 218.094545 129.582504 
L 222.152727 128.65716 
L 226.210909 128.155176 
L 230.269091 128.023632 
L 234.327273 128.078064 
L 238.385455 128.21868 
L 242.443636 128.403144 
L 246.501818 128.6118 
L 250.56 128.8386 
L 254.618182 129.075984 
L 258.676364 129.32244 
L 262.734545 129.574944 
L 266.792727 129.835008 
L 270.850909 130.099608 
L 274.909091 130.368744 
L 278.967273 130.640904 
L 283.025455 130.916088 
L 287.083636 131.192784 
L 291.141818 131.46948 
L 295.2 131.746176 
L 299.258182 132.02136 
L 303.316364 132.290496 
L 307.374545 132.552072 
L 311.432727 132.798528 
L 315.490909 133.014744 
L 319.549091 133.171992 
L 323.607273 133.182576 
L 327.665455 132.842376 
L 331.723636 131.96844 
L 335.781818 130.730112 
L 339.84 129.331512 
L 343.898182 127.861848 
L 347.956364 126.354384 
L 352.014545 124.822728 
L 356.072727 123.27444 
L 360.130909 121.714056 
L 364.189091 120.1446 
L 368.247273 118.569096 
L 372.305455 116.987544 
L 376.363636 115.40448 
L 380.421818 113.825952 
L 384.48 112.262544 
L 388.538182 110.79288 
L 392.596364 110.544912 
L 396.654545 111.852792 
L 400.712727 113.293728 
L 404.770909 114.745248 
L 408.829091 116.193744 
L 412.887273 117.630144 
L 416.945455 119.05596 
L 421.003636 120.466656 
L 425.061818 121.862232 
L 429.12 123.241176 
L 433.178182 124.598952 
L 437.236364 125.937072 
L 441.294545 127.249488 
L 445.352727 128.5362 
L 449.410909 129.789648 
L 453.469091 131.005296 
L 457.527273 132.175584 
L 461.585455 133.29144 
L 465.643636 134.336232 
L 469.701818 135.293328 
L 473.76 136.146096 
L 477.818182 136.871856 
L 481.876364 137.458512 
L 485.934545 137.90304 
L 489.992727 138.208464 
L 494.050909 138.385368 
L 498.109091 138.444336 
" clip-path="url(#p28b1a96dcc)" style="fill: none; stroke: #000000; stroke-opacity: 0.5; stroke-linecap: square"/>
   </g>
   <g id="line2d_23">
    <path d="M 92.290909 109.534896 
L 96.349091 109.60596 
L 100.407273 109.813104 
L 104.465455 110.153304 
L 108.523636 110.617488 
L 112.581818 111.19356 
L 116.64 111.869424 
L 120.698182 112.62996 
L 124.756364 113.46156 
L 128.814545 114.350616 
L 132.872727 115.282008 
L 136.930909 116.240616 
L 140.989091 117.209808 
L 145.047273 118.17144 
L 149.105455 119.10888 
L 153.163636 120.002472 
L 157.221818 120.83256 
L 161.28 121.584024 
L 165.338182 122.249304 
L 169.396364 122.825376 
L 173.454545 123.322824 
L 177.512727 123.749208 
L 181.570909 124.119648 
L 185.629091 124.444728 
L 189.687273 124.735032 
L 193.745455 124.996608 
L 197.803636 125.235504 
L 201.861818 125.45172 
L 205.92 125.643744 
L 209.978182 125.804016 
L 214.036364 125.903808 
L 218.094545 125.884152 
L 222.152727 125.59536 
L 226.210909 124.86204 
L 230.269091 123.74316 
L 234.327273 122.42016 
L 238.385455 120.995856 
L 242.443636 119.515608 
L 246.501818 117.996048 
L 250.56 116.449272 
L 254.618182 114.878304 
L 258.676364 113.286168 
L 262.734545 111.675888 
L 266.792727 110.048976 
L 270.850909 108.406944 
L 274.909091 106.74828 
L 278.967273 105.07752 
L 283.025455 103.393152 
L 287.083636 101.696688 
L 291.141818 99.988128 
L 295.2 98.268984 
L 299.258182 96.540768 
L 303.316364 94.804992 
L 307.374545 93.06468 
L 311.432727 91.32588 
L 315.490909 89.600688 
L 319.549091 87.932952 
L 323.607273 86.513184 
L 327.665455 86.269752 
L 331.723636 87.35688 
L 335.781818 88.773624 
L 339.84 90.27504 
L 343.898182 91.805184 
L 347.956364 93.350448 
L 352.014545 94.90176 
L 356.072727 96.454584 
L 360.130909 98.005896 
L 364.189091 99.552672 
L 368.247273 101.096424 
L 372.305455 102.632616 
L 376.363636 104.158224 
L 380.421818 105.671736 
L 384.48 107.158032 
L 388.538182 108.54 
L 392.596364 108.692712 
L 396.654545 107.280504 
L 400.712727 105.72768 
L 404.770909 104.156712 
L 408.829091 102.588768 
L 412.887273 101.028384 
L 416.945455 99.489168 
L 421.003636 97.984728 
L 425.061818 96.552864 
L 429.12 95.288832 
L 433.178182 94.416408 
L 437.236364 94.058064 
L 441.294545 93.996072 
L 445.352727 94.044456 
L 449.410909 94.13064 
L 453.469091 94.22892 
L 457.527273 94.328712 
L 461.585455 94.42548 
L 465.643636 94.514688 
L 469.701818 94.594824 
L 473.76 94.665888 
L 477.818182 94.72788 
L 481.876364 94.777776 
L 485.934545 94.817088 
L 489.992727 94.845816 
L 494.050909 94.862448 
L 498.109091 94.868496 
" clip-path="url(#p28b1a96dcc)" style="fill: none; stroke: #000000; stroke-opacity: 0.5; stroke-linecap: square"/>
   </g>
   <g id="patch_3">
    <path d="M 72 384.48 
L 72 51.84 
" style="fill: none; stroke: #000000; stroke-width: 0.8; stroke-linejoin: miter; stroke-linecap: square"/>
   </g>
   <g id="patch_4">
    <path d="M 518.4 384.48 
L 518.4 51.84 
" style="fill: none; stroke: #000000; stroke-width: 0.8; stroke-linejoin: miter; stroke-linecap: square"/>
   </g>
   <g id="patch_5">
    <path d="M 72 384.48 
L 518.4 384.48 
" style="fill: none; stroke: #000000; stroke-width: 0.8; stroke-linejoin: miter; stroke-linecap: square"/>
   </g>
   <g id="patch_6">
    <path d="M 72 51.84 
L 518.4 51.84 
" style="fill: none; stroke: #000000; stroke-width: 0.8; stroke-linejoin: miter; stroke-linecap: square"/>
   </g>
  </g>
 </g>
 <defs>
  <clipPath id="p28b1a96dcc">
   <rect x="72" y="51.84" width="446.4" height="332.64"/>
  </clipPath>
 </defs>
</svg>
