<?xml version="1.0" encoding="utf-8" standalone="no"?>
<!DOCTYPE svg PUBLIC "-//W3C//DTD SVG 1.1//EN"
  "http://www.w3.org/Graphics/SVG/1.1/DTD/svg11.dtd">
<svg xmlns:xlink="http://www.w3.org/1999/xlink" width="576pt" height="432pt" viewBox="0 0 576 432" xmlns="http://www.w3.org/2000/svg" version="1.1">
 <metadata>
  <rdf:RDF xmlns:dc="http://purl.org/dc/elements/1.1/" xmlns:cc="http://creativecommons.org/ns#" xmlns:rdf="http://www.w3.org/1999/02/22-rdf-syntax-ns#">
   <cc:Work>
    <dc:type rdf:resource="http://purl.org/dc/dcmitype/StillImage"/>
    <dc:date>2023-05-03T21:09:54.139946</dc:date>
    <dc:format>image/svg+xml</dc:format>
    <dc:creator>
     <cc:Agent>
      <dc:title>Matplotlib v3.7.1, https://matplotlib.org/</dc:title>
     </cc:Agent>
    </dc:creator>
   </cc:Work>
  </rdf:RDF>
 </metadata>
 <defs>
  <style type="text/css">*{stroke-linejoin: round; stroke-linecap: butt}</style>
 </defs>
 <g id="figure_1">
  <g id="patch_1">
   <path d="M 0 432 
L 576 432 
L 576 0 
L 0 0 
z
" style="fill: #ffffff"/>
  </g>
  <g id="axes_1">
   <g id="patch_2">
    <path d="M 72 384.48 
L 518.4 384.48 
L 518.4 51.84 
L 72 51.84 
z
" style="fill: #ffffff"/>
   </g>
   <g id="matplotlib.axis_1">
    <g id="xtick_1">
     <g id="line2d_1">
      <defs>
       <path id="mec6d035403" d="M 0 0 
L 0 3.5 
" style="stroke: #000000; stroke-width: 0.8"/>
      </defs>
      <g>
       <use xlink:href="#mec6d035403" x="92.290909" y="384.48" style="stroke: #000000; stroke-width: 0.8"/>
      </g>
     </g>
     <g id="text_1">
      <!-- 0.0 -->
      <g transform="translate(84.339347 399.078438) scale(0.1 -0.1)">
       <defs>
        <path id="DejaVuSans-30" d="M 2034 4250 
Q 1547 4250 1301 3770 
Q 1056 3291 1056 2328 
Q 1056 1369 1301 889 
Q 1547 409 2034 409 
Q 2525 409 2770 889 
Q 3016 1369 3016 2328 
Q 3016 3291 2770 3770 
Q 2525 4250 2034 4250 
z
M 2034 4750 
Q 2819 4750 3233 4129 
Q 3647 3509 3647 2328 
Q 3647 1150 3233 529 
Q 2819 -91 2034 -91 
Q 1250 -91 836 529 
Q 422 1150 422 2328 
Q 422 3509 836 4129 
Q 1250 4750 2034 4750 
z
" transform="scale(0.015625)"/>
        <path id="DejaVuSans-2e" d="M 684 794 
L 1344 794 
L 1344 0 
L 684 0 
L 684 794 
z
" transform="scale(0.015625)"/>
       </defs>
       <use xlink:href="#DejaVuSans-30"/>
       <use xlink:href="#DejaVuSans-2e" x="63.623047"/>
       <use xlink:href="#DejaVuSans-30" x="95.410156"/>
      </g>
     </g>
    </g>
    <g id="xtick_2">
     <g id="line2d_2">
      <g>
       <use xlink:href="#mec6d035403" x="173.454545" y="384.48" style="stroke: #000000; stroke-width: 0.8"/>
      </g>
     </g>
     <g id="text_2">
      <!-- 0.2 -->
      <g transform="translate(165.502983 399.078438) scale(0.1 -0.1)">
       <defs>
        <path id="DejaVuSans-32" d="M 1228 531 
L 3431 531 
L 3431 0 
L 469 0 
L 469 531 
Q 828 903 1448 1529 
Q 2069 2156 2228 2338 
Q 2531 2678 2651 2914 
Q 2772 3150 2772 3378 
Q 2772 3750 2511 3984 
Q 2250 4219 1831 4219 
Q 1534 4219 1204 4116 
Q 875 4013 500 3803 
L 500 4441 
Q 881 4594 1212 4672 
Q 1544 4750 1819 4750 
Q 2544 4750 2975 4387 
Q 3406 4025 3406 3419 
Q 3406 3131 3298 2873 
Q 3191 2616 2906 2266 
Q 2828 2175 2409 1742 
Q 1991 1309 1228 531 
z
" transform="scale(0.015625)"/>
       </defs>
       <use xlink:href="#DejaVuSans-30"/>
       <use xlink:href="#DejaVuSans-2e" x="63.623047"/>
       <use xlink:href="#DejaVuSans-32" x="95.410156"/>
      </g>
     </g>
    </g>
    <g id="xtick_3">
     <g id="line2d_3">
      <g>
       <use xlink:href="#mec6d035403" x="254.618182" y="384.48" style="stroke: #000000; stroke-width: 0.8"/>
      </g>
     </g>
     <g id="text_3">
      <!-- 0.4 -->
      <g transform="translate(246.666619 399.078438) scale(0.1 -0.1)">
       <defs>
        <path id="DejaVuSans-34" d="M 2419 4116 
L 825 1625 
L 2419 1625 
L 2419 4116 
z
M 2253 4666 
L 3047 4666 
L 3047 1625 
L 3713 1625 
L 3713 1100 
L 3047 1100 
L 3047 0 
L 2419 0 
L 2419 1100 
L 313 1100 
L 313 1709 
L 2253 4666 
z
" transform="scale(0.015625)"/>
       </defs>
       <use xlink:href="#DejaVuSans-30"/>
       <use xlink:href="#DejaVuSans-2e" x="63.623047"/>
       <use xlink:href="#DejaVuSans-34" x="95.410156"/>
      </g>
     </g>
    </g>
    <g id="xtick_4">
     <g id="line2d_4">
      <g>
       <use xlink:href="#mec6d035403" x="335.781818" y="384.48" style="stroke: #000000; stroke-width: 0.8"/>
      </g>
     </g>
     <g id="text_4">
      <!-- 0.6 -->
      <g transform="translate(327.830256 399.078438) scale(0.1 -0.1)">
       <defs>
        <path id="DejaVuSans-36" d="M 2113 2584 
Q 1688 2584 1439 2293 
Q 1191 2003 1191 1497 
Q 1191 994 1439 701 
Q 1688 409 2113 409 
Q 2538 409 2786 701 
Q 3034 994 3034 1497 
Q 3034 2003 2786 2293 
Q 2538 2584 2113 2584 
z
M 3366 4563 
L 3366 3988 
Q 3128 4100 2886 4159 
Q 2644 4219 2406 4219 
Q 1781 4219 1451 3797 
Q 1122 3375 1075 2522 
Q 1259 2794 1537 2939 
Q 1816 3084 2150 3084 
Q 2853 3084 3261 2657 
Q 3669 2231 3669 1497 
Q 3669 778 3244 343 
Q 2819 -91 2113 -91 
Q 1303 -91 875 529 
Q 447 1150 447 2328 
Q 447 3434 972 4092 
Q 1497 4750 2381 4750 
Q 2619 4750 2861 4703 
Q 3103 4656 3366 4563 
z
" transform="scale(0.015625)"/>
       </defs>
       <use xlink:href="#DejaVuSans-30"/>
       <use xlink:href="#DejaVuSans-2e" x="63.623047"/>
       <use xlink:href="#DejaVuSans-36" x="95.410156"/>
      </g>
     </g>
    </g>
    <g id="xtick_5">
     <g id="line2d_5">
      <g>
       <use xlink:href="#mec6d035403" x="416.945455" y="384.48" style="stroke: #000000; stroke-width: 0.8"/>
      </g>
     </g>
     <g id="text_5">
      <!-- 0.8 -->
      <g transform="translate(408.993892 399.078438) scale(0.1 -0.1)">
       <defs>
        <path id="DejaVuSans-38" d="M 2034 2216 
Q 1584 2216 1326 1975 
Q 1069 1734 1069 1313 
Q 1069 891 1326 650 
Q 1584 409 2034 409 
Q 2484 409 2743 651 
Q 3003 894 3003 1313 
Q 3003 1734 2745 1975 
Q 2488 2216 2034 2216 
z
M 1403 2484 
Q 997 2584 770 2862 
Q 544 3141 544 3541 
Q 544 4100 942 4425 
Q 1341 4750 2034 4750 
Q 2731 4750 3128 4425 
Q 3525 4100 3525 3541 
Q 3525 3141 3298 2862 
Q 3072 2584 2669 2484 
Q 3125 2378 3379 2068 
Q 3634 1759 3634 1313 
Q 3634 634 3220 271 
Q 2806 -91 2034 -91 
Q 1263 -91 848 271 
Q 434 634 434 1313 
Q 434 1759 690 2068 
Q 947 2378 1403 2484 
z
M 1172 3481 
Q 1172 3119 1398 2916 
Q 1625 2713 2034 2713 
Q 2441 2713 2670 2916 
Q 2900 3119 2900 3481 
Q 2900 3844 2670 4047 
Q 2441 4250 2034 4250 
Q 1625 4250 1398 4047 
Q 1172 3844 1172 3481 
z
" transform="scale(0.015625)"/>
       </defs>
       <use xlink:href="#DejaVuSans-30"/>
       <use xlink:href="#DejaVuSans-2e" x="63.623047"/>
       <use xlink:href="#DejaVuSans-38" x="95.410156"/>
      </g>
     </g>
    </g>
    <g id="xtick_6">
     <g id="line2d_6">
      <g>
       <use xlink:href="#mec6d035403" x="498.109091" y="384.48" style="stroke: #000000; stroke-width: 0.8"/>
      </g>
     </g>
     <g id="text_6">
      <!-- 1.0 -->
      <g transform="translate(490.157528 399.078438) scale(0.1 -0.1)">
       <defs>
        <path id="DejaVuSans-31" d="M 794 531 
L 1825 531 
L 1825 4091 
L 703 3866 
L 703 4441 
L 1819 4666 
L 2450 4666 
L 2450 531 
L 3481 531 
L 3481 0 
L 794 0 
L 794 531 
z
" transform="scale(0.015625)"/>
       </defs>
       <use xlink:href="#DejaVuSans-31"/>
       <use xlink:href="#DejaVuSans-2e" x="63.623047"/>
       <use xlink:href="#DejaVuSans-30" x="95.410156"/>
      </g>
     </g>
    </g>
   </g>
   <g id="matplotlib.axis_2">
    <g id="ytick_1">
     <g id="line2d_7">
      <defs>
       <path id="mcab0044766" d="M 0 0 
L -3.5 0 
" style="stroke: #000000; stroke-width: 0.8"/>
      </defs>
      <g>
       <use xlink:href="#mcab0044766" x="72" y="369.36" style="stroke: #000000; stroke-width: 0.8"/>
      </g>
     </g>
     <g id="text_7">
      <!-- −5.0 -->
      <g transform="translate(40.717187 373.159219) scale(0.1 -0.1)">
       <defs>
        <path id="DejaVuSans-2212" d="M 678 2272 
L 4684 2272 
L 4684 1741 
L 678 1741 
L 678 2272 
z
" transform="scale(0.015625)"/>
        <path id="DejaVuSans-35" d="M 691 4666 
L 3169 4666 
L 3169 4134 
L 1269 4134 
L 1269 2991 
Q 1406 3038 1543 3061 
Q 1681 3084 1819 3084 
Q 2600 3084 3056 2656 
Q 3513 2228 3513 1497 
Q 3513 744 3044 326 
Q 2575 -91 1722 -91 
Q 1428 -91 1123 -41 
Q 819 9 494 109 
L 494 744 
Q 775 591 1075 516 
Q 1375 441 1709 441 
Q 2250 441 2565 725 
Q 2881 1009 2881 1497 
Q 2881 1984 2565 2268 
Q 2250 2553 1709 2553 
Q 1456 2553 1204 2497 
Q 953 2441 691 2322 
L 691 4666 
z
" transform="scale(0.015625)"/>
       </defs>
       <use xlink:href="#DejaVuSans-2212"/>
       <use xlink:href="#DejaVuSans-35" x="83.789062"/>
       <use xlink:href="#DejaVuSans-2e" x="147.412109"/>
       <use xlink:href="#DejaVuSans-30" x="179.199219"/>
      </g>
     </g>
    </g>
    <g id="ytick_2">
     <g id="line2d_8">
      <g>
       <use xlink:href="#mcab0044766" x="72" y="331.56" style="stroke: #000000; stroke-width: 0.8"/>
      </g>
     </g>
     <g id="text_8">
      <!-- −2.5 -->
      <g transform="translate(40.717187 335.359219) scale(0.1 -0.1)">
       <use xlink:href="#DejaVuSans-2212"/>
       <use xlink:href="#DejaVuSans-32" x="83.789062"/>
       <use xlink:href="#DejaVuSans-2e" x="147.412109"/>
       <use xlink:href="#DejaVuSans-35" x="179.199219"/>
      </g>
     </g>
    </g>
    <g id="ytick_3">
     <g id="line2d_9">
      <g>
       <use xlink:href="#mcab0044766" x="72" y="293.76" style="stroke: #000000; stroke-width: 0.8"/>
      </g>
     </g>
     <g id="text_9">
      <!-- 0.0 -->
      <g transform="translate(49.096875 297.559219) scale(0.1 -0.1)">
       <use xlink:href="#DejaVuSans-30"/>
       <use xlink:href="#DejaVuSans-2e" x="63.623047"/>
       <use xlink:href="#DejaVuSans-30" x="95.410156"/>
      </g>
     </g>
    </g>
    <g id="ytick_4">
     <g id="line2d_10">
      <g>
       <use xlink:href="#mcab0044766" x="72" y="255.96" style="stroke: #000000; stroke-width: 0.8"/>
      </g>
     </g>
     <g id="text_10">
      <!-- 2.5 -->
      <g transform="translate(49.096875 259.759219) scale(0.1 -0.1)">
       <use xlink:href="#DejaVuSans-32"/>
       <use xlink:href="#DejaVuSans-2e" x="63.623047"/>
       <use xlink:href="#DejaVuSans-35" x="95.410156"/>
      </g>
     </g>
    </g>
    <g id="ytick_5">
     <g id="line2d_11">
      <g>
       <use xlink:href="#mcab0044766" x="72" y="218.16" style="stroke: #000000; stroke-width: 0.8"/>
      </g>
     </g>
     <g id="text_11">
      <!-- 5.0 -->
      <g transform="translate(49.096875 221.959219) scale(0.1 -0.1)">
       <use xlink:href="#DejaVuSans-35"/>
       <use xlink:href="#DejaVuSans-2e" x="63.623047"/>
       <use xlink:href="#DejaVuSans-30" x="95.410156"/>
      </g>
     </g>
    </g>
    <g id="ytick_6">
     <g id="line2d_12">
      <g>
       <use xlink:href="#mcab0044766" x="72" y="180.36" style="stroke: #000000; stroke-width: 0.8"/>
      </g>
     </g>
     <g id="text_12">
      <!-- 7.5 -->
      <g transform="translate(49.096875 184.159219) scale(0.1 -0.1)">
       <defs>
        <path id="DejaVuSans-37" d="M 525 4666 
L 3525 4666 
L 3525 4397 
L 1831 0 
L 1172 0 
L 2766 4134 
L 525 4134 
L 525 4666 
z
" transform="scale(0.015625)"/>
       </defs>
       <use xlink:href="#DejaVuSans-37"/>
       <use xlink:href="#DejaVuSans-2e" x="63.623047"/>
       <use xlink:href="#DejaVuSans-35" x="95.410156"/>
      </g>
     </g>
    </g>
    <g id="ytick_7">
     <g id="line2d_13">
      <g>
       <use xlink:href="#mcab0044766" x="72" y="142.56" style="stroke: #000000; stroke-width: 0.8"/>
      </g>
     </g>
     <g id="text_13">
      <!-- 10.0 -->
      <g transform="translate(42.734375 146.359219) scale(0.1 -0.1)">
       <use xlink:href="#DejaVuSans-31"/>
       <use xlink:href="#DejaVuSans-30" x="63.623047"/>
       <use xlink:href="#DejaVuSans-2e" x="127.246094"/>
       <use xlink:href="#DejaVuSans-30" x="159.033203"/>
      </g>
     </g>
    </g>
    <g id="ytick_8">
     <g id="line2d_14">
      <g>
       <use xlink:href="#mcab0044766" x="72" y="104.76" style="stroke: #000000; stroke-width: 0.8"/>
      </g>
     </g>
     <g id="text_14">
      <!-- 12.5 -->
      <g transform="translate(42.734375 108.559219) scale(0.1 -0.1)">
       <use xlink:href="#DejaVuSans-31"/>
       <use xlink:href="#DejaVuSans-32" x="63.623047"/>
       <use xlink:href="#DejaVuSans-2e" x="127.246094"/>
       <use xlink:href="#DejaVuSans-35" x="159.033203"/>
      </g>
     </g>
    </g>
    <g id="ytick_9">
     <g id="line2d_15">
      <g>
       <use xlink:href="#mcab0044766" x="72" y="66.96" style="stroke: #000000; stroke-width: 0.8"/>
      </g>
     </g>
     <g id="text_15">
      <!-- 15.0 -->
      <g transform="translate(42.734375 70.759219) scale(0.1 -0.1)">
       <use xlink:href="#DejaVuSans-31"/>
       <use xlink:href="#DejaVuSans-35" x="63.623047"/>
       <use xlink:href="#DejaVuSans-2e" x="127.246094"/>
       <use xlink:href="#DejaVuSans-30" x="159.033203"/>
      </g>
     </g>
    </g>
   </g>
   <g id="line2d_16">
    <path d="M 92.290909 352.245672 
L 96.349091 352.241136 
L 100.407273 352.227528 
L 104.465455 352.203336 
L 108.523636 352.171584 
L 112.581818 352.13076 
L 116.64 352.079352 
L 120.698182 352.020384 
L 124.756364 351.952344 
L 128.814545 351.87372 
L 132.872727 351.787536 
L 136.930909 351.69228 
L 140.989091 351.587952 
L 145.047273 351.474552 
L 149.105455 351.353592 
L 153.163636 351.22356 
L 157.221818 351.085968 
L 161.28 350.939304 
L 165.338182 350.78508 
L 169.396364 350.621784 
L 173.454545 350.45244 
L 177.512727 350.274024 
L 181.570909 350.088048 
L 185.629091 349.896024 
L 189.687273 349.69644 
L 193.745455 349.489296 
L 197.803636 349.276104 
L 201.861818 349.056864 
L 205.92 348.831576 
L 209.978182 348.60024 
L 214.036364 348.362856 
L 218.094545 348.120936 
L 222.152727 347.87448 
L 226.210909 347.623488 
L 230.269091 347.36796 
L 234.327273 347.107896 
L 238.385455 346.844808 
L 242.443636 346.578696 
L 246.501818 346.311072 
L 250.56 346.040424 
L 254.618182 345.768264 
L 258.676364 345.496104 
L 262.734545 345.222432 
L 266.792727 344.94876 
L 270.850909 344.6766 
L 274.909091 344.40444 
L 278.967273 344.133792 
L 283.025455 343.866168 
L 287.083636 343.601568 
L 291.141818 343.341504 
L 295.2 343.084464 
L 299.258182 342.83196 
L 303.316364 342.585504 
L 307.374545 342.345096 
L 311.432727 342.110736 
L 315.490909 341.883936 
L 319.549091 341.664696 
L 323.607273 341.453016 
L 327.665455 341.250408 
L 331.723636 341.056872 
L 335.781818 340.87392 
L 339.84 340.70004 
L 343.898182 340.535232 
L 347.956364 340.381008 
L 352.014545 340.237368 
L 356.072727 340.104312 
L 360.130909 339.98184 
L 364.189091 339.86844 
L 368.247273 339.765624 
L 372.305455 339.67188 
L 376.363636 339.58872 
L 380.421818 339.514632 
L 384.48 339.449616 
L 388.538182 339.39216 
L 392.596364 339.343776 
L 396.654545 339.302952 
L 400.712727 339.268176 
L 404.770909 339.239448 
L 408.829091 339.21828 
L 412.887273 339.201648 
L 416.945455 339.189552 
L 421.003636 339.181992 
L 425.061818 339.177456 
L 429.12 339.177456 
L 433.178182 339.178968 
L 437.236364 339.185016 
L 441.294545 339.191064 
L 445.352727 339.198624 
L 449.410909 339.207696 
L 453.469091 339.216768 
L 457.527273 339.227352 
L 461.585455 339.237936 
L 465.643636 339.247008 
L 469.701818 339.25608 
L 473.76 339.265152 
L 477.818182 339.272712 
L 481.876364 339.27876 
L 485.934545 339.283296 
L 489.992727 339.287832 
L 494.050909 339.289344 
L 498.109091 339.290856 
" clip-path="url(#pf0971448fe)" style="fill: none; stroke: #000000; stroke-opacity: 0.5; stroke-linecap: square"/>
   </g>
   <g id="line2d_17">
    <path d="M 92.290909 281.319264 
L 96.349091 281.343456 
L 100.407273 281.411496 
L 104.465455 281.526408 
L 108.523636 281.683656 
L 112.581818 281.884752 
L 116.64 282.126672 
L 120.698182 282.406392 
L 124.756364 282.7224 
L 128.814545 283.073184 
L 132.872727 283.45572 
L 136.930909 283.866984 
L 140.989091 284.303952 
L 145.047273 284.765112 
L 149.105455 285.24744 
L 153.163636 285.749424 
L 157.221818 286.26804 
L 161.28 286.800264 
L 165.338182 287.344584 
L 169.396364 287.899488 
L 173.454545 288.463464 
L 177.512727 289.033488 
L 181.570909 289.60956 
L 185.629091 290.188656 
L 189.687273 290.769264 
L 193.745455 291.351384 
L 197.803636 291.933504 
L 201.861818 292.5126 
L 205.92 293.088672 
L 209.978182 293.66172 
L 214.036364 294.22872 
L 218.094545 294.789672 
L 222.152727 295.344576 
L 226.210909 295.890408 
L 230.269091 296.427168 
L 234.327273 296.954856 
L 238.385455 297.47196 
L 242.443636 297.976968 
L 246.501818 298.46988 
L 250.56 298.949184 
L 254.618182 299.41488 
L 258.676364 299.866968 
L 262.734545 300.302424 
L 266.792727 300.72276 
L 270.850909 301.126464 
L 274.909091 301.512024 
L 278.967273 301.880952 
L 283.025455 302.228712 
L 287.083636 302.558328 
L 291.141818 302.868288 
L 295.2 303.15708 
L 299.258182 303.423192 
L 303.316364 303.669648 
L 307.374545 303.891912 
L 311.432727 304.091496 
L 315.490909 304.2684 
L 319.549091 304.421112 
L 323.607273 304.549632 
L 327.665455 304.65396 
L 331.723636 304.734096 
L 335.781818 304.79004 
L 339.84 304.82028 
L 343.898182 304.826328 
L 347.956364 304.808184 
L 352.014545 304.765848 
L 356.072727 304.69932 
L 360.130909 304.610112 
L 364.189091 304.498224 
L 368.247273 304.365168 
L 372.305455 304.209432 
L 376.363636 304.035552 
L 380.421818 303.842016 
L 384.48 303.628824 
L 388.538182 303.400512 
L 392.596364 303.15708 
L 396.654545 302.898528 
L 400.712727 302.62788 
L 404.770909 302.346648 
L 408.829091 302.056344 
L 412.887273 301.756968 
L 416.945455 301.453056 
L 421.003636 301.14612 
L 425.061818 300.83616 
L 429.12 300.5262 
L 433.178182 300.217752 
L 437.236364 299.915352 
L 441.294545 299.617488 
L 445.352727 299.328696 
L 449.410909 299.050488 
L 453.469091 298.784376 
L 457.527273 298.533384 
L 461.585455 298.299024 
L 465.643636 298.082808 
L 469.701818 297.88776 
L 473.76 297.71388 
L 477.818182 297.564192 
L 481.876364 297.440208 
L 485.934545 297.341928 
L 489.992727 297.272376 
L 494.050909 297.23004 
L 498.109091 297.21492 
" clip-path="url(#pf0971448fe)" style="fill: none; stroke: #000000; stroke-opacity: 0.5; stroke-linecap: square"/>
   </g>
   <g id="line2d_18">
    <path d="M 92.290909 249.544584 
L 96.349091 249.530976 
L 100.407273 249.493176 
L 104.465455 249.431184 
L 108.523636 249.346512 
L 112.581818 249.240672 
L 116.64 249.113664 
L 120.698182 248.970024 
L 124.756364 248.811264 
L 128.814545 248.640408 
L 132.872727 248.458968 
L 136.930909 248.269968 
L 140.989091 248.076432 
L 145.047273 247.879872 
L 149.105455 247.683312 
L 153.163636 247.489776 
L 157.221818 247.297752 
L 161.28 247.111776 
L 165.338182 246.93336 
L 169.396364 246.764016 
L 173.454545 246.603744 
L 177.512727 246.454056 
L 181.570909 246.317976 
L 185.629091 246.193992 
L 189.687273 246.083616 
L 193.745455 245.98836 
L 197.803636 245.909736 
L 201.861818 245.846232 
L 205.92 245.79936 
L 209.978182 245.770632 
L 214.036364 245.760048 
L 218.094545 245.766096 
L 222.152727 245.7918 
L 226.210909 245.835648 
L 230.269091 245.89764 
L 234.327273 245.979288 
L 238.385455 246.077568 
L 242.443636 246.195504 
L 246.501818 246.330072 
L 250.56 246.481272 
L 254.618182 246.649104 
L 258.676364 246.832056 
L 262.734545 247.030128 
L 266.792727 247.241808 
L 270.850909 247.465584 
L 274.909091 247.702968 
L 278.967273 247.950936 
L 283.025455 248.209488 
L 287.083636 248.477112 
L 291.141818 248.752296 
L 295.2 249.03504 
L 299.258182 249.325344 
L 303.316364 249.620184 
L 307.374545 249.91956 
L 311.432727 250.223472 
L 315.490909 250.528896 
L 319.549091 250.838856 
L 323.607273 251.148816 
L 327.665455 251.460288 
L 331.723636 251.77176 
L 335.781818 252.08172 
L 339.84 252.393192 
L 343.898182 252.70164 
L 347.956364 253.008576 
L 352.014545 253.312488 
L 356.072727 253.614888 
L 360.130909 253.912752 
L 364.189091 254.207592 
L 368.247273 254.497896 
L 372.305455 254.785176 
L 376.363636 255.066408 
L 380.421818 255.343104 
L 384.48 255.615264 
L 388.538182 255.881376 
L 392.596364 256.14144 
L 396.654545 256.396968 
L 400.712727 256.646448 
L 404.770909 256.888368 
L 408.829091 257.12424 
L 412.887273 257.354064 
L 416.945455 257.576328 
L 421.003636 257.791032 
L 425.061818 257.999688 
L 429.12 258.199272 
L 433.178182 258.391296 
L 437.236364 258.57576 
L 441.294545 258.751152 
L 445.352727 258.917472 
L 449.410909 259.076232 
L 453.469091 259.222896 
L 457.527273 259.360488 
L 461.585455 259.487496 
L 465.643636 259.602408 
L 469.701818 259.705224 
L 473.76 259.795944 
L 477.818182 259.874568 
L 481.876364 259.939584 
L 485.934545 259.98948 
L 489.992727 260.025768 
L 494.050909 260.048448 
L 498.109091 260.056008 
" clip-path="url(#pf0971448fe)" style="fill: none; stroke: #000000; stroke-opacity: 0.5; stroke-linecap: square"/>
   </g>
   <g id="line2d_19">
    <path d="M 92.290909 237.102336 
L 96.349091 237.093264 
L 100.407273 237.069072 
L 104.465455 237.028248 
L 108.523636 236.972304 
L 112.581818 236.899728 
L 116.64 236.813544 
L 120.698182 236.710728 
L 124.756364 236.594304 
L 128.814545 236.464272 
L 132.872727 236.322144 
L 136.930909 236.16792 
L 140.989091 236.003112 
L 145.047273 235.829232 
L 149.105455 235.64628 
L 153.163636 235.455768 
L 157.221818 235.26072 
L 161.28 235.061136 
L 165.338182 234.858528 
L 169.396364 234.652896 
L 173.454545 234.447264 
L 177.512727 234.243144 
L 181.570909 234.040536 
L 185.629091 233.83944 
L 189.687273 233.641368 
L 193.745455 233.44632 
L 197.803636 233.25732 
L 201.861818 233.069832 
L 205.92 232.888392 
L 209.978182 232.709976 
L 214.036364 232.536096 
L 218.094545 232.36524 
L 222.152727 232.197408 
L 226.210909 232.0326 
L 230.269091 231.870816 
L 234.327273 231.710544 
L 238.385455 231.554808 
L 242.443636 231.399072 
L 246.501818 231.24636 
L 250.56 231.096672 
L 254.618182 230.950008 
L 258.676364 230.806368 
L 262.734545 230.667264 
L 266.792727 230.532696 
L 270.850909 230.402664 
L 274.909091 230.281704 
L 278.967273 230.166792 
L 283.025455 230.062464 
L 287.083636 229.96872 
L 291.141818 229.887072 
L 295.2 229.81752 
L 299.258182 229.7646 
L 303.316364 229.729824 
L 307.374545 229.71168 
L 311.432727 229.714704 
L 315.490909 229.738896 
L 319.549091 229.785768 
L 323.607273 229.858344 
L 327.665455 229.956624 
L 331.723636 230.08212 
L 335.781818 230.236344 
L 339.84 230.419296 
L 343.898182 230.630976 
L 347.956364 230.872896 
L 352.014545 231.145056 
L 356.072727 231.445944 
L 360.130909 231.77556 
L 364.189091 232.133904 
L 368.247273 232.519464 
L 372.305455 232.930728 
L 376.363636 233.364672 
L 380.421818 233.821296 
L 384.48 234.297576 
L 388.538182 234.790488 
L 392.596364 235.300032 
L 396.654545 235.821672 
L 400.712727 236.352384 
L 404.770909 236.890656 
L 408.829091 237.431952 
L 412.887273 237.976272 
L 416.945455 238.51908 
L 421.003636 239.057352 
L 425.061818 239.588064 
L 429.12 240.109704 
L 433.178182 240.617736 
L 437.236364 241.11216 
L 441.294545 241.586928 
L 445.352727 242.040528 
L 449.410909 242.47296 
L 453.469091 242.879688 
L 457.527273 243.257688 
L 461.585455 243.60696 
L 465.643636 243.92448 
L 469.701818 244.210248 
L 473.76 244.459728 
L 477.818182 244.67292 
L 481.876364 244.849824 
L 485.934545 244.987416 
L 489.992727 245.087208 
L 494.050909 245.147688 
L 498.109091 245.167344 
" clip-path="url(#pf0971448fe)" style="fill: none; stroke: #000000; stroke-opacity: 0.5; stroke-linecap: square"/>
   </g>
   <g id="line2d_20">
    <path d="M 92.290909 173.311056 
L 96.349091 173.345832 
L 100.407273 173.448648 
L 104.465455 173.613456 
L 108.523636 173.829672 
L 112.581818 174.089736 
L 116.64 174.38004 
L 120.698182 174.69 
L 124.756364 175.010544 
L 128.814545 175.331088 
L 132.872727 175.644072 
L 136.930909 175.943448 
L 140.989091 176.223168 
L 145.047273 176.475672 
L 149.105455 176.697936 
L 153.163636 176.886936 
L 157.221818 177.036624 
L 161.28 177.145488 
L 165.338182 177.210504 
L 169.396364 177.228648 
L 173.454545 177.19992 
L 177.512727 177.121296 
L 181.570909 176.991264 
L 185.629091 176.809824 
L 189.687273 176.575464 
L 193.745455 176.288184 
L 197.803636 175.947984 
L 201.861818 175.556376 
L 205.92 175.110336 
L 209.978182 174.612888 
L 214.036364 174.065544 
L 218.094545 173.468304 
L 222.152727 172.824192 
L 226.210909 172.133208 
L 230.269091 171.398376 
L 234.327273 170.621208 
L 238.385455 169.80624 
L 242.443636 168.954984 
L 246.501818 168.073488 
L 250.56 167.1678 
L 254.618182 166.246992 
L 258.676364 165.32316 
L 262.734545 164.422008 
L 266.792727 163.585872 
L 270.850909 162.8964 
L 274.909091 162.483624 
L 278.967273 162.483624 
L 283.025455 162.88884 
L 287.083636 163.56168 
L 291.141818 164.369088 
L 295.2 165.235464 
L 299.258182 166.11696 
L 303.316364 166.99392 
L 307.374545 167.849712 
L 311.432727 168.675264 
L 315.490909 169.46604 
L 319.549091 170.215992 
L 323.607273 170.920584 
L 327.665455 171.576792 
L 331.723636 172.183104 
L 335.781818 172.736496 
L 339.84 173.235456 
L 343.898182 173.67696 
L 347.956364 174.06252 
L 352.014545 174.390624 
L 356.072727 174.65976 
L 360.130909 174.869928 
L 364.189091 175.02264 
L 368.247273 175.116384 
L 372.305455 175.152672 
L 376.363636 175.131504 
L 380.421818 175.055904 
L 384.48 174.925872 
L 388.538182 174.74292 
L 392.596364 174.50856 
L 396.654545 174.224304 
L 400.712727 173.891664 
L 404.770909 173.513664 
L 408.829091 173.091816 
L 412.887273 172.62612 
L 416.945455 172.121112 
L 421.003636 171.578304 
L 425.061818 170.997696 
L 429.12 170.382312 
L 433.178182 169.733664 
L 437.236364 169.056288 
L 441.294545 168.348672 
L 445.352727 167.615352 
L 449.410909 166.859352 
L 453.469091 166.080672 
L 457.527273 165.286872 
L 461.585455 164.477952 
L 465.643636 163.662984 
L 469.701818 162.846504 
L 473.76 162.040608 
L 477.818182 161.258904 
L 481.876364 160.52256 
L 485.934545 159.863328 
L 489.992727 159.325056 
L 494.050909 158.966712 
L 498.109091 158.839704 
" clip-path="url(#pf0971448fe)" style="fill: none; stroke: #000000; stroke-opacity: 0.5; stroke-linecap: square"/>
   </g>
   <g id="line2d_21">
    <path d="M 92.290909 157.025304 
L 96.349091 156.958776 
L 100.407273 156.762216 
L 104.465455 156.44016 
L 108.523636 156.00168 
L 112.581818 155.45736 
L 116.64 154.819296 
L 120.698182 154.095048 
L 124.756364 153.296712 
L 128.814545 152.430336 
L 132.872727 151.506504 
L 136.930909 150.52824 
L 140.989091 149.503104 
L 145.047273 148.43412 
L 149.105455 147.325824 
L 153.163636 146.18124 
L 157.221818 145.003392 
L 161.28 143.795304 
L 165.338182 142.558488 
L 169.396364 141.292944 
L 173.454545 140.003208 
L 177.512727 138.68928 
L 181.570909 137.354184 
L 185.629091 135.99792 
L 189.687273 134.626536 
L 193.745455 133.448688 
L 197.803636 134.301456 
L 201.861818 135.390096 
L 205.92 136.561896 
L 209.978182 137.792664 
L 214.036364 139.064256 
L 218.094545 140.364576 
L 222.152727 141.680016 
L 226.210909 143.00604 
L 230.269091 144.333576 
L 234.327273 145.656576 
L 238.385455 146.970504 
L 242.443636 148.270824 
L 246.501818 149.551488 
L 250.56 150.803424 
L 254.618182 152.019072 
L 258.676364 153.183312 
L 262.734545 154.271952 
L 266.792727 155.241144 
L 270.850909 156.010752 
L 274.909091 156.446208 
L 278.967273 156.412944 
L 283.025455 155.920032 
L 287.083636 155.103552 
L 291.141818 154.093536 
L 295.2 152.967096 
L 299.258182 151.765056 
L 303.316364 150.511608 
L 307.374545 149.22036 
L 311.432727 147.898872 
L 315.490909 146.556216 
L 319.549091 145.195416 
L 323.607273 143.825544 
L 327.665455 142.451136 
L 331.723636 141.084288 
L 335.781818 139.738608 
L 339.84 138.436776 
L 343.898182 137.219616 
L 347.956364 136.155168 
L 352.014545 135.331128 
L 356.072727 134.797392 
L 360.130909 134.519184 
L 364.189091 134.416368 
L 368.247273 134.416368 
L 372.305455 134.479872 
L 376.363636 134.581176 
L 380.421818 134.70516 
L 384.48 134.847288 
L 388.538182 135 
L 392.596364 135.161784 
L 396.654545 135.329616 
L 400.712727 135.505008 
L 404.770909 135.686448 
L 408.829091 135.875448 
L 412.887273 136.075032 
L 416.945455 136.288224 
L 421.003636 136.524096 
L 425.061818 136.790208 
L 429.12 137.10168 
L 433.178182 137.481192 
L 437.236364 137.957472 
L 441.294545 138.557736 
L 445.352727 139.295592 
L 449.410909 140.158944 
L 453.469091 141.114528 
L 457.527273 142.130592 
L 461.585455 143.176896 
L 465.643636 144.229248 
L 469.701818 145.267992 
L 473.76 146.276496 
L 477.818182 147.235104 
L 481.876364 148.119624 
L 485.934545 148.89528 
L 489.992727 149.516712 
L 494.050909 149.926464 
L 498.109091 150.070104 
" clip-path="url(#pf0971448fe)" style="fill: none; stroke: #000000; stroke-opacity: 0.5; stroke-linecap: square"/>
   </g>
   <g id="line2d_22">
    <path d="M 92.290909 128.858256 
L 96.349091 128.859768 
L 100.407273 128.862792 
L 104.465455 128.86884 
L 108.523636 128.8764 
L 112.581818 128.886984 
L 116.64 128.900592 
L 120.698182 128.918736 
L 124.756364 128.941416 
L 128.814545 128.96712 
L 132.872727 129.000384 
L 136.930909 129.041208 
L 140.989091 129.089592 
L 145.047273 129.150072 
L 149.105455 129.222648 
L 153.163636 129.313368 
L 157.221818 129.425256 
L 161.28 129.565872 
L 165.338182 129.741264 
L 169.396364 129.96504 
L 173.454545 130.250808 
L 177.512727 130.618224 
L 181.570909 131.088456 
L 185.629091 131.682672 
L 189.687273 132.40692 
L 193.745455 133.05708 
L 197.803636 131.782464 
L 201.861818 130.359672 
L 205.92 128.927808 
L 209.978182 127.565496 
L 214.036364 127.093752 
L 218.094545 127.22076 
L 222.152727 127.373472 
L 226.210909 127.520136 
L 230.269091 127.65924 
L 234.327273 127.793808 
L 238.385455 127.92384 
L 242.443636 128.050848 
L 246.501818 128.177856 
L 250.56 128.306376 
L 254.618182 128.434896 
L 258.676364 128.56644 
L 262.734545 128.699496 
L 266.792727 128.835576 
L 270.850909 128.97468 
L 274.909091 129.116808 
L 278.967273 129.26196 
L 283.025455 129.410136 
L 287.083636 129.561336 
L 291.141818 129.714048 
L 295.2 129.869784 
L 299.258182 130.027032 
L 303.316364 130.18428 
L 307.374545 130.341528 
L 311.432727 130.497264 
L 315.490909 130.649976 
L 319.549091 130.79664 
L 323.607273 130.935744 
L 327.665455 131.059728 
L 331.723636 131.162544 
L 335.781818 131.229072 
L 339.84 131.239656 
L 343.898182 131.15196 
L 347.956364 130.900968 
L 352.014545 130.400496 
L 356.072727 129.599136 
L 360.130909 128.533176 
L 364.189091 127.287288 
L 368.247273 125.929512 
L 372.305455 124.505208 
L 376.363636 123.038568 
L 380.421818 121.55076 
L 384.48 120.059928 
L 388.538182 118.66284 
L 392.596364 118.6704 
L 396.654545 120.007008 
L 400.712727 121.425264 
L 404.770909 122.838984 
L 408.829091 124.237584 
L 412.887273 125.611992 
L 416.945455 126.954648 
L 421.003636 128.259504 
L 425.061818 129.512952 
L 429.12 130.699872 
L 433.178182 131.797584 
L 437.236364 132.774336 
L 441.294545 133.602912 
L 445.352727 134.268192 
L 449.410909 134.779248 
L 453.469091 135.164808 
L 457.527273 135.458136 
L 461.585455 135.684936 
L 465.643636 135.86184 
L 469.701818 136.002456 
L 473.76 136.114344 
L 477.818182 136.203552 
L 481.876364 136.273104 
L 485.934545 136.326024 
L 489.992727 136.362312 
L 494.050909 136.38348 
L 498.109091 136.39104 
" clip-path="url(#pf0971448fe)" style="fill: none; stroke: #000000; stroke-opacity: 0.5; stroke-linecap: square"/>
   </g>
   <g id="line2d_23">
    <path d="M 92.290909 101.808576 
L 96.349091 101.890224 
L 100.407273 102.135168 
L 104.465455 102.534336 
L 108.523636 103.078656 
L 112.581818 103.753008 
L 116.64 104.543784 
L 120.698182 105.434352 
L 124.756364 106.412616 
L 128.814545 107.463456 
L 132.872727 108.576288 
L 136.930909 109.737504 
L 140.989091 110.941056 
L 145.047273 112.173336 
L 149.105455 113.428296 
L 153.163636 114.698376 
L 157.221818 115.97148 
L 161.28 117.238536 
L 165.338182 118.487448 
L 169.396364 119.70612 
L 173.454545 120.874896 
L 177.512727 121.972608 
L 181.570909 122.976576 
L 185.629091 123.862608 
L 189.687273 124.618608 
L 193.745455 125.24004 
L 197.803636 125.737488 
L 201.861818 126.13212 
L 205.92 126.43452 
L 209.978182 126.590256 
L 214.036364 125.794944 
L 218.094545 124.352496 
L 222.152727 122.848056 
L 226.210909 121.317912 
L 230.269091 119.769624 
L 234.327273 118.206216 
L 238.385455 116.627688 
L 242.443636 115.035552 
L 246.501818 113.429808 
L 250.56 111.810456 
L 254.618182 110.18052 
L 258.676364 108.536976 
L 262.734545 106.882848 
L 266.792727 105.218136 
L 270.850909 103.54284 
L 274.909091 101.85696 
L 278.967273 100.162008 
L 283.025455 98.457984 
L 287.083636 96.7464 
L 291.141818 95.025744 
L 295.2 93.29904 
L 299.258182 91.5678 
L 303.316364 89.838072 
L 307.374545 88.131024 
L 311.432727 87.244992 
L 315.490909 88.67988 
L 319.549091 90.265968 
L 323.607273 91.867176 
L 327.665455 93.474432 
L 331.723636 95.081688 
L 335.781818 96.687432 
L 339.84 98.290152 
L 343.898182 99.888336 
L 347.956364 101.481984 
L 352.014545 103.069584 
L 356.072727 104.651136 
L 360.130909 106.223616 
L 364.189091 107.787024 
L 368.247273 109.339848 
L 372.305455 110.882088 
L 376.363636 112.41072 
L 380.421818 113.921208 
L 384.48 115.399944 
L 388.538182 116.759232 
L 392.596364 116.688168 
L 396.654545 115.263864 
L 400.712727 113.738256 
L 404.770909 112.194504 
L 408.829091 110.643192 
L 412.887273 109.093392 
L 416.945455 107.545104 
L 421.003636 106.002864 
L 425.061818 104.468184 
L 429.12 102.944088 
L 433.178182 101.4336 
L 437.236364 99.939744 
L 441.294545 98.465544 
L 445.352727 97.015536 
L 449.410909 95.595768 
L 453.469091 94.212288 
L 457.527273 92.871144 
L 461.585455 91.581408 
L 465.643636 90.355176 
L 469.701818 89.204544 
L 473.76 88.146144 
L 477.818182 87.196608 
L 481.876364 86.375592 
L 485.934545 85.707288 
L 489.992727 85.20984 
L 494.050909 84.902904 
L 498.109091 84.800088 
" clip-path="url(#pf0971448fe)" style="fill: none; stroke: #000000; stroke-opacity: 0.5; stroke-linecap: square"/>
   </g>
   <g id="patch_3">
    <path d="M 72 384.48 
L 72 51.84 
" style="fill: none; stroke: #000000; stroke-width: 0.8; stroke-linejoin: miter; stroke-linecap: square"/>
   </g>
   <g id="patch_4">
    <path d="M 518.4 384.48 
L 518.4 51.84 
" style="fill: none; stroke: #000000; stroke-width: 0.8; stroke-linejoin: miter; stroke-linecap: square"/>
   </g>
   <g id="patch_5">
    <path d="M 72 384.48 
L 518.4 384.48 
" style="fill: none; stroke: #000000; stroke-width: 0.8; stroke-linejoin: miter; stroke-linecap: square"/>
   </g>
   <g id="patch_6">
    <path d="M 72 51.84 
L 518.4 51.84 
" style="fill: none; stroke: #000000; stroke-width: 0.8; stroke-linejoin: miter; stroke-linecap: square"/>
   </g>
  </g>
 </g>
 <defs>
  <clipPath id="pf0971448fe">
   <rect x="72" y="51.84" width="446.4" height="332.64"/>
  </clipPath>
 </defs>
</svg>
