<?xml version="1.0" encoding="utf-8" standalone="no"?>
<!DOCTYPE svg PUBLIC "-//W3C//DTD SVG 1.1//EN"
  "http://www.w3.org/Graphics/SVG/1.1/DTD/svg11.dtd">
<svg xmlns:xlink="http://www.w3.org/1999/xlink" width="576pt" height="432pt" viewBox="0 0 576 432" xmlns="http://www.w3.org/2000/svg" version="1.1">
 <metadata>
  <rdf:RDF xmlns:dc="http://purl.org/dc/elements/1.1/" xmlns:cc="http://creativecommons.org/ns#" xmlns:rdf="http://www.w3.org/1999/02/22-rdf-syntax-ns#">
   <cc:Work>
    <dc:type rdf:resource="http://purl.org/dc/dcmitype/StillImage"/>
    <dc:date>2023-05-02T12:00:11.477533</dc:date>
    <dc:format>image/svg+xml</dc:format>
    <dc:creator>
     <cc:Agent>
      <dc:title>Matplotlib v3.7.1, https://matplotlib.org/</dc:title>
     </cc:Agent>
    </dc:creator>
   </cc:Work>
  </rdf:RDF>
 </metadata>
 <defs>
  <style type="text/css">*{stroke-linejoin: round; stroke-linecap: butt}</style>
 </defs>
 <g id="figure_1">
  <g id="patch_1">
   <path d="M 0 432 
L 576 432 
L 576 0 
L 0 0 
z
" style="fill: #ffffff"/>
  </g>
  <g id="axes_1">
   <g id="patch_2">
    <path d="M 72 384.48 
L 518.4 384.48 
L 518.4 51.84 
L 72 51.84 
z
" style="fill: #ffffff"/>
   </g>
   <g id="matplotlib.axis_1">
    <g id="xtick_1">
     <g id="line2d_1">
      <defs>
       <path id="mb8794ca323" d="M 0 0 
L 0 3.5 
" style="stroke: #000000; stroke-width: 0.8"/>
      </defs>
      <g>
       <use xlink:href="#mb8794ca323" x="92.290909" y="384.48" style="stroke: #000000; stroke-width: 0.8"/>
      </g>
     </g>
     <g id="text_1">
      <!-- 0.0 -->
      <g transform="translate(84.339347 399.078438) scale(0.1 -0.1)">
       <defs>
        <path id="DejaVuSans-30" d="M 2034 4250 
Q 1547 4250 1301 3770 
Q 1056 3291 1056 2328 
Q 1056 1369 1301 889 
Q 1547 409 2034 409 
Q 2525 409 2770 889 
Q 3016 1369 3016 2328 
Q 3016 3291 2770 3770 
Q 2525 4250 2034 4250 
z
M 2034 4750 
Q 2819 4750 3233 4129 
Q 3647 3509 3647 2328 
Q 3647 1150 3233 529 
Q 2819 -91 2034 -91 
Q 1250 -91 836 529 
Q 422 1150 422 2328 
Q 422 3509 836 4129 
Q 1250 4750 2034 4750 
z
" transform="scale(0.015625)"/>
        <path id="DejaVuSans-2e" d="M 684 794 
L 1344 794 
L 1344 0 
L 684 0 
L 684 794 
z
" transform="scale(0.015625)"/>
       </defs>
       <use xlink:href="#DejaVuSans-30"/>
       <use xlink:href="#DejaVuSans-2e" x="63.623047"/>
       <use xlink:href="#DejaVuSans-30" x="95.410156"/>
      </g>
     </g>
    </g>
    <g id="xtick_2">
     <g id="line2d_2">
      <g>
       <use xlink:href="#mb8794ca323" x="173.454545" y="384.48" style="stroke: #000000; stroke-width: 0.8"/>
      </g>
     </g>
     <g id="text_2">
      <!-- 0.2 -->
      <g transform="translate(165.502983 399.078438) scale(0.1 -0.1)">
       <defs>
        <path id="DejaVuSans-32" d="M 1228 531 
L 3431 531 
L 3431 0 
L 469 0 
L 469 531 
Q 828 903 1448 1529 
Q 2069 2156 2228 2338 
Q 2531 2678 2651 2914 
Q 2772 3150 2772 3378 
Q 2772 3750 2511 3984 
Q 2250 4219 1831 4219 
Q 1534 4219 1204 4116 
Q 875 4013 500 3803 
L 500 4441 
Q 881 4594 1212 4672 
Q 1544 4750 1819 4750 
Q 2544 4750 2975 4387 
Q 3406 4025 3406 3419 
Q 3406 3131 3298 2873 
Q 3191 2616 2906 2266 
Q 2828 2175 2409 1742 
Q 1991 1309 1228 531 
z
" transform="scale(0.015625)"/>
       </defs>
       <use xlink:href="#DejaVuSans-30"/>
       <use xlink:href="#DejaVuSans-2e" x="63.623047"/>
       <use xlink:href="#DejaVuSans-32" x="95.410156"/>
      </g>
     </g>
    </g>
    <g id="xtick_3">
     <g id="line2d_3">
      <g>
       <use xlink:href="#mb8794ca323" x="254.618182" y="384.48" style="stroke: #000000; stroke-width: 0.8"/>
      </g>
     </g>
     <g id="text_3">
      <!-- 0.4 -->
      <g transform="translate(246.666619 399.078438) scale(0.1 -0.1)">
       <defs>
        <path id="DejaVuSans-34" d="M 2419 4116 
L 825 1625 
L 2419 1625 
L 2419 4116 
z
M 2253 4666 
L 3047 4666 
L 3047 1625 
L 3713 1625 
L 3713 1100 
L 3047 1100 
L 3047 0 
L 2419 0 
L 2419 1100 
L 313 1100 
L 313 1709 
L 2253 4666 
z
" transform="scale(0.015625)"/>
       </defs>
       <use xlink:href="#DejaVuSans-30"/>
       <use xlink:href="#DejaVuSans-2e" x="63.623047"/>
       <use xlink:href="#DejaVuSans-34" x="95.410156"/>
      </g>
     </g>
    </g>
    <g id="xtick_4">
     <g id="line2d_4">
      <g>
       <use xlink:href="#mb8794ca323" x="335.781818" y="384.48" style="stroke: #000000; stroke-width: 0.8"/>
      </g>
     </g>
     <g id="text_4">
      <!-- 0.6 -->
      <g transform="translate(327.830256 399.078438) scale(0.1 -0.1)">
       <defs>
        <path id="DejaVuSans-36" d="M 2113 2584 
Q 1688 2584 1439 2293 
Q 1191 2003 1191 1497 
Q 1191 994 1439 701 
Q 1688 409 2113 409 
Q 2538 409 2786 701 
Q 3034 994 3034 1497 
Q 3034 2003 2786 2293 
Q 2538 2584 2113 2584 
z
M 3366 4563 
L 3366 3988 
Q 3128 4100 2886 4159 
Q 2644 4219 2406 4219 
Q 1781 4219 1451 3797 
Q 1122 3375 1075 2522 
Q 1259 2794 1537 2939 
Q 1816 3084 2150 3084 
Q 2853 3084 3261 2657 
Q 3669 2231 3669 1497 
Q 3669 778 3244 343 
Q 2819 -91 2113 -91 
Q 1303 -91 875 529 
Q 447 1150 447 2328 
Q 447 3434 972 4092 
Q 1497 4750 2381 4750 
Q 2619 4750 2861 4703 
Q 3103 4656 3366 4563 
z
" transform="scale(0.015625)"/>
       </defs>
       <use xlink:href="#DejaVuSans-30"/>
       <use xlink:href="#DejaVuSans-2e" x="63.623047"/>
       <use xlink:href="#DejaVuSans-36" x="95.410156"/>
      </g>
     </g>
    </g>
    <g id="xtick_5">
     <g id="line2d_5">
      <g>
       <use xlink:href="#mb8794ca323" x="416.945455" y="384.48" style="stroke: #000000; stroke-width: 0.8"/>
      </g>
     </g>
     <g id="text_5">
      <!-- 0.8 -->
      <g transform="translate(408.993892 399.078438) scale(0.1 -0.1)">
       <defs>
        <path id="DejaVuSans-38" d="M 2034 2216 
Q 1584 2216 1326 1975 
Q 1069 1734 1069 1313 
Q 1069 891 1326 650 
Q 1584 409 2034 409 
Q 2484 409 2743 651 
Q 3003 894 3003 1313 
Q 3003 1734 2745 1975 
Q 2488 2216 2034 2216 
z
M 1403 2484 
Q 997 2584 770 2862 
Q 544 3141 544 3541 
Q 544 4100 942 4425 
Q 1341 4750 2034 4750 
Q 2731 4750 3128 4425 
Q 3525 4100 3525 3541 
Q 3525 3141 3298 2862 
Q 3072 2584 2669 2484 
Q 3125 2378 3379 2068 
Q 3634 1759 3634 1313 
Q 3634 634 3220 271 
Q 2806 -91 2034 -91 
Q 1263 -91 848 271 
Q 434 634 434 1313 
Q 434 1759 690 2068 
Q 947 2378 1403 2484 
z
M 1172 3481 
Q 1172 3119 1398 2916 
Q 1625 2713 2034 2713 
Q 2441 2713 2670 2916 
Q 2900 3119 2900 3481 
Q 2900 3844 2670 4047 
Q 2441 4250 2034 4250 
Q 1625 4250 1398 4047 
Q 1172 3844 1172 3481 
z
" transform="scale(0.015625)"/>
       </defs>
       <use xlink:href="#DejaVuSans-30"/>
       <use xlink:href="#DejaVuSans-2e" x="63.623047"/>
       <use xlink:href="#DejaVuSans-38" x="95.410156"/>
      </g>
     </g>
    </g>
    <g id="xtick_6">
     <g id="line2d_6">
      <g>
       <use xlink:href="#mb8794ca323" x="498.109091" y="384.48" style="stroke: #000000; stroke-width: 0.8"/>
      </g>
     </g>
     <g id="text_6">
      <!-- 1.0 -->
      <g transform="translate(490.157528 399.078438) scale(0.1 -0.1)">
       <defs>
        <path id="DejaVuSans-31" d="M 794 531 
L 1825 531 
L 1825 4091 
L 703 3866 
L 703 4441 
L 1819 4666 
L 2450 4666 
L 2450 531 
L 3481 531 
L 3481 0 
L 794 0 
L 794 531 
z
" transform="scale(0.015625)"/>
       </defs>
       <use xlink:href="#DejaVuSans-31"/>
       <use xlink:href="#DejaVuSans-2e" x="63.623047"/>
       <use xlink:href="#DejaVuSans-30" x="95.410156"/>
      </g>
     </g>
    </g>
   </g>
   <g id="matplotlib.axis_2">
    <g id="ytick_1">
     <g id="line2d_7">
      <defs>
       <path id="mdb6a79a826" d="M 0 0 
L -3.5 0 
" style="stroke: #000000; stroke-width: 0.8"/>
      </defs>
      <g>
       <use xlink:href="#mdb6a79a826" x="72" y="369.36" style="stroke: #000000; stroke-width: 0.8"/>
      </g>
     </g>
     <g id="text_7">
      <!-- −5.0 -->
      <g transform="translate(40.717187 373.159219) scale(0.1 -0.1)">
       <defs>
        <path id="DejaVuSans-2212" d="M 678 2272 
L 4684 2272 
L 4684 1741 
L 678 1741 
L 678 2272 
z
" transform="scale(0.015625)"/>
        <path id="DejaVuSans-35" d="M 691 4666 
L 3169 4666 
L 3169 4134 
L 1269 4134 
L 1269 2991 
Q 1406 3038 1543 3061 
Q 1681 3084 1819 3084 
Q 2600 3084 3056 2656 
Q 3513 2228 3513 1497 
Q 3513 744 3044 326 
Q 2575 -91 1722 -91 
Q 1428 -91 1123 -41 
Q 819 9 494 109 
L 494 744 
Q 775 591 1075 516 
Q 1375 441 1709 441 
Q 2250 441 2565 725 
Q 2881 1009 2881 1497 
Q 2881 1984 2565 2268 
Q 2250 2553 1709 2553 
Q 1456 2553 1204 2497 
Q 953 2441 691 2322 
L 691 4666 
z
" transform="scale(0.015625)"/>
       </defs>
       <use xlink:href="#DejaVuSans-2212"/>
       <use xlink:href="#DejaVuSans-35" x="83.789062"/>
       <use xlink:href="#DejaVuSans-2e" x="147.412109"/>
       <use xlink:href="#DejaVuSans-30" x="179.199219"/>
      </g>
     </g>
    </g>
    <g id="ytick_2">
     <g id="line2d_8">
      <g>
       <use xlink:href="#mdb6a79a826" x="72" y="331.56" style="stroke: #000000; stroke-width: 0.8"/>
      </g>
     </g>
     <g id="text_8">
      <!-- −2.5 -->
      <g transform="translate(40.717187 335.359219) scale(0.1 -0.1)">
       <use xlink:href="#DejaVuSans-2212"/>
       <use xlink:href="#DejaVuSans-32" x="83.789062"/>
       <use xlink:href="#DejaVuSans-2e" x="147.412109"/>
       <use xlink:href="#DejaVuSans-35" x="179.199219"/>
      </g>
     </g>
    </g>
    <g id="ytick_3">
     <g id="line2d_9">
      <g>
       <use xlink:href="#mdb6a79a826" x="72" y="293.76" style="stroke: #000000; stroke-width: 0.8"/>
      </g>
     </g>
     <g id="text_9">
      <!-- 0.0 -->
      <g transform="translate(49.096875 297.559219) scale(0.1 -0.1)">
       <use xlink:href="#DejaVuSans-30"/>
       <use xlink:href="#DejaVuSans-2e" x="63.623047"/>
       <use xlink:href="#DejaVuSans-30" x="95.410156"/>
      </g>
     </g>
    </g>
    <g id="ytick_4">
     <g id="line2d_10">
      <g>
       <use xlink:href="#mdb6a79a826" x="72" y="255.96" style="stroke: #000000; stroke-width: 0.8"/>
      </g>
     </g>
     <g id="text_10">
      <!-- 2.5 -->
      <g transform="translate(49.096875 259.759219) scale(0.1 -0.1)">
       <use xlink:href="#DejaVuSans-32"/>
       <use xlink:href="#DejaVuSans-2e" x="63.623047"/>
       <use xlink:href="#DejaVuSans-35" x="95.410156"/>
      </g>
     </g>
    </g>
    <g id="ytick_5">
     <g id="line2d_11">
      <g>
       <use xlink:href="#mdb6a79a826" x="72" y="218.16" style="stroke: #000000; stroke-width: 0.8"/>
      </g>
     </g>
     <g id="text_11">
      <!-- 5.0 -->
      <g transform="translate(49.096875 221.959219) scale(0.1 -0.1)">
       <use xlink:href="#DejaVuSans-35"/>
       <use xlink:href="#DejaVuSans-2e" x="63.623047"/>
       <use xlink:href="#DejaVuSans-30" x="95.410156"/>
      </g>
     </g>
    </g>
    <g id="ytick_6">
     <g id="line2d_12">
      <g>
       <use xlink:href="#mdb6a79a826" x="72" y="180.36" style="stroke: #000000; stroke-width: 0.8"/>
      </g>
     </g>
     <g id="text_12">
      <!-- 7.5 -->
      <g transform="translate(49.096875 184.159219) scale(0.1 -0.1)">
       <defs>
        <path id="DejaVuSans-37" d="M 525 4666 
L 3525 4666 
L 3525 4397 
L 1831 0 
L 1172 0 
L 2766 4134 
L 525 4134 
L 525 4666 
z
" transform="scale(0.015625)"/>
       </defs>
       <use xlink:href="#DejaVuSans-37"/>
       <use xlink:href="#DejaVuSans-2e" x="63.623047"/>
       <use xlink:href="#DejaVuSans-35" x="95.410156"/>
      </g>
     </g>
    </g>
    <g id="ytick_7">
     <g id="line2d_13">
      <g>
       <use xlink:href="#mdb6a79a826" x="72" y="142.56" style="stroke: #000000; stroke-width: 0.8"/>
      </g>
     </g>
     <g id="text_13">
      <!-- 10.0 -->
      <g transform="translate(42.734375 146.359219) scale(0.1 -0.1)">
       <use xlink:href="#DejaVuSans-31"/>
       <use xlink:href="#DejaVuSans-30" x="63.623047"/>
       <use xlink:href="#DejaVuSans-2e" x="127.246094"/>
       <use xlink:href="#DejaVuSans-30" x="159.033203"/>
      </g>
     </g>
    </g>
    <g id="ytick_8">
     <g id="line2d_14">
      <g>
       <use xlink:href="#mdb6a79a826" x="72" y="104.76" style="stroke: #000000; stroke-width: 0.8"/>
      </g>
     </g>
     <g id="text_14">
      <!-- 12.5 -->
      <g transform="translate(42.734375 108.559219) scale(0.1 -0.1)">
       <use xlink:href="#DejaVuSans-31"/>
       <use xlink:href="#DejaVuSans-32" x="63.623047"/>
       <use xlink:href="#DejaVuSans-2e" x="127.246094"/>
       <use xlink:href="#DejaVuSans-35" x="159.033203"/>
      </g>
     </g>
    </g>
    <g id="ytick_9">
     <g id="line2d_15">
      <g>
       <use xlink:href="#mdb6a79a826" x="72" y="66.96" style="stroke: #000000; stroke-width: 0.8"/>
      </g>
     </g>
     <g id="text_15">
      <!-- 15.0 -->
      <g transform="translate(42.734375 70.759219) scale(0.1 -0.1)">
       <use xlink:href="#DejaVuSans-31"/>
       <use xlink:href="#DejaVuSans-35" x="63.623047"/>
       <use xlink:href="#DejaVuSans-2e" x="127.246094"/>
       <use xlink:href="#DejaVuSans-30" x="159.033203"/>
      </g>
     </g>
    </g>
   </g>
   <g id="line2d_16">
    <path d="M 92.290909 376.132248 
L 96.349091 376.1262 
L 100.407273 376.106544 
L 104.465455 376.074792 
L 108.523636 376.030944 
L 112.581818 375.975 
L 116.64 375.905448 
L 120.698182 375.8238 
L 124.756364 375.730056 
L 128.814545 375.622704 
L 132.872727 375.503256 
L 136.930909 375.371712 
L 140.989091 375.22656 
L 145.047273 375.070824 
L 149.105455 374.90148 
L 153.163636 374.718528 
L 157.221818 374.524992 
L 161.28 374.317848 
L 165.338182 374.098608 
L 169.396364 373.867272 
L 173.454545 373.62384 
L 177.512727 373.3668 
L 181.570909 373.099176 
L 185.629091 372.817944 
L 189.687273 372.524616 
L 193.745455 372.219192 
L 197.803636 371.90016 
L 201.861818 371.570544 
L 205.92 371.228832 
L 209.978182 370.873512 
L 214.036364 370.507608 
L 218.094545 370.128096 
L 222.152727 369.738 
L 226.210909 369.335808 
L 230.269091 368.920008 
L 234.327273 368.493624 
L 238.385455 368.055144 
L 242.443636 367.604568 
L 246.501818 367.143408 
L 250.56 366.66864 
L 254.618182 366.183288 
L 258.676364 365.68584 
L 262.734545 365.176296 
L 266.792727 364.656168 
L 270.850909 364.123944 
L 274.909091 363.579624 
L 278.967273 363.02472 
L 283.025455 362.459232 
L 287.083636 361.880136 
L 291.141818 361.291968 
L 295.2 360.691704 
L 299.258182 360.080856 
L 303.316364 359.457912 
L 307.374545 358.825896 
L 311.432727 358.181784 
L 315.490909 357.527088 
L 319.549091 356.861808 
L 323.607273 356.185944 
L 327.665455 355.497984 
L 331.723636 354.800952 
L 335.781818 354.094848 
L 339.84 353.376648 
L 343.898182 352.649376 
L 347.956364 351.91152 
L 352.014545 351.16308 
L 356.072727 350.405568 
L 360.130909 349.638984 
L 364.189091 348.861816 
L 368.247273 348.075576 
L 372.305455 347.280264 
L 376.363636 346.474368 
L 380.421818 345.660912 
L 384.48 344.836872 
L 388.538182 344.005272 
L 392.596364 343.166112 
L 396.654545 342.316368 
L 400.712727 341.459064 
L 404.770909 340.5942 
L 408.829091 339.720264 
L 412.887273 338.838768 
L 416.945455 337.949712 
L 421.003636 337.053096 
L 425.061818 336.14892 
L 429.12 335.238696 
L 433.178182 334.320912 
L 437.236364 333.395568 
L 441.294545 332.464176 
L 445.352727 331.526736 
L 449.410909 330.583248 
L 453.469091 329.635224 
L 457.527273 328.67964 
L 461.585455 327.71952 
L 465.643636 326.754864 
L 469.701818 325.785672 
L 473.76 324.810432 
L 477.818182 323.83368 
L 481.876364 322.852392 
L 485.934545 321.86808 
L 489.992727 320.88528 
L 494.050909 319.914576 
L 498.109091 319.185792 
" clip-path="url(#p14d48d7cef)" style="fill: none; stroke: #000000; stroke-opacity: 0.5; stroke-linecap: square"/>
   </g>
   <g id="line2d_17">
    <path d="M 92.290909 228.251088 
L 96.349091 228.329712 
L 100.407273 228.559536 
L 104.465455 228.92544 
L 108.523636 229.404744 
L 112.581818 229.97628 
L 116.64 230.620392 
L 120.698182 231.32196 
L 124.756364 232.067376 
L 128.814545 232.850592 
L 132.872727 233.661024 
L 136.930909 234.494136 
L 140.989091 235.346904 
L 145.047273 236.214792 
L 149.105455 237.094776 
L 153.163636 237.985344 
L 157.221818 238.883472 
L 161.28 239.78916 
L 165.338182 240.700896 
L 169.396364 241.617168 
L 173.454545 242.536464 
L 177.512727 243.460296 
L 181.570909 244.38564 
L 185.629091 245.312496 
L 189.687273 246.240864 
L 193.745455 247.169232 
L 197.803636 248.099112 
L 201.861818 249.028992 
L 205.92 249.958872 
L 209.978182 250.88724 
L 214.036364 251.815608 
L 218.094545 252.743976 
L 222.152727 253.672344 
L 226.210909 254.5992 
L 230.269091 255.524544 
L 234.327273 256.448376 
L 238.385455 257.372208 
L 242.443636 258.294528 
L 246.501818 259.216848 
L 250.56 260.137656 
L 254.618182 261.056952 
L 258.676364 261.974736 
L 262.734545 262.894032 
L 266.792727 263.810304 
L 270.850909 264.728088 
L 274.909091 265.64436 
L 278.967273 266.560632 
L 283.025455 267.476904 
L 287.083636 268.393176 
L 291.141818 269.309448 
L 295.2 270.22572 
L 299.258182 271.143504 
L 303.316364 272.061288 
L 307.374545 272.980584 
L 311.432727 273.89988 
L 315.490909 274.8222 
L 319.549091 275.74452 
L 323.607273 276.669864 
L 327.665455 277.59672 
L 331.723636 278.525088 
L 335.781818 279.45648 
L 339.84 280.390896 
L 343.898182 281.326824 
L 347.956364 282.265776 
L 352.014545 283.207752 
L 356.072727 284.152752 
L 360.130909 285.100776 
L 364.189091 286.053336 
L 368.247273 287.007408 
L 372.305455 287.966016 
L 376.363636 288.927648 
L 380.421818 289.893816 
L 384.48 290.861496 
L 388.538182 291.835224 
L 392.596364 292.810464 
L 396.654545 293.79024 
L 400.712727 294.771528 
L 404.770909 295.757352 
L 408.829091 296.7462 
L 412.887273 297.738072 
L 416.945455 298.732968 
L 421.003636 299.730888 
L 425.061818 300.73032 
L 429.12 301.731264 
L 433.178182 302.735232 
L 437.236364 303.740712 
L 441.294545 304.749216 
L 445.352727 305.75772 
L 449.410909 306.766224 
L 453.469091 307.777752 
L 457.527273 308.787768 
L 461.585455 309.799296 
L 465.643636 310.809312 
L 469.701818 311.819328 
L 473.76 312.827832 
L 477.818182 313.836336 
L 481.876364 314.841816 
L 485.934545 315.844272 
L 489.992727 316.84068 
L 494.050909 317.818944 
L 498.109091 318.552264 
" clip-path="url(#p14d48d7cef)" style="fill: none; stroke: #000000; stroke-opacity: 0.5; stroke-linecap: square"/>
   </g>
   <g id="line2d_18">
    <path d="M 92.290909 218.098008 
L 96.349091 218.066256 
L 100.407273 218.132784 
L 104.465455 218.268864 
L 108.523636 218.460888 
L 112.581818 218.705832 
L 116.64 218.99916 
L 120.698182 219.337848 
L 124.756364 219.720384 
L 128.814545 220.143744 
L 132.872727 220.603392 
L 136.930909 221.097816 
L 140.989091 221.620968 
L 145.047273 222.172848 
L 149.105455 222.74892 
L 153.163636 223.344648 
L 157.221818 223.961544 
L 161.28 224.59356 
L 165.338182 225.240696 
L 169.396364 225.898416 
L 173.454545 226.56672 
L 177.512727 227.244096 
L 181.570909 227.92752 
L 185.629091 228.61548 
L 189.687273 229.307976 
L 193.745455 230.003496 
L 197.803636 230.699016 
L 201.861818 231.394536 
L 205.92 232.090056 
L 209.978182 232.782552 
L 214.036364 233.473536 
L 218.094545 234.161496 
L 222.152727 234.84492 
L 226.210909 235.523808 
L 230.269091 236.196648 
L 234.327273 236.864952 
L 238.385455 237.525696 
L 242.443636 238.180392 
L 246.501818 238.82904 
L 250.56 239.468616 
L 254.618182 240.09912 
L 258.676364 240.723576 
L 262.734545 241.337448 
L 266.792727 241.94376 
L 270.850909 242.539488 
L 274.909091 243.126144 
L 278.967273 243.702216 
L 283.025455 244.269216 
L 287.083636 244.825632 
L 291.141818 245.369952 
L 295.2 245.9052 
L 299.258182 246.428352 
L 303.316364 246.94092 
L 307.374545 247.442904 
L 311.432727 247.932792 
L 315.490909 248.410584 
L 319.549091 248.87628 
L 323.607273 249.32988 
L 327.665455 249.771384 
L 331.723636 250.200792 
L 335.781818 250.618104 
L 339.84 251.021808 
L 343.898182 251.413416 
L 347.956364 251.791416 
L 352.014545 252.15732 
L 356.072727 252.509616 
L 360.130909 252.848304 
L 364.189091 253.173384 
L 368.247273 253.486368 
L 372.305455 253.784232 
L 376.363636 254.068488 
L 380.421818 254.339136 
L 384.48 254.596176 
L 388.538182 254.839608 
L 392.596364 255.06792 
L 396.654545 255.281112 
L 400.712727 255.480696 
L 404.770909 255.666672 
L 408.829091 255.837528 
L 412.887273 255.993264 
L 416.945455 256.13388 
L 421.003636 256.259376 
L 425.061818 256.371264 
L 429.12 256.468032 
L 433.178182 256.548168 
L 437.236364 256.614696 
L 441.294545 256.664592 
L 445.352727 256.70088 
L 449.410909 256.720536 
L 453.469091 256.726584 
L 457.527273 256.717512 
L 461.585455 256.69332 
L 465.643636 256.657032 
L 469.701818 256.605624 
L 473.76 256.543632 
L 477.818182 256.472568 
L 481.876364 256.393944 
L 485.934545 256.31532 
L 489.992727 256.245768 
L 494.050909 256.19436 
L 498.109091 256.176216 
" clip-path="url(#p14d48d7cef)" style="fill: none; stroke: #000000; stroke-opacity: 0.5; stroke-linecap: square"/>
   </g>
   <g id="line2d_19">
    <path d="M 92.290909 218.004264 
L 96.349091 217.996704 
L 100.407273 217.822824 
L 104.465455 217.521936 
L 108.523636 217.13184 
L 112.581818 216.675216 
L 116.64 216.174744 
L 120.698182 215.64252 
L 124.756364 215.095176 
L 128.814545 214.543296 
L 132.872727 213.992928 
L 136.930909 213.454656 
L 140.989091 212.933016 
L 145.047273 212.432544 
L 149.105455 211.957776 
L 153.163636 211.51476 
L 157.221818 211.10652 
L 161.28 210.73608 
L 165.338182 210.407976 
L 169.396364 210.12372 
L 173.454545 209.887848 
L 177.512727 209.701872 
L 181.570909 209.567304 
L 185.629091 209.487168 
L 189.687273 209.462976 
L 193.745455 209.493216 
L 197.803636 209.580912 
L 201.861818 209.726064 
L 205.92 209.925648 
L 209.978182 210.181176 
L 214.036364 210.489624 
L 218.094545 210.850992 
L 222.152727 211.262256 
L 226.210909 211.720392 
L 230.269091 212.2254 
L 234.327273 212.772744 
L 238.385455 213.3594 
L 242.443636 213.983856 
L 246.501818 214.641576 
L 250.56 215.331048 
L 254.618182 216.05076 
L 258.676364 216.796176 
L 262.734545 217.564272 
L 266.792727 218.353536 
L 270.850909 219.162456 
L 274.909091 219.988008 
L 278.967273 220.827168 
L 283.025455 221.678424 
L 287.083636 222.540264 
L 291.141818 223.409664 
L 295.2 224.286624 
L 299.258182 225.16812 
L 303.316364 226.054152 
L 307.374545 226.940184 
L 311.432727 227.827728 
L 315.490909 228.715272 
L 319.549091 229.59828 
L 323.607273 230.479776 
L 327.665455 231.355224 
L 331.723636 232.226136 
L 335.781818 233.089488 
L 339.84 233.94528 
L 343.898182 234.792 
L 347.956364 235.629648 
L 352.014545 236.456712 
L 356.072727 237.27168 
L 360.130909 238.074552 
L 364.189091 238.865328 
L 368.247273 239.642496 
L 372.305455 240.406056 
L 376.363636 241.154496 
L 380.421818 241.886304 
L 384.48 242.604504 
L 388.538182 243.306072 
L 392.596364 243.989496 
L 396.654545 244.6578 
L 400.712727 245.30796 
L 404.770909 245.939976 
L 408.829091 246.553848 
L 412.887273 247.149576 
L 416.945455 247.72716 
L 421.003636 248.2866 
L 425.061818 248.826384 
L 429.12 249.348024 
L 433.178182 249.848496 
L 437.236364 250.330824 
L 441.294545 250.793496 
L 445.352727 251.236512 
L 449.410909 251.659872 
L 453.469091 252.063576 
L 457.527273 252.446112 
L 461.585455 252.80748 
L 465.643636 253.146168 
L 469.701818 253.463688 
L 473.76 253.758528 
L 477.818182 254.026152 
L 481.876364 254.263536 
L 485.934545 254.467656 
L 489.992727 254.626416 
L 494.050909 254.732256 
L 498.109091 254.768544 
" clip-path="url(#p14d48d7cef)" style="fill: none; stroke: #000000; stroke-opacity: 0.5; stroke-linecap: square"/>
   </g>
   <g id="line2d_20">
    <path d="M 92.290909 175.154184 
L 96.349091 175.116384 
L 100.407273 175.004496 
L 104.465455 174.817008 
L 108.523636 174.555432 
L 112.581818 174.224304 
L 116.64 173.825136 
L 120.698182 173.360952 
L 124.756364 172.833264 
L 128.814545 172.246608 
L 132.872727 171.60552 
L 136.930909 170.91 
L 140.989091 170.167608 
L 145.047273 169.378344 
L 149.105455 168.546744 
L 153.163636 167.675832 
L 157.221818 166.770144 
L 161.28 165.831192 
L 165.338182 164.862 
L 169.396364 163.865592 
L 173.454545 162.849528 
L 177.512727 161.816832 
L 181.570909 160.7796 
L 185.629091 159.775632 
L 189.687273 159.10884 
L 193.745455 159.092208 
L 197.803636 159.16176 
L 201.861818 159.196536 
L 205.92 159.18444 
L 209.978182 159.120936 
L 214.036364 159.004512 
L 218.094545 158.839704 
L 222.152727 158.628024 
L 226.210909 158.372496 
L 230.269091 158.085216 
L 234.327273 157.799448 
L 238.385455 157.66488 
L 242.443636 157.881096 
L 246.501818 158.25456 
L 250.56 158.667336 
L 254.618182 159.092208 
L 258.676364 159.521616 
L 262.734545 159.952536 
L 266.792727 160.383456 
L 270.850909 160.811352 
L 274.909091 161.236224 
L 278.967273 161.658072 
L 283.025455 162.073872 
L 287.083636 162.486648 
L 291.141818 162.891864 
L 295.2 163.292544 
L 299.258182 163.685664 
L 303.316364 164.072736 
L 307.374545 164.452248 
L 311.432727 164.8242 
L 315.490909 165.188592 
L 319.549091 165.543912 
L 323.607273 165.891672 
L 327.665455 166.23036 
L 331.723636 166.561488 
L 335.781818 166.882032 
L 339.84 167.193504 
L 343.898182 167.495904 
L 347.956364 167.78772 
L 352.014545 168.068952 
L 356.072727 168.341112 
L 360.130909 168.601176 
L 364.189091 168.852168 
L 368.247273 169.092576 
L 372.305455 169.320888 
L 376.363636 169.538616 
L 380.421818 169.744248 
L 384.48 169.939296 
L 388.538182 170.12376 
L 392.596364 170.294616 
L 396.654545 170.454888 
L 400.712727 170.603064 
L 404.770909 170.739144 
L 408.829091 170.863128 
L 412.887273 170.975016 
L 416.945455 171.074808 
L 421.003636 171.160992 
L 425.061818 171.236592 
L 429.12 171.298584 
L 433.178182 171.349992 
L 437.236364 171.387792 
L 441.294545 171.413496 
L 445.352727 171.427104 
L 449.410909 171.430128 
L 453.469091 171.419544 
L 457.527273 171.399888 
L 461.585455 171.369648 
L 465.643636 171.330336 
L 469.701818 171.281952 
L 473.76 171.22752 
L 477.818182 171.170064 
L 481.876364 171.112608 
L 485.934545 171.058176 
L 489.992727 171.012816 
L 494.050909 170.984088 
L 498.109091 170.973504 
" clip-path="url(#p14d48d7cef)" style="fill: none; stroke: #000000; stroke-opacity: 0.5; stroke-linecap: square"/>
   </g>
   <g id="line2d_21">
    <path d="M 92.290909 145.760904 
L 96.349091 145.90152 
L 100.407273 146.25684 
L 104.465455 146.769408 
L 108.523636 147.384792 
L 112.581818 148.065192 
L 116.64 148.78188 
L 120.698182 149.519736 
L 124.756364 150.26364 
L 128.814545 151.006032 
L 132.872727 151.739352 
L 136.930909 152.460576 
L 140.989091 153.162144 
L 145.047273 153.841032 
L 149.105455 154.492704 
L 153.163636 155.114136 
L 157.221818 155.700792 
L 161.28 156.249648 
L 165.338182 156.75768 
L 169.396364 157.221864 
L 173.454545 157.637664 
L 177.512727 158.000544 
L 181.570909 158.302944 
L 185.629091 158.510088 
L 189.687273 158.333184 
L 193.745455 157.472856 
L 197.803636 156.536928 
L 201.861818 155.724984 
L 205.92 155.180664 
L 209.978182 154.987128 
L 214.036364 155.0718 
L 218.094545 155.312208 
L 222.152727 155.632752 
L 226.210909 155.991096 
L 230.269091 156.363048 
L 234.327273 156.70476 
L 238.385455 156.86352 
L 242.443636 156.63672 
L 246.501818 156.22092 
L 250.56 155.732544 
L 254.618182 155.198808 
L 258.676364 154.628784 
L 262.734545 154.027008 
L 266.792727 153.399528 
L 270.850909 152.744832 
L 274.909091 152.068968 
L 278.967273 151.371936 
L 283.025455 150.658272 
L 287.083636 149.931 
L 291.141818 149.193144 
L 295.2 148.452264 
L 299.258182 147.720456 
L 303.316364 147.018888 
L 307.374545 146.395944 
L 311.432727 145.965024 
L 315.490909 145.904544 
L 319.549091 146.27196 
L 323.607273 146.900952 
L 327.665455 147.643344 
L 331.723636 148.432608 
L 335.781818 149.238504 
L 339.84 150.0444 
L 343.898182 150.847272 
L 347.956364 151.63956 
L 352.014545 152.421264 
L 356.072727 153.187848 
L 360.130909 153.940824 
L 364.189091 154.67868 
L 368.247273 155.401416 
L 372.305455 156.106008 
L 376.363636 156.79548 
L 380.421818 157.46832 
L 384.48 158.124528 
L 388.538182 158.762592 
L 392.596364 159.384024 
L 396.654545 159.988824 
L 400.712727 160.57548 
L 404.770909 161.145504 
L 408.829091 161.697384 
L 412.887273 162.232632 
L 416.945455 162.749736 
L 421.003636 163.250208 
L 425.061818 163.734048 
L 429.12 164.198232 
L 433.178182 164.645784 
L 437.236364 165.076704 
L 441.294545 165.487968 
L 445.352727 165.8826 
L 449.410909 166.257576 
L 453.469091 166.614408 
L 457.527273 166.953096 
L 461.585455 167.270616 
L 465.643636 167.566968 
L 469.701818 167.842152 
L 473.76 168.093144 
L 477.818182 168.31692 
L 481.876364 168.511968 
L 485.934545 168.67224 
L 489.992727 168.791688 
L 494.050909 168.867288 
L 498.109091 168.892992 
" clip-path="url(#p14d48d7cef)" style="fill: none; stroke: #000000; stroke-opacity: 0.5; stroke-linecap: square"/>
   </g>
   <g id="line2d_22">
    <path d="M 92.290909 145.642968 
L 96.349091 145.638432 
L 100.407273 145.664136 
L 104.465455 145.718568 
L 108.523636 145.800216 
L 112.581818 145.904544 
L 116.64 146.031552 
L 120.698182 146.18124 
L 124.756364 146.352096 
L 128.814545 146.54412 
L 132.872727 146.7558 
L 136.930909 146.987136 
L 140.989091 147.236616 
L 145.047273 147.502728 
L 149.105455 147.786984 
L 153.163636 148.084848 
L 157.221818 148.39632 
L 161.28 148.7214 
L 165.338182 149.057064 
L 169.396364 149.4018 
L 173.454545 149.754096 
L 177.512727 150.109416 
L 181.570909 150.464736 
L 185.629091 150.812496 
L 189.687273 151.142112 
L 193.745455 151.433928 
L 197.803636 151.64712 
L 201.861818 151.703064 
L 205.92 151.470216 
L 209.978182 150.871464 
L 214.036364 149.980896 
L 218.094545 148.91796 
L 222.152727 147.76128 
L 226.210909 146.547144 
L 230.269091 145.293696 
L 234.327273 144.014544 
L 238.385455 142.7112 
L 242.443636 141.391224 
L 246.501818 140.054616 
L 250.56 138.705912 
L 254.618182 137.3436 
L 258.676364 135.973728 
L 262.734545 134.594784 
L 266.792727 133.235496 
L 270.850909 133.20828 
L 274.909091 134.227368 
L 278.967273 135.255528 
L 283.025455 136.274616 
L 287.083636 137.280096 
L 291.141818 138.26592 
L 295.2 139.22604 
L 299.258182 140.14836 
L 303.316364 141.011712 
L 307.374545 141.7662 
L 311.432727 142.299936 
L 315.490909 142.432992 
L 319.549091 142.110936 
L 323.607273 141.498576 
L 327.665455 140.741064 
L 331.723636 139.910976 
L 335.781818 139.035528 
L 339.84 138.12984 
L 343.898182 137.19996 
L 347.956364 136.251936 
L 352.014545 135.285768 
L 356.072727 134.305992 
L 360.130909 133.312608 
L 364.189091 132.307128 
L 368.247273 131.28804 
L 372.305455 130.256856 
L 376.363636 129.215088 
L 380.421818 128.161224 
L 384.48 127.098288 
L 388.538182 126.023256 
L 392.596364 124.93764 
L 396.654545 123.84144 
L 400.712727 122.734656 
L 404.770909 121.617288 
L 408.829091 120.490848 
L 412.887273 119.353824 
L 416.945455 118.206216 
L 421.003636 117.049536 
L 425.061818 115.882272 
L 429.12 114.705936 
L 433.178182 113.519016 
L 437.236364 112.323024 
L 441.294545 111.116448 
L 445.352727 109.9008 
L 449.410909 108.67608 
L 453.469091 107.442288 
L 457.527273 106.199424 
L 461.585455 104.945976 
L 465.643636 103.684968 
L 469.701818 102.414888 
L 473.76 101.135736 
L 477.818182 99.849024 
L 481.876364 98.55324 
L 485.934545 97.249896 
L 489.992727 95.940504 
L 494.050909 94.628088 
L 498.109091 93.475944 
" clip-path="url(#p14d48d7cef)" style="fill: none; stroke: #000000; stroke-opacity: 0.5; stroke-linecap: square"/>
   </g>
   <g id="line2d_23">
    <path d="M 92.290909 139.608576 
L 96.349091 139.48308 
L 100.407273 139.132296 
L 104.465455 138.616704 
L 108.523636 137.989224 
L 112.581818 137.292192 
L 116.64 136.551312 
L 120.698182 135.783216 
L 124.756364 134.996976 
L 128.814545 134.201664 
L 132.872727 133.398792 
L 136.930909 132.594408 
L 140.989091 131.788512 
L 145.047273 130.984128 
L 149.105455 130.182768 
L 153.163636 129.38292 
L 157.221818 128.587608 
L 161.28 127.798344 
L 165.338182 127.01664 
L 169.396364 126.242496 
L 173.454545 125.480448 
L 177.512727 124.735032 
L 181.570909 124.010784 
L 185.629091 123.316776 
L 189.687273 122.665104 
L 193.745455 122.0724 
L 197.803636 121.561344 
L 201.861818 121.163688 
L 205.92 120.909672 
L 209.978182 120.83256 
L 214.036364 120.955032 
L 218.094545 121.274064 
L 222.152727 121.773024 
L 226.210909 122.42016 
L 230.269091 123.18372 
L 234.327273 124.034976 
L 238.385455 124.951248 
L 242.443636 125.914392 
L 246.501818 126.9108 
L 250.56 127.9314 
L 254.618182 128.965608 
L 258.676364 130.008888 
L 262.734545 131.05368 
L 266.792727 132.072768 
L 270.850909 131.744664 
L 274.909091 130.35816 
L 278.967273 128.945952 
L 283.025455 127.52316 
L 287.083636 126.091296 
L 291.141818 124.653384 
L 295.2 123.207912 
L 299.258182 121.757904 
L 303.316364 120.301848 
L 307.374545 118.841256 
L 311.432727 117.374616 
L 315.490909 115.90344 
L 319.549091 114.427728 
L 323.607273 112.948992 
L 327.665455 111.46572 
L 331.723636 109.979424 
L 335.781818 108.488592 
L 339.84 106.996248 
L 343.898182 105.499368 
L 347.956364 104.000976 
L 352.014545 102.498048 
L 356.072727 100.99512 
L 360.130909 99.489168 
L 364.189091 97.981704 
L 368.247273 96.472728 
L 372.305455 94.96224 
L 376.363636 93.451752 
L 380.421818 91.939752 
L 384.48 90.429264 
L 388.538182 88.918776 
L 392.596364 87.4098 
L 396.654545 85.903848 
L 400.712727 84.403944 
L 404.770909 82.910088 
L 408.829091 81.42984 
L 412.887273 79.966224 
L 416.945455 78.53436 
L 421.003636 77.155416 
L 425.061818 75.8808 
L 429.12 74.820888 
L 433.178182 74.205504 
L 437.236364 74.287152 
L 441.294545 74.987208 
L 445.352727 76.027464 
L 449.410909 77.224968 
L 453.469091 78.501096 
L 457.527273 79.815024 
L 461.585455 81.153144 
L 465.643636 82.500336 
L 469.701818 83.855088 
L 473.76 85.211352 
L 477.818182 86.566104 
L 481.876364 87.919344 
L 485.934545 89.266536 
L 489.992727 90.609192 
L 494.050909 91.942776 
L 498.109091 93.10248 
" clip-path="url(#p14d48d7cef)" style="fill: none; stroke: #000000; stroke-opacity: 0.5; stroke-linecap: square"/>
   </g>
   <g id="patch_3">
    <path d="M 72 384.48 
L 72 51.84 
" style="fill: none; stroke: #000000; stroke-width: 0.8; stroke-linejoin: miter; stroke-linecap: square"/>
   </g>
   <g id="patch_4">
    <path d="M 518.4 384.48 
L 518.4 51.84 
" style="fill: none; stroke: #000000; stroke-width: 0.8; stroke-linejoin: miter; stroke-linecap: square"/>
   </g>
   <g id="patch_5">
    <path d="M 72 384.48 
L 518.4 384.48 
" style="fill: none; stroke: #000000; stroke-width: 0.8; stroke-linejoin: miter; stroke-linecap: square"/>
   </g>
   <g id="patch_6">
    <path d="M 72 51.84 
L 518.4 51.84 
" style="fill: none; stroke: #000000; stroke-width: 0.8; stroke-linejoin: miter; stroke-linecap: square"/>
   </g>
  </g>
 </g>
 <defs>
  <clipPath id="p14d48d7cef">
   <rect x="72" y="51.84" width="446.4" height="332.64"/>
  </clipPath>
 </defs>
</svg>
