<?xml version="1.0" encoding="utf-8" standalone="no"?>
<!DOCTYPE svg PUBLIC "-//W3C//DTD SVG 1.1//EN"
  "http://www.w3.org/Graphics/SVG/1.1/DTD/svg11.dtd">
<svg xmlns:xlink="http://www.w3.org/1999/xlink" width="576pt" height="432pt" viewBox="0 0 576 432" xmlns="http://www.w3.org/2000/svg" version="1.1">
 <metadata>
  <rdf:RDF xmlns:dc="http://purl.org/dc/elements/1.1/" xmlns:cc="http://creativecommons.org/ns#" xmlns:rdf="http://www.w3.org/1999/02/22-rdf-syntax-ns#">
   <cc:Work>
    <dc:type rdf:resource="http://purl.org/dc/dcmitype/StillImage"/>
    <dc:date>2023-05-03T15:36:30.964691</dc:date>
    <dc:format>image/svg+xml</dc:format>
    <dc:creator>
     <cc:Agent>
      <dc:title>Matplotlib v3.7.1, https://matplotlib.org/</dc:title>
     </cc:Agent>
    </dc:creator>
   </cc:Work>
  </rdf:RDF>
 </metadata>
 <defs>
  <style type="text/css">*{stroke-linejoin: round; stroke-linecap: butt}</style>
 </defs>
 <g id="figure_1">
  <g id="patch_1">
   <path d="M 0 432 
L 576 432 
L 576 0 
L 0 0 
z
" style="fill: #ffffff"/>
  </g>
  <g id="axes_1">
   <g id="patch_2">
    <path d="M 72 384.48 
L 518.4 384.48 
L 518.4 51.84 
L 72 51.84 
z
" style="fill: #ffffff"/>
   </g>
   <g id="matplotlib.axis_1">
    <g id="xtick_1">
     <g id="line2d_1">
      <defs>
       <path id="m2d90558ede" d="M 0 0 
L 0 3.5 
" style="stroke: #000000; stroke-width: 0.8"/>
      </defs>
      <g>
       <use xlink:href="#m2d90558ede" x="92.290909" y="384.48" style="stroke: #000000; stroke-width: 0.8"/>
      </g>
     </g>
     <g id="text_1">
      <!-- 0.0 -->
      <g transform="translate(84.339347 399.078438) scale(0.1 -0.1)">
       <defs>
        <path id="DejaVuSans-30" d="M 2034 4250 
Q 1547 4250 1301 3770 
Q 1056 3291 1056 2328 
Q 1056 1369 1301 889 
Q 1547 409 2034 409 
Q 2525 409 2770 889 
Q 3016 1369 3016 2328 
Q 3016 3291 2770 3770 
Q 2525 4250 2034 4250 
z
M 2034 4750 
Q 2819 4750 3233 4129 
Q 3647 3509 3647 2328 
Q 3647 1150 3233 529 
Q 2819 -91 2034 -91 
Q 1250 -91 836 529 
Q 422 1150 422 2328 
Q 422 3509 836 4129 
Q 1250 4750 2034 4750 
z
" transform="scale(0.015625)"/>
        <path id="DejaVuSans-2e" d="M 684 794 
L 1344 794 
L 1344 0 
L 684 0 
L 684 794 
z
" transform="scale(0.015625)"/>
       </defs>
       <use xlink:href="#DejaVuSans-30"/>
       <use xlink:href="#DejaVuSans-2e" x="63.623047"/>
       <use xlink:href="#DejaVuSans-30" x="95.410156"/>
      </g>
     </g>
    </g>
    <g id="xtick_2">
     <g id="line2d_2">
      <g>
       <use xlink:href="#m2d90558ede" x="173.454545" y="384.48" style="stroke: #000000; stroke-width: 0.8"/>
      </g>
     </g>
     <g id="text_2">
      <!-- 0.2 -->
      <g transform="translate(165.502983 399.078438) scale(0.1 -0.1)">
       <defs>
        <path id="DejaVuSans-32" d="M 1228 531 
L 3431 531 
L 3431 0 
L 469 0 
L 469 531 
Q 828 903 1448 1529 
Q 2069 2156 2228 2338 
Q 2531 2678 2651 2914 
Q 2772 3150 2772 3378 
Q 2772 3750 2511 3984 
Q 2250 4219 1831 4219 
Q 1534 4219 1204 4116 
Q 875 4013 500 3803 
L 500 4441 
Q 881 4594 1212 4672 
Q 1544 4750 1819 4750 
Q 2544 4750 2975 4387 
Q 3406 4025 3406 3419 
Q 3406 3131 3298 2873 
Q 3191 2616 2906 2266 
Q 2828 2175 2409 1742 
Q 1991 1309 1228 531 
z
" transform="scale(0.015625)"/>
       </defs>
       <use xlink:href="#DejaVuSans-30"/>
       <use xlink:href="#DejaVuSans-2e" x="63.623047"/>
       <use xlink:href="#DejaVuSans-32" x="95.410156"/>
      </g>
     </g>
    </g>
    <g id="xtick_3">
     <g id="line2d_3">
      <g>
       <use xlink:href="#m2d90558ede" x="254.618182" y="384.48" style="stroke: #000000; stroke-width: 0.8"/>
      </g>
     </g>
     <g id="text_3">
      <!-- 0.4 -->
      <g transform="translate(246.666619 399.078438) scale(0.1 -0.1)">
       <defs>
        <path id="DejaVuSans-34" d="M 2419 4116 
L 825 1625 
L 2419 1625 
L 2419 4116 
z
M 2253 4666 
L 3047 4666 
L 3047 1625 
L 3713 1625 
L 3713 1100 
L 3047 1100 
L 3047 0 
L 2419 0 
L 2419 1100 
L 313 1100 
L 313 1709 
L 2253 4666 
z
" transform="scale(0.015625)"/>
       </defs>
       <use xlink:href="#DejaVuSans-30"/>
       <use xlink:href="#DejaVuSans-2e" x="63.623047"/>
       <use xlink:href="#DejaVuSans-34" x="95.410156"/>
      </g>
     </g>
    </g>
    <g id="xtick_4">
     <g id="line2d_4">
      <g>
       <use xlink:href="#m2d90558ede" x="335.781818" y="384.48" style="stroke: #000000; stroke-width: 0.8"/>
      </g>
     </g>
     <g id="text_4">
      <!-- 0.6 -->
      <g transform="translate(327.830256 399.078438) scale(0.1 -0.1)">
       <defs>
        <path id="DejaVuSans-36" d="M 2113 2584 
Q 1688 2584 1439 2293 
Q 1191 2003 1191 1497 
Q 1191 994 1439 701 
Q 1688 409 2113 409 
Q 2538 409 2786 701 
Q 3034 994 3034 1497 
Q 3034 2003 2786 2293 
Q 2538 2584 2113 2584 
z
M 3366 4563 
L 3366 3988 
Q 3128 4100 2886 4159 
Q 2644 4219 2406 4219 
Q 1781 4219 1451 3797 
Q 1122 3375 1075 2522 
Q 1259 2794 1537 2939 
Q 1816 3084 2150 3084 
Q 2853 3084 3261 2657 
Q 3669 2231 3669 1497 
Q 3669 778 3244 343 
Q 2819 -91 2113 -91 
Q 1303 -91 875 529 
Q 447 1150 447 2328 
Q 447 3434 972 4092 
Q 1497 4750 2381 4750 
Q 2619 4750 2861 4703 
Q 3103 4656 3366 4563 
z
" transform="scale(0.015625)"/>
       </defs>
       <use xlink:href="#DejaVuSans-30"/>
       <use xlink:href="#DejaVuSans-2e" x="63.623047"/>
       <use xlink:href="#DejaVuSans-36" x="95.410156"/>
      </g>
     </g>
    </g>
    <g id="xtick_5">
     <g id="line2d_5">
      <g>
       <use xlink:href="#m2d90558ede" x="416.945455" y="384.48" style="stroke: #000000; stroke-width: 0.8"/>
      </g>
     </g>
     <g id="text_5">
      <!-- 0.8 -->
      <g transform="translate(408.993892 399.078438) scale(0.1 -0.1)">
       <defs>
        <path id="DejaVuSans-38" d="M 2034 2216 
Q 1584 2216 1326 1975 
Q 1069 1734 1069 1313 
Q 1069 891 1326 650 
Q 1584 409 2034 409 
Q 2484 409 2743 651 
Q 3003 894 3003 1313 
Q 3003 1734 2745 1975 
Q 2488 2216 2034 2216 
z
M 1403 2484 
Q 997 2584 770 2862 
Q 544 3141 544 3541 
Q 544 4100 942 4425 
Q 1341 4750 2034 4750 
Q 2731 4750 3128 4425 
Q 3525 4100 3525 3541 
Q 3525 3141 3298 2862 
Q 3072 2584 2669 2484 
Q 3125 2378 3379 2068 
Q 3634 1759 3634 1313 
Q 3634 634 3220 271 
Q 2806 -91 2034 -91 
Q 1263 -91 848 271 
Q 434 634 434 1313 
Q 434 1759 690 2068 
Q 947 2378 1403 2484 
z
M 1172 3481 
Q 1172 3119 1398 2916 
Q 1625 2713 2034 2713 
Q 2441 2713 2670 2916 
Q 2900 3119 2900 3481 
Q 2900 3844 2670 4047 
Q 2441 4250 2034 4250 
Q 1625 4250 1398 4047 
Q 1172 3844 1172 3481 
z
" transform="scale(0.015625)"/>
       </defs>
       <use xlink:href="#DejaVuSans-30"/>
       <use xlink:href="#DejaVuSans-2e" x="63.623047"/>
       <use xlink:href="#DejaVuSans-38" x="95.410156"/>
      </g>
     </g>
    </g>
    <g id="xtick_6">
     <g id="line2d_6">
      <g>
       <use xlink:href="#m2d90558ede" x="498.109091" y="384.48" style="stroke: #000000; stroke-width: 0.8"/>
      </g>
     </g>
     <g id="text_6">
      <!-- 1.0 -->
      <g transform="translate(490.157528 399.078438) scale(0.1 -0.1)">
       <defs>
        <path id="DejaVuSans-31" d="M 794 531 
L 1825 531 
L 1825 4091 
L 703 3866 
L 703 4441 
L 1819 4666 
L 2450 4666 
L 2450 531 
L 3481 531 
L 3481 0 
L 794 0 
L 794 531 
z
" transform="scale(0.015625)"/>
       </defs>
       <use xlink:href="#DejaVuSans-31"/>
       <use xlink:href="#DejaVuSans-2e" x="63.623047"/>
       <use xlink:href="#DejaVuSans-30" x="95.410156"/>
      </g>
     </g>
    </g>
   </g>
   <g id="matplotlib.axis_2">
    <g id="ytick_1">
     <g id="line2d_7">
      <defs>
       <path id="m830d3785fc" d="M 0 0 
L -3.5 0 
" style="stroke: #000000; stroke-width: 0.8"/>
      </defs>
      <g>
       <use xlink:href="#m830d3785fc" x="72" y="369.36" style="stroke: #000000; stroke-width: 0.8"/>
      </g>
     </g>
     <g id="text_7">
      <!-- −5.0 -->
      <g transform="translate(40.717187 373.159219) scale(0.1 -0.1)">
       <defs>
        <path id="DejaVuSans-2212" d="M 678 2272 
L 4684 2272 
L 4684 1741 
L 678 1741 
L 678 2272 
z
" transform="scale(0.015625)"/>
        <path id="DejaVuSans-35" d="M 691 4666 
L 3169 4666 
L 3169 4134 
L 1269 4134 
L 1269 2991 
Q 1406 3038 1543 3061 
Q 1681 3084 1819 3084 
Q 2600 3084 3056 2656 
Q 3513 2228 3513 1497 
Q 3513 744 3044 326 
Q 2575 -91 1722 -91 
Q 1428 -91 1123 -41 
Q 819 9 494 109 
L 494 744 
Q 775 591 1075 516 
Q 1375 441 1709 441 
Q 2250 441 2565 725 
Q 2881 1009 2881 1497 
Q 2881 1984 2565 2268 
Q 2250 2553 1709 2553 
Q 1456 2553 1204 2497 
Q 953 2441 691 2322 
L 691 4666 
z
" transform="scale(0.015625)"/>
       </defs>
       <use xlink:href="#DejaVuSans-2212"/>
       <use xlink:href="#DejaVuSans-35" x="83.789062"/>
       <use xlink:href="#DejaVuSans-2e" x="147.412109"/>
       <use xlink:href="#DejaVuSans-30" x="179.199219"/>
      </g>
     </g>
    </g>
    <g id="ytick_2">
     <g id="line2d_8">
      <g>
       <use xlink:href="#m830d3785fc" x="72" y="331.56" style="stroke: #000000; stroke-width: 0.8"/>
      </g>
     </g>
     <g id="text_8">
      <!-- −2.5 -->
      <g transform="translate(40.717187 335.359219) scale(0.1 -0.1)">
       <use xlink:href="#DejaVuSans-2212"/>
       <use xlink:href="#DejaVuSans-32" x="83.789062"/>
       <use xlink:href="#DejaVuSans-2e" x="147.412109"/>
       <use xlink:href="#DejaVuSans-35" x="179.199219"/>
      </g>
     </g>
    </g>
    <g id="ytick_3">
     <g id="line2d_9">
      <g>
       <use xlink:href="#m830d3785fc" x="72" y="293.76" style="stroke: #000000; stroke-width: 0.8"/>
      </g>
     </g>
     <g id="text_9">
      <!-- 0.0 -->
      <g transform="translate(49.096875 297.559219) scale(0.1 -0.1)">
       <use xlink:href="#DejaVuSans-30"/>
       <use xlink:href="#DejaVuSans-2e" x="63.623047"/>
       <use xlink:href="#DejaVuSans-30" x="95.410156"/>
      </g>
     </g>
    </g>
    <g id="ytick_4">
     <g id="line2d_10">
      <g>
       <use xlink:href="#m830d3785fc" x="72" y="255.96" style="stroke: #000000; stroke-width: 0.8"/>
      </g>
     </g>
     <g id="text_10">
      <!-- 2.5 -->
      <g transform="translate(49.096875 259.759219) scale(0.1 -0.1)">
       <use xlink:href="#DejaVuSans-32"/>
       <use xlink:href="#DejaVuSans-2e" x="63.623047"/>
       <use xlink:href="#DejaVuSans-35" x="95.410156"/>
      </g>
     </g>
    </g>
    <g id="ytick_5">
     <g id="line2d_11">
      <g>
       <use xlink:href="#m830d3785fc" x="72" y="218.16" style="stroke: #000000; stroke-width: 0.8"/>
      </g>
     </g>
     <g id="text_11">
      <!-- 5.0 -->
      <g transform="translate(49.096875 221.959219) scale(0.1 -0.1)">
       <use xlink:href="#DejaVuSans-35"/>
       <use xlink:href="#DejaVuSans-2e" x="63.623047"/>
       <use xlink:href="#DejaVuSans-30" x="95.410156"/>
      </g>
     </g>
    </g>
    <g id="ytick_6">
     <g id="line2d_12">
      <g>
       <use xlink:href="#m830d3785fc" x="72" y="180.36" style="stroke: #000000; stroke-width: 0.8"/>
      </g>
     </g>
     <g id="text_12">
      <!-- 7.5 -->
      <g transform="translate(49.096875 184.159219) scale(0.1 -0.1)">
       <defs>
        <path id="DejaVuSans-37" d="M 525 4666 
L 3525 4666 
L 3525 4397 
L 1831 0 
L 1172 0 
L 2766 4134 
L 525 4134 
L 525 4666 
z
" transform="scale(0.015625)"/>
       </defs>
       <use xlink:href="#DejaVuSans-37"/>
       <use xlink:href="#DejaVuSans-2e" x="63.623047"/>
       <use xlink:href="#DejaVuSans-35" x="95.410156"/>
      </g>
     </g>
    </g>
    <g id="ytick_7">
     <g id="line2d_13">
      <g>
       <use xlink:href="#m830d3785fc" x="72" y="142.56" style="stroke: #000000; stroke-width: 0.8"/>
      </g>
     </g>
     <g id="text_13">
      <!-- 10.0 -->
      <g transform="translate(42.734375 146.359219) scale(0.1 -0.1)">
       <use xlink:href="#DejaVuSans-31"/>
       <use xlink:href="#DejaVuSans-30" x="63.623047"/>
       <use xlink:href="#DejaVuSans-2e" x="127.246094"/>
       <use xlink:href="#DejaVuSans-30" x="159.033203"/>
      </g>
     </g>
    </g>
    <g id="ytick_8">
     <g id="line2d_14">
      <g>
       <use xlink:href="#m830d3785fc" x="72" y="104.76" style="stroke: #000000; stroke-width: 0.8"/>
      </g>
     </g>
     <g id="text_14">
      <!-- 12.5 -->
      <g transform="translate(42.734375 108.559219) scale(0.1 -0.1)">
       <use xlink:href="#DejaVuSans-31"/>
       <use xlink:href="#DejaVuSans-32" x="63.623047"/>
       <use xlink:href="#DejaVuSans-2e" x="127.246094"/>
       <use xlink:href="#DejaVuSans-35" x="159.033203"/>
      </g>
     </g>
    </g>
    <g id="ytick_9">
     <g id="line2d_15">
      <g>
       <use xlink:href="#m830d3785fc" x="72" y="66.96" style="stroke: #000000; stroke-width: 0.8"/>
      </g>
     </g>
     <g id="text_15">
      <!-- 15.0 -->
      <g transform="translate(42.734375 70.759219) scale(0.1 -0.1)">
       <use xlink:href="#DejaVuSans-31"/>
       <use xlink:href="#DejaVuSans-35" x="63.623047"/>
       <use xlink:href="#DejaVuSans-2e" x="127.246094"/>
       <use xlink:href="#DejaVuSans-30" x="159.033203"/>
      </g>
     </g>
    </g>
   </g>
   <g id="line2d_16">
    <path d="M 92.290909 330.96276 
L 96.349091 330.976368 
L 100.407273 331.014168 
L 104.465455 331.077672 
L 108.523636 331.16688 
L 112.581818 331.281792 
L 116.64 331.420896 
L 120.698182 331.584192 
L 124.756364 331.773192 
L 128.814545 331.984872 
L 132.872727 332.220744 
L 136.930909 332.479296 
L 140.989091 332.759016 
L 145.047273 333.061416 
L 149.105455 333.384984 
L 153.163636 333.726696 
L 157.221818 334.089576 
L 161.28 334.469088 
L 165.338182 334.866744 
L 169.396364 335.281032 
L 173.454545 335.71044 
L 177.512727 336.153456 
L 181.570909 336.61008 
L 185.629091 337.080312 
L 189.687273 337.559616 
L 193.745455 338.051016 
L 197.803636 338.551488 
L 201.861818 339.05952 
L 205.92 339.575112 
L 209.978182 340.098264 
L 214.036364 340.625952 
L 218.094545 341.159688 
L 222.152727 341.696448 
L 226.210909 342.236232 
L 230.269091 342.777528 
L 234.327273 343.321848 
L 238.385455 343.866168 
L 242.443636 344.412 
L 246.501818 344.95632 
L 250.56 345.50064 
L 254.618182 346.041936 
L 258.676364 346.583232 
L 262.734545 347.119992 
L 266.792727 347.65524 
L 270.850909 348.185952 
L 274.909091 348.712128 
L 278.967273 349.23528 
L 283.025455 349.752384 
L 287.083636 350.264952 
L 291.141818 350.772984 
L 295.2 351.273456 
L 299.258182 351.769392 
L 303.316364 352.257768 
L 307.374545 352.738584 
L 311.432727 353.213352 
L 315.490909 353.68056 
L 319.549091 354.140208 
L 323.607273 354.592296 
L 327.665455 355.036824 
L 331.723636 355.47228 
L 335.781818 355.900176 
L 339.84 356.319 
L 343.898182 356.728752 
L 347.956364 357.129432 
L 352.014545 357.52104 
L 356.072727 357.903576 
L 360.130909 358.27704 
L 364.189091 358.63992 
L 368.247273 358.99524 
L 372.305455 359.338464 
L 376.363636 359.672616 
L 380.421818 359.997696 
L 384.48 360.312192 
L 388.538182 360.616104 
L 392.596364 360.909432 
L 396.654545 361.192176 
L 400.712727 361.464336 
L 404.770909 361.727424 
L 408.829091 361.978416 
L 412.887273 362.218824 
L 416.945455 362.448648 
L 421.003636 362.667888 
L 425.061818 362.876544 
L 429.12 363.073104 
L 433.178182 363.25908 
L 437.236364 363.434472 
L 441.294545 363.59928 
L 445.352727 363.751992 
L 449.410909 363.89412 
L 453.469091 364.024152 
L 457.527273 364.1436 
L 461.585455 364.250952 
L 465.643636 364.34772 
L 469.701818 364.433904 
L 473.76 364.507992 
L 477.818182 364.569984 
L 481.876364 364.621392 
L 485.934545 364.662216 
L 489.992727 364.689432 
L 494.050909 364.707576 
L 498.109091 364.713624 
" clip-path="url(#pd51bbddc88)" style="fill: none; stroke: #000000; stroke-opacity: 0.5; stroke-linecap: square"/>
   </g>
   <g id="line2d_17">
    <path d="M 92.290909 305.9316 
L 96.349091 305.9316 
L 100.407273 305.928576 
L 104.465455 305.922528 
L 108.523636 305.914968 
L 112.581818 305.902872 
L 116.64 305.887752 
L 120.698182 305.868096 
L 124.756364 305.843904 
L 128.814545 305.812152 
L 132.872727 305.774352 
L 136.930909 305.72748 
L 140.989091 305.673048 
L 145.047273 305.608032 
L 149.105455 305.533944 
L 153.163636 305.446248 
L 157.221818 305.347968 
L 161.28 305.237592 
L 165.338182 305.113608 
L 169.396364 304.977528 
L 173.454545 304.826328 
L 177.512727 304.66152 
L 181.570909 304.481592 
L 185.629091 304.288056 
L 189.687273 304.077888 
L 193.745455 303.854112 
L 197.803636 303.615216 
L 201.861818 303.362712 
L 205.92 303.093576 
L 209.978182 302.810832 
L 214.036364 302.511456 
L 218.094545 302.199984 
L 222.152727 301.87188 
L 226.210909 301.530168 
L 230.269091 301.173336 
L 234.327273 300.802896 
L 238.385455 300.418848 
L 242.443636 300.01968 
L 246.501818 299.606904 
L 250.56 299.182032 
L 254.618182 298.74204 
L 258.676364 298.289952 
L 262.734545 297.824256 
L 266.792727 297.344952 
L 270.850909 296.853552 
L 274.909091 296.348544 
L 278.967273 295.832952 
L 283.025455 295.303752 
L 287.083636 294.762456 
L 291.141818 294.209064 
L 295.2 293.645088 
L 299.258182 293.067504 
L 303.316364 292.480848 
L 307.374545 291.882096 
L 311.432727 291.271248 
L 315.490909 290.651328 
L 319.549091 290.019312 
L 323.607273 289.378224 
L 327.665455 288.72504 
L 331.723636 288.064296 
L 335.781818 287.391456 
L 339.84 286.711056 
L 343.898182 286.021584 
L 347.956364 285.321528 
L 352.014545 284.615424 
L 356.072727 283.898736 
L 360.130909 283.176 
L 364.189091 282.444192 
L 368.247273 281.706336 
L 372.305455 280.96092 
L 376.363636 280.210968 
L 380.421818 279.453456 
L 384.48 278.691408 
L 388.538182 277.926336 
L 392.596364 277.155216 
L 396.654545 276.382584 
L 400.712727 275.606928 
L 404.770909 274.82976 
L 408.829091 274.05108 
L 412.887273 273.273912 
L 416.945455 272.499768 
L 421.003636 271.727136 
L 425.061818 270.960552 
L 429.12 270.200016 
L 433.178182 269.44704 
L 437.236364 268.70616 
L 441.294545 267.978888 
L 445.352727 267.268248 
L 449.410909 266.577264 
L 453.469091 265.90896 
L 457.527273 265.269384 
L 461.585455 264.663072 
L 465.643636 264.09456 
L 469.701818 263.569896 
L 473.76 263.09664 
L 477.818182 262.68084 
L 481.876364 262.328544 
L 485.934545 262.0458 
L 489.992727 261.840168 
L 494.050909 261.714672 
L 498.109091 261.672336 
" clip-path="url(#pd51bbddc88)" style="fill: none; stroke: #000000; stroke-opacity: 0.5; stroke-linecap: square"/>
   </g>
   <g id="line2d_18">
    <path d="M 92.290909 266.720904 
L 96.349091 266.701248 
L 100.407273 266.643792 
L 104.465455 266.548536 
L 108.523636 266.41548 
L 112.581818 266.247648 
L 116.64 266.042016 
L 120.698182 265.804632 
L 124.756364 265.533984 
L 128.814545 265.233096 
L 132.872727 264.901968 
L 136.930909 264.545136 
L 140.989091 264.1626 
L 145.047273 263.755872 
L 149.105455 263.329488 
L 153.163636 262.883448 
L 157.221818 262.419264 
L 161.28 261.941472 
L 165.338182 261.44856 
L 169.396364 260.945064 
L 173.454545 260.432496 
L 177.512727 259.910856 
L 181.570909 259.381656 
L 185.629091 258.84792 
L 189.687273 258.309648 
L 193.745455 257.76684 
L 197.803636 257.22252 
L 201.861818 256.676688 
L 205.92 256.129344 
L 209.978182 255.582 
L 214.036364 255.034656 
L 218.094545 254.4858 
L 222.152727 253.938456 
L 226.210909 253.391112 
L 230.269091 252.84528 
L 234.327273 252.297936 
L 238.385455 251.752104 
L 242.443636 251.206272 
L 246.501818 250.66044 
L 250.56 250.113096 
L 254.618182 249.567264 
L 258.676364 249.021432 
L 262.734545 248.474088 
L 266.792727 247.926744 
L 270.850909 247.3794 
L 274.909091 246.830544 
L 278.967273 246.281688 
L 283.025455 245.732832 
L 287.083636 245.180952 
L 291.141818 244.630584 
L 295.2 244.078704 
L 299.258182 243.526824 
L 303.316364 242.973432 
L 307.374545 242.421552 
L 311.432727 241.86816 
L 315.490909 241.314768 
L 319.549091 240.762888 
L 323.607273 240.21252 
L 327.665455 239.662152 
L 331.723636 239.113296 
L 335.781818 238.565952 
L 339.84 238.021632 
L 343.898182 237.480336 
L 347.956364 236.942064 
L 352.014545 236.408328 
L 356.072727 235.877616 
L 360.130909 235.354464 
L 364.189091 234.835848 
L 368.247273 234.324792 
L 372.305455 233.821296 
L 376.363636 233.326872 
L 380.421818 232.843032 
L 384.48 232.369776 
L 388.538182 231.91164 
L 392.596364 231.470136 
L 396.654545 231.0498 
L 400.712727 230.658192 
L 404.770909 230.307408 
L 408.829091 230.023152 
L 412.887273 229.856832 
L 416.945455 229.879512 
L 421.003636 230.132016 
L 425.061818 230.564448 
L 429.12 231.099696 
L 433.178182 231.690888 
L 437.236364 232.307784 
L 441.294545 232.936776 
L 445.352727 233.56728 
L 449.410909 234.191736 
L 453.469091 234.804096 
L 457.527273 235.398312 
L 461.585455 235.966824 
L 465.643636 236.503584 
L 469.701818 237.001032 
L 473.76 237.45312 
L 477.818182 237.852288 
L 481.876364 238.190976 
L 485.934545 238.463136 
L 489.992727 238.66272 
L 494.050909 238.78368 
L 498.109091 238.824504 
" clip-path="url(#pd51bbddc88)" style="fill: none; stroke: #000000; stroke-opacity: 0.5; stroke-linecap: square"/>
   </g>
   <g id="line2d_19">
    <path d="M 92.290909 245.72376 
L 96.349091 245.713176 
L 100.407273 245.6784 
L 104.465455 245.619432 
L 108.523636 245.537784 
L 112.581818 245.433456 
L 116.64 245.304936 
L 120.698182 245.152224 
L 124.756364 244.97532 
L 128.814545 244.775736 
L 132.872727 244.55196 
L 136.930909 244.30248 
L 140.989091 244.028808 
L 145.047273 243.730944 
L 149.105455 243.408888 
L 153.163636 243.061128 
L 157.221818 242.689176 
L 161.28 242.29152 
L 165.338182 241.869672 
L 169.396364 241.42212 
L 173.454545 240.951888 
L 177.512727 240.457464 
L 181.570909 239.94036 
L 185.629091 239.400576 
L 189.687273 238.838112 
L 193.745455 238.255992 
L 197.803636 237.654216 
L 201.861818 237.034296 
L 205.92 236.396232 
L 209.978182 235.74456 
L 214.036364 235.077768 
L 218.094545 234.400392 
L 222.152727 233.712432 
L 226.210909 233.016912 
L 230.269091 232.316856 
L 234.327273 231.612264 
L 238.385455 230.907672 
L 242.443636 230.204592 
L 246.501818 229.504536 
L 250.56 228.813552 
L 254.618182 228.130128 
L 258.676364 227.460312 
L 262.734545 226.807128 
L 266.792727 226.170576 
L 270.850909 225.55368 
L 274.909091 224.962488 
L 278.967273 224.397 
L 283.025455 223.861752 
L 287.083636 223.356744 
L 291.141818 222.886512 
L 295.2 222.45408 
L 299.258182 222.059448 
L 303.316364 221.70564 
L 307.374545 221.394168 
L 311.432727 221.126544 
L 315.490909 220.90428 
L 319.549091 220.727376 
L 323.607273 220.597344 
L 327.665455 220.514184 
L 331.723636 220.477896 
L 335.781818 220.48848 
L 339.84 220.544424 
L 343.898182 220.645728 
L 347.956364 220.79088 
L 352.014545 220.978368 
L 356.072727 221.208192 
L 360.130909 221.477328 
L 364.189091 221.784264 
L 368.247273 222.127488 
L 372.305455 222.505488 
L 376.363636 222.91524 
L 380.421818 223.35372 
L 384.48 223.819416 
L 388.538182 224.307792 
L 392.596364 224.815824 
L 396.654545 225.337464 
L 400.712727 225.86364 
L 404.770909 226.379232 
L 408.829091 226.860048 
L 412.887273 227.251656 
L 416.945455 227.48148 
L 421.003636 227.505672 
L 425.061818 227.372616 
L 429.12 227.157912 
L 433.178182 226.908432 
L 437.236364 226.648368 
L 441.294545 226.388304 
L 445.352727 226.1358 
L 449.410909 225.896904 
L 453.469091 225.671616 
L 457.527273 225.461448 
L 461.585455 225.269424 
L 465.643636 225.097056 
L 469.701818 224.942832 
L 473.76 224.808264 
L 477.818182 224.693352 
L 481.876364 224.599608 
L 485.934545 224.527032 
L 489.992727 224.474112 
L 494.050909 224.44236 
L 498.109091 224.431776 
" clip-path="url(#pd51bbddc88)" style="fill: none; stroke: #000000; stroke-opacity: 0.5; stroke-linecap: square"/>
   </g>
   <g id="line2d_20">
    <path d="M 92.290909 161.310312 
L 96.349091 161.304264 
L 100.407273 161.28612 
L 104.465455 161.25588 
L 108.523636 161.215056 
L 112.581818 161.160624 
L 116.64 161.094096 
L 120.698182 161.015472 
L 124.756364 160.926264 
L 128.814545 160.823448 
L 132.872727 160.710048 
L 136.930909 160.584552 
L 140.989091 160.448472 
L 145.047273 160.300296 
L 149.105455 160.140024 
L 153.163636 159.969168 
L 157.221818 159.786216 
L 161.28 159.594192 
L 165.338182 159.390072 
L 169.396364 159.17688 
L 173.454545 158.953104 
L 177.512727 158.721768 
L 181.570909 158.48136 
L 185.629091 158.234904 
L 189.687273 157.985424 
L 193.745455 157.74048 
L 197.803636 157.519728 
L 201.861818 157.376088 
L 205.92 157.469832 
L 209.978182 157.915872 
L 214.036364 158.537304 
L 218.094545 159.205608 
L 222.152727 159.876936 
L 226.210909 160.534656 
L 230.269091 161.17272 
L 234.327273 161.789616 
L 238.385455 162.380808 
L 242.443636 162.943272 
L 246.501818 163.47852 
L 250.56 163.983528 
L 254.618182 164.456784 
L 258.676364 164.896776 
L 262.734545 165.303504 
L 266.792727 165.673944 
L 270.850909 166.008096 
L 274.909091 166.30596 
L 278.967273 166.564512 
L 283.025455 166.785264 
L 287.083636 166.966704 
L 291.141818 167.10732 
L 295.2 167.210136 
L 299.258182 167.275152 
L 303.316364 167.302368 
L 307.374545 167.293296 
L 311.432727 167.253984 
L 315.490909 167.18292 
L 319.549091 167.089176 
L 323.607273 166.975776 
L 327.665455 166.85028 
L 331.723636 166.723272 
L 335.781818 166.602312 
L 339.84 166.497984 
L 343.898182 166.425408 
L 347.956364 166.393656 
L 352.014545 166.4118 
L 356.072727 166.4874 
L 360.130909 166.621968 
L 364.189091 166.813992 
L 368.247273 167.055912 
L 372.305455 167.338656 
L 376.363636 167.65164 
L 380.421818 167.985792 
L 384.48 168.330528 
L 388.538182 168.6798 
L 392.596364 169.024536 
L 396.654545 169.3602 
L 400.712727 169.682256 
L 404.770909 169.98768 
L 408.829091 170.273448 
L 412.887273 170.538048 
L 416.945455 170.778456 
L 421.003636 170.996184 
L 425.061818 171.18972 
L 429.12 171.357552 
L 433.178182 171.504216 
L 437.236364 171.626688 
L 441.294545 171.72648 
L 445.352727 171.806616 
L 449.410909 171.868608 
L 453.469091 171.912456 
L 457.527273 171.942696 
L 461.585455 171.959328 
L 465.643636 171.965376 
L 469.701818 171.963864 
L 473.76 171.956304 
L 477.818182 171.944208 
L 481.876364 171.932112 
L 485.934545 171.921528 
L 489.992727 171.910944 
L 494.050909 171.904896 
L 498.109091 171.903384 
" clip-path="url(#pd51bbddc88)" style="fill: none; stroke: #000000; stroke-opacity: 0.5; stroke-linecap: square"/>
   </g>
   <g id="line2d_21">
    <path d="M 92.290909 131.806656 
L 96.349091 131.971464 
L 100.407273 132.428088 
L 104.465455 133.103952 
L 108.523636 133.923456 
L 112.581818 134.835192 
L 116.64 135.804384 
L 120.698182 136.80684 
L 124.756364 137.828952 
L 128.814545 138.861648 
L 132.872727 139.89888 
L 136.930909 140.9346 
L 140.989091 141.965784 
L 145.047273 142.99092 
L 149.105455 144.006984 
L 153.163636 145.012464 
L 157.221818 146.005848 
L 161.28 146.987136 
L 165.338182 147.953304 
L 169.396364 148.904352 
L 173.454545 149.84028 
L 177.512727 150.756552 
L 181.570909 151.65468 
L 185.629091 152.530128 
L 189.687273 153.379872 
L 193.745455 154.197864 
L 197.803636 154.961424 
L 201.861818 155.617632 
L 205.92 156.006216 
L 209.978182 156.012264 
L 214.036364 155.809656 
L 218.094545 155.529936 
L 222.152727 155.21544 
L 226.210909 154.878264 
L 230.269091 154.52748 
L 234.327273 154.1646 
L 238.385455 153.791136 
L 242.443636 153.4086 
L 246.501818 153.018504 
L 250.56 152.62236 
L 254.618182 152.218656 
L 258.676364 151.808904 
L 262.734545 151.393104 
L 266.792727 150.97428 
L 270.850909 150.55092 
L 274.909091 150.126048 
L 278.967273 149.698152 
L 283.025455 149.271768 
L 287.083636 148.848408 
L 291.141818 148.432608 
L 295.2 148.03344 
L 299.258182 147.67056 
L 303.316364 147.404448 
L 307.374545 147.393864 
L 311.432727 147.830832 
L 315.490909 148.567176 
L 319.549091 149.38668 
L 323.607273 150.204672 
L 327.665455 150.983352 
L 331.723636 151.706088 
L 335.781818 152.35776 
L 339.84 152.92476 
L 343.898182 153.394992 
L 347.956364 153.759384 
L 352.014545 154.008864 
L 356.072727 154.138896 
L 360.130909 154.147968 
L 364.189091 154.04364 
L 368.247273 153.83196 
L 372.305455 153.528048 
L 376.363636 153.144 
L 380.421818 152.693424 
L 384.48 152.188416 
L 388.538182 151.644096 
L 392.596364 151.069536 
L 396.654545 150.47532 
L 400.712727 149.872032 
L 404.770909 149.270256 
L 408.829091 148.677552 
L 412.887273 148.104504 
L 416.945455 147.55716 
L 421.003636 147.046104 
L 425.061818 146.580408 
L 429.12 146.167632 
L 433.178182 145.816848 
L 437.236364 145.537128 
L 441.294545 145.33452 
L 445.352727 145.212048 
L 449.410909 145.174248 
L 453.469091 145.21356 
L 457.527273 145.320912 
L 461.585455 145.482696 
L 465.643636 145.680768 
L 469.701818 145.898496 
L 473.76 146.117736 
L 477.818182 146.326392 
L 481.876364 146.512368 
L 485.934545 146.666592 
L 489.992727 146.779992 
L 494.050909 146.851056 
L 498.109091 146.873736 
" clip-path="url(#pd51bbddc88)" style="fill: none; stroke: #000000; stroke-opacity: 0.5; stroke-linecap: square"/>
   </g>
   <g id="line2d_22">
    <path d="M 92.290909 123.15348 
L 96.349091 122.984136 
L 100.407273 122.51088 
L 104.465455 121.810824 
L 108.523636 120.958056 
L 112.581818 120.013056 
L 116.64 119.015136 
L 120.698182 117.99756 
L 124.756364 116.989056 
L 128.814545 116.018352 
L 132.872727 115.115688 
L 136.930909 114.306768 
L 140.989091 113.609736 
L 145.047273 113.020056 
L 149.105455 112.522608 
L 153.163636 112.094712 
L 157.221818 111.712176 
L 161.28 111.362904 
L 165.338182 111.031776 
L 169.396364 110.712744 
L 173.454545 110.401272 
L 177.512727 110.09736 
L 181.570909 109.804032 
L 185.629091 109.543968 
L 189.687273 109.407888 
L 193.745455 109.770768 
L 197.803636 110.848824 
L 201.861818 112.17636 
L 205.92 113.564376 
L 209.978182 114.97356 
L 214.036364 116.390304 
L 218.094545 117.807048 
L 222.152727 119.220768 
L 226.210909 120.631464 
L 230.269091 122.036112 
L 234.327273 123.4332 
L 238.385455 124.821216 
L 242.443636 126.201672 
L 246.501818 127.571544 
L 250.56 128.92932 
L 254.618182 130.276512 
L 258.676364 131.608584 
L 262.734545 132.925536 
L 266.792727 134.225856 
L 270.850909 135.509544 
L 274.909091 136.772064 
L 278.967273 138.013416 
L 283.025455 139.230576 
L 287.083636 140.417496 
L 291.141818 141.56964 
L 295.2 142.676424 
L 299.258182 143.715168 
L 303.316364 144.625392 
L 307.374545 145.242288 
L 311.432727 145.373832 
L 315.490909 145.163664 
L 319.549091 144.82044 
L 323.607273 144.42732 
L 327.665455 144.013032 
L 331.723636 143.58816 
L 335.781818 143.15724 
L 339.84 142.724808 
L 343.898182 142.290864 
L 347.956364 141.858432 
L 352.014545 141.426 
L 356.072727 140.99508 
L 360.130909 140.565672 
L 364.189091 140.137776 
L 368.247273 139.711392 
L 372.305455 139.28652 
L 376.363636 138.860136 
L 380.421818 138.433752 
L 384.48 138.007368 
L 388.538182 137.576448 
L 392.596364 137.142504 
L 396.654545 136.702512 
L 400.712727 136.25496 
L 404.770909 135.799848 
L 408.829091 135.335664 
L 412.887273 134.859384 
L 416.945455 134.375544 
L 421.003636 133.891704 
L 425.061818 133.500096 
L 429.12 133.844832 
L 433.178182 134.567568 
L 437.236364 135.258552 
L 441.294545 135.87696 
L 445.352727 136.409184 
L 449.410909 136.8522 
L 453.469091 137.204496 
L 457.527273 137.473632 
L 461.585455 137.670192 
L 465.643636 137.806272 
L 469.701818 137.89548 
L 473.76 137.949912 
L 477.818182 137.981664 
L 481.876364 137.998296 
L 485.934545 138.005856 
L 489.992727 138.007368 
L 494.050909 138.007368 
L 498.109091 138.007368 
" clip-path="url(#pd51bbddc88)" style="fill: none; stroke: #000000; stroke-opacity: 0.5; stroke-linecap: square"/>
   </g>
   <g id="line2d_23">
    <path d="M 92.290909 111.468744 
L 96.349091 111.455136 
L 100.407273 111.414312 
L 104.465455 111.34476 
L 108.523636 111.243456 
L 112.581818 111.105864 
L 116.64 110.927448 
L 120.698182 110.6946 
L 124.756364 110.396736 
L 128.814545 110.012688 
L 132.872727 109.521288 
L 136.930909 108.896832 
L 140.989091 108.13176 
L 145.047273 107.227584 
L 149.105455 106.206984 
L 153.163636 105.097176 
L 157.221818 103.926888 
L 161.28 102.727872 
L 165.338182 101.59236 
L 169.396364 101.07072 
L 173.454545 101.973384 
L 177.512727 103.284288 
L 181.570909 104.651136 
L 185.629091 106.002864 
L 189.687273 107.233632 
L 193.745455 107.959392 
L 197.803636 107.962416 
L 201.861818 107.703864 
L 205.92 107.369712 
L 209.978182 107.002296 
L 214.036364 106.6122 
L 218.094545 106.20396 
L 222.152727 105.7806 
L 226.210909 105.340608 
L 230.269091 104.88852 
L 234.327273 104.4198 
L 238.385455 103.938984 
L 242.443636 103.443048 
L 246.501818 102.935016 
L 250.56 102.411864 
L 254.618182 101.873592 
L 258.676364 101.323224 
L 262.734545 100.759248 
L 266.792727 100.180152 
L 270.850909 99.587448 
L 274.909091 98.982648 
L 278.967273 98.36424 
L 283.025455 97.735248 
L 287.083636 97.09416 
L 291.141818 96.447024 
L 295.2 95.799888 
L 299.258182 95.170896 
L 303.316364 94.635648 
L 307.374545 94.563072 
L 311.432727 95.535288 
L 315.490909 96.971688 
L 319.549091 98.503344 
L 323.607273 100.054656 
L 327.665455 101.60748 
L 331.723636 103.152744 
L 335.781818 104.685912 
L 339.84 106.206984 
L 343.898182 107.712936 
L 347.956364 109.202256 
L 352.014545 110.674944 
L 356.072727 112.129488 
L 360.130909 113.565888 
L 364.189091 114.982632 
L 368.247273 116.376696 
L 372.305455 117.749592 
L 376.363636 119.099808 
L 380.421818 120.425832 
L 384.48 121.726152 
L 388.538182 122.997744 
L 392.596364 124.24212 
L 396.654545 125.454744 
L 400.712727 126.634104 
L 404.770909 127.777176 
L 408.829091 128.880936 
L 412.887273 129.940848 
L 416.945455 130.949352 
L 421.003636 131.89284 
L 425.061818 132.67152 
L 429.12 132.636744 
L 433.178182 132.140808 
L 437.236364 131.585904 
L 441.294545 131.011344 
L 445.352727 130.424688 
L 449.410909 129.83652 
L 453.469091 129.249864 
L 457.527273 128.673792 
L 461.585455 128.114352 
L 465.643636 127.582128 
L 469.701818 127.08468 
L 473.76 126.629568 
L 477.818182 126.225864 
L 481.876364 125.88264 
L 485.934545 125.607456 
L 489.992727 125.404848 
L 494.050909 125.282376 
L 498.109091 125.241552 
" clip-path="url(#pd51bbddc88)" style="fill: none; stroke: #000000; stroke-opacity: 0.5; stroke-linecap: square"/>
   </g>
   <g id="patch_3">
    <path d="M 72 384.48 
L 72 51.84 
" style="fill: none; stroke: #000000; stroke-width: 0.8; stroke-linejoin: miter; stroke-linecap: square"/>
   </g>
   <g id="patch_4">
    <path d="M 518.4 384.48 
L 518.4 51.84 
" style="fill: none; stroke: #000000; stroke-width: 0.8; stroke-linejoin: miter; stroke-linecap: square"/>
   </g>
   <g id="patch_5">
    <path d="M 72 384.48 
L 518.4 384.48 
" style="fill: none; stroke: #000000; stroke-width: 0.8; stroke-linejoin: miter; stroke-linecap: square"/>
   </g>
   <g id="patch_6">
    <path d="M 72 51.84 
L 518.4 51.84 
" style="fill: none; stroke: #000000; stroke-width: 0.8; stroke-linejoin: miter; stroke-linecap: square"/>
   </g>
  </g>
 </g>
 <defs>
  <clipPath id="pd51bbddc88">
   <rect x="72" y="51.84" width="446.4" height="332.64"/>
  </clipPath>
 </defs>
</svg>
