<?xml version="1.0" encoding="utf-8" standalone="no"?>
<!DOCTYPE svg PUBLIC "-//W3C//DTD SVG 1.1//EN"
  "http://www.w3.org/Graphics/SVG/1.1/DTD/svg11.dtd">
<svg xmlns:xlink="http://www.w3.org/1999/xlink" width="576pt" height="432pt" viewBox="0 0 576 432" xmlns="http://www.w3.org/2000/svg" version="1.1">
 <metadata>
  <rdf:RDF xmlns:dc="http://purl.org/dc/elements/1.1/" xmlns:cc="http://creativecommons.org/ns#" xmlns:rdf="http://www.w3.org/1999/02/22-rdf-syntax-ns#">
   <cc:Work>
    <dc:type rdf:resource="http://purl.org/dc/dcmitype/StillImage"/>
    <dc:date>2023-05-02T22:19:56.332640</dc:date>
    <dc:format>image/svg+xml</dc:format>
    <dc:creator>
     <cc:Agent>
      <dc:title>Matplotlib v3.7.1, https://matplotlib.org/</dc:title>
     </cc:Agent>
    </dc:creator>
   </cc:Work>
  </rdf:RDF>
 </metadata>
 <defs>
  <style type="text/css">*{stroke-linejoin: round; stroke-linecap: butt}</style>
 </defs>
 <g id="figure_1">
  <g id="patch_1">
   <path d="M 0 432 
L 576 432 
L 576 0 
L 0 0 
z
" style="fill: #ffffff"/>
  </g>
  <g id="axes_1">
   <g id="patch_2">
    <path d="M 72 384.48 
L 518.4 384.48 
L 518.4 51.84 
L 72 51.84 
z
" style="fill: #ffffff"/>
   </g>
   <g id="matplotlib.axis_1">
    <g id="xtick_1">
     <g id="line2d_1">
      <defs>
       <path id="m8e077a3ad6" d="M 0 0 
L 0 3.5 
" style="stroke: #000000; stroke-width: 0.8"/>
      </defs>
      <g>
       <use xlink:href="#m8e077a3ad6" x="92.290909" y="384.48" style="stroke: #000000; stroke-width: 0.8"/>
      </g>
     </g>
     <g id="text_1">
      <!-- 0.0 -->
      <g transform="translate(84.339347 399.078438) scale(0.1 -0.1)">
       <defs>
        <path id="DejaVuSans-30" d="M 2034 4250 
Q 1547 4250 1301 3770 
Q 1056 3291 1056 2328 
Q 1056 1369 1301 889 
Q 1547 409 2034 409 
Q 2525 409 2770 889 
Q 3016 1369 3016 2328 
Q 3016 3291 2770 3770 
Q 2525 4250 2034 4250 
z
M 2034 4750 
Q 2819 4750 3233 4129 
Q 3647 3509 3647 2328 
Q 3647 1150 3233 529 
Q 2819 -91 2034 -91 
Q 1250 -91 836 529 
Q 422 1150 422 2328 
Q 422 3509 836 4129 
Q 1250 4750 2034 4750 
z
" transform="scale(0.015625)"/>
        <path id="DejaVuSans-2e" d="M 684 794 
L 1344 794 
L 1344 0 
L 684 0 
L 684 794 
z
" transform="scale(0.015625)"/>
       </defs>
       <use xlink:href="#DejaVuSans-30"/>
       <use xlink:href="#DejaVuSans-2e" x="63.623047"/>
       <use xlink:href="#DejaVuSans-30" x="95.410156"/>
      </g>
     </g>
    </g>
    <g id="xtick_2">
     <g id="line2d_2">
      <g>
       <use xlink:href="#m8e077a3ad6" x="173.454545" y="384.48" style="stroke: #000000; stroke-width: 0.8"/>
      </g>
     </g>
     <g id="text_2">
      <!-- 0.2 -->
      <g transform="translate(165.502983 399.078438) scale(0.1 -0.1)">
       <defs>
        <path id="DejaVuSans-32" d="M 1228 531 
L 3431 531 
L 3431 0 
L 469 0 
L 469 531 
Q 828 903 1448 1529 
Q 2069 2156 2228 2338 
Q 2531 2678 2651 2914 
Q 2772 3150 2772 3378 
Q 2772 3750 2511 3984 
Q 2250 4219 1831 4219 
Q 1534 4219 1204 4116 
Q 875 4013 500 3803 
L 500 4441 
Q 881 4594 1212 4672 
Q 1544 4750 1819 4750 
Q 2544 4750 2975 4387 
Q 3406 4025 3406 3419 
Q 3406 3131 3298 2873 
Q 3191 2616 2906 2266 
Q 2828 2175 2409 1742 
Q 1991 1309 1228 531 
z
" transform="scale(0.015625)"/>
       </defs>
       <use xlink:href="#DejaVuSans-30"/>
       <use xlink:href="#DejaVuSans-2e" x="63.623047"/>
       <use xlink:href="#DejaVuSans-32" x="95.410156"/>
      </g>
     </g>
    </g>
    <g id="xtick_3">
     <g id="line2d_3">
      <g>
       <use xlink:href="#m8e077a3ad6" x="254.618182" y="384.48" style="stroke: #000000; stroke-width: 0.8"/>
      </g>
     </g>
     <g id="text_3">
      <!-- 0.4 -->
      <g transform="translate(246.666619 399.078438) scale(0.1 -0.1)">
       <defs>
        <path id="DejaVuSans-34" d="M 2419 4116 
L 825 1625 
L 2419 1625 
L 2419 4116 
z
M 2253 4666 
L 3047 4666 
L 3047 1625 
L 3713 1625 
L 3713 1100 
L 3047 1100 
L 3047 0 
L 2419 0 
L 2419 1100 
L 313 1100 
L 313 1709 
L 2253 4666 
z
" transform="scale(0.015625)"/>
       </defs>
       <use xlink:href="#DejaVuSans-30"/>
       <use xlink:href="#DejaVuSans-2e" x="63.623047"/>
       <use xlink:href="#DejaVuSans-34" x="95.410156"/>
      </g>
     </g>
    </g>
    <g id="xtick_4">
     <g id="line2d_4">
      <g>
       <use xlink:href="#m8e077a3ad6" x="335.781818" y="384.48" style="stroke: #000000; stroke-width: 0.8"/>
      </g>
     </g>
     <g id="text_4">
      <!-- 0.6 -->
      <g transform="translate(327.830256 399.078438) scale(0.1 -0.1)">
       <defs>
        <path id="DejaVuSans-36" d="M 2113 2584 
Q 1688 2584 1439 2293 
Q 1191 2003 1191 1497 
Q 1191 994 1439 701 
Q 1688 409 2113 409 
Q 2538 409 2786 701 
Q 3034 994 3034 1497 
Q 3034 2003 2786 2293 
Q 2538 2584 2113 2584 
z
M 3366 4563 
L 3366 3988 
Q 3128 4100 2886 4159 
Q 2644 4219 2406 4219 
Q 1781 4219 1451 3797 
Q 1122 3375 1075 2522 
Q 1259 2794 1537 2939 
Q 1816 3084 2150 3084 
Q 2853 3084 3261 2657 
Q 3669 2231 3669 1497 
Q 3669 778 3244 343 
Q 2819 -91 2113 -91 
Q 1303 -91 875 529 
Q 447 1150 447 2328 
Q 447 3434 972 4092 
Q 1497 4750 2381 4750 
Q 2619 4750 2861 4703 
Q 3103 4656 3366 4563 
z
" transform="scale(0.015625)"/>
       </defs>
       <use xlink:href="#DejaVuSans-30"/>
       <use xlink:href="#DejaVuSans-2e" x="63.623047"/>
       <use xlink:href="#DejaVuSans-36" x="95.410156"/>
      </g>
     </g>
    </g>
    <g id="xtick_5">
     <g id="line2d_5">
      <g>
       <use xlink:href="#m8e077a3ad6" x="416.945455" y="384.48" style="stroke: #000000; stroke-width: 0.8"/>
      </g>
     </g>
     <g id="text_5">
      <!-- 0.8 -->
      <g transform="translate(408.993892 399.078438) scale(0.1 -0.1)">
       <defs>
        <path id="DejaVuSans-38" d="M 2034 2216 
Q 1584 2216 1326 1975 
Q 1069 1734 1069 1313 
Q 1069 891 1326 650 
Q 1584 409 2034 409 
Q 2484 409 2743 651 
Q 3003 894 3003 1313 
Q 3003 1734 2745 1975 
Q 2488 2216 2034 2216 
z
M 1403 2484 
Q 997 2584 770 2862 
Q 544 3141 544 3541 
Q 544 4100 942 4425 
Q 1341 4750 2034 4750 
Q 2731 4750 3128 4425 
Q 3525 4100 3525 3541 
Q 3525 3141 3298 2862 
Q 3072 2584 2669 2484 
Q 3125 2378 3379 2068 
Q 3634 1759 3634 1313 
Q 3634 634 3220 271 
Q 2806 -91 2034 -91 
Q 1263 -91 848 271 
Q 434 634 434 1313 
Q 434 1759 690 2068 
Q 947 2378 1403 2484 
z
M 1172 3481 
Q 1172 3119 1398 2916 
Q 1625 2713 2034 2713 
Q 2441 2713 2670 2916 
Q 2900 3119 2900 3481 
Q 2900 3844 2670 4047 
Q 2441 4250 2034 4250 
Q 1625 4250 1398 4047 
Q 1172 3844 1172 3481 
z
" transform="scale(0.015625)"/>
       </defs>
       <use xlink:href="#DejaVuSans-30"/>
       <use xlink:href="#DejaVuSans-2e" x="63.623047"/>
       <use xlink:href="#DejaVuSans-38" x="95.410156"/>
      </g>
     </g>
    </g>
    <g id="xtick_6">
     <g id="line2d_6">
      <g>
       <use xlink:href="#m8e077a3ad6" x="498.109091" y="384.48" style="stroke: #000000; stroke-width: 0.8"/>
      </g>
     </g>
     <g id="text_6">
      <!-- 1.0 -->
      <g transform="translate(490.157528 399.078438) scale(0.1 -0.1)">
       <defs>
        <path id="DejaVuSans-31" d="M 794 531 
L 1825 531 
L 1825 4091 
L 703 3866 
L 703 4441 
L 1819 4666 
L 2450 4666 
L 2450 531 
L 3481 531 
L 3481 0 
L 794 0 
L 794 531 
z
" transform="scale(0.015625)"/>
       </defs>
       <use xlink:href="#DejaVuSans-31"/>
       <use xlink:href="#DejaVuSans-2e" x="63.623047"/>
       <use xlink:href="#DejaVuSans-30" x="95.410156"/>
      </g>
     </g>
    </g>
   </g>
   <g id="matplotlib.axis_2">
    <g id="ytick_1">
     <g id="line2d_7">
      <defs>
       <path id="m6242624aa2" d="M 0 0 
L -3.5 0 
" style="stroke: #000000; stroke-width: 0.8"/>
      </defs>
      <g>
       <use xlink:href="#m6242624aa2" x="72" y="369.36" style="stroke: #000000; stroke-width: 0.8"/>
      </g>
     </g>
     <g id="text_7">
      <!-- −5.0 -->
      <g transform="translate(40.717187 373.159219) scale(0.1 -0.1)">
       <defs>
        <path id="DejaVuSans-2212" d="M 678 2272 
L 4684 2272 
L 4684 1741 
L 678 1741 
L 678 2272 
z
" transform="scale(0.015625)"/>
        <path id="DejaVuSans-35" d="M 691 4666 
L 3169 4666 
L 3169 4134 
L 1269 4134 
L 1269 2991 
Q 1406 3038 1543 3061 
Q 1681 3084 1819 3084 
Q 2600 3084 3056 2656 
Q 3513 2228 3513 1497 
Q 3513 744 3044 326 
Q 2575 -91 1722 -91 
Q 1428 -91 1123 -41 
Q 819 9 494 109 
L 494 744 
Q 775 591 1075 516 
Q 1375 441 1709 441 
Q 2250 441 2565 725 
Q 2881 1009 2881 1497 
Q 2881 1984 2565 2268 
Q 2250 2553 1709 2553 
Q 1456 2553 1204 2497 
Q 953 2441 691 2322 
L 691 4666 
z
" transform="scale(0.015625)"/>
       </defs>
       <use xlink:href="#DejaVuSans-2212"/>
       <use xlink:href="#DejaVuSans-35" x="83.789062"/>
       <use xlink:href="#DejaVuSans-2e" x="147.412109"/>
       <use xlink:href="#DejaVuSans-30" x="179.199219"/>
      </g>
     </g>
    </g>
    <g id="ytick_2">
     <g id="line2d_8">
      <g>
       <use xlink:href="#m6242624aa2" x="72" y="331.56" style="stroke: #000000; stroke-width: 0.8"/>
      </g>
     </g>
     <g id="text_8">
      <!-- −2.5 -->
      <g transform="translate(40.717187 335.359219) scale(0.1 -0.1)">
       <use xlink:href="#DejaVuSans-2212"/>
       <use xlink:href="#DejaVuSans-32" x="83.789062"/>
       <use xlink:href="#DejaVuSans-2e" x="147.412109"/>
       <use xlink:href="#DejaVuSans-35" x="179.199219"/>
      </g>
     </g>
    </g>
    <g id="ytick_3">
     <g id="line2d_9">
      <g>
       <use xlink:href="#m6242624aa2" x="72" y="293.76" style="stroke: #000000; stroke-width: 0.8"/>
      </g>
     </g>
     <g id="text_9">
      <!-- 0.0 -->
      <g transform="translate(49.096875 297.559219) scale(0.1 -0.1)">
       <use xlink:href="#DejaVuSans-30"/>
       <use xlink:href="#DejaVuSans-2e" x="63.623047"/>
       <use xlink:href="#DejaVuSans-30" x="95.410156"/>
      </g>
     </g>
    </g>
    <g id="ytick_4">
     <g id="line2d_10">
      <g>
       <use xlink:href="#m6242624aa2" x="72" y="255.96" style="stroke: #000000; stroke-width: 0.8"/>
      </g>
     </g>
     <g id="text_10">
      <!-- 2.5 -->
      <g transform="translate(49.096875 259.759219) scale(0.1 -0.1)">
       <use xlink:href="#DejaVuSans-32"/>
       <use xlink:href="#DejaVuSans-2e" x="63.623047"/>
       <use xlink:href="#DejaVuSans-35" x="95.410156"/>
      </g>
     </g>
    </g>
    <g id="ytick_5">
     <g id="line2d_11">
      <g>
       <use xlink:href="#m6242624aa2" x="72" y="218.16" style="stroke: #000000; stroke-width: 0.8"/>
      </g>
     </g>
     <g id="text_11">
      <!-- 5.0 -->
      <g transform="translate(49.096875 221.959219) scale(0.1 -0.1)">
       <use xlink:href="#DejaVuSans-35"/>
       <use xlink:href="#DejaVuSans-2e" x="63.623047"/>
       <use xlink:href="#DejaVuSans-30" x="95.410156"/>
      </g>
     </g>
    </g>
    <g id="ytick_6">
     <g id="line2d_12">
      <g>
       <use xlink:href="#m6242624aa2" x="72" y="180.36" style="stroke: #000000; stroke-width: 0.8"/>
      </g>
     </g>
     <g id="text_12">
      <!-- 7.5 -->
      <g transform="translate(49.096875 184.159219) scale(0.1 -0.1)">
       <defs>
        <path id="DejaVuSans-37" d="M 525 4666 
L 3525 4666 
L 3525 4397 
L 1831 0 
L 1172 0 
L 2766 4134 
L 525 4134 
L 525 4666 
z
" transform="scale(0.015625)"/>
       </defs>
       <use xlink:href="#DejaVuSans-37"/>
       <use xlink:href="#DejaVuSans-2e" x="63.623047"/>
       <use xlink:href="#DejaVuSans-35" x="95.410156"/>
      </g>
     </g>
    </g>
    <g id="ytick_7">
     <g id="line2d_13">
      <g>
       <use xlink:href="#m6242624aa2" x="72" y="142.56" style="stroke: #000000; stroke-width: 0.8"/>
      </g>
     </g>
     <g id="text_13">
      <!-- 10.0 -->
      <g transform="translate(42.734375 146.359219) scale(0.1 -0.1)">
       <use xlink:href="#DejaVuSans-31"/>
       <use xlink:href="#DejaVuSans-30" x="63.623047"/>
       <use xlink:href="#DejaVuSans-2e" x="127.246094"/>
       <use xlink:href="#DejaVuSans-30" x="159.033203"/>
      </g>
     </g>
    </g>
    <g id="ytick_8">
     <g id="line2d_14">
      <g>
       <use xlink:href="#m6242624aa2" x="72" y="104.76" style="stroke: #000000; stroke-width: 0.8"/>
      </g>
     </g>
     <g id="text_14">
      <!-- 12.5 -->
      <g transform="translate(42.734375 108.559219) scale(0.1 -0.1)">
       <use xlink:href="#DejaVuSans-31"/>
       <use xlink:href="#DejaVuSans-32" x="63.623047"/>
       <use xlink:href="#DejaVuSans-2e" x="127.246094"/>
       <use xlink:href="#DejaVuSans-35" x="159.033203"/>
      </g>
     </g>
    </g>
    <g id="ytick_9">
     <g id="line2d_15">
      <g>
       <use xlink:href="#m6242624aa2" x="72" y="66.96" style="stroke: #000000; stroke-width: 0.8"/>
      </g>
     </g>
     <g id="text_15">
      <!-- 15.0 -->
      <g transform="translate(42.734375 70.759219) scale(0.1 -0.1)">
       <use xlink:href="#DejaVuSans-31"/>
       <use xlink:href="#DejaVuSans-35" x="63.623047"/>
       <use xlink:href="#DejaVuSans-2e" x="127.246094"/>
       <use xlink:href="#DejaVuSans-30" x="159.033203"/>
      </g>
     </g>
    </g>
   </g>
   <g id="line2d_16">
    <path d="M 92.290909 378.312552 
L 96.349091 378.306504 
L 100.407273 378.286848 
L 104.465455 378.255096 
L 108.523636 378.211248 
L 112.581818 378.153792 
L 116.64 378.082728 
L 120.698182 378.00108 
L 124.756364 377.905824 
L 128.814545 377.79696 
L 132.872727 377.676 
L 136.930909 377.542944 
L 140.989091 377.397792 
L 145.047273 377.239032 
L 149.105455 377.066664 
L 153.163636 376.883712 
L 157.221818 376.687152 
L 161.28 376.476984 
L 165.338182 376.256232 
L 169.396364 376.02036 
L 173.454545 375.773904 
L 177.512727 375.515352 
L 181.570909 375.243192 
L 185.629091 374.957424 
L 189.687273 374.661072 
L 193.745455 374.351112 
L 197.803636 374.029056 
L 201.861818 373.694904 
L 205.92 373.348656 
L 209.978182 372.990312 
L 214.036364 372.61836 
L 218.094545 372.234312 
L 222.152727 371.838168 
L 226.210909 371.429928 
L 230.269091 371.009592 
L 234.327273 370.57716 
L 238.385455 370.132632 
L 242.443636 369.676008 
L 246.501818 369.205776 
L 250.56 368.72496 
L 254.618182 368.232048 
L 258.676364 367.72704 
L 262.734545 367.209936 
L 266.792727 366.682248 
L 270.850909 366.140952 
L 274.909091 365.589072 
L 278.967273 365.025096 
L 283.025455 364.449024 
L 287.083636 363.862368 
L 291.141818 363.262104 
L 295.2 362.652768 
L 299.258182 362.029824 
L 303.316364 361.396296 
L 307.374545 360.752184 
L 311.432727 360.095976 
L 315.490909 359.429184 
L 319.549091 358.750296 
L 323.607273 358.060824 
L 327.665455 357.360768 
L 331.723636 356.650128 
L 335.781818 355.927392 
L 339.84 355.194072 
L 343.898182 354.45168 
L 347.956364 353.697192 
L 352.014545 352.93212 
L 356.072727 352.156464 
L 360.130909 351.371736 
L 364.189091 350.574912 
L 368.247273 349.769016 
L 372.305455 348.954048 
L 376.363636 348.126984 
L 380.421818 347.29236 
L 384.48 346.44564 
L 388.538182 345.59136 
L 392.596364 344.726496 
L 396.654545 343.85256 
L 400.712727 342.969552 
L 404.770909 342.07596 
L 408.829091 341.174808 
L 412.887273 340.264584 
L 416.945455 339.345288 
L 421.003636 338.418432 
L 425.061818 337.482504 
L 429.12 336.537504 
L 433.178182 335.584944 
L 437.236364 334.624824 
L 441.294545 333.655632 
L 445.352727 332.680392 
L 449.410909 331.697592 
L 453.469091 330.707232 
L 457.527273 329.709312 
L 461.585455 328.705344 
L 465.643636 327.693816 
L 469.701818 326.677752 
L 473.76 325.654128 
L 477.818182 324.62748 
L 481.876364 323.594784 
L 485.934545 322.559064 
L 489.992727 321.526368 
L 494.050909 320.517864 
L 498.109091 319.816296 
" clip-path="url(#p84179f108c)" style="fill: none; stroke: #000000; stroke-opacity: 0.5; stroke-linecap: square"/>
   </g>
   <g id="line2d_17">
    <path d="M 92.290909 220.124088 
L 96.349091 220.232952 
L 100.407273 220.542912 
L 104.465455 221.014656 
L 108.523636 221.608872 
L 112.581818 222.292296 
L 116.64 223.039224 
L 120.698182 223.833024 
L 124.756364 224.663112 
L 128.814545 225.521928 
L 132.872727 226.401912 
L 136.930909 227.30004 
L 140.989091 228.211776 
L 145.047273 229.13712 
L 149.105455 230.071536 
L 153.163636 231.015024 
L 157.221818 231.96456 
L 161.28 232.921656 
L 165.338182 233.881776 
L 169.396364 234.847944 
L 173.454545 235.817136 
L 177.512727 236.789352 
L 181.570909 237.764592 
L 185.629091 238.742856 
L 189.687273 239.72112 
L 193.745455 240.702408 
L 197.803636 241.685208 
L 201.861818 242.668008 
L 205.92 243.653832 
L 209.978182 244.638144 
L 214.036364 245.62548 
L 218.094545 246.611304 
L 222.152727 247.600152 
L 226.210909 248.587488 
L 230.269091 249.577848 
L 234.327273 250.566696 
L 238.385455 251.558568 
L 242.443636 252.548928 
L 246.501818 253.542312 
L 250.56 254.535696 
L 254.618182 255.530592 
L 258.676364 256.527 
L 262.734545 257.523408 
L 266.792727 258.52284 
L 270.850909 259.523784 
L 274.909091 260.52624 
L 278.967273 261.53172 
L 283.025455 262.538712 
L 287.083636 263.547216 
L 291.141818 264.558744 
L 295.2 265.573296 
L 299.258182 266.590872 
L 303.316364 267.611472 
L 307.374545 268.635096 
L 311.432727 269.661744 
L 315.490909 270.691416 
L 319.549091 271.725624 
L 323.607273 272.761344 
L 327.665455 273.803112 
L 331.723636 274.846392 
L 335.781818 275.894208 
L 339.84 276.94656 
L 343.898182 278.001936 
L 347.956364 279.060336 
L 352.014545 280.123272 
L 356.072727 281.190744 
L 360.130909 282.259728 
L 364.189091 283.333248 
L 368.247273 284.409792 
L 372.305455 285.490872 
L 376.363636 286.573464 
L 380.421818 287.65908 
L 384.48 288.74772 
L 388.538182 289.839384 
L 392.596364 290.93256 
L 396.654545 292.02876 
L 400.712727 293.126472 
L 404.770909 294.225696 
L 408.829091 295.327944 
L 412.887273 296.430192 
L 416.945455 297.53244 
L 421.003636 298.6362 
L 425.061818 299.73996 
L 429.12 300.84372 
L 433.178182 301.94748 
L 437.236364 303.05124 
L 441.294545 304.153488 
L 445.352727 305.255736 
L 449.410909 306.35496 
L 453.469091 307.454184 
L 457.527273 308.550384 
L 461.585455 309.64356 
L 465.643636 310.735224 
L 469.701818 311.823864 
L 473.76 312.907968 
L 477.818182 313.989048 
L 481.876364 315.06408 
L 485.934545 316.133064 
L 489.992727 317.189952 
L 494.050909 318.213576 
L 498.109091 318.91968 
" clip-path="url(#p84179f108c)" style="fill: none; stroke: #000000; stroke-opacity: 0.5; stroke-linecap: square"/>
   </g>
   <g id="line2d_18">
    <path d="M 92.290909 213.428952 
L 96.349091 213.376032 
L 100.407273 213.312528 
L 104.465455 213.380568 
L 108.523636 213.5484 
L 112.581818 213.779736 
L 116.64 214.065504 
L 120.698182 214.398144 
L 124.756364 214.774632 
L 128.814545 215.193456 
L 132.872727 215.647056 
L 136.930909 216.135432 
L 140.989091 216.654048 
L 145.047273 217.19988 
L 149.105455 217.769904 
L 153.163636 218.362608 
L 157.221818 218.973456 
L 161.28 219.600936 
L 165.338182 220.242024 
L 169.396364 220.89672 
L 173.454545 221.560488 
L 177.512727 222.233328 
L 181.570909 222.913728 
L 185.629091 223.598664 
L 189.687273 224.288136 
L 193.745455 224.97912 
L 197.803636 225.673128 
L 201.861818 226.368648 
L 205.92 227.062656 
L 209.978182 227.755152 
L 214.036364 228.446136 
L 218.094545 229.134096 
L 222.152727 229.81752 
L 226.210909 230.49792 
L 230.269091 231.173784 
L 234.327273 231.845112 
L 238.385455 232.50888 
L 242.443636 233.168112 
L 246.501818 233.819784 
L 250.56 234.465408 
L 254.618182 235.10196 
L 258.676364 235.732464 
L 262.734545 236.353896 
L 266.792727 236.967768 
L 270.850909 237.572568 
L 274.909091 238.169808 
L 278.967273 238.756464 
L 283.025455 239.334048 
L 287.083636 239.901048 
L 291.141818 240.460488 
L 295.2 241.007832 
L 299.258182 241.546104 
L 303.316364 242.073792 
L 307.374545 242.590896 
L 311.432727 243.097416 
L 315.490909 243.593352 
L 319.549091 244.078704 
L 323.607273 244.55196 
L 327.665455 245.014632 
L 331.723636 245.465208 
L 335.781818 245.9052 
L 339.84 246.333096 
L 343.898182 246.750408 
L 347.956364 247.154112 
L 352.014545 247.547232 
L 356.072727 247.928256 
L 360.130909 248.297184 
L 364.189091 248.654016 
L 368.247273 248.998752 
L 372.305455 249.331392 
L 376.363636 249.650424 
L 380.421818 249.958872 
L 384.48 250.253712 
L 388.538182 250.536456 
L 392.596364 250.807104 
L 396.654545 251.064144 
L 400.712727 251.3106 
L 404.770909 251.541936 
L 408.829091 251.762688 
L 412.887273 251.969832 
L 416.945455 252.16488 
L 421.003636 252.347832 
L 425.061818 252.518688 
L 429.12 252.675936 
L 433.178182 252.8226 
L 437.236364 252.955656 
L 441.294545 253.078128 
L 445.352727 253.186992 
L 449.410909 253.286784 
L 453.469091 253.37448 
L 457.527273 253.451592 
L 461.585455 253.51812 
L 465.643636 253.575576 
L 469.701818 253.62396 
L 473.76 253.663272 
L 477.818182 253.695024 
L 481.876364 253.720728 
L 485.934545 253.738872 
L 489.992727 253.75248 
L 494.050909 253.76004 
L 498.109091 253.761552 
" clip-path="url(#p84179f108c)" style="fill: none; stroke: #000000; stroke-opacity: 0.5; stroke-linecap: square"/>
   </g>
   <g id="line2d_19">
    <path d="M 92.290909 212.95872 
L 96.349091 212.95116 
L 100.407273 212.848344 
L 104.465455 212.544432 
L 108.523636 212.115024 
L 112.581818 211.626648 
L 116.64 211.111056 
L 120.698182 210.59244 
L 124.756364 210.082896 
L 128.814545 209.59452 
L 132.872727 209.134872 
L 136.930909 208.71 
L 140.989091 208.325952 
L 145.047273 207.987264 
L 149.105455 207.698472 
L 153.163636 207.4626 
L 157.221818 207.284184 
L 161.28 207.163224 
L 165.338182 207.102744 
L 169.396364 207.104256 
L 173.454545 207.166248 
L 177.512727 207.290232 
L 181.570909 207.476208 
L 185.629091 207.71964 
L 189.687273 208.020528 
L 193.745455 208.37736 
L 197.803636 208.784088 
L 201.861818 209.242224 
L 205.92 209.744208 
L 209.978182 210.29004 
L 214.036364 210.875184 
L 218.094545 211.496616 
L 222.152727 212.1498 
L 226.210909 212.833224 
L 230.269091 213.543864 
L 234.327273 214.277184 
L 238.385455 215.031672 
L 242.443636 215.805816 
L 246.501818 216.59508 
L 250.56 217.397952 
L 254.618182 218.21292 
L 258.676364 219.03696 
L 262.734545 219.86856 
L 266.792727 220.706208 
L 270.850909 221.548392 
L 274.909091 222.3936 
L 278.967273 223.24032 
L 283.025455 224.085528 
L 287.083636 224.930736 
L 291.141818 225.77292 
L 295.2 226.61208 
L 299.258182 227.446704 
L 303.316364 228.273768 
L 307.374545 229.096296 
L 311.432727 229.909752 
L 315.490909 230.715648 
L 319.549091 231.51096 
L 323.607273 232.298712 
L 327.665455 233.074368 
L 331.723636 233.837928 
L 335.781818 234.590904 
L 339.84 235.330272 
L 343.898182 236.057544 
L 347.956364 236.771208 
L 352.014545 237.471264 
L 356.072727 238.1562 
L 360.130909 238.826016 
L 364.189091 239.482224 
L 368.247273 240.1218 
L 372.305455 240.746256 
L 376.363636 241.35408 
L 380.421818 241.945272 
L 384.48 242.521344 
L 388.538182 243.079272 
L 392.596364 243.620568 
L 396.654545 244.145232 
L 400.712727 244.651752 
L 404.770909 245.14164 
L 408.829091 245.614896 
L 412.887273 246.068496 
L 416.945455 246.505464 
L 421.003636 246.924288 
L 425.061818 247.324968 
L 429.12 247.705992 
L 433.178182 248.070384 
L 437.236364 248.41512 
L 441.294545 248.741712 
L 445.352727 249.048648 
L 449.410909 249.335928 
L 453.469091 249.603552 
L 457.527273 249.85152 
L 461.585455 250.07832 
L 465.643636 250.28244 
L 469.701818 250.466904 
L 473.76 250.628688 
L 477.818182 250.76628 
L 481.876364 250.87968 
L 485.934545 250.9704 
L 489.992727 251.035416 
L 494.050909 251.073216 
L 498.109091 251.086824 
" clip-path="url(#p84179f108c)" style="fill: none; stroke: #000000; stroke-opacity: 0.5; stroke-linecap: square"/>
   </g>
   <g id="line2d_20">
    <path d="M 92.290909 171.425592 
L 96.349091 171.389304 
L 100.407273 171.28044 
L 104.465455 171.100512 
L 108.523636 170.84952 
L 112.581818 170.532 
L 116.64 170.149464 
L 120.698182 169.704936 
L 124.756364 169.20144 
L 128.814545 168.642 
L 132.872727 168.031152 
L 136.930909 167.373432 
L 140.989091 166.671864 
L 145.047273 165.930984 
L 149.105455 165.15684 
L 153.163636 164.356992 
L 157.221818 163.540512 
L 161.28 162.724032 
L 165.338182 161.939304 
L 169.396364 161.269488 
L 173.454545 160.865784 
L 177.512727 160.694928 
L 181.570909 160.59816 
L 185.629091 160.557336 
L 189.687273 160.625376 
L 193.745455 160.831008 
L 197.803636 161.139456 
L 201.861818 161.509896 
L 205.92 161.918136 
L 209.978182 162.350568 
L 214.036364 162.799632 
L 218.094545 163.25928 
L 222.152727 163.728 
L 226.210909 164.201256 
L 230.269091 164.679048 
L 234.327273 165.158352 
L 238.385455 165.639168 
L 242.443636 166.119984 
L 246.501818 166.6008 
L 250.56 167.080104 
L 254.618182 167.556384 
L 258.676364 168.02964 
L 262.734545 168.499872 
L 266.792727 168.965568 
L 270.850909 169.42824 
L 274.909091 169.883352 
L 278.967273 170.33544 
L 283.025455 170.779968 
L 287.083636 171.218448 
L 291.141818 171.649368 
L 295.2 172.07424 
L 299.258182 172.491552 
L 303.316364 172.899792 
L 307.374545 173.301984 
L 311.432727 173.693592 
L 315.490909 174.07764 
L 319.549091 174.452616 
L 323.607273 174.81852 
L 327.665455 175.175352 
L 331.723636 175.5216 
L 335.781818 175.858776 
L 339.84 176.185368 
L 343.898182 176.501376 
L 347.956364 176.8068 
L 352.014545 177.10164 
L 356.072727 177.385896 
L 360.130909 177.659568 
L 364.189091 177.921144 
L 368.247273 178.172136 
L 372.305455 178.411032 
L 376.363636 178.637832 
L 380.421818 178.854048 
L 384.48 179.058168 
L 388.538182 179.250192 
L 392.596364 179.43012 
L 396.654545 179.597952 
L 400.712727 179.752176 
L 404.770909 179.895816 
L 408.829091 180.02736 
L 412.887273 180.146808 
L 416.945455 180.252648 
L 421.003636 180.347904 
L 425.061818 180.429552 
L 429.12 180.500616 
L 433.178182 180.559584 
L 437.236364 180.606456 
L 441.294545 180.642744 
L 445.352727 180.666936 
L 449.410909 180.682056 
L 453.469091 180.686592 
L 457.527273 180.682056 
L 461.585455 180.66996 
L 465.643636 180.650304 
L 469.701818 180.626112 
L 473.76 180.598896 
L 477.818182 180.568656 
L 481.876364 180.539928 
L 485.934545 180.512712 
L 489.992727 180.493056 
L 494.050909 180.479448 
L 498.109091 180.474912 
" clip-path="url(#p84179f108c)" style="fill: none; stroke: #000000; stroke-opacity: 0.5; stroke-linecap: square"/>
   </g>
   <g id="line2d_21">
    <path d="M 92.290909 153.387432 
L 96.349091 153.508392 
L 100.407273 153.7866 
L 104.465455 154.166112 
L 108.523636 154.621224 
L 112.581818 155.129256 
L 116.64 155.66904 
L 120.698182 156.22092 
L 124.756364 156.7728 
L 128.814545 157.311072 
L 132.872727 157.825152 
L 136.930909 158.308992 
L 140.989091 158.75352 
L 145.047273 159.1542 
L 149.105455 159.504984 
L 153.163636 159.801336 
L 157.221818 160.037208 
L 161.28 160.20504 
L 165.338182 160.291224 
L 169.396364 160.248888 
L 173.454545 159.99336 
L 177.512727 159.659208 
L 181.570909 159.476256 
L 185.629091 159.417288 
L 189.687273 159.3432 
L 193.745455 159.158736 
L 197.803636 158.865408 
L 201.861818 158.490432 
L 205.92 158.048928 
L 209.978182 157.554504 
L 214.036364 157.011696 
L 218.094545 156.428064 
L 222.152727 155.806632 
L 226.210909 155.153448 
L 230.269091 154.470024 
L 234.327273 153.76392 
L 238.385455 153.035136 
L 242.443636 152.292744 
L 246.501818 151.538256 
L 250.56 150.779232 
L 254.618182 150.023232 
L 258.676364 149.28084 
L 262.734545 148.567176 
L 266.792727 147.903408 
L 270.850909 147.321288 
L 274.909091 146.8692 
L 278.967273 146.601576 
L 283.025455 146.572848 
L 287.083636 146.798136 
L 291.141818 147.248712 
L 295.2 147.86712 
L 299.258182 148.60044 
L 303.316364 149.406336 
L 307.374545 150.25608 
L 311.432727 151.13304 
L 315.490909 152.023608 
L 319.549091 152.918712 
L 323.607273 153.815328 
L 327.665455 154.707408 
L 331.723636 155.591928 
L 335.781818 156.467376 
L 339.84 157.330728 
L 343.898182 158.181984 
L 347.956364 159.019632 
L 352.014545 159.843672 
L 356.072727 160.65108 
L 360.130909 161.443368 
L 364.189091 162.219024 
L 368.247273 162.97956 
L 372.305455 163.72044 
L 376.363636 164.4462 
L 380.421818 165.153816 
L 384.48 165.843288 
L 388.538182 166.514616 
L 392.596364 167.169312 
L 396.654545 167.804352 
L 400.712727 168.421248 
L 404.770909 169.02 
L 408.829091 169.600608 
L 412.887273 170.16156 
L 416.945455 170.704368 
L 421.003636 171.229032 
L 425.061818 171.732528 
L 429.12 172.21788 
L 433.178182 172.683576 
L 437.236364 173.129616 
L 441.294545 173.554488 
L 445.352727 173.958192 
L 449.410909 174.34224 
L 453.469091 174.703608 
L 457.527273 175.042296 
L 461.585455 175.356792 
L 465.643636 175.647096 
L 469.701818 175.910184 
L 473.76 176.146056 
L 477.818182 176.350176 
L 481.876364 176.524056 
L 485.934545 176.661648 
L 489.992727 176.76144 
L 494.050909 176.823432 
L 498.109091 176.843088 
" clip-path="url(#p84179f108c)" style="fill: none; stroke: #000000; stroke-opacity: 0.5; stroke-linecap: square"/>
   </g>
   <g id="line2d_22">
    <path d="M 92.290909 153.118296 
L 96.349091 153.086544 
L 100.407273 153.065376 
L 104.465455 153.088056 
L 108.523636 153.150048 
L 112.581818 153.248328 
L 116.64 153.375336 
L 120.698182 153.531072 
L 124.756364 153.711 
L 128.814545 153.913608 
L 132.872727 154.137384 
L 136.930909 154.380816 
L 140.989091 154.64088 
L 145.047273 154.916064 
L 149.105455 155.203344 
L 153.163636 155.496672 
L 157.221818 155.79 
L 161.28 156.074256 
L 165.338182 156.328272 
L 169.396364 156.518784 
L 173.454545 156.57624 
L 177.512727 156.40236 
L 181.570909 155.927592 
L 185.629091 155.194272 
L 189.687273 154.299168 
L 193.745455 153.307296 
L 197.803636 152.25192 
L 201.861818 151.154208 
L 205.92 150.023232 
L 209.978182 148.86504 
L 214.036364 147.68568 
L 218.094545 146.488176 
L 222.152727 145.271016 
L 226.210909 144.040248 
L 230.269091 142.795872 
L 234.327273 141.537888 
L 238.385455 140.267808 
L 242.443636 138.988656 
L 246.501818 137.69892 
L 250.56 136.404648 
L 254.618182 135.133056 
L 258.676364 134.987904 
L 262.734545 135.863352 
L 266.792727 136.705536 
L 270.850909 137.452464 
L 274.909091 138.058776 
L 278.967273 138.460968 
L 283.025455 138.607632 
L 287.083636 138.480624 
L 291.141818 138.108672 
L 295.2 137.549232 
L 299.258182 136.855224 
L 303.316364 136.06596 
L 307.374545 135.210168 
L 311.432727 134.307504 
L 315.490909 133.36704 
L 319.549091 132.39936 
L 323.607273 131.407488 
L 327.665455 130.397472 
L 331.723636 129.370824 
L 335.781818 128.329056 
L 339.84 127.275192 
L 343.898182 126.210744 
L 347.956364 125.1342 
L 352.014545 124.048584 
L 356.072727 122.953896 
L 360.130909 121.850136 
L 364.189091 120.737304 
L 368.247273 119.6154 
L 372.305455 118.485936 
L 376.363636 117.348912 
L 380.421818 116.202816 
L 384.48 115.050672 
L 388.538182 113.889456 
L 392.596364 112.72068 
L 396.654545 111.544344 
L 400.712727 110.360448 
L 404.770909 109.168992 
L 408.829091 107.969976 
L 412.887273 106.764912 
L 416.945455 105.550776 
L 421.003636 104.32908 
L 425.061818 103.101336 
L 429.12 101.866032 
L 433.178182 100.623168 
L 437.236364 99.372744 
L 441.294545 98.116272 
L 445.352727 96.85224 
L 449.410909 95.58216 
L 453.469091 94.30452 
L 457.527273 93.022344 
L 461.585455 91.732608 
L 465.643636 90.436824 
L 469.701818 89.136504 
L 473.76 87.831648 
L 477.818182 86.522256 
L 481.876364 85.20984 
L 485.934545 83.895912 
L 489.992727 82.585008 
L 494.050909 81.292248 
L 498.109091 80.315496 
" clip-path="url(#p84179f108c)" style="fill: none; stroke: #000000; stroke-opacity: 0.5; stroke-linecap: square"/>
   </g>
   <g id="line2d_23">
    <path d="M 92.290909 143.072568 
L 96.349091 142.9758 
L 100.407273 142.694568 
L 104.465455 142.251552 
L 108.523636 141.67548 
L 112.581818 140.993568 
L 116.64 140.230008 
L 120.698182 139.404456 
L 124.756364 138.532032 
L 128.814545 137.624832 
L 132.872727 136.691928 
L 136.930909 135.742392 
L 140.989091 134.78076 
L 145.047273 133.814592 
L 149.105455 132.849936 
L 153.163636 131.89284 
L 157.221818 130.94784 
L 161.28 130.02552 
L 165.338182 129.130416 
L 169.396364 128.2716 
L 173.454545 127.46268 
L 177.512727 126.715752 
L 181.570909 126.045936 
L 185.629091 125.469864 
L 189.687273 125.007192 
L 193.745455 124.679088 
L 197.803636 124.49916 
L 201.861818 124.479504 
L 205.92 124.624656 
L 209.978182 124.927056 
L 214.036364 125.37612 
L 218.094545 125.952192 
L 222.152727 126.637128 
L 226.210909 127.408248 
L 230.269091 128.250432 
L 234.327273 129.145536 
L 238.385455 130.079952 
L 242.443636 131.040072 
L 246.501818 132.0138 
L 250.56 132.987528 
L 254.618182 133.920432 
L 258.676364 133.695144 
L 262.734545 132.402384 
L 266.792727 131.073336 
L 270.850909 129.732192 
L 274.909091 128.381976 
L 278.967273 127.0242 
L 283.025455 125.660376 
L 287.083636 124.290504 
L 291.141818 122.914584 
L 295.2 121.532616 
L 299.258182 120.1446 
L 303.316364 118.752048 
L 307.374545 117.35496 
L 311.432727 115.953336 
L 315.490909 114.547176 
L 319.549091 113.137992 
L 323.607273 111.72276 
L 327.665455 110.306016 
L 331.723636 108.884736 
L 335.781818 107.45892 
L 339.84 106.031592 
L 343.898182 104.599728 
L 347.956364 103.166352 
L 352.014545 101.729952 
L 356.072727 100.290528 
L 360.130909 98.849592 
L 364.189091 97.405632 
L 368.247273 95.961672 
L 372.305455 94.513176 
L 376.363636 93.066192 
L 380.421818 91.616184 
L 384.48 90.166176 
L 388.538182 88.714656 
L 392.596364 87.264648 
L 396.654545 85.81464 
L 400.712727 84.367656 
L 404.770909 82.922184 
L 408.829091 81.481248 
L 412.887273 80.04636 
L 416.945455 78.619032 
L 421.003636 77.205312 
L 425.061818 75.808224 
L 429.12 74.43684 
L 433.178182 73.104768 
L 437.236364 71.831664 
L 441.294545 70.65684 
L 445.352727 69.639264 
L 449.410909 68.884776 
L 453.469091 68.521896 
L 457.527273 68.635296 
L 461.585455 69.179616 
L 465.643636 70.026336 
L 469.701818 71.062056 
L 473.76 72.208152 
L 477.818182 73.422288 
L 481.876364 74.677248 
L 485.934545 75.957912 
L 489.992727 77.24916 
L 494.050909 78.531336 
L 498.109091 79.505064 
" clip-path="url(#p84179f108c)" style="fill: none; stroke: #000000; stroke-opacity: 0.5; stroke-linecap: square"/>
   </g>
   <g id="patch_3">
    <path d="M 72 384.48 
L 72 51.84 
" style="fill: none; stroke: #000000; stroke-width: 0.8; stroke-linejoin: miter; stroke-linecap: square"/>
   </g>
   <g id="patch_4">
    <path d="M 518.4 384.48 
L 518.4 51.84 
" style="fill: none; stroke: #000000; stroke-width: 0.8; stroke-linejoin: miter; stroke-linecap: square"/>
   </g>
   <g id="patch_5">
    <path d="M 72 384.48 
L 518.4 384.48 
" style="fill: none; stroke: #000000; stroke-width: 0.8; stroke-linejoin: miter; stroke-linecap: square"/>
   </g>
   <g id="patch_6">
    <path d="M 72 51.84 
L 518.4 51.84 
" style="fill: none; stroke: #000000; stroke-width: 0.8; stroke-linejoin: miter; stroke-linecap: square"/>
   </g>
  </g>
 </g>
 <defs>
  <clipPath id="p84179f108c">
   <rect x="72" y="51.84" width="446.4" height="332.64"/>
  </clipPath>
 </defs>
</svg>
