<?xml version="1.0" encoding="utf-8" standalone="no"?>
<!DOCTYPE svg PUBLIC "-//W3C//DTD SVG 1.1//EN"
  "http://www.w3.org/Graphics/SVG/1.1/DTD/svg11.dtd">
<svg xmlns:xlink="http://www.w3.org/1999/xlink" width="576pt" height="432pt" viewBox="0 0 576 432" xmlns="http://www.w3.org/2000/svg" version="1.1">
 <metadata>
  <rdf:RDF xmlns:dc="http://purl.org/dc/elements/1.1/" xmlns:cc="http://creativecommons.org/ns#" xmlns:rdf="http://www.w3.org/1999/02/22-rdf-syntax-ns#">
   <cc:Work>
    <dc:type rdf:resource="http://purl.org/dc/dcmitype/StillImage"/>
    <dc:date>2023-05-04T15:04:31.056509</dc:date>
    <dc:format>image/svg+xml</dc:format>
    <dc:creator>
     <cc:Agent>
      <dc:title>Matplotlib v3.7.1, https://matplotlib.org/</dc:title>
     </cc:Agent>
    </dc:creator>
   </cc:Work>
  </rdf:RDF>
 </metadata>
 <defs>
  <style type="text/css">*{stroke-linejoin: round; stroke-linecap: butt}</style>
 </defs>
 <g id="figure_1">
  <g id="patch_1">
   <path d="M 0 432 
L 576 432 
L 576 0 
L 0 0 
z
" style="fill: #ffffff"/>
  </g>
  <g id="axes_1">
   <g id="patch_2">
    <path d="M 72 384.48 
L 518.4 384.48 
L 518.4 51.84 
L 72 51.84 
z
" style="fill: #ffffff"/>
   </g>
   <g id="matplotlib.axis_1">
    <g id="xtick_1">
     <g id="line2d_1">
      <defs>
       <path id="m5a26bfeae0" d="M 0 0 
L 0 3.5 
" style="stroke: #000000; stroke-width: 0.8"/>
      </defs>
      <g>
       <use xlink:href="#m5a26bfeae0" x="92.290909" y="384.48" style="stroke: #000000; stroke-width: 0.8"/>
      </g>
     </g>
     <g id="text_1">
      <!-- 0.0 -->
      <g transform="translate(84.339347 399.078438) scale(0.1 -0.1)">
       <defs>
        <path id="DejaVuSans-30" d="M 2034 4250 
Q 1547 4250 1301 3770 
Q 1056 3291 1056 2328 
Q 1056 1369 1301 889 
Q 1547 409 2034 409 
Q 2525 409 2770 889 
Q 3016 1369 3016 2328 
Q 3016 3291 2770 3770 
Q 2525 4250 2034 4250 
z
M 2034 4750 
Q 2819 4750 3233 4129 
Q 3647 3509 3647 2328 
Q 3647 1150 3233 529 
Q 2819 -91 2034 -91 
Q 1250 -91 836 529 
Q 422 1150 422 2328 
Q 422 3509 836 4129 
Q 1250 4750 2034 4750 
z
" transform="scale(0.015625)"/>
        <path id="DejaVuSans-2e" d="M 684 794 
L 1344 794 
L 1344 0 
L 684 0 
L 684 794 
z
" transform="scale(0.015625)"/>
       </defs>
       <use xlink:href="#DejaVuSans-30"/>
       <use xlink:href="#DejaVuSans-2e" x="63.623047"/>
       <use xlink:href="#DejaVuSans-30" x="95.410156"/>
      </g>
     </g>
    </g>
    <g id="xtick_2">
     <g id="line2d_2">
      <g>
       <use xlink:href="#m5a26bfeae0" x="173.454545" y="384.48" style="stroke: #000000; stroke-width: 0.8"/>
      </g>
     </g>
     <g id="text_2">
      <!-- 0.2 -->
      <g transform="translate(165.502983 399.078438) scale(0.1 -0.1)">
       <defs>
        <path id="DejaVuSans-32" d="M 1228 531 
L 3431 531 
L 3431 0 
L 469 0 
L 469 531 
Q 828 903 1448 1529 
Q 2069 2156 2228 2338 
Q 2531 2678 2651 2914 
Q 2772 3150 2772 3378 
Q 2772 3750 2511 3984 
Q 2250 4219 1831 4219 
Q 1534 4219 1204 4116 
Q 875 4013 500 3803 
L 500 4441 
Q 881 4594 1212 4672 
Q 1544 4750 1819 4750 
Q 2544 4750 2975 4387 
Q 3406 4025 3406 3419 
Q 3406 3131 3298 2873 
Q 3191 2616 2906 2266 
Q 2828 2175 2409 1742 
Q 1991 1309 1228 531 
z
" transform="scale(0.015625)"/>
       </defs>
       <use xlink:href="#DejaVuSans-30"/>
       <use xlink:href="#DejaVuSans-2e" x="63.623047"/>
       <use xlink:href="#DejaVuSans-32" x="95.410156"/>
      </g>
     </g>
    </g>
    <g id="xtick_3">
     <g id="line2d_3">
      <g>
       <use xlink:href="#m5a26bfeae0" x="254.618182" y="384.48" style="stroke: #000000; stroke-width: 0.8"/>
      </g>
     </g>
     <g id="text_3">
      <!-- 0.4 -->
      <g transform="translate(246.666619 399.078438) scale(0.1 -0.1)">
       <defs>
        <path id="DejaVuSans-34" d="M 2419 4116 
L 825 1625 
L 2419 1625 
L 2419 4116 
z
M 2253 4666 
L 3047 4666 
L 3047 1625 
L 3713 1625 
L 3713 1100 
L 3047 1100 
L 3047 0 
L 2419 0 
L 2419 1100 
L 313 1100 
L 313 1709 
L 2253 4666 
z
" transform="scale(0.015625)"/>
       </defs>
       <use xlink:href="#DejaVuSans-30"/>
       <use xlink:href="#DejaVuSans-2e" x="63.623047"/>
       <use xlink:href="#DejaVuSans-34" x="95.410156"/>
      </g>
     </g>
    </g>
    <g id="xtick_4">
     <g id="line2d_4">
      <g>
       <use xlink:href="#m5a26bfeae0" x="335.781818" y="384.48" style="stroke: #000000; stroke-width: 0.8"/>
      </g>
     </g>
     <g id="text_4">
      <!-- 0.6 -->
      <g transform="translate(327.830256 399.078438) scale(0.1 -0.1)">
       <defs>
        <path id="DejaVuSans-36" d="M 2113 2584 
Q 1688 2584 1439 2293 
Q 1191 2003 1191 1497 
Q 1191 994 1439 701 
Q 1688 409 2113 409 
Q 2538 409 2786 701 
Q 3034 994 3034 1497 
Q 3034 2003 2786 2293 
Q 2538 2584 2113 2584 
z
M 3366 4563 
L 3366 3988 
Q 3128 4100 2886 4159 
Q 2644 4219 2406 4219 
Q 1781 4219 1451 3797 
Q 1122 3375 1075 2522 
Q 1259 2794 1537 2939 
Q 1816 3084 2150 3084 
Q 2853 3084 3261 2657 
Q 3669 2231 3669 1497 
Q 3669 778 3244 343 
Q 2819 -91 2113 -91 
Q 1303 -91 875 529 
Q 447 1150 447 2328 
Q 447 3434 972 4092 
Q 1497 4750 2381 4750 
Q 2619 4750 2861 4703 
Q 3103 4656 3366 4563 
z
" transform="scale(0.015625)"/>
       </defs>
       <use xlink:href="#DejaVuSans-30"/>
       <use xlink:href="#DejaVuSans-2e" x="63.623047"/>
       <use xlink:href="#DejaVuSans-36" x="95.410156"/>
      </g>
     </g>
    </g>
    <g id="xtick_5">
     <g id="line2d_5">
      <g>
       <use xlink:href="#m5a26bfeae0" x="416.945455" y="384.48" style="stroke: #000000; stroke-width: 0.8"/>
      </g>
     </g>
     <g id="text_5">
      <!-- 0.8 -->
      <g transform="translate(408.993892 399.078438) scale(0.1 -0.1)">
       <defs>
        <path id="DejaVuSans-38" d="M 2034 2216 
Q 1584 2216 1326 1975 
Q 1069 1734 1069 1313 
Q 1069 891 1326 650 
Q 1584 409 2034 409 
Q 2484 409 2743 651 
Q 3003 894 3003 1313 
Q 3003 1734 2745 1975 
Q 2488 2216 2034 2216 
z
M 1403 2484 
Q 997 2584 770 2862 
Q 544 3141 544 3541 
Q 544 4100 942 4425 
Q 1341 4750 2034 4750 
Q 2731 4750 3128 4425 
Q 3525 4100 3525 3541 
Q 3525 3141 3298 2862 
Q 3072 2584 2669 2484 
Q 3125 2378 3379 2068 
Q 3634 1759 3634 1313 
Q 3634 634 3220 271 
Q 2806 -91 2034 -91 
Q 1263 -91 848 271 
Q 434 634 434 1313 
Q 434 1759 690 2068 
Q 947 2378 1403 2484 
z
M 1172 3481 
Q 1172 3119 1398 2916 
Q 1625 2713 2034 2713 
Q 2441 2713 2670 2916 
Q 2900 3119 2900 3481 
Q 2900 3844 2670 4047 
Q 2441 4250 2034 4250 
Q 1625 4250 1398 4047 
Q 1172 3844 1172 3481 
z
" transform="scale(0.015625)"/>
       </defs>
       <use xlink:href="#DejaVuSans-30"/>
       <use xlink:href="#DejaVuSans-2e" x="63.623047"/>
       <use xlink:href="#DejaVuSans-38" x="95.410156"/>
      </g>
     </g>
    </g>
    <g id="xtick_6">
     <g id="line2d_6">
      <g>
       <use xlink:href="#m5a26bfeae0" x="498.109091" y="384.48" style="stroke: #000000; stroke-width: 0.8"/>
      </g>
     </g>
     <g id="text_6">
      <!-- 1.0 -->
      <g transform="translate(490.157528 399.078438) scale(0.1 -0.1)">
       <defs>
        <path id="DejaVuSans-31" d="M 794 531 
L 1825 531 
L 1825 4091 
L 703 3866 
L 703 4441 
L 1819 4666 
L 2450 4666 
L 2450 531 
L 3481 531 
L 3481 0 
L 794 0 
L 794 531 
z
" transform="scale(0.015625)"/>
       </defs>
       <use xlink:href="#DejaVuSans-31"/>
       <use xlink:href="#DejaVuSans-2e" x="63.623047"/>
       <use xlink:href="#DejaVuSans-30" x="95.410156"/>
      </g>
     </g>
    </g>
   </g>
   <g id="matplotlib.axis_2">
    <g id="ytick_1">
     <g id="line2d_7">
      <defs>
       <path id="m7b19ee66b5" d="M 0 0 
L -3.5 0 
" style="stroke: #000000; stroke-width: 0.8"/>
      </defs>
      <g>
       <use xlink:href="#m7b19ee66b5" x="72" y="369.36" style="stroke: #000000; stroke-width: 0.8"/>
      </g>
     </g>
     <g id="text_7">
      <!-- −5.0 -->
      <g transform="translate(40.717187 373.159219) scale(0.1 -0.1)">
       <defs>
        <path id="DejaVuSans-2212" d="M 678 2272 
L 4684 2272 
L 4684 1741 
L 678 1741 
L 678 2272 
z
" transform="scale(0.015625)"/>
        <path id="DejaVuSans-35" d="M 691 4666 
L 3169 4666 
L 3169 4134 
L 1269 4134 
L 1269 2991 
Q 1406 3038 1543 3061 
Q 1681 3084 1819 3084 
Q 2600 3084 3056 2656 
Q 3513 2228 3513 1497 
Q 3513 744 3044 326 
Q 2575 -91 1722 -91 
Q 1428 -91 1123 -41 
Q 819 9 494 109 
L 494 744 
Q 775 591 1075 516 
Q 1375 441 1709 441 
Q 2250 441 2565 725 
Q 2881 1009 2881 1497 
Q 2881 1984 2565 2268 
Q 2250 2553 1709 2553 
Q 1456 2553 1204 2497 
Q 953 2441 691 2322 
L 691 4666 
z
" transform="scale(0.015625)"/>
       </defs>
       <use xlink:href="#DejaVuSans-2212"/>
       <use xlink:href="#DejaVuSans-35" x="83.789062"/>
       <use xlink:href="#DejaVuSans-2e" x="147.412109"/>
       <use xlink:href="#DejaVuSans-30" x="179.199219"/>
      </g>
     </g>
    </g>
    <g id="ytick_2">
     <g id="line2d_8">
      <g>
       <use xlink:href="#m7b19ee66b5" x="72" y="331.56" style="stroke: #000000; stroke-width: 0.8"/>
      </g>
     </g>
     <g id="text_8">
      <!-- −2.5 -->
      <g transform="translate(40.717187 335.359219) scale(0.1 -0.1)">
       <use xlink:href="#DejaVuSans-2212"/>
       <use xlink:href="#DejaVuSans-32" x="83.789062"/>
       <use xlink:href="#DejaVuSans-2e" x="147.412109"/>
       <use xlink:href="#DejaVuSans-35" x="179.199219"/>
      </g>
     </g>
    </g>
    <g id="ytick_3">
     <g id="line2d_9">
      <g>
       <use xlink:href="#m7b19ee66b5" x="72" y="293.76" style="stroke: #000000; stroke-width: 0.8"/>
      </g>
     </g>
     <g id="text_9">
      <!-- 0.0 -->
      <g transform="translate(49.096875 297.559219) scale(0.1 -0.1)">
       <use xlink:href="#DejaVuSans-30"/>
       <use xlink:href="#DejaVuSans-2e" x="63.623047"/>
       <use xlink:href="#DejaVuSans-30" x="95.410156"/>
      </g>
     </g>
    </g>
    <g id="ytick_4">
     <g id="line2d_10">
      <g>
       <use xlink:href="#m7b19ee66b5" x="72" y="255.96" style="stroke: #000000; stroke-width: 0.8"/>
      </g>
     </g>
     <g id="text_10">
      <!-- 2.5 -->
      <g transform="translate(49.096875 259.759219) scale(0.1 -0.1)">
       <use xlink:href="#DejaVuSans-32"/>
       <use xlink:href="#DejaVuSans-2e" x="63.623047"/>
       <use xlink:href="#DejaVuSans-35" x="95.410156"/>
      </g>
     </g>
    </g>
    <g id="ytick_5">
     <g id="line2d_11">
      <g>
       <use xlink:href="#m7b19ee66b5" x="72" y="218.16" style="stroke: #000000; stroke-width: 0.8"/>
      </g>
     </g>
     <g id="text_11">
      <!-- 5.0 -->
      <g transform="translate(49.096875 221.959219) scale(0.1 -0.1)">
       <use xlink:href="#DejaVuSans-35"/>
       <use xlink:href="#DejaVuSans-2e" x="63.623047"/>
       <use xlink:href="#DejaVuSans-30" x="95.410156"/>
      </g>
     </g>
    </g>
    <g id="ytick_6">
     <g id="line2d_12">
      <g>
       <use xlink:href="#m7b19ee66b5" x="72" y="180.36" style="stroke: #000000; stroke-width: 0.8"/>
      </g>
     </g>
     <g id="text_12">
      <!-- 7.5 -->
      <g transform="translate(49.096875 184.159219) scale(0.1 -0.1)">
       <defs>
        <path id="DejaVuSans-37" d="M 525 4666 
L 3525 4666 
L 3525 4397 
L 1831 0 
L 1172 0 
L 2766 4134 
L 525 4134 
L 525 4666 
z
" transform="scale(0.015625)"/>
       </defs>
       <use xlink:href="#DejaVuSans-37"/>
       <use xlink:href="#DejaVuSans-2e" x="63.623047"/>
       <use xlink:href="#DejaVuSans-35" x="95.410156"/>
      </g>
     </g>
    </g>
    <g id="ytick_7">
     <g id="line2d_13">
      <g>
       <use xlink:href="#m7b19ee66b5" x="72" y="142.56" style="stroke: #000000; stroke-width: 0.8"/>
      </g>
     </g>
     <g id="text_13">
      <!-- 10.0 -->
      <g transform="translate(42.734375 146.359219) scale(0.1 -0.1)">
       <use xlink:href="#DejaVuSans-31"/>
       <use xlink:href="#DejaVuSans-30" x="63.623047"/>
       <use xlink:href="#DejaVuSans-2e" x="127.246094"/>
       <use xlink:href="#DejaVuSans-30" x="159.033203"/>
      </g>
     </g>
    </g>
    <g id="ytick_8">
     <g id="line2d_14">
      <g>
       <use xlink:href="#m7b19ee66b5" x="72" y="104.76" style="stroke: #000000; stroke-width: 0.8"/>
      </g>
     </g>
     <g id="text_14">
      <!-- 12.5 -->
      <g transform="translate(42.734375 108.559219) scale(0.1 -0.1)">
       <use xlink:href="#DejaVuSans-31"/>
       <use xlink:href="#DejaVuSans-32" x="63.623047"/>
       <use xlink:href="#DejaVuSans-2e" x="127.246094"/>
       <use xlink:href="#DejaVuSans-35" x="159.033203"/>
      </g>
     </g>
    </g>
    <g id="ytick_9">
     <g id="line2d_15">
      <g>
       <use xlink:href="#m7b19ee66b5" x="72" y="66.96" style="stroke: #000000; stroke-width: 0.8"/>
      </g>
     </g>
     <g id="text_15">
      <!-- 15.0 -->
      <g transform="translate(42.734375 70.759219) scale(0.1 -0.1)">
       <use xlink:href="#DejaVuSans-31"/>
       <use xlink:href="#DejaVuSans-35" x="63.623047"/>
       <use xlink:href="#DejaVuSans-2e" x="127.246094"/>
       <use xlink:href="#DejaVuSans-30" x="159.033203"/>
      </g>
     </g>
    </g>
   </g>
   <g id="line2d_16">
    <path d="M 92.290909 322.432056 
L 96.349091 322.429032 
L 100.407273 322.422984 
L 104.465455 322.4124 
L 108.523636 322.39728 
L 112.581818 322.377624 
L 116.64 322.353432 
L 120.698182 322.326216 
L 124.756364 322.292952 
L 128.814545 322.258176 
L 132.872727 322.217352 
L 136.930909 322.175016 
L 140.989091 322.128144 
L 145.047273 322.076736 
L 149.105455 322.023816 
L 153.163636 321.967872 
L 157.221818 321.907392 
L 161.28 321.846912 
L 165.338182 321.781896 
L 169.396364 321.715368 
L 173.454545 321.647328 
L 177.512727 321.577776 
L 181.570909 321.506712 
L 185.629091 321.434136 
L 189.687273 321.36156 
L 193.745455 321.288984 
L 197.803636 321.216408 
L 201.861818 321.143832 
L 205.92 321.071256 
L 209.978182 321.000192 
L 214.036364 320.93064 
L 218.094545 320.8626 
L 222.152727 320.797584 
L 226.210909 320.73408 
L 230.269091 320.675112 
L 234.327273 320.617656 
L 238.385455 320.563224 
L 242.443636 320.51484 
L 246.501818 320.46948 
L 250.56 320.428656 
L 254.618182 320.392368 
L 258.676364 320.360616 
L 262.734545 320.334912 
L 266.792727 320.315256 
L 270.850909 320.300136 
L 274.909091 320.291064 
L 278.967273 320.28804 
L 283.025455 320.291064 
L 287.083636 320.300136 
L 291.141818 320.315256 
L 295.2 320.336424 
L 299.258182 320.36364 
L 303.316364 320.395392 
L 307.374545 320.434704 
L 311.432727 320.478552 
L 315.490909 320.526936 
L 319.549091 320.581368 
L 323.607273 320.641848 
L 327.665455 320.705352 
L 331.723636 320.773392 
L 335.781818 320.845968 
L 339.84 320.92308 
L 343.898182 321.003216 
L 347.956364 321.084864 
L 352.014545 321.171048 
L 356.072727 321.258744 
L 360.130909 321.349464 
L 364.189091 321.441696 
L 368.247273 321.53544 
L 372.305455 321.629184 
L 376.363636 321.72444 
L 380.421818 321.819696 
L 384.48 321.914952 
L 388.538182 322.010208 
L 392.596364 322.105464 
L 396.654545 322.199208 
L 400.712727 322.29144 
L 404.770909 322.383672 
L 408.829091 322.47288 
L 412.887273 322.559064 
L 416.945455 322.643736 
L 421.003636 322.726896 
L 425.061818 322.807032 
L 429.12 322.882632 
L 433.178182 322.95672 
L 437.236364 323.026272 
L 441.294545 323.0928 
L 445.352727 323.154792 
L 449.410909 323.212248 
L 453.469091 323.26668 
L 457.527273 323.316576 
L 461.585455 323.363448 
L 465.643636 323.404272 
L 469.701818 323.44056 
L 473.76 323.472312 
L 477.818182 323.499528 
L 481.876364 323.522208 
L 485.934545 323.53884 
L 489.992727 323.550936 
L 494.050909 323.558496 
L 498.109091 323.56152 
" clip-path="url(#pf3708ba769)" style="fill: none; stroke: #000000; stroke-opacity: 0.5; stroke-linecap: square"/>
   </g>
   <g id="line2d_17">
    <path d="M 92.290909 317.885472 
L 96.349091 317.88396 
L 100.407273 317.877912 
L 104.465455 317.86884 
L 108.523636 317.855232 
L 112.581818 317.8386 
L 116.64 317.817432 
L 120.698182 317.79324 
L 124.756364 317.766024 
L 128.814545 317.734272 
L 132.872727 317.699496 
L 136.930909 317.661696 
L 140.989091 317.620872 
L 145.047273 317.575512 
L 149.105455 317.52864 
L 153.163636 317.478744 
L 157.221818 317.427336 
L 161.28 317.371392 
L 165.338182 317.313936 
L 169.396364 317.254968 
L 173.454545 317.192976 
L 177.512727 317.130984 
L 181.570909 317.065968 
L 185.629091 316.99944 
L 189.687273 316.932912 
L 193.745455 316.864872 
L 197.803636 316.79532 
L 201.861818 316.725768 
L 205.92 316.656216 
L 209.978182 316.586664 
L 214.036364 316.517112 
L 218.094545 316.44756 
L 222.152727 316.378008 
L 226.210909 316.309968 
L 230.269091 316.24344 
L 234.327273 316.176912 
L 238.385455 316.111896 
L 242.443636 316.048392 
L 246.501818 315.987912 
L 250.56 315.928944 
L 254.618182 315.871488 
L 258.676364 315.817056 
L 262.734545 315.764136 
L 266.792727 315.71424 
L 270.850909 315.667368 
L 274.909091 315.625032 
L 278.967273 315.584208 
L 283.025455 315.546408 
L 287.083636 315.513144 
L 291.141818 315.482904 
L 295.2 315.4572 
L 299.258182 315.43452 
L 303.316364 315.416376 
L 307.374545 315.401256 
L 311.432727 315.390672 
L 315.490909 315.384624 
L 319.549091 315.3816 
L 323.607273 315.383112 
L 327.665455 315.387648 
L 331.723636 315.39672 
L 335.781818 315.408816 
L 339.84 315.425448 
L 343.898182 315.445104 
L 347.956364 315.467784 
L 352.014545 315.495 
L 356.072727 315.523728 
L 360.130909 315.556992 
L 364.189091 315.591768 
L 368.247273 315.628056 
L 372.305455 315.66888 
L 376.363636 315.709704 
L 380.421818 315.753552 
L 384.48 315.7974 
L 388.538182 315.844272 
L 392.596364 315.891144 
L 396.654545 315.939528 
L 400.712727 315.987912 
L 404.770909 316.036296 
L 408.829091 316.08468 
L 412.887273 316.133064 
L 416.945455 316.179936 
L 421.003636 316.226808 
L 425.061818 316.27368 
L 429.12 316.31904 
L 433.178182 316.361376 
L 437.236364 316.403712 
L 441.294545 316.443024 
L 445.352727 316.482336 
L 449.410909 316.518624 
L 453.469091 316.551888 
L 457.527273 316.582128 
L 461.585455 316.610856 
L 465.643636 316.638072 
L 469.701818 316.660752 
L 473.76 316.680408 
L 477.818182 316.698552 
L 481.876364 316.71216 
L 485.934545 316.724256 
L 489.992727 316.731816 
L 494.050909 316.736352 
L 498.109091 316.737864 
" clip-path="url(#pf3708ba769)" style="fill: none; stroke: #000000; stroke-opacity: 0.5; stroke-linecap: square"/>
   </g>
   <g id="line2d_18">
    <path d="M 92.290909 246.269592 
L 96.349091 246.42684 
L 100.407273 246.624912 
L 104.465455 246.856248 
L 108.523636 247.120848 
L 112.581818 247.415688 
L 116.64 247.737744 
L 120.698182 248.087016 
L 124.756364 248.458968 
L 128.814545 248.852088 
L 132.872727 249.264864 
L 136.930909 249.69276 
L 140.989091 250.135776 
L 145.047273 250.590888 
L 149.105455 251.055072 
L 153.163636 251.528328 
L 157.221818 252.004608 
L 161.28 252.485424 
L 165.338182 252.967752 
L 169.396364 253.451592 
L 173.454545 253.930896 
L 177.512727 254.408688 
L 181.570909 254.880432 
L 185.629091 255.346128 
L 189.687273 255.805776 
L 193.745455 256.25484 
L 197.803636 256.69332 
L 201.861818 257.121216 
L 205.92 257.537016 
L 209.978182 257.939208 
L 214.036364 258.327792 
L 218.094545 258.701256 
L 222.152727 259.058088 
L 226.210909 259.3998 
L 230.269091 259.721856 
L 234.327273 260.02728 
L 238.385455 260.31456 
L 242.443636 260.582184 
L 246.501818 260.830152 
L 250.56 261.058464 
L 254.618182 261.265608 
L 258.676364 261.451584 
L 262.734545 261.617904 
L 266.792727 261.761544 
L 270.850909 261.884016 
L 274.909091 261.983808 
L 278.967273 262.063944 
L 283.025455 262.119888 
L 287.083636 262.154664 
L 291.141818 262.168272 
L 295.2 262.1592 
L 299.258182 262.127448 
L 303.316364 262.074528 
L 307.374545 262.00044 
L 311.432727 261.905184 
L 315.490909 261.787248 
L 319.549091 261.649656 
L 323.607273 261.490896 
L 327.665455 261.310968 
L 331.723636 261.111384 
L 335.781818 260.892144 
L 339.84 260.653248 
L 343.898182 260.396208 
L 347.956364 260.119512 
L 352.014545 259.826184 
L 356.072727 259.514712 
L 360.130909 259.186608 
L 364.189091 258.841872 
L 368.247273 258.482016 
L 372.305455 258.10704 
L 376.363636 257.718456 
L 380.421818 257.316264 
L 384.48 256.900464 
L 388.538182 256.475592 
L 392.596364 256.038624 
L 396.654545 255.592584 
L 400.712727 255.138984 
L 404.770909 254.677824 
L 408.829091 254.210616 
L 412.887273 253.738872 
L 416.945455 253.265616 
L 421.003636 252.789336 
L 425.061818 252.314568 
L 429.12 251.841312 
L 433.178182 251.372592 
L 437.236364 250.908408 
L 441.294545 250.453296 
L 445.352727 250.007256 
L 449.410909 249.573312 
L 453.469091 249.154488 
L 457.527273 248.750784 
L 461.585455 248.366736 
L 465.643636 248.005368 
L 469.701818 247.66668 
L 473.76 247.353696 
L 477.818182 247.06944 
L 481.876364 246.815424 
L 485.934545 246.594672 
L 489.992727 246.407184 
L 494.050909 246.254472 
L 498.109091 246.144096 
" clip-path="url(#pf3708ba769)" style="fill: none; stroke: #000000; stroke-opacity: 0.5; stroke-linecap: square"/>
   </g>
   <g id="line2d_19">
    <path d="M 92.290909 246.257496 
L 96.349091 246.138048 
L 100.407273 246.050352 
L 104.465455 245.998944 
L 108.523636 245.98836 
L 112.581818 246.014064 
L 116.64 246.077568 
L 120.698182 246.17736 
L 124.756364 246.31344 
L 128.814545 246.482784 
L 132.872727 246.68388 
L 136.930909 246.915216 
L 140.989091 247.17528 
L 145.047273 247.459536 
L 149.105455 247.767984 
L 153.163636 248.0976 
L 157.221818 248.44536 
L 161.28 248.809752 
L 165.338182 249.18624 
L 169.396364 249.576336 
L 173.454545 249.973992 
L 177.512727 250.379208 
L 181.570909 250.790472 
L 185.629091 251.20476 
L 189.687273 251.619048 
L 193.745455 252.033336 
L 197.803636 252.446112 
L 201.861818 252.854352 
L 205.92 253.258056 
L 209.978182 253.6542 
L 214.036364 254.041272 
L 218.094545 254.420784 
L 222.152727 254.7882 
L 226.210909 255.14352 
L 230.269091 255.486744 
L 234.327273 255.81636 
L 238.385455 256.129344 
L 242.443636 256.42872 
L 246.501818 256.709952 
L 250.56 256.97304 
L 254.618182 257.217984 
L 258.676364 257.444784 
L 262.734545 257.650416 
L 266.792727 257.836392 
L 270.850909 258.0012 
L 274.909091 258.14484 
L 278.967273 258.267312 
L 283.025455 258.367104 
L 287.083636 258.444216 
L 291.141818 258.497136 
L 295.2 258.528888 
L 299.258182 258.536448 
L 303.316364 258.521328 
L 307.374545 258.483528 
L 311.432727 258.421536 
L 315.490909 258.338376 
L 319.549091 258.231024 
L 323.607273 258.100992 
L 327.665455 257.94828 
L 331.723636 257.775912 
L 335.781818 257.580864 
L 339.84 257.364648 
L 343.898182 257.128776 
L 347.956364 256.87476 
L 352.014545 256.601088 
L 356.072727 256.309272 
L 360.130909 256.000824 
L 364.189091 255.677256 
L 368.247273 255.337056 
L 372.305455 254.98476 
L 376.363636 254.618856 
L 380.421818 254.240856 
L 384.48 253.852272 
L 388.538182 253.456128 
L 392.596364 253.050912 
L 396.654545 252.64116 
L 400.712727 252.22536 
L 404.770909 251.808048 
L 408.829091 251.389224 
L 412.887273 250.9704 
L 416.945455 250.5546 
L 421.003636 250.143336 
L 425.061818 249.73812 
L 429.12 249.343488 
L 433.178182 248.957928 
L 437.236364 248.587488 
L 441.294545 248.232168 
L 445.352727 247.894992 
L 449.410909 247.577472 
L 453.469091 247.284144 
L 457.527273 247.01652 
L 461.585455 246.776112 
L 465.643636 246.564432 
L 469.701818 246.386016 
L 473.76 246.240864 
L 477.818182 246.130488 
L 481.876364 246.0564 
L 485.934545 246.020112 
L 489.992727 246.021624 
L 494.050909 246.062448 
L 498.109091 246.135024 
" clip-path="url(#pf3708ba769)" style="fill: none; stroke: #000000; stroke-opacity: 0.5; stroke-linecap: square"/>
   </g>
   <g id="line2d_20">
    <path d="M 92.290909 192.490776 
L 96.349091 192.484728 
L 100.407273 192.456 
L 104.465455 192.389472 
L 108.523636 192.27456 
L 112.581818 192.102192 
L 116.64 191.867832 
L 120.698182 191.568456 
L 124.756364 191.205576 
L 128.814545 190.779192 
L 132.872727 190.289304 
L 136.930909 189.738936 
L 140.989091 189.128088 
L 145.047273 188.459784 
L 149.105455 187.735536 
L 153.163636 186.956856 
L 157.221818 186.12828 
L 161.28 185.25132 
L 165.338182 184.325976 
L 169.396364 183.356784 
L 173.454545 182.345256 
L 177.512727 181.291392 
L 181.570909 180.20124 
L 185.629091 179.071776 
L 189.687273 177.909048 
L 193.745455 176.711544 
L 197.803636 175.4838 
L 201.861818 174.224304 
L 205.92 172.93608 
L 209.978182 171.62064 
L 214.036364 170.277984 
L 218.094545 168.911136 
L 222.152727 167.521608 
L 226.210909 166.107888 
L 230.269091 164.673 
L 234.327273 163.218456 
L 238.385455 161.744256 
L 242.443636 160.253424 
L 246.501818 158.74596 
L 250.56 157.224888 
L 254.618182 155.690208 
L 258.676364 154.147968 
L 262.734545 152.596656 
L 266.792727 151.043832 
L 270.850909 149.495544 
L 274.909091 147.959352 
L 278.967273 146.451888 
L 283.025455 144.998856 
L 287.083636 143.651664 
L 291.141818 142.516152 
L 295.2 141.81912 
L 299.258182 141.900768 
L 303.316364 142.738416 
L 307.374545 143.969184 
L 311.432727 145.37232 
L 315.490909 146.857104 
L 319.549091 148.382712 
L 323.607273 149.929488 
L 327.665455 151.482312 
L 331.723636 153.036648 
L 335.781818 154.586448 
L 339.84 156.127176 
L 343.898182 157.655808 
L 347.956364 159.172344 
L 352.014545 160.67376 
L 356.072727 162.158544 
L 360.130909 163.626696 
L 364.189091 165.07368 
L 368.247273 166.501008 
L 372.305455 167.907168 
L 376.363636 169.290648 
L 380.421818 170.649936 
L 384.48 171.98352 
L 388.538182 173.292912 
L 392.596364 174.572064 
L 396.654545 175.824 
L 400.712727 177.045696 
L 404.770909 178.23564 
L 408.829091 179.39232 
L 412.887273 180.512712 
L 416.945455 181.598328 
L 421.003636 182.644632 
L 425.061818 183.651624 
L 429.12 184.61628 
L 433.178182 185.535576 
L 437.236364 186.409512 
L 441.294545 187.236576 
L 445.352727 188.012232 
L 449.410909 188.734968 
L 453.469091 189.404784 
L 457.527273 190.017144 
L 461.585455 190.57356 
L 465.643636 191.069496 
L 469.701818 191.506464 
L 473.76 191.88144 
L 477.818182 192.197448 
L 481.876364 192.452976 
L 485.934545 192.648024 
L 489.992727 192.787128 
L 494.050909 192.868776 
L 498.109091 192.895992 
" clip-path="url(#pf3708ba769)" style="fill: none; stroke: #000000; stroke-opacity: 0.5; stroke-linecap: square"/>
   </g>
   <g id="line2d_21">
    <path d="M 92.290909 191.417256 
L 96.349091 191.355264 
L 100.407273 191.175336 
L 104.465455 190.895616 
L 108.523636 190.529712 
L 112.581818 190.086696 
L 116.64 189.574128 
L 120.698182 188.996544 
L 124.756364 188.35848 
L 128.814545 187.664472 
L 132.872727 186.916032 
L 136.930909 186.114672 
L 140.989091 185.26644 
L 145.047273 184.371336 
L 149.105455 183.430872 
L 153.163636 182.449584 
L 157.221818 181.428984 
L 161.28 180.369072 
L 165.338182 179.272872 
L 169.396364 178.143408 
L 173.454545 176.98068 
L 177.512727 175.7862 
L 181.570909 174.56148 
L 185.629091 173.308032 
L 189.687273 172.02888 
L 193.745455 170.722512 
L 197.803636 169.39044 
L 201.861818 168.035688 
L 205.92 166.656744 
L 209.978182 165.256632 
L 214.036364 163.836864 
L 218.094545 162.395928 
L 222.152727 160.936848 
L 226.210909 159.461136 
L 230.269091 157.96728 
L 234.327273 156.459816 
L 238.385455 154.938744 
L 242.443636 153.405576 
L 246.501818 151.863336 
L 250.56 150.315048 
L 254.618182 148.763736 
L 258.676364 147.213936 
L 262.734545 145.67472 
L 266.792727 144.158184 
L 270.850909 142.685496 
L 274.909091 141.286896 
L 278.967273 140.0274 
L 283.025455 139.012848 
L 287.083636 138.405024 
L 291.141818 138.317328 
L 295.2 138.60612 
L 299.258182 138.920616 
L 303.316364 139.303152 
L 307.374545 140.030424 
L 311.432727 141.10092 
L 315.490909 142.389144 
L 319.549091 143.801352 
L 323.607273 145.283112 
L 327.665455 146.802672 
L 331.723636 148.340376 
L 335.781818 149.887152 
L 339.84 151.433928 
L 343.898182 152.97768 
L 347.956364 154.513872 
L 352.014545 156.03948 
L 356.072727 157.55148 
L 360.130909 159.049872 
L 364.189091 160.533144 
L 368.247273 161.998272 
L 372.305455 163.445256 
L 376.363636 164.872584 
L 380.421818 166.280256 
L 384.48 167.665248 
L 388.538182 169.029072 
L 392.596364 170.367192 
L 396.654545 171.68112 
L 400.712727 172.969344 
L 404.770909 174.22884 
L 408.829091 175.459608 
L 412.887273 176.661648 
L 416.945455 177.830424 
L 421.003636 178.967448 
L 425.061818 180.068184 
L 429.12 181.132632 
L 433.178182 182.15928 
L 437.236364 183.145104 
L 441.294545 184.088592 
L 445.352727 184.98672 
L 449.410909 185.836464 
L 453.469091 186.637824 
L 457.527273 187.387776 
L 461.585455 188.080272 
L 465.643636 188.715312 
L 469.701818 189.28836 
L 473.76 189.797904 
L 477.818182 190.237896 
L 481.876364 190.605312 
L 485.934545 190.895616 
L 489.992727 191.107296 
L 494.050909 191.235816 
L 498.109091 191.279664 
" clip-path="url(#pf3708ba769)" style="fill: none; stroke: #000000; stroke-opacity: 0.5; stroke-linecap: square"/>
   </g>
   <g id="line2d_22">
    <path d="M 92.290909 56.403216 
L 96.349091 56.44404 
L 100.407273 56.584656 
L 104.465455 56.877984 
L 108.523636 57.363336 
L 112.581818 58.030128 
L 116.64 58.861728 
L 120.698182 59.847552 
L 124.756364 60.973992 
L 128.814545 62.22744 
L 132.872727 63.594288 
L 136.930909 65.057904 
L 140.989091 66.60468 
L 145.047273 68.221008 
L 149.105455 69.897816 
L 153.163636 71.621496 
L 157.221818 73.387512 
L 161.28 75.186792 
L 165.338182 77.011776 
L 169.396364 78.860952 
L 173.454545 80.72676 
L 177.512727 82.607688 
L 181.570909 84.4992 
L 185.629091 86.399784 
L 189.687273 88.306416 
L 193.745455 90.217584 
L 197.803636 92.131776 
L 201.861818 94.045968 
L 205.92 95.958648 
L 209.978182 97.869816 
L 214.036364 99.77796 
L 218.094545 101.680056 
L 222.152727 103.577616 
L 226.210909 105.469128 
L 230.269091 107.351568 
L 234.327273 109.223424 
L 238.385455 111.084696 
L 242.443636 112.933872 
L 246.501818 114.767928 
L 250.56 116.585352 
L 254.618182 118.380096 
L 258.676364 120.149136 
L 262.734545 121.886424 
L 266.792727 123.578352 
L 270.850909 125.208288 
L 274.909091 126.745992 
L 278.967273 128.140056 
L 283.025455 129.298248 
L 287.083636 130.110192 
L 291.141818 130.575888 
L 295.2 130.93272 
L 299.258182 131.203368 
L 303.316364 131.074848 
L 307.374545 130.40352 
L 311.432727 129.30732 
L 315.490909 127.94652 
L 319.549091 126.42696 
L 323.607273 124.80912 
L 327.665455 123.126264 
L 331.723636 121.396536 
L 335.781818 119.633544 
L 339.84 117.843336 
L 343.898182 116.03196 
L 347.956364 114.20244 
L 352.014545 112.3578 
L 356.072727 110.499552 
L 360.130909 108.629208 
L 364.189091 106.749792 
L 368.247273 104.862816 
L 372.305455 102.966768 
L 376.363636 101.066184 
L 380.421818 99.161064 
L 384.48 97.251408 
L 388.538182 95.338728 
L 392.596364 93.424536 
L 396.654545 91.511856 
L 400.712727 89.600688 
L 404.770909 87.692544 
L 408.829091 85.790448 
L 412.887273 83.895912 
L 416.945455 82.010448 
L 421.003636 80.138592 
L 425.061818 78.281856 
L 429.12 76.446288 
L 433.178182 74.6334 
L 437.236364 72.852264 
L 441.294545 71.105904 
L 445.352727 69.403392 
L 449.410909 67.752288 
L 453.469091 66.163176 
L 457.527273 64.64664 
L 461.585455 63.2178 
L 465.643636 61.890264 
L 469.701818 60.67764 
L 473.76 59.595048 
L 477.818182 58.660632 
L 481.876364 57.881952 
L 485.934545 57.277152 
L 489.992727 56.879496 
L 494.050909 56.73132 
L 498.109091 56.699568 
" clip-path="url(#pf3708ba769)" style="fill: none; stroke: #000000; stroke-opacity: 0.5; stroke-linecap: square"/>
   </g>
   <g id="line2d_23">
    <path d="M 92.290909 55.957176 
L 96.349091 56.017656 
L 100.407273 56.183976 
L 104.465455 56.410776 
L 108.523636 56.666304 
L 112.581818 56.97324 
L 116.64 57.357288 
L 120.698182 57.841128 
L 124.756364 58.445928 
L 128.814545 59.18832 
L 132.872727 60.081912 
L 136.930909 61.128216 
L 140.989091 62.324208 
L 145.047273 63.65628 
L 149.105455 65.106288 
L 153.163636 66.654576 
L 157.221818 68.286024 
L 161.28 69.984 
L 165.338182 71.733384 
L 169.396364 73.525104 
L 173.454545 75.3516 
L 177.512727 77.202288 
L 181.570909 79.074144 
L 185.629091 80.962632 
L 189.687273 82.863216 
L 193.745455 84.77136 
L 197.803636 86.687064 
L 201.861818 88.605792 
L 205.92 90.526032 
L 209.978182 92.446272 
L 214.036364 94.365 
L 218.094545 96.282216 
L 222.152727 98.193384 
L 226.210909 100.100016 
L 230.269091 102.0006 
L 234.327273 103.893624 
L 238.385455 105.777576 
L 242.443636 107.650944 
L 246.501818 109.512216 
L 250.56 111.35988 
L 254.618182 113.190912 
L 258.676364 115.005312 
L 262.734545 116.79552 
L 266.792727 118.560024 
L 270.850909 120.286728 
L 274.909091 121.965048 
L 278.967273 123.572304 
L 283.025455 125.060112 
L 287.083636 126.333216 
L 291.141818 127.169352 
L 295.2 127.247976 
L 299.258182 126.553968 
L 303.316364 125.388216 
L 307.374545 123.972984 
L 311.432727 122.417136 
L 315.490909 120.775104 
L 319.549091 119.074104 
L 323.607273 117.33228 
L 327.665455 115.558704 
L 331.723636 113.759424 
L 335.781818 111.938976 
L 339.84 110.101896 
L 343.898182 108.249696 
L 347.956364 106.383888 
L 352.014545 104.507496 
L 356.072727 102.62052 
L 360.130909 100.724472 
L 364.189091 98.822376 
L 368.247273 96.91272 
L 372.305455 95.00004 
L 376.363636 93.082824 
L 380.421818 91.162584 
L 384.48 89.242344 
L 388.538182 87.322104 
L 392.596364 85.4064 
L 396.654545 83.49372 
L 400.712727 81.590112 
L 404.770909 79.697088 
L 408.829091 77.817672 
L 412.887273 75.957912 
L 416.945455 74.122344 
L 421.003636 72.318528 
L 425.061818 70.555536 
L 429.12 68.84244 
L 433.178182 67.195872 
L 437.236364 65.630952 
L 441.294545 64.165824 
L 445.352727 62.821656 
L 449.410909 61.618104 
L 453.469091 60.568776 
L 457.527273 59.678208 
L 461.585455 58.941864 
L 465.643636 58.346136 
L 469.701818 57.874392 
L 473.76 57.50244 
L 477.818182 57.216672 
L 481.876364 56.997432 
L 485.934545 56.831112 
L 489.992727 56.681424 
L 494.050909 56.501496 
L 498.109091 56.422872 
" clip-path="url(#pf3708ba769)" style="fill: none; stroke: #000000; stroke-opacity: 0.5; stroke-linecap: square"/>
   </g>
   <g id="patch_3">
    <path d="M 72 384.48 
L 72 51.84 
" style="fill: none; stroke: #000000; stroke-width: 0.8; stroke-linejoin: miter; stroke-linecap: square"/>
   </g>
   <g id="patch_4">
    <path d="M 518.4 384.48 
L 518.4 51.84 
" style="fill: none; stroke: #000000; stroke-width: 0.8; stroke-linejoin: miter; stroke-linecap: square"/>
   </g>
   <g id="patch_5">
    <path d="M 72 384.48 
L 518.4 384.48 
" style="fill: none; stroke: #000000; stroke-width: 0.8; stroke-linejoin: miter; stroke-linecap: square"/>
   </g>
   <g id="patch_6">
    <path d="M 72 51.84 
L 518.4 51.84 
" style="fill: none; stroke: #000000; stroke-width: 0.8; stroke-linejoin: miter; stroke-linecap: square"/>
   </g>
  </g>
 </g>
 <defs>
  <clipPath id="pf3708ba769">
   <rect x="72" y="51.84" width="446.4" height="332.64"/>
  </clipPath>
 </defs>
</svg>
