<?xml version="1.0" encoding="utf-8" standalone="no"?>
<!DOCTYPE svg PUBLIC "-//W3C//DTD SVG 1.1//EN"
  "http://www.w3.org/Graphics/SVG/1.1/DTD/svg11.dtd">
<svg xmlns:xlink="http://www.w3.org/1999/xlink" width="576pt" height="432pt" viewBox="0 0 576 432" xmlns="http://www.w3.org/2000/svg" version="1.1">
 <metadata>
  <rdf:RDF xmlns:dc="http://purl.org/dc/elements/1.1/" xmlns:cc="http://creativecommons.org/ns#" xmlns:rdf="http://www.w3.org/1999/02/22-rdf-syntax-ns#">
   <cc:Work>
    <dc:type rdf:resource="http://purl.org/dc/dcmitype/StillImage"/>
    <dc:date>2023-05-04T13:10:10.231563</dc:date>
    <dc:format>image/svg+xml</dc:format>
    <dc:creator>
     <cc:Agent>
      <dc:title>Matplotlib v3.7.1, https://matplotlib.org/</dc:title>
     </cc:Agent>
    </dc:creator>
   </cc:Work>
  </rdf:RDF>
 </metadata>
 <defs>
  <style type="text/css">*{stroke-linejoin: round; stroke-linecap: butt}</style>
 </defs>
 <g id="figure_1">
  <g id="patch_1">
   <path d="M 0 432 
L 576 432 
L 576 0 
L 0 0 
z
" style="fill: #ffffff"/>
  </g>
  <g id="axes_1">
   <g id="patch_2">
    <path d="M 72 384.48 
L 518.4 384.48 
L 518.4 51.84 
L 72 51.84 
z
" style="fill: #ffffff"/>
   </g>
   <g id="matplotlib.axis_1">
    <g id="xtick_1">
     <g id="line2d_1">
      <defs>
       <path id="m94f2d423ff" d="M 0 0 
L 0 3.5 
" style="stroke: #000000; stroke-width: 0.8"/>
      </defs>
      <g>
       <use xlink:href="#m94f2d423ff" x="92.290909" y="384.48" style="stroke: #000000; stroke-width: 0.8"/>
      </g>
     </g>
     <g id="text_1">
      <!-- 0.0 -->
      <g transform="translate(84.339347 399.078438) scale(0.1 -0.1)">
       <defs>
        <path id="DejaVuSans-30" d="M 2034 4250 
Q 1547 4250 1301 3770 
Q 1056 3291 1056 2328 
Q 1056 1369 1301 889 
Q 1547 409 2034 409 
Q 2525 409 2770 889 
Q 3016 1369 3016 2328 
Q 3016 3291 2770 3770 
Q 2525 4250 2034 4250 
z
M 2034 4750 
Q 2819 4750 3233 4129 
Q 3647 3509 3647 2328 
Q 3647 1150 3233 529 
Q 2819 -91 2034 -91 
Q 1250 -91 836 529 
Q 422 1150 422 2328 
Q 422 3509 836 4129 
Q 1250 4750 2034 4750 
z
" transform="scale(0.015625)"/>
        <path id="DejaVuSans-2e" d="M 684 794 
L 1344 794 
L 1344 0 
L 684 0 
L 684 794 
z
" transform="scale(0.015625)"/>
       </defs>
       <use xlink:href="#DejaVuSans-30"/>
       <use xlink:href="#DejaVuSans-2e" x="63.623047"/>
       <use xlink:href="#DejaVuSans-30" x="95.410156"/>
      </g>
     </g>
    </g>
    <g id="xtick_2">
     <g id="line2d_2">
      <g>
       <use xlink:href="#m94f2d423ff" x="173.454545" y="384.48" style="stroke: #000000; stroke-width: 0.8"/>
      </g>
     </g>
     <g id="text_2">
      <!-- 0.2 -->
      <g transform="translate(165.502983 399.078438) scale(0.1 -0.1)">
       <defs>
        <path id="DejaVuSans-32" d="M 1228 531 
L 3431 531 
L 3431 0 
L 469 0 
L 469 531 
Q 828 903 1448 1529 
Q 2069 2156 2228 2338 
Q 2531 2678 2651 2914 
Q 2772 3150 2772 3378 
Q 2772 3750 2511 3984 
Q 2250 4219 1831 4219 
Q 1534 4219 1204 4116 
Q 875 4013 500 3803 
L 500 4441 
Q 881 4594 1212 4672 
Q 1544 4750 1819 4750 
Q 2544 4750 2975 4387 
Q 3406 4025 3406 3419 
Q 3406 3131 3298 2873 
Q 3191 2616 2906 2266 
Q 2828 2175 2409 1742 
Q 1991 1309 1228 531 
z
" transform="scale(0.015625)"/>
       </defs>
       <use xlink:href="#DejaVuSans-30"/>
       <use xlink:href="#DejaVuSans-2e" x="63.623047"/>
       <use xlink:href="#DejaVuSans-32" x="95.410156"/>
      </g>
     </g>
    </g>
    <g id="xtick_3">
     <g id="line2d_3">
      <g>
       <use xlink:href="#m94f2d423ff" x="254.618182" y="384.48" style="stroke: #000000; stroke-width: 0.8"/>
      </g>
     </g>
     <g id="text_3">
      <!-- 0.4 -->
      <g transform="translate(246.666619 399.078438) scale(0.1 -0.1)">
       <defs>
        <path id="DejaVuSans-34" d="M 2419 4116 
L 825 1625 
L 2419 1625 
L 2419 4116 
z
M 2253 4666 
L 3047 4666 
L 3047 1625 
L 3713 1625 
L 3713 1100 
L 3047 1100 
L 3047 0 
L 2419 0 
L 2419 1100 
L 313 1100 
L 313 1709 
L 2253 4666 
z
" transform="scale(0.015625)"/>
       </defs>
       <use xlink:href="#DejaVuSans-30"/>
       <use xlink:href="#DejaVuSans-2e" x="63.623047"/>
       <use xlink:href="#DejaVuSans-34" x="95.410156"/>
      </g>
     </g>
    </g>
    <g id="xtick_4">
     <g id="line2d_4">
      <g>
       <use xlink:href="#m94f2d423ff" x="335.781818" y="384.48" style="stroke: #000000; stroke-width: 0.8"/>
      </g>
     </g>
     <g id="text_4">
      <!-- 0.6 -->
      <g transform="translate(327.830256 399.078438) scale(0.1 -0.1)">
       <defs>
        <path id="DejaVuSans-36" d="M 2113 2584 
Q 1688 2584 1439 2293 
Q 1191 2003 1191 1497 
Q 1191 994 1439 701 
Q 1688 409 2113 409 
Q 2538 409 2786 701 
Q 3034 994 3034 1497 
Q 3034 2003 2786 2293 
Q 2538 2584 2113 2584 
z
M 3366 4563 
L 3366 3988 
Q 3128 4100 2886 4159 
Q 2644 4219 2406 4219 
Q 1781 4219 1451 3797 
Q 1122 3375 1075 2522 
Q 1259 2794 1537 2939 
Q 1816 3084 2150 3084 
Q 2853 3084 3261 2657 
Q 3669 2231 3669 1497 
Q 3669 778 3244 343 
Q 2819 -91 2113 -91 
Q 1303 -91 875 529 
Q 447 1150 447 2328 
Q 447 3434 972 4092 
Q 1497 4750 2381 4750 
Q 2619 4750 2861 4703 
Q 3103 4656 3366 4563 
z
" transform="scale(0.015625)"/>
       </defs>
       <use xlink:href="#DejaVuSans-30"/>
       <use xlink:href="#DejaVuSans-2e" x="63.623047"/>
       <use xlink:href="#DejaVuSans-36" x="95.410156"/>
      </g>
     </g>
    </g>
    <g id="xtick_5">
     <g id="line2d_5">
      <g>
       <use xlink:href="#m94f2d423ff" x="416.945455" y="384.48" style="stroke: #000000; stroke-width: 0.8"/>
      </g>
     </g>
     <g id="text_5">
      <!-- 0.8 -->
      <g transform="translate(408.993892 399.078438) scale(0.1 -0.1)">
       <defs>
        <path id="DejaVuSans-38" d="M 2034 2216 
Q 1584 2216 1326 1975 
Q 1069 1734 1069 1313 
Q 1069 891 1326 650 
Q 1584 409 2034 409 
Q 2484 409 2743 651 
Q 3003 894 3003 1313 
Q 3003 1734 2745 1975 
Q 2488 2216 2034 2216 
z
M 1403 2484 
Q 997 2584 770 2862 
Q 544 3141 544 3541 
Q 544 4100 942 4425 
Q 1341 4750 2034 4750 
Q 2731 4750 3128 4425 
Q 3525 4100 3525 3541 
Q 3525 3141 3298 2862 
Q 3072 2584 2669 2484 
Q 3125 2378 3379 2068 
Q 3634 1759 3634 1313 
Q 3634 634 3220 271 
Q 2806 -91 2034 -91 
Q 1263 -91 848 271 
Q 434 634 434 1313 
Q 434 1759 690 2068 
Q 947 2378 1403 2484 
z
M 1172 3481 
Q 1172 3119 1398 2916 
Q 1625 2713 2034 2713 
Q 2441 2713 2670 2916 
Q 2900 3119 2900 3481 
Q 2900 3844 2670 4047 
Q 2441 4250 2034 4250 
Q 1625 4250 1398 4047 
Q 1172 3844 1172 3481 
z
" transform="scale(0.015625)"/>
       </defs>
       <use xlink:href="#DejaVuSans-30"/>
       <use xlink:href="#DejaVuSans-2e" x="63.623047"/>
       <use xlink:href="#DejaVuSans-38" x="95.410156"/>
      </g>
     </g>
    </g>
    <g id="xtick_6">
     <g id="line2d_6">
      <g>
       <use xlink:href="#m94f2d423ff" x="498.109091" y="384.48" style="stroke: #000000; stroke-width: 0.8"/>
      </g>
     </g>
     <g id="text_6">
      <!-- 1.0 -->
      <g transform="translate(490.157528 399.078438) scale(0.1 -0.1)">
       <defs>
        <path id="DejaVuSans-31" d="M 794 531 
L 1825 531 
L 1825 4091 
L 703 3866 
L 703 4441 
L 1819 4666 
L 2450 4666 
L 2450 531 
L 3481 531 
L 3481 0 
L 794 0 
L 794 531 
z
" transform="scale(0.015625)"/>
       </defs>
       <use xlink:href="#DejaVuSans-31"/>
       <use xlink:href="#DejaVuSans-2e" x="63.623047"/>
       <use xlink:href="#DejaVuSans-30" x="95.410156"/>
      </g>
     </g>
    </g>
   </g>
   <g id="matplotlib.axis_2">
    <g id="ytick_1">
     <g id="line2d_7">
      <defs>
       <path id="m94ca67cfa7" d="M 0 0 
L -3.5 0 
" style="stroke: #000000; stroke-width: 0.8"/>
      </defs>
      <g>
       <use xlink:href="#m94ca67cfa7" x="72" y="369.36" style="stroke: #000000; stroke-width: 0.8"/>
      </g>
     </g>
     <g id="text_7">
      <!-- −5.0 -->
      <g transform="translate(40.717187 373.159219) scale(0.1 -0.1)">
       <defs>
        <path id="DejaVuSans-2212" d="M 678 2272 
L 4684 2272 
L 4684 1741 
L 678 1741 
L 678 2272 
z
" transform="scale(0.015625)"/>
        <path id="DejaVuSans-35" d="M 691 4666 
L 3169 4666 
L 3169 4134 
L 1269 4134 
L 1269 2991 
Q 1406 3038 1543 3061 
Q 1681 3084 1819 3084 
Q 2600 3084 3056 2656 
Q 3513 2228 3513 1497 
Q 3513 744 3044 326 
Q 2575 -91 1722 -91 
Q 1428 -91 1123 -41 
Q 819 9 494 109 
L 494 744 
Q 775 591 1075 516 
Q 1375 441 1709 441 
Q 2250 441 2565 725 
Q 2881 1009 2881 1497 
Q 2881 1984 2565 2268 
Q 2250 2553 1709 2553 
Q 1456 2553 1204 2497 
Q 953 2441 691 2322 
L 691 4666 
z
" transform="scale(0.015625)"/>
       </defs>
       <use xlink:href="#DejaVuSans-2212"/>
       <use xlink:href="#DejaVuSans-35" x="83.789062"/>
       <use xlink:href="#DejaVuSans-2e" x="147.412109"/>
       <use xlink:href="#DejaVuSans-30" x="179.199219"/>
      </g>
     </g>
    </g>
    <g id="ytick_2">
     <g id="line2d_8">
      <g>
       <use xlink:href="#m94ca67cfa7" x="72" y="331.56" style="stroke: #000000; stroke-width: 0.8"/>
      </g>
     </g>
     <g id="text_8">
      <!-- −2.5 -->
      <g transform="translate(40.717187 335.359219) scale(0.1 -0.1)">
       <use xlink:href="#DejaVuSans-2212"/>
       <use xlink:href="#DejaVuSans-32" x="83.789062"/>
       <use xlink:href="#DejaVuSans-2e" x="147.412109"/>
       <use xlink:href="#DejaVuSans-35" x="179.199219"/>
      </g>
     </g>
    </g>
    <g id="ytick_3">
     <g id="line2d_9">
      <g>
       <use xlink:href="#m94ca67cfa7" x="72" y="293.76" style="stroke: #000000; stroke-width: 0.8"/>
      </g>
     </g>
     <g id="text_9">
      <!-- 0.0 -->
      <g transform="translate(49.096875 297.559219) scale(0.1 -0.1)">
       <use xlink:href="#DejaVuSans-30"/>
       <use xlink:href="#DejaVuSans-2e" x="63.623047"/>
       <use xlink:href="#DejaVuSans-30" x="95.410156"/>
      </g>
     </g>
    </g>
    <g id="ytick_4">
     <g id="line2d_10">
      <g>
       <use xlink:href="#m94ca67cfa7" x="72" y="255.96" style="stroke: #000000; stroke-width: 0.8"/>
      </g>
     </g>
     <g id="text_10">
      <!-- 2.5 -->
      <g transform="translate(49.096875 259.759219) scale(0.1 -0.1)">
       <use xlink:href="#DejaVuSans-32"/>
       <use xlink:href="#DejaVuSans-2e" x="63.623047"/>
       <use xlink:href="#DejaVuSans-35" x="95.410156"/>
      </g>
     </g>
    </g>
    <g id="ytick_5">
     <g id="line2d_11">
      <g>
       <use xlink:href="#m94ca67cfa7" x="72" y="218.16" style="stroke: #000000; stroke-width: 0.8"/>
      </g>
     </g>
     <g id="text_11">
      <!-- 5.0 -->
      <g transform="translate(49.096875 221.959219) scale(0.1 -0.1)">
       <use xlink:href="#DejaVuSans-35"/>
       <use xlink:href="#DejaVuSans-2e" x="63.623047"/>
       <use xlink:href="#DejaVuSans-30" x="95.410156"/>
      </g>
     </g>
    </g>
    <g id="ytick_6">
     <g id="line2d_12">
      <g>
       <use xlink:href="#m94ca67cfa7" x="72" y="180.36" style="stroke: #000000; stroke-width: 0.8"/>
      </g>
     </g>
     <g id="text_12">
      <!-- 7.5 -->
      <g transform="translate(49.096875 184.159219) scale(0.1 -0.1)">
       <defs>
        <path id="DejaVuSans-37" d="M 525 4666 
L 3525 4666 
L 3525 4397 
L 1831 0 
L 1172 0 
L 2766 4134 
L 525 4134 
L 525 4666 
z
" transform="scale(0.015625)"/>
       </defs>
       <use xlink:href="#DejaVuSans-37"/>
       <use xlink:href="#DejaVuSans-2e" x="63.623047"/>
       <use xlink:href="#DejaVuSans-35" x="95.410156"/>
      </g>
     </g>
    </g>
    <g id="ytick_7">
     <g id="line2d_13">
      <g>
       <use xlink:href="#m94ca67cfa7" x="72" y="142.56" style="stroke: #000000; stroke-width: 0.8"/>
      </g>
     </g>
     <g id="text_13">
      <!-- 10.0 -->
      <g transform="translate(42.734375 146.359219) scale(0.1 -0.1)">
       <use xlink:href="#DejaVuSans-31"/>
       <use xlink:href="#DejaVuSans-30" x="63.623047"/>
       <use xlink:href="#DejaVuSans-2e" x="127.246094"/>
       <use xlink:href="#DejaVuSans-30" x="159.033203"/>
      </g>
     </g>
    </g>
    <g id="ytick_8">
     <g id="line2d_14">
      <g>
       <use xlink:href="#m94ca67cfa7" x="72" y="104.76" style="stroke: #000000; stroke-width: 0.8"/>
      </g>
     </g>
     <g id="text_14">
      <!-- 12.5 -->
      <g transform="translate(42.734375 108.559219) scale(0.1 -0.1)">
       <use xlink:href="#DejaVuSans-31"/>
       <use xlink:href="#DejaVuSans-32" x="63.623047"/>
       <use xlink:href="#DejaVuSans-2e" x="127.246094"/>
       <use xlink:href="#DejaVuSans-35" x="159.033203"/>
      </g>
     </g>
    </g>
    <g id="ytick_9">
     <g id="line2d_15">
      <g>
       <use xlink:href="#m94ca67cfa7" x="72" y="66.96" style="stroke: #000000; stroke-width: 0.8"/>
      </g>
     </g>
     <g id="text_15">
      <!-- 15.0 -->
      <g transform="translate(42.734375 70.759219) scale(0.1 -0.1)">
       <use xlink:href="#DejaVuSans-31"/>
       <use xlink:href="#DejaVuSans-35" x="63.623047"/>
       <use xlink:href="#DejaVuSans-2e" x="127.246094"/>
       <use xlink:href="#DejaVuSans-30" x="159.033203"/>
      </g>
     </g>
    </g>
   </g>
   <g id="line2d_16">
    <path d="M 92.290909 322.106976 
L 96.349091 322.156872 
L 100.407273 322.303536 
L 104.465455 322.539408 
L 108.523636 322.852392 
L 112.581818 323.22888 
L 116.64 323.658288 
L 120.698182 324.130032 
L 124.756364 324.638064 
L 128.814545 325.1718 
L 132.872727 325.729728 
L 136.930909 326.3058 
L 140.989091 326.898504 
L 145.047273 327.503304 
L 149.105455 328.118688 
L 153.163636 328.743144 
L 157.221818 329.37516 
L 161.28 330.013224 
L 165.338182 330.657336 
L 169.396364 331.304472 
L 173.454545 331.956144 
L 177.512727 332.609328 
L 181.570909 333.264024 
L 185.629091 333.920232 
L 189.687273 334.577952 
L 193.745455 335.23416 
L 197.803636 335.890368 
L 201.861818 336.546576 
L 205.92 337.19976 
L 209.978182 337.851432 
L 214.036364 338.501592 
L 218.094545 339.147216 
L 222.152727 339.791328 
L 226.210909 340.430904 
L 230.269091 341.065944 
L 234.327273 341.69796 
L 238.385455 342.32544 
L 242.443636 342.946872 
L 246.501818 343.563768 
L 250.56 344.176128 
L 254.618182 344.780928 
L 258.676364 345.381192 
L 262.734545 345.973896 
L 266.792727 346.560552 
L 270.850909 347.14116 
L 274.909091 347.714208 
L 278.967273 348.279696 
L 283.025455 348.837624 
L 287.083636 349.387992 
L 291.141818 349.9308 
L 295.2 350.466048 
L 299.258182 350.992224 
L 303.316364 351.51084 
L 307.374545 352.020384 
L 311.432727 352.520856 
L 315.490909 353.012256 
L 319.549091 353.496096 
L 323.607273 353.969352 
L 327.665455 354.433536 
L 331.723636 354.888648 
L 335.781818 355.334688 
L 339.84 355.770144 
L 343.898182 356.196528 
L 347.956364 356.612328 
L 352.014545 357.019056 
L 356.072727 357.4152 
L 360.130909 357.80076 
L 364.189091 358.175736 
L 368.247273 358.54164 
L 372.305455 358.89696 
L 376.363636 359.240184 
L 380.421818 359.574336 
L 384.48 359.897904 
L 388.538182 360.209376 
L 392.596364 360.510264 
L 396.654545 360.80208 
L 400.712727 361.0818 
L 404.770909 361.349424 
L 408.829091 361.607976 
L 412.887273 361.854432 
L 416.945455 362.088792 
L 421.003636 362.312568 
L 425.061818 362.52576 
L 429.12 362.726856 
L 433.178182 362.917368 
L 437.236364 363.097296 
L 441.294545 363.263616 
L 445.352727 363.420864 
L 449.410909 363.564504 
L 453.469091 363.69756 
L 457.527273 363.820032 
L 461.585455 363.930408 
L 465.643636 364.028688 
L 469.701818 364.114872 
L 473.76 364.190472 
L 477.818182 364.255488 
L 481.876364 364.306896 
L 485.934545 364.34772 
L 489.992727 364.376448 
L 494.050909 364.394592 
L 498.109091 364.40064 
" clip-path="url(#pb29f746e02)" style="fill: none; stroke: #000000; stroke-opacity: 0.5; stroke-linecap: square"/>
   </g>
   <g id="line2d_17">
    <path d="M 92.290909 313.762248 
L 96.349091 313.715376 
L 100.407273 313.580808 
L 104.465455 313.366104 
L 108.523636 313.08336 
L 112.581818 312.744672 
L 116.64 312.360624 
L 120.698182 311.9418 
L 124.756364 311.49576 
L 128.814545 311.028552 
L 132.872727 310.544712 
L 136.930909 310.047264 
L 140.989091 309.540744 
L 145.047273 309.026664 
L 149.105455 308.506536 
L 153.163636 307.98036 
L 157.221818 307.45116 
L 161.28 306.917424 
L 165.338182 306.380664 
L 169.396364 305.84088 
L 173.454545 305.299584 
L 177.512727 304.756776 
L 181.570909 304.209432 
L 185.629091 303.662088 
L 189.687273 303.11172 
L 193.745455 302.558328 
L 197.803636 302.001912 
L 201.861818 301.443984 
L 205.92 300.884544 
L 209.978182 300.320568 
L 214.036364 299.753568 
L 218.094545 299.185056 
L 222.152727 298.612008 
L 226.210909 298.035936 
L 230.269091 297.455328 
L 234.327273 296.873208 
L 238.385455 296.28504 
L 242.443636 295.693848 
L 246.501818 295.099632 
L 250.56 294.499368 
L 254.618182 293.89608 
L 258.676364 293.288256 
L 262.734545 292.675896 
L 266.792727 292.059 
L 270.850909 291.437568 
L 274.909091 290.8116 
L 278.967273 290.181096 
L 283.025455 289.546056 
L 287.083636 288.904968 
L 291.141818 288.260856 
L 295.2 287.612208 
L 299.258182 286.959024 
L 303.316364 286.299792 
L 307.374545 285.637536 
L 311.432727 284.970744 
L 315.490909 284.300928 
L 319.549091 283.626576 
L 323.607273 282.947688 
L 327.665455 282.265776 
L 331.723636 281.579328 
L 335.781818 280.889856 
L 339.84 280.198872 
L 343.898182 279.503352 
L 347.956364 278.80632 
L 352.014545 278.107776 
L 356.072727 277.40772 
L 360.130909 276.70464 
L 364.189091 276.00156 
L 368.247273 275.29848 
L 372.305455 274.5954 
L 376.363636 273.89232 
L 380.421818 273.190752 
L 384.48 272.492208 
L 388.538182 271.795176 
L 392.596364 271.101168 
L 396.654545 270.411696 
L 400.712727 269.728272 
L 404.770909 269.050896 
L 408.829091 268.379568 
L 412.887273 267.717312 
L 416.945455 267.064128 
L 421.003636 266.42304 
L 425.061818 265.794048 
L 429.12 265.178664 
L 433.178182 264.579912 
L 437.236364 263.997792 
L 441.294545 263.43684 
L 445.352727 262.897056 
L 449.410909 262.381464 
L 453.469091 261.893088 
L 457.527273 261.434952 
L 461.585455 261.008568 
L 465.643636 260.615448 
L 469.701818 260.26164 
L 473.76 259.948656 
L 477.818182 259.678008 
L 481.876364 259.45272 
L 485.934545 259.274304 
L 489.992727 259.145784 
L 494.050909 259.068672 
L 498.109091 259.042968 
" clip-path="url(#pb29f746e02)" style="fill: none; stroke: #000000; stroke-opacity: 0.5; stroke-linecap: square"/>
   </g>
   <g id="line2d_18">
    <path d="M 92.290909 263.014992 
L 96.349091 263.04372 
L 100.407273 263.128392 
L 104.465455 263.259936 
L 108.523636 263.424744 
L 112.581818 263.613744 
L 116.64 263.816352 
L 120.698182 264.025008 
L 124.756364 264.23064 
L 128.814545 264.431736 
L 132.872727 264.622248 
L 136.930909 264.800664 
L 140.989091 264.96396 
L 145.047273 265.112136 
L 149.105455 265.242168 
L 153.163636 265.355568 
L 157.221818 265.449312 
L 161.28 265.524912 
L 165.338182 265.580856 
L 169.396364 265.617144 
L 173.454545 265.633776 
L 177.512727 265.630752 
L 181.570909 265.609584 
L 185.629091 265.567248 
L 189.687273 265.506768 
L 193.745455 265.428144 
L 197.803636 265.328352 
L 201.861818 265.211928 
L 205.92 265.075848 
L 209.978182 264.921624 
L 214.036364 264.750768 
L 218.094545 264.560256 
L 222.152727 264.353112 
L 226.210909 264.127824 
L 230.269091 263.887416 
L 234.327273 263.628864 
L 238.385455 263.35368 
L 242.443636 263.061864 
L 246.501818 262.754928 
L 250.56 262.432872 
L 254.618182 262.094184 
L 258.676364 261.741888 
L 262.734545 261.37296 
L 266.792727 260.990424 
L 270.850909 260.592768 
L 274.909091 260.181504 
L 278.967273 259.756632 
L 283.025455 259.318152 
L 287.083636 258.867576 
L 291.141818 258.403392 
L 295.2 257.9256 
L 299.258182 257.437224 
L 303.316364 256.93524 
L 307.374545 256.422672 
L 311.432727 255.898008 
L 315.490909 255.36276 
L 319.549091 254.816928 
L 323.607273 254.262024 
L 327.665455 253.695024 
L 331.723636 253.120464 
L 335.781818 252.536832 
L 339.84 251.942616 
L 343.898182 251.342352 
L 347.956364 250.733016 
L 352.014545 250.117632 
L 356.072727 249.4962 
L 360.130909 248.867208 
L 364.189091 248.23368 
L 368.247273 247.594104 
L 372.305455 246.951504 
L 376.363636 246.30588 
L 380.421818 245.657232 
L 384.48 245.007072 
L 388.538182 244.356912 
L 392.596364 243.70524 
L 396.654545 243.056592 
L 400.712727 242.409456 
L 404.770909 241.765344 
L 408.829091 241.12728 
L 412.887273 240.495264 
L 416.945455 239.870808 
L 421.003636 239.256936 
L 425.061818 238.653648 
L 429.12 238.06548 
L 433.178182 237.49092 
L 437.236364 236.934504 
L 441.294545 236.399256 
L 445.352727 235.8882 
L 449.410909 235.402848 
L 453.469091 234.947736 
L 457.527273 234.5274 
L 461.585455 234.1494 
L 465.643636 233.821296 
L 469.701818 233.561232 
L 473.76 233.388864 
L 477.818182 233.316288 
L 481.876364 233.323848 
L 485.934545 233.366184 
L 489.992727 233.411544 
L 494.050909 233.444808 
L 498.109091 233.456904 
" clip-path="url(#pb29f746e02)" style="fill: none; stroke: #000000; stroke-opacity: 0.5; stroke-linecap: square"/>
   </g>
   <g id="line2d_19">
    <path d="M 92.290909 257.1318 
L 96.349091 257.07888 
L 100.407273 256.924656 
L 104.465455 256.6782 
L 108.523636 256.348584 
L 112.581818 255.950928 
L 116.64 255.492792 
L 120.698182 254.986272 
L 124.756364 254.434392 
L 128.814545 253.846224 
L 132.872727 253.22328 
L 136.930909 252.571608 
L 140.989091 251.89272 
L 145.047273 251.188128 
L 149.105455 250.462368 
L 153.163636 249.713928 
L 157.221818 248.948856 
L 161.28 248.16564 
L 165.338182 247.367304 
L 169.396364 246.55536 
L 173.454545 245.729808 
L 177.512727 244.893672 
L 181.570909 244.046952 
L 185.629091 243.194184 
L 189.687273 242.333856 
L 193.745455 241.468992 
L 197.803636 240.601104 
L 201.861818 239.733216 
L 205.92 238.863816 
L 209.978182 237.99744 
L 214.036364 237.137112 
L 218.094545 236.28132 
L 222.152727 235.4346 
L 226.210909 234.598464 
L 230.269091 233.774424 
L 234.327273 232.965504 
L 238.385455 232.174728 
L 242.443636 231.402096 
L 246.501818 230.652144 
L 250.56 229.926384 
L 254.618182 229.226328 
L 258.676364 228.555 
L 262.734545 227.915424 
L 266.792727 227.3076 
L 270.850909 226.734552 
L 274.909091 226.197792 
L 278.967273 225.698832 
L 283.025455 225.239184 
L 287.083636 224.82036 
L 291.141818 224.440848 
L 295.2 224.10216 
L 299.258182 223.805808 
L 303.316364 223.55028 
L 307.374545 223.335576 
L 311.432727 223.160184 
L 315.490909 223.024104 
L 319.549091 222.925824 
L 323.607273 222.865344 
L 327.665455 222.83964 
L 331.723636 222.8472 
L 335.781818 222.888024 
L 339.84 222.959088 
L 343.898182 223.05888 
L 347.956364 223.184376 
L 352.014545 223.337088 
L 356.072727 223.513992 
L 360.130909 223.712064 
L 364.189091 223.932816 
L 368.247273 224.171712 
L 372.305455 224.42724 
L 376.363636 224.700912 
L 380.421818 224.988192 
L 384.48 225.290592 
L 388.538182 225.603576 
L 392.596364 225.930168 
L 396.654545 226.26432 
L 400.712727 226.607544 
L 404.770909 226.958328 
L 408.829091 227.31516 
L 412.887273 227.676528 
L 416.945455 228.04092 
L 421.003636 228.406824 
L 425.061818 228.772728 
L 429.12 229.13712 
L 433.178182 229.498488 
L 437.236364 229.853808 
L 441.294545 230.201568 
L 445.352727 230.538744 
L 449.410909 230.862312 
L 453.469091 231.169248 
L 457.527273 231.453504 
L 461.585455 231.712056 
L 465.643636 231.931296 
L 469.701818 232.097616 
L 473.76 232.188336 
L 477.818182 232.192872 
L 481.876364 232.13088 
L 485.934545 232.046208 
L 489.992727 231.969096 
L 494.050909 231.9192 
L 498.109091 231.901056 
" clip-path="url(#pb29f746e02)" style="fill: none; stroke: #000000; stroke-opacity: 0.5; stroke-linecap: square"/>
   </g>
   <g id="line2d_20">
    <path d="M 92.290909 142.9758 
L 96.349091 143.04384 
L 100.407273 143.249472 
L 104.465455 143.607816 
L 108.523636 144.121896 
L 112.581818 144.772056 
L 116.64 145.529568 
L 120.698182 146.36268 
L 124.756364 147.245688 
L 128.814545 148.158936 
L 132.872727 149.088816 
L 136.930909 150.026256 
L 140.989091 150.965208 
L 145.047273 151.901136 
L 149.105455 152.829504 
L 153.163636 153.7488 
L 157.221818 154.654488 
L 161.28 155.545056 
L 165.338182 156.420504 
L 169.396364 157.277808 
L 173.454545 158.115456 
L 177.512727 158.933448 
L 181.570909 159.72876 
L 185.629091 160.502904 
L 189.687273 161.251344 
L 193.745455 161.97408 
L 197.803636 162.671112 
L 201.861818 163.339416 
L 205.92 163.978992 
L 209.978182 164.588328 
L 214.036364 165.1644 
L 218.094545 165.707208 
L 222.152727 166.213728 
L 226.210909 166.68396 
L 230.269091 167.116392 
L 234.327273 167.508 
L 238.385455 167.857272 
L 242.443636 168.162696 
L 246.501818 168.42276 
L 250.56 168.635952 
L 254.618182 168.799248 
L 258.676364 168.912648 
L 262.734545 168.973128 
L 266.792727 168.980688 
L 270.850909 168.933816 
L 274.909091 168.829488 
L 278.967273 168.669216 
L 283.025455 168.451488 
L 287.083636 168.176304 
L 291.141818 167.843664 
L 295.2 167.452056 
L 299.258182 167.006016 
L 303.316364 166.50252 
L 307.374545 165.944592 
L 311.432727 165.333744 
L 315.490909 164.671488 
L 319.549091 163.96236 
L 323.607273 163.204848 
L 327.665455 162.406512 
L 331.723636 161.568864 
L 335.781818 160.699464 
L 339.84 159.805872 
L 343.898182 158.90472 
L 347.956364 158.032296 
L 352.014545 157.291416 
L 356.072727 156.998088 
L 360.130909 157.515192 
L 364.189091 158.535792 
L 368.247273 159.719688 
L 372.305455 160.950456 
L 376.363636 162.194832 
L 380.421818 163.434672 
L 384.48 164.662416 
L 388.538182 165.87504 
L 392.596364 167.06952 
L 396.654545 168.242832 
L 400.712727 169.393464 
L 404.770909 170.521416 
L 408.829091 171.622152 
L 412.887273 172.695672 
L 416.945455 173.740464 
L 421.003636 174.755016 
L 425.061818 175.737816 
L 429.12 176.68584 
L 433.178182 177.599088 
L 437.236364 178.473024 
L 441.294545 179.307648 
L 445.352727 180.099936 
L 449.410909 180.846864 
L 453.469091 181.54692 
L 457.527273 182.198592 
L 461.585455 182.797344 
L 465.643636 183.341664 
L 469.701818 183.828528 
L 473.76 184.256424 
L 477.818182 184.622328 
L 481.876364 184.92624 
L 485.934545 185.163624 
L 489.992727 185.332968 
L 494.050909 185.435784 
L 498.109091 185.47056 
" clip-path="url(#pb29f746e02)" style="fill: none; stroke: #000000; stroke-opacity: 0.5; stroke-linecap: square"/>
   </g>
   <g id="line2d_21">
    <path d="M 92.290909 139.121712 
L 96.349091 139.206384 
L 100.407273 139.424112 
L 104.465455 139.685688 
L 108.523636 139.920048 
L 112.581818 140.092416 
L 116.64 140.202792 
L 120.698182 140.260248 
L 124.756364 140.278392 
L 128.814545 140.263272 
L 132.872727 140.225472 
L 136.930909 140.168016 
L 140.989091 140.09544 
L 145.047273 140.006232 
L 149.105455 139.90644 
L 153.163636 139.794552 
L 157.221818 139.670568 
L 161.28 139.537512 
L 165.338182 139.395384 
L 169.396364 139.242672 
L 173.454545 139.080888 
L 177.512727 138.911544 
L 181.570909 138.733128 
L 185.629091 138.547152 
L 189.687273 138.353616 
L 193.745455 138.151008 
L 197.803636 137.942352 
L 201.861818 137.726136 
L 205.92 137.50236 
L 209.978182 137.271024 
L 214.036364 137.035152 
L 218.094545 136.79172 
L 222.152727 136.54224 
L 226.210909 136.286712 
L 230.269091 136.025136 
L 234.327273 135.760536 
L 238.385455 135.488376 
L 242.443636 135.213192 
L 246.501818 134.934984 
L 250.56 134.65224 
L 254.618182 134.367984 
L 258.676364 134.082216 
L 262.734545 133.796448 
L 266.792727 133.513704 
L 270.850909 133.237008 
L 274.909091 132.972408 
L 278.967273 132.736536 
L 283.025455 132.561144 
L 287.083636 132.538464 
L 291.141818 132.886224 
L 295.2 133.787376 
L 299.258182 135.048384 
L 303.316364 136.448496 
L 307.374545 137.900016 
L 311.432727 139.371192 
L 315.490909 140.845392 
L 319.549091 142.31808 
L 323.607273 143.781696 
L 327.665455 145.233216 
L 331.723636 146.669616 
L 335.781818 148.08636 
L 339.84 149.475888 
L 343.898182 150.824592 
L 347.956364 152.097696 
L 352.014545 153.193896 
L 356.072727 153.800208 
L 360.130909 153.556776 
L 364.189091 152.77356 
L 368.247273 151.796808 
L 372.305455 150.745968 
L 376.363636 149.667912 
L 380.421818 148.59288 
L 384.48 147.555648 
L 388.538182 146.613672 
L 392.596364 145.872792 
L 396.654545 145.494792 
L 400.712727 145.582488 
L 404.770909 146.033064 
L 408.829091 146.678688 
L 412.887273 147.410496 
L 416.945455 148.172544 
L 421.003636 148.937616 
L 425.061818 149.687568 
L 429.12 150.41484 
L 433.178182 151.114896 
L 437.236364 151.781688 
L 441.294545 152.413704 
L 445.352727 153.009432 
L 449.410909 153.565848 
L 453.469091 154.08144 
L 457.527273 154.556208 
L 461.585455 154.987128 
L 465.643636 155.375712 
L 469.701818 155.720448 
L 473.76 156.019824 
L 477.818182 156.275352 
L 481.876364 156.484008 
L 485.934545 156.647304 
L 489.992727 156.763728 
L 494.050909 156.83328 
L 498.109091 156.85596 
" clip-path="url(#pb29f746e02)" style="fill: none; stroke: #000000; stroke-opacity: 0.5; stroke-linecap: square"/>
   </g>
   <g id="line2d_22">
    <path d="M 92.290909 132.487056 
L 96.349091 132.329808 
L 100.407273 131.894352 
L 104.465455 131.254776 
L 108.523636 130.491216 
L 112.581818 129.664152 
L 116.64 128.818944 
L 120.698182 127.996416 
L 124.756364 127.229832 
L 128.814545 126.54036 
L 132.872727 125.940096 
L 136.930909 125.422992 
L 140.989091 124.972416 
L 145.047273 124.570224 
L 149.105455 124.201296 
L 153.163636 123.853536 
L 157.221818 123.51636 
L 161.28 123.18372 
L 165.338182 122.85108 
L 169.396364 122.515416 
L 173.454545 122.173704 
L 177.512727 121.82292 
L 181.570909 121.464576 
L 185.629091 121.094136 
L 189.687273 120.714624 
L 193.745455 120.324528 
L 197.803636 119.922336 
L 201.861818 119.508048 
L 205.92 119.084688 
L 209.978182 118.650744 
L 214.036364 118.207728 
L 218.094545 117.757152 
L 222.152727 117.303552 
L 226.210909 116.84844 
L 230.269091 116.403912 
L 234.327273 115.988112 
L 238.385455 115.635816 
L 242.443636 115.44228 
L 246.501818 115.599528 
L 250.56 116.308656 
L 254.618182 117.466848 
L 258.676364 118.847304 
L 262.734545 120.323016 
L 266.792727 121.836528 
L 270.850909 123.363648 
L 274.909091 124.88472 
L 278.967273 126.378576 
L 283.025455 127.807416 
L 287.083636 129.08052 
L 291.141818 129.975624 
L 295.2 130.309776 
L 299.258182 130.278024 
L 303.316364 130.098096 
L 307.374545 129.857688 
L 311.432727 129.591576 
L 315.490909 129.316392 
L 319.549091 129.039696 
L 323.607273 128.769048 
L 327.665455 128.518056 
L 331.723636 128.30184 
L 335.781818 128.15064 
L 339.84 128.134008 
L 343.898182 128.374416 
L 347.956364 128.979216 
L 352.014545 129.895488 
L 356.072727 130.976568 
L 360.130909 132.125688 
L 364.189091 133.29144 
L 368.247273 134.449632 
L 372.305455 135.583632 
L 376.363636 136.676808 
L 380.421818 137.715552 
L 384.48 138.6666 
L 388.538182 139.477032 
L 392.596364 140.044032 
L 396.654545 140.205816 
L 400.712727 139.864104 
L 404.770909 139.1202 
L 408.829091 138.143448 
L 412.887273 137.047248 
L 416.945455 135.887544 
L 421.003636 134.694576 
L 425.061818 133.486488 
L 429.12 132.275376 
L 433.178182 131.0688 
L 437.236364 129.87432 
L 441.294545 128.699496 
L 445.352727 127.551888 
L 449.410909 126.437544 
L 453.469091 125.367048 
L 457.527273 124.350984 
L 461.585455 123.399936 
L 465.643636 122.532048 
L 469.701818 121.768488 
L 473.76 121.131936 
L 477.818182 120.642048 
L 481.876364 120.2958 
L 485.934545 120.070512 
L 489.992727 119.931408 
L 494.050909 119.85732 
L 498.109091 119.833128 
" clip-path="url(#pb29f746e02)" style="fill: none; stroke: #000000; stroke-opacity: 0.5; stroke-linecap: square"/>
   </g>
   <g id="line2d_23">
    <path d="M 92.290909 123.386328 
L 96.349091 123.36516 
L 100.407273 123.29712 
L 104.465455 123.182208 
L 108.523636 123.00984 
L 112.581818 122.772456 
L 116.64 122.454936 
L 120.698182 122.037624 
L 124.756364 121.502376 
L 128.814545 120.835584 
L 132.872727 120.032712 
L 136.930909 119.105856 
L 140.989091 118.07316 
L 145.047273 116.955792 
L 149.105455 115.770384 
L 153.163636 114.532056 
L 157.221818 113.252904 
L 161.28 111.938976 
L 165.338182 110.597832 
L 169.396364 109.234008 
L 173.454545 107.850528 
L 177.512727 106.451928 
L 181.570909 105.044256 
L 185.629091 103.629024 
L 189.687273 102.215304 
L 193.745455 100.819728 
L 197.803636 99.481608 
L 201.861818 98.337024 
L 205.92 97.90308 
L 209.978182 98.693856 
L 214.036364 100.063728 
L 218.094545 101.590848 
L 222.152727 103.16484 
L 226.210909 104.747904 
L 230.269091 106.31736 
L 234.327273 107.850528 
L 238.385455 109.305072 
L 242.443636 110.58876 
L 246.501818 111.505032 
L 250.56 111.854304 
L 254.618182 111.73788 
L 258.676364 111.384072 
L 262.734545 110.918376 
L 266.792727 110.401272 
L 270.850909 109.861488 
L 274.909091 109.321704 
L 278.967273 108.816696 
L 283.025455 108.399384 
L 287.083636 108.193752 
L 291.141818 108.40392 
L 295.2 109.156896 
L 299.258182 110.30148 
L 303.316364 111.636576 
L 307.374545 113.054832 
L 311.432727 114.503328 
L 315.490909 115.959384 
L 319.549091 117.404856 
L 323.607273 118.82916 
L 327.665455 120.221712 
L 331.723636 121.561344 
L 335.781818 122.816304 
L 339.84 123.91704 
L 343.898182 124.742592 
L 347.956364 125.17956 
L 352.014545 125.282376 
L 356.072727 125.196192 
L 360.130909 125.017776 
L 364.189091 124.792488 
L 368.247273 124.543008 
L 372.305455 124.281432 
L 376.363636 124.013808 
L 380.421818 123.74316 
L 384.48 123.474024 
L 388.538182 123.2064 
L 392.596364 122.9418 
L 396.654545 122.681736 
L 400.712727 122.426208 
L 404.770909 122.17824 
L 408.829091 121.93632 
L 412.887273 121.70196 
L 416.945455 121.473648 
L 421.003636 121.252896 
L 425.061818 121.041216 
L 429.12 120.837096 
L 433.178182 120.642048 
L 437.236364 120.453048 
L 441.294545 120.27312 
L 445.352727 120.100752 
L 449.410909 119.934432 
L 453.469091 119.771136 
L 457.527273 119.610864 
L 461.585455 119.44908 
L 465.643636 119.276712 
L 469.701818 119.084688 
L 473.76 118.8594 
L 477.818182 118.5948 
L 481.876364 118.301472 
L 485.934545 118.018728 
L 489.992727 117.784368 
L 494.050909 117.631656 
L 498.109091 117.578736 
" clip-path="url(#pb29f746e02)" style="fill: none; stroke: #000000; stroke-opacity: 0.5; stroke-linecap: square"/>
   </g>
   <g id="patch_3">
    <path d="M 72 384.48 
L 72 51.84 
" style="fill: none; stroke: #000000; stroke-width: 0.8; stroke-linejoin: miter; stroke-linecap: square"/>
   </g>
   <g id="patch_4">
    <path d="M 518.4 384.48 
L 518.4 51.84 
" style="fill: none; stroke: #000000; stroke-width: 0.8; stroke-linejoin: miter; stroke-linecap: square"/>
   </g>
   <g id="patch_5">
    <path d="M 72 384.48 
L 518.4 384.48 
" style="fill: none; stroke: #000000; stroke-width: 0.8; stroke-linejoin: miter; stroke-linecap: square"/>
   </g>
   <g id="patch_6">
    <path d="M 72 51.84 
L 518.4 51.84 
" style="fill: none; stroke: #000000; stroke-width: 0.8; stroke-linejoin: miter; stroke-linecap: square"/>
   </g>
  </g>
 </g>
 <defs>
  <clipPath id="pb29f746e02">
   <rect x="72" y="51.84" width="446.4" height="332.64"/>
  </clipPath>
 </defs>
</svg>
