<?xml version="1.0" encoding="utf-8" standalone="no"?>
<!DOCTYPE svg PUBLIC "-//W3C//DTD SVG 1.1//EN"
  "http://www.w3.org/Graphics/SVG/1.1/DTD/svg11.dtd">
<svg xmlns:xlink="http://www.w3.org/1999/xlink" width="576pt" height="432pt" viewBox="0 0 576 432" xmlns="http://www.w3.org/2000/svg" version="1.1">
 <metadata>
  <rdf:RDF xmlns:dc="http://purl.org/dc/elements/1.1/" xmlns:cc="http://creativecommons.org/ns#" xmlns:rdf="http://www.w3.org/1999/02/22-rdf-syntax-ns#">
   <cc:Work>
    <dc:type rdf:resource="http://purl.org/dc/dcmitype/StillImage"/>
    <dc:date>2023-05-04T09:05:06.364179</dc:date>
    <dc:format>image/svg+xml</dc:format>
    <dc:creator>
     <cc:Agent>
      <dc:title>Matplotlib v3.7.1, https://matplotlib.org/</dc:title>
     </cc:Agent>
    </dc:creator>
   </cc:Work>
  </rdf:RDF>
 </metadata>
 <defs>
  <style type="text/css">*{stroke-linejoin: round; stroke-linecap: butt}</style>
 </defs>
 <g id="figure_1">
  <g id="patch_1">
   <path d="M 0 432 
L 576 432 
L 576 0 
L 0 0 
z
" style="fill: #ffffff"/>
  </g>
  <g id="axes_1">
   <g id="patch_2">
    <path d="M 72 384.48 
L 518.4 384.48 
L 518.4 51.84 
L 72 51.84 
z
" style="fill: #ffffff"/>
   </g>
   <g id="matplotlib.axis_1">
    <g id="xtick_1">
     <g id="line2d_1">
      <defs>
       <path id="m7c35804b85" d="M 0 0 
L 0 3.5 
" style="stroke: #000000; stroke-width: 0.8"/>
      </defs>
      <g>
       <use xlink:href="#m7c35804b85" x="92.290909" y="384.48" style="stroke: #000000; stroke-width: 0.8"/>
      </g>
     </g>
     <g id="text_1">
      <!-- 0.0 -->
      <g transform="translate(84.339347 399.078438) scale(0.1 -0.1)">
       <defs>
        <path id="DejaVuSans-30" d="M 2034 4250 
Q 1547 4250 1301 3770 
Q 1056 3291 1056 2328 
Q 1056 1369 1301 889 
Q 1547 409 2034 409 
Q 2525 409 2770 889 
Q 3016 1369 3016 2328 
Q 3016 3291 2770 3770 
Q 2525 4250 2034 4250 
z
M 2034 4750 
Q 2819 4750 3233 4129 
Q 3647 3509 3647 2328 
Q 3647 1150 3233 529 
Q 2819 -91 2034 -91 
Q 1250 -91 836 529 
Q 422 1150 422 2328 
Q 422 3509 836 4129 
Q 1250 4750 2034 4750 
z
" transform="scale(0.015625)"/>
        <path id="DejaVuSans-2e" d="M 684 794 
L 1344 794 
L 1344 0 
L 684 0 
L 684 794 
z
" transform="scale(0.015625)"/>
       </defs>
       <use xlink:href="#DejaVuSans-30"/>
       <use xlink:href="#DejaVuSans-2e" x="63.623047"/>
       <use xlink:href="#DejaVuSans-30" x="95.410156"/>
      </g>
     </g>
    </g>
    <g id="xtick_2">
     <g id="line2d_2">
      <g>
       <use xlink:href="#m7c35804b85" x="173.454545" y="384.48" style="stroke: #000000; stroke-width: 0.8"/>
      </g>
     </g>
     <g id="text_2">
      <!-- 0.2 -->
      <g transform="translate(165.502983 399.078438) scale(0.1 -0.1)">
       <defs>
        <path id="DejaVuSans-32" d="M 1228 531 
L 3431 531 
L 3431 0 
L 469 0 
L 469 531 
Q 828 903 1448 1529 
Q 2069 2156 2228 2338 
Q 2531 2678 2651 2914 
Q 2772 3150 2772 3378 
Q 2772 3750 2511 3984 
Q 2250 4219 1831 4219 
Q 1534 4219 1204 4116 
Q 875 4013 500 3803 
L 500 4441 
Q 881 4594 1212 4672 
Q 1544 4750 1819 4750 
Q 2544 4750 2975 4387 
Q 3406 4025 3406 3419 
Q 3406 3131 3298 2873 
Q 3191 2616 2906 2266 
Q 2828 2175 2409 1742 
Q 1991 1309 1228 531 
z
" transform="scale(0.015625)"/>
       </defs>
       <use xlink:href="#DejaVuSans-30"/>
       <use xlink:href="#DejaVuSans-2e" x="63.623047"/>
       <use xlink:href="#DejaVuSans-32" x="95.410156"/>
      </g>
     </g>
    </g>
    <g id="xtick_3">
     <g id="line2d_3">
      <g>
       <use xlink:href="#m7c35804b85" x="254.618182" y="384.48" style="stroke: #000000; stroke-width: 0.8"/>
      </g>
     </g>
     <g id="text_3">
      <!-- 0.4 -->
      <g transform="translate(246.666619 399.078438) scale(0.1 -0.1)">
       <defs>
        <path id="DejaVuSans-34" d="M 2419 4116 
L 825 1625 
L 2419 1625 
L 2419 4116 
z
M 2253 4666 
L 3047 4666 
L 3047 1625 
L 3713 1625 
L 3713 1100 
L 3047 1100 
L 3047 0 
L 2419 0 
L 2419 1100 
L 313 1100 
L 313 1709 
L 2253 4666 
z
" transform="scale(0.015625)"/>
       </defs>
       <use xlink:href="#DejaVuSans-30"/>
       <use xlink:href="#DejaVuSans-2e" x="63.623047"/>
       <use xlink:href="#DejaVuSans-34" x="95.410156"/>
      </g>
     </g>
    </g>
    <g id="xtick_4">
     <g id="line2d_4">
      <g>
       <use xlink:href="#m7c35804b85" x="335.781818" y="384.48" style="stroke: #000000; stroke-width: 0.8"/>
      </g>
     </g>
     <g id="text_4">
      <!-- 0.6 -->
      <g transform="translate(327.830256 399.078438) scale(0.1 -0.1)">
       <defs>
        <path id="DejaVuSans-36" d="M 2113 2584 
Q 1688 2584 1439 2293 
Q 1191 2003 1191 1497 
Q 1191 994 1439 701 
Q 1688 409 2113 409 
Q 2538 409 2786 701 
Q 3034 994 3034 1497 
Q 3034 2003 2786 2293 
Q 2538 2584 2113 2584 
z
M 3366 4563 
L 3366 3988 
Q 3128 4100 2886 4159 
Q 2644 4219 2406 4219 
Q 1781 4219 1451 3797 
Q 1122 3375 1075 2522 
Q 1259 2794 1537 2939 
Q 1816 3084 2150 3084 
Q 2853 3084 3261 2657 
Q 3669 2231 3669 1497 
Q 3669 778 3244 343 
Q 2819 -91 2113 -91 
Q 1303 -91 875 529 
Q 447 1150 447 2328 
Q 447 3434 972 4092 
Q 1497 4750 2381 4750 
Q 2619 4750 2861 4703 
Q 3103 4656 3366 4563 
z
" transform="scale(0.015625)"/>
       </defs>
       <use xlink:href="#DejaVuSans-30"/>
       <use xlink:href="#DejaVuSans-2e" x="63.623047"/>
       <use xlink:href="#DejaVuSans-36" x="95.410156"/>
      </g>
     </g>
    </g>
    <g id="xtick_5">
     <g id="line2d_5">
      <g>
       <use xlink:href="#m7c35804b85" x="416.945455" y="384.48" style="stroke: #000000; stroke-width: 0.8"/>
      </g>
     </g>
     <g id="text_5">
      <!-- 0.8 -->
      <g transform="translate(408.993892 399.078438) scale(0.1 -0.1)">
       <defs>
        <path id="DejaVuSans-38" d="M 2034 2216 
Q 1584 2216 1326 1975 
Q 1069 1734 1069 1313 
Q 1069 891 1326 650 
Q 1584 409 2034 409 
Q 2484 409 2743 651 
Q 3003 894 3003 1313 
Q 3003 1734 2745 1975 
Q 2488 2216 2034 2216 
z
M 1403 2484 
Q 997 2584 770 2862 
Q 544 3141 544 3541 
Q 544 4100 942 4425 
Q 1341 4750 2034 4750 
Q 2731 4750 3128 4425 
Q 3525 4100 3525 3541 
Q 3525 3141 3298 2862 
Q 3072 2584 2669 2484 
Q 3125 2378 3379 2068 
Q 3634 1759 3634 1313 
Q 3634 634 3220 271 
Q 2806 -91 2034 -91 
Q 1263 -91 848 271 
Q 434 634 434 1313 
Q 434 1759 690 2068 
Q 947 2378 1403 2484 
z
M 1172 3481 
Q 1172 3119 1398 2916 
Q 1625 2713 2034 2713 
Q 2441 2713 2670 2916 
Q 2900 3119 2900 3481 
Q 2900 3844 2670 4047 
Q 2441 4250 2034 4250 
Q 1625 4250 1398 4047 
Q 1172 3844 1172 3481 
z
" transform="scale(0.015625)"/>
       </defs>
       <use xlink:href="#DejaVuSans-30"/>
       <use xlink:href="#DejaVuSans-2e" x="63.623047"/>
       <use xlink:href="#DejaVuSans-38" x="95.410156"/>
      </g>
     </g>
    </g>
    <g id="xtick_6">
     <g id="line2d_6">
      <g>
       <use xlink:href="#m7c35804b85" x="498.109091" y="384.48" style="stroke: #000000; stroke-width: 0.8"/>
      </g>
     </g>
     <g id="text_6">
      <!-- 1.0 -->
      <g transform="translate(490.157528 399.078438) scale(0.1 -0.1)">
       <defs>
        <path id="DejaVuSans-31" d="M 794 531 
L 1825 531 
L 1825 4091 
L 703 3866 
L 703 4441 
L 1819 4666 
L 2450 4666 
L 2450 531 
L 3481 531 
L 3481 0 
L 794 0 
L 794 531 
z
" transform="scale(0.015625)"/>
       </defs>
       <use xlink:href="#DejaVuSans-31"/>
       <use xlink:href="#DejaVuSans-2e" x="63.623047"/>
       <use xlink:href="#DejaVuSans-30" x="95.410156"/>
      </g>
     </g>
    </g>
   </g>
   <g id="matplotlib.axis_2">
    <g id="ytick_1">
     <g id="line2d_7">
      <defs>
       <path id="m34afa9a3ca" d="M 0 0 
L -3.5 0 
" style="stroke: #000000; stroke-width: 0.8"/>
      </defs>
      <g>
       <use xlink:href="#m34afa9a3ca" x="72" y="369.36" style="stroke: #000000; stroke-width: 0.8"/>
      </g>
     </g>
     <g id="text_7">
      <!-- −5.0 -->
      <g transform="translate(40.717187 373.159219) scale(0.1 -0.1)">
       <defs>
        <path id="DejaVuSans-2212" d="M 678 2272 
L 4684 2272 
L 4684 1741 
L 678 1741 
L 678 2272 
z
" transform="scale(0.015625)"/>
        <path id="DejaVuSans-35" d="M 691 4666 
L 3169 4666 
L 3169 4134 
L 1269 4134 
L 1269 2991 
Q 1406 3038 1543 3061 
Q 1681 3084 1819 3084 
Q 2600 3084 3056 2656 
Q 3513 2228 3513 1497 
Q 3513 744 3044 326 
Q 2575 -91 1722 -91 
Q 1428 -91 1123 -41 
Q 819 9 494 109 
L 494 744 
Q 775 591 1075 516 
Q 1375 441 1709 441 
Q 2250 441 2565 725 
Q 2881 1009 2881 1497 
Q 2881 1984 2565 2268 
Q 2250 2553 1709 2553 
Q 1456 2553 1204 2497 
Q 953 2441 691 2322 
L 691 4666 
z
" transform="scale(0.015625)"/>
       </defs>
       <use xlink:href="#DejaVuSans-2212"/>
       <use xlink:href="#DejaVuSans-35" x="83.789062"/>
       <use xlink:href="#DejaVuSans-2e" x="147.412109"/>
       <use xlink:href="#DejaVuSans-30" x="179.199219"/>
      </g>
     </g>
    </g>
    <g id="ytick_2">
     <g id="line2d_8">
      <g>
       <use xlink:href="#m34afa9a3ca" x="72" y="331.56" style="stroke: #000000; stroke-width: 0.8"/>
      </g>
     </g>
     <g id="text_8">
      <!-- −2.5 -->
      <g transform="translate(40.717187 335.359219) scale(0.1 -0.1)">
       <use xlink:href="#DejaVuSans-2212"/>
       <use xlink:href="#DejaVuSans-32" x="83.789062"/>
       <use xlink:href="#DejaVuSans-2e" x="147.412109"/>
       <use xlink:href="#DejaVuSans-35" x="179.199219"/>
      </g>
     </g>
    </g>
    <g id="ytick_3">
     <g id="line2d_9">
      <g>
       <use xlink:href="#m34afa9a3ca" x="72" y="293.76" style="stroke: #000000; stroke-width: 0.8"/>
      </g>
     </g>
     <g id="text_9">
      <!-- 0.0 -->
      <g transform="translate(49.096875 297.559219) scale(0.1 -0.1)">
       <use xlink:href="#DejaVuSans-30"/>
       <use xlink:href="#DejaVuSans-2e" x="63.623047"/>
       <use xlink:href="#DejaVuSans-30" x="95.410156"/>
      </g>
     </g>
    </g>
    <g id="ytick_4">
     <g id="line2d_10">
      <g>
       <use xlink:href="#m34afa9a3ca" x="72" y="255.96" style="stroke: #000000; stroke-width: 0.8"/>
      </g>
     </g>
     <g id="text_10">
      <!-- 2.5 -->
      <g transform="translate(49.096875 259.759219) scale(0.1 -0.1)">
       <use xlink:href="#DejaVuSans-32"/>
       <use xlink:href="#DejaVuSans-2e" x="63.623047"/>
       <use xlink:href="#DejaVuSans-35" x="95.410156"/>
      </g>
     </g>
    </g>
    <g id="ytick_5">
     <g id="line2d_11">
      <g>
       <use xlink:href="#m34afa9a3ca" x="72" y="218.16" style="stroke: #000000; stroke-width: 0.8"/>
      </g>
     </g>
     <g id="text_11">
      <!-- 5.0 -->
      <g transform="translate(49.096875 221.959219) scale(0.1 -0.1)">
       <use xlink:href="#DejaVuSans-35"/>
       <use xlink:href="#DejaVuSans-2e" x="63.623047"/>
       <use xlink:href="#DejaVuSans-30" x="95.410156"/>
      </g>
     </g>
    </g>
    <g id="ytick_6">
     <g id="line2d_12">
      <g>
       <use xlink:href="#m34afa9a3ca" x="72" y="180.36" style="stroke: #000000; stroke-width: 0.8"/>
      </g>
     </g>
     <g id="text_12">
      <!-- 7.5 -->
      <g transform="translate(49.096875 184.159219) scale(0.1 -0.1)">
       <defs>
        <path id="DejaVuSans-37" d="M 525 4666 
L 3525 4666 
L 3525 4397 
L 1831 0 
L 1172 0 
L 2766 4134 
L 525 4134 
L 525 4666 
z
" transform="scale(0.015625)"/>
       </defs>
       <use xlink:href="#DejaVuSans-37"/>
       <use xlink:href="#DejaVuSans-2e" x="63.623047"/>
       <use xlink:href="#DejaVuSans-35" x="95.410156"/>
      </g>
     </g>
    </g>
    <g id="ytick_7">
     <g id="line2d_13">
      <g>
       <use xlink:href="#m34afa9a3ca" x="72" y="142.56" style="stroke: #000000; stroke-width: 0.8"/>
      </g>
     </g>
     <g id="text_13">
      <!-- 10.0 -->
      <g transform="translate(42.734375 146.359219) scale(0.1 -0.1)">
       <use xlink:href="#DejaVuSans-31"/>
       <use xlink:href="#DejaVuSans-30" x="63.623047"/>
       <use xlink:href="#DejaVuSans-2e" x="127.246094"/>
       <use xlink:href="#DejaVuSans-30" x="159.033203"/>
      </g>
     </g>
    </g>
    <g id="ytick_8">
     <g id="line2d_14">
      <g>
       <use xlink:href="#m34afa9a3ca" x="72" y="104.76" style="stroke: #000000; stroke-width: 0.8"/>
      </g>
     </g>
     <g id="text_14">
      <!-- 12.5 -->
      <g transform="translate(42.734375 108.559219) scale(0.1 -0.1)">
       <use xlink:href="#DejaVuSans-31"/>
       <use xlink:href="#DejaVuSans-32" x="63.623047"/>
       <use xlink:href="#DejaVuSans-2e" x="127.246094"/>
       <use xlink:href="#DejaVuSans-35" x="159.033203"/>
      </g>
     </g>
    </g>
    <g id="ytick_9">
     <g id="line2d_15">
      <g>
       <use xlink:href="#m34afa9a3ca" x="72" y="66.96" style="stroke: #000000; stroke-width: 0.8"/>
      </g>
     </g>
     <g id="text_15">
      <!-- 15.0 -->
      <g transform="translate(42.734375 70.759219) scale(0.1 -0.1)">
       <use xlink:href="#DejaVuSans-31"/>
       <use xlink:href="#DejaVuSans-35" x="63.623047"/>
       <use xlink:href="#DejaVuSans-2e" x="127.246094"/>
       <use xlink:href="#DejaVuSans-30" x="159.033203"/>
      </g>
     </g>
    </g>
   </g>
   <g id="line2d_16">
    <path d="M 92.290909 321.839352 
L 96.349091 322.05708 
L 100.407273 322.622568 
L 104.465455 323.384616 
L 108.523636 324.246456 
L 112.581818 325.161216 
L 116.64 326.106216 
L 120.698182 327.064824 
L 124.756364 328.030992 
L 128.814545 329.001696 
L 132.872727 329.9724 
L 136.930909 330.941592 
L 140.989091 331.90776 
L 145.047273 332.870904 
L 149.105455 333.828 
L 153.163636 334.78056 
L 157.221818 335.72556 
L 161.28 336.666024 
L 165.338182 337.598928 
L 169.396364 338.524272 
L 173.454545 339.442056 
L 177.512727 340.35228 
L 181.570909 341.254944 
L 185.629091 342.148536 
L 189.687273 343.034568 
L 193.745455 343.911528 
L 197.803636 344.779416 
L 201.861818 345.638232 
L 205.92 346.489488 
L 209.978182 347.33016 
L 214.036364 348.16176 
L 218.094545 348.982776 
L 222.152727 349.79472 
L 226.210909 350.597592 
L 230.269091 351.38988 
L 234.327273 352.171584 
L 238.385455 352.944216 
L 242.443636 353.706264 
L 246.501818 354.457728 
L 250.56 355.198608 
L 254.618182 355.930416 
L 258.676364 356.650128 
L 262.734545 357.359256 
L 266.792727 358.0578 
L 270.850909 358.744248 
L 274.909091 359.421624 
L 278.967273 360.086904 
L 283.025455 360.7416 
L 287.083636 361.3842 
L 291.141818 362.016216 
L 295.2 362.636136 
L 299.258182 363.245472 
L 303.316364 363.844224 
L 307.374545 364.429368 
L 311.432727 365.00544 
L 315.490909 365.567904 
L 319.549091 366.119784 
L 323.607273 366.658056 
L 327.665455 367.187256 
L 331.723636 367.702848 
L 335.781818 368.206344 
L 339.84 368.699256 
L 343.898182 369.17856 
L 347.956364 369.64728 
L 352.014545 370.103904 
L 356.072727 370.548432 
L 360.130909 370.979352 
L 364.189091 371.399688 
L 368.247273 371.807928 
L 372.305455 372.20256 
L 376.363636 372.586608 
L 380.421818 372.957048 
L 384.48 373.315392 
L 388.538182 373.66164 
L 392.596364 373.995792 
L 396.654545 374.317848 
L 400.712727 374.626296 
L 404.770909 374.92416 
L 408.829091 375.208416 
L 412.887273 375.479064 
L 416.945455 375.739128 
L 421.003636 375.985584 
L 425.061818 376.219944 
L 429.12 376.440696 
L 433.178182 376.649352 
L 437.236364 376.845912 
L 441.294545 377.030376 
L 445.352727 377.201232 
L 449.410909 377.359992 
L 453.469091 377.506656 
L 457.527273 377.639712 
L 461.585455 377.75916 
L 465.643636 377.868024 
L 469.701818 377.96328 
L 473.76 378.044928 
L 477.818182 378.115992 
L 481.876364 378.171936 
L 485.934545 378.217296 
L 489.992727 378.249048 
L 494.050909 378.267192 
L 498.109091 378.274752 
" clip-path="url(#p0ed8440614)" style="fill: none; stroke: #000000; stroke-opacity: 0.5; stroke-linecap: square"/>
   </g>
   <g id="line2d_17">
    <path d="M 92.290909 317.05236 
L 96.349091 316.830096 
L 100.407273 316.252512 
L 104.465455 315.470808 
L 108.523636 314.578728 
L 112.581818 313.62768 
L 116.64 312.638832 
L 120.698182 311.627304 
L 124.756364 310.599144 
L 128.814545 309.5604 
L 132.872727 308.512584 
L 136.930909 307.460232 
L 140.989091 306.401832 
L 145.047273 305.340408 
L 149.105455 304.277472 
L 153.163636 303.213024 
L 157.221818 302.147064 
L 161.28 301.082616 
L 165.338182 300.016656 
L 169.396364 298.952208 
L 173.454545 297.889272 
L 177.512727 296.827848 
L 181.570909 295.769448 
L 185.629091 294.714072 
L 189.687273 293.660208 
L 193.745455 292.61088 
L 197.803636 291.564576 
L 201.861818 290.521296 
L 205.92 289.484064 
L 209.978182 288.449856 
L 214.036364 287.421696 
L 218.094545 286.39656 
L 222.152727 285.377472 
L 226.210909 284.36292 
L 230.269091 283.354416 
L 234.327273 282.350448 
L 238.385455 281.351016 
L 242.443636 280.357632 
L 246.501818 279.368784 
L 250.56 278.384472 
L 254.618182 277.406208 
L 258.676364 276.43248 
L 262.734545 275.463288 
L 266.792727 274.49712 
L 270.850909 273.537 
L 274.909091 272.579904 
L 278.967273 271.625832 
L 283.025455 270.676296 
L 287.083636 269.729784 
L 291.141818 268.786296 
L 295.2 267.84432 
L 299.258182 266.905368 
L 303.316364 265.967928 
L 307.374545 265.032 
L 311.432727 264.097584 
L 315.490909 263.16468 
L 319.549091 262.231776 
L 323.607273 261.298872 
L 327.665455 260.36748 
L 331.723636 259.434576 
L 335.781818 258.503184 
L 339.84 257.57028 
L 343.898182 256.635864 
L 347.956364 255.701448 
L 352.014545 254.76552 
L 356.072727 253.829592 
L 360.130909 252.89064 
L 364.189091 251.951688 
L 368.247273 251.011224 
L 372.305455 250.067736 
L 376.363636 249.124248 
L 380.421818 248.179248 
L 384.48 247.232736 
L 388.538182 246.284712 
L 392.596364 245.335176 
L 396.654545 244.38564 
L 400.712727 243.436104 
L 404.770909 242.485056 
L 408.829091 241.534008 
L 412.887273 240.584472 
L 416.945455 239.634936 
L 421.003636 238.688424 
L 425.061818 237.743424 
L 429.12 236.801448 
L 433.178182 235.86552 
L 437.236364 234.934128 
L 441.294545 234.010296 
L 445.352727 233.097048 
L 449.410909 232.194384 
L 453.469091 231.30684 
L 457.527273 230.435928 
L 461.585455 229.589208 
L 465.643636 228.771216 
L 469.701818 227.989512 
L 473.76 227.253168 
L 477.818182 226.57428 
L 481.876364 225.972504 
L 485.934545 225.465984 
L 489.992727 225.078912 
L 494.050909 224.833968 
L 498.109091 224.750808 
" clip-path="url(#p0ed8440614)" style="fill: none; stroke: #000000; stroke-opacity: 0.5; stroke-linecap: square"/>
   </g>
   <g id="line2d_18">
    <path d="M 92.290909 258.646824 
L 96.349091 258.637752 
L 100.407273 258.607512 
L 104.465455 258.556104 
L 108.523636 258.486552 
L 112.581818 258.395832 
L 116.64 258.285456 
L 120.698182 258.155424 
L 124.756364 258.004224 
L 128.814545 257.833368 
L 132.872727 257.642856 
L 136.930909 257.431176 
L 140.989091 257.198328 
L 145.047273 256.947336 
L 149.105455 256.673664 
L 153.163636 256.380336 
L 157.221818 256.06584 
L 161.28 255.731688 
L 165.338182 255.376368 
L 169.396364 254.99988 
L 173.454545 254.603736 
L 177.512727 254.186424 
L 181.570909 253.747944 
L 185.629091 253.289808 
L 189.687273 252.808992 
L 193.745455 252.30852 
L 197.803636 251.788392 
L 201.861818 251.247096 
L 205.92 250.686144 
L 209.978182 250.104024 
L 214.036364 249.502248 
L 218.094545 248.880816 
L 222.152727 248.239728 
L 226.210909 247.578984 
L 230.269091 246.900096 
L 234.327273 246.201552 
L 238.385455 245.486376 
L 242.443636 244.753056 
L 246.501818 244.003104 
L 250.56 243.23652 
L 254.618182 242.454816 
L 258.676364 241.657992 
L 262.734545 240.846048 
L 266.792727 240.022008 
L 270.850909 239.18436 
L 274.909091 238.336128 
L 278.967273 237.477312 
L 283.025455 236.607912 
L 287.083636 235.732464 
L 291.141818 234.85248 
L 295.2 233.966448 
L 299.258182 233.078904 
L 303.316364 232.194384 
L 307.374545 231.312888 
L 311.432727 230.438952 
L 315.490909 229.578624 
L 319.549091 228.73644 
L 323.607273 227.918448 
L 327.665455 227.12616 
L 331.723636 226.364112 
L 335.781818 225.627768 
L 339.84 224.917128 
L 343.898182 224.226144 
L 347.956364 223.55028 
L 352.014545 222.885 
L 356.072727 222.228792 
L 360.130909 221.57712 
L 364.189091 220.931496 
L 368.247273 220.288896 
L 372.305455 219.64932 
L 376.363636 219.012768 
L 380.421818 218.377728 
L 384.48 217.747224 
L 388.538182 217.121256 
L 392.596364 216.498312 
L 396.654545 215.881416 
L 400.712727 215.270568 
L 404.770909 214.665768 
L 408.829091 214.07004 
L 412.887273 213.484896 
L 416.945455 212.91336 
L 421.003636 212.355432 
L 425.061818 211.818672 
L 429.12 211.312152 
L 433.178182 210.85704 
L 437.236364 210.507768 
L 441.294545 210.361104 
L 445.352727 210.430656 
L 449.410909 210.6378 
L 453.469091 210.931128 
L 457.527273 211.283424 
L 461.585455 211.68108 
L 465.643636 212.112 
L 469.701818 212.561064 
L 473.76 213.017688 
L 477.818182 213.463728 
L 481.876364 213.879528 
L 485.934545 214.24392 
L 489.992727 214.5312 
L 494.050909 214.717176 
L 498.109091 214.78068 
" clip-path="url(#p0ed8440614)" style="fill: none; stroke: #000000; stroke-opacity: 0.5; stroke-linecap: square"/>
   </g>
   <g id="line2d_19">
    <path d="M 92.290909 243.9018 
L 96.349091 243.895752 
L 100.407273 243.87912 
L 104.465455 243.850392 
L 108.523636 243.809568 
L 112.581818 243.759672 
L 116.64 243.696168 
L 120.698182 243.62208 
L 124.756364 243.537408 
L 128.814545 243.44064 
L 132.872727 243.333288 
L 136.930909 243.21384 
L 140.989091 243.083808 
L 145.047273 242.94168 
L 149.105455 242.788968 
L 153.163636 242.62416 
L 157.221818 242.448768 
L 161.28 242.262792 
L 165.338182 242.06472 
L 169.396364 241.856064 
L 173.454545 241.636824 
L 177.512727 241.405488 
L 181.570909 241.163568 
L 185.629091 240.909552 
L 189.687273 240.646464 
L 193.745455 240.37128 
L 197.803636 240.085512 
L 201.861818 239.78916 
L 205.92 239.480712 
L 209.978182 239.163192 
L 214.036364 238.833576 
L 218.094545 238.493376 
L 222.152727 238.144104 
L 226.210909 237.782736 
L 230.269091 237.410784 
L 234.327273 237.028248 
L 238.385455 236.63664 
L 242.443636 236.232936 
L 246.501818 235.82016 
L 250.56 235.395288 
L 254.618182 234.961344 
L 258.676364 234.516816 
L 262.734545 234.061704 
L 266.792727 233.596008 
L 270.850909 233.119728 
L 274.909091 232.631352 
L 278.967273 232.133904 
L 283.025455 231.62436 
L 287.083636 231.10272 
L 291.141818 230.570496 
L 295.2 230.024664 
L 299.258182 229.463712 
L 303.316364 228.88764 
L 307.374545 228.294936 
L 311.432727 227.681064 
L 315.490909 227.044512 
L 319.549091 226.380744 
L 323.607273 225.686736 
L 327.665455 224.959464 
L 331.723636 224.20044 
L 335.781818 223.412688 
L 339.84 222.600744 
L 343.898182 221.772168 
L 347.956364 220.93452 
L 352.014545 220.092336 
L 356.072727 219.251664 
L 360.130909 218.420064 
L 364.189091 217.599048 
L 368.247273 216.796176 
L 372.305455 216.014472 
L 376.363636 215.25696 
L 380.421818 214.529688 
L 384.48 213.83568 
L 388.538182 213.180984 
L 392.596364 212.567112 
L 396.654545 212.001624 
L 400.712727 211.487544 
L 404.770909 211.027896 
L 408.829091 210.627216 
L 412.887273 210.29004 
L 416.945455 210.014856 
L 421.003636 209.8062 
L 425.061818 209.661048 
L 429.12 209.57184 
L 433.178182 209.517408 
L 437.236364 209.44332 
L 441.294545 209.25432 
L 445.352727 208.930752 
L 449.410909 208.55124 
L 453.469091 208.164168 
L 457.527273 207.790704 
L 461.585455 207.438408 
L 465.643636 207.113328 
L 469.701818 206.818488 
L 473.76 206.558424 
L 477.818182 206.334648 
L 481.876364 206.14716 
L 485.934545 206.000496 
L 489.992727 205.894656 
L 494.050909 205.831152 
L 498.109091 205.809984 
" clip-path="url(#p0ed8440614)" style="fill: none; stroke: #000000; stroke-opacity: 0.5; stroke-linecap: square"/>
   </g>
   <g id="line2d_20">
    <path d="M 92.290909 189.531792 
L 96.349091 189.525744 
L 100.407273 189.506088 
L 104.465455 189.474336 
L 108.523636 189.428976 
L 112.581818 189.37152 
L 116.64 189.301968 
L 120.698182 189.218808 
L 124.756364 189.123552 
L 128.814545 189.0162 
L 132.872727 188.896752 
L 136.930909 188.763696 
L 140.989091 188.618544 
L 145.047273 188.461296 
L 149.105455 188.291952 
L 153.163636 188.110512 
L 157.221818 187.916976 
L 161.28 187.711344 
L 165.338182 187.495128 
L 169.396364 187.266816 
L 173.454545 187.026408 
L 177.512727 186.775416 
L 181.570909 186.512328 
L 185.629091 186.238656 
L 189.687273 185.9544 
L 193.745455 185.65956 
L 197.803636 185.354136 
L 201.861818 185.038128 
L 205.92 184.711536 
L 209.978182 184.375872 
L 214.036364 184.029624 
L 218.094545 183.674304 
L 222.152727 183.309912 
L 226.210909 182.934936 
L 230.269091 182.5524 
L 234.327273 182.160792 
L 238.385455 181.761624 
L 242.443636 181.353384 
L 246.501818 180.937584 
L 250.56 180.512712 
L 254.618182 180.081792 
L 258.676364 179.644824 
L 262.734545 179.200296 
L 266.792727 178.74972 
L 270.850909 178.293096 
L 274.909091 177.830424 
L 278.967273 177.363216 
L 283.025455 176.891472 
L 287.083636 176.415192 
L 291.141818 175.934376 
L 295.2 175.452048 
L 299.258182 174.966696 
L 303.316364 174.479832 
L 307.374545 173.992968 
L 311.432727 173.504592 
L 315.490909 173.017728 
L 319.549091 172.533888 
L 323.607273 172.05156 
L 327.665455 171.57528 
L 331.723636 171.105048 
L 335.781818 170.643888 
L 339.84 170.193312 
L 343.898182 169.756344 
L 347.956364 169.33752 
L 352.014545 168.939864 
L 356.072727 168.569424 
L 360.130909 168.232248 
L 364.189091 167.934384 
L 368.247273 167.686416 
L 372.305455 167.494392 
L 376.363636 167.370408 
L 380.421818 167.317488 
L 384.48 167.337144 
L 388.538182 167.426352 
L 392.596364 167.571504 
L 396.654545 167.758992 
L 400.712727 167.967648 
L 404.770909 168.18084 
L 408.829091 168.381936 
L 412.887273 168.555816 
L 416.945455 168.688872 
L 421.003636 168.775056 
L 425.061818 168.803784 
L 429.12 168.773544 
L 433.178182 168.6798 
L 437.236364 168.522552 
L 441.294545 168.3018 
L 445.352727 168.020568 
L 449.410909 167.680368 
L 453.469091 167.28876 
L 457.527273 166.848768 
L 461.585455 166.367952 
L 465.643636 165.853872 
L 469.701818 165.317112 
L 473.76 164.77128 
L 477.818182 164.236032 
L 481.876364 163.756728 
L 485.934545 163.408968 
L 489.992727 163.245672 
L 494.050909 163.200312 
L 498.109091 163.194264 
" clip-path="url(#p0ed8440614)" style="fill: none; stroke: #000000; stroke-opacity: 0.5; stroke-linecap: square"/>
   </g>
   <g id="line2d_21">
    <path d="M 92.290909 169.680744 
L 96.349091 169.671672 
L 100.407273 169.641432 
L 104.465455 169.591536 
L 108.523636 169.521984 
L 112.581818 169.431264 
L 116.64 169.3224 
L 120.698182 169.192368 
L 124.756364 169.04268 
L 128.814545 168.871824 
L 132.872727 168.681312 
L 136.930909 168.471144 
L 140.989091 168.24132 
L 145.047273 167.990328 
L 149.105455 167.71968 
L 153.163636 167.427864 
L 157.221818 167.116392 
L 161.28 166.783752 
L 165.338182 166.431456 
L 169.396364 166.059504 
L 173.454545 165.666384 
L 177.512727 165.252096 
L 181.570909 164.818152 
L 185.629091 164.36304 
L 189.687273 163.888272 
L 193.745455 163.392336 
L 197.803636 162.876744 
L 201.861818 162.339984 
L 205.92 161.783568 
L 209.978182 161.205984 
L 214.036364 160.608744 
L 218.094545 159.991848 
L 222.152727 159.355296 
L 226.210909 158.699088 
L 230.269091 158.024736 
L 234.327273 157.330728 
L 238.385455 156.618576 
L 242.443636 155.88828 
L 246.501818 155.141352 
L 250.56 154.377792 
L 254.618182 153.600624 
L 258.676364 152.808336 
L 262.734545 152.005464 
L 266.792727 151.19352 
L 270.850909 150.374016 
L 274.909091 149.554512 
L 278.967273 148.739544 
L 283.025455 147.936672 
L 287.083636 147.162528 
L 291.141818 146.436768 
L 295.2 145.789632 
L 299.258182 145.267992 
L 303.316364 144.935352 
L 307.374545 144.855216 
L 311.432727 145.059336 
L 315.490909 145.525032 
L 319.549091 146.190312 
L 323.607273 146.99016 
L 327.665455 147.871656 
L 331.723636 148.801536 
L 335.781818 149.752584 
L 339.84 150.70968 
L 343.898182 151.657704 
L 347.956364 152.587584 
L 352.014545 153.488736 
L 356.072727 154.350576 
L 360.130909 155.164032 
L 364.189091 155.920032 
L 368.247273 156.604968 
L 372.305455 157.206744 
L 376.363636 157.714776 
L 380.421818 158.123016 
L 384.48 158.422392 
L 388.538182 158.618952 
L 392.596364 158.718744 
L 396.654545 158.736888 
L 400.712727 158.688504 
L 404.770909 158.588712 
L 408.829091 158.455656 
L 412.887273 158.301432 
L 416.945455 158.14116 
L 421.003636 157.985424 
L 425.061818 157.852368 
L 429.12 157.767696 
L 433.178182 157.78584 
L 437.236364 157.99752 
L 441.294545 158.402736 
L 445.352727 158.892624 
L 449.410909 159.39612 
L 453.469091 159.886008 
L 457.527273 160.34868 
L 461.585455 160.778088 
L 465.643636 161.16516 
L 469.701818 161.50536 
L 473.76 161.791128 
L 477.818182 162.00432 
L 481.876364 162.111672 
L 485.934545 162.048168 
L 489.992727 161.779032 
L 494.050909 161.4222 
L 498.109091 161.22564 
" clip-path="url(#p0ed8440614)" style="fill: none; stroke: #000000; stroke-opacity: 0.5; stroke-linecap: square"/>
   </g>
   <g id="line2d_22">
    <path d="M 92.290909 74.934288 
L 96.349091 75.082464 
L 100.407273 75.507336 
L 104.465455 76.163544 
L 108.523636 76.998168 
L 112.581818 77.9598 
L 116.64 79.015176 
L 120.698182 80.135568 
L 124.756364 81.302832 
L 128.814545 82.50336 
L 132.872727 83.729592 
L 136.930909 84.973968 
L 140.989091 86.233464 
L 145.047273 87.503544 
L 149.105455 88.782696 
L 153.163636 90.069408 
L 157.221818 91.362168 
L 161.28 92.660976 
L 165.338182 93.96432 
L 169.396364 95.2722 
L 173.454545 96.584616 
L 177.512727 97.900056 
L 181.570909 99.220032 
L 185.629091 100.543032 
L 189.687273 101.869056 
L 193.745455 103.198104 
L 197.803636 104.527152 
L 201.861818 105.859224 
L 205.92 107.192808 
L 209.978182 108.52488 
L 214.036364 109.858464 
L 218.094545 111.190536 
L 222.152727 112.521096 
L 226.210909 113.850144 
L 230.269091 115.17768 
L 234.327273 116.50068 
L 238.385455 117.819144 
L 242.443636 119.133072 
L 246.501818 120.440952 
L 250.56 121.742784 
L 254.618182 123.035544 
L 258.676364 124.31772 
L 262.734545 125.589312 
L 266.792727 126.845784 
L 270.850909 128.0826 
L 274.909091 129.298248 
L 278.967273 130.485168 
L 283.025455 131.632776 
L 287.083636 132.728976 
L 291.141818 133.754112 
L 295.2 134.673408 
L 299.258182 135.443016 
L 303.316364 136.000944 
L 307.374545 136.280664 
L 311.432727 136.251936 
L 315.490909 135.938952 
L 319.549091 135.405216 
L 323.607273 134.729352 
L 327.665455 134.634096 
L 331.723636 135.556416 
L 335.781818 136.505952 
L 339.84 137.453976 
L 343.898182 138.397464 
L 347.956364 139.336416 
L 352.014545 140.267808 
L 356.072727 141.194664 
L 360.130909 142.11396 
L 364.189091 143.025696 
L 368.247273 143.929872 
L 372.305455 144.826488 
L 376.363636 145.714032 
L 380.421818 146.590992 
L 384.48 147.45888 
L 388.538182 148.316184 
L 392.596364 149.161392 
L 396.654545 149.992992 
L 400.712727 150.810984 
L 404.770909 151.612344 
L 408.829091 152.397072 
L 412.887273 153.162144 
L 416.945455 153.903024 
L 421.003636 154.616688 
L 425.061818 155.292552 
L 429.12 155.909448 
L 433.178182 156.41748 
L 437.236364 156.728952 
L 441.294545 156.849912 
L 445.352727 156.890736 
L 449.410909 156.922488 
L 453.469091 156.97692 
L 457.527273 157.06764 
L 461.585455 157.202208 
L 465.643636 157.38516 
L 469.701818 157.61952 
L 473.76 157.905288 
L 477.818182 158.240952 
L 481.876364 158.620464 
L 485.934545 159.036264 
L 489.992727 159.470208 
L 494.050909 159.873912 
L 498.109091 160.07652 
" clip-path="url(#p0ed8440614)" style="fill: none; stroke: #000000; stroke-opacity: 0.5; stroke-linecap: square"/>
   </g>
   <g id="line2d_23">
    <path d="M 92.290909 68.837904 
L 96.349091 69.170544 
L 100.407273 69.984 
L 104.465455 71.031816 
L 108.523636 72.196056 
L 112.581818 73.4238 
L 116.64 74.692368 
L 120.698182 75.985128 
L 124.756364 77.296032 
L 128.814545 78.61752 
L 132.872727 79.943544 
L 136.930909 81.274104 
L 140.989091 82.603152 
L 145.047273 83.930688 
L 149.105455 85.253688 
L 153.163636 86.572152 
L 157.221818 87.883056 
L 161.28 89.184888 
L 165.338182 90.47916 
L 169.396364 91.762848 
L 173.454545 93.037464 
L 177.512727 94.299984 
L 181.570909 95.55192 
L 185.629091 96.793272 
L 189.687273 98.022528 
L 193.745455 99.2412 
L 197.803636 100.447776 
L 201.861818 101.642256 
L 205.92 102.827664 
L 209.978182 104.000976 
L 214.036364 105.165216 
L 218.094545 106.318872 
L 222.152727 107.461944 
L 226.210909 108.595944 
L 230.269091 109.722384 
L 234.327273 110.83824 
L 238.385455 111.945024 
L 242.443636 113.044248 
L 246.501818 114.135912 
L 250.56 115.218504 
L 254.618182 116.295048 
L 258.676364 117.36252 
L 262.734545 118.423944 
L 266.792727 119.47932 
L 270.850909 120.525624 
L 274.909091 121.567392 
L 278.967273 122.6016 
L 283.025455 123.631272 
L 287.083636 124.653384 
L 291.141818 125.669448 
L 295.2 126.680976 
L 299.258182 127.684944 
L 303.316364 128.684376 
L 307.374545 129.679272 
L 311.432727 130.666608 
L 315.490909 131.647896 
L 319.549091 132.621624 
L 323.607273 133.57116 
L 327.665455 133.829712 
L 331.723636 132.993576 
L 335.781818 132.078816 
L 339.84 131.130792 
L 343.898182 130.16916 
L 347.956364 129.202992 
L 352.014545 128.244384 
L 356.072727 127.305432 
L 360.130909 126.39672 
L 364.189091 125.533368 
L 368.247273 124.727472 
L 372.305455 123.998688 
L 376.363636 123.36516 
L 380.421818 122.85108 
L 384.48 122.474592 
L 388.538182 122.25384 
L 392.596364 122.205456 
L 396.654545 122.327928 
L 400.712727 122.618232 
L 404.770909 123.059736 
L 408.829091 123.631272 
L 412.887273 124.308648 
L 416.945455 125.070696 
L 421.003636 125.893224 
L 425.061818 126.758088 
L 429.12 127.648656 
L 433.178182 128.55132 
L 437.236364 129.453984 
L 441.294545 130.346064 
L 445.352727 131.215464 
L 449.410909 132.056136 
L 453.469091 132.857496 
L 457.527273 133.611984 
L 461.585455 134.315064 
L 465.643636 134.957664 
L 469.701818 135.53676 
L 473.76 136.044792 
L 477.818182 136.480248 
L 481.876364 136.840104 
L 485.934545 137.121336 
L 489.992727 137.322432 
L 494.050909 137.443392 
L 498.109091 137.484216 
" clip-path="url(#p0ed8440614)" style="fill: none; stroke: #000000; stroke-opacity: 0.5; stroke-linecap: square"/>
   </g>
   <g id="patch_3">
    <path d="M 72 384.48 
L 72 51.84 
" style="fill: none; stroke: #000000; stroke-width: 0.8; stroke-linejoin: miter; stroke-linecap: square"/>
   </g>
   <g id="patch_4">
    <path d="M 518.4 384.48 
L 518.4 51.84 
" style="fill: none; stroke: #000000; stroke-width: 0.8; stroke-linejoin: miter; stroke-linecap: square"/>
   </g>
   <g id="patch_5">
    <path d="M 72 384.48 
L 518.4 384.48 
" style="fill: none; stroke: #000000; stroke-width: 0.8; stroke-linejoin: miter; stroke-linecap: square"/>
   </g>
   <g id="patch_6">
    <path d="M 72 51.84 
L 518.4 51.84 
" style="fill: none; stroke: #000000; stroke-width: 0.8; stroke-linejoin: miter; stroke-linecap: square"/>
   </g>
  </g>
 </g>
 <defs>
  <clipPath id="p0ed8440614">
   <rect x="72" y="51.84" width="446.4" height="332.64"/>
  </clipPath>
 </defs>
</svg>
