<?xml version="1.0" encoding="utf-8" standalone="no"?>
<!DOCTYPE svg PUBLIC "-//W3C//DTD SVG 1.1//EN"
  "http://www.w3.org/Graphics/SVG/1.1/DTD/svg11.dtd">
<svg xmlns:xlink="http://www.w3.org/1999/xlink" width="576pt" height="432pt" viewBox="0 0 576 432" xmlns="http://www.w3.org/2000/svg" version="1.1">
 <metadata>
  <rdf:RDF xmlns:dc="http://purl.org/dc/elements/1.1/" xmlns:cc="http://creativecommons.org/ns#" xmlns:rdf="http://www.w3.org/1999/02/22-rdf-syntax-ns#">
   <cc:Work>
    <dc:type rdf:resource="http://purl.org/dc/dcmitype/StillImage"/>
    <dc:date>2023-05-04T11:33:39.992732</dc:date>
    <dc:format>image/svg+xml</dc:format>
    <dc:creator>
     <cc:Agent>
      <dc:title>Matplotlib v3.7.1, https://matplotlib.org/</dc:title>
     </cc:Agent>
    </dc:creator>
   </cc:Work>
  </rdf:RDF>
 </metadata>
 <defs>
  <style type="text/css">*{stroke-linejoin: round; stroke-linecap: butt}</style>
 </defs>
 <g id="figure_1">
  <g id="patch_1">
   <path d="M 0 432 
L 576 432 
L 576 0 
L 0 0 
z
" style="fill: #ffffff"/>
  </g>
  <g id="axes_1">
   <g id="patch_2">
    <path d="M 72 384.48 
L 518.4 384.48 
L 518.4 51.84 
L 72 51.84 
z
" style="fill: #ffffff"/>
   </g>
   <g id="matplotlib.axis_1">
    <g id="xtick_1">
     <g id="line2d_1">
      <defs>
       <path id="m994fe2eca1" d="M 0 0 
L 0 3.5 
" style="stroke: #000000; stroke-width: 0.8"/>
      </defs>
      <g>
       <use xlink:href="#m994fe2eca1" x="92.290909" y="384.48" style="stroke: #000000; stroke-width: 0.8"/>
      </g>
     </g>
     <g id="text_1">
      <!-- 0.0 -->
      <g transform="translate(84.339347 399.078438) scale(0.1 -0.1)">
       <defs>
        <path id="DejaVuSans-30" d="M 2034 4250 
Q 1547 4250 1301 3770 
Q 1056 3291 1056 2328 
Q 1056 1369 1301 889 
Q 1547 409 2034 409 
Q 2525 409 2770 889 
Q 3016 1369 3016 2328 
Q 3016 3291 2770 3770 
Q 2525 4250 2034 4250 
z
M 2034 4750 
Q 2819 4750 3233 4129 
Q 3647 3509 3647 2328 
Q 3647 1150 3233 529 
Q 2819 -91 2034 -91 
Q 1250 -91 836 529 
Q 422 1150 422 2328 
Q 422 3509 836 4129 
Q 1250 4750 2034 4750 
z
" transform="scale(0.015625)"/>
        <path id="DejaVuSans-2e" d="M 684 794 
L 1344 794 
L 1344 0 
L 684 0 
L 684 794 
z
" transform="scale(0.015625)"/>
       </defs>
       <use xlink:href="#DejaVuSans-30"/>
       <use xlink:href="#DejaVuSans-2e" x="63.623047"/>
       <use xlink:href="#DejaVuSans-30" x="95.410156"/>
      </g>
     </g>
    </g>
    <g id="xtick_2">
     <g id="line2d_2">
      <g>
       <use xlink:href="#m994fe2eca1" x="173.454545" y="384.48" style="stroke: #000000; stroke-width: 0.8"/>
      </g>
     </g>
     <g id="text_2">
      <!-- 0.2 -->
      <g transform="translate(165.502983 399.078438) scale(0.1 -0.1)">
       <defs>
        <path id="DejaVuSans-32" d="M 1228 531 
L 3431 531 
L 3431 0 
L 469 0 
L 469 531 
Q 828 903 1448 1529 
Q 2069 2156 2228 2338 
Q 2531 2678 2651 2914 
Q 2772 3150 2772 3378 
Q 2772 3750 2511 3984 
Q 2250 4219 1831 4219 
Q 1534 4219 1204 4116 
Q 875 4013 500 3803 
L 500 4441 
Q 881 4594 1212 4672 
Q 1544 4750 1819 4750 
Q 2544 4750 2975 4387 
Q 3406 4025 3406 3419 
Q 3406 3131 3298 2873 
Q 3191 2616 2906 2266 
Q 2828 2175 2409 1742 
Q 1991 1309 1228 531 
z
" transform="scale(0.015625)"/>
       </defs>
       <use xlink:href="#DejaVuSans-30"/>
       <use xlink:href="#DejaVuSans-2e" x="63.623047"/>
       <use xlink:href="#DejaVuSans-32" x="95.410156"/>
      </g>
     </g>
    </g>
    <g id="xtick_3">
     <g id="line2d_3">
      <g>
       <use xlink:href="#m994fe2eca1" x="254.618182" y="384.48" style="stroke: #000000; stroke-width: 0.8"/>
      </g>
     </g>
     <g id="text_3">
      <!-- 0.4 -->
      <g transform="translate(246.666619 399.078438) scale(0.1 -0.1)">
       <defs>
        <path id="DejaVuSans-34" d="M 2419 4116 
L 825 1625 
L 2419 1625 
L 2419 4116 
z
M 2253 4666 
L 3047 4666 
L 3047 1625 
L 3713 1625 
L 3713 1100 
L 3047 1100 
L 3047 0 
L 2419 0 
L 2419 1100 
L 313 1100 
L 313 1709 
L 2253 4666 
z
" transform="scale(0.015625)"/>
       </defs>
       <use xlink:href="#DejaVuSans-30"/>
       <use xlink:href="#DejaVuSans-2e" x="63.623047"/>
       <use xlink:href="#DejaVuSans-34" x="95.410156"/>
      </g>
     </g>
    </g>
    <g id="xtick_4">
     <g id="line2d_4">
      <g>
       <use xlink:href="#m994fe2eca1" x="335.781818" y="384.48" style="stroke: #000000; stroke-width: 0.8"/>
      </g>
     </g>
     <g id="text_4">
      <!-- 0.6 -->
      <g transform="translate(327.830256 399.078438) scale(0.1 -0.1)">
       <defs>
        <path id="DejaVuSans-36" d="M 2113 2584 
Q 1688 2584 1439 2293 
Q 1191 2003 1191 1497 
Q 1191 994 1439 701 
Q 1688 409 2113 409 
Q 2538 409 2786 701 
Q 3034 994 3034 1497 
Q 3034 2003 2786 2293 
Q 2538 2584 2113 2584 
z
M 3366 4563 
L 3366 3988 
Q 3128 4100 2886 4159 
Q 2644 4219 2406 4219 
Q 1781 4219 1451 3797 
Q 1122 3375 1075 2522 
Q 1259 2794 1537 2939 
Q 1816 3084 2150 3084 
Q 2853 3084 3261 2657 
Q 3669 2231 3669 1497 
Q 3669 778 3244 343 
Q 2819 -91 2113 -91 
Q 1303 -91 875 529 
Q 447 1150 447 2328 
Q 447 3434 972 4092 
Q 1497 4750 2381 4750 
Q 2619 4750 2861 4703 
Q 3103 4656 3366 4563 
z
" transform="scale(0.015625)"/>
       </defs>
       <use xlink:href="#DejaVuSans-30"/>
       <use xlink:href="#DejaVuSans-2e" x="63.623047"/>
       <use xlink:href="#DejaVuSans-36" x="95.410156"/>
      </g>
     </g>
    </g>
    <g id="xtick_5">
     <g id="line2d_5">
      <g>
       <use xlink:href="#m994fe2eca1" x="416.945455" y="384.48" style="stroke: #000000; stroke-width: 0.8"/>
      </g>
     </g>
     <g id="text_5">
      <!-- 0.8 -->
      <g transform="translate(408.993892 399.078438) scale(0.1 -0.1)">
       <defs>
        <path id="DejaVuSans-38" d="M 2034 2216 
Q 1584 2216 1326 1975 
Q 1069 1734 1069 1313 
Q 1069 891 1326 650 
Q 1584 409 2034 409 
Q 2484 409 2743 651 
Q 3003 894 3003 1313 
Q 3003 1734 2745 1975 
Q 2488 2216 2034 2216 
z
M 1403 2484 
Q 997 2584 770 2862 
Q 544 3141 544 3541 
Q 544 4100 942 4425 
Q 1341 4750 2034 4750 
Q 2731 4750 3128 4425 
Q 3525 4100 3525 3541 
Q 3525 3141 3298 2862 
Q 3072 2584 2669 2484 
Q 3125 2378 3379 2068 
Q 3634 1759 3634 1313 
Q 3634 634 3220 271 
Q 2806 -91 2034 -91 
Q 1263 -91 848 271 
Q 434 634 434 1313 
Q 434 1759 690 2068 
Q 947 2378 1403 2484 
z
M 1172 3481 
Q 1172 3119 1398 2916 
Q 1625 2713 2034 2713 
Q 2441 2713 2670 2916 
Q 2900 3119 2900 3481 
Q 2900 3844 2670 4047 
Q 2441 4250 2034 4250 
Q 1625 4250 1398 4047 
Q 1172 3844 1172 3481 
z
" transform="scale(0.015625)"/>
       </defs>
       <use xlink:href="#DejaVuSans-30"/>
       <use xlink:href="#DejaVuSans-2e" x="63.623047"/>
       <use xlink:href="#DejaVuSans-38" x="95.410156"/>
      </g>
     </g>
    </g>
    <g id="xtick_6">
     <g id="line2d_6">
      <g>
       <use xlink:href="#m994fe2eca1" x="498.109091" y="384.48" style="stroke: #000000; stroke-width: 0.8"/>
      </g>
     </g>
     <g id="text_6">
      <!-- 1.0 -->
      <g transform="translate(490.157528 399.078438) scale(0.1 -0.1)">
       <defs>
        <path id="DejaVuSans-31" d="M 794 531 
L 1825 531 
L 1825 4091 
L 703 3866 
L 703 4441 
L 1819 4666 
L 2450 4666 
L 2450 531 
L 3481 531 
L 3481 0 
L 794 0 
L 794 531 
z
" transform="scale(0.015625)"/>
       </defs>
       <use xlink:href="#DejaVuSans-31"/>
       <use xlink:href="#DejaVuSans-2e" x="63.623047"/>
       <use xlink:href="#DejaVuSans-30" x="95.410156"/>
      </g>
     </g>
    </g>
   </g>
   <g id="matplotlib.axis_2">
    <g id="ytick_1">
     <g id="line2d_7">
      <defs>
       <path id="ma6fa1fd2f1" d="M 0 0 
L -3.5 0 
" style="stroke: #000000; stroke-width: 0.8"/>
      </defs>
      <g>
       <use xlink:href="#ma6fa1fd2f1" x="72" y="369.36" style="stroke: #000000; stroke-width: 0.8"/>
      </g>
     </g>
     <g id="text_7">
      <!-- −5.0 -->
      <g transform="translate(40.717187 373.159219) scale(0.1 -0.1)">
       <defs>
        <path id="DejaVuSans-2212" d="M 678 2272 
L 4684 2272 
L 4684 1741 
L 678 1741 
L 678 2272 
z
" transform="scale(0.015625)"/>
        <path id="DejaVuSans-35" d="M 691 4666 
L 3169 4666 
L 3169 4134 
L 1269 4134 
L 1269 2991 
Q 1406 3038 1543 3061 
Q 1681 3084 1819 3084 
Q 2600 3084 3056 2656 
Q 3513 2228 3513 1497 
Q 3513 744 3044 326 
Q 2575 -91 1722 -91 
Q 1428 -91 1123 -41 
Q 819 9 494 109 
L 494 744 
Q 775 591 1075 516 
Q 1375 441 1709 441 
Q 2250 441 2565 725 
Q 2881 1009 2881 1497 
Q 2881 1984 2565 2268 
Q 2250 2553 1709 2553 
Q 1456 2553 1204 2497 
Q 953 2441 691 2322 
L 691 4666 
z
" transform="scale(0.015625)"/>
       </defs>
       <use xlink:href="#DejaVuSans-2212"/>
       <use xlink:href="#DejaVuSans-35" x="83.789062"/>
       <use xlink:href="#DejaVuSans-2e" x="147.412109"/>
       <use xlink:href="#DejaVuSans-30" x="179.199219"/>
      </g>
     </g>
    </g>
    <g id="ytick_2">
     <g id="line2d_8">
      <g>
       <use xlink:href="#ma6fa1fd2f1" x="72" y="331.56" style="stroke: #000000; stroke-width: 0.8"/>
      </g>
     </g>
     <g id="text_8">
      <!-- −2.5 -->
      <g transform="translate(40.717187 335.359219) scale(0.1 -0.1)">
       <use xlink:href="#DejaVuSans-2212"/>
       <use xlink:href="#DejaVuSans-32" x="83.789062"/>
       <use xlink:href="#DejaVuSans-2e" x="147.412109"/>
       <use xlink:href="#DejaVuSans-35" x="179.199219"/>
      </g>
     </g>
    </g>
    <g id="ytick_3">
     <g id="line2d_9">
      <g>
       <use xlink:href="#ma6fa1fd2f1" x="72" y="293.76" style="stroke: #000000; stroke-width: 0.8"/>
      </g>
     </g>
     <g id="text_9">
      <!-- 0.0 -->
      <g transform="translate(49.096875 297.559219) scale(0.1 -0.1)">
       <use xlink:href="#DejaVuSans-30"/>
       <use xlink:href="#DejaVuSans-2e" x="63.623047"/>
       <use xlink:href="#DejaVuSans-30" x="95.410156"/>
      </g>
     </g>
    </g>
    <g id="ytick_4">
     <g id="line2d_10">
      <g>
       <use xlink:href="#ma6fa1fd2f1" x="72" y="255.96" style="stroke: #000000; stroke-width: 0.8"/>
      </g>
     </g>
     <g id="text_10">
      <!-- 2.5 -->
      <g transform="translate(49.096875 259.759219) scale(0.1 -0.1)">
       <use xlink:href="#DejaVuSans-32"/>
       <use xlink:href="#DejaVuSans-2e" x="63.623047"/>
       <use xlink:href="#DejaVuSans-35" x="95.410156"/>
      </g>
     </g>
    </g>
    <g id="ytick_5">
     <g id="line2d_11">
      <g>
       <use xlink:href="#ma6fa1fd2f1" x="72" y="218.16" style="stroke: #000000; stroke-width: 0.8"/>
      </g>
     </g>
     <g id="text_11">
      <!-- 5.0 -->
      <g transform="translate(49.096875 221.959219) scale(0.1 -0.1)">
       <use xlink:href="#DejaVuSans-35"/>
       <use xlink:href="#DejaVuSans-2e" x="63.623047"/>
       <use xlink:href="#DejaVuSans-30" x="95.410156"/>
      </g>
     </g>
    </g>
    <g id="ytick_6">
     <g id="line2d_12">
      <g>
       <use xlink:href="#ma6fa1fd2f1" x="72" y="180.36" style="stroke: #000000; stroke-width: 0.8"/>
      </g>
     </g>
     <g id="text_12">
      <!-- 7.5 -->
      <g transform="translate(49.096875 184.159219) scale(0.1 -0.1)">
       <defs>
        <path id="DejaVuSans-37" d="M 525 4666 
L 3525 4666 
L 3525 4397 
L 1831 0 
L 1172 0 
L 2766 4134 
L 525 4134 
L 525 4666 
z
" transform="scale(0.015625)"/>
       </defs>
       <use xlink:href="#DejaVuSans-37"/>
       <use xlink:href="#DejaVuSans-2e" x="63.623047"/>
       <use xlink:href="#DejaVuSans-35" x="95.410156"/>
      </g>
     </g>
    </g>
    <g id="ytick_7">
     <g id="line2d_13">
      <g>
       <use xlink:href="#ma6fa1fd2f1" x="72" y="142.56" style="stroke: #000000; stroke-width: 0.8"/>
      </g>
     </g>
     <g id="text_13">
      <!-- 10.0 -->
      <g transform="translate(42.734375 146.359219) scale(0.1 -0.1)">
       <use xlink:href="#DejaVuSans-31"/>
       <use xlink:href="#DejaVuSans-30" x="63.623047"/>
       <use xlink:href="#DejaVuSans-2e" x="127.246094"/>
       <use xlink:href="#DejaVuSans-30" x="159.033203"/>
      </g>
     </g>
    </g>
    <g id="ytick_8">
     <g id="line2d_14">
      <g>
       <use xlink:href="#ma6fa1fd2f1" x="72" y="104.76" style="stroke: #000000; stroke-width: 0.8"/>
      </g>
     </g>
     <g id="text_14">
      <!-- 12.5 -->
      <g transform="translate(42.734375 108.559219) scale(0.1 -0.1)">
       <use xlink:href="#DejaVuSans-31"/>
       <use xlink:href="#DejaVuSans-32" x="63.623047"/>
       <use xlink:href="#DejaVuSans-2e" x="127.246094"/>
       <use xlink:href="#DejaVuSans-35" x="159.033203"/>
      </g>
     </g>
    </g>
    <g id="ytick_9">
     <g id="line2d_15">
      <g>
       <use xlink:href="#ma6fa1fd2f1" x="72" y="66.96" style="stroke: #000000; stroke-width: 0.8"/>
      </g>
     </g>
     <g id="text_15">
      <!-- 15.0 -->
      <g transform="translate(42.734375 70.759219) scale(0.1 -0.1)">
       <use xlink:href="#DejaVuSans-31"/>
       <use xlink:href="#DejaVuSans-35" x="63.623047"/>
       <use xlink:href="#DejaVuSans-2e" x="127.246094"/>
       <use xlink:href="#DejaVuSans-30" x="159.033203"/>
      </g>
     </g>
    </g>
   </g>
   <g id="line2d_16">
    <path d="M 92.290909 324.254016 
L 96.349091 324.284256 
L 100.407273 324.378 
L 104.465455 324.532224 
L 108.523636 324.742392 
L 112.581818 325.003968 
L 116.64 325.312416 
L 120.698182 325.664712 
L 124.756364 326.053296 
L 128.814545 326.476656 
L 132.872727 326.927232 
L 136.930909 327.405024 
L 140.989091 327.903984 
L 145.047273 328.4226 
L 149.105455 328.95936 
L 153.163636 329.51124 
L 157.221818 330.075216 
L 161.28 330.649776 
L 165.338182 331.23492 
L 169.396364 331.829136 
L 173.454545 332.4294 
L 177.512727 333.037224 
L 181.570909 333.648072 
L 185.629091 334.264968 
L 189.687273 334.884888 
L 193.745455 335.50632 
L 197.803636 336.130776 
L 201.861818 336.755232 
L 205.92 337.3812 
L 209.978182 338.007168 
L 214.036364 338.631624 
L 218.094545 339.254568 
L 222.152727 339.876 
L 226.210909 340.49592 
L 230.269091 341.112816 
L 234.327273 341.726688 
L 238.385455 342.336024 
L 242.443636 342.943848 
L 246.501818 343.545624 
L 250.56 344.142864 
L 254.618182 344.735568 
L 258.676364 345.322224 
L 262.734545 345.904344 
L 266.792727 346.480416 
L 270.850909 347.048928 
L 274.909091 347.612904 
L 278.967273 348.16932 
L 283.025455 348.718176 
L 287.083636 349.260984 
L 291.141818 349.796232 
L 295.2 350.322408 
L 299.258182 350.842536 
L 303.316364 351.353592 
L 307.374545 351.857088 
L 311.432727 352.351512 
L 315.490909 352.838376 
L 319.549091 353.316168 
L 323.607273 353.784888 
L 327.665455 354.244536 
L 331.723636 354.695112 
L 335.781818 355.136616 
L 339.84 355.567536 
L 343.898182 355.990896 
L 347.956364 356.40216 
L 352.014545 356.805864 
L 356.072727 357.198984 
L 360.130909 357.58152 
L 364.189091 357.953472 
L 368.247273 358.316352 
L 372.305455 358.668648 
L 376.363636 359.01036 
L 380.421818 359.341488 
L 384.48 359.662032 
L 388.538182 359.971992 
L 392.596364 360.271368 
L 396.654545 360.56016 
L 400.712727 360.838368 
L 404.770909 361.10448 
L 408.829091 361.36152 
L 412.887273 361.606464 
L 416.945455 361.839312 
L 421.003636 362.063088 
L 425.061818 362.274768 
L 429.12 362.474352 
L 433.178182 362.663352 
L 437.236364 362.841768 
L 441.294545 363.008088 
L 445.352727 363.163824 
L 449.410909 363.307464 
L 453.469091 363.439008 
L 457.527273 363.559968 
L 461.585455 363.670344 
L 465.643636 363.768624 
L 469.701818 363.854808 
L 473.76 363.930408 
L 477.818182 363.993912 
L 481.876364 364.04532 
L 485.934545 364.086144 
L 489.992727 364.114872 
L 494.050909 364.131504 
L 498.109091 364.137552 
" clip-path="url(#pa17ac14f61)" style="fill: none; stroke: #000000; stroke-opacity: 0.5; stroke-linecap: square"/>
   </g>
   <g id="line2d_17">
    <path d="M 92.290909 311.749776 
L 96.349091 311.72256 
L 100.407273 311.645448 
L 104.465455 311.51844 
L 108.523636 311.346072 
L 112.581818 311.131368 
L 116.64 310.880376 
L 120.698182 310.59612 
L 124.756364 310.283136 
L 128.814545 309.944448 
L 132.872727 309.586104 
L 136.930909 309.209616 
L 140.989091 308.818008 
L 145.047273 308.412792 
L 149.105455 307.996992 
L 153.163636 307.57212 
L 157.221818 307.136664 
L 161.28 306.69516 
L 165.338182 306.244584 
L 169.396364 305.789472 
L 173.454545 305.328312 
L 177.512727 304.862616 
L 181.570909 304.38936 
L 185.629091 303.91308 
L 189.687273 303.430752 
L 193.745455 302.943888 
L 197.803636 302.452488 
L 201.861818 301.956552 
L 205.92 301.45608 
L 209.978182 300.94956 
L 214.036364 300.438504 
L 218.094545 299.9214 
L 222.152727 299.39976 
L 226.210909 298.873584 
L 230.269091 298.34136 
L 234.327273 297.803088 
L 238.385455 297.26028 
L 242.443636 296.709912 
L 246.501818 296.155008 
L 250.56 295.595568 
L 254.618182 295.028568 
L 258.676364 294.45552 
L 262.734545 293.876424 
L 266.792727 293.292792 
L 270.850909 292.7016 
L 274.909091 292.10436 
L 278.967273 291.501072 
L 283.025455 290.891736 
L 287.083636 290.276352 
L 291.141818 289.65492 
L 295.2 289.02744 
L 299.258182 288.393912 
L 303.316364 287.754336 
L 307.374545 287.108712 
L 311.432727 286.458552 
L 315.490909 285.802344 
L 319.549091 285.140088 
L 323.607273 284.473296 
L 327.665455 283.800456 
L 331.723636 283.124592 
L 335.781818 282.44268 
L 339.84 281.756232 
L 343.898182 281.06676 
L 347.956364 280.372752 
L 352.014545 279.67572 
L 356.072727 278.974152 
L 360.130909 278.271072 
L 364.189091 277.56648 
L 368.247273 276.858864 
L 372.305455 276.151248 
L 376.363636 275.44212 
L 380.421818 274.73148 
L 384.48 274.023864 
L 388.538182 273.316248 
L 392.596364 272.610144 
L 396.654545 271.907064 
L 400.712727 271.20852 
L 404.770909 270.514512 
L 408.829091 269.82504 
L 412.887273 269.14464 
L 416.945455 268.4718 
L 421.003636 267.808032 
L 425.061818 267.15636 
L 429.12 266.518296 
L 433.178182 265.89384 
L 437.236364 265.287528 
L 441.294545 264.69936 
L 445.352727 264.133872 
L 449.410909 263.591064 
L 453.469091 263.076984 
L 457.527273 262.59012 
L 461.585455 262.138032 
L 465.643636 261.72072 
L 469.701818 261.34272 
L 473.76 261.008568 
L 477.818182 260.718264 
L 481.876364 260.476344 
L 485.934545 260.28432 
L 489.992727 260.146728 
L 494.050909 260.063568 
L 498.109091 260.03484 
" clip-path="url(#pa17ac14f61)" style="fill: none; stroke: #000000; stroke-opacity: 0.5; stroke-linecap: square"/>
   </g>
   <g id="line2d_18">
    <path d="M 92.290909 263.972088 
L 96.349091 263.982672 
L 100.407273 264.015936 
L 104.465455 264.068856 
L 108.523636 264.138408 
L 112.581818 264.220056 
L 116.64 264.309264 
L 120.698182 264.40452 
L 124.756364 264.499776 
L 128.814545 264.59352 
L 132.872727 264.679704 
L 136.930909 264.75984 
L 140.989091 264.82788 
L 145.047273 264.885336 
L 149.105455 264.930696 
L 153.163636 264.959424 
L 157.221818 264.974544 
L 161.28 264.974544 
L 165.338182 264.957912 
L 169.396364 264.923136 
L 173.454545 264.87324 
L 177.512727 264.806712 
L 181.570909 264.72204 
L 185.629091 264.620736 
L 189.687273 264.501288 
L 193.745455 264.36672 
L 197.803636 264.214008 
L 201.861818 264.046176 
L 205.92 263.8602 
L 209.978182 263.659104 
L 214.036364 263.441376 
L 218.094545 263.207016 
L 222.152727 262.957536 
L 226.210909 262.692936 
L 230.269091 262.411704 
L 234.327273 262.116864 
L 238.385455 261.806904 
L 242.443636 261.483336 
L 246.501818 261.144648 
L 250.56 260.79084 
L 254.618182 260.424936 
L 258.676364 260.045424 
L 262.734545 259.652304 
L 266.792727 259.247088 
L 270.850909 258.828264 
L 274.909091 258.397344 
L 278.967273 257.954328 
L 283.025455 257.500728 
L 287.083636 257.03352 
L 291.141818 256.55724 
L 295.2 256.068864 
L 299.258182 255.569904 
L 303.316364 255.061872 
L 307.374545 254.543256 
L 311.432727 254.015568 
L 315.490909 253.477296 
L 319.549091 252.931464 
L 323.607273 252.37656 
L 327.665455 251.814096 
L 331.723636 251.245584 
L 335.781818 250.668 
L 339.84 250.084368 
L 343.898182 249.494688 
L 347.956364 248.89896 
L 352.014545 248.298696 
L 356.072727 247.693896 
L 360.130909 247.08456 
L 364.189091 246.473712 
L 368.247273 245.858328 
L 372.305455 245.242944 
L 376.363636 244.626048 
L 380.421818 244.00764 
L 384.48 243.392256 
L 388.538182 242.776872 
L 392.596364 242.164512 
L 396.654545 241.556688 
L 400.712727 240.954912 
L 404.770909 240.357672 
L 408.829091 239.769504 
L 412.887273 239.190408 
L 416.945455 238.623408 
L 421.003636 238.068504 
L 425.061818 237.52872 
L 429.12 237.00708 
L 433.178182 236.505096 
L 437.236364 236.028816 
L 441.294545 235.579752 
L 445.352727 235.166976 
L 449.410909 234.796536 
L 453.469091 234.48204 
L 457.527273 234.238608 
L 461.585455 234.087408 
L 465.643636 234.032976 
L 469.701818 234.063216 
L 473.76 234.1494 
L 477.818182 234.258264 
L 481.876364 234.36864 
L 485.934545 234.465408 
L 489.992727 234.539496 
L 494.050909 234.58788 
L 498.109091 234.603 
" clip-path="url(#pa17ac14f61)" style="fill: none; stroke: #000000; stroke-opacity: 0.5; stroke-linecap: square"/>
   </g>
   <g id="line2d_19">
    <path d="M 92.290909 255.170736 
L 96.349091 255.134448 
L 100.407273 255.028608 
L 104.465455 254.854728 
L 108.523636 254.61432 
L 112.581818 254.314944 
L 116.64 253.959624 
L 120.698182 253.551384 
L 124.756364 253.097784 
L 128.814545 252.600336 
L 132.872727 252.063576 
L 136.930909 251.49204 
L 140.989091 250.885728 
L 145.047273 250.250688 
L 149.105455 249.588432 
L 153.163636 248.900472 
L 157.221818 248.18832 
L 161.28 247.456512 
L 165.338182 246.703536 
L 169.396364 245.93544 
L 173.454545 245.1492 
L 177.512727 244.350864 
L 181.570909 243.540432 
L 185.629091 242.719416 
L 189.687273 241.889328 
L 193.745455 241.053192 
L 197.803636 240.21252 
L 201.861818 239.367312 
L 205.92 238.522104 
L 209.978182 237.678408 
L 214.036364 236.836224 
L 218.094545 236.000088 
L 222.152727 235.171512 
L 226.210909 234.352008 
L 230.269091 233.543088 
L 234.327273 232.749288 
L 238.385455 231.97212 
L 242.443636 231.211584 
L 246.501818 230.473728 
L 250.56 229.758552 
L 254.618182 229.070592 
L 258.676364 228.408336 
L 262.734545 227.777832 
L 266.792727 227.17908 
L 270.850909 226.613592 
L 274.909091 226.084392 
L 278.967273 225.592992 
L 283.025455 225.140904 
L 287.083636 224.726616 
L 291.141818 224.354664 
L 295.2 224.022024 
L 299.258182 223.73172 
L 303.316364 223.48224 
L 307.374545 223.273584 
L 311.432727 223.10424 
L 315.490909 222.974208 
L 319.549091 222.883488 
L 323.607273 222.830568 
L 327.665455 222.812424 
L 331.723636 222.827544 
L 335.781818 222.87744 
L 339.84 222.957576 
L 343.898182 223.06644 
L 347.956364 223.205544 
L 352.014545 223.36884 
L 356.072727 223.55784 
L 360.130909 223.771032 
L 364.189091 224.00388 
L 368.247273 224.259408 
L 372.305455 224.531568 
L 376.363636 224.821872 
L 380.421818 225.128808 
L 384.48 225.449352 
L 388.538182 225.783504 
L 392.596364 226.129752 
L 396.654545 226.486584 
L 400.712727 226.852488 
L 404.770909 227.225952 
L 408.829091 227.606976 
L 412.887273 227.991024 
L 416.945455 228.379608 
L 421.003636 228.768192 
L 425.061818 229.156776 
L 429.12 229.540824 
L 433.178182 229.918824 
L 437.236364 230.28624 
L 441.294545 230.638536 
L 445.352727 230.969664 
L 449.410909 231.26904 
L 453.469091 231.524568 
L 457.527273 231.719616 
L 461.585455 231.834528 
L 465.643636 231.860232 
L 469.701818 231.810336 
L 473.76 231.712056 
L 477.818182 231.59412 
L 481.876364 231.479208 
L 485.934545 231.379416 
L 489.992727 231.303816 
L 494.050909 231.256944 
L 498.109091 231.241824 
" clip-path="url(#pa17ac14f61)" style="fill: none; stroke: #000000; stroke-opacity: 0.5; stroke-linecap: square"/>
   </g>
   <g id="line2d_20">
    <path d="M 92.290909 145.434312 
L 96.349091 145.450944 
L 100.407273 145.50084 
L 104.465455 145.596096 
L 108.523636 145.754856 
L 112.581818 146.002824 
L 116.64 146.368728 
L 120.698182 146.872224 
L 124.756364 147.508776 
L 128.814545 148.251168 
L 132.872727 149.067648 
L 136.930909 149.927976 
L 140.989091 150.81552 
L 145.047273 151.71516 
L 149.105455 152.619336 
L 153.163636 153.520488 
L 157.221818 154.41408 
L 161.28 155.297088 
L 165.338182 156.164976 
L 169.396364 157.019256 
L 173.454545 157.85388 
L 177.512727 158.67036 
L 181.570909 159.467184 
L 185.629091 160.239816 
L 189.687273 160.989768 
L 193.745455 161.715528 
L 197.803636 162.414072 
L 201.861818 163.0854 
L 205.92 163.728 
L 209.978182 164.34036 
L 214.036364 164.920968 
L 218.094545 165.468312 
L 222.152727 165.98088 
L 226.210909 166.45716 
L 230.269091 166.894128 
L 234.327273 167.293296 
L 238.385455 167.650128 
L 242.443636 167.963112 
L 246.501818 168.230736 
L 250.56 168.453 
L 254.618182 168.62688 
L 258.676364 168.750864 
L 262.734545 168.821928 
L 266.792727 168.841584 
L 270.850909 168.806808 
L 274.909091 168.7176 
L 278.967273 168.572448 
L 283.025455 168.36984 
L 287.083636 168.111288 
L 291.141818 167.796792 
L 295.2 167.42484 
L 299.258182 166.998456 
L 303.316364 166.51764 
L 307.374545 165.983904 
L 311.432727 165.39876 
L 315.490909 164.766744 
L 319.549091 164.087856 
L 323.607273 163.369656 
L 327.665455 162.615168 
L 331.723636 161.83044 
L 335.781818 161.030592 
L 339.84 160.230744 
L 343.898182 159.473232 
L 347.956364 158.833656 
L 352.014545 158.479848 
L 356.072727 158.623488 
L 360.130909 159.261552 
L 364.189091 160.183872 
L 368.247273 161.231688 
L 372.305455 162.332424 
L 376.363636 163.451304 
L 380.421818 164.570184 
L 384.48 165.681504 
L 388.538182 166.777704 
L 392.596364 167.854248 
L 396.654545 168.911136 
L 400.712727 169.943832 
L 404.770909 170.950824 
L 408.829091 171.932112 
L 412.887273 172.884672 
L 416.945455 173.806992 
L 421.003636 174.699072 
L 425.061818 175.557888 
L 429.12 176.38344 
L 433.178182 177.172704 
L 437.236364 177.92568 
L 441.294545 178.640856 
L 445.352727 179.31672 
L 449.410909 179.950248 
L 453.469091 180.54144 
L 457.527273 181.087272 
L 461.585455 181.587744 
L 465.643636 182.039832 
L 469.701818 182.443536 
L 473.76 182.797344 
L 477.818182 183.098232 
L 481.876364 183.3462 
L 485.934545 183.539736 
L 489.992727 183.680352 
L 494.050909 183.763512 
L 498.109091 183.79224 
" clip-path="url(#pa17ac14f61)" style="fill: none; stroke: #000000; stroke-opacity: 0.5; stroke-linecap: square"/>
   </g>
   <g id="line2d_21">
    <path d="M 92.290909 138.985632 
L 96.349091 139.156488 
L 100.407273 139.607064 
L 104.465455 140.217912 
L 108.523636 140.884704 
L 112.581818 141.52428 
L 116.64 142.074648 
L 120.698182 142.498008 
L 124.756364 142.789824 
L 128.814545 142.966728 
L 132.872727 143.05896 
L 136.930909 143.0892 
L 140.989091 143.072568 
L 145.047273 143.024184 
L 149.105455 142.947072 
L 153.163636 142.850304 
L 157.221818 142.73388 
L 161.28 142.603848 
L 165.338182 142.457184 
L 169.396364 142.299936 
L 173.454545 142.12908 
L 177.512727 141.94764 
L 181.570909 141.757128 
L 185.629091 141.55452 
L 189.687273 141.34284 
L 193.745455 141.1236 
L 197.803636 140.893776 
L 201.861818 140.656392 
L 205.92 140.409936 
L 209.978182 140.15592 
L 214.036364 139.894344 
L 218.094545 139.625208 
L 222.152727 139.350024 
L 226.210909 139.06728 
L 230.269091 138.778488 
L 234.327273 138.483648 
L 238.385455 138.181248 
L 242.443636 137.875824 
L 246.501818 137.564352 
L 250.56 137.248344 
L 254.618182 136.9278 
L 258.676364 136.60272 
L 262.734545 136.274616 
L 266.792727 135.945 
L 270.850909 135.613872 
L 274.909091 135.284256 
L 278.967273 134.959176 
L 283.025455 134.649216 
L 287.083636 134.399736 
L 291.141818 134.507088 
L 295.2 135.57456 
L 299.258182 136.979208 
L 303.316364 138.430728 
L 307.374545 139.885272 
L 311.432727 141.332256 
L 315.490909 142.767144 
L 319.549091 144.186912 
L 323.607273 145.587024 
L 327.665455 146.962944 
L 331.723636 148.308624 
L 335.781818 149.614992 
L 339.84 150.865416 
L 343.898182 152.023608 
L 347.956364 153.010944 
L 352.014545 153.66564 
L 356.072727 153.776016 
L 360.130909 153.349632 
L 364.189091 152.598168 
L 368.247273 151.683408 
L 372.305455 150.685488 
L 376.363636 149.64372 
L 380.421818 148.58532 
L 384.48 147.535992 
L 388.538182 146.529 
L 392.596364 145.626336 
L 396.654545 144.93384 
L 400.712727 144.613296 
L 404.770909 144.747864 
L 408.829091 145.231704 
L 412.887273 145.90152 
L 416.945455 146.652984 
L 421.003636 147.430152 
L 425.061818 148.208832 
L 429.12 148.972392 
L 433.178182 149.71176 
L 437.236364 150.420888 
L 441.294545 151.09524 
L 445.352727 151.733304 
L 449.410909 152.330544 
L 453.469091 152.88696 
L 457.527273 153.398016 
L 461.585455 153.865224 
L 465.643636 154.287072 
L 469.701818 154.662048 
L 473.76 154.987128 
L 477.818182 155.265336 
L 481.876364 155.492136 
L 485.934545 155.670552 
L 489.992727 155.79756 
L 494.050909 155.87316 
L 498.109091 155.898864 
" clip-path="url(#pa17ac14f61)" style="fill: none; stroke: #000000; stroke-opacity: 0.5; stroke-linecap: square"/>
   </g>
   <g id="line2d_22">
    <path d="M 92.290909 132.647328 
L 96.349091 132.449256 
L 100.407273 131.909472 
L 104.465455 131.141376 
L 108.523636 130.234176 
L 112.581818 129.24684 
L 116.64 128.217168 
L 120.698182 127.172376 
L 124.756364 126.13212 
L 128.814545 125.120592 
L 132.872727 124.160472 
L 136.930909 123.275952 
L 140.989091 122.485176 
L 145.047273 121.79268 
L 149.105455 121.196952 
L 153.163636 120.676824 
L 157.221818 120.217176 
L 161.28 119.798352 
L 165.338182 119.405232 
L 169.396364 119.030256 
L 173.454545 118.66284 
L 177.512727 118.29996 
L 181.570909 117.935568 
L 185.629091 117.569664 
L 189.687273 117.199224 
L 193.745455 116.822736 
L 197.803636 116.441712 
L 201.861818 116.05464 
L 205.92 115.664544 
L 209.978182 115.272936 
L 214.036364 114.884352 
L 218.094545 114.510888 
L 222.152727 114.167664 
L 226.210909 113.89248 
L 230.269091 113.768496 
L 234.327273 113.957496 
L 238.385455 114.619752 
L 242.443636 115.70688 
L 246.501818 117.035928 
L 250.56 118.478376 
L 254.618182 119.976768 
L 258.676364 121.503888 
L 262.734545 123.043104 
L 266.792727 124.586856 
L 270.850909 126.129096 
L 274.909091 127.6668 
L 278.967273 129.190896 
L 283.025455 130.692312 
L 287.083636 132.124176 
L 291.141818 133.188624 
L 295.2 133.282368 
L 299.258182 133.028352 
L 303.316364 132.71688 
L 307.374545 132.388776 
L 311.432727 132.054624 
L 315.490909 131.721984 
L 319.549091 131.392368 
L 323.607273 131.0688 
L 327.665455 130.754304 
L 331.723636 130.451904 
L 335.781818 130.172184 
L 339.84 129.924216 
L 343.898182 129.727656 
L 347.956364 129.623328 
L 352.014545 129.682296 
L 356.072727 130.004352 
L 360.130909 130.642416 
L 364.189091 131.531472 
L 368.247273 132.55812 
L 372.305455 133.640712 
L 376.363636 134.7354 
L 380.421818 135.80892 
L 384.48 136.835568 
L 388.538182 137.78208 
L 392.596364 138.587976 
L 396.654545 139.144392 
L 400.712727 139.292568 
L 404.770909 138.950856 
L 408.829091 138.226608 
L 412.887273 137.286144 
L 416.945455 136.233792 
L 421.003636 135.125496 
L 425.061818 133.993008 
L 429.12 132.85296 
L 433.178182 131.720472 
L 437.236364 130.604616 
L 441.294545 129.519 
L 445.352727 128.471184 
L 449.410909 127.474776 
L 453.469091 126.544896 
L 457.527273 125.698176 
L 461.585455 124.951248 
L 465.643636 124.31772 
L 469.701818 123.802128 
L 473.76 123.399936 
L 477.818182 123.096024 
L 481.876364 122.870736 
L 485.934545 122.711976 
L 489.992727 122.606136 
L 494.050909 122.545656 
L 498.109091 122.526 
" clip-path="url(#pa17ac14f61)" style="fill: none; stroke: #000000; stroke-opacity: 0.5; stroke-linecap: square"/>
   </g>
   <g id="line2d_23">
    <path d="M 92.290909 119.710656 
L 96.349091 119.695536 
L 100.407273 119.6532 
L 104.465455 119.580624 
L 108.523636 119.476296 
L 112.581818 119.337192 
L 116.64 119.155752 
L 120.698182 118.925928 
L 124.756364 118.637136 
L 128.814545 118.272744 
L 132.872727 117.817632 
L 136.930909 117.24912 
L 140.989091 116.5536 
L 145.047273 115.725024 
L 149.105455 114.772464 
L 153.163636 113.71104 
L 157.221818 112.56192 
L 161.28 111.346272 
L 165.338182 110.079216 
L 169.396364 108.769824 
L 173.454545 107.430192 
L 177.512727 106.064856 
L 181.570909 104.6844 
L 185.629091 103.294872 
L 189.687273 101.90988 
L 193.745455 100.5642 
L 197.803636 99.390888 
L 201.861818 99.003816 
L 205.92 99.95184 
L 209.978182 101.367072 
L 214.036364 102.87756 
L 218.094545 104.398632 
L 222.152727 105.890976 
L 226.210909 107.30772 
L 230.269091 108.561168 
L 234.327273 109.491048 
L 238.385455 109.929528 
L 242.443636 109.926504 
L 246.501818 109.667952 
L 250.56 109.274832 
L 254.618182 108.809136 
L 258.676364 108.299592 
L 262.734545 107.758296 
L 266.792727 107.198856 
L 270.850909 106.628832 
L 274.909091 106.057296 
L 278.967273 105.505416 
L 283.025455 105.014016 
L 287.083636 104.701032 
L 291.141818 104.853744 
L 295.2 105.705 
L 299.258182 106.993224 
L 303.316364 108.443232 
L 307.374545 109.949184 
L 311.432727 111.471768 
L 315.490909 112.99284 
L 319.549091 114.503328 
L 323.607273 115.995672 
L 327.665455 117.466848 
L 331.723636 118.907784 
L 335.781818 120.312432 
L 339.84 121.667184 
L 343.898182 122.950872 
L 347.956364 124.124184 
L 352.014545 125.114544 
L 356.072727 125.820648 
L 360.130909 126.186552 
L 364.189091 126.278784 
L 368.247273 126.204696 
L 372.305455 126.042912 
L 376.363636 125.835768 
L 380.421818 125.601408 
L 384.48 125.354952 
L 388.538182 125.102448 
L 392.596364 124.845408 
L 396.654545 124.58988 
L 400.712727 124.337376 
L 404.770909 124.086384 
L 408.829091 123.839928 
L 412.887273 123.59952 
L 416.945455 123.362136 
L 421.003636 123.129288 
L 425.061818 122.900976 
L 429.12 122.675688 
L 433.178182 122.451912 
L 437.236364 122.229648 
L 441.294545 122.00436 
L 445.352727 121.773024 
L 449.410909 121.52808 
L 453.469091 121.264992 
L 457.527273 120.974688 
L 461.585455 120.646584 
L 465.643636 120.279168 
L 469.701818 119.873952 
L 473.76 119.44908 
L 477.818182 119.028744 
L 481.876364 118.641672 
L 485.934545 118.313568 
L 489.992727 118.064088 
L 494.050909 117.908352 
L 498.109091 117.856944 
" clip-path="url(#pa17ac14f61)" style="fill: none; stroke: #000000; stroke-opacity: 0.5; stroke-linecap: square"/>
   </g>
   <g id="patch_3">
    <path d="M 72 384.48 
L 72 51.84 
" style="fill: none; stroke: #000000; stroke-width: 0.8; stroke-linejoin: miter; stroke-linecap: square"/>
   </g>
   <g id="patch_4">
    <path d="M 518.4 384.48 
L 518.4 51.84 
" style="fill: none; stroke: #000000; stroke-width: 0.8; stroke-linejoin: miter; stroke-linecap: square"/>
   </g>
   <g id="patch_5">
    <path d="M 72 384.48 
L 518.4 384.48 
" style="fill: none; stroke: #000000; stroke-width: 0.8; stroke-linejoin: miter; stroke-linecap: square"/>
   </g>
   <g id="patch_6">
    <path d="M 72 51.84 
L 518.4 51.84 
" style="fill: none; stroke: #000000; stroke-width: 0.8; stroke-linejoin: miter; stroke-linecap: square"/>
   </g>
  </g>
 </g>
 <defs>
  <clipPath id="pa17ac14f61">
   <rect x="72" y="51.84" width="446.4" height="332.64"/>
  </clipPath>
 </defs>
</svg>
