<?xml version="1.0" encoding="utf-8" standalone="no"?>
<!DOCTYPE svg PUBLIC "-//W3C//DTD SVG 1.1//EN"
  "http://www.w3.org/Graphics/SVG/1.1/DTD/svg11.dtd">
<svg xmlns:xlink="http://www.w3.org/1999/xlink" width="576pt" height="432pt" viewBox="0 0 576 432" xmlns="http://www.w3.org/2000/svg" version="1.1">
 <metadata>
  <rdf:RDF xmlns:dc="http://purl.org/dc/elements/1.1/" xmlns:cc="http://creativecommons.org/ns#" xmlns:rdf="http://www.w3.org/1999/02/22-rdf-syntax-ns#">
   <cc:Work>
    <dc:type rdf:resource="http://purl.org/dc/dcmitype/StillImage"/>
    <dc:date>2023-05-04T08:35:55.845431</dc:date>
    <dc:format>image/svg+xml</dc:format>
    <dc:creator>
     <cc:Agent>
      <dc:title>Matplotlib v3.7.1, https://matplotlib.org/</dc:title>
     </cc:Agent>
    </dc:creator>
   </cc:Work>
  </rdf:RDF>
 </metadata>
 <defs>
  <style type="text/css">*{stroke-linejoin: round; stroke-linecap: butt}</style>
 </defs>
 <g id="figure_1">
  <g id="patch_1">
   <path d="M 0 432 
L 576 432 
L 576 0 
L 0 0 
z
" style="fill: #ffffff"/>
  </g>
  <g id="axes_1">
   <g id="patch_2">
    <path d="M 72 384.48 
L 518.4 384.48 
L 518.4 51.84 
L 72 51.84 
z
" style="fill: #ffffff"/>
   </g>
   <g id="matplotlib.axis_1">
    <g id="xtick_1">
     <g id="line2d_1">
      <defs>
       <path id="mcd883cadcd" d="M 0 0 
L 0 3.5 
" style="stroke: #000000; stroke-width: 0.8"/>
      </defs>
      <g>
       <use xlink:href="#mcd883cadcd" x="92.290909" y="384.48" style="stroke: #000000; stroke-width: 0.8"/>
      </g>
     </g>
     <g id="text_1">
      <!-- 0.0 -->
      <g transform="translate(84.339347 399.078438) scale(0.1 -0.1)">
       <defs>
        <path id="DejaVuSans-30" d="M 2034 4250 
Q 1547 4250 1301 3770 
Q 1056 3291 1056 2328 
Q 1056 1369 1301 889 
Q 1547 409 2034 409 
Q 2525 409 2770 889 
Q 3016 1369 3016 2328 
Q 3016 3291 2770 3770 
Q 2525 4250 2034 4250 
z
M 2034 4750 
Q 2819 4750 3233 4129 
Q 3647 3509 3647 2328 
Q 3647 1150 3233 529 
Q 2819 -91 2034 -91 
Q 1250 -91 836 529 
Q 422 1150 422 2328 
Q 422 3509 836 4129 
Q 1250 4750 2034 4750 
z
" transform="scale(0.015625)"/>
        <path id="DejaVuSans-2e" d="M 684 794 
L 1344 794 
L 1344 0 
L 684 0 
L 684 794 
z
" transform="scale(0.015625)"/>
       </defs>
       <use xlink:href="#DejaVuSans-30"/>
       <use xlink:href="#DejaVuSans-2e" x="63.623047"/>
       <use xlink:href="#DejaVuSans-30" x="95.410156"/>
      </g>
     </g>
    </g>
    <g id="xtick_2">
     <g id="line2d_2">
      <g>
       <use xlink:href="#mcd883cadcd" x="173.454545" y="384.48" style="stroke: #000000; stroke-width: 0.8"/>
      </g>
     </g>
     <g id="text_2">
      <!-- 0.2 -->
      <g transform="translate(165.502983 399.078438) scale(0.1 -0.1)">
       <defs>
        <path id="DejaVuSans-32" d="M 1228 531 
L 3431 531 
L 3431 0 
L 469 0 
L 469 531 
Q 828 903 1448 1529 
Q 2069 2156 2228 2338 
Q 2531 2678 2651 2914 
Q 2772 3150 2772 3378 
Q 2772 3750 2511 3984 
Q 2250 4219 1831 4219 
Q 1534 4219 1204 4116 
Q 875 4013 500 3803 
L 500 4441 
Q 881 4594 1212 4672 
Q 1544 4750 1819 4750 
Q 2544 4750 2975 4387 
Q 3406 4025 3406 3419 
Q 3406 3131 3298 2873 
Q 3191 2616 2906 2266 
Q 2828 2175 2409 1742 
Q 1991 1309 1228 531 
z
" transform="scale(0.015625)"/>
       </defs>
       <use xlink:href="#DejaVuSans-30"/>
       <use xlink:href="#DejaVuSans-2e" x="63.623047"/>
       <use xlink:href="#DejaVuSans-32" x="95.410156"/>
      </g>
     </g>
    </g>
    <g id="xtick_3">
     <g id="line2d_3">
      <g>
       <use xlink:href="#mcd883cadcd" x="254.618182" y="384.48" style="stroke: #000000; stroke-width: 0.8"/>
      </g>
     </g>
     <g id="text_3">
      <!-- 0.4 -->
      <g transform="translate(246.666619 399.078438) scale(0.1 -0.1)">
       <defs>
        <path id="DejaVuSans-34" d="M 2419 4116 
L 825 1625 
L 2419 1625 
L 2419 4116 
z
M 2253 4666 
L 3047 4666 
L 3047 1625 
L 3713 1625 
L 3713 1100 
L 3047 1100 
L 3047 0 
L 2419 0 
L 2419 1100 
L 313 1100 
L 313 1709 
L 2253 4666 
z
" transform="scale(0.015625)"/>
       </defs>
       <use xlink:href="#DejaVuSans-30"/>
       <use xlink:href="#DejaVuSans-2e" x="63.623047"/>
       <use xlink:href="#DejaVuSans-34" x="95.410156"/>
      </g>
     </g>
    </g>
    <g id="xtick_4">
     <g id="line2d_4">
      <g>
       <use xlink:href="#mcd883cadcd" x="335.781818" y="384.48" style="stroke: #000000; stroke-width: 0.8"/>
      </g>
     </g>
     <g id="text_4">
      <!-- 0.6 -->
      <g transform="translate(327.830256 399.078438) scale(0.1 -0.1)">
       <defs>
        <path id="DejaVuSans-36" d="M 2113 2584 
Q 1688 2584 1439 2293 
Q 1191 2003 1191 1497 
Q 1191 994 1439 701 
Q 1688 409 2113 409 
Q 2538 409 2786 701 
Q 3034 994 3034 1497 
Q 3034 2003 2786 2293 
Q 2538 2584 2113 2584 
z
M 3366 4563 
L 3366 3988 
Q 3128 4100 2886 4159 
Q 2644 4219 2406 4219 
Q 1781 4219 1451 3797 
Q 1122 3375 1075 2522 
Q 1259 2794 1537 2939 
Q 1816 3084 2150 3084 
Q 2853 3084 3261 2657 
Q 3669 2231 3669 1497 
Q 3669 778 3244 343 
Q 2819 -91 2113 -91 
Q 1303 -91 875 529 
Q 447 1150 447 2328 
Q 447 3434 972 4092 
Q 1497 4750 2381 4750 
Q 2619 4750 2861 4703 
Q 3103 4656 3366 4563 
z
" transform="scale(0.015625)"/>
       </defs>
       <use xlink:href="#DejaVuSans-30"/>
       <use xlink:href="#DejaVuSans-2e" x="63.623047"/>
       <use xlink:href="#DejaVuSans-36" x="95.410156"/>
      </g>
     </g>
    </g>
    <g id="xtick_5">
     <g id="line2d_5">
      <g>
       <use xlink:href="#mcd883cadcd" x="416.945455" y="384.48" style="stroke: #000000; stroke-width: 0.8"/>
      </g>
     </g>
     <g id="text_5">
      <!-- 0.8 -->
      <g transform="translate(408.993892 399.078438) scale(0.1 -0.1)">
       <defs>
        <path id="DejaVuSans-38" d="M 2034 2216 
Q 1584 2216 1326 1975 
Q 1069 1734 1069 1313 
Q 1069 891 1326 650 
Q 1584 409 2034 409 
Q 2484 409 2743 651 
Q 3003 894 3003 1313 
Q 3003 1734 2745 1975 
Q 2488 2216 2034 2216 
z
M 1403 2484 
Q 997 2584 770 2862 
Q 544 3141 544 3541 
Q 544 4100 942 4425 
Q 1341 4750 2034 4750 
Q 2731 4750 3128 4425 
Q 3525 4100 3525 3541 
Q 3525 3141 3298 2862 
Q 3072 2584 2669 2484 
Q 3125 2378 3379 2068 
Q 3634 1759 3634 1313 
Q 3634 634 3220 271 
Q 2806 -91 2034 -91 
Q 1263 -91 848 271 
Q 434 634 434 1313 
Q 434 1759 690 2068 
Q 947 2378 1403 2484 
z
M 1172 3481 
Q 1172 3119 1398 2916 
Q 1625 2713 2034 2713 
Q 2441 2713 2670 2916 
Q 2900 3119 2900 3481 
Q 2900 3844 2670 4047 
Q 2441 4250 2034 4250 
Q 1625 4250 1398 4047 
Q 1172 3844 1172 3481 
z
" transform="scale(0.015625)"/>
       </defs>
       <use xlink:href="#DejaVuSans-30"/>
       <use xlink:href="#DejaVuSans-2e" x="63.623047"/>
       <use xlink:href="#DejaVuSans-38" x="95.410156"/>
      </g>
     </g>
    </g>
    <g id="xtick_6">
     <g id="line2d_6">
      <g>
       <use xlink:href="#mcd883cadcd" x="498.109091" y="384.48" style="stroke: #000000; stroke-width: 0.8"/>
      </g>
     </g>
     <g id="text_6">
      <!-- 1.0 -->
      <g transform="translate(490.157528 399.078438) scale(0.1 -0.1)">
       <defs>
        <path id="DejaVuSans-31" d="M 794 531 
L 1825 531 
L 1825 4091 
L 703 3866 
L 703 4441 
L 1819 4666 
L 2450 4666 
L 2450 531 
L 3481 531 
L 3481 0 
L 794 0 
L 794 531 
z
" transform="scale(0.015625)"/>
       </defs>
       <use xlink:href="#DejaVuSans-31"/>
       <use xlink:href="#DejaVuSans-2e" x="63.623047"/>
       <use xlink:href="#DejaVuSans-30" x="95.410156"/>
      </g>
     </g>
    </g>
   </g>
   <g id="matplotlib.axis_2">
    <g id="ytick_1">
     <g id="line2d_7">
      <defs>
       <path id="m668ead3508" d="M 0 0 
L -3.5 0 
" style="stroke: #000000; stroke-width: 0.8"/>
      </defs>
      <g>
       <use xlink:href="#m668ead3508" x="72" y="369.36" style="stroke: #000000; stroke-width: 0.8"/>
      </g>
     </g>
     <g id="text_7">
      <!-- −5.0 -->
      <g transform="translate(40.717187 373.159219) scale(0.1 -0.1)">
       <defs>
        <path id="DejaVuSans-2212" d="M 678 2272 
L 4684 2272 
L 4684 1741 
L 678 1741 
L 678 2272 
z
" transform="scale(0.015625)"/>
        <path id="DejaVuSans-35" d="M 691 4666 
L 3169 4666 
L 3169 4134 
L 1269 4134 
L 1269 2991 
Q 1406 3038 1543 3061 
Q 1681 3084 1819 3084 
Q 2600 3084 3056 2656 
Q 3513 2228 3513 1497 
Q 3513 744 3044 326 
Q 2575 -91 1722 -91 
Q 1428 -91 1123 -41 
Q 819 9 494 109 
L 494 744 
Q 775 591 1075 516 
Q 1375 441 1709 441 
Q 2250 441 2565 725 
Q 2881 1009 2881 1497 
Q 2881 1984 2565 2268 
Q 2250 2553 1709 2553 
Q 1456 2553 1204 2497 
Q 953 2441 691 2322 
L 691 4666 
z
" transform="scale(0.015625)"/>
       </defs>
       <use xlink:href="#DejaVuSans-2212"/>
       <use xlink:href="#DejaVuSans-35" x="83.789062"/>
       <use xlink:href="#DejaVuSans-2e" x="147.412109"/>
       <use xlink:href="#DejaVuSans-30" x="179.199219"/>
      </g>
     </g>
    </g>
    <g id="ytick_2">
     <g id="line2d_8">
      <g>
       <use xlink:href="#m668ead3508" x="72" y="331.56" style="stroke: #000000; stroke-width: 0.8"/>
      </g>
     </g>
     <g id="text_8">
      <!-- −2.5 -->
      <g transform="translate(40.717187 335.359219) scale(0.1 -0.1)">
       <use xlink:href="#DejaVuSans-2212"/>
       <use xlink:href="#DejaVuSans-32" x="83.789062"/>
       <use xlink:href="#DejaVuSans-2e" x="147.412109"/>
       <use xlink:href="#DejaVuSans-35" x="179.199219"/>
      </g>
     </g>
    </g>
    <g id="ytick_3">
     <g id="line2d_9">
      <g>
       <use xlink:href="#m668ead3508" x="72" y="293.76" style="stroke: #000000; stroke-width: 0.8"/>
      </g>
     </g>
     <g id="text_9">
      <!-- 0.0 -->
      <g transform="translate(49.096875 297.559219) scale(0.1 -0.1)">
       <use xlink:href="#DejaVuSans-30"/>
       <use xlink:href="#DejaVuSans-2e" x="63.623047"/>
       <use xlink:href="#DejaVuSans-30" x="95.410156"/>
      </g>
     </g>
    </g>
    <g id="ytick_4">
     <g id="line2d_10">
      <g>
       <use xlink:href="#m668ead3508" x="72" y="255.96" style="stroke: #000000; stroke-width: 0.8"/>
      </g>
     </g>
     <g id="text_10">
      <!-- 2.5 -->
      <g transform="translate(49.096875 259.759219) scale(0.1 -0.1)">
       <use xlink:href="#DejaVuSans-32"/>
       <use xlink:href="#DejaVuSans-2e" x="63.623047"/>
       <use xlink:href="#DejaVuSans-35" x="95.410156"/>
      </g>
     </g>
    </g>
    <g id="ytick_5">
     <g id="line2d_11">
      <g>
       <use xlink:href="#m668ead3508" x="72" y="218.16" style="stroke: #000000; stroke-width: 0.8"/>
      </g>
     </g>
     <g id="text_11">
      <!-- 5.0 -->
      <g transform="translate(49.096875 221.959219) scale(0.1 -0.1)">
       <use xlink:href="#DejaVuSans-35"/>
       <use xlink:href="#DejaVuSans-2e" x="63.623047"/>
       <use xlink:href="#DejaVuSans-30" x="95.410156"/>
      </g>
     </g>
    </g>
    <g id="ytick_6">
     <g id="line2d_12">
      <g>
       <use xlink:href="#m668ead3508" x="72" y="180.36" style="stroke: #000000; stroke-width: 0.8"/>
      </g>
     </g>
     <g id="text_12">
      <!-- 7.5 -->
      <g transform="translate(49.096875 184.159219) scale(0.1 -0.1)">
       <defs>
        <path id="DejaVuSans-37" d="M 525 4666 
L 3525 4666 
L 3525 4397 
L 1831 0 
L 1172 0 
L 2766 4134 
L 525 4134 
L 525 4666 
z
" transform="scale(0.015625)"/>
       </defs>
       <use xlink:href="#DejaVuSans-37"/>
       <use xlink:href="#DejaVuSans-2e" x="63.623047"/>
       <use xlink:href="#DejaVuSans-35" x="95.410156"/>
      </g>
     </g>
    </g>
    <g id="ytick_7">
     <g id="line2d_13">
      <g>
       <use xlink:href="#m668ead3508" x="72" y="142.56" style="stroke: #000000; stroke-width: 0.8"/>
      </g>
     </g>
     <g id="text_13">
      <!-- 10.0 -->
      <g transform="translate(42.734375 146.359219) scale(0.1 -0.1)">
       <use xlink:href="#DejaVuSans-31"/>
       <use xlink:href="#DejaVuSans-30" x="63.623047"/>
       <use xlink:href="#DejaVuSans-2e" x="127.246094"/>
       <use xlink:href="#DejaVuSans-30" x="159.033203"/>
      </g>
     </g>
    </g>
    <g id="ytick_8">
     <g id="line2d_14">
      <g>
       <use xlink:href="#m668ead3508" x="72" y="104.76" style="stroke: #000000; stroke-width: 0.8"/>
      </g>
     </g>
     <g id="text_14">
      <!-- 12.5 -->
      <g transform="translate(42.734375 108.559219) scale(0.1 -0.1)">
       <use xlink:href="#DejaVuSans-31"/>
       <use xlink:href="#DejaVuSans-32" x="63.623047"/>
       <use xlink:href="#DejaVuSans-2e" x="127.246094"/>
       <use xlink:href="#DejaVuSans-35" x="159.033203"/>
      </g>
     </g>
    </g>
    <g id="ytick_9">
     <g id="line2d_15">
      <g>
       <use xlink:href="#m668ead3508" x="72" y="66.96" style="stroke: #000000; stroke-width: 0.8"/>
      </g>
     </g>
     <g id="text_15">
      <!-- 15.0 -->
      <g transform="translate(42.734375 70.759219) scale(0.1 -0.1)">
       <use xlink:href="#DejaVuSans-31"/>
       <use xlink:href="#DejaVuSans-35" x="63.623047"/>
       <use xlink:href="#DejaVuSans-2e" x="127.246094"/>
       <use xlink:href="#DejaVuSans-30" x="159.033203"/>
      </g>
     </g>
    </g>
   </g>
   <g id="line2d_16">
    <path d="M 92.290909 320.904936 
L 96.349091 321.30864 
L 100.407273 322.152336 
L 104.465455 323.121528 
L 108.523636 324.131544 
L 112.581818 325.15668 
L 116.64 326.186352 
L 120.698182 327.214512 
L 124.756364 328.239648 
L 128.814545 329.26176 
L 132.872727 330.277824 
L 136.930909 331.286328 
L 140.989091 332.290296 
L 145.047273 333.285192 
L 149.105455 334.27404 
L 153.163636 335.255328 
L 157.221818 336.227544 
L 161.28 337.1922 
L 165.338182 338.149296 
L 169.396364 339.09732 
L 173.454545 340.036272 
L 177.512727 340.966152 
L 181.570909 341.88696 
L 185.629091 342.798696 
L 189.687273 343.70136 
L 193.745455 344.594952 
L 197.803636 345.479472 
L 201.861818 346.353408 
L 205.92 347.21676 
L 209.978182 348.07104 
L 214.036364 348.916248 
L 218.094545 349.74936 
L 222.152727 350.5734 
L 226.210909 351.388368 
L 230.269091 352.19124 
L 234.327273 352.983528 
L 238.385455 353.766744 
L 242.443636 354.537864 
L 246.501818 355.2984 
L 250.56 356.048352 
L 254.618182 356.78772 
L 258.676364 357.516504 
L 262.734545 358.233192 
L 266.792727 358.939296 
L 270.850909 359.633304 
L 274.909091 360.316728 
L 278.967273 360.989568 
L 283.025455 361.650312 
L 287.083636 362.300472 
L 291.141818 362.938536 
L 295.2 363.564504 
L 299.258182 364.178376 
L 303.316364 364.781664 
L 307.374545 365.372856 
L 311.432727 365.953464 
L 315.490909 366.520464 
L 319.549091 367.07688 
L 323.607273 367.6212 
L 327.665455 368.153424 
L 331.723636 368.673552 
L 335.781818 369.181584 
L 339.84 369.67752 
L 343.898182 370.16136 
L 347.956364 370.633104 
L 352.014545 371.092752 
L 356.072727 371.540304 
L 360.130909 371.97576 
L 364.189091 372.39912 
L 368.247273 372.808872 
L 372.305455 373.206528 
L 376.363636 373.5936 
L 380.421818 373.967064 
L 384.48 374.32692 
L 388.538182 374.676192 
L 392.596364 375.011856 
L 396.654545 375.335424 
L 400.712727 375.646896 
L 404.770909 375.946272 
L 408.829091 376.23204 
L 412.887273 376.505712 
L 416.945455 376.765776 
L 421.003636 377.013744 
L 425.061818 377.249616 
L 429.12 377.473392 
L 433.178182 377.68356 
L 437.236364 377.88012 
L 441.294545 378.066096 
L 445.352727 378.238464 
L 449.410909 378.397224 
L 453.469091 378.543888 
L 457.527273 378.678456 
L 461.585455 378.799416 
L 465.643636 378.90828 
L 469.701818 379.003536 
L 473.76 379.086696 
L 477.818182 379.15776 
L 481.876364 379.215216 
L 485.934545 379.259064 
L 489.992727 379.290816 
L 494.050909 379.310472 
L 498.109091 379.31652 
" clip-path="url(#p6ee961ef36)" style="fill: none; stroke: #000000; stroke-opacity: 0.5; stroke-linecap: square"/>
   </g>
   <g id="line2d_17">
    <path d="M 92.290909 318.41316 
L 96.349091 318.003408 
L 100.407273 317.14308 
L 104.465455 316.14516 
L 108.523636 315.095832 
L 112.581818 314.0208 
L 116.64 312.929136 
L 120.698182 311.8284 
L 124.756364 310.718592 
L 128.814545 309.602736 
L 132.872727 308.480832 
L 136.930909 307.355904 
L 140.989091 306.22644 
L 145.047273 305.09244 
L 149.105455 303.956928 
L 153.163636 302.81688 
L 157.221818 301.676832 
L 161.28 300.53376 
L 165.338182 299.389176 
L 169.396364 298.244592 
L 173.454545 297.098496 
L 177.512727 295.9524 
L 181.570909 294.806304 
L 185.629091 293.658696 
L 189.687273 292.514112 
L 193.745455 291.369528 
L 197.803636 290.224944 
L 201.861818 289.083384 
L 205.92 287.943336 
L 209.978182 286.8048 
L 214.036364 285.669288 
L 218.094545 284.535288 
L 222.152727 283.405824 
L 226.210909 282.279384 
L 230.269091 281.154456 
L 234.327273 280.035576 
L 238.385455 278.918208 
L 242.443636 277.806888 
L 246.501818 276.698592 
L 250.56 275.594832 
L 254.618182 274.495608 
L 258.676364 273.40092 
L 262.734545 272.310768 
L 266.792727 271.226664 
L 270.850909 270.145584 
L 274.909091 269.070552 
L 278.967273 267.998544 
L 283.025455 266.932584 
L 287.083636 265.87116 
L 291.141818 264.814272 
L 295.2 263.76192 
L 299.258182 262.714104 
L 303.316364 261.670824 
L 307.374545 260.630568 
L 311.432727 259.594848 
L 315.490909 258.563664 
L 319.549091 257.535504 
L 323.607273 256.510368 
L 327.665455 255.488256 
L 331.723636 254.47068 
L 335.781818 253.454616 
L 339.84 252.441576 
L 343.898182 251.43156 
L 347.956364 250.423056 
L 352.014545 249.416064 
L 356.072727 248.412096 
L 360.130909 247.411152 
L 364.189091 246.410208 
L 368.247273 245.410776 
L 372.305455 244.414368 
L 376.363636 243.41796 
L 380.421818 242.424576 
L 384.48 241.431192 
L 388.538182 240.440832 
L 392.596364 239.450472 
L 396.654545 238.463136 
L 400.712727 237.477312 
L 404.770909 236.494512 
L 408.829091 235.513224 
L 412.887273 234.53496 
L 416.945455 233.561232 
L 421.003636 232.589016 
L 425.061818 231.622848 
L 429.12 230.662728 
L 433.178182 229.708656 
L 437.236364 228.760632 
L 441.294545 227.82168 
L 445.352727 226.893312 
L 449.410909 225.97704 
L 453.469091 225.074376 
L 457.527273 224.189856 
L 461.585455 223.326504 
L 465.643636 222.488856 
L 469.701818 221.684472 
L 473.76 220.920912 
L 477.818182 220.210272 
L 481.876364 219.569184 
L 485.934545 219.018816 
L 489.992727 218.589408 
L 494.050909 218.312712 
L 498.109091 218.217456 
" clip-path="url(#p6ee961ef36)" style="fill: none; stroke: #000000; stroke-opacity: 0.5; stroke-linecap: square"/>
   </g>
   <g id="line2d_18">
    <path d="M 92.290909 254.585592 
L 96.349091 254.578032 
L 100.407273 254.55384 
L 104.465455 254.513016 
L 108.523636 254.457072 
L 112.581818 254.386008 
L 116.64 254.298312 
L 120.698182 254.193984 
L 124.756364 254.074536 
L 128.814545 253.938456 
L 132.872727 253.787256 
L 136.930909 253.619424 
L 140.989091 253.436472 
L 145.047273 253.236888 
L 149.105455 253.020672 
L 153.163636 252.789336 
L 157.221818 252.54288 
L 161.28 252.27828 
L 165.338182 252.000072 
L 169.396364 251.705232 
L 173.454545 251.39376 
L 177.512727 251.067168 
L 181.570909 250.725456 
L 185.629091 250.367112 
L 189.687273 249.993648 
L 193.745455 249.605064 
L 197.803636 249.199848 
L 201.861818 248.781024 
L 205.92 248.34708 
L 209.978182 247.898016 
L 214.036364 247.433832 
L 218.094545 246.954528 
L 222.152727 246.463128 
L 226.210909 245.956608 
L 230.269091 245.43648 
L 234.327273 244.904256 
L 238.385455 244.358424 
L 242.443636 243.800496 
L 246.501818 243.230472 
L 250.56 242.649864 
L 254.618182 242.058672 
L 258.676364 241.456896 
L 262.734545 240.844536 
L 266.792727 240.224616 
L 270.850909 239.595624 
L 274.909091 238.959072 
L 278.967273 238.31496 
L 283.025455 237.6648 
L 287.083636 237.010104 
L 291.141818 236.347848 
L 295.2 235.682568 
L 299.258182 235.01124 
L 303.316364 234.336888 
L 307.374545 233.659512 
L 311.432727 232.979112 
L 315.490909 232.295688 
L 319.549091 231.60924 
L 323.607273 230.92128 
L 327.665455 230.230296 
L 331.723636 229.539312 
L 335.781818 228.843792 
L 339.84 228.148272 
L 343.898182 227.45124 
L 347.956364 226.752696 
L 352.014545 226.05264 
L 356.072727 225.352584 
L 360.130909 224.651016 
L 364.189091 223.95096 
L 368.247273 223.249392 
L 372.305455 222.549336 
L 376.363636 221.84928 
L 380.421818 221.150736 
L 384.48 220.455216 
L 388.538182 219.761208 
L 392.596364 219.071736 
L 396.654545 218.3868 
L 400.712727 217.707912 
L 404.770909 217.035072 
L 408.829091 216.369792 
L 412.887273 215.713584 
L 416.945455 215.069472 
L 421.003636 214.437456 
L 425.061818 213.819048 
L 429.12 213.218784 
L 433.178182 212.639688 
L 437.236364 212.083272 
L 441.294545 211.554072 
L 445.352727 211.059648 
L 449.410909 210.60756 
L 453.469091 210.211416 
L 457.527273 209.890872 
L 461.585455 209.671632 
L 465.643636 209.58696 
L 469.701818 209.645928 
L 473.76 209.82888 
L 477.818182 210.091968 
L 481.876364 210.394368 
L 485.934545 210.692232 
L 489.992727 210.949272 
L 494.050909 211.124664 
L 498.109091 211.186656 
" clip-path="url(#p6ee961ef36)" style="fill: none; stroke: #000000; stroke-opacity: 0.5; stroke-linecap: square"/>
   </g>
   <g id="line2d_19">
    <path d="M 92.290909 245.78424 
L 96.349091 245.778192 
L 100.407273 245.758536 
L 104.465455 245.728296 
L 108.523636 245.684448 
L 112.581818 245.626992 
L 116.64 245.558952 
L 120.698182 245.477304 
L 124.756364 245.38356 
L 128.814545 245.27772 
L 132.872727 245.159784 
L 136.930909 245.02824 
L 140.989091 244.8846 
L 145.047273 244.727352 
L 149.105455 244.558008 
L 153.163636 244.376568 
L 157.221818 244.183032 
L 161.28 243.975888 
L 165.338182 243.755136 
L 169.396364 243.5238 
L 173.454545 243.277344 
L 177.512727 243.018792 
L 181.570909 242.748144 
L 185.629091 242.463888 
L 189.687273 242.167536 
L 193.745455 241.856064 
L 197.803636 241.532496 
L 201.861818 241.196832 
L 205.92 240.846048 
L 209.978182 240.481656 
L 214.036364 240.105168 
L 218.094545 239.71356 
L 222.152727 239.308344 
L 226.210909 238.88952 
L 230.269091 238.457088 
L 234.327273 238.009536 
L 238.385455 237.546864 
L 242.443636 237.069072 
L 246.501818 236.577672 
L 250.56 236.06964 
L 254.618182 235.548 
L 258.676364 235.009728 
L 262.734545 234.456336 
L 266.792727 233.886312 
L 270.850909 233.301168 
L 274.909091 232.699392 
L 278.967273 232.080984 
L 283.025455 231.447456 
L 287.083636 230.798808 
L 291.141818 230.132016 
L 295.2 229.451616 
L 299.258182 228.756096 
L 303.316364 228.045456 
L 307.374545 227.321208 
L 311.432727 226.583352 
L 315.490909 225.8334 
L 319.549091 225.071352 
L 323.607273 224.300232 
L 327.665455 223.52004 
L 331.723636 222.730776 
L 335.781818 221.936976 
L 339.84 221.137128 
L 343.898182 220.334256 
L 347.956364 219.531384 
L 352.014545 218.727 
L 356.072727 217.927152 
L 360.130909 217.13184 
L 364.189091 216.344088 
L 368.247273 215.565408 
L 372.305455 214.800336 
L 376.363636 214.050384 
L 380.421818 213.318576 
L 384.48 212.607936 
L 388.538182 211.923 
L 392.596364 211.266792 
L 396.654545 210.642336 
L 400.712727 210.05568 
L 404.770909 209.508336 
L 408.829091 209.006352 
L 412.887273 208.55124 
L 416.945455 208.149048 
L 421.003636 207.801288 
L 425.061818 207.510984 
L 429.12 207.282672 
L 433.178182 207.113328 
L 437.236364 207.004464 
L 441.294545 206.954568 
L 445.352727 206.957592 
L 449.410909 207.005976 
L 453.469091 207.089136 
L 457.527273 207.181368 
L 461.585455 207.255456 
L 465.643636 207.275112 
L 469.701818 207.223704 
L 473.76 207.113328 
L 477.818182 206.975736 
L 481.876364 206.836632 
L 485.934545 206.71416 
L 489.992727 206.620416 
L 494.050909 206.56296 
L 498.109091 206.543304 
" clip-path="url(#p6ee961ef36)" style="fill: none; stroke: #000000; stroke-opacity: 0.5; stroke-linecap: square"/>
   </g>
   <g id="line2d_20">
    <path d="M 92.290909 189.191592 
L 96.349091 189.187056 
L 100.407273 189.17496 
L 104.465455 189.155304 
L 108.523636 189.126576 
L 112.581818 189.090288 
L 116.64 189.044928 
L 120.698182 188.990496 
L 124.756364 188.928504 
L 128.814545 188.85744 
L 132.872727 188.778816 
L 136.930909 188.689608 
L 140.989091 188.591328 
L 145.047273 188.485488 
L 149.105455 188.369064 
L 153.163636 188.243568 
L 157.221818 188.109 
L 161.28 187.963848 
L 165.338182 187.809624 
L 169.396364 187.644816 
L 173.454545 187.470936 
L 177.512727 187.286472 
L 181.570909 187.092936 
L 185.629091 186.888816 
L 189.687273 186.674112 
L 193.745455 186.448824 
L 197.803636 186.214464 
L 201.861818 185.968008 
L 205.92 185.713992 
L 209.978182 185.44788 
L 214.036364 185.171184 
L 218.094545 184.885416 
L 222.152727 184.590576 
L 226.210909 184.28364 
L 230.269091 183.969144 
L 234.327273 183.642552 
L 238.385455 183.306888 
L 242.443636 182.962152 
L 246.501818 182.608344 
L 250.56 182.243952 
L 254.618182 181.872 
L 258.676364 181.489464 
L 262.734545 181.099368 
L 266.792727 180.7002 
L 270.850909 180.29196 
L 274.909091 179.87616 
L 278.967273 179.4528 
L 283.025455 179.020368 
L 287.083636 178.581888 
L 291.141818 178.135848 
L 295.2 177.68376 
L 299.258182 177.224112 
L 303.316364 176.759928 
L 307.374545 176.288184 
L 311.432727 175.811904 
L 315.490909 175.3326 
L 319.549091 174.847248 
L 323.607273 174.358872 
L 327.665455 173.86596 
L 331.723636 173.373048 
L 335.781818 172.877112 
L 339.84 172.379664 
L 343.898182 171.882216 
L 347.956364 171.38628 
L 352.014545 170.891856 
L 356.072727 170.400456 
L 360.130909 169.913592 
L 364.189091 169.432776 
L 368.247273 168.95952 
L 372.305455 168.496848 
L 376.363636 168.047784 
L 380.421818 167.615352 
L 384.48 167.204088 
L 388.538182 166.82004 
L 392.596364 166.469256 
L 396.654545 166.160808 
L 400.712727 165.90528 
L 404.770909 165.711744 
L 408.829091 165.590784 
L 412.887273 165.5424 
L 416.945455 165.556008 
L 421.003636 165.614976 
L 425.061818 165.696624 
L 429.12 165.779784 
L 433.178182 165.849336 
L 437.236364 165.893184 
L 441.294545 165.906792 
L 445.352727 165.89016 
L 449.410909 165.849336 
L 453.469091 165.797928 
L 457.527273 165.755592 
L 461.585455 165.74652 
L 465.643636 165.790368 
L 469.701818 165.891672 
L 473.76 166.0338 
L 477.818182 166.194072 
L 481.876364 166.348296 
L 485.934545 166.482864 
L 489.992727 166.58568 
L 494.050909 166.650696 
L 498.109091 166.671864 
" clip-path="url(#p6ee961ef36)" style="fill: none; stroke: #000000; stroke-opacity: 0.5; stroke-linecap: square"/>
   </g>
   <g id="line2d_21">
    <path d="M 92.290909 177.730632 
L 96.349091 177.718536 
L 100.407273 177.680736 
L 104.465455 177.618744 
L 108.523636 177.531048 
L 112.581818 177.41916 
L 116.64 177.281568 
L 120.698182 177.121296 
L 124.756364 176.933808 
L 128.814545 176.72364 
L 132.872727 176.48928 
L 136.930909 176.230728 
L 140.989091 175.947984 
L 145.047273 175.641048 
L 149.105455 175.311432 
L 153.163636 174.959136 
L 157.221818 174.582648 
L 161.28 174.181968 
L 165.338182 173.76012 
L 169.396364 173.315592 
L 173.454545 172.848384 
L 177.512727 172.358496 
L 181.570909 171.84744 
L 185.629091 171.313704 
L 189.687273 170.757288 
L 193.745455 170.181216 
L 197.803636 169.582464 
L 201.861818 168.964056 
L 205.92 168.32448 
L 209.978182 167.663736 
L 214.036364 166.983336 
L 218.094545 166.281768 
L 222.152727 165.560544 
L 226.210909 164.821176 
L 230.269091 164.062152 
L 234.327273 163.283472 
L 238.385455 162.48816 
L 242.443636 161.673192 
L 246.501818 160.843104 
L 250.56 159.994872 
L 254.618182 159.133032 
L 258.676364 158.256072 
L 262.734545 157.365504 
L 266.792727 156.46284 
L 270.850909 155.549592 
L 274.909091 154.628784 
L 278.967273 153.701928 
L 283.025455 152.772048 
L 287.083636 151.846704 
L 291.141818 150.92892 
L 295.2 150.027768 
L 299.258182 149.153832 
L 303.316364 148.326768 
L 307.374545 147.566232 
L 311.432727 146.907 
L 315.490909 146.39292 
L 319.549091 146.0754 
L 323.607273 145.995264 
L 327.665455 146.167632 
L 331.723636 146.5668 
L 335.781818 147.147408 
L 339.84 147.855024 
L 343.898182 148.651848 
L 347.956364 149.503104 
L 352.014545 150.387624 
L 356.072727 151.288776 
L 360.130909 152.194464 
L 364.189091 153.095616 
L 368.247273 153.98316 
L 372.305455 154.851048 
L 376.363636 155.693232 
L 380.421818 156.50064 
L 384.48 157.265712 
L 388.538182 157.9824 
L 392.596364 158.64012 
L 396.654545 159.226776 
L 400.712727 159.730272 
L 404.770909 160.141536 
L 408.829091 160.448472 
L 412.887273 160.654104 
L 416.945455 160.767504 
L 421.003636 160.812864 
L 425.061818 160.820424 
L 429.12 160.829496 
L 433.178182 160.874856 
L 437.236364 160.992792 
L 441.294545 161.198424 
L 445.352727 161.481168 
L 449.410909 161.801712 
L 453.469091 162.113184 
L 457.527273 162.371736 
L 461.585455 162.538056 
L 465.643636 162.583416 
L 469.701818 162.50328 
L 473.76 162.312768 
L 477.818182 162.040608 
L 481.876364 161.71704 
L 485.934545 161.367768 
L 489.992727 161.027568 
L 494.050909 160.744824 
L 498.109091 160.623864 
" clip-path="url(#p6ee961ef36)" style="fill: none; stroke: #000000; stroke-opacity: 0.5; stroke-linecap: square"/>
   </g>
   <g id="line2d_22">
    <path d="M 92.290909 70.950168 
L 96.349091 71.300952 
L 100.407273 72.137088 
L 104.465455 73.195488 
L 108.523636 74.356704 
L 112.581818 75.575376 
L 116.64 76.8258 
L 120.698182 78.097392 
L 124.756364 79.382592 
L 128.814545 80.675352 
L 132.872727 81.972648 
L 136.930909 83.272968 
L 140.989091 84.5748 
L 145.047273 85.876632 
L 149.105455 87.178464 
L 153.163636 88.477272 
L 157.221818 89.773056 
L 161.28 91.067328 
L 165.338182 92.358576 
L 169.396364 93.6468 
L 173.454545 94.932 
L 177.512727 96.214176 
L 181.570909 97.491816 
L 185.629091 98.766432 
L 189.687273 100.036512 
L 193.745455 101.303568 
L 197.803636 102.5676 
L 201.861818 103.828608 
L 205.92 105.08508 
L 209.978182 106.338528 
L 214.036364 107.58744 
L 218.094545 108.833328 
L 222.152727 110.076192 
L 226.210909 111.316032 
L 230.269091 112.551336 
L 234.327273 113.783616 
L 238.385455 115.01136 
L 242.443636 116.234568 
L 246.501818 117.454752 
L 250.56 118.668888 
L 254.618182 119.878488 
L 258.676364 121.080528 
L 262.734545 122.27652 
L 266.792727 123.464952 
L 270.850909 124.644312 
L 274.909091 125.813088 
L 278.967273 126.966744 
L 283.025455 128.10528 
L 287.083636 129.22416 
L 291.141818 130.315824 
L 295.2 131.374224 
L 299.258182 132.387264 
L 303.316364 133.341336 
L 307.374545 134.210736 
L 311.432727 134.966736 
L 315.490909 135.563976 
L 319.549091 135.955584 
L 323.607273 136.099224 
L 327.665455 135.985824 
L 331.723636 135.65016 
L 335.781818 135.213192 
L 339.84 135.66528 
L 343.898182 136.726704 
L 347.956364 137.816856 
L 352.014545 138.907008 
L 356.072727 139.991112 
L 360.130909 141.067656 
L 364.189091 142.132104 
L 368.247273 143.188992 
L 372.305455 144.232272 
L 376.363636 145.264968 
L 380.421818 146.284056 
L 384.48 147.288024 
L 388.538182 148.278384 
L 392.596364 149.2506 
L 396.654545 150.20316 
L 400.712727 151.136064 
L 404.770909 152.046288 
L 408.829091 152.927784 
L 412.887273 153.77904 
L 416.945455 154.592496 
L 421.003636 155.35908 
L 425.061818 156.068208 
L 429.12 156.701736 
L 433.178182 157.235472 
L 437.236364 157.648248 
L 441.294545 157.926456 
L 445.352727 158.085216 
L 449.410909 158.159304 
L 453.469091 158.185008 
L 457.527273 158.192568 
L 461.585455 158.204664 
L 465.643636 158.233392 
L 469.701818 158.293872 
L 473.76 158.389128 
L 477.818182 158.523696 
L 481.876364 158.7006 
L 485.934545 158.91228 
L 489.992727 159.145128 
L 494.050909 159.356808 
L 498.109091 159.455088 
" clip-path="url(#p6ee961ef36)" style="fill: none; stroke: #000000; stroke-opacity: 0.5; stroke-linecap: square"/>
   </g>
   <g id="line2d_23">
    <path d="M 92.290909 67.502808 
L 96.349091 67.25484 
L 100.407273 66.74832 
L 104.465455 66.305304 
L 108.523636 66.114792 
L 112.581818 66.275064 
L 116.64 66.780072 
L 120.698182 67.560264 
L 124.756364 68.53248 
L 128.814545 69.633216 
L 132.872727 70.818624 
L 136.930909 72.059976 
L 140.989091 73.34064 
L 145.047273 74.645496 
L 149.105455 75.970008 
L 153.163636 77.308128 
L 157.221818 78.652296 
L 161.28 80.004024 
L 165.338182 81.358776 
L 169.396364 82.71504 
L 173.454545 84.072816 
L 177.512727 85.42908 
L 181.570909 86.785344 
L 185.629091 88.138584 
L 189.687273 89.4888 
L 193.745455 90.835992 
L 197.803636 92.18016 
L 201.861818 93.521304 
L 205.92 94.8564 
L 209.978182 96.188472 
L 214.036364 97.514496 
L 218.094545 98.835984 
L 222.152727 100.152936 
L 226.210909 101.46384 
L 230.269091 102.770208 
L 234.327273 104.070528 
L 238.385455 105.363288 
L 242.443636 106.651512 
L 246.501818 107.933688 
L 250.56 109.209816 
L 254.618182 110.478384 
L 258.676364 111.742416 
L 262.734545 112.998888 
L 266.792727 114.2478 
L 270.850909 115.490664 
L 274.909091 116.72748 
L 278.967273 117.956736 
L 283.025455 119.179944 
L 287.083636 120.395592 
L 291.141818 121.605192 
L 295.2 122.807232 
L 299.258182 124.003224 
L 303.316364 125.190144 
L 307.374545 126.371016 
L 311.432727 127.54584 
L 315.490909 128.711592 
L 319.549091 129.868272 
L 323.607273 131.017392 
L 327.665455 132.155928 
L 331.723636 133.273296 
L 335.781818 134.302968 
L 339.84 134.30448 
L 343.898182 133.604424 
L 347.956364 132.818184 
L 352.014545 132.004728 
L 356.072727 131.192784 
L 360.130909 130.40352 
L 364.189091 129.656592 
L 368.247273 128.97468 
L 372.305455 128.374416 
L 376.363636 127.87848 
L 380.421818 127.503504 
L 384.48 127.267632 
L 388.538182 127.18296 
L 392.596364 127.252512 
L 396.654545 127.476288 
L 400.712727 127.843704 
L 404.770909 128.342664 
L 408.829091 128.953512 
L 412.887273 129.658104 
L 416.945455 130.438296 
L 421.003636 131.278968 
L 425.061818 132.163488 
L 429.12 133.07976 
L 433.178182 134.0172 
L 437.236364 134.9622 
L 441.294545 135.9072 
L 445.352727 136.843128 
L 449.410909 137.760912 
L 453.469091 138.65148 
L 457.527273 139.508784 
L 461.585455 140.32224 
L 465.643636 141.082776 
L 469.701818 141.782832 
L 473.76 142.410312 
L 477.818182 142.96068 
L 481.876364 143.423352 
L 485.934545 143.789256 
L 489.992727 144.05688 
L 494.050909 144.218664 
L 498.109091 144.273096 
" clip-path="url(#p6ee961ef36)" style="fill: none; stroke: #000000; stroke-opacity: 0.5; stroke-linecap: square"/>
   </g>
   <g id="patch_3">
    <path d="M 72 384.48 
L 72 51.84 
" style="fill: none; stroke: #000000; stroke-width: 0.8; stroke-linejoin: miter; stroke-linecap: square"/>
   </g>
   <g id="patch_4">
    <path d="M 518.4 384.48 
L 518.4 51.84 
" style="fill: none; stroke: #000000; stroke-width: 0.8; stroke-linejoin: miter; stroke-linecap: square"/>
   </g>
   <g id="patch_5">
    <path d="M 72 384.48 
L 518.4 384.48 
" style="fill: none; stroke: #000000; stroke-width: 0.8; stroke-linejoin: miter; stroke-linecap: square"/>
   </g>
   <g id="patch_6">
    <path d="M 72 51.84 
L 518.4 51.84 
" style="fill: none; stroke: #000000; stroke-width: 0.8; stroke-linejoin: miter; stroke-linecap: square"/>
   </g>
  </g>
 </g>
 <defs>
  <clipPath id="p6ee961ef36">
   <rect x="72" y="51.84" width="446.4" height="332.64"/>
  </clipPath>
 </defs>
</svg>
