<?xml version="1.0" encoding="utf-8" standalone="no"?>
<!DOCTYPE svg PUBLIC "-//W3C//DTD SVG 1.1//EN"
  "http://www.w3.org/Graphics/SVG/1.1/DTD/svg11.dtd">
<svg xmlns:xlink="http://www.w3.org/1999/xlink" width="576pt" height="432pt" viewBox="0 0 576 432" xmlns="http://www.w3.org/2000/svg" version="1.1">
 <metadata>
  <rdf:RDF xmlns:dc="http://purl.org/dc/elements/1.1/" xmlns:cc="http://creativecommons.org/ns#" xmlns:rdf="http://www.w3.org/1999/02/22-rdf-syntax-ns#">
   <cc:Work>
    <dc:type rdf:resource="http://purl.org/dc/dcmitype/StillImage"/>
    <dc:date>2023-05-03T06:55:32.420116</dc:date>
    <dc:format>image/svg+xml</dc:format>
    <dc:creator>
     <cc:Agent>
      <dc:title>Matplotlib v3.7.1, https://matplotlib.org/</dc:title>
     </cc:Agent>
    </dc:creator>
   </cc:Work>
  </rdf:RDF>
 </metadata>
 <defs>
  <style type="text/css">*{stroke-linejoin: round; stroke-linecap: butt}</style>
 </defs>
 <g id="figure_1">
  <g id="patch_1">
   <path d="M 0 432 
L 576 432 
L 576 0 
L 0 0 
z
" style="fill: #ffffff"/>
  </g>
  <g id="axes_1">
   <g id="patch_2">
    <path d="M 72 384.48 
L 518.4 384.48 
L 518.4 51.84 
L 72 51.84 
z
" style="fill: #ffffff"/>
   </g>
   <g id="matplotlib.axis_1">
    <g id="xtick_1">
     <g id="line2d_1">
      <defs>
       <path id="mff9fb77576" d="M 0 0 
L 0 3.5 
" style="stroke: #000000; stroke-width: 0.8"/>
      </defs>
      <g>
       <use xlink:href="#mff9fb77576" x="92.290909" y="384.48" style="stroke: #000000; stroke-width: 0.8"/>
      </g>
     </g>
     <g id="text_1">
      <!-- 0.0 -->
      <g transform="translate(84.339347 399.078438) scale(0.1 -0.1)">
       <defs>
        <path id="DejaVuSans-30" d="M 2034 4250 
Q 1547 4250 1301 3770 
Q 1056 3291 1056 2328 
Q 1056 1369 1301 889 
Q 1547 409 2034 409 
Q 2525 409 2770 889 
Q 3016 1369 3016 2328 
Q 3016 3291 2770 3770 
Q 2525 4250 2034 4250 
z
M 2034 4750 
Q 2819 4750 3233 4129 
Q 3647 3509 3647 2328 
Q 3647 1150 3233 529 
Q 2819 -91 2034 -91 
Q 1250 -91 836 529 
Q 422 1150 422 2328 
Q 422 3509 836 4129 
Q 1250 4750 2034 4750 
z
" transform="scale(0.015625)"/>
        <path id="DejaVuSans-2e" d="M 684 794 
L 1344 794 
L 1344 0 
L 684 0 
L 684 794 
z
" transform="scale(0.015625)"/>
       </defs>
       <use xlink:href="#DejaVuSans-30"/>
       <use xlink:href="#DejaVuSans-2e" x="63.623047"/>
       <use xlink:href="#DejaVuSans-30" x="95.410156"/>
      </g>
     </g>
    </g>
    <g id="xtick_2">
     <g id="line2d_2">
      <g>
       <use xlink:href="#mff9fb77576" x="173.454545" y="384.48" style="stroke: #000000; stroke-width: 0.8"/>
      </g>
     </g>
     <g id="text_2">
      <!-- 0.2 -->
      <g transform="translate(165.502983 399.078438) scale(0.1 -0.1)">
       <defs>
        <path id="DejaVuSans-32" d="M 1228 531 
L 3431 531 
L 3431 0 
L 469 0 
L 469 531 
Q 828 903 1448 1529 
Q 2069 2156 2228 2338 
Q 2531 2678 2651 2914 
Q 2772 3150 2772 3378 
Q 2772 3750 2511 3984 
Q 2250 4219 1831 4219 
Q 1534 4219 1204 4116 
Q 875 4013 500 3803 
L 500 4441 
Q 881 4594 1212 4672 
Q 1544 4750 1819 4750 
Q 2544 4750 2975 4387 
Q 3406 4025 3406 3419 
Q 3406 3131 3298 2873 
Q 3191 2616 2906 2266 
Q 2828 2175 2409 1742 
Q 1991 1309 1228 531 
z
" transform="scale(0.015625)"/>
       </defs>
       <use xlink:href="#DejaVuSans-30"/>
       <use xlink:href="#DejaVuSans-2e" x="63.623047"/>
       <use xlink:href="#DejaVuSans-32" x="95.410156"/>
      </g>
     </g>
    </g>
    <g id="xtick_3">
     <g id="line2d_3">
      <g>
       <use xlink:href="#mff9fb77576" x="254.618182" y="384.48" style="stroke: #000000; stroke-width: 0.8"/>
      </g>
     </g>
     <g id="text_3">
      <!-- 0.4 -->
      <g transform="translate(246.666619 399.078438) scale(0.1 -0.1)">
       <defs>
        <path id="DejaVuSans-34" d="M 2419 4116 
L 825 1625 
L 2419 1625 
L 2419 4116 
z
M 2253 4666 
L 3047 4666 
L 3047 1625 
L 3713 1625 
L 3713 1100 
L 3047 1100 
L 3047 0 
L 2419 0 
L 2419 1100 
L 313 1100 
L 313 1709 
L 2253 4666 
z
" transform="scale(0.015625)"/>
       </defs>
       <use xlink:href="#DejaVuSans-30"/>
       <use xlink:href="#DejaVuSans-2e" x="63.623047"/>
       <use xlink:href="#DejaVuSans-34" x="95.410156"/>
      </g>
     </g>
    </g>
    <g id="xtick_4">
     <g id="line2d_4">
      <g>
       <use xlink:href="#mff9fb77576" x="335.781818" y="384.48" style="stroke: #000000; stroke-width: 0.8"/>
      </g>
     </g>
     <g id="text_4">
      <!-- 0.6 -->
      <g transform="translate(327.830256 399.078438) scale(0.1 -0.1)">
       <defs>
        <path id="DejaVuSans-36" d="M 2113 2584 
Q 1688 2584 1439 2293 
Q 1191 2003 1191 1497 
Q 1191 994 1439 701 
Q 1688 409 2113 409 
Q 2538 409 2786 701 
Q 3034 994 3034 1497 
Q 3034 2003 2786 2293 
Q 2538 2584 2113 2584 
z
M 3366 4563 
L 3366 3988 
Q 3128 4100 2886 4159 
Q 2644 4219 2406 4219 
Q 1781 4219 1451 3797 
Q 1122 3375 1075 2522 
Q 1259 2794 1537 2939 
Q 1816 3084 2150 3084 
Q 2853 3084 3261 2657 
Q 3669 2231 3669 1497 
Q 3669 778 3244 343 
Q 2819 -91 2113 -91 
Q 1303 -91 875 529 
Q 447 1150 447 2328 
Q 447 3434 972 4092 
Q 1497 4750 2381 4750 
Q 2619 4750 2861 4703 
Q 3103 4656 3366 4563 
z
" transform="scale(0.015625)"/>
       </defs>
       <use xlink:href="#DejaVuSans-30"/>
       <use xlink:href="#DejaVuSans-2e" x="63.623047"/>
       <use xlink:href="#DejaVuSans-36" x="95.410156"/>
      </g>
     </g>
    </g>
    <g id="xtick_5">
     <g id="line2d_5">
      <g>
       <use xlink:href="#mff9fb77576" x="416.945455" y="384.48" style="stroke: #000000; stroke-width: 0.8"/>
      </g>
     </g>
     <g id="text_5">
      <!-- 0.8 -->
      <g transform="translate(408.993892 399.078438) scale(0.1 -0.1)">
       <defs>
        <path id="DejaVuSans-38" d="M 2034 2216 
Q 1584 2216 1326 1975 
Q 1069 1734 1069 1313 
Q 1069 891 1326 650 
Q 1584 409 2034 409 
Q 2484 409 2743 651 
Q 3003 894 3003 1313 
Q 3003 1734 2745 1975 
Q 2488 2216 2034 2216 
z
M 1403 2484 
Q 997 2584 770 2862 
Q 544 3141 544 3541 
Q 544 4100 942 4425 
Q 1341 4750 2034 4750 
Q 2731 4750 3128 4425 
Q 3525 4100 3525 3541 
Q 3525 3141 3298 2862 
Q 3072 2584 2669 2484 
Q 3125 2378 3379 2068 
Q 3634 1759 3634 1313 
Q 3634 634 3220 271 
Q 2806 -91 2034 -91 
Q 1263 -91 848 271 
Q 434 634 434 1313 
Q 434 1759 690 2068 
Q 947 2378 1403 2484 
z
M 1172 3481 
Q 1172 3119 1398 2916 
Q 1625 2713 2034 2713 
Q 2441 2713 2670 2916 
Q 2900 3119 2900 3481 
Q 2900 3844 2670 4047 
Q 2441 4250 2034 4250 
Q 1625 4250 1398 4047 
Q 1172 3844 1172 3481 
z
" transform="scale(0.015625)"/>
       </defs>
       <use xlink:href="#DejaVuSans-30"/>
       <use xlink:href="#DejaVuSans-2e" x="63.623047"/>
       <use xlink:href="#DejaVuSans-38" x="95.410156"/>
      </g>
     </g>
    </g>
    <g id="xtick_6">
     <g id="line2d_6">
      <g>
       <use xlink:href="#mff9fb77576" x="498.109091" y="384.48" style="stroke: #000000; stroke-width: 0.8"/>
      </g>
     </g>
     <g id="text_6">
      <!-- 1.0 -->
      <g transform="translate(490.157528 399.078438) scale(0.1 -0.1)">
       <defs>
        <path id="DejaVuSans-31" d="M 794 531 
L 1825 531 
L 1825 4091 
L 703 3866 
L 703 4441 
L 1819 4666 
L 2450 4666 
L 2450 531 
L 3481 531 
L 3481 0 
L 794 0 
L 794 531 
z
" transform="scale(0.015625)"/>
       </defs>
       <use xlink:href="#DejaVuSans-31"/>
       <use xlink:href="#DejaVuSans-2e" x="63.623047"/>
       <use xlink:href="#DejaVuSans-30" x="95.410156"/>
      </g>
     </g>
    </g>
   </g>
   <g id="matplotlib.axis_2">
    <g id="ytick_1">
     <g id="line2d_7">
      <defs>
       <path id="m60f33cd813" d="M 0 0 
L -3.5 0 
" style="stroke: #000000; stroke-width: 0.8"/>
      </defs>
      <g>
       <use xlink:href="#m60f33cd813" x="72" y="369.36" style="stroke: #000000; stroke-width: 0.8"/>
      </g>
     </g>
     <g id="text_7">
      <!-- −5.0 -->
      <g transform="translate(40.717187 373.159219) scale(0.1 -0.1)">
       <defs>
        <path id="DejaVuSans-2212" d="M 678 2272 
L 4684 2272 
L 4684 1741 
L 678 1741 
L 678 2272 
z
" transform="scale(0.015625)"/>
        <path id="DejaVuSans-35" d="M 691 4666 
L 3169 4666 
L 3169 4134 
L 1269 4134 
L 1269 2991 
Q 1406 3038 1543 3061 
Q 1681 3084 1819 3084 
Q 2600 3084 3056 2656 
Q 3513 2228 3513 1497 
Q 3513 744 3044 326 
Q 2575 -91 1722 -91 
Q 1428 -91 1123 -41 
Q 819 9 494 109 
L 494 744 
Q 775 591 1075 516 
Q 1375 441 1709 441 
Q 2250 441 2565 725 
Q 2881 1009 2881 1497 
Q 2881 1984 2565 2268 
Q 2250 2553 1709 2553 
Q 1456 2553 1204 2497 
Q 953 2441 691 2322 
L 691 4666 
z
" transform="scale(0.015625)"/>
       </defs>
       <use xlink:href="#DejaVuSans-2212"/>
       <use xlink:href="#DejaVuSans-35" x="83.789062"/>
       <use xlink:href="#DejaVuSans-2e" x="147.412109"/>
       <use xlink:href="#DejaVuSans-30" x="179.199219"/>
      </g>
     </g>
    </g>
    <g id="ytick_2">
     <g id="line2d_8">
      <g>
       <use xlink:href="#m60f33cd813" x="72" y="331.56" style="stroke: #000000; stroke-width: 0.8"/>
      </g>
     </g>
     <g id="text_8">
      <!-- −2.5 -->
      <g transform="translate(40.717187 335.359219) scale(0.1 -0.1)">
       <use xlink:href="#DejaVuSans-2212"/>
       <use xlink:href="#DejaVuSans-32" x="83.789062"/>
       <use xlink:href="#DejaVuSans-2e" x="147.412109"/>
       <use xlink:href="#DejaVuSans-35" x="179.199219"/>
      </g>
     </g>
    </g>
    <g id="ytick_3">
     <g id="line2d_9">
      <g>
       <use xlink:href="#m60f33cd813" x="72" y="293.76" style="stroke: #000000; stroke-width: 0.8"/>
      </g>
     </g>
     <g id="text_9">
      <!-- 0.0 -->
      <g transform="translate(49.096875 297.559219) scale(0.1 -0.1)">
       <use xlink:href="#DejaVuSans-30"/>
       <use xlink:href="#DejaVuSans-2e" x="63.623047"/>
       <use xlink:href="#DejaVuSans-30" x="95.410156"/>
      </g>
     </g>
    </g>
    <g id="ytick_4">
     <g id="line2d_10">
      <g>
       <use xlink:href="#m60f33cd813" x="72" y="255.96" style="stroke: #000000; stroke-width: 0.8"/>
      </g>
     </g>
     <g id="text_10">
      <!-- 2.5 -->
      <g transform="translate(49.096875 259.759219) scale(0.1 -0.1)">
       <use xlink:href="#DejaVuSans-32"/>
       <use xlink:href="#DejaVuSans-2e" x="63.623047"/>
       <use xlink:href="#DejaVuSans-35" x="95.410156"/>
      </g>
     </g>
    </g>
    <g id="ytick_5">
     <g id="line2d_11">
      <g>
       <use xlink:href="#m60f33cd813" x="72" y="218.16" style="stroke: #000000; stroke-width: 0.8"/>
      </g>
     </g>
     <g id="text_11">
      <!-- 5.0 -->
      <g transform="translate(49.096875 221.959219) scale(0.1 -0.1)">
       <use xlink:href="#DejaVuSans-35"/>
       <use xlink:href="#DejaVuSans-2e" x="63.623047"/>
       <use xlink:href="#DejaVuSans-30" x="95.410156"/>
      </g>
     </g>
    </g>
    <g id="ytick_6">
     <g id="line2d_12">
      <g>
       <use xlink:href="#m60f33cd813" x="72" y="180.36" style="stroke: #000000; stroke-width: 0.8"/>
      </g>
     </g>
     <g id="text_12">
      <!-- 7.5 -->
      <g transform="translate(49.096875 184.159219) scale(0.1 -0.1)">
       <defs>
        <path id="DejaVuSans-37" d="M 525 4666 
L 3525 4666 
L 3525 4397 
L 1831 0 
L 1172 0 
L 2766 4134 
L 525 4134 
L 525 4666 
z
" transform="scale(0.015625)"/>
       </defs>
       <use xlink:href="#DejaVuSans-37"/>
       <use xlink:href="#DejaVuSans-2e" x="63.623047"/>
       <use xlink:href="#DejaVuSans-35" x="95.410156"/>
      </g>
     </g>
    </g>
    <g id="ytick_7">
     <g id="line2d_13">
      <g>
       <use xlink:href="#m60f33cd813" x="72" y="142.56" style="stroke: #000000; stroke-width: 0.8"/>
      </g>
     </g>
     <g id="text_13">
      <!-- 10.0 -->
      <g transform="translate(42.734375 146.359219) scale(0.1 -0.1)">
       <use xlink:href="#DejaVuSans-31"/>
       <use xlink:href="#DejaVuSans-30" x="63.623047"/>
       <use xlink:href="#DejaVuSans-2e" x="127.246094"/>
       <use xlink:href="#DejaVuSans-30" x="159.033203"/>
      </g>
     </g>
    </g>
    <g id="ytick_8">
     <g id="line2d_14">
      <g>
       <use xlink:href="#m60f33cd813" x="72" y="104.76" style="stroke: #000000; stroke-width: 0.8"/>
      </g>
     </g>
     <g id="text_14">
      <!-- 12.5 -->
      <g transform="translate(42.734375 108.559219) scale(0.1 -0.1)">
       <use xlink:href="#DejaVuSans-31"/>
       <use xlink:href="#DejaVuSans-32" x="63.623047"/>
       <use xlink:href="#DejaVuSans-2e" x="127.246094"/>
       <use xlink:href="#DejaVuSans-35" x="159.033203"/>
      </g>
     </g>
    </g>
    <g id="ytick_9">
     <g id="line2d_15">
      <g>
       <use xlink:href="#m60f33cd813" x="72" y="66.96" style="stroke: #000000; stroke-width: 0.8"/>
      </g>
     </g>
     <g id="text_15">
      <!-- 15.0 -->
      <g transform="translate(42.734375 70.759219) scale(0.1 -0.1)">
       <use xlink:href="#DejaVuSans-31"/>
       <use xlink:href="#DejaVuSans-35" x="63.623047"/>
       <use xlink:href="#DejaVuSans-2e" x="127.246094"/>
       <use xlink:href="#DejaVuSans-30" x="159.033203"/>
      </g>
     </g>
    </g>
   </g>
   <g id="line2d_16">
    <path d="M 92.290909 360.69624 
L 96.349091 360.691704 
L 100.407273 360.676584 
L 104.465455 360.649368 
L 108.523636 360.614592 
L 112.581818 360.56772 
L 116.64 360.510264 
L 120.698182 360.443736 
L 124.756364 360.366624 
L 128.814545 360.278928 
L 132.872727 360.18216 
L 136.930909 360.074808 
L 140.989091 359.956872 
L 145.047273 359.828352 
L 149.105455 359.692272 
L 153.163636 359.544096 
L 157.221818 359.386848 
L 161.28 359.220528 
L 165.338182 359.043624 
L 169.396364 358.85916 
L 173.454545 358.664112 
L 177.512727 358.459992 
L 181.570909 358.2468 
L 185.629091 358.024536 
L 189.687273 357.7932 
L 193.745455 357.552792 
L 197.803636 357.304824 
L 201.861818 357.047784 
L 205.92 356.783184 
L 209.978182 356.511024 
L 214.036364 356.231304 
L 218.094545 355.942512 
L 222.152727 355.647672 
L 226.210909 355.345272 
L 230.269091 355.036824 
L 234.327273 354.720816 
L 238.385455 354.400272 
L 242.443636 354.072168 
L 246.501818 353.739528 
L 250.56 353.40084 
L 254.618182 353.059128 
L 258.676364 352.711368 
L 262.734545 352.360584 
L 266.792727 352.005264 
L 270.850909 351.64692 
L 274.909091 351.287064 
L 278.967273 350.924184 
L 283.025455 350.559792 
L 287.083636 350.193888 
L 291.141818 349.827984 
L 295.2 349.46208 
L 299.258182 349.096176 
L 303.316364 348.733296 
L 307.374545 348.370416 
L 311.432727 348.01056 
L 315.490909 347.65524 
L 319.549091 347.302944 
L 323.607273 346.955184 
L 327.665455 346.61196 
L 331.723636 346.276296 
L 335.781818 345.945168 
L 339.84 345.623112 
L 343.898182 345.308616 
L 347.956364 345.00168 
L 352.014545 344.705328 
L 356.072727 344.418048 
L 360.130909 344.13984 
L 364.189091 343.873728 
L 368.247273 343.6182 
L 372.305455 343.373256 
L 376.363636 343.140408 
L 380.421818 342.918144 
L 384.48 342.709488 
L 388.538182 342.511416 
L 392.596364 342.323928 
L 396.654545 342.150048 
L 400.712727 341.986752 
L 404.770909 341.835552 
L 408.829091 341.693424 
L 412.887273 341.563392 
L 416.945455 341.443944 
L 421.003636 341.333568 
L 425.061818 341.232264 
L 429.12 341.140032 
L 433.178182 341.056872 
L 437.236364 340.981272 
L 441.294545 340.913232 
L 445.352727 340.85124 
L 449.410909 340.796808 
L 453.469091 340.748424 
L 457.527273 340.706088 
L 461.585455 340.668288 
L 465.643636 340.636536 
L 469.701818 340.607808 
L 473.76 340.585128 
L 477.818182 340.565472 
L 481.876364 340.550352 
L 485.934545 340.538256 
L 489.992727 340.529184 
L 494.050909 340.524648 
L 498.109091 340.523136 
" clip-path="url(#p63f872902b)" style="fill: none; stroke: #000000; stroke-opacity: 0.5; stroke-linecap: square"/>
   </g>
   <g id="line2d_17">
    <path d="M 92.290909 271.66212 
L 96.349091 271.710504 
L 100.407273 271.855656 
L 104.465455 272.090016 
L 108.523636 272.41056 
L 112.581818 272.809728 
L 116.64 273.276936 
L 120.698182 273.804624 
L 124.756364 274.38372 
L 128.814545 275.006664 
L 132.872727 275.665896 
L 136.930909 276.35688 
L 140.989091 277.072056 
L 145.047273 277.806888 
L 149.105455 278.558352 
L 153.163636 279.321912 
L 157.221818 280.094544 
L 161.28 280.874736 
L 165.338182 281.657952 
L 169.396364 282.44268 
L 173.454545 283.227408 
L 177.512727 284.012136 
L 181.570909 284.79384 
L 185.629091 285.571008 
L 189.687273 286.34364 
L 193.745455 287.108712 
L 197.803636 287.869248 
L 201.861818 288.6192 
L 205.92 289.363104 
L 209.978182 290.096424 
L 214.036364 290.81916 
L 218.094545 291.531312 
L 222.152727 292.23288 
L 226.210909 292.922352 
L 230.269091 293.599728 
L 234.327273 294.263496 
L 238.385455 294.915168 
L 242.443636 295.55172 
L 246.501818 296.174664 
L 250.56 296.780976 
L 254.618182 297.37368 
L 258.676364 297.949752 
L 262.734545 298.509192 
L 266.792727 299.052 
L 270.850909 299.578176 
L 274.909091 300.084696 
L 278.967273 300.573072 
L 283.025455 301.043304 
L 287.083636 301.49388 
L 291.141818 301.9248 
L 295.2 302.334552 
L 299.258182 302.721624 
L 303.316364 303.08904 
L 307.374545 303.433776 
L 311.432727 303.755832 
L 315.490909 304.053696 
L 319.549091 304.327368 
L 323.607273 304.576848 
L 327.665455 304.802136 
L 331.723636 305.00172 
L 335.781818 305.1756 
L 339.84 305.322264 
L 343.898182 305.441712 
L 347.956364 305.535456 
L 352.014545 305.601984 
L 356.072727 305.639784 
L 360.130909 305.650368 
L 364.189091 305.633736 
L 368.247273 305.589888 
L 372.305455 305.517312 
L 376.363636 305.419032 
L 380.421818 305.293536 
L 384.48 305.140824 
L 388.538182 304.96392 
L 392.596364 304.761312 
L 396.654545 304.536024 
L 400.712727 304.288056 
L 404.770909 304.01892 
L 408.829091 303.728616 
L 412.887273 303.42168 
L 416.945455 303.0966 
L 421.003636 302.757912 
L 425.061818 302.407128 
L 429.12 302.04576 
L 433.178182 301.676832 
L 437.236364 301.303368 
L 441.294545 300.92688 
L 445.352727 300.551904 
L 449.410909 300.182976 
L 453.469091 299.821608 
L 457.527273 299.472336 
L 461.585455 299.138184 
L 465.643636 298.823688 
L 469.701818 298.534896 
L 473.76 298.27332 
L 477.818182 298.045008 
L 481.876364 297.851472 
L 485.934545 297.697248 
L 489.992727 297.58536 
L 494.050909 297.51732 
L 498.109091 297.49464 
" clip-path="url(#p63f872902b)" style="fill: none; stroke: #000000; stroke-opacity: 0.5; stroke-linecap: square"/>
   </g>
   <g id="line2d_18">
    <path d="M 92.290909 248.599584 
L 96.349091 248.545152 
L 100.407273 248.383368 
L 104.465455 248.118768 
L 108.523636 247.7574 
L 112.581818 247.306824 
L 116.64 246.777624 
L 120.698182 246.175848 
L 124.756364 245.510568 
L 128.814545 244.792368 
L 132.872727 244.027296 
L 136.930909 243.222912 
L 140.989091 242.385264 
L 145.047273 241.517376 
L 149.105455 240.626808 
L 153.163636 239.718096 
L 157.221818 238.794264 
L 161.28 237.858336 
L 165.338182 236.913336 
L 169.396364 235.965312 
L 173.454545 235.015776 
L 177.512727 234.067752 
L 181.570909 233.122752 
L 185.629091 232.186824 
L 189.687273 231.26148 
L 193.745455 230.349744 
L 197.803636 229.456152 
L 201.861818 228.583728 
L 205.92 227.735496 
L 209.978182 226.91448 
L 214.036364 226.12824 
L 218.094545 225.378288 
L 222.152727 224.670672 
L 226.210909 224.01144 
L 230.269091 223.403616 
L 234.327273 222.857784 
L 238.385455 222.395112 
L 242.443636 222.122952 
L 246.501818 222.216696 
L 250.56 222.441984 
L 254.618182 222.699024 
L 258.676364 222.97572 
L 262.734545 223.272072 
L 266.792727 223.585056 
L 270.850909 223.919208 
L 274.909091 224.274528 
L 278.967273 224.655552 
L 283.025455 225.065304 
L 287.083636 225.506808 
L 291.141818 225.9846 
L 295.2 226.503216 
L 299.258182 227.064168 
L 303.316364 227.67048 
L 307.374545 228.323664 
L 311.432727 229.022208 
L 315.490909 229.7646 
L 319.549091 230.55084 
L 323.607273 231.37488 
L 327.665455 232.233696 
L 331.723636 233.125776 
L 335.781818 234.046584 
L 339.84 234.991584 
L 343.898182 235.959264 
L 347.956364 236.945088 
L 352.014545 237.947544 
L 356.072727 238.962096 
L 360.130909 239.988744 
L 364.189091 241.022952 
L 368.247273 242.06472 
L 372.305455 243.109512 
L 376.363636 244.157328 
L 380.421818 245.205144 
L 384.48 246.251448 
L 388.538182 247.29624 
L 392.596364 248.333472 
L 396.654545 249.366168 
L 400.712727 250.389792 
L 404.770909 251.402832 
L 408.829091 252.403776 
L 412.887273 253.391112 
L 416.945455 254.361816 
L 421.003636 255.315888 
L 425.061818 256.248792 
L 429.12 257.159016 
L 433.178182 258.045048 
L 437.236364 258.903864 
L 441.294545 259.730928 
L 445.352727 260.524728 
L 449.410909 261.28224 
L 453.469091 262.00044 
L 457.527273 262.67328 
L 461.585455 263.30076 
L 465.643636 263.87532 
L 469.701818 264.395448 
L 473.76 264.855096 
L 477.818182 265.252752 
L 481.876364 265.58388 
L 485.934545 265.843944 
L 489.992727 266.032944 
L 494.050909 266.146344 
L 498.109091 266.184144 
" clip-path="url(#p63f872902b)" style="fill: none; stroke: #000000; stroke-opacity: 0.5; stroke-linecap: square"/>
   </g>
   <g id="line2d_19">
    <path d="M 92.290909 218.098008 
L 96.349091 218.09952 
L 100.407273 218.10708 
L 104.465455 218.117664 
L 108.523636 218.132784 
L 112.581818 218.15244 
L 116.64 218.176632 
L 120.698182 218.206872 
L 124.756364 218.240136 
L 128.814545 218.279448 
L 132.872727 218.321784 
L 136.930909 218.370168 
L 140.989091 218.4246 
L 145.047273 218.483568 
L 149.105455 218.547072 
L 153.163636 218.616624 
L 157.221818 218.692224 
L 161.28 218.773872 
L 165.338182 218.861568 
L 169.396364 218.955312 
L 173.454545 219.055104 
L 177.512727 219.160944 
L 181.570909 219.274344 
L 185.629091 219.393792 
L 189.687273 219.5208 
L 193.745455 219.653856 
L 197.803636 219.795984 
L 201.861818 219.94416 
L 205.92 220.099896 
L 209.978182 220.263192 
L 214.036364 220.434048 
L 218.094545 220.612464 
L 222.152727 220.79844 
L 226.210909 220.991976 
L 230.269091 221.19156 
L 234.327273 221.392656 
L 238.385455 221.581656 
L 242.443636 221.65272 
L 246.501818 221.434992 
L 250.56 221.16888 
L 254.618182 220.954176 
L 258.676364 220.804488 
L 262.734545 220.725864 
L 266.792727 220.71528 
L 270.850909 220.771224 
L 274.909091 220.88916 
L 278.967273 221.06304 
L 283.025455 221.285304 
L 287.083636 221.549904 
L 291.141818 221.846256 
L 295.2 222.1668 
L 299.258182 222.502464 
L 303.316364 222.8472 
L 307.374545 223.19496 
L 311.432727 223.539696 
L 315.490909 223.879896 
L 319.549091 224.214048 
L 323.607273 224.537616 
L 327.665455 224.853624 
L 331.723636 225.162072 
L 335.781818 225.459936 
L 339.84 225.751752 
L 343.898182 226.034496 
L 347.956364 226.30968 
L 352.014545 226.577304 
L 356.072727 226.83888 
L 360.130909 227.092896 
L 364.189091 227.340864 
L 368.247273 227.581272 
L 372.305455 227.815632 
L 376.363636 228.043944 
L 380.421818 228.266208 
L 384.48 228.480912 
L 388.538182 228.689568 
L 392.596364 228.890664 
L 396.654545 229.085712 
L 400.712727 229.2732 
L 404.770909 229.45464 
L 408.829091 229.630032 
L 412.887273 229.796352 
L 416.945455 229.956624 
L 421.003636 230.110848 
L 425.061818 230.256 
L 429.12 230.395104 
L 433.178182 230.525136 
L 437.236364 230.64912 
L 441.294545 230.764032 
L 445.352727 230.872896 
L 449.410909 230.972688 
L 453.469091 231.066432 
L 457.527273 231.151104 
L 461.585455 231.228216 
L 465.643636 231.296256 
L 469.701818 231.356736 
L 473.76 231.409656 
L 477.818182 231.455016 
L 481.876364 231.491304 
L 485.934545 231.520032 
L 489.992727 231.5412 
L 494.050909 231.553296 
L 498.109091 231.557832 
" clip-path="url(#p63f872902b)" style="fill: none; stroke: #000000; stroke-opacity: 0.5; stroke-linecap: square"/>
   </g>
   <g id="line2d_20">
    <path d="M 92.290909 159.81192 
L 96.349091 159.828552 
L 100.407273 159.878448 
L 104.465455 159.96312 
L 108.523636 160.08408 
L 112.581818 160.241328 
L 116.64 160.437888 
L 120.698182 160.675272 
L 124.756364 160.954992 
L 128.814545 161.27856 
L 132.872727 161.647488 
L 136.930909 162.063288 
L 140.989091 162.524448 
L 145.047273 163.029456 
L 149.105455 163.578312 
L 153.163636 164.16648 
L 157.221818 164.790936 
L 161.28 165.447144 
L 165.338182 166.13208 
L 169.396364 166.84272 
L 173.454545 167.571504 
L 177.512727 168.315408 
L 181.570909 169.069896 
L 185.629091 169.831944 
L 189.687273 170.595504 
L 193.745455 171.354528 
L 197.803636 172.109016 
L 201.861818 172.849896 
L 205.92 173.575656 
L 209.978182 174.280248 
L 214.036364 174.960648 
L 218.094545 175.609296 
L 222.152727 176.221656 
L 226.210909 176.794704 
L 230.269091 177.322392 
L 234.327273 177.79716 
L 238.385455 178.217496 
L 242.443636 178.577352 
L 246.501818 178.873704 
L 250.56 179.100504 
L 254.618182 179.25624 
L 258.676364 179.3394 
L 262.734545 179.349984 
L 266.792727 179.28648 
L 270.850909 179.1504 
L 274.909091 178.94628 
L 278.967273 178.675632 
L 283.025455 178.344504 
L 287.083636 177.958944 
L 291.141818 177.521976 
L 295.2 177.042672 
L 299.258182 176.52708 
L 303.316364 175.98276 
L 307.374545 175.417272 
L 311.432727 174.839688 
L 315.490909 174.256056 
L 319.549091 173.67696 
L 323.607273 173.111472 
L 327.665455 172.56564 
L 331.723636 172.05156 
L 335.781818 171.57528 
L 339.84 171.14436 
L 343.898182 170.764848 
L 347.956364 170.442792 
L 352.014545 170.17668 
L 356.072727 169.971048 
L 360.130909 169.819848 
L 364.189091 169.721568 
L 368.247273 169.673184 
L 372.305455 169.665624 
L 376.363636 169.695864 
L 380.421818 169.757856 
L 384.48 169.847064 
L 388.538182 169.95744 
L 392.596364 170.084448 
L 396.654545 170.225064 
L 400.712727 170.377776 
L 404.770909 170.535024 
L 408.829091 170.69832 
L 412.887273 170.86464 
L 416.945455 171.03096 
L 421.003636 171.19728 
L 425.061818 171.360576 
L 429.12 171.519336 
L 433.178182 171.67356 
L 437.236364 171.823248 
L 441.294545 171.965376 
L 445.352727 172.099944 
L 449.410909 172.228464 
L 453.469091 172.3464 
L 457.527273 172.456776 
L 461.585455 172.556568 
L 465.643636 172.647288 
L 469.701818 172.728936 
L 473.76 172.798488 
L 477.818182 172.858968 
L 481.876364 172.908864 
L 485.934545 172.946664 
L 489.992727 172.975392 
L 494.050909 172.992024 
L 498.109091 172.99656 
" clip-path="url(#p63f872902b)" style="fill: none; stroke: #000000; stroke-opacity: 0.5; stroke-linecap: square"/>
   </g>
   <g id="line2d_21">
    <path d="M 92.290909 148.48704 
L 96.349091 148.514256 
L 100.407273 148.594392 
L 104.465455 148.724424 
L 108.523636 148.898304 
L 112.581818 149.113008 
L 116.64 149.357952 
L 120.698182 149.625576 
L 124.756364 149.909832 
L 128.814545 150.201648 
L 132.872727 150.494976 
L 136.930909 150.783768 
L 140.989091 151.063488 
L 145.047273 151.3296 
L 149.105455 151.580592 
L 153.163636 151.814952 
L 157.221818 152.03268 
L 161.28 152.233776 
L 165.338182 152.419752 
L 169.396364 152.590608 
L 173.454545 152.747856 
L 177.512727 152.893008 
L 181.570909 153.027576 
L 185.629091 153.15156 
L 189.687273 153.26496 
L 193.745455 153.369288 
L 197.803636 153.463032 
L 201.861818 153.546192 
L 205.92 153.618768 
L 209.978182 153.68076 
L 214.036364 153.730656 
L 218.094545 153.766944 
L 222.152727 153.789624 
L 226.210909 153.797184 
L 230.269091 153.788112 
L 234.327273 153.762408 
L 238.385455 153.717048 
L 242.443636 153.653544 
L 246.501818 153.570384 
L 250.56 153.467568 
L 254.618182 153.343584 
L 258.676364 153.199944 
L 262.734545 153.041184 
L 266.792727 152.877888 
L 270.850909 152.769024 
L 274.909091 152.847648 
L 278.967273 153.06084 
L 283.025455 153.307296 
L 287.083636 153.558288 
L 291.141818 153.806256 
L 295.2 154.046664 
L 299.258182 154.274976 
L 303.316364 154.488168 
L 307.374545 154.680192 
L 311.432727 154.848024 
L 315.490909 154.987128 
L 319.549091 155.089944 
L 323.607273 155.151936 
L 327.665455 155.167056 
L 331.723636 155.129256 
L 335.781818 155.029464 
L 339.84 154.866168 
L 343.898182 154.630296 
L 347.956364 154.32336 
L 352.014545 153.942336 
L 356.072727 153.487224 
L 360.130909 152.96256 
L 364.189091 152.369856 
L 368.247273 151.718184 
L 372.305455 151.010568 
L 376.363636 150.253056 
L 380.421818 149.451696 
L 384.48 148.612536 
L 388.538182 147.740112 
L 392.596364 146.83896 
L 396.654545 145.913616 
L 400.712727 144.965592 
L 404.770909 143.999424 
L 408.829091 143.018136 
L 412.887273 142.021728 
L 416.945455 141.013224 
L 421.003636 139.995648 
L 425.061818 138.970512 
L 429.12 137.939328 
L 433.178182 136.902096 
L 437.236364 135.863352 
L 441.294545 134.824608 
L 445.352727 133.787376 
L 449.410909 132.756192 
L 453.469091 131.732568 
L 457.527273 130.724064 
L 461.585455 129.733704 
L 465.643636 128.77056 
L 469.701818 127.843704 
L 473.76 126.966744 
L 477.818182 126.157824 
L 481.876364 125.435088 
L 485.934545 124.828776 
L 489.992727 124.36308 
L 494.050909 124.069752 
L 498.109091 123.96996 
" clip-path="url(#p63f872902b)" style="fill: none; stroke: #000000; stroke-opacity: 0.5; stroke-linecap: square"/>
   </g>
   <g id="line2d_22">
    <path d="M 92.290909 134.687016 
L 96.349091 134.747496 
L 100.407273 134.9244 
L 104.465455 135.205632 
L 108.523636 135.573048 
L 112.581818 136.01304 
L 116.64 136.507464 
L 120.698182 137.0412 
L 124.756364 137.606688 
L 128.814545 138.191832 
L 132.872727 138.789072 
L 136.930909 139.393872 
L 140.989091 139.998672 
L 145.047273 140.600448 
L 149.105455 141.194664 
L 153.163636 141.778296 
L 157.221818 142.34832 
L 161.28 142.904736 
L 165.338182 143.443008 
L 169.396364 143.963136 
L 173.454545 144.46512 
L 177.512727 144.945936 
L 181.570909 145.407096 
L 185.629091 145.8486 
L 189.687273 146.268936 
L 193.745455 146.671128 
L 197.803636 147.055176 
L 201.861818 147.42108 
L 205.92 147.771864 
L 209.978182 148.10904 
L 214.036364 148.432608 
L 218.094545 148.745592 
L 222.152727 149.049504 
L 226.210909 149.344344 
L 230.269091 149.634648 
L 234.327273 149.918904 
L 238.385455 150.200136 
L 242.443636 150.478344 
L 246.501818 150.753528 
L 250.56 151.028712 
L 254.618182 151.300872 
L 258.676364 151.570008 
L 262.734545 151.831584 
L 266.792727 152.073504 
L 270.850909 152.2368 
L 274.909091 152.18388 
L 278.967273 151.970688 
L 283.025455 151.695504 
L 287.083636 151.38252 
L 291.141818 151.039296 
L 295.2 150.668856 
L 299.258182 150.269688 
L 303.316364 149.844816 
L 307.374545 149.392728 
L 311.432727 148.914936 
L 315.490909 148.409928 
L 319.549091 147.879216 
L 323.607273 147.3228 
L 327.665455 146.74068 
L 331.723636 146.131344 
L 335.781818 145.497816 
L 339.84 144.838584 
L 343.898182 144.15516 
L 347.956364 143.446032 
L 352.014545 142.712712 
L 356.072727 141.953688 
L 360.130909 141.171984 
L 364.189091 140.3676 
L 368.247273 139.539024 
L 372.305455 138.687768 
L 376.363636 137.815344 
L 380.421818 136.921752 
L 384.48 136.006992 
L 388.538182 135.072576 
L 392.596364 134.118504 
L 396.654545 133.146288 
L 400.712727 132.15744 
L 404.770909 131.15196 
L 408.829091 130.13136 
L 412.887273 129.097152 
L 416.945455 128.050848 
L 421.003636 126.992448 
L 425.061818 125.924976 
L 429.12 124.849944 
L 433.178182 123.770376 
L 437.236364 122.686272 
L 441.294545 121.602168 
L 445.352727 120.5226 
L 449.410909 119.447568 
L 453.469091 118.384632 
L 457.527273 117.338328 
L 461.585455 116.314704 
L 465.643636 115.32132 
L 469.701818 114.36876 
L 473.76 113.46912 
L 477.818182 112.631472 
L 481.876364 111.869424 
L 485.934545 111.192048 
L 489.992727 110.599344 
L 494.050909 110.07468 
L 498.109091 109.596888 
" clip-path="url(#p63f872902b)" style="fill: none; stroke: #000000; stroke-opacity: 0.5; stroke-linecap: square"/>
   </g>
   <g id="line2d_23">
    <path d="M 92.290909 123.827832 
L 96.349091 123.749208 
L 100.407273 123.522408 
L 104.465455 123.154992 
L 108.523636 122.666616 
L 112.581818 122.070888 
L 116.64 121.385952 
L 120.698182 120.622392 
L 124.756364 119.792304 
L 128.814545 118.90476 
L 132.872727 117.965808 
L 136.930909 116.983008 
L 140.989091 115.957872 
L 145.047273 114.89796 
L 149.105455 113.806296 
L 153.163636 112.684392 
L 157.221818 111.535272 
L 161.28 110.36196 
L 165.338182 109.16748 
L 169.396364 107.954856 
L 173.454545 106.722576 
L 177.512727 105.476688 
L 181.570909 104.218704 
L 185.629091 102.951648 
L 189.687273 101.677032 
L 193.745455 100.400904 
L 197.803636 99.124776 
L 201.861818 97.854696 
L 205.92 96.596712 
L 209.978182 95.358384 
L 214.036364 94.148784 
L 218.094545 92.980008 
L 222.152727 91.865664 
L 226.210909 90.823896 
L 230.269091 89.87436 
L 234.327273 89.033688 
L 238.385455 88.317 
L 242.443636 87.733368 
L 246.501818 87.276744 
L 250.56 86.936544 
L 254.618182 86.693112 
L 258.676364 86.52528 
L 262.734545 86.413392 
L 266.792727 86.339304 
L 270.850909 86.29092 
L 274.909091 86.257656 
L 278.967273 86.233464 
L 283.025455 86.213808 
L 287.083636 86.194152 
L 291.141818 86.174496 
L 295.2 86.153328 
L 299.258182 86.133672 
L 303.316364 86.115528 
L 307.374545 86.100408 
L 311.432727 86.091336 
L 315.490909 86.088312 
L 319.549091 86.095872 
L 323.607273 86.115528 
L 327.665455 86.14728 
L 331.723636 86.19264 
L 335.781818 86.25312 
L 339.84 86.327208 
L 343.898182 86.417928 
L 347.956364 86.522256 
L 352.014545 86.640192 
L 356.072727 86.770224 
L 360.130909 86.912352 
L 364.189091 87.065064 
L 368.247273 87.226848 
L 372.305455 87.396192 
L 376.363636 87.573096 
L 380.421818 87.756048 
L 384.48 87.945048 
L 388.538182 88.140096 
L 392.596364 88.33968 
L 396.654545 88.545312 
L 400.712727 88.761528 
L 404.770909 88.994376 
L 408.829091 89.251416 
L 412.887273 89.561376 
L 416.945455 89.969616 
L 421.003636 90.559296 
L 425.061818 91.39392 
L 429.12 92.42964 
L 433.178182 93.580272 
L 437.236364 94.785336 
L 441.294545 96.01308 
L 445.352727 97.24536 
L 449.410909 98.471592 
L 453.469091 99.682704 
L 457.527273 100.871136 
L 461.585455 102.03084 
L 465.643636 103.154256 
L 469.701818 104.2308 
L 473.76 105.249888 
L 477.818182 106.199424 
L 481.876364 107.0658 
L 485.934545 107.835408 
L 489.992727 108.5022 
L 494.050909 109.075248 
L 498.109091 109.571184 
" clip-path="url(#p63f872902b)" style="fill: none; stroke: #000000; stroke-opacity: 0.5; stroke-linecap: square"/>
   </g>
   <g id="patch_3">
    <path d="M 72 384.48 
L 72 51.84 
" style="fill: none; stroke: #000000; stroke-width: 0.8; stroke-linejoin: miter; stroke-linecap: square"/>
   </g>
   <g id="patch_4">
    <path d="M 518.4 384.48 
L 518.4 51.84 
" style="fill: none; stroke: #000000; stroke-width: 0.8; stroke-linejoin: miter; stroke-linecap: square"/>
   </g>
   <g id="patch_5">
    <path d="M 72 384.48 
L 518.4 384.48 
" style="fill: none; stroke: #000000; stroke-width: 0.8; stroke-linejoin: miter; stroke-linecap: square"/>
   </g>
   <g id="patch_6">
    <path d="M 72 51.84 
L 518.4 51.84 
" style="fill: none; stroke: #000000; stroke-width: 0.8; stroke-linejoin: miter; stroke-linecap: square"/>
   </g>
  </g>
 </g>
 <defs>
  <clipPath id="p63f872902b">
   <rect x="72" y="51.84" width="446.4" height="332.64"/>
  </clipPath>
 </defs>
</svg>
