<?xml version="1.0" encoding="utf-8" standalone="no"?>
<!DOCTYPE svg PUBLIC "-//W3C//DTD SVG 1.1//EN"
  "http://www.w3.org/Graphics/SVG/1.1/DTD/svg11.dtd">
<svg xmlns:xlink="http://www.w3.org/1999/xlink" width="576pt" height="432pt" viewBox="0 0 576 432" xmlns="http://www.w3.org/2000/svg" version="1.1">
 <metadata>
  <rdf:RDF xmlns:dc="http://purl.org/dc/elements/1.1/" xmlns:cc="http://creativecommons.org/ns#" xmlns:rdf="http://www.w3.org/1999/02/22-rdf-syntax-ns#">
   <cc:Work>
    <dc:type rdf:resource="http://purl.org/dc/dcmitype/StillImage"/>
    <dc:date>2023-05-03T14:20:26.147857</dc:date>
    <dc:format>image/svg+xml</dc:format>
    <dc:creator>
     <cc:Agent>
      <dc:title>Matplotlib v3.7.1, https://matplotlib.org/</dc:title>
     </cc:Agent>
    </dc:creator>
   </cc:Work>
  </rdf:RDF>
 </metadata>
 <defs>
  <style type="text/css">*{stroke-linejoin: round; stroke-linecap: butt}</style>
 </defs>
 <g id="figure_1">
  <g id="patch_1">
   <path d="M 0 432 
L 576 432 
L 576 0 
L 0 0 
z
" style="fill: #ffffff"/>
  </g>
  <g id="axes_1">
   <g id="patch_2">
    <path d="M 72 384.48 
L 518.4 384.48 
L 518.4 51.84 
L 72 51.84 
z
" style="fill: #ffffff"/>
   </g>
   <g id="matplotlib.axis_1">
    <g id="xtick_1">
     <g id="line2d_1">
      <defs>
       <path id="m7f027d2d5f" d="M 0 0 
L 0 3.5 
" style="stroke: #000000; stroke-width: 0.8"/>
      </defs>
      <g>
       <use xlink:href="#m7f027d2d5f" x="92.290909" y="384.48" style="stroke: #000000; stroke-width: 0.8"/>
      </g>
     </g>
     <g id="text_1">
      <!-- 0.0 -->
      <g transform="translate(84.339347 399.078438) scale(0.1 -0.1)">
       <defs>
        <path id="DejaVuSans-30" d="M 2034 4250 
Q 1547 4250 1301 3770 
Q 1056 3291 1056 2328 
Q 1056 1369 1301 889 
Q 1547 409 2034 409 
Q 2525 409 2770 889 
Q 3016 1369 3016 2328 
Q 3016 3291 2770 3770 
Q 2525 4250 2034 4250 
z
M 2034 4750 
Q 2819 4750 3233 4129 
Q 3647 3509 3647 2328 
Q 3647 1150 3233 529 
Q 2819 -91 2034 -91 
Q 1250 -91 836 529 
Q 422 1150 422 2328 
Q 422 3509 836 4129 
Q 1250 4750 2034 4750 
z
" transform="scale(0.015625)"/>
        <path id="DejaVuSans-2e" d="M 684 794 
L 1344 794 
L 1344 0 
L 684 0 
L 684 794 
z
" transform="scale(0.015625)"/>
       </defs>
       <use xlink:href="#DejaVuSans-30"/>
       <use xlink:href="#DejaVuSans-2e" x="63.623047"/>
       <use xlink:href="#DejaVuSans-30" x="95.410156"/>
      </g>
     </g>
    </g>
    <g id="xtick_2">
     <g id="line2d_2">
      <g>
       <use xlink:href="#m7f027d2d5f" x="173.454545" y="384.48" style="stroke: #000000; stroke-width: 0.8"/>
      </g>
     </g>
     <g id="text_2">
      <!-- 0.2 -->
      <g transform="translate(165.502983 399.078438) scale(0.1 -0.1)">
       <defs>
        <path id="DejaVuSans-32" d="M 1228 531 
L 3431 531 
L 3431 0 
L 469 0 
L 469 531 
Q 828 903 1448 1529 
Q 2069 2156 2228 2338 
Q 2531 2678 2651 2914 
Q 2772 3150 2772 3378 
Q 2772 3750 2511 3984 
Q 2250 4219 1831 4219 
Q 1534 4219 1204 4116 
Q 875 4013 500 3803 
L 500 4441 
Q 881 4594 1212 4672 
Q 1544 4750 1819 4750 
Q 2544 4750 2975 4387 
Q 3406 4025 3406 3419 
Q 3406 3131 3298 2873 
Q 3191 2616 2906 2266 
Q 2828 2175 2409 1742 
Q 1991 1309 1228 531 
z
" transform="scale(0.015625)"/>
       </defs>
       <use xlink:href="#DejaVuSans-30"/>
       <use xlink:href="#DejaVuSans-2e" x="63.623047"/>
       <use xlink:href="#DejaVuSans-32" x="95.410156"/>
      </g>
     </g>
    </g>
    <g id="xtick_3">
     <g id="line2d_3">
      <g>
       <use xlink:href="#m7f027d2d5f" x="254.618182" y="384.48" style="stroke: #000000; stroke-width: 0.8"/>
      </g>
     </g>
     <g id="text_3">
      <!-- 0.4 -->
      <g transform="translate(246.666619 399.078438) scale(0.1 -0.1)">
       <defs>
        <path id="DejaVuSans-34" d="M 2419 4116 
L 825 1625 
L 2419 1625 
L 2419 4116 
z
M 2253 4666 
L 3047 4666 
L 3047 1625 
L 3713 1625 
L 3713 1100 
L 3047 1100 
L 3047 0 
L 2419 0 
L 2419 1100 
L 313 1100 
L 313 1709 
L 2253 4666 
z
" transform="scale(0.015625)"/>
       </defs>
       <use xlink:href="#DejaVuSans-30"/>
       <use xlink:href="#DejaVuSans-2e" x="63.623047"/>
       <use xlink:href="#DejaVuSans-34" x="95.410156"/>
      </g>
     </g>
    </g>
    <g id="xtick_4">
     <g id="line2d_4">
      <g>
       <use xlink:href="#m7f027d2d5f" x="335.781818" y="384.48" style="stroke: #000000; stroke-width: 0.8"/>
      </g>
     </g>
     <g id="text_4">
      <!-- 0.6 -->
      <g transform="translate(327.830256 399.078438) scale(0.1 -0.1)">
       <defs>
        <path id="DejaVuSans-36" d="M 2113 2584 
Q 1688 2584 1439 2293 
Q 1191 2003 1191 1497 
Q 1191 994 1439 701 
Q 1688 409 2113 409 
Q 2538 409 2786 701 
Q 3034 994 3034 1497 
Q 3034 2003 2786 2293 
Q 2538 2584 2113 2584 
z
M 3366 4563 
L 3366 3988 
Q 3128 4100 2886 4159 
Q 2644 4219 2406 4219 
Q 1781 4219 1451 3797 
Q 1122 3375 1075 2522 
Q 1259 2794 1537 2939 
Q 1816 3084 2150 3084 
Q 2853 3084 3261 2657 
Q 3669 2231 3669 1497 
Q 3669 778 3244 343 
Q 2819 -91 2113 -91 
Q 1303 -91 875 529 
Q 447 1150 447 2328 
Q 447 3434 972 4092 
Q 1497 4750 2381 4750 
Q 2619 4750 2861 4703 
Q 3103 4656 3366 4563 
z
" transform="scale(0.015625)"/>
       </defs>
       <use xlink:href="#DejaVuSans-30"/>
       <use xlink:href="#DejaVuSans-2e" x="63.623047"/>
       <use xlink:href="#DejaVuSans-36" x="95.410156"/>
      </g>
     </g>
    </g>
    <g id="xtick_5">
     <g id="line2d_5">
      <g>
       <use xlink:href="#m7f027d2d5f" x="416.945455" y="384.48" style="stroke: #000000; stroke-width: 0.8"/>
      </g>
     </g>
     <g id="text_5">
      <!-- 0.8 -->
      <g transform="translate(408.993892 399.078438) scale(0.1 -0.1)">
       <defs>
        <path id="DejaVuSans-38" d="M 2034 2216 
Q 1584 2216 1326 1975 
Q 1069 1734 1069 1313 
Q 1069 891 1326 650 
Q 1584 409 2034 409 
Q 2484 409 2743 651 
Q 3003 894 3003 1313 
Q 3003 1734 2745 1975 
Q 2488 2216 2034 2216 
z
M 1403 2484 
Q 997 2584 770 2862 
Q 544 3141 544 3541 
Q 544 4100 942 4425 
Q 1341 4750 2034 4750 
Q 2731 4750 3128 4425 
Q 3525 4100 3525 3541 
Q 3525 3141 3298 2862 
Q 3072 2584 2669 2484 
Q 3125 2378 3379 2068 
Q 3634 1759 3634 1313 
Q 3634 634 3220 271 
Q 2806 -91 2034 -91 
Q 1263 -91 848 271 
Q 434 634 434 1313 
Q 434 1759 690 2068 
Q 947 2378 1403 2484 
z
M 1172 3481 
Q 1172 3119 1398 2916 
Q 1625 2713 2034 2713 
Q 2441 2713 2670 2916 
Q 2900 3119 2900 3481 
Q 2900 3844 2670 4047 
Q 2441 4250 2034 4250 
Q 1625 4250 1398 4047 
Q 1172 3844 1172 3481 
z
" transform="scale(0.015625)"/>
       </defs>
       <use xlink:href="#DejaVuSans-30"/>
       <use xlink:href="#DejaVuSans-2e" x="63.623047"/>
       <use xlink:href="#DejaVuSans-38" x="95.410156"/>
      </g>
     </g>
    </g>
    <g id="xtick_6">
     <g id="line2d_6">
      <g>
       <use xlink:href="#m7f027d2d5f" x="498.109091" y="384.48" style="stroke: #000000; stroke-width: 0.8"/>
      </g>
     </g>
     <g id="text_6">
      <!-- 1.0 -->
      <g transform="translate(490.157528 399.078438) scale(0.1 -0.1)">
       <defs>
        <path id="DejaVuSans-31" d="M 794 531 
L 1825 531 
L 1825 4091 
L 703 3866 
L 703 4441 
L 1819 4666 
L 2450 4666 
L 2450 531 
L 3481 531 
L 3481 0 
L 794 0 
L 794 531 
z
" transform="scale(0.015625)"/>
       </defs>
       <use xlink:href="#DejaVuSans-31"/>
       <use xlink:href="#DejaVuSans-2e" x="63.623047"/>
       <use xlink:href="#DejaVuSans-30" x="95.410156"/>
      </g>
     </g>
    </g>
   </g>
   <g id="matplotlib.axis_2">
    <g id="ytick_1">
     <g id="line2d_7">
      <defs>
       <path id="m8724a41622" d="M 0 0 
L -3.5 0 
" style="stroke: #000000; stroke-width: 0.8"/>
      </defs>
      <g>
       <use xlink:href="#m8724a41622" x="72" y="369.36" style="stroke: #000000; stroke-width: 0.8"/>
      </g>
     </g>
     <g id="text_7">
      <!-- −5.0 -->
      <g transform="translate(40.717187 373.159219) scale(0.1 -0.1)">
       <defs>
        <path id="DejaVuSans-2212" d="M 678 2272 
L 4684 2272 
L 4684 1741 
L 678 1741 
L 678 2272 
z
" transform="scale(0.015625)"/>
        <path id="DejaVuSans-35" d="M 691 4666 
L 3169 4666 
L 3169 4134 
L 1269 4134 
L 1269 2991 
Q 1406 3038 1543 3061 
Q 1681 3084 1819 3084 
Q 2600 3084 3056 2656 
Q 3513 2228 3513 1497 
Q 3513 744 3044 326 
Q 2575 -91 1722 -91 
Q 1428 -91 1123 -41 
Q 819 9 494 109 
L 494 744 
Q 775 591 1075 516 
Q 1375 441 1709 441 
Q 2250 441 2565 725 
Q 2881 1009 2881 1497 
Q 2881 1984 2565 2268 
Q 2250 2553 1709 2553 
Q 1456 2553 1204 2497 
Q 953 2441 691 2322 
L 691 4666 
z
" transform="scale(0.015625)"/>
       </defs>
       <use xlink:href="#DejaVuSans-2212"/>
       <use xlink:href="#DejaVuSans-35" x="83.789062"/>
       <use xlink:href="#DejaVuSans-2e" x="147.412109"/>
       <use xlink:href="#DejaVuSans-30" x="179.199219"/>
      </g>
     </g>
    </g>
    <g id="ytick_2">
     <g id="line2d_8">
      <g>
       <use xlink:href="#m8724a41622" x="72" y="331.56" style="stroke: #000000; stroke-width: 0.8"/>
      </g>
     </g>
     <g id="text_8">
      <!-- −2.5 -->
      <g transform="translate(40.717187 335.359219) scale(0.1 -0.1)">
       <use xlink:href="#DejaVuSans-2212"/>
       <use xlink:href="#DejaVuSans-32" x="83.789062"/>
       <use xlink:href="#DejaVuSans-2e" x="147.412109"/>
       <use xlink:href="#DejaVuSans-35" x="179.199219"/>
      </g>
     </g>
    </g>
    <g id="ytick_3">
     <g id="line2d_9">
      <g>
       <use xlink:href="#m8724a41622" x="72" y="293.76" style="stroke: #000000; stroke-width: 0.8"/>
      </g>
     </g>
     <g id="text_9">
      <!-- 0.0 -->
      <g transform="translate(49.096875 297.559219) scale(0.1 -0.1)">
       <use xlink:href="#DejaVuSans-30"/>
       <use xlink:href="#DejaVuSans-2e" x="63.623047"/>
       <use xlink:href="#DejaVuSans-30" x="95.410156"/>
      </g>
     </g>
    </g>
    <g id="ytick_4">
     <g id="line2d_10">
      <g>
       <use xlink:href="#m8724a41622" x="72" y="255.96" style="stroke: #000000; stroke-width: 0.8"/>
      </g>
     </g>
     <g id="text_10">
      <!-- 2.5 -->
      <g transform="translate(49.096875 259.759219) scale(0.1 -0.1)">
       <use xlink:href="#DejaVuSans-32"/>
       <use xlink:href="#DejaVuSans-2e" x="63.623047"/>
       <use xlink:href="#DejaVuSans-35" x="95.410156"/>
      </g>
     </g>
    </g>
    <g id="ytick_5">
     <g id="line2d_11">
      <g>
       <use xlink:href="#m8724a41622" x="72" y="218.16" style="stroke: #000000; stroke-width: 0.8"/>
      </g>
     </g>
     <g id="text_11">
      <!-- 5.0 -->
      <g transform="translate(49.096875 221.959219) scale(0.1 -0.1)">
       <use xlink:href="#DejaVuSans-35"/>
       <use xlink:href="#DejaVuSans-2e" x="63.623047"/>
       <use xlink:href="#DejaVuSans-30" x="95.410156"/>
      </g>
     </g>
    </g>
    <g id="ytick_6">
     <g id="line2d_12">
      <g>
       <use xlink:href="#m8724a41622" x="72" y="180.36" style="stroke: #000000; stroke-width: 0.8"/>
      </g>
     </g>
     <g id="text_12">
      <!-- 7.5 -->
      <g transform="translate(49.096875 184.159219) scale(0.1 -0.1)">
       <defs>
        <path id="DejaVuSans-37" d="M 525 4666 
L 3525 4666 
L 3525 4397 
L 1831 0 
L 1172 0 
L 2766 4134 
L 525 4134 
L 525 4666 
z
" transform="scale(0.015625)"/>
       </defs>
       <use xlink:href="#DejaVuSans-37"/>
       <use xlink:href="#DejaVuSans-2e" x="63.623047"/>
       <use xlink:href="#DejaVuSans-35" x="95.410156"/>
      </g>
     </g>
    </g>
    <g id="ytick_7">
     <g id="line2d_13">
      <g>
       <use xlink:href="#m8724a41622" x="72" y="142.56" style="stroke: #000000; stroke-width: 0.8"/>
      </g>
     </g>
     <g id="text_13">
      <!-- 10.0 -->
      <g transform="translate(42.734375 146.359219) scale(0.1 -0.1)">
       <use xlink:href="#DejaVuSans-31"/>
       <use xlink:href="#DejaVuSans-30" x="63.623047"/>
       <use xlink:href="#DejaVuSans-2e" x="127.246094"/>
       <use xlink:href="#DejaVuSans-30" x="159.033203"/>
      </g>
     </g>
    </g>
    <g id="ytick_8">
     <g id="line2d_14">
      <g>
       <use xlink:href="#m8724a41622" x="72" y="104.76" style="stroke: #000000; stroke-width: 0.8"/>
      </g>
     </g>
     <g id="text_14">
      <!-- 12.5 -->
      <g transform="translate(42.734375 108.559219) scale(0.1 -0.1)">
       <use xlink:href="#DejaVuSans-31"/>
       <use xlink:href="#DejaVuSans-32" x="63.623047"/>
       <use xlink:href="#DejaVuSans-2e" x="127.246094"/>
       <use xlink:href="#DejaVuSans-35" x="159.033203"/>
      </g>
     </g>
    </g>
    <g id="ytick_9">
     <g id="line2d_15">
      <g>
       <use xlink:href="#m8724a41622" x="72" y="66.96" style="stroke: #000000; stroke-width: 0.8"/>
      </g>
     </g>
     <g id="text_15">
      <!-- 15.0 -->
      <g transform="translate(42.734375 70.759219) scale(0.1 -0.1)">
       <use xlink:href="#DejaVuSans-31"/>
       <use xlink:href="#DejaVuSans-35" x="63.623047"/>
       <use xlink:href="#DejaVuSans-2e" x="127.246094"/>
       <use xlink:href="#DejaVuSans-30" x="159.033203"/>
      </g>
     </g>
    </g>
   </g>
   <g id="line2d_16">
    <path d="M 92.290909 354.117528 
L 96.349091 354.114504 
L 100.407273 354.100896 
L 104.465455 354.08124 
L 108.523636 354.052512 
L 112.581818 354.014712 
L 116.64 353.969352 
L 120.698182 353.916432 
L 124.756364 353.85444 
L 128.814545 353.784888 
L 132.872727 353.707776 
L 136.930909 353.623104 
L 140.989091 353.52936 
L 145.047273 353.429568 
L 149.105455 353.322216 
L 153.163636 353.207304 
L 157.221818 353.084832 
L 161.28 352.956312 
L 165.338182 352.821744 
L 169.396364 352.679616 
L 173.454545 352.53144 
L 177.512727 352.377216 
L 181.570909 352.216944 
L 185.629091 352.052136 
L 189.687273 351.88128 
L 193.745455 351.705888 
L 197.803636 351.527472 
L 201.861818 351.343008 
L 205.92 351.15552 
L 209.978182 350.965008 
L 214.036364 350.771472 
L 218.094545 350.574912 
L 222.152727 350.37684 
L 226.210909 350.175744 
L 230.269091 349.97616 
L 234.327273 349.773552 
L 238.385455 349.572456 
L 242.443636 349.37136 
L 246.501818 349.171776 
L 250.56 348.973704 
L 254.618182 348.778656 
L 258.676364 348.586632 
L 262.734545 348.397632 
L 266.792727 348.211656 
L 270.850909 348.031728 
L 274.909091 347.857848 
L 278.967273 347.688504 
L 283.025455 347.52672 
L 287.083636 347.372496 
L 291.141818 347.225832 
L 295.2 347.086728 
L 299.258182 346.956696 
L 303.316364 346.835736 
L 307.374545 346.723848 
L 311.432727 346.621032 
L 315.490909 346.5288 
L 319.549091 346.44564 
L 323.607273 346.373064 
L 327.665455 346.311072 
L 331.723636 346.259664 
L 335.781818 346.217328 
L 339.84 346.184064 
L 343.898182 346.161384 
L 347.956364 346.147776 
L 352.014545 346.14324 
L 356.072727 346.146264 
L 360.130909 346.156848 
L 364.189091 346.176504 
L 368.247273 346.202208 
L 372.305455 346.23396 
L 376.363636 346.27176 
L 380.421818 346.315608 
L 384.48 346.36248 
L 388.538182 346.4154 
L 392.596364 346.469832 
L 396.654545 346.5288 
L 400.712727 346.58928 
L 404.770909 346.651272 
L 408.829091 346.714776 
L 412.887273 346.779792 
L 416.945455 346.844808 
L 421.003636 346.908312 
L 425.061818 346.971816 
L 429.12 347.03532 
L 433.178182 347.0958 
L 437.236364 347.15628 
L 441.294545 347.213736 
L 445.352727 347.268168 
L 449.410909 347.319576 
L 453.469091 347.36796 
L 457.527273 347.41332 
L 461.585455 347.455656 
L 465.643636 347.493456 
L 469.701818 347.52672 
L 473.76 347.55696 
L 477.818182 347.581152 
L 481.876364 347.60232 
L 485.934545 347.618952 
L 489.992727 347.631048 
L 494.050909 347.637096 
L 498.109091 347.64012 
" clip-path="url(#p988e70df16)" style="fill: none; stroke: #000000; stroke-opacity: 0.5; stroke-linecap: square"/>
   </g>
   <g id="line2d_17">
    <path d="M 92.290909 281.549088 
L 96.349091 281.591424 
L 100.407273 281.713896 
L 104.465455 281.916504 
L 108.523636 282.194712 
L 112.581818 282.539448 
L 116.64 282.947688 
L 120.698182 283.41036 
L 124.756364 283.921416 
L 128.814545 284.473296 
L 132.872727 285.059952 
L 136.930909 285.676848 
L 140.989091 286.317936 
L 145.047273 286.977168 
L 149.105455 287.653032 
L 153.163636 288.33948 
L 157.221818 289.035 
L 161.28 289.736568 
L 165.338182 290.44116 
L 169.396364 291.145752 
L 173.454545 291.848832 
L 177.512727 292.5504 
L 181.570909 293.24592 
L 185.629091 293.935392 
L 189.687273 294.617304 
L 193.745455 295.290144 
L 197.803636 295.9524 
L 201.861818 296.604072 
L 205.92 297.243648 
L 209.978182 297.869616 
L 214.036364 298.481976 
L 218.094545 299.077704 
L 222.152727 299.659824 
L 226.210909 300.2238 
L 230.269091 300.769632 
L 234.327273 301.29732 
L 238.385455 301.805352 
L 242.443636 302.293728 
L 246.501818 302.760936 
L 250.56 303.206976 
L 254.618182 303.628824 
L 258.676364 304.029504 
L 262.734545 304.40448 
L 266.792727 304.755264 
L 270.850909 305.080344 
L 274.909091 305.37972 
L 278.967273 305.65188 
L 283.025455 305.896824 
L 287.083636 306.114552 
L 291.141818 306.30204 
L 295.2 306.462312 
L 299.258182 306.590832 
L 303.316364 306.690624 
L 307.374545 306.760176 
L 311.432727 306.799488 
L 315.490909 306.80856 
L 319.549091 306.787392 
L 323.607273 306.734472 
L 327.665455 306.651312 
L 331.723636 306.537912 
L 335.781818 306.394272 
L 339.84 306.221904 
L 343.898182 306.019296 
L 347.956364 305.78796 
L 352.014545 305.527896 
L 356.072727 305.242128 
L 360.130909 304.929144 
L 364.189091 304.588944 
L 368.247273 304.226064 
L 372.305455 303.83748 
L 376.363636 303.426216 
L 380.421818 302.993784 
L 384.48 302.538672 
L 388.538182 302.065416 
L 392.596364 301.574016 
L 396.654545 301.065984 
L 400.712727 300.54132 
L 404.770909 300.003048 
L 408.829091 299.451168 
L 412.887273 298.888704 
L 416.945455 298.31868 
L 421.003636 297.739584 
L 425.061818 297.157464 
L 429.12 296.570808 
L 433.178182 295.985664 
L 437.236364 295.402032 
L 441.294545 294.824448 
L 445.352727 294.254424 
L 449.410909 293.698008 
L 453.469091 293.158224 
L 457.527273 292.639608 
L 461.585455 292.145184 
L 465.643636 291.682512 
L 469.701818 291.256128 
L 473.76 290.870568 
L 477.818182 290.533392 
L 481.876364 290.247624 
L 485.934545 290.019312 
L 489.992727 289.852992 
L 494.050909 289.751688 
L 498.109091 289.718424 
" clip-path="url(#p988e70df16)" style="fill: none; stroke: #000000; stroke-opacity: 0.5; stroke-linecap: square"/>
   </g>
   <g id="line2d_18">
    <path d="M 92.290909 255.949416 
L 96.349091 255.89952 
L 100.407273 255.751344 
L 104.465455 255.509424 
L 108.523636 255.175272 
L 112.581818 254.75796 
L 116.64 254.262024 
L 120.698182 253.695024 
L 124.756364 253.06452 
L 128.814545 252.37656 
L 132.872727 251.640216 
L 136.930909 250.858512 
L 140.989091 250.037496 
L 145.047273 249.183216 
L 149.105455 248.298696 
L 153.163636 247.389984 
L 157.221818 246.460104 
L 161.28 245.510568 
L 165.338182 244.545912 
L 169.396364 243.56916 
L 173.454545 242.583336 
L 177.512727 241.589952 
L 181.570909 240.592032 
L 185.629091 239.5926 
L 189.687273 238.593168 
L 193.745455 237.595248 
L 197.803636 236.603376 
L 201.861818 235.619064 
L 205.92 234.645336 
L 209.978182 233.683704 
L 214.036364 232.737192 
L 218.094545 231.810336 
L 222.152727 230.90616 
L 226.210909 230.026176 
L 230.269091 229.17492 
L 234.327273 228.35844 
L 238.385455 227.57976 
L 242.443636 226.841904 
L 246.501818 226.153944 
L 250.56 225.518904 
L 254.618182 224.94888 
L 258.676364 224.452944 
L 262.734545 224.053776 
L 266.792727 223.781616 
L 270.850909 223.653096 
L 274.909091 223.642512 
L 278.967273 223.702992 
L 283.025455 223.810344 
L 287.083636 223.955496 
L 291.141818 224.133912 
L 295.2 224.350128 
L 299.258182 224.60868 
L 303.316364 224.914104 
L 307.374545 225.272448 
L 311.432727 225.686736 
L 315.490909 226.163016 
L 319.549091 226.698264 
L 323.607273 227.293992 
L 327.665455 227.945664 
L 331.723636 228.650256 
L 335.781818 229.40172 
L 339.84 230.19552 
L 343.898182 231.028632 
L 347.956364 231.89652 
L 352.014545 232.793136 
L 356.072727 233.716968 
L 360.130909 234.66348 
L 364.189091 235.628136 
L 368.247273 236.610936 
L 372.305455 237.607344 
L 376.363636 238.614336 
L 380.421818 239.6304 
L 384.48 240.652512 
L 388.538182 241.67916 
L 392.596364 242.70732 
L 396.654545 243.736992 
L 400.712727 244.76364 
L 404.770909 245.785752 
L 408.829091 246.801816 
L 412.887273 247.81032 
L 416.945455 248.80824 
L 421.003636 249.794064 
L 425.061818 250.764768 
L 429.12 251.717328 
L 433.178182 252.650232 
L 437.236364 253.560456 
L 441.294545 254.443464 
L 445.352727 255.297744 
L 449.410909 256.117248 
L 453.469091 256.900464 
L 457.527273 257.642856 
L 461.585455 258.336864 
L 465.643636 258.979464 
L 469.701818 259.56612 
L 473.76 260.089272 
L 477.818182 260.544384 
L 481.876364 260.925408 
L 485.934545 261.227808 
L 489.992727 261.447048 
L 494.050909 261.580104 
L 498.109091 261.623952 
" clip-path="url(#p988e70df16)" style="fill: none; stroke: #000000; stroke-opacity: 0.5; stroke-linecap: square"/>
   </g>
   <g id="line2d_19">
    <path d="M 92.290909 222.895584 
L 96.349091 222.894072 
L 100.407273 222.89256 
L 104.465455 222.888024 
L 108.523636 222.881976 
L 112.581818 222.874416 
L 116.64 222.865344 
L 120.698182 222.85476 
L 124.756364 222.842664 
L 128.814545 222.830568 
L 132.872727 222.815448 
L 136.930909 222.800328 
L 140.989091 222.783696 
L 145.047273 222.767064 
L 149.105455 222.750432 
L 153.163636 222.732288 
L 157.221818 222.714144 
L 161.28 222.696 
L 165.338182 222.677856 
L 169.396364 222.661224 
L 173.454545 222.64308 
L 177.512727 222.62796 
L 181.570909 222.61284 
L 185.629091 222.599232 
L 189.687273 222.587136 
L 193.745455 222.578064 
L 197.803636 222.568992 
L 201.861818 222.564456 
L 205.92 222.561432 
L 209.978182 222.561432 
L 214.036364 222.564456 
L 218.094545 222.570504 
L 222.152727 222.581088 
L 226.210909 222.594696 
L 230.269091 222.611328 
L 234.327273 222.632496 
L 238.385455 222.6582 
L 242.443636 222.686928 
L 246.501818 222.717168 
L 250.56 222.750432 
L 254.618182 222.77916 
L 258.676364 222.797304 
L 262.734545 222.789744 
L 266.792727 222.729264 
L 270.850909 222.602256 
L 274.909091 222.440472 
L 278.967273 222.290784 
L 283.025455 222.178896 
L 287.083636 222.118416 
L 291.141818 222.109344 
L 295.2 222.148656 
L 299.258182 222.230304 
L 303.316364 222.345216 
L 307.374545 222.48432 
L 311.432727 222.638544 
L 315.490909 222.80184 
L 319.549091 222.966648 
L 323.607273 223.131456 
L 327.665455 223.29324 
L 331.723636 223.452 
L 335.781818 223.607736 
L 339.84 223.758936 
L 343.898182 223.908624 
L 347.956364 224.053776 
L 352.014545 224.197416 
L 356.072727 224.339544 
L 360.130909 224.478648 
L 364.189091 224.61624 
L 368.247273 224.750808 
L 372.305455 224.883864 
L 376.363636 225.013896 
L 380.421818 225.142416 
L 384.48 225.269424 
L 388.538182 225.393408 
L 392.596364 225.514368 
L 396.654545 225.632304 
L 400.712727 225.747216 
L 404.770909 225.859104 
L 408.829091 225.967968 
L 412.887273 226.073808 
L 416.945455 226.175112 
L 421.003636 226.273392 
L 425.061818 226.367136 
L 429.12 226.456344 
L 433.178182 226.542528 
L 437.236364 226.622664 
L 441.294545 226.699776 
L 445.352727 226.77084 
L 449.410909 226.837368 
L 453.469091 226.89936 
L 457.527273 226.956816 
L 461.585455 227.008224 
L 465.643636 227.055096 
L 469.701818 227.09592 
L 473.76 227.132208 
L 477.818182 227.162448 
L 481.876364 227.188152 
L 485.934545 227.206296 
L 489.992727 227.221416 
L 494.050909 227.228976 
L 498.109091 227.232 
" clip-path="url(#p988e70df16)" style="fill: none; stroke: #000000; stroke-opacity: 0.5; stroke-linecap: square"/>
   </g>
   <g id="line2d_20">
    <path d="M 92.290909 163.102032 
L 96.349091 163.105056 
L 100.407273 163.112616 
L 104.465455 163.126224 
L 108.523636 163.14588 
L 112.581818 163.171584 
L 116.64 163.204848 
L 120.698182 163.248696 
L 124.756364 163.303128 
L 128.814545 163.369656 
L 132.872727 163.451304 
L 136.930909 163.551096 
L 140.989091 163.670544 
L 145.047273 163.812672 
L 149.105455 163.983528 
L 153.163636 164.184624 
L 157.221818 164.420496 
L 161.28 164.692656 
L 165.338182 165.007152 
L 169.396364 165.363984 
L 173.454545 165.764664 
L 177.512727 166.210704 
L 181.570909 166.69908 
L 185.629091 167.229792 
L 189.687273 167.799816 
L 193.745455 168.401592 
L 197.803636 169.03512 
L 201.861818 169.691328 
L 205.92 170.368704 
L 209.978182 171.058176 
L 214.036364 171.75672 
L 218.094545 172.4598 
L 222.152727 173.159856 
L 226.210909 173.852352 
L 230.269091 174.532752 
L 234.327273 175.19652 
L 238.385455 175.836096 
L 242.443636 176.446944 
L 246.501818 177.02604 
L 250.56 177.564312 
L 254.618182 178.060248 
L 258.676364 178.506288 
L 262.734545 178.897896 
L 266.792727 179.230536 
L 270.850909 179.499672 
L 274.909091 179.70228 
L 278.967273 179.836848 
L 283.025455 179.89884 
L 287.083636 179.889768 
L 291.141818 179.809632 
L 295.2 179.659944 
L 299.258182 179.440704 
L 303.316364 179.15796 
L 307.374545 178.814736 
L 311.432727 178.414056 
L 315.490909 177.96348 
L 319.549091 177.467544 
L 323.607273 176.930784 
L 327.665455 176.362272 
L 331.723636 175.765032 
L 335.781818 175.146624 
L 339.84 174.513096 
L 343.898182 173.872008 
L 347.956364 173.229408 
L 352.014545 172.589832 
L 356.072727 171.963864 
L 360.130909 171.354528 
L 364.189091 170.770896 
L 368.247273 170.219016 
L 372.305455 169.704936 
L 376.363636 169.233192 
L 380.421818 168.80832 
L 384.48 168.431832 
L 388.538182 168.10524 
L 392.596364 167.828544 
L 396.654545 167.59872 
L 400.712727 167.414256 
L 404.770909 167.269104 
L 408.829091 167.16024 
L 412.887273 167.083128 
L 416.945455 167.033232 
L 421.003636 167.004504 
L 425.061818 166.995432 
L 429.12 167.00148 
L 433.178182 167.019624 
L 437.236364 167.04684 
L 441.294545 167.080104 
L 445.352727 167.119416 
L 449.410909 167.161752 
L 453.469091 167.204088 
L 457.527273 167.247936 
L 461.585455 167.290272 
L 465.643636 167.329584 
L 469.701818 167.365872 
L 473.76 167.399136 
L 477.818182 167.429376 
L 481.876364 167.453568 
L 485.934545 167.473224 
L 489.992727 167.486832 
L 494.050909 167.495904 
L 498.109091 167.497416 
" clip-path="url(#p988e70df16)" style="fill: none; stroke: #000000; stroke-opacity: 0.5; stroke-linecap: square"/>
   </g>
   <g id="line2d_21">
    <path d="M 92.290909 141.979392 
L 96.349091 142.035336 
L 100.407273 142.201656 
L 104.465455 142.46928 
L 108.523636 142.830648 
L 112.581818 143.272152 
L 116.64 143.781696 
L 120.698182 144.345672 
L 124.756364 144.950472 
L 128.814545 145.587024 
L 132.872727 146.24172 
L 136.930909 146.908512 
L 140.989091 147.575304 
L 145.047273 148.236048 
L 149.105455 148.883184 
L 153.163636 149.509152 
L 157.221818 150.107904 
L 161.28 150.674904 
L 165.338182 151.202592 
L 169.396364 151.689456 
L 173.454545 152.13096 
L 177.512727 152.527104 
L 181.570909 152.877888 
L 185.629091 153.1818 
L 189.687273 153.444888 
L 193.745455 153.667152 
L 197.803636 153.851616 
L 201.861818 154.004328 
L 205.92 154.128312 
L 209.978182 154.226592 
L 214.036364 154.302192 
L 218.094545 154.358136 
L 222.152727 154.39896 
L 226.210909 154.424664 
L 230.269091 154.438272 
L 234.327273 154.442808 
L 238.385455 154.43676 
L 242.443636 154.42164 
L 246.501818 154.39896 
L 250.56 154.36872 
L 254.618182 154.327896 
L 258.676364 154.279512 
L 262.734545 154.222056 
L 266.792727 154.154016 
L 270.850909 154.076904 
L 274.909091 153.987696 
L 278.967273 153.890928 
L 283.025455 153.789624 
L 287.083636 153.69588 
L 291.141818 153.629352 
L 295.2 153.62028 
L 299.258182 153.676224 
L 303.316364 153.77904 
L 307.374545 153.904536 
L 311.432727 154.042128 
L 315.490909 154.181232 
L 319.549091 154.320336 
L 323.607273 154.453392 
L 327.665455 154.5804 
L 331.723636 154.696824 
L 335.781818 154.79964 
L 339.84 154.885824 
L 343.898182 154.952352 
L 347.956364 154.9962 
L 352.014545 155.01132 
L 356.072727 154.994688 
L 360.130909 154.940256 
L 364.189091 154.843488 
L 368.247273 154.699848 
L 372.305455 154.503288 
L 376.363636 154.250784 
L 380.421818 153.939312 
L 384.48 153.56736 
L 388.538182 153.133416 
L 392.596364 152.638992 
L 396.654545 152.087112 
L 400.712727 151.4808 
L 404.770909 150.826104 
L 408.829091 150.124536 
L 412.887273 149.383656 
L 416.945455 148.608 
L 421.003636 147.802104 
L 425.061818 146.970504 
L 429.12 146.117736 
L 433.178182 145.246824 
L 437.236364 144.363816 
L 441.294545 143.471736 
L 445.352727 142.57512 
L 449.410909 141.678504 
L 453.469091 140.787936 
L 457.527273 139.909464 
L 461.585455 139.047624 
L 465.643636 138.214512 
L 469.701818 137.417688 
L 473.76 136.67076 
L 477.818182 135.988848 
L 481.876364 135.388584 
L 485.934545 134.892648 
L 489.992727 134.517672 
L 494.050909 134.284824 
L 498.109091 134.2062 
" clip-path="url(#p988e70df16)" style="fill: none; stroke: #000000; stroke-opacity: 0.5; stroke-linecap: square"/>
   </g>
   <g id="line2d_22">
    <path d="M 92.290909 125.976384 
L 96.349091 126.092808 
L 100.407273 126.413352 
L 104.465455 126.879048 
L 108.523636 127.443024 
L 112.581818 128.079576 
L 116.64 128.769048 
L 120.698182 129.50388 
L 124.756364 130.271976 
L 128.814545 131.0688 
L 132.872727 131.88528 
L 136.930909 132.718392 
L 140.989091 133.560576 
L 145.047273 134.408808 
L 149.105455 135.25704 
L 153.163636 136.10376 
L 157.221818 136.944432 
L 161.28 137.77452 
L 165.338182 138.595536 
L 169.396364 139.401432 
L 173.454545 140.192208 
L 177.512727 140.963328 
L 181.570909 141.716304 
L 185.629091 142.448112 
L 189.687273 143.15724 
L 193.745455 143.842176 
L 197.803636 144.50292 
L 201.861818 145.13796 
L 205.92 145.747296 
L 209.978182 146.329416 
L 214.036364 146.882808 
L 218.094545 147.410496 
L 222.152727 147.909456 
L 226.210909 148.3812 
L 230.269091 148.824216 
L 234.327273 149.241528 
L 238.385455 149.631624 
L 242.443636 149.997528 
L 246.501818 150.337728 
L 250.56 150.655248 
L 254.618182 150.950088 
L 258.676364 151.225272 
L 262.734545 151.4808 
L 266.792727 151.718184 
L 270.850909 151.940448 
L 274.909091 152.144568 
L 278.967273 152.329032 
L 283.025455 152.492328 
L 287.083636 152.62236 
L 291.141818 152.696448 
L 295.2 152.685864 
L 299.258182 152.583048 
L 303.316364 152.40312 
L 307.374545 152.170272 
L 311.432727 151.8966 
L 315.490909 151.58664 
L 319.549091 151.244928 
L 323.607273 150.871464 
L 327.665455 150.46776 
L 331.723636 150.035328 
L 335.781818 149.572656 
L 339.84 149.081256 
L 343.898182 148.559616 
L 347.956364 148.01076 
L 352.014545 147.433176 
L 356.072727 146.826864 
L 360.130909 146.193336 
L 364.189091 145.532592 
L 368.247273 144.846144 
L 372.305455 144.13248 
L 376.363636 143.393112 
L 380.421818 142.62804 
L 384.48 141.840288 
L 388.538182 141.028344 
L 392.596364 140.19372 
L 396.654545 139.337928 
L 400.712727 138.460968 
L 404.770909 137.565864 
L 408.829091 136.652616 
L 412.887273 135.722736 
L 416.945455 134.777736 
L 421.003636 133.819128 
L 425.061818 132.849936 
L 429.12 131.871672 
L 433.178182 130.884336 
L 437.236364 129.893976 
L 441.294545 128.902104 
L 445.352727 127.913256 
L 449.410909 126.928944 
L 453.469091 125.955216 
L 457.527273 124.99812 
L 461.585455 124.062192 
L 465.643636 123.156504 
L 469.701818 122.288616 
L 473.76 121.466088 
L 477.818182 120.699504 
L 481.876364 119.994912 
L 485.934545 119.356848 
L 489.992727 118.7838 
L 494.050909 118.271232 
L 498.109091 117.943128 
" clip-path="url(#p988e70df16)" style="fill: none; stroke: #000000; stroke-opacity: 0.5; stroke-linecap: square"/>
   </g>
   <g id="line2d_23">
    <path d="M 92.290909 122.063328 
L 96.349091 121.933296 
L 100.407273 121.574952 
L 104.465455 121.047264 
L 108.523636 120.397104 
L 112.581818 119.651688 
L 116.64 118.82916 
L 120.698182 117.941616 
L 124.756364 116.993592 
L 128.814545 115.995672 
L 132.872727 114.952392 
L 136.930909 113.8698 
L 140.989091 112.749408 
L 145.047273 111.598776 
L 149.105455 110.420928 
L 153.163636 109.217376 
L 157.221818 107.992656 
L 161.28 106.74828 
L 165.338182 105.488784 
L 169.396364 104.21568 
L 173.454545 102.933504 
L 177.512727 101.643768 
L 181.570909 100.35252 
L 185.629091 99.061272 
L 189.687273 97.77456 
L 193.745455 96.501456 
L 197.803636 95.248008 
L 201.861818 94.021776 
L 205.92 92.836368 
L 209.978182 91.70388 
L 214.036364 90.643968 
L 218.094545 89.671752 
L 222.152727 88.809912 
L 226.210909 88.07508 
L 230.269091 87.482376 
L 234.327273 87.030288 
L 238.385455 86.71428 
L 242.443636 86.51772 
L 246.501818 86.416416 
L 250.56 86.387688 
L 254.618182 86.408856 
L 258.676364 86.463288 
L 262.734545 86.534352 
L 266.792727 86.609952 
L 270.850909 86.677992 
L 274.909091 86.732424 
L 278.967273 86.768712 
L 283.025455 86.780808 
L 287.083636 86.765688 
L 291.141818 86.720328 
L 295.2 86.64624 
L 299.258182 86.5404 
L 303.316364 86.40432 
L 307.374545 86.238 
L 311.432727 86.044464 
L 315.490909 85.825224 
L 319.549091 85.581792 
L 323.607273 85.320216 
L 327.665455 85.045032 
L 331.723636 84.762288 
L 335.781818 84.478032 
L 339.84 84.202848 
L 343.898182 83.950344 
L 347.956364 83.732616 
L 352.014545 83.56932 
L 356.072727 83.484648 
L 360.130909 83.504304 
L 364.189091 83.658528 
L 368.247273 83.973024 
L 372.305455 84.4614 
L 376.363636 85.125168 
L 380.421818 85.949208 
L 384.48 86.907816 
L 388.538182 87.973776 
L 392.596364 89.121384 
L 396.654545 90.32796 
L 400.712727 91.576872 
L 404.770909 92.856024 
L 408.829091 94.154832 
L 412.887273 95.465736 
L 416.945455 96.781176 
L 421.003636 98.096616 
L 425.061818 99.409032 
L 429.12 100.713888 
L 433.178182 102.00816 
L 437.236364 103.287312 
L 441.294545 104.54832 
L 445.352727 105.789672 
L 449.410909 107.00532 
L 453.469091 108.193752 
L 457.527273 109.347408 
L 461.585455 110.463264 
L 465.643636 111.532248 
L 469.701818 112.548312 
L 473.76 113.503896 
L 477.818182 114.389928 
L 481.876364 115.197336 
L 485.934545 115.920072 
L 489.992727 116.556624 
L 494.050909 117.108504 
L 498.109091 117.450216 
" clip-path="url(#p988e70df16)" style="fill: none; stroke: #000000; stroke-opacity: 0.5; stroke-linecap: square"/>
   </g>
   <g id="patch_3">
    <path d="M 72 384.48 
L 72 51.84 
" style="fill: none; stroke: #000000; stroke-width: 0.8; stroke-linejoin: miter; stroke-linecap: square"/>
   </g>
   <g id="patch_4">
    <path d="M 518.4 384.48 
L 518.4 51.84 
" style="fill: none; stroke: #000000; stroke-width: 0.8; stroke-linejoin: miter; stroke-linecap: square"/>
   </g>
   <g id="patch_5">
    <path d="M 72 384.48 
L 518.4 384.48 
" style="fill: none; stroke: #000000; stroke-width: 0.8; stroke-linejoin: miter; stroke-linecap: square"/>
   </g>
   <g id="patch_6">
    <path d="M 72 51.84 
L 518.4 51.84 
" style="fill: none; stroke: #000000; stroke-width: 0.8; stroke-linejoin: miter; stroke-linecap: square"/>
   </g>
  </g>
 </g>
 <defs>
  <clipPath id="p988e70df16">
   <rect x="72" y="51.84" width="446.4" height="332.64"/>
  </clipPath>
 </defs>
</svg>
