<?xml version="1.0" encoding="utf-8" standalone="no"?>
<!DOCTYPE svg PUBLIC "-//W3C//DTD SVG 1.1//EN"
  "http://www.w3.org/Graphics/SVG/1.1/DTD/svg11.dtd">
<svg xmlns:xlink="http://www.w3.org/1999/xlink" width="576pt" height="432pt" viewBox="0 0 576 432" xmlns="http://www.w3.org/2000/svg" version="1.1">
 <metadata>
  <rdf:RDF xmlns:dc="http://purl.org/dc/elements/1.1/" xmlns:cc="http://creativecommons.org/ns#" xmlns:rdf="http://www.w3.org/1999/02/22-rdf-syntax-ns#">
   <cc:Work>
    <dc:type rdf:resource="http://purl.org/dc/dcmitype/StillImage"/>
    <dc:date>2023-05-04T03:48:31.712291</dc:date>
    <dc:format>image/svg+xml</dc:format>
    <dc:creator>
     <cc:Agent>
      <dc:title>Matplotlib v3.7.1, https://matplotlib.org/</dc:title>
     </cc:Agent>
    </dc:creator>
   </cc:Work>
  </rdf:RDF>
 </metadata>
 <defs>
  <style type="text/css">*{stroke-linejoin: round; stroke-linecap: butt}</style>
 </defs>
 <g id="figure_1">
  <g id="patch_1">
   <path d="M 0 432 
L 576 432 
L 576 0 
L 0 0 
z
" style="fill: #ffffff"/>
  </g>
  <g id="axes_1">
   <g id="patch_2">
    <path d="M 72 384.48 
L 518.4 384.48 
L 518.4 51.84 
L 72 51.84 
z
" style="fill: #ffffff"/>
   </g>
   <g id="matplotlib.axis_1">
    <g id="xtick_1">
     <g id="line2d_1">
      <defs>
       <path id="md36c3cfde8" d="M 0 0 
L 0 3.5 
" style="stroke: #000000; stroke-width: 0.8"/>
      </defs>
      <g>
       <use xlink:href="#md36c3cfde8" x="92.290909" y="384.48" style="stroke: #000000; stroke-width: 0.8"/>
      </g>
     </g>
     <g id="text_1">
      <!-- 0.0 -->
      <g transform="translate(84.339347 399.078438) scale(0.1 -0.1)">
       <defs>
        <path id="DejaVuSans-30" d="M 2034 4250 
Q 1547 4250 1301 3770 
Q 1056 3291 1056 2328 
Q 1056 1369 1301 889 
Q 1547 409 2034 409 
Q 2525 409 2770 889 
Q 3016 1369 3016 2328 
Q 3016 3291 2770 3770 
Q 2525 4250 2034 4250 
z
M 2034 4750 
Q 2819 4750 3233 4129 
Q 3647 3509 3647 2328 
Q 3647 1150 3233 529 
Q 2819 -91 2034 -91 
Q 1250 -91 836 529 
Q 422 1150 422 2328 
Q 422 3509 836 4129 
Q 1250 4750 2034 4750 
z
" transform="scale(0.015625)"/>
        <path id="DejaVuSans-2e" d="M 684 794 
L 1344 794 
L 1344 0 
L 684 0 
L 684 794 
z
" transform="scale(0.015625)"/>
       </defs>
       <use xlink:href="#DejaVuSans-30"/>
       <use xlink:href="#DejaVuSans-2e" x="63.623047"/>
       <use xlink:href="#DejaVuSans-30" x="95.410156"/>
      </g>
     </g>
    </g>
    <g id="xtick_2">
     <g id="line2d_2">
      <g>
       <use xlink:href="#md36c3cfde8" x="173.454545" y="384.48" style="stroke: #000000; stroke-width: 0.8"/>
      </g>
     </g>
     <g id="text_2">
      <!-- 0.2 -->
      <g transform="translate(165.502983 399.078438) scale(0.1 -0.1)">
       <defs>
        <path id="DejaVuSans-32" d="M 1228 531 
L 3431 531 
L 3431 0 
L 469 0 
L 469 531 
Q 828 903 1448 1529 
Q 2069 2156 2228 2338 
Q 2531 2678 2651 2914 
Q 2772 3150 2772 3378 
Q 2772 3750 2511 3984 
Q 2250 4219 1831 4219 
Q 1534 4219 1204 4116 
Q 875 4013 500 3803 
L 500 4441 
Q 881 4594 1212 4672 
Q 1544 4750 1819 4750 
Q 2544 4750 2975 4387 
Q 3406 4025 3406 3419 
Q 3406 3131 3298 2873 
Q 3191 2616 2906 2266 
Q 2828 2175 2409 1742 
Q 1991 1309 1228 531 
z
" transform="scale(0.015625)"/>
       </defs>
       <use xlink:href="#DejaVuSans-30"/>
       <use xlink:href="#DejaVuSans-2e" x="63.623047"/>
       <use xlink:href="#DejaVuSans-32" x="95.410156"/>
      </g>
     </g>
    </g>
    <g id="xtick_3">
     <g id="line2d_3">
      <g>
       <use xlink:href="#md36c3cfde8" x="254.618182" y="384.48" style="stroke: #000000; stroke-width: 0.8"/>
      </g>
     </g>
     <g id="text_3">
      <!-- 0.4 -->
      <g transform="translate(246.666619 399.078438) scale(0.1 -0.1)">
       <defs>
        <path id="DejaVuSans-34" d="M 2419 4116 
L 825 1625 
L 2419 1625 
L 2419 4116 
z
M 2253 4666 
L 3047 4666 
L 3047 1625 
L 3713 1625 
L 3713 1100 
L 3047 1100 
L 3047 0 
L 2419 0 
L 2419 1100 
L 313 1100 
L 313 1709 
L 2253 4666 
z
" transform="scale(0.015625)"/>
       </defs>
       <use xlink:href="#DejaVuSans-30"/>
       <use xlink:href="#DejaVuSans-2e" x="63.623047"/>
       <use xlink:href="#DejaVuSans-34" x="95.410156"/>
      </g>
     </g>
    </g>
    <g id="xtick_4">
     <g id="line2d_4">
      <g>
       <use xlink:href="#md36c3cfde8" x="335.781818" y="384.48" style="stroke: #000000; stroke-width: 0.8"/>
      </g>
     </g>
     <g id="text_4">
      <!-- 0.6 -->
      <g transform="translate(327.830256 399.078438) scale(0.1 -0.1)">
       <defs>
        <path id="DejaVuSans-36" d="M 2113 2584 
Q 1688 2584 1439 2293 
Q 1191 2003 1191 1497 
Q 1191 994 1439 701 
Q 1688 409 2113 409 
Q 2538 409 2786 701 
Q 3034 994 3034 1497 
Q 3034 2003 2786 2293 
Q 2538 2584 2113 2584 
z
M 3366 4563 
L 3366 3988 
Q 3128 4100 2886 4159 
Q 2644 4219 2406 4219 
Q 1781 4219 1451 3797 
Q 1122 3375 1075 2522 
Q 1259 2794 1537 2939 
Q 1816 3084 2150 3084 
Q 2853 3084 3261 2657 
Q 3669 2231 3669 1497 
Q 3669 778 3244 343 
Q 2819 -91 2113 -91 
Q 1303 -91 875 529 
Q 447 1150 447 2328 
Q 447 3434 972 4092 
Q 1497 4750 2381 4750 
Q 2619 4750 2861 4703 
Q 3103 4656 3366 4563 
z
" transform="scale(0.015625)"/>
       </defs>
       <use xlink:href="#DejaVuSans-30"/>
       <use xlink:href="#DejaVuSans-2e" x="63.623047"/>
       <use xlink:href="#DejaVuSans-36" x="95.410156"/>
      </g>
     </g>
    </g>
    <g id="xtick_5">
     <g id="line2d_5">
      <g>
       <use xlink:href="#md36c3cfde8" x="416.945455" y="384.48" style="stroke: #000000; stroke-width: 0.8"/>
      </g>
     </g>
     <g id="text_5">
      <!-- 0.8 -->
      <g transform="translate(408.993892 399.078438) scale(0.1 -0.1)">
       <defs>
        <path id="DejaVuSans-38" d="M 2034 2216 
Q 1584 2216 1326 1975 
Q 1069 1734 1069 1313 
Q 1069 891 1326 650 
Q 1584 409 2034 409 
Q 2484 409 2743 651 
Q 3003 894 3003 1313 
Q 3003 1734 2745 1975 
Q 2488 2216 2034 2216 
z
M 1403 2484 
Q 997 2584 770 2862 
Q 544 3141 544 3541 
Q 544 4100 942 4425 
Q 1341 4750 2034 4750 
Q 2731 4750 3128 4425 
Q 3525 4100 3525 3541 
Q 3525 3141 3298 2862 
Q 3072 2584 2669 2484 
Q 3125 2378 3379 2068 
Q 3634 1759 3634 1313 
Q 3634 634 3220 271 
Q 2806 -91 2034 -91 
Q 1263 -91 848 271 
Q 434 634 434 1313 
Q 434 1759 690 2068 
Q 947 2378 1403 2484 
z
M 1172 3481 
Q 1172 3119 1398 2916 
Q 1625 2713 2034 2713 
Q 2441 2713 2670 2916 
Q 2900 3119 2900 3481 
Q 2900 3844 2670 4047 
Q 2441 4250 2034 4250 
Q 1625 4250 1398 4047 
Q 1172 3844 1172 3481 
z
" transform="scale(0.015625)"/>
       </defs>
       <use xlink:href="#DejaVuSans-30"/>
       <use xlink:href="#DejaVuSans-2e" x="63.623047"/>
       <use xlink:href="#DejaVuSans-38" x="95.410156"/>
      </g>
     </g>
    </g>
    <g id="xtick_6">
     <g id="line2d_6">
      <g>
       <use xlink:href="#md36c3cfde8" x="498.109091" y="384.48" style="stroke: #000000; stroke-width: 0.8"/>
      </g>
     </g>
     <g id="text_6">
      <!-- 1.0 -->
      <g transform="translate(490.157528 399.078438) scale(0.1 -0.1)">
       <defs>
        <path id="DejaVuSans-31" d="M 794 531 
L 1825 531 
L 1825 4091 
L 703 3866 
L 703 4441 
L 1819 4666 
L 2450 4666 
L 2450 531 
L 3481 531 
L 3481 0 
L 794 0 
L 794 531 
z
" transform="scale(0.015625)"/>
       </defs>
       <use xlink:href="#DejaVuSans-31"/>
       <use xlink:href="#DejaVuSans-2e" x="63.623047"/>
       <use xlink:href="#DejaVuSans-30" x="95.410156"/>
      </g>
     </g>
    </g>
   </g>
   <g id="matplotlib.axis_2">
    <g id="ytick_1">
     <g id="line2d_7">
      <defs>
       <path id="m22dc895ee3" d="M 0 0 
L -3.5 0 
" style="stroke: #000000; stroke-width: 0.8"/>
      </defs>
      <g>
       <use xlink:href="#m22dc895ee3" x="72" y="369.36" style="stroke: #000000; stroke-width: 0.8"/>
      </g>
     </g>
     <g id="text_7">
      <!-- −5.0 -->
      <g transform="translate(40.717187 373.159219) scale(0.1 -0.1)">
       <defs>
        <path id="DejaVuSans-2212" d="M 678 2272 
L 4684 2272 
L 4684 1741 
L 678 1741 
L 678 2272 
z
" transform="scale(0.015625)"/>
        <path id="DejaVuSans-35" d="M 691 4666 
L 3169 4666 
L 3169 4134 
L 1269 4134 
L 1269 2991 
Q 1406 3038 1543 3061 
Q 1681 3084 1819 3084 
Q 2600 3084 3056 2656 
Q 3513 2228 3513 1497 
Q 3513 744 3044 326 
Q 2575 -91 1722 -91 
Q 1428 -91 1123 -41 
Q 819 9 494 109 
L 494 744 
Q 775 591 1075 516 
Q 1375 441 1709 441 
Q 2250 441 2565 725 
Q 2881 1009 2881 1497 
Q 2881 1984 2565 2268 
Q 2250 2553 1709 2553 
Q 1456 2553 1204 2497 
Q 953 2441 691 2322 
L 691 4666 
z
" transform="scale(0.015625)"/>
       </defs>
       <use xlink:href="#DejaVuSans-2212"/>
       <use xlink:href="#DejaVuSans-35" x="83.789062"/>
       <use xlink:href="#DejaVuSans-2e" x="147.412109"/>
       <use xlink:href="#DejaVuSans-30" x="179.199219"/>
      </g>
     </g>
    </g>
    <g id="ytick_2">
     <g id="line2d_8">
      <g>
       <use xlink:href="#m22dc895ee3" x="72" y="331.56" style="stroke: #000000; stroke-width: 0.8"/>
      </g>
     </g>
     <g id="text_8">
      <!-- −2.5 -->
      <g transform="translate(40.717187 335.359219) scale(0.1 -0.1)">
       <use xlink:href="#DejaVuSans-2212"/>
       <use xlink:href="#DejaVuSans-32" x="83.789062"/>
       <use xlink:href="#DejaVuSans-2e" x="147.412109"/>
       <use xlink:href="#DejaVuSans-35" x="179.199219"/>
      </g>
     </g>
    </g>
    <g id="ytick_3">
     <g id="line2d_9">
      <g>
       <use xlink:href="#m22dc895ee3" x="72" y="293.76" style="stroke: #000000; stroke-width: 0.8"/>
      </g>
     </g>
     <g id="text_9">
      <!-- 0.0 -->
      <g transform="translate(49.096875 297.559219) scale(0.1 -0.1)">
       <use xlink:href="#DejaVuSans-30"/>
       <use xlink:href="#DejaVuSans-2e" x="63.623047"/>
       <use xlink:href="#DejaVuSans-30" x="95.410156"/>
      </g>
     </g>
    </g>
    <g id="ytick_4">
     <g id="line2d_10">
      <g>
       <use xlink:href="#m22dc895ee3" x="72" y="255.96" style="stroke: #000000; stroke-width: 0.8"/>
      </g>
     </g>
     <g id="text_10">
      <!-- 2.5 -->
      <g transform="translate(49.096875 259.759219) scale(0.1 -0.1)">
       <use xlink:href="#DejaVuSans-32"/>
       <use xlink:href="#DejaVuSans-2e" x="63.623047"/>
       <use xlink:href="#DejaVuSans-35" x="95.410156"/>
      </g>
     </g>
    </g>
    <g id="ytick_5">
     <g id="line2d_11">
      <g>
       <use xlink:href="#m22dc895ee3" x="72" y="218.16" style="stroke: #000000; stroke-width: 0.8"/>
      </g>
     </g>
     <g id="text_11">
      <!-- 5.0 -->
      <g transform="translate(49.096875 221.959219) scale(0.1 -0.1)">
       <use xlink:href="#DejaVuSans-35"/>
       <use xlink:href="#DejaVuSans-2e" x="63.623047"/>
       <use xlink:href="#DejaVuSans-30" x="95.410156"/>
      </g>
     </g>
    </g>
    <g id="ytick_6">
     <g id="line2d_12">
      <g>
       <use xlink:href="#m22dc895ee3" x="72" y="180.36" style="stroke: #000000; stroke-width: 0.8"/>
      </g>
     </g>
     <g id="text_12">
      <!-- 7.5 -->
      <g transform="translate(49.096875 184.159219) scale(0.1 -0.1)">
       <defs>
        <path id="DejaVuSans-37" d="M 525 4666 
L 3525 4666 
L 3525 4397 
L 1831 0 
L 1172 0 
L 2766 4134 
L 525 4134 
L 525 4666 
z
" transform="scale(0.015625)"/>
       </defs>
       <use xlink:href="#DejaVuSans-37"/>
       <use xlink:href="#DejaVuSans-2e" x="63.623047"/>
       <use xlink:href="#DejaVuSans-35" x="95.410156"/>
      </g>
     </g>
    </g>
    <g id="ytick_7">
     <g id="line2d_13">
      <g>
       <use xlink:href="#m22dc895ee3" x="72" y="142.56" style="stroke: #000000; stroke-width: 0.8"/>
      </g>
     </g>
     <g id="text_13">
      <!-- 10.0 -->
      <g transform="translate(42.734375 146.359219) scale(0.1 -0.1)">
       <use xlink:href="#DejaVuSans-31"/>
       <use xlink:href="#DejaVuSans-30" x="63.623047"/>
       <use xlink:href="#DejaVuSans-2e" x="127.246094"/>
       <use xlink:href="#DejaVuSans-30" x="159.033203"/>
      </g>
     </g>
    </g>
    <g id="ytick_8">
     <g id="line2d_14">
      <g>
       <use xlink:href="#m22dc895ee3" x="72" y="104.76" style="stroke: #000000; stroke-width: 0.8"/>
      </g>
     </g>
     <g id="text_14">
      <!-- 12.5 -->
      <g transform="translate(42.734375 108.559219) scale(0.1 -0.1)">
       <use xlink:href="#DejaVuSans-31"/>
       <use xlink:href="#DejaVuSans-32" x="63.623047"/>
       <use xlink:href="#DejaVuSans-2e" x="127.246094"/>
       <use xlink:href="#DejaVuSans-35" x="159.033203"/>
      </g>
     </g>
    </g>
    <g id="ytick_9">
     <g id="line2d_15">
      <g>
       <use xlink:href="#m22dc895ee3" x="72" y="66.96" style="stroke: #000000; stroke-width: 0.8"/>
      </g>
     </g>
     <g id="text_15">
      <!-- 15.0 -->
      <g transform="translate(42.734375 70.759219) scale(0.1 -0.1)">
       <use xlink:href="#DejaVuSans-31"/>
       <use xlink:href="#DejaVuSans-35" x="63.623047"/>
       <use xlink:href="#DejaVuSans-2e" x="127.246094"/>
       <use xlink:href="#DejaVuSans-30" x="159.033203"/>
      </g>
     </g>
    </g>
   </g>
   <g id="line2d_16">
    <path d="M 92.290909 324.270648 
L 96.349091 324.352296 
L 100.407273 324.591192 
L 104.465455 324.966168 
L 108.523636 325.456056 
L 112.581818 326.03364 
L 116.64 326.679264 
L 120.698182 327.377808 
L 124.756364 328.114152 
L 128.814545 328.880736 
L 132.872727 329.668488 
L 136.930909 330.472872 
L 140.989091 331.289352 
L 145.047273 332.114904 
L 149.105455 332.948016 
L 153.163636 333.784152 
L 157.221818 334.6218 
L 161.28 335.462472 
L 165.338182 336.301632 
L 169.396364 337.13928 
L 173.454545 337.975416 
L 177.512727 338.808528 
L 181.570909 339.637104 
L 185.629091 340.462656 
L 189.687273 341.283672 
L 193.745455 342.09864 
L 197.803636 342.90756 
L 201.861818 343.711944 
L 205.92 344.508768 
L 209.978182 345.299544 
L 214.036364 346.08276 
L 218.094545 346.859928 
L 222.152727 347.628024 
L 226.210909 348.38856 
L 230.269091 349.141536 
L 234.327273 349.886952 
L 238.385455 350.621784 
L 242.443636 351.349056 
L 246.501818 352.067256 
L 250.56 352.777896 
L 254.618182 353.477952 
L 258.676364 354.168936 
L 262.734545 354.849336 
L 266.792727 355.520664 
L 270.850909 356.18292 
L 274.909091 356.834592 
L 278.967273 357.477192 
L 283.025455 358.107696 
L 287.083636 358.729128 
L 291.141818 359.341488 
L 295.2 359.941752 
L 299.258182 360.531432 
L 303.316364 361.110528 
L 307.374545 361.67904 
L 311.432727 362.236968 
L 315.490909 362.7828 
L 319.549091 363.318048 
L 323.607273 363.842712 
L 327.665455 364.356792 
L 331.723636 364.858776 
L 335.781818 365.348664 
L 339.84 365.827968 
L 343.898182 366.296688 
L 347.956364 366.753312 
L 352.014545 367.19784 
L 356.072727 367.630272 
L 360.130909 368.05212 
L 364.189091 368.461872 
L 368.247273 368.86104 
L 372.305455 369.2466 
L 376.363636 369.621576 
L 380.421818 369.982944 
L 384.48 370.333728 
L 388.538182 370.672416 
L 392.596364 370.999008 
L 396.654545 371.313504 
L 400.712727 371.615904 
L 404.770909 371.906208 
L 408.829091 372.184416 
L 412.887273 372.450528 
L 416.945455 372.704544 
L 421.003636 372.946464 
L 425.061818 373.176288 
L 429.12 373.392504 
L 433.178182 373.598136 
L 437.236364 373.79016 
L 441.294545 373.970088 
L 445.352727 374.13792 
L 449.410909 374.293656 
L 453.469091 374.437296 
L 457.527273 374.567328 
L 461.585455 374.685264 
L 465.643636 374.791104 
L 469.701818 374.884848 
L 473.76 374.966496 
L 477.818182 375.034536 
L 481.876364 375.09048 
L 485.934545 375.134328 
L 489.992727 375.164568 
L 494.050909 375.184224 
L 498.109091 375.190272 
" clip-path="url(#pceec229ea9)" style="fill: none; stroke: #000000; stroke-opacity: 0.5; stroke-linecap: square"/>
   </g>
   <g id="line2d_17">
    <path d="M 92.290909 313.772832 
L 96.349091 313.692696 
L 100.407273 313.456824 
L 104.465455 313.084872 
L 108.523636 312.601032 
L 112.581818 312.031008 
L 116.64 311.392944 
L 120.698182 310.706496 
L 124.756364 309.982248 
L 128.814545 309.229272 
L 132.872727 308.45664 
L 136.930909 307.6704 
L 140.989091 306.872064 
L 145.047273 306.066168 
L 149.105455 305.255736 
L 153.163636 304.44228 
L 157.221818 303.627312 
L 161.28 302.813856 
L 165.338182 302.0004 
L 169.396364 301.188456 
L 173.454545 300.379536 
L 177.512727 299.57364 
L 181.570909 298.77228 
L 185.629091 297.972432 
L 189.687273 297.178632 
L 193.745455 296.386344 
L 197.803636 295.600104 
L 201.861818 294.816888 
L 205.92 294.036696 
L 209.978182 293.259528 
L 214.036364 292.486896 
L 218.094545 291.717288 
L 222.152727 290.949192 
L 226.210909 290.18412 
L 230.269091 289.42056 
L 234.327273 288.660024 
L 238.385455 287.899488 
L 242.443636 287.140464 
L 246.501818 286.382952 
L 250.56 285.623928 
L 254.618182 284.866416 
L 258.676364 284.107392 
L 262.734545 283.346856 
L 266.792727 282.584808 
L 270.850909 281.82276 
L 274.909091 281.057688 
L 278.967273 280.289592 
L 283.025455 279.519984 
L 287.083636 278.74584 
L 291.141818 277.970184 
L 295.2 277.189992 
L 299.258182 276.406776 
L 303.316364 275.619024 
L 307.374545 274.826736 
L 311.432727 274.029912 
L 315.490909 273.228552 
L 319.549091 272.422656 
L 323.607273 271.612224 
L 327.665455 270.795744 
L 331.723636 269.974728 
L 335.781818 269.149176 
L 339.84 268.317576 
L 343.898182 267.479928 
L 347.956364 266.637744 
L 352.014545 265.791024 
L 356.072727 264.936744 
L 360.130909 264.07944 
L 364.189091 263.214576 
L 368.247273 262.346688 
L 372.305455 261.472752 
L 376.363636 260.592768 
L 380.421818 259.70976 
L 384.48 258.822216 
L 388.538182 257.928624 
L 392.596364 257.03352 
L 396.654545 256.132368 
L 400.712727 255.229704 
L 404.770909 254.324016 
L 408.829091 253.416816 
L 412.887273 252.506592 
L 416.945455 251.596368 
L 421.003636 250.686144 
L 425.061818 249.777432 
L 429.12 248.870232 
L 433.178182 247.967568 
L 437.236364 247.06944 
L 441.294545 246.178872 
L 445.352727 245.297376 
L 449.410909 244.429488 
L 453.469091 243.578232 
L 457.527273 242.746632 
L 461.585455 241.940736 
L 465.643636 241.168104 
L 469.701818 240.434784 
L 473.76 239.754384 
L 477.818182 239.137488 
L 481.876364 238.597704 
L 485.934545 238.153176 
L 489.992727 237.819024 
L 494.050909 237.61188 
L 498.109091 237.542328 
" clip-path="url(#pceec229ea9)" style="fill: none; stroke: #000000; stroke-opacity: 0.5; stroke-linecap: square"/>
   </g>
   <g id="line2d_18">
    <path d="M 92.290909 264.761352 
L 96.349091 264.746232 
L 100.407273 264.700872 
L 104.465455 264.626784 
L 108.523636 264.522456 
L 112.581818 264.386376 
L 116.64 264.22308 
L 120.698182 264.028032 
L 124.756364 263.804256 
L 128.814545 263.551752 
L 132.872727 263.267496 
L 136.930909 262.956024 
L 140.989091 262.614312 
L 145.047273 262.243872 
L 149.105455 261.844704 
L 153.163636 261.416808 
L 157.221818 260.960184 
L 161.28 260.476344 
L 165.338182 259.963776 
L 169.396364 259.425504 
L 173.454545 258.860016 
L 177.512727 258.268824 
L 181.570909 257.651928 
L 185.629091 257.009328 
L 189.687273 256.344048 
L 193.745455 255.653064 
L 197.803636 254.940912 
L 201.861818 254.20608 
L 205.92 253.45008 
L 209.978182 252.674424 
L 214.036364 251.879112 
L 218.094545 251.065656 
L 222.152727 250.235568 
L 226.210909 249.388848 
L 230.269091 248.527008 
L 234.327273 247.65156 
L 238.385455 246.764016 
L 242.443636 245.864376 
L 246.501818 244.955664 
L 250.56 244.039392 
L 254.618182 243.11556 
L 258.676364 242.187192 
L 262.734545 241.254288 
L 266.792727 240.319872 
L 270.850909 239.386968 
L 274.909091 238.455576 
L 278.967273 237.527208 
L 283.025455 236.607912 
L 287.083636 235.696176 
L 291.141818 234.796536 
L 295.2 233.908992 
L 299.258182 233.03808 
L 303.316364 232.185312 
L 307.374545 231.3522 
L 311.432727 230.538744 
L 315.490909 229.746456 
L 319.549091 228.975336 
L 323.607273 228.223872 
L 327.665455 227.492064 
L 331.723636 226.7784 
L 335.781818 226.081368 
L 339.84 225.399456 
L 343.898182 224.731152 
L 347.956364 224.073432 
L 352.014545 223.427808 
L 356.072727 222.791256 
L 360.130909 222.163776 
L 364.189091 221.54688 
L 368.247273 220.936032 
L 372.305455 220.335768 
L 376.363636 219.743064 
L 380.421818 219.160944 
L 384.48 218.589408 
L 388.538182 218.028456 
L 392.596364 217.482624 
L 396.654545 216.953424 
L 400.712727 216.446904 
L 404.770909 215.972136 
L 408.829091 215.54424 
L 412.887273 215.185896 
L 416.945455 214.942464 
L 421.003636 214.859304 
L 425.061818 214.951536 
L 429.12 215.194968 
L 433.178182 215.5518 
L 437.236364 215.99028 
L 441.294545 216.48924 
L 445.352727 217.035072 
L 449.410909 217.61568 
L 453.469091 218.218968 
L 457.527273 218.838888 
L 461.585455 219.463344 
L 465.643636 220.083264 
L 469.701818 220.68504 
L 473.76 221.258088 
L 477.818182 221.7888 
L 481.876364 222.259032 
L 485.934545 222.65064 
L 489.992727 222.946992 
L 494.050909 223.132968 
L 498.109091 223.196472 
" clip-path="url(#pceec229ea9)" style="fill: none; stroke: #000000; stroke-opacity: 0.5; stroke-linecap: square"/>
   </g>
   <g id="line2d_19">
    <path d="M 92.290909 241.96644 
L 96.349091 241.960392 
L 100.407273 241.94376 
L 104.465455 241.915032 
L 108.523636 241.87572 
L 112.581818 241.825824 
L 116.64 241.76232 
L 120.698182 241.689744 
L 124.756364 241.605072 
L 128.814545 241.508304 
L 132.872727 241.400952 
L 136.930909 241.281504 
L 140.989091 241.151472 
L 145.047273 241.010856 
L 149.105455 240.858144 
L 153.163636 240.694848 
L 157.221818 240.519456 
L 161.28 240.331968 
L 165.338182 240.135408 
L 169.396364 239.926752 
L 173.454545 239.706 
L 177.512727 239.474664 
L 181.570909 239.232744 
L 185.629091 238.978728 
L 189.687273 238.714128 
L 193.745455 238.438944 
L 197.803636 238.151664 
L 201.861818 237.852288 
L 205.92 237.54384 
L 209.978182 237.221784 
L 214.036364 236.889144 
L 218.094545 236.54592 
L 222.152727 236.1906 
L 226.210909 235.824696 
L 230.269091 235.445184 
L 234.327273 235.055088 
L 238.385455 234.652896 
L 242.443636 234.238608 
L 246.501818 233.812224 
L 250.56 233.372232 
L 254.618182 232.920144 
L 258.676364 232.454448 
L 262.734545 231.975144 
L 266.792727 231.482232 
L 270.850909 230.9742 
L 274.909091 230.449536 
L 278.967273 229.909752 
L 283.025455 229.351824 
L 287.083636 228.775752 
L 291.141818 228.183048 
L 295.2 227.569176 
L 299.258182 226.935648 
L 303.316364 226.282464 
L 307.374545 225.609624 
L 311.432727 224.91864 
L 315.490909 224.209512 
L 319.549091 223.485264 
L 323.607273 222.750432 
L 327.665455 222.00804 
L 331.723636 221.2596 
L 335.781818 220.514184 
L 339.84 219.771792 
L 343.898182 219.041496 
L 347.956364 218.32632 
L 352.014545 217.632312 
L 356.072727 216.96552 
L 360.130909 216.328968 
L 364.189091 215.728704 
L 368.247273 215.170776 
L 372.305455 214.65972 
L 376.363636 214.200072 
L 380.421818 213.796368 
L 384.48 213.451632 
L 388.538182 213.168888 
L 392.596364 212.95116 
L 396.654545 212.793912 
L 400.712727 212.698656 
L 404.770909 212.653296 
L 408.829091 212.647248 
L 412.887273 212.650272 
L 416.945455 212.621544 
L 421.003636 212.511168 
L 425.061818 212.299488 
L 429.12 212.007672 
L 433.178182 211.668984 
L 437.236364 211.312152 
L 441.294545 210.950784 
L 445.352727 210.595464 
L 449.410909 210.25224 
L 453.469091 209.92716 
L 457.527273 209.620224 
L 461.585455 209.33748 
L 465.643636 209.077416 
L 469.701818 208.84608 
L 473.76 208.640448 
L 477.818182 208.465056 
L 481.876364 208.319904 
L 485.934545 208.206504 
L 489.992727 208.124856 
L 494.050909 208.076472 
L 498.109091 208.05984 
" clip-path="url(#pceec229ea9)" style="fill: none; stroke: #000000; stroke-opacity: 0.5; stroke-linecap: square"/>
   </g>
   <g id="line2d_20">
    <path d="M 92.290909 186.134328 
L 96.349091 186.126768 
L 100.407273 186.1056 
L 104.465455 186.0678 
L 108.523636 186.016392 
L 112.581818 185.949864 
L 116.64 185.868216 
L 120.698182 185.77296 
L 124.756364 185.662584 
L 128.814545 185.537088 
L 132.872727 185.397984 
L 136.930909 185.24376 
L 140.989091 185.075928 
L 145.047273 184.894488 
L 149.105455 184.697928 
L 153.163636 184.48776 
L 157.221818 184.263984 
L 161.28 184.025088 
L 165.338182 183.774096 
L 169.396364 183.509496 
L 173.454545 183.231288 
L 177.512727 182.940984 
L 181.570909 182.638584 
L 185.629091 182.322576 
L 189.687273 181.994472 
L 193.745455 181.654272 
L 197.803636 181.301976 
L 201.861818 180.939096 
L 205.92 180.565632 
L 209.978182 180.181584 
L 214.036364 179.78544 
L 218.094545 179.381736 
L 222.152727 178.967448 
L 226.210909 178.544088 
L 230.269091 178.113168 
L 234.327273 177.674688 
L 238.385455 177.228648 
L 242.443636 176.77656 
L 246.501818 176.318424 
L 250.56 175.855752 
L 254.618182 175.388544 
L 258.676364 174.918312 
L 262.734545 174.446568 
L 266.792727 173.973312 
L 270.850909 173.501568 
L 274.909091 173.031336 
L 278.967273 172.56564 
L 283.025455 172.10448 
L 287.083636 171.652392 
L 291.141818 171.210888 
L 295.2 170.78148 
L 299.258182 170.371728 
L 303.316364 169.981632 
L 307.374545 169.618752 
L 311.432727 169.287624 
L 315.490909 168.992784 
L 319.549091 168.744816 
L 323.607273 168.549768 
L 327.665455 168.413688 
L 331.723636 168.344136 
L 335.781818 168.34716 
L 339.84 168.424272 
L 343.898182 168.57396 
L 347.956364 168.788664 
L 352.014545 169.060824 
L 356.072727 169.376832 
L 360.130909 169.72308 
L 364.189091 170.082936 
L 368.247273 170.445816 
L 372.305455 170.7966 
L 376.363636 171.123192 
L 380.421818 171.415008 
L 384.48 171.662976 
L 388.538182 171.858024 
L 392.596364 171.997128 
L 396.654545 172.071216 
L 400.712727 172.080288 
L 404.770909 172.019808 
L 408.829091 171.889776 
L 412.887273 171.691704 
L 416.945455 171.427104 
L 421.003636 171.099 
L 425.061818 170.710416 
L 429.12 170.265888 
L 433.178182 169.771464 
L 437.236364 169.23168 
L 441.294545 168.654096 
L 445.352727 168.04476 
L 449.410909 167.40972 
L 453.469091 166.758048 
L 457.527273 166.097304 
L 461.585455 165.43656 
L 465.643636 164.790936 
L 469.701818 164.171016 
L 473.76 163.59948 
L 477.818182 163.094472 
L 481.876364 162.678672 
L 485.934545 162.370224 
L 489.992727 162.167616 
L 494.050909 162.055728 
L 498.109091 162.020952 
" clip-path="url(#pceec229ea9)" style="fill: none; stroke: #000000; stroke-opacity: 0.5; stroke-linecap: square"/>
   </g>
   <g id="line2d_21">
    <path d="M 92.290909 152.180856 
L 96.349091 152.173296 
L 100.407273 152.149104 
L 104.465455 152.106768 
L 108.523636 152.049312 
L 112.581818 151.975224 
L 116.64 151.886016 
L 120.698182 151.778664 
L 124.756364 151.65468 
L 128.814545 151.515576 
L 132.872727 151.358328 
L 136.930909 151.184448 
L 140.989091 150.995448 
L 145.047273 150.788304 
L 149.105455 150.564528 
L 153.163636 150.32412 
L 157.221818 150.06708 
L 161.28 149.793408 
L 165.338182 149.501592 
L 169.396364 149.193144 
L 173.454545 148.868064 
L 177.512727 148.52484 
L 181.570909 148.164984 
L 185.629091 147.786984 
L 189.687273 147.392352 
L 193.745455 146.979576 
L 197.803636 146.550168 
L 201.861818 146.102616 
L 205.92 145.63692 
L 209.978182 145.154592 
L 214.036364 144.65412 
L 218.094545 144.137016 
L 222.152727 143.600256 
L 226.210909 143.048376 
L 230.269091 142.479864 
L 234.327273 141.893208 
L 238.385455 141.292944 
L 242.443636 140.680584 
L 246.501818 140.05764 
L 250.56 139.436208 
L 254.618182 138.84048 
L 258.676364 138.355128 
L 262.734545 138.297672 
L 266.792727 138.96144 
L 270.850909 139.962384 
L 274.909091 141.048 
L 278.967273 142.156296 
L 283.025455 143.264592 
L 287.083636 144.362304 
L 291.141818 145.441872 
L 295.2 146.49876 
L 299.258182 147.529944 
L 303.316364 148.526352 
L 307.374545 149.48496 
L 311.432727 150.398208 
L 315.490909 151.258536 
L 319.549091 152.056872 
L 323.607273 152.785656 
L 327.665455 153.435816 
L 331.723636 153.99828 
L 335.781818 154.468512 
L 339.84 154.838952 
L 343.898182 155.112624 
L 347.956364 155.292552 
L 352.014545 155.384784 
L 356.072727 155.401416 
L 360.130909 155.353032 
L 364.189091 155.250216 
L 368.247273 155.108088 
L 372.305455 154.93572 
L 376.363636 154.745208 
L 380.421818 154.547136 
L 384.48 154.3536 
L 388.538182 154.178208 
L 392.596364 154.039104 
L 396.654545 153.957456 
L 400.712727 153.963504 
L 404.770909 154.076904 
L 408.829091 154.30068 
L 412.887273 154.613664 
L 416.945455 154.982592 
L 421.003636 155.384784 
L 425.061818 155.800584 
L 429.12 156.217896 
L 433.178182 156.630672 
L 437.236364 157.02984 
L 441.294545 157.413888 
L 445.352727 157.779792 
L 449.410909 158.121504 
L 453.469091 158.437512 
L 457.527273 158.72328 
L 461.585455 158.975784 
L 465.643636 159.190488 
L 469.701818 159.35832 
L 473.76 159.473232 
L 477.818182 159.526152 
L 481.876364 159.511032 
L 485.934545 159.435432 
L 489.992727 159.32808 
L 494.050909 159.234336 
L 498.109091 159.196536 
" clip-path="url(#pceec229ea9)" style="fill: none; stroke: #000000; stroke-opacity: 0.5; stroke-linecap: square"/>
   </g>
   <g id="line2d_22">
    <path d="M 92.290909 88.779672 
L 96.349091 88.955064 
L 100.407273 89.451 
L 104.465455 90.190368 
L 108.523636 91.097568 
L 112.581818 92.115144 
L 116.64 93.206808 
L 120.698182 94.346856 
L 124.756364 95.520168 
L 128.814545 96.71616 
L 132.872727 97.927272 
L 136.930909 99.148968 
L 140.989091 100.378224 
L 145.047273 101.612016 
L 149.105455 102.84732 
L 153.163636 104.085648 
L 157.221818 105.325488 
L 161.28 106.563816 
L 165.338182 107.803656 
L 169.396364 109.041984 
L 173.454545 110.280312 
L 177.512727 111.51864 
L 181.570909 112.755456 
L 185.629091 113.992272 
L 189.687273 115.227576 
L 193.745455 116.461368 
L 197.803636 117.696672 
L 201.861818 118.930464 
L 205.92 120.162744 
L 209.978182 121.395024 
L 214.036364 122.625792 
L 218.094545 123.85656 
L 222.152727 125.084304 
L 226.210909 126.310536 
L 230.269091 127.533744 
L 234.327273 128.752416 
L 238.385455 129.96504 
L 242.443636 131.168592 
L 246.501818 132.360048 
L 250.56 133.528824 
L 254.618182 134.647704 
L 258.676364 135.632016 
L 262.734545 136.16424 
L 266.792727 135.948024 
L 270.850909 135.371952 
L 274.909091 134.687016 
L 278.967273 133.96428 
L 283.025455 133.252128 
L 287.083636 132.682104 
L 291.141818 132.704784 
L 295.2 133.324704 
L 299.258182 134.098848 
L 303.316364 134.906256 
L 307.374545 135.716688 
L 311.432727 136.525608 
L 315.490909 137.326968 
L 319.549091 138.119256 
L 323.607273 138.902472 
L 327.665455 139.675104 
L 331.723636 140.438664 
L 335.781818 141.190128 
L 339.84 141.93252 
L 343.898182 142.662816 
L 347.956364 143.382528 
L 352.014545 144.090144 
L 356.072727 144.787176 
L 360.130909 145.4706 
L 364.189091 146.140416 
L 368.247273 146.795112 
L 372.305455 147.433176 
L 376.363636 148.053096 
L 380.421818 148.651848 
L 384.48 149.221872 
L 388.538182 149.755608 
L 392.596364 150.24096 
L 396.654545 150.659784 
L 400.712727 150.986376 
L 404.770909 151.202592 
L 408.829091 151.30692 
L 412.887273 151.328088 
L 416.945455 151.294824 
L 421.003636 151.23888 
L 425.061818 151.176888 
L 429.12 151.122456 
L 433.178182 151.08768 
L 437.236364 151.077096 
L 441.294545 151.096752 
L 445.352727 151.14816 
L 449.410909 151.237368 
L 453.469091 151.364376 
L 457.527273 151.530696 
L 461.585455 151.736328 
L 465.643636 151.976736 
L 469.701818 152.250408 
L 473.76 152.549784 
L 477.818182 152.86428 
L 481.876364 153.178776 
L 485.934545 153.472104 
L 489.992727 153.717048 
L 494.050909 153.883368 
L 498.109091 153.942336 
" clip-path="url(#pceec229ea9)" style="fill: none; stroke: #000000; stroke-opacity: 0.5; stroke-linecap: square"/>
   </g>
   <g id="line2d_23">
    <path d="M 92.290909 80.909712 
L 96.349091 80.918784 
L 100.407273 81.0216 
L 104.465455 81.352728 
L 108.523636 81.962064 
L 112.581818 82.799712 
L 116.64 83.794608 
L 120.698182 84.890808 
L 124.756364 86.053536 
L 128.814545 87.260112 
L 132.872727 88.495416 
L 136.930909 89.750376 
L 140.989091 91.01592 
L 145.047273 92.290536 
L 149.105455 93.566664 
L 153.163636 94.845816 
L 157.221818 96.121944 
L 161.28 97.395048 
L 165.338182 98.663616 
L 169.396364 99.924624 
L 173.454545 101.179584 
L 177.512727 102.425472 
L 181.570909 103.6638 
L 185.629091 104.891544 
L 189.687273 106.107192 
L 193.745455 107.313768 
L 197.803636 108.506736 
L 201.861818 109.687608 
L 205.92 110.856384 
L 209.978182 112.011552 
L 214.036364 113.153112 
L 218.094545 114.281064 
L 222.152727 115.395408 
L 226.210909 116.494632 
L 230.269091 117.580248 
L 234.327273 118.649232 
L 238.385455 119.70612 
L 242.443636 120.746376 
L 246.501818 121.773024 
L 250.56 122.784552 
L 254.618182 123.78096 
L 258.676364 124.762248 
L 262.734545 125.726904 
L 266.792727 126.67644 
L 270.850909 127.607832 
L 274.909091 128.518056 
L 278.967273 129.399552 
L 283.025455 130.22208 
L 287.083636 130.86468 
L 291.141818 130.876776 
L 295.2 130.261392 
L 299.258182 129.45852 
L 303.316364 128.595168 
L 307.374545 127.69704 
L 311.432727 126.77472 
L 315.490909 125.834256 
L 319.549091 124.875648 
L 323.607273 123.903432 
L 327.665455 122.917608 
L 331.723636 121.922712 
L 335.781818 120.918744 
L 339.84 119.908728 
L 343.898182 118.895688 
L 347.956364 117.88416 
L 352.014545 116.875656 
L 356.072727 115.879248 
L 360.130909 114.89796 
L 364.189091 113.9454 
L 368.247273 113.03064 
L 372.305455 112.173336 
L 376.363636 111.399192 
L 380.421818 110.742984 
L 384.48 110.251584 
L 388.538182 109.980936 
L 392.596364 109.9764 
L 396.654545 110.247048 
L 400.712727 110.76264 
L 404.770909 111.46572 
L 408.829091 112.295808 
L 412.887273 113.207544 
L 416.945455 114.166152 
L 421.003636 115.14744 
L 425.061818 116.134776 
L 429.12 117.116064 
L 433.178182 118.079208 
L 437.236364 119.01816 
L 441.294545 119.92536 
L 445.352727 120.791736 
L 449.410909 121.615776 
L 453.469091 122.391432 
L 457.527273 123.111144 
L 461.585455 123.774912 
L 465.643636 124.376688 
L 469.701818 124.913448 
L 473.76 125.382168 
L 477.818182 125.782848 
L 481.876364 126.110952 
L 485.934545 126.367992 
L 489.992727 126.552456 
L 494.050909 126.662832 
L 498.109091 126.69912 
" clip-path="url(#pceec229ea9)" style="fill: none; stroke: #000000; stroke-opacity: 0.5; stroke-linecap: square"/>
   </g>
   <g id="patch_3">
    <path d="M 72 384.48 
L 72 51.84 
" style="fill: none; stroke: #000000; stroke-width: 0.8; stroke-linejoin: miter; stroke-linecap: square"/>
   </g>
   <g id="patch_4">
    <path d="M 518.4 384.48 
L 518.4 51.84 
" style="fill: none; stroke: #000000; stroke-width: 0.8; stroke-linejoin: miter; stroke-linecap: square"/>
   </g>
   <g id="patch_5">
    <path d="M 72 384.48 
L 518.4 384.48 
" style="fill: none; stroke: #000000; stroke-width: 0.8; stroke-linejoin: miter; stroke-linecap: square"/>
   </g>
   <g id="patch_6">
    <path d="M 72 51.84 
L 518.4 51.84 
" style="fill: none; stroke: #000000; stroke-width: 0.8; stroke-linejoin: miter; stroke-linecap: square"/>
   </g>
  </g>
 </g>
 <defs>
  <clipPath id="pceec229ea9">
   <rect x="72" y="51.84" width="446.4" height="332.64"/>
  </clipPath>
 </defs>
</svg>
