<?xml version="1.0" encoding="utf-8" standalone="no"?>
<!DOCTYPE svg PUBLIC "-//W3C//DTD SVG 1.1//EN"
  "http://www.w3.org/Graphics/SVG/1.1/DTD/svg11.dtd">
<svg xmlns:xlink="http://www.w3.org/1999/xlink" width="576pt" height="432pt" viewBox="0 0 576 432" xmlns="http://www.w3.org/2000/svg" version="1.1">
 <metadata>
  <rdf:RDF xmlns:dc="http://purl.org/dc/elements/1.1/" xmlns:cc="http://creativecommons.org/ns#" xmlns:rdf="http://www.w3.org/1999/02/22-rdf-syntax-ns#">
   <cc:Work>
    <dc:type rdf:resource="http://purl.org/dc/dcmitype/StillImage"/>
    <dc:date>2023-05-04T12:26:22.892220</dc:date>
    <dc:format>image/svg+xml</dc:format>
    <dc:creator>
     <cc:Agent>
      <dc:title>Matplotlib v3.7.1, https://matplotlib.org/</dc:title>
     </cc:Agent>
    </dc:creator>
   </cc:Work>
  </rdf:RDF>
 </metadata>
 <defs>
  <style type="text/css">*{stroke-linejoin: round; stroke-linecap: butt}</style>
 </defs>
 <g id="figure_1">
  <g id="patch_1">
   <path d="M 0 432 
L 576 432 
L 576 0 
L 0 0 
z
" style="fill: #ffffff"/>
  </g>
  <g id="axes_1">
   <g id="patch_2">
    <path d="M 72 384.48 
L 518.4 384.48 
L 518.4 51.84 
L 72 51.84 
z
" style="fill: #ffffff"/>
   </g>
   <g id="matplotlib.axis_1">
    <g id="xtick_1">
     <g id="line2d_1">
      <defs>
       <path id="m7b4a0ea8a6" d="M 0 0 
L 0 3.5 
" style="stroke: #000000; stroke-width: 0.8"/>
      </defs>
      <g>
       <use xlink:href="#m7b4a0ea8a6" x="92.290909" y="384.48" style="stroke: #000000; stroke-width: 0.8"/>
      </g>
     </g>
     <g id="text_1">
      <!-- 0.0 -->
      <g transform="translate(84.339347 399.078438) scale(0.1 -0.1)">
       <defs>
        <path id="DejaVuSans-30" d="M 2034 4250 
Q 1547 4250 1301 3770 
Q 1056 3291 1056 2328 
Q 1056 1369 1301 889 
Q 1547 409 2034 409 
Q 2525 409 2770 889 
Q 3016 1369 3016 2328 
Q 3016 3291 2770 3770 
Q 2525 4250 2034 4250 
z
M 2034 4750 
Q 2819 4750 3233 4129 
Q 3647 3509 3647 2328 
Q 3647 1150 3233 529 
Q 2819 -91 2034 -91 
Q 1250 -91 836 529 
Q 422 1150 422 2328 
Q 422 3509 836 4129 
Q 1250 4750 2034 4750 
z
" transform="scale(0.015625)"/>
        <path id="DejaVuSans-2e" d="M 684 794 
L 1344 794 
L 1344 0 
L 684 0 
L 684 794 
z
" transform="scale(0.015625)"/>
       </defs>
       <use xlink:href="#DejaVuSans-30"/>
       <use xlink:href="#DejaVuSans-2e" x="63.623047"/>
       <use xlink:href="#DejaVuSans-30" x="95.410156"/>
      </g>
     </g>
    </g>
    <g id="xtick_2">
     <g id="line2d_2">
      <g>
       <use xlink:href="#m7b4a0ea8a6" x="173.454545" y="384.48" style="stroke: #000000; stroke-width: 0.8"/>
      </g>
     </g>
     <g id="text_2">
      <!-- 0.2 -->
      <g transform="translate(165.502983 399.078438) scale(0.1 -0.1)">
       <defs>
        <path id="DejaVuSans-32" d="M 1228 531 
L 3431 531 
L 3431 0 
L 469 0 
L 469 531 
Q 828 903 1448 1529 
Q 2069 2156 2228 2338 
Q 2531 2678 2651 2914 
Q 2772 3150 2772 3378 
Q 2772 3750 2511 3984 
Q 2250 4219 1831 4219 
Q 1534 4219 1204 4116 
Q 875 4013 500 3803 
L 500 4441 
Q 881 4594 1212 4672 
Q 1544 4750 1819 4750 
Q 2544 4750 2975 4387 
Q 3406 4025 3406 3419 
Q 3406 3131 3298 2873 
Q 3191 2616 2906 2266 
Q 2828 2175 2409 1742 
Q 1991 1309 1228 531 
z
" transform="scale(0.015625)"/>
       </defs>
       <use xlink:href="#DejaVuSans-30"/>
       <use xlink:href="#DejaVuSans-2e" x="63.623047"/>
       <use xlink:href="#DejaVuSans-32" x="95.410156"/>
      </g>
     </g>
    </g>
    <g id="xtick_3">
     <g id="line2d_3">
      <g>
       <use xlink:href="#m7b4a0ea8a6" x="254.618182" y="384.48" style="stroke: #000000; stroke-width: 0.8"/>
      </g>
     </g>
     <g id="text_3">
      <!-- 0.4 -->
      <g transform="translate(246.666619 399.078438) scale(0.1 -0.1)">
       <defs>
        <path id="DejaVuSans-34" d="M 2419 4116 
L 825 1625 
L 2419 1625 
L 2419 4116 
z
M 2253 4666 
L 3047 4666 
L 3047 1625 
L 3713 1625 
L 3713 1100 
L 3047 1100 
L 3047 0 
L 2419 0 
L 2419 1100 
L 313 1100 
L 313 1709 
L 2253 4666 
z
" transform="scale(0.015625)"/>
       </defs>
       <use xlink:href="#DejaVuSans-30"/>
       <use xlink:href="#DejaVuSans-2e" x="63.623047"/>
       <use xlink:href="#DejaVuSans-34" x="95.410156"/>
      </g>
     </g>
    </g>
    <g id="xtick_4">
     <g id="line2d_4">
      <g>
       <use xlink:href="#m7b4a0ea8a6" x="335.781818" y="384.48" style="stroke: #000000; stroke-width: 0.8"/>
      </g>
     </g>
     <g id="text_4">
      <!-- 0.6 -->
      <g transform="translate(327.830256 399.078438) scale(0.1 -0.1)">
       <defs>
        <path id="DejaVuSans-36" d="M 2113 2584 
Q 1688 2584 1439 2293 
Q 1191 2003 1191 1497 
Q 1191 994 1439 701 
Q 1688 409 2113 409 
Q 2538 409 2786 701 
Q 3034 994 3034 1497 
Q 3034 2003 2786 2293 
Q 2538 2584 2113 2584 
z
M 3366 4563 
L 3366 3988 
Q 3128 4100 2886 4159 
Q 2644 4219 2406 4219 
Q 1781 4219 1451 3797 
Q 1122 3375 1075 2522 
Q 1259 2794 1537 2939 
Q 1816 3084 2150 3084 
Q 2853 3084 3261 2657 
Q 3669 2231 3669 1497 
Q 3669 778 3244 343 
Q 2819 -91 2113 -91 
Q 1303 -91 875 529 
Q 447 1150 447 2328 
Q 447 3434 972 4092 
Q 1497 4750 2381 4750 
Q 2619 4750 2861 4703 
Q 3103 4656 3366 4563 
z
" transform="scale(0.015625)"/>
       </defs>
       <use xlink:href="#DejaVuSans-30"/>
       <use xlink:href="#DejaVuSans-2e" x="63.623047"/>
       <use xlink:href="#DejaVuSans-36" x="95.410156"/>
      </g>
     </g>
    </g>
    <g id="xtick_5">
     <g id="line2d_5">
      <g>
       <use xlink:href="#m7b4a0ea8a6" x="416.945455" y="384.48" style="stroke: #000000; stroke-width: 0.8"/>
      </g>
     </g>
     <g id="text_5">
      <!-- 0.8 -->
      <g transform="translate(408.993892 399.078438) scale(0.1 -0.1)">
       <defs>
        <path id="DejaVuSans-38" d="M 2034 2216 
Q 1584 2216 1326 1975 
Q 1069 1734 1069 1313 
Q 1069 891 1326 650 
Q 1584 409 2034 409 
Q 2484 409 2743 651 
Q 3003 894 3003 1313 
Q 3003 1734 2745 1975 
Q 2488 2216 2034 2216 
z
M 1403 2484 
Q 997 2584 770 2862 
Q 544 3141 544 3541 
Q 544 4100 942 4425 
Q 1341 4750 2034 4750 
Q 2731 4750 3128 4425 
Q 3525 4100 3525 3541 
Q 3525 3141 3298 2862 
Q 3072 2584 2669 2484 
Q 3125 2378 3379 2068 
Q 3634 1759 3634 1313 
Q 3634 634 3220 271 
Q 2806 -91 2034 -91 
Q 1263 -91 848 271 
Q 434 634 434 1313 
Q 434 1759 690 2068 
Q 947 2378 1403 2484 
z
M 1172 3481 
Q 1172 3119 1398 2916 
Q 1625 2713 2034 2713 
Q 2441 2713 2670 2916 
Q 2900 3119 2900 3481 
Q 2900 3844 2670 4047 
Q 2441 4250 2034 4250 
Q 1625 4250 1398 4047 
Q 1172 3844 1172 3481 
z
" transform="scale(0.015625)"/>
       </defs>
       <use xlink:href="#DejaVuSans-30"/>
       <use xlink:href="#DejaVuSans-2e" x="63.623047"/>
       <use xlink:href="#DejaVuSans-38" x="95.410156"/>
      </g>
     </g>
    </g>
    <g id="xtick_6">
     <g id="line2d_6">
      <g>
       <use xlink:href="#m7b4a0ea8a6" x="498.109091" y="384.48" style="stroke: #000000; stroke-width: 0.8"/>
      </g>
     </g>
     <g id="text_6">
      <!-- 1.0 -->
      <g transform="translate(490.157528 399.078438) scale(0.1 -0.1)">
       <defs>
        <path id="DejaVuSans-31" d="M 794 531 
L 1825 531 
L 1825 4091 
L 703 3866 
L 703 4441 
L 1819 4666 
L 2450 4666 
L 2450 531 
L 3481 531 
L 3481 0 
L 794 0 
L 794 531 
z
" transform="scale(0.015625)"/>
       </defs>
       <use xlink:href="#DejaVuSans-31"/>
       <use xlink:href="#DejaVuSans-2e" x="63.623047"/>
       <use xlink:href="#DejaVuSans-30" x="95.410156"/>
      </g>
     </g>
    </g>
   </g>
   <g id="matplotlib.axis_2">
    <g id="ytick_1">
     <g id="line2d_7">
      <defs>
       <path id="mb44092e4b5" d="M 0 0 
L -3.5 0 
" style="stroke: #000000; stroke-width: 0.8"/>
      </defs>
      <g>
       <use xlink:href="#mb44092e4b5" x="72" y="369.36" style="stroke: #000000; stroke-width: 0.8"/>
      </g>
     </g>
     <g id="text_7">
      <!-- −5.0 -->
      <g transform="translate(40.717187 373.159219) scale(0.1 -0.1)">
       <defs>
        <path id="DejaVuSans-2212" d="M 678 2272 
L 4684 2272 
L 4684 1741 
L 678 1741 
L 678 2272 
z
" transform="scale(0.015625)"/>
        <path id="DejaVuSans-35" d="M 691 4666 
L 3169 4666 
L 3169 4134 
L 1269 4134 
L 1269 2991 
Q 1406 3038 1543 3061 
Q 1681 3084 1819 3084 
Q 2600 3084 3056 2656 
Q 3513 2228 3513 1497 
Q 3513 744 3044 326 
Q 2575 -91 1722 -91 
Q 1428 -91 1123 -41 
Q 819 9 494 109 
L 494 744 
Q 775 591 1075 516 
Q 1375 441 1709 441 
Q 2250 441 2565 725 
Q 2881 1009 2881 1497 
Q 2881 1984 2565 2268 
Q 2250 2553 1709 2553 
Q 1456 2553 1204 2497 
Q 953 2441 691 2322 
L 691 4666 
z
" transform="scale(0.015625)"/>
       </defs>
       <use xlink:href="#DejaVuSans-2212"/>
       <use xlink:href="#DejaVuSans-35" x="83.789062"/>
       <use xlink:href="#DejaVuSans-2e" x="147.412109"/>
       <use xlink:href="#DejaVuSans-30" x="179.199219"/>
      </g>
     </g>
    </g>
    <g id="ytick_2">
     <g id="line2d_8">
      <g>
       <use xlink:href="#mb44092e4b5" x="72" y="331.56" style="stroke: #000000; stroke-width: 0.8"/>
      </g>
     </g>
     <g id="text_8">
      <!-- −2.5 -->
      <g transform="translate(40.717187 335.359219) scale(0.1 -0.1)">
       <use xlink:href="#DejaVuSans-2212"/>
       <use xlink:href="#DejaVuSans-32" x="83.789062"/>
       <use xlink:href="#DejaVuSans-2e" x="147.412109"/>
       <use xlink:href="#DejaVuSans-35" x="179.199219"/>
      </g>
     </g>
    </g>
    <g id="ytick_3">
     <g id="line2d_9">
      <g>
       <use xlink:href="#mb44092e4b5" x="72" y="293.76" style="stroke: #000000; stroke-width: 0.8"/>
      </g>
     </g>
     <g id="text_9">
      <!-- 0.0 -->
      <g transform="translate(49.096875 297.559219) scale(0.1 -0.1)">
       <use xlink:href="#DejaVuSans-30"/>
       <use xlink:href="#DejaVuSans-2e" x="63.623047"/>
       <use xlink:href="#DejaVuSans-30" x="95.410156"/>
      </g>
     </g>
    </g>
    <g id="ytick_4">
     <g id="line2d_10">
      <g>
       <use xlink:href="#mb44092e4b5" x="72" y="255.96" style="stroke: #000000; stroke-width: 0.8"/>
      </g>
     </g>
     <g id="text_10">
      <!-- 2.5 -->
      <g transform="translate(49.096875 259.759219) scale(0.1 -0.1)">
       <use xlink:href="#DejaVuSans-32"/>
       <use xlink:href="#DejaVuSans-2e" x="63.623047"/>
       <use xlink:href="#DejaVuSans-35" x="95.410156"/>
      </g>
     </g>
    </g>
    <g id="ytick_5">
     <g id="line2d_11">
      <g>
       <use xlink:href="#mb44092e4b5" x="72" y="218.16" style="stroke: #000000; stroke-width: 0.8"/>
      </g>
     </g>
     <g id="text_11">
      <!-- 5.0 -->
      <g transform="translate(49.096875 221.959219) scale(0.1 -0.1)">
       <use xlink:href="#DejaVuSans-35"/>
       <use xlink:href="#DejaVuSans-2e" x="63.623047"/>
       <use xlink:href="#DejaVuSans-30" x="95.410156"/>
      </g>
     </g>
    </g>
    <g id="ytick_6">
     <g id="line2d_12">
      <g>
       <use xlink:href="#mb44092e4b5" x="72" y="180.36" style="stroke: #000000; stroke-width: 0.8"/>
      </g>
     </g>
     <g id="text_12">
      <!-- 7.5 -->
      <g transform="translate(49.096875 184.159219) scale(0.1 -0.1)">
       <defs>
        <path id="DejaVuSans-37" d="M 525 4666 
L 3525 4666 
L 3525 4397 
L 1831 0 
L 1172 0 
L 2766 4134 
L 525 4134 
L 525 4666 
z
" transform="scale(0.015625)"/>
       </defs>
       <use xlink:href="#DejaVuSans-37"/>
       <use xlink:href="#DejaVuSans-2e" x="63.623047"/>
       <use xlink:href="#DejaVuSans-35" x="95.410156"/>
      </g>
     </g>
    </g>
    <g id="ytick_7">
     <g id="line2d_13">
      <g>
       <use xlink:href="#mb44092e4b5" x="72" y="142.56" style="stroke: #000000; stroke-width: 0.8"/>
      </g>
     </g>
     <g id="text_13">
      <!-- 10.0 -->
      <g transform="translate(42.734375 146.359219) scale(0.1 -0.1)">
       <use xlink:href="#DejaVuSans-31"/>
       <use xlink:href="#DejaVuSans-30" x="63.623047"/>
       <use xlink:href="#DejaVuSans-2e" x="127.246094"/>
       <use xlink:href="#DejaVuSans-30" x="159.033203"/>
      </g>
     </g>
    </g>
    <g id="ytick_8">
     <g id="line2d_14">
      <g>
       <use xlink:href="#mb44092e4b5" x="72" y="104.76" style="stroke: #000000; stroke-width: 0.8"/>
      </g>
     </g>
     <g id="text_14">
      <!-- 12.5 -->
      <g transform="translate(42.734375 108.559219) scale(0.1 -0.1)">
       <use xlink:href="#DejaVuSans-31"/>
       <use xlink:href="#DejaVuSans-32" x="63.623047"/>
       <use xlink:href="#DejaVuSans-2e" x="127.246094"/>
       <use xlink:href="#DejaVuSans-35" x="159.033203"/>
      </g>
     </g>
    </g>
    <g id="ytick_9">
     <g id="line2d_15">
      <g>
       <use xlink:href="#mb44092e4b5" x="72" y="66.96" style="stroke: #000000; stroke-width: 0.8"/>
      </g>
     </g>
     <g id="text_15">
      <!-- 15.0 -->
      <g transform="translate(42.734375 70.759219) scale(0.1 -0.1)">
       <use xlink:href="#DejaVuSans-31"/>
       <use xlink:href="#DejaVuSans-35" x="63.623047"/>
       <use xlink:href="#DejaVuSans-2e" x="127.246094"/>
       <use xlink:href="#DejaVuSans-30" x="159.033203"/>
      </g>
     </g>
    </g>
   </g>
   <g id="line2d_16">
    <path d="M 92.290909 327.450384 
L 96.349091 327.448872 
L 100.407273 327.444336 
L 104.465455 327.435264 
L 108.523636 327.423168 
L 112.581818 327.40956 
L 116.64 327.391416 
L 120.698182 327.370248 
L 124.756364 327.346056 
L 128.814545 327.320352 
L 132.872727 327.290112 
L 136.930909 327.259872 
L 140.989091 327.226608 
L 145.047273 327.19032 
L 149.105455 327.154032 
L 153.163636 327.116232 
L 157.221818 327.07692 
L 161.28 327.037608 
L 165.338182 326.998296 
L 169.396364 326.958984 
L 173.454545 326.919672 
L 177.512727 326.881872 
L 181.570909 326.844072 
L 185.629091 326.809296 
L 189.687273 326.776032 
L 193.745455 326.745792 
L 197.803636 326.718576 
L 201.861818 326.695896 
L 205.92 326.67624 
L 209.978182 326.66112 
L 214.036364 326.652048 
L 218.094545 326.647512 
L 222.152727 326.647512 
L 226.210909 326.655072 
L 230.269091 326.670192 
L 234.327273 326.689848 
L 238.385455 326.718576 
L 242.443636 326.753352 
L 246.501818 326.795688 
L 250.56 326.847096 
L 254.618182 326.904552 
L 258.676364 326.97108 
L 262.734545 327.045168 
L 266.792727 327.126816 
L 270.850909 327.217536 
L 274.909091 327.314304 
L 278.967273 327.418632 
L 283.025455 327.53052 
L 287.083636 327.649968 
L 291.141818 327.775464 
L 295.2 327.907008 
L 299.258182 328.046112 
L 303.316364 328.189752 
L 307.374545 328.337928 
L 311.432727 328.49064 
L 315.490909 328.6494 
L 319.549091 328.811184 
L 323.607273 328.975992 
L 327.665455 329.143824 
L 331.723636 329.31468 
L 335.781818 329.487048 
L 339.84 329.660928 
L 343.898182 329.83632 
L 347.956364 330.013224 
L 352.014545 330.188616 
L 356.072727 330.36552 
L 360.130909 330.540912 
L 364.189091 330.716304 
L 368.247273 330.890184 
L 372.305455 331.06104 
L 376.363636 331.231896 
L 380.421818 331.398216 
L 384.48 331.563024 
L 388.538182 331.724808 
L 392.596364 331.883568 
L 396.654545 332.037792 
L 400.712727 332.18748 
L 404.770909 332.334144 
L 408.829091 332.476272 
L 412.887273 332.613864 
L 416.945455 332.745408 
L 421.003636 332.872416 
L 425.061818 332.994888 
L 429.12 333.1098 
L 433.178182 333.221688 
L 437.236364 333.326016 
L 441.294545 333.424296 
L 445.352727 333.516528 
L 449.410909 333.602712 
L 453.469091 333.681336 
L 457.527273 333.755424 
L 461.585455 333.821952 
L 465.643636 333.88092 
L 469.701818 333.93384 
L 473.76 333.9792 
L 477.818182 334.018512 
L 481.876364 334.050264 
L 485.934545 334.075968 
L 489.992727 334.094112 
L 494.050909 334.104696 
L 498.109091 334.10772 
" clip-path="url(#p5f3b2e45a1)" style="fill: none; stroke: #000000; stroke-opacity: 0.5; stroke-linecap: square"/>
   </g>
   <g id="line2d_17">
    <path d="M 92.290909 311.935752 
L 96.349091 311.93424 
L 100.407273 311.931216 
L 104.465455 311.925168 
L 108.523636 311.917608 
L 112.581818 311.908536 
L 116.64 311.89644 
L 120.698182 311.882832 
L 124.756364 311.867712 
L 128.814545 311.849568 
L 132.872727 311.8284 
L 136.930909 311.807232 
L 140.989091 311.78304 
L 145.047273 311.755824 
L 149.105455 311.728608 
L 153.163636 311.696856 
L 157.221818 311.665104 
L 161.28 311.630328 
L 165.338182 311.592528 
L 169.396364 311.553216 
L 173.454545 311.51088 
L 177.512727 311.467032 
L 181.570909 311.42016 
L 185.629091 311.371776 
L 189.687273 311.318856 
L 193.745455 311.264424 
L 197.803636 311.206968 
L 201.861818 311.144976 
L 205.92 311.081472 
L 209.978182 311.013432 
L 214.036364 310.942368 
L 218.094545 310.86828 
L 222.152727 310.789656 
L 226.210909 310.706496 
L 230.269091 310.620312 
L 234.327273 310.529592 
L 238.385455 310.434336 
L 242.443636 310.336056 
L 246.501818 310.23324 
L 250.56 310.125888 
L 254.618182 310.014 
L 258.676364 309.897576 
L 262.734545 309.778128 
L 266.792727 309.654144 
L 270.850909 309.527136 
L 274.909091 309.395592 
L 278.967273 309.262536 
L 283.025455 309.124944 
L 287.083636 308.98584 
L 291.141818 308.843712 
L 295.2 308.701584 
L 299.258182 308.556432 
L 303.316364 308.409768 
L 307.374545 308.263104 
L 311.432727 308.11644 
L 315.490909 307.969776 
L 319.549091 307.823112 
L 323.607273 307.67796 
L 327.665455 307.535832 
L 331.723636 307.393704 
L 335.781818 307.2546 
L 339.84 307.117008 
L 343.898182 306.98244 
L 347.956364 306.852408 
L 352.014545 306.7254 
L 356.072727 306.601416 
L 360.130909 306.481968 
L 364.189091 306.367056 
L 368.247273 306.25668 
L 372.305455 306.149328 
L 376.363636 306.048024 
L 380.421818 305.951256 
L 384.48 305.859024 
L 388.538182 305.771328 
L 392.596364 305.688168 
L 396.654545 305.611056 
L 400.712727 305.536968 
L 404.770909 305.468928 
L 408.829091 305.405424 
L 412.887273 305.344944 
L 416.945455 305.289 
L 421.003636 305.237592 
L 425.061818 305.19072 
L 429.12 305.146872 
L 433.178182 305.106048 
L 437.236364 305.06976 
L 441.294545 305.036496 
L 445.352727 305.006256 
L 449.410909 304.97904 
L 453.469091 304.954848 
L 457.527273 304.93368 
L 461.585455 304.914024 
L 465.643636 304.897392 
L 469.701818 304.882272 
L 473.76 304.870176 
L 477.818182 304.859592 
L 481.876364 304.852032 
L 485.934545 304.844472 
L 489.992727 304.839936 
L 494.050909 304.838424 
L 498.109091 304.836912 
" clip-path="url(#p5f3b2e45a1)" style="fill: none; stroke: #000000; stroke-opacity: 0.5; stroke-linecap: square"/>
   </g>
   <g id="line2d_18">
    <path d="M 92.290909 249.03504 
L 96.349091 249.304176 
L 100.407273 249.784992 
L 104.465455 250.314192 
L 108.523636 250.863048 
L 112.581818 251.424 
L 116.64 251.991 
L 120.698182 252.564048 
L 124.756364 253.14012 
L 128.814545 253.71468 
L 132.872727 254.28924 
L 136.930909 254.859264 
L 140.989091 255.424752 
L 145.047273 255.98268 
L 149.105455 256.53456 
L 153.163636 257.075856 
L 157.221818 257.606568 
L 161.28 258.126696 
L 165.338182 258.634728 
L 169.396364 259.12764 
L 173.454545 259.606944 
L 177.512727 260.069616 
L 181.570909 260.517168 
L 185.629091 260.946576 
L 189.687273 261.359352 
L 193.745455 261.752472 
L 197.803636 262.127448 
L 201.861818 262.482768 
L 205.92 262.818432 
L 209.978182 263.13444 
L 214.036364 263.42928 
L 218.094545 263.702952 
L 222.152727 263.955456 
L 226.210909 264.186792 
L 230.269091 264.39696 
L 234.327273 264.584448 
L 238.385455 264.75228 
L 242.443636 264.897432 
L 246.501818 265.021416 
L 250.56 265.124232 
L 254.618182 265.20588 
L 258.676364 265.267872 
L 262.734545 265.307184 
L 266.792727 265.328352 
L 270.850909 265.328352 
L 274.909091 265.310208 
L 278.967273 265.270896 
L 283.025455 265.214952 
L 287.083636 265.139352 
L 291.141818 265.04712 
L 295.2 264.936744 
L 299.258182 264.809736 
L 303.316364 264.666096 
L 307.374545 264.507336 
L 311.432727 264.331944 
L 315.490909 264.141432 
L 319.549091 263.937312 
L 323.607273 263.718072 
L 327.665455 263.483712 
L 331.723636 263.235744 
L 335.781818 262.974168 
L 339.84 262.700496 
L 343.898182 262.413216 
L 347.956364 262.112328 
L 352.014545 261.797832 
L 356.072727 261.47124 
L 360.130909 261.132552 
L 364.189091 260.781768 
L 368.247273 260.417376 
L 372.305455 260.0424 
L 376.363636 259.655328 
L 380.421818 259.254648 
L 384.48 258.844896 
L 388.538182 258.421536 
L 392.596364 257.989104 
L 396.654545 257.546088 
L 400.712727 257.092488 
L 404.770909 256.629816 
L 408.829091 256.158072 
L 412.887273 255.678768 
L 416.945455 255.191904 
L 421.003636 254.698992 
L 425.061818 254.200032 
L 429.12 253.698048 
L 433.178182 253.191528 
L 437.236364 252.683496 
L 441.294545 252.175464 
L 445.352727 251.668944 
L 449.410909 251.163936 
L 453.469091 250.663464 
L 457.527273 250.16904 
L 461.585455 249.683688 
L 465.643636 249.20892 
L 469.701818 248.744736 
L 473.76 248.295672 
L 477.818182 247.864752 
L 481.876364 247.451976 
L 485.934545 247.064904 
L 489.992727 246.705048 
L 494.050909 246.390552 
L 498.109091 246.22272 
" clip-path="url(#p5f3b2e45a1)" style="fill: none; stroke: #000000; stroke-opacity: 0.5; stroke-linecap: square"/>
   </g>
   <g id="line2d_19">
    <path d="M 92.290909 248.272992 
L 96.349091 248.018976 
L 100.407273 247.586544 
L 104.465455 247.140504 
L 108.523636 246.70656 
L 112.581818 246.293784 
L 116.64 245.906712 
L 120.698182 245.548368 
L 124.756364 245.220264 
L 128.814545 244.926936 
L 132.872727 244.666872 
L 136.930909 244.441584 
L 140.989091 244.254096 
L 145.047273 244.104408 
L 149.105455 243.991008 
L 153.163636 243.915408 
L 157.221818 243.876096 
L 161.28 243.87156 
L 165.338182 243.9018 
L 169.396364 243.965304 
L 173.454545 244.059048 
L 177.512727 244.183032 
L 181.570909 244.33272 
L 185.629091 244.508112 
L 189.687273 244.706184 
L 193.745455 244.923912 
L 197.803636 245.158272 
L 201.861818 245.409264 
L 205.92 245.673864 
L 209.978182 245.947536 
L 214.036364 246.231792 
L 218.094545 246.522096 
L 222.152727 246.815424 
L 226.210909 247.113288 
L 230.269091 247.40964 
L 234.327273 247.705992 
L 238.385455 248.000832 
L 242.443636 248.289624 
L 246.501818 248.572368 
L 250.56 248.847552 
L 254.618182 249.113664 
L 258.676364 249.370704 
L 262.734545 249.615648 
L 266.792727 249.846984 
L 270.850909 250.066224 
L 274.909091 250.268832 
L 278.967273 250.45632 
L 283.025455 250.627176 
L 287.083636 250.779888 
L 291.141818 250.914456 
L 295.2 251.03088 
L 299.258182 251.126136 
L 303.316364 251.201736 
L 307.374545 251.256168 
L 311.432727 251.289432 
L 315.490909 251.301528 
L 319.549091 251.292456 
L 323.607273 251.260704 
L 327.665455 251.207784 
L 331.723636 251.133696 
L 335.781818 251.03844 
L 339.84 250.923528 
L 343.898182 250.787448 
L 347.956364 250.631712 
L 352.014545 250.457832 
L 356.072727 250.265808 
L 360.130909 250.057152 
L 364.189091 249.833376 
L 368.247273 249.59448 
L 372.305455 249.343488 
L 376.363636 249.081912 
L 380.421818 248.809752 
L 384.48 248.52852 
L 388.538182 248.242752 
L 392.596364 247.952448 
L 396.654545 247.65912 
L 400.712727 247.365792 
L 404.770909 247.075488 
L 408.829091 246.78972 
L 412.887273 246.51 
L 416.945455 246.239352 
L 421.003636 245.9808 
L 425.061818 245.735856 
L 429.12 245.509056 
L 433.178182 245.3004 
L 437.236364 245.112912 
L 441.294545 244.949616 
L 445.352727 244.812024 
L 449.410909 244.701648 
L 453.469091 244.623024 
L 457.527273 244.57464 
L 461.585455 244.561032 
L 465.643636 244.579176 
L 469.701818 244.633608 
L 473.76 244.721304 
L 477.818182 244.843776 
L 481.876364 245.001024 
L 485.934545 245.190024 
L 489.992727 245.404728 
L 494.050909 245.631528 
L 498.109091 245.772144 
" clip-path="url(#p5f3b2e45a1)" style="fill: none; stroke: #000000; stroke-opacity: 0.5; stroke-linecap: square"/>
   </g>
   <g id="line2d_20">
    <path d="M 92.290909 187.963848 
L 96.349091 188.06364 
L 100.407273 188.316144 
L 104.465455 188.642736 
L 108.523636 188.98596 
L 112.581818 189.312552 
L 116.64 189.602856 
L 120.698182 189.846288 
L 124.756364 190.035288 
L 128.814545 190.16532 
L 132.872727 190.23336 
L 136.930909 190.236384 
L 140.989091 190.17288 
L 145.047273 190.042848 
L 149.105455 189.843264 
L 153.163636 189.57564 
L 157.221818 189.241488 
L 161.28 188.839296 
L 165.338182 188.370576 
L 169.396364 187.838352 
L 173.454545 187.242624 
L 177.512727 186.586416 
L 181.570909 185.869728 
L 185.629091 185.097096 
L 189.687273 184.270032 
L 193.745455 183.390048 
L 197.803636 182.460168 
L 201.861818 181.483416 
L 205.92 180.459792 
L 209.978182 179.39232 
L 214.036364 178.284024 
L 218.094545 177.136416 
L 222.152727 175.951008 
L 226.210909 174.730824 
L 230.269091 173.475864 
L 234.327273 172.190664 
L 238.385455 170.873712 
L 242.443636 169.528032 
L 246.501818 168.155136 
L 250.56 166.758048 
L 254.618182 165.335256 
L 258.676364 163.891296 
L 262.734545 162.426168 
L 266.792727 160.942896 
L 270.850909 159.442992 
L 274.909091 157.92948 
L 278.967273 156.403872 
L 283.025455 154.87524 
L 287.083636 153.349632 
L 291.141818 151.845192 
L 295.2 150.39972 
L 299.258182 149.126616 
L 303.316364 148.415976 
L 307.374545 148.852944 
L 311.432727 150.045912 
L 315.490909 151.47324 
L 319.549091 152.971632 
L 323.607273 154.495728 
L 327.665455 156.022848 
L 331.723636 157.54392 
L 335.781818 159.05592 
L 339.84 160.554312 
L 343.898182 162.036072 
L 347.956364 163.499688 
L 352.014545 164.943648 
L 356.072727 166.367952 
L 360.130909 167.768064 
L 364.189091 169.145496 
L 368.247273 170.498736 
L 372.305455 171.82476 
L 376.363636 173.123568 
L 380.421818 174.393648 
L 384.48 175.633488 
L 388.538182 176.841576 
L 392.596364 178.0164 
L 396.654545 179.156448 
L 400.712727 180.260208 
L 404.770909 181.324656 
L 408.829091 182.349792 
L 412.887273 183.332592 
L 416.945455 184.273056 
L 421.003636 185.16816 
L 425.061818 186.01488 
L 429.12 186.813216 
L 433.178182 187.560144 
L 437.236364 188.255664 
L 441.294545 188.898264 
L 445.352727 189.48492 
L 449.410909 190.017144 
L 453.469091 190.493424 
L 457.527273 190.915272 
L 461.585455 191.281176 
L 465.643636 191.59416 
L 469.701818 191.855736 
L 473.76 192.068928 
L 477.818182 192.238272 
L 481.876364 192.366792 
L 485.934545 192.460536 
L 489.992727 192.522528 
L 494.050909 192.557304 
L 498.109091 192.5694 
" clip-path="url(#p5f3b2e45a1)" style="fill: none; stroke: #000000; stroke-opacity: 0.5; stroke-linecap: square"/>
   </g>
   <g id="line2d_21">
    <path d="M 92.290909 184.56336 
L 96.349091 184.415184 
L 100.407273 184.01148 
L 104.465455 183.432384 
L 108.523636 182.736864 
L 112.581818 181.956672 
L 116.64 181.111464 
L 120.698182 180.213336 
L 124.756364 179.266824 
L 128.814545 178.277976 
L 132.872727 177.249816 
L 136.930909 176.18688 
L 140.989091 175.089168 
L 145.047273 173.959704 
L 149.105455 172.801512 
L 153.163636 171.61308 
L 157.221818 170.398944 
L 161.28 169.157592 
L 165.338182 167.890536 
L 169.396364 166.6008 
L 173.454545 165.288384 
L 177.512727 163.953288 
L 181.570909 162.597024 
L 185.629091 161.221104 
L 189.687273 159.825528 
L 193.745455 158.411808 
L 197.803636 156.978432 
L 201.861818 155.529936 
L 205.92 154.064808 
L 209.978182 152.58456 
L 214.036364 151.090704 
L 218.094545 149.584752 
L 222.152727 148.066704 
L 226.210909 146.539584 
L 230.269091 145.006416 
L 234.327273 143.470224 
L 238.385455 141.935544 
L 242.443636 140.411448 
L 246.501818 138.910032 
L 250.56 137.452464 
L 254.618182 136.082592 
L 258.676364 134.882064 
L 262.734545 134.0172 
L 266.792727 133.743528 
L 270.850909 134.200152 
L 274.909091 135.210168 
L 278.967273 136.521072 
L 283.025455 137.974104 
L 287.083636 139.487616 
L 291.141818 141.0102 
L 295.2 142.487424 
L 299.258182 143.79984 
L 303.316364 144.5634 
L 307.374545 144.20052 
L 311.432727 143.136072 
L 315.490909 141.9552 
L 319.549091 140.963328 
L 323.607273 140.477976 
L 327.665455 140.739552 
L 331.723636 141.621048 
L 335.781818 142.836696 
L 339.84 144.211104 
L 343.898182 145.6596 
L 347.956364 147.144384 
L 352.014545 148.642776 
L 356.072727 150.145704 
L 360.130909 151.645608 
L 364.189091 153.137952 
L 368.247273 154.6182 
L 372.305455 156.08484 
L 376.363636 157.537872 
L 380.421818 158.97276 
L 384.48 160.389504 
L 388.538182 161.786592 
L 392.596364 163.162512 
L 396.654545 164.515752 
L 400.712727 165.847824 
L 404.770909 167.154192 
L 408.829091 168.436368 
L 412.887273 169.689816 
L 416.945455 170.916048 
L 421.003636 172.11204 
L 425.061818 173.277792 
L 429.12 174.41028 
L 433.178182 175.50648 
L 437.236364 176.567904 
L 441.294545 177.588504 
L 445.352727 178.56828 
L 449.410909 179.502696 
L 453.469091 180.39024 
L 457.527273 181.226376 
L 461.585455 182.00808 
L 465.643636 182.730816 
L 469.701818 183.390048 
L 473.76 183.978216 
L 477.818182 184.492296 
L 481.876364 184.923216 
L 485.934545 185.267952 
L 489.992727 185.518944 
L 494.050909 185.671656 
L 498.109091 185.723064 
" clip-path="url(#p5f3b2e45a1)" style="fill: none; stroke: #000000; stroke-opacity: 0.5; stroke-linecap: square"/>
   </g>
   <g id="line2d_22">
    <path d="M 92.290909 74.56536 
L 96.349091 74.56536 
L 100.407273 74.568384 
L 104.465455 74.57292 
L 108.523636 74.578968 
L 112.581818 74.58804 
L 116.64 74.601648 
L 120.698182 74.621304 
L 124.756364 74.64852 
L 128.814545 74.689344 
L 132.872727 74.752848 
L 136.930909 74.866248 
L 140.989091 75.105144 
L 145.047273 75.693312 
L 149.105455 76.84848 
L 153.163636 78.358968 
L 157.221818 80.01612 
L 161.28 81.742824 
L 165.338182 83.514888 
L 169.396364 85.314168 
L 173.454545 87.136128 
L 177.512727 88.97472 
L 181.570909 90.823896 
L 185.629091 92.682144 
L 189.687273 94.54644 
L 193.745455 96.415272 
L 197.803636 98.285616 
L 201.861818 100.15596 
L 205.92 102.024792 
L 209.978182 103.889088 
L 214.036364 105.75036 
L 218.094545 107.604072 
L 222.152727 109.448712 
L 226.210909 111.28428 
L 230.269091 113.104728 
L 234.327273 114.908544 
L 238.385455 116.691192 
L 242.443636 118.4436 
L 246.501818 120.153672 
L 250.56 121.801752 
L 254.618182 123.345504 
L 258.676364 124.704792 
L 262.734545 125.71632 
L 266.792727 126.133632 
L 270.850909 125.831232 
L 274.909091 125.014752 
L 278.967273 124.009272 
L 283.025455 123.159528 
L 287.083636 122.935752 
L 291.141818 123.596496 
L 295.2 124.810632 
L 299.258182 126.24552 
L 303.316364 127.751472 
L 307.374545 129.257424 
L 311.432727 130.70592 
L 315.490909 132.018336 
L 319.549091 133.04196 
L 323.607273 133.50312 
L 327.665455 133.17804 
L 331.723636 132.201288 
L 335.781818 130.858632 
L 339.84 129.33 
L 343.898182 127.700064 
L 347.956364 126.008136 
L 352.014545 124.275384 
L 356.072727 122.513904 
L 360.130909 120.729744 
L 364.189091 118.92744 
L 368.247273 117.11304 
L 372.305455 115.285032 
L 376.363636 113.449464 
L 380.421818 111.604824 
L 384.48 109.755648 
L 388.538182 107.901936 
L 392.596364 106.043688 
L 396.654545 104.183928 
L 400.712727 102.32568 
L 404.770909 100.467432 
L 408.829091 98.612208 
L 412.887273 96.76152 
L 416.945455 94.918392 
L 421.003636 93.082824 
L 425.061818 91.260864 
L 429.12 89.452512 
L 433.178182 87.662304 
L 437.236364 85.893264 
L 441.294545 84.15144 
L 445.352727 82.441368 
L 449.410909 80.770608 
L 453.469091 79.14672 
L 457.527273 77.578776 
L 461.585455 76.080384 
L 465.643636 74.668176 
L 469.701818 73.490328 
L 473.76 73.331568 
L 477.818182 73.319472 
L 481.876364 73.314936 
L 485.934545 73.313424 
L 489.992727 73.311912 
L 494.050909 73.311912 
L 498.109091 73.311912 
" clip-path="url(#p5f3b2e45a1)" style="fill: none; stroke: #000000; stroke-opacity: 0.5; stroke-linecap: square"/>
   </g>
   <g id="line2d_23">
    <path d="M 92.290909 62.132184 
L 96.349091 62.209296 
L 100.407273 62.443656 
L 104.465455 62.838288 
L 108.523636 63.393192 
L 112.581818 64.10988 
L 116.64 64.982304 
L 120.698182 65.99988 
L 124.756364 67.147488 
L 128.814545 68.40396 
L 132.872727 69.746616 
L 136.930909 71.131608 
L 140.989091 72.469728 
L 145.047273 73.52964 
L 149.105455 74.08152 
L 153.163636 74.331 
L 157.221818 74.485224 
L 161.28 74.619792 
L 165.338182 74.763432 
L 169.396364 74.938824 
L 173.454545 75.171672 
L 177.512727 75.49524 
L 181.570909 75.9564 
L 185.629091 76.61412 
L 189.687273 77.52132 
L 193.745455 78.690096 
L 197.803636 80.087184 
L 201.861818 81.653616 
L 205.92 83.333448 
L 209.978182 85.08888 
L 214.036364 86.892696 
L 218.094545 88.726752 
L 222.152727 90.580464 
L 226.210909 92.446272 
L 230.269091 94.318128 
L 234.327273 96.191496 
L 238.385455 98.06184 
L 242.443636 99.927648 
L 246.501818 101.787408 
L 250.56 103.636584 
L 254.618182 105.472152 
L 258.676364 107.291088 
L 262.734545 109.087344 
L 266.792727 110.851848 
L 270.850909 112.567968 
L 274.909091 114.205464 
L 278.967273 115.688736 
L 283.025455 116.824248 
L 287.083636 117.217368 
L 291.141818 116.642808 
L 295.2 115.448328 
L 299.258182 113.969592 
L 303.316364 112.3578 
L 307.374545 110.668896 
L 311.432727 108.931608 
L 315.490909 107.161056 
L 319.549091 105.366312 
L 323.607273 103.5504 
L 327.665455 101.717856 
L 331.723636 99.873216 
L 335.781818 98.01648 
L 339.84 96.152184 
L 343.898182 94.280328 
L 347.956364 92.405448 
L 352.014545 90.530568 
L 356.072727 88.658712 
L 360.130909 86.794416 
L 364.189091 84.946752 
L 368.247273 83.129328 
L 372.305455 81.360288 
L 376.363636 79.672896 
L 380.421818 78.11856 
L 384.48 76.77288 
L 388.538182 75.708432 
L 392.596364 74.947896 
L 396.654545 74.438352 
L 400.712727 74.102688 
L 404.770909 73.875888 
L 408.829091 73.721664 
L 412.887273 73.611288 
L 416.945455 73.531152 
L 421.003636 73.470672 
L 425.061818 73.426824 
L 429.12 73.39356 
L 433.178182 73.367856 
L 437.236364 73.3482 
L 441.294545 73.334592 
L 445.352727 73.322496 
L 449.410909 73.314936 
L 453.469091 73.307376 
L 457.527273 73.30284 
L 461.585455 73.29528 
L 465.643636 73.281672 
L 469.701818 73.127448 
L 473.76 72.07056 
L 477.818182 70.99704 
L 481.876364 70.070184 
L 485.934545 69.317208 
L 489.992727 68.75928 
L 494.050909 68.417568 
L 498.109091 68.302656 
" clip-path="url(#p5f3b2e45a1)" style="fill: none; stroke: #000000; stroke-opacity: 0.5; stroke-linecap: square"/>
   </g>
   <g id="patch_3">
    <path d="M 72 384.48 
L 72 51.84 
" style="fill: none; stroke: #000000; stroke-width: 0.8; stroke-linejoin: miter; stroke-linecap: square"/>
   </g>
   <g id="patch_4">
    <path d="M 518.4 384.48 
L 518.4 51.84 
" style="fill: none; stroke: #000000; stroke-width: 0.8; stroke-linejoin: miter; stroke-linecap: square"/>
   </g>
   <g id="patch_5">
    <path d="M 72 384.48 
L 518.4 384.48 
" style="fill: none; stroke: #000000; stroke-width: 0.8; stroke-linejoin: miter; stroke-linecap: square"/>
   </g>
   <g id="patch_6">
    <path d="M 72 51.84 
L 518.4 51.84 
" style="fill: none; stroke: #000000; stroke-width: 0.8; stroke-linejoin: miter; stroke-linecap: square"/>
   </g>
  </g>
 </g>
 <defs>
  <clipPath id="p5f3b2e45a1">
   <rect x="72" y="51.84" width="446.4" height="332.64"/>
  </clipPath>
 </defs>
</svg>
