<?xml version="1.0" encoding="utf-8" standalone="no"?>
<!DOCTYPE svg PUBLIC "-//W3C//DTD SVG 1.1//EN"
  "http://www.w3.org/Graphics/SVG/1.1/DTD/svg11.dtd">
<svg xmlns:xlink="http://www.w3.org/1999/xlink" width="576pt" height="432pt" viewBox="0 0 576 432" xmlns="http://www.w3.org/2000/svg" version="1.1">
 <metadata>
  <rdf:RDF xmlns:dc="http://purl.org/dc/elements/1.1/" xmlns:cc="http://creativecommons.org/ns#" xmlns:rdf="http://www.w3.org/1999/02/22-rdf-syntax-ns#">
   <cc:Work>
    <dc:type rdf:resource="http://purl.org/dc/dcmitype/StillImage"/>
    <dc:date>2023-05-03T17:37:10.376653</dc:date>
    <dc:format>image/svg+xml</dc:format>
    <dc:creator>
     <cc:Agent>
      <dc:title>Matplotlib v3.7.1, https://matplotlib.org/</dc:title>
     </cc:Agent>
    </dc:creator>
   </cc:Work>
  </rdf:RDF>
 </metadata>
 <defs>
  <style type="text/css">*{stroke-linejoin: round; stroke-linecap: butt}</style>
 </defs>
 <g id="figure_1">
  <g id="patch_1">
   <path d="M 0 432 
L 576 432 
L 576 0 
L 0 0 
z
" style="fill: #ffffff"/>
  </g>
  <g id="axes_1">
   <g id="patch_2">
    <path d="M 72 384.48 
L 518.4 384.48 
L 518.4 51.84 
L 72 51.84 
z
" style="fill: #ffffff"/>
   </g>
   <g id="matplotlib.axis_1">
    <g id="xtick_1">
     <g id="line2d_1">
      <defs>
       <path id="m483bcec7ee" d="M 0 0 
L 0 3.5 
" style="stroke: #000000; stroke-width: 0.8"/>
      </defs>
      <g>
       <use xlink:href="#m483bcec7ee" x="92.290909" y="384.48" style="stroke: #000000; stroke-width: 0.8"/>
      </g>
     </g>
     <g id="text_1">
      <!-- 0.0 -->
      <g transform="translate(84.339347 399.078438) scale(0.1 -0.1)">
       <defs>
        <path id="DejaVuSans-30" d="M 2034 4250 
Q 1547 4250 1301 3770 
Q 1056 3291 1056 2328 
Q 1056 1369 1301 889 
Q 1547 409 2034 409 
Q 2525 409 2770 889 
Q 3016 1369 3016 2328 
Q 3016 3291 2770 3770 
Q 2525 4250 2034 4250 
z
M 2034 4750 
Q 2819 4750 3233 4129 
Q 3647 3509 3647 2328 
Q 3647 1150 3233 529 
Q 2819 -91 2034 -91 
Q 1250 -91 836 529 
Q 422 1150 422 2328 
Q 422 3509 836 4129 
Q 1250 4750 2034 4750 
z
" transform="scale(0.015625)"/>
        <path id="DejaVuSans-2e" d="M 684 794 
L 1344 794 
L 1344 0 
L 684 0 
L 684 794 
z
" transform="scale(0.015625)"/>
       </defs>
       <use xlink:href="#DejaVuSans-30"/>
       <use xlink:href="#DejaVuSans-2e" x="63.623047"/>
       <use xlink:href="#DejaVuSans-30" x="95.410156"/>
      </g>
     </g>
    </g>
    <g id="xtick_2">
     <g id="line2d_2">
      <g>
       <use xlink:href="#m483bcec7ee" x="173.454545" y="384.48" style="stroke: #000000; stroke-width: 0.8"/>
      </g>
     </g>
     <g id="text_2">
      <!-- 0.2 -->
      <g transform="translate(165.502983 399.078438) scale(0.1 -0.1)">
       <defs>
        <path id="DejaVuSans-32" d="M 1228 531 
L 3431 531 
L 3431 0 
L 469 0 
L 469 531 
Q 828 903 1448 1529 
Q 2069 2156 2228 2338 
Q 2531 2678 2651 2914 
Q 2772 3150 2772 3378 
Q 2772 3750 2511 3984 
Q 2250 4219 1831 4219 
Q 1534 4219 1204 4116 
Q 875 4013 500 3803 
L 500 4441 
Q 881 4594 1212 4672 
Q 1544 4750 1819 4750 
Q 2544 4750 2975 4387 
Q 3406 4025 3406 3419 
Q 3406 3131 3298 2873 
Q 3191 2616 2906 2266 
Q 2828 2175 2409 1742 
Q 1991 1309 1228 531 
z
" transform="scale(0.015625)"/>
       </defs>
       <use xlink:href="#DejaVuSans-30"/>
       <use xlink:href="#DejaVuSans-2e" x="63.623047"/>
       <use xlink:href="#DejaVuSans-32" x="95.410156"/>
      </g>
     </g>
    </g>
    <g id="xtick_3">
     <g id="line2d_3">
      <g>
       <use xlink:href="#m483bcec7ee" x="254.618182" y="384.48" style="stroke: #000000; stroke-width: 0.8"/>
      </g>
     </g>
     <g id="text_3">
      <!-- 0.4 -->
      <g transform="translate(246.666619 399.078438) scale(0.1 -0.1)">
       <defs>
        <path id="DejaVuSans-34" d="M 2419 4116 
L 825 1625 
L 2419 1625 
L 2419 4116 
z
M 2253 4666 
L 3047 4666 
L 3047 1625 
L 3713 1625 
L 3713 1100 
L 3047 1100 
L 3047 0 
L 2419 0 
L 2419 1100 
L 313 1100 
L 313 1709 
L 2253 4666 
z
" transform="scale(0.015625)"/>
       </defs>
       <use xlink:href="#DejaVuSans-30"/>
       <use xlink:href="#DejaVuSans-2e" x="63.623047"/>
       <use xlink:href="#DejaVuSans-34" x="95.410156"/>
      </g>
     </g>
    </g>
    <g id="xtick_4">
     <g id="line2d_4">
      <g>
       <use xlink:href="#m483bcec7ee" x="335.781818" y="384.48" style="stroke: #000000; stroke-width: 0.8"/>
      </g>
     </g>
     <g id="text_4">
      <!-- 0.6 -->
      <g transform="translate(327.830256 399.078438) scale(0.1 -0.1)">
       <defs>
        <path id="DejaVuSans-36" d="M 2113 2584 
Q 1688 2584 1439 2293 
Q 1191 2003 1191 1497 
Q 1191 994 1439 701 
Q 1688 409 2113 409 
Q 2538 409 2786 701 
Q 3034 994 3034 1497 
Q 3034 2003 2786 2293 
Q 2538 2584 2113 2584 
z
M 3366 4563 
L 3366 3988 
Q 3128 4100 2886 4159 
Q 2644 4219 2406 4219 
Q 1781 4219 1451 3797 
Q 1122 3375 1075 2522 
Q 1259 2794 1537 2939 
Q 1816 3084 2150 3084 
Q 2853 3084 3261 2657 
Q 3669 2231 3669 1497 
Q 3669 778 3244 343 
Q 2819 -91 2113 -91 
Q 1303 -91 875 529 
Q 447 1150 447 2328 
Q 447 3434 972 4092 
Q 1497 4750 2381 4750 
Q 2619 4750 2861 4703 
Q 3103 4656 3366 4563 
z
" transform="scale(0.015625)"/>
       </defs>
       <use xlink:href="#DejaVuSans-30"/>
       <use xlink:href="#DejaVuSans-2e" x="63.623047"/>
       <use xlink:href="#DejaVuSans-36" x="95.410156"/>
      </g>
     </g>
    </g>
    <g id="xtick_5">
     <g id="line2d_5">
      <g>
       <use xlink:href="#m483bcec7ee" x="416.945455" y="384.48" style="stroke: #000000; stroke-width: 0.8"/>
      </g>
     </g>
     <g id="text_5">
      <!-- 0.8 -->
      <g transform="translate(408.993892 399.078438) scale(0.1 -0.1)">
       <defs>
        <path id="DejaVuSans-38" d="M 2034 2216 
Q 1584 2216 1326 1975 
Q 1069 1734 1069 1313 
Q 1069 891 1326 650 
Q 1584 409 2034 409 
Q 2484 409 2743 651 
Q 3003 894 3003 1313 
Q 3003 1734 2745 1975 
Q 2488 2216 2034 2216 
z
M 1403 2484 
Q 997 2584 770 2862 
Q 544 3141 544 3541 
Q 544 4100 942 4425 
Q 1341 4750 2034 4750 
Q 2731 4750 3128 4425 
Q 3525 4100 3525 3541 
Q 3525 3141 3298 2862 
Q 3072 2584 2669 2484 
Q 3125 2378 3379 2068 
Q 3634 1759 3634 1313 
Q 3634 634 3220 271 
Q 2806 -91 2034 -91 
Q 1263 -91 848 271 
Q 434 634 434 1313 
Q 434 1759 690 2068 
Q 947 2378 1403 2484 
z
M 1172 3481 
Q 1172 3119 1398 2916 
Q 1625 2713 2034 2713 
Q 2441 2713 2670 2916 
Q 2900 3119 2900 3481 
Q 2900 3844 2670 4047 
Q 2441 4250 2034 4250 
Q 1625 4250 1398 4047 
Q 1172 3844 1172 3481 
z
" transform="scale(0.015625)"/>
       </defs>
       <use xlink:href="#DejaVuSans-30"/>
       <use xlink:href="#DejaVuSans-2e" x="63.623047"/>
       <use xlink:href="#DejaVuSans-38" x="95.410156"/>
      </g>
     </g>
    </g>
    <g id="xtick_6">
     <g id="line2d_6">
      <g>
       <use xlink:href="#m483bcec7ee" x="498.109091" y="384.48" style="stroke: #000000; stroke-width: 0.8"/>
      </g>
     </g>
     <g id="text_6">
      <!-- 1.0 -->
      <g transform="translate(490.157528 399.078438) scale(0.1 -0.1)">
       <defs>
        <path id="DejaVuSans-31" d="M 794 531 
L 1825 531 
L 1825 4091 
L 703 3866 
L 703 4441 
L 1819 4666 
L 2450 4666 
L 2450 531 
L 3481 531 
L 3481 0 
L 794 0 
L 794 531 
z
" transform="scale(0.015625)"/>
       </defs>
       <use xlink:href="#DejaVuSans-31"/>
       <use xlink:href="#DejaVuSans-2e" x="63.623047"/>
       <use xlink:href="#DejaVuSans-30" x="95.410156"/>
      </g>
     </g>
    </g>
   </g>
   <g id="matplotlib.axis_2">
    <g id="ytick_1">
     <g id="line2d_7">
      <defs>
       <path id="mdada118794" d="M 0 0 
L -3.5 0 
" style="stroke: #000000; stroke-width: 0.8"/>
      </defs>
      <g>
       <use xlink:href="#mdada118794" x="72" y="369.36" style="stroke: #000000; stroke-width: 0.8"/>
      </g>
     </g>
     <g id="text_7">
      <!-- −5.0 -->
      <g transform="translate(40.717187 373.159219) scale(0.1 -0.1)">
       <defs>
        <path id="DejaVuSans-2212" d="M 678 2272 
L 4684 2272 
L 4684 1741 
L 678 1741 
L 678 2272 
z
" transform="scale(0.015625)"/>
        <path id="DejaVuSans-35" d="M 691 4666 
L 3169 4666 
L 3169 4134 
L 1269 4134 
L 1269 2991 
Q 1406 3038 1543 3061 
Q 1681 3084 1819 3084 
Q 2600 3084 3056 2656 
Q 3513 2228 3513 1497 
Q 3513 744 3044 326 
Q 2575 -91 1722 -91 
Q 1428 -91 1123 -41 
Q 819 9 494 109 
L 494 744 
Q 775 591 1075 516 
Q 1375 441 1709 441 
Q 2250 441 2565 725 
Q 2881 1009 2881 1497 
Q 2881 1984 2565 2268 
Q 2250 2553 1709 2553 
Q 1456 2553 1204 2497 
Q 953 2441 691 2322 
L 691 4666 
z
" transform="scale(0.015625)"/>
       </defs>
       <use xlink:href="#DejaVuSans-2212"/>
       <use xlink:href="#DejaVuSans-35" x="83.789062"/>
       <use xlink:href="#DejaVuSans-2e" x="147.412109"/>
       <use xlink:href="#DejaVuSans-30" x="179.199219"/>
      </g>
     </g>
    </g>
    <g id="ytick_2">
     <g id="line2d_8">
      <g>
       <use xlink:href="#mdada118794" x="72" y="331.56" style="stroke: #000000; stroke-width: 0.8"/>
      </g>
     </g>
     <g id="text_8">
      <!-- −2.5 -->
      <g transform="translate(40.717187 335.359219) scale(0.1 -0.1)">
       <use xlink:href="#DejaVuSans-2212"/>
       <use xlink:href="#DejaVuSans-32" x="83.789062"/>
       <use xlink:href="#DejaVuSans-2e" x="147.412109"/>
       <use xlink:href="#DejaVuSans-35" x="179.199219"/>
      </g>
     </g>
    </g>
    <g id="ytick_3">
     <g id="line2d_9">
      <g>
       <use xlink:href="#mdada118794" x="72" y="293.76" style="stroke: #000000; stroke-width: 0.8"/>
      </g>
     </g>
     <g id="text_9">
      <!-- 0.0 -->
      <g transform="translate(49.096875 297.559219) scale(0.1 -0.1)">
       <use xlink:href="#DejaVuSans-30"/>
       <use xlink:href="#DejaVuSans-2e" x="63.623047"/>
       <use xlink:href="#DejaVuSans-30" x="95.410156"/>
      </g>
     </g>
    </g>
    <g id="ytick_4">
     <g id="line2d_10">
      <g>
       <use xlink:href="#mdada118794" x="72" y="255.96" style="stroke: #000000; stroke-width: 0.8"/>
      </g>
     </g>
     <g id="text_10">
      <!-- 2.5 -->
      <g transform="translate(49.096875 259.759219) scale(0.1 -0.1)">
       <use xlink:href="#DejaVuSans-32"/>
       <use xlink:href="#DejaVuSans-2e" x="63.623047"/>
       <use xlink:href="#DejaVuSans-35" x="95.410156"/>
      </g>
     </g>
    </g>
    <g id="ytick_5">
     <g id="line2d_11">
      <g>
       <use xlink:href="#mdada118794" x="72" y="218.16" style="stroke: #000000; stroke-width: 0.8"/>
      </g>
     </g>
     <g id="text_11">
      <!-- 5.0 -->
      <g transform="translate(49.096875 221.959219) scale(0.1 -0.1)">
       <use xlink:href="#DejaVuSans-35"/>
       <use xlink:href="#DejaVuSans-2e" x="63.623047"/>
       <use xlink:href="#DejaVuSans-30" x="95.410156"/>
      </g>
     </g>
    </g>
    <g id="ytick_6">
     <g id="line2d_12">
      <g>
       <use xlink:href="#mdada118794" x="72" y="180.36" style="stroke: #000000; stroke-width: 0.8"/>
      </g>
     </g>
     <g id="text_12">
      <!-- 7.5 -->
      <g transform="translate(49.096875 184.159219) scale(0.1 -0.1)">
       <defs>
        <path id="DejaVuSans-37" d="M 525 4666 
L 3525 4666 
L 3525 4397 
L 1831 0 
L 1172 0 
L 2766 4134 
L 525 4134 
L 525 4666 
z
" transform="scale(0.015625)"/>
       </defs>
       <use xlink:href="#DejaVuSans-37"/>
       <use xlink:href="#DejaVuSans-2e" x="63.623047"/>
       <use xlink:href="#DejaVuSans-35" x="95.410156"/>
      </g>
     </g>
    </g>
    <g id="ytick_7">
     <g id="line2d_13">
      <g>
       <use xlink:href="#mdada118794" x="72" y="142.56" style="stroke: #000000; stroke-width: 0.8"/>
      </g>
     </g>
     <g id="text_13">
      <!-- 10.0 -->
      <g transform="translate(42.734375 146.359219) scale(0.1 -0.1)">
       <use xlink:href="#DejaVuSans-31"/>
       <use xlink:href="#DejaVuSans-30" x="63.623047"/>
       <use xlink:href="#DejaVuSans-2e" x="127.246094"/>
       <use xlink:href="#DejaVuSans-30" x="159.033203"/>
      </g>
     </g>
    </g>
    <g id="ytick_8">
     <g id="line2d_14">
      <g>
       <use xlink:href="#mdada118794" x="72" y="104.76" style="stroke: #000000; stroke-width: 0.8"/>
      </g>
     </g>
     <g id="text_14">
      <!-- 12.5 -->
      <g transform="translate(42.734375 108.559219) scale(0.1 -0.1)">
       <use xlink:href="#DejaVuSans-31"/>
       <use xlink:href="#DejaVuSans-32" x="63.623047"/>
       <use xlink:href="#DejaVuSans-2e" x="127.246094"/>
       <use xlink:href="#DejaVuSans-35" x="159.033203"/>
      </g>
     </g>
    </g>
    <g id="ytick_9">
     <g id="line2d_15">
      <g>
       <use xlink:href="#mdada118794" x="72" y="66.96" style="stroke: #000000; stroke-width: 0.8"/>
      </g>
     </g>
     <g id="text_15">
      <!-- 15.0 -->
      <g transform="translate(42.734375 70.759219) scale(0.1 -0.1)">
       <use xlink:href="#DejaVuSans-31"/>
       <use xlink:href="#DejaVuSans-35" x="63.623047"/>
       <use xlink:href="#DejaVuSans-2e" x="127.246094"/>
       <use xlink:href="#DejaVuSans-30" x="159.033203"/>
      </g>
     </g>
    </g>
   </g>
   <g id="line2d_16">
    <path d="M 92.290909 343.430712 
L 96.349091 343.430712 
L 100.407273 343.4292 
L 104.465455 343.427688 
L 108.523636 343.426176 
L 112.581818 343.424664 
L 116.64 343.42164 
L 120.698182 343.420128 
L 124.756364 343.418616 
L 128.814545 343.417104 
L 132.872727 343.417104 
L 136.930909 343.418616 
L 140.989091 343.420128 
L 145.047273 343.424664 
L 149.105455 343.430712 
L 153.163636 343.439784 
L 157.221818 343.45188 
L 161.28 343.467 
L 165.338182 343.486656 
L 169.396364 343.51236 
L 173.454545 343.541088 
L 177.512727 343.575864 
L 181.570909 343.6182 
L 185.629091 343.666584 
L 189.687273 343.721016 
L 193.745455 343.78452 
L 197.803636 343.855584 
L 201.861818 343.93572 
L 205.92 344.02644 
L 209.978182 344.12472 
L 214.036364 344.233584 
L 218.094545 344.353032 
L 222.152727 344.483064 
L 226.210909 344.62368 
L 230.269091 344.77488 
L 234.327273 344.936664 
L 238.385455 345.109032 
L 242.443636 345.293496 
L 246.501818 345.487032 
L 250.56 345.691152 
L 254.618182 345.905856 
L 258.676364 346.131144 
L 262.734545 346.363992 
L 266.792727 346.605912 
L 270.850909 346.856904 
L 274.909091 347.113944 
L 278.967273 347.380056 
L 283.025455 347.652216 
L 287.083636 347.928912 
L 291.141818 348.211656 
L 295.2 348.500448 
L 299.258182 348.790752 
L 303.316364 349.085592 
L 307.374545 349.383456 
L 311.432727 349.682832 
L 315.490909 349.98372 
L 319.549091 350.28612 
L 323.607273 350.58852 
L 327.665455 350.889408 
L 331.723636 351.190296 
L 335.781818 351.489672 
L 339.84 351.786024 
L 343.898182 352.080864 
L 347.956364 352.37268 
L 352.014545 352.661472 
L 356.072727 352.945728 
L 360.130909 353.22696 
L 364.189091 353.502144 
L 368.247273 353.772792 
L 372.305455 354.038904 
L 376.363636 354.298968 
L 380.421818 354.551472 
L 384.48 354.79944 
L 388.538182 355.04136 
L 392.596364 355.27572 
L 396.654545 355.50252 
L 400.712727 355.72176 
L 404.770909 355.934952 
L 408.829091 356.139072 
L 412.887273 356.337144 
L 416.945455 356.524632 
L 421.003636 356.706072 
L 425.061818 356.87844 
L 429.12 357.041736 
L 433.178182 357.197472 
L 437.236364 357.342624 
L 441.294545 357.480216 
L 445.352727 357.608736 
L 449.410909 357.728184 
L 453.469091 357.837048 
L 457.527273 357.938352 
L 461.585455 358.029072 
L 465.643636 358.11072 
L 469.701818 358.183296 
L 473.76 358.2468 
L 477.818182 358.29972 
L 481.876364 358.343568 
L 485.934545 358.376832 
L 489.992727 358.401024 
L 494.050909 358.416144 
L 498.109091 358.42068 
" clip-path="url(#paba45b3010)" style="fill: none; stroke: #000000; stroke-opacity: 0.5; stroke-linecap: square"/>
   </g>
   <g id="line2d_17">
    <path d="M 92.290909 294.547752 
L 96.349091 294.57648 
L 100.407273 294.65964 
L 104.465455 294.798744 
L 108.523636 294.987744 
L 112.581818 295.22664 
L 116.64 295.509384 
L 120.698182 295.829928 
L 124.756364 296.18676 
L 128.814545 296.573832 
L 132.872727 296.986608 
L 136.930909 297.41904 
L 140.989091 297.868104 
L 145.047273 298.329264 
L 149.105455 298.797984 
L 153.163636 299.272752 
L 157.221818 299.74752 
L 161.28 300.222288 
L 165.338182 300.691008 
L 169.396364 301.15368 
L 173.454545 301.605768 
L 177.512727 302.047272 
L 181.570909 302.475168 
L 185.629091 302.886432 
L 189.687273 303.279552 
L 193.745455 303.654528 
L 197.803636 304.009848 
L 201.861818 304.340976 
L 205.92 304.650936 
L 209.978182 304.935192 
L 214.036364 305.195256 
L 218.094545 305.429616 
L 222.152727 305.635248 
L 226.210909 305.813664 
L 230.269091 305.964864 
L 234.327273 306.085824 
L 238.385455 306.179568 
L 242.443636 306.243072 
L 246.501818 306.276336 
L 250.56 306.280872 
L 254.618182 306.25668 
L 258.676364 306.202248 
L 262.734545 306.119088 
L 266.792727 306.0072 
L 270.850909 305.868096 
L 274.909091 305.698752 
L 278.967273 305.503704 
L 283.025455 305.279928 
L 287.083636 305.030448 
L 291.141818 304.755264 
L 295.2 304.454376 
L 299.258182 304.129296 
L 303.316364 303.778512 
L 307.374545 303.405048 
L 311.432727 303.008904 
L 315.490909 302.591592 
L 319.549091 302.150088 
L 323.607273 301.688928 
L 327.665455 301.208112 
L 331.723636 300.706128 
L 335.781818 300.186 
L 339.84 299.646216 
L 343.898182 299.0898 
L 347.956364 298.51524 
L 352.014545 297.924048 
L 356.072727 297.317736 
L 360.130909 296.694792 
L 364.189091 296.056728 
L 368.247273 295.405056 
L 372.305455 294.739776 
L 376.363636 294.0624 
L 380.421818 293.371416 
L 384.48 292.669848 
L 388.538182 291.957696 
L 392.596364 291.23496 
L 396.654545 290.503152 
L 400.712727 289.763784 
L 404.770909 289.016856 
L 408.829091 288.26388 
L 412.887273 287.506368 
L 416.945455 286.74432 
L 421.003636 285.98076 
L 425.061818 285.2172 
L 429.12 284.45364 
L 433.178182 283.694616 
L 437.236364 282.94164 
L 441.294545 282.197736 
L 445.352727 281.464416 
L 449.410909 280.747728 
L 453.469091 280.050696 
L 457.527273 279.377856 
L 461.585455 278.735256 
L 465.643636 278.128944 
L 469.701818 277.56648 
L 473.76 277.053912 
L 477.818182 276.600312 
L 481.876364 276.214752 
L 485.934545 275.904792 
L 489.992727 275.67648 
L 494.050909 275.537376 
L 498.109091 275.490504 
" clip-path="url(#paba45b3010)" style="fill: none; stroke: #000000; stroke-opacity: 0.5; stroke-linecap: square"/>
   </g>
   <g id="line2d_18">
    <path d="M 92.290909 264.8052 
L 96.349091 264.764376 
L 100.407273 264.63888 
L 104.465455 264.433248 
L 108.523636 264.148992 
L 112.581818 263.789136 
L 116.64 263.358216 
L 120.698182 262.860768 
L 124.756364 262.301328 
L 128.814545 261.684432 
L 132.872727 261.013104 
L 136.930909 260.294904 
L 140.989091 259.532856 
L 145.047273 258.729984 
L 149.105455 257.890824 
L 153.163636 257.0184 
L 157.221818 256.117248 
L 161.28 255.18888 
L 165.338182 254.234808 
L 169.396364 253.26108 
L 173.454545 252.266184 
L 177.512727 251.256168 
L 181.570909 250.22952 
L 185.629091 249.189264 
L 189.687273 248.138424 
L 193.745455 247.077 
L 197.803636 246.008016 
L 201.861818 244.932984 
L 205.92 243.853416 
L 209.978182 242.770824 
L 214.036364 241.685208 
L 218.094545 240.601104 
L 222.152727 239.520024 
L 226.210909 238.441968 
L 230.269091 237.368448 
L 234.327273 236.304 
L 238.385455 235.248624 
L 242.443636 234.206856 
L 246.501818 233.178696 
L 250.56 232.167168 
L 254.618182 231.176808 
L 258.676364 230.21064 
L 262.734545 229.270176 
L 266.792727 228.359952 
L 270.850909 227.482992 
L 274.909091 226.646856 
L 278.967273 225.853056 
L 283.025455 225.10764 
L 287.083636 224.415144 
L 291.141818 223.781616 
L 295.2 223.213104 
L 299.258182 222.712632 
L 303.316364 222.28776 
L 307.374545 222.051888 
L 311.432727 221.890104 
L 315.490909 221.732856 
L 319.549091 221.57712 
L 323.607273 221.42592 
L 327.665455 221.521176 
L 331.723636 221.702616 
L 335.781818 221.971752 
L 339.84 222.321024 
L 343.898182 222.74892 
L 347.956364 223.24788 
L 352.014545 223.813368 
L 356.072727 224.440848 
L 360.130909 225.124272 
L 364.189091 225.85608 
L 368.247273 226.633248 
L 372.305455 227.449728 
L 376.363636 228.300984 
L 380.421818 229.18248 
L 384.48 230.08968 
L 388.538182 231.01956 
L 392.596364 231.966072 
L 396.654545 232.929216 
L 400.712727 233.902944 
L 404.770909 234.885744 
L 408.829091 235.874592 
L 412.887273 236.866464 
L 416.945455 237.858336 
L 421.003636 238.847184 
L 425.061818 239.829984 
L 429.12 240.803712 
L 433.178182 241.768368 
L 437.236364 242.716392 
L 441.294545 243.646272 
L 445.352727 244.553472 
L 449.410909 245.434968 
L 453.469091 246.286224 
L 457.527273 247.09968 
L 461.585455 247.8708 
L 465.643636 248.593536 
L 469.701818 249.260328 
L 473.76 249.862104 
L 477.818182 250.392816 
L 481.876364 250.840368 
L 485.934545 251.200224 
L 489.992727 251.463312 
L 494.050909 251.623584 
L 498.109091 251.676504 
" clip-path="url(#paba45b3010)" style="fill: none; stroke: #000000; stroke-opacity: 0.5; stroke-linecap: square"/>
   </g>
   <g id="line2d_19">
    <path d="M 92.290909 228.830184 
L 96.349091 228.825648 
L 100.407273 228.816576 
L 104.465455 228.799944 
L 108.523636 228.777264 
L 112.581818 228.747024 
L 116.64 228.710736 
L 120.698182 228.6684 
L 124.756364 228.618504 
L 128.814545 228.56256 
L 132.872727 228.500568 
L 136.930909 228.432528 
L 140.989091 228.35844 
L 145.047273 228.278304 
L 149.105455 228.190608 
L 153.163636 228.098376 
L 157.221818 228.000096 
L 161.28 227.89728 
L 165.338182 227.786904 
L 169.396364 227.671992 
L 173.454545 227.552544 
L 177.512727 227.427048 
L 181.570909 227.297016 
L 185.629091 227.162448 
L 189.687273 227.023344 
L 193.745455 226.879704 
L 197.803636 226.731528 
L 201.861818 226.580328 
L 205.92 226.424592 
L 209.978182 226.265832 
L 214.036364 226.102536 
L 218.094545 225.937728 
L 222.152727 225.768384 
L 226.210909 225.597528 
L 230.269091 225.423648 
L 234.327273 225.248256 
L 238.385455 225.071352 
L 242.443636 224.892936 
L 246.501818 224.713008 
L 250.56 224.531568 
L 254.618182 224.348616 
L 258.676364 224.167176 
L 262.734545 223.984224 
L 266.792727 223.802784 
L 270.850909 223.621344 
L 274.909091 223.439904 
L 278.967273 223.259976 
L 283.025455 223.08156 
L 287.083636 222.904656 
L 291.141818 222.729264 
L 295.2 222.555384 
L 299.258182 222.38604 
L 303.316364 222.218208 
L 307.374545 221.943024 
L 311.432727 221.681448 
L 315.490909 221.507568 
L 319.549091 221.421384 
L 323.607273 221.42592 
L 327.665455 221.279256 
L 331.723636 221.135616 
L 335.781818 220.998024 
L 339.84 220.863456 
L 343.898182 220.733424 
L 347.956364 220.607928 
L 352.014545 220.486968 
L 356.072727 220.372056 
L 360.130909 220.260168 
L 364.189091 220.154328 
L 368.247273 220.053024 
L 372.305455 219.956256 
L 376.363636 219.864024 
L 380.421818 219.776328 
L 384.48 219.693168 
L 388.538182 219.616056 
L 392.596364 219.541968 
L 396.654545 219.472416 
L 400.712727 219.4074 
L 404.770909 219.34692 
L 408.829091 219.289464 
L 412.887273 219.236544 
L 416.945455 219.186648 
L 421.003636 219.141288 
L 425.061818 219.098952 
L 429.12 219.05964 
L 433.178182 219.023352 
L 437.236364 218.990088 
L 441.294545 218.959848 
L 445.352727 218.932632 
L 449.410909 218.90844 
L 453.469091 218.88576 
L 457.527273 218.866104 
L 461.585455 218.84796 
L 465.643636 218.83284 
L 469.701818 218.819232 
L 473.76 218.808648 
L 477.818182 218.798064 
L 481.876364 218.790504 
L 485.934545 218.784456 
L 489.992727 218.77992 
L 494.050909 218.778408 
L 498.109091 218.776896 
" clip-path="url(#paba45b3010)" style="fill: none; stroke: #000000; stroke-opacity: 0.5; stroke-linecap: square"/>
   </g>
   <g id="line2d_20">
    <path d="M 92.290909 172.538424 
L 96.349091 172.533888 
L 100.407273 172.518768 
L 104.465455 172.494576 
L 108.523636 172.461312 
L 112.581818 172.418976 
L 116.64 172.367568 
L 120.698182 172.307088 
L 124.756364 172.239048 
L 128.814545 172.161936 
L 132.872727 172.077264 
L 136.930909 171.986544 
L 140.989091 171.888264 
L 145.047273 171.783936 
L 149.105455 171.675072 
L 153.163636 171.561672 
L 157.221818 171.445248 
L 161.28 171.3258 
L 165.338182 171.206352 
L 169.396364 171.086904 
L 173.454545 170.97048 
L 177.512727 170.858592 
L 181.570909 170.752752 
L 185.629091 170.655984 
L 189.687273 170.571312 
L 193.745455 170.50176 
L 197.803636 170.451864 
L 201.861818 170.424648 
L 205.92 170.423136 
L 209.978182 170.454888 
L 214.036364 170.522928 
L 218.094545 170.633304 
L 222.152727 170.790552 
L 226.210909 170.997696 
L 230.269091 171.25776 
L 234.327273 171.572256 
L 238.385455 171.942696 
L 242.443636 172.364544 
L 246.501818 172.8378 
L 250.56 173.354904 
L 254.618182 173.909808 
L 258.676364 174.49344 
L 262.734545 175.099752 
L 266.792727 175.719672 
L 270.850909 176.344128 
L 274.909091 176.964048 
L 278.967273 177.571872 
L 283.025455 178.157016 
L 287.083636 178.71192 
L 291.141818 179.230536 
L 295.2 179.700768 
L 299.258182 180.119592 
L 303.316364 180.476424 
L 307.374545 180.76824 
L 311.432727 180.98748 
L 315.490909 181.129608 
L 319.549091 181.193112 
L 323.607273 181.17648 
L 327.665455 181.079712 
L 331.723636 180.901296 
L 335.781818 180.64728 
L 339.84 180.319176 
L 343.898182 179.92152 
L 347.956364 179.458848 
L 352.014545 178.93872 
L 356.072727 178.367184 
L 360.130909 177.750288 
L 364.189091 177.092568 
L 368.247273 176.401584 
L 372.305455 175.684896 
L 376.363636 174.94704 
L 380.421818 174.194064 
L 384.48 173.432016 
L 388.538182 172.666944 
L 392.596364 171.903384 
L 396.654545 171.150408 
L 400.712727 170.409528 
L 404.770909 169.688304 
L 408.829091 168.98976 
L 412.887273 168.321456 
L 416.945455 167.686416 
L 421.003636 167.086152 
L 425.061818 166.526712 
L 429.12 166.009608 
L 433.178182 165.533328 
L 437.236364 165.100896 
L 441.294545 164.709288 
L 445.352727 164.360016 
L 449.410909 164.048544 
L 453.469091 163.774872 
L 457.527273 163.534464 
L 461.585455 163.32732 
L 465.643636 163.148904 
L 469.701818 162.997704 
L 473.76 162.870696 
L 477.818182 162.766368 
L 481.876364 162.68472 
L 485.934545 162.621216 
L 489.992727 162.577368 
L 494.050909 162.551664 
L 498.109091 162.542592 
" clip-path="url(#paba45b3010)" style="fill: none; stroke: #000000; stroke-opacity: 0.5; stroke-linecap: square"/>
   </g>
   <g id="line2d_21">
    <path d="M 92.290909 122.981112 
L 96.349091 123.041592 
L 100.407273 123.218496 
L 104.465455 123.504264 
L 108.523636 123.892848 
L 112.581818 124.367616 
L 116.64 124.919496 
L 120.698182 125.533368 
L 124.756364 126.198648 
L 128.814545 126.906264 
L 132.872727 127.645632 
L 136.930909 128.410704 
L 140.989091 129.487248 
L 145.047273 130.734648 
L 149.105455 131.980536 
L 153.163636 133.220376 
L 157.221818 134.454168 
L 161.28 135.678888 
L 165.338182 136.893024 
L 169.396364 138.093552 
L 173.454545 139.27896 
L 177.512727 140.446224 
L 181.570909 141.593832 
L 185.629091 142.717248 
L 189.687273 143.813448 
L 193.745455 144.88092 
L 197.803636 145.915128 
L 201.861818 146.910024 
L 205.92 147.862584 
L 209.978182 148.76676 
L 214.036364 149.619528 
L 218.094545 150.413328 
L 222.152727 151.145136 
L 226.210909 151.807392 
L 230.269091 152.400096 
L 234.327273 152.918712 
L 238.385455 153.36324 
L 242.443636 153.73368 
L 246.501818 154.034568 
L 250.56 154.267416 
L 254.618182 154.438272 
L 258.676364 154.553184 
L 262.734545 154.6182 
L 266.792727 154.639368 
L 270.850909 154.622736 
L 274.909091 154.57284 
L 278.967273 154.49724 
L 283.025455 154.39896 
L 287.083636 154.284048 
L 291.141818 154.154016 
L 295.2 154.014912 
L 299.258182 153.866736 
L 303.316364 153.714024 
L 307.374545 153.558288 
L 311.432727 153.402552 
L 315.490909 153.246816 
L 319.549091 153.092592 
L 323.607273 152.93988 
L 327.665455 152.980704 
L 331.723636 152.995824 
L 335.781818 152.98524 
L 339.84 152.950464 
L 343.898182 152.891496 
L 347.956364 152.806824 
L 352.014545 152.69796 
L 356.072727 152.564904 
L 360.130909 152.409168 
L 364.189091 152.227728 
L 368.247273 152.023608 
L 372.305455 151.79832 
L 376.363636 151.54884 
L 380.421818 151.278192 
L 384.48 150.987888 
L 388.538182 150.676416 
L 392.596364 150.345288 
L 396.654545 150.09732 
L 400.712727 149.820624 
L 404.770909 149.512176 
L 408.829091 149.168952 
L 412.887273 148.786416 
L 416.945455 148.363056 
L 421.003636 147.895848 
L 425.061818 147.384792 
L 429.12 146.829888 
L 433.178182 146.229624 
L 437.236364 145.76544 
L 441.294545 145.307304 
L 445.352727 144.853704 
L 449.410909 144.407664 
L 453.469091 143.97372 
L 457.527273 143.553384 
L 461.585455 143.151192 
L 465.643636 142.774704 
L 469.701818 142.425432 
L 473.76 142.109424 
L 477.818182 141.832728 
L 481.876364 141.598368 
L 485.934545 141.41088 
L 489.992727 141.2748 
L 494.050909 141.19164 
L 498.109091 141.164424 
" clip-path="url(#paba45b3010)" style="fill: none; stroke: #000000; stroke-opacity: 0.5; stroke-linecap: square"/>
   </g>
   <g id="line2d_22">
    <path d="M 92.290909 117.828216 
L 96.349091 117.99756 
L 100.407273 118.47384 
L 104.465455 119.196576 
L 108.523636 120.093192 
L 112.581818 121.110768 
L 116.64 122.209992 
L 120.698182 123.363648 
L 124.756364 124.555104 
L 128.814545 125.76924 
L 132.872727 127.00152 
L 136.930909 128.24136 
L 140.989091 129.19392 
L 145.047273 129.990744 
L 149.105455 130.79664 
L 153.163636 131.60556 
L 157.221818 132.417504 
L 161.28 133.227936 
L 165.338182 134.035344 
L 169.396364 134.836704 
L 173.454545 135.630504 
L 177.512727 136.416744 
L 181.570909 137.1924 
L 185.629091 137.95596 
L 189.687273 138.708936 
L 193.745455 139.448304 
L 197.803636 140.172552 
L 201.861818 140.883192 
L 205.92 141.5772 
L 209.978182 142.256088 
L 214.036364 142.918344 
L 218.094545 143.563968 
L 222.152727 144.189936 
L 226.210909 144.799272 
L 230.269091 145.388952 
L 234.327273 145.960488 
L 238.385455 146.510856 
L 242.443636 147.041568 
L 246.501818 147.552624 
L 250.56 148.042512 
L 254.618182 148.511232 
L 258.676364 148.958784 
L 262.734545 149.383656 
L 266.792727 149.785848 
L 270.850909 150.166872 
L 274.909091 150.523704 
L 278.967273 150.857856 
L 283.025455 151.169328 
L 287.083636 151.455096 
L 291.141818 151.718184 
L 295.2 151.95708 
L 299.258182 152.171784 
L 303.316364 152.362296 
L 307.374545 152.528616 
L 311.432727 152.669232 
L 315.490909 152.784144 
L 319.549091 152.874864 
L 323.607273 152.93988 
L 327.665455 152.791704 
L 331.723636 152.646552 
L 335.781818 152.504424 
L 339.84 152.366832 
L 343.898182 152.230752 
L 347.956364 152.099208 
L 352.014545 151.967664 
L 356.072727 151.83612 
L 360.130909 151.703064 
L 364.189091 151.566984 
L 368.247273 151.42788 
L 372.305455 151.279704 
L 376.363636 151.123968 
L 380.421818 150.954624 
L 384.48 150.77016 
L 388.538182 150.569064 
L 392.596364 150.345288 
L 396.654545 149.996016 
L 400.712727 149.6286 
L 404.770909 149.244552 
L 408.829091 148.846896 
L 412.887273 148.43412 
L 416.945455 148.009248 
L 421.003636 147.573792 
L 425.061818 147.129264 
L 429.12 146.678688 
L 433.178182 146.222064 
L 437.236364 145.588536 
L 441.294545 144.908136 
L 445.352727 144.194472 
L 449.410909 143.450568 
L 453.469091 142.685496 
L 457.527273 141.905304 
L 461.585455 141.122088 
L 465.643636 140.343408 
L 469.701818 139.584384 
L 473.76 138.860136 
L 477.818182 138.188808 
L 481.876364 137.591568 
L 485.934545 137.089584 
L 489.992727 136.710072 
L 494.050909 136.472688 
L 498.109091 136.39104 
" clip-path="url(#paba45b3010)" style="fill: none; stroke: #000000; stroke-opacity: 0.5; stroke-linecap: square"/>
   </g>
   <g id="line2d_23">
    <path d="M 92.290909 106.485192 
L 96.349091 106.312824 
L 100.407273 105.824448 
L 104.465455 105.08508 
L 108.523636 104.16276 
L 112.581818 103.113432 
L 116.64 101.976408 
L 120.698182 100.777392 
L 124.756364 99.53604 
L 128.814545 98.264448 
L 132.872727 96.970176 
L 136.930909 95.662296 
L 140.989091 94.345344 
L 145.047273 93.022344 
L 149.105455 91.697832 
L 153.163636 90.376344 
L 157.221818 89.059392 
L 161.28 87.75 
L 165.338182 86.452704 
L 169.396364 85.170528 
L 173.454545 83.904984 
L 177.512727 82.66212 
L 181.570909 81.767016 
L 185.629091 81.757944 
L 189.687273 81.767016 
L 193.745455 81.791208 
L 197.803636 81.832032 
L 201.861818 81.889488 
L 205.92 81.968112 
L 209.978182 82.066392 
L 214.036364 82.18584 
L 218.094545 82.327968 
L 222.152727 82.492776 
L 226.210909 82.678752 
L 230.269091 82.885896 
L 234.327273 83.112696 
L 238.385455 83.356128 
L 242.443636 83.61468 
L 246.501818 83.883816 
L 250.56 84.162024 
L 254.618182 84.444768 
L 258.676364 84.729024 
L 262.734545 85.010256 
L 266.792727 85.28544 
L 270.850909 85.55004 
L 274.909091 85.801032 
L 278.967273 86.035392 
L 283.025455 86.250096 
L 287.083636 86.44212 
L 291.141818 86.609952 
L 295.2 86.749056 
L 299.258182 86.862456 
L 303.316364 86.945616 
L 307.374545 86.998536 
L 311.432727 87.021216 
L 315.490909 87.01668 
L 319.549091 86.983416 
L 323.607273 86.92596 
L 327.665455 86.845824 
L 331.723636 86.749056 
L 335.781818 86.641704 
L 339.84 86.529816 
L 343.898182 86.425488 
L 347.956364 86.340816 
L 352.014545 86.287896 
L 356.072727 86.284872 
L 360.130909 86.349888 
L 364.189091 86.501088 
L 368.247273 86.758128 
L 372.305455 87.133104 
L 376.363636 87.633576 
L 380.421818 88.262568 
L 384.48 89.01252 
L 388.538182 89.871336 
L 392.596364 90.82692 
L 396.654545 91.865664 
L 400.712727 92.970936 
L 404.770909 94.13064 
L 408.829091 95.33268 
L 412.887273 96.567984 
L 416.945455 97.828992 
L 421.003636 99.106632 
L 425.061818 100.394856 
L 429.12 101.687616 
L 433.178182 102.981888 
L 437.236364 104.270112 
L 441.294545 105.549264 
L 445.352727 106.813296 
L 449.410909 108.057672 
L 453.469091 109.276344 
L 457.527273 110.461752 
L 461.585455 111.607848 
L 465.643636 112.704048 
L 469.701818 113.738256 
L 473.76 114.698376 
L 477.818182 115.566264 
L 481.876364 116.323776 
L 485.934545 116.94672 
L 489.992727 117.413928 
L 494.050909 117.704232 
L 498.109091 117.802512 
" clip-path="url(#paba45b3010)" style="fill: none; stroke: #000000; stroke-opacity: 0.5; stroke-linecap: square"/>
   </g>
   <g id="patch_3">
    <path d="M 72 384.48 
L 72 51.84 
" style="fill: none; stroke: #000000; stroke-width: 0.8; stroke-linejoin: miter; stroke-linecap: square"/>
   </g>
   <g id="patch_4">
    <path d="M 518.4 384.48 
L 518.4 51.84 
" style="fill: none; stroke: #000000; stroke-width: 0.8; stroke-linejoin: miter; stroke-linecap: square"/>
   </g>
   <g id="patch_5">
    <path d="M 72 384.48 
L 518.4 384.48 
" style="fill: none; stroke: #000000; stroke-width: 0.8; stroke-linejoin: miter; stroke-linecap: square"/>
   </g>
   <g id="patch_6">
    <path d="M 72 51.84 
L 518.4 51.84 
" style="fill: none; stroke: #000000; stroke-width: 0.8; stroke-linejoin: miter; stroke-linecap: square"/>
   </g>
  </g>
 </g>
 <defs>
  <clipPath id="paba45b3010">
   <rect x="72" y="51.84" width="446.4" height="332.64"/>
  </clipPath>
 </defs>
</svg>
