<?xml version="1.0" encoding="utf-8" standalone="no"?>
<!DOCTYPE svg PUBLIC "-//W3C//DTD SVG 1.1//EN"
  "http://www.w3.org/Graphics/SVG/1.1/DTD/svg11.dtd">
<svg xmlns:xlink="http://www.w3.org/1999/xlink" width="576pt" height="432pt" viewBox="0 0 576 432" xmlns="http://www.w3.org/2000/svg" version="1.1">
 <metadata>
  <rdf:RDF xmlns:dc="http://purl.org/dc/elements/1.1/" xmlns:cc="http://creativecommons.org/ns#" xmlns:rdf="http://www.w3.org/1999/02/22-rdf-syntax-ns#">
   <cc:Work>
    <dc:type rdf:resource="http://purl.org/dc/dcmitype/StillImage"/>
    <dc:date>2023-05-04T13:06:56.752120</dc:date>
    <dc:format>image/svg+xml</dc:format>
    <dc:creator>
     <cc:Agent>
      <dc:title>Matplotlib v3.7.1, https://matplotlib.org/</dc:title>
     </cc:Agent>
    </dc:creator>
   </cc:Work>
  </rdf:RDF>
 </metadata>
 <defs>
  <style type="text/css">*{stroke-linejoin: round; stroke-linecap: butt}</style>
 </defs>
 <g id="figure_1">
  <g id="patch_1">
   <path d="M 0 432 
L 576 432 
L 576 0 
L 0 0 
z
" style="fill: #ffffff"/>
  </g>
  <g id="axes_1">
   <g id="patch_2">
    <path d="M 72 384.48 
L 518.4 384.48 
L 518.4 51.84 
L 72 51.84 
z
" style="fill: #ffffff"/>
   </g>
   <g id="matplotlib.axis_1">
    <g id="xtick_1">
     <g id="line2d_1">
      <defs>
       <path id="mc35fb25b85" d="M 0 0 
L 0 3.5 
" style="stroke: #000000; stroke-width: 0.8"/>
      </defs>
      <g>
       <use xlink:href="#mc35fb25b85" x="92.290909" y="384.48" style="stroke: #000000; stroke-width: 0.8"/>
      </g>
     </g>
     <g id="text_1">
      <!-- 0.0 -->
      <g transform="translate(84.339347 399.078438) scale(0.1 -0.1)">
       <defs>
        <path id="DejaVuSans-30" d="M 2034 4250 
Q 1547 4250 1301 3770 
Q 1056 3291 1056 2328 
Q 1056 1369 1301 889 
Q 1547 409 2034 409 
Q 2525 409 2770 889 
Q 3016 1369 3016 2328 
Q 3016 3291 2770 3770 
Q 2525 4250 2034 4250 
z
M 2034 4750 
Q 2819 4750 3233 4129 
Q 3647 3509 3647 2328 
Q 3647 1150 3233 529 
Q 2819 -91 2034 -91 
Q 1250 -91 836 529 
Q 422 1150 422 2328 
Q 422 3509 836 4129 
Q 1250 4750 2034 4750 
z
" transform="scale(0.015625)"/>
        <path id="DejaVuSans-2e" d="M 684 794 
L 1344 794 
L 1344 0 
L 684 0 
L 684 794 
z
" transform="scale(0.015625)"/>
       </defs>
       <use xlink:href="#DejaVuSans-30"/>
       <use xlink:href="#DejaVuSans-2e" x="63.623047"/>
       <use xlink:href="#DejaVuSans-30" x="95.410156"/>
      </g>
     </g>
    </g>
    <g id="xtick_2">
     <g id="line2d_2">
      <g>
       <use xlink:href="#mc35fb25b85" x="173.454545" y="384.48" style="stroke: #000000; stroke-width: 0.8"/>
      </g>
     </g>
     <g id="text_2">
      <!-- 0.2 -->
      <g transform="translate(165.502983 399.078438) scale(0.1 -0.1)">
       <defs>
        <path id="DejaVuSans-32" d="M 1228 531 
L 3431 531 
L 3431 0 
L 469 0 
L 469 531 
Q 828 903 1448 1529 
Q 2069 2156 2228 2338 
Q 2531 2678 2651 2914 
Q 2772 3150 2772 3378 
Q 2772 3750 2511 3984 
Q 2250 4219 1831 4219 
Q 1534 4219 1204 4116 
Q 875 4013 500 3803 
L 500 4441 
Q 881 4594 1212 4672 
Q 1544 4750 1819 4750 
Q 2544 4750 2975 4387 
Q 3406 4025 3406 3419 
Q 3406 3131 3298 2873 
Q 3191 2616 2906 2266 
Q 2828 2175 2409 1742 
Q 1991 1309 1228 531 
z
" transform="scale(0.015625)"/>
       </defs>
       <use xlink:href="#DejaVuSans-30"/>
       <use xlink:href="#DejaVuSans-2e" x="63.623047"/>
       <use xlink:href="#DejaVuSans-32" x="95.410156"/>
      </g>
     </g>
    </g>
    <g id="xtick_3">
     <g id="line2d_3">
      <g>
       <use xlink:href="#mc35fb25b85" x="254.618182" y="384.48" style="stroke: #000000; stroke-width: 0.8"/>
      </g>
     </g>
     <g id="text_3">
      <!-- 0.4 -->
      <g transform="translate(246.666619 399.078438) scale(0.1 -0.1)">
       <defs>
        <path id="DejaVuSans-34" d="M 2419 4116 
L 825 1625 
L 2419 1625 
L 2419 4116 
z
M 2253 4666 
L 3047 4666 
L 3047 1625 
L 3713 1625 
L 3713 1100 
L 3047 1100 
L 3047 0 
L 2419 0 
L 2419 1100 
L 313 1100 
L 313 1709 
L 2253 4666 
z
" transform="scale(0.015625)"/>
       </defs>
       <use xlink:href="#DejaVuSans-30"/>
       <use xlink:href="#DejaVuSans-2e" x="63.623047"/>
       <use xlink:href="#DejaVuSans-34" x="95.410156"/>
      </g>
     </g>
    </g>
    <g id="xtick_4">
     <g id="line2d_4">
      <g>
       <use xlink:href="#mc35fb25b85" x="335.781818" y="384.48" style="stroke: #000000; stroke-width: 0.8"/>
      </g>
     </g>
     <g id="text_4">
      <!-- 0.6 -->
      <g transform="translate(327.830256 399.078438) scale(0.1 -0.1)">
       <defs>
        <path id="DejaVuSans-36" d="M 2113 2584 
Q 1688 2584 1439 2293 
Q 1191 2003 1191 1497 
Q 1191 994 1439 701 
Q 1688 409 2113 409 
Q 2538 409 2786 701 
Q 3034 994 3034 1497 
Q 3034 2003 2786 2293 
Q 2538 2584 2113 2584 
z
M 3366 4563 
L 3366 3988 
Q 3128 4100 2886 4159 
Q 2644 4219 2406 4219 
Q 1781 4219 1451 3797 
Q 1122 3375 1075 2522 
Q 1259 2794 1537 2939 
Q 1816 3084 2150 3084 
Q 2853 3084 3261 2657 
Q 3669 2231 3669 1497 
Q 3669 778 3244 343 
Q 2819 -91 2113 -91 
Q 1303 -91 875 529 
Q 447 1150 447 2328 
Q 447 3434 972 4092 
Q 1497 4750 2381 4750 
Q 2619 4750 2861 4703 
Q 3103 4656 3366 4563 
z
" transform="scale(0.015625)"/>
       </defs>
       <use xlink:href="#DejaVuSans-30"/>
       <use xlink:href="#DejaVuSans-2e" x="63.623047"/>
       <use xlink:href="#DejaVuSans-36" x="95.410156"/>
      </g>
     </g>
    </g>
    <g id="xtick_5">
     <g id="line2d_5">
      <g>
       <use xlink:href="#mc35fb25b85" x="416.945455" y="384.48" style="stroke: #000000; stroke-width: 0.8"/>
      </g>
     </g>
     <g id="text_5">
      <!-- 0.8 -->
      <g transform="translate(408.993892 399.078438) scale(0.1 -0.1)">
       <defs>
        <path id="DejaVuSans-38" d="M 2034 2216 
Q 1584 2216 1326 1975 
Q 1069 1734 1069 1313 
Q 1069 891 1326 650 
Q 1584 409 2034 409 
Q 2484 409 2743 651 
Q 3003 894 3003 1313 
Q 3003 1734 2745 1975 
Q 2488 2216 2034 2216 
z
M 1403 2484 
Q 997 2584 770 2862 
Q 544 3141 544 3541 
Q 544 4100 942 4425 
Q 1341 4750 2034 4750 
Q 2731 4750 3128 4425 
Q 3525 4100 3525 3541 
Q 3525 3141 3298 2862 
Q 3072 2584 2669 2484 
Q 3125 2378 3379 2068 
Q 3634 1759 3634 1313 
Q 3634 634 3220 271 
Q 2806 -91 2034 -91 
Q 1263 -91 848 271 
Q 434 634 434 1313 
Q 434 1759 690 2068 
Q 947 2378 1403 2484 
z
M 1172 3481 
Q 1172 3119 1398 2916 
Q 1625 2713 2034 2713 
Q 2441 2713 2670 2916 
Q 2900 3119 2900 3481 
Q 2900 3844 2670 4047 
Q 2441 4250 2034 4250 
Q 1625 4250 1398 4047 
Q 1172 3844 1172 3481 
z
" transform="scale(0.015625)"/>
       </defs>
       <use xlink:href="#DejaVuSans-30"/>
       <use xlink:href="#DejaVuSans-2e" x="63.623047"/>
       <use xlink:href="#DejaVuSans-38" x="95.410156"/>
      </g>
     </g>
    </g>
    <g id="xtick_6">
     <g id="line2d_6">
      <g>
       <use xlink:href="#mc35fb25b85" x="498.109091" y="384.48" style="stroke: #000000; stroke-width: 0.8"/>
      </g>
     </g>
     <g id="text_6">
      <!-- 1.0 -->
      <g transform="translate(490.157528 399.078438) scale(0.1 -0.1)">
       <defs>
        <path id="DejaVuSans-31" d="M 794 531 
L 1825 531 
L 1825 4091 
L 703 3866 
L 703 4441 
L 1819 4666 
L 2450 4666 
L 2450 531 
L 3481 531 
L 3481 0 
L 794 0 
L 794 531 
z
" transform="scale(0.015625)"/>
       </defs>
       <use xlink:href="#DejaVuSans-31"/>
       <use xlink:href="#DejaVuSans-2e" x="63.623047"/>
       <use xlink:href="#DejaVuSans-30" x="95.410156"/>
      </g>
     </g>
    </g>
   </g>
   <g id="matplotlib.axis_2">
    <g id="ytick_1">
     <g id="line2d_7">
      <defs>
       <path id="mfcd48f0fae" d="M 0 0 
L -3.5 0 
" style="stroke: #000000; stroke-width: 0.8"/>
      </defs>
      <g>
       <use xlink:href="#mfcd48f0fae" x="72" y="369.36" style="stroke: #000000; stroke-width: 0.8"/>
      </g>
     </g>
     <g id="text_7">
      <!-- −5.0 -->
      <g transform="translate(40.717187 373.159219) scale(0.1 -0.1)">
       <defs>
        <path id="DejaVuSans-2212" d="M 678 2272 
L 4684 2272 
L 4684 1741 
L 678 1741 
L 678 2272 
z
" transform="scale(0.015625)"/>
        <path id="DejaVuSans-35" d="M 691 4666 
L 3169 4666 
L 3169 4134 
L 1269 4134 
L 1269 2991 
Q 1406 3038 1543 3061 
Q 1681 3084 1819 3084 
Q 2600 3084 3056 2656 
Q 3513 2228 3513 1497 
Q 3513 744 3044 326 
Q 2575 -91 1722 -91 
Q 1428 -91 1123 -41 
Q 819 9 494 109 
L 494 744 
Q 775 591 1075 516 
Q 1375 441 1709 441 
Q 2250 441 2565 725 
Q 2881 1009 2881 1497 
Q 2881 1984 2565 2268 
Q 2250 2553 1709 2553 
Q 1456 2553 1204 2497 
Q 953 2441 691 2322 
L 691 4666 
z
" transform="scale(0.015625)"/>
       </defs>
       <use xlink:href="#DejaVuSans-2212"/>
       <use xlink:href="#DejaVuSans-35" x="83.789062"/>
       <use xlink:href="#DejaVuSans-2e" x="147.412109"/>
       <use xlink:href="#DejaVuSans-30" x="179.199219"/>
      </g>
     </g>
    </g>
    <g id="ytick_2">
     <g id="line2d_8">
      <g>
       <use xlink:href="#mfcd48f0fae" x="72" y="331.56" style="stroke: #000000; stroke-width: 0.8"/>
      </g>
     </g>
     <g id="text_8">
      <!-- −2.5 -->
      <g transform="translate(40.717187 335.359219) scale(0.1 -0.1)">
       <use xlink:href="#DejaVuSans-2212"/>
       <use xlink:href="#DejaVuSans-32" x="83.789062"/>
       <use xlink:href="#DejaVuSans-2e" x="147.412109"/>
       <use xlink:href="#DejaVuSans-35" x="179.199219"/>
      </g>
     </g>
    </g>
    <g id="ytick_3">
     <g id="line2d_9">
      <g>
       <use xlink:href="#mfcd48f0fae" x="72" y="293.76" style="stroke: #000000; stroke-width: 0.8"/>
      </g>
     </g>
     <g id="text_9">
      <!-- 0.0 -->
      <g transform="translate(49.096875 297.559219) scale(0.1 -0.1)">
       <use xlink:href="#DejaVuSans-30"/>
       <use xlink:href="#DejaVuSans-2e" x="63.623047"/>
       <use xlink:href="#DejaVuSans-30" x="95.410156"/>
      </g>
     </g>
    </g>
    <g id="ytick_4">
     <g id="line2d_10">
      <g>
       <use xlink:href="#mfcd48f0fae" x="72" y="255.96" style="stroke: #000000; stroke-width: 0.8"/>
      </g>
     </g>
     <g id="text_10">
      <!-- 2.5 -->
      <g transform="translate(49.096875 259.759219) scale(0.1 -0.1)">
       <use xlink:href="#DejaVuSans-32"/>
       <use xlink:href="#DejaVuSans-2e" x="63.623047"/>
       <use xlink:href="#DejaVuSans-35" x="95.410156"/>
      </g>
     </g>
    </g>
    <g id="ytick_5">
     <g id="line2d_11">
      <g>
       <use xlink:href="#mfcd48f0fae" x="72" y="218.16" style="stroke: #000000; stroke-width: 0.8"/>
      </g>
     </g>
     <g id="text_11">
      <!-- 5.0 -->
      <g transform="translate(49.096875 221.959219) scale(0.1 -0.1)">
       <use xlink:href="#DejaVuSans-35"/>
       <use xlink:href="#DejaVuSans-2e" x="63.623047"/>
       <use xlink:href="#DejaVuSans-30" x="95.410156"/>
      </g>
     </g>
    </g>
    <g id="ytick_6">
     <g id="line2d_12">
      <g>
       <use xlink:href="#mfcd48f0fae" x="72" y="180.36" style="stroke: #000000; stroke-width: 0.8"/>
      </g>
     </g>
     <g id="text_12">
      <!-- 7.5 -->
      <g transform="translate(49.096875 184.159219) scale(0.1 -0.1)">
       <defs>
        <path id="DejaVuSans-37" d="M 525 4666 
L 3525 4666 
L 3525 4397 
L 1831 0 
L 1172 0 
L 2766 4134 
L 525 4134 
L 525 4666 
z
" transform="scale(0.015625)"/>
       </defs>
       <use xlink:href="#DejaVuSans-37"/>
       <use xlink:href="#DejaVuSans-2e" x="63.623047"/>
       <use xlink:href="#DejaVuSans-35" x="95.410156"/>
      </g>
     </g>
    </g>
    <g id="ytick_7">
     <g id="line2d_13">
      <g>
       <use xlink:href="#mfcd48f0fae" x="72" y="142.56" style="stroke: #000000; stroke-width: 0.8"/>
      </g>
     </g>
     <g id="text_13">
      <!-- 10.0 -->
      <g transform="translate(42.734375 146.359219) scale(0.1 -0.1)">
       <use xlink:href="#DejaVuSans-31"/>
       <use xlink:href="#DejaVuSans-30" x="63.623047"/>
       <use xlink:href="#DejaVuSans-2e" x="127.246094"/>
       <use xlink:href="#DejaVuSans-30" x="159.033203"/>
      </g>
     </g>
    </g>
    <g id="ytick_8">
     <g id="line2d_14">
      <g>
       <use xlink:href="#mfcd48f0fae" x="72" y="104.76" style="stroke: #000000; stroke-width: 0.8"/>
      </g>
     </g>
     <g id="text_14">
      <!-- 12.5 -->
      <g transform="translate(42.734375 108.559219) scale(0.1 -0.1)">
       <use xlink:href="#DejaVuSans-31"/>
       <use xlink:href="#DejaVuSans-32" x="63.623047"/>
       <use xlink:href="#DejaVuSans-2e" x="127.246094"/>
       <use xlink:href="#DejaVuSans-35" x="159.033203"/>
      </g>
     </g>
    </g>
    <g id="ytick_9">
     <g id="line2d_15">
      <g>
       <use xlink:href="#mfcd48f0fae" x="72" y="66.96" style="stroke: #000000; stroke-width: 0.8"/>
      </g>
     </g>
     <g id="text_15">
      <!-- 15.0 -->
      <g transform="translate(42.734375 70.759219) scale(0.1 -0.1)">
       <use xlink:href="#DejaVuSans-31"/>
       <use xlink:href="#DejaVuSans-35" x="63.623047"/>
       <use xlink:href="#DejaVuSans-2e" x="127.246094"/>
       <use xlink:href="#DejaVuSans-30" x="159.033203"/>
      </g>
     </g>
    </g>
   </g>
   <g id="line2d_16">
    <path d="M 92.290909 323.325648 
L 96.349091 323.346816 
L 100.407273 323.411832 
L 104.465455 323.519184 
L 108.523636 323.665848 
L 112.581818 323.850312 
L 116.64 324.069552 
L 120.698182 324.320544 
L 124.756364 324.600264 
L 128.814545 324.905688 
L 132.872727 325.236816 
L 136.930909 325.5876 
L 140.989091 325.95804 
L 145.047273 326.346624 
L 149.105455 326.750328 
L 153.163636 327.169152 
L 157.221818 327.600072 
L 161.28 328.043088 
L 165.338182 328.4982 
L 169.396364 328.960872 
L 173.454545 329.432616 
L 177.512727 329.913432 
L 181.570909 330.400296 
L 185.629091 330.893208 
L 189.687273 331.39368 
L 193.745455 331.897176 
L 197.803636 332.40672 
L 201.861818 332.919288 
L 205.92 333.43488 
L 209.978182 333.953496 
L 214.036364 334.473624 
L 218.094545 334.995264 
L 222.152727 335.519928 
L 226.210909 336.04308 
L 230.269091 336.567744 
L 234.327273 337.092408 
L 238.385455 337.61556 
L 242.443636 338.1372 
L 246.501818 338.657328 
L 250.56 339.175944 
L 254.618182 339.693048 
L 258.676364 340.207128 
L 262.734545 340.716672 
L 266.792727 341.224704 
L 270.850909 341.726688 
L 274.909091 342.22716 
L 278.967273 342.721584 
L 283.025455 343.211472 
L 287.083636 343.696824 
L 291.141818 344.176128 
L 295.2 344.649384 
L 299.258182 345.118104 
L 303.316364 345.579264 
L 307.374545 346.035888 
L 311.432727 346.484952 
L 315.490909 346.926456 
L 319.549091 347.361912 
L 323.607273 347.789808 
L 327.665455 348.210144 
L 331.723636 348.62292 
L 335.781818 349.028136 
L 339.84 349.42428 
L 343.898182 349.812864 
L 347.956364 350.193888 
L 352.014545 350.56584 
L 356.072727 350.92872 
L 360.130909 351.282528 
L 364.189091 351.628776 
L 368.247273 351.96444 
L 372.305455 352.292544 
L 376.363636 352.610064 
L 380.421818 352.918512 
L 384.48 353.217888 
L 388.538182 353.50668 
L 392.596364 353.7864 
L 396.654545 354.055536 
L 400.712727 354.3156 
L 404.770909 354.56508 
L 408.829091 354.805488 
L 412.887273 355.035312 
L 416.945455 355.254552 
L 421.003636 355.463208 
L 425.061818 355.66128 
L 429.12 355.85028 
L 433.178182 356.028696 
L 437.236364 356.195016 
L 441.294545 356.352264 
L 445.352727 356.497416 
L 449.410909 356.633496 
L 453.469091 356.758992 
L 457.527273 356.872392 
L 461.585455 356.975208 
L 465.643636 357.06744 
L 469.701818 357.149088 
L 473.76 357.220152 
L 477.818182 357.280632 
L 481.876364 357.329016 
L 485.934545 357.368328 
L 489.992727 357.395544 
L 494.050909 357.410664 
L 498.109091 357.416712 
" clip-path="url(#pe67676585f)" style="fill: none; stroke: #000000; stroke-opacity: 0.5; stroke-linecap: square"/>
   </g>
   <g id="line2d_17">
    <path d="M 92.290909 313.036488 
L 96.349091 313.018344 
L 100.407273 312.963912 
L 104.465455 312.874704 
L 108.523636 312.752232 
L 112.581818 312.598008 
L 116.64 312.41808 
L 120.698182 312.210936 
L 124.756364 311.981112 
L 128.814545 311.73012 
L 132.872727 311.462496 
L 136.930909 311.17824 
L 140.989091 310.878864 
L 145.047273 310.567392 
L 149.105455 310.243824 
L 153.163636 309.909672 
L 157.221818 309.564936 
L 161.28 309.21264 
L 165.338182 308.851272 
L 169.396364 308.482344 
L 173.454545 308.105856 
L 177.512727 307.721808 
L 181.570909 307.331712 
L 185.629091 306.934056 
L 189.687273 306.531864 
L 193.745455 306.1206 
L 197.803636 305.7048 
L 201.861818 305.28144 
L 205.92 304.853544 
L 209.978182 304.418088 
L 214.036364 303.978096 
L 218.094545 303.530544 
L 222.152727 303.076944 
L 226.210909 302.618808 
L 230.269091 302.153112 
L 234.327273 301.68288 
L 238.385455 301.205088 
L 242.443636 300.72276 
L 246.501818 300.234384 
L 250.56 299.73996 
L 254.618182 299.241 
L 258.676364 298.73448 
L 262.734545 298.223424 
L 266.792727 297.70632 
L 270.850909 297.18468 
L 274.909091 296.658504 
L 278.967273 296.124768 
L 283.025455 295.588008 
L 287.083636 295.046712 
L 291.141818 294.499368 
L 295.2 293.949 
L 299.258182 293.394096 
L 303.316364 292.834656 
L 307.374545 292.272192 
L 311.432727 291.705192 
L 315.490909 291.13668 
L 319.549091 290.563632 
L 323.607273 289.989072 
L 327.665455 289.411488 
L 331.723636 288.832392 
L 335.781818 288.253296 
L 339.84 287.671176 
L 343.898182 287.090568 
L 347.956364 286.508448 
L 352.014545 285.92784 
L 356.072727 285.347232 
L 360.130909 284.768136 
L 364.189091 284.192064 
L 368.247273 283.617504 
L 372.305455 283.04748 
L 376.363636 282.481992 
L 380.421818 281.92104 
L 384.48 281.364624 
L 388.538182 280.815768 
L 392.596364 280.274472 
L 396.654545 279.740736 
L 400.712727 279.216072 
L 404.770909 278.701992 
L 408.829091 278.196984 
L 412.887273 277.705584 
L 416.945455 277.22628 
L 421.003636 276.762096 
L 425.061818 276.31152 
L 429.12 275.877576 
L 433.178182 275.461776 
L 437.236364 275.062608 
L 441.294545 274.683096 
L 445.352727 274.324752 
L 449.410909 273.987576 
L 453.469091 273.67308 
L 457.527273 273.382776 
L 461.585455 273.115152 
L 465.643636 272.874744 
L 469.701818 272.66004 
L 473.76 272.47104 
L 477.818182 272.310768 
L 481.876364 272.179224 
L 485.934545 272.076408 
L 489.992727 272.00232 
L 494.050909 271.958472 
L 498.109091 271.943352 
" clip-path="url(#pe67676585f)" style="fill: none; stroke: #000000; stroke-opacity: 0.5; stroke-linecap: square"/>
   </g>
   <g id="line2d_18">
    <path d="M 92.290909 260.833176 
L 96.349091 260.914824 
L 100.407273 261.140112 
L 104.465455 261.462168 
L 108.523636 261.84168 
L 112.581818 262.248408 
L 116.64 262.664208 
L 120.698182 263.080008 
L 124.756364 263.486736 
L 128.814545 263.881368 
L 132.872727 264.259368 
L 136.930909 264.619224 
L 140.989091 264.959424 
L 145.047273 265.278456 
L 149.105455 265.57632 
L 153.163636 265.853016 
L 157.221818 266.10552 
L 161.28 266.336856 
L 165.338182 266.544 
L 169.396364 266.728464 
L 173.454545 266.888736 
L 177.512727 267.026328 
L 181.570909 267.14124 
L 185.629091 267.233472 
L 189.687273 267.303024 
L 193.745455 267.348384 
L 197.803636 267.372576 
L 201.861818 267.374088 
L 205.92 267.354432 
L 209.978182 267.312096 
L 214.036364 267.248592 
L 218.094545 267.16392 
L 222.152727 267.05808 
L 226.210909 266.932584 
L 230.269091 266.787432 
L 234.327273 266.622624 
L 238.385455 266.436648 
L 242.443636 266.23404 
L 246.501818 266.010264 
L 250.56 265.769856 
L 254.618182 265.511304 
L 258.676364 265.234608 
L 262.734545 264.94128 
L 266.792727 264.629808 
L 270.850909 264.303216 
L 274.909091 263.959992 
L 278.967273 263.600136 
L 283.025455 263.226672 
L 287.083636 262.836576 
L 291.141818 262.432872 
L 295.2 262.014048 
L 299.258182 261.583128 
L 303.316364 261.137088 
L 307.374545 260.678952 
L 311.432727 260.207208 
L 315.490909 259.72488 
L 319.549091 259.228944 
L 323.607273 258.722424 
L 327.665455 258.20532 
L 331.723636 257.677632 
L 335.781818 257.140872 
L 339.84 256.59504 
L 343.898182 256.038624 
L 347.956364 255.474648 
L 352.014545 254.904624 
L 356.072727 254.325528 
L 360.130909 253.740384 
L 364.189091 253.150704 
L 368.247273 252.554976 
L 372.305455 251.954712 
L 376.363636 251.351424 
L 380.421818 250.745112 
L 384.48 250.137288 
L 388.538182 249.529464 
L 392.596364 248.92164 
L 396.654545 248.313816 
L 400.712727 247.710528 
L 404.770909 247.108752 
L 408.829091 246.513024 
L 412.887273 245.923344 
L 416.945455 245.342736 
L 421.003636 244.769688 
L 425.061818 244.208736 
L 429.12 243.661392 
L 433.178182 243.127656 
L 437.236364 242.612064 
L 441.294545 242.113104 
L 445.352727 241.636824 
L 449.410909 241.183224 
L 453.469091 240.755328 
L 457.527273 240.35616 
L 461.585455 239.98572 
L 465.643636 239.648544 
L 469.701818 239.346144 
L 473.76 239.081544 
L 477.818182 238.854744 
L 481.876364 238.668768 
L 485.934545 238.523616 
L 489.992727 238.422312 
L 494.050909 238.36032 
L 498.109091 238.340664 
" clip-path="url(#pe67676585f)" style="fill: none; stroke: #000000; stroke-opacity: 0.5; stroke-linecap: square"/>
   </g>
   <g id="line2d_19">
    <path d="M 92.290909 256.68576 
L 96.349091 256.584456 
L 100.407273 256.3002 
L 104.465455 255.878352 
L 108.523636 255.361248 
L 112.581818 254.779128 
L 116.64 254.147112 
L 120.698182 253.478808 
L 124.756364 252.781776 
L 128.814545 252.060552 
L 132.872727 251.319672 
L 136.930909 250.563672 
L 140.989091 249.794064 
L 145.047273 249.01236 
L 149.105455 248.220072 
L 153.163636 247.421736 
L 157.221818 246.618864 
L 161.28 245.811456 
L 165.338182 245.002536 
L 169.396364 244.195128 
L 173.454545 243.389232 
L 177.512727 242.587872 
L 181.570909 241.794072 
L 185.629091 241.007832 
L 189.687273 240.233688 
L 193.745455 239.473152 
L 197.803636 238.727736 
L 201.861818 238.000464 
L 205.92 237.292848 
L 209.978182 236.609424 
L 214.036364 235.950192 
L 218.094545 235.318176 
L 222.152727 234.714888 
L 226.210909 234.143352 
L 230.269091 233.60508 
L 234.327273 233.101584 
L 238.385455 232.634376 
L 242.443636 232.203456 
L 246.501818 231.810336 
L 250.56 231.455016 
L 254.618182 231.14052 
L 258.676364 230.862312 
L 262.734545 230.623416 
L 266.792727 230.420808 
L 270.850909 230.256 
L 274.909091 230.125968 
L 278.967273 230.0292 
L 283.025455 229.964184 
L 287.083636 229.93092 
L 291.141818 229.926384 
L 295.2 229.947552 
L 299.258182 229.994424 
L 303.316364 230.063976 
L 307.374545 230.154696 
L 311.432727 230.26356 
L 315.490909 230.39208 
L 319.549091 230.534208 
L 323.607273 230.691456 
L 327.665455 230.8608 
L 331.723636 231.040728 
L 335.781818 231.229728 
L 339.84 231.4278 
L 343.898182 231.630408 
L 347.956364 231.840576 
L 352.014545 232.053768 
L 356.072727 232.271496 
L 360.130909 232.490736 
L 364.189091 232.711488 
L 368.247273 232.933752 
L 372.305455 233.154504 
L 376.363636 233.373744 
L 380.421818 233.592984 
L 384.48 233.8092 
L 388.538182 234.022392 
L 392.596364 234.231048 
L 396.654545 234.43668 
L 400.712727 234.637776 
L 404.770909 234.834336 
L 408.829091 235.024848 
L 412.887273 235.209312 
L 416.945455 235.38924 
L 421.003636 235.560096 
L 425.061818 235.726416 
L 429.12 235.883664 
L 433.178182 236.034864 
L 437.236364 236.176992 
L 441.294545 236.31156 
L 445.352727 236.437056 
L 449.410909 236.554992 
L 453.469091 236.662344 
L 457.527273 236.762136 
L 461.585455 236.851344 
L 465.643636 236.929968 
L 469.701818 236.99952 
L 473.76 237.058488 
L 477.818182 237.106872 
L 481.876364 237.144672 
L 485.934545 237.171888 
L 489.992727 237.190032 
L 494.050909 237.200616 
L 498.109091 237.20364 
" clip-path="url(#pe67676585f)" style="fill: none; stroke: #000000; stroke-opacity: 0.5; stroke-linecap: square"/>
   </g>
   <g id="line2d_20">
    <path d="M 92.290909 154.630296 
L 96.349091 155.142864 
L 100.407273 156.096936 
L 104.465455 157.131144 
L 108.523636 158.177448 
L 112.581818 159.217704 
L 116.64 160.24284 
L 120.698182 161.251344 
L 124.756364 162.240192 
L 128.814545 163.207872 
L 132.872727 164.15136 
L 136.930909 165.072168 
L 140.989091 165.968784 
L 145.047273 166.838184 
L 149.105455 167.68188 
L 153.163636 168.495336 
L 157.221818 169.280064 
L 161.28 170.03304 
L 165.338182 170.754264 
L 169.396364 171.440712 
L 173.454545 172.092384 
L 177.512727 172.707768 
L 181.570909 173.28384 
L 185.629091 173.819088 
L 189.687273 174.313512 
L 193.745455 174.762576 
L 197.803636 175.16628 
L 201.861818 175.523112 
L 205.92 175.828536 
L 209.978182 176.084064 
L 214.036364 176.283648 
L 218.094545 176.4288 
L 222.152727 176.518008 
L 226.210909 176.546736 
L 230.269091 176.516496 
L 234.327273 176.424264 
L 238.385455 176.27004 
L 242.443636 176.0508 
L 246.501818 175.769568 
L 250.56 175.424832 
L 254.618182 175.01508 
L 258.676364 174.543336 
L 262.734545 174.008088 
L 266.792727 173.41236 
L 270.850909 172.756152 
L 274.909091 172.040976 
L 278.967273 171.269856 
L 283.025455 170.442792 
L 287.083636 169.56432 
L 291.141818 168.635952 
L 295.2 167.657688 
L 299.258182 166.635576 
L 303.316364 165.568104 
L 307.374545 164.46132 
L 311.432727 163.313712 
L 315.490909 162.131328 
L 319.549091 160.91568 
L 323.607273 159.66828 
L 327.665455 158.395176 
L 331.723636 157.100904 
L 335.781818 155.806632 
L 339.84 154.659024 
L 343.898182 155.024928 
L 347.956364 156.361536 
L 352.014545 157.764672 
L 356.072727 159.166296 
L 360.130909 160.557336 
L 364.189091 161.931744 
L 368.247273 163.286496 
L 372.305455 164.623104 
L 376.363636 165.938544 
L 380.421818 167.232816 
L 384.48 168.504408 
L 388.538182 169.751808 
L 392.596364 170.973504 
L 396.654545 172.171008 
L 400.712727 173.339784 
L 404.770909 174.481344 
L 408.829091 175.594176 
L 412.887273 176.675256 
L 416.945455 177.724584 
L 421.003636 178.740648 
L 425.061818 179.720424 
L 429.12 180.665424 
L 433.178182 181.571112 
L 437.236364 182.435976 
L 441.294545 183.260016 
L 445.352727 184.038696 
L 449.410909 184.772016 
L 453.469091 185.456952 
L 457.527273 186.091992 
L 461.585455 186.674112 
L 465.643636 187.2018 
L 469.701818 187.673544 
L 473.76 188.08632 
L 477.818182 188.440128 
L 481.876364 188.730432 
L 485.934545 188.958744 
L 489.992727 189.12204 
L 494.050909 189.22032 
L 498.109091 189.253584 
" clip-path="url(#pe67676585f)" style="fill: none; stroke: #000000; stroke-opacity: 0.5; stroke-linecap: square"/>
   </g>
   <g id="line2d_21">
    <path d="M 92.290909 152.643528 
L 96.349091 152.112816 
L 100.407273 151.107336 
L 104.465455 149.985432 
L 108.523636 148.818168 
L 112.581818 147.622176 
L 116.64 146.405016 
L 120.698182 145.171224 
L 124.756364 143.922312 
L 128.814545 142.661304 
L 132.872727 141.3882 
L 136.930909 140.104512 
L 140.989091 138.811752 
L 145.047273 137.512944 
L 149.105455 136.2096 
L 153.163636 134.906256 
L 157.221818 133.604424 
L 161.28 132.30864 
L 165.338182 131.026464 
L 169.396364 129.763944 
L 173.454545 128.533176 
L 177.512727 127.347768 
L 181.570909 126.224352 
L 185.629091 125.181072 
L 189.687273 124.237584 
L 193.745455 123.404472 
L 197.803636 122.68476 
L 201.861818 122.069376 
L 205.92 121.5432 
L 209.978182 121.086576 
L 214.036364 120.684384 
L 218.094545 120.324528 
L 222.152727 119.997936 
L 226.210909 119.695536 
L 230.269091 119.417328 
L 234.327273 119.1618 
L 238.385455 118.938024 
L 242.443636 118.76868 
L 246.501818 118.73844 
L 250.56 119.128536 
L 254.618182 120.211128 
L 258.676364 121.665672 
L 262.734545 123.238152 
L 266.792727 124.852968 
L 270.850909 126.484416 
L 274.909091 128.123424 
L 278.967273 129.76092 
L 283.025455 131.396904 
L 287.083636 133.028352 
L 291.141818 134.65224 
L 295.2 136.27008 
L 299.258182 137.877336 
L 303.316364 139.47552 
L 307.374545 141.064632 
L 311.432727 142.640136 
L 315.490909 144.205056 
L 319.549091 145.754856 
L 323.607273 147.291048 
L 327.665455 148.809096 
L 331.723636 150.305976 
L 335.781818 151.76052 
L 339.84 153.029088 
L 343.898182 152.744832 
L 347.956364 151.453584 
L 352.014545 150.058008 
L 356.072727 148.626144 
L 360.130909 147.173112 
L 364.189091 145.701936 
L 368.247273 144.21564 
L 372.305455 143.967672 
L 376.363636 145.271016 
L 380.421818 146.550168 
L 384.48 147.800592 
L 388.538182 149.0238 
L 392.596364 150.216768 
L 396.654545 151.379496 
L 400.712727 152.510472 
L 404.770909 153.608184 
L 408.829091 154.672632 
L 412.887273 155.702304 
L 416.945455 156.694176 
L 421.003636 157.64976 
L 425.061818 158.566032 
L 429.12 159.442992 
L 433.178182 160.277616 
L 437.236364 161.069904 
L 441.294545 161.818344 
L 445.352727 162.522936 
L 449.410909 163.179144 
L 453.469091 163.789992 
L 457.527273 164.350944 
L 461.585455 164.862 
L 465.643636 165.32316 
L 469.701818 165.7314 
L 473.76 166.088232 
L 477.818182 166.390632 
L 481.876364 166.6386 
L 485.934545 166.833648 
L 489.992727 166.97124 
L 494.050909 167.055912 
L 498.109091 167.083128 
" clip-path="url(#pe67676585f)" style="fill: none; stroke: #000000; stroke-opacity: 0.5; stroke-linecap: square"/>
   </g>
   <g id="line2d_22">
    <path d="M 92.290909 121.552272 
L 96.349091 121.547736 
L 100.407273 121.532616 
L 104.465455 121.508424 
L 108.523636 121.473648 
L 112.581818 121.4298 
L 116.64 121.373856 
L 120.698182 121.30884 
L 124.756364 121.231728 
L 128.814545 121.144032 
L 132.872727 121.04424 
L 136.930909 120.932352 
L 140.989091 120.805344 
L 145.047273 120.664728 
L 149.105455 120.505968 
L 153.163636 120.329064 
L 157.221818 120.130992 
L 161.28 119.905704 
L 165.338182 119.651688 
L 169.396364 119.356848 
L 173.454545 119.015136 
L 177.512727 118.612944 
L 181.570909 118.13364 
L 185.629091 117.560592 
L 189.687273 116.877168 
L 193.745455 116.074296 
L 197.803636 115.153488 
L 201.861818 114.128352 
L 205.92 113.026104 
L 209.978182 111.88152 
L 214.036364 110.752056 
L 218.094545 109.745064 
L 222.152727 109.126656 
L 226.210909 109.296 
L 230.269091 110.221344 
L 234.327273 111.520152 
L 238.385455 112.964112 
L 242.443636 114.439824 
L 246.501818 115.824816 
L 250.56 116.821224 
L 254.618182 117.141768 
L 258.676364 117.102456 
L 262.734545 116.955792 
L 266.792727 116.775864 
L 270.850909 116.588376 
L 274.909091 116.40996 
L 278.967273 116.254224 
L 283.025455 116.14536 
L 287.083636 116.131752 
L 291.141818 116.308656 
L 295.2 116.834832 
L 299.258182 117.791928 
L 303.316364 119.06352 
L 307.374545 120.493872 
L 311.432727 121.9968 
L 315.490909 123.529968 
L 319.549091 125.07372 
L 323.607273 126.617472 
L 327.665455 128.153664 
L 331.723636 129.680784 
L 335.781818 131.194296 
L 339.84 132.691176 
L 343.898182 134.172936 
L 347.956364 135.63504 
L 352.014545 137.079 
L 356.072727 138.501792 
L 360.130909 139.901904 
L 364.189091 141.280848 
L 368.247273 142.634088 
L 372.305455 142.714224 
L 376.363636 141.203736 
L 380.421818 139.684176 
L 384.48 138.157056 
L 388.538182 136.623888 
L 392.596364 135.084672 
L 396.654545 133.543944 
L 400.712727 132.003216 
L 404.770909 130.460976 
L 408.829091 128.923272 
L 412.887273 127.390104 
L 416.945455 125.862984 
L 421.003636 124.346448 
L 425.061818 122.84352 
L 429.12 121.355712 
L 433.178182 119.886048 
L 437.236364 118.442088 
L 441.294545 117.025344 
L 445.352727 115.643376 
L 449.410909 114.303744 
L 453.469091 113.012496 
L 457.527273 111.78324 
L 461.585455 110.631096 
L 465.643636 109.577232 
L 469.701818 108.662472 
L 473.76 107.951832 
L 477.818182 107.499744 
L 481.876364 107.2548 
L 485.934545 107.124768 
L 489.992727 107.052192 
L 494.050909 107.015904 
L 498.109091 107.003808 
" clip-path="url(#pe67676585f)" style="fill: none; stroke: #000000; stroke-opacity: 0.5; stroke-linecap: square"/>
   </g>
   <g id="line2d_23">
    <path d="M 92.290909 106.126848 
L 96.349091 106.119288 
L 100.407273 106.09812 
L 104.465455 106.063344 
L 108.523636 106.013448 
L 112.581818 105.949944 
L 116.64 105.872832 
L 120.698182 105.7806 
L 124.756364 105.676272 
L 128.814545 105.556824 
L 132.872727 105.423768 
L 136.930909 105.278616 
L 140.989091 105.118344 
L 145.047273 104.945976 
L 149.105455 104.76 
L 153.163636 104.561928 
L 157.221818 104.35176 
L 161.28 104.129496 
L 165.338182 103.89816 
L 169.396364 103.654728 
L 173.454545 103.405248 
L 177.512727 103.14972 
L 181.570909 102.891168 
L 185.629091 102.634128 
L 189.687273 102.387672 
L 193.745455 102.165408 
L 197.803636 101.988504 
L 201.861818 101.90232 
L 205.92 101.974896 
L 209.978182 102.304512 
L 214.036364 102.93048 
L 218.094545 103.72428 
L 222.152727 104.323032 
L 226.210909 104.242896 
L 230.269091 103.473288 
L 234.327273 102.3786 
L 238.385455 101.188656 
L 242.443636 100.033488 
L 246.501818 99.05976 
L 250.56 98.521488 
L 254.618182 98.758872 
L 258.676364 99.759816 
L 262.734545 101.158416 
L 266.792727 102.714264 
L 270.850909 104.32908 
L 274.909091 105.957504 
L 278.967273 107.567784 
L 283.025455 109.12968 
L 287.083636 110.591784 
L 291.141818 111.854304 
L 295.2 112.75848 
L 299.258182 113.221152 
L 303.316364 113.357232 
L 307.374545 113.320944 
L 311.432727 113.199984 
L 315.490909 113.035176 
L 319.549091 112.844664 
L 323.607273 112.639032 
L 327.665455 112.42584 
L 331.723636 112.2066 
L 335.781818 111.985848 
L 339.84 111.762072 
L 343.898182 111.539808 
L 347.956364 111.319056 
L 352.014545 111.098304 
L 356.072727 110.880576 
L 360.130909 110.665872 
L 364.189091 110.454192 
L 368.247273 110.247048 
L 372.305455 110.042928 
L 376.363636 109.843344 
L 380.421818 109.648296 
L 384.48 109.457784 
L 388.538182 109.271808 
L 392.596364 109.09188 
L 396.654545 108.918 
L 400.712727 108.748656 
L 404.770909 108.58536 
L 408.829091 108.4266 
L 412.887273 108.2754 
L 416.945455 108.128736 
L 421.003636 107.989632 
L 425.061818 107.855064 
L 429.12 107.726544 
L 433.178182 107.605584 
L 437.236364 107.487648 
L 441.294545 107.377272 
L 445.352727 107.26992 
L 449.410909 107.167104 
L 453.469091 107.064288 
L 457.527273 106.961472 
L 461.585455 106.851096 
L 465.643636 106.721064 
L 469.701818 106.542648 
L 473.76 106.262928 
L 477.818182 105.844104 
L 481.876364 105.34968 
L 485.934545 104.885496 
L 489.992727 104.522616 
L 494.050909 104.294304 
L 498.109091 104.217192 
" clip-path="url(#pe67676585f)" style="fill: none; stroke: #000000; stroke-opacity: 0.5; stroke-linecap: square"/>
   </g>
   <g id="patch_3">
    <path d="M 72 384.48 
L 72 51.84 
" style="fill: none; stroke: #000000; stroke-width: 0.8; stroke-linejoin: miter; stroke-linecap: square"/>
   </g>
   <g id="patch_4">
    <path d="M 518.4 384.48 
L 518.4 51.84 
" style="fill: none; stroke: #000000; stroke-width: 0.8; stroke-linejoin: miter; stroke-linecap: square"/>
   </g>
   <g id="patch_5">
    <path d="M 72 384.48 
L 518.4 384.48 
" style="fill: none; stroke: #000000; stroke-width: 0.8; stroke-linejoin: miter; stroke-linecap: square"/>
   </g>
   <g id="patch_6">
    <path d="M 72 51.84 
L 518.4 51.84 
" style="fill: none; stroke: #000000; stroke-width: 0.8; stroke-linejoin: miter; stroke-linecap: square"/>
   </g>
  </g>
 </g>
 <defs>
  <clipPath id="pe67676585f">
   <rect x="72" y="51.84" width="446.4" height="332.64"/>
  </clipPath>
 </defs>
</svg>
