<?xml version="1.0" encoding="utf-8" standalone="no"?>
<!DOCTYPE svg PUBLIC "-//W3C//DTD SVG 1.1//EN"
  "http://www.w3.org/Graphics/SVG/1.1/DTD/svg11.dtd">
<svg xmlns:xlink="http://www.w3.org/1999/xlink" width="576pt" height="432pt" viewBox="0 0 576 432" xmlns="http://www.w3.org/2000/svg" version="1.1">
 <metadata>
  <rdf:RDF xmlns:dc="http://purl.org/dc/elements/1.1/" xmlns:cc="http://creativecommons.org/ns#" xmlns:rdf="http://www.w3.org/1999/02/22-rdf-syntax-ns#">
   <cc:Work>
    <dc:type rdf:resource="http://purl.org/dc/dcmitype/StillImage"/>
    <dc:date>2023-05-04T15:19:16.708441</dc:date>
    <dc:format>image/svg+xml</dc:format>
    <dc:creator>
     <cc:Agent>
      <dc:title>Matplotlib v3.7.1, https://matplotlib.org/</dc:title>
     </cc:Agent>
    </dc:creator>
   </cc:Work>
  </rdf:RDF>
 </metadata>
 <defs>
  <style type="text/css">*{stroke-linejoin: round; stroke-linecap: butt}</style>
 </defs>
 <g id="figure_1">
  <g id="patch_1">
   <path d="M 0 432 
L 576 432 
L 576 0 
L 0 0 
z
" style="fill: #ffffff"/>
  </g>
  <g id="axes_1">
   <g id="patch_2">
    <path d="M 72 384.48 
L 518.4 384.48 
L 518.4 51.84 
L 72 51.84 
z
" style="fill: #ffffff"/>
   </g>
   <g id="matplotlib.axis_1">
    <g id="xtick_1">
     <g id="line2d_1">
      <defs>
       <path id="mc91f434646" d="M 0 0 
L 0 3.5 
" style="stroke: #000000; stroke-width: 0.8"/>
      </defs>
      <g>
       <use xlink:href="#mc91f434646" x="92.290909" y="384.48" style="stroke: #000000; stroke-width: 0.8"/>
      </g>
     </g>
     <g id="text_1">
      <!-- 0.0 -->
      <g transform="translate(84.339347 399.078438) scale(0.1 -0.1)">
       <defs>
        <path id="DejaVuSans-30" d="M 2034 4250 
Q 1547 4250 1301 3770 
Q 1056 3291 1056 2328 
Q 1056 1369 1301 889 
Q 1547 409 2034 409 
Q 2525 409 2770 889 
Q 3016 1369 3016 2328 
Q 3016 3291 2770 3770 
Q 2525 4250 2034 4250 
z
M 2034 4750 
Q 2819 4750 3233 4129 
Q 3647 3509 3647 2328 
Q 3647 1150 3233 529 
Q 2819 -91 2034 -91 
Q 1250 -91 836 529 
Q 422 1150 422 2328 
Q 422 3509 836 4129 
Q 1250 4750 2034 4750 
z
" transform="scale(0.015625)"/>
        <path id="DejaVuSans-2e" d="M 684 794 
L 1344 794 
L 1344 0 
L 684 0 
L 684 794 
z
" transform="scale(0.015625)"/>
       </defs>
       <use xlink:href="#DejaVuSans-30"/>
       <use xlink:href="#DejaVuSans-2e" x="63.623047"/>
       <use xlink:href="#DejaVuSans-30" x="95.410156"/>
      </g>
     </g>
    </g>
    <g id="xtick_2">
     <g id="line2d_2">
      <g>
       <use xlink:href="#mc91f434646" x="173.454545" y="384.48" style="stroke: #000000; stroke-width: 0.8"/>
      </g>
     </g>
     <g id="text_2">
      <!-- 0.2 -->
      <g transform="translate(165.502983 399.078438) scale(0.1 -0.1)">
       <defs>
        <path id="DejaVuSans-32" d="M 1228 531 
L 3431 531 
L 3431 0 
L 469 0 
L 469 531 
Q 828 903 1448 1529 
Q 2069 2156 2228 2338 
Q 2531 2678 2651 2914 
Q 2772 3150 2772 3378 
Q 2772 3750 2511 3984 
Q 2250 4219 1831 4219 
Q 1534 4219 1204 4116 
Q 875 4013 500 3803 
L 500 4441 
Q 881 4594 1212 4672 
Q 1544 4750 1819 4750 
Q 2544 4750 2975 4387 
Q 3406 4025 3406 3419 
Q 3406 3131 3298 2873 
Q 3191 2616 2906 2266 
Q 2828 2175 2409 1742 
Q 1991 1309 1228 531 
z
" transform="scale(0.015625)"/>
       </defs>
       <use xlink:href="#DejaVuSans-30"/>
       <use xlink:href="#DejaVuSans-2e" x="63.623047"/>
       <use xlink:href="#DejaVuSans-32" x="95.410156"/>
      </g>
     </g>
    </g>
    <g id="xtick_3">
     <g id="line2d_3">
      <g>
       <use xlink:href="#mc91f434646" x="254.618182" y="384.48" style="stroke: #000000; stroke-width: 0.8"/>
      </g>
     </g>
     <g id="text_3">
      <!-- 0.4 -->
      <g transform="translate(246.666619 399.078438) scale(0.1 -0.1)">
       <defs>
        <path id="DejaVuSans-34" d="M 2419 4116 
L 825 1625 
L 2419 1625 
L 2419 4116 
z
M 2253 4666 
L 3047 4666 
L 3047 1625 
L 3713 1625 
L 3713 1100 
L 3047 1100 
L 3047 0 
L 2419 0 
L 2419 1100 
L 313 1100 
L 313 1709 
L 2253 4666 
z
" transform="scale(0.015625)"/>
       </defs>
       <use xlink:href="#DejaVuSans-30"/>
       <use xlink:href="#DejaVuSans-2e" x="63.623047"/>
       <use xlink:href="#DejaVuSans-34" x="95.410156"/>
      </g>
     </g>
    </g>
    <g id="xtick_4">
     <g id="line2d_4">
      <g>
       <use xlink:href="#mc91f434646" x="335.781818" y="384.48" style="stroke: #000000; stroke-width: 0.8"/>
      </g>
     </g>
     <g id="text_4">
      <!-- 0.6 -->
      <g transform="translate(327.830256 399.078438) scale(0.1 -0.1)">
       <defs>
        <path id="DejaVuSans-36" d="M 2113 2584 
Q 1688 2584 1439 2293 
Q 1191 2003 1191 1497 
Q 1191 994 1439 701 
Q 1688 409 2113 409 
Q 2538 409 2786 701 
Q 3034 994 3034 1497 
Q 3034 2003 2786 2293 
Q 2538 2584 2113 2584 
z
M 3366 4563 
L 3366 3988 
Q 3128 4100 2886 4159 
Q 2644 4219 2406 4219 
Q 1781 4219 1451 3797 
Q 1122 3375 1075 2522 
Q 1259 2794 1537 2939 
Q 1816 3084 2150 3084 
Q 2853 3084 3261 2657 
Q 3669 2231 3669 1497 
Q 3669 778 3244 343 
Q 2819 -91 2113 -91 
Q 1303 -91 875 529 
Q 447 1150 447 2328 
Q 447 3434 972 4092 
Q 1497 4750 2381 4750 
Q 2619 4750 2861 4703 
Q 3103 4656 3366 4563 
z
" transform="scale(0.015625)"/>
       </defs>
       <use xlink:href="#DejaVuSans-30"/>
       <use xlink:href="#DejaVuSans-2e" x="63.623047"/>
       <use xlink:href="#DejaVuSans-36" x="95.410156"/>
      </g>
     </g>
    </g>
    <g id="xtick_5">
     <g id="line2d_5">
      <g>
       <use xlink:href="#mc91f434646" x="416.945455" y="384.48" style="stroke: #000000; stroke-width: 0.8"/>
      </g>
     </g>
     <g id="text_5">
      <!-- 0.8 -->
      <g transform="translate(408.993892 399.078438) scale(0.1 -0.1)">
       <defs>
        <path id="DejaVuSans-38" d="M 2034 2216 
Q 1584 2216 1326 1975 
Q 1069 1734 1069 1313 
Q 1069 891 1326 650 
Q 1584 409 2034 409 
Q 2484 409 2743 651 
Q 3003 894 3003 1313 
Q 3003 1734 2745 1975 
Q 2488 2216 2034 2216 
z
M 1403 2484 
Q 997 2584 770 2862 
Q 544 3141 544 3541 
Q 544 4100 942 4425 
Q 1341 4750 2034 4750 
Q 2731 4750 3128 4425 
Q 3525 4100 3525 3541 
Q 3525 3141 3298 2862 
Q 3072 2584 2669 2484 
Q 3125 2378 3379 2068 
Q 3634 1759 3634 1313 
Q 3634 634 3220 271 
Q 2806 -91 2034 -91 
Q 1263 -91 848 271 
Q 434 634 434 1313 
Q 434 1759 690 2068 
Q 947 2378 1403 2484 
z
M 1172 3481 
Q 1172 3119 1398 2916 
Q 1625 2713 2034 2713 
Q 2441 2713 2670 2916 
Q 2900 3119 2900 3481 
Q 2900 3844 2670 4047 
Q 2441 4250 2034 4250 
Q 1625 4250 1398 4047 
Q 1172 3844 1172 3481 
z
" transform="scale(0.015625)"/>
       </defs>
       <use xlink:href="#DejaVuSans-30"/>
       <use xlink:href="#DejaVuSans-2e" x="63.623047"/>
       <use xlink:href="#DejaVuSans-38" x="95.410156"/>
      </g>
     </g>
    </g>
    <g id="xtick_6">
     <g id="line2d_6">
      <g>
       <use xlink:href="#mc91f434646" x="498.109091" y="384.48" style="stroke: #000000; stroke-width: 0.8"/>
      </g>
     </g>
     <g id="text_6">
      <!-- 1.0 -->
      <g transform="translate(490.157528 399.078438) scale(0.1 -0.1)">
       <defs>
        <path id="DejaVuSans-31" d="M 794 531 
L 1825 531 
L 1825 4091 
L 703 3866 
L 703 4441 
L 1819 4666 
L 2450 4666 
L 2450 531 
L 3481 531 
L 3481 0 
L 794 0 
L 794 531 
z
" transform="scale(0.015625)"/>
       </defs>
       <use xlink:href="#DejaVuSans-31"/>
       <use xlink:href="#DejaVuSans-2e" x="63.623047"/>
       <use xlink:href="#DejaVuSans-30" x="95.410156"/>
      </g>
     </g>
    </g>
   </g>
   <g id="matplotlib.axis_2">
    <g id="ytick_1">
     <g id="line2d_7">
      <defs>
       <path id="madc80969e9" d="M 0 0 
L -3.5 0 
" style="stroke: #000000; stroke-width: 0.8"/>
      </defs>
      <g>
       <use xlink:href="#madc80969e9" x="72" y="369.36" style="stroke: #000000; stroke-width: 0.8"/>
      </g>
     </g>
     <g id="text_7">
      <!-- −5.0 -->
      <g transform="translate(40.717187 373.159219) scale(0.1 -0.1)">
       <defs>
        <path id="DejaVuSans-2212" d="M 678 2272 
L 4684 2272 
L 4684 1741 
L 678 1741 
L 678 2272 
z
" transform="scale(0.015625)"/>
        <path id="DejaVuSans-35" d="M 691 4666 
L 3169 4666 
L 3169 4134 
L 1269 4134 
L 1269 2991 
Q 1406 3038 1543 3061 
Q 1681 3084 1819 3084 
Q 2600 3084 3056 2656 
Q 3513 2228 3513 1497 
Q 3513 744 3044 326 
Q 2575 -91 1722 -91 
Q 1428 -91 1123 -41 
Q 819 9 494 109 
L 494 744 
Q 775 591 1075 516 
Q 1375 441 1709 441 
Q 2250 441 2565 725 
Q 2881 1009 2881 1497 
Q 2881 1984 2565 2268 
Q 2250 2553 1709 2553 
Q 1456 2553 1204 2497 
Q 953 2441 691 2322 
L 691 4666 
z
" transform="scale(0.015625)"/>
       </defs>
       <use xlink:href="#DejaVuSans-2212"/>
       <use xlink:href="#DejaVuSans-35" x="83.789062"/>
       <use xlink:href="#DejaVuSans-2e" x="147.412109"/>
       <use xlink:href="#DejaVuSans-30" x="179.199219"/>
      </g>
     </g>
    </g>
    <g id="ytick_2">
     <g id="line2d_8">
      <g>
       <use xlink:href="#madc80969e9" x="72" y="331.56" style="stroke: #000000; stroke-width: 0.8"/>
      </g>
     </g>
     <g id="text_8">
      <!-- −2.5 -->
      <g transform="translate(40.717187 335.359219) scale(0.1 -0.1)">
       <use xlink:href="#DejaVuSans-2212"/>
       <use xlink:href="#DejaVuSans-32" x="83.789062"/>
       <use xlink:href="#DejaVuSans-2e" x="147.412109"/>
       <use xlink:href="#DejaVuSans-35" x="179.199219"/>
      </g>
     </g>
    </g>
    <g id="ytick_3">
     <g id="line2d_9">
      <g>
       <use xlink:href="#madc80969e9" x="72" y="293.76" style="stroke: #000000; stroke-width: 0.8"/>
      </g>
     </g>
     <g id="text_9">
      <!-- 0.0 -->
      <g transform="translate(49.096875 297.559219) scale(0.1 -0.1)">
       <use xlink:href="#DejaVuSans-30"/>
       <use xlink:href="#DejaVuSans-2e" x="63.623047"/>
       <use xlink:href="#DejaVuSans-30" x="95.410156"/>
      </g>
     </g>
    </g>
    <g id="ytick_4">
     <g id="line2d_10">
      <g>
       <use xlink:href="#madc80969e9" x="72" y="255.96" style="stroke: #000000; stroke-width: 0.8"/>
      </g>
     </g>
     <g id="text_10">
      <!-- 2.5 -->
      <g transform="translate(49.096875 259.759219) scale(0.1 -0.1)">
       <use xlink:href="#DejaVuSans-32"/>
       <use xlink:href="#DejaVuSans-2e" x="63.623047"/>
       <use xlink:href="#DejaVuSans-35" x="95.410156"/>
      </g>
     </g>
    </g>
    <g id="ytick_5">
     <g id="line2d_11">
      <g>
       <use xlink:href="#madc80969e9" x="72" y="218.16" style="stroke: #000000; stroke-width: 0.8"/>
      </g>
     </g>
     <g id="text_11">
      <!-- 5.0 -->
      <g transform="translate(49.096875 221.959219) scale(0.1 -0.1)">
       <use xlink:href="#DejaVuSans-35"/>
       <use xlink:href="#DejaVuSans-2e" x="63.623047"/>
       <use xlink:href="#DejaVuSans-30" x="95.410156"/>
      </g>
     </g>
    </g>
    <g id="ytick_6">
     <g id="line2d_12">
      <g>
       <use xlink:href="#madc80969e9" x="72" y="180.36" style="stroke: #000000; stroke-width: 0.8"/>
      </g>
     </g>
     <g id="text_12">
      <!-- 7.5 -->
      <g transform="translate(49.096875 184.159219) scale(0.1 -0.1)">
       <defs>
        <path id="DejaVuSans-37" d="M 525 4666 
L 3525 4666 
L 3525 4397 
L 1831 0 
L 1172 0 
L 2766 4134 
L 525 4134 
L 525 4666 
z
" transform="scale(0.015625)"/>
       </defs>
       <use xlink:href="#DejaVuSans-37"/>
       <use xlink:href="#DejaVuSans-2e" x="63.623047"/>
       <use xlink:href="#DejaVuSans-35" x="95.410156"/>
      </g>
     </g>
    </g>
    <g id="ytick_7">
     <g id="line2d_13">
      <g>
       <use xlink:href="#madc80969e9" x="72" y="142.56" style="stroke: #000000; stroke-width: 0.8"/>
      </g>
     </g>
     <g id="text_13">
      <!-- 10.0 -->
      <g transform="translate(42.734375 146.359219) scale(0.1 -0.1)">
       <use xlink:href="#DejaVuSans-31"/>
       <use xlink:href="#DejaVuSans-30" x="63.623047"/>
       <use xlink:href="#DejaVuSans-2e" x="127.246094"/>
       <use xlink:href="#DejaVuSans-30" x="159.033203"/>
      </g>
     </g>
    </g>
    <g id="ytick_8">
     <g id="line2d_14">
      <g>
       <use xlink:href="#madc80969e9" x="72" y="104.76" style="stroke: #000000; stroke-width: 0.8"/>
      </g>
     </g>
     <g id="text_14">
      <!-- 12.5 -->
      <g transform="translate(42.734375 108.559219) scale(0.1 -0.1)">
       <use xlink:href="#DejaVuSans-31"/>
       <use xlink:href="#DejaVuSans-32" x="63.623047"/>
       <use xlink:href="#DejaVuSans-2e" x="127.246094"/>
       <use xlink:href="#DejaVuSans-35" x="159.033203"/>
      </g>
     </g>
    </g>
    <g id="ytick_9">
     <g id="line2d_15">
      <g>
       <use xlink:href="#madc80969e9" x="72" y="66.96" style="stroke: #000000; stroke-width: 0.8"/>
      </g>
     </g>
     <g id="text_15">
      <!-- 15.0 -->
      <g transform="translate(42.734375 70.759219) scale(0.1 -0.1)">
       <use xlink:href="#DejaVuSans-31"/>
       <use xlink:href="#DejaVuSans-35" x="63.623047"/>
       <use xlink:href="#DejaVuSans-2e" x="127.246094"/>
       <use xlink:href="#DejaVuSans-30" x="159.033203"/>
      </g>
     </g>
    </g>
   </g>
   <g id="line2d_16">
    <path d="M 92.290909 319.276512 
L 96.349091 319.424688 
L 100.407273 319.807224 
L 104.465455 320.315256 
L 108.523636 320.889816 
L 112.581818 321.499152 
L 116.64 322.131168 
L 120.698182 322.778304 
L 124.756364 323.434512 
L 128.814545 324.09828 
L 132.872727 324.768096 
L 136.930909 325.44396 
L 140.989091 326.122848 
L 145.047273 326.803248 
L 149.105455 327.488184 
L 153.163636 328.174632 
L 157.221818 328.86108 
L 161.28 329.550552 
L 165.338182 330.238512 
L 169.396364 330.927984 
L 173.454545 331.617456 
L 177.512727 332.305416 
L 181.570909 332.991864 
L 185.629091 333.678312 
L 189.687273 334.361736 
L 193.745455 335.04516 
L 197.803636 335.724048 
L 201.861818 336.401424 
L 205.92 337.075776 
L 209.978182 337.745592 
L 214.036364 338.412384 
L 218.094545 339.076152 
L 222.152727 339.733872 
L 226.210909 340.388568 
L 230.269091 341.037216 
L 234.327273 341.681328 
L 238.385455 342.320904 
L 242.443636 342.954432 
L 246.501818 343.581912 
L 250.56 344.201832 
L 254.618182 344.817216 
L 258.676364 345.42504 
L 262.734545 346.026816 
L 266.792727 346.621032 
L 270.850909 347.207688 
L 274.909091 347.788296 
L 278.967273 348.359832 
L 283.025455 348.92532 
L 287.083636 349.480224 
L 291.141818 350.02908 
L 295.2 350.568864 
L 299.258182 351.099576 
L 303.316364 351.622728 
L 307.374545 352.136808 
L 311.432727 352.641816 
L 315.490909 353.137752 
L 319.549091 353.624616 
L 323.607273 354.100896 
L 327.665455 354.569616 
L 331.723636 355.027752 
L 335.781818 355.475304 
L 339.84 355.915296 
L 343.898182 356.343192 
L 347.956364 356.762016 
L 352.014545 357.170256 
L 356.072727 357.569424 
L 360.130909 357.958008 
L 364.189091 358.334496 
L 368.247273 358.701912 
L 372.305455 359.058744 
L 376.363636 359.404992 
L 380.421818 359.740656 
L 384.48 360.064224 
L 388.538182 360.37872 
L 392.596364 360.68112 
L 396.654545 360.972936 
L 400.712727 361.254168 
L 404.770909 361.524816 
L 408.829091 361.783368 
L 412.887273 362.029824 
L 416.945455 362.267208 
L 421.003636 362.490984 
L 425.061818 362.705688 
L 429.12 362.908296 
L 433.178182 363.098808 
L 437.236364 363.278736 
L 441.294545 363.446568 
L 445.352727 363.603816 
L 449.410909 363.748968 
L 453.469091 363.882024 
L 457.527273 364.004496 
L 461.585455 364.114872 
L 465.643636 364.213152 
L 469.701818 364.300848 
L 473.76 364.376448 
L 477.818182 364.441464 
L 481.876364 364.492872 
L 485.934545 364.533696 
L 489.992727 364.563936 
L 494.050909 364.580568 
L 498.109091 364.586616 
" clip-path="url(#pecec160d47)" style="fill: none; stroke: #000000; stroke-opacity: 0.5; stroke-linecap: square"/>
   </g>
   <g id="line2d_17">
    <path d="M 92.290909 316.491408 
L 96.349091 316.346256 
L 100.407273 315.975816 
L 104.465455 315.482904 
L 108.523636 314.934048 
L 112.581818 314.35344 
L 116.64 313.759224 
L 120.698182 313.155936 
L 124.756364 312.548112 
L 128.814545 311.938776 
L 132.872727 311.327928 
L 136.930909 310.71708 
L 140.989091 310.107744 
L 145.047273 309.498408 
L 149.105455 308.890584 
L 153.163636 308.28276 
L 157.221818 307.676448 
L 161.28 307.071648 
L 165.338182 306.466848 
L 169.396364 305.86356 
L 173.454545 305.260272 
L 177.512727 304.656984 
L 181.570909 304.055208 
L 185.629091 303.45192 
L 189.687273 302.848632 
L 193.745455 302.245344 
L 197.803636 301.640544 
L 201.861818 301.035744 
L 205.92 300.429432 
L 209.978182 299.821608 
L 214.036364 299.212272 
L 218.094545 298.601424 
L 222.152727 297.989064 
L 226.210909 297.37368 
L 230.269091 296.756784 
L 234.327273 296.136864 
L 238.385455 295.51392 
L 242.443636 294.889464 
L 246.501818 294.260472 
L 250.56 293.629968 
L 254.618182 292.99644 
L 258.676364 292.358376 
L 262.734545 291.7188 
L 266.792727 291.074688 
L 270.850909 290.427552 
L 274.909091 289.777392 
L 278.967273 289.122696 
L 283.025455 288.464976 
L 287.083636 287.805744 
L 291.141818 287.140464 
L 295.2 286.473672 
L 299.258182 285.802344 
L 303.316364 285.129504 
L 307.374545 284.452128 
L 311.432727 283.771728 
L 315.490909 283.088304 
L 319.549091 282.403368 
L 323.607273 281.713896 
L 327.665455 281.022912 
L 331.723636 280.330416 
L 335.781818 279.636408 
L 339.84 278.939376 
L 343.898182 278.240832 
L 347.956364 277.542288 
L 352.014545 276.842232 
L 356.072727 276.142176 
L 360.130909 275.440608 
L 364.189091 274.740552 
L 368.247273 274.042008 
L 372.305455 273.344976 
L 376.363636 272.647944 
L 380.421818 271.955448 
L 384.48 271.265976 
L 388.538182 270.579528 
L 392.596364 269.897616 
L 396.654545 269.221752 
L 400.712727 268.551936 
L 404.770909 267.88968 
L 408.829091 267.236496 
L 412.887273 266.590872 
L 416.945455 265.957344 
L 421.003636 265.335912 
L 425.061818 264.726576 
L 429.12 264.133872 
L 433.178182 263.556288 
L 437.236364 262.99836 
L 441.294545 262.460088 
L 445.352727 261.944496 
L 449.410909 261.451584 
L 453.469091 260.9874 
L 457.527273 260.551944 
L 461.585455 260.146728 
L 465.643636 259.776288 
L 469.701818 259.442136 
L 473.76 259.145784 
L 477.818182 258.891768 
L 481.876364 258.680088 
L 485.934545 258.513768 
L 489.992727 258.392808 
L 494.050909 258.320232 
L 498.109091 258.29604 
" clip-path="url(#pecec160d47)" style="fill: none; stroke: #000000; stroke-opacity: 0.5; stroke-linecap: square"/>
   </g>
   <g id="line2d_18">
    <path d="M 92.290909 261.416808 
L 96.349091 261.533232 
L 100.407273 261.815976 
L 104.465455 262.168272 
L 108.523636 262.541736 
L 112.581818 262.913688 
L 116.64 263.275056 
L 120.698182 263.621304 
L 124.756364 263.947896 
L 128.814545 264.254832 
L 132.872727 264.542112 
L 136.930909 264.806712 
L 140.989091 265.048632 
L 145.047273 265.270896 
L 149.105455 265.468968 
L 153.163636 265.645872 
L 157.221818 265.800096 
L 161.28 265.933152 
L 165.338182 266.043528 
L 169.396364 266.132736 
L 173.454545 266.199264 
L 177.512727 266.246136 
L 181.570909 266.270328 
L 185.629091 266.274864 
L 189.687273 266.258232 
L 193.745455 266.220432 
L 197.803636 266.162976 
L 201.861818 266.085864 
L 205.92 265.989096 
L 209.978182 265.872672 
L 214.036364 265.736592 
L 218.094545 265.580856 
L 222.152727 265.408488 
L 226.210909 265.216464 
L 230.269091 265.006296 
L 234.327273 264.777984 
L 238.385455 264.531528 
L 242.443636 264.26844 
L 246.501818 263.987208 
L 250.56 263.690856 
L 254.618182 263.37636 
L 258.676364 263.046744 
L 262.734545 262.700496 
L 266.792727 262.337616 
L 270.850909 261.959616 
L 274.909091 261.566496 
L 278.967273 261.158256 
L 283.025455 260.734896 
L 287.083636 260.296416 
L 291.141818 259.84584 
L 295.2 259.378632 
L 299.258182 258.899328 
L 303.316364 258.406416 
L 307.374545 257.901408 
L 311.432727 257.38128 
L 315.490909 256.850568 
L 319.549091 256.30776 
L 323.607273 255.751344 
L 327.665455 255.185856 
L 331.723636 254.60676 
L 335.781818 254.018592 
L 339.84 253.41984 
L 343.898182 252.812016 
L 347.956364 252.193608 
L 352.014545 251.56764 
L 356.072727 250.931088 
L 360.130909 250.288488 
L 364.189091 249.638328 
L 368.247273 248.980608 
L 372.305455 248.318352 
L 376.363636 247.650048 
L 380.421818 246.977208 
L 384.48 246.299832 
L 388.538182 245.620944 
L 392.596364 244.939032 
L 396.654545 244.25712 
L 400.712727 243.57672 
L 404.770909 242.89632 
L 408.829091 242.218944 
L 412.887273 241.546104 
L 416.945455 240.879312 
L 421.003636 240.22008 
L 425.061818 239.56992 
L 429.12 238.933368 
L 433.178182 238.308912 
L 437.236364 237.699576 
L 441.294545 237.109896 
L 445.352727 236.542896 
L 449.410909 235.998576 
L 453.469091 235.481472 
L 457.527273 234.993096 
L 461.585455 234.539496 
L 465.643636 234.123696 
L 469.701818 233.745696 
L 473.76 233.411544 
L 477.818182 233.124264 
L 481.876364 232.88688 
L 485.934545 232.70544 
L 489.992727 232.596576 
L 494.050909 232.579944 
L 498.109091 232.587504 
" clip-path="url(#pecec160d47)" style="fill: none; stroke: #000000; stroke-opacity: 0.5; stroke-linecap: square"/>
   </g>
   <g id="line2d_19">
    <path d="M 92.290909 259.451208 
L 96.349091 259.313616 
L 100.407273 258.962832 
L 104.465455 258.497136 
L 108.523636 257.966424 
L 112.581818 257.391864 
L 116.64 256.78404 
L 120.698182 256.147488 
L 124.756364 255.486744 
L 128.814545 254.80332 
L 132.872727 254.098728 
L 136.930909 253.37448 
L 140.989091 252.630576 
L 145.047273 251.87004 
L 149.105455 251.092872 
L 153.163636 250.299072 
L 157.221818 249.491664 
L 161.28 248.670648 
L 165.338182 247.837536 
L 169.396364 246.99384 
L 173.454545 246.13956 
L 177.512727 245.276208 
L 181.570909 244.405296 
L 185.629091 243.528336 
L 189.687273 242.64684 
L 193.745455 241.76232 
L 197.803636 240.876288 
L 201.861818 239.990256 
L 205.92 239.105736 
L 209.978182 238.22424 
L 214.036364 237.348792 
L 218.094545 236.480904 
L 222.152727 235.620576 
L 226.210909 234.772344 
L 230.269091 233.93772 
L 234.327273 233.119728 
L 238.385455 232.318368 
L 242.443636 231.536664 
L 246.501818 230.779152 
L 250.56 230.04432 
L 254.618182 229.338216 
L 258.676364 228.66084 
L 262.734545 228.013704 
L 266.792727 227.399832 
L 270.850909 226.820736 
L 274.909091 226.27944 
L 278.967273 225.775944 
L 283.025455 225.31176 
L 287.083636 224.886888 
L 291.141818 224.50284 
L 295.2 224.161128 
L 299.258182 223.86024 
L 303.316364 223.600176 
L 307.374545 223.380936 
L 311.432727 223.201008 
L 315.490909 223.060392 
L 319.549091 222.957576 
L 323.607273 222.89256 
L 327.665455 222.860808 
L 331.723636 222.86232 
L 335.781818 222.897096 
L 339.84 222.9606 
L 343.898182 223.054344 
L 347.956364 223.17228 
L 352.014545 223.317432 
L 356.072727 223.485264 
L 360.130909 223.674264 
L 364.189091 223.88292 
L 368.247273 224.111232 
L 372.305455 224.356176 
L 376.363636 224.61624 
L 380.421818 224.891424 
L 384.48 225.178704 
L 388.538182 225.47808 
L 392.596364 225.78804 
L 396.654545 226.107072 
L 400.712727 226.432152 
L 404.770909 226.766304 
L 408.829091 227.10348 
L 412.887273 227.446704 
L 416.945455 227.79144 
L 421.003636 228.136176 
L 425.061818 228.482424 
L 429.12 228.82716 
L 433.178182 229.16736 
L 437.236364 229.503024 
L 441.294545 229.831128 
L 445.352727 230.151672 
L 449.410909 230.461632 
L 453.469091 230.757984 
L 457.527273 231.039216 
L 461.585455 231.303816 
L 465.643636 231.54876 
L 469.701818 231.771024 
L 473.76 231.969096 
L 477.818182 232.139952 
L 481.876364 232.28208 
L 485.934545 232.38792 
L 489.992727 232.442352 
L 494.050909 232.42572 
L 498.109091 232.409088 
" clip-path="url(#pecec160d47)" style="fill: none; stroke: #000000; stroke-opacity: 0.5; stroke-linecap: square"/>
   </g>
   <g id="line2d_20">
    <path d="M 92.290909 140.600448 
L 96.349091 140.973912 
L 100.407273 141.689088 
L 104.465455 142.516152 
L 108.523636 143.400672 
L 112.581818 144.324504 
L 116.64 145.27404 
L 120.698182 146.237184 
L 124.756364 147.210912 
L 128.814545 148.186152 
L 132.872727 149.161392 
L 136.930909 150.130584 
L 140.989091 151.093728 
L 145.047273 152.046288 
L 149.105455 152.986752 
L 153.163636 153.91512 
L 157.221818 154.826856 
L 161.28 155.723472 
L 165.338182 156.601944 
L 169.396364 157.462272 
L 173.454545 158.301432 
L 177.512727 159.120936 
L 181.570909 159.916248 
L 185.629091 160.68888 
L 189.687273 161.43732 
L 193.745455 162.160056 
L 197.803636 162.855576 
L 201.861818 163.522368 
L 205.92 164.160432 
L 209.978182 164.765232 
L 214.036364 165.339792 
L 218.094545 165.879576 
L 222.152727 166.383072 
L 226.210909 166.85028 
L 230.269091 167.276664 
L 234.327273 167.663736 
L 238.385455 168.008472 
L 242.443636 168.30936 
L 246.501818 168.563376 
L 250.56 168.77052 
L 254.618182 168.927768 
L 258.676364 169.033608 
L 262.734545 169.08804 
L 266.792727 169.086528 
L 270.850909 169.030584 
L 274.909091 168.917184 
L 278.967273 168.74784 
L 283.025455 168.519528 
L 287.083636 168.232248 
L 291.141818 167.887512 
L 295.2 167.483808 
L 299.258182 167.022648 
L 303.316364 166.505544 
L 307.374545 165.932496 
L 311.432727 165.303504 
L 315.490909 164.623104 
L 319.549091 163.892808 
L 323.607273 163.112616 
L 327.665455 162.287064 
L 331.723636 161.417664 
L 335.781818 160.50744 
L 339.84 159.559416 
L 343.898182 158.578128 
L 347.956364 157.571136 
L 352.014545 156.549024 
L 356.072727 155.590416 
L 360.130909 155.70684 
L 364.189091 156.990528 
L 368.247273 158.361912 
L 372.305455 159.73632 
L 376.363636 161.098632 
L 380.421818 162.447336 
L 384.48 163.777896 
L 388.538182 165.0888 
L 392.596364 166.38156 
L 396.654545 167.65164 
L 400.712727 168.89904 
L 404.770909 170.122248 
L 408.829091 171.319752 
L 412.887273 172.491552 
L 416.945455 173.633112 
L 421.003636 174.744432 
L 425.061818 175.824 
L 429.12 176.86728 
L 433.178182 177.875784 
L 437.236364 178.843464 
L 441.294545 179.77032 
L 445.352727 180.653328 
L 449.410909 181.487952 
L 453.469091 182.27268 
L 457.527273 183.004488 
L 461.585455 183.680352 
L 465.643636 184.295736 
L 469.701818 184.847616 
L 473.76 185.332968 
L 477.818182 185.75028 
L 481.876364 186.096528 
L 485.934545 186.367176 
L 489.992727 186.562224 
L 494.050909 186.68016 
L 498.109091 186.719472 
" clip-path="url(#pecec160d47)" style="fill: none; stroke: #000000; stroke-opacity: 0.5; stroke-linecap: square"/>
   </g>
   <g id="line2d_21">
    <path d="M 92.290909 139.504248 
L 96.349091 139.213944 
L 100.407273 138.746736 
L 104.465455 138.317328 
L 108.523636 137.957472 
L 112.581818 137.664144 
L 116.64 137.425248 
L 120.698182 137.228688 
L 124.756364 137.062368 
L 128.814545 136.92024 
L 132.872727 136.793232 
L 136.930909 136.675296 
L 140.989091 136.56492 
L 145.047273 136.457568 
L 149.105455 136.351728 
L 153.163636 136.245888 
L 157.221818 136.137024 
L 161.28 136.025136 
L 165.338182 135.910224 
L 169.396364 135.789264 
L 173.454545 135.66528 
L 177.512727 135.535248 
L 181.570909 135.399168 
L 185.629091 135.25704 
L 189.687273 135.108864 
L 193.745455 134.956152 
L 197.803636 134.79588 
L 201.861818 134.62956 
L 205.92 134.457192 
L 209.978182 134.278776 
L 214.036364 134.094312 
L 218.094545 133.9038 
L 222.152727 133.70724 
L 226.210909 133.506144 
L 230.269091 133.300512 
L 234.327273 133.088832 
L 238.385455 132.874128 
L 242.443636 132.654888 
L 246.501818 132.432624 
L 250.56 132.21036 
L 254.618182 131.986584 
L 258.676364 131.765832 
L 262.734545 131.549616 
L 266.792727 131.343984 
L 270.850909 131.154984 
L 274.909091 130.996224 
L 278.967273 130.891896 
L 283.025455 130.88736 
L 287.083636 131.064264 
L 291.141818 131.539032 
L 295.2 132.379704 
L 299.258182 133.516728 
L 303.316364 134.832168 
L 307.374545 136.244376 
L 311.432727 137.70648 
L 315.490909 139.1958 
L 319.549091 140.695704 
L 323.607273 142.201656 
L 327.665455 143.706096 
L 331.723636 145.206 
L 335.781818 146.699856 
L 339.84 148.183128 
L 343.898182 149.655816 
L 347.956364 151.111872 
L 352.014545 152.540712 
L 356.072727 153.866736 
L 360.130909 154.082952 
L 364.189091 153.100152 
L 368.247273 152.00244 
L 372.305455 150.886584 
L 376.363636 149.776776 
L 380.421818 148.69872 
L 384.48 147.697776 
L 388.538182 146.863152 
L 392.596364 146.34 
L 396.654545 146.265912 
L 400.712727 146.600064 
L 404.770909 147.176136 
L 408.829091 147.865608 
L 412.887273 148.60044 
L 416.945455 149.344344 
L 421.003636 150.080688 
L 425.061818 150.797376 
L 429.12 151.489872 
L 433.178182 152.15364 
L 437.236364 152.784144 
L 441.294545 153.379872 
L 445.352727 153.940824 
L 449.410909 154.463976 
L 453.469091 154.947816 
L 457.527273 155.392344 
L 461.585455 155.79756 
L 465.643636 156.16044 
L 469.701818 156.482496 
L 473.76 156.763728 
L 477.818182 157.001112 
L 481.876364 157.19616 
L 485.934545 157.34736 
L 489.992727 157.456224 
L 494.050909 157.522752 
L 498.109091 157.54392 
" clip-path="url(#pecec160d47)" style="fill: none; stroke: #000000; stroke-opacity: 0.5; stroke-linecap: square"/>
   </g>
   <g id="line2d_22">
    <path d="M 92.290909 130.972032 
L 96.349091 130.922136 
L 100.407273 130.78152 
L 104.465455 130.575888 
L 108.523636 130.33548 
L 112.581818 130.087512 
L 116.64 129.845592 
L 120.698182 129.611232 
L 124.756364 129.38292 
L 128.814545 129.154608 
L 132.872727 128.92176 
L 136.930909 128.681352 
L 140.989091 128.43036 
L 145.047273 128.168784 
L 149.105455 127.8936 
L 153.163636 127.604808 
L 157.221818 127.300896 
L 161.28 126.983376 
L 165.338182 126.650736 
L 169.396364 126.302976 
L 173.454545 125.940096 
L 177.512727 125.562096 
L 181.570909 125.168976 
L 185.629091 124.760736 
L 189.687273 124.338888 
L 193.745455 123.90192 
L 197.803636 123.451344 
L 201.861818 122.985648 
L 205.92 122.506344 
L 209.978182 122.01192 
L 214.036364 121.5054 
L 218.094545 120.985272 
L 222.152727 120.453048 
L 226.210909 119.908728 
L 230.269091 119.353824 
L 234.327273 118.788336 
L 238.385455 118.2168 
L 242.443636 117.640728 
L 246.501818 117.06768 
L 250.56 116.521848 
L 254.618182 116.089416 
L 258.676364 116.2512 
L 262.734545 117.43056 
L 266.792727 118.913832 
L 270.850909 120.437928 
L 274.909091 121.94388 
L 278.967273 123.396912 
L 283.025455 124.745616 
L 287.083636 125.903808 
L 291.141818 126.756576 
L 295.2 127.23588 
L 299.258182 127.408248 
L 303.316364 127.391616 
L 307.374545 127.270656 
L 311.432727 127.090728 
L 315.490909 126.877536 
L 319.549091 126.6462 
L 323.607273 126.413352 
L 327.665455 126.201672 
L 331.723636 126.092808 
L 335.781818 126.446616 
L 339.84 127.479312 
L 343.898182 128.71764 
L 347.956364 129.989232 
L 352.014545 131.254776 
L 356.072727 132.500664 
L 360.130909 133.720848 
L 364.189091 134.90928 
L 368.247273 136.061424 
L 372.305455 137.166696 
L 376.363636 138.213 
L 380.421818 139.179168 
L 384.48 140.021352 
L 388.538182 140.653368 
L 392.596364 140.931576 
L 396.654545 140.719896 
L 400.712727 140.059152 
L 404.770909 139.117176 
L 408.829091 138.025512 
L 412.887273 136.855224 
L 416.945455 135.639576 
L 421.003636 134.401248 
L 425.061818 133.152336 
L 429.12 131.901912 
L 433.178182 130.657536 
L 437.236364 129.422232 
L 441.294545 128.205072 
L 445.352727 127.012104 
L 449.410909 125.847864 
L 453.469091 124.719912 
L 457.527273 123.63732 
L 461.585455 122.606136 
L 465.643636 121.638456 
L 469.701818 120.74184 
L 473.76 119.931408 
L 477.818182 119.217744 
L 481.876364 118.615968 
L 485.934545 118.139688 
L 489.992727 117.820656 
L 494.050909 117.678528 
L 498.109091 117.648288 
" clip-path="url(#pecec160d47)" style="fill: none; stroke: #000000; stroke-opacity: 0.5; stroke-linecap: square"/>
   </g>
   <g id="line2d_23">
    <path d="M 92.290909 127.743912 
L 96.349091 127.68192 
L 100.407273 127.494432 
L 104.465455 127.169352 
L 108.523636 126.696096 
L 112.581818 126.07164 
L 116.64 125.30808 
L 120.698182 124.425072 
L 124.756364 123.442272 
L 128.814545 122.380848 
L 132.872727 121.254408 
L 136.930909 120.07656 
L 140.989091 118.854864 
L 145.047273 117.598392 
L 149.105455 116.310168 
L 153.163636 114.99624 
L 157.221818 113.65812 
L 161.28 112.300344 
L 165.338182 110.925936 
L 169.396364 109.534896 
L 173.454545 108.130248 
L 177.512727 106.713504 
L 181.570909 105.2892 
L 185.629091 103.86036 
L 189.687273 102.43152 
L 193.745455 101.013264 
L 197.803636 99.625248 
L 201.861818 98.321904 
L 205.92 97.269552 
L 209.978182 96.964128 
L 214.036364 97.762464 
L 218.094545 99.12024 
L 222.152727 100.660968 
L 226.210909 102.268224 
L 230.269091 103.902696 
L 234.327273 105.549264 
L 238.385455 107.195832 
L 242.443636 108.836352 
L 246.501818 110.461752 
L 250.56 112.046328 
L 254.618182 113.503896 
L 258.676364 114.355152 
L 262.734545 114.1722 
L 266.792727 113.676264 
L 270.850909 113.12892 
L 274.909091 112.595184 
L 278.967273 112.117392 
L 283.025455 111.762072 
L 287.083636 111.63204 
L 291.141818 111.861864 
L 295.2 112.51656 
L 299.258182 113.512968 
L 303.316364 114.718032 
L 307.374545 116.034984 
L 311.432727 117.404856 
L 315.490909 118.797408 
L 319.549091 120.192984 
L 323.607273 121.574952 
L 327.665455 122.917608 
L 331.723636 124.134768 
L 335.781818 124.868088 
L 339.84 124.901352 
L 343.898182 124.704792 
L 347.956364 124.450776 
L 352.014545 124.177104 
L 356.072727 123.895872 
L 360.130909 123.610104 
L 364.189091 123.322824 
L 368.247273 123.037056 
L 372.305455 122.751288 
L 376.363636 122.470056 
L 380.421818 122.190336 
L 384.48 121.915152 
L 388.538182 121.644504 
L 392.596364 121.379904 
L 396.654545 121.11984 
L 400.712727 120.865824 
L 404.770909 120.617856 
L 408.829091 120.377448 
L 412.887273 120.1446 
L 416.945455 119.919312 
L 421.003636 119.703096 
L 425.061818 119.49444 
L 429.12 119.294856 
L 433.178182 119.105856 
L 437.236364 118.925928 
L 441.294545 118.755072 
L 445.352727 118.5948 
L 449.410909 118.446624 
L 453.469091 118.30752 
L 457.527273 118.180512 
L 461.585455 118.064088 
L 465.643636 117.95976 
L 469.701818 117.866016 
L 473.76 117.784368 
L 477.818182 117.713304 
L 481.876364 117.651312 
L 485.934545 117.593856 
L 489.992727 117.525816 
L 494.050909 117.429048 
L 498.109091 117.380664 
" clip-path="url(#pecec160d47)" style="fill: none; stroke: #000000; stroke-opacity: 0.5; stroke-linecap: square"/>
   </g>
   <g id="patch_3">
    <path d="M 72 384.48 
L 72 51.84 
" style="fill: none; stroke: #000000; stroke-width: 0.8; stroke-linejoin: miter; stroke-linecap: square"/>
   </g>
   <g id="patch_4">
    <path d="M 518.4 384.48 
L 518.4 51.84 
" style="fill: none; stroke: #000000; stroke-width: 0.8; stroke-linejoin: miter; stroke-linecap: square"/>
   </g>
   <g id="patch_5">
    <path d="M 72 384.48 
L 518.4 384.48 
" style="fill: none; stroke: #000000; stroke-width: 0.8; stroke-linejoin: miter; stroke-linecap: square"/>
   </g>
   <g id="patch_6">
    <path d="M 72 51.84 
L 518.4 51.84 
" style="fill: none; stroke: #000000; stroke-width: 0.8; stroke-linejoin: miter; stroke-linecap: square"/>
   </g>
  </g>
 </g>
 <defs>
  <clipPath id="pecec160d47">
   <rect x="72" y="51.84" width="446.4" height="332.64"/>
  </clipPath>
 </defs>
</svg>
