<?xml version="1.0" encoding="utf-8" standalone="no"?>
<!DOCTYPE svg PUBLIC "-//W3C//DTD SVG 1.1//EN"
  "http://www.w3.org/Graphics/SVG/1.1/DTD/svg11.dtd">
<svg xmlns:xlink="http://www.w3.org/1999/xlink" width="576pt" height="432pt" viewBox="0 0 576 432" xmlns="http://www.w3.org/2000/svg" version="1.1">
 <metadata>
  <rdf:RDF xmlns:dc="http://purl.org/dc/elements/1.1/" xmlns:cc="http://creativecommons.org/ns#" xmlns:rdf="http://www.w3.org/1999/02/22-rdf-syntax-ns#">
   <cc:Work>
    <dc:type rdf:resource="http://purl.org/dc/dcmitype/StillImage"/>
    <dc:date>2023-05-02T15:45:32.248810</dc:date>
    <dc:format>image/svg+xml</dc:format>
    <dc:creator>
     <cc:Agent>
      <dc:title>Matplotlib v3.7.1, https://matplotlib.org/</dc:title>
     </cc:Agent>
    </dc:creator>
   </cc:Work>
  </rdf:RDF>
 </metadata>
 <defs>
  <style type="text/css">*{stroke-linejoin: round; stroke-linecap: butt}</style>
 </defs>
 <g id="figure_1">
  <g id="patch_1">
   <path d="M 0 432 
L 576 432 
L 576 0 
L 0 0 
z
" style="fill: #ffffff"/>
  </g>
  <g id="axes_1">
   <g id="patch_2">
    <path d="M 72 384.48 
L 518.4 384.48 
L 518.4 51.84 
L 72 51.84 
z
" style="fill: #ffffff"/>
   </g>
   <g id="matplotlib.axis_1">
    <g id="xtick_1">
     <g id="line2d_1">
      <defs>
       <path id="m3fc6ab56e6" d="M 0 0 
L 0 3.5 
" style="stroke: #000000; stroke-width: 0.8"/>
      </defs>
      <g>
       <use xlink:href="#m3fc6ab56e6" x="92.290909" y="384.48" style="stroke: #000000; stroke-width: 0.8"/>
      </g>
     </g>
     <g id="text_1">
      <!-- 0.0 -->
      <g transform="translate(84.339347 399.078438) scale(0.1 -0.1)">
       <defs>
        <path id="DejaVuSans-30" d="M 2034 4250 
Q 1547 4250 1301 3770 
Q 1056 3291 1056 2328 
Q 1056 1369 1301 889 
Q 1547 409 2034 409 
Q 2525 409 2770 889 
Q 3016 1369 3016 2328 
Q 3016 3291 2770 3770 
Q 2525 4250 2034 4250 
z
M 2034 4750 
Q 2819 4750 3233 4129 
Q 3647 3509 3647 2328 
Q 3647 1150 3233 529 
Q 2819 -91 2034 -91 
Q 1250 -91 836 529 
Q 422 1150 422 2328 
Q 422 3509 836 4129 
Q 1250 4750 2034 4750 
z
" transform="scale(0.015625)"/>
        <path id="DejaVuSans-2e" d="M 684 794 
L 1344 794 
L 1344 0 
L 684 0 
L 684 794 
z
" transform="scale(0.015625)"/>
       </defs>
       <use xlink:href="#DejaVuSans-30"/>
       <use xlink:href="#DejaVuSans-2e" x="63.623047"/>
       <use xlink:href="#DejaVuSans-30" x="95.410156"/>
      </g>
     </g>
    </g>
    <g id="xtick_2">
     <g id="line2d_2">
      <g>
       <use xlink:href="#m3fc6ab56e6" x="173.454545" y="384.48" style="stroke: #000000; stroke-width: 0.8"/>
      </g>
     </g>
     <g id="text_2">
      <!-- 0.2 -->
      <g transform="translate(165.502983 399.078438) scale(0.1 -0.1)">
       <defs>
        <path id="DejaVuSans-32" d="M 1228 531 
L 3431 531 
L 3431 0 
L 469 0 
L 469 531 
Q 828 903 1448 1529 
Q 2069 2156 2228 2338 
Q 2531 2678 2651 2914 
Q 2772 3150 2772 3378 
Q 2772 3750 2511 3984 
Q 2250 4219 1831 4219 
Q 1534 4219 1204 4116 
Q 875 4013 500 3803 
L 500 4441 
Q 881 4594 1212 4672 
Q 1544 4750 1819 4750 
Q 2544 4750 2975 4387 
Q 3406 4025 3406 3419 
Q 3406 3131 3298 2873 
Q 3191 2616 2906 2266 
Q 2828 2175 2409 1742 
Q 1991 1309 1228 531 
z
" transform="scale(0.015625)"/>
       </defs>
       <use xlink:href="#DejaVuSans-30"/>
       <use xlink:href="#DejaVuSans-2e" x="63.623047"/>
       <use xlink:href="#DejaVuSans-32" x="95.410156"/>
      </g>
     </g>
    </g>
    <g id="xtick_3">
     <g id="line2d_3">
      <g>
       <use xlink:href="#m3fc6ab56e6" x="254.618182" y="384.48" style="stroke: #000000; stroke-width: 0.8"/>
      </g>
     </g>
     <g id="text_3">
      <!-- 0.4 -->
      <g transform="translate(246.666619 399.078438) scale(0.1 -0.1)">
       <defs>
        <path id="DejaVuSans-34" d="M 2419 4116 
L 825 1625 
L 2419 1625 
L 2419 4116 
z
M 2253 4666 
L 3047 4666 
L 3047 1625 
L 3713 1625 
L 3713 1100 
L 3047 1100 
L 3047 0 
L 2419 0 
L 2419 1100 
L 313 1100 
L 313 1709 
L 2253 4666 
z
" transform="scale(0.015625)"/>
       </defs>
       <use xlink:href="#DejaVuSans-30"/>
       <use xlink:href="#DejaVuSans-2e" x="63.623047"/>
       <use xlink:href="#DejaVuSans-34" x="95.410156"/>
      </g>
     </g>
    </g>
    <g id="xtick_4">
     <g id="line2d_4">
      <g>
       <use xlink:href="#m3fc6ab56e6" x="335.781818" y="384.48" style="stroke: #000000; stroke-width: 0.8"/>
      </g>
     </g>
     <g id="text_4">
      <!-- 0.6 -->
      <g transform="translate(327.830256 399.078438) scale(0.1 -0.1)">
       <defs>
        <path id="DejaVuSans-36" d="M 2113 2584 
Q 1688 2584 1439 2293 
Q 1191 2003 1191 1497 
Q 1191 994 1439 701 
Q 1688 409 2113 409 
Q 2538 409 2786 701 
Q 3034 994 3034 1497 
Q 3034 2003 2786 2293 
Q 2538 2584 2113 2584 
z
M 3366 4563 
L 3366 3988 
Q 3128 4100 2886 4159 
Q 2644 4219 2406 4219 
Q 1781 4219 1451 3797 
Q 1122 3375 1075 2522 
Q 1259 2794 1537 2939 
Q 1816 3084 2150 3084 
Q 2853 3084 3261 2657 
Q 3669 2231 3669 1497 
Q 3669 778 3244 343 
Q 2819 -91 2113 -91 
Q 1303 -91 875 529 
Q 447 1150 447 2328 
Q 447 3434 972 4092 
Q 1497 4750 2381 4750 
Q 2619 4750 2861 4703 
Q 3103 4656 3366 4563 
z
" transform="scale(0.015625)"/>
       </defs>
       <use xlink:href="#DejaVuSans-30"/>
       <use xlink:href="#DejaVuSans-2e" x="63.623047"/>
       <use xlink:href="#DejaVuSans-36" x="95.410156"/>
      </g>
     </g>
    </g>
    <g id="xtick_5">
     <g id="line2d_5">
      <g>
       <use xlink:href="#m3fc6ab56e6" x="416.945455" y="384.48" style="stroke: #000000; stroke-width: 0.8"/>
      </g>
     </g>
     <g id="text_5">
      <!-- 0.8 -->
      <g transform="translate(408.993892 399.078438) scale(0.1 -0.1)">
       <defs>
        <path id="DejaVuSans-38" d="M 2034 2216 
Q 1584 2216 1326 1975 
Q 1069 1734 1069 1313 
Q 1069 891 1326 650 
Q 1584 409 2034 409 
Q 2484 409 2743 651 
Q 3003 894 3003 1313 
Q 3003 1734 2745 1975 
Q 2488 2216 2034 2216 
z
M 1403 2484 
Q 997 2584 770 2862 
Q 544 3141 544 3541 
Q 544 4100 942 4425 
Q 1341 4750 2034 4750 
Q 2731 4750 3128 4425 
Q 3525 4100 3525 3541 
Q 3525 3141 3298 2862 
Q 3072 2584 2669 2484 
Q 3125 2378 3379 2068 
Q 3634 1759 3634 1313 
Q 3634 634 3220 271 
Q 2806 -91 2034 -91 
Q 1263 -91 848 271 
Q 434 634 434 1313 
Q 434 1759 690 2068 
Q 947 2378 1403 2484 
z
M 1172 3481 
Q 1172 3119 1398 2916 
Q 1625 2713 2034 2713 
Q 2441 2713 2670 2916 
Q 2900 3119 2900 3481 
Q 2900 3844 2670 4047 
Q 2441 4250 2034 4250 
Q 1625 4250 1398 4047 
Q 1172 3844 1172 3481 
z
" transform="scale(0.015625)"/>
       </defs>
       <use xlink:href="#DejaVuSans-30"/>
       <use xlink:href="#DejaVuSans-2e" x="63.623047"/>
       <use xlink:href="#DejaVuSans-38" x="95.410156"/>
      </g>
     </g>
    </g>
    <g id="xtick_6">
     <g id="line2d_6">
      <g>
       <use xlink:href="#m3fc6ab56e6" x="498.109091" y="384.48" style="stroke: #000000; stroke-width: 0.8"/>
      </g>
     </g>
     <g id="text_6">
      <!-- 1.0 -->
      <g transform="translate(490.157528 399.078438) scale(0.1 -0.1)">
       <defs>
        <path id="DejaVuSans-31" d="M 794 531 
L 1825 531 
L 1825 4091 
L 703 3866 
L 703 4441 
L 1819 4666 
L 2450 4666 
L 2450 531 
L 3481 531 
L 3481 0 
L 794 0 
L 794 531 
z
" transform="scale(0.015625)"/>
       </defs>
       <use xlink:href="#DejaVuSans-31"/>
       <use xlink:href="#DejaVuSans-2e" x="63.623047"/>
       <use xlink:href="#DejaVuSans-30" x="95.410156"/>
      </g>
     </g>
    </g>
   </g>
   <g id="matplotlib.axis_2">
    <g id="ytick_1">
     <g id="line2d_7">
      <defs>
       <path id="m2a85a206ac" d="M 0 0 
L -3.5 0 
" style="stroke: #000000; stroke-width: 0.8"/>
      </defs>
      <g>
       <use xlink:href="#m2a85a206ac" x="72" y="369.36" style="stroke: #000000; stroke-width: 0.8"/>
      </g>
     </g>
     <g id="text_7">
      <!-- −5.0 -->
      <g transform="translate(40.717187 373.159219) scale(0.1 -0.1)">
       <defs>
        <path id="DejaVuSans-2212" d="M 678 2272 
L 4684 2272 
L 4684 1741 
L 678 1741 
L 678 2272 
z
" transform="scale(0.015625)"/>
        <path id="DejaVuSans-35" d="M 691 4666 
L 3169 4666 
L 3169 4134 
L 1269 4134 
L 1269 2991 
Q 1406 3038 1543 3061 
Q 1681 3084 1819 3084 
Q 2600 3084 3056 2656 
Q 3513 2228 3513 1497 
Q 3513 744 3044 326 
Q 2575 -91 1722 -91 
Q 1428 -91 1123 -41 
Q 819 9 494 109 
L 494 744 
Q 775 591 1075 516 
Q 1375 441 1709 441 
Q 2250 441 2565 725 
Q 2881 1009 2881 1497 
Q 2881 1984 2565 2268 
Q 2250 2553 1709 2553 
Q 1456 2553 1204 2497 
Q 953 2441 691 2322 
L 691 4666 
z
" transform="scale(0.015625)"/>
       </defs>
       <use xlink:href="#DejaVuSans-2212"/>
       <use xlink:href="#DejaVuSans-35" x="83.789062"/>
       <use xlink:href="#DejaVuSans-2e" x="147.412109"/>
       <use xlink:href="#DejaVuSans-30" x="179.199219"/>
      </g>
     </g>
    </g>
    <g id="ytick_2">
     <g id="line2d_8">
      <g>
       <use xlink:href="#m2a85a206ac" x="72" y="331.56" style="stroke: #000000; stroke-width: 0.8"/>
      </g>
     </g>
     <g id="text_8">
      <!-- −2.5 -->
      <g transform="translate(40.717187 335.359219) scale(0.1 -0.1)">
       <use xlink:href="#DejaVuSans-2212"/>
       <use xlink:href="#DejaVuSans-32" x="83.789062"/>
       <use xlink:href="#DejaVuSans-2e" x="147.412109"/>
       <use xlink:href="#DejaVuSans-35" x="179.199219"/>
      </g>
     </g>
    </g>
    <g id="ytick_3">
     <g id="line2d_9">
      <g>
       <use xlink:href="#m2a85a206ac" x="72" y="293.76" style="stroke: #000000; stroke-width: 0.8"/>
      </g>
     </g>
     <g id="text_9">
      <!-- 0.0 -->
      <g transform="translate(49.096875 297.559219) scale(0.1 -0.1)">
       <use xlink:href="#DejaVuSans-30"/>
       <use xlink:href="#DejaVuSans-2e" x="63.623047"/>
       <use xlink:href="#DejaVuSans-30" x="95.410156"/>
      </g>
     </g>
    </g>
    <g id="ytick_4">
     <g id="line2d_10">
      <g>
       <use xlink:href="#m2a85a206ac" x="72" y="255.96" style="stroke: #000000; stroke-width: 0.8"/>
      </g>
     </g>
     <g id="text_10">
      <!-- 2.5 -->
      <g transform="translate(49.096875 259.759219) scale(0.1 -0.1)">
       <use xlink:href="#DejaVuSans-32"/>
       <use xlink:href="#DejaVuSans-2e" x="63.623047"/>
       <use xlink:href="#DejaVuSans-35" x="95.410156"/>
      </g>
     </g>
    </g>
    <g id="ytick_5">
     <g id="line2d_11">
      <g>
       <use xlink:href="#m2a85a206ac" x="72" y="218.16" style="stroke: #000000; stroke-width: 0.8"/>
      </g>
     </g>
     <g id="text_11">
      <!-- 5.0 -->
      <g transform="translate(49.096875 221.959219) scale(0.1 -0.1)">
       <use xlink:href="#DejaVuSans-35"/>
       <use xlink:href="#DejaVuSans-2e" x="63.623047"/>
       <use xlink:href="#DejaVuSans-30" x="95.410156"/>
      </g>
     </g>
    </g>
    <g id="ytick_6">
     <g id="line2d_12">
      <g>
       <use xlink:href="#m2a85a206ac" x="72" y="180.36" style="stroke: #000000; stroke-width: 0.8"/>
      </g>
     </g>
     <g id="text_12">
      <!-- 7.5 -->
      <g transform="translate(49.096875 184.159219) scale(0.1 -0.1)">
       <defs>
        <path id="DejaVuSans-37" d="M 525 4666 
L 3525 4666 
L 3525 4397 
L 1831 0 
L 1172 0 
L 2766 4134 
L 525 4134 
L 525 4666 
z
" transform="scale(0.015625)"/>
       </defs>
       <use xlink:href="#DejaVuSans-37"/>
       <use xlink:href="#DejaVuSans-2e" x="63.623047"/>
       <use xlink:href="#DejaVuSans-35" x="95.410156"/>
      </g>
     </g>
    </g>
    <g id="ytick_7">
     <g id="line2d_13">
      <g>
       <use xlink:href="#m2a85a206ac" x="72" y="142.56" style="stroke: #000000; stroke-width: 0.8"/>
      </g>
     </g>
     <g id="text_13">
      <!-- 10.0 -->
      <g transform="translate(42.734375 146.359219) scale(0.1 -0.1)">
       <use xlink:href="#DejaVuSans-31"/>
       <use xlink:href="#DejaVuSans-30" x="63.623047"/>
       <use xlink:href="#DejaVuSans-2e" x="127.246094"/>
       <use xlink:href="#DejaVuSans-30" x="159.033203"/>
      </g>
     </g>
    </g>
    <g id="ytick_8">
     <g id="line2d_14">
      <g>
       <use xlink:href="#m2a85a206ac" x="72" y="104.76" style="stroke: #000000; stroke-width: 0.8"/>
      </g>
     </g>
     <g id="text_14">
      <!-- 12.5 -->
      <g transform="translate(42.734375 108.559219) scale(0.1 -0.1)">
       <use xlink:href="#DejaVuSans-31"/>
       <use xlink:href="#DejaVuSans-32" x="63.623047"/>
       <use xlink:href="#DejaVuSans-2e" x="127.246094"/>
       <use xlink:href="#DejaVuSans-35" x="159.033203"/>
      </g>
     </g>
    </g>
    <g id="ytick_9">
     <g id="line2d_15">
      <g>
       <use xlink:href="#m2a85a206ac" x="72" y="66.96" style="stroke: #000000; stroke-width: 0.8"/>
      </g>
     </g>
     <g id="text_15">
      <!-- 15.0 -->
      <g transform="translate(42.734375 70.759219) scale(0.1 -0.1)">
       <use xlink:href="#DejaVuSans-31"/>
       <use xlink:href="#DejaVuSans-35" x="63.623047"/>
       <use xlink:href="#DejaVuSans-2e" x="127.246094"/>
       <use xlink:href="#DejaVuSans-30" x="159.033203"/>
      </g>
     </g>
    </g>
   </g>
   <g id="line2d_16">
    <path d="M 92.290909 371.534256 
L 96.349091 371.528208 
L 100.407273 371.508552 
L 104.465455 371.478312 
L 108.523636 371.435976 
L 112.581818 371.381544 
L 116.64 371.313504 
L 120.698182 371.23488 
L 124.756364 371.142648 
L 128.814545 371.03832 
L 132.872727 370.923408 
L 136.930909 370.794888 
L 140.989091 370.654272 
L 145.047273 370.503072 
L 149.105455 370.338264 
L 153.163636 370.16136 
L 157.221818 369.97236 
L 161.28 369.772776 
L 165.338182 369.559584 
L 169.396364 369.334296 
L 173.454545 369.098424 
L 177.512727 368.850456 
L 181.570909 368.58888 
L 185.629091 368.31672 
L 189.687273 368.032464 
L 193.745455 367.737624 
L 197.803636 367.429176 
L 201.861818 367.110144 
L 205.92 366.779016 
L 209.978182 366.435792 
L 214.036364 366.081984 
L 218.094545 365.71608 
L 222.152727 365.33808 
L 226.210909 364.949496 
L 230.269091 364.548816 
L 234.327273 364.137552 
L 238.385455 363.714192 
L 242.443636 363.280248 
L 246.501818 362.83572 
L 250.56 362.379096 
L 254.618182 361.911888 
L 258.676364 361.434096 
L 262.734545 360.944208 
L 266.792727 360.443736 
L 270.850909 359.934192 
L 274.909091 359.412552 
L 278.967273 358.880328 
L 283.025455 358.339032 
L 287.083636 357.78564 
L 291.141818 357.223176 
L 295.2 356.650128 
L 299.258182 356.068008 
L 303.316364 355.475304 
L 307.374545 354.872016 
L 311.432727 354.261168 
L 315.490909 353.638224 
L 319.549091 353.00772 
L 323.607273 352.366632 
L 327.665455 351.717984 
L 331.723636 351.058752 
L 335.781818 350.39196 
L 339.84 349.716096 
L 343.898182 349.032672 
L 347.956364 348.340176 
L 352.014545 347.638608 
L 356.072727 346.930992 
L 360.130909 346.214304 
L 364.189091 345.490056 
L 368.247273 344.75976 
L 372.305455 344.021904 
L 376.363636 343.276488 
L 380.421818 342.526536 
L 384.48 341.769024 
L 388.538182 341.005464 
L 392.596364 340.237368 
L 396.654545 339.463224 
L 400.712727 338.683032 
L 404.770909 337.899816 
L 408.829091 337.112064 
L 412.887273 336.321288 
L 416.945455 335.527488 
L 421.003636 334.730664 
L 425.061818 333.930816 
L 429.12 333.130968 
L 433.178182 332.33112 
L 437.236364 331.52976 
L 441.294545 330.731424 
L 445.352727 329.9346 
L 449.410909 329.142312 
L 453.469091 328.356072 
L 457.527273 327.578904 
L 461.585455 326.81232 
L 465.643636 326.062368 
L 469.701818 325.333584 
L 473.76 324.633528 
L 477.818182 323.975808 
L 481.876364 323.374032 
L 485.934545 322.852392 
L 489.992727 322.439616 
L 494.050909 322.17048 
L 498.109091 322.076736 
" clip-path="url(#p0c77b7f9bd)" style="fill: none; stroke: #000000; stroke-opacity: 0.5; stroke-linecap: square"/>
   </g>
   <g id="line2d_17">
    <path d="M 92.290909 243.664416 
L 96.349091 243.714312 
L 100.407273 243.860976 
L 104.465455 244.101384 
L 108.523636 244.427976 
L 112.581818 244.83168 
L 116.64 245.304936 
L 120.698182 245.83716 
L 124.756364 246.422304 
L 128.814545 247.051296 
L 132.872727 247.716576 
L 136.930909 248.41512 
L 140.989091 249.137856 
L 145.047273 249.884784 
L 149.105455 250.649856 
L 153.163636 251.43156 
L 157.221818 252.22536 
L 161.28 253.029744 
L 165.338182 253.8432 
L 169.396364 254.662704 
L 173.454545 255.488256 
L 177.512727 256.318344 
L 181.570909 257.151456 
L 185.629091 257.987592 
L 189.687273 258.82524 
L 193.745455 259.661376 
L 197.803636 260.499024 
L 201.861818 261.336672 
L 205.92 262.172808 
L 209.978182 263.00592 
L 214.036364 263.839032 
L 218.094545 264.66912 
L 222.152727 265.496184 
L 226.210909 266.320224 
L 230.269091 267.14124 
L 234.327273 267.959232 
L 238.385455 268.772688 
L 242.443636 269.58312 
L 246.501818 270.389016 
L 250.56 271.191888 
L 254.618182 271.990224 
L 258.676364 272.784024 
L 262.734545 273.573288 
L 266.792727 274.359528 
L 270.850909 275.141232 
L 274.909091 275.9184 
L 278.967273 276.692544 
L 283.025455 277.462152 
L 287.083636 278.227224 
L 291.141818 278.989272 
L 295.2 279.746784 
L 299.258182 280.501272 
L 303.316364 281.251224 
L 307.374545 281.998152 
L 311.432727 282.742056 
L 315.490909 283.484448 
L 319.549091 284.222304 
L 323.607273 284.957136 
L 327.665455 285.690456 
L 331.723636 286.422264 
L 335.781818 287.151048 
L 339.84 287.87832 
L 343.898182 288.605592 
L 347.956364 289.32984 
L 352.014545 290.054088 
L 356.072727 290.776824 
L 360.130909 291.501072 
L 364.189091 292.223808 
L 368.247273 292.946544 
L 372.305455 293.670792 
L 376.363636 294.39504 
L 380.421818 295.1208 
L 384.48 295.848072 
L 388.538182 296.576856 
L 392.596364 297.307152 
L 396.654545 298.03896 
L 400.712727 298.77228 
L 404.770909 299.508624 
L 408.829091 300.24648 
L 412.887273 300.98736 
L 416.945455 301.729752 
L 421.003636 302.475168 
L 425.061818 303.222096 
L 429.12 303.970536 
L 433.178182 304.720488 
L 437.236364 305.471952 
L 441.294545 306.223416 
L 445.352727 306.973368 
L 449.410909 307.721808 
L 453.469091 308.465712 
L 457.527273 309.20508 
L 461.585455 309.935376 
L 465.643636 310.653576 
L 469.701818 311.35212 
L 473.76 312.026472 
L 477.818182 312.663024 
L 481.876364 313.246656 
L 485.934545 313.754688 
L 489.992727 314.15688 
L 494.050909 314.418456 
L 498.109091 314.510688 
" clip-path="url(#p0c77b7f9bd)" style="fill: none; stroke: #000000; stroke-opacity: 0.5; stroke-linecap: square"/>
   </g>
   <g id="line2d_18">
    <path d="M 92.290909 226.465416 
L 96.349091 226.42308 
L 100.407273 226.296072 
L 104.465455 226.09044 
L 108.523636 225.813744 
L 112.581818 225.475056 
L 116.64 225.087984 
L 120.698182 224.672184 
L 124.756364 224.369784 
L 128.814545 224.586 
L 132.872727 224.973072 
L 136.930909 225.41004 
L 140.989091 225.880272 
L 145.047273 226.379232 
L 149.105455 226.903896 
L 153.163636 227.45124 
L 157.221818 228.019752 
L 161.28 228.604896 
L 165.338182 229.208184 
L 169.396364 229.823568 
L 173.454545 230.451048 
L 177.512727 231.090624 
L 181.570909 231.73776 
L 185.629091 232.392456 
L 189.687273 233.054712 
L 193.745455 233.719992 
L 197.803636 234.389808 
L 201.861818 235.061136 
L 205.92 235.735488 
L 209.978182 236.40984 
L 214.036364 237.08268 
L 218.094545 237.75552 
L 222.152727 238.426848 
L 226.210909 239.096664 
L 230.269091 239.761944 
L 234.327273 240.4242 
L 238.385455 241.08192 
L 242.443636 241.735104 
L 246.501818 242.383752 
L 250.56 243.026352 
L 254.618182 243.662904 
L 258.676364 244.291896 
L 262.734545 244.91484 
L 266.792727 245.531736 
L 270.850909 246.13956 
L 274.909091 246.741336 
L 278.967273 247.33404 
L 283.025455 247.917672 
L 287.083636 248.493744 
L 291.141818 249.060744 
L 295.2 249.618672 
L 299.258182 250.167528 
L 303.316364 250.7058 
L 307.374545 251.236512 
L 311.432727 251.755128 
L 315.490909 252.264672 
L 319.549091 252.765144 
L 323.607273 253.25352 
L 327.665455 253.732824 
L 331.723636 254.201544 
L 335.781818 254.658168 
L 339.84 255.10572 
L 343.898182 255.541176 
L 347.956364 255.964536 
L 352.014545 256.378824 
L 356.072727 256.779504 
L 360.130909 257.1696 
L 364.189091 257.549112 
L 368.247273 257.916528 
L 372.305455 258.271848 
L 376.363636 258.615072 
L 380.421818 258.947712 
L 384.48 259.268256 
L 388.538182 259.575192 
L 392.596364 259.871544 
L 396.654545 260.1558 
L 400.712727 260.42796 
L 404.770909 260.688024 
L 408.829091 260.935992 
L 412.887273 261.171864 
L 416.945455 261.394128 
L 421.003636 261.605808 
L 425.061818 261.805392 
L 429.12 261.994392 
L 433.178182 262.169784 
L 437.236364 262.33308 
L 441.294545 262.485792 
L 445.352727 262.626408 
L 449.410909 262.75644 
L 453.469091 262.874376 
L 457.527273 262.981728 
L 461.585455 263.078496 
L 465.643636 263.163168 
L 469.701818 263.238768 
L 473.76 263.302272 
L 477.818182 263.356704 
L 481.876364 263.402064 
L 485.934545 263.435328 
L 489.992727 263.45952 
L 494.050909 263.47464 
L 498.109091 263.479176 
" clip-path="url(#p0c77b7f9bd)" style="fill: none; stroke: #000000; stroke-opacity: 0.5; stroke-linecap: square"/>
   </g>
   <g id="line2d_19">
    <path d="M 92.290909 222.63552 
L 96.349091 222.659712 
L 100.407273 222.732288 
L 104.465455 222.853248 
L 108.523636 223.019568 
L 112.581818 223.231248 
L 116.64 223.480728 
L 120.698182 223.7544 
L 124.756364 223.916184 
L 128.814545 223.571448 
L 132.872727 223.067952 
L 136.930909 222.534216 
L 140.989091 221.986872 
L 145.047273 221.434992 
L 149.105455 220.8816 
L 153.163636 220.334256 
L 157.221818 219.795984 
L 161.28 219.268296 
L 165.338182 218.75724 
L 169.396364 218.26584 
L 173.454545 217.795608 
L 177.512727 217.348056 
L 181.570909 216.929232 
L 185.629091 216.540648 
L 189.687273 216.183816 
L 193.745455 215.860248 
L 197.803636 215.575992 
L 201.861818 215.329536 
L 205.92 215.123904 
L 209.978182 214.96212 
L 214.036364 214.844184 
L 218.094545 214.77312 
L 222.152727 214.75044 
L 226.210909 214.776144 
L 230.269091 214.851744 
L 234.327273 214.97724 
L 238.385455 215.152632 
L 242.443636 215.379432 
L 246.501818 215.654616 
L 250.56 215.979696 
L 254.618182 216.351648 
L 258.676364 216.770472 
L 262.734545 217.233144 
L 266.792727 217.739664 
L 270.850909 218.287008 
L 274.909091 218.873664 
L 278.967273 219.495096 
L 283.025455 220.151304 
L 287.083636 220.839264 
L 291.141818 221.55444 
L 295.2 222.296832 
L 299.258182 223.063416 
L 303.316364 223.851168 
L 307.374545 224.657064 
L 311.432727 225.481104 
L 315.490909 226.318752 
L 319.549091 227.166984 
L 323.607273 228.027312 
L 327.665455 228.893688 
L 331.723636 229.766112 
L 335.781818 230.643072 
L 339.84 231.521544 
L 343.898182 232.400016 
L 347.956364 233.278488 
L 352.014545 234.152424 
L 356.072727 235.020312 
L 360.130909 235.883664 
L 364.189091 236.737944 
L 368.247273 237.584664 
L 372.305455 238.419288 
L 376.363636 239.241816 
L 380.421818 240.050736 
L 384.48 240.844536 
L 388.538182 241.623216 
L 392.596364 242.385264 
L 396.654545 243.127656 
L 400.712727 243.851904 
L 404.770909 244.554984 
L 408.829091 245.236896 
L 412.887273 245.896128 
L 416.945455 246.53268 
L 421.003636 247.143528 
L 425.061818 247.730184 
L 429.12 248.291136 
L 433.178182 248.824872 
L 437.236364 249.32988 
L 441.294545 249.807672 
L 445.352727 250.255224 
L 449.410909 250.672536 
L 453.469091 251.06112 
L 457.527273 251.41644 
L 461.585455 251.740008 
L 465.643636 252.031824 
L 469.701818 252.290376 
L 473.76 252.515664 
L 477.818182 252.707688 
L 481.876364 252.864936 
L 485.934545 252.987408 
L 489.992727 253.075104 
L 494.050909 253.126512 
L 498.109091 253.144656 
" clip-path="url(#p0c77b7f9bd)" style="fill: none; stroke: #000000; stroke-opacity: 0.5; stroke-linecap: square"/>
   </g>
   <g id="line2d_20">
    <path d="M 92.290909 178.163064 
L 96.349091 178.132824 
L 100.407273 178.03908 
L 104.465455 177.883344 
L 108.523636 177.66864 
L 112.581818 177.393456 
L 116.64 177.060816 
L 120.698182 176.673744 
L 124.756364 176.233752 
L 128.814545 175.742352 
L 132.872727 175.20408 
L 136.930909 174.618936 
L 140.989091 173.991456 
L 145.047273 173.324664 
L 149.105455 172.621584 
L 153.163636 171.882216 
L 157.221818 171.112608 
L 161.28 170.31276 
L 165.338182 169.48872 
L 169.396364 168.642 
L 173.454545 167.777136 
L 177.512727 166.898664 
L 181.570909 166.014144 
L 185.629091 165.131136 
L 189.687273 164.263248 
L 193.745455 163.427112 
L 197.803636 162.651456 
L 201.861818 161.972568 
L 205.92 161.440344 
L 209.978182 161.08956 
L 214.036364 160.92324 
L 218.094545 160.909632 
L 222.152727 160.992792 
L 226.210909 161.130384 
L 230.269091 161.289144 
L 234.327273 161.443368 
L 238.385455 161.582472 
L 242.443636 161.69436 
L 246.501818 161.772984 
L 250.56 161.81532 
L 254.618182 161.819856 
L 258.676364 161.782056 
L 262.734545 161.703432 
L 266.792727 161.582472 
L 270.850909 161.420688 
L 274.909091 161.219592 
L 278.967273 160.977672 
L 283.025455 160.699464 
L 287.083636 160.384968 
L 291.141818 160.035696 
L 295.2 159.654672 
L 299.258182 159.243408 
L 303.316364 158.80644 
L 307.374545 158.348304 
L 311.432727 157.875048 
L 315.490909 157.397256 
L 319.549091 156.933072 
L 323.607273 156.520296 
L 327.665455 156.222432 
L 331.723636 156.10752 
L 335.781818 156.181608 
L 339.84 156.37968 
L 343.898182 156.642768 
L 347.956364 156.940632 
L 352.014545 157.252104 
L 356.072727 157.571136 
L 360.130909 157.890168 
L 364.189091 158.2092 
L 368.247273 158.523696 
L 372.305455 158.833656 
L 376.363636 159.136056 
L 380.421818 159.43392 
L 384.48 159.722712 
L 388.538182 160.003944 
L 392.596364 160.277616 
L 396.654545 160.542216 
L 400.712727 160.797744 
L 404.770909 161.045712 
L 408.829091 161.283096 
L 412.887273 161.511408 
L 416.945455 161.730648 
L 421.003636 161.939304 
L 425.061818 162.137376 
L 429.12 162.326376 
L 433.178182 162.506304 
L 437.236364 162.674136 
L 441.294545 162.832896 
L 445.352727 162.97956 
L 449.410909 163.117152 
L 453.469091 163.242648 
L 457.527273 163.359072 
L 461.585455 163.4634 
L 465.643636 163.557144 
L 469.701818 163.640304 
L 473.76 163.71288 
L 477.818182 163.77336 
L 481.876364 163.823256 
L 485.934545 163.862568 
L 489.992727 163.889784 
L 494.050909 163.906416 
L 498.109091 163.912464 
" clip-path="url(#p0c77b7f9bd)" style="fill: none; stroke: #000000; stroke-opacity: 0.5; stroke-linecap: square"/>
   </g>
   <g id="line2d_21">
    <path d="M 92.290909 144.448488 
L 96.349091 144.459072 
L 100.407273 144.493848 
L 104.465455 144.554328 
L 108.523636 144.645048 
L 112.581818 144.770544 
L 116.64 144.935352 
L 120.698182 145.147032 
L 124.756364 145.407096 
L 128.814545 145.723104 
L 132.872727 146.092032 
L 136.930909 146.515392 
L 140.989091 146.988648 
L 145.047273 147.505752 
L 149.105455 148.06368 
L 153.163636 148.651848 
L 157.221818 149.26572 
L 161.28 149.896224 
L 165.338182 150.5358 
L 169.396364 151.1784 
L 173.454545 151.81344 
L 177.512727 152.434872 
L 181.570909 153.032112 
L 185.629091 153.593064 
L 189.687273 154.102608 
L 193.745455 154.538064 
L 197.803636 154.870704 
L 201.861818 155.059704 
L 205.92 155.05668 
L 209.978182 154.82232 
L 214.036364 154.352088 
L 218.094545 153.68076 
L 222.152727 152.861256 
L 226.210909 151.938936 
L 230.269091 150.956136 
L 234.327273 149.949144 
L 238.385455 148.961808 
L 242.443636 148.077288 
L 246.501818 147.45132 
L 250.56 147.22452 
L 254.618182 147.321288 
L 258.676364 147.585888 
L 262.734545 147.929112 
L 266.792727 148.310136 
L 270.850909 148.710816 
L 274.909091 149.123592 
L 278.967273 149.542416 
L 283.025455 149.962752 
L 287.083636 150.383088 
L 291.141818 150.8004 
L 295.2 151.214688 
L 299.258182 151.621416 
L 303.316364 152.020584 
L 307.374545 152.407656 
L 311.432727 152.775072 
L 315.490909 153.116784 
L 319.549091 153.411624 
L 323.607273 153.624816 
L 327.665455 153.692856 
L 331.723636 153.549216 
L 335.781818 153.18936 
L 339.84 152.678304 
L 343.898182 152.076528 
L 347.956364 151.415784 
L 352.014545 150.71724 
L 356.072727 149.99148 
L 360.130909 149.24304 
L 364.189091 148.47948 
L 368.247273 147.705336 
L 372.305455 146.928168 
L 376.363636 146.154024 
L 380.421818 145.395 
L 384.48 144.670752 
L 388.538182 144.005472 
L 392.596364 143.438472 
L 396.654545 143.010576 
L 400.712727 142.753536 
L 404.770909 142.661304 
L 408.829091 142.69608 
L 412.887273 142.81704 
L 416.945455 142.989408 
L 421.003636 143.192016 
L 425.061818 143.40672 
L 429.12 143.627472 
L 433.178182 143.8452 
L 437.236364 144.058392 
L 441.294545 144.264024 
L 445.352727 144.45756 
L 449.410909 144.640512 
L 453.469091 144.811368 
L 457.527273 144.968616 
L 461.585455 145.112256 
L 465.643636 145.240776 
L 469.701818 145.354176 
L 473.76 145.453968 
L 477.818182 145.53864 
L 481.876364 145.608192 
L 485.934545 145.662624 
L 489.992727 145.700424 
L 494.050909 145.723104 
L 498.109091 145.730664 
" clip-path="url(#p0c77b7f9bd)" style="fill: none; stroke: #000000; stroke-opacity: 0.5; stroke-linecap: square"/>
   </g>
   <g id="line2d_22">
    <path d="M 92.290909 135.149688 
L 96.349091 135.157248 
L 100.407273 135.178416 
L 104.465455 135.210168 
L 108.523636 135.246456 
L 112.581818 135.281232 
L 116.64 135.3024 
L 120.698182 135.300888 
L 124.756364 135.269136 
L 128.814545 135.359856 
L 132.872727 135.548856 
L 136.930909 135.754488 
L 140.989091 135.97524 
L 145.047273 136.211112 
L 149.105455 136.462104 
L 153.163636 136.726704 
L 157.221818 137.004912 
L 161.28 137.296728 
L 165.338182 137.60064 
L 169.396364 137.91816 
L 173.454545 138.246264 
L 177.512727 138.586464 
L 181.570909 138.937248 
L 185.629091 139.297104 
L 189.687273 139.666032 
L 193.745455 140.044032 
L 197.803636 140.42808 
L 201.861818 140.819688 
L 205.92 141.215832 
L 209.978182 141.616512 
L 214.036364 142.018704 
L 218.094545 142.422408 
L 222.152727 142.823088 
L 226.210909 143.216208 
L 230.269091 143.594208 
L 234.327273 143.941968 
L 238.385455 144.226224 
L 242.443636 144.3744 
L 246.501818 144.235296 
L 250.56 143.675856 
L 254.618182 142.77168 
L 258.676364 141.681528 
L 262.734545 140.497632 
L 266.792727 139.260816 
L 270.850909 137.990736 
L 274.909091 136.697976 
L 278.967273 135.39312 
L 283.025455 134.082216 
L 287.083636 132.774336 
L 291.141818 131.487624 
L 295.2 130.253832 
L 299.258182 129.139488 
L 303.316364 128.303352 
L 307.374545 127.963152 
L 311.432727 128.12796 
L 315.490909 128.580048 
L 319.549091 129.154608 
L 323.607273 129.780576 
L 327.665455 130.423176 
L 331.723636 131.070312 
L 335.781818 131.7114 
L 339.84 132.341904 
L 343.898182 132.957288 
L 347.956364 133.557552 
L 352.014545 134.139672 
L 356.072727 134.702136 
L 360.130909 135.240408 
L 364.189091 135.754488 
L 368.247273 136.23984 
L 372.305455 136.691928 
L 376.363636 137.103192 
L 380.421818 137.46456 
L 384.48 137.756376 
L 388.538182 137.954448 
L 392.596364 138.022488 
L 396.654545 137.915136 
L 400.712727 137.606688 
L 404.770909 137.100168 
L 408.829091 136.434888 
L 412.887273 135.65016 
L 416.945455 134.783784 
L 421.003636 133.856928 
L 425.061818 132.886224 
L 429.12 131.879232 
L 433.178182 130.843512 
L 437.236364 129.7836 
L 441.294545 128.70252 
L 445.352727 127.603296 
L 449.410909 126.484416 
L 453.469091 125.351928 
L 457.527273 124.202808 
L 461.585455 123.04008 
L 465.643636 121.865256 
L 469.701818 120.678336 
L 473.76 119.480832 
L 477.818182 118.27728 
L 481.876364 117.069192 
L 485.934545 115.868664 
L 489.992727 114.698376 
L 494.050909 113.646024 
L 498.109091 113.107752 
" clip-path="url(#p0c77b7f9bd)" style="fill: none; stroke: #000000; stroke-opacity: 0.5; stroke-linecap: square"/>
   </g>
   <g id="line2d_23">
    <path d="M 92.290909 134.458704 
L 96.349091 134.472312 
L 100.407273 134.510112 
L 104.465455 134.572104 
L 108.523636 134.656776 
L 112.581818 134.761104 
L 116.64 134.885088 
L 120.698182 135.027216 
L 124.756364 135.184464 
L 128.814545 135.192024 
L 132.872727 135.06804 
L 136.930909 134.889624 
L 140.989091 134.653752 
L 145.047273 134.360424 
L 149.105455 134.011152 
L 153.163636 133.604424 
L 157.221818 133.143264 
L 161.28 132.632208 
L 165.338182 132.069744 
L 169.396364 131.46192 
L 173.454545 130.808736 
L 177.512727 130.113216 
L 181.570909 129.37536 
L 185.629091 128.599704 
L 189.687273 127.786248 
L 193.745455 126.938016 
L 197.803636 126.05652 
L 201.861818 125.143272 
L 205.92 124.199784 
L 209.978182 123.230592 
L 214.036364 122.23872 
L 218.094545 121.227192 
L 222.152727 120.202056 
L 226.210909 119.175408 
L 230.269091 118.162368 
L 234.327273 117.18864 
L 238.385455 116.305632 
L 242.443636 115.607088 
L 246.501818 115.220016 
L 250.56 115.23816 
L 254.618182 115.6086 
L 258.676364 116.20584 
L 262.734545 116.927064 
L 266.792727 117.711792 
L 270.850909 118.52676 
L 274.909091 119.352312 
L 278.967273 120.176352 
L 283.025455 120.986784 
L 287.083636 121.771512 
L 291.141818 122.515416 
L 295.2 123.182208 
L 299.258182 123.70536 
L 303.316364 123.927624 
L 307.374545 123.628248 
L 311.432727 122.799672 
L 315.490909 121.659624 
L 319.549091 120.3714 
L 323.607273 119.007576 
L 327.665455 117.601416 
L 331.723636 116.166528 
L 335.781818 114.713496 
L 339.84 113.243832 
L 343.898182 111.763584 
L 347.956364 110.274264 
L 352.014545 108.775872 
L 356.072727 107.271432 
L 360.130909 105.759432 
L 364.189091 104.244408 
L 368.247273 102.723336 
L 372.305455 101.19924 
L 376.363636 99.67212 
L 380.421818 98.143488 
L 384.48 96.611832 
L 388.538182 95.080176 
L 392.596364 93.547008 
L 396.654545 92.018376 
L 400.712727 90.49428 
L 404.770909 88.980768 
L 408.829091 87.499008 
L 412.887273 86.115528 
L 416.945455 85.279392 
L 421.003636 85.94316 
L 425.061818 87.210216 
L 429.12 88.583112 
L 433.178182 89.983224 
L 437.236364 91.389384 
L 441.294545 92.797056 
L 445.352727 94.201704 
L 449.410909 95.600304 
L 453.469091 96.992856 
L 457.527273 98.376336 
L 461.585455 99.752256 
L 465.643636 101.119104 
L 469.701818 102.473856 
L 473.76 103.816512 
L 477.818182 105.144048 
L 481.876364 106.451928 
L 485.934545 107.73108 
L 489.992727 108.957312 
L 494.050909 110.042928 
L 498.109091 110.593296 
" clip-path="url(#p0c77b7f9bd)" style="fill: none; stroke: #000000; stroke-opacity: 0.5; stroke-linecap: square"/>
   </g>
   <g id="patch_3">
    <path d="M 72 384.48 
L 72 51.84 
" style="fill: none; stroke: #000000; stroke-width: 0.8; stroke-linejoin: miter; stroke-linecap: square"/>
   </g>
   <g id="patch_4">
    <path d="M 518.4 384.48 
L 518.4 51.84 
" style="fill: none; stroke: #000000; stroke-width: 0.8; stroke-linejoin: miter; stroke-linecap: square"/>
   </g>
   <g id="patch_5">
    <path d="M 72 384.48 
L 518.4 384.48 
" style="fill: none; stroke: #000000; stroke-width: 0.8; stroke-linejoin: miter; stroke-linecap: square"/>
   </g>
   <g id="patch_6">
    <path d="M 72 51.84 
L 518.4 51.84 
" style="fill: none; stroke: #000000; stroke-width: 0.8; stroke-linejoin: miter; stroke-linecap: square"/>
   </g>
  </g>
 </g>
 <defs>
  <clipPath id="p0c77b7f9bd">
   <rect x="72" y="51.84" width="446.4" height="332.64"/>
  </clipPath>
 </defs>
</svg>
