<?xml version="1.0" encoding="utf-8" standalone="no"?>
<!DOCTYPE svg PUBLIC "-//W3C//DTD SVG 1.1//EN"
  "http://www.w3.org/Graphics/SVG/1.1/DTD/svg11.dtd">
<svg xmlns:xlink="http://www.w3.org/1999/xlink" width="576pt" height="432pt" viewBox="0 0 576 432" xmlns="http://www.w3.org/2000/svg" version="1.1">
 <metadata>
  <rdf:RDF xmlns:dc="http://purl.org/dc/elements/1.1/" xmlns:cc="http://creativecommons.org/ns#" xmlns:rdf="http://www.w3.org/1999/02/22-rdf-syntax-ns#">
   <cc:Work>
    <dc:type rdf:resource="http://purl.org/dc/dcmitype/StillImage"/>
    <dc:date>2023-05-04T11:36:51.724894</dc:date>
    <dc:format>image/svg+xml</dc:format>
    <dc:creator>
     <cc:Agent>
      <dc:title>Matplotlib v3.7.1, https://matplotlib.org/</dc:title>
     </cc:Agent>
    </dc:creator>
   </cc:Work>
  </rdf:RDF>
 </metadata>
 <defs>
  <style type="text/css">*{stroke-linejoin: round; stroke-linecap: butt}</style>
 </defs>
 <g id="figure_1">
  <g id="patch_1">
   <path d="M 0 432 
L 576 432 
L 576 0 
L 0 0 
z
" style="fill: #ffffff"/>
  </g>
  <g id="axes_1">
   <g id="patch_2">
    <path d="M 72 384.48 
L 518.4 384.48 
L 518.4 51.84 
L 72 51.84 
z
" style="fill: #ffffff"/>
   </g>
   <g id="matplotlib.axis_1">
    <g id="xtick_1">
     <g id="line2d_1">
      <defs>
       <path id="mdc7ae3d4e1" d="M 0 0 
L 0 3.5 
" style="stroke: #000000; stroke-width: 0.8"/>
      </defs>
      <g>
       <use xlink:href="#mdc7ae3d4e1" x="92.290909" y="384.48" style="stroke: #000000; stroke-width: 0.8"/>
      </g>
     </g>
     <g id="text_1">
      <!-- 0.0 -->
      <g transform="translate(84.339347 399.078438) scale(0.1 -0.1)">
       <defs>
        <path id="DejaVuSans-30" d="M 2034 4250 
Q 1547 4250 1301 3770 
Q 1056 3291 1056 2328 
Q 1056 1369 1301 889 
Q 1547 409 2034 409 
Q 2525 409 2770 889 
Q 3016 1369 3016 2328 
Q 3016 3291 2770 3770 
Q 2525 4250 2034 4250 
z
M 2034 4750 
Q 2819 4750 3233 4129 
Q 3647 3509 3647 2328 
Q 3647 1150 3233 529 
Q 2819 -91 2034 -91 
Q 1250 -91 836 529 
Q 422 1150 422 2328 
Q 422 3509 836 4129 
Q 1250 4750 2034 4750 
z
" transform="scale(0.015625)"/>
        <path id="DejaVuSans-2e" d="M 684 794 
L 1344 794 
L 1344 0 
L 684 0 
L 684 794 
z
" transform="scale(0.015625)"/>
       </defs>
       <use xlink:href="#DejaVuSans-30"/>
       <use xlink:href="#DejaVuSans-2e" x="63.623047"/>
       <use xlink:href="#DejaVuSans-30" x="95.410156"/>
      </g>
     </g>
    </g>
    <g id="xtick_2">
     <g id="line2d_2">
      <g>
       <use xlink:href="#mdc7ae3d4e1" x="173.454545" y="384.48" style="stroke: #000000; stroke-width: 0.8"/>
      </g>
     </g>
     <g id="text_2">
      <!-- 0.2 -->
      <g transform="translate(165.502983 399.078438) scale(0.1 -0.1)">
       <defs>
        <path id="DejaVuSans-32" d="M 1228 531 
L 3431 531 
L 3431 0 
L 469 0 
L 469 531 
Q 828 903 1448 1529 
Q 2069 2156 2228 2338 
Q 2531 2678 2651 2914 
Q 2772 3150 2772 3378 
Q 2772 3750 2511 3984 
Q 2250 4219 1831 4219 
Q 1534 4219 1204 4116 
Q 875 4013 500 3803 
L 500 4441 
Q 881 4594 1212 4672 
Q 1544 4750 1819 4750 
Q 2544 4750 2975 4387 
Q 3406 4025 3406 3419 
Q 3406 3131 3298 2873 
Q 3191 2616 2906 2266 
Q 2828 2175 2409 1742 
Q 1991 1309 1228 531 
z
" transform="scale(0.015625)"/>
       </defs>
       <use xlink:href="#DejaVuSans-30"/>
       <use xlink:href="#DejaVuSans-2e" x="63.623047"/>
       <use xlink:href="#DejaVuSans-32" x="95.410156"/>
      </g>
     </g>
    </g>
    <g id="xtick_3">
     <g id="line2d_3">
      <g>
       <use xlink:href="#mdc7ae3d4e1" x="254.618182" y="384.48" style="stroke: #000000; stroke-width: 0.8"/>
      </g>
     </g>
     <g id="text_3">
      <!-- 0.4 -->
      <g transform="translate(246.666619 399.078438) scale(0.1 -0.1)">
       <defs>
        <path id="DejaVuSans-34" d="M 2419 4116 
L 825 1625 
L 2419 1625 
L 2419 4116 
z
M 2253 4666 
L 3047 4666 
L 3047 1625 
L 3713 1625 
L 3713 1100 
L 3047 1100 
L 3047 0 
L 2419 0 
L 2419 1100 
L 313 1100 
L 313 1709 
L 2253 4666 
z
" transform="scale(0.015625)"/>
       </defs>
       <use xlink:href="#DejaVuSans-30"/>
       <use xlink:href="#DejaVuSans-2e" x="63.623047"/>
       <use xlink:href="#DejaVuSans-34" x="95.410156"/>
      </g>
     </g>
    </g>
    <g id="xtick_4">
     <g id="line2d_4">
      <g>
       <use xlink:href="#mdc7ae3d4e1" x="335.781818" y="384.48" style="stroke: #000000; stroke-width: 0.8"/>
      </g>
     </g>
     <g id="text_4">
      <!-- 0.6 -->
      <g transform="translate(327.830256 399.078438) scale(0.1 -0.1)">
       <defs>
        <path id="DejaVuSans-36" d="M 2113 2584 
Q 1688 2584 1439 2293 
Q 1191 2003 1191 1497 
Q 1191 994 1439 701 
Q 1688 409 2113 409 
Q 2538 409 2786 701 
Q 3034 994 3034 1497 
Q 3034 2003 2786 2293 
Q 2538 2584 2113 2584 
z
M 3366 4563 
L 3366 3988 
Q 3128 4100 2886 4159 
Q 2644 4219 2406 4219 
Q 1781 4219 1451 3797 
Q 1122 3375 1075 2522 
Q 1259 2794 1537 2939 
Q 1816 3084 2150 3084 
Q 2853 3084 3261 2657 
Q 3669 2231 3669 1497 
Q 3669 778 3244 343 
Q 2819 -91 2113 -91 
Q 1303 -91 875 529 
Q 447 1150 447 2328 
Q 447 3434 972 4092 
Q 1497 4750 2381 4750 
Q 2619 4750 2861 4703 
Q 3103 4656 3366 4563 
z
" transform="scale(0.015625)"/>
       </defs>
       <use xlink:href="#DejaVuSans-30"/>
       <use xlink:href="#DejaVuSans-2e" x="63.623047"/>
       <use xlink:href="#DejaVuSans-36" x="95.410156"/>
      </g>
     </g>
    </g>
    <g id="xtick_5">
     <g id="line2d_5">
      <g>
       <use xlink:href="#mdc7ae3d4e1" x="416.945455" y="384.48" style="stroke: #000000; stroke-width: 0.8"/>
      </g>
     </g>
     <g id="text_5">
      <!-- 0.8 -->
      <g transform="translate(408.993892 399.078438) scale(0.1 -0.1)">
       <defs>
        <path id="DejaVuSans-38" d="M 2034 2216 
Q 1584 2216 1326 1975 
Q 1069 1734 1069 1313 
Q 1069 891 1326 650 
Q 1584 409 2034 409 
Q 2484 409 2743 651 
Q 3003 894 3003 1313 
Q 3003 1734 2745 1975 
Q 2488 2216 2034 2216 
z
M 1403 2484 
Q 997 2584 770 2862 
Q 544 3141 544 3541 
Q 544 4100 942 4425 
Q 1341 4750 2034 4750 
Q 2731 4750 3128 4425 
Q 3525 4100 3525 3541 
Q 3525 3141 3298 2862 
Q 3072 2584 2669 2484 
Q 3125 2378 3379 2068 
Q 3634 1759 3634 1313 
Q 3634 634 3220 271 
Q 2806 -91 2034 -91 
Q 1263 -91 848 271 
Q 434 634 434 1313 
Q 434 1759 690 2068 
Q 947 2378 1403 2484 
z
M 1172 3481 
Q 1172 3119 1398 2916 
Q 1625 2713 2034 2713 
Q 2441 2713 2670 2916 
Q 2900 3119 2900 3481 
Q 2900 3844 2670 4047 
Q 2441 4250 2034 4250 
Q 1625 4250 1398 4047 
Q 1172 3844 1172 3481 
z
" transform="scale(0.015625)"/>
       </defs>
       <use xlink:href="#DejaVuSans-30"/>
       <use xlink:href="#DejaVuSans-2e" x="63.623047"/>
       <use xlink:href="#DejaVuSans-38" x="95.410156"/>
      </g>
     </g>
    </g>
    <g id="xtick_6">
     <g id="line2d_6">
      <g>
       <use xlink:href="#mdc7ae3d4e1" x="498.109091" y="384.48" style="stroke: #000000; stroke-width: 0.8"/>
      </g>
     </g>
     <g id="text_6">
      <!-- 1.0 -->
      <g transform="translate(490.157528 399.078438) scale(0.1 -0.1)">
       <defs>
        <path id="DejaVuSans-31" d="M 794 531 
L 1825 531 
L 1825 4091 
L 703 3866 
L 703 4441 
L 1819 4666 
L 2450 4666 
L 2450 531 
L 3481 531 
L 3481 0 
L 794 0 
L 794 531 
z
" transform="scale(0.015625)"/>
       </defs>
       <use xlink:href="#DejaVuSans-31"/>
       <use xlink:href="#DejaVuSans-2e" x="63.623047"/>
       <use xlink:href="#DejaVuSans-30" x="95.410156"/>
      </g>
     </g>
    </g>
   </g>
   <g id="matplotlib.axis_2">
    <g id="ytick_1">
     <g id="line2d_7">
      <defs>
       <path id="m29f6907620" d="M 0 0 
L -3.5 0 
" style="stroke: #000000; stroke-width: 0.8"/>
      </defs>
      <g>
       <use xlink:href="#m29f6907620" x="72" y="369.36" style="stroke: #000000; stroke-width: 0.8"/>
      </g>
     </g>
     <g id="text_7">
      <!-- −5.0 -->
      <g transform="translate(40.717187 373.159219) scale(0.1 -0.1)">
       <defs>
        <path id="DejaVuSans-2212" d="M 678 2272 
L 4684 2272 
L 4684 1741 
L 678 1741 
L 678 2272 
z
" transform="scale(0.015625)"/>
        <path id="DejaVuSans-35" d="M 691 4666 
L 3169 4666 
L 3169 4134 
L 1269 4134 
L 1269 2991 
Q 1406 3038 1543 3061 
Q 1681 3084 1819 3084 
Q 2600 3084 3056 2656 
Q 3513 2228 3513 1497 
Q 3513 744 3044 326 
Q 2575 -91 1722 -91 
Q 1428 -91 1123 -41 
Q 819 9 494 109 
L 494 744 
Q 775 591 1075 516 
Q 1375 441 1709 441 
Q 2250 441 2565 725 
Q 2881 1009 2881 1497 
Q 2881 1984 2565 2268 
Q 2250 2553 1709 2553 
Q 1456 2553 1204 2497 
Q 953 2441 691 2322 
L 691 4666 
z
" transform="scale(0.015625)"/>
       </defs>
       <use xlink:href="#DejaVuSans-2212"/>
       <use xlink:href="#DejaVuSans-35" x="83.789062"/>
       <use xlink:href="#DejaVuSans-2e" x="147.412109"/>
       <use xlink:href="#DejaVuSans-30" x="179.199219"/>
      </g>
     </g>
    </g>
    <g id="ytick_2">
     <g id="line2d_8">
      <g>
       <use xlink:href="#m29f6907620" x="72" y="331.56" style="stroke: #000000; stroke-width: 0.8"/>
      </g>
     </g>
     <g id="text_8">
      <!-- −2.5 -->
      <g transform="translate(40.717187 335.359219) scale(0.1 -0.1)">
       <use xlink:href="#DejaVuSans-2212"/>
       <use xlink:href="#DejaVuSans-32" x="83.789062"/>
       <use xlink:href="#DejaVuSans-2e" x="147.412109"/>
       <use xlink:href="#DejaVuSans-35" x="179.199219"/>
      </g>
     </g>
    </g>
    <g id="ytick_3">
     <g id="line2d_9">
      <g>
       <use xlink:href="#m29f6907620" x="72" y="293.76" style="stroke: #000000; stroke-width: 0.8"/>
      </g>
     </g>
     <g id="text_9">
      <!-- 0.0 -->
      <g transform="translate(49.096875 297.559219) scale(0.1 -0.1)">
       <use xlink:href="#DejaVuSans-30"/>
       <use xlink:href="#DejaVuSans-2e" x="63.623047"/>
       <use xlink:href="#DejaVuSans-30" x="95.410156"/>
      </g>
     </g>
    </g>
    <g id="ytick_4">
     <g id="line2d_10">
      <g>
       <use xlink:href="#m29f6907620" x="72" y="255.96" style="stroke: #000000; stroke-width: 0.8"/>
      </g>
     </g>
     <g id="text_10">
      <!-- 2.5 -->
      <g transform="translate(49.096875 259.759219) scale(0.1 -0.1)">
       <use xlink:href="#DejaVuSans-32"/>
       <use xlink:href="#DejaVuSans-2e" x="63.623047"/>
       <use xlink:href="#DejaVuSans-35" x="95.410156"/>
      </g>
     </g>
    </g>
    <g id="ytick_5">
     <g id="line2d_11">
      <g>
       <use xlink:href="#m29f6907620" x="72" y="218.16" style="stroke: #000000; stroke-width: 0.8"/>
      </g>
     </g>
     <g id="text_11">
      <!-- 5.0 -->
      <g transform="translate(49.096875 221.959219) scale(0.1 -0.1)">
       <use xlink:href="#DejaVuSans-35"/>
       <use xlink:href="#DejaVuSans-2e" x="63.623047"/>
       <use xlink:href="#DejaVuSans-30" x="95.410156"/>
      </g>
     </g>
    </g>
    <g id="ytick_6">
     <g id="line2d_12">
      <g>
       <use xlink:href="#m29f6907620" x="72" y="180.36" style="stroke: #000000; stroke-width: 0.8"/>
      </g>
     </g>
     <g id="text_12">
      <!-- 7.5 -->
      <g transform="translate(49.096875 184.159219) scale(0.1 -0.1)">
       <defs>
        <path id="DejaVuSans-37" d="M 525 4666 
L 3525 4666 
L 3525 4397 
L 1831 0 
L 1172 0 
L 2766 4134 
L 525 4134 
L 525 4666 
z
" transform="scale(0.015625)"/>
       </defs>
       <use xlink:href="#DejaVuSans-37"/>
       <use xlink:href="#DejaVuSans-2e" x="63.623047"/>
       <use xlink:href="#DejaVuSans-35" x="95.410156"/>
      </g>
     </g>
    </g>
    <g id="ytick_7">
     <g id="line2d_13">
      <g>
       <use xlink:href="#m29f6907620" x="72" y="142.56" style="stroke: #000000; stroke-width: 0.8"/>
      </g>
     </g>
     <g id="text_13">
      <!-- 10.0 -->
      <g transform="translate(42.734375 146.359219) scale(0.1 -0.1)">
       <use xlink:href="#DejaVuSans-31"/>
       <use xlink:href="#DejaVuSans-30" x="63.623047"/>
       <use xlink:href="#DejaVuSans-2e" x="127.246094"/>
       <use xlink:href="#DejaVuSans-30" x="159.033203"/>
      </g>
     </g>
    </g>
    <g id="ytick_8">
     <g id="line2d_14">
      <g>
       <use xlink:href="#m29f6907620" x="72" y="104.76" style="stroke: #000000; stroke-width: 0.8"/>
      </g>
     </g>
     <g id="text_14">
      <!-- 12.5 -->
      <g transform="translate(42.734375 108.559219) scale(0.1 -0.1)">
       <use xlink:href="#DejaVuSans-31"/>
       <use xlink:href="#DejaVuSans-32" x="63.623047"/>
       <use xlink:href="#DejaVuSans-2e" x="127.246094"/>
       <use xlink:href="#DejaVuSans-35" x="159.033203"/>
      </g>
     </g>
    </g>
    <g id="ytick_9">
     <g id="line2d_15">
      <g>
       <use xlink:href="#m29f6907620" x="72" y="66.96" style="stroke: #000000; stroke-width: 0.8"/>
      </g>
     </g>
     <g id="text_15">
      <!-- 15.0 -->
      <g transform="translate(42.734375 70.759219) scale(0.1 -0.1)">
       <use xlink:href="#DejaVuSans-31"/>
       <use xlink:href="#DejaVuSans-35" x="63.623047"/>
       <use xlink:href="#DejaVuSans-2e" x="127.246094"/>
       <use xlink:href="#DejaVuSans-30" x="159.033203"/>
      </g>
     </g>
    </g>
   </g>
   <g id="line2d_16">
    <path d="M 92.290909 322.899264 
L 96.349091 322.965792 
L 100.407273 323.16084 
L 104.465455 323.469288 
L 108.523636 323.874504 
L 112.581818 324.356832 
L 116.64 324.901152 
L 120.698182 325.492344 
L 124.756364 326.122848 
L 128.814545 326.78208 
L 132.872727 327.463992 
L 136.930909 328.162536 
L 140.989091 328.877712 
L 145.047273 329.60196 
L 149.105455 330.33528 
L 153.163636 331.07616 
L 157.221818 331.821576 
L 161.28 332.570016 
L 165.338182 333.32148 
L 169.396364 334.074456 
L 173.454545 334.827432 
L 177.512727 335.580408 
L 181.570909 336.331872 
L 185.629091 337.083336 
L 189.687273 337.830264 
L 193.745455 338.57568 
L 197.803636 339.318072 
L 201.861818 340.055928 
L 205.92 340.789248 
L 209.978182 341.519544 
L 214.036364 342.243792 
L 218.094545 342.961992 
L 222.152727 343.675656 
L 226.210909 344.383272 
L 230.269091 345.08484 
L 234.327273 345.778848 
L 238.385455 346.466808 
L 242.443636 347.14872 
L 246.501818 347.82156 
L 250.56 348.488352 
L 254.618182 349.146072 
L 258.676364 349.797744 
L 262.734545 350.440344 
L 266.792727 351.073872 
L 270.850909 351.69984 
L 274.909091 352.316736 
L 278.967273 352.92456 
L 283.025455 353.524824 
L 287.083636 354.114504 
L 291.141818 354.695112 
L 295.2 355.266648 
L 299.258182 355.8276 
L 303.316364 356.380992 
L 307.374545 356.922288 
L 311.432727 357.454512 
L 315.490909 357.977664 
L 319.549091 358.490232 
L 323.607273 358.992216 
L 327.665455 359.483616 
L 331.723636 359.964432 
L 335.781818 360.434664 
L 339.84 360.894312 
L 343.898182 361.344888 
L 347.956364 361.783368 
L 352.014545 362.209752 
L 356.072727 362.627064 
L 360.130909 363.03228 
L 364.189091 363.426912 
L 368.247273 363.81096 
L 372.305455 364.182912 
L 376.363636 364.54428 
L 380.421818 364.893552 
L 384.48 365.230728 
L 388.538182 365.558832 
L 392.596364 365.873328 
L 396.654545 366.17724 
L 400.712727 366.469056 
L 404.770909 366.750288 
L 408.829091 367.019424 
L 412.887273 367.276464 
L 416.945455 367.521408 
L 421.003636 367.755768 
L 425.061818 367.978032 
L 429.12 368.186688 
L 433.178182 368.386272 
L 437.236364 368.572248 
L 441.294545 368.746128 
L 445.352727 368.909424 
L 449.410909 369.059112 
L 453.469091 369.198216 
L 457.527273 369.325224 
L 461.585455 369.438624 
L 465.643636 369.54144 
L 469.701818 369.63216 
L 473.76 369.710784 
L 477.818182 369.777312 
L 481.876364 369.831744 
L 485.934545 369.87408 
L 489.992727 369.90432 
L 494.050909 369.922464 
L 498.109091 369.928512 
" clip-path="url(#p0e4bf0b631)" style="fill: none; stroke: #000000; stroke-opacity: 0.5; stroke-linecap: square"/>
   </g>
   <g id="line2d_17">
    <path d="M 92.290909 313.479504 
L 96.349091 313.416 
L 100.407273 313.231536 
L 104.465455 312.93972 
L 108.523636 312.558696 
L 112.581818 312.106608 
L 116.64 311.598576 
L 120.698182 311.04972 
L 124.756364 310.469112 
L 128.814545 309.864312 
L 132.872727 309.24288 
L 136.930909 308.60784 
L 140.989091 307.962216 
L 145.047273 307.312056 
L 149.105455 306.655848 
L 153.163636 305.996616 
L 157.221818 305.33436 
L 161.28 304.672104 
L 165.338182 304.008336 
L 169.396364 303.344568 
L 173.454545 302.6808 
L 177.512727 302.018544 
L 181.570909 301.356288 
L 185.629091 300.694032 
L 189.687273 300.033288 
L 193.745455 299.372544 
L 197.803636 298.7118 
L 201.861818 298.052568 
L 205.92 297.391824 
L 209.978182 296.732592 
L 214.036364 296.071848 
L 218.094545 295.411104 
L 222.152727 294.748848 
L 226.210909 294.08508 
L 230.269091 293.421312 
L 234.327273 292.75452 
L 238.385455 292.086216 
L 242.443636 291.4164 
L 246.501818 290.74356 
L 250.56 290.069208 
L 254.618182 289.39032 
L 258.676364 288.70992 
L 262.734545 288.024984 
L 266.792727 287.337024 
L 270.850909 286.644528 
L 274.909091 285.949008 
L 278.967273 285.248952 
L 283.025455 284.54436 
L 287.083636 283.836744 
L 291.141818 283.124592 
L 295.2 282.406392 
L 299.258182 281.683656 
L 303.316364 280.957896 
L 307.374545 280.226088 
L 311.432727 279.489744 
L 315.490909 278.747352 
L 319.549091 278.001936 
L 323.607273 277.250472 
L 327.665455 276.494472 
L 331.723636 275.732424 
L 335.781818 274.967352 
L 339.84 274.197744 
L 343.898182 273.422088 
L 347.956364 272.643408 
L 352.014545 271.85868 
L 356.072727 271.070928 
L 360.130909 270.280152 
L 364.189091 269.48484 
L 368.247273 268.684992 
L 372.305455 267.883632 
L 376.363636 267.079248 
L 380.421818 266.27184 
L 384.48 265.46292 
L 388.538182 264.652488 
L 392.596364 263.840544 
L 396.654545 263.0286 
L 400.712727 262.218168 
L 404.770909 261.407736 
L 408.829091 260.598816 
L 412.887273 259.79292 
L 416.945455 258.99156 
L 421.003636 258.194736 
L 425.061818 257.40396 
L 429.12 256.622256 
L 433.178182 255.849624 
L 437.236364 255.0906 
L 441.294545 254.343672 
L 445.352727 253.614888 
L 449.410909 252.907272 
L 453.469091 252.222336 
L 457.527273 251.566128 
L 461.585455 250.941672 
L 465.643636 250.356528 
L 469.701818 249.815232 
L 473.76 249.325344 
L 477.818182 248.892912 
L 481.876364 248.525496 
L 485.934545 248.230656 
L 489.992727 248.01444 
L 494.050909 247.882896 
L 498.109091 247.839048 
" clip-path="url(#p0e4bf0b631)" style="fill: none; stroke: #000000; stroke-opacity: 0.5; stroke-linecap: square"/>
   </g>
   <g id="line2d_18">
    <path d="M 92.290909 264.315312 
L 96.349091 264.310776 
L 100.407273 264.297168 
L 104.465455 264.274488 
L 108.523636 264.242736 
L 112.581818 264.201912 
L 116.64 264.152016 
L 120.698182 264.091536 
L 124.756364 264.020472 
L 128.814545 263.940336 
L 132.872727 263.849616 
L 136.930909 263.748312 
L 140.989091 263.634912 
L 145.047273 263.510928 
L 149.105455 263.37636 
L 153.163636 263.229696 
L 157.221818 263.072448 
L 161.28 262.901592 
L 165.338182 262.720152 
L 169.396364 262.526616 
L 173.454545 262.320984 
L 177.512727 262.103256 
L 181.570909 261.873432 
L 185.629091 261.63 
L 189.687273 261.375984 
L 193.745455 261.109872 
L 197.803636 260.830152 
L 201.861818 260.539848 
L 205.92 260.237448 
L 209.978182 259.92144 
L 214.036364 259.594848 
L 218.094545 259.25616 
L 222.152727 258.905376 
L 226.210909 258.542496 
L 230.269091 258.169032 
L 234.327273 257.783472 
L 238.385455 257.387328 
L 242.443636 256.979088 
L 246.501818 256.558752 
L 250.56 256.127832 
L 254.618182 255.686328 
L 258.676364 255.23424 
L 262.734545 254.771568 
L 266.792727 254.298312 
L 270.850909 253.814472 
L 274.909091 253.320048 
L 278.967273 252.816552 
L 283.025455 252.302472 
L 287.083636 251.777808 
L 291.141818 251.245584 
L 295.2 250.702776 
L 299.258182 250.150896 
L 303.316364 249.589944 
L 307.374545 249.021432 
L 311.432727 248.443848 
L 315.490909 247.858704 
L 319.549091 247.266 
L 323.607273 246.665736 
L 327.665455 246.057912 
L 331.723636 245.442528 
L 335.781818 244.821096 
L 339.84 244.195128 
L 343.898182 243.5616 
L 347.956364 242.923536 
L 352.014545 242.280936 
L 356.072727 241.6338 
L 360.130909 240.982128 
L 364.189091 240.328944 
L 368.247273 239.672736 
L 372.305455 239.013504 
L 376.363636 238.354272 
L 380.421818 237.693528 
L 384.48 237.032784 
L 388.538182 236.375064 
L 392.596364 235.717344 
L 396.654545 235.06416 
L 400.712727 234.415512 
L 404.770909 233.7714 
L 408.829091 233.133336 
L 412.887273 232.504344 
L 416.945455 231.884424 
L 421.003636 231.275088 
L 425.061818 230.677848 
L 429.12 230.095728 
L 433.178182 229.53024 
L 437.236364 228.981384 
L 441.294545 228.453696 
L 445.352727 227.947176 
L 449.410909 227.46636 
L 453.469091 227.01276 
L 457.527273 226.5894 
L 461.585455 226.253736 
L 465.643636 226.67256 
L 469.701818 227.117088 
L 473.76 227.52684 
L 477.818182 227.891232 
L 481.876364 228.202704 
L 485.934545 228.455208 
L 489.992727 228.639672 
L 494.050909 228.753072 
L 498.109091 228.792384 
" clip-path="url(#p0e4bf0b631)" style="fill: none; stroke: #000000; stroke-opacity: 0.5; stroke-linecap: square"/>
   </g>
   <g id="line2d_19">
    <path d="M 92.290909 253.244448 
L 96.349091 253.224792 
L 100.407273 253.167336 
L 104.465455 253.07208 
L 108.523636 252.939024 
L 112.581818 252.768168 
L 116.64 252.561024 
L 120.698182 252.317592 
L 124.756364 252.037872 
L 128.814545 251.721864 
L 132.872727 251.372592 
L 136.930909 250.990056 
L 140.989091 250.572744 
L 145.047273 250.125192 
L 149.105455 249.645888 
L 153.163636 249.136344 
L 157.221818 248.598072 
L 161.28 248.032584 
L 165.338182 247.438368 
L 169.396364 246.818448 
L 173.454545 246.172824 
L 177.512727 245.50452 
L 181.570909 244.813536 
L 185.629091 244.099872 
L 189.687273 243.366552 
L 193.745455 242.615088 
L 197.803636 241.843968 
L 201.861818 241.057728 
L 205.92 240.256368 
L 209.978182 239.439888 
L 214.036364 238.612824 
L 218.094545 237.773664 
L 222.152727 236.925432 
L 226.210909 236.06964 
L 230.269091 235.2078 
L 234.327273 234.341424 
L 238.385455 233.472024 
L 242.443636 232.602624 
L 246.501818 231.733224 
L 250.56 230.866848 
L 254.618182 230.005008 
L 258.676364 229.150728 
L 262.734545 228.30552 
L 266.792727 227.470896 
L 270.850909 226.64988 
L 274.909091 225.843984 
L 278.967273 225.056232 
L 283.025455 224.289648 
L 287.083636 223.545744 
L 291.141818 222.827544 
L 295.2 222.138072 
L 299.258182 221.477328 
L 303.316364 220.849848 
L 307.374545 220.257144 
L 311.432727 219.70224 
L 315.490909 219.186648 
L 319.549091 218.713392 
L 323.607273 218.28096 
L 327.665455 217.8954 
L 331.723636 217.553688 
L 335.781818 217.26036 
L 339.84 217.013904 
L 343.898182 216.815832 
L 347.956364 216.664632 
L 352.014545 216.561816 
L 356.072727 216.507384 
L 360.130909 216.498312 
L 364.189091 216.5346 
L 368.247273 216.616248 
L 372.305455 216.740232 
L 376.363636 216.906552 
L 380.421818 217.112184 
L 384.48 217.355616 
L 388.538182 217.633824 
L 392.596364 217.94832 
L 396.654545 218.293056 
L 400.712727 218.668032 
L 404.770909 219.071736 
L 408.829091 219.499632 
L 412.887273 219.95172 
L 416.945455 220.424976 
L 421.003636 220.916376 
L 425.061818 221.422896 
L 429.12 221.943024 
L 433.178182 222.473736 
L 437.236364 223.012008 
L 441.294545 223.554816 
L 445.352727 224.097624 
L 449.410909 224.635896 
L 453.469091 225.16812 
L 457.527273 225.683712 
L 461.585455 226.126728 
L 465.643636 225.824328 
L 469.701818 225.502272 
L 473.76 225.218016 
L 477.818182 224.97156 
L 481.876364 224.76744 
L 485.934545 224.607168 
L 489.992727 224.492256 
L 494.050909 224.422704 
L 498.109091 224.398512 
" clip-path="url(#p0e4bf0b631)" style="fill: none; stroke: #000000; stroke-opacity: 0.5; stroke-linecap: square"/>
   </g>
   <g id="line2d_20">
    <path d="M 92.290909 160.434864 
L 96.349091 160.430328 
L 100.407273 160.412184 
L 104.465455 160.384968 
L 108.523636 160.344144 
L 112.581818 160.294248 
L 116.64 160.232256 
L 120.698182 160.158168 
L 124.756364 160.075008 
L 128.814545 159.97824 
L 132.872727 159.8724 
L 136.930909 159.754464 
L 140.989091 159.625944 
L 145.047273 159.48684 
L 149.105455 159.337152 
L 153.163636 159.175368 
L 157.221818 159.004512 
L 161.28 158.82156 
L 165.338182 158.629536 
L 169.396364 158.426928 
L 173.454545 158.213736 
L 177.512727 157.98996 
L 181.570909 157.757112 
L 185.629091 157.515192 
L 189.687273 157.262688 
L 193.745455 157.001112 
L 197.803636 156.730464 
L 201.861818 156.450744 
L 205.92 156.163464 
L 209.978182 155.867112 
L 214.036364 155.564712 
L 218.094545 155.257776 
L 222.152727 154.95084 
L 226.210909 154.657512 
L 230.269091 154.45188 
L 234.327273 154.669608 
L 238.385455 155.254752 
L 242.443636 155.898864 
L 246.501818 156.536928 
L 250.56 157.159872 
L 254.618182 157.758624 
L 258.676364 158.334696 
L 262.734545 158.88204 
L 266.792727 159.400656 
L 270.850909 159.890544 
L 274.909091 160.34868 
L 278.967273 160.77204 
L 283.025455 161.162136 
L 287.083636 161.514432 
L 291.141818 161.83044 
L 295.2 162.107136 
L 299.258182 162.34452 
L 303.316364 162.538056 
L 307.374545 162.690768 
L 311.432727 162.799632 
L 315.490909 162.863136 
L 319.549091 162.884304 
L 323.607273 162.8586 
L 327.665455 162.79056 
L 331.723636 162.680184 
L 335.781818 162.528984 
L 339.84 162.339984 
L 343.898182 162.11772 
L 347.956364 161.869752 
L 352.014545 161.606664 
L 356.072727 161.342064 
L 360.130909 161.09712 
L 364.189091 160.90812 
L 368.247273 160.821936 
L 372.305455 160.893 
L 376.363636 161.162136 
L 380.421818 161.636904 
L 384.48 162.27648 
L 388.538182 163.03248 
L 392.596364 163.861056 
L 396.654545 164.728944 
L 400.712727 165.618 
L 404.770909 166.513104 
L 408.829091 167.405184 
L 412.887273 168.28668 
L 416.945455 169.151544 
L 421.003636 169.998264 
L 425.061818 170.823816 
L 429.12 171.622152 
L 433.178182 172.393272 
L 437.236364 173.134152 
L 441.294545 173.841768 
L 445.352727 174.514608 
L 449.410909 175.15116 
L 453.469091 175.746888 
L 457.527273 176.301792 
L 461.585455 176.811336 
L 465.643636 177.27552 
L 469.701818 177.69132 
L 473.76 178.055712 
L 477.818182 178.368696 
L 481.876364 178.627248 
L 485.934545 178.828344 
L 489.992727 178.975008 
L 494.050909 179.062704 
L 498.109091 179.091432 
" clip-path="url(#p0e4bf0b631)" style="fill: none; stroke: #000000; stroke-opacity: 0.5; stroke-linecap: square"/>
   </g>
   <g id="line2d_21">
    <path d="M 92.290909 139.870152 
L 96.349091 139.865616 
L 100.407273 139.852008 
L 104.465455 139.829328 
L 108.523636 139.797576 
L 112.581818 139.759776 
L 116.64 139.714416 
L 120.698182 139.666032 
L 124.756364 139.616136 
L 128.814545 139.569264 
L 132.872727 139.529952 
L 136.930909 139.507272 
L 140.989091 139.508784 
L 145.047273 139.552632 
L 149.105455 139.65696 
L 153.163636 139.842936 
L 157.221818 140.134752 
L 161.28 140.546016 
L 165.338182 141.073704 
L 169.396364 141.704208 
L 173.454545 142.414848 
L 177.512727 143.181432 
L 181.570909 143.984304 
L 185.629091 144.811368 
L 189.687273 145.650528 
L 193.745455 146.494224 
L 197.803636 147.33792 
L 201.861818 148.175568 
L 205.92 149.002632 
L 209.978182 149.820624 
L 214.036364 150.621984 
L 218.094545 151.4052 
L 222.152727 152.165736 
L 226.210909 152.885448 
L 230.269091 153.490248 
L 234.327273 153.645984 
L 238.385455 153.404064 
L 242.443636 153.077472 
L 246.501818 152.722152 
L 250.56 152.354736 
L 254.618182 151.976736 
L 258.676364 151.591176 
L 262.734545 151.198056 
L 266.792727 150.798888 
L 270.850909 150.395184 
L 274.909091 149.985432 
L 278.967273 149.571144 
L 283.025455 149.153832 
L 287.083636 148.731984 
L 291.141818 148.308624 
L 295.2 147.88224 
L 299.258182 147.455856 
L 303.316364 147.029472 
L 307.374545 146.606112 
L 311.432727 146.1888 
L 315.490909 145.782072 
L 319.549091 145.396512 
L 323.607273 145.065384 
L 327.665455 144.868824 
L 331.723636 145.044216 
L 335.781818 145.763928 
L 339.84 146.779992 
L 343.898182 147.883752 
L 347.956364 148.995072 
L 352.014545 150.080688 
L 356.072727 151.119432 
L 360.130909 152.0856 
L 364.189091 152.941392 
L 368.247273 153.644472 
L 372.305455 154.137384 
L 376.363636 154.380816 
L 380.421818 154.373256 
L 384.48 154.155528 
L 388.538182 153.77904 
L 392.596364 153.292176 
L 396.654545 152.729712 
L 400.712727 152.117352 
L 404.770909 151.47324 
L 408.829091 150.812496 
L 412.887273 150.147216 
L 416.945455 149.489496 
L 421.003636 148.851432 
L 425.061818 148.24512 
L 429.12 147.684168 
L 433.178182 147.180672 
L 437.236364 146.743704 
L 441.294545 146.38536 
L 445.352727 146.107152 
L 449.410909 145.912104 
L 453.469091 145.789632 
L 457.527273 145.730664 
L 461.585455 145.721592 
L 465.643636 145.75032 
L 469.701818 145.801728 
L 473.76 145.865232 
L 477.818182 145.933272 
L 481.876364 145.996776 
L 485.934545 146.051208 
L 489.992727 146.093544 
L 494.050909 146.119248 
L 498.109091 146.12832 
" clip-path="url(#p0e4bf0b631)" style="fill: none; stroke: #000000; stroke-opacity: 0.5; stroke-linecap: square"/>
   </g>
   <g id="line2d_22">
    <path d="M 92.290909 118.339272 
L 96.349091 118.862424 
L 100.407273 119.881512 
L 104.465455 121.012488 
L 108.523636 122.166144 
L 112.581818 123.3198 
L 116.64 124.46136 
L 120.698182 125.584776 
L 124.756364 126.687024 
L 128.814545 127.759032 
L 132.872727 128.799288 
L 136.930909 129.794184 
L 140.989091 130.737672 
L 145.047273 131.610096 
L 149.105455 132.394824 
L 153.163636 133.066152 
L 157.221818 133.604424 
L 161.28 133.991496 
L 165.338182 134.231904 
L 169.396364 134.340768 
L 173.454545 134.337744 
L 177.512727 134.247024 
L 181.570909 134.088264 
L 185.629091 133.87356 
L 189.687273 133.613496 
L 193.745455 133.317144 
L 197.803636 132.987528 
L 201.861818 132.630696 
L 205.92 132.246648 
L 209.978182 131.83992 
L 214.036364 131.412024 
L 218.094545 130.96296 
L 222.152727 130.495752 
L 226.210909 130.008888 
L 230.269091 129.508416 
L 234.327273 128.991312 
L 238.385455 128.4606 
L 242.443636 127.919304 
L 246.501818 127.37196 
L 250.56 126.824616 
L 254.618182 126.286344 
L 258.676364 125.778312 
L 262.734545 125.342856 
L 266.792727 125.072208 
L 270.850909 125.138736 
L 274.909091 125.695152 
L 278.967273 126.658296 
L 283.025455 127.84068 
L 287.083636 129.122856 
L 291.141818 130.451904 
L 295.2 131.80212 
L 299.258182 133.158384 
L 303.316364 134.511624 
L 307.374545 135.855792 
L 311.432727 137.18484 
L 315.490909 138.491208 
L 319.549091 139.761288 
L 323.607273 140.963328 
L 327.665455 142.012656 
L 331.723636 142.6734 
L 335.781818 142.767144 
L 339.84 142.540344 
L 343.898182 142.200144 
L 347.956364 141.816096 
L 352.014545 141.412392 
L 356.072727 141.00264 
L 360.130909 140.588352 
L 364.189091 140.174064 
L 368.247273 139.7628 
L 372.305455 139.353048 
L 376.363636 138.949344 
L 380.421818 138.550176 
L 384.48 138.157056 
L 388.538182 137.771496 
L 392.596364 137.393496 
L 396.654545 137.02608 
L 400.712727 136.667736 
L 404.770909 136.321488 
L 408.829091 135.99036 
L 412.887273 135.677376 
L 416.945455 135.394632 
L 421.003636 135.164808 
L 425.061818 135.049896 
L 429.12 135.116424 
L 433.178182 135.291816 
L 437.236364 135.456624 
L 441.294545 135.554904 
L 445.352727 135.570024 
L 449.410909 135.500472 
L 453.469091 135.358344 
L 457.527273 135.155736 
L 461.585455 134.915328 
L 465.643636 134.655264 
L 469.701818 134.3952 
L 473.76 134.150256 
L 477.818182 133.931016 
L 481.876364 133.746552 
L 485.934545 133.6014 
L 489.992727 133.497072 
L 494.050909 133.433568 
L 498.109091 133.4124 
" clip-path="url(#p0e4bf0b631)" style="fill: none; stroke: #000000; stroke-opacity: 0.5; stroke-linecap: square"/>
   </g>
   <g id="line2d_23">
    <path d="M 92.290909 115.891344 
L 96.349091 115.353072 
L 100.407273 114.288624 
L 104.465455 113.085072 
L 108.523636 111.827088 
L 112.581818 110.538864 
L 116.64 109.229472 
L 120.698182 107.903448 
L 124.756364 106.562304 
L 128.814545 105.207552 
L 132.872727 103.842216 
L 136.930909 102.464784 
L 140.989091 101.07828 
L 145.047273 99.682704 
L 149.105455 98.278056 
L 153.163636 96.865848 
L 157.221818 95.44608 
L 161.28 94.020264 
L 165.338182 92.591424 
L 169.396364 91.162584 
L 173.454545 89.751888 
L 177.512727 88.495416 
L 181.570909 88.939944 
L 185.629091 90.402048 
L 189.687273 91.932192 
L 193.745455 93.477456 
L 197.803636 95.025744 
L 201.861818 96.575544 
L 205.92 98.125344 
L 209.978182 99.67212 
L 214.036364 101.215872 
L 218.094545 102.7566 
L 222.152727 104.292792 
L 226.210909 105.822936 
L 230.269091 107.34552 
L 234.327273 108.862056 
L 238.385455 110.368008 
L 242.443636 111.860352 
L 246.501818 113.337576 
L 250.56 114.79212 
L 254.618182 116.211888 
L 258.676364 117.578736 
L 262.734545 118.848816 
L 266.792727 119.929896 
L 270.850909 120.649608 
L 274.909091 120.85524 
L 278.967273 120.631464 
L 283.025455 120.164256 
L 287.083636 119.57004 
L 291.141818 118.907784 
L 295.2 118.20168 
L 299.258182 117.466848 
L 303.316364 116.713872 
L 307.374545 115.951824 
L 311.432727 115.191288 
L 315.490909 114.450408 
L 319.549091 113.754888 
L 323.607273 113.162184 
L 327.665455 112.790232 
L 331.723636 112.815936 
L 335.781818 113.331528 
L 339.84 114.21 
L 343.898182 115.271424 
L 347.956364 116.412984 
L 352.014545 117.587808 
L 356.072727 118.76868 
L 360.130909 119.941992 
L 364.189091 121.098672 
L 368.247273 122.235696 
L 372.305455 123.348528 
L 376.363636 124.432632 
L 380.421818 125.484984 
L 384.48 126.505584 
L 388.538182 127.488384 
L 392.596364 128.431872 
L 396.654545 129.334536 
L 400.712727 130.190328 
L 404.770909 130.994712 
L 408.829091 131.743152 
L 412.887273 132.426576 
L 416.945455 133.028352 
L 421.003636 133.51824 
L 425.061818 133.831224 
L 429.12 133.88868 
L 433.178182 133.758648 
L 437.236364 133.551504 
L 441.294545 133.32168 
L 445.352727 133.085808 
L 449.410909 132.849936 
L 453.469091 132.6186 
L 457.527273 132.390288 
L 461.585455 132.168024 
L 465.643636 131.950296 
L 469.701818 131.740128 
L 473.76 131.539032 
L 477.818182 131.350032 
L 481.876364 131.1822 
L 485.934545 131.041584 
L 489.992727 130.934232 
L 494.050909 130.867704 
L 498.109091 130.845024 
" clip-path="url(#p0e4bf0b631)" style="fill: none; stroke: #000000; stroke-opacity: 0.5; stroke-linecap: square"/>
   </g>
   <g id="patch_3">
    <path d="M 72 384.48 
L 72 51.84 
" style="fill: none; stroke: #000000; stroke-width: 0.8; stroke-linejoin: miter; stroke-linecap: square"/>
   </g>
   <g id="patch_4">
    <path d="M 518.4 384.48 
L 518.4 51.84 
" style="fill: none; stroke: #000000; stroke-width: 0.8; stroke-linejoin: miter; stroke-linecap: square"/>
   </g>
   <g id="patch_5">
    <path d="M 72 384.48 
L 518.4 384.48 
" style="fill: none; stroke: #000000; stroke-width: 0.8; stroke-linejoin: miter; stroke-linecap: square"/>
   </g>
   <g id="patch_6">
    <path d="M 72 51.84 
L 518.4 51.84 
" style="fill: none; stroke: #000000; stroke-width: 0.8; stroke-linejoin: miter; stroke-linecap: square"/>
   </g>
  </g>
 </g>
 <defs>
  <clipPath id="p0e4bf0b631">
   <rect x="72" y="51.84" width="446.4" height="332.64"/>
  </clipPath>
 </defs>
</svg>
