<?xml version="1.0" encoding="utf-8" standalone="no"?>
<!DOCTYPE svg PUBLIC "-//W3C//DTD SVG 1.1//EN"
  "http://www.w3.org/Graphics/SVG/1.1/DTD/svg11.dtd">
<svg xmlns:xlink="http://www.w3.org/1999/xlink" width="576pt" height="432pt" viewBox="0 0 576 432" xmlns="http://www.w3.org/2000/svg" version="1.1">
 <metadata>
  <rdf:RDF xmlns:dc="http://purl.org/dc/elements/1.1/" xmlns:cc="http://creativecommons.org/ns#" xmlns:rdf="http://www.w3.org/1999/02/22-rdf-syntax-ns#">
   <cc:Work>
    <dc:type rdf:resource="http://purl.org/dc/dcmitype/StillImage"/>
    <dc:date>2023-05-04T08:47:44.328743</dc:date>
    <dc:format>image/svg+xml</dc:format>
    <dc:creator>
     <cc:Agent>
      <dc:title>Matplotlib v3.7.1, https://matplotlib.org/</dc:title>
     </cc:Agent>
    </dc:creator>
   </cc:Work>
  </rdf:RDF>
 </metadata>
 <defs>
  <style type="text/css">*{stroke-linejoin: round; stroke-linecap: butt}</style>
 </defs>
 <g id="figure_1">
  <g id="patch_1">
   <path d="M 0 432 
L 576 432 
L 576 0 
L 0 0 
z
" style="fill: #ffffff"/>
  </g>
  <g id="axes_1">
   <g id="patch_2">
    <path d="M 72 384.48 
L 518.4 384.48 
L 518.4 51.84 
L 72 51.84 
z
" style="fill: #ffffff"/>
   </g>
   <g id="matplotlib.axis_1">
    <g id="xtick_1">
     <g id="line2d_1">
      <defs>
       <path id="mdc538c556f" d="M 0 0 
L 0 3.5 
" style="stroke: #000000; stroke-width: 0.8"/>
      </defs>
      <g>
       <use xlink:href="#mdc538c556f" x="92.290909" y="384.48" style="stroke: #000000; stroke-width: 0.8"/>
      </g>
     </g>
     <g id="text_1">
      <!-- 0.0 -->
      <g transform="translate(84.339347 399.078438) scale(0.1 -0.1)">
       <defs>
        <path id="DejaVuSans-30" d="M 2034 4250 
Q 1547 4250 1301 3770 
Q 1056 3291 1056 2328 
Q 1056 1369 1301 889 
Q 1547 409 2034 409 
Q 2525 409 2770 889 
Q 3016 1369 3016 2328 
Q 3016 3291 2770 3770 
Q 2525 4250 2034 4250 
z
M 2034 4750 
Q 2819 4750 3233 4129 
Q 3647 3509 3647 2328 
Q 3647 1150 3233 529 
Q 2819 -91 2034 -91 
Q 1250 -91 836 529 
Q 422 1150 422 2328 
Q 422 3509 836 4129 
Q 1250 4750 2034 4750 
z
" transform="scale(0.015625)"/>
        <path id="DejaVuSans-2e" d="M 684 794 
L 1344 794 
L 1344 0 
L 684 0 
L 684 794 
z
" transform="scale(0.015625)"/>
       </defs>
       <use xlink:href="#DejaVuSans-30"/>
       <use xlink:href="#DejaVuSans-2e" x="63.623047"/>
       <use xlink:href="#DejaVuSans-30" x="95.410156"/>
      </g>
     </g>
    </g>
    <g id="xtick_2">
     <g id="line2d_2">
      <g>
       <use xlink:href="#mdc538c556f" x="173.454545" y="384.48" style="stroke: #000000; stroke-width: 0.8"/>
      </g>
     </g>
     <g id="text_2">
      <!-- 0.2 -->
      <g transform="translate(165.502983 399.078438) scale(0.1 -0.1)">
       <defs>
        <path id="DejaVuSans-32" d="M 1228 531 
L 3431 531 
L 3431 0 
L 469 0 
L 469 531 
Q 828 903 1448 1529 
Q 2069 2156 2228 2338 
Q 2531 2678 2651 2914 
Q 2772 3150 2772 3378 
Q 2772 3750 2511 3984 
Q 2250 4219 1831 4219 
Q 1534 4219 1204 4116 
Q 875 4013 500 3803 
L 500 4441 
Q 881 4594 1212 4672 
Q 1544 4750 1819 4750 
Q 2544 4750 2975 4387 
Q 3406 4025 3406 3419 
Q 3406 3131 3298 2873 
Q 3191 2616 2906 2266 
Q 2828 2175 2409 1742 
Q 1991 1309 1228 531 
z
" transform="scale(0.015625)"/>
       </defs>
       <use xlink:href="#DejaVuSans-30"/>
       <use xlink:href="#DejaVuSans-2e" x="63.623047"/>
       <use xlink:href="#DejaVuSans-32" x="95.410156"/>
      </g>
     </g>
    </g>
    <g id="xtick_3">
     <g id="line2d_3">
      <g>
       <use xlink:href="#mdc538c556f" x="254.618182" y="384.48" style="stroke: #000000; stroke-width: 0.8"/>
      </g>
     </g>
     <g id="text_3">
      <!-- 0.4 -->
      <g transform="translate(246.666619 399.078438) scale(0.1 -0.1)">
       <defs>
        <path id="DejaVuSans-34" d="M 2419 4116 
L 825 1625 
L 2419 1625 
L 2419 4116 
z
M 2253 4666 
L 3047 4666 
L 3047 1625 
L 3713 1625 
L 3713 1100 
L 3047 1100 
L 3047 0 
L 2419 0 
L 2419 1100 
L 313 1100 
L 313 1709 
L 2253 4666 
z
" transform="scale(0.015625)"/>
       </defs>
       <use xlink:href="#DejaVuSans-30"/>
       <use xlink:href="#DejaVuSans-2e" x="63.623047"/>
       <use xlink:href="#DejaVuSans-34" x="95.410156"/>
      </g>
     </g>
    </g>
    <g id="xtick_4">
     <g id="line2d_4">
      <g>
       <use xlink:href="#mdc538c556f" x="335.781818" y="384.48" style="stroke: #000000; stroke-width: 0.8"/>
      </g>
     </g>
     <g id="text_4">
      <!-- 0.6 -->
      <g transform="translate(327.830256 399.078438) scale(0.1 -0.1)">
       <defs>
        <path id="DejaVuSans-36" d="M 2113 2584 
Q 1688 2584 1439 2293 
Q 1191 2003 1191 1497 
Q 1191 994 1439 701 
Q 1688 409 2113 409 
Q 2538 409 2786 701 
Q 3034 994 3034 1497 
Q 3034 2003 2786 2293 
Q 2538 2584 2113 2584 
z
M 3366 4563 
L 3366 3988 
Q 3128 4100 2886 4159 
Q 2644 4219 2406 4219 
Q 1781 4219 1451 3797 
Q 1122 3375 1075 2522 
Q 1259 2794 1537 2939 
Q 1816 3084 2150 3084 
Q 2853 3084 3261 2657 
Q 3669 2231 3669 1497 
Q 3669 778 3244 343 
Q 2819 -91 2113 -91 
Q 1303 -91 875 529 
Q 447 1150 447 2328 
Q 447 3434 972 4092 
Q 1497 4750 2381 4750 
Q 2619 4750 2861 4703 
Q 3103 4656 3366 4563 
z
" transform="scale(0.015625)"/>
       </defs>
       <use xlink:href="#DejaVuSans-30"/>
       <use xlink:href="#DejaVuSans-2e" x="63.623047"/>
       <use xlink:href="#DejaVuSans-36" x="95.410156"/>
      </g>
     </g>
    </g>
    <g id="xtick_5">
     <g id="line2d_5">
      <g>
       <use xlink:href="#mdc538c556f" x="416.945455" y="384.48" style="stroke: #000000; stroke-width: 0.8"/>
      </g>
     </g>
     <g id="text_5">
      <!-- 0.8 -->
      <g transform="translate(408.993892 399.078438) scale(0.1 -0.1)">
       <defs>
        <path id="DejaVuSans-38" d="M 2034 2216 
Q 1584 2216 1326 1975 
Q 1069 1734 1069 1313 
Q 1069 891 1326 650 
Q 1584 409 2034 409 
Q 2484 409 2743 651 
Q 3003 894 3003 1313 
Q 3003 1734 2745 1975 
Q 2488 2216 2034 2216 
z
M 1403 2484 
Q 997 2584 770 2862 
Q 544 3141 544 3541 
Q 544 4100 942 4425 
Q 1341 4750 2034 4750 
Q 2731 4750 3128 4425 
Q 3525 4100 3525 3541 
Q 3525 3141 3298 2862 
Q 3072 2584 2669 2484 
Q 3125 2378 3379 2068 
Q 3634 1759 3634 1313 
Q 3634 634 3220 271 
Q 2806 -91 2034 -91 
Q 1263 -91 848 271 
Q 434 634 434 1313 
Q 434 1759 690 2068 
Q 947 2378 1403 2484 
z
M 1172 3481 
Q 1172 3119 1398 2916 
Q 1625 2713 2034 2713 
Q 2441 2713 2670 2916 
Q 2900 3119 2900 3481 
Q 2900 3844 2670 4047 
Q 2441 4250 2034 4250 
Q 1625 4250 1398 4047 
Q 1172 3844 1172 3481 
z
" transform="scale(0.015625)"/>
       </defs>
       <use xlink:href="#DejaVuSans-30"/>
       <use xlink:href="#DejaVuSans-2e" x="63.623047"/>
       <use xlink:href="#DejaVuSans-38" x="95.410156"/>
      </g>
     </g>
    </g>
    <g id="xtick_6">
     <g id="line2d_6">
      <g>
       <use xlink:href="#mdc538c556f" x="498.109091" y="384.48" style="stroke: #000000; stroke-width: 0.8"/>
      </g>
     </g>
     <g id="text_6">
      <!-- 1.0 -->
      <g transform="translate(490.157528 399.078438) scale(0.1 -0.1)">
       <defs>
        <path id="DejaVuSans-31" d="M 794 531 
L 1825 531 
L 1825 4091 
L 703 3866 
L 703 4441 
L 1819 4666 
L 2450 4666 
L 2450 531 
L 3481 531 
L 3481 0 
L 794 0 
L 794 531 
z
" transform="scale(0.015625)"/>
       </defs>
       <use xlink:href="#DejaVuSans-31"/>
       <use xlink:href="#DejaVuSans-2e" x="63.623047"/>
       <use xlink:href="#DejaVuSans-30" x="95.410156"/>
      </g>
     </g>
    </g>
   </g>
   <g id="matplotlib.axis_2">
    <g id="ytick_1">
     <g id="line2d_7">
      <defs>
       <path id="me76b34acb4" d="M 0 0 
L -3.5 0 
" style="stroke: #000000; stroke-width: 0.8"/>
      </defs>
      <g>
       <use xlink:href="#me76b34acb4" x="72" y="369.36" style="stroke: #000000; stroke-width: 0.8"/>
      </g>
     </g>
     <g id="text_7">
      <!-- −5.0 -->
      <g transform="translate(40.717187 373.159219) scale(0.1 -0.1)">
       <defs>
        <path id="DejaVuSans-2212" d="M 678 2272 
L 4684 2272 
L 4684 1741 
L 678 1741 
L 678 2272 
z
" transform="scale(0.015625)"/>
        <path id="DejaVuSans-35" d="M 691 4666 
L 3169 4666 
L 3169 4134 
L 1269 4134 
L 1269 2991 
Q 1406 3038 1543 3061 
Q 1681 3084 1819 3084 
Q 2600 3084 3056 2656 
Q 3513 2228 3513 1497 
Q 3513 744 3044 326 
Q 2575 -91 1722 -91 
Q 1428 -91 1123 -41 
Q 819 9 494 109 
L 494 744 
Q 775 591 1075 516 
Q 1375 441 1709 441 
Q 2250 441 2565 725 
Q 2881 1009 2881 1497 
Q 2881 1984 2565 2268 
Q 2250 2553 1709 2553 
Q 1456 2553 1204 2497 
Q 953 2441 691 2322 
L 691 4666 
z
" transform="scale(0.015625)"/>
       </defs>
       <use xlink:href="#DejaVuSans-2212"/>
       <use xlink:href="#DejaVuSans-35" x="83.789062"/>
       <use xlink:href="#DejaVuSans-2e" x="147.412109"/>
       <use xlink:href="#DejaVuSans-30" x="179.199219"/>
      </g>
     </g>
    </g>
    <g id="ytick_2">
     <g id="line2d_8">
      <g>
       <use xlink:href="#me76b34acb4" x="72" y="331.56" style="stroke: #000000; stroke-width: 0.8"/>
      </g>
     </g>
     <g id="text_8">
      <!-- −2.5 -->
      <g transform="translate(40.717187 335.359219) scale(0.1 -0.1)">
       <use xlink:href="#DejaVuSans-2212"/>
       <use xlink:href="#DejaVuSans-32" x="83.789062"/>
       <use xlink:href="#DejaVuSans-2e" x="147.412109"/>
       <use xlink:href="#DejaVuSans-35" x="179.199219"/>
      </g>
     </g>
    </g>
    <g id="ytick_3">
     <g id="line2d_9">
      <g>
       <use xlink:href="#me76b34acb4" x="72" y="293.76" style="stroke: #000000; stroke-width: 0.8"/>
      </g>
     </g>
     <g id="text_9">
      <!-- 0.0 -->
      <g transform="translate(49.096875 297.559219) scale(0.1 -0.1)">
       <use xlink:href="#DejaVuSans-30"/>
       <use xlink:href="#DejaVuSans-2e" x="63.623047"/>
       <use xlink:href="#DejaVuSans-30" x="95.410156"/>
      </g>
     </g>
    </g>
    <g id="ytick_4">
     <g id="line2d_10">
      <g>
       <use xlink:href="#me76b34acb4" x="72" y="255.96" style="stroke: #000000; stroke-width: 0.8"/>
      </g>
     </g>
     <g id="text_10">
      <!-- 2.5 -->
      <g transform="translate(49.096875 259.759219) scale(0.1 -0.1)">
       <use xlink:href="#DejaVuSans-32"/>
       <use xlink:href="#DejaVuSans-2e" x="63.623047"/>
       <use xlink:href="#DejaVuSans-35" x="95.410156"/>
      </g>
     </g>
    </g>
    <g id="ytick_5">
     <g id="line2d_11">
      <g>
       <use xlink:href="#me76b34acb4" x="72" y="218.16" style="stroke: #000000; stroke-width: 0.8"/>
      </g>
     </g>
     <g id="text_11">
      <!-- 5.0 -->
      <g transform="translate(49.096875 221.959219) scale(0.1 -0.1)">
       <use xlink:href="#DejaVuSans-35"/>
       <use xlink:href="#DejaVuSans-2e" x="63.623047"/>
       <use xlink:href="#DejaVuSans-30" x="95.410156"/>
      </g>
     </g>
    </g>
    <g id="ytick_6">
     <g id="line2d_12">
      <g>
       <use xlink:href="#me76b34acb4" x="72" y="180.36" style="stroke: #000000; stroke-width: 0.8"/>
      </g>
     </g>
     <g id="text_12">
      <!-- 7.5 -->
      <g transform="translate(49.096875 184.159219) scale(0.1 -0.1)">
       <defs>
        <path id="DejaVuSans-37" d="M 525 4666 
L 3525 4666 
L 3525 4397 
L 1831 0 
L 1172 0 
L 2766 4134 
L 525 4134 
L 525 4666 
z
" transform="scale(0.015625)"/>
       </defs>
       <use xlink:href="#DejaVuSans-37"/>
       <use xlink:href="#DejaVuSans-2e" x="63.623047"/>
       <use xlink:href="#DejaVuSans-35" x="95.410156"/>
      </g>
     </g>
    </g>
    <g id="ytick_7">
     <g id="line2d_13">
      <g>
       <use xlink:href="#me76b34acb4" x="72" y="142.56" style="stroke: #000000; stroke-width: 0.8"/>
      </g>
     </g>
     <g id="text_13">
      <!-- 10.0 -->
      <g transform="translate(42.734375 146.359219) scale(0.1 -0.1)">
       <use xlink:href="#DejaVuSans-31"/>
       <use xlink:href="#DejaVuSans-30" x="63.623047"/>
       <use xlink:href="#DejaVuSans-2e" x="127.246094"/>
       <use xlink:href="#DejaVuSans-30" x="159.033203"/>
      </g>
     </g>
    </g>
    <g id="ytick_8">
     <g id="line2d_14">
      <g>
       <use xlink:href="#me76b34acb4" x="72" y="104.76" style="stroke: #000000; stroke-width: 0.8"/>
      </g>
     </g>
     <g id="text_14">
      <!-- 12.5 -->
      <g transform="translate(42.734375 108.559219) scale(0.1 -0.1)">
       <use xlink:href="#DejaVuSans-31"/>
       <use xlink:href="#DejaVuSans-32" x="63.623047"/>
       <use xlink:href="#DejaVuSans-2e" x="127.246094"/>
       <use xlink:href="#DejaVuSans-35" x="159.033203"/>
      </g>
     </g>
    </g>
    <g id="ytick_9">
     <g id="line2d_15">
      <g>
       <use xlink:href="#me76b34acb4" x="72" y="66.96" style="stroke: #000000; stroke-width: 0.8"/>
      </g>
     </g>
     <g id="text_15">
      <!-- 15.0 -->
      <g transform="translate(42.734375 70.759219) scale(0.1 -0.1)">
       <use xlink:href="#DejaVuSans-31"/>
       <use xlink:href="#DejaVuSans-35" x="63.623047"/>
       <use xlink:href="#DejaVuSans-2e" x="127.246094"/>
       <use xlink:href="#DejaVuSans-30" x="159.033203"/>
      </g>
     </g>
    </g>
   </g>
   <g id="line2d_16">
    <path d="M 92.290909 332.272152 
L 96.349091 332.273664 
L 100.407273 332.275176 
L 104.465455 332.2782 
L 108.523636 332.282736 
L 112.581818 332.288784 
L 116.64 332.296344 
L 120.698182 332.305416 
L 124.756364 332.317512 
L 128.814545 332.33112 
L 132.872727 332.347752 
L 136.930909 332.367408 
L 140.989091 332.390088 
L 145.047273 332.415792 
L 149.105455 332.447544 
L 153.163636 332.48232 
L 157.221818 332.521632 
L 161.28 332.566992 
L 165.338182 332.6184 
L 169.396364 332.677368 
L 173.454545 332.740872 
L 177.512727 332.813448 
L 181.570909 332.892072 
L 185.629091 332.979768 
L 189.687273 333.076536 
L 193.745455 333.180864 
L 197.803636 333.294264 
L 201.861818 333.418248 
L 205.92 333.552816 
L 209.978182 333.694944 
L 214.036364 333.849168 
L 218.094545 334.012464 
L 222.152727 334.186344 
L 226.210909 334.369296 
L 230.269091 334.562832 
L 234.327273 334.766952 
L 238.385455 334.980144 
L 242.443636 335.202408 
L 246.501818 335.433744 
L 250.56 335.67264 
L 254.618182 335.920608 
L 258.676364 336.176136 
L 262.734545 336.439224 
L 266.792727 336.70836 
L 270.850909 336.983544 
L 274.909091 337.264776 
L 278.967273 337.550544 
L 283.025455 337.84236 
L 287.083636 338.135688 
L 291.141818 338.433552 
L 295.2 338.732928 
L 299.258182 339.035328 
L 303.316364 339.33924 
L 307.374545 339.644664 
L 311.432727 339.948576 
L 315.490909 340.254 
L 319.549091 340.559424 
L 323.607273 340.861824 
L 327.665455 341.164224 
L 331.723636 341.465112 
L 335.781818 341.761464 
L 339.84 342.056304 
L 343.898182 342.34812 
L 347.956364 342.636912 
L 352.014545 342.919656 
L 356.072727 343.199376 
L 360.130909 343.47456 
L 364.189091 343.745208 
L 368.247273 344.009808 
L 372.305455 344.26836 
L 376.363636 344.522376 
L 380.421818 344.768832 
L 384.48 345.00924 
L 388.538182 345.2436 
L 392.596364 345.4704 
L 396.654545 345.691152 
L 400.712727 345.904344 
L 404.770909 346.109976 
L 408.829091 346.308048 
L 412.887273 346.49856 
L 416.945455 346.681512 
L 421.003636 346.855392 
L 425.061818 347.021712 
L 429.12 347.180472 
L 433.178182 347.33016 
L 437.236364 347.470776 
L 441.294545 347.603832 
L 445.352727 347.726304 
L 449.410909 347.841216 
L 453.469091 347.947056 
L 457.527273 348.043824 
L 461.585455 348.133032 
L 465.643636 348.211656 
L 469.701818 348.281208 
L 473.76 348.341688 
L 477.818182 348.393096 
L 481.876364 348.43392 
L 485.934545 348.467184 
L 489.992727 348.489864 
L 494.050909 348.504984 
L 498.109091 348.50952 
" clip-path="url(#p8d45166bf5)" style="fill: none; stroke: #000000; stroke-opacity: 0.5; stroke-linecap: square"/>
   </g>
   <g id="line2d_17">
    <path d="M 92.290909 304.856568 
L 96.349091 304.859592 
L 100.407273 304.868664 
L 104.465455 304.883784 
L 108.523636 304.904952 
L 112.581818 304.932168 
L 116.64 304.965432 
L 120.698182 305.003232 
L 124.756364 305.045568 
L 128.814545 305.09244 
L 132.872727 305.143848 
L 136.930909 305.196768 
L 140.989091 305.254224 
L 145.047273 305.313192 
L 149.105455 305.37216 
L 153.163636 305.43264 
L 157.221818 305.49312 
L 161.28 305.552088 
L 165.338182 305.609544 
L 169.396364 305.663976 
L 173.454545 305.713872 
L 177.512727 305.759232 
L 181.570909 305.798544 
L 185.629091 305.830296 
L 189.687273 305.856 
L 193.745455 305.87112 
L 197.803636 305.87868 
L 201.861818 305.874144 
L 205.92 305.859024 
L 209.978182 305.831808 
L 214.036364 305.792496 
L 218.094545 305.739576 
L 222.152727 305.671536 
L 226.210909 305.5914 
L 230.269091 305.494632 
L 234.327273 305.384256 
L 238.385455 305.257248 
L 242.443636 305.116632 
L 246.501818 304.959384 
L 250.56 304.787016 
L 254.618182 304.598016 
L 258.676364 304.393896 
L 262.734545 304.176168 
L 266.792727 303.941808 
L 270.850909 303.69384 
L 274.909091 303.430752 
L 278.967273 303.154056 
L 283.025455 302.863752 
L 287.083636 302.561352 
L 291.141818 302.245344 
L 295.2 301.91724 
L 299.258182 301.57704 
L 303.316364 301.226256 
L 307.374545 300.864888 
L 311.432727 300.494448 
L 315.490909 300.113424 
L 319.549091 299.72484 
L 323.607273 299.327184 
L 327.665455 298.92348 
L 331.723636 298.512216 
L 335.781818 298.096416 
L 339.84 297.674568 
L 343.898182 297.248184 
L 347.956364 296.818776 
L 352.014545 296.386344 
L 356.072727 295.950888 
L 360.130909 295.515432 
L 364.189091 295.078464 
L 368.247273 294.643008 
L 372.305455 294.209064 
L 376.363636 293.776632 
L 380.421818 293.347224 
L 384.48 292.92084 
L 388.538182 292.500504 
L 392.596364 292.086216 
L 396.654545 291.677976 
L 400.712727 291.277296 
L 404.770909 290.884176 
L 408.829091 290.50164 
L 412.887273 290.129688 
L 416.945455 289.76832 
L 421.003636 289.419048 
L 425.061818 289.081872 
L 429.12 288.758304 
L 433.178182 288.449856 
L 437.236364 288.156528 
L 441.294545 287.87832 
L 445.352727 287.618256 
L 449.410909 287.373312 
L 453.469091 287.146512 
L 457.527273 286.937856 
L 461.585455 286.747344 
L 465.643636 286.576488 
L 469.701818 286.423776 
L 473.76 286.292232 
L 477.818182 286.180344 
L 481.876364 286.088112 
L 485.934545 286.015536 
L 489.992727 285.964128 
L 494.050909 285.932376 
L 498.109091 285.923304 
" clip-path="url(#p8d45166bf5)" style="fill: none; stroke: #000000; stroke-opacity: 0.5; stroke-linecap: square"/>
   </g>
   <g id="line2d_18">
    <path d="M 92.290909 257.142384 
L 96.349091 257.19984 
L 100.407273 257.363136 
L 104.465455 257.61564 
L 108.523636 257.930136 
L 112.581818 258.286968 
L 116.64 258.667992 
L 120.698182 259.064136 
L 124.756364 259.461792 
L 128.814545 259.856424 
L 132.872727 260.245008 
L 136.930909 260.619984 
L 140.989091 260.981352 
L 145.047273 261.3276 
L 149.105455 261.654192 
L 153.163636 261.96264 
L 157.221818 262.251432 
L 161.28 262.517544 
L 165.338182 262.764 
L 169.396364 262.987776 
L 173.454545 263.190384 
L 177.512727 263.370312 
L 181.570909 263.52756 
L 185.629091 263.66364 
L 189.687273 263.77704 
L 193.745455 263.869272 
L 197.803636 263.940336 
L 201.861818 263.98872 
L 205.92 264.017448 
L 209.978182 264.025008 
L 214.036364 264.014424 
L 218.094545 263.982672 
L 222.152727 263.931264 
L 226.210909 263.863224 
L 230.269091 263.775528 
L 234.327273 263.6712 
L 238.385455 263.55024 
L 242.443636 263.412648 
L 246.501818 263.259936 
L 250.56 263.092104 
L 254.618182 262.910664 
L 258.676364 262.714104 
L 262.734545 262.505448 
L 266.792727 262.284696 
L 270.850909 262.05336 
L 274.909091 261.809928 
L 278.967273 261.555912 
L 283.025455 261.292824 
L 287.083636 261.022176 
L 291.141818 260.742456 
L 295.2 260.456688 
L 299.258182 260.16336 
L 303.316364 259.863984 
L 307.374545 259.561584 
L 311.432727 259.253136 
L 315.490909 258.943176 
L 319.549091 258.630192 
L 323.607273 258.314184 
L 327.665455 257.998176 
L 331.723636 257.680656 
L 335.781818 257.363136 
L 339.84 257.047128 
L 343.898182 256.732632 
L 347.956364 256.419648 
L 352.014545 256.108176 
L 356.072727 255.798216 
L 360.130909 255.492792 
L 364.189091 255.18888 
L 368.247273 254.887992 
L 372.305455 254.588616 
L 376.363636 254.292264 
L 380.421818 253.997424 
L 384.48 253.705608 
L 388.538182 253.413792 
L 392.596364 253.121976 
L 396.654545 252.83016 
L 400.712727 252.538344 
L 404.770909 252.245016 
L 408.829091 251.950176 
L 412.887273 251.6508 
L 416.945455 251.349912 
L 421.003636 251.044488 
L 425.061818 250.73604 
L 429.12 250.421544 
L 433.178182 250.104024 
L 437.236364 249.780456 
L 441.294545 249.453864 
L 445.352727 249.122736 
L 449.410909 248.788584 
L 453.469091 248.451408 
L 457.527273 248.115744 
L 461.585455 247.78008 
L 465.643636 247.448952 
L 469.701818 247.123872 
L 473.76 246.8124 
L 477.818182 246.519072 
L 481.876364 246.25296 
L 485.934545 246.024648 
L 489.992727 245.84472 
L 494.050909 245.729808 
L 498.109091 245.690496 
" clip-path="url(#p8d45166bf5)" style="fill: none; stroke: #000000; stroke-opacity: 0.5; stroke-linecap: square"/>
   </g>
   <g id="line2d_19">
    <path d="M 92.290909 251.073216 
L 96.349091 251.002152 
L 100.407273 250.79652 
L 104.465455 250.477488 
L 108.523636 250.067736 
L 112.581818 249.589944 
L 116.64 249.060744 
L 120.698182 248.495256 
L 124.756364 247.90104 
L 128.814545 247.28868 
L 132.872727 246.662712 
L 136.930909 246.027672 
L 140.989091 245.388096 
L 145.047273 244.74852 
L 149.105455 244.11348 
L 153.163636 243.482976 
L 157.221818 242.863056 
L 161.28 242.255232 
L 165.338182 241.662528 
L 169.396364 241.087968 
L 173.454545 240.533064 
L 177.512727 240.00084 
L 181.570909 239.49432 
L 185.629091 239.015016 
L 189.687273 238.56444 
L 193.745455 238.145616 
L 197.803636 237.758544 
L 201.861818 237.403224 
L 205.92 237.084192 
L 209.978182 236.798424 
L 214.036364 236.548944 
L 218.094545 236.332728 
L 222.152727 236.151288 
L 226.210909 236.004624 
L 230.269091 235.8882 
L 234.327273 235.80504 
L 238.385455 235.750608 
L 242.443636 235.723392 
L 246.501818 235.723392 
L 250.56 235.746072 
L 254.618182 235.791432 
L 258.676364 235.85796 
L 262.734545 235.94112 
L 266.792727 236.0394 
L 270.850909 236.1528 
L 274.909091 236.276784 
L 278.967273 236.411352 
L 283.025455 236.551968 
L 287.083636 236.700144 
L 291.141818 236.851344 
L 295.2 237.004056 
L 299.258182 237.15828 
L 303.316364 237.312504 
L 307.374545 237.463704 
L 311.432727 237.610368 
L 315.490909 237.754008 
L 319.549091 237.890088 
L 323.607273 238.02012 
L 327.665455 238.14108 
L 331.723636 238.25448 
L 335.781818 238.358808 
L 339.84 238.452552 
L 343.898182 238.535712 
L 347.956364 238.608288 
L 352.014545 238.671792 
L 356.072727 238.724712 
L 360.130909 238.765536 
L 364.189091 238.7988 
L 368.247273 238.822992 
L 372.305455 238.839624 
L 376.363636 238.848696 
L 380.421818 238.85172 
L 384.48 238.85172 
L 388.538182 238.847184 
L 392.596364 238.84416 
L 396.654545 238.841136 
L 400.712727 238.839624 
L 404.770909 238.84416 
L 408.829091 238.856256 
L 412.887273 238.875912 
L 416.945455 238.906152 
L 421.003636 238.948488 
L 425.061818 239.004432 
L 429.12 239.075496 
L 433.178182 239.163192 
L 437.236364 239.26752 
L 441.294545 239.389992 
L 445.352727 239.529096 
L 449.410909 239.686344 
L 453.469091 239.860224 
L 457.527273 240.049224 
L 461.585455 240.251832 
L 465.643636 240.465024 
L 469.701818 240.685776 
L 473.76 240.909552 
L 477.818182 241.12728 
L 481.876364 241.332912 
L 485.934545 241.515864 
L 489.992727 241.661016 
L 494.050909 241.756272 
L 498.109091 241.789536 
" clip-path="url(#p8d45166bf5)" style="fill: none; stroke: #000000; stroke-opacity: 0.5; stroke-linecap: square"/>
   </g>
   <g id="line2d_20">
    <path d="M 92.290909 169.854624 
L 96.349091 170.034552 
L 100.407273 170.510832 
L 104.465455 171.162504 
L 108.523636 171.903384 
L 112.581818 172.682064 
L 116.64 173.471328 
L 120.698182 174.253032 
L 124.756364 175.019616 
L 128.814545 175.76352 
L 132.872727 176.478696 
L 136.930909 177.163632 
L 140.989091 177.81228 
L 145.047273 178.42464 
L 149.105455 178.996176 
L 153.163636 179.525376 
L 157.221818 180.009216 
L 161.28 180.444672 
L 165.338182 180.831744 
L 169.396364 181.165896 
L 173.454545 181.447128 
L 177.512727 181.670904 
L 181.570909 181.838736 
L 185.629091 181.944576 
L 189.687273 181.989936 
L 193.745455 181.973304 
L 197.803636 181.891656 
L 201.861818 181.746504 
L 205.92 181.534824 
L 209.978182 181.258128 
L 214.036364 180.914904 
L 218.094545 180.506664 
L 222.152727 180.03492 
L 226.210909 179.499672 
L 230.269091 178.90092 
L 234.327273 178.241688 
L 238.385455 177.523488 
L 242.443636 176.747832 
L 246.501818 175.916232 
L 250.56 175.031712 
L 254.618182 174.095784 
L 258.676364 173.111472 
L 262.734545 172.080288 
L 266.792727 171.003744 
L 270.850909 169.884864 
L 274.909091 168.726672 
L 278.967273 167.53068 
L 283.025455 166.296888 
L 287.083636 165.029832 
L 291.141818 163.731024 
L 295.2 162.401976 
L 299.258182 161.0442 
L 303.316364 159.659208 
L 307.374545 158.248512 
L 311.432727 156.816648 
L 315.490909 155.372688 
L 319.549091 155.814192 
L 323.607273 157.261176 
L 327.665455 158.691528 
L 331.723636 160.100712 
L 335.781818 161.485704 
L 339.84 162.846504 
L 343.898182 164.183112 
L 347.956364 165.492504 
L 352.014545 166.773168 
L 356.072727 168.025104 
L 360.130909 169.2468 
L 364.189091 170.436744 
L 368.247273 171.593424 
L 372.305455 172.715328 
L 376.363636 173.799432 
L 380.421818 174.847248 
L 384.48 175.855752 
L 388.538182 176.823432 
L 392.596364 177.748776 
L 396.654545 178.630272 
L 400.712727 179.466408 
L 404.770909 180.25416 
L 408.829091 180.99504 
L 412.887273 181.687536 
L 416.945455 182.327112 
L 421.003636 182.918304 
L 425.061818 183.455064 
L 429.12 183.941928 
L 433.178182 184.375872 
L 437.236364 184.758408 
L 441.294545 185.091048 
L 445.352727 185.373792 
L 449.410909 185.608152 
L 453.469091 185.800176 
L 457.527273 185.948352 
L 461.585455 186.06024 
L 465.643636 186.137352 
L 469.701818 186.185736 
L 473.76 186.21144 
L 477.818182 186.219 
L 481.876364 186.214464 
L 485.934545 186.20388 
L 489.992727 186.193296 
L 494.050909 186.184224 
L 498.109091 186.1812 
" clip-path="url(#p8d45166bf5)" style="fill: none; stroke: #000000; stroke-opacity: 0.5; stroke-linecap: square"/>
   </g>
   <g id="line2d_21">
    <path d="M 92.290909 164.372112 
L 96.349091 164.16648 
L 100.407273 163.613088 
L 104.465455 162.832896 
L 108.523636 161.912088 
L 112.581818 160.902072 
L 116.64 159.828552 
L 120.698182 158.70816 
L 124.756364 157.549968 
L 128.814545 156.360024 
L 132.872727 155.141352 
L 136.930909 153.898488 
L 140.989091 152.631432 
L 145.047273 151.343208 
L 149.105455 150.035328 
L 153.163636 148.707792 
L 157.221818 147.362112 
L 161.28 145.998288 
L 165.338182 144.619344 
L 169.396364 143.223768 
L 173.454545 141.813072 
L 177.512727 140.388768 
L 181.570909 138.950856 
L 185.629091 137.500848 
L 189.687273 136.038744 
L 193.745455 134.567568 
L 197.803636 133.088832 
L 201.861818 131.604048 
L 205.92 130.119264 
L 209.978182 128.640528 
L 214.036364 127.178424 
L 218.094545 125.757144 
L 222.152727 124.43112 
L 226.210909 123.333408 
L 230.269091 122.789088 
L 234.327273 123.1686 
L 238.385455 124.267824 
L 242.443636 125.68608 
L 246.501818 127.23588 
L 250.56 128.843136 
L 254.618182 130.476096 
L 258.676364 132.121152 
L 262.734545 133.76772 
L 266.792727 135.414288 
L 270.850909 137.054808 
L 274.909091 138.687768 
L 278.967273 140.313168 
L 283.025455 141.926472 
L 287.083636 143.529192 
L 291.141818 145.118304 
L 295.2 146.693808 
L 299.258182 148.254192 
L 303.316364 149.799456 
L 307.374545 151.326576 
L 311.432727 152.835552 
L 315.490909 154.317312 
L 319.549091 153.872784 
L 323.607273 152.383464 
L 327.665455 150.872976 
L 331.723636 149.34888 
L 335.781818 147.812688 
L 339.84 146.267424 
L 343.898182 144.723672 
L 347.956364 143.188992 
L 352.014545 141.693624 
L 356.072727 140.317704 
L 360.130909 139.365144 
L 364.189091 139.492152 
L 368.247273 140.51124 
L 372.305455 141.81156 
L 376.363636 143.188992 
L 380.421818 144.587592 
L 384.48 145.986192 
L 388.538182 147.37572 
L 392.596364 148.750128 
L 396.654545 150.106392 
L 400.712727 151.443 
L 404.770909 152.75844 
L 408.829091 154.049688 
L 412.887273 155.315232 
L 416.945455 156.55356 
L 421.003636 157.764672 
L 425.061818 158.944032 
L 429.12 160.093152 
L 433.178182 161.205984 
L 437.236364 162.28404 
L 441.294545 163.321272 
L 445.352727 164.319192 
L 449.410909 165.27024 
L 453.469091 166.174416 
L 457.527273 167.025672 
L 461.585455 167.820984 
L 465.643636 168.554304 
L 469.701818 169.221096 
L 473.76 169.816824 
L 477.818182 170.333928 
L 481.876364 170.767872 
L 485.934545 171.112608 
L 489.992727 171.362088 
L 494.050909 171.5148 
L 498.109091 171.564696 
" clip-path="url(#p8d45166bf5)" style="fill: none; stroke: #000000; stroke-opacity: 0.5; stroke-linecap: square"/>
   </g>
   <g id="line2d_22">
    <path d="M 92.290909 112.97016 
L 96.349091 112.967136 
L 100.407273 112.956552 
L 104.465455 112.941432 
L 108.523636 112.918752 
L 112.581818 112.890024 
L 116.64 112.853736 
L 120.698182 112.812912 
L 124.756364 112.76604 
L 128.814545 112.711608 
L 132.872727 112.651128 
L 136.930909 112.586112 
L 140.989091 112.513536 
L 145.047273 112.436424 
L 149.105455 112.353264 
L 153.163636 112.264056 
L 157.221818 112.170312 
L 161.28 112.07052 
L 165.338182 111.966192 
L 169.396364 111.855816 
L 173.454545 111.742416 
L 177.512727 111.622968 
L 181.570909 111.498984 
L 185.629091 111.371976 
L 189.687273 111.240432 
L 193.745455 111.104352 
L 197.803636 110.96676 
L 201.861818 110.824632 
L 205.92 110.688552 
L 209.978182 110.71728 
L 214.036364 112.220208 
L 218.094545 113.825952 
L 222.152727 115.333416 
L 226.210909 116.603496 
L 230.269091 117.308088 
L 234.327273 117.084312 
L 238.385455 116.1378 
L 242.443636 114.876792 
L 246.501818 113.509944 
L 250.56 112.147632 
L 254.618182 110.916864 
L 258.676364 109.985472 
L 262.734545 109.415448 
L 266.792727 109.078272 
L 270.850909 108.863568 
L 274.909091 108.729 
L 278.967273 108.677592 
L 283.025455 108.763776 
L 287.083636 109.113048 
L 291.141818 109.899288 
L 295.2 111.108888 
L 299.258182 112.564944 
L 303.316364 114.1344 
L 307.374545 115.755264 
L 311.432727 117.398808 
L 315.490909 119.051424 
L 319.549091 120.702528 
L 323.607273 122.349096 
L 327.665455 123.986592 
L 331.723636 125.61048 
L 335.781818 127.219248 
L 339.84 128.80836 
L 343.898182 130.371768 
L 347.956364 131.895864 
L 352.014545 133.354944 
L 356.072727 134.66736 
L 360.130909 135.532224 
L 364.189091 135.290304 
L 368.247273 134.132112 
L 372.305455 132.666984 
L 376.363636 131.102064 
L 380.421818 129.490272 
L 384.48 127.8558 
L 388.538182 126.209232 
L 392.596364 124.553592 
L 396.654545 122.89644 
L 400.712727 121.237776 
L 404.770909 119.582136 
L 408.829091 117.934056 
L 412.887273 116.295048 
L 416.945455 114.669648 
L 421.003636 113.066928 
L 425.061818 111.494448 
L 429.12 109.96884 
L 433.178182 108.52488 
L 437.236364 107.230608 
L 441.294545 106.210008 
L 445.352727 105.562872 
L 449.410909 105.212088 
L 453.469091 105.018552 
L 457.527273 104.902128 
L 461.585455 104.825016 
L 465.643636 104.770584 
L 469.701818 104.731272 
L 473.76 104.702544 
L 477.818182 104.679864 
L 481.876364 104.663232 
L 485.934545 104.652648 
L 489.992727 104.643576 
L 494.050909 104.63904 
L 498.109091 104.637528 
" clip-path="url(#p8d45166bf5)" style="fill: none; stroke: #000000; stroke-opacity: 0.5; stroke-linecap: square"/>
   </g>
   <g id="line2d_23">
    <path d="M 92.290909 76.544568 
L 96.349091 76.55364 
L 100.407273 76.582368 
L 104.465455 76.6368 
L 108.523636 76.726008 
L 112.581818 76.87116 
L 116.64 77.100984 
L 120.698182 77.456304 
L 124.756364 77.991552 
L 128.814545 78.743016 
L 132.872727 79.716744 
L 136.930909 80.882496 
L 140.989091 82.196424 
L 145.047273 83.619216 
L 149.105455 85.122144 
L 153.163636 86.68404 
L 157.221818 88.291296 
L 161.28 89.931816 
L 165.338182 91.601064 
L 169.396364 93.289968 
L 173.454545 94.995504 
L 177.512727 96.711624 
L 181.570909 98.438328 
L 185.629091 100.17108 
L 189.687273 101.906856 
L 193.745455 103.642632 
L 197.803636 105.375384 
L 201.861818 107.100576 
L 205.92 108.807624 
L 209.978182 110.327184 
L 214.036364 110.340792 
L 218.094545 110.192616 
L 222.152727 110.032344 
L 226.210909 109.867536 
L 230.269091 109.695168 
L 234.327273 109.516752 
L 238.385455 109.324728 
L 242.443636 109.116072 
L 246.501818 108.87264 
L 250.56 108.559656 
L 254.618182 108.089424 
L 258.676364 107.318304 
L 262.734545 106.214544 
L 266.792727 104.96412 
L 270.850909 103.818024 
L 274.909091 103.190544 
L 278.967273 103.52772 
L 283.025455 104.498424 
L 287.083636 105.511464 
L 291.141818 106.205472 
L 295.2 106.526016 
L 299.258182 106.622784 
L 303.316364 106.616736 
L 307.374545 106.560792 
L 311.432727 106.482168 
L 315.490909 106.388424 
L 319.549091 106.290144 
L 323.607273 106.18884 
L 327.665455 106.086024 
L 331.723636 105.98472 
L 335.781818 105.883416 
L 339.84 105.786648 
L 343.898182 105.691392 
L 347.956364 105.59916 
L 352.014545 105.509952 
L 356.072727 105.423768 
L 360.130909 105.34212 
L 364.189091 105.263496 
L 368.247273 105.187896 
L 372.305455 105.11532 
L 376.363636 105.04728 
L 380.421818 104.980752 
L 384.48 104.91876 
L 388.538182 104.85828 
L 392.596364 104.799312 
L 396.654545 104.743368 
L 400.712727 104.688936 
L 404.770909 104.632992 
L 408.829091 104.57856 
L 412.887273 104.519592 
L 416.945455 104.4576 
L 421.003636 104.385024 
L 425.061818 104.297328 
L 429.12 104.179392 
L 433.178182 104.000976 
L 437.236364 103.698576 
L 441.294545 103.14972 
L 445.352727 102.262176 
L 449.410909 101.117592 
L 453.469091 99.864144 
L 457.527273 98.588016 
L 461.585455 97.33608 
L 465.643636 96.138576 
L 469.701818 95.013648 
L 473.76 93.983976 
L 477.818182 93.066192 
L 481.876364 92.281464 
L 485.934545 91.646424 
L 489.992727 91.179216 
L 494.050909 90.891936 
L 498.109091 90.795168 
" clip-path="url(#p8d45166bf5)" style="fill: none; stroke: #000000; stroke-opacity: 0.5; stroke-linecap: square"/>
   </g>
   <g id="patch_3">
    <path d="M 72 384.48 
L 72 51.84 
" style="fill: none; stroke: #000000; stroke-width: 0.8; stroke-linejoin: miter; stroke-linecap: square"/>
   </g>
   <g id="patch_4">
    <path d="M 518.4 384.48 
L 518.4 51.84 
" style="fill: none; stroke: #000000; stroke-width: 0.8; stroke-linejoin: miter; stroke-linecap: square"/>
   </g>
   <g id="patch_5">
    <path d="M 72 384.48 
L 518.4 384.48 
" style="fill: none; stroke: #000000; stroke-width: 0.8; stroke-linejoin: miter; stroke-linecap: square"/>
   </g>
   <g id="patch_6">
    <path d="M 72 51.84 
L 518.4 51.84 
" style="fill: none; stroke: #000000; stroke-width: 0.8; stroke-linejoin: miter; stroke-linecap: square"/>
   </g>
  </g>
 </g>
 <defs>
  <clipPath id="p8d45166bf5">
   <rect x="72" y="51.84" width="446.4" height="332.64"/>
  </clipPath>
 </defs>
</svg>
