<?xml version="1.0" encoding="utf-8" standalone="no"?>
<!DOCTYPE svg PUBLIC "-//W3C//DTD SVG 1.1//EN"
  "http://www.w3.org/Graphics/SVG/1.1/DTD/svg11.dtd">
<svg xmlns:xlink="http://www.w3.org/1999/xlink" width="576pt" height="432pt" viewBox="0 0 576 432" xmlns="http://www.w3.org/2000/svg" version="1.1">
 <metadata>
  <rdf:RDF xmlns:dc="http://purl.org/dc/elements/1.1/" xmlns:cc="http://creativecommons.org/ns#" xmlns:rdf="http://www.w3.org/1999/02/22-rdf-syntax-ns#">
   <cc:Work>
    <dc:type rdf:resource="http://purl.org/dc/dcmitype/StillImage"/>
    <dc:date>2023-05-03T12:07:59.436915</dc:date>
    <dc:format>image/svg+xml</dc:format>
    <dc:creator>
     <cc:Agent>
      <dc:title>Matplotlib v3.7.1, https://matplotlib.org/</dc:title>
     </cc:Agent>
    </dc:creator>
   </cc:Work>
  </rdf:RDF>
 </metadata>
 <defs>
  <style type="text/css">*{stroke-linejoin: round; stroke-linecap: butt}</style>
 </defs>
 <g id="figure_1">
  <g id="patch_1">
   <path d="M 0 432 
L 576 432 
L 576 0 
L 0 0 
z
" style="fill: #ffffff"/>
  </g>
  <g id="axes_1">
   <g id="patch_2">
    <path d="M 72 384.48 
L 518.4 384.48 
L 518.4 51.84 
L 72 51.84 
z
" style="fill: #ffffff"/>
   </g>
   <g id="matplotlib.axis_1">
    <g id="xtick_1">
     <g id="line2d_1">
      <defs>
       <path id="madc87c7493" d="M 0 0 
L 0 3.5 
" style="stroke: #000000; stroke-width: 0.8"/>
      </defs>
      <g>
       <use xlink:href="#madc87c7493" x="92.290909" y="384.48" style="stroke: #000000; stroke-width: 0.8"/>
      </g>
     </g>
     <g id="text_1">
      <!-- 0.0 -->
      <g transform="translate(84.339347 399.078438) scale(0.1 -0.1)">
       <defs>
        <path id="DejaVuSans-30" d="M 2034 4250 
Q 1547 4250 1301 3770 
Q 1056 3291 1056 2328 
Q 1056 1369 1301 889 
Q 1547 409 2034 409 
Q 2525 409 2770 889 
Q 3016 1369 3016 2328 
Q 3016 3291 2770 3770 
Q 2525 4250 2034 4250 
z
M 2034 4750 
Q 2819 4750 3233 4129 
Q 3647 3509 3647 2328 
Q 3647 1150 3233 529 
Q 2819 -91 2034 -91 
Q 1250 -91 836 529 
Q 422 1150 422 2328 
Q 422 3509 836 4129 
Q 1250 4750 2034 4750 
z
" transform="scale(0.015625)"/>
        <path id="DejaVuSans-2e" d="M 684 794 
L 1344 794 
L 1344 0 
L 684 0 
L 684 794 
z
" transform="scale(0.015625)"/>
       </defs>
       <use xlink:href="#DejaVuSans-30"/>
       <use xlink:href="#DejaVuSans-2e" x="63.623047"/>
       <use xlink:href="#DejaVuSans-30" x="95.410156"/>
      </g>
     </g>
    </g>
    <g id="xtick_2">
     <g id="line2d_2">
      <g>
       <use xlink:href="#madc87c7493" x="173.454545" y="384.48" style="stroke: #000000; stroke-width: 0.8"/>
      </g>
     </g>
     <g id="text_2">
      <!-- 0.2 -->
      <g transform="translate(165.502983 399.078438) scale(0.1 -0.1)">
       <defs>
        <path id="DejaVuSans-32" d="M 1228 531 
L 3431 531 
L 3431 0 
L 469 0 
L 469 531 
Q 828 903 1448 1529 
Q 2069 2156 2228 2338 
Q 2531 2678 2651 2914 
Q 2772 3150 2772 3378 
Q 2772 3750 2511 3984 
Q 2250 4219 1831 4219 
Q 1534 4219 1204 4116 
Q 875 4013 500 3803 
L 500 4441 
Q 881 4594 1212 4672 
Q 1544 4750 1819 4750 
Q 2544 4750 2975 4387 
Q 3406 4025 3406 3419 
Q 3406 3131 3298 2873 
Q 3191 2616 2906 2266 
Q 2828 2175 2409 1742 
Q 1991 1309 1228 531 
z
" transform="scale(0.015625)"/>
       </defs>
       <use xlink:href="#DejaVuSans-30"/>
       <use xlink:href="#DejaVuSans-2e" x="63.623047"/>
       <use xlink:href="#DejaVuSans-32" x="95.410156"/>
      </g>
     </g>
    </g>
    <g id="xtick_3">
     <g id="line2d_3">
      <g>
       <use xlink:href="#madc87c7493" x="254.618182" y="384.48" style="stroke: #000000; stroke-width: 0.8"/>
      </g>
     </g>
     <g id="text_3">
      <!-- 0.4 -->
      <g transform="translate(246.666619 399.078438) scale(0.1 -0.1)">
       <defs>
        <path id="DejaVuSans-34" d="M 2419 4116 
L 825 1625 
L 2419 1625 
L 2419 4116 
z
M 2253 4666 
L 3047 4666 
L 3047 1625 
L 3713 1625 
L 3713 1100 
L 3047 1100 
L 3047 0 
L 2419 0 
L 2419 1100 
L 313 1100 
L 313 1709 
L 2253 4666 
z
" transform="scale(0.015625)"/>
       </defs>
       <use xlink:href="#DejaVuSans-30"/>
       <use xlink:href="#DejaVuSans-2e" x="63.623047"/>
       <use xlink:href="#DejaVuSans-34" x="95.410156"/>
      </g>
     </g>
    </g>
    <g id="xtick_4">
     <g id="line2d_4">
      <g>
       <use xlink:href="#madc87c7493" x="335.781818" y="384.48" style="stroke: #000000; stroke-width: 0.8"/>
      </g>
     </g>
     <g id="text_4">
      <!-- 0.6 -->
      <g transform="translate(327.830256 399.078438) scale(0.1 -0.1)">
       <defs>
        <path id="DejaVuSans-36" d="M 2113 2584 
Q 1688 2584 1439 2293 
Q 1191 2003 1191 1497 
Q 1191 994 1439 701 
Q 1688 409 2113 409 
Q 2538 409 2786 701 
Q 3034 994 3034 1497 
Q 3034 2003 2786 2293 
Q 2538 2584 2113 2584 
z
M 3366 4563 
L 3366 3988 
Q 3128 4100 2886 4159 
Q 2644 4219 2406 4219 
Q 1781 4219 1451 3797 
Q 1122 3375 1075 2522 
Q 1259 2794 1537 2939 
Q 1816 3084 2150 3084 
Q 2853 3084 3261 2657 
Q 3669 2231 3669 1497 
Q 3669 778 3244 343 
Q 2819 -91 2113 -91 
Q 1303 -91 875 529 
Q 447 1150 447 2328 
Q 447 3434 972 4092 
Q 1497 4750 2381 4750 
Q 2619 4750 2861 4703 
Q 3103 4656 3366 4563 
z
" transform="scale(0.015625)"/>
       </defs>
       <use xlink:href="#DejaVuSans-30"/>
       <use xlink:href="#DejaVuSans-2e" x="63.623047"/>
       <use xlink:href="#DejaVuSans-36" x="95.410156"/>
      </g>
     </g>
    </g>
    <g id="xtick_5">
     <g id="line2d_5">
      <g>
       <use xlink:href="#madc87c7493" x="416.945455" y="384.48" style="stroke: #000000; stroke-width: 0.8"/>
      </g>
     </g>
     <g id="text_5">
      <!-- 0.8 -->
      <g transform="translate(408.993892 399.078438) scale(0.1 -0.1)">
       <defs>
        <path id="DejaVuSans-38" d="M 2034 2216 
Q 1584 2216 1326 1975 
Q 1069 1734 1069 1313 
Q 1069 891 1326 650 
Q 1584 409 2034 409 
Q 2484 409 2743 651 
Q 3003 894 3003 1313 
Q 3003 1734 2745 1975 
Q 2488 2216 2034 2216 
z
M 1403 2484 
Q 997 2584 770 2862 
Q 544 3141 544 3541 
Q 544 4100 942 4425 
Q 1341 4750 2034 4750 
Q 2731 4750 3128 4425 
Q 3525 4100 3525 3541 
Q 3525 3141 3298 2862 
Q 3072 2584 2669 2484 
Q 3125 2378 3379 2068 
Q 3634 1759 3634 1313 
Q 3634 634 3220 271 
Q 2806 -91 2034 -91 
Q 1263 -91 848 271 
Q 434 634 434 1313 
Q 434 1759 690 2068 
Q 947 2378 1403 2484 
z
M 1172 3481 
Q 1172 3119 1398 2916 
Q 1625 2713 2034 2713 
Q 2441 2713 2670 2916 
Q 2900 3119 2900 3481 
Q 2900 3844 2670 4047 
Q 2441 4250 2034 4250 
Q 1625 4250 1398 4047 
Q 1172 3844 1172 3481 
z
" transform="scale(0.015625)"/>
       </defs>
       <use xlink:href="#DejaVuSans-30"/>
       <use xlink:href="#DejaVuSans-2e" x="63.623047"/>
       <use xlink:href="#DejaVuSans-38" x="95.410156"/>
      </g>
     </g>
    </g>
    <g id="xtick_6">
     <g id="line2d_6">
      <g>
       <use xlink:href="#madc87c7493" x="498.109091" y="384.48" style="stroke: #000000; stroke-width: 0.8"/>
      </g>
     </g>
     <g id="text_6">
      <!-- 1.0 -->
      <g transform="translate(490.157528 399.078438) scale(0.1 -0.1)">
       <defs>
        <path id="DejaVuSans-31" d="M 794 531 
L 1825 531 
L 1825 4091 
L 703 3866 
L 703 4441 
L 1819 4666 
L 2450 4666 
L 2450 531 
L 3481 531 
L 3481 0 
L 794 0 
L 794 531 
z
" transform="scale(0.015625)"/>
       </defs>
       <use xlink:href="#DejaVuSans-31"/>
       <use xlink:href="#DejaVuSans-2e" x="63.623047"/>
       <use xlink:href="#DejaVuSans-30" x="95.410156"/>
      </g>
     </g>
    </g>
   </g>
   <g id="matplotlib.axis_2">
    <g id="ytick_1">
     <g id="line2d_7">
      <defs>
       <path id="m4594623dfc" d="M 0 0 
L -3.5 0 
" style="stroke: #000000; stroke-width: 0.8"/>
      </defs>
      <g>
       <use xlink:href="#m4594623dfc" x="72" y="369.36" style="stroke: #000000; stroke-width: 0.8"/>
      </g>
     </g>
     <g id="text_7">
      <!-- −5.0 -->
      <g transform="translate(40.717187 373.159219) scale(0.1 -0.1)">
       <defs>
        <path id="DejaVuSans-2212" d="M 678 2272 
L 4684 2272 
L 4684 1741 
L 678 1741 
L 678 2272 
z
" transform="scale(0.015625)"/>
        <path id="DejaVuSans-35" d="M 691 4666 
L 3169 4666 
L 3169 4134 
L 1269 4134 
L 1269 2991 
Q 1406 3038 1543 3061 
Q 1681 3084 1819 3084 
Q 2600 3084 3056 2656 
Q 3513 2228 3513 1497 
Q 3513 744 3044 326 
Q 2575 -91 1722 -91 
Q 1428 -91 1123 -41 
Q 819 9 494 109 
L 494 744 
Q 775 591 1075 516 
Q 1375 441 1709 441 
Q 2250 441 2565 725 
Q 2881 1009 2881 1497 
Q 2881 1984 2565 2268 
Q 2250 2553 1709 2553 
Q 1456 2553 1204 2497 
Q 953 2441 691 2322 
L 691 4666 
z
" transform="scale(0.015625)"/>
       </defs>
       <use xlink:href="#DejaVuSans-2212"/>
       <use xlink:href="#DejaVuSans-35" x="83.789062"/>
       <use xlink:href="#DejaVuSans-2e" x="147.412109"/>
       <use xlink:href="#DejaVuSans-30" x="179.199219"/>
      </g>
     </g>
    </g>
    <g id="ytick_2">
     <g id="line2d_8">
      <g>
       <use xlink:href="#m4594623dfc" x="72" y="331.56" style="stroke: #000000; stroke-width: 0.8"/>
      </g>
     </g>
     <g id="text_8">
      <!-- −2.5 -->
      <g transform="translate(40.717187 335.359219) scale(0.1 -0.1)">
       <use xlink:href="#DejaVuSans-2212"/>
       <use xlink:href="#DejaVuSans-32" x="83.789062"/>
       <use xlink:href="#DejaVuSans-2e" x="147.412109"/>
       <use xlink:href="#DejaVuSans-35" x="179.199219"/>
      </g>
     </g>
    </g>
    <g id="ytick_3">
     <g id="line2d_9">
      <g>
       <use xlink:href="#m4594623dfc" x="72" y="293.76" style="stroke: #000000; stroke-width: 0.8"/>
      </g>
     </g>
     <g id="text_9">
      <!-- 0.0 -->
      <g transform="translate(49.096875 297.559219) scale(0.1 -0.1)">
       <use xlink:href="#DejaVuSans-30"/>
       <use xlink:href="#DejaVuSans-2e" x="63.623047"/>
       <use xlink:href="#DejaVuSans-30" x="95.410156"/>
      </g>
     </g>
    </g>
    <g id="ytick_4">
     <g id="line2d_10">
      <g>
       <use xlink:href="#m4594623dfc" x="72" y="255.96" style="stroke: #000000; stroke-width: 0.8"/>
      </g>
     </g>
     <g id="text_10">
      <!-- 2.5 -->
      <g transform="translate(49.096875 259.759219) scale(0.1 -0.1)">
       <use xlink:href="#DejaVuSans-32"/>
       <use xlink:href="#DejaVuSans-2e" x="63.623047"/>
       <use xlink:href="#DejaVuSans-35" x="95.410156"/>
      </g>
     </g>
    </g>
    <g id="ytick_5">
     <g id="line2d_11">
      <g>
       <use xlink:href="#m4594623dfc" x="72" y="218.16" style="stroke: #000000; stroke-width: 0.8"/>
      </g>
     </g>
     <g id="text_11">
      <!-- 5.0 -->
      <g transform="translate(49.096875 221.959219) scale(0.1 -0.1)">
       <use xlink:href="#DejaVuSans-35"/>
       <use xlink:href="#DejaVuSans-2e" x="63.623047"/>
       <use xlink:href="#DejaVuSans-30" x="95.410156"/>
      </g>
     </g>
    </g>
    <g id="ytick_6">
     <g id="line2d_12">
      <g>
       <use xlink:href="#m4594623dfc" x="72" y="180.36" style="stroke: #000000; stroke-width: 0.8"/>
      </g>
     </g>
     <g id="text_12">
      <!-- 7.5 -->
      <g transform="translate(49.096875 184.159219) scale(0.1 -0.1)">
       <defs>
        <path id="DejaVuSans-37" d="M 525 4666 
L 3525 4666 
L 3525 4397 
L 1831 0 
L 1172 0 
L 2766 4134 
L 525 4134 
L 525 4666 
z
" transform="scale(0.015625)"/>
       </defs>
       <use xlink:href="#DejaVuSans-37"/>
       <use xlink:href="#DejaVuSans-2e" x="63.623047"/>
       <use xlink:href="#DejaVuSans-35" x="95.410156"/>
      </g>
     </g>
    </g>
    <g id="ytick_7">
     <g id="line2d_13">
      <g>
       <use xlink:href="#m4594623dfc" x="72" y="142.56" style="stroke: #000000; stroke-width: 0.8"/>
      </g>
     </g>
     <g id="text_13">
      <!-- 10.0 -->
      <g transform="translate(42.734375 146.359219) scale(0.1 -0.1)">
       <use xlink:href="#DejaVuSans-31"/>
       <use xlink:href="#DejaVuSans-30" x="63.623047"/>
       <use xlink:href="#DejaVuSans-2e" x="127.246094"/>
       <use xlink:href="#DejaVuSans-30" x="159.033203"/>
      </g>
     </g>
    </g>
    <g id="ytick_8">
     <g id="line2d_14">
      <g>
       <use xlink:href="#m4594623dfc" x="72" y="104.76" style="stroke: #000000; stroke-width: 0.8"/>
      </g>
     </g>
     <g id="text_14">
      <!-- 12.5 -->
      <g transform="translate(42.734375 108.559219) scale(0.1 -0.1)">
       <use xlink:href="#DejaVuSans-31"/>
       <use xlink:href="#DejaVuSans-32" x="63.623047"/>
       <use xlink:href="#DejaVuSans-2e" x="127.246094"/>
       <use xlink:href="#DejaVuSans-35" x="159.033203"/>
      </g>
     </g>
    </g>
    <g id="ytick_9">
     <g id="line2d_15">
      <g>
       <use xlink:href="#m4594623dfc" x="72" y="66.96" style="stroke: #000000; stroke-width: 0.8"/>
      </g>
     </g>
     <g id="text_15">
      <!-- 15.0 -->
      <g transform="translate(42.734375 70.759219) scale(0.1 -0.1)">
       <use xlink:href="#DejaVuSans-31"/>
       <use xlink:href="#DejaVuSans-35" x="63.623047"/>
       <use xlink:href="#DejaVuSans-2e" x="127.246094"/>
       <use xlink:href="#DejaVuSans-30" x="159.033203"/>
      </g>
     </g>
    </g>
   </g>
   <g id="line2d_16">
    <path d="M 92.290909 361.789416 
L 96.349091 361.783368 
L 100.407273 361.768248 
L 104.465455 361.741032 
L 108.523636 361.703232 
L 112.581818 361.654848 
L 116.64 361.59588 
L 120.698182 361.526328 
L 124.756364 361.446192 
L 128.814545 361.355472 
L 132.872727 361.254168 
L 136.930909 361.14228 
L 140.989091 361.02132 
L 145.047273 360.888264 
L 149.105455 360.744624 
L 153.163636 360.591912 
L 157.221818 360.428616 
L 161.28 360.254736 
L 165.338182 360.070272 
L 169.396364 359.876736 
L 173.454545 359.672616 
L 177.512727 359.459424 
L 181.570909 359.235648 
L 185.629091 359.0028 
L 189.687273 358.76088 
L 193.745455 358.509888 
L 197.803636 358.248312 
L 201.861818 357.979176 
L 205.92 357.699456 
L 209.978182 357.412176 
L 214.036364 357.115824 
L 218.094545 356.8104 
L 222.152727 356.497416 
L 226.210909 356.176872 
L 230.269091 355.847256 
L 234.327273 355.51008 
L 238.385455 355.166856 
L 242.443636 354.816072 
L 246.501818 354.457728 
L 250.56 354.093336 
L 254.618182 353.721384 
L 258.676364 353.344896 
L 262.734545 352.96236 
L 266.792727 352.575288 
L 270.850909 352.182168 
L 274.909091 351.784512 
L 278.967273 351.38232 
L 283.025455 350.977104 
L 287.083636 350.568864 
L 291.141818 350.1576 
L 295.2 349.744824 
L 299.258182 349.329024 
L 303.316364 348.913224 
L 307.374545 348.495912 
L 311.432727 348.0786 
L 315.490909 347.661288 
L 319.549091 347.245488 
L 323.607273 346.8312 
L 327.665455 346.419936 
L 331.723636 346.011696 
L 335.781818 345.607992 
L 339.84 345.208824 
L 343.898182 344.814192 
L 347.956364 344.425608 
L 352.014545 344.043072 
L 356.072727 343.669608 
L 360.130909 343.302192 
L 364.189091 342.94536 
L 368.247273 342.5976 
L 372.305455 342.258912 
L 376.363636 341.93232 
L 380.421818 341.616312 
L 384.48 341.310888 
L 388.538182 341.019072 
L 392.596364 340.73784 
L 396.654545 340.470216 
L 400.712727 340.2162 
L 404.770909 339.97428 
L 408.829091 339.744456 
L 412.887273 339.529752 
L 416.945455 339.327144 
L 421.003636 339.136632 
L 425.061818 338.959728 
L 429.12 338.79492 
L 433.178182 338.642208 
L 437.236364 338.50008 
L 441.294545 338.37156 
L 445.352727 338.252112 
L 449.410909 338.14476 
L 453.469091 338.047992 
L 457.527273 337.960296 
L 461.585455 337.881672 
L 465.643636 337.813632 
L 469.701818 337.754664 
L 473.76 337.703256 
L 477.818182 337.659408 
L 481.876364 337.626144 
L 485.934545 337.598928 
L 489.992727 337.579272 
L 494.050909 337.568688 
L 498.109091 337.564152 
" clip-path="url(#p78edd149ac)" style="fill: none; stroke: #000000; stroke-opacity: 0.5; stroke-linecap: square"/>
   </g>
   <g id="line2d_17">
    <path d="M 92.290909 268.913304 
L 96.349091 268.958664 
L 100.407273 269.096256 
L 104.465455 269.320032 
L 108.523636 269.626968 
L 112.581818 270.007992 
L 116.64 270.455544 
L 120.698182 270.963576 
L 124.756364 271.523016 
L 128.814545 272.126304 
L 132.872727 272.76588 
L 136.930909 273.43872 
L 140.989091 274.137264 
L 145.047273 274.856976 
L 149.105455 275.59332 
L 153.163636 276.344784 
L 157.221818 277.106832 
L 161.28 277.87644 
L 165.338182 278.650584 
L 169.396364 279.429264 
L 173.454545 280.210968 
L 177.512727 280.99116 
L 181.570909 281.771352 
L 185.629091 282.54852 
L 189.687273 283.322664 
L 193.745455 284.092272 
L 197.803636 284.855832 
L 201.861818 285.613344 
L 205.92 286.364808 
L 209.978182 287.1072 
L 214.036364 287.842032 
L 218.094545 288.567792 
L 222.152727 289.282968 
L 226.210909 289.989072 
L 230.269091 290.684592 
L 234.327273 291.368016 
L 238.385455 292.040856 
L 242.443636 292.7016 
L 246.501818 293.350248 
L 250.56 293.9868 
L 254.618182 294.608232 
L 258.676364 295.217568 
L 262.734545 295.811784 
L 266.792727 296.39088 
L 270.850909 296.956368 
L 274.909091 297.505224 
L 278.967273 298.03896 
L 283.025455 298.557576 
L 287.083636 299.058048 
L 291.141818 299.541888 
L 295.2 300.007584 
L 299.258182 300.456648 
L 303.316364 300.886056 
L 307.374545 301.29732 
L 311.432727 301.688928 
L 315.490909 302.06088 
L 319.549091 302.411664 
L 323.607273 302.742792 
L 327.665455 303.052752 
L 331.723636 303.340032 
L 335.781818 303.604632 
L 339.84 303.848064 
L 343.898182 304.067304 
L 347.956364 304.263864 
L 352.014545 304.437744 
L 356.072727 304.58592 
L 360.130909 304.709904 
L 364.189091 304.809696 
L 368.247273 304.883784 
L 372.305455 304.93368 
L 376.363636 304.959384 
L 380.421818 304.959384 
L 384.48 304.935192 
L 388.538182 304.886808 
L 392.596364 304.815744 
L 396.654545 304.720488 
L 400.712727 304.604064 
L 404.770909 304.466472 
L 408.829091 304.307712 
L 412.887273 304.130808 
L 416.945455 303.93576 
L 421.003636 303.725592 
L 425.061818 303.501816 
L 429.12 303.265944 
L 433.178182 303.021 
L 437.236364 302.766984 
L 441.294545 302.509944 
L 445.352727 302.24988 
L 449.410909 301.991328 
L 453.469091 301.737312 
L 457.527273 301.489344 
L 461.585455 301.25196 
L 465.643636 301.028184 
L 469.701818 300.822552 
L 473.76 300.635064 
L 477.818182 300.471768 
L 481.876364 300.334176 
L 485.934545 300.2238 
L 489.992727 300.143664 
L 494.050909 300.09528 
L 498.109091 300.078648 
" clip-path="url(#p78edd149ac)" style="fill: none; stroke: #000000; stroke-opacity: 0.5; stroke-linecap: square"/>
   </g>
   <g id="line2d_18">
    <path d="M 92.290909 245.684448 
L 96.349091 245.634552 
L 100.407273 245.486376 
L 104.465455 245.244456 
L 108.523636 244.913328 
L 112.581818 244.500552 
L 116.64 244.013688 
L 120.698182 243.460296 
L 124.756364 242.85096 
L 128.814545 242.191728 
L 132.872727 241.488648 
L 136.930909 240.750792 
L 140.989091 239.984208 
L 145.047273 239.19192 
L 149.105455 238.379976 
L 153.163636 237.552912 
L 157.221818 236.715264 
L 161.28 235.870056 
L 165.338182 235.021824 
L 169.396364 234.17208 
L 173.454545 233.326872 
L 177.512727 232.487712 
L 181.570909 231.657624 
L 185.629091 230.839632 
L 189.687273 230.039784 
L 193.745455 229.262616 
L 197.803636 228.511152 
L 201.861818 227.797488 
L 205.92 227.138256 
L 209.978182 226.577304 
L 214.036364 226.21896 
L 218.094545 226.164528 
L 222.152727 226.326312 
L 226.210909 226.58184 
L 230.269091 226.882728 
L 234.327273 227.210832 
L 238.385455 227.558592 
L 242.443636 227.922984 
L 246.501818 228.302496 
L 250.56 228.694104 
L 254.618182 229.097808 
L 258.676364 229.51512 
L 262.734545 229.944528 
L 266.792727 230.386032 
L 270.850909 230.839632 
L 274.909091 231.305328 
L 278.967273 231.78312 
L 283.025455 232.273008 
L 287.083636 232.778016 
L 291.141818 233.293608 
L 295.2 233.82432 
L 299.258182 234.370152 
L 303.316364 234.929592 
L 307.374545 235.505664 
L 311.432727 236.096856 
L 315.490909 236.70468 
L 319.549091 237.329136 
L 323.607273 237.970224 
L 327.665455 238.629456 
L 331.723636 239.308344 
L 335.781818 240.003864 
L 339.84 240.717528 
L 343.898182 241.447824 
L 347.956364 242.197776 
L 352.014545 242.962848 
L 356.072727 243.744552 
L 360.130909 244.539864 
L 364.189091 245.350296 
L 368.247273 246.172824 
L 372.305455 247.005936 
L 376.363636 247.849632 
L 380.421818 248.700888 
L 384.48 249.55668 
L 388.538182 250.417008 
L 392.596364 251.28036 
L 396.654545 252.1422 
L 400.712727 253.00404 
L 404.770909 253.859832 
L 408.829091 254.711088 
L 412.887273 255.553272 
L 416.945455 256.38336 
L 421.003636 257.201352 
L 425.061818 258.004224 
L 429.12 258.788952 
L 433.178182 259.551 
L 437.236364 260.29188 
L 441.294545 261.005544 
L 445.352727 261.688968 
L 449.410909 262.34064 
L 453.469091 262.956024 
L 457.527273 263.533608 
L 461.585455 264.068856 
L 465.643636 264.560256 
L 469.701818 265.00176 
L 473.76 265.391856 
L 477.818182 265.72752 
L 481.876364 266.00724 
L 485.934545 266.22648 
L 489.992727 266.38524 
L 494.050909 266.480496 
L 498.109091 266.512248 
" clip-path="url(#p78edd149ac)" style="fill: none; stroke: #000000; stroke-opacity: 0.5; stroke-linecap: square"/>
   </g>
   <g id="line2d_19">
    <path d="M 92.290909 221.144688 
L 96.349091 221.149224 
L 100.407273 221.16132 
L 104.465455 221.182488 
L 108.523636 221.211216 
L 112.581818 221.249016 
L 116.64 221.295888 
L 120.698182 221.35032 
L 124.756364 221.415336 
L 128.814545 221.487912 
L 132.872727 221.56956 
L 136.930909 221.66028 
L 140.989091 221.760072 
L 145.047273 221.870448 
L 149.105455 221.989896 
L 153.163636 222.118416 
L 157.221818 222.25752 
L 161.28 222.407208 
L 165.338182 222.565968 
L 169.396364 222.735312 
L 173.454545 222.91524 
L 177.512727 223.10424 
L 181.570909 223.303824 
L 185.629091 223.510968 
L 189.687273 223.728696 
L 193.745455 223.952472 
L 197.803636 224.179272 
L 201.861818 224.403048 
L 205.92 224.610192 
L 209.978182 224.75988 
L 214.036364 224.749296 
L 218.094545 224.48016 
L 222.152727 224.044704 
L 226.210909 223.568424 
L 230.269091 223.099704 
L 234.327273 222.662736 
L 238.385455 222.26508 
L 242.443636 221.912784 
L 246.501818 221.610384 
L 250.56 221.359392 
L 254.618182 221.162832 
L 258.676364 221.022216 
L 262.734545 220.936032 
L 266.792727 220.905792 
L 270.850909 220.929984 
L 274.909091 221.008608 
L 278.967273 221.13864 
L 283.025455 221.317056 
L 287.083636 221.542344 
L 291.141818 221.809968 
L 295.2 222.118416 
L 299.258182 222.463152 
L 303.316364 222.841152 
L 307.374545 223.246368 
L 311.432727 223.675776 
L 315.490909 224.12484 
L 319.549091 224.592048 
L 323.607273 225.071352 
L 327.665455 225.559728 
L 331.723636 226.054152 
L 335.781818 226.550088 
L 339.84 227.046024 
L 343.898182 227.538936 
L 347.956364 228.027312 
L 352.014545 228.508128 
L 356.072727 228.979872 
L 360.130909 229.441032 
L 364.189091 229.890096 
L 368.247273 230.327064 
L 372.305455 230.751936 
L 376.363636 231.161688 
L 380.421818 231.557832 
L 384.48 231.938856 
L 388.538182 232.306272 
L 392.596364 232.658568 
L 396.654545 232.997256 
L 400.712727 233.319312 
L 404.770909 233.629272 
L 408.829091 233.9226 
L 412.887273 234.203832 
L 416.945455 234.469944 
L 421.003636 234.722448 
L 425.061818 234.959832 
L 429.12 235.18512 
L 433.178182 235.3968 
L 437.236364 235.59336 
L 441.294545 235.777824 
L 445.352727 235.950192 
L 449.410909 236.10744 
L 453.469091 236.252592 
L 457.527273 236.385648 
L 461.585455 236.505096 
L 465.643636 236.612448 
L 469.701818 236.706192 
L 473.76 236.78784 
L 477.818182 236.85588 
L 481.876364 236.913336 
L 485.934545 236.955672 
L 489.992727 236.987424 
L 494.050909 237.005568 
L 498.109091 237.013128 
" clip-path="url(#p78edd149ac)" style="fill: none; stroke: #000000; stroke-opacity: 0.5; stroke-linecap: square"/>
   </g>
   <g id="line2d_20">
    <path d="M 92.290909 159.368904 
L 96.349091 159.41124 
L 100.407273 159.535224 
L 104.465455 159.734808 
L 108.523636 160.003944 
L 112.581818 160.332048 
L 116.64 160.710048 
L 120.698182 161.128872 
L 124.756364 161.579448 
L 128.814545 162.054216 
L 132.872727 162.547128 
L 136.930909 163.05516 
L 140.989091 163.570752 
L 145.047273 164.09088 
L 149.105455 164.614032 
L 153.163636 165.135672 
L 157.221818 165.652776 
L 161.28 166.163832 
L 165.338182 166.66884 
L 169.396364 167.164776 
L 173.454545 167.65164 
L 177.512727 168.12792 
L 181.570909 168.590592 
L 185.629091 169.04268 
L 189.687273 169.479648 
L 193.745455 169.903008 
L 197.803636 170.311248 
L 201.861818 170.704368 
L 205.92 171.079344 
L 209.978182 171.436176 
L 214.036364 171.774864 
L 218.094545 172.092384 
L 222.152727 172.387224 
L 226.210909 172.657872 
L 230.269091 172.901304 
L 234.327273 173.119032 
L 238.385455 173.305008 
L 242.443636 173.459232 
L 246.501818 173.580192 
L 250.56 173.664864 
L 254.618182 173.711736 
L 258.676364 173.719296 
L 262.734545 173.689056 
L 266.792727 173.617992 
L 270.850909 173.506104 
L 274.909091 173.353392 
L 278.967273 173.161368 
L 283.025455 172.930032 
L 287.083636 172.662408 
L 291.141818 172.358496 
L 295.2 172.019808 
L 299.258182 171.65088 
L 303.316364 171.251712 
L 307.374545 170.825328 
L 311.432727 170.376264 
L 315.490909 169.906032 
L 319.549091 169.417656 
L 323.607273 168.917184 
L 327.665455 168.40764 
L 331.723636 167.895072 
L 335.781818 167.384016 
L 339.84 166.883544 
L 343.898182 166.399704 
L 347.956364 165.946104 
L 352.014545 165.531816 
L 356.072727 165.168936 
L 360.130909 164.86956 
L 364.189091 164.638224 
L 368.247273 164.480976 
L 372.305455 164.394792 
L 376.363636 164.373624 
L 380.421818 164.405376 
L 384.48 164.484 
L 388.538182 164.595888 
L 392.596364 164.734992 
L 396.654545 164.893752 
L 400.712727 165.064608 
L 404.770909 165.244536 
L 408.829091 165.430512 
L 412.887273 165.618 
L 416.945455 165.803976 
L 421.003636 165.98844 
L 425.061818 166.168368 
L 429.12 166.34376 
L 433.178182 166.513104 
L 437.236364 166.673376 
L 441.294545 166.8276 
L 445.352727 166.972752 
L 449.410909 167.10732 
L 453.469091 167.234328 
L 457.527273 167.350752 
L 461.585455 167.456592 
L 465.643636 167.551848 
L 469.701818 167.63652 
L 473.76 167.710608 
L 477.818182 167.774112 
L 481.876364 167.82552 
L 485.934545 167.864832 
L 489.992727 167.89356 
L 494.050909 167.911704 
L 498.109091 167.91624 
" clip-path="url(#p78edd149ac)" style="fill: none; stroke: #000000; stroke-opacity: 0.5; stroke-linecap: square"/>
   </g>
   <g id="line2d_21">
    <path d="M 92.290909 152.611776 
L 96.349091 152.601192 
L 100.407273 152.573976 
L 104.465455 152.53164 
L 108.523636 152.480232 
L 112.581818 152.427312 
L 116.64 152.375904 
L 120.698182 152.333568 
L 124.756364 152.301816 
L 128.814545 152.283672 
L 132.872727 152.280648 
L 136.930909 152.294256 
L 140.989091 152.326008 
L 145.047273 152.374392 
L 149.105455 152.439408 
L 153.163636 152.522568 
L 157.221818 152.619336 
L 161.28 152.731224 
L 165.338182 152.858232 
L 169.396364 152.995824 
L 173.454545 153.144 
L 177.512727 153.299736 
L 181.570909 153.46152 
L 185.629091 153.62784 
L 189.687273 153.792648 
L 193.745455 153.954432 
L 197.803636 154.11168 
L 201.861818 154.256832 
L 205.92 154.389888 
L 209.978182 154.5048 
L 214.036364 154.600056 
L 218.094545 154.67112 
L 222.152727 154.714968 
L 226.210909 154.728576 
L 230.269091 154.70892 
L 234.327273 154.656 
L 238.385455 154.566792 
L 242.443636 154.439784 
L 246.501818 154.273464 
L 250.56 154.067832 
L 254.618182 153.822888 
L 258.676364 153.540144 
L 262.734545 153.222624 
L 266.792727 152.876376 
L 270.850909 152.511984 
L 274.909091 152.1612 
L 278.967273 151.899624 
L 283.025455 151.84368 
L 287.083636 152.011512 
L 291.141818 152.300304 
L 295.2 152.640504 
L 299.258182 153.00036 
L 303.316364 153.367776 
L 307.374545 153.735192 
L 311.432727 154.099584 
L 315.490909 154.456416 
L 319.549091 154.801152 
L 323.607273 155.13228 
L 327.665455 155.445264 
L 331.723636 155.734056 
L 335.781818 155.99412 
L 339.84 156.217896 
L 343.898182 156.397824 
L 347.956364 156.524832 
L 352.014545 156.586824 
L 356.072727 156.573216 
L 360.130909 156.471912 
L 364.189091 156.278376 
L 368.247273 155.98656 
L 372.305455 155.599488 
L 376.363636 155.126232 
L 380.421818 154.57284 
L 384.48 153.95292 
L 388.538182 153.274032 
L 392.596364 152.545248 
L 396.654545 151.774128 
L 400.712727 150.96672 
L 404.770909 150.12756 
L 408.829091 149.261184 
L 412.887273 148.372128 
L 416.945455 147.460392 
L 421.003636 146.529 
L 425.061818 145.580976 
L 429.12 144.617832 
L 433.178182 143.64108 
L 437.236364 142.652232 
L 441.294545 141.654312 
L 445.352727 140.648832 
L 449.410909 139.637304 
L 453.469091 138.624264 
L 457.527273 137.612736 
L 461.585455 136.608768 
L 465.643636 135.615384 
L 469.701818 134.64468 
L 473.76 133.705728 
L 477.818182 132.818184 
L 481.876364 132.003216 
L 485.934545 131.2956 
L 489.992727 130.73616 
L 494.050909 130.371768 
L 498.109091 130.24476 
" clip-path="url(#p78edd149ac)" style="fill: none; stroke: #000000; stroke-opacity: 0.5; stroke-linecap: square"/>
   </g>
   <g id="line2d_22">
    <path d="M 92.290909 134.437536 
L 96.349091 134.396712 
L 100.407273 134.277264 
L 104.465455 134.08524 
L 108.523636 133.8282 
L 112.581818 133.527312 
L 116.64 133.211304 
L 120.698182 132.937632 
L 124.756364 132.787944 
L 128.814545 132.836328 
L 132.872727 133.091856 
L 136.930909 133.498584 
L 140.989091 134.00208 
L 145.047273 134.563032 
L 149.105455 135.15876 
L 153.163636 135.774144 
L 157.221818 136.397088 
L 161.28 137.023056 
L 165.338182 137.644488 
L 169.396364 138.25836 
L 173.454545 138.860136 
L 177.512727 139.449816 
L 181.570909 140.024376 
L 185.629091 140.582304 
L 189.687273 141.1236 
L 193.745455 141.648264 
L 197.803636 142.157808 
L 201.861818 142.652232 
L 205.92 143.131536 
L 209.978182 143.598744 
L 214.036364 144.053856 
L 218.094545 144.498384 
L 222.152727 144.93384 
L 226.210909 145.361736 
L 230.269091 145.783584 
L 234.327273 146.200896 
L 238.385455 146.61216 
L 242.443636 147.0204 
L 246.501818 147.425616 
L 250.56 147.827808 
L 254.618182 148.226976 
L 258.676364 148.620096 
L 262.734545 149.007168 
L 266.792727 149.37912 
L 270.850909 149.72688 
L 274.909091 150.017184 
L 278.967273 150.178968 
L 283.025455 150.08976 
L 287.083636 149.735952 
L 291.141818 149.22036 
L 295.2 148.612536 
L 299.258182 147.94272 
L 303.316364 147.223008 
L 307.374545 146.46096 
L 311.432727 145.661112 
L 315.490909 144.824976 
L 319.549091 143.957088 
L 323.607273 143.057448 
L 327.665455 142.127568 
L 331.723636 141.170472 
L 335.781818 140.187672 
L 339.84 139.18068 
L 343.898182 138.149496 
L 347.956364 137.097144 
L 352.014545 136.023624 
L 356.072727 134.930448 
L 360.130909 133.819128 
L 364.189091 132.692688 
L 368.247273 131.549616 
L 372.305455 130.391424 
L 376.363636 129.221136 
L 380.421818 128.038752 
L 384.48 126.845784 
L 388.538182 125.642232 
L 392.596364 124.429608 
L 396.654545 123.210936 
L 400.712727 121.986216 
L 404.770909 120.75696 
L 408.829091 119.52468 
L 412.887273 118.2924 
L 416.945455 117.061632 
L 421.003636 115.836912 
L 425.061818 114.621264 
L 429.12 113.422248 
L 433.178182 112.253472 
L 437.236364 111.134592 
L 441.294545 110.12004 
L 445.352727 109.347408 
L 449.410909 109.126656 
L 453.469091 109.627128 
L 457.527273 110.534328 
L 461.585455 111.583656 
L 465.643636 112.669272 
L 469.701818 113.74884 
L 473.76 114.793632 
L 477.818182 115.777944 
L 481.876364 116.67456 
L 485.934545 117.447192 
L 489.992727 118.055016 
L 494.050909 118.448136 
L 498.109091 118.584216 
" clip-path="url(#p78edd149ac)" style="fill: none; stroke: #000000; stroke-opacity: 0.5; stroke-linecap: square"/>
   </g>
   <g id="line2d_23">
    <path d="M 92.290909 128.099232 
L 96.349091 128.13552 
L 100.407273 128.24136 
L 104.465455 128.410704 
L 108.523636 128.631456 
L 112.581818 128.882448 
L 116.64 129.127392 
L 120.698182 129.308832 
L 124.756364 129.342096 
L 128.814545 129.14856 
L 132.872727 128.71764 
L 136.930909 128.100744 
L 140.989091 127.353816 
L 145.047273 126.51012 
L 149.105455 125.593848 
L 153.163636 124.618608 
L 157.221818 123.593472 
L 161.28 122.524488 
L 165.338182 121.416192 
L 169.396364 120.274632 
L 173.454545 119.099808 
L 177.512727 117.897768 
L 181.570909 116.670024 
L 185.629091 115.418088 
L 189.687273 114.143472 
L 193.745455 112.8492 
L 197.803636 111.535272 
L 201.861818 110.206224 
L 205.92 108.860544 
L 209.978182 107.502768 
L 214.036364 106.131384 
L 218.094545 104.750928 
L 222.152727 103.3614 
L 226.210909 101.965824 
L 230.269091 100.567224 
L 234.327273 99.167112 
L 238.385455 97.768512 
L 242.443636 96.37596 
L 246.501818 94.995504 
L 250.56 93.634704 
L 254.618182 92.299608 
L 258.676364 91.003824 
L 262.734545 89.767008 
L 266.792727 88.614864 
L 270.850909 87.580656 
L 274.909091 86.71428 
L 278.967273 86.061096 
L 283.025455 85.649832 
L 287.083636 85.463856 
L 291.141818 85.462344 
L 295.2 85.589352 
L 299.258182 85.805568 
L 303.316364 86.077728 
L 307.374545 86.3892 
L 311.432727 86.724864 
L 315.490909 87.07716 
L 319.549091 87.438528 
L 323.607273 87.807456 
L 327.665455 88.177896 
L 331.723636 88.55136 
L 335.781818 88.923312 
L 339.84 89.29224 
L 343.898182 89.659656 
L 347.956364 90.024048 
L 352.014545 90.383904 
L 356.072727 90.739224 
L 360.130909 91.088496 
L 364.189091 91.434744 
L 368.247273 91.776456 
L 372.305455 92.11212 
L 376.363636 92.446272 
L 380.421818 92.775888 
L 384.48 93.107016 
L 388.538182 93.441168 
L 392.596364 93.784392 
L 396.654545 94.147272 
L 400.712727 94.547952 
L 404.770909 95.016672 
L 408.829091 95.601816 
L 412.887273 96.354792 
L 416.945455 97.29072 
L 421.003636 98.368776 
L 425.061818 99.529992 
L 429.12 100.732032 
L 433.178182 101.938608 
L 437.236364 103.113432 
L 441.294545 104.202072 
L 445.352727 105.060888 
L 449.410909 105.37992 
L 453.469091 104.997384 
L 457.527273 104.229288 
L 461.585455 103.347792 
L 465.643636 102.46932 
L 469.701818 101.649816 
L 473.76 100.925568 
L 477.818182 100.323792 
L 481.876364 99.858096 
L 485.934545 99.52092 
L 489.992727 99.300168 
L 494.050909 99.176184 
L 498.109091 99.13536 
" clip-path="url(#p78edd149ac)" style="fill: none; stroke: #000000; stroke-opacity: 0.5; stroke-linecap: square"/>
   </g>
   <g id="patch_3">
    <path d="M 72 384.48 
L 72 51.84 
" style="fill: none; stroke: #000000; stroke-width: 0.8; stroke-linejoin: miter; stroke-linecap: square"/>
   </g>
   <g id="patch_4">
    <path d="M 518.4 384.48 
L 518.4 51.84 
" style="fill: none; stroke: #000000; stroke-width: 0.8; stroke-linejoin: miter; stroke-linecap: square"/>
   </g>
   <g id="patch_5">
    <path d="M 72 384.48 
L 518.4 384.48 
" style="fill: none; stroke: #000000; stroke-width: 0.8; stroke-linejoin: miter; stroke-linecap: square"/>
   </g>
   <g id="patch_6">
    <path d="M 72 51.84 
L 518.4 51.84 
" style="fill: none; stroke: #000000; stroke-width: 0.8; stroke-linejoin: miter; stroke-linecap: square"/>
   </g>
  </g>
 </g>
 <defs>
  <clipPath id="p78edd149ac">
   <rect x="72" y="51.84" width="446.4" height="332.64"/>
  </clipPath>
 </defs>
</svg>
