<?xml version="1.0" encoding="utf-8" standalone="no"?>
<!DOCTYPE svg PUBLIC "-//W3C//DTD SVG 1.1//EN"
  "http://www.w3.org/Graphics/SVG/1.1/DTD/svg11.dtd">
<svg xmlns:xlink="http://www.w3.org/1999/xlink" width="576pt" height="432pt" viewBox="0 0 576 432" xmlns="http://www.w3.org/2000/svg" version="1.1">
 <metadata>
  <rdf:RDF xmlns:dc="http://purl.org/dc/elements/1.1/" xmlns:cc="http://creativecommons.org/ns#" xmlns:rdf="http://www.w3.org/1999/02/22-rdf-syntax-ns#">
   <cc:Work>
    <dc:type rdf:resource="http://purl.org/dc/dcmitype/StillImage"/>
    <dc:date>2023-05-03T09:25:07.896614</dc:date>
    <dc:format>image/svg+xml</dc:format>
    <dc:creator>
     <cc:Agent>
      <dc:title>Matplotlib v3.7.1, https://matplotlib.org/</dc:title>
     </cc:Agent>
    </dc:creator>
   </cc:Work>
  </rdf:RDF>
 </metadata>
 <defs>
  <style type="text/css">*{stroke-linejoin: round; stroke-linecap: butt}</style>
 </defs>
 <g id="figure_1">
  <g id="patch_1">
   <path d="M 0 432 
L 576 432 
L 576 0 
L 0 0 
z
" style="fill: #ffffff"/>
  </g>
  <g id="axes_1">
   <g id="patch_2">
    <path d="M 72 384.48 
L 518.4 384.48 
L 518.4 51.84 
L 72 51.84 
z
" style="fill: #ffffff"/>
   </g>
   <g id="matplotlib.axis_1">
    <g id="xtick_1">
     <g id="line2d_1">
      <defs>
       <path id="mcb7ec9edaa" d="M 0 0 
L 0 3.5 
" style="stroke: #000000; stroke-width: 0.8"/>
      </defs>
      <g>
       <use xlink:href="#mcb7ec9edaa" x="92.290909" y="384.48" style="stroke: #000000; stroke-width: 0.8"/>
      </g>
     </g>
     <g id="text_1">
      <!-- 0.0 -->
      <g transform="translate(84.339347 399.078438) scale(0.1 -0.1)">
       <defs>
        <path id="DejaVuSans-30" d="M 2034 4250 
Q 1547 4250 1301 3770 
Q 1056 3291 1056 2328 
Q 1056 1369 1301 889 
Q 1547 409 2034 409 
Q 2525 409 2770 889 
Q 3016 1369 3016 2328 
Q 3016 3291 2770 3770 
Q 2525 4250 2034 4250 
z
M 2034 4750 
Q 2819 4750 3233 4129 
Q 3647 3509 3647 2328 
Q 3647 1150 3233 529 
Q 2819 -91 2034 -91 
Q 1250 -91 836 529 
Q 422 1150 422 2328 
Q 422 3509 836 4129 
Q 1250 4750 2034 4750 
z
" transform="scale(0.015625)"/>
        <path id="DejaVuSans-2e" d="M 684 794 
L 1344 794 
L 1344 0 
L 684 0 
L 684 794 
z
" transform="scale(0.015625)"/>
       </defs>
       <use xlink:href="#DejaVuSans-30"/>
       <use xlink:href="#DejaVuSans-2e" x="63.623047"/>
       <use xlink:href="#DejaVuSans-30" x="95.410156"/>
      </g>
     </g>
    </g>
    <g id="xtick_2">
     <g id="line2d_2">
      <g>
       <use xlink:href="#mcb7ec9edaa" x="173.454545" y="384.48" style="stroke: #000000; stroke-width: 0.8"/>
      </g>
     </g>
     <g id="text_2">
      <!-- 0.2 -->
      <g transform="translate(165.502983 399.078438) scale(0.1 -0.1)">
       <defs>
        <path id="DejaVuSans-32" d="M 1228 531 
L 3431 531 
L 3431 0 
L 469 0 
L 469 531 
Q 828 903 1448 1529 
Q 2069 2156 2228 2338 
Q 2531 2678 2651 2914 
Q 2772 3150 2772 3378 
Q 2772 3750 2511 3984 
Q 2250 4219 1831 4219 
Q 1534 4219 1204 4116 
Q 875 4013 500 3803 
L 500 4441 
Q 881 4594 1212 4672 
Q 1544 4750 1819 4750 
Q 2544 4750 2975 4387 
Q 3406 4025 3406 3419 
Q 3406 3131 3298 2873 
Q 3191 2616 2906 2266 
Q 2828 2175 2409 1742 
Q 1991 1309 1228 531 
z
" transform="scale(0.015625)"/>
       </defs>
       <use xlink:href="#DejaVuSans-30"/>
       <use xlink:href="#DejaVuSans-2e" x="63.623047"/>
       <use xlink:href="#DejaVuSans-32" x="95.410156"/>
      </g>
     </g>
    </g>
    <g id="xtick_3">
     <g id="line2d_3">
      <g>
       <use xlink:href="#mcb7ec9edaa" x="254.618182" y="384.48" style="stroke: #000000; stroke-width: 0.8"/>
      </g>
     </g>
     <g id="text_3">
      <!-- 0.4 -->
      <g transform="translate(246.666619 399.078438) scale(0.1 -0.1)">
       <defs>
        <path id="DejaVuSans-34" d="M 2419 4116 
L 825 1625 
L 2419 1625 
L 2419 4116 
z
M 2253 4666 
L 3047 4666 
L 3047 1625 
L 3713 1625 
L 3713 1100 
L 3047 1100 
L 3047 0 
L 2419 0 
L 2419 1100 
L 313 1100 
L 313 1709 
L 2253 4666 
z
" transform="scale(0.015625)"/>
       </defs>
       <use xlink:href="#DejaVuSans-30"/>
       <use xlink:href="#DejaVuSans-2e" x="63.623047"/>
       <use xlink:href="#DejaVuSans-34" x="95.410156"/>
      </g>
     </g>
    </g>
    <g id="xtick_4">
     <g id="line2d_4">
      <g>
       <use xlink:href="#mcb7ec9edaa" x="335.781818" y="384.48" style="stroke: #000000; stroke-width: 0.8"/>
      </g>
     </g>
     <g id="text_4">
      <!-- 0.6 -->
      <g transform="translate(327.830256 399.078438) scale(0.1 -0.1)">
       <defs>
        <path id="DejaVuSans-36" d="M 2113 2584 
Q 1688 2584 1439 2293 
Q 1191 2003 1191 1497 
Q 1191 994 1439 701 
Q 1688 409 2113 409 
Q 2538 409 2786 701 
Q 3034 994 3034 1497 
Q 3034 2003 2786 2293 
Q 2538 2584 2113 2584 
z
M 3366 4563 
L 3366 3988 
Q 3128 4100 2886 4159 
Q 2644 4219 2406 4219 
Q 1781 4219 1451 3797 
Q 1122 3375 1075 2522 
Q 1259 2794 1537 2939 
Q 1816 3084 2150 3084 
Q 2853 3084 3261 2657 
Q 3669 2231 3669 1497 
Q 3669 778 3244 343 
Q 2819 -91 2113 -91 
Q 1303 -91 875 529 
Q 447 1150 447 2328 
Q 447 3434 972 4092 
Q 1497 4750 2381 4750 
Q 2619 4750 2861 4703 
Q 3103 4656 3366 4563 
z
" transform="scale(0.015625)"/>
       </defs>
       <use xlink:href="#DejaVuSans-30"/>
       <use xlink:href="#DejaVuSans-2e" x="63.623047"/>
       <use xlink:href="#DejaVuSans-36" x="95.410156"/>
      </g>
     </g>
    </g>
    <g id="xtick_5">
     <g id="line2d_5">
      <g>
       <use xlink:href="#mcb7ec9edaa" x="416.945455" y="384.48" style="stroke: #000000; stroke-width: 0.8"/>
      </g>
     </g>
     <g id="text_5">
      <!-- 0.8 -->
      <g transform="translate(408.993892 399.078438) scale(0.1 -0.1)">
       <defs>
        <path id="DejaVuSans-38" d="M 2034 2216 
Q 1584 2216 1326 1975 
Q 1069 1734 1069 1313 
Q 1069 891 1326 650 
Q 1584 409 2034 409 
Q 2484 409 2743 651 
Q 3003 894 3003 1313 
Q 3003 1734 2745 1975 
Q 2488 2216 2034 2216 
z
M 1403 2484 
Q 997 2584 770 2862 
Q 544 3141 544 3541 
Q 544 4100 942 4425 
Q 1341 4750 2034 4750 
Q 2731 4750 3128 4425 
Q 3525 4100 3525 3541 
Q 3525 3141 3298 2862 
Q 3072 2584 2669 2484 
Q 3125 2378 3379 2068 
Q 3634 1759 3634 1313 
Q 3634 634 3220 271 
Q 2806 -91 2034 -91 
Q 1263 -91 848 271 
Q 434 634 434 1313 
Q 434 1759 690 2068 
Q 947 2378 1403 2484 
z
M 1172 3481 
Q 1172 3119 1398 2916 
Q 1625 2713 2034 2713 
Q 2441 2713 2670 2916 
Q 2900 3119 2900 3481 
Q 2900 3844 2670 4047 
Q 2441 4250 2034 4250 
Q 1625 4250 1398 4047 
Q 1172 3844 1172 3481 
z
" transform="scale(0.015625)"/>
       </defs>
       <use xlink:href="#DejaVuSans-30"/>
       <use xlink:href="#DejaVuSans-2e" x="63.623047"/>
       <use xlink:href="#DejaVuSans-38" x="95.410156"/>
      </g>
     </g>
    </g>
    <g id="xtick_6">
     <g id="line2d_6">
      <g>
       <use xlink:href="#mcb7ec9edaa" x="498.109091" y="384.48" style="stroke: #000000; stroke-width: 0.8"/>
      </g>
     </g>
     <g id="text_6">
      <!-- 1.0 -->
      <g transform="translate(490.157528 399.078438) scale(0.1 -0.1)">
       <defs>
        <path id="DejaVuSans-31" d="M 794 531 
L 1825 531 
L 1825 4091 
L 703 3866 
L 703 4441 
L 1819 4666 
L 2450 4666 
L 2450 531 
L 3481 531 
L 3481 0 
L 794 0 
L 794 531 
z
" transform="scale(0.015625)"/>
       </defs>
       <use xlink:href="#DejaVuSans-31"/>
       <use xlink:href="#DejaVuSans-2e" x="63.623047"/>
       <use xlink:href="#DejaVuSans-30" x="95.410156"/>
      </g>
     </g>
    </g>
   </g>
   <g id="matplotlib.axis_2">
    <g id="ytick_1">
     <g id="line2d_7">
      <defs>
       <path id="m12421fc21a" d="M 0 0 
L -3.5 0 
" style="stroke: #000000; stroke-width: 0.8"/>
      </defs>
      <g>
       <use xlink:href="#m12421fc21a" x="72" y="369.36" style="stroke: #000000; stroke-width: 0.8"/>
      </g>
     </g>
     <g id="text_7">
      <!-- −5.0 -->
      <g transform="translate(40.717187 373.159219) scale(0.1 -0.1)">
       <defs>
        <path id="DejaVuSans-2212" d="M 678 2272 
L 4684 2272 
L 4684 1741 
L 678 1741 
L 678 2272 
z
" transform="scale(0.015625)"/>
        <path id="DejaVuSans-35" d="M 691 4666 
L 3169 4666 
L 3169 4134 
L 1269 4134 
L 1269 2991 
Q 1406 3038 1543 3061 
Q 1681 3084 1819 3084 
Q 2600 3084 3056 2656 
Q 3513 2228 3513 1497 
Q 3513 744 3044 326 
Q 2575 -91 1722 -91 
Q 1428 -91 1123 -41 
Q 819 9 494 109 
L 494 744 
Q 775 591 1075 516 
Q 1375 441 1709 441 
Q 2250 441 2565 725 
Q 2881 1009 2881 1497 
Q 2881 1984 2565 2268 
Q 2250 2553 1709 2553 
Q 1456 2553 1204 2497 
Q 953 2441 691 2322 
L 691 4666 
z
" transform="scale(0.015625)"/>
       </defs>
       <use xlink:href="#DejaVuSans-2212"/>
       <use xlink:href="#DejaVuSans-35" x="83.789062"/>
       <use xlink:href="#DejaVuSans-2e" x="147.412109"/>
       <use xlink:href="#DejaVuSans-30" x="179.199219"/>
      </g>
     </g>
    </g>
    <g id="ytick_2">
     <g id="line2d_8">
      <g>
       <use xlink:href="#m12421fc21a" x="72" y="331.56" style="stroke: #000000; stroke-width: 0.8"/>
      </g>
     </g>
     <g id="text_8">
      <!-- −2.5 -->
      <g transform="translate(40.717187 335.359219) scale(0.1 -0.1)">
       <use xlink:href="#DejaVuSans-2212"/>
       <use xlink:href="#DejaVuSans-32" x="83.789062"/>
       <use xlink:href="#DejaVuSans-2e" x="147.412109"/>
       <use xlink:href="#DejaVuSans-35" x="179.199219"/>
      </g>
     </g>
    </g>
    <g id="ytick_3">
     <g id="line2d_9">
      <g>
       <use xlink:href="#m12421fc21a" x="72" y="293.76" style="stroke: #000000; stroke-width: 0.8"/>
      </g>
     </g>
     <g id="text_9">
      <!-- 0.0 -->
      <g transform="translate(49.096875 297.559219) scale(0.1 -0.1)">
       <use xlink:href="#DejaVuSans-30"/>
       <use xlink:href="#DejaVuSans-2e" x="63.623047"/>
       <use xlink:href="#DejaVuSans-30" x="95.410156"/>
      </g>
     </g>
    </g>
    <g id="ytick_4">
     <g id="line2d_10">
      <g>
       <use xlink:href="#m12421fc21a" x="72" y="255.96" style="stroke: #000000; stroke-width: 0.8"/>
      </g>
     </g>
     <g id="text_10">
      <!-- 2.5 -->
      <g transform="translate(49.096875 259.759219) scale(0.1 -0.1)">
       <use xlink:href="#DejaVuSans-32"/>
       <use xlink:href="#DejaVuSans-2e" x="63.623047"/>
       <use xlink:href="#DejaVuSans-35" x="95.410156"/>
      </g>
     </g>
    </g>
    <g id="ytick_5">
     <g id="line2d_11">
      <g>
       <use xlink:href="#m12421fc21a" x="72" y="218.16" style="stroke: #000000; stroke-width: 0.8"/>
      </g>
     </g>
     <g id="text_11">
      <!-- 5.0 -->
      <g transform="translate(49.096875 221.959219) scale(0.1 -0.1)">
       <use xlink:href="#DejaVuSans-35"/>
       <use xlink:href="#DejaVuSans-2e" x="63.623047"/>
       <use xlink:href="#DejaVuSans-30" x="95.410156"/>
      </g>
     </g>
    </g>
    <g id="ytick_6">
     <g id="line2d_12">
      <g>
       <use xlink:href="#m12421fc21a" x="72" y="180.36" style="stroke: #000000; stroke-width: 0.8"/>
      </g>
     </g>
     <g id="text_12">
      <!-- 7.5 -->
      <g transform="translate(49.096875 184.159219) scale(0.1 -0.1)">
       <defs>
        <path id="DejaVuSans-37" d="M 525 4666 
L 3525 4666 
L 3525 4397 
L 1831 0 
L 1172 0 
L 2766 4134 
L 525 4134 
L 525 4666 
z
" transform="scale(0.015625)"/>
       </defs>
       <use xlink:href="#DejaVuSans-37"/>
       <use xlink:href="#DejaVuSans-2e" x="63.623047"/>
       <use xlink:href="#DejaVuSans-35" x="95.410156"/>
      </g>
     </g>
    </g>
    <g id="ytick_7">
     <g id="line2d_13">
      <g>
       <use xlink:href="#m12421fc21a" x="72" y="142.56" style="stroke: #000000; stroke-width: 0.8"/>
      </g>
     </g>
     <g id="text_13">
      <!-- 10.0 -->
      <g transform="translate(42.734375 146.359219) scale(0.1 -0.1)">
       <use xlink:href="#DejaVuSans-31"/>
       <use xlink:href="#DejaVuSans-30" x="63.623047"/>
       <use xlink:href="#DejaVuSans-2e" x="127.246094"/>
       <use xlink:href="#DejaVuSans-30" x="159.033203"/>
      </g>
     </g>
    </g>
    <g id="ytick_8">
     <g id="line2d_14">
      <g>
       <use xlink:href="#m12421fc21a" x="72" y="104.76" style="stroke: #000000; stroke-width: 0.8"/>
      </g>
     </g>
     <g id="text_14">
      <!-- 12.5 -->
      <g transform="translate(42.734375 108.559219) scale(0.1 -0.1)">
       <use xlink:href="#DejaVuSans-31"/>
       <use xlink:href="#DejaVuSans-32" x="63.623047"/>
       <use xlink:href="#DejaVuSans-2e" x="127.246094"/>
       <use xlink:href="#DejaVuSans-35" x="159.033203"/>
      </g>
     </g>
    </g>
    <g id="ytick_9">
     <g id="line2d_15">
      <g>
       <use xlink:href="#m12421fc21a" x="72" y="66.96" style="stroke: #000000; stroke-width: 0.8"/>
      </g>
     </g>
     <g id="text_15">
      <!-- 15.0 -->
      <g transform="translate(42.734375 70.759219) scale(0.1 -0.1)">
       <use xlink:href="#DejaVuSans-31"/>
       <use xlink:href="#DejaVuSans-35" x="63.623047"/>
       <use xlink:href="#DejaVuSans-2e" x="127.246094"/>
       <use xlink:href="#DejaVuSans-30" x="159.033203"/>
      </g>
     </g>
    </g>
   </g>
   <g id="line2d_16">
    <path d="M 92.290909 367.714944 
L 96.349091 367.708896 
L 100.407273 367.690752 
L 104.465455 367.662024 
L 108.523636 367.6212 
L 112.581818 367.56828 
L 116.64 367.503264 
L 120.698182 367.426152 
L 124.756364 367.338456 
L 128.814545 367.238664 
L 132.872727 367.126776 
L 136.930909 367.004304 
L 140.989091 366.869736 
L 145.047273 366.723072 
L 149.105455 366.565824 
L 153.163636 366.394968 
L 157.221818 366.21504 
L 161.28 366.021504 
L 165.338182 365.818896 
L 169.396364 365.60268 
L 173.454545 365.37588 
L 177.512727 365.138496 
L 181.570909 364.889016 
L 185.629091 364.62744 
L 189.687273 364.356792 
L 193.745455 364.074048 
L 197.803636 363.779208 
L 201.861818 363.475296 
L 205.92 363.159288 
L 209.978182 362.832696 
L 214.036364 362.49552 
L 218.094545 362.146248 
L 222.152727 361.787904 
L 226.210909 361.418976 
L 230.269091 361.039464 
L 234.327273 360.649368 
L 238.385455 360.248688 
L 242.443636 359.838936 
L 246.501818 359.4186 
L 250.56 358.98768 
L 254.618182 358.547688 
L 258.676364 358.098624 
L 262.734545 357.638976 
L 266.792727 357.170256 
L 270.850909 356.692464 
L 274.909091 356.2056 
L 278.967273 355.711176 
L 283.025455 355.206168 
L 287.083636 354.6936 
L 291.141818 354.173472 
L 295.2 353.644272 
L 299.258182 353.107512 
L 303.316364 352.56168 
L 307.374545 352.0098 
L 311.432727 351.451872 
L 315.490909 350.884872 
L 319.549091 350.313336 
L 323.607273 349.73424 
L 327.665455 349.149096 
L 331.723636 348.559416 
L 335.781818 347.963688 
L 339.84 347.363424 
L 343.898182 346.758624 
L 347.956364 346.1508 
L 352.014545 345.53844 
L 356.072727 344.923056 
L 360.130909 344.30616 
L 364.189091 343.68624 
L 368.247273 343.064808 
L 372.305455 342.443376 
L 376.363636 341.820432 
L 380.421818 341.199 
L 384.48 340.57908 
L 388.538182 339.960672 
L 392.596364 339.3468 
L 396.654545 338.735952 
L 400.712727 338.12964 
L 404.770909 337.529376 
L 408.829091 336.93516 
L 412.887273 336.350016 
L 416.945455 335.775456 
L 421.003636 335.209968 
L 425.061818 334.658088 
L 429.12 334.118304 
L 433.178182 333.595152 
L 437.236364 333.088632 
L 441.294545 332.600256 
L 445.352727 332.133048 
L 449.410909 331.68852 
L 453.469091 331.268184 
L 457.527273 330.875064 
L 461.585455 330.510672 
L 465.643636 330.178032 
L 469.701818 329.877144 
L 473.76 329.612544 
L 477.818182 329.384232 
L 481.876364 329.195232 
L 485.934545 329.047056 
L 489.992727 328.939704 
L 494.050909 328.874688 
L 498.109091 328.852008 
" clip-path="url(#pdd91880bfc)" style="fill: none; stroke: #000000; stroke-opacity: 0.5; stroke-linecap: square"/>
   </g>
   <g id="line2d_17">
    <path d="M 92.290909 255.798216 
L 96.349091 255.8466 
L 100.407273 255.991752 
L 104.465455 256.227624 
L 108.523636 256.548168 
L 112.581818 256.947336 
L 116.64 257.414544 
L 120.698182 257.942232 
L 124.756364 258.524352 
L 128.814545 259.148808 
L 132.872727 259.812576 
L 136.930909 260.508096 
L 140.989091 261.230832 
L 145.047273 261.974736 
L 149.105455 262.736784 
L 153.163636 263.513952 
L 157.221818 264.303216 
L 161.28 265.101552 
L 165.338182 265.907448 
L 169.396364 266.71788 
L 173.454545 267.531336 
L 177.512727 268.347816 
L 181.570909 269.164296 
L 185.629091 269.980776 
L 189.687273 270.795744 
L 193.745455 271.6092 
L 197.803636 272.421144 
L 201.861818 273.22704 
L 205.92 274.029912 
L 209.978182 274.828248 
L 214.036364 275.622048 
L 218.094545 276.408288 
L 222.152727 277.189992 
L 226.210909 277.964136 
L 230.269091 278.732232 
L 234.327273 279.492768 
L 238.385455 280.245744 
L 242.443636 280.99116 
L 246.501818 281.729016 
L 250.56 282.459312 
L 254.618182 283.180536 
L 258.676364 283.892688 
L 262.734545 284.59728 
L 266.792727 285.2928 
L 270.850909 285.979248 
L 274.909091 286.656624 
L 278.967273 287.323416 
L 283.025455 287.982648 
L 287.083636 288.631296 
L 291.141818 289.270872 
L 295.2 289.901376 
L 299.258182 290.521296 
L 303.316364 291.132144 
L 307.374545 291.73392 
L 311.432727 292.325112 
L 315.490909 292.90572 
L 319.549091 293.477256 
L 323.607273 294.03972 
L 327.665455 294.5916 
L 331.723636 295.132896 
L 335.781818 295.66512 
L 339.84 296.18676 
L 343.898182 296.699328 
L 347.956364 297.201312 
L 352.014545 297.694224 
L 356.072727 298.176552 
L 360.130909 298.649808 
L 364.189091 299.113992 
L 368.247273 299.567592 
L 372.305455 300.010608 
L 376.363636 300.446064 
L 380.421818 300.870936 
L 384.48 301.285224 
L 388.538182 301.691952 
L 392.596364 302.088096 
L 396.654545 302.475168 
L 400.712727 302.851656 
L 404.770909 303.219072 
L 408.829091 303.577416 
L 412.887273 303.925176 
L 416.945455 304.263864 
L 421.003636 304.591968 
L 425.061818 304.911 
L 429.12 305.217936 
L 433.178182 305.514288 
L 437.236364 305.800056 
L 441.294545 306.072216 
L 445.352727 306.33228 
L 449.410909 306.580248 
L 453.469091 306.813096 
L 457.527273 307.030824 
L 461.585455 307.23192 
L 465.643636 307.417896 
L 469.701818 307.584216 
L 473.76 307.73088 
L 477.818182 307.857888 
L 481.876364 307.963728 
L 485.934545 308.046888 
L 489.992727 308.105856 
L 494.050909 308.142144 
L 498.109091 308.15424 
" clip-path="url(#pdd91880bfc)" style="fill: none; stroke: #000000; stroke-opacity: 0.5; stroke-linecap: square"/>
   </g>
   <g id="line2d_18">
    <path d="M 92.290909 235.20024 
L 96.349091 235.153368 
L 100.407273 235.012752 
L 104.465455 234.782928 
L 108.523636 234.469944 
L 112.581818 234.082872 
L 116.64 233.630784 
L 120.698182 233.12124 
L 124.756364 232.563312 
L 128.814545 231.966072 
L 132.872727 231.335568 
L 136.930909 230.680872 
L 140.989091 230.00652 
L 145.047273 229.317048 
L 149.105455 228.620016 
L 153.163636 227.918448 
L 157.221818 227.21688 
L 161.28 226.518336 
L 165.338182 225.830376 
L 169.396364 225.224064 
L 173.454545 225.588456 
L 177.512727 226.042056 
L 181.570909 226.512288 
L 185.629091 226.996128 
L 189.687273 227.492064 
L 193.745455 228.000096 
L 197.803636 228.518712 
L 201.861818 229.0464 
L 205.92 229.58316 
L 209.978182 230.12748 
L 214.036364 230.67936 
L 218.094545 231.2388 
L 222.152727 231.802776 
L 226.210909 232.3728 
L 230.269091 232.948872 
L 234.327273 233.527968 
L 238.385455 234.110088 
L 242.443636 234.696744 
L 246.501818 235.284912 
L 250.56 235.876104 
L 254.618182 236.468808 
L 258.676364 237.064536 
L 262.734545 237.660264 
L 266.792727 238.257504 
L 270.850909 238.854744 
L 274.909091 239.453496 
L 278.967273 240.052248 
L 283.025455 240.652512 
L 287.083636 241.251264 
L 291.141818 241.851528 
L 295.2 242.451792 
L 299.258182 243.052056 
L 303.316364 243.653832 
L 307.374545 244.254096 
L 311.432727 244.855872 
L 315.490909 245.457648 
L 319.549091 246.060936 
L 323.607273 246.664224 
L 327.665455 247.267512 
L 331.723636 247.873824 
L 335.781818 248.480136 
L 339.84 249.089472 
L 343.898182 249.698808 
L 347.956364 250.311168 
L 352.014545 250.92504 
L 356.072727 251.538912 
L 360.130909 252.155808 
L 364.189091 252.774216 
L 368.247273 253.394136 
L 372.305455 254.014056 
L 376.363636 254.635488 
L 380.421818 255.255408 
L 384.48 255.875328 
L 388.538182 256.493736 
L 392.596364 257.10912 
L 396.654545 257.72148 
L 400.712727 258.327792 
L 404.770909 258.929568 
L 408.829091 259.522272 
L 412.887273 260.107416 
L 416.945455 260.680464 
L 421.003636 261.242928 
L 425.061818 261.790272 
L 429.12 262.320984 
L 433.178182 262.835064 
L 437.236364 263.329488 
L 441.294545 263.802744 
L 445.352727 264.251808 
L 449.410909 264.67668 
L 453.469091 265.075848 
L 457.527273 265.444776 
L 461.585455 265.784976 
L 465.643636 266.093424 
L 469.701818 266.37012 
L 473.76 266.61204 
L 477.818182 266.817672 
L 481.876364 266.988528 
L 485.934545 267.121584 
L 489.992727 267.21684 
L 494.050909 267.274296 
L 498.109091 267.293952 
" clip-path="url(#pdd91880bfc)" style="fill: none; stroke: #000000; stroke-opacity: 0.5; stroke-linecap: square"/>
   </g>
   <g id="line2d_19">
    <path d="M 92.290909 220.651776 
L 96.349091 220.665384 
L 100.407273 220.706208 
L 104.465455 220.772736 
L 108.523636 220.867992 
L 112.581818 220.98744 
L 116.64 221.134104 
L 120.698182 221.306472 
L 124.756364 221.503032 
L 128.814545 221.725296 
L 132.872727 221.97024 
L 136.930909 222.239376 
L 140.989091 222.531192 
L 145.047273 222.844176 
L 149.105455 223.17984 
L 153.163636 223.533648 
L 157.221818 223.907112 
L 161.28 224.29872 
L 165.338182 224.705448 
L 169.396364 225.059256 
L 173.454545 224.471088 
L 177.512727 223.823952 
L 181.570909 223.19496 
L 185.629091 222.588648 
L 189.687273 222.00804 
L 193.745455 221.454648 
L 197.803636 220.933008 
L 201.861818 220.446144 
L 205.92 219.995568 
L 209.978182 219.584304 
L 214.036364 219.215376 
L 218.094545 218.888784 
L 222.152727 218.609064 
L 226.210909 218.376216 
L 230.269091 218.193264 
L 234.327273 218.06172 
L 238.385455 217.981584 
L 242.443636 217.95588 
L 246.501818 217.981584 
L 250.56 218.060208 
L 254.618182 218.193264 
L 258.676364 218.376216 
L 262.734545 218.612088 
L 266.792727 218.896344 
L 270.850909 219.228984 
L 274.909091 219.606984 
L 278.967273 220.028832 
L 283.025455 220.491504 
L 287.083636 220.991976 
L 291.141818 221.527224 
L 295.2 222.095736 
L 299.258182 222.692976 
L 303.316364 223.317432 
L 307.374545 223.964568 
L 311.432727 224.63136 
L 315.490909 225.316296 
L 319.549091 226.016352 
L 323.607273 226.726992 
L 327.665455 227.446704 
L 331.723636 228.172464 
L 335.781818 228.901248 
L 339.84 229.630032 
L 343.898182 230.358816 
L 347.956364 231.084576 
L 352.014545 231.802776 
L 356.072727 232.513416 
L 360.130909 233.213472 
L 364.189091 233.901432 
L 368.247273 234.577296 
L 372.305455 235.236528 
L 376.363636 235.88064 
L 380.421818 236.506608 
L 384.48 237.11292 
L 388.538182 237.699576 
L 392.596364 238.266576 
L 396.654545 238.812408 
L 400.712727 239.33556 
L 404.770909 239.837544 
L 408.829091 240.316848 
L 412.887273 240.77196 
L 416.945455 241.205904 
L 421.003636 241.617168 
L 425.061818 242.00424 
L 429.12 242.370144 
L 433.178182 242.713368 
L 437.236364 243.033912 
L 441.294545 243.331776 
L 445.352727 243.608472 
L 449.410909 243.864 
L 453.469091 244.09836 
L 457.527273 244.31004 
L 461.585455 244.502064 
L 465.643636 244.67292 
L 469.701818 244.822608 
L 473.76 244.95264 
L 477.818182 245.061504 
L 481.876364 245.150712 
L 485.934545 245.220264 
L 489.992727 245.27016 
L 494.050909 245.3004 
L 498.109091 245.309472 
" clip-path="url(#pdd91880bfc)" style="fill: none; stroke: #000000; stroke-opacity: 0.5; stroke-linecap: square"/>
   </g>
   <g id="line2d_20">
    <path d="M 92.290909 170.711928 
L 96.349091 170.708904 
L 100.407273 170.701344 
L 104.465455 170.689248 
L 108.523636 170.671104 
L 112.581818 170.6454 
L 116.64 170.61516 
L 120.698182 170.575848 
L 124.756364 170.527464 
L 128.814545 170.47152 
L 132.872727 170.404992 
L 136.930909 170.32788 
L 140.989091 170.238672 
L 145.047273 170.13888 
L 149.105455 170.026992 
L 153.163636 169.901496 
L 157.221818 169.766928 
L 161.28 169.620264 
L 165.338182 169.463016 
L 169.396364 169.296696 
L 173.454545 169.124328 
L 177.512727 168.947424 
L 181.570909 168.767496 
L 185.629091 168.587568 
L 189.687273 168.413688 
L 193.745455 168.247368 
L 197.803636 168.093144 
L 201.861818 167.955552 
L 205.92 167.837616 
L 209.978182 167.740848 
L 214.036364 167.66676 
L 218.094545 167.615352 
L 222.152727 167.5836 
L 226.210909 167.56848 
L 230.269091 167.563944 
L 234.327273 167.566968 
L 238.385455 167.569992 
L 242.443636 167.566968 
L 246.501818 167.551848 
L 250.56 167.521608 
L 254.618182 167.4702 
L 258.676364 167.3946 
L 262.734545 167.291784 
L 266.792727 167.16024 
L 270.850909 166.998456 
L 274.909091 166.803408 
L 278.967273 166.57812 
L 283.025455 166.32108 
L 287.083636 166.0338 
L 291.141818 165.71628 
L 295.2 165.370032 
L 299.258182 164.99808 
L 303.316364 164.603448 
L 307.374545 164.186136 
L 311.432727 163.753704 
L 315.490909 163.309176 
L 319.549091 162.861624 
L 323.607273 162.417096 
L 327.665455 161.992224 
L 331.723636 161.60364 
L 335.781818 161.272512 
L 339.84 161.024544 
L 343.898182 160.880904 
L 347.956364 160.846128 
L 352.014545 160.912656 
L 356.072727 161.057808 
L 360.130909 161.26344 
L 364.189091 161.509896 
L 368.247273 161.780544 
L 372.305455 162.069336 
L 376.363636 162.365688 
L 380.421818 162.668088 
L 384.48 162.970488 
L 388.538182 163.269864 
L 392.596364 163.564704 
L 396.654545 163.855008 
L 400.712727 164.137752 
L 404.770909 164.412936 
L 408.829091 164.679048 
L 412.887273 164.936088 
L 416.945455 165.182544 
L 421.003636 165.419928 
L 425.061818 165.646728 
L 429.12 165.861432 
L 433.178182 166.065552 
L 437.236364 166.259088 
L 441.294545 166.439016 
L 445.352727 166.60836 
L 449.410909 166.765608 
L 453.469091 166.91076 
L 457.527273 167.043816 
L 461.585455 167.164776 
L 465.643636 167.272128 
L 469.701818 167.367384 
L 473.76 167.450544 
L 477.818182 167.520096 
L 481.876364 167.577552 
L 485.934545 167.622912 
L 489.992727 167.654664 
L 494.050909 167.67432 
L 498.109091 167.680368 
" clip-path="url(#pdd91880bfc)" style="fill: none; stroke: #000000; stroke-opacity: 0.5; stroke-linecap: square"/>
   </g>
   <g id="line2d_21">
    <path d="M 92.290909 147.318264 
L 96.349091 147.324312 
L 100.407273 147.342456 
L 104.465455 147.372696 
L 108.523636 147.419568 
L 112.581818 147.486096 
L 116.64 147.576816 
L 120.698182 147.69324 
L 124.756364 147.839904 
L 128.814545 148.019832 
L 132.872727 148.234536 
L 136.930909 148.485528 
L 140.989091 148.771296 
L 145.047273 149.090328 
L 149.105455 149.4396 
L 153.163636 149.816088 
L 157.221818 150.213744 
L 161.28 150.629544 
L 165.338182 151.054416 
L 169.396364 151.485336 
L 173.454545 151.91172 
L 177.512727 152.329032 
L 181.570909 152.726688 
L 185.629091 153.09864 
L 189.687273 153.435816 
L 193.745455 153.729144 
L 197.803636 153.971064 
L 201.861818 154.154016 
L 205.92 154.267416 
L 209.978182 154.309752 
L 214.036364 154.273464 
L 218.094545 154.15704 
L 222.152727 153.957456 
L 226.210909 153.677736 
L 230.269091 153.320904 
L 234.327273 152.88696 
L 238.385455 152.383464 
L 242.443636 151.814952 
L 246.501818 151.184448 
L 250.56 150.496488 
L 254.618182 149.75712 
L 258.676364 148.969368 
L 262.734545 148.201272 
L 266.792727 148.603464 
L 270.850909 149.100912 
L 274.909091 149.599872 
L 278.967273 150.09732 
L 283.025455 150.591744 
L 287.083636 151.081632 
L 291.141818 151.566984 
L 295.2 152.043264 
L 299.258182 152.513496 
L 303.316364 152.971632 
L 307.374545 153.41616 
L 311.432727 153.842544 
L 315.490909 154.249272 
L 319.549091 154.627272 
L 323.607273 154.967472 
L 327.665455 155.259288 
L 331.723636 155.483064 
L 335.781818 155.619144 
L 339.84 155.641824 
L 343.898182 155.531448 
L 347.956364 155.28348 
L 352.014545 154.90548 
L 356.072727 154.418616 
L 360.130909 153.845568 
L 364.189091 153.205992 
L 368.247273 152.511984 
L 372.305455 151.774128 
L 376.363636 151.003008 
L 380.421818 150.200136 
L 384.48 149.370048 
L 388.538182 148.518792 
L 392.596364 147.646368 
L 396.654545 146.754288 
L 400.712727 145.845576 
L 404.770909 144.920232 
L 408.829091 143.98128 
L 412.887273 143.030232 
L 416.945455 142.065576 
L 421.003636 141.091848 
L 425.061818 140.109048 
L 429.12 139.118688 
L 433.178182 138.123792 
L 437.236364 137.127384 
L 441.294545 136.129464 
L 445.352727 135.137592 
L 449.410909 134.156304 
L 453.469091 133.190136 
L 457.527273 132.249672 
L 461.585455 131.345496 
L 465.643636 130.491216 
L 469.701818 129.703464 
L 473.76 129.000384 
L 477.818182 128.398608 
L 481.876364 127.90872 
L 485.934545 127.536768 
L 489.992727 127.278216 
L 494.050909 127.125504 
L 498.109091 127.07712 
" clip-path="url(#pdd91880bfc)" style="fill: none; stroke: #000000; stroke-opacity: 0.5; stroke-linecap: square"/>
   </g>
   <g id="line2d_22">
    <path d="M 92.290909 136.581552 
L 96.349091 136.563408 
L 100.407273 136.512 
L 104.465455 136.422792 
L 108.523636 136.297296 
L 112.581818 136.132488 
L 116.64 135.92988 
L 120.698182 135.689472 
L 124.756364 135.420336 
L 128.814545 135.146664 
L 132.872727 134.933472 
L 136.930909 134.900208 
L 140.989091 135.069552 
L 145.047273 135.356832 
L 149.105455 135.697032 
L 153.163636 136.062936 
L 157.221818 136.442448 
L 161.28 136.831032 
L 165.338182 137.224152 
L 169.396364 137.62332 
L 173.454545 138.025512 
L 177.512727 138.43224 
L 181.570909 138.841992 
L 185.629091 139.25628 
L 189.687273 139.675104 
L 193.745455 140.098464 
L 197.803636 140.527872 
L 201.861818 140.961816 
L 205.92 141.401808 
L 209.978182 141.847848 
L 214.036364 142.299936 
L 218.094545 142.75656 
L 222.152727 143.219232 
L 226.210909 143.687952 
L 230.269091 144.16272 
L 234.327273 144.642024 
L 238.385455 145.124352 
L 242.443636 145.612728 
L 246.501818 146.104128 
L 250.56 146.598552 
L 254.618182 147.094488 
L 258.676364 147.591936 
L 262.734545 148.02588 
L 266.792727 147.2472 
L 270.850909 146.335464 
L 274.909091 145.384416 
L 278.967273 144.398592 
L 283.025455 143.381016 
L 287.083636 142.334712 
L 291.141818 141.25968 
L 295.2 140.158944 
L 299.258182 139.034016 
L 303.316364 137.886408 
L 307.374545 136.71612 
L 311.432727 135.527688 
L 315.490909 134.3196 
L 319.549091 133.09488 
L 323.607273 131.853528 
L 327.665455 130.597056 
L 331.723636 129.326976 
L 335.781818 128.0448 
L 339.84 126.75204 
L 343.898182 125.450208 
L 347.956364 124.140816 
L 352.014545 122.8284 
L 356.072727 121.517496 
L 360.130909 120.221712 
L 364.189091 118.968264 
L 368.247273 117.852408 
L 372.305455 117.155376 
L 376.363636 117.072216 
L 380.421818 117.289944 
L 384.48 117.593856 
L 388.538182 117.92196 
L 392.596364 118.253088 
L 396.654545 118.576656 
L 400.712727 118.891152 
L 404.770909 119.19204 
L 408.829091 119.480832 
L 412.887273 119.75148 
L 416.945455 120.00852 
L 421.003636 120.245904 
L 425.061818 120.466656 
L 429.12 120.667752 
L 433.178182 120.84768 
L 437.236364 121.004928 
L 441.294545 121.137984 
L 445.352727 121.2408 
L 449.410909 121.313376 
L 453.469091 121.34664 
L 457.527273 121.334544 
L 461.585455 121.268016 
L 465.643636 121.13496 
L 469.701818 120.92328 
L 473.76 120.616344 
L 477.818182 120.206592 
L 481.876364 119.691 
L 485.934545 119.084688 
L 489.992727 118.42848 
L 494.050909 117.832752 
L 498.109091 117.556056 
" clip-path="url(#pdd91880bfc)" style="fill: none; stroke: #000000; stroke-opacity: 0.5; stroke-linecap: square"/>
   </g>
   <g id="line2d_23">
    <path d="M 92.290909 131.740128 
L 96.349091 131.76432 
L 100.407273 131.838408 
L 104.465455 131.959368 
L 108.523636 132.122664 
L 112.581818 132.32376 
L 116.64 132.556608 
L 120.698182 132.810624 
L 124.756364 133.070688 
L 128.814545 133.303536 
L 132.872727 133.439616 
L 136.930909 133.356456 
L 140.989091 133.022304 
L 145.047273 132.524856 
L 149.105455 131.924592 
L 153.163636 131.25024 
L 157.221818 130.513896 
L 161.28 129.721608 
L 165.338182 128.879424 
L 169.396364 127.988856 
L 173.454545 127.05444 
L 177.512727 126.077688 
L 181.570909 125.060112 
L 185.629091 124.00776 
L 189.687273 122.917608 
L 193.745455 121.795704 
L 197.803636 120.640536 
L 201.861818 119.455128 
L 205.92 118.240992 
L 209.978182 116.99964 
L 214.036364 115.732584 
L 218.094545 114.439824 
L 222.152727 113.124384 
L 226.210909 111.786264 
L 230.269091 110.425464 
L 234.327273 109.04652 
L 238.385455 107.649432 
L 242.443636 106.237224 
L 246.501818 104.814432 
L 250.56 103.388616 
L 254.618182 101.982456 
L 258.676364 100.673064 
L 262.734545 99.82332 
L 266.792727 99.983592 
L 270.850909 100.61712 
L 274.909091 101.353464 
L 278.967273 102.110976 
L 283.025455 102.871512 
L 287.083636 103.624488 
L 291.141818 104.365368 
L 295.2 105.095664 
L 299.258182 105.81084 
L 303.316364 106.510896 
L 307.374545 107.195832 
L 311.432727 107.86716 
L 315.490909 108.521856 
L 319.549091 109.15992 
L 323.607273 109.781352 
L 327.665455 110.387664 
L 331.723636 110.977344 
L 335.781818 111.54888 
L 339.84 112.103784 
L 343.898182 112.639032 
L 347.956364 113.156136 
L 352.014545 113.649048 
L 356.072727 114.116256 
L 360.130909 114.544152 
L 364.189091 114.90552 
L 368.247273 115.106616 
L 372.305455 114.86772 
L 376.363636 113.992272 
L 380.421818 112.79628 
L 384.48 111.492936 
L 388.538182 110.147256 
L 392.596364 108.780408 
L 396.654545 107.402976 
L 400.712727 106.019496 
L 404.770909 104.636016 
L 408.829091 103.254048 
L 412.887273 101.87964 
L 416.945455 100.524888 
L 421.003636 99.207936 
L 425.061818 97.984728 
L 429.12 97.035192 
L 433.178182 96.864336 
L 437.236364 97.620336 
L 441.294545 98.75736 
L 445.352727 100.010808 
L 449.410909 101.300544 
L 453.469091 102.602376 
L 457.527273 103.901184 
L 461.585455 105.192432 
L 465.643636 106.46856 
L 469.701818 107.726544 
L 473.76 108.960336 
L 477.818182 110.163888 
L 481.876364 111.325104 
L 485.934545 112.427352 
L 489.992727 113.428296 
L 494.050909 114.229656 
L 498.109091 114.57288 
" clip-path="url(#pdd91880bfc)" style="fill: none; stroke: #000000; stroke-opacity: 0.5; stroke-linecap: square"/>
   </g>
   <g id="patch_3">
    <path d="M 72 384.48 
L 72 51.84 
" style="fill: none; stroke: #000000; stroke-width: 0.8; stroke-linejoin: miter; stroke-linecap: square"/>
   </g>
   <g id="patch_4">
    <path d="M 518.4 384.48 
L 518.4 51.84 
" style="fill: none; stroke: #000000; stroke-width: 0.8; stroke-linejoin: miter; stroke-linecap: square"/>
   </g>
   <g id="patch_5">
    <path d="M 72 384.48 
L 518.4 384.48 
" style="fill: none; stroke: #000000; stroke-width: 0.8; stroke-linejoin: miter; stroke-linecap: square"/>
   </g>
   <g id="patch_6">
    <path d="M 72 51.84 
L 518.4 51.84 
" style="fill: none; stroke: #000000; stroke-width: 0.8; stroke-linejoin: miter; stroke-linecap: square"/>
   </g>
  </g>
 </g>
 <defs>
  <clipPath id="pdd91880bfc">
   <rect x="72" y="51.84" width="446.4" height="332.64"/>
  </clipPath>
 </defs>
</svg>
