<?xml version="1.0" encoding="utf-8" standalone="no"?>
<!DOCTYPE svg PUBLIC "-//W3C//DTD SVG 1.1//EN"
  "http://www.w3.org/Graphics/SVG/1.1/DTD/svg11.dtd">
<svg xmlns:xlink="http://www.w3.org/1999/xlink" width="576pt" height="432pt" viewBox="0 0 576 432" xmlns="http://www.w3.org/2000/svg" version="1.1">
 <metadata>
  <rdf:RDF xmlns:dc="http://purl.org/dc/elements/1.1/" xmlns:cc="http://creativecommons.org/ns#" xmlns:rdf="http://www.w3.org/1999/02/22-rdf-syntax-ns#">
   <cc:Work>
    <dc:type rdf:resource="http://purl.org/dc/dcmitype/StillImage"/>
    <dc:date>2023-05-04T05:49:42.604929</dc:date>
    <dc:format>image/svg+xml</dc:format>
    <dc:creator>
     <cc:Agent>
      <dc:title>Matplotlib v3.7.1, https://matplotlib.org/</dc:title>
     </cc:Agent>
    </dc:creator>
   </cc:Work>
  </rdf:RDF>
 </metadata>
 <defs>
  <style type="text/css">*{stroke-linejoin: round; stroke-linecap: butt}</style>
 </defs>
 <g id="figure_1">
  <g id="patch_1">
   <path d="M 0 432 
L 576 432 
L 576 0 
L 0 0 
z
" style="fill: #ffffff"/>
  </g>
  <g id="axes_1">
   <g id="patch_2">
    <path d="M 72 384.48 
L 518.4 384.48 
L 518.4 51.84 
L 72 51.84 
z
" style="fill: #ffffff"/>
   </g>
   <g id="matplotlib.axis_1">
    <g id="xtick_1">
     <g id="line2d_1">
      <defs>
       <path id="m38e6a45d82" d="M 0 0 
L 0 3.5 
" style="stroke: #000000; stroke-width: 0.8"/>
      </defs>
      <g>
       <use xlink:href="#m38e6a45d82" x="92.290909" y="384.48" style="stroke: #000000; stroke-width: 0.8"/>
      </g>
     </g>
     <g id="text_1">
      <!-- 0.0 -->
      <g transform="translate(84.339347 399.078438) scale(0.1 -0.1)">
       <defs>
        <path id="DejaVuSans-30" d="M 2034 4250 
Q 1547 4250 1301 3770 
Q 1056 3291 1056 2328 
Q 1056 1369 1301 889 
Q 1547 409 2034 409 
Q 2525 409 2770 889 
Q 3016 1369 3016 2328 
Q 3016 3291 2770 3770 
Q 2525 4250 2034 4250 
z
M 2034 4750 
Q 2819 4750 3233 4129 
Q 3647 3509 3647 2328 
Q 3647 1150 3233 529 
Q 2819 -91 2034 -91 
Q 1250 -91 836 529 
Q 422 1150 422 2328 
Q 422 3509 836 4129 
Q 1250 4750 2034 4750 
z
" transform="scale(0.015625)"/>
        <path id="DejaVuSans-2e" d="M 684 794 
L 1344 794 
L 1344 0 
L 684 0 
L 684 794 
z
" transform="scale(0.015625)"/>
       </defs>
       <use xlink:href="#DejaVuSans-30"/>
       <use xlink:href="#DejaVuSans-2e" x="63.623047"/>
       <use xlink:href="#DejaVuSans-30" x="95.410156"/>
      </g>
     </g>
    </g>
    <g id="xtick_2">
     <g id="line2d_2">
      <g>
       <use xlink:href="#m38e6a45d82" x="173.454545" y="384.48" style="stroke: #000000; stroke-width: 0.8"/>
      </g>
     </g>
     <g id="text_2">
      <!-- 0.2 -->
      <g transform="translate(165.502983 399.078438) scale(0.1 -0.1)">
       <defs>
        <path id="DejaVuSans-32" d="M 1228 531 
L 3431 531 
L 3431 0 
L 469 0 
L 469 531 
Q 828 903 1448 1529 
Q 2069 2156 2228 2338 
Q 2531 2678 2651 2914 
Q 2772 3150 2772 3378 
Q 2772 3750 2511 3984 
Q 2250 4219 1831 4219 
Q 1534 4219 1204 4116 
Q 875 4013 500 3803 
L 500 4441 
Q 881 4594 1212 4672 
Q 1544 4750 1819 4750 
Q 2544 4750 2975 4387 
Q 3406 4025 3406 3419 
Q 3406 3131 3298 2873 
Q 3191 2616 2906 2266 
Q 2828 2175 2409 1742 
Q 1991 1309 1228 531 
z
" transform="scale(0.015625)"/>
       </defs>
       <use xlink:href="#DejaVuSans-30"/>
       <use xlink:href="#DejaVuSans-2e" x="63.623047"/>
       <use xlink:href="#DejaVuSans-32" x="95.410156"/>
      </g>
     </g>
    </g>
    <g id="xtick_3">
     <g id="line2d_3">
      <g>
       <use xlink:href="#m38e6a45d82" x="254.618182" y="384.48" style="stroke: #000000; stroke-width: 0.8"/>
      </g>
     </g>
     <g id="text_3">
      <!-- 0.4 -->
      <g transform="translate(246.666619 399.078438) scale(0.1 -0.1)">
       <defs>
        <path id="DejaVuSans-34" d="M 2419 4116 
L 825 1625 
L 2419 1625 
L 2419 4116 
z
M 2253 4666 
L 3047 4666 
L 3047 1625 
L 3713 1625 
L 3713 1100 
L 3047 1100 
L 3047 0 
L 2419 0 
L 2419 1100 
L 313 1100 
L 313 1709 
L 2253 4666 
z
" transform="scale(0.015625)"/>
       </defs>
       <use xlink:href="#DejaVuSans-30"/>
       <use xlink:href="#DejaVuSans-2e" x="63.623047"/>
       <use xlink:href="#DejaVuSans-34" x="95.410156"/>
      </g>
     </g>
    </g>
    <g id="xtick_4">
     <g id="line2d_4">
      <g>
       <use xlink:href="#m38e6a45d82" x="335.781818" y="384.48" style="stroke: #000000; stroke-width: 0.8"/>
      </g>
     </g>
     <g id="text_4">
      <!-- 0.6 -->
      <g transform="translate(327.830256 399.078438) scale(0.1 -0.1)">
       <defs>
        <path id="DejaVuSans-36" d="M 2113 2584 
Q 1688 2584 1439 2293 
Q 1191 2003 1191 1497 
Q 1191 994 1439 701 
Q 1688 409 2113 409 
Q 2538 409 2786 701 
Q 3034 994 3034 1497 
Q 3034 2003 2786 2293 
Q 2538 2584 2113 2584 
z
M 3366 4563 
L 3366 3988 
Q 3128 4100 2886 4159 
Q 2644 4219 2406 4219 
Q 1781 4219 1451 3797 
Q 1122 3375 1075 2522 
Q 1259 2794 1537 2939 
Q 1816 3084 2150 3084 
Q 2853 3084 3261 2657 
Q 3669 2231 3669 1497 
Q 3669 778 3244 343 
Q 2819 -91 2113 -91 
Q 1303 -91 875 529 
Q 447 1150 447 2328 
Q 447 3434 972 4092 
Q 1497 4750 2381 4750 
Q 2619 4750 2861 4703 
Q 3103 4656 3366 4563 
z
" transform="scale(0.015625)"/>
       </defs>
       <use xlink:href="#DejaVuSans-30"/>
       <use xlink:href="#DejaVuSans-2e" x="63.623047"/>
       <use xlink:href="#DejaVuSans-36" x="95.410156"/>
      </g>
     </g>
    </g>
    <g id="xtick_5">
     <g id="line2d_5">
      <g>
       <use xlink:href="#m38e6a45d82" x="416.945455" y="384.48" style="stroke: #000000; stroke-width: 0.8"/>
      </g>
     </g>
     <g id="text_5">
      <!-- 0.8 -->
      <g transform="translate(408.993892 399.078438) scale(0.1 -0.1)">
       <defs>
        <path id="DejaVuSans-38" d="M 2034 2216 
Q 1584 2216 1326 1975 
Q 1069 1734 1069 1313 
Q 1069 891 1326 650 
Q 1584 409 2034 409 
Q 2484 409 2743 651 
Q 3003 894 3003 1313 
Q 3003 1734 2745 1975 
Q 2488 2216 2034 2216 
z
M 1403 2484 
Q 997 2584 770 2862 
Q 544 3141 544 3541 
Q 544 4100 942 4425 
Q 1341 4750 2034 4750 
Q 2731 4750 3128 4425 
Q 3525 4100 3525 3541 
Q 3525 3141 3298 2862 
Q 3072 2584 2669 2484 
Q 3125 2378 3379 2068 
Q 3634 1759 3634 1313 
Q 3634 634 3220 271 
Q 2806 -91 2034 -91 
Q 1263 -91 848 271 
Q 434 634 434 1313 
Q 434 1759 690 2068 
Q 947 2378 1403 2484 
z
M 1172 3481 
Q 1172 3119 1398 2916 
Q 1625 2713 2034 2713 
Q 2441 2713 2670 2916 
Q 2900 3119 2900 3481 
Q 2900 3844 2670 4047 
Q 2441 4250 2034 4250 
Q 1625 4250 1398 4047 
Q 1172 3844 1172 3481 
z
" transform="scale(0.015625)"/>
       </defs>
       <use xlink:href="#DejaVuSans-30"/>
       <use xlink:href="#DejaVuSans-2e" x="63.623047"/>
       <use xlink:href="#DejaVuSans-38" x="95.410156"/>
      </g>
     </g>
    </g>
    <g id="xtick_6">
     <g id="line2d_6">
      <g>
       <use xlink:href="#m38e6a45d82" x="498.109091" y="384.48" style="stroke: #000000; stroke-width: 0.8"/>
      </g>
     </g>
     <g id="text_6">
      <!-- 1.0 -->
      <g transform="translate(490.157528 399.078438) scale(0.1 -0.1)">
       <defs>
        <path id="DejaVuSans-31" d="M 794 531 
L 1825 531 
L 1825 4091 
L 703 3866 
L 703 4441 
L 1819 4666 
L 2450 4666 
L 2450 531 
L 3481 531 
L 3481 0 
L 794 0 
L 794 531 
z
" transform="scale(0.015625)"/>
       </defs>
       <use xlink:href="#DejaVuSans-31"/>
       <use xlink:href="#DejaVuSans-2e" x="63.623047"/>
       <use xlink:href="#DejaVuSans-30" x="95.410156"/>
      </g>
     </g>
    </g>
   </g>
   <g id="matplotlib.axis_2">
    <g id="ytick_1">
     <g id="line2d_7">
      <defs>
       <path id="m510698de5c" d="M 0 0 
L -3.5 0 
" style="stroke: #000000; stroke-width: 0.8"/>
      </defs>
      <g>
       <use xlink:href="#m510698de5c" x="72" y="369.36" style="stroke: #000000; stroke-width: 0.8"/>
      </g>
     </g>
     <g id="text_7">
      <!-- −5.0 -->
      <g transform="translate(40.717187 373.159219) scale(0.1 -0.1)">
       <defs>
        <path id="DejaVuSans-2212" d="M 678 2272 
L 4684 2272 
L 4684 1741 
L 678 1741 
L 678 2272 
z
" transform="scale(0.015625)"/>
        <path id="DejaVuSans-35" d="M 691 4666 
L 3169 4666 
L 3169 4134 
L 1269 4134 
L 1269 2991 
Q 1406 3038 1543 3061 
Q 1681 3084 1819 3084 
Q 2600 3084 3056 2656 
Q 3513 2228 3513 1497 
Q 3513 744 3044 326 
Q 2575 -91 1722 -91 
Q 1428 -91 1123 -41 
Q 819 9 494 109 
L 494 744 
Q 775 591 1075 516 
Q 1375 441 1709 441 
Q 2250 441 2565 725 
Q 2881 1009 2881 1497 
Q 2881 1984 2565 2268 
Q 2250 2553 1709 2553 
Q 1456 2553 1204 2497 
Q 953 2441 691 2322 
L 691 4666 
z
" transform="scale(0.015625)"/>
       </defs>
       <use xlink:href="#DejaVuSans-2212"/>
       <use xlink:href="#DejaVuSans-35" x="83.789062"/>
       <use xlink:href="#DejaVuSans-2e" x="147.412109"/>
       <use xlink:href="#DejaVuSans-30" x="179.199219"/>
      </g>
     </g>
    </g>
    <g id="ytick_2">
     <g id="line2d_8">
      <g>
       <use xlink:href="#m510698de5c" x="72" y="331.56" style="stroke: #000000; stroke-width: 0.8"/>
      </g>
     </g>
     <g id="text_8">
      <!-- −2.5 -->
      <g transform="translate(40.717187 335.359219) scale(0.1 -0.1)">
       <use xlink:href="#DejaVuSans-2212"/>
       <use xlink:href="#DejaVuSans-32" x="83.789062"/>
       <use xlink:href="#DejaVuSans-2e" x="147.412109"/>
       <use xlink:href="#DejaVuSans-35" x="179.199219"/>
      </g>
     </g>
    </g>
    <g id="ytick_3">
     <g id="line2d_9">
      <g>
       <use xlink:href="#m510698de5c" x="72" y="293.76" style="stroke: #000000; stroke-width: 0.8"/>
      </g>
     </g>
     <g id="text_9">
      <!-- 0.0 -->
      <g transform="translate(49.096875 297.559219) scale(0.1 -0.1)">
       <use xlink:href="#DejaVuSans-30"/>
       <use xlink:href="#DejaVuSans-2e" x="63.623047"/>
       <use xlink:href="#DejaVuSans-30" x="95.410156"/>
      </g>
     </g>
    </g>
    <g id="ytick_4">
     <g id="line2d_10">
      <g>
       <use xlink:href="#m510698de5c" x="72" y="255.96" style="stroke: #000000; stroke-width: 0.8"/>
      </g>
     </g>
     <g id="text_10">
      <!-- 2.5 -->
      <g transform="translate(49.096875 259.759219) scale(0.1 -0.1)">
       <use xlink:href="#DejaVuSans-32"/>
       <use xlink:href="#DejaVuSans-2e" x="63.623047"/>
       <use xlink:href="#DejaVuSans-35" x="95.410156"/>
      </g>
     </g>
    </g>
    <g id="ytick_5">
     <g id="line2d_11">
      <g>
       <use xlink:href="#m510698de5c" x="72" y="218.16" style="stroke: #000000; stroke-width: 0.8"/>
      </g>
     </g>
     <g id="text_11">
      <!-- 5.0 -->
      <g transform="translate(49.096875 221.959219) scale(0.1 -0.1)">
       <use xlink:href="#DejaVuSans-35"/>
       <use xlink:href="#DejaVuSans-2e" x="63.623047"/>
       <use xlink:href="#DejaVuSans-30" x="95.410156"/>
      </g>
     </g>
    </g>
    <g id="ytick_6">
     <g id="line2d_12">
      <g>
       <use xlink:href="#m510698de5c" x="72" y="180.36" style="stroke: #000000; stroke-width: 0.8"/>
      </g>
     </g>
     <g id="text_12">
      <!-- 7.5 -->
      <g transform="translate(49.096875 184.159219) scale(0.1 -0.1)">
       <defs>
        <path id="DejaVuSans-37" d="M 525 4666 
L 3525 4666 
L 3525 4397 
L 1831 0 
L 1172 0 
L 2766 4134 
L 525 4134 
L 525 4666 
z
" transform="scale(0.015625)"/>
       </defs>
       <use xlink:href="#DejaVuSans-37"/>
       <use xlink:href="#DejaVuSans-2e" x="63.623047"/>
       <use xlink:href="#DejaVuSans-35" x="95.410156"/>
      </g>
     </g>
    </g>
    <g id="ytick_7">
     <g id="line2d_13">
      <g>
       <use xlink:href="#m510698de5c" x="72" y="142.56" style="stroke: #000000; stroke-width: 0.8"/>
      </g>
     </g>
     <g id="text_13">
      <!-- 10.0 -->
      <g transform="translate(42.734375 146.359219) scale(0.1 -0.1)">
       <use xlink:href="#DejaVuSans-31"/>
       <use xlink:href="#DejaVuSans-30" x="63.623047"/>
       <use xlink:href="#DejaVuSans-2e" x="127.246094"/>
       <use xlink:href="#DejaVuSans-30" x="159.033203"/>
      </g>
     </g>
    </g>
    <g id="ytick_8">
     <g id="line2d_14">
      <g>
       <use xlink:href="#m510698de5c" x="72" y="104.76" style="stroke: #000000; stroke-width: 0.8"/>
      </g>
     </g>
     <g id="text_14">
      <!-- 12.5 -->
      <g transform="translate(42.734375 108.559219) scale(0.1 -0.1)">
       <use xlink:href="#DejaVuSans-31"/>
       <use xlink:href="#DejaVuSans-32" x="63.623047"/>
       <use xlink:href="#DejaVuSans-2e" x="127.246094"/>
       <use xlink:href="#DejaVuSans-35" x="159.033203"/>
      </g>
     </g>
    </g>
    <g id="ytick_9">
     <g id="line2d_15">
      <g>
       <use xlink:href="#m510698de5c" x="72" y="66.96" style="stroke: #000000; stroke-width: 0.8"/>
      </g>
     </g>
     <g id="text_15">
      <!-- 15.0 -->
      <g transform="translate(42.734375 70.759219) scale(0.1 -0.1)">
       <use xlink:href="#DejaVuSans-31"/>
       <use xlink:href="#DejaVuSans-35" x="63.623047"/>
       <use xlink:href="#DejaVuSans-2e" x="127.246094"/>
       <use xlink:href="#DejaVuSans-30" x="159.033203"/>
      </g>
     </g>
    </g>
   </g>
   <g id="line2d_16">
    <path d="M 92.290909 327.414096 
L 96.349091 327.448872 
L 100.407273 327.550176 
L 104.465455 327.716496 
L 108.523636 327.94632 
L 112.581818 328.232088 
L 116.64 328.5738 
L 120.698182 328.962384 
L 124.756364 329.394816 
L 128.814545 329.868072 
L 132.872727 330.374592 
L 136.930909 330.911352 
L 140.989091 331.473816 
L 145.047273 332.060472 
L 149.105455 332.666784 
L 153.163636 333.29124 
L 157.221818 333.930816 
L 161.28 334.582488 
L 165.338182 335.244744 
L 169.396364 335.916072 
L 173.454545 336.59496 
L 177.512727 337.279896 
L 181.570909 337.969368 
L 185.629091 338.661864 
L 189.687273 339.357384 
L 193.745455 340.054416 
L 197.803636 340.75296 
L 201.861818 341.449992 
L 205.92 342.147024 
L 209.978182 342.842544 
L 214.036364 343.536552 
L 218.094545 344.226024 
L 222.152727 344.912472 
L 226.210909 345.595896 
L 230.269091 346.274784 
L 234.327273 346.949136 
L 238.385455 347.618952 
L 242.443636 348.281208 
L 246.501818 348.938928 
L 250.56 349.5906 
L 254.618182 350.234712 
L 258.676364 350.872776 
L 262.734545 351.50328 
L 266.792727 352.127736 
L 270.850909 352.74312 
L 274.909091 353.350944 
L 278.967273 353.949696 
L 283.025455 354.540888 
L 287.083636 355.12452 
L 291.141818 355.69908 
L 295.2 356.263056 
L 299.258182 356.819472 
L 303.316364 357.366816 
L 307.374545 357.903576 
L 311.432727 358.431264 
L 315.490909 358.94988 
L 319.549091 359.457912 
L 323.607273 359.956872 
L 327.665455 360.445248 
L 331.723636 360.92304 
L 335.781818 361.390248 
L 339.84 361.848384 
L 343.898182 362.294424 
L 347.956364 362.731392 
L 352.014545 363.156264 
L 356.072727 363.570552 
L 360.130909 363.975768 
L 364.189091 364.367376 
L 368.247273 364.749912 
L 372.305455 365.120352 
L 376.363636 365.480208 
L 380.421818 365.82948 
L 384.48 366.166656 
L 388.538182 366.491736 
L 392.596364 366.806232 
L 396.654545 367.108632 
L 400.712727 367.400448 
L 404.770909 367.680168 
L 408.829091 367.949304 
L 412.887273 368.204832 
L 416.945455 368.451288 
L 421.003636 368.684136 
L 425.061818 368.904888 
L 429.12 369.115056 
L 433.178182 369.313128 
L 437.236364 369.499104 
L 441.294545 369.672984 
L 445.352727 369.834768 
L 449.410909 369.985968 
L 453.469091 370.12356 
L 457.527273 370.250568 
L 461.585455 370.36548 
L 465.643636 370.466784 
L 469.701818 370.557504 
L 473.76 370.636128 
L 477.818182 370.702656 
L 481.876364 370.757088 
L 485.934545 370.799424 
L 489.992727 370.829664 
L 494.050909 370.847808 
L 498.109091 370.853856 
" clip-path="url(#pf9883ef4fb)" style="fill: none; stroke: #000000; stroke-opacity: 0.5; stroke-linecap: square"/>
   </g>
   <g id="line2d_17">
    <path d="M 92.290909 310.000392 
L 96.349091 309.973176 
L 100.407273 309.89304 
L 104.465455 309.761496 
L 108.523636 309.581568 
L 112.581818 309.357792 
L 116.64 309.093192 
L 120.698182 308.792304 
L 124.756364 308.459664 
L 128.814545 308.099808 
L 132.872727 307.717272 
L 136.930909 307.313568 
L 140.989091 306.893232 
L 145.047273 306.459288 
L 149.105455 306.011736 
L 153.163636 305.555112 
L 157.221818 305.087904 
L 161.28 304.614648 
L 165.338182 304.133832 
L 169.396364 303.64848 
L 173.454545 303.15708 
L 177.512727 302.659632 
L 181.570909 302.15916 
L 185.629091 301.654152 
L 189.687273 301.144608 
L 193.745455 300.63204 
L 197.803636 300.113424 
L 201.861818 299.591784 
L 205.92 299.064096 
L 209.978182 298.533384 
L 214.036364 297.996624 
L 218.094545 297.45684 
L 222.152727 296.909496 
L 226.210909 296.357616 
L 230.269091 295.8012 
L 234.327273 295.237224 
L 238.385455 294.668712 
L 242.443636 294.09264 
L 246.501818 293.51052 
L 250.56 292.922352 
L 254.618182 292.326624 
L 258.676364 291.724848 
L 262.734545 291.114 
L 266.792727 290.497104 
L 270.850909 289.872648 
L 274.909091 289.240632 
L 278.967273 288.601056 
L 283.025455 287.95392 
L 287.083636 287.297712 
L 291.141818 286.633944 
L 295.2 285.962616 
L 299.258182 285.283728 
L 303.316364 284.595768 
L 307.374545 283.898736 
L 311.432727 283.195656 
L 315.490909 282.481992 
L 319.549091 281.76228 
L 323.607273 281.033496 
L 327.665455 280.297152 
L 331.723636 279.551736 
L 335.781818 278.79876 
L 339.84 278.038224 
L 343.898182 277.270128 
L 347.956364 276.49296 
L 352.014545 275.709744 
L 356.072727 274.918968 
L 360.130909 274.11912 
L 364.189091 273.314736 
L 368.247273 272.502792 
L 372.305455 271.683288 
L 376.363636 270.857736 
L 380.421818 270.027648 
L 384.48 269.19 
L 388.538182 268.347816 
L 392.596364 267.502608 
L 396.654545 266.651352 
L 400.712727 265.797072 
L 404.770909 264.938256 
L 408.829091 264.07944 
L 412.887273 263.2176 
L 416.945455 262.35576 
L 421.003636 261.49392 
L 425.061818 260.633592 
L 429.12 259.7778 
L 433.178182 258.925032 
L 437.236364 258.081336 
L 441.294545 257.2452 
L 445.352727 256.422672 
L 449.410909 255.613752 
L 453.469091 254.826 
L 457.527273 254.060928 
L 461.585455 253.326096 
L 465.643636 252.62604 
L 469.701818 251.971344 
L 473.76 251.369568 
L 477.818182 250.831296 
L 481.876364 250.367112 
L 485.934545 249.990624 
L 489.992727 249.712416 
L 494.050909 249.540048 
L 498.109091 249.482592 
" clip-path="url(#pf9883ef4fb)" style="fill: none; stroke: #000000; stroke-opacity: 0.5; stroke-linecap: square"/>
   </g>
   <g id="line2d_18">
    <path d="M 92.290909 267.49656 
L 96.349091 267.476904 
L 100.407273 267.417936 
L 104.465455 267.318144 
L 108.523636 267.182064 
L 112.581818 267.00516 
L 116.64 266.791968 
L 120.698182 266.540976 
L 124.756364 266.252184 
L 128.814545 265.928616 
L 132.872727 265.56876 
L 136.930909 265.174128 
L 140.989091 264.747744 
L 145.047273 264.289608 
L 149.105455 263.79972 
L 153.163636 263.279592 
L 157.221818 262.732248 
L 161.28 262.1592 
L 165.338182 261.558936 
L 169.396364 260.935992 
L 173.454545 260.290368 
L 177.512727 259.623576 
L 181.570909 258.937128 
L 185.629091 258.234048 
L 189.687273 257.514336 
L 193.745455 256.781016 
L 197.803636 256.0356 
L 201.861818 255.278088 
L 205.92 254.513016 
L 209.978182 253.738872 
L 214.036364 252.95868 
L 218.094545 252.175464 
L 222.152727 251.389224 
L 226.210909 250.59996 
L 230.269091 249.812208 
L 234.327273 249.025968 
L 238.385455 248.24124 
L 242.443636 247.461048 
L 246.501818 246.685392 
L 250.56 245.914272 
L 254.618182 245.1492 
L 258.676364 244.391688 
L 262.734545 243.641736 
L 266.792727 242.899344 
L 270.850909 242.164512 
L 274.909091 241.43724 
L 278.967273 240.716016 
L 283.025455 240.005376 
L 287.083636 239.299272 
L 291.141818 238.60224 
L 295.2 237.911256 
L 299.258182 237.227832 
L 303.316364 236.550456 
L 307.374545 235.877616 
L 311.432727 235.212336 
L 315.490909 234.551592 
L 319.549091 233.896896 
L 323.607273 233.246736 
L 327.665455 232.602624 
L 331.723636 231.961536 
L 335.781818 231.326496 
L 339.84 230.695992 
L 343.898182 230.071536 
L 347.956364 229.451616 
L 352.014545 228.837744 
L 356.072727 228.228408 
L 360.130909 227.62512 
L 364.189091 227.029392 
L 368.247273 226.441224 
L 372.305455 225.859104 
L 376.363636 225.287568 
L 380.421818 224.725104 
L 384.48 224.173224 
L 388.538182 223.63344 
L 392.596364 223.110288 
L 396.654545 222.606792 
L 400.712727 222.127488 
L 404.770909 221.687496 
L 408.829091 221.307984 
L 412.887273 221.041872 
L 416.945455 220.97988 
L 421.003636 221.19156 
L 425.061818 221.625504 
L 429.12 222.186456 
L 433.178182 222.819984 
L 437.236364 223.492824 
L 441.294545 224.189856 
L 445.352727 224.900496 
L 449.410909 225.617184 
L 453.469091 226.329336 
L 457.527273 227.030904 
L 461.585455 227.71584 
L 465.643636 228.372048 
L 469.701818 228.99348 
L 473.76 229.56804 
L 477.818182 230.085144 
L 481.876364 230.532696 
L 485.934545 230.897088 
L 489.992727 231.167736 
L 494.050909 231.334056 
L 498.109091 231.39 
" clip-path="url(#pf9883ef4fb)" style="fill: none; stroke: #000000; stroke-opacity: 0.5; stroke-linecap: square"/>
   </g>
   <g id="line2d_19">
    <path d="M 92.290909 242.731512 
L 96.349091 242.725464 
L 100.407273 242.702784 
L 104.465455 242.668008 
L 108.523636 242.6166 
L 112.581818 242.553096 
L 116.64 242.47296 
L 120.698182 242.379216 
L 124.756364 242.271864 
L 128.814545 242.149392 
L 132.872727 242.0118 
L 136.930909 241.859088 
L 140.989091 241.691256 
L 145.047273 241.508304 
L 149.105455 241.311744 
L 153.163636 241.098552 
L 157.221818 240.87024 
L 161.28 240.625296 
L 165.338182 240.365232 
L 169.396364 240.088536 
L 173.454545 239.79672 
L 177.512727 239.48676 
L 181.570909 239.16168 
L 185.629091 238.818456 
L 189.687273 238.4586 
L 193.745455 238.0806 
L 197.803636 237.685968 
L 201.861818 237.27168 
L 205.92 236.84076 
L 209.978182 236.390184 
L 214.036364 235.921464 
L 218.094545 235.433088 
L 222.152727 234.926568 
L 226.210909 234.401904 
L 230.269091 233.857584 
L 234.327273 233.29512 
L 238.385455 232.714512 
L 242.443636 232.11576 
L 246.501818 231.500376 
L 250.56 230.86836 
L 254.618182 230.221224 
L 258.676364 229.56048 
L 262.734545 228.886128 
L 266.792727 228.19968 
L 270.850909 227.505672 
L 274.909091 226.802592 
L 278.967273 226.094976 
L 283.025455 225.382824 
L 287.083636 224.672184 
L 291.141818 223.963056 
L 295.2 223.258464 
L 299.258182 222.562944 
L 303.316364 221.878008 
L 307.374545 221.208192 
L 311.432727 220.555008 
L 315.490909 219.926016 
L 319.549091 219.321216 
L 323.607273 218.745144 
L 327.665455 218.203848 
L 331.723636 217.69884 
L 335.781818 217.234656 
L 339.84 216.81432 
L 343.898182 216.44388 
L 347.956364 216.124848 
L 352.014545 215.860248 
L 356.072727 215.654616 
L 360.130909 215.507952 
L 364.189091 215.421768 
L 368.247273 215.399088 
L 372.305455 215.4384 
L 376.363636 215.539704 
L 380.421818 215.701488 
L 384.48 215.920728 
L 388.538182 216.1944 
L 392.596364 216.51948 
L 396.654545 216.888408 
L 400.712727 217.293624 
L 404.770909 217.718496 
L 408.829091 218.135808 
L 412.887273 218.49264 
L 416.945455 218.692224 
L 421.003636 218.665008 
L 425.061818 218.457864 
L 429.12 218.161512 
L 433.178182 217.828872 
L 437.236364 217.48716 
L 441.294545 217.149984 
L 445.352727 216.823392 
L 449.410909 216.513432 
L 453.469091 216.220104 
L 457.527273 215.946432 
L 461.585455 215.69544 
L 465.643636 215.46864 
L 469.701818 215.26452 
L 473.76 215.087616 
L 477.818182 214.934904 
L 481.876364 214.809408 
L 485.934545 214.711128 
L 489.992727 214.641576 
L 494.050909 214.59924 
L 498.109091 214.585632 
" clip-path="url(#pf9883ef4fb)" style="fill: none; stroke: #000000; stroke-opacity: 0.5; stroke-linecap: square"/>
   </g>
   <g id="line2d_20">
    <path d="M 92.290909 177.077448 
L 96.349091 177.069888 
L 100.407273 177.04872 
L 104.465455 177.013944 
L 108.523636 176.96556 
L 112.581818 176.903568 
L 116.64 176.826456 
L 120.698182 176.737248 
L 124.756364 176.63292 
L 128.814545 176.516496 
L 132.872727 176.384952 
L 136.930909 176.2398 
L 140.989091 176.082552 
L 145.047273 175.911696 
L 149.105455 175.727232 
L 153.163636 175.530672 
L 157.221818 175.320504 
L 161.28 175.09824 
L 165.338182 174.862368 
L 169.396364 174.615912 
L 173.454545 174.355848 
L 177.512727 174.0852 
L 181.570909 173.802456 
L 185.629091 173.509128 
L 189.687273 173.205216 
L 193.745455 172.89072 
L 197.803636 172.56564 
L 201.861818 172.233 
L 205.92 171.889776 
L 209.978182 171.538992 
L 214.036364 171.18216 
L 218.094545 170.817768 
L 222.152727 170.447328 
L 226.210909 170.073864 
L 230.269091 169.695864 
L 234.327273 169.317864 
L 238.385455 168.939864 
L 242.443636 168.563376 
L 246.501818 168.191424 
L 250.56 167.828544 
L 254.618182 167.474736 
L 258.676364 167.13756 
L 262.734545 166.821552 
L 266.792727 166.529736 
L 270.850909 166.272696 
L 274.909091 166.054968 
L 278.967273 165.884112 
L 283.025455 165.770712 
L 287.083636 165.720816 
L 291.141818 165.73896 
L 295.2 165.828168 
L 299.258182 165.986928 
L 303.316364 166.209192 
L 307.374545 166.4874 
L 311.432727 166.810968 
L 315.490909 167.169312 
L 319.549091 167.548824 
L 323.607273 167.941944 
L 327.665455 168.336576 
L 331.723636 168.72516 
L 335.781818 169.098624 
L 339.84 169.449408 
L 343.898182 169.774488 
L 347.956364 170.066304 
L 352.014545 170.32032 
L 356.072727 170.532 
L 360.130909 170.701344 
L 364.189091 170.823816 
L 368.247273 170.897904 
L 372.305455 170.926632 
L 376.363636 170.906976 
L 380.421818 170.84196 
L 384.48 170.733096 
L 388.538182 170.58492 
L 392.596364 170.400456 
L 396.654545 170.18424 
L 400.712727 169.940808 
L 404.770909 169.67772 
L 408.829091 169.398 
L 412.887273 169.109208 
L 416.945455 168.817392 
L 421.003636 168.527088 
L 425.061818 168.245856 
L 429.12 167.975208 
L 433.178182 167.722704 
L 437.236364 167.489856 
L 441.294545 167.279688 
L 445.352727 167.0922 
L 449.410909 166.927392 
L 453.469091 166.785264 
L 457.527273 166.664304 
L 461.585455 166.563 
L 465.643636 166.47984 
L 469.701818 166.410288 
L 473.76 166.355856 
L 477.818182 166.312008 
L 481.876364 166.278744 
L 485.934545 166.254552 
L 489.992727 166.23792 
L 494.050909 166.228848 
L 498.109091 166.224312 
" clip-path="url(#pf9883ef4fb)" style="fill: none; stroke: #000000; stroke-opacity: 0.5; stroke-linecap: square"/>
   </g>
   <g id="line2d_21">
    <path d="M 92.290909 134.104896 
L 96.349091 134.098848 
L 100.407273 134.080704 
L 104.465455 134.048952 
L 108.523636 134.005104 
L 112.581818 133.950672 
L 116.64 133.882632 
L 120.698182 133.804008 
L 124.756364 133.7148 
L 128.814545 133.613496 
L 132.872727 133.504632 
L 136.930909 133.388208 
L 140.989091 133.264224 
L 145.047273 133.135704 
L 149.105455 133.007184 
L 153.163636 132.884712 
L 157.221818 132.774336 
L 161.28 132.688152 
L 165.338182 132.645816 
L 169.396364 132.676056 
L 173.454545 132.818184 
L 177.512727 133.108488 
L 181.570909 133.569648 
L 185.629091 134.189568 
L 189.687273 134.928936 
L 193.745455 135.751464 
L 197.803636 136.623888 
L 201.861818 137.528064 
L 205.92 138.450384 
L 209.978182 139.380264 
L 214.036364 140.311656 
L 218.094545 141.241536 
L 222.152727 142.163856 
L 226.210909 143.078616 
L 230.269091 143.982792 
L 234.327273 144.87336 
L 238.385455 145.748808 
L 242.443636 146.606112 
L 246.501818 147.442248 
L 250.56 148.255704 
L 254.618182 149.041944 
L 258.676364 149.796432 
L 262.734545 150.514632 
L 266.792727 151.190496 
L 270.850909 151.816464 
L 274.909091 152.388 
L 278.967273 152.893008 
L 283.025455 153.32544 
L 287.083636 153.676224 
L 291.141818 153.942336 
L 295.2 154.117728 
L 299.258182 154.205424 
L 303.316364 154.20996 
L 307.374545 154.138896 
L 311.432727 153.999792 
L 315.490909 153.806256 
L 319.549091 153.56736 
L 323.607273 153.293688 
L 327.665455 152.995824 
L 331.723636 152.687376 
L 335.781818 152.377416 
L 339.84 152.0856 
L 343.898182 151.834608 
L 347.956364 151.656192 
L 352.014545 151.595712 
L 356.072727 151.678872 
L 360.130909 151.899624 
L 364.189091 152.215632 
L 368.247273 152.581536 
L 372.305455 152.968608 
L 376.363636 153.357192 
L 380.421818 153.736704 
L 384.48 154.098072 
L 388.538182 154.435248 
L 392.596364 154.74672 
L 396.654545 155.029464 
L 400.712727 155.278944 
L 404.770909 155.493648 
L 408.829091 155.673576 
L 412.887273 155.81268 
L 416.945455 155.912472 
L 421.003636 155.969928 
L 425.061818 155.985048 
L 429.12 155.957832 
L 433.178182 155.886768 
L 437.236364 155.777904 
L 441.294545 155.629728 
L 445.352727 155.448288 
L 449.410909 155.23812 
L 453.469091 155.006784 
L 457.527273 154.758816 
L 461.585455 154.501776 
L 465.643636 154.246248 
L 469.701818 153.995256 
L 473.76 153.760896 
L 477.818182 153.547704 
L 481.876364 153.361728 
L 485.934545 153.21204 
L 489.992727 153.100152 
L 494.050909 153.032112 
L 498.109091 153.009432 
" clip-path="url(#pf9883ef4fb)" style="fill: none; stroke: #000000; stroke-opacity: 0.5; stroke-linecap: square"/>
   </g>
   <g id="line2d_22">
    <path d="M 92.290909 108.089424 
L 96.349091 108.316224 
L 100.407273 108.924048 
L 104.465455 109.775304 
L 108.523636 110.76264 
L 112.581818 111.827088 
L 116.64 112.93236 
L 120.698182 114.0588 
L 124.756364 115.195824 
L 128.814545 116.335872 
L 132.872727 117.472896 
L 136.930909 118.60236 
L 140.989091 119.719728 
L 145.047273 120.823488 
L 149.105455 121.90608 
L 153.163636 122.961456 
L 157.221818 123.982056 
L 161.28 124.955784 
L 165.338182 125.861472 
L 169.396364 126.671904 
L 173.454545 127.347768 
L 177.512727 127.84824 
L 181.570909 128.153664 
L 185.629091 128.276136 
L 189.687273 128.253456 
L 193.745455 128.121912 
L 197.803636 127.914768 
L 201.861818 127.648656 
L 205.92 127.34172 
L 209.978182 126.998496 
L 214.036364 126.629568 
L 218.094545 126.23796 
L 222.152727 125.831232 
L 226.210909 125.41392 
L 230.269091 125.004168 
L 234.327273 124.6428 
L 238.385455 124.462872 
L 242.443636 124.780392 
L 246.501818 125.613504 
L 250.56 126.647712 
L 254.618182 127.737864 
L 258.676364 128.841624 
L 262.734545 129.943872 
L 266.792727 131.037048 
L 270.850909 132.116616 
L 274.909091 133.182576 
L 278.967273 134.231904 
L 283.025455 135.261576 
L 287.083636 136.273104 
L 291.141818 137.261952 
L 295.2 138.231144 
L 299.258182 139.176144 
L 303.316364 140.098464 
L 307.374545 140.99508 
L 311.432727 141.865992 
L 315.490909 142.709688 
L 319.549091 143.524656 
L 323.607273 144.30636 
L 327.665455 145.0548 
L 331.723636 145.762416 
L 335.781818 146.42316 
L 339.84 147.026448 
L 343.898182 147.5496 
L 347.956364 147.9654 
L 352.014545 148.231512 
L 356.072727 148.323744 
L 360.130909 148.249656 
L 364.189091 148.05612 
L 368.247273 147.785472 
L 372.305455 147.470976 
L 376.363636 147.130776 
L 380.421818 146.77848 
L 384.48 146.420136 
L 388.538182 146.063304 
L 392.596364 145.711008 
L 396.654545 145.36476 
L 400.712727 145.027584 
L 404.770909 144.700992 
L 408.829091 144.384984 
L 412.887273 144.081072 
L 416.945455 143.79228 
L 421.003636 143.517096 
L 425.061818 143.25552 
L 429.12 143.010576 
L 433.178182 142.780752 
L 437.236364 142.566048 
L 441.294545 142.367976 
L 445.352727 142.186536 
L 449.410909 142.021728 
L 453.469091 141.873552 
L 457.527273 141.740496 
L 461.585455 141.624072 
L 465.643636 141.522768 
L 469.701818 141.436584 
L 473.76 141.36552 
L 477.818182 141.306552 
L 481.876364 141.261192 
L 485.934545 141.226416 
L 489.992727 141.202224 
L 494.050909 141.188616 
L 498.109091 141.18408 
" clip-path="url(#pf9883ef4fb)" style="fill: none; stroke: #000000; stroke-opacity: 0.5; stroke-linecap: square"/>
   </g>
   <g id="line2d_23">
    <path d="M 92.290909 101.164464 
L 96.349091 100.931616 
L 100.407273 100.308672 
L 104.465455 99.433224 
L 108.523636 98.414136 
L 112.581818 97.317936 
L 116.64 96.188472 
L 120.698182 95.063544 
L 124.756364 93.991536 
L 128.814545 93.054096 
L 132.872727 92.420568 
L 136.930909 92.320776 
L 140.989091 92.809152 
L 145.047273 93.6846 
L 149.105455 94.762656 
L 153.163636 95.940504 
L 157.221818 97.174296 
L 161.28 98.441352 
L 165.338182 99.728064 
L 169.396364 101.02536 
L 173.454545 102.330216 
L 177.512727 103.636584 
L 181.570909 104.945976 
L 185.629091 106.253856 
L 189.687273 107.558712 
L 193.745455 108.859032 
L 197.803636 110.154816 
L 201.861818 111.44304 
L 205.92 112.725216 
L 209.978182 113.996808 
L 214.036364 115.257816 
L 218.094545 116.506728 
L 222.152727 117.737496 
L 226.210909 118.945584 
L 230.269091 120.11436 
L 234.327273 121.204512 
L 238.385455 122.082984 
L 242.443636 122.430744 
L 246.501818 122.229648 
L 250.56 121.798728 
L 254.618182 121.277088 
L 258.676364 120.708576 
L 262.734545 120.1068 
L 266.792727 119.47932 
L 270.850909 118.830672 
L 274.909091 118.159344 
L 278.967273 117.469872 
L 283.025455 116.760744 
L 287.083636 116.03196 
L 291.141818 115.286544 
L 295.2 114.522984 
L 299.258182 113.74128 
L 303.316364 112.944456 
L 307.374545 112.129488 
L 311.432727 111.300912 
L 315.490909 110.455704 
L 319.549091 109.595376 
L 323.607273 108.72144 
L 327.665455 107.83692 
L 331.723636 106.941816 
L 335.781818 106.040664 
L 339.84 105.138 
L 343.898182 104.247432 
L 347.956364 103.394664 
L 352.014545 102.679488 
L 356.072727 102.455712 
L 360.130909 103.108896 
L 364.189091 104.20056 
L 368.247273 105.4026 
L 372.305455 106.631856 
L 376.363636 107.8596 
L 380.421818 109.073736 
L 384.48 110.272752 
L 388.538182 111.449088 
L 392.596364 112.604256 
L 396.654545 113.735232 
L 400.712727 114.840504 
L 404.770909 115.917048 
L 408.829091 116.966376 
L 412.887273 117.986976 
L 416.945455 118.977336 
L 421.003636 119.934432 
L 425.061818 120.858264 
L 429.12 121.748832 
L 433.178182 122.603112 
L 437.236364 123.419592 
L 441.294545 124.198272 
L 445.352727 124.934616 
L 449.410909 125.630136 
L 453.469091 126.281808 
L 457.527273 126.886608 
L 461.585455 127.443024 
L 465.643636 127.949544 
L 469.701818 128.404656 
L 473.76 128.803824 
L 477.818182 129.145536 
L 481.876364 129.42828 
L 485.934545 129.650544 
L 489.992727 129.810816 
L 494.050909 129.906072 
L 498.109091 129.939336 
" clip-path="url(#pf9883ef4fb)" style="fill: none; stroke: #000000; stroke-opacity: 0.5; stroke-linecap: square"/>
   </g>
   <g id="patch_3">
    <path d="M 72 384.48 
L 72 51.84 
" style="fill: none; stroke: #000000; stroke-width: 0.8; stroke-linejoin: miter; stroke-linecap: square"/>
   </g>
   <g id="patch_4">
    <path d="M 518.4 384.48 
L 518.4 51.84 
" style="fill: none; stroke: #000000; stroke-width: 0.8; stroke-linejoin: miter; stroke-linecap: square"/>
   </g>
   <g id="patch_5">
    <path d="M 72 384.48 
L 518.4 384.48 
" style="fill: none; stroke: #000000; stroke-width: 0.8; stroke-linejoin: miter; stroke-linecap: square"/>
   </g>
   <g id="patch_6">
    <path d="M 72 51.84 
L 518.4 51.84 
" style="fill: none; stroke: #000000; stroke-width: 0.8; stroke-linejoin: miter; stroke-linecap: square"/>
   </g>
  </g>
 </g>
 <defs>
  <clipPath id="pf9883ef4fb">
   <rect x="72" y="51.84" width="446.4" height="332.64"/>
  </clipPath>
 </defs>
</svg>
