<?xml version="1.0" encoding="utf-8" standalone="no"?>
<!DOCTYPE svg PUBLIC "-//W3C//DTD SVG 1.1//EN"
  "http://www.w3.org/Graphics/SVG/1.1/DTD/svg11.dtd">
<svg xmlns:xlink="http://www.w3.org/1999/xlink" width="576pt" height="432pt" viewBox="0 0 576 432" xmlns="http://www.w3.org/2000/svg" version="1.1">
 <metadata>
  <rdf:RDF xmlns:dc="http://purl.org/dc/elements/1.1/" xmlns:cc="http://creativecommons.org/ns#" xmlns:rdf="http://www.w3.org/1999/02/22-rdf-syntax-ns#">
   <cc:Work>
    <dc:type rdf:resource="http://purl.org/dc/dcmitype/StillImage"/>
    <dc:date>2023-05-03T19:33:32.279394</dc:date>
    <dc:format>image/svg+xml</dc:format>
    <dc:creator>
     <cc:Agent>
      <dc:title>Matplotlib v3.7.1, https://matplotlib.org/</dc:title>
     </cc:Agent>
    </dc:creator>
   </cc:Work>
  </rdf:RDF>
 </metadata>
 <defs>
  <style type="text/css">*{stroke-linejoin: round; stroke-linecap: butt}</style>
 </defs>
 <g id="figure_1">
  <g id="patch_1">
   <path d="M 0 432 
L 576 432 
L 576 0 
L 0 0 
z
" style="fill: #ffffff"/>
  </g>
  <g id="axes_1">
   <g id="patch_2">
    <path d="M 72 384.48 
L 518.4 384.48 
L 518.4 51.84 
L 72 51.84 
z
" style="fill: #ffffff"/>
   </g>
   <g id="matplotlib.axis_1">
    <g id="xtick_1">
     <g id="line2d_1">
      <defs>
       <path id="m4194bb8954" d="M 0 0 
L 0 3.5 
" style="stroke: #000000; stroke-width: 0.8"/>
      </defs>
      <g>
       <use xlink:href="#m4194bb8954" x="92.290909" y="384.48" style="stroke: #000000; stroke-width: 0.8"/>
      </g>
     </g>
     <g id="text_1">
      <!-- 0.0 -->
      <g transform="translate(84.339347 399.078438) scale(0.1 -0.1)">
       <defs>
        <path id="DejaVuSans-30" d="M 2034 4250 
Q 1547 4250 1301 3770 
Q 1056 3291 1056 2328 
Q 1056 1369 1301 889 
Q 1547 409 2034 409 
Q 2525 409 2770 889 
Q 3016 1369 3016 2328 
Q 3016 3291 2770 3770 
Q 2525 4250 2034 4250 
z
M 2034 4750 
Q 2819 4750 3233 4129 
Q 3647 3509 3647 2328 
Q 3647 1150 3233 529 
Q 2819 -91 2034 -91 
Q 1250 -91 836 529 
Q 422 1150 422 2328 
Q 422 3509 836 4129 
Q 1250 4750 2034 4750 
z
" transform="scale(0.015625)"/>
        <path id="DejaVuSans-2e" d="M 684 794 
L 1344 794 
L 1344 0 
L 684 0 
L 684 794 
z
" transform="scale(0.015625)"/>
       </defs>
       <use xlink:href="#DejaVuSans-30"/>
       <use xlink:href="#DejaVuSans-2e" x="63.623047"/>
       <use xlink:href="#DejaVuSans-30" x="95.410156"/>
      </g>
     </g>
    </g>
    <g id="xtick_2">
     <g id="line2d_2">
      <g>
       <use xlink:href="#m4194bb8954" x="173.454545" y="384.48" style="stroke: #000000; stroke-width: 0.8"/>
      </g>
     </g>
     <g id="text_2">
      <!-- 0.2 -->
      <g transform="translate(165.502983 399.078438) scale(0.1 -0.1)">
       <defs>
        <path id="DejaVuSans-32" d="M 1228 531 
L 3431 531 
L 3431 0 
L 469 0 
L 469 531 
Q 828 903 1448 1529 
Q 2069 2156 2228 2338 
Q 2531 2678 2651 2914 
Q 2772 3150 2772 3378 
Q 2772 3750 2511 3984 
Q 2250 4219 1831 4219 
Q 1534 4219 1204 4116 
Q 875 4013 500 3803 
L 500 4441 
Q 881 4594 1212 4672 
Q 1544 4750 1819 4750 
Q 2544 4750 2975 4387 
Q 3406 4025 3406 3419 
Q 3406 3131 3298 2873 
Q 3191 2616 2906 2266 
Q 2828 2175 2409 1742 
Q 1991 1309 1228 531 
z
" transform="scale(0.015625)"/>
       </defs>
       <use xlink:href="#DejaVuSans-30"/>
       <use xlink:href="#DejaVuSans-2e" x="63.623047"/>
       <use xlink:href="#DejaVuSans-32" x="95.410156"/>
      </g>
     </g>
    </g>
    <g id="xtick_3">
     <g id="line2d_3">
      <g>
       <use xlink:href="#m4194bb8954" x="254.618182" y="384.48" style="stroke: #000000; stroke-width: 0.8"/>
      </g>
     </g>
     <g id="text_3">
      <!-- 0.4 -->
      <g transform="translate(246.666619 399.078438) scale(0.1 -0.1)">
       <defs>
        <path id="DejaVuSans-34" d="M 2419 4116 
L 825 1625 
L 2419 1625 
L 2419 4116 
z
M 2253 4666 
L 3047 4666 
L 3047 1625 
L 3713 1625 
L 3713 1100 
L 3047 1100 
L 3047 0 
L 2419 0 
L 2419 1100 
L 313 1100 
L 313 1709 
L 2253 4666 
z
" transform="scale(0.015625)"/>
       </defs>
       <use xlink:href="#DejaVuSans-30"/>
       <use xlink:href="#DejaVuSans-2e" x="63.623047"/>
       <use xlink:href="#DejaVuSans-34" x="95.410156"/>
      </g>
     </g>
    </g>
    <g id="xtick_4">
     <g id="line2d_4">
      <g>
       <use xlink:href="#m4194bb8954" x="335.781818" y="384.48" style="stroke: #000000; stroke-width: 0.8"/>
      </g>
     </g>
     <g id="text_4">
      <!-- 0.6 -->
      <g transform="translate(327.830256 399.078438) scale(0.1 -0.1)">
       <defs>
        <path id="DejaVuSans-36" d="M 2113 2584 
Q 1688 2584 1439 2293 
Q 1191 2003 1191 1497 
Q 1191 994 1439 701 
Q 1688 409 2113 409 
Q 2538 409 2786 701 
Q 3034 994 3034 1497 
Q 3034 2003 2786 2293 
Q 2538 2584 2113 2584 
z
M 3366 4563 
L 3366 3988 
Q 3128 4100 2886 4159 
Q 2644 4219 2406 4219 
Q 1781 4219 1451 3797 
Q 1122 3375 1075 2522 
Q 1259 2794 1537 2939 
Q 1816 3084 2150 3084 
Q 2853 3084 3261 2657 
Q 3669 2231 3669 1497 
Q 3669 778 3244 343 
Q 2819 -91 2113 -91 
Q 1303 -91 875 529 
Q 447 1150 447 2328 
Q 447 3434 972 4092 
Q 1497 4750 2381 4750 
Q 2619 4750 2861 4703 
Q 3103 4656 3366 4563 
z
" transform="scale(0.015625)"/>
       </defs>
       <use xlink:href="#DejaVuSans-30"/>
       <use xlink:href="#DejaVuSans-2e" x="63.623047"/>
       <use xlink:href="#DejaVuSans-36" x="95.410156"/>
      </g>
     </g>
    </g>
    <g id="xtick_5">
     <g id="line2d_5">
      <g>
       <use xlink:href="#m4194bb8954" x="416.945455" y="384.48" style="stroke: #000000; stroke-width: 0.8"/>
      </g>
     </g>
     <g id="text_5">
      <!-- 0.8 -->
      <g transform="translate(408.993892 399.078438) scale(0.1 -0.1)">
       <defs>
        <path id="DejaVuSans-38" d="M 2034 2216 
Q 1584 2216 1326 1975 
Q 1069 1734 1069 1313 
Q 1069 891 1326 650 
Q 1584 409 2034 409 
Q 2484 409 2743 651 
Q 3003 894 3003 1313 
Q 3003 1734 2745 1975 
Q 2488 2216 2034 2216 
z
M 1403 2484 
Q 997 2584 770 2862 
Q 544 3141 544 3541 
Q 544 4100 942 4425 
Q 1341 4750 2034 4750 
Q 2731 4750 3128 4425 
Q 3525 4100 3525 3541 
Q 3525 3141 3298 2862 
Q 3072 2584 2669 2484 
Q 3125 2378 3379 2068 
Q 3634 1759 3634 1313 
Q 3634 634 3220 271 
Q 2806 -91 2034 -91 
Q 1263 -91 848 271 
Q 434 634 434 1313 
Q 434 1759 690 2068 
Q 947 2378 1403 2484 
z
M 1172 3481 
Q 1172 3119 1398 2916 
Q 1625 2713 2034 2713 
Q 2441 2713 2670 2916 
Q 2900 3119 2900 3481 
Q 2900 3844 2670 4047 
Q 2441 4250 2034 4250 
Q 1625 4250 1398 4047 
Q 1172 3844 1172 3481 
z
" transform="scale(0.015625)"/>
       </defs>
       <use xlink:href="#DejaVuSans-30"/>
       <use xlink:href="#DejaVuSans-2e" x="63.623047"/>
       <use xlink:href="#DejaVuSans-38" x="95.410156"/>
      </g>
     </g>
    </g>
    <g id="xtick_6">
     <g id="line2d_6">
      <g>
       <use xlink:href="#m4194bb8954" x="498.109091" y="384.48" style="stroke: #000000; stroke-width: 0.8"/>
      </g>
     </g>
     <g id="text_6">
      <!-- 1.0 -->
      <g transform="translate(490.157528 399.078438) scale(0.1 -0.1)">
       <defs>
        <path id="DejaVuSans-31" d="M 794 531 
L 1825 531 
L 1825 4091 
L 703 3866 
L 703 4441 
L 1819 4666 
L 2450 4666 
L 2450 531 
L 3481 531 
L 3481 0 
L 794 0 
L 794 531 
z
" transform="scale(0.015625)"/>
       </defs>
       <use xlink:href="#DejaVuSans-31"/>
       <use xlink:href="#DejaVuSans-2e" x="63.623047"/>
       <use xlink:href="#DejaVuSans-30" x="95.410156"/>
      </g>
     </g>
    </g>
   </g>
   <g id="matplotlib.axis_2">
    <g id="ytick_1">
     <g id="line2d_7">
      <defs>
       <path id="m69e517de44" d="M 0 0 
L -3.5 0 
" style="stroke: #000000; stroke-width: 0.8"/>
      </defs>
      <g>
       <use xlink:href="#m69e517de44" x="72" y="369.36" style="stroke: #000000; stroke-width: 0.8"/>
      </g>
     </g>
     <g id="text_7">
      <!-- −5.0 -->
      <g transform="translate(40.717187 373.159219) scale(0.1 -0.1)">
       <defs>
        <path id="DejaVuSans-2212" d="M 678 2272 
L 4684 2272 
L 4684 1741 
L 678 1741 
L 678 2272 
z
" transform="scale(0.015625)"/>
        <path id="DejaVuSans-35" d="M 691 4666 
L 3169 4666 
L 3169 4134 
L 1269 4134 
L 1269 2991 
Q 1406 3038 1543 3061 
Q 1681 3084 1819 3084 
Q 2600 3084 3056 2656 
Q 3513 2228 3513 1497 
Q 3513 744 3044 326 
Q 2575 -91 1722 -91 
Q 1428 -91 1123 -41 
Q 819 9 494 109 
L 494 744 
Q 775 591 1075 516 
Q 1375 441 1709 441 
Q 2250 441 2565 725 
Q 2881 1009 2881 1497 
Q 2881 1984 2565 2268 
Q 2250 2553 1709 2553 
Q 1456 2553 1204 2497 
Q 953 2441 691 2322 
L 691 4666 
z
" transform="scale(0.015625)"/>
       </defs>
       <use xlink:href="#DejaVuSans-2212"/>
       <use xlink:href="#DejaVuSans-35" x="83.789062"/>
       <use xlink:href="#DejaVuSans-2e" x="147.412109"/>
       <use xlink:href="#DejaVuSans-30" x="179.199219"/>
      </g>
     </g>
    </g>
    <g id="ytick_2">
     <g id="line2d_8">
      <g>
       <use xlink:href="#m69e517de44" x="72" y="331.56" style="stroke: #000000; stroke-width: 0.8"/>
      </g>
     </g>
     <g id="text_8">
      <!-- −2.5 -->
      <g transform="translate(40.717187 335.359219) scale(0.1 -0.1)">
       <use xlink:href="#DejaVuSans-2212"/>
       <use xlink:href="#DejaVuSans-32" x="83.789062"/>
       <use xlink:href="#DejaVuSans-2e" x="147.412109"/>
       <use xlink:href="#DejaVuSans-35" x="179.199219"/>
      </g>
     </g>
    </g>
    <g id="ytick_3">
     <g id="line2d_9">
      <g>
       <use xlink:href="#m69e517de44" x="72" y="293.76" style="stroke: #000000; stroke-width: 0.8"/>
      </g>
     </g>
     <g id="text_9">
      <!-- 0.0 -->
      <g transform="translate(49.096875 297.559219) scale(0.1 -0.1)">
       <use xlink:href="#DejaVuSans-30"/>
       <use xlink:href="#DejaVuSans-2e" x="63.623047"/>
       <use xlink:href="#DejaVuSans-30" x="95.410156"/>
      </g>
     </g>
    </g>
    <g id="ytick_4">
     <g id="line2d_10">
      <g>
       <use xlink:href="#m69e517de44" x="72" y="255.96" style="stroke: #000000; stroke-width: 0.8"/>
      </g>
     </g>
     <g id="text_10">
      <!-- 2.5 -->
      <g transform="translate(49.096875 259.759219) scale(0.1 -0.1)">
       <use xlink:href="#DejaVuSans-32"/>
       <use xlink:href="#DejaVuSans-2e" x="63.623047"/>
       <use xlink:href="#DejaVuSans-35" x="95.410156"/>
      </g>
     </g>
    </g>
    <g id="ytick_5">
     <g id="line2d_11">
      <g>
       <use xlink:href="#m69e517de44" x="72" y="218.16" style="stroke: #000000; stroke-width: 0.8"/>
      </g>
     </g>
     <g id="text_11">
      <!-- 5.0 -->
      <g transform="translate(49.096875 221.959219) scale(0.1 -0.1)">
       <use xlink:href="#DejaVuSans-35"/>
       <use xlink:href="#DejaVuSans-2e" x="63.623047"/>
       <use xlink:href="#DejaVuSans-30" x="95.410156"/>
      </g>
     </g>
    </g>
    <g id="ytick_6">
     <g id="line2d_12">
      <g>
       <use xlink:href="#m69e517de44" x="72" y="180.36" style="stroke: #000000; stroke-width: 0.8"/>
      </g>
     </g>
     <g id="text_12">
      <!-- 7.5 -->
      <g transform="translate(49.096875 184.159219) scale(0.1 -0.1)">
       <defs>
        <path id="DejaVuSans-37" d="M 525 4666 
L 3525 4666 
L 3525 4397 
L 1831 0 
L 1172 0 
L 2766 4134 
L 525 4134 
L 525 4666 
z
" transform="scale(0.015625)"/>
       </defs>
       <use xlink:href="#DejaVuSans-37"/>
       <use xlink:href="#DejaVuSans-2e" x="63.623047"/>
       <use xlink:href="#DejaVuSans-35" x="95.410156"/>
      </g>
     </g>
    </g>
    <g id="ytick_7">
     <g id="line2d_13">
      <g>
       <use xlink:href="#m69e517de44" x="72" y="142.56" style="stroke: #000000; stroke-width: 0.8"/>
      </g>
     </g>
     <g id="text_13">
      <!-- 10.0 -->
      <g transform="translate(42.734375 146.359219) scale(0.1 -0.1)">
       <use xlink:href="#DejaVuSans-31"/>
       <use xlink:href="#DejaVuSans-30" x="63.623047"/>
       <use xlink:href="#DejaVuSans-2e" x="127.246094"/>
       <use xlink:href="#DejaVuSans-30" x="159.033203"/>
      </g>
     </g>
    </g>
    <g id="ytick_8">
     <g id="line2d_14">
      <g>
       <use xlink:href="#m69e517de44" x="72" y="104.76" style="stroke: #000000; stroke-width: 0.8"/>
      </g>
     </g>
     <g id="text_14">
      <!-- 12.5 -->
      <g transform="translate(42.734375 108.559219) scale(0.1 -0.1)">
       <use xlink:href="#DejaVuSans-31"/>
       <use xlink:href="#DejaVuSans-32" x="63.623047"/>
       <use xlink:href="#DejaVuSans-2e" x="127.246094"/>
       <use xlink:href="#DejaVuSans-35" x="159.033203"/>
      </g>
     </g>
    </g>
    <g id="ytick_9">
     <g id="line2d_15">
      <g>
       <use xlink:href="#m69e517de44" x="72" y="66.96" style="stroke: #000000; stroke-width: 0.8"/>
      </g>
     </g>
     <g id="text_15">
      <!-- 15.0 -->
      <g transform="translate(42.734375 70.759219) scale(0.1 -0.1)">
       <use xlink:href="#DejaVuSans-31"/>
       <use xlink:href="#DejaVuSans-35" x="63.623047"/>
       <use xlink:href="#DejaVuSans-2e" x="127.246094"/>
       <use xlink:href="#DejaVuSans-30" x="159.033203"/>
      </g>
     </g>
    </g>
   </g>
   <g id="line2d_16">
    <path d="M 92.290909 355.21524 
L 96.349091 355.209192 
L 100.407273 355.194072 
L 104.465455 355.16988 
L 108.523636 355.135104 
L 112.581818 355.089744 
L 116.64 355.035312 
L 120.698182 354.970296 
L 124.756364 354.894696 
L 128.814545 354.810024 
L 132.872727 354.71628 
L 136.930909 354.611952 
L 140.989091 354.498552 
L 145.047273 354.374568 
L 149.105455 354.241512 
L 153.163636 354.099384 
L 157.221818 353.948184 
L 161.28 353.7864 
L 165.338182 353.617056 
L 169.396364 353.437128 
L 173.454545 353.248128 
L 177.512727 353.051568 
L 181.570909 352.845936 
L 185.629091 352.631232 
L 189.687273 352.407456 
L 193.745455 352.17612 
L 197.803636 351.937224 
L 201.861818 351.689256 
L 205.92 351.433728 
L 209.978182 351.172152 
L 214.036364 350.901504 
L 218.094545 350.623296 
L 222.152727 350.340552 
L 226.210909 350.048736 
L 230.269091 349.752384 
L 234.327273 349.448472 
L 238.385455 349.140024 
L 242.443636 348.825528 
L 246.501818 348.504984 
L 250.56 348.179904 
L 254.618182 347.8518 
L 258.676364 347.517648 
L 262.734545 347.181984 
L 266.792727 346.841784 
L 270.850909 346.49856 
L 274.909091 346.152312 
L 278.967273 345.806064 
L 283.025455 345.456792 
L 287.083636 345.10752 
L 291.141818 344.758248 
L 295.2 344.408976 
L 299.258182 344.059704 
L 303.316364 343.711944 
L 307.374545 343.367208 
L 311.432727 343.025496 
L 315.490909 342.685296 
L 319.549091 342.349632 
L 323.607273 342.018504 
L 327.665455 341.693424 
L 331.723636 341.37288 
L 335.781818 341.059896 
L 339.84 340.754472 
L 343.898182 340.455096 
L 347.956364 340.164792 
L 352.014545 339.88356 
L 356.072727 339.6114 
L 360.130909 339.348312 
L 364.189091 339.095808 
L 368.247273 338.8554 
L 372.305455 338.624064 
L 376.363636 338.403312 
L 380.421818 338.194656 
L 384.48 337.996584 
L 388.538182 337.810608 
L 392.596364 337.635216 
L 396.654545 337.470408 
L 400.712727 337.317696 
L 404.770909 337.175568 
L 408.829091 337.044024 
L 412.887273 336.921552 
L 416.945455 336.809664 
L 421.003636 336.706848 
L 425.061818 336.611592 
L 429.12 336.52692 
L 433.178182 336.448296 
L 437.236364 336.378744 
L 441.294545 336.31524 
L 445.352727 336.259296 
L 449.410909 336.2094 
L 453.469091 336.16404 
L 457.527273 336.12624 
L 461.585455 336.091464 
L 465.643636 336.061224 
L 469.701818 336.037032 
L 473.76 336.014352 
L 477.818182 335.99772 
L 481.876364 335.9826 
L 485.934545 335.972016 
L 489.992727 335.964456 
L 494.050909 335.95992 
L 498.109091 335.958408 
" clip-path="url(#p93791c23d4)" style="fill: none; stroke: #000000; stroke-opacity: 0.5; stroke-linecap: square"/>
   </g>
   <g id="line2d_17">
    <path d="M 92.290909 276.84828 
L 96.349091 276.872472 
L 100.407273 276.94656 
L 104.465455 277.06752 
L 108.523636 277.235352 
L 112.581818 277.448544 
L 116.64 277.705584 
L 120.698182 278.003448 
L 124.756364 278.339112 
L 128.814545 278.711064 
L 132.872727 279.114768 
L 136.930909 279.550224 
L 140.989091 280.012896 
L 145.047273 280.49976 
L 149.105455 281.009304 
L 153.163636 281.540016 
L 157.221818 282.08736 
L 161.28 282.649824 
L 165.338182 283.225896 
L 169.396364 283.812552 
L 173.454545 284.40828 
L 177.512727 285.01308 
L 181.570909 285.622416 
L 185.629091 286.2378 
L 189.687273 286.856208 
L 193.745455 287.476128 
L 197.803636 288.096048 
L 201.861818 288.71748 
L 205.92 289.335888 
L 209.978182 289.951272 
L 214.036364 290.563632 
L 218.094545 291.172968 
L 222.152727 291.776256 
L 226.210909 292.371984 
L 230.269091 292.963176 
L 234.327273 293.545296 
L 238.385455 294.119856 
L 242.443636 294.685344 
L 246.501818 295.24176 
L 250.56 295.787592 
L 254.618182 296.321328 
L 258.676364 296.84448 
L 262.734545 297.357048 
L 266.792727 297.854496 
L 270.850909 298.339848 
L 274.909091 298.811592 
L 278.967273 299.268216 
L 283.025455 299.711232 
L 287.083636 300.137616 
L 291.141818 300.54888 
L 295.2 300.942 
L 299.258182 301.32 
L 303.316364 301.678344 
L 307.374545 302.020056 
L 311.432727 302.342112 
L 315.490909 302.646024 
L 319.549091 302.928768 
L 323.607273 303.193368 
L 327.665455 303.4368 
L 331.723636 303.659064 
L 335.781818 303.86016 
L 339.84 304.038576 
L 343.898182 304.197336 
L 347.956364 304.333416 
L 352.014545 304.446816 
L 356.072727 304.539048 
L 360.130909 304.6086 
L 364.189091 304.655472 
L 368.247273 304.681176 
L 372.305455 304.685712 
L 376.363636 304.66908 
L 380.421818 304.632792 
L 384.48 304.576848 
L 388.538182 304.501248 
L 392.596364 304.407504 
L 396.654545 304.297128 
L 400.712727 304.17012 
L 404.770909 304.029504 
L 408.829091 303.873768 
L 412.887273 303.707448 
L 416.945455 303.532056 
L 421.003636 303.34608 
L 425.061818 303.155568 
L 429.12 302.957496 
L 433.178182 302.757912 
L 437.236364 302.556816 
L 441.294545 302.357232 
L 445.352727 302.15916 
L 449.410909 301.965624 
L 453.469091 301.779648 
L 457.527273 301.602744 
L 461.585455 301.434912 
L 465.643636 301.280688 
L 469.701818 301.13856 
L 473.76 301.013064 
L 477.818182 300.9042 
L 481.876364 300.81348 
L 485.934545 300.740904 
L 489.992727 300.689496 
L 494.050909 300.657744 
L 498.109091 300.64716 
" clip-path="url(#p93791c23d4)" style="fill: none; stroke: #000000; stroke-opacity: 0.5; stroke-linecap: square"/>
   </g>
   <g id="line2d_18">
    <path d="M 92.290909 246.387528 
L 96.349091 246.37392 
L 100.407273 246.333096 
L 104.465455 246.266568 
L 108.523636 246.174336 
L 112.581818 246.059424 
L 116.64 245.923344 
L 120.698182 245.770632 
L 124.756364 245.604312 
L 128.814545 245.425896 
L 132.872727 245.23992 
L 136.930909 245.05092 
L 140.989091 244.860408 
L 145.047273 244.67292 
L 149.105455 244.49148 
L 153.163636 244.319112 
L 157.221818 244.15884 
L 161.28 244.0152 
L 165.338182 243.88668 
L 169.396364 243.779328 
L 173.454545 243.693144 
L 177.512727 243.62964 
L 181.570909 243.588816 
L 185.629091 243.573696 
L 189.687273 243.58428 
L 193.745455 243.619056 
L 197.803636 243.678024 
L 201.861818 243.762696 
L 205.92 243.873072 
L 209.978182 244.004616 
L 214.036364 244.160352 
L 218.094545 244.337256 
L 222.152727 244.535328 
L 226.210909 244.751544 
L 230.269091 244.987416 
L 234.327273 245.23992 
L 238.385455 245.509056 
L 242.443636 245.7918 
L 246.501818 246.088152 
L 250.56 246.398112 
L 254.618182 246.717144 
L 258.676364 247.048272 
L 262.734545 247.38696 
L 266.792727 247.73472 
L 270.850909 248.088528 
L 274.909091 248.448384 
L 278.967273 248.812776 
L 283.025455 249.181704 
L 287.083636 249.553656 
L 291.141818 249.92712 
L 295.2 250.303608 
L 299.258182 250.680096 
L 303.316364 251.056584 
L 307.374545 251.433072 
L 311.432727 251.808048 
L 315.490909 252.18 
L 319.549091 252.551952 
L 323.607273 252.919368 
L 327.665455 253.285272 
L 331.723636 253.645128 
L 335.781818 254.00196 
L 339.84 254.354256 
L 343.898182 254.702016 
L 347.956364 255.043728 
L 352.014545 255.379392 
L 356.072727 255.71052 
L 360.130909 256.034088 
L 364.189091 256.350096 
L 368.247273 256.660056 
L 372.305455 256.963968 
L 376.363636 257.258808 
L 380.421818 257.546088 
L 384.48 257.82732 
L 388.538182 258.09948 
L 392.596364 258.362568 
L 396.654545 258.618096 
L 400.712727 258.864552 
L 404.770909 259.101936 
L 408.829091 259.33176 
L 412.887273 259.551 
L 416.945455 259.76268 
L 421.003636 259.963776 
L 425.061818 260.157312 
L 429.12 260.338752 
L 433.178182 260.512632 
L 437.236364 260.675928 
L 441.294545 260.82864 
L 445.352727 260.97228 
L 449.410909 261.106848 
L 453.469091 261.22932 
L 457.527273 261.34272 
L 461.585455 261.445536 
L 465.643636 261.537768 
L 469.701818 261.619416 
L 473.76 261.69048 
L 477.818182 261.749448 
L 481.876364 261.799344 
L 485.934545 261.838656 
L 489.992727 261.865872 
L 494.050909 261.882504 
L 498.109091 261.88704 
" clip-path="url(#p93791c23d4)" style="fill: none; stroke: #000000; stroke-opacity: 0.5; stroke-linecap: square"/>
   </g>
   <g id="line2d_19">
    <path d="M 92.290909 235.345392 
L 96.349091 235.342368 
L 100.407273 235.330272 
L 104.465455 235.312128 
L 108.523636 235.284912 
L 112.581818 235.251648 
L 116.64 235.209312 
L 120.698182 235.160928 
L 124.756364 235.103472 
L 128.814545 235.038456 
L 132.872727 234.96588 
L 136.930909 234.884232 
L 140.989091 234.795024 
L 145.047273 234.696744 
L 149.105455 234.590904 
L 153.163636 234.475992 
L 157.221818 234.352008 
L 161.28 234.218952 
L 165.338182 234.078336 
L 169.396364 233.928648 
L 173.454545 233.769888 
L 177.512727 233.603568 
L 181.570909 233.428176 
L 185.629091 233.246736 
L 189.687273 233.056224 
L 193.745455 232.861176 
L 197.803636 232.658568 
L 201.861818 232.452936 
L 205.92 232.241256 
L 209.978182 232.026552 
L 214.036364 231.808824 
L 218.094545 231.591096 
L 222.152727 231.370344 
L 226.210909 231.149592 
L 230.269091 230.930352 
L 234.327273 230.712624 
L 238.385455 230.499432 
L 242.443636 230.287752 
L 246.501818 230.08212 
L 250.56 229.882536 
L 254.618182 229.690512 
L 258.676364 229.50756 
L 262.734545 229.33368 
L 266.792727 229.171896 
L 270.850909 229.022208 
L 274.909091 228.88764 
L 278.967273 228.768192 
L 283.025455 228.665376 
L 287.083636 228.582216 
L 291.141818 228.520224 
L 295.2 228.4794 
L 299.258182 228.462768 
L 303.316364 228.470328 
L 307.374545 228.506616 
L 311.432727 228.57012 
L 315.490909 228.663864 
L 319.549091 228.787848 
L 323.607273 228.945096 
L 327.665455 229.132584 
L 331.723636 229.354848 
L 335.781818 229.610376 
L 339.84 229.899168 
L 343.898182 230.219712 
L 347.956364 230.575032 
L 352.014545 230.960592 
L 356.072727 231.376392 
L 360.130909 231.822432 
L 364.189091 232.295688 
L 368.247273 232.793136 
L 372.305455 233.316288 
L 376.363636 233.859096 
L 380.421818 234.42156 
L 384.48 235.000656 
L 388.538182 235.59336 
L 392.596364 236.19816 
L 396.654545 236.81052 
L 400.712727 237.427416 
L 404.770909 238.048848 
L 408.829091 238.67028 
L 412.887273 239.288688 
L 416.945455 239.901048 
L 421.003636 240.50736 
L 425.061818 241.101576 
L 429.12 241.682184 
L 433.178182 242.247672 
L 437.236364 242.793504 
L 441.294545 243.318168 
L 445.352727 243.81864 
L 449.410909 244.29492 
L 453.469091 244.74096 
L 457.527273 245.158272 
L 461.585455 245.54232 
L 465.643636 245.89008 
L 469.701818 246.203064 
L 473.76 246.478248 
L 477.818182 246.712608 
L 481.876364 246.906144 
L 485.934545 247.058856 
L 489.992727 247.16772 
L 494.050909 247.234248 
L 498.109091 247.255416 
" clip-path="url(#p93791c23d4)" style="fill: none; stroke: #000000; stroke-opacity: 0.5; stroke-linecap: square"/>
   </g>
   <g id="line2d_20">
    <path d="M 92.290909 176.112792 
L 96.349091 176.130936 
L 100.407273 176.185368 
L 104.465455 176.271552 
L 108.523636 176.386464 
L 112.581818 176.524056 
L 116.64 176.675256 
L 120.698182 176.835528 
L 124.756364 176.9958 
L 128.814545 177.150024 
L 132.872727 177.292152 
L 136.930909 177.417648 
L 140.989091 177.518952 
L 145.047273 177.59304 
L 149.105455 177.635376 
L 153.163636 177.642936 
L 157.221818 177.611184 
L 161.28 177.538608 
L 165.338182 177.423696 
L 169.396364 177.261912 
L 173.454545 177.054768 
L 177.512727 176.79924 
L 181.570909 176.495328 
L 185.629091 176.143032 
L 189.687273 175.74084 
L 193.745455 175.290264 
L 197.803636 174.791304 
L 201.861818 174.24396 
L 205.92 173.651256 
L 209.978182 173.01168 
L 214.036364 172.326744 
L 218.094545 171.600984 
L 222.152727 170.8344 
L 226.210909 170.028504 
L 230.269091 169.187832 
L 234.327273 168.31692 
L 238.385455 167.41728 
L 242.443636 166.497984 
L 246.501818 165.569616 
L 250.56 164.645784 
L 254.618182 163.755216 
L 258.676364 162.947808 
L 262.734545 162.315792 
L 266.792727 161.99676 
L 270.850909 162.093528 
L 274.909091 162.557712 
L 278.967273 163.248696 
L 283.025455 164.050056 
L 287.083636 164.898288 
L 291.141818 165.757104 
L 295.2 166.605336 
L 299.258182 167.429376 
L 303.316364 168.221664 
L 307.374545 168.977664 
L 311.432727 169.689816 
L 315.490909 170.355096 
L 319.549091 170.971992 
L 323.607273 171.53748 
L 327.665455 172.048536 
L 331.723636 172.503648 
L 335.781818 172.902816 
L 339.84 173.244528 
L 343.898182 173.527272 
L 347.956364 173.751048 
L 352.014545 173.917368 
L 356.072727 174.02472 
L 360.130909 174.074616 
L 364.189091 174.068568 
L 368.247273 174.006576 
L 372.305455 173.890152 
L 376.363636 173.719296 
L 380.421818 173.498544 
L 384.48 173.227896 
L 388.538182 172.908864 
L 392.596364 172.54296 
L 396.654545 172.133208 
L 400.712727 171.68112 
L 404.770909 171.186696 
L 408.829091 170.654472 
L 412.887273 170.082936 
L 416.945455 169.476624 
L 421.003636 168.837048 
L 425.061818 168.162696 
L 429.12 167.459616 
L 433.178182 166.726296 
L 437.236364 165.96576 
L 441.294545 165.181032 
L 445.352727 164.3706 
L 449.410909 163.539 
L 453.469091 162.687744 
L 457.527273 161.819856 
L 461.585455 160.93836 
L 465.643636 160.047792 
L 469.701818 159.1542 
L 473.76 158.263632 
L 477.818182 157.391208 
L 481.876364 156.55356 
L 485.934545 155.785464 
L 489.992727 155.136816 
L 494.050909 154.68624 
L 498.109091 154.521432 
" clip-path="url(#p93791c23d4)" style="fill: none; stroke: #000000; stroke-opacity: 0.5; stroke-linecap: square"/>
   </g>
   <g id="line2d_21">
    <path d="M 92.290909 157.545432 
L 96.349091 157.492512 
L 100.407273 157.330728 
L 104.465455 157.066128 
L 108.523636 156.703248 
L 112.581818 156.246624 
L 116.64 155.702304 
L 120.698182 155.077848 
L 124.756364 154.379304 
L 128.814545 153.614232 
L 132.872727 152.787168 
L 136.930909 151.902648 
L 140.989091 150.968232 
L 145.047273 149.985432 
L 149.105455 148.960296 
L 153.163636 147.894336 
L 157.221818 146.790576 
L 161.28 145.65204 
L 165.338182 144.481752 
L 169.396364 143.281224 
L 173.454545 142.051968 
L 177.512727 140.797008 
L 181.570909 139.519368 
L 185.629091 138.222072 
L 189.687273 136.92024 
L 193.745455 135.870912 
L 197.803636 136.720656 
L 201.861818 137.93328 
L 205.92 139.194288 
L 209.978182 140.479488 
L 214.036364 141.778296 
L 218.094545 143.083152 
L 222.152727 144.386496 
L 226.210909 145.686816 
L 230.269091 146.97504 
L 234.327273 148.248144 
L 238.385455 149.50008 
L 242.443636 150.721776 
L 246.501818 151.90416 
L 250.56 153.027576 
L 254.618182 154.06632 
L 258.676364 154.968984 
L 262.734545 155.641824 
L 266.792727 155.947248 
L 270.850909 155.78244 
L 274.909091 155.194272 
L 278.967273 154.321848 
L 283.025455 153.28008 
L 287.083636 152.135496 
L 291.141818 150.919848 
L 295.2 149.654304 
L 299.258182 148.352472 
L 303.316364 147.021912 
L 307.374545 145.670184 
L 311.432727 144.300312 
L 315.490909 142.919856 
L 319.549091 141.537888 
L 323.607273 140.164992 
L 327.665455 138.822336 
L 331.723636 137.550744 
L 335.781818 136.431864 
L 339.84 135.598752 
L 343.898182 135.140616 
L 347.956364 134.98488 
L 352.014545 135.001512 
L 356.072727 135.10584 
L 360.130909 135.255528 
L 364.189091 135.43092 
L 368.247273 135.621432 
L 372.305455 135.821016 
L 376.363636 136.025136 
L 380.421818 136.230768 
L 384.48 136.437912 
L 388.538182 136.645056 
L 392.596364 136.850688 
L 396.654545 137.054808 
L 400.712727 137.257416 
L 404.770909 137.458512 
L 408.829091 137.659608 
L 412.887273 137.859192 
L 416.945455 138.058776 
L 421.003636 138.25836 
L 425.061818 138.46248 
L 429.12 138.672648 
L 433.178182 138.8934 
L 437.236364 139.12776 
L 441.294545 139.3848 
L 445.352727 139.676616 
L 449.410909 140.016816 
L 453.469091 140.425056 
L 457.527273 140.917968 
L 461.585455 141.513696 
L 465.643636 142.210728 
L 469.701818 142.995456 
L 473.76 143.83764 
L 477.818182 144.704016 
L 481.876364 145.556784 
L 485.934545 146.350584 
L 489.992727 147.023424 
L 494.050909 147.490632 
L 498.109091 147.659976 
" clip-path="url(#p93791c23d4)" style="fill: none; stroke: #000000; stroke-opacity: 0.5; stroke-linecap: square"/>
   </g>
   <g id="line2d_22">
    <path d="M 92.290909 127.263096 
L 96.349091 127.26612 
L 100.407273 127.275192 
L 104.465455 127.293336 
L 108.523636 127.317528 
L 112.581818 127.34928 
L 116.64 127.390104 
L 120.698182 127.44 
L 124.756364 127.50048 
L 128.814545 127.573056 
L 132.872727 127.660752 
L 136.930909 127.766592 
L 140.989091 127.892088 
L 145.047273 128.043288 
L 149.105455 128.22624 
L 153.163636 128.448504 
L 157.221818 128.723688 
L 161.28 129.062376 
L 165.338182 129.4812 
L 169.396364 129.998304 
L 173.454545 130.627296 
L 177.512727 131.37876 
L 181.570909 132.246648 
L 185.629091 133.217352 
L 189.687273 134.263656 
L 193.745455 135.110376 
L 197.803636 134.095824 
L 201.861818 132.74712 
L 205.92 131.374224 
L 209.978182 130.011912 
L 214.036364 128.726712 
L 218.094545 127.754496 
L 222.152727 127.4022 
L 226.210909 127.406736 
L 230.269091 127.5156 
L 234.327273 127.662264 
L 238.385455 127.82556 
L 242.443636 127.997928 
L 246.501818 128.177856 
L 250.56 128.363832 
L 254.618182 128.555856 
L 258.676364 128.750904 
L 262.734545 128.952 
L 266.792727 129.15612 
L 270.850909 129.363264 
L 274.909091 129.574944 
L 278.967273 129.789648 
L 283.025455 130.005864 
L 287.083636 130.226616 
L 291.141818 130.447368 
L 295.2 130.66812 
L 299.258182 130.890384 
L 303.316364 131.111136 
L 307.374545 131.327352 
L 311.432727 131.539032 
L 315.490909 131.740128 
L 319.549091 131.927616 
L 323.607273 132.087888 
L 327.665455 132.2028 
L 331.723636 132.231528 
L 335.781818 132.093936 
L 339.84 131.659992 
L 343.898182 130.837464 
L 347.956364 129.70044 
L 352.014545 128.381976 
L 356.072727 126.966744 
L 360.130909 125.495568 
L 364.189091 123.989616 
L 368.247273 122.462496 
L 372.305455 120.920256 
L 376.363636 119.368944 
L 380.421818 117.817632 
L 384.48 116.28144 
L 388.538182 114.855624 
L 392.596364 114.734664 
L 396.654545 116.041032 
L 400.712727 117.469872 
L 404.770909 118.907784 
L 408.829091 120.338136 
L 412.887273 121.75488 
L 416.945455 123.154992 
L 421.003636 124.533936 
L 425.061818 125.8902 
L 429.12 127.22076 
L 433.178182 128.518056 
L 437.236364 129.777552 
L 441.294545 130.988664 
L 445.352727 132.140808 
L 449.410909 133.217352 
L 453.469091 134.197128 
L 457.527273 135.058968 
L 461.585455 135.78624 
L 465.643636 136.372896 
L 469.701818 136.82952 
L 473.76 137.17728 
L 477.818182 137.435832 
L 481.876364 137.626344 
L 485.934545 137.762424 
L 489.992727 137.854656 
L 494.050909 137.906064 
L 498.109091 137.924208 
" clip-path="url(#p93791c23d4)" style="fill: none; stroke: #000000; stroke-opacity: 0.5; stroke-linecap: square"/>
   </g>
   <g id="line2d_23">
    <path d="M 92.290909 105.72768 
L 96.349091 105.804792 
L 100.407273 106.031592 
L 104.465455 106.403544 
L 108.523636 106.908552 
L 112.581818 107.537544 
L 116.64 108.2754 
L 120.698182 109.107 
L 124.756364 110.02176 
L 128.814545 111.003048 
L 132.872727 112.038768 
L 136.930909 113.118336 
L 140.989091 114.229656 
L 145.047273 115.35912 
L 149.105455 116.496144 
L 153.163636 117.625608 
L 157.221818 118.732392 
L 161.28 119.799864 
L 165.338182 120.806856 
L 169.396364 121.733712 
L 173.454545 122.5638 
L 177.512727 123.285024 
L 181.570909 123.895872 
L 185.629091 124.406928 
L 189.687273 124.830288 
L 193.745455 125.185608 
L 197.803636 125.483472 
L 201.861818 125.734464 
L 205.92 125.941608 
L 209.978182 126.092808 
L 214.036364 126.13212 
L 218.094545 125.82972 
L 222.152727 124.881696 
L 226.210909 123.557184 
L 230.269091 122.107176 
L 234.327273 120.604248 
L 238.385455 119.069568 
L 242.443636 117.510696 
L 246.501818 115.932168 
L 250.56 114.337008 
L 254.618182 112.725216 
L 258.676364 111.098304 
L 262.734545 109.457784 
L 266.792727 107.803656 
L 270.850909 106.137432 
L 274.909091 104.459112 
L 278.967273 102.768696 
L 283.025455 101.066184 
L 287.083636 99.3546 
L 291.141818 97.633944 
L 295.2 95.902704 
L 299.258182 94.163904 
L 303.316364 92.420568 
L 307.374545 90.674208 
L 311.432727 88.938432 
L 315.490909 87.267672 
L 319.549091 86.629608 
L 323.607273 87.96924 
L 327.665455 89.514504 
L 331.723636 91.088496 
L 335.781818 92.67156 
L 339.84 94.25916 
L 343.898182 95.845248 
L 347.956364 97.428312 
L 352.014545 99.009864 
L 356.072727 100.585368 
L 360.130909 102.154824 
L 364.189091 103.71672 
L 368.247273 105.269544 
L 372.305455 106.813296 
L 376.363636 108.344952 
L 380.421818 109.858464 
L 384.48 111.340224 
L 388.538182 112.693464 
L 392.596364 112.729752 
L 396.654545 111.32208 
L 400.712727 109.778328 
L 404.770909 108.211896 
L 408.829091 106.639416 
L 412.887273 105.066936 
L 416.945455 103.49748 
L 421.003636 101.935584 
L 425.061818 100.381248 
L 429.12 98.837496 
L 433.178182 97.308864 
L 437.236364 95.796864 
L 441.294545 94.306032 
L 445.352727 92.840904 
L 449.410909 91.40904 
L 453.469091 90.018 
L 457.527273 88.682904 
L 461.585455 87.423408 
L 465.643636 86.29848 
L 469.701818 85.448736 
L 473.76 85.045032 
L 477.818182 84.927096 
L 481.876364 84.901392 
L 485.934545 84.902904 
L 489.992727 84.910464 
L 494.050909 84.916512 
L 498.109091 84.919536 
" clip-path="url(#p93791c23d4)" style="fill: none; stroke: #000000; stroke-opacity: 0.5; stroke-linecap: square"/>
   </g>
   <g id="patch_3">
    <path d="M 72 384.48 
L 72 51.84 
" style="fill: none; stroke: #000000; stroke-width: 0.8; stroke-linejoin: miter; stroke-linecap: square"/>
   </g>
   <g id="patch_4">
    <path d="M 518.4 384.48 
L 518.4 51.84 
" style="fill: none; stroke: #000000; stroke-width: 0.8; stroke-linejoin: miter; stroke-linecap: square"/>
   </g>
   <g id="patch_5">
    <path d="M 72 384.48 
L 518.4 384.48 
" style="fill: none; stroke: #000000; stroke-width: 0.8; stroke-linejoin: miter; stroke-linecap: square"/>
   </g>
   <g id="patch_6">
    <path d="M 72 51.84 
L 518.4 51.84 
" style="fill: none; stroke: #000000; stroke-width: 0.8; stroke-linejoin: miter; stroke-linecap: square"/>
   </g>
  </g>
 </g>
 <defs>
  <clipPath id="p93791c23d4">
   <rect x="72" y="51.84" width="446.4" height="332.64"/>
  </clipPath>
 </defs>
</svg>
