<?xml version="1.0" encoding="utf-8" standalone="no"?>
<!DOCTYPE svg PUBLIC "-//W3C//DTD SVG 1.1//EN"
  "http://www.w3.org/Graphics/SVG/1.1/DTD/svg11.dtd">
<svg xmlns:xlink="http://www.w3.org/1999/xlink" width="576pt" height="432pt" viewBox="0 0 576 432" xmlns="http://www.w3.org/2000/svg" version="1.1">
 <metadata>
  <rdf:RDF xmlns:dc="http://purl.org/dc/elements/1.1/" xmlns:cc="http://creativecommons.org/ns#" xmlns:rdf="http://www.w3.org/1999/02/22-rdf-syntax-ns#">
   <cc:Work>
    <dc:type rdf:resource="http://purl.org/dc/dcmitype/StillImage"/>
    <dc:date>2023-05-03T05:02:43.868878</dc:date>
    <dc:format>image/svg+xml</dc:format>
    <dc:creator>
     <cc:Agent>
      <dc:title>Matplotlib v3.7.1, https://matplotlib.org/</dc:title>
     </cc:Agent>
    </dc:creator>
   </cc:Work>
  </rdf:RDF>
 </metadata>
 <defs>
  <style type="text/css">*{stroke-linejoin: round; stroke-linecap: butt}</style>
 </defs>
 <g id="figure_1">
  <g id="patch_1">
   <path d="M 0 432 
L 576 432 
L 576 0 
L 0 0 
z
" style="fill: #ffffff"/>
  </g>
  <g id="axes_1">
   <g id="patch_2">
    <path d="M 72 384.48 
L 518.4 384.48 
L 518.4 51.84 
L 72 51.84 
z
" style="fill: #ffffff"/>
   </g>
   <g id="matplotlib.axis_1">
    <g id="xtick_1">
     <g id="line2d_1">
      <defs>
       <path id="m4fc2d38ac8" d="M 0 0 
L 0 3.5 
" style="stroke: #000000; stroke-width: 0.8"/>
      </defs>
      <g>
       <use xlink:href="#m4fc2d38ac8" x="92.290909" y="384.48" style="stroke: #000000; stroke-width: 0.8"/>
      </g>
     </g>
     <g id="text_1">
      <!-- 0.0 -->
      <g transform="translate(84.339347 399.078438) scale(0.1 -0.1)">
       <defs>
        <path id="DejaVuSans-30" d="M 2034 4250 
Q 1547 4250 1301 3770 
Q 1056 3291 1056 2328 
Q 1056 1369 1301 889 
Q 1547 409 2034 409 
Q 2525 409 2770 889 
Q 3016 1369 3016 2328 
Q 3016 3291 2770 3770 
Q 2525 4250 2034 4250 
z
M 2034 4750 
Q 2819 4750 3233 4129 
Q 3647 3509 3647 2328 
Q 3647 1150 3233 529 
Q 2819 -91 2034 -91 
Q 1250 -91 836 529 
Q 422 1150 422 2328 
Q 422 3509 836 4129 
Q 1250 4750 2034 4750 
z
" transform="scale(0.015625)"/>
        <path id="DejaVuSans-2e" d="M 684 794 
L 1344 794 
L 1344 0 
L 684 0 
L 684 794 
z
" transform="scale(0.015625)"/>
       </defs>
       <use xlink:href="#DejaVuSans-30"/>
       <use xlink:href="#DejaVuSans-2e" x="63.623047"/>
       <use xlink:href="#DejaVuSans-30" x="95.410156"/>
      </g>
     </g>
    </g>
    <g id="xtick_2">
     <g id="line2d_2">
      <g>
       <use xlink:href="#m4fc2d38ac8" x="173.454545" y="384.48" style="stroke: #000000; stroke-width: 0.8"/>
      </g>
     </g>
     <g id="text_2">
      <!-- 0.2 -->
      <g transform="translate(165.502983 399.078438) scale(0.1 -0.1)">
       <defs>
        <path id="DejaVuSans-32" d="M 1228 531 
L 3431 531 
L 3431 0 
L 469 0 
L 469 531 
Q 828 903 1448 1529 
Q 2069 2156 2228 2338 
Q 2531 2678 2651 2914 
Q 2772 3150 2772 3378 
Q 2772 3750 2511 3984 
Q 2250 4219 1831 4219 
Q 1534 4219 1204 4116 
Q 875 4013 500 3803 
L 500 4441 
Q 881 4594 1212 4672 
Q 1544 4750 1819 4750 
Q 2544 4750 2975 4387 
Q 3406 4025 3406 3419 
Q 3406 3131 3298 2873 
Q 3191 2616 2906 2266 
Q 2828 2175 2409 1742 
Q 1991 1309 1228 531 
z
" transform="scale(0.015625)"/>
       </defs>
       <use xlink:href="#DejaVuSans-30"/>
       <use xlink:href="#DejaVuSans-2e" x="63.623047"/>
       <use xlink:href="#DejaVuSans-32" x="95.410156"/>
      </g>
     </g>
    </g>
    <g id="xtick_3">
     <g id="line2d_3">
      <g>
       <use xlink:href="#m4fc2d38ac8" x="254.618182" y="384.48" style="stroke: #000000; stroke-width: 0.8"/>
      </g>
     </g>
     <g id="text_3">
      <!-- 0.4 -->
      <g transform="translate(246.666619 399.078438) scale(0.1 -0.1)">
       <defs>
        <path id="DejaVuSans-34" d="M 2419 4116 
L 825 1625 
L 2419 1625 
L 2419 4116 
z
M 2253 4666 
L 3047 4666 
L 3047 1625 
L 3713 1625 
L 3713 1100 
L 3047 1100 
L 3047 0 
L 2419 0 
L 2419 1100 
L 313 1100 
L 313 1709 
L 2253 4666 
z
" transform="scale(0.015625)"/>
       </defs>
       <use xlink:href="#DejaVuSans-30"/>
       <use xlink:href="#DejaVuSans-2e" x="63.623047"/>
       <use xlink:href="#DejaVuSans-34" x="95.410156"/>
      </g>
     </g>
    </g>
    <g id="xtick_4">
     <g id="line2d_4">
      <g>
       <use xlink:href="#m4fc2d38ac8" x="335.781818" y="384.48" style="stroke: #000000; stroke-width: 0.8"/>
      </g>
     </g>
     <g id="text_4">
      <!-- 0.6 -->
      <g transform="translate(327.830256 399.078438) scale(0.1 -0.1)">
       <defs>
        <path id="DejaVuSans-36" d="M 2113 2584 
Q 1688 2584 1439 2293 
Q 1191 2003 1191 1497 
Q 1191 994 1439 701 
Q 1688 409 2113 409 
Q 2538 409 2786 701 
Q 3034 994 3034 1497 
Q 3034 2003 2786 2293 
Q 2538 2584 2113 2584 
z
M 3366 4563 
L 3366 3988 
Q 3128 4100 2886 4159 
Q 2644 4219 2406 4219 
Q 1781 4219 1451 3797 
Q 1122 3375 1075 2522 
Q 1259 2794 1537 2939 
Q 1816 3084 2150 3084 
Q 2853 3084 3261 2657 
Q 3669 2231 3669 1497 
Q 3669 778 3244 343 
Q 2819 -91 2113 -91 
Q 1303 -91 875 529 
Q 447 1150 447 2328 
Q 447 3434 972 4092 
Q 1497 4750 2381 4750 
Q 2619 4750 2861 4703 
Q 3103 4656 3366 4563 
z
" transform="scale(0.015625)"/>
       </defs>
       <use xlink:href="#DejaVuSans-30"/>
       <use xlink:href="#DejaVuSans-2e" x="63.623047"/>
       <use xlink:href="#DejaVuSans-36" x="95.410156"/>
      </g>
     </g>
    </g>
    <g id="xtick_5">
     <g id="line2d_5">
      <g>
       <use xlink:href="#m4fc2d38ac8" x="416.945455" y="384.48" style="stroke: #000000; stroke-width: 0.8"/>
      </g>
     </g>
     <g id="text_5">
      <!-- 0.8 -->
      <g transform="translate(408.993892 399.078438) scale(0.1 -0.1)">
       <defs>
        <path id="DejaVuSans-38" d="M 2034 2216 
Q 1584 2216 1326 1975 
Q 1069 1734 1069 1313 
Q 1069 891 1326 650 
Q 1584 409 2034 409 
Q 2484 409 2743 651 
Q 3003 894 3003 1313 
Q 3003 1734 2745 1975 
Q 2488 2216 2034 2216 
z
M 1403 2484 
Q 997 2584 770 2862 
Q 544 3141 544 3541 
Q 544 4100 942 4425 
Q 1341 4750 2034 4750 
Q 2731 4750 3128 4425 
Q 3525 4100 3525 3541 
Q 3525 3141 3298 2862 
Q 3072 2584 2669 2484 
Q 3125 2378 3379 2068 
Q 3634 1759 3634 1313 
Q 3634 634 3220 271 
Q 2806 -91 2034 -91 
Q 1263 -91 848 271 
Q 434 634 434 1313 
Q 434 1759 690 2068 
Q 947 2378 1403 2484 
z
M 1172 3481 
Q 1172 3119 1398 2916 
Q 1625 2713 2034 2713 
Q 2441 2713 2670 2916 
Q 2900 3119 2900 3481 
Q 2900 3844 2670 4047 
Q 2441 4250 2034 4250 
Q 1625 4250 1398 4047 
Q 1172 3844 1172 3481 
z
" transform="scale(0.015625)"/>
       </defs>
       <use xlink:href="#DejaVuSans-30"/>
       <use xlink:href="#DejaVuSans-2e" x="63.623047"/>
       <use xlink:href="#DejaVuSans-38" x="95.410156"/>
      </g>
     </g>
    </g>
    <g id="xtick_6">
     <g id="line2d_6">
      <g>
       <use xlink:href="#m4fc2d38ac8" x="498.109091" y="384.48" style="stroke: #000000; stroke-width: 0.8"/>
      </g>
     </g>
     <g id="text_6">
      <!-- 1.0 -->
      <g transform="translate(490.157528 399.078438) scale(0.1 -0.1)">
       <defs>
        <path id="DejaVuSans-31" d="M 794 531 
L 1825 531 
L 1825 4091 
L 703 3866 
L 703 4441 
L 1819 4666 
L 2450 4666 
L 2450 531 
L 3481 531 
L 3481 0 
L 794 0 
L 794 531 
z
" transform="scale(0.015625)"/>
       </defs>
       <use xlink:href="#DejaVuSans-31"/>
       <use xlink:href="#DejaVuSans-2e" x="63.623047"/>
       <use xlink:href="#DejaVuSans-30" x="95.410156"/>
      </g>
     </g>
    </g>
   </g>
   <g id="matplotlib.axis_2">
    <g id="ytick_1">
     <g id="line2d_7">
      <defs>
       <path id="m626e1c4f79" d="M 0 0 
L -3.5 0 
" style="stroke: #000000; stroke-width: 0.8"/>
      </defs>
      <g>
       <use xlink:href="#m626e1c4f79" x="72" y="369.36" style="stroke: #000000; stroke-width: 0.8"/>
      </g>
     </g>
     <g id="text_7">
      <!-- −5.0 -->
      <g transform="translate(40.717187 373.159219) scale(0.1 -0.1)">
       <defs>
        <path id="DejaVuSans-2212" d="M 678 2272 
L 4684 2272 
L 4684 1741 
L 678 1741 
L 678 2272 
z
" transform="scale(0.015625)"/>
        <path id="DejaVuSans-35" d="M 691 4666 
L 3169 4666 
L 3169 4134 
L 1269 4134 
L 1269 2991 
Q 1406 3038 1543 3061 
Q 1681 3084 1819 3084 
Q 2600 3084 3056 2656 
Q 3513 2228 3513 1497 
Q 3513 744 3044 326 
Q 2575 -91 1722 -91 
Q 1428 -91 1123 -41 
Q 819 9 494 109 
L 494 744 
Q 775 591 1075 516 
Q 1375 441 1709 441 
Q 2250 441 2565 725 
Q 2881 1009 2881 1497 
Q 2881 1984 2565 2268 
Q 2250 2553 1709 2553 
Q 1456 2553 1204 2497 
Q 953 2441 691 2322 
L 691 4666 
z
" transform="scale(0.015625)"/>
       </defs>
       <use xlink:href="#DejaVuSans-2212"/>
       <use xlink:href="#DejaVuSans-35" x="83.789062"/>
       <use xlink:href="#DejaVuSans-2e" x="147.412109"/>
       <use xlink:href="#DejaVuSans-30" x="179.199219"/>
      </g>
     </g>
    </g>
    <g id="ytick_2">
     <g id="line2d_8">
      <g>
       <use xlink:href="#m626e1c4f79" x="72" y="331.56" style="stroke: #000000; stroke-width: 0.8"/>
      </g>
     </g>
     <g id="text_8">
      <!-- −2.5 -->
      <g transform="translate(40.717187 335.359219) scale(0.1 -0.1)">
       <use xlink:href="#DejaVuSans-2212"/>
       <use xlink:href="#DejaVuSans-32" x="83.789062"/>
       <use xlink:href="#DejaVuSans-2e" x="147.412109"/>
       <use xlink:href="#DejaVuSans-35" x="179.199219"/>
      </g>
     </g>
    </g>
    <g id="ytick_3">
     <g id="line2d_9">
      <g>
       <use xlink:href="#m626e1c4f79" x="72" y="293.76" style="stroke: #000000; stroke-width: 0.8"/>
      </g>
     </g>
     <g id="text_9">
      <!-- 0.0 -->
      <g transform="translate(49.096875 297.559219) scale(0.1 -0.1)">
       <use xlink:href="#DejaVuSans-30"/>
       <use xlink:href="#DejaVuSans-2e" x="63.623047"/>
       <use xlink:href="#DejaVuSans-30" x="95.410156"/>
      </g>
     </g>
    </g>
    <g id="ytick_4">
     <g id="line2d_10">
      <g>
       <use xlink:href="#m626e1c4f79" x="72" y="255.96" style="stroke: #000000; stroke-width: 0.8"/>
      </g>
     </g>
     <g id="text_10">
      <!-- 2.5 -->
      <g transform="translate(49.096875 259.759219) scale(0.1 -0.1)">
       <use xlink:href="#DejaVuSans-32"/>
       <use xlink:href="#DejaVuSans-2e" x="63.623047"/>
       <use xlink:href="#DejaVuSans-35" x="95.410156"/>
      </g>
     </g>
    </g>
    <g id="ytick_5">
     <g id="line2d_11">
      <g>
       <use xlink:href="#m626e1c4f79" x="72" y="218.16" style="stroke: #000000; stroke-width: 0.8"/>
      </g>
     </g>
     <g id="text_11">
      <!-- 5.0 -->
      <g transform="translate(49.096875 221.959219) scale(0.1 -0.1)">
       <use xlink:href="#DejaVuSans-35"/>
       <use xlink:href="#DejaVuSans-2e" x="63.623047"/>
       <use xlink:href="#DejaVuSans-30" x="95.410156"/>
      </g>
     </g>
    </g>
    <g id="ytick_6">
     <g id="line2d_12">
      <g>
       <use xlink:href="#m626e1c4f79" x="72" y="180.36" style="stroke: #000000; stroke-width: 0.8"/>
      </g>
     </g>
     <g id="text_12">
      <!-- 7.5 -->
      <g transform="translate(49.096875 184.159219) scale(0.1 -0.1)">
       <defs>
        <path id="DejaVuSans-37" d="M 525 4666 
L 3525 4666 
L 3525 4397 
L 1831 0 
L 1172 0 
L 2766 4134 
L 525 4134 
L 525 4666 
z
" transform="scale(0.015625)"/>
       </defs>
       <use xlink:href="#DejaVuSans-37"/>
       <use xlink:href="#DejaVuSans-2e" x="63.623047"/>
       <use xlink:href="#DejaVuSans-35" x="95.410156"/>
      </g>
     </g>
    </g>
    <g id="ytick_7">
     <g id="line2d_13">
      <g>
       <use xlink:href="#m626e1c4f79" x="72" y="142.56" style="stroke: #000000; stroke-width: 0.8"/>
      </g>
     </g>
     <g id="text_13">
      <!-- 10.0 -->
      <g transform="translate(42.734375 146.359219) scale(0.1 -0.1)">
       <use xlink:href="#DejaVuSans-31"/>
       <use xlink:href="#DejaVuSans-30" x="63.623047"/>
       <use xlink:href="#DejaVuSans-2e" x="127.246094"/>
       <use xlink:href="#DejaVuSans-30" x="159.033203"/>
      </g>
     </g>
    </g>
    <g id="ytick_8">
     <g id="line2d_14">
      <g>
       <use xlink:href="#m626e1c4f79" x="72" y="104.76" style="stroke: #000000; stroke-width: 0.8"/>
      </g>
     </g>
     <g id="text_14">
      <!-- 12.5 -->
      <g transform="translate(42.734375 108.559219) scale(0.1 -0.1)">
       <use xlink:href="#DejaVuSans-31"/>
       <use xlink:href="#DejaVuSans-32" x="63.623047"/>
       <use xlink:href="#DejaVuSans-2e" x="127.246094"/>
       <use xlink:href="#DejaVuSans-35" x="159.033203"/>
      </g>
     </g>
    </g>
    <g id="ytick_9">
     <g id="line2d_15">
      <g>
       <use xlink:href="#m626e1c4f79" x="72" y="66.96" style="stroke: #000000; stroke-width: 0.8"/>
      </g>
     </g>
     <g id="text_15">
      <!-- 15.0 -->
      <g transform="translate(42.734375 70.759219) scale(0.1 -0.1)">
       <use xlink:href="#DejaVuSans-31"/>
       <use xlink:href="#DejaVuSans-35" x="63.623047"/>
       <use xlink:href="#DejaVuSans-2e" x="127.246094"/>
       <use xlink:href="#DejaVuSans-30" x="159.033203"/>
      </g>
     </g>
    </g>
   </g>
   <g id="line2d_16">
    <path d="M 92.290909 330.56208 
L 96.349091 330.565104 
L 100.407273 330.574176 
L 104.465455 330.589296 
L 108.523636 330.611976 
L 112.581818 330.639192 
L 116.64 330.673968 
L 120.698182 330.716304 
L 124.756364 330.764688 
L 128.814545 330.820632 
L 132.872727 330.884136 
L 136.930909 330.956712 
L 140.989091 331.036848 
L 145.047273 331.124544 
L 149.105455 331.222824 
L 153.163636 331.328664 
L 157.221818 331.445088 
L 161.28 331.572096 
L 165.338182 331.709688 
L 169.396364 331.856352 
L 173.454545 332.015112 
L 177.512727 332.184456 
L 181.570909 332.364384 
L 185.629091 332.556408 
L 189.687273 332.759016 
L 193.745455 332.97372 
L 197.803636 333.199008 
L 201.861818 333.436392 
L 205.92 333.682848 
L 209.978182 333.9414 
L 214.036364 334.210536 
L 218.094545 334.488744 
L 222.152727 334.777536 
L 226.210909 335.0754 
L 230.269091 335.380824 
L 234.327273 335.69532 
L 238.385455 336.017376 
L 242.443636 336.346992 
L 246.501818 336.682656 
L 250.56 337.024368 
L 254.618182 337.372128 
L 258.676364 337.724424 
L 262.734545 338.081256 
L 266.792727 338.441112 
L 270.850909 338.803992 
L 274.909091 339.168384 
L 278.967273 339.5358 
L 283.025455 339.903216 
L 287.083636 340.273656 
L 291.141818 340.642584 
L 295.2 341.011512 
L 299.258182 341.378928 
L 303.316364 341.746344 
L 307.374545 342.110736 
L 311.432727 342.473616 
L 315.490909 342.833472 
L 319.549091 343.190304 
L 323.607273 343.544112 
L 327.665455 343.893384 
L 331.723636 344.239632 
L 335.781818 344.579832 
L 339.84 344.915496 
L 343.898182 345.246624 
L 347.956364 345.571704 
L 352.014545 345.892248 
L 356.072727 346.205232 
L 360.130909 346.512168 
L 364.189091 346.813056 
L 368.247273 347.106384 
L 372.305455 347.392152 
L 376.363636 347.671872 
L 380.421818 347.944032 
L 384.48 348.208632 
L 388.538182 348.46416 
L 392.596364 348.71364 
L 396.654545 348.954048 
L 400.712727 349.185384 
L 404.770909 349.40916 
L 408.829091 349.623864 
L 412.887273 349.829496 
L 416.945455 350.027568 
L 421.003636 350.216568 
L 425.061818 350.394984 
L 429.12 350.56584 
L 433.178182 350.726112 
L 437.236364 350.877312 
L 441.294545 351.01944 
L 445.352727 351.152496 
L 449.410909 351.27648 
L 453.469091 351.38988 
L 457.527273 351.492696 
L 461.585455 351.587952 
L 465.643636 351.671112 
L 469.701818 351.746712 
L 473.76 351.810216 
L 477.818182 351.86616 
L 481.876364 351.910008 
L 485.934545 351.944784 
L 489.992727 351.970488 
L 494.050909 351.985608 
L 498.109091 351.990144 
" clip-path="url(#pe46ca5bce3)" style="fill: none; stroke: #000000; stroke-opacity: 0.5; stroke-linecap: square"/>
   </g>
   <g id="line2d_17">
    <path d="M 92.290909 306.295992 
L 96.349091 306.297504 
L 100.407273 306.30204 
L 104.465455 306.3096 
L 108.523636 306.320184 
L 112.581818 306.333792 
L 116.64 306.348912 
L 120.698182 306.367056 
L 124.756364 306.3852 
L 128.814545 306.404856 
L 132.872727 306.424512 
L 136.930909 306.442656 
L 140.989091 306.4608 
L 145.047273 306.47592 
L 149.105455 306.488016 
L 153.163636 306.497088 
L 157.221818 306.501624 
L 161.28 306.500112 
L 165.338182 306.492552 
L 169.396364 306.477432 
L 173.454545 306.45324 
L 177.512727 306.421488 
L 181.570909 306.380664 
L 185.629091 306.327744 
L 189.687273 306.26424 
L 193.745455 306.190152 
L 197.803636 306.102456 
L 201.861818 306.002664 
L 205.92 305.889264 
L 209.978182 305.762256 
L 214.036364 305.620128 
L 218.094545 305.464392 
L 222.152727 305.295048 
L 226.210909 305.110584 
L 230.269091 304.911 
L 234.327273 304.696296 
L 238.385455 304.467984 
L 242.443636 304.224552 
L 246.501818 303.967512 
L 250.56 303.695352 
L 254.618182 303.409584 
L 258.676364 303.110208 
L 262.734545 302.797224 
L 266.792727 302.472144 
L 270.850909 302.131944 
L 274.909091 301.78116 
L 278.967273 301.416768 
L 283.025455 301.041792 
L 287.083636 300.65472 
L 291.141818 300.257064 
L 295.2 299.848824 
L 299.258182 299.431512 
L 303.316364 299.003616 
L 307.374545 298.566648 
L 311.432727 298.120608 
L 315.490909 297.667008 
L 319.549091 297.205848 
L 323.607273 296.737128 
L 327.665455 296.26236 
L 331.723636 295.783056 
L 335.781818 295.296192 
L 339.84 294.806304 
L 343.898182 294.31188 
L 347.956364 293.81292 
L 352.014545 293.312448 
L 356.072727 292.810464 
L 360.130909 292.306968 
L 364.189091 291.80196 
L 368.247273 291.298464 
L 372.305455 290.794968 
L 376.363636 290.294496 
L 380.421818 289.795536 
L 384.48 289.301112 
L 388.538182 288.811224 
L 392.596364 288.327384 
L 396.654545 287.849592 
L 400.712727 287.37936 
L 404.770909 286.9182 
L 408.829091 286.466112 
L 412.887273 286.024608 
L 416.945455 285.5952 
L 421.003636 285.177888 
L 425.061818 284.774184 
L 429.12 284.3856 
L 433.178182 284.012136 
L 437.236364 283.656816 
L 441.294545 283.318128 
L 445.352727 282.999096 
L 449.410909 282.698208 
L 453.469091 282.42 
L 457.527273 282.161448 
L 461.585455 281.925576 
L 465.643636 281.712384 
L 469.701818 281.523384 
L 473.76 281.357064 
L 477.818182 281.216448 
L 481.876364 281.100024 
L 485.934545 281.009304 
L 489.992727 280.9458 
L 494.050909 280.906488 
L 498.109091 280.89288 
" clip-path="url(#pe46ca5bce3)" style="fill: none; stroke: #000000; stroke-opacity: 0.5; stroke-linecap: square"/>
   </g>
   <g id="line2d_18">
    <path d="M 92.290909 259.19568 
L 96.349091 259.24104 
L 100.407273 259.371072 
L 104.465455 259.57368 
L 108.523636 259.83072 
L 112.581818 260.127072 
L 116.64 260.447616 
L 120.698182 260.781768 
L 124.756364 261.118944 
L 128.814545 261.454608 
L 132.872727 261.782712 
L 136.930909 262.100232 
L 140.989091 262.404144 
L 145.047273 262.691424 
L 149.105455 262.96056 
L 153.163636 263.211552 
L 157.221818 263.442888 
L 161.28 263.651544 
L 165.338182 263.840544 
L 169.396364 264.008376 
L 173.454545 264.153528 
L 177.512727 264.277512 
L 181.570909 264.378816 
L 185.629091 264.460464 
L 189.687273 264.51792 
L 193.745455 264.55572 
L 197.803636 264.572352 
L 201.861818 264.567816 
L 205.92 264.542112 
L 209.978182 264.498264 
L 214.036364 264.433248 
L 218.094545 264.348576 
L 222.152727 264.247272 
L 226.210909 264.126312 
L 230.269091 263.987208 
L 234.327273 263.831472 
L 238.385455 263.659104 
L 242.443636 263.470104 
L 246.501818 263.264472 
L 250.56 263.045232 
L 254.618182 262.810872 
L 258.676364 262.561392 
L 262.734545 262.299816 
L 266.792727 262.024632 
L 270.850909 261.737352 
L 274.909091 261.437976 
L 278.967273 261.128016 
L 283.025455 260.80596 
L 287.083636 260.476344 
L 291.141818 260.134632 
L 295.2 259.786872 
L 299.258182 259.428528 
L 303.316364 259.064136 
L 307.374545 258.693696 
L 311.432727 258.317208 
L 315.490909 257.934672 
L 319.549091 257.5476 
L 323.607273 257.155992 
L 327.665455 256.76136 
L 331.723636 256.365216 
L 335.781818 255.96756 
L 339.84 255.568392 
L 343.898182 255.169224 
L 347.956364 254.771568 
L 352.014545 254.373912 
L 356.072727 253.97928 
L 360.130909 253.58616 
L 364.189091 253.197576 
L 368.247273 252.812016 
L 372.305455 252.432504 
L 376.363636 252.056016 
L 380.421818 251.685576 
L 384.48 251.321184 
L 388.538182 250.96284 
L 392.596364 250.610544 
L 396.654545 250.262784 
L 400.712727 249.922584 
L 404.770909 249.58692 
L 408.829091 249.257304 
L 412.887273 248.933736 
L 416.945455 248.614704 
L 421.003636 248.298696 
L 425.061818 247.988736 
L 429.12 247.6818 
L 433.178182 247.377888 
L 437.236364 247.078512 
L 441.294545 246.780648 
L 445.352727 246.48732 
L 449.410909 246.197016 
L 453.469091 245.91276 
L 457.527273 245.63304 
L 461.585455 245.359368 
L 465.643636 245.094768 
L 469.701818 244.842264 
L 473.76 244.60488 
L 477.818182 244.387152 
L 481.876364 244.193616 
L 485.934545 244.031832 
L 489.992727 243.90936 
L 494.050909 243.83376 
L 498.109091 243.806544 
" clip-path="url(#pe46ca5bce3)" style="fill: none; stroke: #000000; stroke-opacity: 0.5; stroke-linecap: square"/>
   </g>
   <g id="line2d_19">
    <path d="M 92.290909 252.269208 
L 96.349091 252.207216 
L 100.407273 252.024264 
L 104.465455 251.73396 
L 108.523636 251.354448 
L 112.581818 250.900848 
L 116.64 250.389792 
L 120.698182 249.833376 
L 124.756364 249.240672 
L 128.814545 248.61924 
L 132.872727 247.975128 
L 136.930909 247.314384 
L 140.989091 246.640032 
L 145.047273 245.956608 
L 149.105455 245.267136 
L 153.163636 244.57464 
L 157.221818 243.883656 
L 161.28 243.194184 
L 165.338182 242.512272 
L 169.396364 241.839432 
L 173.454545 241.177176 
L 177.512727 240.528528 
L 181.570909 239.896512 
L 185.629091 239.284152 
L 189.687273 238.69296 
L 193.745455 238.12596 
L 197.803636 237.584664 
L 201.861818 237.072096 
L 205.92 236.588256 
L 209.978182 236.13768 
L 214.036364 235.718856 
L 218.094545 235.334808 
L 222.152727 234.987048 
L 226.210909 234.674064 
L 230.269091 234.395856 
L 234.327273 234.153936 
L 238.385455 233.948304 
L 242.443636 233.775936 
L 246.501818 233.636832 
L 250.56 233.530992 
L 254.618182 233.456904 
L 258.676364 233.410032 
L 262.734545 233.391888 
L 266.792727 233.399448 
L 270.850909 233.429688 
L 274.909091 233.482608 
L 278.967273 233.553672 
L 283.025455 233.644392 
L 287.083636 233.74872 
L 291.141818 233.868168 
L 295.2 233.9982 
L 299.258182 234.138816 
L 303.316364 234.288504 
L 307.374545 234.44424 
L 311.432727 234.604512 
L 315.490909 234.767808 
L 319.549091 234.934128 
L 323.607273 235.100448 
L 327.665455 235.266768 
L 331.723636 235.430064 
L 335.781818 235.591848 
L 339.84 235.749096 
L 343.898182 235.90332 
L 347.956364 236.051496 
L 352.014545 236.192112 
L 356.072727 236.328192 
L 360.130909 236.456712 
L 364.189091 236.577672 
L 368.247273 236.692584 
L 372.305455 236.798424 
L 376.363636 236.898216 
L 380.421818 236.990448 
L 384.48 237.076632 
L 388.538182 237.156768 
L 392.596364 237.232368 
L 396.654545 237.30192 
L 400.712727 237.36996 
L 404.770909 237.434976 
L 408.829091 237.499992 
L 412.887273 237.56652 
L 416.945455 237.633048 
L 421.003636 237.704112 
L 425.061818 237.779712 
L 429.12 237.86136 
L 433.178182 237.949056 
L 437.236364 238.045824 
L 441.294545 238.150152 
L 445.352727 238.265064 
L 449.410909 238.387536 
L 453.469091 238.520592 
L 457.527273 238.661208 
L 461.585455 238.807872 
L 465.643636 238.960584 
L 469.701818 239.114808 
L 473.76 239.26752 
L 477.818182 239.414184 
L 481.876364 239.548752 
L 485.934545 239.665176 
L 489.992727 239.754384 
L 494.050909 239.81184 
L 498.109091 239.831496 
" clip-path="url(#pe46ca5bce3)" style="fill: none; stroke: #000000; stroke-opacity: 0.5; stroke-linecap: square"/>
   </g>
   <g id="line2d_20">
    <path d="M 92.290909 164.099952 
L 96.349091 164.32524 
L 100.407273 164.902824 
L 104.465455 165.66336 
L 108.523636 166.508568 
L 112.581818 167.385528 
L 116.64 168.268536 
L 120.698182 169.145496 
L 124.756364 170.008848 
L 128.814545 170.852544 
L 132.872727 171.670536 
L 136.930909 172.462824 
L 140.989091 173.224872 
L 145.047273 173.95668 
L 149.105455 174.653712 
L 153.163636 175.314456 
L 157.221818 175.938912 
L 161.28 176.522544 
L 165.338182 177.06384 
L 169.396364 177.561288 
L 173.454545 178.013376 
L 177.512727 178.41708 
L 181.570909 178.770888 
L 185.629091 179.073288 
L 189.687273 179.321256 
L 193.745455 179.51328 
L 197.803636 179.647848 
L 201.861818 179.723448 
L 205.92 179.737056 
L 209.978182 179.690184 
L 214.036364 179.578296 
L 218.094545 179.402904 
L 222.152727 179.164008 
L 226.210909 178.858584 
L 230.269091 178.489656 
L 234.327273 178.055712 
L 238.385455 177.559776 
L 242.443636 177.000336 
L 246.501818 176.378904 
L 250.56 175.696992 
L 254.618182 174.959136 
L 258.676364 174.163824 
L 262.734545 173.31408 
L 266.792727 172.411416 
L 270.850909 171.460368 
L 274.909091 170.460936 
L 278.967273 169.416144 
L 283.025455 168.327504 
L 287.083636 167.19804 
L 291.141818 166.030776 
L 295.2 164.827224 
L 299.258182 163.588896 
L 303.316364 162.318816 
L 307.374545 161.020008 
L 311.432727 159.697008 
L 315.490909 158.354352 
L 319.549091 157.017744 
L 323.607273 155.938176 
L 327.665455 156.676032 
L 331.723636 158.015664 
L 335.781818 159.381 
L 339.84 160.737264 
L 343.898182 162.073872 
L 347.956364 163.386288 
L 352.014545 164.676024 
L 356.072727 165.938544 
L 360.130909 167.172336 
L 364.189091 168.3774 
L 368.247273 169.552224 
L 372.305455 170.695296 
L 376.363636 171.805104 
L 380.421818 172.880136 
L 384.48 173.91888 
L 388.538182 174.921336 
L 392.596364 175.88448 
L 396.654545 176.8068 
L 400.712727 177.688296 
L 404.770909 178.527456 
L 408.829091 179.322768 
L 412.887273 180.074232 
L 416.945455 180.778824 
L 421.003636 181.438056 
L 425.061818 182.048904 
L 429.12 182.61288 
L 433.178182 183.129984 
L 437.236364 183.598704 
L 441.294545 184.022064 
L 445.352727 184.398552 
L 449.410909 184.732704 
L 453.469091 185.023008 
L 457.527273 185.272488 
L 461.585455 185.484168 
L 465.643636 185.661072 
L 469.701818 185.804712 
L 473.76 185.921136 
L 477.818182 186.011856 
L 481.876364 186.079896 
L 485.934545 186.129792 
L 489.992727 186.163056 
L 494.050909 186.182712 
L 498.109091 186.18876 
" clip-path="url(#pe46ca5bce3)" style="fill: none; stroke: #000000; stroke-opacity: 0.5; stroke-linecap: square"/>
   </g>
   <g id="line2d_21">
    <path d="M 92.290909 159.27516 
L 96.349091 159.027192 
L 100.407273 158.384592 
L 104.465455 157.512168 
L 108.523636 156.511224 
L 112.581818 155.43468 
L 116.64 154.305216 
L 120.698182 153.137952 
L 124.756364 151.937424 
L 128.814545 150.711192 
L 132.872727 149.460768 
L 136.930909 148.189176 
L 140.989091 146.897928 
L 145.047273 145.590048 
L 149.105455 144.264024 
L 153.163636 142.921368 
L 157.221818 141.565104 
L 161.28 140.19372 
L 165.338182 138.81024 
L 169.396364 137.414664 
L 173.454545 136.008504 
L 177.512727 134.59176 
L 181.570909 133.168968 
L 185.629091 131.740128 
L 189.687273 130.308264 
L 193.745455 128.8764 
L 197.803636 127.452096 
L 201.861818 126.039888 
L 205.92 124.653384 
L 209.978182 123.309216 
L 214.036364 122.036112 
L 218.094545 120.87792 
L 222.152727 119.911752 
L 226.210909 119.309976 
L 230.269091 119.452104 
L 234.327273 120.471192 
L 238.385455 121.897008 
L 242.443636 123.460416 
L 246.501818 125.076744 
L 250.56 126.715752 
L 254.618182 128.363832 
L 258.676364 130.014936 
L 262.734545 131.661504 
L 266.792727 133.305048 
L 270.850909 134.941032 
L 274.909091 136.569456 
L 278.967273 138.187296 
L 283.025455 139.79304 
L 287.083636 141.3882 
L 291.141818 142.969752 
L 295.2 144.539208 
L 299.258182 146.092032 
L 303.316364 147.628224 
L 307.374545 149.147784 
L 311.432727 150.646176 
L 315.490909 152.117352 
L 319.549091 153.540144 
L 323.607273 154.66356 
L 327.665455 153.927216 
L 331.723636 152.548272 
L 335.781818 151.1028 
L 339.84 149.627088 
L 343.898182 148.134744 
L 347.956364 146.628792 
L 352.014545 145.11528 
L 356.072727 143.604792 
L 360.130909 142.123032 
L 364.189091 140.778864 
L 368.247273 140.180112 
L 372.305455 141.0102 
L 376.363636 142.292376 
L 380.421818 143.64864 
L 384.48 145.013976 
L 388.538182 146.371752 
L 392.596364 147.712896 
L 396.654545 149.034384 
L 400.712727 150.333192 
L 404.770909 151.607808 
L 408.829091 152.85672 
L 412.887273 154.076904 
L 416.945455 155.266848 
L 421.003636 156.42504 
L 425.061818 157.55148 
L 429.12 158.641632 
L 433.178182 159.695496 
L 437.236364 160.710048 
L 441.294545 161.682264 
L 445.352727 162.610632 
L 449.410909 163.490616 
L 453.469091 164.320704 
L 457.527273 165.09636 
L 461.585455 165.816072 
L 465.643636 166.473792 
L 469.701818 167.066496 
L 473.76 167.59116 
L 477.818182 168.043248 
L 481.876364 168.418224 
L 485.934545 168.714576 
L 489.992727 168.927768 
L 494.050909 169.0578 
L 498.109091 169.100136 
" clip-path="url(#pe46ca5bce3)" style="fill: none; stroke: #000000; stroke-opacity: 0.5; stroke-linecap: square"/>
   </g>
   <g id="line2d_22">
    <path d="M 92.290909 119.119464 
L 96.349091 119.11644 
L 100.407273 119.104344 
L 104.465455 119.084688 
L 108.523636 119.057472 
L 112.581818 119.021184 
L 116.64 118.978848 
L 120.698182 118.92744 
L 124.756364 118.869984 
L 128.814545 118.803456 
L 132.872727 118.729368 
L 136.930909 118.64772 
L 140.989091 118.557 
L 145.047273 118.460232 
L 149.105455 118.355904 
L 153.163636 118.242504 
L 157.221818 118.121544 
L 161.28 117.994536 
L 165.338182 117.856944 
L 169.396364 117.713304 
L 173.454545 117.55908 
L 177.512727 117.397296 
L 181.570909 117.224928 
L 185.629091 117.043488 
L 189.687273 116.849952 
L 193.745455 116.642808 
L 197.803636 116.422056 
L 201.861818 116.18316 
L 205.92 115.923096 
L 209.978182 115.643376 
L 214.036364 115.35912 
L 218.094545 115.145928 
L 222.152727 115.292592 
L 226.210909 115.976016 
L 230.269091 116.506728 
L 234.327273 116.453808 
L 238.385455 116.16804 
L 242.443636 115.852032 
L 246.501818 115.549632 
L 250.56 115.2684 
L 254.618182 115.006824 
L 258.676364 114.758856 
L 262.734545 114.526008 
L 266.792727 114.305256 
L 270.850909 114.098112 
L 274.909091 113.906088 
L 278.967273 113.732208 
L 283.025455 113.585544 
L 287.083636 113.481216 
L 291.141818 113.447952 
L 295.2 113.55228 
L 299.258182 113.928768 
L 303.316364 114.721056 
L 307.374545 115.906464 
L 311.432727 117.321696 
L 315.490909 118.845792 
L 319.549091 120.418272 
L 323.607273 122.010408 
L 327.665455 123.610104 
L 331.723636 125.206776 
L 335.781818 126.795888 
L 339.84 128.374416 
L 343.898182 129.937824 
L 347.956364 131.4846 
L 352.014545 133.007184 
L 356.072727 134.499528 
L 360.130909 135.932904 
L 364.189091 137.202984 
L 368.247273 137.69892 
L 372.305455 136.737288 
L 376.363636 135.299376 
L 380.421818 133.761672 
L 384.48 132.18768 
L 388.538182 130.598568 
L 392.596364 129.000384 
L 396.654545 127.400688 
L 400.712727 125.79948 
L 404.770909 124.202808 
L 408.829091 122.613696 
L 412.887273 121.033656 
L 416.945455 119.468736 
L 421.003636 117.924984 
L 425.061818 116.408448 
L 429.12 114.932736 
L 433.178182 113.515992 
L 437.236364 112.189968 
L 441.294545 111.009096 
L 445.352727 110.050488 
L 449.410909 109.370088 
L 453.469091 108.93312 
L 457.527273 108.657936 
L 461.585455 108.476496 
L 465.643636 108.352512 
L 469.701818 108.263304 
L 473.76 108.196776 
L 477.818182 108.14688 
L 481.876364 108.10908 
L 485.934545 108.081864 
L 489.992727 108.06372 
L 494.050909 108.053136 
L 498.109091 108.0486 
" clip-path="url(#pe46ca5bce3)" style="fill: none; stroke: #000000; stroke-opacity: 0.5; stroke-linecap: square"/>
   </g>
   <g id="line2d_23">
    <path d="M 92.290909 85.097952 
L 96.349091 85.094928 
L 100.407273 85.082832 
L 104.465455 85.064688 
L 108.523636 85.042008 
L 112.581818 85.011768 
L 116.64 84.980016 
L 120.698182 84.946752 
L 124.756364 84.918024 
L 128.814545 84.89988 
L 132.872727 84.904416 
L 136.930909 84.949776 
L 140.989091 85.072248 
L 145.047273 85.3308 
L 149.105455 85.81464 
L 153.163636 86.60088 
L 157.221818 87.688008 
L 161.28 89.001936 
L 165.338182 90.459504 
L 169.396364 92.007792 
L 173.454545 93.612024 
L 177.512727 95.254056 
L 181.570909 96.92028 
L 185.629091 98.601624 
L 189.687273 100.293552 
L 193.745455 101.988504 
L 197.803636 103.683456 
L 201.861818 105.369336 
L 205.92 107.038584 
L 209.978182 108.671544 
L 214.036364 110.22588 
L 218.094545 111.577608 
L 222.152727 112.362336 
L 226.210909 112.232304 
L 230.269091 111.497472 
L 234.327273 110.45268 
L 238.385455 109.224936 
L 242.443636 107.879256 
L 246.501818 106.459488 
L 250.56 104.997384 
L 254.618182 103.521672 
L 258.676364 102.074688 
L 262.734545 100.750176 
L 266.792727 99.839952 
L 270.850909 99.960912 
L 274.909091 101.067696 
L 278.967273 102.547944 
L 283.025455 104.13252 
L 287.083636 105.72768 
L 291.141818 107.26992 
L 295.2 108.682128 
L 299.258182 109.826712 
L 303.316364 110.55096 
L 307.374545 110.877552 
L 311.432727 110.968272 
L 315.490909 110.94408 
L 319.549091 110.862432 
L 323.607273 110.752056 
L 327.665455 110.625048 
L 331.723636 110.488968 
L 335.781818 110.349864 
L 339.84 110.209248 
L 343.898182 110.06712 
L 347.956364 109.928016 
L 352.014545 109.790424 
L 356.072727 109.655856 
L 360.130909 109.524312 
L 364.189091 109.397304 
L 368.247273 109.271808 
L 372.305455 109.15236 
L 376.363636 109.034424 
L 380.421818 108.921024 
L 384.48 108.81216 
L 388.538182 108.704808 
L 392.596364 108.601992 
L 396.654545 108.500688 
L 400.712727 108.400896 
L 404.770909 108.304128 
L 408.829091 108.20736 
L 412.887273 108.10908 
L 416.945455 108.007776 
L 421.003636 107.898912 
L 425.061818 107.779464 
L 429.12 107.638848 
L 433.178182 107.461944 
L 437.236364 107.221536 
L 441.294545 106.866216 
L 445.352727 106.323408 
L 449.410909 105.547752 
L 453.469091 104.574024 
L 457.527273 103.49748 
L 461.585455 102.390696 
L 465.643636 101.30508 
L 469.701818 100.273896 
L 473.76 99.322848 
L 477.818182 98.474616 
L 481.876364 97.745832 
L 485.934545 97.156152 
L 489.992727 96.72372 
L 494.050909 96.457608 
L 498.109091 96.3684 
" clip-path="url(#pe46ca5bce3)" style="fill: none; stroke: #000000; stroke-opacity: 0.5; stroke-linecap: square"/>
   </g>
   <g id="patch_3">
    <path d="M 72 384.48 
L 72 51.84 
" style="fill: none; stroke: #000000; stroke-width: 0.8; stroke-linejoin: miter; stroke-linecap: square"/>
   </g>
   <g id="patch_4">
    <path d="M 518.4 384.48 
L 518.4 51.84 
" style="fill: none; stroke: #000000; stroke-width: 0.8; stroke-linejoin: miter; stroke-linecap: square"/>
   </g>
   <g id="patch_5">
    <path d="M 72 384.48 
L 518.4 384.48 
" style="fill: none; stroke: #000000; stroke-width: 0.8; stroke-linejoin: miter; stroke-linecap: square"/>
   </g>
   <g id="patch_6">
    <path d="M 72 51.84 
L 518.4 51.84 
" style="fill: none; stroke: #000000; stroke-width: 0.8; stroke-linejoin: miter; stroke-linecap: square"/>
   </g>
  </g>
 </g>
 <defs>
  <clipPath id="pe46ca5bce3">
   <rect x="72" y="51.84" width="446.4" height="332.64"/>
  </clipPath>
 </defs>
</svg>
