<?xml version="1.0" encoding="utf-8" standalone="no"?>
<!DOCTYPE svg PUBLIC "-//W3C//DTD SVG 1.1//EN"
  "http://www.w3.org/Graphics/SVG/1.1/DTD/svg11.dtd">
<svg xmlns:xlink="http://www.w3.org/1999/xlink" width="576pt" height="432pt" viewBox="0 0 576 432" xmlns="http://www.w3.org/2000/svg" version="1.1">
 <metadata>
  <rdf:RDF xmlns:dc="http://purl.org/dc/elements/1.1/" xmlns:cc="http://creativecommons.org/ns#" xmlns:rdf="http://www.w3.org/1999/02/22-rdf-syntax-ns#">
   <cc:Work>
    <dc:type rdf:resource="http://purl.org/dc/dcmitype/StillImage"/>
    <dc:date>2023-05-04T15:21:11.440624</dc:date>
    <dc:format>image/svg+xml</dc:format>
    <dc:creator>
     <cc:Agent>
      <dc:title>Matplotlib v3.7.1, https://matplotlib.org/</dc:title>
     </cc:Agent>
    </dc:creator>
   </cc:Work>
  </rdf:RDF>
 </metadata>
 <defs>
  <style type="text/css">*{stroke-linejoin: round; stroke-linecap: butt}</style>
 </defs>
 <g id="figure_1">
  <g id="patch_1">
   <path d="M 0 432 
L 576 432 
L 576 0 
L 0 0 
z
" style="fill: #ffffff"/>
  </g>
  <g id="axes_1">
   <g id="patch_2">
    <path d="M 72 384.48 
L 518.4 384.48 
L 518.4 51.84 
L 72 51.84 
z
" style="fill: #ffffff"/>
   </g>
   <g id="matplotlib.axis_1">
    <g id="xtick_1">
     <g id="line2d_1">
      <defs>
       <path id="m34d4fb7ce1" d="M 0 0 
L 0 3.5 
" style="stroke: #000000; stroke-width: 0.8"/>
      </defs>
      <g>
       <use xlink:href="#m34d4fb7ce1" x="92.290909" y="384.48" style="stroke: #000000; stroke-width: 0.8"/>
      </g>
     </g>
     <g id="text_1">
      <!-- 0.0 -->
      <g transform="translate(84.339347 399.078438) scale(0.1 -0.1)">
       <defs>
        <path id="DejaVuSans-30" d="M 2034 4250 
Q 1547 4250 1301 3770 
Q 1056 3291 1056 2328 
Q 1056 1369 1301 889 
Q 1547 409 2034 409 
Q 2525 409 2770 889 
Q 3016 1369 3016 2328 
Q 3016 3291 2770 3770 
Q 2525 4250 2034 4250 
z
M 2034 4750 
Q 2819 4750 3233 4129 
Q 3647 3509 3647 2328 
Q 3647 1150 3233 529 
Q 2819 -91 2034 -91 
Q 1250 -91 836 529 
Q 422 1150 422 2328 
Q 422 3509 836 4129 
Q 1250 4750 2034 4750 
z
" transform="scale(0.015625)"/>
        <path id="DejaVuSans-2e" d="M 684 794 
L 1344 794 
L 1344 0 
L 684 0 
L 684 794 
z
" transform="scale(0.015625)"/>
       </defs>
       <use xlink:href="#DejaVuSans-30"/>
       <use xlink:href="#DejaVuSans-2e" x="63.623047"/>
       <use xlink:href="#DejaVuSans-30" x="95.410156"/>
      </g>
     </g>
    </g>
    <g id="xtick_2">
     <g id="line2d_2">
      <g>
       <use xlink:href="#m34d4fb7ce1" x="173.454545" y="384.48" style="stroke: #000000; stroke-width: 0.8"/>
      </g>
     </g>
     <g id="text_2">
      <!-- 0.2 -->
      <g transform="translate(165.502983 399.078438) scale(0.1 -0.1)">
       <defs>
        <path id="DejaVuSans-32" d="M 1228 531 
L 3431 531 
L 3431 0 
L 469 0 
L 469 531 
Q 828 903 1448 1529 
Q 2069 2156 2228 2338 
Q 2531 2678 2651 2914 
Q 2772 3150 2772 3378 
Q 2772 3750 2511 3984 
Q 2250 4219 1831 4219 
Q 1534 4219 1204 4116 
Q 875 4013 500 3803 
L 500 4441 
Q 881 4594 1212 4672 
Q 1544 4750 1819 4750 
Q 2544 4750 2975 4387 
Q 3406 4025 3406 3419 
Q 3406 3131 3298 2873 
Q 3191 2616 2906 2266 
Q 2828 2175 2409 1742 
Q 1991 1309 1228 531 
z
" transform="scale(0.015625)"/>
       </defs>
       <use xlink:href="#DejaVuSans-30"/>
       <use xlink:href="#DejaVuSans-2e" x="63.623047"/>
       <use xlink:href="#DejaVuSans-32" x="95.410156"/>
      </g>
     </g>
    </g>
    <g id="xtick_3">
     <g id="line2d_3">
      <g>
       <use xlink:href="#m34d4fb7ce1" x="254.618182" y="384.48" style="stroke: #000000; stroke-width: 0.8"/>
      </g>
     </g>
     <g id="text_3">
      <!-- 0.4 -->
      <g transform="translate(246.666619 399.078438) scale(0.1 -0.1)">
       <defs>
        <path id="DejaVuSans-34" d="M 2419 4116 
L 825 1625 
L 2419 1625 
L 2419 4116 
z
M 2253 4666 
L 3047 4666 
L 3047 1625 
L 3713 1625 
L 3713 1100 
L 3047 1100 
L 3047 0 
L 2419 0 
L 2419 1100 
L 313 1100 
L 313 1709 
L 2253 4666 
z
" transform="scale(0.015625)"/>
       </defs>
       <use xlink:href="#DejaVuSans-30"/>
       <use xlink:href="#DejaVuSans-2e" x="63.623047"/>
       <use xlink:href="#DejaVuSans-34" x="95.410156"/>
      </g>
     </g>
    </g>
    <g id="xtick_4">
     <g id="line2d_4">
      <g>
       <use xlink:href="#m34d4fb7ce1" x="335.781818" y="384.48" style="stroke: #000000; stroke-width: 0.8"/>
      </g>
     </g>
     <g id="text_4">
      <!-- 0.6 -->
      <g transform="translate(327.830256 399.078438) scale(0.1 -0.1)">
       <defs>
        <path id="DejaVuSans-36" d="M 2113 2584 
Q 1688 2584 1439 2293 
Q 1191 2003 1191 1497 
Q 1191 994 1439 701 
Q 1688 409 2113 409 
Q 2538 409 2786 701 
Q 3034 994 3034 1497 
Q 3034 2003 2786 2293 
Q 2538 2584 2113 2584 
z
M 3366 4563 
L 3366 3988 
Q 3128 4100 2886 4159 
Q 2644 4219 2406 4219 
Q 1781 4219 1451 3797 
Q 1122 3375 1075 2522 
Q 1259 2794 1537 2939 
Q 1816 3084 2150 3084 
Q 2853 3084 3261 2657 
Q 3669 2231 3669 1497 
Q 3669 778 3244 343 
Q 2819 -91 2113 -91 
Q 1303 -91 875 529 
Q 447 1150 447 2328 
Q 447 3434 972 4092 
Q 1497 4750 2381 4750 
Q 2619 4750 2861 4703 
Q 3103 4656 3366 4563 
z
" transform="scale(0.015625)"/>
       </defs>
       <use xlink:href="#DejaVuSans-30"/>
       <use xlink:href="#DejaVuSans-2e" x="63.623047"/>
       <use xlink:href="#DejaVuSans-36" x="95.410156"/>
      </g>
     </g>
    </g>
    <g id="xtick_5">
     <g id="line2d_5">
      <g>
       <use xlink:href="#m34d4fb7ce1" x="416.945455" y="384.48" style="stroke: #000000; stroke-width: 0.8"/>
      </g>
     </g>
     <g id="text_5">
      <!-- 0.8 -->
      <g transform="translate(408.993892 399.078438) scale(0.1 -0.1)">
       <defs>
        <path id="DejaVuSans-38" d="M 2034 2216 
Q 1584 2216 1326 1975 
Q 1069 1734 1069 1313 
Q 1069 891 1326 650 
Q 1584 409 2034 409 
Q 2484 409 2743 651 
Q 3003 894 3003 1313 
Q 3003 1734 2745 1975 
Q 2488 2216 2034 2216 
z
M 1403 2484 
Q 997 2584 770 2862 
Q 544 3141 544 3541 
Q 544 4100 942 4425 
Q 1341 4750 2034 4750 
Q 2731 4750 3128 4425 
Q 3525 4100 3525 3541 
Q 3525 3141 3298 2862 
Q 3072 2584 2669 2484 
Q 3125 2378 3379 2068 
Q 3634 1759 3634 1313 
Q 3634 634 3220 271 
Q 2806 -91 2034 -91 
Q 1263 -91 848 271 
Q 434 634 434 1313 
Q 434 1759 690 2068 
Q 947 2378 1403 2484 
z
M 1172 3481 
Q 1172 3119 1398 2916 
Q 1625 2713 2034 2713 
Q 2441 2713 2670 2916 
Q 2900 3119 2900 3481 
Q 2900 3844 2670 4047 
Q 2441 4250 2034 4250 
Q 1625 4250 1398 4047 
Q 1172 3844 1172 3481 
z
" transform="scale(0.015625)"/>
       </defs>
       <use xlink:href="#DejaVuSans-30"/>
       <use xlink:href="#DejaVuSans-2e" x="63.623047"/>
       <use xlink:href="#DejaVuSans-38" x="95.410156"/>
      </g>
     </g>
    </g>
    <g id="xtick_6">
     <g id="line2d_6">
      <g>
       <use xlink:href="#m34d4fb7ce1" x="498.109091" y="384.48" style="stroke: #000000; stroke-width: 0.8"/>
      </g>
     </g>
     <g id="text_6">
      <!-- 1.0 -->
      <g transform="translate(490.157528 399.078438) scale(0.1 -0.1)">
       <defs>
        <path id="DejaVuSans-31" d="M 794 531 
L 1825 531 
L 1825 4091 
L 703 3866 
L 703 4441 
L 1819 4666 
L 2450 4666 
L 2450 531 
L 3481 531 
L 3481 0 
L 794 0 
L 794 531 
z
" transform="scale(0.015625)"/>
       </defs>
       <use xlink:href="#DejaVuSans-31"/>
       <use xlink:href="#DejaVuSans-2e" x="63.623047"/>
       <use xlink:href="#DejaVuSans-30" x="95.410156"/>
      </g>
     </g>
    </g>
   </g>
   <g id="matplotlib.axis_2">
    <g id="ytick_1">
     <g id="line2d_7">
      <defs>
       <path id="me8ae363b4d" d="M 0 0 
L -3.5 0 
" style="stroke: #000000; stroke-width: 0.8"/>
      </defs>
      <g>
       <use xlink:href="#me8ae363b4d" x="72" y="369.36" style="stroke: #000000; stroke-width: 0.8"/>
      </g>
     </g>
     <g id="text_7">
      <!-- −5.0 -->
      <g transform="translate(40.717187 373.159219) scale(0.1 -0.1)">
       <defs>
        <path id="DejaVuSans-2212" d="M 678 2272 
L 4684 2272 
L 4684 1741 
L 678 1741 
L 678 2272 
z
" transform="scale(0.015625)"/>
        <path id="DejaVuSans-35" d="M 691 4666 
L 3169 4666 
L 3169 4134 
L 1269 4134 
L 1269 2991 
Q 1406 3038 1543 3061 
Q 1681 3084 1819 3084 
Q 2600 3084 3056 2656 
Q 3513 2228 3513 1497 
Q 3513 744 3044 326 
Q 2575 -91 1722 -91 
Q 1428 -91 1123 -41 
Q 819 9 494 109 
L 494 744 
Q 775 591 1075 516 
Q 1375 441 1709 441 
Q 2250 441 2565 725 
Q 2881 1009 2881 1497 
Q 2881 1984 2565 2268 
Q 2250 2553 1709 2553 
Q 1456 2553 1204 2497 
Q 953 2441 691 2322 
L 691 4666 
z
" transform="scale(0.015625)"/>
       </defs>
       <use xlink:href="#DejaVuSans-2212"/>
       <use xlink:href="#DejaVuSans-35" x="83.789062"/>
       <use xlink:href="#DejaVuSans-2e" x="147.412109"/>
       <use xlink:href="#DejaVuSans-30" x="179.199219"/>
      </g>
     </g>
    </g>
    <g id="ytick_2">
     <g id="line2d_8">
      <g>
       <use xlink:href="#me8ae363b4d" x="72" y="331.56" style="stroke: #000000; stroke-width: 0.8"/>
      </g>
     </g>
     <g id="text_8">
      <!-- −2.5 -->
      <g transform="translate(40.717187 335.359219) scale(0.1 -0.1)">
       <use xlink:href="#DejaVuSans-2212"/>
       <use xlink:href="#DejaVuSans-32" x="83.789062"/>
       <use xlink:href="#DejaVuSans-2e" x="147.412109"/>
       <use xlink:href="#DejaVuSans-35" x="179.199219"/>
      </g>
     </g>
    </g>
    <g id="ytick_3">
     <g id="line2d_9">
      <g>
       <use xlink:href="#me8ae363b4d" x="72" y="293.76" style="stroke: #000000; stroke-width: 0.8"/>
      </g>
     </g>
     <g id="text_9">
      <!-- 0.0 -->
      <g transform="translate(49.096875 297.559219) scale(0.1 -0.1)">
       <use xlink:href="#DejaVuSans-30"/>
       <use xlink:href="#DejaVuSans-2e" x="63.623047"/>
       <use xlink:href="#DejaVuSans-30" x="95.410156"/>
      </g>
     </g>
    </g>
    <g id="ytick_4">
     <g id="line2d_10">
      <g>
       <use xlink:href="#me8ae363b4d" x="72" y="255.96" style="stroke: #000000; stroke-width: 0.8"/>
      </g>
     </g>
     <g id="text_10">
      <!-- 2.5 -->
      <g transform="translate(49.096875 259.759219) scale(0.1 -0.1)">
       <use xlink:href="#DejaVuSans-32"/>
       <use xlink:href="#DejaVuSans-2e" x="63.623047"/>
       <use xlink:href="#DejaVuSans-35" x="95.410156"/>
      </g>
     </g>
    </g>
    <g id="ytick_5">
     <g id="line2d_11">
      <g>
       <use xlink:href="#me8ae363b4d" x="72" y="218.16" style="stroke: #000000; stroke-width: 0.8"/>
      </g>
     </g>
     <g id="text_11">
      <!-- 5.0 -->
      <g transform="translate(49.096875 221.959219) scale(0.1 -0.1)">
       <use xlink:href="#DejaVuSans-35"/>
       <use xlink:href="#DejaVuSans-2e" x="63.623047"/>
       <use xlink:href="#DejaVuSans-30" x="95.410156"/>
      </g>
     </g>
    </g>
    <g id="ytick_6">
     <g id="line2d_12">
      <g>
       <use xlink:href="#me8ae363b4d" x="72" y="180.36" style="stroke: #000000; stroke-width: 0.8"/>
      </g>
     </g>
     <g id="text_12">
      <!-- 7.5 -->
      <g transform="translate(49.096875 184.159219) scale(0.1 -0.1)">
       <defs>
        <path id="DejaVuSans-37" d="M 525 4666 
L 3525 4666 
L 3525 4397 
L 1831 0 
L 1172 0 
L 2766 4134 
L 525 4134 
L 525 4666 
z
" transform="scale(0.015625)"/>
       </defs>
       <use xlink:href="#DejaVuSans-37"/>
       <use xlink:href="#DejaVuSans-2e" x="63.623047"/>
       <use xlink:href="#DejaVuSans-35" x="95.410156"/>
      </g>
     </g>
    </g>
    <g id="ytick_7">
     <g id="line2d_13">
      <g>
       <use xlink:href="#me8ae363b4d" x="72" y="142.56" style="stroke: #000000; stroke-width: 0.8"/>
      </g>
     </g>
     <g id="text_13">
      <!-- 10.0 -->
      <g transform="translate(42.734375 146.359219) scale(0.1 -0.1)">
       <use xlink:href="#DejaVuSans-31"/>
       <use xlink:href="#DejaVuSans-30" x="63.623047"/>
       <use xlink:href="#DejaVuSans-2e" x="127.246094"/>
       <use xlink:href="#DejaVuSans-30" x="159.033203"/>
      </g>
     </g>
    </g>
    <g id="ytick_8">
     <g id="line2d_14">
      <g>
       <use xlink:href="#me8ae363b4d" x="72" y="104.76" style="stroke: #000000; stroke-width: 0.8"/>
      </g>
     </g>
     <g id="text_14">
      <!-- 12.5 -->
      <g transform="translate(42.734375 108.559219) scale(0.1 -0.1)">
       <use xlink:href="#DejaVuSans-31"/>
       <use xlink:href="#DejaVuSans-32" x="63.623047"/>
       <use xlink:href="#DejaVuSans-2e" x="127.246094"/>
       <use xlink:href="#DejaVuSans-35" x="159.033203"/>
      </g>
     </g>
    </g>
    <g id="ytick_9">
     <g id="line2d_15">
      <g>
       <use xlink:href="#me8ae363b4d" x="72" y="66.96" style="stroke: #000000; stroke-width: 0.8"/>
      </g>
     </g>
     <g id="text_15">
      <!-- 15.0 -->
      <g transform="translate(42.734375 70.759219) scale(0.1 -0.1)">
       <use xlink:href="#DejaVuSans-31"/>
       <use xlink:href="#DejaVuSans-35" x="63.623047"/>
       <use xlink:href="#DejaVuSans-2e" x="127.246094"/>
       <use xlink:href="#DejaVuSans-30" x="159.033203"/>
      </g>
     </g>
    </g>
   </g>
   <g id="line2d_16">
    <path d="M 92.290909 319.125312 
L 96.349091 319.352112 
L 100.407273 319.876776 
L 104.465455 320.526936 
L 108.523636 321.231528 
L 112.581818 321.960312 
L 116.64 322.704216 
L 120.698182 323.457192 
L 124.756364 324.217728 
L 128.814545 324.979776 
L 132.872727 325.74636 
L 136.930909 326.514456 
L 140.989091 327.284064 
L 145.047273 328.053672 
L 149.105455 328.82328 
L 153.163636 329.592888 
L 157.221818 330.360984 
L 161.28 331.127568 
L 165.338182 331.89264 
L 169.396364 332.6562 
L 173.454545 333.416736 
L 177.512727 334.174248 
L 181.570909 334.930248 
L 185.629091 335.6802 
L 189.687273 336.42864 
L 193.745455 337.172544 
L 197.803636 337.9104 
L 201.861818 338.645232 
L 205.92 339.374016 
L 209.978182 340.098264 
L 214.036364 340.817976 
L 218.094545 341.530128 
L 222.152727 342.237744 
L 226.210909 342.939312 
L 230.269091 343.63332 
L 234.327273 344.32128 
L 238.385455 345.00168 
L 242.443636 345.676032 
L 246.501818 346.341312 
L 250.56 347.000544 
L 254.618182 347.652216 
L 258.676364 348.294816 
L 262.734545 348.929856 
L 266.792727 349.557336 
L 270.850909 350.175744 
L 274.909091 350.786592 
L 278.967273 351.386856 
L 283.025455 351.97956 
L 287.083636 352.563192 
L 291.141818 353.137752 
L 295.2 353.70324 
L 299.258182 354.258144 
L 303.316364 354.803976 
L 307.374545 355.340736 
L 311.432727 355.866912 
L 315.490909 356.384016 
L 319.549091 356.890536 
L 323.607273 357.386472 
L 327.665455 357.873336 
L 331.723636 358.349616 
L 335.781818 358.815312 
L 339.84 359.270424 
L 343.898182 359.714952 
L 347.956364 360.148896 
L 352.014545 360.572256 
L 356.072727 360.985032 
L 360.130909 361.385712 
L 364.189091 361.77732 
L 368.247273 362.156832 
L 372.305455 362.524248 
L 376.363636 362.882592 
L 380.421818 363.22884 
L 384.48 363.562992 
L 388.538182 363.88656 
L 392.596364 364.199544 
L 396.654545 364.500432 
L 400.712727 364.789224 
L 404.770909 365.067432 
L 408.829091 365.333544 
L 412.887273 365.589072 
L 416.945455 365.832504 
L 421.003636 366.06384 
L 425.061818 366.28308 
L 429.12 366.491736 
L 433.178182 366.688296 
L 437.236364 366.87276 
L 441.294545 367.045128 
L 445.352727 367.206912 
L 449.410909 367.3566 
L 453.469091 367.494192 
L 457.527273 367.619688 
L 461.585455 367.733088 
L 465.643636 367.834392 
L 469.701818 367.9236 
L 473.76 368.002224 
L 477.818182 368.06724 
L 481.876364 368.121672 
L 485.934545 368.164008 
L 489.992727 368.192736 
L 494.050909 368.21088 
L 498.109091 368.216928 
" clip-path="url(#p341777b9bf)" style="fill: none; stroke: #000000; stroke-opacity: 0.5; stroke-linecap: square"/>
   </g>
   <g id="line2d_17">
    <path d="M 92.290909 316.762056 
L 96.349091 316.539792 
L 100.407273 316.021176 
L 104.465455 315.384624 
L 108.523636 314.699688 
L 112.581818 313.993584 
L 116.64 313.276896 
L 120.698182 312.557184 
L 124.756364 311.834448 
L 128.814545 311.113224 
L 132.872727 310.392 
L 136.930909 309.672288 
L 140.989091 308.9556 
L 145.047273 308.240424 
L 149.105455 307.528272 
L 153.163636 306.817632 
L 157.221818 306.111528 
L 161.28 305.405424 
L 165.338182 304.703856 
L 169.396364 304.0038 
L 173.454545 303.305256 
L 177.512727 302.609736 
L 181.570909 301.915728 
L 185.629091 301.223232 
L 189.687273 300.532248 
L 193.745455 299.841264 
L 197.803636 299.153304 
L 201.861818 298.465344 
L 205.92 297.777384 
L 209.978182 297.089424 
L 214.036364 296.402976 
L 218.094545 295.715016 
L 222.152727 295.027056 
L 226.210909 294.339096 
L 230.269091 293.649624 
L 234.327273 292.95864 
L 238.385455 292.267656 
L 242.443636 291.57516 
L 246.501818 290.87964 
L 250.56 290.18412 
L 254.618182 289.485576 
L 258.676364 288.78552 
L 262.734545 288.08244 
L 266.792727 287.376336 
L 270.850909 286.66872 
L 274.909091 285.95808 
L 278.967273 285.245928 
L 283.025455 284.52924 
L 287.083636 283.81104 
L 291.141818 283.088304 
L 295.2 282.364056 
L 299.258182 281.635272 
L 303.316364 280.904976 
L 307.374545 280.170144 
L 311.432727 279.4338 
L 315.490909 278.69292 
L 319.549091 277.950528 
L 323.607273 277.2036 
L 327.665455 276.45516 
L 331.723636 275.703696 
L 335.781818 274.949208 
L 339.84 274.193208 
L 343.898182 273.434184 
L 347.956364 272.673648 
L 352.014545 271.9116 
L 356.072727 271.14804 
L 360.130909 270.382968 
L 364.189091 269.616384 
L 368.247273 268.8498 
L 372.305455 268.083216 
L 376.363636 267.316632 
L 380.421818 266.55156 
L 384.48 265.786488 
L 388.538182 265.02444 
L 392.596364 264.263904 
L 396.654545 263.506392 
L 400.712727 262.753416 
L 404.770909 262.004976 
L 408.829091 261.262584 
L 412.887273 260.52624 
L 416.945455 259.798968 
L 421.003636 259.079256 
L 425.061818 258.37164 
L 429.12 257.67612 
L 433.178182 256.994208 
L 437.236364 256.328928 
L 441.294545 255.681792 
L 445.352727 255.054312 
L 449.410909 254.451024 
L 453.469091 253.874952 
L 457.527273 253.327608 
L 461.585455 252.81504 
L 465.643636 252.33876 
L 469.701818 251.904816 
L 473.76 251.516232 
L 477.818182 251.179056 
L 481.876364 250.8948 
L 485.934545 250.669512 
L 489.992727 250.506216 
L 494.050909 250.406424 
L 498.109091 250.37316 
" clip-path="url(#p341777b9bf)" style="fill: none; stroke: #000000; stroke-opacity: 0.5; stroke-linecap: square"/>
   </g>
   <g id="line2d_18">
    <path d="M 92.290909 261.31248 
L 96.349091 261.379008 
L 100.407273 261.552888 
L 104.465455 261.787248 
L 108.523636 262.048824 
L 112.581818 262.314936 
L 116.64 262.575 
L 120.698182 262.825992 
L 124.756364 263.060352 
L 128.814545 263.27808 
L 132.872727 263.477664 
L 136.930909 263.657592 
L 140.989091 263.819376 
L 145.047273 263.959992 
L 149.105455 264.080952 
L 153.163636 264.182256 
L 157.221818 264.262392 
L 161.28 264.324384 
L 165.338182 264.365208 
L 169.396364 264.386376 
L 173.454545 264.387888 
L 177.512727 264.371256 
L 181.570909 264.333456 
L 185.629091 264.277512 
L 189.687273 264.203424 
L 193.745455 264.10968 
L 197.803636 263.999304 
L 201.861818 263.869272 
L 205.92 263.721096 
L 209.978182 263.556288 
L 214.036364 263.371824 
L 218.094545 263.17224 
L 222.152727 262.954512 
L 226.210909 262.720152 
L 230.269091 262.46916 
L 234.327273 262.201536 
L 238.385455 261.91728 
L 242.443636 261.617904 
L 246.501818 261.301896 
L 250.56 260.970768 
L 254.618182 260.62452 
L 258.676364 260.263152 
L 262.734545 259.886664 
L 266.792727 259.495056 
L 270.850909 259.088328 
L 274.909091 258.669504 
L 278.967273 258.234048 
L 283.025455 257.786496 
L 287.083636 257.325336 
L 291.141818 256.850568 
L 295.2 256.362192 
L 299.258182 255.86172 
L 303.316364 255.349152 
L 307.374545 254.822976 
L 311.432727 254.286216 
L 315.490909 253.73736 
L 319.549091 253.176408 
L 323.607273 252.604872 
L 327.665455 252.022752 
L 331.723636 251.428536 
L 335.781818 250.82676 
L 339.84 250.2144 
L 343.898182 249.591456 
L 347.956364 248.960952 
L 352.014545 248.322888 
L 356.072727 247.675752 
L 360.130909 247.021056 
L 364.189091 246.360312 
L 368.247273 245.692008 
L 372.305455 245.019168 
L 376.363636 244.341792 
L 380.421818 243.65988 
L 384.48 242.974944 
L 388.538182 242.286984 
L 392.596364 241.597512 
L 396.654545 240.90804 
L 400.712727 240.22008 
L 404.770909 239.53212 
L 408.829091 238.848696 
L 412.887273 238.169808 
L 416.945455 237.495456 
L 421.003636 236.830176 
L 425.061818 236.17548 
L 429.12 235.531368 
L 433.178182 234.902376 
L 437.236364 234.288504 
L 441.294545 233.692776 
L 445.352727 233.119728 
L 449.410909 232.570872 
L 453.469091 232.049232 
L 457.527273 231.557832 
L 461.585455 231.099696 
L 465.643636 230.67936 
L 469.701818 230.298336 
L 473.76 229.959648 
L 477.818182 229.669344 
L 481.876364 229.427424 
L 485.934545 229.238424 
L 489.992727 229.126536 
L 494.050909 229.16736 
L 498.109091 229.191552 
" clip-path="url(#p341777b9bf)" style="fill: none; stroke: #000000; stroke-opacity: 0.5; stroke-linecap: square"/>
   </g>
   <g id="line2d_19">
    <path d="M 92.290909 259.015752 
L 96.349091 258.926544 
L 100.407273 258.686136 
L 104.465455 258.338376 
L 108.523636 257.919552 
L 112.581818 257.44932 
L 116.64 256.941288 
L 120.698182 256.399992 
L 124.756364 255.829968 
L 128.814545 255.232728 
L 132.872727 254.611296 
L 136.930909 253.967184 
L 140.989091 253.300392 
L 145.047273 252.612432 
L 149.105455 251.904816 
L 153.163636 251.177544 
L 157.221818 250.430616 
L 161.28 249.667056 
L 165.338182 248.886864 
L 169.396364 248.09004 
L 173.454545 247.276584 
L 177.512727 246.451032 
L 181.570909 245.611872 
L 185.629091 244.759104 
L 189.687273 243.895752 
L 193.745455 243.023328 
L 197.803636 242.14032 
L 201.861818 241.251264 
L 205.92 240.354648 
L 209.978182 239.453496 
L 214.036364 238.54932 
L 218.094545 237.64212 
L 222.152727 236.73492 
L 226.210909 235.829232 
L 230.269091 234.925056 
L 234.327273 234.026928 
L 238.385455 233.133336 
L 242.443636 232.248816 
L 246.501818 231.37488 
L 250.56 230.51304 
L 254.618182 229.66632 
L 258.676364 228.836232 
L 262.734545 228.024288 
L 266.792727 227.233512 
L 270.850909 226.465416 
L 274.909091 225.724536 
L 278.967273 225.010872 
L 283.025455 224.327448 
L 287.083636 223.677288 
L 291.141818 223.060392 
L 295.2 222.481296 
L 299.258182 221.938488 
L 303.316364 221.436504 
L 307.374545 220.975344 
L 311.432727 220.558032 
L 315.490909 220.181544 
L 319.549091 219.850416 
L 323.607273 219.561624 
L 327.665455 219.318192 
L 331.723636 219.117096 
L 335.781818 218.959848 
L 339.84 218.844936 
L 343.898182 218.77236 
L 347.956364 218.739096 
L 352.014545 218.745144 
L 356.072727 218.788992 
L 360.130909 218.867616 
L 364.189091 218.981016 
L 368.247273 219.12768 
L 372.305455 219.304584 
L 376.363636 219.511728 
L 380.421818 219.746088 
L 384.48 220.00464 
L 388.538182 220.288896 
L 392.596364 220.59432 
L 396.654545 220.9194 
L 400.712727 221.264136 
L 404.770909 221.627016 
L 408.829091 222.003504 
L 412.887273 222.3936 
L 416.945455 222.795792 
L 421.003636 223.207056 
L 425.061818 223.62588 
L 429.12 224.050752 
L 433.178182 224.478648 
L 437.236364 224.906544 
L 441.294545 225.33444 
L 445.352727 225.7578 
L 449.410909 226.172088 
L 453.469091 226.577304 
L 457.527273 226.9674 
L 461.585455 227.339352 
L 465.643636 227.688624 
L 469.701818 228.012192 
L 473.76 228.304008 
L 477.818182 228.561048 
L 481.876364 228.778776 
L 485.934545 228.949632 
L 489.992727 229.049424 
L 494.050909 229.002552 
L 498.109091 228.976848 
" clip-path="url(#p341777b9bf)" style="fill: none; stroke: #000000; stroke-opacity: 0.5; stroke-linecap: square"/>
   </g>
   <g id="line2d_20">
    <path d="M 92.290909 146.8692 
L 96.349091 146.8692 
L 100.407273 146.864664 
L 104.465455 146.857104 
L 108.523636 146.848032 
L 112.581818 146.834424 
L 116.64 146.819304 
L 120.698182 146.80116 
L 124.756364 146.779992 
L 128.814545 146.757312 
L 132.872727 146.734632 
L 136.930909 146.713464 
L 140.989091 146.696832 
L 145.047273 146.692296 
L 149.105455 146.714976 
L 153.163636 146.796624 
L 157.221818 146.99016 
L 161.28 147.359088 
L 165.338182 147.907944 
L 169.396364 148.57776 
L 173.454545 149.315616 
L 177.512727 150.088248 
L 181.570909 150.877512 
L 185.629091 151.672824 
L 189.687273 152.466624 
L 193.745455 153.252864 
L 197.803636 154.030032 
L 201.861818 154.79208 
L 205.92 155.539008 
L 209.978182 156.269304 
L 214.036364 156.978432 
L 218.094545 157.666392 
L 222.152727 158.331672 
L 226.210909 158.971248 
L 230.269091 159.586632 
L 234.327273 160.173288 
L 238.385455 160.731216 
L 242.443636 161.258904 
L 246.501818 161.75484 
L 250.56 162.216 
L 254.618182 162.643896 
L 258.676364 163.03248 
L 262.734545 163.384776 
L 266.792727 163.694736 
L 270.850909 163.963872 
L 274.909091 164.18916 
L 278.967273 164.369088 
L 283.025455 164.503656 
L 287.083636 164.588328 
L 291.141818 164.623104 
L 295.2 164.607984 
L 299.258182 164.541456 
L 303.316364 164.420496 
L 307.374545 164.246616 
L 311.432727 164.019816 
L 315.490909 163.740096 
L 319.549091 163.405944 
L 323.607273 163.018872 
L 327.665455 162.57888 
L 331.723636 162.090504 
L 335.781818 161.552232 
L 339.84 160.967088 
L 343.898182 160.338096 
L 347.956364 159.666768 
L 352.014545 158.959152 
L 356.072727 158.221296 
L 360.130909 157.466808 
L 364.189091 156.751632 
L 368.247273 156.517272 
L 372.305455 157.481928 
L 376.363636 158.744448 
L 380.421818 160.03872 
L 384.48 161.33148 
L 388.538182 162.612144 
L 392.596364 163.877688 
L 396.654545 165.123576 
L 400.712727 166.348296 
L 404.770909 167.551848 
L 408.829091 168.731208 
L 412.887273 169.883352 
L 416.945455 171.009792 
L 421.003636 172.105992 
L 425.061818 173.17044 
L 429.12 174.201624 
L 433.178182 175.198032 
L 437.236364 176.155128 
L 441.294545 177.072912 
L 445.352727 177.945336 
L 449.410909 178.773912 
L 453.469091 179.55108 
L 457.527273 180.27684 
L 461.585455 180.945144 
L 465.643636 181.555992 
L 469.701818 182.104848 
L 473.76 182.587176 
L 477.818182 183.001464 
L 481.876364 183.344688 
L 485.934545 183.615336 
L 489.992727 183.808872 
L 494.050909 183.926808 
L 498.109091 183.964608 
" clip-path="url(#p341777b9bf)" style="fill: none; stroke: #000000; stroke-opacity: 0.5; stroke-linecap: square"/>
   </g>
   <g id="line2d_21">
    <path d="M 92.290909 142.405776 
L 96.349091 142.402752 
L 100.407273 142.396704 
L 104.465455 142.389144 
L 108.523636 142.381584 
L 112.581818 142.37856 
L 116.64 142.387632 
L 120.698182 142.413336 
L 124.756364 142.46928 
L 128.814545 142.56756 
L 132.872727 142.723296 
L 136.930909 142.951608 
L 140.989091 143.26308 
L 145.047273 143.6562 
L 149.105455 144.112824 
L 153.163636 144.589104 
L 157.221818 145.012464 
L 161.28 145.30428 
L 165.338182 145.443384 
L 169.396364 145.475136 
L 173.454545 145.443384 
L 177.512727 145.373832 
L 181.570909 145.278576 
L 185.629091 145.165176 
L 189.687273 145.036656 
L 193.745455 144.89604 
L 197.803636 144.743328 
L 201.861818 144.580032 
L 205.92 144.406152 
L 209.978182 144.224712 
L 214.036364 144.032688 
L 218.094545 143.833104 
L 222.152727 143.624448 
L 226.210909 143.40672 
L 230.269091 143.182944 
L 234.327273 142.951608 
L 238.385455 142.712712 
L 242.443636 142.466256 
L 246.501818 142.213752 
L 250.56 141.9552 
L 254.618182 141.6906 
L 258.676364 141.421464 
L 262.734545 141.14628 
L 266.792727 140.868072 
L 270.850909 140.588352 
L 274.909091 140.304096 
L 278.967273 140.021352 
L 283.025455 139.74012 
L 287.083636 139.463424 
L 291.141818 139.1958 
L 295.2 138.944808 
L 299.258182 138.722544 
L 303.316364 138.554712 
L 307.374545 138.482136 
L 311.432727 138.587976 
L 315.490909 138.990168 
L 319.549091 139.75524 
L 323.607273 140.815152 
L 327.665455 142.050456 
L 331.723636 143.377992 
L 335.781818 144.749376 
L 339.84 146.144952 
L 343.898182 147.546576 
L 347.956364 148.949712 
L 352.014545 150.3468 
L 356.072727 151.728768 
L 360.130909 153.08352 
L 364.189091 154.358136 
L 368.247273 155.112624 
L 372.305455 154.631808 
L 376.363636 153.819864 
L 380.421818 152.948952 
L 384.48 152.056872 
L 388.538182 151.161768 
L 392.596364 150.280272 
L 396.654545 149.429016 
L 400.712727 148.63068 
L 404.770909 147.91248 
L 408.829091 147.312216 
L 412.887273 146.8692 
L 416.945455 146.609136 
L 421.003636 146.538072 
L 425.061818 146.628792 
L 429.12 146.843496 
L 433.178182 147.139848 
L 437.236364 147.484584 
L 441.294545 147.853512 
L 445.352727 148.23 
L 449.410909 148.60044 
L 453.469091 148.957272 
L 457.527273 149.29596 
L 461.585455 149.608944 
L 465.643636 149.894712 
L 469.701818 150.151752 
L 473.76 150.378552 
L 477.818182 150.570576 
L 481.876364 150.729336 
L 485.934545 150.85332 
L 489.992727 150.942528 
L 494.050909 150.99696 
L 498.109091 151.015104 
" clip-path="url(#p341777b9bf)" style="fill: none; stroke: #000000; stroke-opacity: 0.5; stroke-linecap: square"/>
   </g>
   <g id="line2d_22">
    <path d="M 92.290909 124.606512 
L 96.349091 125.657352 
L 100.407273 126.814032 
L 104.465455 127.94652 
L 108.523636 129.047256 
L 112.581818 130.111704 
L 116.64 131.132304 
L 120.698182 132.101496 
L 124.756364 133.005672 
L 128.814545 133.831224 
L 132.872727 134.560008 
L 136.930909 135.176904 
L 140.989091 135.666792 
L 145.047273 136.0206 
L 149.105455 136.245888 
L 153.163636 136.351728 
L 157.221818 136.356264 
L 161.28 136.276128 
L 165.338182 136.127952 
L 169.396364 135.92232 
L 173.454545 135.669816 
L 177.512727 135.376488 
L 181.570909 135.048384 
L 185.629091 134.688528 
L 189.687273 134.301456 
L 193.745455 133.890192 
L 197.803636 133.454736 
L 201.861818 132.9966 
L 205.92 132.518808 
L 209.978182 132.019848 
L 214.036364 131.502744 
L 218.094545 130.967496 
L 222.152727 130.415616 
L 226.210909 129.845592 
L 230.269091 129.258936 
L 234.327273 128.65716 
L 238.385455 128.040264 
L 242.443636 127.408248 
L 246.501818 126.762624 
L 250.56 126.104904 
L 254.618182 125.435088 
L 258.676364 124.7562 
L 262.734545 124.072776 
L 266.792727 123.390864 
L 270.850909 122.73768 
L 274.909091 122.240232 
L 278.967273 122.606136 
L 283.025455 123.907968 
L 287.083636 125.382168 
L 291.141818 126.877536 
L 295.2 128.359296 
L 299.258182 129.807792 
L 303.316364 131.195808 
L 307.374545 132.477984 
L 311.432727 133.57116 
L 315.490909 134.3574 
L 319.549091 134.770176 
L 323.607273 134.877528 
L 327.665455 134.797392 
L 331.723636 134.61444 
L 335.781818 134.374032 
L 339.84 134.10036 
L 343.898182 133.80552 
L 347.956364 133.498584 
L 352.014545 133.184088 
L 356.072727 132.866568 
L 360.130909 132.552072 
L 364.189091 132.24816 
L 368.247273 131.980536 
L 372.305455 131.891328 
L 376.363636 132.402384 
L 380.421818 133.256664 
L 384.48 134.136648 
L 388.538182 134.983368 
L 392.596364 135.772632 
L 396.654545 136.484784 
L 400.712727 137.10168 
L 404.770909 137.591568 
L 408.829091 137.922696 
L 412.887273 138.058776 
L 416.945455 137.97108 
L 421.003636 137.66112 
L 425.061818 137.1546 
L 429.12 136.493856 
L 433.178182 135.72576 
L 437.236364 134.883576 
L 441.294545 133.999056 
L 445.352727 133.091856 
L 449.410909 132.18012 
L 453.469091 131.277456 
L 457.527273 130.39596 
L 461.585455 129.547728 
L 465.643636 128.743344 
L 469.701818 127.996416 
L 473.76 127.317528 
L 477.818182 126.717264 
L 481.876364 126.209232 
L 485.934545 125.808552 
L 489.992727 125.528832 
L 494.050909 125.386704 
L 498.109091 125.348904 
" clip-path="url(#p341777b9bf)" style="fill: none; stroke: #000000; stroke-opacity: 0.5; stroke-linecap: square"/>
   </g>
   <g id="line2d_23">
    <path d="M 92.290909 124.319232 
L 96.349091 123.245712 
L 100.407273 122.020992 
L 104.465455 120.775104 
L 108.523636 119.511072 
L 112.581818 118.228896 
L 116.64 116.9316 
L 120.698182 115.619184 
L 124.756364 114.29316 
L 128.814545 112.953528 
L 132.872727 111.600288 
L 136.930909 110.234952 
L 140.989091 108.85752 
L 145.047273 107.467992 
L 149.105455 106.06788 
L 153.163636 104.658696 
L 157.221818 103.238928 
L 161.28 101.808576 
L 165.338182 100.370664 
L 169.396364 98.925192 
L 173.454545 97.47216 
L 177.512727 96.014592 
L 181.570909 94.552488 
L 185.629091 93.093408 
L 189.687273 91.649448 
L 193.745455 90.299232 
L 197.803636 89.854704 
L 201.861818 91.162584 
L 205.92 92.757744 
L 209.978182 94.39524 
L 214.036364 96.044832 
L 218.094545 97.69896 
L 222.152727 99.351576 
L 226.210909 101.004192 
L 230.269091 102.655296 
L 234.327273 104.301864 
L 238.385455 105.94692 
L 242.443636 107.585928 
L 246.501818 109.218888 
L 250.56 110.847312 
L 254.618182 112.468176 
L 258.676364 114.078456 
L 262.734545 115.67664 
L 266.792727 117.252144 
L 270.850909 118.7838 
L 274.909091 120.140064 
L 278.967273 120.619368 
L 283.025455 120.146112 
L 287.083636 119.488392 
L 291.141818 118.797408 
L 295.2 118.115496 
L 299.258182 117.46836 
L 303.316364 116.8938 
L 307.374545 116.449272 
L 311.432727 116.230032 
L 315.490909 116.337384 
L 319.549091 116.8182 
L 323.607273 117.607464 
L 327.665455 118.5948 
L 331.723636 119.695536 
L 335.781818 120.852216 
L 339.84 122.036112 
L 343.898182 123.226056 
L 347.956364 124.411464 
L 352.014545 125.581752 
L 356.072727 126.732384 
L 360.130909 127.854288 
L 364.189091 128.93688 
L 368.247273 129.952944 
L 372.305455 130.75884 
L 376.363636 130.928184 
L 380.421818 130.716504 
L 384.48 130.43376 
L 388.538182 130.134384 
L 392.596364 129.831984 
L 396.654545 129.531096 
L 400.712727 129.234744 
L 404.770909 128.942928 
L 408.829091 128.658672 
L 412.887273 128.381976 
L 416.945455 128.11284 
L 421.003636 127.852776 
L 425.061818 127.601784 
L 429.12 127.361376 
L 433.178182 127.131552 
L 437.236364 126.912312 
L 441.294545 126.705168 
L 445.352727 126.51012 
L 449.410909 126.327168 
L 453.469091 126.157824 
L 457.527273 126.000576 
L 461.585455 125.858448 
L 465.643636 125.729928 
L 469.701818 125.615016 
L 473.76 125.513712 
L 477.818182 125.427528 
L 481.876364 125.35344 
L 485.934545 125.288424 
L 489.992727 125.227944 
L 494.050909 125.162928 
L 498.109091 125.131176 
" clip-path="url(#p341777b9bf)" style="fill: none; stroke: #000000; stroke-opacity: 0.5; stroke-linecap: square"/>
   </g>
   <g id="patch_3">
    <path d="M 72 384.48 
L 72 51.84 
" style="fill: none; stroke: #000000; stroke-width: 0.8; stroke-linejoin: miter; stroke-linecap: square"/>
   </g>
   <g id="patch_4">
    <path d="M 518.4 384.48 
L 518.4 51.84 
" style="fill: none; stroke: #000000; stroke-width: 0.8; stroke-linejoin: miter; stroke-linecap: square"/>
   </g>
   <g id="patch_5">
    <path d="M 72 384.48 
L 518.4 384.48 
" style="fill: none; stroke: #000000; stroke-width: 0.8; stroke-linejoin: miter; stroke-linecap: square"/>
   </g>
   <g id="patch_6">
    <path d="M 72 51.84 
L 518.4 51.84 
" style="fill: none; stroke: #000000; stroke-width: 0.8; stroke-linejoin: miter; stroke-linecap: square"/>
   </g>
  </g>
 </g>
 <defs>
  <clipPath id="p341777b9bf">
   <rect x="72" y="51.84" width="446.4" height="332.64"/>
  </clipPath>
 </defs>
</svg>
