<?xml version="1.0" encoding="utf-8" standalone="no"?>
<!DOCTYPE svg PUBLIC "-//W3C//DTD SVG 1.1//EN"
  "http://www.w3.org/Graphics/SVG/1.1/DTD/svg11.dtd">
<svg xmlns:xlink="http://www.w3.org/1999/xlink" width="576pt" height="432pt" viewBox="0 0 576 432" xmlns="http://www.w3.org/2000/svg" version="1.1">
 <metadata>
  <rdf:RDF xmlns:dc="http://purl.org/dc/elements/1.1/" xmlns:cc="http://creativecommons.org/ns#" xmlns:rdf="http://www.w3.org/1999/02/22-rdf-syntax-ns#">
   <cc:Work>
    <dc:type rdf:resource="http://purl.org/dc/dcmitype/StillImage"/>
    <dc:date>2023-05-04T05:43:41.180638</dc:date>
    <dc:format>image/svg+xml</dc:format>
    <dc:creator>
     <cc:Agent>
      <dc:title>Matplotlib v3.7.1, https://matplotlib.org/</dc:title>
     </cc:Agent>
    </dc:creator>
   </cc:Work>
  </rdf:RDF>
 </metadata>
 <defs>
  <style type="text/css">*{stroke-linejoin: round; stroke-linecap: butt}</style>
 </defs>
 <g id="figure_1">
  <g id="patch_1">
   <path d="M 0 432 
L 576 432 
L 576 0 
L 0 0 
z
" style="fill: #ffffff"/>
  </g>
  <g id="axes_1">
   <g id="patch_2">
    <path d="M 72 384.48 
L 518.4 384.48 
L 518.4 51.84 
L 72 51.84 
z
" style="fill: #ffffff"/>
   </g>
   <g id="matplotlib.axis_1">
    <g id="xtick_1">
     <g id="line2d_1">
      <defs>
       <path id="mc3befde761" d="M 0 0 
L 0 3.5 
" style="stroke: #000000; stroke-width: 0.8"/>
      </defs>
      <g>
       <use xlink:href="#mc3befde761" x="92.290909" y="384.48" style="stroke: #000000; stroke-width: 0.8"/>
      </g>
     </g>
     <g id="text_1">
      <!-- 0.0 -->
      <g transform="translate(84.339347 399.078438) scale(0.1 -0.1)">
       <defs>
        <path id="DejaVuSans-30" d="M 2034 4250 
Q 1547 4250 1301 3770 
Q 1056 3291 1056 2328 
Q 1056 1369 1301 889 
Q 1547 409 2034 409 
Q 2525 409 2770 889 
Q 3016 1369 3016 2328 
Q 3016 3291 2770 3770 
Q 2525 4250 2034 4250 
z
M 2034 4750 
Q 2819 4750 3233 4129 
Q 3647 3509 3647 2328 
Q 3647 1150 3233 529 
Q 2819 -91 2034 -91 
Q 1250 -91 836 529 
Q 422 1150 422 2328 
Q 422 3509 836 4129 
Q 1250 4750 2034 4750 
z
" transform="scale(0.015625)"/>
        <path id="DejaVuSans-2e" d="M 684 794 
L 1344 794 
L 1344 0 
L 684 0 
L 684 794 
z
" transform="scale(0.015625)"/>
       </defs>
       <use xlink:href="#DejaVuSans-30"/>
       <use xlink:href="#DejaVuSans-2e" x="63.623047"/>
       <use xlink:href="#DejaVuSans-30" x="95.410156"/>
      </g>
     </g>
    </g>
    <g id="xtick_2">
     <g id="line2d_2">
      <g>
       <use xlink:href="#mc3befde761" x="173.454545" y="384.48" style="stroke: #000000; stroke-width: 0.8"/>
      </g>
     </g>
     <g id="text_2">
      <!-- 0.2 -->
      <g transform="translate(165.502983 399.078438) scale(0.1 -0.1)">
       <defs>
        <path id="DejaVuSans-32" d="M 1228 531 
L 3431 531 
L 3431 0 
L 469 0 
L 469 531 
Q 828 903 1448 1529 
Q 2069 2156 2228 2338 
Q 2531 2678 2651 2914 
Q 2772 3150 2772 3378 
Q 2772 3750 2511 3984 
Q 2250 4219 1831 4219 
Q 1534 4219 1204 4116 
Q 875 4013 500 3803 
L 500 4441 
Q 881 4594 1212 4672 
Q 1544 4750 1819 4750 
Q 2544 4750 2975 4387 
Q 3406 4025 3406 3419 
Q 3406 3131 3298 2873 
Q 3191 2616 2906 2266 
Q 2828 2175 2409 1742 
Q 1991 1309 1228 531 
z
" transform="scale(0.015625)"/>
       </defs>
       <use xlink:href="#DejaVuSans-30"/>
       <use xlink:href="#DejaVuSans-2e" x="63.623047"/>
       <use xlink:href="#DejaVuSans-32" x="95.410156"/>
      </g>
     </g>
    </g>
    <g id="xtick_3">
     <g id="line2d_3">
      <g>
       <use xlink:href="#mc3befde761" x="254.618182" y="384.48" style="stroke: #000000; stroke-width: 0.8"/>
      </g>
     </g>
     <g id="text_3">
      <!-- 0.4 -->
      <g transform="translate(246.666619 399.078438) scale(0.1 -0.1)">
       <defs>
        <path id="DejaVuSans-34" d="M 2419 4116 
L 825 1625 
L 2419 1625 
L 2419 4116 
z
M 2253 4666 
L 3047 4666 
L 3047 1625 
L 3713 1625 
L 3713 1100 
L 3047 1100 
L 3047 0 
L 2419 0 
L 2419 1100 
L 313 1100 
L 313 1709 
L 2253 4666 
z
" transform="scale(0.015625)"/>
       </defs>
       <use xlink:href="#DejaVuSans-30"/>
       <use xlink:href="#DejaVuSans-2e" x="63.623047"/>
       <use xlink:href="#DejaVuSans-34" x="95.410156"/>
      </g>
     </g>
    </g>
    <g id="xtick_4">
     <g id="line2d_4">
      <g>
       <use xlink:href="#mc3befde761" x="335.781818" y="384.48" style="stroke: #000000; stroke-width: 0.8"/>
      </g>
     </g>
     <g id="text_4">
      <!-- 0.6 -->
      <g transform="translate(327.830256 399.078438) scale(0.1 -0.1)">
       <defs>
        <path id="DejaVuSans-36" d="M 2113 2584 
Q 1688 2584 1439 2293 
Q 1191 2003 1191 1497 
Q 1191 994 1439 701 
Q 1688 409 2113 409 
Q 2538 409 2786 701 
Q 3034 994 3034 1497 
Q 3034 2003 2786 2293 
Q 2538 2584 2113 2584 
z
M 3366 4563 
L 3366 3988 
Q 3128 4100 2886 4159 
Q 2644 4219 2406 4219 
Q 1781 4219 1451 3797 
Q 1122 3375 1075 2522 
Q 1259 2794 1537 2939 
Q 1816 3084 2150 3084 
Q 2853 3084 3261 2657 
Q 3669 2231 3669 1497 
Q 3669 778 3244 343 
Q 2819 -91 2113 -91 
Q 1303 -91 875 529 
Q 447 1150 447 2328 
Q 447 3434 972 4092 
Q 1497 4750 2381 4750 
Q 2619 4750 2861 4703 
Q 3103 4656 3366 4563 
z
" transform="scale(0.015625)"/>
       </defs>
       <use xlink:href="#DejaVuSans-30"/>
       <use xlink:href="#DejaVuSans-2e" x="63.623047"/>
       <use xlink:href="#DejaVuSans-36" x="95.410156"/>
      </g>
     </g>
    </g>
    <g id="xtick_5">
     <g id="line2d_5">
      <g>
       <use xlink:href="#mc3befde761" x="416.945455" y="384.48" style="stroke: #000000; stroke-width: 0.8"/>
      </g>
     </g>
     <g id="text_5">
      <!-- 0.8 -->
      <g transform="translate(408.993892 399.078438) scale(0.1 -0.1)">
       <defs>
        <path id="DejaVuSans-38" d="M 2034 2216 
Q 1584 2216 1326 1975 
Q 1069 1734 1069 1313 
Q 1069 891 1326 650 
Q 1584 409 2034 409 
Q 2484 409 2743 651 
Q 3003 894 3003 1313 
Q 3003 1734 2745 1975 
Q 2488 2216 2034 2216 
z
M 1403 2484 
Q 997 2584 770 2862 
Q 544 3141 544 3541 
Q 544 4100 942 4425 
Q 1341 4750 2034 4750 
Q 2731 4750 3128 4425 
Q 3525 4100 3525 3541 
Q 3525 3141 3298 2862 
Q 3072 2584 2669 2484 
Q 3125 2378 3379 2068 
Q 3634 1759 3634 1313 
Q 3634 634 3220 271 
Q 2806 -91 2034 -91 
Q 1263 -91 848 271 
Q 434 634 434 1313 
Q 434 1759 690 2068 
Q 947 2378 1403 2484 
z
M 1172 3481 
Q 1172 3119 1398 2916 
Q 1625 2713 2034 2713 
Q 2441 2713 2670 2916 
Q 2900 3119 2900 3481 
Q 2900 3844 2670 4047 
Q 2441 4250 2034 4250 
Q 1625 4250 1398 4047 
Q 1172 3844 1172 3481 
z
" transform="scale(0.015625)"/>
       </defs>
       <use xlink:href="#DejaVuSans-30"/>
       <use xlink:href="#DejaVuSans-2e" x="63.623047"/>
       <use xlink:href="#DejaVuSans-38" x="95.410156"/>
      </g>
     </g>
    </g>
    <g id="xtick_6">
     <g id="line2d_6">
      <g>
       <use xlink:href="#mc3befde761" x="498.109091" y="384.48" style="stroke: #000000; stroke-width: 0.8"/>
      </g>
     </g>
     <g id="text_6">
      <!-- 1.0 -->
      <g transform="translate(490.157528 399.078438) scale(0.1 -0.1)">
       <defs>
        <path id="DejaVuSans-31" d="M 794 531 
L 1825 531 
L 1825 4091 
L 703 3866 
L 703 4441 
L 1819 4666 
L 2450 4666 
L 2450 531 
L 3481 531 
L 3481 0 
L 794 0 
L 794 531 
z
" transform="scale(0.015625)"/>
       </defs>
       <use xlink:href="#DejaVuSans-31"/>
       <use xlink:href="#DejaVuSans-2e" x="63.623047"/>
       <use xlink:href="#DejaVuSans-30" x="95.410156"/>
      </g>
     </g>
    </g>
   </g>
   <g id="matplotlib.axis_2">
    <g id="ytick_1">
     <g id="line2d_7">
      <defs>
       <path id="mfdb47bfed2" d="M 0 0 
L -3.5 0 
" style="stroke: #000000; stroke-width: 0.8"/>
      </defs>
      <g>
       <use xlink:href="#mfdb47bfed2" x="72" y="369.36" style="stroke: #000000; stroke-width: 0.8"/>
      </g>
     </g>
     <g id="text_7">
      <!-- −5.0 -->
      <g transform="translate(40.717187 373.159219) scale(0.1 -0.1)">
       <defs>
        <path id="DejaVuSans-2212" d="M 678 2272 
L 4684 2272 
L 4684 1741 
L 678 1741 
L 678 2272 
z
" transform="scale(0.015625)"/>
        <path id="DejaVuSans-35" d="M 691 4666 
L 3169 4666 
L 3169 4134 
L 1269 4134 
L 1269 2991 
Q 1406 3038 1543 3061 
Q 1681 3084 1819 3084 
Q 2600 3084 3056 2656 
Q 3513 2228 3513 1497 
Q 3513 744 3044 326 
Q 2575 -91 1722 -91 
Q 1428 -91 1123 -41 
Q 819 9 494 109 
L 494 744 
Q 775 591 1075 516 
Q 1375 441 1709 441 
Q 2250 441 2565 725 
Q 2881 1009 2881 1497 
Q 2881 1984 2565 2268 
Q 2250 2553 1709 2553 
Q 1456 2553 1204 2497 
Q 953 2441 691 2322 
L 691 4666 
z
" transform="scale(0.015625)"/>
       </defs>
       <use xlink:href="#DejaVuSans-2212"/>
       <use xlink:href="#DejaVuSans-35" x="83.789062"/>
       <use xlink:href="#DejaVuSans-2e" x="147.412109"/>
       <use xlink:href="#DejaVuSans-30" x="179.199219"/>
      </g>
     </g>
    </g>
    <g id="ytick_2">
     <g id="line2d_8">
      <g>
       <use xlink:href="#mfdb47bfed2" x="72" y="331.56" style="stroke: #000000; stroke-width: 0.8"/>
      </g>
     </g>
     <g id="text_8">
      <!-- −2.5 -->
      <g transform="translate(40.717187 335.359219) scale(0.1 -0.1)">
       <use xlink:href="#DejaVuSans-2212"/>
       <use xlink:href="#DejaVuSans-32" x="83.789062"/>
       <use xlink:href="#DejaVuSans-2e" x="147.412109"/>
       <use xlink:href="#DejaVuSans-35" x="179.199219"/>
      </g>
     </g>
    </g>
    <g id="ytick_3">
     <g id="line2d_9">
      <g>
       <use xlink:href="#mfdb47bfed2" x="72" y="293.76" style="stroke: #000000; stroke-width: 0.8"/>
      </g>
     </g>
     <g id="text_9">
      <!-- 0.0 -->
      <g transform="translate(49.096875 297.559219) scale(0.1 -0.1)">
       <use xlink:href="#DejaVuSans-30"/>
       <use xlink:href="#DejaVuSans-2e" x="63.623047"/>
       <use xlink:href="#DejaVuSans-30" x="95.410156"/>
      </g>
     </g>
    </g>
    <g id="ytick_4">
     <g id="line2d_10">
      <g>
       <use xlink:href="#mfdb47bfed2" x="72" y="255.96" style="stroke: #000000; stroke-width: 0.8"/>
      </g>
     </g>
     <g id="text_10">
      <!-- 2.5 -->
      <g transform="translate(49.096875 259.759219) scale(0.1 -0.1)">
       <use xlink:href="#DejaVuSans-32"/>
       <use xlink:href="#DejaVuSans-2e" x="63.623047"/>
       <use xlink:href="#DejaVuSans-35" x="95.410156"/>
      </g>
     </g>
    </g>
    <g id="ytick_5">
     <g id="line2d_11">
      <g>
       <use xlink:href="#mfdb47bfed2" x="72" y="218.16" style="stroke: #000000; stroke-width: 0.8"/>
      </g>
     </g>
     <g id="text_11">
      <!-- 5.0 -->
      <g transform="translate(49.096875 221.959219) scale(0.1 -0.1)">
       <use xlink:href="#DejaVuSans-35"/>
       <use xlink:href="#DejaVuSans-2e" x="63.623047"/>
       <use xlink:href="#DejaVuSans-30" x="95.410156"/>
      </g>
     </g>
    </g>
    <g id="ytick_6">
     <g id="line2d_12">
      <g>
       <use xlink:href="#mfdb47bfed2" x="72" y="180.36" style="stroke: #000000; stroke-width: 0.8"/>
      </g>
     </g>
     <g id="text_12">
      <!-- 7.5 -->
      <g transform="translate(49.096875 184.159219) scale(0.1 -0.1)">
       <defs>
        <path id="DejaVuSans-37" d="M 525 4666 
L 3525 4666 
L 3525 4397 
L 1831 0 
L 1172 0 
L 2766 4134 
L 525 4134 
L 525 4666 
z
" transform="scale(0.015625)"/>
       </defs>
       <use xlink:href="#DejaVuSans-37"/>
       <use xlink:href="#DejaVuSans-2e" x="63.623047"/>
       <use xlink:href="#DejaVuSans-35" x="95.410156"/>
      </g>
     </g>
    </g>
    <g id="ytick_7">
     <g id="line2d_13">
      <g>
       <use xlink:href="#mfdb47bfed2" x="72" y="142.56" style="stroke: #000000; stroke-width: 0.8"/>
      </g>
     </g>
     <g id="text_13">
      <!-- 10.0 -->
      <g transform="translate(42.734375 146.359219) scale(0.1 -0.1)">
       <use xlink:href="#DejaVuSans-31"/>
       <use xlink:href="#DejaVuSans-30" x="63.623047"/>
       <use xlink:href="#DejaVuSans-2e" x="127.246094"/>
       <use xlink:href="#DejaVuSans-30" x="159.033203"/>
      </g>
     </g>
    </g>
    <g id="ytick_8">
     <g id="line2d_14">
      <g>
       <use xlink:href="#mfdb47bfed2" x="72" y="104.76" style="stroke: #000000; stroke-width: 0.8"/>
      </g>
     </g>
     <g id="text_14">
      <!-- 12.5 -->
      <g transform="translate(42.734375 108.559219) scale(0.1 -0.1)">
       <use xlink:href="#DejaVuSans-31"/>
       <use xlink:href="#DejaVuSans-32" x="63.623047"/>
       <use xlink:href="#DejaVuSans-2e" x="127.246094"/>
       <use xlink:href="#DejaVuSans-35" x="159.033203"/>
      </g>
     </g>
    </g>
    <g id="ytick_9">
     <g id="line2d_15">
      <g>
       <use xlink:href="#mfdb47bfed2" x="72" y="66.96" style="stroke: #000000; stroke-width: 0.8"/>
      </g>
     </g>
     <g id="text_15">
      <!-- 15.0 -->
      <g transform="translate(42.734375 70.759219) scale(0.1 -0.1)">
       <use xlink:href="#DejaVuSans-31"/>
       <use xlink:href="#DejaVuSans-35" x="63.623047"/>
       <use xlink:href="#DejaVuSans-2e" x="127.246094"/>
       <use xlink:href="#DejaVuSans-30" x="159.033203"/>
      </g>
     </g>
    </g>
   </g>
   <g id="line2d_16">
    <path d="M 92.290909 333.09468 
L 96.349091 333.100728 
L 100.407273 333.120384 
L 104.465455 333.150624 
L 108.523636 333.194472 
L 112.581818 333.250416 
L 116.64 333.319968 
L 120.698182 333.401616 
L 124.756364 333.498384 
L 128.814545 333.607248 
L 132.872727 333.72972 
L 136.930909 333.8658 
L 140.989091 334.015488 
L 145.047273 334.180296 
L 149.105455 334.360224 
L 153.163636 334.55376 
L 157.221818 334.762416 
L 161.28 334.98468 
L 165.338182 335.223576 
L 169.396364 335.474568 
L 173.454545 335.742192 
L 177.512727 336.023424 
L 181.570909 336.318264 
L 185.629091 336.626712 
L 189.687273 336.948768 
L 193.745455 337.284432 
L 197.803636 337.632192 
L 201.861818 337.990536 
L 205.92 338.360976 
L 209.978182 338.742 
L 214.036364 339.132096 
L 218.094545 339.532776 
L 222.152727 339.941016 
L 226.210909 340.356816 
L 230.269091 340.780176 
L 234.327273 341.209584 
L 238.385455 341.643528 
L 242.443636 342.08352 
L 246.501818 342.526536 
L 250.56 342.974088 
L 254.618182 343.423152 
L 258.676364 343.87524 
L 262.734545 344.327328 
L 266.792727 344.780928 
L 270.850909 345.23604 
L 274.909091 345.688128 
L 278.967273 346.140216 
L 283.025455 346.592304 
L 287.083636 347.039856 
L 291.141818 347.485896 
L 295.2 347.928912 
L 299.258182 348.368904 
L 303.316364 348.80436 
L 307.374545 349.23528 
L 311.432727 349.661664 
L 315.490909 350.083512 
L 319.549091 350.499312 
L 323.607273 350.909064 
L 327.665455 351.31428 
L 331.723636 351.711936 
L 335.781818 352.103544 
L 339.84 352.487592 
L 343.898182 352.86408 
L 347.956364 353.23452 
L 352.014545 353.595888 
L 356.072727 353.949696 
L 360.130909 354.295944 
L 364.189091 354.634632 
L 368.247273 354.964248 
L 372.305455 355.284792 
L 376.363636 355.596264 
L 380.421818 355.900176 
L 384.48 356.193504 
L 388.538182 356.479272 
L 392.596364 356.754456 
L 396.654545 357.020568 
L 400.712727 357.276096 
L 404.770909 357.524064 
L 408.829091 357.759936 
L 412.887273 357.988248 
L 416.945455 358.204464 
L 421.003636 358.411608 
L 425.061818 358.608168 
L 429.12 358.795656 
L 433.178182 358.971048 
L 437.236364 359.137368 
L 441.294545 359.293104 
L 445.352727 359.438256 
L 449.410909 359.572824 
L 453.469091 359.695296 
L 457.527273 359.808696 
L 461.585455 359.911512 
L 465.643636 360.003744 
L 469.701818 360.085392 
L 473.76 360.154944 
L 477.818182 360.215424 
L 481.876364 360.263808 
L 485.934545 360.301608 
L 489.992727 360.328824 
L 494.050909 360.345456 
L 498.109091 360.349992 
" clip-path="url(#p7409a0651a)" style="fill: none; stroke: #000000; stroke-opacity: 0.5; stroke-linecap: square"/>
   </g>
   <g id="line2d_17">
    <path d="M 92.290909 303.600096 
L 96.349091 303.606144 
L 100.407273 303.624288 
L 104.465455 303.654528 
L 108.523636 303.696864 
L 112.581818 303.748272 
L 116.64 303.810264 
L 120.698182 303.879816 
L 124.756364 303.955416 
L 128.814545 304.035552 
L 132.872727 304.120224 
L 136.930909 304.206408 
L 140.989091 304.292592 
L 145.047273 304.375752 
L 149.105455 304.455888 
L 153.163636 304.531488 
L 157.221818 304.598016 
L 161.28 304.656984 
L 165.338182 304.705368 
L 169.396364 304.743168 
L 173.454545 304.765848 
L 177.512727 304.776432 
L 181.570909 304.771896 
L 185.629091 304.750728 
L 189.687273 304.712928 
L 193.745455 304.656984 
L 197.803636 304.584408 
L 201.861818 304.492176 
L 205.92 304.3818 
L 209.978182 304.25328 
L 214.036364 304.105104 
L 218.094545 303.938784 
L 222.152727 303.751296 
L 226.210909 303.547176 
L 230.269091 303.3234 
L 234.327273 303.079968 
L 238.385455 302.818392 
L 242.443636 302.538672 
L 246.501818 302.24232 
L 250.56 301.926312 
L 254.618182 301.593672 
L 258.676364 301.2444 
L 262.734545 300.876984 
L 266.792727 300.494448 
L 270.850909 300.09528 
L 274.909091 299.67948 
L 278.967273 299.250072 
L 283.025455 298.804032 
L 287.083636 298.342872 
L 291.141818 297.868104 
L 295.2 297.379728 
L 299.258182 296.877744 
L 303.316364 296.362152 
L 307.374545 295.832952 
L 311.432727 295.290144 
L 315.490909 294.736752 
L 319.549091 294.171264 
L 323.607273 293.59368 
L 327.665455 293.004 
L 331.723636 292.405248 
L 335.781818 291.7944 
L 339.84 291.17448 
L 343.898182 290.543976 
L 347.956364 289.905912 
L 352.014545 289.257264 
L 356.072727 288.601056 
L 360.130909 287.937288 
L 364.189091 287.26596 
L 368.247273 286.587072 
L 372.305455 285.903648 
L 376.363636 285.212664 
L 380.421818 284.518656 
L 384.48 283.820112 
L 388.538182 283.117032 
L 392.596364 282.41244 
L 396.654545 281.704824 
L 400.712727 280.99872 
L 404.770909 280.291104 
L 408.829091 279.585 
L 412.887273 278.88192 
L 416.945455 278.183376 
L 421.003636 277.49088 
L 425.061818 276.805944 
L 429.12 276.128568 
L 433.178182 275.4648 
L 437.236364 274.813128 
L 441.294545 274.178088 
L 445.352727 273.562704 
L 449.410909 272.968488 
L 453.469091 272.399976 
L 457.527273 271.860192 
L 461.585455 271.353672 
L 465.643636 270.884952 
L 469.701818 270.455544 
L 473.76 270.073008 
L 477.818182 269.740368 
L 481.876364 269.460648 
L 485.934545 269.239896 
L 489.992727 269.078112 
L 494.050909 268.981344 
L 498.109091 268.94808 
" clip-path="url(#p7409a0651a)" style="fill: none; stroke: #000000; stroke-opacity: 0.5; stroke-linecap: square"/>
   </g>
   <g id="line2d_18">
    <path d="M 92.290909 264.793104 
L 96.349091 264.779496 
L 100.407273 264.73716 
L 104.465455 264.66912 
L 108.523636 264.573864 
L 112.581818 264.454416 
L 116.64 264.309264 
L 120.698182 264.13992 
L 124.756364 263.949408 
L 128.814545 263.737728 
L 132.872727 263.506392 
L 136.930909 263.256912 
L 140.989091 262.9908 
L 145.047273 262.71108 
L 149.105455 262.41624 
L 153.163636 262.110816 
L 157.221818 261.793296 
L 161.28 261.466704 
L 165.338182 261.129528 
L 169.396364 260.784792 
L 173.454545 260.434008 
L 177.512727 260.075664 
L 181.570909 259.711272 
L 185.629091 259.340832 
L 189.687273 258.965856 
L 193.745455 258.584832 
L 197.803636 258.199272 
L 201.861818 257.809176 
L 205.92 257.416056 
L 209.978182 257.016888 
L 214.036364 256.613184 
L 218.094545 256.206456 
L 222.152727 255.79368 
L 226.210909 255.37788 
L 230.269091 254.957544 
L 234.327273 254.532672 
L 238.385455 254.104776 
L 242.443636 253.672344 
L 246.501818 253.235376 
L 250.56 252.793872 
L 254.618182 252.347832 
L 258.676364 251.898768 
L 262.734545 251.44668 
L 266.792727 250.990056 
L 270.850909 250.530408 
L 274.909091 250.067736 
L 278.967273 249.60204 
L 283.025455 249.13332 
L 287.083636 248.663088 
L 291.141818 248.189832 
L 295.2 247.713552 
L 299.258182 247.237272 
L 303.316364 246.75948 
L 307.374545 246.281688 
L 311.432727 245.803896 
L 315.490909 245.326104 
L 319.549091 244.848312 
L 323.607273 244.373544 
L 327.665455 243.900288 
L 331.723636 243.430056 
L 335.781818 242.96436 
L 339.84 242.501688 
L 343.898182 242.045064 
L 347.956364 241.594488 
L 352.014545 241.151472 
L 356.072727 240.716016 
L 360.130909 240.292656 
L 364.189091 239.878368 
L 368.247273 239.4792 
L 372.305455 239.09364 
L 376.363636 238.726224 
L 380.421818 238.378464 
L 384.48 238.053384 
L 388.538182 237.75552 
L 392.596364 237.489408 
L 396.654545 237.259584 
L 400.712727 237.07512 
L 404.770909 236.940552 
L 408.829091 236.866464 
L 412.887273 236.857392 
L 416.945455 236.919384 
L 421.003636 237.053952 
L 425.061818 237.255048 
L 429.12 237.516624 
L 433.178182 237.828096 
L 437.236364 238.180392 
L 441.294545 238.561416 
L 445.352727 238.960584 
L 449.410909 239.368824 
L 453.469091 239.778576 
L 457.527273 240.18228 
L 461.585455 240.573888 
L 465.643636 240.944328 
L 469.701818 241.289064 
L 473.76 241.602048 
L 477.818182 241.878744 
L 481.876364 242.111592 
L 485.934545 242.29908 
L 489.992727 242.43516 
L 494.050909 242.51832 
L 498.109091 242.545536 
" clip-path="url(#p7409a0651a)" style="fill: none; stroke: #000000; stroke-opacity: 0.5; stroke-linecap: square"/>
   </g>
   <g id="line2d_19">
    <path d="M 92.290909 247.184352 
L 96.349091 247.16772 
L 100.407273 247.117824 
L 104.465455 247.036176 
L 108.523636 246.921264 
L 112.581818 246.7746 
L 116.64 246.594672 
L 120.698182 246.382992 
L 124.756364 246.138048 
L 128.814545 245.861352 
L 132.872727 245.554416 
L 136.930909 245.215728 
L 140.989091 244.8468 
L 145.047273 244.447632 
L 149.105455 244.019736 
L 153.163636 243.563112 
L 157.221818 243.080784 
L 161.28 242.57124 
L 165.338182 242.037504 
L 169.396364 241.481088 
L 173.454545 240.903504 
L 177.512727 240.306264 
L 181.570909 239.69088 
L 185.629091 239.058864 
L 189.687273 238.41324 
L 193.745455 237.757032 
L 197.803636 237.09024 
L 201.861818 236.4174 
L 205.92 235.738512 
L 209.978182 235.058112 
L 214.036364 234.379224 
L 218.094545 233.701848 
L 222.152727 233.03052 
L 226.210909 232.368264 
L 230.269091 231.716592 
L 234.327273 231.078528 
L 238.385455 230.455584 
L 242.443636 229.853808 
L 246.501818 229.271688 
L 250.56 228.71376 
L 254.618182 228.183048 
L 258.676364 227.681064 
L 262.734545 227.20932 
L 266.792727 226.769328 
L 270.850909 226.364112 
L 274.909091 225.993672 
L 278.967273 225.661032 
L 283.025455 225.366192 
L 287.083636 225.10764 
L 291.141818 224.889912 
L 295.2 224.708472 
L 299.258182 224.567856 
L 303.316364 224.463528 
L 307.374545 224.397 
L 311.432727 224.36676 
L 315.490909 224.372808 
L 319.549091 224.413632 
L 323.607273 224.486208 
L 327.665455 224.592048 
L 331.723636 224.726616 
L 335.781818 224.891424 
L 339.84 225.083448 
L 343.898182 225.301176 
L 347.956364 225.543096 
L 352.014545 225.809208 
L 356.072727 226.094976 
L 360.130909 226.398888 
L 364.189091 226.722456 
L 368.247273 227.059632 
L 372.305455 227.410416 
L 376.363636 227.770272 
L 380.421818 228.137688 
L 384.48 228.50964 
L 388.538182 228.878568 
L 392.596364 229.24296 
L 396.654545 229.595256 
L 400.712727 229.927896 
L 404.770909 230.23332 
L 408.829091 230.502456 
L 412.887273 230.726232 
L 416.945455 230.900112 
L 421.003636 231.022584 
L 425.061818 231.092136 
L 429.12 231.11784 
L 433.178182 231.107256 
L 437.236364 231.066432 
L 441.294545 231.00444 
L 445.352727 230.930352 
L 449.410909 230.847192 
L 453.469091 230.761008 
L 457.527273 230.674824 
L 461.585455 230.590152 
L 465.643636 230.511528 
L 469.701818 230.440464 
L 473.76 230.375448 
L 477.818182 230.321016 
L 481.876364 230.274144 
L 485.934545 230.237856 
L 489.992727 230.212152 
L 494.050909 230.19552 
L 498.109091 230.190984 
" clip-path="url(#p7409a0651a)" style="fill: none; stroke: #000000; stroke-opacity: 0.5; stroke-linecap: square"/>
   </g>
   <g id="line2d_20">
    <path d="M 92.290909 150.730848 
L 96.349091 150.730848 
L 100.407273 150.727824 
L 104.465455 150.7248 
L 108.523636 150.726312 
L 112.581818 150.73992 
L 116.64 150.779232 
L 120.698182 150.872976 
L 124.756364 151.075584 
L 128.814545 151.456608 
L 132.872727 152.043264 
L 136.930909 152.78112 
L 140.989091 153.603648 
L 145.047273 154.462464 
L 149.105455 155.334888 
L 153.163636 156.208824 
L 157.221818 157.0752 
L 161.28 157.92948 
L 165.338182 158.76864 
L 169.396364 159.589656 
L 173.454545 160.391016 
L 177.512727 161.171208 
L 181.570909 161.927208 
L 185.629091 162.659016 
L 189.687273 163.36512 
L 193.745455 164.042496 
L 197.803636 164.691144 
L 201.861818 165.309552 
L 205.92 165.894696 
L 209.978182 166.448088 
L 214.036364 166.966704 
L 218.094545 167.44752 
L 222.152727 167.892048 
L 226.210909 168.295752 
L 230.269091 168.660144 
L 234.327273 168.980688 
L 238.385455 169.257384 
L 242.443636 169.48872 
L 246.501818 169.673184 
L 250.56 169.809264 
L 254.618182 169.89696 
L 258.676364 169.933248 
L 262.734545 169.91964 
L 266.792727 169.853112 
L 270.850909 169.735176 
L 274.909091 169.567344 
L 278.967273 169.346592 
L 283.025455 169.077456 
L 287.083636 168.759936 
L 291.141818 168.395544 
L 295.2 167.988816 
L 299.258182 167.544288 
L 303.316364 167.068008 
L 307.374545 166.564512 
L 311.432727 166.045896 
L 315.490909 165.525768 
L 319.549091 165.023784 
L 323.607273 164.56716 
L 327.665455 164.18916 
L 331.723636 163.938168 
L 335.781818 163.853496 
L 339.84 163.960848 
L 343.898182 164.255688 
L 347.956364 164.70324 
L 352.014545 165.258144 
L 356.072727 165.884112 
L 360.130909 166.549392 
L 364.189091 167.229792 
L 368.247273 167.911704 
L 372.305455 168.584544 
L 376.363636 169.237728 
L 380.421818 169.868232 
L 384.48 170.470008 
L 388.538182 171.040032 
L 392.596364 171.576792 
L 396.654545 172.077264 
L 400.712727 172.539936 
L 404.770909 172.964808 
L 408.829091 173.350368 
L 412.887273 173.696616 
L 416.945455 174.003552 
L 421.003636 174.272688 
L 425.061818 174.502512 
L 429.12 174.696048 
L 433.178182 174.854808 
L 437.236364 174.978792 
L 441.294545 175.071024 
L 445.352727 175.134528 
L 449.410909 175.170816 
L 453.469091 175.182912 
L 457.527273 175.175352 
L 461.585455 175.149648 
L 465.643636 175.11336 
L 469.701818 175.066488 
L 473.76 175.016592 
L 477.818182 174.963672 
L 481.876364 174.915288 
L 485.934545 174.874464 
L 489.992727 174.842712 
L 494.050909 174.821544 
L 498.109091 174.815496 
" clip-path="url(#p7409a0651a)" style="fill: none; stroke: #000000; stroke-opacity: 0.5; stroke-linecap: square"/>
   </g>
   <g id="line2d_21">
    <path d="M 92.290909 143.28576 
L 96.349091 143.439984 
L 100.407273 143.869392 
L 104.465455 144.496872 
L 108.523636 145.246824 
L 112.581818 146.06028 
L 116.64 146.887344 
L 120.698182 147.67812 
L 124.756364 148.364568 
L 128.814545 148.868064 
L 132.872727 149.153832 
L 136.930909 149.271768 
L 140.989091 149.286888 
L 145.047273 149.24304 
L 149.105455 149.161392 
L 153.163636 149.05404 
L 157.221818 148.927032 
L 161.28 148.78188 
L 165.338182 148.624632 
L 169.396364 148.453776 
L 173.454545 148.270824 
L 177.512727 148.0788 
L 181.570909 147.876192 
L 185.629091 147.663 
L 189.687273 147.440736 
L 193.745455 147.210912 
L 197.803636 146.972016 
L 201.861818 146.72556 
L 205.92 146.471544 
L 209.978182 146.21148 
L 214.036364 145.943856 
L 218.094545 145.668672 
L 222.152727 145.388952 
L 226.210909 145.104696 
L 230.269091 144.815904 
L 234.327273 144.522576 
L 238.385455 144.227736 
L 242.443636 143.929872 
L 246.501818 143.632008 
L 250.56 143.337168 
L 254.618182 143.048376 
L 258.676364 142.770168 
L 262.734545 142.513128 
L 266.792727 142.293888 
L 270.850909 142.15176 
L 274.909091 142.162344 
L 278.967273 142.46172 
L 283.025455 143.133048 
L 287.083636 144.084096 
L 291.141818 145.169712 
L 295.2 146.30976 
L 299.258182 147.457368 
L 303.316364 148.59288 
L 307.374545 149.698152 
L 311.432727 150.759576 
L 315.490909 151.762032 
L 319.549091 152.68284 
L 323.607273 153.497808 
L 327.665455 154.169136 
L 331.723636 154.654488 
L 335.781818 154.911528 
L 339.84 154.919088 
L 343.898182 154.681704 
L 347.956364 154.234152 
L 352.014545 153.624816 
L 356.072727 152.893008 
L 360.130909 152.071992 
L 364.189091 151.18596 
L 368.247273 150.251544 
L 372.305455 149.286888 
L 376.363636 148.299552 
L 380.421818 147.301632 
L 384.48 146.303712 
L 388.538182 145.313352 
L 392.596364 144.34416 
L 396.654545 143.411256 
L 400.712727 142.532784 
L 404.770909 141.738984 
L 408.829091 141.07824 
L 412.887273 140.636736 
L 416.945455 140.54148 
L 421.003636 140.859 
L 425.061818 141.495552 
L 429.12 142.30296 
L 433.178182 143.181432 
L 437.236364 144.07956 
L 441.294545 144.97164 
L 445.352727 145.84104 
L 449.410909 146.678688 
L 453.469091 147.475512 
L 457.527273 148.225464 
L 461.585455 148.92552 
L 465.643636 149.56812 
L 469.701818 150.148728 
L 473.76 150.66432 
L 477.818182 151.108848 
L 481.876364 151.477776 
L 485.934545 151.771104 
L 489.992727 151.981272 
L 494.050909 152.10828 
L 498.109091 152.152128 
" clip-path="url(#p7409a0651a)" style="fill: none; stroke: #000000; stroke-opacity: 0.5; stroke-linecap: square"/>
   </g>
   <g id="line2d_22">
    <path d="M 92.290909 134.82612 
L 96.349091 134.65224 
L 100.407273 134.165376 
L 104.465455 133.438104 
L 108.523636 132.543 
L 112.581818 131.534496 
L 116.64 130.444344 
L 120.698182 129.293712 
L 124.756364 128.099232 
L 128.814545 126.868464 
L 132.872727 125.608968 
L 136.930909 124.323768 
L 140.989091 123.0174 
L 145.047273 121.691376 
L 149.105455 120.347208 
L 153.163636 118.98792 
L 157.221818 117.613512 
L 161.28 116.227008 
L 165.338182 114.828408 
L 169.396364 113.419224 
L 173.454545 111.999456 
L 177.512727 110.572128 
L 181.570909 109.140264 
L 185.629091 107.72352 
L 189.687273 108.066744 
L 193.745455 109.578744 
L 197.803636 111.101328 
L 201.861818 112.626936 
L 205.92 114.151032 
L 209.978182 115.673616 
L 214.036364 117.193176 
L 218.094545 118.7082 
L 222.152727 120.217176 
L 226.210909 121.720104 
L 230.269091 123.215472 
L 234.327273 124.701768 
L 238.385455 126.17748 
L 242.443636 127.641096 
L 246.501818 129.091104 
L 250.56 130.52448 
L 254.618182 131.936688 
L 258.676364 133.32168 
L 262.734545 134.670384 
L 266.792727 135.961632 
L 270.850909 137.159136 
L 274.909091 138.18276 
L 278.967273 138.899448 
L 283.025455 139.221504 
L 287.083636 139.24116 
L 291.141818 139.09752 
L 295.2 138.873744 
L 299.258182 138.60612 
L 303.316364 138.317328 
L 307.374545 138.013416 
L 311.432727 137.701944 
L 315.490909 137.385936 
L 319.549091 137.066904 
L 323.607273 136.74636 
L 327.665455 136.427328 
L 331.723636 136.108296 
L 335.781818 135.790776 
L 339.84 135.474768 
L 343.898182 135.160272 
L 347.956364 134.8488 
L 352.014545 134.53884 
L 356.072727 134.231904 
L 360.130909 133.924968 
L 364.189091 133.621056 
L 368.247273 133.315632 
L 372.305455 133.01172 
L 376.363636 132.70932 
L 380.421818 132.408432 
L 384.48 132.113592 
L 388.538182 131.848992 
L 392.596364 131.700816 
L 396.654545 132.000192 
L 400.712727 132.865056 
L 404.770909 133.87356 
L 408.829091 134.82612 
L 412.887273 135.603288 
L 416.945455 136.076544 
L 421.003636 136.176336 
L 425.061818 135.996408 
L 429.12 135.686448 
L 433.178182 135.335664 
L 437.236364 134.99244 
L 441.294545 134.67492 
L 445.352727 134.38764 
L 449.410909 134.133624 
L 453.469091 133.91136 
L 457.527273 133.716312 
L 461.585455 133.54848 
L 465.643636 133.40484 
L 469.701818 133.282368 
L 473.76 133.179552 
L 477.818182 133.09488 
L 481.876364 133.02684 
L 485.934545 132.975432 
L 489.992727 132.939144 
L 494.050909 132.917976 
L 498.109091 132.910416 
" clip-path="url(#p7409a0651a)" style="fill: none; stroke: #000000; stroke-opacity: 0.5; stroke-linecap: square"/>
   </g>
   <g id="line2d_23">
    <path d="M 92.290909 99.321336 
L 96.349091 99.315288 
L 100.407273 99.295632 
L 104.465455 99.265392 
L 108.523636 99.221544 
L 112.581818 99.1656 
L 116.64 99.099072 
L 120.698182 99.017424 
L 124.756364 98.925192 
L 128.814545 98.822376 
L 132.872727 98.705952 
L 136.930909 98.578944 
L 140.989091 98.442864 
L 145.047273 98.2962 
L 149.105455 98.148024 
L 153.163636 98.005896 
L 157.221818 97.916688 
L 161.28 98.125344 
L 165.338182 99.132336 
L 169.396364 100.517328 
L 173.454545 101.98548 
L 177.512727 103.480848 
L 181.570909 104.988312 
L 185.629091 106.482168 
L 189.687273 106.213032 
L 193.745455 104.778144 
L 197.803636 103.33116 
L 201.861818 101.8872 
L 205.92 100.452312 
L 209.978182 99.03708 
L 214.036364 97.658136 
L 218.094545 96.344208 
L 222.152727 95.142168 
L 226.210909 94.103424 
L 230.269091 93.249144 
L 234.327273 92.541528 
L 238.385455 91.92312 
L 242.443636 91.354608 
L 246.501818 90.810288 
L 250.56 90.276552 
L 254.618182 89.747352 
L 258.676364 89.219664 
L 262.734545 88.693488 
L 266.792727 88.174872 
L 270.850909 87.68196 
L 274.909091 87.291864 
L 278.967273 87.361416 
L 283.025455 88.444008 
L 287.083636 89.993808 
L 291.141818 91.647936 
L 295.2 93.326256 
L 299.258182 95.010624 
L 303.316364 96.691968 
L 307.374545 98.36424 
L 311.432727 100.028952 
L 315.490909 101.68308 
L 319.549091 103.325112 
L 323.607273 104.95656 
L 327.665455 106.572888 
L 331.723636 108.175608 
L 335.781818 109.76472 
L 339.84 111.338712 
L 343.898182 112.897584 
L 347.956364 114.438312 
L 352.014545 115.962408 
L 356.072727 117.469872 
L 360.130909 118.956168 
L 364.189091 120.422808 
L 368.247273 121.86828 
L 372.305455 123.288048 
L 376.363636 124.682112 
L 380.421818 126.0414 
L 384.48 127.358352 
L 388.538182 128.605752 
L 392.596364 129.683808 
L 396.654545 130.250808 
L 400.712727 130.173696 
L 404.770909 129.84408 
L 408.829091 129.416184 
L 412.887273 128.92176 
L 416.945455 128.366856 
L 421.003636 127.754496 
L 425.061818 127.08468 
L 429.12 126.361944 
L 433.178182 125.590824 
L 437.236364 124.780392 
L 441.294545 123.941232 
L 445.352727 123.082416 
L 449.410909 122.217552 
L 453.469091 121.355712 
L 457.527273 120.512016 
L 461.585455 119.695536 
L 465.643636 118.918368 
L 469.701818 118.192608 
L 473.76 117.531864 
L 477.818182 116.945208 
L 481.876364 116.446248 
L 485.934545 116.045568 
L 489.992727 115.75224 
L 494.050909 115.572312 
L 498.109091 115.511832 
" clip-path="url(#p7409a0651a)" style="fill: none; stroke: #000000; stroke-opacity: 0.5; stroke-linecap: square"/>
   </g>
   <g id="patch_3">
    <path d="M 72 384.48 
L 72 51.84 
" style="fill: none; stroke: #000000; stroke-width: 0.8; stroke-linejoin: miter; stroke-linecap: square"/>
   </g>
   <g id="patch_4">
    <path d="M 518.4 384.48 
L 518.4 51.84 
" style="fill: none; stroke: #000000; stroke-width: 0.8; stroke-linejoin: miter; stroke-linecap: square"/>
   </g>
   <g id="patch_5">
    <path d="M 72 384.48 
L 518.4 384.48 
" style="fill: none; stroke: #000000; stroke-width: 0.8; stroke-linejoin: miter; stroke-linecap: square"/>
   </g>
   <g id="patch_6">
    <path d="M 72 51.84 
L 518.4 51.84 
" style="fill: none; stroke: #000000; stroke-width: 0.8; stroke-linejoin: miter; stroke-linecap: square"/>
   </g>
  </g>
 </g>
 <defs>
  <clipPath id="p7409a0651a">
   <rect x="72" y="51.84" width="446.4" height="332.64"/>
  </clipPath>
 </defs>
</svg>
