<?xml version="1.0" encoding="utf-8" standalone="no"?>
<!DOCTYPE svg PUBLIC "-//W3C//DTD SVG 1.1//EN"
  "http://www.w3.org/Graphics/SVG/1.1/DTD/svg11.dtd">
<svg xmlns:xlink="http://www.w3.org/1999/xlink" width="576pt" height="432pt" viewBox="0 0 576 432" xmlns="http://www.w3.org/2000/svg" version="1.1">
 <metadata>
  <rdf:RDF xmlns:dc="http://purl.org/dc/elements/1.1/" xmlns:cc="http://creativecommons.org/ns#" xmlns:rdf="http://www.w3.org/1999/02/22-rdf-syntax-ns#">
   <cc:Work>
    <dc:type rdf:resource="http://purl.org/dc/dcmitype/StillImage"/>
    <dc:date>2023-05-04T08:53:06.696855</dc:date>
    <dc:format>image/svg+xml</dc:format>
    <dc:creator>
     <cc:Agent>
      <dc:title>Matplotlib v3.7.1, https://matplotlib.org/</dc:title>
     </cc:Agent>
    </dc:creator>
   </cc:Work>
  </rdf:RDF>
 </metadata>
 <defs>
  <style type="text/css">*{stroke-linejoin: round; stroke-linecap: butt}</style>
 </defs>
 <g id="figure_1">
  <g id="patch_1">
   <path d="M 0 432 
L 576 432 
L 576 0 
L 0 0 
z
" style="fill: #ffffff"/>
  </g>
  <g id="axes_1">
   <g id="patch_2">
    <path d="M 72 384.48 
L 518.4 384.48 
L 518.4 51.84 
L 72 51.84 
z
" style="fill: #ffffff"/>
   </g>
   <g id="matplotlib.axis_1">
    <g id="xtick_1">
     <g id="line2d_1">
      <defs>
       <path id="m089ba54967" d="M 0 0 
L 0 3.5 
" style="stroke: #000000; stroke-width: 0.8"/>
      </defs>
      <g>
       <use xlink:href="#m089ba54967" x="92.290909" y="384.48" style="stroke: #000000; stroke-width: 0.8"/>
      </g>
     </g>
     <g id="text_1">
      <!-- 0.0 -->
      <g transform="translate(84.339347 399.078438) scale(0.1 -0.1)">
       <defs>
        <path id="DejaVuSans-30" d="M 2034 4250 
Q 1547 4250 1301 3770 
Q 1056 3291 1056 2328 
Q 1056 1369 1301 889 
Q 1547 409 2034 409 
Q 2525 409 2770 889 
Q 3016 1369 3016 2328 
Q 3016 3291 2770 3770 
Q 2525 4250 2034 4250 
z
M 2034 4750 
Q 2819 4750 3233 4129 
Q 3647 3509 3647 2328 
Q 3647 1150 3233 529 
Q 2819 -91 2034 -91 
Q 1250 -91 836 529 
Q 422 1150 422 2328 
Q 422 3509 836 4129 
Q 1250 4750 2034 4750 
z
" transform="scale(0.015625)"/>
        <path id="DejaVuSans-2e" d="M 684 794 
L 1344 794 
L 1344 0 
L 684 0 
L 684 794 
z
" transform="scale(0.015625)"/>
       </defs>
       <use xlink:href="#DejaVuSans-30"/>
       <use xlink:href="#DejaVuSans-2e" x="63.623047"/>
       <use xlink:href="#DejaVuSans-30" x="95.410156"/>
      </g>
     </g>
    </g>
    <g id="xtick_2">
     <g id="line2d_2">
      <g>
       <use xlink:href="#m089ba54967" x="173.454545" y="384.48" style="stroke: #000000; stroke-width: 0.8"/>
      </g>
     </g>
     <g id="text_2">
      <!-- 0.2 -->
      <g transform="translate(165.502983 399.078438) scale(0.1 -0.1)">
       <defs>
        <path id="DejaVuSans-32" d="M 1228 531 
L 3431 531 
L 3431 0 
L 469 0 
L 469 531 
Q 828 903 1448 1529 
Q 2069 2156 2228 2338 
Q 2531 2678 2651 2914 
Q 2772 3150 2772 3378 
Q 2772 3750 2511 3984 
Q 2250 4219 1831 4219 
Q 1534 4219 1204 4116 
Q 875 4013 500 3803 
L 500 4441 
Q 881 4594 1212 4672 
Q 1544 4750 1819 4750 
Q 2544 4750 2975 4387 
Q 3406 4025 3406 3419 
Q 3406 3131 3298 2873 
Q 3191 2616 2906 2266 
Q 2828 2175 2409 1742 
Q 1991 1309 1228 531 
z
" transform="scale(0.015625)"/>
       </defs>
       <use xlink:href="#DejaVuSans-30"/>
       <use xlink:href="#DejaVuSans-2e" x="63.623047"/>
       <use xlink:href="#DejaVuSans-32" x="95.410156"/>
      </g>
     </g>
    </g>
    <g id="xtick_3">
     <g id="line2d_3">
      <g>
       <use xlink:href="#m089ba54967" x="254.618182" y="384.48" style="stroke: #000000; stroke-width: 0.8"/>
      </g>
     </g>
     <g id="text_3">
      <!-- 0.4 -->
      <g transform="translate(246.666619 399.078438) scale(0.1 -0.1)">
       <defs>
        <path id="DejaVuSans-34" d="M 2419 4116 
L 825 1625 
L 2419 1625 
L 2419 4116 
z
M 2253 4666 
L 3047 4666 
L 3047 1625 
L 3713 1625 
L 3713 1100 
L 3047 1100 
L 3047 0 
L 2419 0 
L 2419 1100 
L 313 1100 
L 313 1709 
L 2253 4666 
z
" transform="scale(0.015625)"/>
       </defs>
       <use xlink:href="#DejaVuSans-30"/>
       <use xlink:href="#DejaVuSans-2e" x="63.623047"/>
       <use xlink:href="#DejaVuSans-34" x="95.410156"/>
      </g>
     </g>
    </g>
    <g id="xtick_4">
     <g id="line2d_4">
      <g>
       <use xlink:href="#m089ba54967" x="335.781818" y="384.48" style="stroke: #000000; stroke-width: 0.8"/>
      </g>
     </g>
     <g id="text_4">
      <!-- 0.6 -->
      <g transform="translate(327.830256 399.078438) scale(0.1 -0.1)">
       <defs>
        <path id="DejaVuSans-36" d="M 2113 2584 
Q 1688 2584 1439 2293 
Q 1191 2003 1191 1497 
Q 1191 994 1439 701 
Q 1688 409 2113 409 
Q 2538 409 2786 701 
Q 3034 994 3034 1497 
Q 3034 2003 2786 2293 
Q 2538 2584 2113 2584 
z
M 3366 4563 
L 3366 3988 
Q 3128 4100 2886 4159 
Q 2644 4219 2406 4219 
Q 1781 4219 1451 3797 
Q 1122 3375 1075 2522 
Q 1259 2794 1537 2939 
Q 1816 3084 2150 3084 
Q 2853 3084 3261 2657 
Q 3669 2231 3669 1497 
Q 3669 778 3244 343 
Q 2819 -91 2113 -91 
Q 1303 -91 875 529 
Q 447 1150 447 2328 
Q 447 3434 972 4092 
Q 1497 4750 2381 4750 
Q 2619 4750 2861 4703 
Q 3103 4656 3366 4563 
z
" transform="scale(0.015625)"/>
       </defs>
       <use xlink:href="#DejaVuSans-30"/>
       <use xlink:href="#DejaVuSans-2e" x="63.623047"/>
       <use xlink:href="#DejaVuSans-36" x="95.410156"/>
      </g>
     </g>
    </g>
    <g id="xtick_5">
     <g id="line2d_5">
      <g>
       <use xlink:href="#m089ba54967" x="416.945455" y="384.48" style="stroke: #000000; stroke-width: 0.8"/>
      </g>
     </g>
     <g id="text_5">
      <!-- 0.8 -->
      <g transform="translate(408.993892 399.078438) scale(0.1 -0.1)">
       <defs>
        <path id="DejaVuSans-38" d="M 2034 2216 
Q 1584 2216 1326 1975 
Q 1069 1734 1069 1313 
Q 1069 891 1326 650 
Q 1584 409 2034 409 
Q 2484 409 2743 651 
Q 3003 894 3003 1313 
Q 3003 1734 2745 1975 
Q 2488 2216 2034 2216 
z
M 1403 2484 
Q 997 2584 770 2862 
Q 544 3141 544 3541 
Q 544 4100 942 4425 
Q 1341 4750 2034 4750 
Q 2731 4750 3128 4425 
Q 3525 4100 3525 3541 
Q 3525 3141 3298 2862 
Q 3072 2584 2669 2484 
Q 3125 2378 3379 2068 
Q 3634 1759 3634 1313 
Q 3634 634 3220 271 
Q 2806 -91 2034 -91 
Q 1263 -91 848 271 
Q 434 634 434 1313 
Q 434 1759 690 2068 
Q 947 2378 1403 2484 
z
M 1172 3481 
Q 1172 3119 1398 2916 
Q 1625 2713 2034 2713 
Q 2441 2713 2670 2916 
Q 2900 3119 2900 3481 
Q 2900 3844 2670 4047 
Q 2441 4250 2034 4250 
Q 1625 4250 1398 4047 
Q 1172 3844 1172 3481 
z
" transform="scale(0.015625)"/>
       </defs>
       <use xlink:href="#DejaVuSans-30"/>
       <use xlink:href="#DejaVuSans-2e" x="63.623047"/>
       <use xlink:href="#DejaVuSans-38" x="95.410156"/>
      </g>
     </g>
    </g>
    <g id="xtick_6">
     <g id="line2d_6">
      <g>
       <use xlink:href="#m089ba54967" x="498.109091" y="384.48" style="stroke: #000000; stroke-width: 0.8"/>
      </g>
     </g>
     <g id="text_6">
      <!-- 1.0 -->
      <g transform="translate(490.157528 399.078438) scale(0.1 -0.1)">
       <defs>
        <path id="DejaVuSans-31" d="M 794 531 
L 1825 531 
L 1825 4091 
L 703 3866 
L 703 4441 
L 1819 4666 
L 2450 4666 
L 2450 531 
L 3481 531 
L 3481 0 
L 794 0 
L 794 531 
z
" transform="scale(0.015625)"/>
       </defs>
       <use xlink:href="#DejaVuSans-31"/>
       <use xlink:href="#DejaVuSans-2e" x="63.623047"/>
       <use xlink:href="#DejaVuSans-30" x="95.410156"/>
      </g>
     </g>
    </g>
   </g>
   <g id="matplotlib.axis_2">
    <g id="ytick_1">
     <g id="line2d_7">
      <defs>
       <path id="md27fa71336" d="M 0 0 
L -3.5 0 
" style="stroke: #000000; stroke-width: 0.8"/>
      </defs>
      <g>
       <use xlink:href="#md27fa71336" x="72" y="369.36" style="stroke: #000000; stroke-width: 0.8"/>
      </g>
     </g>
     <g id="text_7">
      <!-- −5.0 -->
      <g transform="translate(40.717187 373.159219) scale(0.1 -0.1)">
       <defs>
        <path id="DejaVuSans-2212" d="M 678 2272 
L 4684 2272 
L 4684 1741 
L 678 1741 
L 678 2272 
z
" transform="scale(0.015625)"/>
        <path id="DejaVuSans-35" d="M 691 4666 
L 3169 4666 
L 3169 4134 
L 1269 4134 
L 1269 2991 
Q 1406 3038 1543 3061 
Q 1681 3084 1819 3084 
Q 2600 3084 3056 2656 
Q 3513 2228 3513 1497 
Q 3513 744 3044 326 
Q 2575 -91 1722 -91 
Q 1428 -91 1123 -41 
Q 819 9 494 109 
L 494 744 
Q 775 591 1075 516 
Q 1375 441 1709 441 
Q 2250 441 2565 725 
Q 2881 1009 2881 1497 
Q 2881 1984 2565 2268 
Q 2250 2553 1709 2553 
Q 1456 2553 1204 2497 
Q 953 2441 691 2322 
L 691 4666 
z
" transform="scale(0.015625)"/>
       </defs>
       <use xlink:href="#DejaVuSans-2212"/>
       <use xlink:href="#DejaVuSans-35" x="83.789062"/>
       <use xlink:href="#DejaVuSans-2e" x="147.412109"/>
       <use xlink:href="#DejaVuSans-30" x="179.199219"/>
      </g>
     </g>
    </g>
    <g id="ytick_2">
     <g id="line2d_8">
      <g>
       <use xlink:href="#md27fa71336" x="72" y="331.56" style="stroke: #000000; stroke-width: 0.8"/>
      </g>
     </g>
     <g id="text_8">
      <!-- −2.5 -->
      <g transform="translate(40.717187 335.359219) scale(0.1 -0.1)">
       <use xlink:href="#DejaVuSans-2212"/>
       <use xlink:href="#DejaVuSans-32" x="83.789062"/>
       <use xlink:href="#DejaVuSans-2e" x="147.412109"/>
       <use xlink:href="#DejaVuSans-35" x="179.199219"/>
      </g>
     </g>
    </g>
    <g id="ytick_3">
     <g id="line2d_9">
      <g>
       <use xlink:href="#md27fa71336" x="72" y="293.76" style="stroke: #000000; stroke-width: 0.8"/>
      </g>
     </g>
     <g id="text_9">
      <!-- 0.0 -->
      <g transform="translate(49.096875 297.559219) scale(0.1 -0.1)">
       <use xlink:href="#DejaVuSans-30"/>
       <use xlink:href="#DejaVuSans-2e" x="63.623047"/>
       <use xlink:href="#DejaVuSans-30" x="95.410156"/>
      </g>
     </g>
    </g>
    <g id="ytick_4">
     <g id="line2d_10">
      <g>
       <use xlink:href="#md27fa71336" x="72" y="255.96" style="stroke: #000000; stroke-width: 0.8"/>
      </g>
     </g>
     <g id="text_10">
      <!-- 2.5 -->
      <g transform="translate(49.096875 259.759219) scale(0.1 -0.1)">
       <use xlink:href="#DejaVuSans-32"/>
       <use xlink:href="#DejaVuSans-2e" x="63.623047"/>
       <use xlink:href="#DejaVuSans-35" x="95.410156"/>
      </g>
     </g>
    </g>
    <g id="ytick_5">
     <g id="line2d_11">
      <g>
       <use xlink:href="#md27fa71336" x="72" y="218.16" style="stroke: #000000; stroke-width: 0.8"/>
      </g>
     </g>
     <g id="text_11">
      <!-- 5.0 -->
      <g transform="translate(49.096875 221.959219) scale(0.1 -0.1)">
       <use xlink:href="#DejaVuSans-35"/>
       <use xlink:href="#DejaVuSans-2e" x="63.623047"/>
       <use xlink:href="#DejaVuSans-30" x="95.410156"/>
      </g>
     </g>
    </g>
    <g id="ytick_6">
     <g id="line2d_12">
      <g>
       <use xlink:href="#md27fa71336" x="72" y="180.36" style="stroke: #000000; stroke-width: 0.8"/>
      </g>
     </g>
     <g id="text_12">
      <!-- 7.5 -->
      <g transform="translate(49.096875 184.159219) scale(0.1 -0.1)">
       <defs>
        <path id="DejaVuSans-37" d="M 525 4666 
L 3525 4666 
L 3525 4397 
L 1831 0 
L 1172 0 
L 2766 4134 
L 525 4134 
L 525 4666 
z
" transform="scale(0.015625)"/>
       </defs>
       <use xlink:href="#DejaVuSans-37"/>
       <use xlink:href="#DejaVuSans-2e" x="63.623047"/>
       <use xlink:href="#DejaVuSans-35" x="95.410156"/>
      </g>
     </g>
    </g>
    <g id="ytick_7">
     <g id="line2d_13">
      <g>
       <use xlink:href="#md27fa71336" x="72" y="142.56" style="stroke: #000000; stroke-width: 0.8"/>
      </g>
     </g>
     <g id="text_13">
      <!-- 10.0 -->
      <g transform="translate(42.734375 146.359219) scale(0.1 -0.1)">
       <use xlink:href="#DejaVuSans-31"/>
       <use xlink:href="#DejaVuSans-30" x="63.623047"/>
       <use xlink:href="#DejaVuSans-2e" x="127.246094"/>
       <use xlink:href="#DejaVuSans-30" x="159.033203"/>
      </g>
     </g>
    </g>
    <g id="ytick_8">
     <g id="line2d_14">
      <g>
       <use xlink:href="#md27fa71336" x="72" y="104.76" style="stroke: #000000; stroke-width: 0.8"/>
      </g>
     </g>
     <g id="text_14">
      <!-- 12.5 -->
      <g transform="translate(42.734375 108.559219) scale(0.1 -0.1)">
       <use xlink:href="#DejaVuSans-31"/>
       <use xlink:href="#DejaVuSans-32" x="63.623047"/>
       <use xlink:href="#DejaVuSans-2e" x="127.246094"/>
       <use xlink:href="#DejaVuSans-35" x="159.033203"/>
      </g>
     </g>
    </g>
    <g id="ytick_9">
     <g id="line2d_15">
      <g>
       <use xlink:href="#md27fa71336" x="72" y="66.96" style="stroke: #000000; stroke-width: 0.8"/>
      </g>
     </g>
     <g id="text_15">
      <!-- 15.0 -->
      <g transform="translate(42.734375 70.759219) scale(0.1 -0.1)">
       <use xlink:href="#DejaVuSans-31"/>
       <use xlink:href="#DejaVuSans-35" x="63.623047"/>
       <use xlink:href="#DejaVuSans-2e" x="127.246094"/>
       <use xlink:href="#DejaVuSans-30" x="159.033203"/>
      </g>
     </g>
    </g>
   </g>
   <g id="line2d_16">
    <path d="M 92.290909 328.546584 
L 96.349091 328.55868 
L 100.407273 328.597992 
L 104.465455 328.663008 
L 108.523636 328.753728 
L 112.581818 328.870152 
L 116.64 329.01228 
L 120.698182 329.177088 
L 124.756364 329.3676 
L 128.814545 329.582304 
L 132.872727 329.818176 
L 136.930909 330.07824 
L 140.989091 330.35796 
L 145.047273 330.66036 
L 149.105455 330.980904 
L 153.163636 331.321104 
L 157.221818 331.679448 
L 161.28 332.055936 
L 165.338182 332.447544 
L 169.396364 332.854272 
L 173.454545 333.27612 
L 177.512727 333.710064 
L 181.570909 334.157616 
L 185.629091 334.615752 
L 189.687273 335.084472 
L 193.745455 335.562264 
L 197.803636 336.049128 
L 201.861818 336.543552 
L 205.92 337.044024 
L 209.978182 337.550544 
L 214.036364 338.063112 
L 218.094545 338.580216 
L 222.152727 339.100344 
L 226.210909 339.623496 
L 230.269091 340.149672 
L 234.327273 340.675848 
L 238.385455 341.203536 
L 242.443636 341.732736 
L 246.501818 342.260424 
L 250.56 342.7866 
L 254.618182 343.312776 
L 258.676364 343.835928 
L 262.734545 344.357568 
L 266.792727 344.876184 
L 270.850909 345.390264 
L 274.909091 345.90132 
L 278.967273 346.409352 
L 283.025455 346.911336 
L 287.083636 347.410296 
L 291.141818 347.901696 
L 295.2 348.38856 
L 299.258182 348.870888 
L 303.316364 349.345656 
L 307.374545 349.814376 
L 311.432727 350.275536 
L 315.490909 350.730648 
L 319.549091 351.1782 
L 323.607273 351.618192 
L 327.665455 352.050624 
L 331.723636 352.475496 
L 335.781818 352.892808 
L 339.84 353.301048 
L 343.898182 353.700216 
L 347.956364 354.091824 
L 352.014545 354.47436 
L 356.072727 354.847824 
L 360.130909 355.212216 
L 364.189091 355.567536 
L 368.247273 355.913784 
L 372.305455 356.249448 
L 376.363636 356.57604 
L 380.421818 356.89356 
L 384.48 357.200496 
L 388.538182 357.49836 
L 392.596364 357.78564 
L 396.654545 358.062336 
L 400.712727 358.328448 
L 404.770909 358.585488 
L 408.829091 358.831944 
L 412.887273 359.067816 
L 416.945455 359.293104 
L 421.003636 359.507808 
L 425.061818 359.711928 
L 429.12 359.903952 
L 433.178182 360.086904 
L 437.236364 360.25776 
L 441.294545 360.419544 
L 445.352727 360.569232 
L 449.410909 360.708336 
L 453.469091 360.835344 
L 457.527273 360.95328 
L 461.585455 361.05912 
L 465.643636 361.154376 
L 469.701818 361.237536 
L 473.76 361.310112 
L 477.818182 361.372104 
L 481.876364 361.422 
L 485.934545 361.461312 
L 489.992727 361.488528 
L 494.050909 361.50516 
L 498.109091 361.511208 
" clip-path="url(#p0ebc4bfcd1)" style="fill: none; stroke: #000000; stroke-opacity: 0.5; stroke-linecap: square"/>
   </g>
   <g id="line2d_17">
    <path d="M 92.290909 307.764144 
L 96.349091 307.759608 
L 100.407273 307.744488 
L 104.465455 307.720296 
L 108.523636 307.684008 
L 112.581818 307.64016 
L 116.64 307.584216 
L 120.698182 307.517688 
L 124.756364 307.442088 
L 128.814545 307.354392 
L 132.872727 307.256112 
L 136.930909 307.147248 
L 140.989091 307.026288 
L 145.047273 306.894744 
L 149.105455 306.751104 
L 153.163636 306.595368 
L 157.221818 306.429048 
L 161.28 306.24912 
L 165.338182 306.058608 
L 169.396364 305.856 
L 173.454545 305.639784 
L 177.512727 305.412984 
L 181.570909 305.172576 
L 185.629091 304.921584 
L 189.687273 304.656984 
L 193.745455 304.380288 
L 197.803636 304.093008 
L 201.861818 303.79212 
L 205.92 303.479136 
L 209.978182 303.154056 
L 214.036364 302.81688 
L 218.094545 302.46912 
L 222.152727 302.107752 
L 226.210909 301.7358 
L 230.269091 301.351752 
L 234.327273 300.95712 
L 238.385455 300.54888 
L 242.443636 300.131568 
L 246.501818 299.700648 
L 250.56 299.260656 
L 254.618182 298.808568 
L 258.676364 298.345896 
L 262.734545 297.87264 
L 266.792727 297.387288 
L 270.850909 296.892864 
L 274.909091 296.387856 
L 278.967273 295.872264 
L 283.025455 295.346088 
L 287.083636 294.81084 
L 291.141818 294.265008 
L 295.2 293.711616 
L 299.258182 293.146128 
L 303.316364 292.57308 
L 307.374545 291.99096 
L 311.432727 291.399768 
L 315.490909 290.801016 
L 319.549091 290.193192 
L 323.607273 289.577808 
L 327.665455 288.953352 
L 331.723636 288.322848 
L 335.781818 287.684784 
L 339.84 287.040672 
L 343.898182 286.389 
L 347.956364 285.732792 
L 352.014545 285.069024 
L 356.072727 284.402232 
L 360.130909 283.729392 
L 364.189091 283.052016 
L 368.247273 282.371616 
L 372.305455 281.688192 
L 376.363636 281.001744 
L 380.421818 280.313784 
L 384.48 279.624312 
L 388.538182 278.93484 
L 392.596364 278.24688 
L 396.654545 277.55892 
L 400.712727 276.872472 
L 404.770909 276.19056 
L 408.829091 275.514696 
L 412.887273 274.841856 
L 416.945455 274.178088 
L 421.003636 273.523392 
L 425.061818 272.877768 
L 429.12 272.245752 
L 433.178182 271.625832 
L 437.236364 271.024056 
L 441.294545 270.440424 
L 445.352727 269.876448 
L 449.410909 269.338176 
L 453.469091 268.825608 
L 457.527273 268.341768 
L 461.585455 267.88968 
L 465.643636 267.475392 
L 469.701818 267.098904 
L 473.76 266.764752 
L 477.818182 266.474448 
L 481.876364 266.23404 
L 485.934545 266.043528 
L 489.992727 265.905936 
L 494.050909 265.822776 
L 498.109091 265.794048 
" clip-path="url(#p0ebc4bfcd1)" style="fill: none; stroke: #000000; stroke-opacity: 0.5; stroke-linecap: square"/>
   </g>
   <g id="line2d_18">
    <path d="M 92.290909 264.362184 
L 96.349091 264.362184 
L 100.407273 264.363696 
L 104.465455 264.363696 
L 108.523636 264.363696 
L 112.581818 264.362184 
L 116.64 264.357648 
L 120.698182 264.348576 
L 124.756364 264.334968 
L 128.814545 264.315312 
L 132.872727 264.288096 
L 136.930909 264.25332 
L 140.989091 264.20796 
L 145.047273 264.153528 
L 149.105455 264.087 
L 153.163636 264.008376 
L 157.221818 263.919168 
L 161.28 263.816352 
L 165.338182 263.70144 
L 169.396364 263.57292 
L 173.454545 263.432304 
L 177.512727 263.276568 
L 181.570909 263.108736 
L 185.629091 262.925784 
L 189.687273 262.730736 
L 193.745455 262.52208 
L 197.803636 262.299816 
L 201.861818 262.065456 
L 205.92 261.817488 
L 209.978182 261.555912 
L 214.036364 261.28224 
L 218.094545 260.996472 
L 222.152727 260.697096 
L 226.210909 260.387136 
L 230.269091 260.063568 
L 234.327273 259.729416 
L 238.385455 259.38468 
L 242.443636 259.026336 
L 246.501818 258.65892 
L 250.56 258.28092 
L 254.618182 257.890824 
L 258.676364 257.491656 
L 262.734545 257.081904 
L 266.792727 256.66308 
L 270.850909 256.233672 
L 274.909091 255.796704 
L 278.967273 255.349152 
L 283.025455 254.895552 
L 287.083636 254.431368 
L 291.141818 253.961136 
L 295.2 253.481832 
L 299.258182 252.99648 
L 303.316364 252.50508 
L 307.374545 252.00612 
L 311.432727 251.501112 
L 315.490909 250.991568 
L 319.549091 250.477488 
L 323.607273 249.95736 
L 327.665455 249.434208 
L 331.723636 248.908032 
L 335.781818 248.378832 
L 339.84 247.846608 
L 343.898182 247.314384 
L 347.956364 246.780648 
L 352.014545 246.2454 
L 356.072727 245.711664 
L 360.130909 245.180952 
L 364.189091 244.65024 
L 368.247273 244.124064 
L 372.305455 243.602424 
L 376.363636 243.08532 
L 380.421818 242.575776 
L 384.48 242.073792 
L 388.538182 241.58088 
L 392.596364 241.098552 
L 396.654545 240.629832 
L 400.712727 240.17472 
L 404.770909 239.737752 
L 408.829091 239.32044 
L 412.887273 238.92732 
L 416.945455 238.561416 
L 421.003636 238.225752 
L 425.061818 237.9294 
L 429.12 237.676896 
L 433.178182 237.477312 
L 437.236364 237.333672 
L 441.294545 237.255048 
L 445.352727 237.239928 
L 449.410909 237.285288 
L 453.469091 237.380544 
L 457.527273 237.516624 
L 461.585455 237.676896 
L 465.643636 237.852288 
L 469.701818 238.030704 
L 473.76 238.20156 
L 477.818182 238.358808 
L 481.876364 238.4964 
L 485.934545 238.608288 
L 489.992727 238.691448 
L 494.050909 238.741344 
L 498.109091 238.757976 
" clip-path="url(#p0ebc4bfcd1)" style="fill: none; stroke: #000000; stroke-opacity: 0.5; stroke-linecap: square"/>
   </g>
   <g id="line2d_19">
    <path d="M 92.290909 251.918424 
L 96.349091 251.89272 
L 100.407273 251.812584 
L 104.465455 251.68104 
L 108.523636 251.4996 
L 112.581818 251.266752 
L 116.64 250.987032 
L 120.698182 250.66044 
L 124.756364 250.291512 
L 128.814545 249.878736 
L 132.872727 249.42816 
L 136.930909 248.941296 
L 140.989091 248.418144 
L 145.047273 247.86324 
L 149.105455 247.278096 
L 153.163636 246.665736 
L 157.221818 246.027672 
L 161.28 245.366928 
L 165.338182 244.685016 
L 169.396364 243.983448 
L 173.454545 243.265248 
L 177.512727 242.531928 
L 181.570909 241.788024 
L 185.629091 241.032024 
L 189.687273 240.268464 
L 193.745455 239.500368 
L 197.803636 238.727736 
L 201.861818 237.953592 
L 205.92 237.18096 
L 209.978182 236.411352 
L 214.036364 235.647792 
L 218.094545 234.891792 
L 222.152727 234.147888 
L 226.210909 233.41608 
L 230.269091 232.700904 
L 234.327273 232.00236 
L 238.385455 231.326496 
L 242.443636 230.6718 
L 246.501818 230.042808 
L 250.56 229.442544 
L 254.618182 228.87252 
L 258.676364 228.332736 
L 262.734545 227.827728 
L 266.792727 227.355984 
L 270.850909 226.92204 
L 274.909091 226.525896 
L 278.967273 226.169064 
L 283.025455 225.850032 
L 287.083636 225.570312 
L 291.141818 225.329904 
L 295.2 225.128808 
L 299.258182 224.967024 
L 303.316364 224.841528 
L 307.374545 224.753832 
L 311.432727 224.700912 
L 315.490909 224.682768 
L 319.549091 224.697888 
L 323.607273 224.743248 
L 327.665455 224.818848 
L 331.723636 224.924688 
L 335.781818 225.056232 
L 339.84 225.211968 
L 343.898182 225.393408 
L 347.956364 225.596016 
L 352.014545 225.81828 
L 356.072727 226.061712 
L 360.130909 226.321776 
L 364.189091 226.598472 
L 368.247273 226.8918 
L 372.305455 227.197224 
L 376.363636 227.514744 
L 380.421818 227.84436 
L 384.48 228.183048 
L 388.538182 228.529296 
L 392.596364 228.883104 
L 396.654545 229.239936 
L 400.712727 229.599792 
L 404.770909 229.959648 
L 408.829091 230.31648 
L 412.887273 230.665752 
L 416.945455 231.00444 
L 421.003636 231.328008 
L 425.061818 231.628896 
L 429.12 231.899544 
L 433.178182 232.133904 
L 437.236364 232.322904 
L 441.294545 232.458984 
L 445.352727 232.543656 
L 449.410909 232.575408 
L 453.469091 232.563312 
L 457.527273 232.517952 
L 461.585455 232.4484 
L 465.643636 232.366752 
L 469.701818 232.277544 
L 473.76 232.19136 
L 477.818182 232.111224 
L 481.876364 232.04016 
L 485.934545 231.984216 
L 489.992727 231.94188 
L 494.050909 231.916176 
L 498.109091 231.907104 
" clip-path="url(#p0ebc4bfcd1)" style="fill: none; stroke: #000000; stroke-opacity: 0.5; stroke-linecap: square"/>
   </g>
   <g id="line2d_20">
    <path d="M 92.290909 145.966536 
L 96.349091 146.058768 
L 100.407273 146.341512 
L 104.465455 146.819304 
L 108.523636 147.463416 
L 112.581818 148.228488 
L 116.64 149.075208 
L 120.698182 149.970312 
L 124.756364 150.892632 
L 128.814545 151.830072 
L 132.872727 152.77356 
L 136.930909 153.714024 
L 140.989091 154.649952 
L 145.047273 155.575296 
L 149.105455 156.487032 
L 153.163636 157.38516 
L 157.221818 158.265144 
L 161.28 159.128496 
L 165.338182 159.97068 
L 169.396364 160.791696 
L 173.454545 161.590032 
L 177.512727 162.364176 
L 181.570909 163.112616 
L 185.629091 163.835352 
L 189.687273 164.52936 
L 193.745455 165.19464 
L 197.803636 165.828168 
L 201.861818 166.429944 
L 205.92 166.996944 
L 209.978182 167.53068 
L 214.036364 168.026616 
L 218.094545 168.48324 
L 222.152727 168.900552 
L 226.210909 169.275528 
L 230.269091 169.606656 
L 234.327273 169.893936 
L 238.385455 170.132832 
L 242.443636 170.323344 
L 246.501818 170.46396 
L 250.56 170.551656 
L 254.618182 170.587944 
L 258.676364 170.568288 
L 262.734545 170.4942 
L 266.792727 170.364168 
L 270.850909 170.17668 
L 274.909091 169.933248 
L 278.967273 169.63236 
L 283.025455 169.275528 
L 287.083636 168.862752 
L 291.141818 168.397056 
L 295.2 167.876928 
L 299.258182 167.308416 
L 303.316364 166.690008 
L 307.374545 166.029264 
L 311.432727 165.327696 
L 315.490909 164.592864 
L 319.549091 163.832328 
L 323.607273 163.056672 
L 327.665455 162.287064 
L 331.723636 161.556768 
L 335.781818 160.92324 
L 339.84 160.489296 
L 343.898182 160.391016 
L 347.956364 160.691904 
L 352.014545 161.317872 
L 356.072727 162.135864 
L 360.130909 163.052136 
L 364.189091 164.013768 
L 368.247273 164.989008 
L 372.305455 165.964248 
L 376.363636 166.92588 
L 380.421818 167.87088 
L 384.48 168.7932 
L 388.538182 169.688304 
L 392.596364 170.556192 
L 396.654545 171.392328 
L 400.712727 172.196712 
L 404.770909 172.967832 
L 408.829091 173.704176 
L 412.887273 174.405744 
L 416.945455 175.071024 
L 421.003636 175.700016 
L 425.061818 176.291208 
L 429.12 176.846112 
L 433.178182 177.363216 
L 437.236364 177.84252 
L 441.294545 178.285536 
L 445.352727 178.693776 
L 449.410909 179.064216 
L 453.469091 179.39988 
L 457.527273 179.70228 
L 461.585455 179.969904 
L 465.643636 180.207288 
L 469.701818 180.411408 
L 473.76 180.5868 
L 477.818182 180.733464 
L 481.876364 180.8514 
L 485.934545 180.94212 
L 489.992727 181.005624 
L 494.050909 181.044936 
L 498.109091 181.057032 
" clip-path="url(#p0ebc4bfcd1)" style="fill: none; stroke: #000000; stroke-opacity: 0.5; stroke-linecap: square"/>
   </g>
   <g id="line2d_21">
    <path d="M 92.290909 143.63352 
L 96.349091 143.68644 
L 100.407273 143.805888 
L 104.465455 143.926848 
L 108.523636 144.006984 
L 112.581818 144.043272 
L 116.64 144.043272 
L 120.698182 144.016056 
L 124.756364 143.96616 
L 128.814545 143.899632 
L 132.872727 143.819496 
L 136.930909 143.72424 
L 140.989091 143.616888 
L 145.047273 143.498952 
L 149.105455 143.370432 
L 153.163636 143.229816 
L 157.221818 143.080128 
L 161.28 142.921368 
L 165.338182 142.752024 
L 169.396364 142.572096 
L 173.454545 142.384608 
L 177.512727 142.188048 
L 181.570909 141.982416 
L 185.629091 141.767712 
L 189.687273 141.545448 
L 193.745455 141.314112 
L 197.803636 141.075216 
L 201.861818 140.82876 
L 205.92 140.574744 
L 209.978182 140.313168 
L 214.036364 140.044032 
L 218.094545 139.768848 
L 222.152727 139.487616 
L 226.210909 139.198824 
L 230.269091 138.905496 
L 234.327273 138.60612 
L 238.385455 138.302208 
L 242.443636 137.992248 
L 246.501818 137.679264 
L 250.56 137.361744 
L 254.618182 137.0412 
L 258.676364 136.719144 
L 262.734545 136.397088 
L 266.792727 136.078056 
L 270.850909 135.769608 
L 274.909091 135.509544 
L 278.967273 135.579096 
L 283.025455 136.649592 
L 287.083636 138.043656 
L 291.141818 139.470984 
L 295.2 140.8968 
L 299.258182 142.309008 
L 303.316364 143.704584 
L 307.374545 145.078992 
L 311.432727 146.427696 
L 315.490909 147.74616 
L 319.549091 149.028336 
L 323.607273 150.26364 
L 327.665455 151.432416 
L 331.723636 152.504424 
L 335.781818 153.422208 
L 339.84 154.084464 
L 343.898182 154.359648 
L 347.956364 154.181232 
L 352.014545 153.629352 
L 356.072727 152.837064 
L 360.130909 151.898112 
L 364.189091 150.871464 
L 368.247273 149.788872 
L 372.305455 148.66848 
L 376.363636 147.523896 
L 380.421818 146.37024 
L 384.48 145.222632 
L 388.538182 144.105264 
L 392.596364 143.069544 
L 396.654545 142.248528 
L 400.712727 141.931008 
L 404.770909 142.299936 
L 408.829091 143.075592 
L 412.887273 144.002448 
L 416.945455 144.97164 
L 421.003636 145.945368 
L 425.061818 146.903976 
L 429.12 147.83688 
L 433.178182 148.739544 
L 437.236364 149.60592 
L 441.294545 150.432984 
L 445.352727 151.2162 
L 449.410909 151.95708 
L 453.469091 152.648064 
L 457.527273 153.289152 
L 461.585455 153.878832 
L 465.643636 154.412568 
L 469.701818 154.888848 
L 473.76 155.30616 
L 477.818182 155.662992 
L 481.876364 155.957832 
L 485.934545 156.189168 
L 489.992727 156.353976 
L 494.050909 156.453768 
L 498.109091 156.487032 
" clip-path="url(#p0ebc4bfcd1)" style="fill: none; stroke: #000000; stroke-opacity: 0.5; stroke-linecap: square"/>
   </g>
   <g id="line2d_22">
    <path d="M 92.290909 135.958608 
L 96.349091 135.7938 
L 100.407273 135.329616 
L 104.465455 134.632584 
L 108.523636 133.766208 
L 112.581818 132.783408 
L 116.64 131.715936 
L 120.698182 130.587984 
L 124.756364 129.41316 
L 128.814545 128.200536 
L 132.872727 126.959184 
L 136.930909 125.692128 
L 140.989091 124.403904 
L 145.047273 123.097536 
L 149.105455 121.776048 
L 153.163636 120.442464 
L 157.221818 119.096784 
L 161.28 117.745056 
L 165.338182 116.388792 
L 169.396364 115.031016 
L 173.454545 113.677776 
L 177.512727 112.336632 
L 181.570909 111.018168 
L 185.629091 109.735992 
L 189.687273 108.51732 
L 193.745455 107.406 
L 197.803636 106.515432 
L 201.861818 106.341552 
L 205.92 107.309232 
L 209.978182 108.677592 
L 214.036364 110.163888 
L 218.094545 111.695544 
L 222.152727 113.252904 
L 226.210909 114.820848 
L 230.269091 116.396352 
L 234.327273 117.971856 
L 238.385455 119.54736 
L 242.443636 121.118328 
L 246.501818 122.686272 
L 250.56 124.248168 
L 254.618182 125.802504 
L 258.676364 127.346256 
L 262.734545 128.880936 
L 266.792727 130.398984 
L 270.850909 131.89284 
L 274.909091 133.326216 
L 278.967273 134.414856 
L 283.025455 134.487432 
L 287.083636 134.224344 
L 291.141818 133.909848 
L 295.2 133.581744 
L 299.258182 133.249104 
L 303.316364 132.914952 
L 307.374545 132.579288 
L 311.432727 132.246648 
L 315.490909 131.917032 
L 319.549091 131.59044 
L 323.607273 131.269896 
L 327.665455 130.9554 
L 331.723636 130.649976 
L 335.781818 130.356648 
L 339.84 130.07844 
L 343.898182 129.8214 
L 347.956364 129.599136 
L 352.014545 129.429792 
L 356.072727 129.357216 
L 360.130909 129.455496 
L 364.189091 129.839544 
L 368.247273 130.559256 
L 372.305455 131.531472 
L 376.363636 132.635232 
L 380.421818 133.788888 
L 384.48 134.942544 
L 388.538182 136.056888 
L 392.596364 137.072952 
L 396.654545 137.854656 
L 400.712727 138.111696 
L 404.770909 137.665656 
L 408.829091 136.794744 
L 412.887273 135.762048 
L 416.945455 134.67492 
L 421.003636 133.580232 
L 425.061818 132.5052 
L 429.12 131.467968 
L 433.178182 130.485168 
L 437.236364 129.57192 
L 441.294545 128.743344 
L 445.352727 128.011536 
L 449.410909 127.37952 
L 453.469091 126.847296 
L 457.527273 126.40428 
L 461.585455 126.042912 
L 465.643636 125.748072 
L 469.701818 125.509176 
L 473.76 125.318664 
L 477.818182 125.165952 
L 481.876364 125.048016 
L 485.934545 124.96032 
L 489.992727 124.89984 
L 494.050909 124.863552 
L 498.109091 124.851456 
" clip-path="url(#p0ebc4bfcd1)" style="fill: none; stroke: #000000; stroke-opacity: 0.5; stroke-linecap: square"/>
   </g>
   <g id="line2d_23">
    <path d="M 92.290909 107.88984 
L 96.349091 107.883792 
L 100.407273 107.862624 
L 104.465455 107.827848 
L 108.523636 107.777952 
L 112.581818 107.71596 
L 116.64 107.638848 
L 120.698182 107.548128 
L 124.756364 107.442288 
L 128.814545 107.32284 
L 132.872727 107.189784 
L 136.930909 107.041608 
L 140.989091 106.878312 
L 145.047273 106.699896 
L 149.105455 106.50636 
L 153.163636 106.297704 
L 157.221818 106.073928 
L 161.28 105.832008 
L 165.338182 105.574968 
L 169.396364 105.301296 
L 173.454545 105.00948 
L 177.512727 104.704056 
L 181.570909 104.38956 
L 185.629091 104.085648 
L 189.687273 103.851288 
L 193.745455 103.842216 
L 197.803636 104.239872 
L 201.861818 104.55588 
L 205.92 104.129496 
L 209.978182 103.52772 
L 214.036364 102.944088 
L 218.094545 102.390696 
L 222.152727 101.858472 
L 226.210909 101.339856 
L 230.269091 100.825776 
L 234.327273 100.313208 
L 238.385455 99.796104 
L 242.443636 99.274464 
L 246.501818 98.745264 
L 250.56 98.210016 
L 254.618182 97.665696 
L 258.676364 97.115328 
L 262.734545 96.561936 
L 266.792727 96.011568 
L 270.850909 95.48388 
L 274.909091 95.05296 
L 278.967273 95.092272 
L 283.025455 96.180912 
L 287.083636 97.732224 
L 291.141818 99.37728 
L 295.2 101.045016 
L 299.258182 102.714264 
L 303.316364 104.375952 
L 307.374545 106.027056 
L 311.432727 107.666064 
L 315.490909 109.289952 
L 319.549091 110.897208 
L 323.607273 112.48632 
L 327.665455 114.055776 
L 331.723636 115.602552 
L 335.781818 117.125136 
L 339.84 118.61748 
L 343.898182 120.073536 
L 347.956364 121.479696 
L 352.014545 122.817816 
L 356.072727 124.044048 
L 360.130909 125.078256 
L 364.189091 125.811576 
L 368.247273 126.186552 
L 372.305455 126.286344 
L 376.363636 126.227376 
L 380.421818 126.085248 
L 384.48 125.900784 
L 388.538182 125.690616 
L 392.596364 125.465328 
L 396.654545 125.230968 
L 400.712727 124.989048 
L 404.770909 124.739568 
L 408.829091 124.48404 
L 412.887273 124.217928 
L 416.945455 123.941232 
L 421.003636 123.646392 
L 425.061818 123.330384 
L 429.12 122.985648 
L 433.178182 122.6016 
L 437.236364 122.172192 
L 441.294545 121.685328 
L 445.352727 121.139496 
L 449.410909 120.534696 
L 453.469091 119.876976 
L 457.527273 119.185992 
L 461.585455 118.476864 
L 465.643636 117.773784 
L 469.701818 117.096408 
L 473.76 116.464392 
L 477.818182 115.894368 
L 481.876364 115.402968 
L 485.934545 115.005312 
L 489.992727 114.711984 
L 494.050909 114.532056 
L 498.109091 114.471576 
" clip-path="url(#p0ebc4bfcd1)" style="fill: none; stroke: #000000; stroke-opacity: 0.5; stroke-linecap: square"/>
   </g>
   <g id="patch_3">
    <path d="M 72 384.48 
L 72 51.84 
" style="fill: none; stroke: #000000; stroke-width: 0.8; stroke-linejoin: miter; stroke-linecap: square"/>
   </g>
   <g id="patch_4">
    <path d="M 518.4 384.48 
L 518.4 51.84 
" style="fill: none; stroke: #000000; stroke-width: 0.8; stroke-linejoin: miter; stroke-linecap: square"/>
   </g>
   <g id="patch_5">
    <path d="M 72 384.48 
L 518.4 384.48 
" style="fill: none; stroke: #000000; stroke-width: 0.8; stroke-linejoin: miter; stroke-linecap: square"/>
   </g>
   <g id="patch_6">
    <path d="M 72 51.84 
L 518.4 51.84 
" style="fill: none; stroke: #000000; stroke-width: 0.8; stroke-linejoin: miter; stroke-linecap: square"/>
   </g>
  </g>
 </g>
 <defs>
  <clipPath id="p0ebc4bfcd1">
   <rect x="72" y="51.84" width="446.4" height="332.64"/>
  </clipPath>
 </defs>
</svg>
