<?xml version="1.0" encoding="utf-8" standalone="no"?>
<!DOCTYPE svg PUBLIC "-//W3C//DTD SVG 1.1//EN"
  "http://www.w3.org/Graphics/SVG/1.1/DTD/svg11.dtd">
<svg xmlns:xlink="http://www.w3.org/1999/xlink" width="576pt" height="432pt" viewBox="0 0 576 432" xmlns="http://www.w3.org/2000/svg" version="1.1">
 <metadata>
  <rdf:RDF xmlns:dc="http://purl.org/dc/elements/1.1/" xmlns:cc="http://creativecommons.org/ns#" xmlns:rdf="http://www.w3.org/1999/02/22-rdf-syntax-ns#">
   <cc:Work>
    <dc:type rdf:resource="http://purl.org/dc/dcmitype/StillImage"/>
    <dc:date>2023-05-04T01:12:49.661046</dc:date>
    <dc:format>image/svg+xml</dc:format>
    <dc:creator>
     <cc:Agent>
      <dc:title>Matplotlib v3.7.1, https://matplotlib.org/</dc:title>
     </cc:Agent>
    </dc:creator>
   </cc:Work>
  </rdf:RDF>
 </metadata>
 <defs>
  <style type="text/css">*{stroke-linejoin: round; stroke-linecap: butt}</style>
 </defs>
 <g id="figure_1">
  <g id="patch_1">
   <path d="M 0 432 
L 576 432 
L 576 0 
L 0 0 
z
" style="fill: #ffffff"/>
  </g>
  <g id="axes_1">
   <g id="patch_2">
    <path d="M 72 384.48 
L 518.4 384.48 
L 518.4 51.84 
L 72 51.84 
z
" style="fill: #ffffff"/>
   </g>
   <g id="matplotlib.axis_1">
    <g id="xtick_1">
     <g id="line2d_1">
      <defs>
       <path id="ma08711be41" d="M 0 0 
L 0 3.5 
" style="stroke: #000000; stroke-width: 0.8"/>
      </defs>
      <g>
       <use xlink:href="#ma08711be41" x="92.290909" y="384.48" style="stroke: #000000; stroke-width: 0.8"/>
      </g>
     </g>
     <g id="text_1">
      <!-- 0.0 -->
      <g transform="translate(84.339347 399.078438) scale(0.1 -0.1)">
       <defs>
        <path id="DejaVuSans-30" d="M 2034 4250 
Q 1547 4250 1301 3770 
Q 1056 3291 1056 2328 
Q 1056 1369 1301 889 
Q 1547 409 2034 409 
Q 2525 409 2770 889 
Q 3016 1369 3016 2328 
Q 3016 3291 2770 3770 
Q 2525 4250 2034 4250 
z
M 2034 4750 
Q 2819 4750 3233 4129 
Q 3647 3509 3647 2328 
Q 3647 1150 3233 529 
Q 2819 -91 2034 -91 
Q 1250 -91 836 529 
Q 422 1150 422 2328 
Q 422 3509 836 4129 
Q 1250 4750 2034 4750 
z
" transform="scale(0.015625)"/>
        <path id="DejaVuSans-2e" d="M 684 794 
L 1344 794 
L 1344 0 
L 684 0 
L 684 794 
z
" transform="scale(0.015625)"/>
       </defs>
       <use xlink:href="#DejaVuSans-30"/>
       <use xlink:href="#DejaVuSans-2e" x="63.623047"/>
       <use xlink:href="#DejaVuSans-30" x="95.410156"/>
      </g>
     </g>
    </g>
    <g id="xtick_2">
     <g id="line2d_2">
      <g>
       <use xlink:href="#ma08711be41" x="173.454545" y="384.48" style="stroke: #000000; stroke-width: 0.8"/>
      </g>
     </g>
     <g id="text_2">
      <!-- 0.2 -->
      <g transform="translate(165.502983 399.078438) scale(0.1 -0.1)">
       <defs>
        <path id="DejaVuSans-32" d="M 1228 531 
L 3431 531 
L 3431 0 
L 469 0 
L 469 531 
Q 828 903 1448 1529 
Q 2069 2156 2228 2338 
Q 2531 2678 2651 2914 
Q 2772 3150 2772 3378 
Q 2772 3750 2511 3984 
Q 2250 4219 1831 4219 
Q 1534 4219 1204 4116 
Q 875 4013 500 3803 
L 500 4441 
Q 881 4594 1212 4672 
Q 1544 4750 1819 4750 
Q 2544 4750 2975 4387 
Q 3406 4025 3406 3419 
Q 3406 3131 3298 2873 
Q 3191 2616 2906 2266 
Q 2828 2175 2409 1742 
Q 1991 1309 1228 531 
z
" transform="scale(0.015625)"/>
       </defs>
       <use xlink:href="#DejaVuSans-30"/>
       <use xlink:href="#DejaVuSans-2e" x="63.623047"/>
       <use xlink:href="#DejaVuSans-32" x="95.410156"/>
      </g>
     </g>
    </g>
    <g id="xtick_3">
     <g id="line2d_3">
      <g>
       <use xlink:href="#ma08711be41" x="254.618182" y="384.48" style="stroke: #000000; stroke-width: 0.8"/>
      </g>
     </g>
     <g id="text_3">
      <!-- 0.4 -->
      <g transform="translate(246.666619 399.078438) scale(0.1 -0.1)">
       <defs>
        <path id="DejaVuSans-34" d="M 2419 4116 
L 825 1625 
L 2419 1625 
L 2419 4116 
z
M 2253 4666 
L 3047 4666 
L 3047 1625 
L 3713 1625 
L 3713 1100 
L 3047 1100 
L 3047 0 
L 2419 0 
L 2419 1100 
L 313 1100 
L 313 1709 
L 2253 4666 
z
" transform="scale(0.015625)"/>
       </defs>
       <use xlink:href="#DejaVuSans-30"/>
       <use xlink:href="#DejaVuSans-2e" x="63.623047"/>
       <use xlink:href="#DejaVuSans-34" x="95.410156"/>
      </g>
     </g>
    </g>
    <g id="xtick_4">
     <g id="line2d_4">
      <g>
       <use xlink:href="#ma08711be41" x="335.781818" y="384.48" style="stroke: #000000; stroke-width: 0.8"/>
      </g>
     </g>
     <g id="text_4">
      <!-- 0.6 -->
      <g transform="translate(327.830256 399.078438) scale(0.1 -0.1)">
       <defs>
        <path id="DejaVuSans-36" d="M 2113 2584 
Q 1688 2584 1439 2293 
Q 1191 2003 1191 1497 
Q 1191 994 1439 701 
Q 1688 409 2113 409 
Q 2538 409 2786 701 
Q 3034 994 3034 1497 
Q 3034 2003 2786 2293 
Q 2538 2584 2113 2584 
z
M 3366 4563 
L 3366 3988 
Q 3128 4100 2886 4159 
Q 2644 4219 2406 4219 
Q 1781 4219 1451 3797 
Q 1122 3375 1075 2522 
Q 1259 2794 1537 2939 
Q 1816 3084 2150 3084 
Q 2853 3084 3261 2657 
Q 3669 2231 3669 1497 
Q 3669 778 3244 343 
Q 2819 -91 2113 -91 
Q 1303 -91 875 529 
Q 447 1150 447 2328 
Q 447 3434 972 4092 
Q 1497 4750 2381 4750 
Q 2619 4750 2861 4703 
Q 3103 4656 3366 4563 
z
" transform="scale(0.015625)"/>
       </defs>
       <use xlink:href="#DejaVuSans-30"/>
       <use xlink:href="#DejaVuSans-2e" x="63.623047"/>
       <use xlink:href="#DejaVuSans-36" x="95.410156"/>
      </g>
     </g>
    </g>
    <g id="xtick_5">
     <g id="line2d_5">
      <g>
       <use xlink:href="#ma08711be41" x="416.945455" y="384.48" style="stroke: #000000; stroke-width: 0.8"/>
      </g>
     </g>
     <g id="text_5">
      <!-- 0.8 -->
      <g transform="translate(408.993892 399.078438) scale(0.1 -0.1)">
       <defs>
        <path id="DejaVuSans-38" d="M 2034 2216 
Q 1584 2216 1326 1975 
Q 1069 1734 1069 1313 
Q 1069 891 1326 650 
Q 1584 409 2034 409 
Q 2484 409 2743 651 
Q 3003 894 3003 1313 
Q 3003 1734 2745 1975 
Q 2488 2216 2034 2216 
z
M 1403 2484 
Q 997 2584 770 2862 
Q 544 3141 544 3541 
Q 544 4100 942 4425 
Q 1341 4750 2034 4750 
Q 2731 4750 3128 4425 
Q 3525 4100 3525 3541 
Q 3525 3141 3298 2862 
Q 3072 2584 2669 2484 
Q 3125 2378 3379 2068 
Q 3634 1759 3634 1313 
Q 3634 634 3220 271 
Q 2806 -91 2034 -91 
Q 1263 -91 848 271 
Q 434 634 434 1313 
Q 434 1759 690 2068 
Q 947 2378 1403 2484 
z
M 1172 3481 
Q 1172 3119 1398 2916 
Q 1625 2713 2034 2713 
Q 2441 2713 2670 2916 
Q 2900 3119 2900 3481 
Q 2900 3844 2670 4047 
Q 2441 4250 2034 4250 
Q 1625 4250 1398 4047 
Q 1172 3844 1172 3481 
z
" transform="scale(0.015625)"/>
       </defs>
       <use xlink:href="#DejaVuSans-30"/>
       <use xlink:href="#DejaVuSans-2e" x="63.623047"/>
       <use xlink:href="#DejaVuSans-38" x="95.410156"/>
      </g>
     </g>
    </g>
    <g id="xtick_6">
     <g id="line2d_6">
      <g>
       <use xlink:href="#ma08711be41" x="498.109091" y="384.48" style="stroke: #000000; stroke-width: 0.8"/>
      </g>
     </g>
     <g id="text_6">
      <!-- 1.0 -->
      <g transform="translate(490.157528 399.078438) scale(0.1 -0.1)">
       <defs>
        <path id="DejaVuSans-31" d="M 794 531 
L 1825 531 
L 1825 4091 
L 703 3866 
L 703 4441 
L 1819 4666 
L 2450 4666 
L 2450 531 
L 3481 531 
L 3481 0 
L 794 0 
L 794 531 
z
" transform="scale(0.015625)"/>
       </defs>
       <use xlink:href="#DejaVuSans-31"/>
       <use xlink:href="#DejaVuSans-2e" x="63.623047"/>
       <use xlink:href="#DejaVuSans-30" x="95.410156"/>
      </g>
     </g>
    </g>
   </g>
   <g id="matplotlib.axis_2">
    <g id="ytick_1">
     <g id="line2d_7">
      <defs>
       <path id="m74b7fff242" d="M 0 0 
L -3.5 0 
" style="stroke: #000000; stroke-width: 0.8"/>
      </defs>
      <g>
       <use xlink:href="#m74b7fff242" x="72" y="369.36" style="stroke: #000000; stroke-width: 0.8"/>
      </g>
     </g>
     <g id="text_7">
      <!-- −5.0 -->
      <g transform="translate(40.717187 373.159219) scale(0.1 -0.1)">
       <defs>
        <path id="DejaVuSans-2212" d="M 678 2272 
L 4684 2272 
L 4684 1741 
L 678 1741 
L 678 2272 
z
" transform="scale(0.015625)"/>
        <path id="DejaVuSans-35" d="M 691 4666 
L 3169 4666 
L 3169 4134 
L 1269 4134 
L 1269 2991 
Q 1406 3038 1543 3061 
Q 1681 3084 1819 3084 
Q 2600 3084 3056 2656 
Q 3513 2228 3513 1497 
Q 3513 744 3044 326 
Q 2575 -91 1722 -91 
Q 1428 -91 1123 -41 
Q 819 9 494 109 
L 494 744 
Q 775 591 1075 516 
Q 1375 441 1709 441 
Q 2250 441 2565 725 
Q 2881 1009 2881 1497 
Q 2881 1984 2565 2268 
Q 2250 2553 1709 2553 
Q 1456 2553 1204 2497 
Q 953 2441 691 2322 
L 691 4666 
z
" transform="scale(0.015625)"/>
       </defs>
       <use xlink:href="#DejaVuSans-2212"/>
       <use xlink:href="#DejaVuSans-35" x="83.789062"/>
       <use xlink:href="#DejaVuSans-2e" x="147.412109"/>
       <use xlink:href="#DejaVuSans-30" x="179.199219"/>
      </g>
     </g>
    </g>
    <g id="ytick_2">
     <g id="line2d_8">
      <g>
       <use xlink:href="#m74b7fff242" x="72" y="331.56" style="stroke: #000000; stroke-width: 0.8"/>
      </g>
     </g>
     <g id="text_8">
      <!-- −2.5 -->
      <g transform="translate(40.717187 335.359219) scale(0.1 -0.1)">
       <use xlink:href="#DejaVuSans-2212"/>
       <use xlink:href="#DejaVuSans-32" x="83.789062"/>
       <use xlink:href="#DejaVuSans-2e" x="147.412109"/>
       <use xlink:href="#DejaVuSans-35" x="179.199219"/>
      </g>
     </g>
    </g>
    <g id="ytick_3">
     <g id="line2d_9">
      <g>
       <use xlink:href="#m74b7fff242" x="72" y="293.76" style="stroke: #000000; stroke-width: 0.8"/>
      </g>
     </g>
     <g id="text_9">
      <!-- 0.0 -->
      <g transform="translate(49.096875 297.559219) scale(0.1 -0.1)">
       <use xlink:href="#DejaVuSans-30"/>
       <use xlink:href="#DejaVuSans-2e" x="63.623047"/>
       <use xlink:href="#DejaVuSans-30" x="95.410156"/>
      </g>
     </g>
    </g>
    <g id="ytick_4">
     <g id="line2d_10">
      <g>
       <use xlink:href="#m74b7fff242" x="72" y="255.96" style="stroke: #000000; stroke-width: 0.8"/>
      </g>
     </g>
     <g id="text_10">
      <!-- 2.5 -->
      <g transform="translate(49.096875 259.759219) scale(0.1 -0.1)">
       <use xlink:href="#DejaVuSans-32"/>
       <use xlink:href="#DejaVuSans-2e" x="63.623047"/>
       <use xlink:href="#DejaVuSans-35" x="95.410156"/>
      </g>
     </g>
    </g>
    <g id="ytick_5">
     <g id="line2d_11">
      <g>
       <use xlink:href="#m74b7fff242" x="72" y="218.16" style="stroke: #000000; stroke-width: 0.8"/>
      </g>
     </g>
     <g id="text_11">
      <!-- 5.0 -->
      <g transform="translate(49.096875 221.959219) scale(0.1 -0.1)">
       <use xlink:href="#DejaVuSans-35"/>
       <use xlink:href="#DejaVuSans-2e" x="63.623047"/>
       <use xlink:href="#DejaVuSans-30" x="95.410156"/>
      </g>
     </g>
    </g>
    <g id="ytick_6">
     <g id="line2d_12">
      <g>
       <use xlink:href="#m74b7fff242" x="72" y="180.36" style="stroke: #000000; stroke-width: 0.8"/>
      </g>
     </g>
     <g id="text_12">
      <!-- 7.5 -->
      <g transform="translate(49.096875 184.159219) scale(0.1 -0.1)">
       <defs>
        <path id="DejaVuSans-37" d="M 525 4666 
L 3525 4666 
L 3525 4397 
L 1831 0 
L 1172 0 
L 2766 4134 
L 525 4134 
L 525 4666 
z
" transform="scale(0.015625)"/>
       </defs>
       <use xlink:href="#DejaVuSans-37"/>
       <use xlink:href="#DejaVuSans-2e" x="63.623047"/>
       <use xlink:href="#DejaVuSans-35" x="95.410156"/>
      </g>
     </g>
    </g>
    <g id="ytick_7">
     <g id="line2d_13">
      <g>
       <use xlink:href="#m74b7fff242" x="72" y="142.56" style="stroke: #000000; stroke-width: 0.8"/>
      </g>
     </g>
     <g id="text_13">
      <!-- 10.0 -->
      <g transform="translate(42.734375 146.359219) scale(0.1 -0.1)">
       <use xlink:href="#DejaVuSans-31"/>
       <use xlink:href="#DejaVuSans-30" x="63.623047"/>
       <use xlink:href="#DejaVuSans-2e" x="127.246094"/>
       <use xlink:href="#DejaVuSans-30" x="159.033203"/>
      </g>
     </g>
    </g>
    <g id="ytick_8">
     <g id="line2d_14">
      <g>
       <use xlink:href="#m74b7fff242" x="72" y="104.76" style="stroke: #000000; stroke-width: 0.8"/>
      </g>
     </g>
     <g id="text_14">
      <!-- 12.5 -->
      <g transform="translate(42.734375 108.559219) scale(0.1 -0.1)">
       <use xlink:href="#DejaVuSans-31"/>
       <use xlink:href="#DejaVuSans-32" x="63.623047"/>
       <use xlink:href="#DejaVuSans-2e" x="127.246094"/>
       <use xlink:href="#DejaVuSans-35" x="159.033203"/>
      </g>
     </g>
    </g>
    <g id="ytick_9">
     <g id="line2d_15">
      <g>
       <use xlink:href="#m74b7fff242" x="72" y="66.96" style="stroke: #000000; stroke-width: 0.8"/>
      </g>
     </g>
     <g id="text_15">
      <!-- 15.0 -->
      <g transform="translate(42.734375 70.759219) scale(0.1 -0.1)">
       <use xlink:href="#DejaVuSans-31"/>
       <use xlink:href="#DejaVuSans-35" x="63.623047"/>
       <use xlink:href="#DejaVuSans-2e" x="127.246094"/>
       <use xlink:href="#DejaVuSans-30" x="159.033203"/>
      </g>
     </g>
    </g>
   </g>
   <g id="line2d_16">
    <path d="M 92.290909 322.167456 
L 96.349091 322.300512 
L 100.407273 322.66944 
L 104.465455 323.216784 
L 108.523636 323.882064 
L 112.581818 324.625968 
L 116.64 325.419768 
L 120.698182 326.24532 
L 124.756364 327.09204 
L 128.814545 327.95388 
L 132.872727 328.826304 
L 136.930909 329.703264 
L 140.989091 330.583248 
L 145.047273 331.466256 
L 149.105455 332.347752 
L 153.163636 333.227736 
L 157.221818 334.106208 
L 161.28 334.981656 
L 165.338182 335.85408 
L 169.396364 336.721968 
L 173.454545 337.583808 
L 177.512727 338.441112 
L 181.570909 339.29388 
L 185.629091 340.139088 
L 189.687273 340.978248 
L 193.745455 341.81136 
L 197.803636 342.636912 
L 201.861818 343.454904 
L 205.92 344.266848 
L 209.978182 345.06972 
L 214.036364 345.865032 
L 218.094545 346.651272 
L 222.152727 347.431464 
L 226.210909 348.201072 
L 230.269091 348.96312 
L 234.327273 349.716096 
L 238.385455 350.458488 
L 242.443636 351.19332 
L 246.501818 351.91908 
L 250.56 352.634256 
L 254.618182 353.34036 
L 258.676364 354.037392 
L 262.734545 354.72384 
L 266.792727 355.399704 
L 270.850909 356.066496 
L 274.909091 356.722704 
L 278.967273 357.368328 
L 283.025455 358.003368 
L 287.083636 358.629336 
L 291.141818 359.243208 
L 295.2 359.846496 
L 299.258182 360.440712 
L 303.316364 361.022832 
L 307.374545 361.592856 
L 311.432727 362.153808 
L 315.490909 362.702664 
L 319.549091 363.240936 
L 323.607273 363.767112 
L 327.665455 364.282704 
L 331.723636 364.7862 
L 335.781818 365.279112 
L 339.84 365.759928 
L 343.898182 366.228648 
L 347.956364 366.686784 
L 352.014545 367.134336 
L 356.072727 367.56828 
L 360.130909 367.99164 
L 364.189091 368.402904 
L 368.247273 368.802072 
L 372.305455 369.189144 
L 376.363636 369.56412 
L 380.421818 369.928512 
L 384.48 370.279296 
L 388.538182 370.619496 
L 392.596364 370.946088 
L 396.654545 371.262096 
L 400.712727 371.564496 
L 404.770909 371.856312 
L 408.829091 372.13452 
L 412.887273 372.400632 
L 416.945455 372.65616 
L 421.003636 372.89808 
L 425.061818 373.127904 
L 429.12 373.345632 
L 433.178182 373.551264 
L 437.236364 373.743288 
L 441.294545 373.924728 
L 445.352727 374.09256 
L 449.410909 374.248296 
L 453.469091 374.391936 
L 457.527273 374.521968 
L 461.585455 374.639904 
L 465.643636 374.747256 
L 469.701818 374.841 
L 473.76 374.921136 
L 477.818182 374.990688 
L 481.876364 375.046632 
L 485.934545 375.09048 
L 489.992727 375.12072 
L 494.050909 375.140376 
L 498.109091 375.146424 
" clip-path="url(#p6fb8074e7a)" style="fill: none; stroke: #000000; stroke-opacity: 0.5; stroke-linecap: square"/>
   </g>
   <g id="line2d_17">
    <path d="M 92.290909 315.463248 
L 96.349091 315.330192 
L 100.407273 314.95824 
L 104.465455 314.407872 
L 108.523636 313.736544 
L 112.581818 312.986592 
L 116.64 312.185232 
L 120.698182 311.350608 
L 124.756364 310.491792 
L 128.814545 309.617856 
L 132.872727 308.733336 
L 136.930909 307.841256 
L 140.989091 306.943128 
L 145.047273 306.043488 
L 149.105455 305.143848 
L 153.163636 304.242696 
L 157.221818 303.341544 
L 161.28 302.443416 
L 165.338182 301.5468 
L 169.396364 300.653208 
L 173.454545 299.76264 
L 177.512727 298.875096 
L 181.570909 297.992088 
L 185.629091 297.112104 
L 189.687273 296.236656 
L 193.745455 295.365744 
L 197.803636 294.497856 
L 201.861818 293.634504 
L 205.92 292.775688 
L 209.978182 291.919896 
L 214.036364 291.06864 
L 218.094545 290.22192 
L 222.152727 289.378224 
L 226.210909 288.537552 
L 230.269091 287.699904 
L 234.327273 286.866792 
L 238.385455 286.035192 
L 242.443636 285.205104 
L 246.501818 284.37804 
L 250.56 283.552488 
L 254.618182 282.728448 
L 258.676364 281.90592 
L 262.734545 281.083392 
L 266.792727 280.262376 
L 270.850909 279.44136 
L 274.909091 278.620344 
L 278.967273 277.797816 
L 283.025455 276.9768 
L 287.083636 276.15276 
L 291.141818 275.32872 
L 295.2 274.503168 
L 299.258182 273.674592 
L 303.316364 272.844504 
L 307.374545 272.012904 
L 311.432727 271.17828 
L 315.490909 270.342144 
L 319.549091 269.501472 
L 323.607273 268.659288 
L 327.665455 267.812568 
L 331.723636 266.964336 
L 335.781818 266.111568 
L 339.84 265.255776 
L 343.898182 264.395448 
L 347.956364 263.533608 
L 352.014545 262.667232 
L 356.072727 261.79632 
L 360.130909 260.922384 
L 364.189091 260.045424 
L 368.247273 259.16544 
L 372.305455 258.28092 
L 376.363636 257.394888 
L 380.421818 256.50432 
L 384.48 255.61224 
L 388.538182 254.717136 
L 392.596364 253.819008 
L 396.654545 252.919368 
L 400.712727 252.019728 
L 404.770909 251.117064 
L 408.829091 250.2144 
L 412.887273 249.313248 
L 416.945455 248.412096 
L 421.003636 247.512456 
L 425.061818 246.614328 
L 429.12 245.722248 
L 433.178182 244.833192 
L 437.236364 243.951696 
L 441.294545 243.079272 
L 445.352727 242.218944 
L 449.410909 241.370712 
L 453.469091 240.540624 
L 457.527273 239.731704 
L 461.585455 238.948488 
L 465.643636 238.198536 
L 469.701818 237.489408 
L 473.76 236.830176 
L 477.818182 236.234448 
L 481.876364 235.712808 
L 485.934545 235.2834 
L 489.992727 234.962856 
L 494.050909 234.76176 
L 498.109091 234.695232 
" clip-path="url(#p6fb8074e7a)" style="fill: none; stroke: #000000; stroke-opacity: 0.5; stroke-linecap: square"/>
   </g>
   <g id="line2d_18">
    <path d="M 92.290909 262.201536 
L 96.349091 262.192464 
L 100.407273 262.160712 
L 104.465455 262.110816 
L 108.523636 262.039752 
L 112.581818 261.94752 
L 116.64 261.835632 
L 120.698182 261.704088 
L 124.756364 261.552888 
L 128.814545 261.382032 
L 132.872727 261.19152 
L 136.930909 260.982864 
L 140.989091 260.754552 
L 145.047273 260.508096 
L 149.105455 260.245008 
L 153.163636 259.962264 
L 157.221818 259.662888 
L 161.28 259.348392 
L 165.338182 259.015752 
L 169.396364 258.667992 
L 173.454545 258.305112 
L 177.512727 257.927112 
L 181.570909 257.535504 
L 185.629091 257.130288 
L 189.687273 256.712976 
L 193.745455 256.282056 
L 197.803636 255.840552 
L 201.861818 255.386952 
L 205.92 254.922768 
L 209.978182 254.448 
L 214.036364 253.96416 
L 218.094545 253.471248 
L 222.152727 252.969264 
L 226.210909 252.45972 
L 230.269091 251.941104 
L 234.327273 251.414928 
L 238.385455 250.882704 
L 242.443636 250.34292 
L 246.501818 249.795576 
L 250.56 249.242184 
L 254.618182 248.681232 
L 258.676364 248.114232 
L 262.734545 247.542696 
L 266.792727 246.9636 
L 270.850909 246.378456 
L 274.909091 245.788776 
L 278.967273 245.191536 
L 283.025455 244.58976 
L 287.083636 243.981936 
L 291.141818 243.369576 
L 295.2 242.749656 
L 299.258182 242.126712 
L 303.316364 241.496208 
L 307.374545 240.861168 
L 311.432727 240.221592 
L 315.490909 239.57748 
L 319.549091 238.92732 
L 323.607273 238.274136 
L 327.665455 237.614904 
L 331.723636 236.952648 
L 335.781818 236.285856 
L 339.84 235.614528 
L 343.898182 234.941688 
L 347.956364 234.264312 
L 352.014545 233.585424 
L 356.072727 232.903512 
L 360.130909 232.220088 
L 364.189091 231.535152 
L 368.247273 230.848704 
L 372.305455 230.163768 
L 376.363636 229.47732 
L 380.421818 228.793896 
L 384.48 228.110472 
L 388.538182 227.431584 
L 392.596364 226.75572 
L 396.654545 226.084392 
L 400.712727 225.419112 
L 404.770909 224.761392 
L 408.829091 224.112744 
L 412.887273 223.473168 
L 416.945455 222.8472 
L 421.003636 222.233328 
L 425.061818 221.6376 
L 429.12 221.061528 
L 433.178182 220.509648 
L 437.236364 219.986496 
L 441.294545 219.501144 
L 445.352727 219.065688 
L 449.410909 218.70432 
L 453.469091 218.459376 
L 457.527273 218.388312 
L 461.585455 218.527416 
L 465.643636 218.8404 
L 469.701818 219.247128 
L 473.76 219.688632 
L 477.818182 220.124088 
L 481.876364 220.523256 
L 485.934545 220.864968 
L 489.992727 221.125032 
L 494.050909 221.28984 
L 498.109091 221.345784 
" clip-path="url(#p6fb8074e7a)" style="fill: none; stroke: #000000; stroke-opacity: 0.5; stroke-linecap: square"/>
   </g>
   <g id="line2d_19">
    <path d="M 92.290909 248.533056 
L 96.349091 248.523984 
L 100.407273 248.496768 
L 104.465455 248.448384 
L 108.523636 248.383368 
L 112.581818 248.298696 
L 116.64 248.194368 
L 120.698182 248.070384 
L 124.756364 247.928256 
L 128.814545 247.766472 
L 132.872727 247.585032 
L 136.930909 247.385448 
L 140.989091 247.164696 
L 145.047273 246.922776 
L 149.105455 246.662712 
L 153.163636 246.379968 
L 157.221818 246.077568 
L 161.28 245.755512 
L 165.338182 245.410776 
L 169.396364 245.046384 
L 173.454545 244.659312 
L 177.512727 244.251072 
L 181.570909 243.821664 
L 185.629091 243.371088 
L 189.687273 242.897832 
L 193.745455 242.403408 
L 197.803636 241.886304 
L 201.861818 241.348032 
L 205.92 240.788592 
L 209.978182 240.207984 
L 214.036364 239.606208 
L 218.094545 238.984776 
L 222.152727 238.342176 
L 226.210909 237.681432 
L 230.269091 237.001032 
L 234.327273 236.302488 
L 238.385455 235.5858 
L 242.443636 234.853992 
L 246.501818 234.105552 
L 250.56 233.343504 
L 254.618182 232.566336 
L 258.676364 231.778584 
L 262.734545 230.978736 
L 266.792727 230.169816 
L 270.850909 229.351824 
L 274.909091 228.526272 
L 278.967273 227.696184 
L 283.025455 226.86156 
L 287.083636 226.025424 
L 291.141818 225.187776 
L 295.2 224.35164 
L 299.258182 223.52004 
L 303.316364 222.691464 
L 307.374545 221.87196 
L 311.432727 221.061528 
L 315.490909 220.26168 
L 319.549091 219.476952 
L 323.607273 218.708856 
L 327.665455 217.960416 
L 331.723636 217.233144 
L 335.781818 216.531576 
L 339.84 215.857224 
L 343.898182 215.214624 
L 347.956364 214.6068 
L 352.014545 214.033752 
L 356.072727 213.50304 
L 360.130909 213.014664 
L 364.189091 212.57316 
L 368.247273 212.181552 
L 372.305455 211.841352 
L 376.363636 211.557096 
L 380.421818 211.327272 
L 384.48 211.156416 
L 388.538182 211.043016 
L 392.596364 210.990096 
L 396.654545 210.996144 
L 400.712727 211.06116 
L 404.770909 211.183632 
L 408.829091 211.360536 
L 412.887273 211.591872 
L 416.945455 211.871592 
L 421.003636 212.199696 
L 425.061818 212.567112 
L 429.12 212.97384 
L 433.178182 213.409296 
L 437.236364 213.868944 
L 441.294545 214.340688 
L 445.352727 214.809408 
L 449.410909 215.247888 
L 453.469091 215.61228 
L 457.527273 215.83908 
L 461.585455 215.885952 
L 465.643636 215.787672 
L 469.701818 215.613792 
L 473.76 215.417232 
L 477.818182 215.225208 
L 481.876364 215.055864 
L 485.934545 214.918272 
L 489.992727 214.815456 
L 494.050909 214.753464 
L 498.109091 214.732296 
" clip-path="url(#p6fb8074e7a)" style="fill: none; stroke: #000000; stroke-opacity: 0.5; stroke-linecap: square"/>
   </g>
   <g id="line2d_20">
    <path d="M 92.290909 177.671664 
L 96.349091 177.665616 
L 100.407273 177.647472 
L 104.465455 177.617232 
L 108.523636 177.573384 
L 112.581818 177.518952 
L 116.64 177.450912 
L 120.698182 177.372288 
L 124.756364 177.280056 
L 128.814545 177.175728 
L 132.872727 177.060816 
L 136.930909 176.932296 
L 140.989091 176.793192 
L 145.047273 176.641992 
L 149.105455 176.478696 
L 153.163636 176.304816 
L 157.221818 176.11884 
L 161.28 175.920768 
L 165.338182 175.712112 
L 169.396364 175.492872 
L 173.454545 175.261536 
L 177.512727 175.021128 
L 181.570909 174.768624 
L 185.629091 174.505536 
L 189.687273 174.233376 
L 193.745455 173.94912 
L 197.803636 173.657304 
L 201.861818 173.353392 
L 205.92 173.04192 
L 209.978182 172.721376 
L 214.036364 172.390248 
L 218.094545 172.05156 
L 222.152727 171.705312 
L 226.210909 171.349992 
L 230.269091 170.987112 
L 234.327273 170.616672 
L 238.385455 170.238672 
L 242.443636 169.854624 
L 246.501818 169.46604 
L 250.56 169.069896 
L 254.618182 168.670728 
L 258.676364 168.265512 
L 262.734545 167.857272 
L 266.792727 167.446008 
L 270.850909 167.033232 
L 274.909091 166.620456 
L 278.967273 166.206168 
L 283.025455 165.794904 
L 287.083636 165.386664 
L 291.141818 164.984472 
L 295.2 164.591352 
L 299.258182 164.208816 
L 303.316364 163.8414 
L 307.374545 163.49364 
L 311.432727 163.171584 
L 315.490909 162.88128 
L 319.549091 162.633312 
L 323.607273 162.43524 
L 327.665455 162.296136 
L 331.723636 162.225072 
L 335.781818 162.222048 
L 339.84 162.290088 
L 343.898182 162.417096 
L 347.956364 162.595512 
L 352.014545 162.808704 
L 356.072727 163.043064 
L 360.130909 163.286496 
L 364.189091 163.525392 
L 368.247273 163.755216 
L 372.305455 163.966896 
L 376.363636 164.155896 
L 380.421818 164.320704 
L 384.48 164.459808 
L 388.538182 164.576232 
L 392.596364 164.674512 
L 396.654545 164.760696 
L 400.712727 164.84688 
L 404.770909 164.94516 
L 408.829091 165.072168 
L 412.887273 165.241512 
L 416.945455 165.468312 
L 421.003636 165.757104 
L 425.061818 166.107888 
L 429.12 166.508568 
L 433.178182 166.951584 
L 437.236364 167.418792 
L 441.294545 167.902632 
L 445.352727 168.387984 
L 449.410909 168.867288 
L 453.469091 169.334496 
L 457.527273 169.779024 
L 461.585455 170.197848 
L 465.643636 170.58492 
L 469.701818 170.937216 
L 473.76 171.2502 
L 477.818182 171.520848 
L 481.876364 171.746136 
L 485.934545 171.92304 
L 489.992727 172.05156 
L 494.050909 172.128672 
L 498.109091 172.154376 
" clip-path="url(#p6fb8074e7a)" style="fill: none; stroke: #000000; stroke-opacity: 0.5; stroke-linecap: square"/>
   </g>
   <g id="line2d_21">
    <path d="M 92.290909 156.895272 
L 96.349091 156.8862 
L 100.407273 156.858984 
L 104.465455 156.815136 
L 108.523636 156.753144 
L 112.581818 156.673008 
L 116.64 156.574728 
L 120.698182 156.458304 
L 124.756364 156.323736 
L 128.814545 156.172536 
L 132.872727 156.00168 
L 136.930909 155.814192 
L 140.989091 155.60856 
L 145.047273 155.383272 
L 149.105455 155.141352 
L 153.163636 154.881288 
L 157.221818 154.601568 
L 161.28 154.303704 
L 165.338182 153.987696 
L 169.396364 153.653544 
L 173.454545 153.301248 
L 177.512727 152.929296 
L 181.570909 152.5392 
L 185.629091 152.13096 
L 189.687273 151.703064 
L 193.745455 151.257024 
L 197.803636 150.791328 
L 201.861818 150.307488 
L 205.92 149.803992 
L 209.978182 149.282352 
L 214.036364 148.741056 
L 218.094545 148.181616 
L 222.152727 147.60252 
L 226.210909 147.00528 
L 230.269091 146.389896 
L 234.327273 145.754856 
L 238.385455 145.103184 
L 242.443636 144.43488 
L 246.501818 143.749944 
L 250.56 143.057448 
L 254.618182 142.381584 
L 258.676364 142.024752 
L 262.734545 142.683984 
L 266.792727 143.55036 
L 270.850909 144.428832 
L 274.909091 145.299744 
L 278.967273 146.155536 
L 283.025455 146.994696 
L 287.083636 147.8142 
L 291.141818 148.611024 
L 295.2 149.382144 
L 299.258182 150.126048 
L 303.316364 150.836688 
L 307.374545 151.508016 
L 311.432727 152.137008 
L 315.490909 152.711568 
L 319.549091 153.22716 
L 323.607273 153.671688 
L 327.665455 154.03608 
L 331.723636 154.311264 
L 335.781818 154.495728 
L 339.84 154.590984 
L 343.898182 154.601568 
L 347.956364 154.544112 
L 352.014545 154.435248 
L 356.072727 154.290096 
L 360.130909 154.13436 
L 364.189091 153.989208 
L 368.247273 153.883368 
L 372.305455 153.851616 
L 376.363636 153.931752 
L 380.421818 154.150992 
L 384.48 154.506312 
L 388.538182 154.967472 
L 392.596364 155.489112 
L 396.654545 156.028896 
L 400.712727 156.552048 
L 404.770909 157.026816 
L 408.829091 157.427496 
L 412.887273 157.734432 
L 416.945455 157.92948 
L 421.003636 158.00508 
L 425.061818 157.962744 
L 429.12 157.811544 
L 433.178182 157.563576 
L 437.236364 157.235472 
L 441.294545 156.839328 
L 445.352727 156.390264 
L 449.410909 155.898864 
L 453.469091 155.377224 
L 457.527273 154.832904 
L 461.585455 154.278 
L 465.643636 153.720072 
L 469.701818 153.171216 
L 473.76 152.643528 
L 477.818182 152.147592 
L 481.876364 151.70004 
L 485.934545 151.320528 
L 489.992727 151.0272 
L 494.050909 150.841224 
L 498.109091 150.776208 
" clip-path="url(#p6fb8074e7a)" style="fill: none; stroke: #000000; stroke-opacity: 0.5; stroke-linecap: square"/>
   </g>
   <g id="line2d_22">
    <path d="M 92.290909 96.645096 
L 96.349091 97.06392 
L 100.407273 98.005896 
L 104.465455 99.136872 
L 108.523636 100.338912 
L 112.581818 101.56968 
L 116.64 102.812544 
L 120.698182 104.058432 
L 124.756364 105.302808 
L 128.814545 106.542648 
L 132.872727 107.779464 
L 136.930909 109.00872 
L 140.989091 110.230416 
L 145.047273 111.444552 
L 149.105455 112.651128 
L 153.163636 113.850144 
L 157.221818 115.040088 
L 161.28 116.22096 
L 165.338182 117.39276 
L 169.396364 118.555488 
L 173.454545 119.709144 
L 177.512727 120.853728 
L 181.570909 121.987728 
L 185.629091 123.114168 
L 189.687273 124.230024 
L 193.745455 125.336808 
L 197.803636 126.433008 
L 201.861818 127.520136 
L 205.92 128.59668 
L 209.978182 129.664152 
L 214.036364 130.72104 
L 218.094545 131.768856 
L 222.152727 132.804576 
L 226.210909 133.831224 
L 230.269091 134.845776 
L 234.327273 135.849744 
L 238.385455 136.841616 
L 242.443636 137.821392 
L 246.501818 138.784536 
L 250.56 139.728024 
L 254.618182 140.62464 
L 258.676364 141.170472 
L 262.734545 140.671512 
L 266.792727 139.933656 
L 270.850909 139.154976 
L 274.909091 138.353616 
L 278.967273 137.537136 
L 283.025455 136.711584 
L 287.083636 135.883008 
L 291.141818 135.063504 
L 295.2 134.27424 
L 299.258182 133.572672 
L 303.316364 133.10244 
L 307.374545 133.13268 
L 311.432727 133.734456 
L 315.490909 134.647704 
L 319.549091 135.683424 
L 323.607273 136.762992 
L 327.665455 137.85768 
L 331.723636 138.950856 
L 335.781818 140.03496 
L 339.84 141.103944 
L 343.898182 142.15176 
L 347.956364 143.176896 
L 352.014545 144.17028 
L 356.072727 145.125864 
L 360.130909 146.033064 
L 364.189091 146.875248 
L 368.247273 147.63276 
L 372.305455 148.270824 
L 376.363636 148.7592 
L 380.421818 149.06916 
L 384.48 149.203728 
L 388.538182 149.19012 
L 392.596364 149.06916 
L 396.654545 148.875624 
L 400.712727 148.63824 
L 404.770909 148.372128 
L 408.829091 148.090896 
L 412.887273 147.802104 
L 416.945455 147.514824 
L 421.003636 147.230568 
L 425.061818 146.956896 
L 429.12 146.693808 
L 433.178182 146.44584 
L 437.236364 146.214504 
L 441.294545 146.004336 
L 445.352727 145.816848 
L 449.410909 145.653552 
L 453.469091 145.517472 
L 457.527273 145.411632 
L 461.585455 145.336032 
L 465.643636 145.292184 
L 469.701818 145.280088 
L 473.76 145.299744 
L 477.818182 145.346616 
L 481.876364 145.413144 
L 485.934545 145.490256 
L 489.992727 145.56132 
L 494.050909 145.61424 
L 498.109091 145.632384 
" clip-path="url(#p6fb8074e7a)" style="fill: none; stroke: #000000; stroke-opacity: 0.5; stroke-linecap: square"/>
   </g>
   <g id="line2d_23">
    <path d="M 92.290909 92.924064 
L 96.349091 92.500704 
L 100.407273 91.542096 
L 104.465455 90.385416 
L 108.523636 89.1486 
L 112.581818 87.877008 
L 116.64 86.590296 
L 120.698182 85.30056 
L 124.756364 84.024432 
L 128.814545 82.77552 
L 132.872727 81.5886 
L 136.930909 80.524152 
L 140.989091 79.716744 
L 145.047273 79.394688 
L 149.105455 79.716744 
L 153.163636 80.543808 
L 157.221818 81.646056 
L 161.28 82.884384 
L 165.338182 84.193776 
L 169.396364 85.545504 
L 173.454545 86.919912 
L 177.512727 88.310952 
L 181.570909 89.709552 
L 185.629091 91.115712 
L 189.687273 92.523384 
L 193.745455 93.93408 
L 197.803636 95.343264 
L 201.861818 96.75396 
L 205.92 98.161632 
L 209.978182 99.56628 
L 214.036364 100.969416 
L 218.094545 102.369528 
L 222.152727 103.763592 
L 226.210909 105.154632 
L 230.269091 106.541136 
L 234.327273 107.921592 
L 238.385455 109.296 
L 242.443636 110.665872 
L 246.501818 112.026672 
L 250.56 113.381424 
L 254.618182 114.728616 
L 258.676364 116.066736 
L 262.734545 117.395784 
L 266.792727 118.714248 
L 270.850909 120.020616 
L 274.909091 121.314888 
L 278.967273 122.59404 
L 283.025455 123.853536 
L 287.083636 125.08884 
L 291.141818 126.287856 
L 295.2 127.426392 
L 299.258182 128.451528 
L 303.316364 129.219624 
L 307.374545 129.45852 
L 311.432727 129.100176 
L 315.490909 128.404656 
L 319.549091 127.562472 
L 323.607273 126.650736 
L 327.665455 125.702712 
L 331.723636 124.73352 
L 335.781818 123.752232 
L 339.84 122.76792 
L 343.898182 121.788144 
L 347.956364 120.821976 
L 352.014545 119.878488 
L 356.072727 118.974312 
L 360.130909 118.129104 
L 364.189091 117.373104 
L 368.247273 116.748648 
L 372.305455 116.310168 
L 376.363636 116.113608 
L 380.421818 116.18316 
L 384.48 116.499168 
L 388.538182 117.0072 
L 392.596364 117.646776 
L 396.654545 118.369512 
L 400.712727 119.143656 
L 404.770909 119.94804 
L 408.829091 120.767544 
L 412.887273 121.591584 
L 416.945455 122.417136 
L 421.003636 123.235128 
L 425.061818 124.04556 
L 429.12 124.843896 
L 433.178182 125.628624 
L 437.236364 126.395208 
L 441.294545 127.14516 
L 445.352727 127.872432 
L 449.410909 128.575512 
L 453.469091 129.249864 
L 457.527273 129.892464 
L 461.585455 130.498776 
L 465.643636 131.064264 
L 469.701818 131.581368 
L 473.76 132.045552 
L 477.818182 132.450768 
L 481.876364 132.790968 
L 485.934545 133.063128 
L 489.992727 133.259688 
L 494.050909 133.379136 
L 498.109091 133.418448 
" clip-path="url(#p6fb8074e7a)" style="fill: none; stroke: #000000; stroke-opacity: 0.5; stroke-linecap: square"/>
   </g>
   <g id="patch_3">
    <path d="M 72 384.48 
L 72 51.84 
" style="fill: none; stroke: #000000; stroke-width: 0.8; stroke-linejoin: miter; stroke-linecap: square"/>
   </g>
   <g id="patch_4">
    <path d="M 518.4 384.48 
L 518.4 51.84 
" style="fill: none; stroke: #000000; stroke-width: 0.8; stroke-linejoin: miter; stroke-linecap: square"/>
   </g>
   <g id="patch_5">
    <path d="M 72 384.48 
L 518.4 384.48 
" style="fill: none; stroke: #000000; stroke-width: 0.8; stroke-linejoin: miter; stroke-linecap: square"/>
   </g>
   <g id="patch_6">
    <path d="M 72 51.84 
L 518.4 51.84 
" style="fill: none; stroke: #000000; stroke-width: 0.8; stroke-linejoin: miter; stroke-linecap: square"/>
   </g>
  </g>
 </g>
 <defs>
  <clipPath id="p6fb8074e7a">
   <rect x="72" y="51.84" width="446.4" height="332.64"/>
  </clipPath>
 </defs>
</svg>
