<?xml version="1.0" encoding="utf-8" standalone="no"?>
<!DOCTYPE svg PUBLIC "-//W3C//DTD SVG 1.1//EN"
  "http://www.w3.org/Graphics/SVG/1.1/DTD/svg11.dtd">
<svg xmlns:xlink="http://www.w3.org/1999/xlink" width="576pt" height="432pt" viewBox="0 0 576 432" xmlns="http://www.w3.org/2000/svg" version="1.1">
 <metadata>
  <rdf:RDF xmlns:dc="http://purl.org/dc/elements/1.1/" xmlns:cc="http://creativecommons.org/ns#" xmlns:rdf="http://www.w3.org/1999/02/22-rdf-syntax-ns#">
   <cc:Work>
    <dc:type rdf:resource="http://purl.org/dc/dcmitype/StillImage"/>
    <dc:date>2023-05-04T04:06:28.828617</dc:date>
    <dc:format>image/svg+xml</dc:format>
    <dc:creator>
     <cc:Agent>
      <dc:title>Matplotlib v3.7.1, https://matplotlib.org/</dc:title>
     </cc:Agent>
    </dc:creator>
   </cc:Work>
  </rdf:RDF>
 </metadata>
 <defs>
  <style type="text/css">*{stroke-linejoin: round; stroke-linecap: butt}</style>
 </defs>
 <g id="figure_1">
  <g id="patch_1">
   <path d="M 0 432 
L 576 432 
L 576 0 
L 0 0 
z
" style="fill: #ffffff"/>
  </g>
  <g id="axes_1">
   <g id="patch_2">
    <path d="M 72 384.48 
L 518.4 384.48 
L 518.4 51.84 
L 72 51.84 
z
" style="fill: #ffffff"/>
   </g>
   <g id="matplotlib.axis_1">
    <g id="xtick_1">
     <g id="line2d_1">
      <defs>
       <path id="mb669fcd7b7" d="M 0 0 
L 0 3.5 
" style="stroke: #000000; stroke-width: 0.8"/>
      </defs>
      <g>
       <use xlink:href="#mb669fcd7b7" x="92.290909" y="384.48" style="stroke: #000000; stroke-width: 0.8"/>
      </g>
     </g>
     <g id="text_1">
      <!-- 0.0 -->
      <g transform="translate(84.339347 399.078438) scale(0.1 -0.1)">
       <defs>
        <path id="DejaVuSans-30" d="M 2034 4250 
Q 1547 4250 1301 3770 
Q 1056 3291 1056 2328 
Q 1056 1369 1301 889 
Q 1547 409 2034 409 
Q 2525 409 2770 889 
Q 3016 1369 3016 2328 
Q 3016 3291 2770 3770 
Q 2525 4250 2034 4250 
z
M 2034 4750 
Q 2819 4750 3233 4129 
Q 3647 3509 3647 2328 
Q 3647 1150 3233 529 
Q 2819 -91 2034 -91 
Q 1250 -91 836 529 
Q 422 1150 422 2328 
Q 422 3509 836 4129 
Q 1250 4750 2034 4750 
z
" transform="scale(0.015625)"/>
        <path id="DejaVuSans-2e" d="M 684 794 
L 1344 794 
L 1344 0 
L 684 0 
L 684 794 
z
" transform="scale(0.015625)"/>
       </defs>
       <use xlink:href="#DejaVuSans-30"/>
       <use xlink:href="#DejaVuSans-2e" x="63.623047"/>
       <use xlink:href="#DejaVuSans-30" x="95.410156"/>
      </g>
     </g>
    </g>
    <g id="xtick_2">
     <g id="line2d_2">
      <g>
       <use xlink:href="#mb669fcd7b7" x="173.454545" y="384.48" style="stroke: #000000; stroke-width: 0.8"/>
      </g>
     </g>
     <g id="text_2">
      <!-- 0.2 -->
      <g transform="translate(165.502983 399.078438) scale(0.1 -0.1)">
       <defs>
        <path id="DejaVuSans-32" d="M 1228 531 
L 3431 531 
L 3431 0 
L 469 0 
L 469 531 
Q 828 903 1448 1529 
Q 2069 2156 2228 2338 
Q 2531 2678 2651 2914 
Q 2772 3150 2772 3378 
Q 2772 3750 2511 3984 
Q 2250 4219 1831 4219 
Q 1534 4219 1204 4116 
Q 875 4013 500 3803 
L 500 4441 
Q 881 4594 1212 4672 
Q 1544 4750 1819 4750 
Q 2544 4750 2975 4387 
Q 3406 4025 3406 3419 
Q 3406 3131 3298 2873 
Q 3191 2616 2906 2266 
Q 2828 2175 2409 1742 
Q 1991 1309 1228 531 
z
" transform="scale(0.015625)"/>
       </defs>
       <use xlink:href="#DejaVuSans-30"/>
       <use xlink:href="#DejaVuSans-2e" x="63.623047"/>
       <use xlink:href="#DejaVuSans-32" x="95.410156"/>
      </g>
     </g>
    </g>
    <g id="xtick_3">
     <g id="line2d_3">
      <g>
       <use xlink:href="#mb669fcd7b7" x="254.618182" y="384.48" style="stroke: #000000; stroke-width: 0.8"/>
      </g>
     </g>
     <g id="text_3">
      <!-- 0.4 -->
      <g transform="translate(246.666619 399.078438) scale(0.1 -0.1)">
       <defs>
        <path id="DejaVuSans-34" d="M 2419 4116 
L 825 1625 
L 2419 1625 
L 2419 4116 
z
M 2253 4666 
L 3047 4666 
L 3047 1625 
L 3713 1625 
L 3713 1100 
L 3047 1100 
L 3047 0 
L 2419 0 
L 2419 1100 
L 313 1100 
L 313 1709 
L 2253 4666 
z
" transform="scale(0.015625)"/>
       </defs>
       <use xlink:href="#DejaVuSans-30"/>
       <use xlink:href="#DejaVuSans-2e" x="63.623047"/>
       <use xlink:href="#DejaVuSans-34" x="95.410156"/>
      </g>
     </g>
    </g>
    <g id="xtick_4">
     <g id="line2d_4">
      <g>
       <use xlink:href="#mb669fcd7b7" x="335.781818" y="384.48" style="stroke: #000000; stroke-width: 0.8"/>
      </g>
     </g>
     <g id="text_4">
      <!-- 0.6 -->
      <g transform="translate(327.830256 399.078438) scale(0.1 -0.1)">
       <defs>
        <path id="DejaVuSans-36" d="M 2113 2584 
Q 1688 2584 1439 2293 
Q 1191 2003 1191 1497 
Q 1191 994 1439 701 
Q 1688 409 2113 409 
Q 2538 409 2786 701 
Q 3034 994 3034 1497 
Q 3034 2003 2786 2293 
Q 2538 2584 2113 2584 
z
M 3366 4563 
L 3366 3988 
Q 3128 4100 2886 4159 
Q 2644 4219 2406 4219 
Q 1781 4219 1451 3797 
Q 1122 3375 1075 2522 
Q 1259 2794 1537 2939 
Q 1816 3084 2150 3084 
Q 2853 3084 3261 2657 
Q 3669 2231 3669 1497 
Q 3669 778 3244 343 
Q 2819 -91 2113 -91 
Q 1303 -91 875 529 
Q 447 1150 447 2328 
Q 447 3434 972 4092 
Q 1497 4750 2381 4750 
Q 2619 4750 2861 4703 
Q 3103 4656 3366 4563 
z
" transform="scale(0.015625)"/>
       </defs>
       <use xlink:href="#DejaVuSans-30"/>
       <use xlink:href="#DejaVuSans-2e" x="63.623047"/>
       <use xlink:href="#DejaVuSans-36" x="95.410156"/>
      </g>
     </g>
    </g>
    <g id="xtick_5">
     <g id="line2d_5">
      <g>
       <use xlink:href="#mb669fcd7b7" x="416.945455" y="384.48" style="stroke: #000000; stroke-width: 0.8"/>
      </g>
     </g>
     <g id="text_5">
      <!-- 0.8 -->
      <g transform="translate(408.993892 399.078438) scale(0.1 -0.1)">
       <defs>
        <path id="DejaVuSans-38" d="M 2034 2216 
Q 1584 2216 1326 1975 
Q 1069 1734 1069 1313 
Q 1069 891 1326 650 
Q 1584 409 2034 409 
Q 2484 409 2743 651 
Q 3003 894 3003 1313 
Q 3003 1734 2745 1975 
Q 2488 2216 2034 2216 
z
M 1403 2484 
Q 997 2584 770 2862 
Q 544 3141 544 3541 
Q 544 4100 942 4425 
Q 1341 4750 2034 4750 
Q 2731 4750 3128 4425 
Q 3525 4100 3525 3541 
Q 3525 3141 3298 2862 
Q 3072 2584 2669 2484 
Q 3125 2378 3379 2068 
Q 3634 1759 3634 1313 
Q 3634 634 3220 271 
Q 2806 -91 2034 -91 
Q 1263 -91 848 271 
Q 434 634 434 1313 
Q 434 1759 690 2068 
Q 947 2378 1403 2484 
z
M 1172 3481 
Q 1172 3119 1398 2916 
Q 1625 2713 2034 2713 
Q 2441 2713 2670 2916 
Q 2900 3119 2900 3481 
Q 2900 3844 2670 4047 
Q 2441 4250 2034 4250 
Q 1625 4250 1398 4047 
Q 1172 3844 1172 3481 
z
" transform="scale(0.015625)"/>
       </defs>
       <use xlink:href="#DejaVuSans-30"/>
       <use xlink:href="#DejaVuSans-2e" x="63.623047"/>
       <use xlink:href="#DejaVuSans-38" x="95.410156"/>
      </g>
     </g>
    </g>
    <g id="xtick_6">
     <g id="line2d_6">
      <g>
       <use xlink:href="#mb669fcd7b7" x="498.109091" y="384.48" style="stroke: #000000; stroke-width: 0.8"/>
      </g>
     </g>
     <g id="text_6">
      <!-- 1.0 -->
      <g transform="translate(490.157528 399.078438) scale(0.1 -0.1)">
       <defs>
        <path id="DejaVuSans-31" d="M 794 531 
L 1825 531 
L 1825 4091 
L 703 3866 
L 703 4441 
L 1819 4666 
L 2450 4666 
L 2450 531 
L 3481 531 
L 3481 0 
L 794 0 
L 794 531 
z
" transform="scale(0.015625)"/>
       </defs>
       <use xlink:href="#DejaVuSans-31"/>
       <use xlink:href="#DejaVuSans-2e" x="63.623047"/>
       <use xlink:href="#DejaVuSans-30" x="95.410156"/>
      </g>
     </g>
    </g>
   </g>
   <g id="matplotlib.axis_2">
    <g id="ytick_1">
     <g id="line2d_7">
      <defs>
       <path id="mcdde96108d" d="M 0 0 
L -3.5 0 
" style="stroke: #000000; stroke-width: 0.8"/>
      </defs>
      <g>
       <use xlink:href="#mcdde96108d" x="72" y="369.36" style="stroke: #000000; stroke-width: 0.8"/>
      </g>
     </g>
     <g id="text_7">
      <!-- −5.0 -->
      <g transform="translate(40.717187 373.159219) scale(0.1 -0.1)">
       <defs>
        <path id="DejaVuSans-2212" d="M 678 2272 
L 4684 2272 
L 4684 1741 
L 678 1741 
L 678 2272 
z
" transform="scale(0.015625)"/>
        <path id="DejaVuSans-35" d="M 691 4666 
L 3169 4666 
L 3169 4134 
L 1269 4134 
L 1269 2991 
Q 1406 3038 1543 3061 
Q 1681 3084 1819 3084 
Q 2600 3084 3056 2656 
Q 3513 2228 3513 1497 
Q 3513 744 3044 326 
Q 2575 -91 1722 -91 
Q 1428 -91 1123 -41 
Q 819 9 494 109 
L 494 744 
Q 775 591 1075 516 
Q 1375 441 1709 441 
Q 2250 441 2565 725 
Q 2881 1009 2881 1497 
Q 2881 1984 2565 2268 
Q 2250 2553 1709 2553 
Q 1456 2553 1204 2497 
Q 953 2441 691 2322 
L 691 4666 
z
" transform="scale(0.015625)"/>
       </defs>
       <use xlink:href="#DejaVuSans-2212"/>
       <use xlink:href="#DejaVuSans-35" x="83.789062"/>
       <use xlink:href="#DejaVuSans-2e" x="147.412109"/>
       <use xlink:href="#DejaVuSans-30" x="179.199219"/>
      </g>
     </g>
    </g>
    <g id="ytick_2">
     <g id="line2d_8">
      <g>
       <use xlink:href="#mcdde96108d" x="72" y="331.56" style="stroke: #000000; stroke-width: 0.8"/>
      </g>
     </g>
     <g id="text_8">
      <!-- −2.5 -->
      <g transform="translate(40.717187 335.359219) scale(0.1 -0.1)">
       <use xlink:href="#DejaVuSans-2212"/>
       <use xlink:href="#DejaVuSans-32" x="83.789062"/>
       <use xlink:href="#DejaVuSans-2e" x="147.412109"/>
       <use xlink:href="#DejaVuSans-35" x="179.199219"/>
      </g>
     </g>
    </g>
    <g id="ytick_3">
     <g id="line2d_9">
      <g>
       <use xlink:href="#mcdde96108d" x="72" y="293.76" style="stroke: #000000; stroke-width: 0.8"/>
      </g>
     </g>
     <g id="text_9">
      <!-- 0.0 -->
      <g transform="translate(49.096875 297.559219) scale(0.1 -0.1)">
       <use xlink:href="#DejaVuSans-30"/>
       <use xlink:href="#DejaVuSans-2e" x="63.623047"/>
       <use xlink:href="#DejaVuSans-30" x="95.410156"/>
      </g>
     </g>
    </g>
    <g id="ytick_4">
     <g id="line2d_10">
      <g>
       <use xlink:href="#mcdde96108d" x="72" y="255.96" style="stroke: #000000; stroke-width: 0.8"/>
      </g>
     </g>
     <g id="text_10">
      <!-- 2.5 -->
      <g transform="translate(49.096875 259.759219) scale(0.1 -0.1)">
       <use xlink:href="#DejaVuSans-32"/>
       <use xlink:href="#DejaVuSans-2e" x="63.623047"/>
       <use xlink:href="#DejaVuSans-35" x="95.410156"/>
      </g>
     </g>
    </g>
    <g id="ytick_5">
     <g id="line2d_11">
      <g>
       <use xlink:href="#mcdde96108d" x="72" y="218.16" style="stroke: #000000; stroke-width: 0.8"/>
      </g>
     </g>
     <g id="text_11">
      <!-- 5.0 -->
      <g transform="translate(49.096875 221.959219) scale(0.1 -0.1)">
       <use xlink:href="#DejaVuSans-35"/>
       <use xlink:href="#DejaVuSans-2e" x="63.623047"/>
       <use xlink:href="#DejaVuSans-30" x="95.410156"/>
      </g>
     </g>
    </g>
    <g id="ytick_6">
     <g id="line2d_12">
      <g>
       <use xlink:href="#mcdde96108d" x="72" y="180.36" style="stroke: #000000; stroke-width: 0.8"/>
      </g>
     </g>
     <g id="text_12">
      <!-- 7.5 -->
      <g transform="translate(49.096875 184.159219) scale(0.1 -0.1)">
       <defs>
        <path id="DejaVuSans-37" d="M 525 4666 
L 3525 4666 
L 3525 4397 
L 1831 0 
L 1172 0 
L 2766 4134 
L 525 4134 
L 525 4666 
z
" transform="scale(0.015625)"/>
       </defs>
       <use xlink:href="#DejaVuSans-37"/>
       <use xlink:href="#DejaVuSans-2e" x="63.623047"/>
       <use xlink:href="#DejaVuSans-35" x="95.410156"/>
      </g>
     </g>
    </g>
    <g id="ytick_7">
     <g id="line2d_13">
      <g>
       <use xlink:href="#mcdde96108d" x="72" y="142.56" style="stroke: #000000; stroke-width: 0.8"/>
      </g>
     </g>
     <g id="text_13">
      <!-- 10.0 -->
      <g transform="translate(42.734375 146.359219) scale(0.1 -0.1)">
       <use xlink:href="#DejaVuSans-31"/>
       <use xlink:href="#DejaVuSans-30" x="63.623047"/>
       <use xlink:href="#DejaVuSans-2e" x="127.246094"/>
       <use xlink:href="#DejaVuSans-30" x="159.033203"/>
      </g>
     </g>
    </g>
    <g id="ytick_8">
     <g id="line2d_14">
      <g>
       <use xlink:href="#mcdde96108d" x="72" y="104.76" style="stroke: #000000; stroke-width: 0.8"/>
      </g>
     </g>
     <g id="text_14">
      <!-- 12.5 -->
      <g transform="translate(42.734375 108.559219) scale(0.1 -0.1)">
       <use xlink:href="#DejaVuSans-31"/>
       <use xlink:href="#DejaVuSans-32" x="63.623047"/>
       <use xlink:href="#DejaVuSans-2e" x="127.246094"/>
       <use xlink:href="#DejaVuSans-35" x="159.033203"/>
      </g>
     </g>
    </g>
    <g id="ytick_9">
     <g id="line2d_15">
      <g>
       <use xlink:href="#mcdde96108d" x="72" y="66.96" style="stroke: #000000; stroke-width: 0.8"/>
      </g>
     </g>
     <g id="text_15">
      <!-- 15.0 -->
      <g transform="translate(42.734375 70.759219) scale(0.1 -0.1)">
       <use xlink:href="#DejaVuSans-31"/>
       <use xlink:href="#DejaVuSans-35" x="63.623047"/>
       <use xlink:href="#DejaVuSans-2e" x="127.246094"/>
       <use xlink:href="#DejaVuSans-30" x="159.033203"/>
      </g>
     </g>
    </g>
   </g>
   <g id="line2d_16">
    <path d="M 92.290909 337.878648 
L 96.349091 337.878648 
L 100.407273 337.88016 
L 104.465455 337.88016 
L 108.523636 337.883184 
L 112.581818 337.886208 
L 116.64 337.889232 
L 120.698182 337.893768 
L 124.756364 337.899816 
L 128.814545 337.908888 
L 132.872727 337.91796 
L 136.930909 337.930056 
L 140.989091 337.943664 
L 145.047273 337.961808 
L 149.105455 337.982976 
L 153.163636 338.007168 
L 157.221818 338.037408 
L 161.28 338.070672 
L 165.338182 338.109984 
L 169.396364 338.155344 
L 173.454545 338.20524 
L 177.512727 338.264208 
L 181.570909 338.329224 
L 185.629091 338.4018 
L 189.687273 338.483448 
L 193.745455 338.574168 
L 197.803636 338.672448 
L 201.861818 338.781312 
L 205.92 338.90076 
L 209.978182 339.02928 
L 214.036364 339.168384 
L 218.094545 339.318072 
L 222.152727 339.478344 
L 226.210909 339.6492 
L 230.269091 339.83064 
L 234.327273 340.022664 
L 238.385455 340.226784 
L 242.443636 340.439976 
L 246.501818 340.66224 
L 250.56 340.895088 
L 254.618182 341.137008 
L 258.676364 341.386488 
L 262.734545 341.646552 
L 266.792727 341.912664 
L 270.850909 342.186336 
L 274.909091 342.466056 
L 278.967273 342.751824 
L 283.025455 343.04364 
L 287.083636 343.339992 
L 291.141818 343.64088 
L 295.2 343.944792 
L 299.258182 344.250216 
L 303.316364 344.558664 
L 307.374545 344.870136 
L 311.432727 345.181608 
L 315.490909 345.49308 
L 319.549091 345.804552 
L 323.607273 346.114512 
L 327.665455 346.424472 
L 331.723636 346.73292 
L 335.781818 347.038344 
L 339.84 347.342256 
L 343.898182 347.641632 
L 347.956364 347.937984 
L 352.014545 348.2298 
L 356.072727 348.518592 
L 360.130909 348.801336 
L 364.189091 349.081056 
L 368.247273 349.353216 
L 372.305455 349.62084 
L 376.363636 349.882416 
L 380.421818 350.137944 
L 384.48 350.385912 
L 388.538182 350.627832 
L 392.596364 350.862192 
L 396.654545 351.090504 
L 400.712727 351.309744 
L 404.770909 351.522936 
L 408.829091 351.727056 
L 412.887273 351.925128 
L 416.945455 352.112616 
L 421.003636 352.294056 
L 425.061818 352.464912 
L 429.12 352.628208 
L 433.178182 352.782432 
L 437.236364 352.929096 
L 441.294545 353.065176 
L 445.352727 353.193696 
L 449.410909 353.311632 
L 453.469091 353.422008 
L 457.527273 353.5218 
L 461.585455 353.61252 
L 465.643636 353.694168 
L 469.701818 353.765232 
L 473.76 353.828736 
L 477.818182 353.881656 
L 481.876364 353.923992 
L 485.934545 353.958768 
L 489.992727 353.98296 
L 494.050909 353.996568 
L 498.109091 354.001104 
" clip-path="url(#p251633891a)" style="fill: none; stroke: #000000; stroke-opacity: 0.5; stroke-linecap: square"/>
   </g>
   <g id="line2d_17">
    <path d="M 92.290909 298.714824 
L 96.349091 298.728432 
L 100.407273 298.766232 
L 104.465455 298.831248 
L 108.523636 298.921968 
L 112.581818 299.035368 
L 116.64 299.17296 
L 120.698182 299.330208 
L 124.756364 299.508624 
L 128.814545 299.705184 
L 132.872727 299.916864 
L 136.930909 300.143664 
L 140.989091 300.38256 
L 145.047273 300.63204 
L 149.105455 300.88908 
L 153.163636 301.152168 
L 157.221818 301.41828 
L 161.28 301.685904 
L 165.338182 301.953528 
L 169.396364 302.21964 
L 173.454545 302.479704 
L 177.512727 302.73372 
L 181.570909 302.980176 
L 185.629091 303.216048 
L 189.687273 303.439824 
L 193.745455 303.649992 
L 197.803636 303.846552 
L 201.861818 304.02648 
L 205.92 304.189776 
L 209.978182 304.333416 
L 214.036364 304.458912 
L 218.094545 304.56324 
L 222.152727 304.6464 
L 226.210909 304.70688 
L 230.269091 304.74468 
L 234.327273 304.7598 
L 238.385455 304.75224 
L 242.443636 304.720488 
L 246.501818 304.664544 
L 250.56 304.58592 
L 254.618182 304.481592 
L 258.676364 304.356096 
L 262.734545 304.204896 
L 266.792727 304.031016 
L 270.850909 303.834456 
L 274.909091 303.615216 
L 278.967273 303.374808 
L 283.025455 303.11172 
L 287.083636 302.827464 
L 291.141818 302.52204 
L 295.2 302.198472 
L 299.258182 301.853736 
L 303.316364 301.489344 
L 307.374545 301.10832 
L 311.432727 300.709152 
L 315.490909 300.29184 
L 319.549091 299.859408 
L 323.607273 299.410344 
L 327.665455 298.94616 
L 331.723636 298.468368 
L 335.781818 297.975456 
L 339.84 297.470448 
L 343.898182 296.951832 
L 347.956364 296.42112 
L 352.014545 295.879824 
L 356.072727 295.327944 
L 360.130909 294.766992 
L 364.189091 294.195456 
L 368.247273 293.617872 
L 372.305455 293.031216 
L 376.363636 292.438512 
L 380.421818 291.841272 
L 384.48 291.237984 
L 388.538182 290.631672 
L 392.596364 290.022336 
L 396.654545 289.413 
L 400.712727 288.802152 
L 404.770909 288.191304 
L 408.829091 287.58348 
L 412.887273 286.980192 
L 416.945455 286.38144 
L 421.003636 285.788736 
L 425.061818 285.206616 
L 429.12 284.633568 
L 433.178182 284.072616 
L 437.236364 283.526784 
L 441.294545 282.997584 
L 445.352727 282.48804 
L 449.410909 282.001176 
L 453.469091 281.536992 
L 457.527273 281.101536 
L 461.585455 280.694808 
L 465.643636 280.321344 
L 469.701818 279.984168 
L 473.76 279.684792 
L 477.818182 279.427752 
L 481.876364 279.211536 
L 485.934545 279.042192 
L 489.992727 278.921232 
L 494.050909 278.847144 
L 498.109091 278.82144 
" clip-path="url(#p251633891a)" style="fill: none; stroke: #000000; stroke-opacity: 0.5; stroke-linecap: square"/>
   </g>
   <g id="line2d_18">
    <path d="M 92.290909 261.217224 
L 96.349091 261.208152 
L 100.407273 261.182448 
L 104.465455 261.140112 
L 108.523636 261.081144 
L 112.581818 261.005544 
L 116.64 260.913312 
L 120.698182 260.807472 
L 124.756364 260.688024 
L 128.814545 260.553456 
L 132.872727 260.408304 
L 136.930909 260.249544 
L 140.989091 260.0802 
L 145.047273 259.900272 
L 149.105455 259.70976 
L 153.163636 259.510176 
L 157.221818 259.30152 
L 161.28 259.085304 
L 165.338182 258.860016 
L 169.396364 258.627168 
L 173.454545 258.38676 
L 177.512727 258.140304 
L 181.570909 257.886288 
L 185.629091 257.626224 
L 189.687273 257.3586 
L 193.745455 257.084928 
L 197.803636 256.805208 
L 201.861818 256.51944 
L 205.92 256.229136 
L 209.978182 255.931272 
L 214.036364 255.628872 
L 218.094545 255.320424 
L 222.152727 255.008952 
L 226.210909 254.68992 
L 230.269091 254.367864 
L 234.327273 254.041272 
L 238.385455 253.711656 
L 242.443636 253.377504 
L 246.501818 253.038816 
L 250.56 252.698616 
L 254.618182 252.355392 
L 258.676364 252.009144 
L 262.734545 251.662896 
L 266.792727 251.313624 
L 270.850909 250.964352 
L 274.909091 250.61508 
L 278.967273 250.265808 
L 283.025455 249.918048 
L 287.083636 249.5718 
L 291.141818 249.228576 
L 295.2 248.886864 
L 299.258182 248.549688 
L 303.316364 248.21856 
L 307.374545 247.891968 
L 311.432727 247.572936 
L 315.490909 247.259952 
L 319.549091 246.95604 
L 323.607273 246.662712 
L 327.665455 246.378456 
L 331.723636 246.107808 
L 335.781818 245.847744 
L 339.84 245.6028 
L 343.898182 245.372976 
L 347.956364 245.158272 
L 352.014545 244.961712 
L 356.072727 244.783296 
L 360.130909 244.623024 
L 364.189091 244.482408 
L 368.247273 244.364472 
L 372.305455 244.266192 
L 376.363636 244.190592 
L 380.421818 244.139184 
L 384.48 244.108944 
L 388.538182 244.102896 
L 392.596364 244.119528 
L 396.654545 244.15884 
L 400.712727 244.222344 
L 404.770909 244.307016 
L 408.829091 244.412856 
L 412.887273 244.539864 
L 416.945455 244.686528 
L 421.003636 244.851336 
L 425.061818 245.031264 
L 429.12 245.226312 
L 433.178182 245.434968 
L 437.236364 245.652696 
L 441.294545 245.877984 
L 445.352727 246.10932 
L 449.410909 246.340656 
L 453.469091 246.571992 
L 457.527273 246.798792 
L 461.585455 247.018032 
L 465.643636 247.225176 
L 469.701818 247.4172 
L 473.76 247.592592 
L 477.818182 247.746816 
L 481.876364 247.876848 
L 485.934545 247.979664 
L 489.992727 248.055264 
L 494.050909 248.102136 
L 498.109091 248.117256 
" clip-path="url(#p251633891a)" style="fill: none; stroke: #000000; stroke-opacity: 0.5; stroke-linecap: square"/>
   </g>
   <g id="line2d_19">
    <path d="M 92.290909 245.781216 
L 96.349091 245.76156 
L 100.407273 245.702592 
L 104.465455 245.605824 
L 108.523636 245.469744 
L 112.581818 245.295864 
L 116.64 245.084184 
L 120.698182 244.837728 
L 124.756364 244.554984 
L 128.814545 244.238976 
L 132.872727 243.889704 
L 136.930909 243.511704 
L 140.989091 243.103464 
L 145.047273 242.666496 
L 149.105455 242.206848 
L 153.163636 241.723008 
L 157.221818 241.219512 
L 161.28 240.69636 
L 165.338182 240.158088 
L 169.396364 239.606208 
L 173.454545 239.045256 
L 177.512727 238.475232 
L 181.570909 237.89916 
L 185.629091 237.321576 
L 189.687273 236.745504 
L 193.745455 236.170944 
L 197.803636 235.603944 
L 201.861818 235.044504 
L 205.92 234.49716 
L 209.978182 233.963424 
L 214.036364 233.44632 
L 218.094545 232.948872 
L 222.152727 232.472592 
L 226.210909 232.018992 
L 230.269091 231.591096 
L 234.327273 231.191928 
L 238.385455 230.819976 
L 242.443636 230.478264 
L 246.501818 230.166792 
L 250.56 229.88556 
L 254.618182 229.637592 
L 258.676364 229.419864 
L 262.734545 229.233888 
L 266.792727 229.079664 
L 270.850909 228.95568 
L 274.909091 228.860424 
L 278.967273 228.792384 
L 283.025455 228.753072 
L 287.083636 228.737952 
L 291.141818 228.747024 
L 295.2 228.778776 
L 299.258182 228.831696 
L 303.316364 228.904272 
L 307.374545 228.99348 
L 311.432727 229.09932 
L 315.490909 229.22028 
L 319.549091 229.353336 
L 323.607273 229.498488 
L 327.665455 229.654224 
L 331.723636 229.81752 
L 335.781818 229.989888 
L 339.84 230.168304 
L 343.898182 230.352768 
L 347.956364 230.541768 
L 352.014545 230.733792 
L 356.072727 230.92884 
L 360.130909 231.126912 
L 364.189091 231.324984 
L 368.247273 231.524568 
L 372.305455 231.724152 
L 376.363636 231.923736 
L 380.421818 232.12332 
L 384.48 232.321392 
L 388.538182 232.517952 
L 392.596364 232.711488 
L 396.654545 232.905024 
L 400.712727 233.094024 
L 404.770909 233.281512 
L 408.829091 233.464464 
L 412.887273 233.644392 
L 416.945455 233.819784 
L 421.003636 233.99064 
L 425.061818 234.155448 
L 429.12 234.31572 
L 433.178182 234.468432 
L 437.236364 234.615096 
L 441.294545 234.7542 
L 445.352727 234.884232 
L 449.410909 235.008216 
L 453.469091 235.121616 
L 457.527273 235.227456 
L 461.585455 235.324224 
L 465.643636 235.410408 
L 469.701818 235.48752 
L 473.76 235.554048 
L 477.818182 235.611504 
L 481.876364 235.658376 
L 485.934545 235.694664 
L 489.992727 235.720368 
L 494.050909 235.737 
L 498.109091 235.741536 
" clip-path="url(#p251633891a)" style="fill: none; stroke: #000000; stroke-opacity: 0.5; stroke-linecap: square"/>
   </g>
   <g id="line2d_20">
    <path d="M 92.290909 155.87316 
L 96.349091 156.0168 
L 100.407273 156.415968 
L 104.465455 157.004136 
L 108.523636 157.716288 
L 112.581818 158.502528 
L 116.64 159.332616 
L 120.698182 160.185384 
L 124.756364 161.045712 
L 128.814545 161.904528 
L 132.872727 162.757296 
L 136.930909 163.596456 
L 140.989091 164.420496 
L 145.047273 165.22488 
L 149.105455 166.008096 
L 153.163636 166.76712 
L 157.221818 167.498928 
L 161.28 168.20352 
L 165.338182 168.877872 
L 169.396364 169.521984 
L 173.454545 170.13132 
L 177.512727 170.704368 
L 181.570909 171.24264 
L 185.629091 171.7416 
L 189.687273 172.198224 
L 193.745455 172.614024 
L 197.803636 172.985976 
L 201.861818 173.311056 
L 205.92 173.589264 
L 209.978182 173.817576 
L 214.036364 173.995992 
L 218.094545 174.121488 
L 222.152727 174.192552 
L 226.210909 174.209184 
L 230.269091 174.16836 
L 234.327273 174.071592 
L 238.385455 173.917368 
L 242.443636 173.705688 
L 246.501818 173.43504 
L 250.56 173.106936 
L 254.618182 172.721376 
L 258.676364 172.281384 
L 262.734545 171.785448 
L 266.792727 171.236592 
L 270.850909 170.636328 
L 274.909091 169.989192 
L 278.967273 169.295184 
L 283.025455 168.560352 
L 287.083636 167.790744 
L 291.141818 166.989384 
L 295.2 166.16988 
L 299.258182 165.344328 
L 303.316364 164.533896 
L 307.374545 163.78092 
L 311.432727 163.150416 
L 315.490909 162.749736 
L 319.549091 162.695304 
L 323.607273 163.012824 
L 327.665455 163.613088 
L 331.723636 164.376648 
L 335.781818 165.221856 
L 339.84 166.100328 
L 343.898182 166.984848 
L 347.956364 167.860296 
L 352.014545 168.714576 
L 356.072727 169.540128 
L 360.130909 170.33544 
L 364.189091 171.092952 
L 368.247273 171.811152 
L 372.305455 172.487016 
L 376.363636 173.11752 
L 380.421818 173.704176 
L 384.48 174.240936 
L 388.538182 174.730824 
L 392.596364 175.170816 
L 396.654545 175.5594 
L 400.712727 175.898088 
L 404.770909 176.185368 
L 408.829091 176.422752 
L 412.887273 176.61024 
L 416.945455 176.747832 
L 421.003636 176.83704 
L 425.061818 176.879376 
L 429.12 176.877864 
L 433.178182 176.832504 
L 437.236364 176.747832 
L 441.294545 176.62536 
L 445.352727 176.469624 
L 449.410909 176.283648 
L 453.469091 176.071968 
L 457.527273 175.83912 
L 461.585455 175.592664 
L 465.643636 175.338648 
L 469.701818 175.084632 
L 473.76 174.836664 
L 477.818182 174.605328 
L 481.876364 174.398184 
L 485.934545 174.225816 
L 489.992727 174.097296 
L 494.050909 174.015648 
L 498.109091 173.988432 
" clip-path="url(#p251633891a)" style="fill: none; stroke: #000000; stroke-opacity: 0.5; stroke-linecap: square"/>
   </g>
   <g id="line2d_21">
    <path d="M 92.290909 148.012272 
L 96.349091 147.85956 
L 100.407273 147.434688 
L 104.465455 146.807208 
L 108.523636 146.046672 
L 112.581818 145.209024 
L 116.64 144.341136 
L 120.698182 143.479296 
L 124.756364 142.661304 
L 128.814545 141.920424 
L 132.872727 141.28236 
L 136.930909 140.75316 
L 140.989091 140.323752 
L 145.047273 139.972968 
L 149.105455 139.678128 
L 153.163636 139.4226 
L 157.221818 139.194288 
L 161.28 138.982608 
L 165.338182 138.783024 
L 169.396364 138.589488 
L 173.454545 138.400488 
L 177.512727 138.214512 
L 181.570909 138.028536 
L 185.629091 137.844072 
L 189.687273 137.659608 
L 193.745455 137.473632 
L 197.803636 137.289168 
L 201.861818 137.104704 
L 205.92 136.923264 
L 209.978182 136.743336 
L 214.036364 136.567944 
L 218.094545 136.401624 
L 222.152727 136.248912 
L 226.210909 136.115856 
L 230.269091 136.017576 
L 234.327273 135.976752 
L 238.385455 136.034208 
L 242.443636 136.267056 
L 246.501818 136.762992 
L 250.56 137.567376 
L 254.618182 138.619728 
L 258.676364 139.82328 
L 262.734545 141.10848 
L 266.792727 142.432992 
L 270.850909 143.772624 
L 274.909091 145.11528 
L 278.967273 146.448864 
L 283.025455 147.765816 
L 287.083636 149.0616 
L 291.141818 150.327144 
L 295.2 151.553376 
L 299.258182 152.725176 
L 303.316364 153.821376 
L 307.374545 154.802664 
L 311.432727 155.602512 
L 315.490909 156.11508 
L 319.549091 156.225456 
L 323.607273 155.904912 
L 327.665455 155.248704 
L 331.723636 154.371744 
L 335.781818 153.360216 
L 339.84 152.262504 
L 343.898182 151.104312 
L 347.956364 149.905296 
L 352.014545 148.674528 
L 356.072727 147.42108 
L 360.130909 146.154024 
L 364.189091 144.874872 
L 368.247273 143.594208 
L 372.305455 142.315056 
L 376.363636 141.044976 
L 380.421818 139.79304 
L 384.48 138.569832 
L 388.538182 137.385936 
L 392.596364 136.259496 
L 396.654545 135.217728 
L 400.712727 134.892648 
L 404.770909 136.18692 
L 408.829091 137.514456 
L 412.887273 138.823848 
L 416.945455 140.112072 
L 421.003636 141.374592 
L 425.061818 142.611408 
L 429.12 143.819496 
L 433.178182 144.997344 
L 437.236364 146.141928 
L 441.294545 147.251736 
L 445.352727 148.323744 
L 449.410909 149.353416 
L 453.469091 150.337728 
L 457.527273 151.273656 
L 461.585455 152.15364 
L 465.643636 152.973144 
L 469.701818 153.724608 
L 473.76 154.401984 
L 477.818182 154.994688 
L 481.876364 155.496672 
L 485.934545 155.898864 
L 489.992727 156.192192 
L 494.050909 156.37212 
L 498.109091 156.4326 
" clip-path="url(#p251633891a)" style="fill: none; stroke: #000000; stroke-opacity: 0.5; stroke-linecap: square"/>
   </g>
   <g id="line2d_22">
    <path d="M 92.290909 138.414096 
L 96.349091 138.400488 
L 100.407273 138.35664 
L 104.465455 138.279528 
L 108.523636 138.166128 
L 112.581818 138.005856 
L 116.64 137.788128 
L 120.698182 137.4948 
L 124.756364 137.100168 
L 128.814545 136.583064 
L 132.872727 135.92232 
L 136.930909 135.116424 
L 140.989091 134.177472 
L 145.047273 133.131168 
L 149.105455 132.000192 
L 153.163636 130.8042 
L 157.221818 129.5568 
L 161.28 128.267064 
L 165.338182 126.945576 
L 169.396364 125.59536 
L 173.454545 124.21944 
L 177.512727 122.823864 
L 181.570909 121.411656 
L 185.629091 119.982816 
L 189.687273 118.546416 
L 193.745455 117.125136 
L 197.803636 116.095464 
L 201.861818 117.202248 
L 205.92 118.705176 
L 209.978182 120.230784 
L 214.036364 121.753368 
L 218.094545 123.263856 
L 222.152727 124.7562 
L 226.210909 126.221328 
L 230.269091 127.64412 
L 234.327273 129.000384 
L 238.385455 130.247784 
L 242.443636 131.312232 
L 246.501818 132.099984 
L 250.56 132.568704 
L 254.618182 132.775848 
L 258.676364 132.818184 
L 262.734545 132.766776 
L 266.792727 132.657912 
L 270.850909 132.517296 
L 274.909091 132.357024 
L 278.967273 132.183144 
L 283.025455 132.000192 
L 287.083636 131.814216 
L 291.141818 131.623704 
L 295.2 131.433192 
L 299.258182 131.241168 
L 303.316364 131.052168 
L 307.374545 130.863168 
L 311.432727 130.67568 
L 315.490909 130.491216 
L 319.549091 130.309776 
L 323.607273 130.13136 
L 327.665455 129.954456 
L 331.723636 129.782088 
L 335.781818 129.611232 
L 339.84 129.4434 
L 343.898182 129.27708 
L 347.956364 129.112272 
L 352.014545 128.948976 
L 356.072727 128.784168 
L 360.130909 128.61936 
L 364.189091 128.45304 
L 368.247273 128.283696 
L 372.305455 128.118888 
L 376.363636 127.990368 
L 380.421818 128.185416 
L 384.48 129.281616 
L 388.538182 130.646952 
L 392.596364 132.03648 
L 396.654545 133.407864 
L 400.712727 134.139672 
L 404.770909 133.342848 
L 408.829091 132.612552 
L 412.887273 131.997168 
L 416.945455 131.49216 
L 421.003636 131.085432 
L 425.061818 130.75884 
L 429.12 130.49424 
L 433.178182 130.281048 
L 437.236364 130.107168 
L 441.294545 129.96504 
L 445.352727 129.847104 
L 449.410909 129.748824 
L 453.469091 129.667176 
L 457.527273 129.597624 
L 461.585455 129.540168 
L 465.643636 129.493296 
L 469.701818 129.453984 
L 473.76 129.42072 
L 477.818182 129.395016 
L 481.876364 129.373848 
L 485.934545 129.357216 
L 489.992727 129.346632 
L 494.050909 129.340584 
L 498.109091 129.339072 
" clip-path="url(#p251633891a)" style="fill: none; stroke: #000000; stroke-opacity: 0.5; stroke-linecap: square"/>
   </g>
   <g id="line2d_23">
    <path d="M 92.290909 83.38032 
L 96.349091 83.484648 
L 100.407273 83.793096 
L 104.465455 84.29508 
L 108.523636 84.970944 
L 112.581818 85.798008 
L 116.64 86.756616 
L 120.698182 87.824088 
L 124.756364 88.980768 
L 128.814545 90.21456 
L 132.872727 91.508832 
L 136.930909 92.854512 
L 140.989091 94.241016 
L 145.047273 95.663808 
L 149.105455 97.113816 
L 153.163636 98.589528 
L 157.221818 100.083384 
L 161.28 101.593872 
L 165.338182 103.117968 
L 169.396364 104.651136 
L 173.454545 106.193376 
L 177.512727 107.741664 
L 181.570909 109.291464 
L 185.629091 110.842776 
L 189.687273 112.386528 
L 193.745455 113.901552 
L 197.803636 115.008336 
L 201.861818 113.96052 
L 205.92 112.499928 
L 209.978182 110.998512 
L 214.036364 109.47744 
L 218.094545 107.944272 
L 222.152727 106.40052 
L 226.210909 104.846184 
L 230.269091 103.284288 
L 234.327273 101.716344 
L 238.385455 100.14084 
L 242.443636 98.562312 
L 246.501818 96.977736 
L 250.56 95.391648 
L 254.618182 93.802536 
L 258.676364 92.214936 
L 262.734545 90.628848 
L 266.792727 89.048808 
L 270.850909 87.480864 
L 274.909091 86.006664 
L 278.967273 86.785344 
L 283.025455 88.504488 
L 287.083636 90.243288 
L 291.141818 91.980576 
L 295.2 93.713328 
L 299.258182 95.43852 
L 303.316364 97.157664 
L 307.374545 98.867736 
L 311.432727 100.567224 
L 315.490909 102.259152 
L 319.549091 103.938984 
L 323.607273 105.609744 
L 327.665455 107.268408 
L 331.723636 108.914976 
L 335.781818 110.55096 
L 339.84 112.173336 
L 343.898182 113.782104 
L 347.956364 115.378776 
L 352.014545 116.960328 
L 356.072727 118.52676 
L 360.130909 120.07656 
L 364.189091 121.608216 
L 368.247273 123.120216 
L 372.305455 124.598952 
L 376.363636 126.01116 
L 380.421818 127.058976 
L 384.48 127.157256 
L 388.538182 126.92592 
L 392.596364 126.59328 
L 396.654545 126.17748 
L 400.712727 125.669448 
L 404.770909 125.052552 
L 408.829091 124.322256 
L 412.887273 123.477048 
L 416.945455 122.529024 
L 421.003636 121.494816 
L 425.061818 120.395592 
L 429.12 119.249496 
L 433.178182 118.071648 
L 437.236364 116.877168 
L 441.294545 115.679664 
L 445.352727 114.488208 
L 449.410909 113.313384 
L 453.469091 112.165776 
L 457.527273 111.054456 
L 461.585455 109.990008 
L 465.643636 108.984528 
L 469.701818 108.0486 
L 473.76 107.195832 
L 477.818182 106.441344 
L 481.876364 105.797232 
L 485.934545 105.278616 
L 489.992727 104.897592 
L 494.050909 104.664744 
L 498.109091 104.58612 
" clip-path="url(#p251633891a)" style="fill: none; stroke: #000000; stroke-opacity: 0.5; stroke-linecap: square"/>
   </g>
   <g id="patch_3">
    <path d="M 72 384.48 
L 72 51.84 
" style="fill: none; stroke: #000000; stroke-width: 0.8; stroke-linejoin: miter; stroke-linecap: square"/>
   </g>
   <g id="patch_4">
    <path d="M 518.4 384.48 
L 518.4 51.84 
" style="fill: none; stroke: #000000; stroke-width: 0.8; stroke-linejoin: miter; stroke-linecap: square"/>
   </g>
   <g id="patch_5">
    <path d="M 72 384.48 
L 518.4 384.48 
" style="fill: none; stroke: #000000; stroke-width: 0.8; stroke-linejoin: miter; stroke-linecap: square"/>
   </g>
   <g id="patch_6">
    <path d="M 72 51.84 
L 518.4 51.84 
" style="fill: none; stroke: #000000; stroke-width: 0.8; stroke-linejoin: miter; stroke-linecap: square"/>
   </g>
  </g>
 </g>
 <defs>
  <clipPath id="p251633891a">
   <rect x="72" y="51.84" width="446.4" height="332.64"/>
  </clipPath>
 </defs>
</svg>
