<?xml version="1.0" encoding="utf-8" standalone="no"?>
<!DOCTYPE svg PUBLIC "-//W3C//DTD SVG 1.1//EN"
  "http://www.w3.org/Graphics/SVG/1.1/DTD/svg11.dtd">
<svg xmlns:xlink="http://www.w3.org/1999/xlink" width="576pt" height="432pt" viewBox="0 0 576 432" xmlns="http://www.w3.org/2000/svg" version="1.1">
 <metadata>
  <rdf:RDF xmlns:dc="http://purl.org/dc/elements/1.1/" xmlns:cc="http://creativecommons.org/ns#" xmlns:rdf="http://www.w3.org/1999/02/22-rdf-syntax-ns#">
   <cc:Work>
    <dc:type rdf:resource="http://purl.org/dc/dcmitype/StillImage"/>
    <dc:date>2023-05-04T00:48:27.760849</dc:date>
    <dc:format>image/svg+xml</dc:format>
    <dc:creator>
     <cc:Agent>
      <dc:title>Matplotlib v3.7.1, https://matplotlib.org/</dc:title>
     </cc:Agent>
    </dc:creator>
   </cc:Work>
  </rdf:RDF>
 </metadata>
 <defs>
  <style type="text/css">*{stroke-linejoin: round; stroke-linecap: butt}</style>
 </defs>
 <g id="figure_1">
  <g id="patch_1">
   <path d="M 0 432 
L 576 432 
L 576 0 
L 0 0 
z
" style="fill: #ffffff"/>
  </g>
  <g id="axes_1">
   <g id="patch_2">
    <path d="M 72 384.48 
L 518.4 384.48 
L 518.4 51.84 
L 72 51.84 
z
" style="fill: #ffffff"/>
   </g>
   <g id="matplotlib.axis_1">
    <g id="xtick_1">
     <g id="line2d_1">
      <defs>
       <path id="m1aff4ed330" d="M 0 0 
L 0 3.5 
" style="stroke: #000000; stroke-width: 0.8"/>
      </defs>
      <g>
       <use xlink:href="#m1aff4ed330" x="92.290909" y="384.48" style="stroke: #000000; stroke-width: 0.8"/>
      </g>
     </g>
     <g id="text_1">
      <!-- 0.0 -->
      <g transform="translate(84.339347 399.078438) scale(0.1 -0.1)">
       <defs>
        <path id="DejaVuSans-30" d="M 2034 4250 
Q 1547 4250 1301 3770 
Q 1056 3291 1056 2328 
Q 1056 1369 1301 889 
Q 1547 409 2034 409 
Q 2525 409 2770 889 
Q 3016 1369 3016 2328 
Q 3016 3291 2770 3770 
Q 2525 4250 2034 4250 
z
M 2034 4750 
Q 2819 4750 3233 4129 
Q 3647 3509 3647 2328 
Q 3647 1150 3233 529 
Q 2819 -91 2034 -91 
Q 1250 -91 836 529 
Q 422 1150 422 2328 
Q 422 3509 836 4129 
Q 1250 4750 2034 4750 
z
" transform="scale(0.015625)"/>
        <path id="DejaVuSans-2e" d="M 684 794 
L 1344 794 
L 1344 0 
L 684 0 
L 684 794 
z
" transform="scale(0.015625)"/>
       </defs>
       <use xlink:href="#DejaVuSans-30"/>
       <use xlink:href="#DejaVuSans-2e" x="63.623047"/>
       <use xlink:href="#DejaVuSans-30" x="95.410156"/>
      </g>
     </g>
    </g>
    <g id="xtick_2">
     <g id="line2d_2">
      <g>
       <use xlink:href="#m1aff4ed330" x="173.454545" y="384.48" style="stroke: #000000; stroke-width: 0.8"/>
      </g>
     </g>
     <g id="text_2">
      <!-- 0.2 -->
      <g transform="translate(165.502983 399.078438) scale(0.1 -0.1)">
       <defs>
        <path id="DejaVuSans-32" d="M 1228 531 
L 3431 531 
L 3431 0 
L 469 0 
L 469 531 
Q 828 903 1448 1529 
Q 2069 2156 2228 2338 
Q 2531 2678 2651 2914 
Q 2772 3150 2772 3378 
Q 2772 3750 2511 3984 
Q 2250 4219 1831 4219 
Q 1534 4219 1204 4116 
Q 875 4013 500 3803 
L 500 4441 
Q 881 4594 1212 4672 
Q 1544 4750 1819 4750 
Q 2544 4750 2975 4387 
Q 3406 4025 3406 3419 
Q 3406 3131 3298 2873 
Q 3191 2616 2906 2266 
Q 2828 2175 2409 1742 
Q 1991 1309 1228 531 
z
" transform="scale(0.015625)"/>
       </defs>
       <use xlink:href="#DejaVuSans-30"/>
       <use xlink:href="#DejaVuSans-2e" x="63.623047"/>
       <use xlink:href="#DejaVuSans-32" x="95.410156"/>
      </g>
     </g>
    </g>
    <g id="xtick_3">
     <g id="line2d_3">
      <g>
       <use xlink:href="#m1aff4ed330" x="254.618182" y="384.48" style="stroke: #000000; stroke-width: 0.8"/>
      </g>
     </g>
     <g id="text_3">
      <!-- 0.4 -->
      <g transform="translate(246.666619 399.078438) scale(0.1 -0.1)">
       <defs>
        <path id="DejaVuSans-34" d="M 2419 4116 
L 825 1625 
L 2419 1625 
L 2419 4116 
z
M 2253 4666 
L 3047 4666 
L 3047 1625 
L 3713 1625 
L 3713 1100 
L 3047 1100 
L 3047 0 
L 2419 0 
L 2419 1100 
L 313 1100 
L 313 1709 
L 2253 4666 
z
" transform="scale(0.015625)"/>
       </defs>
       <use xlink:href="#DejaVuSans-30"/>
       <use xlink:href="#DejaVuSans-2e" x="63.623047"/>
       <use xlink:href="#DejaVuSans-34" x="95.410156"/>
      </g>
     </g>
    </g>
    <g id="xtick_4">
     <g id="line2d_4">
      <g>
       <use xlink:href="#m1aff4ed330" x="335.781818" y="384.48" style="stroke: #000000; stroke-width: 0.8"/>
      </g>
     </g>
     <g id="text_4">
      <!-- 0.6 -->
      <g transform="translate(327.830256 399.078438) scale(0.1 -0.1)">
       <defs>
        <path id="DejaVuSans-36" d="M 2113 2584 
Q 1688 2584 1439 2293 
Q 1191 2003 1191 1497 
Q 1191 994 1439 701 
Q 1688 409 2113 409 
Q 2538 409 2786 701 
Q 3034 994 3034 1497 
Q 3034 2003 2786 2293 
Q 2538 2584 2113 2584 
z
M 3366 4563 
L 3366 3988 
Q 3128 4100 2886 4159 
Q 2644 4219 2406 4219 
Q 1781 4219 1451 3797 
Q 1122 3375 1075 2522 
Q 1259 2794 1537 2939 
Q 1816 3084 2150 3084 
Q 2853 3084 3261 2657 
Q 3669 2231 3669 1497 
Q 3669 778 3244 343 
Q 2819 -91 2113 -91 
Q 1303 -91 875 529 
Q 447 1150 447 2328 
Q 447 3434 972 4092 
Q 1497 4750 2381 4750 
Q 2619 4750 2861 4703 
Q 3103 4656 3366 4563 
z
" transform="scale(0.015625)"/>
       </defs>
       <use xlink:href="#DejaVuSans-30"/>
       <use xlink:href="#DejaVuSans-2e" x="63.623047"/>
       <use xlink:href="#DejaVuSans-36" x="95.410156"/>
      </g>
     </g>
    </g>
    <g id="xtick_5">
     <g id="line2d_5">
      <g>
       <use xlink:href="#m1aff4ed330" x="416.945455" y="384.48" style="stroke: #000000; stroke-width: 0.8"/>
      </g>
     </g>
     <g id="text_5">
      <!-- 0.8 -->
      <g transform="translate(408.993892 399.078438) scale(0.1 -0.1)">
       <defs>
        <path id="DejaVuSans-38" d="M 2034 2216 
Q 1584 2216 1326 1975 
Q 1069 1734 1069 1313 
Q 1069 891 1326 650 
Q 1584 409 2034 409 
Q 2484 409 2743 651 
Q 3003 894 3003 1313 
Q 3003 1734 2745 1975 
Q 2488 2216 2034 2216 
z
M 1403 2484 
Q 997 2584 770 2862 
Q 544 3141 544 3541 
Q 544 4100 942 4425 
Q 1341 4750 2034 4750 
Q 2731 4750 3128 4425 
Q 3525 4100 3525 3541 
Q 3525 3141 3298 2862 
Q 3072 2584 2669 2484 
Q 3125 2378 3379 2068 
Q 3634 1759 3634 1313 
Q 3634 634 3220 271 
Q 2806 -91 2034 -91 
Q 1263 -91 848 271 
Q 434 634 434 1313 
Q 434 1759 690 2068 
Q 947 2378 1403 2484 
z
M 1172 3481 
Q 1172 3119 1398 2916 
Q 1625 2713 2034 2713 
Q 2441 2713 2670 2916 
Q 2900 3119 2900 3481 
Q 2900 3844 2670 4047 
Q 2441 4250 2034 4250 
Q 1625 4250 1398 4047 
Q 1172 3844 1172 3481 
z
" transform="scale(0.015625)"/>
       </defs>
       <use xlink:href="#DejaVuSans-30"/>
       <use xlink:href="#DejaVuSans-2e" x="63.623047"/>
       <use xlink:href="#DejaVuSans-38" x="95.410156"/>
      </g>
     </g>
    </g>
    <g id="xtick_6">
     <g id="line2d_6">
      <g>
       <use xlink:href="#m1aff4ed330" x="498.109091" y="384.48" style="stroke: #000000; stroke-width: 0.8"/>
      </g>
     </g>
     <g id="text_6">
      <!-- 1.0 -->
      <g transform="translate(490.157528 399.078438) scale(0.1 -0.1)">
       <defs>
        <path id="DejaVuSans-31" d="M 794 531 
L 1825 531 
L 1825 4091 
L 703 3866 
L 703 4441 
L 1819 4666 
L 2450 4666 
L 2450 531 
L 3481 531 
L 3481 0 
L 794 0 
L 794 531 
z
" transform="scale(0.015625)"/>
       </defs>
       <use xlink:href="#DejaVuSans-31"/>
       <use xlink:href="#DejaVuSans-2e" x="63.623047"/>
       <use xlink:href="#DejaVuSans-30" x="95.410156"/>
      </g>
     </g>
    </g>
   </g>
   <g id="matplotlib.axis_2">
    <g id="ytick_1">
     <g id="line2d_7">
      <defs>
       <path id="m1bf4b86fc5" d="M 0 0 
L -3.5 0 
" style="stroke: #000000; stroke-width: 0.8"/>
      </defs>
      <g>
       <use xlink:href="#m1bf4b86fc5" x="72" y="369.36" style="stroke: #000000; stroke-width: 0.8"/>
      </g>
     </g>
     <g id="text_7">
      <!-- −5.0 -->
      <g transform="translate(40.717187 373.159219) scale(0.1 -0.1)">
       <defs>
        <path id="DejaVuSans-2212" d="M 678 2272 
L 4684 2272 
L 4684 1741 
L 678 1741 
L 678 2272 
z
" transform="scale(0.015625)"/>
        <path id="DejaVuSans-35" d="M 691 4666 
L 3169 4666 
L 3169 4134 
L 1269 4134 
L 1269 2991 
Q 1406 3038 1543 3061 
Q 1681 3084 1819 3084 
Q 2600 3084 3056 2656 
Q 3513 2228 3513 1497 
Q 3513 744 3044 326 
Q 2575 -91 1722 -91 
Q 1428 -91 1123 -41 
Q 819 9 494 109 
L 494 744 
Q 775 591 1075 516 
Q 1375 441 1709 441 
Q 2250 441 2565 725 
Q 2881 1009 2881 1497 
Q 2881 1984 2565 2268 
Q 2250 2553 1709 2553 
Q 1456 2553 1204 2497 
Q 953 2441 691 2322 
L 691 4666 
z
" transform="scale(0.015625)"/>
       </defs>
       <use xlink:href="#DejaVuSans-2212"/>
       <use xlink:href="#DejaVuSans-35" x="83.789062"/>
       <use xlink:href="#DejaVuSans-2e" x="147.412109"/>
       <use xlink:href="#DejaVuSans-30" x="179.199219"/>
      </g>
     </g>
    </g>
    <g id="ytick_2">
     <g id="line2d_8">
      <g>
       <use xlink:href="#m1bf4b86fc5" x="72" y="331.56" style="stroke: #000000; stroke-width: 0.8"/>
      </g>
     </g>
     <g id="text_8">
      <!-- −2.5 -->
      <g transform="translate(40.717187 335.359219) scale(0.1 -0.1)">
       <use xlink:href="#DejaVuSans-2212"/>
       <use xlink:href="#DejaVuSans-32" x="83.789062"/>
       <use xlink:href="#DejaVuSans-2e" x="147.412109"/>
       <use xlink:href="#DejaVuSans-35" x="179.199219"/>
      </g>
     </g>
    </g>
    <g id="ytick_3">
     <g id="line2d_9">
      <g>
       <use xlink:href="#m1bf4b86fc5" x="72" y="293.76" style="stroke: #000000; stroke-width: 0.8"/>
      </g>
     </g>
     <g id="text_9">
      <!-- 0.0 -->
      <g transform="translate(49.096875 297.559219) scale(0.1 -0.1)">
       <use xlink:href="#DejaVuSans-30"/>
       <use xlink:href="#DejaVuSans-2e" x="63.623047"/>
       <use xlink:href="#DejaVuSans-30" x="95.410156"/>
      </g>
     </g>
    </g>
    <g id="ytick_4">
     <g id="line2d_10">
      <g>
       <use xlink:href="#m1bf4b86fc5" x="72" y="255.96" style="stroke: #000000; stroke-width: 0.8"/>
      </g>
     </g>
     <g id="text_10">
      <!-- 2.5 -->
      <g transform="translate(49.096875 259.759219) scale(0.1 -0.1)">
       <use xlink:href="#DejaVuSans-32"/>
       <use xlink:href="#DejaVuSans-2e" x="63.623047"/>
       <use xlink:href="#DejaVuSans-35" x="95.410156"/>
      </g>
     </g>
    </g>
    <g id="ytick_5">
     <g id="line2d_11">
      <g>
       <use xlink:href="#m1bf4b86fc5" x="72" y="218.16" style="stroke: #000000; stroke-width: 0.8"/>
      </g>
     </g>
     <g id="text_11">
      <!-- 5.0 -->
      <g transform="translate(49.096875 221.959219) scale(0.1 -0.1)">
       <use xlink:href="#DejaVuSans-35"/>
       <use xlink:href="#DejaVuSans-2e" x="63.623047"/>
       <use xlink:href="#DejaVuSans-30" x="95.410156"/>
      </g>
     </g>
    </g>
    <g id="ytick_6">
     <g id="line2d_12">
      <g>
       <use xlink:href="#m1bf4b86fc5" x="72" y="180.36" style="stroke: #000000; stroke-width: 0.8"/>
      </g>
     </g>
     <g id="text_12">
      <!-- 7.5 -->
      <g transform="translate(49.096875 184.159219) scale(0.1 -0.1)">
       <defs>
        <path id="DejaVuSans-37" d="M 525 4666 
L 3525 4666 
L 3525 4397 
L 1831 0 
L 1172 0 
L 2766 4134 
L 525 4134 
L 525 4666 
z
" transform="scale(0.015625)"/>
       </defs>
       <use xlink:href="#DejaVuSans-37"/>
       <use xlink:href="#DejaVuSans-2e" x="63.623047"/>
       <use xlink:href="#DejaVuSans-35" x="95.410156"/>
      </g>
     </g>
    </g>
    <g id="ytick_7">
     <g id="line2d_13">
      <g>
       <use xlink:href="#m1bf4b86fc5" x="72" y="142.56" style="stroke: #000000; stroke-width: 0.8"/>
      </g>
     </g>
     <g id="text_13">
      <!-- 10.0 -->
      <g transform="translate(42.734375 146.359219) scale(0.1 -0.1)">
       <use xlink:href="#DejaVuSans-31"/>
       <use xlink:href="#DejaVuSans-30" x="63.623047"/>
       <use xlink:href="#DejaVuSans-2e" x="127.246094"/>
       <use xlink:href="#DejaVuSans-30" x="159.033203"/>
      </g>
     </g>
    </g>
    <g id="ytick_8">
     <g id="line2d_14">
      <g>
       <use xlink:href="#m1bf4b86fc5" x="72" y="104.76" style="stroke: #000000; stroke-width: 0.8"/>
      </g>
     </g>
     <g id="text_14">
      <!-- 12.5 -->
      <g transform="translate(42.734375 108.559219) scale(0.1 -0.1)">
       <use xlink:href="#DejaVuSans-31"/>
       <use xlink:href="#DejaVuSans-32" x="63.623047"/>
       <use xlink:href="#DejaVuSans-2e" x="127.246094"/>
       <use xlink:href="#DejaVuSans-35" x="159.033203"/>
      </g>
     </g>
    </g>
    <g id="ytick_9">
     <g id="line2d_15">
      <g>
       <use xlink:href="#m1bf4b86fc5" x="72" y="66.96" style="stroke: #000000; stroke-width: 0.8"/>
      </g>
     </g>
     <g id="text_15">
      <!-- 15.0 -->
      <g transform="translate(42.734375 70.759219) scale(0.1 -0.1)">
       <use xlink:href="#DejaVuSans-31"/>
       <use xlink:href="#DejaVuSans-35" x="63.623047"/>
       <use xlink:href="#DejaVuSans-2e" x="127.246094"/>
       <use xlink:href="#DejaVuSans-30" x="159.033203"/>
      </g>
     </g>
    </g>
   </g>
   <g id="line2d_16">
    <path d="M 92.290909 348.76656 
L 96.349091 348.762024 
L 100.407273 348.748416 
L 104.465455 348.724224 
L 108.523636 348.69096 
L 112.581818 348.647112 
L 116.64 348.595704 
L 120.698182 348.533712 
L 124.756364 348.462648 
L 128.814545 348.382512 
L 132.872727 348.291792 
L 136.930909 348.193512 
L 140.989091 348.084648 
L 145.047273 347.968224 
L 149.105455 347.841216 
L 153.163636 347.706648 
L 157.221818 347.561496 
L 161.28 347.408784 
L 165.338182 347.247 
L 169.396364 347.076144 
L 173.454545 346.897728 
L 177.512727 346.71024 
L 181.570909 346.515192 
L 185.629091 346.312584 
L 189.687273 346.100904 
L 193.745455 345.881664 
L 197.803636 345.654864 
L 201.861818 345.420504 
L 205.92 345.178584 
L 209.978182 344.930616 
L 214.036364 344.675088 
L 218.094545 344.413512 
L 222.152727 344.144376 
L 226.210909 343.869192 
L 230.269091 343.589472 
L 234.327273 343.303704 
L 238.385455 343.011888 
L 242.443636 342.715536 
L 246.501818 342.413136 
L 250.56 342.107712 
L 254.618182 341.797752 
L 258.676364 341.484768 
L 262.734545 341.16876 
L 266.792727 340.848216 
L 270.850909 340.52616 
L 274.909091 340.20108 
L 278.967273 339.874488 
L 283.025455 339.547896 
L 287.083636 339.219792 
L 291.141818 338.891688 
L 295.2 338.562072 
L 299.258182 338.23548 
L 303.316364 337.908888 
L 307.374545 337.583808 
L 311.432727 337.261752 
L 315.490909 336.94272 
L 319.549091 336.626712 
L 323.607273 336.31524 
L 327.665455 336.006792 
L 331.723636 335.705904 
L 335.781818 335.409552 
L 339.84 335.119248 
L 343.898182 334.834992 
L 347.956364 334.559808 
L 352.014545 334.290672 
L 356.072727 334.030608 
L 360.130909 333.779616 
L 364.189091 333.537696 
L 368.247273 333.304848 
L 372.305455 333.081072 
L 376.363636 332.86788 
L 380.421818 332.66376 
L 384.48 332.470224 
L 388.538182 332.287272 
L 392.596364 332.114904 
L 396.654545 331.95312 
L 400.712727 331.800408 
L 404.770909 331.65828 
L 408.829091 331.526736 
L 412.887273 331.404264 
L 416.945455 331.290864 
L 421.003636 331.185024 
L 425.061818 331.089768 
L 429.12 331.002072 
L 433.178182 330.921936 
L 437.236364 330.84936 
L 441.294545 330.784344 
L 445.352727 330.725376 
L 449.410909 330.672456 
L 453.469091 330.625584 
L 457.527273 330.583248 
L 461.585455 330.54696 
L 465.643636 330.515208 
L 469.701818 330.487992 
L 473.76 330.465312 
L 477.818182 330.447168 
L 481.876364 330.430536 
L 485.934545 330.419952 
L 489.992727 330.41088 
L 494.050909 330.406344 
L 498.109091 330.404832 
" clip-path="url(#p4b570cc73a)" style="fill: none; stroke: #000000; stroke-opacity: 0.5; stroke-linecap: square"/>
   </g>
   <g id="line2d_17">
    <path d="M 92.290909 285.561936 
L 96.349091 285.571008 
L 100.407273 285.599736 
L 104.465455 285.646608 
L 108.523636 285.713136 
L 112.581818 285.797808 
L 116.64 285.902136 
L 120.698182 286.023096 
L 124.756364 286.163712 
L 128.814545 286.322472 
L 132.872727 286.497864 
L 136.930909 286.6914 
L 140.989091 286.901568 
L 145.047273 287.12988 
L 149.105455 287.373312 
L 153.163636 287.633376 
L 157.221818 287.90856 
L 161.28 288.197352 
L 165.338182 288.502776 
L 169.396364 288.820296 
L 173.454545 289.151424 
L 177.512727 289.494648 
L 181.570909 289.848456 
L 185.629091 290.21436 
L 189.687273 290.590848 
L 193.745455 290.976408 
L 197.803636 291.369528 
L 201.861818 291.77172 
L 205.92 292.17996 
L 209.978182 292.594248 
L 214.036364 293.014584 
L 218.094545 293.437944 
L 222.152727 293.867352 
L 226.210909 294.298272 
L 230.269091 294.730704 
L 234.327273 295.164648 
L 238.385455 295.600104 
L 242.443636 296.034048 
L 246.501818 296.467992 
L 250.56 296.898912 
L 254.618182 297.329832 
L 258.676364 297.754704 
L 262.734545 298.178064 
L 266.792727 298.596888 
L 270.850909 299.009664 
L 274.909091 299.416392 
L 278.967273 299.817072 
L 283.025455 300.211704 
L 287.083636 300.598776 
L 291.141818 300.976776 
L 295.2 301.347216 
L 299.258182 301.708584 
L 303.316364 302.059368 
L 307.374545 302.40108 
L 311.432727 302.732208 
L 315.490909 303.05124 
L 319.549091 303.359688 
L 323.607273 303.657552 
L 327.665455 303.941808 
L 331.723636 304.213968 
L 335.781818 304.474032 
L 339.84 304.720488 
L 343.898182 304.953336 
L 347.956364 305.174088 
L 352.014545 305.37972 
L 356.072727 305.573256 
L 360.130909 305.753184 
L 364.189091 305.919504 
L 368.247273 306.072216 
L 372.305455 306.21132 
L 376.363636 306.338328 
L 380.421818 306.451728 
L 384.48 306.554544 
L 388.538182 306.643752 
L 392.596364 306.722376 
L 396.654545 306.788904 
L 400.712727 306.84636 
L 404.770909 306.893232 
L 408.829091 306.931032 
L 412.887273 306.961272 
L 416.945455 306.983952 
L 421.003636 306.999072 
L 425.061818 307.008144 
L 429.12 307.011168 
L 433.178182 307.009656 
L 437.236364 307.00512 
L 441.294545 306.996048 
L 445.352727 306.985464 
L 449.410909 306.973368 
L 453.469091 306.958248 
L 457.527273 306.943128 
L 461.585455 306.928008 
L 465.643636 306.912888 
L 469.701818 306.89928 
L 473.76 306.885672 
L 477.818182 306.875088 
L 481.876364 306.864504 
L 485.934545 306.856944 
L 489.992727 306.850896 
L 494.050909 306.847872 
L 498.109091 306.84636 
" clip-path="url(#p4b570cc73a)" style="fill: none; stroke: #000000; stroke-opacity: 0.5; stroke-linecap: square"/>
   </g>
   <g id="line2d_18">
    <path d="M 92.290909 244.632096 
L 96.349091 244.678968 
L 100.407273 244.812024 
L 104.465455 245.014632 
L 108.523636 245.27016 
L 112.581818 245.563488 
L 116.64 245.884032 
L 120.698182 246.22272 
L 124.756364 246.573504 
L 128.814545 246.934872 
L 132.872727 247.300776 
L 136.930909 247.671216 
L 140.989091 248.043168 
L 145.047273 248.416632 
L 149.105455 248.788584 
L 153.163636 249.160536 
L 157.221818 249.529464 
L 161.28 249.898392 
L 165.338182 250.264296 
L 169.396364 250.628688 
L 173.454545 250.99308 
L 177.512727 251.354448 
L 181.570909 251.714304 
L 185.629091 252.07416 
L 189.687273 252.434016 
L 193.745455 252.79236 
L 197.803636 253.152216 
L 201.861818 253.513584 
L 205.92 253.874952 
L 209.978182 254.23632 
L 214.036364 254.600712 
L 218.094545 254.965104 
L 222.152727 255.331008 
L 226.210909 255.698424 
L 230.269091 256.067352 
L 234.327273 256.43628 
L 238.385455 256.80672 
L 242.443636 257.175648 
L 246.501818 257.544576 
L 250.56 257.911992 
L 254.618182 258.277896 
L 258.676364 258.642288 
L 262.734545 259.003656 
L 266.792727 259.362 
L 270.850909 259.714296 
L 274.909091 260.063568 
L 278.967273 260.40528 
L 283.025455 260.742456 
L 287.083636 261.072072 
L 291.141818 261.394128 
L 295.2 261.707112 
L 299.258182 262.011024 
L 303.316364 262.305864 
L 307.374545 262.588608 
L 311.432727 262.86228 
L 315.490909 263.122344 
L 319.549091 263.370312 
L 323.607273 263.604672 
L 327.665455 263.826936 
L 331.723636 264.032568 
L 335.781818 264.224592 
L 339.84 264.401496 
L 343.898182 264.560256 
L 347.956364 264.703896 
L 352.014545 264.82788 
L 356.072727 264.935232 
L 360.130909 265.02444 
L 364.189091 265.093992 
L 368.247273 265.1454 
L 372.305455 265.17564 
L 376.363636 265.184712 
L 380.421818 265.172616 
L 384.48 265.140864 
L 388.538182 265.086432 
L 392.596364 265.00932 
L 396.654545 264.91104 
L 400.712727 264.79008 
L 404.770909 264.644928 
L 408.829091 264.478608 
L 412.887273 264.288096 
L 416.945455 264.074904 
L 421.003636 263.839032 
L 425.061818 263.58048 
L 429.12 263.299248 
L 433.178182 262.996848 
L 437.236364 262.671768 
L 441.294545 262.32552 
L 445.352727 261.961128 
L 449.410909 261.575568 
L 453.469091 261.173376 
L 457.527273 260.754552 
L 461.585455 260.323632 
L 465.643636 259.882128 
L 469.701818 259.433064 
L 473.76 258.985512 
L 477.818182 258.547032 
L 481.876364 258.131232 
L 485.934545 257.754744 
L 489.992727 257.446296 
L 494.050909 257.239152 
L 498.109091 257.165064 
" clip-path="url(#p4b570cc73a)" style="fill: none; stroke: #000000; stroke-opacity: 0.5; stroke-linecap: square"/>
   </g>
   <g id="line2d_19">
    <path d="M 92.290909 241.680672 
L 96.349091 241.645896 
L 100.407273 241.546104 
L 104.465455 241.400952 
L 108.523636 241.224048 
L 112.581818 241.033536 
L 116.64 240.838488 
L 120.698182 240.647976 
L 124.756364 240.465024 
L 128.814545 240.294168 
L 132.872727 240.138432 
L 136.930909 239.999328 
L 140.989091 239.878368 
L 145.047273 239.77404 
L 149.105455 239.686344 
L 153.163636 239.616792 
L 157.221818 239.56236 
L 161.28 239.523048 
L 165.338182 239.495832 
L 169.396364 239.480712 
L 173.454545 239.476176 
L 177.512727 239.4792 
L 181.570909 239.488272 
L 185.629091 239.50188 
L 189.687273 239.517 
L 193.745455 239.53212 
L 197.803636 239.54724 
L 201.861818 239.557824 
L 205.92 239.56236 
L 209.978182 239.56236 
L 214.036364 239.553288 
L 218.094545 239.536656 
L 222.152727 239.510952 
L 226.210909 239.474664 
L 230.269091 239.427792 
L 234.327273 239.368824 
L 238.385455 239.299272 
L 242.443636 239.219136 
L 246.501818 239.128416 
L 250.56 239.0256 
L 254.618182 238.913712 
L 258.676364 238.79124 
L 262.734545 238.659696 
L 266.792727 238.51908 
L 270.850909 238.372416 
L 274.909091 238.218192 
L 278.967273 238.059432 
L 283.025455 237.896136 
L 287.083636 237.729816 
L 291.141818 237.561984 
L 295.2 237.39264 
L 299.258182 237.22632 
L 303.316364 237.063024 
L 307.374545 236.904264 
L 311.432727 236.751552 
L 315.490909 236.6064 
L 319.549091 236.471832 
L 323.607273 236.350872 
L 327.665455 236.24352 
L 331.723636 236.151288 
L 335.781818 236.078712 
L 339.84 236.027304 
L 343.898182 235.997064 
L 347.956364 235.992528 
L 352.014545 236.015208 
L 356.072727 236.066616 
L 360.130909 236.148264 
L 364.189091 236.260152 
L 368.247273 236.406816 
L 372.305455 236.588256 
L 376.363636 236.804472 
L 380.421818 237.055464 
L 384.48 237.344256 
L 388.538182 237.666312 
L 392.596364 238.024656 
L 396.654545 238.417776 
L 400.712727 238.84416 
L 404.770909 239.302296 
L 408.829091 239.790672 
L 412.887273 240.306264 
L 416.945455 240.849072 
L 421.003636 241.41456 
L 425.061818 242.002728 
L 429.12 242.610552 
L 433.178182 243.233496 
L 437.236364 243.87156 
L 441.294545 244.520208 
L 445.352727 245.176416 
L 449.410909 245.83716 
L 453.469091 246.500928 
L 457.527273 247.164696 
L 461.585455 247.820904 
L 465.643636 248.46804 
L 469.701818 249.100056 
L 473.76 249.709392 
L 477.818182 250.286976 
L 481.876364 250.817688 
L 485.934545 251.283384 
L 489.992727 251.655336 
L 494.050909 251.901792 
L 498.109091 251.987976 
" clip-path="url(#p4b570cc73a)" style="fill: none; stroke: #000000; stroke-opacity: 0.5; stroke-linecap: square"/>
   </g>
   <g id="line2d_20">
    <path d="M 92.290909 187.933608 
L 96.349091 187.92756 
L 100.407273 187.907904 
L 104.465455 187.873128 
L 108.523636 187.82172 
L 112.581818 187.750656 
L 116.64 187.6554 
L 120.698182 187.531416 
L 124.756364 187.377192 
L 128.814545 187.18668 
L 132.872727 186.958368 
L 136.930909 186.689232 
L 140.989091 186.374736 
L 145.047273 186.01488 
L 149.105455 185.608152 
L 153.163636 185.15304 
L 157.221818 184.649544 
L 161.28 184.09464 
L 165.338182 183.491352 
L 169.396364 182.838168 
L 173.454545 182.138112 
L 177.512727 181.389672 
L 181.570909 180.59436 
L 185.629091 179.753688 
L 189.687273 178.869168 
L 193.745455 177.942312 
L 197.803636 176.974632 
L 201.861818 175.966128 
L 205.92 174.918312 
L 209.978182 173.834208 
L 214.036364 172.715328 
L 218.094545 171.561672 
L 222.152727 170.376264 
L 226.210909 169.159104 
L 230.269091 167.910192 
L 234.327273 166.634064 
L 238.385455 165.329208 
L 242.443636 163.998648 
L 246.501818 162.642384 
L 250.56 161.261928 
L 254.618182 159.858792 
L 258.676364 158.432976 
L 262.734545 156.985992 
L 266.792727 155.51784 
L 270.850909 154.143432 
L 274.909091 155.588904 
L 278.967273 157.051008 
L 283.025455 158.491944 
L 287.083636 159.908688 
L 291.141818 161.30124 
L 295.2 162.666576 
L 299.258182 164.003184 
L 303.316364 165.309552 
L 307.374545 166.582656 
L 311.432727 167.822496 
L 315.490909 169.026048 
L 319.549091 170.1918 
L 323.607273 171.316728 
L 327.665455 172.39932 
L 331.723636 173.436552 
L 335.781818 174.428424 
L 339.84 175.3704 
L 343.898182 176.259456 
L 347.956364 177.097104 
L 352.014545 177.877296 
L 356.072727 178.601544 
L 360.130909 179.2638 
L 364.189091 179.867088 
L 368.247273 180.406872 
L 372.305455 180.88164 
L 376.363636 181.291392 
L 380.421818 181.636128 
L 384.48 181.915848 
L 388.538182 182.127528 
L 392.596364 182.274192 
L 396.654545 182.35584 
L 400.712727 182.372472 
L 404.770909 182.3256 
L 408.829091 182.216736 
L 412.887273 182.048904 
L 416.945455 181.822104 
L 421.003636 181.537848 
L 425.061818 181.19916 
L 429.12 180.809064 
L 433.178182 180.36756 
L 437.236364 179.879184 
L 441.294545 179.343936 
L 445.352727 178.76484 
L 449.410909 178.146432 
L 453.469091 177.4872 
L 457.527273 176.793192 
L 461.585455 176.06592 
L 465.643636 175.308408 
L 469.701818 174.525192 
L 473.76 173.720808 
L 477.818182 172.90584 
L 481.876364 172.092384 
L 485.934545 171.304632 
L 489.992727 170.59248 
L 494.050909 170.054208 
L 498.109091 169.842528 
" clip-path="url(#p4b570cc73a)" style="fill: none; stroke: #000000; stroke-opacity: 0.5; stroke-linecap: square"/>
   </g>
   <g id="line2d_21">
    <path d="M 92.290909 172.930032 
L 96.349091 172.884672 
L 100.407273 172.748592 
L 104.465455 172.524816 
L 108.523636 172.214856 
L 112.581818 171.823248 
L 116.64 171.353016 
L 120.698182 170.807184 
L 124.756364 170.193312 
L 128.814545 169.512912 
L 132.872727 168.772032 
L 136.930909 167.973696 
L 140.989091 167.120928 
L 145.047273 166.219776 
L 149.105455 165.27024 
L 153.163636 164.278368 
L 157.221818 163.24416 
L 161.28 162.172152 
L 165.338182 161.063856 
L 169.396364 159.920784 
L 173.454545 158.74596 
L 177.512727 157.539384 
L 181.570909 156.305592 
L 185.629091 155.043072 
L 189.687273 153.754848 
L 193.745455 152.443944 
L 197.803636 151.11036 
L 201.861818 149.755608 
L 205.92 148.384224 
L 209.978182 146.999232 
L 214.036364 145.605168 
L 218.094545 144.21564 
L 222.152727 142.857864 
L 226.210909 141.608952 
L 230.269091 140.750136 
L 234.327273 140.92704 
L 238.385455 142.026264 
L 242.443636 143.439984 
L 246.501818 144.944424 
L 250.56 146.479104 
L 254.618182 148.021344 
L 258.676364 149.559048 
L 262.734545 151.089192 
L 266.792727 152.604216 
L 270.850909 153.992232 
L 274.909091 152.522568 
L 278.967273 150.998472 
L 283.025455 149.457744 
L 287.083636 147.901896 
L 291.141818 146.329416 
L 295.2 144.743328 
L 299.258182 143.14212 
L 303.316364 141.530328 
L 307.374545 139.90644 
L 311.432727 138.271968 
L 315.490909 136.628424 
L 319.549091 134.978832 
L 323.607273 133.323192 
L 327.665455 131.66604 
L 331.723636 130.011912 
L 335.781818 128.36988 
L 339.84 126.750528 
L 343.898182 125.182584 
L 347.956364 123.729552 
L 352.014545 122.545656 
L 356.072727 121.980168 
L 360.130909 122.32944 
L 364.189091 123.330384 
L 368.247273 124.618608 
L 372.305455 126.027792 
L 376.363636 127.488384 
L 380.421818 128.97468 
L 384.48 130.468536 
L 388.538182 131.963904 
L 392.596364 133.456248 
L 396.654545 134.942544 
L 400.712727 136.419768 
L 404.770909 137.886408 
L 408.829091 139.342464 
L 412.887273 140.784912 
L 416.945455 142.213752 
L 421.003636 143.628984 
L 425.061818 145.029096 
L 429.12 146.414088 
L 433.178182 147.782448 
L 437.236364 149.134176 
L 441.294545 150.46776 
L 445.352727 151.7832 
L 449.410909 153.078984 
L 453.469091 154.355112 
L 457.527273 155.60856 
L 461.585455 156.837816 
L 465.643636 158.041368 
L 469.701818 159.216192 
L 473.76 160.357752 
L 477.818182 161.458488 
L 481.876364 162.50328 
L 485.934545 163.47096 
L 489.992727 164.31012 
L 494.050909 164.927016 
L 498.109091 165.162888 
" clip-path="url(#p4b570cc73a)" style="fill: none; stroke: #000000; stroke-opacity: 0.5; stroke-linecap: square"/>
   </g>
   <g id="line2d_22">
    <path d="M 92.290909 101.559096 
L 96.349091 101.56212 
L 100.407273 101.568168 
L 104.465455 101.578752 
L 108.523636 101.595384 
L 112.581818 101.618064 
L 116.64 101.648304 
L 120.698182 101.692152 
L 124.756364 101.754144 
L 128.814545 101.847888 
L 132.872727 102.006648 
L 136.930909 102.309048 
L 140.989091 102.912336 
L 145.047273 103.92084 
L 149.105455 105.212088 
L 153.163636 106.65 
L 157.221818 108.165024 
L 161.28 109.728432 
L 165.338182 111.326616 
L 169.396364 112.94748 
L 173.454545 114.586488 
L 177.512727 116.239104 
L 181.570909 117.900792 
L 185.629091 119.57004 
L 189.687273 121.243824 
L 193.745455 122.91912 
L 197.803636 124.592904 
L 201.861818 126.263664 
L 205.92 127.928376 
L 209.978182 129.582504 
L 214.036364 131.22 
L 218.094545 132.827256 
L 222.152727 134.377056 
L 226.210909 135.7938 
L 230.269091 136.79172 
L 234.327273 136.726704 
L 238.385455 135.712152 
L 242.443636 134.3574 
L 246.501818 132.881688 
L 250.56 131.34852 
L 254.618182 129.779064 
L 258.676364 128.183904 
L 262.734545 126.569088 
L 266.792727 124.93764 
L 270.850909 123.294096 
L 274.909091 121.638456 
L 278.967273 119.973744 
L 283.025455 118.306008 
L 287.083636 116.638272 
L 291.141818 114.976584 
L 295.2 113.334552 
L 299.258182 111.73032 
L 303.316364 110.200176 
L 307.374545 108.821232 
L 311.432727 107.726544 
L 315.490909 107.077896 
L 319.549091 106.900992 
L 323.607273 107.180712 
L 327.665455 108.013824 
L 331.723636 109.252152 
L 335.781818 110.653776 
L 339.84 112.099248 
L 343.898182 113.520528 
L 347.956364 114.834456 
L 352.014545 115.879248 
L 356.072727 116.301096 
L 360.130909 115.800624 
L 364.189091 114.639408 
L 368.247273 113.183352 
L 372.305455 111.607848 
L 376.363636 110.0142 
L 380.421818 108.703296 
L 384.48 108.429624 
L 388.538182 108.497664 
L 392.596364 108.609552 
L 396.654545 108.733536 
L 400.712727 108.859032 
L 404.770909 108.983016 
L 408.829091 109.105488 
L 412.887273 109.224936 
L 416.945455 109.339848 
L 421.003636 109.451736 
L 425.061818 109.557576 
L 429.12 109.660392 
L 433.178182 109.75716 
L 437.236364 109.849392 
L 441.294545 109.937088 
L 445.352727 110.018736 
L 449.410909 110.094336 
L 453.469091 110.1654 
L 457.527273 110.230416 
L 461.585455 110.289384 
L 465.643636 110.342304 
L 469.701818 110.389176 
L 473.76 110.43 
L 477.818182 110.464776 
L 481.876364 110.493504 
L 485.934545 110.514672 
L 489.992727 110.531304 
L 494.050909 110.540376 
L 498.109091 110.5434 
" clip-path="url(#p4b570cc73a)" style="fill: none; stroke: #000000; stroke-opacity: 0.5; stroke-linecap: square"/>
   </g>
   <g id="line2d_23">
    <path d="M 92.290909 90.701424 
L 96.349091 90.798192 
L 100.407273 91.085472 
L 104.465455 91.554192 
L 108.523636 92.190744 
L 112.581818 92.976984 
L 116.64 93.894768 
L 120.698182 94.919904 
L 124.756364 96.032736 
L 128.814545 97.203024 
L 132.872727 98.38692 
L 136.930909 99.493704 
L 140.989091 100.354032 
L 145.047273 100.857528 
L 149.105455 101.117592 
L 153.163636 101.268792 
L 157.221818 101.368584 
L 161.28 101.447208 
L 165.338182 101.513736 
L 169.396364 101.572704 
L 173.454545 101.63016 
L 177.512727 101.686104 
L 181.570909 101.74356 
L 185.629091 101.801016 
L 189.687273 101.859984 
L 193.745455 101.921976 
L 197.803636 101.986992 
L 201.861818 102.055032 
L 205.92 102.124584 
L 209.978182 102.198672 
L 214.036364 102.275784 
L 218.094545 102.35592 
L 222.152727 102.440592 
L 226.210909 102.528288 
L 230.269091 102.619008 
L 234.327273 102.714264 
L 238.385455 102.814056 
L 242.443636 102.916872 
L 246.501818 103.022712 
L 250.56 103.131576 
L 254.618182 103.244976 
L 258.676364 103.3614 
L 262.734545 103.479336 
L 266.792727 103.601808 
L 270.850909 103.72428 
L 274.909091 103.849776 
L 278.967273 103.975272 
L 283.025455 104.100768 
L 287.083636 104.224752 
L 291.141818 104.3442 
L 295.2 104.454576 
L 299.258182 104.546808 
L 303.316364 104.6088 
L 307.374545 104.614848 
L 311.432727 104.54076 
L 315.490909 104.484816 
L 319.549091 104.76756 
L 323.607273 105.381432 
L 327.665455 105.87888 
L 331.723636 106.163136 
L 335.781818 106.36272 
L 339.84 106.535088 
L 343.898182 106.699896 
L 347.956364 106.858656 
L 352.014545 107.015904 
L 356.072727 107.170128 
L 360.130909 107.32284 
L 364.189091 107.471016 
L 368.247273 107.611632 
L 372.305455 107.73864 
L 376.363636 107.817264 
L 380.421818 107.573832 
L 384.48 106.270488 
L 388.538182 104.6088 
L 392.596364 102.89268 
L 396.654545 101.159928 
L 400.712727 99.421128 
L 404.770909 97.682328 
L 408.829091 95.949576 
L 412.887273 94.227408 
L 416.945455 92.517336 
L 421.003636 90.829944 
L 425.061818 89.169768 
L 429.12 87.547392 
L 433.178182 85.98096 
L 437.236364 84.493152 
L 441.294545 83.118744 
L 445.352727 81.912168 
L 449.410909 80.927856 
L 453.469091 80.202096 
L 457.527273 79.716744 
L 461.585455 79.415856 
L 465.643636 79.23744 
L 469.701818 79.133112 
L 473.76 79.074144 
L 477.818182 79.043904 
L 481.876364 79.028784 
L 485.934545 79.021224 
L 489.992727 79.019712 
L 494.050909 79.019712 
L 498.109091 79.019712 
" clip-path="url(#p4b570cc73a)" style="fill: none; stroke: #000000; stroke-opacity: 0.5; stroke-linecap: square"/>
   </g>
   <g id="patch_3">
    <path d="M 72 384.48 
L 72 51.84 
" style="fill: none; stroke: #000000; stroke-width: 0.8; stroke-linejoin: miter; stroke-linecap: square"/>
   </g>
   <g id="patch_4">
    <path d="M 518.4 384.48 
L 518.4 51.84 
" style="fill: none; stroke: #000000; stroke-width: 0.8; stroke-linejoin: miter; stroke-linecap: square"/>
   </g>
   <g id="patch_5">
    <path d="M 72 384.48 
L 518.4 384.48 
" style="fill: none; stroke: #000000; stroke-width: 0.8; stroke-linejoin: miter; stroke-linecap: square"/>
   </g>
   <g id="patch_6">
    <path d="M 72 51.84 
L 518.4 51.84 
" style="fill: none; stroke: #000000; stroke-width: 0.8; stroke-linejoin: miter; stroke-linecap: square"/>
   </g>
  </g>
 </g>
 <defs>
  <clipPath id="p4b570cc73a">
   <rect x="72" y="51.84" width="446.4" height="332.64"/>
  </clipPath>
 </defs>
</svg>
