<?xml version="1.0" encoding="utf-8" standalone="no"?>
<!DOCTYPE svg PUBLIC "-//W3C//DTD SVG 1.1//EN"
  "http://www.w3.org/Graphics/SVG/1.1/DTD/svg11.dtd">
<svg xmlns:xlink="http://www.w3.org/1999/xlink" width="576pt" height="432pt" viewBox="0 0 576 432" xmlns="http://www.w3.org/2000/svg" version="1.1">
 <metadata>
  <rdf:RDF xmlns:dc="http://purl.org/dc/elements/1.1/" xmlns:cc="http://creativecommons.org/ns#" xmlns:rdf="http://www.w3.org/1999/02/22-rdf-syntax-ns#">
   <cc:Work>
    <dc:type rdf:resource="http://purl.org/dc/dcmitype/StillImage"/>
    <dc:date>2023-05-02T22:34:16.488863</dc:date>
    <dc:format>image/svg+xml</dc:format>
    <dc:creator>
     <cc:Agent>
      <dc:title>Matplotlib v3.7.1, https://matplotlib.org/</dc:title>
     </cc:Agent>
    </dc:creator>
   </cc:Work>
  </rdf:RDF>
 </metadata>
 <defs>
  <style type="text/css">*{stroke-linejoin: round; stroke-linecap: butt}</style>
 </defs>
 <g id="figure_1">
  <g id="patch_1">
   <path d="M 0 432 
L 576 432 
L 576 0 
L 0 0 
z
" style="fill: #ffffff"/>
  </g>
  <g id="axes_1">
   <g id="patch_2">
    <path d="M 72 384.48 
L 518.4 384.48 
L 518.4 51.84 
L 72 51.84 
z
" style="fill: #ffffff"/>
   </g>
   <g id="matplotlib.axis_1">
    <g id="xtick_1">
     <g id="line2d_1">
      <defs>
       <path id="m2d70e9ab24" d="M 0 0 
L 0 3.5 
" style="stroke: #000000; stroke-width: 0.8"/>
      </defs>
      <g>
       <use xlink:href="#m2d70e9ab24" x="92.290909" y="384.48" style="stroke: #000000; stroke-width: 0.8"/>
      </g>
     </g>
     <g id="text_1">
      <!-- 0.0 -->
      <g transform="translate(84.339347 399.078438) scale(0.1 -0.1)">
       <defs>
        <path id="DejaVuSans-30" d="M 2034 4250 
Q 1547 4250 1301 3770 
Q 1056 3291 1056 2328 
Q 1056 1369 1301 889 
Q 1547 409 2034 409 
Q 2525 409 2770 889 
Q 3016 1369 3016 2328 
Q 3016 3291 2770 3770 
Q 2525 4250 2034 4250 
z
M 2034 4750 
Q 2819 4750 3233 4129 
Q 3647 3509 3647 2328 
Q 3647 1150 3233 529 
Q 2819 -91 2034 -91 
Q 1250 -91 836 529 
Q 422 1150 422 2328 
Q 422 3509 836 4129 
Q 1250 4750 2034 4750 
z
" transform="scale(0.015625)"/>
        <path id="DejaVuSans-2e" d="M 684 794 
L 1344 794 
L 1344 0 
L 684 0 
L 684 794 
z
" transform="scale(0.015625)"/>
       </defs>
       <use xlink:href="#DejaVuSans-30"/>
       <use xlink:href="#DejaVuSans-2e" x="63.623047"/>
       <use xlink:href="#DejaVuSans-30" x="95.410156"/>
      </g>
     </g>
    </g>
    <g id="xtick_2">
     <g id="line2d_2">
      <g>
       <use xlink:href="#m2d70e9ab24" x="173.454545" y="384.48" style="stroke: #000000; stroke-width: 0.8"/>
      </g>
     </g>
     <g id="text_2">
      <!-- 0.2 -->
      <g transform="translate(165.502983 399.078438) scale(0.1 -0.1)">
       <defs>
        <path id="DejaVuSans-32" d="M 1228 531 
L 3431 531 
L 3431 0 
L 469 0 
L 469 531 
Q 828 903 1448 1529 
Q 2069 2156 2228 2338 
Q 2531 2678 2651 2914 
Q 2772 3150 2772 3378 
Q 2772 3750 2511 3984 
Q 2250 4219 1831 4219 
Q 1534 4219 1204 4116 
Q 875 4013 500 3803 
L 500 4441 
Q 881 4594 1212 4672 
Q 1544 4750 1819 4750 
Q 2544 4750 2975 4387 
Q 3406 4025 3406 3419 
Q 3406 3131 3298 2873 
Q 3191 2616 2906 2266 
Q 2828 2175 2409 1742 
Q 1991 1309 1228 531 
z
" transform="scale(0.015625)"/>
       </defs>
       <use xlink:href="#DejaVuSans-30"/>
       <use xlink:href="#DejaVuSans-2e" x="63.623047"/>
       <use xlink:href="#DejaVuSans-32" x="95.410156"/>
      </g>
     </g>
    </g>
    <g id="xtick_3">
     <g id="line2d_3">
      <g>
       <use xlink:href="#m2d70e9ab24" x="254.618182" y="384.48" style="stroke: #000000; stroke-width: 0.8"/>
      </g>
     </g>
     <g id="text_3">
      <!-- 0.4 -->
      <g transform="translate(246.666619 399.078438) scale(0.1 -0.1)">
       <defs>
        <path id="DejaVuSans-34" d="M 2419 4116 
L 825 1625 
L 2419 1625 
L 2419 4116 
z
M 2253 4666 
L 3047 4666 
L 3047 1625 
L 3713 1625 
L 3713 1100 
L 3047 1100 
L 3047 0 
L 2419 0 
L 2419 1100 
L 313 1100 
L 313 1709 
L 2253 4666 
z
" transform="scale(0.015625)"/>
       </defs>
       <use xlink:href="#DejaVuSans-30"/>
       <use xlink:href="#DejaVuSans-2e" x="63.623047"/>
       <use xlink:href="#DejaVuSans-34" x="95.410156"/>
      </g>
     </g>
    </g>
    <g id="xtick_4">
     <g id="line2d_4">
      <g>
       <use xlink:href="#m2d70e9ab24" x="335.781818" y="384.48" style="stroke: #000000; stroke-width: 0.8"/>
      </g>
     </g>
     <g id="text_4">
      <!-- 0.6 -->
      <g transform="translate(327.830256 399.078438) scale(0.1 -0.1)">
       <defs>
        <path id="DejaVuSans-36" d="M 2113 2584 
Q 1688 2584 1439 2293 
Q 1191 2003 1191 1497 
Q 1191 994 1439 701 
Q 1688 409 2113 409 
Q 2538 409 2786 701 
Q 3034 994 3034 1497 
Q 3034 2003 2786 2293 
Q 2538 2584 2113 2584 
z
M 3366 4563 
L 3366 3988 
Q 3128 4100 2886 4159 
Q 2644 4219 2406 4219 
Q 1781 4219 1451 3797 
Q 1122 3375 1075 2522 
Q 1259 2794 1537 2939 
Q 1816 3084 2150 3084 
Q 2853 3084 3261 2657 
Q 3669 2231 3669 1497 
Q 3669 778 3244 343 
Q 2819 -91 2113 -91 
Q 1303 -91 875 529 
Q 447 1150 447 2328 
Q 447 3434 972 4092 
Q 1497 4750 2381 4750 
Q 2619 4750 2861 4703 
Q 3103 4656 3366 4563 
z
" transform="scale(0.015625)"/>
       </defs>
       <use xlink:href="#DejaVuSans-30"/>
       <use xlink:href="#DejaVuSans-2e" x="63.623047"/>
       <use xlink:href="#DejaVuSans-36" x="95.410156"/>
      </g>
     </g>
    </g>
    <g id="xtick_5">
     <g id="line2d_5">
      <g>
       <use xlink:href="#m2d70e9ab24" x="416.945455" y="384.48" style="stroke: #000000; stroke-width: 0.8"/>
      </g>
     </g>
     <g id="text_5">
      <!-- 0.8 -->
      <g transform="translate(408.993892 399.078438) scale(0.1 -0.1)">
       <defs>
        <path id="DejaVuSans-38" d="M 2034 2216 
Q 1584 2216 1326 1975 
Q 1069 1734 1069 1313 
Q 1069 891 1326 650 
Q 1584 409 2034 409 
Q 2484 409 2743 651 
Q 3003 894 3003 1313 
Q 3003 1734 2745 1975 
Q 2488 2216 2034 2216 
z
M 1403 2484 
Q 997 2584 770 2862 
Q 544 3141 544 3541 
Q 544 4100 942 4425 
Q 1341 4750 2034 4750 
Q 2731 4750 3128 4425 
Q 3525 4100 3525 3541 
Q 3525 3141 3298 2862 
Q 3072 2584 2669 2484 
Q 3125 2378 3379 2068 
Q 3634 1759 3634 1313 
Q 3634 634 3220 271 
Q 2806 -91 2034 -91 
Q 1263 -91 848 271 
Q 434 634 434 1313 
Q 434 1759 690 2068 
Q 947 2378 1403 2484 
z
M 1172 3481 
Q 1172 3119 1398 2916 
Q 1625 2713 2034 2713 
Q 2441 2713 2670 2916 
Q 2900 3119 2900 3481 
Q 2900 3844 2670 4047 
Q 2441 4250 2034 4250 
Q 1625 4250 1398 4047 
Q 1172 3844 1172 3481 
z
" transform="scale(0.015625)"/>
       </defs>
       <use xlink:href="#DejaVuSans-30"/>
       <use xlink:href="#DejaVuSans-2e" x="63.623047"/>
       <use xlink:href="#DejaVuSans-38" x="95.410156"/>
      </g>
     </g>
    </g>
    <g id="xtick_6">
     <g id="line2d_6">
      <g>
       <use xlink:href="#m2d70e9ab24" x="498.109091" y="384.48" style="stroke: #000000; stroke-width: 0.8"/>
      </g>
     </g>
     <g id="text_6">
      <!-- 1.0 -->
      <g transform="translate(490.157528 399.078438) scale(0.1 -0.1)">
       <defs>
        <path id="DejaVuSans-31" d="M 794 531 
L 1825 531 
L 1825 4091 
L 703 3866 
L 703 4441 
L 1819 4666 
L 2450 4666 
L 2450 531 
L 3481 531 
L 3481 0 
L 794 0 
L 794 531 
z
" transform="scale(0.015625)"/>
       </defs>
       <use xlink:href="#DejaVuSans-31"/>
       <use xlink:href="#DejaVuSans-2e" x="63.623047"/>
       <use xlink:href="#DejaVuSans-30" x="95.410156"/>
      </g>
     </g>
    </g>
   </g>
   <g id="matplotlib.axis_2">
    <g id="ytick_1">
     <g id="line2d_7">
      <defs>
       <path id="mb294fb3df5" d="M 0 0 
L -3.5 0 
" style="stroke: #000000; stroke-width: 0.8"/>
      </defs>
      <g>
       <use xlink:href="#mb294fb3df5" x="72" y="369.36" style="stroke: #000000; stroke-width: 0.8"/>
      </g>
     </g>
     <g id="text_7">
      <!-- −5.0 -->
      <g transform="translate(40.717187 373.159219) scale(0.1 -0.1)">
       <defs>
        <path id="DejaVuSans-2212" d="M 678 2272 
L 4684 2272 
L 4684 1741 
L 678 1741 
L 678 2272 
z
" transform="scale(0.015625)"/>
        <path id="DejaVuSans-35" d="M 691 4666 
L 3169 4666 
L 3169 4134 
L 1269 4134 
L 1269 2991 
Q 1406 3038 1543 3061 
Q 1681 3084 1819 3084 
Q 2600 3084 3056 2656 
Q 3513 2228 3513 1497 
Q 3513 744 3044 326 
Q 2575 -91 1722 -91 
Q 1428 -91 1123 -41 
Q 819 9 494 109 
L 494 744 
Q 775 591 1075 516 
Q 1375 441 1709 441 
Q 2250 441 2565 725 
Q 2881 1009 2881 1497 
Q 2881 1984 2565 2268 
Q 2250 2553 1709 2553 
Q 1456 2553 1204 2497 
Q 953 2441 691 2322 
L 691 4666 
z
" transform="scale(0.015625)"/>
       </defs>
       <use xlink:href="#DejaVuSans-2212"/>
       <use xlink:href="#DejaVuSans-35" x="83.789062"/>
       <use xlink:href="#DejaVuSans-2e" x="147.412109"/>
       <use xlink:href="#DejaVuSans-30" x="179.199219"/>
      </g>
     </g>
    </g>
    <g id="ytick_2">
     <g id="line2d_8">
      <g>
       <use xlink:href="#mb294fb3df5" x="72" y="331.56" style="stroke: #000000; stroke-width: 0.8"/>
      </g>
     </g>
     <g id="text_8">
      <!-- −2.5 -->
      <g transform="translate(40.717187 335.359219) scale(0.1 -0.1)">
       <use xlink:href="#DejaVuSans-2212"/>
       <use xlink:href="#DejaVuSans-32" x="83.789062"/>
       <use xlink:href="#DejaVuSans-2e" x="147.412109"/>
       <use xlink:href="#DejaVuSans-35" x="179.199219"/>
      </g>
     </g>
    </g>
    <g id="ytick_3">
     <g id="line2d_9">
      <g>
       <use xlink:href="#mb294fb3df5" x="72" y="293.76" style="stroke: #000000; stroke-width: 0.8"/>
      </g>
     </g>
     <g id="text_9">
      <!-- 0.0 -->
      <g transform="translate(49.096875 297.559219) scale(0.1 -0.1)">
       <use xlink:href="#DejaVuSans-30"/>
       <use xlink:href="#DejaVuSans-2e" x="63.623047"/>
       <use xlink:href="#DejaVuSans-30" x="95.410156"/>
      </g>
     </g>
    </g>
    <g id="ytick_4">
     <g id="line2d_10">
      <g>
       <use xlink:href="#mb294fb3df5" x="72" y="255.96" style="stroke: #000000; stroke-width: 0.8"/>
      </g>
     </g>
     <g id="text_10">
      <!-- 2.5 -->
      <g transform="translate(49.096875 259.759219) scale(0.1 -0.1)">
       <use xlink:href="#DejaVuSans-32"/>
       <use xlink:href="#DejaVuSans-2e" x="63.623047"/>
       <use xlink:href="#DejaVuSans-35" x="95.410156"/>
      </g>
     </g>
    </g>
    <g id="ytick_5">
     <g id="line2d_11">
      <g>
       <use xlink:href="#mb294fb3df5" x="72" y="218.16" style="stroke: #000000; stroke-width: 0.8"/>
      </g>
     </g>
     <g id="text_11">
      <!-- 5.0 -->
      <g transform="translate(49.096875 221.959219) scale(0.1 -0.1)">
       <use xlink:href="#DejaVuSans-35"/>
       <use xlink:href="#DejaVuSans-2e" x="63.623047"/>
       <use xlink:href="#DejaVuSans-30" x="95.410156"/>
      </g>
     </g>
    </g>
    <g id="ytick_6">
     <g id="line2d_12">
      <g>
       <use xlink:href="#mb294fb3df5" x="72" y="180.36" style="stroke: #000000; stroke-width: 0.8"/>
      </g>
     </g>
     <g id="text_12">
      <!-- 7.5 -->
      <g transform="translate(49.096875 184.159219) scale(0.1 -0.1)">
       <defs>
        <path id="DejaVuSans-37" d="M 525 4666 
L 3525 4666 
L 3525 4397 
L 1831 0 
L 1172 0 
L 2766 4134 
L 525 4134 
L 525 4666 
z
" transform="scale(0.015625)"/>
       </defs>
       <use xlink:href="#DejaVuSans-37"/>
       <use xlink:href="#DejaVuSans-2e" x="63.623047"/>
       <use xlink:href="#DejaVuSans-35" x="95.410156"/>
      </g>
     </g>
    </g>
    <g id="ytick_7">
     <g id="line2d_13">
      <g>
       <use xlink:href="#mb294fb3df5" x="72" y="142.56" style="stroke: #000000; stroke-width: 0.8"/>
      </g>
     </g>
     <g id="text_13">
      <!-- 10.0 -->
      <g transform="translate(42.734375 146.359219) scale(0.1 -0.1)">
       <use xlink:href="#DejaVuSans-31"/>
       <use xlink:href="#DejaVuSans-30" x="63.623047"/>
       <use xlink:href="#DejaVuSans-2e" x="127.246094"/>
       <use xlink:href="#DejaVuSans-30" x="159.033203"/>
      </g>
     </g>
    </g>
    <g id="ytick_8">
     <g id="line2d_14">
      <g>
       <use xlink:href="#mb294fb3df5" x="72" y="104.76" style="stroke: #000000; stroke-width: 0.8"/>
      </g>
     </g>
     <g id="text_14">
      <!-- 12.5 -->
      <g transform="translate(42.734375 108.559219) scale(0.1 -0.1)">
       <use xlink:href="#DejaVuSans-31"/>
       <use xlink:href="#DejaVuSans-32" x="63.623047"/>
       <use xlink:href="#DejaVuSans-2e" x="127.246094"/>
       <use xlink:href="#DejaVuSans-35" x="159.033203"/>
      </g>
     </g>
    </g>
    <g id="ytick_9">
     <g id="line2d_15">
      <g>
       <use xlink:href="#mb294fb3df5" x="72" y="66.96" style="stroke: #000000; stroke-width: 0.8"/>
      </g>
     </g>
     <g id="text_15">
      <!-- 15.0 -->
      <g transform="translate(42.734375 70.759219) scale(0.1 -0.1)">
       <use xlink:href="#DejaVuSans-31"/>
       <use xlink:href="#DejaVuSans-35" x="63.623047"/>
       <use xlink:href="#DejaVuSans-2e" x="127.246094"/>
       <use xlink:href="#DejaVuSans-30" x="159.033203"/>
      </g>
     </g>
    </g>
   </g>
   <g id="line2d_16">
    <path d="M 92.290909 363.284784 
L 96.349091 363.280248 
L 100.407273 363.262104 
L 104.465455 363.234888 
L 108.523636 363.195576 
L 112.581818 363.14568 
L 116.64 363.083688 
L 120.698182 363.011112 
L 124.756364 362.92644 
L 128.814545 362.832696 
L 132.872727 362.725344 
L 136.930909 362.60892 
L 140.989091 362.4804 
L 145.047273 362.341296 
L 149.105455 362.191608 
L 153.163636 362.029824 
L 157.221818 361.858968 
L 161.28 361.676016 
L 165.338182 361.48248 
L 169.396364 361.27836 
L 173.454545 361.063656 
L 177.512727 360.838368 
L 181.570909 360.602496 
L 185.629091 360.35604 
L 189.687273 360.100512 
L 193.745455 359.832888 
L 197.803636 359.556192 
L 201.861818 359.268912 
L 205.92 358.97256 
L 209.978182 358.665624 
L 214.036364 358.349616 
L 218.094545 358.023024 
L 222.152727 357.68736 
L 226.210909 357.342624 
L 230.269091 356.987304 
L 234.327273 356.624424 
L 238.385455 356.252472 
L 242.443636 355.871448 
L 246.501818 355.481352 
L 250.56 355.083696 
L 254.618182 354.67848 
L 258.676364 354.264192 
L 262.734545 353.842344 
L 266.792727 353.412936 
L 270.850909 352.975968 
L 274.909091 352.532952 
L 278.967273 352.082376 
L 283.025455 351.625752 
L 287.083636 351.16308 
L 291.141818 350.69436 
L 295.2 350.219592 
L 299.258182 349.740288 
L 303.316364 349.256448 
L 307.374545 348.768072 
L 311.432727 348.27516 
L 315.490909 347.779224 
L 319.549091 347.280264 
L 323.607273 346.779792 
L 327.665455 346.276296 
L 331.723636 345.771288 
L 335.781818 345.264768 
L 339.84 344.758248 
L 343.898182 344.251728 
L 347.956364 343.74672 
L 352.014545 343.243224 
L 356.072727 342.74124 
L 360.130909 342.24228 
L 364.189091 341.747856 
L 368.247273 341.257968 
L 372.305455 340.772616 
L 376.363636 340.293312 
L 380.421818 339.821568 
L 384.48 339.357384 
L 388.538182 338.90076 
L 392.596364 338.45472 
L 396.654545 338.019264 
L 400.712727 337.594392 
L 404.770909 337.181616 
L 408.829091 336.782448 
L 412.887273 336.395376 
L 416.945455 336.023424 
L 421.003636 335.666592 
L 425.061818 335.32488 
L 429.12 334.9998 
L 433.178182 334.691352 
L 437.236364 334.401048 
L 441.294545 334.127376 
L 445.352727 333.871848 
L 449.410909 333.634464 
L 453.469091 333.416736 
L 457.527273 333.217152 
L 461.585455 333.037224 
L 465.643636 332.87544 
L 469.701818 332.7318 
L 473.76 332.609328 
L 477.818182 332.505 
L 481.876364 332.418816 
L 485.934545 332.352288 
L 489.992727 332.305416 
L 494.050909 332.276688 
L 498.109091 332.267616 
" clip-path="url(#pcf92397cf1)" style="fill: none; stroke: #000000; stroke-opacity: 0.5; stroke-linecap: square"/>
   </g>
   <g id="line2d_17">
    <path d="M 92.290909 264.399984 
L 96.349091 264.440808 
L 100.407273 264.558744 
L 104.465455 264.755304 
L 108.523636 265.02444 
L 112.581818 265.360104 
L 116.64 265.759272 
L 120.698182 266.212872 
L 124.756364 266.71788 
L 128.814545 267.265224 
L 132.872727 267.850368 
L 136.930909 268.470288 
L 140.989091 269.117424 
L 145.047273 269.788752 
L 149.105455 270.479736 
L 153.163636 271.188864 
L 157.221818 271.910088 
L 161.28 272.64492 
L 165.338182 273.387312 
L 169.396364 274.137264 
L 173.454545 274.891752 
L 177.512727 275.649264 
L 181.570909 276.4098 
L 185.629091 277.171848 
L 189.687273 277.932384 
L 193.745455 278.691408 
L 197.803636 279.44892 
L 201.861818 280.201896 
L 205.92 280.951848 
L 209.978182 281.697264 
L 214.036364 282.438144 
L 218.094545 283.171464 
L 222.152727 283.898736 
L 226.210909 284.61996 
L 230.269091 285.333624 
L 234.327273 286.038216 
L 238.385455 286.735248 
L 242.443636 287.423208 
L 246.501818 288.103608 
L 250.56 288.773424 
L 254.618182 289.434168 
L 258.676364 290.084328 
L 262.734545 290.723904 
L 266.792727 291.352896 
L 270.850909 291.971304 
L 274.909091 292.577616 
L 278.967273 293.173344 
L 283.025455 293.756976 
L 287.083636 294.328512 
L 291.141818 294.887952 
L 295.2 295.435296 
L 299.258182 295.969032 
L 303.316364 296.48916 
L 307.374545 296.997192 
L 311.432727 297.491616 
L 315.490909 297.97092 
L 319.549091 298.438128 
L 323.607273 298.888704 
L 327.665455 299.327184 
L 331.723636 299.749032 
L 335.781818 300.15576 
L 339.84 300.54888 
L 343.898182 300.925368 
L 347.956364 301.285224 
L 352.014545 301.62996 
L 356.072727 301.958064 
L 360.130909 302.269536 
L 364.189091 302.564376 
L 368.247273 302.842584 
L 372.305455 303.102648 
L 376.363636 303.347592 
L 380.421818 303.57288 
L 384.48 303.781536 
L 388.538182 303.97356 
L 392.596364 304.14744 
L 396.654545 304.303176 
L 400.712727 304.44228 
L 404.770909 304.564752 
L 408.829091 304.670592 
L 412.887273 304.7598 
L 416.945455 304.833888 
L 421.003636 304.892856 
L 425.061818 304.936704 
L 429.12 304.966944 
L 433.178182 304.985088 
L 437.236364 304.991136 
L 441.294545 304.9866 
L 445.352727 304.974504 
L 449.410909 304.953336 
L 453.469091 304.927632 
L 457.527273 304.89588 
L 461.585455 304.862616 
L 465.643636 304.826328 
L 469.701818 304.79004 
L 473.76 304.756776 
L 477.818182 304.725024 
L 481.876364 304.696296 
L 485.934545 304.675128 
L 489.992727 304.656984 
L 494.050909 304.647912 
L 498.109091 304.643376 
" clip-path="url(#pcf92397cf1)" style="fill: none; stroke: #000000; stroke-opacity: 0.5; stroke-linecap: square"/>
   </g>
   <g id="line2d_18">
    <path d="M 92.290909 240.6132 
L 96.349091 240.5754 
L 100.407273 240.460488 
L 104.465455 240.271488 
L 108.523636 240.012936 
L 112.581818 239.689368 
L 116.64 239.308344 
L 120.698182 238.875912 
L 124.756364 238.39812 
L 128.814545 237.88404 
L 132.872727 237.336696 
L 136.930909 236.76516 
L 140.989091 236.176992 
L 145.047273 235.575216 
L 149.105455 234.967392 
L 153.163636 234.362592 
L 157.221818 233.768376 
L 161.28 233.198352 
L 165.338182 232.669152 
L 169.396364 232.203456 
L 173.454545 231.840576 
L 177.512727 231.615288 
L 181.570909 231.550272 
L 185.629091 231.630408 
L 189.687273 231.82092 
L 193.745455 232.088544 
L 197.803636 232.409088 
L 201.861818 232.767432 
L 205.92 233.154504 
L 209.978182 233.564256 
L 214.036364 233.992152 
L 218.094545 234.433656 
L 222.152727 234.89028 
L 226.210909 235.355976 
L 230.269091 235.832256 
L 234.327273 236.317608 
L 238.385455 236.809008 
L 242.443636 237.307968 
L 246.501818 237.812976 
L 250.56 238.32252 
L 254.618182 238.835088 
L 258.676364 239.352192 
L 262.734545 239.87232 
L 266.792727 240.395472 
L 270.850909 240.921648 
L 274.909091 241.447824 
L 278.967273 241.977024 
L 283.025455 242.506224 
L 287.083636 243.035424 
L 291.141818 243.566136 
L 295.2 244.096848 
L 299.258182 244.629072 
L 303.316364 245.159784 
L 307.374545 245.690496 
L 311.432727 246.221208 
L 315.490909 246.750408 
L 319.549091 247.28112 
L 323.607273 247.81032 
L 327.665455 248.33952 
L 331.723636 248.86872 
L 335.781818 249.39792 
L 339.84 249.92712 
L 343.898182 250.45632 
L 347.956364 250.98552 
L 352.014545 251.51472 
L 356.072727 252.045432 
L 360.130909 252.576144 
L 364.189091 253.106856 
L 368.247273 253.63908 
L 372.305455 254.171304 
L 376.363636 254.70504 
L 380.421818 255.238776 
L 384.48 255.772512 
L 388.538182 256.30776 
L 392.596364 256.841496 
L 396.654545 257.37372 
L 400.712727 257.905944 
L 404.770909 258.435144 
L 408.829091 258.959808 
L 412.887273 259.481448 
L 416.945455 259.99704 
L 421.003636 260.505072 
L 425.061818 261.005544 
L 429.12 261.495432 
L 433.178182 261.973224 
L 437.236364 262.435896 
L 441.294545 262.883448 
L 445.352727 263.312856 
L 449.410909 263.722608 
L 453.469091 264.108168 
L 457.527273 264.471048 
L 461.585455 264.806712 
L 465.643636 265.112136 
L 469.701818 265.38732 
L 473.76 265.630752 
L 477.818182 265.839408 
L 481.876364 266.011776 
L 485.934545 266.147856 
L 489.992727 266.246136 
L 494.050909 266.305104 
L 498.109091 266.32476 
" clip-path="url(#pcf92397cf1)" style="fill: none; stroke: #000000; stroke-opacity: 0.5; stroke-linecap: square"/>
   </g>
   <g id="line2d_19">
    <path d="M 92.290909 225.738144 
L 96.349091 225.747216 
L 100.407273 225.77292 
L 104.465455 225.816768 
L 108.523636 225.875736 
L 112.581818 225.952848 
L 116.64 226.046592 
L 120.698182 226.156968 
L 124.756364 226.283976 
L 128.814545 226.426104 
L 132.872727 226.583352 
L 136.930909 226.754208 
L 140.989091 226.93716 
L 145.047273 227.132208 
L 149.105455 227.334816 
L 153.163636 227.543472 
L 157.221818 227.750616 
L 161.28 227.947176 
L 165.338182 228.121056 
L 169.396364 228.246552 
L 173.454545 228.293424 
L 177.512727 228.22236 
L 181.570909 228.01824 
L 185.629091 227.696184 
L 189.687273 227.289456 
L 193.745455 226.837368 
L 197.803636 226.3626 
L 201.861818 225.881784 
L 205.92 225.405504 
L 209.978182 224.94132 
L 214.036364 224.49528 
L 218.094545 224.070408 
L 222.152727 223.67124 
L 226.210909 223.3008 
L 230.269091 222.959088 
L 234.327273 222.65064 
L 238.385455 222.376968 
L 242.443636 222.138072 
L 246.501818 221.938488 
L 250.56 221.778216 
L 254.618182 221.658768 
L 258.676364 221.580144 
L 262.734545 221.545368 
L 266.792727 221.552928 
L 270.850909 221.605848 
L 274.909091 221.702616 
L 278.967273 221.844744 
L 283.025455 222.03072 
L 287.083636 222.260544 
L 291.141818 222.532704 
L 295.2 222.8472 
L 299.258182 223.201008 
L 303.316364 223.59564 
L 307.374545 224.02656 
L 311.432727 224.490744 
L 315.490909 224.989704 
L 319.549091 225.517392 
L 323.607273 226.073808 
L 327.665455 226.654416 
L 331.723636 227.257704 
L 335.781818 227.880648 
L 339.84 228.520224 
L 343.898182 229.171896 
L 347.956364 229.837176 
L 352.014545 230.508504 
L 356.072727 231.187392 
L 360.130909 231.867792 
L 364.189091 232.548192 
L 368.247273 233.228592 
L 372.305455 233.902944 
L 376.363636 234.569736 
L 380.421818 235.227456 
L 384.48 235.874592 
L 388.538182 236.509632 
L 392.596364 237.12804 
L 396.654545 237.731328 
L 400.712727 238.316472 
L 404.770909 238.88196 
L 408.829091 239.42628 
L 412.887273 239.949432 
L 416.945455 240.449904 
L 421.003636 240.927696 
L 425.061818 241.382808 
L 429.12 241.812216 
L 433.178182 242.21592 
L 437.236364 242.596944 
L 441.294545 242.952264 
L 445.352727 243.28188 
L 449.410909 243.587304 
L 453.469091 243.867024 
L 457.527273 244.12104 
L 461.585455 244.350864 
L 465.643636 244.556496 
L 469.701818 244.736424 
L 473.76 244.893672 
L 477.818182 245.025216 
L 481.876364 245.132568 
L 485.934545 245.21724 
L 489.992727 245.276208 
L 494.050909 245.312496 
L 498.109091 245.324592 
" clip-path="url(#pcf92397cf1)" style="fill: none; stroke: #000000; stroke-opacity: 0.5; stroke-linecap: square"/>
   </g>
   <g id="line2d_20">
    <path d="M 92.290909 171.625176 
L 96.349091 171.631224 
L 100.407273 171.649368 
L 104.465455 171.679608 
L 108.523636 171.71892 
L 112.581818 171.767304 
L 116.64 171.818712 
L 120.698182 171.871632 
L 124.756364 171.924552 
L 128.814545 171.971424 
L 132.872727 172.010736 
L 136.930909 172.037952 
L 140.989091 172.053072 
L 145.047273 172.050048 
L 149.105455 172.027368 
L 153.163636 171.982008 
L 157.221818 171.913968 
L 161.28 171.821736 
L 165.338182 171.702288 
L 169.396364 171.554112 
L 173.454545 171.37872 
L 177.512727 171.1746 
L 181.570909 170.941752 
L 185.629091 170.681688 
L 189.687273 170.394408 
L 193.745455 170.082936 
L 197.803636 169.748784 
L 201.861818 169.396488 
L 205.92 169.02756 
L 209.978182 168.64956 
L 214.036364 168.268536 
L 218.094545 167.892048 
L 222.152727 167.53068 
L 226.210909 167.195016 
L 230.269091 166.898664 
L 234.327273 166.655232 
L 238.385455 166.473792 
L 242.443636 166.361904 
L 246.501818 166.322592 
L 250.56 166.35132 
L 254.618182 166.439016 
L 258.676364 166.57056 
L 262.734545 166.733856 
L 266.792727 166.915296 
L 270.850909 167.102784 
L 274.909091 167.282712 
L 278.967273 167.450544 
L 283.025455 167.595696 
L 287.083636 167.713632 
L 291.141818 167.798304 
L 295.2 167.849712 
L 299.258182 167.861808 
L 303.316364 167.836104 
L 307.374545 167.768064 
L 311.432727 167.6592 
L 315.490909 167.508 
L 319.549091 167.315976 
L 323.607273 167.083128 
L 327.665455 166.809456 
L 331.723636 166.496472 
L 335.781818 166.145688 
L 339.84 165.757104 
L 343.898182 165.332232 
L 347.956364 164.872584 
L 352.014545 164.37816 
L 356.072727 163.851984 
L 360.130909 163.294056 
L 364.189091 162.704376 
L 368.247273 162.08748 
L 372.305455 161.441856 
L 376.363636 160.769016 
L 380.421818 160.070472 
L 384.48 159.347736 
L 388.538182 158.60232 
L 392.596364 157.834224 
L 396.654545 157.05252 
L 400.712727 156.305592 
L 404.770909 156.171024 
L 408.829091 156.390264 
L 412.887273 156.623112 
L 416.945455 156.849912 
L 421.003636 157.06764 
L 425.061818 157.276296 
L 429.12 157.474368 
L 433.178182 157.663368 
L 437.236364 157.840272 
L 441.294545 158.006592 
L 445.352727 158.162328 
L 449.410909 158.305968 
L 453.469091 158.439024 
L 457.527273 158.559984 
L 461.585455 158.67036 
L 465.643636 158.770152 
L 469.701818 158.857848 
L 473.76 158.933448 
L 477.818182 158.996952 
L 481.876364 159.049872 
L 485.934545 159.090696 
L 489.992727 159.120936 
L 494.050909 159.137568 
L 498.109091 159.143616 
" clip-path="url(#pcf92397cf1)" style="fill: none; stroke: #000000; stroke-opacity: 0.5; stroke-linecap: square"/>
   </g>
   <g id="line2d_21">
    <path d="M 92.290909 147.377232 
L 96.349091 147.34548 
L 100.407273 147.248712 
L 104.465455 147.091464 
L 108.523636 146.875248 
L 112.581818 146.607624 
L 116.64 146.297664 
L 120.698182 145.952928 
L 124.756364 145.590048 
L 128.814545 145.225656 
L 132.872727 144.879408 
L 136.930909 144.57852 
L 140.989091 144.347184 
L 145.047273 144.20808 
L 149.105455 144.174816 
L 153.163636 144.250416 
L 157.221818 144.430344 
L 161.28 144.705528 
L 165.338182 145.06236 
L 169.396364 145.49328 
L 173.454545 145.98468 
L 177.512727 146.529 
L 181.570909 147.115656 
L 185.629091 147.737088 
L 189.687273 148.382712 
L 193.745455 149.043456 
L 197.803636 149.713272 
L 201.861818 150.378552 
L 205.92 151.031736 
L 209.978182 151.663752 
L 214.036364 152.260992 
L 218.094545 152.81136 
L 222.152727 153.301248 
L 226.210909 153.715536 
L 230.269091 154.040616 
L 234.327273 154.256832 
L 238.385455 154.355112 
L 242.443636 154.32336 
L 246.501818 154.15704 
L 250.56 153.8622 
L 254.618182 153.443376 
L 258.676364 152.914176 
L 262.734545 152.28972 
L 266.792727 151.585128 
L 270.850909 150.817032 
L 274.909091 150.002064 
L 278.967273 149.165928 
L 283.025455 148.353984 
L 287.083636 147.653928 
L 291.141818 147.21696 
L 295.2 147.12624 
L 299.258182 147.278952 
L 303.316364 147.551112 
L 307.374545 147.88224 
L 311.432727 148.242096 
L 315.490909 148.61556 
L 319.549091 148.998096 
L 323.607273 149.383656 
L 327.665455 149.770728 
L 331.723636 150.156288 
L 335.781818 150.538824 
L 339.84 150.919848 
L 343.898182 151.294824 
L 347.956364 151.666776 
L 352.014545 152.03268 
L 356.072727 152.391024 
L 360.130909 152.744832 
L 364.189091 153.09108 
L 368.247273 153.429768 
L 372.305455 153.760896 
L 376.363636 154.084464 
L 380.421818 154.39896 
L 384.48 154.704384 
L 388.538182 155.000736 
L 392.596364 155.284992 
L 396.654545 155.552616 
L 400.712727 155.753712 
L 404.770909 155.312208 
L 408.829091 154.486656 
L 412.887273 153.618768 
L 416.945455 152.7282 
L 421.003636 151.817976 
L 425.061818 150.889608 
L 429.12 149.94612 
L 433.178182 148.986 
L 437.236364 148.01076 
L 441.294545 147.023424 
L 445.352727 146.023992 
L 449.410909 145.015488 
L 453.469091 143.997912 
L 457.527273 142.974288 
L 461.585455 141.94764 
L 465.643636 140.924016 
L 469.701818 139.909464 
L 473.76 138.911544 
L 477.818182 137.946888 
L 481.876364 137.035152 
L 485.934545 136.212624 
L 489.992727 135.535248 
L 494.050909 135.074088 
L 498.109091 134.90928 
" clip-path="url(#pcf92397cf1)" style="fill: none; stroke: #000000; stroke-opacity: 0.5; stroke-linecap: square"/>
   </g>
   <g id="line2d_22">
    <path d="M 92.290909 138.098088 
L 96.349091 138.101112 
L 100.407273 138.108672 
L 104.465455 138.12228 
L 108.523636 138.138912 
L 112.581818 138.154032 
L 116.64 138.166128 
L 120.698182 138.166128 
L 124.756364 138.146472 
L 128.814545 138.095064 
L 132.872727 137.995272 
L 136.930909 137.82744 
L 140.989091 137.5704 
L 145.047273 137.20752 
L 149.105455 136.729728 
L 153.163636 136.140048 
L 157.221818 135.44604 
L 161.28 134.661312 
L 165.338182 133.810056 
L 169.396364 133.02684 
L 173.454545 133.221888 
L 177.512727 133.735968 
L 181.570909 134.25156 
L 185.629091 134.75052 
L 189.687273 135.231336 
L 193.745455 135.69552 
L 197.803636 136.146096 
L 201.861818 136.584576 
L 205.92 137.012472 
L 209.978182 137.431296 
L 214.036364 137.845584 
L 218.094545 138.255336 
L 222.152727 138.660552 
L 226.210909 139.064256 
L 230.269091 139.466448 
L 234.327273 139.86864 
L 238.385455 140.270832 
L 242.443636 140.673024 
L 246.501818 141.073704 
L 250.56 141.475896 
L 254.618182 141.876576 
L 258.676364 142.274232 
L 262.734545 142.668864 
L 266.792727 143.057448 
L 270.850909 143.435448 
L 274.909091 143.79228 
L 278.967273 144.111312 
L 283.025455 144.357768 
L 287.083636 144.445464 
L 291.141818 144.229248 
L 295.2 143.632008 
L 299.258182 142.755048 
L 303.316364 141.7284 
L 307.374545 140.614056 
L 311.432727 139.443768 
L 315.490909 138.234168 
L 319.549091 136.991304 
L 323.607273 135.722736 
L 327.665455 134.431488 
L 331.723636 133.120584 
L 335.781818 131.791536 
L 339.84 130.447368 
L 343.898182 129.08808 
L 347.956364 127.716696 
L 352.014545 126.333216 
L 356.072727 124.939152 
L 360.130909 123.534504 
L 364.189091 122.123808 
L 368.247273 120.70404 
L 372.305455 119.278224 
L 376.363636 117.847872 
L 380.421818 116.411472 
L 384.48 114.97356 
L 388.538182 113.534136 
L 392.596364 112.097736 
L 396.654545 110.665872 
L 400.712727 109.249128 
L 404.770909 107.877744 
L 408.829091 106.683264 
L 412.887273 106.2342 
L 416.945455 106.572888 
L 421.003636 107.182224 
L 425.061818 107.954856 
L 429.12 108.868104 
L 433.178182 109.894752 
L 437.236364 111.009096 
L 441.294545 112.179384 
L 445.352727 113.38596 
L 449.410909 114.612192 
L 453.469091 115.845984 
L 457.527273 117.076752 
L 461.585455 118.29996 
L 465.643636 119.503512 
L 469.701818 120.68136 
L 473.76 121.82292 
L 477.818182 122.91156 
L 481.876364 123.9246 
L 485.934545 124.825752 
L 489.992727 125.562096 
L 494.050909 126.05652 
L 498.109091 126.233424 
" clip-path="url(#pcf92397cf1)" style="fill: none; stroke: #000000; stroke-opacity: 0.5; stroke-linecap: square"/>
   </g>
   <g id="line2d_23">
    <path d="M 92.290909 122.725584 
L 96.349091 122.773968 
L 100.407273 122.914584 
L 104.465455 123.144408 
L 108.523636 123.457392 
L 112.581818 123.849 
L 116.64 124.31016 
L 120.698182 124.830288 
L 124.756364 125.400312 
L 128.814545 126.01116 
L 132.872727 126.652248 
L 136.930909 127.317528 
L 140.989091 127.996416 
L 145.047273 128.67984 
L 149.105455 129.361752 
L 153.163636 130.034592 
L 157.221818 130.692312 
L 161.28 131.328864 
L 165.338182 131.929128 
L 169.396364 132.367608 
L 173.454545 131.744664 
L 177.512727 130.724064 
L 181.570909 129.6324 
L 185.629091 128.492352 
L 189.687273 127.314504 
L 193.745455 126.098856 
L 197.803636 124.852968 
L 201.861818 123.575328 
L 205.92 122.270472 
L 209.978182 120.939912 
L 214.036364 119.58516 
L 218.094545 118.207728 
L 222.152727 116.807616 
L 226.210909 115.386336 
L 230.269091 113.9454 
L 234.327273 112.48632 
L 238.385455 111.009096 
L 242.443636 109.513728 
L 246.501818 108.00324 
L 250.56 106.477632 
L 254.618182 104.936904 
L 258.676364 103.382568 
L 262.734545 101.814624 
L 266.792727 100.237608 
L 270.850909 98.65152 
L 274.909091 97.060896 
L 278.967273 95.47632 
L 283.025455 93.915936 
L 287.083636 92.462904 
L 291.141818 91.481616 
L 295.2 91.490688 
L 299.258182 91.959408 
L 303.316364 92.529432 
L 307.374545 93.123648 
L 311.432727 93.720888 
L 315.490909 94.31208 
L 319.549091 94.8942 
L 323.607273 95.465736 
L 327.665455 96.025176 
L 331.723636 96.574032 
L 335.781818 97.10928 
L 339.84 97.633944 
L 343.898182 98.145 
L 347.956364 98.64396 
L 352.014545 99.130824 
L 356.072727 99.607104 
L 360.130909 100.069776 
L 364.189091 100.523376 
L 368.247273 100.96488 
L 372.305455 101.397312 
L 376.363636 101.81916 
L 380.421818 102.231936 
L 384.48 102.638664 
L 388.538182 103.037832 
L 392.596364 103.432464 
L 396.654545 103.82256 
L 400.712727 104.205096 
L 404.770909 104.561928 
L 408.829091 104.77512 
L 412.887273 104.303376 
L 416.945455 103.158792 
L 421.003636 102.309048 
L 425.061818 102.859416 
L 429.12 103.514112 
L 433.178182 104.062968 
L 437.236364 104.512032 
L 441.294545 104.885496 
L 445.352727 105.19848 
L 449.410909 105.464592 
L 453.469091 105.694416 
L 457.527273 105.892488 
L 461.585455 106.064856 
L 465.643636 106.214544 
L 469.701818 106.343064 
L 473.76 106.451928 
L 477.818182 106.54416 
L 481.876364 106.616736 
L 485.934545 106.674192 
L 489.992727 106.713504 
L 494.050909 106.737696 
L 498.109091 106.745256 
" clip-path="url(#pcf92397cf1)" style="fill: none; stroke: #000000; stroke-opacity: 0.5; stroke-linecap: square"/>
   </g>
   <g id="patch_3">
    <path d="M 72 384.48 
L 72 51.84 
" style="fill: none; stroke: #000000; stroke-width: 0.8; stroke-linejoin: miter; stroke-linecap: square"/>
   </g>
   <g id="patch_4">
    <path d="M 518.4 384.48 
L 518.4 51.84 
" style="fill: none; stroke: #000000; stroke-width: 0.8; stroke-linejoin: miter; stroke-linecap: square"/>
   </g>
   <g id="patch_5">
    <path d="M 72 384.48 
L 518.4 384.48 
" style="fill: none; stroke: #000000; stroke-width: 0.8; stroke-linejoin: miter; stroke-linecap: square"/>
   </g>
   <g id="patch_6">
    <path d="M 72 51.84 
L 518.4 51.84 
" style="fill: none; stroke: #000000; stroke-width: 0.8; stroke-linejoin: miter; stroke-linecap: square"/>
   </g>
  </g>
 </g>
 <defs>
  <clipPath id="pcf92397cf1">
   <rect x="72" y="51.84" width="446.4" height="332.64"/>
  </clipPath>
 </defs>
</svg>
