<?xml version="1.0" encoding="utf-8" standalone="no"?>
<!DOCTYPE svg PUBLIC "-//W3C//DTD SVG 1.1//EN"
  "http://www.w3.org/Graphics/SVG/1.1/DTD/svg11.dtd">
<svg xmlns:xlink="http://www.w3.org/1999/xlink" width="576pt" height="432pt" viewBox="0 0 576 432" xmlns="http://www.w3.org/2000/svg" version="1.1">
 <metadata>
  <rdf:RDF xmlns:dc="http://purl.org/dc/elements/1.1/" xmlns:cc="http://creativecommons.org/ns#" xmlns:rdf="http://www.w3.org/1999/02/22-rdf-syntax-ns#">
   <cc:Work>
    <dc:type rdf:resource="http://purl.org/dc/dcmitype/StillImage"/>
    <dc:date>2023-05-04T03:11:08.608306</dc:date>
    <dc:format>image/svg+xml</dc:format>
    <dc:creator>
     <cc:Agent>
      <dc:title>Matplotlib v3.7.1, https://matplotlib.org/</dc:title>
     </cc:Agent>
    </dc:creator>
   </cc:Work>
  </rdf:RDF>
 </metadata>
 <defs>
  <style type="text/css">*{stroke-linejoin: round; stroke-linecap: butt}</style>
 </defs>
 <g id="figure_1">
  <g id="patch_1">
   <path d="M 0 432 
L 576 432 
L 576 0 
L 0 0 
z
" style="fill: #ffffff"/>
  </g>
  <g id="axes_1">
   <g id="patch_2">
    <path d="M 72 384.48 
L 518.4 384.48 
L 518.4 51.84 
L 72 51.84 
z
" style="fill: #ffffff"/>
   </g>
   <g id="matplotlib.axis_1">
    <g id="xtick_1">
     <g id="line2d_1">
      <defs>
       <path id="m887c26ceb6" d="M 0 0 
L 0 3.5 
" style="stroke: #000000; stroke-width: 0.8"/>
      </defs>
      <g>
       <use xlink:href="#m887c26ceb6" x="92.290909" y="384.48" style="stroke: #000000; stroke-width: 0.8"/>
      </g>
     </g>
     <g id="text_1">
      <!-- 0.0 -->
      <g transform="translate(84.339347 399.078438) scale(0.1 -0.1)">
       <defs>
        <path id="DejaVuSans-30" d="M 2034 4250 
Q 1547 4250 1301 3770 
Q 1056 3291 1056 2328 
Q 1056 1369 1301 889 
Q 1547 409 2034 409 
Q 2525 409 2770 889 
Q 3016 1369 3016 2328 
Q 3016 3291 2770 3770 
Q 2525 4250 2034 4250 
z
M 2034 4750 
Q 2819 4750 3233 4129 
Q 3647 3509 3647 2328 
Q 3647 1150 3233 529 
Q 2819 -91 2034 -91 
Q 1250 -91 836 529 
Q 422 1150 422 2328 
Q 422 3509 836 4129 
Q 1250 4750 2034 4750 
z
" transform="scale(0.015625)"/>
        <path id="DejaVuSans-2e" d="M 684 794 
L 1344 794 
L 1344 0 
L 684 0 
L 684 794 
z
" transform="scale(0.015625)"/>
       </defs>
       <use xlink:href="#DejaVuSans-30"/>
       <use xlink:href="#DejaVuSans-2e" x="63.623047"/>
       <use xlink:href="#DejaVuSans-30" x="95.410156"/>
      </g>
     </g>
    </g>
    <g id="xtick_2">
     <g id="line2d_2">
      <g>
       <use xlink:href="#m887c26ceb6" x="173.454545" y="384.48" style="stroke: #000000; stroke-width: 0.8"/>
      </g>
     </g>
     <g id="text_2">
      <!-- 0.2 -->
      <g transform="translate(165.502983 399.078438) scale(0.1 -0.1)">
       <defs>
        <path id="DejaVuSans-32" d="M 1228 531 
L 3431 531 
L 3431 0 
L 469 0 
L 469 531 
Q 828 903 1448 1529 
Q 2069 2156 2228 2338 
Q 2531 2678 2651 2914 
Q 2772 3150 2772 3378 
Q 2772 3750 2511 3984 
Q 2250 4219 1831 4219 
Q 1534 4219 1204 4116 
Q 875 4013 500 3803 
L 500 4441 
Q 881 4594 1212 4672 
Q 1544 4750 1819 4750 
Q 2544 4750 2975 4387 
Q 3406 4025 3406 3419 
Q 3406 3131 3298 2873 
Q 3191 2616 2906 2266 
Q 2828 2175 2409 1742 
Q 1991 1309 1228 531 
z
" transform="scale(0.015625)"/>
       </defs>
       <use xlink:href="#DejaVuSans-30"/>
       <use xlink:href="#DejaVuSans-2e" x="63.623047"/>
       <use xlink:href="#DejaVuSans-32" x="95.410156"/>
      </g>
     </g>
    </g>
    <g id="xtick_3">
     <g id="line2d_3">
      <g>
       <use xlink:href="#m887c26ceb6" x="254.618182" y="384.48" style="stroke: #000000; stroke-width: 0.8"/>
      </g>
     </g>
     <g id="text_3">
      <!-- 0.4 -->
      <g transform="translate(246.666619 399.078438) scale(0.1 -0.1)">
       <defs>
        <path id="DejaVuSans-34" d="M 2419 4116 
L 825 1625 
L 2419 1625 
L 2419 4116 
z
M 2253 4666 
L 3047 4666 
L 3047 1625 
L 3713 1625 
L 3713 1100 
L 3047 1100 
L 3047 0 
L 2419 0 
L 2419 1100 
L 313 1100 
L 313 1709 
L 2253 4666 
z
" transform="scale(0.015625)"/>
       </defs>
       <use xlink:href="#DejaVuSans-30"/>
       <use xlink:href="#DejaVuSans-2e" x="63.623047"/>
       <use xlink:href="#DejaVuSans-34" x="95.410156"/>
      </g>
     </g>
    </g>
    <g id="xtick_4">
     <g id="line2d_4">
      <g>
       <use xlink:href="#m887c26ceb6" x="335.781818" y="384.48" style="stroke: #000000; stroke-width: 0.8"/>
      </g>
     </g>
     <g id="text_4">
      <!-- 0.6 -->
      <g transform="translate(327.830256 399.078438) scale(0.1 -0.1)">
       <defs>
        <path id="DejaVuSans-36" d="M 2113 2584 
Q 1688 2584 1439 2293 
Q 1191 2003 1191 1497 
Q 1191 994 1439 701 
Q 1688 409 2113 409 
Q 2538 409 2786 701 
Q 3034 994 3034 1497 
Q 3034 2003 2786 2293 
Q 2538 2584 2113 2584 
z
M 3366 4563 
L 3366 3988 
Q 3128 4100 2886 4159 
Q 2644 4219 2406 4219 
Q 1781 4219 1451 3797 
Q 1122 3375 1075 2522 
Q 1259 2794 1537 2939 
Q 1816 3084 2150 3084 
Q 2853 3084 3261 2657 
Q 3669 2231 3669 1497 
Q 3669 778 3244 343 
Q 2819 -91 2113 -91 
Q 1303 -91 875 529 
Q 447 1150 447 2328 
Q 447 3434 972 4092 
Q 1497 4750 2381 4750 
Q 2619 4750 2861 4703 
Q 3103 4656 3366 4563 
z
" transform="scale(0.015625)"/>
       </defs>
       <use xlink:href="#DejaVuSans-30"/>
       <use xlink:href="#DejaVuSans-2e" x="63.623047"/>
       <use xlink:href="#DejaVuSans-36" x="95.410156"/>
      </g>
     </g>
    </g>
    <g id="xtick_5">
     <g id="line2d_5">
      <g>
       <use xlink:href="#m887c26ceb6" x="416.945455" y="384.48" style="stroke: #000000; stroke-width: 0.8"/>
      </g>
     </g>
     <g id="text_5">
      <!-- 0.8 -->
      <g transform="translate(408.993892 399.078438) scale(0.1 -0.1)">
       <defs>
        <path id="DejaVuSans-38" d="M 2034 2216 
Q 1584 2216 1326 1975 
Q 1069 1734 1069 1313 
Q 1069 891 1326 650 
Q 1584 409 2034 409 
Q 2484 409 2743 651 
Q 3003 894 3003 1313 
Q 3003 1734 2745 1975 
Q 2488 2216 2034 2216 
z
M 1403 2484 
Q 997 2584 770 2862 
Q 544 3141 544 3541 
Q 544 4100 942 4425 
Q 1341 4750 2034 4750 
Q 2731 4750 3128 4425 
Q 3525 4100 3525 3541 
Q 3525 3141 3298 2862 
Q 3072 2584 2669 2484 
Q 3125 2378 3379 2068 
Q 3634 1759 3634 1313 
Q 3634 634 3220 271 
Q 2806 -91 2034 -91 
Q 1263 -91 848 271 
Q 434 634 434 1313 
Q 434 1759 690 2068 
Q 947 2378 1403 2484 
z
M 1172 3481 
Q 1172 3119 1398 2916 
Q 1625 2713 2034 2713 
Q 2441 2713 2670 2916 
Q 2900 3119 2900 3481 
Q 2900 3844 2670 4047 
Q 2441 4250 2034 4250 
Q 1625 4250 1398 4047 
Q 1172 3844 1172 3481 
z
" transform="scale(0.015625)"/>
       </defs>
       <use xlink:href="#DejaVuSans-30"/>
       <use xlink:href="#DejaVuSans-2e" x="63.623047"/>
       <use xlink:href="#DejaVuSans-38" x="95.410156"/>
      </g>
     </g>
    </g>
    <g id="xtick_6">
     <g id="line2d_6">
      <g>
       <use xlink:href="#m887c26ceb6" x="498.109091" y="384.48" style="stroke: #000000; stroke-width: 0.8"/>
      </g>
     </g>
     <g id="text_6">
      <!-- 1.0 -->
      <g transform="translate(490.157528 399.078438) scale(0.1 -0.1)">
       <defs>
        <path id="DejaVuSans-31" d="M 794 531 
L 1825 531 
L 1825 4091 
L 703 3866 
L 703 4441 
L 1819 4666 
L 2450 4666 
L 2450 531 
L 3481 531 
L 3481 0 
L 794 0 
L 794 531 
z
" transform="scale(0.015625)"/>
       </defs>
       <use xlink:href="#DejaVuSans-31"/>
       <use xlink:href="#DejaVuSans-2e" x="63.623047"/>
       <use xlink:href="#DejaVuSans-30" x="95.410156"/>
      </g>
     </g>
    </g>
   </g>
   <g id="matplotlib.axis_2">
    <g id="ytick_1">
     <g id="line2d_7">
      <defs>
       <path id="m17f78b70f2" d="M 0 0 
L -3.5 0 
" style="stroke: #000000; stroke-width: 0.8"/>
      </defs>
      <g>
       <use xlink:href="#m17f78b70f2" x="72" y="369.36" style="stroke: #000000; stroke-width: 0.8"/>
      </g>
     </g>
     <g id="text_7">
      <!-- −5.0 -->
      <g transform="translate(40.717187 373.159219) scale(0.1 -0.1)">
       <defs>
        <path id="DejaVuSans-2212" d="M 678 2272 
L 4684 2272 
L 4684 1741 
L 678 1741 
L 678 2272 
z
" transform="scale(0.015625)"/>
        <path id="DejaVuSans-35" d="M 691 4666 
L 3169 4666 
L 3169 4134 
L 1269 4134 
L 1269 2991 
Q 1406 3038 1543 3061 
Q 1681 3084 1819 3084 
Q 2600 3084 3056 2656 
Q 3513 2228 3513 1497 
Q 3513 744 3044 326 
Q 2575 -91 1722 -91 
Q 1428 -91 1123 -41 
Q 819 9 494 109 
L 494 744 
Q 775 591 1075 516 
Q 1375 441 1709 441 
Q 2250 441 2565 725 
Q 2881 1009 2881 1497 
Q 2881 1984 2565 2268 
Q 2250 2553 1709 2553 
Q 1456 2553 1204 2497 
Q 953 2441 691 2322 
L 691 4666 
z
" transform="scale(0.015625)"/>
       </defs>
       <use xlink:href="#DejaVuSans-2212"/>
       <use xlink:href="#DejaVuSans-35" x="83.789062"/>
       <use xlink:href="#DejaVuSans-2e" x="147.412109"/>
       <use xlink:href="#DejaVuSans-30" x="179.199219"/>
      </g>
     </g>
    </g>
    <g id="ytick_2">
     <g id="line2d_8">
      <g>
       <use xlink:href="#m17f78b70f2" x="72" y="331.56" style="stroke: #000000; stroke-width: 0.8"/>
      </g>
     </g>
     <g id="text_8">
      <!-- −2.5 -->
      <g transform="translate(40.717187 335.359219) scale(0.1 -0.1)">
       <use xlink:href="#DejaVuSans-2212"/>
       <use xlink:href="#DejaVuSans-32" x="83.789062"/>
       <use xlink:href="#DejaVuSans-2e" x="147.412109"/>
       <use xlink:href="#DejaVuSans-35" x="179.199219"/>
      </g>
     </g>
    </g>
    <g id="ytick_3">
     <g id="line2d_9">
      <g>
       <use xlink:href="#m17f78b70f2" x="72" y="293.76" style="stroke: #000000; stroke-width: 0.8"/>
      </g>
     </g>
     <g id="text_9">
      <!-- 0.0 -->
      <g transform="translate(49.096875 297.559219) scale(0.1 -0.1)">
       <use xlink:href="#DejaVuSans-30"/>
       <use xlink:href="#DejaVuSans-2e" x="63.623047"/>
       <use xlink:href="#DejaVuSans-30" x="95.410156"/>
      </g>
     </g>
    </g>
    <g id="ytick_4">
     <g id="line2d_10">
      <g>
       <use xlink:href="#m17f78b70f2" x="72" y="255.96" style="stroke: #000000; stroke-width: 0.8"/>
      </g>
     </g>
     <g id="text_10">
      <!-- 2.5 -->
      <g transform="translate(49.096875 259.759219) scale(0.1 -0.1)">
       <use xlink:href="#DejaVuSans-32"/>
       <use xlink:href="#DejaVuSans-2e" x="63.623047"/>
       <use xlink:href="#DejaVuSans-35" x="95.410156"/>
      </g>
     </g>
    </g>
    <g id="ytick_5">
     <g id="line2d_11">
      <g>
       <use xlink:href="#m17f78b70f2" x="72" y="218.16" style="stroke: #000000; stroke-width: 0.8"/>
      </g>
     </g>
     <g id="text_11">
      <!-- 5.0 -->
      <g transform="translate(49.096875 221.959219) scale(0.1 -0.1)">
       <use xlink:href="#DejaVuSans-35"/>
       <use xlink:href="#DejaVuSans-2e" x="63.623047"/>
       <use xlink:href="#DejaVuSans-30" x="95.410156"/>
      </g>
     </g>
    </g>
    <g id="ytick_6">
     <g id="line2d_12">
      <g>
       <use xlink:href="#m17f78b70f2" x="72" y="180.36" style="stroke: #000000; stroke-width: 0.8"/>
      </g>
     </g>
     <g id="text_12">
      <!-- 7.5 -->
      <g transform="translate(49.096875 184.159219) scale(0.1 -0.1)">
       <defs>
        <path id="DejaVuSans-37" d="M 525 4666 
L 3525 4666 
L 3525 4397 
L 1831 0 
L 1172 0 
L 2766 4134 
L 525 4134 
L 525 4666 
z
" transform="scale(0.015625)"/>
       </defs>
       <use xlink:href="#DejaVuSans-37"/>
       <use xlink:href="#DejaVuSans-2e" x="63.623047"/>
       <use xlink:href="#DejaVuSans-35" x="95.410156"/>
      </g>
     </g>
    </g>
    <g id="ytick_7">
     <g id="line2d_13">
      <g>
       <use xlink:href="#m17f78b70f2" x="72" y="142.56" style="stroke: #000000; stroke-width: 0.8"/>
      </g>
     </g>
     <g id="text_13">
      <!-- 10.0 -->
      <g transform="translate(42.734375 146.359219) scale(0.1 -0.1)">
       <use xlink:href="#DejaVuSans-31"/>
       <use xlink:href="#DejaVuSans-30" x="63.623047"/>
       <use xlink:href="#DejaVuSans-2e" x="127.246094"/>
       <use xlink:href="#DejaVuSans-30" x="159.033203"/>
      </g>
     </g>
    </g>
    <g id="ytick_8">
     <g id="line2d_14">
      <g>
       <use xlink:href="#m17f78b70f2" x="72" y="104.76" style="stroke: #000000; stroke-width: 0.8"/>
      </g>
     </g>
     <g id="text_14">
      <!-- 12.5 -->
      <g transform="translate(42.734375 108.559219) scale(0.1 -0.1)">
       <use xlink:href="#DejaVuSans-31"/>
       <use xlink:href="#DejaVuSans-32" x="63.623047"/>
       <use xlink:href="#DejaVuSans-2e" x="127.246094"/>
       <use xlink:href="#DejaVuSans-35" x="159.033203"/>
      </g>
     </g>
    </g>
    <g id="ytick_9">
     <g id="line2d_15">
      <g>
       <use xlink:href="#m17f78b70f2" x="72" y="66.96" style="stroke: #000000; stroke-width: 0.8"/>
      </g>
     </g>
     <g id="text_15">
      <!-- 15.0 -->
      <g transform="translate(42.734375 70.759219) scale(0.1 -0.1)">
       <use xlink:href="#DejaVuSans-31"/>
       <use xlink:href="#DejaVuSans-35" x="63.623047"/>
       <use xlink:href="#DejaVuSans-2e" x="127.246094"/>
       <use xlink:href="#DejaVuSans-30" x="159.033203"/>
      </g>
     </g>
    </g>
   </g>
   <g id="line2d_16">
    <path d="M 92.290909 330.596856 
L 96.349091 330.615 
L 100.407273 330.672456 
L 104.465455 330.7662 
L 108.523636 330.896232 
L 112.581818 331.062552 
L 116.64 331.263648 
L 120.698182 331.498008 
L 124.756364 331.767144 
L 128.814545 332.065008 
L 132.872727 332.393112 
L 136.930909 332.749944 
L 140.989091 333.133992 
L 145.047273 333.54072 
L 149.105455 333.973152 
L 153.163636 334.42524 
L 157.221818 334.898496 
L 161.28 335.388384 
L 165.338182 335.896416 
L 169.396364 336.419568 
L 173.454545 336.956328 
L 177.512727 337.505184 
L 181.570909 338.066136 
L 185.629091 338.63616 
L 189.687273 339.215256 
L 193.745455 339.8004 
L 197.803636 340.393104 
L 201.861818 340.990344 
L 205.92 341.593632 
L 209.978182 342.198432 
L 214.036364 342.806256 
L 218.094545 343.415592 
L 222.152727 344.02644 
L 226.210909 344.637288 
L 230.269091 345.246624 
L 234.327273 345.85596 
L 238.385455 346.463784 
L 242.443636 347.068584 
L 246.501818 347.67036 
L 250.56 348.269112 
L 254.618182 348.863328 
L 258.676364 349.45452 
L 262.734545 350.039664 
L 266.792727 350.620272 
L 270.850909 351.194832 
L 274.909091 351.764856 
L 278.967273 352.32732 
L 283.025455 352.883736 
L 287.083636 353.434104 
L 291.141818 353.9754 
L 295.2 354.510648 
L 299.258182 355.038336 
L 303.316364 355.558464 
L 307.374545 356.06952 
L 311.432727 356.573016 
L 315.490909 357.06744 
L 319.549091 357.552792 
L 323.607273 358.030584 
L 327.665455 358.497792 
L 331.723636 358.955928 
L 335.781818 359.406504 
L 339.84 359.844984 
L 343.898182 360.275904 
L 347.956364 360.69624 
L 352.014545 361.105992 
L 356.072727 361.506672 
L 360.130909 361.896768 
L 364.189091 362.27628 
L 368.247273 362.645208 
L 372.305455 363.003552 
L 376.363636 363.352824 
L 380.421818 363.69 
L 384.48 364.016592 
L 388.538182 364.3326 
L 392.596364 364.638024 
L 396.654545 364.931352 
L 400.712727 365.215608 
L 404.770909 365.487768 
L 408.829091 365.747832 
L 412.887273 365.997312 
L 416.945455 366.236208 
L 421.003636 366.463008 
L 425.061818 366.677712 
L 429.12 366.883344 
L 433.178182 367.075368 
L 437.236364 367.256808 
L 441.294545 367.426152 
L 445.352727 367.584912 
L 449.410909 367.731576 
L 453.469091 367.866144 
L 457.527273 367.988616 
L 461.585455 368.100504 
L 465.643636 368.200296 
L 469.701818 368.289504 
L 473.76 368.365104 
L 477.818182 368.43012 
L 481.876364 368.48304 
L 485.934545 368.523864 
L 489.992727 368.554104 
L 494.050909 368.570736 
L 498.109091 368.576784 
" clip-path="url(#p932941423b)" style="fill: none; stroke: #000000; stroke-opacity: 0.5; stroke-linecap: square"/>
   </g>
   <g id="line2d_17">
    <path d="M 92.290909 307.026288 
L 96.349091 307.02024 
L 100.407273 306.99756 
L 104.465455 306.962784 
L 108.523636 306.912888 
L 112.581818 306.849384 
L 116.64 306.77076 
L 120.698182 306.68004 
L 124.756364 306.5742 
L 128.814545 306.456264 
L 132.872727 306.32472 
L 136.930909 306.179568 
L 140.989091 306.020808 
L 145.047273 305.849952 
L 149.105455 305.665488 
L 153.163636 305.468928 
L 157.221818 305.260272 
L 161.28 305.038008 
L 165.338182 304.80516 
L 169.396364 304.558704 
L 173.454545 304.29864 
L 177.512727 304.027992 
L 181.570909 303.745248 
L 185.629091 303.450408 
L 189.687273 303.14196 
L 193.745455 302.822928 
L 197.803636 302.4918 
L 201.861818 302.148576 
L 205.92 301.793256 
L 209.978182 301.42584 
L 214.036364 301.046328 
L 218.094545 300.65472 
L 222.152727 300.251016 
L 226.210909 299.836728 
L 230.269091 299.408832 
L 234.327273 298.970352 
L 238.385455 298.519776 
L 242.443636 298.057104 
L 246.501818 297.583848 
L 250.56 297.098496 
L 254.618182 296.601048 
L 258.676364 296.091504 
L 262.734545 295.571376 
L 266.792727 295.039152 
L 270.850909 294.496344 
L 274.909091 293.94144 
L 278.967273 293.37444 
L 283.025455 292.798368 
L 287.083636 292.208688 
L 291.141818 291.609936 
L 295.2 290.999088 
L 299.258182 290.377656 
L 303.316364 289.74564 
L 307.374545 289.101528 
L 311.432727 288.448344 
L 315.490909 287.784576 
L 319.549091 287.108712 
L 323.607273 286.423776 
L 327.665455 285.729768 
L 331.723636 285.023664 
L 335.781818 284.308488 
L 339.84 283.58424 
L 343.898182 282.849408 
L 347.956364 282.105504 
L 352.014545 281.35404 
L 356.072727 280.591992 
L 360.130909 279.820872 
L 364.189091 279.042192 
L 368.247273 278.255952 
L 372.305455 277.46064 
L 376.363636 276.65928 
L 380.421818 275.85036 
L 384.48 275.03388 
L 388.538182 274.211352 
L 392.596364 273.384288 
L 396.654545 272.551176 
L 400.712727 271.712016 
L 404.770909 270.871344 
L 408.829091 270.026136 
L 412.887273 269.179416 
L 416.945455 268.331184 
L 421.003636 267.482952 
L 425.061818 266.636232 
L 429.12 265.792536 
L 433.178182 264.953376 
L 437.236364 264.120264 
L 441.294545 263.296224 
L 445.352727 262.485792 
L 449.410909 261.688968 
L 453.469091 260.913312 
L 457.527273 260.160336 
L 461.585455 259.439112 
L 465.643636 258.754176 
L 469.701818 258.113088 
L 473.76 257.52492 
L 477.818182 257.001768 
L 481.876364 256.551192 
L 485.934545 256.1868 
L 489.992727 255.916152 
L 494.050909 255.751344 
L 498.109091 255.6954 
" clip-path="url(#p932941423b)" style="fill: none; stroke: #000000; stroke-opacity: 0.5; stroke-linecap: square"/>
   </g>
   <g id="line2d_18">
    <path d="M 92.290909 268.376544 
L 96.349091 268.35084 
L 100.407273 268.276752 
L 104.465455 268.151256 
L 108.523636 267.978888 
L 112.581818 267.756624 
L 116.64 267.487488 
L 120.698182 267.172992 
L 124.756364 266.813136 
L 128.814545 266.409432 
L 132.872727 265.964904 
L 136.930909 265.479552 
L 140.989091 264.954888 
L 145.047273 264.393936 
L 149.105455 263.798208 
L 153.163636 263.169216 
L 157.221818 262.508472 
L 161.28 261.817488 
L 165.338182 261.1008 
L 169.396364 260.356896 
L 173.454545 259.590312 
L 177.512727 258.80256 
L 181.570909 257.99364 
L 185.629091 257.166576 
L 189.687273 256.32288 
L 193.745455 255.465576 
L 197.803636 254.594664 
L 201.861818 253.713168 
L 205.92 252.8226 
L 209.978182 251.925984 
L 214.036364 251.021808 
L 218.094545 250.11612 
L 222.152727 249.207408 
L 226.210909 248.298696 
L 230.269091 247.391496 
L 234.327273 246.48732 
L 238.385455 245.589192 
L 242.443636 244.697112 
L 246.501818 243.814104 
L 250.56 242.94168 
L 254.618182 242.07984 
L 258.676364 241.230096 
L 262.734545 240.395472 
L 266.792727 239.574456 
L 270.850909 238.770072 
L 274.909091 237.98232 
L 278.967273 237.209688 
L 283.025455 236.453688 
L 287.083636 235.715832 
L 291.141818 234.993096 
L 295.2 234.28548 
L 299.258182 233.594496 
L 303.316364 232.918632 
L 307.374545 232.256376 
L 311.432727 231.607728 
L 315.490909 230.972688 
L 319.549091 230.349744 
L 323.607273 229.738896 
L 327.665455 229.140144 
L 331.723636 228.550464 
L 335.781818 227.97288 
L 339.84 227.404368 
L 343.898182 226.84644 
L 347.956364 226.299096 
L 352.014545 225.762336 
L 356.072727 225.234648 
L 360.130909 224.719056 
L 364.189091 224.214048 
L 368.247273 223.722648 
L 372.305455 223.244856 
L 376.363636 222.785208 
L 380.421818 222.346728 
L 384.48 221.94 
L 388.538182 221.586192 
L 392.596364 221.332176 
L 396.654545 221.27472 
L 400.712727 221.496984 
L 404.770909 221.943024 
L 408.829091 222.516072 
L 412.887273 223.16472 
L 416.945455 223.86024 
L 421.003636 224.590536 
L 425.061818 225.348048 
L 429.12 226.122192 
L 433.178182 226.909944 
L 437.236364 227.706768 
L 441.294545 228.505104 
L 445.352727 229.300416 
L 449.410909 230.088168 
L 453.469091 230.863824 
L 457.527273 231.618312 
L 461.585455 232.345584 
L 465.643636 233.039592 
L 469.701818 233.689752 
L 473.76 234.286992 
L 477.818182 234.820728 
L 481.876364 235.278864 
L 485.934545 235.650816 
L 489.992727 235.926 
L 494.050909 236.093832 
L 498.109091 236.151288 
" clip-path="url(#p932941423b)" style="fill: none; stroke: #000000; stroke-opacity: 0.5; stroke-linecap: square"/>
   </g>
   <g id="line2d_19">
    <path d="M 92.290909 239.408136 
L 96.349091 239.402088 
L 100.407273 239.383944 
L 104.465455 239.352192 
L 108.523636 239.309856 
L 112.581818 239.255424 
L 116.64 239.188896 
L 120.698182 239.10876 
L 124.756364 239.016528 
L 128.814545 238.913712 
L 132.872727 238.797288 
L 136.930909 238.668768 
L 140.989091 238.52664 
L 145.047273 238.373928 
L 149.105455 238.207608 
L 153.163636 238.029192 
L 157.221818 237.837168 
L 161.28 237.633048 
L 165.338182 237.41532 
L 169.396364 237.185496 
L 173.454545 236.943576 
L 177.512727 236.686536 
L 181.570909 236.4174 
L 185.629091 236.134656 
L 189.687273 235.836792 
L 193.745455 235.526832 
L 197.803636 235.201752 
L 201.861818 234.863064 
L 205.92 234.509256 
L 209.978182 234.14184 
L 214.036364 233.757792 
L 218.094545 233.360136 
L 222.152727 232.945848 
L 226.210909 232.51644 
L 230.269091 232.0704 
L 234.327273 231.60924 
L 238.385455 231.131448 
L 242.443636 230.637024 
L 246.501818 230.125968 
L 250.56 229.599792 
L 254.618182 229.058496 
L 258.676364 228.50208 
L 262.734545 227.930544 
L 266.792727 227.346912 
L 270.850909 226.752696 
L 274.909091 226.146384 
L 278.967273 225.532512 
L 283.025455 224.914104 
L 287.083636 224.292672 
L 291.141818 223.67124 
L 295.2 223.054344 
L 299.258182 222.445008 
L 303.316364 221.846256 
L 307.374545 221.264136 
L 311.432727 220.701672 
L 315.490909 220.1634 
L 319.549091 219.653856 
L 323.607273 219.1806 
L 327.665455 218.745144 
L 331.723636 218.353536 
L 335.781818 218.0088 
L 339.84 217.716984 
L 343.898182 217.482624 
L 347.956364 217.30572 
L 352.014545 217.19232 
L 356.072727 217.140912 
L 360.130909 217.156032 
L 364.189091 217.234656 
L 368.247273 217.378296 
L 372.305455 217.582416 
L 376.363636 217.84248 
L 380.421818 218.15244 
L 384.48 218.501712 
L 388.538182 218.86308 
L 392.596364 219.18816 
L 396.654545 219.374136 
L 400.712727 219.336336 
L 404.770909 219.126168 
L 408.829091 218.837376 
L 412.887273 218.516832 
L 416.945455 218.188728 
L 421.003636 217.863648 
L 425.061818 217.544616 
L 429.12 217.23768 
L 433.178182 216.941328 
L 437.236364 216.660096 
L 441.294545 216.392472 
L 445.352727 216.14148 
L 449.410909 215.90712 
L 453.469091 215.689392 
L 457.527273 215.489808 
L 461.585455 215.306856 
L 465.643636 215.142048 
L 469.701818 214.996896 
L 473.76 214.869888 
L 477.818182 214.762536 
L 481.876364 214.67484 
L 485.934545 214.605288 
L 489.992727 214.556904 
L 494.050909 214.526664 
L 498.109091 214.517592 
" clip-path="url(#p932941423b)" style="fill: none; stroke: #000000; stroke-opacity: 0.5; stroke-linecap: square"/>
   </g>
   <g id="line2d_20">
    <path d="M 92.290909 177.113736 
L 96.349091 177.106176 
L 100.407273 177.085008 
L 104.465455 177.050232 
L 108.523636 177.001848 
L 112.581818 176.939856 
L 116.64 176.864256 
L 120.698182 176.773536 
L 124.756364 176.67072 
L 128.814545 176.554296 
L 132.872727 176.424264 
L 136.930909 176.280624 
L 140.989091 176.123376 
L 145.047273 175.954032 
L 149.105455 175.77108 
L 153.163636 175.576032 
L 157.221818 175.368888 
L 161.28 175.148136 
L 165.338182 174.9168 
L 169.396364 174.673368 
L 173.454545 174.419352 
L 177.512727 174.15324 
L 181.570909 173.878056 
L 185.629091 173.592288 
L 189.687273 173.297448 
L 193.745455 172.993536 
L 197.803636 172.682064 
L 201.861818 172.363032 
L 205.92 172.037952 
L 209.978182 171.706824 
L 214.036364 171.372672 
L 218.094545 171.035496 
L 222.152727 170.69832 
L 226.210909 170.361144 
L 230.269091 170.026992 
L 234.327273 169.698888 
L 238.385455 169.381368 
L 242.443636 169.074432 
L 246.501818 168.78564 
L 250.56 168.519528 
L 254.618182 168.280632 
L 258.676364 168.076512 
L 262.734545 167.913216 
L 266.792727 167.799816 
L 270.850909 167.74236 
L 274.909091 167.746896 
L 278.967273 167.819472 
L 283.025455 167.960088 
L 287.083636 168.170256 
L 291.141818 168.442416 
L 295.2 168.77052 
L 299.258182 169.147008 
L 303.316364 169.558272 
L 307.374545 169.99524 
L 311.432727 170.447328 
L 315.490909 170.90244 
L 319.549091 171.354528 
L 323.607273 171.79452 
L 327.665455 172.211832 
L 331.723636 172.600416 
L 335.781818 172.954224 
L 339.84 173.267208 
L 343.898182 173.53332 
L 347.956364 173.751048 
L 352.014545 173.912832 
L 356.072727 174.018672 
L 360.130909 174.067056 
L 364.189091 174.05496 
L 368.247273 173.983896 
L 372.305455 173.855376 
L 376.363636 173.6694 
L 380.421818 173.430504 
L 384.48 173.1402 
L 388.538182 172.803024 
L 392.596364 172.422 
L 396.654545 172.001664 
L 400.712727 171.546552 
L 404.770909 171.062712 
L 408.829091 170.551656 
L 412.887273 170.020944 
L 416.945455 169.4736 
L 421.003636 168.912648 
L 425.061818 168.345648 
L 429.12 167.775624 
L 433.178182 167.2056 
L 437.236364 166.640112 
L 441.294545 166.085208 
L 445.352727 165.5424 
L 449.410909 165.016224 
L 453.469091 164.511216 
L 457.527273 164.0304 
L 461.585455 163.578312 
L 465.643636 163.159488 
L 469.701818 162.776952 
L 473.76 162.433728 
L 477.818182 162.135864 
L 481.876364 161.886384 
L 485.934545 161.688312 
L 489.992727 161.54316 
L 494.050909 161.456976 
L 498.109091 161.426736 
" clip-path="url(#p932941423b)" style="fill: none; stroke: #000000; stroke-opacity: 0.5; stroke-linecap: square"/>
   </g>
   <g id="line2d_21">
    <path d="M 92.290909 124.078824 
L 96.349091 124.080336 
L 100.407273 124.086384 
L 104.465455 124.096968 
L 108.523636 124.116624 
L 112.581818 124.149888 
L 116.64 124.20432 
L 120.698182 124.290504 
L 124.756364 124.422048 
L 128.814545 124.62012 
L 132.872727 124.905888 
L 136.930909 125.305056 
L 140.989091 125.826696 
L 145.047273 126.470808 
L 149.105455 127.222272 
L 153.163636 128.056896 
L 157.221818 128.953512 
L 161.28 129.893976 
L 165.338182 130.86468 
L 169.396364 131.85504 
L 173.454545 132.857496 
L 177.512727 133.866 
L 181.570909 134.87904 
L 185.629091 135.890568 
L 189.687273 136.899072 
L 193.745455 137.904552 
L 197.803636 138.902472 
L 201.861818 139.892832 
L 205.92 140.875632 
L 209.978182 141.846336 
L 214.036364 142.806456 
L 218.094545 143.752968 
L 222.152727 144.685872 
L 226.210909 145.600632 
L 230.269091 146.49876 
L 234.327273 147.374208 
L 238.385455 148.223952 
L 242.443636 149.047992 
L 246.501818 149.838768 
L 250.56 150.593256 
L 254.618182 151.303896 
L 258.676364 151.966152 
L 262.734545 152.570952 
L 266.792727 153.112248 
L 270.850909 153.580968 
L 274.909091 153.969552 
L 278.967273 154.274976 
L 283.025455 154.494216 
L 287.083636 154.627272 
L 291.141818 154.677168 
L 295.2 154.649952 
L 299.258182 154.554696 
L 303.316364 154.400472 
L 307.374545 154.19484 
L 311.432727 153.948384 
L 315.490909 153.670176 
L 319.549091 153.369288 
L 323.607273 153.05328 
L 327.665455 152.732736 
L 331.723636 152.421264 
L 335.781818 152.137008 
L 339.84 151.91172 
L 343.898182 151.787736 
L 347.956364 151.801344 
L 352.014545 151.946496 
L 356.072727 152.179344 
L 360.130909 152.454528 
L 364.189091 152.74332 
L 368.247273 153.0306 
L 372.305455 153.308808 
L 376.363636 153.570384 
L 380.421818 153.815328 
L 384.48 154.040616 
L 388.538182 154.244736 
L 392.596364 154.4292 
L 396.654545 154.592496 
L 400.712727 154.736136 
L 404.770909 154.858608 
L 408.829091 154.962936 
L 412.887273 155.047608 
L 416.945455 155.114136 
L 421.003636 155.164032 
L 425.061818 155.198808 
L 429.12 155.219976 
L 433.178182 155.229048 
L 437.236364 155.226024 
L 441.294545 155.21544 
L 445.352727 155.195784 
L 449.410909 155.171592 
L 453.469091 155.144376 
L 457.527273 155.115648 
L 461.585455 155.08692 
L 465.643636 155.059704 
L 469.701818 155.035512 
L 473.76 155.014344 
L 477.818182 154.997712 
L 481.876364 154.984104 
L 485.934545 154.97352 
L 489.992727 154.967472 
L 494.050909 154.964448 
L 498.109091 154.962936 
" clip-path="url(#p932941423b)" style="fill: none; stroke: #000000; stroke-opacity: 0.5; stroke-linecap: square"/>
   </g>
   <g id="line2d_22">
    <path d="M 92.290909 111.024216 
L 96.349091 111.196584 
L 100.407273 111.672864 
L 104.465455 112.363848 
L 108.523636 113.183352 
L 112.581818 114.070896 
L 116.64 114.984144 
L 120.698182 115.889832 
L 124.756364 116.759232 
L 128.814545 117.563616 
L 132.872727 118.272744 
L 136.930909 118.862424 
L 140.989091 119.313 
L 145.047273 119.627496 
L 149.105455 119.81952 
L 153.163636 119.907216 
L 157.221818 119.914776 
L 161.28 119.858832 
L 165.338182 119.75148 
L 169.396364 119.603304 
L 173.454545 119.421864 
L 177.512727 119.210184 
L 181.570909 118.9728 
L 185.629091 118.714248 
L 189.687273 118.43604 
L 193.745455 118.145736 
L 197.803636 117.964296 
L 201.861818 118.915344 
L 205.92 120.100752 
L 209.978182 121.28616 
L 214.036364 122.464008 
L 218.094545 123.631272 
L 222.152727 124.784928 
L 226.210909 125.924976 
L 230.269091 127.051416 
L 234.327273 128.162736 
L 238.385455 129.257424 
L 242.443636 130.33548 
L 246.501818 131.395392 
L 250.56 132.438672 
L 254.618182 133.460784 
L 258.676364 134.46324 
L 262.734545 135.44604 
L 266.792727 136.407672 
L 270.850909 137.346624 
L 274.909091 138.262896 
L 278.967273 139.156488 
L 283.025455 140.0274 
L 287.083636 140.872608 
L 291.141818 141.692112 
L 295.2 142.487424 
L 299.258182 143.25552 
L 303.316364 143.9964 
L 307.374545 144.710064 
L 311.432727 145.395 
L 315.490909 146.049696 
L 319.549091 146.671128 
L 323.607273 147.257784 
L 327.665455 147.803616 
L 331.723636 148.299552 
L 335.781818 148.730472 
L 339.84 149.070672 
L 343.898182 149.277816 
L 347.956364 149.31864 
L 352.014545 149.202216 
L 356.072727 148.975416 
L 360.130909 148.682088 
L 364.189091 148.353984 
L 368.247273 148.009248 
L 372.305455 147.65544 
L 376.363636 147.298608 
L 380.421818 146.943288 
L 384.48 146.592504 
L 388.538182 146.246256 
L 392.596364 145.907568 
L 396.654545 145.57644 
L 400.712727 145.252872 
L 404.770909 144.938376 
L 408.829091 144.63144 
L 412.887273 144.332064 
L 416.945455 144.04176 
L 421.003636 143.760528 
L 425.061818 143.485344 
L 429.12 143.219232 
L 433.178182 142.959168 
L 437.236364 142.706664 
L 441.294545 142.46172 
L 445.352727 142.222824 
L 449.410909 141.993 
L 453.469091 141.769224 
L 457.527273 141.556032 
L 461.585455 141.3504 
L 465.643636 141.156864 
L 469.701818 140.976936 
L 473.76 140.812128 
L 477.818182 140.665464 
L 481.876364 140.539968 
L 485.934545 140.438664 
L 489.992727 140.364576 
L 494.050909 140.317704 
L 498.109091 140.302584 
" clip-path="url(#p932941423b)" style="fill: none; stroke: #000000; stroke-opacity: 0.5; stroke-linecap: square"/>
   </g>
   <g id="line2d_23">
    <path d="M 92.290909 102.906288 
L 96.349091 102.72636 
L 100.407273 102.230424 
L 104.465455 101.513736 
L 108.523636 100.665504 
L 112.581818 99.771912 
L 116.64 98.913096 
L 120.698182 98.214552 
L 124.756364 97.85772 
L 128.814545 98.00136 
L 132.872727 98.600112 
L 136.930909 99.481608 
L 140.989091 100.520352 
L 145.047273 101.64528 
L 149.105455 102.821616 
L 153.163636 104.029704 
L 157.221818 105.255936 
L 161.28 106.495776 
L 165.338182 107.741664 
L 169.396364 108.990576 
L 173.454545 110.241 
L 177.512727 111.4884 
L 181.570909 112.732776 
L 185.629091 113.972616 
L 189.687273 115.203384 
L 193.745455 116.419032 
L 197.803636 117.500112 
L 201.861818 117.418464 
L 205.92 117.078264 
L 209.978182 116.707824 
L 214.036364 116.317728 
L 218.094545 115.911 
L 222.152727 115.486128 
L 226.210909 115.044624 
L 230.269091 114.588 
L 234.327273 114.113232 
L 238.385455 113.623344 
L 242.443636 113.118336 
L 246.501818 112.595184 
L 250.56 112.056912 
L 254.618182 111.50352 
L 258.676364 110.933496 
L 262.734545 110.345328 
L 266.792727 109.743552 
L 270.850909 109.123632 
L 274.909091 108.48708 
L 278.967273 107.835408 
L 283.025455 107.165592 
L 287.083636 106.480656 
L 291.141818 105.777576 
L 295.2 105.059376 
L 299.258182 104.323032 
L 303.316364 103.571568 
L 307.374545 102.80196 
L 311.432727 102.017232 
L 315.490909 101.217384 
L 319.549091 100.400904 
L 323.607273 99.569304 
L 327.665455 98.725608 
L 331.723636 97.87284 
L 335.781818 97.014024 
L 339.84 96.167304 
L 343.898182 95.39316 
L 347.956364 95.054472 
L 352.014545 95.84676 
L 356.072727 97.097184 
L 360.130909 98.426232 
L 364.189091 99.767376 
L 368.247273 101.103984 
L 372.305455 102.430008 
L 376.363636 103.742424 
L 380.421818 105.038208 
L 384.48 106.315848 
L 388.538182 107.573832 
L 392.596364 108.81216 
L 396.654545 110.027808 
L 400.712727 111.219264 
L 404.770909 112.38804 
L 408.829091 113.531112 
L 412.887273 114.645456 
L 416.945455 115.732584 
L 421.003636 116.790984 
L 425.061818 117.81612 
L 429.12 118.809504 
L 433.178182 119.768112 
L 437.236364 120.690432 
L 441.294545 121.574952 
L 445.352727 122.417136 
L 449.410909 123.216984 
L 453.469091 123.972984 
L 457.527273 124.679088 
L 461.585455 125.335296 
L 465.643636 125.93556 
L 469.701818 126.47988 
L 473.76 126.962208 
L 477.818182 127.37952 
L 481.876364 127.72728 
L 485.934545 128.002464 
L 489.992727 128.202048 
L 494.050909 128.323008 
L 498.109091 128.36232 
" clip-path="url(#p932941423b)" style="fill: none; stroke: #000000; stroke-opacity: 0.5; stroke-linecap: square"/>
   </g>
   <g id="patch_3">
    <path d="M 72 384.48 
L 72 51.84 
" style="fill: none; stroke: #000000; stroke-width: 0.8; stroke-linejoin: miter; stroke-linecap: square"/>
   </g>
   <g id="patch_4">
    <path d="M 518.4 384.48 
L 518.4 51.84 
" style="fill: none; stroke: #000000; stroke-width: 0.8; stroke-linejoin: miter; stroke-linecap: square"/>
   </g>
   <g id="patch_5">
    <path d="M 72 384.48 
L 518.4 384.48 
" style="fill: none; stroke: #000000; stroke-width: 0.8; stroke-linejoin: miter; stroke-linecap: square"/>
   </g>
   <g id="patch_6">
    <path d="M 72 51.84 
L 518.4 51.84 
" style="fill: none; stroke: #000000; stroke-width: 0.8; stroke-linejoin: miter; stroke-linecap: square"/>
   </g>
  </g>
 </g>
 <defs>
  <clipPath id="p932941423b">
   <rect x="72" y="51.84" width="446.4" height="332.64"/>
  </clipPath>
 </defs>
</svg>
