<?xml version="1.0" encoding="utf-8" standalone="no"?>
<!DOCTYPE svg PUBLIC "-//W3C//DTD SVG 1.1//EN"
  "http://www.w3.org/Graphics/SVG/1.1/DTD/svg11.dtd">
<svg xmlns:xlink="http://www.w3.org/1999/xlink" width="576pt" height="432pt" viewBox="0 0 576 432" xmlns="http://www.w3.org/2000/svg" version="1.1">
 <metadata>
  <rdf:RDF xmlns:dc="http://purl.org/dc/elements/1.1/" xmlns:cc="http://creativecommons.org/ns#" xmlns:rdf="http://www.w3.org/1999/02/22-rdf-syntax-ns#">
   <cc:Work>
    <dc:type rdf:resource="http://purl.org/dc/dcmitype/StillImage"/>
    <dc:date>2023-05-02T23:26:10.160858</dc:date>
    <dc:format>image/svg+xml</dc:format>
    <dc:creator>
     <cc:Agent>
      <dc:title>Matplotlib v3.7.1, https://matplotlib.org/</dc:title>
     </cc:Agent>
    </dc:creator>
   </cc:Work>
  </rdf:RDF>
 </metadata>
 <defs>
  <style type="text/css">*{stroke-linejoin: round; stroke-linecap: butt}</style>
 </defs>
 <g id="figure_1">
  <g id="patch_1">
   <path d="M 0 432 
L 576 432 
L 576 0 
L 0 0 
z
" style="fill: #ffffff"/>
  </g>
  <g id="axes_1">
   <g id="patch_2">
    <path d="M 72 384.48 
L 518.4 384.48 
L 518.4 51.84 
L 72 51.84 
z
" style="fill: #ffffff"/>
   </g>
   <g id="matplotlib.axis_1">
    <g id="xtick_1">
     <g id="line2d_1">
      <defs>
       <path id="m015ab620cc" d="M 0 0 
L 0 3.5 
" style="stroke: #000000; stroke-width: 0.8"/>
      </defs>
      <g>
       <use xlink:href="#m015ab620cc" x="92.290909" y="384.48" style="stroke: #000000; stroke-width: 0.8"/>
      </g>
     </g>
     <g id="text_1">
      <!-- 0.0 -->
      <g transform="translate(84.339347 399.078438) scale(0.1 -0.1)">
       <defs>
        <path id="DejaVuSans-30" d="M 2034 4250 
Q 1547 4250 1301 3770 
Q 1056 3291 1056 2328 
Q 1056 1369 1301 889 
Q 1547 409 2034 409 
Q 2525 409 2770 889 
Q 3016 1369 3016 2328 
Q 3016 3291 2770 3770 
Q 2525 4250 2034 4250 
z
M 2034 4750 
Q 2819 4750 3233 4129 
Q 3647 3509 3647 2328 
Q 3647 1150 3233 529 
Q 2819 -91 2034 -91 
Q 1250 -91 836 529 
Q 422 1150 422 2328 
Q 422 3509 836 4129 
Q 1250 4750 2034 4750 
z
" transform="scale(0.015625)"/>
        <path id="DejaVuSans-2e" d="M 684 794 
L 1344 794 
L 1344 0 
L 684 0 
L 684 794 
z
" transform="scale(0.015625)"/>
       </defs>
       <use xlink:href="#DejaVuSans-30"/>
       <use xlink:href="#DejaVuSans-2e" x="63.623047"/>
       <use xlink:href="#DejaVuSans-30" x="95.410156"/>
      </g>
     </g>
    </g>
    <g id="xtick_2">
     <g id="line2d_2">
      <g>
       <use xlink:href="#m015ab620cc" x="173.454545" y="384.48" style="stroke: #000000; stroke-width: 0.8"/>
      </g>
     </g>
     <g id="text_2">
      <!-- 0.2 -->
      <g transform="translate(165.502983 399.078438) scale(0.1 -0.1)">
       <defs>
        <path id="DejaVuSans-32" d="M 1228 531 
L 3431 531 
L 3431 0 
L 469 0 
L 469 531 
Q 828 903 1448 1529 
Q 2069 2156 2228 2338 
Q 2531 2678 2651 2914 
Q 2772 3150 2772 3378 
Q 2772 3750 2511 3984 
Q 2250 4219 1831 4219 
Q 1534 4219 1204 4116 
Q 875 4013 500 3803 
L 500 4441 
Q 881 4594 1212 4672 
Q 1544 4750 1819 4750 
Q 2544 4750 2975 4387 
Q 3406 4025 3406 3419 
Q 3406 3131 3298 2873 
Q 3191 2616 2906 2266 
Q 2828 2175 2409 1742 
Q 1991 1309 1228 531 
z
" transform="scale(0.015625)"/>
       </defs>
       <use xlink:href="#DejaVuSans-30"/>
       <use xlink:href="#DejaVuSans-2e" x="63.623047"/>
       <use xlink:href="#DejaVuSans-32" x="95.410156"/>
      </g>
     </g>
    </g>
    <g id="xtick_3">
     <g id="line2d_3">
      <g>
       <use xlink:href="#m015ab620cc" x="254.618182" y="384.48" style="stroke: #000000; stroke-width: 0.8"/>
      </g>
     </g>
     <g id="text_3">
      <!-- 0.4 -->
      <g transform="translate(246.666619 399.078438) scale(0.1 -0.1)">
       <defs>
        <path id="DejaVuSans-34" d="M 2419 4116 
L 825 1625 
L 2419 1625 
L 2419 4116 
z
M 2253 4666 
L 3047 4666 
L 3047 1625 
L 3713 1625 
L 3713 1100 
L 3047 1100 
L 3047 0 
L 2419 0 
L 2419 1100 
L 313 1100 
L 313 1709 
L 2253 4666 
z
" transform="scale(0.015625)"/>
       </defs>
       <use xlink:href="#DejaVuSans-30"/>
       <use xlink:href="#DejaVuSans-2e" x="63.623047"/>
       <use xlink:href="#DejaVuSans-34" x="95.410156"/>
      </g>
     </g>
    </g>
    <g id="xtick_4">
     <g id="line2d_4">
      <g>
       <use xlink:href="#m015ab620cc" x="335.781818" y="384.48" style="stroke: #000000; stroke-width: 0.8"/>
      </g>
     </g>
     <g id="text_4">
      <!-- 0.6 -->
      <g transform="translate(327.830256 399.078438) scale(0.1 -0.1)">
       <defs>
        <path id="DejaVuSans-36" d="M 2113 2584 
Q 1688 2584 1439 2293 
Q 1191 2003 1191 1497 
Q 1191 994 1439 701 
Q 1688 409 2113 409 
Q 2538 409 2786 701 
Q 3034 994 3034 1497 
Q 3034 2003 2786 2293 
Q 2538 2584 2113 2584 
z
M 3366 4563 
L 3366 3988 
Q 3128 4100 2886 4159 
Q 2644 4219 2406 4219 
Q 1781 4219 1451 3797 
Q 1122 3375 1075 2522 
Q 1259 2794 1537 2939 
Q 1816 3084 2150 3084 
Q 2853 3084 3261 2657 
Q 3669 2231 3669 1497 
Q 3669 778 3244 343 
Q 2819 -91 2113 -91 
Q 1303 -91 875 529 
Q 447 1150 447 2328 
Q 447 3434 972 4092 
Q 1497 4750 2381 4750 
Q 2619 4750 2861 4703 
Q 3103 4656 3366 4563 
z
" transform="scale(0.015625)"/>
       </defs>
       <use xlink:href="#DejaVuSans-30"/>
       <use xlink:href="#DejaVuSans-2e" x="63.623047"/>
       <use xlink:href="#DejaVuSans-36" x="95.410156"/>
      </g>
     </g>
    </g>
    <g id="xtick_5">
     <g id="line2d_5">
      <g>
       <use xlink:href="#m015ab620cc" x="416.945455" y="384.48" style="stroke: #000000; stroke-width: 0.8"/>
      </g>
     </g>
     <g id="text_5">
      <!-- 0.8 -->
      <g transform="translate(408.993892 399.078438) scale(0.1 -0.1)">
       <defs>
        <path id="DejaVuSans-38" d="M 2034 2216 
Q 1584 2216 1326 1975 
Q 1069 1734 1069 1313 
Q 1069 891 1326 650 
Q 1584 409 2034 409 
Q 2484 409 2743 651 
Q 3003 894 3003 1313 
Q 3003 1734 2745 1975 
Q 2488 2216 2034 2216 
z
M 1403 2484 
Q 997 2584 770 2862 
Q 544 3141 544 3541 
Q 544 4100 942 4425 
Q 1341 4750 2034 4750 
Q 2731 4750 3128 4425 
Q 3525 4100 3525 3541 
Q 3525 3141 3298 2862 
Q 3072 2584 2669 2484 
Q 3125 2378 3379 2068 
Q 3634 1759 3634 1313 
Q 3634 634 3220 271 
Q 2806 -91 2034 -91 
Q 1263 -91 848 271 
Q 434 634 434 1313 
Q 434 1759 690 2068 
Q 947 2378 1403 2484 
z
M 1172 3481 
Q 1172 3119 1398 2916 
Q 1625 2713 2034 2713 
Q 2441 2713 2670 2916 
Q 2900 3119 2900 3481 
Q 2900 3844 2670 4047 
Q 2441 4250 2034 4250 
Q 1625 4250 1398 4047 
Q 1172 3844 1172 3481 
z
" transform="scale(0.015625)"/>
       </defs>
       <use xlink:href="#DejaVuSans-30"/>
       <use xlink:href="#DejaVuSans-2e" x="63.623047"/>
       <use xlink:href="#DejaVuSans-38" x="95.410156"/>
      </g>
     </g>
    </g>
    <g id="xtick_6">
     <g id="line2d_6">
      <g>
       <use xlink:href="#m015ab620cc" x="498.109091" y="384.48" style="stroke: #000000; stroke-width: 0.8"/>
      </g>
     </g>
     <g id="text_6">
      <!-- 1.0 -->
      <g transform="translate(490.157528 399.078438) scale(0.1 -0.1)">
       <defs>
        <path id="DejaVuSans-31" d="M 794 531 
L 1825 531 
L 1825 4091 
L 703 3866 
L 703 4441 
L 1819 4666 
L 2450 4666 
L 2450 531 
L 3481 531 
L 3481 0 
L 794 0 
L 794 531 
z
" transform="scale(0.015625)"/>
       </defs>
       <use xlink:href="#DejaVuSans-31"/>
       <use xlink:href="#DejaVuSans-2e" x="63.623047"/>
       <use xlink:href="#DejaVuSans-30" x="95.410156"/>
      </g>
     </g>
    </g>
   </g>
   <g id="matplotlib.axis_2">
    <g id="ytick_1">
     <g id="line2d_7">
      <defs>
       <path id="mc429a85624" d="M 0 0 
L -3.5 0 
" style="stroke: #000000; stroke-width: 0.8"/>
      </defs>
      <g>
       <use xlink:href="#mc429a85624" x="72" y="369.36" style="stroke: #000000; stroke-width: 0.8"/>
      </g>
     </g>
     <g id="text_7">
      <!-- −5.0 -->
      <g transform="translate(40.717187 373.159219) scale(0.1 -0.1)">
       <defs>
        <path id="DejaVuSans-2212" d="M 678 2272 
L 4684 2272 
L 4684 1741 
L 678 1741 
L 678 2272 
z
" transform="scale(0.015625)"/>
        <path id="DejaVuSans-35" d="M 691 4666 
L 3169 4666 
L 3169 4134 
L 1269 4134 
L 1269 2991 
Q 1406 3038 1543 3061 
Q 1681 3084 1819 3084 
Q 2600 3084 3056 2656 
Q 3513 2228 3513 1497 
Q 3513 744 3044 326 
Q 2575 -91 1722 -91 
Q 1428 -91 1123 -41 
Q 819 9 494 109 
L 494 744 
Q 775 591 1075 516 
Q 1375 441 1709 441 
Q 2250 441 2565 725 
Q 2881 1009 2881 1497 
Q 2881 1984 2565 2268 
Q 2250 2553 1709 2553 
Q 1456 2553 1204 2497 
Q 953 2441 691 2322 
L 691 4666 
z
" transform="scale(0.015625)"/>
       </defs>
       <use xlink:href="#DejaVuSans-2212"/>
       <use xlink:href="#DejaVuSans-35" x="83.789062"/>
       <use xlink:href="#DejaVuSans-2e" x="147.412109"/>
       <use xlink:href="#DejaVuSans-30" x="179.199219"/>
      </g>
     </g>
    </g>
    <g id="ytick_2">
     <g id="line2d_8">
      <g>
       <use xlink:href="#mc429a85624" x="72" y="331.56" style="stroke: #000000; stroke-width: 0.8"/>
      </g>
     </g>
     <g id="text_8">
      <!-- −2.5 -->
      <g transform="translate(40.717187 335.359219) scale(0.1 -0.1)">
       <use xlink:href="#DejaVuSans-2212"/>
       <use xlink:href="#DejaVuSans-32" x="83.789062"/>
       <use xlink:href="#DejaVuSans-2e" x="147.412109"/>
       <use xlink:href="#DejaVuSans-35" x="179.199219"/>
      </g>
     </g>
    </g>
    <g id="ytick_3">
     <g id="line2d_9">
      <g>
       <use xlink:href="#mc429a85624" x="72" y="293.76" style="stroke: #000000; stroke-width: 0.8"/>
      </g>
     </g>
     <g id="text_9">
      <!-- 0.0 -->
      <g transform="translate(49.096875 297.559219) scale(0.1 -0.1)">
       <use xlink:href="#DejaVuSans-30"/>
       <use xlink:href="#DejaVuSans-2e" x="63.623047"/>
       <use xlink:href="#DejaVuSans-30" x="95.410156"/>
      </g>
     </g>
    </g>
    <g id="ytick_4">
     <g id="line2d_10">
      <g>
       <use xlink:href="#mc429a85624" x="72" y="255.96" style="stroke: #000000; stroke-width: 0.8"/>
      </g>
     </g>
     <g id="text_10">
      <!-- 2.5 -->
      <g transform="translate(49.096875 259.759219) scale(0.1 -0.1)">
       <use xlink:href="#DejaVuSans-32"/>
       <use xlink:href="#DejaVuSans-2e" x="63.623047"/>
       <use xlink:href="#DejaVuSans-35" x="95.410156"/>
      </g>
     </g>
    </g>
    <g id="ytick_5">
     <g id="line2d_11">
      <g>
       <use xlink:href="#mc429a85624" x="72" y="218.16" style="stroke: #000000; stroke-width: 0.8"/>
      </g>
     </g>
     <g id="text_11">
      <!-- 5.0 -->
      <g transform="translate(49.096875 221.959219) scale(0.1 -0.1)">
       <use xlink:href="#DejaVuSans-35"/>
       <use xlink:href="#DejaVuSans-2e" x="63.623047"/>
       <use xlink:href="#DejaVuSans-30" x="95.410156"/>
      </g>
     </g>
    </g>
    <g id="ytick_6">
     <g id="line2d_12">
      <g>
       <use xlink:href="#mc429a85624" x="72" y="180.36" style="stroke: #000000; stroke-width: 0.8"/>
      </g>
     </g>
     <g id="text_12">
      <!-- 7.5 -->
      <g transform="translate(49.096875 184.159219) scale(0.1 -0.1)">
       <defs>
        <path id="DejaVuSans-37" d="M 525 4666 
L 3525 4666 
L 3525 4397 
L 1831 0 
L 1172 0 
L 2766 4134 
L 525 4134 
L 525 4666 
z
" transform="scale(0.015625)"/>
       </defs>
       <use xlink:href="#DejaVuSans-37"/>
       <use xlink:href="#DejaVuSans-2e" x="63.623047"/>
       <use xlink:href="#DejaVuSans-35" x="95.410156"/>
      </g>
     </g>
    </g>
    <g id="ytick_7">
     <g id="line2d_13">
      <g>
       <use xlink:href="#mc429a85624" x="72" y="142.56" style="stroke: #000000; stroke-width: 0.8"/>
      </g>
     </g>
     <g id="text_13">
      <!-- 10.0 -->
      <g transform="translate(42.734375 146.359219) scale(0.1 -0.1)">
       <use xlink:href="#DejaVuSans-31"/>
       <use xlink:href="#DejaVuSans-30" x="63.623047"/>
       <use xlink:href="#DejaVuSans-2e" x="127.246094"/>
       <use xlink:href="#DejaVuSans-30" x="159.033203"/>
      </g>
     </g>
    </g>
    <g id="ytick_8">
     <g id="line2d_14">
      <g>
       <use xlink:href="#mc429a85624" x="72" y="104.76" style="stroke: #000000; stroke-width: 0.8"/>
      </g>
     </g>
     <g id="text_14">
      <!-- 12.5 -->
      <g transform="translate(42.734375 108.559219) scale(0.1 -0.1)">
       <use xlink:href="#DejaVuSans-31"/>
       <use xlink:href="#DejaVuSans-32" x="63.623047"/>
       <use xlink:href="#DejaVuSans-2e" x="127.246094"/>
       <use xlink:href="#DejaVuSans-35" x="159.033203"/>
      </g>
     </g>
    </g>
    <g id="ytick_9">
     <g id="line2d_15">
      <g>
       <use xlink:href="#mc429a85624" x="72" y="66.96" style="stroke: #000000; stroke-width: 0.8"/>
      </g>
     </g>
     <g id="text_15">
      <!-- 15.0 -->
      <g transform="translate(42.734375 70.759219) scale(0.1 -0.1)">
       <use xlink:href="#DejaVuSans-31"/>
       <use xlink:href="#DejaVuSans-35" x="63.623047"/>
       <use xlink:href="#DejaVuSans-2e" x="127.246094"/>
       <use xlink:href="#DejaVuSans-30" x="159.033203"/>
      </g>
     </g>
    </g>
   </g>
   <g id="line2d_16">
    <path d="M 92.290909 376.346952 
L 96.349091 376.340904 
L 100.407273 376.32276 
L 104.465455 376.291008 
L 108.523636 376.24716 
L 112.581818 376.191216 
L 116.64 376.121664 
L 120.698182 376.040016 
L 124.756364 375.946272 
L 128.814545 375.83892 
L 132.872727 375.719472 
L 136.930909 375.587928 
L 140.989091 375.444288 
L 145.047273 375.28704 
L 149.105455 375.117696 
L 153.163636 374.936256 
L 157.221818 374.74272 
L 161.28 374.535576 
L 165.338182 374.316336 
L 169.396364 374.085 
L 173.454545 373.841568 
L 177.512727 373.58604 
L 181.570909 373.316904 
L 185.629091 373.035672 
L 189.687273 372.743856 
L 193.745455 372.438432 
L 197.803636 372.120912 
L 201.861818 371.791296 
L 205.92 371.449584 
L 209.978182 371.095776 
L 214.036364 370.729872 
L 218.094545 370.351872 
L 222.152727 369.961776 
L 226.210909 369.559584 
L 230.269091 369.145296 
L 234.327273 368.718912 
L 238.385455 368.280432 
L 242.443636 367.831368 
L 246.501818 367.370208 
L 250.56 366.896952 
L 254.618182 366.4116 
L 258.676364 365.915664 
L 262.734545 365.407632 
L 266.792727 364.887504 
L 270.850909 364.356792 
L 274.909091 363.815496 
L 278.967273 363.262104 
L 283.025455 362.696616 
L 287.083636 362.120544 
L 291.141818 361.533888 
L 295.2 360.935136 
L 299.258182 360.3258 
L 303.316364 359.70588 
L 307.374545 359.075376 
L 311.432727 358.434288 
L 315.490909 357.781104 
L 319.549091 357.118848 
L 323.607273 356.446008 
L 327.665455 355.762584 
L 331.723636 355.068576 
L 335.781818 354.365496 
L 339.84 353.651832 
L 343.898182 352.929096 
L 347.956364 352.195776 
L 352.014545 351.453384 
L 356.072727 350.700408 
L 360.130909 349.939872 
L 364.189091 349.168752 
L 368.247273 348.390072 
L 372.305455 347.600808 
L 376.363636 346.803984 
L 380.421818 345.9996 
L 384.48 345.184632 
L 388.538182 344.363616 
L 392.596364 343.53504 
L 396.654545 342.697392 
L 400.712727 341.853696 
L 404.770909 341.003952 
L 408.829091 340.145136 
L 412.887273 339.281784 
L 416.945455 338.412384 
L 421.003636 337.538448 
L 425.061818 336.658464 
L 429.12 335.773944 
L 433.178182 334.8864 
L 437.236364 333.995832 
L 441.294545 333.103752 
L 445.352727 332.21016 
L 449.410909 331.31808 
L 453.469091 330.427512 
L 457.527273 329.54148 
L 461.585455 328.663008 
L 465.643636 327.796632 
L 469.701818 326.9484 
L 473.76 326.125872 
L 477.818182 325.341144 
L 481.876364 324.613872 
L 485.934545 323.96976 
L 489.992727 323.451144 
L 494.050909 323.106408 
L 498.109091 322.985448 
" clip-path="url(#p8a053ab6b7)" style="fill: none; stroke: #000000; stroke-opacity: 0.5; stroke-linecap: square"/>
   </g>
   <g id="line2d_17">
    <path d="M 92.290909 232.7508 
L 96.349091 232.824888 
L 100.407273 233.042616 
L 104.465455 233.391888 
L 108.523636 233.85456 
L 112.581818 234.412488 
L 116.64 235.04904 
L 120.698182 235.746072 
L 124.756364 236.494512 
L 128.814545 237.280752 
L 132.872727 238.100256 
L 136.930909 238.94244 
L 140.989091 239.805792 
L 145.047273 240.684264 
L 149.105455 241.574832 
L 153.163636 242.475984 
L 157.221818 243.383184 
L 161.28 244.296432 
L 165.338182 245.214216 
L 169.396364 246.133512 
L 173.454545 247.055832 
L 177.512727 247.97664 
L 181.570909 248.89896 
L 185.629091 249.819768 
L 189.687273 250.740576 
L 193.745455 251.65836 
L 197.803636 252.57312 
L 201.861818 253.486368 
L 205.92 254.396592 
L 209.978182 255.303792 
L 214.036364 256.206456 
L 218.094545 257.106096 
L 222.152727 258.002712 
L 226.210909 258.894792 
L 230.269091 259.783848 
L 234.327273 260.668368 
L 238.385455 261.548352 
L 242.443636 262.425312 
L 246.501818 263.297736 
L 250.56 264.167136 
L 254.618182 265.032 
L 258.676364 265.89384 
L 262.734545 266.751144 
L 266.792727 267.605424 
L 270.850909 268.45668 
L 274.909091 269.306424 
L 278.967273 270.151632 
L 283.025455 270.993816 
L 287.083636 271.834488 
L 291.141818 272.673648 
L 295.2 273.509784 
L 299.258182 274.34592 
L 303.316364 275.179032 
L 307.374545 276.012144 
L 311.432727 276.845256 
L 315.490909 277.676856 
L 319.549091 278.509968 
L 323.607273 279.34308 
L 327.665455 280.176192 
L 331.723636 281.010816 
L 335.781818 281.848464 
L 339.84 282.686112 
L 343.898182 283.526784 
L 347.956364 284.37048 
L 352.014545 285.2172 
L 356.072727 286.065432 
L 360.130909 286.9182 
L 364.189091 287.775504 
L 368.247273 288.637344 
L 372.305455 289.502208 
L 376.363636 290.371608 
L 380.421818 291.245544 
L 384.48 292.125528 
L 388.538182 293.008536 
L 392.596364 293.897592 
L 396.654545 294.791184 
L 400.712727 295.689312 
L 404.770909 296.591976 
L 408.829091 297.499176 
L 412.887273 298.410912 
L 416.945455 299.327184 
L 421.003636 300.244968 
L 425.061818 301.167288 
L 429.12 302.092632 
L 433.178182 303.017976 
L 437.236364 303.944832 
L 441.294545 304.8732 
L 445.352727 305.798544 
L 449.410909 306.722376 
L 453.469091 307.641672 
L 457.527273 308.55492 
L 461.585455 309.456072 
L 465.643636 310.345128 
L 469.701818 311.213016 
L 473.76 312.053688 
L 477.818182 312.852024 
L 481.876364 313.591392 
L 485.934545 314.244576 
L 489.992727 314.770752 
L 494.050909 315.118512 
L 498.109091 315.242496 
" clip-path="url(#p8a053ab6b7)" style="fill: none; stroke: #000000; stroke-opacity: 0.5; stroke-linecap: square"/>
   </g>
   <g id="line2d_18">
    <path d="M 92.290909 219.96684 
L 96.349091 219.903336 
L 100.407273 219.720384 
L 104.465455 219.43008 
L 108.523636 219.049056 
L 112.581818 218.601504 
L 116.64 218.104056 
L 120.698182 217.576368 
L 124.756364 217.035072 
L 128.814545 216.495288 
L 132.872727 215.970624 
L 136.930909 215.480736 
L 140.989091 215.04528 
L 145.047273 214.688448 
L 149.105455 214.445016 
L 153.163636 214.352784 
L 157.221818 214.42536 
L 161.28 214.647624 
L 165.338182 214.986312 
L 169.396364 215.403624 
L 173.454545 215.875368 
L 177.512727 216.387936 
L 181.570909 216.929232 
L 185.629091 217.493208 
L 189.687273 218.075328 
L 193.745455 218.67408 
L 197.803636 219.284928 
L 201.861818 219.907872 
L 205.92 220.538376 
L 209.978182 221.179464 
L 214.036364 221.8266 
L 218.094545 222.481296 
L 222.152727 223.14204 
L 226.210909 223.808832 
L 230.269091 224.481672 
L 234.327273 225.159048 
L 238.385455 225.842472 
L 242.443636 226.530432 
L 246.501818 227.222928 
L 250.56 227.921472 
L 254.618182 228.626064 
L 258.676364 229.336704 
L 262.734545 230.053392 
L 266.792727 230.77764 
L 270.850909 231.507936 
L 274.909091 232.245792 
L 278.967273 232.991208 
L 283.025455 233.744184 
L 287.083636 234.506232 
L 291.141818 235.274328 
L 295.2 236.051496 
L 299.258182 236.834712 
L 303.316364 237.623976 
L 307.374545 238.419288 
L 311.432727 239.220648 
L 315.490909 240.025032 
L 319.549091 240.83244 
L 323.607273 241.639848 
L 327.665455 242.448768 
L 331.723636 243.256176 
L 335.781818 244.059048 
L 339.84 244.858896 
L 343.898182 245.652696 
L 347.956364 246.438936 
L 352.014545 247.217616 
L 356.072727 247.985712 
L 360.130909 248.743224 
L 364.189091 249.487128 
L 368.247273 250.218936 
L 372.305455 250.935624 
L 376.363636 251.63568 
L 380.421818 252.319104 
L 384.48 252.985896 
L 388.538182 253.634544 
L 392.596364 254.263536 
L 396.654545 254.872872 
L 400.712727 255.46104 
L 404.770909 256.02804 
L 408.829091 256.573872 
L 412.887273 257.097024 
L 416.945455 257.599008 
L 421.003636 258.0768 
L 425.061818 258.531912 
L 429.12 258.962832 
L 433.178182 259.36956 
L 437.236364 259.753608 
L 441.294545 260.111952 
L 445.352727 260.447616 
L 449.410909 260.757576 
L 453.469091 261.043344 
L 457.527273 261.303408 
L 461.585455 261.540792 
L 465.643636 261.75096 
L 469.701818 261.938448 
L 473.76 262.100232 
L 477.818182 262.236312 
L 481.876364 262.3482 
L 485.934545 262.435896 
L 489.992727 262.497888 
L 494.050909 262.535688 
L 498.109091 262.547784 
" clip-path="url(#p8a053ab6b7)" style="fill: none; stroke: #000000; stroke-opacity: 0.5; stroke-linecap: square"/>
   </g>
   <g id="line2d_19">
    <path d="M 92.290909 208.374336 
L 96.349091 208.39248 
L 100.407273 208.449936 
L 104.465455 208.542168 
L 108.523636 208.6722 
L 112.581818 208.835496 
L 116.64 209.030544 
L 120.698182 209.255832 
L 124.756364 209.508336 
L 128.814545 209.782008 
L 132.872727 210.072312 
L 136.930909 210.367152 
L 140.989091 210.657456 
L 145.047273 210.919032 
L 149.105455 211.123152 
L 153.163636 211.2426 
L 157.221818 211.260744 
L 161.28 211.198752 
L 165.338182 211.095936 
L 169.396364 210.990096 
L 173.454545 210.906936 
L 177.512727 210.8646 
L 181.570909 210.873672 
L 185.629091 210.9402 
L 189.687273 211.067208 
L 193.745455 211.256208 
L 197.803636 211.5072 
L 201.861818 211.818672 
L 205.92 212.1876 
L 209.978182 212.612472 
L 214.036364 213.088752 
L 218.094545 213.610392 
L 222.152727 214.177392 
L 226.210909 214.782192 
L 230.269091 215.420256 
L 234.327273 216.090072 
L 238.385455 216.785592 
L 242.443636 217.503792 
L 246.501818 218.238624 
L 250.56 218.990088 
L 254.618182 219.750624 
L 258.676364 220.520232 
L 262.734545 221.294376 
L 266.792727 222.06852 
L 270.850909 222.842664 
L 274.909091 223.612272 
L 278.967273 224.375832 
L 283.025455 225.131832 
L 287.083636 225.875736 
L 291.141818 226.607544 
L 295.2 227.324232 
L 299.258182 228.027312 
L 303.316364 228.71376 
L 307.374545 229.383576 
L 311.432727 230.035248 
L 315.490909 230.670288 
L 319.549091 231.287184 
L 323.607273 231.884424 
L 327.665455 232.465032 
L 331.723636 233.029008 
L 335.781818 233.57484 
L 339.84 234.102528 
L 343.898182 234.615096 
L 347.956364 235.10952 
L 352.014545 235.588824 
L 356.072727 236.053008 
L 360.130909 236.50056 
L 364.189091 236.934504 
L 368.247273 237.351816 
L 372.305455 237.75552 
L 376.363636 238.145616 
L 380.421818 238.520592 
L 384.48 238.88196 
L 388.538182 239.22972 
L 392.596364 239.56236 
L 396.654545 239.882904 
L 400.712727 240.191352 
L 404.770909 240.48468 
L 408.829091 240.765912 
L 412.887273 241.033536 
L 416.945455 241.289064 
L 421.003636 241.532496 
L 425.061818 241.76232 
L 429.12 241.978536 
L 433.178182 242.182656 
L 437.236364 242.37468 
L 441.294545 242.554608 
L 445.352727 242.720928 
L 449.410909 242.875152 
L 453.469091 243.01728 
L 457.527273 243.147312 
L 461.585455 243.263736 
L 465.643636 243.369576 
L 469.701818 243.461808 
L 473.76 243.541944 
L 477.818182 243.608472 
L 481.876364 243.664416 
L 485.934545 243.708264 
L 489.992727 243.738504 
L 494.050909 243.756648 
L 498.109091 243.762696 
" clip-path="url(#p8a053ab6b7)" style="fill: none; stroke: #000000; stroke-opacity: 0.5; stroke-linecap: square"/>
   </g>
   <g id="line2d_20">
    <path d="M 92.290909 165.244536 
L 96.349091 165.243024 
L 100.407273 165.24 
L 104.465455 165.24 
L 108.523636 165.253608 
L 112.581818 165.29292 
L 116.64 165.373056 
L 120.698182 165.510648 
L 124.756364 165.711744 
L 128.814545 165.982392 
L 132.872727 166.308984 
L 136.930909 166.680936 
L 140.989091 167.078592 
L 145.047273 167.48532 
L 149.105455 167.886 
L 153.163636 168.267024 
L 157.221818 168.61932 
L 161.28 168.933816 
L 165.338182 169.202952 
L 169.396364 169.422192 
L 173.454545 169.583976 
L 177.512727 169.689816 
L 181.570909 169.733664 
L 185.629091 169.720056 
L 189.687273 169.64748 
L 193.745455 169.51896 
L 197.803636 169.342056 
L 201.861818 169.121304 
L 205.92 168.864264 
L 209.978182 168.583032 
L 214.036364 168.28668 
L 218.094545 167.99184 
L 222.152727 167.710608 
L 226.210909 167.458104 
L 230.269091 167.252472 
L 234.327273 167.102784 
L 238.385455 167.021136 
L 242.443636 167.010552 
L 246.501818 167.071032 
L 250.56 167.199552 
L 254.618182 167.388552 
L 258.676364 167.631984 
L 262.734545 167.922288 
L 266.792727 168.250392 
L 270.850909 168.610248 
L 274.909091 168.995808 
L 278.967273 169.402536 
L 283.025455 169.827408 
L 287.083636 170.265888 
L 291.141818 170.71344 
L 295.2 171.171576 
L 299.258182 171.634248 
L 303.316364 172.102968 
L 307.374545 172.5732 
L 311.432727 173.044944 
L 315.490909 173.5182 
L 319.549091 173.988432 
L 323.607273 174.458664 
L 327.665455 174.92436 
L 331.723636 175.387032 
L 335.781818 175.84668 
L 339.84 176.30028 
L 343.898182 176.747832 
L 347.956364 177.189336 
L 352.014545 177.624792 
L 356.072727 178.052688 
L 360.130909 178.473024 
L 364.189091 178.884288 
L 368.247273 179.287992 
L 372.305455 179.682624 
L 376.363636 180.066672 
L 380.421818 180.44316 
L 384.48 180.807552 
L 388.538182 181.162872 
L 392.596364 181.507608 
L 396.654545 181.840248 
L 400.712727 182.163816 
L 404.770909 182.473776 
L 408.829091 182.773152 
L 412.887273 183.060432 
L 416.945455 183.335616 
L 421.003636 183.598704 
L 425.061818 183.849696 
L 429.12 184.08708 
L 433.178182 184.312368 
L 437.236364 184.524048 
L 441.294545 184.723632 
L 445.352727 184.909608 
L 449.410909 185.081976 
L 453.469091 185.240736 
L 457.527273 185.3874 
L 461.585455 185.518944 
L 465.643636 185.63688 
L 469.701818 185.741208 
L 473.76 185.831928 
L 477.818182 185.90904 
L 481.876364 185.972544 
L 485.934545 186.020928 
L 489.992727 186.055704 
L 494.050909 186.076872 
L 498.109091 186.084432 
" clip-path="url(#p8a053ab6b7)" style="fill: none; stroke: #000000; stroke-opacity: 0.5; stroke-linecap: square"/>
   </g>
   <g id="line2d_21">
    <path d="M 92.290909 158.461704 
L 96.349091 158.525208 
L 100.407273 158.703624 
L 104.465455 158.963688 
L 108.523636 159.264576 
L 112.581818 159.565464 
L 116.64 159.830064 
L 120.698182 160.029648 
L 124.756364 160.141536 
L 128.814545 160.155144 
L 132.872727 160.071984 
L 136.930909 159.901128 
L 140.989091 159.656184 
L 145.047273 159.35076 
L 149.105455 158.99544 
L 153.163636 158.603832 
L 157.221818 158.183496 
L 161.28 157.746528 
L 165.338182 157.306536 
L 169.396364 156.875616 
L 173.454545 156.471912 
L 177.512727 156.121128 
L 181.570909 155.844432 
L 185.629091 155.66148 
L 189.687273 155.573784 
L 193.745455 155.572272 
L 197.803636 155.632752 
L 201.861818 155.734056 
L 205.92 155.855016 
L 209.978182 155.977488 
L 214.036364 156.08484 
L 218.094545 156.16044 
L 222.152727 156.19068 
L 226.210909 156.158928 
L 230.269091 156.051576 
L 234.327273 155.85804 
L 238.385455 155.57076 
L 242.443636 155.186712 
L 246.501818 154.70892 
L 250.56 154.140408 
L 254.618182 153.49176 
L 258.676364 152.772048 
L 262.734545 151.990344 
L 266.792727 151.15572 
L 270.850909 150.277248 
L 274.909091 149.362488 
L 278.967273 148.417488 
L 283.025455 147.452832 
L 287.083636 146.473056 
L 291.141818 145.488744 
L 295.2 144.515016 
L 299.258182 143.574552 
L 303.316364 142.714224 
L 307.374545 142.029288 
L 311.432727 141.68304 
L 315.490909 141.769224 
L 319.549091 142.180488 
L 323.607273 142.758072 
L 327.665455 143.408232 
L 331.723636 144.08712 
L 335.781818 144.776592 
L 339.84 145.46304 
L 343.898182 146.141928 
L 347.956364 146.810232 
L 352.014545 147.463416 
L 356.072727 148.10148 
L 360.130909 148.722912 
L 364.189091 149.327712 
L 368.247273 149.914368 
L 372.305455 150.48288 
L 376.363636 151.033248 
L 380.421818 151.566984 
L 384.48 152.079552 
L 388.538182 152.575488 
L 392.596364 153.051768 
L 396.654545 153.509904 
L 400.712727 153.949896 
L 404.770909 154.371744 
L 408.829091 154.773936 
L 412.887273 155.157984 
L 416.945455 155.523888 
L 421.003636 155.871648 
L 425.061818 156.199752 
L 429.12 156.511224 
L 433.178182 156.80304 
L 437.236364 157.078224 
L 441.294545 157.335264 
L 445.352727 157.57416 
L 449.410909 157.7934 
L 453.469091 157.99752 
L 457.527273 158.181984 
L 461.585455 158.348304 
L 465.643636 158.497992 
L 469.701818 158.631048 
L 473.76 158.744448 
L 477.818182 158.841216 
L 481.876364 158.91984 
L 485.934545 158.981832 
L 489.992727 159.02568 
L 494.050909 159.051384 
L 498.109091 159.060456 
" clip-path="url(#p8a053ab6b7)" style="fill: none; stroke: #000000; stroke-opacity: 0.5; stroke-linecap: square"/>
   </g>
   <g id="line2d_22">
    <path d="M 92.290909 153.683784 
L 96.349091 153.630864 
L 100.407273 153.481176 
L 104.465455 153.26496 
L 108.523636 153.012456 
L 112.581818 152.746344 
L 116.64 152.489304 
L 120.698182 152.253432 
L 124.756364 152.046288 
L 128.814545 151.87392 
L 132.872727 151.73784 
L 136.930909 151.63956 
L 140.989091 151.577568 
L 145.047273 151.54884 
L 149.105455 151.550352 
L 153.163636 151.577568 
L 157.221818 151.622928 
L 161.28 151.678872 
L 165.338182 151.734816 
L 169.396364 151.77564 
L 173.454545 151.7832 
L 177.512727 151.734816 
L 181.570909 151.604784 
L 185.629091 151.370424 
L 189.687273 151.030224 
L 193.745455 150.58872 
L 197.803636 150.064056 
L 201.861818 149.475888 
L 205.92 148.837824 
L 209.978182 148.158936 
L 214.036364 147.449808 
L 218.094545 146.714976 
L 222.152727 145.958976 
L 226.210909 145.18332 
L 230.269091 144.391032 
L 234.327273 143.583624 
L 238.385455 142.762608 
L 242.443636 141.929496 
L 246.501818 141.084288 
L 250.56 140.228496 
L 254.618182 139.36212 
L 258.676364 138.488184 
L 262.734545 137.606688 
L 266.792727 136.72368 
L 270.850909 135.848232 
L 274.909091 135.001512 
L 278.967273 134.260632 
L 283.025455 133.891704 
L 287.083636 134.209224 
L 291.141818 134.889624 
L 295.2 135.644112 
L 299.258182 136.374408 
L 303.316364 137.012472 
L 307.374545 137.453976 
L 311.432727 137.535624 
L 315.490909 137.160648 
L 319.549091 136.437912 
L 323.607273 135.524664 
L 327.665455 134.514648 
L 331.723636 133.451712 
L 335.781818 132.355512 
L 339.84 131.239656 
L 343.898182 130.107168 
L 347.956364 128.965608 
L 352.014545 127.813464 
L 356.072727 126.655272 
L 360.130909 125.491032 
L 364.189091 124.322256 
L 368.247273 123.147432 
L 372.305455 121.969584 
L 376.363636 120.7872 
L 380.421818 119.60028 
L 384.48 118.408824 
L 388.538182 117.214344 
L 392.596364 116.01684 
L 396.654545 114.8148 
L 400.712727 113.608224 
L 404.770909 112.397112 
L 408.829091 111.182976 
L 412.887273 109.964304 
L 416.945455 108.742608 
L 421.003636 107.514864 
L 425.061818 106.284096 
L 429.12 105.050304 
L 433.178182 103.811976 
L 437.236364 102.569112 
L 441.294545 101.324736 
L 445.352727 100.077336 
L 449.410909 98.828424 
L 453.469091 97.579512 
L 457.527273 96.332112 
L 461.585455 95.087736 
L 465.643636 93.847896 
L 469.701818 92.620152 
L 473.76 91.410552 
L 477.818182 90.228168 
L 481.876364 89.094168 
L 485.934545 88.040304 
L 489.992727 87.13008 
L 494.050909 86.473872 
L 498.109091 86.225904 
" clip-path="url(#p8a053ab6b7)" style="fill: none; stroke: #000000; stroke-opacity: 0.5; stroke-linecap: square"/>
   </g>
   <g id="line2d_23">
    <path d="M 92.290909 130.699872 
L 96.349091 130.662072 
L 100.407273 130.548672 
L 104.465455 130.361184 
L 108.523636 130.099608 
L 112.581818 129.765456 
L 116.64 129.358728 
L 120.698182 128.88396 
L 124.756364 128.342664 
L 128.814545 127.737864 
L 132.872727 127.07712 
L 136.930909 126.360432 
L 140.989091 125.596872 
L 145.047273 124.790976 
L 149.105455 123.948792 
L 153.163636 123.076368 
L 157.221818 122.182776 
L 161.28 121.274064 
L 165.338182 120.362328 
L 169.396364 119.45664 
L 173.454545 118.573632 
L 177.512727 117.729936 
L 181.570909 116.948232 
L 185.629091 116.260272 
L 189.687273 115.69932 
L 193.745455 115.304688 
L 197.803636 115.111152 
L 201.861818 115.135344 
L 205.92 115.37424 
L 209.978182 115.80516 
L 214.036364 116.39484 
L 218.094545 117.106992 
L 222.152727 117.9144 
L 226.210909 118.789848 
L 230.269091 119.718216 
L 234.327273 120.68136 
L 238.385455 121.670208 
L 242.443636 122.6772 
L 246.501818 123.691752 
L 250.56 124.712352 
L 254.618182 125.729928 
L 258.676364 126.741456 
L 262.734545 127.740888 
L 266.792727 128.722176 
L 270.850909 129.673224 
L 274.909091 130.568328 
L 278.967273 131.330376 
L 283.025455 131.687208 
L 287.083636 131.319792 
L 291.141818 130.545648 
L 295.2 129.63996 
L 299.258182 128.681352 
L 303.316364 127.68948 
L 307.374545 126.677952 
L 311.432727 125.646768 
L 315.490909 124.598952 
L 319.549091 123.536016 
L 323.607273 122.459472 
L 327.665455 121.36932 
L 331.723636 120.26556 
L 335.781818 119.149704 
L 339.84 118.018728 
L 343.898182 116.877168 
L 347.956364 115.723512 
L 352.014545 114.556248 
L 356.072727 113.3784 
L 360.130909 112.189968 
L 364.189091 110.98944 
L 368.247273 109.778328 
L 372.305455 108.556632 
L 376.363636 107.325864 
L 380.421818 106.084512 
L 384.48 104.8356 
L 388.538182 103.577616 
L 392.596364 102.31056 
L 396.654545 101.037456 
L 400.712727 99.75528 
L 404.770909 98.468568 
L 408.829091 97.175808 
L 412.887273 95.877 
L 416.945455 94.575168 
L 421.003636 93.270312 
L 425.061818 91.962432 
L 429.12 90.656064 
L 433.178182 89.349696 
L 437.236364 88.047864 
L 441.294545 86.75208 
L 445.352727 85.468392 
L 449.410909 84.202848 
L 453.469091 82.96452 
L 457.527273 81.768528 
L 461.585455 80.639064 
L 465.643636 79.616952 
L 469.701818 78.770232 
L 473.76 78.204744 
L 477.818182 78.029352 
L 481.876364 78.259176 
L 485.934545 78.771744 
L 489.992727 79.379568 
L 494.050909 79.884576 
L 498.109091 80.085672 
" clip-path="url(#p8a053ab6b7)" style="fill: none; stroke: #000000; stroke-opacity: 0.5; stroke-linecap: square"/>
   </g>
   <g id="patch_3">
    <path d="M 72 384.48 
L 72 51.84 
" style="fill: none; stroke: #000000; stroke-width: 0.8; stroke-linejoin: miter; stroke-linecap: square"/>
   </g>
   <g id="patch_4">
    <path d="M 518.4 384.48 
L 518.4 51.84 
" style="fill: none; stroke: #000000; stroke-width: 0.8; stroke-linejoin: miter; stroke-linecap: square"/>
   </g>
   <g id="patch_5">
    <path d="M 72 384.48 
L 518.4 384.48 
" style="fill: none; stroke: #000000; stroke-width: 0.8; stroke-linejoin: miter; stroke-linecap: square"/>
   </g>
   <g id="patch_6">
    <path d="M 72 51.84 
L 518.4 51.84 
" style="fill: none; stroke: #000000; stroke-width: 0.8; stroke-linejoin: miter; stroke-linecap: square"/>
   </g>
  </g>
 </g>
 <defs>
  <clipPath id="p8a053ab6b7">
   <rect x="72" y="51.84" width="446.4" height="332.64"/>
  </clipPath>
 </defs>
</svg>
