<?xml version="1.0" encoding="utf-8" standalone="no"?>
<!DOCTYPE svg PUBLIC "-//W3C//DTD SVG 1.1//EN"
  "http://www.w3.org/Graphics/SVG/1.1/DTD/svg11.dtd">
<svg xmlns:xlink="http://www.w3.org/1999/xlink" width="576pt" height="432pt" viewBox="0 0 576 432" xmlns="http://www.w3.org/2000/svg" version="1.1">
 <metadata>
  <rdf:RDF xmlns:dc="http://purl.org/dc/elements/1.1/" xmlns:cc="http://creativecommons.org/ns#" xmlns:rdf="http://www.w3.org/1999/02/22-rdf-syntax-ns#">
   <cc:Work>
    <dc:type rdf:resource="http://purl.org/dc/dcmitype/StillImage"/>
    <dc:date>2023-05-03T08:59:45.296891</dc:date>
    <dc:format>image/svg+xml</dc:format>
    <dc:creator>
     <cc:Agent>
      <dc:title>Matplotlib v3.7.1, https://matplotlib.org/</dc:title>
     </cc:Agent>
    </dc:creator>
   </cc:Work>
  </rdf:RDF>
 </metadata>
 <defs>
  <style type="text/css">*{stroke-linejoin: round; stroke-linecap: butt}</style>
 </defs>
 <g id="figure_1">
  <g id="patch_1">
   <path d="M 0 432 
L 576 432 
L 576 0 
L 0 0 
z
" style="fill: #ffffff"/>
  </g>
  <g id="axes_1">
   <g id="patch_2">
    <path d="M 72 384.48 
L 518.4 384.48 
L 518.4 51.84 
L 72 51.84 
z
" style="fill: #ffffff"/>
   </g>
   <g id="matplotlib.axis_1">
    <g id="xtick_1">
     <g id="line2d_1">
      <defs>
       <path id="m00a96e0a0e" d="M 0 0 
L 0 3.5 
" style="stroke: #000000; stroke-width: 0.8"/>
      </defs>
      <g>
       <use xlink:href="#m00a96e0a0e" x="92.290909" y="384.48" style="stroke: #000000; stroke-width: 0.8"/>
      </g>
     </g>
     <g id="text_1">
      <!-- 0.0 -->
      <g transform="translate(84.339347 399.078438) scale(0.1 -0.1)">
       <defs>
        <path id="DejaVuSans-30" d="M 2034 4250 
Q 1547 4250 1301 3770 
Q 1056 3291 1056 2328 
Q 1056 1369 1301 889 
Q 1547 409 2034 409 
Q 2525 409 2770 889 
Q 3016 1369 3016 2328 
Q 3016 3291 2770 3770 
Q 2525 4250 2034 4250 
z
M 2034 4750 
Q 2819 4750 3233 4129 
Q 3647 3509 3647 2328 
Q 3647 1150 3233 529 
Q 2819 -91 2034 -91 
Q 1250 -91 836 529 
Q 422 1150 422 2328 
Q 422 3509 836 4129 
Q 1250 4750 2034 4750 
z
" transform="scale(0.015625)"/>
        <path id="DejaVuSans-2e" d="M 684 794 
L 1344 794 
L 1344 0 
L 684 0 
L 684 794 
z
" transform="scale(0.015625)"/>
       </defs>
       <use xlink:href="#DejaVuSans-30"/>
       <use xlink:href="#DejaVuSans-2e" x="63.623047"/>
       <use xlink:href="#DejaVuSans-30" x="95.410156"/>
      </g>
     </g>
    </g>
    <g id="xtick_2">
     <g id="line2d_2">
      <g>
       <use xlink:href="#m00a96e0a0e" x="173.454545" y="384.48" style="stroke: #000000; stroke-width: 0.8"/>
      </g>
     </g>
     <g id="text_2">
      <!-- 0.2 -->
      <g transform="translate(165.502983 399.078438) scale(0.1 -0.1)">
       <defs>
        <path id="DejaVuSans-32" d="M 1228 531 
L 3431 531 
L 3431 0 
L 469 0 
L 469 531 
Q 828 903 1448 1529 
Q 2069 2156 2228 2338 
Q 2531 2678 2651 2914 
Q 2772 3150 2772 3378 
Q 2772 3750 2511 3984 
Q 2250 4219 1831 4219 
Q 1534 4219 1204 4116 
Q 875 4013 500 3803 
L 500 4441 
Q 881 4594 1212 4672 
Q 1544 4750 1819 4750 
Q 2544 4750 2975 4387 
Q 3406 4025 3406 3419 
Q 3406 3131 3298 2873 
Q 3191 2616 2906 2266 
Q 2828 2175 2409 1742 
Q 1991 1309 1228 531 
z
" transform="scale(0.015625)"/>
       </defs>
       <use xlink:href="#DejaVuSans-30"/>
       <use xlink:href="#DejaVuSans-2e" x="63.623047"/>
       <use xlink:href="#DejaVuSans-32" x="95.410156"/>
      </g>
     </g>
    </g>
    <g id="xtick_3">
     <g id="line2d_3">
      <g>
       <use xlink:href="#m00a96e0a0e" x="254.618182" y="384.48" style="stroke: #000000; stroke-width: 0.8"/>
      </g>
     </g>
     <g id="text_3">
      <!-- 0.4 -->
      <g transform="translate(246.666619 399.078438) scale(0.1 -0.1)">
       <defs>
        <path id="DejaVuSans-34" d="M 2419 4116 
L 825 1625 
L 2419 1625 
L 2419 4116 
z
M 2253 4666 
L 3047 4666 
L 3047 1625 
L 3713 1625 
L 3713 1100 
L 3047 1100 
L 3047 0 
L 2419 0 
L 2419 1100 
L 313 1100 
L 313 1709 
L 2253 4666 
z
" transform="scale(0.015625)"/>
       </defs>
       <use xlink:href="#DejaVuSans-30"/>
       <use xlink:href="#DejaVuSans-2e" x="63.623047"/>
       <use xlink:href="#DejaVuSans-34" x="95.410156"/>
      </g>
     </g>
    </g>
    <g id="xtick_4">
     <g id="line2d_4">
      <g>
       <use xlink:href="#m00a96e0a0e" x="335.781818" y="384.48" style="stroke: #000000; stroke-width: 0.8"/>
      </g>
     </g>
     <g id="text_4">
      <!-- 0.6 -->
      <g transform="translate(327.830256 399.078438) scale(0.1 -0.1)">
       <defs>
        <path id="DejaVuSans-36" d="M 2113 2584 
Q 1688 2584 1439 2293 
Q 1191 2003 1191 1497 
Q 1191 994 1439 701 
Q 1688 409 2113 409 
Q 2538 409 2786 701 
Q 3034 994 3034 1497 
Q 3034 2003 2786 2293 
Q 2538 2584 2113 2584 
z
M 3366 4563 
L 3366 3988 
Q 3128 4100 2886 4159 
Q 2644 4219 2406 4219 
Q 1781 4219 1451 3797 
Q 1122 3375 1075 2522 
Q 1259 2794 1537 2939 
Q 1816 3084 2150 3084 
Q 2853 3084 3261 2657 
Q 3669 2231 3669 1497 
Q 3669 778 3244 343 
Q 2819 -91 2113 -91 
Q 1303 -91 875 529 
Q 447 1150 447 2328 
Q 447 3434 972 4092 
Q 1497 4750 2381 4750 
Q 2619 4750 2861 4703 
Q 3103 4656 3366 4563 
z
" transform="scale(0.015625)"/>
       </defs>
       <use xlink:href="#DejaVuSans-30"/>
       <use xlink:href="#DejaVuSans-2e" x="63.623047"/>
       <use xlink:href="#DejaVuSans-36" x="95.410156"/>
      </g>
     </g>
    </g>
    <g id="xtick_5">
     <g id="line2d_5">
      <g>
       <use xlink:href="#m00a96e0a0e" x="416.945455" y="384.48" style="stroke: #000000; stroke-width: 0.8"/>
      </g>
     </g>
     <g id="text_5">
      <!-- 0.8 -->
      <g transform="translate(408.993892 399.078438) scale(0.1 -0.1)">
       <defs>
        <path id="DejaVuSans-38" d="M 2034 2216 
Q 1584 2216 1326 1975 
Q 1069 1734 1069 1313 
Q 1069 891 1326 650 
Q 1584 409 2034 409 
Q 2484 409 2743 651 
Q 3003 894 3003 1313 
Q 3003 1734 2745 1975 
Q 2488 2216 2034 2216 
z
M 1403 2484 
Q 997 2584 770 2862 
Q 544 3141 544 3541 
Q 544 4100 942 4425 
Q 1341 4750 2034 4750 
Q 2731 4750 3128 4425 
Q 3525 4100 3525 3541 
Q 3525 3141 3298 2862 
Q 3072 2584 2669 2484 
Q 3125 2378 3379 2068 
Q 3634 1759 3634 1313 
Q 3634 634 3220 271 
Q 2806 -91 2034 -91 
Q 1263 -91 848 271 
Q 434 634 434 1313 
Q 434 1759 690 2068 
Q 947 2378 1403 2484 
z
M 1172 3481 
Q 1172 3119 1398 2916 
Q 1625 2713 2034 2713 
Q 2441 2713 2670 2916 
Q 2900 3119 2900 3481 
Q 2900 3844 2670 4047 
Q 2441 4250 2034 4250 
Q 1625 4250 1398 4047 
Q 1172 3844 1172 3481 
z
" transform="scale(0.015625)"/>
       </defs>
       <use xlink:href="#DejaVuSans-30"/>
       <use xlink:href="#DejaVuSans-2e" x="63.623047"/>
       <use xlink:href="#DejaVuSans-38" x="95.410156"/>
      </g>
     </g>
    </g>
    <g id="xtick_6">
     <g id="line2d_6">
      <g>
       <use xlink:href="#m00a96e0a0e" x="498.109091" y="384.48" style="stroke: #000000; stroke-width: 0.8"/>
      </g>
     </g>
     <g id="text_6">
      <!-- 1.0 -->
      <g transform="translate(490.157528 399.078438) scale(0.1 -0.1)">
       <defs>
        <path id="DejaVuSans-31" d="M 794 531 
L 1825 531 
L 1825 4091 
L 703 3866 
L 703 4441 
L 1819 4666 
L 2450 4666 
L 2450 531 
L 3481 531 
L 3481 0 
L 794 0 
L 794 531 
z
" transform="scale(0.015625)"/>
       </defs>
       <use xlink:href="#DejaVuSans-31"/>
       <use xlink:href="#DejaVuSans-2e" x="63.623047"/>
       <use xlink:href="#DejaVuSans-30" x="95.410156"/>
      </g>
     </g>
    </g>
   </g>
   <g id="matplotlib.axis_2">
    <g id="ytick_1">
     <g id="line2d_7">
      <defs>
       <path id="me3c54b76ac" d="M 0 0 
L -3.5 0 
" style="stroke: #000000; stroke-width: 0.8"/>
      </defs>
      <g>
       <use xlink:href="#me3c54b76ac" x="72" y="369.36" style="stroke: #000000; stroke-width: 0.8"/>
      </g>
     </g>
     <g id="text_7">
      <!-- −5.0 -->
      <g transform="translate(40.717187 373.159219) scale(0.1 -0.1)">
       <defs>
        <path id="DejaVuSans-2212" d="M 678 2272 
L 4684 2272 
L 4684 1741 
L 678 1741 
L 678 2272 
z
" transform="scale(0.015625)"/>
        <path id="DejaVuSans-35" d="M 691 4666 
L 3169 4666 
L 3169 4134 
L 1269 4134 
L 1269 2991 
Q 1406 3038 1543 3061 
Q 1681 3084 1819 3084 
Q 2600 3084 3056 2656 
Q 3513 2228 3513 1497 
Q 3513 744 3044 326 
Q 2575 -91 1722 -91 
Q 1428 -91 1123 -41 
Q 819 9 494 109 
L 494 744 
Q 775 591 1075 516 
Q 1375 441 1709 441 
Q 2250 441 2565 725 
Q 2881 1009 2881 1497 
Q 2881 1984 2565 2268 
Q 2250 2553 1709 2553 
Q 1456 2553 1204 2497 
Q 953 2441 691 2322 
L 691 4666 
z
" transform="scale(0.015625)"/>
       </defs>
       <use xlink:href="#DejaVuSans-2212"/>
       <use xlink:href="#DejaVuSans-35" x="83.789062"/>
       <use xlink:href="#DejaVuSans-2e" x="147.412109"/>
       <use xlink:href="#DejaVuSans-30" x="179.199219"/>
      </g>
     </g>
    </g>
    <g id="ytick_2">
     <g id="line2d_8">
      <g>
       <use xlink:href="#me3c54b76ac" x="72" y="331.56" style="stroke: #000000; stroke-width: 0.8"/>
      </g>
     </g>
     <g id="text_8">
      <!-- −2.5 -->
      <g transform="translate(40.717187 335.359219) scale(0.1 -0.1)">
       <use xlink:href="#DejaVuSans-2212"/>
       <use xlink:href="#DejaVuSans-32" x="83.789062"/>
       <use xlink:href="#DejaVuSans-2e" x="147.412109"/>
       <use xlink:href="#DejaVuSans-35" x="179.199219"/>
      </g>
     </g>
    </g>
    <g id="ytick_3">
     <g id="line2d_9">
      <g>
       <use xlink:href="#me3c54b76ac" x="72" y="293.76" style="stroke: #000000; stroke-width: 0.8"/>
      </g>
     </g>
     <g id="text_9">
      <!-- 0.0 -->
      <g transform="translate(49.096875 297.559219) scale(0.1 -0.1)">
       <use xlink:href="#DejaVuSans-30"/>
       <use xlink:href="#DejaVuSans-2e" x="63.623047"/>
       <use xlink:href="#DejaVuSans-30" x="95.410156"/>
      </g>
     </g>
    </g>
    <g id="ytick_4">
     <g id="line2d_10">
      <g>
       <use xlink:href="#me3c54b76ac" x="72" y="255.96" style="stroke: #000000; stroke-width: 0.8"/>
      </g>
     </g>
     <g id="text_10">
      <!-- 2.5 -->
      <g transform="translate(49.096875 259.759219) scale(0.1 -0.1)">
       <use xlink:href="#DejaVuSans-32"/>
       <use xlink:href="#DejaVuSans-2e" x="63.623047"/>
       <use xlink:href="#DejaVuSans-35" x="95.410156"/>
      </g>
     </g>
    </g>
    <g id="ytick_5">
     <g id="line2d_11">
      <g>
       <use xlink:href="#me3c54b76ac" x="72" y="218.16" style="stroke: #000000; stroke-width: 0.8"/>
      </g>
     </g>
     <g id="text_11">
      <!-- 5.0 -->
      <g transform="translate(49.096875 221.959219) scale(0.1 -0.1)">
       <use xlink:href="#DejaVuSans-35"/>
       <use xlink:href="#DejaVuSans-2e" x="63.623047"/>
       <use xlink:href="#DejaVuSans-30" x="95.410156"/>
      </g>
     </g>
    </g>
    <g id="ytick_6">
     <g id="line2d_12">
      <g>
       <use xlink:href="#me3c54b76ac" x="72" y="180.36" style="stroke: #000000; stroke-width: 0.8"/>
      </g>
     </g>
     <g id="text_12">
      <!-- 7.5 -->
      <g transform="translate(49.096875 184.159219) scale(0.1 -0.1)">
       <defs>
        <path id="DejaVuSans-37" d="M 525 4666 
L 3525 4666 
L 3525 4397 
L 1831 0 
L 1172 0 
L 2766 4134 
L 525 4134 
L 525 4666 
z
" transform="scale(0.015625)"/>
       </defs>
       <use xlink:href="#DejaVuSans-37"/>
       <use xlink:href="#DejaVuSans-2e" x="63.623047"/>
       <use xlink:href="#DejaVuSans-35" x="95.410156"/>
      </g>
     </g>
    </g>
    <g id="ytick_7">
     <g id="line2d_13">
      <g>
       <use xlink:href="#me3c54b76ac" x="72" y="142.56" style="stroke: #000000; stroke-width: 0.8"/>
      </g>
     </g>
     <g id="text_13">
      <!-- 10.0 -->
      <g transform="translate(42.734375 146.359219) scale(0.1 -0.1)">
       <use xlink:href="#DejaVuSans-31"/>
       <use xlink:href="#DejaVuSans-30" x="63.623047"/>
       <use xlink:href="#DejaVuSans-2e" x="127.246094"/>
       <use xlink:href="#DejaVuSans-30" x="159.033203"/>
      </g>
     </g>
    </g>
    <g id="ytick_8">
     <g id="line2d_14">
      <g>
       <use xlink:href="#me3c54b76ac" x="72" y="104.76" style="stroke: #000000; stroke-width: 0.8"/>
      </g>
     </g>
     <g id="text_14">
      <!-- 12.5 -->
      <g transform="translate(42.734375 108.559219) scale(0.1 -0.1)">
       <use xlink:href="#DejaVuSans-31"/>
       <use xlink:href="#DejaVuSans-32" x="63.623047"/>
       <use xlink:href="#DejaVuSans-2e" x="127.246094"/>
       <use xlink:href="#DejaVuSans-35" x="159.033203"/>
      </g>
     </g>
    </g>
    <g id="ytick_9">
     <g id="line2d_15">
      <g>
       <use xlink:href="#me3c54b76ac" x="72" y="66.96" style="stroke: #000000; stroke-width: 0.8"/>
      </g>
     </g>
     <g id="text_15">
      <!-- 15.0 -->
      <g transform="translate(42.734375 70.759219) scale(0.1 -0.1)">
       <use xlink:href="#DejaVuSans-31"/>
       <use xlink:href="#DejaVuSans-35" x="63.623047"/>
       <use xlink:href="#DejaVuSans-2e" x="127.246094"/>
       <use xlink:href="#DejaVuSans-30" x="159.033203"/>
      </g>
     </g>
    </g>
   </g>
   <g id="line2d_16">
    <path d="M 92.290909 361.771272 
L 96.349091 361.765224 
L 100.407273 361.750104 
L 104.465455 361.722888 
L 108.523636 361.6866 
L 112.581818 361.638216 
L 116.64 361.58076 
L 120.698182 361.51272 
L 124.756364 361.434096 
L 128.814545 361.344888 
L 132.872727 361.245096 
L 136.930909 361.13472 
L 140.989091 361.01376 
L 145.047273 360.883728 
L 149.105455 360.743112 
L 153.163636 360.591912 
L 157.221818 360.43164 
L 161.28 360.260784 
L 165.338182 360.080856 
L 169.396364 359.890344 
L 173.454545 359.69076 
L 177.512727 359.480592 
L 181.570909 359.261352 
L 185.629091 359.03304 
L 189.687273 358.795656 
L 193.745455 358.5492 
L 197.803636 358.293672 
L 201.861818 358.029072 
L 205.92 357.756912 
L 209.978182 357.47568 
L 214.036364 357.186888 
L 218.094545 356.889024 
L 222.152727 356.5836 
L 226.210909 356.270616 
L 230.269091 355.951584 
L 234.327273 355.62348 
L 238.385455 355.29084 
L 242.443636 354.949128 
L 246.501818 354.60288 
L 250.56 354.250584 
L 254.618182 353.89224 
L 258.676364 353.527848 
L 262.734545 353.160432 
L 266.792727 352.786968 
L 270.850909 352.41048 
L 274.909091 352.029456 
L 278.967273 351.64692 
L 283.025455 351.259848 
L 287.083636 350.871264 
L 291.141818 350.481168 
L 295.2 350.08956 
L 299.258182 349.697952 
L 303.316364 349.306344 
L 307.374545 348.914736 
L 311.432727 348.52464 
L 315.490909 348.136056 
L 319.549091 347.752008 
L 323.607273 347.369472 
L 327.665455 346.991472 
L 331.723636 346.618008 
L 335.781818 346.24908 
L 339.84 345.8862 
L 343.898182 345.53088 
L 347.956364 345.18312 
L 352.014545 344.84292 
L 356.072727 344.511792 
L 360.130909 344.189736 
L 364.189091 343.878264 
L 368.247273 343.577376 
L 372.305455 343.28556 
L 376.363636 343.007352 
L 380.421818 342.738216 
L 384.48 342.482688 
L 388.538182 342.239256 
L 392.596364 342.00792 
L 396.654545 341.78868 
L 400.712727 341.581536 
L 404.770909 341.386488 
L 408.829091 341.205048 
L 412.887273 341.034192 
L 416.945455 340.875432 
L 421.003636 340.728768 
L 425.061818 340.591176 
L 429.12 340.46568 
L 433.178182 340.350768 
L 437.236364 340.244928 
L 441.294545 340.14816 
L 445.352727 340.061976 
L 449.410909 339.983352 
L 453.469091 339.912288 
L 457.527273 339.848784 
L 461.585455 339.79284 
L 465.643636 339.744456 
L 469.701818 339.70212 
L 473.76 339.665832 
L 477.818182 339.637104 
L 481.876364 339.612912 
L 485.934545 339.593256 
L 489.992727 339.58116 
L 494.050909 339.572088 
L 498.109091 339.570576 
" clip-path="url(#p61d73d7898)" style="fill: none; stroke: #000000; stroke-opacity: 0.5; stroke-linecap: square"/>
   </g>
   <g id="line2d_17">
    <path d="M 92.290909 269.9838 
L 96.349091 270.033696 
L 100.407273 270.181872 
L 104.465455 270.425304 
L 108.523636 270.756432 
L 112.581818 271.167696 
L 116.64 271.648512 
L 120.698182 272.189808 
L 124.756364 272.784024 
L 128.814545 273.422088 
L 132.872727 274.09644 
L 136.930909 274.802544 
L 140.989091 275.53284 
L 145.047273 276.282792 
L 149.105455 277.047864 
L 153.163636 277.825032 
L 157.221818 278.611272 
L 161.28 279.40356 
L 165.338182 280.200384 
L 169.396364 280.99872 
L 173.454545 281.797056 
L 177.512727 282.59388 
L 181.570909 283.389192 
L 185.629091 284.178456 
L 189.687273 284.964696 
L 193.745455 285.743376 
L 197.803636 286.516008 
L 201.861818 287.28108 
L 205.92 288.03708 
L 209.978182 288.784008 
L 214.036364 289.521864 
L 218.094545 290.249136 
L 222.152727 290.965824 
L 226.210909 291.670416 
L 230.269091 292.362912 
L 234.327273 293.043312 
L 238.385455 293.711616 
L 242.443636 294.366312 
L 246.501818 295.0074 
L 250.56 295.633368 
L 254.618182 296.244216 
L 258.676364 296.841456 
L 262.734545 297.422064 
L 266.792727 297.98604 
L 270.850909 298.534896 
L 274.909091 299.065608 
L 278.967273 299.579688 
L 283.025455 300.075624 
L 287.083636 300.553416 
L 291.141818 301.011552 
L 295.2 301.450032 
L 299.258182 301.868856 
L 303.316364 302.268024 
L 307.374545 302.646024 
L 311.432727 303.001344 
L 315.490909 303.335496 
L 319.549091 303.646968 
L 323.607273 303.93576 
L 327.665455 304.20036 
L 331.723636 304.44228 
L 335.781818 304.658496 
L 339.84 304.849008 
L 343.898182 305.015328 
L 347.956364 305.155944 
L 352.014545 305.269344 
L 356.072727 305.35704 
L 360.130909 305.41752 
L 364.189091 305.450784 
L 368.247273 305.458344 
L 372.305455 305.438688 
L 376.363636 305.391816 
L 380.421818 305.31924 
L 384.48 305.219448 
L 388.538182 305.095464 
L 392.596364 304.945776 
L 396.654545 304.771896 
L 400.712727 304.573824 
L 404.770909 304.356096 
L 408.829091 304.115688 
L 412.887273 303.857136 
L 416.945455 303.58044 
L 421.003636 303.287112 
L 425.061818 302.981688 
L 429.12 302.662656 
L 433.178182 302.336064 
L 437.236364 302.003424 
L 441.294545 301.666248 
L 445.352727 301.329072 
L 449.410909 300.993408 
L 453.469091 300.665304 
L 457.527273 300.346272 
L 461.585455 300.04236 
L 465.643636 299.75508 
L 469.701818 299.49048 
L 473.76 299.250072 
L 477.818182 299.039904 
L 481.876364 298.861488 
L 485.934545 298.720872 
L 489.992727 298.616544 
L 494.050909 298.554552 
L 498.109091 298.533384 
" clip-path="url(#p61d73d7898)" style="fill: none; stroke: #000000; stroke-opacity: 0.5; stroke-linecap: square"/>
   </g>
   <g id="line2d_18">
    <path d="M 92.290909 247.450464 
L 96.349091 247.39452 
L 100.407273 247.229712 
L 104.465455 246.957552 
L 108.523636 246.5856 
L 112.581818 246.12444 
L 116.64 245.583144 
L 120.698182 244.969272 
L 124.756364 244.291896 
L 128.814545 243.5616 
L 132.872727 242.784432 
L 136.930909 241.969464 
L 140.989091 241.121232 
L 145.047273 240.244272 
L 149.105455 239.346144 
L 153.163636 238.429872 
L 157.221818 237.49848 
L 161.28 236.558016 
L 165.338182 235.611504 
L 169.396364 234.660456 
L 173.454545 233.71092 
L 177.512727 232.764408 
L 181.570909 231.823944 
L 185.629091 230.894064 
L 189.687273 229.977792 
L 193.745455 229.078152 
L 197.803636 228.19968 
L 201.861818 227.3454 
L 205.92 226.52136 
L 209.978182 225.730584 
L 214.036364 224.97912 
L 218.094545 224.271504 
L 222.152727 223.613784 
L 226.210909 223.010496 
L 230.269091 222.470712 
L 234.327273 221.998968 
L 238.385455 221.608872 
L 242.443636 221.318568 
L 246.501818 221.184 
L 250.56 221.247504 
L 254.618182 221.431968 
L 258.676364 221.664816 
L 262.734545 221.923368 
L 266.792727 222.2046 
L 270.850909 222.508512 
L 274.909091 222.83964 
L 278.967273 223.207056 
L 283.025455 223.619832 
L 287.083636 224.088552 
L 291.141818 224.622288 
L 295.2 225.222552 
L 299.258182 225.890856 
L 303.316364 226.61964 
L 307.374545 227.402856 
L 311.432727 228.234456 
L 315.490909 229.10688 
L 319.549091 230.017104 
L 323.607273 230.95908 
L 327.665455 231.92676 
L 331.723636 232.918632 
L 335.781818 233.931672 
L 339.84 234.959832 
L 343.898182 236.003112 
L 347.956364 237.058488 
L 352.014545 238.124448 
L 356.072727 239.196456 
L 360.130909 240.274512 
L 364.189091 241.355592 
L 368.247273 242.438184 
L 372.305455 243.522288 
L 376.363636 244.60488 
L 380.421818 245.684448 
L 384.48 246.75948 
L 388.538182 247.826952 
L 392.596364 248.888376 
L 396.654545 249.940728 
L 400.712727 250.980984 
L 404.770909 252.009144 
L 408.829091 253.023696 
L 412.887273 254.023128 
L 416.945455 255.004416 
L 421.003636 255.964536 
L 425.061818 256.903488 
L 429.12 257.81976 
L 433.178182 258.707304 
L 437.236364 259.567632 
L 441.294545 260.396208 
L 445.352727 261.190008 
L 449.410909 261.944496 
L 453.469091 262.659672 
L 457.527273 263.329488 
L 461.585455 263.952432 
L 465.643636 264.522456 
L 469.701818 265.038048 
L 473.76 265.49316 
L 477.818182 265.88628 
L 481.876364 266.212872 
L 485.934545 266.471424 
L 489.992727 266.655888 
L 494.050909 266.769288 
L 498.109091 266.807088 
" clip-path="url(#p61d73d7898)" style="fill: none; stroke: #000000; stroke-opacity: 0.5; stroke-linecap: square"/>
   </g>
   <g id="line2d_19">
    <path d="M 92.290909 216.60264 
L 96.349091 216.605664 
L 100.407273 216.613224 
L 104.465455 216.626832 
L 108.523636 216.644976 
L 112.581818 216.667656 
L 116.64 216.696384 
L 120.698182 216.73116 
L 124.756364 216.770472 
L 128.814545 216.815832 
L 132.872727 216.865728 
L 136.930909 216.921672 
L 140.989091 216.983664 
L 145.047273 217.051704 
L 149.105455 217.12428 
L 153.163636 217.204416 
L 157.221818 217.289088 
L 161.28 217.38132 
L 165.338182 217.478088 
L 169.396364 217.582416 
L 173.454545 217.692792 
L 177.512727 217.809216 
L 181.570909 217.931688 
L 185.629091 218.06172 
L 189.687273 218.1978 
L 193.745455 218.339928 
L 197.803636 218.489616 
L 201.861818 218.645352 
L 205.92 218.807136 
L 209.978182 218.974968 
L 214.036364 219.15036 
L 218.094545 219.330288 
L 222.152727 219.516264 
L 226.210909 219.708288 
L 230.269091 219.903336 
L 234.327273 220.101408 
L 238.385455 220.294944 
L 242.443636 220.467312 
L 246.501818 220.570128 
L 250.56 220.56408 
L 254.618182 220.52628 
L 258.676364 220.53384 
L 262.734545 220.604904 
L 266.792727 220.744008 
L 270.850909 220.94964 
L 274.909091 221.209704 
L 278.967273 221.515128 
L 283.025455 221.850792 
L 287.083636 222.200064 
L 291.141818 222.549336 
L 295.2 222.889536 
L 299.258182 223.216128 
L 303.316364 223.530624 
L 307.374545 223.831512 
L 311.432727 224.12484 
L 315.490909 224.409096 
L 319.549091 224.685792 
L 323.607273 224.957952 
L 327.665455 225.225576 
L 331.723636 225.487152 
L 335.781818 225.744192 
L 339.84 225.998208 
L 343.898182 226.247688 
L 347.956364 226.492632 
L 352.014545 226.734552 
L 356.072727 226.970424 
L 360.130909 227.203272 
L 364.189091 227.430072 
L 368.247273 227.653848 
L 372.305455 227.871576 
L 376.363636 228.084768 
L 380.421818 228.291912 
L 384.48 228.49452 
L 388.538182 228.69108 
L 392.596364 228.883104 
L 396.654545 229.067568 
L 400.712727 229.247496 
L 404.770909 229.419864 
L 408.829091 229.586184 
L 412.887273 229.746456 
L 416.945455 229.90068 
L 421.003636 230.047344 
L 425.061818 230.18796 
L 429.12 230.321016 
L 433.178182 230.448024 
L 437.236364 230.56596 
L 441.294545 230.677848 
L 445.352727 230.782176 
L 449.410909 230.878944 
L 453.469091 230.969664 
L 457.527273 231.051312 
L 461.585455 231.1254 
L 465.643636 231.191928 
L 469.701818 231.250896 
L 473.76 231.302304 
L 477.818182 231.346152 
L 481.876364 231.380928 
L 485.934545 231.408144 
L 489.992727 231.429312 
L 494.050909 231.439896 
L 498.109091 231.444432 
" clip-path="url(#p61d73d7898)" style="fill: none; stroke: #000000; stroke-opacity: 0.5; stroke-linecap: square"/>
   </g>
   <g id="line2d_20">
    <path d="M 92.290909 160.578504 
L 96.349091 160.596648 
L 100.407273 160.65108 
L 104.465455 160.740288 
L 108.523636 160.868808 
L 112.581818 161.035128 
L 116.64 161.242272 
L 120.698182 161.49024 
L 124.756364 161.782056 
L 128.814545 162.11772 
L 132.872727 162.500256 
L 136.930909 162.928152 
L 140.989091 163.401408 
L 145.047273 163.920024 
L 149.105455 164.484 
L 153.163636 165.087288 
L 157.221818 165.729888 
L 161.28 166.407264 
L 165.338182 167.11488 
L 169.396364 167.849712 
L 173.454545 168.605712 
L 177.512727 169.376832 
L 181.570909 170.160048 
L 185.629091 170.950824 
L 189.687273 171.7416 
L 193.745455 172.529352 
L 197.803636 173.30652 
L 201.861818 174.071592 
L 205.92 174.815496 
L 209.978182 175.535208 
L 214.036364 176.22468 
L 218.094545 176.876352 
L 222.152727 177.4872 
L 226.210909 178.049664 
L 230.269091 178.557696 
L 234.327273 179.008272 
L 238.385455 179.39232 
L 242.443636 179.706816 
L 246.501818 179.948736 
L 250.56 180.115056 
L 254.618182 180.20124 
L 258.676364 180.2088 
L 262.734545 180.137736 
L 266.792727 179.98956 
L 270.850909 179.768808 
L 274.909091 179.478504 
L 278.967273 179.124696 
L 283.025455 178.713432 
L 287.083636 178.253784 
L 291.141818 177.750288 
L 295.2 177.213528 
L 299.258182 176.651064 
L 303.316364 176.071968 
L 307.374545 175.486824 
L 311.432727 174.90168 
L 315.490909 174.330144 
L 319.549091 173.779776 
L 323.607273 173.259648 
L 327.665455 172.778832 
L 331.723636 172.3464 
L 335.781818 171.965376 
L 339.84 171.64332 
L 343.898182 171.380232 
L 347.956364 171.177624 
L 352.014545 171.032472 
L 356.072727 170.941752 
L 360.130909 170.900928 
L 364.189091 170.903952 
L 368.247273 170.946288 
L 372.305455 171.020376 
L 376.363636 171.124704 
L 380.421818 171.2502 
L 384.48 171.395352 
L 388.538182 171.555624 
L 392.596364 171.72648 
L 396.654545 171.906408 
L 400.712727 172.092384 
L 404.770909 172.281384 
L 408.829091 172.471896 
L 412.887273 172.660896 
L 416.945455 172.849896 
L 421.003636 173.03436 
L 425.061818 173.2158 
L 429.12 173.391192 
L 433.178182 173.559024 
L 437.236364 173.72232 
L 441.294545 173.875032 
L 445.352727 174.021696 
L 449.410909 174.157776 
L 453.469091 174.286296 
L 457.527273 174.40272 
L 461.585455 174.510072 
L 465.643636 174.60684 
L 469.701818 174.693024 
L 473.76 174.768624 
L 477.818182 174.832128 
L 481.876364 174.885048 
L 485.934545 174.925872 
L 489.992727 174.9546 
L 494.050909 174.972744 
L 498.109091 174.97728 
" clip-path="url(#p61d73d7898)" style="fill: none; stroke: #000000; stroke-opacity: 0.5; stroke-linecap: square"/>
   </g>
   <g id="line2d_21">
    <path d="M 92.290909 146.262888 
L 96.349091 146.285568 
L 100.407273 146.35512 
L 104.465455 146.470032 
L 108.523636 146.625768 
L 112.581818 146.820816 
L 116.64 147.049128 
L 120.698182 147.306168 
L 124.756364 147.585888 
L 128.814545 147.883752 
L 132.872727 148.190688 
L 136.930909 148.505184 
L 140.989091 148.81968 
L 145.047273 149.131152 
L 149.105455 149.436576 
L 153.163636 149.731416 
L 157.221818 150.015672 
L 161.28 150.28632 
L 165.338182 150.544872 
L 169.396364 150.789816 
L 173.454545 151.022664 
L 177.512727 151.243416 
L 181.570909 151.452072 
L 185.629091 151.64712 
L 189.687273 151.830072 
L 193.745455 152.000928 
L 197.803636 152.159688 
L 201.861818 152.303328 
L 205.92 152.431848 
L 209.978182 152.54676 
L 214.036364 152.64504 
L 218.094545 152.725176 
L 222.152727 152.78868 
L 226.210909 152.83404 
L 230.269091 152.859744 
L 234.327273 152.867304 
L 238.385455 152.85672 
L 242.443636 152.827992 
L 246.501818 152.785656 
L 250.56 152.737272 
L 254.618182 152.702496 
L 258.676364 152.726688 
L 262.734545 152.8416 
L 266.792727 153.020016 
L 270.850909 153.22716 
L 274.909091 153.444888 
L 278.967273 153.662616 
L 283.025455 153.878832 
L 287.083636 154.085976 
L 291.141818 154.282536 
L 295.2 154.462464 
L 299.258182 154.621224 
L 303.316364 154.75428 
L 307.374545 154.855584 
L 311.432727 154.917576 
L 315.490909 154.937232 
L 319.549091 154.90548 
L 323.607273 154.81476 
L 327.665455 154.659024 
L 331.723636 154.432224 
L 335.781818 154.131336 
L 339.84 153.751824 
L 343.898182 153.292176 
L 347.956364 152.756928 
L 352.014545 152.144568 
L 356.072727 151.462656 
L 360.130909 150.715728 
L 364.189091 149.909832 
L 368.247273 149.051016 
L 372.305455 148.143816 
L 376.363636 147.197304 
L 380.421818 146.216016 
L 384.48 145.202976 
L 388.538182 144.164232 
L 392.596364 143.102808 
L 396.654545 142.024752 
L 400.712727 140.930064 
L 404.770909 139.82328 
L 408.829091 138.707424 
L 412.887273 137.58552 
L 416.945455 136.45908 
L 421.003636 135.331128 
L 425.061818 134.203176 
L 429.12 133.076736 
L 433.178182 131.956344 
L 437.236364 130.843512 
L 441.294545 129.739752 
L 445.352727 128.6496 
L 449.410909 127.57608 
L 453.469091 126.523728 
L 457.527273 125.49708 
L 461.585455 124.502184 
L 465.643636 123.549624 
L 469.701818 122.645448 
L 473.76 121.806288 
L 477.818182 121.04424 
L 481.876364 120.380472 
L 485.934545 119.831616 
L 489.992727 119.421864 
L 494.050909 119.166336 
L 498.109091 119.080152 
" clip-path="url(#p61d73d7898)" style="fill: none; stroke: #000000; stroke-opacity: 0.5; stroke-linecap: square"/>
   </g>
   <g id="line2d_22">
    <path d="M 92.290909 139.068792 
L 96.349091 139.121712 
L 100.407273 139.275936 
L 104.465455 139.525416 
L 108.523636 139.855032 
L 112.581818 140.249664 
L 116.64 140.695704 
L 120.698182 141.17652 
L 124.756364 141.681528 
L 128.814545 142.200144 
L 132.872727 142.721784 
L 136.930909 143.2404 
L 140.989091 143.749944 
L 145.047273 144.247392 
L 149.105455 144.72972 
L 153.163636 145.195416 
L 157.221818 145.639944 
L 161.28 146.064816 
L 165.338182 146.470032 
L 169.396364 146.852568 
L 173.454545 147.215448 
L 177.512727 147.55716 
L 181.570909 147.879216 
L 185.629091 148.183128 
L 189.687273 148.468896 
L 193.745455 148.741056 
L 197.803636 148.999608 
L 201.861818 149.244552 
L 205.92 149.481936 
L 209.978182 149.710248 
L 214.036364 149.932512 
L 218.094545 150.151752 
L 222.152727 150.366456 
L 226.210909 150.58116 
L 230.269091 150.794352 
L 234.327273 151.007544 
L 238.385455 151.220736 
L 242.443636 151.432416 
L 246.501818 151.638048 
L 250.56 151.833096 
L 254.618182 151.993368 
L 258.676364 152.073504 
L 262.734545 152.041752 
L 266.792727 151.925328 
L 270.850909 151.754472 
L 274.909091 151.54884 
L 278.967273 151.312968 
L 283.025455 151.051392 
L 287.083636 150.7626 
L 291.141818 150.451128 
L 295.2 150.113952 
L 299.258182 149.754096 
L 303.316364 149.370048 
L 307.374545 148.96332 
L 311.432727 148.535424 
L 315.490909 148.083336 
L 319.549091 147.608568 
L 323.607273 147.112632 
L 327.665455 146.594016 
L 331.723636 146.054232 
L 335.781818 145.49328 
L 339.84 144.909648 
L 343.898182 144.30636 
L 347.956364 143.680392 
L 352.014545 143.034768 
L 356.072727 142.369488 
L 360.130909 141.681528 
L 364.189091 140.975424 
L 368.247273 140.248152 
L 372.305455 139.499712 
L 376.363636 138.733128 
L 380.421818 137.946888 
L 384.48 137.13948 
L 388.538182 136.313928 
L 392.596364 135.46872 
L 396.654545 134.603856 
L 400.712727 133.720848 
L 404.770909 132.818184 
L 408.829091 131.898888 
L 412.887273 130.959936 
L 416.945455 130.004352 
L 421.003636 129.030624 
L 425.061818 128.041776 
L 429.12 127.037808 
L 433.178182 126.01872 
L 437.236364 124.986024 
L 441.294545 123.942744 
L 445.352727 122.891904 
L 449.410909 121.831992 
L 453.469091 120.770568 
L 457.527273 119.709144 
L 461.585455 118.650744 
L 465.643636 117.60444 
L 469.701818 116.57628 
L 473.76 115.576848 
L 477.818182 114.61824 
L 481.876364 113.723136 
L 485.934545 112.921776 
L 489.992727 112.264056 
L 494.050909 111.818016 
L 498.109091 111.657744 
" clip-path="url(#p61d73d7898)" style="fill: none; stroke: #000000; stroke-opacity: 0.5; stroke-linecap: square"/>
   </g>
   <g id="line2d_23">
    <path d="M 92.290909 120.391056 
L 96.349091 120.313944 
L 100.407273 120.08412 
L 104.465455 119.71368 
L 108.523636 119.213208 
L 112.581818 118.596312 
L 116.64 117.881136 
L 120.698182 117.079776 
L 124.756364 116.20584 
L 128.814545 115.271424 
L 132.872727 114.282576 
L 136.930909 113.251392 
L 140.989091 112.180896 
L 145.047273 111.077136 
L 149.105455 109.94616 
L 153.163636 108.790992 
L 157.221818 107.613144 
L 161.28 106.41564 
L 165.338182 105.203016 
L 169.396364 103.975272 
L 173.454545 102.736944 
L 177.512727 101.488032 
L 181.570909 100.233072 
L 185.629091 98.975088 
L 189.687273 97.718616 
L 193.745455 96.468192 
L 197.803636 95.229864 
L 201.861818 94.012704 
L 205.92 92.827296 
L 209.978182 91.68876 
L 214.036364 90.61524 
L 218.094545 89.629416 
L 222.152727 88.750944 
L 226.210909 88.002504 
L 230.269091 87.397704 
L 234.327273 86.938056 
L 238.385455 86.614488 
L 242.443636 86.405832 
L 246.501818 86.292432 
L 250.56 86.247072 
L 254.618182 86.254632 
L 258.676364 86.295456 
L 262.734545 86.360472 
L 266.792727 86.437584 
L 270.850909 86.522256 
L 274.909091 86.611464 
L 278.967273 86.700672 
L 283.025455 86.78988 
L 287.083636 86.879088 
L 291.141818 86.968296 
L 295.2 87.060528 
L 299.258182 87.155784 
L 303.316364 87.257088 
L 307.374545 87.36444 
L 311.432727 87.480864 
L 315.490909 87.60636 
L 319.549091 87.743952 
L 323.607273 87.892128 
L 327.665455 88.050888 
L 331.723636 88.221744 
L 335.781818 88.403184 
L 339.84 88.595208 
L 343.898182 88.796304 
L 347.956364 89.00496 
L 352.014545 89.221176 
L 356.072727 89.44344 
L 360.130909 89.67024 
L 364.189091 89.900064 
L 368.247273 90.132912 
L 372.305455 90.367272 
L 376.363636 90.603144 
L 380.421818 90.837504 
L 384.48 91.071864 
L 388.538182 91.304712 
L 392.596364 91.536048 
L 396.654545 91.76436 
L 400.712727 91.99116 
L 404.770909 92.214936 
L 408.829091 92.4372 
L 412.887273 92.65644 
L 416.945455 92.87568 
L 421.003636 93.096432 
L 425.061818 93.318696 
L 429.12 93.54852 
L 433.178182 93.791952 
L 437.236364 94.056552 
L 441.294545 94.358952 
L 445.352727 94.72032 
L 449.410909 95.17392 
L 453.469091 95.751504 
L 457.527273 96.471216 
L 461.585455 97.316424 
L 465.643636 98.246304 
L 469.701818 99.220032 
L 473.76 100.199808 
L 477.818182 101.158416 
L 481.876364 102.062592 
L 485.934545 102.876048 
L 489.992727 103.545864 
L 494.050909 103.999464 
L 498.109091 104.16276 
" clip-path="url(#p61d73d7898)" style="fill: none; stroke: #000000; stroke-opacity: 0.5; stroke-linecap: square"/>
   </g>
   <g id="patch_3">
    <path d="M 72 384.48 
L 72 51.84 
" style="fill: none; stroke: #000000; stroke-width: 0.8; stroke-linejoin: miter; stroke-linecap: square"/>
   </g>
   <g id="patch_4">
    <path d="M 518.4 384.48 
L 518.4 51.84 
" style="fill: none; stroke: #000000; stroke-width: 0.8; stroke-linejoin: miter; stroke-linecap: square"/>
   </g>
   <g id="patch_5">
    <path d="M 72 384.48 
L 518.4 384.48 
" style="fill: none; stroke: #000000; stroke-width: 0.8; stroke-linejoin: miter; stroke-linecap: square"/>
   </g>
   <g id="patch_6">
    <path d="M 72 51.84 
L 518.4 51.84 
" style="fill: none; stroke: #000000; stroke-width: 0.8; stroke-linejoin: miter; stroke-linecap: square"/>
   </g>
  </g>
 </g>
 <defs>
  <clipPath id="p61d73d7898">
   <rect x="72" y="51.84" width="446.4" height="332.64"/>
  </clipPath>
 </defs>
</svg>
