<?xml version="1.0" encoding="utf-8" standalone="no"?>
<!DOCTYPE svg PUBLIC "-//W3C//DTD SVG 1.1//EN"
  "http://www.w3.org/Graphics/SVG/1.1/DTD/svg11.dtd">
<svg xmlns:xlink="http://www.w3.org/1999/xlink" width="576pt" height="432pt" viewBox="0 0 576 432" xmlns="http://www.w3.org/2000/svg" version="1.1">
 <metadata>
  <rdf:RDF xmlns:dc="http://purl.org/dc/elements/1.1/" xmlns:cc="http://creativecommons.org/ns#" xmlns:rdf="http://www.w3.org/1999/02/22-rdf-syntax-ns#">
   <cc:Work>
    <dc:type rdf:resource="http://purl.org/dc/dcmitype/StillImage"/>
    <dc:date>2023-05-03T06:39:41.012498</dc:date>
    <dc:format>image/svg+xml</dc:format>
    <dc:creator>
     <cc:Agent>
      <dc:title>Matplotlib v3.7.1, https://matplotlib.org/</dc:title>
     </cc:Agent>
    </dc:creator>
   </cc:Work>
  </rdf:RDF>
 </metadata>
 <defs>
  <style type="text/css">*{stroke-linejoin: round; stroke-linecap: butt}</style>
 </defs>
 <g id="figure_1">
  <g id="patch_1">
   <path d="M 0 432 
L 576 432 
L 576 0 
L 0 0 
z
" style="fill: #ffffff"/>
  </g>
  <g id="axes_1">
   <g id="patch_2">
    <path d="M 72 384.48 
L 518.4 384.48 
L 518.4 51.84 
L 72 51.84 
z
" style="fill: #ffffff"/>
   </g>
   <g id="matplotlib.axis_1">
    <g id="xtick_1">
     <g id="line2d_1">
      <defs>
       <path id="m8abc4f60ff" d="M 0 0 
L 0 3.5 
" style="stroke: #000000; stroke-width: 0.8"/>
      </defs>
      <g>
       <use xlink:href="#m8abc4f60ff" x="92.290909" y="384.48" style="stroke: #000000; stroke-width: 0.8"/>
      </g>
     </g>
     <g id="text_1">
      <!-- 0.0 -->
      <g transform="translate(84.339347 399.078438) scale(0.1 -0.1)">
       <defs>
        <path id="DejaVuSans-30" d="M 2034 4250 
Q 1547 4250 1301 3770 
Q 1056 3291 1056 2328 
Q 1056 1369 1301 889 
Q 1547 409 2034 409 
Q 2525 409 2770 889 
Q 3016 1369 3016 2328 
Q 3016 3291 2770 3770 
Q 2525 4250 2034 4250 
z
M 2034 4750 
Q 2819 4750 3233 4129 
Q 3647 3509 3647 2328 
Q 3647 1150 3233 529 
Q 2819 -91 2034 -91 
Q 1250 -91 836 529 
Q 422 1150 422 2328 
Q 422 3509 836 4129 
Q 1250 4750 2034 4750 
z
" transform="scale(0.015625)"/>
        <path id="DejaVuSans-2e" d="M 684 794 
L 1344 794 
L 1344 0 
L 684 0 
L 684 794 
z
" transform="scale(0.015625)"/>
       </defs>
       <use xlink:href="#DejaVuSans-30"/>
       <use xlink:href="#DejaVuSans-2e" x="63.623047"/>
       <use xlink:href="#DejaVuSans-30" x="95.410156"/>
      </g>
     </g>
    </g>
    <g id="xtick_2">
     <g id="line2d_2">
      <g>
       <use xlink:href="#m8abc4f60ff" x="173.454545" y="384.48" style="stroke: #000000; stroke-width: 0.8"/>
      </g>
     </g>
     <g id="text_2">
      <!-- 0.2 -->
      <g transform="translate(165.502983 399.078438) scale(0.1 -0.1)">
       <defs>
        <path id="DejaVuSans-32" d="M 1228 531 
L 3431 531 
L 3431 0 
L 469 0 
L 469 531 
Q 828 903 1448 1529 
Q 2069 2156 2228 2338 
Q 2531 2678 2651 2914 
Q 2772 3150 2772 3378 
Q 2772 3750 2511 3984 
Q 2250 4219 1831 4219 
Q 1534 4219 1204 4116 
Q 875 4013 500 3803 
L 500 4441 
Q 881 4594 1212 4672 
Q 1544 4750 1819 4750 
Q 2544 4750 2975 4387 
Q 3406 4025 3406 3419 
Q 3406 3131 3298 2873 
Q 3191 2616 2906 2266 
Q 2828 2175 2409 1742 
Q 1991 1309 1228 531 
z
" transform="scale(0.015625)"/>
       </defs>
       <use xlink:href="#DejaVuSans-30"/>
       <use xlink:href="#DejaVuSans-2e" x="63.623047"/>
       <use xlink:href="#DejaVuSans-32" x="95.410156"/>
      </g>
     </g>
    </g>
    <g id="xtick_3">
     <g id="line2d_3">
      <g>
       <use xlink:href="#m8abc4f60ff" x="254.618182" y="384.48" style="stroke: #000000; stroke-width: 0.8"/>
      </g>
     </g>
     <g id="text_3">
      <!-- 0.4 -->
      <g transform="translate(246.666619 399.078438) scale(0.1 -0.1)">
       <defs>
        <path id="DejaVuSans-34" d="M 2419 4116 
L 825 1625 
L 2419 1625 
L 2419 4116 
z
M 2253 4666 
L 3047 4666 
L 3047 1625 
L 3713 1625 
L 3713 1100 
L 3047 1100 
L 3047 0 
L 2419 0 
L 2419 1100 
L 313 1100 
L 313 1709 
L 2253 4666 
z
" transform="scale(0.015625)"/>
       </defs>
       <use xlink:href="#DejaVuSans-30"/>
       <use xlink:href="#DejaVuSans-2e" x="63.623047"/>
       <use xlink:href="#DejaVuSans-34" x="95.410156"/>
      </g>
     </g>
    </g>
    <g id="xtick_4">
     <g id="line2d_4">
      <g>
       <use xlink:href="#m8abc4f60ff" x="335.781818" y="384.48" style="stroke: #000000; stroke-width: 0.8"/>
      </g>
     </g>
     <g id="text_4">
      <!-- 0.6 -->
      <g transform="translate(327.830256 399.078438) scale(0.1 -0.1)">
       <defs>
        <path id="DejaVuSans-36" d="M 2113 2584 
Q 1688 2584 1439 2293 
Q 1191 2003 1191 1497 
Q 1191 994 1439 701 
Q 1688 409 2113 409 
Q 2538 409 2786 701 
Q 3034 994 3034 1497 
Q 3034 2003 2786 2293 
Q 2538 2584 2113 2584 
z
M 3366 4563 
L 3366 3988 
Q 3128 4100 2886 4159 
Q 2644 4219 2406 4219 
Q 1781 4219 1451 3797 
Q 1122 3375 1075 2522 
Q 1259 2794 1537 2939 
Q 1816 3084 2150 3084 
Q 2853 3084 3261 2657 
Q 3669 2231 3669 1497 
Q 3669 778 3244 343 
Q 2819 -91 2113 -91 
Q 1303 -91 875 529 
Q 447 1150 447 2328 
Q 447 3434 972 4092 
Q 1497 4750 2381 4750 
Q 2619 4750 2861 4703 
Q 3103 4656 3366 4563 
z
" transform="scale(0.015625)"/>
       </defs>
       <use xlink:href="#DejaVuSans-30"/>
       <use xlink:href="#DejaVuSans-2e" x="63.623047"/>
       <use xlink:href="#DejaVuSans-36" x="95.410156"/>
      </g>
     </g>
    </g>
    <g id="xtick_5">
     <g id="line2d_5">
      <g>
       <use xlink:href="#m8abc4f60ff" x="416.945455" y="384.48" style="stroke: #000000; stroke-width: 0.8"/>
      </g>
     </g>
     <g id="text_5">
      <!-- 0.8 -->
      <g transform="translate(408.993892 399.078438) scale(0.1 -0.1)">
       <defs>
        <path id="DejaVuSans-38" d="M 2034 2216 
Q 1584 2216 1326 1975 
Q 1069 1734 1069 1313 
Q 1069 891 1326 650 
Q 1584 409 2034 409 
Q 2484 409 2743 651 
Q 3003 894 3003 1313 
Q 3003 1734 2745 1975 
Q 2488 2216 2034 2216 
z
M 1403 2484 
Q 997 2584 770 2862 
Q 544 3141 544 3541 
Q 544 4100 942 4425 
Q 1341 4750 2034 4750 
Q 2731 4750 3128 4425 
Q 3525 4100 3525 3541 
Q 3525 3141 3298 2862 
Q 3072 2584 2669 2484 
Q 3125 2378 3379 2068 
Q 3634 1759 3634 1313 
Q 3634 634 3220 271 
Q 2806 -91 2034 -91 
Q 1263 -91 848 271 
Q 434 634 434 1313 
Q 434 1759 690 2068 
Q 947 2378 1403 2484 
z
M 1172 3481 
Q 1172 3119 1398 2916 
Q 1625 2713 2034 2713 
Q 2441 2713 2670 2916 
Q 2900 3119 2900 3481 
Q 2900 3844 2670 4047 
Q 2441 4250 2034 4250 
Q 1625 4250 1398 4047 
Q 1172 3844 1172 3481 
z
" transform="scale(0.015625)"/>
       </defs>
       <use xlink:href="#DejaVuSans-30"/>
       <use xlink:href="#DejaVuSans-2e" x="63.623047"/>
       <use xlink:href="#DejaVuSans-38" x="95.410156"/>
      </g>
     </g>
    </g>
    <g id="xtick_6">
     <g id="line2d_6">
      <g>
       <use xlink:href="#m8abc4f60ff" x="498.109091" y="384.48" style="stroke: #000000; stroke-width: 0.8"/>
      </g>
     </g>
     <g id="text_6">
      <!-- 1.0 -->
      <g transform="translate(490.157528 399.078438) scale(0.1 -0.1)">
       <defs>
        <path id="DejaVuSans-31" d="M 794 531 
L 1825 531 
L 1825 4091 
L 703 3866 
L 703 4441 
L 1819 4666 
L 2450 4666 
L 2450 531 
L 3481 531 
L 3481 0 
L 794 0 
L 794 531 
z
" transform="scale(0.015625)"/>
       </defs>
       <use xlink:href="#DejaVuSans-31"/>
       <use xlink:href="#DejaVuSans-2e" x="63.623047"/>
       <use xlink:href="#DejaVuSans-30" x="95.410156"/>
      </g>
     </g>
    </g>
   </g>
   <g id="matplotlib.axis_2">
    <g id="ytick_1">
     <g id="line2d_7">
      <defs>
       <path id="mb80448f7b5" d="M 0 0 
L -3.5 0 
" style="stroke: #000000; stroke-width: 0.8"/>
      </defs>
      <g>
       <use xlink:href="#mb80448f7b5" x="72" y="369.36" style="stroke: #000000; stroke-width: 0.8"/>
      </g>
     </g>
     <g id="text_7">
      <!-- −5.0 -->
      <g transform="translate(40.717187 373.159219) scale(0.1 -0.1)">
       <defs>
        <path id="DejaVuSans-2212" d="M 678 2272 
L 4684 2272 
L 4684 1741 
L 678 1741 
L 678 2272 
z
" transform="scale(0.015625)"/>
        <path id="DejaVuSans-35" d="M 691 4666 
L 3169 4666 
L 3169 4134 
L 1269 4134 
L 1269 2991 
Q 1406 3038 1543 3061 
Q 1681 3084 1819 3084 
Q 2600 3084 3056 2656 
Q 3513 2228 3513 1497 
Q 3513 744 3044 326 
Q 2575 -91 1722 -91 
Q 1428 -91 1123 -41 
Q 819 9 494 109 
L 494 744 
Q 775 591 1075 516 
Q 1375 441 1709 441 
Q 2250 441 2565 725 
Q 2881 1009 2881 1497 
Q 2881 1984 2565 2268 
Q 2250 2553 1709 2553 
Q 1456 2553 1204 2497 
Q 953 2441 691 2322 
L 691 4666 
z
" transform="scale(0.015625)"/>
       </defs>
       <use xlink:href="#DejaVuSans-2212"/>
       <use xlink:href="#DejaVuSans-35" x="83.789062"/>
       <use xlink:href="#DejaVuSans-2e" x="147.412109"/>
       <use xlink:href="#DejaVuSans-30" x="179.199219"/>
      </g>
     </g>
    </g>
    <g id="ytick_2">
     <g id="line2d_8">
      <g>
       <use xlink:href="#mb80448f7b5" x="72" y="331.56" style="stroke: #000000; stroke-width: 0.8"/>
      </g>
     </g>
     <g id="text_8">
      <!-- −2.5 -->
      <g transform="translate(40.717187 335.359219) scale(0.1 -0.1)">
       <use xlink:href="#DejaVuSans-2212"/>
       <use xlink:href="#DejaVuSans-32" x="83.789062"/>
       <use xlink:href="#DejaVuSans-2e" x="147.412109"/>
       <use xlink:href="#DejaVuSans-35" x="179.199219"/>
      </g>
     </g>
    </g>
    <g id="ytick_3">
     <g id="line2d_9">
      <g>
       <use xlink:href="#mb80448f7b5" x="72" y="293.76" style="stroke: #000000; stroke-width: 0.8"/>
      </g>
     </g>
     <g id="text_9">
      <!-- 0.0 -->
      <g transform="translate(49.096875 297.559219) scale(0.1 -0.1)">
       <use xlink:href="#DejaVuSans-30"/>
       <use xlink:href="#DejaVuSans-2e" x="63.623047"/>
       <use xlink:href="#DejaVuSans-30" x="95.410156"/>
      </g>
     </g>
    </g>
    <g id="ytick_4">
     <g id="line2d_10">
      <g>
       <use xlink:href="#mb80448f7b5" x="72" y="255.96" style="stroke: #000000; stroke-width: 0.8"/>
      </g>
     </g>
     <g id="text_10">
      <!-- 2.5 -->
      <g transform="translate(49.096875 259.759219) scale(0.1 -0.1)">
       <use xlink:href="#DejaVuSans-32"/>
       <use xlink:href="#DejaVuSans-2e" x="63.623047"/>
       <use xlink:href="#DejaVuSans-35" x="95.410156"/>
      </g>
     </g>
    </g>
    <g id="ytick_5">
     <g id="line2d_11">
      <g>
       <use xlink:href="#mb80448f7b5" x="72" y="218.16" style="stroke: #000000; stroke-width: 0.8"/>
      </g>
     </g>
     <g id="text_11">
      <!-- 5.0 -->
      <g transform="translate(49.096875 221.959219) scale(0.1 -0.1)">
       <use xlink:href="#DejaVuSans-35"/>
       <use xlink:href="#DejaVuSans-2e" x="63.623047"/>
       <use xlink:href="#DejaVuSans-30" x="95.410156"/>
      </g>
     </g>
    </g>
    <g id="ytick_6">
     <g id="line2d_12">
      <g>
       <use xlink:href="#mb80448f7b5" x="72" y="180.36" style="stroke: #000000; stroke-width: 0.8"/>
      </g>
     </g>
     <g id="text_12">
      <!-- 7.5 -->
      <g transform="translate(49.096875 184.159219) scale(0.1 -0.1)">
       <defs>
        <path id="DejaVuSans-37" d="M 525 4666 
L 3525 4666 
L 3525 4397 
L 1831 0 
L 1172 0 
L 2766 4134 
L 525 4134 
L 525 4666 
z
" transform="scale(0.015625)"/>
       </defs>
       <use xlink:href="#DejaVuSans-37"/>
       <use xlink:href="#DejaVuSans-2e" x="63.623047"/>
       <use xlink:href="#DejaVuSans-35" x="95.410156"/>
      </g>
     </g>
    </g>
    <g id="ytick_7">
     <g id="line2d_13">
      <g>
       <use xlink:href="#mb80448f7b5" x="72" y="142.56" style="stroke: #000000; stroke-width: 0.8"/>
      </g>
     </g>
     <g id="text_13">
      <!-- 10.0 -->
      <g transform="translate(42.734375 146.359219) scale(0.1 -0.1)">
       <use xlink:href="#DejaVuSans-31"/>
       <use xlink:href="#DejaVuSans-30" x="63.623047"/>
       <use xlink:href="#DejaVuSans-2e" x="127.246094"/>
       <use xlink:href="#DejaVuSans-30" x="159.033203"/>
      </g>
     </g>
    </g>
    <g id="ytick_8">
     <g id="line2d_14">
      <g>
       <use xlink:href="#mb80448f7b5" x="72" y="104.76" style="stroke: #000000; stroke-width: 0.8"/>
      </g>
     </g>
     <g id="text_14">
      <!-- 12.5 -->
      <g transform="translate(42.734375 108.559219) scale(0.1 -0.1)">
       <use xlink:href="#DejaVuSans-31"/>
       <use xlink:href="#DejaVuSans-32" x="63.623047"/>
       <use xlink:href="#DejaVuSans-2e" x="127.246094"/>
       <use xlink:href="#DejaVuSans-35" x="159.033203"/>
      </g>
     </g>
    </g>
    <g id="ytick_9">
     <g id="line2d_15">
      <g>
       <use xlink:href="#mb80448f7b5" x="72" y="66.96" style="stroke: #000000; stroke-width: 0.8"/>
      </g>
     </g>
     <g id="text_15">
      <!-- 15.0 -->
      <g transform="translate(42.734375 70.759219) scale(0.1 -0.1)">
       <use xlink:href="#DejaVuSans-31"/>
       <use xlink:href="#DejaVuSans-35" x="63.623047"/>
       <use xlink:href="#DejaVuSans-2e" x="127.246094"/>
       <use xlink:href="#DejaVuSans-30" x="159.033203"/>
      </g>
     </g>
    </g>
   </g>
   <g id="line2d_16">
    <path d="M 92.290909 322.832736 
L 96.349091 322.852392 
L 100.407273 322.912872 
L 104.465455 323.012664 
L 108.523636 323.148744 
L 112.581818 323.3196 
L 116.64 323.522208 
L 120.698182 323.755056 
L 124.756364 324.013608 
L 128.814545 324.296352 
L 132.872727 324.600264 
L 136.930909 324.923832 
L 140.989091 325.264032 
L 145.047273 325.620864 
L 149.105455 325.992816 
L 153.163636 326.376864 
L 157.221818 326.773008 
L 161.28 327.179736 
L 165.338182 327.597048 
L 169.396364 328.023432 
L 173.454545 328.458888 
L 177.512727 328.901904 
L 181.570909 329.350968 
L 185.629091 329.807592 
L 189.687273 330.268752 
L 193.745455 330.73596 
L 197.803636 331.209216 
L 201.861818 331.685496 
L 205.92 332.1648 
L 209.978182 332.64864 
L 214.036364 333.135504 
L 218.094545 333.62388 
L 222.152727 334.113768 
L 226.210909 334.605168 
L 230.269091 335.09808 
L 234.327273 335.590992 
L 238.385455 336.083904 
L 242.443636 336.576816 
L 246.501818 337.068216 
L 250.56 337.559616 
L 254.618182 338.049504 
L 258.676364 338.536368 
L 262.734545 339.02172 
L 266.792727 339.504048 
L 270.850909 339.983352 
L 274.909091 340.459632 
L 278.967273 340.931376 
L 283.025455 341.400096 
L 287.083636 341.86428 
L 291.141818 342.323928 
L 295.2 342.777528 
L 299.258182 343.226592 
L 303.316364 343.67112 
L 307.374545 344.1096 
L 311.432727 344.542032 
L 315.490909 344.966904 
L 319.549091 345.38724 
L 323.607273 345.800016 
L 327.665455 346.205232 
L 331.723636 346.6044 
L 335.781818 346.996008 
L 339.84 347.380056 
L 343.898182 347.756544 
L 347.956364 348.12396 
L 352.014545 348.485328 
L 356.072727 348.837624 
L 360.130909 349.180848 
L 364.189091 349.516512 
L 368.247273 349.843104 
L 372.305455 350.160624 
L 376.363636 350.470584 
L 380.421818 350.76996 
L 384.48 351.060264 
L 388.538182 351.343008 
L 392.596364 351.615168 
L 396.654545 351.876744 
L 400.712727 352.13076 
L 404.770909 352.374192 
L 408.829091 352.60704 
L 412.887273 352.830816 
L 416.945455 353.04552 
L 421.003636 353.24964 
L 425.061818 353.443176 
L 429.12 353.62764 
L 433.178182 353.800008 
L 437.236364 353.964816 
L 441.294545 354.117528 
L 445.352727 354.259656 
L 449.410909 354.392712 
L 453.469091 354.513672 
L 457.527273 354.62556 
L 461.585455 354.726864 
L 465.643636 354.817584 
L 469.701818 354.896208 
L 473.76 354.96576 
L 477.818182 355.024728 
L 481.876364 355.073112 
L 485.934545 355.1094 
L 489.992727 355.136616 
L 494.050909 355.151736 
L 498.109091 355.157784 
" clip-path="url(#pc9df590e0b)" style="fill: none; stroke: #000000; stroke-opacity: 0.5; stroke-linecap: square"/>
   </g>
   <g id="line2d_17">
    <path d="M 92.290909 313.82424 
L 96.349091 313.806096 
L 100.407273 313.753176 
L 104.465455 313.666992 
L 108.523636 313.549056 
L 112.581818 313.40088 
L 116.64 313.227 
L 120.698182 313.027416 
L 124.756364 312.806664 
L 128.814545 312.567768 
L 132.872727 312.310728 
L 136.930909 312.037056 
L 140.989091 311.751288 
L 145.047273 311.451912 
L 149.105455 311.141952 
L 153.163636 310.82292 
L 157.221818 310.493304 
L 161.28 310.154616 
L 165.338182 309.808368 
L 169.396364 309.45456 
L 173.454545 309.093192 
L 177.512727 308.725776 
L 181.570909 308.3508 
L 185.629091 307.968264 
L 189.687273 307.581192 
L 193.745455 307.18656 
L 197.803636 306.78588 
L 201.861818 306.379152 
L 205.92 305.966376 
L 209.978182 305.547552 
L 214.036364 305.12268 
L 218.094545 304.693272 
L 222.152727 304.256304 
L 226.210909 303.8148 
L 230.269091 303.367248 
L 234.327273 302.913648 
L 238.385455 302.454 
L 242.443636 301.989816 
L 246.501818 301.519584 
L 250.56 301.044816 
L 254.618182 300.564 
L 258.676364 300.078648 
L 262.734545 299.58876 
L 266.792727 299.092824 
L 270.850909 298.593864 
L 274.909091 298.088856 
L 278.967273 297.579312 
L 283.025455 297.066744 
L 287.083636 296.54964 
L 291.141818 296.028 
L 295.2 295.503336 
L 299.258182 294.975648 
L 303.316364 294.444936 
L 307.374545 293.9112 
L 311.432727 293.375952 
L 315.490909 292.83768 
L 319.549091 292.297896 
L 323.607273 291.7566 
L 327.665455 291.215304 
L 331.723636 290.672496 
L 335.781818 290.129688 
L 339.84 289.588392 
L 343.898182 289.047096 
L 347.956364 288.507312 
L 352.014545 287.96904 
L 356.072727 287.43228 
L 360.130909 286.900056 
L 364.189091 286.370856 
L 368.247273 285.846192 
L 372.305455 285.326064 
L 376.363636 284.811984 
L 380.421818 284.303952 
L 384.48 283.80348 
L 388.538182 283.310568 
L 392.596364 282.825216 
L 396.654545 282.350448 
L 400.712727 281.884752 
L 404.770909 281.42964 
L 408.829091 280.986624 
L 412.887273 280.557216 
L 416.945455 280.139904 
L 421.003636 279.737712 
L 425.061818 279.349128 
L 429.12 278.977176 
L 433.178182 278.620344 
L 437.236364 278.281656 
L 441.294545 277.961112 
L 445.352727 277.660224 
L 449.410909 277.37748 
L 453.469091 277.114392 
L 457.527273 276.872472 
L 461.585455 276.653232 
L 465.643636 276.453648 
L 469.701818 276.276744 
L 473.76 276.12252 
L 477.818182 275.992488 
L 481.876364 275.885136 
L 485.934545 275.800464 
L 489.992727 275.741496 
L 494.050909 275.705208 
L 498.109091 275.693112 
" clip-path="url(#pc9df590e0b)" style="fill: none; stroke: #000000; stroke-opacity: 0.5; stroke-linecap: square"/>
   </g>
   <g id="line2d_18">
    <path d="M 92.290909 259.602408 
L 96.349091 259.729416 
L 100.407273 260.05752 
L 104.465455 260.492976 
L 108.523636 260.975304 
L 112.581818 261.474264 
L 116.64 261.973224 
L 120.698182 262.464624 
L 124.756364 262.942416 
L 128.814545 263.405088 
L 132.872727 263.848104 
L 136.930909 264.271464 
L 140.989091 264.673656 
L 145.047273 265.053168 
L 149.105455 265.411512 
L 153.163636 265.747176 
L 157.221818 266.058648 
L 161.28 266.345928 
L 165.338182 266.610528 
L 169.396364 266.850936 
L 173.454545 267.067152 
L 177.512727 267.259176 
L 181.570909 267.427008 
L 185.629091 267.57216 
L 189.687273 267.69312 
L 193.745455 267.789888 
L 197.803636 267.863976 
L 201.861818 267.913872 
L 205.92 267.9426 
L 209.978182 267.947136 
L 214.036364 267.928992 
L 218.094545 267.88968 
L 222.152727 267.827688 
L 226.210909 267.743016 
L 230.269091 267.638688 
L 234.327273 267.513192 
L 238.385455 267.366528 
L 242.443636 267.200208 
L 246.501818 267.01272 
L 250.56 266.807088 
L 254.618182 266.5818 
L 258.676364 266.336856 
L 262.734545 266.07528 
L 266.792727 265.794048 
L 270.850909 265.494672 
L 274.909091 265.178664 
L 278.967273 264.846024 
L 283.025455 264.496752 
L 287.083636 264.13236 
L 291.141818 263.749824 
L 295.2 263.35368 
L 299.258182 262.942416 
L 303.316364 262.516032 
L 307.374545 262.07604 
L 311.432727 261.62244 
L 315.490909 261.155232 
L 319.549091 260.675928 
L 323.607273 260.183016 
L 327.665455 259.67952 
L 331.723636 259.163928 
L 335.781818 258.63624 
L 339.84 258.09948 
L 343.898182 257.553648 
L 347.956364 256.997232 
L 352.014545 256.433256 
L 356.072727 255.860208 
L 360.130909 255.281112 
L 364.189091 254.694456 
L 368.247273 254.10024 
L 372.305455 253.503 
L 376.363636 252.899712 
L 380.421818 252.2934 
L 384.48 251.684064 
L 388.538182 251.073216 
L 392.596364 250.462368 
L 396.654545 249.850008 
L 400.712727 249.240672 
L 404.770909 248.632848 
L 408.829091 248.02956 
L 412.887273 247.430808 
L 416.945455 246.839616 
L 421.003636 246.255984 
L 425.061818 245.682936 
L 429.12 245.120472 
L 433.178182 244.573128 
L 437.236364 244.040904 
L 441.294545 243.525312 
L 445.352727 243.029376 
L 449.410909 242.55612 
L 453.469091 242.105544 
L 457.527273 241.682184 
L 461.585455 241.284528 
L 465.643636 240.918624 
L 469.701818 240.58296 
L 473.76 240.282072 
L 477.818182 240.014448 
L 481.876364 239.784624 
L 485.934545 239.594112 
L 489.992727 239.447448 
L 494.050909 239.352192 
L 498.109091 239.318928 
" clip-path="url(#pc9df590e0b)" style="fill: none; stroke: #000000; stroke-opacity: 0.5; stroke-linecap: square"/>
   </g>
   <g id="line2d_19">
    <path d="M 92.290909 256.566312 
L 96.349091 256.419648 
L 100.407273 256.040136 
L 104.465455 255.516984 
L 108.523636 254.912184 
L 112.581818 254.255976 
L 116.64 253.564992 
L 120.698182 252.849816 
L 124.756364 252.114984 
L 128.814545 251.365032 
L 132.872727 250.601472 
L 136.930909 249.82884 
L 140.989091 249.048648 
L 145.047273 248.262408 
L 149.105455 247.471632 
L 153.163636 246.680856 
L 157.221818 245.89008 
L 161.28 245.102328 
L 165.338182 244.3176 
L 169.396364 243.540432 
L 173.454545 242.772336 
L 177.512727 242.013312 
L 181.570909 241.269408 
L 185.629091 240.540624 
L 189.687273 239.829984 
L 193.745455 239.139 
L 197.803636 238.470696 
L 201.861818 237.828096 
L 205.92 237.2112 
L 209.978182 236.624544 
L 214.036364 236.068128 
L 218.094545 235.544976 
L 222.152727 235.0566 
L 226.210909 234.603 
L 230.269091 234.1872 
L 234.327273 233.8092 
L 238.385455 233.470512 
L 242.443636 233.168112 
L 246.501818 232.905024 
L 250.56 232.679736 
L 254.618182 232.492248 
L 258.676364 232.339536 
L 262.734545 232.2216 
L 266.792727 232.136928 
L 270.850909 232.082496 
L 274.909091 232.059816 
L 278.967273 232.064352 
L 283.025455 232.094592 
L 287.083636 232.147512 
L 291.141818 232.223112 
L 295.2 232.31988 
L 299.258182 232.43328 
L 303.316364 232.5618 
L 307.374545 232.70544 
L 311.432727 232.862688 
L 315.490909 233.029008 
L 319.549091 233.205912 
L 323.607273 233.388864 
L 327.665455 233.579376 
L 331.723636 233.774424 
L 335.781818 233.972496 
L 339.84 234.173592 
L 343.898182 234.374688 
L 347.956364 234.577296 
L 352.014545 234.779904 
L 356.072727 234.981 
L 360.130909 235.179072 
L 364.189091 235.37412 
L 368.247273 235.564632 
L 372.305455 235.75212 
L 376.363636 235.93356 
L 380.421818 236.110464 
L 384.48 236.28132 
L 388.538182 236.446128 
L 392.596364 236.604888 
L 396.654545 236.756088 
L 400.712727 236.899728 
L 404.770909 237.03732 
L 408.829091 237.167352 
L 412.887273 237.289824 
L 416.945455 237.403224 
L 421.003636 237.512088 
L 425.061818 237.61188 
L 429.12 237.704112 
L 433.178182 237.791808 
L 437.236364 237.870432 
L 441.294545 237.94452 
L 445.352727 238.01256 
L 449.410909 238.076064 
L 453.469091 238.13352 
L 457.527273 238.187952 
L 461.585455 238.237848 
L 465.643636 238.286232 
L 469.701818 238.333104 
L 473.76 238.378464 
L 477.818182 238.423824 
L 481.876364 238.470696 
L 485.934545 238.516056 
L 489.992727 238.55688 
L 494.050909 238.588632 
L 498.109091 238.600728 
" clip-path="url(#pc9df590e0b)" style="fill: none; stroke: #000000; stroke-opacity: 0.5; stroke-linecap: square"/>
   </g>
   <g id="line2d_20">
    <path d="M 92.290909 159.16176 
L 96.349091 159.703056 
L 100.407273 160.664688 
L 104.465455 161.688312 
L 108.523636 162.716472 
L 112.581818 163.731024 
L 116.64 164.728944 
L 120.698182 165.704184 
L 124.756364 166.658256 
L 128.814545 167.586624 
L 132.872727 168.489288 
L 136.930909 169.363224 
L 140.989091 170.209944 
L 145.047273 171.026424 
L 149.105455 171.811152 
L 153.163636 172.562616 
L 157.221818 173.280816 
L 161.28 173.962728 
L 165.338182 174.60684 
L 169.396364 175.213152 
L 173.454545 175.777128 
L 177.512727 176.298768 
L 181.570909 176.77656 
L 185.629091 177.20748 
L 189.687273 177.588504 
L 193.745455 177.919632 
L 197.803636 178.199352 
L 201.861818 178.423128 
L 205.92 178.59096 
L 209.978182 178.699824 
L 214.036364 178.74972 
L 218.094545 178.739136 
L 222.152727 178.665048 
L 226.210909 178.525944 
L 230.269091 178.324848 
L 234.327273 178.057224 
L 238.385455 177.724584 
L 242.443636 177.326928 
L 246.501818 176.864256 
L 250.56 176.33808 
L 254.618182 175.749912 
L 258.676364 175.099752 
L 262.734545 174.389112 
L 266.792727 173.621016 
L 270.850909 172.796976 
L 274.909091 171.918504 
L 278.967273 170.988624 
L 283.025455 170.008848 
L 287.083636 168.980688 
L 291.141818 167.90868 
L 295.2 166.794336 
L 299.258182 165.639168 
L 303.316364 164.444688 
L 307.374545 163.215432 
L 311.432727 161.9514 
L 315.490909 160.657128 
L 319.549091 159.331104 
L 323.607273 157.979376 
L 327.665455 156.601944 
L 331.723636 155.203344 
L 335.781818 153.804744 
L 339.84 153.721584 
L 343.898182 155.182176 
L 347.956364 156.654864 
L 352.014545 158.115456 
L 356.072727 159.557904 
L 360.130909 160.98372 
L 364.189091 162.391392 
L 368.247273 163.78092 
L 372.305455 165.147768 
L 376.363636 166.496472 
L 380.421818 167.820984 
L 384.48 169.124328 
L 388.538182 170.40348 
L 392.596364 171.65844 
L 396.654545 172.886184 
L 400.712727 174.089736 
L 404.770909 175.263048 
L 408.829091 176.407632 
L 412.887273 177.523488 
L 416.945455 178.604568 
L 421.003636 179.653896 
L 425.061818 180.666936 
L 429.12 181.643688 
L 433.178182 182.58264 
L 437.236364 183.479256 
L 441.294545 184.333536 
L 445.352727 185.143968 
L 449.410909 185.906016 
L 453.469091 186.61968 
L 457.527273 187.281936 
L 461.585455 187.88976 
L 465.643636 188.440128 
L 469.701818 188.93304 
L 473.76 189.365472 
L 477.818182 189.735912 
L 481.876364 190.039824 
L 485.934545 190.27872 
L 489.992727 190.451088 
L 494.050909 190.553904 
L 498.109091 190.58868 
" clip-path="url(#pc9df590e0b)" style="fill: none; stroke: #000000; stroke-opacity: 0.5; stroke-linecap: square"/>
   </g>
   <g id="line2d_21">
    <path d="M 92.290909 157.406328 
L 96.349091 156.845376 
L 100.407273 155.823264 
L 104.465455 154.699848 
L 108.523636 153.532584 
L 112.581818 152.338104 
L 116.64 151.119432 
L 120.698182 149.882616 
L 124.756364 148.626144 
L 128.814545 147.35304 
L 132.872727 146.064816 
L 136.930909 144.75996 
L 140.989091 143.441496 
L 145.047273 142.107912 
L 149.105455 140.762232 
L 153.163636 139.404456 
L 157.221818 138.034584 
L 161.28 136.652616 
L 165.338182 135.261576 
L 169.396364 133.861464 
L 173.454545 132.453792 
L 177.512727 131.040072 
L 181.570909 129.620304 
L 185.629091 128.200536 
L 189.687273 126.779256 
L 193.745455 125.364024 
L 197.803636 123.957864 
L 201.861818 122.568336 
L 205.92 121.206024 
L 209.978182 119.88 
L 214.036364 118.611432 
L 218.094545 117.421488 
L 222.152727 116.337384 
L 226.210909 115.383312 
L 230.269091 114.577416 
L 234.327273 113.9454 
L 238.385455 113.880384 
L 242.443636 115.099056 
L 246.501818 116.582328 
L 250.56 118.150272 
L 254.618182 119.765088 
L 258.676364 121.404096 
L 262.734545 123.059736 
L 266.792727 124.722936 
L 270.850909 126.38916 
L 274.909091 128.055384 
L 278.967273 129.721608 
L 283.025455 131.381784 
L 287.083636 133.037424 
L 291.141818 134.685504 
L 295.2 136.327536 
L 299.258182 137.960496 
L 303.316364 139.582872 
L 307.374545 141.196176 
L 311.432727 142.798896 
L 315.490909 144.38952 
L 319.549091 145.968048 
L 323.607273 147.53448 
L 327.665455 149.085792 
L 331.723636 150.61896 
L 335.781818 152.117352 
L 339.84 152.264016 
L 343.898182 150.833664 
L 347.956364 149.359464 
L 352.014545 147.871656 
L 356.072727 146.386872 
L 360.130909 144.970128 
L 364.189091 144.493848 
L 368.247273 145.60668 
L 372.305455 146.896416 
L 376.363636 148.190688 
L 380.421818 149.468328 
L 384.48 150.723288 
L 388.538182 151.951032 
L 392.596364 153.150048 
L 396.654545 154.320336 
L 400.712727 155.45736 
L 404.770909 156.564144 
L 408.829091 157.636152 
L 412.887273 158.673384 
L 416.945455 159.674328 
L 421.003636 160.637472 
L 425.061818 161.562816 
L 429.12 162.447336 
L 433.178182 163.28952 
L 437.236364 164.09088 
L 441.294545 164.84688 
L 445.352727 165.55752 
L 449.410909 166.221288 
L 453.469091 166.838184 
L 457.527273 167.406696 
L 461.585455 167.9238 
L 465.643636 168.389496 
L 469.701818 168.803784 
L 473.76 169.16364 
L 477.818182 169.470576 
L 481.876364 169.72308 
L 485.934545 169.91964 
L 489.992727 170.060256 
L 494.050909 170.144928 
L 498.109091 170.172144 
" clip-path="url(#pc9df590e0b)" style="fill: none; stroke: #000000; stroke-opacity: 0.5; stroke-linecap: square"/>
   </g>
   <g id="line2d_22">
    <path d="M 92.290909 114.887376 
L 96.349091 114.884352 
L 100.407273 114.873768 
L 104.465455 114.857136 
L 108.523636 114.834456 
L 112.581818 114.804216 
L 116.64 114.767928 
L 120.698182 114.72408 
L 124.756364 114.674184 
L 128.814545 114.616728 
L 132.872727 114.553224 
L 136.930909 114.483672 
L 140.989091 114.40656 
L 145.047273 114.321888 
L 149.105455 114.231168 
L 153.163636 114.132888 
L 157.221818 114.027048 
L 161.28 113.91516 
L 165.338182 113.7942 
L 169.396364 113.66568 
L 173.454545 113.5296 
L 177.512727 113.384448 
L 181.570909 113.228712 
L 185.629091 113.065416 
L 189.687273 112.890024 
L 193.745455 112.704048 
L 197.803636 112.502952 
L 201.861818 112.28976 
L 205.92 112.059936 
L 209.978182 111.816504 
L 214.036364 111.567024 
L 218.094545 111.331152 
L 222.152727 111.167856 
L 226.210909 111.196584 
L 230.269091 111.582144 
L 234.327273 112.371408 
L 238.385455 113.057856 
L 242.443636 112.770576 
L 246.501818 112.409208 
L 250.56 112.087152 
L 254.618182 111.80592 
L 258.676364 111.565512 
L 262.734545 111.370464 
L 266.792727 111.243456 
L 270.850909 111.241944 
L 274.909091 111.498984 
L 278.967273 112.211136 
L 283.025455 113.38596 
L 287.083636 114.823872 
L 291.141818 116.376696 
L 295.2 117.977904 
L 299.258182 119.60028 
L 303.316364 121.227192 
L 307.374545 122.852592 
L 311.432727 124.470432 
L 315.490909 126.0792 
L 319.549091 127.67436 
L 323.607273 129.257424 
L 327.665455 130.823856 
L 331.723636 132.373656 
L 335.781818 133.905312 
L 339.84 135.417312 
L 343.898182 136.909656 
L 347.956364 138.377808 
L 352.014545 139.818744 
L 356.072727 141.218856 
L 360.130909 142.511616 
L 364.189091 142.830648 
L 368.247273 141.52428 
L 372.305455 140.00472 
L 376.363636 138.445848 
L 380.421818 136.868832 
L 384.48 135.282744 
L 388.538182 133.689096 
L 392.596364 132.090912 
L 396.654545 130.489704 
L 400.712727 128.886984 
L 404.770909 127.285776 
L 408.829091 125.687592 
L 412.887273 124.095456 
L 416.945455 122.509368 
L 421.003636 120.933864 
L 425.061818 119.370456 
L 429.12 117.822168 
L 433.178182 116.293536 
L 437.236364 114.789096 
L 441.294545 113.31036 
L 445.352727 111.8664 
L 449.410909 110.461752 
L 453.469091 109.103976 
L 457.527273 107.802144 
L 461.585455 106.568352 
L 465.643636 105.416208 
L 469.701818 104.368392 
L 473.76 103.462704 
L 477.818182 102.789864 
L 481.876364 102.436056 
L 485.934545 102.290904 
L 489.992727 102.225888 
L 494.050909 102.195648 
L 498.109091 102.186576 
" clip-path="url(#pc9df590e0b)" style="fill: none; stroke: #000000; stroke-opacity: 0.5; stroke-linecap: square"/>
   </g>
   <g id="line2d_23">
    <path d="M 92.290909 101.853936 
L 96.349091 101.846376 
L 100.407273 101.825208 
L 104.465455 101.78892 
L 108.523636 101.739024 
L 112.581818 101.674008 
L 116.64 101.595384 
L 120.698182 101.503152 
L 124.756364 101.3958 
L 128.814545 101.27484 
L 132.872727 101.140272 
L 136.930909 100.993608 
L 140.989091 100.831824 
L 145.047273 100.657944 
L 149.105455 100.471968 
L 153.163636 100.273896 
L 157.221818 100.063728 
L 161.28 99.844488 
L 165.338182 99.616176 
L 169.396364 99.380304 
L 173.454545 99.139896 
L 177.512727 98.899488 
L 181.570909 98.663616 
L 185.629091 98.442864 
L 189.687273 98.256888 
L 193.745455 98.13744 
L 197.803636 98.145 
L 201.861818 98.383896 
L 205.92 98.970552 
L 209.978182 99.911016 
L 214.036364 101.073744 
L 218.094545 102.298464 
L 222.152727 103.426416 
L 226.210909 104.27616 
L 230.269091 104.6466 
L 234.327273 104.463648 
L 238.385455 103.842216 
L 242.443636 102.965256 
L 246.501818 102.014208 
L 250.56 101.273328 
L 254.618182 101.288448 
L 258.676364 102.23496 
L 262.734545 103.604832 
L 266.792727 105.079032 
L 270.850909 106.501824 
L 274.909091 107.696304 
L 278.967273 108.452304 
L 283.025455 108.748656 
L 287.083636 108.780408 
L 291.141818 108.694224 
L 295.2 108.552096 
L 299.258182 108.38124 
L 303.316364 108.195264 
L 307.374545 107.998704 
L 311.432727 107.797608 
L 315.490909 107.593488 
L 319.549091 107.387856 
L 323.607273 107.182224 
L 327.665455 106.97508 
L 331.723636 106.77096 
L 335.781818 106.568352 
L 339.84 106.365744 
L 343.898182 106.167672 
L 347.956364 105.971112 
L 352.014545 105.777576 
L 356.072727 105.585552 
L 360.130909 105.399576 
L 364.189091 105.215112 
L 368.247273 105.035184 
L 372.305455 104.859792 
L 376.363636 104.687424 
L 380.421818 104.519592 
L 384.48 104.357808 
L 388.538182 104.199048 
L 392.596364 104.044824 
L 396.654545 103.896648 
L 400.712727 103.753008 
L 404.770909 103.615416 
L 408.829091 103.48236 
L 412.887273 103.35384 
L 416.945455 103.231368 
L 421.003636 103.114944 
L 425.061818 103.003056 
L 429.12 102.897216 
L 433.178182 102.795912 
L 437.236364 102.700656 
L 441.294545 102.609936 
L 445.352727 102.525264 
L 449.410909 102.445128 
L 453.469091 102.369528 
L 457.527273 102.296952 
L 461.585455 102.225888 
L 465.643636 102.153312 
L 469.701818 102.067128 
L 473.76 101.944656 
L 477.818182 101.711808 
L 481.876364 101.294496 
L 485.934545 100.819728 
L 489.992727 100.431144 
L 494.050909 100.184688 
L 498.109091 100.100016 
" clip-path="url(#pc9df590e0b)" style="fill: none; stroke: #000000; stroke-opacity: 0.5; stroke-linecap: square"/>
   </g>
   <g id="patch_3">
    <path d="M 72 384.48 
L 72 51.84 
" style="fill: none; stroke: #000000; stroke-width: 0.8; stroke-linejoin: miter; stroke-linecap: square"/>
   </g>
   <g id="patch_4">
    <path d="M 518.4 384.48 
L 518.4 51.84 
" style="fill: none; stroke: #000000; stroke-width: 0.8; stroke-linejoin: miter; stroke-linecap: square"/>
   </g>
   <g id="patch_5">
    <path d="M 72 384.48 
L 518.4 384.48 
" style="fill: none; stroke: #000000; stroke-width: 0.8; stroke-linejoin: miter; stroke-linecap: square"/>
   </g>
   <g id="patch_6">
    <path d="M 72 51.84 
L 518.4 51.84 
" style="fill: none; stroke: #000000; stroke-width: 0.8; stroke-linejoin: miter; stroke-linecap: square"/>
   </g>
  </g>
 </g>
 <defs>
  <clipPath id="pc9df590e0b">
   <rect x="72" y="51.84" width="446.4" height="332.64"/>
  </clipPath>
 </defs>
</svg>
