<?xml version="1.0" encoding="utf-8" standalone="no"?>
<!DOCTYPE svg PUBLIC "-//W3C//DTD SVG 1.1//EN"
  "http://www.w3.org/Graphics/SVG/1.1/DTD/svg11.dtd">
<svg xmlns:xlink="http://www.w3.org/1999/xlink" width="576pt" height="432pt" viewBox="0 0 576 432" xmlns="http://www.w3.org/2000/svg" version="1.1">
 <metadata>
  <rdf:RDF xmlns:dc="http://purl.org/dc/elements/1.1/" xmlns:cc="http://creativecommons.org/ns#" xmlns:rdf="http://www.w3.org/1999/02/22-rdf-syntax-ns#">
   <cc:Work>
    <dc:type rdf:resource="http://purl.org/dc/dcmitype/StillImage"/>
    <dc:date>2023-05-04T06:37:44.245299</dc:date>
    <dc:format>image/svg+xml</dc:format>
    <dc:creator>
     <cc:Agent>
      <dc:title>Matplotlib v3.7.1, https://matplotlib.org/</dc:title>
     </cc:Agent>
    </dc:creator>
   </cc:Work>
  </rdf:RDF>
 </metadata>
 <defs>
  <style type="text/css">*{stroke-linejoin: round; stroke-linecap: butt}</style>
 </defs>
 <g id="figure_1">
  <g id="patch_1">
   <path d="M 0 432 
L 576 432 
L 576 0 
L 0 0 
z
" style="fill: #ffffff"/>
  </g>
  <g id="axes_1">
   <g id="patch_2">
    <path d="M 72 384.48 
L 518.4 384.48 
L 518.4 51.84 
L 72 51.84 
z
" style="fill: #ffffff"/>
   </g>
   <g id="matplotlib.axis_1">
    <g id="xtick_1">
     <g id="line2d_1">
      <defs>
       <path id="m6d8dc95f5f" d="M 0 0 
L 0 3.5 
" style="stroke: #000000; stroke-width: 0.8"/>
      </defs>
      <g>
       <use xlink:href="#m6d8dc95f5f" x="92.290909" y="384.48" style="stroke: #000000; stroke-width: 0.8"/>
      </g>
     </g>
     <g id="text_1">
      <!-- 0.0 -->
      <g transform="translate(84.339347 399.078438) scale(0.1 -0.1)">
       <defs>
        <path id="DejaVuSans-30" d="M 2034 4250 
Q 1547 4250 1301 3770 
Q 1056 3291 1056 2328 
Q 1056 1369 1301 889 
Q 1547 409 2034 409 
Q 2525 409 2770 889 
Q 3016 1369 3016 2328 
Q 3016 3291 2770 3770 
Q 2525 4250 2034 4250 
z
M 2034 4750 
Q 2819 4750 3233 4129 
Q 3647 3509 3647 2328 
Q 3647 1150 3233 529 
Q 2819 -91 2034 -91 
Q 1250 -91 836 529 
Q 422 1150 422 2328 
Q 422 3509 836 4129 
Q 1250 4750 2034 4750 
z
" transform="scale(0.015625)"/>
        <path id="DejaVuSans-2e" d="M 684 794 
L 1344 794 
L 1344 0 
L 684 0 
L 684 794 
z
" transform="scale(0.015625)"/>
       </defs>
       <use xlink:href="#DejaVuSans-30"/>
       <use xlink:href="#DejaVuSans-2e" x="63.623047"/>
       <use xlink:href="#DejaVuSans-30" x="95.410156"/>
      </g>
     </g>
    </g>
    <g id="xtick_2">
     <g id="line2d_2">
      <g>
       <use xlink:href="#m6d8dc95f5f" x="173.454545" y="384.48" style="stroke: #000000; stroke-width: 0.8"/>
      </g>
     </g>
     <g id="text_2">
      <!-- 0.2 -->
      <g transform="translate(165.502983 399.078438) scale(0.1 -0.1)">
       <defs>
        <path id="DejaVuSans-32" d="M 1228 531 
L 3431 531 
L 3431 0 
L 469 0 
L 469 531 
Q 828 903 1448 1529 
Q 2069 2156 2228 2338 
Q 2531 2678 2651 2914 
Q 2772 3150 2772 3378 
Q 2772 3750 2511 3984 
Q 2250 4219 1831 4219 
Q 1534 4219 1204 4116 
Q 875 4013 500 3803 
L 500 4441 
Q 881 4594 1212 4672 
Q 1544 4750 1819 4750 
Q 2544 4750 2975 4387 
Q 3406 4025 3406 3419 
Q 3406 3131 3298 2873 
Q 3191 2616 2906 2266 
Q 2828 2175 2409 1742 
Q 1991 1309 1228 531 
z
" transform="scale(0.015625)"/>
       </defs>
       <use xlink:href="#DejaVuSans-30"/>
       <use xlink:href="#DejaVuSans-2e" x="63.623047"/>
       <use xlink:href="#DejaVuSans-32" x="95.410156"/>
      </g>
     </g>
    </g>
    <g id="xtick_3">
     <g id="line2d_3">
      <g>
       <use xlink:href="#m6d8dc95f5f" x="254.618182" y="384.48" style="stroke: #000000; stroke-width: 0.8"/>
      </g>
     </g>
     <g id="text_3">
      <!-- 0.4 -->
      <g transform="translate(246.666619 399.078438) scale(0.1 -0.1)">
       <defs>
        <path id="DejaVuSans-34" d="M 2419 4116 
L 825 1625 
L 2419 1625 
L 2419 4116 
z
M 2253 4666 
L 3047 4666 
L 3047 1625 
L 3713 1625 
L 3713 1100 
L 3047 1100 
L 3047 0 
L 2419 0 
L 2419 1100 
L 313 1100 
L 313 1709 
L 2253 4666 
z
" transform="scale(0.015625)"/>
       </defs>
       <use xlink:href="#DejaVuSans-30"/>
       <use xlink:href="#DejaVuSans-2e" x="63.623047"/>
       <use xlink:href="#DejaVuSans-34" x="95.410156"/>
      </g>
     </g>
    </g>
    <g id="xtick_4">
     <g id="line2d_4">
      <g>
       <use xlink:href="#m6d8dc95f5f" x="335.781818" y="384.48" style="stroke: #000000; stroke-width: 0.8"/>
      </g>
     </g>
     <g id="text_4">
      <!-- 0.6 -->
      <g transform="translate(327.830256 399.078438) scale(0.1 -0.1)">
       <defs>
        <path id="DejaVuSans-36" d="M 2113 2584 
Q 1688 2584 1439 2293 
Q 1191 2003 1191 1497 
Q 1191 994 1439 701 
Q 1688 409 2113 409 
Q 2538 409 2786 701 
Q 3034 994 3034 1497 
Q 3034 2003 2786 2293 
Q 2538 2584 2113 2584 
z
M 3366 4563 
L 3366 3988 
Q 3128 4100 2886 4159 
Q 2644 4219 2406 4219 
Q 1781 4219 1451 3797 
Q 1122 3375 1075 2522 
Q 1259 2794 1537 2939 
Q 1816 3084 2150 3084 
Q 2853 3084 3261 2657 
Q 3669 2231 3669 1497 
Q 3669 778 3244 343 
Q 2819 -91 2113 -91 
Q 1303 -91 875 529 
Q 447 1150 447 2328 
Q 447 3434 972 4092 
Q 1497 4750 2381 4750 
Q 2619 4750 2861 4703 
Q 3103 4656 3366 4563 
z
" transform="scale(0.015625)"/>
       </defs>
       <use xlink:href="#DejaVuSans-30"/>
       <use xlink:href="#DejaVuSans-2e" x="63.623047"/>
       <use xlink:href="#DejaVuSans-36" x="95.410156"/>
      </g>
     </g>
    </g>
    <g id="xtick_5">
     <g id="line2d_5">
      <g>
       <use xlink:href="#m6d8dc95f5f" x="416.945455" y="384.48" style="stroke: #000000; stroke-width: 0.8"/>
      </g>
     </g>
     <g id="text_5">
      <!-- 0.8 -->
      <g transform="translate(408.993892 399.078438) scale(0.1 -0.1)">
       <defs>
        <path id="DejaVuSans-38" d="M 2034 2216 
Q 1584 2216 1326 1975 
Q 1069 1734 1069 1313 
Q 1069 891 1326 650 
Q 1584 409 2034 409 
Q 2484 409 2743 651 
Q 3003 894 3003 1313 
Q 3003 1734 2745 1975 
Q 2488 2216 2034 2216 
z
M 1403 2484 
Q 997 2584 770 2862 
Q 544 3141 544 3541 
Q 544 4100 942 4425 
Q 1341 4750 2034 4750 
Q 2731 4750 3128 4425 
Q 3525 4100 3525 3541 
Q 3525 3141 3298 2862 
Q 3072 2584 2669 2484 
Q 3125 2378 3379 2068 
Q 3634 1759 3634 1313 
Q 3634 634 3220 271 
Q 2806 -91 2034 -91 
Q 1263 -91 848 271 
Q 434 634 434 1313 
Q 434 1759 690 2068 
Q 947 2378 1403 2484 
z
M 1172 3481 
Q 1172 3119 1398 2916 
Q 1625 2713 2034 2713 
Q 2441 2713 2670 2916 
Q 2900 3119 2900 3481 
Q 2900 3844 2670 4047 
Q 2441 4250 2034 4250 
Q 1625 4250 1398 4047 
Q 1172 3844 1172 3481 
z
" transform="scale(0.015625)"/>
       </defs>
       <use xlink:href="#DejaVuSans-30"/>
       <use xlink:href="#DejaVuSans-2e" x="63.623047"/>
       <use xlink:href="#DejaVuSans-38" x="95.410156"/>
      </g>
     </g>
    </g>
    <g id="xtick_6">
     <g id="line2d_6">
      <g>
       <use xlink:href="#m6d8dc95f5f" x="498.109091" y="384.48" style="stroke: #000000; stroke-width: 0.8"/>
      </g>
     </g>
     <g id="text_6">
      <!-- 1.0 -->
      <g transform="translate(490.157528 399.078438) scale(0.1 -0.1)">
       <defs>
        <path id="DejaVuSans-31" d="M 794 531 
L 1825 531 
L 1825 4091 
L 703 3866 
L 703 4441 
L 1819 4666 
L 2450 4666 
L 2450 531 
L 3481 531 
L 3481 0 
L 794 0 
L 794 531 
z
" transform="scale(0.015625)"/>
       </defs>
       <use xlink:href="#DejaVuSans-31"/>
       <use xlink:href="#DejaVuSans-2e" x="63.623047"/>
       <use xlink:href="#DejaVuSans-30" x="95.410156"/>
      </g>
     </g>
    </g>
   </g>
   <g id="matplotlib.axis_2">
    <g id="ytick_1">
     <g id="line2d_7">
      <defs>
       <path id="m3f7f99b0a5" d="M 0 0 
L -3.5 0 
" style="stroke: #000000; stroke-width: 0.8"/>
      </defs>
      <g>
       <use xlink:href="#m3f7f99b0a5" x="72" y="369.36" style="stroke: #000000; stroke-width: 0.8"/>
      </g>
     </g>
     <g id="text_7">
      <!-- −5.0 -->
      <g transform="translate(40.717187 373.159219) scale(0.1 -0.1)">
       <defs>
        <path id="DejaVuSans-2212" d="M 678 2272 
L 4684 2272 
L 4684 1741 
L 678 1741 
L 678 2272 
z
" transform="scale(0.015625)"/>
        <path id="DejaVuSans-35" d="M 691 4666 
L 3169 4666 
L 3169 4134 
L 1269 4134 
L 1269 2991 
Q 1406 3038 1543 3061 
Q 1681 3084 1819 3084 
Q 2600 3084 3056 2656 
Q 3513 2228 3513 1497 
Q 3513 744 3044 326 
Q 2575 -91 1722 -91 
Q 1428 -91 1123 -41 
Q 819 9 494 109 
L 494 744 
Q 775 591 1075 516 
Q 1375 441 1709 441 
Q 2250 441 2565 725 
Q 2881 1009 2881 1497 
Q 2881 1984 2565 2268 
Q 2250 2553 1709 2553 
Q 1456 2553 1204 2497 
Q 953 2441 691 2322 
L 691 4666 
z
" transform="scale(0.015625)"/>
       </defs>
       <use xlink:href="#DejaVuSans-2212"/>
       <use xlink:href="#DejaVuSans-35" x="83.789062"/>
       <use xlink:href="#DejaVuSans-2e" x="147.412109"/>
       <use xlink:href="#DejaVuSans-30" x="179.199219"/>
      </g>
     </g>
    </g>
    <g id="ytick_2">
     <g id="line2d_8">
      <g>
       <use xlink:href="#m3f7f99b0a5" x="72" y="331.56" style="stroke: #000000; stroke-width: 0.8"/>
      </g>
     </g>
     <g id="text_8">
      <!-- −2.5 -->
      <g transform="translate(40.717187 335.359219) scale(0.1 -0.1)">
       <use xlink:href="#DejaVuSans-2212"/>
       <use xlink:href="#DejaVuSans-32" x="83.789062"/>
       <use xlink:href="#DejaVuSans-2e" x="147.412109"/>
       <use xlink:href="#DejaVuSans-35" x="179.199219"/>
      </g>
     </g>
    </g>
    <g id="ytick_3">
     <g id="line2d_9">
      <g>
       <use xlink:href="#m3f7f99b0a5" x="72" y="293.76" style="stroke: #000000; stroke-width: 0.8"/>
      </g>
     </g>
     <g id="text_9">
      <!-- 0.0 -->
      <g transform="translate(49.096875 297.559219) scale(0.1 -0.1)">
       <use xlink:href="#DejaVuSans-30"/>
       <use xlink:href="#DejaVuSans-2e" x="63.623047"/>
       <use xlink:href="#DejaVuSans-30" x="95.410156"/>
      </g>
     </g>
    </g>
    <g id="ytick_4">
     <g id="line2d_10">
      <g>
       <use xlink:href="#m3f7f99b0a5" x="72" y="255.96" style="stroke: #000000; stroke-width: 0.8"/>
      </g>
     </g>
     <g id="text_10">
      <!-- 2.5 -->
      <g transform="translate(49.096875 259.759219) scale(0.1 -0.1)">
       <use xlink:href="#DejaVuSans-32"/>
       <use xlink:href="#DejaVuSans-2e" x="63.623047"/>
       <use xlink:href="#DejaVuSans-35" x="95.410156"/>
      </g>
     </g>
    </g>
    <g id="ytick_5">
     <g id="line2d_11">
      <g>
       <use xlink:href="#m3f7f99b0a5" x="72" y="218.16" style="stroke: #000000; stroke-width: 0.8"/>
      </g>
     </g>
     <g id="text_11">
      <!-- 5.0 -->
      <g transform="translate(49.096875 221.959219) scale(0.1 -0.1)">
       <use xlink:href="#DejaVuSans-35"/>
       <use xlink:href="#DejaVuSans-2e" x="63.623047"/>
       <use xlink:href="#DejaVuSans-30" x="95.410156"/>
      </g>
     </g>
    </g>
    <g id="ytick_6">
     <g id="line2d_12">
      <g>
       <use xlink:href="#m3f7f99b0a5" x="72" y="180.36" style="stroke: #000000; stroke-width: 0.8"/>
      </g>
     </g>
     <g id="text_12">
      <!-- 7.5 -->
      <g transform="translate(49.096875 184.159219) scale(0.1 -0.1)">
       <defs>
        <path id="DejaVuSans-37" d="M 525 4666 
L 3525 4666 
L 3525 4397 
L 1831 0 
L 1172 0 
L 2766 4134 
L 525 4134 
L 525 4666 
z
" transform="scale(0.015625)"/>
       </defs>
       <use xlink:href="#DejaVuSans-37"/>
       <use xlink:href="#DejaVuSans-2e" x="63.623047"/>
       <use xlink:href="#DejaVuSans-35" x="95.410156"/>
      </g>
     </g>
    </g>
    <g id="ytick_7">
     <g id="line2d_13">
      <g>
       <use xlink:href="#m3f7f99b0a5" x="72" y="142.56" style="stroke: #000000; stroke-width: 0.8"/>
      </g>
     </g>
     <g id="text_13">
      <!-- 10.0 -->
      <g transform="translate(42.734375 146.359219) scale(0.1 -0.1)">
       <use xlink:href="#DejaVuSans-31"/>
       <use xlink:href="#DejaVuSans-30" x="63.623047"/>
       <use xlink:href="#DejaVuSans-2e" x="127.246094"/>
       <use xlink:href="#DejaVuSans-30" x="159.033203"/>
      </g>
     </g>
    </g>
    <g id="ytick_8">
     <g id="line2d_14">
      <g>
       <use xlink:href="#m3f7f99b0a5" x="72" y="104.76" style="stroke: #000000; stroke-width: 0.8"/>
      </g>
     </g>
     <g id="text_14">
      <!-- 12.5 -->
      <g transform="translate(42.734375 108.559219) scale(0.1 -0.1)">
       <use xlink:href="#DejaVuSans-31"/>
       <use xlink:href="#DejaVuSans-32" x="63.623047"/>
       <use xlink:href="#DejaVuSans-2e" x="127.246094"/>
       <use xlink:href="#DejaVuSans-35" x="159.033203"/>
      </g>
     </g>
    </g>
    <g id="ytick_9">
     <g id="line2d_15">
      <g>
       <use xlink:href="#m3f7f99b0a5" x="72" y="66.96" style="stroke: #000000; stroke-width: 0.8"/>
      </g>
     </g>
     <g id="text_15">
      <!-- 15.0 -->
      <g transform="translate(42.734375 70.759219) scale(0.1 -0.1)">
       <use xlink:href="#DejaVuSans-31"/>
       <use xlink:href="#DejaVuSans-35" x="63.623047"/>
       <use xlink:href="#DejaVuSans-2e" x="127.246094"/>
       <use xlink:href="#DejaVuSans-30" x="159.033203"/>
      </g>
     </g>
    </g>
   </g>
   <g id="line2d_16">
    <path d="M 92.290909 338.108472 
L 96.349091 338.105448 
L 100.407273 338.094864 
L 104.465455 338.078232 
L 108.523636 338.055552 
L 112.581818 338.026824 
L 116.64 337.990536 
L 120.698182 337.949712 
L 124.756364 337.901328 
L 128.814545 337.846896 
L 132.872727 337.786416 
L 136.930909 337.719888 
L 140.989091 337.648824 
L 145.047273 337.5702 
L 149.105455 337.48704 
L 153.163636 337.399344 
L 157.221818 337.307112 
L 161.28 337.208832 
L 165.338182 337.106016 
L 169.396364 337.000176 
L 173.454545 336.8898 
L 177.512727 336.774888 
L 181.570909 336.656952 
L 185.629091 336.535992 
L 189.687273 336.41352 
L 193.745455 336.286512 
L 197.803636 336.159504 
L 201.861818 336.030984 
L 205.92 335.89944 
L 209.978182 335.769408 
L 214.036364 335.637864 
L 218.094545 335.507832 
L 222.152727 335.3778 
L 226.210909 335.24928 
L 230.269091 335.122272 
L 234.327273 334.998288 
L 238.385455 334.877328 
L 242.443636 334.759392 
L 246.501818 334.645992 
L 250.56 334.537128 
L 254.618182 334.4328 
L 258.676364 334.336032 
L 262.734545 334.2438 
L 266.792727 334.157616 
L 270.850909 334.080504 
L 274.909091 334.00944 
L 278.967273 333.947448 
L 283.025455 333.893016 
L 287.083636 333.846144 
L 291.141818 333.809856 
L 295.2 333.78264 
L 299.258182 333.762984 
L 303.316364 333.7524 
L 307.374545 333.7524 
L 311.432727 333.761472 
L 315.490909 333.778104 
L 319.549091 333.803808 
L 323.607273 333.838584 
L 327.665455 333.88092 
L 331.723636 333.930816 
L 335.781818 333.988272 
L 339.84 334.053288 
L 343.898182 334.124352 
L 347.956364 334.201464 
L 352.014545 334.284624 
L 356.072727 334.37232 
L 360.130909 334.464552 
L 364.189091 334.559808 
L 368.247273 334.6596 
L 372.305455 334.760904 
L 376.363636 334.865232 
L 380.421818 334.971072 
L 384.48 335.078424 
L 388.538182 335.185776 
L 392.596364 335.293128 
L 396.654545 335.40048 
L 400.712727 335.507832 
L 404.770909 335.613672 
L 408.829091 335.718 
L 412.887273 335.819304 
L 416.945455 335.919096 
L 421.003636 336.015864 
L 425.061818 336.109608 
L 429.12 336.200328 
L 433.178182 336.288024 
L 437.236364 336.369672 
L 441.294545 336.448296 
L 445.352727 336.522384 
L 449.410909 336.591936 
L 453.469091 336.656952 
L 457.527273 336.717432 
L 461.585455 336.771864 
L 465.643636 336.820248 
L 469.701818 336.864096 
L 473.76 336.901896 
L 477.818182 336.93516 
L 481.876364 336.962376 
L 485.934545 336.982032 
L 489.992727 336.997152 
L 494.050909 337.006224 
L 498.109091 337.009248 
" clip-path="url(#p882dd7d9d2)" style="fill: none; stroke: #000000; stroke-opacity: 0.5; stroke-linecap: square"/>
   </g>
   <g id="line2d_17">
    <path d="M 92.290909 299.307528 
L 96.349091 299.312064 
L 100.407273 299.325672 
L 104.465455 299.34684 
L 108.523636 299.37708 
L 112.581818 299.41488 
L 116.64 299.461752 
L 120.698182 299.517696 
L 124.756364 299.5812 
L 128.814545 299.653776 
L 132.872727 299.733912 
L 136.930909 299.82312 
L 140.989091 299.919888 
L 145.047273 300.025728 
L 149.105455 300.139128 
L 153.163636 300.260088 
L 157.221818 300.39012 
L 161.28 300.5262 
L 165.338182 300.66984 
L 169.396364 300.819528 
L 173.454545 300.976776 
L 177.512727 301.13856 
L 181.570909 301.307904 
L 185.629091 301.481784 
L 189.687273 301.658688 
L 193.745455 301.84164 
L 197.803636 302.027616 
L 201.861818 302.215104 
L 205.92 302.405616 
L 209.978182 302.59764 
L 214.036364 302.789664 
L 218.094545 302.980176 
L 222.152727 303.170688 
L 226.210909 303.359688 
L 230.269091 303.545664 
L 234.327273 303.727104 
L 238.385455 303.904008 
L 242.443636 304.076376 
L 246.501818 304.241184 
L 250.56 304.399944 
L 254.618182 304.549632 
L 258.676364 304.690248 
L 262.734545 304.82028 
L 266.792727 304.94124 
L 270.850909 305.051616 
L 274.909091 305.148384 
L 278.967273 305.234568 
L 283.025455 305.307144 
L 287.083636 305.366112 
L 291.141818 305.412984 
L 295.2 305.444736 
L 299.258182 305.464392 
L 303.316364 305.468928 
L 307.374545 305.459856 
L 311.432727 305.437176 
L 315.490909 305.400888 
L 319.549091 305.352504 
L 323.607273 305.290512 
L 327.665455 305.216424 
L 331.723636 305.131752 
L 335.781818 305.034984 
L 339.84 304.927632 
L 343.898182 304.81272 
L 347.956364 304.687224 
L 352.014545 304.55568 
L 356.072727 304.415064 
L 360.130909 304.269912 
L 364.189091 304.118712 
L 368.247273 303.962976 
L 372.305455 303.804216 
L 376.363636 303.642432 
L 380.421818 303.479136 
L 384.48 303.31584 
L 388.538182 303.151032 
L 392.596364 302.987736 
L 396.654545 302.82444 
L 400.712727 302.664168 
L 404.770909 302.50692 
L 408.829091 302.354208 
L 412.887273 302.203008 
L 416.945455 302.057856 
L 421.003636 301.91724 
L 425.061818 301.782672 
L 429.12 301.65264 
L 433.178182 301.530168 
L 437.236364 301.413744 
L 441.294545 301.303368 
L 445.352727 301.200552 
L 449.410909 301.103784 
L 453.469091 301.016088 
L 457.527273 300.93444 
L 461.585455 300.860352 
L 465.643636 300.795336 
L 469.701818 300.736368 
L 473.76 300.68496 
L 477.818182 300.642624 
L 481.876364 300.607848 
L 485.934545 300.57912 
L 489.992727 300.559464 
L 494.050909 300.54888 
L 498.109091 300.544344 
" clip-path="url(#p882dd7d9d2)" style="fill: none; stroke: #000000; stroke-opacity: 0.5; stroke-linecap: square"/>
   </g>
   <g id="line2d_18">
    <path d="M 92.290909 249.958872 
L 96.349091 250.049592 
L 100.407273 250.29756 
L 104.465455 250.651368 
L 108.523636 251.071704 
L 112.581818 251.528328 
L 116.64 252.004608 
L 120.698182 252.492984 
L 124.756364 252.984384 
L 128.814545 253.474272 
L 132.872727 253.961136 
L 136.930909 254.44044 
L 140.989091 254.910672 
L 145.047273 255.371832 
L 149.105455 255.819384 
L 153.163636 256.253328 
L 157.221818 256.673664 
L 161.28 257.07888 
L 165.338182 257.467464 
L 169.396364 257.840928 
L 173.454545 258.19776 
L 177.512727 258.536448 
L 181.570909 258.858504 
L 185.629091 259.162416 
L 189.687273 259.449696 
L 193.745455 259.718832 
L 197.803636 259.971336 
L 201.861818 260.207208 
L 205.92 260.426448 
L 209.978182 260.630568 
L 214.036364 260.818056 
L 218.094545 260.990424 
L 222.152727 261.149184 
L 226.210909 261.294336 
L 230.269091 261.42588 
L 234.327273 261.54684 
L 238.385455 261.655704 
L 242.443636 261.753984 
L 246.501818 261.84168 
L 250.56 261.921816 
L 254.618182 261.994392 
L 258.676364 262.059408 
L 262.734545 262.116864 
L 266.792727 262.169784 
L 270.850909 262.216656 
L 274.909091 262.258992 
L 278.967273 262.296792 
L 283.025455 262.331568 
L 287.083636 262.361808 
L 291.141818 262.389024 
L 295.2 262.413216 
L 299.258182 262.434384 
L 303.316364 262.451016 
L 307.374545 262.464624 
L 311.432727 262.473696 
L 315.490909 262.478232 
L 319.549091 262.47672 
L 323.607273 262.470672 
L 327.665455 262.457064 
L 331.723636 262.435896 
L 335.781818 262.407168 
L 339.84 262.369368 
L 343.898182 262.322496 
L 347.956364 262.263528 
L 352.014545 262.195488 
L 356.072727 262.11384 
L 360.130909 262.018584 
L 364.189091 261.911232 
L 368.247273 261.787248 
L 372.305455 261.649656 
L 376.363636 261.495432 
L 380.421818 261.326088 
L 384.48 261.1386 
L 388.538182 260.932968 
L 392.596364 260.710704 
L 396.654545 260.470296 
L 400.712727 260.210232 
L 404.770909 259.933536 
L 408.829091 259.637184 
L 412.887273 259.322688 
L 416.945455 258.988536 
L 421.003636 258.637752 
L 425.061818 258.267312 
L 429.12 257.881752 
L 433.178182 257.478048 
L 437.236364 257.057712 
L 441.294545 256.622256 
L 445.352727 256.173192 
L 449.410909 255.71052 
L 453.469091 255.235752 
L 457.527273 254.7504 
L 461.585455 254.259 
L 465.643636 253.761552 
L 469.701818 253.26108 
L 473.76 252.765144 
L 477.818182 252.276768 
L 481.876364 251.811072 
L 485.934545 251.380152 
L 489.992727 251.01576 
L 494.050909 250.761744 
L 498.109091 250.668 
" clip-path="url(#p882dd7d9d2)" style="fill: none; stroke: #000000; stroke-opacity: 0.5; stroke-linecap: square"/>
   </g>
   <g id="line2d_19">
    <path d="M 92.290909 246.718656 
L 96.349091 246.632472 
L 100.407273 246.399624 
L 104.465455 246.070008 
L 108.523636 245.68596 
L 112.581818 245.276208 
L 116.64 244.857384 
L 120.698182 244.43856 
L 124.756364 244.03032 
L 128.814545 243.6372 
L 132.872727 243.262224 
L 136.930909 242.908416 
L 140.989091 242.580312 
L 145.047273 242.277912 
L 149.105455 242.00424 
L 153.163636 241.760808 
L 157.221818 241.547616 
L 161.28 241.366176 
L 165.338182 241.216488 
L 169.396364 241.09704 
L 173.454545 241.009344 
L 177.512727 240.951888 
L 181.570909 240.92316 
L 185.629091 240.920136 
L 189.687273 240.944328 
L 193.745455 240.9912 
L 197.803636 241.060752 
L 201.861818 241.14996 
L 205.92 241.2558 
L 209.978182 241.37676 
L 214.036364 241.509816 
L 218.094545 241.653456 
L 222.152727 241.804656 
L 226.210909 241.961904 
L 230.269091 242.122176 
L 234.327273 242.28396 
L 238.385455 242.444232 
L 242.443636 242.60148 
L 246.501818 242.754192 
L 250.56 242.900856 
L 254.618182 243.038448 
L 258.676364 243.165456 
L 262.734545 243.28188 
L 266.792727 243.384696 
L 270.850909 243.475416 
L 274.909091 243.549504 
L 278.967273 243.608472 
L 283.025455 243.65232 
L 287.083636 243.678024 
L 291.141818 243.687096 
L 295.2 243.678024 
L 299.258182 243.65232 
L 303.316364 243.611496 
L 307.374545 243.552528 
L 311.432727 243.476928 
L 315.490909 243.38772 
L 319.549091 243.284904 
L 323.607273 243.166968 
L 327.665455 243.038448 
L 331.723636 242.899344 
L 335.781818 242.751168 
L 339.84 242.595432 
L 343.898182 242.433648 
L 347.956364 242.267328 
L 352.014545 242.101008 
L 356.072727 241.933176 
L 360.130909 241.768368 
L 364.189091 241.606584 
L 368.247273 241.45236 
L 372.305455 241.307208 
L 376.363636 241.17264 
L 380.421818 241.05168 
L 384.48 240.94584 
L 388.538182 240.859656 
L 392.596364 240.793128 
L 396.654545 240.74928 
L 400.712727 240.729624 
L 404.770909 240.737184 
L 408.829091 240.77196 
L 412.887273 240.836976 
L 416.945455 240.932232 
L 421.003636 241.05924 
L 425.061818 241.218 
L 429.12 241.410024 
L 433.178182 241.6338 
L 437.236364 241.889328 
L 441.294545 242.175096 
L 445.352727 242.491104 
L 449.410909 242.834328 
L 453.469091 243.203256 
L 457.527273 243.594864 
L 461.585455 244.00764 
L 465.643636 244.437048 
L 469.701818 244.880064 
L 473.76 245.327616 
L 477.818182 245.77668 
L 481.876364 246.212136 
L 485.934545 246.618864 
L 489.992727 246.966624 
L 494.050909 247.211568 
L 498.109091 247.302288 
" clip-path="url(#p882dd7d9d2)" style="fill: none; stroke: #000000; stroke-opacity: 0.5; stroke-linecap: square"/>
   </g>
   <g id="line2d_20">
    <path d="M 92.290909 184.590576 
L 96.349091 184.640472 
L 100.407273 184.784112 
L 104.465455 185.00184 
L 108.523636 185.269464 
L 112.581818 185.562792 
L 116.64 185.862168 
L 120.698182 186.15096 
L 124.756364 186.417072 
L 128.814545 186.64992 
L 132.872727 186.843456 
L 136.930909 186.991632 
L 140.989091 187.0884 
L 145.047273 187.132248 
L 149.105455 187.117128 
L 153.163636 187.04304 
L 157.221818 186.90696 
L 161.28 186.707376 
L 165.338182 186.4458 
L 169.396364 186.12072 
L 173.454545 185.732136 
L 177.512727 185.28156 
L 181.570909 184.76748 
L 185.629091 184.19292 
L 189.687273 183.559392 
L 193.745455 182.866896 
L 197.803636 182.119968 
L 201.861818 181.317096 
L 205.92 180.462816 
L 209.978182 179.55864 
L 214.036364 178.604568 
L 218.094545 177.606648 
L 222.152727 176.563368 
L 226.210909 175.477752 
L 230.269091 174.352824 
L 234.327273 173.188584 
L 238.385455 171.989568 
L 242.443636 170.755776 
L 246.501818 169.487208 
L 250.56 168.189912 
L 254.618182 166.860864 
L 258.676364 165.506112 
L 262.734545 164.124144 
L 266.792727 162.716472 
L 270.850909 161.287632 
L 274.909091 159.839136 
L 278.967273 158.372496 
L 283.025455 156.898296 
L 287.083636 155.436192 
L 291.141818 154.095048 
L 295.2 153.80928 
L 299.258182 155.024928 
L 303.316364 156.473424 
L 307.374545 157.949136 
L 311.432727 159.4188 
L 315.490909 160.874856 
L 319.549091 162.309744 
L 323.607273 163.723464 
L 327.665455 165.112992 
L 331.723636 166.476816 
L 335.781818 167.813424 
L 339.84 169.119792 
L 343.898182 170.394408 
L 347.956364 171.637272 
L 352.014545 172.846872 
L 356.072727 174.018672 
L 360.130909 175.152672 
L 364.189091 176.245848 
L 368.247273 177.296688 
L 372.305455 178.305192 
L 376.363636 179.265312 
L 380.421818 180.17856 
L 384.48 181.0404 
L 388.538182 181.850832 
L 392.596364 182.60532 
L 396.654545 183.305376 
L 400.712727 183.944952 
L 404.770909 184.52556 
L 408.829091 185.044176 
L 412.887273 185.5008 
L 416.945455 185.89392 
L 421.003636 186.222024 
L 425.061818 186.485112 
L 429.12 186.684696 
L 433.178182 186.819264 
L 437.236364 186.89184 
L 441.294545 186.902424 
L 445.352727 186.852528 
L 449.410909 186.745176 
L 453.469091 186.583392 
L 457.527273 186.371712 
L 461.585455 186.114672 
L 465.643636 185.815296 
L 469.701818 185.48568 
L 473.76 185.131872 
L 477.818182 184.76748 
L 481.876364 184.410648 
L 485.934545 184.082544 
L 489.992727 183.813408 
L 494.050909 183.634992 
L 498.109091 183.571488 
" clip-path="url(#p882dd7d9d2)" style="fill: none; stroke: #000000; stroke-opacity: 0.5; stroke-linecap: square"/>
   </g>
   <g id="line2d_21">
    <path d="M 92.290909 176.177808 
L 96.349091 176.085576 
L 100.407273 175.814928 
L 104.465455 175.387032 
L 108.523636 174.824568 
L 112.581818 174.150216 
L 116.64 173.383632 
L 120.698182 172.541448 
L 124.756364 171.63576 
L 128.814545 170.674128 
L 132.872727 169.664112 
L 136.930909 168.610248 
L 140.989091 167.518584 
L 145.047273 166.390632 
L 149.105455 165.229416 
L 153.163636 164.03796 
L 157.221818 162.817776 
L 161.28 161.570376 
L 165.338182 160.298784 
L 169.396364 159.001488 
L 173.454545 157.683024 
L 177.512727 156.34188 
L 181.570909 154.98108 
L 185.629091 153.599112 
L 189.687273 152.200512 
L 193.745455 150.783768 
L 197.803636 149.350392 
L 201.861818 147.903408 
L 205.92 146.442816 
L 209.978182 144.97164 
L 214.036364 143.492904 
L 218.094545 142.011144 
L 222.152727 140.532408 
L 226.210909 139.071816 
L 230.269091 137.65356 
L 234.327273 136.335096 
L 238.385455 135.24948 
L 242.443636 134.702136 
L 246.501818 135.02268 
L 250.56 136.046304 
L 254.618182 137.410128 
L 258.676364 138.917592 
L 262.734545 140.485536 
L 266.792727 142.080696 
L 270.850909 143.68644 
L 274.909091 145.28916 
L 278.967273 146.881296 
L 283.025455 148.455288 
L 287.083636 149.985432 
L 291.141818 151.362864 
L 295.2 151.653168 
L 299.258182 150.411816 
L 303.316364 148.90284 
L 307.374545 147.33792 
L 311.432727 145.747296 
L 315.490909 144.141552 
L 319.549091 142.52976 
L 323.607273 140.917968 
L 327.665455 139.31676 
L 331.723636 137.74428 
L 335.781818 136.238328 
L 339.84 134.882064 
L 343.898182 133.87356 
L 347.956364 133.575696 
L 352.014545 134.132112 
L 356.072727 135.21924 
L 360.130909 136.540728 
L 364.189091 137.960496 
L 368.247273 139.425624 
L 372.305455 140.908896 
L 376.363636 142.396704 
L 380.421818 143.883 
L 384.48 145.361736 
L 388.538182 146.829888 
L 392.596364 148.285944 
L 396.654545 149.728392 
L 400.712727 151.15572 
L 404.770909 152.566416 
L 408.829091 153.958968 
L 412.887273 155.331864 
L 416.945455 156.686616 
L 421.003636 158.0202 
L 425.061818 159.332616 
L 429.12 160.62084 
L 433.178182 161.886384 
L 437.236364 163.124712 
L 441.294545 164.337336 
L 445.352727 165.521232 
L 449.410909 166.673376 
L 453.469091 167.793768 
L 457.527273 168.87636 
L 461.585455 169.918128 
L 465.643636 170.914536 
L 469.701818 171.859536 
L 473.76 172.744056 
L 477.818182 173.554488 
L 481.876364 174.277224 
L 485.934545 174.88656 
L 489.992727 175.356792 
L 494.050909 175.65768 
L 498.109091 175.760496 
" clip-path="url(#p882dd7d9d2)" style="fill: none; stroke: #000000; stroke-opacity: 0.5; stroke-linecap: square"/>
   </g>
   <g id="line2d_22">
    <path d="M 92.290909 95.920848 
L 96.349091 95.920848 
L 100.407273 95.916312 
L 104.465455 95.910264 
L 108.523636 95.89968 
L 112.581818 95.889096 
L 116.64 95.873976 
L 120.698182 95.857344 
L 124.756364 95.8392 
L 128.814545 95.818032 
L 132.872727 95.795352 
L 136.930909 95.769648 
L 140.989091 95.743944 
L 145.047273 95.716728 
L 149.105455 95.689512 
L 153.163636 95.666832 
L 157.221818 95.662296 
L 161.28 95.910264 
L 165.338182 97.37388 
L 169.396364 99.093024 
L 173.454545 100.84392 
L 177.512727 102.608424 
L 181.570909 104.383512 
L 185.629091 106.163136 
L 189.687273 107.944272 
L 193.745455 109.728432 
L 197.803636 111.509568 
L 201.861818 113.289192 
L 205.92 115.062768 
L 209.978182 116.827272 
L 214.036364 118.57968 
L 218.094545 120.316968 
L 222.152727 122.028552 
L 226.210909 123.702336 
L 230.269091 125.311104 
L 234.327273 126.801936 
L 238.385455 128.035728 
L 242.443636 128.71008 
L 246.501818 128.495376 
L 250.56 127.554912 
L 254.618182 126.25308 
L 258.676364 124.787952 
L 262.734545 123.241176 
L 266.792727 121.646016 
L 270.850909 120.026664 
L 274.909091 118.395216 
L 278.967273 116.768304 
L 283.025455 115.168608 
L 287.083636 113.643 
L 291.141818 112.31244 
L 295.2 111.492936 
L 299.258182 111.657744 
L 303.316364 112.681368 
L 307.374545 114.087528 
L 311.432727 115.637328 
L 315.490909 117.238536 
L 319.549091 118.856376 
L 323.607273 120.46968 
L 327.665455 122.05728 
L 331.723636 123.601032 
L 335.781818 125.0586 
L 339.84 126.349848 
L 343.898182 127.270656 
L 347.956364 127.461168 
L 352.014545 126.77472 
L 356.072727 125.537904 
L 360.130909 124.04556 
L 364.189091 122.433768 
L 368.247273 120.75696 
L 372.305455 119.04084 
L 376.363636 117.30204 
L 380.421818 115.545096 
L 384.48 113.774544 
L 388.538182 111.997944 
L 392.596364 110.215296 
L 396.654545 108.428112 
L 400.712727 106.640928 
L 404.770909 104.853744 
L 408.829091 103.069584 
L 412.887273 101.291472 
L 416.945455 99.52092 
L 421.003636 97.770024 
L 425.061818 96.220224 
L 429.12 96.055416 
L 433.178182 96.082632 
L 437.236364 96.11892 
L 441.294545 96.15672 
L 445.352727 96.193008 
L 449.410909 96.227784 
L 453.469091 96.259536 
L 457.527273 96.289776 
L 461.585455 96.316992 
L 465.643636 96.342696 
L 469.701818 96.365376 
L 473.76 96.38352 
L 477.818182 96.400152 
L 481.876364 96.415272 
L 485.934545 96.425856 
L 489.992727 96.433416 
L 494.050909 96.437952 
L 498.109091 96.439464 
" clip-path="url(#p882dd7d9d2)" style="fill: none; stroke: #000000; stroke-opacity: 0.5; stroke-linecap: square"/>
   </g>
   <g id="line2d_23">
    <path d="M 92.290909 75.286584 
L 96.349091 75.398472 
L 100.407273 75.726576 
L 104.465455 76.261824 
L 108.523636 76.986072 
L 112.581818 77.879664 
L 116.64 78.91992 
L 120.698182 80.085672 
L 124.756364 81.360288 
L 128.814545 82.725624 
L 132.872727 84.165048 
L 136.930909 85.669488 
L 140.989091 87.226848 
L 145.047273 88.826544 
L 149.105455 90.462528 
L 153.163636 92.122704 
L 157.221818 93.788928 
L 161.28 95.222304 
L 165.338182 95.458176 
L 169.396364 95.449104 
L 173.454545 95.420376 
L 177.512727 95.3856 
L 181.570909 95.346288 
L 185.629091 95.306976 
L 189.687273 95.266152 
L 193.745455 95.225328 
L 197.803636 95.184504 
L 201.861818 95.14368 
L 205.92 95.104368 
L 209.978182 95.065056 
L 214.036364 95.028768 
L 218.094545 94.99248 
L 222.152727 94.959216 
L 226.210909 94.927464 
L 230.269091 94.900248 
L 234.327273 94.876056 
L 238.385455 94.857912 
L 242.443636 94.847328 
L 246.501818 94.847328 
L 250.56 94.862448 
L 254.618182 94.90932 
L 258.676364 95.018184 
L 262.734545 95.288832 
L 266.792727 95.97528 
L 270.850909 97.2378 
L 274.909091 98.805744 
L 278.967273 100.456848 
L 283.025455 102.101904 
L 287.083636 103.666824 
L 291.141818 105.026112 
L 295.2 105.859224 
L 299.258182 105.691392 
L 303.316364 104.6466 
L 307.374545 103.208688 
L 311.432727 101.6226 
L 315.490909 99.992664 
L 319.549091 98.403552 
L 323.607273 96.986808 
L 327.665455 95.988888 
L 331.723636 95.49144 
L 335.781818 95.281272 
L 339.84 95.192064 
L 343.898182 95.1588 
L 347.956364 95.152752 
L 352.014545 95.164848 
L 356.072727 95.187528 
L 360.130909 95.217768 
L 364.189091 95.254056 
L 368.247273 95.293368 
L 372.305455 95.337216 
L 376.363636 95.382576 
L 380.421818 95.429448 
L 384.48 95.477832 
L 388.538182 95.527728 
L 392.596364 95.577624 
L 396.654545 95.62752 
L 400.712727 95.678928 
L 404.770909 95.728824 
L 408.829091 95.777208 
L 412.887273 95.82408 
L 416.945455 95.867928 
L 421.003636 95.901192 
L 425.061818 95.743944 
L 429.12 94.2138 
L 433.178182 92.506752 
L 437.236364 90.810288 
L 441.294545 89.136504 
L 445.352727 87.494472 
L 449.410909 85.888728 
L 453.469091 84.326832 
L 457.527273 82.817856 
L 461.585455 81.372384 
L 465.643636 80.004024 
L 469.701818 78.726384 
L 473.76 77.557608 
L 477.818182 76.514328 
L 481.876364 75.620736 
L 485.934545 74.894976 
L 489.992727 74.358216 
L 494.050909 74.0286 
L 498.109091 73.918224 
" clip-path="url(#p882dd7d9d2)" style="fill: none; stroke: #000000; stroke-opacity: 0.5; stroke-linecap: square"/>
   </g>
   <g id="patch_3">
    <path d="M 72 384.48 
L 72 51.84 
" style="fill: none; stroke: #000000; stroke-width: 0.8; stroke-linejoin: miter; stroke-linecap: square"/>
   </g>
   <g id="patch_4">
    <path d="M 518.4 384.48 
L 518.4 51.84 
" style="fill: none; stroke: #000000; stroke-width: 0.8; stroke-linejoin: miter; stroke-linecap: square"/>
   </g>
   <g id="patch_5">
    <path d="M 72 384.48 
L 518.4 384.48 
" style="fill: none; stroke: #000000; stroke-width: 0.8; stroke-linejoin: miter; stroke-linecap: square"/>
   </g>
   <g id="patch_6">
    <path d="M 72 51.84 
L 518.4 51.84 
" style="fill: none; stroke: #000000; stroke-width: 0.8; stroke-linejoin: miter; stroke-linecap: square"/>
   </g>
  </g>
 </g>
 <defs>
  <clipPath id="p882dd7d9d2">
   <rect x="72" y="51.84" width="446.4" height="332.64"/>
  </clipPath>
 </defs>
</svg>
