<?xml version="1.0" encoding="utf-8" standalone="no"?>
<!DOCTYPE svg PUBLIC "-//W3C//DTD SVG 1.1//EN"
  "http://www.w3.org/Graphics/SVG/1.1/DTD/svg11.dtd">
<svg xmlns:xlink="http://www.w3.org/1999/xlink" width="576pt" height="432pt" viewBox="0 0 576 432" xmlns="http://www.w3.org/2000/svg" version="1.1">
 <metadata>
  <rdf:RDF xmlns:dc="http://purl.org/dc/elements/1.1/" xmlns:cc="http://creativecommons.org/ns#" xmlns:rdf="http://www.w3.org/1999/02/22-rdf-syntax-ns#">
   <cc:Work>
    <dc:type rdf:resource="http://purl.org/dc/dcmitype/StillImage"/>
    <dc:date>2023-05-03T06:09:32.324276</dc:date>
    <dc:format>image/svg+xml</dc:format>
    <dc:creator>
     <cc:Agent>
      <dc:title>Matplotlib v3.7.1, https://matplotlib.org/</dc:title>
     </cc:Agent>
    </dc:creator>
   </cc:Work>
  </rdf:RDF>
 </metadata>
 <defs>
  <style type="text/css">*{stroke-linejoin: round; stroke-linecap: butt}</style>
 </defs>
 <g id="figure_1">
  <g id="patch_1">
   <path d="M 0 432 
L 576 432 
L 576 0 
L 0 0 
z
" style="fill: #ffffff"/>
  </g>
  <g id="axes_1">
   <g id="patch_2">
    <path d="M 72 384.48 
L 518.4 384.48 
L 518.4 51.84 
L 72 51.84 
z
" style="fill: #ffffff"/>
   </g>
   <g id="matplotlib.axis_1">
    <g id="xtick_1">
     <g id="line2d_1">
      <defs>
       <path id="m6426e92821" d="M 0 0 
L 0 3.5 
" style="stroke: #000000; stroke-width: 0.8"/>
      </defs>
      <g>
       <use xlink:href="#m6426e92821" x="92.290909" y="384.48" style="stroke: #000000; stroke-width: 0.8"/>
      </g>
     </g>
     <g id="text_1">
      <!-- 0.0 -->
      <g transform="translate(84.339347 399.078438) scale(0.1 -0.1)">
       <defs>
        <path id="DejaVuSans-30" d="M 2034 4250 
Q 1547 4250 1301 3770 
Q 1056 3291 1056 2328 
Q 1056 1369 1301 889 
Q 1547 409 2034 409 
Q 2525 409 2770 889 
Q 3016 1369 3016 2328 
Q 3016 3291 2770 3770 
Q 2525 4250 2034 4250 
z
M 2034 4750 
Q 2819 4750 3233 4129 
Q 3647 3509 3647 2328 
Q 3647 1150 3233 529 
Q 2819 -91 2034 -91 
Q 1250 -91 836 529 
Q 422 1150 422 2328 
Q 422 3509 836 4129 
Q 1250 4750 2034 4750 
z
" transform="scale(0.015625)"/>
        <path id="DejaVuSans-2e" d="M 684 794 
L 1344 794 
L 1344 0 
L 684 0 
L 684 794 
z
" transform="scale(0.015625)"/>
       </defs>
       <use xlink:href="#DejaVuSans-30"/>
       <use xlink:href="#DejaVuSans-2e" x="63.623047"/>
       <use xlink:href="#DejaVuSans-30" x="95.410156"/>
      </g>
     </g>
    </g>
    <g id="xtick_2">
     <g id="line2d_2">
      <g>
       <use xlink:href="#m6426e92821" x="173.454545" y="384.48" style="stroke: #000000; stroke-width: 0.8"/>
      </g>
     </g>
     <g id="text_2">
      <!-- 0.2 -->
      <g transform="translate(165.502983 399.078438) scale(0.1 -0.1)">
       <defs>
        <path id="DejaVuSans-32" d="M 1228 531 
L 3431 531 
L 3431 0 
L 469 0 
L 469 531 
Q 828 903 1448 1529 
Q 2069 2156 2228 2338 
Q 2531 2678 2651 2914 
Q 2772 3150 2772 3378 
Q 2772 3750 2511 3984 
Q 2250 4219 1831 4219 
Q 1534 4219 1204 4116 
Q 875 4013 500 3803 
L 500 4441 
Q 881 4594 1212 4672 
Q 1544 4750 1819 4750 
Q 2544 4750 2975 4387 
Q 3406 4025 3406 3419 
Q 3406 3131 3298 2873 
Q 3191 2616 2906 2266 
Q 2828 2175 2409 1742 
Q 1991 1309 1228 531 
z
" transform="scale(0.015625)"/>
       </defs>
       <use xlink:href="#DejaVuSans-30"/>
       <use xlink:href="#DejaVuSans-2e" x="63.623047"/>
       <use xlink:href="#DejaVuSans-32" x="95.410156"/>
      </g>
     </g>
    </g>
    <g id="xtick_3">
     <g id="line2d_3">
      <g>
       <use xlink:href="#m6426e92821" x="254.618182" y="384.48" style="stroke: #000000; stroke-width: 0.8"/>
      </g>
     </g>
     <g id="text_3">
      <!-- 0.4 -->
      <g transform="translate(246.666619 399.078438) scale(0.1 -0.1)">
       <defs>
        <path id="DejaVuSans-34" d="M 2419 4116 
L 825 1625 
L 2419 1625 
L 2419 4116 
z
M 2253 4666 
L 3047 4666 
L 3047 1625 
L 3713 1625 
L 3713 1100 
L 3047 1100 
L 3047 0 
L 2419 0 
L 2419 1100 
L 313 1100 
L 313 1709 
L 2253 4666 
z
" transform="scale(0.015625)"/>
       </defs>
       <use xlink:href="#DejaVuSans-30"/>
       <use xlink:href="#DejaVuSans-2e" x="63.623047"/>
       <use xlink:href="#DejaVuSans-34" x="95.410156"/>
      </g>
     </g>
    </g>
    <g id="xtick_4">
     <g id="line2d_4">
      <g>
       <use xlink:href="#m6426e92821" x="335.781818" y="384.48" style="stroke: #000000; stroke-width: 0.8"/>
      </g>
     </g>
     <g id="text_4">
      <!-- 0.6 -->
      <g transform="translate(327.830256 399.078438) scale(0.1 -0.1)">
       <defs>
        <path id="DejaVuSans-36" d="M 2113 2584 
Q 1688 2584 1439 2293 
Q 1191 2003 1191 1497 
Q 1191 994 1439 701 
Q 1688 409 2113 409 
Q 2538 409 2786 701 
Q 3034 994 3034 1497 
Q 3034 2003 2786 2293 
Q 2538 2584 2113 2584 
z
M 3366 4563 
L 3366 3988 
Q 3128 4100 2886 4159 
Q 2644 4219 2406 4219 
Q 1781 4219 1451 3797 
Q 1122 3375 1075 2522 
Q 1259 2794 1537 2939 
Q 1816 3084 2150 3084 
Q 2853 3084 3261 2657 
Q 3669 2231 3669 1497 
Q 3669 778 3244 343 
Q 2819 -91 2113 -91 
Q 1303 -91 875 529 
Q 447 1150 447 2328 
Q 447 3434 972 4092 
Q 1497 4750 2381 4750 
Q 2619 4750 2861 4703 
Q 3103 4656 3366 4563 
z
" transform="scale(0.015625)"/>
       </defs>
       <use xlink:href="#DejaVuSans-30"/>
       <use xlink:href="#DejaVuSans-2e" x="63.623047"/>
       <use xlink:href="#DejaVuSans-36" x="95.410156"/>
      </g>
     </g>
    </g>
    <g id="xtick_5">
     <g id="line2d_5">
      <g>
       <use xlink:href="#m6426e92821" x="416.945455" y="384.48" style="stroke: #000000; stroke-width: 0.8"/>
      </g>
     </g>
     <g id="text_5">
      <!-- 0.8 -->
      <g transform="translate(408.993892 399.078438) scale(0.1 -0.1)">
       <defs>
        <path id="DejaVuSans-38" d="M 2034 2216 
Q 1584 2216 1326 1975 
Q 1069 1734 1069 1313 
Q 1069 891 1326 650 
Q 1584 409 2034 409 
Q 2484 409 2743 651 
Q 3003 894 3003 1313 
Q 3003 1734 2745 1975 
Q 2488 2216 2034 2216 
z
M 1403 2484 
Q 997 2584 770 2862 
Q 544 3141 544 3541 
Q 544 4100 942 4425 
Q 1341 4750 2034 4750 
Q 2731 4750 3128 4425 
Q 3525 4100 3525 3541 
Q 3525 3141 3298 2862 
Q 3072 2584 2669 2484 
Q 3125 2378 3379 2068 
Q 3634 1759 3634 1313 
Q 3634 634 3220 271 
Q 2806 -91 2034 -91 
Q 1263 -91 848 271 
Q 434 634 434 1313 
Q 434 1759 690 2068 
Q 947 2378 1403 2484 
z
M 1172 3481 
Q 1172 3119 1398 2916 
Q 1625 2713 2034 2713 
Q 2441 2713 2670 2916 
Q 2900 3119 2900 3481 
Q 2900 3844 2670 4047 
Q 2441 4250 2034 4250 
Q 1625 4250 1398 4047 
Q 1172 3844 1172 3481 
z
" transform="scale(0.015625)"/>
       </defs>
       <use xlink:href="#DejaVuSans-30"/>
       <use xlink:href="#DejaVuSans-2e" x="63.623047"/>
       <use xlink:href="#DejaVuSans-38" x="95.410156"/>
      </g>
     </g>
    </g>
    <g id="xtick_6">
     <g id="line2d_6">
      <g>
       <use xlink:href="#m6426e92821" x="498.109091" y="384.48" style="stroke: #000000; stroke-width: 0.8"/>
      </g>
     </g>
     <g id="text_6">
      <!-- 1.0 -->
      <g transform="translate(490.157528 399.078438) scale(0.1 -0.1)">
       <defs>
        <path id="DejaVuSans-31" d="M 794 531 
L 1825 531 
L 1825 4091 
L 703 3866 
L 703 4441 
L 1819 4666 
L 2450 4666 
L 2450 531 
L 3481 531 
L 3481 0 
L 794 0 
L 794 531 
z
" transform="scale(0.015625)"/>
       </defs>
       <use xlink:href="#DejaVuSans-31"/>
       <use xlink:href="#DejaVuSans-2e" x="63.623047"/>
       <use xlink:href="#DejaVuSans-30" x="95.410156"/>
      </g>
     </g>
    </g>
   </g>
   <g id="matplotlib.axis_2">
    <g id="ytick_1">
     <g id="line2d_7">
      <defs>
       <path id="m3382afce7e" d="M 0 0 
L -3.5 0 
" style="stroke: #000000; stroke-width: 0.8"/>
      </defs>
      <g>
       <use xlink:href="#m3382afce7e" x="72" y="369.36" style="stroke: #000000; stroke-width: 0.8"/>
      </g>
     </g>
     <g id="text_7">
      <!-- −5.0 -->
      <g transform="translate(40.717187 373.159219) scale(0.1 -0.1)">
       <defs>
        <path id="DejaVuSans-2212" d="M 678 2272 
L 4684 2272 
L 4684 1741 
L 678 1741 
L 678 2272 
z
" transform="scale(0.015625)"/>
        <path id="DejaVuSans-35" d="M 691 4666 
L 3169 4666 
L 3169 4134 
L 1269 4134 
L 1269 2991 
Q 1406 3038 1543 3061 
Q 1681 3084 1819 3084 
Q 2600 3084 3056 2656 
Q 3513 2228 3513 1497 
Q 3513 744 3044 326 
Q 2575 -91 1722 -91 
Q 1428 -91 1123 -41 
Q 819 9 494 109 
L 494 744 
Q 775 591 1075 516 
Q 1375 441 1709 441 
Q 2250 441 2565 725 
Q 2881 1009 2881 1497 
Q 2881 1984 2565 2268 
Q 2250 2553 1709 2553 
Q 1456 2553 1204 2497 
Q 953 2441 691 2322 
L 691 4666 
z
" transform="scale(0.015625)"/>
       </defs>
       <use xlink:href="#DejaVuSans-2212"/>
       <use xlink:href="#DejaVuSans-35" x="83.789062"/>
       <use xlink:href="#DejaVuSans-2e" x="147.412109"/>
       <use xlink:href="#DejaVuSans-30" x="179.199219"/>
      </g>
     </g>
    </g>
    <g id="ytick_2">
     <g id="line2d_8">
      <g>
       <use xlink:href="#m3382afce7e" x="72" y="331.56" style="stroke: #000000; stroke-width: 0.8"/>
      </g>
     </g>
     <g id="text_8">
      <!-- −2.5 -->
      <g transform="translate(40.717187 335.359219) scale(0.1 -0.1)">
       <use xlink:href="#DejaVuSans-2212"/>
       <use xlink:href="#DejaVuSans-32" x="83.789062"/>
       <use xlink:href="#DejaVuSans-2e" x="147.412109"/>
       <use xlink:href="#DejaVuSans-35" x="179.199219"/>
      </g>
     </g>
    </g>
    <g id="ytick_3">
     <g id="line2d_9">
      <g>
       <use xlink:href="#m3382afce7e" x="72" y="293.76" style="stroke: #000000; stroke-width: 0.8"/>
      </g>
     </g>
     <g id="text_9">
      <!-- 0.0 -->
      <g transform="translate(49.096875 297.559219) scale(0.1 -0.1)">
       <use xlink:href="#DejaVuSans-30"/>
       <use xlink:href="#DejaVuSans-2e" x="63.623047"/>
       <use xlink:href="#DejaVuSans-30" x="95.410156"/>
      </g>
     </g>
    </g>
    <g id="ytick_4">
     <g id="line2d_10">
      <g>
       <use xlink:href="#m3382afce7e" x="72" y="255.96" style="stroke: #000000; stroke-width: 0.8"/>
      </g>
     </g>
     <g id="text_10">
      <!-- 2.5 -->
      <g transform="translate(49.096875 259.759219) scale(0.1 -0.1)">
       <use xlink:href="#DejaVuSans-32"/>
       <use xlink:href="#DejaVuSans-2e" x="63.623047"/>
       <use xlink:href="#DejaVuSans-35" x="95.410156"/>
      </g>
     </g>
    </g>
    <g id="ytick_5">
     <g id="line2d_11">
      <g>
       <use xlink:href="#m3382afce7e" x="72" y="218.16" style="stroke: #000000; stroke-width: 0.8"/>
      </g>
     </g>
     <g id="text_11">
      <!-- 5.0 -->
      <g transform="translate(49.096875 221.959219) scale(0.1 -0.1)">
       <use xlink:href="#DejaVuSans-35"/>
       <use xlink:href="#DejaVuSans-2e" x="63.623047"/>
       <use xlink:href="#DejaVuSans-30" x="95.410156"/>
      </g>
     </g>
    </g>
    <g id="ytick_6">
     <g id="line2d_12">
      <g>
       <use xlink:href="#m3382afce7e" x="72" y="180.36" style="stroke: #000000; stroke-width: 0.8"/>
      </g>
     </g>
     <g id="text_12">
      <!-- 7.5 -->
      <g transform="translate(49.096875 184.159219) scale(0.1 -0.1)">
       <defs>
        <path id="DejaVuSans-37" d="M 525 4666 
L 3525 4666 
L 3525 4397 
L 1831 0 
L 1172 0 
L 2766 4134 
L 525 4134 
L 525 4666 
z
" transform="scale(0.015625)"/>
       </defs>
       <use xlink:href="#DejaVuSans-37"/>
       <use xlink:href="#DejaVuSans-2e" x="63.623047"/>
       <use xlink:href="#DejaVuSans-35" x="95.410156"/>
      </g>
     </g>
    </g>
    <g id="ytick_7">
     <g id="line2d_13">
      <g>
       <use xlink:href="#m3382afce7e" x="72" y="142.56" style="stroke: #000000; stroke-width: 0.8"/>
      </g>
     </g>
     <g id="text_13">
      <!-- 10.0 -->
      <g transform="translate(42.734375 146.359219) scale(0.1 -0.1)">
       <use xlink:href="#DejaVuSans-31"/>
       <use xlink:href="#DejaVuSans-30" x="63.623047"/>
       <use xlink:href="#DejaVuSans-2e" x="127.246094"/>
       <use xlink:href="#DejaVuSans-30" x="159.033203"/>
      </g>
     </g>
    </g>
    <g id="ytick_8">
     <g id="line2d_14">
      <g>
       <use xlink:href="#m3382afce7e" x="72" y="104.76" style="stroke: #000000; stroke-width: 0.8"/>
      </g>
     </g>
     <g id="text_14">
      <!-- 12.5 -->
      <g transform="translate(42.734375 108.559219) scale(0.1 -0.1)">
       <use xlink:href="#DejaVuSans-31"/>
       <use xlink:href="#DejaVuSans-32" x="63.623047"/>
       <use xlink:href="#DejaVuSans-2e" x="127.246094"/>
       <use xlink:href="#DejaVuSans-35" x="159.033203"/>
      </g>
     </g>
    </g>
    <g id="ytick_9">
     <g id="line2d_15">
      <g>
       <use xlink:href="#m3382afce7e" x="72" y="66.96" style="stroke: #000000; stroke-width: 0.8"/>
      </g>
     </g>
     <g id="text_15">
      <!-- 15.0 -->
      <g transform="translate(42.734375 70.759219) scale(0.1 -0.1)">
       <use xlink:href="#DejaVuSans-31"/>
       <use xlink:href="#DejaVuSans-35" x="63.623047"/>
       <use xlink:href="#DejaVuSans-2e" x="127.246094"/>
       <use xlink:href="#DejaVuSans-30" x="159.033203"/>
      </g>
     </g>
    </g>
   </g>
   <g id="line2d_16">
    <path d="M 92.290909 319.303728 
L 96.349091 319.397472 
L 100.407273 319.636368 
L 104.465455 319.958424 
L 108.523636 320.322816 
L 112.581818 320.712912 
L 116.64 321.118128 
L 120.698182 321.533928 
L 124.756364 321.9588 
L 128.814545 322.38972 
L 132.872727 322.826688 
L 136.930909 323.269704 
L 140.989091 323.715744 
L 145.047273 324.167832 
L 149.105455 324.624456 
L 153.163636 325.085616 
L 157.221818 325.551312 
L 161.28 326.020032 
L 165.338182 326.493288 
L 169.396364 326.969568 
L 173.454545 327.448872 
L 177.512727 327.9312 
L 181.570909 328.418064 
L 185.629091 328.90644 
L 189.687273 329.39784 
L 193.745455 329.892264 
L 197.803636 330.3882 
L 201.861818 330.885648 
L 205.92 331.384608 
L 209.978182 331.886592 
L 214.036364 332.387064 
L 218.094545 332.889048 
L 222.152727 333.392544 
L 226.210909 333.894528 
L 230.269091 334.396512 
L 234.327273 334.898496 
L 238.385455 335.398968 
L 242.443636 335.89944 
L 246.501818 336.396888 
L 250.56 336.892824 
L 254.618182 337.387248 
L 258.676364 337.878648 
L 262.734545 338.367024 
L 266.792727 338.852376 
L 270.850909 339.333192 
L 274.909091 339.810984 
L 278.967273 340.285752 
L 283.025455 340.755984 
L 287.083636 341.220168 
L 291.141818 341.679816 
L 295.2 342.134928 
L 299.258182 342.585504 
L 303.316364 343.02852 
L 307.374545 343.467 
L 311.432727 343.899432 
L 315.490909 344.324304 
L 319.549091 344.74464 
L 323.607273 345.155904 
L 327.665455 345.56112 
L 331.723636 345.960288 
L 335.781818 346.350384 
L 339.84 346.734432 
L 343.898182 347.109408 
L 347.956364 347.476824 
L 352.014545 347.83668 
L 356.072727 348.187464 
L 360.130909 348.530688 
L 364.189091 348.866352 
L 368.247273 349.191432 
L 372.305455 349.508952 
L 376.363636 349.8174 
L 380.421818 350.115264 
L 384.48 350.405568 
L 388.538182 350.6868 
L 392.596364 350.957448 
L 396.654545 351.220536 
L 400.712727 351.471528 
L 404.770909 351.71496 
L 408.829091 351.947808 
L 412.887273 352.171584 
L 416.945455 352.384776 
L 421.003636 352.587384 
L 425.061818 352.78092 
L 429.12 352.963872 
L 433.178182 353.137752 
L 437.236364 353.299536 
L 441.294545 353.452248 
L 445.352727 353.594376 
L 449.410909 353.727432 
L 453.469091 353.848392 
L 457.527273 353.958768 
L 461.585455 354.060072 
L 465.643636 354.150792 
L 469.701818 354.229416 
L 473.76 354.298968 
L 477.818182 354.356424 
L 481.876364 354.404808 
L 485.934545 354.442608 
L 489.992727 354.468312 
L 494.050909 354.484944 
L 498.109091 354.48948 
" clip-path="url(#pdd33140062)" style="fill: none; stroke: #000000; stroke-opacity: 0.5; stroke-linecap: square"/>
   </g>
   <g id="line2d_17">
    <path d="M 92.290909 317.472696 
L 96.349091 317.381976 
L 100.407273 317.147616 
L 104.465455 316.836144 
L 108.523636 316.483848 
L 112.581818 316.111896 
L 116.64 315.727848 
L 120.698182 315.334728 
L 124.756364 314.938584 
L 128.814545 314.537904 
L 132.872727 314.1342 
L 136.930909 313.728984 
L 140.989091 313.320744 
L 145.047273 312.910992 
L 149.105455 312.498216 
L 153.163636 312.083928 
L 157.221818 311.666616 
L 161.28 311.24628 
L 165.338182 310.824432 
L 169.396364 310.401072 
L 173.454545 309.973176 
L 177.512727 309.542256 
L 181.570909 309.109824 
L 185.629091 308.672856 
L 189.687273 308.232864 
L 193.745455 307.789848 
L 197.803636 307.343808 
L 201.861818 306.893232 
L 205.92 306.439632 
L 209.978182 305.981496 
L 214.036364 305.520336 
L 218.094545 305.056152 
L 222.152727 304.58592 
L 226.210909 304.114176 
L 230.269091 303.637896 
L 234.327273 303.15708 
L 238.385455 302.671728 
L 242.443636 302.184864 
L 246.501818 301.691952 
L 250.56 301.197528 
L 254.618182 300.697056 
L 258.676364 300.195072 
L 262.734545 299.688552 
L 266.792727 299.179008 
L 270.850909 298.66644 
L 274.909091 298.15236 
L 278.967273 297.633744 
L 283.025455 297.112104 
L 287.083636 296.588952 
L 291.141818 296.064288 
L 295.2 295.5366 
L 299.258182 295.0074 
L 303.316364 294.476688 
L 307.374545 293.944464 
L 311.432727 293.41224 
L 315.490909 292.878504 
L 319.549091 292.344768 
L 323.607273 291.812544 
L 327.665455 291.278808 
L 331.723636 290.748096 
L 335.781818 290.217384 
L 339.84 289.689696 
L 343.898182 289.16352 
L 347.956364 288.640368 
L 352.014545 288.121752 
L 356.072727 287.60616 
L 360.130909 287.093592 
L 364.189091 286.588584 
L 368.247273 286.0866 
L 372.305455 285.592176 
L 376.363636 285.105312 
L 380.421818 284.624496 
L 384.48 284.152752 
L 388.538182 283.69008 
L 392.596364 283.234968 
L 396.654545 282.791952 
L 400.712727 282.358008 
L 404.770909 281.93616 
L 408.829091 281.52792 
L 412.887273 281.130264 
L 416.945455 280.746216 
L 421.003636 280.377288 
L 425.061818 280.02348 
L 429.12 279.68328 
L 433.178182 279.359712 
L 437.236364 279.052776 
L 441.294545 278.763984 
L 445.352727 278.491824 
L 449.410909 278.237808 
L 453.469091 278.001936 
L 457.527273 277.78572 
L 461.585455 277.58916 
L 465.643636 277.410744 
L 469.701818 277.253496 
L 473.76 277.117416 
L 477.818182 277.000992 
L 481.876364 276.905736 
L 485.934545 276.831648 
L 489.992727 276.777216 
L 494.050909 276.745464 
L 498.109091 276.73488 
" clip-path="url(#pdd33140062)" style="fill: none; stroke: #000000; stroke-opacity: 0.5; stroke-linecap: square"/>
   </g>
   <g id="line2d_18">
    <path d="M 92.290909 258.315696 
L 96.349091 258.754176 
L 100.407273 259.378632 
L 104.465455 260.001576 
L 108.523636 260.612424 
L 112.581818 261.205128 
L 116.64 261.778176 
L 120.698182 262.331568 
L 124.756364 262.865304 
L 128.814545 263.37636 
L 132.872727 263.864736 
L 136.930909 264.331944 
L 140.989091 264.776472 
L 145.047273 265.196808 
L 149.105455 265.594464 
L 153.163636 265.967928 
L 157.221818 266.318712 
L 161.28 266.643792 
L 165.338182 266.946192 
L 169.396364 267.222888 
L 173.454545 267.476904 
L 177.512727 267.705216 
L 181.570909 267.909336 
L 185.629091 268.089264 
L 189.687273 268.245 
L 193.745455 268.376544 
L 197.803636 268.483896 
L 201.861818 268.568568 
L 205.92 268.629048 
L 209.978182 268.665336 
L 214.036364 268.678944 
L 218.094545 268.66836 
L 222.152727 268.636608 
L 226.210909 268.582176 
L 230.269091 268.505064 
L 234.327273 268.405272 
L 238.385455 268.284312 
L 242.443636 268.142184 
L 246.501818 267.978888 
L 250.56 267.795936 
L 254.618182 267.590304 
L 258.676364 267.366528 
L 262.734545 267.121584 
L 266.792727 266.858496 
L 270.850909 266.575752 
L 274.909091 266.274864 
L 278.967273 265.95432 
L 283.025455 265.617144 
L 287.083636 265.261824 
L 291.141818 264.88836 
L 295.2 264.499776 
L 299.258182 264.093048 
L 303.316364 263.669688 
L 307.374545 263.23272 
L 311.432727 262.77912 
L 315.490909 262.3104 
L 319.549091 261.82656 
L 323.607273 261.329112 
L 327.665455 260.818056 
L 331.723636 260.293392 
L 335.781818 259.756632 
L 339.84 259.206264 
L 343.898182 258.645312 
L 347.956364 258.072264 
L 352.014545 257.488632 
L 356.072727 256.894416 
L 360.130909 256.291128 
L 364.189091 255.678768 
L 368.247273 255.058848 
L 372.305455 254.431368 
L 376.363636 253.796328 
L 380.421818 253.15524 
L 384.48 252.509616 
L 388.538182 251.859456 
L 392.596364 251.206272 
L 396.654545 250.551576 
L 400.712727 249.895368 
L 404.770909 249.240672 
L 408.829091 248.587488 
L 412.887273 247.937328 
L 416.945455 247.291704 
L 421.003636 246.65364 
L 425.061818 246.024648 
L 429.12 245.40624 
L 433.178182 244.799928 
L 437.236364 244.208736 
L 441.294545 243.6372 
L 445.352727 243.083808 
L 449.410909 242.554608 
L 453.469091 242.052624 
L 457.527273 241.577856 
L 461.585455 241.137864 
L 465.643636 240.731136 
L 469.701818 240.36372 
L 473.76 240.03864 
L 477.818182 239.757408 
L 481.876364 239.523048 
L 485.934545 239.338584 
L 489.992727 239.202504 
L 494.050909 239.117832 
L 498.109091 239.084568 
" clip-path="url(#pdd33140062)" style="fill: none; stroke: #000000; stroke-opacity: 0.5; stroke-linecap: square"/>
   </g>
   <g id="line2d_19">
    <path d="M 92.290909 257.7366 
L 96.349091 257.281488 
L 100.407273 256.608648 
L 104.465455 255.902544 
L 108.523636 255.178296 
L 112.581818 254.44044 
L 116.64 253.688976 
L 120.698182 252.926928 
L 124.756364 252.154296 
L 128.814545 251.375616 
L 132.872727 250.589376 
L 136.930909 249.797088 
L 140.989091 249.001776 
L 145.047273 248.204952 
L 149.105455 247.408128 
L 153.163636 246.612816 
L 157.221818 245.820528 
L 161.28 245.032776 
L 165.338182 244.254096 
L 169.396364 243.482976 
L 173.454545 242.725464 
L 177.512727 241.980048 
L 181.570909 241.251264 
L 185.629091 240.540624 
L 189.687273 239.84964 
L 193.745455 239.182848 
L 197.803636 238.54176 
L 201.861818 237.926376 
L 205.92 237.341232 
L 209.978182 236.78784 
L 214.036364 236.267712 
L 218.094545 235.78236 
L 222.152727 235.333296 
L 226.210909 234.922032 
L 230.269091 234.548568 
L 234.327273 234.212904 
L 238.385455 233.91504 
L 242.443636 233.658 
L 246.501818 233.437248 
L 250.56 233.254296 
L 254.618182 233.10612 
L 258.676364 232.994232 
L 262.734545 232.914096 
L 266.792727 232.867224 
L 270.850909 232.84908 
L 274.909091 232.858152 
L 278.967273 232.892928 
L 283.025455 232.953408 
L 287.083636 233.033544 
L 291.141818 233.133336 
L 295.2 233.251272 
L 299.258182 233.38584 
L 303.316364 233.534016 
L 307.374545 233.692776 
L 311.432727 233.863632 
L 315.490909 234.042048 
L 319.549091 234.229536 
L 323.607273 234.42156 
L 327.665455 234.61812 
L 331.723636 234.817704 
L 335.781818 235.020312 
L 339.84 235.22292 
L 343.898182 235.425528 
L 347.956364 235.626624 
L 352.014545 235.826208 
L 356.072727 236.02428 
L 360.130909 236.217816 
L 364.189091 236.406816 
L 368.247273 236.59128 
L 372.305455 236.771208 
L 376.363636 236.943576 
L 380.421818 237.111408 
L 384.48 237.27168 
L 388.538182 237.425904 
L 392.596364 237.571056 
L 396.654545 237.71016 
L 400.712727 237.841704 
L 404.770909 237.965688 
L 408.829091 238.0806 
L 412.887273 238.187952 
L 416.945455 238.289256 
L 421.003636 238.381488 
L 425.061818 238.46616 
L 429.12 238.543272 
L 433.178182 238.612824 
L 437.236364 238.676328 
L 441.294545 238.733784 
L 445.352727 238.785192 
L 449.410909 238.82904 
L 453.469091 238.868352 
L 457.527273 238.903128 
L 461.585455 238.931856 
L 465.643636 238.95756 
L 469.701818 238.978728 
L 473.76 238.996872 
L 477.818182 239.01048 
L 481.876364 239.022576 
L 485.934545 239.031648 
L 489.992727 239.039208 
L 494.050909 239.04828 
L 498.109091 239.05584 
" clip-path="url(#pdd33140062)" style="fill: none; stroke: #000000; stroke-opacity: 0.5; stroke-linecap: square"/>
   </g>
   <g id="line2d_20">
    <path d="M 92.290909 160.130952 
L 96.349091 161.078976 
L 100.407273 162.161568 
L 104.465455 163.226016 
L 108.523636 164.269296 
L 112.581818 165.289896 
L 116.64 166.286304 
L 120.698182 167.257008 
L 124.756364 168.202008 
L 128.814545 169.119792 
L 132.872727 170.01036 
L 136.930909 170.870688 
L 140.989091 171.700776 
L 145.047273 172.499112 
L 149.105455 173.262672 
L 153.163636 173.99448 
L 157.221818 174.688488 
L 161.28 175.344696 
L 165.338182 175.961592 
L 169.396364 176.537664 
L 173.454545 177.069888 
L 177.512727 177.558264 
L 181.570909 177.998256 
L 185.629091 178.391376 
L 189.687273 178.731576 
L 193.745455 179.020368 
L 197.803636 179.253216 
L 201.861818 179.43012 
L 205.92 179.546544 
L 209.978182 179.604 
L 214.036364 179.599464 
L 218.094545 179.531424 
L 222.152727 179.39988 
L 226.210909 179.20332 
L 230.269091 178.940232 
L 234.327273 178.612128 
L 238.385455 178.217496 
L 242.443636 177.757848 
L 246.501818 177.234696 
L 250.56 176.64804 
L 254.618182 175.99788 
L 258.676364 175.288752 
L 262.734545 174.520656 
L 266.792727 173.696616 
L 270.850909 172.816632 
L 274.909091 171.88524 
L 278.967273 170.90244 
L 283.025455 169.872768 
L 287.083636 168.797736 
L 291.141818 167.678856 
L 295.2 166.519152 
L 299.258182 165.321648 
L 303.316364 164.086344 
L 307.374545 162.817776 
L 311.432727 161.517456 
L 315.490909 160.185384 
L 319.549091 158.824584 
L 323.607273 157.43808 
L 327.665455 156.027384 
L 331.723636 154.594008 
L 335.781818 153.140976 
L 339.84 152.202024 
L 343.898182 153.7488 
L 347.956364 155.280456 
L 352.014545 156.800016 
L 356.072727 158.302944 
L 360.130909 159.78924 
L 364.189091 161.260416 
L 368.247273 162.713448 
L 372.305455 164.149848 
L 376.363636 165.566592 
L 380.421818 166.96368 
L 384.48 168.341112 
L 388.538182 169.695864 
L 392.596364 171.029448 
L 396.654545 172.33884 
L 400.712727 173.622528 
L 404.770909 174.880512 
L 408.829091 176.11128 
L 412.887273 177.31332 
L 416.945455 178.48512 
L 421.003636 179.623656 
L 425.061818 180.727416 
L 429.12 181.7964 
L 433.178182 182.82456 
L 437.236364 183.813408 
L 441.294545 184.758408 
L 445.352727 185.658048 
L 449.410909 186.507792 
L 453.469091 187.306128 
L 457.527273 188.04852 
L 461.585455 188.734968 
L 465.643636 189.357912 
L 469.701818 189.917352 
L 473.76 190.410264 
L 477.818182 190.832112 
L 481.876364 191.181384 
L 485.934545 191.456568 
L 489.992727 191.653128 
L 494.050909 191.772576 
L 498.109091 191.811888 
" clip-path="url(#pdd33140062)" style="fill: none; stroke: #000000; stroke-opacity: 0.5; stroke-linecap: square"/>
   </g>
   <g id="line2d_21">
    <path d="M 92.290909 159.775632 
L 96.349091 158.807952 
L 100.407273 157.663368 
L 104.465455 156.494592 
L 108.523636 155.30616 
L 112.581818 154.099584 
L 116.64 152.873352 
L 120.698182 151.630488 
L 124.756364 150.36948 
L 128.814545 149.093352 
L 132.872727 147.800592 
L 136.930909 146.492712 
L 140.989091 145.1682 
L 145.047273 143.831592 
L 149.105455 142.478352 
L 153.163636 141.113016 
L 157.221818 139.734072 
L 161.28 138.343032 
L 165.338182 136.939896 
L 169.396364 135.524664 
L 173.454545 134.098848 
L 177.512727 132.66396 
L 181.570909 131.218488 
L 185.629091 129.765456 
L 189.687273 128.306376 
L 193.745455 126.84276 
L 197.803636 125.374608 
L 201.861818 123.904944 
L 205.92 122.438304 
L 209.978182 120.9762 
L 214.036364 119.526192 
L 218.094545 118.094328 
L 222.152727 116.691192 
L 226.210909 115.331904 
L 230.269091 114.045192 
L 234.327273 112.905144 
L 238.385455 112.466664 
L 242.443636 113.443416 
L 246.501818 114.808752 
L 250.56 116.301096 
L 254.618182 117.862992 
L 258.676364 119.467224 
L 262.734545 121.101696 
L 266.792727 122.7528 
L 270.850909 124.417512 
L 274.909091 126.08676 
L 278.967273 127.760544 
L 283.025455 129.43584 
L 287.083636 131.108112 
L 291.141818 132.77736 
L 295.2 134.442072 
L 299.258182 136.100736 
L 303.316364 137.753352 
L 307.374545 139.398408 
L 311.432727 141.034392 
L 315.490909 142.662816 
L 319.549091 144.280656 
L 323.607273 145.887912 
L 327.665455 147.484584 
L 331.723636 149.06916 
L 335.781818 150.64164 
L 339.84 151.6698 
L 343.898182 150.186528 
L 347.956364 148.697208 
L 352.014545 147.227544 
L 356.072727 145.921176 
L 360.130909 145.824408 
L 364.189091 146.935728 
L 368.247273 148.19976 
L 372.305455 149.475888 
L 376.363636 150.735384 
L 380.421818 151.975224 
L 384.48 153.187848 
L 388.538182 154.374768 
L 392.596364 155.529936 
L 396.654545 156.656376 
L 400.712727 157.751064 
L 404.770909 158.812488 
L 408.829091 159.839136 
L 412.887273 160.831008 
L 416.945455 161.786592 
L 421.003636 162.705888 
L 425.061818 163.585872 
L 429.12 164.426544 
L 433.178182 165.226392 
L 437.236364 165.983904 
L 441.294545 166.700592 
L 445.352727 167.37192 
L 449.410909 167.997888 
L 453.469091 168.580008 
L 457.527273 169.113744 
L 461.585455 169.599096 
L 465.643636 170.037576 
L 469.701818 170.424648 
L 473.76 170.763336 
L 477.818182 171.050616 
L 481.876364 171.286488 
L 485.934545 171.46944 
L 489.992727 171.600984 
L 494.050909 171.68112 
L 498.109091 171.706824 
" clip-path="url(#pdd33140062)" style="fill: none; stroke: #000000; stroke-opacity: 0.5; stroke-linecap: square"/>
   </g>
   <g id="line2d_22">
    <path d="M 92.290909 107.929152 
L 96.349091 107.933688 
L 100.407273 107.95032 
L 104.465455 107.976024 
L 108.523636 108.009288 
L 112.581818 108.047088 
L 116.64 108.087912 
L 120.698182 108.130248 
L 124.756364 108.172584 
L 128.814545 108.211896 
L 132.872727 108.248184 
L 136.930909 108.279936 
L 140.989091 108.307152 
L 145.047273 108.32832 
L 149.105455 108.34344 
L 153.163636 108.354024 
L 157.221818 108.35856 
L 161.28 108.355536 
L 165.338182 108.347976 
L 169.396364 108.33588 
L 173.454545 108.316224 
L 177.512727 108.293544 
L 181.570909 108.26784 
L 185.629091 108.2376 
L 189.687273 108.208872 
L 193.745455 108.180144 
L 197.803636 108.157464 
L 201.861818 108.143856 
L 205.92 108.148392 
L 209.978182 108.18468 
L 214.036364 108.26784 
L 218.094545 108.429624 
L 222.152727 108.707832 
L 226.210909 109.153872 
L 230.269091 109.801008 
L 234.327273 110.61144 
L 238.385455 111.037824 
L 242.443636 110.340792 
L 246.501818 109.516752 
L 250.56 108.795528 
L 254.618182 108.1998 
L 258.676364 107.729568 
L 262.734545 107.57232 
L 266.792727 108.88776 
L 270.850909 110.578176 
L 274.909091 112.294296 
L 278.967273 114.01344 
L 283.025455 115.725024 
L 287.083636 117.429048 
L 291.141818 119.122488 
L 295.2 120.80232 
L 299.258182 122.470056 
L 303.316364 124.122672 
L 307.374545 125.76168 
L 311.432727 127.382544 
L 315.490909 128.988288 
L 319.549091 130.575888 
L 323.607273 132.143832 
L 327.665455 133.693632 
L 331.723636 135.222264 
L 335.781818 136.728216 
L 339.84 138.211488 
L 343.898182 139.667544 
L 347.956364 141.088824 
L 352.014545 142.451136 
L 356.072727 143.613864 
L 360.130909 143.52768 
L 364.189091 142.19712 
L 368.247273 140.676048 
L 372.305455 139.109616 
L 376.363636 137.520504 
L 380.421818 135.917784 
L 384.48 134.305992 
L 388.538182 132.688152 
L 392.596364 131.065776 
L 396.654545 129.440376 
L 400.712727 127.813464 
L 404.770909 126.188064 
L 408.829091 124.565688 
L 412.887273 122.94936 
L 416.945455 121.337568 
L 421.003636 119.737872 
L 425.061818 118.14876 
L 429.12 116.574768 
L 433.178182 115.020432 
L 437.236364 113.487264 
L 441.294545 111.982824 
L 445.352727 110.508624 
L 449.410909 109.073736 
L 453.469091 107.68572 
L 457.527273 106.349112 
L 461.585455 105.07752 
L 465.643636 103.880016 
L 469.701818 102.768696 
L 473.76 101.75868 
L 477.818182 100.863576 
L 481.876364 100.10304 
L 485.934545 99.489168 
L 489.992727 99.040104 
L 494.050909 98.78004 
L 498.109091 98.752824 
" clip-path="url(#pdd33140062)" style="fill: none; stroke: #000000; stroke-opacity: 0.5; stroke-linecap: square"/>
   </g>
   <g id="line2d_23">
    <path d="M 92.290909 105.310368 
L 96.349091 105.295248 
L 100.407273 105.248376 
L 104.465455 105.171264 
L 108.523636 105.065424 
L 112.581818 104.935392 
L 116.64 104.781168 
L 120.698182 104.605776 
L 124.756364 104.410728 
L 128.814545 104.199048 
L 132.872727 103.969224 
L 136.930909 103.72428 
L 140.989091 103.465728 
L 145.047273 103.192056 
L 149.105455 102.904776 
L 153.163636 102.6054 
L 157.221818 102.293928 
L 161.28 101.968848 
L 165.338182 101.634696 
L 169.396364 101.288448 
L 173.454545 100.931616 
L 177.512727 100.565712 
L 181.570909 100.192248 
L 185.629091 99.809712 
L 189.687273 99.421128 
L 193.745455 99.028008 
L 197.803636 98.634888 
L 201.861818 98.247816 
L 205.92 97.881912 
L 209.978182 97.579512 
L 214.036364 97.534152 
L 218.094545 98.216064 
L 222.152727 99.262368 
L 226.210909 100.202832 
L 230.269091 100.887768 
L 234.327273 101.262744 
L 238.385455 101.32776 
L 242.443636 101.144808 
L 246.501818 101.052576 
L 250.56 102.082248 
L 254.618182 103.645656 
L 258.676364 105.292224 
L 262.734545 106.74072 
L 266.792727 106.79364 
L 270.850909 106.516944 
L 274.909091 106.244784 
L 278.967273 105.989256 
L 283.025455 105.745824 
L 287.083636 105.512976 
L 291.141818 105.2892 
L 295.2 105.071472 
L 299.258182 104.85828 
L 303.316364 104.649624 
L 307.374545 104.443992 
L 311.432727 104.241384 
L 315.490909 104.040288 
L 319.549091 103.840704 
L 323.607273 103.644144 
L 327.665455 103.449096 
L 331.723636 103.257072 
L 335.781818 103.06656 
L 339.84 102.879072 
L 343.898182 102.693096 
L 347.956364 102.508632 
L 352.014545 102.328704 
L 356.072727 102.150288 
L 360.130909 101.974896 
L 364.189091 101.802528 
L 368.247273 101.634696 
L 372.305455 101.468376 
L 376.363636 101.306592 
L 380.421818 101.149344 
L 384.48 100.99512 
L 388.538182 100.845432 
L 392.596364 100.698768 
L 396.654545 100.558152 
L 400.712727 100.422072 
L 404.770909 100.289016 
L 408.829091 100.162008 
L 412.887273 100.039536 
L 416.945455 99.923112 
L 421.003636 99.809712 
L 425.061818 99.703872 
L 429.12 99.601056 
L 433.178182 99.5058 
L 437.236364 99.41508 
L 441.294545 99.330408 
L 445.352727 99.250272 
L 449.410909 99.176184 
L 453.469091 99.108144 
L 457.527273 99.046152 
L 461.585455 98.988696 
L 465.643636 98.9388 
L 469.701818 98.89344 
L 473.76 98.854128 
L 477.818182 98.822376 
L 481.876364 98.79516 
L 485.934545 98.773992 
L 489.992727 98.75736 
L 494.050909 98.733168 
L 498.109091 98.663616 
" clip-path="url(#pdd33140062)" style="fill: none; stroke: #000000; stroke-opacity: 0.5; stroke-linecap: square"/>
   </g>
   <g id="patch_3">
    <path d="M 72 384.48 
L 72 51.84 
" style="fill: none; stroke: #000000; stroke-width: 0.8; stroke-linejoin: miter; stroke-linecap: square"/>
   </g>
   <g id="patch_4">
    <path d="M 518.4 384.48 
L 518.4 51.84 
" style="fill: none; stroke: #000000; stroke-width: 0.8; stroke-linejoin: miter; stroke-linecap: square"/>
   </g>
   <g id="patch_5">
    <path d="M 72 384.48 
L 518.4 384.48 
" style="fill: none; stroke: #000000; stroke-width: 0.8; stroke-linejoin: miter; stroke-linecap: square"/>
   </g>
   <g id="patch_6">
    <path d="M 72 51.84 
L 518.4 51.84 
" style="fill: none; stroke: #000000; stroke-width: 0.8; stroke-linejoin: miter; stroke-linecap: square"/>
   </g>
  </g>
 </g>
 <defs>
  <clipPath id="pdd33140062">
   <rect x="72" y="51.84" width="446.4" height="332.64"/>
  </clipPath>
 </defs>
</svg>
