<?xml version="1.0" encoding="utf-8" standalone="no"?>
<!DOCTYPE svg PUBLIC "-//W3C//DTD SVG 1.1//EN"
  "http://www.w3.org/Graphics/SVG/1.1/DTD/svg11.dtd">
<svg xmlns:xlink="http://www.w3.org/1999/xlink" width="576pt" height="432pt" viewBox="0 0 576 432" xmlns="http://www.w3.org/2000/svg" version="1.1">
 <metadata>
  <rdf:RDF xmlns:dc="http://purl.org/dc/elements/1.1/" xmlns:cc="http://creativecommons.org/ns#" xmlns:rdf="http://www.w3.org/1999/02/22-rdf-syntax-ns#">
   <cc:Work>
    <dc:type rdf:resource="http://purl.org/dc/dcmitype/StillImage"/>
    <dc:date>2023-05-03T17:47:27.472564</dc:date>
    <dc:format>image/svg+xml</dc:format>
    <dc:creator>
     <cc:Agent>
      <dc:title>Matplotlib v3.7.1, https://matplotlib.org/</dc:title>
     </cc:Agent>
    </dc:creator>
   </cc:Work>
  </rdf:RDF>
 </metadata>
 <defs>
  <style type="text/css">*{stroke-linejoin: round; stroke-linecap: butt}</style>
 </defs>
 <g id="figure_1">
  <g id="patch_1">
   <path d="M 0 432 
L 576 432 
L 576 0 
L 0 0 
z
" style="fill: #ffffff"/>
  </g>
  <g id="axes_1">
   <g id="patch_2">
    <path d="M 72 384.48 
L 518.4 384.48 
L 518.4 51.84 
L 72 51.84 
z
" style="fill: #ffffff"/>
   </g>
   <g id="matplotlib.axis_1">
    <g id="xtick_1">
     <g id="line2d_1">
      <defs>
       <path id="m393081f82f" d="M 0 0 
L 0 3.5 
" style="stroke: #000000; stroke-width: 0.8"/>
      </defs>
      <g>
       <use xlink:href="#m393081f82f" x="92.290909" y="384.48" style="stroke: #000000; stroke-width: 0.8"/>
      </g>
     </g>
     <g id="text_1">
      <!-- 0.0 -->
      <g transform="translate(84.339347 399.078438) scale(0.1 -0.1)">
       <defs>
        <path id="DejaVuSans-30" d="M 2034 4250 
Q 1547 4250 1301 3770 
Q 1056 3291 1056 2328 
Q 1056 1369 1301 889 
Q 1547 409 2034 409 
Q 2525 409 2770 889 
Q 3016 1369 3016 2328 
Q 3016 3291 2770 3770 
Q 2525 4250 2034 4250 
z
M 2034 4750 
Q 2819 4750 3233 4129 
Q 3647 3509 3647 2328 
Q 3647 1150 3233 529 
Q 2819 -91 2034 -91 
Q 1250 -91 836 529 
Q 422 1150 422 2328 
Q 422 3509 836 4129 
Q 1250 4750 2034 4750 
z
" transform="scale(0.015625)"/>
        <path id="DejaVuSans-2e" d="M 684 794 
L 1344 794 
L 1344 0 
L 684 0 
L 684 794 
z
" transform="scale(0.015625)"/>
       </defs>
       <use xlink:href="#DejaVuSans-30"/>
       <use xlink:href="#DejaVuSans-2e" x="63.623047"/>
       <use xlink:href="#DejaVuSans-30" x="95.410156"/>
      </g>
     </g>
    </g>
    <g id="xtick_2">
     <g id="line2d_2">
      <g>
       <use xlink:href="#m393081f82f" x="173.454545" y="384.48" style="stroke: #000000; stroke-width: 0.8"/>
      </g>
     </g>
     <g id="text_2">
      <!-- 0.2 -->
      <g transform="translate(165.502983 399.078438) scale(0.1 -0.1)">
       <defs>
        <path id="DejaVuSans-32" d="M 1228 531 
L 3431 531 
L 3431 0 
L 469 0 
L 469 531 
Q 828 903 1448 1529 
Q 2069 2156 2228 2338 
Q 2531 2678 2651 2914 
Q 2772 3150 2772 3378 
Q 2772 3750 2511 3984 
Q 2250 4219 1831 4219 
Q 1534 4219 1204 4116 
Q 875 4013 500 3803 
L 500 4441 
Q 881 4594 1212 4672 
Q 1544 4750 1819 4750 
Q 2544 4750 2975 4387 
Q 3406 4025 3406 3419 
Q 3406 3131 3298 2873 
Q 3191 2616 2906 2266 
Q 2828 2175 2409 1742 
Q 1991 1309 1228 531 
z
" transform="scale(0.015625)"/>
       </defs>
       <use xlink:href="#DejaVuSans-30"/>
       <use xlink:href="#DejaVuSans-2e" x="63.623047"/>
       <use xlink:href="#DejaVuSans-32" x="95.410156"/>
      </g>
     </g>
    </g>
    <g id="xtick_3">
     <g id="line2d_3">
      <g>
       <use xlink:href="#m393081f82f" x="254.618182" y="384.48" style="stroke: #000000; stroke-width: 0.8"/>
      </g>
     </g>
     <g id="text_3">
      <!-- 0.4 -->
      <g transform="translate(246.666619 399.078438) scale(0.1 -0.1)">
       <defs>
        <path id="DejaVuSans-34" d="M 2419 4116 
L 825 1625 
L 2419 1625 
L 2419 4116 
z
M 2253 4666 
L 3047 4666 
L 3047 1625 
L 3713 1625 
L 3713 1100 
L 3047 1100 
L 3047 0 
L 2419 0 
L 2419 1100 
L 313 1100 
L 313 1709 
L 2253 4666 
z
" transform="scale(0.015625)"/>
       </defs>
       <use xlink:href="#DejaVuSans-30"/>
       <use xlink:href="#DejaVuSans-2e" x="63.623047"/>
       <use xlink:href="#DejaVuSans-34" x="95.410156"/>
      </g>
     </g>
    </g>
    <g id="xtick_4">
     <g id="line2d_4">
      <g>
       <use xlink:href="#m393081f82f" x="335.781818" y="384.48" style="stroke: #000000; stroke-width: 0.8"/>
      </g>
     </g>
     <g id="text_4">
      <!-- 0.6 -->
      <g transform="translate(327.830256 399.078438) scale(0.1 -0.1)">
       <defs>
        <path id="DejaVuSans-36" d="M 2113 2584 
Q 1688 2584 1439 2293 
Q 1191 2003 1191 1497 
Q 1191 994 1439 701 
Q 1688 409 2113 409 
Q 2538 409 2786 701 
Q 3034 994 3034 1497 
Q 3034 2003 2786 2293 
Q 2538 2584 2113 2584 
z
M 3366 4563 
L 3366 3988 
Q 3128 4100 2886 4159 
Q 2644 4219 2406 4219 
Q 1781 4219 1451 3797 
Q 1122 3375 1075 2522 
Q 1259 2794 1537 2939 
Q 1816 3084 2150 3084 
Q 2853 3084 3261 2657 
Q 3669 2231 3669 1497 
Q 3669 778 3244 343 
Q 2819 -91 2113 -91 
Q 1303 -91 875 529 
Q 447 1150 447 2328 
Q 447 3434 972 4092 
Q 1497 4750 2381 4750 
Q 2619 4750 2861 4703 
Q 3103 4656 3366 4563 
z
" transform="scale(0.015625)"/>
       </defs>
       <use xlink:href="#DejaVuSans-30"/>
       <use xlink:href="#DejaVuSans-2e" x="63.623047"/>
       <use xlink:href="#DejaVuSans-36" x="95.410156"/>
      </g>
     </g>
    </g>
    <g id="xtick_5">
     <g id="line2d_5">
      <g>
       <use xlink:href="#m393081f82f" x="416.945455" y="384.48" style="stroke: #000000; stroke-width: 0.8"/>
      </g>
     </g>
     <g id="text_5">
      <!-- 0.8 -->
      <g transform="translate(408.993892 399.078438) scale(0.1 -0.1)">
       <defs>
        <path id="DejaVuSans-38" d="M 2034 2216 
Q 1584 2216 1326 1975 
Q 1069 1734 1069 1313 
Q 1069 891 1326 650 
Q 1584 409 2034 409 
Q 2484 409 2743 651 
Q 3003 894 3003 1313 
Q 3003 1734 2745 1975 
Q 2488 2216 2034 2216 
z
M 1403 2484 
Q 997 2584 770 2862 
Q 544 3141 544 3541 
Q 544 4100 942 4425 
Q 1341 4750 2034 4750 
Q 2731 4750 3128 4425 
Q 3525 4100 3525 3541 
Q 3525 3141 3298 2862 
Q 3072 2584 2669 2484 
Q 3125 2378 3379 2068 
Q 3634 1759 3634 1313 
Q 3634 634 3220 271 
Q 2806 -91 2034 -91 
Q 1263 -91 848 271 
Q 434 634 434 1313 
Q 434 1759 690 2068 
Q 947 2378 1403 2484 
z
M 1172 3481 
Q 1172 3119 1398 2916 
Q 1625 2713 2034 2713 
Q 2441 2713 2670 2916 
Q 2900 3119 2900 3481 
Q 2900 3844 2670 4047 
Q 2441 4250 2034 4250 
Q 1625 4250 1398 4047 
Q 1172 3844 1172 3481 
z
" transform="scale(0.015625)"/>
       </defs>
       <use xlink:href="#DejaVuSans-30"/>
       <use xlink:href="#DejaVuSans-2e" x="63.623047"/>
       <use xlink:href="#DejaVuSans-38" x="95.410156"/>
      </g>
     </g>
    </g>
    <g id="xtick_6">
     <g id="line2d_6">
      <g>
       <use xlink:href="#m393081f82f" x="498.109091" y="384.48" style="stroke: #000000; stroke-width: 0.8"/>
      </g>
     </g>
     <g id="text_6">
      <!-- 1.0 -->
      <g transform="translate(490.157528 399.078438) scale(0.1 -0.1)">
       <defs>
        <path id="DejaVuSans-31" d="M 794 531 
L 1825 531 
L 1825 4091 
L 703 3866 
L 703 4441 
L 1819 4666 
L 2450 4666 
L 2450 531 
L 3481 531 
L 3481 0 
L 794 0 
L 794 531 
z
" transform="scale(0.015625)"/>
       </defs>
       <use xlink:href="#DejaVuSans-31"/>
       <use xlink:href="#DejaVuSans-2e" x="63.623047"/>
       <use xlink:href="#DejaVuSans-30" x="95.410156"/>
      </g>
     </g>
    </g>
   </g>
   <g id="matplotlib.axis_2">
    <g id="ytick_1">
     <g id="line2d_7">
      <defs>
       <path id="mf71803647c" d="M 0 0 
L -3.5 0 
" style="stroke: #000000; stroke-width: 0.8"/>
      </defs>
      <g>
       <use xlink:href="#mf71803647c" x="72" y="369.36" style="stroke: #000000; stroke-width: 0.8"/>
      </g>
     </g>
     <g id="text_7">
      <!-- −5.0 -->
      <g transform="translate(40.717187 373.159219) scale(0.1 -0.1)">
       <defs>
        <path id="DejaVuSans-2212" d="M 678 2272 
L 4684 2272 
L 4684 1741 
L 678 1741 
L 678 2272 
z
" transform="scale(0.015625)"/>
        <path id="DejaVuSans-35" d="M 691 4666 
L 3169 4666 
L 3169 4134 
L 1269 4134 
L 1269 2991 
Q 1406 3038 1543 3061 
Q 1681 3084 1819 3084 
Q 2600 3084 3056 2656 
Q 3513 2228 3513 1497 
Q 3513 744 3044 326 
Q 2575 -91 1722 -91 
Q 1428 -91 1123 -41 
Q 819 9 494 109 
L 494 744 
Q 775 591 1075 516 
Q 1375 441 1709 441 
Q 2250 441 2565 725 
Q 2881 1009 2881 1497 
Q 2881 1984 2565 2268 
Q 2250 2553 1709 2553 
Q 1456 2553 1204 2497 
Q 953 2441 691 2322 
L 691 4666 
z
" transform="scale(0.015625)"/>
       </defs>
       <use xlink:href="#DejaVuSans-2212"/>
       <use xlink:href="#DejaVuSans-35" x="83.789062"/>
       <use xlink:href="#DejaVuSans-2e" x="147.412109"/>
       <use xlink:href="#DejaVuSans-30" x="179.199219"/>
      </g>
     </g>
    </g>
    <g id="ytick_2">
     <g id="line2d_8">
      <g>
       <use xlink:href="#mf71803647c" x="72" y="331.56" style="stroke: #000000; stroke-width: 0.8"/>
      </g>
     </g>
     <g id="text_8">
      <!-- −2.5 -->
      <g transform="translate(40.717187 335.359219) scale(0.1 -0.1)">
       <use xlink:href="#DejaVuSans-2212"/>
       <use xlink:href="#DejaVuSans-32" x="83.789062"/>
       <use xlink:href="#DejaVuSans-2e" x="147.412109"/>
       <use xlink:href="#DejaVuSans-35" x="179.199219"/>
      </g>
     </g>
    </g>
    <g id="ytick_3">
     <g id="line2d_9">
      <g>
       <use xlink:href="#mf71803647c" x="72" y="293.76" style="stroke: #000000; stroke-width: 0.8"/>
      </g>
     </g>
     <g id="text_9">
      <!-- 0.0 -->
      <g transform="translate(49.096875 297.559219) scale(0.1 -0.1)">
       <use xlink:href="#DejaVuSans-30"/>
       <use xlink:href="#DejaVuSans-2e" x="63.623047"/>
       <use xlink:href="#DejaVuSans-30" x="95.410156"/>
      </g>
     </g>
    </g>
    <g id="ytick_4">
     <g id="line2d_10">
      <g>
       <use xlink:href="#mf71803647c" x="72" y="255.96" style="stroke: #000000; stroke-width: 0.8"/>
      </g>
     </g>
     <g id="text_10">
      <!-- 2.5 -->
      <g transform="translate(49.096875 259.759219) scale(0.1 -0.1)">
       <use xlink:href="#DejaVuSans-32"/>
       <use xlink:href="#DejaVuSans-2e" x="63.623047"/>
       <use xlink:href="#DejaVuSans-35" x="95.410156"/>
      </g>
     </g>
    </g>
    <g id="ytick_5">
     <g id="line2d_11">
      <g>
       <use xlink:href="#mf71803647c" x="72" y="218.16" style="stroke: #000000; stroke-width: 0.8"/>
      </g>
     </g>
     <g id="text_11">
      <!-- 5.0 -->
      <g transform="translate(49.096875 221.959219) scale(0.1 -0.1)">
       <use xlink:href="#DejaVuSans-35"/>
       <use xlink:href="#DejaVuSans-2e" x="63.623047"/>
       <use xlink:href="#DejaVuSans-30" x="95.410156"/>
      </g>
     </g>
    </g>
    <g id="ytick_6">
     <g id="line2d_12">
      <g>
       <use xlink:href="#mf71803647c" x="72" y="180.36" style="stroke: #000000; stroke-width: 0.8"/>
      </g>
     </g>
     <g id="text_12">
      <!-- 7.5 -->
      <g transform="translate(49.096875 184.159219) scale(0.1 -0.1)">
       <defs>
        <path id="DejaVuSans-37" d="M 525 4666 
L 3525 4666 
L 3525 4397 
L 1831 0 
L 1172 0 
L 2766 4134 
L 525 4134 
L 525 4666 
z
" transform="scale(0.015625)"/>
       </defs>
       <use xlink:href="#DejaVuSans-37"/>
       <use xlink:href="#DejaVuSans-2e" x="63.623047"/>
       <use xlink:href="#DejaVuSans-35" x="95.410156"/>
      </g>
     </g>
    </g>
    <g id="ytick_7">
     <g id="line2d_13">
      <g>
       <use xlink:href="#mf71803647c" x="72" y="142.56" style="stroke: #000000; stroke-width: 0.8"/>
      </g>
     </g>
     <g id="text_13">
      <!-- 10.0 -->
      <g transform="translate(42.734375 146.359219) scale(0.1 -0.1)">
       <use xlink:href="#DejaVuSans-31"/>
       <use xlink:href="#DejaVuSans-30" x="63.623047"/>
       <use xlink:href="#DejaVuSans-2e" x="127.246094"/>
       <use xlink:href="#DejaVuSans-30" x="159.033203"/>
      </g>
     </g>
    </g>
    <g id="ytick_8">
     <g id="line2d_14">
      <g>
       <use xlink:href="#mf71803647c" x="72" y="104.76" style="stroke: #000000; stroke-width: 0.8"/>
      </g>
     </g>
     <g id="text_14">
      <!-- 12.5 -->
      <g transform="translate(42.734375 108.559219) scale(0.1 -0.1)">
       <use xlink:href="#DejaVuSans-31"/>
       <use xlink:href="#DejaVuSans-32" x="63.623047"/>
       <use xlink:href="#DejaVuSans-2e" x="127.246094"/>
       <use xlink:href="#DejaVuSans-35" x="159.033203"/>
      </g>
     </g>
    </g>
    <g id="ytick_9">
     <g id="line2d_15">
      <g>
       <use xlink:href="#mf71803647c" x="72" y="66.96" style="stroke: #000000; stroke-width: 0.8"/>
      </g>
     </g>
     <g id="text_15">
      <!-- 15.0 -->
      <g transform="translate(42.734375 70.759219) scale(0.1 -0.1)">
       <use xlink:href="#DejaVuSans-31"/>
       <use xlink:href="#DejaVuSans-35" x="63.623047"/>
       <use xlink:href="#DejaVuSans-2e" x="127.246094"/>
       <use xlink:href="#DejaVuSans-30" x="159.033203"/>
      </g>
     </g>
    </g>
   </g>
   <g id="line2d_16">
    <path d="M 92.290909 324.31752 
L 96.349091 324.36288 
L 100.407273 324.495936 
L 104.465455 324.713664 
L 108.523636 325.006992 
L 112.581818 325.366848 
L 116.64 325.785672 
L 120.698182 326.255904 
L 124.756364 326.76696 
L 128.814545 327.312792 
L 132.872727 327.890376 
L 136.930909 328.49064 
L 140.989091 329.113584 
L 145.047273 329.75316 
L 149.105455 330.406344 
L 153.163636 331.073136 
L 157.221818 331.749 
L 161.28 332.432424 
L 165.338182 333.123408 
L 169.396364 333.818928 
L 173.454545 334.517472 
L 177.512727 335.220552 
L 181.570909 335.925144 
L 185.629091 336.629736 
L 189.687273 337.33584 
L 193.745455 338.040432 
L 197.803636 338.745024 
L 201.861818 339.446592 
L 205.92 340.146648 
L 209.978182 340.84368 
L 214.036364 341.537688 
L 218.094545 342.228672 
L 222.152727 342.913608 
L 226.210909 343.59552 
L 230.269091 344.271384 
L 234.327273 344.942712 
L 238.385455 345.607992 
L 242.443636 346.268736 
L 246.501818 346.92192 
L 250.56 347.567544 
L 254.618182 348.208632 
L 258.676364 348.840648 
L 262.734545 349.466616 
L 266.792727 350.085024 
L 270.850909 350.69436 
L 274.909091 351.297648 
L 278.967273 351.891864 
L 283.025455 352.477008 
L 287.083636 353.054592 
L 291.141818 353.623104 
L 295.2 354.182544 
L 299.258182 354.732912 
L 303.316364 355.274208 
L 307.374545 355.806432 
L 311.432727 356.328072 
L 315.490909 356.84064 
L 319.549091 357.344136 
L 323.607273 357.837048 
L 327.665455 358.320888 
L 331.723636 358.794144 
L 335.781818 359.256816 
L 339.84 359.708904 
L 343.898182 360.15192 
L 347.956364 360.584352 
L 352.014545 361.004688 
L 356.072727 361.415952 
L 360.130909 361.81512 
L 364.189091 362.203704 
L 368.247273 362.581704 
L 372.305455 362.94912 
L 376.363636 363.305952 
L 380.421818 363.650688 
L 384.48 363.98484 
L 388.538182 364.306896 
L 392.596364 364.618368 
L 396.654545 364.917744 
L 400.712727 365.206536 
L 404.770909 365.483232 
L 408.829091 365.749344 
L 412.887273 366.00336 
L 416.945455 366.24528 
L 421.003636 366.476616 
L 425.061818 366.695856 
L 429.12 366.904512 
L 433.178182 367.09956 
L 437.236364 367.284024 
L 441.294545 367.456392 
L 445.352727 367.616664 
L 449.410909 367.766352 
L 453.469091 367.903944 
L 457.527273 368.027928 
L 461.585455 368.141328 
L 465.643636 368.242632 
L 469.701818 368.333352 
L 473.76 368.410464 
L 477.818182 368.47548 
L 481.876364 368.529912 
L 485.934545 368.572248 
L 489.992727 368.600976 
L 494.050909 368.61912 
L 498.109091 368.625168 
" clip-path="url(#p3e10b988a9)" style="fill: none; stroke: #000000; stroke-opacity: 0.5; stroke-linecap: square"/>
   </g>
   <g id="line2d_17">
    <path d="M 92.290909 312.044616 
L 96.349091 312.003792 
L 100.407273 311.884344 
L 104.465455 311.69232 
L 108.523636 311.432256 
L 112.581818 311.116248 
L 116.64 310.748832 
L 120.698182 310.342104 
L 124.756364 309.9006 
L 128.814545 309.43188 
L 132.872727 308.94048 
L 136.930909 308.432448 
L 140.989091 307.909296 
L 145.047273 307.37556 
L 149.105455 306.832752 
L 153.163636 306.282384 
L 157.221818 305.72748 
L 161.28 305.166528 
L 165.338182 304.602552 
L 169.396364 304.035552 
L 173.454545 303.465528 
L 177.512727 302.893992 
L 181.570909 302.319432 
L 185.629091 301.744872 
L 189.687273 301.165776 
L 193.745455 300.58668 
L 197.803636 300.00456 
L 201.861818 299.420928 
L 205.92 298.835784 
L 209.978182 298.247616 
L 214.036364 297.656424 
L 218.094545 297.06372 
L 222.152727 296.46648 
L 226.210909 295.867728 
L 230.269091 295.26444 
L 234.327273 294.658128 
L 238.385455 294.04728 
L 242.443636 293.433408 
L 246.501818 292.815 
L 250.56 292.190544 
L 254.618182 291.563064 
L 258.676364 290.931048 
L 262.734545 290.292984 
L 266.792727 289.650384 
L 270.850909 289.001736 
L 274.909091 288.348552 
L 278.967273 287.68932 
L 283.025455 287.02404 
L 287.083636 286.352712 
L 291.141818 285.676848 
L 295.2 284.994936 
L 299.258182 284.305464 
L 303.316364 283.611456 
L 307.374545 282.9114 
L 311.432727 282.205296 
L 315.490909 281.493144 
L 319.549091 280.774944 
L 323.607273 280.050696 
L 327.665455 279.3204 
L 331.723636 278.584056 
L 335.781818 277.843176 
L 339.84 277.096248 
L 343.898182 276.343272 
L 347.956364 275.58576 
L 352.014545 274.823712 
L 356.072727 274.055616 
L 360.130909 273.284496 
L 364.189091 272.507328 
L 368.247273 271.727136 
L 372.305455 270.94392 
L 376.363636 270.156168 
L 380.421818 269.365392 
L 384.48 268.573104 
L 388.538182 267.779304 
L 392.596364 266.98248 
L 396.654545 266.187168 
L 400.712727 265.390344 
L 404.770909 264.595032 
L 408.829091 263.801232 
L 412.887273 263.010456 
L 416.945455 262.222704 
L 421.003636 261.441 
L 425.061818 260.665344 
L 429.12 259.89876 
L 433.178182 259.14276 
L 437.236364 258.398856 
L 441.294545 257.66856 
L 445.352727 256.956408 
L 449.410909 256.265424 
L 453.469091 255.598632 
L 457.527273 254.960568 
L 461.585455 254.354256 
L 465.643636 253.788768 
L 469.701818 253.265616 
L 473.76 252.793872 
L 477.818182 252.378072 
L 481.876364 252.027288 
L 485.934545 251.746056 
L 489.992727 251.540424 
L 494.050909 251.414928 
L 498.109091 251.372592 
" clip-path="url(#p3e10b988a9)" style="fill: none; stroke: #000000; stroke-opacity: 0.5; stroke-linecap: square"/>
   </g>
   <g id="line2d_18">
    <path d="M 92.290909 265.181688 
L 96.349091 265.174128 
L 100.407273 265.154472 
L 104.465455 265.119696 
L 108.523636 265.071312 
L 112.581818 265.010832 
L 116.64 264.935232 
L 120.698182 264.847536 
L 124.756364 264.746232 
L 128.814545 264.632832 
L 132.872727 264.505824 
L 136.930909 264.36672 
L 140.989091 264.214008 
L 145.047273 264.050712 
L 149.105455 263.873808 
L 153.163636 263.684808 
L 157.221818 263.485224 
L 161.28 263.272032 
L 165.338182 263.048256 
L 169.396364 262.813896 
L 173.454545 262.56744 
L 177.512727 262.308888 
L 181.570909 262.039752 
L 185.629091 261.760032 
L 189.687273 261.469728 
L 193.745455 261.167328 
L 197.803636 260.854344 
L 201.861818 260.530776 
L 205.92 260.196624 
L 209.978182 259.851888 
L 214.036364 259.496568 
L 218.094545 259.130664 
L 222.152727 258.754176 
L 226.210909 258.367104 
L 230.269091 257.97096 
L 234.327273 257.56272 
L 238.385455 257.145408 
L 242.443636 256.719024 
L 246.501818 256.282056 
L 250.56 255.836016 
L 254.618182 255.379392 
L 258.676364 254.913696 
L 262.734545 254.437416 
L 266.792727 253.953576 
L 270.850909 253.459152 
L 274.909091 252.957168 
L 278.967273 252.4446 
L 283.025455 251.924472 
L 287.083636 251.395272 
L 291.141818 250.858512 
L 295.2 250.31268 
L 299.258182 249.759288 
L 303.316364 249.198336 
L 307.374545 248.629824 
L 311.432727 248.053752 
L 315.490909 247.471632 
L 319.549091 246.881952 
L 323.607273 246.286224 
L 327.665455 245.684448 
L 331.723636 245.076624 
L 335.781818 244.464264 
L 339.84 243.847368 
L 343.898182 243.224424 
L 347.956364 242.598456 
L 352.014545 241.969464 
L 356.072727 241.335936 
L 360.130909 240.700896 
L 364.189091 240.064344 
L 368.247273 239.42628 
L 372.305455 238.786704 
L 376.363636 238.14864 
L 380.421818 237.510576 
L 384.48 236.874024 
L 388.538182 236.240496 
L 392.596364 235.611504 
L 396.654545 234.985536 
L 400.712727 234.365616 
L 404.770909 233.753256 
L 408.829091 233.146944 
L 412.887273 232.551216 
L 416.945455 231.966072 
L 421.003636 231.394536 
L 425.061818 230.835096 
L 429.12 230.292288 
L 433.178182 229.766112 
L 437.236364 229.261104 
L 441.294545 228.7818 
L 445.352727 228.331224 
L 449.410909 227.936592 
L 453.469091 227.743056 
L 457.527273 228.030336 
L 461.585455 228.4794 
L 465.643636 228.933 
L 469.701818 229.36392 
L 473.76 229.761576 
L 477.818182 230.113872 
L 481.876364 230.41476 
L 485.934545 230.658192 
L 489.992727 230.836608 
L 494.050909 230.945472 
L 498.109091 230.98176 
" clip-path="url(#p3e10b988a9)" style="fill: none; stroke: #000000; stroke-opacity: 0.5; stroke-linecap: square"/>
   </g>
   <g id="line2d_19">
    <path d="M 92.290909 252.208728 
L 96.349091 252.190584 
L 100.407273 252.136152 
L 104.465455 252.046944 
L 108.523636 251.919936 
L 112.581818 251.758152 
L 116.64 251.561592 
L 120.698182 251.330256 
L 124.756364 251.062632 
L 128.814545 250.761744 
L 132.872727 250.42608 
L 136.930909 250.058664 
L 140.989091 249.657984 
L 145.047273 249.22404 
L 149.105455 248.759856 
L 153.163636 248.265432 
L 157.221818 247.740768 
L 161.28 247.188888 
L 165.338182 246.60828 
L 169.396364 246.000456 
L 173.454545 245.36844 
L 177.512727 244.712232 
L 181.570909 244.031832 
L 185.629091 243.330264 
L 189.687273 242.607528 
L 193.745455 241.866648 
L 197.803636 241.107624 
L 201.861818 240.331968 
L 205.92 239.542704 
L 209.978182 238.739832 
L 214.036364 237.924864 
L 218.094545 237.100824 
L 222.152727 236.267712 
L 226.210909 235.428552 
L 230.269091 234.586368 
L 234.327273 233.739648 
L 238.385455 232.892928 
L 242.443636 232.046208 
L 246.501818 231.204024 
L 250.56 230.366376 
L 254.618182 229.5378 
L 258.676364 228.718296 
L 262.734545 227.909376 
L 266.792727 227.117088 
L 270.850909 226.341432 
L 274.909091 225.58392 
L 278.967273 224.849088 
L 283.025455 224.138448 
L 287.083636 223.455024 
L 291.141818 222.800328 
L 295.2 222.177384 
L 299.258182 221.589216 
L 303.316364 221.037336 
L 307.374545 220.523256 
L 311.432727 220.048488 
L 315.490909 219.617568 
L 319.549091 219.228984 
L 323.607273 218.88576 
L 327.665455 218.587896 
L 331.723636 218.336904 
L 335.781818 218.132784 
L 339.84 217.975536 
L 343.898182 217.86516 
L 347.956364 217.801656 
L 352.014545 217.783512 
L 356.072727 217.810728 
L 360.130909 217.88028 
L 364.189091 217.992168 
L 368.247273 218.146392 
L 372.305455 218.338416 
L 376.363636 218.56824 
L 380.421818 218.834352 
L 384.48 219.13524 
L 388.538182 219.466368 
L 392.596364 219.829248 
L 396.654545 220.219344 
L 400.712727 220.635144 
L 404.770909 221.076648 
L 408.829091 221.53932 
L 412.887273 222.021648 
L 416.945455 222.520608 
L 421.003636 223.034688 
L 425.061818 223.562376 
L 429.12 224.099136 
L 433.178182 224.641944 
L 437.236364 225.187776 
L 441.294545 225.730584 
L 445.352727 226.262808 
L 449.410909 226.757232 
L 453.469091 227.067192 
L 457.527273 226.909944 
L 461.585455 226.599984 
L 465.643636 226.290024 
L 469.701818 226.004256 
L 473.76 225.75024 
L 477.818182 225.531 
L 481.876364 225.34956 
L 485.934545 225.207432 
L 489.992727 225.104616 
L 494.050909 225.041112 
L 498.109091 225.021456 
" clip-path="url(#p3e10b988a9)" style="fill: none; stroke: #000000; stroke-opacity: 0.5; stroke-linecap: square"/>
   </g>
   <g id="line2d_20">
    <path d="M 92.290909 159.35832 
L 96.349091 159.352272 
L 100.407273 159.33564 
L 104.465455 159.306912 
L 108.523636 159.266088 
L 112.581818 159.213168 
L 116.64 159.149664 
L 120.698182 159.074064 
L 124.756364 158.98788 
L 128.814545 158.8896 
L 132.872727 158.779224 
L 136.930909 158.658264 
L 140.989091 158.525208 
L 145.047273 158.381568 
L 149.105455 158.227344 
L 153.163636 158.061024 
L 157.221818 157.885632 
L 161.28 157.696632 
L 165.338182 157.49856 
L 169.396364 157.289904 
L 173.454545 157.069152 
L 177.512727 156.839328 
L 181.570909 156.59892 
L 185.629091 156.347928 
L 189.687273 156.087864 
L 193.745455 155.817216 
L 197.803636 155.535984 
L 201.861818 155.247192 
L 205.92 154.947816 
L 209.978182 154.64088 
L 214.036364 154.327896 
L 218.094545 154.284048 
L 222.152727 155.014344 
L 226.210909 155.740104 
L 230.269091 156.444696 
L 234.327273 157.12812 
L 238.385455 157.78584 
L 242.443636 158.417856 
L 246.501818 159.022656 
L 250.56 159.60024 
L 254.618182 160.149096 
L 258.676364 160.6662 
L 262.734545 161.153064 
L 266.792727 161.605152 
L 270.850909 162.023976 
L 274.909091 162.406512 
L 278.967273 162.751248 
L 283.025455 163.058184 
L 287.083636 163.325808 
L 291.141818 163.551096 
L 295.2 163.732536 
L 299.258182 163.873152 
L 303.316364 163.968408 
L 307.374545 164.018304 
L 311.432727 164.024352 
L 315.490909 163.98504 
L 319.549091 163.900368 
L 323.607273 163.774872 
L 327.665455 163.60704 
L 331.723636 163.40292 
L 335.781818 163.164024 
L 339.84 162.897912 
L 343.898182 162.615168 
L 347.956364 162.324864 
L 352.014545 162.045144 
L 356.072727 161.803224 
L 360.130909 161.632368 
L 364.189091 161.5734 
L 368.247273 161.670168 
L 372.305455 161.94384 
L 376.363636 162.38988 
L 380.421818 162.976536 
L 384.48 163.664496 
L 388.538182 164.417472 
L 392.596364 165.20976 
L 396.654545 166.023216 
L 400.712727 166.84272 
L 404.770909 167.6592 
L 408.829091 168.46812 
L 412.887273 169.26192 
L 416.945455 170.039088 
L 421.003636 170.795088 
L 425.061818 171.526896 
L 429.12 172.234512 
L 433.178182 172.9134 
L 437.236364 173.56356 
L 441.294545 174.181968 
L 445.352727 174.768624 
L 449.410909 175.318992 
L 453.469091 175.833072 
L 457.527273 176.310864 
L 461.585455 176.747832 
L 465.643636 177.143976 
L 469.701818 177.497784 
L 473.76 177.807744 
L 477.818182 178.072344 
L 481.876364 178.290072 
L 485.934545 178.460928 
L 489.992727 178.5834 
L 494.050909 178.657488 
L 498.109091 178.68168 
" clip-path="url(#p3e10b988a9)" style="fill: none; stroke: #000000; stroke-opacity: 0.5; stroke-linecap: square"/>
   </g>
   <g id="line2d_21">
    <path d="M 92.290909 134.715744 
L 96.349091 134.723304 
L 100.407273 134.75052 
L 104.465455 134.797392 
L 108.523636 134.87148 
L 112.581818 134.981856 
L 116.64 135.140616 
L 120.698182 135.36288 
L 124.756364 135.66528 
L 128.814545 136.064448 
L 132.872727 136.567944 
L 136.930909 137.172744 
L 140.989091 137.868264 
L 145.047273 138.637872 
L 149.105455 139.463424 
L 153.163636 140.328288 
L 157.221818 141.220368 
L 161.28 142.127568 
L 165.338182 143.045352 
L 169.396364 143.964648 
L 173.454545 144.883944 
L 177.512727 145.797192 
L 181.570909 146.704392 
L 185.629091 147.601008 
L 189.687273 148.48704 
L 193.745455 149.359464 
L 197.803636 150.21828 
L 201.861818 151.060464 
L 205.92 151.886016 
L 209.978182 152.693424 
L 214.036364 153.478152 
L 218.094545 153.966528 
L 222.152727 153.652032 
L 226.210909 153.31032 
L 230.269091 152.959536 
L 234.327273 152.601192 
L 238.385455 152.233776 
L 242.443636 151.8588 
L 246.501818 151.477776 
L 250.56 151.089192 
L 254.618182 150.69456 
L 258.676364 150.29388 
L 262.734545 149.887152 
L 266.792727 149.474376 
L 270.850909 149.057064 
L 274.909091 148.635216 
L 278.967273 148.208832 
L 283.025455 147.777912 
L 287.083636 147.343968 
L 291.141818 146.908512 
L 295.2 146.470032 
L 299.258182 146.03004 
L 303.316364 145.590048 
L 307.374545 145.15308 
L 311.432727 144.72216 
L 315.490909 144.310896 
L 319.549091 143.963136 
L 323.607273 143.97372 
L 327.665455 144.821952 
L 331.723636 145.94688 
L 335.781818 147.097512 
L 339.84 148.226976 
L 343.898182 149.317128 
L 347.956364 150.355872 
L 352.014545 151.32204 
L 356.072727 152.192952 
L 360.130909 152.936856 
L 364.189091 153.511416 
L 368.247273 153.878832 
L 372.305455 154.016424 
L 376.363636 153.933264 
L 380.421818 153.66564 
L 384.48 153.255888 
L 388.538182 152.741808 
L 392.596364 152.156664 
L 396.654545 151.521624 
L 400.712727 150.857856 
L 404.770909 150.178968 
L 408.829091 149.50008 
L 412.887273 148.837824 
L 416.945455 148.202784 
L 421.003636 147.614616 
L 425.061818 147.086928 
L 429.12 146.639376 
L 433.178182 146.284056 
L 437.236364 146.031552 
L 441.294545 145.883376 
L 445.352727 145.831968 
L 449.410909 145.862208 
L 453.469091 145.955952 
L 457.527273 146.092032 
L 461.585455 146.25684 
L 465.643636 146.43072 
L 469.701818 146.606112 
L 473.76 146.772432 
L 477.818182 146.923632 
L 481.876364 147.052152 
L 485.934545 147.15648 
L 489.992727 147.23208 
L 494.050909 147.278952 
L 498.109091 147.294072 
" clip-path="url(#p3e10b988a9)" style="fill: none; stroke: #000000; stroke-opacity: 0.5; stroke-linecap: square"/>
   </g>
   <g id="line2d_22">
    <path d="M 92.290909 121.19544 
L 96.349091 121.697424 
L 100.407273 122.645448 
L 104.465455 123.669072 
L 108.523636 124.6806 
L 112.581818 125.651304 
L 116.64 126.560016 
L 120.698182 127.38708 
L 124.756364 128.109816 
L 128.814545 128.716128 
L 132.872727 129.192408 
L 136.930909 129.54168 
L 140.989091 129.773016 
L 145.047273 129.90456 
L 149.105455 129.951432 
L 153.163636 129.931776 
L 157.221818 129.856176 
L 161.28 129.736728 
L 165.338182 129.576456 
L 169.396364 129.384432 
L 173.454545 129.16368 
L 177.512727 128.917224 
L 181.570909 128.645064 
L 185.629091 128.353248 
L 189.687273 128.038752 
L 193.745455 127.706112 
L 197.803636 127.355328 
L 201.861818 126.9864 
L 205.92 126.60084 
L 209.978182 126.198648 
L 214.036364 125.782848 
L 218.094545 125.35344 
L 222.152727 124.911936 
L 226.210909 124.459848 
L 230.269091 124.001712 
L 234.327273 123.542064 
L 238.385455 123.089976 
L 242.443636 122.66208 
L 246.501818 122.294664 
L 250.56 122.05728 
L 254.618182 122.092056 
L 258.676364 122.5638 
L 262.734545 123.458904 
L 266.792727 124.609536 
L 270.850909 125.887176 
L 274.909091 127.223784 
L 278.967273 128.587608 
L 283.025455 129.963528 
L 287.083636 131.342472 
L 291.141818 132.718392 
L 295.2 134.086752 
L 299.258182 135.44604 
L 303.316364 136.790208 
L 307.374545 138.119256 
L 311.432727 139.424112 
L 315.490909 140.694192 
L 319.549091 141.8796 
L 323.607273 142.685496 
L 327.665455 142.629552 
L 331.723636 142.27272 
L 335.781818 141.859944 
L 339.84 141.432048 
L 343.898182 140.999616 
L 347.956364 140.567184 
L 352.014545 140.134752 
L 356.072727 139.706856 
L 360.130909 139.281984 
L 364.189091 138.861648 
L 368.247273 138.445848 
L 372.305455 138.037608 
L 376.363636 137.635416 
L 380.421818 137.240784 
L 384.48 136.855224 
L 388.538182 136.480248 
L 392.596364 136.117368 
L 396.654545 135.769608 
L 400.712727 135.439992 
L 404.770909 135.142128 
L 408.829091 134.897184 
L 412.887273 134.75808 
L 416.945455 134.807976 
L 421.003636 135.048384 
L 425.061818 135.35532 
L 429.12 135.62748 
L 433.178182 135.813456 
L 437.236364 135.89208 
L 441.294545 135.860328 
L 445.352727 135.728784 
L 449.410909 135.515592 
L 453.469091 135.243432 
L 457.527273 134.93952 
L 461.585455 134.623512 
L 465.643636 134.316576 
L 469.701818 134.029296 
L 473.76 133.773768 
L 477.818182 133.554528 
L 481.876364 133.3746 
L 485.934545 133.233984 
L 489.992727 133.135704 
L 494.050909 133.075224 
L 498.109091 133.055568 
" clip-path="url(#p3e10b988a9)" style="fill: none; stroke: #000000; stroke-opacity: 0.5; stroke-linecap: square"/>
   </g>
   <g id="line2d_23">
    <path d="M 92.290909 118.998504 
L 96.349091 118.467792 
L 100.407273 117.435096 
L 104.465455 116.267832 
L 108.523636 115.046136 
L 112.581818 113.789664 
L 116.64 112.509 
L 120.698182 111.20868 
L 124.756364 109.891728 
L 128.814545 108.559656 
L 132.872727 107.212464 
L 136.930909 105.851664 
L 140.989091 104.48028 
L 145.047273 103.0968 
L 149.105455 101.704248 
L 153.163636 100.301112 
L 157.221818 98.888904 
L 161.28 97.469136 
L 165.338182 96.041808 
L 169.396364 94.611456 
L 173.454545 93.184128 
L 177.512727 91.803672 
L 181.570909 91.682712 
L 185.629091 93.135744 
L 189.687273 94.662864 
L 193.745455 96.200568 
L 197.803636 97.739784 
L 201.861818 99.277488 
L 205.92 100.81368 
L 209.978182 102.346848 
L 214.036364 103.873968 
L 218.094545 105.39504 
L 222.152727 106.90704 
L 226.210909 108.408456 
L 230.269091 109.896264 
L 234.327273 111.362904 
L 238.385455 112.800816 
L 242.443636 114.191856 
L 246.501818 115.501248 
L 250.56 116.657928 
L 254.618182 117.518256 
L 258.676364 117.918936 
L 262.734545 117.872064 
L 266.792727 117.545472 
L 270.850909 117.069192 
L 274.909091 116.50824 
L 278.967273 115.894368 
L 283.025455 115.244208 
L 287.083636 114.566832 
L 291.141818 113.8698 
L 295.2 113.154624 
L 299.258182 112.430376 
L 303.316364 111.70008 
L 307.374545 110.978856 
L 311.432727 110.284848 
L 315.490909 109.667952 
L 319.549091 109.247616 
L 323.607273 109.276344 
L 327.665455 109.926504 
L 331.723636 110.986416 
L 335.781818 112.217184 
L 339.84 113.509944 
L 343.898182 114.820848 
L 347.956364 116.13024 
L 352.014545 117.429048 
L 356.072727 118.709712 
L 360.130909 119.97072 
L 364.189091 121.206024 
L 368.247273 122.414112 
L 372.305455 123.593472 
L 376.363636 124.74108 
L 380.421818 125.8524 
L 384.48 126.927432 
L 388.538182 127.960128 
L 392.596364 128.947464 
L 396.654545 129.883392 
L 400.712727 130.757328 
L 404.770909 131.554152 
L 408.829091 132.245136 
L 412.887273 132.771312 
L 416.945455 133.040448 
L 421.003636 133.037424 
L 425.061818 132.87564 
L 429.12 132.645816 
L 433.178182 132.385752 
L 437.236364 132.113592 
L 441.294545 131.835384 
L 445.352727 131.551128 
L 449.410909 131.263848 
L 453.469091 130.973544 
L 457.527273 130.681728 
L 461.585455 130.386888 
L 465.643636 130.09356 
L 469.701818 129.80628 
L 473.76 129.531096 
L 477.818182 129.27708 
L 481.876364 129.051792 
L 485.934545 128.867328 
L 489.992727 128.726712 
L 494.050909 128.640528 
L 498.109091 128.6118 
" clip-path="url(#p3e10b988a9)" style="fill: none; stroke: #000000; stroke-opacity: 0.5; stroke-linecap: square"/>
   </g>
   <g id="patch_3">
    <path d="M 72 384.48 
L 72 51.84 
" style="fill: none; stroke: #000000; stroke-width: 0.8; stroke-linejoin: miter; stroke-linecap: square"/>
   </g>
   <g id="patch_4">
    <path d="M 518.4 384.48 
L 518.4 51.84 
" style="fill: none; stroke: #000000; stroke-width: 0.8; stroke-linejoin: miter; stroke-linecap: square"/>
   </g>
   <g id="patch_5">
    <path d="M 72 384.48 
L 518.4 384.48 
" style="fill: none; stroke: #000000; stroke-width: 0.8; stroke-linejoin: miter; stroke-linecap: square"/>
   </g>
   <g id="patch_6">
    <path d="M 72 51.84 
L 518.4 51.84 
" style="fill: none; stroke: #000000; stroke-width: 0.8; stroke-linejoin: miter; stroke-linecap: square"/>
   </g>
  </g>
 </g>
 <defs>
  <clipPath id="p3e10b988a9">
   <rect x="72" y="51.84" width="446.4" height="332.64"/>
  </clipPath>
 </defs>
</svg>
