<?xml version="1.0" encoding="utf-8" standalone="no"?>
<!DOCTYPE svg PUBLIC "-//W3C//DTD SVG 1.1//EN"
  "http://www.w3.org/Graphics/SVG/1.1/DTD/svg11.dtd">
<svg xmlns:xlink="http://www.w3.org/1999/xlink" width="576pt" height="432pt" viewBox="0 0 576 432" xmlns="http://www.w3.org/2000/svg" version="1.1">
 <metadata>
  <rdf:RDF xmlns:dc="http://purl.org/dc/elements/1.1/" xmlns:cc="http://creativecommons.org/ns#" xmlns:rdf="http://www.w3.org/1999/02/22-rdf-syntax-ns#">
   <cc:Work>
    <dc:type rdf:resource="http://purl.org/dc/dcmitype/StillImage"/>
    <dc:date>2023-05-02T18:29:58.608688</dc:date>
    <dc:format>image/svg+xml</dc:format>
    <dc:creator>
     <cc:Agent>
      <dc:title>Matplotlib v3.7.1, https://matplotlib.org/</dc:title>
     </cc:Agent>
    </dc:creator>
   </cc:Work>
  </rdf:RDF>
 </metadata>
 <defs>
  <style type="text/css">*{stroke-linejoin: round; stroke-linecap: butt}</style>
 </defs>
 <g id="figure_1">
  <g id="patch_1">
   <path d="M 0 432 
L 576 432 
L 576 0 
L 0 0 
z
" style="fill: #ffffff"/>
  </g>
  <g id="axes_1">
   <g id="patch_2">
    <path d="M 72 384.48 
L 518.4 384.48 
L 518.4 51.84 
L 72 51.84 
z
" style="fill: #ffffff"/>
   </g>
   <g id="matplotlib.axis_1">
    <g id="xtick_1">
     <g id="line2d_1">
      <defs>
       <path id="mdd388c01bd" d="M 0 0 
L 0 3.5 
" style="stroke: #000000; stroke-width: 0.8"/>
      </defs>
      <g>
       <use xlink:href="#mdd388c01bd" x="92.290909" y="384.48" style="stroke: #000000; stroke-width: 0.8"/>
      </g>
     </g>
     <g id="text_1">
      <!-- 0.0 -->
      <g transform="translate(84.339347 399.078438) scale(0.1 -0.1)">
       <defs>
        <path id="DejaVuSans-30" d="M 2034 4250 
Q 1547 4250 1301 3770 
Q 1056 3291 1056 2328 
Q 1056 1369 1301 889 
Q 1547 409 2034 409 
Q 2525 409 2770 889 
Q 3016 1369 3016 2328 
Q 3016 3291 2770 3770 
Q 2525 4250 2034 4250 
z
M 2034 4750 
Q 2819 4750 3233 4129 
Q 3647 3509 3647 2328 
Q 3647 1150 3233 529 
Q 2819 -91 2034 -91 
Q 1250 -91 836 529 
Q 422 1150 422 2328 
Q 422 3509 836 4129 
Q 1250 4750 2034 4750 
z
" transform="scale(0.015625)"/>
        <path id="DejaVuSans-2e" d="M 684 794 
L 1344 794 
L 1344 0 
L 684 0 
L 684 794 
z
" transform="scale(0.015625)"/>
       </defs>
       <use xlink:href="#DejaVuSans-30"/>
       <use xlink:href="#DejaVuSans-2e" x="63.623047"/>
       <use xlink:href="#DejaVuSans-30" x="95.410156"/>
      </g>
     </g>
    </g>
    <g id="xtick_2">
     <g id="line2d_2">
      <g>
       <use xlink:href="#mdd388c01bd" x="173.454545" y="384.48" style="stroke: #000000; stroke-width: 0.8"/>
      </g>
     </g>
     <g id="text_2">
      <!-- 0.2 -->
      <g transform="translate(165.502983 399.078438) scale(0.1 -0.1)">
       <defs>
        <path id="DejaVuSans-32" d="M 1228 531 
L 3431 531 
L 3431 0 
L 469 0 
L 469 531 
Q 828 903 1448 1529 
Q 2069 2156 2228 2338 
Q 2531 2678 2651 2914 
Q 2772 3150 2772 3378 
Q 2772 3750 2511 3984 
Q 2250 4219 1831 4219 
Q 1534 4219 1204 4116 
Q 875 4013 500 3803 
L 500 4441 
Q 881 4594 1212 4672 
Q 1544 4750 1819 4750 
Q 2544 4750 2975 4387 
Q 3406 4025 3406 3419 
Q 3406 3131 3298 2873 
Q 3191 2616 2906 2266 
Q 2828 2175 2409 1742 
Q 1991 1309 1228 531 
z
" transform="scale(0.015625)"/>
       </defs>
       <use xlink:href="#DejaVuSans-30"/>
       <use xlink:href="#DejaVuSans-2e" x="63.623047"/>
       <use xlink:href="#DejaVuSans-32" x="95.410156"/>
      </g>
     </g>
    </g>
    <g id="xtick_3">
     <g id="line2d_3">
      <g>
       <use xlink:href="#mdd388c01bd" x="254.618182" y="384.48" style="stroke: #000000; stroke-width: 0.8"/>
      </g>
     </g>
     <g id="text_3">
      <!-- 0.4 -->
      <g transform="translate(246.666619 399.078438) scale(0.1 -0.1)">
       <defs>
        <path id="DejaVuSans-34" d="M 2419 4116 
L 825 1625 
L 2419 1625 
L 2419 4116 
z
M 2253 4666 
L 3047 4666 
L 3047 1625 
L 3713 1625 
L 3713 1100 
L 3047 1100 
L 3047 0 
L 2419 0 
L 2419 1100 
L 313 1100 
L 313 1709 
L 2253 4666 
z
" transform="scale(0.015625)"/>
       </defs>
       <use xlink:href="#DejaVuSans-30"/>
       <use xlink:href="#DejaVuSans-2e" x="63.623047"/>
       <use xlink:href="#DejaVuSans-34" x="95.410156"/>
      </g>
     </g>
    </g>
    <g id="xtick_4">
     <g id="line2d_4">
      <g>
       <use xlink:href="#mdd388c01bd" x="335.781818" y="384.48" style="stroke: #000000; stroke-width: 0.8"/>
      </g>
     </g>
     <g id="text_4">
      <!-- 0.6 -->
      <g transform="translate(327.830256 399.078438) scale(0.1 -0.1)">
       <defs>
        <path id="DejaVuSans-36" d="M 2113 2584 
Q 1688 2584 1439 2293 
Q 1191 2003 1191 1497 
Q 1191 994 1439 701 
Q 1688 409 2113 409 
Q 2538 409 2786 701 
Q 3034 994 3034 1497 
Q 3034 2003 2786 2293 
Q 2538 2584 2113 2584 
z
M 3366 4563 
L 3366 3988 
Q 3128 4100 2886 4159 
Q 2644 4219 2406 4219 
Q 1781 4219 1451 3797 
Q 1122 3375 1075 2522 
Q 1259 2794 1537 2939 
Q 1816 3084 2150 3084 
Q 2853 3084 3261 2657 
Q 3669 2231 3669 1497 
Q 3669 778 3244 343 
Q 2819 -91 2113 -91 
Q 1303 -91 875 529 
Q 447 1150 447 2328 
Q 447 3434 972 4092 
Q 1497 4750 2381 4750 
Q 2619 4750 2861 4703 
Q 3103 4656 3366 4563 
z
" transform="scale(0.015625)"/>
       </defs>
       <use xlink:href="#DejaVuSans-30"/>
       <use xlink:href="#DejaVuSans-2e" x="63.623047"/>
       <use xlink:href="#DejaVuSans-36" x="95.410156"/>
      </g>
     </g>
    </g>
    <g id="xtick_5">
     <g id="line2d_5">
      <g>
       <use xlink:href="#mdd388c01bd" x="416.945455" y="384.48" style="stroke: #000000; stroke-width: 0.8"/>
      </g>
     </g>
     <g id="text_5">
      <!-- 0.8 -->
      <g transform="translate(408.993892 399.078438) scale(0.1 -0.1)">
       <defs>
        <path id="DejaVuSans-38" d="M 2034 2216 
Q 1584 2216 1326 1975 
Q 1069 1734 1069 1313 
Q 1069 891 1326 650 
Q 1584 409 2034 409 
Q 2484 409 2743 651 
Q 3003 894 3003 1313 
Q 3003 1734 2745 1975 
Q 2488 2216 2034 2216 
z
M 1403 2484 
Q 997 2584 770 2862 
Q 544 3141 544 3541 
Q 544 4100 942 4425 
Q 1341 4750 2034 4750 
Q 2731 4750 3128 4425 
Q 3525 4100 3525 3541 
Q 3525 3141 3298 2862 
Q 3072 2584 2669 2484 
Q 3125 2378 3379 2068 
Q 3634 1759 3634 1313 
Q 3634 634 3220 271 
Q 2806 -91 2034 -91 
Q 1263 -91 848 271 
Q 434 634 434 1313 
Q 434 1759 690 2068 
Q 947 2378 1403 2484 
z
M 1172 3481 
Q 1172 3119 1398 2916 
Q 1625 2713 2034 2713 
Q 2441 2713 2670 2916 
Q 2900 3119 2900 3481 
Q 2900 3844 2670 4047 
Q 2441 4250 2034 4250 
Q 1625 4250 1398 4047 
Q 1172 3844 1172 3481 
z
" transform="scale(0.015625)"/>
       </defs>
       <use xlink:href="#DejaVuSans-30"/>
       <use xlink:href="#DejaVuSans-2e" x="63.623047"/>
       <use xlink:href="#DejaVuSans-38" x="95.410156"/>
      </g>
     </g>
    </g>
    <g id="xtick_6">
     <g id="line2d_6">
      <g>
       <use xlink:href="#mdd388c01bd" x="498.109091" y="384.48" style="stroke: #000000; stroke-width: 0.8"/>
      </g>
     </g>
     <g id="text_6">
      <!-- 1.0 -->
      <g transform="translate(490.157528 399.078438) scale(0.1 -0.1)">
       <defs>
        <path id="DejaVuSans-31" d="M 794 531 
L 1825 531 
L 1825 4091 
L 703 3866 
L 703 4441 
L 1819 4666 
L 2450 4666 
L 2450 531 
L 3481 531 
L 3481 0 
L 794 0 
L 794 531 
z
" transform="scale(0.015625)"/>
       </defs>
       <use xlink:href="#DejaVuSans-31"/>
       <use xlink:href="#DejaVuSans-2e" x="63.623047"/>
       <use xlink:href="#DejaVuSans-30" x="95.410156"/>
      </g>
     </g>
    </g>
   </g>
   <g id="matplotlib.axis_2">
    <g id="ytick_1">
     <g id="line2d_7">
      <defs>
       <path id="m1ac815f244" d="M 0 0 
L -3.5 0 
" style="stroke: #000000; stroke-width: 0.8"/>
      </defs>
      <g>
       <use xlink:href="#m1ac815f244" x="72" y="369.36" style="stroke: #000000; stroke-width: 0.8"/>
      </g>
     </g>
     <g id="text_7">
      <!-- −5.0 -->
      <g transform="translate(40.717187 373.159219) scale(0.1 -0.1)">
       <defs>
        <path id="DejaVuSans-2212" d="M 678 2272 
L 4684 2272 
L 4684 1741 
L 678 1741 
L 678 2272 
z
" transform="scale(0.015625)"/>
        <path id="DejaVuSans-35" d="M 691 4666 
L 3169 4666 
L 3169 4134 
L 1269 4134 
L 1269 2991 
Q 1406 3038 1543 3061 
Q 1681 3084 1819 3084 
Q 2600 3084 3056 2656 
Q 3513 2228 3513 1497 
Q 3513 744 3044 326 
Q 2575 -91 1722 -91 
Q 1428 -91 1123 -41 
Q 819 9 494 109 
L 494 744 
Q 775 591 1075 516 
Q 1375 441 1709 441 
Q 2250 441 2565 725 
Q 2881 1009 2881 1497 
Q 2881 1984 2565 2268 
Q 2250 2553 1709 2553 
Q 1456 2553 1204 2497 
Q 953 2441 691 2322 
L 691 4666 
z
" transform="scale(0.015625)"/>
       </defs>
       <use xlink:href="#DejaVuSans-2212"/>
       <use xlink:href="#DejaVuSans-35" x="83.789062"/>
       <use xlink:href="#DejaVuSans-2e" x="147.412109"/>
       <use xlink:href="#DejaVuSans-30" x="179.199219"/>
      </g>
     </g>
    </g>
    <g id="ytick_2">
     <g id="line2d_8">
      <g>
       <use xlink:href="#m1ac815f244" x="72" y="331.56" style="stroke: #000000; stroke-width: 0.8"/>
      </g>
     </g>
     <g id="text_8">
      <!-- −2.5 -->
      <g transform="translate(40.717187 335.359219) scale(0.1 -0.1)">
       <use xlink:href="#DejaVuSans-2212"/>
       <use xlink:href="#DejaVuSans-32" x="83.789062"/>
       <use xlink:href="#DejaVuSans-2e" x="147.412109"/>
       <use xlink:href="#DejaVuSans-35" x="179.199219"/>
      </g>
     </g>
    </g>
    <g id="ytick_3">
     <g id="line2d_9">
      <g>
       <use xlink:href="#m1ac815f244" x="72" y="293.76" style="stroke: #000000; stroke-width: 0.8"/>
      </g>
     </g>
     <g id="text_9">
      <!-- 0.0 -->
      <g transform="translate(49.096875 297.559219) scale(0.1 -0.1)">
       <use xlink:href="#DejaVuSans-30"/>
       <use xlink:href="#DejaVuSans-2e" x="63.623047"/>
       <use xlink:href="#DejaVuSans-30" x="95.410156"/>
      </g>
     </g>
    </g>
    <g id="ytick_4">
     <g id="line2d_10">
      <g>
       <use xlink:href="#m1ac815f244" x="72" y="255.96" style="stroke: #000000; stroke-width: 0.8"/>
      </g>
     </g>
     <g id="text_10">
      <!-- 2.5 -->
      <g transform="translate(49.096875 259.759219) scale(0.1 -0.1)">
       <use xlink:href="#DejaVuSans-32"/>
       <use xlink:href="#DejaVuSans-2e" x="63.623047"/>
       <use xlink:href="#DejaVuSans-35" x="95.410156"/>
      </g>
     </g>
    </g>
    <g id="ytick_5">
     <g id="line2d_11">
      <g>
       <use xlink:href="#m1ac815f244" x="72" y="218.16" style="stroke: #000000; stroke-width: 0.8"/>
      </g>
     </g>
     <g id="text_11">
      <!-- 5.0 -->
      <g transform="translate(49.096875 221.959219) scale(0.1 -0.1)">
       <use xlink:href="#DejaVuSans-35"/>
       <use xlink:href="#DejaVuSans-2e" x="63.623047"/>
       <use xlink:href="#DejaVuSans-30" x="95.410156"/>
      </g>
     </g>
    </g>
    <g id="ytick_6">
     <g id="line2d_12">
      <g>
       <use xlink:href="#m1ac815f244" x="72" y="180.36" style="stroke: #000000; stroke-width: 0.8"/>
      </g>
     </g>
     <g id="text_12">
      <!-- 7.5 -->
      <g transform="translate(49.096875 184.159219) scale(0.1 -0.1)">
       <defs>
        <path id="DejaVuSans-37" d="M 525 4666 
L 3525 4666 
L 3525 4397 
L 1831 0 
L 1172 0 
L 2766 4134 
L 525 4134 
L 525 4666 
z
" transform="scale(0.015625)"/>
       </defs>
       <use xlink:href="#DejaVuSans-37"/>
       <use xlink:href="#DejaVuSans-2e" x="63.623047"/>
       <use xlink:href="#DejaVuSans-35" x="95.410156"/>
      </g>
     </g>
    </g>
    <g id="ytick_7">
     <g id="line2d_13">
      <g>
       <use xlink:href="#m1ac815f244" x="72" y="142.56" style="stroke: #000000; stroke-width: 0.8"/>
      </g>
     </g>
     <g id="text_13">
      <!-- 10.0 -->
      <g transform="translate(42.734375 146.359219) scale(0.1 -0.1)">
       <use xlink:href="#DejaVuSans-31"/>
       <use xlink:href="#DejaVuSans-30" x="63.623047"/>
       <use xlink:href="#DejaVuSans-2e" x="127.246094"/>
       <use xlink:href="#DejaVuSans-30" x="159.033203"/>
      </g>
     </g>
    </g>
    <g id="ytick_8">
     <g id="line2d_14">
      <g>
       <use xlink:href="#m1ac815f244" x="72" y="104.76" style="stroke: #000000; stroke-width: 0.8"/>
      </g>
     </g>
     <g id="text_14">
      <!-- 12.5 -->
      <g transform="translate(42.734375 108.559219) scale(0.1 -0.1)">
       <use xlink:href="#DejaVuSans-31"/>
       <use xlink:href="#DejaVuSans-32" x="63.623047"/>
       <use xlink:href="#DejaVuSans-2e" x="127.246094"/>
       <use xlink:href="#DejaVuSans-35" x="159.033203"/>
      </g>
     </g>
    </g>
    <g id="ytick_9">
     <g id="line2d_15">
      <g>
       <use xlink:href="#m1ac815f244" x="72" y="66.96" style="stroke: #000000; stroke-width: 0.8"/>
      </g>
     </g>
     <g id="text_15">
      <!-- 15.0 -->
      <g transform="translate(42.734375 70.759219) scale(0.1 -0.1)">
       <use xlink:href="#DejaVuSans-31"/>
       <use xlink:href="#DejaVuSans-35" x="63.623047"/>
       <use xlink:href="#DejaVuSans-2e" x="127.246094"/>
       <use xlink:href="#DejaVuSans-30" x="159.033203"/>
      </g>
     </g>
    </g>
   </g>
   <g id="line2d_16">
    <path d="M 92.290909 355.93344 
L 96.349091 355.928904 
L 100.407273 355.912272 
L 104.465455 355.886568 
L 108.523636 355.848768 
L 112.581818 355.801896 
L 116.64 355.74444 
L 120.698182 355.6764 
L 124.756364 355.597776 
L 128.814545 355.508568 
L 132.872727 355.408776 
L 136.930909 355.2984 
L 140.989091 355.178952 
L 145.047273 355.047408 
L 149.105455 354.906792 
L 153.163636 354.757104 
L 157.221818 354.59532 
L 161.28 354.424464 
L 165.338182 354.244536 
L 169.396364 354.054024 
L 173.454545 353.852928 
L 177.512727 353.64276 
L 181.570909 353.422008 
L 185.629091 353.193696 
L 189.687273 352.9548 
L 193.745455 352.706832 
L 197.803636 352.44828 
L 201.861818 352.182168 
L 205.92 351.906984 
L 209.978182 351.622728 
L 214.036364 351.3294 
L 218.094545 351.028512 
L 222.152727 350.718552 
L 226.210909 350.39952 
L 230.269091 350.07444 
L 234.327273 349.740288 
L 238.385455 349.398576 
L 242.443636 349.049304 
L 246.501818 348.692472 
L 250.56 348.329592 
L 254.618182 347.959152 
L 258.676364 347.582664 
L 262.734545 347.200128 
L 266.792727 346.811544 
L 270.850909 346.416912 
L 274.909091 346.016232 
L 278.967273 345.612528 
L 283.025455 345.202776 
L 287.083636 344.788488 
L 291.141818 344.369664 
L 295.2 343.947816 
L 299.258182 343.522944 
L 303.316364 343.095048 
L 307.374545 342.66564 
L 311.432727 342.233208 
L 315.490909 341.799264 
L 319.549091 341.36532 
L 323.607273 340.929864 
L 327.665455 340.49592 
L 331.723636 340.061976 
L 335.781818 339.628032 
L 339.84 339.197112 
L 343.898182 338.769216 
L 347.956364 338.342832 
L 352.014545 337.920984 
L 356.072727 337.503672 
L 360.130909 337.090896 
L 364.189091 336.682656 
L 368.247273 336.281976 
L 372.305455 335.888856 
L 376.363636 335.501784 
L 380.421818 335.123784 
L 384.48 334.754856 
L 388.538182 334.395 
L 392.596364 334.045728 
L 396.654545 333.70704 
L 400.712727 333.378936 
L 404.770909 333.062928 
L 408.829091 332.760528 
L 412.887273 332.468712 
L 416.945455 332.190504 
L 421.003636 331.925904 
L 425.061818 331.674912 
L 429.12 331.43904 
L 433.178182 331.215264 
L 437.236364 331.005096 
L 441.294545 330.810048 
L 445.352727 330.63012 
L 449.410909 330.462288 
L 453.469091 330.309576 
L 457.527273 330.170472 
L 461.585455 330.046488 
L 465.643636 329.9346 
L 469.701818 329.83632 
L 473.76 329.751648 
L 477.818182 329.680584 
L 481.876364 329.623128 
L 485.934545 329.577768 
L 489.992727 329.546016 
L 494.050909 329.52636 
L 498.109091 329.520312 
" clip-path="url(#pc524cb4b92)" style="fill: none; stroke: #000000; stroke-opacity: 0.5; stroke-linecap: square"/>
   </g>
   <g id="line2d_17">
    <path d="M 92.290909 274.863024 
L 96.349091 274.881168 
L 100.407273 274.934088 
L 104.465455 275.021784 
L 108.523636 275.144256 
L 112.581818 275.299992 
L 116.64 275.490504 
L 120.698182 275.711256 
L 124.756364 275.962248 
L 128.814545 276.244992 
L 132.872727 276.554952 
L 136.930909 276.892128 
L 140.989091 277.253496 
L 145.047273 277.640568 
L 149.105455 278.048808 
L 153.163636 278.478216 
L 157.221818 278.92728 
L 161.28 279.394488 
L 165.338182 279.876816 
L 169.396364 280.374264 
L 173.454545 280.886832 
L 177.512727 281.409984 
L 181.570909 281.945232 
L 185.629091 282.48804 
L 189.687273 283.041432 
L 193.745455 283.600872 
L 197.803636 284.16636 
L 201.861818 284.736384 
L 205.92 285.310944 
L 209.978182 285.888528 
L 214.036364 286.467624 
L 218.094545 287.048232 
L 222.152727 287.630352 
L 226.210909 288.21096 
L 230.269091 288.790056 
L 234.327273 289.369152 
L 238.385455 289.943712 
L 242.443636 290.51676 
L 246.501818 291.085272 
L 250.56 291.649248 
L 254.618182 292.208688 
L 258.676364 292.76208 
L 262.734545 293.310936 
L 266.792727 293.852232 
L 270.850909 294.38748 
L 274.909091 294.915168 
L 278.967273 295.435296 
L 283.025455 295.947864 
L 287.083636 296.45136 
L 291.141818 296.945784 
L 295.2 297.431136 
L 299.258182 297.905904 
L 303.316364 298.3716 
L 307.374545 298.828224 
L 311.432727 299.272752 
L 315.490909 299.706696 
L 319.549091 300.130056 
L 323.607273 300.54132 
L 327.665455 300.940488 
L 331.723636 301.329072 
L 335.781818 301.704048 
L 339.84 302.066928 
L 343.898182 302.4162 
L 347.956364 302.753376 
L 352.014545 303.076944 
L 356.072727 303.386904 
L 360.130909 303.684768 
L 364.189091 303.967512 
L 368.247273 304.236648 
L 372.305455 304.492176 
L 376.363636 304.734096 
L 380.421818 304.960896 
L 384.48 305.174088 
L 388.538182 305.373672 
L 392.596364 305.559648 
L 396.654545 305.732016 
L 400.712727 305.890776 
L 404.770909 306.035928 
L 408.829091 306.168984 
L 412.887273 306.288432 
L 416.945455 306.395784 
L 421.003636 306.492552 
L 425.061818 306.578736 
L 429.12 306.652824 
L 433.178182 306.71784 
L 437.236364 306.773784 
L 441.294545 306.822168 
L 445.352727 306.86148 
L 449.410909 306.894744 
L 453.469091 306.92196 
L 457.527273 306.943128 
L 461.585455 306.95976 
L 465.643636 306.973368 
L 469.701818 306.98244 
L 473.76 306.99 
L 477.818182 306.994536 
L 481.876364 306.999072 
L 485.934545 307.000584 
L 489.992727 307.002096 
L 494.050909 307.002096 
L 498.109091 307.002096 
" clip-path="url(#pc524cb4b92)" style="fill: none; stroke: #000000; stroke-opacity: 0.5; stroke-linecap: square"/>
   </g>
   <g id="line2d_18">
    <path d="M 92.290909 241.86816 
L 96.349091 241.87572 
L 100.407273 241.899912 
L 104.465455 241.940736 
L 108.523636 241.998192 
L 112.581818 242.070768 
L 116.64 242.159976 
L 120.698182 242.264304 
L 124.756364 242.385264 
L 128.814545 242.521344 
L 132.872727 242.672544 
L 136.930909 242.840376 
L 140.989091 243.02484 
L 145.047273 243.224424 
L 149.105455 243.44064 
L 153.163636 243.673488 
L 157.221818 243.921456 
L 161.28 244.187568 
L 165.338182 244.4688 
L 169.396364 244.766664 
L 173.454545 245.079648 
L 177.512727 245.409264 
L 181.570909 245.750976 
L 185.629091 246.10932 
L 189.687273 246.47976 
L 193.745455 246.862296 
L 197.803636 247.256928 
L 201.861818 247.663656 
L 205.92 248.077944 
L 209.978182 248.502816 
L 214.036364 248.935248 
L 218.094545 249.37524 
L 222.152727 249.82128 
L 226.210909 250.271856 
L 230.269091 250.726968 
L 234.327273 251.185104 
L 238.385455 251.646264 
L 242.443636 252.108936 
L 246.501818 252.571608 
L 250.56 253.03428 
L 254.618182 253.49544 
L 258.676364 253.955088 
L 262.734545 254.413224 
L 266.792727 254.866824 
L 270.850909 255.3174 
L 274.909091 255.76344 
L 278.967273 256.203432 
L 283.025455 256.638888 
L 287.083636 257.066784 
L 291.141818 257.48712 
L 295.2 257.899896 
L 299.258182 258.305112 
L 303.316364 258.702768 
L 307.374545 259.08984 
L 311.432727 259.466328 
L 315.490909 259.833744 
L 319.549091 260.190576 
L 323.607273 260.535312 
L 327.665455 260.867952 
L 331.723636 261.190008 
L 335.781818 261.496944 
L 339.84 261.793296 
L 343.898182 262.074528 
L 347.956364 262.342152 
L 352.014545 262.596168 
L 356.072727 262.833552 
L 360.130909 263.057328 
L 364.189091 263.264472 
L 368.247273 263.456496 
L 372.305455 263.630376 
L 376.363636 263.789136 
L 380.421818 263.92824 
L 384.48 264.050712 
L 388.538182 264.156552 
L 392.596364 264.242736 
L 396.654545 264.309264 
L 400.712727 264.357648 
L 404.770909 264.386376 
L 408.829091 264.39696 
L 412.887273 264.386376 
L 416.945455 264.357648 
L 421.003636 264.307752 
L 425.061818 264.2382 
L 429.12 264.150504 
L 433.178182 264.043152 
L 437.236364 263.917656 
L 441.294545 263.774016 
L 445.352727 263.613744 
L 449.410909 263.438352 
L 453.469091 263.250864 
L 457.527273 263.049768 
L 461.585455 262.841112 
L 465.643636 262.626408 
L 469.701818 262.413216 
L 473.76 262.203048 
L 477.818182 262.004976 
L 481.876364 261.825048 
L 485.934545 261.673848 
L 489.992727 261.557424 
L 494.050909 261.484848 
L 498.109091 261.459144 
" clip-path="url(#pc524cb4b92)" style="fill: none; stroke: #000000; stroke-opacity: 0.5; stroke-linecap: square"/>
   </g>
   <g id="line2d_19">
    <path d="M 92.290909 237.146184 
L 96.349091 237.140136 
L 100.407273 237.123504 
L 104.465455 237.094776 
L 108.523636 237.055464 
L 112.581818 237.005568 
L 116.64 236.945088 
L 120.698182 236.877048 
L 124.756364 236.799936 
L 128.814545 236.715264 
L 132.872727 236.624544 
L 136.930909 236.526264 
L 140.989091 236.421936 
L 145.047273 236.310048 
L 149.105455 236.193624 
L 153.163636 236.071152 
L 157.221818 235.942632 
L 161.28 235.808064 
L 165.338182 235.66896 
L 169.396364 235.523808 
L 173.454545 235.372608 
L 177.512727 235.21536 
L 181.570909 235.052064 
L 185.629091 234.884232 
L 189.687273 234.711864 
L 193.745455 234.533448 
L 197.803636 234.348984 
L 201.861818 234.161496 
L 205.92 233.969472 
L 209.978182 233.772912 
L 214.036364 233.573328 
L 218.094545 233.37072 
L 222.152727 233.1666 
L 226.210909 232.960968 
L 230.269091 232.753824 
L 234.327273 232.54668 
L 238.385455 232.339536 
L 242.443636 232.135416 
L 246.501818 231.932808 
L 250.56 231.734736 
L 254.618182 231.5412 
L 258.676364 231.353712 
L 262.734545 231.172272 
L 266.792727 231.001416 
L 270.850909 230.839632 
L 274.909091 230.689944 
L 278.967273 230.553864 
L 283.025455 230.431392 
L 287.083636 230.327064 
L 291.141818 230.239368 
L 295.2 230.17284 
L 299.258182 230.128992 
L 303.316364 230.107824 
L 307.374545 230.113872 
L 311.432727 230.147136 
L 315.490909 230.209128 
L 319.549091 230.302872 
L 323.607273 230.428368 
L 327.665455 230.58864 
L 331.723636 230.782176 
L 335.781818 231.012 
L 339.84 231.279624 
L 343.898182 231.582024 
L 347.956364 231.922224 
L 352.014545 232.298712 
L 356.072727 232.709976 
L 360.130909 233.157528 
L 364.189091 233.636832 
L 368.247273 234.150912 
L 372.305455 234.69372 
L 376.363636 235.266768 
L 380.421818 235.86552 
L 384.48 236.488464 
L 388.538182 237.1356 
L 392.596364 237.80088 
L 396.654545 238.484304 
L 400.712727 239.181336 
L 404.770909 239.891976 
L 408.829091 240.611688 
L 412.887273 241.340472 
L 416.945455 242.07228 
L 421.003636 242.807112 
L 425.061818 243.540432 
L 429.12 244.27224 
L 433.178182 244.998 
L 437.236364 245.7162 
L 441.294545 246.423816 
L 445.352727 247.116312 
L 449.410909 247.792176 
L 453.469091 248.448384 
L 457.527273 249.0804 
L 461.585455 249.6852 
L 465.643636 250.255224 
L 469.701818 250.787448 
L 473.76 251.274312 
L 477.818182 251.708256 
L 481.876364 252.08172 
L 485.934545 252.385632 
L 489.992727 252.61092 
L 494.050909 252.748512 
L 498.109091 252.795384 
" clip-path="url(#pc524cb4b92)" style="fill: none; stroke: #000000; stroke-opacity: 0.5; stroke-linecap: square"/>
   </g>
   <g id="line2d_20">
    <path d="M 92.290909 184.79016 
L 96.349091 184.779576 
L 100.407273 184.746312 
L 104.465455 184.69188 
L 108.523636 184.613256 
L 112.581818 184.508928 
L 116.64 184.378896 
L 120.698182 184.220136 
L 124.756364 184.029624 
L 128.814545 183.805848 
L 132.872727 183.547296 
L 136.930909 183.252456 
L 140.989091 182.918304 
L 145.047273 182.54484 
L 149.105455 182.130552 
L 153.163636 181.672416 
L 157.221818 181.173456 
L 161.28 180.630648 
L 165.338182 180.043992 
L 169.396364 179.413488 
L 173.454545 178.740648 
L 177.512727 178.025472 
L 181.570909 177.26796 
L 185.629091 176.469624 
L 189.687273 175.630464 
L 193.745455 174.751992 
L 197.803636 173.83572 
L 201.861818 172.881648 
L 205.92 171.891288 
L 209.978182 170.867664 
L 214.036364 169.809264 
L 218.094545 168.720624 
L 222.152727 167.600232 
L 226.210909 166.451112 
L 230.269091 165.276288 
L 234.327273 164.077272 
L 238.385455 162.857088 
L 242.443636 161.621784 
L 246.501818 160.381944 
L 250.56 159.16932 
L 254.618182 158.08068 
L 258.676364 157.52124 
L 262.734545 158.029272 
L 266.792727 159.061968 
L 270.850909 160.214112 
L 274.909091 161.3844 
L 278.967273 162.544104 
L 283.025455 163.681128 
L 287.083636 164.787912 
L 291.141818 165.85992 
L 295.2 166.892616 
L 299.258182 167.884488 
L 303.316364 168.831 
L 307.374545 169.732152 
L 311.432727 170.583408 
L 315.490909 171.381744 
L 319.549091 172.12716 
L 323.607273 172.816632 
L 327.665455 173.448648 
L 331.723636 174.021696 
L 335.781818 174.534264 
L 339.84 174.98484 
L 343.898182 175.373424 
L 347.956364 175.700016 
L 352.014545 175.963104 
L 356.072727 176.162688 
L 360.130909 176.301792 
L 364.189091 176.378904 
L 368.247273 176.395536 
L 372.305455 176.351688 
L 376.363636 176.251896 
L 380.421818 176.094648 
L 384.48 175.882968 
L 388.538182 175.618368 
L 392.596364 175.30236 
L 396.654545 174.937968 
L 400.712727 174.526704 
L 404.770909 174.07008 
L 408.829091 173.569608 
L 412.887273 173.028312 
L 416.945455 172.447704 
L 421.003636 171.827784 
L 425.061818 171.173088 
L 429.12 170.482104 
L 433.178182 169.759368 
L 437.236364 169.00488 
L 441.294545 168.221664 
L 445.352727 167.408208 
L 449.410909 166.569048 
L 453.469091 165.704184 
L 457.527273 164.81664 
L 461.585455 163.907928 
L 465.643636 162.97956 
L 469.701818 162.036072 
L 473.76 161.080488 
L 477.818182 160.12188 
L 481.876364 159.16932 
L 485.934545 158.248512 
L 489.992727 157.406328 
L 494.050909 156.754656 
L 498.109091 156.490056 
" clip-path="url(#pc524cb4b92)" style="fill: none; stroke: #000000; stroke-opacity: 0.5; stroke-linecap: square"/>
   </g>
   <g id="line2d_21">
    <path d="M 92.290909 164.759184 
L 96.349091 164.721384 
L 100.407273 164.606472 
L 104.465455 164.41596 
L 108.523636 164.15136 
L 112.581818 163.815696 
L 116.64 163.408968 
L 120.698182 162.9342 
L 124.756364 162.395928 
L 128.814545 161.794152 
L 132.872727 161.133408 
L 136.930909 160.41672 
L 140.989091 159.6456 
L 145.047273 158.824584 
L 149.105455 157.953672 
L 153.163636 157.038912 
L 157.221818 156.078792 
L 161.28 155.07936 
L 165.338182 154.040616 
L 169.396364 152.964072 
L 173.454545 151.852752 
L 177.512727 150.708168 
L 181.570909 149.53032 
L 185.629091 148.323744 
L 189.687273 147.086928 
L 193.745455 145.824408 
L 197.803636 144.534672 
L 201.861818 143.220744 
L 205.92 141.885648 
L 209.978182 140.542992 
L 214.036364 140.39028 
L 218.094545 141.847848 
L 222.152727 143.317512 
L 226.210909 144.781128 
L 230.269091 146.229624 
L 234.327273 147.663 
L 238.385455 149.073696 
L 242.443636 150.458688 
L 246.501818 151.802856 
L 250.56 153.078984 
L 254.618182 154.185768 
L 258.676364 154.717992 
L 262.734545 154.137384 
L 266.792727 152.983728 
L 270.850909 151.663752 
L 274.909091 150.275736 
L 278.967273 148.846896 
L 283.025455 147.389328 
L 287.083636 145.90908 
L 291.141818 144.409176 
L 295.2 142.891128 
L 299.258182 141.35796 
L 303.316364 139.809672 
L 307.374545 138.247776 
L 311.432727 136.672272 
L 315.490909 135.086184 
L 319.549091 133.489512 
L 323.607273 131.883768 
L 327.665455 130.268952 
L 331.723636 128.6496 
L 335.781818 127.030248 
L 339.84 125.430552 
L 343.898182 124.115112 
L 347.956364 124.063704 
L 352.014545 124.292016 
L 356.072727 124.546032 
L 360.130909 124.80912 
L 364.189091 125.076744 
L 368.247273 125.348904 
L 372.305455 125.6256 
L 376.363636 125.908344 
L 380.421818 126.201672 
L 384.48 126.504072 
L 388.538182 126.826128 
L 392.596364 127.169352 
L 396.654545 127.547352 
L 400.712727 127.970712 
L 404.770909 128.456064 
L 408.829091 129.026088 
L 412.887273 129.697416 
L 416.945455 130.485168 
L 421.003636 131.389344 
L 425.061818 132.396336 
L 429.12 133.486488 
L 433.178182 134.63712 
L 437.236364 135.830088 
L 441.294545 137.04876 
L 445.352727 138.284064 
L 449.410909 139.526928 
L 453.469091 140.769792 
L 457.527273 142.009632 
L 461.585455 143.2404 
L 465.643636 144.45756 
L 469.701818 145.6596 
L 473.76 146.83896 
L 477.818182 147.989592 
L 481.876364 149.096376 
L 485.934545 150.139656 
L 489.992727 151.068024 
L 494.050909 151.772616 
L 498.109091 152.053848 
" clip-path="url(#pc524cb4b92)" style="fill: none; stroke: #000000; stroke-opacity: 0.5; stroke-linecap: square"/>
   </g>
   <g id="line2d_22">
    <path d="M 92.290909 114.148008 
L 96.349091 114.154056 
L 100.407273 114.173712 
L 104.465455 114.208488 
L 108.523636 114.256872 
L 112.581818 114.3234 
L 116.64 114.412608 
L 120.698182 114.530544 
L 124.756364 114.684768 
L 128.814545 114.8904 
L 132.872727 115.171632 
L 136.930909 115.560216 
L 140.989091 116.096976 
L 145.047273 116.816688 
L 149.105455 117.7254 
L 153.163636 118.794384 
L 157.221818 119.988864 
L 161.28 121.27104 
L 165.338182 122.618232 
L 169.396364 124.012296 
L 173.454545 125.439624 
L 177.512727 126.891144 
L 181.570909 128.36232 
L 185.629091 129.847104 
L 189.687273 131.339448 
L 193.745455 132.839352 
L 197.803636 134.34228 
L 201.861818 135.843696 
L 205.92 137.342088 
L 209.978182 138.822336 
L 214.036364 139.083912 
L 218.094545 137.709504 
L 222.152727 136.291248 
L 226.210909 134.851824 
L 230.269091 133.394256 
L 234.327273 131.924592 
L 238.385455 130.44132 
L 242.443636 128.952 
L 246.501818 127.459656 
L 250.56 125.976384 
L 254.618182 124.520328 
L 258.676364 123.127776 
L 262.734545 121.874328 
L 266.792727 120.891528 
L 270.850909 120.301848 
L 274.909091 120.064464 
L 278.967273 120.041784 
L 283.025455 120.12948 
L 287.083636 120.279168 
L 291.141818 120.465144 
L 295.2 120.672288 
L 299.258182 120.896064 
L 303.316364 121.128912 
L 307.374545 121.370832 
L 311.432727 121.617288 
L 315.490909 121.86828 
L 319.549091 122.122296 
L 323.607273 122.379336 
L 327.665455 122.636376 
L 331.723636 122.891904 
L 335.781818 123.141384 
L 339.84 123.366672 
L 343.898182 123.303168 
L 347.956364 121.977144 
L 352.014545 120.3714 
L 356.072727 118.747512 
L 360.130909 117.131184 
L 364.189091 115.549632 
L 368.247273 114.064848 
L 372.305455 112.893048 
L 376.363636 112.669272 
L 380.421818 113.511456 
L 384.48 114.73164 
L 388.538182 116.042544 
L 392.596364 117.36252 
L 396.654545 118.65528 
L 400.712727 119.898144 
L 404.770909 121.068432 
L 408.829091 122.141952 
L 412.887273 123.097536 
L 416.945455 123.920064 
L 421.003636 124.608024 
L 425.061818 125.175024 
L 429.12 125.637696 
L 433.178182 126.020232 
L 437.236364 126.337752 
L 441.294545 126.606888 
L 445.352727 126.836712 
L 449.410909 127.036296 
L 453.469091 127.208664 
L 457.527273 127.358352 
L 461.585455 127.489896 
L 465.643636 127.603296 
L 469.701818 127.700064 
L 473.76 127.783224 
L 477.818182 127.852776 
L 481.876364 127.907208 
L 485.934545 127.951056 
L 489.992727 127.981296 
L 494.050909 127.99944 
L 498.109091 128.005488 
" clip-path="url(#pc524cb4b92)" style="fill: none; stroke: #000000; stroke-opacity: 0.5; stroke-linecap: square"/>
   </g>
   <g id="line2d_23">
    <path d="M 92.290909 103.33872 
L 96.349091 103.418856 
L 100.407273 103.654728 
L 104.465455 104.038776 
L 108.523636 104.561928 
L 112.581818 105.20604 
L 116.64 105.957504 
L 120.698182 106.79364 
L 124.756364 107.69328 
L 128.814545 108.629208 
L 132.872727 109.566648 
L 136.930909 110.463264 
L 140.989091 111.267648 
L 145.047273 111.940488 
L 149.105455 112.469688 
L 153.163636 112.874904 
L 157.221818 113.187888 
L 161.28 113.440392 
L 165.338182 113.652072 
L 169.396364 113.841072 
L 173.454545 114.01344 
L 177.512727 114.175224 
L 181.570909 114.332472 
L 185.629091 114.488208 
L 189.687273 114.642432 
L 193.745455 114.796656 
L 197.803636 114.953904 
L 201.861818 115.112664 
L 205.92 115.274448 
L 209.978182 115.437744 
L 214.036364 115.605576 
L 218.094545 115.776432 
L 222.152727 115.9488 
L 226.210909 116.12268 
L 230.269091 116.299584 
L 234.327273 116.473464 
L 238.385455 116.647344 
L 242.443636 116.813664 
L 246.501818 116.9694 
L 250.56 117.102456 
L 254.618182 117.197712 
L 258.676364 117.21888 
L 262.734545 117.088848 
L 266.792727 116.676072 
L 270.850909 115.861104 
L 274.909091 114.681744 
L 278.967273 113.278608 
L 283.025455 111.754512 
L 287.083636 110.159352 
L 291.141818 108.520344 
L 295.2 106.851096 
L 299.258182 105.159168 
L 303.316364 103.45212 
L 307.374545 101.736 
L 311.432727 100.01988 
L 315.490909 98.317368 
L 319.549091 96.66324 
L 323.607273 95.172408 
L 327.665455 94.286376 
L 331.723636 94.72032 
L 335.781818 95.949576 
L 339.84 97.399584 
L 343.898182 98.91612 
L 347.956364 100.452312 
L 352.014545 101.990016 
L 356.072727 103.5126 
L 360.130909 105.010992 
L 364.189091 106.459488 
L 368.247273 107.796096 
L 372.305455 108.801576 
L 376.363636 108.840888 
L 380.421818 107.794584 
L 384.48 106.349112 
L 388.538182 104.788728 
L 392.596364 103.193568 
L 396.654545 101.59236 
L 400.712727 100.009296 
L 404.770909 98.467056 
L 408.829091 97.00344 
L 412.887273 95.686488 
L 416.945455 94.626576 
L 421.003636 93.929544 
L 425.061818 93.577248 
L 429.12 93.453264 
L 433.178182 93.448728 
L 437.236364 93.507696 
L 441.294545 93.596904 
L 445.352727 93.69972 
L 449.410909 93.807072 
L 453.469091 93.914424 
L 457.527273 94.01724 
L 461.585455 94.112496 
L 465.643636 94.201704 
L 469.701818 94.280328 
L 473.76 94.351392 
L 477.818182 94.41036 
L 481.876364 94.460256 
L 485.934545 94.499568 
L 489.992727 94.526784 
L 494.050909 94.543416 
L 498.109091 94.549464 
" clip-path="url(#pc524cb4b92)" style="fill: none; stroke: #000000; stroke-opacity: 0.5; stroke-linecap: square"/>
   </g>
   <g id="patch_3">
    <path d="M 72 384.48 
L 72 51.84 
" style="fill: none; stroke: #000000; stroke-width: 0.8; stroke-linejoin: miter; stroke-linecap: square"/>
   </g>
   <g id="patch_4">
    <path d="M 518.4 384.48 
L 518.4 51.84 
" style="fill: none; stroke: #000000; stroke-width: 0.8; stroke-linejoin: miter; stroke-linecap: square"/>
   </g>
   <g id="patch_5">
    <path d="M 72 384.48 
L 518.4 384.48 
" style="fill: none; stroke: #000000; stroke-width: 0.8; stroke-linejoin: miter; stroke-linecap: square"/>
   </g>
   <g id="patch_6">
    <path d="M 72 51.84 
L 518.4 51.84 
" style="fill: none; stroke: #000000; stroke-width: 0.8; stroke-linejoin: miter; stroke-linecap: square"/>
   </g>
  </g>
 </g>
 <defs>
  <clipPath id="pc524cb4b92">
   <rect x="72" y="51.84" width="446.4" height="332.64"/>
  </clipPath>
 </defs>
</svg>
