<?xml version="1.0" encoding="utf-8" standalone="no"?>
<!DOCTYPE svg PUBLIC "-//W3C//DTD SVG 1.1//EN"
  "http://www.w3.org/Graphics/SVG/1.1/DTD/svg11.dtd">
<svg xmlns:xlink="http://www.w3.org/1999/xlink" width="576pt" height="432pt" viewBox="0 0 576 432" xmlns="http://www.w3.org/2000/svg" version="1.1">
 <metadata>
  <rdf:RDF xmlns:dc="http://purl.org/dc/elements/1.1/" xmlns:cc="http://creativecommons.org/ns#" xmlns:rdf="http://www.w3.org/1999/02/22-rdf-syntax-ns#">
   <cc:Work>
    <dc:type rdf:resource="http://purl.org/dc/dcmitype/StillImage"/>
    <dc:date>2023-05-03T09:09:29.980180</dc:date>
    <dc:format>image/svg+xml</dc:format>
    <dc:creator>
     <cc:Agent>
      <dc:title>Matplotlib v3.7.1, https://matplotlib.org/</dc:title>
     </cc:Agent>
    </dc:creator>
   </cc:Work>
  </rdf:RDF>
 </metadata>
 <defs>
  <style type="text/css">*{stroke-linejoin: round; stroke-linecap: butt}</style>
 </defs>
 <g id="figure_1">
  <g id="patch_1">
   <path d="M 0 432 
L 576 432 
L 576 0 
L 0 0 
z
" style="fill: #ffffff"/>
  </g>
  <g id="axes_1">
   <g id="patch_2">
    <path d="M 72 384.48 
L 518.4 384.48 
L 518.4 51.84 
L 72 51.84 
z
" style="fill: #ffffff"/>
   </g>
   <g id="matplotlib.axis_1">
    <g id="xtick_1">
     <g id="line2d_1">
      <defs>
       <path id="mbeac471f22" d="M 0 0 
L 0 3.5 
" style="stroke: #000000; stroke-width: 0.8"/>
      </defs>
      <g>
       <use xlink:href="#mbeac471f22" x="92.290909" y="384.48" style="stroke: #000000; stroke-width: 0.8"/>
      </g>
     </g>
     <g id="text_1">
      <!-- 0.0 -->
      <g transform="translate(84.339347 399.078438) scale(0.1 -0.1)">
       <defs>
        <path id="DejaVuSans-30" d="M 2034 4250 
Q 1547 4250 1301 3770 
Q 1056 3291 1056 2328 
Q 1056 1369 1301 889 
Q 1547 409 2034 409 
Q 2525 409 2770 889 
Q 3016 1369 3016 2328 
Q 3016 3291 2770 3770 
Q 2525 4250 2034 4250 
z
M 2034 4750 
Q 2819 4750 3233 4129 
Q 3647 3509 3647 2328 
Q 3647 1150 3233 529 
Q 2819 -91 2034 -91 
Q 1250 -91 836 529 
Q 422 1150 422 2328 
Q 422 3509 836 4129 
Q 1250 4750 2034 4750 
z
" transform="scale(0.015625)"/>
        <path id="DejaVuSans-2e" d="M 684 794 
L 1344 794 
L 1344 0 
L 684 0 
L 684 794 
z
" transform="scale(0.015625)"/>
       </defs>
       <use xlink:href="#DejaVuSans-30"/>
       <use xlink:href="#DejaVuSans-2e" x="63.623047"/>
       <use xlink:href="#DejaVuSans-30" x="95.410156"/>
      </g>
     </g>
    </g>
    <g id="xtick_2">
     <g id="line2d_2">
      <g>
       <use xlink:href="#mbeac471f22" x="173.454545" y="384.48" style="stroke: #000000; stroke-width: 0.8"/>
      </g>
     </g>
     <g id="text_2">
      <!-- 0.2 -->
      <g transform="translate(165.502983 399.078438) scale(0.1 -0.1)">
       <defs>
        <path id="DejaVuSans-32" d="M 1228 531 
L 3431 531 
L 3431 0 
L 469 0 
L 469 531 
Q 828 903 1448 1529 
Q 2069 2156 2228 2338 
Q 2531 2678 2651 2914 
Q 2772 3150 2772 3378 
Q 2772 3750 2511 3984 
Q 2250 4219 1831 4219 
Q 1534 4219 1204 4116 
Q 875 4013 500 3803 
L 500 4441 
Q 881 4594 1212 4672 
Q 1544 4750 1819 4750 
Q 2544 4750 2975 4387 
Q 3406 4025 3406 3419 
Q 3406 3131 3298 2873 
Q 3191 2616 2906 2266 
Q 2828 2175 2409 1742 
Q 1991 1309 1228 531 
z
" transform="scale(0.015625)"/>
       </defs>
       <use xlink:href="#DejaVuSans-30"/>
       <use xlink:href="#DejaVuSans-2e" x="63.623047"/>
       <use xlink:href="#DejaVuSans-32" x="95.410156"/>
      </g>
     </g>
    </g>
    <g id="xtick_3">
     <g id="line2d_3">
      <g>
       <use xlink:href="#mbeac471f22" x="254.618182" y="384.48" style="stroke: #000000; stroke-width: 0.8"/>
      </g>
     </g>
     <g id="text_3">
      <!-- 0.4 -->
      <g transform="translate(246.666619 399.078438) scale(0.1 -0.1)">
       <defs>
        <path id="DejaVuSans-34" d="M 2419 4116 
L 825 1625 
L 2419 1625 
L 2419 4116 
z
M 2253 4666 
L 3047 4666 
L 3047 1625 
L 3713 1625 
L 3713 1100 
L 3047 1100 
L 3047 0 
L 2419 0 
L 2419 1100 
L 313 1100 
L 313 1709 
L 2253 4666 
z
" transform="scale(0.015625)"/>
       </defs>
       <use xlink:href="#DejaVuSans-30"/>
       <use xlink:href="#DejaVuSans-2e" x="63.623047"/>
       <use xlink:href="#DejaVuSans-34" x="95.410156"/>
      </g>
     </g>
    </g>
    <g id="xtick_4">
     <g id="line2d_4">
      <g>
       <use xlink:href="#mbeac471f22" x="335.781818" y="384.48" style="stroke: #000000; stroke-width: 0.8"/>
      </g>
     </g>
     <g id="text_4">
      <!-- 0.6 -->
      <g transform="translate(327.830256 399.078438) scale(0.1 -0.1)">
       <defs>
        <path id="DejaVuSans-36" d="M 2113 2584 
Q 1688 2584 1439 2293 
Q 1191 2003 1191 1497 
Q 1191 994 1439 701 
Q 1688 409 2113 409 
Q 2538 409 2786 701 
Q 3034 994 3034 1497 
Q 3034 2003 2786 2293 
Q 2538 2584 2113 2584 
z
M 3366 4563 
L 3366 3988 
Q 3128 4100 2886 4159 
Q 2644 4219 2406 4219 
Q 1781 4219 1451 3797 
Q 1122 3375 1075 2522 
Q 1259 2794 1537 2939 
Q 1816 3084 2150 3084 
Q 2853 3084 3261 2657 
Q 3669 2231 3669 1497 
Q 3669 778 3244 343 
Q 2819 -91 2113 -91 
Q 1303 -91 875 529 
Q 447 1150 447 2328 
Q 447 3434 972 4092 
Q 1497 4750 2381 4750 
Q 2619 4750 2861 4703 
Q 3103 4656 3366 4563 
z
" transform="scale(0.015625)"/>
       </defs>
       <use xlink:href="#DejaVuSans-30"/>
       <use xlink:href="#DejaVuSans-2e" x="63.623047"/>
       <use xlink:href="#DejaVuSans-36" x="95.410156"/>
      </g>
     </g>
    </g>
    <g id="xtick_5">
     <g id="line2d_5">
      <g>
       <use xlink:href="#mbeac471f22" x="416.945455" y="384.48" style="stroke: #000000; stroke-width: 0.8"/>
      </g>
     </g>
     <g id="text_5">
      <!-- 0.8 -->
      <g transform="translate(408.993892 399.078438) scale(0.1 -0.1)">
       <defs>
        <path id="DejaVuSans-38" d="M 2034 2216 
Q 1584 2216 1326 1975 
Q 1069 1734 1069 1313 
Q 1069 891 1326 650 
Q 1584 409 2034 409 
Q 2484 409 2743 651 
Q 3003 894 3003 1313 
Q 3003 1734 2745 1975 
Q 2488 2216 2034 2216 
z
M 1403 2484 
Q 997 2584 770 2862 
Q 544 3141 544 3541 
Q 544 4100 942 4425 
Q 1341 4750 2034 4750 
Q 2731 4750 3128 4425 
Q 3525 4100 3525 3541 
Q 3525 3141 3298 2862 
Q 3072 2584 2669 2484 
Q 3125 2378 3379 2068 
Q 3634 1759 3634 1313 
Q 3634 634 3220 271 
Q 2806 -91 2034 -91 
Q 1263 -91 848 271 
Q 434 634 434 1313 
Q 434 1759 690 2068 
Q 947 2378 1403 2484 
z
M 1172 3481 
Q 1172 3119 1398 2916 
Q 1625 2713 2034 2713 
Q 2441 2713 2670 2916 
Q 2900 3119 2900 3481 
Q 2900 3844 2670 4047 
Q 2441 4250 2034 4250 
Q 1625 4250 1398 4047 
Q 1172 3844 1172 3481 
z
" transform="scale(0.015625)"/>
       </defs>
       <use xlink:href="#DejaVuSans-30"/>
       <use xlink:href="#DejaVuSans-2e" x="63.623047"/>
       <use xlink:href="#DejaVuSans-38" x="95.410156"/>
      </g>
     </g>
    </g>
    <g id="xtick_6">
     <g id="line2d_6">
      <g>
       <use xlink:href="#mbeac471f22" x="498.109091" y="384.48" style="stroke: #000000; stroke-width: 0.8"/>
      </g>
     </g>
     <g id="text_6">
      <!-- 1.0 -->
      <g transform="translate(490.157528 399.078438) scale(0.1 -0.1)">
       <defs>
        <path id="DejaVuSans-31" d="M 794 531 
L 1825 531 
L 1825 4091 
L 703 3866 
L 703 4441 
L 1819 4666 
L 2450 4666 
L 2450 531 
L 3481 531 
L 3481 0 
L 794 0 
L 794 531 
z
" transform="scale(0.015625)"/>
       </defs>
       <use xlink:href="#DejaVuSans-31"/>
       <use xlink:href="#DejaVuSans-2e" x="63.623047"/>
       <use xlink:href="#DejaVuSans-30" x="95.410156"/>
      </g>
     </g>
    </g>
   </g>
   <g id="matplotlib.axis_2">
    <g id="ytick_1">
     <g id="line2d_7">
      <defs>
       <path id="m9af2a4e373" d="M 0 0 
L -3.5 0 
" style="stroke: #000000; stroke-width: 0.8"/>
      </defs>
      <g>
       <use xlink:href="#m9af2a4e373" x="72" y="369.36" style="stroke: #000000; stroke-width: 0.8"/>
      </g>
     </g>
     <g id="text_7">
      <!-- −5.0 -->
      <g transform="translate(40.717187 373.159219) scale(0.1 -0.1)">
       <defs>
        <path id="DejaVuSans-2212" d="M 678 2272 
L 4684 2272 
L 4684 1741 
L 678 1741 
L 678 2272 
z
" transform="scale(0.015625)"/>
        <path id="DejaVuSans-35" d="M 691 4666 
L 3169 4666 
L 3169 4134 
L 1269 4134 
L 1269 2991 
Q 1406 3038 1543 3061 
Q 1681 3084 1819 3084 
Q 2600 3084 3056 2656 
Q 3513 2228 3513 1497 
Q 3513 744 3044 326 
Q 2575 -91 1722 -91 
Q 1428 -91 1123 -41 
Q 819 9 494 109 
L 494 744 
Q 775 591 1075 516 
Q 1375 441 1709 441 
Q 2250 441 2565 725 
Q 2881 1009 2881 1497 
Q 2881 1984 2565 2268 
Q 2250 2553 1709 2553 
Q 1456 2553 1204 2497 
Q 953 2441 691 2322 
L 691 4666 
z
" transform="scale(0.015625)"/>
       </defs>
       <use xlink:href="#DejaVuSans-2212"/>
       <use xlink:href="#DejaVuSans-35" x="83.789062"/>
       <use xlink:href="#DejaVuSans-2e" x="147.412109"/>
       <use xlink:href="#DejaVuSans-30" x="179.199219"/>
      </g>
     </g>
    </g>
    <g id="ytick_2">
     <g id="line2d_8">
      <g>
       <use xlink:href="#m9af2a4e373" x="72" y="331.56" style="stroke: #000000; stroke-width: 0.8"/>
      </g>
     </g>
     <g id="text_8">
      <!-- −2.5 -->
      <g transform="translate(40.717187 335.359219) scale(0.1 -0.1)">
       <use xlink:href="#DejaVuSans-2212"/>
       <use xlink:href="#DejaVuSans-32" x="83.789062"/>
       <use xlink:href="#DejaVuSans-2e" x="147.412109"/>
       <use xlink:href="#DejaVuSans-35" x="179.199219"/>
      </g>
     </g>
    </g>
    <g id="ytick_3">
     <g id="line2d_9">
      <g>
       <use xlink:href="#m9af2a4e373" x="72" y="293.76" style="stroke: #000000; stroke-width: 0.8"/>
      </g>
     </g>
     <g id="text_9">
      <!-- 0.0 -->
      <g transform="translate(49.096875 297.559219) scale(0.1 -0.1)">
       <use xlink:href="#DejaVuSans-30"/>
       <use xlink:href="#DejaVuSans-2e" x="63.623047"/>
       <use xlink:href="#DejaVuSans-30" x="95.410156"/>
      </g>
     </g>
    </g>
    <g id="ytick_4">
     <g id="line2d_10">
      <g>
       <use xlink:href="#m9af2a4e373" x="72" y="255.96" style="stroke: #000000; stroke-width: 0.8"/>
      </g>
     </g>
     <g id="text_10">
      <!-- 2.5 -->
      <g transform="translate(49.096875 259.759219) scale(0.1 -0.1)">
       <use xlink:href="#DejaVuSans-32"/>
       <use xlink:href="#DejaVuSans-2e" x="63.623047"/>
       <use xlink:href="#DejaVuSans-35" x="95.410156"/>
      </g>
     </g>
    </g>
    <g id="ytick_5">
     <g id="line2d_11">
      <g>
       <use xlink:href="#m9af2a4e373" x="72" y="218.16" style="stroke: #000000; stroke-width: 0.8"/>
      </g>
     </g>
     <g id="text_11">
      <!-- 5.0 -->
      <g transform="translate(49.096875 221.959219) scale(0.1 -0.1)">
       <use xlink:href="#DejaVuSans-35"/>
       <use xlink:href="#DejaVuSans-2e" x="63.623047"/>
       <use xlink:href="#DejaVuSans-30" x="95.410156"/>
      </g>
     </g>
    </g>
    <g id="ytick_6">
     <g id="line2d_12">
      <g>
       <use xlink:href="#m9af2a4e373" x="72" y="180.36" style="stroke: #000000; stroke-width: 0.8"/>
      </g>
     </g>
     <g id="text_12">
      <!-- 7.5 -->
      <g transform="translate(49.096875 184.159219) scale(0.1 -0.1)">
       <defs>
        <path id="DejaVuSans-37" d="M 525 4666 
L 3525 4666 
L 3525 4397 
L 1831 0 
L 1172 0 
L 2766 4134 
L 525 4134 
L 525 4666 
z
" transform="scale(0.015625)"/>
       </defs>
       <use xlink:href="#DejaVuSans-37"/>
       <use xlink:href="#DejaVuSans-2e" x="63.623047"/>
       <use xlink:href="#DejaVuSans-35" x="95.410156"/>
      </g>
     </g>
    </g>
    <g id="ytick_7">
     <g id="line2d_13">
      <g>
       <use xlink:href="#m9af2a4e373" x="72" y="142.56" style="stroke: #000000; stroke-width: 0.8"/>
      </g>
     </g>
     <g id="text_13">
      <!-- 10.0 -->
      <g transform="translate(42.734375 146.359219) scale(0.1 -0.1)">
       <use xlink:href="#DejaVuSans-31"/>
       <use xlink:href="#DejaVuSans-30" x="63.623047"/>
       <use xlink:href="#DejaVuSans-2e" x="127.246094"/>
       <use xlink:href="#DejaVuSans-30" x="159.033203"/>
      </g>
     </g>
    </g>
    <g id="ytick_8">
     <g id="line2d_14">
      <g>
       <use xlink:href="#m9af2a4e373" x="72" y="104.76" style="stroke: #000000; stroke-width: 0.8"/>
      </g>
     </g>
     <g id="text_14">
      <!-- 12.5 -->
      <g transform="translate(42.734375 108.559219) scale(0.1 -0.1)">
       <use xlink:href="#DejaVuSans-31"/>
       <use xlink:href="#DejaVuSans-32" x="63.623047"/>
       <use xlink:href="#DejaVuSans-2e" x="127.246094"/>
       <use xlink:href="#DejaVuSans-35" x="159.033203"/>
      </g>
     </g>
    </g>
    <g id="ytick_9">
     <g id="line2d_15">
      <g>
       <use xlink:href="#m9af2a4e373" x="72" y="66.96" style="stroke: #000000; stroke-width: 0.8"/>
      </g>
     </g>
     <g id="text_15">
      <!-- 15.0 -->
      <g transform="translate(42.734375 70.759219) scale(0.1 -0.1)">
       <use xlink:href="#DejaVuSans-31"/>
       <use xlink:href="#DejaVuSans-35" x="63.623047"/>
       <use xlink:href="#DejaVuSans-2e" x="127.246094"/>
       <use xlink:href="#DejaVuSans-30" x="159.033203"/>
      </g>
     </g>
    </g>
   </g>
   <g id="line2d_16">
    <path d="M 92.290909 342.32544 
L 96.349091 342.323928 
L 100.407273 342.320904 
L 104.465455 342.316368 
L 108.523636 342.308808 
L 112.581818 342.298224 
L 116.64 342.28764 
L 120.698182 342.274032 
L 124.756364 342.258912 
L 128.814545 342.243792 
L 132.872727 342.225648 
L 136.930909 342.207504 
L 140.989091 342.18936 
L 145.047273 342.171216 
L 149.105455 342.153072 
L 153.163636 342.134928 
L 157.221818 342.118296 
L 161.28 342.103176 
L 165.338182 342.089568 
L 169.396364 342.078984 
L 173.454545 342.071424 
L 177.512727 342.065376 
L 181.570909 342.065376 
L 185.629091 342.0684 
L 189.687273 342.077472 
L 193.745455 342.092592 
L 197.803636 342.112248 
L 201.861818 342.139464 
L 205.92 342.17424 
L 209.978182 342.215064 
L 214.036364 342.266472 
L 218.094545 342.32544 
L 222.152727 342.391968 
L 226.210909 342.470592 
L 230.269091 342.556776 
L 234.327273 342.653544 
L 238.385455 342.760896 
L 242.443636 342.878832 
L 246.501818 343.007352 
L 250.56 343.144944 
L 254.618182 343.29312 
L 258.676364 343.45188 
L 262.734545 343.619712 
L 266.792727 343.798128 
L 270.850909 343.985616 
L 274.909091 344.182176 
L 278.967273 344.386296 
L 283.025455 344.599488 
L 287.083636 344.82024 
L 291.141818 345.04704 
L 295.2 345.279888 
L 299.258182 345.518784 
L 303.316364 345.763728 
L 307.374545 346.011696 
L 311.432727 346.2642 
L 315.490909 346.519728 
L 319.549091 346.77828 
L 323.607273 347.038344 
L 327.665455 347.29992 
L 331.723636 347.563008 
L 335.781818 347.824584 
L 339.84 348.087672 
L 343.898182 348.347736 
L 347.956364 348.6078 
L 352.014545 348.866352 
L 356.072727 349.12188 
L 360.130909 349.374384 
L 364.189091 349.623864 
L 368.247273 349.868808 
L 372.305455 350.110728 
L 376.363636 350.348112 
L 380.421818 350.58096 
L 384.48 350.80776 
L 388.538182 351.030024 
L 392.596364 351.244728 
L 396.654545 351.454896 
L 400.712727 351.659016 
L 404.770909 351.855576 
L 408.829091 352.046088 
L 412.887273 352.22904 
L 416.945455 352.404432 
L 421.003636 352.573776 
L 425.061818 352.734048 
L 429.12 352.88676 
L 433.178182 353.031912 
L 437.236364 353.169504 
L 441.294545 353.298024 
L 445.352727 353.417472 
L 449.410909 353.52936 
L 453.469091 353.633688 
L 457.527273 353.727432 
L 461.585455 353.813616 
L 465.643636 353.890728 
L 469.701818 353.958768 
L 473.76 354.017736 
L 477.818182 354.067632 
L 481.876364 354.108456 
L 485.934545 354.14172 
L 489.992727 354.1644 
L 494.050909 354.178008 
L 498.109091 354.182544 
" clip-path="url(#p3e9719d5ae)" style="fill: none; stroke: #000000; stroke-opacity: 0.5; stroke-linecap: square"/>
   </g>
   <g id="line2d_17">
    <path d="M 92.290909 294.458544 
L 96.349091 294.479712 
L 100.407273 294.544728 
L 104.465455 294.65208 
L 108.523636 294.800256 
L 112.581818 294.987744 
L 116.64 295.21152 
L 120.698182 295.46856 
L 124.756364 295.75584 
L 128.814545 296.071848 
L 132.872727 296.412048 
L 136.930909 296.773416 
L 140.989091 297.152928 
L 145.047273 297.54756 
L 149.105455 297.952776 
L 153.163636 298.367064 
L 157.221818 298.788912 
L 161.28 299.212272 
L 165.338182 299.637144 
L 169.396364 300.060504 
L 173.454545 300.479328 
L 177.512727 300.892104 
L 181.570909 301.295808 
L 185.629091 301.69044 
L 189.687273 302.072976 
L 193.745455 302.441904 
L 197.803636 302.795712 
L 201.861818 303.132888 
L 205.92 303.45192 
L 209.978182 303.749784 
L 214.036364 304.027992 
L 218.094545 304.285032 
L 222.152727 304.51788 
L 226.210909 304.728048 
L 230.269091 304.912512 
L 234.327273 305.072784 
L 238.385455 305.20584 
L 242.443636 305.31168 
L 246.501818 305.391816 
L 250.56 305.444736 
L 254.618182 305.468928 
L 258.676364 305.465904 
L 262.734545 305.435664 
L 266.792727 305.376696 
L 270.850909 305.290512 
L 274.909091 305.178624 
L 278.967273 305.038008 
L 283.025455 304.871688 
L 287.083636 304.678152 
L 291.141818 304.460424 
L 295.2 304.216992 
L 299.258182 303.947856 
L 303.316364 303.65604 
L 307.374545 303.340032 
L 311.432727 303.001344 
L 315.490909 302.639976 
L 319.549091 302.258952 
L 323.607273 301.855248 
L 327.665455 301.431888 
L 331.723636 300.990384 
L 335.781818 300.529224 
L 339.84 300.04992 
L 343.898182 299.553984 
L 347.956364 299.041416 
L 352.014545 298.513728 
L 356.072727 297.97092 
L 360.130909 297.412992 
L 364.189091 296.841456 
L 368.247273 296.257824 
L 372.305455 295.663608 
L 376.363636 295.057296 
L 380.421818 294.4404 
L 384.48 293.814432 
L 388.538182 293.180904 
L 392.596364 292.539816 
L 396.654545 291.89268 
L 400.712727 291.241008 
L 404.770909 290.5848 
L 408.829091 289.92708 
L 412.887273 289.267848 
L 416.945455 288.608616 
L 421.003636 287.952408 
L 425.061818 287.300736 
L 429.12 286.6536 
L 433.178182 286.015536 
L 437.236364 285.388056 
L 441.294545 284.774184 
L 445.352727 284.176944 
L 449.410909 283.59936 
L 453.469091 283.044456 
L 457.527273 282.516768 
L 461.585455 282.01932 
L 465.643636 281.556648 
L 469.701818 281.1348 
L 473.76 280.7568 
L 477.818182 280.427184 
L 481.876364 280.150488 
L 485.934545 279.931248 
L 489.992727 279.770976 
L 494.050909 279.67572 
L 498.109091 279.642456 
" clip-path="url(#p3e9719d5ae)" style="fill: none; stroke: #000000; stroke-opacity: 0.5; stroke-linecap: square"/>
   </g>
   <g id="line2d_18">
    <path d="M 92.290909 261.589176 
L 96.349091 261.56196 
L 100.407273 261.483336 
L 104.465455 261.351792 
L 108.523636 261.170352 
L 112.581818 260.940528 
L 116.64 260.665344 
L 120.698182 260.346312 
L 124.756364 259.98948 
L 128.814545 259.594848 
L 132.872727 259.168464 
L 136.930909 258.713352 
L 140.989091 258.232536 
L 145.047273 257.72904 
L 149.105455 257.208912 
L 153.163636 256.672152 
L 157.221818 256.121784 
L 161.28 255.563856 
L 165.338182 254.998368 
L 169.396364 254.428344 
L 173.454545 253.856808 
L 177.512727 253.285272 
L 181.570909 252.715248 
L 185.629091 252.148248 
L 189.687273 251.587296 
L 193.745455 251.03088 
L 197.803636 250.482024 
L 201.861818 249.94224 
L 205.92 249.410016 
L 209.978182 248.885352 
L 214.036364 248.371272 
L 218.094545 247.867776 
L 222.152727 247.37184 
L 226.210909 246.886488 
L 230.269091 246.41172 
L 234.327273 245.944512 
L 238.385455 245.4894 
L 242.443636 245.041848 
L 246.501818 244.60488 
L 250.56 244.176984 
L 254.618182 243.75816 
L 258.676364 243.34992 
L 262.734545 242.952264 
L 266.792727 242.562168 
L 270.850909 242.184168 
L 274.909091 241.81524 
L 278.967273 241.458408 
L 283.025455 241.11216 
L 287.083636 240.778008 
L 291.141818 240.455952 
L 295.2 240.147504 
L 299.258182 239.852664 
L 303.316364 239.572944 
L 307.374545 239.308344 
L 311.432727 239.060376 
L 315.490909 238.82904 
L 319.549091 238.618872 
L 323.607273 238.426848 
L 327.665455 238.257504 
L 331.723636 238.112352 
L 335.781818 237.991392 
L 339.84 237.897648 
L 343.898182 237.834144 
L 347.956364 237.799368 
L 352.014545 237.799368 
L 356.072727 237.832632 
L 360.130909 237.903696 
L 364.189091 238.014072 
L 368.247273 238.16376 
L 372.305455 238.355784 
L 376.363636 238.588632 
L 380.421818 238.863816 
L 384.48 239.179824 
L 388.538182 239.535144 
L 392.596364 239.929776 
L 396.654545 240.357672 
L 400.712727 240.818832 
L 404.770909 241.310232 
L 408.829091 241.825824 
L 412.887273 242.364096 
L 416.945455 242.922024 
L 421.003636 243.49356 
L 425.061818 244.077192 
L 429.12 244.668384 
L 433.178182 245.261088 
L 437.236364 245.855304 
L 441.294545 246.443472 
L 445.352727 247.022568 
L 449.410909 247.588056 
L 453.469091 248.1354 
L 457.527273 248.658552 
L 461.585455 249.156 
L 465.643636 249.618672 
L 469.701818 250.043544 
L 473.76 250.42608 
L 477.818182 250.75872 
L 481.876364 251.039952 
L 485.934545 251.262216 
L 489.992727 251.424 
L 494.050909 251.52228 
L 498.109091 251.555544 
" clip-path="url(#p3e9719d5ae)" style="fill: none; stroke: #000000; stroke-opacity: 0.5; stroke-linecap: square"/>
   </g>
   <g id="line2d_19">
    <path d="M 92.290909 239.376384 
L 96.349091 239.367312 
L 100.407273 239.338584 
L 104.465455 239.291712 
L 108.523636 239.226696 
L 112.581818 239.142024 
L 116.64 239.037696 
L 120.698182 238.915224 
L 124.756364 238.773096 
L 128.814545 238.612824 
L 132.872727 238.432896 
L 136.930909 238.233312 
L 140.989091 238.015584 
L 145.047273 237.776688 
L 149.105455 237.52116 
L 153.163636 237.245976 
L 157.221818 236.951136 
L 161.28 236.639664 
L 165.338182 236.308536 
L 169.396364 235.962288 
L 173.454545 235.597896 
L 177.512727 235.218384 
L 181.570909 234.825264 
L 185.629091 234.418536 
L 189.687273 233.999712 
L 193.745455 233.571816 
L 197.803636 233.134848 
L 201.861818 232.691832 
L 205.92 232.24428 
L 209.978182 231.795216 
L 214.036364 231.347664 
L 218.094545 230.901624 
L 222.152727 230.463144 
L 226.210909 230.030712 
L 230.269091 229.610376 
L 234.327273 229.203648 
L 238.385455 228.81204 
L 242.443636 228.438576 
L 246.501818 228.084768 
L 250.56 227.75364 
L 254.618182 227.446704 
L 258.676364 227.166984 
L 262.734545 226.912968 
L 266.792727 226.68768 
L 270.850909 226.49112 
L 274.909091 226.3248 
L 278.967273 226.18872 
L 283.025455 226.081368 
L 287.083636 226.005768 
L 291.141818 225.958896 
L 295.2 225.940752 
L 299.258182 225.951336 
L 303.316364 225.989136 
L 307.374545 226.054152 
L 311.432727 226.141848 
L 315.490909 226.255248 
L 319.549091 226.389816 
L 323.607273 226.54404 
L 327.665455 226.71792 
L 331.723636 226.90692 
L 335.781818 227.11104 
L 339.84 227.328768 
L 343.898182 227.554056 
L 347.956364 227.786904 
L 352.014545 228.0258 
L 356.072727 228.264696 
L 360.130909 228.503592 
L 364.189091 228.737952 
L 368.247273 228.967776 
L 372.305455 229.188528 
L 376.363636 229.398696 
L 380.421818 229.596768 
L 384.48 229.782744 
L 388.538182 229.956624 
L 392.596364 230.116896 
L 396.654545 230.266584 
L 400.712727 230.402664 
L 404.770909 230.529672 
L 408.829091 230.646096 
L 412.887273 230.753448 
L 416.945455 230.85324 
L 421.003636 230.945472 
L 425.061818 231.031656 
L 429.12 231.11028 
L 433.178182 231.18588 
L 437.236364 231.25392 
L 441.294545 231.318936 
L 445.352727 231.377904 
L 449.410909 231.432336 
L 453.469091 231.483744 
L 457.527273 231.529104 
L 461.585455 231.57144 
L 465.643636 231.60924 
L 469.701818 231.642504 
L 473.76 231.671232 
L 477.818182 231.695424 
L 481.876364 231.71508 
L 485.934545 231.731712 
L 489.992727 231.742296 
L 494.050909 231.748344 
L 498.109091 231.751368 
" clip-path="url(#p3e9719d5ae)" style="fill: none; stroke: #000000; stroke-opacity: 0.5; stroke-linecap: square"/>
   </g>
   <g id="line2d_20">
    <path d="M 92.290909 151.039296 
L 96.349091 151.04232 
L 100.407273 151.068024 
L 104.465455 151.2162 
L 108.523636 151.680384 
L 112.581818 152.341128 
L 116.64 153.09108 
L 120.698182 153.890928 
L 124.756364 154.719504 
L 128.814545 155.564712 
L 132.872727 156.41748 
L 136.930909 157.270248 
L 140.989091 158.11848 
L 145.047273 158.95764 
L 149.105455 159.783192 
L 153.163636 160.593624 
L 157.221818 161.387424 
L 161.28 162.160056 
L 165.338182 162.913032 
L 169.396364 163.640304 
L 173.454545 164.344896 
L 177.512727 165.02076 
L 181.570909 165.67092 
L 185.629091 166.289328 
L 189.687273 166.879008 
L 193.745455 167.435424 
L 197.803636 167.957064 
L 201.861818 168.443928 
L 205.92 168.896016 
L 209.978182 169.308792 
L 214.036364 169.682256 
L 218.094545 170.014896 
L 222.152727 170.306712 
L 226.210909 170.55468 
L 230.269091 170.7588 
L 234.327273 170.919072 
L 238.385455 171.032472 
L 242.443636 171.102024 
L 246.501818 171.124704 
L 250.56 171.102024 
L 254.618182 171.033984 
L 258.676364 170.923608 
L 262.734545 170.770896 
L 266.792727 170.57736 
L 270.850909 170.349048 
L 274.909091 170.088984 
L 278.967273 169.801704 
L 283.025455 169.49628 
L 287.083636 169.17876 
L 291.141818 168.862752 
L 295.2 168.55884 
L 299.258182 168.285168 
L 303.316364 168.058368 
L 307.374545 167.895072 
L 311.432727 167.8104 
L 315.490909 167.816448 
L 319.549091 167.913216 
L 323.607273 168.094656 
L 327.665455 168.34716 
L 331.723636 168.652584 
L 335.781818 168.995808 
L 339.84 169.358688 
L 343.898182 169.727616 
L 347.956364 170.09352 
L 352.014545 170.444304 
L 356.072727 170.775432 
L 360.130909 171.077832 
L 364.189091 171.349992 
L 368.247273 171.587376 
L 372.305455 171.78696 
L 376.363636 171.94572 
L 380.421818 172.063656 
L 384.48 172.139256 
L 388.538182 172.17252 
L 392.596364 172.161936 
L 396.654545 172.109016 
L 400.712727 172.01376 
L 404.770909 171.876168 
L 408.829091 171.699264 
L 412.887273 171.481536 
L 416.945455 171.22752 
L 421.003636 170.935704 
L 425.061818 170.610624 
L 429.12 170.253792 
L 433.178182 169.86672 
L 437.236364 169.452432 
L 441.294545 169.015464 
L 445.352727 168.55884 
L 449.410909 168.084072 
L 453.469091 167.59872 
L 457.527273 167.108832 
L 461.585455 166.617432 
L 465.643636 166.133592 
L 469.701818 165.666384 
L 473.76 165.22488 
L 477.818182 164.819664 
L 481.876364 164.462832 
L 485.934545 164.167992 
L 489.992727 163.94724 
L 494.050909 163.809648 
L 498.109091 163.764288 
" clip-path="url(#p3e9719d5ae)" style="fill: none; stroke: #000000; stroke-opacity: 0.5; stroke-linecap: square"/>
   </g>
   <g id="line2d_21">
    <path d="M 92.290909 150.042888 
L 96.349091 150.141168 
L 100.407273 150.408792 
L 104.465455 150.715728 
L 108.523636 150.826104 
L 112.581818 150.824592 
L 116.64 150.794352 
L 120.698182 150.74748 
L 124.756364 150.688512 
L 128.814545 150.621984 
L 132.872727 150.546384 
L 136.930909 150.461712 
L 140.989091 150.36948 
L 145.047273 150.269688 
L 149.105455 150.163848 
L 153.163636 150.050448 
L 157.221818 149.929488 
L 161.28 149.80248 
L 165.338182 149.669424 
L 169.396364 149.531832 
L 173.454545 149.388192 
L 177.512727 149.238504 
L 181.570909 149.085792 
L 185.629091 148.928544 
L 189.687273 148.769784 
L 193.745455 148.606488 
L 197.803636 148.443192 
L 201.861818 148.279896 
L 205.92 148.115088 
L 209.978182 147.954816 
L 214.036364 147.797568 
L 218.094545 147.646368 
L 222.152727 147.505752 
L 226.210909 147.377232 
L 230.269091 147.266856 
L 234.327273 147.182184 
L 238.385455 147.1338 
L 242.443636 147.132288 
L 246.501818 147.197304 
L 250.56 147.350016 
L 254.618182 147.61008 
L 258.676364 147.997152 
L 262.734545 148.512744 
L 266.792727 149.140224 
L 270.850909 149.853888 
L 274.909091 150.621984 
L 278.967273 151.414272 
L 283.025455 152.203536 
L 287.083636 152.97012 
L 291.141818 153.691344 
L 295.2 154.349064 
L 299.258182 154.9206 
L 303.316364 155.38932 
L 307.374545 155.734056 
L 311.432727 155.936664 
L 315.490909 155.991096 
L 319.549091 155.892816 
L 323.607273 155.649384 
L 327.665455 155.278944 
L 331.723636 154.796616 
L 335.781818 154.223568 
L 339.84 153.579456 
L 343.898182 152.880912 
L 347.956364 152.143056 
L 352.014545 151.38252 
L 356.072727 150.609888 
L 360.130909 149.841792 
L 364.189091 149.088816 
L 368.247273 148.364568 
L 372.305455 147.67812 
L 376.363636 147.040056 
L 380.421818 146.459448 
L 384.48 145.936296 
L 388.538182 145.476648 
L 392.596364 145.075968 
L 396.654545 144.72972 
L 400.712727 144.43488 
L 404.770909 144.183888 
L 408.829091 143.972208 
L 412.887273 143.793792 
L 416.945455 143.642592 
L 421.003636 143.517096 
L 425.061818 143.411256 
L 429.12 143.32356 
L 433.178182 143.250984 
L 437.236364 143.190504 
L 441.294545 143.14212 
L 445.352727 143.102808 
L 449.410909 143.07408 
L 453.469091 143.055936 
L 457.527273 143.049888 
L 461.585455 143.065008 
L 465.643636 143.139096 
L 469.701818 143.409744 
L 473.76 143.961624 
L 477.818182 144.567936 
L 481.876364 145.11528 
L 485.934545 145.564344 
L 489.992727 145.898496 
L 494.050909 146.10564 
L 498.109091 146.17368 
" clip-path="url(#p3e9719d5ae)" style="fill: none; stroke: #000000; stroke-opacity: 0.5; stroke-linecap: square"/>
   </g>
   <g id="line2d_22">
    <path d="M 92.290909 138.232656 
L 96.349091 138.108672 
L 100.407273 137.75184 
L 104.465455 137.1924 
L 108.523636 136.469664 
L 112.581818 135.618408 
L 116.64 134.66736 
L 120.698182 133.6392 
L 124.756364 132.55056 
L 128.814545 131.412024 
L 132.872727 130.231152 
L 136.930909 129.017016 
L 140.989091 127.77264 
L 145.047273 126.50256 
L 149.105455 125.211312 
L 153.163636 123.898896 
L 157.221818 122.57136 
L 161.28 121.230216 
L 165.338182 119.886048 
L 169.396364 118.560024 
L 173.454545 117.388224 
L 177.512727 117.383688 
L 181.570909 118.540368 
L 185.629091 119.860344 
L 189.687273 121.213584 
L 193.745455 122.574384 
L 197.803636 123.933672 
L 201.861818 125.288424 
L 205.92 126.635616 
L 209.978182 127.972224 
L 214.036364 129.293712 
L 218.094545 130.60008 
L 222.152727 131.883768 
L 226.210909 133.14024 
L 230.269091 134.366472 
L 234.327273 135.550368 
L 238.385455 136.682856 
L 242.443636 137.750328 
L 246.501818 138.733128 
L 250.56 139.608576 
L 254.618182 140.350968 
L 258.676364 140.943672 
L 262.734545 141.379128 
L 266.792727 141.672456 
L 270.850909 141.846336 
L 274.909091 141.926472 
L 278.967273 141.937056 
L 283.025455 141.899256 
L 287.083636 141.823656 
L 291.141818 141.723864 
L 295.2 141.604416 
L 299.258182 141.469848 
L 303.316364 141.324696 
L 307.374545 141.170472 
L 311.432727 141.0102 
L 315.490909 140.84388 
L 319.549091 140.671512 
L 323.607273 140.491584 
L 327.665455 140.305608 
L 331.723636 140.112072 
L 335.781818 139.907952 
L 339.84 139.691736 
L 343.898182 139.4604 
L 347.956364 139.209408 
L 352.014545 138.934224 
L 356.072727 138.6288 
L 360.130909 138.2886 
L 364.189091 137.904552 
L 368.247273 137.469096 
L 372.305455 136.974672 
L 376.363636 136.418256 
L 380.421818 135.790776 
L 384.48 135.095256 
L 388.538182 134.330184 
L 392.596364 133.50312 
L 396.654545 132.620112 
L 400.712727 131.694768 
L 404.770909 130.74372 
L 408.829091 129.810816 
L 412.887273 129.0654 
L 416.945455 129.16368 
L 421.003636 130.126824 
L 425.061818 131.297112 
L 429.12 132.499152 
L 433.178182 133.698168 
L 437.236364 134.877528 
L 441.294545 136.031184 
L 445.352727 137.153088 
L 449.410909 138.238704 
L 453.469091 139.280472 
L 457.527273 140.270832 
L 461.585455 141.19164 
L 465.643636 142.00056 
L 469.701818 142.550928 
L 473.76 142.747488 
L 477.818182 142.804944 
L 481.876364 142.826112 
L 485.934545 142.836696 
L 489.992727 142.841232 
L 494.050909 142.842744 
L 498.109091 142.842744 
" clip-path="url(#p3e9719d5ae)" style="fill: none; stroke: #000000; stroke-opacity: 0.5; stroke-linecap: square"/>
   </g>
   <g id="line2d_23">
    <path d="M 92.290909 95.013648 
L 96.349091 95.108904 
L 100.407273 95.391648 
L 104.465455 95.848272 
L 108.523636 96.463656 
L 112.581818 97.21512 
L 116.64 98.08452 
L 120.698182 99.0522 
L 124.756364 100.100016 
L 128.814545 101.215872 
L 132.872727 102.38616 
L 136.930909 103.600296 
L 140.989091 104.85072 
L 145.047273 106.129872 
L 149.105455 107.433216 
L 153.163636 108.754704 
L 157.221818 110.088288 
L 161.28 111.429432 
L 165.338182 112.767552 
L 169.396364 114.079968 
L 173.454545 115.227576 
L 177.512727 115.198848 
L 181.570909 113.99832 
L 185.629091 112.620888 
L 189.687273 111.199608 
L 193.745455 109.75716 
L 197.803636 108.301104 
L 201.861818 106.832952 
L 205.92 105.358752 
L 209.978182 103.876992 
L 214.036364 102.392208 
L 218.094545 100.902888 
L 222.152727 99.413568 
L 226.210909 97.92576 
L 230.269091 96.440976 
L 234.327273 94.96224 
L 238.385455 93.492576 
L 242.443636 92.038032 
L 246.501818 90.603144 
L 250.56 89.192448 
L 254.618182 87.816528 
L 258.676364 86.48748 
L 262.734545 85.223448 
L 266.792727 84.048624 
L 270.850909 83.00988 
L 274.909091 82.184328 
L 278.967273 81.703512 
L 283.025455 81.721656 
L 287.083636 82.267488 
L 291.141818 83.207952 
L 295.2 84.384288 
L 299.258182 85.699728 
L 303.316364 87.098328 
L 307.374545 88.55136 
L 311.432727 90.037656 
L 315.490909 91.549656 
L 319.549091 93.076776 
L 323.607273 94.61448 
L 327.665455 96.158232 
L 331.723636 97.70652 
L 335.781818 99.25632 
L 339.84 100.803096 
L 343.898182 102.34836 
L 347.956364 103.889088 
L 352.014545 105.423768 
L 356.072727 106.9524 
L 360.130909 108.47196 
L 364.189091 109.98396 
L 368.247273 111.485376 
L 372.305455 112.974696 
L 376.363636 114.453432 
L 380.421818 115.91856 
L 384.48 117.368568 
L 388.538182 118.803456 
L 392.596364 120.2202 
L 396.654545 121.615776 
L 400.712727 122.985648 
L 404.770909 124.31772 
L 408.829091 125.574192 
L 412.887273 126.591768 
L 416.945455 126.723312 
L 421.003636 125.947656 
L 425.061818 124.93008 
L 429.12 123.849 
L 433.178182 122.742216 
L 437.236364 121.629384 
L 441.294545 120.521088 
L 445.352727 119.423376 
L 449.410909 118.34532 
L 453.469091 117.291456 
L 457.527273 116.27388 
L 461.585455 115.29864 
L 465.643636 114.37632 
L 469.701818 113.517504 
L 473.76 112.734288 
L 477.818182 112.038768 
L 481.876364 111.444552 
L 485.934545 110.96676 
L 489.992727 110.614464 
L 494.050909 110.398248 
L 498.109091 110.325672 
" clip-path="url(#p3e9719d5ae)" style="fill: none; stroke: #000000; stroke-opacity: 0.5; stroke-linecap: square"/>
   </g>
   <g id="patch_3">
    <path d="M 72 384.48 
L 72 51.84 
" style="fill: none; stroke: #000000; stroke-width: 0.8; stroke-linejoin: miter; stroke-linecap: square"/>
   </g>
   <g id="patch_4">
    <path d="M 518.4 384.48 
L 518.4 51.84 
" style="fill: none; stroke: #000000; stroke-width: 0.8; stroke-linejoin: miter; stroke-linecap: square"/>
   </g>
   <g id="patch_5">
    <path d="M 72 384.48 
L 518.4 384.48 
" style="fill: none; stroke: #000000; stroke-width: 0.8; stroke-linejoin: miter; stroke-linecap: square"/>
   </g>
   <g id="patch_6">
    <path d="M 72 51.84 
L 518.4 51.84 
" style="fill: none; stroke: #000000; stroke-width: 0.8; stroke-linejoin: miter; stroke-linecap: square"/>
   </g>
  </g>
 </g>
 <defs>
  <clipPath id="p3e9719d5ae">
   <rect x="72" y="51.84" width="446.4" height="332.64"/>
  </clipPath>
 </defs>
</svg>
