<?xml version="1.0" encoding="utf-8" standalone="no"?>
<!DOCTYPE svg PUBLIC "-//W3C//DTD SVG 1.1//EN"
  "http://www.w3.org/Graphics/SVG/1.1/DTD/svg11.dtd">
<svg xmlns:xlink="http://www.w3.org/1999/xlink" width="576pt" height="432pt" viewBox="0 0 576 432" xmlns="http://www.w3.org/2000/svg" version="1.1">
 <metadata>
  <rdf:RDF xmlns:dc="http://purl.org/dc/elements/1.1/" xmlns:cc="http://creativecommons.org/ns#" xmlns:rdf="http://www.w3.org/1999/02/22-rdf-syntax-ns#">
   <cc:Work>
    <dc:type rdf:resource="http://purl.org/dc/dcmitype/StillImage"/>
    <dc:date>2023-05-03T18:11:40.592727</dc:date>
    <dc:format>image/svg+xml</dc:format>
    <dc:creator>
     <cc:Agent>
      <dc:title>Matplotlib v3.7.1, https://matplotlib.org/</dc:title>
     </cc:Agent>
    </dc:creator>
   </cc:Work>
  </rdf:RDF>
 </metadata>
 <defs>
  <style type="text/css">*{stroke-linejoin: round; stroke-linecap: butt}</style>
 </defs>
 <g id="figure_1">
  <g id="patch_1">
   <path d="M 0 432 
L 576 432 
L 576 0 
L 0 0 
z
" style="fill: #ffffff"/>
  </g>
  <g id="axes_1">
   <g id="patch_2">
    <path d="M 72 384.48 
L 518.4 384.48 
L 518.4 51.84 
L 72 51.84 
z
" style="fill: #ffffff"/>
   </g>
   <g id="matplotlib.axis_1">
    <g id="xtick_1">
     <g id="line2d_1">
      <defs>
       <path id="m735cb7689b" d="M 0 0 
L 0 3.5 
" style="stroke: #000000; stroke-width: 0.8"/>
      </defs>
      <g>
       <use xlink:href="#m735cb7689b" x="92.290909" y="384.48" style="stroke: #000000; stroke-width: 0.8"/>
      </g>
     </g>
     <g id="text_1">
      <!-- 0.0 -->
      <g transform="translate(84.339347 399.078438) scale(0.1 -0.1)">
       <defs>
        <path id="DejaVuSans-30" d="M 2034 4250 
Q 1547 4250 1301 3770 
Q 1056 3291 1056 2328 
Q 1056 1369 1301 889 
Q 1547 409 2034 409 
Q 2525 409 2770 889 
Q 3016 1369 3016 2328 
Q 3016 3291 2770 3770 
Q 2525 4250 2034 4250 
z
M 2034 4750 
Q 2819 4750 3233 4129 
Q 3647 3509 3647 2328 
Q 3647 1150 3233 529 
Q 2819 -91 2034 -91 
Q 1250 -91 836 529 
Q 422 1150 422 2328 
Q 422 3509 836 4129 
Q 1250 4750 2034 4750 
z
" transform="scale(0.015625)"/>
        <path id="DejaVuSans-2e" d="M 684 794 
L 1344 794 
L 1344 0 
L 684 0 
L 684 794 
z
" transform="scale(0.015625)"/>
       </defs>
       <use xlink:href="#DejaVuSans-30"/>
       <use xlink:href="#DejaVuSans-2e" x="63.623047"/>
       <use xlink:href="#DejaVuSans-30" x="95.410156"/>
      </g>
     </g>
    </g>
    <g id="xtick_2">
     <g id="line2d_2">
      <g>
       <use xlink:href="#m735cb7689b" x="173.454545" y="384.48" style="stroke: #000000; stroke-width: 0.8"/>
      </g>
     </g>
     <g id="text_2">
      <!-- 0.2 -->
      <g transform="translate(165.502983 399.078438) scale(0.1 -0.1)">
       <defs>
        <path id="DejaVuSans-32" d="M 1228 531 
L 3431 531 
L 3431 0 
L 469 0 
L 469 531 
Q 828 903 1448 1529 
Q 2069 2156 2228 2338 
Q 2531 2678 2651 2914 
Q 2772 3150 2772 3378 
Q 2772 3750 2511 3984 
Q 2250 4219 1831 4219 
Q 1534 4219 1204 4116 
Q 875 4013 500 3803 
L 500 4441 
Q 881 4594 1212 4672 
Q 1544 4750 1819 4750 
Q 2544 4750 2975 4387 
Q 3406 4025 3406 3419 
Q 3406 3131 3298 2873 
Q 3191 2616 2906 2266 
Q 2828 2175 2409 1742 
Q 1991 1309 1228 531 
z
" transform="scale(0.015625)"/>
       </defs>
       <use xlink:href="#DejaVuSans-30"/>
       <use xlink:href="#DejaVuSans-2e" x="63.623047"/>
       <use xlink:href="#DejaVuSans-32" x="95.410156"/>
      </g>
     </g>
    </g>
    <g id="xtick_3">
     <g id="line2d_3">
      <g>
       <use xlink:href="#m735cb7689b" x="254.618182" y="384.48" style="stroke: #000000; stroke-width: 0.8"/>
      </g>
     </g>
     <g id="text_3">
      <!-- 0.4 -->
      <g transform="translate(246.666619 399.078438) scale(0.1 -0.1)">
       <defs>
        <path id="DejaVuSans-34" d="M 2419 4116 
L 825 1625 
L 2419 1625 
L 2419 4116 
z
M 2253 4666 
L 3047 4666 
L 3047 1625 
L 3713 1625 
L 3713 1100 
L 3047 1100 
L 3047 0 
L 2419 0 
L 2419 1100 
L 313 1100 
L 313 1709 
L 2253 4666 
z
" transform="scale(0.015625)"/>
       </defs>
       <use xlink:href="#DejaVuSans-30"/>
       <use xlink:href="#DejaVuSans-2e" x="63.623047"/>
       <use xlink:href="#DejaVuSans-34" x="95.410156"/>
      </g>
     </g>
    </g>
    <g id="xtick_4">
     <g id="line2d_4">
      <g>
       <use xlink:href="#m735cb7689b" x="335.781818" y="384.48" style="stroke: #000000; stroke-width: 0.8"/>
      </g>
     </g>
     <g id="text_4">
      <!-- 0.6 -->
      <g transform="translate(327.830256 399.078438) scale(0.1 -0.1)">
       <defs>
        <path id="DejaVuSans-36" d="M 2113 2584 
Q 1688 2584 1439 2293 
Q 1191 2003 1191 1497 
Q 1191 994 1439 701 
Q 1688 409 2113 409 
Q 2538 409 2786 701 
Q 3034 994 3034 1497 
Q 3034 2003 2786 2293 
Q 2538 2584 2113 2584 
z
M 3366 4563 
L 3366 3988 
Q 3128 4100 2886 4159 
Q 2644 4219 2406 4219 
Q 1781 4219 1451 3797 
Q 1122 3375 1075 2522 
Q 1259 2794 1537 2939 
Q 1816 3084 2150 3084 
Q 2853 3084 3261 2657 
Q 3669 2231 3669 1497 
Q 3669 778 3244 343 
Q 2819 -91 2113 -91 
Q 1303 -91 875 529 
Q 447 1150 447 2328 
Q 447 3434 972 4092 
Q 1497 4750 2381 4750 
Q 2619 4750 2861 4703 
Q 3103 4656 3366 4563 
z
" transform="scale(0.015625)"/>
       </defs>
       <use xlink:href="#DejaVuSans-30"/>
       <use xlink:href="#DejaVuSans-2e" x="63.623047"/>
       <use xlink:href="#DejaVuSans-36" x="95.410156"/>
      </g>
     </g>
    </g>
    <g id="xtick_5">
     <g id="line2d_5">
      <g>
       <use xlink:href="#m735cb7689b" x="416.945455" y="384.48" style="stroke: #000000; stroke-width: 0.8"/>
      </g>
     </g>
     <g id="text_5">
      <!-- 0.8 -->
      <g transform="translate(408.993892 399.078438) scale(0.1 -0.1)">
       <defs>
        <path id="DejaVuSans-38" d="M 2034 2216 
Q 1584 2216 1326 1975 
Q 1069 1734 1069 1313 
Q 1069 891 1326 650 
Q 1584 409 2034 409 
Q 2484 409 2743 651 
Q 3003 894 3003 1313 
Q 3003 1734 2745 1975 
Q 2488 2216 2034 2216 
z
M 1403 2484 
Q 997 2584 770 2862 
Q 544 3141 544 3541 
Q 544 4100 942 4425 
Q 1341 4750 2034 4750 
Q 2731 4750 3128 4425 
Q 3525 4100 3525 3541 
Q 3525 3141 3298 2862 
Q 3072 2584 2669 2484 
Q 3125 2378 3379 2068 
Q 3634 1759 3634 1313 
Q 3634 634 3220 271 
Q 2806 -91 2034 -91 
Q 1263 -91 848 271 
Q 434 634 434 1313 
Q 434 1759 690 2068 
Q 947 2378 1403 2484 
z
M 1172 3481 
Q 1172 3119 1398 2916 
Q 1625 2713 2034 2713 
Q 2441 2713 2670 2916 
Q 2900 3119 2900 3481 
Q 2900 3844 2670 4047 
Q 2441 4250 2034 4250 
Q 1625 4250 1398 4047 
Q 1172 3844 1172 3481 
z
" transform="scale(0.015625)"/>
       </defs>
       <use xlink:href="#DejaVuSans-30"/>
       <use xlink:href="#DejaVuSans-2e" x="63.623047"/>
       <use xlink:href="#DejaVuSans-38" x="95.410156"/>
      </g>
     </g>
    </g>
    <g id="xtick_6">
     <g id="line2d_6">
      <g>
       <use xlink:href="#m735cb7689b" x="498.109091" y="384.48" style="stroke: #000000; stroke-width: 0.8"/>
      </g>
     </g>
     <g id="text_6">
      <!-- 1.0 -->
      <g transform="translate(490.157528 399.078438) scale(0.1 -0.1)">
       <defs>
        <path id="DejaVuSans-31" d="M 794 531 
L 1825 531 
L 1825 4091 
L 703 3866 
L 703 4441 
L 1819 4666 
L 2450 4666 
L 2450 531 
L 3481 531 
L 3481 0 
L 794 0 
L 794 531 
z
" transform="scale(0.015625)"/>
       </defs>
       <use xlink:href="#DejaVuSans-31"/>
       <use xlink:href="#DejaVuSans-2e" x="63.623047"/>
       <use xlink:href="#DejaVuSans-30" x="95.410156"/>
      </g>
     </g>
    </g>
   </g>
   <g id="matplotlib.axis_2">
    <g id="ytick_1">
     <g id="line2d_7">
      <defs>
       <path id="m48606ab837" d="M 0 0 
L -3.5 0 
" style="stroke: #000000; stroke-width: 0.8"/>
      </defs>
      <g>
       <use xlink:href="#m48606ab837" x="72" y="369.36" style="stroke: #000000; stroke-width: 0.8"/>
      </g>
     </g>
     <g id="text_7">
      <!-- −5.0 -->
      <g transform="translate(40.717187 373.159219) scale(0.1 -0.1)">
       <defs>
        <path id="DejaVuSans-2212" d="M 678 2272 
L 4684 2272 
L 4684 1741 
L 678 1741 
L 678 2272 
z
" transform="scale(0.015625)"/>
        <path id="DejaVuSans-35" d="M 691 4666 
L 3169 4666 
L 3169 4134 
L 1269 4134 
L 1269 2991 
Q 1406 3038 1543 3061 
Q 1681 3084 1819 3084 
Q 2600 3084 3056 2656 
Q 3513 2228 3513 1497 
Q 3513 744 3044 326 
Q 2575 -91 1722 -91 
Q 1428 -91 1123 -41 
Q 819 9 494 109 
L 494 744 
Q 775 591 1075 516 
Q 1375 441 1709 441 
Q 2250 441 2565 725 
Q 2881 1009 2881 1497 
Q 2881 1984 2565 2268 
Q 2250 2553 1709 2553 
Q 1456 2553 1204 2497 
Q 953 2441 691 2322 
L 691 4666 
z
" transform="scale(0.015625)"/>
       </defs>
       <use xlink:href="#DejaVuSans-2212"/>
       <use xlink:href="#DejaVuSans-35" x="83.789062"/>
       <use xlink:href="#DejaVuSans-2e" x="147.412109"/>
       <use xlink:href="#DejaVuSans-30" x="179.199219"/>
      </g>
     </g>
    </g>
    <g id="ytick_2">
     <g id="line2d_8">
      <g>
       <use xlink:href="#m48606ab837" x="72" y="331.56" style="stroke: #000000; stroke-width: 0.8"/>
      </g>
     </g>
     <g id="text_8">
      <!-- −2.5 -->
      <g transform="translate(40.717187 335.359219) scale(0.1 -0.1)">
       <use xlink:href="#DejaVuSans-2212"/>
       <use xlink:href="#DejaVuSans-32" x="83.789062"/>
       <use xlink:href="#DejaVuSans-2e" x="147.412109"/>
       <use xlink:href="#DejaVuSans-35" x="179.199219"/>
      </g>
     </g>
    </g>
    <g id="ytick_3">
     <g id="line2d_9">
      <g>
       <use xlink:href="#m48606ab837" x="72" y="293.76" style="stroke: #000000; stroke-width: 0.8"/>
      </g>
     </g>
     <g id="text_9">
      <!-- 0.0 -->
      <g transform="translate(49.096875 297.559219) scale(0.1 -0.1)">
       <use xlink:href="#DejaVuSans-30"/>
       <use xlink:href="#DejaVuSans-2e" x="63.623047"/>
       <use xlink:href="#DejaVuSans-30" x="95.410156"/>
      </g>
     </g>
    </g>
    <g id="ytick_4">
     <g id="line2d_10">
      <g>
       <use xlink:href="#m48606ab837" x="72" y="255.96" style="stroke: #000000; stroke-width: 0.8"/>
      </g>
     </g>
     <g id="text_10">
      <!-- 2.5 -->
      <g transform="translate(49.096875 259.759219) scale(0.1 -0.1)">
       <use xlink:href="#DejaVuSans-32"/>
       <use xlink:href="#DejaVuSans-2e" x="63.623047"/>
       <use xlink:href="#DejaVuSans-35" x="95.410156"/>
      </g>
     </g>
    </g>
    <g id="ytick_5">
     <g id="line2d_11">
      <g>
       <use xlink:href="#m48606ab837" x="72" y="218.16" style="stroke: #000000; stroke-width: 0.8"/>
      </g>
     </g>
     <g id="text_11">
      <!-- 5.0 -->
      <g transform="translate(49.096875 221.959219) scale(0.1 -0.1)">
       <use xlink:href="#DejaVuSans-35"/>
       <use xlink:href="#DejaVuSans-2e" x="63.623047"/>
       <use xlink:href="#DejaVuSans-30" x="95.410156"/>
      </g>
     </g>
    </g>
    <g id="ytick_6">
     <g id="line2d_12">
      <g>
       <use xlink:href="#m48606ab837" x="72" y="180.36" style="stroke: #000000; stroke-width: 0.8"/>
      </g>
     </g>
     <g id="text_12">
      <!-- 7.5 -->
      <g transform="translate(49.096875 184.159219) scale(0.1 -0.1)">
       <defs>
        <path id="DejaVuSans-37" d="M 525 4666 
L 3525 4666 
L 3525 4397 
L 1831 0 
L 1172 0 
L 2766 4134 
L 525 4134 
L 525 4666 
z
" transform="scale(0.015625)"/>
       </defs>
       <use xlink:href="#DejaVuSans-37"/>
       <use xlink:href="#DejaVuSans-2e" x="63.623047"/>
       <use xlink:href="#DejaVuSans-35" x="95.410156"/>
      </g>
     </g>
    </g>
    <g id="ytick_7">
     <g id="line2d_13">
      <g>
       <use xlink:href="#m48606ab837" x="72" y="142.56" style="stroke: #000000; stroke-width: 0.8"/>
      </g>
     </g>
     <g id="text_13">
      <!-- 10.0 -->
      <g transform="translate(42.734375 146.359219) scale(0.1 -0.1)">
       <use xlink:href="#DejaVuSans-31"/>
       <use xlink:href="#DejaVuSans-30" x="63.623047"/>
       <use xlink:href="#DejaVuSans-2e" x="127.246094"/>
       <use xlink:href="#DejaVuSans-30" x="159.033203"/>
      </g>
     </g>
    </g>
    <g id="ytick_8">
     <g id="line2d_14">
      <g>
       <use xlink:href="#m48606ab837" x="72" y="104.76" style="stroke: #000000; stroke-width: 0.8"/>
      </g>
     </g>
     <g id="text_14">
      <!-- 12.5 -->
      <g transform="translate(42.734375 108.559219) scale(0.1 -0.1)">
       <use xlink:href="#DejaVuSans-31"/>
       <use xlink:href="#DejaVuSans-32" x="63.623047"/>
       <use xlink:href="#DejaVuSans-2e" x="127.246094"/>
       <use xlink:href="#DejaVuSans-35" x="159.033203"/>
      </g>
     </g>
    </g>
    <g id="ytick_9">
     <g id="line2d_15">
      <g>
       <use xlink:href="#m48606ab837" x="72" y="66.96" style="stroke: #000000; stroke-width: 0.8"/>
      </g>
     </g>
     <g id="text_15">
      <!-- 15.0 -->
      <g transform="translate(42.734375 70.759219) scale(0.1 -0.1)">
       <use xlink:href="#DejaVuSans-31"/>
       <use xlink:href="#DejaVuSans-35" x="63.623047"/>
       <use xlink:href="#DejaVuSans-2e" x="127.246094"/>
       <use xlink:href="#DejaVuSans-30" x="159.033203"/>
      </g>
     </g>
    </g>
   </g>
   <g id="line2d_16">
    <path d="M 92.290909 338.362488 
L 96.349091 338.367024 
L 100.407273 338.377608 
L 104.465455 338.395752 
L 108.523636 338.422968 
L 112.581818 338.456232 
L 116.64 338.498568 
L 120.698182 338.548464 
L 124.756364 338.607432 
L 128.814545 338.675472 
L 132.872727 338.751072 
L 136.930909 338.837256 
L 140.989091 338.934024 
L 145.047273 339.039864 
L 149.105455 339.156288 
L 153.163636 339.284808 
L 157.221818 339.423912 
L 161.28 339.5736 
L 165.338182 339.736896 
L 169.396364 339.912288 
L 173.454545 340.099776 
L 177.512727 340.300872 
L 181.570909 340.514064 
L 185.629091 340.740864 
L 189.687273 340.981272 
L 193.745455 341.233776 
L 197.803636 341.499888 
L 201.861818 341.778096 
L 205.92 342.0684 
L 209.978182 342.3708 
L 214.036364 342.685296 
L 218.094545 343.011888 
L 222.152727 343.347552 
L 226.210909 343.695312 
L 230.269091 344.050632 
L 234.327273 344.416536 
L 238.385455 344.79 
L 242.443636 345.171024 
L 246.501818 345.558096 
L 250.56 345.952728 
L 254.618182 346.351896 
L 258.676364 346.7556 
L 262.734545 347.16384 
L 266.792727 347.575104 
L 270.850909 347.989392 
L 274.909091 348.405192 
L 278.967273 348.822504 
L 283.025455 349.239816 
L 287.083636 349.65864 
L 291.141818 350.075952 
L 295.2 350.491752 
L 299.258182 350.90604 
L 303.316364 351.317304 
L 307.374545 351.727056 
L 311.432727 352.132272 
L 315.490909 352.534464 
L 319.549091 352.933632 
L 323.607273 353.326752 
L 327.665455 353.715336 
L 331.723636 354.099384 
L 335.781818 354.477384 
L 339.84 354.849336 
L 343.898182 355.213728 
L 347.956364 355.573584 
L 352.014545 355.92588 
L 356.072727 356.270616 
L 360.130909 356.607792 
L 364.189091 356.937408 
L 368.247273 357.259464 
L 372.305455 357.57396 
L 376.363636 357.879384 
L 380.421818 358.177248 
L 384.48 358.46604 
L 388.538182 358.74576 
L 392.596364 359.016408 
L 396.654545 359.277984 
L 400.712727 359.530488 
L 404.770909 359.772408 
L 408.829091 360.006768 
L 412.887273 360.230544 
L 416.945455 360.445248 
L 421.003636 360.649368 
L 425.061818 360.842904 
L 429.12 361.027368 
L 433.178182 361.201248 
L 437.236364 361.366056 
L 441.294545 361.52028 
L 445.352727 361.662408 
L 449.410909 361.795464 
L 453.469091 361.919448 
L 457.527273 362.031336 
L 461.585455 362.13264 
L 465.643636 362.22336 
L 469.701818 362.303496 
L 473.76 362.373048 
L 477.818182 362.432016 
L 481.876364 362.4804 
L 485.934545 362.5182 
L 489.992727 362.545416 
L 494.050909 362.562048 
L 498.109091 362.566584 
" clip-path="url(#pa2ada3e06b)" style="fill: none; stroke: #000000; stroke-opacity: 0.5; stroke-linecap: square"/>
   </g>
   <g id="line2d_17">
    <path d="M 92.290909 299.670408 
L 96.349091 299.688552 
L 100.407273 299.742984 
L 104.465455 299.833704 
L 108.523636 299.957688 
L 112.581818 300.111912 
L 116.64 300.294864 
L 120.698182 300.50352 
L 124.756364 300.734856 
L 128.814545 300.982824 
L 132.872727 301.247424 
L 136.930909 301.521096 
L 140.989091 301.80384 
L 145.047273 302.09112 
L 149.105455 302.3784 
L 153.163636 302.664168 
L 157.221818 302.943888 
L 161.28 303.216048 
L 165.338182 303.479136 
L 169.396364 303.728616 
L 173.454545 303.962976 
L 177.512727 304.180704 
L 181.570909 304.380288 
L 185.629091 304.560216 
L 189.687273 304.720488 
L 193.745455 304.856568 
L 197.803636 304.969968 
L 201.861818 305.060688 
L 205.92 305.125704 
L 209.978182 305.166528 
L 214.036364 305.181648 
L 218.094545 305.171064 
L 222.152727 305.134776 
L 226.210909 305.072784 
L 230.269091 304.985088 
L 234.327273 304.871688 
L 238.385455 304.732584 
L 242.443636 304.5708 
L 246.501818 304.3818 
L 250.56 304.17012 
L 254.618182 303.934248 
L 258.676364 303.675696 
L 262.734545 303.392952 
L 266.792727 303.08904 
L 270.850909 302.762448 
L 274.909091 302.414688 
L 278.967273 302.04576 
L 283.025455 301.657176 
L 287.083636 301.247424 
L 291.141818 300.819528 
L 295.2 300.371976 
L 299.258182 299.90628 
L 303.316364 299.420928 
L 307.374545 298.918944 
L 311.432727 298.400328 
L 315.490909 297.863568 
L 319.549091 297.311688 
L 323.607273 296.743176 
L 327.665455 296.159544 
L 331.723636 295.560792 
L 335.781818 294.94692 
L 339.84 294.31944 
L 343.898182 293.67684 
L 347.956364 293.022144 
L 352.014545 292.35384 
L 356.072727 291.67344 
L 360.130909 290.979432 
L 364.189091 290.27484 
L 368.247273 289.558152 
L 372.305455 288.832392 
L 376.363636 288.094536 
L 380.421818 287.347608 
L 384.48 286.591608 
L 388.538182 285.826536 
L 392.596364 285.053904 
L 396.654545 284.273712 
L 400.712727 283.487472 
L 404.770909 282.695184 
L 408.829091 281.899872 
L 412.887273 281.098512 
L 416.945455 280.297152 
L 421.003636 279.492768 
L 425.061818 278.689896 
L 429.12 277.888536 
L 433.178182 277.091712 
L 437.236364 276.302448 
L 441.294545 275.520744 
L 445.352727 274.751136 
L 449.410909 273.99816 
L 453.469091 273.26484 
L 457.527273 272.557224 
L 461.585455 271.879848 
L 465.643636 271.23876 
L 469.701818 270.64152 
L 473.76 270.0972 
L 477.818182 269.614872 
L 481.876364 269.202096 
L 485.934545 268.869456 
L 489.992727 268.626024 
L 494.050909 268.476336 
L 498.109091 268.424928 
" clip-path="url(#pa2ada3e06b)" style="fill: none; stroke: #000000; stroke-opacity: 0.5; stroke-linecap: square"/>
   </g>
   <g id="line2d_18">
    <path d="M 92.290909 267.157872 
L 96.349091 267.121584 
L 100.407273 267.015744 
L 104.465455 266.83884 
L 108.523636 266.592384 
L 112.581818 266.280912 
L 116.64 265.905936 
L 120.698182 265.47048 
L 124.756364 264.976056 
L 128.814545 264.428712 
L 132.872727 263.831472 
L 136.930909 263.185848 
L 140.989091 262.497888 
L 145.047273 261.769104 
L 149.105455 261.00252 
L 153.163636 260.20116 
L 157.221818 259.36956 
L 161.28 258.50772 
L 165.338182 257.621688 
L 169.396364 256.709952 
L 173.454545 255.777048 
L 177.512727 254.824488 
L 181.570909 253.855296 
L 185.629091 252.870984 
L 189.687273 251.871552 
L 193.745455 250.861536 
L 197.803636 249.839424 
L 201.861818 248.811264 
L 205.92 247.775544 
L 209.978182 246.733776 
L 214.036364 245.690496 
L 218.094545 244.644192 
L 222.152727 243.5994 
L 226.210909 242.55612 
L 230.269091 241.515864 
L 234.327273 240.483168 
L 238.385455 239.458032 
L 242.443636 238.44348 
L 246.501818 237.442536 
L 250.56 236.456712 
L 254.618182 235.489032 
L 258.676364 234.54252 
L 262.734545 233.6202 
L 266.792727 232.725096 
L 270.850909 231.861744 
L 274.909091 231.031656 
L 278.967273 230.237856 
L 283.025455 229.48488 
L 287.083636 228.772728 
L 291.141818 228.1014 
L 295.2 227.47392 
L 299.258182 226.885752 
L 303.316364 226.336896 
L 307.374545 225.822816 
L 311.432727 225.342 
L 315.490909 224.891424 
L 319.549091 224.466552 
L 323.607273 224.065872 
L 327.665455 223.68636 
L 331.723636 223.326504 
L 335.781818 222.98328 
L 339.84 222.661224 
L 343.898182 222.357312 
L 347.956364 222.082128 
L 352.014545 221.862888 
L 356.072727 221.794848 
L 360.130909 222.018624 
L 364.189091 222.44652 
L 368.247273 222.977232 
L 372.305455 223.577496 
L 376.363636 224.235216 
L 380.421818 224.938296 
L 384.48 225.685224 
L 388.538182 226.466928 
L 392.596364 227.281896 
L 396.654545 228.122568 
L 400.712727 228.987432 
L 404.770909 229.87044 
L 408.829091 230.77008 
L 412.887273 231.681816 
L 416.945455 232.602624 
L 421.003636 233.527968 
L 425.061818 234.454824 
L 429.12 235.380168 
L 433.178182 236.302488 
L 437.236364 237.214224 
L 441.294545 238.113864 
L 445.352727 238.998384 
L 449.410909 239.861736 
L 453.469091 240.697872 
L 457.527273 241.503768 
L 461.585455 242.270352 
L 465.643636 242.993088 
L 469.701818 243.662904 
L 473.76 244.270728 
L 477.818182 244.807488 
L 481.876364 245.265624 
L 485.934545 245.634552 
L 489.992727 245.903688 
L 494.050909 246.068496 
L 498.109091 246.12444 
" clip-path="url(#pa2ada3e06b)" style="fill: none; stroke: #000000; stroke-opacity: 0.5; stroke-linecap: square"/>
   </g>
   <g id="line2d_19">
    <path d="M 92.290909 232.918632 
L 96.349091 232.914096 
L 100.407273 232.902 
L 104.465455 232.87932 
L 108.523636 232.84908 
L 112.581818 232.809768 
L 116.64 232.761384 
L 120.698182 232.703928 
L 124.756364 232.638912 
L 128.814545 232.563312 
L 132.872727 232.480152 
L 136.930909 232.389432 
L 140.989091 232.28964 
L 145.047273 232.180776 
L 149.105455 232.06284 
L 153.163636 231.937344 
L 157.221818 231.804288 
L 161.28 231.66216 
L 165.338182 231.51096 
L 169.396364 231.353712 
L 173.454545 231.18588 
L 177.512727 231.012 
L 181.570909 230.829048 
L 185.629091 230.638536 
L 189.687273 230.440464 
L 193.745455 230.23332 
L 197.803636 230.020128 
L 201.861818 229.797864 
L 205.92 229.569552 
L 209.978182 229.332168 
L 214.036364 229.087224 
L 218.094545 228.83472 
L 222.152727 228.574656 
L 226.210909 228.307032 
L 230.269091 228.031848 
L 234.327273 227.749104 
L 238.385455 227.457288 
L 242.443636 227.157912 
L 246.501818 226.849464 
L 250.56 226.531944 
L 254.618182 226.20384 
L 258.676364 225.868176 
L 262.734545 225.521928 
L 266.792727 225.165096 
L 270.850909 224.79768 
L 274.909091 224.421192 
L 278.967273 224.03412 
L 283.025455 223.639488 
L 287.083636 223.24032 
L 291.141818 222.836616 
L 295.2 222.437448 
L 299.258182 222.04584 
L 303.316364 221.669352 
L 307.374545 221.317056 
L 311.432727 220.996512 
L 315.490909 220.716792 
L 319.549091 220.482432 
L 323.607273 220.304016 
L 327.665455 220.184568 
L 331.723636 220.130136 
L 335.781818 220.143744 
L 339.84 220.225392 
L 343.898182 220.372056 
L 347.956364 220.577688 
L 352.014545 220.812048 
L 356.072727 220.97232 
L 360.130909 220.917888 
L 364.189091 220.731912 
L 368.247273 220.51116 
L 372.305455 220.28436 
L 376.363636 220.059072 
L 380.421818 219.83832 
L 384.48 219.625128 
L 388.538182 219.419496 
L 392.596364 219.221424 
L 396.654545 219.030912 
L 400.712727 218.849472 
L 404.770909 218.675592 
L 408.829091 218.509272 
L 412.887273 218.352024 
L 416.945455 218.203848 
L 421.003636 218.06172 
L 425.061818 217.928664 
L 429.12 217.803168 
L 433.178182 217.686744 
L 437.236364 217.576368 
L 441.294545 217.473552 
L 445.352727 217.379808 
L 449.410909 217.292112 
L 453.469091 217.213488 
L 457.527273 217.140912 
L 461.585455 217.075896 
L 465.643636 217.016928 
L 469.701818 216.96552 
L 473.76 216.921672 
L 477.818182 216.885384 
L 481.876364 216.855144 
L 485.934545 216.830952 
L 489.992727 216.81432 
L 494.050909 216.803736 
L 498.109091 216.800712 
" clip-path="url(#pa2ada3e06b)" style="fill: none; stroke: #000000; stroke-opacity: 0.5; stroke-linecap: square"/>
   </g>
   <g id="line2d_20">
    <path d="M 92.290909 174.526704 
L 96.349091 174.520656 
L 100.407273 174.502512 
L 104.465455 174.472272 
L 108.523636 174.429936 
L 112.581818 174.377016 
L 116.64 174.310488 
L 120.698182 174.233376 
L 124.756364 174.144168 
L 128.814545 174.044376 
L 132.872727 173.934 
L 136.930909 173.811528 
L 140.989091 173.679984 
L 145.047273 173.536344 
L 149.105455 173.385144 
L 153.163636 173.22336 
L 157.221818 173.054016 
L 161.28 172.877112 
L 165.338182 172.691136 
L 169.396364 172.500624 
L 173.454545 172.302552 
L 177.512727 172.101456 
L 181.570909 171.897336 
L 185.629091 171.690192 
L 189.687273 171.483048 
L 193.745455 171.277416 
L 197.803636 171.074808 
L 201.861818 170.87976 
L 205.92 170.692272 
L 209.978182 170.51688 
L 214.036364 170.35812 
L 218.094545 170.219016 
L 222.152727 170.104104 
L 226.210909 170.020944 
L 230.269091 169.97256 
L 234.327273 169.966512 
L 238.385455 170.007336 
L 242.443636 170.102592 
L 246.501818 170.253792 
L 250.56 170.465472 
L 254.618182 170.739144 
L 258.676364 171.071784 
L 262.734545 171.460368 
L 266.792727 171.90036 
L 270.850909 172.381176 
L 274.909091 172.896768 
L 278.967273 173.438064 
L 283.025455 173.99448 
L 287.083636 174.556944 
L 291.141818 175.117896 
L 295.2 175.66524 
L 299.258182 176.19444 
L 303.316364 176.6934 
L 307.374545 177.157584 
L 311.432727 177.57792 
L 315.490909 177.94836 
L 319.549091 178.262856 
L 323.607273 178.516872 
L 327.665455 178.70436 
L 331.723636 178.822296 
L 335.781818 178.869168 
L 339.84 178.841952 
L 343.898182 178.74216 
L 347.956364 178.569792 
L 352.014545 178.32636 
L 356.072727 178.0164 
L 360.130909 177.641424 
L 364.189091 177.20748 
L 368.247273 176.719104 
L 372.305455 176.180832 
L 376.363636 175.595688 
L 380.421818 174.972744 
L 384.48 174.313512 
L 388.538182 173.62404 
L 392.596364 172.908864 
L 396.654545 172.17252 
L 400.712727 171.421056 
L 404.770909 170.657496 
L 408.829091 169.886376 
L 412.887273 169.11072 
L 416.945455 168.336576 
L 421.003636 167.566968 
L 425.061818 166.806432 
L 429.12 166.059504 
L 433.178182 165.33072 
L 437.236364 164.623104 
L 441.294545 163.942704 
L 445.352727 163.292544 
L 449.410909 162.678672 
L 453.469091 162.1026 
L 457.527273 161.568864 
L 461.585455 161.082 
L 465.643636 160.64352 
L 469.701818 160.256448 
L 473.76 159.920784 
L 477.818182 159.63804 
L 481.876364 159.406704 
L 485.934545 159.228288 
L 489.992727 159.10128 
L 494.050909 159.02568 
L 498.109091 158.999976 
" clip-path="url(#pa2ada3e06b)" style="fill: none; stroke: #000000; stroke-opacity: 0.5; stroke-linecap: square"/>
   </g>
   <g id="line2d_21">
    <path d="M 92.290909 120.995856 
L 96.349091 121.101696 
L 100.407273 121.410144 
L 104.465455 121.89852 
L 108.523636 122.53356 
L 112.581818 123.282 
L 116.64 124.12116 
L 120.698182 125.023824 
L 124.756364 125.976384 
L 128.814545 126.96372 
L 132.872727 127.978272 
L 136.930909 129.01248 
L 140.989091 130.058784 
L 145.047273 131.112648 
L 149.105455 132.174072 
L 153.163636 133.237008 
L 157.221818 134.299944 
L 161.28 135.36288 
L 165.338182 136.42128 
L 169.396364 137.476656 
L 173.454545 138.525984 
L 177.512727 139.567752 
L 181.570909 140.600448 
L 185.629091 141.624072 
L 189.687273 142.6356 
L 193.745455 143.63352 
L 197.803636 144.61632 
L 201.861818 145.580976 
L 205.92 146.524464 
L 209.978182 147.445272 
L 214.036364 148.337352 
L 218.094545 149.19768 
L 222.152727 150.020208 
L 226.210909 150.801912 
L 230.269091 151.53372 
L 234.327273 152.212608 
L 238.385455 152.829504 
L 242.443636 153.37836 
L 246.501818 153.857664 
L 250.56 154.259856 
L 254.618182 154.583424 
L 258.676364 154.831392 
L 262.734545 155.00376 
L 266.792727 155.105064 
L 270.850909 155.142864 
L 274.909091 155.121696 
L 278.967273 155.047608 
L 283.025455 154.931184 
L 287.083636 154.775448 
L 291.141818 154.58796 
L 295.2 154.374768 
L 299.258182 154.14192 
L 303.316364 153.89244 
L 307.374545 153.633888 
L 311.432727 153.369288 
L 315.490909 153.109224 
L 319.549091 152.867304 
L 323.607273 152.68284 
L 327.665455 152.617824 
L 331.723636 152.6904 
L 335.781818 152.82648 
L 339.84 152.976168 
L 343.898182 153.119808 
L 347.956364 153.246816 
L 352.014545 153.358704 
L 356.072727 153.450936 
L 360.130909 153.523512 
L 364.189091 153.577944 
L 368.247273 153.614232 
L 372.305455 153.633888 
L 376.363636 153.636912 
L 380.421818 153.624816 
L 384.48 153.5976 
L 388.538182 153.556776 
L 392.596364 153.503856 
L 396.654545 153.440352 
L 400.712727 153.367776 
L 404.770909 153.286128 
L 408.829091 153.19692 
L 412.887273 153.100152 
L 416.945455 152.995824 
L 421.003636 152.88696 
L 425.061818 152.77356 
L 429.12 152.6526 
L 433.178182 152.528616 
L 437.236364 152.397072 
L 441.294545 152.260992 
L 445.352727 152.118864 
L 449.410909 151.970688 
L 453.469091 151.817976 
L 457.527273 151.66224 
L 461.585455 151.501968 
L 465.643636 151.343208 
L 469.701818 151.187472 
L 473.76 151.037784 
L 477.818182 150.900192 
L 481.876364 150.779232 
L 485.934545 150.677928 
L 489.992727 150.60384 
L 494.050909 150.556968 
L 498.109091 150.541848 
" clip-path="url(#pa2ada3e06b)" style="fill: none; stroke: #000000; stroke-opacity: 0.5; stroke-linecap: square"/>
   </g>
   <g id="line2d_22">
    <path d="M 92.290909 107.188272 
L 96.349091 107.57232 
L 100.407273 108.016848 
L 104.465455 108.544536 
L 108.523636 109.172016 
L 112.581818 109.896264 
L 116.64 110.708208 
L 120.698182 111.59424 
L 124.756364 112.537728 
L 128.814545 113.528088 
L 132.872727 114.554736 
L 136.930909 115.6086 
L 140.989091 116.683632 
L 145.047273 117.77076 
L 149.105455 118.868472 
L 153.163636 119.97072 
L 157.221818 121.07448 
L 161.28 122.176728 
L 165.338182 123.27444 
L 169.396364 124.367616 
L 173.454545 125.45172 
L 177.512727 126.526752 
L 181.570909 127.589688 
L 185.629091 128.64204 
L 189.687273 129.679272 
L 193.745455 130.701384 
L 197.803636 131.706864 
L 201.861818 132.697224 
L 205.92 133.667928 
L 209.978182 134.620488 
L 214.036364 135.553392 
L 218.094545 136.46664 
L 222.152727 137.35872 
L 226.210909 138.229632 
L 230.269091 139.077864 
L 234.327273 139.904928 
L 238.385455 140.7078 
L 242.443636 141.487992 
L 246.501818 142.245504 
L 250.56 142.977312 
L 254.618182 143.68644 
L 258.676364 144.369864 
L 262.734545 145.029096 
L 266.792727 145.664136 
L 270.850909 146.273472 
L 274.909091 146.858616 
L 278.967273 147.418056 
L 283.025455 147.95028 
L 287.083636 148.458312 
L 291.141818 148.94064 
L 295.2 149.395752 
L 299.258182 149.82516 
L 303.316364 150.22584 
L 307.374545 150.597792 
L 311.432727 150.939504 
L 315.490909 151.243416 
L 319.549091 151.497432 
L 323.607273 151.666776 
L 327.665455 151.687944 
L 331.723636 151.54884 
L 335.781818 151.320528 
L 339.84 151.05744 
L 343.898182 150.779232 
L 347.956364 150.494976 
L 352.014545 150.207696 
L 356.072727 149.920416 
L 360.130909 149.630112 
L 364.189091 149.34132 
L 368.247273 149.051016 
L 372.305455 148.757688 
L 376.363636 148.461336 
L 380.421818 148.16196 
L 384.48 147.856536 
L 388.538182 147.545064 
L 392.596364 147.22452 
L 396.654545 146.894904 
L 400.712727 146.553192 
L 404.770909 146.200896 
L 408.829091 145.83348 
L 412.887273 145.450944 
L 416.945455 145.0548 
L 421.003636 144.642024 
L 425.061818 144.212616 
L 429.12 143.768088 
L 433.178182 143.30844 
L 437.236364 142.833672 
L 441.294545 142.346808 
L 445.352727 141.850872 
L 449.410909 141.345864 
L 453.469091 140.83632 
L 457.527273 140.328288 
L 461.585455 139.82328 
L 465.643636 139.328856 
L 469.701818 138.852576 
L 473.76 138.403512 
L 477.818182 137.990736 
L 481.876364 137.627856 
L 485.934545 137.325456 
L 489.992727 137.097144 
L 494.050909 136.955016 
L 498.109091 136.906632 
" clip-path="url(#pa2ada3e06b)" style="fill: none; stroke: #000000; stroke-opacity: 0.5; stroke-linecap: square"/>
   </g>
   <g id="line2d_23">
    <path d="M 92.290909 107.147448 
L 96.349091 106.74072 
L 100.407273 106.238736 
L 104.465455 105.630912 
L 108.523636 104.915736 
L 112.581818 104.111352 
L 116.64 103.24044 
L 120.698182 102.330216 
L 124.756364 101.41092 
L 128.814545 100.51884 
L 132.872727 99.6948 
L 136.930909 98.978112 
L 140.989091 98.389944 
L 145.047273 97.921224 
L 149.105455 97.543224 
L 153.163636 97.228728 
L 157.221818 96.952032 
L 161.28 96.696504 
L 165.338182 96.454584 
L 169.396364 96.2172 
L 173.454545 95.981328 
L 177.512727 95.743944 
L 181.570909 95.503536 
L 185.629091 95.260104 
L 189.687273 95.009112 
L 193.745455 94.755096 
L 197.803636 94.49352 
L 201.861818 94.227408 
L 205.92 93.955248 
L 209.978182 93.67704 
L 214.036364 93.392784 
L 218.094545 93.103992 
L 222.152727 92.812176 
L 226.210909 92.514312 
L 230.269091 92.213424 
L 234.327273 91.909512 
L 238.385455 91.602576 
L 242.443636 91.294128 
L 246.501818 90.984168 
L 250.56 90.67572 
L 254.618182 90.36576 
L 258.676364 90.058824 
L 262.734545 89.754912 
L 266.792727 89.454024 
L 270.850909 89.157672 
L 274.909091 88.867368 
L 278.967273 88.583112 
L 283.025455 88.306416 
L 287.083636 88.040304 
L 291.141818 87.783264 
L 295.2 87.53832 
L 299.258182 87.305472 
L 303.316364 87.087744 
L 307.374545 86.889672 
L 311.432727 86.711256 
L 315.490909 86.560056 
L 319.549091 86.445144 
L 323.607273 86.37408 
L 327.665455 86.365008 
L 331.723636 86.43456 
L 335.781818 86.605416 
L 339.84 86.90328 
L 343.898182 87.344784 
L 347.956364 87.942024 
L 352.014545 88.68744 
L 356.072727 89.567424 
L 360.130909 90.557784 
L 364.189091 91.637352 
L 368.247273 92.783448 
L 372.305455 93.977928 
L 376.363636 95.207184 
L 380.421818 96.462144 
L 384.48 97.730712 
L 388.538182 99.008352 
L 392.596364 100.290528 
L 396.654545 101.56968 
L 400.712727 102.844296 
L 404.770909 104.111352 
L 408.829091 105.367824 
L 412.887273 106.609176 
L 416.945455 107.83692 
L 421.003636 109.04652 
L 425.061818 110.236464 
L 429.12 111.40524 
L 433.178182 112.548312 
L 437.236364 113.66568 
L 441.294545 114.75432 
L 445.352727 115.81272 
L 449.410909 116.834832 
L 453.469091 117.817632 
L 457.527273 118.759608 
L 461.585455 119.6532 
L 465.643636 120.493872 
L 469.701818 121.274064 
L 473.76 121.986216 
L 477.818182 122.621256 
L 481.876364 123.164064 
L 485.934545 123.60708 
L 489.992727 123.935184 
L 494.050909 124.13628 
L 498.109091 124.20432 
" clip-path="url(#pa2ada3e06b)" style="fill: none; stroke: #000000; stroke-opacity: 0.5; stroke-linecap: square"/>
   </g>
   <g id="patch_3">
    <path d="M 72 384.48 
L 72 51.84 
" style="fill: none; stroke: #000000; stroke-width: 0.8; stroke-linejoin: miter; stroke-linecap: square"/>
   </g>
   <g id="patch_4">
    <path d="M 518.4 384.48 
L 518.4 51.84 
" style="fill: none; stroke: #000000; stroke-width: 0.8; stroke-linejoin: miter; stroke-linecap: square"/>
   </g>
   <g id="patch_5">
    <path d="M 72 384.48 
L 518.4 384.48 
" style="fill: none; stroke: #000000; stroke-width: 0.8; stroke-linejoin: miter; stroke-linecap: square"/>
   </g>
   <g id="patch_6">
    <path d="M 72 51.84 
L 518.4 51.84 
" style="fill: none; stroke: #000000; stroke-width: 0.8; stroke-linejoin: miter; stroke-linecap: square"/>
   </g>
  </g>
 </g>
 <defs>
  <clipPath id="pa2ada3e06b">
   <rect x="72" y="51.84" width="446.4" height="332.64"/>
  </clipPath>
 </defs>
</svg>
