<?xml version="1.0" encoding="utf-8" standalone="no"?>
<!DOCTYPE svg PUBLIC "-//W3C//DTD SVG 1.1//EN"
  "http://www.w3.org/Graphics/SVG/1.1/DTD/svg11.dtd">
<svg xmlns:xlink="http://www.w3.org/1999/xlink" width="576pt" height="432pt" viewBox="0 0 576 432" xmlns="http://www.w3.org/2000/svg" version="1.1">
 <metadata>
  <rdf:RDF xmlns:dc="http://purl.org/dc/elements/1.1/" xmlns:cc="http://creativecommons.org/ns#" xmlns:rdf="http://www.w3.org/1999/02/22-rdf-syntax-ns#">
   <cc:Work>
    <dc:type rdf:resource="http://purl.org/dc/dcmitype/StillImage"/>
    <dc:date>2023-05-04T08:09:20.272380</dc:date>
    <dc:format>image/svg+xml</dc:format>
    <dc:creator>
     <cc:Agent>
      <dc:title>Matplotlib v3.7.1, https://matplotlib.org/</dc:title>
     </cc:Agent>
    </dc:creator>
   </cc:Work>
  </rdf:RDF>
 </metadata>
 <defs>
  <style type="text/css">*{stroke-linejoin: round; stroke-linecap: butt}</style>
 </defs>
 <g id="figure_1">
  <g id="patch_1">
   <path d="M 0 432 
L 576 432 
L 576 0 
L 0 0 
z
" style="fill: #ffffff"/>
  </g>
  <g id="axes_1">
   <g id="patch_2">
    <path d="M 72 384.48 
L 518.4 384.48 
L 518.4 51.84 
L 72 51.84 
z
" style="fill: #ffffff"/>
   </g>
   <g id="matplotlib.axis_1">
    <g id="xtick_1">
     <g id="line2d_1">
      <defs>
       <path id="m3b8ca6c5b5" d="M 0 0 
L 0 3.5 
" style="stroke: #000000; stroke-width: 0.8"/>
      </defs>
      <g>
       <use xlink:href="#m3b8ca6c5b5" x="92.290909" y="384.48" style="stroke: #000000; stroke-width: 0.8"/>
      </g>
     </g>
     <g id="text_1">
      <!-- 0.0 -->
      <g transform="translate(84.339347 399.078438) scale(0.1 -0.1)">
       <defs>
        <path id="DejaVuSans-30" d="M 2034 4250 
Q 1547 4250 1301 3770 
Q 1056 3291 1056 2328 
Q 1056 1369 1301 889 
Q 1547 409 2034 409 
Q 2525 409 2770 889 
Q 3016 1369 3016 2328 
Q 3016 3291 2770 3770 
Q 2525 4250 2034 4250 
z
M 2034 4750 
Q 2819 4750 3233 4129 
Q 3647 3509 3647 2328 
Q 3647 1150 3233 529 
Q 2819 -91 2034 -91 
Q 1250 -91 836 529 
Q 422 1150 422 2328 
Q 422 3509 836 4129 
Q 1250 4750 2034 4750 
z
" transform="scale(0.015625)"/>
        <path id="DejaVuSans-2e" d="M 684 794 
L 1344 794 
L 1344 0 
L 684 0 
L 684 794 
z
" transform="scale(0.015625)"/>
       </defs>
       <use xlink:href="#DejaVuSans-30"/>
       <use xlink:href="#DejaVuSans-2e" x="63.623047"/>
       <use xlink:href="#DejaVuSans-30" x="95.410156"/>
      </g>
     </g>
    </g>
    <g id="xtick_2">
     <g id="line2d_2">
      <g>
       <use xlink:href="#m3b8ca6c5b5" x="173.454545" y="384.48" style="stroke: #000000; stroke-width: 0.8"/>
      </g>
     </g>
     <g id="text_2">
      <!-- 0.2 -->
      <g transform="translate(165.502983 399.078438) scale(0.1 -0.1)">
       <defs>
        <path id="DejaVuSans-32" d="M 1228 531 
L 3431 531 
L 3431 0 
L 469 0 
L 469 531 
Q 828 903 1448 1529 
Q 2069 2156 2228 2338 
Q 2531 2678 2651 2914 
Q 2772 3150 2772 3378 
Q 2772 3750 2511 3984 
Q 2250 4219 1831 4219 
Q 1534 4219 1204 4116 
Q 875 4013 500 3803 
L 500 4441 
Q 881 4594 1212 4672 
Q 1544 4750 1819 4750 
Q 2544 4750 2975 4387 
Q 3406 4025 3406 3419 
Q 3406 3131 3298 2873 
Q 3191 2616 2906 2266 
Q 2828 2175 2409 1742 
Q 1991 1309 1228 531 
z
" transform="scale(0.015625)"/>
       </defs>
       <use xlink:href="#DejaVuSans-30"/>
       <use xlink:href="#DejaVuSans-2e" x="63.623047"/>
       <use xlink:href="#DejaVuSans-32" x="95.410156"/>
      </g>
     </g>
    </g>
    <g id="xtick_3">
     <g id="line2d_3">
      <g>
       <use xlink:href="#m3b8ca6c5b5" x="254.618182" y="384.48" style="stroke: #000000; stroke-width: 0.8"/>
      </g>
     </g>
     <g id="text_3">
      <!-- 0.4 -->
      <g transform="translate(246.666619 399.078438) scale(0.1 -0.1)">
       <defs>
        <path id="DejaVuSans-34" d="M 2419 4116 
L 825 1625 
L 2419 1625 
L 2419 4116 
z
M 2253 4666 
L 3047 4666 
L 3047 1625 
L 3713 1625 
L 3713 1100 
L 3047 1100 
L 3047 0 
L 2419 0 
L 2419 1100 
L 313 1100 
L 313 1709 
L 2253 4666 
z
" transform="scale(0.015625)"/>
       </defs>
       <use xlink:href="#DejaVuSans-30"/>
       <use xlink:href="#DejaVuSans-2e" x="63.623047"/>
       <use xlink:href="#DejaVuSans-34" x="95.410156"/>
      </g>
     </g>
    </g>
    <g id="xtick_4">
     <g id="line2d_4">
      <g>
       <use xlink:href="#m3b8ca6c5b5" x="335.781818" y="384.48" style="stroke: #000000; stroke-width: 0.8"/>
      </g>
     </g>
     <g id="text_4">
      <!-- 0.6 -->
      <g transform="translate(327.830256 399.078438) scale(0.1 -0.1)">
       <defs>
        <path id="DejaVuSans-36" d="M 2113 2584 
Q 1688 2584 1439 2293 
Q 1191 2003 1191 1497 
Q 1191 994 1439 701 
Q 1688 409 2113 409 
Q 2538 409 2786 701 
Q 3034 994 3034 1497 
Q 3034 2003 2786 2293 
Q 2538 2584 2113 2584 
z
M 3366 4563 
L 3366 3988 
Q 3128 4100 2886 4159 
Q 2644 4219 2406 4219 
Q 1781 4219 1451 3797 
Q 1122 3375 1075 2522 
Q 1259 2794 1537 2939 
Q 1816 3084 2150 3084 
Q 2853 3084 3261 2657 
Q 3669 2231 3669 1497 
Q 3669 778 3244 343 
Q 2819 -91 2113 -91 
Q 1303 -91 875 529 
Q 447 1150 447 2328 
Q 447 3434 972 4092 
Q 1497 4750 2381 4750 
Q 2619 4750 2861 4703 
Q 3103 4656 3366 4563 
z
" transform="scale(0.015625)"/>
       </defs>
       <use xlink:href="#DejaVuSans-30"/>
       <use xlink:href="#DejaVuSans-2e" x="63.623047"/>
       <use xlink:href="#DejaVuSans-36" x="95.410156"/>
      </g>
     </g>
    </g>
    <g id="xtick_5">
     <g id="line2d_5">
      <g>
       <use xlink:href="#m3b8ca6c5b5" x="416.945455" y="384.48" style="stroke: #000000; stroke-width: 0.8"/>
      </g>
     </g>
     <g id="text_5">
      <!-- 0.8 -->
      <g transform="translate(408.993892 399.078438) scale(0.1 -0.1)">
       <defs>
        <path id="DejaVuSans-38" d="M 2034 2216 
Q 1584 2216 1326 1975 
Q 1069 1734 1069 1313 
Q 1069 891 1326 650 
Q 1584 409 2034 409 
Q 2484 409 2743 651 
Q 3003 894 3003 1313 
Q 3003 1734 2745 1975 
Q 2488 2216 2034 2216 
z
M 1403 2484 
Q 997 2584 770 2862 
Q 544 3141 544 3541 
Q 544 4100 942 4425 
Q 1341 4750 2034 4750 
Q 2731 4750 3128 4425 
Q 3525 4100 3525 3541 
Q 3525 3141 3298 2862 
Q 3072 2584 2669 2484 
Q 3125 2378 3379 2068 
Q 3634 1759 3634 1313 
Q 3634 634 3220 271 
Q 2806 -91 2034 -91 
Q 1263 -91 848 271 
Q 434 634 434 1313 
Q 434 1759 690 2068 
Q 947 2378 1403 2484 
z
M 1172 3481 
Q 1172 3119 1398 2916 
Q 1625 2713 2034 2713 
Q 2441 2713 2670 2916 
Q 2900 3119 2900 3481 
Q 2900 3844 2670 4047 
Q 2441 4250 2034 4250 
Q 1625 4250 1398 4047 
Q 1172 3844 1172 3481 
z
" transform="scale(0.015625)"/>
       </defs>
       <use xlink:href="#DejaVuSans-30"/>
       <use xlink:href="#DejaVuSans-2e" x="63.623047"/>
       <use xlink:href="#DejaVuSans-38" x="95.410156"/>
      </g>
     </g>
    </g>
    <g id="xtick_6">
     <g id="line2d_6">
      <g>
       <use xlink:href="#m3b8ca6c5b5" x="498.109091" y="384.48" style="stroke: #000000; stroke-width: 0.8"/>
      </g>
     </g>
     <g id="text_6">
      <!-- 1.0 -->
      <g transform="translate(490.157528 399.078438) scale(0.1 -0.1)">
       <defs>
        <path id="DejaVuSans-31" d="M 794 531 
L 1825 531 
L 1825 4091 
L 703 3866 
L 703 4441 
L 1819 4666 
L 2450 4666 
L 2450 531 
L 3481 531 
L 3481 0 
L 794 0 
L 794 531 
z
" transform="scale(0.015625)"/>
       </defs>
       <use xlink:href="#DejaVuSans-31"/>
       <use xlink:href="#DejaVuSans-2e" x="63.623047"/>
       <use xlink:href="#DejaVuSans-30" x="95.410156"/>
      </g>
     </g>
    </g>
   </g>
   <g id="matplotlib.axis_2">
    <g id="ytick_1">
     <g id="line2d_7">
      <defs>
       <path id="m45f9d46f26" d="M 0 0 
L -3.5 0 
" style="stroke: #000000; stroke-width: 0.8"/>
      </defs>
      <g>
       <use xlink:href="#m45f9d46f26" x="72" y="369.36" style="stroke: #000000; stroke-width: 0.8"/>
      </g>
     </g>
     <g id="text_7">
      <!-- −5.0 -->
      <g transform="translate(40.717187 373.159219) scale(0.1 -0.1)">
       <defs>
        <path id="DejaVuSans-2212" d="M 678 2272 
L 4684 2272 
L 4684 1741 
L 678 1741 
L 678 2272 
z
" transform="scale(0.015625)"/>
        <path id="DejaVuSans-35" d="M 691 4666 
L 3169 4666 
L 3169 4134 
L 1269 4134 
L 1269 2991 
Q 1406 3038 1543 3061 
Q 1681 3084 1819 3084 
Q 2600 3084 3056 2656 
Q 3513 2228 3513 1497 
Q 3513 744 3044 326 
Q 2575 -91 1722 -91 
Q 1428 -91 1123 -41 
Q 819 9 494 109 
L 494 744 
Q 775 591 1075 516 
Q 1375 441 1709 441 
Q 2250 441 2565 725 
Q 2881 1009 2881 1497 
Q 2881 1984 2565 2268 
Q 2250 2553 1709 2553 
Q 1456 2553 1204 2497 
Q 953 2441 691 2322 
L 691 4666 
z
" transform="scale(0.015625)"/>
       </defs>
       <use xlink:href="#DejaVuSans-2212"/>
       <use xlink:href="#DejaVuSans-35" x="83.789062"/>
       <use xlink:href="#DejaVuSans-2e" x="147.412109"/>
       <use xlink:href="#DejaVuSans-30" x="179.199219"/>
      </g>
     </g>
    </g>
    <g id="ytick_2">
     <g id="line2d_8">
      <g>
       <use xlink:href="#m45f9d46f26" x="72" y="331.56" style="stroke: #000000; stroke-width: 0.8"/>
      </g>
     </g>
     <g id="text_8">
      <!-- −2.5 -->
      <g transform="translate(40.717187 335.359219) scale(0.1 -0.1)">
       <use xlink:href="#DejaVuSans-2212"/>
       <use xlink:href="#DejaVuSans-32" x="83.789062"/>
       <use xlink:href="#DejaVuSans-2e" x="147.412109"/>
       <use xlink:href="#DejaVuSans-35" x="179.199219"/>
      </g>
     </g>
    </g>
    <g id="ytick_3">
     <g id="line2d_9">
      <g>
       <use xlink:href="#m45f9d46f26" x="72" y="293.76" style="stroke: #000000; stroke-width: 0.8"/>
      </g>
     </g>
     <g id="text_9">
      <!-- 0.0 -->
      <g transform="translate(49.096875 297.559219) scale(0.1 -0.1)">
       <use xlink:href="#DejaVuSans-30"/>
       <use xlink:href="#DejaVuSans-2e" x="63.623047"/>
       <use xlink:href="#DejaVuSans-30" x="95.410156"/>
      </g>
     </g>
    </g>
    <g id="ytick_4">
     <g id="line2d_10">
      <g>
       <use xlink:href="#m45f9d46f26" x="72" y="255.96" style="stroke: #000000; stroke-width: 0.8"/>
      </g>
     </g>
     <g id="text_10">
      <!-- 2.5 -->
      <g transform="translate(49.096875 259.759219) scale(0.1 -0.1)">
       <use xlink:href="#DejaVuSans-32"/>
       <use xlink:href="#DejaVuSans-2e" x="63.623047"/>
       <use xlink:href="#DejaVuSans-35" x="95.410156"/>
      </g>
     </g>
    </g>
    <g id="ytick_5">
     <g id="line2d_11">
      <g>
       <use xlink:href="#m45f9d46f26" x="72" y="218.16" style="stroke: #000000; stroke-width: 0.8"/>
      </g>
     </g>
     <g id="text_11">
      <!-- 5.0 -->
      <g transform="translate(49.096875 221.959219) scale(0.1 -0.1)">
       <use xlink:href="#DejaVuSans-35"/>
       <use xlink:href="#DejaVuSans-2e" x="63.623047"/>
       <use xlink:href="#DejaVuSans-30" x="95.410156"/>
      </g>
     </g>
    </g>
    <g id="ytick_6">
     <g id="line2d_12">
      <g>
       <use xlink:href="#m45f9d46f26" x="72" y="180.36" style="stroke: #000000; stroke-width: 0.8"/>
      </g>
     </g>
     <g id="text_12">
      <!-- 7.5 -->
      <g transform="translate(49.096875 184.159219) scale(0.1 -0.1)">
       <defs>
        <path id="DejaVuSans-37" d="M 525 4666 
L 3525 4666 
L 3525 4397 
L 1831 0 
L 1172 0 
L 2766 4134 
L 525 4134 
L 525 4666 
z
" transform="scale(0.015625)"/>
       </defs>
       <use xlink:href="#DejaVuSans-37"/>
       <use xlink:href="#DejaVuSans-2e" x="63.623047"/>
       <use xlink:href="#DejaVuSans-35" x="95.410156"/>
      </g>
     </g>
    </g>
    <g id="ytick_7">
     <g id="line2d_13">
      <g>
       <use xlink:href="#m45f9d46f26" x="72" y="142.56" style="stroke: #000000; stroke-width: 0.8"/>
      </g>
     </g>
     <g id="text_13">
      <!-- 10.0 -->
      <g transform="translate(42.734375 146.359219) scale(0.1 -0.1)">
       <use xlink:href="#DejaVuSans-31"/>
       <use xlink:href="#DejaVuSans-30" x="63.623047"/>
       <use xlink:href="#DejaVuSans-2e" x="127.246094"/>
       <use xlink:href="#DejaVuSans-30" x="159.033203"/>
      </g>
     </g>
    </g>
    <g id="ytick_8">
     <g id="line2d_14">
      <g>
       <use xlink:href="#m45f9d46f26" x="72" y="104.76" style="stroke: #000000; stroke-width: 0.8"/>
      </g>
     </g>
     <g id="text_14">
      <!-- 12.5 -->
      <g transform="translate(42.734375 108.559219) scale(0.1 -0.1)">
       <use xlink:href="#DejaVuSans-31"/>
       <use xlink:href="#DejaVuSans-32" x="63.623047"/>
       <use xlink:href="#DejaVuSans-2e" x="127.246094"/>
       <use xlink:href="#DejaVuSans-35" x="159.033203"/>
      </g>
     </g>
    </g>
    <g id="ytick_9">
     <g id="line2d_15">
      <g>
       <use xlink:href="#m45f9d46f26" x="72" y="66.96" style="stroke: #000000; stroke-width: 0.8"/>
      </g>
     </g>
     <g id="text_15">
      <!-- 15.0 -->
      <g transform="translate(42.734375 70.759219) scale(0.1 -0.1)">
       <use xlink:href="#DejaVuSans-31"/>
       <use xlink:href="#DejaVuSans-35" x="63.623047"/>
       <use xlink:href="#DejaVuSans-2e" x="127.246094"/>
       <use xlink:href="#DejaVuSans-30" x="159.033203"/>
      </g>
     </g>
    </g>
   </g>
   <g id="line2d_16">
    <path d="M 92.290909 336.135312 
L 96.349091 336.130776 
L 100.407273 336.120192 
L 104.465455 336.100536 
L 108.523636 336.074832 
L 112.581818 336.040056 
L 116.64 335.999232 
L 120.698182 335.949336 
L 124.756364 335.893392 
L 128.814545 335.829888 
L 132.872727 335.758824 
L 136.930909 335.681712 
L 140.989091 335.59704 
L 145.047273 335.504808 
L 149.105455 335.405016 
L 153.163636 335.300688 
L 157.221818 335.187288 
L 161.28 335.069352 
L 165.338182 334.943856 
L 169.396364 334.813824 
L 173.454545 334.676232 
L 177.512727 334.534104 
L 181.570909 334.385928 
L 185.629091 334.231704 
L 189.687273 334.072944 
L 193.745455 333.908136 
L 197.803636 333.740304 
L 201.861818 333.567936 
L 205.92 333.38952 
L 209.978182 333.209592 
L 214.036364 333.025128 
L 218.094545 332.836128 
L 222.152727 332.645616 
L 226.210909 332.45208 
L 230.269091 332.257032 
L 234.327273 332.05896 
L 238.385455 331.859376 
L 242.443636 331.659792 
L 246.501818 331.457184 
L 250.56 331.256088 
L 254.618182 331.054992 
L 258.676364 330.853896 
L 262.734545 330.654312 
L 266.792727 330.454728 
L 270.850909 330.258168 
L 274.909091 330.06312 
L 278.967273 329.871096 
L 283.025455 329.682096 
L 287.083636 329.497632 
L 291.141818 329.316192 
L 295.2 329.139288 
L 299.258182 328.968432 
L 303.316364 328.802112 
L 307.374545 328.64184 
L 311.432727 328.487616 
L 315.490909 328.33944 
L 319.549091 328.198824 
L 323.607273 328.065768 
L 327.665455 327.93876 
L 331.723636 327.819312 
L 335.781818 327.708936 
L 339.84 327.604608 
L 343.898182 327.509352 
L 347.956364 327.421656 
L 352.014545 327.343032 
L 356.072727 327.271968 
L 360.130909 327.206952 
L 364.189091 327.151008 
L 368.247273 327.102624 
L 372.305455 327.0618 
L 376.363636 327.027024 
L 380.421818 326.998296 
L 384.48 326.977128 
L 388.538182 326.962008 
L 392.596364 326.951424 
L 396.654545 326.945376 
L 400.712727 326.945376 
L 404.770909 326.9484 
L 408.829091 326.95596 
L 412.887273 326.966544 
L 416.945455 326.97864 
L 421.003636 326.995272 
L 425.061818 327.011904 
L 429.12 327.03156 
L 433.178182 327.052728 
L 437.236364 327.073896 
L 441.294545 327.095064 
L 445.352727 327.116232 
L 449.410909 327.1374 
L 453.469091 327.158568 
L 457.527273 327.178224 
L 461.585455 327.196368 
L 465.643636 327.214512 
L 469.701818 327.231144 
L 473.76 327.244752 
L 477.818182 327.256848 
L 481.876364 327.267432 
L 485.934545 327.274992 
L 489.992727 327.28104 
L 494.050909 327.284064 
L 498.109091 327.285576 
" clip-path="url(#p2053c9c3d9)" style="fill: none; stroke: #000000; stroke-opacity: 0.5; stroke-linecap: square"/>
   </g>
   <g id="line2d_17">
    <path d="M 92.290909 302.402592 
L 96.349091 302.404104 
L 100.407273 302.40864 
L 104.465455 302.4162 
L 108.523636 302.426784 
L 112.581818 302.441904 
L 116.64 302.458536 
L 120.698182 302.479704 
L 124.756364 302.503896 
L 128.814545 302.531112 
L 132.872727 302.562864 
L 136.930909 302.599152 
L 140.989091 302.638464 
L 145.047273 302.6808 
L 149.105455 302.729184 
L 153.163636 302.780592 
L 157.221818 302.838048 
L 161.28 302.90004 
L 165.338182 302.966568 
L 169.396364 303.037632 
L 173.454545 303.114744 
L 177.512727 303.196392 
L 181.570909 303.284088 
L 185.629091 303.37632 
L 189.687273 303.476112 
L 193.745455 303.58044 
L 197.803636 303.690816 
L 201.861818 303.805728 
L 205.92 303.9282 
L 209.978182 304.055208 
L 214.036364 304.188264 
L 218.094545 304.327368 
L 222.152727 304.471008 
L 226.210909 304.620696 
L 230.269091 304.77492 
L 234.327273 304.935192 
L 238.385455 305.098488 
L 242.443636 305.267832 
L 246.501818 305.4402 
L 250.56 305.615592 
L 254.618182 305.79552 
L 258.676364 305.97696 
L 262.734545 306.161424 
L 266.792727 306.348912 
L 270.850909 306.5364 
L 274.909091 306.726912 
L 278.967273 306.915912 
L 283.025455 307.106424 
L 287.083636 307.296936 
L 291.141818 307.485936 
L 295.2 307.673424 
L 299.258182 307.860912 
L 303.316364 308.045376 
L 307.374545 308.226816 
L 311.432727 308.405232 
L 315.490909 308.580624 
L 319.549091 308.752992 
L 323.607273 308.920824 
L 327.665455 309.08412 
L 331.723636 309.24288 
L 335.781818 309.397104 
L 339.84 309.54528 
L 343.898182 309.68892 
L 347.956364 309.828024 
L 352.014545 309.96108 
L 356.072727 310.088088 
L 360.130909 310.21056 
L 364.189091 310.326984 
L 368.247273 310.43736 
L 372.305455 310.5432 
L 376.363636 310.644504 
L 380.421818 310.73976 
L 384.48 310.83048 
L 388.538182 310.915152 
L 392.596364 310.9968 
L 396.654545 311.073912 
L 400.712727 311.144976 
L 404.770909 311.213016 
L 408.829091 311.278032 
L 412.887273 311.337 
L 416.945455 311.394456 
L 421.003636 311.447376 
L 425.061818 311.49576 
L 429.12 311.542632 
L 433.178182 311.58648 
L 437.236364 311.625792 
L 441.294545 311.663592 
L 445.352727 311.696856 
L 449.410909 311.728608 
L 453.469091 311.757336 
L 457.527273 311.784552 
L 461.585455 311.807232 
L 465.643636 311.8284 
L 469.701818 311.846544 
L 473.76 311.863176 
L 477.818182 311.876784 
L 481.876364 311.887368 
L 485.934545 311.894928 
L 489.992727 311.900976 
L 494.050909 311.905512 
L 498.109091 311.907024 
" clip-path="url(#p2053c9c3d9)" style="fill: none; stroke: #000000; stroke-opacity: 0.5; stroke-linecap: square"/>
   </g>
   <g id="line2d_18">
    <path d="M 92.290909 245.92032 
L 96.349091 246.07152 
L 100.407273 246.369384 
L 104.465455 246.718656 
L 108.523636 247.098168 
L 112.581818 247.501872 
L 116.64 247.925232 
L 120.698182 248.366736 
L 124.756364 248.82336 
L 128.814545 249.290568 
L 132.872727 249.769872 
L 136.930909 250.258248 
L 140.989091 250.75116 
L 145.047273 251.25012 
L 149.105455 251.752104 
L 153.163636 252.2556 
L 157.221818 252.759096 
L 161.28 253.26108 
L 165.338182 253.761552 
L 169.396364 254.257488 
L 173.454545 254.7504 
L 177.512727 255.237264 
L 181.570909 255.716568 
L 185.629091 256.191336 
L 189.687273 256.657032 
L 193.745455 257.115168 
L 197.803636 257.564232 
L 201.861818 258.005736 
L 205.92 258.436656 
L 209.978182 258.858504 
L 214.036364 259.269768 
L 218.094545 259.67196 
L 222.152727 260.063568 
L 226.210909 260.444592 
L 230.269091 260.816544 
L 234.327273 261.1764 
L 238.385455 261.52416 
L 242.443636 261.862848 
L 246.501818 262.187928 
L 250.56 262.502424 
L 254.618182 262.806336 
L 258.676364 263.09664 
L 262.734545 263.373336 
L 266.792727 263.639448 
L 270.850909 263.89044 
L 274.909091 264.127824 
L 278.967273 264.3516 
L 283.025455 264.560256 
L 287.083636 264.753792 
L 291.141818 264.932208 
L 295.2 265.093992 
L 299.258182 265.239144 
L 303.316364 265.367664 
L 307.374545 265.47804 
L 311.432727 265.570272 
L 315.490909 265.642848 
L 319.549091 265.69728 
L 323.607273 265.732056 
L 327.665455 265.745664 
L 331.723636 265.741128 
L 335.781818 265.713912 
L 339.84 265.665528 
L 343.898182 265.597488 
L 347.956364 265.505256 
L 352.014545 265.393368 
L 356.072727 265.2588 
L 360.130909 265.101552 
L 364.189091 264.923136 
L 368.247273 264.72204 
L 372.305455 264.498264 
L 376.363636 264.25332 
L 380.421818 263.985696 
L 384.48 263.696904 
L 388.538182 263.386944 
L 392.596364 263.054304 
L 396.654545 262.70352 
L 400.712727 262.330056 
L 404.770909 261.938448 
L 408.829091 261.527184 
L 412.887273 261.096264 
L 416.945455 260.648712 
L 421.003636 260.183016 
L 425.061818 259.700688 
L 429.12 259.20324 
L 433.178182 258.690672 
L 437.236364 258.164496 
L 441.294545 257.626224 
L 445.352727 257.075856 
L 449.410909 256.514904 
L 453.469091 255.94488 
L 457.527273 255.367296 
L 461.585455 254.783664 
L 465.643636 254.193984 
L 469.701818 253.602792 
L 473.76 253.010088 
L 477.818182 252.420408 
L 481.876364 251.833752 
L 485.934545 251.25768 
L 489.992727 250.702776 
L 494.050909 250.203816 
L 498.109091 249.94224 
" clip-path="url(#p2053c9c3d9)" style="fill: none; stroke: #000000; stroke-opacity: 0.5; stroke-linecap: square"/>
   </g>
   <g id="line2d_19">
    <path d="M 92.290909 245.397168 
L 96.349091 245.274696 
L 100.407273 245.061504 
L 104.465455 244.85436 
L 108.523636 244.671408 
L 112.581818 244.518696 
L 116.64 244.397736 
L 120.698182 244.31004 
L 124.756364 244.255608 
L 128.814545 244.235952 
L 132.872727 244.248048 
L 136.930909 244.290384 
L 140.989091 244.364472 
L 145.047273 244.467288 
L 149.105455 244.59732 
L 153.163636 244.750032 
L 157.221818 244.926936 
L 161.28 245.123496 
L 165.338182 245.336688 
L 169.396364 245.566512 
L 173.454545 245.808432 
L 177.512727 246.060936 
L 181.570909 246.319488 
L 185.629091 246.584088 
L 189.687273 246.851712 
L 193.745455 247.120848 
L 197.803636 247.38696 
L 201.861818 247.650048 
L 205.92 247.907088 
L 209.978182 248.156568 
L 214.036364 248.396976 
L 218.094545 248.625288 
L 222.152727 248.843016 
L 226.210909 249.045624 
L 230.269091 249.2316 
L 234.327273 249.402456 
L 238.385455 249.55668 
L 242.443636 249.691248 
L 246.501818 249.807672 
L 250.56 249.90444 
L 254.618182 249.98004 
L 258.676364 250.035984 
L 262.734545 250.07076 
L 266.792727 250.08588 
L 270.850909 250.079832 
L 274.909091 250.052616 
L 278.967273 250.005744 
L 283.025455 249.937704 
L 287.083636 249.85152 
L 291.141818 249.74568 
L 295.2 249.620184 
L 299.258182 249.478056 
L 303.316364 249.319296 
L 307.374545 249.143904 
L 311.432727 248.953392 
L 315.490909 248.74776 
L 319.549091 248.52852 
L 323.607273 248.298696 
L 327.665455 248.056776 
L 331.723636 247.805784 
L 335.781818 247.54572 
L 339.84 247.278096 
L 343.898182 247.004424 
L 347.956364 246.727728 
L 352.014545 246.448008 
L 356.072727 246.168288 
L 360.130909 245.888568 
L 364.189091 245.611872 
L 368.247273 245.339712 
L 372.305455 245.075112 
L 376.363636 244.818072 
L 380.421818 244.573128 
L 384.48 244.341792 
L 388.538182 244.125576 
L 392.596364 243.925992 
L 396.654545 243.747576 
L 400.712727 243.59184 
L 404.770909 243.461808 
L 408.829091 243.35748 
L 412.887273 243.283392 
L 416.945455 243.239544 
L 421.003636 243.227448 
L 425.061818 243.25164 
L 429.12 243.310608 
L 433.178182 243.405864 
L 437.236364 243.53892 
L 441.294545 243.708264 
L 445.352727 243.915408 
L 449.410909 244.15884 
L 453.469091 244.43856 
L 457.527273 244.753056 
L 461.585455 245.099304 
L 465.643636 245.477304 
L 469.701818 245.885544 
L 473.76 246.319488 
L 477.818182 246.777624 
L 481.876364 247.255416 
L 485.934545 247.748328 
L 489.992727 248.244264 
L 494.050909 248.706936 
L 498.109091 248.957928 
" clip-path="url(#p2053c9c3d9)" style="fill: none; stroke: #000000; stroke-opacity: 0.5; stroke-linecap: square"/>
   </g>
   <g id="line2d_20">
    <path d="M 92.290909 192.628368 
L 96.349091 192.613248 
L 100.407273 192.567888 
L 104.465455 192.489264 
L 108.523636 192.375864 
L 112.581818 192.224664 
L 116.64 192.03264 
L 120.698182 191.793744 
L 124.756364 191.507976 
L 128.814545 191.172312 
L 132.872727 190.78524 
L 136.930909 190.343736 
L 140.989091 189.849312 
L 145.047273 189.300456 
L 149.105455 188.697168 
L 153.163636 188.042472 
L 157.221818 187.334856 
L 161.28 186.575832 
L 165.338182 185.768424 
L 169.396364 184.914144 
L 173.454545 184.01148 
L 177.512727 183.06648 
L 181.570909 182.077632 
L 185.629091 181.04796 
L 189.687273 179.978976 
L 193.745455 178.872192 
L 197.803636 177.72912 
L 201.861818 176.552784 
L 205.92 175.343184 
L 209.978182 174.101832 
L 214.036364 172.831752 
L 218.094545 171.531432 
L 222.152727 170.205408 
L 226.210909 168.852168 
L 230.269091 167.474736 
L 234.327273 166.074624 
L 238.385455 164.65032 
L 242.443636 163.207872 
L 246.501818 161.744256 
L 250.56 160.262496 
L 254.618182 158.765616 
L 258.676364 157.25664 
L 262.734545 155.73708 
L 266.792727 154.214496 
L 270.850909 152.704008 
L 274.909091 151.234344 
L 278.967273 149.909832 
L 283.025455 149.12208 
L 287.083636 149.549976 
L 291.141818 150.75504 
L 295.2 152.18388 
L 299.258182 153.68076 
L 303.316364 155.201832 
L 307.374545 156.725928 
L 311.432727 158.245488 
L 315.490909 159.752952 
L 319.549091 161.246808 
L 323.607273 162.72252 
L 327.665455 164.178576 
L 331.723636 165.614976 
L 335.781818 167.025672 
L 339.84 168.412176 
L 343.898182 169.772976 
L 347.956364 171.103536 
L 352.014545 172.405368 
L 356.072727 173.67696 
L 360.130909 174.913776 
L 364.189091 176.114304 
L 368.247273 177.278544 
L 372.305455 178.404984 
L 376.363636 179.489088 
L 380.421818 180.529344 
L 384.48 181.525752 
L 388.538182 182.472264 
L 392.596364 183.370392 
L 396.654545 184.2156 
L 400.712727 185.007888 
L 404.770909 185.741208 
L 408.829091 186.417072 
L 412.887273 187.030944 
L 416.945455 187.582824 
L 421.003636 188.069688 
L 425.061818 188.491536 
L 429.12 188.843832 
L 433.178182 189.1296 
L 437.236364 189.347328 
L 441.294545 189.495504 
L 445.352727 189.57564 
L 449.410909 189.587736 
L 453.469091 189.533304 
L 457.527273 189.415368 
L 461.585455 189.232416 
L 465.643636 188.990496 
L 469.701818 188.692632 
L 473.76 188.341848 
L 477.818182 187.947216 
L 481.876364 187.51932 
L 485.934545 187.076304 
L 489.992727 186.654456 
L 494.050909 186.321816 
L 498.109091 186.190272 
" clip-path="url(#p2053c9c3d9)" style="fill: none; stroke: #000000; stroke-opacity: 0.5; stroke-linecap: square"/>
   </g>
   <g id="line2d_21">
    <path d="M 92.290909 184.702464 
L 96.349091 184.655592 
L 100.407273 184.513464 
L 104.465455 184.277592 
L 108.523636 183.954024 
L 112.581818 183.545784 
L 116.64 183.05892 
L 120.698182 182.496456 
L 124.756364 181.86444 
L 128.814545 181.167408 
L 132.872727 180.411408 
L 136.930909 179.597952 
L 140.989091 178.733088 
L 145.047273 177.818328 
L 149.105455 176.858208 
L 153.163636 175.855752 
L 157.221818 174.812472 
L 161.28 173.731392 
L 165.338182 172.614024 
L 169.396364 171.463392 
L 173.454545 170.279496 
L 177.512727 169.06536 
L 181.570909 167.822496 
L 185.629091 166.552416 
L 189.687273 165.25512 
L 193.745455 163.933632 
L 197.803636 162.587952 
L 201.861818 161.221104 
L 205.92 159.833088 
L 209.978182 158.423904 
L 214.036364 156.996576 
L 218.094545 155.552616 
L 222.152727 154.093536 
L 226.210909 152.62236 
L 230.269091 151.139088 
L 234.327273 149.65128 
L 238.385455 148.163472 
L 242.443636 146.684736 
L 246.501818 145.234728 
L 250.56 143.842176 
L 254.618182 142.579656 
L 258.676364 141.596856 
L 262.734545 141.179544 
L 266.792727 141.536376 
L 270.850909 142.481376 
L 274.909091 143.683416 
L 278.967273 144.87336 
L 283.025455 145.582488 
L 287.083636 145.097136 
L 291.141818 143.842176 
L 295.2 142.360416 
L 299.258182 140.80608 
L 303.316364 139.230576 
L 307.374545 137.66112 
L 311.432727 136.129464 
L 315.490909 134.68248 
L 319.549091 133.410888 
L 323.607273 132.499152 
L 327.665455 132.208848 
L 331.723636 132.647328 
L 335.781818 133.615008 
L 339.84 134.868456 
L 343.898182 136.264032 
L 347.956364 137.733696 
L 352.014545 139.242672 
L 356.072727 140.76828 
L 360.130909 142.30296 
L 364.189091 143.83764 
L 368.247273 145.369296 
L 372.305455 146.893392 
L 376.363636 148.408416 
L 380.421818 149.911344 
L 384.48 151.402176 
L 388.538182 152.8794 
L 392.596364 154.341504 
L 396.654545 155.788488 
L 400.712727 157.217328 
L 404.770909 158.631048 
L 408.829091 160.0236 
L 412.887273 161.39952 
L 416.945455 162.754272 
L 421.003636 164.089368 
L 425.061818 165.401784 
L 429.12 166.693032 
L 433.178182 167.960088 
L 437.236364 169.204464 
L 441.294545 170.421624 
L 445.352727 171.61308 
L 449.410909 172.77732 
L 453.469091 173.91132 
L 457.527273 175.01508 
L 461.585455 176.085576 
L 465.643636 177.121296 
L 469.701818 178.117704 
L 473.76 179.070264 
L 477.818182 179.97444 
L 481.876364 180.818136 
L 485.934545 181.58472 
L 489.992727 182.236392 
L 494.050909 182.706624 
L 498.109091 182.88504 
" clip-path="url(#p2053c9c3d9)" style="fill: none; stroke: #000000; stroke-opacity: 0.5; stroke-linecap: square"/>
   </g>
   <g id="line2d_22">
    <path d="M 92.290909 76.013856 
L 96.349091 76.013856 
L 100.407273 76.013856 
L 104.465455 76.012344 
L 108.523636 76.012344 
L 112.581818 76.012344 
L 116.64 76.013856 
L 120.698182 76.087944 
L 124.756364 77.333832 
L 128.814545 78.744528 
L 132.872727 80.236872 
L 136.930909 81.795744 
L 140.989091 83.409048 
L 145.047273 85.067712 
L 149.105455 86.764176 
L 153.163636 88.493904 
L 157.221818 90.249336 
L 161.28 92.025936 
L 165.338182 93.822192 
L 169.396364 95.630544 
L 173.454545 97.452504 
L 177.512727 99.282024 
L 181.570909 101.119104 
L 185.629091 102.959208 
L 189.687273 104.803848 
L 193.745455 106.648488 
L 197.803636 108.49464 
L 201.861818 110.336256 
L 205.92 112.17636 
L 209.978182 114.011928 
L 214.036364 115.839936 
L 218.094545 117.660384 
L 222.152727 119.470248 
L 226.210909 121.268016 
L 230.269091 123.049152 
L 234.327273 124.812144 
L 238.385455 126.54792 
L 242.443636 128.24892 
L 246.501818 129.895488 
L 250.56 131.45436 
L 254.618182 132.857496 
L 258.676364 133.94916 
L 262.734545 134.445096 
L 266.792727 134.129088 
L 270.850909 133.176528 
L 274.909091 131.888304 
L 278.967273 130.436784 
L 283.025455 128.905128 
L 287.083636 127.33416 
L 291.141818 125.757144 
L 295.2 124.214904 
L 299.258182 122.784552 
L 303.316364 121.658112 
L 307.374545 121.237776 
L 311.432727 121.72464 
L 315.490909 122.689296 
L 319.549091 123.696288 
L 323.607273 124.426584 
L 327.665455 124.562664 
L 331.723636 123.976008 
L 335.781818 122.854104 
L 339.84 121.434336 
L 343.898182 119.855808 
L 347.956364 118.188072 
L 352.014545 116.464392 
L 356.072727 114.702912 
L 360.130909 112.915728 
L 364.189091 111.108888 
L 368.247273 109.285416 
L 372.305455 107.45136 
L 376.363636 105.608232 
L 380.421818 103.757544 
L 384.48 101.90232 
L 388.538182 100.044072 
L 392.596364 98.184312 
L 396.654545 96.326064 
L 400.712727 94.47084 
L 404.770909 92.620152 
L 408.829091 90.778536 
L 412.887273 88.949016 
L 416.945455 87.136128 
L 421.003636 85.348944 
L 425.061818 83.602584 
L 429.12 81.924264 
L 433.178182 80.395632 
L 437.236364 79.225344 
L 441.294545 78.614496 
L 445.352727 78.358968 
L 449.410909 78.241032 
L 453.469091 78.176016 
L 457.527273 78.138216 
L 461.585455 78.112512 
L 465.643636 78.097392 
L 469.701818 78.086808 
L 473.76 78.08076 
L 477.818182 78.076224 
L 481.876364 78.0732 
L 485.934545 78.071688 
L 489.992727 78.070176 
L 494.050909 78.070176 
L 498.109091 78.070176 
" clip-path="url(#p2053c9c3d9)" style="fill: none; stroke: #000000; stroke-opacity: 0.5; stroke-linecap: square"/>
   </g>
   <g id="line2d_23">
    <path d="M 92.290909 71.033328 
L 96.349091 71.14824 
L 100.407273 71.48844 
L 104.465455 72.043344 
L 108.523636 72.793296 
L 112.581818 73.71864 
L 116.64 74.793672 
L 120.698182 75.927672 
L 124.756364 76.000248 
L 128.814545 76.00176 
L 132.872727 76.00176 
L 136.930909 76.00176 
L 140.989091 76.00176 
L 145.047273 76.003272 
L 149.105455 76.004784 
L 153.163636 76.00932 
L 157.221818 76.015368 
L 161.28 76.022928 
L 165.338182 76.033512 
L 169.396364 76.048632 
L 173.454545 76.068288 
L 177.512727 76.093992 
L 181.570909 76.128768 
L 185.629091 76.17564 
L 189.687273 76.240656 
L 193.745455 76.329864 
L 197.803636 76.456872 
L 201.861818 76.647384 
L 205.92 76.943736 
L 209.978182 77.421528 
L 214.036364 78.188112 
L 218.094545 79.308504 
L 222.152727 80.735832 
L 226.210909 82.362744 
L 230.269091 84.103056 
L 234.327273 85.90536 
L 238.385455 87.74244 
L 242.443636 89.596152 
L 246.501818 91.460448 
L 250.56 93.324744 
L 254.618182 95.187528 
L 258.676364 97.044264 
L 262.734545 98.89344 
L 266.792727 100.732032 
L 270.850909 102.557016 
L 274.909091 104.365368 
L 278.967273 106.152552 
L 283.025455 107.91252 
L 287.083636 109.637712 
L 291.141818 111.309984 
L 295.2 112.896072 
L 299.258182 114.318864 
L 303.316364 115.383312 
L 307.374545 115.678152 
L 311.432727 114.979608 
L 315.490909 113.676264 
L 319.549091 112.112856 
L 323.607273 110.431512 
L 327.665455 108.688176 
L 331.723636 106.905528 
L 335.781818 105.097176 
L 339.84 103.27068 
L 343.898182 101.430576 
L 347.956364 99.5814 
L 352.014545 97.726176 
L 356.072727 95.86944 
L 360.130909 94.014216 
L 364.189091 92.166552 
L 368.247273 90.334008 
L 372.305455 88.527168 
L 376.363636 86.75964 
L 380.421818 85.05864 
L 384.48 83.46348 
L 388.538182 82.02708 
L 392.596364 80.820504 
L 396.654545 79.889112 
L 400.712727 79.223832 
L 404.770909 78.770232 
L 408.829091 78.461784 
L 412.887273 78.244056 
L 416.945455 78.082272 
L 421.003636 77.949216 
L 425.061818 77.822208 
L 429.12 77.667984 
L 433.178182 77.403384 
L 437.236364 76.821264 
L 441.294545 75.728088 
L 445.352727 74.331 
L 449.410909 72.862848 
L 453.469091 71.414352 
L 457.527273 70.02936 
L 461.585455 68.738112 
L 465.643636 67.560264 
L 469.701818 66.516984 
L 473.76 65.623392 
L 477.818182 64.885536 
L 481.876364 64.301904 
L 485.934545 63.866448 
L 489.992727 63.56556 
L 494.050909 63.390168 
L 498.109091 63.332712 
" clip-path="url(#p2053c9c3d9)" style="fill: none; stroke: #000000; stroke-opacity: 0.5; stroke-linecap: square"/>
   </g>
   <g id="patch_3">
    <path d="M 72 384.48 
L 72 51.84 
" style="fill: none; stroke: #000000; stroke-width: 0.8; stroke-linejoin: miter; stroke-linecap: square"/>
   </g>
   <g id="patch_4">
    <path d="M 518.4 384.48 
L 518.4 51.84 
" style="fill: none; stroke: #000000; stroke-width: 0.8; stroke-linejoin: miter; stroke-linecap: square"/>
   </g>
   <g id="patch_5">
    <path d="M 72 384.48 
L 518.4 384.48 
" style="fill: none; stroke: #000000; stroke-width: 0.8; stroke-linejoin: miter; stroke-linecap: square"/>
   </g>
   <g id="patch_6">
    <path d="M 72 51.84 
L 518.4 51.84 
" style="fill: none; stroke: #000000; stroke-width: 0.8; stroke-linejoin: miter; stroke-linecap: square"/>
   </g>
  </g>
 </g>
 <defs>
  <clipPath id="p2053c9c3d9">
   <rect x="72" y="51.84" width="446.4" height="332.64"/>
  </clipPath>
 </defs>
</svg>
