<?xml version="1.0" encoding="utf-8" standalone="no"?>
<!DOCTYPE svg PUBLIC "-//W3C//DTD SVG 1.1//EN"
  "http://www.w3.org/Graphics/SVG/1.1/DTD/svg11.dtd">
<svg xmlns:xlink="http://www.w3.org/1999/xlink" width="576pt" height="432pt" viewBox="0 0 576 432" xmlns="http://www.w3.org/2000/svg" version="1.1">
 <metadata>
  <rdf:RDF xmlns:dc="http://purl.org/dc/elements/1.1/" xmlns:cc="http://creativecommons.org/ns#" xmlns:rdf="http://www.w3.org/1999/02/22-rdf-syntax-ns#">
   <cc:Work>
    <dc:type rdf:resource="http://purl.org/dc/dcmitype/StillImage"/>
    <dc:date>2023-05-03T22:55:47.407996</dc:date>
    <dc:format>image/svg+xml</dc:format>
    <dc:creator>
     <cc:Agent>
      <dc:title>Matplotlib v3.7.1, https://matplotlib.org/</dc:title>
     </cc:Agent>
    </dc:creator>
   </cc:Work>
  </rdf:RDF>
 </metadata>
 <defs>
  <style type="text/css">*{stroke-linejoin: round; stroke-linecap: butt}</style>
 </defs>
 <g id="figure_1">
  <g id="patch_1">
   <path d="M 0 432 
L 576 432 
L 576 0 
L 0 0 
z
" style="fill: #ffffff"/>
  </g>
  <g id="axes_1">
   <g id="patch_2">
    <path d="M 72 384.48 
L 518.4 384.48 
L 518.4 51.84 
L 72 51.84 
z
" style="fill: #ffffff"/>
   </g>
   <g id="matplotlib.axis_1">
    <g id="xtick_1">
     <g id="line2d_1">
      <defs>
       <path id="m7d5b7776fe" d="M 0 0 
L 0 3.5 
" style="stroke: #000000; stroke-width: 0.8"/>
      </defs>
      <g>
       <use xlink:href="#m7d5b7776fe" x="92.290909" y="384.48" style="stroke: #000000; stroke-width: 0.8"/>
      </g>
     </g>
     <g id="text_1">
      <!-- 0.0 -->
      <g transform="translate(84.339347 399.078438) scale(0.1 -0.1)">
       <defs>
        <path id="DejaVuSans-30" d="M 2034 4250 
Q 1547 4250 1301 3770 
Q 1056 3291 1056 2328 
Q 1056 1369 1301 889 
Q 1547 409 2034 409 
Q 2525 409 2770 889 
Q 3016 1369 3016 2328 
Q 3016 3291 2770 3770 
Q 2525 4250 2034 4250 
z
M 2034 4750 
Q 2819 4750 3233 4129 
Q 3647 3509 3647 2328 
Q 3647 1150 3233 529 
Q 2819 -91 2034 -91 
Q 1250 -91 836 529 
Q 422 1150 422 2328 
Q 422 3509 836 4129 
Q 1250 4750 2034 4750 
z
" transform="scale(0.015625)"/>
        <path id="DejaVuSans-2e" d="M 684 794 
L 1344 794 
L 1344 0 
L 684 0 
L 684 794 
z
" transform="scale(0.015625)"/>
       </defs>
       <use xlink:href="#DejaVuSans-30"/>
       <use xlink:href="#DejaVuSans-2e" x="63.623047"/>
       <use xlink:href="#DejaVuSans-30" x="95.410156"/>
      </g>
     </g>
    </g>
    <g id="xtick_2">
     <g id="line2d_2">
      <g>
       <use xlink:href="#m7d5b7776fe" x="173.454545" y="384.48" style="stroke: #000000; stroke-width: 0.8"/>
      </g>
     </g>
     <g id="text_2">
      <!-- 0.2 -->
      <g transform="translate(165.502983 399.078438) scale(0.1 -0.1)">
       <defs>
        <path id="DejaVuSans-32" d="M 1228 531 
L 3431 531 
L 3431 0 
L 469 0 
L 469 531 
Q 828 903 1448 1529 
Q 2069 2156 2228 2338 
Q 2531 2678 2651 2914 
Q 2772 3150 2772 3378 
Q 2772 3750 2511 3984 
Q 2250 4219 1831 4219 
Q 1534 4219 1204 4116 
Q 875 4013 500 3803 
L 500 4441 
Q 881 4594 1212 4672 
Q 1544 4750 1819 4750 
Q 2544 4750 2975 4387 
Q 3406 4025 3406 3419 
Q 3406 3131 3298 2873 
Q 3191 2616 2906 2266 
Q 2828 2175 2409 1742 
Q 1991 1309 1228 531 
z
" transform="scale(0.015625)"/>
       </defs>
       <use xlink:href="#DejaVuSans-30"/>
       <use xlink:href="#DejaVuSans-2e" x="63.623047"/>
       <use xlink:href="#DejaVuSans-32" x="95.410156"/>
      </g>
     </g>
    </g>
    <g id="xtick_3">
     <g id="line2d_3">
      <g>
       <use xlink:href="#m7d5b7776fe" x="254.618182" y="384.48" style="stroke: #000000; stroke-width: 0.8"/>
      </g>
     </g>
     <g id="text_3">
      <!-- 0.4 -->
      <g transform="translate(246.666619 399.078438) scale(0.1 -0.1)">
       <defs>
        <path id="DejaVuSans-34" d="M 2419 4116 
L 825 1625 
L 2419 1625 
L 2419 4116 
z
M 2253 4666 
L 3047 4666 
L 3047 1625 
L 3713 1625 
L 3713 1100 
L 3047 1100 
L 3047 0 
L 2419 0 
L 2419 1100 
L 313 1100 
L 313 1709 
L 2253 4666 
z
" transform="scale(0.015625)"/>
       </defs>
       <use xlink:href="#DejaVuSans-30"/>
       <use xlink:href="#DejaVuSans-2e" x="63.623047"/>
       <use xlink:href="#DejaVuSans-34" x="95.410156"/>
      </g>
     </g>
    </g>
    <g id="xtick_4">
     <g id="line2d_4">
      <g>
       <use xlink:href="#m7d5b7776fe" x="335.781818" y="384.48" style="stroke: #000000; stroke-width: 0.8"/>
      </g>
     </g>
     <g id="text_4">
      <!-- 0.6 -->
      <g transform="translate(327.830256 399.078438) scale(0.1 -0.1)">
       <defs>
        <path id="DejaVuSans-36" d="M 2113 2584 
Q 1688 2584 1439 2293 
Q 1191 2003 1191 1497 
Q 1191 994 1439 701 
Q 1688 409 2113 409 
Q 2538 409 2786 701 
Q 3034 994 3034 1497 
Q 3034 2003 2786 2293 
Q 2538 2584 2113 2584 
z
M 3366 4563 
L 3366 3988 
Q 3128 4100 2886 4159 
Q 2644 4219 2406 4219 
Q 1781 4219 1451 3797 
Q 1122 3375 1075 2522 
Q 1259 2794 1537 2939 
Q 1816 3084 2150 3084 
Q 2853 3084 3261 2657 
Q 3669 2231 3669 1497 
Q 3669 778 3244 343 
Q 2819 -91 2113 -91 
Q 1303 -91 875 529 
Q 447 1150 447 2328 
Q 447 3434 972 4092 
Q 1497 4750 2381 4750 
Q 2619 4750 2861 4703 
Q 3103 4656 3366 4563 
z
" transform="scale(0.015625)"/>
       </defs>
       <use xlink:href="#DejaVuSans-30"/>
       <use xlink:href="#DejaVuSans-2e" x="63.623047"/>
       <use xlink:href="#DejaVuSans-36" x="95.410156"/>
      </g>
     </g>
    </g>
    <g id="xtick_5">
     <g id="line2d_5">
      <g>
       <use xlink:href="#m7d5b7776fe" x="416.945455" y="384.48" style="stroke: #000000; stroke-width: 0.8"/>
      </g>
     </g>
     <g id="text_5">
      <!-- 0.8 -->
      <g transform="translate(408.993892 399.078438) scale(0.1 -0.1)">
       <defs>
        <path id="DejaVuSans-38" d="M 2034 2216 
Q 1584 2216 1326 1975 
Q 1069 1734 1069 1313 
Q 1069 891 1326 650 
Q 1584 409 2034 409 
Q 2484 409 2743 651 
Q 3003 894 3003 1313 
Q 3003 1734 2745 1975 
Q 2488 2216 2034 2216 
z
M 1403 2484 
Q 997 2584 770 2862 
Q 544 3141 544 3541 
Q 544 4100 942 4425 
Q 1341 4750 2034 4750 
Q 2731 4750 3128 4425 
Q 3525 4100 3525 3541 
Q 3525 3141 3298 2862 
Q 3072 2584 2669 2484 
Q 3125 2378 3379 2068 
Q 3634 1759 3634 1313 
Q 3634 634 3220 271 
Q 2806 -91 2034 -91 
Q 1263 -91 848 271 
Q 434 634 434 1313 
Q 434 1759 690 2068 
Q 947 2378 1403 2484 
z
M 1172 3481 
Q 1172 3119 1398 2916 
Q 1625 2713 2034 2713 
Q 2441 2713 2670 2916 
Q 2900 3119 2900 3481 
Q 2900 3844 2670 4047 
Q 2441 4250 2034 4250 
Q 1625 4250 1398 4047 
Q 1172 3844 1172 3481 
z
" transform="scale(0.015625)"/>
       </defs>
       <use xlink:href="#DejaVuSans-30"/>
       <use xlink:href="#DejaVuSans-2e" x="63.623047"/>
       <use xlink:href="#DejaVuSans-38" x="95.410156"/>
      </g>
     </g>
    </g>
    <g id="xtick_6">
     <g id="line2d_6">
      <g>
       <use xlink:href="#m7d5b7776fe" x="498.109091" y="384.48" style="stroke: #000000; stroke-width: 0.8"/>
      </g>
     </g>
     <g id="text_6">
      <!-- 1.0 -->
      <g transform="translate(490.157528 399.078438) scale(0.1 -0.1)">
       <defs>
        <path id="DejaVuSans-31" d="M 794 531 
L 1825 531 
L 1825 4091 
L 703 3866 
L 703 4441 
L 1819 4666 
L 2450 4666 
L 2450 531 
L 3481 531 
L 3481 0 
L 794 0 
L 794 531 
z
" transform="scale(0.015625)"/>
       </defs>
       <use xlink:href="#DejaVuSans-31"/>
       <use xlink:href="#DejaVuSans-2e" x="63.623047"/>
       <use xlink:href="#DejaVuSans-30" x="95.410156"/>
      </g>
     </g>
    </g>
   </g>
   <g id="matplotlib.axis_2">
    <g id="ytick_1">
     <g id="line2d_7">
      <defs>
       <path id="m170c013f9a" d="M 0 0 
L -3.5 0 
" style="stroke: #000000; stroke-width: 0.8"/>
      </defs>
      <g>
       <use xlink:href="#m170c013f9a" x="72" y="369.36" style="stroke: #000000; stroke-width: 0.8"/>
      </g>
     </g>
     <g id="text_7">
      <!-- −5.0 -->
      <g transform="translate(40.717187 373.159219) scale(0.1 -0.1)">
       <defs>
        <path id="DejaVuSans-2212" d="M 678 2272 
L 4684 2272 
L 4684 1741 
L 678 1741 
L 678 2272 
z
" transform="scale(0.015625)"/>
        <path id="DejaVuSans-35" d="M 691 4666 
L 3169 4666 
L 3169 4134 
L 1269 4134 
L 1269 2991 
Q 1406 3038 1543 3061 
Q 1681 3084 1819 3084 
Q 2600 3084 3056 2656 
Q 3513 2228 3513 1497 
Q 3513 744 3044 326 
Q 2575 -91 1722 -91 
Q 1428 -91 1123 -41 
Q 819 9 494 109 
L 494 744 
Q 775 591 1075 516 
Q 1375 441 1709 441 
Q 2250 441 2565 725 
Q 2881 1009 2881 1497 
Q 2881 1984 2565 2268 
Q 2250 2553 1709 2553 
Q 1456 2553 1204 2497 
Q 953 2441 691 2322 
L 691 4666 
z
" transform="scale(0.015625)"/>
       </defs>
       <use xlink:href="#DejaVuSans-2212"/>
       <use xlink:href="#DejaVuSans-35" x="83.789062"/>
       <use xlink:href="#DejaVuSans-2e" x="147.412109"/>
       <use xlink:href="#DejaVuSans-30" x="179.199219"/>
      </g>
     </g>
    </g>
    <g id="ytick_2">
     <g id="line2d_8">
      <g>
       <use xlink:href="#m170c013f9a" x="72" y="331.56" style="stroke: #000000; stroke-width: 0.8"/>
      </g>
     </g>
     <g id="text_8">
      <!-- −2.5 -->
      <g transform="translate(40.717187 335.359219) scale(0.1 -0.1)">
       <use xlink:href="#DejaVuSans-2212"/>
       <use xlink:href="#DejaVuSans-32" x="83.789062"/>
       <use xlink:href="#DejaVuSans-2e" x="147.412109"/>
       <use xlink:href="#DejaVuSans-35" x="179.199219"/>
      </g>
     </g>
    </g>
    <g id="ytick_3">
     <g id="line2d_9">
      <g>
       <use xlink:href="#m170c013f9a" x="72" y="293.76" style="stroke: #000000; stroke-width: 0.8"/>
      </g>
     </g>
     <g id="text_9">
      <!-- 0.0 -->
      <g transform="translate(49.096875 297.559219) scale(0.1 -0.1)">
       <use xlink:href="#DejaVuSans-30"/>
       <use xlink:href="#DejaVuSans-2e" x="63.623047"/>
       <use xlink:href="#DejaVuSans-30" x="95.410156"/>
      </g>
     </g>
    </g>
    <g id="ytick_4">
     <g id="line2d_10">
      <g>
       <use xlink:href="#m170c013f9a" x="72" y="255.96" style="stroke: #000000; stroke-width: 0.8"/>
      </g>
     </g>
     <g id="text_10">
      <!-- 2.5 -->
      <g transform="translate(49.096875 259.759219) scale(0.1 -0.1)">
       <use xlink:href="#DejaVuSans-32"/>
       <use xlink:href="#DejaVuSans-2e" x="63.623047"/>
       <use xlink:href="#DejaVuSans-35" x="95.410156"/>
      </g>
     </g>
    </g>
    <g id="ytick_5">
     <g id="line2d_11">
      <g>
       <use xlink:href="#m170c013f9a" x="72" y="218.16" style="stroke: #000000; stroke-width: 0.8"/>
      </g>
     </g>
     <g id="text_11">
      <!-- 5.0 -->
      <g transform="translate(49.096875 221.959219) scale(0.1 -0.1)">
       <use xlink:href="#DejaVuSans-35"/>
       <use xlink:href="#DejaVuSans-2e" x="63.623047"/>
       <use xlink:href="#DejaVuSans-30" x="95.410156"/>
      </g>
     </g>
    </g>
    <g id="ytick_6">
     <g id="line2d_12">
      <g>
       <use xlink:href="#m170c013f9a" x="72" y="180.36" style="stroke: #000000; stroke-width: 0.8"/>
      </g>
     </g>
     <g id="text_12">
      <!-- 7.5 -->
      <g transform="translate(49.096875 184.159219) scale(0.1 -0.1)">
       <defs>
        <path id="DejaVuSans-37" d="M 525 4666 
L 3525 4666 
L 3525 4397 
L 1831 0 
L 1172 0 
L 2766 4134 
L 525 4134 
L 525 4666 
z
" transform="scale(0.015625)"/>
       </defs>
       <use xlink:href="#DejaVuSans-37"/>
       <use xlink:href="#DejaVuSans-2e" x="63.623047"/>
       <use xlink:href="#DejaVuSans-35" x="95.410156"/>
      </g>
     </g>
    </g>
    <g id="ytick_7">
     <g id="line2d_13">
      <g>
       <use xlink:href="#m170c013f9a" x="72" y="142.56" style="stroke: #000000; stroke-width: 0.8"/>
      </g>
     </g>
     <g id="text_13">
      <!-- 10.0 -->
      <g transform="translate(42.734375 146.359219) scale(0.1 -0.1)">
       <use xlink:href="#DejaVuSans-31"/>
       <use xlink:href="#DejaVuSans-30" x="63.623047"/>
       <use xlink:href="#DejaVuSans-2e" x="127.246094"/>
       <use xlink:href="#DejaVuSans-30" x="159.033203"/>
      </g>
     </g>
    </g>
    <g id="ytick_8">
     <g id="line2d_14">
      <g>
       <use xlink:href="#m170c013f9a" x="72" y="104.76" style="stroke: #000000; stroke-width: 0.8"/>
      </g>
     </g>
     <g id="text_14">
      <!-- 12.5 -->
      <g transform="translate(42.734375 108.559219) scale(0.1 -0.1)">
       <use xlink:href="#DejaVuSans-31"/>
       <use xlink:href="#DejaVuSans-32" x="63.623047"/>
       <use xlink:href="#DejaVuSans-2e" x="127.246094"/>
       <use xlink:href="#DejaVuSans-35" x="159.033203"/>
      </g>
     </g>
    </g>
    <g id="ytick_9">
     <g id="line2d_15">
      <g>
       <use xlink:href="#m170c013f9a" x="72" y="66.96" style="stroke: #000000; stroke-width: 0.8"/>
      </g>
     </g>
     <g id="text_15">
      <!-- 15.0 -->
      <g transform="translate(42.734375 70.759219) scale(0.1 -0.1)">
       <use xlink:href="#DejaVuSans-31"/>
       <use xlink:href="#DejaVuSans-35" x="63.623047"/>
       <use xlink:href="#DejaVuSans-2e" x="127.246094"/>
       <use xlink:href="#DejaVuSans-30" x="159.033203"/>
      </g>
     </g>
    </g>
   </g>
   <g id="line2d_16">
    <path d="M 92.290909 336.726504 
L 96.349091 336.732552 
L 100.407273 336.749184 
L 104.465455 336.777912 
L 108.523636 336.817224 
L 112.581818 336.868632 
L 116.64 336.932136 
L 120.698182 337.007736 
L 124.756364 337.095432 
L 128.814545 337.195224 
L 132.872727 337.307112 
L 136.930909 337.432608 
L 140.989091 337.571712 
L 145.047273 337.724424 
L 149.105455 337.890744 
L 153.163636 338.070672 
L 157.221818 338.26572 
L 161.28 338.475888 
L 165.338182 338.699664 
L 169.396364 338.937048 
L 173.454545 339.191064 
L 177.512727 339.458688 
L 181.570909 339.73992 
L 185.629091 340.036272 
L 189.687273 340.346232 
L 193.745455 340.668288 
L 197.803636 341.005464 
L 201.861818 341.354736 
L 205.92 341.714592 
L 209.978182 342.086544 
L 214.036364 342.470592 
L 218.094545 342.863712 
L 222.152727 343.265904 
L 226.210909 343.675656 
L 230.269091 344.095992 
L 234.327273 344.520864 
L 238.385455 344.953296 
L 242.443636 345.391776 
L 246.501818 345.834792 
L 250.56 346.280832 
L 254.618182 346.731408 
L 258.676364 347.183496 
L 262.734545 347.638608 
L 266.792727 348.095232 
L 270.850909 348.551856 
L 274.909091 349.00848 
L 278.967273 349.463592 
L 283.025455 349.918704 
L 287.083636 350.370792 
L 291.141818 350.821368 
L 295.2 351.270432 
L 299.258182 351.71496 
L 303.316364 352.154952 
L 307.374545 352.59192 
L 311.432727 353.024352 
L 315.490909 353.450736 
L 319.549091 353.872584 
L 323.607273 354.288384 
L 327.665455 354.698136 
L 331.723636 355.10184 
L 335.781818 355.497984 
L 339.84 355.88808 
L 343.898182 356.270616 
L 347.956364 356.647104 
L 352.014545 357.01452 
L 356.072727 357.372864 
L 360.130909 357.72516 
L 364.189091 358.068384 
L 368.247273 358.402536 
L 372.305455 358.727616 
L 376.363636 359.045136 
L 380.421818 359.353584 
L 384.48 359.651448 
L 388.538182 359.94024 
L 392.596364 360.221472 
L 396.654545 360.490608 
L 400.712727 360.750672 
L 404.770909 361.001664 
L 408.829091 361.242072 
L 412.887273 361.473408 
L 416.945455 361.69416 
L 421.003636 361.904328 
L 425.061818 362.103912 
L 429.12 362.292912 
L 433.178182 362.471328 
L 437.236364 362.640672 
L 441.294545 362.79792 
L 445.352727 362.946096 
L 449.410909 363.082176 
L 453.469091 363.207672 
L 457.527273 363.322584 
L 461.585455 363.426912 
L 465.643636 363.520656 
L 469.701818 363.602304 
L 473.76 363.67488 
L 477.818182 363.73536 
L 481.876364 363.783744 
L 485.934545 363.823056 
L 489.992727 363.850272 
L 494.050909 363.866904 
L 498.109091 363.872952 
" clip-path="url(#p2d6c834fe0)" style="fill: none; stroke: #000000; stroke-opacity: 0.5; stroke-linecap: square"/>
   </g>
   <g id="line2d_17">
    <path d="M 92.290909 301.256496 
L 96.349091 301.270104 
L 100.407273 301.313952 
L 104.465455 301.383504 
L 108.523636 301.480272 
L 112.581818 301.601232 
L 116.64 301.744872 
L 120.698182 301.906656 
L 124.756364 302.085072 
L 128.814545 302.275584 
L 132.872727 302.47668 
L 136.930909 302.685336 
L 140.989091 302.897016 
L 145.047273 303.110208 
L 149.105455 303.320376 
L 153.163636 303.526008 
L 157.221818 303.72408 
L 161.28 303.91308 
L 165.338182 304.088472 
L 169.396364 304.250256 
L 173.454545 304.395408 
L 177.512727 304.523928 
L 181.570909 304.634304 
L 185.629091 304.723512 
L 189.687273 304.793064 
L 193.745455 304.838424 
L 197.803636 304.864128 
L 201.861818 304.864128 
L 205.92 304.84296 
L 209.978182 304.7976 
L 214.036364 304.728048 
L 218.094545 304.634304 
L 222.152727 304.51788 
L 226.210909 304.378776 
L 230.269091 304.213968 
L 234.327273 304.027992 
L 238.385455 303.817824 
L 242.443636 303.586488 
L 246.501818 303.332472 
L 250.56 303.057288 
L 254.618182 302.759424 
L 258.676364 302.441904 
L 262.734545 302.104728 
L 266.792727 301.746384 
L 270.850909 301.368384 
L 274.909091 300.970728 
L 278.967273 300.554928 
L 283.025455 300.120984 
L 287.083636 299.668896 
L 291.141818 299.200176 
L 295.2 298.713312 
L 299.258182 298.209816 
L 303.316364 297.689688 
L 307.374545 297.15444 
L 311.432727 296.60256 
L 315.490909 296.03556 
L 319.549091 295.454952 
L 323.607273 294.857712 
L 327.665455 294.246864 
L 331.723636 293.622408 
L 335.781818 292.985856 
L 339.84 292.334184 
L 343.898182 291.670416 
L 347.956364 290.994552 
L 352.014545 290.30508 
L 356.072727 289.605024 
L 360.130909 288.894384 
L 364.189091 288.171648 
L 368.247273 287.438328 
L 372.305455 286.694424 
L 376.363636 285.941448 
L 380.421818 285.1794 
L 384.48 284.409792 
L 388.538182 283.631112 
L 392.596364 282.844872 
L 396.654545 282.052584 
L 400.712727 281.252736 
L 404.770909 280.449864 
L 408.829091 279.640944 
L 412.887273 278.829 
L 416.945455 278.015544 
L 421.003636 277.202088 
L 425.061818 276.38712 
L 429.12 275.576688 
L 433.178182 274.76928 
L 437.236364 273.96792 
L 441.294545 273.177144 
L 445.352727 272.398464 
L 449.410909 271.634904 
L 453.469091 270.891 
L 457.527273 270.1728 
L 461.585455 269.48484 
L 465.643636 268.833168 
L 469.701818 268.226856 
L 473.76 267.671952 
L 477.818182 267.180552 
L 481.876364 266.760216 
L 485.934545 266.420016 
L 489.992727 266.170536 
L 494.050909 266.016312 
L 498.109091 265.964904 
" clip-path="url(#p2d6c834fe0)" style="fill: none; stroke: #000000; stroke-opacity: 0.5; stroke-linecap: square"/>
   </g>
   <g id="line2d_18">
    <path d="M 92.290909 267.699168 
L 96.349091 267.665904 
L 100.407273 267.5646 
L 104.465455 267.39828 
L 108.523636 267.166944 
L 112.581818 266.872104 
L 116.64 266.515272 
L 120.698182 266.102496 
L 124.756364 265.632264 
L 128.814545 265.110624 
L 132.872727 264.5406 
L 136.930909 263.923704 
L 140.989091 263.26296 
L 145.047273 262.561392 
L 149.105455 261.823536 
L 153.163636 261.050904 
L 157.221818 260.24652 
L 161.28 259.413408 
L 165.338182 258.551568 
L 169.396364 257.667048 
L 173.454545 256.759848 
L 177.512727 255.83148 
L 181.570909 254.88648 
L 185.629091 253.924848 
L 189.687273 252.948096 
L 193.745455 251.959248 
L 197.803636 250.958304 
L 201.861818 249.9498 
L 205.92 248.933736 
L 209.978182 247.913136 
L 214.036364 246.886488 
L 218.094545 245.85984 
L 222.152727 244.83168 
L 226.210909 243.805032 
L 230.269091 242.78292 
L 234.327273 241.765344 
L 238.385455 240.755328 
L 242.443636 239.755896 
L 246.501818 238.76856 
L 250.56 237.796344 
L 254.618182 236.839248 
L 258.676364 235.90332 
L 262.734545 234.990072 
L 266.792727 234.102528 
L 270.850909 233.240688 
L 274.909091 232.4106 
L 278.967273 231.612264 
L 283.025455 230.848704 
L 287.083636 230.11992 
L 291.141818 229.427424 
L 295.2 228.768192 
L 299.258182 228.145248 
L 303.316364 227.554056 
L 307.374545 226.994616 
L 311.432727 226.463904 
L 315.490909 225.960408 
L 319.549091 225.479592 
L 323.607273 225.021456 
L 327.665455 224.584488 
L 331.723636 224.164152 
L 335.781818 223.763472 
L 339.84 223.379424 
L 343.898182 223.010496 
L 347.956364 222.661224 
L 352.014545 222.33312 
L 356.072727 222.036768 
L 360.130909 221.805432 
L 364.189091 221.741928 
L 368.247273 221.97024 
L 372.305455 222.411744 
L 376.363636 222.963624 
L 380.421818 223.583544 
L 384.48 224.259408 
L 388.538182 224.97912 
L 392.596364 225.736632 
L 396.654545 226.527408 
L 400.712727 227.3454 
L 404.770909 228.187584 
L 408.829091 229.050936 
L 412.887273 229.927896 
L 416.945455 230.818464 
L 421.003636 231.716592 
L 425.061818 232.620768 
L 429.12 233.524944 
L 433.178182 234.427608 
L 437.236364 235.324224 
L 441.294545 236.210256 
L 445.352727 237.08268 
L 449.410909 237.935448 
L 453.469091 238.765536 
L 457.527273 239.565384 
L 461.585455 240.328944 
L 465.643636 241.048656 
L 469.701818 241.718472 
L 473.76 242.326296 
L 477.818182 242.86608 
L 481.876364 243.325728 
L 485.934545 243.696168 
L 489.992727 243.968328 
L 494.050909 244.134648 
L 498.109091 244.190592 
" clip-path="url(#p2d6c834fe0)" style="fill: none; stroke: #000000; stroke-opacity: 0.5; stroke-linecap: square"/>
   </g>
   <g id="line2d_19">
    <path d="M 92.290909 234.205344 
L 96.349091 234.200808 
L 100.407273 234.1872 
L 104.465455 234.163008 
L 108.523636 234.129744 
L 112.581818 234.087408 
L 116.64 234.036 
L 120.698182 233.974008 
L 124.756364 233.904456 
L 128.814545 233.82432 
L 132.872727 233.7336 
L 136.930909 233.63532 
L 140.989091 233.527968 
L 145.047273 233.410032 
L 149.105455 233.284536 
L 153.163636 233.148456 
L 157.221818 233.003304 
L 161.28 232.84908 
L 165.338182 232.687296 
L 169.396364 232.514928 
L 173.454545 232.333488 
L 177.512727 232.142976 
L 181.570909 231.944904 
L 185.629091 231.736248 
L 189.687273 231.520032 
L 193.745455 231.294744 
L 197.803636 231.058872 
L 201.861818 230.81544 
L 205.92 230.562936 
L 209.978182 230.30136 
L 214.036364 230.030712 
L 218.094545 229.750992 
L 222.152727 229.4622 
L 226.210909 229.164336 
L 230.269091 228.855888 
L 234.327273 228.538368 
L 238.385455 228.210264 
L 242.443636 227.873088 
L 246.501818 227.525328 
L 250.56 227.165472 
L 254.618182 226.795032 
L 258.676364 226.414008 
L 262.734545 226.020888 
L 266.792727 225.615672 
L 270.850909 225.199872 
L 274.909091 224.773488 
L 278.967273 224.33652 
L 283.025455 223.893504 
L 287.083636 223.44444 
L 291.141818 222.995376 
L 295.2 222.547824 
L 299.258182 222.109344 
L 303.316364 221.685984 
L 307.374545 221.28228 
L 311.432727 220.908816 
L 315.490909 220.57164 
L 319.549091 220.275288 
L 323.607273 220.028832 
L 327.665455 219.83832 
L 331.723636 219.706776 
L 335.781818 219.640248 
L 339.84 219.640248 
L 343.898182 219.708288 
L 347.956364 219.842856 
L 352.014545 220.039416 
L 356.072727 220.285872 
L 360.130909 220.54896 
L 364.189091 220.718304 
L 368.247273 220.668408 
L 372.305455 220.47336 
L 376.363636 220.23144 
L 380.421818 219.978936 
L 384.48 219.726432 
L 388.538182 219.479976 
L 392.596364 219.239568 
L 396.654545 219.00672 
L 400.712727 218.782944 
L 404.770909 218.566728 
L 408.829091 218.361096 
L 412.887273 218.164536 
L 416.945455 217.977048 
L 421.003636 217.798632 
L 425.061818 217.6308 
L 429.12 217.470528 
L 433.178182 217.32084 
L 437.236364 217.181736 
L 441.294545 217.050192 
L 445.352727 216.929232 
L 449.410909 216.815832 
L 453.469091 216.713016 
L 457.527273 216.619272 
L 461.585455 216.5346 
L 465.643636 216.459 
L 469.701818 216.392472 
L 473.76 216.335016 
L 477.818182 216.286632 
L 481.876364 216.24732 
L 485.934545 216.215568 
L 489.992727 216.1944 
L 494.050909 216.180792 
L 498.109091 216.176256 
" clip-path="url(#p2d6c834fe0)" style="fill: none; stroke: #000000; stroke-opacity: 0.5; stroke-linecap: square"/>
   </g>
   <g id="line2d_20">
    <path d="M 92.290909 175.205592 
L 96.349091 175.199544 
L 100.407273 175.179888 
L 104.465455 175.149648 
L 108.523636 175.104288 
L 112.581818 175.048344 
L 116.64 174.978792 
L 120.698182 174.898656 
L 124.756364 174.804912 
L 128.814545 174.699072 
L 132.872727 174.582648 
L 136.930909 174.454128 
L 140.989091 174.313512 
L 145.047273 174.163824 
L 149.105455 174.00204 
L 153.163636 173.829672 
L 157.221818 173.648232 
L 161.28 173.45772 
L 165.338182 173.258136 
L 169.396364 173.050992 
L 173.454545 172.836288 
L 177.512727 172.615536 
L 181.570909 172.388736 
L 185.629091 172.1574 
L 189.687273 171.92304 
L 193.745455 171.68868 
L 197.803636 171.452808 
L 201.861818 171.218448 
L 205.92 170.988624 
L 209.978182 170.76636 
L 214.036364 170.55468 
L 218.094545 170.355096 
L 222.152727 170.173656 
L 226.210909 170.014896 
L 230.269091 169.883352 
L 234.327273 169.78356 
L 238.385455 169.724592 
L 242.443636 169.710984 
L 246.501818 169.748784 
L 250.56 169.84404 
L 254.618182 169.999776 
L 258.676364 170.217504 
L 262.734545 170.498736 
L 266.792727 170.838936 
L 270.850909 171.23508 
L 274.909091 171.678096 
L 278.967273 172.158912 
L 283.025455 172.669968 
L 287.083636 173.202192 
L 291.141818 173.743488 
L 295.2 174.284784 
L 299.258182 174.820032 
L 303.316364 175.337136 
L 307.374545 175.828536 
L 311.432727 176.288184 
L 315.490909 176.70852 
L 319.549091 177.080472 
L 323.607273 177.401016 
L 327.665455 177.662592 
L 331.723636 177.860664 
L 335.781818 177.99372 
L 339.84 178.057224 
L 343.898182 178.049664 
L 347.956364 177.97104 
L 352.014545 177.822864 
L 356.072727 177.605136 
L 360.130909 177.32088 
L 364.189091 176.97312 
L 368.247273 176.566392 
L 372.305455 176.105232 
L 376.363636 175.592664 
L 380.421818 175.034736 
L 384.48 174.435984 
L 388.538182 173.800944 
L 392.596364 173.134152 
L 396.654545 172.441656 
L 400.712727 171.724968 
L 404.770909 170.990136 
L 408.829091 170.240184 
L 412.887273 169.48116 
L 416.945455 168.714576 
L 421.003636 167.943456 
L 425.061818 167.17536 
L 429.12 166.410288 
L 433.178182 165.654288 
L 437.236364 164.908872 
L 441.294545 164.180088 
L 445.352727 163.469448 
L 449.410909 162.783 
L 453.469091 162.12528 
L 457.527273 161.4978 
L 461.585455 160.90812 
L 465.643636 160.360776 
L 469.701818 159.858792 
L 473.76 159.409728 
L 477.818182 159.01812 
L 481.876364 158.686992 
L 485.934545 158.425416 
L 489.992727 158.233392 
L 494.050909 158.116968 
L 498.109091 158.077656 
" clip-path="url(#p2d6c834fe0)" style="fill: none; stroke: #000000; stroke-opacity: 0.5; stroke-linecap: square"/>
   </g>
   <g id="line2d_21">
    <path d="M 92.290909 119.734848 
L 96.349091 119.845224 
L 100.407273 120.16728 
L 104.465455 120.670776 
L 108.523636 121.32396 
L 112.581818 122.092056 
L 116.64 122.947848 
L 120.698182 123.865632 
L 124.756364 124.8318 
L 128.814545 125.832744 
L 132.872727 126.856368 
L 136.930909 127.898136 
L 140.989091 128.952 
L 145.047273 130.014936 
L 149.105455 131.080896 
L 153.163636 132.148368 
L 157.221818 133.217352 
L 161.28 134.283312 
L 165.338182 135.346248 
L 169.396364 136.404648 
L 173.454545 137.457 
L 177.512727 138.503304 
L 181.570909 139.540536 
L 185.629091 140.568696 
L 189.687273 141.586272 
L 193.745455 142.591752 
L 197.803636 143.583624 
L 201.861818 144.560376 
L 205.92 145.520496 
L 209.978182 146.459448 
L 214.036364 147.377232 
L 218.094545 148.2678 
L 222.152727 149.126616 
L 226.210909 149.952168 
L 230.269091 150.736896 
L 234.327273 151.474752 
L 238.385455 152.1612 
L 242.443636 152.787168 
L 246.501818 153.349632 
L 250.56 153.838008 
L 254.618182 154.252296 
L 258.676364 154.586448 
L 262.734545 154.840464 
L 266.792727 155.015856 
L 270.850909 155.11716 
L 274.909091 155.148912 
L 278.967273 155.118672 
L 283.025455 155.034 
L 287.083636 154.900944 
L 291.141818 154.728576 
L 295.2 154.521432 
L 299.258182 154.287072 
L 303.316364 154.030032 
L 307.374545 153.757872 
L 311.432727 153.47664 
L 315.490909 153.190872 
L 319.549091 152.912664 
L 323.607273 152.661672 
L 327.665455 152.47872 
L 331.723636 152.422776 
L 335.781818 152.505936 
L 339.84 152.66016 
L 343.898182 152.83404 
L 347.956364 153.004896 
L 352.014545 153.163656 
L 356.072727 153.305784 
L 360.130909 153.429768 
L 364.189091 153.534096 
L 368.247273 153.621792 
L 372.305455 153.689832 
L 376.363636 153.739728 
L 380.421818 153.772992 
L 384.48 153.791136 
L 388.538182 153.79416 
L 392.596364 153.785088 
L 396.654545 153.762408 
L 400.712727 153.729144 
L 404.770909 153.68832 
L 408.829091 153.638424 
L 412.887273 153.58248 
L 416.945455 153.523512 
L 421.003636 153.46152 
L 425.061818 153.396504 
L 429.12 153.333 
L 433.178182 153.271008 
L 437.236364 153.210528 
L 441.294545 153.153072 
L 445.352727 153.100152 
L 449.410909 153.051768 
L 453.469091 153.009432 
L 457.527273 152.973144 
L 461.585455 152.941392 
L 465.643636 152.9172 
L 469.701818 152.899056 
L 473.76 152.885448 
L 477.818182 152.877888 
L 481.876364 152.873352 
L 485.934545 152.87184 
L 489.992727 152.87184 
L 494.050909 152.873352 
L 498.109091 152.873352 
" clip-path="url(#p2d6c834fe0)" style="fill: none; stroke: #000000; stroke-opacity: 0.5; stroke-linecap: square"/>
   </g>
   <g id="line2d_22">
    <path d="M 92.290909 106.448904 
L 96.349091 106.403544 
L 100.407273 106.40052 
L 104.465455 106.607664 
L 108.523636 106.981128 
L 112.581818 107.490672 
L 116.64 108.1242 
L 120.698182 108.869616 
L 124.756364 109.708776 
L 128.814545 110.623536 
L 132.872727 111.598776 
L 136.930909 112.620888 
L 140.989091 113.677776 
L 145.047273 114.758856 
L 149.105455 115.859592 
L 153.163636 116.970912 
L 157.221818 118.091304 
L 161.28 119.213208 
L 165.338182 120.336624 
L 169.396364 121.458528 
L 173.454545 122.575896 
L 177.512727 123.685704 
L 181.570909 124.787952 
L 185.629091 125.879616 
L 189.687273 126.959184 
L 193.745455 128.028168 
L 197.803636 129.082032 
L 201.861818 130.122288 
L 205.92 131.1444 
L 209.978182 132.151392 
L 214.036364 133.14024 
L 218.094545 134.110944 
L 222.152727 135.061992 
L 226.210909 135.993384 
L 230.269091 136.903608 
L 234.327273 137.792664 
L 238.385455 138.65904 
L 242.443636 139.502736 
L 246.501818 140.325264 
L 250.56 141.1236 
L 254.618182 141.897744 
L 258.676364 142.647696 
L 262.734545 143.373456 
L 266.792727 144.073512 
L 270.850909 144.750888 
L 274.909091 145.401048 
L 278.967273 146.027016 
L 283.025455 146.625768 
L 287.083636 147.200328 
L 291.141818 147.747672 
L 295.2 148.2678 
L 299.258182 148.762224 
L 303.316364 149.22792 
L 307.374545 149.664888 
L 311.432727 150.071616 
L 315.490909 150.443568 
L 319.549091 150.774696 
L 323.607273 151.046856 
L 327.665455 151.222248 
L 331.723636 151.241904 
L 335.781818 151.099776 
L 339.84 150.86088 
L 343.898182 150.58116 
L 347.956364 150.281784 
L 352.014545 149.974848 
L 356.072727 149.664888 
L 360.130909 149.353416 
L 364.189091 149.041944 
L 368.247273 148.730472 
L 372.305455 148.420512 
L 376.363636 148.110552 
L 380.421818 147.800592 
L 384.48 147.48912 
L 388.538182 147.174624 
L 392.596364 146.857104 
L 396.654545 146.535048 
L 400.712727 146.206944 
L 404.770909 145.87128 
L 408.829091 145.528056 
L 412.887273 145.17576 
L 416.945455 144.811368 
L 421.003636 144.436392 
L 425.061818 144.050832 
L 429.12 143.653176 
L 433.178182 143.243424 
L 437.236364 142.823088 
L 441.294545 142.39368 
L 445.352727 141.9552 
L 449.410909 141.510672 
L 453.469091 141.06312 
L 457.527273 140.615568 
L 461.585455 140.174064 
L 465.643636 139.743144 
L 469.701818 139.328856 
L 473.76 138.93876 
L 477.818182 138.581928 
L 481.876364 138.268944 
L 485.934545 138.00888 
L 489.992727 137.815344 
L 494.050909 137.694384 
L 498.109091 137.65356 
" clip-path="url(#p2d6c834fe0)" style="fill: none; stroke: #000000; stroke-opacity: 0.5; stroke-linecap: square"/>
   </g>
   <g id="line2d_23">
    <path d="M 92.290909 105.933312 
L 96.349091 105.936336 
L 100.407273 105.82596 
L 104.465455 105.476688 
L 108.523636 104.992848 
L 112.581818 104.466672 
L 116.64 103.95864 
L 120.698182 103.515624 
L 124.756364 103.154256 
L 128.814545 102.866976 
L 132.872727 102.634128 
L 136.930909 102.433032 
L 140.989091 102.25008 
L 145.047273 102.074688 
L 149.105455 101.899296 
L 153.163636 101.72088 
L 157.221818 101.534904 
L 161.28 101.341368 
L 165.338182 101.140272 
L 169.396364 100.92708 
L 173.454545 100.706328 
L 177.512727 100.47348 
L 181.570909 100.23156 
L 185.629091 99.979056 
L 189.687273 99.715968 
L 193.745455 99.442296 
L 197.803636 99.159552 
L 201.861818 98.866224 
L 205.92 98.562312 
L 209.978182 98.247816 
L 214.036364 97.92576 
L 218.094545 97.591608 
L 222.152727 97.249896 
L 226.210909 96.8976 
L 230.269091 96.537744 
L 234.327273 96.167304 
L 238.385455 95.789304 
L 242.443636 95.402232 
L 246.501818 95.0076 
L 250.56 94.605408 
L 254.618182 94.195656 
L 258.676364 93.778344 
L 262.734545 93.353472 
L 266.792727 92.924064 
L 270.850909 92.487096 
L 274.909091 92.045592 
L 278.967273 91.599552 
L 283.025455 91.150488 
L 287.083636 90.6984 
L 291.141818 90.2448 
L 295.2 89.7912 
L 299.258182 89.342136 
L 303.316364 88.897608 
L 307.374545 88.465176 
L 311.432727 88.050888 
L 315.490909 87.662304 
L 319.549091 87.31908 
L 323.607273 87.040872 
L 327.665455 86.863968 
L 331.723636 86.830704 
L 335.781818 86.992488 
L 339.84 87.384096 
L 343.898182 88.002504 
L 347.956364 88.817472 
L 352.014545 89.785152 
L 356.072727 90.861696 
L 360.130909 92.015352 
L 364.189091 93.22344 
L 368.247273 94.467816 
L 372.305455 95.736384 
L 376.363636 97.021584 
L 380.421818 98.314344 
L 384.48 99.610128 
L 388.538182 100.9044 
L 392.596364 102.192624 
L 396.654545 103.4748 
L 400.712727 104.74488 
L 404.770909 106.002864 
L 408.829091 107.245728 
L 412.887273 108.47196 
L 416.945455 109.680048 
L 421.003636 110.866968 
L 425.061818 112.031208 
L 429.12 113.169744 
L 433.178182 114.282576 
L 437.236364 115.36668 
L 441.294545 116.41752 
L 445.352727 117.436608 
L 449.410909 118.416384 
L 453.469091 119.356848 
L 457.527273 120.253464 
L 461.585455 121.098672 
L 465.643636 121.89096 
L 469.701818 122.622768 
L 473.76 123.285024 
L 477.818182 123.87168 
L 481.876364 124.372152 
L 485.934545 124.777368 
L 489.992727 125.075232 
L 494.050909 125.258184 
L 498.109091 125.320176 
" clip-path="url(#p2d6c834fe0)" style="fill: none; stroke: #000000; stroke-opacity: 0.5; stroke-linecap: square"/>
   </g>
   <g id="patch_3">
    <path d="M 72 384.48 
L 72 51.84 
" style="fill: none; stroke: #000000; stroke-width: 0.8; stroke-linejoin: miter; stroke-linecap: square"/>
   </g>
   <g id="patch_4">
    <path d="M 518.4 384.48 
L 518.4 51.84 
" style="fill: none; stroke: #000000; stroke-width: 0.8; stroke-linejoin: miter; stroke-linecap: square"/>
   </g>
   <g id="patch_5">
    <path d="M 72 384.48 
L 518.4 384.48 
" style="fill: none; stroke: #000000; stroke-width: 0.8; stroke-linejoin: miter; stroke-linecap: square"/>
   </g>
   <g id="patch_6">
    <path d="M 72 51.84 
L 518.4 51.84 
" style="fill: none; stroke: #000000; stroke-width: 0.8; stroke-linejoin: miter; stroke-linecap: square"/>
   </g>
  </g>
 </g>
 <defs>
  <clipPath id="p2d6c834fe0">
   <rect x="72" y="51.84" width="446.4" height="332.64"/>
  </clipPath>
 </defs>
</svg>
