<?xml version="1.0" encoding="utf-8" standalone="no"?>
<!DOCTYPE svg PUBLIC "-//W3C//DTD SVG 1.1//EN"
  "http://www.w3.org/Graphics/SVG/1.1/DTD/svg11.dtd">
<svg xmlns:xlink="http://www.w3.org/1999/xlink" width="576pt" height="432pt" viewBox="0 0 576 432" xmlns="http://www.w3.org/2000/svg" version="1.1">
 <metadata>
  <rdf:RDF xmlns:dc="http://purl.org/dc/elements/1.1/" xmlns:cc="http://creativecommons.org/ns#" xmlns:rdf="http://www.w3.org/1999/02/22-rdf-syntax-ns#">
   <cc:Work>
    <dc:type rdf:resource="http://purl.org/dc/dcmitype/StillImage"/>
    <dc:date>2023-05-03T14:02:18.956910</dc:date>
    <dc:format>image/svg+xml</dc:format>
    <dc:creator>
     <cc:Agent>
      <dc:title>Matplotlib v3.7.1, https://matplotlib.org/</dc:title>
     </cc:Agent>
    </dc:creator>
   </cc:Work>
  </rdf:RDF>
 </metadata>
 <defs>
  <style type="text/css">*{stroke-linejoin: round; stroke-linecap: butt}</style>
 </defs>
 <g id="figure_1">
  <g id="patch_1">
   <path d="M 0 432 
L 576 432 
L 576 0 
L 0 0 
z
" style="fill: #ffffff"/>
  </g>
  <g id="axes_1">
   <g id="patch_2">
    <path d="M 72 384.48 
L 518.4 384.48 
L 518.4 51.84 
L 72 51.84 
z
" style="fill: #ffffff"/>
   </g>
   <g id="matplotlib.axis_1">
    <g id="xtick_1">
     <g id="line2d_1">
      <defs>
       <path id="mf9b894d7f6" d="M 0 0 
L 0 3.5 
" style="stroke: #000000; stroke-width: 0.8"/>
      </defs>
      <g>
       <use xlink:href="#mf9b894d7f6" x="92.290909" y="384.48" style="stroke: #000000; stroke-width: 0.8"/>
      </g>
     </g>
     <g id="text_1">
      <!-- 0.0 -->
      <g transform="translate(84.339347 399.078438) scale(0.1 -0.1)">
       <defs>
        <path id="DejaVuSans-30" d="M 2034 4250 
Q 1547 4250 1301 3770 
Q 1056 3291 1056 2328 
Q 1056 1369 1301 889 
Q 1547 409 2034 409 
Q 2525 409 2770 889 
Q 3016 1369 3016 2328 
Q 3016 3291 2770 3770 
Q 2525 4250 2034 4250 
z
M 2034 4750 
Q 2819 4750 3233 4129 
Q 3647 3509 3647 2328 
Q 3647 1150 3233 529 
Q 2819 -91 2034 -91 
Q 1250 -91 836 529 
Q 422 1150 422 2328 
Q 422 3509 836 4129 
Q 1250 4750 2034 4750 
z
" transform="scale(0.015625)"/>
        <path id="DejaVuSans-2e" d="M 684 794 
L 1344 794 
L 1344 0 
L 684 0 
L 684 794 
z
" transform="scale(0.015625)"/>
       </defs>
       <use xlink:href="#DejaVuSans-30"/>
       <use xlink:href="#DejaVuSans-2e" x="63.623047"/>
       <use xlink:href="#DejaVuSans-30" x="95.410156"/>
      </g>
     </g>
    </g>
    <g id="xtick_2">
     <g id="line2d_2">
      <g>
       <use xlink:href="#mf9b894d7f6" x="173.454545" y="384.48" style="stroke: #000000; stroke-width: 0.8"/>
      </g>
     </g>
     <g id="text_2">
      <!-- 0.2 -->
      <g transform="translate(165.502983 399.078438) scale(0.1 -0.1)">
       <defs>
        <path id="DejaVuSans-32" d="M 1228 531 
L 3431 531 
L 3431 0 
L 469 0 
L 469 531 
Q 828 903 1448 1529 
Q 2069 2156 2228 2338 
Q 2531 2678 2651 2914 
Q 2772 3150 2772 3378 
Q 2772 3750 2511 3984 
Q 2250 4219 1831 4219 
Q 1534 4219 1204 4116 
Q 875 4013 500 3803 
L 500 4441 
Q 881 4594 1212 4672 
Q 1544 4750 1819 4750 
Q 2544 4750 2975 4387 
Q 3406 4025 3406 3419 
Q 3406 3131 3298 2873 
Q 3191 2616 2906 2266 
Q 2828 2175 2409 1742 
Q 1991 1309 1228 531 
z
" transform="scale(0.015625)"/>
       </defs>
       <use xlink:href="#DejaVuSans-30"/>
       <use xlink:href="#DejaVuSans-2e" x="63.623047"/>
       <use xlink:href="#DejaVuSans-32" x="95.410156"/>
      </g>
     </g>
    </g>
    <g id="xtick_3">
     <g id="line2d_3">
      <g>
       <use xlink:href="#mf9b894d7f6" x="254.618182" y="384.48" style="stroke: #000000; stroke-width: 0.8"/>
      </g>
     </g>
     <g id="text_3">
      <!-- 0.4 -->
      <g transform="translate(246.666619 399.078438) scale(0.1 -0.1)">
       <defs>
        <path id="DejaVuSans-34" d="M 2419 4116 
L 825 1625 
L 2419 1625 
L 2419 4116 
z
M 2253 4666 
L 3047 4666 
L 3047 1625 
L 3713 1625 
L 3713 1100 
L 3047 1100 
L 3047 0 
L 2419 0 
L 2419 1100 
L 313 1100 
L 313 1709 
L 2253 4666 
z
" transform="scale(0.015625)"/>
       </defs>
       <use xlink:href="#DejaVuSans-30"/>
       <use xlink:href="#DejaVuSans-2e" x="63.623047"/>
       <use xlink:href="#DejaVuSans-34" x="95.410156"/>
      </g>
     </g>
    </g>
    <g id="xtick_4">
     <g id="line2d_4">
      <g>
       <use xlink:href="#mf9b894d7f6" x="335.781818" y="384.48" style="stroke: #000000; stroke-width: 0.8"/>
      </g>
     </g>
     <g id="text_4">
      <!-- 0.6 -->
      <g transform="translate(327.830256 399.078438) scale(0.1 -0.1)">
       <defs>
        <path id="DejaVuSans-36" d="M 2113 2584 
Q 1688 2584 1439 2293 
Q 1191 2003 1191 1497 
Q 1191 994 1439 701 
Q 1688 409 2113 409 
Q 2538 409 2786 701 
Q 3034 994 3034 1497 
Q 3034 2003 2786 2293 
Q 2538 2584 2113 2584 
z
M 3366 4563 
L 3366 3988 
Q 3128 4100 2886 4159 
Q 2644 4219 2406 4219 
Q 1781 4219 1451 3797 
Q 1122 3375 1075 2522 
Q 1259 2794 1537 2939 
Q 1816 3084 2150 3084 
Q 2853 3084 3261 2657 
Q 3669 2231 3669 1497 
Q 3669 778 3244 343 
Q 2819 -91 2113 -91 
Q 1303 -91 875 529 
Q 447 1150 447 2328 
Q 447 3434 972 4092 
Q 1497 4750 2381 4750 
Q 2619 4750 2861 4703 
Q 3103 4656 3366 4563 
z
" transform="scale(0.015625)"/>
       </defs>
       <use xlink:href="#DejaVuSans-30"/>
       <use xlink:href="#DejaVuSans-2e" x="63.623047"/>
       <use xlink:href="#DejaVuSans-36" x="95.410156"/>
      </g>
     </g>
    </g>
    <g id="xtick_5">
     <g id="line2d_5">
      <g>
       <use xlink:href="#mf9b894d7f6" x="416.945455" y="384.48" style="stroke: #000000; stroke-width: 0.8"/>
      </g>
     </g>
     <g id="text_5">
      <!-- 0.8 -->
      <g transform="translate(408.993892 399.078438) scale(0.1 -0.1)">
       <defs>
        <path id="DejaVuSans-38" d="M 2034 2216 
Q 1584 2216 1326 1975 
Q 1069 1734 1069 1313 
Q 1069 891 1326 650 
Q 1584 409 2034 409 
Q 2484 409 2743 651 
Q 3003 894 3003 1313 
Q 3003 1734 2745 1975 
Q 2488 2216 2034 2216 
z
M 1403 2484 
Q 997 2584 770 2862 
Q 544 3141 544 3541 
Q 544 4100 942 4425 
Q 1341 4750 2034 4750 
Q 2731 4750 3128 4425 
Q 3525 4100 3525 3541 
Q 3525 3141 3298 2862 
Q 3072 2584 2669 2484 
Q 3125 2378 3379 2068 
Q 3634 1759 3634 1313 
Q 3634 634 3220 271 
Q 2806 -91 2034 -91 
Q 1263 -91 848 271 
Q 434 634 434 1313 
Q 434 1759 690 2068 
Q 947 2378 1403 2484 
z
M 1172 3481 
Q 1172 3119 1398 2916 
Q 1625 2713 2034 2713 
Q 2441 2713 2670 2916 
Q 2900 3119 2900 3481 
Q 2900 3844 2670 4047 
Q 2441 4250 2034 4250 
Q 1625 4250 1398 4047 
Q 1172 3844 1172 3481 
z
" transform="scale(0.015625)"/>
       </defs>
       <use xlink:href="#DejaVuSans-30"/>
       <use xlink:href="#DejaVuSans-2e" x="63.623047"/>
       <use xlink:href="#DejaVuSans-38" x="95.410156"/>
      </g>
     </g>
    </g>
    <g id="xtick_6">
     <g id="line2d_6">
      <g>
       <use xlink:href="#mf9b894d7f6" x="498.109091" y="384.48" style="stroke: #000000; stroke-width: 0.8"/>
      </g>
     </g>
     <g id="text_6">
      <!-- 1.0 -->
      <g transform="translate(490.157528 399.078438) scale(0.1 -0.1)">
       <defs>
        <path id="DejaVuSans-31" d="M 794 531 
L 1825 531 
L 1825 4091 
L 703 3866 
L 703 4441 
L 1819 4666 
L 2450 4666 
L 2450 531 
L 3481 531 
L 3481 0 
L 794 0 
L 794 531 
z
" transform="scale(0.015625)"/>
       </defs>
       <use xlink:href="#DejaVuSans-31"/>
       <use xlink:href="#DejaVuSans-2e" x="63.623047"/>
       <use xlink:href="#DejaVuSans-30" x="95.410156"/>
      </g>
     </g>
    </g>
   </g>
   <g id="matplotlib.axis_2">
    <g id="ytick_1">
     <g id="line2d_7">
      <defs>
       <path id="m66f1aa00a6" d="M 0 0 
L -3.5 0 
" style="stroke: #000000; stroke-width: 0.8"/>
      </defs>
      <g>
       <use xlink:href="#m66f1aa00a6" x="72" y="369.36" style="stroke: #000000; stroke-width: 0.8"/>
      </g>
     </g>
     <g id="text_7">
      <!-- −5.0 -->
      <g transform="translate(40.717187 373.159219) scale(0.1 -0.1)">
       <defs>
        <path id="DejaVuSans-2212" d="M 678 2272 
L 4684 2272 
L 4684 1741 
L 678 1741 
L 678 2272 
z
" transform="scale(0.015625)"/>
        <path id="DejaVuSans-35" d="M 691 4666 
L 3169 4666 
L 3169 4134 
L 1269 4134 
L 1269 2991 
Q 1406 3038 1543 3061 
Q 1681 3084 1819 3084 
Q 2600 3084 3056 2656 
Q 3513 2228 3513 1497 
Q 3513 744 3044 326 
Q 2575 -91 1722 -91 
Q 1428 -91 1123 -41 
Q 819 9 494 109 
L 494 744 
Q 775 591 1075 516 
Q 1375 441 1709 441 
Q 2250 441 2565 725 
Q 2881 1009 2881 1497 
Q 2881 1984 2565 2268 
Q 2250 2553 1709 2553 
Q 1456 2553 1204 2497 
Q 953 2441 691 2322 
L 691 4666 
z
" transform="scale(0.015625)"/>
       </defs>
       <use xlink:href="#DejaVuSans-2212"/>
       <use xlink:href="#DejaVuSans-35" x="83.789062"/>
       <use xlink:href="#DejaVuSans-2e" x="147.412109"/>
       <use xlink:href="#DejaVuSans-30" x="179.199219"/>
      </g>
     </g>
    </g>
    <g id="ytick_2">
     <g id="line2d_8">
      <g>
       <use xlink:href="#m66f1aa00a6" x="72" y="331.56" style="stroke: #000000; stroke-width: 0.8"/>
      </g>
     </g>
     <g id="text_8">
      <!-- −2.5 -->
      <g transform="translate(40.717187 335.359219) scale(0.1 -0.1)">
       <use xlink:href="#DejaVuSans-2212"/>
       <use xlink:href="#DejaVuSans-32" x="83.789062"/>
       <use xlink:href="#DejaVuSans-2e" x="147.412109"/>
       <use xlink:href="#DejaVuSans-35" x="179.199219"/>
      </g>
     </g>
    </g>
    <g id="ytick_3">
     <g id="line2d_9">
      <g>
       <use xlink:href="#m66f1aa00a6" x="72" y="293.76" style="stroke: #000000; stroke-width: 0.8"/>
      </g>
     </g>
     <g id="text_9">
      <!-- 0.0 -->
      <g transform="translate(49.096875 297.559219) scale(0.1 -0.1)">
       <use xlink:href="#DejaVuSans-30"/>
       <use xlink:href="#DejaVuSans-2e" x="63.623047"/>
       <use xlink:href="#DejaVuSans-30" x="95.410156"/>
      </g>
     </g>
    </g>
    <g id="ytick_4">
     <g id="line2d_10">
      <g>
       <use xlink:href="#m66f1aa00a6" x="72" y="255.96" style="stroke: #000000; stroke-width: 0.8"/>
      </g>
     </g>
     <g id="text_10">
      <!-- 2.5 -->
      <g transform="translate(49.096875 259.759219) scale(0.1 -0.1)">
       <use xlink:href="#DejaVuSans-32"/>
       <use xlink:href="#DejaVuSans-2e" x="63.623047"/>
       <use xlink:href="#DejaVuSans-35" x="95.410156"/>
      </g>
     </g>
    </g>
    <g id="ytick_5">
     <g id="line2d_11">
      <g>
       <use xlink:href="#m66f1aa00a6" x="72" y="218.16" style="stroke: #000000; stroke-width: 0.8"/>
      </g>
     </g>
     <g id="text_11">
      <!-- 5.0 -->
      <g transform="translate(49.096875 221.959219) scale(0.1 -0.1)">
       <use xlink:href="#DejaVuSans-35"/>
       <use xlink:href="#DejaVuSans-2e" x="63.623047"/>
       <use xlink:href="#DejaVuSans-30" x="95.410156"/>
      </g>
     </g>
    </g>
    <g id="ytick_6">
     <g id="line2d_12">
      <g>
       <use xlink:href="#m66f1aa00a6" x="72" y="180.36" style="stroke: #000000; stroke-width: 0.8"/>
      </g>
     </g>
     <g id="text_12">
      <!-- 7.5 -->
      <g transform="translate(49.096875 184.159219) scale(0.1 -0.1)">
       <defs>
        <path id="DejaVuSans-37" d="M 525 4666 
L 3525 4666 
L 3525 4397 
L 1831 0 
L 1172 0 
L 2766 4134 
L 525 4134 
L 525 4666 
z
" transform="scale(0.015625)"/>
       </defs>
       <use xlink:href="#DejaVuSans-37"/>
       <use xlink:href="#DejaVuSans-2e" x="63.623047"/>
       <use xlink:href="#DejaVuSans-35" x="95.410156"/>
      </g>
     </g>
    </g>
    <g id="ytick_7">
     <g id="line2d_13">
      <g>
       <use xlink:href="#m66f1aa00a6" x="72" y="142.56" style="stroke: #000000; stroke-width: 0.8"/>
      </g>
     </g>
     <g id="text_13">
      <!-- 10.0 -->
      <g transform="translate(42.734375 146.359219) scale(0.1 -0.1)">
       <use xlink:href="#DejaVuSans-31"/>
       <use xlink:href="#DejaVuSans-30" x="63.623047"/>
       <use xlink:href="#DejaVuSans-2e" x="127.246094"/>
       <use xlink:href="#DejaVuSans-30" x="159.033203"/>
      </g>
     </g>
    </g>
    <g id="ytick_8">
     <g id="line2d_14">
      <g>
       <use xlink:href="#m66f1aa00a6" x="72" y="104.76" style="stroke: #000000; stroke-width: 0.8"/>
      </g>
     </g>
     <g id="text_14">
      <!-- 12.5 -->
      <g transform="translate(42.734375 108.559219) scale(0.1 -0.1)">
       <use xlink:href="#DejaVuSans-31"/>
       <use xlink:href="#DejaVuSans-32" x="63.623047"/>
       <use xlink:href="#DejaVuSans-2e" x="127.246094"/>
       <use xlink:href="#DejaVuSans-35" x="159.033203"/>
      </g>
     </g>
    </g>
    <g id="ytick_9">
     <g id="line2d_15">
      <g>
       <use xlink:href="#m66f1aa00a6" x="72" y="66.96" style="stroke: #000000; stroke-width: 0.8"/>
      </g>
     </g>
     <g id="text_15">
      <!-- 15.0 -->
      <g transform="translate(42.734375 70.759219) scale(0.1 -0.1)">
       <use xlink:href="#DejaVuSans-31"/>
       <use xlink:href="#DejaVuSans-35" x="63.623047"/>
       <use xlink:href="#DejaVuSans-2e" x="127.246094"/>
       <use xlink:href="#DejaVuSans-30" x="159.033203"/>
      </g>
     </g>
    </g>
   </g>
   <g id="line2d_16">
    <path d="M 92.290909 326.924208 
L 96.349091 326.945376 
L 100.407273 327.007368 
L 104.465455 327.110184 
L 108.523636 327.253824 
L 112.581818 327.435264 
L 116.64 327.654504 
L 120.698182 327.907008 
L 124.756364 328.194288 
L 128.814545 328.51332 
L 132.872727 328.859568 
L 136.930909 329.233032 
L 140.989091 329.6322 
L 145.047273 330.054048 
L 149.105455 330.497064 
L 153.163636 330.959736 
L 157.221818 331.43904 
L 161.28 331.934976 
L 165.338182 332.44452 
L 169.396364 332.967672 
L 173.454545 333.501408 
L 177.512727 334.04724 
L 181.570909 334.600632 
L 185.629091 335.161584 
L 189.687273 335.730096 
L 193.745455 336.304656 
L 197.803636 336.883752 
L 201.861818 337.467384 
L 205.92 338.05404 
L 209.978182 338.64372 
L 214.036364 339.234912 
L 218.094545 339.826104 
L 222.152727 340.418808 
L 226.210909 341.011512 
L 230.269091 341.602704 
L 234.327273 342.192384 
L 238.385455 342.780552 
L 242.443636 343.365696 
L 246.501818 343.947816 
L 250.56 344.526912 
L 254.618182 345.102984 
L 258.676364 345.67452 
L 262.734545 346.24152 
L 266.792727 346.802472 
L 270.850909 347.358888 
L 274.909091 347.910768 
L 278.967273 348.455088 
L 283.025455 348.994872 
L 287.083636 349.527096 
L 291.141818 350.05176 
L 295.2 350.570376 
L 299.258182 351.081432 
L 303.316364 351.584928 
L 307.374545 352.080864 
L 311.432727 352.56924 
L 315.490909 353.048544 
L 319.549091 353.520288 
L 323.607273 353.984472 
L 327.665455 354.438072 
L 331.723636 354.884112 
L 335.781818 355.319568 
L 339.84 355.747464 
L 343.898182 356.164776 
L 347.956364 356.574528 
L 352.014545 356.972184 
L 356.072727 357.36228 
L 360.130909 357.741792 
L 364.189091 358.11072 
L 368.247273 358.470576 
L 372.305455 358.819848 
L 376.363636 359.160048 
L 380.421818 359.488152 
L 384.48 359.807184 
L 388.538182 360.11412 
L 392.596364 360.411984 
L 396.654545 360.699264 
L 400.712727 360.974448 
L 404.770909 361.24056 
L 408.829091 361.494576 
L 412.887273 361.738008 
L 416.945455 361.970856 
L 421.003636 362.191608 
L 425.061818 362.401776 
L 429.12 362.60136 
L 433.178182 362.788848 
L 437.236364 362.967264 
L 441.294545 363.132072 
L 445.352727 363.286296 
L 449.410909 363.429936 
L 453.469091 363.56148 
L 457.527273 363.68244 
L 461.585455 363.791304 
L 465.643636 363.888072 
L 469.701818 363.974256 
L 473.76 364.049856 
L 477.818182 364.11336 
L 481.876364 364.164768 
L 485.934545 364.20408 
L 489.992727 364.232808 
L 494.050909 364.250952 
L 498.109091 364.257 
" clip-path="url(#p25fd54a1e4)" style="fill: none; stroke: #000000; stroke-opacity: 0.5; stroke-linecap: square"/>
   </g>
   <g id="line2d_17">
    <path d="M 92.290909 309.332088 
L 96.349091 309.31848 
L 100.407273 309.279168 
L 104.465455 309.21264 
L 108.523636 309.120408 
L 112.581818 309.002472 
L 116.64 308.863368 
L 120.698182 308.701584 
L 124.756364 308.518632 
L 128.814545 308.316024 
L 132.872727 308.095272 
L 136.930909 307.857888 
L 140.989091 307.606896 
L 145.047273 307.339272 
L 149.105455 307.059552 
L 153.163636 306.766224 
L 157.221818 306.462312 
L 161.28 306.147816 
L 165.338182 305.821224 
L 169.396364 305.48556 
L 173.454545 305.139312 
L 177.512727 304.785504 
L 181.570909 304.421112 
L 185.629091 304.047648 
L 189.687273 303.666624 
L 193.745455 303.276528 
L 197.803636 302.87736 
L 201.861818 302.470632 
L 205.92 302.054832 
L 209.978182 301.62996 
L 214.036364 301.197528 
L 218.094545 300.757536 
L 222.152727 300.30696 
L 226.210909 299.848824 
L 230.269091 299.383128 
L 234.327273 298.906848 
L 238.385455 298.42452 
L 242.443636 297.931608 
L 246.501818 297.431136 
L 250.56 296.921592 
L 254.618182 296.402976 
L 258.676364 295.8768 
L 262.734545 295.341552 
L 266.792727 294.797232 
L 270.850909 294.245352 
L 274.909091 293.6844 
L 278.967273 293.114376 
L 283.025455 292.536792 
L 287.083636 291.950136 
L 291.141818 291.35592 
L 295.2 290.752632 
L 299.258182 290.141784 
L 303.316364 289.523376 
L 307.374545 288.895896 
L 311.432727 288.260856 
L 315.490909 287.619768 
L 319.549091 286.969608 
L 323.607273 286.311888 
L 327.665455 285.64812 
L 331.723636 284.978304 
L 335.781818 284.299416 
L 339.84 283.615992 
L 343.898182 282.92652 
L 347.956364 282.229488 
L 352.014545 281.52792 
L 356.072727 280.821816 
L 360.130909 280.111176 
L 364.189091 279.394488 
L 368.247273 278.674776 
L 372.305455 277.95204 
L 376.363636 277.22628 
L 380.421818 276.497496 
L 384.48 275.7672 
L 388.538182 275.035392 
L 392.596364 274.303584 
L 396.654545 273.573288 
L 400.712727 272.842992 
L 404.770909 272.11572 
L 408.829091 271.392984 
L 412.887273 270.673272 
L 416.945455 269.959608 
L 421.003636 269.255016 
L 425.061818 268.557984 
L 429.12 267.871536 
L 433.178182 267.198696 
L 437.236364 266.540976 
L 441.294545 265.899888 
L 445.352727 265.279968 
L 449.410909 264.682728 
L 453.469091 264.111192 
L 457.527273 263.569896 
L 461.585455 263.061864 
L 465.643636 262.591632 
L 469.701818 262.162224 
L 473.76 261.779688 
L 477.818182 261.445536 
L 481.876364 261.167328 
L 485.934545 260.945064 
L 489.992727 260.784792 
L 494.050909 260.688024 
L 498.109091 260.65476 
" clip-path="url(#p25fd54a1e4)" style="fill: none; stroke: #000000; stroke-opacity: 0.5; stroke-linecap: square"/>
   </g>
   <g id="line2d_18">
    <path d="M 92.290909 265.119696 
L 96.349091 265.11516 
L 100.407273 265.104576 
L 104.465455 265.086432 
L 108.523636 265.060728 
L 112.581818 265.027464 
L 116.64 264.98664 
L 120.698182 264.936744 
L 124.756364 264.877776 
L 128.814545 264.811248 
L 132.872727 264.732624 
L 136.930909 264.644928 
L 140.989091 264.546648 
L 145.047273 264.437784 
L 149.105455 264.318336 
L 153.163636 264.186792 
L 157.221818 264.043152 
L 161.28 263.888928 
L 165.338182 263.722608 
L 169.396364 263.544192 
L 173.454545 263.35368 
L 177.512727 263.151072 
L 181.570909 262.936368 
L 185.629091 262.709568 
L 189.687273 262.470672 
L 193.745455 262.21968 
L 197.803636 261.956592 
L 201.861818 261.681408 
L 205.92 261.394128 
L 209.978182 261.096264 
L 214.036364 260.786304 
L 218.094545 260.464248 
L 222.152727 260.130096 
L 226.210909 259.786872 
L 230.269091 259.431552 
L 234.327273 259.064136 
L 238.385455 258.687648 
L 242.443636 258.299064 
L 246.501818 257.899896 
L 250.56 257.491656 
L 254.618182 257.072832 
L 258.676364 256.644936 
L 262.734545 256.204944 
L 266.792727 255.757392 
L 270.850909 255.300768 
L 274.909091 254.83356 
L 278.967273 254.358792 
L 283.025455 253.874952 
L 287.083636 253.38204 
L 291.141818 252.881568 
L 295.2 252.373536 
L 299.258182 251.857944 
L 303.316364 251.334792 
L 307.374545 250.805592 
L 311.432727 250.268832 
L 315.490909 249.726024 
L 319.549091 249.17868 
L 323.607273 248.625288 
L 327.665455 248.065848 
L 331.723636 247.503384 
L 335.781818 246.936384 
L 339.84 246.36636 
L 343.898182 245.7918 
L 347.956364 245.215728 
L 352.014545 244.638144 
L 356.072727 244.059048 
L 360.130909 243.479952 
L 364.189091 242.900856 
L 368.247273 242.323272 
L 372.305455 241.7472 
L 376.363636 241.17264 
L 380.421818 240.602616 
L 384.48 240.037128 
L 388.538182 239.4792 
L 392.596364 238.925808 
L 396.654545 238.383 
L 400.712727 237.849264 
L 404.770909 237.327624 
L 408.829091 236.819592 
L 412.887273 236.328192 
L 416.945455 235.856448 
L 421.003636 235.407384 
L 425.061818 234.98856 
L 429.12 234.607536 
L 433.178182 234.273384 
L 437.236364 234.00576 
L 441.294545 233.827344 
L 445.352727 233.757792 
L 449.410909 233.806176 
L 453.469091 233.957376 
L 457.527273 234.182664 
L 461.585455 234.447264 
L 465.643636 234.728496 
L 469.701818 235.006704 
L 473.76 235.26828 
L 477.818182 235.505664 
L 481.876364 235.709784 
L 485.934545 235.874592 
L 489.992727 235.995552 
L 494.050909 236.068128 
L 498.109091 236.093832 
" clip-path="url(#p25fd54a1e4)" style="fill: none; stroke: #000000; stroke-opacity: 0.5; stroke-linecap: square"/>
   </g>
   <g id="line2d_19">
    <path d="M 92.290909 252.128592 
L 96.349091 252.105912 
L 100.407273 252.037872 
L 104.465455 251.924472 
L 108.523636 251.765712 
L 112.581818 251.563104 
L 116.64 251.31816 
L 120.698182 251.03088 
L 124.756364 250.701264 
L 128.814545 250.333848 
L 132.872727 249.928632 
L 136.930909 249.485616 
L 140.989091 249.007824 
L 145.047273 248.496768 
L 149.105455 247.95396 
L 153.163636 247.382424 
L 157.221818 246.780648 
L 161.28 246.153168 
L 165.338182 245.499984 
L 169.396364 244.82412 
L 173.454545 244.127088 
L 177.512727 243.411912 
L 181.570909 242.67708 
L 185.629091 241.927128 
L 189.687273 241.163568 
L 193.745455 240.387912 
L 197.803636 239.603184 
L 201.861818 238.809384 
L 205.92 238.009536 
L 209.978182 237.206664 
L 214.036364 236.40228 
L 218.094545 235.597896 
L 222.152727 234.795024 
L 226.210909 233.9982 
L 230.269091 233.208936 
L 234.327273 232.430256 
L 238.385455 231.66216 
L 242.443636 230.909184 
L 246.501818 230.17284 
L 250.56 229.456152 
L 254.618182 228.762144 
L 258.676364 228.092328 
L 262.734545 227.448216 
L 266.792727 226.834344 
L 270.850909 226.252224 
L 274.909091 225.701856 
L 278.967273 225.187776 
L 283.025455 224.709984 
L 287.083636 224.269992 
L 291.141818 223.870824 
L 295.2 223.510968 
L 299.258182 223.193448 
L 303.316364 222.916752 
L 307.374545 222.682392 
L 311.432727 222.488856 
L 315.490909 222.337656 
L 319.549091 222.225768 
L 323.607273 222.154704 
L 327.665455 222.122952 
L 331.723636 222.127488 
L 335.781818 222.169824 
L 339.84 222.246936 
L 343.898182 222.357312 
L 347.956364 222.49944 
L 352.014545 222.671808 
L 356.072727 222.872904 
L 360.130909 223.102728 
L 364.189091 223.356744 
L 368.247273 223.636464 
L 372.305455 223.938864 
L 376.363636 224.262432 
L 380.421818 224.605656 
L 384.48 224.965512 
L 388.538182 225.343512 
L 392.596364 225.736632 
L 396.654545 226.141848 
L 400.712727 226.55916 
L 404.770909 226.985544 
L 408.829091 227.417976 
L 412.887273 227.854944 
L 416.945455 228.291912 
L 421.003636 228.724344 
L 425.061818 229.14468 
L 429.12 229.546872 
L 433.178182 229.917312 
L 437.236364 230.237856 
L 441.294545 230.485824 
L 445.352727 230.635512 
L 449.410909 230.67936 
L 453.469091 230.627952 
L 457.527273 230.511528 
L 461.585455 230.358816 
L 465.643636 230.190984 
L 469.701818 230.024664 
L 473.76 229.867416 
L 477.818182 229.728312 
L 481.876364 229.608864 
L 485.934545 229.513608 
L 489.992727 229.445568 
L 494.050909 229.403232 
L 498.109091 229.389624 
" clip-path="url(#p25fd54a1e4)" style="fill: none; stroke: #000000; stroke-opacity: 0.5; stroke-linecap: square"/>
   </g>
   <g id="line2d_20">
    <path d="M 92.290909 150.540336 
L 96.349091 150.537312 
L 100.407273 150.526728 
L 104.465455 150.510096 
L 108.523636 150.487416 
L 112.581818 150.4602 
L 116.64 150.42996 
L 120.698182 150.39972 
L 124.756364 150.374016 
L 128.814545 150.360408 
L 132.872727 150.36948 
L 136.930909 150.426936 
L 140.989091 150.56604 
L 145.047273 150.839712 
L 149.105455 151.285752 
L 153.163636 151.895088 
L 157.221818 152.6148 
L 161.28 153.399528 
L 165.338182 154.212984 
L 169.396364 155.038536 
L 173.454545 155.862576 
L 177.512727 156.679056 
L 181.570909 157.48344 
L 185.629091 158.271192 
L 189.687273 159.039288 
L 193.745455 159.787728 
L 197.803636 160.513488 
L 201.861818 161.215056 
L 205.92 161.889408 
L 209.978182 162.538056 
L 214.036364 163.156464 
L 218.094545 163.746144 
L 222.152727 164.30256 
L 226.210909 164.827224 
L 230.269091 165.3156 
L 234.327273 165.7692 
L 238.385455 166.183488 
L 242.443636 166.558464 
L 246.501818 166.892616 
L 250.56 167.184432 
L 254.618182 167.430888 
L 258.676364 167.630472 
L 262.734545 167.784696 
L 266.792727 167.889024 
L 270.850909 167.941944 
L 274.909091 167.944968 
L 278.967273 167.896584 
L 283.025455 167.79528 
L 287.083636 167.639544 
L 291.141818 167.4324 
L 295.2 167.172336 
L 299.258182 166.859352 
L 303.316364 166.497984 
L 307.374545 166.08672 
L 311.432727 165.630096 
L 315.490909 165.131136 
L 319.549091 164.594376 
L 323.607273 164.027376 
L 327.665455 163.437696 
L 331.723636 162.840456 
L 335.781818 162.2538 
L 339.84 161.710992 
L 343.898182 161.260416 
L 347.956364 160.97616 
L 352.014545 160.939872 
L 356.072727 161.193888 
L 360.130909 161.706456 
L 364.189091 162.401976 
L 368.247273 163.207872 
L 372.305455 164.072736 
L 376.363636 164.966328 
L 380.421818 165.868992 
L 384.48 166.768632 
L 388.538182 167.656176 
L 392.596364 168.5286 
L 396.654545 169.378344 
L 400.712727 170.205408 
L 404.770909 171.006768 
L 408.829091 171.7794 
L 412.887273 172.521792 
L 416.945455 173.235456 
L 421.003636 173.915856 
L 425.061818 174.566016 
L 429.12 175.1814 
L 433.178182 175.76352 
L 437.236364 176.310864 
L 441.294545 176.823432 
L 445.352727 177.301224 
L 449.410909 177.74424 
L 453.469091 178.15248 
L 457.527273 178.524432 
L 461.585455 178.860096 
L 465.643636 179.162496 
L 469.701818 179.427096 
L 473.76 179.65692 
L 477.818182 179.851968 
L 481.876364 180.010728 
L 485.934545 180.134712 
L 489.992727 180.222408 
L 494.050909 180.275328 
L 498.109091 180.293472 
" clip-path="url(#p25fd54a1e4)" style="fill: none; stroke: #000000; stroke-opacity: 0.5; stroke-linecap: square"/>
   </g>
   <g id="line2d_21">
    <path d="M 92.290909 137.249856 
L 96.349091 137.447928 
L 100.407273 137.980152 
L 104.465455 138.730104 
L 108.523636 139.602528 
L 112.581818 140.539968 
L 116.64 141.50916 
L 120.698182 142.487424 
L 124.756364 143.458128 
L 128.814545 144.407664 
L 132.872727 145.3194 
L 136.930909 146.16612 
L 140.989091 146.910024 
L 145.047273 147.49668 
L 149.105455 147.888288 
L 153.163636 148.09392 
L 157.221818 148.160448 
L 161.28 148.136256 
L 165.338182 148.053096 
L 169.396364 147.932136 
L 173.454545 147.782448 
L 177.512727 147.61008 
L 181.570909 147.419568 
L 185.629091 147.212424 
L 189.687273 146.993184 
L 193.745455 146.760336 
L 197.803636 146.515392 
L 201.861818 146.261376 
L 205.92 145.996776 
L 209.978182 145.723104 
L 214.036364 145.438848 
L 218.094545 145.147032 
L 222.152727 144.846144 
L 226.210909 144.539208 
L 230.269091 144.2232 
L 234.327273 143.899632 
L 238.385455 143.570016 
L 242.443636 143.234352 
L 246.501818 142.891128 
L 250.56 142.543368 
L 254.618182 142.18956 
L 258.676364 141.831216 
L 262.734545 141.468336 
L 266.792727 141.102432 
L 270.850909 140.73048 
L 274.909091 140.357016 
L 278.967273 139.980528 
L 283.025455 139.602528 
L 287.083636 139.22604 
L 291.141818 138.861648 
L 295.2 138.698352 
L 299.258182 139.867128 
L 303.316364 141.230952 
L 307.374545 142.588728 
L 311.432727 143.926848 
L 315.490909 145.240776 
L 319.549091 146.525976 
L 323.607273 147.777912 
L 327.665455 148.986 
L 331.723636 150.139656 
L 335.781818 151.220736 
L 339.84 152.199 
L 343.898182 153.026064 
L 347.956364 153.630864 
L 352.014545 153.933264 
L 356.072727 153.893952 
L 360.130909 153.546192 
L 364.189091 152.968608 
L 368.247273 152.238312 
L 372.305455 151.406712 
L 376.363636 150.510096 
L 380.421818 149.572656 
L 384.48 148.614048 
L 388.538182 147.650904 
L 392.596364 146.70288 
L 396.654545 145.797192 
L 400.712727 144.976176 
L 404.770909 144.301824 
L 408.829091 143.870904 
L 412.887273 143.766576 
L 416.945455 143.993376 
L 421.003636 144.462096 
L 425.061818 145.072944 
L 429.12 145.751832 
L 433.178182 146.456424 
L 437.236364 147.161016 
L 441.294545 147.850488 
L 445.352727 148.514256 
L 449.410909 149.146272 
L 453.469091 149.740488 
L 457.527273 150.29388 
L 461.585455 150.803424 
L 465.643636 151.264584 
L 469.701818 151.675848 
L 473.76 152.037216 
L 477.818182 152.344152 
L 481.876364 152.598168 
L 485.934545 152.79624 
L 489.992727 152.93988 
L 494.050909 153.024552 
L 498.109091 153.05328 
" clip-path="url(#p25fd54a1e4)" style="fill: none; stroke: #000000; stroke-opacity: 0.5; stroke-linecap: square"/>
   </g>
   <g id="line2d_22">
    <path d="M 92.290909 130.535064 
L 96.349091 130.32792 
L 100.407273 129.762432 
L 104.465455 128.961072 
L 108.523636 128.01456 
L 112.581818 126.9864 
L 116.64 125.909856 
L 120.698182 124.810632 
L 124.756364 123.70536 
L 128.814545 122.615208 
L 132.872727 121.555296 
L 136.930909 120.549816 
L 140.989091 119.621448 
L 145.047273 118.789848 
L 149.105455 118.062576 
L 153.163636 117.436608 
L 157.221818 116.896824 
L 161.28 116.422056 
L 165.338182 115.992648 
L 169.396364 115.59348 
L 173.454545 115.21548 
L 177.512727 114.849576 
L 181.570909 114.48972 
L 185.629091 114.132888 
L 189.687273 113.77908 
L 193.745455 113.428296 
L 197.803636 113.080536 
L 201.861818 112.74336 
L 205.92 112.42584 
L 209.978182 112.158216 
L 214.036364 111.99492 
L 218.094545 112.067496 
L 222.152727 112.575528 
L 226.210909 113.55228 
L 230.269091 114.817824 
L 234.327273 116.216424 
L 238.385455 117.677016 
L 242.443636 119.167848 
L 246.501818 120.672288 
L 250.56 122.184288 
L 254.618182 123.696288 
L 258.676364 125.206776 
L 262.734545 126.711216 
L 266.792727 128.21112 
L 270.850909 129.701952 
L 274.909091 131.1822 
L 278.967273 132.653376 
L 283.025455 134.110944 
L 287.083636 135.55188 
L 291.141818 136.967112 
L 295.2 138.163104 
L 299.258182 138.010392 
L 303.316364 137.641464 
L 307.374545 137.261952 
L 311.432727 136.879416 
L 315.490909 136.49688 
L 319.549091 136.114344 
L 323.607273 135.736344 
L 327.665455 135.359856 
L 331.723636 134.987904 
L 335.781818 134.620488 
L 339.84 134.260632 
L 343.898182 133.908336 
L 347.956364 133.565112 
L 352.014545 133.233984 
L 356.072727 132.921 
L 360.130909 132.630696 
L 364.189091 132.37668 
L 368.247273 132.18012 
L 372.305455 132.084864 
L 376.363636 132.166512 
L 380.421818 132.518808 
L 384.48 133.150824 
L 388.538182 133.96428 
L 392.596364 134.842752 
L 396.654545 135.707616 
L 400.712727 136.487808 
L 404.770909 137.10924 
L 408.829091 137.47212 
L 412.887273 137.490264 
L 416.945455 137.16216 
L 421.003636 136.577016 
L 425.061818 135.842184 
L 429.12 135.034776 
L 433.178182 134.203176 
L 437.236364 133.380648 
L 441.294545 132.592896 
L 445.352727 131.85504 
L 449.410909 131.180688 
L 453.469091 130.580424 
L 457.527273 130.057272 
L 461.585455 129.60972 
L 465.643636 129.234744 
L 469.701818 128.923272 
L 473.76 128.669256 
L 477.818182 128.466648 
L 481.876364 128.307888 
L 485.934545 128.18844 
L 489.992727 128.106792 
L 494.050909 128.056896 
L 498.109091 128.041776 
" clip-path="url(#p25fd54a1e4)" style="fill: none; stroke: #000000; stroke-opacity: 0.5; stroke-linecap: square"/>
   </g>
   <g id="line2d_23">
    <path d="M 92.290909 116.109072 
L 96.349091 116.096976 
L 100.407273 116.059176 
L 104.465455 115.997184 
L 108.523636 115.907976 
L 112.581818 115.79004 
L 116.64 115.637328 
L 120.698182 115.448328 
L 124.756364 115.212456 
L 128.814545 114.92064 
L 132.872727 114.55776 
L 136.930909 114.105672 
L 140.989091 113.546232 
L 145.047273 112.858272 
L 149.105455 112.037256 
L 153.163636 111.086208 
L 157.221818 110.023272 
L 161.28 108.871128 
L 165.338182 107.649432 
L 169.396364 106.374816 
L 173.454545 105.057864 
L 177.512727 103.712184 
L 181.570909 102.34836 
L 185.629091 100.984536 
L 189.687273 99.7326 
L 193.745455 99.77796 
L 197.803636 101.152368 
L 201.861818 102.641688 
L 205.92 104.121936 
L 209.978182 105.552288 
L 214.036364 106.866216 
L 218.094545 107.932176 
L 222.152727 108.550584 
L 226.210909 108.682128 
L 230.269091 108.511272 
L 234.327273 108.189216 
L 238.385455 107.787024 
L 242.443636 107.334936 
L 246.501818 106.851096 
L 250.56 106.338528 
L 254.618182 105.806304 
L 258.676364 105.254424 
L 262.734545 104.687424 
L 266.792727 104.105304 
L 270.850909 103.511088 
L 274.909091 102.906288 
L 278.967273 102.298464 
L 283.025455 101.695176 
L 287.083636 101.126664 
L 291.141818 100.682136 
L 295.2 100.72296 
L 299.258182 101.680056 
L 303.316364 103.098312 
L 307.374545 104.632992 
L 311.432727 106.199424 
L 315.490909 107.76888 
L 319.549091 109.330776 
L 323.607273 110.880576 
L 327.665455 112.416768 
L 331.723636 113.934816 
L 335.781818 115.431696 
L 339.84 116.90892 
L 343.898182 118.361952 
L 347.956364 119.787768 
L 352.014545 121.183344 
L 356.072727 122.544144 
L 360.130909 123.861096 
L 364.189091 125.120592 
L 368.247273 126.299952 
L 372.305455 127.352304 
L 376.363636 128.200536 
L 380.421818 128.746368 
L 384.48 128.973168 
L 388.538182 128.973168 
L 392.596364 128.847672 
L 396.654545 128.655648 
L 400.712727 128.427336 
L 404.770909 128.176344 
L 408.829091 127.913256 
L 412.887273 127.639584 
L 416.945455 127.35684 
L 421.003636 127.063512 
L 425.061818 126.7596 
L 429.12 126.440568 
L 433.178182 126.103392 
L 437.236364 125.743536 
L 441.294545 125.354952 
L 445.352727 124.934616 
L 449.410909 124.477992 
L 453.469091 123.988104 
L 457.527273 123.467976 
L 461.585455 122.929704 
L 465.643636 122.386896 
L 469.701818 121.856184 
L 473.76 121.352688 
L 477.818182 120.89304 
L 481.876364 120.493872 
L 485.934545 120.168792 
L 489.992727 119.928384 
L 494.050909 119.780208 
L 498.109091 119.730312 
" clip-path="url(#p25fd54a1e4)" style="fill: none; stroke: #000000; stroke-opacity: 0.5; stroke-linecap: square"/>
   </g>
   <g id="patch_3">
    <path d="M 72 384.48 
L 72 51.84 
" style="fill: none; stroke: #000000; stroke-width: 0.8; stroke-linejoin: miter; stroke-linecap: square"/>
   </g>
   <g id="patch_4">
    <path d="M 518.4 384.48 
L 518.4 51.84 
" style="fill: none; stroke: #000000; stroke-width: 0.8; stroke-linejoin: miter; stroke-linecap: square"/>
   </g>
   <g id="patch_5">
    <path d="M 72 384.48 
L 518.4 384.48 
" style="fill: none; stroke: #000000; stroke-width: 0.8; stroke-linejoin: miter; stroke-linecap: square"/>
   </g>
   <g id="patch_6">
    <path d="M 72 51.84 
L 518.4 51.84 
" style="fill: none; stroke: #000000; stroke-width: 0.8; stroke-linejoin: miter; stroke-linecap: square"/>
   </g>
  </g>
 </g>
 <defs>
  <clipPath id="p25fd54a1e4">
   <rect x="72" y="51.84" width="446.4" height="332.64"/>
  </clipPath>
 </defs>
</svg>
