<?xml version="1.0" encoding="utf-8" standalone="no"?>
<!DOCTYPE svg PUBLIC "-//W3C//DTD SVG 1.1//EN"
  "http://www.w3.org/Graphics/SVG/1.1/DTD/svg11.dtd">
<svg xmlns:xlink="http://www.w3.org/1999/xlink" width="576pt" height="432pt" viewBox="0 0 576 432" xmlns="http://www.w3.org/2000/svg" version="1.1">
 <metadata>
  <rdf:RDF xmlns:dc="http://purl.org/dc/elements/1.1/" xmlns:cc="http://creativecommons.org/ns#" xmlns:rdf="http://www.w3.org/1999/02/22-rdf-syntax-ns#">
   <cc:Work>
    <dc:type rdf:resource="http://purl.org/dc/dcmitype/StillImage"/>
    <dc:date>2023-05-03T16:48:11.652670</dc:date>
    <dc:format>image/svg+xml</dc:format>
    <dc:creator>
     <cc:Agent>
      <dc:title>Matplotlib v3.7.1, https://matplotlib.org/</dc:title>
     </cc:Agent>
    </dc:creator>
   </cc:Work>
  </rdf:RDF>
 </metadata>
 <defs>
  <style type="text/css">*{stroke-linejoin: round; stroke-linecap: butt}</style>
 </defs>
 <g id="figure_1">
  <g id="patch_1">
   <path d="M 0 432 
L 576 432 
L 576 0 
L 0 0 
z
" style="fill: #ffffff"/>
  </g>
  <g id="axes_1">
   <g id="patch_2">
    <path d="M 72 384.48 
L 518.4 384.48 
L 518.4 51.84 
L 72 51.84 
z
" style="fill: #ffffff"/>
   </g>
   <g id="matplotlib.axis_1">
    <g id="xtick_1">
     <g id="line2d_1">
      <defs>
       <path id="m4073bb6288" d="M 0 0 
L 0 3.5 
" style="stroke: #000000; stroke-width: 0.8"/>
      </defs>
      <g>
       <use xlink:href="#m4073bb6288" x="92.290909" y="384.48" style="stroke: #000000; stroke-width: 0.8"/>
      </g>
     </g>
     <g id="text_1">
      <!-- 0.0 -->
      <g transform="translate(84.339347 399.078438) scale(0.1 -0.1)">
       <defs>
        <path id="DejaVuSans-30" d="M 2034 4250 
Q 1547 4250 1301 3770 
Q 1056 3291 1056 2328 
Q 1056 1369 1301 889 
Q 1547 409 2034 409 
Q 2525 409 2770 889 
Q 3016 1369 3016 2328 
Q 3016 3291 2770 3770 
Q 2525 4250 2034 4250 
z
M 2034 4750 
Q 2819 4750 3233 4129 
Q 3647 3509 3647 2328 
Q 3647 1150 3233 529 
Q 2819 -91 2034 -91 
Q 1250 -91 836 529 
Q 422 1150 422 2328 
Q 422 3509 836 4129 
Q 1250 4750 2034 4750 
z
" transform="scale(0.015625)"/>
        <path id="DejaVuSans-2e" d="M 684 794 
L 1344 794 
L 1344 0 
L 684 0 
L 684 794 
z
" transform="scale(0.015625)"/>
       </defs>
       <use xlink:href="#DejaVuSans-30"/>
       <use xlink:href="#DejaVuSans-2e" x="63.623047"/>
       <use xlink:href="#DejaVuSans-30" x="95.410156"/>
      </g>
     </g>
    </g>
    <g id="xtick_2">
     <g id="line2d_2">
      <g>
       <use xlink:href="#m4073bb6288" x="173.454545" y="384.48" style="stroke: #000000; stroke-width: 0.8"/>
      </g>
     </g>
     <g id="text_2">
      <!-- 0.2 -->
      <g transform="translate(165.502983 399.078438) scale(0.1 -0.1)">
       <defs>
        <path id="DejaVuSans-32" d="M 1228 531 
L 3431 531 
L 3431 0 
L 469 0 
L 469 531 
Q 828 903 1448 1529 
Q 2069 2156 2228 2338 
Q 2531 2678 2651 2914 
Q 2772 3150 2772 3378 
Q 2772 3750 2511 3984 
Q 2250 4219 1831 4219 
Q 1534 4219 1204 4116 
Q 875 4013 500 3803 
L 500 4441 
Q 881 4594 1212 4672 
Q 1544 4750 1819 4750 
Q 2544 4750 2975 4387 
Q 3406 4025 3406 3419 
Q 3406 3131 3298 2873 
Q 3191 2616 2906 2266 
Q 2828 2175 2409 1742 
Q 1991 1309 1228 531 
z
" transform="scale(0.015625)"/>
       </defs>
       <use xlink:href="#DejaVuSans-30"/>
       <use xlink:href="#DejaVuSans-2e" x="63.623047"/>
       <use xlink:href="#DejaVuSans-32" x="95.410156"/>
      </g>
     </g>
    </g>
    <g id="xtick_3">
     <g id="line2d_3">
      <g>
       <use xlink:href="#m4073bb6288" x="254.618182" y="384.48" style="stroke: #000000; stroke-width: 0.8"/>
      </g>
     </g>
     <g id="text_3">
      <!-- 0.4 -->
      <g transform="translate(246.666619 399.078438) scale(0.1 -0.1)">
       <defs>
        <path id="DejaVuSans-34" d="M 2419 4116 
L 825 1625 
L 2419 1625 
L 2419 4116 
z
M 2253 4666 
L 3047 4666 
L 3047 1625 
L 3713 1625 
L 3713 1100 
L 3047 1100 
L 3047 0 
L 2419 0 
L 2419 1100 
L 313 1100 
L 313 1709 
L 2253 4666 
z
" transform="scale(0.015625)"/>
       </defs>
       <use xlink:href="#DejaVuSans-30"/>
       <use xlink:href="#DejaVuSans-2e" x="63.623047"/>
       <use xlink:href="#DejaVuSans-34" x="95.410156"/>
      </g>
     </g>
    </g>
    <g id="xtick_4">
     <g id="line2d_4">
      <g>
       <use xlink:href="#m4073bb6288" x="335.781818" y="384.48" style="stroke: #000000; stroke-width: 0.8"/>
      </g>
     </g>
     <g id="text_4">
      <!-- 0.6 -->
      <g transform="translate(327.830256 399.078438) scale(0.1 -0.1)">
       <defs>
        <path id="DejaVuSans-36" d="M 2113 2584 
Q 1688 2584 1439 2293 
Q 1191 2003 1191 1497 
Q 1191 994 1439 701 
Q 1688 409 2113 409 
Q 2538 409 2786 701 
Q 3034 994 3034 1497 
Q 3034 2003 2786 2293 
Q 2538 2584 2113 2584 
z
M 3366 4563 
L 3366 3988 
Q 3128 4100 2886 4159 
Q 2644 4219 2406 4219 
Q 1781 4219 1451 3797 
Q 1122 3375 1075 2522 
Q 1259 2794 1537 2939 
Q 1816 3084 2150 3084 
Q 2853 3084 3261 2657 
Q 3669 2231 3669 1497 
Q 3669 778 3244 343 
Q 2819 -91 2113 -91 
Q 1303 -91 875 529 
Q 447 1150 447 2328 
Q 447 3434 972 4092 
Q 1497 4750 2381 4750 
Q 2619 4750 2861 4703 
Q 3103 4656 3366 4563 
z
" transform="scale(0.015625)"/>
       </defs>
       <use xlink:href="#DejaVuSans-30"/>
       <use xlink:href="#DejaVuSans-2e" x="63.623047"/>
       <use xlink:href="#DejaVuSans-36" x="95.410156"/>
      </g>
     </g>
    </g>
    <g id="xtick_5">
     <g id="line2d_5">
      <g>
       <use xlink:href="#m4073bb6288" x="416.945455" y="384.48" style="stroke: #000000; stroke-width: 0.8"/>
      </g>
     </g>
     <g id="text_5">
      <!-- 0.8 -->
      <g transform="translate(408.993892 399.078438) scale(0.1 -0.1)">
       <defs>
        <path id="DejaVuSans-38" d="M 2034 2216 
Q 1584 2216 1326 1975 
Q 1069 1734 1069 1313 
Q 1069 891 1326 650 
Q 1584 409 2034 409 
Q 2484 409 2743 651 
Q 3003 894 3003 1313 
Q 3003 1734 2745 1975 
Q 2488 2216 2034 2216 
z
M 1403 2484 
Q 997 2584 770 2862 
Q 544 3141 544 3541 
Q 544 4100 942 4425 
Q 1341 4750 2034 4750 
Q 2731 4750 3128 4425 
Q 3525 4100 3525 3541 
Q 3525 3141 3298 2862 
Q 3072 2584 2669 2484 
Q 3125 2378 3379 2068 
Q 3634 1759 3634 1313 
Q 3634 634 3220 271 
Q 2806 -91 2034 -91 
Q 1263 -91 848 271 
Q 434 634 434 1313 
Q 434 1759 690 2068 
Q 947 2378 1403 2484 
z
M 1172 3481 
Q 1172 3119 1398 2916 
Q 1625 2713 2034 2713 
Q 2441 2713 2670 2916 
Q 2900 3119 2900 3481 
Q 2900 3844 2670 4047 
Q 2441 4250 2034 4250 
Q 1625 4250 1398 4047 
Q 1172 3844 1172 3481 
z
" transform="scale(0.015625)"/>
       </defs>
       <use xlink:href="#DejaVuSans-30"/>
       <use xlink:href="#DejaVuSans-2e" x="63.623047"/>
       <use xlink:href="#DejaVuSans-38" x="95.410156"/>
      </g>
     </g>
    </g>
    <g id="xtick_6">
     <g id="line2d_6">
      <g>
       <use xlink:href="#m4073bb6288" x="498.109091" y="384.48" style="stroke: #000000; stroke-width: 0.8"/>
      </g>
     </g>
     <g id="text_6">
      <!-- 1.0 -->
      <g transform="translate(490.157528 399.078438) scale(0.1 -0.1)">
       <defs>
        <path id="DejaVuSans-31" d="M 794 531 
L 1825 531 
L 1825 4091 
L 703 3866 
L 703 4441 
L 1819 4666 
L 2450 4666 
L 2450 531 
L 3481 531 
L 3481 0 
L 794 0 
L 794 531 
z
" transform="scale(0.015625)"/>
       </defs>
       <use xlink:href="#DejaVuSans-31"/>
       <use xlink:href="#DejaVuSans-2e" x="63.623047"/>
       <use xlink:href="#DejaVuSans-30" x="95.410156"/>
      </g>
     </g>
    </g>
   </g>
   <g id="matplotlib.axis_2">
    <g id="ytick_1">
     <g id="line2d_7">
      <defs>
       <path id="mea8fa1614a" d="M 0 0 
L -3.5 0 
" style="stroke: #000000; stroke-width: 0.8"/>
      </defs>
      <g>
       <use xlink:href="#mea8fa1614a" x="72" y="369.36" style="stroke: #000000; stroke-width: 0.8"/>
      </g>
     </g>
     <g id="text_7">
      <!-- −5.0 -->
      <g transform="translate(40.717187 373.159219) scale(0.1 -0.1)">
       <defs>
        <path id="DejaVuSans-2212" d="M 678 2272 
L 4684 2272 
L 4684 1741 
L 678 1741 
L 678 2272 
z
" transform="scale(0.015625)"/>
        <path id="DejaVuSans-35" d="M 691 4666 
L 3169 4666 
L 3169 4134 
L 1269 4134 
L 1269 2991 
Q 1406 3038 1543 3061 
Q 1681 3084 1819 3084 
Q 2600 3084 3056 2656 
Q 3513 2228 3513 1497 
Q 3513 744 3044 326 
Q 2575 -91 1722 -91 
Q 1428 -91 1123 -41 
Q 819 9 494 109 
L 494 744 
Q 775 591 1075 516 
Q 1375 441 1709 441 
Q 2250 441 2565 725 
Q 2881 1009 2881 1497 
Q 2881 1984 2565 2268 
Q 2250 2553 1709 2553 
Q 1456 2553 1204 2497 
Q 953 2441 691 2322 
L 691 4666 
z
" transform="scale(0.015625)"/>
       </defs>
       <use xlink:href="#DejaVuSans-2212"/>
       <use xlink:href="#DejaVuSans-35" x="83.789062"/>
       <use xlink:href="#DejaVuSans-2e" x="147.412109"/>
       <use xlink:href="#DejaVuSans-30" x="179.199219"/>
      </g>
     </g>
    </g>
    <g id="ytick_2">
     <g id="line2d_8">
      <g>
       <use xlink:href="#mea8fa1614a" x="72" y="331.56" style="stroke: #000000; stroke-width: 0.8"/>
      </g>
     </g>
     <g id="text_8">
      <!-- −2.5 -->
      <g transform="translate(40.717187 335.359219) scale(0.1 -0.1)">
       <use xlink:href="#DejaVuSans-2212"/>
       <use xlink:href="#DejaVuSans-32" x="83.789062"/>
       <use xlink:href="#DejaVuSans-2e" x="147.412109"/>
       <use xlink:href="#DejaVuSans-35" x="179.199219"/>
      </g>
     </g>
    </g>
    <g id="ytick_3">
     <g id="line2d_9">
      <g>
       <use xlink:href="#mea8fa1614a" x="72" y="293.76" style="stroke: #000000; stroke-width: 0.8"/>
      </g>
     </g>
     <g id="text_9">
      <!-- 0.0 -->
      <g transform="translate(49.096875 297.559219) scale(0.1 -0.1)">
       <use xlink:href="#DejaVuSans-30"/>
       <use xlink:href="#DejaVuSans-2e" x="63.623047"/>
       <use xlink:href="#DejaVuSans-30" x="95.410156"/>
      </g>
     </g>
    </g>
    <g id="ytick_4">
     <g id="line2d_10">
      <g>
       <use xlink:href="#mea8fa1614a" x="72" y="255.96" style="stroke: #000000; stroke-width: 0.8"/>
      </g>
     </g>
     <g id="text_10">
      <!-- 2.5 -->
      <g transform="translate(49.096875 259.759219) scale(0.1 -0.1)">
       <use xlink:href="#DejaVuSans-32"/>
       <use xlink:href="#DejaVuSans-2e" x="63.623047"/>
       <use xlink:href="#DejaVuSans-35" x="95.410156"/>
      </g>
     </g>
    </g>
    <g id="ytick_5">
     <g id="line2d_11">
      <g>
       <use xlink:href="#mea8fa1614a" x="72" y="218.16" style="stroke: #000000; stroke-width: 0.8"/>
      </g>
     </g>
     <g id="text_11">
      <!-- 5.0 -->
      <g transform="translate(49.096875 221.959219) scale(0.1 -0.1)">
       <use xlink:href="#DejaVuSans-35"/>
       <use xlink:href="#DejaVuSans-2e" x="63.623047"/>
       <use xlink:href="#DejaVuSans-30" x="95.410156"/>
      </g>
     </g>
    </g>
    <g id="ytick_6">
     <g id="line2d_12">
      <g>
       <use xlink:href="#mea8fa1614a" x="72" y="180.36" style="stroke: #000000; stroke-width: 0.8"/>
      </g>
     </g>
     <g id="text_12">
      <!-- 7.5 -->
      <g transform="translate(49.096875 184.159219) scale(0.1 -0.1)">
       <defs>
        <path id="DejaVuSans-37" d="M 525 4666 
L 3525 4666 
L 3525 4397 
L 1831 0 
L 1172 0 
L 2766 4134 
L 525 4134 
L 525 4666 
z
" transform="scale(0.015625)"/>
       </defs>
       <use xlink:href="#DejaVuSans-37"/>
       <use xlink:href="#DejaVuSans-2e" x="63.623047"/>
       <use xlink:href="#DejaVuSans-35" x="95.410156"/>
      </g>
     </g>
    </g>
    <g id="ytick_7">
     <g id="line2d_13">
      <g>
       <use xlink:href="#mea8fa1614a" x="72" y="142.56" style="stroke: #000000; stroke-width: 0.8"/>
      </g>
     </g>
     <g id="text_13">
      <!-- 10.0 -->
      <g transform="translate(42.734375 146.359219) scale(0.1 -0.1)">
       <use xlink:href="#DejaVuSans-31"/>
       <use xlink:href="#DejaVuSans-30" x="63.623047"/>
       <use xlink:href="#DejaVuSans-2e" x="127.246094"/>
       <use xlink:href="#DejaVuSans-30" x="159.033203"/>
      </g>
     </g>
    </g>
    <g id="ytick_8">
     <g id="line2d_14">
      <g>
       <use xlink:href="#mea8fa1614a" x="72" y="104.76" style="stroke: #000000; stroke-width: 0.8"/>
      </g>
     </g>
     <g id="text_14">
      <!-- 12.5 -->
      <g transform="translate(42.734375 108.559219) scale(0.1 -0.1)">
       <use xlink:href="#DejaVuSans-31"/>
       <use xlink:href="#DejaVuSans-32" x="63.623047"/>
       <use xlink:href="#DejaVuSans-2e" x="127.246094"/>
       <use xlink:href="#DejaVuSans-35" x="159.033203"/>
      </g>
     </g>
    </g>
    <g id="ytick_9">
     <g id="line2d_15">
      <g>
       <use xlink:href="#mea8fa1614a" x="72" y="66.96" style="stroke: #000000; stroke-width: 0.8"/>
      </g>
     </g>
     <g id="text_15">
      <!-- 15.0 -->
      <g transform="translate(42.734375 70.759219) scale(0.1 -0.1)">
       <use xlink:href="#DejaVuSans-31"/>
       <use xlink:href="#DejaVuSans-35" x="63.623047"/>
       <use xlink:href="#DejaVuSans-2e" x="127.246094"/>
       <use xlink:href="#DejaVuSans-30" x="159.033203"/>
      </g>
     </g>
    </g>
   </g>
   <g id="line2d_16">
    <path d="M 92.290909 361.205784 
L 96.349091 361.201248 
L 100.407273 361.183104 
L 104.465455 361.155888 
L 108.523636 361.115064 
L 112.581818 361.065168 
L 116.64 361.001664 
L 120.698182 360.929088 
L 124.756364 360.844416 
L 128.814545 360.747648 
L 132.872727 360.640296 
L 136.930909 360.520848 
L 140.989091 360.392328 
L 145.047273 360.2502 
L 149.105455 360.099 
L 153.163636 359.935704 
L 157.221818 359.760312 
L 161.28 359.575848 
L 165.338182 359.379288 
L 169.396364 359.172144 
L 173.454545 358.952904 
L 177.512727 358.724592 
L 181.570909 358.484184 
L 185.629091 358.234704 
L 189.687273 357.973128 
L 193.745455 357.700968 
L 197.803636 357.418224 
L 201.861818 357.124896 
L 205.92 356.822496 
L 209.978182 356.508 
L 214.036364 356.184432 
L 218.094545 355.85028 
L 222.152727 355.505544 
L 226.210909 355.151736 
L 230.269091 354.787344 
L 234.327273 354.41388 
L 238.385455 354.029832 
L 242.443636 353.636712 
L 246.501818 353.233008 
L 250.56 352.821744 
L 254.618182 352.399896 
L 258.676364 351.968976 
L 262.734545 351.530496 
L 266.792727 351.081432 
L 270.850909 350.624808 
L 274.909091 350.159112 
L 278.967273 349.685856 
L 283.025455 349.203528 
L 287.083636 348.71364 
L 291.141818 348.216192 
L 295.2 347.711184 
L 299.258182 347.197104 
L 303.316364 346.676976 
L 307.374545 346.1508 
L 311.432727 345.615552 
L 315.490909 345.074256 
L 319.549091 344.528424 
L 323.607273 343.97352 
L 327.665455 343.41408 
L 331.723636 342.850104 
L 335.781818 342.278568 
L 339.84 341.704008 
L 343.898182 341.1234 
L 347.956364 340.538256 
L 352.014545 339.948576 
L 356.072727 339.35436 
L 360.130909 338.75712 
L 364.189091 338.156856 
L 368.247273 337.553568 
L 372.305455 336.947256 
L 376.363636 336.33792 
L 380.421818 335.727072 
L 384.48 335.114712 
L 388.538182 334.50084 
L 392.596364 333.886968 
L 396.654545 333.271584 
L 400.712727 332.6562 
L 404.770909 332.040816 
L 408.829091 331.425432 
L 412.887273 330.81156 
L 416.945455 330.1992 
L 421.003636 329.589864 
L 425.061818 328.98204 
L 429.12 328.37724 
L 433.178182 327.775464 
L 437.236364 327.178224 
L 441.294545 326.58552 
L 445.352727 325.998864 
L 449.410909 325.418256 
L 453.469091 324.845208 
L 457.527273 324.281232 
L 461.585455 323.729352 
L 465.643636 323.189568 
L 469.701818 322.666416 
L 473.76 322.165944 
L 477.818182 321.692688 
L 481.876364 321.260256 
L 485.934545 320.882256 
L 489.992727 320.581368 
L 494.050909 320.384808 
L 498.109091 320.315256 
" clip-path="url(#p89a4847576)" style="fill: none; stroke: #000000; stroke-opacity: 0.5; stroke-linecap: square"/>
   </g>
   <g id="line2d_17">
    <path d="M 92.290909 265.000248 
L 96.349091 265.019904 
L 100.407273 265.075848 
L 104.465455 265.16808 
L 108.523636 265.2966 
L 112.581818 265.461408 
L 116.64 265.660992 
L 120.698182 265.89384 
L 124.756364 266.159952 
L 128.814545 266.454792 
L 132.872727 266.781384 
L 136.930909 267.135192 
L 140.989091 267.514704 
L 145.047273 267.91992 
L 149.105455 268.347816 
L 153.163636 268.798392 
L 157.221818 269.268624 
L 161.28 269.757 
L 165.338182 270.265032 
L 169.396364 270.788184 
L 173.454545 271.324944 
L 177.512727 271.876824 
L 181.570909 272.4408 
L 185.629091 273.01536 
L 189.687273 273.600504 
L 193.745455 274.19472 
L 197.803636 274.796496 
L 201.861818 275.405832 
L 205.92 276.021216 
L 209.978182 276.64416 
L 214.036364 277.270128 
L 218.094545 277.900632 
L 222.152727 278.53416 
L 226.210909 279.170712 
L 230.269091 279.810288 
L 234.327273 280.449864 
L 238.385455 281.092464 
L 242.443636 281.733552 
L 246.501818 282.376152 
L 250.56 283.018752 
L 254.618182 283.661352 
L 258.676364 284.300928 
L 262.734545 284.940504 
L 266.792727 285.578568 
L 270.850909 286.21512 
L 274.909091 286.848648 
L 278.967273 287.479152 
L 283.025455 288.108144 
L 287.083636 288.734112 
L 291.141818 289.357056 
L 295.2 289.975464 
L 299.258182 290.59236 
L 303.316364 291.20472 
L 307.374545 291.814056 
L 311.432727 292.420368 
L 315.490909 293.022144 
L 319.549091 293.619384 
L 323.607273 294.2136 
L 327.665455 294.804792 
L 331.723636 295.389936 
L 335.781818 295.973568 
L 339.84 296.551152 
L 343.898182 297.125712 
L 347.956364 297.697248 
L 352.014545 298.264248 
L 356.072727 298.828224 
L 360.130909 299.387664 
L 364.189091 299.94408 
L 368.247273 300.497472 
L 372.305455 301.046328 
L 376.363636 301.59216 
L 380.421818 302.134968 
L 384.48 302.674752 
L 388.538182 303.213024 
L 392.596364 303.74676 
L 396.654545 304.278984 
L 400.712727 304.808184 
L 404.770909 305.335872 
L 408.829091 305.860536 
L 412.887273 306.383688 
L 416.945455 306.905328 
L 421.003636 307.423944 
L 425.061818 307.941048 
L 429.12 308.45664 
L 433.178182 308.97072 
L 437.236364 309.483288 
L 441.294545 309.992832 
L 445.352727 310.500864 
L 449.410909 311.005872 
L 453.469091 311.507856 
L 457.527273 312.005304 
L 461.585455 312.496704 
L 465.643636 312.980544 
L 469.701818 313.452288 
L 473.76 313.908912 
L 477.818182 314.344368 
L 481.876364 314.745048 
L 485.934545 315.098856 
L 489.992727 315.3816 
L 494.050909 315.567576 
L 498.109091 315.634104 
" clip-path="url(#p89a4847576)" style="fill: none; stroke: #000000; stroke-opacity: 0.5; stroke-linecap: square"/>
   </g>
   <g id="line2d_18">
    <path d="M 92.290909 235.300032 
L 96.349091 235.307592 
L 100.407273 235.342368 
L 104.465455 235.428552 
L 108.523636 235.584288 
L 112.581818 235.798992 
L 116.64 236.06964 
L 120.698182 236.38716 
L 124.756364 236.748528 
L 128.814545 237.149208 
L 132.872727 237.586176 
L 136.930909 238.05792 
L 140.989091 238.558392 
L 145.047273 239.08608 
L 149.105455 239.636448 
L 153.163636 240.209496 
L 157.221818 240.800688 
L 161.28 241.408512 
L 165.338182 242.028432 
L 169.396364 242.66196 
L 173.454545 243.30456 
L 177.512727 243.95472 
L 181.570909 244.610928 
L 185.629091 245.271672 
L 189.687273 245.93544 
L 193.745455 246.60072 
L 197.803636 247.266 
L 201.861818 247.93128 
L 205.92 248.595048 
L 209.978182 249.255792 
L 214.036364 249.913512 
L 218.094545 250.565184 
L 222.152727 251.213832 
L 226.210909 251.85492 
L 230.269091 252.488448 
L 234.327273 253.115928 
L 238.385455 253.735848 
L 242.443636 254.346696 
L 246.501818 254.94696 
L 250.56 255.539664 
L 254.618182 256.121784 
L 258.676364 256.69332 
L 262.734545 257.25276 
L 266.792727 257.803128 
L 270.850909 258.339888 
L 274.909091 258.864552 
L 278.967273 259.37712 
L 283.025455 259.87608 
L 287.083636 260.362944 
L 291.141818 260.8362 
L 295.2 261.294336 
L 299.258182 261.738864 
L 303.316364 262.168272 
L 307.374545 262.584072 
L 311.432727 262.98324 
L 315.490909 263.367288 
L 319.549091 263.736216 
L 323.607273 264.088512 
L 327.665455 264.424176 
L 331.723636 264.741696 
L 335.781818 265.044096 
L 339.84 265.328352 
L 343.898182 265.595976 
L 347.956364 265.843944 
L 352.014545 266.07528 
L 356.072727 266.28696 
L 360.130909 266.480496 
L 364.189091 266.654376 
L 368.247273 266.8086 
L 372.305455 266.943168 
L 376.363636 267.05808 
L 380.421818 267.153336 
L 384.48 267.227424 
L 388.538182 267.280344 
L 392.596364 267.312096 
L 396.654545 267.32268 
L 400.712727 267.312096 
L 404.770909 267.278832 
L 408.829091 267.2244 
L 412.887273 267.147288 
L 416.945455 267.047496 
L 421.003636 266.925024 
L 425.061818 266.779872 
L 429.12 266.61204 
L 433.178182 266.421528 
L 437.236364 266.208336 
L 441.294545 265.970952 
L 445.352727 265.710888 
L 449.410909 265.429656 
L 453.469091 265.124232 
L 457.527273 264.79764 
L 461.585455 264.44988 
L 465.643636 264.080952 
L 469.701818 263.692368 
L 473.76 263.288664 
L 477.818182 262.871352 
L 481.876364 262.447992 
L 485.934545 262.032192 
L 489.992727 261.649656 
L 494.050909 261.353304 
L 498.109091 261.23688 
" clip-path="url(#p89a4847576)" style="fill: none; stroke: #000000; stroke-opacity: 0.5; stroke-linecap: square"/>
   </g>
   <g id="line2d_19">
    <path d="M 92.290909 234.959832 
L 96.349091 234.967392 
L 100.407273 234.982512 
L 104.465455 234.974952 
L 108.523636 234.931104 
L 112.581818 234.853992 
L 116.64 234.752688 
L 120.698182 234.628704 
L 124.756364 234.486576 
L 128.814545 234.326304 
L 132.872727 234.150912 
L 136.930909 233.9604 
L 140.989091 233.75628 
L 145.047273 233.541576 
L 149.105455 233.316288 
L 153.163636 233.080416 
L 157.221818 232.836984 
L 161.28 232.58448 
L 165.338182 232.32744 
L 169.396364 232.064352 
L 173.454545 231.796728 
L 177.512727 231.524568 
L 181.570909 231.250896 
L 185.629091 230.975712 
L 189.687273 230.699016 
L 193.745455 230.423832 
L 197.803636 230.147136 
L 201.861818 229.873464 
L 205.92 229.602816 
L 209.978182 229.335192 
L 214.036364 229.070592 
L 218.094545 228.813552 
L 222.152727 228.561048 
L 226.210909 228.317616 
L 230.269091 228.081744 
L 234.327273 227.856456 
L 238.385455 227.643264 
L 242.443636 227.440656 
L 246.501818 227.253168 
L 250.56 227.079288 
L 254.618182 226.923552 
L 258.676364 226.78596 
L 262.734545 226.668024 
L 266.792727 226.572768 
L 270.850909 226.501704 
L 274.909091 226.454832 
L 278.967273 226.435176 
L 283.025455 226.444248 
L 287.083636 226.485072 
L 291.141818 226.557648 
L 295.2 226.665 
L 299.258182 226.807128 
L 303.316364 226.987056 
L 307.374545 227.204784 
L 311.432727 227.460312 
L 315.490909 227.756664 
L 319.549091 228.092328 
L 323.607273 228.467304 
L 327.665455 228.881592 
L 331.723636 229.335192 
L 335.781818 229.828104 
L 339.84 230.357304 
L 343.898182 230.92128 
L 347.956364 231.520032 
L 352.014545 232.152048 
L 356.072727 232.812792 
L 360.130909 233.502264 
L 364.189091 234.218952 
L 368.247273 234.95832 
L 372.305455 235.718856 
L 376.363636 236.499048 
L 380.421818 237.297384 
L 384.48 238.109328 
L 388.538182 238.933368 
L 392.596364 239.769504 
L 396.654545 240.611688 
L 400.712727 241.461432 
L 404.770909 242.315712 
L 408.829091 243.171504 
L 412.887273 244.028808 
L 416.945455 244.8846 
L 421.003636 245.73888 
L 425.061818 246.587112 
L 429.12 247.430808 
L 433.178182 248.266944 
L 437.236364 249.094008 
L 441.294545 249.910488 
L 445.352727 250.716384 
L 449.410909 251.508672 
L 453.469091 252.28584 
L 457.527273 253.0494 
L 461.585455 253.794816 
L 465.643636 254.520576 
L 469.701818 255.225168 
L 473.76 255.905568 
L 477.818182 256.55724 
L 481.876364 257.172624 
L 485.934545 257.739624 
L 489.992727 258.231024 
L 494.050909 258.59088 
L 498.109091 258.729984 
" clip-path="url(#p89a4847576)" style="fill: none; stroke: #000000; stroke-opacity: 0.5; stroke-linecap: square"/>
   </g>
   <g id="line2d_20">
    <path d="M 92.290909 188.553528 
L 96.349091 188.514216 
L 100.407273 188.399304 
L 104.465455 188.208792 
L 108.523636 187.94268 
L 112.581818 187.603992 
L 116.64 187.195752 
L 120.698182 186.719472 
L 124.756364 186.178176 
L 128.814545 185.573376 
L 132.872727 184.909608 
L 136.930909 184.189896 
L 140.989091 183.417264 
L 145.047273 182.593224 
L 149.105455 181.723824 
L 153.163636 180.807552 
L 157.221818 179.850456 
L 161.28 178.852536 
L 165.338182 177.818328 
L 169.396364 176.749344 
L 173.454545 175.645584 
L 177.512727 174.511584 
L 181.570909 173.347344 
L 185.629091 172.154376 
L 189.687273 170.935704 
L 193.745455 169.691328 
L 197.803636 168.42276 
L 201.861818 167.133024 
L 205.92 165.820608 
L 209.978182 164.487024 
L 214.036364 163.135296 
L 218.094545 161.765424 
L 222.152727 160.37892 
L 226.210909 158.978808 
L 230.269091 157.569624 
L 234.327273 156.164976 
L 238.385455 154.885824 
L 242.443636 155.044584 
L 246.501818 156.18312 
L 250.56 157.373064 
L 254.618182 158.5494 
L 258.676364 159.700032 
L 262.734545 160.820424 
L 266.792727 161.904528 
L 270.850909 162.952344 
L 274.909091 163.959336 
L 278.967273 164.92248 
L 283.025455 165.841776 
L 287.083636 166.712688 
L 291.141818 167.532192 
L 295.2 168.300288 
L 299.258182 169.015464 
L 303.316364 169.673184 
L 307.374545 170.273448 
L 311.432727 170.814744 
L 315.490909 171.29556 
L 319.549091 171.715896 
L 323.607273 172.07424 
L 327.665455 172.372104 
L 331.723636 172.607976 
L 335.781818 172.781856 
L 339.84 172.896768 
L 343.898182 172.9512 
L 347.956364 172.946664 
L 352.014545 172.886184 
L 356.072727 172.76976 
L 360.130909 172.600416 
L 364.189091 172.379664 
L 368.247273 172.107504 
L 372.305455 171.78696 
L 376.363636 171.419544 
L 380.421818 171.00828 
L 384.48 170.55468 
L 388.538182 170.058744 
L 392.596364 169.525008 
L 396.654545 168.953472 
L 400.712727 168.345648 
L 404.770909 167.703048 
L 408.829091 167.028696 
L 412.887273 166.32108 
L 416.945455 165.584736 
L 421.003636 164.819664 
L 425.061818 164.025864 
L 429.12 163.204848 
L 433.178182 162.35964 
L 437.236364 161.49024 
L 441.294545 160.596648 
L 445.352727 159.680376 
L 449.410909 158.742936 
L 453.469091 157.784328 
L 457.527273 156.806064 
L 461.585455 155.808144 
L 465.643636 154.79208 
L 469.701818 153.759384 
L 473.76 152.711568 
L 477.818182 151.64712 
L 481.876364 150.569064 
L 485.934545 149.480424 
L 489.992727 148.382712 
L 494.050909 147.294072 
L 498.109091 146.474568 
" clip-path="url(#p89a4847576)" style="fill: none; stroke: #000000; stroke-opacity: 0.5; stroke-linecap: square"/>
   </g>
   <g id="line2d_21">
    <path d="M 92.290909 162.742176 
L 96.349091 162.717984 
L 100.407273 162.645408 
L 104.465455 162.52596 
L 108.523636 162.358128 
L 112.581818 162.143424 
L 116.64 161.880336 
L 120.698182 161.571888 
L 124.756364 161.216568 
L 128.814545 160.814376 
L 132.872727 160.368336 
L 136.930909 159.876936 
L 140.989091 159.341688 
L 145.047273 158.764104 
L 149.105455 158.144184 
L 153.163636 157.481928 
L 157.221818 156.778848 
L 161.28 156.034944 
L 165.338182 155.25324 
L 169.396364 154.433736 
L 173.454545 153.577944 
L 177.512727 152.687376 
L 181.570909 151.762032 
L 185.629091 150.804936 
L 189.687273 149.820624 
L 193.745455 148.810608 
L 197.803636 147.785472 
L 201.861818 146.769408 
L 205.92 145.839528 
L 209.978182 145.352664 
L 214.036364 145.927224 
L 218.094545 147.07332 
L 222.152727 148.349448 
L 226.210909 149.652792 
L 230.269091 150.950088 
L 234.327273 152.217144 
L 238.385455 153.326952 
L 242.443636 152.965584 
L 246.501818 151.58664 
L 250.56 150.116976 
L 254.618182 148.620096 
L 258.676364 147.105072 
L 262.734545 145.577952 
L 266.792727 144.037224 
L 270.850909 142.487424 
L 274.909091 140.930064 
L 278.967273 139.363632 
L 283.025455 137.792664 
L 287.083636 136.21716 
L 291.141818 134.641656 
L 295.2 133.070688 
L 299.258182 131.510304 
L 303.316364 129.9726 
L 307.374545 128.480256 
L 311.432727 127.078632 
L 315.490909 125.8524 
L 319.549091 124.940664 
L 323.607273 124.429608 
L 327.665455 124.24212 
L 331.723636 124.237584 
L 335.781818 124.328304 
L 339.84 124.470432 
L 343.898182 124.641288 
L 347.956364 124.828776 
L 352.014545 125.025336 
L 356.072727 125.227944 
L 360.130909 125.433576 
L 364.189091 125.64072 
L 368.247273 125.850888 
L 372.305455 126.061056 
L 376.363636 126.271224 
L 380.421818 126.482904 
L 384.48 126.696096 
L 388.538182 126.9108 
L 392.596364 127.128528 
L 396.654545 127.350792 
L 400.712727 127.580616 
L 404.770909 127.819512 
L 408.829091 128.072016 
L 412.887273 128.342664 
L 416.945455 128.637504 
L 421.003636 128.964096 
L 425.061818 129.331512 
L 429.12 129.75336 
L 433.178182 130.240224 
L 437.236364 130.8042 
L 441.294545 131.457384 
L 445.352727 132.199776 
L 449.410909 133.032888 
L 453.469091 133.944624 
L 457.527273 134.922888 
L 461.585455 135.954072 
L 465.643636 137.02608 
L 469.701818 138.128328 
L 473.76 139.250232 
L 477.818182 140.384232 
L 481.876364 141.52428 
L 485.934545 142.66584 
L 489.992727 143.801352 
L 494.050909 144.915696 
L 498.109091 145.74276 
" clip-path="url(#p89a4847576)" style="fill: none; stroke: #000000; stroke-opacity: 0.5; stroke-linecap: square"/>
   </g>
   <g id="line2d_22">
    <path d="M 92.290909 111.483864 
L 96.349091 111.505032 
L 100.407273 111.58668 
L 104.465455 111.81348 
L 108.523636 112.264056 
L 112.581818 112.893048 
L 116.64 113.65812 
L 120.698182 114.536592 
L 124.756364 115.507296 
L 128.814545 116.56116 
L 132.872727 117.683064 
L 136.930909 118.865448 
L 140.989091 120.096216 
L 145.047273 121.370832 
L 149.105455 122.680224 
L 153.163636 124.018344 
L 157.221818 125.382168 
L 161.28 126.76716 
L 165.338182 128.167272 
L 169.396364 129.57948 
L 173.454545 131.00076 
L 177.512727 132.428088 
L 181.570909 133.856928 
L 185.629091 135.285768 
L 189.687273 136.710072 
L 193.745455 138.12228 
L 197.803636 139.51332 
L 201.861818 140.859 
L 205.92 142.079184 
L 209.978182 142.818552 
L 214.036364 142.455672 
L 218.094545 141.47892 
L 222.152727 140.3298 
L 226.210909 139.108104 
L 230.269091 137.841048 
L 234.327273 136.539216 
L 238.385455 135.208656 
L 242.443636 133.852392 
L 246.501818 132.473448 
L 250.56 131.073336 
L 254.618182 129.65508 
L 258.676364 128.220192 
L 262.734545 126.777744 
L 266.792727 125.332272 
L 270.850909 123.903432 
L 274.909091 122.542632 
L 278.967273 121.396536 
L 283.025455 120.767544 
L 287.083636 120.640536 
L 291.141818 120.71916 
L 295.2 120.861288 
L 299.258182 121.017024 
L 303.316364 121.15764 
L 307.374545 121.252896 
L 311.432727 121.257432 
L 315.490909 121.080528 
L 319.549091 120.587616 
L 323.607273 119.691 
L 327.665455 118.470816 
L 331.723636 117.069192 
L 335.781818 115.579872 
L 339.84 114.061824 
L 343.898182 112.564944 
L 347.956364 111.192048 
L 352.014545 110.251584 
L 356.072727 110.095848 
L 360.130909 110.383128 
L 364.189091 110.804976 
L 368.247273 111.267648 
L 372.305455 111.746952 
L 376.363636 112.230792 
L 380.421818 112.71312 
L 384.48 113.19696 
L 388.538182 113.6808 
L 392.596364 114.167664 
L 396.654545 114.6636 
L 400.712727 115.17768 
L 404.770909 115.728048 
L 408.829091 116.337384 
L 412.887273 117.02988 
L 416.945455 117.822168 
L 421.003636 118.70064 
L 425.061818 119.629008 
L 429.12 120.561912 
L 433.178182 121.461552 
L 437.236364 122.296176 
L 441.294545 123.04764 
L 445.352727 123.702336 
L 449.410909 124.260264 
L 453.469091 124.727472 
L 457.527273 125.11152 
L 461.585455 125.427528 
L 465.643636 125.684568 
L 469.701818 125.891712 
L 473.76 126.059544 
L 477.818182 126.1926 
L 481.876364 126.296928 
L 485.934545 126.37404 
L 489.992727 126.42696 
L 494.050909 126.458712 
L 498.109091 126.469296 
" clip-path="url(#p89a4847576)" style="fill: none; stroke: #000000; stroke-opacity: 0.5; stroke-linecap: square"/>
   </g>
   <g id="line2d_23">
    <path d="M 92.290909 110.812536 
L 96.349091 110.877552 
L 100.407273 111.04992 
L 104.465455 111.237408 
L 108.523636 111.356856 
L 112.581818 111.43548 
L 116.64 111.506544 
L 120.698182 111.580632 
L 124.756364 111.659256 
L 128.814545 111.746952 
L 132.872727 111.842208 
L 136.930909 111.946536 
L 140.989091 112.059936 
L 145.047273 112.180896 
L 149.105455 112.31244 
L 153.163636 112.451544 
L 157.221818 112.598208 
L 161.28 112.753944 
L 165.338182 112.91724 
L 169.396364 113.089608 
L 173.454545 113.268024 
L 177.512727 113.455512 
L 181.570909 113.649048 
L 185.629091 113.848632 
L 189.687273 114.055776 
L 193.745455 114.268968 
L 197.803636 114.488208 
L 201.861818 114.711984 
L 205.92 114.941808 
L 209.978182 115.17768 
L 214.036364 115.416576 
L 218.094545 115.660008 
L 222.152727 115.906464 
L 226.210909 116.155944 
L 230.269091 116.408448 
L 234.327273 116.662464 
L 238.385455 116.919504 
L 242.443636 117.176544 
L 246.501818 117.432072 
L 250.56 117.6876 
L 254.618182 117.938592 
L 258.676364 118.185048 
L 262.734545 118.42092 
L 266.792727 118.638648 
L 270.850909 118.820088 
L 274.909091 118.915344 
L 278.967273 118.777752 
L 283.025455 118.106424 
L 287.083636 116.914968 
L 291.141818 115.50276 
L 295.2 114.011928 
L 299.258182 112.495392 
L 303.316364 110.984904 
L 307.374545 109.51524 
L 311.432727 108.145368 
L 315.490909 106.981128 
L 319.549091 106.193376 
L 323.607273 105.889464 
L 327.665455 105.975648 
L 331.723636 106.278048 
L 335.781818 106.681752 
L 339.84 107.120232 
L 343.898182 107.537544 
L 347.956364 107.835408 
L 352.014545 107.709912 
L 356.072727 106.826904 
L 360.130909 105.556824 
L 364.189091 104.28372 
L 368.247273 103.266144 
L 372.305455 102.851856 
L 376.363636 103.23288 
L 380.421818 104.150664 
L 384.48 105.31188 
L 388.538182 106.568352 
L 392.596364 107.855064 
L 396.654545 109.135728 
L 400.712727 110.38464 
L 404.770909 111.57156 
L 408.829091 112.66776 
L 412.887273 113.636952 
L 416.945455 114.454944 
L 421.003636 115.12476 
L 425.061818 115.675128 
L 429.12 116.134776 
L 433.178182 116.53092 
L 437.236364 116.87868 
L 441.294545 117.190152 
L 445.352727 117.46836 
L 449.410909 117.720864 
L 453.469091 117.949176 
L 457.527273 118.154808 
L 461.585455 118.339272 
L 465.643636 118.502568 
L 469.701818 118.64772 
L 473.76 118.771704 
L 477.818182 118.876032 
L 481.876364 118.960704 
L 485.934545 119.027232 
L 489.992727 119.074104 
L 494.050909 119.102832 
L 498.109091 119.113416 
" clip-path="url(#p89a4847576)" style="fill: none; stroke: #000000; stroke-opacity: 0.5; stroke-linecap: square"/>
   </g>
   <g id="patch_3">
    <path d="M 72 384.48 
L 72 51.84 
" style="fill: none; stroke: #000000; stroke-width: 0.8; stroke-linejoin: miter; stroke-linecap: square"/>
   </g>
   <g id="patch_4">
    <path d="M 518.4 384.48 
L 518.4 51.84 
" style="fill: none; stroke: #000000; stroke-width: 0.8; stroke-linejoin: miter; stroke-linecap: square"/>
   </g>
   <g id="patch_5">
    <path d="M 72 384.48 
L 518.4 384.48 
" style="fill: none; stroke: #000000; stroke-width: 0.8; stroke-linejoin: miter; stroke-linecap: square"/>
   </g>
   <g id="patch_6">
    <path d="M 72 51.84 
L 518.4 51.84 
" style="fill: none; stroke: #000000; stroke-width: 0.8; stroke-linejoin: miter; stroke-linecap: square"/>
   </g>
  </g>
 </g>
 <defs>
  <clipPath id="p89a4847576">
   <rect x="72" y="51.84" width="446.4" height="332.64"/>
  </clipPath>
 </defs>
</svg>
