<?xml version="1.0" encoding="utf-8" standalone="no"?>
<!DOCTYPE svg PUBLIC "-//W3C//DTD SVG 1.1//EN"
  "http://www.w3.org/Graphics/SVG/1.1/DTD/svg11.dtd">
<svg xmlns:xlink="http://www.w3.org/1999/xlink" width="576pt" height="432pt" viewBox="0 0 576 432" xmlns="http://www.w3.org/2000/svg" version="1.1">
 <metadata>
  <rdf:RDF xmlns:dc="http://purl.org/dc/elements/1.1/" xmlns:cc="http://creativecommons.org/ns#" xmlns:rdf="http://www.w3.org/1999/02/22-rdf-syntax-ns#">
   <cc:Work>
    <dc:type rdf:resource="http://purl.org/dc/dcmitype/StillImage"/>
    <dc:date>2023-05-03T15:25:51.419588</dc:date>
    <dc:format>image/svg+xml</dc:format>
    <dc:creator>
     <cc:Agent>
      <dc:title>Matplotlib v3.7.1, https://matplotlib.org/</dc:title>
     </cc:Agent>
    </dc:creator>
   </cc:Work>
  </rdf:RDF>
 </metadata>
 <defs>
  <style type="text/css">*{stroke-linejoin: round; stroke-linecap: butt}</style>
 </defs>
 <g id="figure_1">
  <g id="patch_1">
   <path d="M 0 432 
L 576 432 
L 576 0 
L 0 0 
z
" style="fill: #ffffff"/>
  </g>
  <g id="axes_1">
   <g id="patch_2">
    <path d="M 72 384.48 
L 518.4 384.48 
L 518.4 51.84 
L 72 51.84 
z
" style="fill: #ffffff"/>
   </g>
   <g id="matplotlib.axis_1">
    <g id="xtick_1">
     <g id="line2d_1">
      <defs>
       <path id="m17c745f823" d="M 0 0 
L 0 3.5 
" style="stroke: #000000; stroke-width: 0.8"/>
      </defs>
      <g>
       <use xlink:href="#m17c745f823" x="92.290909" y="384.48" style="stroke: #000000; stroke-width: 0.8"/>
      </g>
     </g>
     <g id="text_1">
      <!-- 0.0 -->
      <g transform="translate(84.339347 399.078438) scale(0.1 -0.1)">
       <defs>
        <path id="DejaVuSans-30" d="M 2034 4250 
Q 1547 4250 1301 3770 
Q 1056 3291 1056 2328 
Q 1056 1369 1301 889 
Q 1547 409 2034 409 
Q 2525 409 2770 889 
Q 3016 1369 3016 2328 
Q 3016 3291 2770 3770 
Q 2525 4250 2034 4250 
z
M 2034 4750 
Q 2819 4750 3233 4129 
Q 3647 3509 3647 2328 
Q 3647 1150 3233 529 
Q 2819 -91 2034 -91 
Q 1250 -91 836 529 
Q 422 1150 422 2328 
Q 422 3509 836 4129 
Q 1250 4750 2034 4750 
z
" transform="scale(0.015625)"/>
        <path id="DejaVuSans-2e" d="M 684 794 
L 1344 794 
L 1344 0 
L 684 0 
L 684 794 
z
" transform="scale(0.015625)"/>
       </defs>
       <use xlink:href="#DejaVuSans-30"/>
       <use xlink:href="#DejaVuSans-2e" x="63.623047"/>
       <use xlink:href="#DejaVuSans-30" x="95.410156"/>
      </g>
     </g>
    </g>
    <g id="xtick_2">
     <g id="line2d_2">
      <g>
       <use xlink:href="#m17c745f823" x="173.454545" y="384.48" style="stroke: #000000; stroke-width: 0.8"/>
      </g>
     </g>
     <g id="text_2">
      <!-- 0.2 -->
      <g transform="translate(165.502983 399.078438) scale(0.1 -0.1)">
       <defs>
        <path id="DejaVuSans-32" d="M 1228 531 
L 3431 531 
L 3431 0 
L 469 0 
L 469 531 
Q 828 903 1448 1529 
Q 2069 2156 2228 2338 
Q 2531 2678 2651 2914 
Q 2772 3150 2772 3378 
Q 2772 3750 2511 3984 
Q 2250 4219 1831 4219 
Q 1534 4219 1204 4116 
Q 875 4013 500 3803 
L 500 4441 
Q 881 4594 1212 4672 
Q 1544 4750 1819 4750 
Q 2544 4750 2975 4387 
Q 3406 4025 3406 3419 
Q 3406 3131 3298 2873 
Q 3191 2616 2906 2266 
Q 2828 2175 2409 1742 
Q 1991 1309 1228 531 
z
" transform="scale(0.015625)"/>
       </defs>
       <use xlink:href="#DejaVuSans-30"/>
       <use xlink:href="#DejaVuSans-2e" x="63.623047"/>
       <use xlink:href="#DejaVuSans-32" x="95.410156"/>
      </g>
     </g>
    </g>
    <g id="xtick_3">
     <g id="line2d_3">
      <g>
       <use xlink:href="#m17c745f823" x="254.618182" y="384.48" style="stroke: #000000; stroke-width: 0.8"/>
      </g>
     </g>
     <g id="text_3">
      <!-- 0.4 -->
      <g transform="translate(246.666619 399.078438) scale(0.1 -0.1)">
       <defs>
        <path id="DejaVuSans-34" d="M 2419 4116 
L 825 1625 
L 2419 1625 
L 2419 4116 
z
M 2253 4666 
L 3047 4666 
L 3047 1625 
L 3713 1625 
L 3713 1100 
L 3047 1100 
L 3047 0 
L 2419 0 
L 2419 1100 
L 313 1100 
L 313 1709 
L 2253 4666 
z
" transform="scale(0.015625)"/>
       </defs>
       <use xlink:href="#DejaVuSans-30"/>
       <use xlink:href="#DejaVuSans-2e" x="63.623047"/>
       <use xlink:href="#DejaVuSans-34" x="95.410156"/>
      </g>
     </g>
    </g>
    <g id="xtick_4">
     <g id="line2d_4">
      <g>
       <use xlink:href="#m17c745f823" x="335.781818" y="384.48" style="stroke: #000000; stroke-width: 0.8"/>
      </g>
     </g>
     <g id="text_4">
      <!-- 0.6 -->
      <g transform="translate(327.830256 399.078438) scale(0.1 -0.1)">
       <defs>
        <path id="DejaVuSans-36" d="M 2113 2584 
Q 1688 2584 1439 2293 
Q 1191 2003 1191 1497 
Q 1191 994 1439 701 
Q 1688 409 2113 409 
Q 2538 409 2786 701 
Q 3034 994 3034 1497 
Q 3034 2003 2786 2293 
Q 2538 2584 2113 2584 
z
M 3366 4563 
L 3366 3988 
Q 3128 4100 2886 4159 
Q 2644 4219 2406 4219 
Q 1781 4219 1451 3797 
Q 1122 3375 1075 2522 
Q 1259 2794 1537 2939 
Q 1816 3084 2150 3084 
Q 2853 3084 3261 2657 
Q 3669 2231 3669 1497 
Q 3669 778 3244 343 
Q 2819 -91 2113 -91 
Q 1303 -91 875 529 
Q 447 1150 447 2328 
Q 447 3434 972 4092 
Q 1497 4750 2381 4750 
Q 2619 4750 2861 4703 
Q 3103 4656 3366 4563 
z
" transform="scale(0.015625)"/>
       </defs>
       <use xlink:href="#DejaVuSans-30"/>
       <use xlink:href="#DejaVuSans-2e" x="63.623047"/>
       <use xlink:href="#DejaVuSans-36" x="95.410156"/>
      </g>
     </g>
    </g>
    <g id="xtick_5">
     <g id="line2d_5">
      <g>
       <use xlink:href="#m17c745f823" x="416.945455" y="384.48" style="stroke: #000000; stroke-width: 0.8"/>
      </g>
     </g>
     <g id="text_5">
      <!-- 0.8 -->
      <g transform="translate(408.993892 399.078438) scale(0.1 -0.1)">
       <defs>
        <path id="DejaVuSans-38" d="M 2034 2216 
Q 1584 2216 1326 1975 
Q 1069 1734 1069 1313 
Q 1069 891 1326 650 
Q 1584 409 2034 409 
Q 2484 409 2743 651 
Q 3003 894 3003 1313 
Q 3003 1734 2745 1975 
Q 2488 2216 2034 2216 
z
M 1403 2484 
Q 997 2584 770 2862 
Q 544 3141 544 3541 
Q 544 4100 942 4425 
Q 1341 4750 2034 4750 
Q 2731 4750 3128 4425 
Q 3525 4100 3525 3541 
Q 3525 3141 3298 2862 
Q 3072 2584 2669 2484 
Q 3125 2378 3379 2068 
Q 3634 1759 3634 1313 
Q 3634 634 3220 271 
Q 2806 -91 2034 -91 
Q 1263 -91 848 271 
Q 434 634 434 1313 
Q 434 1759 690 2068 
Q 947 2378 1403 2484 
z
M 1172 3481 
Q 1172 3119 1398 2916 
Q 1625 2713 2034 2713 
Q 2441 2713 2670 2916 
Q 2900 3119 2900 3481 
Q 2900 3844 2670 4047 
Q 2441 4250 2034 4250 
Q 1625 4250 1398 4047 
Q 1172 3844 1172 3481 
z
" transform="scale(0.015625)"/>
       </defs>
       <use xlink:href="#DejaVuSans-30"/>
       <use xlink:href="#DejaVuSans-2e" x="63.623047"/>
       <use xlink:href="#DejaVuSans-38" x="95.410156"/>
      </g>
     </g>
    </g>
    <g id="xtick_6">
     <g id="line2d_6">
      <g>
       <use xlink:href="#m17c745f823" x="498.109091" y="384.48" style="stroke: #000000; stroke-width: 0.8"/>
      </g>
     </g>
     <g id="text_6">
      <!-- 1.0 -->
      <g transform="translate(490.157528 399.078438) scale(0.1 -0.1)">
       <defs>
        <path id="DejaVuSans-31" d="M 794 531 
L 1825 531 
L 1825 4091 
L 703 3866 
L 703 4441 
L 1819 4666 
L 2450 4666 
L 2450 531 
L 3481 531 
L 3481 0 
L 794 0 
L 794 531 
z
" transform="scale(0.015625)"/>
       </defs>
       <use xlink:href="#DejaVuSans-31"/>
       <use xlink:href="#DejaVuSans-2e" x="63.623047"/>
       <use xlink:href="#DejaVuSans-30" x="95.410156"/>
      </g>
     </g>
    </g>
   </g>
   <g id="matplotlib.axis_2">
    <g id="ytick_1">
     <g id="line2d_7">
      <defs>
       <path id="m550f18223b" d="M 0 0 
L -3.5 0 
" style="stroke: #000000; stroke-width: 0.8"/>
      </defs>
      <g>
       <use xlink:href="#m550f18223b" x="72" y="369.36" style="stroke: #000000; stroke-width: 0.8"/>
      </g>
     </g>
     <g id="text_7">
      <!-- −5.0 -->
      <g transform="translate(40.717187 373.159219) scale(0.1 -0.1)">
       <defs>
        <path id="DejaVuSans-2212" d="M 678 2272 
L 4684 2272 
L 4684 1741 
L 678 1741 
L 678 2272 
z
" transform="scale(0.015625)"/>
        <path id="DejaVuSans-35" d="M 691 4666 
L 3169 4666 
L 3169 4134 
L 1269 4134 
L 1269 2991 
Q 1406 3038 1543 3061 
Q 1681 3084 1819 3084 
Q 2600 3084 3056 2656 
Q 3513 2228 3513 1497 
Q 3513 744 3044 326 
Q 2575 -91 1722 -91 
Q 1428 -91 1123 -41 
Q 819 9 494 109 
L 494 744 
Q 775 591 1075 516 
Q 1375 441 1709 441 
Q 2250 441 2565 725 
Q 2881 1009 2881 1497 
Q 2881 1984 2565 2268 
Q 2250 2553 1709 2553 
Q 1456 2553 1204 2497 
Q 953 2441 691 2322 
L 691 4666 
z
" transform="scale(0.015625)"/>
       </defs>
       <use xlink:href="#DejaVuSans-2212"/>
       <use xlink:href="#DejaVuSans-35" x="83.789062"/>
       <use xlink:href="#DejaVuSans-2e" x="147.412109"/>
       <use xlink:href="#DejaVuSans-30" x="179.199219"/>
      </g>
     </g>
    </g>
    <g id="ytick_2">
     <g id="line2d_8">
      <g>
       <use xlink:href="#m550f18223b" x="72" y="331.56" style="stroke: #000000; stroke-width: 0.8"/>
      </g>
     </g>
     <g id="text_8">
      <!-- −2.5 -->
      <g transform="translate(40.717187 335.359219) scale(0.1 -0.1)">
       <use xlink:href="#DejaVuSans-2212"/>
       <use xlink:href="#DejaVuSans-32" x="83.789062"/>
       <use xlink:href="#DejaVuSans-2e" x="147.412109"/>
       <use xlink:href="#DejaVuSans-35" x="179.199219"/>
      </g>
     </g>
    </g>
    <g id="ytick_3">
     <g id="line2d_9">
      <g>
       <use xlink:href="#m550f18223b" x="72" y="293.76" style="stroke: #000000; stroke-width: 0.8"/>
      </g>
     </g>
     <g id="text_9">
      <!-- 0.0 -->
      <g transform="translate(49.096875 297.559219) scale(0.1 -0.1)">
       <use xlink:href="#DejaVuSans-30"/>
       <use xlink:href="#DejaVuSans-2e" x="63.623047"/>
       <use xlink:href="#DejaVuSans-30" x="95.410156"/>
      </g>
     </g>
    </g>
    <g id="ytick_4">
     <g id="line2d_10">
      <g>
       <use xlink:href="#m550f18223b" x="72" y="255.96" style="stroke: #000000; stroke-width: 0.8"/>
      </g>
     </g>
     <g id="text_10">
      <!-- 2.5 -->
      <g transform="translate(49.096875 259.759219) scale(0.1 -0.1)">
       <use xlink:href="#DejaVuSans-32"/>
       <use xlink:href="#DejaVuSans-2e" x="63.623047"/>
       <use xlink:href="#DejaVuSans-35" x="95.410156"/>
      </g>
     </g>
    </g>
    <g id="ytick_5">
     <g id="line2d_11">
      <g>
       <use xlink:href="#m550f18223b" x="72" y="218.16" style="stroke: #000000; stroke-width: 0.8"/>
      </g>
     </g>
     <g id="text_11">
      <!-- 5.0 -->
      <g transform="translate(49.096875 221.959219) scale(0.1 -0.1)">
       <use xlink:href="#DejaVuSans-35"/>
       <use xlink:href="#DejaVuSans-2e" x="63.623047"/>
       <use xlink:href="#DejaVuSans-30" x="95.410156"/>
      </g>
     </g>
    </g>
    <g id="ytick_6">
     <g id="line2d_12">
      <g>
       <use xlink:href="#m550f18223b" x="72" y="180.36" style="stroke: #000000; stroke-width: 0.8"/>
      </g>
     </g>
     <g id="text_12">
      <!-- 7.5 -->
      <g transform="translate(49.096875 184.159219) scale(0.1 -0.1)">
       <defs>
        <path id="DejaVuSans-37" d="M 525 4666 
L 3525 4666 
L 3525 4397 
L 1831 0 
L 1172 0 
L 2766 4134 
L 525 4134 
L 525 4666 
z
" transform="scale(0.015625)"/>
       </defs>
       <use xlink:href="#DejaVuSans-37"/>
       <use xlink:href="#DejaVuSans-2e" x="63.623047"/>
       <use xlink:href="#DejaVuSans-35" x="95.410156"/>
      </g>
     </g>
    </g>
    <g id="ytick_7">
     <g id="line2d_13">
      <g>
       <use xlink:href="#m550f18223b" x="72" y="142.56" style="stroke: #000000; stroke-width: 0.8"/>
      </g>
     </g>
     <g id="text_13">
      <!-- 10.0 -->
      <g transform="translate(42.734375 146.359219) scale(0.1 -0.1)">
       <use xlink:href="#DejaVuSans-31"/>
       <use xlink:href="#DejaVuSans-30" x="63.623047"/>
       <use xlink:href="#DejaVuSans-2e" x="127.246094"/>
       <use xlink:href="#DejaVuSans-30" x="159.033203"/>
      </g>
     </g>
    </g>
    <g id="ytick_8">
     <g id="line2d_14">
      <g>
       <use xlink:href="#m550f18223b" x="72" y="104.76" style="stroke: #000000; stroke-width: 0.8"/>
      </g>
     </g>
     <g id="text_14">
      <!-- 12.5 -->
      <g transform="translate(42.734375 108.559219) scale(0.1 -0.1)">
       <use xlink:href="#DejaVuSans-31"/>
       <use xlink:href="#DejaVuSans-32" x="63.623047"/>
       <use xlink:href="#DejaVuSans-2e" x="127.246094"/>
       <use xlink:href="#DejaVuSans-35" x="159.033203"/>
      </g>
     </g>
    </g>
    <g id="ytick_9">
     <g id="line2d_15">
      <g>
       <use xlink:href="#m550f18223b" x="72" y="66.96" style="stroke: #000000; stroke-width: 0.8"/>
      </g>
     </g>
     <g id="text_15">
      <!-- 15.0 -->
      <g transform="translate(42.734375 70.759219) scale(0.1 -0.1)">
       <use xlink:href="#DejaVuSans-31"/>
       <use xlink:href="#DejaVuSans-35" x="63.623047"/>
       <use xlink:href="#DejaVuSans-2e" x="127.246094"/>
       <use xlink:href="#DejaVuSans-30" x="159.033203"/>
      </g>
     </g>
    </g>
   </g>
   <g id="line2d_16">
    <path d="M 92.290909 351.008856 
L 96.349091 351.005832 
L 100.407273 350.995248 
L 104.465455 350.978616 
L 108.523636 350.954424 
L 112.581818 350.924184 
L 116.64 350.887896 
L 120.698182 350.844048 
L 124.756364 350.794152 
L 128.814545 350.738208 
L 132.872727 350.676216 
L 136.930909 350.606664 
L 140.989091 350.532576 
L 145.047273 350.45244 
L 149.105455 350.367768 
L 153.163636 350.277048 
L 157.221818 350.18028 
L 161.28 350.080488 
L 165.338182 349.974648 
L 169.396364 349.865784 
L 173.454545 349.752384 
L 177.512727 349.63596 
L 181.570909 349.516512 
L 185.629091 349.39404 
L 189.687273 349.270056 
L 193.745455 349.143048 
L 197.803636 349.014528 
L 201.861818 348.884496 
L 205.92 348.754464 
L 209.978182 348.624432 
L 214.036364 348.495912 
L 218.094545 348.367392 
L 222.152727 348.240384 
L 226.210909 348.1164 
L 230.269091 347.993928 
L 234.327273 347.875992 
L 238.385455 347.76108 
L 242.443636 347.652216 
L 246.501818 347.546376 
L 250.56 347.448096 
L 254.618182 347.355864 
L 258.676364 347.26968 
L 262.734545 347.192568 
L 266.792727 347.121504 
L 270.850909 347.061024 
L 274.909091 347.008104 
L 278.967273 346.964256 
L 283.025455 346.92948 
L 287.083636 346.903776 
L 291.141818 346.890168 
L 295.2 346.88412 
L 299.258182 346.890168 
L 303.316364 346.903776 
L 307.374545 346.92948 
L 311.432727 346.964256 
L 315.490909 347.008104 
L 319.549091 347.061024 
L 323.607273 347.121504 
L 327.665455 347.192568 
L 331.723636 347.26968 
L 335.781818 347.355864 
L 339.84 347.448096 
L 343.898182 347.546376 
L 347.956364 347.652216 
L 352.014545 347.76108 
L 356.072727 347.875992 
L 360.130909 347.993928 
L 364.189091 348.1164 
L 368.247273 348.240384 
L 372.305455 348.367392 
L 376.363636 348.495912 
L 380.421818 348.624432 
L 384.48 348.754464 
L 388.538182 348.884496 
L 392.596364 349.014528 
L 396.654545 349.143048 
L 400.712727 349.270056 
L 404.770909 349.39404 
L 408.829091 349.516512 
L 412.887273 349.63596 
L 416.945455 349.752384 
L 421.003636 349.865784 
L 425.061818 349.974648 
L 429.12 350.080488 
L 433.178182 350.18028 
L 437.236364 350.277048 
L 441.294545 350.367768 
L 445.352727 350.45244 
L 449.410909 350.532576 
L 453.469091 350.606664 
L 457.527273 350.676216 
L 461.585455 350.738208 
L 465.643636 350.794152 
L 469.701818 350.844048 
L 473.76 350.887896 
L 477.818182 350.924184 
L 481.876364 350.954424 
L 485.934545 350.978616 
L 489.992727 350.995248 
L 494.050909 351.005832 
L 498.109091 351.008856 
" clip-path="url(#pca2b2ade5f)" style="fill: none; stroke: #000000; stroke-opacity: 0.5; stroke-linecap: square"/>
   </g>
   <g id="line2d_17">
    <path d="M 92.290909 285.70104 
L 96.349091 285.73884 
L 100.407273 285.853752 
L 104.465455 286.04124 
L 108.523636 286.29828 
L 112.581818 286.618824 
L 116.64 286.996824 
L 120.698182 287.427744 
L 124.756364 287.904024 
L 128.814545 288.419616 
L 132.872727 288.968472 
L 136.930909 289.546056 
L 140.989091 290.144808 
L 145.047273 290.763216 
L 149.105455 291.395232 
L 153.163636 292.037832 
L 157.221818 292.68648 
L 161.28 293.341176 
L 165.338182 293.997384 
L 169.396364 294.65208 
L 173.454545 295.303752 
L 177.512727 295.950888 
L 181.570909 296.590464 
L 185.629091 297.22248 
L 189.687273 297.845424 
L 193.745455 298.456272 
L 197.803636 299.055024 
L 201.861818 299.638656 
L 205.92 300.20868 
L 209.978182 300.762072 
L 214.036364 301.29732 
L 218.094545 301.814424 
L 222.152727 302.313384 
L 226.210909 302.791176 
L 230.269091 303.246288 
L 234.327273 303.681744 
L 238.385455 304.091496 
L 242.443636 304.478568 
L 246.501818 304.841448 
L 250.56 305.177112 
L 254.618182 305.487072 
L 258.676364 305.769816 
L 262.734545 306.025344 
L 266.792727 306.252144 
L 270.850909 306.450216 
L 274.909091 306.618048 
L 278.967273 306.75564 
L 283.025455 306.862992 
L 287.083636 306.940104 
L 291.141818 306.986976 
L 295.2 307.002096 
L 299.258182 306.986976 
L 303.316364 306.940104 
L 307.374545 306.862992 
L 311.432727 306.75564 
L 315.490909 306.618048 
L 319.549091 306.450216 
L 323.607273 306.252144 
L 327.665455 306.025344 
L 331.723636 305.769816 
L 335.781818 305.487072 
L 339.84 305.177112 
L 343.898182 304.841448 
L 347.956364 304.478568 
L 352.014545 304.091496 
L 356.072727 303.681744 
L 360.130909 303.246288 
L 364.189091 302.791176 
L 368.247273 302.313384 
L 372.305455 301.814424 
L 376.363636 301.29732 
L 380.421818 300.762072 
L 384.48 300.20868 
L 388.538182 299.638656 
L 392.596364 299.055024 
L 396.654545 298.456272 
L 400.712727 297.845424 
L 404.770909 297.22248 
L 408.829091 296.590464 
L 412.887273 295.950888 
L 416.945455 295.303752 
L 421.003636 294.65208 
L 425.061818 293.997384 
L 429.12 293.341176 
L 433.178182 292.68648 
L 437.236364 292.037832 
L 441.294545 291.395232 
L 445.352727 290.763216 
L 449.410909 290.144808 
L 453.469091 289.546056 
L 457.527273 288.968472 
L 461.585455 288.419616 
L 465.643636 287.904024 
L 469.701818 287.427744 
L 473.76 286.996824 
L 477.818182 286.618824 
L 481.876364 286.29828 
L 485.934545 286.04124 
L 489.992727 285.853752 
L 494.050909 285.73884 
L 498.109091 285.70104 
" clip-path="url(#pca2b2ade5f)" style="fill: none; stroke: #000000; stroke-opacity: 0.5; stroke-linecap: square"/>
   </g>
   <g id="line2d_18">
    <path d="M 92.290909 259.012728 
L 96.349091 258.964344 
L 100.407273 258.822216 
L 104.465455 258.587856 
L 108.523636 258.2658 
L 112.581818 257.860584 
L 116.64 257.378256 
L 120.698182 256.824864 
L 124.756364 256.207968 
L 128.814545 255.533616 
L 132.872727 254.807856 
L 136.930909 254.035224 
L 140.989091 253.221768 
L 145.047273 252.373536 
L 149.105455 251.49204 
L 153.163636 250.583328 
L 157.221818 249.648912 
L 161.28 248.69484 
L 165.338182 247.722624 
L 169.396364 246.733776 
L 173.454545 245.732832 
L 177.512727 244.719792 
L 181.570909 243.700704 
L 185.629091 242.674056 
L 189.687273 241.644384 
L 193.745455 240.6132 
L 197.803636 239.582016 
L 201.861818 238.552344 
L 205.92 237.52872 
L 209.978182 236.512656 
L 214.036364 235.505664 
L 218.094545 234.510768 
L 222.152727 233.530992 
L 226.210909 232.567848 
L 230.269091 231.627384 
L 234.327273 230.711112 
L 238.385455 229.822056 
L 242.443636 228.964752 
L 246.501818 228.143736 
L 250.56 227.365056 
L 254.618182 226.631736 
L 258.676364 225.948312 
L 262.734545 225.323856 
L 266.792727 224.764416 
L 270.850909 224.274528 
L 274.909091 223.864776 
L 278.967273 223.541208 
L 283.025455 223.306848 
L 287.083636 223.155648 
L 291.141818 223.072488 
L 295.2 223.046784 
L 299.258182 223.072488 
L 303.316364 223.155648 
L 307.374545 223.306848 
L 311.432727 223.541208 
L 315.490909 223.864776 
L 319.549091 224.274528 
L 323.607273 224.764416 
L 327.665455 225.323856 
L 331.723636 225.948312 
L 335.781818 226.631736 
L 339.84 227.365056 
L 343.898182 228.143736 
L 347.956364 228.964752 
L 352.014545 229.822056 
L 356.072727 230.711112 
L 360.130909 231.627384 
L 364.189091 232.567848 
L 368.247273 233.530992 
L 372.305455 234.510768 
L 376.363636 235.505664 
L 380.421818 236.512656 
L 384.48 237.52872 
L 388.538182 238.552344 
L 392.596364 239.582016 
L 396.654545 240.6132 
L 400.712727 241.644384 
L 404.770909 242.674056 
L 408.829091 243.700704 
L 412.887273 244.719792 
L 416.945455 245.732832 
L 421.003636 246.733776 
L 425.061818 247.722624 
L 429.12 248.69484 
L 433.178182 249.648912 
L 437.236364 250.583328 
L 441.294545 251.49204 
L 445.352727 252.373536 
L 449.410909 253.221768 
L 453.469091 254.035224 
L 457.527273 254.807856 
L 461.585455 255.533616 
L 465.643636 256.207968 
L 469.701818 256.824864 
L 473.76 257.378256 
L 477.818182 257.860584 
L 481.876364 258.2658 
L 485.934545 258.587856 
L 489.992727 258.822216 
L 494.050909 258.964344 
L 498.109091 259.012728 
" clip-path="url(#pca2b2ade5f)" style="fill: none; stroke: #000000; stroke-opacity: 0.5; stroke-linecap: square"/>
   </g>
   <g id="line2d_19">
    <path d="M 92.290909 224.513424 
L 96.349091 224.5104 
L 100.407273 224.505864 
L 104.465455 224.496792 
L 108.523636 224.483184 
L 112.581818 224.468064 
L 116.64 224.448408 
L 120.698182 224.425728 
L 124.756364 224.398512 
L 128.814545 224.368272 
L 132.872727 224.33652 
L 136.930909 224.300232 
L 140.989091 224.26092 
L 145.047273 224.220096 
L 149.105455 224.174736 
L 153.163636 224.127864 
L 157.221818 224.07948 
L 161.28 224.02656 
L 165.338182 223.97364 
L 169.396364 223.917696 
L 173.454545 223.861752 
L 177.512727 223.802784 
L 181.570909 223.742304 
L 185.629091 223.681824 
L 189.687273 223.619832 
L 193.745455 223.55784 
L 197.803636 223.495848 
L 201.861818 223.432344 
L 205.92 223.370352 
L 209.978182 223.30836 
L 214.036364 223.246368 
L 218.094545 223.184376 
L 222.152727 223.125408 
L 226.210909 223.06644 
L 230.269091 223.008984 
L 234.327273 222.95304 
L 238.385455 222.898608 
L 242.443636 222.845688 
L 246.501818 222.795792 
L 250.56 222.745896 
L 254.618182 222.699024 
L 258.676364 222.652152 
L 262.734545 222.60528 
L 266.792727 222.556896 
L 270.850909 222.505488 
L 274.909091 222.44652 
L 278.967273 222.379992 
L 283.025455 222.307416 
L 287.083636 222.236352 
L 291.141818 222.183432 
L 295.2 222.163776 
L 299.258182 222.183432 
L 303.316364 222.236352 
L 307.374545 222.307416 
L 311.432727 222.379992 
L 315.490909 222.44652 
L 319.549091 222.505488 
L 323.607273 222.556896 
L 327.665455 222.60528 
L 331.723636 222.652152 
L 335.781818 222.699024 
L 339.84 222.745896 
L 343.898182 222.795792 
L 347.956364 222.845688 
L 352.014545 222.898608 
L 356.072727 222.95304 
L 360.130909 223.008984 
L 364.189091 223.06644 
L 368.247273 223.125408 
L 372.305455 223.184376 
L 376.363636 223.246368 
L 380.421818 223.30836 
L 384.48 223.370352 
L 388.538182 223.432344 
L 392.596364 223.495848 
L 396.654545 223.55784 
L 400.712727 223.619832 
L 404.770909 223.681824 
L 408.829091 223.742304 
L 412.887273 223.802784 
L 416.945455 223.861752 
L 421.003636 223.917696 
L 425.061818 223.97364 
L 429.12 224.02656 
L 433.178182 224.07948 
L 437.236364 224.127864 
L 441.294545 224.174736 
L 445.352727 224.220096 
L 449.410909 224.26092 
L 453.469091 224.300232 
L 457.527273 224.33652 
L 461.585455 224.368272 
L 465.643636 224.398512 
L 469.701818 224.425728 
L 473.76 224.448408 
L 477.818182 224.468064 
L 481.876364 224.483184 
L 485.934545 224.496792 
L 489.992727 224.505864 
L 494.050909 224.5104 
L 498.109091 224.513424 
" clip-path="url(#pca2b2ade5f)" style="fill: none; stroke: #000000; stroke-opacity: 0.5; stroke-linecap: square"/>
   </g>
   <g id="line2d_20">
    <path d="M 92.290909 166.057992 
L 96.349091 166.057992 
L 100.407273 166.054968 
L 104.465455 166.051944 
L 108.523636 166.047408 
L 112.581818 166.042872 
L 116.64 166.038336 
L 120.698182 166.035312 
L 124.756364 166.0338 
L 128.814545 166.0338 
L 132.872727 166.039848 
L 136.930909 166.050432 
L 140.989091 166.068576 
L 145.047273 166.095792 
L 149.105455 166.135104 
L 153.163636 166.189536 
L 157.221818 166.2606 
L 161.28 166.35132 
L 165.338182 166.467744 
L 169.396364 166.609872 
L 173.454545 166.785264 
L 177.512727 166.995432 
L 181.570909 167.244912 
L 185.629091 167.535216 
L 189.687273 167.872392 
L 193.745455 168.254928 
L 197.803636 168.684336 
L 201.861818 169.157592 
L 205.92 169.676208 
L 209.978182 170.232624 
L 214.036364 170.825328 
L 218.094545 171.448272 
L 222.152727 172.095408 
L 226.210909 172.760688 
L 230.269091 173.438064 
L 234.327273 174.119976 
L 238.385455 174.801888 
L 242.443636 175.474728 
L 246.501818 176.135472 
L 250.56 176.775048 
L 254.618182 177.38892 
L 258.676364 177.968016 
L 262.734545 178.509312 
L 266.792727 179.005248 
L 270.850909 179.448264 
L 274.909091 179.835336 
L 278.967273 180.160416 
L 283.025455 180.417456 
L 287.083636 180.604944 
L 291.141818 180.718344 
L 295.2 180.756144 
L 299.258182 180.718344 
L 303.316364 180.604944 
L 307.374545 180.417456 
L 311.432727 180.160416 
L 315.490909 179.835336 
L 319.549091 179.448264 
L 323.607273 179.005248 
L 327.665455 178.509312 
L 331.723636 177.968016 
L 335.781818 177.38892 
L 339.84 176.775048 
L 343.898182 176.135472 
L 347.956364 175.474728 
L 352.014545 174.801888 
L 356.072727 174.119976 
L 360.130909 173.438064 
L 364.189091 172.760688 
L 368.247273 172.095408 
L 372.305455 171.448272 
L 376.363636 170.825328 
L 380.421818 170.232624 
L 384.48 169.676208 
L 388.538182 169.157592 
L 392.596364 168.684336 
L 396.654545 168.254928 
L 400.712727 167.872392 
L 404.770909 167.535216 
L 408.829091 167.244912 
L 412.887273 166.995432 
L 416.945455 166.785264 
L 421.003636 166.609872 
L 425.061818 166.467744 
L 429.12 166.35132 
L 433.178182 166.2606 
L 437.236364 166.189536 
L 441.294545 166.135104 
L 445.352727 166.095792 
L 449.410909 166.068576 
L 453.469091 166.050432 
L 457.527273 166.039848 
L 461.585455 166.0338 
L 465.643636 166.0338 
L 469.701818 166.035312 
L 473.76 166.038336 
L 477.818182 166.042872 
L 481.876364 166.047408 
L 485.934545 166.051944 
L 489.992727 166.054968 
L 494.050909 166.057992 
L 498.109091 166.057992 
" clip-path="url(#pca2b2ade5f)" style="fill: none; stroke: #000000; stroke-opacity: 0.5; stroke-linecap: square"/>
   </g>
   <g id="line2d_21">
    <path d="M 92.290909 136.416744 
L 96.349091 136.48176 
L 100.407273 136.675296 
L 104.465455 136.986768 
L 108.523636 137.405592 
L 112.581818 137.91816 
L 116.64 138.510864 
L 120.698182 139.167072 
L 124.756364 139.8762 
L 128.814545 140.626152 
L 132.872727 141.404832 
L 136.930909 142.206192 
L 140.989091 143.019648 
L 145.047273 143.840664 
L 149.105455 144.66168 
L 153.163636 145.476648 
L 157.221818 146.27952 
L 161.28 147.06576 
L 165.338182 147.830832 
L 169.396364 148.567176 
L 173.454545 149.271768 
L 177.512727 149.93856 
L 181.570909 150.563016 
L 185.629091 151.1406 
L 189.687273 151.668288 
L 193.745455 152.144568 
L 197.803636 152.566416 
L 201.861818 152.933832 
L 205.92 153.24984 
L 209.978182 153.515952 
L 214.036364 153.735192 
L 218.094545 153.912096 
L 222.152727 154.049688 
L 226.210909 154.150992 
L 230.269091 154.223568 
L 234.327273 154.268928 
L 238.385455 154.291608 
L 242.443636 154.296144 
L 246.501818 154.284048 
L 250.56 154.258344 
L 254.618182 154.222056 
L 258.676364 154.176696 
L 262.734545 154.123776 
L 266.792727 154.06632 
L 270.850909 154.002816 
L 274.909091 153.9378 
L 278.967273 153.86976 
L 283.025455 153.803232 
L 287.083636 153.74124 
L 291.141818 153.694368 
L 295.2 153.677736 
L 299.258182 153.694368 
L 303.316364 153.74124 
L 307.374545 153.803232 
L 311.432727 153.86976 
L 315.490909 153.9378 
L 319.549091 154.002816 
L 323.607273 154.06632 
L 327.665455 154.123776 
L 331.723636 154.176696 
L 335.781818 154.222056 
L 339.84 154.258344 
L 343.898182 154.284048 
L 347.956364 154.296144 
L 352.014545 154.291608 
L 356.072727 154.268928 
L 360.130909 154.223568 
L 364.189091 154.150992 
L 368.247273 154.049688 
L 372.305455 153.912096 
L 376.363636 153.735192 
L 380.421818 153.515952 
L 384.48 153.24984 
L 388.538182 152.933832 
L 392.596364 152.566416 
L 396.654545 152.144568 
L 400.712727 151.668288 
L 404.770909 151.1406 
L 408.829091 150.563016 
L 412.887273 149.93856 
L 416.945455 149.271768 
L 421.003636 148.567176 
L 425.061818 147.830832 
L 429.12 147.06576 
L 433.178182 146.27952 
L 437.236364 145.476648 
L 441.294545 144.66168 
L 445.352727 143.840664 
L 449.410909 143.019648 
L 453.469091 142.206192 
L 457.527273 141.404832 
L 461.585455 140.626152 
L 465.643636 139.8762 
L 469.701818 139.167072 
L 473.76 138.510864 
L 477.818182 137.91816 
L 481.876364 137.405592 
L 485.934545 136.986768 
L 489.992727 136.675296 
L 494.050909 136.48176 
L 498.109091 136.416744 
" clip-path="url(#pca2b2ade5f)" style="fill: none; stroke: #000000; stroke-opacity: 0.5; stroke-linecap: square"/>
   </g>
   <g id="line2d_22">
    <path d="M 92.290909 123.835392 
L 96.349091 123.957864 
L 100.407273 124.299576 
L 104.465455 124.80912 
L 108.523636 125.438112 
L 112.581818 126.150264 
L 116.64 126.921384 
L 120.698182 127.737864 
L 124.756364 128.587608 
L 128.814545 129.461544 
L 132.872727 130.352112 
L 136.930909 131.254776 
L 140.989091 132.161976 
L 145.047273 133.0722 
L 149.105455 133.9794 
L 153.163636 134.883576 
L 157.221818 135.777168 
L 161.28 136.661688 
L 165.338182 137.5326 
L 169.396364 138.389904 
L 173.454545 139.230576 
L 177.512727 140.051592 
L 181.570909 140.854464 
L 185.629091 141.63768 
L 189.687273 142.398216 
L 193.745455 143.136072 
L 197.803636 143.849736 
L 201.861818 144.54072 
L 205.92 145.206 
L 209.978182 145.847088 
L 214.036364 146.46096 
L 218.094545 147.049128 
L 222.152727 147.611592 
L 226.210909 148.145328 
L 230.269091 148.65336 
L 234.327273 149.132664 
L 238.385455 149.586264 
L 242.443636 150.011136 
L 246.501818 150.408792 
L 250.56 150.779232 
L 254.618182 151.122456 
L 258.676364 151.438464 
L 262.734545 151.728768 
L 266.792727 151.991856 
L 270.850909 152.22924 
L 274.909091 152.44092 
L 278.967273 152.626896 
L 283.025455 152.785656 
L 287.083636 152.911152 
L 291.141818 152.995824 
L 295.2 153.026064 
L 299.258182 152.995824 
L 303.316364 152.911152 
L 307.374545 152.785656 
L 311.432727 152.626896 
L 315.490909 152.44092 
L 319.549091 152.22924 
L 323.607273 151.991856 
L 327.665455 151.728768 
L 331.723636 151.438464 
L 335.781818 151.122456 
L 339.84 150.779232 
L 343.898182 150.408792 
L 347.956364 150.011136 
L 352.014545 149.586264 
L 356.072727 149.132664 
L 360.130909 148.65336 
L 364.189091 148.145328 
L 368.247273 147.611592 
L 372.305455 147.049128 
L 376.363636 146.46096 
L 380.421818 145.847088 
L 384.48 145.206 
L 388.538182 144.54072 
L 392.596364 143.849736 
L 396.654545 143.136072 
L 400.712727 142.398216 
L 404.770909 141.63768 
L 408.829091 140.854464 
L 412.887273 140.051592 
L 416.945455 139.230576 
L 421.003636 138.389904 
L 425.061818 137.5326 
L 429.12 136.661688 
L 433.178182 135.777168 
L 437.236364 134.883576 
L 441.294545 133.9794 
L 445.352727 133.0722 
L 449.410909 132.161976 
L 453.469091 131.254776 
L 457.527273 130.352112 
L 461.585455 129.461544 
L 465.643636 128.587608 
L 469.701818 127.737864 
L 473.76 126.921384 
L 477.818182 126.150264 
L 481.876364 125.438112 
L 485.934545 124.80912 
L 489.992727 124.299576 
L 494.050909 123.957864 
L 498.109091 123.835392 
" clip-path="url(#pca2b2ade5f)" style="fill: none; stroke: #000000; stroke-opacity: 0.5; stroke-linecap: square"/>
   </g>
   <g id="line2d_23">
    <path d="M 92.290909 117.794952 
L 96.349091 117.660384 
L 100.407273 117.282384 
L 104.465455 116.71236 
L 108.523636 116.000208 
L 112.581818 115.182216 
L 116.64 114.282576 
L 120.698182 113.316408 
L 124.756364 112.295808 
L 128.814545 111.226824 
L 132.872727 110.118528 
L 136.930909 108.975456 
L 140.989091 107.802144 
L 145.047273 106.601616 
L 149.105455 105.378408 
L 153.163636 104.135544 
L 157.221818 102.876048 
L 161.28 101.602944 
L 165.338182 100.319256 
L 169.396364 99.02952 
L 173.454545 97.735248 
L 177.512727 96.442488 
L 181.570909 95.155776 
L 185.629091 93.882672 
L 189.687273 92.632248 
L 193.745455 91.412064 
L 197.803636 90.23724 
L 201.861818 89.12592 
L 205.92 88.09776 
L 209.978182 87.176952 
L 214.036364 86.3892 
L 218.094545 85.75416 
L 222.152727 85.283928 
L 226.210909 84.978504 
L 230.269091 84.82428 
L 234.327273 84.79404 
L 238.385455 84.865104 
L 242.443636 85.010256 
L 246.501818 85.206816 
L 250.56 85.433616 
L 254.618182 85.67856 
L 258.676364 85.926528 
L 262.734545 86.16996 
L 266.792727 86.398272 
L 270.850909 86.60844 
L 274.909091 86.792904 
L 278.967273 86.94864 
L 283.025455 87.072624 
L 287.083636 87.161832 
L 291.141818 87.216264 
L 295.2 87.234408 
L 299.258182 87.216264 
L 303.316364 87.161832 
L 307.374545 87.072624 
L 311.432727 86.94864 
L 315.490909 86.792904 
L 319.549091 86.60844 
L 323.607273 86.398272 
L 327.665455 86.16996 
L 331.723636 85.926528 
L 335.781818 85.67856 
L 339.84 85.433616 
L 343.898182 85.206816 
L 347.956364 85.010256 
L 352.014545 84.865104 
L 356.072727 84.79404 
L 360.130909 84.82428 
L 364.189091 84.978504 
L 368.247273 85.283928 
L 372.305455 85.75416 
L 376.363636 86.3892 
L 380.421818 87.176952 
L 384.48 88.09776 
L 388.538182 89.12592 
L 392.596364 90.23724 
L 396.654545 91.412064 
L 400.712727 92.632248 
L 404.770909 93.882672 
L 408.829091 95.155776 
L 412.887273 96.442488 
L 416.945455 97.735248 
L 421.003636 99.02952 
L 425.061818 100.319256 
L 429.12 101.602944 
L 433.178182 102.876048 
L 437.236364 104.135544 
L 441.294545 105.378408 
L 445.352727 106.601616 
L 449.410909 107.802144 
L 453.469091 108.975456 
L 457.527273 110.118528 
L 461.585455 111.226824 
L 465.643636 112.295808 
L 469.701818 113.316408 
L 473.76 114.282576 
L 477.818182 115.182216 
L 481.876364 116.000208 
L 485.934545 116.71236 
L 489.992727 117.282384 
L 494.050909 117.660384 
L 498.109091 117.794952 
" clip-path="url(#pca2b2ade5f)" style="fill: none; stroke: #000000; stroke-opacity: 0.5; stroke-linecap: square"/>
   </g>
   <g id="patch_3">
    <path d="M 72 384.48 
L 72 51.84 
" style="fill: none; stroke: #000000; stroke-width: 0.8; stroke-linejoin: miter; stroke-linecap: square"/>
   </g>
   <g id="patch_4">
    <path d="M 518.4 384.48 
L 518.4 51.84 
" style="fill: none; stroke: #000000; stroke-width: 0.8; stroke-linejoin: miter; stroke-linecap: square"/>
   </g>
   <g id="patch_5">
    <path d="M 72 384.48 
L 518.4 384.48 
" style="fill: none; stroke: #000000; stroke-width: 0.8; stroke-linejoin: miter; stroke-linecap: square"/>
   </g>
   <g id="patch_6">
    <path d="M 72 51.84 
L 518.4 51.84 
" style="fill: none; stroke: #000000; stroke-width: 0.8; stroke-linejoin: miter; stroke-linecap: square"/>
   </g>
  </g>
 </g>
 <defs>
  <clipPath id="pca2b2ade5f">
   <rect x="72" y="51.84" width="446.4" height="332.64"/>
  </clipPath>
 </defs>
</svg>
