<?xml version="1.0" encoding="utf-8" standalone="no"?>
<!DOCTYPE svg PUBLIC "-//W3C//DTD SVG 1.1//EN"
  "http://www.w3.org/Graphics/SVG/1.1/DTD/svg11.dtd">
<svg xmlns:xlink="http://www.w3.org/1999/xlink" width="576pt" height="432pt" viewBox="0 0 576 432" xmlns="http://www.w3.org/2000/svg" version="1.1">
 <metadata>
  <rdf:RDF xmlns:dc="http://purl.org/dc/elements/1.1/" xmlns:cc="http://creativecommons.org/ns#" xmlns:rdf="http://www.w3.org/1999/02/22-rdf-syntax-ns#">
   <cc:Work>
    <dc:type rdf:resource="http://purl.org/dc/dcmitype/StillImage"/>
    <dc:date>2023-05-02T14:34:52.400586</dc:date>
    <dc:format>image/svg+xml</dc:format>
    <dc:creator>
     <cc:Agent>
      <dc:title>Matplotlib v3.7.1, https://matplotlib.org/</dc:title>
     </cc:Agent>
    </dc:creator>
   </cc:Work>
  </rdf:RDF>
 </metadata>
 <defs>
  <style type="text/css">*{stroke-linejoin: round; stroke-linecap: butt}</style>
 </defs>
 <g id="figure_1">
  <g id="patch_1">
   <path d="M 0 432 
L 576 432 
L 576 0 
L 0 0 
z
" style="fill: #ffffff"/>
  </g>
  <g id="axes_1">
   <g id="patch_2">
    <path d="M 72 384.48 
L 518.4 384.48 
L 518.4 51.84 
L 72 51.84 
z
" style="fill: #ffffff"/>
   </g>
   <g id="matplotlib.axis_1">
    <g id="xtick_1">
     <g id="line2d_1">
      <defs>
       <path id="ma00ab41800" d="M 0 0 
L 0 3.5 
" style="stroke: #000000; stroke-width: 0.8"/>
      </defs>
      <g>
       <use xlink:href="#ma00ab41800" x="92.290909" y="384.48" style="stroke: #000000; stroke-width: 0.8"/>
      </g>
     </g>
     <g id="text_1">
      <!-- 0.0 -->
      <g transform="translate(84.339347 399.078438) scale(0.1 -0.1)">
       <defs>
        <path id="DejaVuSans-30" d="M 2034 4250 
Q 1547 4250 1301 3770 
Q 1056 3291 1056 2328 
Q 1056 1369 1301 889 
Q 1547 409 2034 409 
Q 2525 409 2770 889 
Q 3016 1369 3016 2328 
Q 3016 3291 2770 3770 
Q 2525 4250 2034 4250 
z
M 2034 4750 
Q 2819 4750 3233 4129 
Q 3647 3509 3647 2328 
Q 3647 1150 3233 529 
Q 2819 -91 2034 -91 
Q 1250 -91 836 529 
Q 422 1150 422 2328 
Q 422 3509 836 4129 
Q 1250 4750 2034 4750 
z
" transform="scale(0.015625)"/>
        <path id="DejaVuSans-2e" d="M 684 794 
L 1344 794 
L 1344 0 
L 684 0 
L 684 794 
z
" transform="scale(0.015625)"/>
       </defs>
       <use xlink:href="#DejaVuSans-30"/>
       <use xlink:href="#DejaVuSans-2e" x="63.623047"/>
       <use xlink:href="#DejaVuSans-30" x="95.410156"/>
      </g>
     </g>
    </g>
    <g id="xtick_2">
     <g id="line2d_2">
      <g>
       <use xlink:href="#ma00ab41800" x="173.454545" y="384.48" style="stroke: #000000; stroke-width: 0.8"/>
      </g>
     </g>
     <g id="text_2">
      <!-- 0.2 -->
      <g transform="translate(165.502983 399.078438) scale(0.1 -0.1)">
       <defs>
        <path id="DejaVuSans-32" d="M 1228 531 
L 3431 531 
L 3431 0 
L 469 0 
L 469 531 
Q 828 903 1448 1529 
Q 2069 2156 2228 2338 
Q 2531 2678 2651 2914 
Q 2772 3150 2772 3378 
Q 2772 3750 2511 3984 
Q 2250 4219 1831 4219 
Q 1534 4219 1204 4116 
Q 875 4013 500 3803 
L 500 4441 
Q 881 4594 1212 4672 
Q 1544 4750 1819 4750 
Q 2544 4750 2975 4387 
Q 3406 4025 3406 3419 
Q 3406 3131 3298 2873 
Q 3191 2616 2906 2266 
Q 2828 2175 2409 1742 
Q 1991 1309 1228 531 
z
" transform="scale(0.015625)"/>
       </defs>
       <use xlink:href="#DejaVuSans-30"/>
       <use xlink:href="#DejaVuSans-2e" x="63.623047"/>
       <use xlink:href="#DejaVuSans-32" x="95.410156"/>
      </g>
     </g>
    </g>
    <g id="xtick_3">
     <g id="line2d_3">
      <g>
       <use xlink:href="#ma00ab41800" x="254.618182" y="384.48" style="stroke: #000000; stroke-width: 0.8"/>
      </g>
     </g>
     <g id="text_3">
      <!-- 0.4 -->
      <g transform="translate(246.666619 399.078438) scale(0.1 -0.1)">
       <defs>
        <path id="DejaVuSans-34" d="M 2419 4116 
L 825 1625 
L 2419 1625 
L 2419 4116 
z
M 2253 4666 
L 3047 4666 
L 3047 1625 
L 3713 1625 
L 3713 1100 
L 3047 1100 
L 3047 0 
L 2419 0 
L 2419 1100 
L 313 1100 
L 313 1709 
L 2253 4666 
z
" transform="scale(0.015625)"/>
       </defs>
       <use xlink:href="#DejaVuSans-30"/>
       <use xlink:href="#DejaVuSans-2e" x="63.623047"/>
       <use xlink:href="#DejaVuSans-34" x="95.410156"/>
      </g>
     </g>
    </g>
    <g id="xtick_4">
     <g id="line2d_4">
      <g>
       <use xlink:href="#ma00ab41800" x="335.781818" y="384.48" style="stroke: #000000; stroke-width: 0.8"/>
      </g>
     </g>
     <g id="text_4">
      <!-- 0.6 -->
      <g transform="translate(327.830256 399.078438) scale(0.1 -0.1)">
       <defs>
        <path id="DejaVuSans-36" d="M 2113 2584 
Q 1688 2584 1439 2293 
Q 1191 2003 1191 1497 
Q 1191 994 1439 701 
Q 1688 409 2113 409 
Q 2538 409 2786 701 
Q 3034 994 3034 1497 
Q 3034 2003 2786 2293 
Q 2538 2584 2113 2584 
z
M 3366 4563 
L 3366 3988 
Q 3128 4100 2886 4159 
Q 2644 4219 2406 4219 
Q 1781 4219 1451 3797 
Q 1122 3375 1075 2522 
Q 1259 2794 1537 2939 
Q 1816 3084 2150 3084 
Q 2853 3084 3261 2657 
Q 3669 2231 3669 1497 
Q 3669 778 3244 343 
Q 2819 -91 2113 -91 
Q 1303 -91 875 529 
Q 447 1150 447 2328 
Q 447 3434 972 4092 
Q 1497 4750 2381 4750 
Q 2619 4750 2861 4703 
Q 3103 4656 3366 4563 
z
" transform="scale(0.015625)"/>
       </defs>
       <use xlink:href="#DejaVuSans-30"/>
       <use xlink:href="#DejaVuSans-2e" x="63.623047"/>
       <use xlink:href="#DejaVuSans-36" x="95.410156"/>
      </g>
     </g>
    </g>
    <g id="xtick_5">
     <g id="line2d_5">
      <g>
       <use xlink:href="#ma00ab41800" x="416.945455" y="384.48" style="stroke: #000000; stroke-width: 0.8"/>
      </g>
     </g>
     <g id="text_5">
      <!-- 0.8 -->
      <g transform="translate(408.993892 399.078438) scale(0.1 -0.1)">
       <defs>
        <path id="DejaVuSans-38" d="M 2034 2216 
Q 1584 2216 1326 1975 
Q 1069 1734 1069 1313 
Q 1069 891 1326 650 
Q 1584 409 2034 409 
Q 2484 409 2743 651 
Q 3003 894 3003 1313 
Q 3003 1734 2745 1975 
Q 2488 2216 2034 2216 
z
M 1403 2484 
Q 997 2584 770 2862 
Q 544 3141 544 3541 
Q 544 4100 942 4425 
Q 1341 4750 2034 4750 
Q 2731 4750 3128 4425 
Q 3525 4100 3525 3541 
Q 3525 3141 3298 2862 
Q 3072 2584 2669 2484 
Q 3125 2378 3379 2068 
Q 3634 1759 3634 1313 
Q 3634 634 3220 271 
Q 2806 -91 2034 -91 
Q 1263 -91 848 271 
Q 434 634 434 1313 
Q 434 1759 690 2068 
Q 947 2378 1403 2484 
z
M 1172 3481 
Q 1172 3119 1398 2916 
Q 1625 2713 2034 2713 
Q 2441 2713 2670 2916 
Q 2900 3119 2900 3481 
Q 2900 3844 2670 4047 
Q 2441 4250 2034 4250 
Q 1625 4250 1398 4047 
Q 1172 3844 1172 3481 
z
" transform="scale(0.015625)"/>
       </defs>
       <use xlink:href="#DejaVuSans-30"/>
       <use xlink:href="#DejaVuSans-2e" x="63.623047"/>
       <use xlink:href="#DejaVuSans-38" x="95.410156"/>
      </g>
     </g>
    </g>
    <g id="xtick_6">
     <g id="line2d_6">
      <g>
       <use xlink:href="#ma00ab41800" x="498.109091" y="384.48" style="stroke: #000000; stroke-width: 0.8"/>
      </g>
     </g>
     <g id="text_6">
      <!-- 1.0 -->
      <g transform="translate(490.157528 399.078438) scale(0.1 -0.1)">
       <defs>
        <path id="DejaVuSans-31" d="M 794 531 
L 1825 531 
L 1825 4091 
L 703 3866 
L 703 4441 
L 1819 4666 
L 2450 4666 
L 2450 531 
L 3481 531 
L 3481 0 
L 794 0 
L 794 531 
z
" transform="scale(0.015625)"/>
       </defs>
       <use xlink:href="#DejaVuSans-31"/>
       <use xlink:href="#DejaVuSans-2e" x="63.623047"/>
       <use xlink:href="#DejaVuSans-30" x="95.410156"/>
      </g>
     </g>
    </g>
   </g>
   <g id="matplotlib.axis_2">
    <g id="ytick_1">
     <g id="line2d_7">
      <defs>
       <path id="m704c194a41" d="M 0 0 
L -3.5 0 
" style="stroke: #000000; stroke-width: 0.8"/>
      </defs>
      <g>
       <use xlink:href="#m704c194a41" x="72" y="369.36" style="stroke: #000000; stroke-width: 0.8"/>
      </g>
     </g>
     <g id="text_7">
      <!-- −5.0 -->
      <g transform="translate(40.717187 373.159219) scale(0.1 -0.1)">
       <defs>
        <path id="DejaVuSans-2212" d="M 678 2272 
L 4684 2272 
L 4684 1741 
L 678 1741 
L 678 2272 
z
" transform="scale(0.015625)"/>
        <path id="DejaVuSans-35" d="M 691 4666 
L 3169 4666 
L 3169 4134 
L 1269 4134 
L 1269 2991 
Q 1406 3038 1543 3061 
Q 1681 3084 1819 3084 
Q 2600 3084 3056 2656 
Q 3513 2228 3513 1497 
Q 3513 744 3044 326 
Q 2575 -91 1722 -91 
Q 1428 -91 1123 -41 
Q 819 9 494 109 
L 494 744 
Q 775 591 1075 516 
Q 1375 441 1709 441 
Q 2250 441 2565 725 
Q 2881 1009 2881 1497 
Q 2881 1984 2565 2268 
Q 2250 2553 1709 2553 
Q 1456 2553 1204 2497 
Q 953 2441 691 2322 
L 691 4666 
z
" transform="scale(0.015625)"/>
       </defs>
       <use xlink:href="#DejaVuSans-2212"/>
       <use xlink:href="#DejaVuSans-35" x="83.789062"/>
       <use xlink:href="#DejaVuSans-2e" x="147.412109"/>
       <use xlink:href="#DejaVuSans-30" x="179.199219"/>
      </g>
     </g>
    </g>
    <g id="ytick_2">
     <g id="line2d_8">
      <g>
       <use xlink:href="#m704c194a41" x="72" y="331.56" style="stroke: #000000; stroke-width: 0.8"/>
      </g>
     </g>
     <g id="text_8">
      <!-- −2.5 -->
      <g transform="translate(40.717187 335.359219) scale(0.1 -0.1)">
       <use xlink:href="#DejaVuSans-2212"/>
       <use xlink:href="#DejaVuSans-32" x="83.789062"/>
       <use xlink:href="#DejaVuSans-2e" x="147.412109"/>
       <use xlink:href="#DejaVuSans-35" x="179.199219"/>
      </g>
     </g>
    </g>
    <g id="ytick_3">
     <g id="line2d_9">
      <g>
       <use xlink:href="#m704c194a41" x="72" y="293.76" style="stroke: #000000; stroke-width: 0.8"/>
      </g>
     </g>
     <g id="text_9">
      <!-- 0.0 -->
      <g transform="translate(49.096875 297.559219) scale(0.1 -0.1)">
       <use xlink:href="#DejaVuSans-30"/>
       <use xlink:href="#DejaVuSans-2e" x="63.623047"/>
       <use xlink:href="#DejaVuSans-30" x="95.410156"/>
      </g>
     </g>
    </g>
    <g id="ytick_4">
     <g id="line2d_10">
      <g>
       <use xlink:href="#m704c194a41" x="72" y="255.96" style="stroke: #000000; stroke-width: 0.8"/>
      </g>
     </g>
     <g id="text_10">
      <!-- 2.5 -->
      <g transform="translate(49.096875 259.759219) scale(0.1 -0.1)">
       <use xlink:href="#DejaVuSans-32"/>
       <use xlink:href="#DejaVuSans-2e" x="63.623047"/>
       <use xlink:href="#DejaVuSans-35" x="95.410156"/>
      </g>
     </g>
    </g>
    <g id="ytick_5">
     <g id="line2d_11">
      <g>
       <use xlink:href="#m704c194a41" x="72" y="218.16" style="stroke: #000000; stroke-width: 0.8"/>
      </g>
     </g>
     <g id="text_11">
      <!-- 5.0 -->
      <g transform="translate(49.096875 221.959219) scale(0.1 -0.1)">
       <use xlink:href="#DejaVuSans-35"/>
       <use xlink:href="#DejaVuSans-2e" x="63.623047"/>
       <use xlink:href="#DejaVuSans-30" x="95.410156"/>
      </g>
     </g>
    </g>
    <g id="ytick_6">
     <g id="line2d_12">
      <g>
       <use xlink:href="#m704c194a41" x="72" y="180.36" style="stroke: #000000; stroke-width: 0.8"/>
      </g>
     </g>
     <g id="text_12">
      <!-- 7.5 -->
      <g transform="translate(49.096875 184.159219) scale(0.1 -0.1)">
       <defs>
        <path id="DejaVuSans-37" d="M 525 4666 
L 3525 4666 
L 3525 4397 
L 1831 0 
L 1172 0 
L 2766 4134 
L 525 4134 
L 525 4666 
z
" transform="scale(0.015625)"/>
       </defs>
       <use xlink:href="#DejaVuSans-37"/>
       <use xlink:href="#DejaVuSans-2e" x="63.623047"/>
       <use xlink:href="#DejaVuSans-35" x="95.410156"/>
      </g>
     </g>
    </g>
    <g id="ytick_7">
     <g id="line2d_13">
      <g>
       <use xlink:href="#m704c194a41" x="72" y="142.56" style="stroke: #000000; stroke-width: 0.8"/>
      </g>
     </g>
     <g id="text_13">
      <!-- 10.0 -->
      <g transform="translate(42.734375 146.359219) scale(0.1 -0.1)">
       <use xlink:href="#DejaVuSans-31"/>
       <use xlink:href="#DejaVuSans-30" x="63.623047"/>
       <use xlink:href="#DejaVuSans-2e" x="127.246094"/>
       <use xlink:href="#DejaVuSans-30" x="159.033203"/>
      </g>
     </g>
    </g>
    <g id="ytick_8">
     <g id="line2d_14">
      <g>
       <use xlink:href="#m704c194a41" x="72" y="104.76" style="stroke: #000000; stroke-width: 0.8"/>
      </g>
     </g>
     <g id="text_14">
      <!-- 12.5 -->
      <g transform="translate(42.734375 108.559219) scale(0.1 -0.1)">
       <use xlink:href="#DejaVuSans-31"/>
       <use xlink:href="#DejaVuSans-32" x="63.623047"/>
       <use xlink:href="#DejaVuSans-2e" x="127.246094"/>
       <use xlink:href="#DejaVuSans-35" x="159.033203"/>
      </g>
     </g>
    </g>
    <g id="ytick_9">
     <g id="line2d_15">
      <g>
       <use xlink:href="#m704c194a41" x="72" y="66.96" style="stroke: #000000; stroke-width: 0.8"/>
      </g>
     </g>
     <g id="text_15">
      <!-- 15.0 -->
      <g transform="translate(42.734375 70.759219) scale(0.1 -0.1)">
       <use xlink:href="#DejaVuSans-31"/>
       <use xlink:href="#DejaVuSans-35" x="63.623047"/>
       <use xlink:href="#DejaVuSans-2e" x="127.246094"/>
       <use xlink:href="#DejaVuSans-30" x="159.033203"/>
      </g>
     </g>
    </g>
   </g>
   <g id="line2d_16">
    <path d="M 92.290909 379.682424 
L 96.349091 379.676376 
L 100.407273 379.65672 
L 104.465455 379.624968 
L 108.523636 379.579608 
L 112.581818 379.522152 
L 116.64 379.4526 
L 120.698182 379.36944 
L 124.756364 379.272672 
L 128.814545 379.163808 
L 132.872727 379.042848 
L 136.930909 378.90828 
L 140.989091 378.761616 
L 145.047273 378.601344 
L 149.105455 378.428976 
L 153.163636 378.243 
L 157.221818 378.044928 
L 161.28 377.83476 
L 165.338182 377.610984 
L 169.396364 377.375112 
L 173.454545 377.127144 
L 177.512727 376.865568 
L 181.570909 376.591896 
L 185.629091 376.304616 
L 189.687273 376.00524 
L 193.745455 375.693768 
L 197.803636 375.368688 
L 201.861818 375.033024 
L 205.92 374.683752 
L 209.978182 374.320872 
L 214.036364 373.947408 
L 218.094545 373.560336 
L 222.152727 373.161168 
L 226.210909 372.749904 
L 230.269091 372.325032 
L 234.327273 371.889576 
L 238.385455 371.440512 
L 242.443636 370.980864 
L 246.501818 370.507608 
L 250.56 370.022256 
L 254.618182 369.524808 
L 258.676364 369.015264 
L 262.734545 368.493624 
L 266.792727 367.959888 
L 270.850909 367.415568 
L 274.909091 366.85764 
L 278.967273 366.287616 
L 283.025455 365.707008 
L 287.083636 365.114304 
L 291.141818 364.509504 
L 295.2 363.892608 
L 299.258182 363.263616 
L 303.316364 362.62404 
L 307.374545 361.972368 
L 311.432727 361.310112 
L 315.490909 360.63576 
L 319.549091 359.949312 
L 323.607273 359.25228 
L 327.665455 358.544664 
L 331.723636 357.824952 
L 335.781818 357.093144 
L 339.84 356.352264 
L 343.898182 355.599288 
L 347.956364 354.835728 
L 352.014545 354.061584 
L 356.072727 353.275344 
L 360.130909 352.480032 
L 364.189091 351.672624 
L 368.247273 350.856144 
L 372.305455 350.027568 
L 376.363636 349.18992 
L 380.421818 348.341688 
L 384.48 347.482872 
L 388.538182 346.614984 
L 392.596364 345.736512 
L 396.654545 344.847456 
L 400.712727 343.949328 
L 404.770909 343.042128 
L 408.829091 342.124344 
L 412.887273 341.197488 
L 416.945455 340.26156 
L 421.003636 339.31656 
L 425.061818 338.362488 
L 429.12 337.399344 
L 433.178182 336.427128 
L 437.236364 335.44584 
L 441.294545 334.456992 
L 445.352727 333.460584 
L 449.410909 332.455104 
L 453.469091 331.442064 
L 457.527273 330.422976 
L 461.585455 329.394816 
L 465.643636 328.360608 
L 469.701818 327.320352 
L 473.76 326.274048 
L 477.818182 325.22472 
L 481.876364 324.172368 
L 485.934545 323.124552 
L 489.992727 322.09488 
L 494.050909 321.14232 
L 498.109091 320.611608 
" clip-path="url(#p1fbc747890)" style="fill: none; stroke: #000000; stroke-opacity: 0.5; stroke-linecap: square"/>
   </g>
   <g id="line2d_17">
    <path d="M 92.290909 215.55936 
L 96.349091 215.663688 
L 100.407273 215.963064 
L 104.465455 216.418176 
L 108.523636 216.994248 
L 112.581818 217.656504 
L 116.64 218.382264 
L 120.698182 219.159432 
L 124.756364 219.9744 
L 128.814545 220.819608 
L 132.872727 221.69052 
L 136.930909 222.581088 
L 140.989091 223.4898 
L 145.047273 224.413632 
L 149.105455 225.34956 
L 153.163636 226.296072 
L 157.221818 227.253168 
L 161.28 228.216312 
L 165.338182 229.188528 
L 169.396364 230.166792 
L 173.454545 231.151104 
L 177.512727 232.139952 
L 181.570909 233.133336 
L 185.629091 234.131256 
L 189.687273 235.1322 
L 193.745455 236.13768 
L 197.803636 237.146184 
L 201.861818 238.157712 
L 205.92 239.172264 
L 209.978182 240.18984 
L 214.036364 241.21044 
L 218.094545 242.234064 
L 222.152727 243.260712 
L 226.210909 244.290384 
L 230.269091 245.321568 
L 234.327273 246.357288 
L 238.385455 247.396032 
L 242.443636 248.4378 
L 246.501818 249.484104 
L 250.56 250.53192 
L 254.618182 251.584272 
L 258.676364 252.64116 
L 262.734545 253.701072 
L 266.792727 254.76552 
L 270.850909 255.834504 
L 274.909091 256.906512 
L 278.967273 257.983056 
L 283.025455 259.065648 
L 287.083636 260.151264 
L 291.141818 261.241416 
L 295.2 262.336104 
L 299.258182 263.43684 
L 303.316364 264.5406 
L 307.374545 265.650408 
L 311.432727 266.764752 
L 315.490909 267.88212 
L 319.549091 269.005536 
L 323.607273 270.131976 
L 327.665455 271.264464 
L 331.723636 272.399976 
L 335.781818 273.540024 
L 339.84 274.683096 
L 343.898182 275.830704 
L 347.956364 276.982848 
L 352.014545 278.136504 
L 356.072727 279.294696 
L 360.130909 280.4544 
L 364.189091 281.61864 
L 368.247273 282.78288 
L 372.305455 283.951656 
L 376.363636 285.120432 
L 380.421818 286.292232 
L 384.48 287.464032 
L 388.538182 288.638856 
L 392.596364 289.812168 
L 396.654545 290.986992 
L 400.712727 292.163328 
L 404.770909 293.338152 
L 408.829091 294.512976 
L 412.887273 295.686288 
L 416.945455 296.8596 
L 421.003636 298.0314 
L 425.061818 299.201688 
L 429.12 300.368952 
L 433.178182 301.536216 
L 437.236364 302.698944 
L 441.294545 303.86016 
L 445.352727 305.018352 
L 449.410909 306.172008 
L 453.469091 307.32264 
L 457.527273 308.470248 
L 461.585455 309.611808 
L 465.643636 310.748832 
L 469.701818 311.879808 
L 473.76 313.004736 
L 477.818182 314.122104 
L 481.876364 315.227376 
L 485.934545 316.31904 
L 489.992727 317.378952 
L 494.050909 318.349656 
L 498.109091 318.886416 
" clip-path="url(#p1fbc747890)" style="fill: none; stroke: #000000; stroke-opacity: 0.5; stroke-linecap: square"/>
   </g>
   <g id="line2d_18">
    <path d="M 92.290909 209.887848 
L 96.349091 209.827368 
L 100.407273 209.661048 
L 104.465455 209.43576 
L 108.523636 209.207448 
L 112.581818 209.036592 
L 116.64 208.979136 
L 120.698182 209.059272 
L 124.756364 209.263392 
L 128.814545 209.56428 
L 132.872727 209.936232 
L 136.930909 210.361104 
L 140.989091 210.829824 
L 145.047273 211.336344 
L 149.105455 211.871592 
L 153.163636 212.432544 
L 157.221818 213.017688 
L 161.28 213.622488 
L 165.338182 214.24392 
L 169.396364 214.880472 
L 173.454545 215.52912 
L 177.512727 216.189864 
L 181.570909 216.85968 
L 185.629091 217.535544 
L 189.687273 218.218968 
L 193.745455 218.90844 
L 197.803636 219.600936 
L 201.861818 220.296456 
L 205.92 220.995 
L 209.978182 221.693544 
L 214.036364 222.3936 
L 218.094545 223.093656 
L 222.152727 223.7922 
L 226.210909 224.490744 
L 230.269091 225.186264 
L 234.327273 225.880272 
L 238.385455 226.571256 
L 242.443636 227.259216 
L 246.501818 227.94264 
L 250.56 228.62304 
L 254.618182 229.300416 
L 258.676364 229.971744 
L 262.734545 230.640048 
L 266.792727 231.302304 
L 270.850909 231.960024 
L 274.909091 232.611696 
L 278.967273 233.258832 
L 283.025455 233.89992 
L 287.083636 234.53496 
L 291.141818 235.16244 
L 295.2 235.785384 
L 299.258182 236.399256 
L 303.316364 237.008592 
L 307.374545 237.608856 
L 311.432727 238.20156 
L 315.490909 238.786704 
L 319.549091 239.364288 
L 323.607273 239.9328 
L 327.665455 240.49224 
L 331.723636 241.042608 
L 335.781818 241.582392 
L 339.84 242.113104 
L 343.898182 242.634744 
L 347.956364 243.144288 
L 352.014545 243.643248 
L 356.072727 244.131624 
L 360.130909 244.609416 
L 364.189091 245.0736 
L 368.247273 245.5272 
L 372.305455 245.968704 
L 376.363636 246.3966 
L 380.421818 246.8124 
L 384.48 247.216104 
L 388.538182 247.6062 
L 392.596364 247.982688 
L 396.654545 248.34708 
L 400.712727 248.696352 
L 404.770909 249.033528 
L 408.829091 249.355584 
L 412.887273 249.664032 
L 416.945455 249.960384 
L 421.003636 250.240104 
L 425.061818 250.507728 
L 429.12 250.760232 
L 433.178182 250.999128 
L 437.236364 251.222904 
L 441.294545 251.433072 
L 445.352727 251.629632 
L 449.410909 251.80956 
L 453.469091 251.977392 
L 457.527273 252.130104 
L 461.585455 252.267696 
L 465.643636 252.39168 
L 469.701818 252.500544 
L 473.76 252.594288 
L 477.818182 252.674424 
L 481.876364 252.73944 
L 485.934545 252.790848 
L 489.992727 252.827136 
L 494.050909 252.849816 
L 498.109091 252.855864 
" clip-path="url(#p1fbc747890)" style="fill: none; stroke: #000000; stroke-opacity: 0.5; stroke-linecap: square"/>
   </g>
   <g id="line2d_19">
    <path d="M 92.290909 206.776152 
L 96.349091 206.791272 
L 100.407273 206.83512 
L 104.465455 206.897112 
L 108.523636 206.960616 
L 112.581818 206.99388 
L 116.64 206.966664 
L 120.698182 206.86536 
L 124.756364 206.717184 
L 128.814545 206.553888 
L 132.872727 206.407224 
L 136.930909 206.296848 
L 140.989091 206.233344 
L 145.047273 206.224272 
L 149.105455 206.274168 
L 153.163636 206.384544 
L 157.221818 206.558424 
L 161.28 206.792784 
L 165.338182 207.087624 
L 169.396364 207.438408 
L 173.454545 207.843624 
L 177.512727 208.300248 
L 181.570909 208.805256 
L 185.629091 209.351088 
L 189.687273 209.937744 
L 193.745455 210.559176 
L 197.803636 211.21236 
L 201.861818 211.894272 
L 205.92 212.600376 
L 209.978182 213.326136 
L 214.036364 214.071552 
L 218.094545 214.832088 
L 222.152727 215.60472 
L 226.210909 216.387936 
L 230.269091 217.178712 
L 234.327273 217.974024 
L 238.385455 218.773872 
L 242.443636 219.575232 
L 246.501818 220.376592 
L 250.56 221.17644 
L 254.618182 221.973264 
L 258.676364 222.76404 
L 262.734545 223.55028 
L 266.792727 224.330472 
L 270.850909 225.101592 
L 274.909091 225.86364 
L 278.967273 226.615104 
L 283.025455 227.357496 
L 287.083636 228.087792 
L 291.141818 228.80448 
L 295.2 229.509072 
L 299.258182 230.201568 
L 303.316364 230.878944 
L 307.374545 231.542712 
L 311.432727 232.19136 
L 315.490909 232.824888 
L 319.549091 233.444808 
L 323.607273 234.048096 
L 327.665455 234.637776 
L 331.723636 235.210824 
L 335.781818 235.768752 
L 339.84 236.31156 
L 343.898182 236.839248 
L 347.956364 237.350304 
L 352.014545 237.847752 
L 356.072727 238.33008 
L 360.130909 238.795776 
L 364.189091 239.247864 
L 368.247273 239.684832 
L 372.305455 240.108192 
L 376.363636 240.51492 
L 380.421818 240.909552 
L 384.48 241.287552 
L 388.538182 241.653456 
L 392.596364 242.00424 
L 396.654545 242.341416 
L 400.712727 242.663472 
L 404.770909 242.973432 
L 408.829091 243.268272 
L 412.887273 243.549504 
L 416.945455 243.81864 
L 421.003636 244.074168 
L 425.061818 244.314576 
L 429.12 244.542888 
L 433.178182 244.757592 
L 437.236364 244.958688 
L 441.294545 245.147688 
L 445.352727 245.32308 
L 449.410909 245.484864 
L 453.469091 245.634552 
L 457.527273 245.770632 
L 461.585455 245.893104 
L 465.643636 246.00348 
L 469.701818 246.100248 
L 473.76 246.183408 
L 477.818182 246.254472 
L 481.876364 246.31344 
L 485.934545 246.357288 
L 489.992727 246.390552 
L 494.050909 246.410208 
L 498.109091 246.416256 
" clip-path="url(#p1fbc747890)" style="fill: none; stroke: #000000; stroke-opacity: 0.5; stroke-linecap: square"/>
   </g>
   <g id="line2d_20">
    <path d="M 92.290909 167.22072 
L 96.349091 167.193504 
L 100.407273 167.110344 
L 104.465455 166.975776 
L 108.523636 166.792824 
L 112.581818 166.567536 
L 116.64 166.308984 
L 120.698182 166.029264 
L 124.756364 165.748032 
L 128.814545 165.48948 
L 132.872727 165.276288 
L 136.930909 165.123576 
L 140.989091 165.017736 
L 145.047273 164.942136 
L 149.105455 164.875608 
L 153.163636 164.81664 
L 157.221818 164.77128 
L 161.28 164.754648 
L 165.338182 164.789424 
L 169.396364 164.893752 
L 173.454545 165.072168 
L 177.512727 165.317112 
L 181.570909 165.619512 
L 185.629091 165.967272 
L 189.687273 166.349808 
L 193.745455 166.75956 
L 197.803636 167.191992 
L 201.861818 167.641056 
L 205.92 168.10524 
L 209.978182 168.580008 
L 214.036364 169.06536 
L 218.094545 169.55676 
L 222.152727 170.052696 
L 226.210909 170.55468 
L 230.269091 171.059688 
L 234.327273 171.564696 
L 238.385455 172.072728 
L 242.443636 172.579248 
L 246.501818 173.085768 
L 250.56 173.589264 
L 254.618182 174.091248 
L 258.676364 174.59172 
L 262.734545 175.086144 
L 266.792727 175.579056 
L 270.850909 176.06592 
L 274.909091 176.546736 
L 278.967273 177.023016 
L 283.025455 177.493248 
L 287.083636 177.957432 
L 291.141818 178.415568 
L 295.2 178.864632 
L 299.258182 179.307648 
L 303.316364 179.741592 
L 307.374545 180.169488 
L 311.432727 180.5868 
L 315.490909 180.996552 
L 319.549091 181.397232 
L 323.607273 181.78884 
L 327.665455 182.171376 
L 331.723636 182.543328 
L 335.781818 182.906208 
L 339.84 183.260016 
L 343.898182 183.601728 
L 347.956364 183.934368 
L 352.014545 184.256424 
L 356.072727 184.567896 
L 360.130909 184.868784 
L 364.189091 185.159088 
L 368.247273 185.438808 
L 372.305455 185.707944 
L 376.363636 185.964984 
L 380.421818 186.21144 
L 384.48 186.447312 
L 388.538182 186.671088 
L 392.596364 186.88428 
L 396.654545 187.086888 
L 400.712727 187.2774 
L 404.770909 187.457328 
L 408.829091 187.626672 
L 412.887273 187.785432 
L 416.945455 187.933608 
L 421.003636 188.0712 
L 425.061818 188.198208 
L 429.12 188.314632 
L 433.178182 188.421984 
L 437.236364 188.520264 
L 441.294545 188.60796 
L 445.352727 188.688096 
L 449.410909 188.75916 
L 453.469091 188.821152 
L 457.527273 188.877096 
L 461.585455 188.92548 
L 465.643636 188.966304 
L 469.701818 189.00108 
L 473.76 189.03132 
L 477.818182 189.054 
L 481.876364 189.073656 
L 485.934545 189.087264 
L 489.992727 189.097848 
L 494.050909 189.103896 
L 498.109091 189.105408 
" clip-path="url(#p1fbc747890)" style="fill: none; stroke: #000000; stroke-opacity: 0.5; stroke-linecap: square"/>
   </g>
   <g id="line2d_21">
    <path d="M 92.290909 160.632936 
L 96.349091 160.758432 
L 100.407273 161.030592 
L 104.465455 161.352648 
L 108.523636 161.6868 
L 112.581818 162.010368 
L 116.64 162.303696 
L 120.698182 162.547128 
L 124.756364 162.72252 
L 128.814545 162.807192 
L 132.872727 162.779976 
L 136.930909 162.648432 
L 140.989091 162.441288 
L 145.047273 162.216 
L 149.105455 162.023976 
L 153.163636 161.886384 
L 157.221818 161.791128 
L 161.28 161.69436 
L 165.338182 161.556768 
L 169.396364 161.340552 
L 173.454545 161.030592 
L 177.512727 160.629912 
L 181.570909 160.143048 
L 185.629091 159.582096 
L 189.687273 158.959152 
L 193.745455 158.278752 
L 197.803636 157.55148 
L 201.861818 156.783384 
L 205.92 155.980512 
L 209.978182 155.1474 
L 214.036364 154.290096 
L 218.094545 153.414648 
L 222.152727 152.527104 
L 226.210909 151.632 
L 230.269091 150.741432 
L 234.327273 149.861448 
L 238.385455 149.00868 
L 242.443636 148.19976 
L 246.501818 147.461904 
L 250.56 146.828376 
L 254.618182 146.344536 
L 258.676364 146.06028 
L 262.734545 146.011896 
L 266.792727 146.208456 
L 270.850909 146.624256 
L 274.909091 147.215448 
L 278.967273 147.933648 
L 283.025455 148.742568 
L 287.083636 149.611968 
L 291.141818 150.522192 
L 295.2 151.459632 
L 299.258182 152.413704 
L 303.316364 153.376848 
L 307.374545 154.341504 
L 311.432727 155.30616 
L 315.490909 156.26628 
L 319.549091 157.220352 
L 323.607273 158.16384 
L 327.665455 159.096744 
L 331.723636 160.017552 
L 335.781818 160.926264 
L 339.84 161.818344 
L 343.898182 162.696816 
L 347.956364 163.558656 
L 352.014545 164.403864 
L 356.072727 165.23244 
L 360.130909 166.042872 
L 364.189091 166.83516 
L 368.247273 167.609304 
L 372.305455 168.363792 
L 376.363636 169.100136 
L 380.421818 169.816824 
L 384.48 170.513856 
L 388.538182 171.191232 
L 392.596364 171.84744 
L 396.654545 172.483992 
L 400.712727 173.099376 
L 404.770909 173.693592 
L 408.829091 174.26664 
L 412.887273 174.820032 
L 416.945455 175.349232 
L 421.003636 175.857264 
L 425.061818 176.344128 
L 429.12 176.8068 
L 433.178182 177.246792 
L 437.236364 177.664104 
L 441.294545 178.057224 
L 445.352727 178.427664 
L 449.410909 178.7724 
L 453.469091 179.091432 
L 457.527273 179.386272 
L 461.585455 179.653896 
L 465.643636 179.895816 
L 469.701818 180.11052 
L 473.76 180.298008 
L 477.818182 180.45828 
L 481.876364 180.588312 
L 485.934545 180.691128 
L 489.992727 180.765216 
L 494.050909 180.809064 
L 498.109091 180.822672 
" clip-path="url(#p1fbc747890)" style="fill: none; stroke: #000000; stroke-opacity: 0.5; stroke-linecap: square"/>
   </g>
   <g id="line2d_22">
    <path d="M 92.290909 159.896592 
L 96.349091 159.80436 
L 100.407273 159.627456 
L 104.465455 159.4566 
L 108.523636 159.32052 
L 112.581818 159.223752 
L 116.64 159.167808 
L 120.698182 159.14664 
L 124.756364 159.1542 
L 128.814545 159.178392 
L 132.872727 159.205608 
L 136.930909 159.21468 
L 140.989091 159.17688 
L 145.047273 159.052896 
L 149.105455 158.809464 
L 153.163636 158.423904 
L 157.221818 157.905288 
L 161.28 157.277808 
L 165.338182 156.567168 
L 169.396364 155.79 
L 173.454545 154.962936 
L 177.512727 154.093536 
L 181.570909 153.187848 
L 185.629091 152.253432 
L 189.687273 151.293312 
L 193.745455 150.309 
L 197.803636 149.305032 
L 201.861818 148.279896 
L 205.92 147.23964 
L 209.978182 146.182752 
L 214.036364 145.110744 
L 218.094545 144.025128 
L 222.152727 142.925904 
L 226.210909 141.816096 
L 230.269091 140.694192 
L 234.327273 139.563216 
L 238.385455 138.423168 
L 242.443636 137.277072 
L 246.501818 136.134 
L 250.56 135.297864 
L 254.618182 135.6048 
L 258.676364 135.833112 
L 262.734545 135.833112 
L 266.792727 135.58968 
L 270.850909 135.123984 
L 274.909091 134.476848 
L 278.967273 133.69212 
L 283.025455 132.8076 
L 287.083636 131.848992 
L 291.141818 130.837464 
L 295.2 129.7836 
L 299.258182 128.699496 
L 303.316364 127.5912 
L 307.374545 126.463248 
L 311.432727 125.318664 
L 315.490909 124.160472 
L 319.549091 122.991696 
L 323.607273 121.813848 
L 327.665455 120.626928 
L 331.723636 119.432448 
L 335.781818 118.23192 
L 339.84 117.025344 
L 343.898182 115.814232 
L 347.956364 114.597072 
L 352.014545 113.375376 
L 356.072727 112.149144 
L 360.130909 110.918376 
L 364.189091 109.683072 
L 368.247273 108.443232 
L 372.305455 107.200368 
L 376.363636 105.952968 
L 380.421818 104.702544 
L 384.48 103.447584 
L 388.538182 102.188088 
L 392.596364 100.925568 
L 396.654545 99.658512 
L 400.712727 98.38692 
L 404.770909 97.112304 
L 408.829091 95.833152 
L 412.887273 94.550976 
L 416.945455 93.264264 
L 421.003636 91.973016 
L 425.061818 90.680256 
L 429.12 89.381448 
L 433.178182 88.081128 
L 437.236364 86.777784 
L 441.294545 85.471416 
L 445.352727 84.163536 
L 449.410909 82.854144 
L 453.469091 81.54324 
L 457.527273 80.233848 
L 461.585455 78.925968 
L 465.643636 77.621112 
L 469.701818 76.322304 
L 473.76 75.03408 
L 477.818182 73.760976 
L 481.876364 72.513576 
L 485.934545 71.305488 
L 489.992727 70.176024 
L 494.050909 69.223464 
L 498.109091 68.78196 
" clip-path="url(#p1fbc747890)" style="fill: none; stroke: #000000; stroke-opacity: 0.5; stroke-linecap: square"/>
   </g>
   <g id="line2d_23">
    <path d="M 92.290909 146.907 
L 96.349091 146.843496 
L 100.407273 146.65752 
L 104.465455 146.353608 
L 108.523636 145.937808 
L 112.581818 145.420704 
L 116.64 144.814392 
L 120.698182 144.127944 
L 124.756364 143.374968 
L 128.814545 142.563024 
L 132.872727 141.704208 
L 136.930909 140.807592 
L 140.989091 139.882248 
L 145.047273 138.934224 
L 149.105455 137.974104 
L 153.163636 137.007936 
L 157.221818 136.044792 
L 161.28 135.093744 
L 165.338182 134.163864 
L 169.396364 133.267248 
L 173.454545 132.41448 
L 177.512727 131.619168 
L 181.570909 130.896432 
L 185.629091 130.264416 
L 189.687273 129.73824 
L 193.745455 129.334536 
L 197.803636 129.068424 
L 201.861818 128.947464 
L 205.92 128.976192 
L 209.978182 129.150072 
L 214.036364 129.461544 
L 218.094545 129.893976 
L 222.152727 130.429224 
L 226.210909 131.04612 
L 230.269091 131.723496 
L 234.327273 132.438672 
L 238.385455 133.165944 
L 242.443636 133.875072 
L 246.501818 134.522208 
L 250.56 134.764128 
L 254.618182 133.713288 
L 258.676364 132.539976 
L 262.734545 131.350032 
L 266.792727 130.147992 
L 270.850909 128.938392 
L 274.909091 127.721232 
L 278.967273 126.498024 
L 283.025455 125.265744 
L 287.083636 124.027416 
L 291.141818 122.78304 
L 295.2 121.531104 
L 299.258182 120.27312 
L 303.316364 119.009088 
L 307.374545 117.739008 
L 311.432727 116.464392 
L 315.490909 115.182216 
L 319.549091 113.895504 
L 323.607273 112.601232 
L 327.665455 111.303936 
L 331.723636 109.99908 
L 335.781818 108.6912 
L 339.84 107.377272 
L 343.898182 106.057296 
L 347.956364 104.734296 
L 352.014545 103.405248 
L 356.072727 102.071664 
L 360.130909 100.733544 
L 364.189091 99.3924 
L 368.247273 98.045208 
L 372.305455 96.694992 
L 376.363636 95.341752 
L 380.421818 93.983976 
L 384.48 92.623176 
L 388.538182 91.25784 
L 392.596364 89.890992 
L 396.654545 88.52112 
L 400.712727 87.149736 
L 404.770909 85.775328 
L 408.829091 84.40092 
L 412.887273 83.025 
L 416.945455 81.64908 
L 421.003636 80.27316 
L 425.061818 78.901776 
L 429.12 77.531904 
L 433.178182 76.16808 
L 437.236364 74.813328 
L 441.294545 73.470672 
L 445.352727 72.143136 
L 449.410909 70.839792 
L 453.469091 69.5682 
L 457.527273 68.346504 
L 461.585455 67.19436 
L 465.643636 66.148056 
L 469.701818 65.257488 
L 473.76 64.598256 
L 477.818182 64.247472 
L 481.876364 64.258056 
L 485.934545 64.605816 
L 489.992727 65.195496 
L 494.050909 65.85624 
L 498.109091 66.205512 
" clip-path="url(#p1fbc747890)" style="fill: none; stroke: #000000; stroke-opacity: 0.5; stroke-linecap: square"/>
   </g>
   <g id="patch_3">
    <path d="M 72 384.48 
L 72 51.84 
" style="fill: none; stroke: #000000; stroke-width: 0.8; stroke-linejoin: miter; stroke-linecap: square"/>
   </g>
   <g id="patch_4">
    <path d="M 518.4 384.48 
L 518.4 51.84 
" style="fill: none; stroke: #000000; stroke-width: 0.8; stroke-linejoin: miter; stroke-linecap: square"/>
   </g>
   <g id="patch_5">
    <path d="M 72 384.48 
L 518.4 384.48 
" style="fill: none; stroke: #000000; stroke-width: 0.8; stroke-linejoin: miter; stroke-linecap: square"/>
   </g>
   <g id="patch_6">
    <path d="M 72 51.84 
L 518.4 51.84 
" style="fill: none; stroke: #000000; stroke-width: 0.8; stroke-linejoin: miter; stroke-linecap: square"/>
   </g>
  </g>
 </g>
 <defs>
  <clipPath id="p1fbc747890">
   <rect x="72" y="51.84" width="446.4" height="332.64"/>
  </clipPath>
 </defs>
</svg>
