<?xml version="1.0" encoding="utf-8" standalone="no"?>
<!DOCTYPE svg PUBLIC "-//W3C//DTD SVG 1.1//EN"
  "http://www.w3.org/Graphics/SVG/1.1/DTD/svg11.dtd">
<svg xmlns:xlink="http://www.w3.org/1999/xlink" width="576pt" height="432pt" viewBox="0 0 576 432" xmlns="http://www.w3.org/2000/svg" version="1.1">
 <metadata>
  <rdf:RDF xmlns:dc="http://purl.org/dc/elements/1.1/" xmlns:cc="http://creativecommons.org/ns#" xmlns:rdf="http://www.w3.org/1999/02/22-rdf-syntax-ns#">
   <cc:Work>
    <dc:type rdf:resource="http://purl.org/dc/dcmitype/StillImage"/>
    <dc:date>2023-05-03T04:06:57.864842</dc:date>
    <dc:format>image/svg+xml</dc:format>
    <dc:creator>
     <cc:Agent>
      <dc:title>Matplotlib v3.7.1, https://matplotlib.org/</dc:title>
     </cc:Agent>
    </dc:creator>
   </cc:Work>
  </rdf:RDF>
 </metadata>
 <defs>
  <style type="text/css">*{stroke-linejoin: round; stroke-linecap: butt}</style>
 </defs>
 <g id="figure_1">
  <g id="patch_1">
   <path d="M 0 432 
L 576 432 
L 576 0 
L 0 0 
z
" style="fill: #ffffff"/>
  </g>
  <g id="axes_1">
   <g id="patch_2">
    <path d="M 72 384.48 
L 518.4 384.48 
L 518.4 51.84 
L 72 51.84 
z
" style="fill: #ffffff"/>
   </g>
   <g id="matplotlib.axis_1">
    <g id="xtick_1">
     <g id="line2d_1">
      <defs>
       <path id="m3ec0e0ab69" d="M 0 0 
L 0 3.5 
" style="stroke: #000000; stroke-width: 0.8"/>
      </defs>
      <g>
       <use xlink:href="#m3ec0e0ab69" x="92.290909" y="384.48" style="stroke: #000000; stroke-width: 0.8"/>
      </g>
     </g>
     <g id="text_1">
      <!-- 0.0 -->
      <g transform="translate(84.339347 399.078438) scale(0.1 -0.1)">
       <defs>
        <path id="DejaVuSans-30" d="M 2034 4250 
Q 1547 4250 1301 3770 
Q 1056 3291 1056 2328 
Q 1056 1369 1301 889 
Q 1547 409 2034 409 
Q 2525 409 2770 889 
Q 3016 1369 3016 2328 
Q 3016 3291 2770 3770 
Q 2525 4250 2034 4250 
z
M 2034 4750 
Q 2819 4750 3233 4129 
Q 3647 3509 3647 2328 
Q 3647 1150 3233 529 
Q 2819 -91 2034 -91 
Q 1250 -91 836 529 
Q 422 1150 422 2328 
Q 422 3509 836 4129 
Q 1250 4750 2034 4750 
z
" transform="scale(0.015625)"/>
        <path id="DejaVuSans-2e" d="M 684 794 
L 1344 794 
L 1344 0 
L 684 0 
L 684 794 
z
" transform="scale(0.015625)"/>
       </defs>
       <use xlink:href="#DejaVuSans-30"/>
       <use xlink:href="#DejaVuSans-2e" x="63.623047"/>
       <use xlink:href="#DejaVuSans-30" x="95.410156"/>
      </g>
     </g>
    </g>
    <g id="xtick_2">
     <g id="line2d_2">
      <g>
       <use xlink:href="#m3ec0e0ab69" x="173.454545" y="384.48" style="stroke: #000000; stroke-width: 0.8"/>
      </g>
     </g>
     <g id="text_2">
      <!-- 0.2 -->
      <g transform="translate(165.502983 399.078438) scale(0.1 -0.1)">
       <defs>
        <path id="DejaVuSans-32" d="M 1228 531 
L 3431 531 
L 3431 0 
L 469 0 
L 469 531 
Q 828 903 1448 1529 
Q 2069 2156 2228 2338 
Q 2531 2678 2651 2914 
Q 2772 3150 2772 3378 
Q 2772 3750 2511 3984 
Q 2250 4219 1831 4219 
Q 1534 4219 1204 4116 
Q 875 4013 500 3803 
L 500 4441 
Q 881 4594 1212 4672 
Q 1544 4750 1819 4750 
Q 2544 4750 2975 4387 
Q 3406 4025 3406 3419 
Q 3406 3131 3298 2873 
Q 3191 2616 2906 2266 
Q 2828 2175 2409 1742 
Q 1991 1309 1228 531 
z
" transform="scale(0.015625)"/>
       </defs>
       <use xlink:href="#DejaVuSans-30"/>
       <use xlink:href="#DejaVuSans-2e" x="63.623047"/>
       <use xlink:href="#DejaVuSans-32" x="95.410156"/>
      </g>
     </g>
    </g>
    <g id="xtick_3">
     <g id="line2d_3">
      <g>
       <use xlink:href="#m3ec0e0ab69" x="254.618182" y="384.48" style="stroke: #000000; stroke-width: 0.8"/>
      </g>
     </g>
     <g id="text_3">
      <!-- 0.4 -->
      <g transform="translate(246.666619 399.078438) scale(0.1 -0.1)">
       <defs>
        <path id="DejaVuSans-34" d="M 2419 4116 
L 825 1625 
L 2419 1625 
L 2419 4116 
z
M 2253 4666 
L 3047 4666 
L 3047 1625 
L 3713 1625 
L 3713 1100 
L 3047 1100 
L 3047 0 
L 2419 0 
L 2419 1100 
L 313 1100 
L 313 1709 
L 2253 4666 
z
" transform="scale(0.015625)"/>
       </defs>
       <use xlink:href="#DejaVuSans-30"/>
       <use xlink:href="#DejaVuSans-2e" x="63.623047"/>
       <use xlink:href="#DejaVuSans-34" x="95.410156"/>
      </g>
     </g>
    </g>
    <g id="xtick_4">
     <g id="line2d_4">
      <g>
       <use xlink:href="#m3ec0e0ab69" x="335.781818" y="384.48" style="stroke: #000000; stroke-width: 0.8"/>
      </g>
     </g>
     <g id="text_4">
      <!-- 0.6 -->
      <g transform="translate(327.830256 399.078438) scale(0.1 -0.1)">
       <defs>
        <path id="DejaVuSans-36" d="M 2113 2584 
Q 1688 2584 1439 2293 
Q 1191 2003 1191 1497 
Q 1191 994 1439 701 
Q 1688 409 2113 409 
Q 2538 409 2786 701 
Q 3034 994 3034 1497 
Q 3034 2003 2786 2293 
Q 2538 2584 2113 2584 
z
M 3366 4563 
L 3366 3988 
Q 3128 4100 2886 4159 
Q 2644 4219 2406 4219 
Q 1781 4219 1451 3797 
Q 1122 3375 1075 2522 
Q 1259 2794 1537 2939 
Q 1816 3084 2150 3084 
Q 2853 3084 3261 2657 
Q 3669 2231 3669 1497 
Q 3669 778 3244 343 
Q 2819 -91 2113 -91 
Q 1303 -91 875 529 
Q 447 1150 447 2328 
Q 447 3434 972 4092 
Q 1497 4750 2381 4750 
Q 2619 4750 2861 4703 
Q 3103 4656 3366 4563 
z
" transform="scale(0.015625)"/>
       </defs>
       <use xlink:href="#DejaVuSans-30"/>
       <use xlink:href="#DejaVuSans-2e" x="63.623047"/>
       <use xlink:href="#DejaVuSans-36" x="95.410156"/>
      </g>
     </g>
    </g>
    <g id="xtick_5">
     <g id="line2d_5">
      <g>
       <use xlink:href="#m3ec0e0ab69" x="416.945455" y="384.48" style="stroke: #000000; stroke-width: 0.8"/>
      </g>
     </g>
     <g id="text_5">
      <!-- 0.8 -->
      <g transform="translate(408.993892 399.078438) scale(0.1 -0.1)">
       <defs>
        <path id="DejaVuSans-38" d="M 2034 2216 
Q 1584 2216 1326 1975 
Q 1069 1734 1069 1313 
Q 1069 891 1326 650 
Q 1584 409 2034 409 
Q 2484 409 2743 651 
Q 3003 894 3003 1313 
Q 3003 1734 2745 1975 
Q 2488 2216 2034 2216 
z
M 1403 2484 
Q 997 2584 770 2862 
Q 544 3141 544 3541 
Q 544 4100 942 4425 
Q 1341 4750 2034 4750 
Q 2731 4750 3128 4425 
Q 3525 4100 3525 3541 
Q 3525 3141 3298 2862 
Q 3072 2584 2669 2484 
Q 3125 2378 3379 2068 
Q 3634 1759 3634 1313 
Q 3634 634 3220 271 
Q 2806 -91 2034 -91 
Q 1263 -91 848 271 
Q 434 634 434 1313 
Q 434 1759 690 2068 
Q 947 2378 1403 2484 
z
M 1172 3481 
Q 1172 3119 1398 2916 
Q 1625 2713 2034 2713 
Q 2441 2713 2670 2916 
Q 2900 3119 2900 3481 
Q 2900 3844 2670 4047 
Q 2441 4250 2034 4250 
Q 1625 4250 1398 4047 
Q 1172 3844 1172 3481 
z
" transform="scale(0.015625)"/>
       </defs>
       <use xlink:href="#DejaVuSans-30"/>
       <use xlink:href="#DejaVuSans-2e" x="63.623047"/>
       <use xlink:href="#DejaVuSans-38" x="95.410156"/>
      </g>
     </g>
    </g>
    <g id="xtick_6">
     <g id="line2d_6">
      <g>
       <use xlink:href="#m3ec0e0ab69" x="498.109091" y="384.48" style="stroke: #000000; stroke-width: 0.8"/>
      </g>
     </g>
     <g id="text_6">
      <!-- 1.0 -->
      <g transform="translate(490.157528 399.078438) scale(0.1 -0.1)">
       <defs>
        <path id="DejaVuSans-31" d="M 794 531 
L 1825 531 
L 1825 4091 
L 703 3866 
L 703 4441 
L 1819 4666 
L 2450 4666 
L 2450 531 
L 3481 531 
L 3481 0 
L 794 0 
L 794 531 
z
" transform="scale(0.015625)"/>
       </defs>
       <use xlink:href="#DejaVuSans-31"/>
       <use xlink:href="#DejaVuSans-2e" x="63.623047"/>
       <use xlink:href="#DejaVuSans-30" x="95.410156"/>
      </g>
     </g>
    </g>
   </g>
   <g id="matplotlib.axis_2">
    <g id="ytick_1">
     <g id="line2d_7">
      <defs>
       <path id="m1dc6e16985" d="M 0 0 
L -3.5 0 
" style="stroke: #000000; stroke-width: 0.8"/>
      </defs>
      <g>
       <use xlink:href="#m1dc6e16985" x="72" y="369.36" style="stroke: #000000; stroke-width: 0.8"/>
      </g>
     </g>
     <g id="text_7">
      <!-- −5.0 -->
      <g transform="translate(40.717187 373.159219) scale(0.1 -0.1)">
       <defs>
        <path id="DejaVuSans-2212" d="M 678 2272 
L 4684 2272 
L 4684 1741 
L 678 1741 
L 678 2272 
z
" transform="scale(0.015625)"/>
        <path id="DejaVuSans-35" d="M 691 4666 
L 3169 4666 
L 3169 4134 
L 1269 4134 
L 1269 2991 
Q 1406 3038 1543 3061 
Q 1681 3084 1819 3084 
Q 2600 3084 3056 2656 
Q 3513 2228 3513 1497 
Q 3513 744 3044 326 
Q 2575 -91 1722 -91 
Q 1428 -91 1123 -41 
Q 819 9 494 109 
L 494 744 
Q 775 591 1075 516 
Q 1375 441 1709 441 
Q 2250 441 2565 725 
Q 2881 1009 2881 1497 
Q 2881 1984 2565 2268 
Q 2250 2553 1709 2553 
Q 1456 2553 1204 2497 
Q 953 2441 691 2322 
L 691 4666 
z
" transform="scale(0.015625)"/>
       </defs>
       <use xlink:href="#DejaVuSans-2212"/>
       <use xlink:href="#DejaVuSans-35" x="83.789062"/>
       <use xlink:href="#DejaVuSans-2e" x="147.412109"/>
       <use xlink:href="#DejaVuSans-30" x="179.199219"/>
      </g>
     </g>
    </g>
    <g id="ytick_2">
     <g id="line2d_8">
      <g>
       <use xlink:href="#m1dc6e16985" x="72" y="331.56" style="stroke: #000000; stroke-width: 0.8"/>
      </g>
     </g>
     <g id="text_8">
      <!-- −2.5 -->
      <g transform="translate(40.717187 335.359219) scale(0.1 -0.1)">
       <use xlink:href="#DejaVuSans-2212"/>
       <use xlink:href="#DejaVuSans-32" x="83.789062"/>
       <use xlink:href="#DejaVuSans-2e" x="147.412109"/>
       <use xlink:href="#DejaVuSans-35" x="179.199219"/>
      </g>
     </g>
    </g>
    <g id="ytick_3">
     <g id="line2d_9">
      <g>
       <use xlink:href="#m1dc6e16985" x="72" y="293.76" style="stroke: #000000; stroke-width: 0.8"/>
      </g>
     </g>
     <g id="text_9">
      <!-- 0.0 -->
      <g transform="translate(49.096875 297.559219) scale(0.1 -0.1)">
       <use xlink:href="#DejaVuSans-30"/>
       <use xlink:href="#DejaVuSans-2e" x="63.623047"/>
       <use xlink:href="#DejaVuSans-30" x="95.410156"/>
      </g>
     </g>
    </g>
    <g id="ytick_4">
     <g id="line2d_10">
      <g>
       <use xlink:href="#m1dc6e16985" x="72" y="255.96" style="stroke: #000000; stroke-width: 0.8"/>
      </g>
     </g>
     <g id="text_10">
      <!-- 2.5 -->
      <g transform="translate(49.096875 259.759219) scale(0.1 -0.1)">
       <use xlink:href="#DejaVuSans-32"/>
       <use xlink:href="#DejaVuSans-2e" x="63.623047"/>
       <use xlink:href="#DejaVuSans-35" x="95.410156"/>
      </g>
     </g>
    </g>
    <g id="ytick_5">
     <g id="line2d_11">
      <g>
       <use xlink:href="#m1dc6e16985" x="72" y="218.16" style="stroke: #000000; stroke-width: 0.8"/>
      </g>
     </g>
     <g id="text_11">
      <!-- 5.0 -->
      <g transform="translate(49.096875 221.959219) scale(0.1 -0.1)">
       <use xlink:href="#DejaVuSans-35"/>
       <use xlink:href="#DejaVuSans-2e" x="63.623047"/>
       <use xlink:href="#DejaVuSans-30" x="95.410156"/>
      </g>
     </g>
    </g>
    <g id="ytick_6">
     <g id="line2d_12">
      <g>
       <use xlink:href="#m1dc6e16985" x="72" y="180.36" style="stroke: #000000; stroke-width: 0.8"/>
      </g>
     </g>
     <g id="text_12">
      <!-- 7.5 -->
      <g transform="translate(49.096875 184.159219) scale(0.1 -0.1)">
       <defs>
        <path id="DejaVuSans-37" d="M 525 4666 
L 3525 4666 
L 3525 4397 
L 1831 0 
L 1172 0 
L 2766 4134 
L 525 4134 
L 525 4666 
z
" transform="scale(0.015625)"/>
       </defs>
       <use xlink:href="#DejaVuSans-37"/>
       <use xlink:href="#DejaVuSans-2e" x="63.623047"/>
       <use xlink:href="#DejaVuSans-35" x="95.410156"/>
      </g>
     </g>
    </g>
    <g id="ytick_7">
     <g id="line2d_13">
      <g>
       <use xlink:href="#m1dc6e16985" x="72" y="142.56" style="stroke: #000000; stroke-width: 0.8"/>
      </g>
     </g>
     <g id="text_13">
      <!-- 10.0 -->
      <g transform="translate(42.734375 146.359219) scale(0.1 -0.1)">
       <use xlink:href="#DejaVuSans-31"/>
       <use xlink:href="#DejaVuSans-30" x="63.623047"/>
       <use xlink:href="#DejaVuSans-2e" x="127.246094"/>
       <use xlink:href="#DejaVuSans-30" x="159.033203"/>
      </g>
     </g>
    </g>
    <g id="ytick_8">
     <g id="line2d_14">
      <g>
       <use xlink:href="#m1dc6e16985" x="72" y="104.76" style="stroke: #000000; stroke-width: 0.8"/>
      </g>
     </g>
     <g id="text_14">
      <!-- 12.5 -->
      <g transform="translate(42.734375 108.559219) scale(0.1 -0.1)">
       <use xlink:href="#DejaVuSans-31"/>
       <use xlink:href="#DejaVuSans-32" x="63.623047"/>
       <use xlink:href="#DejaVuSans-2e" x="127.246094"/>
       <use xlink:href="#DejaVuSans-35" x="159.033203"/>
      </g>
     </g>
    </g>
    <g id="ytick_9">
     <g id="line2d_15">
      <g>
       <use xlink:href="#m1dc6e16985" x="72" y="66.96" style="stroke: #000000; stroke-width: 0.8"/>
      </g>
     </g>
     <g id="text_15">
      <!-- 15.0 -->
      <g transform="translate(42.734375 70.759219) scale(0.1 -0.1)">
       <use xlink:href="#DejaVuSans-31"/>
       <use xlink:href="#DejaVuSans-35" x="63.623047"/>
       <use xlink:href="#DejaVuSans-2e" x="127.246094"/>
       <use xlink:href="#DejaVuSans-30" x="159.033203"/>
      </g>
     </g>
    </g>
   </g>
   <g id="line2d_16">
    <path d="M 92.290909 374.204448 
L 96.349091 374.1984 
L 100.407273 374.180256 
L 104.465455 374.148504 
L 108.523636 374.104656 
L 112.581818 374.048712 
L 116.64 373.980672 
L 120.698182 373.900536 
L 124.756364 373.806792 
L 128.814545 373.700952 
L 132.872727 373.583016 
L 136.930909 373.452984 
L 140.989091 373.310856 
L 145.047273 373.15512 
L 149.105455 372.9888 
L 153.163636 372.808872 
L 157.221818 372.616848 
L 161.28 372.412728 
L 165.338182 372.196512 
L 169.396364 371.9682 
L 173.454545 371.72628 
L 177.512727 371.473776 
L 181.570909 371.209176 
L 185.629091 370.930968 
L 189.687273 370.642176 
L 193.745455 370.339776 
L 197.803636 370.026792 
L 201.861818 369.701712 
L 205.92 369.363024 
L 209.978182 369.013752 
L 214.036364 368.652384 
L 218.094545 368.27892 
L 222.152727 367.894872 
L 226.210909 367.497216 
L 230.269091 367.088976 
L 234.327273 366.66864 
L 238.385455 366.236208 
L 242.443636 365.793192 
L 246.501818 365.33808 
L 250.56 364.872384 
L 254.618182 364.39308 
L 258.676364 363.904704 
L 262.734545 363.404232 
L 266.792727 362.891664 
L 270.850909 362.368512 
L 274.909091 361.834776 
L 278.967273 361.288944 
L 283.025455 360.73404 
L 287.083636 360.16704 
L 291.141818 359.589456 
L 295.2 358.999776 
L 299.258182 358.401024 
L 303.316364 357.791688 
L 307.374545 357.171768 
L 311.432727 356.541264 
L 315.490909 355.900176 
L 319.549091 355.250016 
L 323.607273 354.589272 
L 327.665455 353.917944 
L 331.723636 353.237544 
L 335.781818 352.548072 
L 339.84 351.848016 
L 343.898182 351.138888 
L 347.956364 350.420688 
L 352.014545 349.693416 
L 356.072727 348.957072 
L 360.130909 348.211656 
L 364.189091 347.45868 
L 368.247273 346.69512 
L 372.305455 345.925512 
L 376.363636 345.146832 
L 380.421818 344.360592 
L 384.48 343.56528 
L 388.538182 342.76392 
L 392.596364 341.955 
L 396.654545 341.140032 
L 400.712727 340.317504 
L 404.770909 339.488928 
L 408.829091 338.652792 
L 412.887273 337.81212 
L 416.945455 336.966912 
L 421.003636 336.115656 
L 425.061818 335.258352 
L 429.12 334.399536 
L 433.178182 333.536184 
L 437.236364 332.668296 
L 441.294545 331.800408 
L 445.352727 330.929496 
L 449.410909 330.060096 
L 453.469091 329.190696 
L 457.527273 328.32432 
L 461.585455 327.46248 
L 465.643636 326.609712 
L 469.701818 325.76904 
L 473.76 324.946512 
L 477.818182 324.154224 
L 481.876364 323.407296 
L 485.934545 322.731432 
L 489.992727 322.17048 
L 494.050909 321.78492 
L 498.109091 321.645816 
" clip-path="url(#p6dcdfe57a5)" style="fill: none; stroke: #000000; stroke-opacity: 0.5; stroke-linecap: square"/>
   </g>
   <g id="line2d_17">
    <path d="M 92.290909 236.577672 
L 96.349091 236.639664 
L 100.407273 236.824128 
L 104.465455 237.121992 
L 108.523636 237.519648 
L 112.581818 238.006512 
L 116.64 238.567464 
L 120.698182 239.190408 
L 124.756364 239.86476 
L 128.814545 240.581448 
L 132.872727 241.3314 
L 136.930909 242.108568 
L 140.989091 242.909928 
L 145.047273 243.729432 
L 149.105455 244.564056 
L 153.163636 245.410776 
L 157.221818 246.26808 
L 161.28 247.132944 
L 165.338182 248.005368 
L 169.396364 248.880816 
L 173.454545 249.7608 
L 177.512727 250.643808 
L 181.570909 251.526816 
L 185.629091 252.412848 
L 189.687273 253.297368 
L 193.745455 254.181888 
L 197.803636 255.066408 
L 201.861818 255.949416 
L 205.92 256.830912 
L 209.978182 257.709384 
L 214.036364 258.586344 
L 218.094545 259.46028 
L 222.152727 260.332704 
L 226.210909 261.200592 
L 230.269091 262.066968 
L 234.327273 262.928808 
L 238.385455 263.787624 
L 242.443636 264.643416 
L 246.501818 265.496184 
L 250.56 266.344416 
L 254.618182 267.191136 
L 258.676364 268.03332 
L 262.734545 268.87248 
L 266.792727 269.707104 
L 270.850909 270.540216 
L 274.909091 271.370304 
L 278.967273 272.197368 
L 283.025455 273.021408 
L 287.083636 273.842424 
L 291.141818 274.661928 
L 295.2 275.478408 
L 299.258182 276.293376 
L 303.316364 277.106832 
L 307.374545 277.918776 
L 311.432727 278.727696 
L 315.490909 279.536616 
L 319.549091 280.345536 
L 323.607273 281.152944 
L 327.665455 281.960352 
L 331.723636 282.76776 
L 335.781818 283.575168 
L 339.84 284.384088 
L 343.898182 285.193008 
L 347.956364 286.00344 
L 352.014545 286.813872 
L 356.072727 287.627328 
L 360.130909 288.442296 
L 364.189091 289.260288 
L 368.247273 290.081304 
L 372.305455 290.903832 
L 376.363636 291.729384 
L 380.421818 292.55796 
L 384.48 293.38956 
L 388.538182 294.225696 
L 392.596364 295.064856 
L 396.654545 295.90704 
L 400.712727 296.75376 
L 404.770909 297.603504 
L 408.829091 298.457784 
L 412.887273 299.315088 
L 416.945455 300.175416 
L 421.003636 301.04028 
L 425.061818 301.908168 
L 429.12 302.777568 
L 433.178182 303.651504 
L 437.236364 304.52544 
L 441.294545 305.400888 
L 445.352727 306.277848 
L 449.410909 307.153296 
L 453.469091 308.028744 
L 457.527273 308.899656 
L 461.585455 309.76452 
L 465.643636 310.621824 
L 469.701818 311.46552 
L 473.76 312.28956 
L 477.818182 313.084872 
L 481.876364 313.833312 
L 485.934545 314.510688 
L 489.992727 315.073152 
L 494.050909 315.4572 
L 498.109091 315.597816 
" clip-path="url(#p6dcdfe57a5)" style="fill: none; stroke: #000000; stroke-opacity: 0.5; stroke-linecap: square"/>
   </g>
   <g id="line2d_18">
    <path d="M 92.290909 222.500952 
L 96.349091 222.449544 
L 100.407273 222.298344 
L 104.465455 222.057936 
L 108.523636 221.74344 
L 112.581818 221.377536 
L 116.64 220.996512 
L 120.698182 220.660848 
L 124.756364 220.497552 
L 128.814545 220.591296 
L 132.872727 220.872528 
L 136.930909 221.255064 
L 140.989091 221.69808 
L 145.047273 222.183432 
L 149.105455 222.702048 
L 153.163636 223.249392 
L 157.221818 223.819416 
L 161.28 224.409096 
L 165.338182 225.01692 
L 169.396364 225.639864 
L 173.454545 226.276416 
L 177.512727 226.923552 
L 181.570909 227.57976 
L 185.629091 228.24504 
L 189.687273 228.914856 
L 193.745455 229.592232 
L 197.803636 230.272632 
L 201.861818 230.954544 
L 205.92 231.640992 
L 209.978182 232.325928 
L 214.036364 233.012376 
L 218.094545 233.698824 
L 222.152727 234.382248 
L 226.210909 235.065672 
L 230.269091 235.74456 
L 234.327273 236.421936 
L 238.385455 237.094776 
L 242.443636 237.76308 
L 246.501818 238.426848 
L 250.56 239.08608 
L 254.618182 239.740776 
L 258.676364 240.387912 
L 262.734545 241.030512 
L 266.792727 241.665552 
L 270.850909 242.294544 
L 274.909091 242.915976 
L 278.967273 243.53136 
L 283.025455 244.139184 
L 287.083636 244.737936 
L 291.141818 245.33064 
L 295.2 245.914272 
L 299.258182 246.488832 
L 303.316364 247.057344 
L 307.374545 247.615272 
L 311.432727 248.16564 
L 315.490909 248.706936 
L 319.549091 249.240672 
L 323.607273 249.763824 
L 327.665455 250.277904 
L 331.723636 250.782912 
L 335.781818 251.28036 
L 339.84 251.767224 
L 343.898182 252.243504 
L 347.956364 252.710712 
L 352.014545 253.168848 
L 356.072727 253.617912 
L 360.130909 254.056392 
L 364.189091 254.484288 
L 368.247273 254.903112 
L 372.305455 255.312864 
L 376.363636 255.71052 
L 380.421818 256.099104 
L 384.48 256.475592 
L 388.538182 256.843008 
L 392.596364 257.19984 
L 396.654545 257.546088 
L 400.712727 257.88024 
L 404.770909 258.203808 
L 408.829091 258.51528 
L 412.887273 258.816168 
L 416.945455 259.10496 
L 421.003636 259.381656 
L 425.061818 259.646256 
L 429.12 259.89876 
L 433.178182 260.137656 
L 437.236364 260.364456 
L 441.294545 260.57916 
L 445.352727 260.778744 
L 449.410909 260.96472 
L 453.469091 261.1386 
L 457.527273 261.29736 
L 461.585455 261.441 
L 465.643636 261.571032 
L 469.701818 261.685944 
L 473.76 261.785736 
L 477.818182 261.870408 
L 481.876364 261.93996 
L 485.934545 261.994392 
L 489.992727 262.033704 
L 494.050909 262.056384 
L 498.109091 262.063944 
" clip-path="url(#p6dcdfe57a5)" style="fill: none; stroke: #000000; stroke-opacity: 0.5; stroke-linecap: square"/>
   </g>
   <g id="line2d_19">
    <path d="M 92.290909 218.1222 
L 96.349091 218.14488 
L 100.407273 218.211408 
L 104.465455 218.320272 
L 108.523636 218.468448 
L 112.581818 218.642328 
L 116.64 218.822256 
L 120.698182 218.9538 
L 124.756364 218.925072 
L 128.814545 218.654424 
L 132.872727 218.22048 
L 136.930909 217.712448 
L 140.989091 217.175688 
L 145.047273 216.63288 
L 149.105455 216.093096 
L 153.163636 215.565408 
L 157.221818 215.057376 
L 161.28 214.572024 
L 165.338182 214.1154 
L 169.396364 213.690528 
L 173.454545 213.301944 
L 177.512727 212.952672 
L 181.570909 212.644224 
L 185.629091 212.382648 
L 189.687273 212.167944 
L 193.745455 212.003136 
L 197.803636 211.891248 
L 201.861818 211.83228 
L 205.92 211.829256 
L 209.978182 211.880664 
L 214.036364 211.988016 
L 218.094545 212.151312 
L 222.152727 212.36904 
L 226.210909 212.6412 
L 230.269091 212.964768 
L 234.327273 213.341256 
L 238.385455 213.764616 
L 242.443636 214.23636 
L 246.501818 214.75044 
L 250.56 215.306856 
L 254.618182 215.902584 
L 258.676364 216.533088 
L 262.734545 217.196856 
L 266.792727 217.892376 
L 270.850909 218.6136 
L 274.909091 219.360528 
L 278.967273 220.130136 
L 283.025455 220.9194 
L 287.083636 221.725296 
L 291.141818 222.546312 
L 295.2 223.380936 
L 299.258182 224.224632 
L 303.316364 225.0774 
L 307.374545 225.936216 
L 311.432727 226.799568 
L 315.490909 227.665944 
L 319.549091 228.533832 
L 323.607273 229.398696 
L 327.665455 230.262048 
L 331.723636 231.122376 
L 335.781818 231.976656 
L 339.84 232.823376 
L 343.898182 233.662536 
L 347.956364 234.491112 
L 352.014545 235.309104 
L 356.072727 236.115 
L 360.130909 236.9088 
L 364.189091 237.685968 
L 368.247273 238.449528 
L 372.305455 239.194944 
L 376.363636 239.92524 
L 380.421818 240.63588 
L 384.48 241.326864 
L 388.538182 241.998192 
L 392.596364 242.648352 
L 396.654545 243.278856 
L 400.712727 243.885168 
L 404.770909 244.470312 
L 408.829091 245.032776 
L 412.887273 245.571048 
L 416.945455 246.085128 
L 421.003636 246.575016 
L 425.061818 247.040712 
L 429.12 247.482216 
L 433.178182 247.898016 
L 437.236364 248.288112 
L 441.294545 248.654016 
L 445.352727 248.994216 
L 449.410909 249.308712 
L 453.469091 249.599016 
L 457.527273 249.862104 
L 461.585455 250.101 
L 465.643636 250.314192 
L 469.701818 250.503192 
L 473.76 250.666488 
L 477.818182 250.80408 
L 481.876364 250.915968 
L 485.934545 251.003664 
L 489.992727 251.067168 
L 494.050909 251.103456 
L 498.109091 251.117064 
" clip-path="url(#p6dcdfe57a5)" style="fill: none; stroke: #000000; stroke-opacity: 0.5; stroke-linecap: square"/>
   </g>
   <g id="line2d_20">
    <path d="M 92.290909 174.989376 
L 96.349091 174.959136 
L 100.407273 174.866904 
L 104.465455 174.714192 
L 108.523636 174.502512 
L 112.581818 174.233376 
L 116.64 173.908296 
L 120.698182 173.530296 
L 124.756364 173.1024 
L 128.814545 172.62612 
L 132.872727 172.105992 
L 136.930909 171.54504 
L 140.989091 170.944776 
L 145.047273 170.311248 
L 149.105455 169.648992 
L 153.163636 168.95952 
L 157.221818 168.250392 
L 161.28 167.527656 
L 165.338182 166.798872 
L 169.396364 166.0716 
L 173.454545 165.36096 
L 177.512727 164.685096 
L 181.570909 164.062152 
L 185.629091 163.519344 
L 189.687273 163.079352 
L 193.745455 162.754272 
L 197.803636 162.53352 
L 201.861818 162.395928 
L 205.92 162.311256 
L 209.978182 162.250776 
L 214.036364 162.197856 
L 218.094545 162.13284 
L 222.152727 162.051192 
L 226.210909 161.942328 
L 230.269091 161.80776 
L 234.327273 161.642952 
L 238.385455 161.450928 
L 242.443636 161.231688 
L 246.501818 160.992792 
L 250.56 160.740288 
L 254.618182 160.480224 
L 258.676364 160.224696 
L 262.734545 159.990336 
L 266.792727 159.793776 
L 270.850909 159.654672 
L 274.909091 159.591168 
L 278.967273 159.609312 
L 283.025455 159.710616 
L 287.083636 159.882984 
L 291.141818 160.115832 
L 295.2 160.391016 
L 299.258182 160.700976 
L 303.316364 161.033616 
L 307.374545 161.3844 
L 311.432727 161.745768 
L 315.490909 162.114696 
L 319.549091 162.48816 
L 323.607273 162.863136 
L 327.665455 163.239624 
L 331.723636 163.613088 
L 335.781818 163.986552 
L 339.84 164.35548 
L 343.898182 164.719872 
L 347.956364 165.08124 
L 352.014545 165.435048 
L 356.072727 165.78432 
L 360.130909 166.127544 
L 364.189091 166.463208 
L 368.247273 166.791312 
L 372.305455 167.111856 
L 376.363636 167.42484 
L 380.421818 167.730264 
L 384.48 168.026616 
L 388.538182 168.313896 
L 392.596364 168.593616 
L 396.654545 168.864264 
L 400.712727 169.124328 
L 404.770909 169.376832 
L 408.829091 169.618752 
L 412.887273 169.850088 
L 416.945455 170.072352 
L 421.003636 170.285544 
L 425.061818 170.48664 
L 429.12 170.678664 
L 433.178182 170.860104 
L 437.236364 171.03096 
L 441.294545 171.192744 
L 445.352727 171.342432 
L 449.410909 171.481536 
L 453.469091 171.608544 
L 457.527273 171.72648 
L 461.585455 171.83232 
L 465.643636 171.927576 
L 469.701818 172.012248 
L 473.76 172.084824 
L 477.818182 172.146816 
L 481.876364 172.198224 
L 485.934545 172.237536 
L 489.992727 172.264752 
L 494.050909 172.281384 
L 498.109091 172.287432 
" clip-path="url(#p6dcdfe57a5)" style="fill: none; stroke: #000000; stroke-opacity: 0.5; stroke-linecap: square"/>
   </g>
   <g id="line2d_21">
    <path d="M 92.290909 146.58948 
L 96.349091 146.652984 
L 100.407273 146.840472 
L 104.465455 147.135312 
L 108.523636 147.522384 
L 112.581818 147.982032 
L 116.64 148.499136 
L 120.698182 149.058576 
L 124.756364 149.649768 
L 128.814545 150.262128 
L 132.872727 150.888096 
L 136.930909 151.521624 
L 140.989091 152.15364 
L 145.047273 152.778096 
L 149.105455 153.390456 
L 153.163636 153.98316 
L 157.221818 154.55016 
L 161.28 155.080872 
L 165.338182 155.569248 
L 169.396364 156.00168 
L 173.454545 156.366072 
L 177.512727 156.642768 
L 181.570909 156.809088 
L 185.629091 156.839328 
L 189.687273 156.71232 
L 193.745455 156.41748 
L 197.803636 155.965392 
L 201.861818 155.386296 
L 205.92 154.717992 
L 209.978182 154.007352 
L 214.036364 153.304272 
L 218.094545 152.679816 
L 222.152727 152.21412 
L 226.210909 151.9722 
L 230.269091 151.946496 
L 234.327273 152.076528 
L 238.385455 152.29728 
L 242.443636 152.567928 
L 246.501818 152.861256 
L 250.56 153.154584 
L 254.618182 153.435816 
L 258.676364 153.68832 
L 262.734545 153.893952 
L 266.792727 154.033056 
L 270.850909 154.087488 
L 274.909091 154.040616 
L 278.967273 153.883368 
L 283.025455 153.617256 
L 287.083636 153.252864 
L 291.141818 152.805312 
L 295.2 152.286696 
L 299.258182 151.710624 
L 303.316364 151.08768 
L 307.374545 150.425424 
L 311.432727 149.728392 
L 315.490909 149.00112 
L 319.549091 148.248144 
L 323.607273 147.472488 
L 327.665455 146.675664 
L 331.723636 145.862208 
L 335.781818 145.033632 
L 339.84 144.202032 
L 343.898182 143.39916 
L 347.956364 142.89264 
L 352.014545 143.229816 
L 356.072727 143.817984 
L 360.130909 144.428832 
L 364.189091 145.03212 
L 368.247273 145.623312 
L 372.305455 146.199384 
L 376.363636 146.7558 
L 380.421818 147.297096 
L 384.48 147.818736 
L 388.538182 148.322232 
L 392.596364 148.806072 
L 396.654545 149.27328 
L 400.712727 149.720832 
L 404.770909 150.15024 
L 408.829091 150.561504 
L 412.887273 150.953112 
L 416.945455 151.326576 
L 421.003636 151.681896 
L 425.061818 152.019072 
L 429.12 152.336592 
L 433.178182 152.635968 
L 437.236364 152.9172 
L 441.294545 153.180288 
L 445.352727 153.425232 
L 449.410909 153.65052 
L 453.469091 153.859176 
L 457.527273 154.049688 
L 461.585455 154.220544 
L 465.643636 154.374768 
L 469.701818 154.509336 
L 473.76 154.627272 
L 477.818182 154.725552 
L 481.876364 154.8072 
L 485.934545 154.870704 
L 489.992727 154.914552 
L 494.050909 154.941768 
L 498.109091 154.95084 
" clip-path="url(#p6dcdfe57a5)" style="fill: none; stroke: #000000; stroke-opacity: 0.5; stroke-linecap: square"/>
   </g>
   <g id="line2d_22">
    <path d="M 92.290909 141.740496 
L 96.349091 141.732936 
L 100.407273 141.71328 
L 104.465455 141.692112 
L 108.523636 141.680016 
L 112.581818 141.686064 
L 116.64 141.717816 
L 120.698182 141.776784 
L 124.756364 141.86448 
L 128.814545 141.979392 
L 132.872727 142.123032 
L 136.930909 142.290864 
L 140.989091 142.482888 
L 145.047273 142.697592 
L 149.105455 142.933464 
L 153.163636 143.188992 
L 157.221818 143.461152 
L 161.28 143.748432 
L 165.338182 144.052344 
L 169.396364 144.368352 
L 173.454545 144.696456 
L 177.512727 145.035144 
L 181.570909 145.381392 
L 185.629091 145.732176 
L 189.687273 146.087496 
L 193.745455 146.439792 
L 197.803636 146.789064 
L 201.861818 147.123216 
L 205.92 147.433176 
L 209.978182 147.699288 
L 214.036364 147.891312 
L 218.094545 147.951792 
L 222.152727 147.808152 
L 226.210909 147.40596 
L 230.269091 146.754288 
L 234.327273 145.918152 
L 238.385455 144.958032 
L 242.443636 143.917776 
L 246.501818 142.823088 
L 250.56 141.689088 
L 254.618182 140.52636 
L 258.676364 139.342464 
L 262.734545 138.143448 
L 266.792727 136.936872 
L 270.850909 135.73332 
L 274.909091 134.550936 
L 278.967273 133.42752 
L 283.025455 132.4674 
L 287.083636 131.909472 
L 291.141818 131.98356 
L 295.2 132.5052 
L 299.258182 133.214328 
L 303.316364 133.993008 
L 307.374545 134.79588 
L 311.432727 135.6048 
L 315.490909 136.410696 
L 319.549091 137.206008 
L 323.607273 137.987712 
L 327.665455 138.755808 
L 331.723636 139.50576 
L 335.781818 140.233032 
L 339.84 140.931576 
L 343.898182 141.566616 
L 347.956364 141.87204 
L 352.014545 141.298992 
L 356.072727 140.4432 
L 360.130909 139.531464 
L 364.189091 138.594024 
L 368.247273 137.636928 
L 372.305455 136.664712 
L 376.363636 135.678888 
L 380.421818 134.677944 
L 384.48 133.664904 
L 388.538182 132.638256 
L 392.596364 131.601024 
L 396.654545 130.550184 
L 400.712727 129.487248 
L 404.770909 128.412216 
L 408.829091 127.3266 
L 412.887273 126.2304 
L 416.945455 125.120592 
L 421.003636 124.001712 
L 425.061818 122.870736 
L 429.12 121.729176 
L 433.178182 120.577032 
L 437.236364 119.414304 
L 441.294545 118.240992 
L 445.352727 117.057096 
L 449.410909 115.864128 
L 453.469091 114.660576 
L 457.527273 113.449464 
L 461.585455 112.227768 
L 465.643636 111.000024 
L 469.701818 109.763208 
L 473.76 108.521856 
L 477.818182 107.27748 
L 481.876364 106.036128 
L 485.934545 104.808384 
L 489.992727 103.622976 
L 494.050909 102.579696 
L 498.109091 102.067128 
" clip-path="url(#p6dcdfe57a5)" style="fill: none; stroke: #000000; stroke-opacity: 0.5; stroke-linecap: square"/>
   </g>
   <g id="line2d_23">
    <path d="M 92.290909 135.269136 
L 96.349091 135.229824 
L 100.407273 135.1134 
L 104.465455 134.922888 
L 108.523636 134.662824 
L 112.581818 134.340768 
L 116.64 133.962768 
L 120.698182 133.536384 
L 124.756364 133.069176 
L 128.814545 132.56568 
L 132.872727 132.02892 
L 136.930909 131.466456 
L 140.989091 130.876776 
L 145.047273 130.264416 
L 149.105455 129.629376 
L 153.163636 128.97468 
L 157.221818 128.298816 
L 161.28 127.603296 
L 165.338182 126.886608 
L 169.396364 126.153288 
L 173.454545 125.400312 
L 177.512727 124.630704 
L 181.570909 123.844464 
L 185.629091 123.044616 
L 189.687273 122.234184 
L 193.745455 121.416192 
L 197.803636 120.596688 
L 201.861818 119.78928 
L 205.92 119.006064 
L 209.978182 118.272744 
L 214.036364 117.633168 
L 218.094545 117.146304 
L 222.152727 116.889264 
L 226.210909 116.922528 
L 230.269091 117.243072 
L 234.327273 117.796464 
L 238.385455 118.508616 
L 242.443636 119.323584 
L 246.501818 120.202056 
L 250.56 121.11984 
L 254.618182 122.05728 
L 258.676364 123.003792 
L 262.734545 123.950304 
L 266.792727 124.886232 
L 270.850909 125.797968 
L 274.909091 126.66888 
L 278.967273 127.456632 
L 283.025455 128.05992 
L 287.083636 128.236824 
L 291.141818 127.759032 
L 295.2 126.807984 
L 299.258182 125.643744 
L 303.316364 124.387272 
L 307.374545 123.079392 
L 311.432727 121.741272 
L 315.490909 120.381984 
L 319.549091 119.007576 
L 323.607273 117.61956 
L 327.665455 116.22096 
L 331.723636 114.811776 
L 335.781818 113.395032 
L 339.84 111.970728 
L 343.898182 110.540376 
L 347.956364 109.103976 
L 352.014545 107.661528 
L 356.072727 106.214544 
L 360.130909 104.761512 
L 364.189091 103.305456 
L 368.247273 101.846376 
L 372.305455 100.384272 
L 376.363636 98.919144 
L 380.421818 97.450992 
L 384.48 95.98284 
L 388.538182 94.513176 
L 392.596364 93.043512 
L 396.654545 91.57536 
L 400.712727 90.110232 
L 404.770909 88.651152 
L 408.829091 87.201144 
L 412.887273 85.766256 
L 416.945455 84.358584 
L 421.003636 83.005344 
L 425.061818 81.76248 
L 429.12 80.791776 
L 433.178182 80.444016 
L 437.236364 80.932392 
L 441.294545 81.927288 
L 445.352727 83.129328 
L 449.410909 84.417552 
L 453.469091 85.742064 
L 457.527273 87.086232 
L 461.585455 88.436448 
L 465.643636 89.788176 
L 469.701818 91.13688 
L 473.76 92.478024 
L 477.818182 93.808584 
L 481.876364 95.122512 
L 485.934545 96.407712 
L 489.992727 97.633944 
L 494.050909 98.701416 
L 498.109091 99.223056 
" clip-path="url(#p6dcdfe57a5)" style="fill: none; stroke: #000000; stroke-opacity: 0.5; stroke-linecap: square"/>
   </g>
   <g id="patch_3">
    <path d="M 72 384.48 
L 72 51.84 
" style="fill: none; stroke: #000000; stroke-width: 0.8; stroke-linejoin: miter; stroke-linecap: square"/>
   </g>
   <g id="patch_4">
    <path d="M 518.4 384.48 
L 518.4 51.84 
" style="fill: none; stroke: #000000; stroke-width: 0.8; stroke-linejoin: miter; stroke-linecap: square"/>
   </g>
   <g id="patch_5">
    <path d="M 72 384.48 
L 518.4 384.48 
" style="fill: none; stroke: #000000; stroke-width: 0.8; stroke-linejoin: miter; stroke-linecap: square"/>
   </g>
   <g id="patch_6">
    <path d="M 72 51.84 
L 518.4 51.84 
" style="fill: none; stroke: #000000; stroke-width: 0.8; stroke-linejoin: miter; stroke-linecap: square"/>
   </g>
  </g>
 </g>
 <defs>
  <clipPath id="p6dcdfe57a5">
   <rect x="72" y="51.84" width="446.4" height="332.64"/>
  </clipPath>
 </defs>
</svg>
