<?xml version="1.0" encoding="utf-8" standalone="no"?>
<!DOCTYPE svg PUBLIC "-//W3C//DTD SVG 1.1//EN"
  "http://www.w3.org/Graphics/SVG/1.1/DTD/svg11.dtd">
<svg xmlns:xlink="http://www.w3.org/1999/xlink" width="576pt" height="432pt" viewBox="0 0 576 432" xmlns="http://www.w3.org/2000/svg" version="1.1">
 <metadata>
  <rdf:RDF xmlns:dc="http://purl.org/dc/elements/1.1/" xmlns:cc="http://creativecommons.org/ns#" xmlns:rdf="http://www.w3.org/1999/02/22-rdf-syntax-ns#">
   <cc:Work>
    <dc:type rdf:resource="http://purl.org/dc/dcmitype/StillImage"/>
    <dc:date>2023-05-03T18:21:51.548355</dc:date>
    <dc:format>image/svg+xml</dc:format>
    <dc:creator>
     <cc:Agent>
      <dc:title>Matplotlib v3.7.1, https://matplotlib.org/</dc:title>
     </cc:Agent>
    </dc:creator>
   </cc:Work>
  </rdf:RDF>
 </metadata>
 <defs>
  <style type="text/css">*{stroke-linejoin: round; stroke-linecap: butt}</style>
 </defs>
 <g id="figure_1">
  <g id="patch_1">
   <path d="M 0 432 
L 576 432 
L 576 0 
L 0 0 
z
" style="fill: #ffffff"/>
  </g>
  <g id="axes_1">
   <g id="patch_2">
    <path d="M 72 384.48 
L 518.4 384.48 
L 518.4 51.84 
L 72 51.84 
z
" style="fill: #ffffff"/>
   </g>
   <g id="matplotlib.axis_1">
    <g id="xtick_1">
     <g id="line2d_1">
      <defs>
       <path id="mfc241a9657" d="M 0 0 
L 0 3.5 
" style="stroke: #000000; stroke-width: 0.8"/>
      </defs>
      <g>
       <use xlink:href="#mfc241a9657" x="92.290909" y="384.48" style="stroke: #000000; stroke-width: 0.8"/>
      </g>
     </g>
     <g id="text_1">
      <!-- 0.0 -->
      <g transform="translate(84.339347 399.078438) scale(0.1 -0.1)">
       <defs>
        <path id="DejaVuSans-30" d="M 2034 4250 
Q 1547 4250 1301 3770 
Q 1056 3291 1056 2328 
Q 1056 1369 1301 889 
Q 1547 409 2034 409 
Q 2525 409 2770 889 
Q 3016 1369 3016 2328 
Q 3016 3291 2770 3770 
Q 2525 4250 2034 4250 
z
M 2034 4750 
Q 2819 4750 3233 4129 
Q 3647 3509 3647 2328 
Q 3647 1150 3233 529 
Q 2819 -91 2034 -91 
Q 1250 -91 836 529 
Q 422 1150 422 2328 
Q 422 3509 836 4129 
Q 1250 4750 2034 4750 
z
" transform="scale(0.015625)"/>
        <path id="DejaVuSans-2e" d="M 684 794 
L 1344 794 
L 1344 0 
L 684 0 
L 684 794 
z
" transform="scale(0.015625)"/>
       </defs>
       <use xlink:href="#DejaVuSans-30"/>
       <use xlink:href="#DejaVuSans-2e" x="63.623047"/>
       <use xlink:href="#DejaVuSans-30" x="95.410156"/>
      </g>
     </g>
    </g>
    <g id="xtick_2">
     <g id="line2d_2">
      <g>
       <use xlink:href="#mfc241a9657" x="173.454545" y="384.48" style="stroke: #000000; stroke-width: 0.8"/>
      </g>
     </g>
     <g id="text_2">
      <!-- 0.2 -->
      <g transform="translate(165.502983 399.078438) scale(0.1 -0.1)">
       <defs>
        <path id="DejaVuSans-32" d="M 1228 531 
L 3431 531 
L 3431 0 
L 469 0 
L 469 531 
Q 828 903 1448 1529 
Q 2069 2156 2228 2338 
Q 2531 2678 2651 2914 
Q 2772 3150 2772 3378 
Q 2772 3750 2511 3984 
Q 2250 4219 1831 4219 
Q 1534 4219 1204 4116 
Q 875 4013 500 3803 
L 500 4441 
Q 881 4594 1212 4672 
Q 1544 4750 1819 4750 
Q 2544 4750 2975 4387 
Q 3406 4025 3406 3419 
Q 3406 3131 3298 2873 
Q 3191 2616 2906 2266 
Q 2828 2175 2409 1742 
Q 1991 1309 1228 531 
z
" transform="scale(0.015625)"/>
       </defs>
       <use xlink:href="#DejaVuSans-30"/>
       <use xlink:href="#DejaVuSans-2e" x="63.623047"/>
       <use xlink:href="#DejaVuSans-32" x="95.410156"/>
      </g>
     </g>
    </g>
    <g id="xtick_3">
     <g id="line2d_3">
      <g>
       <use xlink:href="#mfc241a9657" x="254.618182" y="384.48" style="stroke: #000000; stroke-width: 0.8"/>
      </g>
     </g>
     <g id="text_3">
      <!-- 0.4 -->
      <g transform="translate(246.666619 399.078438) scale(0.1 -0.1)">
       <defs>
        <path id="DejaVuSans-34" d="M 2419 4116 
L 825 1625 
L 2419 1625 
L 2419 4116 
z
M 2253 4666 
L 3047 4666 
L 3047 1625 
L 3713 1625 
L 3713 1100 
L 3047 1100 
L 3047 0 
L 2419 0 
L 2419 1100 
L 313 1100 
L 313 1709 
L 2253 4666 
z
" transform="scale(0.015625)"/>
       </defs>
       <use xlink:href="#DejaVuSans-30"/>
       <use xlink:href="#DejaVuSans-2e" x="63.623047"/>
       <use xlink:href="#DejaVuSans-34" x="95.410156"/>
      </g>
     </g>
    </g>
    <g id="xtick_4">
     <g id="line2d_4">
      <g>
       <use xlink:href="#mfc241a9657" x="335.781818" y="384.48" style="stroke: #000000; stroke-width: 0.8"/>
      </g>
     </g>
     <g id="text_4">
      <!-- 0.6 -->
      <g transform="translate(327.830256 399.078438) scale(0.1 -0.1)">
       <defs>
        <path id="DejaVuSans-36" d="M 2113 2584 
Q 1688 2584 1439 2293 
Q 1191 2003 1191 1497 
Q 1191 994 1439 701 
Q 1688 409 2113 409 
Q 2538 409 2786 701 
Q 3034 994 3034 1497 
Q 3034 2003 2786 2293 
Q 2538 2584 2113 2584 
z
M 3366 4563 
L 3366 3988 
Q 3128 4100 2886 4159 
Q 2644 4219 2406 4219 
Q 1781 4219 1451 3797 
Q 1122 3375 1075 2522 
Q 1259 2794 1537 2939 
Q 1816 3084 2150 3084 
Q 2853 3084 3261 2657 
Q 3669 2231 3669 1497 
Q 3669 778 3244 343 
Q 2819 -91 2113 -91 
Q 1303 -91 875 529 
Q 447 1150 447 2328 
Q 447 3434 972 4092 
Q 1497 4750 2381 4750 
Q 2619 4750 2861 4703 
Q 3103 4656 3366 4563 
z
" transform="scale(0.015625)"/>
       </defs>
       <use xlink:href="#DejaVuSans-30"/>
       <use xlink:href="#DejaVuSans-2e" x="63.623047"/>
       <use xlink:href="#DejaVuSans-36" x="95.410156"/>
      </g>
     </g>
    </g>
    <g id="xtick_5">
     <g id="line2d_5">
      <g>
       <use xlink:href="#mfc241a9657" x="416.945455" y="384.48" style="stroke: #000000; stroke-width: 0.8"/>
      </g>
     </g>
     <g id="text_5">
      <!-- 0.8 -->
      <g transform="translate(408.993892 399.078438) scale(0.1 -0.1)">
       <defs>
        <path id="DejaVuSans-38" d="M 2034 2216 
Q 1584 2216 1326 1975 
Q 1069 1734 1069 1313 
Q 1069 891 1326 650 
Q 1584 409 2034 409 
Q 2484 409 2743 651 
Q 3003 894 3003 1313 
Q 3003 1734 2745 1975 
Q 2488 2216 2034 2216 
z
M 1403 2484 
Q 997 2584 770 2862 
Q 544 3141 544 3541 
Q 544 4100 942 4425 
Q 1341 4750 2034 4750 
Q 2731 4750 3128 4425 
Q 3525 4100 3525 3541 
Q 3525 3141 3298 2862 
Q 3072 2584 2669 2484 
Q 3125 2378 3379 2068 
Q 3634 1759 3634 1313 
Q 3634 634 3220 271 
Q 2806 -91 2034 -91 
Q 1263 -91 848 271 
Q 434 634 434 1313 
Q 434 1759 690 2068 
Q 947 2378 1403 2484 
z
M 1172 3481 
Q 1172 3119 1398 2916 
Q 1625 2713 2034 2713 
Q 2441 2713 2670 2916 
Q 2900 3119 2900 3481 
Q 2900 3844 2670 4047 
Q 2441 4250 2034 4250 
Q 1625 4250 1398 4047 
Q 1172 3844 1172 3481 
z
" transform="scale(0.015625)"/>
       </defs>
       <use xlink:href="#DejaVuSans-30"/>
       <use xlink:href="#DejaVuSans-2e" x="63.623047"/>
       <use xlink:href="#DejaVuSans-38" x="95.410156"/>
      </g>
     </g>
    </g>
    <g id="xtick_6">
     <g id="line2d_6">
      <g>
       <use xlink:href="#mfc241a9657" x="498.109091" y="384.48" style="stroke: #000000; stroke-width: 0.8"/>
      </g>
     </g>
     <g id="text_6">
      <!-- 1.0 -->
      <g transform="translate(490.157528 399.078438) scale(0.1 -0.1)">
       <defs>
        <path id="DejaVuSans-31" d="M 794 531 
L 1825 531 
L 1825 4091 
L 703 3866 
L 703 4441 
L 1819 4666 
L 2450 4666 
L 2450 531 
L 3481 531 
L 3481 0 
L 794 0 
L 794 531 
z
" transform="scale(0.015625)"/>
       </defs>
       <use xlink:href="#DejaVuSans-31"/>
       <use xlink:href="#DejaVuSans-2e" x="63.623047"/>
       <use xlink:href="#DejaVuSans-30" x="95.410156"/>
      </g>
     </g>
    </g>
   </g>
   <g id="matplotlib.axis_2">
    <g id="ytick_1">
     <g id="line2d_7">
      <defs>
       <path id="m79fd48f292" d="M 0 0 
L -3.5 0 
" style="stroke: #000000; stroke-width: 0.8"/>
      </defs>
      <g>
       <use xlink:href="#m79fd48f292" x="72" y="369.36" style="stroke: #000000; stroke-width: 0.8"/>
      </g>
     </g>
     <g id="text_7">
      <!-- −5.0 -->
      <g transform="translate(40.717187 373.159219) scale(0.1 -0.1)">
       <defs>
        <path id="DejaVuSans-2212" d="M 678 2272 
L 4684 2272 
L 4684 1741 
L 678 1741 
L 678 2272 
z
" transform="scale(0.015625)"/>
        <path id="DejaVuSans-35" d="M 691 4666 
L 3169 4666 
L 3169 4134 
L 1269 4134 
L 1269 2991 
Q 1406 3038 1543 3061 
Q 1681 3084 1819 3084 
Q 2600 3084 3056 2656 
Q 3513 2228 3513 1497 
Q 3513 744 3044 326 
Q 2575 -91 1722 -91 
Q 1428 -91 1123 -41 
Q 819 9 494 109 
L 494 744 
Q 775 591 1075 516 
Q 1375 441 1709 441 
Q 2250 441 2565 725 
Q 2881 1009 2881 1497 
Q 2881 1984 2565 2268 
Q 2250 2553 1709 2553 
Q 1456 2553 1204 2497 
Q 953 2441 691 2322 
L 691 4666 
z
" transform="scale(0.015625)"/>
       </defs>
       <use xlink:href="#DejaVuSans-2212"/>
       <use xlink:href="#DejaVuSans-35" x="83.789062"/>
       <use xlink:href="#DejaVuSans-2e" x="147.412109"/>
       <use xlink:href="#DejaVuSans-30" x="179.199219"/>
      </g>
     </g>
    </g>
    <g id="ytick_2">
     <g id="line2d_8">
      <g>
       <use xlink:href="#m79fd48f292" x="72" y="331.56" style="stroke: #000000; stroke-width: 0.8"/>
      </g>
     </g>
     <g id="text_8">
      <!-- −2.5 -->
      <g transform="translate(40.717187 335.359219) scale(0.1 -0.1)">
       <use xlink:href="#DejaVuSans-2212"/>
       <use xlink:href="#DejaVuSans-32" x="83.789062"/>
       <use xlink:href="#DejaVuSans-2e" x="147.412109"/>
       <use xlink:href="#DejaVuSans-35" x="179.199219"/>
      </g>
     </g>
    </g>
    <g id="ytick_3">
     <g id="line2d_9">
      <g>
       <use xlink:href="#m79fd48f292" x="72" y="293.76" style="stroke: #000000; stroke-width: 0.8"/>
      </g>
     </g>
     <g id="text_9">
      <!-- 0.0 -->
      <g transform="translate(49.096875 297.559219) scale(0.1 -0.1)">
       <use xlink:href="#DejaVuSans-30"/>
       <use xlink:href="#DejaVuSans-2e" x="63.623047"/>
       <use xlink:href="#DejaVuSans-30" x="95.410156"/>
      </g>
     </g>
    </g>
    <g id="ytick_4">
     <g id="line2d_10">
      <g>
       <use xlink:href="#m79fd48f292" x="72" y="255.96" style="stroke: #000000; stroke-width: 0.8"/>
      </g>
     </g>
     <g id="text_10">
      <!-- 2.5 -->
      <g transform="translate(49.096875 259.759219) scale(0.1 -0.1)">
       <use xlink:href="#DejaVuSans-32"/>
       <use xlink:href="#DejaVuSans-2e" x="63.623047"/>
       <use xlink:href="#DejaVuSans-35" x="95.410156"/>
      </g>
     </g>
    </g>
    <g id="ytick_5">
     <g id="line2d_11">
      <g>
       <use xlink:href="#m79fd48f292" x="72" y="218.16" style="stroke: #000000; stroke-width: 0.8"/>
      </g>
     </g>
     <g id="text_11">
      <!-- 5.0 -->
      <g transform="translate(49.096875 221.959219) scale(0.1 -0.1)">
       <use xlink:href="#DejaVuSans-35"/>
       <use xlink:href="#DejaVuSans-2e" x="63.623047"/>
       <use xlink:href="#DejaVuSans-30" x="95.410156"/>
      </g>
     </g>
    </g>
    <g id="ytick_6">
     <g id="line2d_12">
      <g>
       <use xlink:href="#m79fd48f292" x="72" y="180.36" style="stroke: #000000; stroke-width: 0.8"/>
      </g>
     </g>
     <g id="text_12">
      <!-- 7.5 -->
      <g transform="translate(49.096875 184.159219) scale(0.1 -0.1)">
       <defs>
        <path id="DejaVuSans-37" d="M 525 4666 
L 3525 4666 
L 3525 4397 
L 1831 0 
L 1172 0 
L 2766 4134 
L 525 4134 
L 525 4666 
z
" transform="scale(0.015625)"/>
       </defs>
       <use xlink:href="#DejaVuSans-37"/>
       <use xlink:href="#DejaVuSans-2e" x="63.623047"/>
       <use xlink:href="#DejaVuSans-35" x="95.410156"/>
      </g>
     </g>
    </g>
    <g id="ytick_7">
     <g id="line2d_13">
      <g>
       <use xlink:href="#m79fd48f292" x="72" y="142.56" style="stroke: #000000; stroke-width: 0.8"/>
      </g>
     </g>
     <g id="text_13">
      <!-- 10.0 -->
      <g transform="translate(42.734375 146.359219) scale(0.1 -0.1)">
       <use xlink:href="#DejaVuSans-31"/>
       <use xlink:href="#DejaVuSans-30" x="63.623047"/>
       <use xlink:href="#DejaVuSans-2e" x="127.246094"/>
       <use xlink:href="#DejaVuSans-30" x="159.033203"/>
      </g>
     </g>
    </g>
    <g id="ytick_8">
     <g id="line2d_14">
      <g>
       <use xlink:href="#m79fd48f292" x="72" y="104.76" style="stroke: #000000; stroke-width: 0.8"/>
      </g>
     </g>
     <g id="text_14">
      <!-- 12.5 -->
      <g transform="translate(42.734375 108.559219) scale(0.1 -0.1)">
       <use xlink:href="#DejaVuSans-31"/>
       <use xlink:href="#DejaVuSans-32" x="63.623047"/>
       <use xlink:href="#DejaVuSans-2e" x="127.246094"/>
       <use xlink:href="#DejaVuSans-35" x="159.033203"/>
      </g>
     </g>
    </g>
    <g id="ytick_9">
     <g id="line2d_15">
      <g>
       <use xlink:href="#m79fd48f292" x="72" y="66.96" style="stroke: #000000; stroke-width: 0.8"/>
      </g>
     </g>
     <g id="text_15">
      <!-- 15.0 -->
      <g transform="translate(42.734375 70.759219) scale(0.1 -0.1)">
       <use xlink:href="#DejaVuSans-31"/>
       <use xlink:href="#DejaVuSans-35" x="63.623047"/>
       <use xlink:href="#DejaVuSans-2e" x="127.246094"/>
       <use xlink:href="#DejaVuSans-30" x="159.033203"/>
      </g>
     </g>
    </g>
   </g>
   <g id="line2d_16">
    <path d="M 92.290909 319.662072 
L 96.349091 319.854096 
L 100.407273 320.334912 
L 104.465455 320.966928 
L 108.523636 321.673032 
L 112.581818 322.416936 
L 116.64 323.18352 
L 120.698182 323.963712 
L 124.756364 324.751464 
L 128.814545 325.545264 
L 132.872727 326.342088 
L 136.930909 327.141936 
L 140.989091 327.943296 
L 145.047273 328.744656 
L 149.105455 329.546016 
L 153.163636 330.345864 
L 157.221818 331.1442 
L 161.28 331.941024 
L 165.338182 332.734824 
L 169.396364 333.5256 
L 173.454545 334.314864 
L 177.512727 335.099592 
L 181.570909 335.879784 
L 185.629091 336.656952 
L 189.687273 337.428072 
L 193.745455 338.196168 
L 197.803636 338.958216 
L 201.861818 339.714216 
L 205.92 340.46568 
L 209.978182 341.211096 
L 214.036364 341.950464 
L 218.094545 342.682272 
L 222.152727 343.408032 
L 226.210909 344.127744 
L 230.269091 344.839896 
L 234.327273 345.544488 
L 238.385455 346.24152 
L 242.443636 346.932504 
L 246.501818 347.614416 
L 250.56 348.287256 
L 254.618182 348.954048 
L 258.676364 349.610256 
L 262.734545 350.258904 
L 266.792727 350.89848 
L 270.850909 351.530496 
L 274.909091 352.151928 
L 278.967273 352.7658 
L 283.025455 353.369088 
L 287.083636 353.963304 
L 291.141818 354.548448 
L 295.2 355.123008 
L 299.258182 355.688496 
L 303.316364 356.2434 
L 307.374545 356.789232 
L 311.432727 357.32448 
L 315.490909 357.849144 
L 319.549091 358.364736 
L 323.607273 358.868232 
L 327.665455 359.362656 
L 331.723636 359.844984 
L 335.781818 360.31824 
L 339.84 360.7794 
L 343.898182 361.231488 
L 347.956364 361.67148 
L 352.014545 362.100888 
L 356.072727 362.5182 
L 360.130909 362.924928 
L 364.189091 363.321072 
L 368.247273 363.706632 
L 372.305455 364.080096 
L 376.363636 364.441464 
L 380.421818 364.792248 
L 384.48 365.130936 
L 388.538182 365.45904 
L 392.596364 365.775048 
L 396.654545 366.07896 
L 400.712727 366.372288 
L 404.770909 366.65352 
L 408.829091 366.924168 
L 412.887273 367.181208 
L 416.945455 367.427664 
L 421.003636 367.662024 
L 425.061818 367.884288 
L 429.12 368.094456 
L 433.178182 368.29404 
L 437.236364 368.480016 
L 441.294545 368.655408 
L 445.352727 368.817192 
L 449.410909 368.968392 
L 453.469091 369.107496 
L 457.527273 369.234504 
L 461.585455 369.349416 
L 465.643636 369.452232 
L 469.701818 369.542952 
L 473.76 369.621576 
L 477.818182 369.688104 
L 481.876364 369.742536 
L 485.934545 369.784872 
L 489.992727 369.815112 
L 494.050909 369.833256 
L 498.109091 369.839304 
" clip-path="url(#pc4223bb9b4)" style="fill: none; stroke: #000000; stroke-opacity: 0.5; stroke-linecap: square"/>
   </g>
   <g id="line2d_17">
    <path d="M 92.290909 316.429416 
L 96.349091 316.238904 
L 100.407273 315.764136 
L 104.465455 315.142704 
L 108.523636 314.450208 
L 112.581818 313.724448 
L 116.64 312.980544 
L 120.698182 312.226056 
L 124.756364 311.467032 
L 128.814545 310.704984 
L 132.872727 309.941424 
L 136.930909 309.179376 
L 140.989091 308.41884 
L 145.047273 307.659816 
L 149.105455 306.903816 
L 153.163636 306.149328 
L 157.221818 305.396352 
L 161.28 304.647912 
L 165.338182 303.900984 
L 169.396364 303.15708 
L 173.454545 302.414688 
L 177.512727 301.676832 
L 181.570909 300.940488 
L 185.629091 300.205656 
L 189.687273 299.473848 
L 193.745455 298.743552 
L 197.803636 298.014768 
L 201.861818 297.287496 
L 205.92 296.561736 
L 209.978182 295.837488 
L 214.036364 295.11324 
L 218.094545 294.390504 
L 222.152727 293.666256 
L 226.210909 292.94352 
L 230.269091 292.220784 
L 234.327273 291.498048 
L 238.385455 290.775312 
L 242.443636 290.049552 
L 246.501818 289.325304 
L 250.56 288.598032 
L 254.618182 287.87076 
L 258.676364 287.140464 
L 262.734545 286.408656 
L 266.792727 285.675336 
L 270.850909 284.940504 
L 274.909091 284.202648 
L 278.967273 283.46328 
L 283.025455 282.720888 
L 287.083636 281.975472 
L 291.141818 281.227032 
L 295.2 280.47708 
L 299.258182 279.724104 
L 303.316364 278.966592 
L 307.374545 278.207568 
L 311.432727 277.44552 
L 315.490909 276.678936 
L 319.549091 275.91084 
L 323.607273 275.13972 
L 327.665455 274.365576 
L 331.723636 273.588408 
L 335.781818 272.808216 
L 339.84 272.025 
L 343.898182 271.240272 
L 347.956364 270.45252 
L 352.014545 269.661744 
L 356.072727 268.869456 
L 360.130909 268.075656 
L 364.189091 267.280344 
L 368.247273 266.48352 
L 372.305455 265.686696 
L 376.363636 264.88836 
L 380.421818 264.090024 
L 384.48 263.291688 
L 388.538182 262.494864 
L 392.596364 261.69804 
L 396.654545 260.90424 
L 400.712727 260.113464 
L 404.770909 259.325712 
L 408.829091 258.542496 
L 412.887273 257.763816 
L 416.945455 256.991184 
L 421.003636 256.227624 
L 425.061818 255.471624 
L 429.12 254.726208 
L 433.178182 253.992888 
L 437.236364 253.274688 
L 441.294545 252.57312 
L 445.352727 251.889696 
L 449.410909 251.228952 
L 453.469091 250.593912 
L 457.527273 249.9876 
L 461.585455 249.414552 
L 465.643636 248.879304 
L 469.701818 248.387904 
L 473.76 247.944888 
L 477.818182 247.556304 
L 481.876364 247.2282 
L 485.934545 246.966624 
L 489.992727 246.7746 
L 494.050909 246.658176 
L 498.109091 246.620376 
" clip-path="url(#pc4223bb9b4)" style="fill: none; stroke: #000000; stroke-opacity: 0.5; stroke-linecap: square"/>
   </g>
   <g id="line2d_18">
    <path d="M 92.290909 261.510552 
L 96.349091 261.537768 
L 100.407273 261.617904 
L 104.465455 261.73584 
L 108.523636 261.880992 
L 112.581818 262.039752 
L 116.64 262.203048 
L 120.698182 262.364832 
L 124.756364 262.519056 
L 128.814545 262.662696 
L 132.872727 262.79424 
L 136.930909 262.910664 
L 140.989091 263.010456 
L 145.047273 263.095128 
L 149.105455 263.163168 
L 153.163636 263.213064 
L 157.221818 263.244816 
L 161.28 263.258424 
L 165.338182 263.2554 
L 169.396364 263.234232 
L 173.454545 263.19492 
L 177.512727 263.137464 
L 181.570909 263.061864 
L 185.629091 262.969632 
L 189.687273 262.859256 
L 193.745455 262.732248 
L 197.803636 262.587096 
L 201.861818 262.425312 
L 205.92 262.246896 
L 209.978182 262.051848 
L 214.036364 261.84168 
L 218.094545 261.613368 
L 222.152727 261.368424 
L 226.210909 261.109872 
L 230.269091 260.833176 
L 234.327273 260.542872 
L 238.385455 260.235936 
L 242.443636 259.91388 
L 246.501818 259.576704 
L 250.56 259.22592 
L 254.618182 258.860016 
L 258.676364 258.478992 
L 262.734545 258.08436 
L 266.792727 257.67612 
L 270.850909 257.25276 
L 274.909091 256.817304 
L 278.967273 256.36824 
L 283.025455 255.905568 
L 287.083636 255.4308 
L 291.141818 254.942424 
L 295.2 254.441952 
L 299.258182 253.929384 
L 303.316364 253.40472 
L 307.374545 252.86796 
L 311.432727 252.320616 
L 315.490909 251.761176 
L 319.549091 251.192664 
L 323.607273 250.612056 
L 327.665455 250.020864 
L 331.723636 249.4206 
L 335.781818 248.811264 
L 339.84 248.192856 
L 343.898182 247.565376 
L 347.956364 246.928824 
L 352.014545 246.284712 
L 356.072727 245.634552 
L 360.130909 244.97532 
L 364.189091 244.311552 
L 368.247273 243.641736 
L 372.305455 242.965872 
L 376.363636 242.285472 
L 380.421818 241.60356 
L 384.48 240.917112 
L 388.538182 240.229152 
L 392.596364 239.53968 
L 396.654545 238.850208 
L 400.712727 238.162248 
L 404.770909 237.4758 
L 408.829091 236.793888 
L 412.887273 236.116512 
L 416.945455 235.445184 
L 421.003636 234.782928 
L 425.061818 234.129744 
L 429.12 233.490168 
L 433.178182 232.862688 
L 437.236364 232.253352 
L 441.294545 231.66216 
L 445.352727 231.093648 
L 449.410909 230.547816 
L 453.469091 230.030712 
L 457.527273 229.543848 
L 461.585455 229.090248 
L 465.643636 228.672936 
L 469.701818 228.294936 
L 473.76 227.960784 
L 477.818182 227.673504 
L 481.876364 227.434608 
L 485.934545 227.274336 
L 489.992727 227.395296 
L 494.050909 227.48904 
L 498.109091 227.51928 
" clip-path="url(#pc4223bb9b4)" style="fill: none; stroke: #000000; stroke-opacity: 0.5; stroke-linecap: square"/>
   </g>
   <g id="line2d_19">
    <path d="M 92.290909 257.846976 
L 96.349091 257.795568 
L 100.407273 257.650416 
L 104.465455 257.420592 
L 108.523636 257.119704 
L 112.581818 256.76136 
L 116.64 256.35312 
L 120.698182 255.904056 
L 124.756364 255.418704 
L 128.814545 254.900088 
L 132.872727 254.352744 
L 136.930909 253.776672 
L 140.989091 253.176408 
L 145.047273 252.55044 
L 149.105455 251.90028 
L 153.163636 251.228952 
L 157.221818 250.536456 
L 161.28 249.822792 
L 165.338182 249.089472 
L 169.396364 248.338008 
L 173.454545 247.5684 
L 177.512727 246.780648 
L 181.570909 245.979288 
L 185.629091 245.161296 
L 189.687273 244.329696 
L 193.745455 243.484488 
L 197.803636 242.627184 
L 201.861818 241.759296 
L 205.92 240.882336 
L 209.978182 239.996304 
L 214.036364 239.102712 
L 218.094545 238.203072 
L 222.152727 237.298896 
L 226.210909 236.390184 
L 230.269091 235.481472 
L 234.327273 234.571248 
L 238.385455 233.664048 
L 242.443636 232.75836 
L 246.501818 231.85872 
L 250.56 230.965128 
L 254.618182 230.080608 
L 258.676364 229.20516 
L 262.734545 228.344832 
L 266.792727 227.498112 
L 270.850909 226.668024 
L 274.909091 225.859104 
L 278.967273 225.06984 
L 283.025455 224.304768 
L 287.083636 223.566912 
L 291.141818 222.857784 
L 295.2 222.178896 
L 299.258182 221.53176 
L 303.316364 220.922424 
L 307.374545 220.347864 
L 311.432727 219.814128 
L 315.490909 219.321216 
L 319.549091 218.869128 
L 323.607273 218.4624 
L 327.665455 218.09952 
L 331.723636 217.782 
L 335.781818 217.50984 
L 339.84 217.28304 
L 343.898182 217.103112 
L 347.956364 216.968544 
L 352.014545 216.877824 
L 356.072727 216.830952 
L 360.130909 216.826416 
L 364.189091 216.864216 
L 368.247273 216.941328 
L 372.305455 217.057752 
L 376.363636 217.210464 
L 380.421818 217.397952 
L 384.48 217.618704 
L 388.538182 217.869696 
L 392.596364 218.150928 
L 396.654545 218.459376 
L 400.712727 218.793528 
L 404.770909 219.15036 
L 408.829091 219.52836 
L 412.887273 219.927528 
L 416.945455 220.343328 
L 421.003636 220.772736 
L 425.061818 221.217264 
L 429.12 221.670864 
L 433.178182 222.132024 
L 437.236364 222.599232 
L 441.294545 223.069464 
L 445.352727 223.538184 
L 449.410909 224.002368 
L 453.469091 224.458992 
L 457.527273 224.90352 
L 461.585455 225.331416 
L 465.643636 225.736632 
L 469.701818 226.114632 
L 473.76 226.46088 
L 477.818182 226.766304 
L 481.876364 227.024856 
L 485.934545 227.206296 
L 489.992727 227.100456 
L 494.050909 227.02032 
L 498.109091 226.993104 
" clip-path="url(#pc4223bb9b4)" style="fill: none; stroke: #000000; stroke-opacity: 0.5; stroke-linecap: square"/>
   </g>
   <g id="line2d_20">
    <path d="M 92.290909 152.608752 
L 96.349091 152.605728 
L 100.407273 152.596656 
L 104.465455 152.581536 
L 108.523636 152.560368 
L 112.581818 152.533152 
L 116.64 152.498376 
L 120.698182 152.457552 
L 124.756364 152.41068 
L 128.814545 152.35776 
L 132.872727 152.29728 
L 136.930909 152.22924 
L 140.989091 152.155152 
L 145.047273 152.071992 
L 149.105455 151.982784 
L 153.163636 151.886016 
L 157.221818 151.781688 
L 161.28 151.671312 
L 165.338182 151.551864 
L 169.396364 151.424856 
L 173.454545 151.290288 
L 177.512727 151.149672 
L 181.570909 151.003008 
L 185.629091 150.851808 
L 189.687273 150.700608 
L 193.745455 150.556968 
L 197.803636 150.4602 
L 201.861818 150.5736 
L 205.92 151.090704 
L 209.978182 151.780176 
L 214.036364 152.502912 
L 218.094545 153.228672 
L 222.152727 153.946872 
L 226.210909 154.649952 
L 230.269091 155.334888 
L 234.327273 156.00168 
L 238.385455 156.645792 
L 242.443636 157.265712 
L 246.501818 157.86144 
L 250.56 158.431464 
L 254.618182 158.971248 
L 258.676364 159.482304 
L 262.734545 159.961608 
L 266.792727 160.407648 
L 270.850909 160.820424 
L 274.909091 161.1954 
L 278.967273 161.534088 
L 283.025455 161.831952 
L 287.083636 162.088992 
L 291.141818 162.303696 
L 295.2 162.474552 
L 299.258182 162.600048 
L 303.316364 162.678672 
L 307.374545 162.7074 
L 311.432727 162.689256 
L 315.490909 162.619704 
L 319.549091 162.498744 
L 323.607273 162.3294 
L 327.665455 162.107136 
L 331.723636 161.834976 
L 335.781818 161.51292 
L 339.84 161.143992 
L 343.898182 160.72668 
L 347.956364 160.26552 
L 352.014545 159.765048 
L 356.072727 159.228288 
L 360.130909 158.667336 
L 364.189091 158.10336 
L 368.247273 157.6044 
L 372.305455 157.427496 
L 376.363636 158.015664 
L 380.421818 159.075576 
L 384.48 160.25796 
L 388.538182 161.470584 
L 392.596364 162.68472 
L 396.654545 163.888272 
L 400.712727 165.076704 
L 404.770909 166.246992 
L 408.829091 167.3946 
L 412.887273 168.519528 
L 416.945455 169.618752 
L 421.003636 170.689248 
L 425.061818 171.729504 
L 429.12 172.738008 
L 433.178182 173.710224 
L 437.236364 174.646152 
L 441.294545 175.542768 
L 445.352727 176.397048 
L 449.410909 177.205968 
L 453.469091 177.966504 
L 457.527273 178.677144 
L 461.585455 179.33184 
L 465.643636 179.92908 
L 469.701818 180.464328 
L 473.76 180.937584 
L 477.818182 181.3428 
L 481.876364 181.678464 
L 485.934545 181.941552 
L 489.992727 182.132064 
L 494.050909 182.245464 
L 498.109091 182.284776 
" clip-path="url(#pc4223bb9b4)" style="fill: none; stroke: #000000; stroke-opacity: 0.5; stroke-linecap: square"/>
   </g>
   <g id="line2d_21">
    <path d="M 92.290909 145.707984 
L 96.349091 145.698912 
L 100.407273 145.67472 
L 104.465455 145.635408 
L 108.523636 145.579464 
L 112.581818 145.5084 
L 116.64 145.422216 
L 120.698182 145.323936 
L 124.756364 145.215072 
L 128.814545 145.095624 
L 132.872727 144.968616 
L 136.930909 144.840096 
L 140.989091 144.711576 
L 145.047273 144.592128 
L 149.105455 144.490824 
L 153.163636 144.421272 
L 157.221818 144.403128 
L 161.28 144.45756 
L 165.338182 144.610272 
L 169.396364 144.882432 
L 173.454545 145.280088 
L 177.512727 145.792656 
L 181.570909 146.395944 
L 185.629091 147.064248 
L 189.687273 147.76884 
L 193.745455 148.485528 
L 197.803636 149.161392 
L 201.861818 149.625576 
L 205.92 149.676984 
L 209.978182 149.540904 
L 214.036364 149.353416 
L 218.094545 149.143248 
L 222.152727 148.91796 
L 226.210909 148.682088 
L 230.269091 148.435632 
L 234.327273 148.181616 
L 238.385455 147.92004 
L 242.443636 147.649392 
L 246.501818 147.372696 
L 250.56 147.08844 
L 254.618182 146.798136 
L 258.676364 146.500272 
L 262.734545 146.197872 
L 266.792727 145.890936 
L 270.850909 145.577952 
L 274.909091 145.260432 
L 278.967273 144.939888 
L 283.025455 144.61632 
L 287.083636 144.29124 
L 291.141818 143.96616 
L 295.2 143.642592 
L 299.258182 143.322048 
L 303.316364 143.012088 
L 307.374545 142.717248 
L 311.432727 142.449624 
L 315.490909 142.230384 
L 319.549091 142.103376 
L 323.607273 142.153272 
L 327.665455 142.505568 
L 331.723636 143.23284 
L 335.781818 144.257976 
L 339.84 145.449432 
L 343.898182 146.722536 
L 347.956364 148.03344 
L 352.014545 149.357952 
L 356.072727 150.677928 
L 360.130909 151.982784 
L 364.189091 153.245304 
L 368.247273 154.400472 
L 372.305455 155.189736 
L 376.363636 155.173104 
L 380.421818 154.645416 
L 384.48 153.957456 
L 388.538182 153.209016 
L 392.596364 152.431848 
L 396.654545 151.642584 
L 400.712727 150.851808 
L 404.770909 150.073128 
L 408.829091 149.320152 
L 412.887273 148.606488 
L 416.945455 147.95028 
L 421.003636 147.372696 
L 425.061818 146.893392 
L 429.12 146.525976 
L 433.178182 146.27952 
L 437.236364 146.151 
L 441.294545 146.125296 
L 445.352727 146.179728 
L 449.410909 146.293128 
L 453.469091 146.444328 
L 457.527273 146.618208 
L 461.585455 146.799648 
L 465.643636 146.981088 
L 469.701818 147.151944 
L 473.76 147.309192 
L 477.818182 147.448296 
L 481.876364 147.566232 
L 485.934545 147.658464 
L 489.992727 147.726504 
L 494.050909 147.767328 
L 498.109091 147.780936 
" clip-path="url(#pc4223bb9b4)" style="fill: none; stroke: #000000; stroke-opacity: 0.5; stroke-linecap: square"/>
   </g>
   <g id="line2d_22">
    <path d="M 92.290909 119.756016 
L 96.349091 120.678336 
L 100.407273 121.886424 
L 104.465455 123.097536 
L 108.523636 124.296552 
L 112.581818 125.48196 
L 116.64 126.649224 
L 120.698182 127.798344 
L 124.756364 128.926296 
L 128.814545 130.031568 
L 132.872727 131.111136 
L 136.930909 132.160464 
L 140.989091 133.176528 
L 145.047273 134.150256 
L 149.105455 135.072576 
L 153.163636 135.92988 
L 157.221818 136.702512 
L 161.28 137.369304 
L 165.338182 137.90304 
L 169.396364 138.282552 
L 173.454545 138.50028 
L 177.512727 138.569832 
L 181.570909 138.510864 
L 185.629091 138.350592 
L 189.687273 138.108672 
L 193.745455 137.80476 
L 197.803636 137.44944 
L 201.861818 137.051784 
L 205.92 136.619352 
L 209.978182 136.155168 
L 214.036364 135.66528 
L 218.094545 135.148176 
L 222.152727 134.608392 
L 226.210909 134.048952 
L 230.269091 133.466832 
L 234.327273 132.866568 
L 238.385455 132.24816 
L 242.443636 131.611608 
L 246.501818 130.958424 
L 250.56 130.29012 
L 254.618182 129.608208 
L 258.676364 128.912688 
L 262.734545 128.205072 
L 266.792727 127.491408 
L 270.850909 126.777744 
L 274.909091 126.076176 
L 278.967273 125.433576 
L 283.025455 125.038944 
L 287.083636 125.480448 
L 291.141818 126.677952 
L 295.2 128.079576 
L 299.258182 129.52656 
L 303.316364 130.976568 
L 307.374545 132.411456 
L 311.432727 133.81308 
L 315.490909 135.157248 
L 319.549091 136.400112 
L 323.607273 137.457 
L 327.665455 138.199392 
L 331.723636 138.554712 
L 335.781818 138.601584 
L 339.84 138.468528 
L 343.898182 138.241728 
L 347.956364 137.962008 
L 352.014545 137.652048 
L 356.072727 137.325456 
L 360.130909 136.98828 
L 364.189091 136.645056 
L 368.247273 136.298808 
L 372.305455 135.95256 
L 376.363636 135.609336 
L 380.421818 135.269136 
L 384.48 134.938008 
L 388.538182 134.622 
L 392.596364 134.336232 
L 396.654545 134.150256 
L 400.712727 134.280288 
L 404.770909 134.75052 
L 408.829091 135.278208 
L 412.887273 135.754488 
L 416.945455 136.144584 
L 421.003636 136.422792 
L 425.061818 136.570968 
L 429.12 136.575504 
L 433.178182 136.430352 
L 437.236364 136.14156 
L 441.294545 135.731808 
L 445.352727 135.222264 
L 449.410909 134.643168 
L 453.469091 134.020224 
L 457.527273 133.3746 
L 461.585455 132.728976 
L 465.643636 132.099984 
L 469.701818 131.502744 
L 473.76 130.952376 
L 477.818182 130.465512 
L 481.876364 130.05576 
L 485.934545 129.736728 
L 489.992727 129.520512 
L 494.050909 129.402576 
L 498.109091 129.3678 
" clip-path="url(#pc4223bb9b4)" style="fill: none; stroke: #000000; stroke-opacity: 0.5; stroke-linecap: square"/>
   </g>
   <g id="line2d_23">
    <path d="M 92.290909 118.981872 
L 96.349091 118.045944 
L 100.407273 116.79552 
L 104.465455 115.513344 
L 108.523636 114.214536 
L 112.581818 112.900608 
L 116.64 111.573072 
L 120.698182 110.23344 
L 124.756364 108.881712 
L 128.814545 107.5194 
L 132.872727 106.146504 
L 136.930909 104.763024 
L 140.989091 103.36896 
L 145.047273 101.965824 
L 149.105455 100.552104 
L 153.163636 99.130824 
L 157.221818 97.700472 
L 161.28 96.26256 
L 165.338182 94.817088 
L 169.396364 93.364056 
L 173.454545 91.904976 
L 177.512727 90.439848 
L 181.570909 88.970184 
L 185.629091 87.499008 
L 189.687273 86.265216 
L 193.745455 87.827112 
L 197.803636 89.461584 
L 201.861818 91.09908 
L 205.92 92.735064 
L 209.978182 94.369536 
L 214.036364 96.002496 
L 218.094545 97.633944 
L 222.152727 99.262368 
L 226.210909 100.887768 
L 230.269091 102.510144 
L 234.327273 104.129496 
L 238.385455 105.744312 
L 242.443636 107.354592 
L 246.501818 108.960336 
L 250.56 110.560032 
L 254.618182 112.15368 
L 258.676364 113.739768 
L 262.734545 115.315272 
L 266.792727 116.877168 
L 270.850909 118.42092 
L 274.909091 119.931408 
L 278.967273 121.363272 
L 283.025455 122.527512 
L 287.083636 122.840496 
L 291.141818 122.379336 
L 295.2 121.698936 
L 299.258182 120.962592 
L 303.316364 120.21264 
L 307.374545 119.474784 
L 311.432727 118.774728 
L 315.490909 118.14876 
L 319.549091 117.654336 
L 323.607273 117.379152 
L 327.665455 117.424512 
L 331.723636 117.82368 
L 335.781818 118.5192 
L 339.84 119.406744 
L 343.898182 120.40164 
L 347.956364 121.45248 
L 352.014545 122.527512 
L 356.072727 123.60708 
L 360.130909 124.6806 
L 364.189091 125.737488 
L 368.247273 126.77472 
L 372.305455 127.784736 
L 376.363636 128.764512 
L 380.421818 129.708 
L 384.48 130.610664 
L 388.538182 131.46192 
L 392.596364 132.242112 
L 396.654545 132.881688 
L 400.712727 133.152336 
L 404.770909 133.028352 
L 408.829091 132.783408 
L 412.887273 132.509736 
L 416.945455 132.23304 
L 421.003636 131.959368 
L 425.061818 131.691744 
L 429.12 131.433192 
L 433.178182 131.185224 
L 437.236364 130.949352 
L 441.294545 130.724064 
L 445.352727 130.510872 
L 449.410909 130.3128 
L 453.469091 130.126824 
L 457.527273 129.954456 
L 461.585455 129.797208 
L 465.643636 129.65508 
L 469.701818 129.52656 
L 473.76 129.411648 
L 477.818182 129.310344 
L 481.876364 129.221136 
L 485.934545 129.137976 
L 489.992727 129.059352 
L 494.050909 128.99736 
L 498.109091 128.971656 
" clip-path="url(#pc4223bb9b4)" style="fill: none; stroke: #000000; stroke-opacity: 0.5; stroke-linecap: square"/>
   </g>
   <g id="patch_3">
    <path d="M 72 384.48 
L 72 51.84 
" style="fill: none; stroke: #000000; stroke-width: 0.8; stroke-linejoin: miter; stroke-linecap: square"/>
   </g>
   <g id="patch_4">
    <path d="M 518.4 384.48 
L 518.4 51.84 
" style="fill: none; stroke: #000000; stroke-width: 0.8; stroke-linejoin: miter; stroke-linecap: square"/>
   </g>
   <g id="patch_5">
    <path d="M 72 384.48 
L 518.4 384.48 
" style="fill: none; stroke: #000000; stroke-width: 0.8; stroke-linejoin: miter; stroke-linecap: square"/>
   </g>
   <g id="patch_6">
    <path d="M 72 51.84 
L 518.4 51.84 
" style="fill: none; stroke: #000000; stroke-width: 0.8; stroke-linejoin: miter; stroke-linecap: square"/>
   </g>
  </g>
 </g>
 <defs>
  <clipPath id="pc4223bb9b4">
   <rect x="72" y="51.84" width="446.4" height="332.64"/>
  </clipPath>
 </defs>
</svg>
