<?xml version="1.0" encoding="utf-8" standalone="no"?>
<!DOCTYPE svg PUBLIC "-//W3C//DTD SVG 1.1//EN"
  "http://www.w3.org/Graphics/SVG/1.1/DTD/svg11.dtd">
<svg xmlns:xlink="http://www.w3.org/1999/xlink" width="576pt" height="432pt" viewBox="0 0 576 432" xmlns="http://www.w3.org/2000/svg" version="1.1">
 <metadata>
  <rdf:RDF xmlns:dc="http://purl.org/dc/elements/1.1/" xmlns:cc="http://creativecommons.org/ns#" xmlns:rdf="http://www.w3.org/1999/02/22-rdf-syntax-ns#">
   <cc:Work>
    <dc:type rdf:resource="http://purl.org/dc/dcmitype/StillImage"/>
    <dc:date>2023-05-02T23:24:38.891992</dc:date>
    <dc:format>image/svg+xml</dc:format>
    <dc:creator>
     <cc:Agent>
      <dc:title>Matplotlib v3.7.1, https://matplotlib.org/</dc:title>
     </cc:Agent>
    </dc:creator>
   </cc:Work>
  </rdf:RDF>
 </metadata>
 <defs>
  <style type="text/css">*{stroke-linejoin: round; stroke-linecap: butt}</style>
 </defs>
 <g id="figure_1">
  <g id="patch_1">
   <path d="M 0 432 
L 576 432 
L 576 0 
L 0 0 
z
" style="fill: #ffffff"/>
  </g>
  <g id="axes_1">
   <g id="patch_2">
    <path d="M 72 384.48 
L 518.4 384.48 
L 518.4 51.84 
L 72 51.84 
z
" style="fill: #ffffff"/>
   </g>
   <g id="matplotlib.axis_1">
    <g id="xtick_1">
     <g id="line2d_1">
      <defs>
       <path id="m8f195c40b9" d="M 0 0 
L 0 3.5 
" style="stroke: #000000; stroke-width: 0.8"/>
      </defs>
      <g>
       <use xlink:href="#m8f195c40b9" x="92.290909" y="384.48" style="stroke: #000000; stroke-width: 0.8"/>
      </g>
     </g>
     <g id="text_1">
      <!-- 0.0 -->
      <g transform="translate(84.339347 399.078438) scale(0.1 -0.1)">
       <defs>
        <path id="DejaVuSans-30" d="M 2034 4250 
Q 1547 4250 1301 3770 
Q 1056 3291 1056 2328 
Q 1056 1369 1301 889 
Q 1547 409 2034 409 
Q 2525 409 2770 889 
Q 3016 1369 3016 2328 
Q 3016 3291 2770 3770 
Q 2525 4250 2034 4250 
z
M 2034 4750 
Q 2819 4750 3233 4129 
Q 3647 3509 3647 2328 
Q 3647 1150 3233 529 
Q 2819 -91 2034 -91 
Q 1250 -91 836 529 
Q 422 1150 422 2328 
Q 422 3509 836 4129 
Q 1250 4750 2034 4750 
z
" transform="scale(0.015625)"/>
        <path id="DejaVuSans-2e" d="M 684 794 
L 1344 794 
L 1344 0 
L 684 0 
L 684 794 
z
" transform="scale(0.015625)"/>
       </defs>
       <use xlink:href="#DejaVuSans-30"/>
       <use xlink:href="#DejaVuSans-2e" x="63.623047"/>
       <use xlink:href="#DejaVuSans-30" x="95.410156"/>
      </g>
     </g>
    </g>
    <g id="xtick_2">
     <g id="line2d_2">
      <g>
       <use xlink:href="#m8f195c40b9" x="173.454545" y="384.48" style="stroke: #000000; stroke-width: 0.8"/>
      </g>
     </g>
     <g id="text_2">
      <!-- 0.2 -->
      <g transform="translate(165.502983 399.078438) scale(0.1 -0.1)">
       <defs>
        <path id="DejaVuSans-32" d="M 1228 531 
L 3431 531 
L 3431 0 
L 469 0 
L 469 531 
Q 828 903 1448 1529 
Q 2069 2156 2228 2338 
Q 2531 2678 2651 2914 
Q 2772 3150 2772 3378 
Q 2772 3750 2511 3984 
Q 2250 4219 1831 4219 
Q 1534 4219 1204 4116 
Q 875 4013 500 3803 
L 500 4441 
Q 881 4594 1212 4672 
Q 1544 4750 1819 4750 
Q 2544 4750 2975 4387 
Q 3406 4025 3406 3419 
Q 3406 3131 3298 2873 
Q 3191 2616 2906 2266 
Q 2828 2175 2409 1742 
Q 1991 1309 1228 531 
z
" transform="scale(0.015625)"/>
       </defs>
       <use xlink:href="#DejaVuSans-30"/>
       <use xlink:href="#DejaVuSans-2e" x="63.623047"/>
       <use xlink:href="#DejaVuSans-32" x="95.410156"/>
      </g>
     </g>
    </g>
    <g id="xtick_3">
     <g id="line2d_3">
      <g>
       <use xlink:href="#m8f195c40b9" x="254.618182" y="384.48" style="stroke: #000000; stroke-width: 0.8"/>
      </g>
     </g>
     <g id="text_3">
      <!-- 0.4 -->
      <g transform="translate(246.666619 399.078438) scale(0.1 -0.1)">
       <defs>
        <path id="DejaVuSans-34" d="M 2419 4116 
L 825 1625 
L 2419 1625 
L 2419 4116 
z
M 2253 4666 
L 3047 4666 
L 3047 1625 
L 3713 1625 
L 3713 1100 
L 3047 1100 
L 3047 0 
L 2419 0 
L 2419 1100 
L 313 1100 
L 313 1709 
L 2253 4666 
z
" transform="scale(0.015625)"/>
       </defs>
       <use xlink:href="#DejaVuSans-30"/>
       <use xlink:href="#DejaVuSans-2e" x="63.623047"/>
       <use xlink:href="#DejaVuSans-34" x="95.410156"/>
      </g>
     </g>
    </g>
    <g id="xtick_4">
     <g id="line2d_4">
      <g>
       <use xlink:href="#m8f195c40b9" x="335.781818" y="384.48" style="stroke: #000000; stroke-width: 0.8"/>
      </g>
     </g>
     <g id="text_4">
      <!-- 0.6 -->
      <g transform="translate(327.830256 399.078438) scale(0.1 -0.1)">
       <defs>
        <path id="DejaVuSans-36" d="M 2113 2584 
Q 1688 2584 1439 2293 
Q 1191 2003 1191 1497 
Q 1191 994 1439 701 
Q 1688 409 2113 409 
Q 2538 409 2786 701 
Q 3034 994 3034 1497 
Q 3034 2003 2786 2293 
Q 2538 2584 2113 2584 
z
M 3366 4563 
L 3366 3988 
Q 3128 4100 2886 4159 
Q 2644 4219 2406 4219 
Q 1781 4219 1451 3797 
Q 1122 3375 1075 2522 
Q 1259 2794 1537 2939 
Q 1816 3084 2150 3084 
Q 2853 3084 3261 2657 
Q 3669 2231 3669 1497 
Q 3669 778 3244 343 
Q 2819 -91 2113 -91 
Q 1303 -91 875 529 
Q 447 1150 447 2328 
Q 447 3434 972 4092 
Q 1497 4750 2381 4750 
Q 2619 4750 2861 4703 
Q 3103 4656 3366 4563 
z
" transform="scale(0.015625)"/>
       </defs>
       <use xlink:href="#DejaVuSans-30"/>
       <use xlink:href="#DejaVuSans-2e" x="63.623047"/>
       <use xlink:href="#DejaVuSans-36" x="95.410156"/>
      </g>
     </g>
    </g>
    <g id="xtick_5">
     <g id="line2d_5">
      <g>
       <use xlink:href="#m8f195c40b9" x="416.945455" y="384.48" style="stroke: #000000; stroke-width: 0.8"/>
      </g>
     </g>
     <g id="text_5">
      <!-- 0.8 -->
      <g transform="translate(408.993892 399.078438) scale(0.1 -0.1)">
       <defs>
        <path id="DejaVuSans-38" d="M 2034 2216 
Q 1584 2216 1326 1975 
Q 1069 1734 1069 1313 
Q 1069 891 1326 650 
Q 1584 409 2034 409 
Q 2484 409 2743 651 
Q 3003 894 3003 1313 
Q 3003 1734 2745 1975 
Q 2488 2216 2034 2216 
z
M 1403 2484 
Q 997 2584 770 2862 
Q 544 3141 544 3541 
Q 544 4100 942 4425 
Q 1341 4750 2034 4750 
Q 2731 4750 3128 4425 
Q 3525 4100 3525 3541 
Q 3525 3141 3298 2862 
Q 3072 2584 2669 2484 
Q 3125 2378 3379 2068 
Q 3634 1759 3634 1313 
Q 3634 634 3220 271 
Q 2806 -91 2034 -91 
Q 1263 -91 848 271 
Q 434 634 434 1313 
Q 434 1759 690 2068 
Q 947 2378 1403 2484 
z
M 1172 3481 
Q 1172 3119 1398 2916 
Q 1625 2713 2034 2713 
Q 2441 2713 2670 2916 
Q 2900 3119 2900 3481 
Q 2900 3844 2670 4047 
Q 2441 4250 2034 4250 
Q 1625 4250 1398 4047 
Q 1172 3844 1172 3481 
z
" transform="scale(0.015625)"/>
       </defs>
       <use xlink:href="#DejaVuSans-30"/>
       <use xlink:href="#DejaVuSans-2e" x="63.623047"/>
       <use xlink:href="#DejaVuSans-38" x="95.410156"/>
      </g>
     </g>
    </g>
    <g id="xtick_6">
     <g id="line2d_6">
      <g>
       <use xlink:href="#m8f195c40b9" x="498.109091" y="384.48" style="stroke: #000000; stroke-width: 0.8"/>
      </g>
     </g>
     <g id="text_6">
      <!-- 1.0 -->
      <g transform="translate(490.157528 399.078438) scale(0.1 -0.1)">
       <defs>
        <path id="DejaVuSans-31" d="M 794 531 
L 1825 531 
L 1825 4091 
L 703 3866 
L 703 4441 
L 1819 4666 
L 2450 4666 
L 2450 531 
L 3481 531 
L 3481 0 
L 794 0 
L 794 531 
z
" transform="scale(0.015625)"/>
       </defs>
       <use xlink:href="#DejaVuSans-31"/>
       <use xlink:href="#DejaVuSans-2e" x="63.623047"/>
       <use xlink:href="#DejaVuSans-30" x="95.410156"/>
      </g>
     </g>
    </g>
   </g>
   <g id="matplotlib.axis_2">
    <g id="ytick_1">
     <g id="line2d_7">
      <defs>
       <path id="mf9790ab08a" d="M 0 0 
L -3.5 0 
" style="stroke: #000000; stroke-width: 0.8"/>
      </defs>
      <g>
       <use xlink:href="#mf9790ab08a" x="72" y="369.36" style="stroke: #000000; stroke-width: 0.8"/>
      </g>
     </g>
     <g id="text_7">
      <!-- −5.0 -->
      <g transform="translate(40.717187 373.159219) scale(0.1 -0.1)">
       <defs>
        <path id="DejaVuSans-2212" d="M 678 2272 
L 4684 2272 
L 4684 1741 
L 678 1741 
L 678 2272 
z
" transform="scale(0.015625)"/>
        <path id="DejaVuSans-35" d="M 691 4666 
L 3169 4666 
L 3169 4134 
L 1269 4134 
L 1269 2991 
Q 1406 3038 1543 3061 
Q 1681 3084 1819 3084 
Q 2600 3084 3056 2656 
Q 3513 2228 3513 1497 
Q 3513 744 3044 326 
Q 2575 -91 1722 -91 
Q 1428 -91 1123 -41 
Q 819 9 494 109 
L 494 744 
Q 775 591 1075 516 
Q 1375 441 1709 441 
Q 2250 441 2565 725 
Q 2881 1009 2881 1497 
Q 2881 1984 2565 2268 
Q 2250 2553 1709 2553 
Q 1456 2553 1204 2497 
Q 953 2441 691 2322 
L 691 4666 
z
" transform="scale(0.015625)"/>
       </defs>
       <use xlink:href="#DejaVuSans-2212"/>
       <use xlink:href="#DejaVuSans-35" x="83.789062"/>
       <use xlink:href="#DejaVuSans-2e" x="147.412109"/>
       <use xlink:href="#DejaVuSans-30" x="179.199219"/>
      </g>
     </g>
    </g>
    <g id="ytick_2">
     <g id="line2d_8">
      <g>
       <use xlink:href="#mf9790ab08a" x="72" y="331.56" style="stroke: #000000; stroke-width: 0.8"/>
      </g>
     </g>
     <g id="text_8">
      <!-- −2.5 -->
      <g transform="translate(40.717187 335.359219) scale(0.1 -0.1)">
       <use xlink:href="#DejaVuSans-2212"/>
       <use xlink:href="#DejaVuSans-32" x="83.789062"/>
       <use xlink:href="#DejaVuSans-2e" x="147.412109"/>
       <use xlink:href="#DejaVuSans-35" x="179.199219"/>
      </g>
     </g>
    </g>
    <g id="ytick_3">
     <g id="line2d_9">
      <g>
       <use xlink:href="#mf9790ab08a" x="72" y="293.76" style="stroke: #000000; stroke-width: 0.8"/>
      </g>
     </g>
     <g id="text_9">
      <!-- 0.0 -->
      <g transform="translate(49.096875 297.559219) scale(0.1 -0.1)">
       <use xlink:href="#DejaVuSans-30"/>
       <use xlink:href="#DejaVuSans-2e" x="63.623047"/>
       <use xlink:href="#DejaVuSans-30" x="95.410156"/>
      </g>
     </g>
    </g>
    <g id="ytick_4">
     <g id="line2d_10">
      <g>
       <use xlink:href="#mf9790ab08a" x="72" y="255.96" style="stroke: #000000; stroke-width: 0.8"/>
      </g>
     </g>
     <g id="text_10">
      <!-- 2.5 -->
      <g transform="translate(49.096875 259.759219) scale(0.1 -0.1)">
       <use xlink:href="#DejaVuSans-32"/>
       <use xlink:href="#DejaVuSans-2e" x="63.623047"/>
       <use xlink:href="#DejaVuSans-35" x="95.410156"/>
      </g>
     </g>
    </g>
    <g id="ytick_5">
     <g id="line2d_11">
      <g>
       <use xlink:href="#mf9790ab08a" x="72" y="218.16" style="stroke: #000000; stroke-width: 0.8"/>
      </g>
     </g>
     <g id="text_11">
      <!-- 5.0 -->
      <g transform="translate(49.096875 221.959219) scale(0.1 -0.1)">
       <use xlink:href="#DejaVuSans-35"/>
       <use xlink:href="#DejaVuSans-2e" x="63.623047"/>
       <use xlink:href="#DejaVuSans-30" x="95.410156"/>
      </g>
     </g>
    </g>
    <g id="ytick_6">
     <g id="line2d_12">
      <g>
       <use xlink:href="#mf9790ab08a" x="72" y="180.36" style="stroke: #000000; stroke-width: 0.8"/>
      </g>
     </g>
     <g id="text_12">
      <!-- 7.5 -->
      <g transform="translate(49.096875 184.159219) scale(0.1 -0.1)">
       <defs>
        <path id="DejaVuSans-37" d="M 525 4666 
L 3525 4666 
L 3525 4397 
L 1831 0 
L 1172 0 
L 2766 4134 
L 525 4134 
L 525 4666 
z
" transform="scale(0.015625)"/>
       </defs>
       <use xlink:href="#DejaVuSans-37"/>
       <use xlink:href="#DejaVuSans-2e" x="63.623047"/>
       <use xlink:href="#DejaVuSans-35" x="95.410156"/>
      </g>
     </g>
    </g>
    <g id="ytick_7">
     <g id="line2d_13">
      <g>
       <use xlink:href="#mf9790ab08a" x="72" y="142.56" style="stroke: #000000; stroke-width: 0.8"/>
      </g>
     </g>
     <g id="text_13">
      <!-- 10.0 -->
      <g transform="translate(42.734375 146.359219) scale(0.1 -0.1)">
       <use xlink:href="#DejaVuSans-31"/>
       <use xlink:href="#DejaVuSans-30" x="63.623047"/>
       <use xlink:href="#DejaVuSans-2e" x="127.246094"/>
       <use xlink:href="#DejaVuSans-30" x="159.033203"/>
      </g>
     </g>
    </g>
    <g id="ytick_8">
     <g id="line2d_14">
      <g>
       <use xlink:href="#mf9790ab08a" x="72" y="104.76" style="stroke: #000000; stroke-width: 0.8"/>
      </g>
     </g>
     <g id="text_14">
      <!-- 12.5 -->
      <g transform="translate(42.734375 108.559219) scale(0.1 -0.1)">
       <use xlink:href="#DejaVuSans-31"/>
       <use xlink:href="#DejaVuSans-32" x="63.623047"/>
       <use xlink:href="#DejaVuSans-2e" x="127.246094"/>
       <use xlink:href="#DejaVuSans-35" x="159.033203"/>
      </g>
     </g>
    </g>
    <g id="ytick_9">
     <g id="line2d_15">
      <g>
       <use xlink:href="#mf9790ab08a" x="72" y="66.96" style="stroke: #000000; stroke-width: 0.8"/>
      </g>
     </g>
     <g id="text_15">
      <!-- 15.0 -->
      <g transform="translate(42.734375 70.759219) scale(0.1 -0.1)">
       <use xlink:href="#DejaVuSans-31"/>
       <use xlink:href="#DejaVuSans-35" x="63.623047"/>
       <use xlink:href="#DejaVuSans-2e" x="127.246094"/>
       <use xlink:href="#DejaVuSans-30" x="159.033203"/>
      </g>
     </g>
    </g>
   </g>
   <g id="line2d_16">
    <path d="M 92.290909 377.13924 
L 96.349091 377.133192 
L 100.407273 377.113536 
L 104.465455 377.081784 
L 108.523636 377.037936 
L 112.581818 376.98048 
L 116.64 376.910928 
L 120.698182 376.82928 
L 124.756364 376.734024 
L 128.814545 376.628184 
L 132.872727 376.507224 
L 136.930909 376.37568 
L 140.989091 376.230528 
L 145.047273 376.07328 
L 149.105455 375.902424 
L 153.163636 375.719472 
L 157.221818 375.524424 
L 161.28 375.31728 
L 165.338182 375.096528 
L 169.396364 374.86368 
L 173.454545 374.618736 
L 177.512727 374.361696 
L 181.570909 374.091048 
L 185.629091 373.808304 
L 189.687273 373.513464 
L 193.745455 373.206528 
L 197.803636 372.887496 
L 201.861818 372.556368 
L 205.92 372.211632 
L 209.978182 371.856312 
L 214.036364 371.487384 
L 218.094545 371.10636 
L 222.152727 370.714752 
L 226.210909 370.309536 
L 230.269091 369.892224 
L 234.327273 369.462816 
L 238.385455 369.022824 
L 242.443636 368.569224 
L 246.501818 368.10504 
L 250.56 367.62876 
L 254.618182 367.140384 
L 258.676364 366.639912 
L 262.734545 366.127344 
L 266.792727 365.604192 
L 270.850909 365.068944 
L 274.909091 364.5216 
L 278.967273 363.963672 
L 283.025455 363.393648 
L 287.083636 362.81304 
L 291.141818 362.220336 
L 295.2 361.617048 
L 299.258182 361.001664 
L 303.316364 360.375696 
L 307.374545 359.739144 
L 311.432727 359.090496 
L 315.490909 358.431264 
L 319.549091 357.761448 
L 323.607273 357.081048 
L 327.665455 356.390064 
L 331.723636 355.688496 
L 335.781818 354.976344 
L 339.84 354.253608 
L 343.898182 353.5218 
L 347.956364 352.777896 
L 352.014545 352.026432 
L 356.072727 351.262872 
L 360.130909 350.49024 
L 364.189091 349.708536 
L 368.247273 348.916248 
L 372.305455 348.114888 
L 376.363636 347.304456 
L 380.421818 346.484952 
L 384.48 345.656376 
L 388.538182 344.818728 
L 392.596364 343.972008 
L 396.654545 343.117728 
L 400.712727 342.254376 
L 404.770909 341.383464 
L 408.829091 340.504992 
L 412.887273 339.61896 
L 416.945455 338.725368 
L 421.003636 337.824216 
L 425.061818 336.917016 
L 429.12 336.002256 
L 433.178182 335.08296 
L 437.236364 334.156104 
L 441.294545 333.226224 
L 445.352727 332.290296 
L 449.410909 331.351344 
L 453.469091 330.41088 
L 457.527273 329.467392 
L 461.585455 328.523904 
L 465.643636 327.58344 
L 469.701818 326.647512 
L 473.76 325.72368 
L 477.818182 324.817992 
L 481.876364 323.944056 
L 485.934545 323.129088 
L 489.992727 322.41996 
L 494.050909 321.904368 
L 498.109091 321.70932 
" clip-path="url(#pf7a5c6aac3)" style="fill: none; stroke: #000000; stroke-opacity: 0.5; stroke-linecap: square"/>
   </g>
   <g id="line2d_17">
    <path d="M 92.290909 228.18456 
L 96.349091 228.263184 
L 100.407273 228.49452 
L 104.465455 228.861936 
L 108.523636 229.345776 
L 112.581818 229.92336 
L 116.64 230.578056 
L 120.698182 231.293232 
L 124.756364 232.05528 
L 128.814545 232.853616 
L 132.872727 233.682192 
L 136.930909 234.53496 
L 140.989091 235.407384 
L 145.047273 236.293416 
L 149.105455 237.191544 
L 153.163636 238.100256 
L 157.221818 239.015016 
L 161.28 239.937336 
L 165.338182 240.86268 
L 169.396364 241.79256 
L 173.454545 242.723952 
L 177.512727 243.656856 
L 181.570909 244.591272 
L 185.629091 245.5272 
L 189.687273 246.461616 
L 193.745455 247.39452 
L 197.803636 248.327424 
L 201.861818 249.258816 
L 205.92 250.188696 
L 209.978182 251.117064 
L 214.036364 252.04392 
L 218.094545 252.967752 
L 222.152727 253.890072 
L 226.210909 254.809368 
L 230.269091 255.727152 
L 234.327273 256.643424 
L 238.385455 257.556672 
L 242.443636 258.468408 
L 246.501818 259.37712 
L 250.56 260.28432 
L 254.618182 261.190008 
L 258.676364 262.094184 
L 262.734545 262.995336 
L 266.792727 263.896488 
L 270.850909 264.796128 
L 274.909091 265.695768 
L 278.967273 266.593896 
L 283.025455 267.492024 
L 287.083636 268.390152 
L 291.141818 269.286768 
L 295.2 270.186408 
L 299.258182 271.084536 
L 303.316364 271.984176 
L 307.374545 272.885328 
L 311.432727 273.787992 
L 315.490909 274.69368 
L 319.549091 275.599368 
L 323.607273 276.509592 
L 327.665455 277.421328 
L 331.723636 278.336088 
L 335.781818 279.253872 
L 339.84 280.176192 
L 343.898182 281.101536 
L 347.956364 282.031416 
L 352.014545 282.96432 
L 356.072727 283.90176 
L 360.130909 284.843736 
L 364.189091 285.79176 
L 368.247273 286.742808 
L 372.305455 287.698392 
L 376.363636 288.660024 
L 380.421818 289.62468 
L 384.48 290.595384 
L 388.538182 291.569112 
L 392.596364 292.548888 
L 396.654545 293.531688 
L 400.712727 294.520536 
L 404.770909 295.510896 
L 408.829091 296.507304 
L 412.887273 297.505224 
L 416.945455 298.50768 
L 421.003636 299.511648 
L 425.061818 300.51864 
L 429.12 301.527144 
L 433.178182 302.53716 
L 437.236364 303.548688 
L 441.294545 304.560216 
L 445.352727 305.571744 
L 449.410909 306.580248 
L 453.469091 307.588752 
L 457.527273 308.591208 
L 461.585455 309.589128 
L 465.643636 310.579488 
L 469.701818 311.559264 
L 473.76 312.520896 
L 477.818182 313.459848 
L 481.876364 314.359488 
L 485.934545 315.195624 
L 489.992727 315.919872 
L 494.050909 316.444536 
L 498.109091 316.642608 
" clip-path="url(#pf7a5c6aac3)" style="fill: none; stroke: #000000; stroke-opacity: 0.5; stroke-linecap: square"/>
   </g>
   <g id="line2d_18">
    <path d="M 92.290909 217.23768 
L 96.349091 217.175688 
L 100.407273 217.000296 
L 104.465455 216.725112 
L 108.523636 216.377352 
L 112.581818 215.98272 
L 116.64 215.569944 
L 120.698182 215.172288 
L 124.756364 214.827552 
L 128.814545 214.58412 
L 132.872727 214.48584 
L 136.930909 214.555392 
L 140.989091 214.771608 
L 145.047273 215.0982 
L 149.105455 215.50644 
L 153.163636 215.970624 
L 157.221818 216.478656 
L 161.28 217.021464 
L 165.338182 217.589976 
L 169.396364 218.181168 
L 173.454545 218.790504 
L 177.512727 219.41496 
L 181.570909 220.054536 
L 185.629091 220.704696 
L 189.687273 221.363928 
L 193.745455 222.032232 
L 197.803636 222.708096 
L 201.861818 223.388496 
L 205.92 224.073432 
L 209.978182 224.761392 
L 214.036364 225.453888 
L 218.094545 226.146384 
L 222.152727 226.841904 
L 226.210909 227.537424 
L 230.269091 228.234456 
L 234.327273 228.929976 
L 238.385455 229.625496 
L 242.443636 230.321016 
L 246.501818 231.013512 
L 250.56 231.706008 
L 254.618182 232.39548 
L 258.676364 233.08344 
L 262.734545 233.768376 
L 266.792727 234.4518 
L 270.850909 235.1322 
L 274.909091 235.811088 
L 278.967273 236.48544 
L 283.025455 237.15828 
L 287.083636 237.826584 
L 291.141818 238.493376 
L 295.2 239.155632 
L 299.258182 239.816376 
L 303.316364 240.472584 
L 307.374545 241.125768 
L 311.432727 241.774416 
L 315.490909 242.42004 
L 319.549091 243.059616 
L 323.607273 243.696168 
L 327.665455 244.328184 
L 331.723636 244.954152 
L 335.781818 245.575584 
L 339.84 246.190968 
L 343.898182 246.798792 
L 347.956364 247.400568 
L 352.014545 247.993272 
L 356.072727 248.578416 
L 360.130909 249.156 
L 364.189091 249.723 
L 368.247273 250.279416 
L 372.305455 250.825248 
L 376.363636 251.358984 
L 380.421818 251.882136 
L 384.48 252.39168 
L 388.538182 252.887616 
L 392.596364 253.369944 
L 396.654545 253.837152 
L 400.712727 254.290752 
L 404.770909 254.72772 
L 408.829091 255.148056 
L 412.887273 255.553272 
L 416.945455 255.940344 
L 421.003636 256.312296 
L 425.061818 256.664592 
L 429.12 257.000256 
L 433.178182 257.317776 
L 437.236364 257.61564 
L 441.294545 257.896872 
L 445.352727 258.158448 
L 449.410909 258.40188 
L 453.469091 258.625656 
L 457.527273 258.829776 
L 461.585455 259.015752 
L 465.643636 259.182072 
L 469.701818 259.328736 
L 473.76 259.455744 
L 477.818182 259.564608 
L 481.876364 259.652304 
L 485.934545 259.720344 
L 489.992727 259.77024 
L 494.050909 259.798968 
L 498.109091 259.809552 
" clip-path="url(#pf7a5c6aac3)" style="fill: none; stroke: #000000; stroke-opacity: 0.5; stroke-linecap: square"/>
   </g>
   <g id="line2d_19">
    <path d="M 92.290909 210.361104 
L 96.349091 210.38076 
L 100.407273 210.439728 
L 104.465455 210.533472 
L 108.523636 210.66048 
L 112.581818 210.813192 
L 116.64 210.982536 
L 120.698182 211.150368 
L 124.756364 211.289472 
L 128.814545 211.365072 
L 132.872727 211.337856 
L 136.930909 211.195728 
L 140.989091 210.959856 
L 145.047273 210.671064 
L 149.105455 210.367152 
L 153.163636 210.072312 
L 157.221818 209.801664 
L 161.28 209.570328 
L 165.338182 209.385864 
L 169.396364 209.251296 
L 173.454545 209.175696 
L 177.512727 209.157552 
L 181.570909 209.2014 
L 185.629091 209.30724 
L 189.687273 209.475072 
L 193.745455 209.703384 
L 197.803636 209.992176 
L 201.861818 210.3354 
L 205.92 210.734568 
L 209.978182 211.183632 
L 214.036364 211.679568 
L 218.094545 212.220864 
L 222.152727 212.801472 
L 226.210909 213.418368 
L 230.269091 214.068528 
L 234.327273 214.747416 
L 238.385455 215.45352 
L 242.443636 216.182304 
L 246.501818 216.930744 
L 250.56 217.695816 
L 254.618182 218.474496 
L 258.676364 219.265272 
L 262.734545 220.066632 
L 266.792727 220.87404 
L 270.850909 221.684472 
L 274.909091 222.49944 
L 278.967273 223.314408 
L 283.025455 224.127864 
L 287.083636 224.938296 
L 291.141818 225.745704 
L 295.2 226.545552 
L 299.258182 227.33784 
L 303.316364 228.121056 
L 307.374545 228.8952 
L 311.432727 229.655736 
L 315.490909 230.405688 
L 319.549091 231.142032 
L 323.607273 231.863256 
L 327.665455 232.56936 
L 331.723636 233.258832 
L 335.781818 233.931672 
L 339.84 234.589392 
L 343.898182 235.227456 
L 347.956364 235.848888 
L 352.014545 236.450664 
L 356.072727 237.034296 
L 360.130909 237.599784 
L 364.189091 238.147128 
L 368.247273 238.674816 
L 372.305455 239.18436 
L 376.363636 239.67576 
L 380.421818 240.149016 
L 384.48 240.602616 
L 388.538182 241.039584 
L 392.596364 241.458408 
L 396.654545 241.857576 
L 400.712727 242.241624 
L 404.770909 242.607528 
L 408.829091 242.955288 
L 412.887273 243.286416 
L 416.945455 243.602424 
L 421.003636 243.900288 
L 425.061818 244.18152 
L 429.12 244.447632 
L 433.178182 244.697112 
L 437.236364 244.931472 
L 441.294545 245.1492 
L 445.352727 245.351808 
L 449.410909 245.537784 
L 453.469091 245.710152 
L 457.527273 245.865888 
L 461.585455 246.008016 
L 465.643636 246.133512 
L 469.701818 246.2454 
L 473.76 246.340656 
L 477.818182 246.422304 
L 481.876364 246.488832 
L 485.934545 246.54024 
L 489.992727 246.576528 
L 494.050909 246.599208 
L 498.109091 246.606768 
" clip-path="url(#pf7a5c6aac3)" style="fill: none; stroke: #000000; stroke-opacity: 0.5; stroke-linecap: square"/>
   </g>
   <g id="line2d_20">
    <path d="M 92.290909 169.081992 
L 96.349091 169.059312 
L 100.407273 168.991272 
L 104.465455 168.879384 
L 108.523636 168.72516 
L 112.581818 168.534648 
L 116.64 168.30936 
L 120.698182 168.056856 
L 124.756364 167.784696 
L 128.814545 167.501952 
L 132.872727 167.222232 
L 136.930909 166.95612 
L 140.989091 166.72176 
L 145.047273 166.531248 
L 149.105455 166.393656 
L 153.163636 166.308984 
L 157.221818 166.271184 
L 161.28 166.262112 
L 165.338182 166.266648 
L 169.396364 166.26816 
L 173.454545 166.254552 
L 177.512727 166.213728 
L 181.570909 166.144176 
L 185.629091 166.039848 
L 189.687273 165.903768 
L 193.745455 165.737448 
L 197.803636 165.548448 
L 201.861818 165.344328 
L 205.92 165.138696 
L 209.978182 164.94516 
L 214.036364 164.77884 
L 218.094545 164.65788 
L 222.152727 164.595888 
L 226.210909 164.600424 
L 230.269091 164.677536 
L 234.327273 164.821176 
L 238.385455 165.026808 
L 242.443636 165.28536 
L 246.501818 165.58776 
L 250.56 165.926448 
L 254.618182 166.292352 
L 258.676364 166.682448 
L 262.734545 167.089176 
L 266.792727 167.511024 
L 270.850909 167.943456 
L 274.909091 168.383448 
L 278.967273 168.829488 
L 283.025455 169.280064 
L 287.083636 169.732152 
L 291.141818 170.187264 
L 295.2 170.640864 
L 299.258182 171.095976 
L 303.316364 171.548064 
L 307.374545 171.997128 
L 311.432727 172.443168 
L 315.490909 172.886184 
L 319.549091 173.324664 
L 323.607273 173.758608 
L 327.665455 174.186504 
L 331.723636 174.609864 
L 335.781818 175.025664 
L 339.84 175.436928 
L 343.898182 175.83912 
L 347.956364 176.236776 
L 352.014545 176.62536 
L 356.072727 177.006384 
L 360.130909 177.379848 
L 364.189091 177.74424 
L 368.247273 178.101072 
L 372.305455 178.44732 
L 376.363636 178.786008 
L 380.421818 179.115624 
L 384.48 179.436168 
L 388.538182 179.74764 
L 392.596364 180.047016 
L 396.654545 180.338832 
L 400.712727 180.620064 
L 404.770909 180.890712 
L 408.829091 181.150776 
L 412.887273 181.400256 
L 416.945455 181.639152 
L 421.003636 181.867464 
L 425.061818 182.085192 
L 429.12 182.290824 
L 433.178182 182.485872 
L 437.236364 182.668824 
L 441.294545 182.841192 
L 445.352727 183.002976 
L 449.410909 183.151152 
L 453.469091 183.290256 
L 457.527273 183.415752 
L 461.585455 183.529152 
L 465.643636 183.631968 
L 469.701818 183.722688 
L 473.76 183.801312 
L 477.818182 183.86784 
L 481.876364 183.922272 
L 485.934545 183.964608 
L 489.992727 183.994848 
L 494.050909 184.012992 
L 498.109091 184.01904 
" clip-path="url(#pf7a5c6aac3)" style="fill: none; stroke: #000000; stroke-opacity: 0.5; stroke-linecap: square"/>
   </g>
   <g id="line2d_21">
    <path d="M 92.290909 155.965392 
L 96.349091 156.044016 
L 100.407273 156.267792 
L 104.465455 156.600432 
L 108.523636 157.005648 
L 112.581818 157.456224 
L 116.64 157.924944 
L 120.698182 158.395176 
L 124.756364 158.845752 
L 128.814545 159.261552 
L 132.872727 159.625944 
L 136.930909 159.91776 
L 140.989091 160.12188 
L 145.047273 160.221672 
L 149.105455 160.20504 
L 153.163636 160.071984 
L 157.221818 159.833088 
L 161.28 159.508008 
L 165.338182 159.119424 
L 169.396364 158.69304 
L 173.454545 158.259096 
L 177.512727 157.849344 
L 181.570909 157.495536 
L 185.629091 157.224888 
L 189.687273 157.049496 
L 193.745455 156.966336 
L 197.803636 156.951216 
L 201.861818 156.975408 
L 205.92 157.008672 
L 209.978182 157.026816 
L 214.036364 157.002624 
L 218.094545 156.914928 
L 222.152727 156.747096 
L 226.210909 156.488544 
L 230.269091 156.136248 
L 234.327273 155.694744 
L 238.385455 155.168568 
L 242.443636 154.571328 
L 246.501818 153.910584 
L 250.56 153.198432 
L 254.618182 152.442432 
L 258.676364 151.651656 
L 262.734545 150.832152 
L 266.792727 149.992992 
L 270.850909 149.140224 
L 274.909091 148.281408 
L 278.967273 147.42864 
L 283.025455 146.59704 
L 287.083636 145.813824 
L 291.141818 145.12284 
L 295.2 144.598176 
L 299.258182 144.338112 
L 303.316364 144.410688 
L 307.374545 144.776592 
L 311.432727 145.337544 
L 315.490909 146.00736 
L 319.549091 146.734632 
L 323.607273 147.48912 
L 327.665455 148.255704 
L 331.723636 149.022288 
L 335.781818 149.782824 
L 339.84 150.534288 
L 343.898182 151.273656 
L 347.956364 151.997904 
L 352.014545 152.707032 
L 356.072727 153.40104 
L 360.130909 154.075392 
L 364.189091 154.733112 
L 368.247273 155.371176 
L 372.305455 155.991096 
L 376.363636 156.59136 
L 380.421818 157.17348 
L 384.48 157.734432 
L 388.538182 158.27724 
L 392.596364 158.79888 
L 396.654545 159.300864 
L 400.712727 159.783192 
L 404.770909 160.245864 
L 408.829091 160.68888 
L 412.887273 161.110728 
L 416.945455 161.514432 
L 421.003636 161.896968 
L 425.061818 162.259848 
L 429.12 162.603072 
L 433.178182 162.925128 
L 437.236364 163.22904 
L 441.294545 163.511784 
L 445.352727 163.776384 
L 449.410909 164.019816 
L 453.469091 164.245104 
L 457.527273 164.449224 
L 461.585455 164.633688 
L 465.643636 164.800008 
L 469.701818 164.94516 
L 473.76 165.072168 
L 477.818182 165.17952 
L 481.876364 165.267216 
L 485.934545 165.335256 
L 489.992727 165.38364 
L 494.050909 165.412368 
L 498.109091 165.42144 
" clip-path="url(#pf7a5c6aac3)" style="fill: none; stroke: #000000; stroke-opacity: 0.5; stroke-linecap: square"/>
   </g>
   <g id="line2d_22">
    <path d="M 92.290909 152.271576 
L 96.349091 152.227728 
L 100.407273 152.10828 
L 104.465455 151.944984 
L 108.523636 151.769592 
L 112.581818 151.604784 
L 116.64 151.46568 
L 120.698182 151.35984 
L 124.756364 151.290288 
L 128.814545 151.260048 
L 132.872727 151.266096 
L 136.930909 151.308432 
L 140.989091 151.379496 
L 145.047273 151.479288 
L 149.105455 151.600248 
L 153.163636 151.73784 
L 157.221818 151.884504 
L 161.28 152.031168 
L 165.338182 152.16876 
L 169.396364 152.280648 
L 173.454545 152.3502 
L 177.512727 152.351712 
L 181.570909 152.257968 
L 185.629091 152.043264 
L 189.687273 151.693992 
L 193.745455 151.214688 
L 197.803636 150.621984 
L 201.861818 149.93856 
L 205.92 149.18256 
L 209.978182 148.372128 
L 214.036364 147.516336 
L 218.094545 146.625768 
L 222.152727 145.70496 
L 226.210909 144.758448 
L 230.269091 143.79228 
L 234.327273 142.806456 
L 238.385455 141.804 
L 242.443636 140.786424 
L 246.501818 139.759776 
L 250.56 138.724056 
L 254.618182 137.685312 
L 258.676364 136.658664 
L 262.734545 135.677376 
L 266.792727 134.860896 
L 270.850909 134.608392 
L 274.909091 135.101304 
L 278.967273 135.8694 
L 283.025455 136.67832 
L 287.083636 137.447928 
L 291.141818 138.11472 
L 295.2 138.597048 
L 299.258182 138.793608 
L 303.316364 138.63636 
L 307.374545 138.161592 
L 311.432727 137.469096 
L 315.490909 136.643544 
L 319.549091 135.736344 
L 323.607273 134.777736 
L 327.665455 133.78284 
L 331.723636 132.76224 
L 335.781818 131.721984 
L 339.84 130.666608 
L 343.898182 129.597624 
L 347.956364 128.518056 
L 352.014545 127.427904 
L 356.072727 126.330192 
L 360.130909 125.221896 
L 364.189091 124.107552 
L 368.247273 122.984136 
L 372.305455 121.854672 
L 376.363636 120.717648 
L 380.421818 119.573064 
L 384.48 118.422432 
L 388.538182 117.26424 
L 392.596364 116.1 
L 396.654545 114.9282 
L 400.712727 113.74884 
L 404.770909 112.564944 
L 408.829091 111.371976 
L 412.887273 110.174472 
L 416.945455 108.967896 
L 421.003636 107.756784 
L 425.061818 106.538112 
L 429.12 105.313392 
L 433.178182 104.081112 
L 437.236364 102.844296 
L 441.294545 101.59992 
L 445.352727 100.351008 
L 449.410909 99.096048 
L 453.469091 97.838064 
L 457.527273 96.574032 
L 461.585455 95.308488 
L 465.643636 94.03992 
L 469.701818 92.772864 
L 473.76 91.508832 
L 477.818182 90.255384 
L 481.876364 89.02008 
L 485.934545 87.822576 
L 489.992727 86.711256 
L 494.050909 85.810104 
L 498.109091 85.42152 
" clip-path="url(#pf7a5c6aac3)" style="fill: none; stroke: #000000; stroke-opacity: 0.5; stroke-linecap: square"/>
   </g>
   <g id="line2d_23">
    <path d="M 92.290909 135.40068 
L 96.349091 135.35532 
L 100.407273 135.216216 
L 104.465455 134.987904 
L 108.523636 134.671896 
L 112.581818 134.27424 
L 116.64 133.796448 
L 120.698182 133.24608 
L 124.756364 132.630696 
L 128.814545 131.956344 
L 132.872727 131.230584 
L 136.930909 130.459464 
L 140.989091 129.652056 
L 145.047273 128.814408 
L 149.105455 127.95408 
L 153.163636 127.07712 
L 157.221818 126.191088 
L 161.28 125.303544 
L 165.338182 124.425072 
L 169.396364 123.564744 
L 173.454545 122.734656 
L 177.512727 121.949928 
L 181.570909 121.228704 
L 185.629091 120.593664 
L 189.687273 120.070512 
L 193.745455 119.689488 
L 197.803636 119.474784 
L 201.861818 119.444544 
L 205.92 119.606328 
L 209.978182 119.94804 
L 214.036364 120.450024 
L 218.094545 121.083552 
L 222.152727 121.825944 
L 226.210909 122.649984 
L 230.269091 123.53904 
L 234.327273 124.473456 
L 238.385455 125.442648 
L 242.443636 126.433008 
L 246.501818 127.435464 
L 250.56 128.442456 
L 254.618182 129.440376 
L 258.676364 130.41108 
L 262.734545 131.319792 
L 266.792727 132.037992 
L 270.850909 132.161976 
L 274.909091 131.505768 
L 278.967273 130.527504 
L 283.025455 129.447936 
L 287.083636 128.321496 
L 291.141818 127.169352 
L 295.2 125.997552 
L 299.258182 124.810632 
L 303.316364 123.611616 
L 307.374545 122.398992 
L 311.432727 121.175784 
L 315.490909 119.941992 
L 319.549091 118.699128 
L 323.607273 117.44568 
L 327.665455 116.184672 
L 331.723636 114.91308 
L 335.781818 113.63544 
L 339.84 112.348728 
L 343.898182 111.054456 
L 347.956364 109.752624 
L 352.014545 108.444744 
L 356.072727 107.129304 
L 360.130909 105.809328 
L 364.189091 104.481792 
L 368.247273 103.148208 
L 372.305455 101.810088 
L 376.363636 100.467432 
L 380.421818 99.118728 
L 384.48 97.767 
L 388.538182 96.410736 
L 392.596364 95.051448 
L 396.654545 93.687624 
L 400.712727 92.3238 
L 404.770909 90.956952 
L 408.829091 89.590104 
L 412.887273 88.224768 
L 416.945455 86.859432 
L 421.003636 85.498632 
L 425.061818 84.14388 
L 429.12 82.7982 
L 433.178182 81.46764 
L 437.236364 80.158248 
L 441.294545 78.883632 
L 445.352727 77.660424 
L 449.410909 76.521888 
L 453.469091 75.526992 
L 457.527273 74.772504 
L 461.585455 74.397528 
L 465.643636 74.501856 
L 469.701818 75.043152 
L 473.76 75.8808 
L 477.818182 76.889304 
L 481.876364 77.979456 
L 485.934545 79.090776 
L 489.992727 80.153712 
L 494.050909 81.02916 
L 498.109091 81.410184 
" clip-path="url(#pf7a5c6aac3)" style="fill: none; stroke: #000000; stroke-opacity: 0.5; stroke-linecap: square"/>
   </g>
   <g id="patch_3">
    <path d="M 72 384.48 
L 72 51.84 
" style="fill: none; stroke: #000000; stroke-width: 0.8; stroke-linejoin: miter; stroke-linecap: square"/>
   </g>
   <g id="patch_4">
    <path d="M 518.4 384.48 
L 518.4 51.84 
" style="fill: none; stroke: #000000; stroke-width: 0.8; stroke-linejoin: miter; stroke-linecap: square"/>
   </g>
   <g id="patch_5">
    <path d="M 72 384.48 
L 518.4 384.48 
" style="fill: none; stroke: #000000; stroke-width: 0.8; stroke-linejoin: miter; stroke-linecap: square"/>
   </g>
   <g id="patch_6">
    <path d="M 72 51.84 
L 518.4 51.84 
" style="fill: none; stroke: #000000; stroke-width: 0.8; stroke-linejoin: miter; stroke-linecap: square"/>
   </g>
  </g>
 </g>
 <defs>
  <clipPath id="pf7a5c6aac3">
   <rect x="72" y="51.84" width="446.4" height="332.64"/>
  </clipPath>
 </defs>
</svg>
