<?xml version="1.0" encoding="utf-8" standalone="no"?>
<!DOCTYPE svg PUBLIC "-//W3C//DTD SVG 1.1//EN"
  "http://www.w3.org/Graphics/SVG/1.1/DTD/svg11.dtd">
<svg xmlns:xlink="http://www.w3.org/1999/xlink" width="576pt" height="432pt" viewBox="0 0 576 432" xmlns="http://www.w3.org/2000/svg" version="1.1">
 <metadata>
  <rdf:RDF xmlns:dc="http://purl.org/dc/elements/1.1/" xmlns:cc="http://creativecommons.org/ns#" xmlns:rdf="http://www.w3.org/1999/02/22-rdf-syntax-ns#">
   <cc:Work>
    <dc:type rdf:resource="http://purl.org/dc/dcmitype/StillImage"/>
    <dc:date>2023-05-04T10:56:23.908502</dc:date>
    <dc:format>image/svg+xml</dc:format>
    <dc:creator>
     <cc:Agent>
      <dc:title>Matplotlib v3.7.1, https://matplotlib.org/</dc:title>
     </cc:Agent>
    </dc:creator>
   </cc:Work>
  </rdf:RDF>
 </metadata>
 <defs>
  <style type="text/css">*{stroke-linejoin: round; stroke-linecap: butt}</style>
 </defs>
 <g id="figure_1">
  <g id="patch_1">
   <path d="M 0 432 
L 576 432 
L 576 0 
L 0 0 
z
" style="fill: #ffffff"/>
  </g>
  <g id="axes_1">
   <g id="patch_2">
    <path d="M 72 384.48 
L 518.4 384.48 
L 518.4 51.84 
L 72 51.84 
z
" style="fill: #ffffff"/>
   </g>
   <g id="matplotlib.axis_1">
    <g id="xtick_1">
     <g id="line2d_1">
      <defs>
       <path id="mb732660733" d="M 0 0 
L 0 3.5 
" style="stroke: #000000; stroke-width: 0.8"/>
      </defs>
      <g>
       <use xlink:href="#mb732660733" x="92.290909" y="384.48" style="stroke: #000000; stroke-width: 0.8"/>
      </g>
     </g>
     <g id="text_1">
      <!-- 0.0 -->
      <g transform="translate(84.339347 399.078438) scale(0.1 -0.1)">
       <defs>
        <path id="DejaVuSans-30" d="M 2034 4250 
Q 1547 4250 1301 3770 
Q 1056 3291 1056 2328 
Q 1056 1369 1301 889 
Q 1547 409 2034 409 
Q 2525 409 2770 889 
Q 3016 1369 3016 2328 
Q 3016 3291 2770 3770 
Q 2525 4250 2034 4250 
z
M 2034 4750 
Q 2819 4750 3233 4129 
Q 3647 3509 3647 2328 
Q 3647 1150 3233 529 
Q 2819 -91 2034 -91 
Q 1250 -91 836 529 
Q 422 1150 422 2328 
Q 422 3509 836 4129 
Q 1250 4750 2034 4750 
z
" transform="scale(0.015625)"/>
        <path id="DejaVuSans-2e" d="M 684 794 
L 1344 794 
L 1344 0 
L 684 0 
L 684 794 
z
" transform="scale(0.015625)"/>
       </defs>
       <use xlink:href="#DejaVuSans-30"/>
       <use xlink:href="#DejaVuSans-2e" x="63.623047"/>
       <use xlink:href="#DejaVuSans-30" x="95.410156"/>
      </g>
     </g>
    </g>
    <g id="xtick_2">
     <g id="line2d_2">
      <g>
       <use xlink:href="#mb732660733" x="173.454545" y="384.48" style="stroke: #000000; stroke-width: 0.8"/>
      </g>
     </g>
     <g id="text_2">
      <!-- 0.2 -->
      <g transform="translate(165.502983 399.078438) scale(0.1 -0.1)">
       <defs>
        <path id="DejaVuSans-32" d="M 1228 531 
L 3431 531 
L 3431 0 
L 469 0 
L 469 531 
Q 828 903 1448 1529 
Q 2069 2156 2228 2338 
Q 2531 2678 2651 2914 
Q 2772 3150 2772 3378 
Q 2772 3750 2511 3984 
Q 2250 4219 1831 4219 
Q 1534 4219 1204 4116 
Q 875 4013 500 3803 
L 500 4441 
Q 881 4594 1212 4672 
Q 1544 4750 1819 4750 
Q 2544 4750 2975 4387 
Q 3406 4025 3406 3419 
Q 3406 3131 3298 2873 
Q 3191 2616 2906 2266 
Q 2828 2175 2409 1742 
Q 1991 1309 1228 531 
z
" transform="scale(0.015625)"/>
       </defs>
       <use xlink:href="#DejaVuSans-30"/>
       <use xlink:href="#DejaVuSans-2e" x="63.623047"/>
       <use xlink:href="#DejaVuSans-32" x="95.410156"/>
      </g>
     </g>
    </g>
    <g id="xtick_3">
     <g id="line2d_3">
      <g>
       <use xlink:href="#mb732660733" x="254.618182" y="384.48" style="stroke: #000000; stroke-width: 0.8"/>
      </g>
     </g>
     <g id="text_3">
      <!-- 0.4 -->
      <g transform="translate(246.666619 399.078438) scale(0.1 -0.1)">
       <defs>
        <path id="DejaVuSans-34" d="M 2419 4116 
L 825 1625 
L 2419 1625 
L 2419 4116 
z
M 2253 4666 
L 3047 4666 
L 3047 1625 
L 3713 1625 
L 3713 1100 
L 3047 1100 
L 3047 0 
L 2419 0 
L 2419 1100 
L 313 1100 
L 313 1709 
L 2253 4666 
z
" transform="scale(0.015625)"/>
       </defs>
       <use xlink:href="#DejaVuSans-30"/>
       <use xlink:href="#DejaVuSans-2e" x="63.623047"/>
       <use xlink:href="#DejaVuSans-34" x="95.410156"/>
      </g>
     </g>
    </g>
    <g id="xtick_4">
     <g id="line2d_4">
      <g>
       <use xlink:href="#mb732660733" x="335.781818" y="384.48" style="stroke: #000000; stroke-width: 0.8"/>
      </g>
     </g>
     <g id="text_4">
      <!-- 0.6 -->
      <g transform="translate(327.830256 399.078438) scale(0.1 -0.1)">
       <defs>
        <path id="DejaVuSans-36" d="M 2113 2584 
Q 1688 2584 1439 2293 
Q 1191 2003 1191 1497 
Q 1191 994 1439 701 
Q 1688 409 2113 409 
Q 2538 409 2786 701 
Q 3034 994 3034 1497 
Q 3034 2003 2786 2293 
Q 2538 2584 2113 2584 
z
M 3366 4563 
L 3366 3988 
Q 3128 4100 2886 4159 
Q 2644 4219 2406 4219 
Q 1781 4219 1451 3797 
Q 1122 3375 1075 2522 
Q 1259 2794 1537 2939 
Q 1816 3084 2150 3084 
Q 2853 3084 3261 2657 
Q 3669 2231 3669 1497 
Q 3669 778 3244 343 
Q 2819 -91 2113 -91 
Q 1303 -91 875 529 
Q 447 1150 447 2328 
Q 447 3434 972 4092 
Q 1497 4750 2381 4750 
Q 2619 4750 2861 4703 
Q 3103 4656 3366 4563 
z
" transform="scale(0.015625)"/>
       </defs>
       <use xlink:href="#DejaVuSans-30"/>
       <use xlink:href="#DejaVuSans-2e" x="63.623047"/>
       <use xlink:href="#DejaVuSans-36" x="95.410156"/>
      </g>
     </g>
    </g>
    <g id="xtick_5">
     <g id="line2d_5">
      <g>
       <use xlink:href="#mb732660733" x="416.945455" y="384.48" style="stroke: #000000; stroke-width: 0.8"/>
      </g>
     </g>
     <g id="text_5">
      <!-- 0.8 -->
      <g transform="translate(408.993892 399.078438) scale(0.1 -0.1)">
       <defs>
        <path id="DejaVuSans-38" d="M 2034 2216 
Q 1584 2216 1326 1975 
Q 1069 1734 1069 1313 
Q 1069 891 1326 650 
Q 1584 409 2034 409 
Q 2484 409 2743 651 
Q 3003 894 3003 1313 
Q 3003 1734 2745 1975 
Q 2488 2216 2034 2216 
z
M 1403 2484 
Q 997 2584 770 2862 
Q 544 3141 544 3541 
Q 544 4100 942 4425 
Q 1341 4750 2034 4750 
Q 2731 4750 3128 4425 
Q 3525 4100 3525 3541 
Q 3525 3141 3298 2862 
Q 3072 2584 2669 2484 
Q 3125 2378 3379 2068 
Q 3634 1759 3634 1313 
Q 3634 634 3220 271 
Q 2806 -91 2034 -91 
Q 1263 -91 848 271 
Q 434 634 434 1313 
Q 434 1759 690 2068 
Q 947 2378 1403 2484 
z
M 1172 3481 
Q 1172 3119 1398 2916 
Q 1625 2713 2034 2713 
Q 2441 2713 2670 2916 
Q 2900 3119 2900 3481 
Q 2900 3844 2670 4047 
Q 2441 4250 2034 4250 
Q 1625 4250 1398 4047 
Q 1172 3844 1172 3481 
z
" transform="scale(0.015625)"/>
       </defs>
       <use xlink:href="#DejaVuSans-30"/>
       <use xlink:href="#DejaVuSans-2e" x="63.623047"/>
       <use xlink:href="#DejaVuSans-38" x="95.410156"/>
      </g>
     </g>
    </g>
    <g id="xtick_6">
     <g id="line2d_6">
      <g>
       <use xlink:href="#mb732660733" x="498.109091" y="384.48" style="stroke: #000000; stroke-width: 0.8"/>
      </g>
     </g>
     <g id="text_6">
      <!-- 1.0 -->
      <g transform="translate(490.157528 399.078438) scale(0.1 -0.1)">
       <defs>
        <path id="DejaVuSans-31" d="M 794 531 
L 1825 531 
L 1825 4091 
L 703 3866 
L 703 4441 
L 1819 4666 
L 2450 4666 
L 2450 531 
L 3481 531 
L 3481 0 
L 794 0 
L 794 531 
z
" transform="scale(0.015625)"/>
       </defs>
       <use xlink:href="#DejaVuSans-31"/>
       <use xlink:href="#DejaVuSans-2e" x="63.623047"/>
       <use xlink:href="#DejaVuSans-30" x="95.410156"/>
      </g>
     </g>
    </g>
   </g>
   <g id="matplotlib.axis_2">
    <g id="ytick_1">
     <g id="line2d_7">
      <defs>
       <path id="m2e8fd1b1ad" d="M 0 0 
L -3.5 0 
" style="stroke: #000000; stroke-width: 0.8"/>
      </defs>
      <g>
       <use xlink:href="#m2e8fd1b1ad" x="72" y="369.36" style="stroke: #000000; stroke-width: 0.8"/>
      </g>
     </g>
     <g id="text_7">
      <!-- −5.0 -->
      <g transform="translate(40.717187 373.159219) scale(0.1 -0.1)">
       <defs>
        <path id="DejaVuSans-2212" d="M 678 2272 
L 4684 2272 
L 4684 1741 
L 678 1741 
L 678 2272 
z
" transform="scale(0.015625)"/>
        <path id="DejaVuSans-35" d="M 691 4666 
L 3169 4666 
L 3169 4134 
L 1269 4134 
L 1269 2991 
Q 1406 3038 1543 3061 
Q 1681 3084 1819 3084 
Q 2600 3084 3056 2656 
Q 3513 2228 3513 1497 
Q 3513 744 3044 326 
Q 2575 -91 1722 -91 
Q 1428 -91 1123 -41 
Q 819 9 494 109 
L 494 744 
Q 775 591 1075 516 
Q 1375 441 1709 441 
Q 2250 441 2565 725 
Q 2881 1009 2881 1497 
Q 2881 1984 2565 2268 
Q 2250 2553 1709 2553 
Q 1456 2553 1204 2497 
Q 953 2441 691 2322 
L 691 4666 
z
" transform="scale(0.015625)"/>
       </defs>
       <use xlink:href="#DejaVuSans-2212"/>
       <use xlink:href="#DejaVuSans-35" x="83.789062"/>
       <use xlink:href="#DejaVuSans-2e" x="147.412109"/>
       <use xlink:href="#DejaVuSans-30" x="179.199219"/>
      </g>
     </g>
    </g>
    <g id="ytick_2">
     <g id="line2d_8">
      <g>
       <use xlink:href="#m2e8fd1b1ad" x="72" y="331.56" style="stroke: #000000; stroke-width: 0.8"/>
      </g>
     </g>
     <g id="text_8">
      <!-- −2.5 -->
      <g transform="translate(40.717187 335.359219) scale(0.1 -0.1)">
       <use xlink:href="#DejaVuSans-2212"/>
       <use xlink:href="#DejaVuSans-32" x="83.789062"/>
       <use xlink:href="#DejaVuSans-2e" x="147.412109"/>
       <use xlink:href="#DejaVuSans-35" x="179.199219"/>
      </g>
     </g>
    </g>
    <g id="ytick_3">
     <g id="line2d_9">
      <g>
       <use xlink:href="#m2e8fd1b1ad" x="72" y="293.76" style="stroke: #000000; stroke-width: 0.8"/>
      </g>
     </g>
     <g id="text_9">
      <!-- 0.0 -->
      <g transform="translate(49.096875 297.559219) scale(0.1 -0.1)">
       <use xlink:href="#DejaVuSans-30"/>
       <use xlink:href="#DejaVuSans-2e" x="63.623047"/>
       <use xlink:href="#DejaVuSans-30" x="95.410156"/>
      </g>
     </g>
    </g>
    <g id="ytick_4">
     <g id="line2d_10">
      <g>
       <use xlink:href="#m2e8fd1b1ad" x="72" y="255.96" style="stroke: #000000; stroke-width: 0.8"/>
      </g>
     </g>
     <g id="text_10">
      <!-- 2.5 -->
      <g transform="translate(49.096875 259.759219) scale(0.1 -0.1)">
       <use xlink:href="#DejaVuSans-32"/>
       <use xlink:href="#DejaVuSans-2e" x="63.623047"/>
       <use xlink:href="#DejaVuSans-35" x="95.410156"/>
      </g>
     </g>
    </g>
    <g id="ytick_5">
     <g id="line2d_11">
      <g>
       <use xlink:href="#m2e8fd1b1ad" x="72" y="218.16" style="stroke: #000000; stroke-width: 0.8"/>
      </g>
     </g>
     <g id="text_11">
      <!-- 5.0 -->
      <g transform="translate(49.096875 221.959219) scale(0.1 -0.1)">
       <use xlink:href="#DejaVuSans-35"/>
       <use xlink:href="#DejaVuSans-2e" x="63.623047"/>
       <use xlink:href="#DejaVuSans-30" x="95.410156"/>
      </g>
     </g>
    </g>
    <g id="ytick_6">
     <g id="line2d_12">
      <g>
       <use xlink:href="#m2e8fd1b1ad" x="72" y="180.36" style="stroke: #000000; stroke-width: 0.8"/>
      </g>
     </g>
     <g id="text_12">
      <!-- 7.5 -->
      <g transform="translate(49.096875 184.159219) scale(0.1 -0.1)">
       <defs>
        <path id="DejaVuSans-37" d="M 525 4666 
L 3525 4666 
L 3525 4397 
L 1831 0 
L 1172 0 
L 2766 4134 
L 525 4134 
L 525 4666 
z
" transform="scale(0.015625)"/>
       </defs>
       <use xlink:href="#DejaVuSans-37"/>
       <use xlink:href="#DejaVuSans-2e" x="63.623047"/>
       <use xlink:href="#DejaVuSans-35" x="95.410156"/>
      </g>
     </g>
    </g>
    <g id="ytick_7">
     <g id="line2d_13">
      <g>
       <use xlink:href="#m2e8fd1b1ad" x="72" y="142.56" style="stroke: #000000; stroke-width: 0.8"/>
      </g>
     </g>
     <g id="text_13">
      <!-- 10.0 -->
      <g transform="translate(42.734375 146.359219) scale(0.1 -0.1)">
       <use xlink:href="#DejaVuSans-31"/>
       <use xlink:href="#DejaVuSans-30" x="63.623047"/>
       <use xlink:href="#DejaVuSans-2e" x="127.246094"/>
       <use xlink:href="#DejaVuSans-30" x="159.033203"/>
      </g>
     </g>
    </g>
    <g id="ytick_8">
     <g id="line2d_14">
      <g>
       <use xlink:href="#m2e8fd1b1ad" x="72" y="104.76" style="stroke: #000000; stroke-width: 0.8"/>
      </g>
     </g>
     <g id="text_14">
      <!-- 12.5 -->
      <g transform="translate(42.734375 108.559219) scale(0.1 -0.1)">
       <use xlink:href="#DejaVuSans-31"/>
       <use xlink:href="#DejaVuSans-32" x="63.623047"/>
       <use xlink:href="#DejaVuSans-2e" x="127.246094"/>
       <use xlink:href="#DejaVuSans-35" x="159.033203"/>
      </g>
     </g>
    </g>
    <g id="ytick_9">
     <g id="line2d_15">
      <g>
       <use xlink:href="#m2e8fd1b1ad" x="72" y="66.96" style="stroke: #000000; stroke-width: 0.8"/>
      </g>
     </g>
     <g id="text_15">
      <!-- 15.0 -->
      <g transform="translate(42.734375 70.759219) scale(0.1 -0.1)">
       <use xlink:href="#DejaVuSans-31"/>
       <use xlink:href="#DejaVuSans-35" x="63.623047"/>
       <use xlink:href="#DejaVuSans-2e" x="127.246094"/>
       <use xlink:href="#DejaVuSans-30" x="159.033203"/>
      </g>
     </g>
    </g>
   </g>
   <g id="line2d_16">
    <path d="M 92.290909 327.83292 
L 96.349091 327.837456 
L 100.407273 327.8556 
L 104.465455 327.882816 
L 108.523636 327.922128 
L 112.581818 327.973536 
L 116.64 328.035528 
L 120.698182 328.109616 
L 124.756364 328.1958 
L 128.814545 328.29408 
L 132.872727 328.402944 
L 136.930909 328.525416 
L 140.989091 328.659984 
L 145.047273 328.806648 
L 149.105455 328.965408 
L 153.163636 329.137776 
L 157.221818 329.32224 
L 161.28 329.5188 
L 165.338182 329.728968 
L 169.396364 329.951232 
L 173.454545 330.185592 
L 177.512727 330.432048 
L 181.570909 330.689088 
L 185.629091 330.959736 
L 189.687273 331.240968 
L 193.745455 331.532784 
L 197.803636 331.836696 
L 201.861818 332.14968 
L 205.92 332.471736 
L 209.978182 332.804376 
L 214.036364 333.144576 
L 218.094545 333.493848 
L 222.152727 333.85068 
L 226.210909 334.21356 
L 230.269091 334.584 
L 234.327273 334.960488 
L 238.385455 335.341512 
L 242.443636 335.727072 
L 246.501818 336.117168 
L 250.56 336.5118 
L 254.618182 336.907944 
L 258.676364 337.307112 
L 262.734545 337.707792 
L 266.792727 338.109984 
L 270.850909 338.513688 
L 274.909091 338.917392 
L 278.967273 339.321096 
L 283.025455 339.723288 
L 287.083636 340.12548 
L 291.141818 340.524648 
L 295.2 340.923816 
L 299.258182 341.318448 
L 303.316364 341.711568 
L 307.374545 342.101664 
L 311.432727 342.487224 
L 315.490909 342.86976 
L 319.549091 343.246248 
L 323.607273 343.619712 
L 327.665455 343.98864 
L 331.723636 344.35152 
L 335.781818 344.708352 
L 339.84 345.059136 
L 343.898182 345.405384 
L 347.956364 345.744072 
L 352.014545 346.076712 
L 356.072727 346.401792 
L 360.130909 346.720824 
L 364.189091 347.032296 
L 368.247273 347.336208 
L 372.305455 347.63256 
L 376.363636 347.921352 
L 380.421818 348.201072 
L 384.48 348.473232 
L 388.538182 348.737832 
L 392.596364 348.99336 
L 396.654545 349.239816 
L 400.712727 349.478712 
L 404.770909 349.708536 
L 408.829091 349.927776 
L 412.887273 350.139456 
L 416.945455 350.342064 
L 421.003636 350.5356 
L 425.061818 350.718552 
L 429.12 350.892432 
L 433.178182 351.05724 
L 437.236364 351.212976 
L 441.294545 351.358128 
L 445.352727 351.492696 
L 449.410909 351.619704 
L 453.469091 351.734616 
L 457.527273 351.840456 
L 461.585455 351.937224 
L 465.643636 352.023408 
L 469.701818 352.099008 
L 473.76 352.165536 
L 477.818182 352.22148 
L 481.876364 352.26684 
L 485.934545 352.301616 
L 489.992727 352.32732 
L 494.050909 352.34244 
L 498.109091 352.348488 
" clip-path="url(#p3e8763b8ed)" style="fill: none; stroke: #000000; stroke-opacity: 0.5; stroke-linecap: square"/>
   </g>
   <g id="line2d_17">
    <path d="M 92.290909 309.09924 
L 96.349091 309.096216 
L 100.407273 309.090168 
L 104.465455 309.078072 
L 108.523636 309.062952 
L 112.581818 309.041784 
L 116.64 309.014568 
L 120.698182 308.982816 
L 124.756364 308.945016 
L 128.814545 308.901168 
L 132.872727 308.851272 
L 136.930909 308.795328 
L 140.989091 308.731824 
L 145.047273 308.659248 
L 149.105455 308.580624 
L 153.163636 308.492928 
L 157.221818 308.39616 
L 161.28 308.29032 
L 165.338182 308.173896 
L 169.396364 308.0484 
L 173.454545 307.913832 
L 177.512727 307.767168 
L 181.570909 307.611432 
L 185.629091 307.4436 
L 189.687273 307.263672 
L 193.745455 307.07316 
L 197.803636 306.872064 
L 201.861818 306.658872 
L 205.92 306.433584 
L 209.978182 306.197712 
L 214.036364 305.948232 
L 218.094545 305.68968 
L 222.152727 305.41752 
L 226.210909 305.134776 
L 230.269091 304.841448 
L 234.327273 304.536024 
L 238.385455 304.218504 
L 242.443636 303.891912 
L 246.501818 303.553224 
L 250.56 303.205464 
L 254.618182 302.845608 
L 258.676364 302.47668 
L 262.734545 302.09868 
L 266.792727 301.710096 
L 270.850909 301.31244 
L 274.909091 300.907224 
L 278.967273 300.491424 
L 283.025455 300.068064 
L 287.083636 299.637144 
L 291.141818 299.198664 
L 295.2 298.752624 
L 299.258182 298.299024 
L 303.316364 297.839376 
L 307.374545 297.37368 
L 311.432727 296.901936 
L 315.490909 296.425656 
L 319.549091 295.94484 
L 323.607273 295.459488 
L 327.665455 294.9696 
L 331.723636 294.4782 
L 335.781818 293.982264 
L 339.84 293.484816 
L 343.898182 292.987368 
L 347.956364 292.486896 
L 352.014545 291.986424 
L 356.072727 291.487464 
L 360.130909 290.988504 
L 364.189091 290.492568 
L 368.247273 289.998144 
L 372.305455 289.506744 
L 376.363636 289.01988 
L 380.421818 288.537552 
L 384.48 288.061272 
L 388.538182 287.59104 
L 392.596364 287.128368 
L 396.654545 286.673256 
L 400.712727 286.227216 
L 404.770909 285.79176 
L 408.829091 285.365376 
L 412.887273 284.9526 
L 416.945455 284.550408 
L 421.003636 284.163336 
L 425.061818 283.789872 
L 429.12 283.430016 
L 433.178182 283.088304 
L 437.236364 282.761712 
L 441.294545 282.451752 
L 445.352727 282.161448 
L 449.410909 281.889288 
L 453.469091 281.636784 
L 457.527273 281.403936 
L 461.585455 281.190744 
L 465.643636 281.000232 
L 469.701818 280.829376 
L 473.76 280.682712 
L 477.818182 280.555704 
L 481.876364 280.452888 
L 485.934545 280.372752 
L 489.992727 280.313784 
L 494.050909 280.28052 
L 498.109091 280.268424 
" clip-path="url(#p3e8763b8ed)" style="fill: none; stroke: #000000; stroke-opacity: 0.5; stroke-linecap: square"/>
   </g>
   <g id="line2d_18">
    <path d="M 92.290909 259.05204 
L 96.349091 259.121592 
L 100.407273 259.31664 
L 104.465455 259.608456 
L 108.523636 259.965288 
L 112.581818 260.35992 
L 116.64 260.774208 
L 120.698182 261.196056 
L 124.756364 261.617904 
L 128.814545 262.03068 
L 132.872727 262.432872 
L 136.930909 262.821456 
L 140.989091 263.191896 
L 145.047273 263.544192 
L 149.105455 263.87532 
L 153.163636 264.186792 
L 157.221818 264.477096 
L 161.28 264.74472 
L 165.338182 264.989664 
L 169.396364 265.211928 
L 173.454545 265.41 
L 177.512727 265.585392 
L 181.570909 265.738104 
L 185.629091 265.868136 
L 189.687273 265.973976 
L 193.745455 266.058648 
L 197.803636 266.119128 
L 201.861818 266.156928 
L 205.92 266.17356 
L 209.978182 266.167512 
L 214.036364 266.140296 
L 218.094545 266.091912 
L 222.152727 266.023872 
L 226.210909 265.934664 
L 230.269091 265.824288 
L 234.327273 265.695768 
L 238.385455 265.549104 
L 242.443636 265.382784 
L 246.501818 265.19832 
L 250.56 264.995712 
L 254.618182 264.776472 
L 258.676364 264.5406 
L 262.734545 264.288096 
L 266.792727 264.020472 
L 270.850909 263.737728 
L 274.909091 263.439864 
L 278.967273 263.128392 
L 283.025455 262.803312 
L 287.083636 262.464624 
L 291.141818 262.11384 
L 295.2 261.752472 
L 299.258182 261.377496 
L 303.316364 260.993448 
L 307.374545 260.597304 
L 311.432727 260.192088 
L 315.490909 259.779312 
L 319.549091 259.355952 
L 323.607273 258.926544 
L 327.665455 258.489576 
L 331.723636 258.045048 
L 335.781818 257.595984 
L 339.84 257.140872 
L 343.898182 256.681224 
L 347.956364 256.21704 
L 352.014545 255.751344 
L 356.072727 255.282624 
L 360.130909 254.812392 
L 364.189091 254.340648 
L 368.247273 253.868904 
L 372.305455 253.39716 
L 376.363636 252.926928 
L 380.421818 252.45972 
L 384.48 251.994024 
L 388.538182 251.531352 
L 392.596364 251.071704 
L 396.654545 250.616592 
L 400.712727 250.167528 
L 404.770909 249.723 
L 408.829091 249.283008 
L 412.887273 248.850576 
L 416.945455 248.42268 
L 421.003636 248.002344 
L 425.061818 247.589568 
L 429.12 247.18284 
L 433.178182 246.783672 
L 437.236364 246.392064 
L 441.294545 246.008016 
L 445.352727 245.63304 
L 449.410909 245.265624 
L 453.469091 244.90728 
L 457.527273 244.561032 
L 461.585455 244.225368 
L 465.643636 243.903312 
L 469.701818 243.594864 
L 473.76 243.306072 
L 477.818182 243.03996 
L 481.876364 242.801064 
L 485.934545 242.598456 
L 489.992727 242.441208 
L 494.050909 242.339904 
L 498.109091 242.305128 
" clip-path="url(#p3e8763b8ed)" style="fill: none; stroke: #000000; stroke-opacity: 0.5; stroke-linecap: square"/>
   </g>
   <g id="line2d_19">
    <path d="M 92.290909 253.750968 
L 96.349091 253.664784 
L 100.407273 253.421352 
L 104.465455 253.046376 
L 108.523636 252.576144 
L 112.581818 252.034848 
L 116.64 251.442144 
L 120.698182 250.81164 
L 124.756364 250.152408 
L 128.814545 249.472008 
L 132.872727 248.774976 
L 136.930909 248.064336 
L 140.989091 247.347648 
L 145.047273 246.6234 
L 149.105455 245.899152 
L 153.163636 245.173392 
L 157.221818 244.452168 
L 161.28 243.73548 
L 165.338182 243.027864 
L 169.396364 242.32932 
L 173.454545 241.645896 
L 177.512727 240.977592 
L 181.570909 240.327432 
L 185.629091 239.696928 
L 189.687273 239.090616 
L 193.745455 238.510008 
L 197.803636 237.956616 
L 201.861818 237.431952 
L 205.92 236.93904 
L 209.978182 236.479392 
L 214.036364 236.053008 
L 218.094545 235.662912 
L 222.152727 235.309104 
L 226.210909 234.991584 
L 230.269091 234.711864 
L 234.327273 234.468432 
L 238.385455 234.261288 
L 242.443636 234.08892 
L 246.501818 233.95284 
L 250.56 233.848512 
L 254.618182 233.775936 
L 258.676364 233.7336 
L 262.734545 233.719992 
L 266.792727 233.7336 
L 270.850909 233.769888 
L 274.909091 233.828856 
L 278.967273 233.90748 
L 283.025455 234.00576 
L 287.083636 234.11916 
L 291.141818 234.24768 
L 295.2 234.388296 
L 299.258182 234.537984 
L 303.316364 234.698256 
L 307.374545 234.864576 
L 311.432727 235.036944 
L 315.490909 235.213848 
L 319.549091 235.392264 
L 323.607273 235.572192 
L 327.665455 235.753632 
L 331.723636 235.932048 
L 335.781818 236.108952 
L 339.84 236.282832 
L 343.898182 236.452176 
L 347.956364 236.616984 
L 352.014545 236.775744 
L 356.072727 236.928456 
L 360.130909 237.073608 
L 364.189091 237.2112 
L 368.247273 237.341232 
L 372.305455 237.462192 
L 376.363636 237.575592 
L 380.421818 237.681432 
L 384.48 237.7782 
L 388.538182 237.865896 
L 392.596364 237.947544 
L 396.654545 238.02012 
L 400.712727 238.086648 
L 404.770909 238.147128 
L 408.829091 238.203072 
L 412.887273 238.252968 
L 416.945455 238.301352 
L 421.003636 238.346712 
L 425.061818 238.392072 
L 429.12 238.438944 
L 433.178182 238.487328 
L 437.236364 238.540248 
L 441.294545 238.597704 
L 445.352727 238.661208 
L 449.410909 238.732272 
L 453.469091 238.810896 
L 457.527273 238.898592 
L 461.585455 238.996872 
L 465.643636 239.1012 
L 469.701818 239.2146 
L 473.76 239.332536 
L 477.818182 239.453496 
L 481.876364 239.572944 
L 485.934545 239.681808 
L 489.992727 239.771016 
L 494.050909 239.831496 
L 498.109091 239.852664 
" clip-path="url(#p3e8763b8ed)" style="fill: none; stroke: #000000; stroke-opacity: 0.5; stroke-linecap: square"/>
   </g>
   <g id="line2d_20">
    <path d="M 92.290909 164.031912 
L 96.349091 164.323728 
L 100.407273 165.011688 
L 104.465455 165.861432 
L 108.523636 166.768632 
L 112.581818 167.690952 
L 116.64 168.607224 
L 120.698182 169.509888 
L 124.756364 170.392896 
L 128.814545 171.251712 
L 132.872727 172.084824 
L 136.930909 172.887696 
L 140.989091 173.660328 
L 145.047273 174.401208 
L 149.105455 175.1058 
L 153.163636 175.774104 
L 157.221818 176.403096 
L 161.28 176.992776 
L 165.338182 177.538608 
L 169.396364 178.040592 
L 173.454545 178.495704 
L 177.512727 178.903944 
L 181.570909 179.260776 
L 185.629091 179.564688 
L 189.687273 179.814168 
L 193.745455 180.006192 
L 197.803636 180.142272 
L 201.861818 180.21636 
L 205.92 180.229968 
L 209.978182 180.180072 
L 214.036364 180.066672 
L 218.094545 179.888256 
L 222.152727 179.644824 
L 226.210909 179.336376 
L 230.269091 178.9614 
L 234.327273 178.52292 
L 238.385455 178.019424 
L 242.443636 177.452424 
L 246.501818 176.823432 
L 250.56 176.13396 
L 254.618182 175.387032 
L 258.676364 174.582648 
L 262.734545 173.723832 
L 266.792727 172.812096 
L 270.850909 171.848952 
L 274.909091 170.838936 
L 278.967273 169.78356 
L 283.025455 168.682824 
L 287.083636 167.542776 
L 291.141818 166.363416 
L 295.2 165.146256 
L 299.258182 163.89432 
L 303.316364 162.60912 
L 307.374545 161.295192 
L 311.432727 159.951024 
L 315.490909 158.581152 
L 319.549091 157.1886 
L 323.607273 155.779416 
L 327.665455 154.491192 
L 331.723636 155.496672 
L 335.781818 156.928536 
L 339.84 158.35284 
L 343.898182 159.759 
L 347.956364 161.143992 
L 352.014545 162.507816 
L 356.072727 163.84896 
L 360.130909 165.165912 
L 364.189091 166.45716 
L 368.247273 167.722704 
L 372.305455 168.95952 
L 376.363636 170.16912 
L 380.421818 171.349992 
L 384.48 172.499112 
L 388.538182 173.61648 
L 392.596364 174.700584 
L 396.654545 175.751424 
L 400.712727 176.765976 
L 404.770909 177.74424 
L 408.829091 178.684704 
L 412.887273 179.585856 
L 416.945455 180.446184 
L 421.003636 181.265688 
L 425.061818 182.044368 
L 429.12 182.777688 
L 433.178182 183.468672 
L 437.236364 184.115808 
L 441.294545 184.716072 
L 445.352727 185.272488 
L 449.410909 185.783544 
L 453.469091 186.247728 
L 457.527273 186.669576 
L 461.585455 187.046064 
L 465.643636 187.378704 
L 469.701818 187.669008 
L 473.76 187.918488 
L 477.818182 188.125632 
L 481.876364 188.294976 
L 485.934545 188.425008 
L 489.992727 188.51724 
L 494.050909 188.571672 
L 498.109091 188.589816 
" clip-path="url(#p3e8763b8ed)" style="fill: none; stroke: #000000; stroke-opacity: 0.5; stroke-linecap: square"/>
   </g>
   <g id="line2d_21">
    <path d="M 92.290909 160.342632 
L 96.349091 160.029648 
L 100.407273 159.27516 
L 104.465455 158.313528 
L 108.523636 157.250592 
L 112.581818 156.128688 
L 116.64 154.96596 
L 120.698182 153.77148 
L 124.756364 152.551296 
L 128.814545 151.30692 
L 132.872727 150.042888 
L 136.930909 148.757688 
L 140.989091 147.455856 
L 145.047273 146.13588 
L 149.105455 144.799272 
L 153.163636 143.447544 
L 157.221818 142.082208 
L 161.28 140.70024 
L 165.338182 139.306176 
L 169.396364 137.900016 
L 173.454545 136.48176 
L 177.512727 135.05292 
L 181.570909 133.613496 
L 185.629091 132.165 
L 189.687273 130.710456 
L 193.745455 129.251376 
L 197.803636 127.789272 
L 201.861818 126.327168 
L 205.92 124.872624 
L 209.978182 123.4332 
L 214.036364 122.017968 
L 218.094545 120.649608 
L 222.152727 119.367432 
L 226.210909 118.257624 
L 230.269091 117.568152 
L 234.327273 117.794952 
L 238.385455 118.891152 
L 242.443636 120.34116 
L 246.501818 121.916664 
L 250.56 123.543576 
L 254.618182 125.19468 
L 258.676364 126.856368 
L 262.734545 128.522592 
L 266.792727 130.187304 
L 270.850909 131.84748 
L 274.909091 133.50312 
L 278.967273 135.149688 
L 283.025455 136.788696 
L 287.083636 138.418632 
L 291.141818 140.036472 
L 295.2 141.643728 
L 299.258182 143.237376 
L 303.316364 144.817416 
L 307.374545 146.383848 
L 311.432727 147.936672 
L 315.490909 149.471352 
L 319.549091 150.987888 
L 323.607273 152.47872 
L 327.665455 153.812304 
L 331.723636 152.812872 
L 335.781818 151.350768 
L 339.84 149.859936 
L 343.898182 148.355496 
L 347.956364 146.845008 
L 352.014545 145.337544 
L 356.072727 143.866368 
L 360.130909 142.564536 
L 364.189091 142.12908 
L 368.247273 143.031744 
L 372.305455 144.309384 
L 376.363636 145.653552 
L 380.421818 147.00528 
L 384.48 148.347936 
L 388.538182 149.670936 
L 392.596364 150.97428 
L 396.654545 152.253432 
L 400.712727 153.50688 
L 404.770909 154.733112 
L 408.829091 155.929104 
L 412.887273 157.094856 
L 416.945455 158.227344 
L 421.003636 159.326568 
L 425.061818 160.389504 
L 429.12 161.41464 
L 433.178182 162.400464 
L 437.236364 163.343952 
L 441.294545 164.243592 
L 445.352727 165.09636 
L 449.410909 165.900744 
L 453.469091 166.655232 
L 457.527273 167.355288 
L 461.585455 167.997888 
L 465.643636 168.583032 
L 469.701818 169.106184 
L 473.76 169.565832 
L 477.818182 169.958952 
L 481.876364 170.284032 
L 485.934545 170.53956 
L 489.992727 170.722512 
L 494.050909 170.832888 
L 498.109091 170.870688 
" clip-path="url(#p3e8763b8ed)" style="fill: none; stroke: #000000; stroke-opacity: 0.5; stroke-linecap: square"/>
   </g>
   <g id="line2d_22">
    <path d="M 92.290909 115.522416 
L 96.349091 115.51788 
L 100.407273 115.507296 
L 104.465455 115.489152 
L 108.523636 115.461936 
L 112.581818 115.428672 
L 116.64 115.387848 
L 120.698182 115.340976 
L 124.756364 115.285032 
L 128.814545 115.22304 
L 132.872727 115.151976 
L 136.930909 115.074864 
L 140.989091 114.991704 
L 145.047273 114.899472 
L 149.105455 114.801192 
L 153.163636 114.696864 
L 157.221818 114.584976 
L 161.28 114.465528 
L 165.338182 114.340032 
L 169.396364 114.208488 
L 173.454545 114.069384 
L 177.512727 113.924232 
L 181.570909 113.77152 
L 185.629091 113.614272 
L 189.687273 113.449464 
L 193.745455 113.278608 
L 197.803636 113.101704 
L 201.861818 112.923288 
L 205.92 112.741848 
L 209.978182 112.56948 
L 214.036364 112.42584 
L 218.094545 112.368384 
L 222.152727 112.551336 
L 226.210909 113.154624 
L 230.269091 113.912136 
L 234.327273 114.113232 
L 238.385455 113.704992 
L 242.443636 113.160672 
L 246.501818 112.664736 
L 250.56 112.247424 
L 254.618182 111.89664 
L 258.676364 111.598776 
L 262.734545 111.347784 
L 266.792727 111.142152 
L 270.850909 110.986416 
L 274.909091 110.909304 
L 278.967273 110.963736 
L 283.025455 111.264624 
L 287.083636 111.958632 
L 291.141818 113.065416 
L 295.2 114.442848 
L 299.258182 115.959384 
L 303.316364 117.540936 
L 307.374545 119.15424 
L 311.432727 120.77964 
L 315.490909 122.409576 
L 319.549091 124.034976 
L 323.607273 125.652816 
L 327.665455 127.260072 
L 331.723636 128.855232 
L 335.781818 130.435272 
L 339.84 131.99868 
L 343.898182 133.54092 
L 347.956364 135.057456 
L 352.014545 136.537704 
L 356.072727 137.949912 
L 360.130909 139.162536 
L 364.189091 139.478544 
L 368.247273 138.427704 
L 372.305455 136.970136 
L 376.363636 135.418824 
L 380.421818 133.831224 
L 384.48 132.223968 
L 388.538182 130.60764 
L 392.596364 128.985264 
L 396.654545 127.358352 
L 400.712727 125.732952 
L 404.770909 124.107552 
L 408.829091 122.486688 
L 412.887273 120.871872 
L 416.945455 119.266128 
L 421.003636 117.673992 
L 425.061818 116.095464 
L 429.12 114.538104 
L 433.178182 113.006448 
L 437.236364 111.508056 
L 441.294545 110.053512 
L 445.352727 108.657936 
L 449.410909 107.351568 
L 453.469091 106.191864 
L 457.527273 105.27408 
L 461.585455 104.673816 
L 465.643636 104.333616 
L 469.701818 104.138568 
L 473.76 104.017608 
L 477.818182 103.937472 
L 481.876364 103.88304 
L 485.934545 103.84524 
L 489.992727 103.819536 
L 494.050909 103.805928 
L 498.109091 103.801392 
" clip-path="url(#p3e8763b8ed)" style="fill: none; stroke: #000000; stroke-opacity: 0.5; stroke-linecap: square"/>
   </g>
   <g id="line2d_23">
    <path d="M 92.290909 89.275608 
L 96.349091 89.271072 
L 100.407273 89.25444 
L 104.465455 89.230248 
L 108.523636 89.19396 
L 112.581818 89.1486 
L 116.64 89.09568 
L 120.698182 89.033688 
L 124.756364 88.962624 
L 128.814545 88.887024 
L 132.872727 88.8084 
L 136.930909 88.726752 
L 140.989091 88.648128 
L 145.047273 88.580088 
L 149.105455 88.531704 
L 153.163636 88.52112 
L 157.221818 88.583112 
L 161.28 88.769088 
L 165.338182 89.165232 
L 169.396364 89.862264 
L 173.454545 90.884376 
L 177.512727 92.16504 
L 181.570909 93.61656 
L 185.629091 95.170896 
L 189.687273 96.785712 
L 193.745455 98.433792 
L 197.803636 100.100016 
L 201.861818 101.770776 
L 205.92 103.432464 
L 209.978182 105.065424 
L 214.036364 106.63488 
L 218.094545 108.060696 
L 222.152727 109.15236 
L 226.210909 109.6362 
L 230.269091 109.53792 
L 234.327273 109.070712 
L 238.385455 108.33588 
L 242.443636 107.38332 
L 246.501818 106.26444 
L 250.56 105.03972 
L 254.618182 103.786272 
L 258.676364 102.634128 
L 262.734545 101.881152 
L 266.792727 102.0384 
L 270.850909 103.034808 
L 274.909091 104.353272 
L 278.967273 105.688368 
L 283.025455 106.840512 
L 287.083636 107.628264 
L 291.141818 108.013824 
L 295.2 108.134784 
L 299.258182 108.115128 
L 303.316364 108.027432 
L 307.374545 107.901936 
L 311.432727 107.756784 
L 315.490909 107.599536 
L 319.549091 107.437752 
L 323.607273 107.271432 
L 327.665455 107.1036 
L 331.723636 106.935768 
L 335.781818 106.77096 
L 339.84 106.606152 
L 343.898182 106.444368 
L 347.956364 106.28712 
L 352.014545 106.131384 
L 356.072727 105.980184 
L 360.130909 105.832008 
L 364.189091 105.688368 
L 368.247273 105.549264 
L 372.305455 105.413184 
L 376.363636 105.28164 
L 380.421818 105.154632 
L 384.48 105.03216 
L 388.538182 104.914224 
L 392.596364 104.799312 
L 396.654545 104.688936 
L 400.712727 104.583096 
L 404.770909 104.481792 
L 408.829091 104.382 
L 412.887273 104.286744 
L 416.945455 104.194512 
L 421.003636 104.103792 
L 425.061818 104.014584 
L 429.12 103.925376 
L 433.178182 103.834656 
L 437.236364 103.737888 
L 441.294545 103.629024 
L 445.352727 103.49748 
L 449.410909 103.319064 
L 453.469091 103.04388 
L 457.527273 102.584232 
L 461.585455 101.876616 
L 465.643636 100.986048 
L 469.701818 100.041048 
L 473.76 99.1278 
L 477.818182 98.293176 
L 481.876364 97.57044 
L 485.934545 96.982272 
L 489.992727 96.546816 
L 494.050909 96.280704 
L 498.109091 96.189984 
" clip-path="url(#p3e8763b8ed)" style="fill: none; stroke: #000000; stroke-opacity: 0.5; stroke-linecap: square"/>
   </g>
   <g id="patch_3">
    <path d="M 72 384.48 
L 72 51.84 
" style="fill: none; stroke: #000000; stroke-width: 0.8; stroke-linejoin: miter; stroke-linecap: square"/>
   </g>
   <g id="patch_4">
    <path d="M 518.4 384.48 
L 518.4 51.84 
" style="fill: none; stroke: #000000; stroke-width: 0.8; stroke-linejoin: miter; stroke-linecap: square"/>
   </g>
   <g id="patch_5">
    <path d="M 72 384.48 
L 518.4 384.48 
" style="fill: none; stroke: #000000; stroke-width: 0.8; stroke-linejoin: miter; stroke-linecap: square"/>
   </g>
   <g id="patch_6">
    <path d="M 72 51.84 
L 518.4 51.84 
" style="fill: none; stroke: #000000; stroke-width: 0.8; stroke-linejoin: miter; stroke-linecap: square"/>
   </g>
  </g>
 </g>
 <defs>
  <clipPath id="p3e8763b8ed">
   <rect x="72" y="51.84" width="446.4" height="332.64"/>
  </clipPath>
 </defs>
</svg>
