<?xml version="1.0" encoding="utf-8" standalone="no"?>
<!DOCTYPE svg PUBLIC "-//W3C//DTD SVG 1.1//EN"
  "http://www.w3.org/Graphics/SVG/1.1/DTD/svg11.dtd">
<svg xmlns:xlink="http://www.w3.org/1999/xlink" width="576pt" height="432pt" viewBox="0 0 576 432" xmlns="http://www.w3.org/2000/svg" version="1.1">
 <metadata>
  <rdf:RDF xmlns:dc="http://purl.org/dc/elements/1.1/" xmlns:cc="http://creativecommons.org/ns#" xmlns:rdf="http://www.w3.org/1999/02/22-rdf-syntax-ns#">
   <cc:Work>
    <dc:type rdf:resource="http://purl.org/dc/dcmitype/StillImage"/>
    <dc:date>2023-05-03T17:30:43.180820</dc:date>
    <dc:format>image/svg+xml</dc:format>
    <dc:creator>
     <cc:Agent>
      <dc:title>Matplotlib v3.7.1, https://matplotlib.org/</dc:title>
     </cc:Agent>
    </dc:creator>
   </cc:Work>
  </rdf:RDF>
 </metadata>
 <defs>
  <style type="text/css">*{stroke-linejoin: round; stroke-linecap: butt}</style>
 </defs>
 <g id="figure_1">
  <g id="patch_1">
   <path d="M 0 432 
L 576 432 
L 576 0 
L 0 0 
z
" style="fill: #ffffff"/>
  </g>
  <g id="axes_1">
   <g id="patch_2">
    <path d="M 72 384.48 
L 518.4 384.48 
L 518.4 51.84 
L 72 51.84 
z
" style="fill: #ffffff"/>
   </g>
   <g id="matplotlib.axis_1">
    <g id="xtick_1">
     <g id="line2d_1">
      <defs>
       <path id="me8493f6537" d="M 0 0 
L 0 3.5 
" style="stroke: #000000; stroke-width: 0.8"/>
      </defs>
      <g>
       <use xlink:href="#me8493f6537" x="92.290909" y="384.48" style="stroke: #000000; stroke-width: 0.8"/>
      </g>
     </g>
     <g id="text_1">
      <!-- 0.0 -->
      <g transform="translate(84.339347 399.078438) scale(0.1 -0.1)">
       <defs>
        <path id="DejaVuSans-30" d="M 2034 4250 
Q 1547 4250 1301 3770 
Q 1056 3291 1056 2328 
Q 1056 1369 1301 889 
Q 1547 409 2034 409 
Q 2525 409 2770 889 
Q 3016 1369 3016 2328 
Q 3016 3291 2770 3770 
Q 2525 4250 2034 4250 
z
M 2034 4750 
Q 2819 4750 3233 4129 
Q 3647 3509 3647 2328 
Q 3647 1150 3233 529 
Q 2819 -91 2034 -91 
Q 1250 -91 836 529 
Q 422 1150 422 2328 
Q 422 3509 836 4129 
Q 1250 4750 2034 4750 
z
" transform="scale(0.015625)"/>
        <path id="DejaVuSans-2e" d="M 684 794 
L 1344 794 
L 1344 0 
L 684 0 
L 684 794 
z
" transform="scale(0.015625)"/>
       </defs>
       <use xlink:href="#DejaVuSans-30"/>
       <use xlink:href="#DejaVuSans-2e" x="63.623047"/>
       <use xlink:href="#DejaVuSans-30" x="95.410156"/>
      </g>
     </g>
    </g>
    <g id="xtick_2">
     <g id="line2d_2">
      <g>
       <use xlink:href="#me8493f6537" x="173.454545" y="384.48" style="stroke: #000000; stroke-width: 0.8"/>
      </g>
     </g>
     <g id="text_2">
      <!-- 0.2 -->
      <g transform="translate(165.502983 399.078438) scale(0.1 -0.1)">
       <defs>
        <path id="DejaVuSans-32" d="M 1228 531 
L 3431 531 
L 3431 0 
L 469 0 
L 469 531 
Q 828 903 1448 1529 
Q 2069 2156 2228 2338 
Q 2531 2678 2651 2914 
Q 2772 3150 2772 3378 
Q 2772 3750 2511 3984 
Q 2250 4219 1831 4219 
Q 1534 4219 1204 4116 
Q 875 4013 500 3803 
L 500 4441 
Q 881 4594 1212 4672 
Q 1544 4750 1819 4750 
Q 2544 4750 2975 4387 
Q 3406 4025 3406 3419 
Q 3406 3131 3298 2873 
Q 3191 2616 2906 2266 
Q 2828 2175 2409 1742 
Q 1991 1309 1228 531 
z
" transform="scale(0.015625)"/>
       </defs>
       <use xlink:href="#DejaVuSans-30"/>
       <use xlink:href="#DejaVuSans-2e" x="63.623047"/>
       <use xlink:href="#DejaVuSans-32" x="95.410156"/>
      </g>
     </g>
    </g>
    <g id="xtick_3">
     <g id="line2d_3">
      <g>
       <use xlink:href="#me8493f6537" x="254.618182" y="384.48" style="stroke: #000000; stroke-width: 0.8"/>
      </g>
     </g>
     <g id="text_3">
      <!-- 0.4 -->
      <g transform="translate(246.666619 399.078438) scale(0.1 -0.1)">
       <defs>
        <path id="DejaVuSans-34" d="M 2419 4116 
L 825 1625 
L 2419 1625 
L 2419 4116 
z
M 2253 4666 
L 3047 4666 
L 3047 1625 
L 3713 1625 
L 3713 1100 
L 3047 1100 
L 3047 0 
L 2419 0 
L 2419 1100 
L 313 1100 
L 313 1709 
L 2253 4666 
z
" transform="scale(0.015625)"/>
       </defs>
       <use xlink:href="#DejaVuSans-30"/>
       <use xlink:href="#DejaVuSans-2e" x="63.623047"/>
       <use xlink:href="#DejaVuSans-34" x="95.410156"/>
      </g>
     </g>
    </g>
    <g id="xtick_4">
     <g id="line2d_4">
      <g>
       <use xlink:href="#me8493f6537" x="335.781818" y="384.48" style="stroke: #000000; stroke-width: 0.8"/>
      </g>
     </g>
     <g id="text_4">
      <!-- 0.6 -->
      <g transform="translate(327.830256 399.078438) scale(0.1 -0.1)">
       <defs>
        <path id="DejaVuSans-36" d="M 2113 2584 
Q 1688 2584 1439 2293 
Q 1191 2003 1191 1497 
Q 1191 994 1439 701 
Q 1688 409 2113 409 
Q 2538 409 2786 701 
Q 3034 994 3034 1497 
Q 3034 2003 2786 2293 
Q 2538 2584 2113 2584 
z
M 3366 4563 
L 3366 3988 
Q 3128 4100 2886 4159 
Q 2644 4219 2406 4219 
Q 1781 4219 1451 3797 
Q 1122 3375 1075 2522 
Q 1259 2794 1537 2939 
Q 1816 3084 2150 3084 
Q 2853 3084 3261 2657 
Q 3669 2231 3669 1497 
Q 3669 778 3244 343 
Q 2819 -91 2113 -91 
Q 1303 -91 875 529 
Q 447 1150 447 2328 
Q 447 3434 972 4092 
Q 1497 4750 2381 4750 
Q 2619 4750 2861 4703 
Q 3103 4656 3366 4563 
z
" transform="scale(0.015625)"/>
       </defs>
       <use xlink:href="#DejaVuSans-30"/>
       <use xlink:href="#DejaVuSans-2e" x="63.623047"/>
       <use xlink:href="#DejaVuSans-36" x="95.410156"/>
      </g>
     </g>
    </g>
    <g id="xtick_5">
     <g id="line2d_5">
      <g>
       <use xlink:href="#me8493f6537" x="416.945455" y="384.48" style="stroke: #000000; stroke-width: 0.8"/>
      </g>
     </g>
     <g id="text_5">
      <!-- 0.8 -->
      <g transform="translate(408.993892 399.078438) scale(0.1 -0.1)">
       <defs>
        <path id="DejaVuSans-38" d="M 2034 2216 
Q 1584 2216 1326 1975 
Q 1069 1734 1069 1313 
Q 1069 891 1326 650 
Q 1584 409 2034 409 
Q 2484 409 2743 651 
Q 3003 894 3003 1313 
Q 3003 1734 2745 1975 
Q 2488 2216 2034 2216 
z
M 1403 2484 
Q 997 2584 770 2862 
Q 544 3141 544 3541 
Q 544 4100 942 4425 
Q 1341 4750 2034 4750 
Q 2731 4750 3128 4425 
Q 3525 4100 3525 3541 
Q 3525 3141 3298 2862 
Q 3072 2584 2669 2484 
Q 3125 2378 3379 2068 
Q 3634 1759 3634 1313 
Q 3634 634 3220 271 
Q 2806 -91 2034 -91 
Q 1263 -91 848 271 
Q 434 634 434 1313 
Q 434 1759 690 2068 
Q 947 2378 1403 2484 
z
M 1172 3481 
Q 1172 3119 1398 2916 
Q 1625 2713 2034 2713 
Q 2441 2713 2670 2916 
Q 2900 3119 2900 3481 
Q 2900 3844 2670 4047 
Q 2441 4250 2034 4250 
Q 1625 4250 1398 4047 
Q 1172 3844 1172 3481 
z
" transform="scale(0.015625)"/>
       </defs>
       <use xlink:href="#DejaVuSans-30"/>
       <use xlink:href="#DejaVuSans-2e" x="63.623047"/>
       <use xlink:href="#DejaVuSans-38" x="95.410156"/>
      </g>
     </g>
    </g>
    <g id="xtick_6">
     <g id="line2d_6">
      <g>
       <use xlink:href="#me8493f6537" x="498.109091" y="384.48" style="stroke: #000000; stroke-width: 0.8"/>
      </g>
     </g>
     <g id="text_6">
      <!-- 1.0 -->
      <g transform="translate(490.157528 399.078438) scale(0.1 -0.1)">
       <defs>
        <path id="DejaVuSans-31" d="M 794 531 
L 1825 531 
L 1825 4091 
L 703 3866 
L 703 4441 
L 1819 4666 
L 2450 4666 
L 2450 531 
L 3481 531 
L 3481 0 
L 794 0 
L 794 531 
z
" transform="scale(0.015625)"/>
       </defs>
       <use xlink:href="#DejaVuSans-31"/>
       <use xlink:href="#DejaVuSans-2e" x="63.623047"/>
       <use xlink:href="#DejaVuSans-30" x="95.410156"/>
      </g>
     </g>
    </g>
   </g>
   <g id="matplotlib.axis_2">
    <g id="ytick_1">
     <g id="line2d_7">
      <defs>
       <path id="m696dcec51e" d="M 0 0 
L -3.5 0 
" style="stroke: #000000; stroke-width: 0.8"/>
      </defs>
      <g>
       <use xlink:href="#m696dcec51e" x="72" y="369.36" style="stroke: #000000; stroke-width: 0.8"/>
      </g>
     </g>
     <g id="text_7">
      <!-- −5.0 -->
      <g transform="translate(40.717187 373.159219) scale(0.1 -0.1)">
       <defs>
        <path id="DejaVuSans-2212" d="M 678 2272 
L 4684 2272 
L 4684 1741 
L 678 1741 
L 678 2272 
z
" transform="scale(0.015625)"/>
        <path id="DejaVuSans-35" d="M 691 4666 
L 3169 4666 
L 3169 4134 
L 1269 4134 
L 1269 2991 
Q 1406 3038 1543 3061 
Q 1681 3084 1819 3084 
Q 2600 3084 3056 2656 
Q 3513 2228 3513 1497 
Q 3513 744 3044 326 
Q 2575 -91 1722 -91 
Q 1428 -91 1123 -41 
Q 819 9 494 109 
L 494 744 
Q 775 591 1075 516 
Q 1375 441 1709 441 
Q 2250 441 2565 725 
Q 2881 1009 2881 1497 
Q 2881 1984 2565 2268 
Q 2250 2553 1709 2553 
Q 1456 2553 1204 2497 
Q 953 2441 691 2322 
L 691 4666 
z
" transform="scale(0.015625)"/>
       </defs>
       <use xlink:href="#DejaVuSans-2212"/>
       <use xlink:href="#DejaVuSans-35" x="83.789062"/>
       <use xlink:href="#DejaVuSans-2e" x="147.412109"/>
       <use xlink:href="#DejaVuSans-30" x="179.199219"/>
      </g>
     </g>
    </g>
    <g id="ytick_2">
     <g id="line2d_8">
      <g>
       <use xlink:href="#m696dcec51e" x="72" y="331.56" style="stroke: #000000; stroke-width: 0.8"/>
      </g>
     </g>
     <g id="text_8">
      <!-- −2.5 -->
      <g transform="translate(40.717187 335.359219) scale(0.1 -0.1)">
       <use xlink:href="#DejaVuSans-2212"/>
       <use xlink:href="#DejaVuSans-32" x="83.789062"/>
       <use xlink:href="#DejaVuSans-2e" x="147.412109"/>
       <use xlink:href="#DejaVuSans-35" x="179.199219"/>
      </g>
     </g>
    </g>
    <g id="ytick_3">
     <g id="line2d_9">
      <g>
       <use xlink:href="#m696dcec51e" x="72" y="293.76" style="stroke: #000000; stroke-width: 0.8"/>
      </g>
     </g>
     <g id="text_9">
      <!-- 0.0 -->
      <g transform="translate(49.096875 297.559219) scale(0.1 -0.1)">
       <use xlink:href="#DejaVuSans-30"/>
       <use xlink:href="#DejaVuSans-2e" x="63.623047"/>
       <use xlink:href="#DejaVuSans-30" x="95.410156"/>
      </g>
     </g>
    </g>
    <g id="ytick_4">
     <g id="line2d_10">
      <g>
       <use xlink:href="#m696dcec51e" x="72" y="255.96" style="stroke: #000000; stroke-width: 0.8"/>
      </g>
     </g>
     <g id="text_10">
      <!-- 2.5 -->
      <g transform="translate(49.096875 259.759219) scale(0.1 -0.1)">
       <use xlink:href="#DejaVuSans-32"/>
       <use xlink:href="#DejaVuSans-2e" x="63.623047"/>
       <use xlink:href="#DejaVuSans-35" x="95.410156"/>
      </g>
     </g>
    </g>
    <g id="ytick_5">
     <g id="line2d_11">
      <g>
       <use xlink:href="#m696dcec51e" x="72" y="218.16" style="stroke: #000000; stroke-width: 0.8"/>
      </g>
     </g>
     <g id="text_11">
      <!-- 5.0 -->
      <g transform="translate(49.096875 221.959219) scale(0.1 -0.1)">
       <use xlink:href="#DejaVuSans-35"/>
       <use xlink:href="#DejaVuSans-2e" x="63.623047"/>
       <use xlink:href="#DejaVuSans-30" x="95.410156"/>
      </g>
     </g>
    </g>
    <g id="ytick_6">
     <g id="line2d_12">
      <g>
       <use xlink:href="#m696dcec51e" x="72" y="180.36" style="stroke: #000000; stroke-width: 0.8"/>
      </g>
     </g>
     <g id="text_12">
      <!-- 7.5 -->
      <g transform="translate(49.096875 184.159219) scale(0.1 -0.1)">
       <defs>
        <path id="DejaVuSans-37" d="M 525 4666 
L 3525 4666 
L 3525 4397 
L 1831 0 
L 1172 0 
L 2766 4134 
L 525 4134 
L 525 4666 
z
" transform="scale(0.015625)"/>
       </defs>
       <use xlink:href="#DejaVuSans-37"/>
       <use xlink:href="#DejaVuSans-2e" x="63.623047"/>
       <use xlink:href="#DejaVuSans-35" x="95.410156"/>
      </g>
     </g>
    </g>
    <g id="ytick_7">
     <g id="line2d_13">
      <g>
       <use xlink:href="#m696dcec51e" x="72" y="142.56" style="stroke: #000000; stroke-width: 0.8"/>
      </g>
     </g>
     <g id="text_13">
      <!-- 10.0 -->
      <g transform="translate(42.734375 146.359219) scale(0.1 -0.1)">
       <use xlink:href="#DejaVuSans-31"/>
       <use xlink:href="#DejaVuSans-30" x="63.623047"/>
       <use xlink:href="#DejaVuSans-2e" x="127.246094"/>
       <use xlink:href="#DejaVuSans-30" x="159.033203"/>
      </g>
     </g>
    </g>
    <g id="ytick_8">
     <g id="line2d_14">
      <g>
       <use xlink:href="#m696dcec51e" x="72" y="104.76" style="stroke: #000000; stroke-width: 0.8"/>
      </g>
     </g>
     <g id="text_14">
      <!-- 12.5 -->
      <g transform="translate(42.734375 108.559219) scale(0.1 -0.1)">
       <use xlink:href="#DejaVuSans-31"/>
       <use xlink:href="#DejaVuSans-32" x="63.623047"/>
       <use xlink:href="#DejaVuSans-2e" x="127.246094"/>
       <use xlink:href="#DejaVuSans-35" x="159.033203"/>
      </g>
     </g>
    </g>
    <g id="ytick_9">
     <g id="line2d_15">
      <g>
       <use xlink:href="#m696dcec51e" x="72" y="66.96" style="stroke: #000000; stroke-width: 0.8"/>
      </g>
     </g>
     <g id="text_15">
      <!-- 15.0 -->
      <g transform="translate(42.734375 70.759219) scale(0.1 -0.1)">
       <use xlink:href="#DejaVuSans-31"/>
       <use xlink:href="#DejaVuSans-35" x="63.623047"/>
       <use xlink:href="#DejaVuSans-2e" x="127.246094"/>
       <use xlink:href="#DejaVuSans-30" x="159.033203"/>
      </g>
     </g>
    </g>
   </g>
   <g id="line2d_16">
    <path d="M 92.290909 353.414448 
L 96.349091 353.409912 
L 100.407273 353.397816 
L 104.465455 353.376648 
L 108.523636 353.346408 
L 112.581818 353.308608 
L 116.64 353.261736 
L 120.698182 353.207304 
L 124.756364 353.145312 
L 128.814545 353.074248 
L 132.872727 352.994112 
L 136.930909 352.907928 
L 140.989091 352.812672 
L 145.047273 352.709856 
L 149.105455 352.59948 
L 153.163636 352.483056 
L 157.221818 352.35756 
L 161.28 352.226016 
L 165.338182 352.086912 
L 169.396364 351.940248 
L 173.454545 351.787536 
L 177.512727 351.630288 
L 181.570909 351.46548 
L 185.629091 351.294624 
L 189.687273 351.119232 
L 193.745455 350.937792 
L 197.803636 350.751816 
L 201.861818 350.561304 
L 205.92 350.366256 
L 209.978182 350.166672 
L 214.036364 349.965576 
L 218.094545 349.759944 
L 222.152727 349.5528 
L 226.210909 349.342632 
L 230.269091 349.130952 
L 234.327273 348.919272 
L 238.385455 348.70608 
L 242.443636 348.492888 
L 246.501818 348.279696 
L 250.56 348.068016 
L 254.618182 347.857848 
L 258.676364 347.650704 
L 262.734545 347.445072 
L 266.792727 347.243976 
L 270.850909 347.047416 
L 274.909091 346.85388 
L 278.967273 346.666392 
L 283.025455 346.484952 
L 287.083636 346.311072 
L 291.141818 346.14324 
L 295.2 345.982968 
L 299.258182 345.830256 
L 303.316364 345.686616 
L 307.374545 345.552048 
L 311.432727 345.426552 
L 315.490909 345.31164 
L 319.549091 345.2058 
L 323.607273 345.109032 
L 327.665455 345.02436 
L 331.723636 344.94876 
L 335.781818 344.882232 
L 339.84 344.826288 
L 343.898182 344.780928 
L 347.956364 344.74464 
L 352.014545 344.717424 
L 356.072727 344.69928 
L 360.130909 344.690208 
L 364.189091 344.688696 
L 368.247273 344.694744 
L 372.305455 344.70684 
L 376.363636 344.726496 
L 380.421818 344.7522 
L 384.48 344.783952 
L 388.538182 344.818728 
L 392.596364 344.859552 
L 396.654545 344.901888 
L 400.712727 344.94876 
L 404.770909 344.998656 
L 408.829091 345.050064 
L 412.887273 345.101472 
L 416.945455 345.155904 
L 421.003636 345.210336 
L 425.061818 345.264768 
L 429.12 345.317688 
L 433.178182 345.370608 
L 437.236364 345.422016 
L 441.294545 345.471912 
L 445.352727 345.520296 
L 449.410909 345.565656 
L 453.469091 345.607992 
L 457.527273 345.648816 
L 461.585455 345.686616 
L 465.643636 345.71988 
L 469.701818 345.75012 
L 473.76 345.777336 
L 477.818182 345.800016 
L 481.876364 345.81816 
L 485.934545 345.83328 
L 489.992727 345.843864 
L 494.050909 345.849912 
L 498.109091 345.851424 
" clip-path="url(#p06470bf976)" style="fill: none; stroke: #000000; stroke-opacity: 0.5; stroke-linecap: square"/>
   </g>
   <g id="line2d_17">
    <path d="M 92.290909 281.57328 
L 96.349091 281.609568 
L 100.407273 281.718432 
L 104.465455 281.896848 
L 108.523636 282.141792 
L 112.581818 282.45024 
L 116.64 282.814632 
L 120.698182 283.230432 
L 124.756364 283.693104 
L 128.814545 284.195088 
L 132.872727 284.73336 
L 136.930909 285.301872 
L 140.989091 285.894576 
L 145.047273 286.508448 
L 149.105455 287.140464 
L 153.163636 287.786088 
L 157.221818 288.442296 
L 161.28 289.107576 
L 165.338182 289.777392 
L 169.396364 290.44872 
L 173.454545 291.123072 
L 177.512727 291.795912 
L 181.570909 292.465728 
L 185.629091 293.13252 
L 189.687273 293.793264 
L 193.745455 294.446448 
L 197.803636 295.092072 
L 201.861818 295.728624 
L 205.92 296.354592 
L 209.978182 296.968464 
L 214.036364 297.571752 
L 218.094545 298.15992 
L 222.152727 298.73448 
L 226.210909 299.29392 
L 230.269091 299.83824 
L 234.327273 300.364416 
L 238.385455 300.87396 
L 242.443636 301.363848 
L 246.501818 301.835592 
L 250.56 302.286168 
L 254.618182 302.717088 
L 258.676364 303.125328 
L 262.734545 303.5124 
L 266.792727 303.87528 
L 270.850909 304.213968 
L 274.909091 304.528464 
L 278.967273 304.818768 
L 283.025455 305.081856 
L 287.083636 305.31924 
L 291.141818 305.527896 
L 295.2 305.710848 
L 299.258182 305.865072 
L 303.316364 305.990568 
L 307.374545 306.087336 
L 311.432727 306.153864 
L 315.490909 306.191664 
L 319.549091 306.200736 
L 323.607273 306.179568 
L 327.665455 306.12816 
L 331.723636 306.048024 
L 335.781818 305.93916 
L 339.84 305.800056 
L 343.898182 305.633736 
L 347.956364 305.438688 
L 352.014545 305.216424 
L 356.072727 304.966944 
L 360.130909 304.69176 
L 364.189091 304.390872 
L 368.247273 304.067304 
L 372.305455 303.718032 
L 376.363636 303.347592 
L 380.421818 302.955984 
L 384.48 302.54472 
L 388.538182 302.1138 
L 392.596364 301.666248 
L 396.654545 301.202064 
L 400.712727 300.72276 
L 404.770909 300.23136 
L 408.829091 299.727864 
L 412.887273 299.215296 
L 416.945455 298.695168 
L 421.003636 298.168992 
L 425.061818 297.63828 
L 429.12 297.107568 
L 433.178182 296.576856 
L 437.236364 296.05068 
L 441.294545 295.532064 
L 445.352727 295.02252 
L 449.410909 294.526584 
L 453.469091 294.04728 
L 457.527273 293.589144 
L 461.585455 293.1552 
L 465.643636 292.751496 
L 469.701818 292.381056 
L 473.76 292.048416 
L 477.818182 291.7566 
L 481.876364 291.513168 
L 485.934545 291.319632 
L 489.992727 291.177504 
L 494.050909 291.092832 
L 498.109091 291.064104 
" clip-path="url(#p06470bf976)" style="fill: none; stroke: #000000; stroke-opacity: 0.5; stroke-linecap: square"/>
   </g>
   <g id="line2d_18">
    <path d="M 92.290909 254.549304 
L 96.349091 254.506968 
L 100.407273 254.382984 
L 104.465455 254.178864 
L 108.523636 253.899144 
L 112.581818 253.545336 
L 116.64 253.126512 
L 120.698182 252.645696 
L 124.756364 252.108936 
L 128.814545 251.525304 
L 132.872727 250.896312 
L 136.930909 250.22952 
L 140.989091 249.530976 
L 145.047273 248.803704 
L 149.105455 248.053752 
L 153.163636 247.284144 
L 157.221818 246.499416 
L 161.28 245.702592 
L 165.338182 244.898208 
L 169.396364 244.089288 
L 173.454545 243.278856 
L 177.512727 242.471448 
L 181.570909 241.667064 
L 185.629091 240.873264 
L 189.687273 240.088536 
L 193.745455 239.32044 
L 197.803636 238.570488 
L 201.861818 237.843216 
L 205.92 237.140136 
L 209.978182 236.468808 
L 214.036364 235.830744 
L 218.094545 235.233504 
L 222.152727 234.6786 
L 226.210909 234.170568 
L 230.269091 233.715456 
L 234.327273 233.314776 
L 238.385455 232.97004 
L 242.443636 232.68276 
L 246.501818 232.452936 
L 250.56 232.277544 
L 254.618182 232.15356 
L 258.676364 232.07796 
L 262.734545 232.044696 
L 266.792727 232.053768 
L 270.850909 232.099128 
L 274.909091 232.177752 
L 278.967273 232.28964 
L 283.025455 232.430256 
L 287.083636 232.598088 
L 291.141818 232.793136 
L 295.2 233.013888 
L 299.258182 233.260344 
L 303.316364 233.530992 
L 307.374545 233.825832 
L 311.432727 234.144864 
L 315.490909 234.488088 
L 319.549091 234.857016 
L 323.607273 235.248624 
L 327.665455 235.667448 
L 331.723636 236.110464 
L 335.781818 236.579184 
L 339.84 237.073608 
L 343.898182 237.595248 
L 347.956364 238.14108 
L 352.014545 238.714128 
L 356.072727 239.311368 
L 360.130909 239.9328 
L 364.189091 240.578424 
L 368.247273 241.24824 
L 372.305455 241.939224 
L 376.363636 242.649864 
L 380.421818 243.38016 
L 384.48 244.125576 
L 388.538182 244.887624 
L 392.596364 245.661768 
L 396.654545 246.448008 
L 400.712727 247.241808 
L 404.770909 248.041656 
L 408.829091 248.84604 
L 412.887273 249.650424 
L 416.945455 250.454808 
L 421.003636 251.254656 
L 425.061818 252.048456 
L 429.12 252.831672 
L 433.178182 253.602792 
L 437.236364 254.35728 
L 441.294545 255.093624 
L 445.352727 255.805776 
L 449.410909 256.490712 
L 453.469091 257.145408 
L 457.527273 257.765328 
L 461.585455 258.345936 
L 465.643636 258.882696 
L 469.701818 259.371072 
L 473.76 259.806528 
L 477.818182 260.183016 
L 481.876364 260.499024 
L 485.934545 260.748504 
L 489.992727 260.928432 
L 494.050909 261.038808 
L 498.109091 261.075096 
" clip-path="url(#p06470bf976)" style="fill: none; stroke: #000000; stroke-opacity: 0.5; stroke-linecap: square"/>
   </g>
   <g id="line2d_19">
    <path d="M 92.290909 228.553488 
L 96.349091 228.551976 
L 100.407273 228.54744 
L 104.465455 228.538368 
L 108.523636 228.526272 
L 112.581818 228.50964 
L 116.64 228.491496 
L 120.698182 228.468816 
L 124.756364 228.443112 
L 128.814545 228.414384 
L 132.872727 228.382632 
L 136.930909 228.349368 
L 140.989091 228.311568 
L 145.047273 228.272256 
L 149.105455 228.22992 
L 153.163636 228.186072 
L 157.221818 228.1392 
L 161.28 228.090816 
L 165.338182 228.039408 
L 169.396364 227.986488 
L 173.454545 227.932056 
L 177.512727 227.8746 
L 181.570909 227.815632 
L 185.629091 227.75364 
L 189.687273 227.688624 
L 193.745455 227.620584 
L 197.803636 227.54952 
L 201.861818 227.470896 
L 205.92 227.387736 
L 209.978182 227.297016 
L 214.036364 227.197224 
L 218.094545 227.085336 
L 222.152727 226.962864 
L 226.210909 226.82376 
L 230.269091 226.669536 
L 234.327273 226.500192 
L 238.385455 226.312704 
L 242.443636 226.11312 
L 246.501818 225.90144 
L 250.56 225.6822 
L 254.618182 225.46296 
L 258.676364 225.245232 
L 262.734545 225.038088 
L 266.792727 224.844552 
L 270.850909 224.66916 
L 274.909091 224.51796 
L 278.967273 224.392464 
L 283.025455 224.297208 
L 287.083636 224.23068 
L 291.141818 224.197416 
L 295.2 224.197416 
L 299.258182 224.23068 
L 303.316364 224.295696 
L 307.374545 224.392464 
L 311.432727 224.520984 
L 315.490909 224.678232 
L 319.549091 224.862696 
L 323.607273 225.071352 
L 327.665455 225.302688 
L 331.723636 225.555192 
L 335.781818 225.822816 
L 339.84 226.107072 
L 343.898182 226.4004 
L 347.956364 226.704312 
L 352.014545 227.014272 
L 356.072727 227.327256 
L 360.130909 227.641752 
L 364.189091 227.956248 
L 368.247273 228.26772 
L 372.305455 228.576168 
L 376.363636 228.878568 
L 380.421818 229.17492 
L 384.48 229.463712 
L 388.538182 229.743432 
L 392.596364 230.015592 
L 396.654545 230.27868 
L 400.712727 230.532696 
L 404.770909 230.776128 
L 408.829091 231.008976 
L 412.887273 231.232752 
L 416.945455 231.444432 
L 421.003636 231.64704 
L 425.061818 231.839064 
L 429.12 232.022016 
L 433.178182 232.192872 
L 437.236364 232.353144 
L 441.294545 232.504344 
L 445.352727 232.643448 
L 449.410909 232.77348 
L 453.469091 232.892928 
L 457.527273 233.001792 
L 461.585455 233.100072 
L 465.643636 233.187768 
L 469.701818 233.26488 
L 473.76 233.331408 
L 477.818182 233.388864 
L 481.876364 233.435736 
L 485.934545 233.472024 
L 489.992727 233.497728 
L 494.050909 233.512848 
L 498.109091 233.518896 
" clip-path="url(#p06470bf976)" style="fill: none; stroke: #000000; stroke-opacity: 0.5; stroke-linecap: square"/>
   </g>
   <g id="line2d_20">
    <path d="M 92.290909 154.448856 
L 96.349091 154.52748 
L 100.407273 154.751256 
L 104.465455 155.089944 
L 108.523636 155.520864 
L 112.581818 156.021336 
L 116.64 156.580776 
L 120.698182 157.182552 
L 124.756364 157.819104 
L 128.814545 158.478336 
L 132.872727 159.152688 
L 136.930909 159.837624 
L 140.989091 160.525584 
L 145.047273 161.212032 
L 149.105455 161.893944 
L 153.163636 162.568296 
L 157.221818 163.230552 
L 161.28 163.8792 
L 165.338182 164.511216 
L 169.396364 165.125088 
L 173.454545 165.720816 
L 177.512727 166.293864 
L 181.570909 166.844232 
L 185.629091 167.37192 
L 189.687273 167.873904 
L 193.745455 168.350184 
L 197.803636 168.799248 
L 201.861818 169.222608 
L 205.92 169.61724 
L 209.978182 169.984656 
L 214.036364 170.323344 
L 218.094545 170.634816 
L 222.152727 170.91756 
L 226.210909 171.173088 
L 230.269091 171.402912 
L 234.327273 171.607032 
L 238.385455 171.785448 
L 242.443636 171.941184 
L 246.501818 172.075752 
L 250.56 172.189152 
L 254.618182 172.28592 
L 258.676364 172.366056 
L 262.734545 172.431072 
L 266.792727 172.485504 
L 270.850909 172.526328 
L 274.909091 172.559592 
L 278.967273 172.58076 
L 283.025455 172.594368 
L 287.083636 172.597392 
L 291.141818 172.589832 
L 295.2 172.571688 
L 299.258182 172.538424 
L 303.316364 172.49004 
L 307.374545 172.423512 
L 311.432727 172.337328 
L 315.490909 172.229976 
L 319.549091 172.098432 
L 323.607273 171.942696 
L 327.665455 171.758232 
L 331.723636 171.546552 
L 335.781818 171.307656 
L 339.84 171.037008 
L 343.898182 170.737632 
L 347.956364 170.408016 
L 352.014545 170.046648 
L 356.072727 169.656552 
L 360.130909 169.237728 
L 364.189091 168.788664 
L 368.247273 168.310872 
L 372.305455 167.805864 
L 376.363636 167.27364 
L 380.421818 166.715712 
L 384.48 166.133592 
L 388.538182 165.528792 
L 392.596364 164.8998 
L 396.654545 164.252664 
L 400.712727 163.585872 
L 404.770909 162.905472 
L 408.829091 162.212976 
L 412.887273 161.51292 
L 416.945455 160.815888 
L 421.003636 160.132464 
L 425.061818 159.485328 
L 429.12 158.906232 
L 433.178182 158.436 
L 437.236364 158.106384 
L 441.294545 157.911336 
L 445.352727 157.81608 
L 449.410909 157.782816 
L 453.469091 157.78584 
L 457.527273 157.807008 
L 461.585455 157.83876 
L 465.643636 157.875048 
L 469.701818 157.912848 
L 473.76 157.947624 
L 477.818182 157.979376 
L 481.876364 158.006592 
L 485.934545 158.02776 
L 489.992727 158.044392 
L 494.050909 158.053464 
L 498.109091 158.056488 
" clip-path="url(#p06470bf976)" style="fill: none; stroke: #000000; stroke-opacity: 0.5; stroke-linecap: square"/>
   </g>
   <g id="line2d_21">
    <path d="M 92.290909 152.948952 
L 96.349091 152.927784 
L 100.407273 152.874864 
L 104.465455 152.809848 
L 108.523636 152.744832 
L 112.581818 152.684352 
L 116.64 152.631432 
L 120.698182 152.583048 
L 124.756364 152.540712 
L 128.814545 152.499888 
L 132.872727 152.462088 
L 136.930909 152.4258 
L 140.989091 152.392536 
L 145.047273 152.359272 
L 149.105455 152.329032 
L 153.163636 152.300304 
L 157.221818 152.2746 
L 161.28 152.253432 
L 165.338182 152.233776 
L 169.396364 152.220168 
L 173.454545 152.212608 
L 177.512727 152.211096 
L 181.570909 152.217144 
L 185.629091 152.230752 
L 189.687273 152.256456 
L 193.745455 152.292744 
L 197.803636 152.34264 
L 201.861818 152.406144 
L 205.92 152.487792 
L 209.978182 152.586072 
L 214.036364 152.702496 
L 218.094545 152.840088 
L 222.152727 152.997336 
L 226.210909 153.172728 
L 230.269091 153.367776 
L 234.327273 153.577944 
L 238.385455 153.798696 
L 242.443636 154.027008 
L 246.501818 154.256832 
L 250.56 154.479096 
L 254.618182 154.687752 
L 258.676364 154.876752 
L 262.734545 155.037024 
L 266.792727 155.164032 
L 270.850909 155.250216 
L 274.909091 155.295576 
L 278.967273 155.292552 
L 283.025455 155.244168 
L 287.083636 155.150424 
L 291.141818 155.01132 
L 295.2 154.835928 
L 299.258182 154.627272 
L 303.316364 154.39896 
L 307.374545 154.158552 
L 311.432727 153.92268 
L 315.490909 153.70344 
L 319.549091 153.512928 
L 323.607273 153.36324 
L 327.665455 153.2574 
L 331.723636 153.198432 
L 335.781818 153.183312 
L 339.84 153.20448 
L 343.898182 153.258912 
L 347.956364 153.34056 
L 352.014545 153.443376 
L 356.072727 153.564336 
L 360.130909 153.697392 
L 364.189091 153.841032 
L 368.247273 153.993744 
L 372.305455 154.14948 
L 376.363636 154.309752 
L 380.421818 154.471536 
L 384.48 154.631808 
L 388.538182 154.79208 
L 392.596364 154.947816 
L 396.654545 155.097504 
L 400.712727 155.241144 
L 404.770909 155.375712 
L 408.829091 155.49516 
L 412.887273 155.597976 
L 416.945455 155.675088 
L 421.003636 155.715912 
L 425.061818 155.697768 
L 429.12 155.590416 
L 433.178182 155.354544 
L 437.236364 154.9584 
L 441.294545 154.411056 
L 445.352727 153.750312 
L 449.410909 153.013968 
L 453.469091 152.233776 
L 457.527273 151.429392 
L 461.585455 150.614424 
L 465.643636 149.805504 
L 469.701818 149.011704 
L 473.76 148.248144 
L 477.818182 147.53448 
L 481.876364 146.890368 
L 485.934545 146.341512 
L 489.992727 145.919664 
L 494.050909 145.650528 
L 498.109091 145.558296 
" clip-path="url(#p06470bf976)" style="fill: none; stroke: #000000; stroke-opacity: 0.5; stroke-linecap: square"/>
   </g>
   <g id="line2d_22">
    <path d="M 92.290909 136.68588 
L 96.349091 136.61028 
L 100.407273 136.384992 
L 104.465455 136.019088 
L 108.523636 135.526176 
L 112.581818 134.919864 
L 116.64 134.216784 
L 120.698182 133.430544 
L 124.756364 132.576264 
L 128.814545 131.669064 
L 132.872727 130.724064 
L 136.930909 129.76092 
L 140.989091 128.81592 
L 145.047273 127.957104 
L 149.105455 127.352304 
L 153.163636 127.255536 
L 157.221818 127.703088 
L 161.28 128.459088 
L 165.338182 129.351168 
L 169.396364 130.303728 
L 173.454545 131.281992 
L 177.512727 132.27084 
L 181.570909 133.258176 
L 185.629091 134.234928 
L 189.687273 135.199584 
L 193.745455 136.143072 
L 197.803636 137.06388 
L 201.861818 137.957472 
L 205.92 138.8178 
L 209.978182 139.643352 
L 214.036364 140.429592 
L 218.094545 141.173496 
L 222.152727 141.870528 
L 226.210909 142.520688 
L 230.269091 143.120952 
L 234.327273 143.67132 
L 238.385455 144.171792 
L 242.443636 144.625392 
L 246.501818 145.033632 
L 250.56 145.401048 
L 254.618182 145.72764 
L 258.676364 146.020968 
L 262.734545 146.284056 
L 266.792727 146.518416 
L 270.850909 146.728584 
L 274.909091 146.91456 
L 278.967273 147.077856 
L 283.025455 147.219984 
L 287.083636 147.339432 
L 291.141818 147.433176 
L 295.2 147.498192 
L 299.258182 147.529944 
L 303.316364 147.51936 
L 307.374545 147.45888 
L 311.432727 147.33792 
L 315.490909 147.145896 
L 319.549091 146.872224 
L 323.607273 146.510856 
L 327.665455 146.06028 
L 331.723636 145.520496 
L 335.781818 144.897552 
L 339.84 144.199008 
L 343.898182 143.433936 
L 347.956364 142.609896 
L 352.014545 141.732936 
L 356.072727 140.810616 
L 360.130909 139.847472 
L 364.189091 138.849552 
L 368.247273 137.81988 
L 372.305455 136.762992 
L 376.363636 135.681912 
L 380.421818 134.579664 
L 384.48 133.45776 
L 388.538182 132.320736 
L 392.596364 131.168592 
L 396.654545 130.007376 
L 400.712727 128.835576 
L 404.770909 127.657728 
L 408.829091 126.478368 
L 412.887273 125.30052 
L 416.945455 124.130232 
L 421.003636 122.978088 
L 425.061818 121.862232 
L 429.12 120.825 
L 433.178182 119.982816 
L 437.236364 119.624472 
L 441.294545 120.022128 
L 445.352727 120.909672 
L 449.410909 121.972608 
L 453.469091 123.089976 
L 457.527273 124.21188 
L 461.585455 125.317152 
L 465.643636 126.387648 
L 469.701818 127.412784 
L 473.76 128.374416 
L 477.818182 129.257424 
L 481.876364 130.039128 
L 485.934545 130.693824 
L 489.992727 131.192784 
L 494.050909 131.50728 
L 498.109091 131.614632 
" clip-path="url(#p06470bf976)" style="fill: none; stroke: #000000; stroke-opacity: 0.5; stroke-linecap: square"/>
   </g>
   <g id="line2d_23">
    <path d="M 92.290909 114.781536 
L 96.349091 114.851088 
L 100.407273 115.05672 
L 104.465455 115.392384 
L 108.523636 115.845984 
L 112.581818 116.403912 
L 116.64 117.054072 
L 120.698182 117.779832 
L 124.756364 118.567584 
L 128.814545 119.399184 
L 132.872727 120.259512 
L 136.930909 121.1274 
L 140.989091 121.963536 
L 145.047273 122.698368 
L 149.105455 123.164064 
L 153.163636 123.102072 
L 157.221818 122.477616 
L 161.28 121.523544 
L 165.338182 120.4092 
L 169.396364 119.211696 
L 173.454545 117.961272 
L 177.512727 116.67456 
L 181.570909 115.35912 
L 185.629091 114.022512 
L 189.687273 112.66776 
L 193.745455 111.297888 
L 197.803636 109.91592 
L 201.861818 108.523368 
L 205.92 107.123256 
L 209.978182 105.717096 
L 214.036364 104.3064 
L 218.094545 102.895704 
L 222.152727 101.48652 
L 226.210909 100.083384 
L 230.269091 98.687808 
L 234.327273 97.30584 
L 238.385455 95.940504 
L 242.443636 94.600872 
L 246.501818 93.29148 
L 250.56 92.019888 
L 254.618182 90.798192 
L 258.676364 89.636976 
L 262.734545 88.545312 
L 266.792727 87.535296 
L 270.850909 86.619024 
L 274.909091 85.802544 
L 278.967273 85.090392 
L 283.025455 84.48408 
L 287.083636 83.979072 
L 291.141818 83.56932 
L 295.2 83.247264 
L 299.258182 83.008368 
L 303.316364 82.848096 
L 307.374545 82.766448 
L 311.432727 82.76796 
L 315.490909 82.85868 
L 319.549091 83.050704 
L 323.607273 83.356128 
L 327.665455 83.785536 
L 331.723636 84.346488 
L 335.781818 85.040496 
L 339.84 85.863024 
L 343.898182 86.803488 
L 347.956364 87.846768 
L 352.014545 88.976232 
L 356.072727 90.175248 
L 360.130909 91.43172 
L 364.189091 92.73204 
L 368.247273 94.067136 
L 372.305455 95.426424 
L 376.363636 96.80688 
L 380.421818 98.199432 
L 384.48 99.601056 
L 388.538182 101.007216 
L 392.596364 102.413376 
L 396.654545 103.818024 
L 400.712727 105.218136 
L 404.770909 106.610688 
L 408.829091 107.991144 
L 412.887273 109.354968 
L 416.945455 110.699136 
L 421.003636 112.011552 
L 425.061818 113.275584 
L 429.12 114.447384 
L 433.178182 115.413552 
L 437.236364 115.885296 
L 441.294545 115.591968 
L 445.352727 114.802704 
L 449.410909 113.830488 
L 453.469091 112.800816 
L 457.527273 111.763584 
L 461.585455 110.744496 
L 465.643636 109.760184 
L 469.701818 108.82728 
L 473.76 107.962416 
L 477.818182 107.182224 
L 481.876364 106.503336 
L 485.934545 105.949944 
L 489.992727 105.535656 
L 494.050909 105.280128 
L 498.109091 105.193944 
" clip-path="url(#p06470bf976)" style="fill: none; stroke: #000000; stroke-opacity: 0.5; stroke-linecap: square"/>
   </g>
   <g id="patch_3">
    <path d="M 72 384.48 
L 72 51.84 
" style="fill: none; stroke: #000000; stroke-width: 0.8; stroke-linejoin: miter; stroke-linecap: square"/>
   </g>
   <g id="patch_4">
    <path d="M 518.4 384.48 
L 518.4 51.84 
" style="fill: none; stroke: #000000; stroke-width: 0.8; stroke-linejoin: miter; stroke-linecap: square"/>
   </g>
   <g id="patch_5">
    <path d="M 72 384.48 
L 518.4 384.48 
" style="fill: none; stroke: #000000; stroke-width: 0.8; stroke-linejoin: miter; stroke-linecap: square"/>
   </g>
   <g id="patch_6">
    <path d="M 72 51.84 
L 518.4 51.84 
" style="fill: none; stroke: #000000; stroke-width: 0.8; stroke-linejoin: miter; stroke-linecap: square"/>
   </g>
  </g>
 </g>
 <defs>
  <clipPath id="p06470bf976">
   <rect x="72" y="51.84" width="446.4" height="332.64"/>
  </clipPath>
 </defs>
</svg>
