<?xml version="1.0" encoding="utf-8" standalone="no"?>
<!DOCTYPE svg PUBLIC "-//W3C//DTD SVG 1.1//EN"
  "http://www.w3.org/Graphics/SVG/1.1/DTD/svg11.dtd">
<svg xmlns:xlink="http://www.w3.org/1999/xlink" width="576pt" height="432pt" viewBox="0 0 576 432" xmlns="http://www.w3.org/2000/svg" version="1.1">
 <metadata>
  <rdf:RDF xmlns:dc="http://purl.org/dc/elements/1.1/" xmlns:cc="http://creativecommons.org/ns#" xmlns:rdf="http://www.w3.org/1999/02/22-rdf-syntax-ns#">
   <cc:Work>
    <dc:type rdf:resource="http://purl.org/dc/dcmitype/StillImage"/>
    <dc:date>2023-05-02T17:41:11.720949</dc:date>
    <dc:format>image/svg+xml</dc:format>
    <dc:creator>
     <cc:Agent>
      <dc:title>Matplotlib v3.7.1, https://matplotlib.org/</dc:title>
     </cc:Agent>
    </dc:creator>
   </cc:Work>
  </rdf:RDF>
 </metadata>
 <defs>
  <style type="text/css">*{stroke-linejoin: round; stroke-linecap: butt}</style>
 </defs>
 <g id="figure_1">
  <g id="patch_1">
   <path d="M 0 432 
L 576 432 
L 576 0 
L 0 0 
z
" style="fill: #ffffff"/>
  </g>
  <g id="axes_1">
   <g id="patch_2">
    <path d="M 72 384.48 
L 518.4 384.48 
L 518.4 51.84 
L 72 51.84 
z
" style="fill: #ffffff"/>
   </g>
   <g id="matplotlib.axis_1">
    <g id="xtick_1">
     <g id="line2d_1">
      <defs>
       <path id="m92b848d0eb" d="M 0 0 
L 0 3.5 
" style="stroke: #000000; stroke-width: 0.8"/>
      </defs>
      <g>
       <use xlink:href="#m92b848d0eb" x="92.290909" y="384.48" style="stroke: #000000; stroke-width: 0.8"/>
      </g>
     </g>
     <g id="text_1">
      <!-- 0.0 -->
      <g transform="translate(84.339347 399.078438) scale(0.1 -0.1)">
       <defs>
        <path id="DejaVuSans-30" d="M 2034 4250 
Q 1547 4250 1301 3770 
Q 1056 3291 1056 2328 
Q 1056 1369 1301 889 
Q 1547 409 2034 409 
Q 2525 409 2770 889 
Q 3016 1369 3016 2328 
Q 3016 3291 2770 3770 
Q 2525 4250 2034 4250 
z
M 2034 4750 
Q 2819 4750 3233 4129 
Q 3647 3509 3647 2328 
Q 3647 1150 3233 529 
Q 2819 -91 2034 -91 
Q 1250 -91 836 529 
Q 422 1150 422 2328 
Q 422 3509 836 4129 
Q 1250 4750 2034 4750 
z
" transform="scale(0.015625)"/>
        <path id="DejaVuSans-2e" d="M 684 794 
L 1344 794 
L 1344 0 
L 684 0 
L 684 794 
z
" transform="scale(0.015625)"/>
       </defs>
       <use xlink:href="#DejaVuSans-30"/>
       <use xlink:href="#DejaVuSans-2e" x="63.623047"/>
       <use xlink:href="#DejaVuSans-30" x="95.410156"/>
      </g>
     </g>
    </g>
    <g id="xtick_2">
     <g id="line2d_2">
      <g>
       <use xlink:href="#m92b848d0eb" x="173.454545" y="384.48" style="stroke: #000000; stroke-width: 0.8"/>
      </g>
     </g>
     <g id="text_2">
      <!-- 0.2 -->
      <g transform="translate(165.502983 399.078438) scale(0.1 -0.1)">
       <defs>
        <path id="DejaVuSans-32" d="M 1228 531 
L 3431 531 
L 3431 0 
L 469 0 
L 469 531 
Q 828 903 1448 1529 
Q 2069 2156 2228 2338 
Q 2531 2678 2651 2914 
Q 2772 3150 2772 3378 
Q 2772 3750 2511 3984 
Q 2250 4219 1831 4219 
Q 1534 4219 1204 4116 
Q 875 4013 500 3803 
L 500 4441 
Q 881 4594 1212 4672 
Q 1544 4750 1819 4750 
Q 2544 4750 2975 4387 
Q 3406 4025 3406 3419 
Q 3406 3131 3298 2873 
Q 3191 2616 2906 2266 
Q 2828 2175 2409 1742 
Q 1991 1309 1228 531 
z
" transform="scale(0.015625)"/>
       </defs>
       <use xlink:href="#DejaVuSans-30"/>
       <use xlink:href="#DejaVuSans-2e" x="63.623047"/>
       <use xlink:href="#DejaVuSans-32" x="95.410156"/>
      </g>
     </g>
    </g>
    <g id="xtick_3">
     <g id="line2d_3">
      <g>
       <use xlink:href="#m92b848d0eb" x="254.618182" y="384.48" style="stroke: #000000; stroke-width: 0.8"/>
      </g>
     </g>
     <g id="text_3">
      <!-- 0.4 -->
      <g transform="translate(246.666619 399.078438) scale(0.1 -0.1)">
       <defs>
        <path id="DejaVuSans-34" d="M 2419 4116 
L 825 1625 
L 2419 1625 
L 2419 4116 
z
M 2253 4666 
L 3047 4666 
L 3047 1625 
L 3713 1625 
L 3713 1100 
L 3047 1100 
L 3047 0 
L 2419 0 
L 2419 1100 
L 313 1100 
L 313 1709 
L 2253 4666 
z
" transform="scale(0.015625)"/>
       </defs>
       <use xlink:href="#DejaVuSans-30"/>
       <use xlink:href="#DejaVuSans-2e" x="63.623047"/>
       <use xlink:href="#DejaVuSans-34" x="95.410156"/>
      </g>
     </g>
    </g>
    <g id="xtick_4">
     <g id="line2d_4">
      <g>
       <use xlink:href="#m92b848d0eb" x="335.781818" y="384.48" style="stroke: #000000; stroke-width: 0.8"/>
      </g>
     </g>
     <g id="text_4">
      <!-- 0.6 -->
      <g transform="translate(327.830256 399.078438) scale(0.1 -0.1)">
       <defs>
        <path id="DejaVuSans-36" d="M 2113 2584 
Q 1688 2584 1439 2293 
Q 1191 2003 1191 1497 
Q 1191 994 1439 701 
Q 1688 409 2113 409 
Q 2538 409 2786 701 
Q 3034 994 3034 1497 
Q 3034 2003 2786 2293 
Q 2538 2584 2113 2584 
z
M 3366 4563 
L 3366 3988 
Q 3128 4100 2886 4159 
Q 2644 4219 2406 4219 
Q 1781 4219 1451 3797 
Q 1122 3375 1075 2522 
Q 1259 2794 1537 2939 
Q 1816 3084 2150 3084 
Q 2853 3084 3261 2657 
Q 3669 2231 3669 1497 
Q 3669 778 3244 343 
Q 2819 -91 2113 -91 
Q 1303 -91 875 529 
Q 447 1150 447 2328 
Q 447 3434 972 4092 
Q 1497 4750 2381 4750 
Q 2619 4750 2861 4703 
Q 3103 4656 3366 4563 
z
" transform="scale(0.015625)"/>
       </defs>
       <use xlink:href="#DejaVuSans-30"/>
       <use xlink:href="#DejaVuSans-2e" x="63.623047"/>
       <use xlink:href="#DejaVuSans-36" x="95.410156"/>
      </g>
     </g>
    </g>
    <g id="xtick_5">
     <g id="line2d_5">
      <g>
       <use xlink:href="#m92b848d0eb" x="416.945455" y="384.48" style="stroke: #000000; stroke-width: 0.8"/>
      </g>
     </g>
     <g id="text_5">
      <!-- 0.8 -->
      <g transform="translate(408.993892 399.078438) scale(0.1 -0.1)">
       <defs>
        <path id="DejaVuSans-38" d="M 2034 2216 
Q 1584 2216 1326 1975 
Q 1069 1734 1069 1313 
Q 1069 891 1326 650 
Q 1584 409 2034 409 
Q 2484 409 2743 651 
Q 3003 894 3003 1313 
Q 3003 1734 2745 1975 
Q 2488 2216 2034 2216 
z
M 1403 2484 
Q 997 2584 770 2862 
Q 544 3141 544 3541 
Q 544 4100 942 4425 
Q 1341 4750 2034 4750 
Q 2731 4750 3128 4425 
Q 3525 4100 3525 3541 
Q 3525 3141 3298 2862 
Q 3072 2584 2669 2484 
Q 3125 2378 3379 2068 
Q 3634 1759 3634 1313 
Q 3634 634 3220 271 
Q 2806 -91 2034 -91 
Q 1263 -91 848 271 
Q 434 634 434 1313 
Q 434 1759 690 2068 
Q 947 2378 1403 2484 
z
M 1172 3481 
Q 1172 3119 1398 2916 
Q 1625 2713 2034 2713 
Q 2441 2713 2670 2916 
Q 2900 3119 2900 3481 
Q 2900 3844 2670 4047 
Q 2441 4250 2034 4250 
Q 1625 4250 1398 4047 
Q 1172 3844 1172 3481 
z
" transform="scale(0.015625)"/>
       </defs>
       <use xlink:href="#DejaVuSans-30"/>
       <use xlink:href="#DejaVuSans-2e" x="63.623047"/>
       <use xlink:href="#DejaVuSans-38" x="95.410156"/>
      </g>
     </g>
    </g>
    <g id="xtick_6">
     <g id="line2d_6">
      <g>
       <use xlink:href="#m92b848d0eb" x="498.109091" y="384.48" style="stroke: #000000; stroke-width: 0.8"/>
      </g>
     </g>
     <g id="text_6">
      <!-- 1.0 -->
      <g transform="translate(490.157528 399.078438) scale(0.1 -0.1)">
       <defs>
        <path id="DejaVuSans-31" d="M 794 531 
L 1825 531 
L 1825 4091 
L 703 3866 
L 703 4441 
L 1819 4666 
L 2450 4666 
L 2450 531 
L 3481 531 
L 3481 0 
L 794 0 
L 794 531 
z
" transform="scale(0.015625)"/>
       </defs>
       <use xlink:href="#DejaVuSans-31"/>
       <use xlink:href="#DejaVuSans-2e" x="63.623047"/>
       <use xlink:href="#DejaVuSans-30" x="95.410156"/>
      </g>
     </g>
    </g>
   </g>
   <g id="matplotlib.axis_2">
    <g id="ytick_1">
     <g id="line2d_7">
      <defs>
       <path id="mb97530df30" d="M 0 0 
L -3.5 0 
" style="stroke: #000000; stroke-width: 0.8"/>
      </defs>
      <g>
       <use xlink:href="#mb97530df30" x="72" y="369.36" style="stroke: #000000; stroke-width: 0.8"/>
      </g>
     </g>
     <g id="text_7">
      <!-- −5.0 -->
      <g transform="translate(40.717187 373.159219) scale(0.1 -0.1)">
       <defs>
        <path id="DejaVuSans-2212" d="M 678 2272 
L 4684 2272 
L 4684 1741 
L 678 1741 
L 678 2272 
z
" transform="scale(0.015625)"/>
        <path id="DejaVuSans-35" d="M 691 4666 
L 3169 4666 
L 3169 4134 
L 1269 4134 
L 1269 2991 
Q 1406 3038 1543 3061 
Q 1681 3084 1819 3084 
Q 2600 3084 3056 2656 
Q 3513 2228 3513 1497 
Q 3513 744 3044 326 
Q 2575 -91 1722 -91 
Q 1428 -91 1123 -41 
Q 819 9 494 109 
L 494 744 
Q 775 591 1075 516 
Q 1375 441 1709 441 
Q 2250 441 2565 725 
Q 2881 1009 2881 1497 
Q 2881 1984 2565 2268 
Q 2250 2553 1709 2553 
Q 1456 2553 1204 2497 
Q 953 2441 691 2322 
L 691 4666 
z
" transform="scale(0.015625)"/>
       </defs>
       <use xlink:href="#DejaVuSans-2212"/>
       <use xlink:href="#DejaVuSans-35" x="83.789062"/>
       <use xlink:href="#DejaVuSans-2e" x="147.412109"/>
       <use xlink:href="#DejaVuSans-30" x="179.199219"/>
      </g>
     </g>
    </g>
    <g id="ytick_2">
     <g id="line2d_8">
      <g>
       <use xlink:href="#mb97530df30" x="72" y="331.56" style="stroke: #000000; stroke-width: 0.8"/>
      </g>
     </g>
     <g id="text_8">
      <!-- −2.5 -->
      <g transform="translate(40.717187 335.359219) scale(0.1 -0.1)">
       <use xlink:href="#DejaVuSans-2212"/>
       <use xlink:href="#DejaVuSans-32" x="83.789062"/>
       <use xlink:href="#DejaVuSans-2e" x="147.412109"/>
       <use xlink:href="#DejaVuSans-35" x="179.199219"/>
      </g>
     </g>
    </g>
    <g id="ytick_3">
     <g id="line2d_9">
      <g>
       <use xlink:href="#mb97530df30" x="72" y="293.76" style="stroke: #000000; stroke-width: 0.8"/>
      </g>
     </g>
     <g id="text_9">
      <!-- 0.0 -->
      <g transform="translate(49.096875 297.559219) scale(0.1 -0.1)">
       <use xlink:href="#DejaVuSans-30"/>
       <use xlink:href="#DejaVuSans-2e" x="63.623047"/>
       <use xlink:href="#DejaVuSans-30" x="95.410156"/>
      </g>
     </g>
    </g>
    <g id="ytick_4">
     <g id="line2d_10">
      <g>
       <use xlink:href="#mb97530df30" x="72" y="255.96" style="stroke: #000000; stroke-width: 0.8"/>
      </g>
     </g>
     <g id="text_10">
      <!-- 2.5 -->
      <g transform="translate(49.096875 259.759219) scale(0.1 -0.1)">
       <use xlink:href="#DejaVuSans-32"/>
       <use xlink:href="#DejaVuSans-2e" x="63.623047"/>
       <use xlink:href="#DejaVuSans-35" x="95.410156"/>
      </g>
     </g>
    </g>
    <g id="ytick_5">
     <g id="line2d_11">
      <g>
       <use xlink:href="#mb97530df30" x="72" y="218.16" style="stroke: #000000; stroke-width: 0.8"/>
      </g>
     </g>
     <g id="text_11">
      <!-- 5.0 -->
      <g transform="translate(49.096875 221.959219) scale(0.1 -0.1)">
       <use xlink:href="#DejaVuSans-35"/>
       <use xlink:href="#DejaVuSans-2e" x="63.623047"/>
       <use xlink:href="#DejaVuSans-30" x="95.410156"/>
      </g>
     </g>
    </g>
    <g id="ytick_6">
     <g id="line2d_12">
      <g>
       <use xlink:href="#mb97530df30" x="72" y="180.36" style="stroke: #000000; stroke-width: 0.8"/>
      </g>
     </g>
     <g id="text_12">
      <!-- 7.5 -->
      <g transform="translate(49.096875 184.159219) scale(0.1 -0.1)">
       <defs>
        <path id="DejaVuSans-37" d="M 525 4666 
L 3525 4666 
L 3525 4397 
L 1831 0 
L 1172 0 
L 2766 4134 
L 525 4134 
L 525 4666 
z
" transform="scale(0.015625)"/>
       </defs>
       <use xlink:href="#DejaVuSans-37"/>
       <use xlink:href="#DejaVuSans-2e" x="63.623047"/>
       <use xlink:href="#DejaVuSans-35" x="95.410156"/>
      </g>
     </g>
    </g>
    <g id="ytick_7">
     <g id="line2d_13">
      <g>
       <use xlink:href="#mb97530df30" x="72" y="142.56" style="stroke: #000000; stroke-width: 0.8"/>
      </g>
     </g>
     <g id="text_13">
      <!-- 10.0 -->
      <g transform="translate(42.734375 146.359219) scale(0.1 -0.1)">
       <use xlink:href="#DejaVuSans-31"/>
       <use xlink:href="#DejaVuSans-30" x="63.623047"/>
       <use xlink:href="#DejaVuSans-2e" x="127.246094"/>
       <use xlink:href="#DejaVuSans-30" x="159.033203"/>
      </g>
     </g>
    </g>
    <g id="ytick_8">
     <g id="line2d_14">
      <g>
       <use xlink:href="#mb97530df30" x="72" y="104.76" style="stroke: #000000; stroke-width: 0.8"/>
      </g>
     </g>
     <g id="text_14">
      <!-- 12.5 -->
      <g transform="translate(42.734375 108.559219) scale(0.1 -0.1)">
       <use xlink:href="#DejaVuSans-31"/>
       <use xlink:href="#DejaVuSans-32" x="63.623047"/>
       <use xlink:href="#DejaVuSans-2e" x="127.246094"/>
       <use xlink:href="#DejaVuSans-35" x="159.033203"/>
      </g>
     </g>
    </g>
    <g id="ytick_9">
     <g id="line2d_15">
      <g>
       <use xlink:href="#mb97530df30" x="72" y="66.96" style="stroke: #000000; stroke-width: 0.8"/>
      </g>
     </g>
     <g id="text_15">
      <!-- 15.0 -->
      <g transform="translate(42.734375 70.759219) scale(0.1 -0.1)">
       <use xlink:href="#DejaVuSans-31"/>
       <use xlink:href="#DejaVuSans-35" x="63.623047"/>
       <use xlink:href="#DejaVuSans-2e" x="127.246094"/>
       <use xlink:href="#DejaVuSans-30" x="159.033203"/>
      </g>
     </g>
    </g>
   </g>
   <g id="line2d_16">
    <path d="M 92.290909 380.08764 
L 96.349091 380.081592 
L 100.407273 380.061936 
L 104.465455 380.030184 
L 108.523636 379.984824 
L 112.581818 379.927368 
L 116.64 379.856304 
L 120.698182 379.773144 
L 124.756364 379.677888 
L 128.814545 379.567512 
L 132.872727 379.446552 
L 136.930909 379.311984 
L 140.989091 379.163808 
L 145.047273 379.003536 
L 149.105455 378.831168 
L 153.163636 378.645192 
L 157.221818 378.44712 
L 161.28 378.23544 
L 165.338182 378.011664 
L 169.396364 377.775792 
L 173.454545 377.526312 
L 177.512727 377.264736 
L 181.570909 376.989552 
L 185.629091 376.702272 
L 189.687273 376.402896 
L 193.745455 376.089912 
L 197.803636 375.764832 
L 201.861818 375.427656 
L 205.92 375.076872 
L 209.978182 374.715504 
L 214.036364 374.339016 
L 218.094545 373.951944 
L 222.152727 373.551264 
L 226.210909 373.14 
L 230.269091 372.715128 
L 234.327273 372.276648 
L 238.385455 371.827584 
L 242.443636 371.366424 
L 246.501818 370.891656 
L 250.56 370.404792 
L 254.618182 369.907344 
L 258.676364 369.396288 
L 262.734545 368.873136 
L 266.792727 368.337888 
L 270.850909 367.790544 
L 274.909091 367.232616 
L 278.967273 366.66108 
L 283.025455 366.077448 
L 287.083636 365.483232 
L 291.141818 364.87692 
L 295.2 364.258512 
L 299.258182 363.628008 
L 303.316364 362.985408 
L 307.374545 362.332224 
L 311.432727 361.666944 
L 315.490909 360.99108 
L 319.549091 360.30312 
L 323.607273 359.603064 
L 327.665455 358.892424 
L 331.723636 358.169688 
L 335.781818 357.436368 
L 339.84 356.692464 
L 343.898182 355.936464 
L 347.956364 355.16988 
L 352.014545 354.392712 
L 356.072727 353.603448 
L 360.130909 352.8036 
L 364.189091 351.99468 
L 368.247273 351.173664 
L 372.305455 350.342064 
L 376.363636 349.49988 
L 380.421818 348.647112 
L 384.48 347.785272 
L 388.538182 346.912848 
L 392.596364 346.02984 
L 396.654545 345.136248 
L 400.712727 344.233584 
L 404.770909 343.320336 
L 408.829091 342.398016 
L 412.887273 341.466624 
L 416.945455 340.524648 
L 421.003636 339.5736 
L 425.061818 338.61348 
L 429.12 337.642776 
L 433.178182 336.664512 
L 437.236364 335.677176 
L 441.294545 334.680768 
L 445.352727 333.6768 
L 449.410909 332.66376 
L 453.469091 331.641648 
L 457.527273 330.611976 
L 461.585455 329.574744 
L 465.643636 328.529952 
L 469.701818 327.4776 
L 473.76 326.4192 
L 477.818182 325.354752 
L 481.876364 324.284256 
L 485.934545 323.21376 
L 489.992727 322.1478 
L 494.050909 321.122664 
L 498.109091 320.46948 
" clip-path="url(#p83ecd2ccff)" style="fill: none; stroke: #000000; stroke-opacity: 0.5; stroke-linecap: square"/>
   </g>
   <g id="line2d_17">
    <path d="M 92.290909 212.925456 
L 96.349091 213.037344 
L 100.407273 213.354864 
L 104.465455 213.829632 
L 108.523636 214.419312 
L 112.581818 215.09064 
L 116.64 215.822448 
L 120.698182 216.601128 
L 124.756364 217.416096 
L 128.814545 218.261304 
L 132.872727 219.130704 
L 136.930909 220.022784 
L 140.989091 220.931496 
L 145.047273 221.85684 
L 149.105455 222.795792 
L 153.163636 223.748352 
L 157.221818 224.709984 
L 161.28 225.683712 
L 165.338182 226.665 
L 169.396364 227.653848 
L 173.454545 228.650256 
L 177.512727 229.654224 
L 181.570909 230.66424 
L 185.629091 231.680304 
L 189.687273 232.700904 
L 193.745455 233.727552 
L 197.803636 234.758736 
L 201.861818 235.795968 
L 205.92 236.836224 
L 209.978182 237.882528 
L 214.036364 238.933368 
L 218.094545 239.987232 
L 222.152727 241.047144 
L 226.210909 242.111592 
L 230.269091 243.179064 
L 234.327273 244.252584 
L 238.385455 245.33064 
L 242.443636 246.41172 
L 246.501818 247.498848 
L 250.56 248.590512 
L 254.618182 249.686712 
L 258.676364 250.78896 
L 262.734545 251.894232 
L 266.792727 253.005552 
L 270.850909 254.121408 
L 274.909091 255.2418 
L 278.967273 256.36824 
L 283.025455 257.499216 
L 287.083636 258.634728 
L 291.141818 259.774776 
L 295.2 260.91936 
L 299.258182 262.069992 
L 303.316364 263.223648 
L 307.374545 264.383352 
L 311.432727 265.54608 
L 315.490909 266.713344 
L 319.549091 267.885144 
L 323.607273 269.059968 
L 327.665455 270.237816 
L 331.723636 271.4202 
L 335.781818 272.60712 
L 339.84 273.795552 
L 343.898182 274.987008 
L 347.956364 276.181488 
L 352.014545 277.37748 
L 356.072727 278.576496 
L 360.130909 279.777024 
L 364.189091 280.979064 
L 368.247273 282.182616 
L 372.305455 283.386168 
L 376.363636 284.592744 
L 380.421818 285.797808 
L 384.48 287.004384 
L 388.538182 288.21096 
L 392.596364 289.416024 
L 396.654545 290.6226 
L 400.712727 291.826152 
L 404.770909 293.029704 
L 408.829091 294.233256 
L 412.887273 295.433784 
L 416.945455 296.631288 
L 421.003636 297.828792 
L 425.061818 299.023272 
L 429.12 300.214728 
L 433.178182 301.40316 
L 437.236364 302.588568 
L 441.294545 303.770952 
L 445.352727 304.9488 
L 449.410909 306.123624 
L 453.469091 307.2924 
L 457.527273 308.458152 
L 461.585455 309.619368 
L 465.643636 310.774536 
L 469.701818 311.923656 
L 473.76 313.06824 
L 477.818182 314.203752 
L 481.876364 315.333216 
L 485.934545 316.450584 
L 489.992727 317.548296 
L 494.050909 318.593088 
L 498.109091 319.25232 
" clip-path="url(#p83ecd2ccff)" style="fill: none; stroke: #000000; stroke-opacity: 0.5; stroke-linecap: square"/>
   </g>
   <g id="line2d_18">
    <path d="M 92.290909 208.495296 
L 96.349091 208.434816 
L 100.407273 208.27908 
L 104.465455 208.087056 
L 108.523636 207.93132 
L 112.581818 207.8784 
L 116.64 207.958536 
L 120.698182 208.159632 
L 124.756364 208.449936 
L 128.814545 208.806768 
L 132.872727 209.21652 
L 136.930909 209.668608 
L 140.989091 210.158496 
L 145.047273 210.678624 
L 149.105455 211.225968 
L 153.163636 211.799016 
L 157.221818 212.39172 
L 161.28 213.00408 
L 165.338182 213.63156 
L 169.396364 214.272648 
L 173.454545 214.925832 
L 177.512727 215.588088 
L 181.570909 216.260928 
L 185.629091 216.939816 
L 189.687273 217.624752 
L 193.745455 218.314224 
L 197.803636 219.00672 
L 201.861818 219.70224 
L 205.92 220.39776 
L 209.978182 221.096304 
L 214.036364 221.793336 
L 218.094545 222.490368 
L 222.152727 223.185888 
L 226.210909 223.878384 
L 230.269091 224.569368 
L 234.327273 225.25884 
L 238.385455 225.942264 
L 242.443636 226.624176 
L 246.501818 227.301552 
L 250.56 227.97288 
L 254.618182 228.641184 
L 258.676364 229.30344 
L 262.734545 229.96116 
L 266.792727 230.612832 
L 270.850909 231.258456 
L 274.909091 231.898032 
L 278.967273 232.53156 
L 283.025455 233.157528 
L 287.083636 233.777448 
L 291.141818 234.389808 
L 295.2 234.99612 
L 299.258182 235.59336 
L 303.316364 236.18304 
L 307.374545 236.76516 
L 311.432727 237.338208 
L 315.490909 237.903696 
L 319.549091 238.4586 
L 323.607273 239.005944 
L 327.665455 239.542704 
L 331.723636 240.070392 
L 335.781818 240.589008 
L 339.84 241.09704 
L 343.898182 241.594488 
L 347.956364 242.07984 
L 352.014545 242.55612 
L 356.072727 243.020304 
L 360.130909 243.473904 
L 364.189091 243.915408 
L 368.247273 244.346328 
L 372.305455 244.76364 
L 376.363636 245.170368 
L 380.421818 245.563488 
L 384.48 245.944512 
L 388.538182 246.31344 
L 392.596364 246.670272 
L 396.654545 247.013496 
L 400.712727 247.344624 
L 404.770909 247.662144 
L 408.829091 247.967568 
L 412.887273 248.257872 
L 416.945455 248.537592 
L 421.003636 248.802192 
L 425.061818 249.053184 
L 429.12 249.29208 
L 433.178182 249.517368 
L 437.236364 249.729048 
L 441.294545 249.92712 
L 445.352727 250.111584 
L 449.410909 250.28244 
L 453.469091 250.439688 
L 457.527273 250.583328 
L 461.585455 250.71336 
L 465.643636 250.829784 
L 469.701818 250.9326 
L 473.76 251.021808 
L 477.818182 251.097408 
L 481.876364 251.1594 
L 485.934545 251.207784 
L 489.992727 251.241048 
L 494.050909 251.262216 
L 498.109091 251.268264 
" clip-path="url(#p83ecd2ccff)" style="fill: none; stroke: #000000; stroke-opacity: 0.5; stroke-linecap: square"/>
   </g>
   <g id="line2d_19">
    <path d="M 92.290909 206.195544 
L 96.349091 206.20764 
L 100.407273 206.243928 
L 104.465455 206.286264 
L 108.523636 206.308944 
L 112.581818 206.277192 
L 116.64 206.178912 
L 120.698182 206.04132 
L 124.756364 205.900704 
L 128.814545 205.787304 
L 132.872727 205.714728 
L 136.930909 205.696584 
L 140.989091 205.734384 
L 145.047273 205.834176 
L 149.105455 205.997472 
L 153.163636 206.221248 
L 157.221818 206.503992 
L 161.28 206.847216 
L 165.338182 207.24336 
L 169.396364 207.690912 
L 173.454545 208.186848 
L 177.512727 208.726632 
L 181.570909 209.304216 
L 185.629091 209.9196 
L 189.687273 210.565224 
L 193.745455 211.239576 
L 197.803636 211.93812 
L 201.861818 212.657832 
L 205.92 213.395688 
L 209.978182 214.148664 
L 214.036364 214.913736 
L 218.094545 215.689392 
L 222.152727 216.471096 
L 226.210909 217.26036 
L 230.269091 218.051136 
L 234.327273 218.844936 
L 238.385455 219.638736 
L 242.443636 220.429512 
L 246.501818 221.218776 
L 250.56 222.003504 
L 254.618182 222.782184 
L 258.676364 223.554816 
L 262.734545 224.319888 
L 266.792727 225.075888 
L 270.850909 225.822816 
L 274.909091 226.55916 
L 278.967273 227.28492 
L 283.025455 228.000096 
L 287.083636 228.701664 
L 291.141818 229.391136 
L 295.2 230.068512 
L 299.258182 230.73228 
L 303.316364 231.38244 
L 307.374545 232.018992 
L 311.432727 232.641936 
L 315.490909 233.24976 
L 319.549091 233.843976 
L 323.607273 234.423072 
L 327.665455 234.98856 
L 331.723636 235.538928 
L 335.781818 236.074176 
L 339.84 236.595816 
L 343.898182 237.103848 
L 347.956364 237.59676 
L 352.014545 238.076064 
L 356.072727 238.540248 
L 360.130909 238.990824 
L 364.189091 239.42628 
L 368.247273 239.84964 
L 372.305455 240.25788 
L 376.363636 240.652512 
L 380.421818 241.033536 
L 384.48 241.400952 
L 388.538182 241.756272 
L 392.596364 242.096472 
L 396.654545 242.423064 
L 400.712727 242.73756 
L 404.770909 243.038448 
L 408.829091 243.325728 
L 412.887273 243.600912 
L 416.945455 243.862488 
L 421.003636 244.110456 
L 425.061818 244.346328 
L 429.12 244.568592 
L 433.178182 244.77876 
L 437.236364 244.97532 
L 441.294545 245.159784 
L 445.352727 245.33064 
L 449.410909 245.4894 
L 453.469091 245.634552 
L 457.527273 245.767608 
L 461.585455 245.888568 
L 465.643636 245.99592 
L 469.701818 246.091176 
L 473.76 246.172824 
L 477.818182 246.242376 
L 481.876364 246.299832 
L 485.934545 246.34368 
L 489.992727 246.375432 
L 494.050909 246.393576 
L 498.109091 246.399624 
" clip-path="url(#p83ecd2ccff)" style="fill: none; stroke: #000000; stroke-opacity: 0.5; stroke-linecap: square"/>
   </g>
   <g id="line2d_20">
    <path d="M 92.290909 166.879008 
L 96.349091 166.85028 
L 100.407273 166.762584 
L 104.465455 166.621968 
L 108.523636 166.428432 
L 112.581818 166.189536 
L 116.64 165.914352 
L 120.698182 165.619512 
L 124.756364 165.321648 
L 128.814545 165.054024 
L 132.872727 164.840832 
L 136.930909 164.69568 
L 140.989091 164.607984 
L 145.047273 164.570184 
L 149.105455 164.588328 
L 153.163636 164.674512 
L 157.221818 164.834784 
L 161.28 165.063096 
L 165.338182 165.350376 
L 169.396364 165.683016 
L 173.454545 166.050432 
L 177.512727 166.448088 
L 181.570909 166.866912 
L 185.629091 167.306904 
L 189.687273 167.762016 
L 193.745455 168.230736 
L 197.803636 168.711552 
L 201.861818 169.199928 
L 205.92 169.697376 
L 209.978182 170.200872 
L 214.036364 170.708904 
L 218.094545 171.221472 
L 222.152727 171.735552 
L 226.210909 172.252656 
L 230.269091 172.76976 
L 234.327273 173.288376 
L 238.385455 173.80548 
L 242.443636 174.321072 
L 246.501818 174.83364 
L 250.56 175.344696 
L 254.618182 175.851216 
L 258.676364 176.354712 
L 262.734545 176.853672 
L 266.792727 177.348096 
L 270.850909 177.836472 
L 274.909091 178.3188 
L 278.967273 178.79508 
L 283.025455 179.2638 
L 287.083636 179.726472 
L 291.141818 180.181584 
L 295.2 180.627624 
L 299.258182 181.067616 
L 303.316364 181.497024 
L 307.374545 181.918872 
L 311.432727 182.331648 
L 315.490909 182.73384 
L 319.549091 183.128472 
L 323.607273 183.51252 
L 327.665455 183.885984 
L 331.723636 184.248864 
L 335.781818 184.602672 
L 339.84 184.944384 
L 343.898182 185.277024 
L 347.956364 185.597568 
L 352.014545 185.906016 
L 356.072727 186.205392 
L 360.130909 186.49116 
L 364.189091 186.766344 
L 368.247273 187.030944 
L 372.305455 187.281936 
L 376.363636 187.522344 
L 380.421818 187.750656 
L 384.48 187.966872 
L 388.538182 188.170992 
L 392.596364 188.363016 
L 396.654545 188.542944 
L 400.712727 188.710776 
L 404.770909 188.866512 
L 408.829091 189.011664 
L 412.887273 189.143208 
L 416.945455 189.264168 
L 421.003636 189.373032 
L 425.061818 189.4698 
L 429.12 189.557496 
L 433.178182 189.633096 
L 437.236364 189.698112 
L 441.294545 189.752544 
L 445.352727 189.797904 
L 449.410909 189.835704 
L 453.469091 189.864432 
L 457.527273 189.884088 
L 461.585455 189.899208 
L 465.643636 189.90828 
L 469.701818 189.911304 
L 473.76 189.911304 
L 477.818182 189.909792 
L 481.876364 189.905256 
L 485.934545 189.902232 
L 489.992727 189.897696 
L 494.050909 189.896184 
L 498.109091 189.894672 
" clip-path="url(#p83ecd2ccff)" style="fill: none; stroke: #000000; stroke-opacity: 0.5; stroke-linecap: square"/>
   </g>
   <g id="line2d_21">
    <path d="M 92.290909 161.579448 
L 96.349091 161.720064 
L 100.407273 161.968032 
L 104.465455 162.23868 
L 108.523636 162.509328 
L 112.581818 162.761832 
L 116.64 162.982584 
L 120.698182 163.156464 
L 124.756364 163.263816 
L 128.814545 163.28952 
L 132.872727 163.227528 
L 136.930909 163.099008 
L 140.989091 162.94932 
L 145.047273 162.807192 
L 149.105455 162.660528 
L 153.163636 162.47304 
L 157.221818 162.216 
L 161.28 161.878824 
L 165.338182 161.463024 
L 169.396364 160.977672 
L 173.454545 160.425792 
L 177.512727 159.816456 
L 181.570909 159.1542 
L 185.629091 158.445072 
L 189.687273 157.69512 
L 193.745455 156.907368 
L 197.803636 156.087864 
L 201.861818 155.241144 
L 205.92 154.370232 
L 209.978182 153.481176 
L 214.036364 152.580024 
L 218.094545 151.672824 
L 222.152727 150.765624 
L 226.210909 149.869008 
L 230.269091 148.995072 
L 234.327273 148.160448 
L 238.385455 147.387816 
L 242.443636 146.71044 
L 246.501818 146.169144 
L 250.56 145.812312 
L 254.618182 145.683792 
L 258.676364 145.801728 
L 262.734545 146.151 
L 266.792727 146.692296 
L 270.850909 147.378744 
L 274.909091 148.172544 
L 278.967273 149.03892 
L 283.025455 149.956704 
L 287.083636 150.909264 
L 291.141818 151.884504 
L 295.2 152.874864 
L 299.258182 153.871272 
L 303.316364 154.872216 
L 307.374545 155.871648 
L 311.432727 156.866544 
L 315.490909 157.855392 
L 319.549091 158.835168 
L 323.607273 159.805872 
L 327.665455 160.76448 
L 331.723636 161.710992 
L 335.781818 162.643896 
L 339.84 163.56168 
L 343.898182 164.464344 
L 347.956364 165.351888 
L 352.014545 166.221288 
L 356.072727 167.075568 
L 360.130909 167.911704 
L 364.189091 168.731208 
L 368.247273 169.532568 
L 372.305455 170.314272 
L 376.363636 171.077832 
L 380.421818 171.823248 
L 384.48 172.549008 
L 388.538182 173.255112 
L 392.596364 173.943072 
L 396.654545 174.609864 
L 400.712727 175.257 
L 404.770909 175.882968 
L 408.829091 176.490792 
L 412.887273 177.075936 
L 416.945455 177.639912 
L 421.003636 178.184232 
L 425.061818 178.705872 
L 429.12 179.206344 
L 433.178182 179.684136 
L 437.236364 180.139248 
L 441.294545 180.570168 
L 445.352727 180.978408 
L 449.410909 181.360944 
L 453.469091 181.719288 
L 457.527273 182.051928 
L 461.585455 182.357352 
L 465.643636 182.63556 
L 469.701818 182.883528 
L 473.76 183.102768 
L 477.818182 183.290256 
L 481.876364 183.445992 
L 485.934545 183.566952 
L 489.992727 183.654648 
L 494.050909 183.707568 
L 498.109091 183.725712 
" clip-path="url(#p83ecd2ccff)" style="fill: none; stroke: #000000; stroke-opacity: 0.5; stroke-linecap: square"/>
   </g>
   <g id="line2d_22">
    <path d="M 92.290909 161.264952 
L 96.349091 161.154576 
L 100.407273 160.994304 
L 104.465455 160.861248 
L 108.523636 160.767504 
L 112.581818 160.710048 
L 116.64 160.685856 
L 120.698182 160.684344 
L 124.756364 160.693416 
L 128.814545 160.693416 
L 132.872727 160.654104 
L 136.930909 160.539192 
L 140.989091 160.309368 
L 145.047273 159.94044 
L 149.105455 159.44148 
L 153.163636 158.835168 
L 157.221818 158.144184 
L 161.28 157.389696 
L 165.338182 156.582288 
L 169.396364 155.732544 
L 173.454545 154.846512 
L 177.512727 153.928728 
L 181.570909 152.982216 
L 185.629091 152.011512 
L 189.687273 151.018128 
L 193.745455 150.003576 
L 197.803636 148.97088 
L 201.861818 147.921552 
L 205.92 146.855592 
L 209.978182 145.773 
L 214.036364 144.678312 
L 218.094545 143.570016 
L 222.152727 142.449624 
L 226.210909 141.317136 
L 230.269091 140.174064 
L 234.327273 139.02192 
L 238.385455 137.859192 
L 242.443636 136.690416 
L 246.501818 135.550368 
L 250.56 135.455112 
L 254.618182 135.48384 
L 258.676364 135.282744 
L 262.734545 134.854848 
L 266.792727 134.237952 
L 270.850909 133.474392 
L 274.909091 132.600456 
L 278.967273 131.646384 
L 283.025455 130.631832 
L 287.083636 129.573432 
L 291.141818 128.481768 
L 295.2 127.362888 
L 299.258182 126.221328 
L 303.316364 125.064648 
L 307.374545 123.891336 
L 311.432727 122.70744 
L 315.490909 121.51296 
L 319.549091 120.309408 
L 323.607273 119.098296 
L 327.665455 117.881136 
L 331.723636 116.656416 
L 335.781818 115.42716 
L 339.84 114.193368 
L 343.898182 112.953528 
L 347.956364 111.709152 
L 352.014545 110.461752 
L 356.072727 109.209816 
L 360.130909 107.953344 
L 364.189091 106.693848 
L 368.247273 105.429816 
L 372.305455 104.16276 
L 376.363636 102.89268 
L 380.421818 101.618064 
L 384.48 100.340424 
L 388.538182 99.058248 
L 392.596364 97.77456 
L 396.654545 96.484824 
L 400.712727 95.193576 
L 404.770909 93.897792 
L 408.829091 92.600496 
L 412.887273 91.298664 
L 416.945455 89.992296 
L 421.003636 88.684416 
L 425.061818 87.373512 
L 429.12 86.059584 
L 433.178182 84.744144 
L 437.236364 83.42568 
L 441.294545 82.105704 
L 445.352727 80.785728 
L 449.410909 79.465752 
L 453.469091 78.145776 
L 457.527273 76.827312 
L 461.585455 75.513384 
L 465.643636 74.205504 
L 469.701818 72.905184 
L 473.76 71.619984 
L 477.818182 70.35444 
L 481.876364 69.117624 
L 485.934545 67.929192 
L 489.992727 66.822408 
L 494.050909 65.889504 
L 498.109091 65.449512 
" clip-path="url(#p83ecd2ccff)" style="fill: none; stroke: #000000; stroke-opacity: 0.5; stroke-linecap: square"/>
   </g>
   <g id="line2d_23">
    <path d="M 92.290909 149.46228 
L 96.349091 149.397264 
L 100.407273 149.202216 
L 104.465455 148.883184 
L 108.523636 148.450752 
L 112.581818 147.917016 
L 116.64 147.291048 
L 120.698182 146.587968 
L 124.756364 145.81836 
L 128.814545 144.992808 
L 132.872727 144.121896 
L 136.930909 143.214696 
L 140.989091 142.278768 
L 145.047273 141.323184 
L 149.105455 140.353992 
L 153.163636 139.380264 
L 157.221818 138.408048 
L 161.28 137.447928 
L 165.338182 136.507464 
L 169.396364 135.59724 
L 173.454545 134.72784 
L 177.512727 133.912872 
L 181.570909 133.164432 
L 185.629091 132.499152 
L 189.687273 131.932152 
L 193.745455 131.478552 
L 197.803636 131.150448 
L 201.861818 130.959936 
L 205.92 130.91004 
L 209.978182 131.00076 
L 214.036364 131.223024 
L 218.094545 131.564736 
L 222.152727 132.004728 
L 226.210909 132.52032 
L 230.269091 133.088832 
L 234.327273 133.677 
L 238.385455 134.25156 
L 242.443636 134.767152 
L 246.501818 135.139104 
L 250.56 134.293896 
L 254.618182 133.10244 
L 258.676364 131.898888 
L 262.734545 130.686264 
L 266.792727 129.464568 
L 270.850909 128.236824 
L 274.909091 127.00152 
L 278.967273 125.760168 
L 283.025455 124.511256 
L 287.083636 123.257808 
L 291.141818 121.9968 
L 295.2 120.729744 
L 299.258182 119.458152 
L 303.316364 118.180512 
L 307.374545 116.896824 
L 311.432727 115.607088 
L 315.490909 114.312816 
L 319.549091 113.014008 
L 323.607273 111.709152 
L 327.665455 110.39976 
L 331.723636 109.085832 
L 335.781818 107.767368 
L 339.84 106.442856 
L 343.898182 105.11532 
L 347.956364 103.781736 
L 352.014545 102.445128 
L 356.072727 101.103984 
L 360.130909 99.759816 
L 364.189091 98.4096 
L 368.247273 97.057872 
L 372.305455 95.701608 
L 376.363636 94.340808 
L 380.421818 92.976984 
L 384.48 91.610136 
L 388.538182 90.241776 
L 392.596364 88.86888 
L 396.654545 87.494472 
L 400.712727 86.118552 
L 404.770909 84.739608 
L 408.829091 83.359152 
L 412.887273 81.980208 
L 416.945455 80.599752 
L 421.003636 79.219296 
L 425.061818 77.841864 
L 429.12 76.467456 
L 433.178182 75.099096 
L 437.236364 73.735272 
L 441.294545 72.383544 
L 445.352727 71.045424 
L 449.410909 69.725448 
L 453.469091 68.4342 
L 457.527273 67.17924 
L 461.585455 65.980224 
L 465.643636 64.859832 
L 469.701818 63.855864 
L 473.76 63.019728 
L 477.818182 62.420976 
L 481.876364 62.127648 
L 485.934545 62.173008 
L 489.992727 62.519256 
L 494.050909 63.024264 
L 498.109091 63.328176 
" clip-path="url(#p83ecd2ccff)" style="fill: none; stroke: #000000; stroke-opacity: 0.5; stroke-linecap: square"/>
   </g>
   <g id="patch_3">
    <path d="M 72 384.48 
L 72 51.84 
" style="fill: none; stroke: #000000; stroke-width: 0.8; stroke-linejoin: miter; stroke-linecap: square"/>
   </g>
   <g id="patch_4">
    <path d="M 518.4 384.48 
L 518.4 51.84 
" style="fill: none; stroke: #000000; stroke-width: 0.8; stroke-linejoin: miter; stroke-linecap: square"/>
   </g>
   <g id="patch_5">
    <path d="M 72 384.48 
L 518.4 384.48 
" style="fill: none; stroke: #000000; stroke-width: 0.8; stroke-linejoin: miter; stroke-linecap: square"/>
   </g>
   <g id="patch_6">
    <path d="M 72 51.84 
L 518.4 51.84 
" style="fill: none; stroke: #000000; stroke-width: 0.8; stroke-linejoin: miter; stroke-linecap: square"/>
   </g>
  </g>
 </g>
 <defs>
  <clipPath id="p83ecd2ccff">
   <rect x="72" y="51.84" width="446.4" height="332.64"/>
  </clipPath>
 </defs>
</svg>
