<?xml version="1.0" encoding="utf-8" standalone="no"?>
<!DOCTYPE svg PUBLIC "-//W3C//DTD SVG 1.1//EN"
  "http://www.w3.org/Graphics/SVG/1.1/DTD/svg11.dtd">
<svg xmlns:xlink="http://www.w3.org/1999/xlink" width="576pt" height="432pt" viewBox="0 0 576 432" xmlns="http://www.w3.org/2000/svg" version="1.1">
 <metadata>
  <rdf:RDF xmlns:dc="http://purl.org/dc/elements/1.1/" xmlns:cc="http://creativecommons.org/ns#" xmlns:rdf="http://www.w3.org/1999/02/22-rdf-syntax-ns#">
   <cc:Work>
    <dc:type rdf:resource="http://purl.org/dc/dcmitype/StillImage"/>
    <dc:date>2023-05-04T09:49:41.403997</dc:date>
    <dc:format>image/svg+xml</dc:format>
    <dc:creator>
     <cc:Agent>
      <dc:title>Matplotlib v3.7.1, https://matplotlib.org/</dc:title>
     </cc:Agent>
    </dc:creator>
   </cc:Work>
  </rdf:RDF>
 </metadata>
 <defs>
  <style type="text/css">*{stroke-linejoin: round; stroke-linecap: butt}</style>
 </defs>
 <g id="figure_1">
  <g id="patch_1">
   <path d="M 0 432 
L 576 432 
L 576 0 
L 0 0 
z
" style="fill: #ffffff"/>
  </g>
  <g id="axes_1">
   <g id="patch_2">
    <path d="M 72 384.48 
L 518.4 384.48 
L 518.4 51.84 
L 72 51.84 
z
" style="fill: #ffffff"/>
   </g>
   <g id="matplotlib.axis_1">
    <g id="xtick_1">
     <g id="line2d_1">
      <defs>
       <path id="m8d5b813577" d="M 0 0 
L 0 3.5 
" style="stroke: #000000; stroke-width: 0.8"/>
      </defs>
      <g>
       <use xlink:href="#m8d5b813577" x="92.290909" y="384.48" style="stroke: #000000; stroke-width: 0.8"/>
      </g>
     </g>
     <g id="text_1">
      <!-- 0.0 -->
      <g transform="translate(84.339347 399.078438) scale(0.1 -0.1)">
       <defs>
        <path id="DejaVuSans-30" d="M 2034 4250 
Q 1547 4250 1301 3770 
Q 1056 3291 1056 2328 
Q 1056 1369 1301 889 
Q 1547 409 2034 409 
Q 2525 409 2770 889 
Q 3016 1369 3016 2328 
Q 3016 3291 2770 3770 
Q 2525 4250 2034 4250 
z
M 2034 4750 
Q 2819 4750 3233 4129 
Q 3647 3509 3647 2328 
Q 3647 1150 3233 529 
Q 2819 -91 2034 -91 
Q 1250 -91 836 529 
Q 422 1150 422 2328 
Q 422 3509 836 4129 
Q 1250 4750 2034 4750 
z
" transform="scale(0.015625)"/>
        <path id="DejaVuSans-2e" d="M 684 794 
L 1344 794 
L 1344 0 
L 684 0 
L 684 794 
z
" transform="scale(0.015625)"/>
       </defs>
       <use xlink:href="#DejaVuSans-30"/>
       <use xlink:href="#DejaVuSans-2e" x="63.623047"/>
       <use xlink:href="#DejaVuSans-30" x="95.410156"/>
      </g>
     </g>
    </g>
    <g id="xtick_2">
     <g id="line2d_2">
      <g>
       <use xlink:href="#m8d5b813577" x="173.454545" y="384.48" style="stroke: #000000; stroke-width: 0.8"/>
      </g>
     </g>
     <g id="text_2">
      <!-- 0.2 -->
      <g transform="translate(165.502983 399.078438) scale(0.1 -0.1)">
       <defs>
        <path id="DejaVuSans-32" d="M 1228 531 
L 3431 531 
L 3431 0 
L 469 0 
L 469 531 
Q 828 903 1448 1529 
Q 2069 2156 2228 2338 
Q 2531 2678 2651 2914 
Q 2772 3150 2772 3378 
Q 2772 3750 2511 3984 
Q 2250 4219 1831 4219 
Q 1534 4219 1204 4116 
Q 875 4013 500 3803 
L 500 4441 
Q 881 4594 1212 4672 
Q 1544 4750 1819 4750 
Q 2544 4750 2975 4387 
Q 3406 4025 3406 3419 
Q 3406 3131 3298 2873 
Q 3191 2616 2906 2266 
Q 2828 2175 2409 1742 
Q 1991 1309 1228 531 
z
" transform="scale(0.015625)"/>
       </defs>
       <use xlink:href="#DejaVuSans-30"/>
       <use xlink:href="#DejaVuSans-2e" x="63.623047"/>
       <use xlink:href="#DejaVuSans-32" x="95.410156"/>
      </g>
     </g>
    </g>
    <g id="xtick_3">
     <g id="line2d_3">
      <g>
       <use xlink:href="#m8d5b813577" x="254.618182" y="384.48" style="stroke: #000000; stroke-width: 0.8"/>
      </g>
     </g>
     <g id="text_3">
      <!-- 0.4 -->
      <g transform="translate(246.666619 399.078438) scale(0.1 -0.1)">
       <defs>
        <path id="DejaVuSans-34" d="M 2419 4116 
L 825 1625 
L 2419 1625 
L 2419 4116 
z
M 2253 4666 
L 3047 4666 
L 3047 1625 
L 3713 1625 
L 3713 1100 
L 3047 1100 
L 3047 0 
L 2419 0 
L 2419 1100 
L 313 1100 
L 313 1709 
L 2253 4666 
z
" transform="scale(0.015625)"/>
       </defs>
       <use xlink:href="#DejaVuSans-30"/>
       <use xlink:href="#DejaVuSans-2e" x="63.623047"/>
       <use xlink:href="#DejaVuSans-34" x="95.410156"/>
      </g>
     </g>
    </g>
    <g id="xtick_4">
     <g id="line2d_4">
      <g>
       <use xlink:href="#m8d5b813577" x="335.781818" y="384.48" style="stroke: #000000; stroke-width: 0.8"/>
      </g>
     </g>
     <g id="text_4">
      <!-- 0.6 -->
      <g transform="translate(327.830256 399.078438) scale(0.1 -0.1)">
       <defs>
        <path id="DejaVuSans-36" d="M 2113 2584 
Q 1688 2584 1439 2293 
Q 1191 2003 1191 1497 
Q 1191 994 1439 701 
Q 1688 409 2113 409 
Q 2538 409 2786 701 
Q 3034 994 3034 1497 
Q 3034 2003 2786 2293 
Q 2538 2584 2113 2584 
z
M 3366 4563 
L 3366 3988 
Q 3128 4100 2886 4159 
Q 2644 4219 2406 4219 
Q 1781 4219 1451 3797 
Q 1122 3375 1075 2522 
Q 1259 2794 1537 2939 
Q 1816 3084 2150 3084 
Q 2853 3084 3261 2657 
Q 3669 2231 3669 1497 
Q 3669 778 3244 343 
Q 2819 -91 2113 -91 
Q 1303 -91 875 529 
Q 447 1150 447 2328 
Q 447 3434 972 4092 
Q 1497 4750 2381 4750 
Q 2619 4750 2861 4703 
Q 3103 4656 3366 4563 
z
" transform="scale(0.015625)"/>
       </defs>
       <use xlink:href="#DejaVuSans-30"/>
       <use xlink:href="#DejaVuSans-2e" x="63.623047"/>
       <use xlink:href="#DejaVuSans-36" x="95.410156"/>
      </g>
     </g>
    </g>
    <g id="xtick_5">
     <g id="line2d_5">
      <g>
       <use xlink:href="#m8d5b813577" x="416.945455" y="384.48" style="stroke: #000000; stroke-width: 0.8"/>
      </g>
     </g>
     <g id="text_5">
      <!-- 0.8 -->
      <g transform="translate(408.993892 399.078438) scale(0.1 -0.1)">
       <defs>
        <path id="DejaVuSans-38" d="M 2034 2216 
Q 1584 2216 1326 1975 
Q 1069 1734 1069 1313 
Q 1069 891 1326 650 
Q 1584 409 2034 409 
Q 2484 409 2743 651 
Q 3003 894 3003 1313 
Q 3003 1734 2745 1975 
Q 2488 2216 2034 2216 
z
M 1403 2484 
Q 997 2584 770 2862 
Q 544 3141 544 3541 
Q 544 4100 942 4425 
Q 1341 4750 2034 4750 
Q 2731 4750 3128 4425 
Q 3525 4100 3525 3541 
Q 3525 3141 3298 2862 
Q 3072 2584 2669 2484 
Q 3125 2378 3379 2068 
Q 3634 1759 3634 1313 
Q 3634 634 3220 271 
Q 2806 -91 2034 -91 
Q 1263 -91 848 271 
Q 434 634 434 1313 
Q 434 1759 690 2068 
Q 947 2378 1403 2484 
z
M 1172 3481 
Q 1172 3119 1398 2916 
Q 1625 2713 2034 2713 
Q 2441 2713 2670 2916 
Q 2900 3119 2900 3481 
Q 2900 3844 2670 4047 
Q 2441 4250 2034 4250 
Q 1625 4250 1398 4047 
Q 1172 3844 1172 3481 
z
" transform="scale(0.015625)"/>
       </defs>
       <use xlink:href="#DejaVuSans-30"/>
       <use xlink:href="#DejaVuSans-2e" x="63.623047"/>
       <use xlink:href="#DejaVuSans-38" x="95.410156"/>
      </g>
     </g>
    </g>
    <g id="xtick_6">
     <g id="line2d_6">
      <g>
       <use xlink:href="#m8d5b813577" x="498.109091" y="384.48" style="stroke: #000000; stroke-width: 0.8"/>
      </g>
     </g>
     <g id="text_6">
      <!-- 1.0 -->
      <g transform="translate(490.157528 399.078438) scale(0.1 -0.1)">
       <defs>
        <path id="DejaVuSans-31" d="M 794 531 
L 1825 531 
L 1825 4091 
L 703 3866 
L 703 4441 
L 1819 4666 
L 2450 4666 
L 2450 531 
L 3481 531 
L 3481 0 
L 794 0 
L 794 531 
z
" transform="scale(0.015625)"/>
       </defs>
       <use xlink:href="#DejaVuSans-31"/>
       <use xlink:href="#DejaVuSans-2e" x="63.623047"/>
       <use xlink:href="#DejaVuSans-30" x="95.410156"/>
      </g>
     </g>
    </g>
   </g>
   <g id="matplotlib.axis_2">
    <g id="ytick_1">
     <g id="line2d_7">
      <defs>
       <path id="mf12e467ebe" d="M 0 0 
L -3.5 0 
" style="stroke: #000000; stroke-width: 0.8"/>
      </defs>
      <g>
       <use xlink:href="#mf12e467ebe" x="72" y="369.36" style="stroke: #000000; stroke-width: 0.8"/>
      </g>
     </g>
     <g id="text_7">
      <!-- −5.0 -->
      <g transform="translate(40.717187 373.159219) scale(0.1 -0.1)">
       <defs>
        <path id="DejaVuSans-2212" d="M 678 2272 
L 4684 2272 
L 4684 1741 
L 678 1741 
L 678 2272 
z
" transform="scale(0.015625)"/>
        <path id="DejaVuSans-35" d="M 691 4666 
L 3169 4666 
L 3169 4134 
L 1269 4134 
L 1269 2991 
Q 1406 3038 1543 3061 
Q 1681 3084 1819 3084 
Q 2600 3084 3056 2656 
Q 3513 2228 3513 1497 
Q 3513 744 3044 326 
Q 2575 -91 1722 -91 
Q 1428 -91 1123 -41 
Q 819 9 494 109 
L 494 744 
Q 775 591 1075 516 
Q 1375 441 1709 441 
Q 2250 441 2565 725 
Q 2881 1009 2881 1497 
Q 2881 1984 2565 2268 
Q 2250 2553 1709 2553 
Q 1456 2553 1204 2497 
Q 953 2441 691 2322 
L 691 4666 
z
" transform="scale(0.015625)"/>
       </defs>
       <use xlink:href="#DejaVuSans-2212"/>
       <use xlink:href="#DejaVuSans-35" x="83.789062"/>
       <use xlink:href="#DejaVuSans-2e" x="147.412109"/>
       <use xlink:href="#DejaVuSans-30" x="179.199219"/>
      </g>
     </g>
    </g>
    <g id="ytick_2">
     <g id="line2d_8">
      <g>
       <use xlink:href="#mf12e467ebe" x="72" y="331.56" style="stroke: #000000; stroke-width: 0.8"/>
      </g>
     </g>
     <g id="text_8">
      <!-- −2.5 -->
      <g transform="translate(40.717187 335.359219) scale(0.1 -0.1)">
       <use xlink:href="#DejaVuSans-2212"/>
       <use xlink:href="#DejaVuSans-32" x="83.789062"/>
       <use xlink:href="#DejaVuSans-2e" x="147.412109"/>
       <use xlink:href="#DejaVuSans-35" x="179.199219"/>
      </g>
     </g>
    </g>
    <g id="ytick_3">
     <g id="line2d_9">
      <g>
       <use xlink:href="#mf12e467ebe" x="72" y="293.76" style="stroke: #000000; stroke-width: 0.8"/>
      </g>
     </g>
     <g id="text_9">
      <!-- 0.0 -->
      <g transform="translate(49.096875 297.559219) scale(0.1 -0.1)">
       <use xlink:href="#DejaVuSans-30"/>
       <use xlink:href="#DejaVuSans-2e" x="63.623047"/>
       <use xlink:href="#DejaVuSans-30" x="95.410156"/>
      </g>
     </g>
    </g>
    <g id="ytick_4">
     <g id="line2d_10">
      <g>
       <use xlink:href="#mf12e467ebe" x="72" y="255.96" style="stroke: #000000; stroke-width: 0.8"/>
      </g>
     </g>
     <g id="text_10">
      <!-- 2.5 -->
      <g transform="translate(49.096875 259.759219) scale(0.1 -0.1)">
       <use xlink:href="#DejaVuSans-32"/>
       <use xlink:href="#DejaVuSans-2e" x="63.623047"/>
       <use xlink:href="#DejaVuSans-35" x="95.410156"/>
      </g>
     </g>
    </g>
    <g id="ytick_5">
     <g id="line2d_11">
      <g>
       <use xlink:href="#mf12e467ebe" x="72" y="218.16" style="stroke: #000000; stroke-width: 0.8"/>
      </g>
     </g>
     <g id="text_11">
      <!-- 5.0 -->
      <g transform="translate(49.096875 221.959219) scale(0.1 -0.1)">
       <use xlink:href="#DejaVuSans-35"/>
       <use xlink:href="#DejaVuSans-2e" x="63.623047"/>
       <use xlink:href="#DejaVuSans-30" x="95.410156"/>
      </g>
     </g>
    </g>
    <g id="ytick_6">
     <g id="line2d_12">
      <g>
       <use xlink:href="#mf12e467ebe" x="72" y="180.36" style="stroke: #000000; stroke-width: 0.8"/>
      </g>
     </g>
     <g id="text_12">
      <!-- 7.5 -->
      <g transform="translate(49.096875 184.159219) scale(0.1 -0.1)">
       <defs>
        <path id="DejaVuSans-37" d="M 525 4666 
L 3525 4666 
L 3525 4397 
L 1831 0 
L 1172 0 
L 2766 4134 
L 525 4134 
L 525 4666 
z
" transform="scale(0.015625)"/>
       </defs>
       <use xlink:href="#DejaVuSans-37"/>
       <use xlink:href="#DejaVuSans-2e" x="63.623047"/>
       <use xlink:href="#DejaVuSans-35" x="95.410156"/>
      </g>
     </g>
    </g>
    <g id="ytick_7">
     <g id="line2d_13">
      <g>
       <use xlink:href="#mf12e467ebe" x="72" y="142.56" style="stroke: #000000; stroke-width: 0.8"/>
      </g>
     </g>
     <g id="text_13">
      <!-- 10.0 -->
      <g transform="translate(42.734375 146.359219) scale(0.1 -0.1)">
       <use xlink:href="#DejaVuSans-31"/>
       <use xlink:href="#DejaVuSans-30" x="63.623047"/>
       <use xlink:href="#DejaVuSans-2e" x="127.246094"/>
       <use xlink:href="#DejaVuSans-30" x="159.033203"/>
      </g>
     </g>
    </g>
    <g id="ytick_8">
     <g id="line2d_14">
      <g>
       <use xlink:href="#mf12e467ebe" x="72" y="104.76" style="stroke: #000000; stroke-width: 0.8"/>
      </g>
     </g>
     <g id="text_14">
      <!-- 12.5 -->
      <g transform="translate(42.734375 108.559219) scale(0.1 -0.1)">
       <use xlink:href="#DejaVuSans-31"/>
       <use xlink:href="#DejaVuSans-32" x="63.623047"/>
       <use xlink:href="#DejaVuSans-2e" x="127.246094"/>
       <use xlink:href="#DejaVuSans-35" x="159.033203"/>
      </g>
     </g>
    </g>
    <g id="ytick_9">
     <g id="line2d_15">
      <g>
       <use xlink:href="#mf12e467ebe" x="72" y="66.96" style="stroke: #000000; stroke-width: 0.8"/>
      </g>
     </g>
     <g id="text_15">
      <!-- 15.0 -->
      <g transform="translate(42.734375 70.759219) scale(0.1 -0.1)">
       <use xlink:href="#DejaVuSans-31"/>
       <use xlink:href="#DejaVuSans-35" x="63.623047"/>
       <use xlink:href="#DejaVuSans-2e" x="127.246094"/>
       <use xlink:href="#DejaVuSans-30" x="159.033203"/>
      </g>
     </g>
    </g>
   </g>
   <g id="line2d_16">
    <path d="M 92.290909 331.251552 
L 96.349091 331.251552 
L 100.407273 331.25004 
L 104.465455 331.248528 
L 108.523636 331.247016 
L 112.581818 331.243992 
L 116.64 331.240968 
L 120.698182 331.237944 
L 124.756364 331.23492 
L 128.814545 331.231896 
L 132.872727 331.228872 
L 136.930909 331.22736 
L 140.989091 331.22736 
L 145.047273 331.228872 
L 149.105455 331.231896 
L 153.163636 331.237944 
L 157.221818 331.245504 
L 161.28 331.256088 
L 165.338182 331.271208 
L 169.396364 331.289352 
L 173.454545 331.313544 
L 177.512727 331.34076 
L 181.570909 331.374024 
L 185.629091 331.414848 
L 189.687273 331.460208 
L 193.745455 331.513128 
L 197.803636 331.573608 
L 201.861818 331.641648 
L 205.92 331.717248 
L 209.978182 331.800408 
L 214.036364 331.894152 
L 218.094545 331.995456 
L 222.152727 332.107344 
L 226.210909 332.226792 
L 230.269091 332.356824 
L 234.327273 332.495928 
L 238.385455 332.645616 
L 242.443636 332.802864 
L 246.501818 332.970696 
L 250.56 333.146088 
L 254.618182 333.330552 
L 258.676364 333.524088 
L 262.734545 333.725184 
L 266.792727 333.93384 
L 270.850909 334.150056 
L 274.909091 334.37232 
L 278.967273 334.602144 
L 283.025455 334.836504 
L 287.083636 335.076912 
L 291.141818 335.321856 
L 295.2 335.571336 
L 299.258182 335.82384 
L 303.316364 336.08088 
L 307.374545 336.339432 
L 311.432727 336.599496 
L 315.490909 336.862584 
L 319.549091 337.125672 
L 323.607273 337.38876 
L 327.665455 337.651848 
L 331.723636 337.914936 
L 335.781818 338.178024 
L 339.84 338.438088 
L 343.898182 338.69664 
L 347.956364 338.95368 
L 352.014545 339.207696 
L 356.072727 339.458688 
L 360.130909 339.706656 
L 364.189091 339.950088 
L 368.247273 340.188984 
L 372.305455 340.424856 
L 376.363636 340.65468 
L 380.421818 340.879968 
L 384.48 341.10072 
L 388.538182 341.313912 
L 392.596364 341.522568 
L 396.654545 341.725176 
L 400.712727 341.921736 
L 404.770909 342.112248 
L 408.829091 342.2952 
L 412.887273 342.470592 
L 416.945455 342.639936 
L 421.003636 342.80172 
L 425.061818 342.955944 
L 429.12 343.102608 
L 433.178182 343.241712 
L 437.236364 343.373256 
L 441.294545 343.495728 
L 445.352727 343.61064 
L 449.410909 343.717992 
L 453.469091 343.817784 
L 457.527273 343.908504 
L 461.585455 343.990152 
L 465.643636 344.06424 
L 469.701818 344.129256 
L 473.76 344.1852 
L 477.818182 344.233584 
L 481.876364 344.272896 
L 485.934545 344.303136 
L 489.992727 344.325816 
L 494.050909 344.337912 
L 498.109091 344.342448 
" clip-path="url(#p31c103e05f)" style="fill: none; stroke: #000000; stroke-opacity: 0.5; stroke-linecap: square"/>
   </g>
   <g id="line2d_17">
    <path d="M 92.290909 306.4986 
L 96.349091 306.500112 
L 100.407273 306.504648 
L 104.465455 306.512208 
L 108.523636 306.52128 
L 112.581818 306.534888 
L 116.64 306.550008 
L 120.698182 306.568152 
L 124.756364 306.587808 
L 128.814545 306.610488 
L 132.872727 306.633168 
L 136.930909 306.658872 
L 140.989091 306.686088 
L 145.047273 306.713304 
L 149.105455 306.742032 
L 153.163636 306.769248 
L 157.221818 306.796464 
L 161.28 306.82368 
L 165.338182 306.847872 
L 169.396364 306.872064 
L 173.454545 306.89172 
L 177.512727 306.908352 
L 181.570909 306.92196 
L 185.629091 306.931032 
L 189.687273 306.934056 
L 193.745455 306.931032 
L 197.803636 306.92196 
L 201.861818 306.905328 
L 205.92 306.879624 
L 209.978182 306.84636 
L 214.036364 306.804024 
L 218.094545 306.751104 
L 222.152727 306.6876 
L 226.210909 306.613512 
L 230.269091 306.527328 
L 234.327273 306.43056 
L 238.385455 306.321696 
L 242.443636 306.200736 
L 246.501818 306.06768 
L 250.56 305.921016 
L 254.618182 305.762256 
L 258.676364 305.5914 
L 262.734545 305.406936 
L 266.792727 305.211888 
L 270.850909 305.004744 
L 274.909091 304.785504 
L 278.967273 304.554168 
L 283.025455 304.312248 
L 287.083636 304.059744 
L 291.141818 303.796656 
L 295.2 303.526008 
L 299.258182 303.244776 
L 303.316364 302.954472 
L 307.374545 302.656608 
L 311.432727 302.351184 
L 315.490909 302.039712 
L 319.549091 301.722192 
L 323.607273 301.400136 
L 327.665455 301.072032 
L 331.723636 300.740904 
L 335.781818 300.40524 
L 339.84 300.068064 
L 343.898182 299.729376 
L 347.956364 299.389176 
L 352.014545 299.050488 
L 356.072727 298.710288 
L 360.130909 298.3716 
L 364.189091 298.035936 
L 368.247273 297.703296 
L 372.305455 297.372168 
L 376.363636 297.047088 
L 380.421818 296.726544 
L 384.48 296.412048 
L 388.538182 296.102088 
L 392.596364 295.8012 
L 396.654545 295.50636 
L 400.712727 295.220592 
L 404.770909 294.942384 
L 408.829091 294.673248 
L 412.887273 294.414696 
L 416.945455 294.166728 
L 421.003636 293.927832 
L 425.061818 293.69952 
L 429.12 293.483304 
L 433.178182 293.279184 
L 437.236364 293.085648 
L 441.294545 292.904208 
L 445.352727 292.734864 
L 449.410909 292.577616 
L 453.469091 292.432464 
L 457.527273 292.30092 
L 461.585455 292.17996 
L 465.643636 292.072608 
L 469.701818 291.978864 
L 473.76 291.895704 
L 477.818182 291.826152 
L 481.876364 291.770208 
L 485.934545 291.724848 
L 489.992727 291.694608 
L 494.050909 291.674952 
L 498.109091 291.668904 
" clip-path="url(#p31c103e05f)" style="fill: none; stroke: #000000; stroke-opacity: 0.5; stroke-linecap: square"/>
   </g>
   <g id="line2d_18">
    <path d="M 92.290909 254.481264 
L 96.349091 254.587104 
L 100.407273 254.87136 
L 104.465455 255.27204 
L 108.523636 255.74076 
L 112.581818 256.244256 
L 116.64 256.764384 
L 120.698182 257.287536 
L 124.756364 257.810688 
L 128.814545 258.324768 
L 132.872727 258.829776 
L 136.930909 259.321176 
L 140.989091 259.798968 
L 145.047273 260.258616 
L 149.105455 260.70012 
L 153.163636 261.12348 
L 157.221818 261.527184 
L 161.28 261.911232 
L 165.338182 262.274112 
L 169.396364 262.614312 
L 173.454545 262.933344 
L 177.512727 263.229696 
L 181.570909 263.503368 
L 185.629091 263.755872 
L 189.687273 263.984184 
L 193.745455 264.189816 
L 197.803636 264.37428 
L 201.861818 264.534552 
L 205.92 264.673656 
L 209.978182 264.79008 
L 214.036364 264.883824 
L 218.094545 264.957912 
L 222.152727 265.00932 
L 226.210909 265.041072 
L 230.269091 265.051656 
L 234.327273 265.042584 
L 238.385455 265.015368 
L 242.443636 264.968496 
L 246.501818 264.90348 
L 250.56 264.821832 
L 254.618182 264.72204 
L 258.676364 264.607128 
L 262.734545 264.475584 
L 266.792727 264.330432 
L 270.850909 264.17016 
L 274.909091 263.99628 
L 278.967273 263.810304 
L 283.025455 263.613744 
L 287.083636 263.403576 
L 291.141818 263.184336 
L 295.2 262.954512 
L 299.258182 262.715616 
L 303.316364 262.46916 
L 307.374545 262.215144 
L 311.432727 261.953568 
L 315.490909 261.684432 
L 319.549091 261.412272 
L 323.607273 261.132552 
L 327.665455 260.849808 
L 331.723636 260.562528 
L 335.781818 260.270712 
L 339.84 259.977384 
L 343.898182 259.67952 
L 347.956364 259.378632 
L 352.014545 259.076232 
L 356.072727 258.769296 
L 360.130909 258.460848 
L 364.189091 258.147864 
L 368.247273 257.833368 
L 372.305455 257.514336 
L 376.363636 257.19228 
L 380.421818 256.865688 
L 384.48 256.533048 
L 388.538182 256.197384 
L 392.596364 255.85416 
L 396.654545 255.5064 
L 400.712727 255.15108 
L 404.770909 254.789712 
L 408.829091 254.420784 
L 412.887273 254.044296 
L 416.945455 253.66176 
L 421.003636 253.270152 
L 425.061818 252.870984 
L 429.12 252.465768 
L 433.178182 252.052992 
L 437.236364 251.634168 
L 441.294545 251.207784 
L 445.352727 250.778376 
L 449.410909 250.344432 
L 453.469091 249.907464 
L 457.527273 249.468984 
L 461.585455 249.032016 
L 465.643636 248.59656 
L 469.701818 248.168664 
L 473.76 247.748328 
L 477.818182 247.344624 
L 481.876364 246.9636 
L 485.934545 246.617352 
L 489.992727 246.330072 
L 494.050909 246.128976 
L 498.109091 246.0564 
" clip-path="url(#p31c103e05f)" style="fill: none; stroke: #000000; stroke-opacity: 0.5; stroke-linecap: square"/>
   </g>
   <g id="line2d_19">
    <path d="M 92.290909 250.686144 
L 96.349091 250.574256 
L 100.407273 250.271856 
L 104.465455 249.840936 
L 108.523636 249.32988 
L 112.581818 248.774976 
L 116.64 248.191344 
L 120.698182 247.595616 
L 124.756364 246.992328 
L 128.814545 246.38904 
L 132.872727 245.790288 
L 136.930909 245.200608 
L 140.989091 244.623024 
L 145.047273 244.06056 
L 149.105455 243.51624 
L 153.163636 242.991576 
L 157.221818 242.491104 
L 161.28 242.016336 
L 165.338182 241.568784 
L 169.396364 241.151472 
L 173.454545 240.765912 
L 177.512727 240.413616 
L 181.570909 240.094584 
L 185.629091 239.810328 
L 189.687273 239.56236 
L 193.745455 239.349168 
L 197.803636 239.172264 
L 201.861818 239.028624 
L 205.92 238.91976 
L 209.978182 238.84416 
L 214.036364 238.800312 
L 218.094545 238.785192 
L 222.152727 238.797288 
L 226.210909 238.8366 
L 230.269091 238.900104 
L 234.327273 238.984776 
L 238.385455 239.089104 
L 242.443636 239.211576 
L 246.501818 239.347656 
L 250.56 239.497344 
L 254.618182 239.657616 
L 258.676364 239.82696 
L 262.734545 240.002352 
L 266.792727 240.18228 
L 270.850909 240.365232 
L 274.909091 240.549696 
L 278.967273 240.732648 
L 283.025455 240.912576 
L 287.083636 241.08948 
L 291.141818 241.261848 
L 295.2 241.425144 
L 299.258182 241.582392 
L 303.316364 241.729056 
L 307.374545 241.865136 
L 311.432727 241.990632 
L 315.490909 242.10252 
L 319.549091 242.202312 
L 323.607273 242.288496 
L 327.665455 242.35956 
L 331.723636 242.415504 
L 335.781818 242.45784 
L 339.84 242.483544 
L 343.898182 242.49564 
L 347.956364 242.491104 
L 352.014545 242.47296 
L 356.072727 242.441208 
L 360.130909 242.394336 
L 364.189091 242.33688 
L 368.247273 242.267328 
L 372.305455 242.188704 
L 376.363636 242.101008 
L 380.421818 242.005752 
L 384.48 241.90596 
L 388.538182 241.803144 
L 392.596364 241.700328 
L 396.654545 241.597512 
L 400.712727 241.49772 
L 404.770909 241.403976 
L 408.829091 241.319304 
L 412.887273 241.243704 
L 416.945455 241.181712 
L 421.003636 241.133328 
L 425.061818 241.103088 
L 429.12 241.090992 
L 433.178182 241.100064 
L 437.236364 241.130304 
L 441.294545 241.184736 
L 445.352727 241.26336 
L 449.410909 241.367688 
L 453.469091 241.496208 
L 457.527273 241.64892 
L 461.585455 241.827336 
L 465.643636 242.028432 
L 469.701818 242.249184 
L 473.76 242.486568 
L 477.818182 242.73756 
L 481.876364 242.993088 
L 485.934545 243.239544 
L 489.992727 243.458784 
L 494.050909 243.616032 
L 498.109091 243.675 
" clip-path="url(#p31c103e05f)" style="fill: none; stroke: #000000; stroke-opacity: 0.5; stroke-linecap: square"/>
   </g>
   <g id="line2d_20">
    <path d="M 92.290909 176.518008 
L 96.349091 176.682816 
L 100.407273 177.113736 
L 104.465455 177.69888 
L 108.523636 178.3566 
L 112.581818 179.038512 
L 116.64 179.720424 
L 120.698182 180.385704 
L 124.756364 181.023768 
L 128.814545 181.63008 
L 132.872727 182.19708 
L 136.930909 182.723256 
L 140.989091 183.205584 
L 145.047273 183.638016 
L 149.105455 184.01904 
L 153.163636 184.347144 
L 157.221818 184.619304 
L 161.28 184.832496 
L 165.338182 184.985208 
L 169.396364 185.075928 
L 173.454545 185.103144 
L 177.512727 185.065344 
L 181.570909 184.962528 
L 185.629091 184.791672 
L 189.687273 184.554288 
L 193.745455 184.250376 
L 197.803636 183.878424 
L 201.861818 183.441456 
L 205.92 182.93796 
L 209.978182 182.372472 
L 214.036364 181.74348 
L 218.094545 181.054008 
L 222.152727 180.305568 
L 226.210909 179.499672 
L 230.269091 178.639344 
L 234.327273 177.726096 
L 238.385455 176.762952 
L 242.443636 175.751424 
L 246.501818 174.694536 
L 250.56 173.5938 
L 254.618182 172.450728 
L 258.676364 171.268344 
L 262.734545 170.049672 
L 266.792727 168.794712 
L 270.850909 167.506488 
L 274.909091 166.186512 
L 278.967273 164.837808 
L 283.025455 163.460376 
L 287.083636 162.055728 
L 291.141818 160.6284 
L 295.2 159.179904 
L 299.258182 157.713264 
L 303.316364 156.23604 
L 307.374545 154.772424 
L 311.432727 153.528048 
L 315.490909 154.085976 
L 319.549091 155.505744 
L 323.607273 156.978432 
L 327.665455 158.448096 
L 331.723636 159.90264 
L 335.781818 161.33904 
L 339.84 162.754272 
L 343.898182 164.146824 
L 347.956364 165.515184 
L 352.014545 166.859352 
L 356.072727 168.174792 
L 360.130909 169.463016 
L 364.189091 170.721 
L 368.247273 171.948744 
L 372.305455 173.144736 
L 376.363636 174.305952 
L 380.421818 175.432392 
L 384.48 176.522544 
L 388.538182 177.573384 
L 392.596364 178.584912 
L 396.654545 179.554104 
L 400.712727 180.479448 
L 404.770909 181.359432 
L 408.829091 182.194056 
L 412.887273 182.978784 
L 416.945455 183.715128 
L 421.003636 184.400064 
L 425.061818 185.033592 
L 429.12 185.612688 
L 433.178182 186.138864 
L 437.236364 186.61212 
L 441.294545 187.032456 
L 445.352727 187.39836 
L 449.410909 187.714368 
L 453.469091 187.978968 
L 457.527273 188.196696 
L 461.585455 188.370576 
L 465.643636 188.505144 
L 469.701818 188.601912 
L 473.76 188.66844 
L 477.818182 188.710776 
L 481.876364 188.733456 
L 485.934545 188.74404 
L 489.992727 188.747064 
L 494.050909 188.745552 
L 498.109091 188.745552 
" clip-path="url(#p31c103e05f)" style="fill: none; stroke: #000000; stroke-opacity: 0.5; stroke-linecap: square"/>
   </g>
   <g id="line2d_21">
    <path d="M 92.290909 171.516312 
L 96.349091 171.321264 
L 100.407273 170.7966 
L 104.465455 170.05572 
L 108.523636 169.17876 
L 112.581818 168.214104 
L 116.64 167.187456 
L 120.698182 166.112424 
L 124.756364 164.996568 
L 128.814545 163.847448 
L 132.872727 162.668088 
L 136.930909 161.461512 
L 140.989091 160.22772 
L 145.047273 158.971248 
L 149.105455 157.692096 
L 153.163636 156.391776 
L 157.221818 155.0718 
L 161.28 153.730656 
L 165.338182 152.371368 
L 169.396364 150.995448 
L 173.454545 149.601384 
L 177.512727 148.190688 
L 181.570909 146.76336 
L 185.629091 145.322424 
L 189.687273 143.866368 
L 193.745455 142.398216 
L 197.803636 140.917968 
L 201.861818 139.425624 
L 205.92 137.92572 
L 209.978182 136.419768 
L 214.036364 134.910792 
L 218.094545 133.40484 
L 222.152727 131.912496 
L 226.210909 130.450392 
L 230.269091 129.053304 
L 234.327273 127.799856 
L 238.385455 126.871488 
L 242.443636 126.60084 
L 246.501818 127.178424 
L 250.56 128.333592 
L 254.618182 129.76092 
L 258.676364 131.31072 
L 262.734545 132.916464 
L 266.792727 134.550936 
L 270.850909 136.195992 
L 274.909091 137.845584 
L 278.967273 139.493664 
L 283.025455 141.134184 
L 287.083636 142.767144 
L 291.141818 144.38952 
L 295.2 145.996776 
L 299.258182 147.5874 
L 303.316364 149.155344 
L 307.374545 150.676416 
L 311.432727 151.944984 
L 315.490909 151.379496 
L 319.549091 149.92344 
L 323.607273 148.385736 
L 327.665455 146.8314 
L 331.723636 145.277064 
L 335.781818 143.743896 
L 339.84 142.275744 
L 343.898182 140.9724 
L 347.956364 140.115096 
L 352.014545 140.158944 
L 356.072727 141.023808 
L 360.130909 142.256088 
L 364.189091 143.621424 
L 368.247273 145.036656 
L 372.305455 146.46852 
L 376.363636 147.901896 
L 380.421818 149.329224 
L 384.48 150.742944 
L 388.538182 152.143056 
L 392.596364 153.525024 
L 396.654545 154.888848 
L 400.712727 156.229992 
L 404.770909 157.549968 
L 408.829091 158.845752 
L 412.887273 160.115832 
L 416.945455 161.360208 
L 421.003636 162.574344 
L 425.061818 163.759752 
L 429.12 164.913408 
L 433.178182 166.032288 
L 437.236364 167.11488 
L 441.294545 168.159672 
L 445.352727 169.16364 
L 449.410909 170.12376 
L 453.469091 171.035496 
L 457.527273 171.895824 
L 461.585455 172.700208 
L 465.643636 173.444112 
L 469.701818 174.123 
L 473.76 174.729312 
L 477.818182 175.257 
L 481.876364 175.700016 
L 485.934545 176.053824 
L 489.992727 176.310864 
L 494.050909 176.4666 
L 498.109091 176.51952 
" clip-path="url(#p31c103e05f)" style="fill: none; stroke: #000000; stroke-opacity: 0.5; stroke-linecap: square"/>
   </g>
   <g id="line2d_22">
    <path d="M 92.290909 101.194704 
L 96.349091 101.19168 
L 100.407273 101.18412 
L 104.465455 101.172024 
L 108.523636 101.155392 
L 112.581818 101.132712 
L 116.64 101.107008 
L 120.698182 101.075256 
L 124.756364 101.038968 
L 128.814545 100.998144 
L 132.872727 100.954296 
L 136.930909 100.9044 
L 140.989091 100.85148 
L 145.047273 100.794024 
L 149.105455 100.732032 
L 153.163636 100.667016 
L 157.221818 100.598976 
L 161.28 100.527912 
L 165.338182 100.453824 
L 169.396364 100.378224 
L 173.454545 100.301112 
L 177.512727 100.225512 
L 181.570909 100.157472 
L 185.629091 100.121184 
L 189.687273 100.394856 
L 193.745455 101.820672 
L 197.803636 103.554936 
L 201.861818 105.322464 
L 205.92 107.093016 
L 209.978182 108.859032 
L 214.036364 110.614464 
L 218.094545 112.35024 
L 222.152727 114.0588 
L 226.210909 115.720488 
L 230.269091 117.300528 
L 234.327273 118.720296 
L 238.385455 119.79684 
L 242.443636 120.199032 
L 246.501818 119.739384 
L 250.56 118.687032 
L 254.618182 117.351936 
L 258.676364 115.88832 
L 262.734545 114.370272 
L 266.792727 112.852224 
L 270.850909 111.408264 
L 274.909091 110.227392 
L 278.967273 109.823688 
L 283.025455 110.55096 
L 287.083636 111.890592 
L 291.141818 113.443416 
L 295.2 115.0794 
L 299.258182 116.747136 
L 303.316364 118.42848 
L 307.374545 120.112848 
L 311.432727 121.79268 
L 315.490909 123.461928 
L 319.549091 125.11908 
L 323.607273 126.756576 
L 327.665455 128.371392 
L 331.723636 129.951432 
L 335.781818 131.481576 
L 339.84 132.917976 
L 343.898182 134.162352 
L 347.956364 134.933472 
L 352.014545 134.779248 
L 356.072727 133.77528 
L 360.130909 132.379704 
L 364.189091 130.825368 
L 368.247273 129.196944 
L 372.305455 127.526184 
L 376.363636 125.82972 
L 380.421818 124.116624 
L 384.48 122.391432 
L 388.538182 120.65868 
L 392.596364 118.91988 
L 396.654545 117.178056 
L 400.712727 115.43472 
L 404.770909 113.694408 
L 408.829091 111.955608 
L 412.887273 110.222856 
L 416.945455 108.496152 
L 421.003636 106.783056 
L 425.061818 105.082056 
L 429.12 103.3992 
L 433.178182 101.740536 
L 437.236364 100.115136 
L 441.294545 98.542656 
L 445.352727 97.07904 
L 449.410909 95.94504 
L 453.469091 95.467248 
L 457.527273 95.322096 
L 461.585455 95.263128 
L 465.643636 95.231376 
L 469.701818 95.213232 
L 473.76 95.201136 
L 477.818182 95.193576 
L 481.876364 95.187528 
L 485.934545 95.184504 
L 489.992727 95.18148 
L 494.050909 95.179968 
L 498.109091 95.179968 
" clip-path="url(#p31c103e05f)" style="fill: none; stroke: #000000; stroke-opacity: 0.5; stroke-linecap: square"/>
   </g>
   <g id="line2d_23">
    <path d="M 92.290909 71.037864 
L 96.349091 71.07264 
L 100.407273 71.179992 
L 104.465455 71.372016 
L 108.523636 71.666856 
L 112.581818 72.091728 
L 116.64 72.669312 
L 120.698182 73.420776 
L 124.756364 74.349144 
L 128.814545 75.440808 
L 132.872727 76.6746 
L 136.930909 78.026328 
L 140.989091 79.4718 
L 145.047273 80.992872 
L 149.105455 82.572912 
L 153.163636 84.199824 
L 157.221818 85.864536 
L 161.28 87.561 
L 165.338182 89.278632 
L 169.396364 91.01592 
L 173.454545 92.766816 
L 177.512727 94.525272 
L 181.570909 96.283728 
L 185.629091 98.011944 
L 189.687273 99.436248 
L 193.745455 99.706896 
L 197.803636 99.667584 
L 201.861818 99.591984 
L 205.92 99.507312 
L 209.978182 99.421128 
L 214.036364 99.333432 
L 218.094545 99.247248 
L 222.152727 99.1656 
L 226.210909 99.088488 
L 230.269091 99.02196 
L 234.327273 98.970552 
L 238.385455 98.940312 
L 242.443636 98.944848 
L 246.501818 99.00684 
L 250.56 99.170136 
L 254.618182 99.511848 
L 258.676364 100.139328 
L 262.734545 101.110032 
L 266.792727 102.3408 
L 270.850909 103.653216 
L 274.909091 104.778144 
L 278.967273 105.159168 
L 283.025455 104.4198 
L 287.083636 103.065048 
L 291.141818 101.491056 
L 295.2 99.827856 
L 299.258182 98.148024 
L 303.316364 96.734304 
L 307.374545 96.356304 
L 311.432727 96.23988 
L 315.490909 96.153696 
L 319.549091 96.078096 
L 323.607273 96.007032 
L 327.665455 95.938992 
L 331.723636 95.875488 
L 335.781818 95.813496 
L 339.84 95.754528 
L 343.898182 95.698584 
L 347.956364 95.645664 
L 352.014545 95.595768 
L 356.072727 95.548896 
L 360.130909 95.505048 
L 364.189091 95.462712 
L 368.247273 95.4234 
L 372.305455 95.387112 
L 376.363636 95.353848 
L 380.421818 95.323608 
L 384.48 95.29488 
L 388.538182 95.267664 
L 392.596364 95.243472 
L 396.654545 95.220792 
L 400.712727 95.201136 
L 404.770909 95.18148 
L 408.829091 95.163336 
L 412.887273 95.146704 
L 416.945455 95.130072 
L 421.003636 95.114952 
L 425.061818 95.09832 
L 429.12 95.078664 
L 433.178182 95.054472 
L 437.236364 95.021208 
L 441.294545 94.96224 
L 445.352727 94.827672 
L 449.410909 94.399776 
L 453.469091 93.364056 
L 457.527273 92.048616 
L 461.585455 90.71352 
L 465.643636 89.425296 
L 469.701818 88.215696 
L 473.76 87.1074 
L 477.818182 86.118552 
L 481.876364 85.27032 
L 485.934545 84.583872 
L 489.992727 84.07584 
L 494.050909 83.76588 
L 498.109091 83.661552 
" clip-path="url(#p31c103e05f)" style="fill: none; stroke: #000000; stroke-opacity: 0.5; stroke-linecap: square"/>
   </g>
   <g id="patch_3">
    <path d="M 72 384.48 
L 72 51.84 
" style="fill: none; stroke: #000000; stroke-width: 0.8; stroke-linejoin: miter; stroke-linecap: square"/>
   </g>
   <g id="patch_4">
    <path d="M 518.4 384.48 
L 518.4 51.84 
" style="fill: none; stroke: #000000; stroke-width: 0.8; stroke-linejoin: miter; stroke-linecap: square"/>
   </g>
   <g id="patch_5">
    <path d="M 72 384.48 
L 518.4 384.48 
" style="fill: none; stroke: #000000; stroke-width: 0.8; stroke-linejoin: miter; stroke-linecap: square"/>
   </g>
   <g id="patch_6">
    <path d="M 72 51.84 
L 518.4 51.84 
" style="fill: none; stroke: #000000; stroke-width: 0.8; stroke-linejoin: miter; stroke-linecap: square"/>
   </g>
  </g>
 </g>
 <defs>
  <clipPath id="p31c103e05f">
   <rect x="72" y="51.84" width="446.4" height="332.64"/>
  </clipPath>
 </defs>
</svg>
