<?xml version="1.0" encoding="utf-8" standalone="no"?>
<!DOCTYPE svg PUBLIC "-//W3C//DTD SVG 1.1//EN"
  "http://www.w3.org/Graphics/SVG/1.1/DTD/svg11.dtd">
<svg xmlns:xlink="http://www.w3.org/1999/xlink" width="576pt" height="432pt" viewBox="0 0 576 432" xmlns="http://www.w3.org/2000/svg" version="1.1">
 <metadata>
  <rdf:RDF xmlns:dc="http://purl.org/dc/elements/1.1/" xmlns:cc="http://creativecommons.org/ns#" xmlns:rdf="http://www.w3.org/1999/02/22-rdf-syntax-ns#">
   <cc:Work>
    <dc:type rdf:resource="http://purl.org/dc/dcmitype/StillImage"/>
    <dc:date>2023-05-02T20:39:52.100744</dc:date>
    <dc:format>image/svg+xml</dc:format>
    <dc:creator>
     <cc:Agent>
      <dc:title>Matplotlib v3.7.1, https://matplotlib.org/</dc:title>
     </cc:Agent>
    </dc:creator>
   </cc:Work>
  </rdf:RDF>
 </metadata>
 <defs>
  <style type="text/css">*{stroke-linejoin: round; stroke-linecap: butt}</style>
 </defs>
 <g id="figure_1">
  <g id="patch_1">
   <path d="M 0 432 
L 576 432 
L 576 0 
L 0 0 
z
" style="fill: #ffffff"/>
  </g>
  <g id="axes_1">
   <g id="patch_2">
    <path d="M 72 384.48 
L 518.4 384.48 
L 518.4 51.84 
L 72 51.84 
z
" style="fill: #ffffff"/>
   </g>
   <g id="matplotlib.axis_1">
    <g id="xtick_1">
     <g id="line2d_1">
      <defs>
       <path id="ma90a8619f7" d="M 0 0 
L 0 3.5 
" style="stroke: #000000; stroke-width: 0.8"/>
      </defs>
      <g>
       <use xlink:href="#ma90a8619f7" x="92.290909" y="384.48" style="stroke: #000000; stroke-width: 0.8"/>
      </g>
     </g>
     <g id="text_1">
      <!-- 0.0 -->
      <g transform="translate(84.339347 399.078438) scale(0.1 -0.1)">
       <defs>
        <path id="DejaVuSans-30" d="M 2034 4250 
Q 1547 4250 1301 3770 
Q 1056 3291 1056 2328 
Q 1056 1369 1301 889 
Q 1547 409 2034 409 
Q 2525 409 2770 889 
Q 3016 1369 3016 2328 
Q 3016 3291 2770 3770 
Q 2525 4250 2034 4250 
z
M 2034 4750 
Q 2819 4750 3233 4129 
Q 3647 3509 3647 2328 
Q 3647 1150 3233 529 
Q 2819 -91 2034 -91 
Q 1250 -91 836 529 
Q 422 1150 422 2328 
Q 422 3509 836 4129 
Q 1250 4750 2034 4750 
z
" transform="scale(0.015625)"/>
        <path id="DejaVuSans-2e" d="M 684 794 
L 1344 794 
L 1344 0 
L 684 0 
L 684 794 
z
" transform="scale(0.015625)"/>
       </defs>
       <use xlink:href="#DejaVuSans-30"/>
       <use xlink:href="#DejaVuSans-2e" x="63.623047"/>
       <use xlink:href="#DejaVuSans-30" x="95.410156"/>
      </g>
     </g>
    </g>
    <g id="xtick_2">
     <g id="line2d_2">
      <g>
       <use xlink:href="#ma90a8619f7" x="173.454545" y="384.48" style="stroke: #000000; stroke-width: 0.8"/>
      </g>
     </g>
     <g id="text_2">
      <!-- 0.2 -->
      <g transform="translate(165.502983 399.078438) scale(0.1 -0.1)">
       <defs>
        <path id="DejaVuSans-32" d="M 1228 531 
L 3431 531 
L 3431 0 
L 469 0 
L 469 531 
Q 828 903 1448 1529 
Q 2069 2156 2228 2338 
Q 2531 2678 2651 2914 
Q 2772 3150 2772 3378 
Q 2772 3750 2511 3984 
Q 2250 4219 1831 4219 
Q 1534 4219 1204 4116 
Q 875 4013 500 3803 
L 500 4441 
Q 881 4594 1212 4672 
Q 1544 4750 1819 4750 
Q 2544 4750 2975 4387 
Q 3406 4025 3406 3419 
Q 3406 3131 3298 2873 
Q 3191 2616 2906 2266 
Q 2828 2175 2409 1742 
Q 1991 1309 1228 531 
z
" transform="scale(0.015625)"/>
       </defs>
       <use xlink:href="#DejaVuSans-30"/>
       <use xlink:href="#DejaVuSans-2e" x="63.623047"/>
       <use xlink:href="#DejaVuSans-32" x="95.410156"/>
      </g>
     </g>
    </g>
    <g id="xtick_3">
     <g id="line2d_3">
      <g>
       <use xlink:href="#ma90a8619f7" x="254.618182" y="384.48" style="stroke: #000000; stroke-width: 0.8"/>
      </g>
     </g>
     <g id="text_3">
      <!-- 0.4 -->
      <g transform="translate(246.666619 399.078438) scale(0.1 -0.1)">
       <defs>
        <path id="DejaVuSans-34" d="M 2419 4116 
L 825 1625 
L 2419 1625 
L 2419 4116 
z
M 2253 4666 
L 3047 4666 
L 3047 1625 
L 3713 1625 
L 3713 1100 
L 3047 1100 
L 3047 0 
L 2419 0 
L 2419 1100 
L 313 1100 
L 313 1709 
L 2253 4666 
z
" transform="scale(0.015625)"/>
       </defs>
       <use xlink:href="#DejaVuSans-30"/>
       <use xlink:href="#DejaVuSans-2e" x="63.623047"/>
       <use xlink:href="#DejaVuSans-34" x="95.410156"/>
      </g>
     </g>
    </g>
    <g id="xtick_4">
     <g id="line2d_4">
      <g>
       <use xlink:href="#ma90a8619f7" x="335.781818" y="384.48" style="stroke: #000000; stroke-width: 0.8"/>
      </g>
     </g>
     <g id="text_4">
      <!-- 0.6 -->
      <g transform="translate(327.830256 399.078438) scale(0.1 -0.1)">
       <defs>
        <path id="DejaVuSans-36" d="M 2113 2584 
Q 1688 2584 1439 2293 
Q 1191 2003 1191 1497 
Q 1191 994 1439 701 
Q 1688 409 2113 409 
Q 2538 409 2786 701 
Q 3034 994 3034 1497 
Q 3034 2003 2786 2293 
Q 2538 2584 2113 2584 
z
M 3366 4563 
L 3366 3988 
Q 3128 4100 2886 4159 
Q 2644 4219 2406 4219 
Q 1781 4219 1451 3797 
Q 1122 3375 1075 2522 
Q 1259 2794 1537 2939 
Q 1816 3084 2150 3084 
Q 2853 3084 3261 2657 
Q 3669 2231 3669 1497 
Q 3669 778 3244 343 
Q 2819 -91 2113 -91 
Q 1303 -91 875 529 
Q 447 1150 447 2328 
Q 447 3434 972 4092 
Q 1497 4750 2381 4750 
Q 2619 4750 2861 4703 
Q 3103 4656 3366 4563 
z
" transform="scale(0.015625)"/>
       </defs>
       <use xlink:href="#DejaVuSans-30"/>
       <use xlink:href="#DejaVuSans-2e" x="63.623047"/>
       <use xlink:href="#DejaVuSans-36" x="95.410156"/>
      </g>
     </g>
    </g>
    <g id="xtick_5">
     <g id="line2d_5">
      <g>
       <use xlink:href="#ma90a8619f7" x="416.945455" y="384.48" style="stroke: #000000; stroke-width: 0.8"/>
      </g>
     </g>
     <g id="text_5">
      <!-- 0.8 -->
      <g transform="translate(408.993892 399.078438) scale(0.1 -0.1)">
       <defs>
        <path id="DejaVuSans-38" d="M 2034 2216 
Q 1584 2216 1326 1975 
Q 1069 1734 1069 1313 
Q 1069 891 1326 650 
Q 1584 409 2034 409 
Q 2484 409 2743 651 
Q 3003 894 3003 1313 
Q 3003 1734 2745 1975 
Q 2488 2216 2034 2216 
z
M 1403 2484 
Q 997 2584 770 2862 
Q 544 3141 544 3541 
Q 544 4100 942 4425 
Q 1341 4750 2034 4750 
Q 2731 4750 3128 4425 
Q 3525 4100 3525 3541 
Q 3525 3141 3298 2862 
Q 3072 2584 2669 2484 
Q 3125 2378 3379 2068 
Q 3634 1759 3634 1313 
Q 3634 634 3220 271 
Q 2806 -91 2034 -91 
Q 1263 -91 848 271 
Q 434 634 434 1313 
Q 434 1759 690 2068 
Q 947 2378 1403 2484 
z
M 1172 3481 
Q 1172 3119 1398 2916 
Q 1625 2713 2034 2713 
Q 2441 2713 2670 2916 
Q 2900 3119 2900 3481 
Q 2900 3844 2670 4047 
Q 2441 4250 2034 4250 
Q 1625 4250 1398 4047 
Q 1172 3844 1172 3481 
z
" transform="scale(0.015625)"/>
       </defs>
       <use xlink:href="#DejaVuSans-30"/>
       <use xlink:href="#DejaVuSans-2e" x="63.623047"/>
       <use xlink:href="#DejaVuSans-38" x="95.410156"/>
      </g>
     </g>
    </g>
    <g id="xtick_6">
     <g id="line2d_6">
      <g>
       <use xlink:href="#ma90a8619f7" x="498.109091" y="384.48" style="stroke: #000000; stroke-width: 0.8"/>
      </g>
     </g>
     <g id="text_6">
      <!-- 1.0 -->
      <g transform="translate(490.157528 399.078438) scale(0.1 -0.1)">
       <defs>
        <path id="DejaVuSans-31" d="M 794 531 
L 1825 531 
L 1825 4091 
L 703 3866 
L 703 4441 
L 1819 4666 
L 2450 4666 
L 2450 531 
L 3481 531 
L 3481 0 
L 794 0 
L 794 531 
z
" transform="scale(0.015625)"/>
       </defs>
       <use xlink:href="#DejaVuSans-31"/>
       <use xlink:href="#DejaVuSans-2e" x="63.623047"/>
       <use xlink:href="#DejaVuSans-30" x="95.410156"/>
      </g>
     </g>
    </g>
   </g>
   <g id="matplotlib.axis_2">
    <g id="ytick_1">
     <g id="line2d_7">
      <defs>
       <path id="ma7a5f9f8d1" d="M 0 0 
L -3.5 0 
" style="stroke: #000000; stroke-width: 0.8"/>
      </defs>
      <g>
       <use xlink:href="#ma7a5f9f8d1" x="72" y="369.36" style="stroke: #000000; stroke-width: 0.8"/>
      </g>
     </g>
     <g id="text_7">
      <!-- −5.0 -->
      <g transform="translate(40.717187 373.159219) scale(0.1 -0.1)">
       <defs>
        <path id="DejaVuSans-2212" d="M 678 2272 
L 4684 2272 
L 4684 1741 
L 678 1741 
L 678 2272 
z
" transform="scale(0.015625)"/>
        <path id="DejaVuSans-35" d="M 691 4666 
L 3169 4666 
L 3169 4134 
L 1269 4134 
L 1269 2991 
Q 1406 3038 1543 3061 
Q 1681 3084 1819 3084 
Q 2600 3084 3056 2656 
Q 3513 2228 3513 1497 
Q 3513 744 3044 326 
Q 2575 -91 1722 -91 
Q 1428 -91 1123 -41 
Q 819 9 494 109 
L 494 744 
Q 775 591 1075 516 
Q 1375 441 1709 441 
Q 2250 441 2565 725 
Q 2881 1009 2881 1497 
Q 2881 1984 2565 2268 
Q 2250 2553 1709 2553 
Q 1456 2553 1204 2497 
Q 953 2441 691 2322 
L 691 4666 
z
" transform="scale(0.015625)"/>
       </defs>
       <use xlink:href="#DejaVuSans-2212"/>
       <use xlink:href="#DejaVuSans-35" x="83.789062"/>
       <use xlink:href="#DejaVuSans-2e" x="147.412109"/>
       <use xlink:href="#DejaVuSans-30" x="179.199219"/>
      </g>
     </g>
    </g>
    <g id="ytick_2">
     <g id="line2d_8">
      <g>
       <use xlink:href="#ma7a5f9f8d1" x="72" y="331.56" style="stroke: #000000; stroke-width: 0.8"/>
      </g>
     </g>
     <g id="text_8">
      <!-- −2.5 -->
      <g transform="translate(40.717187 335.359219) scale(0.1 -0.1)">
       <use xlink:href="#DejaVuSans-2212"/>
       <use xlink:href="#DejaVuSans-32" x="83.789062"/>
       <use xlink:href="#DejaVuSans-2e" x="147.412109"/>
       <use xlink:href="#DejaVuSans-35" x="179.199219"/>
      </g>
     </g>
    </g>
    <g id="ytick_3">
     <g id="line2d_9">
      <g>
       <use xlink:href="#ma7a5f9f8d1" x="72" y="293.76" style="stroke: #000000; stroke-width: 0.8"/>
      </g>
     </g>
     <g id="text_9">
      <!-- 0.0 -->
      <g transform="translate(49.096875 297.559219) scale(0.1 -0.1)">
       <use xlink:href="#DejaVuSans-30"/>
       <use xlink:href="#DejaVuSans-2e" x="63.623047"/>
       <use xlink:href="#DejaVuSans-30" x="95.410156"/>
      </g>
     </g>
    </g>
    <g id="ytick_4">
     <g id="line2d_10">
      <g>
       <use xlink:href="#ma7a5f9f8d1" x="72" y="255.96" style="stroke: #000000; stroke-width: 0.8"/>
      </g>
     </g>
     <g id="text_10">
      <!-- 2.5 -->
      <g transform="translate(49.096875 259.759219) scale(0.1 -0.1)">
       <use xlink:href="#DejaVuSans-32"/>
       <use xlink:href="#DejaVuSans-2e" x="63.623047"/>
       <use xlink:href="#DejaVuSans-35" x="95.410156"/>
      </g>
     </g>
    </g>
    <g id="ytick_5">
     <g id="line2d_11">
      <g>
       <use xlink:href="#ma7a5f9f8d1" x="72" y="218.16" style="stroke: #000000; stroke-width: 0.8"/>
      </g>
     </g>
     <g id="text_11">
      <!-- 5.0 -->
      <g transform="translate(49.096875 221.959219) scale(0.1 -0.1)">
       <use xlink:href="#DejaVuSans-35"/>
       <use xlink:href="#DejaVuSans-2e" x="63.623047"/>
       <use xlink:href="#DejaVuSans-30" x="95.410156"/>
      </g>
     </g>
    </g>
    <g id="ytick_6">
     <g id="line2d_12">
      <g>
       <use xlink:href="#ma7a5f9f8d1" x="72" y="180.36" style="stroke: #000000; stroke-width: 0.8"/>
      </g>
     </g>
     <g id="text_12">
      <!-- 7.5 -->
      <g transform="translate(49.096875 184.159219) scale(0.1 -0.1)">
       <defs>
        <path id="DejaVuSans-37" d="M 525 4666 
L 3525 4666 
L 3525 4397 
L 1831 0 
L 1172 0 
L 2766 4134 
L 525 4134 
L 525 4666 
z
" transform="scale(0.015625)"/>
       </defs>
       <use xlink:href="#DejaVuSans-37"/>
       <use xlink:href="#DejaVuSans-2e" x="63.623047"/>
       <use xlink:href="#DejaVuSans-35" x="95.410156"/>
      </g>
     </g>
    </g>
    <g id="ytick_7">
     <g id="line2d_13">
      <g>
       <use xlink:href="#ma7a5f9f8d1" x="72" y="142.56" style="stroke: #000000; stroke-width: 0.8"/>
      </g>
     </g>
     <g id="text_13">
      <!-- 10.0 -->
      <g transform="translate(42.734375 146.359219) scale(0.1 -0.1)">
       <use xlink:href="#DejaVuSans-31"/>
       <use xlink:href="#DejaVuSans-30" x="63.623047"/>
       <use xlink:href="#DejaVuSans-2e" x="127.246094"/>
       <use xlink:href="#DejaVuSans-30" x="159.033203"/>
      </g>
     </g>
    </g>
    <g id="ytick_8">
     <g id="line2d_14">
      <g>
       <use xlink:href="#ma7a5f9f8d1" x="72" y="104.76" style="stroke: #000000; stroke-width: 0.8"/>
      </g>
     </g>
     <g id="text_14">
      <!-- 12.5 -->
      <g transform="translate(42.734375 108.559219) scale(0.1 -0.1)">
       <use xlink:href="#DejaVuSans-31"/>
       <use xlink:href="#DejaVuSans-32" x="63.623047"/>
       <use xlink:href="#DejaVuSans-2e" x="127.246094"/>
       <use xlink:href="#DejaVuSans-35" x="159.033203"/>
      </g>
     </g>
    </g>
    <g id="ytick_9">
     <g id="line2d_15">
      <g>
       <use xlink:href="#ma7a5f9f8d1" x="72" y="66.96" style="stroke: #000000; stroke-width: 0.8"/>
      </g>
     </g>
     <g id="text_15">
      <!-- 15.0 -->
      <g transform="translate(42.734375 70.759219) scale(0.1 -0.1)">
       <use xlink:href="#DejaVuSans-31"/>
       <use xlink:href="#DejaVuSans-35" x="63.623047"/>
       <use xlink:href="#DejaVuSans-2e" x="127.246094"/>
       <use xlink:href="#DejaVuSans-30" x="159.033203"/>
      </g>
     </g>
    </g>
   </g>
   <g id="line2d_16">
    <path d="M 92.290909 339.999984 
L 96.349091 339.99696 
L 100.407273 339.986376 
L 104.465455 339.968232 
L 108.523636 339.94404 
L 112.581818 339.912288 
L 116.64 339.872976 
L 120.698182 339.827616 
L 124.756364 339.774696 
L 128.814545 339.715728 
L 132.872727 339.6492 
L 136.930909 339.576624 
L 140.989091 339.498 
L 145.047273 339.413328 
L 149.105455 339.322608 
L 153.163636 339.22584 
L 157.221818 339.123024 
L 161.28 339.01416 
L 165.338182 338.90076 
L 169.396364 338.782824 
L 173.454545 338.65884 
L 177.512727 338.53032 
L 181.570909 338.398776 
L 185.629091 338.262696 
L 189.687273 338.12208 
L 193.745455 337.97844 
L 197.803636 337.833288 
L 201.861818 337.6836 
L 205.92 337.5324 
L 209.978182 337.379688 
L 214.036364 337.225464 
L 218.094545 337.069728 
L 222.152727 336.915504 
L 226.210909 336.759768 
L 230.269091 336.604032 
L 234.327273 336.45132 
L 238.385455 336.298608 
L 242.443636 336.14892 
L 246.501818 336.000744 
L 250.56 335.857104 
L 254.618182 335.716488 
L 258.676364 335.580408 
L 262.734545 335.448864 
L 266.792727 335.323368 
L 270.850909 335.20392 
L 274.909091 335.09052 
L 278.967273 334.98468 
L 283.025455 334.8864 
L 287.083636 334.79568 
L 291.141818 334.71252 
L 295.2 334.638432 
L 299.258182 334.573416 
L 303.316364 334.51596 
L 307.374545 334.469088 
L 311.432727 334.431288 
L 315.490909 334.40256 
L 319.549091 334.382904 
L 323.607273 334.37232 
L 327.665455 334.370808 
L 331.723636 334.376856 
L 335.781818 334.391976 
L 339.84 334.416168 
L 343.898182 334.446408 
L 347.956364 334.48572 
L 352.014545 334.53108 
L 356.072727 334.582488 
L 360.130909 334.639944 
L 364.189091 334.701936 
L 368.247273 334.769976 
L 372.305455 334.84104 
L 376.363636 334.91664 
L 380.421818 334.995264 
L 384.48 335.076912 
L 388.538182 335.160072 
L 392.596364 335.244744 
L 396.654545 335.329416 
L 400.712727 335.4156 
L 404.770909 335.501784 
L 408.829091 335.587968 
L 412.887273 335.67264 
L 416.945455 335.757312 
L 421.003636 335.83896 
L 425.061818 335.919096 
L 429.12 335.996208 
L 433.178182 336.071808 
L 437.236364 336.144384 
L 441.294545 336.212424 
L 445.352727 336.27744 
L 449.410909 336.33792 
L 453.469091 336.395376 
L 457.527273 336.448296 
L 461.585455 336.49668 
L 465.643636 336.540528 
L 469.701818 336.578328 
L 473.76 336.613104 
L 477.818182 336.641832 
L 481.876364 336.666024 
L 485.934545 336.684168 
L 489.992727 336.697776 
L 494.050909 336.705336 
L 498.109091 336.70836 
" clip-path="url(#p5653de18c6)" style="fill: none; stroke: #000000; stroke-opacity: 0.5; stroke-linecap: square"/>
   </g>
   <g id="line2d_17">
    <path d="M 92.290909 296.994168 
L 96.349091 296.998704 
L 100.407273 297.015336 
L 104.465455 297.042552 
L 108.523636 297.080352 
L 112.581818 297.128736 
L 116.64 297.187704 
L 120.698182 297.258768 
L 124.756364 297.338904 
L 128.814545 297.431136 
L 132.872727 297.53244 
L 136.930909 297.64584 
L 140.989091 297.768312 
L 145.047273 297.899856 
L 149.105455 298.043496 
L 153.163636 298.196208 
L 157.221818 298.357992 
L 161.28 298.528848 
L 165.338182 298.708776 
L 169.396364 298.896264 
L 173.454545 299.092824 
L 177.512727 299.295432 
L 181.570909 299.5056 
L 185.629091 299.723328 
L 189.687273 299.945592 
L 193.745455 300.173904 
L 197.803636 300.40524 
L 201.861818 300.641112 
L 205.92 300.880008 
L 209.978182 301.120416 
L 214.036364 301.362336 
L 218.094545 301.604256 
L 222.152727 301.846176 
L 226.210909 302.086584 
L 230.269091 302.323968 
L 234.327273 302.558328 
L 238.385455 302.788152 
L 242.443636 303.01344 
L 246.501818 303.23268 
L 250.56 303.44436 
L 254.618182 303.646968 
L 258.676364 303.842016 
L 262.734545 304.027992 
L 266.792727 304.203384 
L 270.850909 304.36668 
L 274.909091 304.51788 
L 278.967273 304.656984 
L 283.025455 304.78248 
L 287.083636 304.89588 
L 291.141818 304.992648 
L 295.2 305.07732 
L 299.258182 305.14536 
L 303.316364 305.199792 
L 307.374545 305.237592 
L 311.432727 305.261784 
L 315.490909 305.270856 
L 319.549091 305.263296 
L 323.607273 305.24364 
L 327.665455 305.208864 
L 331.723636 305.158968 
L 335.781818 305.096976 
L 339.84 305.022888 
L 343.898182 304.936704 
L 347.956364 304.839936 
L 352.014545 304.732584 
L 356.072727 304.614648 
L 360.130909 304.489152 
L 364.189091 304.356096 
L 368.247273 304.21548 
L 372.305455 304.070328 
L 376.363636 303.919128 
L 380.421818 303.764904 
L 384.48 303.606144 
L 388.538182 303.447384 
L 392.596364 303.287112 
L 396.654545 303.125328 
L 400.712727 302.965056 
L 404.770909 302.806296 
L 408.829091 302.649048 
L 412.887273 302.496336 
L 416.945455 302.345136 
L 421.003636 302.199984 
L 425.061818 302.057856 
L 429.12 301.921776 
L 433.178182 301.791744 
L 437.236364 301.66776 
L 441.294545 301.549824 
L 445.352727 301.439448 
L 449.410909 301.336632 
L 453.469091 301.239864 
L 457.527273 301.152168 
L 461.585455 301.072032 
L 465.643636 300.999456 
L 469.701818 300.935952 
L 473.76 300.880008 
L 477.818182 300.833136 
L 481.876364 300.795336 
L 485.934545 300.765096 
L 489.992727 300.742416 
L 494.050909 300.73032 
L 498.109091 300.725784 
" clip-path="url(#p5653de18c6)" style="fill: none; stroke: #000000; stroke-opacity: 0.5; stroke-linecap: square"/>
   </g>
   <g id="line2d_18">
    <path d="M 92.290909 249.612624 
L 96.349091 249.689736 
L 100.407273 249.901416 
L 104.465455 250.2144 
L 108.523636 250.5924 
L 112.581818 251.009712 
L 116.64 251.451216 
L 120.698182 251.904816 
L 124.756364 252.364464 
L 128.814545 252.824112 
L 132.872727 253.282248 
L 136.930909 253.731312 
L 140.989091 254.174328 
L 145.047273 254.60676 
L 149.105455 255.027096 
L 153.163636 255.433824 
L 157.221818 255.828456 
L 161.28 256.206456 
L 165.338182 256.570848 
L 169.396364 256.92012 
L 173.454545 257.25276 
L 177.512727 257.568768 
L 181.570909 257.868144 
L 185.629091 258.1524 
L 189.687273 258.421536 
L 193.745455 258.67404 
L 197.803636 258.911424 
L 201.861818 259.132176 
L 205.92 259.340832 
L 209.978182 259.534368 
L 214.036364 259.715808 
L 218.094545 259.88364 
L 222.152727 260.040888 
L 226.210909 260.18604 
L 230.269091 260.32212 
L 234.327273 260.449128 
L 238.385455 260.567064 
L 242.443636 260.678952 
L 246.501818 260.78328 
L 250.56 260.88156 
L 254.618182 260.975304 
L 258.676364 261.064512 
L 262.734545 261.150696 
L 266.792727 261.232344 
L 270.850909 261.31248 
L 274.909091 261.389592 
L 278.967273 261.466704 
L 283.025455 261.53928 
L 287.083636 261.611856 
L 291.141818 261.68292 
L 295.2 261.75096 
L 299.258182 261.817488 
L 303.316364 261.880992 
L 307.374545 261.941472 
L 311.432727 261.997416 
L 315.490909 262.050336 
L 319.549091 262.097208 
L 323.607273 262.138032 
L 327.665455 262.172808 
L 331.723636 262.200024 
L 335.781818 262.21968 
L 339.84 262.228752 
L 343.898182 262.228752 
L 347.956364 262.218168 
L 352.014545 262.193976 
L 356.072727 262.1592 
L 360.130909 262.109304 
L 364.189091 262.0458 
L 368.247273 261.967176 
L 372.305455 261.873432 
L 376.363636 261.761544 
L 380.421818 261.634536 
L 384.48 261.487872 
L 388.538182 261.324576 
L 392.596364 261.143136 
L 396.654545 260.94204 
L 400.712727 260.721288 
L 404.770909 260.48088 
L 408.829091 260.222328 
L 412.887273 259.942608 
L 416.945455 259.643232 
L 421.003636 259.325712 
L 425.061818 258.988536 
L 429.12 258.633216 
L 433.178182 258.25824 
L 437.236364 257.866632 
L 441.294545 257.458392 
L 445.352727 257.03352 
L 449.410909 256.59504 
L 453.469091 256.142952 
L 457.527273 255.678768 
L 461.585455 255.207024 
L 465.643636 254.72772 
L 469.701818 254.246904 
L 473.76 253.769112 
L 477.818182 253.301904 
L 481.876364 252.857376 
L 485.934545 252.453672 
L 489.992727 252.118008 
L 494.050909 251.888184 
L 498.109091 251.805024 
" clip-path="url(#p5653de18c6)" style="fill: none; stroke: #000000; stroke-opacity: 0.5; stroke-linecap: square"/>
   </g>
   <g id="line2d_19">
    <path d="M 92.290909 245.983824 
L 96.349091 245.91276 
L 100.407273 245.711664 
L 104.465455 245.42136 
L 108.523636 245.0736 
L 112.581818 244.6956 
L 116.64 244.305504 
L 120.698182 243.910872 
L 124.756364 243.5238 
L 128.814545 243.147312 
L 132.872727 242.788968 
L 136.930909 242.448768 
L 140.989091 242.131248 
L 145.047273 241.83792 
L 149.105455 241.571808 
L 153.163636 241.334424 
L 157.221818 241.125768 
L 161.28 240.94584 
L 165.338182 240.796152 
L 169.396364 240.676704 
L 173.454545 240.585984 
L 177.512727 240.52248 
L 181.570909 240.486192 
L 185.629091 240.47712 
L 189.687273 240.490728 
L 193.745455 240.527016 
L 197.803636 240.58296 
L 201.861818 240.657048 
L 205.92 240.746256 
L 209.978182 240.849072 
L 214.036364 240.962472 
L 218.094545 241.086456 
L 222.152727 241.214976 
L 226.210909 241.348032 
L 230.269091 241.4826 
L 234.327273 241.617168 
L 238.385455 241.748712 
L 242.443636 241.87572 
L 246.501818 241.998192 
L 250.56 242.111592 
L 254.618182 242.214408 
L 258.676364 242.308152 
L 262.734545 242.388288 
L 266.792727 242.456328 
L 270.850909 242.509248 
L 274.909091 242.54856 
L 278.967273 242.57124 
L 283.025455 242.5788 
L 287.083636 242.569728 
L 291.141818 242.544024 
L 295.2 242.5032 
L 299.258182 242.447256 
L 303.316364 242.376192 
L 307.374545 242.29152 
L 311.432727 242.19324 
L 315.490909 242.081352 
L 319.549091 241.960392 
L 323.607273 241.828848 
L 327.665455 241.689744 
L 331.723636 241.54308 
L 335.781818 241.39188 
L 339.84 241.236144 
L 343.898182 241.080408 
L 347.956364 240.926184 
L 352.014545 240.773472 
L 356.072727 240.625296 
L 360.130909 240.48468 
L 364.189091 240.353136 
L 368.247273 240.233688 
L 372.305455 240.127848 
L 376.363636 240.03864 
L 380.421818 239.967576 
L 384.48 239.91768 
L 388.538182 239.890464 
L 392.596364 239.88744 
L 396.654545 239.911632 
L 400.712727 239.964552 
L 404.770909 240.0462 
L 408.829091 240.1596 
L 412.887273 240.304752 
L 416.945455 240.481656 
L 421.003636 240.690312 
L 425.061818 240.932232 
L 429.12 241.205904 
L 433.178182 241.509816 
L 437.236364 241.843968 
L 441.294545 242.205336 
L 445.352727 242.592408 
L 449.410909 243.005184 
L 453.469091 243.437616 
L 457.527273 243.888192 
L 461.585455 244.353888 
L 465.643636 244.830168 
L 469.701818 245.312496 
L 473.76 245.793312 
L 477.818182 246.265056 
L 481.876364 246.71412 
L 485.934545 247.123872 
L 489.992727 247.46256 
L 494.050909 247.695408 
L 498.109091 247.778568 
" clip-path="url(#p5653de18c6)" style="fill: none; stroke: #000000; stroke-opacity: 0.5; stroke-linecap: square"/>
   </g>
   <g id="line2d_20">
    <path d="M 92.290909 184.463568 
L 96.349091 184.505904 
L 100.407273 184.626864 
L 104.465455 184.811328 
L 108.523636 185.042664 
L 112.581818 185.298192 
L 116.64 185.562792 
L 120.698182 185.81832 
L 124.756364 186.055704 
L 128.814545 186.262848 
L 132.872727 186.433704 
L 136.930909 186.560712 
L 140.989091 186.640848 
L 145.047273 186.668064 
L 149.105455 186.639336 
L 153.163636 186.553152 
L 157.221818 186.408 
L 161.28 186.200856 
L 165.338182 185.93172 
L 169.396364 185.602104 
L 173.454545 185.208984 
L 177.512727 184.753872 
L 181.570909 184.23828 
L 185.629091 183.662208 
L 189.687273 183.02868 
L 193.745455 182.337696 
L 197.803636 181.590768 
L 201.861818 180.79092 
L 205.92 179.938152 
L 209.978182 179.037 
L 214.036364 178.087464 
L 218.094545 177.092568 
L 222.152727 176.053824 
L 226.210909 174.972744 
L 230.269091 173.852352 
L 234.327273 172.69416 
L 238.385455 171.498168 
L 242.443636 170.268912 
L 246.501818 169.007904 
L 250.56 167.713632 
L 254.618182 166.390632 
L 258.676364 165.040416 
L 262.734545 163.662984 
L 266.792727 162.26136 
L 270.850909 160.835544 
L 274.909091 159.391584 
L 278.967273 157.92948 
L 283.025455 156.461328 
L 287.083636 155.027952 
L 291.141818 154.152504 
L 295.2 155.216952 
L 299.258182 156.662424 
L 303.316364 158.132088 
L 307.374545 159.594192 
L 311.432727 161.038152 
L 315.490909 162.460944 
L 319.549091 163.861056 
L 323.607273 165.235464 
L 327.665455 166.581144 
L 331.723636 167.899608 
L 335.781818 169.18632 
L 339.84 170.44128 
L 343.898182 171.661464 
L 347.956364 172.84536 
L 352.014545 173.991456 
L 356.072727 175.09824 
L 360.130909 176.162688 
L 364.189091 177.181776 
L 368.247273 178.157016 
L 372.305455 179.08236 
L 376.363636 179.95932 
L 380.421818 180.781848 
L 384.48 181.551456 
L 388.538182 182.263608 
L 392.596364 182.916792 
L 396.654545 183.511008 
L 400.712727 184.044744 
L 404.770909 184.513464 
L 408.829091 184.920192 
L 412.887273 185.260392 
L 416.945455 185.537088 
L 421.003636 185.747256 
L 425.061818 185.89392 
L 429.12 185.975568 
L 433.178182 185.993712 
L 437.236364 185.949864 
L 441.294545 185.847048 
L 445.352727 185.686776 
L 449.410909 185.472072 
L 453.469091 185.204448 
L 457.527273 184.889952 
L 461.585455 184.531608 
L 465.643636 184.136976 
L 469.701818 183.712104 
L 473.76 183.267576 
L 477.818182 182.815488 
L 481.876364 182.377008 
L 485.934545 181.973304 
L 489.992727 181.640664 
L 494.050909 181.416888 
L 498.109091 181.338264 
" clip-path="url(#p5653de18c6)" style="fill: none; stroke: #000000; stroke-opacity: 0.5; stroke-linecap: square"/>
   </g>
   <g id="line2d_21">
    <path d="M 92.290909 175.066488 
L 96.349091 174.983328 
L 100.407273 174.73536 
L 104.465455 174.339216 
L 108.523636 173.81304 
L 112.581818 173.176488 
L 116.64 172.446192 
L 120.698182 171.637272 
L 124.756364 170.760312 
L 128.814545 169.824384 
L 132.872727 168.83856 
L 136.930909 167.805864 
L 140.989091 166.732344 
L 145.047273 165.622536 
L 149.105455 164.47644 
L 153.163636 163.300104 
L 157.221818 162.092016 
L 161.28 160.856712 
L 165.338182 159.595704 
L 169.396364 158.310504 
L 173.454545 157.001112 
L 177.512727 155.66904 
L 181.570909 154.3158 
L 185.629091 152.942904 
L 189.687273 151.550352 
L 193.745455 150.141168 
L 197.803636 148.715352 
L 201.861818 147.275928 
L 205.92 145.822896 
L 209.978182 144.35928 
L 214.036364 142.891128 
L 218.094545 141.422976 
L 222.152727 139.963896 
L 226.210909 138.53808 
L 230.269091 137.186352 
L 234.327273 136.023624 
L 238.385455 135.323568 
L 242.443636 135.482328 
L 246.501818 136.433376 
L 250.56 137.771496 
L 254.618182 139.266864 
L 258.676364 140.82876 
L 262.734545 142.417872 
L 266.792727 144.016056 
L 270.850909 145.615752 
L 274.909091 147.206376 
L 278.967273 148.78188 
L 283.025455 150.333192 
L 287.083636 151.816464 
L 291.141818 152.708544 
L 295.2 151.625952 
L 299.258182 150.12756 
L 303.316364 148.5702 
L 307.374545 146.987136 
L 311.432727 145.38744 
L 315.490909 143.77716 
L 319.549091 142.157808 
L 323.607273 140.536944 
L 327.665455 138.917592 
L 331.723636 137.314872 
L 335.781818 135.746928 
L 339.84 134.256096 
L 343.898182 132.945192 
L 347.956364 132.054624 
L 352.014545 131.962392 
L 356.072727 132.688152 
L 360.130909 133.856928 
L 364.189091 135.213192 
L 368.247273 136.651104 
L 372.305455 138.12228 
L 376.363636 139.607064 
L 380.421818 141.094872 
L 384.48 142.578144 
L 388.538182 144.055368 
L 392.596364 145.520496 
L 396.654545 146.973528 
L 400.712727 148.412952 
L 404.770909 149.835744 
L 408.829091 151.243416 
L 412.887273 152.632944 
L 416.945455 154.004328 
L 421.003636 155.356056 
L 425.061818 156.686616 
L 429.12 157.996008 
L 433.178182 159.284232 
L 437.236364 160.546752 
L 441.294545 161.78508 
L 445.352727 162.996192 
L 449.410909 164.180088 
L 453.469091 165.33072 
L 457.527273 166.448088 
L 461.585455 167.527656 
L 465.643636 168.5664 
L 469.701818 169.553736 
L 473.76 170.485128 
L 477.818182 171.346968 
L 481.876364 172.121112 
L 485.934545 172.783368 
L 489.992727 173.301984 
L 494.050909 173.636136 
L 498.109091 173.75256 
" clip-path="url(#p5653de18c6)" style="fill: none; stroke: #000000; stroke-opacity: 0.5; stroke-linecap: square"/>
   </g>
   <g id="line2d_22">
    <path d="M 92.290909 98.441352 
L 96.349091 98.43984 
L 100.407273 98.436816 
L 104.465455 98.43228 
L 108.523636 98.42472 
L 112.581818 98.414136 
L 116.64 98.40204 
L 120.698182 98.388432 
L 124.756364 98.373312 
L 128.814545 98.35668 
L 132.872727 98.340048 
L 136.930909 98.320392 
L 140.989091 98.302248 
L 145.047273 98.287128 
L 149.105455 98.275032 
L 153.163636 98.279568 
L 157.221818 98.340048 
L 161.28 98.737704 
L 165.338182 100.048608 
L 169.396364 101.692152 
L 173.454545 103.402224 
L 177.512727 105.136488 
L 181.570909 106.882848 
L 185.629091 108.63828 
L 189.687273 110.398248 
L 193.745455 112.158216 
L 197.803636 113.918184 
L 201.861818 115.675128 
L 205.92 117.426024 
L 209.978182 119.166336 
L 214.036364 120.894552 
L 218.094545 122.6016 
L 222.152727 124.276896 
L 226.210909 125.900784 
L 230.269091 127.426392 
L 234.327273 128.741832 
L 238.385455 129.573432 
L 242.443636 129.523536 
L 246.501818 128.660184 
L 250.56 127.385568 
L 254.618182 125.931024 
L 258.676364 124.390296 
L 262.734545 122.79816 
L 266.792727 121.174272 
L 270.850909 119.53224 
L 274.909091 117.879624 
L 278.967273 116.227008 
L 283.025455 114.588 
L 287.083636 112.988304 
L 291.141818 111.4884 
L 295.2 110.247048 
L 299.258182 109.674 
L 303.316364 110.162376 
L 307.374545 111.362904 
L 311.432727 112.838616 
L 315.490909 114.417144 
L 319.549091 116.030448 
L 323.607273 117.651312 
L 327.665455 119.261592 
L 331.723636 120.844656 
L 335.781818 122.3748 
L 339.84 123.808176 
L 343.898182 125.044992 
L 347.956364 125.838792 
L 352.014545 125.816112 
L 356.072727 124.955784 
L 360.130909 123.631272 
L 364.189091 122.099616 
L 368.247273 120.468168 
L 372.305455 118.782288 
L 376.363636 117.063144 
L 380.421818 115.324344 
L 384.48 113.568912 
L 388.538182 111.80592 
L 392.596364 110.035368 
L 396.654545 108.261792 
L 400.712727 106.486704 
L 404.770909 104.71464 
L 408.829091 102.947112 
L 412.887273 101.19924 
L 416.945455 99.675144 
L 421.003636 99.486144 
L 425.061818 99.52092 
L 429.12 99.569304 
L 433.178182 99.617688 
L 437.236364 99.666072 
L 441.294545 99.712944 
L 445.352727 99.756792 
L 449.410909 99.799128 
L 453.469091 99.83844 
L 457.527273 99.874728 
L 461.585455 99.907992 
L 465.643636 99.93672 
L 469.701818 99.963936 
L 473.76 99.986616 
L 477.818182 100.006272 
L 481.876364 100.022904 
L 485.934545 100.036512 
L 489.992727 100.045584 
L 494.050909 100.05012 
L 498.109091 100.053144 
" clip-path="url(#p5653de18c6)" style="fill: none; stroke: #000000; stroke-opacity: 0.5; stroke-linecap: square"/>
   </g>
   <g id="line2d_23">
    <path d="M 92.290909 78.101928 
L 96.349091 78.212304 
L 100.407273 78.535872 
L 104.465455 79.062048 
L 108.523636 79.7742 
L 112.581818 80.654184 
L 116.64 81.67932 
L 120.698182 82.82844 
L 124.756364 84.0834 
L 128.814545 85.42908 
L 132.872727 86.848848 
L 136.930909 88.330608 
L 140.989091 89.862264 
L 145.047273 91.436256 
L 149.105455 93.040488 
L 153.163636 94.658328 
L 157.221818 96.245928 
L 161.28 97.516008 
L 165.338182 97.88796 
L 169.396364 97.94088 
L 173.454545 97.94088 
L 177.512727 97.922736 
L 181.570909 97.897032 
L 185.629091 97.869816 
L 189.687273 97.839576 
L 193.745455 97.807824 
L 197.803636 97.776072 
L 201.861818 97.74432 
L 205.92 97.71408 
L 209.978182 97.682328 
L 214.036364 97.6536 
L 218.094545 97.624872 
L 222.152727 97.599168 
L 226.210909 97.573464 
L 230.269091 97.550784 
L 234.327273 97.529616 
L 238.385455 97.511472 
L 242.443636 97.496352 
L 246.501818 97.482744 
L 250.56 97.473672 
L 254.618182 97.469136 
L 258.676364 97.469136 
L 262.734545 97.475184 
L 266.792727 97.493328 
L 270.850909 97.535664 
L 274.909091 97.652088 
L 278.967273 98.125344 
L 283.025455 99.419616 
L 287.083636 100.990584 
L 291.141818 102.511656 
L 295.2 103.775688 
L 299.258182 104.36688 
L 303.316364 103.896648 
L 307.374545 102.727872 
L 311.432727 101.339856 
L 315.490909 100.016856 
L 319.549091 99.0522 
L 323.607273 98.56836 
L 327.665455 98.3718 
L 331.723636 98.2962 
L 335.781818 98.276544 
L 339.84 98.285616 
L 343.898182 98.31132 
L 347.956364 98.347608 
L 352.014545 98.391456 
L 356.072727 98.441352 
L 360.130909 98.495784 
L 364.189091 98.55324 
L 368.247273 98.612208 
L 372.305455 98.6742 
L 376.363636 98.736192 
L 380.421818 98.801208 
L 384.48 98.864712 
L 388.538182 98.929728 
L 392.596364 98.994744 
L 396.654545 99.058248 
L 400.712727 99.12024 
L 404.770909 99.18072 
L 408.829091 99.236664 
L 412.887273 99.277488 
L 416.945455 99.09756 
L 421.003636 97.590096 
L 425.061818 95.867928 
L 429.12 94.14576 
L 433.178182 92.438712 
L 437.236364 90.749808 
L 441.294545 89.086608 
L 445.352727 87.453648 
L 449.410909 85.856976 
L 453.469091 84.304152 
L 457.527273 82.80576 
L 461.585455 81.370872 
L 465.643636 80.011584 
L 469.701818 78.743016 
L 473.76 77.580288 
L 477.818182 76.54608 
L 481.876364 75.658536 
L 485.934545 74.937312 
L 489.992727 74.4066 
L 494.050909 74.080008 
L 498.109091 73.969632 
" clip-path="url(#p5653de18c6)" style="fill: none; stroke: #000000; stroke-opacity: 0.5; stroke-linecap: square"/>
   </g>
   <g id="patch_3">
    <path d="M 72 384.48 
L 72 51.84 
" style="fill: none; stroke: #000000; stroke-width: 0.8; stroke-linejoin: miter; stroke-linecap: square"/>
   </g>
   <g id="patch_4">
    <path d="M 518.4 384.48 
L 518.4 51.84 
" style="fill: none; stroke: #000000; stroke-width: 0.8; stroke-linejoin: miter; stroke-linecap: square"/>
   </g>
   <g id="patch_5">
    <path d="M 72 384.48 
L 518.4 384.48 
" style="fill: none; stroke: #000000; stroke-width: 0.8; stroke-linejoin: miter; stroke-linecap: square"/>
   </g>
   <g id="patch_6">
    <path d="M 72 51.84 
L 518.4 51.84 
" style="fill: none; stroke: #000000; stroke-width: 0.8; stroke-linejoin: miter; stroke-linecap: square"/>
   </g>
  </g>
 </g>
 <defs>
  <clipPath id="p5653de18c6">
   <rect x="72" y="51.84" width="446.4" height="332.64"/>
  </clipPath>
 </defs>
</svg>
