<?xml version="1.0" encoding="utf-8" standalone="no"?>
<!DOCTYPE svg PUBLIC "-//W3C//DTD SVG 1.1//EN"
  "http://www.w3.org/Graphics/SVG/1.1/DTD/svg11.dtd">
<svg xmlns:xlink="http://www.w3.org/1999/xlink" width="576pt" height="432pt" viewBox="0 0 576 432" xmlns="http://www.w3.org/2000/svg" version="1.1">
 <metadata>
  <rdf:RDF xmlns:dc="http://purl.org/dc/elements/1.1/" xmlns:cc="http://creativecommons.org/ns#" xmlns:rdf="http://www.w3.org/1999/02/22-rdf-syntax-ns#">
   <cc:Work>
    <dc:type rdf:resource="http://purl.org/dc/dcmitype/StillImage"/>
    <dc:date>2023-05-02T22:24:11.348476</dc:date>
    <dc:format>image/svg+xml</dc:format>
    <dc:creator>
     <cc:Agent>
      <dc:title>Matplotlib v3.7.1, https://matplotlib.org/</dc:title>
     </cc:Agent>
    </dc:creator>
   </cc:Work>
  </rdf:RDF>
 </metadata>
 <defs>
  <style type="text/css">*{stroke-linejoin: round; stroke-linecap: butt}</style>
 </defs>
 <g id="figure_1">
  <g id="patch_1">
   <path d="M 0 432 
L 576 432 
L 576 0 
L 0 0 
z
" style="fill: #ffffff"/>
  </g>
  <g id="axes_1">
   <g id="patch_2">
    <path d="M 72 384.48 
L 518.4 384.48 
L 518.4 51.84 
L 72 51.84 
z
" style="fill: #ffffff"/>
   </g>
   <g id="matplotlib.axis_1">
    <g id="xtick_1">
     <g id="line2d_1">
      <defs>
       <path id="m11a92deb4a" d="M 0 0 
L 0 3.5 
" style="stroke: #000000; stroke-width: 0.8"/>
      </defs>
      <g>
       <use xlink:href="#m11a92deb4a" x="92.290909" y="384.48" style="stroke: #000000; stroke-width: 0.8"/>
      </g>
     </g>
     <g id="text_1">
      <!-- 0.0 -->
      <g transform="translate(84.339347 399.078438) scale(0.1 -0.1)">
       <defs>
        <path id="DejaVuSans-30" d="M 2034 4250 
Q 1547 4250 1301 3770 
Q 1056 3291 1056 2328 
Q 1056 1369 1301 889 
Q 1547 409 2034 409 
Q 2525 409 2770 889 
Q 3016 1369 3016 2328 
Q 3016 3291 2770 3770 
Q 2525 4250 2034 4250 
z
M 2034 4750 
Q 2819 4750 3233 4129 
Q 3647 3509 3647 2328 
Q 3647 1150 3233 529 
Q 2819 -91 2034 -91 
Q 1250 -91 836 529 
Q 422 1150 422 2328 
Q 422 3509 836 4129 
Q 1250 4750 2034 4750 
z
" transform="scale(0.015625)"/>
        <path id="DejaVuSans-2e" d="M 684 794 
L 1344 794 
L 1344 0 
L 684 0 
L 684 794 
z
" transform="scale(0.015625)"/>
       </defs>
       <use xlink:href="#DejaVuSans-30"/>
       <use xlink:href="#DejaVuSans-2e" x="63.623047"/>
       <use xlink:href="#DejaVuSans-30" x="95.410156"/>
      </g>
     </g>
    </g>
    <g id="xtick_2">
     <g id="line2d_2">
      <g>
       <use xlink:href="#m11a92deb4a" x="173.454545" y="384.48" style="stroke: #000000; stroke-width: 0.8"/>
      </g>
     </g>
     <g id="text_2">
      <!-- 0.2 -->
      <g transform="translate(165.502983 399.078438) scale(0.1 -0.1)">
       <defs>
        <path id="DejaVuSans-32" d="M 1228 531 
L 3431 531 
L 3431 0 
L 469 0 
L 469 531 
Q 828 903 1448 1529 
Q 2069 2156 2228 2338 
Q 2531 2678 2651 2914 
Q 2772 3150 2772 3378 
Q 2772 3750 2511 3984 
Q 2250 4219 1831 4219 
Q 1534 4219 1204 4116 
Q 875 4013 500 3803 
L 500 4441 
Q 881 4594 1212 4672 
Q 1544 4750 1819 4750 
Q 2544 4750 2975 4387 
Q 3406 4025 3406 3419 
Q 3406 3131 3298 2873 
Q 3191 2616 2906 2266 
Q 2828 2175 2409 1742 
Q 1991 1309 1228 531 
z
" transform="scale(0.015625)"/>
       </defs>
       <use xlink:href="#DejaVuSans-30"/>
       <use xlink:href="#DejaVuSans-2e" x="63.623047"/>
       <use xlink:href="#DejaVuSans-32" x="95.410156"/>
      </g>
     </g>
    </g>
    <g id="xtick_3">
     <g id="line2d_3">
      <g>
       <use xlink:href="#m11a92deb4a" x="254.618182" y="384.48" style="stroke: #000000; stroke-width: 0.8"/>
      </g>
     </g>
     <g id="text_3">
      <!-- 0.4 -->
      <g transform="translate(246.666619 399.078438) scale(0.1 -0.1)">
       <defs>
        <path id="DejaVuSans-34" d="M 2419 4116 
L 825 1625 
L 2419 1625 
L 2419 4116 
z
M 2253 4666 
L 3047 4666 
L 3047 1625 
L 3713 1625 
L 3713 1100 
L 3047 1100 
L 3047 0 
L 2419 0 
L 2419 1100 
L 313 1100 
L 313 1709 
L 2253 4666 
z
" transform="scale(0.015625)"/>
       </defs>
       <use xlink:href="#DejaVuSans-30"/>
       <use xlink:href="#DejaVuSans-2e" x="63.623047"/>
       <use xlink:href="#DejaVuSans-34" x="95.410156"/>
      </g>
     </g>
    </g>
    <g id="xtick_4">
     <g id="line2d_4">
      <g>
       <use xlink:href="#m11a92deb4a" x="335.781818" y="384.48" style="stroke: #000000; stroke-width: 0.8"/>
      </g>
     </g>
     <g id="text_4">
      <!-- 0.6 -->
      <g transform="translate(327.830256 399.078438) scale(0.1 -0.1)">
       <defs>
        <path id="DejaVuSans-36" d="M 2113 2584 
Q 1688 2584 1439 2293 
Q 1191 2003 1191 1497 
Q 1191 994 1439 701 
Q 1688 409 2113 409 
Q 2538 409 2786 701 
Q 3034 994 3034 1497 
Q 3034 2003 2786 2293 
Q 2538 2584 2113 2584 
z
M 3366 4563 
L 3366 3988 
Q 3128 4100 2886 4159 
Q 2644 4219 2406 4219 
Q 1781 4219 1451 3797 
Q 1122 3375 1075 2522 
Q 1259 2794 1537 2939 
Q 1816 3084 2150 3084 
Q 2853 3084 3261 2657 
Q 3669 2231 3669 1497 
Q 3669 778 3244 343 
Q 2819 -91 2113 -91 
Q 1303 -91 875 529 
Q 447 1150 447 2328 
Q 447 3434 972 4092 
Q 1497 4750 2381 4750 
Q 2619 4750 2861 4703 
Q 3103 4656 3366 4563 
z
" transform="scale(0.015625)"/>
       </defs>
       <use xlink:href="#DejaVuSans-30"/>
       <use xlink:href="#DejaVuSans-2e" x="63.623047"/>
       <use xlink:href="#DejaVuSans-36" x="95.410156"/>
      </g>
     </g>
    </g>
    <g id="xtick_5">
     <g id="line2d_5">
      <g>
       <use xlink:href="#m11a92deb4a" x="416.945455" y="384.48" style="stroke: #000000; stroke-width: 0.8"/>
      </g>
     </g>
     <g id="text_5">
      <!-- 0.8 -->
      <g transform="translate(408.993892 399.078438) scale(0.1 -0.1)">
       <defs>
        <path id="DejaVuSans-38" d="M 2034 2216 
Q 1584 2216 1326 1975 
Q 1069 1734 1069 1313 
Q 1069 891 1326 650 
Q 1584 409 2034 409 
Q 2484 409 2743 651 
Q 3003 894 3003 1313 
Q 3003 1734 2745 1975 
Q 2488 2216 2034 2216 
z
M 1403 2484 
Q 997 2584 770 2862 
Q 544 3141 544 3541 
Q 544 4100 942 4425 
Q 1341 4750 2034 4750 
Q 2731 4750 3128 4425 
Q 3525 4100 3525 3541 
Q 3525 3141 3298 2862 
Q 3072 2584 2669 2484 
Q 3125 2378 3379 2068 
Q 3634 1759 3634 1313 
Q 3634 634 3220 271 
Q 2806 -91 2034 -91 
Q 1263 -91 848 271 
Q 434 634 434 1313 
Q 434 1759 690 2068 
Q 947 2378 1403 2484 
z
M 1172 3481 
Q 1172 3119 1398 2916 
Q 1625 2713 2034 2713 
Q 2441 2713 2670 2916 
Q 2900 3119 2900 3481 
Q 2900 3844 2670 4047 
Q 2441 4250 2034 4250 
Q 1625 4250 1398 4047 
Q 1172 3844 1172 3481 
z
" transform="scale(0.015625)"/>
       </defs>
       <use xlink:href="#DejaVuSans-30"/>
       <use xlink:href="#DejaVuSans-2e" x="63.623047"/>
       <use xlink:href="#DejaVuSans-38" x="95.410156"/>
      </g>
     </g>
    </g>
    <g id="xtick_6">
     <g id="line2d_6">
      <g>
       <use xlink:href="#m11a92deb4a" x="498.109091" y="384.48" style="stroke: #000000; stroke-width: 0.8"/>
      </g>
     </g>
     <g id="text_6">
      <!-- 1.0 -->
      <g transform="translate(490.157528 399.078438) scale(0.1 -0.1)">
       <defs>
        <path id="DejaVuSans-31" d="M 794 531 
L 1825 531 
L 1825 4091 
L 703 3866 
L 703 4441 
L 1819 4666 
L 2450 4666 
L 2450 531 
L 3481 531 
L 3481 0 
L 794 0 
L 794 531 
z
" transform="scale(0.015625)"/>
       </defs>
       <use xlink:href="#DejaVuSans-31"/>
       <use xlink:href="#DejaVuSans-2e" x="63.623047"/>
       <use xlink:href="#DejaVuSans-30" x="95.410156"/>
      </g>
     </g>
    </g>
   </g>
   <g id="matplotlib.axis_2">
    <g id="ytick_1">
     <g id="line2d_7">
      <defs>
       <path id="m6d8a9d3df8" d="M 0 0 
L -3.5 0 
" style="stroke: #000000; stroke-width: 0.8"/>
      </defs>
      <g>
       <use xlink:href="#m6d8a9d3df8" x="72" y="369.36" style="stroke: #000000; stroke-width: 0.8"/>
      </g>
     </g>
     <g id="text_7">
      <!-- −5.0 -->
      <g transform="translate(40.717187 373.159219) scale(0.1 -0.1)">
       <defs>
        <path id="DejaVuSans-2212" d="M 678 2272 
L 4684 2272 
L 4684 1741 
L 678 1741 
L 678 2272 
z
" transform="scale(0.015625)"/>
        <path id="DejaVuSans-35" d="M 691 4666 
L 3169 4666 
L 3169 4134 
L 1269 4134 
L 1269 2991 
Q 1406 3038 1543 3061 
Q 1681 3084 1819 3084 
Q 2600 3084 3056 2656 
Q 3513 2228 3513 1497 
Q 3513 744 3044 326 
Q 2575 -91 1722 -91 
Q 1428 -91 1123 -41 
Q 819 9 494 109 
L 494 744 
Q 775 591 1075 516 
Q 1375 441 1709 441 
Q 2250 441 2565 725 
Q 2881 1009 2881 1497 
Q 2881 1984 2565 2268 
Q 2250 2553 1709 2553 
Q 1456 2553 1204 2497 
Q 953 2441 691 2322 
L 691 4666 
z
" transform="scale(0.015625)"/>
       </defs>
       <use xlink:href="#DejaVuSans-2212"/>
       <use xlink:href="#DejaVuSans-35" x="83.789062"/>
       <use xlink:href="#DejaVuSans-2e" x="147.412109"/>
       <use xlink:href="#DejaVuSans-30" x="179.199219"/>
      </g>
     </g>
    </g>
    <g id="ytick_2">
     <g id="line2d_8">
      <g>
       <use xlink:href="#m6d8a9d3df8" x="72" y="331.56" style="stroke: #000000; stroke-width: 0.8"/>
      </g>
     </g>
     <g id="text_8">
      <!-- −2.5 -->
      <g transform="translate(40.717187 335.359219) scale(0.1 -0.1)">
       <use xlink:href="#DejaVuSans-2212"/>
       <use xlink:href="#DejaVuSans-32" x="83.789062"/>
       <use xlink:href="#DejaVuSans-2e" x="147.412109"/>
       <use xlink:href="#DejaVuSans-35" x="179.199219"/>
      </g>
     </g>
    </g>
    <g id="ytick_3">
     <g id="line2d_9">
      <g>
       <use xlink:href="#m6d8a9d3df8" x="72" y="293.76" style="stroke: #000000; stroke-width: 0.8"/>
      </g>
     </g>
     <g id="text_9">
      <!-- 0.0 -->
      <g transform="translate(49.096875 297.559219) scale(0.1 -0.1)">
       <use xlink:href="#DejaVuSans-30"/>
       <use xlink:href="#DejaVuSans-2e" x="63.623047"/>
       <use xlink:href="#DejaVuSans-30" x="95.410156"/>
      </g>
     </g>
    </g>
    <g id="ytick_4">
     <g id="line2d_10">
      <g>
       <use xlink:href="#m6d8a9d3df8" x="72" y="255.96" style="stroke: #000000; stroke-width: 0.8"/>
      </g>
     </g>
     <g id="text_10">
      <!-- 2.5 -->
      <g transform="translate(49.096875 259.759219) scale(0.1 -0.1)">
       <use xlink:href="#DejaVuSans-32"/>
       <use xlink:href="#DejaVuSans-2e" x="63.623047"/>
       <use xlink:href="#DejaVuSans-35" x="95.410156"/>
      </g>
     </g>
    </g>
    <g id="ytick_5">
     <g id="line2d_11">
      <g>
       <use xlink:href="#m6d8a9d3df8" x="72" y="218.16" style="stroke: #000000; stroke-width: 0.8"/>
      </g>
     </g>
     <g id="text_11">
      <!-- 5.0 -->
      <g transform="translate(49.096875 221.959219) scale(0.1 -0.1)">
       <use xlink:href="#DejaVuSans-35"/>
       <use xlink:href="#DejaVuSans-2e" x="63.623047"/>
       <use xlink:href="#DejaVuSans-30" x="95.410156"/>
      </g>
     </g>
    </g>
    <g id="ytick_6">
     <g id="line2d_12">
      <g>
       <use xlink:href="#m6d8a9d3df8" x="72" y="180.36" style="stroke: #000000; stroke-width: 0.8"/>
      </g>
     </g>
     <g id="text_12">
      <!-- 7.5 -->
      <g transform="translate(49.096875 184.159219) scale(0.1 -0.1)">
       <defs>
        <path id="DejaVuSans-37" d="M 525 4666 
L 3525 4666 
L 3525 4397 
L 1831 0 
L 1172 0 
L 2766 4134 
L 525 4134 
L 525 4666 
z
" transform="scale(0.015625)"/>
       </defs>
       <use xlink:href="#DejaVuSans-37"/>
       <use xlink:href="#DejaVuSans-2e" x="63.623047"/>
       <use xlink:href="#DejaVuSans-35" x="95.410156"/>
      </g>
     </g>
    </g>
    <g id="ytick_7">
     <g id="line2d_13">
      <g>
       <use xlink:href="#m6d8a9d3df8" x="72" y="142.56" style="stroke: #000000; stroke-width: 0.8"/>
      </g>
     </g>
     <g id="text_13">
      <!-- 10.0 -->
      <g transform="translate(42.734375 146.359219) scale(0.1 -0.1)">
       <use xlink:href="#DejaVuSans-31"/>
       <use xlink:href="#DejaVuSans-30" x="63.623047"/>
       <use xlink:href="#DejaVuSans-2e" x="127.246094"/>
       <use xlink:href="#DejaVuSans-30" x="159.033203"/>
      </g>
     </g>
    </g>
    <g id="ytick_8">
     <g id="line2d_14">
      <g>
       <use xlink:href="#m6d8a9d3df8" x="72" y="104.76" style="stroke: #000000; stroke-width: 0.8"/>
      </g>
     </g>
     <g id="text_14">
      <!-- 12.5 -->
      <g transform="translate(42.734375 108.559219) scale(0.1 -0.1)">
       <use xlink:href="#DejaVuSans-31"/>
       <use xlink:href="#DejaVuSans-32" x="63.623047"/>
       <use xlink:href="#DejaVuSans-2e" x="127.246094"/>
       <use xlink:href="#DejaVuSans-35" x="159.033203"/>
      </g>
     </g>
    </g>
    <g id="ytick_9">
     <g id="line2d_15">
      <g>
       <use xlink:href="#m6d8a9d3df8" x="72" y="66.96" style="stroke: #000000; stroke-width: 0.8"/>
      </g>
     </g>
     <g id="text_15">
      <!-- 15.0 -->
      <g transform="translate(42.734375 70.759219) scale(0.1 -0.1)">
       <use xlink:href="#DejaVuSans-31"/>
       <use xlink:href="#DejaVuSans-35" x="63.623047"/>
       <use xlink:href="#DejaVuSans-2e" x="127.246094"/>
       <use xlink:href="#DejaVuSans-30" x="159.033203"/>
      </g>
     </g>
    </g>
   </g>
   <g id="line2d_16">
    <path d="M 92.290909 376.711344 
L 96.349091 376.705296 
L 100.407273 376.687152 
L 104.465455 376.6554 
L 108.523636 376.611552 
L 112.581818 376.554096 
L 116.64 376.484544 
L 120.698182 376.402896 
L 124.756364 376.309152 
L 128.814545 376.2018 
L 132.872727 376.082352 
L 136.930909 375.950808 
L 140.989091 375.805656 
L 145.047273 375.648408 
L 149.105455 375.479064 
L 153.163636 375.297624 
L 157.221818 375.102576 
L 161.28 374.895432 
L 165.338182 374.676192 
L 169.396364 374.444856 
L 173.454545 374.199912 
L 177.512727 373.942872 
L 181.570909 373.675248 
L 185.629091 373.394016 
L 189.687273 373.099176 
L 193.745455 372.793752 
L 197.803636 372.476232 
L 201.861818 372.145104 
L 205.92 371.80188 
L 209.978182 371.448072 
L 214.036364 371.080656 
L 218.094545 370.701144 
L 222.152727 370.311048 
L 226.210909 369.907344 
L 230.269091 369.493056 
L 234.327273 369.06516 
L 238.385455 368.62668 
L 242.443636 368.176104 
L 246.501818 367.713432 
L 250.56 367.238664 
L 254.618182 366.7518 
L 258.676364 366.254352 
L 262.734545 365.744808 
L 266.792727 365.22468 
L 270.850909 364.690944 
L 274.909091 364.148136 
L 278.967273 363.59172 
L 283.025455 363.026232 
L 287.083636 362.447136 
L 291.141818 361.858968 
L 295.2 361.258704 
L 299.258182 360.647856 
L 303.316364 360.024912 
L 307.374545 359.392896 
L 311.432727 358.748784 
L 315.490909 358.094088 
L 319.549091 357.428808 
L 323.607273 356.752944 
L 327.665455 356.068008 
L 331.723636 355.370976 
L 335.781818 354.664872 
L 339.84 353.948184 
L 343.898182 353.220912 
L 347.956364 352.484568 
L 352.014545 351.739152 
L 356.072727 350.983152 
L 360.130909 350.21808 
L 364.189091 349.443936 
L 368.247273 348.66072 
L 372.305455 347.868432 
L 376.363636 347.067072 
L 380.421818 346.25664 
L 384.48 345.438648 
L 388.538182 344.611584 
L 392.596364 343.778472 
L 396.654545 342.936288 
L 400.712727 342.086544 
L 404.770909 341.22924 
L 408.829091 340.365888 
L 412.887273 339.496488 
L 416.945455 338.619528 
L 421.003636 337.738032 
L 425.061818 336.850488 
L 429.12 335.958408 
L 433.178182 335.061792 
L 437.236364 334.162152 
L 441.294545 333.261 
L 445.352727 332.356824 
L 449.410909 331.45416 
L 453.469091 330.551496 
L 457.527273 329.653368 
L 461.585455 328.761288 
L 465.643636 327.881304 
L 469.701818 327.01644 
L 473.76 326.174256 
L 477.818182 325.369872 
L 481.876364 324.61992 
L 485.934545 323.953128 
L 489.992727 323.411832 
L 494.050909 323.048952 
L 498.109091 322.920432 
" clip-path="url(#p55266a6868)" style="fill: none; stroke: #000000; stroke-opacity: 0.5; stroke-linecap: square"/>
   </g>
   <g id="line2d_17">
    <path d="M 92.290909 231.666696 
L 96.349091 231.742296 
L 100.407273 231.96456 
L 104.465455 232.31988 
L 108.523636 232.791624 
L 112.581818 233.358624 
L 116.64 234.002736 
L 120.698182 234.70884 
L 124.756364 235.463328 
L 128.814545 236.25864 
L 132.872727 237.084192 
L 136.930909 237.933936 
L 140.989091 238.803336 
L 145.047273 239.687856 
L 149.105455 240.584472 
L 153.163636 241.49016 
L 157.221818 242.403408 
L 161.28 243.321192 
L 165.338182 244.243512 
L 169.396364 245.168856 
L 173.454545 246.0942 
L 177.512727 247.021056 
L 181.570909 247.947912 
L 185.629091 248.874768 
L 189.687273 249.7986 
L 193.745455 250.722432 
L 197.803636 251.64324 
L 201.861818 252.561024 
L 205.92 253.475784 
L 209.978182 254.389032 
L 214.036364 255.297744 
L 218.094545 256.203432 
L 222.152727 257.104584 
L 226.210909 258.002712 
L 230.269091 258.897816 
L 234.327273 259.788384 
L 238.385455 260.675928 
L 242.443636 261.558936 
L 246.501818 262.43892 
L 250.56 263.314368 
L 254.618182 264.186792 
L 258.676364 265.056192 
L 262.734545 265.922568 
L 266.792727 266.78592 
L 270.850909 267.644736 
L 274.909091 268.503552 
L 278.967273 269.357832 
L 283.025455 270.2106 
L 287.083636 271.061856 
L 291.141818 271.910088 
L 295.2 272.75832 
L 299.258182 273.60504 
L 303.316364 274.45176 
L 307.374545 275.296968 
L 311.432727 276.142176 
L 315.490909 276.987384 
L 319.549091 277.834104 
L 323.607273 278.680824 
L 327.665455 279.529056 
L 331.723636 280.380312 
L 335.781818 281.231568 
L 339.84 282.08736 
L 343.898182 282.944664 
L 347.956364 283.804992 
L 352.014545 284.668344 
L 356.072727 285.536232 
L 360.130909 286.408656 
L 364.189091 287.284104 
L 368.247273 288.164088 
L 372.305455 289.048608 
L 376.363636 289.939176 
L 380.421818 290.832768 
L 384.48 291.732408 
L 388.538182 292.638096 
L 392.596364 293.546808 
L 396.654545 294.461568 
L 400.712727 295.380864 
L 404.770909 296.304696 
L 408.829091 297.233064 
L 412.887273 298.165968 
L 416.945455 299.103408 
L 421.003636 300.04236 
L 425.061818 300.985848 
L 429.12 301.930848 
L 433.178182 302.878872 
L 437.236364 303.826896 
L 441.294545 304.77492 
L 445.352727 305.721432 
L 449.410909 306.66492 
L 453.469091 307.605384 
L 457.527273 308.538288 
L 461.585455 309.46212 
L 465.643636 310.372344 
L 469.701818 311.264424 
L 473.76 312.127776 
L 477.818182 312.951816 
L 481.876364 313.716888 
L 485.934545 314.395776 
L 489.992727 314.947656 
L 494.050909 315.315072 
L 498.109091 315.446616 
" clip-path="url(#p55266a6868)" style="fill: none; stroke: #000000; stroke-opacity: 0.5; stroke-linecap: square"/>
   </g>
   <g id="line2d_18">
    <path d="M 92.290909 219.222936 
L 96.349091 219.159432 
L 100.407273 218.973456 
L 104.465455 218.678616 
L 108.523636 218.29608 
L 112.581818 217.843992 
L 116.64 217.345032 
L 120.698182 216.815832 
L 124.756364 216.273024 
L 128.814545 215.728704 
L 132.872727 215.197992 
L 136.930909 214.694496 
L 140.989091 214.2288 
L 145.047273 213.817536 
L 149.105455 213.484896 
L 153.163636 213.259608 
L 157.221818 213.180984 
L 161.28 213.271704 
L 165.338182 213.519672 
L 169.396364 213.882552 
L 173.454545 214.31952 
L 177.512727 214.806384 
L 181.570909 215.328024 
L 185.629091 215.873856 
L 189.687273 216.437832 
L 193.745455 217.01844 
L 197.803636 217.611144 
L 201.861818 218.214432 
L 205.92 218.828304 
L 209.978182 219.449736 
L 214.036364 220.078728 
L 218.094545 220.713768 
L 222.152727 221.35788 
L 226.210909 222.006528 
L 230.269091 222.662736 
L 234.327273 223.326504 
L 238.385455 223.997832 
L 242.443636 224.67672 
L 246.501818 225.36468 
L 250.56 226.061712 
L 254.618182 226.769328 
L 258.676364 227.490552 
L 262.734545 228.223872 
L 266.792727 228.9708 
L 270.850909 229.732848 
L 274.909091 230.510016 
L 278.967273 231.303816 
L 283.025455 232.111224 
L 287.083636 232.933752 
L 291.141818 233.768376 
L 295.2 234.616608 
L 299.258182 235.473912 
L 303.316364 236.338776 
L 307.374545 237.209688 
L 311.432727 238.085136 
L 315.490909 238.962096 
L 319.549091 239.839056 
L 323.607273 240.714504 
L 327.665455 241.585416 
L 331.723636 242.45028 
L 335.781818 243.309096 
L 339.84 244.15884 
L 343.898182 244.999512 
L 347.956364 245.828088 
L 352.014545 246.644568 
L 356.072727 247.44744 
L 360.130909 248.235192 
L 364.189091 249.006312 
L 368.247273 249.762312 
L 372.305455 250.500168 
L 376.363636 251.218368 
L 380.421818 251.918424 
L 384.48 252.598824 
L 388.538182 253.258056 
L 392.596364 253.897632 
L 396.654545 254.514528 
L 400.712727 255.108744 
L 404.770909 255.681792 
L 408.829091 256.230648 
L 412.887273 256.756824 
L 416.945455 257.26032 
L 421.003636 257.738112 
L 425.061818 258.193224 
L 429.12 258.624144 
L 433.178182 259.030872 
L 437.236364 259.413408 
L 441.294545 259.77024 
L 445.352727 260.10288 
L 449.410909 260.411328 
L 453.469091 260.695584 
L 457.527273 260.954136 
L 461.585455 261.188496 
L 465.643636 261.398664 
L 469.701818 261.583128 
L 473.76 261.7434 
L 477.818182 261.87948 
L 481.876364 261.989856 
L 485.934545 262.07604 
L 489.992727 262.138032 
L 494.050909 262.17432 
L 498.109091 262.186416 
" clip-path="url(#p55266a6868)" style="fill: none; stroke: #000000; stroke-opacity: 0.5; stroke-linecap: square"/>
   </g>
   <g id="line2d_19">
    <path d="M 92.290909 207.208584 
L 96.349091 207.22824 
L 100.407273 207.284184 
L 104.465455 207.377928 
L 108.523636 207.506448 
L 112.581818 207.671256 
L 116.64 207.869328 
L 120.698182 208.099152 
L 124.756364 208.359216 
L 128.814545 208.644984 
L 132.872727 208.954944 
L 136.930909 209.281536 
L 140.989091 209.621736 
L 145.047273 209.963448 
L 149.105455 210.29004 
L 153.163636 210.575808 
L 157.221818 210.787488 
L 161.28 210.905424 
L 165.338182 210.944736 
L 169.396364 210.949272 
L 173.454545 210.961368 
L 177.512727 211.009752 
L 181.570909 211.10652 
L 185.629091 211.260744 
L 189.687273 211.47696 
L 193.745455 211.753656 
L 197.803636 212.093856 
L 201.861818 212.491512 
L 205.92 212.945112 
L 209.978182 213.451632 
L 214.036364 214.005024 
L 218.094545 214.602264 
L 222.152727 215.237304 
L 226.210909 215.90712 
L 230.269091 216.605664 
L 234.327273 217.3284 
L 238.385455 218.072304 
L 242.443636 218.831328 
L 246.501818 219.600936 
L 250.56 220.378104 
L 254.618182 221.158296 
L 258.676364 221.936976 
L 262.734545 222.71112 
L 266.792727 223.476192 
L 270.850909 224.229168 
L 274.909091 224.968536 
L 278.967273 225.692784 
L 283.025455 226.397376 
L 287.083636 227.083824 
L 291.141818 227.750616 
L 295.2 228.39624 
L 299.258182 229.02372 
L 303.316364 229.631544 
L 307.374545 230.221224 
L 311.432727 230.79276 
L 315.490909 231.347664 
L 319.549091 231.885936 
L 323.607273 232.407576 
L 327.665455 232.915608 
L 331.723636 233.40852 
L 335.781818 233.886312 
L 339.84 234.352008 
L 343.898182 234.804096 
L 347.956364 235.242576 
L 352.014545 235.667448 
L 356.072727 236.081736 
L 360.130909 236.482416 
L 364.189091 236.871 
L 368.247273 237.247488 
L 372.305455 237.61188 
L 376.363636 237.964176 
L 380.421818 238.305888 
L 384.48 238.635504 
L 388.538182 238.953024 
L 392.596364 239.258448 
L 396.654545 239.553288 
L 400.712727 239.836032 
L 404.770909 240.10668 
L 408.829091 240.366744 
L 412.887273 240.614712 
L 416.945455 240.852096 
L 421.003636 241.075872 
L 425.061818 241.290576 
L 429.12 241.491672 
L 433.178182 241.682184 
L 437.236364 241.862112 
L 441.294545 242.029944 
L 445.352727 242.18568 
L 449.410909 242.32932 
L 453.469091 242.462376 
L 457.527273 242.584848 
L 461.585455 242.693712 
L 465.643636 242.791992 
L 469.701818 242.879688 
L 473.76 242.953776 
L 477.818182 243.01728 
L 481.876364 243.0702 
L 485.934545 243.111024 
L 489.992727 243.139752 
L 494.050909 243.156384 
L 498.109091 243.162432 
" clip-path="url(#p55266a6868)" style="fill: none; stroke: #000000; stroke-opacity: 0.5; stroke-linecap: square"/>
   </g>
   <g id="line2d_20">
    <path d="M 92.290909 163.480032 
L 96.349091 163.49364 
L 100.407273 163.540512 
L 104.465455 163.63728 
L 108.523636 163.809648 
L 112.581818 164.078784 
L 116.64 164.447712 
L 120.698182 164.8998 
L 124.756364 165.409344 
L 128.814545 165.95064 
L 132.872727 166.50252 
L 136.930909 167.051376 
L 140.989091 167.582088 
L 145.047273 168.087096 
L 149.105455 168.555816 
L 153.163636 168.980688 
L 157.221818 169.355664 
L 161.28 169.676208 
L 165.338182 169.937784 
L 169.396364 170.135856 
L 173.454545 170.268912 
L 177.512727 170.336952 
L 181.570909 170.339976 
L 185.629091 170.279496 
L 189.687273 170.160048 
L 193.745455 169.986168 
L 197.803636 169.766928 
L 201.861818 169.509888 
L 205.92 169.225632 
L 209.978182 168.926256 
L 214.036364 168.62688 
L 218.094545 168.344136 
L 222.152727 168.091632 
L 226.210909 167.886 
L 230.269091 167.739336 
L 234.327273 167.662224 
L 238.385455 167.657688 
L 242.443636 167.724216 
L 246.501818 167.860296 
L 250.56 168.058368 
L 254.618182 168.30936 
L 258.676364 168.605712 
L 262.734545 168.939864 
L 266.792727 169.30728 
L 270.850909 169.7004 
L 274.909091 170.114688 
L 278.967273 170.54712 
L 283.025455 170.99316 
L 287.083636 171.449784 
L 291.141818 171.913968 
L 295.2 172.385712 
L 299.258182 172.863504 
L 303.316364 173.342808 
L 307.374545 173.823624 
L 311.432727 174.305952 
L 315.490909 174.786768 
L 319.549091 175.266072 
L 323.607273 175.742352 
L 327.665455 176.21712 
L 331.723636 176.687352 
L 335.781818 177.151536 
L 339.84 177.611184 
L 343.898182 178.064784 
L 347.956364 178.512336 
L 352.014545 178.952328 
L 356.072727 179.386272 
L 360.130909 179.811144 
L 364.189091 180.226944 
L 368.247273 180.635184 
L 372.305455 181.034352 
L 376.363636 181.422936 
L 380.421818 181.802448 
L 384.48 182.172888 
L 388.538182 182.531232 
L 392.596364 182.878992 
L 396.654545 183.216168 
L 400.712727 183.54276 
L 404.770909 183.855744 
L 408.829091 184.158144 
L 412.887273 184.448448 
L 416.945455 184.726656 
L 421.003636 184.992768 
L 425.061818 185.246784 
L 429.12 185.487192 
L 433.178182 185.713992 
L 437.236364 185.928696 
L 441.294545 186.129792 
L 445.352727 186.318792 
L 449.410909 186.492672 
L 453.469091 186.654456 
L 457.527273 186.80112 
L 461.585455 186.934176 
L 465.643636 187.053624 
L 469.701818 187.159464 
L 473.76 187.251696 
L 477.818182 187.328808 
L 481.876364 187.393824 
L 485.934545 187.442208 
L 489.992727 187.478496 
L 494.050909 187.499664 
L 498.109091 187.505712 
" clip-path="url(#p55266a6868)" style="fill: none; stroke: #000000; stroke-opacity: 0.5; stroke-linecap: square"/>
   </g>
   <g id="line2d_21">
    <path d="M 92.290909 159.778656 
L 96.349091 159.84972 
L 100.407273 160.037208 
L 104.465455 160.270056 
L 108.523636 160.480224 
L 112.581818 160.611768 
L 116.64 160.638984 
L 120.698182 160.561872 
L 124.756364 160.397064 
L 128.814545 160.15968 
L 132.872727 159.866352 
L 136.930909 159.526152 
L 140.989091 159.14664 
L 145.047273 158.736888 
L 149.105455 158.301432 
L 153.163636 157.850856 
L 157.221818 157.394232 
L 161.28 156.943656 
L 165.338182 156.521808 
L 169.396364 156.154392 
L 173.454545 155.879208 
L 177.512727 155.718936 
L 181.570909 155.672064 
L 185.629091 155.717424 
L 189.687273 155.821752 
L 193.745455 155.96388 
L 197.803636 156.121128 
L 201.861818 156.278376 
L 205.92 156.423528 
L 209.978182 156.541464 
L 214.036364 156.620088 
L 218.094545 156.642768 
L 222.152727 156.59892 
L 226.210909 156.473424 
L 230.269091 156.255696 
L 234.327273 155.939688 
L 238.385455 155.523888 
L 242.443636 155.009808 
L 246.501818 154.403496 
L 250.56 153.717048 
L 254.618182 152.956512 
L 258.676364 152.135496 
L 262.734545 151.260048 
L 266.792727 150.342264 
L 270.850909 149.388192 
L 274.909091 148.406904 
L 278.967273 147.408984 
L 283.025455 146.401992 
L 287.083636 145.40256 
L 291.141818 144.430344 
L 295.2 143.526168 
L 299.258182 142.755048 
L 303.316364 142.23492 
L 307.374545 142.077672 
L 311.432727 142.286328 
L 315.490909 142.744464 
L 319.549091 143.337168 
L 323.607273 143.9964 
L 327.665455 144.687384 
L 331.723636 145.390464 
L 335.781818 146.093544 
L 339.84 146.790576 
L 343.898182 147.477024 
L 347.956364 148.151376 
L 352.014545 148.81212 
L 356.072727 149.456232 
L 360.130909 150.083712 
L 364.189091 150.693048 
L 368.247273 151.285752 
L 372.305455 151.860312 
L 376.363636 152.416728 
L 380.421818 152.953488 
L 384.48 153.473616 
L 388.538182 153.972576 
L 392.596364 154.454904 
L 396.654545 154.917576 
L 400.712727 155.362104 
L 404.770909 155.786976 
L 408.829091 156.193704 
L 412.887273 156.582288 
L 416.945455 156.951216 
L 421.003636 157.302 
L 425.061818 157.63464 
L 429.12 157.949136 
L 433.178182 158.243976 
L 437.236364 158.522184 
L 441.294545 158.780736 
L 445.352727 159.022656 
L 449.410909 159.24492 
L 453.469091 159.450552 
L 457.527273 159.63804 
L 461.585455 159.805872 
L 465.643636 159.957072 
L 469.701818 160.090128 
L 473.76 160.206552 
L 477.818182 160.30332 
L 481.876364 160.383456 
L 485.934545 160.445448 
L 489.992727 160.489296 
L 494.050909 160.516512 
L 498.109091 160.525584 
" clip-path="url(#p55266a6868)" style="fill: none; stroke: #000000; stroke-opacity: 0.5; stroke-linecap: square"/>
   </g>
   <g id="line2d_22">
    <path d="M 92.290909 156.081816 
L 96.349091 156.003192 
L 100.407273 155.79 
L 104.465455 155.493648 
L 108.523636 155.156472 
L 112.581818 154.813248 
L 116.64 154.485144 
L 120.698182 154.184256 
L 124.756364 153.918144 
L 128.814545 153.692856 
L 132.872727 153.508392 
L 136.930909 153.366264 
L 140.989091 153.263448 
L 145.047273 153.19692 
L 149.105455 153.162144 
L 153.163636 153.15156 
L 157.221818 153.154584 
L 161.28 153.156096 
L 165.338182 153.137952 
L 169.396364 153.065376 
L 173.454545 152.903592 
L 177.512727 152.625384 
L 181.570909 152.22924 
L 185.629091 151.733304 
L 189.687273 151.166304 
L 193.745455 150.547896 
L 197.803636 149.890176 
L 201.861818 149.203728 
L 205.92 148.4946 
L 209.978182 147.765816 
L 214.036364 147.0204 
L 218.094545 146.259864 
L 222.152727 145.487232 
L 226.210909 144.702504 
L 230.269091 143.90568 
L 234.327273 143.099784 
L 238.385455 142.284816 
L 242.443636 141.460776 
L 246.501818 140.626152 
L 250.56 139.78548 
L 254.618182 138.935736 
L 258.676364 138.079944 
L 262.734545 137.219616 
L 266.792727 136.356264 
L 270.850909 135.497448 
L 274.909091 134.66736 
L 278.967273 133.991496 
L 283.025455 134.035344 
L 287.083636 134.703648 
L 291.141818 135.44604 
L 295.2 136.120392 
L 299.258182 136.642032 
L 303.316364 136.888488 
L 307.374545 136.74636 
L 311.432727 136.211112 
L 315.490909 135.40068 
L 319.549091 134.429976 
L 323.607273 133.36704 
L 327.665455 132.24816 
L 331.723636 131.094504 
L 335.781818 129.918168 
L 339.84 128.723688 
L 343.898182 127.517112 
L 347.956364 126.299952 
L 352.014545 125.078256 
L 356.072727 123.849 
L 360.130909 122.61672 
L 364.189091 121.381416 
L 368.247273 120.143088 
L 372.305455 118.901736 
L 376.363636 117.660384 
L 380.421818 116.416008 
L 384.48 115.171632 
L 388.538182 113.925744 
L 392.596364 112.678344 
L 396.654545 111.429432 
L 400.712727 110.18052 
L 404.770909 108.930096 
L 408.829091 107.67816 
L 412.887273 106.424712 
L 416.945455 105.171264 
L 421.003636 103.916304 
L 425.061818 102.65832 
L 429.12 101.401848 
L 433.178182 100.143864 
L 437.236364 98.884368 
L 441.294545 97.626384 
L 445.352727 96.3684 
L 449.410909 95.11344 
L 453.469091 93.861504 
L 457.527273 92.614104 
L 461.585455 91.377288 
L 465.643636 90.152568 
L 469.701818 88.947504 
L 473.76 87.771168 
L 477.818182 86.63868 
L 481.876364 85.571208 
L 485.934545 84.609576 
L 489.992727 83.81124 
L 494.050909 83.265408 
L 498.109091 83.067336 
" clip-path="url(#p55266a6868)" style="fill: none; stroke: #000000; stroke-opacity: 0.5; stroke-linecap: square"/>
   </g>
   <g id="line2d_23">
    <path d="M 92.290909 131.097528 
L 96.349091 131.06124 
L 100.407273 130.94784 
L 104.465455 130.761864 
L 108.523636 130.5018 
L 112.581818 130.167648 
L 116.64 129.762432 
L 120.698182 129.286152 
L 124.756364 128.744856 
L 128.814545 128.137032 
L 132.872727 127.47024 
L 136.930909 126.749016 
L 140.989091 125.977896 
L 145.047273 125.161416 
L 149.105455 124.308648 
L 153.163636 123.427152 
L 157.221818 122.524488 
L 161.28 121.61124 
L 165.338182 120.697992 
L 169.396364 119.798352 
L 173.454545 118.931976 
L 177.512727 118.117008 
L 181.570909 117.382176 
L 185.629091 116.75772 
L 189.687273 116.278416 
L 193.745455 115.976016 
L 197.803636 115.8732 
L 201.861818 115.97904 
L 205.92 116.279928 
L 209.978182 116.754696 
L 214.036364 117.371592 
L 218.094545 118.100376 
L 222.152727 118.918368 
L 226.210909 119.799864 
L 230.269091 120.732768 
L 234.327273 121.698936 
L 238.385455 122.69232 
L 242.443636 123.700824 
L 246.501818 124.719912 
L 250.56 125.742024 
L 254.618182 126.764136 
L 258.676364 127.778688 
L 262.734545 128.784168 
L 266.792727 129.769992 
L 270.850909 130.7286 
L 274.909091 131.62824 
L 278.967273 132.340392 
L 283.025455 132.292008 
L 287.083636 131.566248 
L 291.141818 130.692312 
L 295.2 129.77604 
L 299.258182 128.837088 
L 303.316364 127.883016 
L 307.374545 126.913824 
L 311.432727 125.932536 
L 315.490909 124.939152 
L 319.549091 123.935184 
L 323.607273 122.91912 
L 327.665455 121.889448 
L 331.723636 120.849192 
L 335.781818 119.79684 
L 339.84 118.732392 
L 343.898182 117.655848 
L 347.956364 116.565696 
L 352.014545 115.46496 
L 356.072727 114.350616 
L 360.130909 113.224176 
L 364.189091 112.08564 
L 368.247273 110.935008 
L 372.305455 109.77228 
L 376.363636 108.597456 
L 380.421818 107.410536 
L 384.48 106.21152 
L 388.538182 105.00192 
L 392.596364 103.781736 
L 396.654545 102.55248 
L 400.712727 101.311128 
L 404.770909 100.060704 
L 408.829091 98.80272 
L 412.887273 97.535664 
L 416.945455 96.261048 
L 421.003636 94.980384 
L 425.061818 93.693672 
L 429.12 92.400912 
L 433.178182 91.10664 
L 437.236364 89.809344 
L 441.294545 88.512048 
L 445.352727 87.217776 
L 449.410909 85.92804 
L 453.469091 84.647376 
L 457.527273 83.381832 
L 461.585455 82.137456 
L 465.643636 80.927856 
L 469.701818 79.769664 
L 473.76 78.691608 
L 477.818182 77.737536 
L 481.876364 76.972464 
L 485.934545 76.473504 
L 489.992727 76.267872 
L 494.050909 76.261824 
L 498.109091 76.286016 
" clip-path="url(#p55266a6868)" style="fill: none; stroke: #000000; stroke-opacity: 0.5; stroke-linecap: square"/>
   </g>
   <g id="patch_3">
    <path d="M 72 384.48 
L 72 51.84 
" style="fill: none; stroke: #000000; stroke-width: 0.8; stroke-linejoin: miter; stroke-linecap: square"/>
   </g>
   <g id="patch_4">
    <path d="M 518.4 384.48 
L 518.4 51.84 
" style="fill: none; stroke: #000000; stroke-width: 0.8; stroke-linejoin: miter; stroke-linecap: square"/>
   </g>
   <g id="patch_5">
    <path d="M 72 384.48 
L 518.4 384.48 
" style="fill: none; stroke: #000000; stroke-width: 0.8; stroke-linejoin: miter; stroke-linecap: square"/>
   </g>
   <g id="patch_6">
    <path d="M 72 51.84 
L 518.4 51.84 
" style="fill: none; stroke: #000000; stroke-width: 0.8; stroke-linejoin: miter; stroke-linecap: square"/>
   </g>
  </g>
 </g>
 <defs>
  <clipPath id="p55266a6868">
   <rect x="72" y="51.84" width="446.4" height="332.64"/>
  </clipPath>
 </defs>
</svg>
