<?xml version="1.0" encoding="utf-8" standalone="no"?>
<!DOCTYPE svg PUBLIC "-//W3C//DTD SVG 1.1//EN"
  "http://www.w3.org/Graphics/SVG/1.1/DTD/svg11.dtd">
<svg xmlns:xlink="http://www.w3.org/1999/xlink" width="576pt" height="432pt" viewBox="0 0 576 432" xmlns="http://www.w3.org/2000/svg" version="1.1">
 <metadata>
  <rdf:RDF xmlns:dc="http://purl.org/dc/elements/1.1/" xmlns:cc="http://creativecommons.org/ns#" xmlns:rdf="http://www.w3.org/1999/02/22-rdf-syntax-ns#">
   <cc:Work>
    <dc:type rdf:resource="http://purl.org/dc/dcmitype/StillImage"/>
    <dc:date>2023-05-02T16:00:07.420866</dc:date>
    <dc:format>image/svg+xml</dc:format>
    <dc:creator>
     <cc:Agent>
      <dc:title>Matplotlib v3.7.1, https://matplotlib.org/</dc:title>
     </cc:Agent>
    </dc:creator>
   </cc:Work>
  </rdf:RDF>
 </metadata>
 <defs>
  <style type="text/css">*{stroke-linejoin: round; stroke-linecap: butt}</style>
 </defs>
 <g id="figure_1">
  <g id="patch_1">
   <path d="M 0 432 
L 576 432 
L 576 0 
L 0 0 
z
" style="fill: #ffffff"/>
  </g>
  <g id="axes_1">
   <g id="patch_2">
    <path d="M 72 384.48 
L 518.4 384.48 
L 518.4 51.84 
L 72 51.84 
z
" style="fill: #ffffff"/>
   </g>
   <g id="matplotlib.axis_1">
    <g id="xtick_1">
     <g id="line2d_1">
      <defs>
       <path id="mc242a3ec16" d="M 0 0 
L 0 3.5 
" style="stroke: #000000; stroke-width: 0.8"/>
      </defs>
      <g>
       <use xlink:href="#mc242a3ec16" x="92.290909" y="384.48" style="stroke: #000000; stroke-width: 0.8"/>
      </g>
     </g>
     <g id="text_1">
      <!-- 0.0 -->
      <g transform="translate(84.339347 399.078438) scale(0.1 -0.1)">
       <defs>
        <path id="DejaVuSans-30" d="M 2034 4250 
Q 1547 4250 1301 3770 
Q 1056 3291 1056 2328 
Q 1056 1369 1301 889 
Q 1547 409 2034 409 
Q 2525 409 2770 889 
Q 3016 1369 3016 2328 
Q 3016 3291 2770 3770 
Q 2525 4250 2034 4250 
z
M 2034 4750 
Q 2819 4750 3233 4129 
Q 3647 3509 3647 2328 
Q 3647 1150 3233 529 
Q 2819 -91 2034 -91 
Q 1250 -91 836 529 
Q 422 1150 422 2328 
Q 422 3509 836 4129 
Q 1250 4750 2034 4750 
z
" transform="scale(0.015625)"/>
        <path id="DejaVuSans-2e" d="M 684 794 
L 1344 794 
L 1344 0 
L 684 0 
L 684 794 
z
" transform="scale(0.015625)"/>
       </defs>
       <use xlink:href="#DejaVuSans-30"/>
       <use xlink:href="#DejaVuSans-2e" x="63.623047"/>
       <use xlink:href="#DejaVuSans-30" x="95.410156"/>
      </g>
     </g>
    </g>
    <g id="xtick_2">
     <g id="line2d_2">
      <g>
       <use xlink:href="#mc242a3ec16" x="173.454545" y="384.48" style="stroke: #000000; stroke-width: 0.8"/>
      </g>
     </g>
     <g id="text_2">
      <!-- 0.2 -->
      <g transform="translate(165.502983 399.078438) scale(0.1 -0.1)">
       <defs>
        <path id="DejaVuSans-32" d="M 1228 531 
L 3431 531 
L 3431 0 
L 469 0 
L 469 531 
Q 828 903 1448 1529 
Q 2069 2156 2228 2338 
Q 2531 2678 2651 2914 
Q 2772 3150 2772 3378 
Q 2772 3750 2511 3984 
Q 2250 4219 1831 4219 
Q 1534 4219 1204 4116 
Q 875 4013 500 3803 
L 500 4441 
Q 881 4594 1212 4672 
Q 1544 4750 1819 4750 
Q 2544 4750 2975 4387 
Q 3406 4025 3406 3419 
Q 3406 3131 3298 2873 
Q 3191 2616 2906 2266 
Q 2828 2175 2409 1742 
Q 1991 1309 1228 531 
z
" transform="scale(0.015625)"/>
       </defs>
       <use xlink:href="#DejaVuSans-30"/>
       <use xlink:href="#DejaVuSans-2e" x="63.623047"/>
       <use xlink:href="#DejaVuSans-32" x="95.410156"/>
      </g>
     </g>
    </g>
    <g id="xtick_3">
     <g id="line2d_3">
      <g>
       <use xlink:href="#mc242a3ec16" x="254.618182" y="384.48" style="stroke: #000000; stroke-width: 0.8"/>
      </g>
     </g>
     <g id="text_3">
      <!-- 0.4 -->
      <g transform="translate(246.666619 399.078438) scale(0.1 -0.1)">
       <defs>
        <path id="DejaVuSans-34" d="M 2419 4116 
L 825 1625 
L 2419 1625 
L 2419 4116 
z
M 2253 4666 
L 3047 4666 
L 3047 1625 
L 3713 1625 
L 3713 1100 
L 3047 1100 
L 3047 0 
L 2419 0 
L 2419 1100 
L 313 1100 
L 313 1709 
L 2253 4666 
z
" transform="scale(0.015625)"/>
       </defs>
       <use xlink:href="#DejaVuSans-30"/>
       <use xlink:href="#DejaVuSans-2e" x="63.623047"/>
       <use xlink:href="#DejaVuSans-34" x="95.410156"/>
      </g>
     </g>
    </g>
    <g id="xtick_4">
     <g id="line2d_4">
      <g>
       <use xlink:href="#mc242a3ec16" x="335.781818" y="384.48" style="stroke: #000000; stroke-width: 0.8"/>
      </g>
     </g>
     <g id="text_4">
      <!-- 0.6 -->
      <g transform="translate(327.830256 399.078438) scale(0.1 -0.1)">
       <defs>
        <path id="DejaVuSans-36" d="M 2113 2584 
Q 1688 2584 1439 2293 
Q 1191 2003 1191 1497 
Q 1191 994 1439 701 
Q 1688 409 2113 409 
Q 2538 409 2786 701 
Q 3034 994 3034 1497 
Q 3034 2003 2786 2293 
Q 2538 2584 2113 2584 
z
M 3366 4563 
L 3366 3988 
Q 3128 4100 2886 4159 
Q 2644 4219 2406 4219 
Q 1781 4219 1451 3797 
Q 1122 3375 1075 2522 
Q 1259 2794 1537 2939 
Q 1816 3084 2150 3084 
Q 2853 3084 3261 2657 
Q 3669 2231 3669 1497 
Q 3669 778 3244 343 
Q 2819 -91 2113 -91 
Q 1303 -91 875 529 
Q 447 1150 447 2328 
Q 447 3434 972 4092 
Q 1497 4750 2381 4750 
Q 2619 4750 2861 4703 
Q 3103 4656 3366 4563 
z
" transform="scale(0.015625)"/>
       </defs>
       <use xlink:href="#DejaVuSans-30"/>
       <use xlink:href="#DejaVuSans-2e" x="63.623047"/>
       <use xlink:href="#DejaVuSans-36" x="95.410156"/>
      </g>
     </g>
    </g>
    <g id="xtick_5">
     <g id="line2d_5">
      <g>
       <use xlink:href="#mc242a3ec16" x="416.945455" y="384.48" style="stroke: #000000; stroke-width: 0.8"/>
      </g>
     </g>
     <g id="text_5">
      <!-- 0.8 -->
      <g transform="translate(408.993892 399.078438) scale(0.1 -0.1)">
       <defs>
        <path id="DejaVuSans-38" d="M 2034 2216 
Q 1584 2216 1326 1975 
Q 1069 1734 1069 1313 
Q 1069 891 1326 650 
Q 1584 409 2034 409 
Q 2484 409 2743 651 
Q 3003 894 3003 1313 
Q 3003 1734 2745 1975 
Q 2488 2216 2034 2216 
z
M 1403 2484 
Q 997 2584 770 2862 
Q 544 3141 544 3541 
Q 544 4100 942 4425 
Q 1341 4750 2034 4750 
Q 2731 4750 3128 4425 
Q 3525 4100 3525 3541 
Q 3525 3141 3298 2862 
Q 3072 2584 2669 2484 
Q 3125 2378 3379 2068 
Q 3634 1759 3634 1313 
Q 3634 634 3220 271 
Q 2806 -91 2034 -91 
Q 1263 -91 848 271 
Q 434 634 434 1313 
Q 434 1759 690 2068 
Q 947 2378 1403 2484 
z
M 1172 3481 
Q 1172 3119 1398 2916 
Q 1625 2713 2034 2713 
Q 2441 2713 2670 2916 
Q 2900 3119 2900 3481 
Q 2900 3844 2670 4047 
Q 2441 4250 2034 4250 
Q 1625 4250 1398 4047 
Q 1172 3844 1172 3481 
z
" transform="scale(0.015625)"/>
       </defs>
       <use xlink:href="#DejaVuSans-30"/>
       <use xlink:href="#DejaVuSans-2e" x="63.623047"/>
       <use xlink:href="#DejaVuSans-38" x="95.410156"/>
      </g>
     </g>
    </g>
    <g id="xtick_6">
     <g id="line2d_6">
      <g>
       <use xlink:href="#mc242a3ec16" x="498.109091" y="384.48" style="stroke: #000000; stroke-width: 0.8"/>
      </g>
     </g>
     <g id="text_6">
      <!-- 1.0 -->
      <g transform="translate(490.157528 399.078438) scale(0.1 -0.1)">
       <defs>
        <path id="DejaVuSans-31" d="M 794 531 
L 1825 531 
L 1825 4091 
L 703 3866 
L 703 4441 
L 1819 4666 
L 2450 4666 
L 2450 531 
L 3481 531 
L 3481 0 
L 794 0 
L 794 531 
z
" transform="scale(0.015625)"/>
       </defs>
       <use xlink:href="#DejaVuSans-31"/>
       <use xlink:href="#DejaVuSans-2e" x="63.623047"/>
       <use xlink:href="#DejaVuSans-30" x="95.410156"/>
      </g>
     </g>
    </g>
   </g>
   <g id="matplotlib.axis_2">
    <g id="ytick_1">
     <g id="line2d_7">
      <defs>
       <path id="ma5fb548b0a" d="M 0 0 
L -3.5 0 
" style="stroke: #000000; stroke-width: 0.8"/>
      </defs>
      <g>
       <use xlink:href="#ma5fb548b0a" x="72" y="369.36" style="stroke: #000000; stroke-width: 0.8"/>
      </g>
     </g>
     <g id="text_7">
      <!-- −5.0 -->
      <g transform="translate(40.717187 373.159219) scale(0.1 -0.1)">
       <defs>
        <path id="DejaVuSans-2212" d="M 678 2272 
L 4684 2272 
L 4684 1741 
L 678 1741 
L 678 2272 
z
" transform="scale(0.015625)"/>
        <path id="DejaVuSans-35" d="M 691 4666 
L 3169 4666 
L 3169 4134 
L 1269 4134 
L 1269 2991 
Q 1406 3038 1543 3061 
Q 1681 3084 1819 3084 
Q 2600 3084 3056 2656 
Q 3513 2228 3513 1497 
Q 3513 744 3044 326 
Q 2575 -91 1722 -91 
Q 1428 -91 1123 -41 
Q 819 9 494 109 
L 494 744 
Q 775 591 1075 516 
Q 1375 441 1709 441 
Q 2250 441 2565 725 
Q 2881 1009 2881 1497 
Q 2881 1984 2565 2268 
Q 2250 2553 1709 2553 
Q 1456 2553 1204 2497 
Q 953 2441 691 2322 
L 691 4666 
z
" transform="scale(0.015625)"/>
       </defs>
       <use xlink:href="#DejaVuSans-2212"/>
       <use xlink:href="#DejaVuSans-35" x="83.789062"/>
       <use xlink:href="#DejaVuSans-2e" x="147.412109"/>
       <use xlink:href="#DejaVuSans-30" x="179.199219"/>
      </g>
     </g>
    </g>
    <g id="ytick_2">
     <g id="line2d_8">
      <g>
       <use xlink:href="#ma5fb548b0a" x="72" y="331.56" style="stroke: #000000; stroke-width: 0.8"/>
      </g>
     </g>
     <g id="text_8">
      <!-- −2.5 -->
      <g transform="translate(40.717187 335.359219) scale(0.1 -0.1)">
       <use xlink:href="#DejaVuSans-2212"/>
       <use xlink:href="#DejaVuSans-32" x="83.789062"/>
       <use xlink:href="#DejaVuSans-2e" x="147.412109"/>
       <use xlink:href="#DejaVuSans-35" x="179.199219"/>
      </g>
     </g>
    </g>
    <g id="ytick_3">
     <g id="line2d_9">
      <g>
       <use xlink:href="#ma5fb548b0a" x="72" y="293.76" style="stroke: #000000; stroke-width: 0.8"/>
      </g>
     </g>
     <g id="text_9">
      <!-- 0.0 -->
      <g transform="translate(49.096875 297.559219) scale(0.1 -0.1)">
       <use xlink:href="#DejaVuSans-30"/>
       <use xlink:href="#DejaVuSans-2e" x="63.623047"/>
       <use xlink:href="#DejaVuSans-30" x="95.410156"/>
      </g>
     </g>
    </g>
    <g id="ytick_4">
     <g id="line2d_10">
      <g>
       <use xlink:href="#ma5fb548b0a" x="72" y="255.96" style="stroke: #000000; stroke-width: 0.8"/>
      </g>
     </g>
     <g id="text_10">
      <!-- 2.5 -->
      <g transform="translate(49.096875 259.759219) scale(0.1 -0.1)">
       <use xlink:href="#DejaVuSans-32"/>
       <use xlink:href="#DejaVuSans-2e" x="63.623047"/>
       <use xlink:href="#DejaVuSans-35" x="95.410156"/>
      </g>
     </g>
    </g>
    <g id="ytick_5">
     <g id="line2d_11">
      <g>
       <use xlink:href="#ma5fb548b0a" x="72" y="218.16" style="stroke: #000000; stroke-width: 0.8"/>
      </g>
     </g>
     <g id="text_11">
      <!-- 5.0 -->
      <g transform="translate(49.096875 221.959219) scale(0.1 -0.1)">
       <use xlink:href="#DejaVuSans-35"/>
       <use xlink:href="#DejaVuSans-2e" x="63.623047"/>
       <use xlink:href="#DejaVuSans-30" x="95.410156"/>
      </g>
     </g>
    </g>
    <g id="ytick_6">
     <g id="line2d_12">
      <g>
       <use xlink:href="#ma5fb548b0a" x="72" y="180.36" style="stroke: #000000; stroke-width: 0.8"/>
      </g>
     </g>
     <g id="text_12">
      <!-- 7.5 -->
      <g transform="translate(49.096875 184.159219) scale(0.1 -0.1)">
       <defs>
        <path id="DejaVuSans-37" d="M 525 4666 
L 3525 4666 
L 3525 4397 
L 1831 0 
L 1172 0 
L 2766 4134 
L 525 4134 
L 525 4666 
z
" transform="scale(0.015625)"/>
       </defs>
       <use xlink:href="#DejaVuSans-37"/>
       <use xlink:href="#DejaVuSans-2e" x="63.623047"/>
       <use xlink:href="#DejaVuSans-35" x="95.410156"/>
      </g>
     </g>
    </g>
    <g id="ytick_7">
     <g id="line2d_13">
      <g>
       <use xlink:href="#ma5fb548b0a" x="72" y="142.56" style="stroke: #000000; stroke-width: 0.8"/>
      </g>
     </g>
     <g id="text_13">
      <!-- 10.0 -->
      <g transform="translate(42.734375 146.359219) scale(0.1 -0.1)">
       <use xlink:href="#DejaVuSans-31"/>
       <use xlink:href="#DejaVuSans-30" x="63.623047"/>
       <use xlink:href="#DejaVuSans-2e" x="127.246094"/>
       <use xlink:href="#DejaVuSans-30" x="159.033203"/>
      </g>
     </g>
    </g>
    <g id="ytick_8">
     <g id="line2d_14">
      <g>
       <use xlink:href="#ma5fb548b0a" x="72" y="104.76" style="stroke: #000000; stroke-width: 0.8"/>
      </g>
     </g>
     <g id="text_14">
      <!-- 12.5 -->
      <g transform="translate(42.734375 108.559219) scale(0.1 -0.1)">
       <use xlink:href="#DejaVuSans-31"/>
       <use xlink:href="#DejaVuSans-32" x="63.623047"/>
       <use xlink:href="#DejaVuSans-2e" x="127.246094"/>
       <use xlink:href="#DejaVuSans-35" x="159.033203"/>
      </g>
     </g>
    </g>
    <g id="ytick_9">
     <g id="line2d_15">
      <g>
       <use xlink:href="#ma5fb548b0a" x="72" y="66.96" style="stroke: #000000; stroke-width: 0.8"/>
      </g>
     </g>
     <g id="text_15">
      <!-- 15.0 -->
      <g transform="translate(42.734375 70.759219) scale(0.1 -0.1)">
       <use xlink:href="#DejaVuSans-31"/>
       <use xlink:href="#DejaVuSans-35" x="63.623047"/>
       <use xlink:href="#DejaVuSans-2e" x="127.246094"/>
       <use xlink:href="#DejaVuSans-30" x="159.033203"/>
      </g>
     </g>
    </g>
   </g>
   <g id="line2d_16">
    <path d="M 92.290909 337.074264 
L 96.349091 337.069728 
L 100.407273 337.059144 
L 104.465455 337.039488 
L 108.523636 337.012272 
L 112.581818 336.977496 
L 116.64 336.936672 
L 120.698182 336.886776 
L 124.756364 336.82932 
L 128.814545 336.765816 
L 132.872727 336.69324 
L 136.930909 336.614616 
L 140.989091 336.528432 
L 145.047273 336.434688 
L 149.105455 336.334896 
L 153.163636 336.227544 
L 157.221818 336.114144 
L 161.28 335.994696 
L 165.338182 335.867688 
L 169.396364 335.734632 
L 173.454545 335.595528 
L 177.512727 335.450376 
L 181.570909 335.300688 
L 185.629091 335.144952 
L 189.687273 334.983168 
L 193.745455 334.816848 
L 197.803636 334.645992 
L 201.861818 334.4706 
L 205.92 334.290672 
L 209.978182 334.10772 
L 214.036364 333.920232 
L 218.094545 333.72972 
L 222.152727 333.536184 
L 226.210909 333.339624 
L 230.269091 333.14004 
L 234.327273 332.940456 
L 238.385455 332.737848 
L 242.443636 332.53524 
L 246.501818 332.33112 
L 250.56 332.125488 
L 254.618182 331.921368 
L 258.676364 331.71876 
L 262.734545 331.51464 
L 266.792727 331.313544 
L 270.850909 331.115472 
L 274.909091 330.9174 
L 278.967273 330.723864 
L 283.025455 330.533352 
L 287.083636 330.345864 
L 291.141818 330.164424 
L 295.2 329.986008 
L 299.258182 329.81364 
L 303.316364 329.645808 
L 307.374545 329.485536 
L 311.432727 329.331312 
L 315.490909 329.183136 
L 319.549091 329.04252 
L 323.607273 328.909464 
L 327.665455 328.783968 
L 331.723636 328.667544 
L 335.781818 328.557168 
L 339.84 328.455864 
L 343.898182 328.363632 
L 347.956364 328.277448 
L 352.014545 328.201848 
L 356.072727 328.133808 
L 360.130909 328.073328 
L 364.189091 328.020408 
L 368.247273 327.975048 
L 372.305455 327.937248 
L 376.363636 327.907008 
L 380.421818 327.882816 
L 384.48 327.864672 
L 388.538182 327.852576 
L 392.596364 327.846528 
L 396.654545 327.845016 
L 400.712727 327.84804 
L 404.770909 327.8556 
L 408.829091 327.866184 
L 412.887273 327.881304 
L 416.945455 327.897936 
L 421.003636 327.91608 
L 425.061818 327.937248 
L 429.12 327.959928 
L 433.178182 327.982608 
L 437.236364 328.0068 
L 441.294545 328.030992 
L 445.352727 328.055184 
L 449.410909 328.079376 
L 453.469091 328.102056 
L 457.527273 328.123224 
L 461.585455 328.144392 
L 465.643636 328.162536 
L 469.701818 328.18068 
L 473.76 328.1958 
L 477.818182 328.207896 
L 481.876364 328.219992 
L 485.934545 328.227552 
L 489.992727 328.235112 
L 494.050909 328.238136 
L 498.109091 328.239648 
" clip-path="url(#pc9c85e5a9f)" style="fill: none; stroke: #000000; stroke-opacity: 0.5; stroke-linecap: square"/>
   </g>
   <g id="line2d_17">
    <path d="M 92.290909 301.202064 
L 96.349091 301.205088 
L 100.407273 301.211136 
L 104.465455 301.220208 
L 108.523636 301.233816 
L 112.581818 301.25196 
L 116.64 301.27464 
L 120.698182 301.300344 
L 124.756364 301.332096 
L 128.814545 301.366872 
L 132.872727 301.406184 
L 136.930909 301.450032 
L 140.989091 301.499928 
L 145.047273 301.552848 
L 149.105455 301.611816 
L 153.163636 301.676832 
L 157.221818 301.746384 
L 161.28 301.820472 
L 165.338182 301.90212 
L 169.396364 301.988304 
L 173.454545 302.080536 
L 177.512727 302.178816 
L 181.570909 302.281632 
L 185.629091 302.392008 
L 189.687273 302.508432 
L 193.745455 302.630904 
L 197.803636 302.759424 
L 201.861818 302.893992 
L 205.92 303.033096 
L 209.978182 303.17976 
L 214.036364 303.33096 
L 218.094545 303.488208 
L 222.152727 303.651504 
L 226.210909 303.817824 
L 230.269091 303.990192 
L 234.327273 304.167096 
L 238.385455 304.348536 
L 242.443636 304.533 
L 246.501818 304.720488 
L 250.56 304.912512 
L 254.618182 305.106048 
L 258.676364 305.301096 
L 262.734545 305.497656 
L 266.792727 305.695728 
L 270.850909 305.8938 
L 274.909091 306.091872 
L 278.967273 306.289944 
L 283.025455 306.488016 
L 287.083636 306.683064 
L 291.141818 306.8766 
L 295.2 307.067112 
L 299.258182 307.2546 
L 303.316364 307.439064 
L 307.374545 307.618992 
L 311.432727 307.795896 
L 315.490909 307.966752 
L 319.549091 308.133072 
L 323.607273 308.293344 
L 327.665455 308.44908 
L 331.723636 308.598768 
L 335.781818 308.742408 
L 339.84 308.88 
L 343.898182 309.011544 
L 347.956364 309.135528 
L 352.014545 309.254976 
L 356.072727 309.366864 
L 360.130909 309.472704 
L 364.189091 309.572496 
L 368.247273 309.667752 
L 372.305455 309.755448 
L 376.363636 309.838608 
L 380.421818 309.91572 
L 384.48 309.988296 
L 388.538182 310.056336 
L 392.596364 310.118328 
L 396.654545 310.177296 
L 400.712727 310.231728 
L 404.770909 310.283136 
L 408.829091 310.330008 
L 412.887273 310.372344 
L 416.945455 310.413168 
L 421.003636 310.450968 
L 425.061818 310.485744 
L 429.12 310.517496 
L 433.178182 310.546224 
L 437.236364 310.57344 
L 441.294545 310.599144 
L 445.352727 310.621824 
L 449.410909 310.642992 
L 453.469091 310.661136 
L 457.527273 310.67928 
L 461.585455 310.6944 
L 465.643636 310.708008 
L 469.701818 310.720104 
L 473.76 310.730688 
L 477.818182 310.738248 
L 481.876364 310.745808 
L 485.934545 310.751856 
L 489.992727 310.75488 
L 494.050909 310.757904 
L 498.109091 310.757904 
" clip-path="url(#pc9c85e5a9f)" style="fill: none; stroke: #000000; stroke-opacity: 0.5; stroke-linecap: square"/>
   </g>
   <g id="line2d_18">
    <path d="M 92.290909 246.077568 
L 96.349091 246.221208 
L 100.407273 246.526632 
L 104.465455 246.891024 
L 108.523636 247.290192 
L 112.581818 247.71204 
L 116.64 248.153544 
L 120.698182 248.608656 
L 124.756364 249.078888 
L 128.814545 249.558192 
L 132.872727 250.045056 
L 136.930909 250.53948 
L 140.989091 251.036928 
L 145.047273 251.538912 
L 149.105455 252.040896 
L 153.163636 252.54288 
L 157.221818 253.04184 
L 161.28 253.539288 
L 165.338182 254.033712 
L 169.396364 254.522088 
L 173.454545 255.004416 
L 177.512727 255.480696 
L 181.570909 255.949416 
L 185.629091 256.409064 
L 189.687273 256.861152 
L 193.745455 257.30568 
L 197.803636 257.739624 
L 201.861818 258.164496 
L 205.92 258.578784 
L 209.978182 258.984 
L 214.036364 259.378632 
L 218.094545 259.764192 
L 222.152727 260.137656 
L 226.210909 260.502048 
L 230.269091 260.857368 
L 234.327273 261.200592 
L 238.385455 261.534744 
L 242.443636 261.8568 
L 246.501818 262.169784 
L 250.56 262.470672 
L 254.618182 262.762488 
L 258.676364 263.042208 
L 262.734545 263.309832 
L 266.792727 263.566872 
L 270.850909 263.811816 
L 274.909091 264.043152 
L 278.967273 264.263904 
L 283.025455 264.469536 
L 287.083636 264.66156 
L 291.141818 264.839976 
L 295.2 265.003272 
L 299.258182 265.151448 
L 303.316364 265.284504 
L 307.374545 265.399416 
L 311.432727 265.499208 
L 315.490909 265.579344 
L 319.549091 265.642848 
L 323.607273 265.688208 
L 327.665455 265.713912 
L 331.723636 265.71996 
L 335.781818 265.706352 
L 339.84 265.673088 
L 343.898182 265.618656 
L 347.956364 265.543056 
L 352.014545 265.446288 
L 356.072727 265.328352 
L 360.130909 265.187736 
L 364.189091 265.025952 
L 368.247273 264.841488 
L 372.305455 264.635856 
L 376.363636 264.409056 
L 380.421818 264.158064 
L 384.48 263.887416 
L 388.538182 263.594088 
L 392.596364 263.279592 
L 396.654545 262.943928 
L 400.712727 262.587096 
L 404.770909 262.210608 
L 408.829091 261.814464 
L 412.887273 261.398664 
L 416.945455 260.963208 
L 421.003636 260.51112 
L 425.061818 260.040888 
L 429.12 259.555536 
L 433.178182 259.05204 
L 437.236364 258.534936 
L 441.294545 258.004224 
L 445.352727 257.461416 
L 449.410909 256.906512 
L 453.469091 256.341024 
L 457.527273 255.766464 
L 461.585455 255.184344 
L 465.643636 254.596176 
L 469.701818 254.004984 
L 473.76 253.410768 
L 477.818182 252.818064 
L 481.876364 252.229896 
L 485.934545 251.653824 
L 489.992727 251.103456 
L 494.050909 250.624152 
L 498.109091 250.391304 
" clip-path="url(#pc9c85e5a9f)" style="fill: none; stroke: #000000; stroke-opacity: 0.5; stroke-linecap: square"/>
   </g>
   <g id="line2d_19">
    <path d="M 92.290909 245.356344 
L 96.349091 245.238408 
L 100.407273 245.011608 
L 104.465455 244.777248 
L 108.523636 244.55952 
L 112.581818 244.367496 
L 116.64 244.207224 
L 120.698182 244.077192 
L 124.756364 243.980424 
L 128.814545 243.915408 
L 132.872727 243.885168 
L 136.930909 243.885168 
L 140.989091 243.91692 
L 145.047273 243.9774 
L 149.105455 244.066608 
L 153.163636 244.183032 
L 157.221818 244.322136 
L 161.28 244.48392 
L 165.338182 244.663848 
L 169.396364 244.86192 
L 173.454545 245.075112 
L 177.512727 245.298888 
L 181.570909 245.533248 
L 185.629091 245.775168 
L 189.687273 246.021624 
L 193.745455 246.269592 
L 197.803636 246.519072 
L 201.861818 246.765528 
L 205.92 247.007448 
L 209.978182 247.24332 
L 214.036364 247.471632 
L 218.094545 247.690872 
L 222.152727 247.898016 
L 226.210909 248.091552 
L 230.269091 248.27148 
L 234.327273 248.436288 
L 238.385455 248.582952 
L 242.443636 248.712984 
L 246.501818 248.824872 
L 250.56 248.917104 
L 254.618182 248.98968 
L 258.676364 249.0426 
L 262.734545 249.074352 
L 266.792727 249.086448 
L 270.850909 249.078888 
L 274.909091 249.05016 
L 278.967273 249.001776 
L 283.025455 248.933736 
L 287.083636 248.84604 
L 291.141818 248.7402 
L 295.2 248.616216 
L 299.258182 248.4756 
L 303.316364 248.31684 
L 307.374545 248.144472 
L 311.432727 247.955472 
L 315.490909 247.754376 
L 319.549091 247.539672 
L 323.607273 247.314384 
L 327.665455 247.078512 
L 331.723636 246.83508 
L 335.781818 246.582576 
L 339.84 246.325536 
L 343.898182 246.062448 
L 347.956364 245.797848 
L 352.014545 245.531736 
L 356.072727 245.267136 
L 360.130909 245.004048 
L 364.189091 244.745496 
L 368.247273 244.494504 
L 372.305455 244.251072 
L 376.363636 244.019736 
L 380.421818 243.800496 
L 384.48 243.596376 
L 388.538182 243.4104 
L 392.596364 243.24408 
L 396.654545 243.10044 
L 400.712727 242.980992 
L 404.770909 242.88876 
L 408.829091 242.825256 
L 412.887273 242.791992 
L 416.945455 242.791992 
L 421.003636 242.826768 
L 425.061818 242.894808 
L 429.12 243.000648 
L 433.178182 243.142776 
L 437.236364 243.321192 
L 441.294545 243.537408 
L 445.352727 243.789912 
L 449.410909 244.077192 
L 453.469091 244.399248 
L 457.527273 244.754568 
L 461.585455 245.140128 
L 465.643636 245.554416 
L 469.701818 245.99592 
L 473.76 246.460104 
L 477.818182 246.945456 
L 481.876364 247.445928 
L 485.934545 247.955472 
L 489.992727 248.458968 
L 494.050909 248.908032 
L 498.109091 249.131808 
" clip-path="url(#pc9c85e5a9f)" style="fill: none; stroke: #000000; stroke-opacity: 0.5; stroke-linecap: square"/>
   </g>
   <g id="line2d_20">
    <path d="M 92.290909 192.090096 
L 96.349091 192.079512 
L 100.407273 192.04776 
L 104.465455 191.993328 
L 108.523636 191.910168 
L 112.581818 191.793744 
L 116.64 191.642544 
L 120.698182 191.45052 
L 124.756364 191.213136 
L 128.814545 190.92888 
L 132.872727 190.591704 
L 136.930909 190.20312 
L 140.989091 189.761616 
L 145.047273 189.26568 
L 149.105455 188.7138 
L 153.163636 188.109 
L 157.221818 187.449768 
L 161.28 186.739128 
L 165.338182 185.97708 
L 169.396364 185.165136 
L 173.454545 184.304808 
L 177.512727 183.39912 
L 181.570909 182.448072 
L 185.629091 181.454688 
L 189.687273 180.418968 
L 193.745455 179.345448 
L 197.803636 178.234128 
L 201.861818 177.085008 
L 205.92 175.904136 
L 209.978182 174.688488 
L 214.036364 173.4426 
L 218.094545 172.16496 
L 222.152727 170.860104 
L 226.210909 169.528032 
L 230.269091 168.170256 
L 234.327273 166.788288 
L 238.385455 165.382128 
L 242.443636 163.9548 
L 246.501818 162.506304 
L 250.56 161.038152 
L 254.618182 159.55488 
L 258.676364 158.054976 
L 262.734545 156.546 
L 266.792727 155.030976 
L 270.850909 153.523512 
L 274.909091 152.052336 
L 278.967273 150.711192 
L 283.025455 149.894712 
L 287.083636 150.336216 
L 291.141818 151.565472 
L 295.2 153.004896 
L 299.258182 154.503288 
L 303.316364 156.021336 
L 307.374545 157.537872 
L 311.432727 159.046848 
L 315.490909 160.543728 
L 319.549091 162.022464 
L 323.607273 163.484568 
L 327.665455 164.923992 
L 331.723636 166.340736 
L 335.781818 167.733288 
L 339.84 169.100136 
L 343.898182 170.438256 
L 347.956364 171.746136 
L 352.014545 173.022264 
L 356.072727 174.26664 
L 360.130909 175.474728 
L 364.189091 176.646528 
L 368.247273 177.779016 
L 372.305455 178.872192 
L 376.363636 179.920008 
L 380.421818 180.923976 
L 384.48 181.87956 
L 388.538182 182.78676 
L 392.596364 183.64104 
L 396.654545 184.440888 
L 400.712727 185.18328 
L 404.770909 185.868216 
L 408.829091 186.492672 
L 412.887273 187.053624 
L 416.945455 187.551072 
L 421.003636 187.983504 
L 425.061818 188.347896 
L 429.12 188.644248 
L 433.178182 188.87256 
L 437.236364 189.032832 
L 441.294545 189.123552 
L 445.352727 189.149256 
L 449.410909 189.10692 
L 453.469091 188.999568 
L 457.527273 188.828712 
L 461.585455 188.598888 
L 465.643636 188.311608 
L 469.701818 187.971408 
L 473.76 187.582824 
L 477.818182 187.154928 
L 481.876364 186.698304 
L 485.934545 186.235632 
L 489.992727 185.804712 
L 494.050909 185.473584 
L 498.109091 185.345064 
" clip-path="url(#pc9c85e5a9f)" style="fill: none; stroke: #000000; stroke-opacity: 0.5; stroke-linecap: square"/>
   </g>
   <g id="line2d_21">
    <path d="M 92.290909 183.706056 
L 96.349091 183.654648 
L 100.407273 183.50496 
L 104.465455 183.256992 
L 108.523636 182.916792 
L 112.581818 182.490408 
L 116.64 181.980864 
L 120.698182 181.39572 
L 124.756364 180.741024 
L 128.814545 180.021312 
L 132.872727 179.24112 
L 136.930909 178.404984 
L 140.989091 177.518952 
L 145.047273 176.583024 
L 149.105455 175.603248 
L 153.163636 174.582648 
L 157.221818 173.521224 
L 161.28 172.422 
L 165.338182 171.289512 
L 169.396364 170.12376 
L 173.454545 168.926256 
L 177.512727 167.698512 
L 181.570909 166.443552 
L 185.629091 165.161376 
L 189.687273 163.855008 
L 193.745455 162.522936 
L 197.803636 161.168184 
L 201.861818 159.792264 
L 205.92 158.396688 
L 209.978182 156.981456 
L 214.036364 155.54808 
L 218.094545 154.099584 
L 222.152727 152.635968 
L 226.210909 151.161768 
L 230.269091 149.680008 
L 234.327273 148.195224 
L 238.385455 146.716488 
L 242.443636 145.257408 
L 246.501818 143.8452 
L 250.56 142.535808 
L 254.618182 141.454728 
L 258.676364 140.860512 
L 262.734545 141.04044 
L 266.792727 141.908328 
L 270.850909 143.128512 
L 274.909091 144.471168 
L 278.967273 145.745784 
L 283.025455 146.519928 
L 287.083636 146.039112 
L 291.141818 144.76752 
L 295.2 143.273664 
L 299.258182 141.707232 
L 303.316364 140.116608 
L 307.374545 138.521448 
L 311.432727 136.945944 
L 315.490909 135.417312 
L 319.549091 133.988472 
L 323.607273 132.772824 
L 327.665455 131.980536 
L 331.723636 131.879232 
L 335.781818 132.493104 
L 339.84 133.566624 
L 343.898182 134.874504 
L 347.956364 136.298808 
L 352.014545 137.780568 
L 356.072727 139.29408 
L 360.130909 140.8212 
L 364.189091 142.351344 
L 368.247273 143.881488 
L 372.305455 145.407096 
L 376.363636 146.92212 
L 380.421818 148.428072 
L 384.48 149.92344 
L 388.538182 151.403688 
L 392.596364 152.870328 
L 396.654545 154.321848 
L 400.712727 155.756736 
L 404.770909 157.174992 
L 408.829091 158.575104 
L 412.887273 159.957072 
L 416.945455 161.319384 
L 421.003636 162.66204 
L 425.061818 163.983528 
L 429.12 165.283848 
L 433.178182 166.559976 
L 437.236364 167.813424 
L 441.294545 169.04268 
L 445.352727 170.24472 
L 449.410909 171.419544 
L 453.469091 172.567152 
L 457.527273 173.683008 
L 461.585455 174.767112 
L 465.643636 175.814928 
L 469.701818 176.824944 
L 473.76 177.791112 
L 477.818182 178.707384 
L 481.876364 179.560152 
L 485.934545 180.332784 
L 489.992727 180.984456 
L 494.050909 181.447128 
L 498.109091 181.619496 
" clip-path="url(#pc9c85e5a9f)" style="fill: none; stroke: #000000; stroke-opacity: 0.5; stroke-linecap: square"/>
   </g>
   <g id="line2d_22">
    <path d="M 92.290909 78.687072 
L 96.349091 78.687072 
L 100.407273 78.68556 
L 104.465455 78.684048 
L 108.523636 78.682536 
L 112.581818 78.681024 
L 116.64 78.678 
L 120.698182 78.676488 
L 124.756364 78.703704 
L 128.814545 80.078112 
L 132.872727 81.562896 
L 136.930909 83.111184 
L 140.989091 84.715416 
L 145.047273 86.36652 
L 149.105455 88.053912 
L 153.163636 89.773056 
L 157.221818 91.519416 
L 161.28 93.286944 
L 165.338182 95.072616 
L 169.396364 96.871896 
L 173.454545 98.683272 
L 177.512727 100.50372 
L 181.570909 102.330216 
L 185.629091 104.161248 
L 189.687273 105.996816 
L 193.745455 107.832384 
L 197.803636 109.66644 
L 201.861818 111.498984 
L 205.92 113.328504 
L 209.978182 115.153488 
L 214.036364 116.9694 
L 218.094545 118.779264 
L 222.152727 120.577032 
L 226.210909 122.361192 
L 230.269091 124.127208 
L 234.327273 125.870544 
L 238.385455 127.58364 
L 242.443636 129.249864 
L 246.501818 130.843512 
L 250.56 132.30864 
L 254.618182 133.516728 
L 258.676364 134.209224 
L 262.734545 134.094312 
L 266.792727 133.258176 
L 270.850909 132.02136 
L 274.909091 130.59252 
L 278.967273 129.0654 
L 283.025455 127.489896 
L 287.083636 125.891712 
L 291.141818 124.298064 
L 295.2 122.74524 
L 299.258182 121.313376 
L 303.316364 120.199032 
L 307.374545 119.81952 
L 311.432727 120.369888 
L 315.490909 121.431312 
L 319.549091 122.607648 
L 323.607273 123.653952 
L 327.665455 124.3026 
L 331.723636 124.2648 
L 335.781818 123.507288 
L 339.84 122.278032 
L 343.898182 120.799296 
L 347.956364 119.189016 
L 352.014545 117.500112 
L 356.072727 115.764336 
L 360.130909 113.995296 
L 364.189091 112.203576 
L 368.247273 110.393712 
L 372.305455 108.57024 
L 376.363636 106.737696 
L 380.421818 104.89608 
L 384.48 103.049928 
L 388.538182 101.200752 
L 392.596364 99.350064 
L 396.654545 97.499376 
L 400.712727 95.651712 
L 404.770909 93.808584 
L 408.829091 91.974528 
L 412.887273 90.152568 
L 416.945455 88.350264 
L 421.003636 86.5782 
L 425.061818 84.863592 
L 429.12 83.280528 
L 433.178182 82.069416 
L 437.236364 81.502416 
L 441.294545 81.302832 
L 445.352727 81.222696 
L 449.410909 81.186408 
L 453.469091 81.168264 
L 457.527273 81.160704 
L 461.585455 81.159192 
L 465.643636 81.160704 
L 469.701818 81.163728 
L 473.76 81.168264 
L 477.818182 81.1728 
L 481.876364 81.175824 
L 485.934545 81.178848 
L 489.992727 81.181872 
L 494.050909 81.183384 
L 498.109091 81.183384 
" clip-path="url(#pc9c85e5a9f)" style="fill: none; stroke: #000000; stroke-opacity: 0.5; stroke-linecap: square"/>
   </g>
   <g id="line2d_23">
    <path d="M 92.290909 72.41832 
L 96.349091 72.53172 
L 100.407273 72.870408 
L 104.465455 73.420776 
L 108.523636 74.167704 
L 112.581818 75.087 
L 116.64 76.157496 
L 120.698182 77.359536 
L 124.756364 78.641712 
L 128.814545 78.668928 
L 132.872727 78.665904 
L 136.930909 78.66288 
L 140.989091 78.659856 
L 145.047273 78.656832 
L 149.105455 78.653808 
L 153.163636 78.652296 
L 157.221818 78.652296 
L 161.28 78.652296 
L 165.338182 78.65532 
L 169.396364 78.658344 
L 173.454545 78.665904 
L 177.512727 78.674976 
L 181.570909 78.688584 
L 185.629091 78.706728 
L 189.687273 78.732432 
L 193.745455 78.76872 
L 197.803636 78.817104 
L 201.861818 78.883632 
L 205.92 78.981912 
L 209.978182 79.128576 
L 214.036364 79.362936 
L 218.094545 79.760592 
L 222.152727 80.444016 
L 226.210909 81.52056 
L 230.269091 82.946376 
L 234.327273 84.586896 
L 238.385455 86.339304 
L 242.443636 88.147656 
L 246.501818 89.983224 
L 250.56 91.8324 
L 254.618182 93.6846 
L 258.676364 95.5368 
L 262.734545 97.382952 
L 266.792727 99.220032 
L 270.850909 101.045016 
L 274.909091 102.85488 
L 278.967273 104.645088 
L 283.025455 106.409592 
L 287.083636 108.13932 
L 291.141818 109.819152 
L 295.2 111.4128 
L 299.258182 112.843152 
L 303.316364 113.910624 
L 307.374545 114.19488 
L 311.432727 113.481216 
L 315.490909 112.170312 
L 319.549091 110.602368 
L 323.607273 108.919512 
L 327.665455 107.176176 
L 331.723636 105.39504 
L 335.781818 103.589712 
L 339.84 101.769264 
L 343.898182 99.938232 
L 347.956364 98.101152 
L 352.014545 96.26256 
L 356.072727 94.430016 
L 360.130909 92.61108 
L 364.189091 90.816336 
L 368.247273 89.062416 
L 372.305455 87.37956 
L 376.363636 85.811616 
L 380.421818 84.4236 
L 384.48 83.292624 
L 388.538182 82.458 
L 392.596364 81.892512 
L 396.654545 81.523584 
L 400.712727 81.283176 
L 404.770909 81.121392 
L 408.829091 81.011016 
L 412.887273 80.927856 
L 416.945455 80.859816 
L 421.003636 80.78724 
L 425.061818 80.687448 
L 429.12 80.483328 
L 433.178182 79.935984 
L 437.236364 78.780816 
L 441.294545 77.296032 
L 445.352727 75.740184 
L 449.410909 74.196432 
L 453.469091 72.701064 
L 457.527273 71.27676 
L 461.585455 69.944688 
L 465.643636 68.724504 
L 469.701818 67.63284 
L 473.76 66.686328 
L 477.818182 65.895552 
L 481.876364 65.262024 
L 485.934545 64.784232 
L 489.992727 64.451592 
L 494.050909 64.258056 
L 498.109091 64.19304 
" clip-path="url(#pc9c85e5a9f)" style="fill: none; stroke: #000000; stroke-opacity: 0.5; stroke-linecap: square"/>
   </g>
   <g id="patch_3">
    <path d="M 72 384.48 
L 72 51.84 
" style="fill: none; stroke: #000000; stroke-width: 0.8; stroke-linejoin: miter; stroke-linecap: square"/>
   </g>
   <g id="patch_4">
    <path d="M 518.4 384.48 
L 518.4 51.84 
" style="fill: none; stroke: #000000; stroke-width: 0.8; stroke-linejoin: miter; stroke-linecap: square"/>
   </g>
   <g id="patch_5">
    <path d="M 72 384.48 
L 518.4 384.48 
" style="fill: none; stroke: #000000; stroke-width: 0.8; stroke-linejoin: miter; stroke-linecap: square"/>
   </g>
   <g id="patch_6">
    <path d="M 72 51.84 
L 518.4 51.84 
" style="fill: none; stroke: #000000; stroke-width: 0.8; stroke-linejoin: miter; stroke-linecap: square"/>
   </g>
  </g>
 </g>
 <defs>
  <clipPath id="pc9c85e5a9f">
   <rect x="72" y="51.84" width="446.4" height="332.64"/>
  </clipPath>
 </defs>
</svg>
