<?xml version="1.0" encoding="utf-8" standalone="no"?>
<!DOCTYPE svg PUBLIC "-//W3C//DTD SVG 1.1//EN"
  "http://www.w3.org/Graphics/SVG/1.1/DTD/svg11.dtd">
<svg xmlns:xlink="http://www.w3.org/1999/xlink" width="576pt" height="432pt" viewBox="0 0 576 432" xmlns="http://www.w3.org/2000/svg" version="1.1">
 <metadata>
  <rdf:RDF xmlns:dc="http://purl.org/dc/elements/1.1/" xmlns:cc="http://creativecommons.org/ns#" xmlns:rdf="http://www.w3.org/1999/02/22-rdf-syntax-ns#">
   <cc:Work>
    <dc:type rdf:resource="http://purl.org/dc/dcmitype/StillImage"/>
    <dc:date>2023-05-03T14:43:59.344709</dc:date>
    <dc:format>image/svg+xml</dc:format>
    <dc:creator>
     <cc:Agent>
      <dc:title>Matplotlib v3.7.1, https://matplotlib.org/</dc:title>
     </cc:Agent>
    </dc:creator>
   </cc:Work>
  </rdf:RDF>
 </metadata>
 <defs>
  <style type="text/css">*{stroke-linejoin: round; stroke-linecap: butt}</style>
 </defs>
 <g id="figure_1">
  <g id="patch_1">
   <path d="M 0 432 
L 576 432 
L 576 0 
L 0 0 
z
" style="fill: #ffffff"/>
  </g>
  <g id="axes_1">
   <g id="patch_2">
    <path d="M 72 384.48 
L 518.4 384.48 
L 518.4 51.84 
L 72 51.84 
z
" style="fill: #ffffff"/>
   </g>
   <g id="matplotlib.axis_1">
    <g id="xtick_1">
     <g id="line2d_1">
      <defs>
       <path id="m30a3c10b16" d="M 0 0 
L 0 3.5 
" style="stroke: #000000; stroke-width: 0.8"/>
      </defs>
      <g>
       <use xlink:href="#m30a3c10b16" x="92.290909" y="384.48" style="stroke: #000000; stroke-width: 0.8"/>
      </g>
     </g>
     <g id="text_1">
      <!-- 0.0 -->
      <g transform="translate(84.339347 399.078438) scale(0.1 -0.1)">
       <defs>
        <path id="DejaVuSans-30" d="M 2034 4250 
Q 1547 4250 1301 3770 
Q 1056 3291 1056 2328 
Q 1056 1369 1301 889 
Q 1547 409 2034 409 
Q 2525 409 2770 889 
Q 3016 1369 3016 2328 
Q 3016 3291 2770 3770 
Q 2525 4250 2034 4250 
z
M 2034 4750 
Q 2819 4750 3233 4129 
Q 3647 3509 3647 2328 
Q 3647 1150 3233 529 
Q 2819 -91 2034 -91 
Q 1250 -91 836 529 
Q 422 1150 422 2328 
Q 422 3509 836 4129 
Q 1250 4750 2034 4750 
z
" transform="scale(0.015625)"/>
        <path id="DejaVuSans-2e" d="M 684 794 
L 1344 794 
L 1344 0 
L 684 0 
L 684 794 
z
" transform="scale(0.015625)"/>
       </defs>
       <use xlink:href="#DejaVuSans-30"/>
       <use xlink:href="#DejaVuSans-2e" x="63.623047"/>
       <use xlink:href="#DejaVuSans-30" x="95.410156"/>
      </g>
     </g>
    </g>
    <g id="xtick_2">
     <g id="line2d_2">
      <g>
       <use xlink:href="#m30a3c10b16" x="173.454545" y="384.48" style="stroke: #000000; stroke-width: 0.8"/>
      </g>
     </g>
     <g id="text_2">
      <!-- 0.2 -->
      <g transform="translate(165.502983 399.078438) scale(0.1 -0.1)">
       <defs>
        <path id="DejaVuSans-32" d="M 1228 531 
L 3431 531 
L 3431 0 
L 469 0 
L 469 531 
Q 828 903 1448 1529 
Q 2069 2156 2228 2338 
Q 2531 2678 2651 2914 
Q 2772 3150 2772 3378 
Q 2772 3750 2511 3984 
Q 2250 4219 1831 4219 
Q 1534 4219 1204 4116 
Q 875 4013 500 3803 
L 500 4441 
Q 881 4594 1212 4672 
Q 1544 4750 1819 4750 
Q 2544 4750 2975 4387 
Q 3406 4025 3406 3419 
Q 3406 3131 3298 2873 
Q 3191 2616 2906 2266 
Q 2828 2175 2409 1742 
Q 1991 1309 1228 531 
z
" transform="scale(0.015625)"/>
       </defs>
       <use xlink:href="#DejaVuSans-30"/>
       <use xlink:href="#DejaVuSans-2e" x="63.623047"/>
       <use xlink:href="#DejaVuSans-32" x="95.410156"/>
      </g>
     </g>
    </g>
    <g id="xtick_3">
     <g id="line2d_3">
      <g>
       <use xlink:href="#m30a3c10b16" x="254.618182" y="384.48" style="stroke: #000000; stroke-width: 0.8"/>
      </g>
     </g>
     <g id="text_3">
      <!-- 0.4 -->
      <g transform="translate(246.666619 399.078438) scale(0.1 -0.1)">
       <defs>
        <path id="DejaVuSans-34" d="M 2419 4116 
L 825 1625 
L 2419 1625 
L 2419 4116 
z
M 2253 4666 
L 3047 4666 
L 3047 1625 
L 3713 1625 
L 3713 1100 
L 3047 1100 
L 3047 0 
L 2419 0 
L 2419 1100 
L 313 1100 
L 313 1709 
L 2253 4666 
z
" transform="scale(0.015625)"/>
       </defs>
       <use xlink:href="#DejaVuSans-30"/>
       <use xlink:href="#DejaVuSans-2e" x="63.623047"/>
       <use xlink:href="#DejaVuSans-34" x="95.410156"/>
      </g>
     </g>
    </g>
    <g id="xtick_4">
     <g id="line2d_4">
      <g>
       <use xlink:href="#m30a3c10b16" x="335.781818" y="384.48" style="stroke: #000000; stroke-width: 0.8"/>
      </g>
     </g>
     <g id="text_4">
      <!-- 0.6 -->
      <g transform="translate(327.830256 399.078438) scale(0.1 -0.1)">
       <defs>
        <path id="DejaVuSans-36" d="M 2113 2584 
Q 1688 2584 1439 2293 
Q 1191 2003 1191 1497 
Q 1191 994 1439 701 
Q 1688 409 2113 409 
Q 2538 409 2786 701 
Q 3034 994 3034 1497 
Q 3034 2003 2786 2293 
Q 2538 2584 2113 2584 
z
M 3366 4563 
L 3366 3988 
Q 3128 4100 2886 4159 
Q 2644 4219 2406 4219 
Q 1781 4219 1451 3797 
Q 1122 3375 1075 2522 
Q 1259 2794 1537 2939 
Q 1816 3084 2150 3084 
Q 2853 3084 3261 2657 
Q 3669 2231 3669 1497 
Q 3669 778 3244 343 
Q 2819 -91 2113 -91 
Q 1303 -91 875 529 
Q 447 1150 447 2328 
Q 447 3434 972 4092 
Q 1497 4750 2381 4750 
Q 2619 4750 2861 4703 
Q 3103 4656 3366 4563 
z
" transform="scale(0.015625)"/>
       </defs>
       <use xlink:href="#DejaVuSans-30"/>
       <use xlink:href="#DejaVuSans-2e" x="63.623047"/>
       <use xlink:href="#DejaVuSans-36" x="95.410156"/>
      </g>
     </g>
    </g>
    <g id="xtick_5">
     <g id="line2d_5">
      <g>
       <use xlink:href="#m30a3c10b16" x="416.945455" y="384.48" style="stroke: #000000; stroke-width: 0.8"/>
      </g>
     </g>
     <g id="text_5">
      <!-- 0.8 -->
      <g transform="translate(408.993892 399.078438) scale(0.1 -0.1)">
       <defs>
        <path id="DejaVuSans-38" d="M 2034 2216 
Q 1584 2216 1326 1975 
Q 1069 1734 1069 1313 
Q 1069 891 1326 650 
Q 1584 409 2034 409 
Q 2484 409 2743 651 
Q 3003 894 3003 1313 
Q 3003 1734 2745 1975 
Q 2488 2216 2034 2216 
z
M 1403 2484 
Q 997 2584 770 2862 
Q 544 3141 544 3541 
Q 544 4100 942 4425 
Q 1341 4750 2034 4750 
Q 2731 4750 3128 4425 
Q 3525 4100 3525 3541 
Q 3525 3141 3298 2862 
Q 3072 2584 2669 2484 
Q 3125 2378 3379 2068 
Q 3634 1759 3634 1313 
Q 3634 634 3220 271 
Q 2806 -91 2034 -91 
Q 1263 -91 848 271 
Q 434 634 434 1313 
Q 434 1759 690 2068 
Q 947 2378 1403 2484 
z
M 1172 3481 
Q 1172 3119 1398 2916 
Q 1625 2713 2034 2713 
Q 2441 2713 2670 2916 
Q 2900 3119 2900 3481 
Q 2900 3844 2670 4047 
Q 2441 4250 2034 4250 
Q 1625 4250 1398 4047 
Q 1172 3844 1172 3481 
z
" transform="scale(0.015625)"/>
       </defs>
       <use xlink:href="#DejaVuSans-30"/>
       <use xlink:href="#DejaVuSans-2e" x="63.623047"/>
       <use xlink:href="#DejaVuSans-38" x="95.410156"/>
      </g>
     </g>
    </g>
    <g id="xtick_6">
     <g id="line2d_6">
      <g>
       <use xlink:href="#m30a3c10b16" x="498.109091" y="384.48" style="stroke: #000000; stroke-width: 0.8"/>
      </g>
     </g>
     <g id="text_6">
      <!-- 1.0 -->
      <g transform="translate(490.157528 399.078438) scale(0.1 -0.1)">
       <defs>
        <path id="DejaVuSans-31" d="M 794 531 
L 1825 531 
L 1825 4091 
L 703 3866 
L 703 4441 
L 1819 4666 
L 2450 4666 
L 2450 531 
L 3481 531 
L 3481 0 
L 794 0 
L 794 531 
z
" transform="scale(0.015625)"/>
       </defs>
       <use xlink:href="#DejaVuSans-31"/>
       <use xlink:href="#DejaVuSans-2e" x="63.623047"/>
       <use xlink:href="#DejaVuSans-30" x="95.410156"/>
      </g>
     </g>
    </g>
   </g>
   <g id="matplotlib.axis_2">
    <g id="ytick_1">
     <g id="line2d_7">
      <defs>
       <path id="mdc4aad76b3" d="M 0 0 
L -3.5 0 
" style="stroke: #000000; stroke-width: 0.8"/>
      </defs>
      <g>
       <use xlink:href="#mdc4aad76b3" x="72" y="369.36" style="stroke: #000000; stroke-width: 0.8"/>
      </g>
     </g>
     <g id="text_7">
      <!-- −5.0 -->
      <g transform="translate(40.717187 373.159219) scale(0.1 -0.1)">
       <defs>
        <path id="DejaVuSans-2212" d="M 678 2272 
L 4684 2272 
L 4684 1741 
L 678 1741 
L 678 2272 
z
" transform="scale(0.015625)"/>
        <path id="DejaVuSans-35" d="M 691 4666 
L 3169 4666 
L 3169 4134 
L 1269 4134 
L 1269 2991 
Q 1406 3038 1543 3061 
Q 1681 3084 1819 3084 
Q 2600 3084 3056 2656 
Q 3513 2228 3513 1497 
Q 3513 744 3044 326 
Q 2575 -91 1722 -91 
Q 1428 -91 1123 -41 
Q 819 9 494 109 
L 494 744 
Q 775 591 1075 516 
Q 1375 441 1709 441 
Q 2250 441 2565 725 
Q 2881 1009 2881 1497 
Q 2881 1984 2565 2268 
Q 2250 2553 1709 2553 
Q 1456 2553 1204 2497 
Q 953 2441 691 2322 
L 691 4666 
z
" transform="scale(0.015625)"/>
       </defs>
       <use xlink:href="#DejaVuSans-2212"/>
       <use xlink:href="#DejaVuSans-35" x="83.789062"/>
       <use xlink:href="#DejaVuSans-2e" x="147.412109"/>
       <use xlink:href="#DejaVuSans-30" x="179.199219"/>
      </g>
     </g>
    </g>
    <g id="ytick_2">
     <g id="line2d_8">
      <g>
       <use xlink:href="#mdc4aad76b3" x="72" y="331.56" style="stroke: #000000; stroke-width: 0.8"/>
      </g>
     </g>
     <g id="text_8">
      <!-- −2.5 -->
      <g transform="translate(40.717187 335.359219) scale(0.1 -0.1)">
       <use xlink:href="#DejaVuSans-2212"/>
       <use xlink:href="#DejaVuSans-32" x="83.789062"/>
       <use xlink:href="#DejaVuSans-2e" x="147.412109"/>
       <use xlink:href="#DejaVuSans-35" x="179.199219"/>
      </g>
     </g>
    </g>
    <g id="ytick_3">
     <g id="line2d_9">
      <g>
       <use xlink:href="#mdc4aad76b3" x="72" y="293.76" style="stroke: #000000; stroke-width: 0.8"/>
      </g>
     </g>
     <g id="text_9">
      <!-- 0.0 -->
      <g transform="translate(49.096875 297.559219) scale(0.1 -0.1)">
       <use xlink:href="#DejaVuSans-30"/>
       <use xlink:href="#DejaVuSans-2e" x="63.623047"/>
       <use xlink:href="#DejaVuSans-30" x="95.410156"/>
      </g>
     </g>
    </g>
    <g id="ytick_4">
     <g id="line2d_10">
      <g>
       <use xlink:href="#mdc4aad76b3" x="72" y="255.96" style="stroke: #000000; stroke-width: 0.8"/>
      </g>
     </g>
     <g id="text_10">
      <!-- 2.5 -->
      <g transform="translate(49.096875 259.759219) scale(0.1 -0.1)">
       <use xlink:href="#DejaVuSans-32"/>
       <use xlink:href="#DejaVuSans-2e" x="63.623047"/>
       <use xlink:href="#DejaVuSans-35" x="95.410156"/>
      </g>
     </g>
    </g>
    <g id="ytick_5">
     <g id="line2d_11">
      <g>
       <use xlink:href="#mdc4aad76b3" x="72" y="218.16" style="stroke: #000000; stroke-width: 0.8"/>
      </g>
     </g>
     <g id="text_11">
      <!-- 5.0 -->
      <g transform="translate(49.096875 221.959219) scale(0.1 -0.1)">
       <use xlink:href="#DejaVuSans-35"/>
       <use xlink:href="#DejaVuSans-2e" x="63.623047"/>
       <use xlink:href="#DejaVuSans-30" x="95.410156"/>
      </g>
     </g>
    </g>
    <g id="ytick_6">
     <g id="line2d_12">
      <g>
       <use xlink:href="#mdc4aad76b3" x="72" y="180.36" style="stroke: #000000; stroke-width: 0.8"/>
      </g>
     </g>
     <g id="text_12">
      <!-- 7.5 -->
      <g transform="translate(49.096875 184.159219) scale(0.1 -0.1)">
       <defs>
        <path id="DejaVuSans-37" d="M 525 4666 
L 3525 4666 
L 3525 4397 
L 1831 0 
L 1172 0 
L 2766 4134 
L 525 4134 
L 525 4666 
z
" transform="scale(0.015625)"/>
       </defs>
       <use xlink:href="#DejaVuSans-37"/>
       <use xlink:href="#DejaVuSans-2e" x="63.623047"/>
       <use xlink:href="#DejaVuSans-35" x="95.410156"/>
      </g>
     </g>
    </g>
    <g id="ytick_7">
     <g id="line2d_13">
      <g>
       <use xlink:href="#mdc4aad76b3" x="72" y="142.56" style="stroke: #000000; stroke-width: 0.8"/>
      </g>
     </g>
     <g id="text_13">
      <!-- 10.0 -->
      <g transform="translate(42.734375 146.359219) scale(0.1 -0.1)">
       <use xlink:href="#DejaVuSans-31"/>
       <use xlink:href="#DejaVuSans-30" x="63.623047"/>
       <use xlink:href="#DejaVuSans-2e" x="127.246094"/>
       <use xlink:href="#DejaVuSans-30" x="159.033203"/>
      </g>
     </g>
    </g>
    <g id="ytick_8">
     <g id="line2d_14">
      <g>
       <use xlink:href="#mdc4aad76b3" x="72" y="104.76" style="stroke: #000000; stroke-width: 0.8"/>
      </g>
     </g>
     <g id="text_14">
      <!-- 12.5 -->
      <g transform="translate(42.734375 108.559219) scale(0.1 -0.1)">
       <use xlink:href="#DejaVuSans-31"/>
       <use xlink:href="#DejaVuSans-32" x="63.623047"/>
       <use xlink:href="#DejaVuSans-2e" x="127.246094"/>
       <use xlink:href="#DejaVuSans-35" x="159.033203"/>
      </g>
     </g>
    </g>
    <g id="ytick_9">
     <g id="line2d_15">
      <g>
       <use xlink:href="#mdc4aad76b3" x="72" y="66.96" style="stroke: #000000; stroke-width: 0.8"/>
      </g>
     </g>
     <g id="text_15">
      <!-- 15.0 -->
      <g transform="translate(42.734375 70.759219) scale(0.1 -0.1)">
       <use xlink:href="#DejaVuSans-31"/>
       <use xlink:href="#DejaVuSans-35" x="63.623047"/>
       <use xlink:href="#DejaVuSans-2e" x="127.246094"/>
       <use xlink:href="#DejaVuSans-30" x="159.033203"/>
      </g>
     </g>
    </g>
   </g>
   <g id="line2d_16">
    <path d="M 92.290909 362.481912 
L 96.349091 362.475864 
L 100.407273 362.459232 
L 104.465455 362.432016 
L 108.523636 362.392704 
L 112.581818 362.341296 
L 116.64 362.279304 
L 120.698182 362.206728 
L 124.756364 362.122056 
L 128.814545 362.0268 
L 132.872727 361.92096 
L 136.930909 361.803024 
L 140.989091 361.674504 
L 145.047273 361.5354 
L 149.105455 361.3842 
L 153.163636 361.222416 
L 157.221818 361.050048 
L 161.28 360.867096 
L 165.338182 360.672048 
L 169.396364 360.467928 
L 173.454545 360.251712 
L 177.512727 360.024912 
L 181.570909 359.787528 
L 185.629091 359.541072 
L 189.687273 359.28252 
L 193.745455 359.014896 
L 197.803636 358.735176 
L 201.861818 358.446384 
L 205.92 358.14852 
L 209.978182 357.83856 
L 214.036364 357.52104 
L 218.094545 357.191424 
L 222.152727 356.852736 
L 226.210909 356.504976 
L 230.269091 356.148144 
L 234.327273 355.78224 
L 238.385455 355.405752 
L 242.443636 355.021704 
L 246.501818 354.627072 
L 250.56 354.22488 
L 254.618182 353.815128 
L 258.676364 353.394792 
L 262.734545 352.968408 
L 266.792727 352.532952 
L 270.850909 352.089936 
L 274.909091 351.63936 
L 278.967273 351.182736 
L 283.025455 350.71704 
L 287.083636 350.246808 
L 291.141818 349.769016 
L 295.2 349.283664 
L 299.258182 348.793776 
L 303.316364 348.299352 
L 307.374545 347.79888 
L 311.432727 347.29236 
L 315.490909 346.782816 
L 319.549091 346.268736 
L 323.607273 345.751632 
L 327.665455 345.229992 
L 331.723636 344.70684 
L 335.781818 344.180664 
L 339.84 343.652976 
L 343.898182 343.123776 
L 347.956364 342.594576 
L 352.014545 342.063864 
L 356.072727 341.534664 
L 360.130909 341.006976 
L 364.189091 340.4808 
L 368.247273 339.956136 
L 372.305455 339.436008 
L 376.363636 338.918904 
L 380.421818 338.407848 
L 384.48 337.901328 
L 388.538182 337.402368 
L 392.596364 336.909456 
L 396.654545 336.425616 
L 400.712727 335.949336 
L 404.770909 335.485152 
L 408.829091 335.031552 
L 412.887273 334.588536 
L 416.945455 334.16064 
L 421.003636 333.74484 
L 425.061818 333.34416 
L 429.12 332.960112 
L 433.178182 332.591184 
L 437.236364 332.2404 
L 441.294545 331.909272 
L 445.352727 331.596288 
L 449.410909 331.30296 
L 453.469091 331.0308 
L 457.527273 330.78132 
L 461.585455 330.553008 
L 465.643636 330.345864 
L 469.701818 330.162912 
L 473.76 330.004152 
L 477.818182 329.868072 
L 481.876364 329.757696 
L 485.934545 329.67 
L 489.992727 329.608008 
L 494.050909 329.57172 
L 498.109091 329.558112 
" clip-path="url(#p08fbdd8435)" style="fill: none; stroke: #000000; stroke-opacity: 0.5; stroke-linecap: square"/>
   </g>
   <g id="line2d_17">
    <path d="M 92.290909 264.536064 
L 96.349091 264.567816 
L 100.407273 264.664584 
L 104.465455 264.823344 
L 108.523636 265.042584 
L 112.581818 265.317768 
L 116.64 265.647384 
L 120.698182 266.026896 
L 124.756364 266.451768 
L 128.814545 266.917464 
L 132.872727 267.42096 
L 136.930909 267.95772 
L 140.989091 268.523208 
L 145.047273 269.115912 
L 149.105455 269.729784 
L 153.163636 270.364824 
L 157.221818 271.016496 
L 161.28 271.681776 
L 165.338182 272.360664 
L 169.396364 273.048624 
L 173.454545 273.747168 
L 177.512727 274.45176 
L 181.570909 275.160888 
L 185.629091 275.874552 
L 189.687273 276.59124 
L 193.745455 277.30944 
L 197.803636 278.02764 
L 201.861818 278.74584 
L 205.92 279.462528 
L 209.978182 280.177704 
L 214.036364 280.891368 
L 218.094545 281.600496 
L 222.152727 282.305088 
L 226.210909 283.006656 
L 230.269091 283.702176 
L 234.327273 284.391648 
L 238.385455 285.076584 
L 242.443636 285.75396 
L 246.501818 286.425288 
L 250.56 287.089056 
L 254.618182 287.745264 
L 258.676364 288.393912 
L 262.734545 289.033488 
L 266.792727 289.665504 
L 270.850909 290.288448 
L 274.909091 290.90232 
L 278.967273 291.50712 
L 283.025455 292.102848 
L 287.083636 292.687992 
L 291.141818 293.264064 
L 295.2 293.829552 
L 299.258182 294.384456 
L 303.316364 294.928776 
L 307.374545 295.462512 
L 311.432727 295.985664 
L 315.490909 296.498232 
L 319.549091 296.998704 
L 323.607273 297.48708 
L 327.665455 297.964872 
L 331.723636 298.430568 
L 335.781818 298.88568 
L 339.84 299.327184 
L 343.898182 299.756592 
L 347.956364 300.173904 
L 352.014545 300.57912 
L 356.072727 300.970728 
L 360.130909 301.35024 
L 364.189091 301.717656 
L 368.247273 302.071464 
L 372.305455 302.411664 
L 376.363636 302.739768 
L 380.421818 303.054264 
L 384.48 303.355152 
L 388.538182 303.643944 
L 392.596364 303.917616 
L 396.654545 304.179192 
L 400.712727 304.425648 
L 404.770909 304.660008 
L 408.829091 304.88076 
L 412.887273 305.087904 
L 416.945455 305.282952 
L 421.003636 305.464392 
L 425.061818 305.632224 
L 429.12 305.78796 
L 433.178182 305.9316 
L 437.236364 306.064656 
L 441.294545 306.184104 
L 445.352727 306.292968 
L 449.410909 306.389736 
L 453.469091 306.477432 
L 457.527273 306.556056 
L 461.585455 306.624096 
L 465.643636 306.683064 
L 469.701818 306.734472 
L 473.76 306.776808 
L 477.818182 306.811584 
L 481.876364 306.840312 
L 485.934545 306.862992 
L 489.992727 306.878112 
L 494.050909 306.887184 
L 498.109091 306.890208 
" clip-path="url(#p08fbdd8435)" style="fill: none; stroke: #000000; stroke-opacity: 0.5; stroke-linecap: square"/>
   </g>
   <g id="line2d_18">
    <path d="M 92.290909 238.943952 
L 96.349091 238.918248 
L 100.407273 238.842648 
L 104.465455 238.718664 
L 108.523636 238.54932 
L 112.581818 238.339152 
L 116.64 238.091184 
L 120.698182 237.812976 
L 124.756364 237.510576 
L 128.814545 237.191544 
L 132.872727 236.864952 
L 136.930909 236.542896 
L 140.989091 236.234448 
L 145.047273 235.959264 
L 149.105455 235.732464 
L 153.163636 235.575216 
L 157.221818 235.501128 
L 161.28 235.516248 
L 165.338182 235.619064 
L 169.396364 235.798992 
L 173.454545 236.042424 
L 177.512727 236.338776 
L 181.570909 236.675952 
L 185.629091 237.047904 
L 189.687273 237.447072 
L 193.745455 237.86892 
L 197.803636 238.310424 
L 201.861818 238.76856 
L 205.92 239.238792 
L 209.978182 239.722632 
L 214.036364 240.215544 
L 218.094545 240.717528 
L 222.152727 241.227072 
L 226.210909 241.742664 
L 230.269091 242.262792 
L 234.327273 242.787456 
L 238.385455 243.315144 
L 242.443636 243.845856 
L 246.501818 244.376568 
L 250.56 244.908792 
L 254.618182 245.441016 
L 258.676364 245.971728 
L 262.734545 246.50244 
L 266.792727 247.03164 
L 270.850909 247.557816 
L 274.909091 248.080968 
L 278.967273 248.601096 
L 283.025455 249.1182 
L 287.083636 249.629256 
L 291.141818 250.137288 
L 295.2 250.640784 
L 299.258182 251.138232 
L 303.316364 251.631144 
L 307.374545 252.116496 
L 311.432727 252.597312 
L 315.490909 253.07208 
L 319.549091 253.539288 
L 323.607273 253.998936 
L 327.665455 254.452536 
L 331.723636 254.898576 
L 335.781818 255.337056 
L 339.84 255.767976 
L 343.898182 256.191336 
L 347.956364 256.607136 
L 352.014545 257.013864 
L 356.072727 257.413032 
L 360.130909 257.803128 
L 364.189091 258.185664 
L 368.247273 258.559128 
L 372.305455 258.92352 
L 376.363636 259.280352 
L 380.421818 259.628112 
L 384.48 259.965288 
L 388.538182 260.294904 
L 392.596364 260.615448 
L 396.654545 260.92692 
L 400.712727 261.22932 
L 404.770909 261.521136 
L 408.829091 261.80388 
L 412.887273 262.077552 
L 416.945455 262.34064 
L 421.003636 262.594656 
L 425.061818 262.838088 
L 429.12 263.072448 
L 433.178182 263.294712 
L 437.236364 263.506392 
L 441.294545 263.707488 
L 445.352727 263.898 
L 449.410909 264.074904 
L 453.469091 264.241224 
L 457.527273 264.393936 
L 461.585455 264.534552 
L 465.643636 264.66156 
L 469.701818 264.77496 
L 473.76 264.874752 
L 477.818182 264.959424 
L 481.876364 265.028976 
L 485.934545 265.083408 
L 489.992727 265.12272 
L 494.050909 265.146912 
L 498.109091 265.154472 
" clip-path="url(#p08fbdd8435)" style="fill: none; stroke: #000000; stroke-opacity: 0.5; stroke-linecap: square"/>
   </g>
   <g id="line2d_19">
    <path d="M 92.290909 229.879512 
L 96.349091 229.888584 
L 100.407273 229.918824 
L 104.465455 229.965696 
L 108.523636 230.032224 
L 112.581818 230.116896 
L 116.64 230.216688 
L 120.698182 230.330088 
L 124.756364 230.454072 
L 128.814545 230.587128 
L 132.872727 230.721696 
L 136.930909 230.851728 
L 140.989091 230.96664 
L 145.047273 231.055848 
L 149.105455 231.10272 
L 153.163636 231.092136 
L 157.221818 231.010488 
L 161.28 230.85324 
L 165.338182 230.623416 
L 169.396364 230.334624 
L 173.454545 229.99896 
L 177.512727 229.631544 
L 181.570909 229.24296 
L 185.629091 228.840768 
L 189.687273 228.432528 
L 193.745455 228.022776 
L 197.803636 227.61756 
L 201.861818 227.21688 
L 205.92 226.826784 
L 209.978182 226.447272 
L 214.036364 226.08288 
L 218.094545 225.733608 
L 222.152727 225.400968 
L 226.210909 225.087984 
L 230.269091 224.794656 
L 234.327273 224.524008 
L 238.385455 224.277552 
L 242.443636 224.055288 
L 246.501818 223.86024 
L 250.56 223.692408 
L 254.618182 223.554816 
L 258.676364 223.448976 
L 262.734545 223.3764 
L 266.792727 223.337088 
L 270.850909 223.334064 
L 274.909091 223.365816 
L 278.967273 223.43688 
L 283.025455 223.545744 
L 287.083636 223.695432 
L 291.141818 223.884432 
L 295.2 224.112744 
L 299.258182 224.383392 
L 303.316364 224.693352 
L 307.374545 225.042624 
L 311.432727 225.431208 
L 315.490909 225.857592 
L 319.549091 226.321776 
L 323.607273 226.819224 
L 327.665455 227.351448 
L 331.723636 227.915424 
L 335.781818 228.508128 
L 339.84 229.128048 
L 343.898182 229.77216 
L 347.956364 230.440464 
L 352.014545 231.126912 
L 356.072727 231.831504 
L 360.130909 232.549704 
L 364.189091 233.281512 
L 368.247273 234.022392 
L 372.305455 234.770832 
L 376.363636 235.522296 
L 380.421818 236.278296 
L 384.48 237.032784 
L 388.538182 237.784248 
L 392.596364 238.531176 
L 396.654545 239.272056 
L 400.712727 240.002352 
L 404.770909 240.722064 
L 408.829091 241.426656 
L 412.887273 242.11764 
L 416.945455 242.788968 
L 421.003636 243.442152 
L 425.061818 244.074168 
L 429.12 244.681992 
L 433.178182 245.264112 
L 437.236364 245.820528 
L 441.294545 246.349728 
L 445.352727 246.847176 
L 449.410909 247.314384 
L 453.469091 247.74984 
L 457.527273 248.15052 
L 461.585455 248.516424 
L 465.643636 248.84604 
L 469.701818 249.139368 
L 473.76 249.396408 
L 477.818182 249.614136 
L 481.876364 249.792552 
L 485.934545 249.931656 
L 489.992727 250.031448 
L 494.050909 250.091928 
L 498.109091 250.111584 
" clip-path="url(#p08fbdd8435)" style="fill: none; stroke: #000000; stroke-opacity: 0.5; stroke-linecap: square"/>
   </g>
   <g id="line2d_20">
    <path d="M 92.290909 178.324848 
L 96.349091 178.317288 
L 100.407273 178.293096 
L 104.465455 178.255296 
L 108.523636 178.199352 
L 112.581818 178.125264 
L 116.64 178.033032 
L 120.698182 177.921144 
L 124.756364 177.785064 
L 128.814545 177.626304 
L 132.872727 177.44184 
L 136.930909 177.228648 
L 140.989091 176.98824 
L 145.047273 176.717592 
L 149.105455 176.415192 
L 153.163636 176.079528 
L 157.221818 175.7106 
L 161.28 175.306896 
L 165.338182 174.868416 
L 169.396364 174.39516 
L 173.454545 173.887128 
L 177.512727 173.342808 
L 181.570909 172.763712 
L 185.629091 172.14984 
L 189.687273 171.502704 
L 193.745455 170.823816 
L 197.803636 170.114688 
L 201.861818 169.376832 
L 205.92 168.613272 
L 209.978182 167.828544 
L 214.036364 167.025672 
L 218.094545 166.21524 
L 222.152727 165.403296 
L 226.210909 164.607984 
L 230.269091 163.850472 
L 234.327273 163.167048 
L 238.385455 162.60912 
L 242.443636 162.23868 
L 246.501818 162.108648 
L 250.56 162.226584 
L 254.618182 162.545616 
L 258.676364 163.00224 
L 262.734545 163.539 
L 266.792727 164.11356 
L 270.850909 164.698704 
L 274.909091 165.274776 
L 278.967273 165.82968 
L 283.025455 166.354344 
L 287.083636 166.84272 
L 291.141818 167.287248 
L 295.2 167.687928 
L 299.258182 168.040224 
L 303.316364 168.342624 
L 307.374545 168.593616 
L 311.432727 168.791688 
L 315.490909 168.93684 
L 319.549091 169.029072 
L 323.607273 169.068384 
L 327.665455 169.056288 
L 331.723636 168.991272 
L 335.781818 168.877872 
L 339.84 168.714576 
L 343.898182 168.504408 
L 347.956364 168.247368 
L 352.014545 167.944968 
L 356.072727 167.600232 
L 360.130909 167.214672 
L 364.189091 166.788288 
L 368.247273 166.324104 
L 372.305455 165.823632 
L 376.363636 165.286872 
L 380.421818 164.71836 
L 384.48 164.116584 
L 388.538182 163.484568 
L 392.596364 162.822312 
L 396.654545 162.13284 
L 400.712727 161.417664 
L 404.770909 160.678296 
L 408.829091 159.913224 
L 412.887273 159.128496 
L 416.945455 158.3226 
L 421.003636 157.500072 
L 425.061818 156.662424 
L 429.12 155.814192 
L 433.178182 154.9584 
L 437.236364 154.105632 
L 441.294545 153.266472 
L 445.352727 152.466624 
L 449.410909 151.739352 
L 453.469091 151.143624 
L 457.527273 150.721776 
L 461.585455 150.469272 
L 465.643636 150.336216 
L 469.701818 150.275736 
L 473.76 150.251544 
L 477.818182 150.24852 
L 481.876364 150.253056 
L 485.934545 150.262128 
L 489.992727 150.269688 
L 494.050909 150.275736 
L 498.109091 150.277248 
" clip-path="url(#p08fbdd8435)" style="fill: none; stroke: #000000; stroke-opacity: 0.5; stroke-linecap: square"/>
   </g>
   <g id="line2d_21">
    <path d="M 92.290909 153.248328 
L 96.349091 153.215064 
L 100.407273 153.112248 
L 104.465455 152.942904 
L 108.523636 152.70552 
L 112.581818 152.404632 
L 116.64 152.04024 
L 120.698182 151.613856 
L 124.756364 151.128504 
L 128.814545 150.58872 
L 132.872727 149.994504 
L 136.930909 149.351904 
L 140.989091 148.662432 
L 145.047273 147.930624 
L 149.105455 147.162528 
L 153.163636 146.365704 
L 157.221818 145.5462 
L 161.28 144.72216 
L 165.338182 143.91324 
L 169.396364 143.167824 
L 173.454545 142.563024 
L 177.512727 142.23492 
L 181.570909 142.307496 
L 185.629091 142.768656 
L 189.687273 143.491392 
L 193.745455 144.362304 
L 197.803636 145.31184 
L 201.861818 146.303712 
L 205.92 147.313728 
L 209.978182 148.325256 
L 214.036364 149.324688 
L 218.094545 150.299928 
L 222.152727 151.235856 
L 226.210909 152.114328 
L 230.269091 152.908128 
L 234.327273 153.579456 
L 238.385455 154.076904 
L 242.443636 154.332432 
L 246.501818 154.296144 
L 250.56 153.955944 
L 254.618182 153.354168 
L 258.676364 152.557344 
L 262.734545 151.619904 
L 266.792727 150.58116 
L 270.850909 149.471352 
L 274.909091 148.3056 
L 278.967273 147.096 
L 283.025455 145.854648 
L 287.083636 144.589104 
L 291.141818 143.311464 
L 295.2 142.044408 
L 299.258182 140.860512 
L 303.316364 140.025888 
L 307.374545 139.867128 
L 311.432727 140.060664 
L 315.490909 140.353992 
L 319.549091 140.679072 
L 323.607273 141.016248 
L 327.665455 141.35796 
L 331.723636 141.701184 
L 335.781818 142.042896 
L 339.84 142.381584 
L 343.898182 142.71876 
L 347.956364 143.049888 
L 352.014545 143.37648 
L 356.072727 143.698536 
L 360.130909 144.014544 
L 364.189091 144.324504 
L 368.247273 144.626904 
L 372.305455 144.923256 
L 376.363636 145.210536 
L 380.421818 145.491768 
L 384.48 145.763928 
L 388.538182 146.028528 
L 392.596364 146.282544 
L 396.654545 146.529 
L 400.712727 146.764872 
L 404.770909 146.99016 
L 408.829091 147.204864 
L 412.887273 147.408984 
L 416.945455 147.599496 
L 421.003636 147.774888 
L 425.061818 147.936672 
L 429.12 148.0788 
L 433.178182 148.196736 
L 437.236364 148.285944 
L 441.294545 148.332816 
L 445.352727 148.317696 
L 449.410909 148.202784 
L 453.469091 147.93516 
L 457.527273 147.474 
L 461.585455 146.82384 
L 465.643636 146.039112 
L 469.701818 145.177272 
L 473.76 144.274608 
L 477.818182 143.364384 
L 481.876364 142.478352 
L 485.934545 141.6528 
L 489.992727 140.94972 
L 494.050909 140.456808 
L 498.109091 140.27688 
" clip-path="url(#p08fbdd8435)" style="fill: none; stroke: #000000; stroke-opacity: 0.5; stroke-linecap: square"/>
   </g>
   <g id="line2d_22">
    <path d="M 92.290909 129.58704 
L 96.349091 129.599136 
L 100.407273 129.633912 
L 104.465455 129.691368 
L 108.523636 129.77604 
L 112.581818 129.887928 
L 116.64 130.027032 
L 120.698182 130.200912 
L 124.756364 130.409568 
L 128.814545 130.66056 
L 132.872727 130.958424 
L 136.930909 131.309208 
L 140.989091 131.717448 
L 145.047273 132.190704 
L 149.105455 132.728976 
L 153.163636 133.332264 
L 157.221818 133.991496 
L 161.28 134.688528 
L 165.338182 135.397656 
L 169.396364 136.068984 
L 173.454545 136.611792 
L 177.512727 136.888488 
L 181.570909 136.76904 
L 185.629091 136.264032 
L 189.687273 135.501984 
L 193.745455 134.60688 
L 197.803636 133.672464 
L 201.861818 132.801552 
L 205.92 132.140808 
L 209.978182 131.820264 
L 214.036364 131.788512 
L 218.094545 131.920056 
L 222.152727 132.131736 
L 226.210909 132.388776 
L 230.269091 132.67152 
L 234.327273 132.972408 
L 238.385455 133.286904 
L 242.443636 133.610472 
L 246.501818 133.943112 
L 250.56 134.2818 
L 254.618182 134.625024 
L 258.676364 134.974296 
L 262.734545 135.326592 
L 266.792727 135.681912 
L 270.850909 136.038744 
L 274.909091 136.397088 
L 278.967273 136.75392 
L 283.025455 137.107728 
L 287.083636 137.453976 
L 291.141818 137.785104 
L 295.2 138.081456 
L 299.258182 138.27348 
L 303.316364 138.095064 
L 307.374545 137.221128 
L 311.432727 135.976752 
L 315.490909 134.615952 
L 319.549091 133.206768 
L 323.607273 131.768856 
L 327.665455 130.311288 
L 331.723636 128.837088 
L 335.781818 127.350792 
L 339.84 125.853912 
L 343.898182 124.346448 
L 347.956364 122.831424 
L 352.014545 121.30884 
L 356.072727 119.78172 
L 360.130909 118.250064 
L 364.189091 116.716896 
L 368.247273 115.18524 
L 372.305455 113.656608 
L 376.363636 112.13856 
L 380.421818 110.644704 
L 384.48 109.20528 
L 388.538182 107.906472 
L 392.596364 107.018928 
L 396.654545 106.878312 
L 400.712727 107.253288 
L 404.770909 107.879256 
L 408.829091 108.680616 
L 412.887273 109.630152 
L 416.945455 110.70216 
L 421.003636 111.863376 
L 425.061818 113.085072 
L 429.12 114.347592 
L 433.178182 115.634304 
L 437.236364 116.933112 
L 441.294545 118.236456 
L 445.352727 119.5398 
L 449.410909 120.837096 
L 453.469091 122.123808 
L 457.527273 123.398424 
L 461.585455 124.656408 
L 465.643636 125.891712 
L 469.701818 127.0998 
L 473.76 128.270088 
L 477.818182 129.393504 
L 481.876364 130.445856 
L 485.934545 131.395392 
L 489.992727 132.186168 
L 494.050909 132.730488 
L 498.109091 132.92856 
" clip-path="url(#p08fbdd8435)" style="fill: none; stroke: #000000; stroke-opacity: 0.5; stroke-linecap: square"/>
   </g>
   <g id="line2d_23">
    <path d="M 92.290909 117.530352 
L 96.349091 117.584784 
L 100.407273 117.749592 
L 104.465455 118.017216 
L 108.523636 118.38312 
L 112.581818 118.835208 
L 116.64 119.364408 
L 120.698182 119.9556 
L 124.756364 120.595176 
L 128.814545 121.27104 
L 132.872727 121.965048 
L 136.930909 122.665104 
L 140.989091 123.354576 
L 145.047273 124.021368 
L 149.105455 124.653384 
L 153.163636 125.243064 
L 157.221818 125.787384 
L 161.28 126.284832 
L 165.338182 126.738432 
L 169.396364 127.15272 
L 173.454545 127.532232 
L 177.512727 127.883016 
L 181.570909 128.205072 
L 185.629091 128.501424 
L 189.687273 128.767536 
L 193.745455 128.991312 
L 197.803636 129.144024 
L 201.861818 129.159144 
L 205.92 128.908152 
L 209.978182 128.277648 
L 214.036364 127.320552 
L 218.094545 126.174456 
L 222.152727 124.919496 
L 226.210909 123.598008 
L 230.269091 122.228136 
L 234.327273 120.821976 
L 238.385455 119.385576 
L 242.443636 117.920448 
L 246.501818 116.434152 
L 250.56 114.923664 
L 254.618182 113.39352 
L 258.676364 111.845232 
L 262.734545 110.2788 
L 266.792727 108.695736 
L 270.850909 107.09604 
L 274.909091 105.482736 
L 278.967273 103.855824 
L 283.025455 102.218328 
L 287.083636 100.574784 
L 291.141818 98.928216 
L 295.2 97.301304 
L 299.258182 95.760576 
L 303.316364 94.67496 
L 307.374545 94.679496 
L 311.432727 95.149728 
L 315.490909 95.707656 
L 319.549091 96.283728 
L 323.607273 96.8598 
L 327.665455 97.429824 
L 331.723636 97.990776 
L 335.781818 98.541144 
L 339.84 99.079416 
L 343.898182 99.608616 
L 347.956364 100.124208 
L 352.014545 100.629216 
L 356.072727 101.12364 
L 360.130909 101.605968 
L 364.189091 102.0762 
L 368.247273 102.53736 
L 372.305455 102.984912 
L 376.363636 103.420368 
L 380.421818 103.834656 
L 384.48 104.206608 
L 388.538182 104.46516 
L 392.596364 104.365368 
L 396.654545 103.647168 
L 400.712727 102.844296 
L 404.770909 102.99852 
L 408.829091 103.680432 
L 412.887273 104.354784 
L 416.945455 104.938416 
L 421.003636 105.431328 
L 425.061818 105.853176 
L 429.12 106.216056 
L 433.178182 106.5366 
L 437.236364 106.820856 
L 441.294545 107.074872 
L 445.352727 107.303184 
L 449.410909 107.508816 
L 453.469091 107.694792 
L 457.527273 107.861112 
L 461.585455 108.009288 
L 465.643636 108.13932 
L 469.701818 108.254232 
L 473.76 108.352512 
L 477.818182 108.435672 
L 481.876364 108.503712 
L 485.934545 108.55512 
L 489.992727 108.59292 
L 494.050909 108.6156 
L 498.109091 108.62316 
" clip-path="url(#p08fbdd8435)" style="fill: none; stroke: #000000; stroke-opacity: 0.5; stroke-linecap: square"/>
   </g>
   <g id="patch_3">
    <path d="M 72 384.48 
L 72 51.84 
" style="fill: none; stroke: #000000; stroke-width: 0.8; stroke-linejoin: miter; stroke-linecap: square"/>
   </g>
   <g id="patch_4">
    <path d="M 518.4 384.48 
L 518.4 51.84 
" style="fill: none; stroke: #000000; stroke-width: 0.8; stroke-linejoin: miter; stroke-linecap: square"/>
   </g>
   <g id="patch_5">
    <path d="M 72 384.48 
L 518.4 384.48 
" style="fill: none; stroke: #000000; stroke-width: 0.8; stroke-linejoin: miter; stroke-linecap: square"/>
   </g>
   <g id="patch_6">
    <path d="M 72 51.84 
L 518.4 51.84 
" style="fill: none; stroke: #000000; stroke-width: 0.8; stroke-linejoin: miter; stroke-linecap: square"/>
   </g>
  </g>
 </g>
 <defs>
  <clipPath id="p08fbdd8435">
   <rect x="72" y="51.84" width="446.4" height="332.64"/>
  </clipPath>
 </defs>
</svg>
