<?xml version="1.0" encoding="utf-8" standalone="no"?>
<!DOCTYPE svg PUBLIC "-//W3C//DTD SVG 1.1//EN"
  "http://www.w3.org/Graphics/SVG/1.1/DTD/svg11.dtd">
<svg xmlns:xlink="http://www.w3.org/1999/xlink" width="576pt" height="432pt" viewBox="0 0 576 432" xmlns="http://www.w3.org/2000/svg" version="1.1">
 <metadata>
  <rdf:RDF xmlns:dc="http://purl.org/dc/elements/1.1/" xmlns:cc="http://creativecommons.org/ns#" xmlns:rdf="http://www.w3.org/1999/02/22-rdf-syntax-ns#">
   <cc:Work>
    <dc:type rdf:resource="http://purl.org/dc/dcmitype/StillImage"/>
    <dc:date>2023-05-04T14:17:52.616717</dc:date>
    <dc:format>image/svg+xml</dc:format>
    <dc:creator>
     <cc:Agent>
      <dc:title>Matplotlib v3.7.1, https://matplotlib.org/</dc:title>
     </cc:Agent>
    </dc:creator>
   </cc:Work>
  </rdf:RDF>
 </metadata>
 <defs>
  <style type="text/css">*{stroke-linejoin: round; stroke-linecap: butt}</style>
 </defs>
 <g id="figure_1">
  <g id="patch_1">
   <path d="M 0 432 
L 576 432 
L 576 0 
L 0 0 
z
" style="fill: #ffffff"/>
  </g>
  <g id="axes_1">
   <g id="patch_2">
    <path d="M 72 384.48 
L 518.4 384.48 
L 518.4 51.84 
L 72 51.84 
z
" style="fill: #ffffff"/>
   </g>
   <g id="matplotlib.axis_1">
    <g id="xtick_1">
     <g id="line2d_1">
      <defs>
       <path id="mf779d9c9e8" d="M 0 0 
L 0 3.5 
" style="stroke: #000000; stroke-width: 0.8"/>
      </defs>
      <g>
       <use xlink:href="#mf779d9c9e8" x="92.290909" y="384.48" style="stroke: #000000; stroke-width: 0.8"/>
      </g>
     </g>
     <g id="text_1">
      <!-- 0.0 -->
      <g transform="translate(84.339347 399.078438) scale(0.1 -0.1)">
       <defs>
        <path id="DejaVuSans-30" d="M 2034 4250 
Q 1547 4250 1301 3770 
Q 1056 3291 1056 2328 
Q 1056 1369 1301 889 
Q 1547 409 2034 409 
Q 2525 409 2770 889 
Q 3016 1369 3016 2328 
Q 3016 3291 2770 3770 
Q 2525 4250 2034 4250 
z
M 2034 4750 
Q 2819 4750 3233 4129 
Q 3647 3509 3647 2328 
Q 3647 1150 3233 529 
Q 2819 -91 2034 -91 
Q 1250 -91 836 529 
Q 422 1150 422 2328 
Q 422 3509 836 4129 
Q 1250 4750 2034 4750 
z
" transform="scale(0.015625)"/>
        <path id="DejaVuSans-2e" d="M 684 794 
L 1344 794 
L 1344 0 
L 684 0 
L 684 794 
z
" transform="scale(0.015625)"/>
       </defs>
       <use xlink:href="#DejaVuSans-30"/>
       <use xlink:href="#DejaVuSans-2e" x="63.623047"/>
       <use xlink:href="#DejaVuSans-30" x="95.410156"/>
      </g>
     </g>
    </g>
    <g id="xtick_2">
     <g id="line2d_2">
      <g>
       <use xlink:href="#mf779d9c9e8" x="173.454545" y="384.48" style="stroke: #000000; stroke-width: 0.8"/>
      </g>
     </g>
     <g id="text_2">
      <!-- 0.2 -->
      <g transform="translate(165.502983 399.078438) scale(0.1 -0.1)">
       <defs>
        <path id="DejaVuSans-32" d="M 1228 531 
L 3431 531 
L 3431 0 
L 469 0 
L 469 531 
Q 828 903 1448 1529 
Q 2069 2156 2228 2338 
Q 2531 2678 2651 2914 
Q 2772 3150 2772 3378 
Q 2772 3750 2511 3984 
Q 2250 4219 1831 4219 
Q 1534 4219 1204 4116 
Q 875 4013 500 3803 
L 500 4441 
Q 881 4594 1212 4672 
Q 1544 4750 1819 4750 
Q 2544 4750 2975 4387 
Q 3406 4025 3406 3419 
Q 3406 3131 3298 2873 
Q 3191 2616 2906 2266 
Q 2828 2175 2409 1742 
Q 1991 1309 1228 531 
z
" transform="scale(0.015625)"/>
       </defs>
       <use xlink:href="#DejaVuSans-30"/>
       <use xlink:href="#DejaVuSans-2e" x="63.623047"/>
       <use xlink:href="#DejaVuSans-32" x="95.410156"/>
      </g>
     </g>
    </g>
    <g id="xtick_3">
     <g id="line2d_3">
      <g>
       <use xlink:href="#mf779d9c9e8" x="254.618182" y="384.48" style="stroke: #000000; stroke-width: 0.8"/>
      </g>
     </g>
     <g id="text_3">
      <!-- 0.4 -->
      <g transform="translate(246.666619 399.078438) scale(0.1 -0.1)">
       <defs>
        <path id="DejaVuSans-34" d="M 2419 4116 
L 825 1625 
L 2419 1625 
L 2419 4116 
z
M 2253 4666 
L 3047 4666 
L 3047 1625 
L 3713 1625 
L 3713 1100 
L 3047 1100 
L 3047 0 
L 2419 0 
L 2419 1100 
L 313 1100 
L 313 1709 
L 2253 4666 
z
" transform="scale(0.015625)"/>
       </defs>
       <use xlink:href="#DejaVuSans-30"/>
       <use xlink:href="#DejaVuSans-2e" x="63.623047"/>
       <use xlink:href="#DejaVuSans-34" x="95.410156"/>
      </g>
     </g>
    </g>
    <g id="xtick_4">
     <g id="line2d_4">
      <g>
       <use xlink:href="#mf779d9c9e8" x="335.781818" y="384.48" style="stroke: #000000; stroke-width: 0.8"/>
      </g>
     </g>
     <g id="text_4">
      <!-- 0.6 -->
      <g transform="translate(327.830256 399.078438) scale(0.1 -0.1)">
       <defs>
        <path id="DejaVuSans-36" d="M 2113 2584 
Q 1688 2584 1439 2293 
Q 1191 2003 1191 1497 
Q 1191 994 1439 701 
Q 1688 409 2113 409 
Q 2538 409 2786 701 
Q 3034 994 3034 1497 
Q 3034 2003 2786 2293 
Q 2538 2584 2113 2584 
z
M 3366 4563 
L 3366 3988 
Q 3128 4100 2886 4159 
Q 2644 4219 2406 4219 
Q 1781 4219 1451 3797 
Q 1122 3375 1075 2522 
Q 1259 2794 1537 2939 
Q 1816 3084 2150 3084 
Q 2853 3084 3261 2657 
Q 3669 2231 3669 1497 
Q 3669 778 3244 343 
Q 2819 -91 2113 -91 
Q 1303 -91 875 529 
Q 447 1150 447 2328 
Q 447 3434 972 4092 
Q 1497 4750 2381 4750 
Q 2619 4750 2861 4703 
Q 3103 4656 3366 4563 
z
" transform="scale(0.015625)"/>
       </defs>
       <use xlink:href="#DejaVuSans-30"/>
       <use xlink:href="#DejaVuSans-2e" x="63.623047"/>
       <use xlink:href="#DejaVuSans-36" x="95.410156"/>
      </g>
     </g>
    </g>
    <g id="xtick_5">
     <g id="line2d_5">
      <g>
       <use xlink:href="#mf779d9c9e8" x="416.945455" y="384.48" style="stroke: #000000; stroke-width: 0.8"/>
      </g>
     </g>
     <g id="text_5">
      <!-- 0.8 -->
      <g transform="translate(408.993892 399.078438) scale(0.1 -0.1)">
       <defs>
        <path id="DejaVuSans-38" d="M 2034 2216 
Q 1584 2216 1326 1975 
Q 1069 1734 1069 1313 
Q 1069 891 1326 650 
Q 1584 409 2034 409 
Q 2484 409 2743 651 
Q 3003 894 3003 1313 
Q 3003 1734 2745 1975 
Q 2488 2216 2034 2216 
z
M 1403 2484 
Q 997 2584 770 2862 
Q 544 3141 544 3541 
Q 544 4100 942 4425 
Q 1341 4750 2034 4750 
Q 2731 4750 3128 4425 
Q 3525 4100 3525 3541 
Q 3525 3141 3298 2862 
Q 3072 2584 2669 2484 
Q 3125 2378 3379 2068 
Q 3634 1759 3634 1313 
Q 3634 634 3220 271 
Q 2806 -91 2034 -91 
Q 1263 -91 848 271 
Q 434 634 434 1313 
Q 434 1759 690 2068 
Q 947 2378 1403 2484 
z
M 1172 3481 
Q 1172 3119 1398 2916 
Q 1625 2713 2034 2713 
Q 2441 2713 2670 2916 
Q 2900 3119 2900 3481 
Q 2900 3844 2670 4047 
Q 2441 4250 2034 4250 
Q 1625 4250 1398 4047 
Q 1172 3844 1172 3481 
z
" transform="scale(0.015625)"/>
       </defs>
       <use xlink:href="#DejaVuSans-30"/>
       <use xlink:href="#DejaVuSans-2e" x="63.623047"/>
       <use xlink:href="#DejaVuSans-38" x="95.410156"/>
      </g>
     </g>
    </g>
    <g id="xtick_6">
     <g id="line2d_6">
      <g>
       <use xlink:href="#mf779d9c9e8" x="498.109091" y="384.48" style="stroke: #000000; stroke-width: 0.8"/>
      </g>
     </g>
     <g id="text_6">
      <!-- 1.0 -->
      <g transform="translate(490.157528 399.078438) scale(0.1 -0.1)">
       <defs>
        <path id="DejaVuSans-31" d="M 794 531 
L 1825 531 
L 1825 4091 
L 703 3866 
L 703 4441 
L 1819 4666 
L 2450 4666 
L 2450 531 
L 3481 531 
L 3481 0 
L 794 0 
L 794 531 
z
" transform="scale(0.015625)"/>
       </defs>
       <use xlink:href="#DejaVuSans-31"/>
       <use xlink:href="#DejaVuSans-2e" x="63.623047"/>
       <use xlink:href="#DejaVuSans-30" x="95.410156"/>
      </g>
     </g>
    </g>
   </g>
   <g id="matplotlib.axis_2">
    <g id="ytick_1">
     <g id="line2d_7">
      <defs>
       <path id="m60c6f6e0ae" d="M 0 0 
L -3.5 0 
" style="stroke: #000000; stroke-width: 0.8"/>
      </defs>
      <g>
       <use xlink:href="#m60c6f6e0ae" x="72" y="369.36" style="stroke: #000000; stroke-width: 0.8"/>
      </g>
     </g>
     <g id="text_7">
      <!-- −5.0 -->
      <g transform="translate(40.717187 373.159219) scale(0.1 -0.1)">
       <defs>
        <path id="DejaVuSans-2212" d="M 678 2272 
L 4684 2272 
L 4684 1741 
L 678 1741 
L 678 2272 
z
" transform="scale(0.015625)"/>
        <path id="DejaVuSans-35" d="M 691 4666 
L 3169 4666 
L 3169 4134 
L 1269 4134 
L 1269 2991 
Q 1406 3038 1543 3061 
Q 1681 3084 1819 3084 
Q 2600 3084 3056 2656 
Q 3513 2228 3513 1497 
Q 3513 744 3044 326 
Q 2575 -91 1722 -91 
Q 1428 -91 1123 -41 
Q 819 9 494 109 
L 494 744 
Q 775 591 1075 516 
Q 1375 441 1709 441 
Q 2250 441 2565 725 
Q 2881 1009 2881 1497 
Q 2881 1984 2565 2268 
Q 2250 2553 1709 2553 
Q 1456 2553 1204 2497 
Q 953 2441 691 2322 
L 691 4666 
z
" transform="scale(0.015625)"/>
       </defs>
       <use xlink:href="#DejaVuSans-2212"/>
       <use xlink:href="#DejaVuSans-35" x="83.789062"/>
       <use xlink:href="#DejaVuSans-2e" x="147.412109"/>
       <use xlink:href="#DejaVuSans-30" x="179.199219"/>
      </g>
     </g>
    </g>
    <g id="ytick_2">
     <g id="line2d_8">
      <g>
       <use xlink:href="#m60c6f6e0ae" x="72" y="331.56" style="stroke: #000000; stroke-width: 0.8"/>
      </g>
     </g>
     <g id="text_8">
      <!-- −2.5 -->
      <g transform="translate(40.717187 335.359219) scale(0.1 -0.1)">
       <use xlink:href="#DejaVuSans-2212"/>
       <use xlink:href="#DejaVuSans-32" x="83.789062"/>
       <use xlink:href="#DejaVuSans-2e" x="147.412109"/>
       <use xlink:href="#DejaVuSans-35" x="179.199219"/>
      </g>
     </g>
    </g>
    <g id="ytick_3">
     <g id="line2d_9">
      <g>
       <use xlink:href="#m60c6f6e0ae" x="72" y="293.76" style="stroke: #000000; stroke-width: 0.8"/>
      </g>
     </g>
     <g id="text_9">
      <!-- 0.0 -->
      <g transform="translate(49.096875 297.559219) scale(0.1 -0.1)">
       <use xlink:href="#DejaVuSans-30"/>
       <use xlink:href="#DejaVuSans-2e" x="63.623047"/>
       <use xlink:href="#DejaVuSans-30" x="95.410156"/>
      </g>
     </g>
    </g>
    <g id="ytick_4">
     <g id="line2d_10">
      <g>
       <use xlink:href="#m60c6f6e0ae" x="72" y="255.96" style="stroke: #000000; stroke-width: 0.8"/>
      </g>
     </g>
     <g id="text_10">
      <!-- 2.5 -->
      <g transform="translate(49.096875 259.759219) scale(0.1 -0.1)">
       <use xlink:href="#DejaVuSans-32"/>
       <use xlink:href="#DejaVuSans-2e" x="63.623047"/>
       <use xlink:href="#DejaVuSans-35" x="95.410156"/>
      </g>
     </g>
    </g>
    <g id="ytick_5">
     <g id="line2d_11">
      <g>
       <use xlink:href="#m60c6f6e0ae" x="72" y="218.16" style="stroke: #000000; stroke-width: 0.8"/>
      </g>
     </g>
     <g id="text_11">
      <!-- 5.0 -->
      <g transform="translate(49.096875 221.959219) scale(0.1 -0.1)">
       <use xlink:href="#DejaVuSans-35"/>
       <use xlink:href="#DejaVuSans-2e" x="63.623047"/>
       <use xlink:href="#DejaVuSans-30" x="95.410156"/>
      </g>
     </g>
    </g>
    <g id="ytick_6">
     <g id="line2d_12">
      <g>
       <use xlink:href="#m60c6f6e0ae" x="72" y="180.36" style="stroke: #000000; stroke-width: 0.8"/>
      </g>
     </g>
     <g id="text_12">
      <!-- 7.5 -->
      <g transform="translate(49.096875 184.159219) scale(0.1 -0.1)">
       <defs>
        <path id="DejaVuSans-37" d="M 525 4666 
L 3525 4666 
L 3525 4397 
L 1831 0 
L 1172 0 
L 2766 4134 
L 525 4134 
L 525 4666 
z
" transform="scale(0.015625)"/>
       </defs>
       <use xlink:href="#DejaVuSans-37"/>
       <use xlink:href="#DejaVuSans-2e" x="63.623047"/>
       <use xlink:href="#DejaVuSans-35" x="95.410156"/>
      </g>
     </g>
    </g>
    <g id="ytick_7">
     <g id="line2d_13">
      <g>
       <use xlink:href="#m60c6f6e0ae" x="72" y="142.56" style="stroke: #000000; stroke-width: 0.8"/>
      </g>
     </g>
     <g id="text_13">
      <!-- 10.0 -->
      <g transform="translate(42.734375 146.359219) scale(0.1 -0.1)">
       <use xlink:href="#DejaVuSans-31"/>
       <use xlink:href="#DejaVuSans-30" x="63.623047"/>
       <use xlink:href="#DejaVuSans-2e" x="127.246094"/>
       <use xlink:href="#DejaVuSans-30" x="159.033203"/>
      </g>
     </g>
    </g>
    <g id="ytick_8">
     <g id="line2d_14">
      <g>
       <use xlink:href="#m60c6f6e0ae" x="72" y="104.76" style="stroke: #000000; stroke-width: 0.8"/>
      </g>
     </g>
     <g id="text_14">
      <!-- 12.5 -->
      <g transform="translate(42.734375 108.559219) scale(0.1 -0.1)">
       <use xlink:href="#DejaVuSans-31"/>
       <use xlink:href="#DejaVuSans-32" x="63.623047"/>
       <use xlink:href="#DejaVuSans-2e" x="127.246094"/>
       <use xlink:href="#DejaVuSans-35" x="159.033203"/>
      </g>
     </g>
    </g>
    <g id="ytick_9">
     <g id="line2d_15">
      <g>
       <use xlink:href="#m60c6f6e0ae" x="72" y="66.96" style="stroke: #000000; stroke-width: 0.8"/>
      </g>
     </g>
     <g id="text_15">
      <!-- 15.0 -->
      <g transform="translate(42.734375 70.759219) scale(0.1 -0.1)">
       <use xlink:href="#DejaVuSans-31"/>
       <use xlink:href="#DejaVuSans-35" x="63.623047"/>
       <use xlink:href="#DejaVuSans-2e" x="127.246094"/>
       <use xlink:href="#DejaVuSans-30" x="159.033203"/>
      </g>
     </g>
    </g>
   </g>
   <g id="line2d_16">
    <path d="M 92.290909 320.183712 
L 96.349091 320.339448 
L 100.407273 320.753736 
L 104.465455 321.329808 
L 108.523636 321.9966 
L 112.581818 322.7148 
L 116.64 323.466264 
L 120.698182 324.235872 
L 124.756364 325.019088 
L 128.814545 325.809864 
L 132.872727 326.6082 
L 136.930909 327.408048 
L 140.989091 328.212432 
L 145.047273 329.016816 
L 149.105455 329.8212 
L 153.163636 330.625584 
L 157.221818 331.429968 
L 161.28 332.231328 
L 165.338182 333.031176 
L 169.396364 333.828 
L 173.454545 334.620288 
L 177.512727 335.411064 
L 181.570909 336.197304 
L 185.629091 336.979008 
L 189.687273 337.756176 
L 193.745455 338.528808 
L 197.803636 339.296904 
L 201.861818 340.05744 
L 205.92 340.81344 
L 209.978182 341.564904 
L 214.036364 342.308808 
L 218.094545 343.045152 
L 222.152727 343.775448 
L 226.210909 344.499696 
L 230.269091 345.216384 
L 234.327273 345.925512 
L 238.385455 346.62708 
L 242.443636 347.321088 
L 246.501818 348.006024 
L 250.56 348.6834 
L 254.618182 349.353216 
L 258.676364 350.01396 
L 262.734545 350.665632 
L 266.792727 351.308232 
L 270.850909 351.943272 
L 274.909091 352.567728 
L 278.967273 353.184624 
L 283.025455 353.790936 
L 287.083636 354.388176 
L 291.141818 354.974832 
L 295.2 355.552416 
L 299.258182 356.120928 
L 303.316364 356.678856 
L 307.374545 357.2262 
L 311.432727 357.764472 
L 315.490909 358.290648 
L 319.549091 358.807752 
L 323.607273 359.314272 
L 327.665455 359.810208 
L 331.723636 360.29556 
L 335.781818 360.770328 
L 339.84 361.233 
L 343.898182 361.6866 
L 347.956364 362.128104 
L 352.014545 362.559024 
L 356.072727 362.977848 
L 360.130909 363.3876 
L 364.189091 363.783744 
L 368.247273 364.170816 
L 372.305455 364.54428 
L 376.363636 364.908672 
L 380.421818 365.259456 
L 384.48 365.599656 
L 388.538182 365.929272 
L 392.596364 366.246792 
L 396.654545 366.552216 
L 400.712727 366.845544 
L 404.770909 367.128288 
L 408.829091 367.398936 
L 412.887273 367.657488 
L 416.945455 367.903944 
L 421.003636 368.138304 
L 425.061818 368.36208 
L 429.12 368.57376 
L 433.178182 368.773344 
L 437.236364 368.95932 
L 441.294545 369.134712 
L 445.352727 369.298008 
L 449.410909 369.45072 
L 453.469091 369.589824 
L 457.527273 369.716832 
L 461.585455 369.831744 
L 465.643636 369.93456 
L 469.701818 370.02528 
L 473.76 370.103904 
L 477.818182 370.171944 
L 481.876364 370.226376 
L 485.934545 370.268712 
L 489.992727 370.298952 
L 494.050909 370.317096 
L 498.109091 370.323144 
" clip-path="url(#pf7c307de47)" style="fill: none; stroke: #000000; stroke-opacity: 0.5; stroke-linecap: square"/>
   </g>
   <g id="line2d_17">
    <path d="M 92.290909 316.007568 
L 96.349091 315.853344 
L 100.407273 315.445104 
L 104.465455 314.879616 
L 108.523636 314.22492 
L 112.581818 313.523352 
L 116.64 312.794568 
L 120.698182 312.04764 
L 124.756364 311.293152 
L 128.814545 310.531104 
L 132.872727 309.767544 
L 136.930909 309.00096 
L 140.989091 308.235888 
L 145.047273 307.470816 
L 149.105455 306.707256 
L 153.163636 305.94672 
L 157.221818 305.187696 
L 161.28 304.430184 
L 165.338182 303.675696 
L 169.396364 302.924232 
L 173.454545 302.175792 
L 177.512727 301.428864 
L 181.570909 300.68496 
L 185.629091 299.942568 
L 189.687273 299.2032 
L 193.745455 298.465344 
L 197.803636 297.729 
L 201.861818 296.994168 
L 205.92 296.26236 
L 209.978182 295.530552 
L 214.036364 294.800256 
L 218.094545 294.06996 
L 222.152727 293.341176 
L 226.210909 292.612392 
L 230.269091 291.883608 
L 234.327273 291.156336 
L 238.385455 290.42604 
L 242.443636 289.697256 
L 246.501818 288.965448 
L 250.56 288.23364 
L 254.618182 287.501832 
L 258.676364 286.767 
L 262.734545 286.030656 
L 266.792727 285.2928 
L 270.850909 284.553432 
L 274.909091 283.81104 
L 278.967273 283.065624 
L 283.025455 282.318696 
L 287.083636 281.568744 
L 291.141818 280.81728 
L 295.2 280.06128 
L 299.258182 279.302256 
L 303.316364 278.54172 
L 307.374545 277.776648 
L 311.432727 277.010064 
L 315.490909 276.238944 
L 319.549091 275.4648 
L 323.607273 274.687632 
L 327.665455 273.90744 
L 331.723636 273.124224 
L 335.781818 272.337984 
L 339.84 271.54872 
L 343.898182 270.756432 
L 347.956364 269.962632 
L 352.014545 269.164296 
L 356.072727 268.36596 
L 360.130909 267.563088 
L 364.189091 266.760216 
L 368.247273 265.95432 
L 372.305455 265.148424 
L 376.363636 264.339504 
L 380.421818 263.532096 
L 384.48 262.723176 
L 388.538182 261.914256 
L 392.596364 261.106848 
L 396.654545 260.300952 
L 400.712727 259.49808 
L 404.770909 258.69672 
L 408.829091 257.898384 
L 412.887273 257.106096 
L 416.945455 256.318344 
L 421.003636 255.538152 
L 425.061818 254.76552 
L 429.12 254.003472 
L 433.178182 253.252008 
L 437.236364 252.514152 
L 441.294545 251.792928 
L 445.352727 251.089848 
L 449.410909 250.406424 
L 453.469091 249.750216 
L 457.527273 249.121224 
L 461.585455 248.525496 
L 465.643636 247.967568 
L 469.701818 247.453488 
L 473.76 246.989304 
L 477.818182 246.581064 
L 481.876364 246.234816 
L 485.934545 245.95812 
L 489.992727 245.755512 
L 494.050909 245.631528 
L 498.109091 245.590704 
" clip-path="url(#pf7c307de47)" style="fill: none; stroke: #000000; stroke-opacity: 0.5; stroke-linecap: square"/>
   </g>
   <g id="line2d_18">
    <path d="M 92.290909 261.906696 
L 96.349091 261.921816 
L 100.407273 261.964152 
L 104.465455 262.029168 
L 108.523636 262.112328 
L 112.581818 262.207584 
L 116.64 262.308888 
L 120.698182 262.410192 
L 124.756364 262.508472 
L 128.814545 262.600704 
L 132.872727 262.683864 
L 136.930909 262.75644 
L 140.989091 262.815408 
L 145.047273 262.859256 
L 149.105455 262.891008 
L 153.163636 262.906128 
L 157.221818 262.904616 
L 161.28 262.887984 
L 165.338182 262.85472 
L 169.396364 262.806336 
L 173.454545 262.739808 
L 177.512727 262.656648 
L 181.570909 262.556856 
L 185.629091 262.440432 
L 189.687273 262.307376 
L 193.745455 262.1592 
L 197.803636 261.99288 
L 201.861818 261.81144 
L 205.92 261.613368 
L 209.978182 261.400176 
L 214.036364 261.170352 
L 218.094545 260.923896 
L 222.152727 260.663832 
L 226.210909 260.387136 
L 230.269091 260.096832 
L 234.327273 259.789896 
L 238.385455 259.469352 
L 242.443636 259.133688 
L 246.501818 258.782904 
L 250.56 258.418512 
L 254.618182 258.040512 
L 258.676364 257.647392 
L 262.734545 257.240664 
L 266.792727 256.82184 
L 270.850909 256.389408 
L 274.909091 255.943368 
L 278.967273 255.48372 
L 283.025455 255.011976 
L 287.083636 254.528136 
L 291.141818 254.0322 
L 295.2 253.524168 
L 299.258182 253.00404 
L 303.316364 252.471816 
L 307.374545 251.929008 
L 311.432727 251.375616 
L 315.490909 250.81164 
L 319.549091 250.235568 
L 323.607273 249.650424 
L 327.665455 249.056208 
L 331.723636 248.451408 
L 335.781818 247.839048 
L 339.84 247.216104 
L 343.898182 246.5856 
L 347.956364 245.947536 
L 352.014545 245.301912 
L 356.072727 244.65024 
L 360.130909 243.991008 
L 364.189091 243.325728 
L 368.247273 242.655912 
L 372.305455 241.980048 
L 376.363636 241.30116 
L 380.421818 240.619248 
L 384.48 239.934312 
L 388.538182 239.247864 
L 392.596364 238.561416 
L 396.654545 237.874968 
L 400.712727 237.190032 
L 404.770909 236.50812 
L 408.829091 235.829232 
L 412.887273 235.156392 
L 416.945455 234.4896 
L 421.003636 233.833392 
L 425.061818 233.186256 
L 429.12 232.551216 
L 433.178182 231.931296 
L 437.236364 231.326496 
L 441.294545 230.742864 
L 445.352727 230.1804 
L 449.410909 229.642128 
L 453.469091 229.131072 
L 457.527273 228.650256 
L 461.585455 228.202704 
L 465.643636 227.79144 
L 469.701818 227.419488 
L 473.76 227.091384 
L 477.818182 226.807128 
L 481.876364 226.595448 
L 485.934545 226.795032 
L 489.992727 226.95984 
L 494.050909 227.061144 
L 498.109091 227.094408 
" clip-path="url(#pf7c307de47)" style="fill: none; stroke: #000000; stroke-opacity: 0.5; stroke-linecap: square"/>
   </g>
   <g id="line2d_19">
    <path d="M 92.290909 256.936752 
L 96.349091 256.900464 
L 100.407273 256.7916 
L 104.465455 256.614696 
L 108.523636 256.3758 
L 112.581818 256.08096 
L 116.64 255.736224 
L 120.698182 255.34764 
L 124.756364 254.918232 
L 128.814545 254.452536 
L 132.872727 253.953576 
L 136.930909 253.424376 
L 140.989091 252.864936 
L 145.047273 252.27828 
L 149.105455 251.66592 
L 153.163636 251.029368 
L 157.221818 250.368624 
L 161.28 249.686712 
L 165.338182 248.98212 
L 169.396364 248.257872 
L 173.454545 247.513968 
L 177.512727 246.75192 
L 181.570909 245.971728 
L 185.629091 245.176416 
L 189.687273 244.364472 
L 193.745455 243.537408 
L 197.803636 242.698248 
L 201.861818 241.84548 
L 205.92 240.982128 
L 209.978182 240.108192 
L 214.036364 239.226696 
L 218.094545 238.336128 
L 222.152727 237.439512 
L 226.210909 236.539872 
L 230.269091 235.634184 
L 234.327273 234.728496 
L 238.385455 233.822808 
L 242.443636 232.91712 
L 246.501818 232.014456 
L 250.56 231.11784 
L 254.618182 230.227272 
L 258.676364 229.345776 
L 262.734545 228.474864 
L 266.792727 227.616048 
L 270.850909 226.772352 
L 274.909091 225.9468 
L 278.967273 225.139392 
L 283.025455 224.353152 
L 287.083636 223.592616 
L 291.141818 222.856272 
L 295.2 222.150168 
L 299.258182 221.475816 
L 303.316364 220.833216 
L 307.374545 220.226904 
L 311.432727 219.65688 
L 315.490909 219.12768 
L 319.549091 218.639304 
L 323.607273 218.193264 
L 327.665455 217.792584 
L 331.723636 217.435752 
L 335.781818 217.125792 
L 339.84 216.861192 
L 343.898182 216.644976 
L 347.956364 216.47412 
L 352.014545 216.350136 
L 356.072727 216.271512 
L 360.130909 216.236736 
L 364.189091 216.24732 
L 368.247273 216.298728 
L 372.305455 216.392472 
L 376.363636 216.524016 
L 380.421818 216.694872 
L 384.48 216.900504 
L 388.538182 217.140912 
L 392.596364 217.41156 
L 396.654545 217.71396 
L 400.712727 218.043576 
L 404.770909 218.400408 
L 408.829091 218.77992 
L 412.887273 219.1806 
L 416.945455 219.602448 
L 421.003636 220.040928 
L 425.061818 220.493016 
L 429.12 220.958712 
L 433.178182 221.434992 
L 437.236364 221.91732 
L 441.294545 222.402672 
L 445.352727 222.891048 
L 449.410909 223.374888 
L 453.469091 223.85268 
L 457.527273 224.318376 
L 461.585455 224.76744 
L 465.643636 225.195336 
L 469.701818 225.596016 
L 473.76 225.963432 
L 477.818182 226.288512 
L 481.876364 226.542528 
L 485.934545 226.382256 
L 489.992727 226.247688 
L 494.050909 226.16604 
L 498.109091 226.138824 
" clip-path="url(#pf7c307de47)" style="fill: none; stroke: #000000; stroke-opacity: 0.5; stroke-linecap: square"/>
   </g>
   <g id="line2d_20">
    <path d="M 92.290909 155.25324 
L 96.349091 155.248704 
L 100.407273 155.236608 
L 104.465455 155.216952 
L 108.523636 155.189736 
L 112.581818 155.15496 
L 116.64 155.111112 
L 120.698182 155.059704 
L 124.756364 155.000736 
L 128.814545 154.932696 
L 132.872727 154.857096 
L 136.930909 154.773936 
L 140.989091 154.681704 
L 145.047273 154.581912 
L 149.105455 154.47456 
L 153.163636 154.358136 
L 157.221818 154.23264 
L 161.28 154.101096 
L 165.338182 153.958968 
L 169.396364 153.80928 
L 173.454545 153.652032 
L 177.512727 153.485712 
L 181.570909 153.311832 
L 185.629091 153.130392 
L 189.687273 152.93988 
L 193.745455 152.741808 
L 197.803636 152.536176 
L 201.861818 152.322984 
L 205.92 152.103744 
L 209.978182 151.882992 
L 214.036364 151.680384 
L 218.094545 151.778664 
L 222.152727 152.434872 
L 226.210909 153.150048 
L 230.269091 153.857664 
L 234.327273 154.548648 
L 238.385455 155.223 
L 242.443636 155.874672 
L 246.501818 156.503664 
L 250.56 157.108464 
L 254.618182 157.68756 
L 258.676364 158.23944 
L 262.734545 158.76108 
L 266.792727 159.25248 
L 270.850909 159.712128 
L 274.909091 160.137 
L 278.967273 160.527096 
L 283.025455 160.880904 
L 287.083636 161.196912 
L 291.141818 161.472096 
L 295.2 161.704944 
L 299.258182 161.895456 
L 303.316364 162.04212 
L 307.374545 162.141912 
L 311.432727 162.194832 
L 315.490909 162.20088 
L 319.549091 162.157032 
L 323.607273 162.063288 
L 327.665455 161.92116 
L 331.723636 161.730648 
L 335.781818 161.49024 
L 339.84 161.20296 
L 343.898182 160.868808 
L 347.956364 160.49232 
L 352.014545 160.07652 
L 356.072727 159.627456 
L 360.130909 159.157224 
L 364.189091 158.686992 
L 368.247273 158.272704 
L 372.305455 158.059512 
L 376.363636 158.324112 
L 380.421818 159.10884 
L 384.48 160.14456 
L 388.538182 161.271 
L 392.596364 162.423144 
L 396.654545 163.581336 
L 400.712727 164.730456 
L 404.770909 165.864456 
L 408.829091 166.981824 
L 412.887273 168.076512 
L 416.945455 169.14852 
L 421.003636 170.1918 
L 425.061818 171.207864 
L 429.12 172.190664 
L 433.178182 173.141712 
L 437.236364 174.05496 
L 441.294545 174.930408 
L 445.352727 175.76352 
L 449.410909 176.554296 
L 453.469091 177.296688 
L 457.527273 177.987672 
L 461.585455 178.627248 
L 465.643636 179.209368 
L 469.701818 179.731008 
L 473.76 180.192168 
L 477.818182 180.5868 
L 481.876364 180.913392 
L 485.934545 181.170432 
L 489.992727 181.356408 
L 494.050909 181.466784 
L 498.109091 181.504584 
" clip-path="url(#pf7c307de47)" style="fill: none; stroke: #000000; stroke-opacity: 0.5; stroke-linecap: square"/>
   </g>
   <g id="line2d_21">
    <path d="M 92.290909 146.048184 
L 96.349091 146.040624 
L 100.407273 146.016432 
L 104.465455 145.975608 
L 108.523636 145.919664 
L 112.581818 145.8486 
L 116.64 145.762416 
L 120.698182 145.661112 
L 124.756364 145.547712 
L 128.814545 145.420704 
L 132.872727 145.283112 
L 136.930909 145.134936 
L 140.989091 144.982224 
L 145.047273 144.824976 
L 149.105455 144.670752 
L 153.163636 144.527112 
L 157.221818 144.401616 
L 161.28 144.312408 
L 165.338182 144.277632 
L 169.396364 144.327528 
L 173.454545 144.4878 
L 177.512727 144.78264 
L 181.570909 145.210536 
L 185.629091 145.75788 
L 189.687273 146.39292 
L 193.745455 147.08844 
L 197.803636 147.82176 
L 201.861818 148.576248 
L 205.92 149.338296 
L 209.978182 150.09732 
L 214.036364 150.826104 
L 218.094545 151.23888 
L 222.152727 151.071048 
L 226.210909 150.826104 
L 230.269091 150.563016 
L 234.327273 150.289344 
L 238.385455 150.0066 
L 242.443636 149.716296 
L 246.501818 149.419944 
L 250.56 149.116032 
L 254.618182 148.806072 
L 258.676364 148.490064 
L 262.734545 148.168008 
L 266.792727 147.841416 
L 270.850909 147.508776 
L 274.909091 147.1716 
L 278.967273 146.8314 
L 283.025455 146.486664 
L 287.083636 146.140416 
L 291.141818 145.791144 
L 295.2 145.443384 
L 299.258182 145.097136 
L 303.316364 144.753912 
L 307.374545 144.418248 
L 311.432727 144.097704 
L 315.490909 143.802864 
L 319.549091 143.553384 
L 323.607273 143.393112 
L 327.665455 143.40672 
L 331.723636 143.7318 
L 335.781818 144.445464 
L 339.84 145.456992 
L 343.898182 146.625768 
L 347.956364 147.868632 
L 352.014545 149.1372 
L 356.072727 150.410304 
L 360.130909 151.663752 
L 364.189091 152.873352 
L 368.247273 153.98316 
L 372.305455 154.848024 
L 376.363636 155.189736 
L 380.421818 154.968984 
L 384.48 154.456416 
L 388.538182 153.818352 
L 392.596364 153.118296 
L 396.654545 152.386488 
L 400.712727 151.636536 
L 404.770909 150.88356 
L 408.829091 150.136632 
L 412.887273 149.407848 
L 416.945455 148.710816 
L 421.003636 148.057632 
L 425.061818 147.467952 
L 429.12 146.953872 
L 433.178182 146.532024 
L 437.236364 146.209968 
L 441.294545 145.990728 
L 445.352727 145.865232 
L 449.410909 145.819872 
L 453.469091 145.838016 
L 457.527273 145.903032 
L 461.585455 145.996776 
L 465.643636 146.107152 
L 469.701818 146.223576 
L 473.76 146.336976 
L 477.818182 146.441304 
L 481.876364 146.532024 
L 485.934545 146.606112 
L 489.992727 146.660544 
L 494.050909 146.693808 
L 498.109091 146.704392 
" clip-path="url(#pf7c307de47)" style="fill: none; stroke: #000000; stroke-opacity: 0.5; stroke-linecap: square"/>
   </g>
   <g id="line2d_22">
    <path d="M 92.290909 118.11096 
L 96.349091 118.935 
L 100.407273 120.126456 
L 104.465455 121.340592 
L 108.523636 122.551704 
L 112.581818 123.749208 
L 116.64 124.934616 
L 120.698182 126.103392 
L 124.756364 127.255536 
L 128.814545 128.388024 
L 132.872727 129.500856 
L 136.930909 130.59252 
L 140.989091 131.656968 
L 145.047273 132.6942 
L 149.105455 133.695144 
L 153.163636 134.655264 
L 157.221818 135.562464 
L 161.28 136.401624 
L 165.338182 137.151576 
L 169.396364 137.786616 
L 173.454545 138.274992 
L 177.512727 138.595536 
L 181.570909 138.748248 
L 185.629091 138.74976 
L 189.687273 138.627288 
L 193.745455 138.408048 
L 197.803636 138.116232 
L 201.861818 137.76696 
L 205.92 137.370816 
L 209.978182 136.936872 
L 214.036364 136.469664 
L 218.094545 135.973728 
L 222.152727 135.452088 
L 226.210909 134.906256 
L 230.269091 134.337744 
L 234.327273 133.749576 
L 238.385455 133.141752 
L 242.443636 132.515784 
L 246.501818 131.871672 
L 250.56 131.21244 
L 254.618182 130.538088 
L 258.676364 129.850128 
L 262.734545 129.151584 
L 266.792727 128.446992 
L 270.850909 127.743912 
L 274.909091 127.055952 
L 278.967273 126.42696 
L 283.025455 125.991504 
L 287.083636 126.150264 
L 291.141818 127.093752 
L 295.2 128.383488 
L 299.258182 129.77604 
L 303.316364 131.195808 
L 307.374545 132.6186 
L 311.432727 134.02476 
L 315.490909 135.40068 
L 319.549091 136.72368 
L 323.607273 137.946888 
L 327.665455 138.985632 
L 331.723636 139.703832 
L 335.781818 140.018328 
L 339.84 140.022864 
L 343.898182 139.855032 
L 347.956364 139.597992 
L 352.014545 139.295592 
L 356.072727 138.965976 
L 360.130909 138.62124 
L 364.189091 138.268944 
L 368.247273 137.912112 
L 372.305455 137.552256 
L 376.363636 137.193912 
L 380.421818 136.838592 
L 384.48 136.487808 
L 388.538182 136.14156 
L 392.596364 135.805896 
L 396.654545 135.480816 
L 400.712727 135.176904 
L 404.770909 134.915328 
L 408.829091 134.767152 
L 412.887273 134.891136 
L 416.945455 135.2268 
L 421.003636 135.576072 
L 425.061818 135.858816 
L 429.12 136.04328 
L 433.178182 136.11132 
L 437.236364 136.056888 
L 441.294545 135.879984 
L 445.352727 135.592704 
L 449.410909 135.21168 
L 453.469091 134.761104 
L 457.527273 134.265168 
L 461.585455 133.746552 
L 465.643636 133.226424 
L 469.701818 132.722928 
L 473.76 132.25572 
L 477.818182 131.841432 
L 481.876364 131.493672 
L 485.934545 131.224536 
L 489.992727 131.043096 
L 494.050909 130.94028 
L 498.109091 130.907016 
" clip-path="url(#pf7c307de47)" style="fill: none; stroke: #000000; stroke-opacity: 0.5; stroke-linecap: square"/>
   </g>
   <g id="line2d_23">
    <path d="M 92.290909 117.002664 
L 96.349091 116.166528 
L 100.407273 114.934248 
L 104.465455 113.653584 
L 108.523636 112.351752 
L 112.581818 111.033288 
L 116.64 109.701216 
L 120.698182 108.35856 
L 124.756364 107.002296 
L 128.814545 105.63696 
L 132.872727 104.259528 
L 136.930909 102.873024 
L 140.989091 101.477448 
L 145.047273 100.071288 
L 149.105455 98.656056 
L 153.163636 97.233264 
L 157.221818 95.802912 
L 161.28 94.365 
L 165.338182 92.919528 
L 169.396364 91.468008 
L 173.454545 90.01044 
L 177.512727 88.548336 
L 181.570909 87.081696 
L 185.629091 85.639248 
L 189.687273 86.755104 
L 193.745455 88.372944 
L 197.803636 89.993808 
L 201.861818 91.61316 
L 205.92 93.231 
L 209.978182 94.84884 
L 214.036364 96.463656 
L 218.094545 98.07696 
L 222.152727 99.68724 
L 226.210909 101.294496 
L 230.269091 102.898728 
L 234.327273 104.498424 
L 238.385455 106.093584 
L 242.443636 107.68572 
L 246.501818 109.271808 
L 250.56 110.850336 
L 254.618182 112.422816 
L 258.676364 113.986224 
L 262.734545 115.539048 
L 266.792727 117.07524 
L 270.850909 118.591776 
L 274.909091 120.069 
L 278.967273 121.469112 
L 283.025455 122.653008 
L 287.083636 123.226056 
L 291.141818 122.996232 
L 295.2 122.400504 
L 299.258182 121.688352 
L 303.316364 120.933864 
L 307.374545 120.170304 
L 311.432727 119.417328 
L 315.490909 118.699128 
L 319.549091 118.055016 
L 323.607273 117.539424 
L 327.665455 117.244584 
L 331.723636 117.2718 
L 335.781818 117.658872 
L 339.84 118.340784 
L 343.898182 119.213208 
L 347.956364 120.18996 
L 352.014545 121.219632 
L 356.072727 122.270472 
L 360.130909 123.325848 
L 364.189091 124.372152 
L 368.247273 125.403336 
L 372.305455 126.41184 
L 376.363636 127.39464 
L 380.421818 128.345688 
L 384.48 129.263472 
L 388.538182 130.141944 
L 392.596364 130.97808 
L 396.654545 131.762808 
L 400.712727 132.485544 
L 404.770909 133.122096 
L 408.829091 133.590816 
L 412.887273 133.732944 
L 416.945455 133.59384 
L 421.003636 133.364016 
L 425.061818 133.113024 
L 429.12 132.859008 
L 433.178182 132.61104 
L 437.236364 132.370632 
L 441.294545 132.140808 
L 445.352727 131.92308 
L 449.410909 131.717448 
L 453.469091 131.525424 
L 457.527273 131.347008 
L 461.585455 131.1822 
L 465.643636 131.032512 
L 469.701818 130.89492 
L 473.76 130.770936 
L 477.818182 130.656024 
L 481.876364 130.551696 
L 485.934545 130.454928 
L 489.992727 130.370256 
L 494.050909 130.309776 
L 498.109091 130.287096 
" clip-path="url(#pf7c307de47)" style="fill: none; stroke: #000000; stroke-opacity: 0.5; stroke-linecap: square"/>
   </g>
   <g id="patch_3">
    <path d="M 72 384.48 
L 72 51.84 
" style="fill: none; stroke: #000000; stroke-width: 0.8; stroke-linejoin: miter; stroke-linecap: square"/>
   </g>
   <g id="patch_4">
    <path d="M 518.4 384.48 
L 518.4 51.84 
" style="fill: none; stroke: #000000; stroke-width: 0.8; stroke-linejoin: miter; stroke-linecap: square"/>
   </g>
   <g id="patch_5">
    <path d="M 72 384.48 
L 518.4 384.48 
" style="fill: none; stroke: #000000; stroke-width: 0.8; stroke-linejoin: miter; stroke-linecap: square"/>
   </g>
   <g id="patch_6">
    <path d="M 72 51.84 
L 518.4 51.84 
" style="fill: none; stroke: #000000; stroke-width: 0.8; stroke-linejoin: miter; stroke-linecap: square"/>
   </g>
  </g>
 </g>
 <defs>
  <clipPath id="pf7c307de47">
   <rect x="72" y="51.84" width="446.4" height="332.64"/>
  </clipPath>
 </defs>
</svg>
