<?xml version="1.0" encoding="utf-8" standalone="no"?>
<!DOCTYPE svg PUBLIC "-//W3C//DTD SVG 1.1//EN"
  "http://www.w3.org/Graphics/SVG/1.1/DTD/svg11.dtd">
<svg xmlns:xlink="http://www.w3.org/1999/xlink" width="576pt" height="432pt" viewBox="0 0 576 432" xmlns="http://www.w3.org/2000/svg" version="1.1">
 <metadata>
  <rdf:RDF xmlns:dc="http://purl.org/dc/elements/1.1/" xmlns:cc="http://creativecommons.org/ns#" xmlns:rdf="http://www.w3.org/1999/02/22-rdf-syntax-ns#">
   <cc:Work>
    <dc:type rdf:resource="http://purl.org/dc/dcmitype/StillImage"/>
    <dc:date>2023-05-03T04:33:37.932768</dc:date>
    <dc:format>image/svg+xml</dc:format>
    <dc:creator>
     <cc:Agent>
      <dc:title>Matplotlib v3.7.1, https://matplotlib.org/</dc:title>
     </cc:Agent>
    </dc:creator>
   </cc:Work>
  </rdf:RDF>
 </metadata>
 <defs>
  <style type="text/css">*{stroke-linejoin: round; stroke-linecap: butt}</style>
 </defs>
 <g id="figure_1">
  <g id="patch_1">
   <path d="M 0 432 
L 576 432 
L 576 0 
L 0 0 
z
" style="fill: #ffffff"/>
  </g>
  <g id="axes_1">
   <g id="patch_2">
    <path d="M 72 384.48 
L 518.4 384.48 
L 518.4 51.84 
L 72 51.84 
z
" style="fill: #ffffff"/>
   </g>
   <g id="matplotlib.axis_1">
    <g id="xtick_1">
     <g id="line2d_1">
      <defs>
       <path id="m9b6045b455" d="M 0 0 
L 0 3.5 
" style="stroke: #000000; stroke-width: 0.8"/>
      </defs>
      <g>
       <use xlink:href="#m9b6045b455" x="92.290909" y="384.48" style="stroke: #000000; stroke-width: 0.8"/>
      </g>
     </g>
     <g id="text_1">
      <!-- 0.0 -->
      <g transform="translate(84.339347 399.078438) scale(0.1 -0.1)">
       <defs>
        <path id="DejaVuSans-30" d="M 2034 4250 
Q 1547 4250 1301 3770 
Q 1056 3291 1056 2328 
Q 1056 1369 1301 889 
Q 1547 409 2034 409 
Q 2525 409 2770 889 
Q 3016 1369 3016 2328 
Q 3016 3291 2770 3770 
Q 2525 4250 2034 4250 
z
M 2034 4750 
Q 2819 4750 3233 4129 
Q 3647 3509 3647 2328 
Q 3647 1150 3233 529 
Q 2819 -91 2034 -91 
Q 1250 -91 836 529 
Q 422 1150 422 2328 
Q 422 3509 836 4129 
Q 1250 4750 2034 4750 
z
" transform="scale(0.015625)"/>
        <path id="DejaVuSans-2e" d="M 684 794 
L 1344 794 
L 1344 0 
L 684 0 
L 684 794 
z
" transform="scale(0.015625)"/>
       </defs>
       <use xlink:href="#DejaVuSans-30"/>
       <use xlink:href="#DejaVuSans-2e" x="63.623047"/>
       <use xlink:href="#DejaVuSans-30" x="95.410156"/>
      </g>
     </g>
    </g>
    <g id="xtick_2">
     <g id="line2d_2">
      <g>
       <use xlink:href="#m9b6045b455" x="173.454545" y="384.48" style="stroke: #000000; stroke-width: 0.8"/>
      </g>
     </g>
     <g id="text_2">
      <!-- 0.2 -->
      <g transform="translate(165.502983 399.078438) scale(0.1 -0.1)">
       <defs>
        <path id="DejaVuSans-32" d="M 1228 531 
L 3431 531 
L 3431 0 
L 469 0 
L 469 531 
Q 828 903 1448 1529 
Q 2069 2156 2228 2338 
Q 2531 2678 2651 2914 
Q 2772 3150 2772 3378 
Q 2772 3750 2511 3984 
Q 2250 4219 1831 4219 
Q 1534 4219 1204 4116 
Q 875 4013 500 3803 
L 500 4441 
Q 881 4594 1212 4672 
Q 1544 4750 1819 4750 
Q 2544 4750 2975 4387 
Q 3406 4025 3406 3419 
Q 3406 3131 3298 2873 
Q 3191 2616 2906 2266 
Q 2828 2175 2409 1742 
Q 1991 1309 1228 531 
z
" transform="scale(0.015625)"/>
       </defs>
       <use xlink:href="#DejaVuSans-30"/>
       <use xlink:href="#DejaVuSans-2e" x="63.623047"/>
       <use xlink:href="#DejaVuSans-32" x="95.410156"/>
      </g>
     </g>
    </g>
    <g id="xtick_3">
     <g id="line2d_3">
      <g>
       <use xlink:href="#m9b6045b455" x="254.618182" y="384.48" style="stroke: #000000; stroke-width: 0.8"/>
      </g>
     </g>
     <g id="text_3">
      <!-- 0.4 -->
      <g transform="translate(246.666619 399.078438) scale(0.1 -0.1)">
       <defs>
        <path id="DejaVuSans-34" d="M 2419 4116 
L 825 1625 
L 2419 1625 
L 2419 4116 
z
M 2253 4666 
L 3047 4666 
L 3047 1625 
L 3713 1625 
L 3713 1100 
L 3047 1100 
L 3047 0 
L 2419 0 
L 2419 1100 
L 313 1100 
L 313 1709 
L 2253 4666 
z
" transform="scale(0.015625)"/>
       </defs>
       <use xlink:href="#DejaVuSans-30"/>
       <use xlink:href="#DejaVuSans-2e" x="63.623047"/>
       <use xlink:href="#DejaVuSans-34" x="95.410156"/>
      </g>
     </g>
    </g>
    <g id="xtick_4">
     <g id="line2d_4">
      <g>
       <use xlink:href="#m9b6045b455" x="335.781818" y="384.48" style="stroke: #000000; stroke-width: 0.8"/>
      </g>
     </g>
     <g id="text_4">
      <!-- 0.6 -->
      <g transform="translate(327.830256 399.078438) scale(0.1 -0.1)">
       <defs>
        <path id="DejaVuSans-36" d="M 2113 2584 
Q 1688 2584 1439 2293 
Q 1191 2003 1191 1497 
Q 1191 994 1439 701 
Q 1688 409 2113 409 
Q 2538 409 2786 701 
Q 3034 994 3034 1497 
Q 3034 2003 2786 2293 
Q 2538 2584 2113 2584 
z
M 3366 4563 
L 3366 3988 
Q 3128 4100 2886 4159 
Q 2644 4219 2406 4219 
Q 1781 4219 1451 3797 
Q 1122 3375 1075 2522 
Q 1259 2794 1537 2939 
Q 1816 3084 2150 3084 
Q 2853 3084 3261 2657 
Q 3669 2231 3669 1497 
Q 3669 778 3244 343 
Q 2819 -91 2113 -91 
Q 1303 -91 875 529 
Q 447 1150 447 2328 
Q 447 3434 972 4092 
Q 1497 4750 2381 4750 
Q 2619 4750 2861 4703 
Q 3103 4656 3366 4563 
z
" transform="scale(0.015625)"/>
       </defs>
       <use xlink:href="#DejaVuSans-30"/>
       <use xlink:href="#DejaVuSans-2e" x="63.623047"/>
       <use xlink:href="#DejaVuSans-36" x="95.410156"/>
      </g>
     </g>
    </g>
    <g id="xtick_5">
     <g id="line2d_5">
      <g>
       <use xlink:href="#m9b6045b455" x="416.945455" y="384.48" style="stroke: #000000; stroke-width: 0.8"/>
      </g>
     </g>
     <g id="text_5">
      <!-- 0.8 -->
      <g transform="translate(408.993892 399.078438) scale(0.1 -0.1)">
       <defs>
        <path id="DejaVuSans-38" d="M 2034 2216 
Q 1584 2216 1326 1975 
Q 1069 1734 1069 1313 
Q 1069 891 1326 650 
Q 1584 409 2034 409 
Q 2484 409 2743 651 
Q 3003 894 3003 1313 
Q 3003 1734 2745 1975 
Q 2488 2216 2034 2216 
z
M 1403 2484 
Q 997 2584 770 2862 
Q 544 3141 544 3541 
Q 544 4100 942 4425 
Q 1341 4750 2034 4750 
Q 2731 4750 3128 4425 
Q 3525 4100 3525 3541 
Q 3525 3141 3298 2862 
Q 3072 2584 2669 2484 
Q 3125 2378 3379 2068 
Q 3634 1759 3634 1313 
Q 3634 634 3220 271 
Q 2806 -91 2034 -91 
Q 1263 -91 848 271 
Q 434 634 434 1313 
Q 434 1759 690 2068 
Q 947 2378 1403 2484 
z
M 1172 3481 
Q 1172 3119 1398 2916 
Q 1625 2713 2034 2713 
Q 2441 2713 2670 2916 
Q 2900 3119 2900 3481 
Q 2900 3844 2670 4047 
Q 2441 4250 2034 4250 
Q 1625 4250 1398 4047 
Q 1172 3844 1172 3481 
z
" transform="scale(0.015625)"/>
       </defs>
       <use xlink:href="#DejaVuSans-30"/>
       <use xlink:href="#DejaVuSans-2e" x="63.623047"/>
       <use xlink:href="#DejaVuSans-38" x="95.410156"/>
      </g>
     </g>
    </g>
    <g id="xtick_6">
     <g id="line2d_6">
      <g>
       <use xlink:href="#m9b6045b455" x="498.109091" y="384.48" style="stroke: #000000; stroke-width: 0.8"/>
      </g>
     </g>
     <g id="text_6">
      <!-- 1.0 -->
      <g transform="translate(490.157528 399.078438) scale(0.1 -0.1)">
       <defs>
        <path id="DejaVuSans-31" d="M 794 531 
L 1825 531 
L 1825 4091 
L 703 3866 
L 703 4441 
L 1819 4666 
L 2450 4666 
L 2450 531 
L 3481 531 
L 3481 0 
L 794 0 
L 794 531 
z
" transform="scale(0.015625)"/>
       </defs>
       <use xlink:href="#DejaVuSans-31"/>
       <use xlink:href="#DejaVuSans-2e" x="63.623047"/>
       <use xlink:href="#DejaVuSans-30" x="95.410156"/>
      </g>
     </g>
    </g>
   </g>
   <g id="matplotlib.axis_2">
    <g id="ytick_1">
     <g id="line2d_7">
      <defs>
       <path id="me7269eeef3" d="M 0 0 
L -3.5 0 
" style="stroke: #000000; stroke-width: 0.8"/>
      </defs>
      <g>
       <use xlink:href="#me7269eeef3" x="72" y="369.36" style="stroke: #000000; stroke-width: 0.8"/>
      </g>
     </g>
     <g id="text_7">
      <!-- −5.0 -->
      <g transform="translate(40.717187 373.159219) scale(0.1 -0.1)">
       <defs>
        <path id="DejaVuSans-2212" d="M 678 2272 
L 4684 2272 
L 4684 1741 
L 678 1741 
L 678 2272 
z
" transform="scale(0.015625)"/>
        <path id="DejaVuSans-35" d="M 691 4666 
L 3169 4666 
L 3169 4134 
L 1269 4134 
L 1269 2991 
Q 1406 3038 1543 3061 
Q 1681 3084 1819 3084 
Q 2600 3084 3056 2656 
Q 3513 2228 3513 1497 
Q 3513 744 3044 326 
Q 2575 -91 1722 -91 
Q 1428 -91 1123 -41 
Q 819 9 494 109 
L 494 744 
Q 775 591 1075 516 
Q 1375 441 1709 441 
Q 2250 441 2565 725 
Q 2881 1009 2881 1497 
Q 2881 1984 2565 2268 
Q 2250 2553 1709 2553 
Q 1456 2553 1204 2497 
Q 953 2441 691 2322 
L 691 4666 
z
" transform="scale(0.015625)"/>
       </defs>
       <use xlink:href="#DejaVuSans-2212"/>
       <use xlink:href="#DejaVuSans-35" x="83.789062"/>
       <use xlink:href="#DejaVuSans-2e" x="147.412109"/>
       <use xlink:href="#DejaVuSans-30" x="179.199219"/>
      </g>
     </g>
    </g>
    <g id="ytick_2">
     <g id="line2d_8">
      <g>
       <use xlink:href="#me7269eeef3" x="72" y="331.56" style="stroke: #000000; stroke-width: 0.8"/>
      </g>
     </g>
     <g id="text_8">
      <!-- −2.5 -->
      <g transform="translate(40.717187 335.359219) scale(0.1 -0.1)">
       <use xlink:href="#DejaVuSans-2212"/>
       <use xlink:href="#DejaVuSans-32" x="83.789062"/>
       <use xlink:href="#DejaVuSans-2e" x="147.412109"/>
       <use xlink:href="#DejaVuSans-35" x="179.199219"/>
      </g>
     </g>
    </g>
    <g id="ytick_3">
     <g id="line2d_9">
      <g>
       <use xlink:href="#me7269eeef3" x="72" y="293.76" style="stroke: #000000; stroke-width: 0.8"/>
      </g>
     </g>
     <g id="text_9">
      <!-- 0.0 -->
      <g transform="translate(49.096875 297.559219) scale(0.1 -0.1)">
       <use xlink:href="#DejaVuSans-30"/>
       <use xlink:href="#DejaVuSans-2e" x="63.623047"/>
       <use xlink:href="#DejaVuSans-30" x="95.410156"/>
      </g>
     </g>
    </g>
    <g id="ytick_4">
     <g id="line2d_10">
      <g>
       <use xlink:href="#me7269eeef3" x="72" y="255.96" style="stroke: #000000; stroke-width: 0.8"/>
      </g>
     </g>
     <g id="text_10">
      <!-- 2.5 -->
      <g transform="translate(49.096875 259.759219) scale(0.1 -0.1)">
       <use xlink:href="#DejaVuSans-32"/>
       <use xlink:href="#DejaVuSans-2e" x="63.623047"/>
       <use xlink:href="#DejaVuSans-35" x="95.410156"/>
      </g>
     </g>
    </g>
    <g id="ytick_5">
     <g id="line2d_11">
      <g>
       <use xlink:href="#me7269eeef3" x="72" y="218.16" style="stroke: #000000; stroke-width: 0.8"/>
      </g>
     </g>
     <g id="text_11">
      <!-- 5.0 -->
      <g transform="translate(49.096875 221.959219) scale(0.1 -0.1)">
       <use xlink:href="#DejaVuSans-35"/>
       <use xlink:href="#DejaVuSans-2e" x="63.623047"/>
       <use xlink:href="#DejaVuSans-30" x="95.410156"/>
      </g>
     </g>
    </g>
    <g id="ytick_6">
     <g id="line2d_12">
      <g>
       <use xlink:href="#me7269eeef3" x="72" y="180.36" style="stroke: #000000; stroke-width: 0.8"/>
      </g>
     </g>
     <g id="text_12">
      <!-- 7.5 -->
      <g transform="translate(49.096875 184.159219) scale(0.1 -0.1)">
       <defs>
        <path id="DejaVuSans-37" d="M 525 4666 
L 3525 4666 
L 3525 4397 
L 1831 0 
L 1172 0 
L 2766 4134 
L 525 4134 
L 525 4666 
z
" transform="scale(0.015625)"/>
       </defs>
       <use xlink:href="#DejaVuSans-37"/>
       <use xlink:href="#DejaVuSans-2e" x="63.623047"/>
       <use xlink:href="#DejaVuSans-35" x="95.410156"/>
      </g>
     </g>
    </g>
    <g id="ytick_7">
     <g id="line2d_13">
      <g>
       <use xlink:href="#me7269eeef3" x="72" y="142.56" style="stroke: #000000; stroke-width: 0.8"/>
      </g>
     </g>
     <g id="text_13">
      <!-- 10.0 -->
      <g transform="translate(42.734375 146.359219) scale(0.1 -0.1)">
       <use xlink:href="#DejaVuSans-31"/>
       <use xlink:href="#DejaVuSans-30" x="63.623047"/>
       <use xlink:href="#DejaVuSans-2e" x="127.246094"/>
       <use xlink:href="#DejaVuSans-30" x="159.033203"/>
      </g>
     </g>
    </g>
    <g id="ytick_8">
     <g id="line2d_14">
      <g>
       <use xlink:href="#me7269eeef3" x="72" y="104.76" style="stroke: #000000; stroke-width: 0.8"/>
      </g>
     </g>
     <g id="text_14">
      <!-- 12.5 -->
      <g transform="translate(42.734375 108.559219) scale(0.1 -0.1)">
       <use xlink:href="#DejaVuSans-31"/>
       <use xlink:href="#DejaVuSans-32" x="63.623047"/>
       <use xlink:href="#DejaVuSans-2e" x="127.246094"/>
       <use xlink:href="#DejaVuSans-35" x="159.033203"/>
      </g>
     </g>
    </g>
    <g id="ytick_9">
     <g id="line2d_15">
      <g>
       <use xlink:href="#me7269eeef3" x="72" y="66.96" style="stroke: #000000; stroke-width: 0.8"/>
      </g>
     </g>
     <g id="text_15">
      <!-- 15.0 -->
      <g transform="translate(42.734375 70.759219) scale(0.1 -0.1)">
       <use xlink:href="#DejaVuSans-31"/>
       <use xlink:href="#DejaVuSans-35" x="63.623047"/>
       <use xlink:href="#DejaVuSans-2e" x="127.246094"/>
       <use xlink:href="#DejaVuSans-30" x="159.033203"/>
      </g>
     </g>
    </g>
   </g>
   <g id="line2d_16">
    <path d="M 92.290909 324.273672 
L 96.349091 324.284256 
L 100.407273 324.31752 
L 104.465455 324.37044 
L 108.523636 324.44604 
L 112.581818 324.541296 
L 116.64 324.65772 
L 120.698182 324.792288 
L 124.756364 324.946512 
L 128.814545 325.11888 
L 132.872727 325.30788 
L 136.930909 325.515024 
L 140.989091 325.737288 
L 145.047273 325.974672 
L 149.105455 326.225664 
L 153.163636 326.491776 
L 157.221818 326.769984 
L 161.28 327.0618 
L 165.338182 327.3642 
L 169.396364 327.678696 
L 173.454545 328.003776 
L 177.512727 328.33944 
L 181.570909 328.684176 
L 185.629091 329.037984 
L 189.687273 329.400864 
L 193.745455 329.771304 
L 197.803636 330.149304 
L 201.861818 330.534864 
L 205.92 330.926472 
L 209.978182 331.324128 
L 214.036364 331.72632 
L 218.094545 332.13456 
L 222.152727 332.547336 
L 226.210909 332.964648 
L 230.269091 333.383472 
L 234.327273 333.806832 
L 238.385455 334.231704 
L 242.443636 334.6596 
L 246.501818 335.089008 
L 250.56 335.519928 
L 254.618182 335.950848 
L 258.676364 336.381768 
L 262.734545 336.812688 
L 266.792727 337.243608 
L 270.850909 337.673016 
L 274.909091 338.100912 
L 278.967273 338.527296 
L 283.025455 338.950656 
L 287.083636 339.372504 
L 291.141818 339.791328 
L 295.2 340.205616 
L 299.258182 340.618392 
L 303.316364 341.02512 
L 307.374545 341.428824 
L 311.432727 341.827992 
L 315.490909 342.222624 
L 319.549091 342.611208 
L 323.607273 342.993744 
L 327.665455 343.371744 
L 331.723636 343.743696 
L 335.781818 344.1096 
L 339.84 344.469456 
L 343.898182 344.821752 
L 347.956364 345.168 
L 352.014545 345.506688 
L 356.072727 345.837816 
L 360.130909 346.162896 
L 364.189091 346.478904 
L 368.247273 346.787352 
L 372.305455 347.08824 
L 376.363636 347.381568 
L 380.421818 347.665824 
L 384.48 347.941008 
L 388.538182 348.208632 
L 392.596364 348.467184 
L 396.654545 348.716664 
L 400.712727 348.958584 
L 404.770909 349.18992 
L 408.829091 349.412184 
L 412.887273 349.626888 
L 416.945455 349.831008 
L 421.003636 350.026056 
L 425.061818 350.21052 
L 429.12 350.385912 
L 433.178182 350.552232 
L 437.236364 350.70948 
L 441.294545 350.856144 
L 445.352727 350.992224 
L 449.410909 351.119232 
L 453.469091 351.235656 
L 457.527273 351.343008 
L 461.585455 351.439776 
L 465.643636 351.52596 
L 469.701818 351.603072 
L 473.76 351.6696 
L 477.818182 351.725544 
L 481.876364 351.770904 
L 485.934545 351.807192 
L 489.992727 351.832896 
L 494.050909 351.848016 
L 498.109091 351.852552 
" clip-path="url(#p5a4ced7948)" style="fill: none; stroke: #000000; stroke-opacity: 0.5; stroke-linecap: square"/>
   </g>
   <g id="line2d_17">
    <path d="M 92.290909 312.847488 
L 96.349091 312.838416 
L 100.407273 312.8112 
L 104.465455 312.76584 
L 108.523636 312.703848 
L 112.581818 312.625224 
L 116.64 312.528456 
L 120.698182 312.416568 
L 124.756364 312.28956 
L 128.814545 312.147432 
L 132.872727 311.990184 
L 136.930909 311.82084 
L 140.989091 311.637888 
L 145.047273 311.44284 
L 149.105455 311.234184 
L 153.163636 311.016456 
L 157.221818 310.78512 
L 161.28 310.544712 
L 165.338182 310.295232 
L 169.396364 310.033656 
L 173.454545 309.76452 
L 177.512727 309.4848 
L 181.570909 309.196008 
L 185.629091 308.898144 
L 189.687273 308.59272 
L 193.745455 308.278224 
L 197.803636 307.956168 
L 201.861818 307.62504 
L 205.92 307.286352 
L 209.978182 306.940104 
L 214.036364 306.586296 
L 218.094545 306.223416 
L 222.152727 305.854488 
L 226.210909 305.478 
L 230.269091 305.095464 
L 234.327273 304.705368 
L 238.385455 304.307712 
L 242.443636 303.904008 
L 246.501818 303.494256 
L 250.56 303.076944 
L 254.618182 302.655096 
L 258.676364 302.225688 
L 262.734545 301.791744 
L 266.792727 301.351752 
L 270.850909 300.907224 
L 274.909091 300.456648 
L 278.967273 300.003048 
L 283.025455 299.5434 
L 287.083636 299.079216 
L 291.141818 298.612008 
L 295.2 298.140264 
L 299.258182 297.665496 
L 303.316364 297.189216 
L 307.374545 296.7084 
L 311.432727 296.226072 
L 315.490909 295.742232 
L 319.549091 295.25688 
L 323.607273 294.770016 
L 327.665455 294.283152 
L 331.723636 293.796288 
L 335.781818 293.310936 
L 339.84 292.825584 
L 343.898182 292.341744 
L 347.956364 291.859416 
L 352.014545 291.380112 
L 356.072727 290.903832 
L 360.130909 290.432088 
L 364.189091 289.96488 
L 368.247273 289.502208 
L 372.305455 289.045584 
L 376.363636 288.595008 
L 380.421818 288.15048 
L 384.48 287.715024 
L 388.538182 287.28864 
L 392.596364 286.869816 
L 396.654545 286.461576 
L 400.712727 286.062408 
L 404.770909 285.675336 
L 408.829091 285.30036 
L 412.887273 284.935968 
L 416.945455 284.585184 
L 421.003636 284.248008 
L 425.061818 283.925952 
L 429.12 283.617504 
L 433.178182 283.324176 
L 437.236364 283.045968 
L 441.294545 282.78288 
L 445.352727 282.537936 
L 449.410909 282.309624 
L 453.469091 282.097944 
L 457.527273 281.902896 
L 461.585455 281.725992 
L 465.643636 281.568744 
L 469.701818 281.428128 
L 473.76 281.305656 
L 477.818182 281.201328 
L 481.876364 281.116656 
L 485.934545 281.05164 
L 489.992727 281.003256 
L 494.050909 280.974528 
L 498.109091 280.965456 
" clip-path="url(#p5a4ced7948)" style="fill: none; stroke: #000000; stroke-opacity: 0.5; stroke-linecap: square"/>
   </g>
   <g id="line2d_18">
    <path d="M 92.290909 258.184152 
L 96.349091 258.323256 
L 100.407273 258.677064 
L 104.465455 259.144272 
L 108.523636 259.662888 
L 112.581818 260.198136 
L 116.64 260.734896 
L 120.698182 261.265608 
L 124.756364 261.785736 
L 128.814545 262.289232 
L 132.872727 262.777608 
L 136.930909 263.244816 
L 140.989091 263.69388 
L 145.047273 264.120264 
L 149.105455 264.526992 
L 153.163636 264.909528 
L 157.221818 265.269384 
L 161.28 265.60656 
L 165.338182 265.921056 
L 169.396364 266.209848 
L 173.454545 266.47596 
L 177.512727 266.71788 
L 181.570909 266.935608 
L 185.629091 267.129144 
L 189.687273 267.298488 
L 193.745455 267.44364 
L 197.803636 267.5646 
L 201.861818 267.661368 
L 205.92 267.735456 
L 209.978182 267.785352 
L 214.036364 267.812568 
L 218.094545 267.817104 
L 222.152727 267.797448 
L 226.210909 267.756624 
L 230.269091 267.69312 
L 234.327273 267.608448 
L 238.385455 267.502608 
L 242.443636 267.3756 
L 246.501818 267.227424 
L 250.56 267.05808 
L 254.618182 266.870592 
L 258.676364 266.663448 
L 262.734545 266.436648 
L 266.792727 266.191704 
L 270.850909 265.928616 
L 274.909091 265.647384 
L 278.967273 265.348008 
L 283.025455 265.033512 
L 287.083636 264.700872 
L 291.141818 264.353112 
L 295.2 263.990232 
L 299.258182 263.61072 
L 303.316364 263.2176 
L 307.374545 262.810872 
L 311.432727 262.390536 
L 315.490909 261.956592 
L 319.549091 261.50904 
L 323.607273 261.050904 
L 327.665455 260.580672 
L 331.723636 260.098344 
L 335.781818 259.606944 
L 339.84 259.10496 
L 343.898182 258.593904 
L 347.956364 258.073776 
L 352.014545 257.546088 
L 356.072727 257.01084 
L 360.130909 256.469544 
L 364.189091 255.920688 
L 368.247273 255.367296 
L 372.305455 254.809368 
L 376.363636 254.246904 
L 380.421818 253.681416 
L 384.48 253.114416 
L 388.538182 252.547416 
L 392.596364 251.977392 
L 396.654545 251.410392 
L 400.712727 250.843392 
L 404.770909 250.280928 
L 408.829091 249.721488 
L 412.887273 249.166584 
L 416.945455 248.617728 
L 421.003636 248.077944 
L 425.061818 247.544208 
L 429.12 247.022568 
L 433.178182 246.511512 
L 437.236364 246.012552 
L 441.294545 245.5272 
L 445.352727 245.056968 
L 449.410909 244.60488 
L 453.469091 244.169424 
L 457.527273 243.753624 
L 461.585455 243.35748 
L 465.643636 242.984016 
L 469.701818 242.634744 
L 473.76 242.308152 
L 477.818182 242.010288 
L 481.876364 241.741152 
L 485.934545 241.506792 
L 489.992727 241.31628 
L 494.050909 241.184736 
L 498.109091 241.136352 
" clip-path="url(#p5a4ced7948)" style="fill: none; stroke: #000000; stroke-opacity: 0.5; stroke-linecap: square"/>
   </g>
   <g id="line2d_19">
    <path d="M 92.290909 255.17376 
L 96.349091 255.019536 
L 100.407273 254.62188 
L 104.465455 254.082096 
L 108.523636 253.463688 
L 112.581818 252.79992 
L 116.64 252.107424 
L 120.698182 251.39376 
L 124.756364 250.666488 
L 128.814545 249.928632 
L 132.872727 249.183216 
L 136.930909 248.434776 
L 140.989091 247.683312 
L 145.047273 246.934872 
L 149.105455 246.187944 
L 153.163636 245.447064 
L 157.221818 244.713744 
L 161.28 243.991008 
L 165.338182 243.278856 
L 169.396364 242.583336 
L 173.454545 241.904448 
L 177.512727 241.245216 
L 181.570909 240.607152 
L 185.629091 239.994792 
L 189.687273 239.408136 
L 193.745455 238.850208 
L 197.803636 238.32252 
L 201.861818 237.826584 
L 205.92 237.366936 
L 209.978182 236.940552 
L 214.036364 236.551968 
L 218.094545 236.199672 
L 222.152727 235.885176 
L 226.210909 235.609992 
L 230.269091 235.371096 
L 234.327273 235.17 
L 238.385455 235.005192 
L 242.443636 234.87516 
L 246.501818 234.778392 
L 250.56 234.714888 
L 254.618182 234.683136 
L 258.676364 234.6786 
L 262.734545 234.70128 
L 266.792727 234.748152 
L 270.850909 234.817704 
L 274.909091 234.908424 
L 278.967273 235.017288 
L 283.025455 235.142784 
L 287.083636 235.281888 
L 291.141818 235.4346 
L 295.2 235.597896 
L 299.258182 235.768752 
L 303.316364 235.94868 
L 307.374545 236.133144 
L 311.432727 236.322144 
L 315.490909 236.514168 
L 319.549091 236.706192 
L 323.607273 236.899728 
L 327.665455 237.091752 
L 331.723636 237.282264 
L 335.781818 237.469752 
L 339.84 237.651192 
L 343.898182 237.829608 
L 347.956364 238.001976 
L 352.014545 238.166784 
L 356.072727 238.325544 
L 360.130909 238.476744 
L 364.189091 238.618872 
L 368.247273 238.75344 
L 372.305455 238.877424 
L 376.363636 238.993848 
L 380.421818 239.099688 
L 384.48 239.194944 
L 388.538182 239.28264 
L 392.596364 239.35824 
L 396.654545 239.42628 
L 400.712727 239.483736 
L 404.770909 239.533632 
L 408.829091 239.574456 
L 412.887273 239.606208 
L 416.945455 239.631912 
L 421.003636 239.651568 
L 425.061818 239.663664 
L 429.12 239.672736 
L 433.178182 239.678784 
L 437.236364 239.681808 
L 441.294545 239.684832 
L 445.352727 239.689368 
L 449.410909 239.693904 
L 453.469091 239.704488 
L 457.527273 239.719608 
L 461.585455 239.740776 
L 465.643636 239.772528 
L 469.701818 239.81184 
L 473.76 239.863248 
L 477.818182 239.92524 
L 481.876364 239.997816 
L 485.934545 240.07644 
L 489.992727 240.156576 
L 494.050909 240.221592 
L 498.109091 240.247296 
" clip-path="url(#p5a4ced7948)" style="fill: none; stroke: #000000; stroke-opacity: 0.5; stroke-linecap: square"/>
   </g>
   <g id="line2d_20">
    <path d="M 92.290909 165.212784 
L 96.349091 165.646728 
L 100.407273 166.501008 
L 104.465455 167.44752 
L 108.523636 168.40764 
L 112.581818 169.358688 
L 116.64 170.291592 
L 120.698182 171.201816 
L 124.756364 172.084824 
L 128.814545 172.939104 
L 132.872727 173.764656 
L 136.930909 174.555432 
L 140.989091 175.314456 
L 145.047273 176.037192 
L 149.105455 176.722128 
L 153.163636 177.36624 
L 157.221818 177.97104 
L 161.28 178.531992 
L 165.338182 179.049096 
L 169.396364 179.517816 
L 173.454545 179.938152 
L 177.512727 180.30708 
L 181.570909 180.623088 
L 185.629091 180.883152 
L 189.687273 181.087272 
L 193.745455 181.230912 
L 197.803636 181.314072 
L 201.861818 181.33524 
L 205.92 181.292904 
L 209.978182 181.185552 
L 214.036364 181.013184 
L 218.094545 180.774288 
L 222.152727 180.468864 
L 226.210909 180.096912 
L 230.269091 179.658432 
L 234.327273 179.156448 
L 238.385455 178.589448 
L 242.443636 177.958944 
L 246.501818 177.26796 
L 250.56 176.518008 
L 254.618182 175.709088 
L 258.676364 174.845736 
L 262.734545 173.929464 
L 266.792727 172.961784 
L 270.850909 171.94572 
L 274.909091 170.882784 
L 278.967273 169.776 
L 283.025455 168.628392 
L 287.083636 167.43996 
L 291.141818 166.213728 
L 295.2 164.95272 
L 299.258182 163.658448 
L 303.316364 162.332424 
L 307.374545 160.977672 
L 311.432727 159.595704 
L 315.490909 158.188032 
L 319.549091 156.756168 
L 323.607273 155.303136 
L 327.665455 153.83196 
L 331.723636 152.5392 
L 335.781818 154.030032 
L 339.84 155.53296 
L 343.898182 157.019256 
L 347.956364 158.48892 
L 352.014545 159.94044 
L 356.072727 161.373816 
L 360.130909 162.786024 
L 364.189091 164.178576 
L 368.247273 165.54996 
L 372.305455 166.898664 
L 376.363636 168.224688 
L 380.421818 169.52652 
L 384.48 170.802648 
L 388.538182 172.054584 
L 392.596364 173.279304 
L 396.654545 174.476808 
L 400.712727 175.644072 
L 404.770909 176.782608 
L 408.829091 177.88788 
L 412.887273 178.9614 
L 416.945455 180.001656 
L 421.003636 181.005624 
L 425.061818 181.973304 
L 429.12 182.901672 
L 433.178182 183.789216 
L 437.236364 184.635936 
L 441.294545 185.438808 
L 445.352727 186.19632 
L 449.410909 186.908472 
L 453.469091 187.570728 
L 457.527273 188.181576 
L 461.585455 188.741016 
L 465.643636 189.247536 
L 469.701818 189.698112 
L 473.76 190.092744 
L 477.818182 190.428408 
L 481.876364 190.705104 
L 485.934545 190.919808 
L 489.992727 191.075544 
L 494.050909 191.169288 
L 498.109091 191.199528 
" clip-path="url(#p5a4ced7948)" style="fill: none; stroke: #000000; stroke-opacity: 0.5; stroke-linecap: square"/>
   </g>
   <g id="line2d_21">
    <path d="M 92.290909 162.982584 
L 96.349091 162.527472 
L 100.407273 161.60364 
L 104.465455 160.542216 
L 108.523636 159.420312 
L 112.581818 158.260608 
L 116.64 157.073688 
L 120.698182 155.861064 
L 124.756364 154.627272 
L 128.814545 153.372312 
L 132.872727 152.099208 
L 136.930909 150.806448 
L 140.989091 149.497056 
L 145.047273 148.171032 
L 149.105455 146.828376 
L 153.163636 145.4706 
L 157.221818 144.097704 
L 161.28 142.709688 
L 165.338182 141.306552 
L 169.396364 139.89132 
L 173.454545 138.460968 
L 177.512727 137.020032 
L 181.570909 135.567 
L 185.629091 134.101872 
L 189.687273 132.627672 
L 193.745455 131.142888 
L 197.803636 129.652056 
L 201.861818 128.153664 
L 205.92 126.652248 
L 209.978182 125.150832 
L 214.036364 123.65244 
L 218.094545 122.167656 
L 222.152727 120.708576 
L 226.210909 119.30544 
L 230.269091 118.02024 
L 234.327273 117.025344 
L 238.385455 116.700264 
L 242.443636 117.314136 
L 246.501818 118.528272 
L 250.56 119.997936 
L 254.618182 121.574952 
L 258.676364 123.203376 
L 262.734545 124.859016 
L 266.792727 126.526752 
L 270.850909 128.202048 
L 274.909091 129.877344 
L 278.967273 131.551128 
L 283.025455 133.221888 
L 287.083636 134.885088 
L 291.141818 136.54224 
L 295.2 138.19032 
L 299.258182 139.827816 
L 303.316364 141.45624 
L 307.374545 143.07408 
L 311.432727 144.679824 
L 315.490909 146.27196 
L 319.549091 147.852 
L 323.607273 149.41692 
L 327.665455 150.968232 
L 331.723636 152.309376 
L 335.781818 150.8382 
L 339.84 149.330736 
L 343.898182 147.827808 
L 347.956364 146.361168 
L 352.014545 145.038168 
L 356.072727 144.360792 
L 360.130909 144.982224 
L 364.189091 146.170656 
L 368.247273 147.478536 
L 372.305455 148.81212 
L 376.363636 150.139656 
L 380.421818 151.453584 
L 384.48 152.747856 
L 388.538182 154.019448 
L 392.596364 155.263824 
L 396.654545 156.480984 
L 400.712727 157.669416 
L 404.770909 158.827608 
L 408.829091 159.952536 
L 412.887273 161.0442 
L 416.945455 162.099576 
L 421.003636 163.118664 
L 425.061818 164.099952 
L 429.12 165.041928 
L 433.178182 165.940056 
L 437.236364 166.79736 
L 441.294545 167.609304 
L 445.352727 168.374376 
L 449.410909 169.091064 
L 453.469091 169.757856 
L 457.527273 170.374752 
L 461.585455 170.937216 
L 465.643636 171.445248 
L 469.701818 171.897336 
L 473.76 172.291968 
L 477.818182 172.629144 
L 481.876364 172.90584 
L 485.934545 173.122056 
L 489.992727 173.27628 
L 494.050909 173.370024 
L 498.109091 173.400264 
" clip-path="url(#p5a4ced7948)" style="fill: none; stroke: #000000; stroke-opacity: 0.5; stroke-linecap: square"/>
   </g>
   <g id="line2d_22">
    <path d="M 92.290909 108.700272 
L 96.349091 108.697248 
L 100.407273 108.689688 
L 104.465455 108.674568 
L 108.523636 108.654912 
L 112.581818 108.63072 
L 116.64 108.60048 
L 120.698182 108.564192 
L 124.756364 108.521856 
L 128.814545 108.474984 
L 132.872727 108.423576 
L 136.930909 108.36612 
L 140.989091 108.304128 
L 145.047273 108.236088 
L 149.105455 108.165024 
L 153.163636 108.087912 
L 157.221818 108.007776 
L 161.28 107.923104 
L 165.338182 107.833896 
L 169.396364 107.741664 
L 173.454545 107.64792 
L 177.512727 107.551152 
L 181.570909 107.454384 
L 185.629091 107.356104 
L 189.687273 107.260848 
L 193.745455 107.17164 
L 197.803636 107.091504 
L 201.861818 107.029512 
L 205.92 106.99776 
L 209.978182 107.023464 
L 214.036364 107.15652 
L 218.094545 107.48916 
L 222.152727 108.136296 
L 226.210909 109.103976 
L 230.269091 110.230416 
L 234.327273 111.229848 
L 238.385455 111.657744 
L 242.443636 111.220776 
L 246.501818 110.253096 
L 250.56 109.126656 
L 254.618182 108.03348 
L 258.676364 107.135352 
L 262.734545 106.855632 
L 266.792727 107.714448 
L 270.850909 109.094904 
L 274.909091 110.647728 
L 278.967273 112.273128 
L 283.025455 113.936328 
L 287.083636 115.61616 
L 291.141818 117.303552 
L 295.2 118.989432 
L 299.258182 120.670776 
L 303.316364 122.34456 
L 307.374545 124.009272 
L 311.432727 125.661888 
L 315.490909 127.300896 
L 319.549091 128.926296 
L 323.607273 130.533552 
L 327.665455 132.124176 
L 331.723636 133.695144 
L 335.781818 135.24192 
L 339.84 136.76148 
L 343.898182 138.238704 
L 347.956364 139.647888 
L 352.014545 140.877144 
L 356.072727 141.427512 
L 360.130909 140.64732 
L 364.189091 139.266864 
L 368.247273 137.733696 
L 372.305455 136.144584 
L 376.363636 134.526744 
L 380.421818 132.892272 
L 384.48 131.247216 
L 388.538182 129.5946 
L 392.596364 127.935936 
L 396.654545 126.274248 
L 400.712727 124.61256 
L 404.770909 122.952384 
L 408.829091 121.29372 
L 412.887273 119.641104 
L 416.945455 117.996048 
L 421.003636 116.361576 
L 425.061818 114.737688 
L 429.12 113.131944 
L 433.178182 111.544344 
L 437.236364 109.979424 
L 441.294545 108.443232 
L 445.352727 106.941816 
L 449.410909 105.479712 
L 453.469091 104.067504 
L 457.527273 102.714264 
L 461.585455 101.4336 
L 465.643636 100.248192 
L 469.701818 99.2034 
L 473.76 98.421696 
L 477.818182 98.03916 
L 481.876364 97.89552 
L 485.934545 97.830504 
L 489.992727 97.795728 
L 494.050909 97.779096 
L 498.109091 97.773048 
" clip-path="url(#p5a4ced7948)" style="fill: none; stroke: #000000; stroke-opacity: 0.5; stroke-linecap: square"/>
   </g>
   <g id="line2d_23">
    <path d="M 92.290909 92.878704 
L 96.349091 92.872656 
L 100.407273 92.853 
L 104.465455 92.821248 
L 108.523636 92.7774 
L 112.581818 92.721456 
L 116.64 92.651904 
L 120.698182 92.571768 
L 124.756364 92.478024 
L 128.814545 92.375208 
L 132.872727 92.260296 
L 136.930909 92.136312 
L 140.989091 92.001744 
L 145.047273 91.861128 
L 149.105455 91.714464 
L 153.163636 91.564776 
L 157.221818 91.4166 
L 161.28 91.275984 
L 165.338182 91.153512 
L 169.396364 91.067328 
L 173.454545 91.047672 
L 177.512727 91.148976 
L 181.570909 91.46196 
L 185.629091 92.087928 
L 189.687273 93.06468 
L 193.745455 94.318128 
L 197.803636 95.74092 
L 201.861818 97.248384 
L 205.92 98.78004 
L 209.978182 100.282968 
L 214.036364 101.686104 
L 218.094545 102.882096 
L 222.152727 103.740912 
L 226.210909 104.22324 
L 230.269091 104.431896 
L 234.327273 104.484816 
L 238.385455 104.4576 
L 242.443636 104.394096 
L 246.501818 104.332104 
L 250.56 104.323032 
L 254.618182 104.463648 
L 258.676364 104.856768 
L 262.734545 105.231744 
L 266.792727 104.992848 
L 270.850909 104.58612 
L 274.909091 104.22324 
L 278.967273 103.91328 
L 283.025455 103.64112 
L 287.083636 103.394664 
L 291.141818 103.16484 
L 295.2 102.948624 
L 299.258182 102.739968 
L 303.316364 102.538872 
L 307.374545 102.343824 
L 311.432727 102.153312 
L 315.490909 101.967336 
L 319.549091 101.784384 
L 323.607273 101.605968 
L 327.665455 101.430576 
L 331.723636 101.258208 
L 335.781818 101.088864 
L 339.84 100.922544 
L 343.898182 100.76076 
L 347.956364 100.602 
L 352.014545 100.446264 
L 356.072727 100.295064 
L 360.130909 100.146888 
L 364.189091 100.001736 
L 368.247273 99.862632 
L 372.305455 99.72504 
L 376.363636 99.593496 
L 380.421818 99.464976 
L 384.48 99.340992 
L 388.538182 99.220032 
L 392.596364 99.10512 
L 396.654545 98.993232 
L 400.712727 98.88588 
L 404.770909 98.783064 
L 408.829091 98.684784 
L 412.887273 98.589528 
L 416.945455 98.50032 
L 421.003636 98.414136 
L 425.061818 98.332488 
L 429.12 98.255376 
L 433.178182 98.181288 
L 437.236364 98.111736 
L 441.294545 98.045208 
L 445.352727 97.983216 
L 449.410909 97.922736 
L 453.469091 97.863768 
L 457.527273 97.8048 
L 461.585455 97.741296 
L 465.643636 97.662672 
L 469.701818 97.535664 
L 473.76 97.25292 
L 477.818182 96.69348 
L 481.876364 96.034248 
L 485.934545 95.45364 
L 489.992727 95.013648 
L 494.050909 94.741488 
L 498.109091 94.649256 
" clip-path="url(#p5a4ced7948)" style="fill: none; stroke: #000000; stroke-opacity: 0.5; stroke-linecap: square"/>
   </g>
   <g id="patch_3">
    <path d="M 72 384.48 
L 72 51.84 
" style="fill: none; stroke: #000000; stroke-width: 0.8; stroke-linejoin: miter; stroke-linecap: square"/>
   </g>
   <g id="patch_4">
    <path d="M 518.4 384.48 
L 518.4 51.84 
" style="fill: none; stroke: #000000; stroke-width: 0.8; stroke-linejoin: miter; stroke-linecap: square"/>
   </g>
   <g id="patch_5">
    <path d="M 72 384.48 
L 518.4 384.48 
" style="fill: none; stroke: #000000; stroke-width: 0.8; stroke-linejoin: miter; stroke-linecap: square"/>
   </g>
   <g id="patch_6">
    <path d="M 72 51.84 
L 518.4 51.84 
" style="fill: none; stroke: #000000; stroke-width: 0.8; stroke-linejoin: miter; stroke-linecap: square"/>
   </g>
  </g>
 </g>
 <defs>
  <clipPath id="p5a4ced7948">
   <rect x="72" y="51.84" width="446.4" height="332.64"/>
  </clipPath>
 </defs>
</svg>
