<?xml version="1.0" encoding="utf-8" standalone="no"?>
<!DOCTYPE svg PUBLIC "-//W3C//DTD SVG 1.1//EN"
  "http://www.w3.org/Graphics/SVG/1.1/DTD/svg11.dtd">
<svg xmlns:xlink="http://www.w3.org/1999/xlink" width="576pt" height="432pt" viewBox="0 0 576 432" xmlns="http://www.w3.org/2000/svg" version="1.1">
 <metadata>
  <rdf:RDF xmlns:dc="http://purl.org/dc/elements/1.1/" xmlns:cc="http://creativecommons.org/ns#" xmlns:rdf="http://www.w3.org/1999/02/22-rdf-syntax-ns#">
   <cc:Work>
    <dc:type rdf:resource="http://purl.org/dc/dcmitype/StillImage"/>
    <dc:date>2023-05-02T20:48:51.308501</dc:date>
    <dc:format>image/svg+xml</dc:format>
    <dc:creator>
     <cc:Agent>
      <dc:title>Matplotlib v3.7.1, https://matplotlib.org/</dc:title>
     </cc:Agent>
    </dc:creator>
   </cc:Work>
  </rdf:RDF>
 </metadata>
 <defs>
  <style type="text/css">*{stroke-linejoin: round; stroke-linecap: butt}</style>
 </defs>
 <g id="figure_1">
  <g id="patch_1">
   <path d="M 0 432 
L 576 432 
L 576 0 
L 0 0 
z
" style="fill: #ffffff"/>
  </g>
  <g id="axes_1">
   <g id="patch_2">
    <path d="M 72 384.48 
L 518.4 384.48 
L 518.4 51.84 
L 72 51.84 
z
" style="fill: #ffffff"/>
   </g>
   <g id="matplotlib.axis_1">
    <g id="xtick_1">
     <g id="line2d_1">
      <defs>
       <path id="m9ea25f2481" d="M 0 0 
L 0 3.5 
" style="stroke: #000000; stroke-width: 0.8"/>
      </defs>
      <g>
       <use xlink:href="#m9ea25f2481" x="92.290909" y="384.48" style="stroke: #000000; stroke-width: 0.8"/>
      </g>
     </g>
     <g id="text_1">
      <!-- 0.0 -->
      <g transform="translate(84.339347 399.078438) scale(0.1 -0.1)">
       <defs>
        <path id="DejaVuSans-30" d="M 2034 4250 
Q 1547 4250 1301 3770 
Q 1056 3291 1056 2328 
Q 1056 1369 1301 889 
Q 1547 409 2034 409 
Q 2525 409 2770 889 
Q 3016 1369 3016 2328 
Q 3016 3291 2770 3770 
Q 2525 4250 2034 4250 
z
M 2034 4750 
Q 2819 4750 3233 4129 
Q 3647 3509 3647 2328 
Q 3647 1150 3233 529 
Q 2819 -91 2034 -91 
Q 1250 -91 836 529 
Q 422 1150 422 2328 
Q 422 3509 836 4129 
Q 1250 4750 2034 4750 
z
" transform="scale(0.015625)"/>
        <path id="DejaVuSans-2e" d="M 684 794 
L 1344 794 
L 1344 0 
L 684 0 
L 684 794 
z
" transform="scale(0.015625)"/>
       </defs>
       <use xlink:href="#DejaVuSans-30"/>
       <use xlink:href="#DejaVuSans-2e" x="63.623047"/>
       <use xlink:href="#DejaVuSans-30" x="95.410156"/>
      </g>
     </g>
    </g>
    <g id="xtick_2">
     <g id="line2d_2">
      <g>
       <use xlink:href="#m9ea25f2481" x="173.454545" y="384.48" style="stroke: #000000; stroke-width: 0.8"/>
      </g>
     </g>
     <g id="text_2">
      <!-- 0.2 -->
      <g transform="translate(165.502983 399.078438) scale(0.1 -0.1)">
       <defs>
        <path id="DejaVuSans-32" d="M 1228 531 
L 3431 531 
L 3431 0 
L 469 0 
L 469 531 
Q 828 903 1448 1529 
Q 2069 2156 2228 2338 
Q 2531 2678 2651 2914 
Q 2772 3150 2772 3378 
Q 2772 3750 2511 3984 
Q 2250 4219 1831 4219 
Q 1534 4219 1204 4116 
Q 875 4013 500 3803 
L 500 4441 
Q 881 4594 1212 4672 
Q 1544 4750 1819 4750 
Q 2544 4750 2975 4387 
Q 3406 4025 3406 3419 
Q 3406 3131 3298 2873 
Q 3191 2616 2906 2266 
Q 2828 2175 2409 1742 
Q 1991 1309 1228 531 
z
" transform="scale(0.015625)"/>
       </defs>
       <use xlink:href="#DejaVuSans-30"/>
       <use xlink:href="#DejaVuSans-2e" x="63.623047"/>
       <use xlink:href="#DejaVuSans-32" x="95.410156"/>
      </g>
     </g>
    </g>
    <g id="xtick_3">
     <g id="line2d_3">
      <g>
       <use xlink:href="#m9ea25f2481" x="254.618182" y="384.48" style="stroke: #000000; stroke-width: 0.8"/>
      </g>
     </g>
     <g id="text_3">
      <!-- 0.4 -->
      <g transform="translate(246.666619 399.078438) scale(0.1 -0.1)">
       <defs>
        <path id="DejaVuSans-34" d="M 2419 4116 
L 825 1625 
L 2419 1625 
L 2419 4116 
z
M 2253 4666 
L 3047 4666 
L 3047 1625 
L 3713 1625 
L 3713 1100 
L 3047 1100 
L 3047 0 
L 2419 0 
L 2419 1100 
L 313 1100 
L 313 1709 
L 2253 4666 
z
" transform="scale(0.015625)"/>
       </defs>
       <use xlink:href="#DejaVuSans-30"/>
       <use xlink:href="#DejaVuSans-2e" x="63.623047"/>
       <use xlink:href="#DejaVuSans-34" x="95.410156"/>
      </g>
     </g>
    </g>
    <g id="xtick_4">
     <g id="line2d_4">
      <g>
       <use xlink:href="#m9ea25f2481" x="335.781818" y="384.48" style="stroke: #000000; stroke-width: 0.8"/>
      </g>
     </g>
     <g id="text_4">
      <!-- 0.6 -->
      <g transform="translate(327.830256 399.078438) scale(0.1 -0.1)">
       <defs>
        <path id="DejaVuSans-36" d="M 2113 2584 
Q 1688 2584 1439 2293 
Q 1191 2003 1191 1497 
Q 1191 994 1439 701 
Q 1688 409 2113 409 
Q 2538 409 2786 701 
Q 3034 994 3034 1497 
Q 3034 2003 2786 2293 
Q 2538 2584 2113 2584 
z
M 3366 4563 
L 3366 3988 
Q 3128 4100 2886 4159 
Q 2644 4219 2406 4219 
Q 1781 4219 1451 3797 
Q 1122 3375 1075 2522 
Q 1259 2794 1537 2939 
Q 1816 3084 2150 3084 
Q 2853 3084 3261 2657 
Q 3669 2231 3669 1497 
Q 3669 778 3244 343 
Q 2819 -91 2113 -91 
Q 1303 -91 875 529 
Q 447 1150 447 2328 
Q 447 3434 972 4092 
Q 1497 4750 2381 4750 
Q 2619 4750 2861 4703 
Q 3103 4656 3366 4563 
z
" transform="scale(0.015625)"/>
       </defs>
       <use xlink:href="#DejaVuSans-30"/>
       <use xlink:href="#DejaVuSans-2e" x="63.623047"/>
       <use xlink:href="#DejaVuSans-36" x="95.410156"/>
      </g>
     </g>
    </g>
    <g id="xtick_5">
     <g id="line2d_5">
      <g>
       <use xlink:href="#m9ea25f2481" x="416.945455" y="384.48" style="stroke: #000000; stroke-width: 0.8"/>
      </g>
     </g>
     <g id="text_5">
      <!-- 0.8 -->
      <g transform="translate(408.993892 399.078438) scale(0.1 -0.1)">
       <defs>
        <path id="DejaVuSans-38" d="M 2034 2216 
Q 1584 2216 1326 1975 
Q 1069 1734 1069 1313 
Q 1069 891 1326 650 
Q 1584 409 2034 409 
Q 2484 409 2743 651 
Q 3003 894 3003 1313 
Q 3003 1734 2745 1975 
Q 2488 2216 2034 2216 
z
M 1403 2484 
Q 997 2584 770 2862 
Q 544 3141 544 3541 
Q 544 4100 942 4425 
Q 1341 4750 2034 4750 
Q 2731 4750 3128 4425 
Q 3525 4100 3525 3541 
Q 3525 3141 3298 2862 
Q 3072 2584 2669 2484 
Q 3125 2378 3379 2068 
Q 3634 1759 3634 1313 
Q 3634 634 3220 271 
Q 2806 -91 2034 -91 
Q 1263 -91 848 271 
Q 434 634 434 1313 
Q 434 1759 690 2068 
Q 947 2378 1403 2484 
z
M 1172 3481 
Q 1172 3119 1398 2916 
Q 1625 2713 2034 2713 
Q 2441 2713 2670 2916 
Q 2900 3119 2900 3481 
Q 2900 3844 2670 4047 
Q 2441 4250 2034 4250 
Q 1625 4250 1398 4047 
Q 1172 3844 1172 3481 
z
" transform="scale(0.015625)"/>
       </defs>
       <use xlink:href="#DejaVuSans-30"/>
       <use xlink:href="#DejaVuSans-2e" x="63.623047"/>
       <use xlink:href="#DejaVuSans-38" x="95.410156"/>
      </g>
     </g>
    </g>
    <g id="xtick_6">
     <g id="line2d_6">
      <g>
       <use xlink:href="#m9ea25f2481" x="498.109091" y="384.48" style="stroke: #000000; stroke-width: 0.8"/>
      </g>
     </g>
     <g id="text_6">
      <!-- 1.0 -->
      <g transform="translate(490.157528 399.078438) scale(0.1 -0.1)">
       <defs>
        <path id="DejaVuSans-31" d="M 794 531 
L 1825 531 
L 1825 4091 
L 703 3866 
L 703 4441 
L 1819 4666 
L 2450 4666 
L 2450 531 
L 3481 531 
L 3481 0 
L 794 0 
L 794 531 
z
" transform="scale(0.015625)"/>
       </defs>
       <use xlink:href="#DejaVuSans-31"/>
       <use xlink:href="#DejaVuSans-2e" x="63.623047"/>
       <use xlink:href="#DejaVuSans-30" x="95.410156"/>
      </g>
     </g>
    </g>
   </g>
   <g id="matplotlib.axis_2">
    <g id="ytick_1">
     <g id="line2d_7">
      <defs>
       <path id="m001f978f31" d="M 0 0 
L -3.5 0 
" style="stroke: #000000; stroke-width: 0.8"/>
      </defs>
      <g>
       <use xlink:href="#m001f978f31" x="72" y="369.36" style="stroke: #000000; stroke-width: 0.8"/>
      </g>
     </g>
     <g id="text_7">
      <!-- −5.0 -->
      <g transform="translate(40.717187 373.159219) scale(0.1 -0.1)">
       <defs>
        <path id="DejaVuSans-2212" d="M 678 2272 
L 4684 2272 
L 4684 1741 
L 678 1741 
L 678 2272 
z
" transform="scale(0.015625)"/>
        <path id="DejaVuSans-35" d="M 691 4666 
L 3169 4666 
L 3169 4134 
L 1269 4134 
L 1269 2991 
Q 1406 3038 1543 3061 
Q 1681 3084 1819 3084 
Q 2600 3084 3056 2656 
Q 3513 2228 3513 1497 
Q 3513 744 3044 326 
Q 2575 -91 1722 -91 
Q 1428 -91 1123 -41 
Q 819 9 494 109 
L 494 744 
Q 775 591 1075 516 
Q 1375 441 1709 441 
Q 2250 441 2565 725 
Q 2881 1009 2881 1497 
Q 2881 1984 2565 2268 
Q 2250 2553 1709 2553 
Q 1456 2553 1204 2497 
Q 953 2441 691 2322 
L 691 4666 
z
" transform="scale(0.015625)"/>
       </defs>
       <use xlink:href="#DejaVuSans-2212"/>
       <use xlink:href="#DejaVuSans-35" x="83.789062"/>
       <use xlink:href="#DejaVuSans-2e" x="147.412109"/>
       <use xlink:href="#DejaVuSans-30" x="179.199219"/>
      </g>
     </g>
    </g>
    <g id="ytick_2">
     <g id="line2d_8">
      <g>
       <use xlink:href="#m001f978f31" x="72" y="331.56" style="stroke: #000000; stroke-width: 0.8"/>
      </g>
     </g>
     <g id="text_8">
      <!-- −2.5 -->
      <g transform="translate(40.717187 335.359219) scale(0.1 -0.1)">
       <use xlink:href="#DejaVuSans-2212"/>
       <use xlink:href="#DejaVuSans-32" x="83.789062"/>
       <use xlink:href="#DejaVuSans-2e" x="147.412109"/>
       <use xlink:href="#DejaVuSans-35" x="179.199219"/>
      </g>
     </g>
    </g>
    <g id="ytick_3">
     <g id="line2d_9">
      <g>
       <use xlink:href="#m001f978f31" x="72" y="293.76" style="stroke: #000000; stroke-width: 0.8"/>
      </g>
     </g>
     <g id="text_9">
      <!-- 0.0 -->
      <g transform="translate(49.096875 297.559219) scale(0.1 -0.1)">
       <use xlink:href="#DejaVuSans-30"/>
       <use xlink:href="#DejaVuSans-2e" x="63.623047"/>
       <use xlink:href="#DejaVuSans-30" x="95.410156"/>
      </g>
     </g>
    </g>
    <g id="ytick_4">
     <g id="line2d_10">
      <g>
       <use xlink:href="#m001f978f31" x="72" y="255.96" style="stroke: #000000; stroke-width: 0.8"/>
      </g>
     </g>
     <g id="text_10">
      <!-- 2.5 -->
      <g transform="translate(49.096875 259.759219) scale(0.1 -0.1)">
       <use xlink:href="#DejaVuSans-32"/>
       <use xlink:href="#DejaVuSans-2e" x="63.623047"/>
       <use xlink:href="#DejaVuSans-35" x="95.410156"/>
      </g>
     </g>
    </g>
    <g id="ytick_5">
     <g id="line2d_11">
      <g>
       <use xlink:href="#m001f978f31" x="72" y="218.16" style="stroke: #000000; stroke-width: 0.8"/>
      </g>
     </g>
     <g id="text_11">
      <!-- 5.0 -->
      <g transform="translate(49.096875 221.959219) scale(0.1 -0.1)">
       <use xlink:href="#DejaVuSans-35"/>
       <use xlink:href="#DejaVuSans-2e" x="63.623047"/>
       <use xlink:href="#DejaVuSans-30" x="95.410156"/>
      </g>
     </g>
    </g>
    <g id="ytick_6">
     <g id="line2d_12">
      <g>
       <use xlink:href="#m001f978f31" x="72" y="180.36" style="stroke: #000000; stroke-width: 0.8"/>
      </g>
     </g>
     <g id="text_12">
      <!-- 7.5 -->
      <g transform="translate(49.096875 184.159219) scale(0.1 -0.1)">
       <defs>
        <path id="DejaVuSans-37" d="M 525 4666 
L 3525 4666 
L 3525 4397 
L 1831 0 
L 1172 0 
L 2766 4134 
L 525 4134 
L 525 4666 
z
" transform="scale(0.015625)"/>
       </defs>
       <use xlink:href="#DejaVuSans-37"/>
       <use xlink:href="#DejaVuSans-2e" x="63.623047"/>
       <use xlink:href="#DejaVuSans-35" x="95.410156"/>
      </g>
     </g>
    </g>
    <g id="ytick_7">
     <g id="line2d_13">
      <g>
       <use xlink:href="#m001f978f31" x="72" y="142.56" style="stroke: #000000; stroke-width: 0.8"/>
      </g>
     </g>
     <g id="text_13">
      <!-- 10.0 -->
      <g transform="translate(42.734375 146.359219) scale(0.1 -0.1)">
       <use xlink:href="#DejaVuSans-31"/>
       <use xlink:href="#DejaVuSans-30" x="63.623047"/>
       <use xlink:href="#DejaVuSans-2e" x="127.246094"/>
       <use xlink:href="#DejaVuSans-30" x="159.033203"/>
      </g>
     </g>
    </g>
    <g id="ytick_8">
     <g id="line2d_14">
      <g>
       <use xlink:href="#m001f978f31" x="72" y="104.76" style="stroke: #000000; stroke-width: 0.8"/>
      </g>
     </g>
     <g id="text_14">
      <!-- 12.5 -->
      <g transform="translate(42.734375 108.559219) scale(0.1 -0.1)">
       <use xlink:href="#DejaVuSans-31"/>
       <use xlink:href="#DejaVuSans-32" x="63.623047"/>
       <use xlink:href="#DejaVuSans-2e" x="127.246094"/>
       <use xlink:href="#DejaVuSans-35" x="159.033203"/>
      </g>
     </g>
    </g>
    <g id="ytick_9">
     <g id="line2d_15">
      <g>
       <use xlink:href="#m001f978f31" x="72" y="66.96" style="stroke: #000000; stroke-width: 0.8"/>
      </g>
     </g>
     <g id="text_15">
      <!-- 15.0 -->
      <g transform="translate(42.734375 70.759219) scale(0.1 -0.1)">
       <use xlink:href="#DejaVuSans-31"/>
       <use xlink:href="#DejaVuSans-35" x="63.623047"/>
       <use xlink:href="#DejaVuSans-2e" x="127.246094"/>
       <use xlink:href="#DejaVuSans-30" x="159.033203"/>
      </g>
     </g>
    </g>
   </g>
   <g id="line2d_16">
    <path d="M 92.290909 378.68148 
L 96.349091 378.675432 
L 100.407273 378.655776 
L 104.465455 378.624024 
L 108.523636 378.578664 
L 112.581818 378.52272 
L 116.64 378.451656 
L 120.698182 378.368496 
L 124.756364 378.27324 
L 128.814545 378.165888 
L 132.872727 378.044928 
L 136.930909 377.91036 
L 140.989091 377.765208 
L 145.047273 377.606448 
L 149.105455 377.43408 
L 153.163636 377.249616 
L 157.221818 377.053056 
L 161.28 376.842888 
L 165.338182 376.620624 
L 169.396364 376.386264 
L 173.454545 376.138296 
L 177.512727 375.879744 
L 181.570909 375.606072 
L 185.629091 375.321816 
L 189.687273 375.023952 
L 193.745455 374.713992 
L 197.803636 374.391936 
L 201.861818 374.056272 
L 205.92 373.710024 
L 209.978182 373.350168 
L 214.036364 372.978216 
L 218.094545 372.592656 
L 222.152727 372.196512 
L 226.210909 371.788272 
L 230.269091 371.366424 
L 234.327273 370.93248 
L 238.385455 370.487952 
L 242.443636 370.029816 
L 246.501818 369.559584 
L 250.56 369.077256 
L 254.618182 368.584344 
L 258.676364 368.077824 
L 262.734545 367.56072 
L 266.792727 367.030008 
L 270.850909 366.488712 
L 274.909091 365.93532 
L 278.967273 365.369832 
L 283.025455 364.792248 
L 287.083636 364.20408 
L 291.141818 363.603816 
L 295.2 362.992968 
L 299.258182 362.368512 
L 303.316364 361.734984 
L 307.374545 361.087848 
L 311.432727 360.43164 
L 315.490909 359.761824 
L 319.549091 359.082936 
L 323.607273 358.391952 
L 327.665455 357.690384 
L 331.723636 356.97672 
L 335.781818 356.252472 
L 339.84 355.519152 
L 343.898182 354.773736 
L 347.956364 354.017736 
L 352.014545 353.251152 
L 356.072727 352.473984 
L 360.130909 351.686232 
L 364.189091 350.887896 
L 368.247273 350.080488 
L 372.305455 349.262496 
L 376.363636 348.43392 
L 380.421818 347.596272 
L 384.48 346.749552 
L 388.538182 345.892248 
L 392.596364 345.025872 
L 396.654545 344.148912 
L 400.712727 343.264392 
L 404.770909 342.369288 
L 408.829091 341.466624 
L 412.887273 340.553376 
L 416.945455 339.632568 
L 421.003636 338.7042 
L 425.061818 337.76676 
L 429.12 336.820248 
L 433.178182 335.867688 
L 437.236364 334.906056 
L 441.294545 333.938376 
L 445.352727 332.963136 
L 449.410909 331.980336 
L 453.469091 330.993 
L 457.527273 329.998104 
L 461.585455 329.000184 
L 465.643636 327.996216 
L 469.701818 326.990736 
L 473.76 325.985256 
L 477.818182 324.9828 
L 481.876364 323.989416 
L 485.934545 323.021736 
L 489.992727 322.11 
L 494.050909 321.354 
L 498.109091 321.019848 
" clip-path="url(#p45bc57d163)" style="fill: none; stroke: #000000; stroke-opacity: 0.5; stroke-linecap: square"/>
   </g>
   <g id="line2d_17">
    <path d="M 92.290909 221.208192 
L 96.349091 221.300424 
L 100.407273 221.565024 
L 104.465455 221.9778 
L 108.523636 222.511536 
L 112.581818 223.140528 
L 116.64 223.840584 
L 120.698182 224.595072 
L 124.756364 225.393408 
L 128.814545 226.225008 
L 132.872727 227.082312 
L 136.930909 227.962296 
L 140.989091 228.858912 
L 145.047273 229.769136 
L 149.105455 230.691456 
L 153.163636 231.622848 
L 157.221818 232.563312 
L 161.28 233.509824 
L 165.338182 234.460872 
L 169.396364 235.416456 
L 173.454545 236.376576 
L 177.512727 237.33972 
L 181.570909 238.304376 
L 185.629091 239.270544 
L 189.687273 240.238224 
L 193.745455 241.207416 
L 197.803636 242.176608 
L 201.861818 243.147312 
L 205.92 244.118016 
L 209.978182 245.090232 
L 214.036364 246.060936 
L 218.094545 247.033152 
L 222.152727 248.005368 
L 226.210909 248.976072 
L 230.269091 249.948288 
L 234.327273 250.922016 
L 238.385455 251.894232 
L 242.443636 252.86796 
L 246.501818 253.8432 
L 250.56 254.816928 
L 254.618182 255.79368 
L 258.676364 256.770432 
L 262.734545 257.750208 
L 266.792727 258.729984 
L 270.850909 259.712784 
L 274.909091 260.697096 
L 278.967273 261.68292 
L 283.025455 262.671768 
L 287.083636 263.66364 
L 291.141818 264.658536 
L 295.2 265.656456 
L 299.258182 266.6574 
L 303.316364 267.66288 
L 307.374545 268.671384 
L 311.432727 269.684424 
L 315.490909 270.702 
L 319.549091 271.7226 
L 323.607273 272.747736 
L 327.665455 273.777408 
L 331.723636 274.813128 
L 335.781818 275.851872 
L 339.84 276.895152 
L 343.898182 277.94448 
L 347.956364 278.996832 
L 352.014545 280.05372 
L 356.072727 281.116656 
L 360.130909 282.182616 
L 364.189091 283.253112 
L 368.247273 284.328144 
L 372.305455 285.407712 
L 376.363636 286.490304 
L 380.421818 287.57592 
L 384.48 288.666072 
L 388.538182 289.759248 
L 392.596364 290.853936 
L 396.654545 291.95316 
L 400.712727 293.053896 
L 404.770909 294.156144 
L 408.829091 295.259904 
L 412.887273 296.365176 
L 416.945455 297.47196 
L 421.003636 298.578744 
L 425.061818 299.68704 
L 429.12 300.795336 
L 433.178182 301.90212 
L 437.236364 303.007392 
L 441.294545 304.112664 
L 445.352727 305.216424 
L 449.410909 306.31716 
L 453.469091 307.416384 
L 457.527273 308.511072 
L 461.585455 309.601224 
L 465.643636 310.68684 
L 469.701818 311.764896 
L 473.76 312.83388 
L 477.818182 313.890768 
L 481.876364 314.928 
L 485.934545 315.930456 
L 489.992727 316.866384 
L 494.050909 317.635992 
L 498.109091 317.976192 
" clip-path="url(#p45bc57d163)" style="fill: none; stroke: #000000; stroke-opacity: 0.5; stroke-linecap: square"/>
   </g>
   <g id="line2d_18">
    <path d="M 92.290909 213.044904 
L 96.349091 212.982912 
L 100.407273 212.80752 
L 104.465455 212.545944 
L 108.523636 212.234472 
L 112.581818 211.91544 
L 116.64 211.631184 
L 120.698182 211.4316 
L 124.756364 211.359024 
L 128.814545 211.436136 
L 132.872727 211.646304 
L 136.930909 211.9608 
L 140.989091 212.352408 
L 145.047273 212.79996 
L 149.105455 213.292872 
L 153.163636 213.819048 
L 157.221818 214.375464 
L 161.28 214.956072 
L 165.338182 215.557848 
L 169.396364 216.177768 
L 173.454545 216.811296 
L 177.512727 217.458432 
L 181.570909 218.116152 
L 185.629091 218.784456 
L 189.687273 219.46032 
L 193.745455 220.142232 
L 197.803636 220.830192 
L 201.861818 221.522688 
L 205.92 222.218208 
L 209.978182 222.91524 
L 214.036364 223.615296 
L 218.094545 224.315352 
L 222.152727 225.01692 
L 226.210909 225.718488 
L 230.269091 226.418544 
L 234.327273 227.1186 
L 238.385455 227.817144 
L 242.443636 228.512664 
L 246.501818 229.208184 
L 250.56 229.899168 
L 254.618182 230.58864 
L 258.676364 231.275088 
L 262.734545 231.957 
L 266.792727 232.6374 
L 270.850909 233.313264 
L 274.909091 233.986104 
L 278.967273 234.654408 
L 283.025455 235.319688 
L 287.083636 235.980432 
L 291.141818 236.635128 
L 295.2 237.2868 
L 299.258182 237.933936 
L 303.316364 238.575024 
L 307.374545 239.210064 
L 311.432727 239.840568 
L 315.490909 240.465024 
L 319.549091 241.083432 
L 323.607273 241.69428 
L 327.665455 242.297568 
L 331.723636 242.894808 
L 335.781818 243.482976 
L 339.84 244.062072 
L 343.898182 244.632096 
L 347.956364 245.193048 
L 352.014545 245.744928 
L 356.072727 246.284712 
L 360.130909 246.815424 
L 364.189091 247.332528 
L 368.247273 247.839048 
L 372.305455 248.333472 
L 376.363636 248.814288 
L 380.421818 249.281496 
L 384.48 249.736608 
L 388.538182 250.1766 
L 392.596364 250.602984 
L 396.654545 251.014248 
L 400.712727 251.411904 
L 404.770909 251.792928 
L 408.829091 252.160344 
L 412.887273 252.51264 
L 416.945455 252.848304 
L 421.003636 253.167336 
L 425.061818 253.47276 
L 429.12 253.761552 
L 433.178182 254.033712 
L 437.236364 254.28924 
L 441.294545 254.529648 
L 445.352727 254.753424 
L 449.410909 254.960568 
L 453.469091 255.15108 
L 457.527273 255.32496 
L 461.585455 255.482208 
L 465.643636 255.624336 
L 469.701818 255.74832 
L 473.76 255.857184 
L 477.818182 255.947904 
L 481.876364 256.023504 
L 485.934545 256.08096 
L 489.992727 256.123296 
L 494.050909 256.147488 
L 498.109091 256.15656 
" clip-path="url(#p45bc57d163)" style="fill: none; stroke: #000000; stroke-opacity: 0.5; stroke-linecap: square"/>
   </g>
   <g id="line2d_19">
    <path d="M 92.290909 208.124856 
L 96.349091 208.143 
L 100.407273 208.197432 
L 104.465455 208.280592 
L 108.523636 208.387944 
L 112.581818 208.504368 
L 116.64 208.605672 
L 120.698182 208.663128 
L 124.756364 208.643472 
L 128.814545 208.534608 
L 132.872727 208.359216 
L 136.930909 208.152072 
L 140.989091 207.944928 
L 145.047273 207.760464 
L 149.105455 207.612288 
L 153.163636 207.510984 
L 157.221818 207.465624 
L 161.28 207.476208 
L 165.338182 207.548784 
L 169.396364 207.683352 
L 173.454545 207.8784 
L 177.512727 208.13544 
L 181.570909 208.449936 
L 185.629091 208.821888 
L 189.687273 209.24676 
L 193.745455 209.720016 
L 197.803636 210.240144 
L 201.861818 210.802608 
L 205.92 211.402872 
L 209.978182 212.037912 
L 214.036364 212.704704 
L 218.094545 213.3972 
L 222.152727 214.1154 
L 226.210909 214.853256 
L 230.269091 215.609256 
L 234.327273 216.380376 
L 238.385455 217.163592 
L 242.443636 217.957392 
L 246.501818 218.75724 
L 250.56 219.563136 
L 254.618182 220.372056 
L 258.676364 221.182488 
L 262.734545 221.99292 
L 266.792727 222.800328 
L 270.850909 223.604712 
L 274.909091 224.403048 
L 278.967273 225.195336 
L 283.025455 225.980064 
L 287.083636 226.75572 
L 291.141818 227.520792 
L 295.2 228.273768 
L 299.258182 229.01616 
L 303.316364 229.743432 
L 307.374545 230.458608 
L 311.432727 231.158664 
L 315.490909 231.845112 
L 319.549091 232.514928 
L 323.607273 233.168112 
L 327.665455 233.806176 
L 331.723636 234.427608 
L 335.781818 235.032408 
L 339.84 235.620576 
L 343.898182 236.1906 
L 347.956364 236.745504 
L 352.014545 237.282264 
L 356.072727 237.802392 
L 360.130909 238.305888 
L 364.189091 238.79124 
L 368.247273 239.261472 
L 372.305455 239.715072 
L 376.363636 240.153552 
L 380.421818 240.573888 
L 384.48 240.980616 
L 388.538182 241.370712 
L 392.596364 241.744176 
L 396.654545 242.10252 
L 400.712727 242.447256 
L 404.770909 242.77536 
L 408.829091 243.088344 
L 412.887273 243.38772 
L 416.945455 243.671976 
L 421.003636 243.941112 
L 425.061818 244.19664 
L 429.12 244.437048 
L 433.178182 244.663848 
L 437.236364 244.87704 
L 441.294545 245.075112 
L 445.352727 245.259576 
L 449.410909 245.42892 
L 453.469091 245.586168 
L 457.527273 245.729808 
L 461.585455 245.858328 
L 465.643636 245.97324 
L 469.701818 246.074544 
L 473.76 246.163752 
L 477.818182 246.23784 
L 481.876364 246.29832 
L 485.934545 246.346704 
L 489.992727 246.379968 
L 494.050909 246.399624 
L 498.109091 246.407184 
" clip-path="url(#p45bc57d163)" style="fill: none; stroke: #000000; stroke-opacity: 0.5; stroke-linecap: square"/>
   </g>
   <g id="line2d_20">
    <path d="M 92.290909 167.925312 
L 96.349091 167.899608 
L 100.407273 167.82552 
L 104.465455 167.70456 
L 108.523636 167.539752 
L 112.581818 167.337144 
L 116.64 167.102784 
L 120.698182 166.847256 
L 124.756364 166.584168 
L 128.814545 166.330152 
L 132.872727 166.106376 
L 136.930909 165.930984 
L 140.989091 165.813048 
L 145.047273 165.748032 
L 149.105455 165.714768 
L 153.163636 165.696624 
L 157.221818 165.672432 
L 161.28 165.630096 
L 165.338182 165.563568 
L 169.396364 165.471336 
L 173.454545 165.359448 
L 177.512727 165.236976 
L 181.570909 165.11904 
L 185.629091 165.023784 
L 189.687273 164.972376 
L 193.745455 164.981448 
L 197.803636 165.063096 
L 201.861818 165.218832 
L 205.92 165.439584 
L 209.978182 165.719304 
L 214.036364 166.044384 
L 218.094545 166.405752 
L 222.152727 166.798872 
L 226.210909 167.21316 
L 230.269091 167.645592 
L 234.327273 168.093144 
L 238.385455 168.549768 
L 242.443636 169.016976 
L 246.501818 169.48872 
L 250.56 169.965 
L 254.618182 170.444304 
L 258.676364 170.92512 
L 262.734545 171.407448 
L 266.792727 171.888264 
L 270.850909 172.367568 
L 274.909091 172.84536 
L 278.967273 173.320128 
L 283.025455 173.791872 
L 287.083636 174.25908 
L 291.141818 174.723264 
L 295.2 175.1814 
L 299.258182 175.633488 
L 303.316364 176.08104 
L 307.374545 176.521032 
L 311.432727 176.956488 
L 315.490909 177.382872 
L 319.549091 177.803208 
L 323.607273 178.217496 
L 327.665455 178.622712 
L 331.723636 179.020368 
L 335.781818 179.408952 
L 339.84 179.789976 
L 343.898182 180.16344 
L 347.956364 180.527832 
L 352.014545 180.883152 
L 356.072727 181.2294 
L 360.130909 181.565064 
L 364.189091 181.893168 
L 368.247273 182.2122 
L 372.305455 182.520648 
L 376.363636 182.820024 
L 380.421818 183.110328 
L 384.48 183.390048 
L 388.538182 183.660696 
L 392.596364 183.92076 
L 396.654545 184.171752 
L 400.712727 184.41216 
L 404.770909 184.641984 
L 408.829091 184.862736 
L 412.887273 185.074416 
L 416.945455 185.274 
L 421.003636 185.464512 
L 425.061818 185.645952 
L 429.12 185.815296 
L 433.178182 185.97708 
L 437.236364 186.126768 
L 441.294545 186.267384 
L 445.352727 186.398928 
L 449.410909 186.519888 
L 453.469091 186.630264 
L 457.527273 186.731568 
L 461.585455 186.8238 
L 465.643636 186.905448 
L 469.701818 186.976512 
L 473.76 187.040016 
L 477.818182 187.092936 
L 481.876364 187.135272 
L 485.934545 187.168536 
L 489.992727 187.192728 
L 494.050909 187.207848 
L 498.109091 187.212384 
" clip-path="url(#p45bc57d163)" style="fill: none; stroke: #000000; stroke-opacity: 0.5; stroke-linecap: square"/>
   </g>
   <g id="line2d_21">
    <path d="M 92.290909 158.714208 
L 96.349091 158.815512 
L 100.407273 159.080112 
L 104.465455 159.438456 
L 108.523636 159.840648 
L 112.581818 160.256448 
L 116.64 160.65864 
L 120.698182 161.030592 
L 124.756364 161.348112 
L 128.814545 161.591544 
L 132.872727 161.736696 
L 136.930909 161.763912 
L 140.989091 161.668656 
L 145.047273 161.458488 
L 149.105455 161.163648 
L 153.163636 160.820424 
L 157.221818 160.472664 
L 161.28 160.162704 
L 165.338182 159.923808 
L 169.396364 159.77412 
L 173.454545 159.69852 
L 177.512727 159.669792 
L 181.570909 159.651648 
L 185.629091 159.6078 
L 189.687273 159.504984 
L 193.745455 159.32052 
L 197.803636 159.0408 
L 201.861818 158.659776 
L 205.92 158.185008 
L 209.978182 157.62708 
L 214.036364 156.998088 
L 218.094545 156.308616 
L 222.152727 155.569248 
L 226.210909 154.789056 
L 230.269091 153.9756 
L 234.327273 153.134928 
L 238.385455 152.277624 
L 242.443636 151.408224 
L 246.501818 150.5358 
L 250.56 149.670936 
L 254.618182 148.828752 
L 258.676364 148.02588 
L 262.734545 147.289536 
L 266.792727 146.659032 
L 270.850909 146.184264 
L 274.909091 145.9242 
L 278.967273 145.91664 
L 283.025455 146.163096 
L 287.083636 146.622744 
L 291.141818 147.23964 
L 295.2 147.963888 
L 299.258182 148.756176 
L 303.316364 149.592312 
L 307.374545 150.454152 
L 311.432727 151.3296 
L 315.490909 152.209584 
L 319.549091 153.089568 
L 323.607273 153.965016 
L 327.665455 154.832904 
L 331.723636 155.690208 
L 335.781818 156.535416 
L 339.84 157.367016 
L 343.898182 158.183496 
L 347.956364 158.983344 
L 352.014545 159.76656 
L 356.072727 160.533144 
L 360.130909 161.281584 
L 364.189091 162.010368 
L 368.247273 162.721008 
L 372.305455 163.411992 
L 376.363636 164.08332 
L 380.421818 164.734992 
L 384.48 165.365496 
L 388.538182 165.976344 
L 392.596364 166.566024 
L 396.654545 167.134536 
L 400.712727 167.68188 
L 404.770909 168.208056 
L 408.829091 168.714576 
L 412.887273 169.196904 
L 416.945455 169.659576 
L 421.003636 170.099568 
L 425.061818 170.518392 
L 429.12 170.914536 
L 433.178182 171.289512 
L 437.236364 171.641808 
L 441.294545 171.971424 
L 445.352727 172.279872 
L 449.410909 172.56564 
L 453.469091 172.827216 
L 457.527273 173.067624 
L 461.585455 173.285352 
L 465.643636 173.4804 
L 469.701818 173.652768 
L 473.76 173.802456 
L 477.818182 173.927952 
L 481.876364 174.03228 
L 485.934545 174.112416 
L 489.992727 174.169872 
L 494.050909 174.204648 
L 498.109091 174.216744 
" clip-path="url(#p45bc57d163)" style="fill: none; stroke: #000000; stroke-opacity: 0.5; stroke-linecap: square"/>
   </g>
   <g id="line2d_22">
    <path d="M 92.290909 156.800016 
L 96.349091 156.731976 
L 100.407273 156.565656 
L 104.465455 156.367584 
L 108.523636 156.177072 
L 112.581818 156.0168 
L 116.64 155.894328 
L 120.698182 155.814192 
L 124.756364 155.77488 
L 128.814545 155.770344 
L 132.872727 155.79756 
L 136.930909 155.848968 
L 140.989091 155.915496 
L 145.047273 155.98656 
L 149.105455 156.044016 
L 153.163636 156.068208 
L 157.221818 156.03192 
L 161.28 155.9034 
L 165.338182 155.650896 
L 169.396364 155.2608 
L 173.454545 154.740672 
L 177.512727 154.110168 
L 181.570909 153.394992 
L 185.629091 152.611776 
L 189.687273 151.777152 
L 193.745455 150.901704 
L 197.803636 149.992992 
L 201.861818 149.055552 
L 205.92 148.092408 
L 209.978182 147.109608 
L 214.036364 146.107152 
L 218.094545 145.086552 
L 222.152727 144.052344 
L 226.210909 143.003016 
L 230.269091 141.941592 
L 234.327273 140.869584 
L 238.385455 139.78548 
L 242.443636 138.695328 
L 246.501818 137.60064 
L 250.56 136.516536 
L 254.618182 135.50652 
L 258.676364 135.145152 
L 262.734545 135.701568 
L 266.792727 136.306368 
L 270.850909 136.770552 
L 274.909091 137.017008 
L 278.967273 136.998864 
L 283.025455 136.713096 
L 287.083636 136.199016 
L 291.141818 135.509544 
L 295.2 134.6976 
L 299.258182 133.796448 
L 303.316364 132.834816 
L 307.374545 131.826312 
L 311.432727 130.786056 
L 315.490909 129.720096 
L 319.549091 128.632968 
L 323.607273 127.529208 
L 327.665455 126.413352 
L 331.723636 125.2854 
L 335.781818 124.148376 
L 339.84 123.00228 
L 343.898182 121.848624 
L 347.956364 120.68892 
L 352.014545 119.521656 
L 356.072727 118.348344 
L 360.130909 117.170496 
L 364.189091 115.985088 
L 368.247273 114.796656 
L 372.305455 113.602176 
L 376.363636 112.401648 
L 380.421818 111.196584 
L 384.48 109.986984 
L 388.538182 108.771336 
L 392.596364 107.551152 
L 396.654545 106.326432 
L 400.712727 105.095664 
L 404.770909 103.86036 
L 408.829091 102.62052 
L 412.887273 101.374632 
L 416.945455 100.124208 
L 421.003636 98.867736 
L 425.061818 97.60824 
L 429.12 96.342696 
L 433.178182 95.072616 
L 437.236364 93.798 
L 441.294545 92.518848 
L 445.352727 91.236672 
L 449.410909 89.951472 
L 453.469091 88.661736 
L 457.527273 87.372 
L 461.585455 86.080752 
L 465.643636 84.789504 
L 469.701818 83.50128 
L 473.76 82.219104 
L 477.818182 80.949024 
L 481.876364 79.6986 
L 485.934545 78.487488 
L 489.992727 77.355 
L 494.050909 76.41756 
L 498.109091 76.000248 
" clip-path="url(#p45bc57d163)" style="fill: none; stroke: #000000; stroke-opacity: 0.5; stroke-linecap: square"/>
   </g>
   <g id="line2d_23">
    <path d="M 92.290909 141.40332 
L 96.349091 141.348888 
L 100.407273 141.187104 
L 104.465455 140.91948 
L 108.523636 140.552064 
L 112.581818 140.090904 
L 116.64 139.54356 
L 120.698182 138.917592 
L 124.756364 138.222072 
L 128.814545 137.466072 
L 132.872727 136.660176 
L 136.930909 135.811944 
L 140.989091 134.928936 
L 145.047273 134.021736 
L 149.105455 133.096392 
L 153.163636 132.163488 
L 157.221818 131.232096 
L 161.28 130.308264 
L 165.338182 129.407112 
L 169.396364 128.5362 
L 173.454545 127.713672 
L 177.512727 126.951624 
L 181.570909 126.269712 
L 185.629091 125.68608 
L 189.687273 125.223408 
L 193.745455 124.89984 
L 197.803636 124.728984 
L 201.861818 124.721424 
L 205.92 124.87716 
L 209.978182 125.18712 
L 214.036364 125.637696 
L 218.094545 126.212256 
L 222.152727 126.886608 
L 226.210909 127.645632 
L 230.269091 128.46816 
L 234.327273 129.33756 
L 238.385455 130.238712 
L 242.443636 131.154984 
L 246.501818 132.069744 
L 250.56 132.957288 
L 254.618182 133.731432 
L 258.676364 133.800984 
L 262.734545 132.86808 
L 266.792727 131.759784 
L 270.850909 130.612176 
L 274.909091 129.447936 
L 278.967273 128.270088 
L 283.025455 127.080144 
L 287.083636 125.88264 
L 291.141818 124.676064 
L 295.2 123.460416 
L 299.258182 122.237208 
L 303.316364 121.004928 
L 307.374545 119.7666 
L 311.432727 118.5192 
L 315.490909 117.265752 
L 319.549091 116.004744 
L 323.607273 114.736176 
L 327.665455 113.46156 
L 331.723636 112.180896 
L 335.781818 110.892672 
L 339.84 109.5984 
L 343.898182 108.29808 
L 347.956364 106.9902 
L 352.014545 105.677784 
L 356.072727 104.360832 
L 360.130909 103.037832 
L 364.189091 101.708784 
L 368.247273 100.3752 
L 372.305455 99.03708 
L 376.363636 97.694424 
L 380.421818 96.347232 
L 384.48 94.995504 
L 388.538182 93.640752 
L 392.596364 92.282976 
L 396.654545 90.920664 
L 400.712727 89.558352 
L 404.770909 88.191504 
L 408.829091 86.824656 
L 412.887273 85.457808 
L 416.945455 84.09096 
L 421.003636 82.724112 
L 425.061818 81.3618 
L 429.12 80.004024 
L 433.178182 78.65532 
L 437.236364 77.3172 
L 441.294545 75.995712 
L 445.352727 74.698416 
L 449.410909 73.437408 
L 453.469091 72.232344 
L 457.527273 71.108928 
L 461.585455 70.117056 
L 465.643636 69.329304 
L 469.701818 68.845464 
L 473.76 68.753232 
L 477.818182 69.064704 
L 481.876364 69.693696 
L 485.934545 70.522272 
L 489.992727 71.42796 
L 494.050909 72.245952 
L 498.109091 72.625464 
" clip-path="url(#p45bc57d163)" style="fill: none; stroke: #000000; stroke-opacity: 0.5; stroke-linecap: square"/>
   </g>
   <g id="patch_3">
    <path d="M 72 384.48 
L 72 51.84 
" style="fill: none; stroke: #000000; stroke-width: 0.8; stroke-linejoin: miter; stroke-linecap: square"/>
   </g>
   <g id="patch_4">
    <path d="M 518.4 384.48 
L 518.4 51.84 
" style="fill: none; stroke: #000000; stroke-width: 0.8; stroke-linejoin: miter; stroke-linecap: square"/>
   </g>
   <g id="patch_5">
    <path d="M 72 384.48 
L 518.4 384.48 
" style="fill: none; stroke: #000000; stroke-width: 0.8; stroke-linejoin: miter; stroke-linecap: square"/>
   </g>
   <g id="patch_6">
    <path d="M 72 51.84 
L 518.4 51.84 
" style="fill: none; stroke: #000000; stroke-width: 0.8; stroke-linejoin: miter; stroke-linecap: square"/>
   </g>
  </g>
 </g>
 <defs>
  <clipPath id="p45bc57d163">
   <rect x="72" y="51.84" width="446.4" height="332.64"/>
  </clipPath>
 </defs>
</svg>
