<?xml version="1.0" encoding="utf-8" standalone="no"?>
<!DOCTYPE svg PUBLIC "-//W3C//DTD SVG 1.1//EN"
  "http://www.w3.org/Graphics/SVG/1.1/DTD/svg11.dtd">
<svg xmlns:xlink="http://www.w3.org/1999/xlink" width="576pt" height="432pt" viewBox="0 0 576 432" xmlns="http://www.w3.org/2000/svg" version="1.1">
 <metadata>
  <rdf:RDF xmlns:dc="http://purl.org/dc/elements/1.1/" xmlns:cc="http://creativecommons.org/ns#" xmlns:rdf="http://www.w3.org/1999/02/22-rdf-syntax-ns#">
   <cc:Work>
    <dc:type rdf:resource="http://purl.org/dc/dcmitype/StillImage"/>
    <dc:date>2023-05-04T13:11:07.824471</dc:date>
    <dc:format>image/svg+xml</dc:format>
    <dc:creator>
     <cc:Agent>
      <dc:title>Matplotlib v3.7.1, https://matplotlib.org/</dc:title>
     </cc:Agent>
    </dc:creator>
   </cc:Work>
  </rdf:RDF>
 </metadata>
 <defs>
  <style type="text/css">*{stroke-linejoin: round; stroke-linecap: butt}</style>
 </defs>
 <g id="figure_1">
  <g id="patch_1">
   <path d="M 0 432 
L 576 432 
L 576 0 
L 0 0 
z
" style="fill: #ffffff"/>
  </g>
  <g id="axes_1">
   <g id="patch_2">
    <path d="M 72 384.48 
L 518.4 384.48 
L 518.4 51.84 
L 72 51.84 
z
" style="fill: #ffffff"/>
   </g>
   <g id="matplotlib.axis_1">
    <g id="xtick_1">
     <g id="line2d_1">
      <defs>
       <path id="m546837e641" d="M 0 0 
L 0 3.5 
" style="stroke: #000000; stroke-width: 0.8"/>
      </defs>
      <g>
       <use xlink:href="#m546837e641" x="92.290909" y="384.48" style="stroke: #000000; stroke-width: 0.8"/>
      </g>
     </g>
     <g id="text_1">
      <!-- 0.0 -->
      <g transform="translate(84.339347 399.078438) scale(0.1 -0.1)">
       <defs>
        <path id="DejaVuSans-30" d="M 2034 4250 
Q 1547 4250 1301 3770 
Q 1056 3291 1056 2328 
Q 1056 1369 1301 889 
Q 1547 409 2034 409 
Q 2525 409 2770 889 
Q 3016 1369 3016 2328 
Q 3016 3291 2770 3770 
Q 2525 4250 2034 4250 
z
M 2034 4750 
Q 2819 4750 3233 4129 
Q 3647 3509 3647 2328 
Q 3647 1150 3233 529 
Q 2819 -91 2034 -91 
Q 1250 -91 836 529 
Q 422 1150 422 2328 
Q 422 3509 836 4129 
Q 1250 4750 2034 4750 
z
" transform="scale(0.015625)"/>
        <path id="DejaVuSans-2e" d="M 684 794 
L 1344 794 
L 1344 0 
L 684 0 
L 684 794 
z
" transform="scale(0.015625)"/>
       </defs>
       <use xlink:href="#DejaVuSans-30"/>
       <use xlink:href="#DejaVuSans-2e" x="63.623047"/>
       <use xlink:href="#DejaVuSans-30" x="95.410156"/>
      </g>
     </g>
    </g>
    <g id="xtick_2">
     <g id="line2d_2">
      <g>
       <use xlink:href="#m546837e641" x="173.454545" y="384.48" style="stroke: #000000; stroke-width: 0.8"/>
      </g>
     </g>
     <g id="text_2">
      <!-- 0.2 -->
      <g transform="translate(165.502983 399.078438) scale(0.1 -0.1)">
       <defs>
        <path id="DejaVuSans-32" d="M 1228 531 
L 3431 531 
L 3431 0 
L 469 0 
L 469 531 
Q 828 903 1448 1529 
Q 2069 2156 2228 2338 
Q 2531 2678 2651 2914 
Q 2772 3150 2772 3378 
Q 2772 3750 2511 3984 
Q 2250 4219 1831 4219 
Q 1534 4219 1204 4116 
Q 875 4013 500 3803 
L 500 4441 
Q 881 4594 1212 4672 
Q 1544 4750 1819 4750 
Q 2544 4750 2975 4387 
Q 3406 4025 3406 3419 
Q 3406 3131 3298 2873 
Q 3191 2616 2906 2266 
Q 2828 2175 2409 1742 
Q 1991 1309 1228 531 
z
" transform="scale(0.015625)"/>
       </defs>
       <use xlink:href="#DejaVuSans-30"/>
       <use xlink:href="#DejaVuSans-2e" x="63.623047"/>
       <use xlink:href="#DejaVuSans-32" x="95.410156"/>
      </g>
     </g>
    </g>
    <g id="xtick_3">
     <g id="line2d_3">
      <g>
       <use xlink:href="#m546837e641" x="254.618182" y="384.48" style="stroke: #000000; stroke-width: 0.8"/>
      </g>
     </g>
     <g id="text_3">
      <!-- 0.4 -->
      <g transform="translate(246.666619 399.078438) scale(0.1 -0.1)">
       <defs>
        <path id="DejaVuSans-34" d="M 2419 4116 
L 825 1625 
L 2419 1625 
L 2419 4116 
z
M 2253 4666 
L 3047 4666 
L 3047 1625 
L 3713 1625 
L 3713 1100 
L 3047 1100 
L 3047 0 
L 2419 0 
L 2419 1100 
L 313 1100 
L 313 1709 
L 2253 4666 
z
" transform="scale(0.015625)"/>
       </defs>
       <use xlink:href="#DejaVuSans-30"/>
       <use xlink:href="#DejaVuSans-2e" x="63.623047"/>
       <use xlink:href="#DejaVuSans-34" x="95.410156"/>
      </g>
     </g>
    </g>
    <g id="xtick_4">
     <g id="line2d_4">
      <g>
       <use xlink:href="#m546837e641" x="335.781818" y="384.48" style="stroke: #000000; stroke-width: 0.8"/>
      </g>
     </g>
     <g id="text_4">
      <!-- 0.6 -->
      <g transform="translate(327.830256 399.078438) scale(0.1 -0.1)">
       <defs>
        <path id="DejaVuSans-36" d="M 2113 2584 
Q 1688 2584 1439 2293 
Q 1191 2003 1191 1497 
Q 1191 994 1439 701 
Q 1688 409 2113 409 
Q 2538 409 2786 701 
Q 3034 994 3034 1497 
Q 3034 2003 2786 2293 
Q 2538 2584 2113 2584 
z
M 3366 4563 
L 3366 3988 
Q 3128 4100 2886 4159 
Q 2644 4219 2406 4219 
Q 1781 4219 1451 3797 
Q 1122 3375 1075 2522 
Q 1259 2794 1537 2939 
Q 1816 3084 2150 3084 
Q 2853 3084 3261 2657 
Q 3669 2231 3669 1497 
Q 3669 778 3244 343 
Q 2819 -91 2113 -91 
Q 1303 -91 875 529 
Q 447 1150 447 2328 
Q 447 3434 972 4092 
Q 1497 4750 2381 4750 
Q 2619 4750 2861 4703 
Q 3103 4656 3366 4563 
z
" transform="scale(0.015625)"/>
       </defs>
       <use xlink:href="#DejaVuSans-30"/>
       <use xlink:href="#DejaVuSans-2e" x="63.623047"/>
       <use xlink:href="#DejaVuSans-36" x="95.410156"/>
      </g>
     </g>
    </g>
    <g id="xtick_5">
     <g id="line2d_5">
      <g>
       <use xlink:href="#m546837e641" x="416.945455" y="384.48" style="stroke: #000000; stroke-width: 0.8"/>
      </g>
     </g>
     <g id="text_5">
      <!-- 0.8 -->
      <g transform="translate(408.993892 399.078438) scale(0.1 -0.1)">
       <defs>
        <path id="DejaVuSans-38" d="M 2034 2216 
Q 1584 2216 1326 1975 
Q 1069 1734 1069 1313 
Q 1069 891 1326 650 
Q 1584 409 2034 409 
Q 2484 409 2743 651 
Q 3003 894 3003 1313 
Q 3003 1734 2745 1975 
Q 2488 2216 2034 2216 
z
M 1403 2484 
Q 997 2584 770 2862 
Q 544 3141 544 3541 
Q 544 4100 942 4425 
Q 1341 4750 2034 4750 
Q 2731 4750 3128 4425 
Q 3525 4100 3525 3541 
Q 3525 3141 3298 2862 
Q 3072 2584 2669 2484 
Q 3125 2378 3379 2068 
Q 3634 1759 3634 1313 
Q 3634 634 3220 271 
Q 2806 -91 2034 -91 
Q 1263 -91 848 271 
Q 434 634 434 1313 
Q 434 1759 690 2068 
Q 947 2378 1403 2484 
z
M 1172 3481 
Q 1172 3119 1398 2916 
Q 1625 2713 2034 2713 
Q 2441 2713 2670 2916 
Q 2900 3119 2900 3481 
Q 2900 3844 2670 4047 
Q 2441 4250 2034 4250 
Q 1625 4250 1398 4047 
Q 1172 3844 1172 3481 
z
" transform="scale(0.015625)"/>
       </defs>
       <use xlink:href="#DejaVuSans-30"/>
       <use xlink:href="#DejaVuSans-2e" x="63.623047"/>
       <use xlink:href="#DejaVuSans-38" x="95.410156"/>
      </g>
     </g>
    </g>
    <g id="xtick_6">
     <g id="line2d_6">
      <g>
       <use xlink:href="#m546837e641" x="498.109091" y="384.48" style="stroke: #000000; stroke-width: 0.8"/>
      </g>
     </g>
     <g id="text_6">
      <!-- 1.0 -->
      <g transform="translate(490.157528 399.078438) scale(0.1 -0.1)">
       <defs>
        <path id="DejaVuSans-31" d="M 794 531 
L 1825 531 
L 1825 4091 
L 703 3866 
L 703 4441 
L 1819 4666 
L 2450 4666 
L 2450 531 
L 3481 531 
L 3481 0 
L 794 0 
L 794 531 
z
" transform="scale(0.015625)"/>
       </defs>
       <use xlink:href="#DejaVuSans-31"/>
       <use xlink:href="#DejaVuSans-2e" x="63.623047"/>
       <use xlink:href="#DejaVuSans-30" x="95.410156"/>
      </g>
     </g>
    </g>
   </g>
   <g id="matplotlib.axis_2">
    <g id="ytick_1">
     <g id="line2d_7">
      <defs>
       <path id="ma5e02f2099" d="M 0 0 
L -3.5 0 
" style="stroke: #000000; stroke-width: 0.8"/>
      </defs>
      <g>
       <use xlink:href="#ma5e02f2099" x="72" y="369.36" style="stroke: #000000; stroke-width: 0.8"/>
      </g>
     </g>
     <g id="text_7">
      <!-- −5.0 -->
      <g transform="translate(40.717187 373.159219) scale(0.1 -0.1)">
       <defs>
        <path id="DejaVuSans-2212" d="M 678 2272 
L 4684 2272 
L 4684 1741 
L 678 1741 
L 678 2272 
z
" transform="scale(0.015625)"/>
        <path id="DejaVuSans-35" d="M 691 4666 
L 3169 4666 
L 3169 4134 
L 1269 4134 
L 1269 2991 
Q 1406 3038 1543 3061 
Q 1681 3084 1819 3084 
Q 2600 3084 3056 2656 
Q 3513 2228 3513 1497 
Q 3513 744 3044 326 
Q 2575 -91 1722 -91 
Q 1428 -91 1123 -41 
Q 819 9 494 109 
L 494 744 
Q 775 591 1075 516 
Q 1375 441 1709 441 
Q 2250 441 2565 725 
Q 2881 1009 2881 1497 
Q 2881 1984 2565 2268 
Q 2250 2553 1709 2553 
Q 1456 2553 1204 2497 
Q 953 2441 691 2322 
L 691 4666 
z
" transform="scale(0.015625)"/>
       </defs>
       <use xlink:href="#DejaVuSans-2212"/>
       <use xlink:href="#DejaVuSans-35" x="83.789062"/>
       <use xlink:href="#DejaVuSans-2e" x="147.412109"/>
       <use xlink:href="#DejaVuSans-30" x="179.199219"/>
      </g>
     </g>
    </g>
    <g id="ytick_2">
     <g id="line2d_8">
      <g>
       <use xlink:href="#ma5e02f2099" x="72" y="331.56" style="stroke: #000000; stroke-width: 0.8"/>
      </g>
     </g>
     <g id="text_8">
      <!-- −2.5 -->
      <g transform="translate(40.717187 335.359219) scale(0.1 -0.1)">
       <use xlink:href="#DejaVuSans-2212"/>
       <use xlink:href="#DejaVuSans-32" x="83.789062"/>
       <use xlink:href="#DejaVuSans-2e" x="147.412109"/>
       <use xlink:href="#DejaVuSans-35" x="179.199219"/>
      </g>
     </g>
    </g>
    <g id="ytick_3">
     <g id="line2d_9">
      <g>
       <use xlink:href="#ma5e02f2099" x="72" y="293.76" style="stroke: #000000; stroke-width: 0.8"/>
      </g>
     </g>
     <g id="text_9">
      <!-- 0.0 -->
      <g transform="translate(49.096875 297.559219) scale(0.1 -0.1)">
       <use xlink:href="#DejaVuSans-30"/>
       <use xlink:href="#DejaVuSans-2e" x="63.623047"/>
       <use xlink:href="#DejaVuSans-30" x="95.410156"/>
      </g>
     </g>
    </g>
    <g id="ytick_4">
     <g id="line2d_10">
      <g>
       <use xlink:href="#ma5e02f2099" x="72" y="255.96" style="stroke: #000000; stroke-width: 0.8"/>
      </g>
     </g>
     <g id="text_10">
      <!-- 2.5 -->
      <g transform="translate(49.096875 259.759219) scale(0.1 -0.1)">
       <use xlink:href="#DejaVuSans-32"/>
       <use xlink:href="#DejaVuSans-2e" x="63.623047"/>
       <use xlink:href="#DejaVuSans-35" x="95.410156"/>
      </g>
     </g>
    </g>
    <g id="ytick_5">
     <g id="line2d_11">
      <g>
       <use xlink:href="#ma5e02f2099" x="72" y="218.16" style="stroke: #000000; stroke-width: 0.8"/>
      </g>
     </g>
     <g id="text_11">
      <!-- 5.0 -->
      <g transform="translate(49.096875 221.959219) scale(0.1 -0.1)">
       <use xlink:href="#DejaVuSans-35"/>
       <use xlink:href="#DejaVuSans-2e" x="63.623047"/>
       <use xlink:href="#DejaVuSans-30" x="95.410156"/>
      </g>
     </g>
    </g>
    <g id="ytick_6">
     <g id="line2d_12">
      <g>
       <use xlink:href="#ma5e02f2099" x="72" y="180.36" style="stroke: #000000; stroke-width: 0.8"/>
      </g>
     </g>
     <g id="text_12">
      <!-- 7.5 -->
      <g transform="translate(49.096875 184.159219) scale(0.1 -0.1)">
       <defs>
        <path id="DejaVuSans-37" d="M 525 4666 
L 3525 4666 
L 3525 4397 
L 1831 0 
L 1172 0 
L 2766 4134 
L 525 4134 
L 525 4666 
z
" transform="scale(0.015625)"/>
       </defs>
       <use xlink:href="#DejaVuSans-37"/>
       <use xlink:href="#DejaVuSans-2e" x="63.623047"/>
       <use xlink:href="#DejaVuSans-35" x="95.410156"/>
      </g>
     </g>
    </g>
    <g id="ytick_7">
     <g id="line2d_13">
      <g>
       <use xlink:href="#ma5e02f2099" x="72" y="142.56" style="stroke: #000000; stroke-width: 0.8"/>
      </g>
     </g>
     <g id="text_13">
      <!-- 10.0 -->
      <g transform="translate(42.734375 146.359219) scale(0.1 -0.1)">
       <use xlink:href="#DejaVuSans-31"/>
       <use xlink:href="#DejaVuSans-30" x="63.623047"/>
       <use xlink:href="#DejaVuSans-2e" x="127.246094"/>
       <use xlink:href="#DejaVuSans-30" x="159.033203"/>
      </g>
     </g>
    </g>
    <g id="ytick_8">
     <g id="line2d_14">
      <g>
       <use xlink:href="#ma5e02f2099" x="72" y="104.76" style="stroke: #000000; stroke-width: 0.8"/>
      </g>
     </g>
     <g id="text_14">
      <!-- 12.5 -->
      <g transform="translate(42.734375 108.559219) scale(0.1 -0.1)">
       <use xlink:href="#DejaVuSans-31"/>
       <use xlink:href="#DejaVuSans-32" x="63.623047"/>
       <use xlink:href="#DejaVuSans-2e" x="127.246094"/>
       <use xlink:href="#DejaVuSans-35" x="159.033203"/>
      </g>
     </g>
    </g>
    <g id="ytick_9">
     <g id="line2d_15">
      <g>
       <use xlink:href="#ma5e02f2099" x="72" y="66.96" style="stroke: #000000; stroke-width: 0.8"/>
      </g>
     </g>
     <g id="text_15">
      <!-- 15.0 -->
      <g transform="translate(42.734375 70.759219) scale(0.1 -0.1)">
       <use xlink:href="#DejaVuSans-31"/>
       <use xlink:href="#DejaVuSans-35" x="63.623047"/>
       <use xlink:href="#DejaVuSans-2e" x="127.246094"/>
       <use xlink:href="#DejaVuSans-30" x="159.033203"/>
      </g>
     </g>
    </g>
   </g>
   <g id="line2d_16">
    <path d="M 92.290909 321.806088 
L 96.349091 321.869592 
L 100.407273 322.052544 
L 104.465455 322.342848 
L 108.523636 322.719336 
L 112.581818 323.166888 
L 116.64 323.668872 
L 120.698182 324.213192 
L 124.756364 324.790776 
L 128.814545 325.394064 
L 132.872727 326.017008 
L 136.930909 326.656584 
L 140.989091 327.308256 
L 145.047273 327.970512 
L 149.105455 328.64184 
L 153.163636 329.320728 
L 157.221818 330.004152 
L 161.28 330.692112 
L 165.338182 331.383096 
L 169.396364 332.077104 
L 173.454545 332.771112 
L 177.512727 333.468144 
L 181.570909 334.163664 
L 185.629091 334.859184 
L 189.687273 335.554704 
L 193.745455 336.2472 
L 197.803636 336.939696 
L 201.861818 337.629168 
L 205.92 338.315616 
L 209.978182 338.99904 
L 214.036364 339.677928 
L 218.094545 340.353792 
L 222.152727 341.02512 
L 226.210909 341.691912 
L 230.269091 342.354168 
L 234.327273 343.010376 
L 238.385455 343.662048 
L 242.443636 344.307672 
L 246.501818 344.947248 
L 250.56 345.579264 
L 254.618182 346.206744 
L 258.676364 346.825152 
L 262.734545 347.437512 
L 266.792727 348.043824 
L 270.850909 348.641064 
L 274.909091 349.230744 
L 278.967273 349.812864 
L 283.025455 350.387424 
L 287.083636 350.952912 
L 291.141818 351.51084 
L 295.2 352.059696 
L 299.258182 352.59948 
L 303.316364 353.130192 
L 307.374545 353.651832 
L 311.432727 354.1644 
L 315.490909 354.667896 
L 319.549091 355.16232 
L 323.607273 355.647672 
L 327.665455 356.120928 
L 331.723636 356.586624 
L 335.781818 357.041736 
L 339.84 357.486264 
L 343.898182 357.92172 
L 347.956364 358.346592 
L 352.014545 358.759368 
L 356.072727 359.164584 
L 360.130909 359.557704 
L 364.189091 359.94024 
L 368.247273 360.312192 
L 372.305455 360.67356 
L 376.363636 361.024344 
L 380.421818 361.363032 
L 384.48 361.692648 
L 388.538182 362.010168 
L 392.596364 362.315592 
L 396.654545 362.611944 
L 400.712727 362.8962 
L 404.770909 363.16836 
L 408.829091 363.431448 
L 412.887273 363.680928 
L 416.945455 363.919824 
L 421.003636 364.148136 
L 425.061818 364.364352 
L 429.12 364.568472 
L 433.178182 364.762008 
L 437.236364 364.943448 
L 441.294545 365.114304 
L 445.352727 365.273064 
L 449.410909 365.419728 
L 453.469091 365.554296 
L 457.527273 365.67828 
L 461.585455 365.790168 
L 465.643636 365.88996 
L 469.701818 365.977656 
L 473.76 366.054768 
L 477.818182 366.119784 
L 481.876364 366.172704 
L 485.934545 366.213528 
L 489.992727 366.243768 
L 494.050909 366.2604 
L 498.109091 366.266448 
" clip-path="url(#p32c44d8fd4)" style="fill: none; stroke: #000000; stroke-opacity: 0.5; stroke-linecap: square"/>
   </g>
   <g id="line2d_17">
    <path d="M 92.290909 314.084304 
L 96.349091 314.025336 
L 100.407273 313.85448 
L 104.465455 313.583832 
L 108.523636 313.23456 
L 112.581818 312.821784 
L 116.64 312.362136 
L 120.698182 311.867712 
L 124.756364 311.346072 
L 128.814545 310.806288 
L 132.872727 310.251384 
L 136.930909 309.687408 
L 140.989091 309.11436 
L 145.047273 308.535264 
L 149.105455 307.951632 
L 153.163636 307.364976 
L 157.221818 306.776808 
L 161.28 306.185616 
L 165.338182 305.594424 
L 169.396364 305.00172 
L 173.454545 304.407504 
L 177.512727 303.811776 
L 181.570909 303.216048 
L 185.629091 302.618808 
L 189.687273 302.021568 
L 193.745455 301.422816 
L 197.803636 300.822552 
L 201.861818 300.222288 
L 205.92 299.619 
L 209.978182 299.0142 
L 214.036364 298.407888 
L 218.094545 297.800064 
L 222.152727 297.189216 
L 226.210909 296.575344 
L 230.269091 295.95996 
L 234.327273 295.341552 
L 238.385455 294.718608 
L 242.443636 294.094152 
L 246.501818 293.466672 
L 250.56 292.834656 
L 254.618182 292.199616 
L 258.676364 291.56004 
L 262.734545 290.91744 
L 266.792727 290.270304 
L 270.850909 289.618632 
L 274.909091 288.963936 
L 278.967273 288.304704 
L 283.025455 287.640936 
L 287.083636 286.972632 
L 291.141818 286.299792 
L 295.2 285.623928 
L 299.258182 284.942016 
L 303.316364 284.25708 
L 307.374545 283.567608 
L 311.432727 282.8736 
L 315.490909 282.175056 
L 319.549091 281.473488 
L 323.607273 280.767384 
L 327.665455 280.056744 
L 331.723636 279.34308 
L 335.781818 278.62488 
L 339.84 277.905168 
L 343.898182 277.18092 
L 347.956364 276.45516 
L 352.014545 275.726376 
L 356.072727 274.994568 
L 360.130909 274.261248 
L 364.189091 273.526416 
L 368.247273 272.790072 
L 372.305455 272.053728 
L 376.363636 271.317384 
L 380.421818 270.579528 
L 384.48 269.844696 
L 388.538182 269.109864 
L 392.596364 268.378056 
L 396.654545 267.649272 
L 400.712727 266.925024 
L 404.770909 266.205312 
L 408.829091 265.490136 
L 412.887273 264.784032 
L 416.945455 264.083976 
L 421.003636 263.394504 
L 425.061818 262.717128 
L 429.12 262.051848 
L 433.178182 261.400176 
L 437.236364 260.766648 
L 441.294545 260.151264 
L 445.352727 259.557048 
L 449.410909 258.987024 
L 453.469091 258.444216 
L 457.527273 257.930136 
L 461.585455 257.450832 
L 465.643636 257.006304 
L 469.701818 256.604112 
L 473.76 256.245768 
L 477.818182 255.934296 
L 481.876364 255.674232 
L 485.934545 255.4686 
L 489.992727 255.318912 
L 494.050909 255.228192 
L 498.109091 255.197952 
" clip-path="url(#p32c44d8fd4)" style="fill: none; stroke: #000000; stroke-opacity: 0.5; stroke-linecap: square"/>
   </g>
   <g id="line2d_18">
    <path d="M 92.290909 263.238768 
L 96.349091 263.258424 
L 100.407273 263.314368 
L 104.465455 263.402064 
L 108.523636 263.515464 
L 112.581818 263.647008 
L 116.64 263.787624 
L 120.698182 263.934288 
L 124.756364 264.080952 
L 128.814545 264.221568 
L 132.872727 264.354624 
L 136.930909 264.477096 
L 140.989091 264.587472 
L 145.047273 264.682728 
L 149.105455 264.762864 
L 153.163636 264.826368 
L 157.221818 264.874752 
L 161.28 264.904992 
L 165.338182 264.917088 
L 169.396364 264.91104 
L 173.454545 264.886848 
L 177.512727 264.846024 
L 181.570909 264.785544 
L 185.629091 264.708432 
L 189.687273 264.613176 
L 193.745455 264.499776 
L 197.803636 264.368232 
L 201.861818 264.218544 
L 205.92 264.052224 
L 209.978182 263.869272 
L 214.036364 263.669688 
L 218.094545 263.45196 
L 222.152727 263.2176 
L 226.210909 262.96812 
L 230.269091 262.702008 
L 234.327273 262.419264 
L 238.385455 262.1214 
L 242.443636 261.808416 
L 246.501818 261.480312 
L 250.56 261.137088 
L 254.618182 260.778744 
L 258.676364 260.406792 
L 262.734545 260.01972 
L 266.792727 259.61904 
L 270.850909 259.204752 
L 274.909091 258.776856 
L 278.967273 258.335352 
L 283.025455 257.881752 
L 287.083636 257.414544 
L 291.141818 256.93524 
L 295.2 256.44384 
L 299.258182 255.940344 
L 303.316364 255.426264 
L 307.374545 254.900088 
L 311.432727 254.363328 
L 315.490909 253.815984 
L 319.549091 253.258056 
L 323.607273 252.689544 
L 327.665455 252.113472 
L 331.723636 251.526816 
L 335.781818 250.931088 
L 339.84 250.3278 
L 343.898182 249.71544 
L 347.956364 249.097032 
L 352.014545 248.471064 
L 356.072727 247.837536 
L 360.130909 247.199472 
L 364.189091 246.556872 
L 368.247273 245.908224 
L 372.305455 245.25504 
L 376.363636 244.600344 
L 380.421818 243.941112 
L 384.48 243.28188 
L 388.538182 242.621136 
L 392.596364 241.961904 
L 396.654545 241.302672 
L 400.712727 240.646464 
L 404.770909 239.99328 
L 408.829091 239.344632 
L 412.887273 238.703544 
L 416.945455 238.068504 
L 421.003636 237.44556 
L 425.061818 236.831688 
L 429.12 236.231424 
L 433.178182 235.647792 
L 437.236364 235.080792 
L 441.294545 234.53496 
L 445.352727 234.010296 
L 449.410909 233.512848 
L 453.469091 233.044128 
L 457.527273 232.608672 
L 461.585455 232.21404 
L 465.643636 231.869304 
L 469.701818 231.597144 
L 473.76 231.441408 
L 477.818182 231.438384 
L 481.876364 231.527592 
L 485.934545 231.634944 
L 489.992727 231.725664 
L 494.050909 231.781608 
L 498.109091 231.801264 
" clip-path="url(#p32c44d8fd4)" style="fill: none; stroke: #000000; stroke-opacity: 0.5; stroke-linecap: square"/>
   </g>
   <g id="line2d_19">
    <path d="M 92.290909 256.850568 
L 96.349091 256.808232 
L 100.407273 256.681224 
L 104.465455 256.475592 
L 108.523636 256.198896 
L 112.581818 255.857184 
L 116.64 255.458016 
L 120.698182 255.008952 
L 124.756364 254.51604 
L 128.814545 253.982304 
L 132.872727 253.41228 
L 136.930909 252.810504 
L 140.989091 252.178488 
L 145.047273 251.519256 
L 149.105455 250.83432 
L 153.163636 250.126704 
L 157.221818 249.396408 
L 161.28 248.644944 
L 165.338182 247.875336 
L 169.396364 247.089096 
L 173.454545 246.287736 
L 177.512727 245.469744 
L 181.570909 244.639656 
L 185.629091 243.797472 
L 189.687273 242.946216 
L 193.745455 242.085888 
L 197.803636 241.218 
L 201.861818 240.344064 
L 205.92 239.465592 
L 209.978182 238.585608 
L 214.036364 237.704112 
L 218.094545 236.82564 
L 222.152727 235.94868 
L 226.210909 235.076256 
L 230.269091 234.211392 
L 234.327273 233.3556 
L 238.385455 232.510392 
L 242.443636 231.678792 
L 246.501818 230.862312 
L 250.56 230.063976 
L 254.618182 229.285296 
L 258.676364 228.529296 
L 262.734545 227.797488 
L 266.792727 227.092896 
L 270.850909 226.417032 
L 274.909091 225.774432 
L 278.967273 225.163584 
L 283.025455 224.587512 
L 287.083636 224.04924 
L 291.141818 223.55028 
L 295.2 223.090632 
L 299.258182 222.671808 
L 303.316364 222.29532 
L 307.374545 221.961168 
L 311.432727 221.669352 
L 315.490909 221.419872 
L 319.549091 221.212728 
L 323.607273 221.046408 
L 327.665455 220.922424 
L 331.723636 220.837752 
L 335.781818 220.792392 
L 339.84 220.78332 
L 343.898182 220.810536 
L 347.956364 220.872528 
L 352.014545 220.967784 
L 356.072727 221.09328 
L 360.130909 221.249016 
L 364.189091 221.431968 
L 368.247273 221.640624 
L 372.305455 221.874984 
L 376.363636 222.132024 
L 380.421818 222.410232 
L 384.48 222.709608 
L 388.538182 223.025616 
L 392.596364 223.358256 
L 396.654545 223.707528 
L 400.712727 224.070408 
L 404.770909 224.443872 
L 408.829091 224.829432 
L 412.887273 225.224064 
L 416.945455 225.626256 
L 421.003636 226.032984 
L 425.061818 226.444248 
L 429.12 226.858536 
L 433.178182 227.271312 
L 437.236364 227.681064 
L 441.294545 228.087792 
L 445.352727 228.483936 
L 449.410909 228.871008 
L 453.469091 229.241448 
L 457.527273 229.592232 
L 461.585455 229.9158 
L 465.643636 230.201568 
L 469.701818 230.425344 
L 473.76 230.54328 
L 477.818182 230.517576 
L 481.876364 230.4072 
L 485.934545 230.284728 
L 489.992727 230.184936 
L 494.050909 230.121432 
L 498.109091 230.100264 
" clip-path="url(#p32c44d8fd4)" style="fill: none; stroke: #000000; stroke-opacity: 0.5; stroke-linecap: square"/>
   </g>
   <g id="line2d_20">
    <path d="M 92.290909 146.660544 
L 96.349091 146.659032 
L 100.407273 146.65752 
L 104.465455 146.652984 
L 108.523636 146.651472 
L 112.581818 146.651472 
L 116.64 146.660544 
L 120.698182 146.681712 
L 124.756364 146.728584 
L 128.814545 146.813256 
L 132.872727 146.961432 
L 136.930909 147.206376 
L 140.989091 147.57984 
L 145.047273 148.095432 
L 149.105455 148.735008 
L 153.163636 149.465304 
L 157.221818 150.251544 
L 161.28 151.071048 
L 165.338182 151.905672 
L 169.396364 152.746344 
L 173.454545 153.583992 
L 177.512727 154.41408 
L 181.570909 155.232072 
L 185.629091 156.037968 
L 189.687273 156.82572 
L 193.745455 157.595328 
L 197.803636 158.34528 
L 201.861818 159.072552 
L 205.92 159.777144 
L 209.978182 160.457544 
L 214.036364 161.110728 
L 218.094545 161.736696 
L 222.152727 162.332424 
L 226.210909 162.899424 
L 230.269091 163.43316 
L 234.327273 163.933632 
L 238.385455 164.399328 
L 242.443636 164.828736 
L 246.501818 165.218832 
L 250.56 165.568104 
L 254.618182 165.876552 
L 258.676364 166.141152 
L 262.734545 166.360392 
L 266.792727 166.53276 
L 270.850909 166.656744 
L 274.909091 166.730832 
L 278.967273 166.753512 
L 283.025455 166.723272 
L 287.083636 166.640112 
L 291.141818 166.50252 
L 295.2 166.308984 
L 299.258182 166.062528 
L 303.316364 165.758616 
L 307.374545 165.401784 
L 311.432727 164.99052 
L 315.490909 164.526336 
L 319.549091 164.010744 
L 323.607273 163.446768 
L 327.665455 162.83592 
L 331.723636 162.182736 
L 335.781818 161.49024 
L 339.84 160.76448 
L 343.898182 160.01604 
L 347.956364 159.26004 
L 352.014545 158.53428 
L 356.072727 157.92192 
L 360.130909 157.640688 
L 364.189091 157.97484 
L 368.247273 158.827608 
L 372.305455 159.905664 
L 376.363636 161.06688 
L 380.421818 162.2538 
L 384.48 163.446768 
L 388.538182 164.632176 
L 392.596364 165.805488 
L 396.654545 166.962168 
L 400.712727 168.099192 
L 404.770909 169.215048 
L 408.829091 170.306712 
L 412.887273 171.37116 
L 416.945455 172.409904 
L 421.003636 173.418408 
L 425.061818 174.396672 
L 429.12 175.341672 
L 433.178182 176.251896 
L 437.236364 177.12432 
L 441.294545 177.957432 
L 445.352727 178.74972 
L 449.410909 179.496648 
L 453.469091 180.198216 
L 457.527273 180.849888 
L 461.585455 181.451664 
L 465.643636 181.997496 
L 469.701818 182.485872 
L 473.76 182.91528 
L 477.818182 183.284208 
L 481.876364 183.58812 
L 485.934545 183.827016 
L 489.992727 183.999384 
L 494.050909 184.1022 
L 498.109091 184.136976 
" clip-path="url(#p32c44d8fd4)" style="fill: none; stroke: #000000; stroke-opacity: 0.5; stroke-linecap: square"/>
   </g>
   <g id="line2d_21">
    <path d="M 92.290909 136.339632 
L 96.349091 136.44396 
L 100.407273 136.747872 
L 104.465455 137.227176 
L 108.523636 137.84256 
L 112.581818 138.557736 
L 116.64 139.336416 
L 120.698182 140.146848 
L 124.756364 140.963328 
L 128.814545 141.754104 
L 132.872727 142.485912 
L 136.930909 143.117928 
L 140.989091 143.613864 
L 145.047273 143.957088 
L 149.105455 144.159696 
L 153.163636 144.254952 
L 157.221818 144.274608 
L 161.28 144.239832 
L 165.338182 144.167256 
L 169.396364 144.065952 
L 173.454545 143.940456 
L 177.512727 143.798328 
L 181.570909 143.639568 
L 185.629091 143.4672 
L 189.687273 143.282736 
L 193.745455 143.086176 
L 197.803636 142.880544 
L 201.861818 142.664328 
L 205.92 142.43904 
L 209.978182 142.206192 
L 214.036364 141.964272 
L 218.094545 141.71328 
L 222.152727 141.45624 
L 226.210909 141.193152 
L 230.269091 140.920992 
L 234.327273 140.644296 
L 238.385455 140.36004 
L 242.443636 140.071248 
L 246.501818 139.776408 
L 250.56 139.47552 
L 254.618182 139.171608 
L 258.676364 138.864672 
L 262.734545 138.5532 
L 266.792727 138.240216 
L 270.850909 137.92572 
L 274.909091 137.611224 
L 278.967273 137.301264 
L 283.025455 136.997352 
L 287.083636 136.70856 
L 291.141818 136.448496 
L 295.2 136.251936 
L 299.258182 136.211112 
L 303.316364 136.53468 
L 307.374545 137.384424 
L 311.432727 138.58344 
L 315.490909 139.92156 
L 319.549091 141.311088 
L 323.607273 142.720272 
L 327.665455 144.130968 
L 331.723636 145.535616 
L 335.781818 146.926656 
L 339.84 148.29804 
L 343.898182 149.642208 
L 347.956364 150.941016 
L 352.014545 152.164224 
L 356.072727 153.225648 
L 360.130909 153.91512 
L 364.189091 153.94536 
L 368.247273 153.422208 
L 372.305455 152.640504 
L 376.363636 151.749936 
L 380.421818 150.812496 
L 384.48 149.859936 
L 388.538182 148.919472 
L 392.596364 148.022856 
L 396.654545 147.2094 
L 400.712727 146.541096 
L 404.770909 146.093544 
L 408.829091 145.925712 
L 412.887273 146.036088 
L 416.945455 146.361168 
L 421.003636 146.820816 
L 425.061818 147.354552 
L 429.12 147.92004 
L 433.178182 148.4946 
L 437.236364 149.0616 
L 441.294545 149.611968 
L 445.352727 150.138144 
L 449.410909 150.63408 
L 453.469091 151.099776 
L 457.527273 151.529184 
L 461.585455 151.922304 
L 465.643636 152.277624 
L 469.701818 152.593632 
L 473.76 152.868816 
L 477.818182 153.103176 
L 481.876364 153.2952 
L 485.934545 153.444888 
L 489.992727 153.55224 
L 494.050909 153.617256 
L 498.109091 153.638424 
" clip-path="url(#p32c44d8fd4)" style="fill: none; stroke: #000000; stroke-opacity: 0.5; stroke-linecap: square"/>
   </g>
   <g id="line2d_22">
    <path d="M 92.290909 128.651112 
L 96.349091 128.77056 
L 100.407273 129.017016 
L 104.465455 129.2544 
L 108.523636 129.429792 
L 112.581818 129.538656 
L 116.64 129.588552 
L 120.698182 129.588552 
L 124.756364 129.547728 
L 128.814545 129.472128 
L 132.872727 129.3678 
L 136.930909 129.23928 
L 140.989091 129.085056 
L 145.047273 128.911176 
L 149.105455 128.716128 
L 153.163636 128.502936 
L 157.221818 128.270088 
L 161.28 128.020608 
L 165.338182 127.752984 
L 169.396364 127.468728 
L 173.454545 127.16784 
L 177.512727 126.85032 
L 181.570909 126.516168 
L 185.629091 126.166896 
L 189.687273 125.800992 
L 193.745455 125.419968 
L 197.803636 125.023824 
L 201.861818 124.611048 
L 205.92 124.184664 
L 209.978182 123.744672 
L 214.036364 123.291072 
L 218.094545 122.823864 
L 222.152727 122.34456 
L 226.210909 121.856184 
L 230.269091 121.358736 
L 234.327273 120.856752 
L 238.385455 120.357792 
L 242.443636 119.870928 
L 246.501818 119.421864 
L 250.56 119.06352 
L 254.618182 118.924416 
L 258.676364 119.240424 
L 262.734545 120.115872 
L 266.792727 121.351176 
L 270.850909 122.743728 
L 274.909091 124.202808 
L 278.967273 125.68608 
L 283.025455 127.1754 
L 287.083636 128.652624 
L 291.141818 130.098096 
L 295.2 131.474016 
L 299.258182 132.68664 
L 303.316364 133.528824 
L 307.374545 133.834248 
L 311.432727 133.781328 
L 315.490909 133.57872 
L 319.549091 133.312608 
L 323.607273 133.01928 
L 327.665455 132.710832 
L 331.723636 132.397848 
L 335.781818 132.086376 
L 339.84 131.782464 
L 343.898182 131.49216 
L 347.956364 131.230584 
L 352.014545 131.020416 
L 356.072727 130.91004 
L 360.130909 130.997736 
L 364.189091 131.407488 
L 368.247273 132.130224 
L 372.305455 133.02684 
L 376.363636 133.98696 
L 380.421818 134.951616 
L 384.48 135.886032 
L 388.538182 136.764504 
L 392.596364 137.55528 
L 396.654545 138.22056 
L 400.712727 138.698352 
L 404.770909 138.91608 
L 408.829091 138.814776 
L 412.887273 138.398976 
L 416.945455 137.733696 
L 421.003636 136.900584 
L 425.061818 135.963144 
L 429.12 134.966736 
L 433.178182 133.935552 
L 437.236364 132.892272 
L 441.294545 131.848992 
L 445.352727 130.817808 
L 449.410909 129.810816 
L 453.469091 128.835576 
L 457.527273 127.905696 
L 461.585455 127.033272 
L 465.643636 126.233424 
L 469.701818 125.521272 
L 473.76 124.916472 
L 477.818182 124.432632 
L 481.876364 124.0758 
L 485.934545 123.829344 
L 489.992727 123.673608 
L 494.050909 123.587424 
L 498.109091 123.560208 
" clip-path="url(#p32c44d8fd4)" style="fill: none; stroke: #000000; stroke-opacity: 0.5; stroke-linecap: square"/>
   </g>
   <g id="line2d_23">
    <path d="M 92.290909 126.224352 
L 96.349091 125.974872 
L 100.407273 125.347392 
L 104.465455 124.503696 
L 108.523636 123.529968 
L 112.581818 122.470056 
L 116.64 121.343616 
L 120.698182 120.168792 
L 124.756364 118.954656 
L 128.814545 117.707256 
L 132.872727 116.431128 
L 136.930909 115.13232 
L 140.989091 113.810832 
L 145.047273 112.4712 
L 149.105455 111.113424 
L 153.163636 109.740528 
L 157.221818 108.352512 
L 161.28 106.9524 
L 165.338182 105.540192 
L 169.396364 104.115888 
L 173.454545 102.684024 
L 177.512727 101.2446 
L 181.570909 99.80064 
L 185.629091 98.35668 
L 189.687273 96.926328 
L 193.745455 95.550408 
L 197.803636 94.464792 
L 201.861818 94.75812 
L 205.92 96.131016 
L 209.978182 97.694424 
L 214.036364 99.300168 
L 218.094545 100.918008 
L 222.152727 102.538872 
L 226.210909 104.156712 
L 230.269091 105.766992 
L 234.327273 107.363664 
L 238.385455 108.94068 
L 242.443636 110.487456 
L 246.501818 111.976776 
L 250.56 113.357232 
L 254.618182 114.498792 
L 258.676364 115.167096 
L 262.734545 115.256304 
L 266.792727 114.969024 
L 270.850909 114.506352 
L 274.909091 113.96052 
L 278.967273 113.375376 
L 283.025455 112.776624 
L 287.083636 112.185432 
L 291.141818 111.636576 
L 295.2 111.189024 
L 299.258182 110.956176 
L 303.316364 111.124008 
L 307.374545 111.789288 
L 311.432727 112.82652 
L 315.490909 114.057288 
L 319.549091 115.375752 
L 323.607273 116.732016 
L 327.665455 118.09584 
L 331.723636 119.45664 
L 335.781818 120.799296 
L 339.84 122.119272 
L 343.898182 123.404472 
L 347.956364 124.641288 
L 352.014545 125.805528 
L 356.072727 126.844272 
L 360.130909 127.657728 
L 364.189091 128.123424 
L 368.247273 128.244384 
L 372.305455 128.1582 
L 376.363636 127.972224 
L 380.421818 127.737864 
L 384.48 127.479312 
L 388.538182 127.210176 
L 392.596364 126.934992 
L 396.654545 126.66132 
L 400.712727 126.38916 
L 404.770909 126.121536 
L 408.829091 125.858448 
L 412.887273 125.601408 
L 416.945455 125.351928 
L 421.003636 125.110008 
L 425.061818 124.87716 
L 429.12 124.651872 
L 433.178182 124.434144 
L 437.236364 124.227 
L 441.294545 124.027416 
L 445.352727 123.836904 
L 449.410909 123.653952 
L 453.469091 123.475536 
L 457.527273 123.303168 
L 461.585455 123.132312 
L 465.643636 122.95692 
L 469.701818 122.770944 
L 473.76 122.566824 
L 477.818182 122.340024 
L 481.876364 122.099616 
L 485.934545 121.866768 
L 489.992727 121.673232 
L 494.050909 121.546224 
L 498.109091 121.502376 
" clip-path="url(#p32c44d8fd4)" style="fill: none; stroke: #000000; stroke-opacity: 0.5; stroke-linecap: square"/>
   </g>
   <g id="patch_3">
    <path d="M 72 384.48 
L 72 51.84 
" style="fill: none; stroke: #000000; stroke-width: 0.8; stroke-linejoin: miter; stroke-linecap: square"/>
   </g>
   <g id="patch_4">
    <path d="M 518.4 384.48 
L 518.4 51.84 
" style="fill: none; stroke: #000000; stroke-width: 0.8; stroke-linejoin: miter; stroke-linecap: square"/>
   </g>
   <g id="patch_5">
    <path d="M 72 384.48 
L 518.4 384.48 
" style="fill: none; stroke: #000000; stroke-width: 0.8; stroke-linejoin: miter; stroke-linecap: square"/>
   </g>
   <g id="patch_6">
    <path d="M 72 51.84 
L 518.4 51.84 
" style="fill: none; stroke: #000000; stroke-width: 0.8; stroke-linejoin: miter; stroke-linecap: square"/>
   </g>
  </g>
 </g>
 <defs>
  <clipPath id="p32c44d8fd4">
   <rect x="72" y="51.84" width="446.4" height="332.64"/>
  </clipPath>
 </defs>
</svg>
