<?xml version="1.0" encoding="utf-8" standalone="no"?>
<!DOCTYPE svg PUBLIC "-//W3C//DTD SVG 1.1//EN"
  "http://www.w3.org/Graphics/SVG/1.1/DTD/svg11.dtd">
<svg xmlns:xlink="http://www.w3.org/1999/xlink" width="576pt" height="432pt" viewBox="0 0 576 432" xmlns="http://www.w3.org/2000/svg" version="1.1">
 <metadata>
  <rdf:RDF xmlns:dc="http://purl.org/dc/elements/1.1/" xmlns:cc="http://creativecommons.org/ns#" xmlns:rdf="http://www.w3.org/1999/02/22-rdf-syntax-ns#">
   <cc:Work>
    <dc:type rdf:resource="http://purl.org/dc/dcmitype/StillImage"/>
    <dc:date>2023-05-04T15:21:50.056624</dc:date>
    <dc:format>image/svg+xml</dc:format>
    <dc:creator>
     <cc:Agent>
      <dc:title>Matplotlib v3.7.1, https://matplotlib.org/</dc:title>
     </cc:Agent>
    </dc:creator>
   </cc:Work>
  </rdf:RDF>
 </metadata>
 <defs>
  <style type="text/css">*{stroke-linejoin: round; stroke-linecap: butt}</style>
 </defs>
 <g id="figure_1">
  <g id="patch_1">
   <path d="M 0 432 
L 576 432 
L 576 0 
L 0 0 
z
" style="fill: #ffffff"/>
  </g>
  <g id="axes_1">
   <g id="patch_2">
    <path d="M 72 384.48 
L 518.4 384.48 
L 518.4 51.84 
L 72 51.84 
z
" style="fill: #ffffff"/>
   </g>
   <g id="matplotlib.axis_1">
    <g id="xtick_1">
     <g id="line2d_1">
      <defs>
       <path id="me1bcdb60b5" d="M 0 0 
L 0 3.5 
" style="stroke: #000000; stroke-width: 0.8"/>
      </defs>
      <g>
       <use xlink:href="#me1bcdb60b5" x="92.290909" y="384.48" style="stroke: #000000; stroke-width: 0.8"/>
      </g>
     </g>
     <g id="text_1">
      <!-- 0.0 -->
      <g transform="translate(84.339347 399.078438) scale(0.1 -0.1)">
       <defs>
        <path id="DejaVuSans-30" d="M 2034 4250 
Q 1547 4250 1301 3770 
Q 1056 3291 1056 2328 
Q 1056 1369 1301 889 
Q 1547 409 2034 409 
Q 2525 409 2770 889 
Q 3016 1369 3016 2328 
Q 3016 3291 2770 3770 
Q 2525 4250 2034 4250 
z
M 2034 4750 
Q 2819 4750 3233 4129 
Q 3647 3509 3647 2328 
Q 3647 1150 3233 529 
Q 2819 -91 2034 -91 
Q 1250 -91 836 529 
Q 422 1150 422 2328 
Q 422 3509 836 4129 
Q 1250 4750 2034 4750 
z
" transform="scale(0.015625)"/>
        <path id="DejaVuSans-2e" d="M 684 794 
L 1344 794 
L 1344 0 
L 684 0 
L 684 794 
z
" transform="scale(0.015625)"/>
       </defs>
       <use xlink:href="#DejaVuSans-30"/>
       <use xlink:href="#DejaVuSans-2e" x="63.623047"/>
       <use xlink:href="#DejaVuSans-30" x="95.410156"/>
      </g>
     </g>
    </g>
    <g id="xtick_2">
     <g id="line2d_2">
      <g>
       <use xlink:href="#me1bcdb60b5" x="173.454545" y="384.48" style="stroke: #000000; stroke-width: 0.8"/>
      </g>
     </g>
     <g id="text_2">
      <!-- 0.2 -->
      <g transform="translate(165.502983 399.078438) scale(0.1 -0.1)">
       <defs>
        <path id="DejaVuSans-32" d="M 1228 531 
L 3431 531 
L 3431 0 
L 469 0 
L 469 531 
Q 828 903 1448 1529 
Q 2069 2156 2228 2338 
Q 2531 2678 2651 2914 
Q 2772 3150 2772 3378 
Q 2772 3750 2511 3984 
Q 2250 4219 1831 4219 
Q 1534 4219 1204 4116 
Q 875 4013 500 3803 
L 500 4441 
Q 881 4594 1212 4672 
Q 1544 4750 1819 4750 
Q 2544 4750 2975 4387 
Q 3406 4025 3406 3419 
Q 3406 3131 3298 2873 
Q 3191 2616 2906 2266 
Q 2828 2175 2409 1742 
Q 1991 1309 1228 531 
z
" transform="scale(0.015625)"/>
       </defs>
       <use xlink:href="#DejaVuSans-30"/>
       <use xlink:href="#DejaVuSans-2e" x="63.623047"/>
       <use xlink:href="#DejaVuSans-32" x="95.410156"/>
      </g>
     </g>
    </g>
    <g id="xtick_3">
     <g id="line2d_3">
      <g>
       <use xlink:href="#me1bcdb60b5" x="254.618182" y="384.48" style="stroke: #000000; stroke-width: 0.8"/>
      </g>
     </g>
     <g id="text_3">
      <!-- 0.4 -->
      <g transform="translate(246.666619 399.078438) scale(0.1 -0.1)">
       <defs>
        <path id="DejaVuSans-34" d="M 2419 4116 
L 825 1625 
L 2419 1625 
L 2419 4116 
z
M 2253 4666 
L 3047 4666 
L 3047 1625 
L 3713 1625 
L 3713 1100 
L 3047 1100 
L 3047 0 
L 2419 0 
L 2419 1100 
L 313 1100 
L 313 1709 
L 2253 4666 
z
" transform="scale(0.015625)"/>
       </defs>
       <use xlink:href="#DejaVuSans-30"/>
       <use xlink:href="#DejaVuSans-2e" x="63.623047"/>
       <use xlink:href="#DejaVuSans-34" x="95.410156"/>
      </g>
     </g>
    </g>
    <g id="xtick_4">
     <g id="line2d_4">
      <g>
       <use xlink:href="#me1bcdb60b5" x="335.781818" y="384.48" style="stroke: #000000; stroke-width: 0.8"/>
      </g>
     </g>
     <g id="text_4">
      <!-- 0.6 -->
      <g transform="translate(327.830256 399.078438) scale(0.1 -0.1)">
       <defs>
        <path id="DejaVuSans-36" d="M 2113 2584 
Q 1688 2584 1439 2293 
Q 1191 2003 1191 1497 
Q 1191 994 1439 701 
Q 1688 409 2113 409 
Q 2538 409 2786 701 
Q 3034 994 3034 1497 
Q 3034 2003 2786 2293 
Q 2538 2584 2113 2584 
z
M 3366 4563 
L 3366 3988 
Q 3128 4100 2886 4159 
Q 2644 4219 2406 4219 
Q 1781 4219 1451 3797 
Q 1122 3375 1075 2522 
Q 1259 2794 1537 2939 
Q 1816 3084 2150 3084 
Q 2853 3084 3261 2657 
Q 3669 2231 3669 1497 
Q 3669 778 3244 343 
Q 2819 -91 2113 -91 
Q 1303 -91 875 529 
Q 447 1150 447 2328 
Q 447 3434 972 4092 
Q 1497 4750 2381 4750 
Q 2619 4750 2861 4703 
Q 3103 4656 3366 4563 
z
" transform="scale(0.015625)"/>
       </defs>
       <use xlink:href="#DejaVuSans-30"/>
       <use xlink:href="#DejaVuSans-2e" x="63.623047"/>
       <use xlink:href="#DejaVuSans-36" x="95.410156"/>
      </g>
     </g>
    </g>
    <g id="xtick_5">
     <g id="line2d_5">
      <g>
       <use xlink:href="#me1bcdb60b5" x="416.945455" y="384.48" style="stroke: #000000; stroke-width: 0.8"/>
      </g>
     </g>
     <g id="text_5">
      <!-- 0.8 -->
      <g transform="translate(408.993892 399.078438) scale(0.1 -0.1)">
       <defs>
        <path id="DejaVuSans-38" d="M 2034 2216 
Q 1584 2216 1326 1975 
Q 1069 1734 1069 1313 
Q 1069 891 1326 650 
Q 1584 409 2034 409 
Q 2484 409 2743 651 
Q 3003 894 3003 1313 
Q 3003 1734 2745 1975 
Q 2488 2216 2034 2216 
z
M 1403 2484 
Q 997 2584 770 2862 
Q 544 3141 544 3541 
Q 544 4100 942 4425 
Q 1341 4750 2034 4750 
Q 2731 4750 3128 4425 
Q 3525 4100 3525 3541 
Q 3525 3141 3298 2862 
Q 3072 2584 2669 2484 
Q 3125 2378 3379 2068 
Q 3634 1759 3634 1313 
Q 3634 634 3220 271 
Q 2806 -91 2034 -91 
Q 1263 -91 848 271 
Q 434 634 434 1313 
Q 434 1759 690 2068 
Q 947 2378 1403 2484 
z
M 1172 3481 
Q 1172 3119 1398 2916 
Q 1625 2713 2034 2713 
Q 2441 2713 2670 2916 
Q 2900 3119 2900 3481 
Q 2900 3844 2670 4047 
Q 2441 4250 2034 4250 
Q 1625 4250 1398 4047 
Q 1172 3844 1172 3481 
z
" transform="scale(0.015625)"/>
       </defs>
       <use xlink:href="#DejaVuSans-30"/>
       <use xlink:href="#DejaVuSans-2e" x="63.623047"/>
       <use xlink:href="#DejaVuSans-38" x="95.410156"/>
      </g>
     </g>
    </g>
    <g id="xtick_6">
     <g id="line2d_6">
      <g>
       <use xlink:href="#me1bcdb60b5" x="498.109091" y="384.48" style="stroke: #000000; stroke-width: 0.8"/>
      </g>
     </g>
     <g id="text_6">
      <!-- 1.0 -->
      <g transform="translate(490.157528 399.078438) scale(0.1 -0.1)">
       <defs>
        <path id="DejaVuSans-31" d="M 794 531 
L 1825 531 
L 1825 4091 
L 703 3866 
L 703 4441 
L 1819 4666 
L 2450 4666 
L 2450 531 
L 3481 531 
L 3481 0 
L 794 0 
L 794 531 
z
" transform="scale(0.015625)"/>
       </defs>
       <use xlink:href="#DejaVuSans-31"/>
       <use xlink:href="#DejaVuSans-2e" x="63.623047"/>
       <use xlink:href="#DejaVuSans-30" x="95.410156"/>
      </g>
     </g>
    </g>
   </g>
   <g id="matplotlib.axis_2">
    <g id="ytick_1">
     <g id="line2d_7">
      <defs>
       <path id="mf0d7466d06" d="M 0 0 
L -3.5 0 
" style="stroke: #000000; stroke-width: 0.8"/>
      </defs>
      <g>
       <use xlink:href="#mf0d7466d06" x="72" y="369.36" style="stroke: #000000; stroke-width: 0.8"/>
      </g>
     </g>
     <g id="text_7">
      <!-- −5.0 -->
      <g transform="translate(40.717187 373.159219) scale(0.1 -0.1)">
       <defs>
        <path id="DejaVuSans-2212" d="M 678 2272 
L 4684 2272 
L 4684 1741 
L 678 1741 
L 678 2272 
z
" transform="scale(0.015625)"/>
        <path id="DejaVuSans-35" d="M 691 4666 
L 3169 4666 
L 3169 4134 
L 1269 4134 
L 1269 2991 
Q 1406 3038 1543 3061 
Q 1681 3084 1819 3084 
Q 2600 3084 3056 2656 
Q 3513 2228 3513 1497 
Q 3513 744 3044 326 
Q 2575 -91 1722 -91 
Q 1428 -91 1123 -41 
Q 819 9 494 109 
L 494 744 
Q 775 591 1075 516 
Q 1375 441 1709 441 
Q 2250 441 2565 725 
Q 2881 1009 2881 1497 
Q 2881 1984 2565 2268 
Q 2250 2553 1709 2553 
Q 1456 2553 1204 2497 
Q 953 2441 691 2322 
L 691 4666 
z
" transform="scale(0.015625)"/>
       </defs>
       <use xlink:href="#DejaVuSans-2212"/>
       <use xlink:href="#DejaVuSans-35" x="83.789062"/>
       <use xlink:href="#DejaVuSans-2e" x="147.412109"/>
       <use xlink:href="#DejaVuSans-30" x="179.199219"/>
      </g>
     </g>
    </g>
    <g id="ytick_2">
     <g id="line2d_8">
      <g>
       <use xlink:href="#mf0d7466d06" x="72" y="331.56" style="stroke: #000000; stroke-width: 0.8"/>
      </g>
     </g>
     <g id="text_8">
      <!-- −2.5 -->
      <g transform="translate(40.717187 335.359219) scale(0.1 -0.1)">
       <use xlink:href="#DejaVuSans-2212"/>
       <use xlink:href="#DejaVuSans-32" x="83.789062"/>
       <use xlink:href="#DejaVuSans-2e" x="147.412109"/>
       <use xlink:href="#DejaVuSans-35" x="179.199219"/>
      </g>
     </g>
    </g>
    <g id="ytick_3">
     <g id="line2d_9">
      <g>
       <use xlink:href="#mf0d7466d06" x="72" y="293.76" style="stroke: #000000; stroke-width: 0.8"/>
      </g>
     </g>
     <g id="text_9">
      <!-- 0.0 -->
      <g transform="translate(49.096875 297.559219) scale(0.1 -0.1)">
       <use xlink:href="#DejaVuSans-30"/>
       <use xlink:href="#DejaVuSans-2e" x="63.623047"/>
       <use xlink:href="#DejaVuSans-30" x="95.410156"/>
      </g>
     </g>
    </g>
    <g id="ytick_4">
     <g id="line2d_10">
      <g>
       <use xlink:href="#mf0d7466d06" x="72" y="255.96" style="stroke: #000000; stroke-width: 0.8"/>
      </g>
     </g>
     <g id="text_10">
      <!-- 2.5 -->
      <g transform="translate(49.096875 259.759219) scale(0.1 -0.1)">
       <use xlink:href="#DejaVuSans-32"/>
       <use xlink:href="#DejaVuSans-2e" x="63.623047"/>
       <use xlink:href="#DejaVuSans-35" x="95.410156"/>
      </g>
     </g>
    </g>
    <g id="ytick_5">
     <g id="line2d_11">
      <g>
       <use xlink:href="#mf0d7466d06" x="72" y="218.16" style="stroke: #000000; stroke-width: 0.8"/>
      </g>
     </g>
     <g id="text_11">
      <!-- 5.0 -->
      <g transform="translate(49.096875 221.959219) scale(0.1 -0.1)">
       <use xlink:href="#DejaVuSans-35"/>
       <use xlink:href="#DejaVuSans-2e" x="63.623047"/>
       <use xlink:href="#DejaVuSans-30" x="95.410156"/>
      </g>
     </g>
    </g>
    <g id="ytick_6">
     <g id="line2d_12">
      <g>
       <use xlink:href="#mf0d7466d06" x="72" y="180.36" style="stroke: #000000; stroke-width: 0.8"/>
      </g>
     </g>
     <g id="text_12">
      <!-- 7.5 -->
      <g transform="translate(49.096875 184.159219) scale(0.1 -0.1)">
       <defs>
        <path id="DejaVuSans-37" d="M 525 4666 
L 3525 4666 
L 3525 4397 
L 1831 0 
L 1172 0 
L 2766 4134 
L 525 4134 
L 525 4666 
z
" transform="scale(0.015625)"/>
       </defs>
       <use xlink:href="#DejaVuSans-37"/>
       <use xlink:href="#DejaVuSans-2e" x="63.623047"/>
       <use xlink:href="#DejaVuSans-35" x="95.410156"/>
      </g>
     </g>
    </g>
    <g id="ytick_7">
     <g id="line2d_13">
      <g>
       <use xlink:href="#mf0d7466d06" x="72" y="142.56" style="stroke: #000000; stroke-width: 0.8"/>
      </g>
     </g>
     <g id="text_13">
      <!-- 10.0 -->
      <g transform="translate(42.734375 146.359219) scale(0.1 -0.1)">
       <use xlink:href="#DejaVuSans-31"/>
       <use xlink:href="#DejaVuSans-30" x="63.623047"/>
       <use xlink:href="#DejaVuSans-2e" x="127.246094"/>
       <use xlink:href="#DejaVuSans-30" x="159.033203"/>
      </g>
     </g>
    </g>
    <g id="ytick_8">
     <g id="line2d_14">
      <g>
       <use xlink:href="#mf0d7466d06" x="72" y="104.76" style="stroke: #000000; stroke-width: 0.8"/>
      </g>
     </g>
     <g id="text_14">
      <!-- 12.5 -->
      <g transform="translate(42.734375 108.559219) scale(0.1 -0.1)">
       <use xlink:href="#DejaVuSans-31"/>
       <use xlink:href="#DejaVuSans-32" x="63.623047"/>
       <use xlink:href="#DejaVuSans-2e" x="127.246094"/>
       <use xlink:href="#DejaVuSans-35" x="159.033203"/>
      </g>
     </g>
    </g>
    <g id="ytick_9">
     <g id="line2d_15">
      <g>
       <use xlink:href="#mf0d7466d06" x="72" y="66.96" style="stroke: #000000; stroke-width: 0.8"/>
      </g>
     </g>
     <g id="text_15">
      <!-- 15.0 -->
      <g transform="translate(42.734375 70.759219) scale(0.1 -0.1)">
       <use xlink:href="#DejaVuSans-31"/>
       <use xlink:href="#DejaVuSans-35" x="63.623047"/>
       <use xlink:href="#DejaVuSans-2e" x="127.246094"/>
       <use xlink:href="#DejaVuSans-30" x="159.033203"/>
      </g>
     </g>
    </g>
   </g>
   <g id="line2d_16">
    <path d="M 92.290909 319.114728 
L 96.349091 319.370256 
L 100.407273 319.946328 
L 104.465455 320.641848 
L 108.523636 321.38424 
L 112.581818 322.150824 
L 116.64 322.927992 
L 120.698182 323.714232 
L 124.756364 324.505008 
L 128.814545 325.297296 
L 132.872727 326.092608 
L 136.930909 326.889432 
L 140.989091 327.684744 
L 145.047273 328.481568 
L 149.105455 329.275368 
L 153.163636 330.069168 
L 157.221818 330.861456 
L 161.28 331.652232 
L 165.338182 332.439984 
L 169.396364 333.224712 
L 173.454545 334.006416 
L 177.512727 334.783584 
L 181.570909 335.557728 
L 185.629091 336.328848 
L 189.687273 337.09392 
L 193.745455 337.854456 
L 197.803636 338.611968 
L 201.861818 339.36192 
L 205.92 340.107336 
L 209.978182 340.846704 
L 214.036364 341.581536 
L 218.094545 342.308808 
L 222.152727 343.02852 
L 226.210909 343.743696 
L 230.269091 344.451312 
L 234.327273 345.151368 
L 238.385455 345.843864 
L 242.443636 346.5288 
L 246.501818 347.206176 
L 250.56 347.875992 
L 254.618182 348.538248 
L 258.676364 349.191432 
L 262.734545 349.835544 
L 266.792727 350.472096 
L 270.850909 351.099576 
L 274.909091 351.717984 
L 278.967273 352.328832 
L 283.025455 352.929096 
L 287.083636 353.520288 
L 291.141818 354.100896 
L 295.2 354.673944 
L 299.258182 355.236408 
L 303.316364 355.788288 
L 307.374545 356.331096 
L 311.432727 356.864832 
L 315.490909 357.386472 
L 319.549091 357.89904 
L 323.607273 358.401024 
L 327.665455 358.892424 
L 331.723636 359.374752 
L 335.781818 359.844984 
L 339.84 360.304632 
L 343.898182 360.753696 
L 347.956364 361.192176 
L 352.014545 361.620072 
L 356.072727 362.035872 
L 360.130909 362.441088 
L 364.189091 362.83572 
L 368.247273 363.219768 
L 372.305455 363.59172 
L 376.363636 363.951576 
L 380.421818 364.300848 
L 384.48 364.639536 
L 388.538182 364.966128 
L 392.596364 365.280624 
L 396.654545 365.584536 
L 400.712727 365.876352 
L 404.770909 366.156072 
L 408.829091 366.425208 
L 412.887273 366.682248 
L 416.945455 366.927192 
L 421.003636 367.16004 
L 425.061818 367.382304 
L 429.12 367.592472 
L 433.178182 367.790544 
L 437.236364 367.97652 
L 441.294545 368.1504 
L 445.352727 368.312184 
L 449.410909 368.463384 
L 453.469091 368.600976 
L 457.527273 368.727984 
L 461.585455 368.842896 
L 465.643636 368.945712 
L 469.701818 369.03492 
L 473.76 369.113544 
L 477.818182 369.180072 
L 481.876364 369.234504 
L 485.934545 369.27684 
L 489.992727 369.30708 
L 494.050909 369.325224 
L 498.109091 369.331272 
" clip-path="url(#pae4858eb42)" style="fill: none; stroke: #000000; stroke-opacity: 0.5; stroke-linecap: square"/>
   </g>
   <g id="line2d_17">
    <path d="M 92.290909 316.890576 
L 96.349091 316.63656 
L 100.407273 316.066536 
L 104.465455 315.383112 
L 108.523636 314.654328 
L 112.581818 313.9074 
L 116.64 313.152912 
L 120.698182 312.393888 
L 124.756364 311.634864 
L 128.814545 310.87584 
L 132.872727 310.118328 
L 136.930909 309.362328 
L 140.989091 308.609352 
L 145.047273 307.857888 
L 149.105455 307.109448 
L 153.163636 306.364032 
L 157.221818 305.62164 
L 161.28 304.882272 
L 165.338182 304.145928 
L 169.396364 303.411096 
L 173.454545 302.6808 
L 177.512727 301.950504 
L 181.570909 301.224744 
L 185.629091 300.498984 
L 189.687273 299.776248 
L 193.745455 299.056536 
L 197.803636 298.336824 
L 201.861818 297.618624 
L 205.92 296.901936 
L 209.978182 296.185248 
L 214.036364 295.470072 
L 218.094545 294.754896 
L 222.152727 294.03972 
L 226.210909 293.324544 
L 230.269091 292.609368 
L 234.327273 291.894192 
L 238.385455 291.177504 
L 242.443636 290.460816 
L 246.501818 289.742616 
L 250.56 289.021392 
L 254.618182 288.300168 
L 258.676364 287.577432 
L 262.734545 286.853184 
L 266.792727 286.125912 
L 270.850909 285.397128 
L 274.909091 284.66532 
L 278.967273 283.932 
L 283.025455 283.195656 
L 287.083636 282.456288 
L 291.141818 281.713896 
L 295.2 280.969992 
L 299.258182 280.223064 
L 303.316364 279.4716 
L 307.374545 278.718624 
L 311.432727 277.962624 
L 315.490909 277.2036 
L 319.549091 276.441552 
L 323.607273 275.67648 
L 327.665455 274.909896 
L 331.723636 274.138776 
L 335.781818 273.366144 
L 339.84 272.590488 
L 343.898182 271.81332 
L 347.956364 271.033128 
L 352.014545 270.251424 
L 356.072727 269.468208 
L 360.130909 268.68348 
L 364.189091 267.89724 
L 368.247273 267.109488 
L 372.305455 266.321736 
L 376.363636 265.533984 
L 380.421818 264.746232 
L 384.48 263.959992 
L 388.538182 263.173752 
L 392.596364 262.389024 
L 396.654545 261.608832 
L 400.712727 260.830152 
L 404.770909 260.056008 
L 408.829091 259.2864 
L 412.887273 258.52284 
L 416.945455 257.76684 
L 421.003636 257.0184 
L 425.061818 256.279032 
L 429.12 255.55176 
L 433.178182 254.838096 
L 437.236364 254.13804 
L 441.294545 253.456128 
L 445.352727 252.793872 
L 449.410909 252.154296 
L 453.469091 251.540424 
L 457.527273 250.95528 
L 461.585455 250.404912 
L 465.643636 249.892344 
L 469.701818 249.422112 
L 473.76 248.998752 
L 477.818182 248.629824 
L 481.876364 248.318352 
L 485.934545 248.070384 
L 489.992727 247.890456 
L 494.050909 247.78008 
L 498.109091 247.743792 
" clip-path="url(#pae4858eb42)" style="fill: none; stroke: #000000; stroke-opacity: 0.5; stroke-linecap: square"/>
   </g>
   <g id="line2d_18">
    <path d="M 92.290909 261.094752 
L 96.349091 261.147672 
L 100.407273 261.291312 
L 104.465455 261.490896 
L 108.523636 261.714672 
L 112.581818 261.946008 
L 116.64 262.17432 
L 120.698182 262.392048 
L 124.756364 262.59768 
L 128.814545 262.78668 
L 132.872727 262.957536 
L 136.930909 263.11176 
L 140.989091 263.246328 
L 145.047273 263.362752 
L 149.105455 263.45952 
L 153.163636 263.536632 
L 157.221818 263.5956 
L 161.28 263.6334 
L 165.338182 263.654568 
L 169.396364 263.654568 
L 173.454545 263.636424 
L 177.512727 263.600136 
L 181.570909 263.544192 
L 185.629091 263.471616 
L 189.687273 263.379384 
L 193.745455 263.269008 
L 197.803636 263.142 
L 201.861818 262.996848 
L 205.92 262.833552 
L 209.978182 262.653624 
L 214.036364 262.457064 
L 218.094545 262.24236 
L 222.152727 262.012536 
L 226.210909 261.76608 
L 230.269091 261.502992 
L 234.327273 261.223272 
L 238.385455 260.928432 
L 242.443636 260.618472 
L 246.501818 260.29188 
L 250.56 259.95168 
L 254.618182 259.594848 
L 258.676364 259.224408 
L 262.734545 258.838848 
L 266.792727 258.43968 
L 270.850909 258.025392 
L 274.909091 257.597496 
L 278.967273 257.155992 
L 283.025455 256.70088 
L 287.083636 256.233672 
L 291.141818 255.751344 
L 295.2 255.258432 
L 299.258182 254.751912 
L 303.316364 254.231784 
L 307.374545 253.701072 
L 311.432727 253.158264 
L 315.490909 252.604872 
L 319.549091 252.039384 
L 323.607273 251.463312 
L 327.665455 250.876656 
L 331.723636 250.279416 
L 335.781818 249.671592 
L 339.84 249.056208 
L 343.898182 248.43024 
L 347.956364 247.796712 
L 352.014545 247.154112 
L 356.072727 246.503952 
L 360.130909 245.847744 
L 364.189091 245.182464 
L 368.247273 244.512648 
L 372.305455 243.838296 
L 376.363636 243.157896 
L 380.421818 242.47296 
L 384.48 241.786512 
L 388.538182 241.09704 
L 392.596364 240.406056 
L 396.654545 239.71356 
L 400.712727 239.022576 
L 404.770909 238.334616 
L 408.829091 237.648168 
L 412.887273 236.967768 
L 416.945455 236.293416 
L 421.003636 235.626624 
L 425.061818 234.970416 
L 429.12 234.324792 
L 433.178182 233.694288 
L 437.236364 233.078904 
L 441.294545 232.483176 
L 445.352727 231.908616 
L 449.410909 231.35976 
L 453.469091 230.836608 
L 457.527273 230.343696 
L 461.585455 229.88556 
L 465.643636 229.463712 
L 469.701818 229.081176 
L 473.76 228.744 
L 477.818182 228.450672 
L 481.876364 228.208752 
L 485.934545 228.016728 
L 489.992727 227.89728 
L 494.050909 227.962296 
L 498.109091 227.991024 
" clip-path="url(#pae4858eb42)" style="fill: none; stroke: #000000; stroke-opacity: 0.5; stroke-linecap: square"/>
   </g>
   <g id="line2d_19">
    <path d="M 92.290909 258.698232 
L 96.349091 258.62112 
L 100.407273 258.410952 
L 104.465455 258.100992 
L 108.523636 257.719968 
L 112.581818 257.287536 
L 116.64 256.815792 
L 120.698182 256.30776 
L 124.756364 255.772512 
L 128.814545 255.208536 
L 132.872727 254.618856 
L 136.930909 254.004984 
L 140.989091 253.368432 
L 145.047273 252.710712 
L 149.105455 252.030312 
L 153.163636 251.331768 
L 157.221818 250.612056 
L 161.28 249.872688 
L 165.338182 249.116688 
L 169.396364 248.344056 
L 173.454545 247.55328 
L 177.512727 246.747384 
L 181.570909 245.926368 
L 185.629091 245.091744 
L 189.687273 244.245024 
L 193.745455 243.386208 
L 197.803636 242.515296 
L 201.861818 241.636824 
L 205.92 240.747768 
L 209.978182 239.852664 
L 214.036364 238.951512 
L 218.094545 238.045824 
L 222.152727 237.1356 
L 226.210909 236.225376 
L 230.269091 235.31364 
L 234.327273 234.404928 
L 238.385455 233.497728 
L 242.443636 232.595064 
L 246.501818 231.701472 
L 250.56 230.813928 
L 254.618182 229.93848 
L 258.676364 229.075128 
L 262.734545 228.226896 
L 266.792727 227.395296 
L 270.850909 226.583352 
L 274.909091 225.792576 
L 278.967273 225.025992 
L 283.025455 224.285112 
L 287.083636 223.57296 
L 291.141818 222.89256 
L 295.2 222.2424 
L 299.258182 221.63004 
L 303.316364 221.052456 
L 307.374545 220.514184 
L 311.432727 220.016736 
L 315.490909 219.561624 
L 319.549091 219.148848 
L 323.607273 218.77992 
L 327.665455 218.456352 
L 331.723636 218.178144 
L 335.781818 217.943784 
L 339.84 217.756296 
L 343.898182 217.611144 
L 347.956364 217.511352 
L 352.014545 217.453896 
L 356.072727 217.437264 
L 360.130909 217.462968 
L 364.189091 217.526472 
L 368.247273 217.627776 
L 372.305455 217.765368 
L 376.363636 217.936224 
L 380.421818 218.138832 
L 384.48 218.373192 
L 388.538182 218.63628 
L 392.596364 218.925072 
L 396.654545 219.239568 
L 400.712727 219.576744 
L 404.770909 219.935088 
L 408.829091 220.311576 
L 412.887273 220.706208 
L 416.945455 221.11596 
L 421.003636 221.53932 
L 425.061818 221.973264 
L 429.12 222.414768 
L 433.178182 222.863832 
L 437.236364 223.31592 
L 441.294545 223.76952 
L 445.352727 224.221608 
L 449.410909 224.667648 
L 453.469091 225.104616 
L 457.527273 225.527976 
L 461.585455 225.934704 
L 465.643636 226.318752 
L 469.701818 226.675584 
L 473.76 227.000664 
L 477.818182 227.287944 
L 481.876364 227.531376 
L 485.934545 227.726424 
L 489.992727 227.850408 
L 494.050909 227.789928 
L 498.109091 227.762712 
" clip-path="url(#pae4858eb42)" style="fill: none; stroke: #000000; stroke-opacity: 0.5; stroke-linecap: square"/>
   </g>
   <g id="line2d_20">
    <path d="M 92.290909 149.943096 
L 96.349091 149.941584 
L 100.407273 149.937048 
L 104.465455 149.929488 
L 108.523636 149.918904 
L 112.581818 149.903784 
L 116.64 149.88564 
L 120.698182 149.86296 
L 124.756364 149.834232 
L 128.814545 149.80248 
L 132.872727 149.76468 
L 136.930909 149.71932 
L 140.989091 149.669424 
L 145.047273 149.61348 
L 149.105455 149.549976 
L 153.163636 149.481936 
L 157.221818 149.404824 
L 161.28 149.324688 
L 165.338182 149.236992 
L 169.396364 149.147784 
L 173.454545 149.0616 
L 177.512727 148.989024 
L 181.570909 148.973904 
L 185.629091 149.146272 
L 189.687273 149.63616 
L 193.745455 150.307488 
L 197.803636 151.039296 
L 201.861818 151.787736 
L 205.92 152.5392 
L 209.978182 153.283104 
L 214.036364 154.017936 
L 218.094545 154.737648 
L 222.152727 155.440728 
L 226.210909 156.125664 
L 230.269091 156.78792 
L 234.327273 157.427496 
L 238.385455 158.044392 
L 242.443636 158.634072 
L 246.501818 159.196536 
L 250.56 159.72876 
L 254.618182 160.232256 
L 258.676364 160.702488 
L 262.734545 161.139456 
L 266.792727 161.540136 
L 270.850909 161.904528 
L 274.909091 162.23112 
L 278.967273 162.515376 
L 283.025455 162.758808 
L 287.083636 162.958392 
L 291.141818 163.112616 
L 295.2 163.219968 
L 299.258182 163.280448 
L 303.316364 163.291032 
L 307.374545 163.25172 
L 311.432727 163.161 
L 315.490909 163.018872 
L 319.549091 162.823824 
L 323.607273 162.577368 
L 327.665455 162.279504 
L 331.723636 161.930232 
L 335.781818 161.531064 
L 339.84 161.082 
L 343.898182 160.587576 
L 347.956364 160.047792 
L 352.014545 159.465672 
L 356.072727 158.847264 
L 360.130909 158.200128 
L 364.189091 157.542408 
L 368.247273 156.951216 
L 372.305455 156.964824 
L 376.363636 157.985424 
L 380.421818 159.223752 
L 384.48 160.489296 
L 388.538182 161.753328 
L 392.596364 163.005264 
L 396.654545 164.239056 
L 400.712727 165.454704 
L 404.770909 166.649184 
L 408.829091 167.820984 
L 412.887273 168.965568 
L 416.945455 170.084448 
L 421.003636 171.1746 
L 425.061818 172.234512 
L 429.12 173.259648 
L 433.178182 174.250008 
L 437.236364 175.20408 
L 441.294545 176.115816 
L 445.352727 176.985216 
L 449.410909 177.809256 
L 453.469091 178.5834 
L 457.527273 179.306136 
L 461.585455 179.972928 
L 465.643636 180.580752 
L 469.701818 181.128096 
L 473.76 181.608912 
L 477.818182 182.021688 
L 481.876364 182.3634 
L 485.934545 182.632536 
L 489.992727 182.826072 
L 494.050909 182.942496 
L 498.109091 182.981808 
" clip-path="url(#pae4858eb42)" style="fill: none; stroke: #000000; stroke-opacity: 0.5; stroke-linecap: square"/>
   </g>
   <g id="line2d_21">
    <path d="M 92.290909 145.358712 
L 96.349091 145.34964 
L 100.407273 145.323936 
L 104.465455 145.283112 
L 108.523636 145.225656 
L 112.581818 145.154592 
L 116.64 145.06992 
L 120.698182 144.976176 
L 124.756364 144.874872 
L 128.814545 144.769032 
L 132.872727 144.664704 
L 136.930909 144.567936 
L 140.989091 144.489312 
L 145.047273 144.440928 
L 149.105455 144.439416 
L 153.163636 144.505944 
L 157.221818 144.66168 
L 161.28 144.924768 
L 165.338182 145.302768 
L 169.396364 145.786608 
L 173.454545 146.352096 
L 177.512727 146.96748 
L 181.570909 147.566232 
L 185.629091 148.001688 
L 189.687273 148.130208 
L 193.745455 148.0788 
L 197.803636 147.959352 
L 201.861818 147.811176 
L 205.92 147.643344 
L 209.978182 147.461904 
L 214.036364 147.26988 
L 218.094545 147.067272 
L 222.152727 146.85408 
L 226.210909 146.633328 
L 230.269091 146.403504 
L 234.327273 146.164608 
L 238.385455 145.919664 
L 242.443636 145.665648 
L 246.501818 145.405584 
L 250.56 145.13796 
L 254.618182 144.864288 
L 258.676364 144.584568 
L 262.734545 144.2988 
L 266.792727 144.008496 
L 270.850909 143.712144 
L 274.909091 143.412768 
L 278.967273 143.11188 
L 283.025455 142.807968 
L 287.083636 142.504056 
L 291.141818 142.201656 
L 295.2 141.903792 
L 299.258182 141.615 
L 303.316364 141.344352 
L 307.374545 141.10092 
L 311.432727 140.910408 
L 315.490909 140.815152 
L 319.549091 140.898312 
L 323.607273 141.2748 
L 327.665455 142.01568 
L 331.723636 143.048376 
L 335.781818 144.254952 
L 339.84 145.550736 
L 343.898182 146.888856 
L 347.956364 148.248144 
L 352.014545 149.61348 
L 356.072727 150.97428 
L 360.130909 152.321472 
L 364.189091 153.636912 
L 368.247273 154.841976 
L 372.305455 155.401416 
L 376.363636 154.916064 
L 380.421818 154.176696 
L 384.48 153.37836 
L 388.538182 152.555832 
L 392.596364 151.725744 
L 396.654545 150.897168 
L 400.712727 150.085224 
L 404.770909 149.30352 
L 408.829091 148.568688 
L 412.887273 147.903408 
L 416.945455 147.331872 
L 421.003636 146.879784 
L 425.061818 146.565288 
L 429.12 146.391408 
L 433.178182 146.349072 
L 437.236364 146.412576 
L 441.294545 146.557728 
L 445.352727 146.7558 
L 449.410909 146.987136 
L 453.469091 147.23208 
L 457.527273 147.480048 
L 461.585455 147.720456 
L 465.643636 147.948768 
L 469.701818 148.157424 
L 473.76 148.344912 
L 477.818182 148.506696 
L 481.876364 148.641264 
L 485.934545 148.747104 
L 489.992727 148.824216 
L 494.050909 148.871088 
L 498.109091 148.886208 
" clip-path="url(#pae4858eb42)" style="fill: none; stroke: #000000; stroke-opacity: 0.5; stroke-linecap: square"/>
   </g>
   <g id="line2d_22">
    <path d="M 92.290909 121.373856 
L 96.349091 122.400504 
L 100.407273 123.610104 
L 104.465455 124.80912 
L 108.523636 125.991504 
L 112.581818 127.155744 
L 116.64 128.298816 
L 120.698182 129.417696 
L 124.756364 130.510872 
L 128.814545 131.573808 
L 132.872727 132.600456 
L 136.930909 133.584768 
L 140.989091 134.517672 
L 145.047273 135.387072 
L 149.105455 136.174824 
L 153.163636 136.861272 
L 157.221818 137.422224 
L 161.28 137.841048 
L 165.338182 138.108672 
L 169.396364 138.231144 
L 173.454545 138.225096 
L 177.512727 138.113208 
L 181.570909 137.91816 
L 185.629091 137.655072 
L 189.687273 137.337552 
L 193.745455 136.976184 
L 197.803636 136.575504 
L 201.861818 136.143072 
L 205.92 135.681912 
L 209.978182 135.195048 
L 214.036364 134.683992 
L 218.094545 134.150256 
L 222.152727 133.596864 
L 226.210909 133.023816 
L 230.269091 132.431112 
L 234.327273 131.820264 
L 238.385455 131.192784 
L 242.443636 130.548672 
L 246.501818 129.887928 
L 250.56 129.213576 
L 254.618182 128.525616 
L 258.676364 127.822536 
L 262.734545 127.110384 
L 266.792727 126.38916 
L 270.850909 125.6634 
L 274.909091 124.948224 
L 278.967273 124.292016 
L 283.025455 124.036488 
L 287.083636 124.995096 
L 291.141818 126.413352 
L 295.2 127.892088 
L 299.258182 129.372336 
L 303.316364 130.831416 
L 307.374545 132.25572 
L 311.432727 133.619544 
L 315.490909 134.877528 
L 319.549091 135.946512 
L 323.607273 136.710072 
L 327.665455 137.100168 
L 331.723636 137.183328 
L 335.781818 137.083536 
L 339.84 136.880928 
L 343.898182 136.623888 
L 347.956364 136.332072 
L 352.014545 136.022112 
L 356.072727 135.698544 
L 360.130909 135.367416 
L 364.189091 135.031752 
L 368.247273 134.696088 
L 372.305455 134.361936 
L 376.363636 134.033832 
L 380.421818 133.716312 
L 384.48 133.438104 
L 388.538182 133.345872 
L 392.596364 133.817616 
L 396.654545 134.505576 
L 400.712727 135.175392 
L 404.770909 135.780192 
L 408.829091 136.297296 
L 412.887273 136.705536 
L 416.945455 136.979208 
L 421.003636 137.098656 
L 425.061818 137.047248 
L 429.12 136.82196 
L 433.178182 136.437912 
L 437.236364 135.920808 
L 441.294545 135.303912 
L 445.352727 134.615952 
L 449.410909 133.885656 
L 453.469091 133.135704 
L 457.527273 132.382728 
L 461.585455 131.64336 
L 465.643636 130.935744 
L 469.701818 130.270464 
L 473.76 129.659616 
L 477.818182 129.119832 
L 481.876364 128.660184 
L 485.934545 128.295792 
L 489.992727 128.038752 
L 494.050909 127.90116 
L 498.109091 127.86336 
" clip-path="url(#pae4858eb42)" style="fill: none; stroke: #000000; stroke-opacity: 0.5; stroke-linecap: square"/>
   </g>
   <g id="line2d_23">
    <path d="M 92.290909 120.90816 
L 96.349091 119.867904 
L 100.407273 118.60992 
L 104.465455 117.33228 
L 108.523636 116.03952 
L 112.581818 114.73164 
L 116.64 113.410152 
L 120.698182 112.076568 
L 124.756364 110.730888 
L 128.814545 109.374624 
L 132.872727 108.006264 
L 136.930909 106.625808 
L 140.989091 105.23628 
L 145.047273 103.836168 
L 149.105455 102.426984 
L 153.163636 101.007216 
L 157.221818 99.578376 
L 161.28 98.141976 
L 165.338182 96.698016 
L 169.396364 95.246496 
L 173.454545 93.788928 
L 177.512727 92.3238 
L 181.570909 90.85716 
L 185.629091 89.39052 
L 189.687273 87.952608 
L 193.745455 87.577632 
L 197.803636 89.128944 
L 201.861818 90.764928 
L 205.92 92.409984 
L 209.978182 94.056552 
L 214.036364 95.70312 
L 218.094545 97.348176 
L 222.152727 98.99172 
L 226.210909 100.63224 
L 230.269091 102.271248 
L 234.327273 103.90572 
L 238.385455 105.535656 
L 242.443636 107.162568 
L 246.501818 108.784944 
L 250.56 110.401272 
L 254.618182 112.013064 
L 258.676364 113.617296 
L 262.734545 115.212456 
L 266.792727 116.797032 
L 270.850909 118.366488 
L 274.909091 119.907216 
L 278.967273 121.370832 
L 283.025455 122.417136 
L 287.083636 122.232672 
L 291.141818 121.574952 
L 295.2 120.844656 
L 299.258182 120.103776 
L 303.316364 119.378016 
L 307.374545 118.69308 
L 311.432727 118.082232 
L 315.490909 117.607464 
L 319.549091 117.351936 
L 323.607273 117.413928 
L 327.665455 117.83124 
L 331.723636 118.544904 
L 335.781818 119.452104 
L 339.84 120.46968 
L 343.898182 121.546224 
L 347.956364 122.648472 
L 352.014545 123.75828 
L 356.072727 124.860528 
L 360.130909 125.95068 
L 364.189091 127.019664 
L 368.247273 128.062944 
L 372.305455 129.075984 
L 376.363636 130.054248 
L 380.421818 130.984128 
L 384.48 131.83992 
L 388.538182 132.468912 
L 392.596364 132.49008 
L 396.654545 132.2406 
L 400.712727 131.951808 
L 404.770909 131.655456 
L 408.829091 131.362128 
L 412.887273 131.073336 
L 416.945455 130.790592 
L 421.003636 130.518432 
L 425.061818 130.253832 
L 429.12 130.001328 
L 433.178182 129.757896 
L 437.236364 129.52656 
L 441.294545 129.30732 
L 445.352727 129.100176 
L 449.410909 128.90664 
L 453.469091 128.726712 
L 457.527273 128.561904 
L 461.585455 128.409192 
L 465.643636 128.273112 
L 469.701818 128.15064 
L 473.76 128.0448 
L 477.818182 127.952568 
L 481.876364 127.873944 
L 485.934545 127.808928 
L 489.992727 127.751472 
L 494.050909 127.695528 
L 498.109091 127.669824 
" clip-path="url(#pae4858eb42)" style="fill: none; stroke: #000000; stroke-opacity: 0.5; stroke-linecap: square"/>
   </g>
   <g id="patch_3">
    <path d="M 72 384.48 
L 72 51.84 
" style="fill: none; stroke: #000000; stroke-width: 0.8; stroke-linejoin: miter; stroke-linecap: square"/>
   </g>
   <g id="patch_4">
    <path d="M 518.4 384.48 
L 518.4 51.84 
" style="fill: none; stroke: #000000; stroke-width: 0.8; stroke-linejoin: miter; stroke-linecap: square"/>
   </g>
   <g id="patch_5">
    <path d="M 72 384.48 
L 518.4 384.48 
" style="fill: none; stroke: #000000; stroke-width: 0.8; stroke-linejoin: miter; stroke-linecap: square"/>
   </g>
   <g id="patch_6">
    <path d="M 72 51.84 
L 518.4 51.84 
" style="fill: none; stroke: #000000; stroke-width: 0.8; stroke-linejoin: miter; stroke-linecap: square"/>
   </g>
  </g>
 </g>
 <defs>
  <clipPath id="pae4858eb42">
   <rect x="72" y="51.84" width="446.4" height="332.64"/>
  </clipPath>
 </defs>
</svg>
