<?xml version="1.0" encoding="utf-8" standalone="no"?>
<!DOCTYPE svg PUBLIC "-//W3C//DTD SVG 1.1//EN"
  "http://www.w3.org/Graphics/SVG/1.1/DTD/svg11.dtd">
<svg xmlns:xlink="http://www.w3.org/1999/xlink" width="576pt" height="432pt" viewBox="0 0 576 432" xmlns="http://www.w3.org/2000/svg" version="1.1">
 <metadata>
  <rdf:RDF xmlns:dc="http://purl.org/dc/elements/1.1/" xmlns:cc="http://creativecommons.org/ns#" xmlns:rdf="http://www.w3.org/1999/02/22-rdf-syntax-ns#">
   <cc:Work>
    <dc:type rdf:resource="http://purl.org/dc/dcmitype/StillImage"/>
    <dc:date>2023-05-03T06:10:11.268332</dc:date>
    <dc:format>image/svg+xml</dc:format>
    <dc:creator>
     <cc:Agent>
      <dc:title>Matplotlib v3.7.1, https://matplotlib.org/</dc:title>
     </cc:Agent>
    </dc:creator>
   </cc:Work>
  </rdf:RDF>
 </metadata>
 <defs>
  <style type="text/css">*{stroke-linejoin: round; stroke-linecap: butt}</style>
 </defs>
 <g id="figure_1">
  <g id="patch_1">
   <path d="M 0 432 
L 576 432 
L 576 0 
L 0 0 
z
" style="fill: #ffffff"/>
  </g>
  <g id="axes_1">
   <g id="patch_2">
    <path d="M 72 384.48 
L 518.4 384.48 
L 518.4 51.84 
L 72 51.84 
z
" style="fill: #ffffff"/>
   </g>
   <g id="matplotlib.axis_1">
    <g id="xtick_1">
     <g id="line2d_1">
      <defs>
       <path id="ma31e92e5c5" d="M 0 0 
L 0 3.5 
" style="stroke: #000000; stroke-width: 0.8"/>
      </defs>
      <g>
       <use xlink:href="#ma31e92e5c5" x="92.290909" y="384.48" style="stroke: #000000; stroke-width: 0.8"/>
      </g>
     </g>
     <g id="text_1">
      <!-- 0.0 -->
      <g transform="translate(84.339347 399.078438) scale(0.1 -0.1)">
       <defs>
        <path id="DejaVuSans-30" d="M 2034 4250 
Q 1547 4250 1301 3770 
Q 1056 3291 1056 2328 
Q 1056 1369 1301 889 
Q 1547 409 2034 409 
Q 2525 409 2770 889 
Q 3016 1369 3016 2328 
Q 3016 3291 2770 3770 
Q 2525 4250 2034 4250 
z
M 2034 4750 
Q 2819 4750 3233 4129 
Q 3647 3509 3647 2328 
Q 3647 1150 3233 529 
Q 2819 -91 2034 -91 
Q 1250 -91 836 529 
Q 422 1150 422 2328 
Q 422 3509 836 4129 
Q 1250 4750 2034 4750 
z
" transform="scale(0.015625)"/>
        <path id="DejaVuSans-2e" d="M 684 794 
L 1344 794 
L 1344 0 
L 684 0 
L 684 794 
z
" transform="scale(0.015625)"/>
       </defs>
       <use xlink:href="#DejaVuSans-30"/>
       <use xlink:href="#DejaVuSans-2e" x="63.623047"/>
       <use xlink:href="#DejaVuSans-30" x="95.410156"/>
      </g>
     </g>
    </g>
    <g id="xtick_2">
     <g id="line2d_2">
      <g>
       <use xlink:href="#ma31e92e5c5" x="173.454545" y="384.48" style="stroke: #000000; stroke-width: 0.8"/>
      </g>
     </g>
     <g id="text_2">
      <!-- 0.2 -->
      <g transform="translate(165.502983 399.078438) scale(0.1 -0.1)">
       <defs>
        <path id="DejaVuSans-32" d="M 1228 531 
L 3431 531 
L 3431 0 
L 469 0 
L 469 531 
Q 828 903 1448 1529 
Q 2069 2156 2228 2338 
Q 2531 2678 2651 2914 
Q 2772 3150 2772 3378 
Q 2772 3750 2511 3984 
Q 2250 4219 1831 4219 
Q 1534 4219 1204 4116 
Q 875 4013 500 3803 
L 500 4441 
Q 881 4594 1212 4672 
Q 1544 4750 1819 4750 
Q 2544 4750 2975 4387 
Q 3406 4025 3406 3419 
Q 3406 3131 3298 2873 
Q 3191 2616 2906 2266 
Q 2828 2175 2409 1742 
Q 1991 1309 1228 531 
z
" transform="scale(0.015625)"/>
       </defs>
       <use xlink:href="#DejaVuSans-30"/>
       <use xlink:href="#DejaVuSans-2e" x="63.623047"/>
       <use xlink:href="#DejaVuSans-32" x="95.410156"/>
      </g>
     </g>
    </g>
    <g id="xtick_3">
     <g id="line2d_3">
      <g>
       <use xlink:href="#ma31e92e5c5" x="254.618182" y="384.48" style="stroke: #000000; stroke-width: 0.8"/>
      </g>
     </g>
     <g id="text_3">
      <!-- 0.4 -->
      <g transform="translate(246.666619 399.078438) scale(0.1 -0.1)">
       <defs>
        <path id="DejaVuSans-34" d="M 2419 4116 
L 825 1625 
L 2419 1625 
L 2419 4116 
z
M 2253 4666 
L 3047 4666 
L 3047 1625 
L 3713 1625 
L 3713 1100 
L 3047 1100 
L 3047 0 
L 2419 0 
L 2419 1100 
L 313 1100 
L 313 1709 
L 2253 4666 
z
" transform="scale(0.015625)"/>
       </defs>
       <use xlink:href="#DejaVuSans-30"/>
       <use xlink:href="#DejaVuSans-2e" x="63.623047"/>
       <use xlink:href="#DejaVuSans-34" x="95.410156"/>
      </g>
     </g>
    </g>
    <g id="xtick_4">
     <g id="line2d_4">
      <g>
       <use xlink:href="#ma31e92e5c5" x="335.781818" y="384.48" style="stroke: #000000; stroke-width: 0.8"/>
      </g>
     </g>
     <g id="text_4">
      <!-- 0.6 -->
      <g transform="translate(327.830256 399.078438) scale(0.1 -0.1)">
       <defs>
        <path id="DejaVuSans-36" d="M 2113 2584 
Q 1688 2584 1439 2293 
Q 1191 2003 1191 1497 
Q 1191 994 1439 701 
Q 1688 409 2113 409 
Q 2538 409 2786 701 
Q 3034 994 3034 1497 
Q 3034 2003 2786 2293 
Q 2538 2584 2113 2584 
z
M 3366 4563 
L 3366 3988 
Q 3128 4100 2886 4159 
Q 2644 4219 2406 4219 
Q 1781 4219 1451 3797 
Q 1122 3375 1075 2522 
Q 1259 2794 1537 2939 
Q 1816 3084 2150 3084 
Q 2853 3084 3261 2657 
Q 3669 2231 3669 1497 
Q 3669 778 3244 343 
Q 2819 -91 2113 -91 
Q 1303 -91 875 529 
Q 447 1150 447 2328 
Q 447 3434 972 4092 
Q 1497 4750 2381 4750 
Q 2619 4750 2861 4703 
Q 3103 4656 3366 4563 
z
" transform="scale(0.015625)"/>
       </defs>
       <use xlink:href="#DejaVuSans-30"/>
       <use xlink:href="#DejaVuSans-2e" x="63.623047"/>
       <use xlink:href="#DejaVuSans-36" x="95.410156"/>
      </g>
     </g>
    </g>
    <g id="xtick_5">
     <g id="line2d_5">
      <g>
       <use xlink:href="#ma31e92e5c5" x="416.945455" y="384.48" style="stroke: #000000; stroke-width: 0.8"/>
      </g>
     </g>
     <g id="text_5">
      <!-- 0.8 -->
      <g transform="translate(408.993892 399.078438) scale(0.1 -0.1)">
       <defs>
        <path id="DejaVuSans-38" d="M 2034 2216 
Q 1584 2216 1326 1975 
Q 1069 1734 1069 1313 
Q 1069 891 1326 650 
Q 1584 409 2034 409 
Q 2484 409 2743 651 
Q 3003 894 3003 1313 
Q 3003 1734 2745 1975 
Q 2488 2216 2034 2216 
z
M 1403 2484 
Q 997 2584 770 2862 
Q 544 3141 544 3541 
Q 544 4100 942 4425 
Q 1341 4750 2034 4750 
Q 2731 4750 3128 4425 
Q 3525 4100 3525 3541 
Q 3525 3141 3298 2862 
Q 3072 2584 2669 2484 
Q 3125 2378 3379 2068 
Q 3634 1759 3634 1313 
Q 3634 634 3220 271 
Q 2806 -91 2034 -91 
Q 1263 -91 848 271 
Q 434 634 434 1313 
Q 434 1759 690 2068 
Q 947 2378 1403 2484 
z
M 1172 3481 
Q 1172 3119 1398 2916 
Q 1625 2713 2034 2713 
Q 2441 2713 2670 2916 
Q 2900 3119 2900 3481 
Q 2900 3844 2670 4047 
Q 2441 4250 2034 4250 
Q 1625 4250 1398 4047 
Q 1172 3844 1172 3481 
z
" transform="scale(0.015625)"/>
       </defs>
       <use xlink:href="#DejaVuSans-30"/>
       <use xlink:href="#DejaVuSans-2e" x="63.623047"/>
       <use xlink:href="#DejaVuSans-38" x="95.410156"/>
      </g>
     </g>
    </g>
    <g id="xtick_6">
     <g id="line2d_6">
      <g>
       <use xlink:href="#ma31e92e5c5" x="498.109091" y="384.48" style="stroke: #000000; stroke-width: 0.8"/>
      </g>
     </g>
     <g id="text_6">
      <!-- 1.0 -->
      <g transform="translate(490.157528 399.078438) scale(0.1 -0.1)">
       <defs>
        <path id="DejaVuSans-31" d="M 794 531 
L 1825 531 
L 1825 4091 
L 703 3866 
L 703 4441 
L 1819 4666 
L 2450 4666 
L 2450 531 
L 3481 531 
L 3481 0 
L 794 0 
L 794 531 
z
" transform="scale(0.015625)"/>
       </defs>
       <use xlink:href="#DejaVuSans-31"/>
       <use xlink:href="#DejaVuSans-2e" x="63.623047"/>
       <use xlink:href="#DejaVuSans-30" x="95.410156"/>
      </g>
     </g>
    </g>
   </g>
   <g id="matplotlib.axis_2">
    <g id="ytick_1">
     <g id="line2d_7">
      <defs>
       <path id="me6d6fd938a" d="M 0 0 
L -3.5 0 
" style="stroke: #000000; stroke-width: 0.8"/>
      </defs>
      <g>
       <use xlink:href="#me6d6fd938a" x="72" y="369.36" style="stroke: #000000; stroke-width: 0.8"/>
      </g>
     </g>
     <g id="text_7">
      <!-- −5.0 -->
      <g transform="translate(40.717187 373.159219) scale(0.1 -0.1)">
       <defs>
        <path id="DejaVuSans-2212" d="M 678 2272 
L 4684 2272 
L 4684 1741 
L 678 1741 
L 678 2272 
z
" transform="scale(0.015625)"/>
        <path id="DejaVuSans-35" d="M 691 4666 
L 3169 4666 
L 3169 4134 
L 1269 4134 
L 1269 2991 
Q 1406 3038 1543 3061 
Q 1681 3084 1819 3084 
Q 2600 3084 3056 2656 
Q 3513 2228 3513 1497 
Q 3513 744 3044 326 
Q 2575 -91 1722 -91 
Q 1428 -91 1123 -41 
Q 819 9 494 109 
L 494 744 
Q 775 591 1075 516 
Q 1375 441 1709 441 
Q 2250 441 2565 725 
Q 2881 1009 2881 1497 
Q 2881 1984 2565 2268 
Q 2250 2553 1709 2553 
Q 1456 2553 1204 2497 
Q 953 2441 691 2322 
L 691 4666 
z
" transform="scale(0.015625)"/>
       </defs>
       <use xlink:href="#DejaVuSans-2212"/>
       <use xlink:href="#DejaVuSans-35" x="83.789062"/>
       <use xlink:href="#DejaVuSans-2e" x="147.412109"/>
       <use xlink:href="#DejaVuSans-30" x="179.199219"/>
      </g>
     </g>
    </g>
    <g id="ytick_2">
     <g id="line2d_8">
      <g>
       <use xlink:href="#me6d6fd938a" x="72" y="331.56" style="stroke: #000000; stroke-width: 0.8"/>
      </g>
     </g>
     <g id="text_8">
      <!-- −2.5 -->
      <g transform="translate(40.717187 335.359219) scale(0.1 -0.1)">
       <use xlink:href="#DejaVuSans-2212"/>
       <use xlink:href="#DejaVuSans-32" x="83.789062"/>
       <use xlink:href="#DejaVuSans-2e" x="147.412109"/>
       <use xlink:href="#DejaVuSans-35" x="179.199219"/>
      </g>
     </g>
    </g>
    <g id="ytick_3">
     <g id="line2d_9">
      <g>
       <use xlink:href="#me6d6fd938a" x="72" y="293.76" style="stroke: #000000; stroke-width: 0.8"/>
      </g>
     </g>
     <g id="text_9">
      <!-- 0.0 -->
      <g transform="translate(49.096875 297.559219) scale(0.1 -0.1)">
       <use xlink:href="#DejaVuSans-30"/>
       <use xlink:href="#DejaVuSans-2e" x="63.623047"/>
       <use xlink:href="#DejaVuSans-30" x="95.410156"/>
      </g>
     </g>
    </g>
    <g id="ytick_4">
     <g id="line2d_10">
      <g>
       <use xlink:href="#me6d6fd938a" x="72" y="255.96" style="stroke: #000000; stroke-width: 0.8"/>
      </g>
     </g>
     <g id="text_10">
      <!-- 2.5 -->
      <g transform="translate(49.096875 259.759219) scale(0.1 -0.1)">
       <use xlink:href="#DejaVuSans-32"/>
       <use xlink:href="#DejaVuSans-2e" x="63.623047"/>
       <use xlink:href="#DejaVuSans-35" x="95.410156"/>
      </g>
     </g>
    </g>
    <g id="ytick_5">
     <g id="line2d_11">
      <g>
       <use xlink:href="#me6d6fd938a" x="72" y="218.16" style="stroke: #000000; stroke-width: 0.8"/>
      </g>
     </g>
     <g id="text_11">
      <!-- 5.0 -->
      <g transform="translate(49.096875 221.959219) scale(0.1 -0.1)">
       <use xlink:href="#DejaVuSans-35"/>
       <use xlink:href="#DejaVuSans-2e" x="63.623047"/>
       <use xlink:href="#DejaVuSans-30" x="95.410156"/>
      </g>
     </g>
    </g>
    <g id="ytick_6">
     <g id="line2d_12">
      <g>
       <use xlink:href="#me6d6fd938a" x="72" y="180.36" style="stroke: #000000; stroke-width: 0.8"/>
      </g>
     </g>
     <g id="text_12">
      <!-- 7.5 -->
      <g transform="translate(49.096875 184.159219) scale(0.1 -0.1)">
       <defs>
        <path id="DejaVuSans-37" d="M 525 4666 
L 3525 4666 
L 3525 4397 
L 1831 0 
L 1172 0 
L 2766 4134 
L 525 4134 
L 525 4666 
z
" transform="scale(0.015625)"/>
       </defs>
       <use xlink:href="#DejaVuSans-37"/>
       <use xlink:href="#DejaVuSans-2e" x="63.623047"/>
       <use xlink:href="#DejaVuSans-35" x="95.410156"/>
      </g>
     </g>
    </g>
    <g id="ytick_7">
     <g id="line2d_13">
      <g>
       <use xlink:href="#me6d6fd938a" x="72" y="142.56" style="stroke: #000000; stroke-width: 0.8"/>
      </g>
     </g>
     <g id="text_13">
      <!-- 10.0 -->
      <g transform="translate(42.734375 146.359219) scale(0.1 -0.1)">
       <use xlink:href="#DejaVuSans-31"/>
       <use xlink:href="#DejaVuSans-30" x="63.623047"/>
       <use xlink:href="#DejaVuSans-2e" x="127.246094"/>
       <use xlink:href="#DejaVuSans-30" x="159.033203"/>
      </g>
     </g>
    </g>
    <g id="ytick_8">
     <g id="line2d_14">
      <g>
       <use xlink:href="#me6d6fd938a" x="72" y="104.76" style="stroke: #000000; stroke-width: 0.8"/>
      </g>
     </g>
     <g id="text_14">
      <!-- 12.5 -->
      <g transform="translate(42.734375 108.559219) scale(0.1 -0.1)">
       <use xlink:href="#DejaVuSans-31"/>
       <use xlink:href="#DejaVuSans-32" x="63.623047"/>
       <use xlink:href="#DejaVuSans-2e" x="127.246094"/>
       <use xlink:href="#DejaVuSans-35" x="159.033203"/>
      </g>
     </g>
    </g>
    <g id="ytick_9">
     <g id="line2d_15">
      <g>
       <use xlink:href="#me6d6fd938a" x="72" y="66.96" style="stroke: #000000; stroke-width: 0.8"/>
      </g>
     </g>
     <g id="text_15">
      <!-- 15.0 -->
      <g transform="translate(42.734375 70.759219) scale(0.1 -0.1)">
       <use xlink:href="#DejaVuSans-31"/>
       <use xlink:href="#DejaVuSans-35" x="63.623047"/>
       <use xlink:href="#DejaVuSans-2e" x="127.246094"/>
       <use xlink:href="#DejaVuSans-30" x="159.033203"/>
      </g>
     </g>
    </g>
   </g>
   <g id="line2d_16">
    <path d="M 92.290909 372.86784 
L 96.349091 372.861792 
L 100.407273 372.843648 
L 104.465455 372.813408 
L 108.523636 372.76956 
L 112.581818 372.713616 
L 116.64 372.645576 
L 120.698182 372.56544 
L 124.756364 372.473208 
L 128.814545 372.36888 
L 132.872727 372.250944 
L 136.930909 372.122424 
L 140.989091 371.980296 
L 145.047273 371.826072 
L 149.105455 371.659752 
L 153.163636 371.482848 
L 157.221818 371.290824 
L 161.28 371.088216 
L 165.338182 370.873512 
L 169.396364 370.646712 
L 173.454545 370.407816 
L 177.512727 370.156824 
L 181.570909 369.893736 
L 185.629091 369.61704 
L 189.687273 369.32976 
L 193.745455 369.030384 
L 197.803636 368.718912 
L 201.861818 368.396856 
L 205.92 368.061192 
L 209.978182 367.714944 
L 214.036364 367.355088 
L 218.094545 366.984648 
L 222.152727 366.603624 
L 226.210909 366.208992 
L 230.269091 365.803776 
L 234.327273 365.386464 
L 238.385455 364.958568 
L 242.443636 364.518576 
L 246.501818 364.066488 
L 250.56 363.603816 
L 254.618182 363.13056 
L 258.676364 362.645208 
L 262.734545 362.14776 
L 266.792727 361.64124 
L 270.850909 361.122624 
L 274.909091 360.593424 
L 278.967273 360.052128 
L 283.025455 359.50176 
L 287.083636 358.939296 
L 291.141818 358.366248 
L 295.2 357.784128 
L 299.258182 357.189912 
L 303.316364 356.586624 
L 307.374545 355.97124 
L 311.432727 355.346784 
L 315.490909 354.713256 
L 319.549091 354.069144 
L 323.607273 353.414448 
L 327.665455 352.75068 
L 331.723636 352.076328 
L 335.781818 351.392904 
L 339.84 350.700408 
L 343.898182 349.99884 
L 347.956364 349.2882 
L 352.014545 348.568488 
L 356.072727 347.839704 
L 360.130909 347.10336 
L 364.189091 346.356432 
L 368.247273 345.603456 
L 372.305455 344.839896 
L 376.363636 344.070288 
L 380.421818 343.291608 
L 384.48 342.50688 
L 388.538182 341.71308 
L 392.596364 340.91172 
L 396.654545 340.104312 
L 400.712727 339.290856 
L 404.770909 338.46984 
L 408.829091 337.641264 
L 412.887273 336.808152 
L 416.945455 335.968992 
L 421.003636 335.122272 
L 425.061818 334.272528 
L 429.12 333.415224 
L 433.178182 332.554896 
L 437.236364 331.68852 
L 441.294545 330.81912 
L 445.352727 329.943672 
L 449.410909 329.0652 
L 453.469091 328.183704 
L 457.527273 327.299184 
L 461.585455 326.410128 
L 465.643636 325.51956 
L 469.701818 324.625968 
L 473.76 323.729352 
L 477.818182 322.832736 
L 481.876364 321.933096 
L 485.934545 321.033456 
L 489.992727 320.132304 
L 494.050909 319.22964 
L 498.109091 318.328488 
" clip-path="url(#p7b49a7cd36)" style="fill: none; stroke: #000000; stroke-opacity: 0.5; stroke-linecap: square"/>
   </g>
   <g id="line2d_17">
    <path d="M 92.290909 238.411728 
L 96.349091 238.464648 
L 100.407273 238.618872 
L 104.465455 238.872888 
L 108.523636 239.213088 
L 112.581818 239.634936 
L 116.64 240.124824 
L 120.698182 240.675192 
L 124.756364 241.276968 
L 128.814545 241.92108 
L 132.872727 242.599968 
L 136.930909 243.310608 
L 140.989091 244.046952 
L 145.047273 244.805976 
L 149.105455 245.581632 
L 153.163636 246.37392 
L 157.221818 247.178304 
L 161.28 247.993272 
L 165.338182 248.817312 
L 169.396364 249.650424 
L 173.454545 250.488072 
L 177.512727 251.33328 
L 181.570909 252.18 
L 185.629091 253.031256 
L 189.687273 253.885536 
L 193.745455 254.741328 
L 197.803636 255.598632 
L 201.861818 256.457448 
L 205.92 257.316264 
L 209.978182 258.173568 
L 214.036364 259.032384 
L 218.094545 259.889688 
L 222.152727 260.746992 
L 226.210909 261.601272 
L 230.269091 262.455552 
L 234.327273 263.30832 
L 238.385455 264.158064 
L 242.443636 265.006296 
L 246.501818 265.853016 
L 250.56 266.698224 
L 254.618182 267.540408 
L 258.676364 268.38108 
L 262.734545 269.218728 
L 266.792727 270.054864 
L 270.850909 270.889488 
L 274.909091 271.721088 
L 278.967273 272.551176 
L 283.025455 273.379752 
L 287.083636 274.205304 
L 291.141818 275.029344 
L 295.2 275.851872 
L 299.258182 276.672888 
L 303.316364 277.492392 
L 307.374545 278.310384 
L 311.432727 279.126864 
L 315.490909 279.943344 
L 319.549091 280.758312 
L 323.607273 281.57328 
L 327.665455 282.388248 
L 331.723636 283.201704 
L 335.781818 284.01516 
L 339.84 284.830128 
L 343.898182 285.645096 
L 347.956364 286.460064 
L 352.014545 287.276544 
L 356.072727 288.094536 
L 360.130909 288.912528 
L 364.189091 289.732032 
L 368.247273 290.55456 
L 372.305455 291.3786 
L 376.363636 292.204152 
L 380.421818 293.032728 
L 384.48 293.864328 
L 388.538182 294.69744 
L 392.596364 295.533576 
L 396.654545 296.372736 
L 400.712727 297.21492 
L 404.770909 298.060128 
L 408.829091 298.909872 
L 412.887273 299.761128 
L 416.945455 300.61692 
L 421.003636 301.475736 
L 425.061818 302.337576 
L 429.12 303.203952 
L 433.178182 304.073352 
L 437.236364 304.945776 
L 441.294545 305.821224 
L 445.352727 306.699696 
L 449.410909 307.581192 
L 453.469091 308.465712 
L 457.527273 309.353256 
L 461.585455 310.243824 
L 465.643636 311.135904 
L 469.701818 312.029496 
L 473.76 312.926112 
L 477.818182 313.82424 
L 481.876364 314.722368 
L 485.934545 315.62352 
L 489.992727 316.524672 
L 494.050909 317.425824 
L 498.109091 318.328488 
" clip-path="url(#p7b49a7cd36)" style="fill: none; stroke: #000000; stroke-opacity: 0.5; stroke-linecap: square"/>
   </g>
   <g id="line2d_18">
    <path d="M 92.290909 223.448976 
L 96.349091 223.476192 
L 100.407273 223.560864 
L 104.465455 223.70148 
L 108.523636 223.896528 
L 112.581818 224.141472 
L 116.64 224.437824 
L 120.698182 224.779536 
L 124.756364 225.165096 
L 128.814545 225.59148 
L 132.872727 226.054152 
L 136.930909 226.5516 
L 140.989091 227.079288 
L 145.047273 227.634192 
L 149.105455 228.213288 
L 153.163636 228.813552 
L 157.221818 229.433472 
L 161.28 230.068512 
L 165.338182 230.718672 
L 169.396364 231.380928 
L 173.454545 232.052256 
L 177.512727 232.731144 
L 181.570909 233.41608 
L 185.629091 234.107064 
L 189.687273 234.801072 
L 193.745455 235.496592 
L 197.803636 236.193624 
L 201.861818 236.889144 
L 205.92 237.584664 
L 209.978182 238.27716 
L 214.036364 238.968144 
L 218.094545 239.65308 
L 222.152727 240.334992 
L 226.210909 241.012368 
L 230.269091 241.682184 
L 234.327273 242.345952 
L 238.385455 243.003672 
L 242.443636 243.653832 
L 246.501818 244.29492 
L 250.56 244.928448 
L 254.618182 245.554416 
L 258.676364 246.1698 
L 262.734545 246.776112 
L 266.792727 247.37184 
L 270.850909 247.958496 
L 274.909091 248.534568 
L 278.967273 249.101568 
L 283.025455 249.65496 
L 287.083636 250.19928 
L 291.141818 250.731504 
L 295.2 251.251632 
L 299.258182 251.759664 
L 303.316364 252.2556 
L 307.374545 252.73944 
L 311.432727 253.211184 
L 315.490909 253.670832 
L 319.549091 254.11536 
L 323.607273 254.549304 
L 327.665455 254.968128 
L 331.723636 255.374856 
L 335.781818 255.766464 
L 339.84 256.145976 
L 343.898182 256.510368 
L 347.956364 256.861152 
L 352.014545 257.196816 
L 356.072727 257.518872 
L 360.130909 257.825808 
L 364.189091 258.117624 
L 368.247273 258.395832 
L 372.305455 258.657408 
L 376.363636 258.903864 
L 380.421818 259.136712 
L 384.48 259.351416 
L 388.538182 259.552512 
L 392.596364 259.735464 
L 396.654545 259.903296 
L 400.712727 260.056008 
L 404.770909 260.190576 
L 408.829091 260.308512 
L 412.887273 260.411328 
L 416.945455 260.496 
L 421.003636 260.562528 
L 425.061818 260.612424 
L 429.12 260.645688 
L 433.178182 260.660808 
L 437.236364 260.657784 
L 441.294545 260.636616 
L 445.352727 260.597304 
L 449.410909 260.539848 
L 453.469091 260.462736 
L 457.527273 260.36748 
L 461.585455 260.252568 
L 465.643636 260.119512 
L 469.701818 259.9668 
L 473.76 259.794432 
L 477.818182 259.602408 
L 481.876364 259.390728 
L 485.934545 259.15788 
L 489.992727 258.905376 
L 494.050909 258.633216 
L 498.109091 258.339888 
" clip-path="url(#p7b49a7cd36)" style="fill: none; stroke: #000000; stroke-opacity: 0.5; stroke-linecap: square"/>
   </g>
   <g id="line2d_19">
    <path d="M 92.290909 223.448976 
L 96.349091 223.405128 
L 100.407273 223.275096 
L 104.465455 223.06644 
L 108.523636 222.785208 
L 112.581818 222.443496 
L 116.64 222.050376 
L 120.698182 221.61492 
L 124.756364 221.149224 
L 128.814545 220.660848 
L 132.872727 220.15584 
L 136.930909 219.64176 
L 140.989091 219.123144 
L 145.047273 218.607552 
L 149.105455 218.096496 
L 153.163636 217.596024 
L 157.221818 217.107648 
L 161.28 216.637416 
L 165.338182 216.185328 
L 169.396364 215.757432 
L 173.454545 215.353728 
L 177.512727 214.980264 
L 181.570909 214.635528 
L 185.629091 214.325568 
L 189.687273 214.050384 
L 193.745455 213.813 
L 197.803636 213.61644 
L 201.861818 213.462216 
L 205.92 213.350328 
L 209.978182 213.285312 
L 214.036364 213.267168 
L 218.094545 213.297408 
L 222.152727 213.377544 
L 226.210909 213.506064 
L 230.269091 213.685992 
L 234.327273 213.914304 
L 238.385455 214.192512 
L 242.443636 214.520616 
L 246.501818 214.897104 
L 250.56 215.318952 
L 254.618182 215.78616 
L 258.676364 216.298728 
L 262.734545 216.850608 
L 266.792727 217.443312 
L 270.850909 218.072304 
L 274.909091 218.736072 
L 278.967273 219.431592 
L 283.025455 220.158864 
L 287.083636 220.91184 
L 291.141818 221.69052 
L 295.2 222.49188 
L 299.258182 223.314408 
L 303.316364 224.15508 
L 307.374545 225.010872 
L 311.432727 225.880272 
L 315.490909 226.76328 
L 319.549091 227.653848 
L 323.607273 228.553488 
L 327.665455 229.459176 
L 331.723636 230.3694 
L 335.781818 231.282648 
L 339.84 232.195896 
L 343.898182 233.109144 
L 347.956364 234.02088 
L 352.014545 234.929592 
L 356.072727 235.833768 
L 360.130909 236.731896 
L 364.189091 237.623976 
L 368.247273 238.506984 
L 372.305455 239.38092 
L 376.363636 240.245784 
L 380.421818 241.098552 
L 384.48 241.939224 
L 388.538182 242.7678 
L 392.596364 243.582768 
L 396.654545 244.382616 
L 400.712727 245.167344 
L 404.770909 245.93544 
L 408.829091 246.688416 
L 412.887273 247.42476 
L 416.945455 248.14296 
L 421.003636 248.841504 
L 425.061818 249.523416 
L 429.12 250.185672 
L 433.178182 250.829784 
L 437.236364 251.452728 
L 441.294545 252.057528 
L 445.352727 252.64116 
L 449.410909 253.203624 
L 453.469091 253.746432 
L 457.527273 254.268072 
L 461.585455 254.770056 
L 465.643636 255.250872 
L 469.701818 255.709008 
L 473.76 256.147488 
L 477.818182 256.566312 
L 481.876364 256.962456 
L 485.934545 257.337432 
L 489.992727 257.692752 
L 494.050909 258.026904 
L 498.109091 258.339888 
" clip-path="url(#p7b49a7cd36)" style="fill: none; stroke: #000000; stroke-opacity: 0.5; stroke-linecap: square"/>
   </g>
   <g id="line2d_20">
    <path d="M 92.290909 179.507232 
L 96.349091 179.469432 
L 100.407273 179.353008 
L 104.465455 179.159472 
L 108.523636 178.891848 
L 112.581818 178.550136 
L 116.64 178.138872 
L 120.698182 177.659568 
L 124.756364 177.115248 
L 128.814545 176.508936 
L 132.872727 175.84668 
L 136.930909 175.12848 
L 140.989091 174.358872 
L 145.047273 173.542392 
L 149.105455 172.67904 
L 153.163636 171.774864 
L 157.221818 170.831376 
L 161.28 169.8516 
L 165.338182 168.837048 
L 169.396364 167.790744 
L 173.454545 166.715712 
L 177.512727 165.613464 
L 181.570909 164.484 
L 185.629091 163.331856 
L 189.687273 162.158544 
L 193.745455 160.965576 
L 197.803636 159.755976 
L 201.861818 158.529744 
L 205.92 157.292928 
L 209.978182 157.669416 
L 214.036364 158.098824 
L 218.094545 158.485896 
L 222.152727 158.826096 
L 226.210909 159.119424 
L 230.269091 159.36588 
L 234.327273 159.56244 
L 238.385455 159.709104 
L 242.443636 159.807384 
L 246.501818 159.855768 
L 250.56 159.855768 
L 254.618182 159.807384 
L 258.676364 159.712128 
L 262.734545 159.57 
L 266.792727 159.384024 
L 270.850909 159.1542 
L 274.909091 158.88204 
L 278.967273 158.570568 
L 283.025455 158.221296 
L 287.083636 157.834224 
L 291.141818 157.410864 
L 295.2 156.955752 
L 299.258182 156.467376 
L 303.316364 155.94876 
L 307.374545 155.401416 
L 311.432727 154.826856 
L 315.490909 154.22508 
L 319.549091 154.128312 
L 323.607273 154.448856 
L 327.665455 154.76184 
L 331.723636 155.067264 
L 335.781818 155.363616 
L 339.84 155.652408 
L 343.898182 155.93364 
L 347.956364 156.2058 
L 352.014545 156.467376 
L 356.072727 156.721392 
L 360.130909 156.964824 
L 364.189091 157.199184 
L 368.247273 157.42296 
L 372.305455 157.637664 
L 376.363636 157.841784 
L 380.421818 158.03532 
L 384.48 158.218272 
L 388.538182 158.389128 
L 392.596364 158.550912 
L 396.654545 158.7006 
L 400.712727 158.839704 
L 404.770909 158.966712 
L 408.829091 159.083136 
L 412.887273 159.185952 
L 416.945455 159.278184 
L 421.003636 159.359832 
L 425.061818 159.427872 
L 429.12 159.483816 
L 433.178182 159.527664 
L 437.236364 159.557904 
L 441.294545 159.57756 
L 445.352727 159.583608 
L 449.410909 159.576048 
L 453.469091 159.556392 
L 457.527273 159.52464 
L 461.585455 159.477768 
L 465.643636 159.4188 
L 469.701818 159.346224 
L 473.76 159.261552 
L 477.818182 159.16176 
L 481.876364 159.04836 
L 485.934545 158.922864 
L 489.992727 158.782248 
L 494.050909 158.628024 
L 498.109091 158.460192 
" clip-path="url(#p7b49a7cd36)" style="fill: none; stroke: #000000; stroke-opacity: 0.5; stroke-linecap: square"/>
   </g>
   <g id="line2d_21">
    <path d="M 92.290909 142.387632 
L 96.349091 142.414848 
L 100.407273 142.501032 
L 104.465455 142.644672 
L 108.523636 142.848792 
L 112.581818 143.116416 
L 116.64 143.447544 
L 120.698182 143.840664 
L 124.756364 144.294264 
L 128.814545 144.800784 
L 132.872727 145.358712 
L 136.930909 145.958976 
L 140.989091 146.595528 
L 145.047273 147.260808 
L 149.105455 147.95028 
L 153.163636 148.657896 
L 157.221818 149.376096 
L 161.28 150.100344 
L 165.338182 150.826104 
L 169.396364 151.547328 
L 173.454545 152.25948 
L 177.512727 152.961048 
L 181.570909 153.644472 
L 185.629091 154.30824 
L 189.687273 154.947816 
L 193.745455 155.558664 
L 197.803636 156.140784 
L 201.861818 156.688128 
L 205.92 157.197672 
L 209.978182 156.045528 
L 214.036364 154.795104 
L 218.094545 153.549216 
L 222.152727 152.318448 
L 226.210909 151.128504 
L 230.269091 150.020208 
L 234.327273 149.079744 
L 238.385455 148.42656 
L 242.443636 148.13172 
L 246.501818 148.12416 
L 250.56 148.285944 
L 254.618182 148.541472 
L 258.676364 148.845384 
L 262.734545 149.178024 
L 266.792727 149.527296 
L 270.850909 149.887152 
L 274.909091 150.251544 
L 278.967273 150.617448 
L 283.025455 150.984864 
L 287.083636 151.350768 
L 291.141818 151.713648 
L 295.2 152.073504 
L 299.258182 152.430336 
L 303.316364 152.78112 
L 307.374545 153.127368 
L 311.432727 153.467568 
L 315.490909 153.80172 
L 319.549091 153.599112 
L 323.607273 152.948952 
L 327.665455 152.279136 
L 331.723636 151.588152 
L 335.781818 150.879024 
L 339.84 150.154776 
L 343.898182 149.418432 
L 347.956364 148.67604 
L 352.014545 147.941208 
L 356.072727 147.233592 
L 360.130909 146.607624 
L 364.189091 146.185776 
L 368.247273 146.123784 
L 372.305455 146.398968 
L 376.363636 146.848032 
L 380.421818 147.365136 
L 384.48 147.909456 
L 388.538182 148.458312 
L 392.596364 149.004144 
L 396.654545 149.542416 
L 400.712727 150.070104 
L 404.770909 150.587208 
L 408.829091 151.089192 
L 412.887273 151.57908 
L 416.945455 152.053848 
L 421.003636 152.513496 
L 425.061818 152.959536 
L 429.12 153.390456 
L 433.178182 153.807768 
L 437.236364 154.208448 
L 441.294545 154.59552 
L 445.352727 154.96596 
L 449.410909 155.322792 
L 453.469091 155.664504 
L 457.527273 155.992608 
L 461.585455 156.30408 
L 465.643636 156.601944 
L 469.701818 156.884688 
L 473.76 157.152312 
L 477.818182 157.406328 
L 481.876364 157.645224 
L 485.934545 157.870512 
L 489.992727 158.08068 
L 494.050909 158.27724 
L 498.109091 158.460192 
" clip-path="url(#p7b49a7cd36)" style="fill: none; stroke: #000000; stroke-opacity: 0.5; stroke-linecap: square"/>
   </g>
   <g id="line2d_22">
    <path d="M 92.290909 136.294272 
L 96.349091 136.303344 
L 100.407273 136.333584 
L 104.465455 136.38348 
L 108.523636 136.453032 
L 112.581818 136.54224 
L 116.64 136.651104 
L 120.698182 136.778112 
L 124.756364 136.923264 
L 128.814545 137.088072 
L 132.872727 137.268 
L 136.930909 137.467584 
L 140.989091 137.680776 
L 145.047273 137.912112 
L 149.105455 138.157056 
L 153.163636 138.41712 
L 157.221818 138.68928 
L 161.28 138.97656 
L 165.338182 139.274424 
L 169.396364 139.582872 
L 173.454545 139.903416 
L 177.512727 140.23152 
L 181.570909 140.568696 
L 185.629091 140.913432 
L 189.687273 141.264216 
L 193.745455 141.619536 
L 197.803636 141.979392 
L 201.861818 142.339248 
L 205.92 142.697592 
L 209.978182 143.052912 
L 214.036364 143.39916 
L 218.094545 143.728776 
L 222.152727 144.029664 
L 226.210909 144.277632 
L 230.269091 144.431856 
L 234.327273 144.407664 
L 238.385455 144.082584 
L 242.443636 143.388576 
L 246.501818 142.395192 
L 250.56 141.220368 
L 254.618182 139.941216 
L 258.676364 138.600072 
L 262.734545 137.218104 
L 266.792727 135.807408 
L 270.850909 134.377056 
L 274.909091 132.92856 
L 278.967273 131.464944 
L 283.025455 129.989232 
L 287.083636 128.707056 
L 291.141818 129.636936 
L 295.2 130.557744 
L 299.258182 131.470992 
L 303.316364 132.373656 
L 307.374545 133.262712 
L 311.432727 134.141184 
L 315.490909 135.004536 
L 319.549091 135.852768 
L 323.607273 136.68588 
L 327.665455 137.50236 
L 331.723636 138.302208 
L 335.781818 139.0824 
L 339.84 139.841424 
L 343.898182 140.576256 
L 347.956364 141.280848 
L 352.014545 141.946128 
L 356.072727 142.546392 
L 360.130909 143.033256 
L 364.189091 143.281224 
L 368.247273 143.137584 
L 372.305455 142.623504 
L 376.363636 141.90228 
L 380.421818 141.081264 
L 384.48 140.202792 
L 388.538182 139.288032 
L 392.596364 138.343032 
L 396.654545 137.376864 
L 400.712727 136.39104 
L 404.770909 135.38556 
L 408.829091 134.36496 
L 412.887273 133.326216 
L 416.945455 132.273864 
L 421.003636 131.206392 
L 425.061818 130.125312 
L 429.12 129.029112 
L 433.178182 127.920816 
L 437.236364 126.7974 
L 441.294545 125.661888 
L 445.352727 124.51428 
L 449.410909 123.353064 
L 453.469091 122.179752 
L 457.527273 120.994344 
L 461.585455 119.79684 
L 465.643636 118.585728 
L 469.701818 117.365544 
L 473.76 116.131752 
L 477.818182 114.887376 
L 481.876364 113.630904 
L 485.934545 112.36536 
L 489.992727 111.086208 
L 494.050909 109.797984 
L 498.109091 108.499176 
" clip-path="url(#p7b49a7cd36)" style="fill: none; stroke: #000000; stroke-opacity: 0.5; stroke-linecap: square"/>
   </g>
   <g id="line2d_23">
    <path d="M 92.290909 136.294272 
L 96.349091 136.291248 
L 100.407273 136.283688 
L 104.465455 136.264032 
L 108.523636 136.229256 
L 112.581818 136.1718 
L 116.64 136.085616 
L 120.698182 135.964656 
L 124.756364 135.805896 
L 128.814545 135.606312 
L 132.872727 135.367416 
L 136.930909 135.086184 
L 140.989091 134.764128 
L 145.047273 134.40276 
L 149.105455 134.003592 
L 153.163636 133.565112 
L 157.221818 133.091856 
L 161.28 132.582312 
L 165.338182 132.039504 
L 169.396364 131.463432 
L 173.454545 130.854096 
L 177.512727 130.21452 
L 181.570909 129.544704 
L 185.629091 128.84616 
L 189.687273 128.1204 
L 193.745455 127.370448 
L 197.803636 126.597816 
L 201.861818 125.804016 
L 205.92 124.996608 
L 209.978182 124.180128 
L 214.036364 123.360624 
L 218.094545 122.553216 
L 222.152727 121.776048 
L 226.210909 121.057848 
L 230.269091 120.443976 
L 234.327273 119.999448 
L 238.385455 119.795328 
L 242.443636 119.873952 
L 246.501818 120.221712 
L 250.56 120.782664 
L 254.618182 121.488768 
L 258.676364 122.288616 
L 262.734545 123.147432 
L 266.792727 124.04556 
L 270.850909 124.964856 
L 274.909091 125.896248 
L 278.967273 126.833688 
L 283.025455 127.771128 
L 287.083636 128.504448 
L 291.141818 127.00908 
L 295.2 125.50464 
L 299.258182 123.99264 
L 303.316364 122.47308 
L 307.374545 120.94596 
L 311.432727 119.414304 
L 315.490909 117.875088 
L 319.549091 116.331336 
L 323.607273 114.781536 
L 327.665455 113.228712 
L 331.723636 111.66984 
L 335.781818 110.107944 
L 339.84 108.541512 
L 343.898182 106.972056 
L 347.956364 105.398064 
L 352.014545 103.821048 
L 356.072727 102.24252 
L 360.130909 100.660968 
L 364.189091 99.076392 
L 368.247273 97.490304 
L 372.305455 95.902704 
L 376.363636 94.313592 
L 380.421818 92.722968 
L 384.48 91.133856 
L 388.538182 89.543232 
L 392.596364 87.955632 
L 396.654545 86.372568 
L 400.712727 84.800088 
L 404.770909 83.248776 
L 408.829091 81.773064 
L 412.887273 80.682912 
L 416.945455 81.080568 
L 421.003636 82.315872 
L 425.061818 83.69028 
L 429.12 85.097952 
L 433.178182 86.516208 
L 437.236364 87.935976 
L 441.294545 89.355744 
L 445.352727 90.770976 
L 449.410909 92.18016 
L 453.469091 93.584808 
L 457.527273 94.981896 
L 461.585455 96.372936 
L 465.643636 97.756416 
L 469.701818 99.130824 
L 473.76 100.49616 
L 477.818182 101.853936 
L 481.876364 103.20264 
L 485.934545 104.54076 
L 489.992727 105.87132 
L 494.050909 107.189784 
L 498.109091 108.499176 
" clip-path="url(#p7b49a7cd36)" style="fill: none; stroke: #000000; stroke-opacity: 0.5; stroke-linecap: square"/>
   </g>
   <g id="patch_3">
    <path d="M 72 384.48 
L 72 51.84 
" style="fill: none; stroke: #000000; stroke-width: 0.8; stroke-linejoin: miter; stroke-linecap: square"/>
   </g>
   <g id="patch_4">
    <path d="M 518.4 384.48 
L 518.4 51.84 
" style="fill: none; stroke: #000000; stroke-width: 0.8; stroke-linejoin: miter; stroke-linecap: square"/>
   </g>
   <g id="patch_5">
    <path d="M 72 384.48 
L 518.4 384.48 
" style="fill: none; stroke: #000000; stroke-width: 0.8; stroke-linejoin: miter; stroke-linecap: square"/>
   </g>
   <g id="patch_6">
    <path d="M 72 51.84 
L 518.4 51.84 
" style="fill: none; stroke: #000000; stroke-width: 0.8; stroke-linejoin: miter; stroke-linecap: square"/>
   </g>
  </g>
 </g>
 <defs>
  <clipPath id="p7b49a7cd36">
   <rect x="72" y="51.84" width="446.4" height="332.64"/>
  </clipPath>
 </defs>
</svg>
