<?xml version="1.0" encoding="utf-8" standalone="no"?>
<!DOCTYPE svg PUBLIC "-//W3C//DTD SVG 1.1//EN"
  "http://www.w3.org/Graphics/SVG/1.1/DTD/svg11.dtd">
<svg xmlns:xlink="http://www.w3.org/1999/xlink" width="576pt" height="432pt" viewBox="0 0 576 432" xmlns="http://www.w3.org/2000/svg" version="1.1">
 <metadata>
  <rdf:RDF xmlns:dc="http://purl.org/dc/elements/1.1/" xmlns:cc="http://creativecommons.org/ns#" xmlns:rdf="http://www.w3.org/1999/02/22-rdf-syntax-ns#">
   <cc:Work>
    <dc:type rdf:resource="http://purl.org/dc/dcmitype/StillImage"/>
    <dc:date>2023-05-03T18:03:49.793084</dc:date>
    <dc:format>image/svg+xml</dc:format>
    <dc:creator>
     <cc:Agent>
      <dc:title>Matplotlib v3.7.1, https://matplotlib.org/</dc:title>
     </cc:Agent>
    </dc:creator>
   </cc:Work>
  </rdf:RDF>
 </metadata>
 <defs>
  <style type="text/css">*{stroke-linejoin: round; stroke-linecap: butt}</style>
 </defs>
 <g id="figure_1">
  <g id="patch_1">
   <path d="M 0 432 
L 576 432 
L 576 0 
L 0 0 
z
" style="fill: #ffffff"/>
  </g>
  <g id="axes_1">
   <g id="patch_2">
    <path d="M 72 384.48 
L 518.4 384.48 
L 518.4 51.84 
L 72 51.84 
z
" style="fill: #ffffff"/>
   </g>
   <g id="matplotlib.axis_1">
    <g id="xtick_1">
     <g id="line2d_1">
      <defs>
       <path id="mee0b707f7c" d="M 0 0 
L 0 3.5 
" style="stroke: #000000; stroke-width: 0.8"/>
      </defs>
      <g>
       <use xlink:href="#mee0b707f7c" x="92.290909" y="384.48" style="stroke: #000000; stroke-width: 0.8"/>
      </g>
     </g>
     <g id="text_1">
      <!-- 0.0 -->
      <g transform="translate(84.339347 399.078438) scale(0.1 -0.1)">
       <defs>
        <path id="DejaVuSans-30" d="M 2034 4250 
Q 1547 4250 1301 3770 
Q 1056 3291 1056 2328 
Q 1056 1369 1301 889 
Q 1547 409 2034 409 
Q 2525 409 2770 889 
Q 3016 1369 3016 2328 
Q 3016 3291 2770 3770 
Q 2525 4250 2034 4250 
z
M 2034 4750 
Q 2819 4750 3233 4129 
Q 3647 3509 3647 2328 
Q 3647 1150 3233 529 
Q 2819 -91 2034 -91 
Q 1250 -91 836 529 
Q 422 1150 422 2328 
Q 422 3509 836 4129 
Q 1250 4750 2034 4750 
z
" transform="scale(0.015625)"/>
        <path id="DejaVuSans-2e" d="M 684 794 
L 1344 794 
L 1344 0 
L 684 0 
L 684 794 
z
" transform="scale(0.015625)"/>
       </defs>
       <use xlink:href="#DejaVuSans-30"/>
       <use xlink:href="#DejaVuSans-2e" x="63.623047"/>
       <use xlink:href="#DejaVuSans-30" x="95.410156"/>
      </g>
     </g>
    </g>
    <g id="xtick_2">
     <g id="line2d_2">
      <g>
       <use xlink:href="#mee0b707f7c" x="173.454545" y="384.48" style="stroke: #000000; stroke-width: 0.8"/>
      </g>
     </g>
     <g id="text_2">
      <!-- 0.2 -->
      <g transform="translate(165.502983 399.078438) scale(0.1 -0.1)">
       <defs>
        <path id="DejaVuSans-32" d="M 1228 531 
L 3431 531 
L 3431 0 
L 469 0 
L 469 531 
Q 828 903 1448 1529 
Q 2069 2156 2228 2338 
Q 2531 2678 2651 2914 
Q 2772 3150 2772 3378 
Q 2772 3750 2511 3984 
Q 2250 4219 1831 4219 
Q 1534 4219 1204 4116 
Q 875 4013 500 3803 
L 500 4441 
Q 881 4594 1212 4672 
Q 1544 4750 1819 4750 
Q 2544 4750 2975 4387 
Q 3406 4025 3406 3419 
Q 3406 3131 3298 2873 
Q 3191 2616 2906 2266 
Q 2828 2175 2409 1742 
Q 1991 1309 1228 531 
z
" transform="scale(0.015625)"/>
       </defs>
       <use xlink:href="#DejaVuSans-30"/>
       <use xlink:href="#DejaVuSans-2e" x="63.623047"/>
       <use xlink:href="#DejaVuSans-32" x="95.410156"/>
      </g>
     </g>
    </g>
    <g id="xtick_3">
     <g id="line2d_3">
      <g>
       <use xlink:href="#mee0b707f7c" x="254.618182" y="384.48" style="stroke: #000000; stroke-width: 0.8"/>
      </g>
     </g>
     <g id="text_3">
      <!-- 0.4 -->
      <g transform="translate(246.666619 399.078438) scale(0.1 -0.1)">
       <defs>
        <path id="DejaVuSans-34" d="M 2419 4116 
L 825 1625 
L 2419 1625 
L 2419 4116 
z
M 2253 4666 
L 3047 4666 
L 3047 1625 
L 3713 1625 
L 3713 1100 
L 3047 1100 
L 3047 0 
L 2419 0 
L 2419 1100 
L 313 1100 
L 313 1709 
L 2253 4666 
z
" transform="scale(0.015625)"/>
       </defs>
       <use xlink:href="#DejaVuSans-30"/>
       <use xlink:href="#DejaVuSans-2e" x="63.623047"/>
       <use xlink:href="#DejaVuSans-34" x="95.410156"/>
      </g>
     </g>
    </g>
    <g id="xtick_4">
     <g id="line2d_4">
      <g>
       <use xlink:href="#mee0b707f7c" x="335.781818" y="384.48" style="stroke: #000000; stroke-width: 0.8"/>
      </g>
     </g>
     <g id="text_4">
      <!-- 0.6 -->
      <g transform="translate(327.830256 399.078438) scale(0.1 -0.1)">
       <defs>
        <path id="DejaVuSans-36" d="M 2113 2584 
Q 1688 2584 1439 2293 
Q 1191 2003 1191 1497 
Q 1191 994 1439 701 
Q 1688 409 2113 409 
Q 2538 409 2786 701 
Q 3034 994 3034 1497 
Q 3034 2003 2786 2293 
Q 2538 2584 2113 2584 
z
M 3366 4563 
L 3366 3988 
Q 3128 4100 2886 4159 
Q 2644 4219 2406 4219 
Q 1781 4219 1451 3797 
Q 1122 3375 1075 2522 
Q 1259 2794 1537 2939 
Q 1816 3084 2150 3084 
Q 2853 3084 3261 2657 
Q 3669 2231 3669 1497 
Q 3669 778 3244 343 
Q 2819 -91 2113 -91 
Q 1303 -91 875 529 
Q 447 1150 447 2328 
Q 447 3434 972 4092 
Q 1497 4750 2381 4750 
Q 2619 4750 2861 4703 
Q 3103 4656 3366 4563 
z
" transform="scale(0.015625)"/>
       </defs>
       <use xlink:href="#DejaVuSans-30"/>
       <use xlink:href="#DejaVuSans-2e" x="63.623047"/>
       <use xlink:href="#DejaVuSans-36" x="95.410156"/>
      </g>
     </g>
    </g>
    <g id="xtick_5">
     <g id="line2d_5">
      <g>
       <use xlink:href="#mee0b707f7c" x="416.945455" y="384.48" style="stroke: #000000; stroke-width: 0.8"/>
      </g>
     </g>
     <g id="text_5">
      <!-- 0.8 -->
      <g transform="translate(408.993892 399.078438) scale(0.1 -0.1)">
       <defs>
        <path id="DejaVuSans-38" d="M 2034 2216 
Q 1584 2216 1326 1975 
Q 1069 1734 1069 1313 
Q 1069 891 1326 650 
Q 1584 409 2034 409 
Q 2484 409 2743 651 
Q 3003 894 3003 1313 
Q 3003 1734 2745 1975 
Q 2488 2216 2034 2216 
z
M 1403 2484 
Q 997 2584 770 2862 
Q 544 3141 544 3541 
Q 544 4100 942 4425 
Q 1341 4750 2034 4750 
Q 2731 4750 3128 4425 
Q 3525 4100 3525 3541 
Q 3525 3141 3298 2862 
Q 3072 2584 2669 2484 
Q 3125 2378 3379 2068 
Q 3634 1759 3634 1313 
Q 3634 634 3220 271 
Q 2806 -91 2034 -91 
Q 1263 -91 848 271 
Q 434 634 434 1313 
Q 434 1759 690 2068 
Q 947 2378 1403 2484 
z
M 1172 3481 
Q 1172 3119 1398 2916 
Q 1625 2713 2034 2713 
Q 2441 2713 2670 2916 
Q 2900 3119 2900 3481 
Q 2900 3844 2670 4047 
Q 2441 4250 2034 4250 
Q 1625 4250 1398 4047 
Q 1172 3844 1172 3481 
z
" transform="scale(0.015625)"/>
       </defs>
       <use xlink:href="#DejaVuSans-30"/>
       <use xlink:href="#DejaVuSans-2e" x="63.623047"/>
       <use xlink:href="#DejaVuSans-38" x="95.410156"/>
      </g>
     </g>
    </g>
    <g id="xtick_6">
     <g id="line2d_6">
      <g>
       <use xlink:href="#mee0b707f7c" x="498.109091" y="384.48" style="stroke: #000000; stroke-width: 0.8"/>
      </g>
     </g>
     <g id="text_6">
      <!-- 1.0 -->
      <g transform="translate(490.157528 399.078438) scale(0.1 -0.1)">
       <defs>
        <path id="DejaVuSans-31" d="M 794 531 
L 1825 531 
L 1825 4091 
L 703 3866 
L 703 4441 
L 1819 4666 
L 2450 4666 
L 2450 531 
L 3481 531 
L 3481 0 
L 794 0 
L 794 531 
z
" transform="scale(0.015625)"/>
       </defs>
       <use xlink:href="#DejaVuSans-31"/>
       <use xlink:href="#DejaVuSans-2e" x="63.623047"/>
       <use xlink:href="#DejaVuSans-30" x="95.410156"/>
      </g>
     </g>
    </g>
   </g>
   <g id="matplotlib.axis_2">
    <g id="ytick_1">
     <g id="line2d_7">
      <defs>
       <path id="mab64d12480" d="M 0 0 
L -3.5 0 
" style="stroke: #000000; stroke-width: 0.8"/>
      </defs>
      <g>
       <use xlink:href="#mab64d12480" x="72" y="369.36" style="stroke: #000000; stroke-width: 0.8"/>
      </g>
     </g>
     <g id="text_7">
      <!-- −5.0 -->
      <g transform="translate(40.717187 373.159219) scale(0.1 -0.1)">
       <defs>
        <path id="DejaVuSans-2212" d="M 678 2272 
L 4684 2272 
L 4684 1741 
L 678 1741 
L 678 2272 
z
" transform="scale(0.015625)"/>
        <path id="DejaVuSans-35" d="M 691 4666 
L 3169 4666 
L 3169 4134 
L 1269 4134 
L 1269 2991 
Q 1406 3038 1543 3061 
Q 1681 3084 1819 3084 
Q 2600 3084 3056 2656 
Q 3513 2228 3513 1497 
Q 3513 744 3044 326 
Q 2575 -91 1722 -91 
Q 1428 -91 1123 -41 
Q 819 9 494 109 
L 494 744 
Q 775 591 1075 516 
Q 1375 441 1709 441 
Q 2250 441 2565 725 
Q 2881 1009 2881 1497 
Q 2881 1984 2565 2268 
Q 2250 2553 1709 2553 
Q 1456 2553 1204 2497 
Q 953 2441 691 2322 
L 691 4666 
z
" transform="scale(0.015625)"/>
       </defs>
       <use xlink:href="#DejaVuSans-2212"/>
       <use xlink:href="#DejaVuSans-35" x="83.789062"/>
       <use xlink:href="#DejaVuSans-2e" x="147.412109"/>
       <use xlink:href="#DejaVuSans-30" x="179.199219"/>
      </g>
     </g>
    </g>
    <g id="ytick_2">
     <g id="line2d_8">
      <g>
       <use xlink:href="#mab64d12480" x="72" y="331.56" style="stroke: #000000; stroke-width: 0.8"/>
      </g>
     </g>
     <g id="text_8">
      <!-- −2.5 -->
      <g transform="translate(40.717187 335.359219) scale(0.1 -0.1)">
       <use xlink:href="#DejaVuSans-2212"/>
       <use xlink:href="#DejaVuSans-32" x="83.789062"/>
       <use xlink:href="#DejaVuSans-2e" x="147.412109"/>
       <use xlink:href="#DejaVuSans-35" x="179.199219"/>
      </g>
     </g>
    </g>
    <g id="ytick_3">
     <g id="line2d_9">
      <g>
       <use xlink:href="#mab64d12480" x="72" y="293.76" style="stroke: #000000; stroke-width: 0.8"/>
      </g>
     </g>
     <g id="text_9">
      <!-- 0.0 -->
      <g transform="translate(49.096875 297.559219) scale(0.1 -0.1)">
       <use xlink:href="#DejaVuSans-30"/>
       <use xlink:href="#DejaVuSans-2e" x="63.623047"/>
       <use xlink:href="#DejaVuSans-30" x="95.410156"/>
      </g>
     </g>
    </g>
    <g id="ytick_4">
     <g id="line2d_10">
      <g>
       <use xlink:href="#mab64d12480" x="72" y="255.96" style="stroke: #000000; stroke-width: 0.8"/>
      </g>
     </g>
     <g id="text_10">
      <!-- 2.5 -->
      <g transform="translate(49.096875 259.759219) scale(0.1 -0.1)">
       <use xlink:href="#DejaVuSans-32"/>
       <use xlink:href="#DejaVuSans-2e" x="63.623047"/>
       <use xlink:href="#DejaVuSans-35" x="95.410156"/>
      </g>
     </g>
    </g>
    <g id="ytick_5">
     <g id="line2d_11">
      <g>
       <use xlink:href="#mab64d12480" x="72" y="218.16" style="stroke: #000000; stroke-width: 0.8"/>
      </g>
     </g>
     <g id="text_11">
      <!-- 5.0 -->
      <g transform="translate(49.096875 221.959219) scale(0.1 -0.1)">
       <use xlink:href="#DejaVuSans-35"/>
       <use xlink:href="#DejaVuSans-2e" x="63.623047"/>
       <use xlink:href="#DejaVuSans-30" x="95.410156"/>
      </g>
     </g>
    </g>
    <g id="ytick_6">
     <g id="line2d_12">
      <g>
       <use xlink:href="#mab64d12480" x="72" y="180.36" style="stroke: #000000; stroke-width: 0.8"/>
      </g>
     </g>
     <g id="text_12">
      <!-- 7.5 -->
      <g transform="translate(49.096875 184.159219) scale(0.1 -0.1)">
       <defs>
        <path id="DejaVuSans-37" d="M 525 4666 
L 3525 4666 
L 3525 4397 
L 1831 0 
L 1172 0 
L 2766 4134 
L 525 4134 
L 525 4666 
z
" transform="scale(0.015625)"/>
       </defs>
       <use xlink:href="#DejaVuSans-37"/>
       <use xlink:href="#DejaVuSans-2e" x="63.623047"/>
       <use xlink:href="#DejaVuSans-35" x="95.410156"/>
      </g>
     </g>
    </g>
    <g id="ytick_7">
     <g id="line2d_13">
      <g>
       <use xlink:href="#mab64d12480" x="72" y="142.56" style="stroke: #000000; stroke-width: 0.8"/>
      </g>
     </g>
     <g id="text_13">
      <!-- 10.0 -->
      <g transform="translate(42.734375 146.359219) scale(0.1 -0.1)">
       <use xlink:href="#DejaVuSans-31"/>
       <use xlink:href="#DejaVuSans-30" x="63.623047"/>
       <use xlink:href="#DejaVuSans-2e" x="127.246094"/>
       <use xlink:href="#DejaVuSans-30" x="159.033203"/>
      </g>
     </g>
    </g>
    <g id="ytick_8">
     <g id="line2d_14">
      <g>
       <use xlink:href="#mab64d12480" x="72" y="104.76" style="stroke: #000000; stroke-width: 0.8"/>
      </g>
     </g>
     <g id="text_14">
      <!-- 12.5 -->
      <g transform="translate(42.734375 108.559219) scale(0.1 -0.1)">
       <use xlink:href="#DejaVuSans-31"/>
       <use xlink:href="#DejaVuSans-32" x="63.623047"/>
       <use xlink:href="#DejaVuSans-2e" x="127.246094"/>
       <use xlink:href="#DejaVuSans-35" x="159.033203"/>
      </g>
     </g>
    </g>
    <g id="ytick_9">
     <g id="line2d_15">
      <g>
       <use xlink:href="#mab64d12480" x="72" y="66.96" style="stroke: #000000; stroke-width: 0.8"/>
      </g>
     </g>
     <g id="text_15">
      <!-- 15.0 -->
      <g transform="translate(42.734375 70.759219) scale(0.1 -0.1)">
       <use xlink:href="#DejaVuSans-31"/>
       <use xlink:href="#DejaVuSans-35" x="63.623047"/>
       <use xlink:href="#DejaVuSans-2e" x="127.246094"/>
       <use xlink:href="#DejaVuSans-30" x="159.033203"/>
      </g>
     </g>
    </g>
   </g>
   <g id="line2d_16">
    <path d="M 92.290909 351.144936 
L 96.349091 351.141912 
L 100.407273 351.131328 
L 104.465455 351.113184 
L 108.523636 351.08748 
L 112.581818 351.054216 
L 116.64 351.014904 
L 120.698182 350.968032 
L 124.756364 350.9136 
L 128.814545 350.85312 
L 132.872727 350.78508 
L 136.930909 350.710992 
L 140.989091 350.629344 
L 145.047273 350.541648 
L 149.105455 350.449416 
L 153.163636 350.349624 
L 157.221818 350.245296 
L 161.28 350.133408 
L 165.338182 350.018496 
L 169.396364 349.897536 
L 173.454545 349.77204 
L 177.512727 349.642008 
L 181.570909 349.50744 
L 185.629091 349.369848 
L 189.687273 349.22772 
L 193.745455 349.08408 
L 197.803636 348.937416 
L 201.861818 348.787728 
L 205.92 348.636528 
L 209.978182 348.485328 
L 214.036364 348.332616 
L 218.094545 348.179904 
L 222.152727 348.027192 
L 226.210909 347.875992 
L 230.269091 347.724792 
L 234.327273 347.576616 
L 238.385455 347.431464 
L 242.443636 347.289336 
L 246.501818 347.150232 
L 250.56 347.015664 
L 254.618182 346.887144 
L 258.676364 346.76316 
L 262.734545 346.645224 
L 266.792727 346.534848 
L 270.850909 346.432032 
L 274.909091 346.336776 
L 278.967273 346.24908 
L 283.025455 346.170456 
L 287.083636 346.100904 
L 291.141818 346.040424 
L 295.2 345.990528 
L 299.258182 345.949704 
L 303.316364 345.917952 
L 307.374545 345.896784 
L 311.432727 345.8862 
L 315.490909 345.884688 
L 319.549091 345.89376 
L 323.607273 345.911904 
L 327.665455 345.93912 
L 331.723636 345.975408 
L 335.781818 346.019256 
L 339.84 346.072176 
L 343.898182 346.131144 
L 347.956364 346.199184 
L 352.014545 346.273272 
L 356.072727 346.351896 
L 360.130909 346.436568 
L 364.189091 346.527288 
L 368.247273 346.621032 
L 372.305455 346.7178 
L 376.363636 346.819104 
L 380.421818 346.92192 
L 384.48 347.026248 
L 388.538182 347.132088 
L 392.596364 347.237928 
L 396.654545 347.34528 
L 400.712727 347.452632 
L 404.770909 347.558472 
L 408.829091 347.6628 
L 412.887273 347.765616 
L 416.945455 347.865408 
L 421.003636 347.963688 
L 425.061818 348.058944 
L 429.12 348.151176 
L 433.178182 348.240384 
L 437.236364 348.325056 
L 441.294545 348.405192 
L 445.352727 348.480792 
L 449.410909 348.551856 
L 453.469091 348.618384 
L 457.527273 348.680376 
L 461.585455 348.73632 
L 465.643636 348.786216 
L 469.701818 348.831576 
L 473.76 348.870888 
L 477.818182 348.904152 
L 481.876364 348.931368 
L 485.934545 348.954048 
L 489.992727 348.969168 
L 494.050909 348.97824 
L 498.109091 348.981264 
" clip-path="url(#p0cecb0a428)" style="fill: none; stroke: #000000; stroke-opacity: 0.5; stroke-linecap: square"/>
   </g>
   <g id="line2d_17">
    <path d="M 92.290909 284.858856 
L 96.349091 284.893632 
L 100.407273 284.999472 
L 104.465455 285.174864 
L 108.523636 285.41376 
L 112.581818 285.713136 
L 116.64 286.068456 
L 120.698182 286.473672 
L 124.756364 286.924248 
L 128.814545 287.414136 
L 132.872727 287.937288 
L 136.930909 288.489168 
L 140.989091 289.063728 
L 145.047273 289.659456 
L 149.105455 290.271816 
L 153.163636 290.89476 
L 157.221818 291.528288 
L 161.28 292.167864 
L 165.338182 292.810464 
L 169.396364 293.454576 
L 173.454545 294.097176 
L 177.512727 294.738264 
L 181.570909 295.374816 
L 185.629091 296.00532 
L 189.687273 296.626752 
L 193.745455 297.239112 
L 197.803636 297.8424 
L 201.861818 298.433592 
L 205.92 299.011176 
L 209.978182 299.575152 
L 214.036364 300.122496 
L 218.094545 300.656232 
L 222.152727 301.170312 
L 226.210909 301.66776 
L 230.269091 302.145552 
L 234.327273 302.602176 
L 238.385455 303.039144 
L 242.443636 303.453432 
L 246.501818 303.84504 
L 250.56 304.212456 
L 254.618182 304.557192 
L 258.676364 304.874712 
L 262.734545 305.16804 
L 266.792727 305.43264 
L 270.850909 305.671536 
L 274.909091 305.881704 
L 278.967273 306.064656 
L 283.025455 306.217368 
L 287.083636 306.341352 
L 291.141818 306.435096 
L 295.2 306.500112 
L 299.258182 306.533376 
L 303.316364 306.537912 
L 307.374545 306.510696 
L 311.432727 306.454752 
L 315.490909 306.367056 
L 319.549091 306.250632 
L 323.607273 306.103968 
L 327.665455 305.928576 
L 331.723636 305.725968 
L 335.781818 305.49312 
L 339.84 305.233056 
L 343.898182 304.947288 
L 347.956364 304.634304 
L 352.014545 304.297128 
L 356.072727 303.934248 
L 360.130909 303.548688 
L 364.189091 303.140448 
L 368.247273 302.709528 
L 372.305455 302.258952 
L 376.363636 301.78872 
L 380.421818 301.298832 
L 384.48 300.792312 
L 388.538182 300.26916 
L 392.596364 299.7324 
L 396.654545 299.18052 
L 400.712727 298.616544 
L 404.770909 298.041984 
L 408.829091 297.45684 
L 412.887273 296.865648 
L 416.945455 296.266896 
L 421.003636 295.66512 
L 425.061818 295.06032 
L 429.12 294.457032 
L 433.178182 293.855256 
L 437.236364 293.259528 
L 441.294545 292.67136 
L 445.352727 292.093776 
L 449.410909 291.532824 
L 453.469091 290.988504 
L 457.527273 290.468376 
L 461.585455 289.975464 
L 465.643636 289.514304 
L 469.701818 289.090944 
L 473.76 288.70992 
L 477.818182 288.375768 
L 481.876364 288.094536 
L 485.934545 287.87076 
L 489.992727 287.707464 
L 494.050909 287.607672 
L 498.109091 287.574408 
" clip-path="url(#p0cecb0a428)" style="fill: none; stroke: #000000; stroke-opacity: 0.5; stroke-linecap: square"/>
   </g>
   <g id="line2d_18">
    <path d="M 92.290909 257.346504 
L 96.349091 257.304168 
L 100.407273 257.17716 
L 104.465455 256.968504 
L 108.523636 256.679712 
L 112.581818 256.318344 
L 116.64 255.887424 
L 120.698182 255.393 
L 124.756364 254.839608 
L 128.814545 254.23632 
L 132.872727 253.584648 
L 136.930909 252.893664 
L 140.989091 252.16488 
L 145.047273 251.405856 
L 149.105455 250.619616 
L 153.163636 249.810696 
L 157.221818 248.983632 
L 161.28 248.139936 
L 165.338182 247.284144 
L 169.396364 246.41928 
L 173.454545 245.546856 
L 177.512727 244.67292 
L 181.570909 243.797472 
L 185.629091 242.925048 
L 189.687273 242.05716 
L 193.745455 241.196832 
L 197.803636 240.347088 
L 201.861818 239.510952 
L 205.92 238.69296 
L 209.978182 237.893112 
L 214.036364 237.115944 
L 218.094545 236.365992 
L 222.152727 235.644768 
L 226.210909 234.956808 
L 230.269091 234.306648 
L 234.327273 233.6958 
L 238.385455 233.1288 
L 242.443636 232.608672 
L 246.501818 232.136928 
L 250.56 231.716592 
L 254.618182 231.347664 
L 258.676364 231.030144 
L 262.734545 230.761008 
L 266.792727 230.541768 
L 270.850909 230.3694 
L 274.909091 230.239368 
L 278.967273 230.151672 
L 283.025455 230.101776 
L 287.083636 230.08968 
L 291.141818 230.113872 
L 295.2 230.17284 
L 299.258182 230.266584 
L 303.316364 230.393592 
L 307.374545 230.556888 
L 311.432727 230.75496 
L 315.490909 230.987808 
L 319.549091 231.259968 
L 323.607273 231.569928 
L 327.665455 231.917688 
L 331.723636 232.307784 
L 335.781818 232.738704 
L 339.84 233.208936 
L 343.898182 233.719992 
L 347.956364 234.271872 
L 352.014545 234.861552 
L 356.072727 235.489032 
L 360.130909 236.149776 
L 364.189091 236.843784 
L 368.247273 237.568032 
L 372.305455 238.319496 
L 376.363636 239.095152 
L 380.421818 239.893488 
L 384.48 240.709968 
L 388.538182 241.54308 
L 392.596364 242.3898 
L 396.654545 243.248616 
L 400.712727 244.114992 
L 404.770909 244.987416 
L 408.829091 245.862864 
L 412.887273 246.738312 
L 416.945455 247.612248 
L 421.003636 248.480136 
L 425.061818 249.341976 
L 429.12 250.19172 
L 433.178182 251.029368 
L 437.236364 251.848872 
L 441.294545 252.64872 
L 445.352727 253.424376 
L 449.410909 254.171304 
L 453.469091 254.88648 
L 457.527273 255.565368 
L 461.585455 256.20192 
L 465.643636 256.7916 
L 469.701818 257.329872 
L 473.76 257.8122 
L 477.818182 258.231024 
L 481.876364 258.581808 
L 485.934545 258.860016 
L 489.992727 259.061112 
L 494.050909 259.183584 
L 498.109091 259.224408 
" clip-path="url(#p0cecb0a428)" style="fill: none; stroke: #000000; stroke-opacity: 0.5; stroke-linecap: square"/>
   </g>
   <g id="line2d_19">
    <path d="M 92.290909 228.680496 
L 96.349091 228.677472 
L 100.407273 228.669912 
L 104.465455 228.656304 
L 108.523636 228.639672 
L 112.581818 228.61548 
L 116.64 228.588264 
L 120.698182 228.555 
L 124.756364 228.5172 
L 128.814545 228.473352 
L 132.872727 228.42648 
L 136.930909 228.37356 
L 140.989091 228.317616 
L 145.047273 228.257136 
L 149.105455 228.190608 
L 153.163636 228.121056 
L 157.221818 228.04848 
L 161.28 227.971368 
L 165.338182 227.88972 
L 169.396364 227.805048 
L 173.454545 227.717352 
L 177.512727 227.62512 
L 181.570909 227.529864 
L 185.629091 227.431584 
L 189.687273 227.33028 
L 193.745455 227.22444 
L 197.803636 227.115576 
L 201.861818 227.003688 
L 205.92 226.887264 
L 209.978182 226.767816 
L 214.036364 226.64232 
L 218.094545 226.512288 
L 222.152727 226.37772 
L 226.210909 226.235592 
L 230.269091 226.087416 
L 234.327273 225.933192 
L 238.385455 225.769896 
L 242.443636 225.59904 
L 246.501818 225.422136 
L 250.56 225.239184 
L 254.618182 225.053208 
L 258.676364 224.867232 
L 262.734545 224.68428 
L 266.792727 224.508888 
L 270.850909 224.345592 
L 274.909091 224.198928 
L 278.967273 224.073432 
L 283.025455 223.972128 
L 287.083636 223.89804 
L 291.141818 223.854192 
L 295.2 223.840584 
L 299.258182 223.857216 
L 303.316364 223.9056 
L 307.374545 223.984224 
L 311.432727 224.088552 
L 315.490909 224.218584 
L 319.549091 224.371296 
L 323.607273 224.542152 
L 327.665455 224.72964 
L 331.723636 224.927712 
L 335.781818 225.134856 
L 339.84 225.346536 
L 343.898182 225.562752 
L 347.956364 225.777456 
L 352.014545 225.99216 
L 356.072727 226.20384 
L 360.130909 226.412496 
L 364.189091 226.616616 
L 368.247273 226.8162 
L 372.305455 227.009736 
L 376.363636 227.197224 
L 380.421818 227.380176 
L 384.48 227.55708 
L 388.538182 227.729448 
L 392.596364 227.895768 
L 396.654545 228.05604 
L 400.712727 228.210264 
L 404.770909 228.359952 
L 408.829091 228.503592 
L 412.887273 228.641184 
L 416.945455 228.77424 
L 421.003636 228.901248 
L 425.061818 229.022208 
L 429.12 229.13712 
L 433.178182 229.245984 
L 437.236364 229.3488 
L 441.294545 229.445568 
L 445.352727 229.534776 
L 449.410909 229.619448 
L 453.469091 229.69656 
L 457.527273 229.767624 
L 461.585455 229.83264 
L 465.643636 229.891608 
L 469.701818 229.943016 
L 473.76 229.986864 
L 477.818182 230.024664 
L 481.876364 230.056416 
L 485.934545 230.080608 
L 489.992727 230.09724 
L 494.050909 230.107824 
L 498.109091 230.110848 
" clip-path="url(#p0cecb0a428)" style="fill: none; stroke: #000000; stroke-opacity: 0.5; stroke-linecap: square"/>
   </g>
   <g id="line2d_20">
    <path d="M 92.290909 157.510656 
L 96.349091 157.512168 
L 100.407273 157.516704 
L 104.465455 157.524264 
L 108.523636 157.53636 
L 112.581818 157.556016 
L 116.64 157.586256 
L 120.698182 157.633128 
L 124.756364 157.701168 
L 128.814545 157.80096 
L 132.872727 157.946112 
L 136.930909 158.150232 
L 140.989091 158.42844 
L 145.047273 158.792832 
L 149.105455 159.241896 
L 153.163636 159.763536 
L 157.221818 160.345656 
L 161.28 160.967088 
L 165.338182 161.615736 
L 169.396364 162.279504 
L 173.454545 162.950832 
L 177.512727 163.62216 
L 181.570909 164.28744 
L 185.629091 164.94516 
L 189.687273 165.592296 
L 193.745455 166.225824 
L 197.803636 166.844232 
L 201.861818 167.444496 
L 205.92 168.028128 
L 209.978182 168.590592 
L 214.036364 169.131888 
L 218.094545 169.653528 
L 222.152727 170.150976 
L 226.210909 170.625744 
L 230.269091 171.077832 
L 234.327273 171.502704 
L 238.385455 171.903384 
L 242.443636 172.27836 
L 246.501818 172.62612 
L 250.56 172.948176 
L 254.618182 173.239992 
L 258.676364 173.506104 
L 262.734545 173.741976 
L 266.792727 173.947608 
L 270.850909 174.124512 
L 274.909091 174.272688 
L 278.967273 174.3876 
L 283.025455 174.473784 
L 287.083636 174.528216 
L 291.141818 174.550896 
L 295.2 174.541824 
L 299.258182 174.501 
L 303.316364 174.429936 
L 307.374545 174.325608 
L 311.432727 174.189528 
L 315.490909 174.023208 
L 319.549091 173.826648 
L 323.607273 173.598336 
L 327.665455 173.339784 
L 331.723636 173.052504 
L 335.781818 172.734984 
L 339.84 172.390248 
L 343.898182 172.016784 
L 347.956364 171.617616 
L 352.014545 171.191232 
L 356.072727 170.739144 
L 360.130909 170.262864 
L 364.189091 169.762392 
L 368.247273 169.240752 
L 372.305455 168.696432 
L 376.363636 168.132456 
L 380.421818 167.548824 
L 384.48 166.94856 
L 388.538182 166.331664 
L 392.596364 165.702672 
L 396.654545 165.061584 
L 400.712727 164.414448 
L 404.770909 163.762776 
L 408.829091 163.114128 
L 412.887273 162.476064 
L 416.945455 161.857656 
L 421.003636 161.272512 
L 425.061818 160.735752 
L 429.12 160.26552 
L 433.178182 159.873912 
L 437.236364 159.566976 
L 441.294545 159.340176 
L 445.352727 159.181416 
L 449.410909 159.075576 
L 453.469091 159.007536 
L 457.527273 158.969736 
L 461.585455 158.948568 
L 465.643636 158.941008 
L 469.701818 158.94252 
L 473.76 158.947056 
L 477.818182 158.956128 
L 481.876364 158.963688 
L 485.934545 158.971248 
L 489.992727 158.977296 
L 494.050909 158.981832 
L 498.109091 158.981832 
" clip-path="url(#p0cecb0a428)" style="fill: none; stroke: #000000; stroke-opacity: 0.5; stroke-linecap: square"/>
   </g>
   <g id="line2d_21">
    <path d="M 92.290909 148.685112 
L 96.349091 148.75164 
L 100.407273 148.9482 
L 104.465455 149.261184 
L 108.523636 149.67396 
L 112.581818 150.163848 
L 116.64 150.711192 
L 120.698182 151.294824 
L 124.756364 151.895088 
L 128.814545 152.489304 
L 132.872727 153.057816 
L 136.930909 153.577944 
L 140.989091 154.025496 
L 145.047273 154.389888 
L 149.105455 154.666584 
L 153.163636 154.86012 
L 157.221818 154.987128 
L 161.28 155.062728 
L 165.338182 155.099016 
L 169.396364 155.105064 
L 173.454545 155.089944 
L 177.512727 155.059704 
L 181.570909 155.017368 
L 185.629091 154.96596 
L 189.687273 154.910016 
L 193.745455 154.851048 
L 197.803636 154.789056 
L 201.861818 154.728576 
L 205.92 154.67112 
L 209.978182 154.615176 
L 214.036364 154.56528 
L 218.094545 154.521432 
L 222.152727 154.486656 
L 226.210909 154.45944 
L 230.269091 154.442808 
L 234.327273 154.438272 
L 238.385455 154.445832 
L 242.443636 154.465488 
L 246.501818 154.498752 
L 250.56 154.5426 
L 254.618182 154.59552 
L 258.676364 154.657512 
L 262.734545 154.722528 
L 266.792727 154.787544 
L 270.850909 154.848024 
L 274.909091 154.899432 
L 278.967273 154.940256 
L 283.025455 154.964448 
L 287.083636 154.970496 
L 291.141818 154.9584 
L 295.2 154.926648 
L 299.258182 154.878264 
L 303.316364 154.81476 
L 307.374545 154.740672 
L 311.432727 154.660536 
L 315.490909 154.581912 
L 319.549091 154.509336 
L 323.607273 154.448856 
L 327.665455 154.401984 
L 331.723636 154.374768 
L 335.781818 154.365696 
L 339.84 154.37628 
L 343.898182 154.405008 
L 347.956364 154.450368 
L 352.014545 154.510848 
L 356.072727 154.583424 
L 360.130909 154.668096 
L 364.189091 154.758816 
L 368.247273 154.857096 
L 372.305455 154.959912 
L 376.363636 155.065752 
L 380.421818 155.171592 
L 384.48 155.27592 
L 388.538182 155.375712 
L 392.596364 155.470968 
L 396.654545 155.557152 
L 400.712727 155.63124 
L 404.770909 155.690208 
L 408.829091 155.726496 
L 412.887273 155.732544 
L 416.945455 155.702304 
L 421.003636 155.619144 
L 425.061818 155.470968 
L 429.12 155.241144 
L 433.178182 154.916064 
L 437.236364 154.494216 
L 441.294545 153.980136 
L 445.352727 153.388944 
L 449.410909 152.738784 
L 453.469091 152.044776 
L 457.527273 151.326576 
L 461.585455 150.594768 
L 465.643636 149.865984 
L 469.701818 149.153832 
L 473.76 148.47192 
L 477.818182 147.838392 
L 481.876364 147.272904 
L 485.934545 146.798136 
L 489.992727 146.435256 
L 494.050909 146.208456 
L 498.109091 146.129832 
" clip-path="url(#p0cecb0a428)" style="fill: none; stroke: #000000; stroke-opacity: 0.5; stroke-linecap: square"/>
   </g>
   <g id="line2d_22">
    <path d="M 92.290909 131.88528 
L 96.349091 131.800608 
L 100.407273 131.55264 
L 104.465455 131.15196 
L 108.523636 130.618224 
L 112.581818 129.971088 
L 116.64 129.230208 
L 120.698182 128.418264 
L 124.756364 127.559448 
L 128.814545 126.684 
L 132.872727 125.841816 
L 136.930909 125.132688 
L 140.989091 124.745616 
L 145.047273 124.859016 
L 149.105455 125.407872 
L 153.163636 126.197136 
L 157.221818 127.105848 
L 161.28 128.07504 
L 165.338182 129.075984 
L 169.396364 130.092048 
L 173.454545 131.117184 
L 177.512727 132.140808 
L 181.570909 133.159896 
L 185.629091 134.171424 
L 189.687273 135.169344 
L 193.745455 136.153656 
L 197.803636 137.118312 
L 201.861818 138.063312 
L 205.92 138.98412 
L 209.978182 139.877712 
L 214.036364 140.742576 
L 218.094545 141.575688 
L 222.152727 142.372512 
L 226.210909 143.133048 
L 230.269091 143.851248 
L 234.327273 144.5256 
L 238.385455 145.154592 
L 242.443636 145.7352 
L 246.501818 146.267424 
L 250.56 146.746728 
L 254.618182 147.176136 
L 258.676364 147.555648 
L 262.734545 147.885264 
L 266.792727 148.16952 
L 270.850909 148.41144 
L 274.909091 148.611024 
L 278.967273 148.77432 
L 283.025455 148.90284 
L 287.083636 148.996584 
L 291.141818 149.057064 
L 295.2 149.085792 
L 299.258182 149.079744 
L 303.316364 149.035896 
L 307.374545 148.952736 
L 311.432727 148.824216 
L 315.490909 148.6458 
L 319.549091 148.412952 
L 323.607273 148.12416 
L 327.665455 147.773376 
L 331.723636 147.3606 
L 335.781818 146.887344 
L 339.84 146.353608 
L 343.898182 145.763928 
L 347.956364 145.119816 
L 352.014545 144.425808 
L 356.072727 143.68644 
L 360.130909 142.903224 
L 364.189091 142.080696 
L 368.247273 141.22188 
L 372.305455 140.3298 
L 376.363636 139.40748 
L 380.421818 138.459456 
L 384.48 137.485728 
L 388.538182 136.48932 
L 392.596364 135.474768 
L 396.654545 134.442072 
L 400.712727 133.395768 
L 404.770909 132.337368 
L 408.829091 131.268384 
L 412.887273 130.194864 
L 416.945455 129.11832 
L 421.003636 128.0448 
L 425.061818 126.980352 
L 429.12 125.934048 
L 433.178182 124.92252 
L 437.236364 123.979032 
L 441.294545 123.171624 
L 445.352727 122.645448 
L 449.410909 122.621256 
L 453.469091 123.120216 
L 457.527273 123.91704 
L 461.585455 124.825752 
L 465.643636 125.758656 
L 469.701818 126.671904 
L 473.76 127.536768 
L 477.818182 128.330568 
L 481.876364 129.029112 
L 485.934545 129.608208 
L 489.992727 130.045176 
L 494.050909 130.317336 
L 498.109091 130.41108 
" clip-path="url(#p0cecb0a428)" style="fill: none; stroke: #000000; stroke-opacity: 0.5; stroke-linecap: square"/>
   </g>
   <g id="line2d_23">
    <path d="M 92.290909 114.200928 
L 96.349091 114.271992 
L 100.407273 114.486696 
L 104.465455 114.832944 
L 108.523636 115.300152 
L 112.581818 115.868664 
L 116.64 116.52336 
L 120.698182 117.243072 
L 124.756364 118.002096 
L 128.814545 118.771704 
L 132.872727 119.498976 
L 136.930909 120.08412 
L 140.989091 120.335112 
L 145.047273 120.073536 
L 149.105455 119.362896 
L 153.163636 118.395216 
L 157.221818 117.291456 
L 161.28 116.110584 
L 165.338182 114.878304 
L 169.396364 113.609736 
L 173.454545 112.313952 
L 177.512727 110.997 
L 181.570909 109.661904 
L 185.629091 108.314712 
L 189.687273 106.955424 
L 193.745455 105.588576 
L 197.803636 104.217192 
L 201.861818 102.842784 
L 205.92 101.4714 
L 209.978182 100.10304 
L 214.036364 98.745264 
L 218.094545 97.401096 
L 222.152727 96.076584 
L 226.210909 94.779288 
L 230.269091 93.516768 
L 234.327273 92.299608 
L 238.385455 91.138392 
L 242.443636 90.046728 
L 246.501818 89.036712 
L 250.56 88.12044 
L 254.618182 87.310008 
L 258.676364 86.609952 
L 262.734545 86.021784 
L 266.792727 85.539456 
L 270.850909 85.153896 
L 274.909091 84.849984 
L 278.967273 84.614112 
L 283.025455 84.435696 
L 287.083636 84.299616 
L 291.141818 84.199824 
L 295.2 84.130272 
L 299.258182 84.087936 
L 303.316364 84.074328 
L 307.374545 84.09096 
L 311.432727 84.14388 
L 315.490909 84.245184 
L 319.549091 84.405456 
L 323.607273 84.639816 
L 327.665455 84.963384 
L 331.723636 85.39128 
L 335.781818 85.934088 
L 339.84 86.597856 
L 343.898182 87.382584 
L 347.956364 88.280712 
L 352.014545 89.280144 
L 356.072727 90.36576 
L 360.130909 91.525464 
L 364.189091 92.742624 
L 368.247273 94.005144 
L 372.305455 95.305464 
L 376.363636 96.631488 
L 380.421818 97.97868 
L 384.48 99.33948 
L 388.538182 100.709352 
L 392.596364 102.08376 
L 396.654545 103.45968 
L 400.712727 104.832576 
L 404.770909 106.199424 
L 408.829091 107.558712 
L 412.887273 108.905904 
L 416.945455 110.237976 
L 421.003636 111.54888 
L 425.061818 112.835592 
L 429.12 114.086016 
L 433.178182 115.285032 
L 437.236364 116.4024 
L 441.294545 117.371592 
L 445.352727 118.044432 
L 449.410909 118.206216 
L 453.469091 117.832752 
L 457.527273 117.155376 
L 461.585455 116.358552 
L 465.643636 115.531488 
L 469.701818 114.721056 
L 473.76 113.955984 
L 477.818182 113.258952 
L 481.876364 112.65264 
L 485.934545 112.15368 
L 489.992727 111.78324 
L 494.050909 111.553416 
L 498.109091 111.476304 
" clip-path="url(#p0cecb0a428)" style="fill: none; stroke: #000000; stroke-opacity: 0.5; stroke-linecap: square"/>
   </g>
   <g id="patch_3">
    <path d="M 72 384.48 
L 72 51.84 
" style="fill: none; stroke: #000000; stroke-width: 0.8; stroke-linejoin: miter; stroke-linecap: square"/>
   </g>
   <g id="patch_4">
    <path d="M 518.4 384.48 
L 518.4 51.84 
" style="fill: none; stroke: #000000; stroke-width: 0.8; stroke-linejoin: miter; stroke-linecap: square"/>
   </g>
   <g id="patch_5">
    <path d="M 72 384.48 
L 518.4 384.48 
" style="fill: none; stroke: #000000; stroke-width: 0.8; stroke-linejoin: miter; stroke-linecap: square"/>
   </g>
   <g id="patch_6">
    <path d="M 72 51.84 
L 518.4 51.84 
" style="fill: none; stroke: #000000; stroke-width: 0.8; stroke-linejoin: miter; stroke-linecap: square"/>
   </g>
  </g>
 </g>
 <defs>
  <clipPath id="p0cecb0a428">
   <rect x="72" y="51.84" width="446.4" height="332.64"/>
  </clipPath>
 </defs>
</svg>
