<?xml version="1.0" encoding="utf-8" standalone="no"?>
<!DOCTYPE svg PUBLIC "-//W3C//DTD SVG 1.1//EN"
  "http://www.w3.org/Graphics/SVG/1.1/DTD/svg11.dtd">
<svg xmlns:xlink="http://www.w3.org/1999/xlink" width="576pt" height="432pt" viewBox="0 0 576 432" xmlns="http://www.w3.org/2000/svg" version="1.1">
 <metadata>
  <rdf:RDF xmlns:dc="http://purl.org/dc/elements/1.1/" xmlns:cc="http://creativecommons.org/ns#" xmlns:rdf="http://www.w3.org/1999/02/22-rdf-syntax-ns#">
   <cc:Work>
    <dc:type rdf:resource="http://purl.org/dc/dcmitype/StillImage"/>
    <dc:date>2023-05-03T14:25:46.864602</dc:date>
    <dc:format>image/svg+xml</dc:format>
    <dc:creator>
     <cc:Agent>
      <dc:title>Matplotlib v3.7.1, https://matplotlib.org/</dc:title>
     </cc:Agent>
    </dc:creator>
   </cc:Work>
  </rdf:RDF>
 </metadata>
 <defs>
  <style type="text/css">*{stroke-linejoin: round; stroke-linecap: butt}</style>
 </defs>
 <g id="figure_1">
  <g id="patch_1">
   <path d="M 0 432 
L 576 432 
L 576 0 
L 0 0 
z
" style="fill: #ffffff"/>
  </g>
  <g id="axes_1">
   <g id="patch_2">
    <path d="M 72 384.48 
L 518.4 384.48 
L 518.4 51.84 
L 72 51.84 
z
" style="fill: #ffffff"/>
   </g>
   <g id="matplotlib.axis_1">
    <g id="xtick_1">
     <g id="line2d_1">
      <defs>
       <path id="m991c975ec1" d="M 0 0 
L 0 3.5 
" style="stroke: #000000; stroke-width: 0.8"/>
      </defs>
      <g>
       <use xlink:href="#m991c975ec1" x="92.290909" y="384.48" style="stroke: #000000; stroke-width: 0.8"/>
      </g>
     </g>
     <g id="text_1">
      <!-- 0.0 -->
      <g transform="translate(84.339347 399.078438) scale(0.1 -0.1)">
       <defs>
        <path id="DejaVuSans-30" d="M 2034 4250 
Q 1547 4250 1301 3770 
Q 1056 3291 1056 2328 
Q 1056 1369 1301 889 
Q 1547 409 2034 409 
Q 2525 409 2770 889 
Q 3016 1369 3016 2328 
Q 3016 3291 2770 3770 
Q 2525 4250 2034 4250 
z
M 2034 4750 
Q 2819 4750 3233 4129 
Q 3647 3509 3647 2328 
Q 3647 1150 3233 529 
Q 2819 -91 2034 -91 
Q 1250 -91 836 529 
Q 422 1150 422 2328 
Q 422 3509 836 4129 
Q 1250 4750 2034 4750 
z
" transform="scale(0.015625)"/>
        <path id="DejaVuSans-2e" d="M 684 794 
L 1344 794 
L 1344 0 
L 684 0 
L 684 794 
z
" transform="scale(0.015625)"/>
       </defs>
       <use xlink:href="#DejaVuSans-30"/>
       <use xlink:href="#DejaVuSans-2e" x="63.623047"/>
       <use xlink:href="#DejaVuSans-30" x="95.410156"/>
      </g>
     </g>
    </g>
    <g id="xtick_2">
     <g id="line2d_2">
      <g>
       <use xlink:href="#m991c975ec1" x="173.454545" y="384.48" style="stroke: #000000; stroke-width: 0.8"/>
      </g>
     </g>
     <g id="text_2">
      <!-- 0.2 -->
      <g transform="translate(165.502983 399.078438) scale(0.1 -0.1)">
       <defs>
        <path id="DejaVuSans-32" d="M 1228 531 
L 3431 531 
L 3431 0 
L 469 0 
L 469 531 
Q 828 903 1448 1529 
Q 2069 2156 2228 2338 
Q 2531 2678 2651 2914 
Q 2772 3150 2772 3378 
Q 2772 3750 2511 3984 
Q 2250 4219 1831 4219 
Q 1534 4219 1204 4116 
Q 875 4013 500 3803 
L 500 4441 
Q 881 4594 1212 4672 
Q 1544 4750 1819 4750 
Q 2544 4750 2975 4387 
Q 3406 4025 3406 3419 
Q 3406 3131 3298 2873 
Q 3191 2616 2906 2266 
Q 2828 2175 2409 1742 
Q 1991 1309 1228 531 
z
" transform="scale(0.015625)"/>
       </defs>
       <use xlink:href="#DejaVuSans-30"/>
       <use xlink:href="#DejaVuSans-2e" x="63.623047"/>
       <use xlink:href="#DejaVuSans-32" x="95.410156"/>
      </g>
     </g>
    </g>
    <g id="xtick_3">
     <g id="line2d_3">
      <g>
       <use xlink:href="#m991c975ec1" x="254.618182" y="384.48" style="stroke: #000000; stroke-width: 0.8"/>
      </g>
     </g>
     <g id="text_3">
      <!-- 0.4 -->
      <g transform="translate(246.666619 399.078438) scale(0.1 -0.1)">
       <defs>
        <path id="DejaVuSans-34" d="M 2419 4116 
L 825 1625 
L 2419 1625 
L 2419 4116 
z
M 2253 4666 
L 3047 4666 
L 3047 1625 
L 3713 1625 
L 3713 1100 
L 3047 1100 
L 3047 0 
L 2419 0 
L 2419 1100 
L 313 1100 
L 313 1709 
L 2253 4666 
z
" transform="scale(0.015625)"/>
       </defs>
       <use xlink:href="#DejaVuSans-30"/>
       <use xlink:href="#DejaVuSans-2e" x="63.623047"/>
       <use xlink:href="#DejaVuSans-34" x="95.410156"/>
      </g>
     </g>
    </g>
    <g id="xtick_4">
     <g id="line2d_4">
      <g>
       <use xlink:href="#m991c975ec1" x="335.781818" y="384.48" style="stroke: #000000; stroke-width: 0.8"/>
      </g>
     </g>
     <g id="text_4">
      <!-- 0.6 -->
      <g transform="translate(327.830256 399.078438) scale(0.1 -0.1)">
       <defs>
        <path id="DejaVuSans-36" d="M 2113 2584 
Q 1688 2584 1439 2293 
Q 1191 2003 1191 1497 
Q 1191 994 1439 701 
Q 1688 409 2113 409 
Q 2538 409 2786 701 
Q 3034 994 3034 1497 
Q 3034 2003 2786 2293 
Q 2538 2584 2113 2584 
z
M 3366 4563 
L 3366 3988 
Q 3128 4100 2886 4159 
Q 2644 4219 2406 4219 
Q 1781 4219 1451 3797 
Q 1122 3375 1075 2522 
Q 1259 2794 1537 2939 
Q 1816 3084 2150 3084 
Q 2853 3084 3261 2657 
Q 3669 2231 3669 1497 
Q 3669 778 3244 343 
Q 2819 -91 2113 -91 
Q 1303 -91 875 529 
Q 447 1150 447 2328 
Q 447 3434 972 4092 
Q 1497 4750 2381 4750 
Q 2619 4750 2861 4703 
Q 3103 4656 3366 4563 
z
" transform="scale(0.015625)"/>
       </defs>
       <use xlink:href="#DejaVuSans-30"/>
       <use xlink:href="#DejaVuSans-2e" x="63.623047"/>
       <use xlink:href="#DejaVuSans-36" x="95.410156"/>
      </g>
     </g>
    </g>
    <g id="xtick_5">
     <g id="line2d_5">
      <g>
       <use xlink:href="#m991c975ec1" x="416.945455" y="384.48" style="stroke: #000000; stroke-width: 0.8"/>
      </g>
     </g>
     <g id="text_5">
      <!-- 0.8 -->
      <g transform="translate(408.993892 399.078438) scale(0.1 -0.1)">
       <defs>
        <path id="DejaVuSans-38" d="M 2034 2216 
Q 1584 2216 1326 1975 
Q 1069 1734 1069 1313 
Q 1069 891 1326 650 
Q 1584 409 2034 409 
Q 2484 409 2743 651 
Q 3003 894 3003 1313 
Q 3003 1734 2745 1975 
Q 2488 2216 2034 2216 
z
M 1403 2484 
Q 997 2584 770 2862 
Q 544 3141 544 3541 
Q 544 4100 942 4425 
Q 1341 4750 2034 4750 
Q 2731 4750 3128 4425 
Q 3525 4100 3525 3541 
Q 3525 3141 3298 2862 
Q 3072 2584 2669 2484 
Q 3125 2378 3379 2068 
Q 3634 1759 3634 1313 
Q 3634 634 3220 271 
Q 2806 -91 2034 -91 
Q 1263 -91 848 271 
Q 434 634 434 1313 
Q 434 1759 690 2068 
Q 947 2378 1403 2484 
z
M 1172 3481 
Q 1172 3119 1398 2916 
Q 1625 2713 2034 2713 
Q 2441 2713 2670 2916 
Q 2900 3119 2900 3481 
Q 2900 3844 2670 4047 
Q 2441 4250 2034 4250 
Q 1625 4250 1398 4047 
Q 1172 3844 1172 3481 
z
" transform="scale(0.015625)"/>
       </defs>
       <use xlink:href="#DejaVuSans-30"/>
       <use xlink:href="#DejaVuSans-2e" x="63.623047"/>
       <use xlink:href="#DejaVuSans-38" x="95.410156"/>
      </g>
     </g>
    </g>
    <g id="xtick_6">
     <g id="line2d_6">
      <g>
       <use xlink:href="#m991c975ec1" x="498.109091" y="384.48" style="stroke: #000000; stroke-width: 0.8"/>
      </g>
     </g>
     <g id="text_6">
      <!-- 1.0 -->
      <g transform="translate(490.157528 399.078438) scale(0.1 -0.1)">
       <defs>
        <path id="DejaVuSans-31" d="M 794 531 
L 1825 531 
L 1825 4091 
L 703 3866 
L 703 4441 
L 1819 4666 
L 2450 4666 
L 2450 531 
L 3481 531 
L 3481 0 
L 794 0 
L 794 531 
z
" transform="scale(0.015625)"/>
       </defs>
       <use xlink:href="#DejaVuSans-31"/>
       <use xlink:href="#DejaVuSans-2e" x="63.623047"/>
       <use xlink:href="#DejaVuSans-30" x="95.410156"/>
      </g>
     </g>
    </g>
   </g>
   <g id="matplotlib.axis_2">
    <g id="ytick_1">
     <g id="line2d_7">
      <defs>
       <path id="m4cbfe72fe6" d="M 0 0 
L -3.5 0 
" style="stroke: #000000; stroke-width: 0.8"/>
      </defs>
      <g>
       <use xlink:href="#m4cbfe72fe6" x="72" y="369.36" style="stroke: #000000; stroke-width: 0.8"/>
      </g>
     </g>
     <g id="text_7">
      <!-- −5.0 -->
      <g transform="translate(40.717187 373.159219) scale(0.1 -0.1)">
       <defs>
        <path id="DejaVuSans-2212" d="M 678 2272 
L 4684 2272 
L 4684 1741 
L 678 1741 
L 678 2272 
z
" transform="scale(0.015625)"/>
        <path id="DejaVuSans-35" d="M 691 4666 
L 3169 4666 
L 3169 4134 
L 1269 4134 
L 1269 2991 
Q 1406 3038 1543 3061 
Q 1681 3084 1819 3084 
Q 2600 3084 3056 2656 
Q 3513 2228 3513 1497 
Q 3513 744 3044 326 
Q 2575 -91 1722 -91 
Q 1428 -91 1123 -41 
Q 819 9 494 109 
L 494 744 
Q 775 591 1075 516 
Q 1375 441 1709 441 
Q 2250 441 2565 725 
Q 2881 1009 2881 1497 
Q 2881 1984 2565 2268 
Q 2250 2553 1709 2553 
Q 1456 2553 1204 2497 
Q 953 2441 691 2322 
L 691 4666 
z
" transform="scale(0.015625)"/>
       </defs>
       <use xlink:href="#DejaVuSans-2212"/>
       <use xlink:href="#DejaVuSans-35" x="83.789062"/>
       <use xlink:href="#DejaVuSans-2e" x="147.412109"/>
       <use xlink:href="#DejaVuSans-30" x="179.199219"/>
      </g>
     </g>
    </g>
    <g id="ytick_2">
     <g id="line2d_8">
      <g>
       <use xlink:href="#m4cbfe72fe6" x="72" y="331.56" style="stroke: #000000; stroke-width: 0.8"/>
      </g>
     </g>
     <g id="text_8">
      <!-- −2.5 -->
      <g transform="translate(40.717187 335.359219) scale(0.1 -0.1)">
       <use xlink:href="#DejaVuSans-2212"/>
       <use xlink:href="#DejaVuSans-32" x="83.789062"/>
       <use xlink:href="#DejaVuSans-2e" x="147.412109"/>
       <use xlink:href="#DejaVuSans-35" x="179.199219"/>
      </g>
     </g>
    </g>
    <g id="ytick_3">
     <g id="line2d_9">
      <g>
       <use xlink:href="#m4cbfe72fe6" x="72" y="293.76" style="stroke: #000000; stroke-width: 0.8"/>
      </g>
     </g>
     <g id="text_9">
      <!-- 0.0 -->
      <g transform="translate(49.096875 297.559219) scale(0.1 -0.1)">
       <use xlink:href="#DejaVuSans-30"/>
       <use xlink:href="#DejaVuSans-2e" x="63.623047"/>
       <use xlink:href="#DejaVuSans-30" x="95.410156"/>
      </g>
     </g>
    </g>
    <g id="ytick_4">
     <g id="line2d_10">
      <g>
       <use xlink:href="#m4cbfe72fe6" x="72" y="255.96" style="stroke: #000000; stroke-width: 0.8"/>
      </g>
     </g>
     <g id="text_10">
      <!-- 2.5 -->
      <g transform="translate(49.096875 259.759219) scale(0.1 -0.1)">
       <use xlink:href="#DejaVuSans-32"/>
       <use xlink:href="#DejaVuSans-2e" x="63.623047"/>
       <use xlink:href="#DejaVuSans-35" x="95.410156"/>
      </g>
     </g>
    </g>
    <g id="ytick_5">
     <g id="line2d_11">
      <g>
       <use xlink:href="#m4cbfe72fe6" x="72" y="218.16" style="stroke: #000000; stroke-width: 0.8"/>
      </g>
     </g>
     <g id="text_11">
      <!-- 5.0 -->
      <g transform="translate(49.096875 221.959219) scale(0.1 -0.1)">
       <use xlink:href="#DejaVuSans-35"/>
       <use xlink:href="#DejaVuSans-2e" x="63.623047"/>
       <use xlink:href="#DejaVuSans-30" x="95.410156"/>
      </g>
     </g>
    </g>
    <g id="ytick_6">
     <g id="line2d_12">
      <g>
       <use xlink:href="#m4cbfe72fe6" x="72" y="180.36" style="stroke: #000000; stroke-width: 0.8"/>
      </g>
     </g>
     <g id="text_12">
      <!-- 7.5 -->
      <g transform="translate(49.096875 184.159219) scale(0.1 -0.1)">
       <defs>
        <path id="DejaVuSans-37" d="M 525 4666 
L 3525 4666 
L 3525 4397 
L 1831 0 
L 1172 0 
L 2766 4134 
L 525 4134 
L 525 4666 
z
" transform="scale(0.015625)"/>
       </defs>
       <use xlink:href="#DejaVuSans-37"/>
       <use xlink:href="#DejaVuSans-2e" x="63.623047"/>
       <use xlink:href="#DejaVuSans-35" x="95.410156"/>
      </g>
     </g>
    </g>
    <g id="ytick_7">
     <g id="line2d_13">
      <g>
       <use xlink:href="#m4cbfe72fe6" x="72" y="142.56" style="stroke: #000000; stroke-width: 0.8"/>
      </g>
     </g>
     <g id="text_13">
      <!-- 10.0 -->
      <g transform="translate(42.734375 146.359219) scale(0.1 -0.1)">
       <use xlink:href="#DejaVuSans-31"/>
       <use xlink:href="#DejaVuSans-30" x="63.623047"/>
       <use xlink:href="#DejaVuSans-2e" x="127.246094"/>
       <use xlink:href="#DejaVuSans-30" x="159.033203"/>
      </g>
     </g>
    </g>
    <g id="ytick_8">
     <g id="line2d_14">
      <g>
       <use xlink:href="#m4cbfe72fe6" x="72" y="104.76" style="stroke: #000000; stroke-width: 0.8"/>
      </g>
     </g>
     <g id="text_14">
      <!-- 12.5 -->
      <g transform="translate(42.734375 108.559219) scale(0.1 -0.1)">
       <use xlink:href="#DejaVuSans-31"/>
       <use xlink:href="#DejaVuSans-32" x="63.623047"/>
       <use xlink:href="#DejaVuSans-2e" x="127.246094"/>
       <use xlink:href="#DejaVuSans-35" x="159.033203"/>
      </g>
     </g>
    </g>
    <g id="ytick_9">
     <g id="line2d_15">
      <g>
       <use xlink:href="#m4cbfe72fe6" x="72" y="66.96" style="stroke: #000000; stroke-width: 0.8"/>
      </g>
     </g>
     <g id="text_15">
      <!-- 15.0 -->
      <g transform="translate(42.734375 70.759219) scale(0.1 -0.1)">
       <use xlink:href="#DejaVuSans-31"/>
       <use xlink:href="#DejaVuSans-35" x="63.623047"/>
       <use xlink:href="#DejaVuSans-2e" x="127.246094"/>
       <use xlink:href="#DejaVuSans-30" x="159.033203"/>
      </g>
     </g>
    </g>
   </g>
   <g id="line2d_16">
    <path d="M 92.290909 344.821752 
L 96.349091 344.82024 
L 100.407273 344.817216 
L 104.465455 344.811168 
L 108.523636 344.803608 
L 112.581818 344.793024 
L 116.64 344.780928 
L 120.698182 344.76732 
L 124.756364 344.7522 
L 128.814545 344.735568 
L 132.872727 344.717424 
L 136.930909 344.697768 
L 140.989091 344.678112 
L 145.047273 344.658456 
L 149.105455 344.6388 
L 153.163636 344.619144 
L 157.221818 344.601 
L 161.28 344.584368 
L 165.338182 344.569248 
L 169.396364 344.55564 
L 173.454545 344.546568 
L 177.512727 344.539008 
L 181.570909 344.535984 
L 185.629091 344.537496 
L 189.687273 344.543544 
L 193.745455 344.55564 
L 197.803636 344.573784 
L 201.861818 344.597976 
L 205.92 344.629728 
L 209.978182 344.66904 
L 214.036364 344.715912 
L 218.094545 344.771856 
L 222.152727 344.836872 
L 226.210909 344.912472 
L 230.269091 344.995632 
L 234.327273 345.090888 
L 238.385455 345.195216 
L 242.443636 345.310128 
L 246.501818 345.435624 
L 250.56 345.571704 
L 254.618182 345.718368 
L 258.676364 345.874104 
L 262.734545 346.040424 
L 266.792727 346.217328 
L 270.850909 346.403304 
L 274.909091 346.598352 
L 278.967273 346.80096 
L 283.025455 347.01264 
L 287.083636 347.233392 
L 291.141818 347.45868 
L 295.2 347.691528 
L 299.258182 347.930424 
L 303.316364 348.175368 
L 307.374545 348.424848 
L 311.432727 348.677352 
L 315.490909 348.93288 
L 319.549091 349.191432 
L 323.607273 349.453008 
L 327.665455 349.716096 
L 331.723636 349.979184 
L 335.781818 350.242272 
L 339.84 350.506872 
L 343.898182 350.768448 
L 347.956364 351.030024 
L 352.014545 351.290088 
L 356.072727 351.547128 
L 360.130909 351.801144 
L 364.189091 352.052136 
L 368.247273 352.300104 
L 372.305455 352.543536 
L 376.363636 352.782432 
L 380.421818 353.016792 
L 384.48 353.245104 
L 388.538182 353.46888 
L 392.596364 353.686608 
L 396.654545 353.898288 
L 400.712727 354.102408 
L 404.770909 354.301992 
L 408.829091 354.494016 
L 412.887273 354.67848 
L 416.945455 354.855384 
L 421.003636 355.024728 
L 425.061818 355.188024 
L 429.12 355.342248 
L 433.178182 355.4874 
L 437.236364 355.626504 
L 441.294545 355.756536 
L 445.352727 355.877496 
L 449.410909 355.989384 
L 453.469091 356.093712 
L 457.527273 356.188968 
L 461.585455 356.276664 
L 465.643636 356.353776 
L 469.701818 356.423328 
L 473.76 356.482296 
L 477.818182 356.533704 
L 481.876364 356.574528 
L 485.934545 356.60628 
L 489.992727 356.630472 
L 494.050909 356.64408 
L 498.109091 356.648616 
" clip-path="url(#p917a65efba)" style="fill: none; stroke: #000000; stroke-opacity: 0.5; stroke-linecap: square"/>
   </g>
   <g id="line2d_17">
    <path d="M 92.290909 292.876992 
L 96.349091 292.907232 
L 100.407273 292.99644 
L 104.465455 293.143104 
L 108.523636 293.3442 
L 112.581818 293.596704 
L 116.64 293.89608 
L 120.698182 294.237792 
L 124.756364 294.617304 
L 128.814545 295.028568 
L 132.872727 295.467048 
L 136.930909 295.928208 
L 140.989091 296.409024 
L 145.047273 296.903448 
L 149.105455 297.406944 
L 153.163636 297.918 
L 157.221818 298.433592 
L 161.28 298.947672 
L 165.338182 299.46024 
L 169.396364 299.968272 
L 173.454545 300.468744 
L 177.512727 300.958632 
L 181.570909 301.437936 
L 185.629091 301.90212 
L 189.687273 302.352696 
L 193.745455 302.785128 
L 197.803636 303.199416 
L 201.861818 303.594048 
L 205.92 303.967512 
L 209.978182 304.316784 
L 214.036364 304.644888 
L 218.094545 304.945776 
L 222.152727 305.222472 
L 226.210909 305.473464 
L 230.269091 305.695728 
L 234.327273 305.890776 
L 238.385455 306.057096 
L 242.443636 306.193176 
L 246.501818 306.30204 
L 250.56 306.380664 
L 254.618182 306.429048 
L 258.676364 306.447192 
L 262.734545 306.435096 
L 266.792727 306.394272 
L 270.850909 306.323208 
L 274.909091 306.223416 
L 278.967273 306.093384 
L 283.025455 305.936136 
L 287.083636 305.75016 
L 291.141818 305.535456 
L 295.2 305.295048 
L 299.258182 305.027424 
L 303.316364 304.734096 
L 307.374545 304.415064 
L 311.432727 304.070328 
L 315.490909 303.7014 
L 319.549091 303.309792 
L 323.607273 302.895504 
L 327.665455 302.460048 
L 331.723636 302.001912 
L 335.781818 301.522608 
L 339.84 301.023648 
L 343.898182 300.506544 
L 347.956364 299.968272 
L 352.014545 299.413368 
L 356.072727 298.841832 
L 360.130909 298.253664 
L 364.189091 297.648864 
L 368.247273 297.028944 
L 372.305455 296.393904 
L 376.363636 295.745256 
L 380.421818 295.084512 
L 384.48 294.411672 
L 388.538182 293.726736 
L 392.596364 293.031216 
L 396.654545 292.326624 
L 400.712727 291.61296 
L 404.770909 290.893248 
L 408.829091 290.165976 
L 412.887273 289.434168 
L 416.945455 288.697824 
L 421.003636 287.959968 
L 425.061818 287.222112 
L 429.12 286.485768 
L 433.178182 285.752448 
L 437.236364 285.025176 
L 441.294545 284.308488 
L 445.352727 283.602384 
L 449.410909 282.912912 
L 453.469091 282.244608 
L 457.527273 281.598984 
L 461.585455 280.985112 
L 465.643636 280.406016 
L 469.701818 279.870768 
L 473.76 279.383904 
L 477.818182 278.954496 
L 481.876364 278.590104 
L 485.934545 278.298288 
L 489.992727 278.083584 
L 494.050909 277.953552 
L 498.109091 277.909704 
" clip-path="url(#p917a65efba)" style="fill: none; stroke: #000000; stroke-opacity: 0.5; stroke-linecap: square"/>
   </g>
   <g id="line2d_18">
    <path d="M 92.290909 263.544192 
L 96.349091 263.501856 
L 100.407273 263.37636 
L 104.465455 263.170728 
L 108.523636 262.88496 
L 112.581818 262.525104 
L 116.64 262.094184 
L 120.698182 261.598248 
L 124.756364 261.04032 
L 128.814545 260.424936 
L 132.872727 259.759656 
L 136.930909 259.045992 
L 140.989091 258.291504 
L 145.047273 257.497704 
L 149.105455 256.67064 
L 153.163636 255.811824 
L 157.221818 254.925792 
L 161.28 254.014056 
L 165.338182 253.082664 
L 169.396364 252.131616 
L 173.454545 251.163936 
L 177.512727 250.181136 
L 181.570909 249.187752 
L 185.629091 248.183784 
L 189.687273 247.172256 
L 193.745455 246.15468 
L 197.803636 245.132568 
L 201.861818 244.110456 
L 205.92 243.086832 
L 209.978182 242.066232 
L 214.036364 241.050168 
L 218.094545 240.040152 
L 222.152727 239.039208 
L 226.210909 238.048848 
L 230.269091 237.072096 
L 234.327273 236.111976 
L 238.385455 235.171512 
L 242.443636 234.252216 
L 246.501818 233.360136 
L 250.56 232.496784 
L 254.618182 231.665184 
L 258.676364 230.869872 
L 262.734545 230.113872 
L 266.792727 229.40172 
L 270.850909 228.734928 
L 274.909091 228.115008 
L 278.967273 227.544984 
L 283.025455 227.021832 
L 287.083636 226.547064 
L 291.141818 226.116144 
L 295.2 225.72756 
L 299.258182 225.375264 
L 303.316364 225.057744 
L 307.374545 224.768952 
L 311.432727 224.508888 
L 315.490909 224.273016 
L 319.549091 224.059824 
L 323.607273 223.873848 
L 327.665455 223.719624 
L 331.723636 223.627392 
L 335.781818 223.692408 
L 339.84 223.999344 
L 343.898182 224.468064 
L 347.956364 225.029016 
L 352.014545 225.654984 
L 356.072727 226.333872 
L 360.130909 227.059632 
L 364.189091 227.827728 
L 368.247273 228.6306 
L 372.305455 229.466736 
L 376.363636 230.330088 
L 380.421818 231.217632 
L 384.48 232.127856 
L 388.538182 233.056224 
L 392.596364 233.9982 
L 396.654545 234.952272 
L 400.712727 235.915416 
L 404.770909 236.88612 
L 408.829091 237.859848 
L 412.887273 238.835088 
L 416.945455 239.808816 
L 421.003636 240.77952 
L 425.061818 241.742664 
L 429.12 242.695224 
L 433.178182 243.6372 
L 437.236364 244.562544 
L 441.294545 245.468232 
L 445.352727 246.35124 
L 449.410909 247.207032 
L 453.469091 248.032584 
L 457.527273 248.818824 
L 461.585455 249.56424 
L 465.643636 250.25976 
L 469.701818 250.899336 
L 473.76 251.47692 
L 477.818182 251.98344 
L 481.876364 252.409824 
L 485.934545 252.753048 
L 489.992727 253.002528 
L 494.050909 253.153728 
L 498.109091 253.205136 
" clip-path="url(#p917a65efba)" style="fill: none; stroke: #000000; stroke-opacity: 0.5; stroke-linecap: square"/>
   </g>
   <g id="line2d_19">
    <path d="M 92.290909 229.351824 
L 96.349091 229.3488 
L 100.407273 229.338216 
L 104.465455 229.320072 
L 108.523636 229.29588 
L 112.581818 229.264128 
L 116.64 229.226328 
L 120.698182 229.180968 
L 124.756364 229.12956 
L 128.814545 229.070592 
L 132.872727 229.004064 
L 136.930909 228.933 
L 140.989091 228.852864 
L 145.047273 228.768192 
L 149.105455 228.67596 
L 153.163636 228.579192 
L 157.221818 228.474864 
L 161.28 228.362976 
L 165.338182 228.246552 
L 169.396364 228.12408 
L 173.454545 227.997072 
L 177.512727 227.862504 
L 181.570909 227.7234 
L 185.629091 227.578248 
L 189.687273 227.427048 
L 193.745455 227.271312 
L 197.803636 227.11104 
L 201.861818 226.94472 
L 205.92 226.773864 
L 209.978182 226.598472 
L 214.036364 226.417032 
L 218.094545 226.231056 
L 222.152727 226.040544 
L 226.210909 225.845496 
L 230.269091 225.645912 
L 234.327273 225.44028 
L 238.385455 225.230112 
L 242.443636 225.013896 
L 246.501818 224.793144 
L 250.56 224.566344 
L 254.618182 224.333496 
L 258.676364 224.096112 
L 262.734545 223.854192 
L 266.792727 223.607736 
L 270.850909 223.358256 
L 274.909091 223.108776 
L 278.967273 222.863832 
L 283.025455 222.626448 
L 287.083636 222.404184 
L 291.141818 222.2046 
L 295.2 222.033744 
L 299.258182 221.900688 
L 303.316364 221.81148 
L 307.374545 221.775192 
L 311.432727 221.793336 
L 315.490909 221.87196 
L 319.549091 222.011064 
L 323.607273 222.209136 
L 327.665455 222.457104 
L 331.723636 222.723216 
L 335.781818 222.910704 
L 339.84 222.928848 
L 343.898182 222.853248 
L 347.956364 222.751944 
L 352.014545 222.646104 
L 356.072727 222.541776 
L 360.130909 222.443496 
L 364.189091 222.349752 
L 368.247273 222.263568 
L 372.305455 222.18192 
L 376.363636 222.10632 
L 380.421818 222.036768 
L 384.48 221.973264 
L 388.538182 221.914296 
L 392.596364 221.859864 
L 396.654545 221.81148 
L 400.712727 221.767632 
L 404.770909 221.726808 
L 408.829091 221.69052 
L 412.887273 221.658768 
L 416.945455 221.628528 
L 421.003636 221.602824 
L 425.061818 221.580144 
L 429.12 221.560488 
L 433.178182 221.542344 
L 437.236364 221.527224 
L 441.294545 221.513616 
L 445.352727 221.503032 
L 449.410909 221.492448 
L 453.469091 221.484888 
L 457.527273 221.477328 
L 461.585455 221.472792 
L 465.643636 221.466744 
L 469.701818 221.46372 
L 473.76 221.460696 
L 477.818182 221.457672 
L 481.876364 221.45616 
L 485.934545 221.454648 
L 489.992727 221.453136 
L 494.050909 221.453136 
L 498.109091 221.453136 
" clip-path="url(#p917a65efba)" style="fill: none; stroke: #000000; stroke-opacity: 0.5; stroke-linecap: square"/>
   </g>
   <g id="line2d_20">
    <path d="M 92.290909 168.9444 
L 96.349091 168.939864 
L 100.407273 168.927768 
L 104.465455 168.908112 
L 108.523636 168.879384 
L 112.581818 168.843096 
L 116.64 168.799248 
L 120.698182 168.74784 
L 124.756364 168.690384 
L 128.814545 168.62688 
L 132.872727 168.557328 
L 136.930909 168.481728 
L 140.989091 168.403104 
L 145.047273 168.319944 
L 149.105455 168.235272 
L 153.163636 168.149088 
L 157.221818 168.062904 
L 161.28 167.979744 
L 165.338182 167.899608 
L 169.396364 167.82552 
L 173.454545 167.760504 
L 177.512727 167.707584 
L 181.570909 167.668272 
L 185.629091 167.648616 
L 189.687273 167.653152 
L 193.745455 167.684904 
L 197.803636 167.74992 
L 201.861818 167.852736 
L 205.92 167.9994 
L 209.978182 168.192936 
L 214.036364 168.43788 
L 218.094545 168.735744 
L 222.152727 169.086528 
L 226.210909 169.48872 
L 230.269091 169.940808 
L 234.327273 170.435232 
L 238.385455 170.967456 
L 242.443636 171.52992 
L 246.501818 172.116576 
L 250.56 172.718352 
L 254.618182 173.330712 
L 258.676364 173.943072 
L 262.734545 174.550896 
L 266.792727 175.146624 
L 270.850909 175.724208 
L 274.909091 176.276088 
L 278.967273 176.797728 
L 283.025455 177.28308 
L 287.083636 177.724584 
L 291.141818 178.117704 
L 295.2 178.457904 
L 299.258182 178.740648 
L 303.316364 178.9614 
L 307.374545 179.117136 
L 311.432727 179.204832 
L 315.490909 179.224488 
L 319.549091 179.17308 
L 323.607273 179.055144 
L 327.665455 178.869168 
L 331.723636 178.618176 
L 335.781818 178.30368 
L 339.84 177.93324 
L 343.898182 177.506856 
L 347.956364 177.032088 
L 352.014545 176.510448 
L 356.072727 175.949496 
L 360.130909 175.353768 
L 364.189091 174.726288 
L 368.247273 174.071592 
L 372.305455 173.39724 
L 376.363636 172.704744 
L 380.421818 172.000152 
L 384.48 171.286488 
L 388.538182 170.5698 
L 392.596364 169.853112 
L 396.654545 169.14096 
L 400.712727 168.439392 
L 404.770909 167.751432 
L 408.829091 167.083128 
L 412.887273 166.439016 
L 416.945455 165.82212 
L 421.003636 165.238488 
L 425.061818 164.691144 
L 429.12 164.186136 
L 433.178182 163.721952 
L 437.236364 163.303128 
L 441.294545 162.928152 
L 445.352727 162.595512 
L 449.410909 162.305208 
L 453.469091 162.054216 
L 457.527273 161.839512 
L 461.585455 161.655048 
L 465.643636 161.500824 
L 469.701818 161.372304 
L 473.76 161.266464 
L 477.818182 161.181792 
L 481.876364 161.115264 
L 485.934545 161.065368 
L 489.992727 161.030592 
L 494.050909 161.009424 
L 498.109091 161.003376 
" clip-path="url(#p917a65efba)" style="fill: none; stroke: #000000; stroke-opacity: 0.5; stroke-linecap: square"/>
   </g>
   <g id="line2d_21">
    <path d="M 92.290909 131.632776 
L 96.349091 131.721984 
L 100.407273 131.986584 
L 104.465455 132.408432 
L 108.523636 132.961824 
L 112.581818 133.622568 
L 116.64 134.367984 
L 120.698182 135.176904 
L 124.756364 136.034208 
L 128.814545 136.9278 
L 132.872727 137.844072 
L 136.930909 138.778488 
L 140.989091 139.723488 
L 145.047273 140.673024 
L 149.105455 141.62256 
L 153.163636 142.570584 
L 157.221818 143.511048 
L 161.28 144.44244 
L 165.338182 145.360224 
L 169.396364 146.262888 
L 173.454545 147.145896 
L 177.512727 148.006224 
L 181.570909 148.840848 
L 185.629091 149.64372 
L 189.687273 150.411816 
L 193.745455 151.1406 
L 197.803636 151.824024 
L 201.861818 152.45604 
L 205.92 153.032112 
L 209.978182 153.549216 
L 214.036364 154.001304 
L 218.094545 154.386864 
L 222.152727 154.705896 
L 226.210909 154.9584 
L 230.269091 155.1474 
L 234.327273 155.27592 
L 238.385455 155.35152 
L 242.443636 155.377224 
L 246.501818 155.35908 
L 250.56 155.303136 
L 254.618182 155.213928 
L 258.676364 155.097504 
L 262.734545 154.9584 
L 266.792727 154.79964 
L 270.850909 154.624248 
L 274.909091 154.43676 
L 278.967273 154.2402 
L 283.025455 154.037592 
L 287.083636 153.830448 
L 291.141818 153.62784 
L 295.2 153.441864 
L 299.258182 153.304272 
L 303.316364 153.283104 
L 307.374545 153.388944 
L 311.432727 153.54468 
L 315.490909 153.70344 
L 319.549091 153.853128 
L 323.607273 153.986184 
L 327.665455 154.101096 
L 331.723636 154.197864 
L 335.781818 154.279512 
L 339.84 154.343016 
L 343.898182 154.392912 
L 347.956364 154.4292 
L 352.014545 154.453392 
L 356.072727 154.465488 
L 360.130909 154.467 
L 364.189091 154.457928 
L 368.247273 154.441296 
L 372.305455 154.41408 
L 376.363636 154.379304 
L 380.421818 154.333944 
L 384.48 154.278 
L 388.538182 154.20996 
L 392.596364 154.129824 
L 396.654545 154.033056 
L 400.712727 153.919656 
L 404.770909 153.785088 
L 408.829091 153.62784 
L 412.887273 153.443376 
L 416.945455 153.228672 
L 421.003636 152.983728 
L 425.061818 152.702496 
L 429.12 152.383464 
L 433.178182 152.029656 
L 437.236364 151.638048 
L 441.294545 151.213176 
L 445.352727 150.756552 
L 449.410909 150.275736 
L 453.469091 149.776776 
L 457.527273 149.267232 
L 461.585455 148.754664 
L 465.643636 148.251168 
L 469.701818 147.767328 
L 473.76 147.312216 
L 477.818182 146.900952 
L 481.876364 146.541096 
L 485.934545 146.247768 
L 489.992727 146.03004 
L 494.050909 145.895472 
L 498.109091 145.850112 
" clip-path="url(#p917a65efba)" style="fill: none; stroke: #000000; stroke-opacity: 0.5; stroke-linecap: square"/>
   </g>
   <g id="line2d_22">
    <path d="M 92.290909 116.1756 
L 96.349091 116.143848 
L 100.407273 116.089416 
L 104.465455 116.125704 
L 108.523636 116.366112 
L 112.581818 116.830296 
L 116.64 117.466848 
L 120.698182 118.22436 
L 124.756364 119.069568 
L 128.814545 119.976768 
L 132.872727 120.93084 
L 136.930909 121.916664 
L 140.989091 122.928192 
L 145.047273 123.95484 
L 149.105455 124.993584 
L 153.163636 126.038376 
L 157.221818 127.086192 
L 161.28 128.132496 
L 165.338182 129.174264 
L 169.396364 130.211496 
L 173.454545 131.239656 
L 177.512727 132.257232 
L 181.570909 133.262712 
L 185.629091 134.254584 
L 189.687273 135.231336 
L 193.745455 136.191456 
L 197.803636 137.133432 
L 201.861818 138.058776 
L 205.92 138.96144 
L 209.978182 139.844448 
L 214.036364 140.706288 
L 218.094545 141.543936 
L 222.152727 142.358904 
L 226.210909 143.14968 
L 230.269091 143.91324 
L 234.327273 144.652608 
L 238.385455 145.36476 
L 242.443636 146.051208 
L 246.501818 146.708928 
L 250.56 147.339432 
L 254.618182 147.941208 
L 258.676364 148.514256 
L 262.734545 149.057064 
L 266.792727 149.572656 
L 270.850909 150.058008 
L 274.909091 150.51312 
L 278.967273 150.93648 
L 283.025455 151.3296 
L 287.083636 151.689456 
L 291.141818 152.013024 
L 295.2 152.286696 
L 299.258182 152.480232 
L 303.316364 152.527104 
L 307.374545 152.41824 
L 311.432727 152.230752 
L 315.490909 152.011512 
L 319.549091 151.77564 
L 323.607273 151.529184 
L 327.665455 151.272144 
L 331.723636 151.007544 
L 335.781818 150.73236 
L 339.84 150.44508 
L 343.898182 150.147216 
L 347.956364 149.834232 
L 352.014545 149.506128 
L 356.072727 149.15988 
L 360.130909 148.793976 
L 364.189091 148.408416 
L 368.247273 148.000176 
L 372.305455 147.567744 
L 376.363636 147.112632 
L 380.421818 146.631816 
L 384.48 146.125296 
L 388.538182 145.593072 
L 392.596364 145.035144 
L 396.654545 144.451512 
L 400.712727 143.842176 
L 404.770909 143.21016 
L 408.829091 142.553952 
L 412.887273 141.876576 
L 416.945455 141.178032 
L 421.003636 140.459832 
L 425.061818 139.726512 
L 429.12 138.97656 
L 433.178182 138.214512 
L 437.236364 137.444904 
L 441.294545 136.666224 
L 445.352727 135.886032 
L 449.410909 135.107352 
L 453.469091 134.333208 
L 457.527273 133.568136 
L 461.585455 132.818184 
L 465.643636 132.0894 
L 469.701818 131.38632 
L 473.76 130.718016 
L 477.818182 130.092048 
L 481.876364 129.515976 
L 485.934545 129.007944 
L 489.992727 128.590632 
L 494.050909 128.304864 
L 498.109091 128.202048 
" clip-path="url(#p917a65efba)" style="fill: none; stroke: #000000; stroke-opacity: 0.5; stroke-linecap: square"/>
   </g>
   <g id="line2d_23">
    <path d="M 92.290909 113.481216 
L 96.349091 113.496336 
L 100.407273 113.503896 
L 104.465455 113.396544 
L 108.523636 113.063904 
L 112.581818 112.49388 
L 116.64 111.73788 
L 120.698182 110.850336 
L 124.756364 109.867536 
L 128.814545 108.809136 
L 132.872727 107.694792 
L 136.930909 106.533576 
L 140.989091 105.33456 
L 145.047273 104.105304 
L 149.105455 102.848832 
L 153.163636 101.571192 
L 157.221818 100.27692 
L 161.28 98.966016 
L 165.338182 97.644528 
L 169.396364 96.31548 
L 173.454545 94.981896 
L 177.512727 93.648312 
L 181.570909 92.319264 
L 185.629091 91.002312 
L 189.687273 89.705016 
L 193.745455 88.439472 
L 197.803636 87.223824 
L 201.861818 86.077728 
L 205.92 85.03596 
L 209.978182 84.13632 
L 214.036364 83.416608 
L 218.094545 82.901016 
L 222.152727 82.583496 
L 226.210909 82.436832 
L 230.269091 82.421712 
L 234.327273 82.50336 
L 238.385455 82.657584 
L 242.443636 82.860192 
L 246.501818 83.099088 
L 250.56 83.360664 
L 254.618182 83.635848 
L 258.676364 83.91708 
L 262.734545 84.199824 
L 266.792727 84.478032 
L 270.850909 84.747168 
L 274.909091 85.002696 
L 278.967273 85.243104 
L 283.025455 85.463856 
L 287.083636 85.66344 
L 291.141818 85.841856 
L 295.2 85.997592 
L 299.258182 86.130648 
L 303.316364 86.241024 
L 307.374545 86.331744 
L 311.432727 86.405832 
L 315.490909 86.466312 
L 319.549091 86.520744 
L 323.607273 86.575176 
L 327.665455 86.643216 
L 331.723636 86.733936 
L 335.781818 86.866992 
L 339.84 87.060528 
L 343.898182 87.3342 
L 347.956364 87.709176 
L 352.014545 88.200576 
L 356.072727 88.820496 
L 360.130909 89.565912 
L 364.189091 90.429264 
L 368.247273 91.396944 
L 372.305455 92.45232 
L 376.363636 93.577248 
L 380.421818 94.755096 
L 384.48 95.97528 
L 388.538182 97.224192 
L 392.596364 98.49276 
L 396.654545 99.776448 
L 400.712727 101.067696 
L 404.770909 102.360456 
L 408.829091 103.650192 
L 412.887273 104.936904 
L 416.945455 106.213032 
L 421.003636 107.478576 
L 425.061818 108.729 
L 429.12 109.962792 
L 433.178182 111.17844 
L 437.236364 112.369896 
L 441.294545 113.53716 
L 445.352727 114.677208 
L 449.410909 115.783992 
L 453.469091 116.857512 
L 457.527273 117.89172 
L 461.585455 118.883592 
L 465.643636 119.825568 
L 469.701818 120.716136 
L 473.76 121.546224 
L 477.818182 122.309784 
L 481.876364 122.996232 
L 485.934545 123.59196 
L 489.992727 124.071264 
L 494.050909 124.394832 
L 498.109091 124.509744 
" clip-path="url(#p917a65efba)" style="fill: none; stroke: #000000; stroke-opacity: 0.5; stroke-linecap: square"/>
   </g>
   <g id="patch_3">
    <path d="M 72 384.48 
L 72 51.84 
" style="fill: none; stroke: #000000; stroke-width: 0.8; stroke-linejoin: miter; stroke-linecap: square"/>
   </g>
   <g id="patch_4">
    <path d="M 518.4 384.48 
L 518.4 51.84 
" style="fill: none; stroke: #000000; stroke-width: 0.8; stroke-linejoin: miter; stroke-linecap: square"/>
   </g>
   <g id="patch_5">
    <path d="M 72 384.48 
L 518.4 384.48 
" style="fill: none; stroke: #000000; stroke-width: 0.8; stroke-linejoin: miter; stroke-linecap: square"/>
   </g>
   <g id="patch_6">
    <path d="M 72 51.84 
L 518.4 51.84 
" style="fill: none; stroke: #000000; stroke-width: 0.8; stroke-linejoin: miter; stroke-linecap: square"/>
   </g>
  </g>
 </g>
 <defs>
  <clipPath id="p917a65efba">
   <rect x="72" y="51.84" width="446.4" height="332.64"/>
  </clipPath>
 </defs>
</svg>
