<?xml version="1.0" encoding="utf-8" standalone="no"?>
<!DOCTYPE svg PUBLIC "-//W3C//DTD SVG 1.1//EN"
  "http://www.w3.org/Graphics/SVG/1.1/DTD/svg11.dtd">
<svg xmlns:xlink="http://www.w3.org/1999/xlink" width="576pt" height="432pt" viewBox="0 0 576 432" xmlns="http://www.w3.org/2000/svg" version="1.1">
 <metadata>
  <rdf:RDF xmlns:dc="http://purl.org/dc/elements/1.1/" xmlns:cc="http://creativecommons.org/ns#" xmlns:rdf="http://www.w3.org/1999/02/22-rdf-syntax-ns#">
   <cc:Work>
    <dc:type rdf:resource="http://purl.org/dc/dcmitype/StillImage"/>
    <dc:date>2023-05-04T10:36:13.088892</dc:date>
    <dc:format>image/svg+xml</dc:format>
    <dc:creator>
     <cc:Agent>
      <dc:title>Matplotlib v3.7.1, https://matplotlib.org/</dc:title>
     </cc:Agent>
    </dc:creator>
   </cc:Work>
  </rdf:RDF>
 </metadata>
 <defs>
  <style type="text/css">*{stroke-linejoin: round; stroke-linecap: butt}</style>
 </defs>
 <g id="figure_1">
  <g id="patch_1">
   <path d="M 0 432 
L 576 432 
L 576 0 
L 0 0 
z
" style="fill: #ffffff"/>
  </g>
  <g id="axes_1">
   <g id="patch_2">
    <path d="M 72 384.48 
L 518.4 384.48 
L 518.4 51.84 
L 72 51.84 
z
" style="fill: #ffffff"/>
   </g>
   <g id="matplotlib.axis_1">
    <g id="xtick_1">
     <g id="line2d_1">
      <defs>
       <path id="m5220914668" d="M 0 0 
L 0 3.5 
" style="stroke: #000000; stroke-width: 0.8"/>
      </defs>
      <g>
       <use xlink:href="#m5220914668" x="92.290909" y="384.48" style="stroke: #000000; stroke-width: 0.8"/>
      </g>
     </g>
     <g id="text_1">
      <!-- 0.0 -->
      <g transform="translate(84.339347 399.078438) scale(0.1 -0.1)">
       <defs>
        <path id="DejaVuSans-30" d="M 2034 4250 
Q 1547 4250 1301 3770 
Q 1056 3291 1056 2328 
Q 1056 1369 1301 889 
Q 1547 409 2034 409 
Q 2525 409 2770 889 
Q 3016 1369 3016 2328 
Q 3016 3291 2770 3770 
Q 2525 4250 2034 4250 
z
M 2034 4750 
Q 2819 4750 3233 4129 
Q 3647 3509 3647 2328 
Q 3647 1150 3233 529 
Q 2819 -91 2034 -91 
Q 1250 -91 836 529 
Q 422 1150 422 2328 
Q 422 3509 836 4129 
Q 1250 4750 2034 4750 
z
" transform="scale(0.015625)"/>
        <path id="DejaVuSans-2e" d="M 684 794 
L 1344 794 
L 1344 0 
L 684 0 
L 684 794 
z
" transform="scale(0.015625)"/>
       </defs>
       <use xlink:href="#DejaVuSans-30"/>
       <use xlink:href="#DejaVuSans-2e" x="63.623047"/>
       <use xlink:href="#DejaVuSans-30" x="95.410156"/>
      </g>
     </g>
    </g>
    <g id="xtick_2">
     <g id="line2d_2">
      <g>
       <use xlink:href="#m5220914668" x="173.454545" y="384.48" style="stroke: #000000; stroke-width: 0.8"/>
      </g>
     </g>
     <g id="text_2">
      <!-- 0.2 -->
      <g transform="translate(165.502983 399.078438) scale(0.1 -0.1)">
       <defs>
        <path id="DejaVuSans-32" d="M 1228 531 
L 3431 531 
L 3431 0 
L 469 0 
L 469 531 
Q 828 903 1448 1529 
Q 2069 2156 2228 2338 
Q 2531 2678 2651 2914 
Q 2772 3150 2772 3378 
Q 2772 3750 2511 3984 
Q 2250 4219 1831 4219 
Q 1534 4219 1204 4116 
Q 875 4013 500 3803 
L 500 4441 
Q 881 4594 1212 4672 
Q 1544 4750 1819 4750 
Q 2544 4750 2975 4387 
Q 3406 4025 3406 3419 
Q 3406 3131 3298 2873 
Q 3191 2616 2906 2266 
Q 2828 2175 2409 1742 
Q 1991 1309 1228 531 
z
" transform="scale(0.015625)"/>
       </defs>
       <use xlink:href="#DejaVuSans-30"/>
       <use xlink:href="#DejaVuSans-2e" x="63.623047"/>
       <use xlink:href="#DejaVuSans-32" x="95.410156"/>
      </g>
     </g>
    </g>
    <g id="xtick_3">
     <g id="line2d_3">
      <g>
       <use xlink:href="#m5220914668" x="254.618182" y="384.48" style="stroke: #000000; stroke-width: 0.8"/>
      </g>
     </g>
     <g id="text_3">
      <!-- 0.4 -->
      <g transform="translate(246.666619 399.078438) scale(0.1 -0.1)">
       <defs>
        <path id="DejaVuSans-34" d="M 2419 4116 
L 825 1625 
L 2419 1625 
L 2419 4116 
z
M 2253 4666 
L 3047 4666 
L 3047 1625 
L 3713 1625 
L 3713 1100 
L 3047 1100 
L 3047 0 
L 2419 0 
L 2419 1100 
L 313 1100 
L 313 1709 
L 2253 4666 
z
" transform="scale(0.015625)"/>
       </defs>
       <use xlink:href="#DejaVuSans-30"/>
       <use xlink:href="#DejaVuSans-2e" x="63.623047"/>
       <use xlink:href="#DejaVuSans-34" x="95.410156"/>
      </g>
     </g>
    </g>
    <g id="xtick_4">
     <g id="line2d_4">
      <g>
       <use xlink:href="#m5220914668" x="335.781818" y="384.48" style="stroke: #000000; stroke-width: 0.8"/>
      </g>
     </g>
     <g id="text_4">
      <!-- 0.6 -->
      <g transform="translate(327.830256 399.078438) scale(0.1 -0.1)">
       <defs>
        <path id="DejaVuSans-36" d="M 2113 2584 
Q 1688 2584 1439 2293 
Q 1191 2003 1191 1497 
Q 1191 994 1439 701 
Q 1688 409 2113 409 
Q 2538 409 2786 701 
Q 3034 994 3034 1497 
Q 3034 2003 2786 2293 
Q 2538 2584 2113 2584 
z
M 3366 4563 
L 3366 3988 
Q 3128 4100 2886 4159 
Q 2644 4219 2406 4219 
Q 1781 4219 1451 3797 
Q 1122 3375 1075 2522 
Q 1259 2794 1537 2939 
Q 1816 3084 2150 3084 
Q 2853 3084 3261 2657 
Q 3669 2231 3669 1497 
Q 3669 778 3244 343 
Q 2819 -91 2113 -91 
Q 1303 -91 875 529 
Q 447 1150 447 2328 
Q 447 3434 972 4092 
Q 1497 4750 2381 4750 
Q 2619 4750 2861 4703 
Q 3103 4656 3366 4563 
z
" transform="scale(0.015625)"/>
       </defs>
       <use xlink:href="#DejaVuSans-30"/>
       <use xlink:href="#DejaVuSans-2e" x="63.623047"/>
       <use xlink:href="#DejaVuSans-36" x="95.410156"/>
      </g>
     </g>
    </g>
    <g id="xtick_5">
     <g id="line2d_5">
      <g>
       <use xlink:href="#m5220914668" x="416.945455" y="384.48" style="stroke: #000000; stroke-width: 0.8"/>
      </g>
     </g>
     <g id="text_5">
      <!-- 0.8 -->
      <g transform="translate(408.993892 399.078438) scale(0.1 -0.1)">
       <defs>
        <path id="DejaVuSans-38" d="M 2034 2216 
Q 1584 2216 1326 1975 
Q 1069 1734 1069 1313 
Q 1069 891 1326 650 
Q 1584 409 2034 409 
Q 2484 409 2743 651 
Q 3003 894 3003 1313 
Q 3003 1734 2745 1975 
Q 2488 2216 2034 2216 
z
M 1403 2484 
Q 997 2584 770 2862 
Q 544 3141 544 3541 
Q 544 4100 942 4425 
Q 1341 4750 2034 4750 
Q 2731 4750 3128 4425 
Q 3525 4100 3525 3541 
Q 3525 3141 3298 2862 
Q 3072 2584 2669 2484 
Q 3125 2378 3379 2068 
Q 3634 1759 3634 1313 
Q 3634 634 3220 271 
Q 2806 -91 2034 -91 
Q 1263 -91 848 271 
Q 434 634 434 1313 
Q 434 1759 690 2068 
Q 947 2378 1403 2484 
z
M 1172 3481 
Q 1172 3119 1398 2916 
Q 1625 2713 2034 2713 
Q 2441 2713 2670 2916 
Q 2900 3119 2900 3481 
Q 2900 3844 2670 4047 
Q 2441 4250 2034 4250 
Q 1625 4250 1398 4047 
Q 1172 3844 1172 3481 
z
" transform="scale(0.015625)"/>
       </defs>
       <use xlink:href="#DejaVuSans-30"/>
       <use xlink:href="#DejaVuSans-2e" x="63.623047"/>
       <use xlink:href="#DejaVuSans-38" x="95.410156"/>
      </g>
     </g>
    </g>
    <g id="xtick_6">
     <g id="line2d_6">
      <g>
       <use xlink:href="#m5220914668" x="498.109091" y="384.48" style="stroke: #000000; stroke-width: 0.8"/>
      </g>
     </g>
     <g id="text_6">
      <!-- 1.0 -->
      <g transform="translate(490.157528 399.078438) scale(0.1 -0.1)">
       <defs>
        <path id="DejaVuSans-31" d="M 794 531 
L 1825 531 
L 1825 4091 
L 703 3866 
L 703 4441 
L 1819 4666 
L 2450 4666 
L 2450 531 
L 3481 531 
L 3481 0 
L 794 0 
L 794 531 
z
" transform="scale(0.015625)"/>
       </defs>
       <use xlink:href="#DejaVuSans-31"/>
       <use xlink:href="#DejaVuSans-2e" x="63.623047"/>
       <use xlink:href="#DejaVuSans-30" x="95.410156"/>
      </g>
     </g>
    </g>
   </g>
   <g id="matplotlib.axis_2">
    <g id="ytick_1">
     <g id="line2d_7">
      <defs>
       <path id="mcd972fe856" d="M 0 0 
L -3.5 0 
" style="stroke: #000000; stroke-width: 0.8"/>
      </defs>
      <g>
       <use xlink:href="#mcd972fe856" x="72" y="369.36" style="stroke: #000000; stroke-width: 0.8"/>
      </g>
     </g>
     <g id="text_7">
      <!-- −5.0 -->
      <g transform="translate(40.717187 373.159219) scale(0.1 -0.1)">
       <defs>
        <path id="DejaVuSans-2212" d="M 678 2272 
L 4684 2272 
L 4684 1741 
L 678 1741 
L 678 2272 
z
" transform="scale(0.015625)"/>
        <path id="DejaVuSans-35" d="M 691 4666 
L 3169 4666 
L 3169 4134 
L 1269 4134 
L 1269 2991 
Q 1406 3038 1543 3061 
Q 1681 3084 1819 3084 
Q 2600 3084 3056 2656 
Q 3513 2228 3513 1497 
Q 3513 744 3044 326 
Q 2575 -91 1722 -91 
Q 1428 -91 1123 -41 
Q 819 9 494 109 
L 494 744 
Q 775 591 1075 516 
Q 1375 441 1709 441 
Q 2250 441 2565 725 
Q 2881 1009 2881 1497 
Q 2881 1984 2565 2268 
Q 2250 2553 1709 2553 
Q 1456 2553 1204 2497 
Q 953 2441 691 2322 
L 691 4666 
z
" transform="scale(0.015625)"/>
       </defs>
       <use xlink:href="#DejaVuSans-2212"/>
       <use xlink:href="#DejaVuSans-35" x="83.789062"/>
       <use xlink:href="#DejaVuSans-2e" x="147.412109"/>
       <use xlink:href="#DejaVuSans-30" x="179.199219"/>
      </g>
     </g>
    </g>
    <g id="ytick_2">
     <g id="line2d_8">
      <g>
       <use xlink:href="#mcd972fe856" x="72" y="331.56" style="stroke: #000000; stroke-width: 0.8"/>
      </g>
     </g>
     <g id="text_8">
      <!-- −2.5 -->
      <g transform="translate(40.717187 335.359219) scale(0.1 -0.1)">
       <use xlink:href="#DejaVuSans-2212"/>
       <use xlink:href="#DejaVuSans-32" x="83.789062"/>
       <use xlink:href="#DejaVuSans-2e" x="147.412109"/>
       <use xlink:href="#DejaVuSans-35" x="179.199219"/>
      </g>
     </g>
    </g>
    <g id="ytick_3">
     <g id="line2d_9">
      <g>
       <use xlink:href="#mcd972fe856" x="72" y="293.76" style="stroke: #000000; stroke-width: 0.8"/>
      </g>
     </g>
     <g id="text_9">
      <!-- 0.0 -->
      <g transform="translate(49.096875 297.559219) scale(0.1 -0.1)">
       <use xlink:href="#DejaVuSans-30"/>
       <use xlink:href="#DejaVuSans-2e" x="63.623047"/>
       <use xlink:href="#DejaVuSans-30" x="95.410156"/>
      </g>
     </g>
    </g>
    <g id="ytick_4">
     <g id="line2d_10">
      <g>
       <use xlink:href="#mcd972fe856" x="72" y="255.96" style="stroke: #000000; stroke-width: 0.8"/>
      </g>
     </g>
     <g id="text_10">
      <!-- 2.5 -->
      <g transform="translate(49.096875 259.759219) scale(0.1 -0.1)">
       <use xlink:href="#DejaVuSans-32"/>
       <use xlink:href="#DejaVuSans-2e" x="63.623047"/>
       <use xlink:href="#DejaVuSans-35" x="95.410156"/>
      </g>
     </g>
    </g>
    <g id="ytick_5">
     <g id="line2d_11">
      <g>
       <use xlink:href="#mcd972fe856" x="72" y="218.16" style="stroke: #000000; stroke-width: 0.8"/>
      </g>
     </g>
     <g id="text_11">
      <!-- 5.0 -->
      <g transform="translate(49.096875 221.959219) scale(0.1 -0.1)">
       <use xlink:href="#DejaVuSans-35"/>
       <use xlink:href="#DejaVuSans-2e" x="63.623047"/>
       <use xlink:href="#DejaVuSans-30" x="95.410156"/>
      </g>
     </g>
    </g>
    <g id="ytick_6">
     <g id="line2d_12">
      <g>
       <use xlink:href="#mcd972fe856" x="72" y="180.36" style="stroke: #000000; stroke-width: 0.8"/>
      </g>
     </g>
     <g id="text_12">
      <!-- 7.5 -->
      <g transform="translate(49.096875 184.159219) scale(0.1 -0.1)">
       <defs>
        <path id="DejaVuSans-37" d="M 525 4666 
L 3525 4666 
L 3525 4397 
L 1831 0 
L 1172 0 
L 2766 4134 
L 525 4134 
L 525 4666 
z
" transform="scale(0.015625)"/>
       </defs>
       <use xlink:href="#DejaVuSans-37"/>
       <use xlink:href="#DejaVuSans-2e" x="63.623047"/>
       <use xlink:href="#DejaVuSans-35" x="95.410156"/>
      </g>
     </g>
    </g>
    <g id="ytick_7">
     <g id="line2d_13">
      <g>
       <use xlink:href="#mcd972fe856" x="72" y="142.56" style="stroke: #000000; stroke-width: 0.8"/>
      </g>
     </g>
     <g id="text_13">
      <!-- 10.0 -->
      <g transform="translate(42.734375 146.359219) scale(0.1 -0.1)">
       <use xlink:href="#DejaVuSans-31"/>
       <use xlink:href="#DejaVuSans-30" x="63.623047"/>
       <use xlink:href="#DejaVuSans-2e" x="127.246094"/>
       <use xlink:href="#DejaVuSans-30" x="159.033203"/>
      </g>
     </g>
    </g>
    <g id="ytick_8">
     <g id="line2d_14">
      <g>
       <use xlink:href="#mcd972fe856" x="72" y="104.76" style="stroke: #000000; stroke-width: 0.8"/>
      </g>
     </g>
     <g id="text_14">
      <!-- 12.5 -->
      <g transform="translate(42.734375 108.559219) scale(0.1 -0.1)">
       <use xlink:href="#DejaVuSans-31"/>
       <use xlink:href="#DejaVuSans-32" x="63.623047"/>
       <use xlink:href="#DejaVuSans-2e" x="127.246094"/>
       <use xlink:href="#DejaVuSans-35" x="159.033203"/>
      </g>
     </g>
    </g>
    <g id="ytick_9">
     <g id="line2d_15">
      <g>
       <use xlink:href="#mcd972fe856" x="72" y="66.96" style="stroke: #000000; stroke-width: 0.8"/>
      </g>
     </g>
     <g id="text_15">
      <!-- 15.0 -->
      <g transform="translate(42.734375 70.759219) scale(0.1 -0.1)">
       <use xlink:href="#DejaVuSans-31"/>
       <use xlink:href="#DejaVuSans-35" x="63.623047"/>
       <use xlink:href="#DejaVuSans-2e" x="127.246094"/>
       <use xlink:href="#DejaVuSans-30" x="159.033203"/>
      </g>
     </g>
    </g>
   </g>
   <g id="line2d_16">
    <path d="M 92.290909 322.619544 
L 96.349091 322.72992 
L 100.407273 323.045928 
L 104.465455 323.526744 
L 108.523636 324.125496 
L 112.581818 324.807408 
L 116.64 325.548288 
L 120.698182 326.326968 
L 124.756364 327.134376 
L 128.814545 327.959928 
L 132.872727 328.799088 
L 136.930909 329.64732 
L 140.989091 330.503112 
L 145.047273 331.360416 
L 149.105455 332.220744 
L 153.163636 333.081072 
L 157.221818 333.9414 
L 161.28 334.800216 
L 165.338182 335.654496 
L 169.396364 336.507264 
L 173.454545 337.355496 
L 177.512727 338.200704 
L 181.570909 339.038352 
L 185.629091 339.872976 
L 189.687273 340.701552 
L 193.745455 341.522568 
L 197.803636 342.339048 
L 201.861818 343.147968 
L 205.92 343.949328 
L 209.978182 344.743128 
L 214.036364 345.53088 
L 218.094545 346.30956 
L 222.152727 347.08068 
L 226.210909 347.84424 
L 230.269091 348.598728 
L 234.327273 349.345656 
L 238.385455 350.083512 
L 242.443636 350.810784 
L 246.501818 351.530496 
L 250.56 352.241136 
L 254.618182 352.941192 
L 258.676364 353.633688 
L 262.734545 354.314088 
L 266.792727 354.986928 
L 270.850909 355.649184 
L 274.909091 356.300856 
L 278.967273 356.941944 
L 283.025455 357.57396 
L 287.083636 358.195392 
L 291.141818 358.80624 
L 295.2 359.406504 
L 299.258182 359.996184 
L 303.316364 360.57528 
L 307.374545 361.14228 
L 311.432727 361.700208 
L 315.490909 362.24604 
L 319.549091 362.781288 
L 323.607273 363.305952 
L 327.665455 363.81852 
L 331.723636 364.320504 
L 335.781818 364.810392 
L 339.84 365.288184 
L 343.898182 365.756904 
L 347.956364 366.212016 
L 352.014545 366.656544 
L 356.072727 367.088976 
L 360.130909 367.510824 
L 364.189091 367.919064 
L 368.247273 368.31672 
L 372.305455 368.703792 
L 376.363636 369.077256 
L 380.421818 369.438624 
L 384.48 369.789408 
L 388.538182 370.128096 
L 392.596364 370.453176 
L 396.654545 370.767672 
L 400.712727 371.070072 
L 404.770909 371.360376 
L 408.829091 371.637072 
L 412.887273 371.903184 
L 416.945455 372.1572 
L 421.003636 372.397608 
L 425.061818 372.627432 
L 429.12 372.843648 
L 433.178182 373.04928 
L 437.236364 373.241304 
L 441.294545 373.421232 
L 445.352727 373.587552 
L 449.410909 373.743288 
L 453.469091 373.886928 
L 457.527273 374.01696 
L 461.585455 374.134896 
L 465.643636 374.240736 
L 469.701818 374.33448 
L 473.76 374.414616 
L 477.818182 374.482656 
L 481.876364 374.5386 
L 485.934545 374.582448 
L 489.992727 374.6142 
L 494.050909 374.632344 
L 498.109091 374.638392 
" clip-path="url(#pd3d3cbe2cc)" style="fill: none; stroke: #000000; stroke-opacity: 0.5; stroke-linecap: square"/>
   </g>
   <g id="line2d_17">
    <path d="M 92.290909 314.906832 
L 96.349091 314.794944 
L 100.407273 314.478936 
L 104.465455 313.999632 
L 108.523636 313.40088 
L 112.581818 312.717456 
L 116.64 311.978088 
L 120.698182 311.199408 
L 124.756364 310.392 
L 128.814545 309.566448 
L 132.872727 308.727288 
L 136.930909 307.879056 
L 140.989091 307.024776 
L 145.047273 306.167472 
L 149.105455 305.307144 
L 153.163636 304.445304 
L 157.221818 303.584976 
L 161.28 302.72616 
L 165.338182 301.868856 
L 169.396364 301.013064 
L 173.454545 300.161808 
L 177.512727 299.313576 
L 181.570909 298.468368 
L 185.629091 297.627696 
L 189.687273 296.790048 
L 193.745455 295.956936 
L 197.803636 295.126848 
L 201.861818 294.301296 
L 205.92 293.478768 
L 209.978182 292.660776 
L 214.036364 291.84732 
L 218.094545 291.035376 
L 222.152727 290.226456 
L 226.210909 289.42056 
L 230.269091 288.617688 
L 234.327273 287.81784 
L 238.385455 287.019504 
L 242.443636 286.22268 
L 246.501818 285.425856 
L 250.56 284.632056 
L 254.618182 283.838256 
L 258.676364 283.044456 
L 262.734545 282.250656 
L 266.792727 281.456856 
L 270.850909 280.663056 
L 274.909091 279.867744 
L 278.967273 279.07092 
L 283.025455 278.272584 
L 287.083636 277.472736 
L 291.141818 276.671376 
L 295.2 275.866992 
L 299.258182 275.061096 
L 303.316364 274.250664 
L 307.374545 273.43872 
L 311.432727 272.623752 
L 315.490909 271.804248 
L 319.549091 270.98172 
L 323.607273 270.156168 
L 327.665455 269.32608 
L 331.723636 268.492968 
L 335.781818 267.65532 
L 339.84 266.813136 
L 343.898182 265.967928 
L 347.956364 265.118184 
L 352.014545 264.263904 
L 356.072727 263.4066 
L 360.130909 262.54476 
L 364.189091 261.678384 
L 368.247273 260.808984 
L 372.305455 259.935048 
L 376.363636 259.058088 
L 380.421818 258.178104 
L 384.48 257.293584 
L 388.538182 256.407552 
L 392.596364 255.518496 
L 396.654545 254.627928 
L 400.712727 253.734336 
L 404.770909 252.839232 
L 408.829091 251.94564 
L 412.887273 251.050536 
L 416.945455 250.155432 
L 421.003636 249.263352 
L 425.061818 248.372784 
L 429.12 247.486752 
L 433.178182 246.605256 
L 437.236364 245.73132 
L 441.294545 244.866456 
L 445.352727 244.012176 
L 449.410909 243.173016 
L 453.469091 242.350488 
L 457.527273 241.55064 
L 461.585455 240.778008 
L 465.643636 240.03864 
L 469.701818 239.340096 
L 473.76 238.69296 
L 477.818182 238.109328 
L 481.876364 237.601296 
L 485.934545 237.183984 
L 489.992727 236.871 
L 494.050909 236.677464 
L 498.109091 236.612448 
" clip-path="url(#pd3d3cbe2cc)" style="fill: none; stroke: #000000; stroke-opacity: 0.5; stroke-linecap: square"/>
   </g>
   <g id="line2d_18">
    <path d="M 92.290909 263.060352 
L 96.349091 263.049768 
L 100.407273 263.016504 
L 104.465455 262.96056 
L 108.523636 262.883448 
L 112.581818 262.785168 
L 116.64 262.664208 
L 120.698182 262.520568 
L 124.756364 262.357272 
L 128.814545 262.172808 
L 132.872727 261.967176 
L 136.930909 261.740376 
L 140.989091 261.49392 
L 145.047273 261.22932 
L 149.105455 260.943552 
L 153.163636 260.63964 
L 157.221818 260.317584 
L 161.28 259.977384 
L 165.338182 259.61904 
L 169.396364 259.245576 
L 173.454545 258.85548 
L 177.512727 258.450264 
L 181.570909 258.03144 
L 185.629091 257.597496 
L 189.687273 257.149944 
L 193.745455 256.691808 
L 197.803636 256.220064 
L 201.861818 255.737736 
L 205.92 255.246336 
L 209.978182 254.744352 
L 214.036364 254.231784 
L 218.094545 253.711656 
L 222.152727 253.183968 
L 226.210909 252.64872 
L 230.269091 252.105912 
L 234.327273 251.555544 
L 238.385455 251.00064 
L 242.443636 250.438176 
L 246.501818 249.871176 
L 250.56 249.296616 
L 254.618182 248.719032 
L 258.676364 248.1354 
L 262.734545 247.54572 
L 266.792727 246.951504 
L 270.850909 246.352752 
L 274.909091 245.749464 
L 278.967273 245.140128 
L 283.025455 244.527768 
L 287.083636 243.90936 
L 291.141818 243.286416 
L 295.2 242.658936 
L 299.258182 242.028432 
L 303.316364 241.39188 
L 307.374545 240.750792 
L 311.432727 240.10668 
L 315.490909 239.458032 
L 319.549091 238.804848 
L 323.607273 238.14864 
L 327.665455 237.487896 
L 331.723636 236.824128 
L 335.781818 236.157336 
L 339.84 235.48752 
L 343.898182 234.81468 
L 347.956364 234.138816 
L 352.014545 233.46144 
L 356.072727 232.782552 
L 360.130909 232.102152 
L 364.189091 231.421752 
L 368.247273 230.741352 
L 372.305455 230.060952 
L 376.363636 229.382064 
L 380.421818 228.704688 
L 384.48 228.028824 
L 388.538182 227.357496 
L 392.596364 226.690704 
L 396.654545 226.02996 
L 400.712727 225.375264 
L 404.770909 224.728128 
L 408.829091 224.091576 
L 412.887273 223.465608 
L 416.945455 222.851736 
L 421.003636 222.256008 
L 425.061818 221.676912 
L 429.12 221.120496 
L 433.178182 220.592808 
L 437.236364 220.099896 
L 441.294545 219.65688 
L 445.352727 219.287952 
L 449.410909 219.035448 
L 453.469091 218.964384 
L 457.527273 219.115584 
L 461.585455 219.446712 
L 465.643636 219.880656 
L 469.701818 220.356936 
L 473.76 220.834728 
L 477.818182 221.28984 
L 481.876364 221.699592 
L 485.934545 222.042816 
L 489.992727 222.304392 
L 494.050909 222.4692 
L 498.109091 222.525144 
" clip-path="url(#pd3d3cbe2cc)" style="fill: none; stroke: #000000; stroke-opacity: 0.5; stroke-linecap: square"/>
   </g>
   <g id="line2d_19">
    <path d="M 92.290909 248.12784 
L 96.349091 248.118768 
L 100.407273 248.09004 
L 104.465455 248.04468 
L 108.523636 247.979664 
L 112.581818 247.894992 
L 116.64 247.792176 
L 120.698182 247.671216 
L 124.756364 247.5306 
L 128.814545 247.370328 
L 132.872727 247.191912 
L 136.930909 246.99384 
L 140.989091 246.776112 
L 145.047273 246.537216 
L 149.105455 246.280176 
L 153.163636 246.001968 
L 157.221818 245.702592 
L 161.28 245.38356 
L 165.338182 245.04336 
L 169.396364 244.681992 
L 173.454545 244.299456 
L 177.512727 243.89424 
L 181.570909 243.469368 
L 185.629091 243.021816 
L 189.687273 242.553096 
L 193.745455 242.061696 
L 197.803636 241.549128 
L 201.861818 241.015392 
L 205.92 240.458976 
L 209.978182 239.881392 
L 214.036364 239.284152 
L 218.094545 238.664232 
L 222.152727 238.024656 
L 226.210909 237.366936 
L 230.269091 236.688048 
L 234.327273 235.992528 
L 238.385455 235.278864 
L 242.443636 234.548568 
L 246.501818 233.803152 
L 250.56 233.042616 
L 254.618182 232.268472 
L 258.676364 231.483744 
L 262.734545 230.68692 
L 266.792727 229.881024 
L 270.850909 229.066056 
L 274.909091 228.24504 
L 278.967273 227.419488 
L 283.025455 226.590912 
L 287.083636 225.762336 
L 291.141818 224.932248 
L 295.2 224.105184 
L 299.258182 223.282656 
L 303.316364 222.467688 
L 307.374545 221.66028 
L 311.432727 220.864968 
L 315.490909 220.081752 
L 319.549091 219.315168 
L 323.607273 218.56824 
L 327.665455 217.84248 
L 331.723636 217.142424 
L 335.781818 216.468072 
L 339.84 215.82396 
L 343.898182 215.214624 
L 347.956364 214.643088 
L 352.014545 214.109352 
L 356.072727 213.619464 
L 360.130909 213.176448 
L 364.189091 212.781816 
L 368.247273 212.438592 
L 372.305455 212.1498 
L 376.363636 211.918464 
L 380.421818 211.743072 
L 384.48 211.626648 
L 388.538182 211.569192 
L 392.596364 211.572216 
L 396.654545 211.632696 
L 400.712727 211.752144 
L 404.770909 211.926024 
L 408.829091 212.152824 
L 412.887273 212.431032 
L 416.945455 212.7546 
L 421.003636 213.122016 
L 425.061818 213.527232 
L 429.12 213.962688 
L 433.178182 214.423848 
L 437.236364 214.897104 
L 441.294545 215.367336 
L 445.352727 215.80884 
L 449.410909 216.173232 
L 453.469091 216.393984 
L 457.527273 216.427248 
L 461.585455 216.306288 
L 465.643636 216.106704 
L 469.701818 215.879904 
L 473.76 215.65764 
L 477.818182 215.455032 
L 481.876364 215.281152 
L 485.934545 215.140536 
L 489.992727 215.03772 
L 494.050909 214.975728 
L 498.109091 214.95456 
" clip-path="url(#pd3d3cbe2cc)" style="fill: none; stroke: #000000; stroke-opacity: 0.5; stroke-linecap: square"/>
   </g>
   <g id="line2d_20">
    <path d="M 92.290909 177.225624 
L 96.349091 177.219576 
L 100.407273 177.19992 
L 104.465455 177.168168 
L 108.523636 177.12432 
L 112.581818 177.068376 
L 116.64 176.998824 
L 120.698182 176.917176 
L 124.756364 176.82192 
L 128.814545 176.71608 
L 132.872727 176.596632 
L 136.930909 176.465088 
L 140.989091 176.321448 
L 145.047273 176.165712 
L 149.105455 175.99788 
L 153.163636 175.817952 
L 157.221818 175.625928 
L 161.28 175.42332 
L 165.338182 175.208616 
L 169.396364 174.983328 
L 173.454545 174.745944 
L 177.512727 174.496464 
L 181.570909 174.237912 
L 185.629091 173.967264 
L 189.687273 173.687544 
L 193.745455 173.395728 
L 197.803636 173.096352 
L 201.861818 172.78488 
L 205.92 172.464336 
L 209.978182 172.13472 
L 214.036364 171.797544 
L 218.094545 171.449784 
L 222.152727 171.094464 
L 226.210909 170.731584 
L 230.269091 170.361144 
L 234.327273 169.983144 
L 238.385455 169.597584 
L 242.443636 169.207488 
L 246.501818 168.812856 
L 250.56 168.412176 
L 254.618182 168.00696 
L 258.676364 167.59872 
L 262.734545 167.188968 
L 266.792727 166.777704 
L 270.850909 166.367952 
L 274.909091 165.9582 
L 278.967273 165.551472 
L 283.025455 165.150792 
L 287.083636 164.759184 
L 291.141818 164.37816 
L 295.2 164.010744 
L 299.258182 163.664496 
L 303.316364 163.343952 
L 307.374545 163.05516 
L 311.432727 162.807192 
L 315.490909 162.607608 
L 319.549091 162.46548 
L 323.607273 162.38988 
L 327.665455 162.383832 
L 331.723636 162.447336 
L 335.781818 162.574344 
L 339.84 162.754272 
L 343.898182 162.975024 
L 347.956364 163.22148 
L 352.014545 163.481544 
L 356.072727 163.74312 
L 360.130909 163.998648 
L 364.189091 164.239056 
L 368.247273 164.459808 
L 372.305455 164.654856 
L 376.363636 164.8242 
L 380.421818 164.966328 
L 384.48 165.082752 
L 388.538182 165.176496 
L 392.596364 165.252096 
L 396.654545 165.318624 
L 400.712727 165.388176 
L 404.770909 165.469824 
L 408.829091 165.5802 
L 412.887273 165.7314 
L 416.945455 165.932496 
L 421.003636 166.189536 
L 425.061818 166.499496 
L 429.12 166.856328 
L 433.178182 167.249448 
L 437.236364 167.668272 
L 441.294545 168.100704 
L 445.352727 168.539184 
L 449.410909 168.97464 
L 453.469091 169.396488 
L 457.527273 169.803216 
L 461.585455 170.18424 
L 465.643636 170.53956 
L 469.701818 170.861616 
L 473.76 171.148896 
L 477.818182 171.395352 
L 481.876364 171.602496 
L 485.934545 171.765792 
L 489.992727 171.883728 
L 494.050909 171.954792 
L 498.109091 171.977472 
" clip-path="url(#pd3d3cbe2cc)" style="fill: none; stroke: #000000; stroke-opacity: 0.5; stroke-linecap: square"/>
   </g>
   <g id="line2d_21">
    <path d="M 92.290909 154.125288 
L 96.349091 154.117728 
L 100.407273 154.092024 
L 104.465455 154.048176 
L 108.523636 153.987696 
L 112.581818 153.910584 
L 116.64 153.815328 
L 120.698182 153.70344 
L 124.756364 153.57492 
L 128.814545 153.428256 
L 132.872727 153.263448 
L 136.930909 153.082008 
L 140.989091 152.883936 
L 145.047273 152.666208 
L 149.105455 152.43336 
L 153.163636 152.180856 
L 157.221818 151.91172 
L 161.28 151.62444 
L 165.338182 151.319016 
L 169.396364 150.99696 
L 173.454545 150.655248 
L 177.512727 150.296904 
L 181.570909 149.920416 
L 185.629091 149.525784 
L 189.687273 149.111496 
L 193.745455 148.680576 
L 197.803636 148.231512 
L 201.861818 147.762792 
L 205.92 147.275928 
L 209.978182 146.77092 
L 214.036364 146.247768 
L 218.094545 145.706472 
L 222.152727 145.14552 
L 226.210909 144.566424 
L 230.269091 143.969184 
L 234.327273 143.355312 
L 238.385455 142.721784 
L 242.443636 142.071624 
L 246.501818 141.409368 
L 250.56 141.240024 
L 254.618182 142.145712 
L 258.676364 143.055936 
L 262.734545 143.952552 
L 266.792727 144.832536 
L 270.850909 145.695888 
L 274.909091 146.541096 
L 278.967273 147.365136 
L 283.025455 148.166496 
L 287.083636 148.942152 
L 291.141818 149.68908 
L 295.2 150.404256 
L 299.258182 151.08012 
L 303.316364 151.713648 
L 307.374545 152.294256 
L 311.432727 152.817408 
L 315.490909 153.269496 
L 319.549091 153.644472 
L 323.607273 153.933264 
L 327.665455 154.131336 
L 331.723636 154.238688 
L 335.781818 154.261368 
L 339.84 154.20996 
L 343.898182 154.101096 
L 347.956364 153.946872 
L 352.014545 153.768456 
L 356.072727 153.583992 
L 360.130909 153.41616 
L 364.189091 153.292176 
L 368.247273 153.246816 
L 372.305455 153.316368 
L 376.363636 153.528048 
L 380.421818 153.87732 
L 384.48 154.333944 
L 388.538182 154.851048 
L 392.596364 155.390832 
L 396.654545 155.920032 
L 400.712727 156.412944 
L 404.770909 156.846888 
L 408.829091 157.200696 
L 412.887273 157.46076 
L 416.945455 157.614984 
L 421.003636 157.65732 
L 425.061818 157.592304 
L 429.12 157.425984 
L 433.178182 157.170456 
L 437.236364 156.839328 
L 441.294545 156.444696 
L 445.352727 156.000168 
L 449.410909 155.51784 
L 453.469091 155.005272 
L 457.527273 154.47456 
L 461.585455 153.936288 
L 465.643636 153.398016 
L 469.701818 152.87184 
L 473.76 152.368344 
L 477.818182 151.901136 
L 481.876364 151.483824 
L 485.934545 151.13304 
L 489.992727 150.865416 
L 494.050909 150.696072 
L 498.109091 150.638616 
" clip-path="url(#pd3d3cbe2cc)" style="fill: none; stroke: #000000; stroke-opacity: 0.5; stroke-linecap: square"/>
   </g>
   <g id="line2d_22">
    <path d="M 92.290909 98.618256 
L 96.349091 99.00684 
L 100.407273 99.90648 
L 104.465455 101.01024 
L 108.523636 102.192624 
L 112.581818 103.409784 
L 116.64 104.63904 
L 120.698182 105.874344 
L 124.756364 107.109648 
L 128.814545 108.341928 
L 132.872727 109.569672 
L 136.930909 110.791368 
L 140.989091 112.005504 
L 145.047273 113.21208 
L 149.105455 114.409584 
L 153.163636 115.599528 
L 157.221818 116.781912 
L 161.28 117.953712 
L 165.338182 119.11644 
L 169.396364 120.270096 
L 173.454545 121.41468 
L 177.512727 122.550192 
L 181.570909 123.67512 
L 185.629091 124.789464 
L 189.687273 125.894736 
L 193.745455 126.990936 
L 197.803636 128.076552 
L 201.861818 129.151584 
L 205.92 130.216032 
L 209.978182 131.271408 
L 214.036364 132.3162 
L 218.094545 133.348896 
L 222.152727 134.37252 
L 226.210909 135.384048 
L 230.269091 136.384992 
L 234.327273 137.37384 
L 238.385455 138.350592 
L 242.443636 139.313736 
L 246.501818 140.260248 
L 250.56 140.682096 
L 254.618182 139.998672 
L 258.676364 139.280472 
L 262.734545 138.54564 
L 266.792727 137.795688 
L 270.850909 137.032128 
L 274.909091 136.259496 
L 278.967273 135.482328 
L 283.025455 134.708184 
L 287.083636 133.953696 
L 291.141818 133.255152 
L 295.2 132.695712 
L 299.258182 132.462864 
L 303.316364 132.760728 
L 307.374545 133.498584 
L 311.432727 134.449632 
L 315.490909 135.486864 
L 319.549091 136.555848 
L 323.607273 137.635416 
L 327.665455 138.710448 
L 331.723636 139.776408 
L 335.781818 140.825736 
L 339.84 141.853896 
L 343.898182 142.857864 
L 347.956364 143.83008 
L 352.014545 144.762984 
L 356.072727 145.645992 
L 360.130909 146.465496 
L 364.189091 147.197304 
L 368.247273 147.811176 
L 372.305455 148.270824 
L 376.363636 148.55508 
L 380.421818 148.662432 
L 384.48 148.626144 
L 388.538182 148.485528 
L 392.596364 148.276872 
L 396.654545 148.024368 
L 400.712727 147.74616 
L 404.770909 147.452832 
L 408.829091 147.154968 
L 412.887273 146.855592 
L 416.945455 146.562264 
L 421.003636 146.276496 
L 425.061818 146.002824 
L 429.12 145.74276 
L 433.178182 145.499328 
L 437.236364 145.27404 
L 441.294545 145.071432 
L 445.352727 144.891504 
L 449.410909 144.735768 
L 453.469091 144.60876 
L 457.527273 144.508968 
L 461.585455 144.440928 
L 465.643636 144.401616 
L 469.701818 144.392544 
L 473.76 144.4122 
L 477.818182 144.454536 
L 481.876364 144.513504 
L 485.934545 144.57852 
L 489.992727 144.639 
L 494.050909 144.681336 
L 498.109091 144.696456 
" clip-path="url(#pd3d3cbe2cc)" style="fill: none; stroke: #000000; stroke-opacity: 0.5; stroke-linecap: square"/>
   </g>
   <g id="line2d_23">
    <path d="M 92.290909 94.572144 
L 96.349091 94.177512 
L 100.407273 93.259728 
L 104.465455 92.12724 
L 108.523636 90.907056 
L 112.581818 89.644536 
L 116.64 88.363872 
L 120.698182 87.075648 
L 124.756364 85.796496 
L 128.814545 84.540024 
L 132.872727 83.33496 
L 136.930909 82.23876 
L 140.989091 81.373896 
L 145.047273 80.970192 
L 149.105455 81.222696 
L 153.163636 82.018008 
L 157.221818 83.105136 
L 161.28 84.337416 
L 165.338182 85.642272 
L 169.396364 86.987952 
L 173.454545 88.357824 
L 177.512727 89.741304 
L 181.570909 91.135368 
L 185.629091 92.533968 
L 189.687273 93.935592 
L 193.745455 95.34024 
L 197.803636 96.743376 
L 201.861818 98.145 
L 205.92 99.545112 
L 209.978182 100.9422 
L 214.036364 102.336264 
L 218.094545 103.725792 
L 222.152727 105.112296 
L 226.210909 106.492752 
L 230.269091 107.86716 
L 234.327273 109.237032 
L 238.385455 110.599344 
L 242.443636 111.955608 
L 246.501818 113.3028 
L 250.56 114.642432 
L 254.618182 115.972992 
L 258.676364 117.291456 
L 262.734545 118.600848 
L 266.792727 119.896632 
L 270.850909 121.177296 
L 274.909091 122.439816 
L 278.967273 123.678144 
L 283.025455 124.886232 
L 287.083636 126.045936 
L 291.141818 127.12248 
L 295.2 128.02968 
L 299.258182 128.58156 
L 303.316364 128.575512 
L 307.374545 128.100744 
L 311.432727 127.385568 
L 315.490909 126.55548 
L 319.549091 125.666424 
L 323.607273 124.74108 
L 327.665455 123.793056 
L 331.723636 122.829912 
L 335.781818 121.859208 
L 339.84 120.888504 
L 343.898182 119.922336 
L 347.956364 118.971288 
L 352.014545 118.047456 
L 356.072727 117.168984 
L 360.130909 116.363088 
L 364.189091 115.670592 
L 368.247273 115.155 
L 372.305455 114.885864 
L 376.363636 114.917616 
L 380.421818 115.235136 
L 384.48 115.77492 
L 388.538182 116.456832 
L 392.596364 117.22644 
L 396.654545 118.04292 
L 400.712727 118.883592 
L 404.770909 119.733336 
L 408.829091 120.584592 
L 412.887273 121.4298 
L 416.945455 122.265936 
L 421.003636 123.088464 
L 425.061818 123.89436 
L 429.12 124.683624 
L 433.178182 125.453232 
L 437.236364 126.201672 
L 441.294545 126.92592 
L 445.352727 127.625976 
L 449.410909 128.297304 
L 453.469091 128.938392 
L 457.527273 129.544704 
L 461.585455 130.113216 
L 465.643636 130.63788 
L 469.701818 131.117184 
L 473.76 131.54508 
L 477.818182 131.91552 
L 481.876364 132.22548 
L 485.934545 132.471936 
L 489.992727 132.64884 
L 494.050909 132.756192 
L 498.109091 132.79248 
" clip-path="url(#pd3d3cbe2cc)" style="fill: none; stroke: #000000; stroke-opacity: 0.5; stroke-linecap: square"/>
   </g>
   <g id="patch_3">
    <path d="M 72 384.48 
L 72 51.84 
" style="fill: none; stroke: #000000; stroke-width: 0.8; stroke-linejoin: miter; stroke-linecap: square"/>
   </g>
   <g id="patch_4">
    <path d="M 518.4 384.48 
L 518.4 51.84 
" style="fill: none; stroke: #000000; stroke-width: 0.8; stroke-linejoin: miter; stroke-linecap: square"/>
   </g>
   <g id="patch_5">
    <path d="M 72 384.48 
L 518.4 384.48 
" style="fill: none; stroke: #000000; stroke-width: 0.8; stroke-linejoin: miter; stroke-linecap: square"/>
   </g>
   <g id="patch_6">
    <path d="M 72 51.84 
L 518.4 51.84 
" style="fill: none; stroke: #000000; stroke-width: 0.8; stroke-linejoin: miter; stroke-linecap: square"/>
   </g>
  </g>
 </g>
 <defs>
  <clipPath id="pd3d3cbe2cc">
   <rect x="72" y="51.84" width="446.4" height="332.64"/>
  </clipPath>
 </defs>
</svg>
