<?xml version="1.0" encoding="utf-8" standalone="no"?>
<!DOCTYPE svg PUBLIC "-//W3C//DTD SVG 1.1//EN"
  "http://www.w3.org/Graphics/SVG/1.1/DTD/svg11.dtd">
<svg xmlns:xlink="http://www.w3.org/1999/xlink" width="576pt" height="432pt" viewBox="0 0 576 432" xmlns="http://www.w3.org/2000/svg" version="1.1">
 <metadata>
  <rdf:RDF xmlns:dc="http://purl.org/dc/elements/1.1/" xmlns:cc="http://creativecommons.org/ns#" xmlns:rdf="http://www.w3.org/1999/02/22-rdf-syntax-ns#">
   <cc:Work>
    <dc:type rdf:resource="http://purl.org/dc/dcmitype/StillImage"/>
    <dc:date>2023-05-03T08:30:32.112904</dc:date>
    <dc:format>image/svg+xml</dc:format>
    <dc:creator>
     <cc:Agent>
      <dc:title>Matplotlib v3.7.1, https://matplotlib.org/</dc:title>
     </cc:Agent>
    </dc:creator>
   </cc:Work>
  </rdf:RDF>
 </metadata>
 <defs>
  <style type="text/css">*{stroke-linejoin: round; stroke-linecap: butt}</style>
 </defs>
 <g id="figure_1">
  <g id="patch_1">
   <path d="M 0 432 
L 576 432 
L 576 0 
L 0 0 
z
" style="fill: #ffffff"/>
  </g>
  <g id="axes_1">
   <g id="patch_2">
    <path d="M 72 384.48 
L 518.4 384.48 
L 518.4 51.84 
L 72 51.84 
z
" style="fill: #ffffff"/>
   </g>
   <g id="matplotlib.axis_1">
    <g id="xtick_1">
     <g id="line2d_1">
      <defs>
       <path id="m10064eddb8" d="M 0 0 
L 0 3.5 
" style="stroke: #000000; stroke-width: 0.8"/>
      </defs>
      <g>
       <use xlink:href="#m10064eddb8" x="92.290909" y="384.48" style="stroke: #000000; stroke-width: 0.8"/>
      </g>
     </g>
     <g id="text_1">
      <!-- 0.0 -->
      <g transform="translate(84.339347 399.078438) scale(0.1 -0.1)">
       <defs>
        <path id="DejaVuSans-30" d="M 2034 4250 
Q 1547 4250 1301 3770 
Q 1056 3291 1056 2328 
Q 1056 1369 1301 889 
Q 1547 409 2034 409 
Q 2525 409 2770 889 
Q 3016 1369 3016 2328 
Q 3016 3291 2770 3770 
Q 2525 4250 2034 4250 
z
M 2034 4750 
Q 2819 4750 3233 4129 
Q 3647 3509 3647 2328 
Q 3647 1150 3233 529 
Q 2819 -91 2034 -91 
Q 1250 -91 836 529 
Q 422 1150 422 2328 
Q 422 3509 836 4129 
Q 1250 4750 2034 4750 
z
" transform="scale(0.015625)"/>
        <path id="DejaVuSans-2e" d="M 684 794 
L 1344 794 
L 1344 0 
L 684 0 
L 684 794 
z
" transform="scale(0.015625)"/>
       </defs>
       <use xlink:href="#DejaVuSans-30"/>
       <use xlink:href="#DejaVuSans-2e" x="63.623047"/>
       <use xlink:href="#DejaVuSans-30" x="95.410156"/>
      </g>
     </g>
    </g>
    <g id="xtick_2">
     <g id="line2d_2">
      <g>
       <use xlink:href="#m10064eddb8" x="173.454545" y="384.48" style="stroke: #000000; stroke-width: 0.8"/>
      </g>
     </g>
     <g id="text_2">
      <!-- 0.2 -->
      <g transform="translate(165.502983 399.078438) scale(0.1 -0.1)">
       <defs>
        <path id="DejaVuSans-32" d="M 1228 531 
L 3431 531 
L 3431 0 
L 469 0 
L 469 531 
Q 828 903 1448 1529 
Q 2069 2156 2228 2338 
Q 2531 2678 2651 2914 
Q 2772 3150 2772 3378 
Q 2772 3750 2511 3984 
Q 2250 4219 1831 4219 
Q 1534 4219 1204 4116 
Q 875 4013 500 3803 
L 500 4441 
Q 881 4594 1212 4672 
Q 1544 4750 1819 4750 
Q 2544 4750 2975 4387 
Q 3406 4025 3406 3419 
Q 3406 3131 3298 2873 
Q 3191 2616 2906 2266 
Q 2828 2175 2409 1742 
Q 1991 1309 1228 531 
z
" transform="scale(0.015625)"/>
       </defs>
       <use xlink:href="#DejaVuSans-30"/>
       <use xlink:href="#DejaVuSans-2e" x="63.623047"/>
       <use xlink:href="#DejaVuSans-32" x="95.410156"/>
      </g>
     </g>
    </g>
    <g id="xtick_3">
     <g id="line2d_3">
      <g>
       <use xlink:href="#m10064eddb8" x="254.618182" y="384.48" style="stroke: #000000; stroke-width: 0.8"/>
      </g>
     </g>
     <g id="text_3">
      <!-- 0.4 -->
      <g transform="translate(246.666619 399.078438) scale(0.1 -0.1)">
       <defs>
        <path id="DejaVuSans-34" d="M 2419 4116 
L 825 1625 
L 2419 1625 
L 2419 4116 
z
M 2253 4666 
L 3047 4666 
L 3047 1625 
L 3713 1625 
L 3713 1100 
L 3047 1100 
L 3047 0 
L 2419 0 
L 2419 1100 
L 313 1100 
L 313 1709 
L 2253 4666 
z
" transform="scale(0.015625)"/>
       </defs>
       <use xlink:href="#DejaVuSans-30"/>
       <use xlink:href="#DejaVuSans-2e" x="63.623047"/>
       <use xlink:href="#DejaVuSans-34" x="95.410156"/>
      </g>
     </g>
    </g>
    <g id="xtick_4">
     <g id="line2d_4">
      <g>
       <use xlink:href="#m10064eddb8" x="335.781818" y="384.48" style="stroke: #000000; stroke-width: 0.8"/>
      </g>
     </g>
     <g id="text_4">
      <!-- 0.6 -->
      <g transform="translate(327.830256 399.078438) scale(0.1 -0.1)">
       <defs>
        <path id="DejaVuSans-36" d="M 2113 2584 
Q 1688 2584 1439 2293 
Q 1191 2003 1191 1497 
Q 1191 994 1439 701 
Q 1688 409 2113 409 
Q 2538 409 2786 701 
Q 3034 994 3034 1497 
Q 3034 2003 2786 2293 
Q 2538 2584 2113 2584 
z
M 3366 4563 
L 3366 3988 
Q 3128 4100 2886 4159 
Q 2644 4219 2406 4219 
Q 1781 4219 1451 3797 
Q 1122 3375 1075 2522 
Q 1259 2794 1537 2939 
Q 1816 3084 2150 3084 
Q 2853 3084 3261 2657 
Q 3669 2231 3669 1497 
Q 3669 778 3244 343 
Q 2819 -91 2113 -91 
Q 1303 -91 875 529 
Q 447 1150 447 2328 
Q 447 3434 972 4092 
Q 1497 4750 2381 4750 
Q 2619 4750 2861 4703 
Q 3103 4656 3366 4563 
z
" transform="scale(0.015625)"/>
       </defs>
       <use xlink:href="#DejaVuSans-30"/>
       <use xlink:href="#DejaVuSans-2e" x="63.623047"/>
       <use xlink:href="#DejaVuSans-36" x="95.410156"/>
      </g>
     </g>
    </g>
    <g id="xtick_5">
     <g id="line2d_5">
      <g>
       <use xlink:href="#m10064eddb8" x="416.945455" y="384.48" style="stroke: #000000; stroke-width: 0.8"/>
      </g>
     </g>
     <g id="text_5">
      <!-- 0.8 -->
      <g transform="translate(408.993892 399.078438) scale(0.1 -0.1)">
       <defs>
        <path id="DejaVuSans-38" d="M 2034 2216 
Q 1584 2216 1326 1975 
Q 1069 1734 1069 1313 
Q 1069 891 1326 650 
Q 1584 409 2034 409 
Q 2484 409 2743 651 
Q 3003 894 3003 1313 
Q 3003 1734 2745 1975 
Q 2488 2216 2034 2216 
z
M 1403 2484 
Q 997 2584 770 2862 
Q 544 3141 544 3541 
Q 544 4100 942 4425 
Q 1341 4750 2034 4750 
Q 2731 4750 3128 4425 
Q 3525 4100 3525 3541 
Q 3525 3141 3298 2862 
Q 3072 2584 2669 2484 
Q 3125 2378 3379 2068 
Q 3634 1759 3634 1313 
Q 3634 634 3220 271 
Q 2806 -91 2034 -91 
Q 1263 -91 848 271 
Q 434 634 434 1313 
Q 434 1759 690 2068 
Q 947 2378 1403 2484 
z
M 1172 3481 
Q 1172 3119 1398 2916 
Q 1625 2713 2034 2713 
Q 2441 2713 2670 2916 
Q 2900 3119 2900 3481 
Q 2900 3844 2670 4047 
Q 2441 4250 2034 4250 
Q 1625 4250 1398 4047 
Q 1172 3844 1172 3481 
z
" transform="scale(0.015625)"/>
       </defs>
       <use xlink:href="#DejaVuSans-30"/>
       <use xlink:href="#DejaVuSans-2e" x="63.623047"/>
       <use xlink:href="#DejaVuSans-38" x="95.410156"/>
      </g>
     </g>
    </g>
    <g id="xtick_6">
     <g id="line2d_6">
      <g>
       <use xlink:href="#m10064eddb8" x="498.109091" y="384.48" style="stroke: #000000; stroke-width: 0.8"/>
      </g>
     </g>
     <g id="text_6">
      <!-- 1.0 -->
      <g transform="translate(490.157528 399.078438) scale(0.1 -0.1)">
       <defs>
        <path id="DejaVuSans-31" d="M 794 531 
L 1825 531 
L 1825 4091 
L 703 3866 
L 703 4441 
L 1819 4666 
L 2450 4666 
L 2450 531 
L 3481 531 
L 3481 0 
L 794 0 
L 794 531 
z
" transform="scale(0.015625)"/>
       </defs>
       <use xlink:href="#DejaVuSans-31"/>
       <use xlink:href="#DejaVuSans-2e" x="63.623047"/>
       <use xlink:href="#DejaVuSans-30" x="95.410156"/>
      </g>
     </g>
    </g>
   </g>
   <g id="matplotlib.axis_2">
    <g id="ytick_1">
     <g id="line2d_7">
      <defs>
       <path id="m2e51dd6db7" d="M 0 0 
L -3.5 0 
" style="stroke: #000000; stroke-width: 0.8"/>
      </defs>
      <g>
       <use xlink:href="#m2e51dd6db7" x="72" y="369.36" style="stroke: #000000; stroke-width: 0.8"/>
      </g>
     </g>
     <g id="text_7">
      <!-- −5.0 -->
      <g transform="translate(40.717187 373.159219) scale(0.1 -0.1)">
       <defs>
        <path id="DejaVuSans-2212" d="M 678 2272 
L 4684 2272 
L 4684 1741 
L 678 1741 
L 678 2272 
z
" transform="scale(0.015625)"/>
        <path id="DejaVuSans-35" d="M 691 4666 
L 3169 4666 
L 3169 4134 
L 1269 4134 
L 1269 2991 
Q 1406 3038 1543 3061 
Q 1681 3084 1819 3084 
Q 2600 3084 3056 2656 
Q 3513 2228 3513 1497 
Q 3513 744 3044 326 
Q 2575 -91 1722 -91 
Q 1428 -91 1123 -41 
Q 819 9 494 109 
L 494 744 
Q 775 591 1075 516 
Q 1375 441 1709 441 
Q 2250 441 2565 725 
Q 2881 1009 2881 1497 
Q 2881 1984 2565 2268 
Q 2250 2553 1709 2553 
Q 1456 2553 1204 2497 
Q 953 2441 691 2322 
L 691 4666 
z
" transform="scale(0.015625)"/>
       </defs>
       <use xlink:href="#DejaVuSans-2212"/>
       <use xlink:href="#DejaVuSans-35" x="83.789062"/>
       <use xlink:href="#DejaVuSans-2e" x="147.412109"/>
       <use xlink:href="#DejaVuSans-30" x="179.199219"/>
      </g>
     </g>
    </g>
    <g id="ytick_2">
     <g id="line2d_8">
      <g>
       <use xlink:href="#m2e51dd6db7" x="72" y="331.56" style="stroke: #000000; stroke-width: 0.8"/>
      </g>
     </g>
     <g id="text_8">
      <!-- −2.5 -->
      <g transform="translate(40.717187 335.359219) scale(0.1 -0.1)">
       <use xlink:href="#DejaVuSans-2212"/>
       <use xlink:href="#DejaVuSans-32" x="83.789062"/>
       <use xlink:href="#DejaVuSans-2e" x="147.412109"/>
       <use xlink:href="#DejaVuSans-35" x="179.199219"/>
      </g>
     </g>
    </g>
    <g id="ytick_3">
     <g id="line2d_9">
      <g>
       <use xlink:href="#m2e51dd6db7" x="72" y="293.76" style="stroke: #000000; stroke-width: 0.8"/>
      </g>
     </g>
     <g id="text_9">
      <!-- 0.0 -->
      <g transform="translate(49.096875 297.559219) scale(0.1 -0.1)">
       <use xlink:href="#DejaVuSans-30"/>
       <use xlink:href="#DejaVuSans-2e" x="63.623047"/>
       <use xlink:href="#DejaVuSans-30" x="95.410156"/>
      </g>
     </g>
    </g>
    <g id="ytick_4">
     <g id="line2d_10">
      <g>
       <use xlink:href="#m2e51dd6db7" x="72" y="255.96" style="stroke: #000000; stroke-width: 0.8"/>
      </g>
     </g>
     <g id="text_10">
      <!-- 2.5 -->
      <g transform="translate(49.096875 259.759219) scale(0.1 -0.1)">
       <use xlink:href="#DejaVuSans-32"/>
       <use xlink:href="#DejaVuSans-2e" x="63.623047"/>
       <use xlink:href="#DejaVuSans-35" x="95.410156"/>
      </g>
     </g>
    </g>
    <g id="ytick_5">
     <g id="line2d_11">
      <g>
       <use xlink:href="#m2e51dd6db7" x="72" y="218.16" style="stroke: #000000; stroke-width: 0.8"/>
      </g>
     </g>
     <g id="text_11">
      <!-- 5.0 -->
      <g transform="translate(49.096875 221.959219) scale(0.1 -0.1)">
       <use xlink:href="#DejaVuSans-35"/>
       <use xlink:href="#DejaVuSans-2e" x="63.623047"/>
       <use xlink:href="#DejaVuSans-30" x="95.410156"/>
      </g>
     </g>
    </g>
    <g id="ytick_6">
     <g id="line2d_12">
      <g>
       <use xlink:href="#m2e51dd6db7" x="72" y="180.36" style="stroke: #000000; stroke-width: 0.8"/>
      </g>
     </g>
     <g id="text_12">
      <!-- 7.5 -->
      <g transform="translate(49.096875 184.159219) scale(0.1 -0.1)">
       <defs>
        <path id="DejaVuSans-37" d="M 525 4666 
L 3525 4666 
L 3525 4397 
L 1831 0 
L 1172 0 
L 2766 4134 
L 525 4134 
L 525 4666 
z
" transform="scale(0.015625)"/>
       </defs>
       <use xlink:href="#DejaVuSans-37"/>
       <use xlink:href="#DejaVuSans-2e" x="63.623047"/>
       <use xlink:href="#DejaVuSans-35" x="95.410156"/>
      </g>
     </g>
    </g>
    <g id="ytick_7">
     <g id="line2d_13">
      <g>
       <use xlink:href="#m2e51dd6db7" x="72" y="142.56" style="stroke: #000000; stroke-width: 0.8"/>
      </g>
     </g>
     <g id="text_13">
      <!-- 10.0 -->
      <g transform="translate(42.734375 146.359219) scale(0.1 -0.1)">
       <use xlink:href="#DejaVuSans-31"/>
       <use xlink:href="#DejaVuSans-30" x="63.623047"/>
       <use xlink:href="#DejaVuSans-2e" x="127.246094"/>
       <use xlink:href="#DejaVuSans-30" x="159.033203"/>
      </g>
     </g>
    </g>
    <g id="ytick_8">
     <g id="line2d_14">
      <g>
       <use xlink:href="#m2e51dd6db7" x="72" y="104.76" style="stroke: #000000; stroke-width: 0.8"/>
      </g>
     </g>
     <g id="text_14">
      <!-- 12.5 -->
      <g transform="translate(42.734375 108.559219) scale(0.1 -0.1)">
       <use xlink:href="#DejaVuSans-31"/>
       <use xlink:href="#DejaVuSans-32" x="63.623047"/>
       <use xlink:href="#DejaVuSans-2e" x="127.246094"/>
       <use xlink:href="#DejaVuSans-35" x="159.033203"/>
      </g>
     </g>
    </g>
    <g id="ytick_9">
     <g id="line2d_15">
      <g>
       <use xlink:href="#m2e51dd6db7" x="72" y="66.96" style="stroke: #000000; stroke-width: 0.8"/>
      </g>
     </g>
     <g id="text_15">
      <!-- 15.0 -->
      <g transform="translate(42.734375 70.759219) scale(0.1 -0.1)">
       <use xlink:href="#DejaVuSans-31"/>
       <use xlink:href="#DejaVuSans-35" x="63.623047"/>
       <use xlink:href="#DejaVuSans-2e" x="127.246094"/>
       <use xlink:href="#DejaVuSans-30" x="159.033203"/>
      </g>
     </g>
    </g>
   </g>
   <g id="line2d_16">
    <path d="M 92.290909 358.834968 
L 96.349091 358.830432 
L 100.407273 358.815312 
L 104.465455 358.79112 
L 108.523636 358.756344 
L 112.581818 358.712496 
L 116.64 358.658064 
L 120.698182 358.59456 
L 124.756364 358.520472 
L 128.814545 358.437312 
L 132.872727 358.34508 
L 136.930909 358.242264 
L 140.989091 358.131888 
L 145.047273 358.010928 
L 149.105455 357.879384 
L 153.163636 357.74028 
L 157.221818 357.592104 
L 161.28 357.434856 
L 165.338182 357.268536 
L 169.396364 357.093144 
L 173.454545 356.90868 
L 177.512727 356.716656 
L 181.570909 356.517072 
L 185.629091 356.308416 
L 189.687273 356.090688 
L 193.745455 355.866912 
L 197.803636 355.635576 
L 201.861818 355.39668 
L 205.92 355.150224 
L 209.978182 354.896208 
L 214.036364 354.637656 
L 218.094545 354.371544 
L 222.152727 354.099384 
L 226.210909 353.821176 
L 230.269091 353.538432 
L 234.327273 353.24964 
L 238.385455 352.957824 
L 242.443636 352.65996 
L 246.501818 352.359072 
L 250.56 352.05516 
L 254.618182 351.748224 
L 258.676364 351.438264 
L 262.734545 351.126792 
L 266.792727 350.813808 
L 270.850909 350.499312 
L 274.909091 350.184816 
L 278.967273 349.87032 
L 283.025455 349.555824 
L 287.083636 349.24284 
L 291.141818 348.93288 
L 295.2 348.625944 
L 299.258182 348.32052 
L 303.316364 348.021144 
L 307.374545 347.724792 
L 311.432727 347.434488 
L 315.490909 347.14872 
L 319.549091 346.870512 
L 323.607273 346.599864 
L 327.665455 346.336776 
L 331.723636 346.081248 
L 335.781818 345.834792 
L 339.84 345.597408 
L 343.898182 345.370608 
L 347.956364 345.154392 
L 352.014545 344.947248 
L 356.072727 344.750688 
L 360.130909 344.566224 
L 364.189091 344.390832 
L 368.247273 344.227536 
L 372.305455 344.076336 
L 376.363636 343.934208 
L 380.421818 343.804176 
L 384.48 343.683216 
L 388.538182 343.57284 
L 392.596364 343.473048 
L 396.654545 343.382328 
L 400.712727 343.299168 
L 404.770909 343.226592 
L 408.829091 343.161576 
L 412.887273 343.102608 
L 416.945455 343.052712 
L 421.003636 343.007352 
L 425.061818 342.969552 
L 429.12 342.936288 
L 433.178182 342.909072 
L 437.236364 342.88488 
L 441.294545 342.865224 
L 445.352727 342.850104 
L 449.410909 342.836496 
L 453.469091 342.825912 
L 457.527273 342.818352 
L 461.585455 342.810792 
L 465.643636 342.806256 
L 469.701818 342.803232 
L 473.76 342.800208 
L 477.818182 342.798696 
L 481.876364 342.797184 
L 485.934545 342.797184 
L 489.992727 342.795672 
L 494.050909 342.795672 
L 498.109091 342.795672 
" clip-path="url(#pb766d8ff7c)" style="fill: none; stroke: #000000; stroke-opacity: 0.5; stroke-linecap: square"/>
   </g>
   <g id="line2d_17">
    <path d="M 92.290909 274.763232 
L 96.349091 274.810104 
L 100.407273 274.949208 
L 104.465455 275.17752 
L 108.523636 275.488992 
L 112.581818 275.874552 
L 116.64 276.329664 
L 120.698182 276.842232 
L 124.756364 277.406208 
L 128.814545 278.014032 
L 132.872727 278.658144 
L 136.930909 279.332496 
L 140.989091 280.03104 
L 145.047273 280.750752 
L 149.105455 281.485584 
L 153.163636 282.232512 
L 157.221818 282.987 
L 161.28 283.749048 
L 165.338182 284.51412 
L 169.396364 285.282216 
L 173.454545 286.0488 
L 177.512727 286.813872 
L 181.570909 287.57592 
L 185.629091 288.333432 
L 189.687273 289.084896 
L 193.745455 289.8288 
L 197.803636 290.565144 
L 201.861818 291.293928 
L 205.92 292.012128 
L 209.978182 292.719744 
L 214.036364 293.416776 
L 218.094545 294.101712 
L 222.152727 294.77304 
L 226.210909 295.433784 
L 230.269091 296.077896 
L 234.327273 296.709912 
L 238.385455 297.325296 
L 242.443636 297.927072 
L 246.501818 298.510704 
L 250.56 299.079216 
L 254.618182 299.629584 
L 258.676364 300.161808 
L 262.734545 300.674376 
L 266.792727 301.170312 
L 270.850909 301.64508 
L 274.909091 302.09868 
L 278.967273 302.532624 
L 283.025455 302.9454 
L 287.083636 303.335496 
L 291.141818 303.7014 
L 295.2 304.046136 
L 299.258182 304.365168 
L 303.316364 304.660008 
L 307.374545 304.930656 
L 311.432727 305.174088 
L 315.490909 305.391816 
L 319.549091 305.582328 
L 323.607273 305.747136 
L 327.665455 305.881704 
L 331.723636 305.990568 
L 335.781818 306.069192 
L 339.84 306.119088 
L 343.898182 306.140256 
L 347.956364 306.132696 
L 352.014545 306.096408 
L 356.072727 306.02988 
L 360.130909 305.934624 
L 364.189091 305.812152 
L 368.247273 305.65944 
L 372.305455 305.481024 
L 376.363636 305.27388 
L 380.421818 305.041032 
L 384.48 304.78248 
L 388.538182 304.499736 
L 392.596364 304.1928 
L 396.654545 303.863184 
L 400.712727 303.5124 
L 404.770909 303.143472 
L 408.829091 302.7564 
L 412.887273 302.352696 
L 416.945455 301.933872 
L 421.003636 301.504464 
L 425.061818 301.06296 
L 429.12 300.615408 
L 433.178182 300.161808 
L 437.236364 299.706696 
L 441.294545 299.253096 
L 445.352727 298.80252 
L 449.410909 298.361016 
L 453.469091 297.928584 
L 457.527273 297.514296 
L 461.585455 297.118152 
L 465.643636 296.7462 
L 469.701818 296.404488 
L 473.76 296.09604 
L 477.818182 295.825392 
L 481.876364 295.595568 
L 485.934545 295.414128 
L 489.992727 295.281072 
L 494.050909 295.200936 
L 498.109091 295.17372 
" clip-path="url(#pb766d8ff7c)" style="fill: none; stroke: #000000; stroke-opacity: 0.5; stroke-linecap: square"/>
   </g>
   <g id="line2d_18">
    <path d="M 92.290909 251.039952 
L 96.349091 250.98552 
L 100.407273 250.82676 
L 104.465455 250.565184 
L 108.523636 250.20684 
L 112.581818 249.7608 
L 116.64 249.233112 
L 120.698182 248.63436 
L 124.756364 247.972104 
L 128.814545 247.253904 
L 132.872727 246.48732 
L 136.930909 245.6784 
L 140.989091 244.834704 
L 145.047273 243.960768 
L 149.105455 243.059616 
L 153.163636 242.138808 
L 157.221818 241.198344 
L 161.28 240.245784 
L 165.338182 239.281128 
L 169.396364 238.308912 
L 173.454545 237.33216 
L 177.512727 236.353896 
L 181.570909 235.377144 
L 185.629091 234.403416 
L 189.687273 233.437248 
L 193.745455 232.480152 
L 197.803636 231.535152 
L 201.861818 230.606784 
L 205.92 229.698072 
L 209.978182 228.81204 
L 214.036364 227.953224 
L 218.094545 227.12616 
L 222.152727 226.33236 
L 226.210909 225.579384 
L 230.269091 224.871768 
L 234.327273 224.214048 
L 238.385455 223.61076 
L 242.443636 223.067952 
L 246.501818 222.594696 
L 250.56 222.2046 
L 254.618182 221.982336 
L 258.676364 222.062472 
L 262.734545 222.246936 
L 266.792727 222.460128 
L 270.850909 222.692976 
L 274.909091 222.948504 
L 278.967273 223.228224 
L 283.025455 223.538184 
L 287.083636 223.88292 
L 291.141818 224.273016 
L 295.2 224.711496 
L 299.258182 225.207432 
L 303.316364 225.762336 
L 307.374545 226.376208 
L 311.432727 227.049048 
L 315.490909 227.777832 
L 319.549091 228.555 
L 323.607273 229.377528 
L 327.665455 230.239368 
L 331.723636 231.137496 
L 335.781818 232.065864 
L 339.84 233.019936 
L 343.898182 233.9982 
L 347.956364 234.99612 
L 352.014545 236.012184 
L 356.072727 237.040344 
L 360.130909 238.082112 
L 364.189091 239.13144 
L 368.247273 240.188328 
L 372.305455 241.249752 
L 376.363636 242.315712 
L 380.421818 243.381672 
L 384.48 244.447632 
L 388.538182 245.510568 
L 392.596364 246.568968 
L 396.654545 247.622832 
L 400.712727 248.667624 
L 404.770909 249.703344 
L 408.829091 250.72848 
L 412.887273 251.74152 
L 416.945455 252.737928 
L 421.003636 253.717704 
L 425.061818 254.679336 
L 429.12 255.618288 
L 433.178182 256.533048 
L 437.236364 257.422104 
L 441.294545 258.279408 
L 445.352727 259.106472 
L 449.410909 259.895736 
L 453.469091 260.645688 
L 457.527273 261.35028 
L 461.585455 262.008 
L 465.643636 262.614312 
L 469.701818 263.163168 
L 473.76 263.650032 
L 477.818182 264.07188 
L 481.876364 264.424176 
L 485.934545 264.702384 
L 489.992727 264.90348 
L 494.050909 265.02444 
L 498.109091 265.065264 
" clip-path="url(#pb766d8ff7c)" style="fill: none; stroke: #000000; stroke-opacity: 0.5; stroke-linecap: square"/>
   </g>
   <g id="line2d_19">
    <path d="M 92.290909 218.955312 
L 96.349091 218.956824 
L 100.407273 218.959848 
L 104.465455 218.965896 
L 108.523636 218.973456 
L 112.581818 218.98404 
L 116.64 218.996136 
L 120.698182 219.011256 
L 124.756364 219.027888 
L 128.814545 219.049056 
L 132.872727 219.071736 
L 136.930909 219.09744 
L 140.989091 219.126168 
L 145.047273 219.15792 
L 149.105455 219.192696 
L 153.163636 219.232008 
L 157.221818 219.272832 
L 161.28 219.319704 
L 165.338182 219.368088 
L 169.396364 219.42252 
L 173.454545 219.479976 
L 177.512727 219.541968 
L 181.570909 219.608496 
L 185.629091 219.681072 
L 189.687273 219.756672 
L 193.745455 219.83832 
L 197.803636 219.926016 
L 201.861818 220.018248 
L 205.92 220.115016 
L 209.978182 220.219344 
L 214.036364 220.328208 
L 218.094545 220.444632 
L 222.152727 220.565592 
L 226.210909 220.694112 
L 230.269091 220.82868 
L 234.327273 220.969296 
L 238.385455 221.11596 
L 242.443636 221.270184 
L 246.501818 221.427432 
L 250.56 221.57712 
L 254.618182 221.640624 
L 258.676364 221.4864 
L 262.734545 221.317056 
L 266.792727 221.208192 
L 270.850909 221.16888 
L 274.909091 221.19912 
L 278.967273 221.292864 
L 283.025455 221.442552 
L 287.083636 221.639112 
L 291.141818 221.87196 
L 295.2 222.127488 
L 299.258182 222.396624 
L 303.316364 222.670296 
L 307.374545 222.940944 
L 311.432727 223.205544 
L 315.490909 223.464096 
L 319.549091 223.7166 
L 323.607273 223.960032 
L 327.665455 224.198928 
L 331.723636 224.431776 
L 335.781818 224.658576 
L 339.84 224.882352 
L 343.898182 225.10008 
L 347.956364 225.314784 
L 352.014545 225.524952 
L 356.072727 225.732096 
L 360.130909 225.934704 
L 364.189091 226.134288 
L 368.247273 226.327824 
L 372.305455 226.518336 
L 376.363636 226.705824 
L 380.421818 226.887264 
L 384.48 227.06568 
L 388.538182 227.238048 
L 392.596364 227.40588 
L 396.654545 227.569176 
L 400.712727 227.727936 
L 404.770909 227.880648 
L 408.829091 228.028824 
L 412.887273 228.170952 
L 416.945455 228.307032 
L 421.003636 228.438576 
L 425.061818 228.56256 
L 429.12 228.682008 
L 433.178182 228.795408 
L 437.236364 228.901248 
L 441.294545 229.00104 
L 445.352727 229.094784 
L 449.410909 229.18248 
L 453.469091 229.262616 
L 457.527273 229.335192 
L 461.585455 229.403232 
L 465.643636 229.4622 
L 469.701818 229.51512 
L 473.76 229.561992 
L 477.818182 229.601304 
L 481.876364 229.633056 
L 485.934545 229.657248 
L 489.992727 229.675392 
L 494.050909 229.685976 
L 498.109091 229.690512 
" clip-path="url(#pb766d8ff7c)" style="fill: none; stroke: #000000; stroke-opacity: 0.5; stroke-linecap: square"/>
   </g>
   <g id="line2d_20">
    <path d="M 92.290909 161.511408 
L 96.349091 161.521992 
L 100.407273 161.552232 
L 104.465455 161.60364 
L 108.523636 161.677728 
L 112.581818 161.774496 
L 116.64 161.895456 
L 120.698182 162.045144 
L 124.756364 162.222048 
L 128.814545 162.430704 
L 132.872727 162.672624 
L 136.930909 162.952344 
L 140.989091 163.269864 
L 145.047273 163.628208 
L 149.105455 164.028888 
L 153.163636 164.471904 
L 157.221818 164.958768 
L 161.28 165.487968 
L 165.338182 166.057992 
L 169.396364 166.665816 
L 173.454545 167.306904 
L 177.512727 167.981256 
L 181.570909 168.6798 
L 185.629091 169.401024 
L 189.687273 170.140392 
L 193.745455 170.890344 
L 197.803636 171.647856 
L 201.861818 172.40688 
L 205.92 173.161368 
L 209.978182 173.908296 
L 214.036364 174.640104 
L 218.094545 175.353768 
L 222.152727 176.041728 
L 226.210909 176.699448 
L 230.269091 177.32088 
L 234.327273 177.899976 
L 238.385455 178.4322 
L 242.443636 178.909992 
L 246.501818 179.330328 
L 250.56 179.68716 
L 254.618182 179.97444 
L 258.676364 180.190656 
L 262.734545 180.331272 
L 266.792727 180.394776 
L 270.850909 180.38268 
L 274.909091 180.29196 
L 278.967273 180.128664 
L 283.025455 179.892792 
L 287.083636 179.58888 
L 291.141818 179.224488 
L 295.2 178.80264 
L 299.258182 178.330896 
L 303.316364 177.816816 
L 307.374545 177.26796 
L 311.432727 176.691888 
L 315.490909 176.09616 
L 319.549091 175.488336 
L 323.607273 174.877488 
L 327.665455 174.272688 
L 331.723636 173.681496 
L 335.781818 173.111472 
L 339.84 172.574712 
L 343.898182 172.07424 
L 347.956364 171.619128 
L 352.014545 171.213912 
L 356.072727 170.863128 
L 360.130909 170.568288 
L 364.189091 170.32788 
L 368.247273 170.140392 
L 372.305455 170.004312 
L 376.363636 169.915104 
L 380.421818 169.86672 
L 384.48 169.853112 
L 388.538182 169.871256 
L 392.596364 169.916616 
L 396.654545 169.983144 
L 400.712727 170.067816 
L 404.770909 170.166096 
L 408.829091 170.27496 
L 412.887273 170.392896 
L 416.945455 170.515368 
L 421.003636 170.642376 
L 425.061818 170.769384 
L 429.12 170.897904 
L 433.178182 171.0234 
L 437.236364 171.147384 
L 441.294545 171.266832 
L 445.352727 171.381744 
L 449.410909 171.490608 
L 453.469091 171.591912 
L 457.527273 171.687168 
L 461.585455 171.774864 
L 465.643636 171.855 
L 469.701818 171.926064 
L 473.76 171.988056 
L 477.818182 172.040976 
L 481.876364 172.084824 
L 485.934545 172.1196 
L 489.992727 172.143792 
L 494.050909 172.158912 
L 498.109091 172.163448 
" clip-path="url(#pb766d8ff7c)" style="fill: none; stroke: #000000; stroke-opacity: 0.5; stroke-linecap: square"/>
   </g>
   <g id="line2d_21">
    <path d="M 92.290909 144.607248 
L 96.349091 144.643536 
L 100.407273 144.749376 
L 104.465455 144.924768 
L 108.523636 145.163664 
L 112.581818 145.458504 
L 116.64 145.80324 
L 120.698182 146.187288 
L 124.756364 146.6046 
L 128.814545 147.044592 
L 132.872727 147.499704 
L 136.930909 147.960864 
L 140.989091 148.420512 
L 145.047273 148.8726 
L 149.105455 149.309568 
L 153.163636 149.72688 
L 157.221818 150.123024 
L 161.28 150.491952 
L 165.338182 150.833664 
L 169.396364 151.149672 
L 173.454545 151.438464 
L 177.512727 151.70004 
L 181.570909 151.938936 
L 185.629091 152.156664 
L 189.687273 152.353224 
L 193.745455 152.53164 
L 197.803636 152.693424 
L 201.861818 152.840088 
L 205.92 152.973144 
L 209.978182 153.092592 
L 214.036364 153.199944 
L 218.094545 153.2952 
L 222.152727 153.37836 
L 226.210909 153.4464 
L 230.269091 153.502344 
L 234.327273 153.541656 
L 238.385455 153.56736 
L 242.443636 153.57492 
L 246.501818 153.565848 
L 250.56 153.538632 
L 254.618182 153.49176 
L 258.676364 153.426744 
L 262.734545 153.342072 
L 266.792727 153.239256 
L 270.850909 153.130392 
L 274.909091 153.057816 
L 278.967273 153.13644 
L 283.025455 153.31032 
L 287.083636 153.505368 
L 291.141818 153.70344 
L 295.2 153.898488 
L 299.258182 154.087488 
L 303.316364 154.264392 
L 307.374545 154.427688 
L 311.432727 154.574352 
L 315.490909 154.699848 
L 319.549091 154.79964 
L 323.607273 154.86768 
L 327.665455 154.899432 
L 331.723636 154.89036 
L 335.781818 154.832904 
L 339.84 154.721016 
L 343.898182 154.548648 
L 347.956364 154.312776 
L 352.014545 154.008864 
L 356.072727 153.6354 
L 360.130909 153.18936 
L 364.189091 152.673768 
L 368.247273 152.091648 
L 372.305455 151.446024 
L 376.363636 150.741432 
L 380.421818 149.985432 
L 384.48 149.18256 
L 388.538182 148.337352 
L 392.596364 147.457368 
L 396.654545 146.545632 
L 400.712727 145.60668 
L 404.770909 144.64656 
L 408.829091 143.665272 
L 412.887273 142.670376 
L 416.945455 141.661872 
L 421.003636 140.644296 
L 425.061818 139.617648 
L 429.12 138.587976 
L 433.178182 137.553768 
L 437.236364 136.521072 
L 441.294545 135.489888 
L 445.352727 134.464752 
L 449.410909 133.4502 
L 453.469091 132.447744 
L 457.527273 131.464944 
L 461.585455 130.507848 
L 465.643636 129.582504 
L 469.701818 128.70252 
L 473.76 127.87848 
L 477.818182 127.127016 
L 481.876364 126.466272 
L 485.934545 125.917416 
L 489.992727 125.50464 
L 494.050909 125.246088 
L 498.109091 125.158392 
" clip-path="url(#pb766d8ff7c)" style="fill: none; stroke: #000000; stroke-opacity: 0.5; stroke-linecap: square"/>
   </g>
   <g id="line2d_22">
    <path d="M 92.290909 134.098848 
L 96.349091 134.1684 
L 100.407273 134.374032 
L 104.465455 134.700624 
L 108.523636 135.127008 
L 112.581818 135.632016 
L 116.64 136.199016 
L 120.698182 136.80684 
L 124.756364 137.446416 
L 128.814545 138.104136 
L 132.872727 138.77244 
L 136.930909 139.44528 
L 140.989091 140.116608 
L 145.047273 140.780376 
L 149.105455 141.435072 
L 153.163636 142.07616 
L 157.221818 142.702128 
L 161.28 143.309952 
L 165.338182 143.899632 
L 169.396364 144.468144 
L 173.454545 145.015488 
L 177.512727 145.540152 
L 181.570909 146.042136 
L 185.629091 146.519928 
L 189.687273 146.973528 
L 193.745455 147.402936 
L 197.803636 147.809664 
L 201.861818 148.193712 
L 205.92 148.55508 
L 209.978182 148.89528 
L 214.036364 149.215824 
L 218.094545 149.519736 
L 222.152727 149.805504 
L 226.210909 150.077664 
L 230.269091 150.337728 
L 234.327273 150.585696 
L 238.385455 150.826104 
L 242.443636 151.058952 
L 246.501818 151.285752 
L 250.56 151.508016 
L 254.618182 151.727256 
L 258.676364 151.943472 
L 262.734545 152.156664 
L 266.792727 152.363808 
L 270.850909 152.555832 
L 274.909091 152.685864 
L 278.967273 152.642016 
L 283.025455 152.474184 
L 287.083636 152.25948 
L 291.141818 152.011512 
L 295.2 151.736328 
L 299.258182 151.433928 
L 303.316364 151.107336 
L 307.374545 150.753528 
L 311.432727 150.375528 
L 315.490909 149.971824 
L 319.549091 149.543928 
L 323.607273 149.090328 
L 327.665455 148.611024 
L 331.723636 148.107528 
L 335.781818 147.57984 
L 339.84 147.02796 
L 343.898182 146.450376 
L 347.956364 145.8486 
L 352.014545 145.222632 
L 356.072727 144.573984 
L 360.130909 143.899632 
L 364.189091 143.2026 
L 368.247273 142.482888 
L 372.305455 141.738984 
L 376.363636 140.9724 
L 380.421818 140.183136 
L 384.48 139.372704 
L 388.538182 138.539592 
L 392.596364 137.685312 
L 396.654545 136.809864 
L 400.712727 135.91476 
L 404.770909 135.001512 
L 408.829091 134.067096 
L 412.887273 133.11756 
L 416.945455 132.14988 
L 421.003636 131.16708 
L 425.061818 130.16916 
L 429.12 129.159144 
L 433.178182 128.138544 
L 437.236364 127.108872 
L 441.294545 126.073152 
L 445.352727 125.032896 
L 449.410909 123.99264 
L 453.469091 122.953896 
L 457.527273 121.922712 
L 461.585455 120.902112 
L 465.643636 119.899656 
L 469.701818 118.921392 
L 473.76 117.976392 
L 477.818182 117.07524 
L 481.876364 116.231544 
L 485.934545 115.467984 
L 489.992727 114.823872 
L 494.050909 114.36876 
L 498.109091 114.197904 
" clip-path="url(#pb766d8ff7c)" style="fill: none; stroke: #000000; stroke-opacity: 0.5; stroke-linecap: square"/>
   </g>
   <g id="line2d_23">
    <path d="M 92.290909 121.196952 
L 96.349091 121.109256 
L 100.407273 120.852216 
L 104.465455 120.440952 
L 108.523636 119.89512 
L 112.581818 119.232864 
L 116.64 118.476864 
L 120.698182 117.640728 
L 124.756364 116.739576 
L 128.814545 115.780968 
L 132.872727 114.775488 
L 136.930909 113.729184 
L 140.989091 112.646592 
L 145.047273 111.532248 
L 149.105455 110.389176 
L 153.163636 109.221912 
L 157.221818 108.03348 
L 161.28 106.825392 
L 165.338182 105.59916 
L 169.396364 104.35932 
L 173.454545 103.108896 
L 177.512727 101.847888 
L 181.570909 100.583856 
L 185.629091 99.3168 
L 189.687273 98.05428 
L 193.745455 96.800832 
L 197.803636 95.562504 
L 201.861818 94.351392 
L 205.92 93.176568 
L 209.978182 92.053152 
L 214.036364 90.997776 
L 218.094545 90.03312 
L 222.152727 89.177328 
L 226.210909 88.450056 
L 230.269091 87.860376 
L 234.327273 87.411312 
L 238.385455 87.089256 
L 242.443636 86.876064 
L 246.501818 86.747544 
L 250.56 86.68404 
L 254.618182 86.659848 
L 258.676364 86.662872 
L 262.734545 86.67648 
L 266.792727 86.690088 
L 270.850909 86.696136 
L 274.909091 86.690088 
L 278.967273 86.665896 
L 283.025455 86.622048 
L 287.083636 86.55552 
L 291.141818 86.466312 
L 295.2 86.355936 
L 299.258182 86.22288 
L 303.316364 86.068656 
L 307.374545 85.896288 
L 311.432727 85.707288 
L 315.490909 85.506192 
L 319.549091 85.293 
L 323.607273 85.07376 
L 327.665455 84.849984 
L 331.723636 84.626208 
L 335.781818 84.403944 
L 339.84 84.190752 
L 343.898182 83.98512 
L 347.956364 83.793096 
L 352.014545 83.617704 
L 356.072727 83.457432 
L 360.130909 83.318328 
L 364.189091 83.197368 
L 368.247273 83.099088 
L 372.305455 83.020464 
L 376.363636 82.961496 
L 380.421818 82.923696 
L 384.48 82.905552 
L 388.538182 82.90404 
L 392.596364 82.920672 
L 396.654545 82.963008 
L 400.712727 83.105136 
L 404.770909 84.09096 
L 408.829091 85.38372 
L 412.887273 86.702184 
L 416.945455 88.02972 
L 421.003636 89.36028 
L 425.061818 90.69084 
L 429.12 92.016864 
L 433.178182 93.33684 
L 437.236364 94.646232 
L 441.294545 95.943528 
L 445.352727 97.225704 
L 449.410909 98.491248 
L 453.469091 99.734112 
L 457.527273 100.952784 
L 461.585455 102.142728 
L 465.643636 103.297896 
L 469.701818 104.41224 
L 473.76 105.4782 
L 477.818182 106.486704 
L 481.876364 107.419608 
L 485.934545 108.257256 
L 489.992727 108.9558 
L 494.050909 109.445688 
L 498.109091 109.627128 
" clip-path="url(#pb766d8ff7c)" style="fill: none; stroke: #000000; stroke-opacity: 0.5; stroke-linecap: square"/>
   </g>
   <g id="patch_3">
    <path d="M 72 384.48 
L 72 51.84 
" style="fill: none; stroke: #000000; stroke-width: 0.8; stroke-linejoin: miter; stroke-linecap: square"/>
   </g>
   <g id="patch_4">
    <path d="M 518.4 384.48 
L 518.4 51.84 
" style="fill: none; stroke: #000000; stroke-width: 0.8; stroke-linejoin: miter; stroke-linecap: square"/>
   </g>
   <g id="patch_5">
    <path d="M 72 384.48 
L 518.4 384.48 
" style="fill: none; stroke: #000000; stroke-width: 0.8; stroke-linejoin: miter; stroke-linecap: square"/>
   </g>
   <g id="patch_6">
    <path d="M 72 51.84 
L 518.4 51.84 
" style="fill: none; stroke: #000000; stroke-width: 0.8; stroke-linejoin: miter; stroke-linecap: square"/>
   </g>
  </g>
 </g>
 <defs>
  <clipPath id="pb766d8ff7c">
   <rect x="72" y="51.84" width="446.4" height="332.64"/>
  </clipPath>
 </defs>
</svg>
