<?xml version="1.0" encoding="utf-8" standalone="no"?>
<!DOCTYPE svg PUBLIC "-//W3C//DTD SVG 1.1//EN"
  "http://www.w3.org/Graphics/SVG/1.1/DTD/svg11.dtd">
<svg xmlns:xlink="http://www.w3.org/1999/xlink" width="576pt" height="432pt" viewBox="0 0 576 432" xmlns="http://www.w3.org/2000/svg" version="1.1">
 <metadata>
  <rdf:RDF xmlns:dc="http://purl.org/dc/elements/1.1/" xmlns:cc="http://creativecommons.org/ns#" xmlns:rdf="http://www.w3.org/1999/02/22-rdf-syntax-ns#">
   <cc:Work>
    <dc:type rdf:resource="http://purl.org/dc/dcmitype/StillImage"/>
    <dc:date>2023-05-03T18:28:37.376755</dc:date>
    <dc:format>image/svg+xml</dc:format>
    <dc:creator>
     <cc:Agent>
      <dc:title>Matplotlib v3.7.1, https://matplotlib.org/</dc:title>
     </cc:Agent>
    </dc:creator>
   </cc:Work>
  </rdf:RDF>
 </metadata>
 <defs>
  <style type="text/css">*{stroke-linejoin: round; stroke-linecap: butt}</style>
 </defs>
 <g id="figure_1">
  <g id="patch_1">
   <path d="M 0 432 
L 576 432 
L 576 0 
L 0 0 
z
" style="fill: #ffffff"/>
  </g>
  <g id="axes_1">
   <g id="patch_2">
    <path d="M 72 384.48 
L 518.4 384.48 
L 518.4 51.84 
L 72 51.84 
z
" style="fill: #ffffff"/>
   </g>
   <g id="matplotlib.axis_1">
    <g id="xtick_1">
     <g id="line2d_1">
      <defs>
       <path id="ma89f5f1cc4" d="M 0 0 
L 0 3.5 
" style="stroke: #000000; stroke-width: 0.8"/>
      </defs>
      <g>
       <use xlink:href="#ma89f5f1cc4" x="92.290909" y="384.48" style="stroke: #000000; stroke-width: 0.8"/>
      </g>
     </g>
     <g id="text_1">
      <!-- 0.0 -->
      <g transform="translate(84.339347 399.078438) scale(0.1 -0.1)">
       <defs>
        <path id="DejaVuSans-30" d="M 2034 4250 
Q 1547 4250 1301 3770 
Q 1056 3291 1056 2328 
Q 1056 1369 1301 889 
Q 1547 409 2034 409 
Q 2525 409 2770 889 
Q 3016 1369 3016 2328 
Q 3016 3291 2770 3770 
Q 2525 4250 2034 4250 
z
M 2034 4750 
Q 2819 4750 3233 4129 
Q 3647 3509 3647 2328 
Q 3647 1150 3233 529 
Q 2819 -91 2034 -91 
Q 1250 -91 836 529 
Q 422 1150 422 2328 
Q 422 3509 836 4129 
Q 1250 4750 2034 4750 
z
" transform="scale(0.015625)"/>
        <path id="DejaVuSans-2e" d="M 684 794 
L 1344 794 
L 1344 0 
L 684 0 
L 684 794 
z
" transform="scale(0.015625)"/>
       </defs>
       <use xlink:href="#DejaVuSans-30"/>
       <use xlink:href="#DejaVuSans-2e" x="63.623047"/>
       <use xlink:href="#DejaVuSans-30" x="95.410156"/>
      </g>
     </g>
    </g>
    <g id="xtick_2">
     <g id="line2d_2">
      <g>
       <use xlink:href="#ma89f5f1cc4" x="173.454545" y="384.48" style="stroke: #000000; stroke-width: 0.8"/>
      </g>
     </g>
     <g id="text_2">
      <!-- 0.2 -->
      <g transform="translate(165.502983 399.078438) scale(0.1 -0.1)">
       <defs>
        <path id="DejaVuSans-32" d="M 1228 531 
L 3431 531 
L 3431 0 
L 469 0 
L 469 531 
Q 828 903 1448 1529 
Q 2069 2156 2228 2338 
Q 2531 2678 2651 2914 
Q 2772 3150 2772 3378 
Q 2772 3750 2511 3984 
Q 2250 4219 1831 4219 
Q 1534 4219 1204 4116 
Q 875 4013 500 3803 
L 500 4441 
Q 881 4594 1212 4672 
Q 1544 4750 1819 4750 
Q 2544 4750 2975 4387 
Q 3406 4025 3406 3419 
Q 3406 3131 3298 2873 
Q 3191 2616 2906 2266 
Q 2828 2175 2409 1742 
Q 1991 1309 1228 531 
z
" transform="scale(0.015625)"/>
       </defs>
       <use xlink:href="#DejaVuSans-30"/>
       <use xlink:href="#DejaVuSans-2e" x="63.623047"/>
       <use xlink:href="#DejaVuSans-32" x="95.410156"/>
      </g>
     </g>
    </g>
    <g id="xtick_3">
     <g id="line2d_3">
      <g>
       <use xlink:href="#ma89f5f1cc4" x="254.618182" y="384.48" style="stroke: #000000; stroke-width: 0.8"/>
      </g>
     </g>
     <g id="text_3">
      <!-- 0.4 -->
      <g transform="translate(246.666619 399.078438) scale(0.1 -0.1)">
       <defs>
        <path id="DejaVuSans-34" d="M 2419 4116 
L 825 1625 
L 2419 1625 
L 2419 4116 
z
M 2253 4666 
L 3047 4666 
L 3047 1625 
L 3713 1625 
L 3713 1100 
L 3047 1100 
L 3047 0 
L 2419 0 
L 2419 1100 
L 313 1100 
L 313 1709 
L 2253 4666 
z
" transform="scale(0.015625)"/>
       </defs>
       <use xlink:href="#DejaVuSans-30"/>
       <use xlink:href="#DejaVuSans-2e" x="63.623047"/>
       <use xlink:href="#DejaVuSans-34" x="95.410156"/>
      </g>
     </g>
    </g>
    <g id="xtick_4">
     <g id="line2d_4">
      <g>
       <use xlink:href="#ma89f5f1cc4" x="335.781818" y="384.48" style="stroke: #000000; stroke-width: 0.8"/>
      </g>
     </g>
     <g id="text_4">
      <!-- 0.6 -->
      <g transform="translate(327.830256 399.078438) scale(0.1 -0.1)">
       <defs>
        <path id="DejaVuSans-36" d="M 2113 2584 
Q 1688 2584 1439 2293 
Q 1191 2003 1191 1497 
Q 1191 994 1439 701 
Q 1688 409 2113 409 
Q 2538 409 2786 701 
Q 3034 994 3034 1497 
Q 3034 2003 2786 2293 
Q 2538 2584 2113 2584 
z
M 3366 4563 
L 3366 3988 
Q 3128 4100 2886 4159 
Q 2644 4219 2406 4219 
Q 1781 4219 1451 3797 
Q 1122 3375 1075 2522 
Q 1259 2794 1537 2939 
Q 1816 3084 2150 3084 
Q 2853 3084 3261 2657 
Q 3669 2231 3669 1497 
Q 3669 778 3244 343 
Q 2819 -91 2113 -91 
Q 1303 -91 875 529 
Q 447 1150 447 2328 
Q 447 3434 972 4092 
Q 1497 4750 2381 4750 
Q 2619 4750 2861 4703 
Q 3103 4656 3366 4563 
z
" transform="scale(0.015625)"/>
       </defs>
       <use xlink:href="#DejaVuSans-30"/>
       <use xlink:href="#DejaVuSans-2e" x="63.623047"/>
       <use xlink:href="#DejaVuSans-36" x="95.410156"/>
      </g>
     </g>
    </g>
    <g id="xtick_5">
     <g id="line2d_5">
      <g>
       <use xlink:href="#ma89f5f1cc4" x="416.945455" y="384.48" style="stroke: #000000; stroke-width: 0.8"/>
      </g>
     </g>
     <g id="text_5">
      <!-- 0.8 -->
      <g transform="translate(408.993892 399.078438) scale(0.1 -0.1)">
       <defs>
        <path id="DejaVuSans-38" d="M 2034 2216 
Q 1584 2216 1326 1975 
Q 1069 1734 1069 1313 
Q 1069 891 1326 650 
Q 1584 409 2034 409 
Q 2484 409 2743 651 
Q 3003 894 3003 1313 
Q 3003 1734 2745 1975 
Q 2488 2216 2034 2216 
z
M 1403 2484 
Q 997 2584 770 2862 
Q 544 3141 544 3541 
Q 544 4100 942 4425 
Q 1341 4750 2034 4750 
Q 2731 4750 3128 4425 
Q 3525 4100 3525 3541 
Q 3525 3141 3298 2862 
Q 3072 2584 2669 2484 
Q 3125 2378 3379 2068 
Q 3634 1759 3634 1313 
Q 3634 634 3220 271 
Q 2806 -91 2034 -91 
Q 1263 -91 848 271 
Q 434 634 434 1313 
Q 434 1759 690 2068 
Q 947 2378 1403 2484 
z
M 1172 3481 
Q 1172 3119 1398 2916 
Q 1625 2713 2034 2713 
Q 2441 2713 2670 2916 
Q 2900 3119 2900 3481 
Q 2900 3844 2670 4047 
Q 2441 4250 2034 4250 
Q 1625 4250 1398 4047 
Q 1172 3844 1172 3481 
z
" transform="scale(0.015625)"/>
       </defs>
       <use xlink:href="#DejaVuSans-30"/>
       <use xlink:href="#DejaVuSans-2e" x="63.623047"/>
       <use xlink:href="#DejaVuSans-38" x="95.410156"/>
      </g>
     </g>
    </g>
    <g id="xtick_6">
     <g id="line2d_6">
      <g>
       <use xlink:href="#ma89f5f1cc4" x="498.109091" y="384.48" style="stroke: #000000; stroke-width: 0.8"/>
      </g>
     </g>
     <g id="text_6">
      <!-- 1.0 -->
      <g transform="translate(490.157528 399.078438) scale(0.1 -0.1)">
       <defs>
        <path id="DejaVuSans-31" d="M 794 531 
L 1825 531 
L 1825 4091 
L 703 3866 
L 703 4441 
L 1819 4666 
L 2450 4666 
L 2450 531 
L 3481 531 
L 3481 0 
L 794 0 
L 794 531 
z
" transform="scale(0.015625)"/>
       </defs>
       <use xlink:href="#DejaVuSans-31"/>
       <use xlink:href="#DejaVuSans-2e" x="63.623047"/>
       <use xlink:href="#DejaVuSans-30" x="95.410156"/>
      </g>
     </g>
    </g>
   </g>
   <g id="matplotlib.axis_2">
    <g id="ytick_1">
     <g id="line2d_7">
      <defs>
       <path id="m104c9b5ad8" d="M 0 0 
L -3.5 0 
" style="stroke: #000000; stroke-width: 0.8"/>
      </defs>
      <g>
       <use xlink:href="#m104c9b5ad8" x="72" y="369.36" style="stroke: #000000; stroke-width: 0.8"/>
      </g>
     </g>
     <g id="text_7">
      <!-- −5.0 -->
      <g transform="translate(40.717187 373.159219) scale(0.1 -0.1)">
       <defs>
        <path id="DejaVuSans-2212" d="M 678 2272 
L 4684 2272 
L 4684 1741 
L 678 1741 
L 678 2272 
z
" transform="scale(0.015625)"/>
        <path id="DejaVuSans-35" d="M 691 4666 
L 3169 4666 
L 3169 4134 
L 1269 4134 
L 1269 2991 
Q 1406 3038 1543 3061 
Q 1681 3084 1819 3084 
Q 2600 3084 3056 2656 
Q 3513 2228 3513 1497 
Q 3513 744 3044 326 
Q 2575 -91 1722 -91 
Q 1428 -91 1123 -41 
Q 819 9 494 109 
L 494 744 
Q 775 591 1075 516 
Q 1375 441 1709 441 
Q 2250 441 2565 725 
Q 2881 1009 2881 1497 
Q 2881 1984 2565 2268 
Q 2250 2553 1709 2553 
Q 1456 2553 1204 2497 
Q 953 2441 691 2322 
L 691 4666 
z
" transform="scale(0.015625)"/>
       </defs>
       <use xlink:href="#DejaVuSans-2212"/>
       <use xlink:href="#DejaVuSans-35" x="83.789062"/>
       <use xlink:href="#DejaVuSans-2e" x="147.412109"/>
       <use xlink:href="#DejaVuSans-30" x="179.199219"/>
      </g>
     </g>
    </g>
    <g id="ytick_2">
     <g id="line2d_8">
      <g>
       <use xlink:href="#m104c9b5ad8" x="72" y="331.56" style="stroke: #000000; stroke-width: 0.8"/>
      </g>
     </g>
     <g id="text_8">
      <!-- −2.5 -->
      <g transform="translate(40.717187 335.359219) scale(0.1 -0.1)">
       <use xlink:href="#DejaVuSans-2212"/>
       <use xlink:href="#DejaVuSans-32" x="83.789062"/>
       <use xlink:href="#DejaVuSans-2e" x="147.412109"/>
       <use xlink:href="#DejaVuSans-35" x="179.199219"/>
      </g>
     </g>
    </g>
    <g id="ytick_3">
     <g id="line2d_9">
      <g>
       <use xlink:href="#m104c9b5ad8" x="72" y="293.76" style="stroke: #000000; stroke-width: 0.8"/>
      </g>
     </g>
     <g id="text_9">
      <!-- 0.0 -->
      <g transform="translate(49.096875 297.559219) scale(0.1 -0.1)">
       <use xlink:href="#DejaVuSans-30"/>
       <use xlink:href="#DejaVuSans-2e" x="63.623047"/>
       <use xlink:href="#DejaVuSans-30" x="95.410156"/>
      </g>
     </g>
    </g>
    <g id="ytick_4">
     <g id="line2d_10">
      <g>
       <use xlink:href="#m104c9b5ad8" x="72" y="255.96" style="stroke: #000000; stroke-width: 0.8"/>
      </g>
     </g>
     <g id="text_10">
      <!-- 2.5 -->
      <g transform="translate(49.096875 259.759219) scale(0.1 -0.1)">
       <use xlink:href="#DejaVuSans-32"/>
       <use xlink:href="#DejaVuSans-2e" x="63.623047"/>
       <use xlink:href="#DejaVuSans-35" x="95.410156"/>
      </g>
     </g>
    </g>
    <g id="ytick_5">
     <g id="line2d_11">
      <g>
       <use xlink:href="#m104c9b5ad8" x="72" y="218.16" style="stroke: #000000; stroke-width: 0.8"/>
      </g>
     </g>
     <g id="text_11">
      <!-- 5.0 -->
      <g transform="translate(49.096875 221.959219) scale(0.1 -0.1)">
       <use xlink:href="#DejaVuSans-35"/>
       <use xlink:href="#DejaVuSans-2e" x="63.623047"/>
       <use xlink:href="#DejaVuSans-30" x="95.410156"/>
      </g>
     </g>
    </g>
    <g id="ytick_6">
     <g id="line2d_12">
      <g>
       <use xlink:href="#m104c9b5ad8" x="72" y="180.36" style="stroke: #000000; stroke-width: 0.8"/>
      </g>
     </g>
     <g id="text_12">
      <!-- 7.5 -->
      <g transform="translate(49.096875 184.159219) scale(0.1 -0.1)">
       <defs>
        <path id="DejaVuSans-37" d="M 525 4666 
L 3525 4666 
L 3525 4397 
L 1831 0 
L 1172 0 
L 2766 4134 
L 525 4134 
L 525 4666 
z
" transform="scale(0.015625)"/>
       </defs>
       <use xlink:href="#DejaVuSans-37"/>
       <use xlink:href="#DejaVuSans-2e" x="63.623047"/>
       <use xlink:href="#DejaVuSans-35" x="95.410156"/>
      </g>
     </g>
    </g>
    <g id="ytick_7">
     <g id="line2d_13">
      <g>
       <use xlink:href="#m104c9b5ad8" x="72" y="142.56" style="stroke: #000000; stroke-width: 0.8"/>
      </g>
     </g>
     <g id="text_13">
      <!-- 10.0 -->
      <g transform="translate(42.734375 146.359219) scale(0.1 -0.1)">
       <use xlink:href="#DejaVuSans-31"/>
       <use xlink:href="#DejaVuSans-30" x="63.623047"/>
       <use xlink:href="#DejaVuSans-2e" x="127.246094"/>
       <use xlink:href="#DejaVuSans-30" x="159.033203"/>
      </g>
     </g>
    </g>
    <g id="ytick_8">
     <g id="line2d_14">
      <g>
       <use xlink:href="#m104c9b5ad8" x="72" y="104.76" style="stroke: #000000; stroke-width: 0.8"/>
      </g>
     </g>
     <g id="text_14">
      <!-- 12.5 -->
      <g transform="translate(42.734375 108.559219) scale(0.1 -0.1)">
       <use xlink:href="#DejaVuSans-31"/>
       <use xlink:href="#DejaVuSans-32" x="63.623047"/>
       <use xlink:href="#DejaVuSans-2e" x="127.246094"/>
       <use xlink:href="#DejaVuSans-35" x="159.033203"/>
      </g>
     </g>
    </g>
    <g id="ytick_9">
     <g id="line2d_15">
      <g>
       <use xlink:href="#m104c9b5ad8" x="72" y="66.96" style="stroke: #000000; stroke-width: 0.8"/>
      </g>
     </g>
     <g id="text_15">
      <!-- 15.0 -->
      <g transform="translate(42.734375 70.759219) scale(0.1 -0.1)">
       <use xlink:href="#DejaVuSans-31"/>
       <use xlink:href="#DejaVuSans-35" x="63.623047"/>
       <use xlink:href="#DejaVuSans-2e" x="127.246094"/>
       <use xlink:href="#DejaVuSans-30" x="159.033203"/>
      </g>
     </g>
    </g>
   </g>
   <g id="line2d_16">
    <path d="M 92.290909 357.504408 
L 96.349091 357.499872 
L 100.407273 357.48324 
L 104.465455 357.457536 
L 108.523636 357.419736 
L 112.581818 357.372864 
L 116.64 357.315408 
L 120.698182 357.245856 
L 124.756364 357.167232 
L 128.814545 357.078024 
L 132.872727 356.978232 
L 136.930909 356.867856 
L 140.989091 356.746896 
L 145.047273 356.615352 
L 149.105455 356.474736 
L 153.163636 356.323536 
L 157.221818 356.161752 
L 161.28 355.990896 
L 165.338182 355.809456 
L 169.396364 355.617432 
L 173.454545 355.416336 
L 177.512727 355.206168 
L 181.570909 354.985416 
L 185.629091 354.75408 
L 189.687273 354.515184 
L 193.745455 354.265704 
L 197.803636 354.008664 
L 201.861818 353.74104 
L 205.92 353.465856 
L 209.978182 353.180088 
L 214.036364 352.88676 
L 218.094545 352.58436 
L 222.152727 352.2744 
L 226.210909 351.95688 
L 230.269091 351.630288 
L 234.327273 351.296136 
L 238.385455 350.954424 
L 242.443636 350.605152 
L 246.501818 350.249832 
L 250.56 349.886952 
L 254.618182 349.518024 
L 258.676364 349.141536 
L 262.734545 348.760512 
L 266.792727 348.37344 
L 270.850909 347.98032 
L 274.909091 347.582664 
L 278.967273 347.180472 
L 283.025455 346.773744 
L 287.083636 346.36248 
L 291.141818 345.948192 
L 295.2 345.53088 
L 299.258182 345.112056 
L 303.316364 344.688696 
L 307.374545 344.265336 
L 311.432727 343.840464 
L 315.490909 343.415592 
L 319.549091 342.989208 
L 323.607273 342.564336 
L 327.665455 342.139464 
L 331.723636 341.717616 
L 335.781818 341.29728 
L 339.84 340.879968 
L 343.898182 340.46568 
L 347.956364 340.055928 
L 352.014545 339.652224 
L 356.072727 339.253056 
L 360.130909 338.861448 
L 364.189091 338.475888 
L 368.247273 338.097888 
L 372.305455 337.72896 
L 376.363636 337.367592 
L 380.421818 337.016808 
L 384.48 336.676608 
L 388.538182 336.346992 
L 392.596364 336.02796 
L 396.654545 335.722536 
L 400.712727 335.427696 
L 404.770909 335.144952 
L 408.829091 334.875816 
L 412.887273 334.620288 
L 416.945455 334.376856 
L 421.003636 334.147032 
L 425.061818 333.930816 
L 429.12 333.728208 
L 433.178182 333.539208 
L 437.236364 333.362304 
L 441.294545 333.199008 
L 445.352727 333.04932 
L 449.410909 332.911728 
L 453.469091 332.786232 
L 457.527273 332.672832 
L 461.585455 332.570016 
L 465.643636 332.480808 
L 469.701818 332.402184 
L 473.76 332.334144 
L 477.818182 332.2782 
L 481.876364 332.231328 
L 485.934545 332.19504 
L 489.992727 332.169336 
L 494.050909 332.154216 
L 498.109091 332.14968 
" clip-path="url(#p584123c72f)" style="fill: none; stroke: #000000; stroke-opacity: 0.5; stroke-linecap: square"/>
   </g>
   <g id="line2d_17">
    <path d="M 92.290909 272.86416 
L 96.349091 272.888352 
L 100.407273 272.960928 
L 104.465455 273.078864 
L 108.523636 273.243672 
L 112.581818 273.452328 
L 116.64 273.70332 
L 120.698182 273.995136 
L 124.756364 274.324752 
L 128.814545 274.690656 
L 132.872727 275.088312 
L 136.930909 275.51772 
L 140.989091 275.975856 
L 145.047273 276.458184 
L 149.105455 276.964704 
L 153.163636 277.492392 
L 157.221818 278.038224 
L 161.28 278.599176 
L 165.338182 279.17676 
L 169.396364 279.76644 
L 173.454545 280.366704 
L 177.512727 280.97604 
L 181.570909 281.592936 
L 185.629091 282.21588 
L 189.687273 282.844872 
L 193.745455 283.476888 
L 197.803636 284.111928 
L 201.861818 284.746968 
L 205.92 285.38352 
L 209.978182 286.020072 
L 214.036364 286.6536 
L 218.094545 287.285616 
L 222.152727 287.914608 
L 226.210909 288.540576 
L 230.269091 289.162008 
L 234.327273 289.777392 
L 238.385455 290.38824 
L 242.443636 290.991528 
L 246.501818 291.588768 
L 250.56 292.176936 
L 254.618182 292.759056 
L 258.676364 293.332104 
L 262.734545 293.89608 
L 266.792727 294.450984 
L 270.850909 294.995304 
L 274.909091 295.530552 
L 278.967273 296.053704 
L 283.025455 296.566272 
L 287.083636 297.068256 
L 291.141818 297.556632 
L 295.2 298.034424 
L 299.258182 298.498608 
L 303.316364 298.949184 
L 307.374545 299.387664 
L 311.432727 299.811024 
L 315.490909 300.220776 
L 319.549091 300.61692 
L 323.607273 300.996432 
L 327.665455 301.362336 
L 331.723636 301.711608 
L 335.781818 302.044248 
L 339.84 302.361768 
L 343.898182 302.662656 
L 347.956364 302.946912 
L 352.014545 303.214536 
L 356.072727 303.464016 
L 360.130909 303.696864 
L 364.189091 303.91308 
L 368.247273 304.10964 
L 372.305455 304.289568 
L 376.363636 304.452864 
L 380.421818 304.596504 
L 384.48 304.723512 
L 388.538182 304.833888 
L 392.596364 304.927632 
L 396.654545 305.003232 
L 400.712727 305.063712 
L 404.770909 305.109072 
L 408.829091 305.139312 
L 412.887273 305.155944 
L 416.945455 305.158968 
L 421.003636 305.151408 
L 425.061818 305.131752 
L 429.12 305.101512 
L 433.178182 305.063712 
L 437.236364 305.018352 
L 441.294545 304.966944 
L 445.352727 304.911 
L 449.410909 304.852032 
L 453.469091 304.791552 
L 457.527273 304.731072 
L 461.585455 304.672104 
L 465.643636 304.614648 
L 469.701818 304.560216 
L 473.76 304.51032 
L 477.818182 304.467984 
L 481.876364 304.430184 
L 485.934545 304.401456 
L 489.992727 304.380288 
L 494.050909 304.36668 
L 498.109091 304.362144 
" clip-path="url(#p584123c72f)" style="fill: none; stroke: #000000; stroke-opacity: 0.5; stroke-linecap: square"/>
   </g>
   <g id="line2d_18">
    <path d="M 92.290909 242.946216 
L 96.349091 242.935632 
L 100.407273 242.905392 
L 104.465455 242.855496 
L 108.523636 242.788968 
L 112.581818 242.705808 
L 116.64 242.610552 
L 120.698182 242.506224 
L 124.756364 242.39736 
L 128.814545 242.285472 
L 132.872727 242.176608 
L 136.930909 242.075304 
L 140.989091 241.986096 
L 145.047273 241.912008 
L 149.105455 241.857576 
L 153.163636 241.827336 
L 157.221818 241.8228 
L 161.28 241.846992 
L 165.338182 241.899912 
L 169.396364 241.984584 
L 173.454545 242.099496 
L 177.512727 242.244648 
L 181.570909 242.418528 
L 185.629091 242.619624 
L 189.687273 242.847936 
L 193.745455 243.098928 
L 197.803636 243.374112 
L 201.861818 243.670464 
L 205.92 243.986472 
L 209.978182 244.319112 
L 214.036364 244.668384 
L 218.094545 245.031264 
L 222.152727 245.407752 
L 226.210909 245.796336 
L 230.269091 246.195504 
L 234.327273 246.603744 
L 238.385455 247.019544 
L 242.443636 247.441392 
L 246.501818 247.8708 
L 250.56 248.303232 
L 254.618182 248.7402 
L 258.676364 249.17868 
L 262.734545 249.620184 
L 266.792727 250.0632 
L 270.850909 250.506216 
L 274.909091 250.94772 
L 278.967273 251.389224 
L 283.025455 251.829216 
L 287.083636 252.266184 
L 291.141818 252.698616 
L 295.2 253.129536 
L 299.258182 253.554408 
L 303.316364 253.976256 
L 307.374545 254.392056 
L 311.432727 254.801808 
L 315.490909 255.205512 
L 319.549091 255.601656 
L 323.607273 255.991752 
L 327.665455 256.374288 
L 331.723636 256.747752 
L 335.781818 257.113656 
L 339.84 257.470488 
L 343.898182 257.81976 
L 347.956364 258.158448 
L 352.014545 258.486552 
L 356.072727 258.805584 
L 360.130909 259.115544 
L 364.189091 259.413408 
L 368.247273 259.700688 
L 372.305455 259.975872 
L 376.363636 260.240472 
L 380.421818 260.492976 
L 384.48 260.733384 
L 388.538182 260.961696 
L 392.596364 261.177912 
L 396.654545 261.38052 
L 400.712727 261.571032 
L 404.770909 261.747936 
L 408.829091 261.911232 
L 412.887273 262.062432 
L 416.945455 262.200024 
L 421.003636 262.324008 
L 425.061818 262.435896 
L 429.12 262.534176 
L 433.178182 262.62036 
L 437.236364 262.692936 
L 441.294545 262.753416 
L 445.352727 262.803312 
L 449.410909 262.842624 
L 453.469091 262.871352 
L 457.527273 262.891008 
L 461.585455 262.901592 
L 465.643636 262.90764 
L 469.701818 262.90764 
L 473.76 262.903104 
L 477.818182 262.895544 
L 481.876364 262.887984 
L 485.934545 262.880424 
L 489.992727 262.874376 
L 494.050909 262.86984 
L 498.109091 262.868328 
" clip-path="url(#p584123c72f)" style="fill: none; stroke: #000000; stroke-opacity: 0.5; stroke-linecap: square"/>
   </g>
   <g id="line2d_19">
    <path d="M 92.290909 234.666504 
L 96.349091 234.666504 
L 100.407273 234.666504 
L 104.465455 234.664992 
L 108.523636 234.66348 
L 112.581818 234.660456 
L 116.64 234.654408 
L 120.698182 234.645336 
L 124.756364 234.630216 
L 128.814545 234.61056 
L 132.872727 234.581832 
L 136.930909 234.544032 
L 140.989091 234.494136 
L 145.047273 234.432144 
L 149.105455 234.35352 
L 153.163636 234.258264 
L 157.221818 234.144864 
L 161.28 234.014832 
L 165.338182 233.865144 
L 169.396364 233.698824 
L 173.454545 233.51436 
L 177.512727 233.316288 
L 181.570909 233.103096 
L 185.629091 232.877808 
L 189.687273 232.641936 
L 193.745455 232.398504 
L 197.803636 232.149024 
L 201.861818 231.893496 
L 205.92 231.633432 
L 209.978182 231.373368 
L 214.036364 231.11028 
L 218.094545 230.850216 
L 222.152727 230.591664 
L 226.210909 230.334624 
L 230.269091 230.083632 
L 234.327273 229.837176 
L 238.385455 229.59828 
L 242.443636 229.366944 
L 246.501818 229.14468 
L 250.56 228.934512 
L 254.618182 228.734928 
L 258.676364 228.54744 
L 262.734545 228.376584 
L 266.792727 228.220848 
L 270.850909 228.083256 
L 274.909091 227.963808 
L 278.967273 227.86704 
L 283.025455 227.79144 
L 287.083636 227.740032 
L 291.141818 227.71584 
L 295.2 227.717352 
L 299.258182 227.749104 
L 303.316364 227.811096 
L 307.374545 227.90484 
L 311.432727 228.031848 
L 315.490909 228.193632 
L 319.549091 228.390192 
L 323.607273 228.621528 
L 327.665455 228.890664 
L 331.723636 229.194576 
L 335.781818 229.534776 
L 339.84 229.911264 
L 343.898182 230.321016 
L 347.956364 230.765544 
L 352.014545 231.241824 
L 356.072727 231.749856 
L 360.130909 232.286616 
L 364.189091 232.84908 
L 368.247273 233.43876 
L 372.305455 234.049608 
L 376.363636 234.680112 
L 380.421818 235.330272 
L 384.48 235.99404 
L 388.538182 236.671416 
L 392.596364 237.357864 
L 396.654545 238.051872 
L 400.712727 238.751928 
L 404.770909 239.451984 
L 408.829091 240.153552 
L 412.887273 240.850584 
L 416.945455 241.54308 
L 421.003636 242.226504 
L 425.061818 242.899344 
L 429.12 243.558576 
L 433.178182 244.202688 
L 437.236364 244.827144 
L 441.294545 245.430432 
L 445.352727 246.009528 
L 449.410909 246.56292 
L 453.469091 247.086072 
L 457.527273 247.57596 
L 461.585455 248.032584 
L 465.643636 248.449896 
L 469.701818 248.826384 
L 473.76 249.160536 
L 477.818182 249.447816 
L 481.876364 249.686712 
L 485.934545 249.8742 
L 489.992727 250.01028 
L 494.050909 250.09344 
L 498.109091 250.120656 
" clip-path="url(#p584123c72f)" style="fill: none; stroke: #000000; stroke-opacity: 0.5; stroke-linecap: square"/>
   </g>
   <g id="line2d_20">
    <path d="M 92.290909 179.939664 
L 96.349091 179.941176 
L 100.407273 179.9442 
L 104.465455 179.947224 
L 108.523636 179.950248 
L 112.581818 179.948736 
L 116.64 179.938152 
L 120.698182 179.918496 
L 124.756364 179.882208 
L 128.814545 179.827776 
L 132.872727 179.749152 
L 136.930909 179.646336 
L 140.989091 179.51328 
L 145.047273 179.34696 
L 149.105455 179.145864 
L 153.163636 178.906968 
L 157.221818 178.630272 
L 161.28 178.31124 
L 165.338182 177.949872 
L 169.396364 177.544656 
L 173.454545 177.097104 
L 177.512727 176.604192 
L 181.570909 176.067432 
L 185.629091 175.486824 
L 189.687273 174.862368 
L 193.745455 174.195576 
L 197.803636 173.486448 
L 201.861818 172.736496 
L 205.92 171.94572 
L 209.978182 171.118656 
L 214.036364 170.253792 
L 218.094545 169.354152 
L 222.152727 168.42276 
L 226.210909 167.46264 
L 230.269091 166.476816 
L 234.327273 165.472848 
L 238.385455 164.456784 
L 242.443636 163.445256 
L 246.501818 162.463968 
L 250.56 161.564328 
L 254.618182 160.856712 
L 258.676364 160.525584 
L 262.734545 160.704 
L 266.792727 161.284608 
L 270.850909 162.078408 
L 274.909091 162.961416 
L 278.967273 163.874664 
L 283.025455 164.784888 
L 287.083636 165.67848 
L 291.141818 166.543344 
L 295.2 167.37192 
L 299.258182 168.161184 
L 303.316364 168.905088 
L 307.374545 169.60212 
L 311.432727 170.247744 
L 315.490909 170.840448 
L 319.549091 171.37872 
L 323.607273 171.861048 
L 327.665455 172.284408 
L 331.723636 172.650312 
L 335.781818 172.957248 
L 339.84 173.203704 
L 343.898182 173.391192 
L 347.956364 173.519712 
L 352.014545 173.589264 
L 356.072727 173.60136 
L 360.130909 173.557512 
L 364.189091 173.45772 
L 368.247273 173.305008 
L 372.305455 173.100888 
L 376.363636 172.843848 
L 380.421818 172.539936 
L 384.48 172.189152 
L 388.538182 171.793008 
L 392.596364 171.353016 
L 396.654545 170.870688 
L 400.712727 170.35056 
L 404.770909 169.789608 
L 408.829091 169.19388 
L 412.887273 168.563376 
L 416.945455 167.899608 
L 421.003636 167.202576 
L 425.061818 166.476816 
L 429.12 165.722328 
L 433.178182 164.939112 
L 437.236364 164.130192 
L 441.294545 163.29708 
L 445.352727 162.441288 
L 449.410909 161.564328 
L 453.469091 160.667712 
L 457.527273 159.75144 
L 461.585455 158.82156 
L 465.643636 157.879584 
L 469.701818 156.928536 
L 473.76 155.974464 
L 477.818182 155.02644 
L 481.876364 154.101096 
L 485.934545 153.221112 
L 489.992727 152.44092 
L 494.050909 151.860312 
L 498.109091 151.636536 
" clip-path="url(#p584123c72f)" style="fill: none; stroke: #000000; stroke-opacity: 0.5; stroke-linecap: square"/>
   </g>
   <g id="line2d_21">
    <path d="M 92.290909 159.19956 
L 96.349091 159.155712 
L 100.407273 159.028704 
L 104.465455 158.815512 
L 108.523636 158.520672 
L 112.581818 158.14872 
L 116.64 157.698144 
L 120.698182 157.176504 
L 124.756364 156.586824 
L 128.814545 155.932128 
L 132.872727 155.218464 
L 136.930909 154.445832 
L 140.989091 153.62028 
L 145.047273 152.744832 
L 149.105455 151.822512 
L 153.163636 150.856344 
L 157.221818 149.84784 
L 161.28 148.803048 
L 165.338182 147.720456 
L 169.396364 146.6046 
L 173.454545 145.45548 
L 177.512727 144.279144 
L 181.570909 143.075592 
L 185.629091 141.84936 
L 189.687273 140.611032 
L 193.745455 139.393872 
L 197.803636 138.569832 
L 201.861818 139.402944 
L 205.92 140.676048 
L 209.978182 141.994512 
L 214.036364 143.32356 
L 218.094545 144.649584 
L 222.152727 145.966536 
L 226.210909 147.26988 
L 230.269091 148.553568 
L 234.327273 149.811552 
L 238.385455 151.031736 
L 242.443636 152.200512 
L 246.501818 153.290664 
L 250.56 154.24776 
L 254.618182 154.962936 
L 258.676364 155.251728 
L 262.734545 154.976544 
L 266.792727 154.244736 
L 270.850909 153.245304 
L 274.909091 152.10072 
L 278.967273 150.869952 
L 283.025455 149.580216 
L 287.083636 148.251168 
L 291.141818 146.888856 
L 295.2 145.499328 
L 299.258182 144.088632 
L 303.316364 142.659792 
L 307.374545 141.215832 
L 311.432727 139.761288 
L 315.490909 138.30372 
L 319.549091 136.8522 
L 323.607273 135.436968 
L 327.665455 134.136648 
L 331.723636 133.19316 
L 335.781818 132.863544 
L 339.84 132.90588 
L 343.898182 133.076736 
L 347.956364 133.294464 
L 352.014545 133.53336 
L 356.072727 133.779816 
L 360.130909 134.030808 
L 364.189091 134.283312 
L 368.247273 134.534304 
L 372.305455 134.783784 
L 376.363636 135.031752 
L 380.421818 135.275184 
L 384.48 135.515592 
L 388.538182 135.752976 
L 392.596364 135.985824 
L 396.654545 136.215648 
L 400.712727 136.440936 
L 404.770909 136.6632 
L 408.829091 136.88244 
L 412.887273 137.100168 
L 416.945455 137.314872 
L 421.003636 137.529576 
L 425.061818 137.74428 
L 429.12 137.96352 
L 433.178182 138.188808 
L 437.236364 138.423168 
L 441.294545 138.67416 
L 445.352727 138.949344 
L 449.410909 139.259304 
L 453.469091 139.617648 
L 457.527273 140.041008 
L 461.585455 140.546016 
L 465.643636 141.144768 
L 469.701818 141.838776 
L 473.76 142.614432 
L 477.818182 143.450568 
L 481.876364 144.312408 
L 485.934545 145.156104 
L 489.992727 145.921176 
L 494.050909 146.494224 
L 498.109091 146.718 
" clip-path="url(#p584123c72f)" style="fill: none; stroke: #000000; stroke-opacity: 0.5; stroke-linecap: square"/>
   </g>
   <g id="line2d_22">
    <path d="M 92.290909 123.40296 
L 96.349091 123.409008 
L 100.407273 123.427152 
L 104.465455 123.458904 
L 108.523636 123.505776 
L 112.581818 123.566256 
L 116.64 123.643368 
L 120.698182 123.740136 
L 124.756364 123.859584 
L 128.814545 124.006248 
L 132.872727 124.186176 
L 136.930909 124.405416 
L 140.989091 124.677576 
L 145.047273 125.014752 
L 149.105455 125.435088 
L 153.163636 125.955216 
L 157.221818 126.591768 
L 161.28 127.352304 
L 165.338182 128.235312 
L 169.396364 129.227184 
L 173.454545 130.311288 
L 177.512727 131.467968 
L 181.570909 132.677568 
L 185.629091 133.924968 
L 189.687273 135.192024 
L 193.745455 136.4364 
L 197.803636 137.280096 
L 201.861818 136.45908 
L 205.92 135.184464 
L 209.978182 133.852392 
L 214.036364 132.499152 
L 218.094545 131.147424 
L 222.152727 129.816864 
L 226.210909 128.557368 
L 230.269091 127.474776 
L 234.327273 126.74448 
L 238.385455 126.428472 
L 242.443636 126.383112 
L 246.501818 126.470808 
L 250.56 126.62352 
L 254.618182 126.81252 
L 258.676364 127.022688 
L 262.734545 127.249488 
L 266.792727 127.488384 
L 270.850909 127.73484 
L 274.909091 127.987344 
L 278.967273 128.245896 
L 283.025455 128.508984 
L 287.083636 128.776608 
L 291.141818 129.045744 
L 295.2 129.316392 
L 299.258182 129.58704 
L 303.316364 129.856176 
L 307.374545 130.1238 
L 311.432727 130.385376 
L 315.490909 130.634856 
L 319.549091 130.863168 
L 323.607273 131.043096 
L 327.665455 131.092992 
L 331.723636 130.775472 
L 335.781818 129.831984 
L 339.84 128.504448 
L 343.898182 127.037808 
L 347.956364 125.513712 
L 352.014545 123.959376 
L 356.072727 122.388408 
L 360.130909 120.805344 
L 364.189091 119.213208 
L 368.247273 117.618048 
L 372.305455 116.022888 
L 376.363636 114.435288 
L 380.421818 112.876416 
L 384.48 111.45816 
L 388.538182 111.11796 
L 392.596364 112.286736 
L 396.654545 113.69592 
L 400.712727 115.136856 
L 404.770909 116.579304 
L 408.829091 118.014192 
L 412.887273 119.436984 
L 416.945455 120.844656 
L 421.003636 122.232672 
L 425.061818 123.601032 
L 429.12 124.9452 
L 433.178182 126.26064 
L 437.236364 127.542816 
L 441.294545 128.787192 
L 445.352727 129.981672 
L 449.410909 131.115672 
L 453.469091 132.174072 
L 457.527273 133.14024 
L 461.585455 133.991496 
L 465.643636 134.717256 
L 469.701818 135.30996 
L 473.76 135.77868 
L 477.818182 136.135512 
L 481.876364 136.401624 
L 485.934545 136.592136 
L 489.992727 136.719144 
L 494.050909 136.793232 
L 498.109091 136.817424 
" clip-path="url(#p584123c72f)" style="fill: none; stroke: #000000; stroke-opacity: 0.5; stroke-linecap: square"/>
   </g>
   <g id="line2d_23">
    <path d="M 92.290909 107.985096 
L 96.349091 108.057672 
L 100.407273 108.272376 
L 104.465455 108.62316 
L 108.523636 109.102464 
L 112.581818 109.69668 
L 116.64 110.3922 
L 120.698182 111.175416 
L 124.756364 112.031208 
L 128.814545 112.942944 
L 132.872727 113.893992 
L 136.930909 114.86772 
L 140.989091 115.845984 
L 145.047273 116.806104 
L 149.105455 117.7254 
L 153.163636 118.57968 
L 157.221818 119.3508 
L 161.28 120.02364 
L 165.338182 120.5982 
L 169.396364 121.083552 
L 173.454545 121.491792 
L 177.512727 121.842576 
L 181.570909 122.148 
L 185.629091 122.418648 
L 189.687273 122.665104 
L 193.745455 122.893416 
L 197.803636 123.10812 
L 201.861818 123.310728 
L 205.92 123.502752 
L 209.978182 123.68268 
L 214.036364 123.849 
L 218.094545 123.989616 
L 222.152727 124.087896 
L 226.210909 124.096968 
L 230.269091 123.910992 
L 234.327273 123.360624 
L 238.385455 122.379336 
L 242.443636 121.115304 
L 246.501818 119.707632 
L 250.56 118.219824 
L 254.618182 116.686656 
L 258.676364 115.118712 
L 262.734545 113.523552 
L 266.792727 111.907224 
L 270.850909 110.272752 
L 274.909091 108.620136 
L 278.967273 106.950888 
L 283.025455 105.269544 
L 287.083636 103.57308 
L 291.141818 101.86452 
L 295.2 100.145376 
L 299.258182 98.415648 
L 303.316364 96.67836 
L 307.374545 94.936536 
L 311.432727 93.194712 
L 315.490909 91.464984 
L 319.549091 89.785152 
L 323.607273 88.320024 
L 327.665455 87.951096 
L 331.723636 89.033688 
L 335.781818 90.477648 
L 339.84 92.000232 
L 343.898182 93.54852 
L 347.956364 95.108904 
L 352.014545 96.6708 
L 356.072727 98.232696 
L 360.130909 99.790056 
L 364.189091 101.341368 
L 368.247273 102.88512 
L 372.305455 104.415264 
L 376.363636 105.925752 
L 380.421818 107.396928 
L 384.48 108.716904 
L 388.538182 108.946728 
L 392.596364 107.658504 
L 396.654545 106.122312 
L 400.712727 104.545296 
L 404.770909 102.96072 
L 408.829091 101.383704 
L 412.887273 99.824832 
L 416.945455 98.2962 
L 421.003636 96.82956 
L 425.061818 95.49144 
L 429.12 94.43304 
L 433.178182 93.829752 
L 437.236364 93.618072 
L 441.294545 93.595392 
L 445.352727 93.649824 
L 449.410909 93.734496 
L 453.469091 93.829752 
L 457.527273 93.92652 
L 461.585455 94.020264 
L 465.643636 94.106448 
L 469.701818 94.186584 
L 473.76 94.256136 
L 477.818182 94.315104 
L 481.876364 94.365 
L 485.934545 94.404312 
L 489.992727 94.431528 
L 494.050909 94.44816 
L 498.109091 94.454208 
" clip-path="url(#p584123c72f)" style="fill: none; stroke: #000000; stroke-opacity: 0.5; stroke-linecap: square"/>
   </g>
   <g id="patch_3">
    <path d="M 72 384.48 
L 72 51.84 
" style="fill: none; stroke: #000000; stroke-width: 0.8; stroke-linejoin: miter; stroke-linecap: square"/>
   </g>
   <g id="patch_4">
    <path d="M 518.4 384.48 
L 518.4 51.84 
" style="fill: none; stroke: #000000; stroke-width: 0.8; stroke-linejoin: miter; stroke-linecap: square"/>
   </g>
   <g id="patch_5">
    <path d="M 72 384.48 
L 518.4 384.48 
" style="fill: none; stroke: #000000; stroke-width: 0.8; stroke-linejoin: miter; stroke-linecap: square"/>
   </g>
   <g id="patch_6">
    <path d="M 72 51.84 
L 518.4 51.84 
" style="fill: none; stroke: #000000; stroke-width: 0.8; stroke-linejoin: miter; stroke-linecap: square"/>
   </g>
  </g>
 </g>
 <defs>
  <clipPath id="p584123c72f">
   <rect x="72" y="51.84" width="446.4" height="332.64"/>
  </clipPath>
 </defs>
</svg>
