<?xml version="1.0" encoding="utf-8" standalone="no"?>
<!DOCTYPE svg PUBLIC "-//W3C//DTD SVG 1.1//EN"
  "http://www.w3.org/Graphics/SVG/1.1/DTD/svg11.dtd">
<svg xmlns:xlink="http://www.w3.org/1999/xlink" width="576pt" height="432pt" viewBox="0 0 576 432" xmlns="http://www.w3.org/2000/svg" version="1.1">
 <metadata>
  <rdf:RDF xmlns:dc="http://purl.org/dc/elements/1.1/" xmlns:cc="http://creativecommons.org/ns#" xmlns:rdf="http://www.w3.org/1999/02/22-rdf-syntax-ns#">
   <cc:Work>
    <dc:type rdf:resource="http://purl.org/dc/dcmitype/StillImage"/>
    <dc:date>2023-05-03T22:12:31.073123</dc:date>
    <dc:format>image/svg+xml</dc:format>
    <dc:creator>
     <cc:Agent>
      <dc:title>Matplotlib v3.7.1, https://matplotlib.org/</dc:title>
     </cc:Agent>
    </dc:creator>
   </cc:Work>
  </rdf:RDF>
 </metadata>
 <defs>
  <style type="text/css">*{stroke-linejoin: round; stroke-linecap: butt}</style>
 </defs>
 <g id="figure_1">
  <g id="patch_1">
   <path d="M 0 432 
L 576 432 
L 576 0 
L 0 0 
z
" style="fill: #ffffff"/>
  </g>
  <g id="axes_1">
   <g id="patch_2">
    <path d="M 72 384.48 
L 518.4 384.48 
L 518.4 51.84 
L 72 51.84 
z
" style="fill: #ffffff"/>
   </g>
   <g id="matplotlib.axis_1">
    <g id="xtick_1">
     <g id="line2d_1">
      <defs>
       <path id="me2613f6c4e" d="M 0 0 
L 0 3.5 
" style="stroke: #000000; stroke-width: 0.8"/>
      </defs>
      <g>
       <use xlink:href="#me2613f6c4e" x="92.290909" y="384.48" style="stroke: #000000; stroke-width: 0.8"/>
      </g>
     </g>
     <g id="text_1">
      <!-- 0.0 -->
      <g transform="translate(84.339347 399.078438) scale(0.1 -0.1)">
       <defs>
        <path id="DejaVuSans-30" d="M 2034 4250 
Q 1547 4250 1301 3770 
Q 1056 3291 1056 2328 
Q 1056 1369 1301 889 
Q 1547 409 2034 409 
Q 2525 409 2770 889 
Q 3016 1369 3016 2328 
Q 3016 3291 2770 3770 
Q 2525 4250 2034 4250 
z
M 2034 4750 
Q 2819 4750 3233 4129 
Q 3647 3509 3647 2328 
Q 3647 1150 3233 529 
Q 2819 -91 2034 -91 
Q 1250 -91 836 529 
Q 422 1150 422 2328 
Q 422 3509 836 4129 
Q 1250 4750 2034 4750 
z
" transform="scale(0.015625)"/>
        <path id="DejaVuSans-2e" d="M 684 794 
L 1344 794 
L 1344 0 
L 684 0 
L 684 794 
z
" transform="scale(0.015625)"/>
       </defs>
       <use xlink:href="#DejaVuSans-30"/>
       <use xlink:href="#DejaVuSans-2e" x="63.623047"/>
       <use xlink:href="#DejaVuSans-30" x="95.410156"/>
      </g>
     </g>
    </g>
    <g id="xtick_2">
     <g id="line2d_2">
      <g>
       <use xlink:href="#me2613f6c4e" x="173.454545" y="384.48" style="stroke: #000000; stroke-width: 0.8"/>
      </g>
     </g>
     <g id="text_2">
      <!-- 0.2 -->
      <g transform="translate(165.502983 399.078438) scale(0.1 -0.1)">
       <defs>
        <path id="DejaVuSans-32" d="M 1228 531 
L 3431 531 
L 3431 0 
L 469 0 
L 469 531 
Q 828 903 1448 1529 
Q 2069 2156 2228 2338 
Q 2531 2678 2651 2914 
Q 2772 3150 2772 3378 
Q 2772 3750 2511 3984 
Q 2250 4219 1831 4219 
Q 1534 4219 1204 4116 
Q 875 4013 500 3803 
L 500 4441 
Q 881 4594 1212 4672 
Q 1544 4750 1819 4750 
Q 2544 4750 2975 4387 
Q 3406 4025 3406 3419 
Q 3406 3131 3298 2873 
Q 3191 2616 2906 2266 
Q 2828 2175 2409 1742 
Q 1991 1309 1228 531 
z
" transform="scale(0.015625)"/>
       </defs>
       <use xlink:href="#DejaVuSans-30"/>
       <use xlink:href="#DejaVuSans-2e" x="63.623047"/>
       <use xlink:href="#DejaVuSans-32" x="95.410156"/>
      </g>
     </g>
    </g>
    <g id="xtick_3">
     <g id="line2d_3">
      <g>
       <use xlink:href="#me2613f6c4e" x="254.618182" y="384.48" style="stroke: #000000; stroke-width: 0.8"/>
      </g>
     </g>
     <g id="text_3">
      <!-- 0.4 -->
      <g transform="translate(246.666619 399.078438) scale(0.1 -0.1)">
       <defs>
        <path id="DejaVuSans-34" d="M 2419 4116 
L 825 1625 
L 2419 1625 
L 2419 4116 
z
M 2253 4666 
L 3047 4666 
L 3047 1625 
L 3713 1625 
L 3713 1100 
L 3047 1100 
L 3047 0 
L 2419 0 
L 2419 1100 
L 313 1100 
L 313 1709 
L 2253 4666 
z
" transform="scale(0.015625)"/>
       </defs>
       <use xlink:href="#DejaVuSans-30"/>
       <use xlink:href="#DejaVuSans-2e" x="63.623047"/>
       <use xlink:href="#DejaVuSans-34" x="95.410156"/>
      </g>
     </g>
    </g>
    <g id="xtick_4">
     <g id="line2d_4">
      <g>
       <use xlink:href="#me2613f6c4e" x="335.781818" y="384.48" style="stroke: #000000; stroke-width: 0.8"/>
      </g>
     </g>
     <g id="text_4">
      <!-- 0.6 -->
      <g transform="translate(327.830256 399.078438) scale(0.1 -0.1)">
       <defs>
        <path id="DejaVuSans-36" d="M 2113 2584 
Q 1688 2584 1439 2293 
Q 1191 2003 1191 1497 
Q 1191 994 1439 701 
Q 1688 409 2113 409 
Q 2538 409 2786 701 
Q 3034 994 3034 1497 
Q 3034 2003 2786 2293 
Q 2538 2584 2113 2584 
z
M 3366 4563 
L 3366 3988 
Q 3128 4100 2886 4159 
Q 2644 4219 2406 4219 
Q 1781 4219 1451 3797 
Q 1122 3375 1075 2522 
Q 1259 2794 1537 2939 
Q 1816 3084 2150 3084 
Q 2853 3084 3261 2657 
Q 3669 2231 3669 1497 
Q 3669 778 3244 343 
Q 2819 -91 2113 -91 
Q 1303 -91 875 529 
Q 447 1150 447 2328 
Q 447 3434 972 4092 
Q 1497 4750 2381 4750 
Q 2619 4750 2861 4703 
Q 3103 4656 3366 4563 
z
" transform="scale(0.015625)"/>
       </defs>
       <use xlink:href="#DejaVuSans-30"/>
       <use xlink:href="#DejaVuSans-2e" x="63.623047"/>
       <use xlink:href="#DejaVuSans-36" x="95.410156"/>
      </g>
     </g>
    </g>
    <g id="xtick_5">
     <g id="line2d_5">
      <g>
       <use xlink:href="#me2613f6c4e" x="416.945455" y="384.48" style="stroke: #000000; stroke-width: 0.8"/>
      </g>
     </g>
     <g id="text_5">
      <!-- 0.8 -->
      <g transform="translate(408.993892 399.078438) scale(0.1 -0.1)">
       <defs>
        <path id="DejaVuSans-38" d="M 2034 2216 
Q 1584 2216 1326 1975 
Q 1069 1734 1069 1313 
Q 1069 891 1326 650 
Q 1584 409 2034 409 
Q 2484 409 2743 651 
Q 3003 894 3003 1313 
Q 3003 1734 2745 1975 
Q 2488 2216 2034 2216 
z
M 1403 2484 
Q 997 2584 770 2862 
Q 544 3141 544 3541 
Q 544 4100 942 4425 
Q 1341 4750 2034 4750 
Q 2731 4750 3128 4425 
Q 3525 4100 3525 3541 
Q 3525 3141 3298 2862 
Q 3072 2584 2669 2484 
Q 3125 2378 3379 2068 
Q 3634 1759 3634 1313 
Q 3634 634 3220 271 
Q 2806 -91 2034 -91 
Q 1263 -91 848 271 
Q 434 634 434 1313 
Q 434 1759 690 2068 
Q 947 2378 1403 2484 
z
M 1172 3481 
Q 1172 3119 1398 2916 
Q 1625 2713 2034 2713 
Q 2441 2713 2670 2916 
Q 2900 3119 2900 3481 
Q 2900 3844 2670 4047 
Q 2441 4250 2034 4250 
Q 1625 4250 1398 4047 
Q 1172 3844 1172 3481 
z
" transform="scale(0.015625)"/>
       </defs>
       <use xlink:href="#DejaVuSans-30"/>
       <use xlink:href="#DejaVuSans-2e" x="63.623047"/>
       <use xlink:href="#DejaVuSans-38" x="95.410156"/>
      </g>
     </g>
    </g>
    <g id="xtick_6">
     <g id="line2d_6">
      <g>
       <use xlink:href="#me2613f6c4e" x="498.109091" y="384.48" style="stroke: #000000; stroke-width: 0.8"/>
      </g>
     </g>
     <g id="text_6">
      <!-- 1.0 -->
      <g transform="translate(490.157528 399.078438) scale(0.1 -0.1)">
       <defs>
        <path id="DejaVuSans-31" d="M 794 531 
L 1825 531 
L 1825 4091 
L 703 3866 
L 703 4441 
L 1819 4666 
L 2450 4666 
L 2450 531 
L 3481 531 
L 3481 0 
L 794 0 
L 794 531 
z
" transform="scale(0.015625)"/>
       </defs>
       <use xlink:href="#DejaVuSans-31"/>
       <use xlink:href="#DejaVuSans-2e" x="63.623047"/>
       <use xlink:href="#DejaVuSans-30" x="95.410156"/>
      </g>
     </g>
    </g>
   </g>
   <g id="matplotlib.axis_2">
    <g id="ytick_1">
     <g id="line2d_7">
      <defs>
       <path id="m3eb7b36a6c" d="M 0 0 
L -3.5 0 
" style="stroke: #000000; stroke-width: 0.8"/>
      </defs>
      <g>
       <use xlink:href="#m3eb7b36a6c" x="72" y="369.36" style="stroke: #000000; stroke-width: 0.8"/>
      </g>
     </g>
     <g id="text_7">
      <!-- −5.0 -->
      <g transform="translate(40.717187 373.159219) scale(0.1 -0.1)">
       <defs>
        <path id="DejaVuSans-2212" d="M 678 2272 
L 4684 2272 
L 4684 1741 
L 678 1741 
L 678 2272 
z
" transform="scale(0.015625)"/>
        <path id="DejaVuSans-35" d="M 691 4666 
L 3169 4666 
L 3169 4134 
L 1269 4134 
L 1269 2991 
Q 1406 3038 1543 3061 
Q 1681 3084 1819 3084 
Q 2600 3084 3056 2656 
Q 3513 2228 3513 1497 
Q 3513 744 3044 326 
Q 2575 -91 1722 -91 
Q 1428 -91 1123 -41 
Q 819 9 494 109 
L 494 744 
Q 775 591 1075 516 
Q 1375 441 1709 441 
Q 2250 441 2565 725 
Q 2881 1009 2881 1497 
Q 2881 1984 2565 2268 
Q 2250 2553 1709 2553 
Q 1456 2553 1204 2497 
Q 953 2441 691 2322 
L 691 4666 
z
" transform="scale(0.015625)"/>
       </defs>
       <use xlink:href="#DejaVuSans-2212"/>
       <use xlink:href="#DejaVuSans-35" x="83.789062"/>
       <use xlink:href="#DejaVuSans-2e" x="147.412109"/>
       <use xlink:href="#DejaVuSans-30" x="179.199219"/>
      </g>
     </g>
    </g>
    <g id="ytick_2">
     <g id="line2d_8">
      <g>
       <use xlink:href="#m3eb7b36a6c" x="72" y="331.56" style="stroke: #000000; stroke-width: 0.8"/>
      </g>
     </g>
     <g id="text_8">
      <!-- −2.5 -->
      <g transform="translate(40.717187 335.359219) scale(0.1 -0.1)">
       <use xlink:href="#DejaVuSans-2212"/>
       <use xlink:href="#DejaVuSans-32" x="83.789062"/>
       <use xlink:href="#DejaVuSans-2e" x="147.412109"/>
       <use xlink:href="#DejaVuSans-35" x="179.199219"/>
      </g>
     </g>
    </g>
    <g id="ytick_3">
     <g id="line2d_9">
      <g>
       <use xlink:href="#m3eb7b36a6c" x="72" y="293.76" style="stroke: #000000; stroke-width: 0.8"/>
      </g>
     </g>
     <g id="text_9">
      <!-- 0.0 -->
      <g transform="translate(49.096875 297.559219) scale(0.1 -0.1)">
       <use xlink:href="#DejaVuSans-30"/>
       <use xlink:href="#DejaVuSans-2e" x="63.623047"/>
       <use xlink:href="#DejaVuSans-30" x="95.410156"/>
      </g>
     </g>
    </g>
    <g id="ytick_4">
     <g id="line2d_10">
      <g>
       <use xlink:href="#m3eb7b36a6c" x="72" y="255.96" style="stroke: #000000; stroke-width: 0.8"/>
      </g>
     </g>
     <g id="text_10">
      <!-- 2.5 -->
      <g transform="translate(49.096875 259.759219) scale(0.1 -0.1)">
       <use xlink:href="#DejaVuSans-32"/>
       <use xlink:href="#DejaVuSans-2e" x="63.623047"/>
       <use xlink:href="#DejaVuSans-35" x="95.410156"/>
      </g>
     </g>
    </g>
    <g id="ytick_5">
     <g id="line2d_11">
      <g>
       <use xlink:href="#m3eb7b36a6c" x="72" y="218.16" style="stroke: #000000; stroke-width: 0.8"/>
      </g>
     </g>
     <g id="text_11">
      <!-- 5.0 -->
      <g transform="translate(49.096875 221.959219) scale(0.1 -0.1)">
       <use xlink:href="#DejaVuSans-35"/>
       <use xlink:href="#DejaVuSans-2e" x="63.623047"/>
       <use xlink:href="#DejaVuSans-30" x="95.410156"/>
      </g>
     </g>
    </g>
    <g id="ytick_6">
     <g id="line2d_12">
      <g>
       <use xlink:href="#m3eb7b36a6c" x="72" y="180.36" style="stroke: #000000; stroke-width: 0.8"/>
      </g>
     </g>
     <g id="text_12">
      <!-- 7.5 -->
      <g transform="translate(49.096875 184.159219) scale(0.1 -0.1)">
       <defs>
        <path id="DejaVuSans-37" d="M 525 4666 
L 3525 4666 
L 3525 4397 
L 1831 0 
L 1172 0 
L 2766 4134 
L 525 4134 
L 525 4666 
z
" transform="scale(0.015625)"/>
       </defs>
       <use xlink:href="#DejaVuSans-37"/>
       <use xlink:href="#DejaVuSans-2e" x="63.623047"/>
       <use xlink:href="#DejaVuSans-35" x="95.410156"/>
      </g>
     </g>
    </g>
    <g id="ytick_7">
     <g id="line2d_13">
      <g>
       <use xlink:href="#m3eb7b36a6c" x="72" y="142.56" style="stroke: #000000; stroke-width: 0.8"/>
      </g>
     </g>
     <g id="text_13">
      <!-- 10.0 -->
      <g transform="translate(42.734375 146.359219) scale(0.1 -0.1)">
       <use xlink:href="#DejaVuSans-31"/>
       <use xlink:href="#DejaVuSans-30" x="63.623047"/>
       <use xlink:href="#DejaVuSans-2e" x="127.246094"/>
       <use xlink:href="#DejaVuSans-30" x="159.033203"/>
      </g>
     </g>
    </g>
    <g id="ytick_8">
     <g id="line2d_14">
      <g>
       <use xlink:href="#m3eb7b36a6c" x="72" y="104.76" style="stroke: #000000; stroke-width: 0.8"/>
      </g>
     </g>
     <g id="text_14">
      <!-- 12.5 -->
      <g transform="translate(42.734375 108.559219) scale(0.1 -0.1)">
       <use xlink:href="#DejaVuSans-31"/>
       <use xlink:href="#DejaVuSans-32" x="63.623047"/>
       <use xlink:href="#DejaVuSans-2e" x="127.246094"/>
       <use xlink:href="#DejaVuSans-35" x="159.033203"/>
      </g>
     </g>
    </g>
    <g id="ytick_9">
     <g id="line2d_15">
      <g>
       <use xlink:href="#m3eb7b36a6c" x="72" y="66.96" style="stroke: #000000; stroke-width: 0.8"/>
      </g>
     </g>
     <g id="text_15">
      <!-- 15.0 -->
      <g transform="translate(42.734375 70.759219) scale(0.1 -0.1)">
       <use xlink:href="#DejaVuSans-31"/>
       <use xlink:href="#DejaVuSans-35" x="63.623047"/>
       <use xlink:href="#DejaVuSans-2e" x="127.246094"/>
       <use xlink:href="#DejaVuSans-30" x="159.033203"/>
      </g>
     </g>
    </g>
   </g>
   <g id="line2d_16">
    <path d="M 92.290909 351.38988 
L 96.349091 351.385344 
L 100.407273 351.371736 
L 104.465455 351.347544 
L 108.523636 351.315792 
L 112.581818 351.273456 
L 116.64 351.22356 
L 120.698182 351.16308 
L 124.756364 351.093528 
L 128.814545 351.014904 
L 132.872727 350.927208 
L 136.930909 350.831952 
L 140.989091 350.726112 
L 145.047273 350.612712 
L 149.105455 350.488728 
L 153.163636 350.358696 
L 157.221818 350.21808 
L 161.28 350.069904 
L 165.338182 349.914168 
L 169.396364 349.74936 
L 173.454545 349.576992 
L 177.512727 349.395552 
L 181.570909 349.208064 
L 185.629091 349.013016 
L 189.687273 348.810408 
L 193.745455 348.60024 
L 197.803636 348.382512 
L 201.861818 348.160248 
L 205.92 347.930424 
L 209.978182 347.694552 
L 214.036364 347.452632 
L 218.094545 347.206176 
L 222.152727 346.953672 
L 226.210909 346.69512 
L 230.269091 346.433544 
L 234.327273 346.167432 
L 238.385455 345.896784 
L 242.443636 345.624624 
L 246.501818 345.347928 
L 250.56 345.068208 
L 254.618182 344.786976 
L 258.676364 344.504232 
L 262.734545 344.219976 
L 266.792727 343.934208 
L 270.850909 343.649952 
L 274.909091 343.365696 
L 278.967273 343.08144 
L 283.025455 342.800208 
L 287.083636 342.520488 
L 291.141818 342.24228 
L 295.2 341.968608 
L 299.258182 341.699472 
L 303.316364 341.43336 
L 307.374545 341.173296 
L 311.432727 340.91928 
L 315.490909 340.671312 
L 319.549091 340.430904 
L 323.607273 340.198056 
L 327.665455 339.972768 
L 331.723636 339.75504 
L 335.781818 339.547896 
L 339.84 339.348312 
L 343.898182 339.159312 
L 347.956364 338.980896 
L 352.014545 338.811552 
L 356.072727 338.652792 
L 360.130909 338.504616 
L 364.189091 338.365512 
L 368.247273 338.238504 
L 372.305455 338.120568 
L 376.363636 338.013216 
L 380.421818 337.914936 
L 384.48 337.825728 
L 388.538182 337.747104 
L 392.596364 337.67604 
L 396.654545 337.612536 
L 400.712727 337.558104 
L 404.770909 337.50972 
L 408.829091 337.468896 
L 412.887273 337.435632 
L 416.945455 337.406904 
L 421.003636 337.382712 
L 425.061818 337.364568 
L 429.12 337.349448 
L 433.178182 337.338864 
L 437.236364 337.329792 
L 441.294545 337.325256 
L 445.352727 337.322232 
L 449.410909 337.322232 
L 453.469091 337.322232 
L 457.527273 337.325256 
L 461.585455 337.32828 
L 465.643636 337.331304 
L 469.701818 337.334328 
L 473.76 337.337352 
L 477.818182 337.341888 
L 481.876364 337.344912 
L 485.934545 337.346424 
L 489.992727 337.349448 
L 494.050909 337.349448 
L 498.109091 337.35096 
" clip-path="url(#p51c3c6bd9c)" style="fill: none; stroke: #000000; stroke-opacity: 0.5; stroke-linecap: square"/>
   </g>
   <g id="line2d_17">
    <path d="M 92.290909 282.184128 
L 96.349091 282.203784 
L 100.407273 282.259728 
L 104.465455 282.353472 
L 108.523636 282.483504 
L 112.581818 282.649824 
L 116.64 282.849408 
L 120.698182 283.082256 
L 124.756364 283.348368 
L 128.814545 283.643208 
L 132.872727 283.968288 
L 136.930909 284.31756 
L 140.989091 284.694048 
L 145.047273 285.093216 
L 149.105455 285.51204 
L 153.163636 285.952032 
L 157.221818 286.408656 
L 161.28 286.8804 
L 165.338182 287.365752 
L 169.396364 287.864712 
L 173.454545 288.374256 
L 177.512727 288.89136 
L 181.570909 289.417536 
L 185.629091 289.948248 
L 189.687273 290.485008 
L 193.745455 291.02328 
L 197.803636 291.566088 
L 201.861818 292.107384 
L 205.92 292.64868 
L 209.978182 293.189976 
L 214.036364 293.726736 
L 218.094545 294.260472 
L 222.152727 294.791184 
L 226.210909 295.314336 
L 230.269091 295.832952 
L 234.327273 296.342496 
L 238.385455 296.84448 
L 242.443636 297.337392 
L 246.501818 297.821232 
L 250.56 298.292976 
L 254.618182 298.754136 
L 258.676364 299.2032 
L 262.734545 299.638656 
L 266.792727 300.060504 
L 270.850909 300.468744 
L 274.909091 300.861864 
L 278.967273 301.239864 
L 283.025455 301.59972 
L 287.083636 301.942944 
L 291.141818 302.269536 
L 295.2 302.576472 
L 299.258182 302.865264 
L 303.316364 303.1344 
L 307.374545 303.38388 
L 311.432727 303.612192 
L 315.490909 303.820848 
L 319.549091 304.006824 
L 323.607273 304.171632 
L 327.665455 304.31376 
L 331.723636 304.43472 
L 335.781818 304.533 
L 339.84 304.6086 
L 343.898182 304.66152 
L 347.956364 304.69176 
L 352.014545 304.700832 
L 356.072727 304.688736 
L 360.130909 304.65396 
L 364.189091 304.599528 
L 368.247273 304.523928 
L 372.305455 304.430184 
L 376.363636 304.316784 
L 380.421818 304.186752 
L 384.48 304.038576 
L 388.538182 303.876792 
L 392.596364 303.699888 
L 396.654545 303.509376 
L 400.712727 303.30828 
L 404.770909 303.098112 
L 408.829091 302.878872 
L 412.887273 302.652072 
L 416.945455 302.420736 
L 421.003636 302.184864 
L 425.061818 301.948992 
L 429.12 301.711608 
L 433.178182 301.475736 
L 437.236364 301.2444 
L 441.294545 301.016088 
L 445.352727 300.796848 
L 449.410909 300.585168 
L 453.469091 300.38256 
L 457.527273 300.192048 
L 461.585455 300.015144 
L 465.643636 299.85336 
L 469.701818 299.706696 
L 473.76 299.576664 
L 477.818182 299.466288 
L 481.876364 299.372544 
L 485.934545 299.299968 
L 489.992727 299.24856 
L 494.050909 299.216808 
L 498.109091 299.206224 
" clip-path="url(#p51c3c6bd9c)" style="fill: none; stroke: #000000; stroke-opacity: 0.5; stroke-linecap: square"/>
   </g>
   <g id="line2d_18">
    <path d="M 92.290909 248.297184 
L 96.349091 248.297184 
L 100.407273 248.297184 
L 104.465455 248.295672 
L 108.523636 248.295672 
L 112.581818 248.292648 
L 116.64 248.291136 
L 120.698182 248.288112 
L 124.756364 248.283576 
L 128.814545 248.27904 
L 132.872727 248.272992 
L 136.930909 248.266944 
L 140.989091 248.259384 
L 145.047273 248.253336 
L 149.105455 248.245776 
L 153.163636 248.239728 
L 157.221818 248.235192 
L 161.28 248.230656 
L 165.338182 248.229144 
L 169.396364 248.230656 
L 173.454545 248.236704 
L 177.512727 248.245776 
L 181.570909 248.260896 
L 185.629091 248.282064 
L 189.687273 248.310792 
L 193.745455 248.345568 
L 197.803636 248.390928 
L 201.861818 248.44536 
L 205.92 248.508864 
L 209.978182 248.584464 
L 214.036364 248.67216 
L 218.094545 248.771952 
L 222.152727 248.88384 
L 226.210909 249.007824 
L 230.269091 249.146928 
L 234.327273 249.298128 
L 238.385455 249.461424 
L 242.443636 249.638328 
L 246.501818 249.82884 
L 250.56 250.031448 
L 254.618182 250.24464 
L 258.676364 250.469928 
L 262.734545 250.7058 
L 266.792727 250.950744 
L 270.850909 251.20476 
L 274.909091 251.466336 
L 278.967273 251.735472 
L 283.025455 252.010656 
L 287.083636 252.290376 
L 291.141818 252.576144 
L 295.2 252.864936 
L 299.258182 253.15524 
L 303.316364 253.448568 
L 307.374545 253.743408 
L 311.432727 254.036736 
L 315.490909 254.330064 
L 319.549091 254.62188 
L 323.607273 254.912184 
L 327.665455 255.197952 
L 331.723636 255.480696 
L 335.781818 255.760416 
L 339.84 256.034088 
L 343.898182 256.301712 
L 347.956364 256.563288 
L 352.014545 256.818816 
L 356.072727 257.066784 
L 360.130909 257.30568 
L 364.189091 257.537016 
L 368.247273 257.75928 
L 372.305455 257.972472 
L 376.363636 258.17508 
L 380.421818 258.368616 
L 384.48 258.550056 
L 388.538182 258.720912 
L 392.596364 258.879672 
L 396.654545 259.026336 
L 400.712727 259.160904 
L 404.770909 259.283376 
L 408.829091 259.39224 
L 412.887273 259.489008 
L 416.945455 259.572168 
L 421.003636 259.64172 
L 425.061818 259.697664 
L 429.12 259.741512 
L 433.178182 259.771752 
L 437.236364 259.789896 
L 441.294545 259.794432 
L 445.352727 259.789896 
L 449.410909 259.773264 
L 453.469091 259.74756 
L 457.527273 259.714296 
L 461.585455 259.673472 
L 465.643636 259.628112 
L 469.701818 259.58124 
L 473.76 259.532856 
L 477.818182 259.487496 
L 481.876364 259.44516 
L 485.934545 259.410384 
L 489.992727 259.383168 
L 494.050909 259.366536 
L 498.109091 259.362 
" clip-path="url(#p51c3c6bd9c)" style="fill: none; stroke: #000000; stroke-opacity: 0.5; stroke-linecap: square"/>
   </g>
   <g id="line2d_19">
    <path d="M 92.290909 238.877424 
L 96.349091 238.865328 
L 100.407273 238.826016 
L 104.465455 238.764024 
L 108.523636 238.676328 
L 112.581818 238.567464 
L 116.64 238.43592 
L 120.698182 238.287744 
L 124.756364 238.121424 
L 128.814545 237.941496 
L 132.872727 237.749472 
L 136.930909 237.548376 
L 140.989091 237.33972 
L 145.047273 237.126528 
L 149.105455 236.911824 
L 153.163636 236.695608 
L 157.221818 236.482416 
L 161.28 236.270736 
L 165.338182 236.065104 
L 169.396364 235.867032 
L 173.454545 235.673496 
L 177.512727 235.489032 
L 181.570909 235.312128 
L 185.629091 235.144296 
L 189.687273 234.984024 
L 193.745455 234.831312 
L 197.803636 234.68616 
L 201.861818 234.547056 
L 205.92 234.414 
L 209.978182 234.28548 
L 214.036364 234.159984 
L 218.094545 234.039024 
L 222.152727 233.919576 
L 226.210909 233.800128 
L 230.269091 233.682192 
L 234.327273 233.562744 
L 238.385455 233.443296 
L 242.443636 233.320824 
L 246.501818 233.198352 
L 250.56 233.074368 
L 254.618182 232.948872 
L 258.676364 232.821864 
L 262.734545 232.694856 
L 266.792727 232.567848 
L 270.850909 232.442352 
L 274.909091 232.318368 
L 278.967273 232.197408 
L 283.025455 232.080984 
L 287.083636 231.970608 
L 291.141818 231.867792 
L 295.2 231.774048 
L 299.258182 231.689376 
L 303.316364 231.618312 
L 307.374545 231.560856 
L 311.432727 231.51852 
L 315.490909 231.494328 
L 319.549091 231.489792 
L 323.607273 231.507936 
L 327.665455 231.547248 
L 331.723636 231.612264 
L 335.781818 231.702984 
L 339.84 231.822432 
L 343.898182 231.970608 
L 347.956364 232.147512 
L 352.014545 232.356168 
L 356.072727 232.595064 
L 360.130909 232.865712 
L 364.189091 233.168112 
L 368.247273 233.500752 
L 372.305455 233.865144 
L 376.363636 234.256752 
L 380.421818 234.677088 
L 384.48 235.123128 
L 388.538182 235.594872 
L 392.596364 236.089296 
L 396.654545 236.601864 
L 400.712727 237.134088 
L 404.770909 237.681432 
L 408.829091 238.242384 
L 412.887273 238.812408 
L 416.945455 239.38848 
L 421.003636 239.9706 
L 425.061818 240.55272 
L 429.12 241.13484 
L 433.178182 241.710912 
L 437.236364 242.277912 
L 441.294545 242.83584 
L 445.352727 243.377136 
L 449.410909 243.9018 
L 453.469091 244.403784 
L 457.527273 244.881576 
L 461.585455 245.329128 
L 465.643636 245.744928 
L 469.701818 246.12444 
L 473.76 246.463128 
L 477.818182 246.757968 
L 481.876364 247.004424 
L 485.934545 247.200984 
L 489.992727 247.343112 
L 494.050909 247.429296 
L 498.109091 247.458024 
" clip-path="url(#p51c3c6bd9c)" style="fill: none; stroke: #000000; stroke-opacity: 0.5; stroke-linecap: square"/>
   </g>
   <g id="line2d_20">
    <path d="M 92.290909 177.55524 
L 96.349091 177.580944 
L 100.407273 177.659568 
L 104.465455 177.783552 
L 108.523636 177.94836 
L 112.581818 178.141896 
L 116.64 178.355088 
L 120.698182 178.578864 
L 124.756364 178.804152 
L 128.814545 179.020368 
L 132.872727 179.224488 
L 136.930909 179.404416 
L 140.989091 179.55864 
L 145.047273 179.681112 
L 149.105455 179.765784 
L 153.163636 179.809632 
L 157.221818 179.811144 
L 161.28 179.765784 
L 165.338182 179.67204 
L 169.396364 179.526888 
L 173.454545 179.330328 
L 177.512727 179.08236 
L 181.570909 178.77996 
L 185.629091 178.423128 
L 189.687273 178.013376 
L 193.745455 177.549192 
L 197.803636 177.032088 
L 201.861818 176.462064 
L 205.92 175.840632 
L 209.978182 175.169304 
L 214.036364 174.44808 
L 218.094545 173.679984 
L 222.152727 172.865016 
L 226.210909 172.0062 
L 230.269091 171.10656 
L 234.327273 170.164584 
L 238.385455 169.18632 
L 242.443636 168.171768 
L 246.501818 167.125464 
L 250.56 166.050432 
L 254.618182 164.95272 
L 258.676364 163.8414 
L 262.734545 162.733104 
L 266.792727 161.665632 
L 270.850909 160.737264 
L 274.909091 160.214112 
L 278.967273 160.433352 
L 283.025455 161.21808 
L 287.083636 162.222048 
L 291.141818 163.294056 
L 295.2 164.376648 
L 299.258182 165.447144 
L 303.316364 166.493448 
L 307.374545 167.509512 
L 311.432727 168.4908 
L 315.490909 169.431264 
L 319.549091 170.32788 
L 323.607273 171.179136 
L 327.665455 171.982008 
L 331.723636 172.733472 
L 335.781818 173.432016 
L 339.84 174.074616 
L 343.898182 174.661272 
L 347.956364 175.190472 
L 352.014545 175.659192 
L 356.072727 176.067432 
L 360.130909 176.415192 
L 364.189091 176.702472 
L 368.247273 176.926248 
L 372.305455 177.089544 
L 376.363636 177.19236 
L 380.421818 177.236208 
L 384.48 177.219576 
L 388.538182 177.145488 
L 392.596364 177.013944 
L 396.654545 176.827968 
L 400.712727 176.589072 
L 404.770909 176.298768 
L 408.829091 175.958568 
L 412.887273 175.571496 
L 416.945455 175.137552 
L 421.003636 174.661272 
L 425.061818 174.142656 
L 429.12 173.584728 
L 433.178182 172.989 
L 437.236364 172.356984 
L 441.294545 171.693216 
L 445.352727 170.999208 
L 449.410909 170.27496 
L 453.469091 169.52652 
L 457.527273 168.7554 
L 461.585455 167.966136 
L 465.643636 167.163264 
L 469.701818 166.354344 
L 473.76 165.546936 
L 477.818182 164.75616 
L 481.876364 164.001672 
L 485.934545 163.315224 
L 489.992727 162.7452 
L 494.050909 162.358128 
L 498.109091 162.217512 
" clip-path="url(#p51c3c6bd9c)" style="fill: none; stroke: #000000; stroke-opacity: 0.5; stroke-linecap: square"/>
   </g>
   <g id="line2d_21">
    <path d="M 92.290909 161.691336 
L 96.349091 161.629344 
L 100.407273 161.443368 
L 104.465455 161.140968 
L 108.523636 160.72668 
L 112.581818 160.211088 
L 116.64 159.603264 
L 120.698182 158.91228 
L 124.756364 158.145696 
L 128.814545 157.314096 
L 132.872727 156.420504 
L 136.930909 155.473992 
L 140.989091 154.477584 
L 145.047273 153.437328 
L 149.105455 152.356248 
L 153.163636 151.237368 
L 157.221818 150.083712 
L 161.28 148.896792 
L 165.338182 147.681144 
L 169.396364 146.436768 
L 173.454545 145.166688 
L 177.512727 143.870904 
L 181.570909 142.55244 
L 185.629091 141.212808 
L 189.687273 139.85352 
L 193.745455 138.479112 
L 197.803636 137.097144 
L 201.861818 135.739368 
L 205.92 134.679456 
L 209.978182 135.316008 
L 214.036364 136.67076 
L 218.094545 138.105648 
L 222.152727 139.560192 
L 226.210909 141.019272 
L 230.269091 142.47684 
L 234.327273 143.926848 
L 238.385455 145.367784 
L 242.443636 146.796624 
L 246.501818 148.20732 
L 250.56 149.59836 
L 254.618182 150.962184 
L 258.676364 152.28972 
L 262.734545 153.564336 
L 266.792727 154.748232 
L 270.850909 155.743128 
L 274.909091 156.2814 
L 278.967273 156.025872 
L 283.025455 155.153448 
L 287.083636 154.008864 
L 291.141818 152.744832 
L 295.2 151.414272 
L 299.258182 150.041376 
L 303.316364 148.636728 
L 307.374545 147.207888 
L 311.432727 145.756368 
L 315.490909 144.286704 
L 319.549091 142.80192 
L 323.607273 141.30504 
L 327.665455 139.797576 
L 331.723636 138.284064 
L 335.781818 136.767528 
L 339.84 135.255528 
L 343.898182 133.758648 
L 347.956364 132.296544 
L 352.014545 130.911552 
L 356.072727 129.689856 
L 360.130909 128.784168 
L 364.189091 128.300328 
L 368.247273 128.140056 
L 372.305455 128.156688 
L 376.363636 128.267064 
L 380.421818 128.433384 
L 384.48 128.643552 
L 388.538182 128.896056 
L 392.596364 129.199968 
L 396.654545 129.57192 
L 400.712727 130.039128 
L 404.770909 130.636368 
L 408.829091 131.392368 
L 412.887273 132.30864 
L 416.945455 133.35948 
L 421.003636 134.505576 
L 425.061818 135.715176 
L 429.12 136.95804 
L 433.178182 138.22056 
L 437.236364 139.489128 
L 441.294545 140.757696 
L 445.352727 142.018704 
L 449.410909 143.267616 
L 453.469091 144.501408 
L 457.527273 145.714032 
L 461.585455 146.903976 
L 465.643636 148.065192 
L 469.701818 149.19012 
L 473.76 150.269688 
L 477.818182 151.2918 
L 481.876364 152.233776 
L 485.934545 153.066888 
L 489.992727 153.74124 
L 494.050909 154.191816 
L 498.109091 154.352088 
" clip-path="url(#p51c3c6bd9c)" style="fill: none; stroke: #000000; stroke-opacity: 0.5; stroke-linecap: square"/>
   </g>
   <g id="line2d_22">
    <path d="M 92.290909 121.844088 
L 96.349091 121.8456 
L 100.407273 121.850136 
L 104.465455 121.856184 
L 108.523636 121.866768 
L 112.581818 121.880376 
L 116.64 121.897008 
L 120.698182 121.919688 
L 124.756364 121.946904 
L 128.814545 121.980168 
L 132.872727 122.020992 
L 136.930909 122.0724 
L 140.989091 122.135904 
L 145.047273 122.21604 
L 149.105455 122.317344 
L 153.163636 122.447376 
L 157.221818 122.61672 
L 161.28 122.84352 
L 165.338182 123.148944 
L 169.396364 123.564744 
L 173.454545 124.130232 
L 177.512727 124.872624 
L 181.570909 125.796456 
L 185.629091 126.88056 
L 189.687273 128.087136 
L 193.745455 129.376872 
L 197.803636 130.716504 
L 201.861818 132.054624 
L 205.92 133.105464 
L 209.978182 132.45984 
L 214.036364 131.09148 
L 218.094545 129.635424 
L 222.152727 128.152152 
L 226.210909 126.655272 
L 230.269091 125.168976 
L 234.327273 123.749208 
L 238.385455 122.642424 
L 242.443636 122.235696 
L 246.501818 122.19336 
L 250.56 122.247792 
L 254.618182 122.335488 
L 258.676364 122.439816 
L 262.734545 122.554728 
L 266.792727 122.6772 
L 270.850909 122.807232 
L 274.909091 122.943312 
L 278.967273 123.083928 
L 283.025455 123.230592 
L 287.083636 123.38028 
L 291.141818 123.534504 
L 295.2 123.693264 
L 299.258182 123.855048 
L 303.316364 124.019856 
L 307.374545 124.186176 
L 311.432727 124.35552 
L 315.490909 124.526376 
L 319.549091 124.69572 
L 323.607273 124.866576 
L 327.665455 125.034408 
L 331.723636 125.197704 
L 335.781818 125.351928 
L 339.84 125.495568 
L 343.898182 125.615016 
L 347.956364 125.692128 
L 352.014545 125.687592 
L 356.072727 125.516736 
L 360.130909 125.026848 
L 364.189091 124.12116 
L 368.247273 122.900976 
L 372.305455 121.529592 
L 376.363636 120.15216 
L 380.421818 119.157264 
L 384.48 119.633544 
L 388.538182 120.834072 
L 392.596364 122.108688 
L 396.654545 123.340968 
L 400.712727 124.481016 
L 404.770909 125.483472 
L 408.829091 126.316584 
L 412.887273 126.974304 
L 416.945455 127.480824 
L 421.003636 127.872432 
L 425.061818 128.183904 
L 429.12 128.439432 
L 433.178182 128.655648 
L 437.236364 128.840112 
L 441.294545 129.001896 
L 445.352727 129.145536 
L 449.410909 129.272544 
L 453.469091 129.385944 
L 457.527273 129.487248 
L 461.585455 129.576456 
L 465.643636 129.65508 
L 469.701818 129.724632 
L 473.76 129.7836 
L 477.818182 129.831984 
L 481.876364 129.872808 
L 485.934545 129.90456 
L 489.992727 129.92724 
L 494.050909 129.939336 
L 498.109091 129.943872 
" clip-path="url(#p51c3c6bd9c)" style="fill: none; stroke: #000000; stroke-opacity: 0.5; stroke-linecap: square"/>
   </g>
   <g id="line2d_23">
    <path d="M 92.290909 98.506368 
L 96.349091 98.592552 
L 100.407273 98.849592 
L 104.465455 99.269928 
L 108.523636 99.839952 
L 112.581818 100.547568 
L 116.64 101.376144 
L 120.698182 102.31056 
L 124.756364 103.334184 
L 128.814545 104.433408 
L 132.872727 105.596136 
L 136.930909 106.80876 
L 140.989091 108.060696 
L 145.047273 109.34136 
L 149.105455 110.637144 
L 153.163636 111.937464 
L 157.221818 113.224176 
L 161.28 114.479136 
L 165.338182 115.673616 
L 169.396364 116.774352 
L 173.454545 117.739008 
L 177.512727 118.540368 
L 181.570909 119.167848 
L 185.629091 119.641104 
L 189.687273 119.997936 
L 193.745455 120.270096 
L 197.803636 120.483288 
L 201.861818 120.655656 
L 205.92 120.80232 
L 209.978182 120.929328 
L 214.036364 121.041216 
L 218.094545 121.14252 
L 222.152727 121.23324 
L 226.210909 121.30884 
L 230.269091 121.355712 
L 234.327273 121.319424 
L 238.385455 120.955032 
L 242.443636 119.876976 
L 246.501818 118.423944 
L 250.56 116.862048 
L 254.618182 115.257816 
L 258.676364 113.62788 
L 262.734545 111.978288 
L 266.792727 110.313576 
L 270.850909 108.633744 
L 274.909091 106.940304 
L 278.967273 105.237792 
L 283.025455 103.523184 
L 287.083636 101.799504 
L 291.141818 100.069776 
L 295.2 98.337024 
L 299.258182 96.605784 
L 303.316364 94.895712 
L 307.374545 93.270312 
L 311.432727 92.131776 
L 315.490909 92.689704 
L 319.549091 94.11552 
L 323.607273 95.689512 
L 327.665455 97.29828 
L 331.723636 98.917632 
L 335.781818 100.538496 
L 339.84 102.154824 
L 343.898182 103.763592 
L 347.956364 105.3648 
L 352.014545 106.953912 
L 356.072727 108.530928 
L 360.130909 110.091312 
L 364.189091 111.63204 
L 368.247273 113.145552 
L 372.305455 114.615216 
L 376.363636 115.982064 
L 380.421818 116.8938 
L 384.48 116.27388 
L 388.538182 114.870744 
L 392.596364 113.32548 
L 396.654545 111.73788 
L 400.712727 110.132136 
L 404.770909 108.518832 
L 408.829091 106.904016 
L 412.887273 105.287688 
L 416.945455 103.677408 
L 421.003636 102.071664 
L 425.061818 100.474992 
L 429.12 98.890416 
L 433.178182 97.319448 
L 437.236364 95.768136 
L 441.294545 94.237992 
L 445.352727 92.733552 
L 449.410909 91.262376 
L 453.469091 89.829 
L 457.527273 88.442496 
L 461.585455 87.111936 
L 465.643636 85.849416 
L 469.701818 84.667032 
L 473.76 83.58444 
L 477.818182 82.619784 
L 481.876364 81.791208 
L 485.934545 81.121392 
L 489.992727 80.626968 
L 494.050909 80.32608 
L 498.109091 80.224776 
" clip-path="url(#p51c3c6bd9c)" style="fill: none; stroke: #000000; stroke-opacity: 0.5; stroke-linecap: square"/>
   </g>
   <g id="patch_3">
    <path d="M 72 384.48 
L 72 51.84 
" style="fill: none; stroke: #000000; stroke-width: 0.8; stroke-linejoin: miter; stroke-linecap: square"/>
   </g>
   <g id="patch_4">
    <path d="M 518.4 384.48 
L 518.4 51.84 
" style="fill: none; stroke: #000000; stroke-width: 0.8; stroke-linejoin: miter; stroke-linecap: square"/>
   </g>
   <g id="patch_5">
    <path d="M 72 384.48 
L 518.4 384.48 
" style="fill: none; stroke: #000000; stroke-width: 0.8; stroke-linejoin: miter; stroke-linecap: square"/>
   </g>
   <g id="patch_6">
    <path d="M 72 51.84 
L 518.4 51.84 
" style="fill: none; stroke: #000000; stroke-width: 0.8; stroke-linejoin: miter; stroke-linecap: square"/>
   </g>
  </g>
 </g>
 <defs>
  <clipPath id="p51c3c6bd9c">
   <rect x="72" y="51.84" width="446.4" height="332.64"/>
  </clipPath>
 </defs>
</svg>
