<?xml version="1.0" encoding="utf-8" standalone="no"?>
<!DOCTYPE svg PUBLIC "-//W3C//DTD SVG 1.1//EN"
  "http://www.w3.org/Graphics/SVG/1.1/DTD/svg11.dtd">
<svg xmlns:xlink="http://www.w3.org/1999/xlink" width="576pt" height="432pt" viewBox="0 0 576 432" xmlns="http://www.w3.org/2000/svg" version="1.1">
 <metadata>
  <rdf:RDF xmlns:dc="http://purl.org/dc/elements/1.1/" xmlns:cc="http://creativecommons.org/ns#" xmlns:rdf="http://www.w3.org/1999/02/22-rdf-syntax-ns#">
   <cc:Work>
    <dc:type rdf:resource="http://purl.org/dc/dcmitype/StillImage"/>
    <dc:date>2023-05-02T21:43:23.352707</dc:date>
    <dc:format>image/svg+xml</dc:format>
    <dc:creator>
     <cc:Agent>
      <dc:title>Matplotlib v3.7.1, https://matplotlib.org/</dc:title>
     </cc:Agent>
    </dc:creator>
   </cc:Work>
  </rdf:RDF>
 </metadata>
 <defs>
  <style type="text/css">*{stroke-linejoin: round; stroke-linecap: butt}</style>
 </defs>
 <g id="figure_1">
  <g id="patch_1">
   <path d="M 0 432 
L 576 432 
L 576 0 
L 0 0 
z
" style="fill: #ffffff"/>
  </g>
  <g id="axes_1">
   <g id="patch_2">
    <path d="M 72 384.48 
L 518.4 384.48 
L 518.4 51.84 
L 72 51.84 
z
" style="fill: #ffffff"/>
   </g>
   <g id="matplotlib.axis_1">
    <g id="xtick_1">
     <g id="line2d_1">
      <defs>
       <path id="mfe548237a4" d="M 0 0 
L 0 3.5 
" style="stroke: #000000; stroke-width: 0.8"/>
      </defs>
      <g>
       <use xlink:href="#mfe548237a4" x="92.290909" y="384.48" style="stroke: #000000; stroke-width: 0.8"/>
      </g>
     </g>
     <g id="text_1">
      <!-- 0.0 -->
      <g transform="translate(84.339347 399.078438) scale(0.1 -0.1)">
       <defs>
        <path id="DejaVuSans-30" d="M 2034 4250 
Q 1547 4250 1301 3770 
Q 1056 3291 1056 2328 
Q 1056 1369 1301 889 
Q 1547 409 2034 409 
Q 2525 409 2770 889 
Q 3016 1369 3016 2328 
Q 3016 3291 2770 3770 
Q 2525 4250 2034 4250 
z
M 2034 4750 
Q 2819 4750 3233 4129 
Q 3647 3509 3647 2328 
Q 3647 1150 3233 529 
Q 2819 -91 2034 -91 
Q 1250 -91 836 529 
Q 422 1150 422 2328 
Q 422 3509 836 4129 
Q 1250 4750 2034 4750 
z
" transform="scale(0.015625)"/>
        <path id="DejaVuSans-2e" d="M 684 794 
L 1344 794 
L 1344 0 
L 684 0 
L 684 794 
z
" transform="scale(0.015625)"/>
       </defs>
       <use xlink:href="#DejaVuSans-30"/>
       <use xlink:href="#DejaVuSans-2e" x="63.623047"/>
       <use xlink:href="#DejaVuSans-30" x="95.410156"/>
      </g>
     </g>
    </g>
    <g id="xtick_2">
     <g id="line2d_2">
      <g>
       <use xlink:href="#mfe548237a4" x="173.454545" y="384.48" style="stroke: #000000; stroke-width: 0.8"/>
      </g>
     </g>
     <g id="text_2">
      <!-- 0.2 -->
      <g transform="translate(165.502983 399.078438) scale(0.1 -0.1)">
       <defs>
        <path id="DejaVuSans-32" d="M 1228 531 
L 3431 531 
L 3431 0 
L 469 0 
L 469 531 
Q 828 903 1448 1529 
Q 2069 2156 2228 2338 
Q 2531 2678 2651 2914 
Q 2772 3150 2772 3378 
Q 2772 3750 2511 3984 
Q 2250 4219 1831 4219 
Q 1534 4219 1204 4116 
Q 875 4013 500 3803 
L 500 4441 
Q 881 4594 1212 4672 
Q 1544 4750 1819 4750 
Q 2544 4750 2975 4387 
Q 3406 4025 3406 3419 
Q 3406 3131 3298 2873 
Q 3191 2616 2906 2266 
Q 2828 2175 2409 1742 
Q 1991 1309 1228 531 
z
" transform="scale(0.015625)"/>
       </defs>
       <use xlink:href="#DejaVuSans-30"/>
       <use xlink:href="#DejaVuSans-2e" x="63.623047"/>
       <use xlink:href="#DejaVuSans-32" x="95.410156"/>
      </g>
     </g>
    </g>
    <g id="xtick_3">
     <g id="line2d_3">
      <g>
       <use xlink:href="#mfe548237a4" x="254.618182" y="384.48" style="stroke: #000000; stroke-width: 0.8"/>
      </g>
     </g>
     <g id="text_3">
      <!-- 0.4 -->
      <g transform="translate(246.666619 399.078438) scale(0.1 -0.1)">
       <defs>
        <path id="DejaVuSans-34" d="M 2419 4116 
L 825 1625 
L 2419 1625 
L 2419 4116 
z
M 2253 4666 
L 3047 4666 
L 3047 1625 
L 3713 1625 
L 3713 1100 
L 3047 1100 
L 3047 0 
L 2419 0 
L 2419 1100 
L 313 1100 
L 313 1709 
L 2253 4666 
z
" transform="scale(0.015625)"/>
       </defs>
       <use xlink:href="#DejaVuSans-30"/>
       <use xlink:href="#DejaVuSans-2e" x="63.623047"/>
       <use xlink:href="#DejaVuSans-34" x="95.410156"/>
      </g>
     </g>
    </g>
    <g id="xtick_4">
     <g id="line2d_4">
      <g>
       <use xlink:href="#mfe548237a4" x="335.781818" y="384.48" style="stroke: #000000; stroke-width: 0.8"/>
      </g>
     </g>
     <g id="text_4">
      <!-- 0.6 -->
      <g transform="translate(327.830256 399.078438) scale(0.1 -0.1)">
       <defs>
        <path id="DejaVuSans-36" d="M 2113 2584 
Q 1688 2584 1439 2293 
Q 1191 2003 1191 1497 
Q 1191 994 1439 701 
Q 1688 409 2113 409 
Q 2538 409 2786 701 
Q 3034 994 3034 1497 
Q 3034 2003 2786 2293 
Q 2538 2584 2113 2584 
z
M 3366 4563 
L 3366 3988 
Q 3128 4100 2886 4159 
Q 2644 4219 2406 4219 
Q 1781 4219 1451 3797 
Q 1122 3375 1075 2522 
Q 1259 2794 1537 2939 
Q 1816 3084 2150 3084 
Q 2853 3084 3261 2657 
Q 3669 2231 3669 1497 
Q 3669 778 3244 343 
Q 2819 -91 2113 -91 
Q 1303 -91 875 529 
Q 447 1150 447 2328 
Q 447 3434 972 4092 
Q 1497 4750 2381 4750 
Q 2619 4750 2861 4703 
Q 3103 4656 3366 4563 
z
" transform="scale(0.015625)"/>
       </defs>
       <use xlink:href="#DejaVuSans-30"/>
       <use xlink:href="#DejaVuSans-2e" x="63.623047"/>
       <use xlink:href="#DejaVuSans-36" x="95.410156"/>
      </g>
     </g>
    </g>
    <g id="xtick_5">
     <g id="line2d_5">
      <g>
       <use xlink:href="#mfe548237a4" x="416.945455" y="384.48" style="stroke: #000000; stroke-width: 0.8"/>
      </g>
     </g>
     <g id="text_5">
      <!-- 0.8 -->
      <g transform="translate(408.993892 399.078438) scale(0.1 -0.1)">
       <defs>
        <path id="DejaVuSans-38" d="M 2034 2216 
Q 1584 2216 1326 1975 
Q 1069 1734 1069 1313 
Q 1069 891 1326 650 
Q 1584 409 2034 409 
Q 2484 409 2743 651 
Q 3003 894 3003 1313 
Q 3003 1734 2745 1975 
Q 2488 2216 2034 2216 
z
M 1403 2484 
Q 997 2584 770 2862 
Q 544 3141 544 3541 
Q 544 4100 942 4425 
Q 1341 4750 2034 4750 
Q 2731 4750 3128 4425 
Q 3525 4100 3525 3541 
Q 3525 3141 3298 2862 
Q 3072 2584 2669 2484 
Q 3125 2378 3379 2068 
Q 3634 1759 3634 1313 
Q 3634 634 3220 271 
Q 2806 -91 2034 -91 
Q 1263 -91 848 271 
Q 434 634 434 1313 
Q 434 1759 690 2068 
Q 947 2378 1403 2484 
z
M 1172 3481 
Q 1172 3119 1398 2916 
Q 1625 2713 2034 2713 
Q 2441 2713 2670 2916 
Q 2900 3119 2900 3481 
Q 2900 3844 2670 4047 
Q 2441 4250 2034 4250 
Q 1625 4250 1398 4047 
Q 1172 3844 1172 3481 
z
" transform="scale(0.015625)"/>
       </defs>
       <use xlink:href="#DejaVuSans-30"/>
       <use xlink:href="#DejaVuSans-2e" x="63.623047"/>
       <use xlink:href="#DejaVuSans-38" x="95.410156"/>
      </g>
     </g>
    </g>
    <g id="xtick_6">
     <g id="line2d_6">
      <g>
       <use xlink:href="#mfe548237a4" x="498.109091" y="384.48" style="stroke: #000000; stroke-width: 0.8"/>
      </g>
     </g>
     <g id="text_6">
      <!-- 1.0 -->
      <g transform="translate(490.157528 399.078438) scale(0.1 -0.1)">
       <defs>
        <path id="DejaVuSans-31" d="M 794 531 
L 1825 531 
L 1825 4091 
L 703 3866 
L 703 4441 
L 1819 4666 
L 2450 4666 
L 2450 531 
L 3481 531 
L 3481 0 
L 794 0 
L 794 531 
z
" transform="scale(0.015625)"/>
       </defs>
       <use xlink:href="#DejaVuSans-31"/>
       <use xlink:href="#DejaVuSans-2e" x="63.623047"/>
       <use xlink:href="#DejaVuSans-30" x="95.410156"/>
      </g>
     </g>
    </g>
   </g>
   <g id="matplotlib.axis_2">
    <g id="ytick_1">
     <g id="line2d_7">
      <defs>
       <path id="m260d1a23c5" d="M 0 0 
L -3.5 0 
" style="stroke: #000000; stroke-width: 0.8"/>
      </defs>
      <g>
       <use xlink:href="#m260d1a23c5" x="72" y="369.36" style="stroke: #000000; stroke-width: 0.8"/>
      </g>
     </g>
     <g id="text_7">
      <!-- −5.0 -->
      <g transform="translate(40.717187 373.159219) scale(0.1 -0.1)">
       <defs>
        <path id="DejaVuSans-2212" d="M 678 2272 
L 4684 2272 
L 4684 1741 
L 678 1741 
L 678 2272 
z
" transform="scale(0.015625)"/>
        <path id="DejaVuSans-35" d="M 691 4666 
L 3169 4666 
L 3169 4134 
L 1269 4134 
L 1269 2991 
Q 1406 3038 1543 3061 
Q 1681 3084 1819 3084 
Q 2600 3084 3056 2656 
Q 3513 2228 3513 1497 
Q 3513 744 3044 326 
Q 2575 -91 1722 -91 
Q 1428 -91 1123 -41 
Q 819 9 494 109 
L 494 744 
Q 775 591 1075 516 
Q 1375 441 1709 441 
Q 2250 441 2565 725 
Q 2881 1009 2881 1497 
Q 2881 1984 2565 2268 
Q 2250 2553 1709 2553 
Q 1456 2553 1204 2497 
Q 953 2441 691 2322 
L 691 4666 
z
" transform="scale(0.015625)"/>
       </defs>
       <use xlink:href="#DejaVuSans-2212"/>
       <use xlink:href="#DejaVuSans-35" x="83.789062"/>
       <use xlink:href="#DejaVuSans-2e" x="147.412109"/>
       <use xlink:href="#DejaVuSans-30" x="179.199219"/>
      </g>
     </g>
    </g>
    <g id="ytick_2">
     <g id="line2d_8">
      <g>
       <use xlink:href="#m260d1a23c5" x="72" y="331.56" style="stroke: #000000; stroke-width: 0.8"/>
      </g>
     </g>
     <g id="text_8">
      <!-- −2.5 -->
      <g transform="translate(40.717187 335.359219) scale(0.1 -0.1)">
       <use xlink:href="#DejaVuSans-2212"/>
       <use xlink:href="#DejaVuSans-32" x="83.789062"/>
       <use xlink:href="#DejaVuSans-2e" x="147.412109"/>
       <use xlink:href="#DejaVuSans-35" x="179.199219"/>
      </g>
     </g>
    </g>
    <g id="ytick_3">
     <g id="line2d_9">
      <g>
       <use xlink:href="#m260d1a23c5" x="72" y="293.76" style="stroke: #000000; stroke-width: 0.8"/>
      </g>
     </g>
     <g id="text_9">
      <!-- 0.0 -->
      <g transform="translate(49.096875 297.559219) scale(0.1 -0.1)">
       <use xlink:href="#DejaVuSans-30"/>
       <use xlink:href="#DejaVuSans-2e" x="63.623047"/>
       <use xlink:href="#DejaVuSans-30" x="95.410156"/>
      </g>
     </g>
    </g>
    <g id="ytick_4">
     <g id="line2d_10">
      <g>
       <use xlink:href="#m260d1a23c5" x="72" y="255.96" style="stroke: #000000; stroke-width: 0.8"/>
      </g>
     </g>
     <g id="text_10">
      <!-- 2.5 -->
      <g transform="translate(49.096875 259.759219) scale(0.1 -0.1)">
       <use xlink:href="#DejaVuSans-32"/>
       <use xlink:href="#DejaVuSans-2e" x="63.623047"/>
       <use xlink:href="#DejaVuSans-35" x="95.410156"/>
      </g>
     </g>
    </g>
    <g id="ytick_5">
     <g id="line2d_11">
      <g>
       <use xlink:href="#m260d1a23c5" x="72" y="218.16" style="stroke: #000000; stroke-width: 0.8"/>
      </g>
     </g>
     <g id="text_11">
      <!-- 5.0 -->
      <g transform="translate(49.096875 221.959219) scale(0.1 -0.1)">
       <use xlink:href="#DejaVuSans-35"/>
       <use xlink:href="#DejaVuSans-2e" x="63.623047"/>
       <use xlink:href="#DejaVuSans-30" x="95.410156"/>
      </g>
     </g>
    </g>
    <g id="ytick_6">
     <g id="line2d_12">
      <g>
       <use xlink:href="#m260d1a23c5" x="72" y="180.36" style="stroke: #000000; stroke-width: 0.8"/>
      </g>
     </g>
     <g id="text_12">
      <!-- 7.5 -->
      <g transform="translate(49.096875 184.159219) scale(0.1 -0.1)">
       <defs>
        <path id="DejaVuSans-37" d="M 525 4666 
L 3525 4666 
L 3525 4397 
L 1831 0 
L 1172 0 
L 2766 4134 
L 525 4134 
L 525 4666 
z
" transform="scale(0.015625)"/>
       </defs>
       <use xlink:href="#DejaVuSans-37"/>
       <use xlink:href="#DejaVuSans-2e" x="63.623047"/>
       <use xlink:href="#DejaVuSans-35" x="95.410156"/>
      </g>
     </g>
    </g>
    <g id="ytick_7">
     <g id="line2d_13">
      <g>
       <use xlink:href="#m260d1a23c5" x="72" y="142.56" style="stroke: #000000; stroke-width: 0.8"/>
      </g>
     </g>
     <g id="text_13">
      <!-- 10.0 -->
      <g transform="translate(42.734375 146.359219) scale(0.1 -0.1)">
       <use xlink:href="#DejaVuSans-31"/>
       <use xlink:href="#DejaVuSans-30" x="63.623047"/>
       <use xlink:href="#DejaVuSans-2e" x="127.246094"/>
       <use xlink:href="#DejaVuSans-30" x="159.033203"/>
      </g>
     </g>
    </g>
    <g id="ytick_8">
     <g id="line2d_14">
      <g>
       <use xlink:href="#m260d1a23c5" x="72" y="104.76" style="stroke: #000000; stroke-width: 0.8"/>
      </g>
     </g>
     <g id="text_14">
      <!-- 12.5 -->
      <g transform="translate(42.734375 108.559219) scale(0.1 -0.1)">
       <use xlink:href="#DejaVuSans-31"/>
       <use xlink:href="#DejaVuSans-32" x="63.623047"/>
       <use xlink:href="#DejaVuSans-2e" x="127.246094"/>
       <use xlink:href="#DejaVuSans-35" x="159.033203"/>
      </g>
     </g>
    </g>
    <g id="ytick_9">
     <g id="line2d_15">
      <g>
       <use xlink:href="#m260d1a23c5" x="72" y="66.96" style="stroke: #000000; stroke-width: 0.8"/>
      </g>
     </g>
     <g id="text_15">
      <!-- 15.0 -->
      <g transform="translate(42.734375 70.759219) scale(0.1 -0.1)">
       <use xlink:href="#DejaVuSans-31"/>
       <use xlink:href="#DejaVuSans-35" x="63.623047"/>
       <use xlink:href="#DejaVuSans-2e" x="127.246094"/>
       <use xlink:href="#DejaVuSans-30" x="159.033203"/>
      </g>
     </g>
    </g>
   </g>
   <g id="line2d_16">
    <path d="M 92.290909 334.93176 
L 96.349091 334.928736 
L 100.407273 334.921176 
L 104.465455 334.90908 
L 108.523636 334.892448 
L 112.581818 334.87128 
L 116.64 334.844064 
L 120.698182 334.813824 
L 124.756364 334.777536 
L 128.814545 334.738224 
L 132.872727 334.694376 
L 136.930909 334.645992 
L 140.989091 334.594584 
L 145.047273 334.540152 
L 149.105455 334.481184 
L 153.163636 334.419192 
L 157.221818 334.355688 
L 161.28 334.28916 
L 165.338182 334.219608 
L 169.396364 334.150056 
L 173.454545 334.07748 
L 177.512727 334.004904 
L 181.570909 333.930816 
L 185.629091 333.856728 
L 189.687273 333.784152 
L 193.745455 333.711576 
L 197.803636 333.639 
L 201.861818 333.569448 
L 205.92 333.50292 
L 209.978182 333.437904 
L 214.036364 333.377424 
L 218.094545 333.319968 
L 222.152727 333.267048 
L 226.210909 333.218664 
L 230.269091 333.176328 
L 234.327273 333.14004 
L 238.385455 333.1098 
L 242.443636 333.085608 
L 246.501818 333.070488 
L 250.56 333.062928 
L 254.618182 333.062928 
L 258.676364 333.070488 
L 262.734545 333.088632 
L 266.792727 333.114336 
L 270.850909 333.149112 
L 274.909091 333.19296 
L 278.967273 333.247392 
L 283.025455 333.309384 
L 287.083636 333.380448 
L 291.141818 333.460584 
L 295.2 333.54828 
L 299.258182 333.645048 
L 303.316364 333.750888 
L 307.374545 333.862776 
L 311.432727 333.982224 
L 315.490909 334.10772 
L 319.549091 334.240776 
L 323.607273 334.378368 
L 327.665455 334.522008 
L 331.723636 334.670184 
L 335.781818 334.822896 
L 339.84 334.978632 
L 343.898182 335.137392 
L 347.956364 335.297664 
L 352.014545 335.46096 
L 356.072727 335.625768 
L 360.130909 335.792088 
L 364.189091 335.956896 
L 368.247273 336.123216 
L 372.305455 336.288024 
L 376.363636 336.452832 
L 380.421818 336.614616 
L 384.48 336.7764 
L 388.538182 336.93516 
L 392.596364 337.090896 
L 396.654545 337.243608 
L 400.712727 337.391784 
L 404.770909 337.538448 
L 408.829091 337.679064 
L 412.887273 337.816656 
L 416.945455 337.949712 
L 421.003636 338.07672 
L 425.061818 338.199192 
L 429.12 338.315616 
L 433.178182 338.427504 
L 437.236364 338.533344 
L 441.294545 338.633136 
L 445.352727 338.72688 
L 449.410909 338.813064 
L 453.469091 338.894712 
L 457.527273 338.9688 
L 461.585455 339.035328 
L 465.643636 339.09732 
L 469.701818 339.15024 
L 473.76 339.197112 
L 477.818182 339.236424 
L 481.876364 339.269688 
L 485.934545 339.295392 
L 489.992727 339.313536 
L 494.050909 339.32412 
L 498.109091 339.327144 
" clip-path="url(#p453bccb29d)" style="fill: none; stroke: #000000; stroke-opacity: 0.5; stroke-linecap: square"/>
   </g>
   <g id="line2d_17">
    <path d="M 92.290909 302.89248 
L 96.349091 302.895504 
L 100.407273 302.904576 
L 104.465455 302.919696 
L 108.523636 302.940864 
L 112.581818 302.966568 
L 116.64 302.999832 
L 120.698182 303.037632 
L 124.756364 303.08148 
L 128.814545 303.131376 
L 132.872727 303.18732 
L 136.930909 303.2478 
L 140.989091 303.314328 
L 145.047273 303.385392 
L 149.105455 303.462504 
L 153.163636 303.54264 
L 157.221818 303.628824 
L 161.28 303.719544 
L 165.338182 303.8148 
L 169.396364 303.911568 
L 173.454545 304.014384 
L 177.512727 304.1172 
L 181.570909 304.224552 
L 185.629091 304.333416 
L 189.687273 304.44228 
L 193.745455 304.552656 
L 197.803636 304.663032 
L 201.861818 304.771896 
L 205.92 304.88076 
L 209.978182 304.9866 
L 214.036364 305.089416 
L 218.094545 305.187696 
L 222.152727 305.282952 
L 226.210909 305.370648 
L 230.269091 305.453808 
L 234.327273 305.529408 
L 238.385455 305.597448 
L 242.443636 305.656416 
L 246.501818 305.706312 
L 250.56 305.745624 
L 254.618182 305.775864 
L 258.676364 305.792496 
L 262.734545 305.800056 
L 266.792727 305.794008 
L 270.850909 305.775864 
L 274.909091 305.745624 
L 278.967273 305.701776 
L 283.025455 305.64432 
L 287.083636 305.574768 
L 291.141818 305.49312 
L 295.2 305.397864 
L 299.258182 305.290512 
L 303.316364 305.172576 
L 307.374545 305.041032 
L 311.432727 304.898904 
L 315.490909 304.747704 
L 319.549091 304.584408 
L 323.607273 304.413552 
L 327.665455 304.233624 
L 331.723636 304.046136 
L 335.781818 303.851088 
L 339.84 303.649992 
L 343.898182 303.442848 
L 347.956364 303.23268 
L 352.014545 303.016464 
L 356.072727 302.798736 
L 360.130909 302.579496 
L 364.189091 302.358744 
L 368.247273 302.13648 
L 372.305455 301.915728 
L 376.363636 301.696488 
L 380.421818 301.477248 
L 384.48 301.262544 
L 388.538182 301.049352 
L 392.596364 300.840696 
L 396.654545 300.638088 
L 400.712727 300.438504 
L 404.770909 300.244968 
L 408.829091 300.058992 
L 412.887273 299.877552 
L 416.945455 299.703672 
L 421.003636 299.537352 
L 425.061818 299.378592 
L 429.12 299.227392 
L 433.178182 299.083752 
L 437.236364 298.949184 
L 441.294545 298.822176 
L 445.352727 298.70424 
L 449.410909 298.595376 
L 453.469091 298.494072 
L 457.527273 298.40184 
L 461.585455 298.31868 
L 465.643636 298.244592 
L 469.701818 298.178064 
L 473.76 298.12212 
L 477.818182 298.073736 
L 481.876364 298.034424 
L 485.934545 298.004184 
L 489.992727 297.981504 
L 494.050909 297.969408 
L 498.109091 297.964872 
" clip-path="url(#p453bccb29d)" style="fill: none; stroke: #000000; stroke-opacity: 0.5; stroke-linecap: square"/>
   </g>
   <g id="line2d_18">
    <path d="M 92.290909 251.478432 
L 96.349091 251.584272 
L 100.407273 251.867016 
L 104.465455 252.264672 
L 108.523636 252.725832 
L 112.581818 253.22328 
L 116.64 253.735848 
L 120.698182 254.257488 
L 124.756364 254.78064 
L 128.814545 255.297744 
L 132.872727 255.810312 
L 136.930909 256.312296 
L 140.989091 256.803696 
L 145.047273 257.281488 
L 149.105455 257.745672 
L 153.163636 258.194736 
L 157.221818 258.627168 
L 161.28 259.041456 
L 165.338182 259.439112 
L 169.396364 259.817112 
L 173.454545 260.176968 
L 177.512727 260.515656 
L 181.570909 260.8362 
L 185.629091 261.135576 
L 189.687273 261.416808 
L 193.745455 261.676872 
L 197.803636 261.915768 
L 201.861818 262.13652 
L 205.92 262.336104 
L 209.978182 262.517544 
L 214.036364 262.679328 
L 218.094545 262.821456 
L 222.152727 262.946952 
L 226.210909 263.054304 
L 230.269091 263.143512 
L 234.327273 263.2176 
L 238.385455 263.275056 
L 242.443636 263.317392 
L 246.501818 263.34612 
L 250.56 263.359728 
L 254.618182 263.36124 
L 258.676364 263.350656 
L 262.734545 263.329488 
L 266.792727 263.296224 
L 270.850909 263.2554 
L 274.909091 263.203992 
L 278.967273 263.145024 
L 283.025455 263.078496 
L 287.083636 263.00592 
L 291.141818 262.927296 
L 295.2 262.842624 
L 299.258182 262.751904 
L 303.316364 262.656648 
L 307.374545 262.558368 
L 311.432727 262.45404 
L 315.490909 262.346688 
L 319.549091 262.2348 
L 323.607273 262.118376 
L 327.665455 261.995904 
L 331.723636 261.870408 
L 335.781818 261.738864 
L 339.84 261.601272 
L 343.898182 261.457632 
L 347.956364 261.307944 
L 352.014545 261.149184 
L 356.072727 260.981352 
L 360.130909 260.80596 
L 364.189091 260.619984 
L 368.247273 260.423424 
L 372.305455 260.21628 
L 376.363636 259.995528 
L 380.421818 259.764192 
L 384.48 259.517736 
L 388.538182 259.259184 
L 392.596364 258.985512 
L 396.654545 258.69672 
L 400.712727 258.39432 
L 404.770909 258.0768 
L 408.829091 257.74416 
L 412.887273 257.394888 
L 416.945455 257.032008 
L 421.003636 256.654008 
L 425.061818 256.260888 
L 429.12 255.85416 
L 433.178182 255.433824 
L 437.236364 255.001392 
L 441.294545 254.555352 
L 445.352727 254.10024 
L 449.410909 253.634544 
L 453.469091 253.159776 
L 457.527273 252.67896 
L 461.585455 252.192096 
L 465.643636 251.705232 
L 469.701818 251.216856 
L 473.76 250.734528 
L 477.818182 250.264296 
L 481.876364 249.812208 
L 485.934545 249.396408 
L 489.992727 249.041088 
L 494.050909 248.790096 
L 498.109091 248.696352 
" clip-path="url(#p453bccb29d)" style="fill: none; stroke: #000000; stroke-opacity: 0.5; stroke-linecap: square"/>
   </g>
   <g id="line2d_19">
    <path d="M 92.290909 248.242752 
L 96.349091 248.139936 
L 100.407273 247.861728 
L 104.465455 247.473144 
L 108.523636 247.025592 
L 112.581818 246.5478 
L 116.64 246.057912 
L 120.698182 245.566512 
L 124.756364 245.082672 
L 128.814545 244.609416 
L 132.872727 244.152792 
L 136.930909 243.715824 
L 140.989091 243.301536 
L 145.047273 242.91144 
L 149.105455 242.550072 
L 153.163636 242.218944 
L 157.221818 241.916544 
L 161.28 241.647408 
L 165.338182 241.411536 
L 169.396364 241.208928 
L 173.454545 241.041096 
L 177.512727 240.905016 
L 181.570909 240.803712 
L 185.629091 240.732648 
L 189.687273 240.694848 
L 193.745455 240.684264 
L 197.803636 240.702408 
L 201.861818 240.746256 
L 205.92 240.815808 
L 209.978182 240.905016 
L 214.036364 241.01388 
L 218.094545 241.140888 
L 222.152727 241.283016 
L 226.210909 241.43724 
L 230.269091 241.602048 
L 234.327273 241.775928 
L 238.385455 241.954344 
L 242.443636 242.135784 
L 246.501818 242.320248 
L 250.56 242.504712 
L 254.618182 242.68464 
L 258.676364 242.863056 
L 262.734545 243.033912 
L 266.792727 243.197208 
L 270.850909 243.352944 
L 274.909091 243.496584 
L 278.967273 243.62964 
L 283.025455 243.749088 
L 287.083636 243.853416 
L 291.141818 243.944136 
L 295.2 244.018224 
L 299.258182 244.077192 
L 303.316364 244.118016 
L 307.374545 244.140696 
L 311.432727 244.148256 
L 315.490909 244.13616 
L 319.549091 244.107432 
L 323.607273 244.062072 
L 327.665455 244.00008 
L 331.723636 243.922968 
L 335.781818 243.829224 
L 339.84 243.723384 
L 343.898182 243.603936 
L 347.956364 243.473904 
L 352.014545 243.3348 
L 356.072727 243.186624 
L 360.130909 243.0324 
L 364.189091 242.87364 
L 368.247273 242.713368 
L 372.305455 242.553096 
L 376.363636 242.392824 
L 380.421818 242.2386 
L 384.48 242.090424 
L 388.538182 241.95132 
L 392.596364 241.824312 
L 396.654545 241.7094 
L 400.712727 241.61112 
L 404.770909 241.532496 
L 408.829091 241.473528 
L 412.887273 241.43724 
L 416.945455 241.425144 
L 421.003636 241.440264 
L 425.061818 241.4826 
L 429.12 241.553664 
L 433.178182 241.654968 
L 437.236364 241.786512 
L 441.294545 241.948296 
L 445.352727 242.14032 
L 449.410909 242.362584 
L 453.469091 242.613576 
L 457.527273 242.893296 
L 461.585455 243.197208 
L 465.643636 243.5238 
L 469.701818 243.868536 
L 473.76 244.229904 
L 477.818182 244.598832 
L 481.876364 244.96776 
L 485.934545 245.320056 
L 489.992727 245.630016 
L 494.050909 245.853792 
L 498.109091 245.938464 
" clip-path="url(#p453bccb29d)" style="fill: none; stroke: #000000; stroke-opacity: 0.5; stroke-linecap: square"/>
   </g>
   <g id="line2d_20">
    <path d="M 92.290909 182.519136 
L 96.349091 182.603808 
L 100.407273 182.83968 
L 104.465455 183.184416 
L 108.523636 183.59568 
L 112.581818 184.037184 
L 116.64 184.481712 
L 120.698182 184.914144 
L 124.756364 185.31936 
L 128.814545 185.6898 
L 132.872727 186.019416 
L 136.930909 186.300648 
L 140.989091 186.530472 
L 145.047273 186.705864 
L 149.105455 186.822288 
L 153.163636 186.879744 
L 157.221818 186.873696 
L 161.28 186.804144 
L 165.338182 186.669576 
L 169.396364 186.469992 
L 173.454545 186.20388 
L 177.512727 185.87124 
L 181.570909 185.475096 
L 185.629091 185.012424 
L 189.687273 184.48776 
L 193.745455 183.899592 
L 197.803636 183.250944 
L 201.861818 182.543328 
L 205.92 181.779768 
L 209.978182 180.960264 
L 214.036364 180.08784 
L 218.094545 179.164008 
L 222.152727 178.193304 
L 226.210909 177.175728 
L 230.269091 176.112792 
L 234.327273 175.00752 
L 238.385455 173.862936 
L 242.443636 172.680552 
L 246.501818 171.46188 
L 250.56 170.208432 
L 254.618182 168.92172 
L 258.676364 167.604768 
L 262.734545 166.259088 
L 266.792727 164.88468 
L 270.850909 163.48608 
L 274.909091 162.063288 
L 278.967273 160.619328 
L 283.025455 159.155712 
L 287.083636 157.68 
L 291.141818 156.199752 
L 295.2 154.751256 
L 299.258182 153.525024 
L 303.316364 153.677736 
L 307.374545 154.975032 
L 311.432727 156.431088 
L 315.490909 157.908312 
L 319.549091 159.381 
L 323.607273 160.837056 
L 327.665455 162.27648 
L 331.723636 163.693224 
L 335.781818 165.087288 
L 339.84 166.455648 
L 343.898182 167.798304 
L 347.956364 169.112232 
L 352.014545 170.397432 
L 356.072727 171.649368 
L 360.130909 172.869552 
L 364.189091 174.05496 
L 368.247273 175.20408 
L 372.305455 176.3154 
L 376.363636 177.385896 
L 380.421818 178.415568 
L 384.48 179.39988 
L 388.538182 180.338832 
L 392.596364 181.230912 
L 396.654545 182.073096 
L 400.712727 182.86236 
L 404.770909 183.598704 
L 408.829091 184.279104 
L 412.887273 184.90356 
L 416.945455 185.469048 
L 421.003636 185.974056 
L 425.061818 186.420096 
L 429.12 186.804144 
L 433.178182 187.1262 
L 437.236364 187.387776 
L 441.294545 187.588872 
L 445.352727 187.731 
L 449.410909 187.81416 
L 453.469091 187.8444 
L 457.527273 187.823232 
L 461.585455 187.755192 
L 465.643636 187.644816 
L 469.701818 187.501176 
L 473.76 187.333344 
L 477.818182 187.150392 
L 481.876364 186.96744 
L 485.934545 186.798096 
L 489.992727 186.660504 
L 494.050909 186.571296 
L 498.109091 186.539544 
" clip-path="url(#p453bccb29d)" style="fill: none; stroke: #000000; stroke-opacity: 0.5; stroke-linecap: square"/>
   </g>
   <g id="line2d_21">
    <path d="M 92.290909 175.758984 
L 96.349091 175.636512 
L 100.407273 175.285728 
L 104.465455 174.747456 
L 108.523636 174.065544 
L 112.581818 173.274768 
L 116.64 172.402344 
L 120.698182 171.463392 
L 124.756364 170.468496 
L 128.814545 169.42824 
L 132.872727 168.345648 
L 136.930909 167.22828 
L 140.989091 166.076136 
L 145.047273 164.895264 
L 149.105455 163.684152 
L 153.163636 162.447336 
L 157.221818 161.186328 
L 161.28 159.899616 
L 165.338182 158.591736 
L 169.396364 157.262688 
L 173.454545 155.912472 
L 177.512727 154.5426 
L 181.570909 153.154584 
L 185.629091 151.746912 
L 189.687273 150.32412 
L 193.745455 148.886208 
L 197.803636 147.431664 
L 201.861818 145.965024 
L 205.92 144.486288 
L 209.978182 142.996968 
L 214.036364 141.5016 
L 218.094545 140.001696 
L 222.152727 138.506328 
L 226.210909 137.02608 
L 230.269091 135.579096 
L 234.327273 134.210736 
L 238.385455 133.01172 
L 242.443636 132.204312 
L 246.501818 132.137784 
L 250.56 132.884712 
L 254.618182 134.120016 
L 258.676364 135.57456 
L 262.734545 137.127384 
L 266.792727 138.724056 
L 270.850909 140.340384 
L 274.909091 141.96276 
L 278.967273 143.583624 
L 283.025455 145.195416 
L 287.083636 146.792088 
L 291.141818 148.360032 
L 295.2 149.869008 
L 299.258182 151.122456 
L 303.316364 150.96672 
L 307.374545 149.63616 
L 311.432727 148.118112 
L 315.490909 146.55168 
L 319.549091 144.967104 
L 323.607273 143.379504 
L 327.665455 141.800976 
L 331.723636 140.257224 
L 335.781818 138.793608 
L 339.84 137.520504 
L 343.898182 136.694952 
L 347.956364 136.69344 
L 352.014545 137.47968 
L 356.072727 138.672648 
L 360.130909 140.033448 
L 364.189091 141.466824 
L 368.247273 142.93044 
L 372.305455 144.40464 
L 376.363636 145.87884 
L 380.421818 147.346992 
L 384.48 148.80456 
L 388.538182 150.250032 
L 392.596364 151.680384 
L 396.654545 153.095616 
L 400.712727 154.492704 
L 404.770909 155.871648 
L 408.829091 157.229424 
L 412.887273 158.566032 
L 416.945455 159.881472 
L 421.003636 161.17272 
L 425.061818 162.438264 
L 429.12 163.678104 
L 433.178182 164.890728 
L 437.236364 166.073112 
L 441.294545 167.225256 
L 445.352727 168.342624 
L 449.410909 169.423704 
L 453.469091 170.466984 
L 457.527273 171.464904 
L 461.585455 172.417464 
L 465.643636 173.315592 
L 469.701818 174.15324 
L 473.76 174.922848 
L 477.818182 175.613832 
L 481.876364 176.212584 
L 485.934545 176.703984 
L 489.992727 177.069888 
L 494.050909 177.2982 
L 498.109091 177.376824 
" clip-path="url(#p453bccb29d)" style="fill: none; stroke: #000000; stroke-opacity: 0.5; stroke-linecap: square"/>
   </g>
   <g id="line2d_22">
    <path d="M 92.290909 95.716728 
L 96.349091 95.715216 
L 100.407273 95.709168 
L 104.465455 95.701608 
L 108.523636 95.688 
L 112.581818 95.67288 
L 116.64 95.653224 
L 120.698182 95.630544 
L 124.756364 95.60484 
L 128.814545 95.576112 
L 132.872727 95.54436 
L 136.930909 95.509584 
L 140.989091 95.471784 
L 145.047273 95.43096 
L 149.105455 95.387112 
L 153.163636 95.34024 
L 157.221818 95.293368 
L 161.28 95.24196 
L 165.338182 95.190552 
L 169.396364 95.161824 
L 173.454545 96.911208 
L 177.512727 98.69688 
L 181.570909 100.490112 
L 185.629091 102.286368 
L 189.687273 104.085648 
L 193.745455 105.88644 
L 197.803636 107.68572 
L 201.861818 109.480464 
L 205.92 111.272184 
L 209.978182 113.054832 
L 214.036364 114.825384 
L 218.094545 116.580816 
L 222.152727 118.313568 
L 226.210909 120.013056 
L 230.269091 121.658112 
L 234.327273 123.2064 
L 238.385455 124.564176 
L 242.443636 125.510688 
L 246.501818 125.698176 
L 250.56 125.05104 
L 254.618182 123.897384 
L 258.676364 122.507856 
L 262.734545 121.004928 
L 266.792727 119.447568 
L 270.850909 117.867528 
L 274.909091 116.292024 
L 278.967273 114.767928 
L 283.025455 113.384448 
L 287.083636 112.394088 
L 291.141818 112.277664 
L 295.2 113.130432 
L 299.258182 114.477624 
L 303.316364 116.012304 
L 307.374545 117.622584 
L 311.432727 119.26008 
L 315.490909 120.903624 
L 319.549091 122.539608 
L 323.607273 124.155936 
L 327.665455 125.739 
L 331.723636 127.26612 
L 335.781818 128.688912 
L 339.84 129.900024 
L 343.898182 130.63788 
L 347.956364 130.529016 
L 352.014545 129.60972 
L 356.072727 128.261016 
L 360.130909 126.7218 
L 364.189091 125.087328 
L 368.247273 123.399936 
L 372.305455 121.680792 
L 376.363636 119.94048 
L 380.421818 118.185048 
L 384.48 116.419032 
L 388.538182 114.643944 
L 392.596364 112.86432 
L 396.654545 111.081672 
L 400.712727 109.297512 
L 404.770909 107.514864 
L 408.829091 105.73524 
L 412.887273 103.960152 
L 416.945455 102.192624 
L 421.003636 100.43568 
L 425.061818 98.692344 
L 429.12 96.971688 
L 433.178182 95.29488 
L 437.236364 93.900816 
L 441.294545 93.605976 
L 445.352727 93.58632 
L 449.410909 93.592368 
L 453.469091 93.604464 
L 457.527273 93.619584 
L 461.585455 93.633192 
L 465.643636 93.6468 
L 469.701818 93.660408 
L 473.76 93.670992 
L 477.818182 93.681576 
L 481.876364 93.689136 
L 485.934545 93.695184 
L 489.992727 93.69972 
L 494.050909 93.702744 
L 498.109091 93.704256 
" clip-path="url(#p453bccb29d)" style="fill: none; stroke: #000000; stroke-opacity: 0.5; stroke-linecap: square"/>
   </g>
   <g id="line2d_23">
    <path d="M 92.290909 71.270712 
L 96.349091 71.379576 
L 100.407273 71.704656 
L 104.465455 72.235368 
L 108.523636 72.953568 
L 112.581818 73.842624 
L 116.64 74.881368 
L 120.698182 76.048632 
L 124.756364 77.32476 
L 128.814545 78.694632 
L 132.872727 80.143128 
L 136.930909 81.65664 
L 140.989091 83.226096 
L 145.047273 84.8394 
L 149.105455 86.492016 
L 153.163636 88.176384 
L 157.221818 89.886456 
L 161.28 91.619208 
L 165.338182 93.370104 
L 169.396364 95.108904 
L 173.454545 95.078664 
L 177.512727 95.02272 
L 181.570909 94.963752 
L 185.629091 94.904784 
L 189.687273 94.845816 
L 193.745455 94.785336 
L 197.803636 94.726368 
L 201.861818 94.6674 
L 205.92 94.608432 
L 209.978182 94.552488 
L 214.036364 94.499568 
L 218.094545 94.449672 
L 222.152727 94.404312 
L 226.210909 94.366512 
L 230.269091 94.337784 
L 234.327273 94.325688 
L 238.385455 94.336272 
L 242.443636 94.384656 
L 246.501818 94.507128 
L 250.56 94.770216 
L 254.618182 95.313024 
L 258.676364 96.27768 
L 262.734545 97.620336 
L 266.792727 99.168624 
L 270.850909 100.79856 
L 274.909091 102.43908 
L 278.967273 104.025168 
L 283.025455 105.457032 
L 287.083636 106.479144 
L 291.141818 106.610688 
L 295.2 105.751872 
L 299.258182 104.377464 
L 303.316364 102.795912 
L 307.374545 101.122128 
L 311.432727 99.406008 
L 315.490909 97.680816 
L 319.549091 96.000984 
L 323.607273 94.522248 
L 327.665455 93.62412 
L 331.723636 93.29148 
L 335.781818 93.164472 
L 339.84 93.103992 
L 343.898182 93.073752 
L 347.956364 93.058632 
L 352.014545 93.051072 
L 356.072727 93.052584 
L 360.130909 93.05712 
L 364.189091 93.066192 
L 368.247273 93.078288 
L 372.305455 93.093408 
L 376.363636 93.11004 
L 380.421818 93.129696 
L 384.48 93.150864 
L 388.538182 93.173544 
L 392.596364 93.196224 
L 396.654545 93.220416 
L 400.712727 93.244608 
L 404.770909 93.270312 
L 408.829091 93.296016 
L 412.887273 93.320208 
L 416.945455 93.3444 
L 421.003636 93.365568 
L 425.061818 93.385224 
L 429.12 93.395808 
L 433.178182 93.379176 
L 437.236364 93.100968 
L 441.294545 91.747728 
L 445.352727 90.151056 
L 449.410909 88.563456 
L 453.469091 87.013656 
L 457.527273 85.513752 
L 461.585455 84.077352 
L 465.643636 82.71504 
L 469.701818 81.44496 
L 473.76 80.28072 
L 477.818182 79.243488 
L 481.876364 78.35292 
L 485.934545 77.630184 
L 489.992727 77.09796 
L 494.050909 76.769856 
L 498.109091 76.65948 
" clip-path="url(#p453bccb29d)" style="fill: none; stroke: #000000; stroke-opacity: 0.5; stroke-linecap: square"/>
   </g>
   <g id="patch_3">
    <path d="M 72 384.48 
L 72 51.84 
" style="fill: none; stroke: #000000; stroke-width: 0.8; stroke-linejoin: miter; stroke-linecap: square"/>
   </g>
   <g id="patch_4">
    <path d="M 518.4 384.48 
L 518.4 51.84 
" style="fill: none; stroke: #000000; stroke-width: 0.8; stroke-linejoin: miter; stroke-linecap: square"/>
   </g>
   <g id="patch_5">
    <path d="M 72 384.48 
L 518.4 384.48 
" style="fill: none; stroke: #000000; stroke-width: 0.8; stroke-linejoin: miter; stroke-linecap: square"/>
   </g>
   <g id="patch_6">
    <path d="M 72 51.84 
L 518.4 51.84 
" style="fill: none; stroke: #000000; stroke-width: 0.8; stroke-linejoin: miter; stroke-linecap: square"/>
   </g>
  </g>
 </g>
 <defs>
  <clipPath id="p453bccb29d">
   <rect x="72" y="51.84" width="446.4" height="332.64"/>
  </clipPath>
 </defs>
</svg>
