<?xml version="1.0" encoding="utf-8" standalone="no"?>
<!DOCTYPE svg PUBLIC "-//W3C//DTD SVG 1.1//EN"
  "http://www.w3.org/Graphics/SVG/1.1/DTD/svg11.dtd">
<svg xmlns:xlink="http://www.w3.org/1999/xlink" width="576pt" height="432pt" viewBox="0 0 576 432" xmlns="http://www.w3.org/2000/svg" version="1.1">
 <metadata>
  <rdf:RDF xmlns:dc="http://purl.org/dc/elements/1.1/" xmlns:cc="http://creativecommons.org/ns#" xmlns:rdf="http://www.w3.org/1999/02/22-rdf-syntax-ns#">
   <cc:Work>
    <dc:type rdf:resource="http://purl.org/dc/dcmitype/StillImage"/>
    <dc:date>2023-05-04T14:35:12.824908</dc:date>
    <dc:format>image/svg+xml</dc:format>
    <dc:creator>
     <cc:Agent>
      <dc:title>Matplotlib v3.7.1, https://matplotlib.org/</dc:title>
     </cc:Agent>
    </dc:creator>
   </cc:Work>
  </rdf:RDF>
 </metadata>
 <defs>
  <style type="text/css">*{stroke-linejoin: round; stroke-linecap: butt}</style>
 </defs>
 <g id="figure_1">
  <g id="patch_1">
   <path d="M 0 432 
L 576 432 
L 576 0 
L 0 0 
z
" style="fill: #ffffff"/>
  </g>
  <g id="axes_1">
   <g id="patch_2">
    <path d="M 72 384.48 
L 518.4 384.48 
L 518.4 51.84 
L 72 51.84 
z
" style="fill: #ffffff"/>
   </g>
   <g id="matplotlib.axis_1">
    <g id="xtick_1">
     <g id="line2d_1">
      <defs>
       <path id="m6671b8dcde" d="M 0 0 
L 0 3.5 
" style="stroke: #000000; stroke-width: 0.8"/>
      </defs>
      <g>
       <use xlink:href="#m6671b8dcde" x="92.290909" y="384.48" style="stroke: #000000; stroke-width: 0.8"/>
      </g>
     </g>
     <g id="text_1">
      <!-- 0.0 -->
      <g transform="translate(84.339347 399.078438) scale(0.1 -0.1)">
       <defs>
        <path id="DejaVuSans-30" d="M 2034 4250 
Q 1547 4250 1301 3770 
Q 1056 3291 1056 2328 
Q 1056 1369 1301 889 
Q 1547 409 2034 409 
Q 2525 409 2770 889 
Q 3016 1369 3016 2328 
Q 3016 3291 2770 3770 
Q 2525 4250 2034 4250 
z
M 2034 4750 
Q 2819 4750 3233 4129 
Q 3647 3509 3647 2328 
Q 3647 1150 3233 529 
Q 2819 -91 2034 -91 
Q 1250 -91 836 529 
Q 422 1150 422 2328 
Q 422 3509 836 4129 
Q 1250 4750 2034 4750 
z
" transform="scale(0.015625)"/>
        <path id="DejaVuSans-2e" d="M 684 794 
L 1344 794 
L 1344 0 
L 684 0 
L 684 794 
z
" transform="scale(0.015625)"/>
       </defs>
       <use xlink:href="#DejaVuSans-30"/>
       <use xlink:href="#DejaVuSans-2e" x="63.623047"/>
       <use xlink:href="#DejaVuSans-30" x="95.410156"/>
      </g>
     </g>
    </g>
    <g id="xtick_2">
     <g id="line2d_2">
      <g>
       <use xlink:href="#m6671b8dcde" x="173.454545" y="384.48" style="stroke: #000000; stroke-width: 0.8"/>
      </g>
     </g>
     <g id="text_2">
      <!-- 0.2 -->
      <g transform="translate(165.502983 399.078438) scale(0.1 -0.1)">
       <defs>
        <path id="DejaVuSans-32" d="M 1228 531 
L 3431 531 
L 3431 0 
L 469 0 
L 469 531 
Q 828 903 1448 1529 
Q 2069 2156 2228 2338 
Q 2531 2678 2651 2914 
Q 2772 3150 2772 3378 
Q 2772 3750 2511 3984 
Q 2250 4219 1831 4219 
Q 1534 4219 1204 4116 
Q 875 4013 500 3803 
L 500 4441 
Q 881 4594 1212 4672 
Q 1544 4750 1819 4750 
Q 2544 4750 2975 4387 
Q 3406 4025 3406 3419 
Q 3406 3131 3298 2873 
Q 3191 2616 2906 2266 
Q 2828 2175 2409 1742 
Q 1991 1309 1228 531 
z
" transform="scale(0.015625)"/>
       </defs>
       <use xlink:href="#DejaVuSans-30"/>
       <use xlink:href="#DejaVuSans-2e" x="63.623047"/>
       <use xlink:href="#DejaVuSans-32" x="95.410156"/>
      </g>
     </g>
    </g>
    <g id="xtick_3">
     <g id="line2d_3">
      <g>
       <use xlink:href="#m6671b8dcde" x="254.618182" y="384.48" style="stroke: #000000; stroke-width: 0.8"/>
      </g>
     </g>
     <g id="text_3">
      <!-- 0.4 -->
      <g transform="translate(246.666619 399.078438) scale(0.1 -0.1)">
       <defs>
        <path id="DejaVuSans-34" d="M 2419 4116 
L 825 1625 
L 2419 1625 
L 2419 4116 
z
M 2253 4666 
L 3047 4666 
L 3047 1625 
L 3713 1625 
L 3713 1100 
L 3047 1100 
L 3047 0 
L 2419 0 
L 2419 1100 
L 313 1100 
L 313 1709 
L 2253 4666 
z
" transform="scale(0.015625)"/>
       </defs>
       <use xlink:href="#DejaVuSans-30"/>
       <use xlink:href="#DejaVuSans-2e" x="63.623047"/>
       <use xlink:href="#DejaVuSans-34" x="95.410156"/>
      </g>
     </g>
    </g>
    <g id="xtick_4">
     <g id="line2d_4">
      <g>
       <use xlink:href="#m6671b8dcde" x="335.781818" y="384.48" style="stroke: #000000; stroke-width: 0.8"/>
      </g>
     </g>
     <g id="text_4">
      <!-- 0.6 -->
      <g transform="translate(327.830256 399.078438) scale(0.1 -0.1)">
       <defs>
        <path id="DejaVuSans-36" d="M 2113 2584 
Q 1688 2584 1439 2293 
Q 1191 2003 1191 1497 
Q 1191 994 1439 701 
Q 1688 409 2113 409 
Q 2538 409 2786 701 
Q 3034 994 3034 1497 
Q 3034 2003 2786 2293 
Q 2538 2584 2113 2584 
z
M 3366 4563 
L 3366 3988 
Q 3128 4100 2886 4159 
Q 2644 4219 2406 4219 
Q 1781 4219 1451 3797 
Q 1122 3375 1075 2522 
Q 1259 2794 1537 2939 
Q 1816 3084 2150 3084 
Q 2853 3084 3261 2657 
Q 3669 2231 3669 1497 
Q 3669 778 3244 343 
Q 2819 -91 2113 -91 
Q 1303 -91 875 529 
Q 447 1150 447 2328 
Q 447 3434 972 4092 
Q 1497 4750 2381 4750 
Q 2619 4750 2861 4703 
Q 3103 4656 3366 4563 
z
" transform="scale(0.015625)"/>
       </defs>
       <use xlink:href="#DejaVuSans-30"/>
       <use xlink:href="#DejaVuSans-2e" x="63.623047"/>
       <use xlink:href="#DejaVuSans-36" x="95.410156"/>
      </g>
     </g>
    </g>
    <g id="xtick_5">
     <g id="line2d_5">
      <g>
       <use xlink:href="#m6671b8dcde" x="416.945455" y="384.48" style="stroke: #000000; stroke-width: 0.8"/>
      </g>
     </g>
     <g id="text_5">
      <!-- 0.8 -->
      <g transform="translate(408.993892 399.078438) scale(0.1 -0.1)">
       <defs>
        <path id="DejaVuSans-38" d="M 2034 2216 
Q 1584 2216 1326 1975 
Q 1069 1734 1069 1313 
Q 1069 891 1326 650 
Q 1584 409 2034 409 
Q 2484 409 2743 651 
Q 3003 894 3003 1313 
Q 3003 1734 2745 1975 
Q 2488 2216 2034 2216 
z
M 1403 2484 
Q 997 2584 770 2862 
Q 544 3141 544 3541 
Q 544 4100 942 4425 
Q 1341 4750 2034 4750 
Q 2731 4750 3128 4425 
Q 3525 4100 3525 3541 
Q 3525 3141 3298 2862 
Q 3072 2584 2669 2484 
Q 3125 2378 3379 2068 
Q 3634 1759 3634 1313 
Q 3634 634 3220 271 
Q 2806 -91 2034 -91 
Q 1263 -91 848 271 
Q 434 634 434 1313 
Q 434 1759 690 2068 
Q 947 2378 1403 2484 
z
M 1172 3481 
Q 1172 3119 1398 2916 
Q 1625 2713 2034 2713 
Q 2441 2713 2670 2916 
Q 2900 3119 2900 3481 
Q 2900 3844 2670 4047 
Q 2441 4250 2034 4250 
Q 1625 4250 1398 4047 
Q 1172 3844 1172 3481 
z
" transform="scale(0.015625)"/>
       </defs>
       <use xlink:href="#DejaVuSans-30"/>
       <use xlink:href="#DejaVuSans-2e" x="63.623047"/>
       <use xlink:href="#DejaVuSans-38" x="95.410156"/>
      </g>
     </g>
    </g>
    <g id="xtick_6">
     <g id="line2d_6">
      <g>
       <use xlink:href="#m6671b8dcde" x="498.109091" y="384.48" style="stroke: #000000; stroke-width: 0.8"/>
      </g>
     </g>
     <g id="text_6">
      <!-- 1.0 -->
      <g transform="translate(490.157528 399.078438) scale(0.1 -0.1)">
       <defs>
        <path id="DejaVuSans-31" d="M 794 531 
L 1825 531 
L 1825 4091 
L 703 3866 
L 703 4441 
L 1819 4666 
L 2450 4666 
L 2450 531 
L 3481 531 
L 3481 0 
L 794 0 
L 794 531 
z
" transform="scale(0.015625)"/>
       </defs>
       <use xlink:href="#DejaVuSans-31"/>
       <use xlink:href="#DejaVuSans-2e" x="63.623047"/>
       <use xlink:href="#DejaVuSans-30" x="95.410156"/>
      </g>
     </g>
    </g>
   </g>
   <g id="matplotlib.axis_2">
    <g id="ytick_1">
     <g id="line2d_7">
      <defs>
       <path id="m04945c46e0" d="M 0 0 
L -3.5 0 
" style="stroke: #000000; stroke-width: 0.8"/>
      </defs>
      <g>
       <use xlink:href="#m04945c46e0" x="72" y="369.36" style="stroke: #000000; stroke-width: 0.8"/>
      </g>
     </g>
     <g id="text_7">
      <!-- −5.0 -->
      <g transform="translate(40.717187 373.159219) scale(0.1 -0.1)">
       <defs>
        <path id="DejaVuSans-2212" d="M 678 2272 
L 4684 2272 
L 4684 1741 
L 678 1741 
L 678 2272 
z
" transform="scale(0.015625)"/>
        <path id="DejaVuSans-35" d="M 691 4666 
L 3169 4666 
L 3169 4134 
L 1269 4134 
L 1269 2991 
Q 1406 3038 1543 3061 
Q 1681 3084 1819 3084 
Q 2600 3084 3056 2656 
Q 3513 2228 3513 1497 
Q 3513 744 3044 326 
Q 2575 -91 1722 -91 
Q 1428 -91 1123 -41 
Q 819 9 494 109 
L 494 744 
Q 775 591 1075 516 
Q 1375 441 1709 441 
Q 2250 441 2565 725 
Q 2881 1009 2881 1497 
Q 2881 1984 2565 2268 
Q 2250 2553 1709 2553 
Q 1456 2553 1204 2497 
Q 953 2441 691 2322 
L 691 4666 
z
" transform="scale(0.015625)"/>
       </defs>
       <use xlink:href="#DejaVuSans-2212"/>
       <use xlink:href="#DejaVuSans-35" x="83.789062"/>
       <use xlink:href="#DejaVuSans-2e" x="147.412109"/>
       <use xlink:href="#DejaVuSans-30" x="179.199219"/>
      </g>
     </g>
    </g>
    <g id="ytick_2">
     <g id="line2d_8">
      <g>
       <use xlink:href="#m04945c46e0" x="72" y="331.56" style="stroke: #000000; stroke-width: 0.8"/>
      </g>
     </g>
     <g id="text_8">
      <!-- −2.5 -->
      <g transform="translate(40.717187 335.359219) scale(0.1 -0.1)">
       <use xlink:href="#DejaVuSans-2212"/>
       <use xlink:href="#DejaVuSans-32" x="83.789062"/>
       <use xlink:href="#DejaVuSans-2e" x="147.412109"/>
       <use xlink:href="#DejaVuSans-35" x="179.199219"/>
      </g>
     </g>
    </g>
    <g id="ytick_3">
     <g id="line2d_9">
      <g>
       <use xlink:href="#m04945c46e0" x="72" y="293.76" style="stroke: #000000; stroke-width: 0.8"/>
      </g>
     </g>
     <g id="text_9">
      <!-- 0.0 -->
      <g transform="translate(49.096875 297.559219) scale(0.1 -0.1)">
       <use xlink:href="#DejaVuSans-30"/>
       <use xlink:href="#DejaVuSans-2e" x="63.623047"/>
       <use xlink:href="#DejaVuSans-30" x="95.410156"/>
      </g>
     </g>
    </g>
    <g id="ytick_4">
     <g id="line2d_10">
      <g>
       <use xlink:href="#m04945c46e0" x="72" y="255.96" style="stroke: #000000; stroke-width: 0.8"/>
      </g>
     </g>
     <g id="text_10">
      <!-- 2.5 -->
      <g transform="translate(49.096875 259.759219) scale(0.1 -0.1)">
       <use xlink:href="#DejaVuSans-32"/>
       <use xlink:href="#DejaVuSans-2e" x="63.623047"/>
       <use xlink:href="#DejaVuSans-35" x="95.410156"/>
      </g>
     </g>
    </g>
    <g id="ytick_5">
     <g id="line2d_11">
      <g>
       <use xlink:href="#m04945c46e0" x="72" y="218.16" style="stroke: #000000; stroke-width: 0.8"/>
      </g>
     </g>
     <g id="text_11">
      <!-- 5.0 -->
      <g transform="translate(49.096875 221.959219) scale(0.1 -0.1)">
       <use xlink:href="#DejaVuSans-35"/>
       <use xlink:href="#DejaVuSans-2e" x="63.623047"/>
       <use xlink:href="#DejaVuSans-30" x="95.410156"/>
      </g>
     </g>
    </g>
    <g id="ytick_6">
     <g id="line2d_12">
      <g>
       <use xlink:href="#m04945c46e0" x="72" y="180.36" style="stroke: #000000; stroke-width: 0.8"/>
      </g>
     </g>
     <g id="text_12">
      <!-- 7.5 -->
      <g transform="translate(49.096875 184.159219) scale(0.1 -0.1)">
       <defs>
        <path id="DejaVuSans-37" d="M 525 4666 
L 3525 4666 
L 3525 4397 
L 1831 0 
L 1172 0 
L 2766 4134 
L 525 4134 
L 525 4666 
z
" transform="scale(0.015625)"/>
       </defs>
       <use xlink:href="#DejaVuSans-37"/>
       <use xlink:href="#DejaVuSans-2e" x="63.623047"/>
       <use xlink:href="#DejaVuSans-35" x="95.410156"/>
      </g>
     </g>
    </g>
    <g id="ytick_7">
     <g id="line2d_13">
      <g>
       <use xlink:href="#m04945c46e0" x="72" y="142.56" style="stroke: #000000; stroke-width: 0.8"/>
      </g>
     </g>
     <g id="text_13">
      <!-- 10.0 -->
      <g transform="translate(42.734375 146.359219) scale(0.1 -0.1)">
       <use xlink:href="#DejaVuSans-31"/>
       <use xlink:href="#DejaVuSans-30" x="63.623047"/>
       <use xlink:href="#DejaVuSans-2e" x="127.246094"/>
       <use xlink:href="#DejaVuSans-30" x="159.033203"/>
      </g>
     </g>
    </g>
    <g id="ytick_8">
     <g id="line2d_14">
      <g>
       <use xlink:href="#m04945c46e0" x="72" y="104.76" style="stroke: #000000; stroke-width: 0.8"/>
      </g>
     </g>
     <g id="text_14">
      <!-- 12.5 -->
      <g transform="translate(42.734375 108.559219) scale(0.1 -0.1)">
       <use xlink:href="#DejaVuSans-31"/>
       <use xlink:href="#DejaVuSans-32" x="63.623047"/>
       <use xlink:href="#DejaVuSans-2e" x="127.246094"/>
       <use xlink:href="#DejaVuSans-35" x="159.033203"/>
      </g>
     </g>
    </g>
    <g id="ytick_9">
     <g id="line2d_15">
      <g>
       <use xlink:href="#m04945c46e0" x="72" y="66.96" style="stroke: #000000; stroke-width: 0.8"/>
      </g>
     </g>
     <g id="text_15">
      <!-- 15.0 -->
      <g transform="translate(42.734375 70.759219) scale(0.1 -0.1)">
       <use xlink:href="#DejaVuSans-31"/>
       <use xlink:href="#DejaVuSans-35" x="63.623047"/>
       <use xlink:href="#DejaVuSans-2e" x="127.246094"/>
       <use xlink:href="#DejaVuSans-30" x="159.033203"/>
      </g>
     </g>
    </g>
   </g>
   <g id="line2d_16">
    <path d="M 92.290909 323.15328 
L 96.349091 323.15328 
L 100.407273 323.154792 
L 104.465455 323.156304 
L 108.523636 323.16084 
L 112.581818 323.165376 
L 116.64 323.169912 
L 120.698182 323.177472 
L 124.756364 323.185032 
L 128.814545 323.195616 
L 132.872727 323.2062 
L 136.930909 323.219808 
L 140.989091 323.23644 
L 145.047273 323.253072 
L 149.105455 323.27424 
L 153.163636 323.29692 
L 157.221818 323.322624 
L 161.28 323.351352 
L 165.338182 323.384616 
L 169.396364 323.420904 
L 173.454545 323.460216 
L 177.512727 323.505576 
L 181.570909 323.55396 
L 185.629091 323.60688 
L 189.687273 323.664336 
L 193.745455 323.726328 
L 197.803636 323.794368 
L 201.861818 323.868456 
L 205.92 323.94708 
L 209.978182 324.03024 
L 214.036364 324.12096 
L 218.094545 324.216216 
L 222.152727 324.319032 
L 226.210909 324.426384 
L 230.269091 324.539784 
L 234.327273 324.660744 
L 238.385455 324.78624 
L 242.443636 324.917784 
L 246.501818 325.055376 
L 250.56 325.199016 
L 254.618182 325.348704 
L 258.676364 325.502928 
L 262.734545 325.6632 
L 266.792727 325.828008 
L 270.850909 325.998864 
L 274.909091 326.174256 
L 278.967273 326.354184 
L 283.025455 326.537136 
L 287.083636 326.724624 
L 291.141818 326.916648 
L 295.2 327.110184 
L 299.258182 327.308256 
L 303.316364 327.50784 
L 307.374545 327.710448 
L 311.432727 327.914568 
L 315.490909 328.1202 
L 319.549091 328.327344 
L 323.607273 328.536 
L 327.665455 328.744656 
L 331.723636 328.953312 
L 335.781818 329.161968 
L 339.84 329.370624 
L 343.898182 329.577768 
L 347.956364 329.7834 
L 352.014545 329.989032 
L 356.072727 330.19164 
L 360.130909 330.391224 
L 364.189091 330.589296 
L 368.247273 330.785856 
L 372.305455 330.97788 
L 376.363636 331.16688 
L 380.421818 331.351344 
L 384.48 331.532784 
L 388.538182 331.709688 
L 392.596364 331.882056 
L 396.654545 332.0514 
L 400.712727 332.214696 
L 404.770909 332.371944 
L 408.829091 332.524656 
L 412.887273 332.672832 
L 416.945455 332.81496 
L 421.003636 332.95104 
L 425.061818 333.081072 
L 429.12 333.203544 
L 433.178182 333.32148 
L 437.236364 333.433368 
L 441.294545 333.537696 
L 445.352727 333.634464 
L 449.410909 333.726696 
L 453.469091 333.809856 
L 457.527273 333.886968 
L 461.585455 333.95652 
L 465.643636 334.020024 
L 469.701818 334.075968 
L 473.76 334.124352 
L 477.818182 334.165176 
L 481.876364 334.19844 
L 485.934545 334.224144 
L 489.992727 334.2438 
L 494.050909 334.254384 
L 498.109091 334.25892 
" clip-path="url(#p9ade5c028e)" style="fill: none; stroke: #000000; stroke-opacity: 0.5; stroke-linecap: square"/>
   </g>
   <g id="line2d_17">
    <path d="M 92.290909 316.495944 
L 96.349091 316.49292 
L 100.407273 316.482336 
L 104.465455 316.464192 
L 108.523636 316.438488 
L 112.581818 316.406736 
L 116.64 316.367424 
L 120.698182 316.322064 
L 124.756364 316.269144 
L 128.814545 316.208664 
L 132.872727 316.140624 
L 136.930909 316.066536 
L 140.989091 315.9864 
L 145.047273 315.898704 
L 149.105455 315.803448 
L 153.163636 315.702144 
L 157.221818 315.59328 
L 161.28 315.478368 
L 165.338182 315.357408 
L 169.396364 315.228888 
L 173.454545 315.09432 
L 177.512727 314.955216 
L 181.570909 314.808552 
L 185.629091 314.65584 
L 189.687273 314.498592 
L 193.745455 314.335296 
L 197.803636 314.165952 
L 201.861818 313.992072 
L 205.92 313.813656 
L 209.978182 313.629192 
L 214.036364 313.441704 
L 218.094545 313.248168 
L 222.152727 313.051608 
L 226.210909 312.852024 
L 230.269091 312.649416 
L 234.327273 312.442272 
L 238.385455 312.233616 
L 242.443636 312.021936 
L 246.501818 311.807232 
L 250.56 311.592528 
L 254.618182 311.3748 
L 258.676364 311.157072 
L 262.734545 310.939344 
L 266.792727 310.720104 
L 270.850909 310.500864 
L 274.909091 310.283136 
L 278.967273 310.065408 
L 283.025455 309.849192 
L 287.083636 309.634488 
L 291.141818 309.422808 
L 295.2 309.21264 
L 299.258182 309.005496 
L 303.316364 308.799864 
L 307.374545 308.60028 
L 311.432727 308.40372 
L 315.490909 308.210184 
L 319.549091 308.022696 
L 323.607273 307.838232 
L 327.665455 307.659816 
L 331.723636 307.487448 
L 335.781818 307.319616 
L 339.84 307.15632 
L 343.898182 307.000584 
L 347.956364 306.850896 
L 352.014545 306.705744 
L 356.072727 306.568152 
L 360.130909 306.436608 
L 364.189091 306.3096 
L 368.247273 306.190152 
L 372.305455 306.078264 
L 376.363636 305.970912 
L 380.421818 305.869608 
L 384.48 305.774352 
L 388.538182 305.685144 
L 392.596364 305.601984 
L 396.654545 305.524872 
L 400.712727 305.452296 
L 404.770909 305.385768 
L 408.829091 305.322264 
L 412.887273 305.264808 
L 416.945455 305.2134 
L 421.003636 305.165016 
L 425.061818 305.119656 
L 429.12 305.080344 
L 433.178182 305.042544 
L 437.236364 305.00928 
L 441.294545 304.97904 
L 445.352727 304.953336 
L 449.410909 304.929144 
L 453.469091 304.907976 
L 457.527273 304.88832 
L 461.585455 304.871688 
L 465.643636 304.85808 
L 469.701818 304.844472 
L 473.76 304.8354 
L 477.818182 304.826328 
L 481.876364 304.818768 
L 485.934545 304.814232 
L 489.992727 304.809696 
L 494.050909 304.808184 
L 498.109091 304.806672 
" clip-path="url(#p9ade5c028e)" style="fill: none; stroke: #000000; stroke-opacity: 0.5; stroke-linecap: square"/>
   </g>
   <g id="line2d_18">
    <path d="M 92.290909 249.0804 
L 96.349091 249.47352 
L 100.407273 250.007256 
L 104.465455 250.560648 
L 108.523636 251.126136 
L 112.581818 251.699184 
L 116.64 252.279792 
L 120.698182 252.863424 
L 124.756364 253.448568 
L 128.814545 254.033712 
L 132.872727 254.617344 
L 136.930909 255.197952 
L 140.989091 255.772512 
L 145.047273 256.341024 
L 149.105455 256.901976 
L 153.163636 257.453856 
L 157.221818 257.995152 
L 161.28 258.525864 
L 165.338182 259.042968 
L 169.396364 259.546464 
L 173.454545 260.03484 
L 177.512727 260.506584 
L 181.570909 260.963208 
L 185.629091 261.4032 
L 189.687273 261.823536 
L 193.745455 262.225728 
L 197.803636 262.608264 
L 201.861818 262.971144 
L 205.92 263.314368 
L 209.978182 263.634912 
L 214.036364 263.934288 
L 218.094545 264.210984 
L 222.152727 264.466512 
L 226.210909 264.69936 
L 230.269091 264.908016 
L 234.327273 265.093992 
L 238.385455 265.257288 
L 242.443636 265.396392 
L 246.501818 265.511304 
L 250.56 265.603536 
L 254.618182 265.673088 
L 258.676364 265.716936 
L 262.734545 265.738104 
L 266.792727 265.736592 
L 270.850909 265.710888 
L 274.909091 265.662504 
L 278.967273 265.592952 
L 283.025455 265.499208 
L 287.083636 265.382784 
L 291.141818 265.245192 
L 295.2 265.086432 
L 299.258182 264.906504 
L 303.316364 264.705408 
L 307.374545 264.484656 
L 311.432727 264.244248 
L 315.490909 263.985696 
L 319.549091 263.705976 
L 323.607273 263.409624 
L 327.665455 263.095128 
L 331.723636 262.764 
L 335.781818 262.41624 
L 339.84 262.051848 
L 343.898182 261.673848 
L 347.956364 261.280728 
L 352.014545 260.872488 
L 356.072727 260.452152 
L 360.130909 260.018208 
L 364.189091 259.57368 
L 368.247273 259.117056 
L 372.305455 258.65136 
L 376.363636 258.17508 
L 380.421818 257.69124 
L 384.48 257.198328 
L 388.538182 256.697856 
L 392.596364 256.192848 
L 396.654545 255.681792 
L 400.712727 255.1662 
L 404.770909 254.649096 
L 408.829091 254.128968 
L 412.887273 253.607328 
L 416.945455 253.0872 
L 421.003636 252.568584 
L 425.061818 252.052992 
L 429.12 251.541936 
L 433.178182 251.036928 
L 437.236364 250.540992 
L 441.294545 250.052616 
L 445.352727 249.576336 
L 449.410909 249.113664 
L 453.469091 248.6646 
L 457.527273 248.23368 
L 461.585455 247.822416 
L 465.643636 247.43232 
L 469.701818 247.064904 
L 473.76 246.72168 
L 477.818182 246.407184 
L 481.876364 246.121416 
L 485.934545 245.865888 
L 489.992727 245.643624 
L 494.050909 245.457648 
L 498.109091 245.3382 
" clip-path="url(#p9ade5c028e)" style="fill: none; stroke: #000000; stroke-opacity: 0.5; stroke-linecap: square"/>
   </g>
   <g id="line2d_19">
    <path d="M 92.290909 248.75532 
L 96.349091 248.37732 
L 100.407273 247.894992 
L 104.465455 247.42476 
L 108.523636 246.975696 
L 112.581818 246.553848 
L 116.64 246.157704 
L 120.698182 245.793312 
L 124.756364 245.460672 
L 128.814545 245.162808 
L 132.872727 244.89972 
L 136.930909 244.67292 
L 140.989091 244.48392 
L 145.047273 244.33272 
L 149.105455 244.21932 
L 153.163636 244.14372 
L 157.221818 244.10592 
L 161.28 244.104408 
L 165.338182 244.137672 
L 169.396364 244.2042 
L 173.454545 244.303992 
L 177.512727 244.432512 
L 181.570909 244.588248 
L 185.629091 244.7712 
L 189.687273 244.97532 
L 193.745455 245.20212 
L 197.803636 245.447064 
L 201.861818 245.70864 
L 205.92 245.983824 
L 209.978182 246.269592 
L 214.036364 246.565944 
L 218.094545 246.869856 
L 222.152727 247.179816 
L 226.210909 247.4928 
L 230.269091 247.807296 
L 234.327273 248.123304 
L 238.385455 248.436288 
L 242.443636 248.746248 
L 246.501818 249.051672 
L 250.56 249.351048 
L 254.618182 249.642864 
L 258.676364 249.92712 
L 262.734545 250.200792 
L 266.792727 250.46388 
L 270.850909 250.716384 
L 274.909091 250.953768 
L 278.967273 251.179056 
L 283.025455 251.389224 
L 287.083636 251.584272 
L 291.141818 251.762688 
L 295.2 251.924472 
L 299.258182 252.068112 
L 303.316364 252.19512 
L 307.374545 252.302472 
L 311.432727 252.39168 
L 315.490909 252.461232 
L 319.549091 252.511128 
L 323.607273 252.539856 
L 327.665455 252.55044 
L 331.723636 252.539856 
L 335.781818 252.508104 
L 339.84 252.456696 
L 343.898182 252.385632 
L 347.956364 252.2934 
L 352.014545 252.183024 
L 356.072727 252.05148 
L 360.130909 251.901792 
L 364.189091 251.73396 
L 368.247273 251.547984 
L 372.305455 251.345376 
L 376.363636 251.126136 
L 380.421818 250.891776 
L 384.48 250.643808 
L 388.538182 250.382232 
L 392.596364 250.10856 
L 396.654545 249.825816 
L 400.712727 249.534 
L 404.770909 249.234624 
L 408.829091 248.9292 
L 412.887273 248.620752 
L 416.945455 248.312304 
L 421.003636 248.002344 
L 425.061818 247.695408 
L 429.12 247.39452 
L 433.178182 247.09968 
L 437.236364 246.815424 
L 441.294545 246.543264 
L 445.352727 246.286224 
L 449.410909 246.045816 
L 453.469091 245.825064 
L 457.527273 245.626992 
L 461.585455 245.454624 
L 465.643636 245.30796 
L 469.701818 245.190024 
L 473.76 245.102328 
L 477.818182 245.047896 
L 481.876364 245.026728 
L 485.934545 245.040336 
L 489.992727 245.087208 
L 494.050909 245.168856 
L 498.109091 245.253528 
" clip-path="url(#p9ade5c028e)" style="fill: none; stroke: #000000; stroke-opacity: 0.5; stroke-linecap: square"/>
   </g>
   <g id="line2d_20">
    <path d="M 92.290909 187.325784 
L 96.349091 187.558632 
L 100.407273 188.012232 
L 104.465455 188.487 
L 108.523636 188.931528 
L 112.581818 189.327672 
L 116.64 189.670896 
L 120.698182 189.95364 
L 124.756364 190.17288 
L 128.814545 190.327104 
L 132.872727 190.4148 
L 136.930909 190.434456 
L 140.989091 190.38456 
L 145.047273 190.265112 
L 149.105455 190.0746 
L 153.163636 189.816048 
L 157.221818 189.487944 
L 161.28 189.090288 
L 165.338182 188.627616 
L 169.396364 188.098416 
L 173.454545 187.505712 
L 177.512727 186.851016 
L 181.570909 186.137352 
L 185.629091 185.36472 
L 189.687273 184.539168 
L 193.745455 183.659184 
L 197.803636 182.729304 
L 201.861818 181.75104 
L 205.92 180.725904 
L 209.978182 179.658432 
L 214.036364 178.548624 
L 218.094545 177.399504 
L 222.152727 176.214096 
L 226.210909 174.990888 
L 230.269091 173.734416 
L 234.327273 172.446192 
L 238.385455 171.127728 
L 242.443636 169.780536 
L 246.501818 168.406128 
L 250.56 167.007528 
L 254.618182 165.583224 
L 258.676364 164.13624 
L 262.734545 162.6696 
L 266.792727 161.183304 
L 270.850909 159.680376 
L 274.909091 158.162328 
L 278.967273 156.632184 
L 283.025455 155.095992 
L 287.083636 153.556776 
L 291.141818 152.022096 
L 295.2 150.510096 
L 299.258182 149.04648 
L 303.316364 147.697776 
L 307.374545 146.669616 
L 311.432727 146.578896 
L 315.490909 147.599496 
L 319.549091 149.011704 
L 323.607273 150.526728 
L 327.665455 152.071992 
L 331.723636 153.626328 
L 335.781818 155.176128 
L 339.84 156.718368 
L 343.898182 158.248512 
L 347.956364 159.765048 
L 352.014545 161.266464 
L 356.072727 162.751248 
L 360.130909 164.216376 
L 364.189091 165.66336 
L 368.247273 167.090688 
L 372.305455 168.495336 
L 376.363636 169.878816 
L 380.421818 171.238104 
L 384.48 172.5732 
L 388.538182 173.882592 
L 392.596364 175.164768 
L 396.654545 176.419728 
L 400.712727 177.644448 
L 404.770909 178.838928 
L 408.829091 180.001656 
L 412.887273 181.13112 
L 416.945455 182.225808 
L 421.003636 183.282696 
L 425.061818 184.301784 
L 429.12 185.28156 
L 433.178182 186.219 
L 437.236364 187.112592 
L 441.294545 187.960824 
L 445.352727 188.762184 
L 449.410909 189.512136 
L 453.469091 190.212192 
L 457.527273 190.859328 
L 461.585455 191.45052 
L 465.643636 191.984256 
L 469.701818 192.460536 
L 473.76 192.874824 
L 477.818182 193.230144 
L 481.876364 193.520448 
L 485.934545 193.74876 
L 489.992727 193.912056 
L 494.050909 194.010336 
L 498.109091 194.042088 
" clip-path="url(#p9ade5c028e)" style="fill: none; stroke: #000000; stroke-opacity: 0.5; stroke-linecap: square"/>
   </g>
   <g id="line2d_21">
    <path d="M 92.290909 185.872752 
L 96.349091 185.590008 
L 100.407273 184.98672 
L 104.465455 184.259448 
L 108.523636 183.462624 
L 112.581818 182.611368 
L 116.64 181.714752 
L 120.698182 180.7758 
L 124.756364 179.799048 
L 128.814545 178.784496 
L 132.872727 177.73668 
L 136.930909 176.654088 
L 140.989091 175.542768 
L 145.047273 174.399696 
L 149.105455 173.229408 
L 153.163636 172.031904 
L 157.221818 170.807184 
L 161.28 169.558272 
L 165.338182 168.283656 
L 169.396364 166.987872 
L 173.454545 165.667896 
L 177.512727 164.326752 
L 181.570909 162.965952 
L 185.629091 161.583984 
L 189.687273 160.183872 
L 193.745455 158.765616 
L 197.803636 157.329216 
L 201.861818 155.874672 
L 205.92 154.40652 
L 209.978182 152.921736 
L 214.036364 151.423344 
L 218.094545 149.911344 
L 222.152727 148.38876 
L 226.210909 146.857104 
L 230.269091 145.316376 
L 234.327273 143.771112 
L 238.385455 142.224336 
L 242.443636 140.682096 
L 246.501818 139.151952 
L 250.56 137.646 
L 254.618182 136.18692 
L 258.676364 134.812512 
L 262.734545 133.592328 
L 266.792727 132.654888 
L 270.850909 132.199776 
L 274.909091 132.393312 
L 278.967273 133.17804 
L 283.025455 134.346816 
L 287.083636 135.722736 
L 291.141818 137.202984 
L 295.2 138.730104 
L 299.258182 140.260248 
L 303.316364 141.731424 
L 307.374545 142.974288 
L 311.432727 143.450568 
L 315.490909 143.161776 
L 319.549091 143.080128 
L 323.607273 143.597232 
L 327.665455 144.592128 
L 331.723636 145.845576 
L 335.781818 147.226032 
L 339.84 148.66848 
L 343.898182 150.139656 
L 347.956364 151.622928 
L 352.014545 153.107712 
L 356.072727 154.586448 
L 360.130909 156.056112 
L 364.189091 157.512168 
L 368.247273 158.951592 
L 372.305455 160.375896 
L 376.363636 161.779032 
L 380.421818 163.162512 
L 384.48 164.523312 
L 388.538182 165.861432 
L 392.596364 167.173848 
L 396.654545 168.46056 
L 400.712727 169.720056 
L 404.770909 170.950824 
L 408.829091 172.14984 
L 412.887273 173.318616 
L 416.945455 174.452616 
L 421.003636 175.55184 
L 425.061818 176.614776 
L 429.12 177.6384 
L 433.178182 178.6212 
L 437.236364 179.560152 
L 441.294545 180.455256 
L 445.352727 181.303488 
L 449.410909 182.101824 
L 453.469091 182.848752 
L 457.527273 183.541248 
L 461.585455 184.176288 
L 465.643636 184.753872 
L 469.701818 185.267952 
L 473.76 185.72004 
L 477.818182 186.107112 
L 481.876364 186.424632 
L 485.934545 186.675624 
L 489.992727 186.85404 
L 494.050909 186.962904 
L 498.109091 186.99768 
" clip-path="url(#p9ade5c028e)" style="fill: none; stroke: #000000; stroke-opacity: 0.5; stroke-linecap: square"/>
   </g>
   <g id="line2d_22">
    <path d="M 92.290909 69.376176 
L 96.349091 69.383736 
L 100.407273 69.403392 
L 104.465455 69.436656 
L 108.523636 69.486552 
L 112.581818 69.55308 
L 116.64 69.639264 
L 120.698182 69.752664 
L 124.756364 69.90084 
L 128.814545 70.095888 
L 132.872727 70.362 
L 136.930909 70.733952 
L 140.989091 71.270712 
L 145.047273 72.037296 
L 149.105455 73.066968 
L 153.163636 74.334024 
L 157.221818 75.777984 
L 161.28 77.34744 
L 165.338182 79.00308 
L 169.396364 80.7192 
L 173.454545 82.48068 
L 177.512727 84.275424 
L 181.570909 86.09436 
L 185.629091 87.93144 
L 189.687273 89.780616 
L 193.745455 91.640376 
L 197.803636 93.506184 
L 201.861818 95.376528 
L 205.92 97.246872 
L 209.978182 99.117216 
L 214.036364 100.984536 
L 218.094545 102.848832 
L 222.152727 104.704056 
L 226.210909 106.553232 
L 230.269091 108.390312 
L 234.327273 110.213784 
L 238.385455 112.020624 
L 242.443636 113.803272 
L 246.501818 115.557192 
L 250.56 117.268776 
L 254.618182 118.91988 
L 258.676364 120.475728 
L 262.734545 121.87584 
L 266.792727 123.005304 
L 270.850909 123.702336 
L 274.909091 123.912504 
L 278.967273 124.004736 
L 283.025455 124.670016 
L 287.083636 125.918928 
L 291.141818 127.405224 
L 295.2 128.961072 
L 299.258182 130.515408 
L 303.316364 132.024384 
L 307.374545 133.436592 
L 311.432727 134.656776 
L 315.490909 135.50652 
L 319.549091 135.727272 
L 323.607273 135.210168 
L 327.665455 134.150256 
L 331.723636 132.786432 
L 335.781818 131.2578 
L 339.84 129.633912 
L 343.898182 127.951056 
L 347.956364 126.225864 
L 352.014545 124.470432 
L 356.072727 122.69232 
L 360.130909 120.896064 
L 364.189091 119.084688 
L 368.247273 117.261216 
L 372.305455 115.425648 
L 376.363636 113.58252 
L 380.421818 111.733344 
L 384.48 109.876608 
L 388.538182 108.016848 
L 392.596364 106.154064 
L 396.654545 104.288256 
L 400.712727 102.42396 
L 404.770909 100.559664 
L 408.829091 98.698392 
L 412.887273 96.843168 
L 416.945455 94.99248 
L 421.003636 93.152376 
L 425.061818 91.324368 
L 429.12 89.509968 
L 433.178182 87.713712 
L 437.236364 85.938624 
L 441.294545 84.190752 
L 445.352727 82.474632 
L 449.410909 80.796312 
L 453.469091 79.164864 
L 457.527273 77.58936 
L 461.585455 76.078872 
L 465.643636 74.64852 
L 469.701818 73.313424 
L 473.76 72.090216 
L 477.818182 71.000064 
L 481.876364 70.065648 
L 485.934545 69.347448 
L 489.992727 69.300576 
L 494.050909 69.297552 
L 498.109091 69.29604 
" clip-path="url(#p9ade5c028e)" style="fill: none; stroke: #000000; stroke-opacity: 0.5; stroke-linecap: square"/>
   </g>
   <g id="line2d_23">
    <path d="M 92.290909 62.759664 
L 96.349091 62.774784 
L 100.407273 62.821656 
L 104.465455 62.904816 
L 108.523636 63.033336 
L 112.581818 63.2178 
L 116.64 63.477864 
L 120.698182 63.834696 
L 124.756364 64.30644 
L 128.814545 64.908216 
L 132.872727 65.637 
L 136.930909 66.459528 
L 140.989091 67.312296 
L 145.047273 68.115168 
L 149.105455 68.822784 
L 153.163636 69.46236 
L 157.221818 70.101936 
L 161.28 70.824672 
L 165.338182 71.70012 
L 169.396364 72.775152 
L 173.454545 74.057328 
L 177.512727 75.516408 
L 181.570909 77.11308 
L 185.629091 78.808032 
L 189.687273 80.571024 
L 193.745455 82.380888 
L 197.803636 84.224016 
L 201.861818 86.088312 
L 205.92 87.96924 
L 209.978182 89.860752 
L 214.036364 91.7568 
L 218.094545 93.655872 
L 222.152727 95.554944 
L 226.210909 97.452504 
L 230.269091 99.345528 
L 234.327273 101.234016 
L 238.385455 103.113432 
L 242.443636 104.985288 
L 246.501818 106.845048 
L 250.56 108.6912 
L 254.618182 110.52072 
L 258.676364 112.32756 
L 262.734545 114.102648 
L 266.792727 115.830864 
L 270.850909 117.46836 
L 274.909091 118.909296 
L 278.967273 119.831616 
L 283.025455 119.752992 
L 287.083636 118.830672 
L 291.141818 117.507672 
L 295.2 115.997184 
L 299.258182 114.382368 
L 303.316364 112.702536 
L 307.374545 110.977344 
L 311.432727 109.218888 
L 315.490909 107.434728 
L 319.549091 105.627888 
L 323.607273 103.804416 
L 327.665455 101.965824 
L 331.723636 100.113624 
L 335.781818 98.25084 
L 339.84 96.378984 
L 343.898182 94.499568 
L 347.956364 92.614104 
L 352.014545 90.725616 
L 356.072727 88.835616 
L 360.130909 86.947128 
L 364.189091 85.064688 
L 368.247273 83.195856 
L 372.305455 81.348192 
L 376.363636 79.53228 
L 380.421818 77.772312 
L 384.48 76.097016 
L 388.538182 74.556288 
L 392.596364 73.21212 
L 396.654545 72.128016 
L 400.712727 71.32212 
L 404.770909 70.758144 
L 408.829091 70.371072 
L 412.887273 70.101936 
L 416.945455 69.909912 
L 421.003636 69.770808 
L 425.061818 69.667992 
L 429.12 69.587856 
L 433.178182 69.525864 
L 437.236364 69.478992 
L 441.294545 69.43968 
L 445.352727 69.40944 
L 449.410909 69.385248 
L 453.469091 69.365592 
L 457.527273 69.34896 
L 461.585455 69.335352 
L 465.643636 69.324768 
L 469.701818 69.317208 
L 473.76 69.309648 
L 477.818182 69.3036 
L 481.876364 69.297552 
L 485.934545 69.252192 
L 489.992727 68.7366 
L 494.050909 68.393376 
L 498.109091 68.276952 
" clip-path="url(#p9ade5c028e)" style="fill: none; stroke: #000000; stroke-opacity: 0.5; stroke-linecap: square"/>
   </g>
   <g id="patch_3">
    <path d="M 72 384.48 
L 72 51.84 
" style="fill: none; stroke: #000000; stroke-width: 0.8; stroke-linejoin: miter; stroke-linecap: square"/>
   </g>
   <g id="patch_4">
    <path d="M 518.4 384.48 
L 518.4 51.84 
" style="fill: none; stroke: #000000; stroke-width: 0.8; stroke-linejoin: miter; stroke-linecap: square"/>
   </g>
   <g id="patch_5">
    <path d="M 72 384.48 
L 518.4 384.48 
" style="fill: none; stroke: #000000; stroke-width: 0.8; stroke-linejoin: miter; stroke-linecap: square"/>
   </g>
   <g id="patch_6">
    <path d="M 72 51.84 
L 518.4 51.84 
" style="fill: none; stroke: #000000; stroke-width: 0.8; stroke-linejoin: miter; stroke-linecap: square"/>
   </g>
  </g>
 </g>
 <defs>
  <clipPath id="p9ade5c028e">
   <rect x="72" y="51.84" width="446.4" height="332.64"/>
  </clipPath>
 </defs>
</svg>
