<?xml version="1.0" encoding="utf-8" standalone="no"?>
<!DOCTYPE svg PUBLIC "-//W3C//DTD SVG 1.1//EN"
  "http://www.w3.org/Graphics/SVG/1.1/DTD/svg11.dtd">
<svg xmlns:xlink="http://www.w3.org/1999/xlink" width="576pt" height="432pt" viewBox="0 0 576 432" xmlns="http://www.w3.org/2000/svg" version="1.1">
 <metadata>
  <rdf:RDF xmlns:dc="http://purl.org/dc/elements/1.1/" xmlns:cc="http://creativecommons.org/ns#" xmlns:rdf="http://www.w3.org/1999/02/22-rdf-syntax-ns#">
   <cc:Work>
    <dc:type rdf:resource="http://purl.org/dc/dcmitype/StillImage"/>
    <dc:date>2023-05-04T13:02:02.996541</dc:date>
    <dc:format>image/svg+xml</dc:format>
    <dc:creator>
     <cc:Agent>
      <dc:title>Matplotlib v3.7.1, https://matplotlib.org/</dc:title>
     </cc:Agent>
    </dc:creator>
   </cc:Work>
  </rdf:RDF>
 </metadata>
 <defs>
  <style type="text/css">*{stroke-linejoin: round; stroke-linecap: butt}</style>
 </defs>
 <g id="figure_1">
  <g id="patch_1">
   <path d="M 0 432 
L 576 432 
L 576 0 
L 0 0 
z
" style="fill: #ffffff"/>
  </g>
  <g id="axes_1">
   <g id="patch_2">
    <path d="M 72 384.48 
L 518.4 384.48 
L 518.4 51.84 
L 72 51.84 
z
" style="fill: #ffffff"/>
   </g>
   <g id="matplotlib.axis_1">
    <g id="xtick_1">
     <g id="line2d_1">
      <defs>
       <path id="m2d46e0ed5e" d="M 0 0 
L 0 3.5 
" style="stroke: #000000; stroke-width: 0.8"/>
      </defs>
      <g>
       <use xlink:href="#m2d46e0ed5e" x="92.290909" y="384.48" style="stroke: #000000; stroke-width: 0.8"/>
      </g>
     </g>
     <g id="text_1">
      <!-- 0.0 -->
      <g transform="translate(84.339347 399.078438) scale(0.1 -0.1)">
       <defs>
        <path id="DejaVuSans-30" d="M 2034 4250 
Q 1547 4250 1301 3770 
Q 1056 3291 1056 2328 
Q 1056 1369 1301 889 
Q 1547 409 2034 409 
Q 2525 409 2770 889 
Q 3016 1369 3016 2328 
Q 3016 3291 2770 3770 
Q 2525 4250 2034 4250 
z
M 2034 4750 
Q 2819 4750 3233 4129 
Q 3647 3509 3647 2328 
Q 3647 1150 3233 529 
Q 2819 -91 2034 -91 
Q 1250 -91 836 529 
Q 422 1150 422 2328 
Q 422 3509 836 4129 
Q 1250 4750 2034 4750 
z
" transform="scale(0.015625)"/>
        <path id="DejaVuSans-2e" d="M 684 794 
L 1344 794 
L 1344 0 
L 684 0 
L 684 794 
z
" transform="scale(0.015625)"/>
       </defs>
       <use xlink:href="#DejaVuSans-30"/>
       <use xlink:href="#DejaVuSans-2e" x="63.623047"/>
       <use xlink:href="#DejaVuSans-30" x="95.410156"/>
      </g>
     </g>
    </g>
    <g id="xtick_2">
     <g id="line2d_2">
      <g>
       <use xlink:href="#m2d46e0ed5e" x="173.454545" y="384.48" style="stroke: #000000; stroke-width: 0.8"/>
      </g>
     </g>
     <g id="text_2">
      <!-- 0.2 -->
      <g transform="translate(165.502983 399.078438) scale(0.1 -0.1)">
       <defs>
        <path id="DejaVuSans-32" d="M 1228 531 
L 3431 531 
L 3431 0 
L 469 0 
L 469 531 
Q 828 903 1448 1529 
Q 2069 2156 2228 2338 
Q 2531 2678 2651 2914 
Q 2772 3150 2772 3378 
Q 2772 3750 2511 3984 
Q 2250 4219 1831 4219 
Q 1534 4219 1204 4116 
Q 875 4013 500 3803 
L 500 4441 
Q 881 4594 1212 4672 
Q 1544 4750 1819 4750 
Q 2544 4750 2975 4387 
Q 3406 4025 3406 3419 
Q 3406 3131 3298 2873 
Q 3191 2616 2906 2266 
Q 2828 2175 2409 1742 
Q 1991 1309 1228 531 
z
" transform="scale(0.015625)"/>
       </defs>
       <use xlink:href="#DejaVuSans-30"/>
       <use xlink:href="#DejaVuSans-2e" x="63.623047"/>
       <use xlink:href="#DejaVuSans-32" x="95.410156"/>
      </g>
     </g>
    </g>
    <g id="xtick_3">
     <g id="line2d_3">
      <g>
       <use xlink:href="#m2d46e0ed5e" x="254.618182" y="384.48" style="stroke: #000000; stroke-width: 0.8"/>
      </g>
     </g>
     <g id="text_3">
      <!-- 0.4 -->
      <g transform="translate(246.666619 399.078438) scale(0.1 -0.1)">
       <defs>
        <path id="DejaVuSans-34" d="M 2419 4116 
L 825 1625 
L 2419 1625 
L 2419 4116 
z
M 2253 4666 
L 3047 4666 
L 3047 1625 
L 3713 1625 
L 3713 1100 
L 3047 1100 
L 3047 0 
L 2419 0 
L 2419 1100 
L 313 1100 
L 313 1709 
L 2253 4666 
z
" transform="scale(0.015625)"/>
       </defs>
       <use xlink:href="#DejaVuSans-30"/>
       <use xlink:href="#DejaVuSans-2e" x="63.623047"/>
       <use xlink:href="#DejaVuSans-34" x="95.410156"/>
      </g>
     </g>
    </g>
    <g id="xtick_4">
     <g id="line2d_4">
      <g>
       <use xlink:href="#m2d46e0ed5e" x="335.781818" y="384.48" style="stroke: #000000; stroke-width: 0.8"/>
      </g>
     </g>
     <g id="text_4">
      <!-- 0.6 -->
      <g transform="translate(327.830256 399.078438) scale(0.1 -0.1)">
       <defs>
        <path id="DejaVuSans-36" d="M 2113 2584 
Q 1688 2584 1439 2293 
Q 1191 2003 1191 1497 
Q 1191 994 1439 701 
Q 1688 409 2113 409 
Q 2538 409 2786 701 
Q 3034 994 3034 1497 
Q 3034 2003 2786 2293 
Q 2538 2584 2113 2584 
z
M 3366 4563 
L 3366 3988 
Q 3128 4100 2886 4159 
Q 2644 4219 2406 4219 
Q 1781 4219 1451 3797 
Q 1122 3375 1075 2522 
Q 1259 2794 1537 2939 
Q 1816 3084 2150 3084 
Q 2853 3084 3261 2657 
Q 3669 2231 3669 1497 
Q 3669 778 3244 343 
Q 2819 -91 2113 -91 
Q 1303 -91 875 529 
Q 447 1150 447 2328 
Q 447 3434 972 4092 
Q 1497 4750 2381 4750 
Q 2619 4750 2861 4703 
Q 3103 4656 3366 4563 
z
" transform="scale(0.015625)"/>
       </defs>
       <use xlink:href="#DejaVuSans-30"/>
       <use xlink:href="#DejaVuSans-2e" x="63.623047"/>
       <use xlink:href="#DejaVuSans-36" x="95.410156"/>
      </g>
     </g>
    </g>
    <g id="xtick_5">
     <g id="line2d_5">
      <g>
       <use xlink:href="#m2d46e0ed5e" x="416.945455" y="384.48" style="stroke: #000000; stroke-width: 0.8"/>
      </g>
     </g>
     <g id="text_5">
      <!-- 0.8 -->
      <g transform="translate(408.993892 399.078438) scale(0.1 -0.1)">
       <defs>
        <path id="DejaVuSans-38" d="M 2034 2216 
Q 1584 2216 1326 1975 
Q 1069 1734 1069 1313 
Q 1069 891 1326 650 
Q 1584 409 2034 409 
Q 2484 409 2743 651 
Q 3003 894 3003 1313 
Q 3003 1734 2745 1975 
Q 2488 2216 2034 2216 
z
M 1403 2484 
Q 997 2584 770 2862 
Q 544 3141 544 3541 
Q 544 4100 942 4425 
Q 1341 4750 2034 4750 
Q 2731 4750 3128 4425 
Q 3525 4100 3525 3541 
Q 3525 3141 3298 2862 
Q 3072 2584 2669 2484 
Q 3125 2378 3379 2068 
Q 3634 1759 3634 1313 
Q 3634 634 3220 271 
Q 2806 -91 2034 -91 
Q 1263 -91 848 271 
Q 434 634 434 1313 
Q 434 1759 690 2068 
Q 947 2378 1403 2484 
z
M 1172 3481 
Q 1172 3119 1398 2916 
Q 1625 2713 2034 2713 
Q 2441 2713 2670 2916 
Q 2900 3119 2900 3481 
Q 2900 3844 2670 4047 
Q 2441 4250 2034 4250 
Q 1625 4250 1398 4047 
Q 1172 3844 1172 3481 
z
" transform="scale(0.015625)"/>
       </defs>
       <use xlink:href="#DejaVuSans-30"/>
       <use xlink:href="#DejaVuSans-2e" x="63.623047"/>
       <use xlink:href="#DejaVuSans-38" x="95.410156"/>
      </g>
     </g>
    </g>
    <g id="xtick_6">
     <g id="line2d_6">
      <g>
       <use xlink:href="#m2d46e0ed5e" x="498.109091" y="384.48" style="stroke: #000000; stroke-width: 0.8"/>
      </g>
     </g>
     <g id="text_6">
      <!-- 1.0 -->
      <g transform="translate(490.157528 399.078438) scale(0.1 -0.1)">
       <defs>
        <path id="DejaVuSans-31" d="M 794 531 
L 1825 531 
L 1825 4091 
L 703 3866 
L 703 4441 
L 1819 4666 
L 2450 4666 
L 2450 531 
L 3481 531 
L 3481 0 
L 794 0 
L 794 531 
z
" transform="scale(0.015625)"/>
       </defs>
       <use xlink:href="#DejaVuSans-31"/>
       <use xlink:href="#DejaVuSans-2e" x="63.623047"/>
       <use xlink:href="#DejaVuSans-30" x="95.410156"/>
      </g>
     </g>
    </g>
   </g>
   <g id="matplotlib.axis_2">
    <g id="ytick_1">
     <g id="line2d_7">
      <defs>
       <path id="meb0c9a3c6e" d="M 0 0 
L -3.5 0 
" style="stroke: #000000; stroke-width: 0.8"/>
      </defs>
      <g>
       <use xlink:href="#meb0c9a3c6e" x="72" y="369.36" style="stroke: #000000; stroke-width: 0.8"/>
      </g>
     </g>
     <g id="text_7">
      <!-- −5.0 -->
      <g transform="translate(40.717187 373.159219) scale(0.1 -0.1)">
       <defs>
        <path id="DejaVuSans-2212" d="M 678 2272 
L 4684 2272 
L 4684 1741 
L 678 1741 
L 678 2272 
z
" transform="scale(0.015625)"/>
        <path id="DejaVuSans-35" d="M 691 4666 
L 3169 4666 
L 3169 4134 
L 1269 4134 
L 1269 2991 
Q 1406 3038 1543 3061 
Q 1681 3084 1819 3084 
Q 2600 3084 3056 2656 
Q 3513 2228 3513 1497 
Q 3513 744 3044 326 
Q 2575 -91 1722 -91 
Q 1428 -91 1123 -41 
Q 819 9 494 109 
L 494 744 
Q 775 591 1075 516 
Q 1375 441 1709 441 
Q 2250 441 2565 725 
Q 2881 1009 2881 1497 
Q 2881 1984 2565 2268 
Q 2250 2553 1709 2553 
Q 1456 2553 1204 2497 
Q 953 2441 691 2322 
L 691 4666 
z
" transform="scale(0.015625)"/>
       </defs>
       <use xlink:href="#DejaVuSans-2212"/>
       <use xlink:href="#DejaVuSans-35" x="83.789062"/>
       <use xlink:href="#DejaVuSans-2e" x="147.412109"/>
       <use xlink:href="#DejaVuSans-30" x="179.199219"/>
      </g>
     </g>
    </g>
    <g id="ytick_2">
     <g id="line2d_8">
      <g>
       <use xlink:href="#meb0c9a3c6e" x="72" y="331.56" style="stroke: #000000; stroke-width: 0.8"/>
      </g>
     </g>
     <g id="text_8">
      <!-- −2.5 -->
      <g transform="translate(40.717187 335.359219) scale(0.1 -0.1)">
       <use xlink:href="#DejaVuSans-2212"/>
       <use xlink:href="#DejaVuSans-32" x="83.789062"/>
       <use xlink:href="#DejaVuSans-2e" x="147.412109"/>
       <use xlink:href="#DejaVuSans-35" x="179.199219"/>
      </g>
     </g>
    </g>
    <g id="ytick_3">
     <g id="line2d_9">
      <g>
       <use xlink:href="#meb0c9a3c6e" x="72" y="293.76" style="stroke: #000000; stroke-width: 0.8"/>
      </g>
     </g>
     <g id="text_9">
      <!-- 0.0 -->
      <g transform="translate(49.096875 297.559219) scale(0.1 -0.1)">
       <use xlink:href="#DejaVuSans-30"/>
       <use xlink:href="#DejaVuSans-2e" x="63.623047"/>
       <use xlink:href="#DejaVuSans-30" x="95.410156"/>
      </g>
     </g>
    </g>
    <g id="ytick_4">
     <g id="line2d_10">
      <g>
       <use xlink:href="#meb0c9a3c6e" x="72" y="255.96" style="stroke: #000000; stroke-width: 0.8"/>
      </g>
     </g>
     <g id="text_10">
      <!-- 2.5 -->
      <g transform="translate(49.096875 259.759219) scale(0.1 -0.1)">
       <use xlink:href="#DejaVuSans-32"/>
       <use xlink:href="#DejaVuSans-2e" x="63.623047"/>
       <use xlink:href="#DejaVuSans-35" x="95.410156"/>
      </g>
     </g>
    </g>
    <g id="ytick_5">
     <g id="line2d_11">
      <g>
       <use xlink:href="#meb0c9a3c6e" x="72" y="218.16" style="stroke: #000000; stroke-width: 0.8"/>
      </g>
     </g>
     <g id="text_11">
      <!-- 5.0 -->
      <g transform="translate(49.096875 221.959219) scale(0.1 -0.1)">
       <use xlink:href="#DejaVuSans-35"/>
       <use xlink:href="#DejaVuSans-2e" x="63.623047"/>
       <use xlink:href="#DejaVuSans-30" x="95.410156"/>
      </g>
     </g>
    </g>
    <g id="ytick_6">
     <g id="line2d_12">
      <g>
       <use xlink:href="#meb0c9a3c6e" x="72" y="180.36" style="stroke: #000000; stroke-width: 0.8"/>
      </g>
     </g>
     <g id="text_12">
      <!-- 7.5 -->
      <g transform="translate(49.096875 184.159219) scale(0.1 -0.1)">
       <defs>
        <path id="DejaVuSans-37" d="M 525 4666 
L 3525 4666 
L 3525 4397 
L 1831 0 
L 1172 0 
L 2766 4134 
L 525 4134 
L 525 4666 
z
" transform="scale(0.015625)"/>
       </defs>
       <use xlink:href="#DejaVuSans-37"/>
       <use xlink:href="#DejaVuSans-2e" x="63.623047"/>
       <use xlink:href="#DejaVuSans-35" x="95.410156"/>
      </g>
     </g>
    </g>
    <g id="ytick_7">
     <g id="line2d_13">
      <g>
       <use xlink:href="#meb0c9a3c6e" x="72" y="142.56" style="stroke: #000000; stroke-width: 0.8"/>
      </g>
     </g>
     <g id="text_13">
      <!-- 10.0 -->
      <g transform="translate(42.734375 146.359219) scale(0.1 -0.1)">
       <use xlink:href="#DejaVuSans-31"/>
       <use xlink:href="#DejaVuSans-30" x="63.623047"/>
       <use xlink:href="#DejaVuSans-2e" x="127.246094"/>
       <use xlink:href="#DejaVuSans-30" x="159.033203"/>
      </g>
     </g>
    </g>
    <g id="ytick_8">
     <g id="line2d_14">
      <g>
       <use xlink:href="#meb0c9a3c6e" x="72" y="104.76" style="stroke: #000000; stroke-width: 0.8"/>
      </g>
     </g>
     <g id="text_14">
      <!-- 12.5 -->
      <g transform="translate(42.734375 108.559219) scale(0.1 -0.1)">
       <use xlink:href="#DejaVuSans-31"/>
       <use xlink:href="#DejaVuSans-32" x="63.623047"/>
       <use xlink:href="#DejaVuSans-2e" x="127.246094"/>
       <use xlink:href="#DejaVuSans-35" x="159.033203"/>
      </g>
     </g>
    </g>
    <g id="ytick_9">
     <g id="line2d_15">
      <g>
       <use xlink:href="#meb0c9a3c6e" x="72" y="66.96" style="stroke: #000000; stroke-width: 0.8"/>
      </g>
     </g>
     <g id="text_15">
      <!-- 15.0 -->
      <g transform="translate(42.734375 70.759219) scale(0.1 -0.1)">
       <use xlink:href="#DejaVuSans-31"/>
       <use xlink:href="#DejaVuSans-35" x="63.623047"/>
       <use xlink:href="#DejaVuSans-2e" x="127.246094"/>
       <use xlink:href="#DejaVuSans-30" x="159.033203"/>
      </g>
     </g>
    </g>
   </g>
   <g id="line2d_16">
    <path d="M 92.290909 325.303344 
L 96.349091 325.30788 
L 100.407273 325.318464 
L 104.465455 325.336608 
L 108.523636 325.3608 
L 112.581818 325.392552 
L 116.64 325.433376 
L 120.698182 325.480248 
L 124.756364 325.53468 
L 128.814545 325.596672 
L 132.872727 325.667736 
L 136.930909 325.74636 
L 140.989091 325.832544 
L 145.047273 325.9278 
L 149.105455 326.030616 
L 153.163636 326.142504 
L 157.221818 326.263464 
L 161.28 326.393496 
L 165.338182 326.5326 
L 169.396364 326.679264 
L 173.454545 326.836512 
L 177.512727 327.00132 
L 181.570909 327.176712 
L 185.629091 327.359664 
L 189.687273 327.5532 
L 193.745455 327.754296 
L 197.803636 327.964464 
L 201.861818 328.183704 
L 205.92 328.412016 
L 209.978182 328.646376 
L 214.036364 328.89132 
L 218.094545 329.142312 
L 222.152727 329.400864 
L 226.210909 329.666976 
L 230.269091 329.940648 
L 234.327273 330.218856 
L 238.385455 330.504624 
L 242.443636 330.794928 
L 246.501818 331.09128 
L 250.56 331.39368 
L 254.618182 331.699104 
L 258.676364 332.007552 
L 262.734545 332.322048 
L 266.792727 332.638056 
L 270.850909 332.957088 
L 274.909091 333.277632 
L 278.967273 333.6012 
L 283.025455 333.92628 
L 287.083636 334.25136 
L 291.141818 334.577952 
L 295.2 334.903032 
L 299.258182 335.229624 
L 303.316364 335.554704 
L 307.374545 335.878272 
L 311.432727 336.200328 
L 315.490909 336.520872 
L 319.549091 336.839904 
L 323.607273 337.155912 
L 327.665455 337.468896 
L 331.723636 337.777344 
L 335.781818 338.08428 
L 339.84 338.385168 
L 343.898182 338.683032 
L 347.956364 338.97636 
L 352.014545 339.265152 
L 356.072727 339.547896 
L 360.130909 339.826104 
L 364.189091 340.098264 
L 368.247273 340.364376 
L 372.305455 340.625952 
L 376.363636 340.879968 
L 380.421818 341.127936 
L 384.48 341.368344 
L 388.538182 341.602704 
L 392.596364 341.829504 
L 396.654545 342.048744 
L 400.712727 342.261936 
L 404.770909 342.466056 
L 408.829091 342.664128 
L 412.887273 342.853128 
L 416.945455 343.034568 
L 421.003636 343.208448 
L 425.061818 343.373256 
L 429.12 343.530504 
L 433.178182 343.67868 
L 437.236364 343.817784 
L 441.294545 343.949328 
L 445.352727 344.0718 
L 449.410909 344.1852 
L 453.469091 344.29104 
L 457.527273 344.386296 
L 461.585455 344.473992 
L 465.643636 344.551104 
L 469.701818 344.620656 
L 473.76 344.679624 
L 477.818182 344.731032 
L 481.876364 344.771856 
L 485.934545 344.80512 
L 489.992727 344.8278 
L 494.050909 344.841408 
L 498.109091 344.845944 
" clip-path="url(#p62ff431d11)" style="fill: none; stroke: #000000; stroke-opacity: 0.5; stroke-linecap: square"/>
   </g>
   <g id="line2d_17">
    <path d="M 92.290909 312.87168 
L 96.349091 312.867144 
L 100.407273 312.855048 
L 104.465455 312.835392 
L 108.523636 312.808176 
L 112.581818 312.771888 
L 116.64 312.72804 
L 120.698182 312.67512 
L 124.756364 312.616152 
L 128.814545 312.5466 
L 132.872727 312.471 
L 136.930909 312.384816 
L 140.989091 312.291072 
L 145.047273 312.189768 
L 149.105455 312.07788 
L 153.163636 311.958432 
L 157.221818 311.831424 
L 161.28 311.693832 
L 165.338182 311.54868 
L 169.396364 311.392944 
L 173.454545 311.229648 
L 177.512727 311.05728 
L 181.570909 310.877352 
L 185.629091 310.68684 
L 189.687273 310.487256 
L 193.745455 310.280112 
L 197.803636 310.063896 
L 201.861818 309.84012 
L 205.92 309.607272 
L 209.978182 309.365352 
L 214.036364 309.115872 
L 218.094545 308.858832 
L 222.152727 308.59272 
L 226.210909 308.319048 
L 230.269091 308.039328 
L 234.327273 307.750536 
L 238.385455 307.455696 
L 242.443636 307.153296 
L 246.501818 306.84636 
L 250.56 306.531864 
L 254.618182 306.209808 
L 258.676364 305.884728 
L 262.734545 305.552088 
L 266.792727 305.216424 
L 270.850909 304.874712 
L 274.909091 304.528464 
L 278.967273 304.179192 
L 283.025455 303.826896 
L 287.083636 303.470064 
L 291.141818 303.11172 
L 295.2 302.750352 
L 299.258182 302.38596 
L 303.316364 302.021568 
L 307.374545 301.655664 
L 311.432727 301.28976 
L 315.490909 300.923856 
L 319.549091 300.557952 
L 323.607273 300.19356 
L 327.665455 299.83068 
L 331.723636 299.469312 
L 335.781818 299.110968 
L 339.84 298.755648 
L 343.898182 298.404864 
L 347.956364 298.057104 
L 352.014545 297.71388 
L 356.072727 297.376704 
L 360.130909 297.044064 
L 364.189091 296.717472 
L 368.247273 296.39844 
L 372.305455 296.085456 
L 376.363636 295.780032 
L 380.421818 295.48368 
L 384.48 295.194888 
L 388.538182 294.913656 
L 392.596364 294.643008 
L 396.654545 294.37992 
L 400.712727 294.127416 
L 404.770909 293.885496 
L 408.829091 293.652648 
L 412.887273 293.428872 
L 416.945455 293.217192 
L 421.003636 293.014584 
L 425.061818 292.82256 
L 429.12 292.642632 
L 433.178182 292.471776 
L 437.236364 292.311504 
L 441.294545 292.163328 
L 445.352727 292.024224 
L 449.410909 291.895704 
L 453.469091 291.77928 
L 457.527273 291.671928 
L 461.585455 291.57516 
L 465.643636 291.488976 
L 469.701818 291.413376 
L 473.76 291.34836 
L 477.818182 291.292416 
L 481.876364 291.247056 
L 485.934545 291.21228 
L 489.992727 291.188088 
L 494.050909 291.172968 
L 498.109091 291.16692 
" clip-path="url(#p62ff431d11)" style="fill: none; stroke: #000000; stroke-opacity: 0.5; stroke-linecap: square"/>
   </g>
   <g id="line2d_18">
    <path d="M 92.290909 254.407176 
L 96.349091 254.626416 
L 100.407273 255.114792 
L 104.465455 255.693888 
L 108.523636 256.303224 
L 112.581818 256.92012 
L 116.64 257.533992 
L 120.698182 258.141816 
L 124.756364 258.739056 
L 128.814545 259.3242 
L 132.872727 259.894224 
L 136.930909 260.45064 
L 140.989091 260.988912 
L 145.047273 261.510552 
L 149.105455 262.012536 
L 153.163636 262.496376 
L 157.221818 262.959048 
L 161.28 263.402064 
L 165.338182 263.8224 
L 169.396364 264.22308 
L 173.454545 264.599568 
L 177.512727 264.954888 
L 181.570909 265.286016 
L 185.629091 265.594464 
L 189.687273 265.880232 
L 193.745455 266.140296 
L 197.803636 266.37768 
L 201.861818 266.590872 
L 205.92 266.781384 
L 209.978182 266.946192 
L 214.036364 267.086808 
L 218.094545 267.204744 
L 222.152727 267.298488 
L 226.210909 267.36804 
L 230.269091 267.4134 
L 234.327273 267.437592 
L 238.385455 267.437592 
L 242.443636 267.414912 
L 246.501818 267.369552 
L 250.56 267.303024 
L 254.618182 267.213816 
L 258.676364 267.10344 
L 262.734545 266.971896 
L 266.792727 266.820696 
L 270.850909 266.64984 
L 274.909091 266.457816 
L 278.967273 266.247648 
L 283.025455 266.019336 
L 287.083636 265.771368 
L 291.141818 265.506768 
L 295.2 265.225536 
L 299.258182 264.927672 
L 303.316364 264.613176 
L 307.374545 264.282048 
L 311.432727 263.937312 
L 315.490909 263.578968 
L 319.549091 263.205504 
L 323.607273 262.819944 
L 327.665455 262.420776 
L 331.723636 262.009512 
L 335.781818 261.587664 
L 339.84 261.155232 
L 343.898182 260.710704 
L 347.956364 260.258616 
L 352.014545 259.795944 
L 356.072727 259.325712 
L 360.130909 258.84792 
L 364.189091 258.362568 
L 368.247273 257.871168 
L 372.305455 257.37372 
L 376.363636 256.871736 
L 380.421818 256.365216 
L 384.48 255.85416 
L 388.538182 255.34008 
L 392.596364 254.824488 
L 396.654545 254.305872 
L 400.712727 253.785744 
L 404.770909 253.267128 
L 408.829091 252.747 
L 412.887273 252.228384 
L 416.945455 251.71128 
L 421.003636 251.1972 
L 425.061818 250.686144 
L 429.12 250.179624 
L 433.178182 249.679152 
L 437.236364 249.184728 
L 441.294545 248.696352 
L 445.352727 248.217048 
L 449.410909 247.748328 
L 453.469091 247.290192 
L 457.527273 246.845664 
L 461.585455 246.414744 
L 465.643636 245.998944 
L 469.701818 245.601288 
L 473.76 245.221776 
L 477.818182 244.864944 
L 481.876364 244.532304 
L 485.934545 244.228392 
L 489.992727 243.96228 
L 494.050909 243.753624 
L 498.109091 243.665928 
" clip-path="url(#p62ff431d11)" style="fill: none; stroke: #000000; stroke-opacity: 0.5; stroke-linecap: square"/>
   </g>
   <g id="line2d_19">
    <path d="M 92.290909 252.530784 
L 96.349091 252.307008 
L 100.407273 251.805024 
L 104.465455 251.201736 
L 108.523636 250.559136 
L 112.581818 249.901416 
L 116.64 249.237648 
L 120.698182 248.575392 
L 124.756364 247.91616 
L 128.814545 247.264488 
L 132.872727 246.624912 
L 136.930909 245.997432 
L 140.989091 245.386584 
L 145.047273 244.79388 
L 149.105455 244.222344 
L 153.163636 243.675 
L 157.221818 243.151848 
L 161.28 242.658936 
L 165.338182 242.194752 
L 169.396364 241.76232 
L 173.454545 241.364664 
L 177.512727 241.001784 
L 181.570909 240.675192 
L 185.629091 240.384888 
L 189.687273 240.132384 
L 193.745455 239.91768 
L 197.803636 239.740776 
L 201.861818 239.60016 
L 205.92 239.495832 
L 209.978182 239.424768 
L 214.036364 239.38848 
L 218.094545 239.383944 
L 222.152727 239.408136 
L 226.210909 239.459544 
L 230.269091 239.538168 
L 234.327273 239.639472 
L 238.385455 239.761944 
L 242.443636 239.90256 
L 246.501818 240.06132 
L 250.56 240.233688 
L 254.618182 240.419664 
L 258.676364 240.614712 
L 262.734545 240.818832 
L 266.792727 241.029 
L 270.850909 241.245216 
L 274.909091 241.462944 
L 278.967273 241.682184 
L 283.025455 241.901424 
L 287.083636 242.119152 
L 291.141818 242.333856 
L 295.2 242.544024 
L 299.258182 242.748144 
L 303.316364 242.946216 
L 307.374545 243.135216 
L 311.432727 243.316656 
L 315.490909 243.487512 
L 319.549091 243.647784 
L 323.607273 243.79596 
L 327.665455 243.93204 
L 331.723636 244.056024 
L 335.781818 244.164888 
L 339.84 244.261656 
L 343.898182 244.341792 
L 347.956364 244.40832 
L 352.014545 244.459728 
L 356.072727 244.494504 
L 360.130909 244.515672 
L 364.189091 244.520208 
L 368.247273 244.509624 
L 372.305455 244.48392 
L 376.363636 244.444608 
L 380.421818 244.390176 
L 384.48 244.322136 
L 388.538182 244.240488 
L 392.596364 244.148256 
L 396.654545 244.04544 
L 400.712727 243.933552 
L 404.770909 243.812592 
L 408.829091 243.685584 
L 412.887273 243.55404 
L 416.945455 243.41796 
L 421.003636 243.28188 
L 425.061818 243.147312 
L 429.12 243.015768 
L 433.178182 242.890272 
L 437.236364 242.772336 
L 441.294545 242.663472 
L 445.352727 242.568216 
L 449.410909 242.486568 
L 453.469091 242.423064 
L 457.527273 242.377704 
L 461.585455 242.353512 
L 465.643636 242.352 
L 469.701818 242.373168 
L 473.76 242.42004 
L 477.818182 242.491104 
L 481.876364 242.587872 
L 485.934545 242.704296 
L 489.992727 242.837352 
L 494.050909 242.96436 
L 498.109091 243.026352 
" clip-path="url(#p62ff431d11)" style="fill: none; stroke: #000000; stroke-opacity: 0.5; stroke-linecap: square"/>
   </g>
   <g id="line2d_20">
    <path d="M 92.290909 176.097672 
L 96.349091 176.418216 
L 100.407273 177.098616 
L 104.465455 177.878808 
L 108.523636 178.672608 
L 112.581818 179.4528 
L 116.64 180.207288 
L 120.698182 180.927 
L 124.756364 181.610424 
L 128.814545 182.251512 
L 132.872727 182.850264 
L 136.930909 183.402144 
L 140.989091 183.90564 
L 145.047273 184.357728 
L 149.105455 184.755384 
L 153.163636 185.098608 
L 157.221818 185.382864 
L 161.28 185.60664 
L 165.338182 185.769936 
L 169.396364 185.868216 
L 173.454545 185.902992 
L 177.512727 185.869728 
L 181.570909 185.769936 
L 185.629091 185.602104 
L 189.687273 185.366232 
L 193.745455 185.060808 
L 197.803636 184.688856 
L 201.861818 184.248864 
L 205.92 183.743856 
L 209.978182 183.17232 
L 214.036364 182.538792 
L 218.094545 181.84176 
L 222.152727 181.087272 
L 226.210909 180.273816 
L 230.269091 179.405928 
L 234.327273 178.483608 
L 238.385455 177.511392 
L 242.443636 176.490792 
L 246.501818 175.424832 
L 250.56 174.313512 
L 254.618182 173.161368 
L 258.676364 171.9684 
L 262.734545 170.739144 
L 266.792727 169.4736 
L 270.850909 168.176304 
L 274.909091 166.845744 
L 278.967273 165.486456 
L 283.025455 164.099952 
L 287.083636 162.687744 
L 291.141818 161.251344 
L 295.2 159.793776 
L 299.258182 158.316552 
L 303.316364 156.82572 
L 307.374545 155.324304 
L 311.432727 153.825912 
L 315.490909 152.368344 
L 319.549091 151.210152 
L 323.607273 151.70004 
L 327.665455 153.103176 
L 331.723636 154.60308 
L 335.781818 156.113568 
L 339.84 157.616496 
L 343.898182 159.10884 
L 347.956364 160.58304 
L 352.014545 162.040608 
L 356.072727 163.47852 
L 360.130909 164.896776 
L 364.189091 166.293864 
L 368.247273 167.668272 
L 372.305455 169.02 
L 376.363636 170.346024 
L 380.421818 171.647856 
L 384.48 172.922472 
L 388.538182 174.169872 
L 392.596364 175.387032 
L 396.654545 176.575464 
L 400.712727 177.732144 
L 404.770909 178.857072 
L 408.829091 179.947224 
L 412.887273 181.0026 
L 416.945455 182.021688 
L 421.003636 183.001464 
L 425.061818 183.941928 
L 429.12 184.841568 
L 433.178182 185.69736 
L 437.236364 186.510816 
L 441.294545 187.2774 
L 445.352727 187.997112 
L 449.410909 188.66844 
L 453.469091 189.291384 
L 457.527273 189.861408 
L 461.585455 190.381536 
L 465.643636 190.848744 
L 469.701818 191.26152 
L 473.76 191.621376 
L 477.818182 191.925288 
L 481.876364 192.17628 
L 485.934545 192.369816 
L 489.992727 192.50892 
L 494.050909 192.59208 
L 498.109091 192.620808 
" clip-path="url(#p62ff431d11)" style="fill: none; stroke: #000000; stroke-opacity: 0.5; stroke-linecap: square"/>
   </g>
   <g id="line2d_21">
    <path d="M 92.290909 173.619504 
L 96.349091 173.26872 
L 100.407273 172.494576 
L 104.465455 171.558648 
L 108.523636 170.54712 
L 112.581818 169.485696 
L 116.64 168.386472 
L 120.698182 167.257008 
L 124.756364 166.097304 
L 128.814545 164.913408 
L 132.872727 163.703808 
L 136.930909 162.471528 
L 140.989091 161.21808 
L 145.047273 159.941952 
L 149.105455 158.646168 
L 153.163636 157.330728 
L 157.221818 155.995632 
L 161.28 154.643904 
L 165.338182 153.27252 
L 169.396364 151.886016 
L 173.454545 150.481368 
L 177.512727 149.0616 
L 181.570909 147.6252 
L 185.629091 146.175192 
L 189.687273 144.711576 
L 193.745455 143.234352 
L 197.803636 141.74352 
L 201.861818 140.242104 
L 205.92 138.731616 
L 209.978182 137.212056 
L 214.036364 135.684936 
L 218.094545 134.156304 
L 222.152727 132.627672 
L 226.210909 131.1066 
L 230.269091 129.605184 
L 234.327273 128.141568 
L 238.385455 126.753552 
L 242.443636 125.516736 
L 246.501818 124.588368 
L 250.56 124.237584 
L 254.618182 124.647336 
L 258.676364 125.661888 
L 262.734545 127.006056 
L 266.792727 128.510496 
L 270.850909 130.096584 
L 274.909091 131.725008 
L 278.967273 133.373088 
L 283.025455 135.033264 
L 287.083636 136.69344 
L 291.141818 138.353616 
L 295.2 140.006232 
L 299.258182 141.651288 
L 303.316364 143.282736 
L 307.374545 144.897552 
L 311.432727 146.485152 
L 315.490909 148.01076 
L 319.549091 149.221872 
L 323.607273 148.777344 
L 327.665455 147.4362 
L 331.723636 146.054232 
L 335.781818 144.831024 
L 339.84 144.075024 
L 343.898182 144.191448 
L 347.956364 145.063872 
L 352.014545 146.276496 
L 356.072727 147.61764 
L 360.130909 149.00868 
L 364.189091 150.41484 
L 368.247273 151.821 
L 372.305455 153.2196 
L 376.363636 154.60308 
L 380.421818 155.968416 
L 384.48 157.315608 
L 388.538182 158.64012 
L 392.596364 159.94044 
L 396.654545 161.215056 
L 400.712727 162.462456 
L 404.770909 163.68264 
L 408.829091 164.871072 
L 412.887273 166.029264 
L 416.945455 167.154192 
L 421.003636 168.242832 
L 425.061818 169.295184 
L 429.12 170.309736 
L 433.178182 171.281952 
L 437.236364 172.213344 
L 441.294545 173.099376 
L 445.352727 173.938536 
L 449.410909 174.729312 
L 453.469091 175.467168 
L 457.527273 176.152104 
L 461.585455 176.781096 
L 465.643636 177.35112 
L 469.701818 177.860664 
L 473.76 178.308216 
L 477.818182 178.690752 
L 481.876364 179.005248 
L 485.934545 179.251704 
L 489.992727 179.43012 
L 494.050909 179.53596 
L 498.109091 179.572248 
" clip-path="url(#p62ff431d11)" style="fill: none; stroke: #000000; stroke-opacity: 0.5; stroke-linecap: square"/>
   </g>
   <g id="line2d_22">
    <path d="M 92.290909 93.524328 
L 96.349091 93.522816 
L 100.407273 93.51828 
L 104.465455 93.512232 
L 108.523636 93.501648 
L 112.581818 93.489552 
L 116.64 93.474432 
L 120.698182 93.456288 
L 124.756364 93.436632 
L 128.814545 93.413952 
L 132.872727 93.38976 
L 136.930909 93.365568 
L 140.989091 93.338352 
L 145.047273 93.311136 
L 149.105455 93.28392 
L 153.163636 93.258216 
L 157.221818 93.234024 
L 161.28 93.21588 
L 165.338182 93.205296 
L 169.396364 93.206808 
L 173.454545 93.232512 
L 177.512727 93.29904 
L 181.570909 93.447216 
L 185.629091 93.76776 
L 189.687273 94.428504 
L 193.745455 95.539824 
L 197.803636 96.985296 
L 201.861818 98.5986 
L 205.92 100.290528 
L 209.978182 102.020256 
L 214.036364 103.766616 
L 218.094545 105.517512 
L 222.152727 107.260848 
L 226.210909 108.989064 
L 230.269091 110.688552 
L 234.327273 112.336632 
L 238.385455 113.898528 
L 242.443636 115.29864 
L 246.501818 116.37972 
L 250.56 116.877168 
L 254.618182 116.617104 
L 258.676364 115.77492 
L 262.734545 114.677208 
L 266.792727 113.670216 
L 270.850909 113.392008 
L 274.909091 114.276528 
L 278.967273 115.722 
L 283.025455 117.341352 
L 287.083636 119.01816 
L 291.141818 120.714624 
L 295.2 122.415624 
L 299.258182 124.1136 
L 303.316364 125.800992 
L 307.374545 127.476288 
L 311.432727 129.13344 
L 315.490909 130.769424 
L 319.549091 132.37668 
L 323.607273 133.946136 
L 327.665455 135.456624 
L 331.723636 136.862784 
L 335.781818 138.052728 
L 339.84 138.736152 
L 343.898182 138.510864 
L 347.956364 137.499336 
L 352.014545 136.114344 
L 356.072727 134.572104 
L 360.130909 132.949728 
L 364.189091 131.283504 
L 368.247273 129.58704 
L 372.305455 127.87092 
L 376.363636 126.141192 
L 380.421818 124.397856 
L 384.48 122.648472 
L 388.538182 120.891528 
L 392.596364 119.130048 
L 396.654545 117.367056 
L 400.712727 115.602552 
L 404.770909 113.83956 
L 408.829091 112.079592 
L 412.887273 110.32416 
L 416.945455 108.574776 
L 421.003636 106.835976 
L 425.061818 105.109272 
L 429.12 103.396176 
L 433.178182 101.702736 
L 437.236364 100.031976 
L 441.294545 98.38692 
L 445.352727 96.775128 
L 449.410909 95.201136 
L 453.469091 93.675528 
L 457.527273 92.204352 
L 461.585455 90.801216 
L 465.643636 89.48124 
L 469.701818 88.27164 
L 473.76 87.3342 
L 477.818182 87.102864 
L 481.876364 87.063552 
L 485.934545 87.04692 
L 489.992727 87.03936 
L 494.050909 87.034824 
L 498.109091 87.033312 
" clip-path="url(#p62ff431d11)" style="fill: none; stroke: #000000; stroke-opacity: 0.5; stroke-linecap: square"/>
   </g>
   <g id="line2d_23">
    <path d="M 92.290909 77.646816 
L 96.349091 77.643792 
L 100.407273 77.633208 
L 104.465455 77.618088 
L 108.523636 77.59692 
L 112.581818 77.57424 
L 116.64 77.548536 
L 120.698182 77.525856 
L 124.756364 77.507712 
L 128.814545 77.504688 
L 132.872727 77.524344 
L 136.930909 77.586336 
L 140.989091 77.713344 
L 145.047273 77.947704 
L 149.105455 78.343848 
L 153.163636 78.966792 
L 157.221818 79.855848 
L 161.28 80.994384 
L 165.338182 82.32948 
L 169.396364 83.794608 
L 173.454545 85.333824 
L 177.512727 86.898744 
L 181.570909 88.427376 
L 185.629091 89.816904 
L 189.687273 90.893448 
L 193.745455 91.53756 
L 197.803636 91.865664 
L 201.861818 92.045592 
L 205.92 92.171088 
L 209.978182 92.290536 
L 214.036364 92.44476 
L 218.094545 92.67912 
L 222.152727 93.06468 
L 226.210909 93.693672 
L 230.269091 94.643208 
L 234.327273 95.902704 
L 238.385455 97.38144 
L 242.443636 98.993232 
L 246.501818 100.674576 
L 250.56 102.387672 
L 254.618182 104.105304 
L 258.676364 105.792696 
L 262.734545 107.392392 
L 266.792727 108.719928 
L 270.850909 109.214352 
L 274.909091 108.481032 
L 278.967273 107.132328 
L 283.025455 105.573456 
L 287.083636 103.92084 
L 291.141818 102.215304 
L 295.2 100.474992 
L 299.258182 98.710488 
L 303.316364 96.926328 
L 307.374545 95.125536 
L 311.432727 93.311136 
L 315.490909 91.487664 
L 319.549091 89.683848 
L 323.607273 88.7328 
L 327.665455 88.614864 
L 331.723636 88.527168 
L 335.781818 88.44552 
L 339.84 88.366896 
L 343.898182 88.291296 
L 347.956364 88.217208 
L 352.014545 88.146144 
L 356.072727 88.076592 
L 360.130909 88.010064 
L 364.189091 87.945048 
L 368.247273 87.883056 
L 372.305455 87.824088 
L 376.363636 87.766632 
L 380.421818 87.710688 
L 384.48 87.657768 
L 388.538182 87.607872 
L 392.596364 87.559488 
L 396.654545 87.514128 
L 400.712727 87.47028 
L 404.770909 87.427944 
L 408.829091 87.388632 
L 412.887273 87.352344 
L 416.945455 87.317568 
L 421.003636 87.284304 
L 425.061818 87.254064 
L 429.12 87.225336 
L 433.178182 87.19812 
L 437.236364 87.172416 
L 441.294545 87.149736 
L 445.352727 87.127056 
L 449.410909 87.1074 
L 453.469091 87.087744 
L 457.527273 87.068088 
L 461.585455 87.048432 
L 465.643636 87.025752 
L 469.701818 86.983416 
L 473.76 86.779296 
L 477.818182 85.99608 
L 481.876364 85.167504 
L 485.934545 84.481056 
L 489.992727 83.973024 
L 494.050909 83.66004 
L 498.109091 83.5542 
" clip-path="url(#p62ff431d11)" style="fill: none; stroke: #000000; stroke-opacity: 0.5; stroke-linecap: square"/>
   </g>
   <g id="patch_3">
    <path d="M 72 384.48 
L 72 51.84 
" style="fill: none; stroke: #000000; stroke-width: 0.8; stroke-linejoin: miter; stroke-linecap: square"/>
   </g>
   <g id="patch_4">
    <path d="M 518.4 384.48 
L 518.4 51.84 
" style="fill: none; stroke: #000000; stroke-width: 0.8; stroke-linejoin: miter; stroke-linecap: square"/>
   </g>
   <g id="patch_5">
    <path d="M 72 384.48 
L 518.4 384.48 
" style="fill: none; stroke: #000000; stroke-width: 0.8; stroke-linejoin: miter; stroke-linecap: square"/>
   </g>
   <g id="patch_6">
    <path d="M 72 51.84 
L 518.4 51.84 
" style="fill: none; stroke: #000000; stroke-width: 0.8; stroke-linejoin: miter; stroke-linecap: square"/>
   </g>
  </g>
 </g>
 <defs>
  <clipPath id="p62ff431d11">
   <rect x="72" y="51.84" width="446.4" height="332.64"/>
  </clipPath>
 </defs>
</svg>
