<?xml version="1.0" encoding="utf-8" standalone="no"?>
<!DOCTYPE svg PUBLIC "-//W3C//DTD SVG 1.1//EN"
  "http://www.w3.org/Graphics/SVG/1.1/DTD/svg11.dtd">
<svg xmlns:xlink="http://www.w3.org/1999/xlink" width="576pt" height="432pt" viewBox="0 0 576 432" xmlns="http://www.w3.org/2000/svg" version="1.1">
 <metadata>
  <rdf:RDF xmlns:dc="http://purl.org/dc/elements/1.1/" xmlns:cc="http://creativecommons.org/ns#" xmlns:rdf="http://www.w3.org/1999/02/22-rdf-syntax-ns#">
   <cc:Work>
    <dc:type rdf:resource="http://purl.org/dc/dcmitype/StillImage"/>
    <dc:date>2023-05-04T07:23:49.949426</dc:date>
    <dc:format>image/svg+xml</dc:format>
    <dc:creator>
     <cc:Agent>
      <dc:title>Matplotlib v3.7.1, https://matplotlib.org/</dc:title>
     </cc:Agent>
    </dc:creator>
   </cc:Work>
  </rdf:RDF>
 </metadata>
 <defs>
  <style type="text/css">*{stroke-linejoin: round; stroke-linecap: butt}</style>
 </defs>
 <g id="figure_1">
  <g id="patch_1">
   <path d="M 0 432 
L 576 432 
L 576 0 
L 0 0 
z
" style="fill: #ffffff"/>
  </g>
  <g id="axes_1">
   <g id="patch_2">
    <path d="M 72 384.48 
L 518.4 384.48 
L 518.4 51.84 
L 72 51.84 
z
" style="fill: #ffffff"/>
   </g>
   <g id="matplotlib.axis_1">
    <g id="xtick_1">
     <g id="line2d_1">
      <defs>
       <path id="mce7caa7326" d="M 0 0 
L 0 3.5 
" style="stroke: #000000; stroke-width: 0.8"/>
      </defs>
      <g>
       <use xlink:href="#mce7caa7326" x="92.290909" y="384.48" style="stroke: #000000; stroke-width: 0.8"/>
      </g>
     </g>
     <g id="text_1">
      <!-- 0.0 -->
      <g transform="translate(84.339347 399.078438) scale(0.1 -0.1)">
       <defs>
        <path id="DejaVuSans-30" d="M 2034 4250 
Q 1547 4250 1301 3770 
Q 1056 3291 1056 2328 
Q 1056 1369 1301 889 
Q 1547 409 2034 409 
Q 2525 409 2770 889 
Q 3016 1369 3016 2328 
Q 3016 3291 2770 3770 
Q 2525 4250 2034 4250 
z
M 2034 4750 
Q 2819 4750 3233 4129 
Q 3647 3509 3647 2328 
Q 3647 1150 3233 529 
Q 2819 -91 2034 -91 
Q 1250 -91 836 529 
Q 422 1150 422 2328 
Q 422 3509 836 4129 
Q 1250 4750 2034 4750 
z
" transform="scale(0.015625)"/>
        <path id="DejaVuSans-2e" d="M 684 794 
L 1344 794 
L 1344 0 
L 684 0 
L 684 794 
z
" transform="scale(0.015625)"/>
       </defs>
       <use xlink:href="#DejaVuSans-30"/>
       <use xlink:href="#DejaVuSans-2e" x="63.623047"/>
       <use xlink:href="#DejaVuSans-30" x="95.410156"/>
      </g>
     </g>
    </g>
    <g id="xtick_2">
     <g id="line2d_2">
      <g>
       <use xlink:href="#mce7caa7326" x="173.454545" y="384.48" style="stroke: #000000; stroke-width: 0.8"/>
      </g>
     </g>
     <g id="text_2">
      <!-- 0.2 -->
      <g transform="translate(165.502983 399.078438) scale(0.1 -0.1)">
       <defs>
        <path id="DejaVuSans-32" d="M 1228 531 
L 3431 531 
L 3431 0 
L 469 0 
L 469 531 
Q 828 903 1448 1529 
Q 2069 2156 2228 2338 
Q 2531 2678 2651 2914 
Q 2772 3150 2772 3378 
Q 2772 3750 2511 3984 
Q 2250 4219 1831 4219 
Q 1534 4219 1204 4116 
Q 875 4013 500 3803 
L 500 4441 
Q 881 4594 1212 4672 
Q 1544 4750 1819 4750 
Q 2544 4750 2975 4387 
Q 3406 4025 3406 3419 
Q 3406 3131 3298 2873 
Q 3191 2616 2906 2266 
Q 2828 2175 2409 1742 
Q 1991 1309 1228 531 
z
" transform="scale(0.015625)"/>
       </defs>
       <use xlink:href="#DejaVuSans-30"/>
       <use xlink:href="#DejaVuSans-2e" x="63.623047"/>
       <use xlink:href="#DejaVuSans-32" x="95.410156"/>
      </g>
     </g>
    </g>
    <g id="xtick_3">
     <g id="line2d_3">
      <g>
       <use xlink:href="#mce7caa7326" x="254.618182" y="384.48" style="stroke: #000000; stroke-width: 0.8"/>
      </g>
     </g>
     <g id="text_3">
      <!-- 0.4 -->
      <g transform="translate(246.666619 399.078438) scale(0.1 -0.1)">
       <defs>
        <path id="DejaVuSans-34" d="M 2419 4116 
L 825 1625 
L 2419 1625 
L 2419 4116 
z
M 2253 4666 
L 3047 4666 
L 3047 1625 
L 3713 1625 
L 3713 1100 
L 3047 1100 
L 3047 0 
L 2419 0 
L 2419 1100 
L 313 1100 
L 313 1709 
L 2253 4666 
z
" transform="scale(0.015625)"/>
       </defs>
       <use xlink:href="#DejaVuSans-30"/>
       <use xlink:href="#DejaVuSans-2e" x="63.623047"/>
       <use xlink:href="#DejaVuSans-34" x="95.410156"/>
      </g>
     </g>
    </g>
    <g id="xtick_4">
     <g id="line2d_4">
      <g>
       <use xlink:href="#mce7caa7326" x="335.781818" y="384.48" style="stroke: #000000; stroke-width: 0.8"/>
      </g>
     </g>
     <g id="text_4">
      <!-- 0.6 -->
      <g transform="translate(327.830256 399.078438) scale(0.1 -0.1)">
       <defs>
        <path id="DejaVuSans-36" d="M 2113 2584 
Q 1688 2584 1439 2293 
Q 1191 2003 1191 1497 
Q 1191 994 1439 701 
Q 1688 409 2113 409 
Q 2538 409 2786 701 
Q 3034 994 3034 1497 
Q 3034 2003 2786 2293 
Q 2538 2584 2113 2584 
z
M 3366 4563 
L 3366 3988 
Q 3128 4100 2886 4159 
Q 2644 4219 2406 4219 
Q 1781 4219 1451 3797 
Q 1122 3375 1075 2522 
Q 1259 2794 1537 2939 
Q 1816 3084 2150 3084 
Q 2853 3084 3261 2657 
Q 3669 2231 3669 1497 
Q 3669 778 3244 343 
Q 2819 -91 2113 -91 
Q 1303 -91 875 529 
Q 447 1150 447 2328 
Q 447 3434 972 4092 
Q 1497 4750 2381 4750 
Q 2619 4750 2861 4703 
Q 3103 4656 3366 4563 
z
" transform="scale(0.015625)"/>
       </defs>
       <use xlink:href="#DejaVuSans-30"/>
       <use xlink:href="#DejaVuSans-2e" x="63.623047"/>
       <use xlink:href="#DejaVuSans-36" x="95.410156"/>
      </g>
     </g>
    </g>
    <g id="xtick_5">
     <g id="line2d_5">
      <g>
       <use xlink:href="#mce7caa7326" x="416.945455" y="384.48" style="stroke: #000000; stroke-width: 0.8"/>
      </g>
     </g>
     <g id="text_5">
      <!-- 0.8 -->
      <g transform="translate(408.993892 399.078438) scale(0.1 -0.1)">
       <defs>
        <path id="DejaVuSans-38" d="M 2034 2216 
Q 1584 2216 1326 1975 
Q 1069 1734 1069 1313 
Q 1069 891 1326 650 
Q 1584 409 2034 409 
Q 2484 409 2743 651 
Q 3003 894 3003 1313 
Q 3003 1734 2745 1975 
Q 2488 2216 2034 2216 
z
M 1403 2484 
Q 997 2584 770 2862 
Q 544 3141 544 3541 
Q 544 4100 942 4425 
Q 1341 4750 2034 4750 
Q 2731 4750 3128 4425 
Q 3525 4100 3525 3541 
Q 3525 3141 3298 2862 
Q 3072 2584 2669 2484 
Q 3125 2378 3379 2068 
Q 3634 1759 3634 1313 
Q 3634 634 3220 271 
Q 2806 -91 2034 -91 
Q 1263 -91 848 271 
Q 434 634 434 1313 
Q 434 1759 690 2068 
Q 947 2378 1403 2484 
z
M 1172 3481 
Q 1172 3119 1398 2916 
Q 1625 2713 2034 2713 
Q 2441 2713 2670 2916 
Q 2900 3119 2900 3481 
Q 2900 3844 2670 4047 
Q 2441 4250 2034 4250 
Q 1625 4250 1398 4047 
Q 1172 3844 1172 3481 
z
" transform="scale(0.015625)"/>
       </defs>
       <use xlink:href="#DejaVuSans-30"/>
       <use xlink:href="#DejaVuSans-2e" x="63.623047"/>
       <use xlink:href="#DejaVuSans-38" x="95.410156"/>
      </g>
     </g>
    </g>
    <g id="xtick_6">
     <g id="line2d_6">
      <g>
       <use xlink:href="#mce7caa7326" x="498.109091" y="384.48" style="stroke: #000000; stroke-width: 0.8"/>
      </g>
     </g>
     <g id="text_6">
      <!-- 1.0 -->
      <g transform="translate(490.157528 399.078438) scale(0.1 -0.1)">
       <defs>
        <path id="DejaVuSans-31" d="M 794 531 
L 1825 531 
L 1825 4091 
L 703 3866 
L 703 4441 
L 1819 4666 
L 2450 4666 
L 2450 531 
L 3481 531 
L 3481 0 
L 794 0 
L 794 531 
z
" transform="scale(0.015625)"/>
       </defs>
       <use xlink:href="#DejaVuSans-31"/>
       <use xlink:href="#DejaVuSans-2e" x="63.623047"/>
       <use xlink:href="#DejaVuSans-30" x="95.410156"/>
      </g>
     </g>
    </g>
   </g>
   <g id="matplotlib.axis_2">
    <g id="ytick_1">
     <g id="line2d_7">
      <defs>
       <path id="m84143927e6" d="M 0 0 
L -3.5 0 
" style="stroke: #000000; stroke-width: 0.8"/>
      </defs>
      <g>
       <use xlink:href="#m84143927e6" x="72" y="369.36" style="stroke: #000000; stroke-width: 0.8"/>
      </g>
     </g>
     <g id="text_7">
      <!-- −5.0 -->
      <g transform="translate(40.717187 373.159219) scale(0.1 -0.1)">
       <defs>
        <path id="DejaVuSans-2212" d="M 678 2272 
L 4684 2272 
L 4684 1741 
L 678 1741 
L 678 2272 
z
" transform="scale(0.015625)"/>
        <path id="DejaVuSans-35" d="M 691 4666 
L 3169 4666 
L 3169 4134 
L 1269 4134 
L 1269 2991 
Q 1406 3038 1543 3061 
Q 1681 3084 1819 3084 
Q 2600 3084 3056 2656 
Q 3513 2228 3513 1497 
Q 3513 744 3044 326 
Q 2575 -91 1722 -91 
Q 1428 -91 1123 -41 
Q 819 9 494 109 
L 494 744 
Q 775 591 1075 516 
Q 1375 441 1709 441 
Q 2250 441 2565 725 
Q 2881 1009 2881 1497 
Q 2881 1984 2565 2268 
Q 2250 2553 1709 2553 
Q 1456 2553 1204 2497 
Q 953 2441 691 2322 
L 691 4666 
z
" transform="scale(0.015625)"/>
       </defs>
       <use xlink:href="#DejaVuSans-2212"/>
       <use xlink:href="#DejaVuSans-35" x="83.789062"/>
       <use xlink:href="#DejaVuSans-2e" x="147.412109"/>
       <use xlink:href="#DejaVuSans-30" x="179.199219"/>
      </g>
     </g>
    </g>
    <g id="ytick_2">
     <g id="line2d_8">
      <g>
       <use xlink:href="#m84143927e6" x="72" y="331.56" style="stroke: #000000; stroke-width: 0.8"/>
      </g>
     </g>
     <g id="text_8">
      <!-- −2.5 -->
      <g transform="translate(40.717187 335.359219) scale(0.1 -0.1)">
       <use xlink:href="#DejaVuSans-2212"/>
       <use xlink:href="#DejaVuSans-32" x="83.789062"/>
       <use xlink:href="#DejaVuSans-2e" x="147.412109"/>
       <use xlink:href="#DejaVuSans-35" x="179.199219"/>
      </g>
     </g>
    </g>
    <g id="ytick_3">
     <g id="line2d_9">
      <g>
       <use xlink:href="#m84143927e6" x="72" y="293.76" style="stroke: #000000; stroke-width: 0.8"/>
      </g>
     </g>
     <g id="text_9">
      <!-- 0.0 -->
      <g transform="translate(49.096875 297.559219) scale(0.1 -0.1)">
       <use xlink:href="#DejaVuSans-30"/>
       <use xlink:href="#DejaVuSans-2e" x="63.623047"/>
       <use xlink:href="#DejaVuSans-30" x="95.410156"/>
      </g>
     </g>
    </g>
    <g id="ytick_4">
     <g id="line2d_10">
      <g>
       <use xlink:href="#m84143927e6" x="72" y="255.96" style="stroke: #000000; stroke-width: 0.8"/>
      </g>
     </g>
     <g id="text_10">
      <!-- 2.5 -->
      <g transform="translate(49.096875 259.759219) scale(0.1 -0.1)">
       <use xlink:href="#DejaVuSans-32"/>
       <use xlink:href="#DejaVuSans-2e" x="63.623047"/>
       <use xlink:href="#DejaVuSans-35" x="95.410156"/>
      </g>
     </g>
    </g>
    <g id="ytick_5">
     <g id="line2d_11">
      <g>
       <use xlink:href="#m84143927e6" x="72" y="218.16" style="stroke: #000000; stroke-width: 0.8"/>
      </g>
     </g>
     <g id="text_11">
      <!-- 5.0 -->
      <g transform="translate(49.096875 221.959219) scale(0.1 -0.1)">
       <use xlink:href="#DejaVuSans-35"/>
       <use xlink:href="#DejaVuSans-2e" x="63.623047"/>
       <use xlink:href="#DejaVuSans-30" x="95.410156"/>
      </g>
     </g>
    </g>
    <g id="ytick_6">
     <g id="line2d_12">
      <g>
       <use xlink:href="#m84143927e6" x="72" y="180.36" style="stroke: #000000; stroke-width: 0.8"/>
      </g>
     </g>
     <g id="text_12">
      <!-- 7.5 -->
      <g transform="translate(49.096875 184.159219) scale(0.1 -0.1)">
       <defs>
        <path id="DejaVuSans-37" d="M 525 4666 
L 3525 4666 
L 3525 4397 
L 1831 0 
L 1172 0 
L 2766 4134 
L 525 4134 
L 525 4666 
z
" transform="scale(0.015625)"/>
       </defs>
       <use xlink:href="#DejaVuSans-37"/>
       <use xlink:href="#DejaVuSans-2e" x="63.623047"/>
       <use xlink:href="#DejaVuSans-35" x="95.410156"/>
      </g>
     </g>
    </g>
    <g id="ytick_7">
     <g id="line2d_13">
      <g>
       <use xlink:href="#m84143927e6" x="72" y="142.56" style="stroke: #000000; stroke-width: 0.8"/>
      </g>
     </g>
     <g id="text_13">
      <!-- 10.0 -->
      <g transform="translate(42.734375 146.359219) scale(0.1 -0.1)">
       <use xlink:href="#DejaVuSans-31"/>
       <use xlink:href="#DejaVuSans-30" x="63.623047"/>
       <use xlink:href="#DejaVuSans-2e" x="127.246094"/>
       <use xlink:href="#DejaVuSans-30" x="159.033203"/>
      </g>
     </g>
    </g>
    <g id="ytick_8">
     <g id="line2d_14">
      <g>
       <use xlink:href="#m84143927e6" x="72" y="104.76" style="stroke: #000000; stroke-width: 0.8"/>
      </g>
     </g>
     <g id="text_14">
      <!-- 12.5 -->
      <g transform="translate(42.734375 108.559219) scale(0.1 -0.1)">
       <use xlink:href="#DejaVuSans-31"/>
       <use xlink:href="#DejaVuSans-32" x="63.623047"/>
       <use xlink:href="#DejaVuSans-2e" x="127.246094"/>
       <use xlink:href="#DejaVuSans-35" x="159.033203"/>
      </g>
     </g>
    </g>
    <g id="ytick_9">
     <g id="line2d_15">
      <g>
       <use xlink:href="#m84143927e6" x="72" y="66.96" style="stroke: #000000; stroke-width: 0.8"/>
      </g>
     </g>
     <g id="text_15">
      <!-- 15.0 -->
      <g transform="translate(42.734375 70.759219) scale(0.1 -0.1)">
       <use xlink:href="#DejaVuSans-31"/>
       <use xlink:href="#DejaVuSans-35" x="63.623047"/>
       <use xlink:href="#DejaVuSans-2e" x="127.246094"/>
       <use xlink:href="#DejaVuSans-30" x="159.033203"/>
      </g>
     </g>
    </g>
   </g>
   <g id="line2d_16">
    <path d="M 92.290909 326.206008 
L 96.349091 326.246832 
L 100.407273 326.369304 
L 104.465455 326.568888 
L 108.523636 326.84256 
L 112.581818 327.179736 
L 116.64 327.577392 
L 120.698182 328.026456 
L 124.756364 328.519368 
L 128.814545 329.053104 
L 132.872727 329.618592 
L 136.930909 330.21432 
L 140.989091 330.832728 
L 145.047273 331.472304 
L 149.105455 332.128512 
L 153.163636 332.79984 
L 157.221818 333.483264 
L 161.28 334.17576 
L 165.338182 334.877328 
L 169.396364 335.584944 
L 173.454545 336.298608 
L 177.512727 337.015296 
L 181.570909 337.735008 
L 185.629091 338.456232 
L 189.687273 339.177456 
L 193.745455 339.89868 
L 197.803636 340.619904 
L 201.861818 341.338104 
L 205.92 342.056304 
L 209.978182 342.769968 
L 214.036364 343.480608 
L 218.094545 344.186712 
L 222.152727 344.889792 
L 226.210909 345.588336 
L 230.269091 346.280832 
L 234.327273 346.96728 
L 238.385455 347.649192 
L 242.443636 348.323544 
L 246.501818 348.991848 
L 250.56 349.652592 
L 254.618182 350.307288 
L 258.676364 350.954424 
L 262.734545 351.594 
L 266.792727 352.226016 
L 270.850909 352.84896 
L 274.909091 353.464344 
L 278.967273 354.070656 
L 283.025455 354.667896 
L 287.083636 355.257576 
L 291.141818 355.836672 
L 295.2 356.406696 
L 299.258182 356.96916 
L 303.316364 357.52104 
L 307.374545 358.062336 
L 311.432727 358.59456 
L 315.490909 359.117712 
L 319.549091 359.63028 
L 323.607273 360.132264 
L 327.665455 360.623664 
L 331.723636 361.10448 
L 335.781818 361.576224 
L 339.84 362.037384 
L 343.898182 362.486448 
L 347.956364 362.924928 
L 352.014545 363.354336 
L 356.072727 363.771648 
L 360.130909 364.176864 
L 364.189091 364.573008 
L 368.247273 364.957056 
L 372.305455 365.329008 
L 376.363636 365.691888 
L 380.421818 366.04116 
L 384.48 366.379848 
L 388.538182 366.707952 
L 392.596364 367.02396 
L 396.654545 367.327872 
L 400.712727 367.6212 
L 404.770909 367.902432 
L 408.829091 368.171568 
L 412.887273 368.43012 
L 416.945455 368.676576 
L 421.003636 368.909424 
L 425.061818 369.1332 
L 429.12 369.343368 
L 433.178182 369.54144 
L 437.236364 369.728928 
L 441.294545 369.90432 
L 445.352727 370.066104 
L 449.410909 370.217304 
L 453.469091 370.356408 
L 457.527273 370.483416 
L 461.585455 370.598328 
L 465.643636 370.701144 
L 469.701818 370.791864 
L 473.76 370.870488 
L 477.818182 370.937016 
L 481.876364 370.991448 
L 485.934545 371.033784 
L 489.992727 371.064024 
L 494.050909 371.082168 
L 498.109091 371.088216 
" clip-path="url(#pa261d3c7eb)" style="fill: none; stroke: #000000; stroke-opacity: 0.5; stroke-linecap: square"/>
   </g>
   <g id="line2d_17">
    <path d="M 92.290909 310.98924 
L 96.349091 310.952952 
L 100.407273 310.847112 
L 104.465455 310.676256 
L 108.523636 310.443408 
L 112.581818 310.154616 
L 116.64 309.818952 
L 120.698182 309.440952 
L 124.756364 309.028176 
L 128.814545 308.58516 
L 132.872727 308.117952 
L 136.930909 307.631088 
L 140.989091 307.127592 
L 145.047273 306.612 
L 149.105455 306.084312 
L 153.163636 305.549064 
L 157.221818 305.006256 
L 161.28 304.4574 
L 165.338182 303.904008 
L 169.396364 303.347592 
L 173.454545 302.788152 
L 177.512727 302.225688 
L 181.570909 301.661712 
L 185.629091 301.094712 
L 189.687273 300.5262 
L 193.745455 299.954664 
L 197.803636 299.381616 
L 201.861818 298.807056 
L 205.92 298.22796 
L 209.978182 297.648864 
L 214.036364 297.065232 
L 218.094545 296.478576 
L 222.152727 295.888896 
L 226.210909 295.29468 
L 230.269091 294.69744 
L 234.327273 294.097176 
L 238.385455 293.490864 
L 242.443636 292.880016 
L 246.501818 292.264632 
L 250.56 291.644712 
L 254.618182 291.018744 
L 258.676364 290.38824 
L 262.734545 289.750176 
L 266.792727 289.107576 
L 270.850909 288.457416 
L 274.909091 287.80272 
L 278.967273 287.140464 
L 283.025455 286.470648 
L 287.083636 285.794784 
L 291.141818 285.112872 
L 295.2 284.4234 
L 299.258182 283.726368 
L 303.316364 283.023288 
L 307.374545 282.311136 
L 311.432727 281.592936 
L 315.490909 280.868688 
L 319.549091 280.135368 
L 323.607273 279.396 
L 327.665455 278.64756 
L 331.723636 277.893072 
L 335.781818 277.131024 
L 339.84 276.362928 
L 343.898182 275.587272 
L 347.956364 274.804056 
L 352.014545 274.014792 
L 356.072727 273.217968 
L 360.130909 272.415096 
L 364.189091 271.606176 
L 368.247273 270.791208 
L 372.305455 269.970192 
L 376.363636 269.143128 
L 380.421818 268.311528 
L 384.48 267.475392 
L 388.538182 266.633208 
L 392.596364 265.788 
L 396.654545 264.939768 
L 400.712727 264.087 
L 404.770909 263.23272 
L 408.829091 262.376928 
L 412.887273 261.521136 
L 416.945455 260.663832 
L 421.003636 259.809552 
L 425.061818 258.956784 
L 429.12 258.108552 
L 433.178182 257.264856 
L 437.236364 256.430232 
L 441.294545 255.60468 
L 445.352727 254.792736 
L 449.410909 253.995912 
L 453.469091 253.218744 
L 457.527273 252.46728 
L 461.585455 251.746056 
L 465.643636 251.059608 
L 469.701818 250.41852 
L 473.76 249.830352 
L 477.818182 249.305688 
L 481.876364 248.8536 
L 485.934545 248.487696 
L 489.992727 248.215536 
L 494.050909 248.049216 
L 498.109091 247.993272 
" clip-path="url(#pa261d3c7eb)" style="fill: none; stroke: #000000; stroke-opacity: 0.5; stroke-linecap: square"/>
   </g>
   <g id="line2d_18">
    <path d="M 92.290909 266.769288 
L 96.349091 266.752656 
L 100.407273 266.701248 
L 104.465455 266.616576 
L 108.523636 266.497128 
L 112.581818 266.345928 
L 116.64 266.161464 
L 120.698182 265.943736 
L 124.756364 265.695768 
L 128.814545 265.416048 
L 132.872727 265.106088 
L 136.930909 264.765888 
L 140.989091 264.398472 
L 145.047273 264.002328 
L 149.105455 263.581992 
L 153.163636 263.13444 
L 157.221818 262.664208 
L 161.28 262.169784 
L 165.338182 261.655704 
L 169.396364 261.120456 
L 173.454545 260.567064 
L 177.512727 259.99704 
L 181.570909 259.411896 
L 185.629091 258.811632 
L 189.687273 258.199272 
L 193.745455 257.576328 
L 197.803636 256.9428 
L 201.861818 256.3002 
L 205.92 255.651552 
L 209.978182 254.996856 
L 214.036364 254.337624 
L 218.094545 253.675368 
L 222.152727 253.010088 
L 226.210909 252.343296 
L 230.269091 251.674992 
L 234.327273 251.006688 
L 238.385455 250.339896 
L 242.443636 249.673104 
L 246.501818 249.006312 
L 250.56 248.342544 
L 254.618182 247.680288 
L 258.676364 247.019544 
L 262.734545 246.360312 
L 266.792727 245.702592 
L 270.850909 245.047896 
L 274.909091 244.3932 
L 278.967273 243.741528 
L 283.025455 243.089856 
L 287.083636 242.439696 
L 291.141818 241.791048 
L 295.2 241.1424 
L 299.258182 240.495264 
L 303.316364 239.848128 
L 307.374545 239.202504 
L 311.432727 238.55688 
L 315.490909 237.912768 
L 319.549091 237.268656 
L 323.607273 236.624544 
L 327.665455 235.981944 
L 331.723636 235.339344 
L 335.781818 234.698256 
L 339.84 234.05868 
L 343.898182 233.419104 
L 347.956364 232.782552 
L 352.014545 232.147512 
L 356.072727 231.515496 
L 360.130909 230.884992 
L 364.189091 230.259024 
L 368.247273 229.637592 
L 372.305455 229.019184 
L 376.363636 228.406824 
L 380.421818 227.799 
L 384.48 227.200248 
L 388.538182 226.607544 
L 392.596364 226.023912 
L 396.654545 225.450864 
L 400.712727 224.889912 
L 404.770909 224.34408 
L 408.829091 223.813368 
L 412.887273 223.306848 
L 416.945455 222.83208 
L 421.003636 222.410232 
L 425.061818 222.092712 
L 429.12 222.001992 
L 433.178182 222.246936 
L 437.236364 222.732288 
L 441.294545 223.326504 
L 445.352727 223.96608 
L 449.410909 224.625312 
L 453.469091 225.28908 
L 457.527273 225.948312 
L 461.585455 226.590912 
L 465.643636 227.212344 
L 469.701818 227.799 
L 473.76 228.34332 
L 477.818182 228.833208 
L 481.876364 229.256568 
L 485.934545 229.601304 
L 489.992727 229.856832 
L 494.050909 230.015592 
L 498.109091 230.068512 
" clip-path="url(#pa261d3c7eb)" style="fill: none; stroke: #000000; stroke-opacity: 0.5; stroke-linecap: square"/>
   </g>
   <g id="line2d_19">
    <path d="M 92.290909 245.318544 
L 96.349091 245.309472 
L 100.407273 245.283768 
L 104.465455 245.23992 
L 108.523636 245.17944 
L 112.581818 245.102328 
L 116.64 245.00556 
L 120.698182 244.893672 
L 124.756364 244.762128 
L 128.814545 244.613952 
L 132.872727 244.447632 
L 136.930909 244.263168 
L 140.989091 244.06056 
L 145.047273 243.838296 
L 149.105455 243.597888 
L 153.163636 243.339336 
L 157.221818 243.059616 
L 161.28 242.761752 
L 165.338182 242.444232 
L 169.396364 242.107056 
L 173.454545 241.748712 
L 177.512727 241.370712 
L 181.570909 240.971544 
L 185.629091 240.551208 
L 189.687273 240.109704 
L 193.745455 239.647032 
L 197.803636 239.163192 
L 201.861818 238.659696 
L 205.92 238.13352 
L 209.978182 237.586176 
L 214.036364 237.017664 
L 218.094545 236.429496 
L 222.152727 235.821672 
L 226.210909 235.194192 
L 230.269091 234.548568 
L 234.327273 233.8848 
L 238.385455 233.2044 
L 242.443636 232.50888 
L 246.501818 231.79824 
L 250.56 231.075504 
L 254.618182 230.342184 
L 258.676364 229.59828 
L 262.734545 228.846816 
L 266.792727 228.090816 
L 270.850909 227.33028 
L 274.909091 226.568232 
L 278.967273 225.807696 
L 283.025455 225.051696 
L 287.083636 224.300232 
L 291.141818 223.556328 
L 295.2 222.826032 
L 299.258182 222.109344 
L 303.316364 221.409288 
L 307.374545 220.728888 
L 311.432727 220.074192 
L 315.490909 219.443688 
L 319.549091 218.844936 
L 323.607273 218.279448 
L 327.665455 217.748736 
L 331.723636 217.26036 
L 335.781818 216.812808 
L 339.84 216.41364 
L 343.898182 216.061344 
L 347.956364 215.761968 
L 352.014545 215.515512 
L 356.072727 215.326512 
L 360.130909 215.193456 
L 364.189091 215.119368 
L 368.247273 215.104248 
L 372.305455 215.146584 
L 376.363636 215.247888 
L 380.421818 215.406648 
L 384.48 215.621352 
L 388.538182 215.887464 
L 392.596364 216.204984 
L 396.654545 216.570888 
L 400.712727 216.979128 
L 404.770909 217.42668 
L 408.829091 217.909008 
L 412.887273 218.41704 
L 416.945455 218.93868 
L 421.003636 219.451248 
L 425.061818 219.900312 
L 429.12 220.160376 
L 433.178182 220.119552 
L 437.236364 219.873096 
L 441.294545 219.546504 
L 445.352727 219.200256 
L 449.410909 218.858544 
L 453.469091 218.528928 
L 457.527273 218.217456 
L 461.585455 217.930176 
L 465.643636 217.667088 
L 469.701818 217.431216 
L 473.76 217.224072 
L 477.818182 217.047168 
L 481.876364 216.900504 
L 485.934545 216.785592 
L 489.992727 216.702432 
L 494.050909 216.652536 
L 498.109091 216.637416 
" clip-path="url(#pa261d3c7eb)" style="fill: none; stroke: #000000; stroke-opacity: 0.5; stroke-linecap: square"/>
   </g>
   <g id="line2d_20">
    <path d="M 92.290909 174.13056 
L 96.349091 174.124512 
L 100.407273 174.103344 
L 104.465455 174.07008 
L 108.523636 174.023208 
L 112.581818 173.962728 
L 116.64 173.88864 
L 120.698182 173.802456 
L 124.756364 173.702664 
L 128.814545 173.589264 
L 132.872727 173.462256 
L 136.930909 173.323152 
L 140.989091 173.17044 
L 145.047273 173.00412 
L 149.105455 172.825704 
L 153.163636 172.635192 
L 157.221818 172.432584 
L 161.28 172.216368 
L 165.338182 171.989568 
L 169.396364 171.750672 
L 173.454545 171.498168 
L 177.512727 171.236592 
L 181.570909 170.96292 
L 185.629091 170.677152 
L 189.687273 170.382312 
L 193.745455 170.076888 
L 197.803636 169.76088 
L 201.861818 169.437312 
L 205.92 169.10316 
L 209.978182 168.761448 
L 214.036364 168.412176 
L 218.094545 168.056856 
L 222.152727 167.695488 
L 226.210909 167.329584 
L 230.269091 166.960656 
L 234.327273 166.588704 
L 238.385455 166.218264 
L 242.443636 165.849336 
L 246.501818 165.484944 
L 250.56 165.128112 
L 254.618182 164.784888 
L 258.676364 164.456784 
L 262.734545 164.152872 
L 266.792727 163.8792 
L 270.850909 163.643328 
L 274.909091 163.457352 
L 278.967273 163.328832 
L 283.025455 163.26684 
L 287.083636 163.277424 
L 291.141818 163.363608 
L 295.2 163.520856 
L 299.258182 163.741608 
L 303.316364 164.013768 
L 307.374545 164.32524 
L 311.432727 164.663928 
L 315.490909 165.019248 
L 319.549091 165.379104 
L 323.607273 165.737448 
L 327.665455 166.085208 
L 331.723636 166.417848 
L 335.781818 166.72932 
L 339.84 167.0166 
L 343.898182 167.275152 
L 347.956364 167.503464 
L 352.014545 167.698512 
L 356.072727 167.860296 
L 360.130909 167.988816 
L 364.189091 168.084072 
L 368.247273 168.147576 
L 372.305455 168.182352 
L 376.363636 168.189912 
L 380.421818 168.176304 
L 384.48 168.146064 
L 388.538182 168.103728 
L 392.596364 168.056856 
L 396.654545 168.011496 
L 400.712727 167.972184 
L 404.770909 167.944968 
L 408.829091 167.934384 
L 412.887273 167.944968 
L 416.945455 167.97672 
L 421.003636 168.02964 
L 425.061818 168.103728 
L 429.12 168.197472 
L 433.178182 168.306336 
L 437.236364 168.427296 
L 441.294545 168.55884 
L 445.352727 168.69492 
L 449.410909 168.832512 
L 453.469091 168.970104 
L 457.527273 169.104672 
L 461.585455 169.233192 
L 465.643636 169.354152 
L 469.701818 169.464528 
L 473.76 169.562808 
L 477.818182 169.648992 
L 481.876364 169.720056 
L 485.934545 169.777512 
L 489.992727 169.818336 
L 494.050909 169.842528 
L 498.109091 169.8516 
" clip-path="url(#pa261d3c7eb)" style="fill: none; stroke: #000000; stroke-opacity: 0.5; stroke-linecap: square"/>
   </g>
   <g id="line2d_21">
    <path d="M 92.290909 136.811376 
L 96.349091 136.805328 
L 100.407273 136.785672 
L 104.465455 136.75392 
L 108.523636 136.710072 
L 112.581818 136.652616 
L 116.64 136.583064 
L 120.698182 136.502928 
L 124.756364 136.410696 
L 128.814545 136.30788 
L 132.872727 136.195992 
L 136.930909 136.07352 
L 140.989091 135.945 
L 145.047273 135.811944 
L 149.105455 135.677376 
L 153.163636 135.54432 
L 157.221818 135.420336 
L 161.28 135.31752 
L 165.338182 135.24948 
L 169.396364 135.240408 
L 173.454545 135.323568 
L 177.512727 135.53676 
L 181.570909 135.908712 
L 185.629091 136.439424 
L 189.687273 137.10168 
L 193.745455 137.85768 
L 197.803636 138.67416 
L 201.861818 139.52844 
L 205.92 140.402376 
L 209.978182 141.286896 
L 214.036364 142.172928 
L 218.094545 143.057448 
L 222.152727 143.934408 
L 226.210909 144.800784 
L 230.269091 145.655064 
L 234.327273 146.492712 
L 238.385455 147.313728 
L 242.443636 148.112064 
L 246.501818 148.88772 
L 250.56 149.63616 
L 254.618182 150.352848 
L 258.676364 151.031736 
L 262.734545 151.668288 
L 266.792727 152.253432 
L 270.850909 152.779608 
L 274.909091 153.236232 
L 278.967273 153.61272 
L 283.025455 153.903024 
L 287.083636 154.09656 
L 291.141818 154.19484 
L 295.2 154.197864 
L 299.258182 154.114704 
L 303.316364 153.957456 
L 307.374545 153.735192 
L 311.432727 153.463032 
L 315.490909 153.150048 
L 319.549091 152.808336 
L 323.607273 152.445456 
L 327.665455 152.073504 
L 331.723636 151.701552 
L 335.781818 151.34472 
L 339.84 151.028712 
L 343.898182 150.794352 
L 347.956364 150.708168 
L 352.014545 150.836688 
L 356.072727 151.166304 
L 360.130909 151.621416 
L 364.189091 152.129448 
L 368.247273 152.64504 
L 372.305455 153.148536 
L 376.363636 153.624816 
L 380.421818 154.063296 
L 384.48 154.457928 
L 388.538182 154.802664 
L 392.596364 155.092968 
L 396.654545 155.324304 
L 400.712727 155.493648 
L 404.770909 155.597976 
L 408.829091 155.637288 
L 412.887273 155.610072 
L 416.945455 155.519352 
L 421.003636 155.369664 
L 425.061818 155.164032 
L 429.12 154.910016 
L 433.178182 154.613664 
L 437.236364 154.284048 
L 441.294545 153.927216 
L 445.352727 153.55224 
L 449.410909 153.165168 
L 453.469091 152.775072 
L 457.527273 152.389512 
L 461.585455 152.013024 
L 465.643636 151.656192 
L 469.701818 151.32204 
L 473.76 151.018128 
L 477.818182 150.748992 
L 481.876364 150.522192 
L 485.934545 150.340752 
L 489.992727 150.207696 
L 494.050909 150.12756 
L 498.109091 150.100344 
" clip-path="url(#pa261d3c7eb)" style="fill: none; stroke: #000000; stroke-opacity: 0.5; stroke-linecap: square"/>
   </g>
   <g id="line2d_22">
    <path d="M 92.290909 109.837296 
L 96.349091 110.110968 
L 100.407273 110.814048 
L 104.465455 111.751488 
L 108.523636 112.80384 
L 112.581818 113.91516 
L 116.64 115.052184 
L 120.698182 116.202816 
L 124.756364 117.35496 
L 128.814545 118.505592 
L 132.872727 119.647152 
L 136.930909 120.77964 
L 140.989091 121.897008 
L 145.047273 122.997744 
L 149.105455 124.077312 
L 153.163636 125.129664 
L 157.221818 126.148752 
L 161.28 127.12248 
L 165.338182 128.035728 
L 169.396364 128.864304 
L 173.454545 129.573432 
L 177.512727 130.126824 
L 181.570909 130.495752 
L 185.629091 130.677192 
L 189.687273 130.699872 
L 193.745455 130.601592 
L 197.803636 130.414104 
L 201.861818 130.163112 
L 205.92 129.860712 
L 209.978182 129.522024 
L 214.036364 129.150072 
L 218.094545 128.753928 
L 222.152727 128.335104 
L 226.210909 127.898136 
L 230.269091 127.449072 
L 234.327273 126.990936 
L 238.385455 126.537336 
L 242.443636 126.104904 
L 246.501818 125.742024 
L 250.56 125.559072 
L 254.618182 125.760168 
L 258.676364 126.428472 
L 262.734545 127.382544 
L 266.792727 128.459088 
L 270.850909 129.580992 
L 274.909091 130.719528 
L 278.967273 131.861088 
L 283.025455 132.995088 
L 287.083636 134.120016 
L 291.141818 135.229824 
L 295.2 136.324512 
L 299.258182 137.399544 
L 303.316364 138.45492 
L 307.374545 139.489128 
L 311.432727 140.499144 
L 315.490909 141.483456 
L 319.549091 142.437528 
L 323.607273 143.36136 
L 327.665455 144.248904 
L 331.723636 145.091088 
L 335.781818 145.87884 
L 339.84 146.58948 
L 343.898182 147.180672 
L 347.956364 147.590424 
L 352.014545 147.750696 
L 356.072727 147.673584 
L 360.130909 147.439224 
L 364.189091 147.117168 
L 368.247273 146.749752 
L 372.305455 146.358144 
L 376.363636 145.957464 
L 380.421818 145.552248 
L 384.48 145.148544 
L 388.538182 144.747864 
L 392.596364 144.354744 
L 396.654545 143.969184 
L 400.712727 143.592696 
L 404.770909 143.228304 
L 408.829091 142.874496 
L 412.887273 142.532784 
L 416.945455 142.206192 
L 421.003636 141.891696 
L 425.061818 141.59232 
L 429.12 141.308064 
L 433.178182 141.038928 
L 437.236364 140.786424 
L 441.294545 140.550552 
L 445.352727 140.3298 
L 449.410909 140.12568 
L 453.469091 139.938192 
L 457.527273 139.768848 
L 461.585455 139.614624 
L 465.643636 139.478544 
L 469.701818 139.359096 
L 473.76 139.25628 
L 477.818182 139.170096 
L 481.876364 139.099032 
L 485.934545 139.046112 
L 489.992727 139.0068 
L 494.050909 138.98412 
L 498.109091 138.97656 
" clip-path="url(#pa261d3c7eb)" style="fill: none; stroke: #000000; stroke-opacity: 0.5; stroke-linecap: square"/>
   </g>
   <g id="line2d_23">
    <path d="M 92.290909 104.138568 
L 96.349091 103.855824 
L 100.407273 103.128552 
L 104.465455 102.145752 
L 108.523636 101.031408 
L 112.581818 99.844488 
L 116.64 98.615232 
L 120.698182 97.361784 
L 124.756364 96.097752 
L 128.814545 94.838256 
L 132.872727 93.599928 
L 136.930909 92.423592 
L 140.989091 91.389384 
L 145.047273 90.702936 
L 149.105455 90.68328 
L 153.163636 91.347048 
L 157.221818 92.382768 
L 161.28 93.581784 
L 165.338182 94.857912 
L 169.396364 96.173352 
L 173.454545 97.511472 
L 177.512727 98.861688 
L 181.570909 100.219464 
L 185.629091 101.581776 
L 189.687273 102.944088 
L 193.745455 104.3064 
L 197.803636 105.665688 
L 201.861818 107.021952 
L 205.92 108.372168 
L 209.978182 109.717848 
L 214.036364 111.055968 
L 218.094545 112.385016 
L 222.152727 113.704992 
L 226.210909 115.01136 
L 230.269091 116.301096 
L 234.327273 117.569664 
L 238.385455 118.804968 
L 242.443636 119.988864 
L 246.501818 121.075992 
L 250.56 121.95144 
L 254.618182 122.414112 
L 258.676364 122.379336 
L 262.734545 122.028552 
L 266.792727 121.523544 
L 270.850909 120.939912 
L 274.909091 120.306384 
L 278.967273 119.63808 
L 283.025455 118.941048 
L 287.083636 118.219824 
L 291.141818 117.477432 
L 295.2 116.713872 
L 299.258182 115.932168 
L 303.316364 115.13232 
L 307.374545 114.31584 
L 311.432727 113.48424 
L 315.490909 112.639032 
L 319.549091 111.780216 
L 323.607273 110.909304 
L 327.665455 110.032344 
L 331.723636 109.150848 
L 335.781818 108.273888 
L 339.84 107.418096 
L 343.898182 106.621272 
L 347.956364 105.99984 
L 352.014545 105.8562 
L 356.072727 106.444368 
L 360.130909 107.452872 
L 364.189091 108.601992 
L 368.247273 109.791936 
L 372.305455 110.987928 
L 376.363636 112.17636 
L 380.421818 113.34816 
L 384.48 114.498792 
L 388.538182 115.626744 
L 392.596364 116.730504 
L 396.654545 117.807048 
L 400.712727 118.856376 
L 404.770909 119.873952 
L 408.829091 120.8628 
L 412.887273 121.819896 
L 416.945455 122.742216 
L 421.003636 123.632784 
L 425.061818 124.487064 
L 429.12 125.305056 
L 433.178182 126.08676 
L 437.236364 126.829152 
L 441.294545 127.532232 
L 445.352727 128.194488 
L 449.410909 128.81592 
L 453.469091 129.395016 
L 457.527273 129.930264 
L 461.585455 130.420152 
L 465.643636 130.863168 
L 469.701818 131.2578 
L 473.76 131.604048 
L 477.818182 131.9004 
L 481.876364 132.143832 
L 485.934545 132.335856 
L 489.992727 132.471936 
L 494.050909 132.555096 
L 498.109091 132.582312 
" clip-path="url(#pa261d3c7eb)" style="fill: none; stroke: #000000; stroke-opacity: 0.5; stroke-linecap: square"/>
   </g>
   <g id="patch_3">
    <path d="M 72 384.48 
L 72 51.84 
" style="fill: none; stroke: #000000; stroke-width: 0.8; stroke-linejoin: miter; stroke-linecap: square"/>
   </g>
   <g id="patch_4">
    <path d="M 518.4 384.48 
L 518.4 51.84 
" style="fill: none; stroke: #000000; stroke-width: 0.8; stroke-linejoin: miter; stroke-linecap: square"/>
   </g>
   <g id="patch_5">
    <path d="M 72 384.48 
L 518.4 384.48 
" style="fill: none; stroke: #000000; stroke-width: 0.8; stroke-linejoin: miter; stroke-linecap: square"/>
   </g>
   <g id="patch_6">
    <path d="M 72 51.84 
L 518.4 51.84 
" style="fill: none; stroke: #000000; stroke-width: 0.8; stroke-linejoin: miter; stroke-linecap: square"/>
   </g>
  </g>
 </g>
 <defs>
  <clipPath id="pa261d3c7eb">
   <rect x="72" y="51.84" width="446.4" height="332.64"/>
  </clipPath>
 </defs>
</svg>
