<?xml version="1.0" encoding="utf-8" standalone="no"?>
<!DOCTYPE svg PUBLIC "-//W3C//DTD SVG 1.1//EN"
  "http://www.w3.org/Graphics/SVG/1.1/DTD/svg11.dtd">
<svg xmlns:xlink="http://www.w3.org/1999/xlink" width="576pt" height="432pt" viewBox="0 0 576 432" xmlns="http://www.w3.org/2000/svg" version="1.1">
 <metadata>
  <rdf:RDF xmlns:dc="http://purl.org/dc/elements/1.1/" xmlns:cc="http://creativecommons.org/ns#" xmlns:rdf="http://www.w3.org/1999/02/22-rdf-syntax-ns#">
   <cc:Work>
    <dc:type rdf:resource="http://purl.org/dc/dcmitype/StillImage"/>
    <dc:date>2023-05-03T19:41:54.189419</dc:date>
    <dc:format>image/svg+xml</dc:format>
    <dc:creator>
     <cc:Agent>
      <dc:title>Matplotlib v3.7.1, https://matplotlib.org/</dc:title>
     </cc:Agent>
    </dc:creator>
   </cc:Work>
  </rdf:RDF>
 </metadata>
 <defs>
  <style type="text/css">*{stroke-linejoin: round; stroke-linecap: butt}</style>
 </defs>
 <g id="figure_1">
  <g id="patch_1">
   <path d="M 0 432 
L 576 432 
L 576 0 
L 0 0 
z
" style="fill: #ffffff"/>
  </g>
  <g id="axes_1">
   <g id="patch_2">
    <path d="M 72 384.48 
L 518.4 384.48 
L 518.4 51.84 
L 72 51.84 
z
" style="fill: #ffffff"/>
   </g>
   <g id="matplotlib.axis_1">
    <g id="xtick_1">
     <g id="line2d_1">
      <defs>
       <path id="m61ae4dda54" d="M 0 0 
L 0 3.5 
" style="stroke: #000000; stroke-width: 0.8"/>
      </defs>
      <g>
       <use xlink:href="#m61ae4dda54" x="92.290909" y="384.48" style="stroke: #000000; stroke-width: 0.8"/>
      </g>
     </g>
     <g id="text_1">
      <!-- 0.0 -->
      <g transform="translate(84.339347 399.078438) scale(0.1 -0.1)">
       <defs>
        <path id="DejaVuSans-30" d="M 2034 4250 
Q 1547 4250 1301 3770 
Q 1056 3291 1056 2328 
Q 1056 1369 1301 889 
Q 1547 409 2034 409 
Q 2525 409 2770 889 
Q 3016 1369 3016 2328 
Q 3016 3291 2770 3770 
Q 2525 4250 2034 4250 
z
M 2034 4750 
Q 2819 4750 3233 4129 
Q 3647 3509 3647 2328 
Q 3647 1150 3233 529 
Q 2819 -91 2034 -91 
Q 1250 -91 836 529 
Q 422 1150 422 2328 
Q 422 3509 836 4129 
Q 1250 4750 2034 4750 
z
" transform="scale(0.015625)"/>
        <path id="DejaVuSans-2e" d="M 684 794 
L 1344 794 
L 1344 0 
L 684 0 
L 684 794 
z
" transform="scale(0.015625)"/>
       </defs>
       <use xlink:href="#DejaVuSans-30"/>
       <use xlink:href="#DejaVuSans-2e" x="63.623047"/>
       <use xlink:href="#DejaVuSans-30" x="95.410156"/>
      </g>
     </g>
    </g>
    <g id="xtick_2">
     <g id="line2d_2">
      <g>
       <use xlink:href="#m61ae4dda54" x="173.454545" y="384.48" style="stroke: #000000; stroke-width: 0.8"/>
      </g>
     </g>
     <g id="text_2">
      <!-- 0.2 -->
      <g transform="translate(165.502983 399.078438) scale(0.1 -0.1)">
       <defs>
        <path id="DejaVuSans-32" d="M 1228 531 
L 3431 531 
L 3431 0 
L 469 0 
L 469 531 
Q 828 903 1448 1529 
Q 2069 2156 2228 2338 
Q 2531 2678 2651 2914 
Q 2772 3150 2772 3378 
Q 2772 3750 2511 3984 
Q 2250 4219 1831 4219 
Q 1534 4219 1204 4116 
Q 875 4013 500 3803 
L 500 4441 
Q 881 4594 1212 4672 
Q 1544 4750 1819 4750 
Q 2544 4750 2975 4387 
Q 3406 4025 3406 3419 
Q 3406 3131 3298 2873 
Q 3191 2616 2906 2266 
Q 2828 2175 2409 1742 
Q 1991 1309 1228 531 
z
" transform="scale(0.015625)"/>
       </defs>
       <use xlink:href="#DejaVuSans-30"/>
       <use xlink:href="#DejaVuSans-2e" x="63.623047"/>
       <use xlink:href="#DejaVuSans-32" x="95.410156"/>
      </g>
     </g>
    </g>
    <g id="xtick_3">
     <g id="line2d_3">
      <g>
       <use xlink:href="#m61ae4dda54" x="254.618182" y="384.48" style="stroke: #000000; stroke-width: 0.8"/>
      </g>
     </g>
     <g id="text_3">
      <!-- 0.4 -->
      <g transform="translate(246.666619 399.078438) scale(0.1 -0.1)">
       <defs>
        <path id="DejaVuSans-34" d="M 2419 4116 
L 825 1625 
L 2419 1625 
L 2419 4116 
z
M 2253 4666 
L 3047 4666 
L 3047 1625 
L 3713 1625 
L 3713 1100 
L 3047 1100 
L 3047 0 
L 2419 0 
L 2419 1100 
L 313 1100 
L 313 1709 
L 2253 4666 
z
" transform="scale(0.015625)"/>
       </defs>
       <use xlink:href="#DejaVuSans-30"/>
       <use xlink:href="#DejaVuSans-2e" x="63.623047"/>
       <use xlink:href="#DejaVuSans-34" x="95.410156"/>
      </g>
     </g>
    </g>
    <g id="xtick_4">
     <g id="line2d_4">
      <g>
       <use xlink:href="#m61ae4dda54" x="335.781818" y="384.48" style="stroke: #000000; stroke-width: 0.8"/>
      </g>
     </g>
     <g id="text_4">
      <!-- 0.6 -->
      <g transform="translate(327.830256 399.078438) scale(0.1 -0.1)">
       <defs>
        <path id="DejaVuSans-36" d="M 2113 2584 
Q 1688 2584 1439 2293 
Q 1191 2003 1191 1497 
Q 1191 994 1439 701 
Q 1688 409 2113 409 
Q 2538 409 2786 701 
Q 3034 994 3034 1497 
Q 3034 2003 2786 2293 
Q 2538 2584 2113 2584 
z
M 3366 4563 
L 3366 3988 
Q 3128 4100 2886 4159 
Q 2644 4219 2406 4219 
Q 1781 4219 1451 3797 
Q 1122 3375 1075 2522 
Q 1259 2794 1537 2939 
Q 1816 3084 2150 3084 
Q 2853 3084 3261 2657 
Q 3669 2231 3669 1497 
Q 3669 778 3244 343 
Q 2819 -91 2113 -91 
Q 1303 -91 875 529 
Q 447 1150 447 2328 
Q 447 3434 972 4092 
Q 1497 4750 2381 4750 
Q 2619 4750 2861 4703 
Q 3103 4656 3366 4563 
z
" transform="scale(0.015625)"/>
       </defs>
       <use xlink:href="#DejaVuSans-30"/>
       <use xlink:href="#DejaVuSans-2e" x="63.623047"/>
       <use xlink:href="#DejaVuSans-36" x="95.410156"/>
      </g>
     </g>
    </g>
    <g id="xtick_5">
     <g id="line2d_5">
      <g>
       <use xlink:href="#m61ae4dda54" x="416.945455" y="384.48" style="stroke: #000000; stroke-width: 0.8"/>
      </g>
     </g>
     <g id="text_5">
      <!-- 0.8 -->
      <g transform="translate(408.993892 399.078438) scale(0.1 -0.1)">
       <defs>
        <path id="DejaVuSans-38" d="M 2034 2216 
Q 1584 2216 1326 1975 
Q 1069 1734 1069 1313 
Q 1069 891 1326 650 
Q 1584 409 2034 409 
Q 2484 409 2743 651 
Q 3003 894 3003 1313 
Q 3003 1734 2745 1975 
Q 2488 2216 2034 2216 
z
M 1403 2484 
Q 997 2584 770 2862 
Q 544 3141 544 3541 
Q 544 4100 942 4425 
Q 1341 4750 2034 4750 
Q 2731 4750 3128 4425 
Q 3525 4100 3525 3541 
Q 3525 3141 3298 2862 
Q 3072 2584 2669 2484 
Q 3125 2378 3379 2068 
Q 3634 1759 3634 1313 
Q 3634 634 3220 271 
Q 2806 -91 2034 -91 
Q 1263 -91 848 271 
Q 434 634 434 1313 
Q 434 1759 690 2068 
Q 947 2378 1403 2484 
z
M 1172 3481 
Q 1172 3119 1398 2916 
Q 1625 2713 2034 2713 
Q 2441 2713 2670 2916 
Q 2900 3119 2900 3481 
Q 2900 3844 2670 4047 
Q 2441 4250 2034 4250 
Q 1625 4250 1398 4047 
Q 1172 3844 1172 3481 
z
" transform="scale(0.015625)"/>
       </defs>
       <use xlink:href="#DejaVuSans-30"/>
       <use xlink:href="#DejaVuSans-2e" x="63.623047"/>
       <use xlink:href="#DejaVuSans-38" x="95.410156"/>
      </g>
     </g>
    </g>
    <g id="xtick_6">
     <g id="line2d_6">
      <g>
       <use xlink:href="#m61ae4dda54" x="498.109091" y="384.48" style="stroke: #000000; stroke-width: 0.8"/>
      </g>
     </g>
     <g id="text_6">
      <!-- 1.0 -->
      <g transform="translate(490.157528 399.078438) scale(0.1 -0.1)">
       <defs>
        <path id="DejaVuSans-31" d="M 794 531 
L 1825 531 
L 1825 4091 
L 703 3866 
L 703 4441 
L 1819 4666 
L 2450 4666 
L 2450 531 
L 3481 531 
L 3481 0 
L 794 0 
L 794 531 
z
" transform="scale(0.015625)"/>
       </defs>
       <use xlink:href="#DejaVuSans-31"/>
       <use xlink:href="#DejaVuSans-2e" x="63.623047"/>
       <use xlink:href="#DejaVuSans-30" x="95.410156"/>
      </g>
     </g>
    </g>
   </g>
   <g id="matplotlib.axis_2">
    <g id="ytick_1">
     <g id="line2d_7">
      <defs>
       <path id="m663ab25ca2" d="M 0 0 
L -3.5 0 
" style="stroke: #000000; stroke-width: 0.8"/>
      </defs>
      <g>
       <use xlink:href="#m663ab25ca2" x="72" y="369.36" style="stroke: #000000; stroke-width: 0.8"/>
      </g>
     </g>
     <g id="text_7">
      <!-- −5.0 -->
      <g transform="translate(40.717187 373.159219) scale(0.1 -0.1)">
       <defs>
        <path id="DejaVuSans-2212" d="M 678 2272 
L 4684 2272 
L 4684 1741 
L 678 1741 
L 678 2272 
z
" transform="scale(0.015625)"/>
        <path id="DejaVuSans-35" d="M 691 4666 
L 3169 4666 
L 3169 4134 
L 1269 4134 
L 1269 2991 
Q 1406 3038 1543 3061 
Q 1681 3084 1819 3084 
Q 2600 3084 3056 2656 
Q 3513 2228 3513 1497 
Q 3513 744 3044 326 
Q 2575 -91 1722 -91 
Q 1428 -91 1123 -41 
Q 819 9 494 109 
L 494 744 
Q 775 591 1075 516 
Q 1375 441 1709 441 
Q 2250 441 2565 725 
Q 2881 1009 2881 1497 
Q 2881 1984 2565 2268 
Q 2250 2553 1709 2553 
Q 1456 2553 1204 2497 
Q 953 2441 691 2322 
L 691 4666 
z
" transform="scale(0.015625)"/>
       </defs>
       <use xlink:href="#DejaVuSans-2212"/>
       <use xlink:href="#DejaVuSans-35" x="83.789062"/>
       <use xlink:href="#DejaVuSans-2e" x="147.412109"/>
       <use xlink:href="#DejaVuSans-30" x="179.199219"/>
      </g>
     </g>
    </g>
    <g id="ytick_2">
     <g id="line2d_8">
      <g>
       <use xlink:href="#m663ab25ca2" x="72" y="331.56" style="stroke: #000000; stroke-width: 0.8"/>
      </g>
     </g>
     <g id="text_8">
      <!-- −2.5 -->
      <g transform="translate(40.717187 335.359219) scale(0.1 -0.1)">
       <use xlink:href="#DejaVuSans-2212"/>
       <use xlink:href="#DejaVuSans-32" x="83.789062"/>
       <use xlink:href="#DejaVuSans-2e" x="147.412109"/>
       <use xlink:href="#DejaVuSans-35" x="179.199219"/>
      </g>
     </g>
    </g>
    <g id="ytick_3">
     <g id="line2d_9">
      <g>
       <use xlink:href="#m663ab25ca2" x="72" y="293.76" style="stroke: #000000; stroke-width: 0.8"/>
      </g>
     </g>
     <g id="text_9">
      <!-- 0.0 -->
      <g transform="translate(49.096875 297.559219) scale(0.1 -0.1)">
       <use xlink:href="#DejaVuSans-30"/>
       <use xlink:href="#DejaVuSans-2e" x="63.623047"/>
       <use xlink:href="#DejaVuSans-30" x="95.410156"/>
      </g>
     </g>
    </g>
    <g id="ytick_4">
     <g id="line2d_10">
      <g>
       <use xlink:href="#m663ab25ca2" x="72" y="255.96" style="stroke: #000000; stroke-width: 0.8"/>
      </g>
     </g>
     <g id="text_10">
      <!-- 2.5 -->
      <g transform="translate(49.096875 259.759219) scale(0.1 -0.1)">
       <use xlink:href="#DejaVuSans-32"/>
       <use xlink:href="#DejaVuSans-2e" x="63.623047"/>
       <use xlink:href="#DejaVuSans-35" x="95.410156"/>
      </g>
     </g>
    </g>
    <g id="ytick_5">
     <g id="line2d_11">
      <g>
       <use xlink:href="#m663ab25ca2" x="72" y="218.16" style="stroke: #000000; stroke-width: 0.8"/>
      </g>
     </g>
     <g id="text_11">
      <!-- 5.0 -->
      <g transform="translate(49.096875 221.959219) scale(0.1 -0.1)">
       <use xlink:href="#DejaVuSans-35"/>
       <use xlink:href="#DejaVuSans-2e" x="63.623047"/>
       <use xlink:href="#DejaVuSans-30" x="95.410156"/>
      </g>
     </g>
    </g>
    <g id="ytick_6">
     <g id="line2d_12">
      <g>
       <use xlink:href="#m663ab25ca2" x="72" y="180.36" style="stroke: #000000; stroke-width: 0.8"/>
      </g>
     </g>
     <g id="text_12">
      <!-- 7.5 -->
      <g transform="translate(49.096875 184.159219) scale(0.1 -0.1)">
       <defs>
        <path id="DejaVuSans-37" d="M 525 4666 
L 3525 4666 
L 3525 4397 
L 1831 0 
L 1172 0 
L 2766 4134 
L 525 4134 
L 525 4666 
z
" transform="scale(0.015625)"/>
       </defs>
       <use xlink:href="#DejaVuSans-37"/>
       <use xlink:href="#DejaVuSans-2e" x="63.623047"/>
       <use xlink:href="#DejaVuSans-35" x="95.410156"/>
      </g>
     </g>
    </g>
    <g id="ytick_7">
     <g id="line2d_13">
      <g>
       <use xlink:href="#m663ab25ca2" x="72" y="142.56" style="stroke: #000000; stroke-width: 0.8"/>
      </g>
     </g>
     <g id="text_13">
      <!-- 10.0 -->
      <g transform="translate(42.734375 146.359219) scale(0.1 -0.1)">
       <use xlink:href="#DejaVuSans-31"/>
       <use xlink:href="#DejaVuSans-30" x="63.623047"/>
       <use xlink:href="#DejaVuSans-2e" x="127.246094"/>
       <use xlink:href="#DejaVuSans-30" x="159.033203"/>
      </g>
     </g>
    </g>
    <g id="ytick_8">
     <g id="line2d_14">
      <g>
       <use xlink:href="#m663ab25ca2" x="72" y="104.76" style="stroke: #000000; stroke-width: 0.8"/>
      </g>
     </g>
     <g id="text_14">
      <!-- 12.5 -->
      <g transform="translate(42.734375 108.559219) scale(0.1 -0.1)">
       <use xlink:href="#DejaVuSans-31"/>
       <use xlink:href="#DejaVuSans-32" x="63.623047"/>
       <use xlink:href="#DejaVuSans-2e" x="127.246094"/>
       <use xlink:href="#DejaVuSans-35" x="159.033203"/>
      </g>
     </g>
    </g>
    <g id="ytick_9">
     <g id="line2d_15">
      <g>
       <use xlink:href="#m663ab25ca2" x="72" y="66.96" style="stroke: #000000; stroke-width: 0.8"/>
      </g>
     </g>
     <g id="text_15">
      <!-- 15.0 -->
      <g transform="translate(42.734375 70.759219) scale(0.1 -0.1)">
       <use xlink:href="#DejaVuSans-31"/>
       <use xlink:href="#DejaVuSans-35" x="63.623047"/>
       <use xlink:href="#DejaVuSans-2e" x="127.246094"/>
       <use xlink:href="#DejaVuSans-30" x="159.033203"/>
      </g>
     </g>
    </g>
   </g>
   <g id="line2d_16">
    <path d="M 92.290909 345.168 
L 96.349091 345.166488 
L 100.407273 345.161952 
L 104.465455 345.154392 
L 108.523636 345.14532 
L 112.581818 345.133224 
L 116.64 345.118104 
L 120.698182 345.09996 
L 124.756364 345.080304 
L 128.814545 345.059136 
L 132.872727 345.036456 
L 136.930909 345.010752 
L 140.989091 344.985048 
L 145.047273 344.959344 
L 149.105455 344.930616 
L 153.163636 344.9034 
L 157.221818 344.876184 
L 161.28 344.848968 
L 165.338182 344.823264 
L 169.396364 344.799072 
L 173.454545 344.777904 
L 177.512727 344.758248 
L 181.570909 344.741616 
L 185.629091 344.72952 
L 189.687273 344.720448 
L 193.745455 344.715912 
L 197.803636 344.717424 
L 201.861818 344.724984 
L 205.92 344.738592 
L 209.978182 344.75976 
L 214.036364 344.786976 
L 218.094545 344.823264 
L 222.152727 344.868624 
L 226.210909 344.921544 
L 230.269091 344.985048 
L 234.327273 345.057624 
L 238.385455 345.139272 
L 242.443636 345.231504 
L 246.501818 345.33432 
L 250.56 345.44772 
L 254.618182 345.571704 
L 258.676364 345.70476 
L 262.734545 345.8484 
L 266.792727 346.002624 
L 270.850909 346.16592 
L 274.909091 346.3398 
L 278.967273 346.52124 
L 283.025455 346.713264 
L 287.083636 346.911336 
L 291.141818 347.11848 
L 295.2 347.331672 
L 299.258182 347.552424 
L 303.316364 347.777712 
L 307.374545 348.009048 
L 311.432727 348.24492 
L 315.490909 348.485328 
L 319.549091 348.72876 
L 323.607273 348.973704 
L 327.665455 349.223184 
L 331.723636 349.472664 
L 335.781818 349.723656 
L 339.84 349.974648 
L 343.898182 350.22564 
L 347.956364 350.47512 
L 352.014545 350.723088 
L 356.072727 350.971056 
L 360.130909 351.216 
L 364.189091 351.45792 
L 368.247273 351.696816 
L 372.305455 351.931176 
L 376.363636 352.162512 
L 380.421818 352.389312 
L 384.48 352.611576 
L 388.538182 352.827792 
L 392.596364 353.039472 
L 396.654545 353.245104 
L 400.712727 353.444688 
L 404.770909 353.638224 
L 408.829091 353.825712 
L 412.887273 354.00564 
L 416.945455 354.178008 
L 421.003636 354.344328 
L 425.061818 354.501576 
L 429.12 354.652776 
L 433.178182 354.796416 
L 437.236364 354.930984 
L 441.294545 355.057992 
L 445.352727 355.17744 
L 449.410909 355.287816 
L 453.469091 355.38912 
L 457.527273 355.482864 
L 461.585455 355.567536 
L 465.643636 355.644648 
L 469.701818 355.711176 
L 473.76 355.770144 
L 477.818182 355.82004 
L 481.876364 355.860864 
L 485.934545 355.892616 
L 489.992727 355.915296 
L 494.050909 355.928904 
L 498.109091 355.93344 
" clip-path="url(#p057cd6f82b)" style="fill: none; stroke: #000000; stroke-opacity: 0.5; stroke-linecap: square"/>
   </g>
   <g id="line2d_17">
    <path d="M 92.290909 292.370472 
L 96.349091 292.400712 
L 100.407273 292.48992 
L 104.465455 292.636584 
L 108.523636 292.839192 
L 112.581818 293.093208 
L 116.64 293.394096 
L 120.698182 293.73732 
L 124.756364 294.118344 
L 128.814545 294.532632 
L 132.872727 294.974136 
L 136.930909 295.439832 
L 140.989091 295.925184 
L 145.047273 296.424144 
L 149.105455 296.933688 
L 153.163636 297.452304 
L 157.221818 297.973944 
L 161.28 298.497096 
L 165.338182 299.018736 
L 169.396364 299.53584 
L 173.454545 300.046896 
L 177.512727 300.54888 
L 181.570909 301.038768 
L 185.629091 301.518072 
L 189.687273 301.982256 
L 193.745455 302.429808 
L 197.803636 302.859216 
L 201.861818 303.27048 
L 205.92 303.660576 
L 209.978182 304.029504 
L 214.036364 304.375752 
L 218.094545 304.697808 
L 222.152727 304.99416 
L 226.210909 305.264808 
L 230.269091 305.509752 
L 234.327273 305.725968 
L 238.385455 305.914968 
L 242.443636 306.07524 
L 246.501818 306.206784 
L 250.56 306.308088 
L 254.618182 306.380664 
L 258.676364 306.421488 
L 262.734545 306.433584 
L 266.792727 306.416952 
L 270.850909 306.368568 
L 274.909091 306.291456 
L 278.967273 306.185616 
L 283.025455 306.049536 
L 287.083636 305.884728 
L 291.141818 305.692704 
L 295.2 305.471952 
L 299.258182 305.225496 
L 303.316364 304.951824 
L 307.374545 304.652448 
L 311.432727 304.327368 
L 315.490909 303.976584 
L 319.549091 303.60312 
L 323.607273 303.206976 
L 327.665455 302.78664 
L 331.723636 302.345136 
L 335.781818 301.882464 
L 339.84 301.398624 
L 343.898182 300.895128 
L 347.956364 300.373488 
L 352.014545 299.832192 
L 356.072727 299.274264 
L 360.130909 298.698192 
L 364.189091 298.107 
L 368.247273 297.500688 
L 372.305455 296.879256 
L 376.363636 296.242704 
L 380.421818 295.594056 
L 384.48 294.933312 
L 388.538182 294.260472 
L 392.596364 293.577048 
L 396.654545 292.884552 
L 400.712727 292.184496 
L 404.770909 291.475368 
L 408.829091 290.760192 
L 412.887273 290.04048 
L 416.945455 289.317744 
L 421.003636 288.591984 
L 425.061818 287.866224 
L 429.12 287.143488 
L 433.178182 286.423776 
L 437.236364 285.710112 
L 441.294545 285.007032 
L 445.352727 284.316048 
L 449.410909 283.640184 
L 453.469091 282.985488 
L 457.527273 282.356496 
L 461.585455 281.756232 
L 465.643636 281.192256 
L 469.701818 280.670616 
L 473.76 280.198872 
L 477.818182 279.78156 
L 481.876364 279.429264 
L 485.934545 279.14652 
L 489.992727 278.939376 
L 494.050909 278.812368 
L 498.109091 278.770032 
" clip-path="url(#p057cd6f82b)" style="fill: none; stroke: #000000; stroke-opacity: 0.5; stroke-linecap: square"/>
   </g>
   <g id="line2d_18">
    <path d="M 92.290909 263.007432 
L 96.349091 262.966608 
L 100.407273 262.844136 
L 104.465455 262.640016 
L 108.523636 262.360296 
L 112.581818 262.006488 
L 116.64 261.583128 
L 120.698182 261.09324 
L 124.756364 260.545896 
L 128.814545 259.941096 
L 132.872727 259.287912 
L 136.930909 258.587856 
L 140.989091 257.846976 
L 145.047273 257.068296 
L 149.105455 256.257864 
L 153.163636 255.417192 
L 157.221818 254.549304 
L 161.28 253.660248 
L 165.338182 252.750024 
L 169.396364 251.823168 
L 173.454545 250.881192 
L 177.512727 249.92712 
L 181.570909 248.963976 
L 185.629091 247.99176 
L 189.687273 247.013496 
L 193.745455 246.03372 
L 197.803636 245.05092 
L 201.861818 244.071144 
L 205.92 243.09288 
L 209.978182 242.120664 
L 214.036364 241.156008 
L 218.094545 240.201936 
L 222.152727 239.258448 
L 226.210909 238.331592 
L 230.269091 237.42288 
L 234.327273 236.533824 
L 238.385455 235.66896 
L 242.443636 234.8298 
L 246.501818 234.019368 
L 250.56 233.240688 
L 254.618182 232.496784 
L 258.676364 231.789168 
L 262.734545 231.120864 
L 266.792727 230.493384 
L 270.850909 229.905216 
L 274.909091 229.359384 
L 278.967273 228.854376 
L 283.025455 228.38868 
L 287.083636 227.960784 
L 291.141818 227.569176 
L 295.2 227.210832 
L 299.258182 226.882728 
L 303.316364 226.584864 
L 307.374545 226.315728 
L 311.432727 226.072296 
L 315.490909 225.857592 
L 319.549091 225.671616 
L 323.607273 225.518904 
L 327.665455 225.41004 
L 331.723636 225.363168 
L 335.781818 225.407016 
L 339.84 225.579384 
L 343.898182 225.896904 
L 347.956364 226.341432 
L 352.014545 226.887264 
L 356.072727 227.508696 
L 360.130909 228.189096 
L 364.189091 228.919392 
L 368.247273 229.689 
L 372.305455 230.494896 
L 376.363636 231.32952 
L 380.421818 232.19136 
L 384.48 233.074368 
L 388.538182 233.97552 
L 392.596364 234.893304 
L 396.654545 235.821672 
L 400.712727 236.760624 
L 404.770909 237.707136 
L 408.829091 238.658184 
L 412.887273 239.609232 
L 416.945455 240.56028 
L 421.003636 241.508304 
L 425.061818 242.448768 
L 429.12 243.381672 
L 433.178182 244.300968 
L 437.236364 245.205144 
L 441.294545 246.089664 
L 445.352727 246.951504 
L 449.410909 247.78764 
L 453.469091 248.592024 
L 457.527273 249.358608 
L 461.585455 250.084368 
L 465.643636 250.761744 
L 469.701818 251.383176 
L 473.76 251.942616 
L 477.818182 252.434016 
L 481.876364 252.848304 
L 485.934545 253.179432 
L 489.992727 253.41984 
L 494.050909 253.566504 
L 498.109091 253.6164 
" clip-path="url(#p057cd6f82b)" style="fill: none; stroke: #000000; stroke-opacity: 0.5; stroke-linecap: square"/>
   </g>
   <g id="line2d_19">
    <path d="M 92.290909 230.128992 
L 96.349091 230.124456 
L 100.407273 230.113872 
L 104.465455 230.095728 
L 108.523636 230.068512 
L 112.581818 230.035248 
L 116.64 229.994424 
L 120.698182 229.94604 
L 124.756364 229.890096 
L 128.814545 229.826592 
L 132.872727 229.755528 
L 136.930909 229.678416 
L 140.989091 229.593744 
L 145.047273 229.501512 
L 149.105455 229.403232 
L 153.163636 229.297392 
L 157.221818 229.183992 
L 161.28 229.064544 
L 165.338182 228.937536 
L 169.396364 228.80448 
L 173.454545 228.665376 
L 177.512727 228.520224 
L 181.570909 228.367512 
L 185.629091 228.208752 
L 189.687273 228.042432 
L 193.745455 227.871576 
L 197.803636 227.694672 
L 201.861818 227.510208 
L 205.92 227.321208 
L 209.978182 227.124648 
L 214.036364 226.923552 
L 218.094545 226.714896 
L 222.152727 226.500192 
L 226.210909 226.27944 
L 230.269091 226.05264 
L 234.327273 225.819792 
L 238.385455 225.579384 
L 242.443636 225.33444 
L 246.501818 225.083448 
L 250.56 224.826408 
L 254.618182 224.566344 
L 258.676364 224.303256 
L 262.734545 224.037144 
L 266.792727 223.774056 
L 270.850909 223.515504 
L 274.909091 223.266024 
L 278.967273 223.02864 
L 283.025455 222.810912 
L 287.083636 222.617376 
L 291.141818 222.455592 
L 295.2 222.328584 
L 299.258182 222.2424 
L 303.316364 222.203088 
L 307.374545 222.21216 
L 311.432727 222.271128 
L 315.490909 222.383016 
L 319.549091 222.5448 
L 323.607273 222.750432 
L 327.665455 222.987816 
L 331.723636 223.237296 
L 335.781818 223.46712 
L 339.84 223.636464 
L 343.898182 223.725672 
L 347.956364 223.74684 
L 352.014545 223.72416 
L 356.072727 223.677288 
L 360.130909 223.619832 
L 364.189091 223.559352 
L 368.247273 223.49736 
L 372.305455 223.43688 
L 376.363636 223.379424 
L 380.421818 223.326504 
L 384.48 223.276608 
L 388.538182 223.23276 
L 392.596364 223.191936 
L 396.654545 223.154136 
L 400.712727 223.122384 
L 404.770909 223.093656 
L 408.829091 223.067952 
L 412.887273 223.046784 
L 416.945455 223.02864 
L 421.003636 223.012008 
L 425.061818 222.9984 
L 429.12 222.987816 
L 433.178182 222.978744 
L 437.236364 222.972696 
L 441.294545 222.966648 
L 445.352727 222.963624 
L 449.410909 222.9606 
L 453.469091 222.959088 
L 457.527273 222.957576 
L 461.585455 222.957576 
L 465.643636 222.957576 
L 469.701818 222.957576 
L 473.76 222.959088 
L 477.818182 222.959088 
L 481.876364 222.9606 
L 485.934545 222.9606 
L 489.992727 222.9606 
L 494.050909 222.962112 
L 498.109091 222.962112 
" clip-path="url(#p057cd6f82b)" style="fill: none; stroke: #000000; stroke-opacity: 0.5; stroke-linecap: square"/>
   </g>
   <g id="line2d_20">
    <path d="M 92.290909 166.770144 
L 96.349091 166.76712 
L 100.407273 166.755024 
L 104.465455 166.73688 
L 108.523636 166.709664 
L 112.581818 166.6764 
L 116.64 166.635576 
L 120.698182 166.587192 
L 124.756364 166.534272 
L 128.814545 166.475304 
L 132.872727 166.4118 
L 136.930909 166.34376 
L 140.989091 166.272696 
L 145.047273 166.198608 
L 149.105455 166.12452 
L 153.163636 166.050432 
L 157.221818 165.98088 
L 161.28 165.914352 
L 165.338182 165.855384 
L 169.396364 165.807 
L 173.454545 165.773736 
L 177.512727 165.757104 
L 181.570909 165.763152 
L 185.629091 165.797928 
L 189.687273 165.865968 
L 193.745455 165.974832 
L 197.803636 166.127544 
L 201.861818 166.331664 
L 205.92 166.587192 
L 209.978182 166.898664 
L 214.036364 167.264568 
L 218.094545 167.68188 
L 222.152727 168.146064 
L 226.210909 168.64956 
L 230.269091 169.18632 
L 234.327273 169.748784 
L 238.385455 170.330904 
L 242.443636 170.92512 
L 246.501818 171.525384 
L 250.56 172.124136 
L 254.618182 172.718352 
L 258.676364 173.301984 
L 262.734545 173.868984 
L 266.792727 174.414816 
L 270.850909 174.934944 
L 274.909091 175.42332 
L 278.967273 175.878432 
L 283.025455 176.29272 
L 287.083636 176.664672 
L 291.141818 176.98824 
L 295.2 177.261912 
L 299.258182 177.481152 
L 303.316364 177.642936 
L 307.374545 177.747264 
L 311.432727 177.791112 
L 315.490909 177.775992 
L 319.549091 177.700392 
L 323.607273 177.564312 
L 327.665455 177.372288 
L 331.723636 177.12432 
L 335.781818 176.823432 
L 339.84 176.471136 
L 343.898182 176.07348 
L 347.956364 175.633488 
L 352.014545 175.154184 
L 356.072727 174.63708 
L 360.130909 174.089736 
L 364.189091 173.513664 
L 368.247273 172.911888 
L 372.305455 172.287432 
L 376.363636 171.646344 
L 380.421818 170.988624 
L 384.48 170.318808 
L 388.538182 169.641432 
L 392.596364 168.956496 
L 396.654545 168.268536 
L 400.712727 167.582088 
L 404.770909 166.898664 
L 408.829091 166.224312 
L 412.887273 165.563568 
L 416.945455 164.917944 
L 421.003636 164.295 
L 425.061818 163.700784 
L 429.12 163.13832 
L 433.178182 162.613656 
L 437.236364 162.134352 
L 441.294545 161.698896 
L 445.352727 161.313336 
L 449.410909 160.97616 
L 453.469091 160.685856 
L 457.527273 160.437888 
L 461.585455 160.230744 
L 465.643636 160.059888 
L 469.701818 159.919272 
L 473.76 159.805872 
L 477.818182 159.716664 
L 481.876364 159.647112 
L 485.934545 159.595704 
L 489.992727 159.559416 
L 494.050909 159.53976 
L 498.109091 159.5322 
" clip-path="url(#p057cd6f82b)" style="fill: none; stroke: #000000; stroke-opacity: 0.5; stroke-linecap: square"/>
   </g>
   <g id="line2d_21">
    <path d="M 92.290909 135.12096 
L 96.349091 135.213192 
L 100.407273 135.48384 
L 104.465455 135.910224 
L 108.523636 136.469664 
L 112.581818 137.133432 
L 116.64 137.877336 
L 120.698182 138.68172 
L 124.756364 139.529952 
L 128.814545 140.408424 
L 132.872727 141.306552 
L 136.930909 142.218288 
L 140.989091 143.136072 
L 145.047273 144.053856 
L 149.105455 144.967104 
L 153.163636 145.872792 
L 157.221818 146.766384 
L 161.28 147.643344 
L 165.338182 148.50216 
L 169.396364 149.336784 
L 173.454545 150.144192 
L 177.512727 150.919848 
L 181.570909 151.657704 
L 185.629091 152.351712 
L 189.687273 152.997336 
L 193.745455 153.587016 
L 197.803636 154.117728 
L 201.861818 154.581912 
L 205.92 154.976544 
L 209.978182 155.300112 
L 214.036364 155.554128 
L 218.094545 155.740104 
L 222.152727 155.862576 
L 226.210909 155.929104 
L 230.269091 155.942712 
L 234.327273 155.913984 
L 238.385455 155.845944 
L 242.443636 155.746152 
L 246.501818 155.619144 
L 250.56 155.469456 
L 254.618182 155.303136 
L 258.676364 155.121696 
L 262.734545 154.92816 
L 266.792727 154.728576 
L 270.850909 154.525968 
L 274.909091 154.321848 
L 278.967273 154.123776 
L 283.025455 153.939312 
L 287.083636 153.777528 
L 291.141818 153.656568 
L 295.2 153.594576 
L 299.258182 153.609696 
L 303.316364 153.689832 
L 307.374545 153.815328 
L 311.432727 153.958968 
L 315.490909 154.10412 
L 319.549091 154.241712 
L 323.607273 154.36872 
L 327.665455 154.479096 
L 331.723636 154.574352 
L 335.781818 154.654488 
L 339.84 154.721016 
L 343.898182 154.773936 
L 347.956364 154.81476 
L 352.014545 154.845 
L 356.072727 154.866168 
L 360.130909 154.881288 
L 364.189091 154.887336 
L 368.247273 154.888848 
L 372.305455 154.885824 
L 376.363636 154.876752 
L 380.421818 154.864656 
L 384.48 154.845 
L 388.538182 154.820808 
L 392.596364 154.790568 
L 396.654545 154.751256 
L 400.712727 154.702872 
L 404.770909 154.64088 
L 408.829091 154.56528 
L 412.887273 154.471536 
L 416.945455 154.356624 
L 421.003636 154.214496 
L 425.061818 154.045152 
L 429.12 153.841032 
L 433.178182 153.599112 
L 437.236364 153.316368 
L 441.294545 152.994312 
L 445.352727 152.62992 
L 449.410909 152.22924 
L 453.469091 151.795296 
L 457.527273 151.338672 
L 461.585455 150.865416 
L 465.643636 150.389136 
L 469.701818 149.921928 
L 473.76 149.475888 
L 477.818182 149.066136 
L 481.876364 148.704768 
L 485.934545 148.406904 
L 489.992727 148.183128 
L 494.050909 148.045536 
L 498.109091 147.998664 
" clip-path="url(#p057cd6f82b)" style="fill: none; stroke: #000000; stroke-opacity: 0.5; stroke-linecap: square"/>
   </g>
   <g id="line2d_22">
    <path d="M 92.290909 120.08412 
L 96.349091 119.991888 
L 100.407273 119.724264 
L 104.465455 119.309976 
L 108.523636 118.794384 
L 112.581818 118.250064 
L 116.64 117.791928 
L 120.698182 117.59688 
L 124.756364 117.797976 
L 128.814545 118.34532 
L 132.872727 119.107368 
L 136.930909 119.991888 
L 140.989091 120.948984 
L 145.047273 121.95144 
L 149.105455 122.985648 
L 153.163636 124.038 
L 157.221818 125.100936 
L 161.28 126.171432 
L 165.338182 127.244952 
L 169.396364 128.31696 
L 173.454545 129.384432 
L 177.512727 130.447368 
L 181.570909 131.501232 
L 185.629091 132.544512 
L 189.687273 133.575696 
L 193.745455 134.593272 
L 197.803636 135.595728 
L 201.861818 136.583064 
L 205.92 137.550744 
L 209.978182 138.50028 
L 214.036364 139.43016 
L 218.094545 140.33736 
L 222.152727 141.22188 
L 226.210909 142.082208 
L 230.269091 142.916832 
L 234.327273 143.727264 
L 238.385455 144.507456 
L 242.443636 145.260432 
L 246.501818 145.98468 
L 250.56 146.677176 
L 254.618182 147.339432 
L 258.676364 147.966912 
L 262.734545 148.56264 
L 266.792727 149.120568 
L 270.850909 149.642208 
L 274.909091 150.124536 
L 278.967273 150.563016 
L 283.025455 150.950088 
L 287.083636 151.278192 
L 291.141818 151.530696 
L 295.2 151.686432 
L 299.258182 151.734816 
L 303.316364 151.680384 
L 307.374545 151.551864 
L 311.432727 151.370424 
L 315.490909 151.154208 
L 319.549091 150.9138 
L 323.607273 150.655248 
L 327.665455 150.378552 
L 331.723636 150.085224 
L 335.781818 149.776776 
L 339.84 149.450184 
L 343.898182 149.10696 
L 347.956364 148.742568 
L 352.014545 148.357008 
L 356.072727 147.948768 
L 360.130909 147.517848 
L 364.189091 147.059712 
L 368.247273 146.577384 
L 372.305455 146.066328 
L 376.363636 145.528056 
L 380.421818 144.962568 
L 384.48 144.369864 
L 388.538182 143.748432 
L 392.596364 143.101296 
L 396.654545 142.428456 
L 400.712727 141.731424 
L 404.770909 141.0102 
L 408.829091 140.267808 
L 412.887273 139.504248 
L 416.945455 138.724056 
L 421.003636 137.928744 
L 425.061818 137.121336 
L 429.12 136.301832 
L 433.178182 135.477792 
L 437.236364 134.650728 
L 441.294545 133.823664 
L 445.352727 133.00416 
L 449.410909 132.196752 
L 453.469091 131.409 
L 457.527273 130.646952 
L 461.585455 129.924216 
L 465.643636 129.251376 
L 469.701818 128.646576 
L 473.76 128.134008 
L 477.818182 127.748448 
L 481.876364 127.518624 
L 485.934545 127.44756 
L 489.992727 127.479312 
L 494.050909 127.533744 
L 498.109091 127.557936 
" clip-path="url(#p057cd6f82b)" style="fill: none; stroke: #000000; stroke-opacity: 0.5; stroke-linecap: square"/>
   </g>
   <g id="line2d_23">
    <path d="M 92.290909 111.411288 
L 96.349091 111.485376 
L 100.407273 111.70008 
L 104.465455 112.034232 
L 108.523636 112.450032 
L 112.581818 112.883976 
L 116.64 113.221152 
L 120.698182 113.289192 
L 124.756364 112.956552 
L 128.814545 112.270104 
L 132.872727 111.362904 
L 136.930909 110.322648 
L 140.989091 109.199232 
L 145.047273 108.01836 
L 149.105455 106.796664 
L 153.163636 105.541704 
L 157.221818 104.262552 
L 161.28 102.96072 
L 165.338182 101.64528 
L 169.396364 100.31472 
L 173.454545 98.9766 
L 177.512727 97.633944 
L 181.570909 96.288264 
L 185.629091 94.945608 
L 189.687273 93.610512 
L 193.745455 92.289024 
L 197.803636 90.991728 
L 201.861818 89.727696 
L 205.92 88.512048 
L 209.978182 87.362928 
L 214.036364 86.304528 
L 218.094545 85.364064 
L 222.152727 84.570264 
L 226.210909 83.944296 
L 230.269091 83.49372 
L 234.327273 83.20644 
L 238.385455 83.061288 
L 242.443636 83.028024 
L 246.501818 83.082456 
L 250.56 83.19888 
L 254.618182 83.360664 
L 258.676364 83.551176 
L 262.734545 83.761344 
L 266.792727 83.980584 
L 270.850909 84.202848 
L 274.909091 84.4236 
L 278.967273 84.63528 
L 283.025455 84.837888 
L 287.083636 85.0284 
L 291.141818 85.203792 
L 295.2 85.367088 
L 299.258182 85.516776 
L 303.316364 85.65588 
L 307.374545 85.788936 
L 311.432727 85.918968 
L 315.490909 86.05656 
L 319.549091 86.20776 
L 323.607273 86.387688 
L 327.665455 86.60844 
L 331.723636 86.889672 
L 335.781818 87.246504 
L 339.84 87.698592 
L 343.898182 88.25652 
L 347.956364 88.92936 
L 352.014545 89.717112 
L 356.072727 90.613728 
L 360.130909 91.604088 
L 364.189091 92.677608 
L 368.247273 93.816144 
L 372.305455 95.009112 
L 376.363636 96.242904 
L 380.421818 97.506936 
L 384.48 98.793648 
L 388.538182 100.093968 
L 392.596364 101.404872 
L 396.654545 102.720312 
L 400.712727 104.037264 
L 404.770909 105.34968 
L 408.829091 106.654536 
L 412.887273 107.95032 
L 416.945455 109.23552 
L 421.003636 110.504088 
L 425.061818 111.756024 
L 429.12 112.988304 
L 433.178182 114.196392 
L 437.236364 115.378776 
L 441.294545 116.53092 
L 445.352727 117.648288 
L 449.410909 118.727856 
L 453.469091 119.763576 
L 457.527273 120.746376 
L 461.585455 121.667184 
L 465.643636 122.515416 
L 469.701818 123.272928 
L 473.76 123.91704 
L 477.818182 124.416 
L 481.876364 124.738056 
L 485.934545 124.881696 
L 489.992727 124.901352 
L 494.050909 124.878672 
L 498.109091 124.865064 
" clip-path="url(#p057cd6f82b)" style="fill: none; stroke: #000000; stroke-opacity: 0.5; stroke-linecap: square"/>
   </g>
   <g id="patch_3">
    <path d="M 72 384.48 
L 72 51.84 
" style="fill: none; stroke: #000000; stroke-width: 0.8; stroke-linejoin: miter; stroke-linecap: square"/>
   </g>
   <g id="patch_4">
    <path d="M 518.4 384.48 
L 518.4 51.84 
" style="fill: none; stroke: #000000; stroke-width: 0.8; stroke-linejoin: miter; stroke-linecap: square"/>
   </g>
   <g id="patch_5">
    <path d="M 72 384.48 
L 518.4 384.48 
" style="fill: none; stroke: #000000; stroke-width: 0.8; stroke-linejoin: miter; stroke-linecap: square"/>
   </g>
   <g id="patch_6">
    <path d="M 72 51.84 
L 518.4 51.84 
" style="fill: none; stroke: #000000; stroke-width: 0.8; stroke-linejoin: miter; stroke-linecap: square"/>
   </g>
  </g>
 </g>
 <defs>
  <clipPath id="p057cd6f82b">
   <rect x="72" y="51.84" width="446.4" height="332.64"/>
  </clipPath>
 </defs>
</svg>
