<?xml version="1.0" encoding="utf-8" standalone="no"?>
<!DOCTYPE svg PUBLIC "-//W3C//DTD SVG 1.1//EN"
  "http://www.w3.org/Graphics/SVG/1.1/DTD/svg11.dtd">
<svg xmlns:xlink="http://www.w3.org/1999/xlink" width="576pt" height="432pt" viewBox="0 0 576 432" xmlns="http://www.w3.org/2000/svg" version="1.1">
 <metadata>
  <rdf:RDF xmlns:dc="http://purl.org/dc/elements/1.1/" xmlns:cc="http://creativecommons.org/ns#" xmlns:rdf="http://www.w3.org/1999/02/22-rdf-syntax-ns#">
   <cc:Work>
    <dc:type rdf:resource="http://purl.org/dc/dcmitype/StillImage"/>
    <dc:date>2023-05-04T12:07:45.520363</dc:date>
    <dc:format>image/svg+xml</dc:format>
    <dc:creator>
     <cc:Agent>
      <dc:title>Matplotlib v3.7.1, https://matplotlib.org/</dc:title>
     </cc:Agent>
    </dc:creator>
   </cc:Work>
  </rdf:RDF>
 </metadata>
 <defs>
  <style type="text/css">*{stroke-linejoin: round; stroke-linecap: butt}</style>
 </defs>
 <g id="figure_1">
  <g id="patch_1">
   <path d="M 0 432 
L 576 432 
L 576 0 
L 0 0 
z
" style="fill: #ffffff"/>
  </g>
  <g id="axes_1">
   <g id="patch_2">
    <path d="M 72 384.48 
L 518.4 384.48 
L 518.4 51.84 
L 72 51.84 
z
" style="fill: #ffffff"/>
   </g>
   <g id="matplotlib.axis_1">
    <g id="xtick_1">
     <g id="line2d_1">
      <defs>
       <path id="mb5ea971851" d="M 0 0 
L 0 3.5 
" style="stroke: #000000; stroke-width: 0.8"/>
      </defs>
      <g>
       <use xlink:href="#mb5ea971851" x="92.290909" y="384.48" style="stroke: #000000; stroke-width: 0.8"/>
      </g>
     </g>
     <g id="text_1">
      <!-- 0.0 -->
      <g transform="translate(84.339347 399.078438) scale(0.1 -0.1)">
       <defs>
        <path id="DejaVuSans-30" d="M 2034 4250 
Q 1547 4250 1301 3770 
Q 1056 3291 1056 2328 
Q 1056 1369 1301 889 
Q 1547 409 2034 409 
Q 2525 409 2770 889 
Q 3016 1369 3016 2328 
Q 3016 3291 2770 3770 
Q 2525 4250 2034 4250 
z
M 2034 4750 
Q 2819 4750 3233 4129 
Q 3647 3509 3647 2328 
Q 3647 1150 3233 529 
Q 2819 -91 2034 -91 
Q 1250 -91 836 529 
Q 422 1150 422 2328 
Q 422 3509 836 4129 
Q 1250 4750 2034 4750 
z
" transform="scale(0.015625)"/>
        <path id="DejaVuSans-2e" d="M 684 794 
L 1344 794 
L 1344 0 
L 684 0 
L 684 794 
z
" transform="scale(0.015625)"/>
       </defs>
       <use xlink:href="#DejaVuSans-30"/>
       <use xlink:href="#DejaVuSans-2e" x="63.623047"/>
       <use xlink:href="#DejaVuSans-30" x="95.410156"/>
      </g>
     </g>
    </g>
    <g id="xtick_2">
     <g id="line2d_2">
      <g>
       <use xlink:href="#mb5ea971851" x="173.454545" y="384.48" style="stroke: #000000; stroke-width: 0.8"/>
      </g>
     </g>
     <g id="text_2">
      <!-- 0.2 -->
      <g transform="translate(165.502983 399.078438) scale(0.1 -0.1)">
       <defs>
        <path id="DejaVuSans-32" d="M 1228 531 
L 3431 531 
L 3431 0 
L 469 0 
L 469 531 
Q 828 903 1448 1529 
Q 2069 2156 2228 2338 
Q 2531 2678 2651 2914 
Q 2772 3150 2772 3378 
Q 2772 3750 2511 3984 
Q 2250 4219 1831 4219 
Q 1534 4219 1204 4116 
Q 875 4013 500 3803 
L 500 4441 
Q 881 4594 1212 4672 
Q 1544 4750 1819 4750 
Q 2544 4750 2975 4387 
Q 3406 4025 3406 3419 
Q 3406 3131 3298 2873 
Q 3191 2616 2906 2266 
Q 2828 2175 2409 1742 
Q 1991 1309 1228 531 
z
" transform="scale(0.015625)"/>
       </defs>
       <use xlink:href="#DejaVuSans-30"/>
       <use xlink:href="#DejaVuSans-2e" x="63.623047"/>
       <use xlink:href="#DejaVuSans-32" x="95.410156"/>
      </g>
     </g>
    </g>
    <g id="xtick_3">
     <g id="line2d_3">
      <g>
       <use xlink:href="#mb5ea971851" x="254.618182" y="384.48" style="stroke: #000000; stroke-width: 0.8"/>
      </g>
     </g>
     <g id="text_3">
      <!-- 0.4 -->
      <g transform="translate(246.666619 399.078438) scale(0.1 -0.1)">
       <defs>
        <path id="DejaVuSans-34" d="M 2419 4116 
L 825 1625 
L 2419 1625 
L 2419 4116 
z
M 2253 4666 
L 3047 4666 
L 3047 1625 
L 3713 1625 
L 3713 1100 
L 3047 1100 
L 3047 0 
L 2419 0 
L 2419 1100 
L 313 1100 
L 313 1709 
L 2253 4666 
z
" transform="scale(0.015625)"/>
       </defs>
       <use xlink:href="#DejaVuSans-30"/>
       <use xlink:href="#DejaVuSans-2e" x="63.623047"/>
       <use xlink:href="#DejaVuSans-34" x="95.410156"/>
      </g>
     </g>
    </g>
    <g id="xtick_4">
     <g id="line2d_4">
      <g>
       <use xlink:href="#mb5ea971851" x="335.781818" y="384.48" style="stroke: #000000; stroke-width: 0.8"/>
      </g>
     </g>
     <g id="text_4">
      <!-- 0.6 -->
      <g transform="translate(327.830256 399.078438) scale(0.1 -0.1)">
       <defs>
        <path id="DejaVuSans-36" d="M 2113 2584 
Q 1688 2584 1439 2293 
Q 1191 2003 1191 1497 
Q 1191 994 1439 701 
Q 1688 409 2113 409 
Q 2538 409 2786 701 
Q 3034 994 3034 1497 
Q 3034 2003 2786 2293 
Q 2538 2584 2113 2584 
z
M 3366 4563 
L 3366 3988 
Q 3128 4100 2886 4159 
Q 2644 4219 2406 4219 
Q 1781 4219 1451 3797 
Q 1122 3375 1075 2522 
Q 1259 2794 1537 2939 
Q 1816 3084 2150 3084 
Q 2853 3084 3261 2657 
Q 3669 2231 3669 1497 
Q 3669 778 3244 343 
Q 2819 -91 2113 -91 
Q 1303 -91 875 529 
Q 447 1150 447 2328 
Q 447 3434 972 4092 
Q 1497 4750 2381 4750 
Q 2619 4750 2861 4703 
Q 3103 4656 3366 4563 
z
" transform="scale(0.015625)"/>
       </defs>
       <use xlink:href="#DejaVuSans-30"/>
       <use xlink:href="#DejaVuSans-2e" x="63.623047"/>
       <use xlink:href="#DejaVuSans-36" x="95.410156"/>
      </g>
     </g>
    </g>
    <g id="xtick_5">
     <g id="line2d_5">
      <g>
       <use xlink:href="#mb5ea971851" x="416.945455" y="384.48" style="stroke: #000000; stroke-width: 0.8"/>
      </g>
     </g>
     <g id="text_5">
      <!-- 0.8 -->
      <g transform="translate(408.993892 399.078438) scale(0.1 -0.1)">
       <defs>
        <path id="DejaVuSans-38" d="M 2034 2216 
Q 1584 2216 1326 1975 
Q 1069 1734 1069 1313 
Q 1069 891 1326 650 
Q 1584 409 2034 409 
Q 2484 409 2743 651 
Q 3003 894 3003 1313 
Q 3003 1734 2745 1975 
Q 2488 2216 2034 2216 
z
M 1403 2484 
Q 997 2584 770 2862 
Q 544 3141 544 3541 
Q 544 4100 942 4425 
Q 1341 4750 2034 4750 
Q 2731 4750 3128 4425 
Q 3525 4100 3525 3541 
Q 3525 3141 3298 2862 
Q 3072 2584 2669 2484 
Q 3125 2378 3379 2068 
Q 3634 1759 3634 1313 
Q 3634 634 3220 271 
Q 2806 -91 2034 -91 
Q 1263 -91 848 271 
Q 434 634 434 1313 
Q 434 1759 690 2068 
Q 947 2378 1403 2484 
z
M 1172 3481 
Q 1172 3119 1398 2916 
Q 1625 2713 2034 2713 
Q 2441 2713 2670 2916 
Q 2900 3119 2900 3481 
Q 2900 3844 2670 4047 
Q 2441 4250 2034 4250 
Q 1625 4250 1398 4047 
Q 1172 3844 1172 3481 
z
" transform="scale(0.015625)"/>
       </defs>
       <use xlink:href="#DejaVuSans-30"/>
       <use xlink:href="#DejaVuSans-2e" x="63.623047"/>
       <use xlink:href="#DejaVuSans-38" x="95.410156"/>
      </g>
     </g>
    </g>
    <g id="xtick_6">
     <g id="line2d_6">
      <g>
       <use xlink:href="#mb5ea971851" x="498.109091" y="384.48" style="stroke: #000000; stroke-width: 0.8"/>
      </g>
     </g>
     <g id="text_6">
      <!-- 1.0 -->
      <g transform="translate(490.157528 399.078438) scale(0.1 -0.1)">
       <defs>
        <path id="DejaVuSans-31" d="M 794 531 
L 1825 531 
L 1825 4091 
L 703 3866 
L 703 4441 
L 1819 4666 
L 2450 4666 
L 2450 531 
L 3481 531 
L 3481 0 
L 794 0 
L 794 531 
z
" transform="scale(0.015625)"/>
       </defs>
       <use xlink:href="#DejaVuSans-31"/>
       <use xlink:href="#DejaVuSans-2e" x="63.623047"/>
       <use xlink:href="#DejaVuSans-30" x="95.410156"/>
      </g>
     </g>
    </g>
   </g>
   <g id="matplotlib.axis_2">
    <g id="ytick_1">
     <g id="line2d_7">
      <defs>
       <path id="m9017f07fd6" d="M 0 0 
L -3.5 0 
" style="stroke: #000000; stroke-width: 0.8"/>
      </defs>
      <g>
       <use xlink:href="#m9017f07fd6" x="72" y="369.36" style="stroke: #000000; stroke-width: 0.8"/>
      </g>
     </g>
     <g id="text_7">
      <!-- −5.0 -->
      <g transform="translate(40.717187 373.159219) scale(0.1 -0.1)">
       <defs>
        <path id="DejaVuSans-2212" d="M 678 2272 
L 4684 2272 
L 4684 1741 
L 678 1741 
L 678 2272 
z
" transform="scale(0.015625)"/>
        <path id="DejaVuSans-35" d="M 691 4666 
L 3169 4666 
L 3169 4134 
L 1269 4134 
L 1269 2991 
Q 1406 3038 1543 3061 
Q 1681 3084 1819 3084 
Q 2600 3084 3056 2656 
Q 3513 2228 3513 1497 
Q 3513 744 3044 326 
Q 2575 -91 1722 -91 
Q 1428 -91 1123 -41 
Q 819 9 494 109 
L 494 744 
Q 775 591 1075 516 
Q 1375 441 1709 441 
Q 2250 441 2565 725 
Q 2881 1009 2881 1497 
Q 2881 1984 2565 2268 
Q 2250 2553 1709 2553 
Q 1456 2553 1204 2497 
Q 953 2441 691 2322 
L 691 4666 
z
" transform="scale(0.015625)"/>
       </defs>
       <use xlink:href="#DejaVuSans-2212"/>
       <use xlink:href="#DejaVuSans-35" x="83.789062"/>
       <use xlink:href="#DejaVuSans-2e" x="147.412109"/>
       <use xlink:href="#DejaVuSans-30" x="179.199219"/>
      </g>
     </g>
    </g>
    <g id="ytick_2">
     <g id="line2d_8">
      <g>
       <use xlink:href="#m9017f07fd6" x="72" y="331.56" style="stroke: #000000; stroke-width: 0.8"/>
      </g>
     </g>
     <g id="text_8">
      <!-- −2.5 -->
      <g transform="translate(40.717187 335.359219) scale(0.1 -0.1)">
       <use xlink:href="#DejaVuSans-2212"/>
       <use xlink:href="#DejaVuSans-32" x="83.789062"/>
       <use xlink:href="#DejaVuSans-2e" x="147.412109"/>
       <use xlink:href="#DejaVuSans-35" x="179.199219"/>
      </g>
     </g>
    </g>
    <g id="ytick_3">
     <g id="line2d_9">
      <g>
       <use xlink:href="#m9017f07fd6" x="72" y="293.76" style="stroke: #000000; stroke-width: 0.8"/>
      </g>
     </g>
     <g id="text_9">
      <!-- 0.0 -->
      <g transform="translate(49.096875 297.559219) scale(0.1 -0.1)">
       <use xlink:href="#DejaVuSans-30"/>
       <use xlink:href="#DejaVuSans-2e" x="63.623047"/>
       <use xlink:href="#DejaVuSans-30" x="95.410156"/>
      </g>
     </g>
    </g>
    <g id="ytick_4">
     <g id="line2d_10">
      <g>
       <use xlink:href="#m9017f07fd6" x="72" y="255.96" style="stroke: #000000; stroke-width: 0.8"/>
      </g>
     </g>
     <g id="text_10">
      <!-- 2.5 -->
      <g transform="translate(49.096875 259.759219) scale(0.1 -0.1)">
       <use xlink:href="#DejaVuSans-32"/>
       <use xlink:href="#DejaVuSans-2e" x="63.623047"/>
       <use xlink:href="#DejaVuSans-35" x="95.410156"/>
      </g>
     </g>
    </g>
    <g id="ytick_5">
     <g id="line2d_11">
      <g>
       <use xlink:href="#m9017f07fd6" x="72" y="218.16" style="stroke: #000000; stroke-width: 0.8"/>
      </g>
     </g>
     <g id="text_11">
      <!-- 5.0 -->
      <g transform="translate(49.096875 221.959219) scale(0.1 -0.1)">
       <use xlink:href="#DejaVuSans-35"/>
       <use xlink:href="#DejaVuSans-2e" x="63.623047"/>
       <use xlink:href="#DejaVuSans-30" x="95.410156"/>
      </g>
     </g>
    </g>
    <g id="ytick_6">
     <g id="line2d_12">
      <g>
       <use xlink:href="#m9017f07fd6" x="72" y="180.36" style="stroke: #000000; stroke-width: 0.8"/>
      </g>
     </g>
     <g id="text_12">
      <!-- 7.5 -->
      <g transform="translate(49.096875 184.159219) scale(0.1 -0.1)">
       <defs>
        <path id="DejaVuSans-37" d="M 525 4666 
L 3525 4666 
L 3525 4397 
L 1831 0 
L 1172 0 
L 2766 4134 
L 525 4134 
L 525 4666 
z
" transform="scale(0.015625)"/>
       </defs>
       <use xlink:href="#DejaVuSans-37"/>
       <use xlink:href="#DejaVuSans-2e" x="63.623047"/>
       <use xlink:href="#DejaVuSans-35" x="95.410156"/>
      </g>
     </g>
    </g>
    <g id="ytick_7">
     <g id="line2d_13">
      <g>
       <use xlink:href="#m9017f07fd6" x="72" y="142.56" style="stroke: #000000; stroke-width: 0.8"/>
      </g>
     </g>
     <g id="text_13">
      <!-- 10.0 -->
      <g transform="translate(42.734375 146.359219) scale(0.1 -0.1)">
       <use xlink:href="#DejaVuSans-31"/>
       <use xlink:href="#DejaVuSans-30" x="63.623047"/>
       <use xlink:href="#DejaVuSans-2e" x="127.246094"/>
       <use xlink:href="#DejaVuSans-30" x="159.033203"/>
      </g>
     </g>
    </g>
    <g id="ytick_8">
     <g id="line2d_14">
      <g>
       <use xlink:href="#m9017f07fd6" x="72" y="104.76" style="stroke: #000000; stroke-width: 0.8"/>
      </g>
     </g>
     <g id="text_14">
      <!-- 12.5 -->
      <g transform="translate(42.734375 108.559219) scale(0.1 -0.1)">
       <use xlink:href="#DejaVuSans-31"/>
       <use xlink:href="#DejaVuSans-32" x="63.623047"/>
       <use xlink:href="#DejaVuSans-2e" x="127.246094"/>
       <use xlink:href="#DejaVuSans-35" x="159.033203"/>
      </g>
     </g>
    </g>
    <g id="ytick_9">
     <g id="line2d_15">
      <g>
       <use xlink:href="#m9017f07fd6" x="72" y="66.96" style="stroke: #000000; stroke-width: 0.8"/>
      </g>
     </g>
     <g id="text_15">
      <!-- 15.0 -->
      <g transform="translate(42.734375 70.759219) scale(0.1 -0.1)">
       <use xlink:href="#DejaVuSans-31"/>
       <use xlink:href="#DejaVuSans-35" x="63.623047"/>
       <use xlink:href="#DejaVuSans-2e" x="127.246094"/>
       <use xlink:href="#DejaVuSans-30" x="159.033203"/>
      </g>
     </g>
    </g>
   </g>
   <g id="line2d_16">
    <path d="M 92.290909 322.773768 
L 96.349091 322.831224 
L 100.407273 322.999056 
L 104.465455 323.26668 
L 108.523636 323.622 
L 112.581818 324.049896 
L 116.64 324.535248 
L 120.698182 325.068984 
L 124.756364 325.639008 
L 128.814545 326.240784 
L 132.872727 326.86524 
L 136.930909 327.509352 
L 140.989091 328.170096 
L 145.047273 328.844448 
L 149.105455 329.527872 
L 153.163636 330.218856 
L 157.221818 330.9174 
L 161.28 331.621992 
L 165.338182 332.329608 
L 169.396364 333.040248 
L 173.454545 333.7524 
L 177.512727 334.466064 
L 181.570909 335.179728 
L 185.629091 335.893392 
L 189.687273 336.605544 
L 193.745455 337.317696 
L 197.803636 338.025312 
L 201.861818 338.732928 
L 205.92 339.436008 
L 209.978182 340.136064 
L 214.036364 340.831584 
L 218.094545 341.522568 
L 222.152727 342.210528 
L 226.210909 342.89244 
L 230.269091 343.569816 
L 234.327273 344.241144 
L 238.385455 344.906424 
L 242.443636 345.565656 
L 246.501818 346.217328 
L 250.56 346.862952 
L 254.618182 347.502528 
L 258.676364 348.134544 
L 262.734545 348.759 
L 266.792727 349.375896 
L 270.850909 349.98372 
L 274.909091 350.585496 
L 278.967273 351.1782 
L 283.025455 351.761832 
L 287.083636 352.337904 
L 291.141818 352.903392 
L 295.2 353.46132 
L 299.258182 354.010176 
L 303.316364 354.54996 
L 307.374545 355.080672 
L 311.432727 355.602312 
L 315.490909 356.113368 
L 319.549091 356.61384 
L 323.607273 357.10524 
L 327.665455 357.587568 
L 331.723636 358.059312 
L 335.781818 358.520472 
L 339.84 358.97256 
L 343.898182 359.412552 
L 347.956364 359.843472 
L 352.014545 360.262296 
L 356.072727 360.672048 
L 360.130909 361.069704 
L 364.189091 361.458288 
L 368.247273 361.834776 
L 372.305455 362.20068 
L 376.363636 362.556 
L 380.421818 362.899224 
L 384.48 363.231864 
L 388.538182 363.55392 
L 392.596364 363.86388 
L 396.654545 364.163256 
L 400.712727 364.450536 
L 404.770909 364.72572 
L 408.829091 364.991832 
L 412.887273 365.244336 
L 416.945455 365.486256 
L 421.003636 365.71608 
L 425.061818 365.93532 
L 429.12 366.142464 
L 433.178182 366.337512 
L 437.236364 366.520464 
L 441.294545 366.692832 
L 445.352727 366.853104 
L 449.410909 367.00128 
L 453.469091 367.138872 
L 457.527273 367.262856 
L 461.585455 367.376256 
L 465.643636 367.47756 
L 469.701818 367.566768 
L 473.76 367.64388 
L 477.818182 367.708896 
L 481.876364 367.763328 
L 485.934545 367.804152 
L 489.992727 367.834392 
L 494.050909 367.852536 
L 498.109091 367.858584 
" clip-path="url(#p338d59ffd6)" style="fill: none; stroke: #000000; stroke-opacity: 0.5; stroke-linecap: square"/>
   </g>
   <g id="line2d_17">
    <path d="M 92.290909 313.31016 
L 96.349091 313.25724 
L 100.407273 313.101504 
L 104.465455 312.853536 
L 108.523636 312.526944 
L 112.581818 312.136848 
L 116.64 311.695344 
L 120.698182 311.213016 
L 124.756364 310.700448 
L 128.814545 310.1652 
L 132.872727 309.610296 
L 136.930909 309.043296 
L 140.989091 308.465712 
L 145.047273 307.879056 
L 149.105455 307.287864 
L 153.163636 306.692136 
L 157.221818 306.091872 
L 161.28 305.490096 
L 165.338182 304.886808 
L 169.396364 304.282008 
L 173.454545 303.675696 
L 177.512727 303.069384 
L 181.570909 302.460048 
L 185.629091 301.852224 
L 189.687273 301.242888 
L 193.745455 300.63204 
L 197.803636 300.021192 
L 201.861818 299.408832 
L 205.92 298.79496 
L 209.978182 298.179576 
L 214.036364 297.56268 
L 218.094545 296.944272 
L 222.152727 296.32284 
L 226.210909 295.699896 
L 230.269091 295.073928 
L 234.327273 294.446448 
L 238.385455 293.814432 
L 242.443636 293.179392 
L 246.501818 292.541328 
L 250.56 291.90024 
L 254.618182 291.256128 
L 258.676364 290.605968 
L 262.734545 289.952784 
L 266.792727 289.296576 
L 270.850909 288.63432 
L 274.909091 287.96904 
L 278.967273 287.297712 
L 283.025455 286.62336 
L 287.083636 285.94296 
L 291.141818 285.258024 
L 295.2 284.568552 
L 299.258182 283.874544 
L 303.316364 283.174488 
L 307.374545 282.471408 
L 311.432727 281.76228 
L 315.490909 281.047104 
L 319.549091 280.328904 
L 323.607273 279.604656 
L 327.665455 278.877384 
L 331.723636 278.144064 
L 335.781818 277.406208 
L 339.84 276.665328 
L 343.898182 275.9184 
L 347.956364 275.16996 
L 352.014545 274.415472 
L 356.072727 273.659472 
L 360.130909 272.898936 
L 364.189091 272.135376 
L 368.247273 271.370304 
L 372.305455 270.602208 
L 376.363636 269.8326 
L 380.421818 269.062992 
L 384.48 268.29036 
L 388.538182 267.51924 
L 392.596364 266.74812 
L 396.654545 265.977 
L 400.712727 265.208904 
L 404.770909 264.443832 
L 408.829091 263.681784 
L 412.887273 262.925784 
L 416.945455 262.17432 
L 421.003636 261.431928 
L 425.061818 260.697096 
L 429.12 259.972848 
L 433.178182 259.260696 
L 437.236364 258.563664 
L 441.294545 257.883264 
L 445.352727 257.22252 
L 449.410909 256.582944 
L 453.469091 255.970584 
L 457.527273 255.388464 
L 461.585455 254.839608 
L 465.643636 254.328552 
L 469.701818 253.859832 
L 473.76 253.439496 
L 477.818182 253.07208 
L 481.876364 252.763632 
L 485.934545 252.518688 
L 489.992727 252.33876 
L 494.050909 252.229896 
L 498.109091 252.193608 
" clip-path="url(#p338d59ffd6)" style="fill: none; stroke: #000000; stroke-opacity: 0.5; stroke-linecap: square"/>
   </g>
   <g id="line2d_18">
    <path d="M 92.290909 264.082464 
L 96.349091 264.085488 
L 100.407273 264.09456 
L 104.465455 264.108168 
L 108.523636 264.126312 
L 112.581818 264.14748 
L 116.64 264.168648 
L 120.698182 264.188304 
L 124.756364 264.204936 
L 128.814545 264.217032 
L 132.872727 264.221568 
L 136.930909 264.218544 
L 140.989091 264.206448 
L 145.047273 264.183768 
L 149.105455 264.150504 
L 153.163636 264.103632 
L 157.221818 264.043152 
L 161.28 263.970576 
L 165.338182 263.884392 
L 169.396364 263.783088 
L 173.454545 263.668176 
L 177.512727 263.538144 
L 181.570909 263.392992 
L 185.629091 263.23272 
L 189.687273 263.057328 
L 193.745455 262.868328 
L 197.803636 262.664208 
L 201.861818 262.444968 
L 205.92 262.210608 
L 209.978182 261.961128 
L 214.036364 261.69804 
L 218.094545 261.421344 
L 222.152727 261.129528 
L 226.210909 260.824104 
L 230.269091 260.50356 
L 234.327273 260.17092 
L 238.385455 259.82316 
L 242.443636 259.463304 
L 246.501818 259.08984 
L 250.56 258.702768 
L 254.618182 258.3036 
L 258.676364 257.890824 
L 262.734545 257.467464 
L 266.792727 257.030496 
L 270.850909 256.581432 
L 274.909091 256.120272 
L 278.967273 255.648528 
L 283.025455 255.1662 
L 287.083636 254.671776 
L 291.141818 254.165256 
L 295.2 253.649664 
L 299.258182 253.123488 
L 303.316364 252.58824 
L 307.374545 252.040896 
L 311.432727 251.485992 
L 315.490909 250.922016 
L 319.549091 250.347456 
L 323.607273 249.765336 
L 327.665455 249.175656 
L 331.723636 248.576904 
L 335.781818 247.972104 
L 339.84 247.359744 
L 343.898182 246.741336 
L 347.956364 246.115368 
L 352.014545 245.484864 
L 356.072727 244.848312 
L 360.130909 244.208736 
L 364.189091 243.564624 
L 368.247273 242.915976 
L 372.305455 242.265816 
L 376.363636 241.614144 
L 380.421818 240.96096 
L 384.48 240.306264 
L 388.538182 239.65308 
L 392.596364 239.001408 
L 396.654545 238.35276 
L 400.712727 237.707136 
L 404.770909 237.06756 
L 408.829091 236.43252 
L 412.887273 235.806552 
L 416.945455 235.188144 
L 421.003636 234.58032 
L 425.061818 233.986104 
L 429.12 233.405496 
L 433.178182 232.84152 
L 437.236364 232.295688 
L 441.294545 231.771024 
L 445.352727 231.270552 
L 449.410909 230.798808 
L 453.469091 230.360328 
L 457.527273 229.965696 
L 461.585455 229.645152 
L 465.643636 229.49244 
L 469.701818 229.608864 
L 473.76 229.856832 
L 477.818182 230.115384 
L 481.876364 230.348232 
L 485.934545 230.538744 
L 489.992727 230.67936 
L 494.050909 230.765544 
L 498.109091 230.794272 
" clip-path="url(#p338d59ffd6)" style="fill: none; stroke: #000000; stroke-opacity: 0.5; stroke-linecap: square"/>
   </g>
   <g id="line2d_19">
    <path d="M 92.290909 254.960568 
L 96.349091 254.933352 
L 100.407273 254.851704 
L 104.465455 254.717136 
L 108.523636 254.532672 
L 112.581818 254.2968 
L 116.64 254.014056 
L 120.698182 253.68444 
L 124.756364 253.314 
L 128.814545 252.901224 
L 132.872727 252.450648 
L 136.930909 251.963784 
L 140.989091 251.442144 
L 145.047273 250.888752 
L 149.105455 250.303608 
L 153.163636 249.691248 
L 157.221818 249.05016 
L 161.28 248.38488 
L 165.338182 247.693896 
L 169.396364 246.981744 
L 173.454545 246.248424 
L 177.512727 245.493936 
L 181.570909 244.722816 
L 185.629091 243.933552 
L 189.687273 243.129168 
L 193.745455 242.311176 
L 197.803636 241.479576 
L 201.861818 240.637392 
L 205.92 239.786136 
L 209.978182 238.92732 
L 214.036364 238.062456 
L 218.094545 237.191544 
L 222.152727 236.31912 
L 226.210909 235.445184 
L 230.269091 234.571248 
L 234.327273 233.700336 
L 238.385455 232.835472 
L 242.443636 231.975144 
L 246.501818 231.1254 
L 250.56 230.284728 
L 254.618182 229.459176 
L 258.676364 228.647232 
L 262.734545 227.853432 
L 266.792727 227.0808 
L 270.850909 226.329336 
L 274.909091 225.603576 
L 278.967273 224.905032 
L 283.025455 224.235216 
L 287.083636 223.597152 
L 291.141818 222.993864 
L 295.2 222.425352 
L 299.258182 221.89464 
L 303.316364 221.404752 
L 307.374545 220.955688 
L 311.432727 220.547448 
L 315.490909 220.184568 
L 319.549091 219.864024 
L 323.607273 219.58884 
L 327.665455 219.357504 
L 331.723636 219.171528 
L 335.781818 219.027888 
L 339.84 218.929608 
L 343.898182 218.873664 
L 347.956364 218.858544 
L 352.014545 218.884248 
L 356.072727 218.949264 
L 360.130909 219.050568 
L 364.189091 219.18816 
L 368.247273 219.360528 
L 372.305455 219.56616 
L 376.363636 219.802032 
L 380.421818 220.066632 
L 384.48 220.35996 
L 388.538182 220.67748 
L 392.596364 221.020704 
L 396.654545 221.385096 
L 400.712727 221.770656 
L 404.770909 222.172848 
L 408.829091 222.593184 
L 412.887273 223.02864 
L 416.945455 223.477704 
L 421.003636 223.93584 
L 425.061818 224.403048 
L 429.12 224.877816 
L 433.178182 225.355608 
L 437.236364 225.8334 
L 441.294545 226.30968 
L 445.352727 226.7784 
L 449.410909 227.236536 
L 453.469091 227.67804 
L 457.527273 228.08628 
L 461.585455 228.43404 
L 465.643636 228.62304 
L 469.701818 228.550464 
L 473.76 228.349368 
L 477.818182 228.137688 
L 481.876364 227.9502 
L 485.934545 227.799 
L 489.992727 227.688624 
L 494.050909 227.622096 
L 498.109091 227.599416 
" clip-path="url(#p338d59ffd6)" style="fill: none; stroke: #000000; stroke-opacity: 0.5; stroke-linecap: square"/>
   </g>
   <g id="line2d_20">
    <path d="M 92.290909 153.290664 
L 96.349091 153.286128 
L 100.407273 153.271008 
L 104.465455 153.245304 
L 108.523636 153.210528 
L 112.581818 153.165168 
L 116.64 153.109224 
L 120.698182 153.044208 
L 124.756364 152.968608 
L 128.814545 152.885448 
L 132.872727 152.790192 
L 136.930909 152.687376 
L 140.989091 152.575488 
L 145.047273 152.45604 
L 149.105455 152.32752 
L 153.163636 152.192952 
L 157.221818 152.052336 
L 161.28 151.908696 
L 165.338182 151.765056 
L 169.396364 151.630488 
L 173.454545 151.517088 
L 177.512727 151.45812 
L 181.570909 151.52616 
L 185.629091 151.821 
L 189.687273 152.354736 
L 193.745455 153.026064 
L 197.803636 153.753336 
L 201.861818 154.49724 
L 205.92 155.239632 
L 209.978182 155.972952 
L 214.036364 156.68964 
L 218.094545 157.388184 
L 222.152727 158.06556 
L 226.210909 158.720256 
L 230.269091 159.349248 
L 234.327273 159.952536 
L 238.385455 160.527096 
L 242.443636 161.071416 
L 246.501818 161.585496 
L 250.56 162.0648 
L 254.618182 162.512352 
L 258.676364 162.922104 
L 262.734545 163.295568 
L 266.792727 163.62972 
L 270.850909 163.923048 
L 274.909091 164.17404 
L 278.967273 164.381184 
L 283.025455 164.54448 
L 287.083636 164.659392 
L 291.141818 164.727432 
L 295.2 164.745576 
L 299.258182 164.715336 
L 303.316364 164.633688 
L 307.374545 164.502144 
L 311.432727 164.319192 
L 315.490909 164.086344 
L 319.549091 163.8036 
L 323.607273 163.473984 
L 327.665455 163.097496 
L 331.723636 162.678672 
L 335.781818 162.222048 
L 339.84 161.73216 
L 343.898182 161.219592 
L 347.956364 160.69644 
L 352.014545 160.186896 
L 356.072727 159.733296 
L 360.130909 159.408216 
L 364.189091 159.326568 
L 368.247273 159.591168 
L 372.305455 160.188408 
L 376.363636 161.010936 
L 380.421818 161.957448 
L 384.48 162.96444 
L 388.538182 163.997136 
L 392.596364 165.038904 
L 396.654545 166.077648 
L 400.712727 167.105808 
L 404.770909 168.118848 
L 408.829091 169.112232 
L 412.887273 170.084448 
L 416.945455 171.032472 
L 421.003636 171.95328 
L 425.061818 172.84536 
L 429.12 173.7072 
L 433.178182 174.537288 
L 437.236364 175.3326 
L 441.294545 176.090112 
L 445.352727 176.809824 
L 449.410909 177.488712 
L 453.469091 178.125264 
L 457.527273 178.714944 
L 461.585455 179.259264 
L 465.643636 179.752176 
L 469.701818 180.19368 
L 473.76 180.580752 
L 477.818182 180.913392 
L 481.876364 181.187064 
L 485.934545 181.401768 
L 489.992727 181.555992 
L 494.050909 181.649736 
L 498.109091 181.679976 
" clip-path="url(#p338d59ffd6)" style="fill: none; stroke: #000000; stroke-opacity: 0.5; stroke-linecap: square"/>
   </g>
   <g id="line2d_21">
    <path d="M 92.290909 135.89208 
L 96.349091 135.91476 
L 100.407273 135.981288 
L 104.465455 136.099224 
L 108.523636 136.280664 
L 112.581818 136.536192 
L 116.64 136.88244 
L 120.698182 137.32848 
L 124.756364 137.878848 
L 128.814545 138.524472 
L 132.872727 139.253256 
L 136.930909 140.048568 
L 140.989091 140.890752 
L 145.047273 141.764688 
L 149.105455 142.659792 
L 153.163636 143.563968 
L 157.221818 144.471168 
L 161.28 145.37232 
L 165.338182 146.259864 
L 169.396364 147.124728 
L 173.454545 147.948768 
L 177.512727 148.69872 
L 181.570909 149.300496 
L 185.629091 149.65128 
L 189.687273 149.737464 
L 193.745455 149.661864 
L 197.803636 149.503104 
L 201.861818 149.300496 
L 205.92 149.070672 
L 209.978182 148.821192 
L 214.036364 148.558104 
L 218.094545 148.281408 
L 222.152727 147.994128 
L 226.210909 147.696264 
L 230.269091 147.39084 
L 234.327273 147.076344 
L 238.385455 146.754288 
L 242.443636 146.426184 
L 246.501818 146.09052 
L 250.56 145.748808 
L 254.618182 145.401048 
L 258.676364 145.04724 
L 262.734545 144.688896 
L 266.792727 144.326016 
L 270.850909 143.9586 
L 274.909091 143.58816 
L 278.967273 143.213184 
L 283.025455 142.838208 
L 287.083636 142.46172 
L 291.141818 142.085232 
L 295.2 141.71328 
L 299.258182 141.348888 
L 303.316364 141.004152 
L 307.374545 140.70024 
L 311.432727 140.520312 
L 315.490909 140.719896 
L 319.549091 141.557544 
L 323.607273 142.738416 
L 327.665455 144.014544 
L 331.723636 145.31184 
L 335.781818 146.6046 
L 339.84 147.879216 
L 343.898182 149.123592 
L 347.956364 150.322608 
L 352.014545 151.455096 
L 356.072727 152.47872 
L 360.130909 153.323928 
L 364.189091 153.878832 
L 368.247273 154.040616 
L 372.305455 153.827424 
L 376.363636 153.351144 
L 380.421818 152.714592 
L 384.48 151.988832 
L 388.538182 151.211664 
L 392.596364 150.410304 
L 396.654545 149.604408 
L 400.712727 148.816656 
L 404.770909 148.066704 
L 408.829091 147.381768 
L 412.887273 146.795112 
L 416.945455 146.34 
L 421.003636 146.04516 
L 425.061818 145.9242 
L 429.12 145.963512 
L 433.178182 146.131344 
L 437.236364 146.39292 
L 441.294545 146.713464 
L 445.352727 147.064248 
L 449.410909 147.427128 
L 453.469091 147.788496 
L 457.527273 148.136256 
L 461.585455 148.46436 
L 465.643636 148.76676 
L 469.701818 149.041944 
L 473.76 149.283864 
L 477.818182 149.491008 
L 481.876364 149.663376 
L 485.934545 149.797944 
L 489.992727 149.894712 
L 494.050909 149.95368 
L 498.109091 149.973336 
" clip-path="url(#p338d59ffd6)" style="fill: none; stroke: #000000; stroke-opacity: 0.5; stroke-linecap: square"/>
   </g>
   <g id="line2d_22">
    <path d="M 92.290909 124.051608 
L 96.349091 124.830288 
L 100.407273 125.840304 
L 104.465455 126.809496 
L 108.523636 127.7046 
L 112.581818 128.510496 
L 116.64 129.206016 
L 120.698182 129.779064 
L 124.756364 130.226616 
L 128.814545 130.550184 
L 132.872727 130.7664 
L 136.930909 130.888872 
L 140.989091 130.934232 
L 145.047273 130.9176 
L 149.105455 130.84956 
L 153.163636 130.739184 
L 157.221818 130.59252 
L 161.28 130.412592 
L 165.338182 130.205448 
L 169.396364 129.9726 
L 173.454545 129.71556 
L 177.512727 129.437352 
L 181.570909 129.137976 
L 185.629091 128.818944 
L 189.687273 128.480256 
L 193.745455 128.124936 
L 197.803636 127.751472 
L 201.861818 127.359864 
L 205.92 126.953136 
L 209.978182 126.529776 
L 214.036364 126.091296 
L 218.094545 125.639208 
L 222.152727 125.172 
L 226.210909 124.694208 
L 230.269091 124.205832 
L 234.327273 123.709896 
L 238.385455 123.210936 
L 242.443636 122.718024 
L 246.501818 122.243256 
L 250.56 121.818384 
L 254.618182 121.503888 
L 258.676364 121.43736 
L 262.734545 121.816872 
L 266.792727 122.683248 
L 270.850909 123.862608 
L 274.909091 125.190144 
L 278.967273 126.58572 
L 283.025455 128.013048 
L 287.083636 129.452472 
L 291.141818 130.893408 
L 295.2 132.328296 
L 299.258182 133.749576 
L 303.316364 135.14364 
L 307.374545 136.483272 
L 311.432727 137.689848 
L 315.490909 138.503304 
L 319.549091 138.665088 
L 323.607273 138.47004 
L 327.665455 138.161592 
L 331.723636 137.81232 
L 335.781818 137.446416 
L 339.84 137.072952 
L 343.898182 136.697976 
L 347.956364 136.323 
L 352.014545 135.95256 
L 356.072727 135.586656 
L 360.130909 135.228312 
L 364.189091 134.880552 
L 368.247273 134.550936 
L 372.305455 134.244 
L 376.363636 133.974864 
L 380.421818 133.77528 
L 384.48 133.698168 
L 388.538182 133.832736 
L 392.596364 134.22132 
L 396.654545 134.782272 
L 400.712727 135.399168 
L 404.770909 135.99036 
L 408.829091 136.50444 
L 412.887273 136.89756 
L 416.945455 137.13192 
L 421.003636 137.174256 
L 425.061818 137.017008 
L 429.12 136.672272 
L 433.178182 136.174824 
L 437.236364 135.563976 
L 441.294545 134.880552 
L 445.352727 134.157816 
L 449.410909 133.418448 
L 453.469091 132.68664 
L 457.527273 131.982048 
L 461.585455 131.319792 
L 465.643636 130.716504 
L 469.701818 130.187304 
L 473.76 129.73824 
L 477.818182 129.373848 
L 481.876364 129.092616 
L 485.934545 128.88396 
L 489.992727 128.743344 
L 494.050909 128.661696 
L 498.109091 128.635992 
" clip-path="url(#p338d59ffd6)" style="fill: none; stroke: #000000; stroke-opacity: 0.5; stroke-linecap: square"/>
   </g>
   <g id="line2d_23">
    <path d="M 92.290909 123.29712 
L 96.349091 122.477616 
L 100.407273 121.33908 
L 104.465455 120.149136 
L 108.523636 118.92744 
L 112.581818 117.68004 
L 116.64 116.411472 
L 120.698182 115.123248 
L 124.756364 113.81688 
L 128.814545 112.49388 
L 132.872727 111.15576 
L 136.930909 109.80252 
L 140.989091 108.437184 
L 145.047273 107.05824 
L 149.105455 105.668712 
L 153.163636 104.267088 
L 157.221818 102.85488 
L 161.28 101.432088 
L 165.338182 100.001736 
L 169.396364 98.5608 
L 173.454545 97.113816 
L 177.512727 95.659272 
L 181.570909 94.200192 
L 185.629091 92.745648 
L 189.687273 91.495224 
L 193.745455 92.744136 
L 197.803636 94.333248 
L 201.861818 95.932944 
L 205.92 97.53264 
L 209.978182 99.130824 
L 214.036364 100.725984 
L 218.094545 102.316608 
L 222.152727 103.901184 
L 226.210909 105.4782 
L 230.269091 107.044632 
L 234.327273 108.598968 
L 238.385455 110.13516 
L 242.443636 111.645648 
L 246.501818 113.115312 
L 250.56 114.515424 
L 254.618182 115.783992 
L 258.676364 116.781912 
L 262.734545 117.314136 
L 266.792727 117.335304 
L 270.850909 117.025344 
L 274.909091 116.544528 
L 278.967273 115.974504 
L 283.025455 115.353072 
L 287.083636 114.7014 
L 291.141818 114.033096 
L 295.2 113.360256 
L 299.258182 112.698 
L 303.316364 112.075056 
L 307.374545 111.547368 
L 311.432727 111.234384 
L 315.490909 111.334176 
L 319.549091 111.960144 
L 323.607273 112.968648 
L 327.665455 114.161616 
L 331.723636 115.436232 
L 335.781818 116.739576 
L 339.84 118.048968 
L 343.898182 119.352312 
L 347.956364 120.640536 
L 352.014545 121.907592 
L 356.072727 123.148944 
L 360.130909 124.360056 
L 364.189091 125.53488 
L 368.247273 126.66888 
L 372.305455 127.751472 
L 376.363636 128.763 
L 380.421818 129.676248 
L 384.48 130.4262 
L 388.538182 130.92516 
L 392.596364 131.12172 
L 396.654545 131.089968 
L 400.712727 130.934232 
L 404.770909 130.718016 
L 408.829091 130.476096 
L 412.887273 130.220568 
L 416.945455 129.962016 
L 421.003636 129.703464 
L 425.061818 129.447936 
L 429.12 129.196944 
L 433.178182 128.950488 
L 437.236364 128.711592 
L 441.294545 128.47572 
L 445.352727 128.245896 
L 449.410909 128.019096 
L 453.469091 127.793808 
L 457.527273 127.567008 
L 461.585455 127.335672 
L 465.643636 127.095264 
L 469.701818 126.847296 
L 473.76 126.59328 
L 477.818182 126.340776 
L 481.876364 126.100368 
L 485.934545 125.891712 
L 489.992727 125.729928 
L 494.050909 125.627112 
L 498.109091 125.590824 
" clip-path="url(#p338d59ffd6)" style="fill: none; stroke: #000000; stroke-opacity: 0.5; stroke-linecap: square"/>
   </g>
   <g id="patch_3">
    <path d="M 72 384.48 
L 72 51.84 
" style="fill: none; stroke: #000000; stroke-width: 0.8; stroke-linejoin: miter; stroke-linecap: square"/>
   </g>
   <g id="patch_4">
    <path d="M 518.4 384.48 
L 518.4 51.84 
" style="fill: none; stroke: #000000; stroke-width: 0.8; stroke-linejoin: miter; stroke-linecap: square"/>
   </g>
   <g id="patch_5">
    <path d="M 72 384.48 
L 518.4 384.48 
" style="fill: none; stroke: #000000; stroke-width: 0.8; stroke-linejoin: miter; stroke-linecap: square"/>
   </g>
   <g id="patch_6">
    <path d="M 72 51.84 
L 518.4 51.84 
" style="fill: none; stroke: #000000; stroke-width: 0.8; stroke-linejoin: miter; stroke-linecap: square"/>
   </g>
  </g>
 </g>
 <defs>
  <clipPath id="p338d59ffd6">
   <rect x="72" y="51.84" width="446.4" height="332.64"/>
  </clipPath>
 </defs>
</svg>
