<?xml version="1.0" encoding="utf-8" standalone="no"?>
<!DOCTYPE svg PUBLIC "-//W3C//DTD SVG 1.1//EN"
  "http://www.w3.org/Graphics/SVG/1.1/DTD/svg11.dtd">
<svg xmlns:xlink="http://www.w3.org/1999/xlink" width="576pt" height="432pt" viewBox="0 0 576 432" xmlns="http://www.w3.org/2000/svg" version="1.1">
 <metadata>
  <rdf:RDF xmlns:dc="http://purl.org/dc/elements/1.1/" xmlns:cc="http://creativecommons.org/ns#" xmlns:rdf="http://www.w3.org/1999/02/22-rdf-syntax-ns#">
   <cc:Work>
    <dc:type rdf:resource="http://purl.org/dc/dcmitype/StillImage"/>
    <dc:date>2023-05-03T13:57:28.564914</dc:date>
    <dc:format>image/svg+xml</dc:format>
    <dc:creator>
     <cc:Agent>
      <dc:title>Matplotlib v3.7.1, https://matplotlib.org/</dc:title>
     </cc:Agent>
    </dc:creator>
   </cc:Work>
  </rdf:RDF>
 </metadata>
 <defs>
  <style type="text/css">*{stroke-linejoin: round; stroke-linecap: butt}</style>
 </defs>
 <g id="figure_1">
  <g id="patch_1">
   <path d="M 0 432 
L 576 432 
L 576 0 
L 0 0 
z
" style="fill: #ffffff"/>
  </g>
  <g id="axes_1">
   <g id="patch_2">
    <path d="M 72 384.48 
L 518.4 384.48 
L 518.4 51.84 
L 72 51.84 
z
" style="fill: #ffffff"/>
   </g>
   <g id="matplotlib.axis_1">
    <g id="xtick_1">
     <g id="line2d_1">
      <defs>
       <path id="mdcf968f147" d="M 0 0 
L 0 3.5 
" style="stroke: #000000; stroke-width: 0.8"/>
      </defs>
      <g>
       <use xlink:href="#mdcf968f147" x="92.290909" y="384.48" style="stroke: #000000; stroke-width: 0.8"/>
      </g>
     </g>
     <g id="text_1">
      <!-- 0.0 -->
      <g transform="translate(84.339347 399.078438) scale(0.1 -0.1)">
       <defs>
        <path id="DejaVuSans-30" d="M 2034 4250 
Q 1547 4250 1301 3770 
Q 1056 3291 1056 2328 
Q 1056 1369 1301 889 
Q 1547 409 2034 409 
Q 2525 409 2770 889 
Q 3016 1369 3016 2328 
Q 3016 3291 2770 3770 
Q 2525 4250 2034 4250 
z
M 2034 4750 
Q 2819 4750 3233 4129 
Q 3647 3509 3647 2328 
Q 3647 1150 3233 529 
Q 2819 -91 2034 -91 
Q 1250 -91 836 529 
Q 422 1150 422 2328 
Q 422 3509 836 4129 
Q 1250 4750 2034 4750 
z
" transform="scale(0.015625)"/>
        <path id="DejaVuSans-2e" d="M 684 794 
L 1344 794 
L 1344 0 
L 684 0 
L 684 794 
z
" transform="scale(0.015625)"/>
       </defs>
       <use xlink:href="#DejaVuSans-30"/>
       <use xlink:href="#DejaVuSans-2e" x="63.623047"/>
       <use xlink:href="#DejaVuSans-30" x="95.410156"/>
      </g>
     </g>
    </g>
    <g id="xtick_2">
     <g id="line2d_2">
      <g>
       <use xlink:href="#mdcf968f147" x="173.454545" y="384.48" style="stroke: #000000; stroke-width: 0.8"/>
      </g>
     </g>
     <g id="text_2">
      <!-- 0.2 -->
      <g transform="translate(165.502983 399.078438) scale(0.1 -0.1)">
       <defs>
        <path id="DejaVuSans-32" d="M 1228 531 
L 3431 531 
L 3431 0 
L 469 0 
L 469 531 
Q 828 903 1448 1529 
Q 2069 2156 2228 2338 
Q 2531 2678 2651 2914 
Q 2772 3150 2772 3378 
Q 2772 3750 2511 3984 
Q 2250 4219 1831 4219 
Q 1534 4219 1204 4116 
Q 875 4013 500 3803 
L 500 4441 
Q 881 4594 1212 4672 
Q 1544 4750 1819 4750 
Q 2544 4750 2975 4387 
Q 3406 4025 3406 3419 
Q 3406 3131 3298 2873 
Q 3191 2616 2906 2266 
Q 2828 2175 2409 1742 
Q 1991 1309 1228 531 
z
" transform="scale(0.015625)"/>
       </defs>
       <use xlink:href="#DejaVuSans-30"/>
       <use xlink:href="#DejaVuSans-2e" x="63.623047"/>
       <use xlink:href="#DejaVuSans-32" x="95.410156"/>
      </g>
     </g>
    </g>
    <g id="xtick_3">
     <g id="line2d_3">
      <g>
       <use xlink:href="#mdcf968f147" x="254.618182" y="384.48" style="stroke: #000000; stroke-width: 0.8"/>
      </g>
     </g>
     <g id="text_3">
      <!-- 0.4 -->
      <g transform="translate(246.666619 399.078438) scale(0.1 -0.1)">
       <defs>
        <path id="DejaVuSans-34" d="M 2419 4116 
L 825 1625 
L 2419 1625 
L 2419 4116 
z
M 2253 4666 
L 3047 4666 
L 3047 1625 
L 3713 1625 
L 3713 1100 
L 3047 1100 
L 3047 0 
L 2419 0 
L 2419 1100 
L 313 1100 
L 313 1709 
L 2253 4666 
z
" transform="scale(0.015625)"/>
       </defs>
       <use xlink:href="#DejaVuSans-30"/>
       <use xlink:href="#DejaVuSans-2e" x="63.623047"/>
       <use xlink:href="#DejaVuSans-34" x="95.410156"/>
      </g>
     </g>
    </g>
    <g id="xtick_4">
     <g id="line2d_4">
      <g>
       <use xlink:href="#mdcf968f147" x="335.781818" y="384.48" style="stroke: #000000; stroke-width: 0.8"/>
      </g>
     </g>
     <g id="text_4">
      <!-- 0.6 -->
      <g transform="translate(327.830256 399.078438) scale(0.1 -0.1)">
       <defs>
        <path id="DejaVuSans-36" d="M 2113 2584 
Q 1688 2584 1439 2293 
Q 1191 2003 1191 1497 
Q 1191 994 1439 701 
Q 1688 409 2113 409 
Q 2538 409 2786 701 
Q 3034 994 3034 1497 
Q 3034 2003 2786 2293 
Q 2538 2584 2113 2584 
z
M 3366 4563 
L 3366 3988 
Q 3128 4100 2886 4159 
Q 2644 4219 2406 4219 
Q 1781 4219 1451 3797 
Q 1122 3375 1075 2522 
Q 1259 2794 1537 2939 
Q 1816 3084 2150 3084 
Q 2853 3084 3261 2657 
Q 3669 2231 3669 1497 
Q 3669 778 3244 343 
Q 2819 -91 2113 -91 
Q 1303 -91 875 529 
Q 447 1150 447 2328 
Q 447 3434 972 4092 
Q 1497 4750 2381 4750 
Q 2619 4750 2861 4703 
Q 3103 4656 3366 4563 
z
" transform="scale(0.015625)"/>
       </defs>
       <use xlink:href="#DejaVuSans-30"/>
       <use xlink:href="#DejaVuSans-2e" x="63.623047"/>
       <use xlink:href="#DejaVuSans-36" x="95.410156"/>
      </g>
     </g>
    </g>
    <g id="xtick_5">
     <g id="line2d_5">
      <g>
       <use xlink:href="#mdcf968f147" x="416.945455" y="384.48" style="stroke: #000000; stroke-width: 0.8"/>
      </g>
     </g>
     <g id="text_5">
      <!-- 0.8 -->
      <g transform="translate(408.993892 399.078438) scale(0.1 -0.1)">
       <defs>
        <path id="DejaVuSans-38" d="M 2034 2216 
Q 1584 2216 1326 1975 
Q 1069 1734 1069 1313 
Q 1069 891 1326 650 
Q 1584 409 2034 409 
Q 2484 409 2743 651 
Q 3003 894 3003 1313 
Q 3003 1734 2745 1975 
Q 2488 2216 2034 2216 
z
M 1403 2484 
Q 997 2584 770 2862 
Q 544 3141 544 3541 
Q 544 4100 942 4425 
Q 1341 4750 2034 4750 
Q 2731 4750 3128 4425 
Q 3525 4100 3525 3541 
Q 3525 3141 3298 2862 
Q 3072 2584 2669 2484 
Q 3125 2378 3379 2068 
Q 3634 1759 3634 1313 
Q 3634 634 3220 271 
Q 2806 -91 2034 -91 
Q 1263 -91 848 271 
Q 434 634 434 1313 
Q 434 1759 690 2068 
Q 947 2378 1403 2484 
z
M 1172 3481 
Q 1172 3119 1398 2916 
Q 1625 2713 2034 2713 
Q 2441 2713 2670 2916 
Q 2900 3119 2900 3481 
Q 2900 3844 2670 4047 
Q 2441 4250 2034 4250 
Q 1625 4250 1398 4047 
Q 1172 3844 1172 3481 
z
" transform="scale(0.015625)"/>
       </defs>
       <use xlink:href="#DejaVuSans-30"/>
       <use xlink:href="#DejaVuSans-2e" x="63.623047"/>
       <use xlink:href="#DejaVuSans-38" x="95.410156"/>
      </g>
     </g>
    </g>
    <g id="xtick_6">
     <g id="line2d_6">
      <g>
       <use xlink:href="#mdcf968f147" x="498.109091" y="384.48" style="stroke: #000000; stroke-width: 0.8"/>
      </g>
     </g>
     <g id="text_6">
      <!-- 1.0 -->
      <g transform="translate(490.157528 399.078438) scale(0.1 -0.1)">
       <defs>
        <path id="DejaVuSans-31" d="M 794 531 
L 1825 531 
L 1825 4091 
L 703 3866 
L 703 4441 
L 1819 4666 
L 2450 4666 
L 2450 531 
L 3481 531 
L 3481 0 
L 794 0 
L 794 531 
z
" transform="scale(0.015625)"/>
       </defs>
       <use xlink:href="#DejaVuSans-31"/>
       <use xlink:href="#DejaVuSans-2e" x="63.623047"/>
       <use xlink:href="#DejaVuSans-30" x="95.410156"/>
      </g>
     </g>
    </g>
   </g>
   <g id="matplotlib.axis_2">
    <g id="ytick_1">
     <g id="line2d_7">
      <defs>
       <path id="m5eb7929018" d="M 0 0 
L -3.5 0 
" style="stroke: #000000; stroke-width: 0.8"/>
      </defs>
      <g>
       <use xlink:href="#m5eb7929018" x="72" y="369.36" style="stroke: #000000; stroke-width: 0.8"/>
      </g>
     </g>
     <g id="text_7">
      <!-- −5.0 -->
      <g transform="translate(40.717187 373.159219) scale(0.1 -0.1)">
       <defs>
        <path id="DejaVuSans-2212" d="M 678 2272 
L 4684 2272 
L 4684 1741 
L 678 1741 
L 678 2272 
z
" transform="scale(0.015625)"/>
        <path id="DejaVuSans-35" d="M 691 4666 
L 3169 4666 
L 3169 4134 
L 1269 4134 
L 1269 2991 
Q 1406 3038 1543 3061 
Q 1681 3084 1819 3084 
Q 2600 3084 3056 2656 
Q 3513 2228 3513 1497 
Q 3513 744 3044 326 
Q 2575 -91 1722 -91 
Q 1428 -91 1123 -41 
Q 819 9 494 109 
L 494 744 
Q 775 591 1075 516 
Q 1375 441 1709 441 
Q 2250 441 2565 725 
Q 2881 1009 2881 1497 
Q 2881 1984 2565 2268 
Q 2250 2553 1709 2553 
Q 1456 2553 1204 2497 
Q 953 2441 691 2322 
L 691 4666 
z
" transform="scale(0.015625)"/>
       </defs>
       <use xlink:href="#DejaVuSans-2212"/>
       <use xlink:href="#DejaVuSans-35" x="83.789062"/>
       <use xlink:href="#DejaVuSans-2e" x="147.412109"/>
       <use xlink:href="#DejaVuSans-30" x="179.199219"/>
      </g>
     </g>
    </g>
    <g id="ytick_2">
     <g id="line2d_8">
      <g>
       <use xlink:href="#m5eb7929018" x="72" y="331.56" style="stroke: #000000; stroke-width: 0.8"/>
      </g>
     </g>
     <g id="text_8">
      <!-- −2.5 -->
      <g transform="translate(40.717187 335.359219) scale(0.1 -0.1)">
       <use xlink:href="#DejaVuSans-2212"/>
       <use xlink:href="#DejaVuSans-32" x="83.789062"/>
       <use xlink:href="#DejaVuSans-2e" x="147.412109"/>
       <use xlink:href="#DejaVuSans-35" x="179.199219"/>
      </g>
     </g>
    </g>
    <g id="ytick_3">
     <g id="line2d_9">
      <g>
       <use xlink:href="#m5eb7929018" x="72" y="293.76" style="stroke: #000000; stroke-width: 0.8"/>
      </g>
     </g>
     <g id="text_9">
      <!-- 0.0 -->
      <g transform="translate(49.096875 297.559219) scale(0.1 -0.1)">
       <use xlink:href="#DejaVuSans-30"/>
       <use xlink:href="#DejaVuSans-2e" x="63.623047"/>
       <use xlink:href="#DejaVuSans-30" x="95.410156"/>
      </g>
     </g>
    </g>
    <g id="ytick_4">
     <g id="line2d_10">
      <g>
       <use xlink:href="#m5eb7929018" x="72" y="255.96" style="stroke: #000000; stroke-width: 0.8"/>
      </g>
     </g>
     <g id="text_10">
      <!-- 2.5 -->
      <g transform="translate(49.096875 259.759219) scale(0.1 -0.1)">
       <use xlink:href="#DejaVuSans-32"/>
       <use xlink:href="#DejaVuSans-2e" x="63.623047"/>
       <use xlink:href="#DejaVuSans-35" x="95.410156"/>
      </g>
     </g>
    </g>
    <g id="ytick_5">
     <g id="line2d_11">
      <g>
       <use xlink:href="#m5eb7929018" x="72" y="218.16" style="stroke: #000000; stroke-width: 0.8"/>
      </g>
     </g>
     <g id="text_11">
      <!-- 5.0 -->
      <g transform="translate(49.096875 221.959219) scale(0.1 -0.1)">
       <use xlink:href="#DejaVuSans-35"/>
       <use xlink:href="#DejaVuSans-2e" x="63.623047"/>
       <use xlink:href="#DejaVuSans-30" x="95.410156"/>
      </g>
     </g>
    </g>
    <g id="ytick_6">
     <g id="line2d_12">
      <g>
       <use xlink:href="#m5eb7929018" x="72" y="180.36" style="stroke: #000000; stroke-width: 0.8"/>
      </g>
     </g>
     <g id="text_12">
      <!-- 7.5 -->
      <g transform="translate(49.096875 184.159219) scale(0.1 -0.1)">
       <defs>
        <path id="DejaVuSans-37" d="M 525 4666 
L 3525 4666 
L 3525 4397 
L 1831 0 
L 1172 0 
L 2766 4134 
L 525 4134 
L 525 4666 
z
" transform="scale(0.015625)"/>
       </defs>
       <use xlink:href="#DejaVuSans-37"/>
       <use xlink:href="#DejaVuSans-2e" x="63.623047"/>
       <use xlink:href="#DejaVuSans-35" x="95.410156"/>
      </g>
     </g>
    </g>
    <g id="ytick_7">
     <g id="line2d_13">
      <g>
       <use xlink:href="#m5eb7929018" x="72" y="142.56" style="stroke: #000000; stroke-width: 0.8"/>
      </g>
     </g>
     <g id="text_13">
      <!-- 10.0 -->
      <g transform="translate(42.734375 146.359219) scale(0.1 -0.1)">
       <use xlink:href="#DejaVuSans-31"/>
       <use xlink:href="#DejaVuSans-30" x="63.623047"/>
       <use xlink:href="#DejaVuSans-2e" x="127.246094"/>
       <use xlink:href="#DejaVuSans-30" x="159.033203"/>
      </g>
     </g>
    </g>
    <g id="ytick_8">
     <g id="line2d_14">
      <g>
       <use xlink:href="#m5eb7929018" x="72" y="104.76" style="stroke: #000000; stroke-width: 0.8"/>
      </g>
     </g>
     <g id="text_14">
      <!-- 12.5 -->
      <g transform="translate(42.734375 108.559219) scale(0.1 -0.1)">
       <use xlink:href="#DejaVuSans-31"/>
       <use xlink:href="#DejaVuSans-32" x="63.623047"/>
       <use xlink:href="#DejaVuSans-2e" x="127.246094"/>
       <use xlink:href="#DejaVuSans-35" x="159.033203"/>
      </g>
     </g>
    </g>
    <g id="ytick_9">
     <g id="line2d_15">
      <g>
       <use xlink:href="#m5eb7929018" x="72" y="66.96" style="stroke: #000000; stroke-width: 0.8"/>
      </g>
     </g>
     <g id="text_15">
      <!-- 15.0 -->
      <g transform="translate(42.734375 70.759219) scale(0.1 -0.1)">
       <use xlink:href="#DejaVuSans-31"/>
       <use xlink:href="#DejaVuSans-35" x="63.623047"/>
       <use xlink:href="#DejaVuSans-2e" x="127.246094"/>
       <use xlink:href="#DejaVuSans-30" x="159.033203"/>
      </g>
     </g>
    </g>
   </g>
   <g id="line2d_16">
    <path d="M 92.290909 337.453776 
L 96.349091 337.4568 
L 100.407273 337.467384 
L 104.465455 337.484016 
L 108.523636 337.506696 
L 112.581818 337.536936 
L 116.64 337.573224 
L 120.698182 337.618584 
L 124.756364 337.669992 
L 128.814545 337.72896 
L 132.872727 337.797 
L 136.930909 337.874112 
L 140.989091 337.960296 
L 145.047273 338.05404 
L 149.105455 338.158368 
L 153.163636 338.27328 
L 157.221818 338.398776 
L 161.28 338.534856 
L 165.338182 338.683032 
L 169.396364 338.841792 
L 173.454545 339.012648 
L 177.512727 339.1956 
L 181.570909 339.39216 
L 185.629091 339.599304 
L 189.687273 339.820056 
L 193.745455 340.054416 
L 197.803636 340.29936 
L 201.861818 340.557912 
L 205.92 340.82856 
L 209.978182 341.111304 
L 214.036364 341.406144 
L 218.094545 341.711568 
L 222.152727 342.027576 
L 226.210909 342.35568 
L 230.269091 342.691344 
L 234.327273 343.037592 
L 238.385455 343.3914 
L 242.443636 343.75428 
L 246.501818 344.123208 
L 250.56 344.499696 
L 254.618182 344.882232 
L 258.676364 345.269304 
L 262.734545 345.660912 
L 266.792727 346.055544 
L 270.850909 346.4532 
L 274.909091 346.85388 
L 278.967273 347.257584 
L 283.025455 347.661288 
L 287.083636 348.064992 
L 291.141818 348.468696 
L 295.2 348.8724 
L 299.258182 349.27308 
L 303.316364 349.67376 
L 307.374545 350.071416 
L 311.432727 350.466048 
L 315.490909 350.857656 
L 319.549091 351.24624 
L 323.607273 351.630288 
L 327.665455 352.0098 
L 331.723636 352.383264 
L 335.781818 352.752192 
L 339.84 353.116584 
L 343.898182 353.473416 
L 347.956364 353.825712 
L 352.014545 354.170448 
L 356.072727 354.507624 
L 360.130909 354.838752 
L 364.189091 355.16232 
L 368.247273 355.478328 
L 372.305455 355.785264 
L 376.363636 356.086152 
L 380.421818 356.377968 
L 384.48 356.660712 
L 388.538182 356.935896 
L 392.596364 357.202008 
L 396.654545 357.459048 
L 400.712727 357.707016 
L 404.770909 357.945912 
L 408.829091 358.175736 
L 412.887273 358.396488 
L 416.945455 358.606656 
L 421.003636 358.807752 
L 425.061818 358.999776 
L 429.12 359.181216 
L 433.178182 359.352072 
L 437.236364 359.513856 
L 441.294545 359.665056 
L 445.352727 359.807184 
L 449.410909 359.937216 
L 453.469091 360.058176 
L 457.527273 360.168552 
L 461.585455 360.268344 
L 465.643636 360.359064 
L 469.701818 360.437688 
L 473.76 360.50724 
L 477.818182 360.564696 
L 481.876364 360.61308 
L 485.934545 360.649368 
L 489.992727 360.676584 
L 494.050909 360.691704 
L 498.109091 360.697752 
" clip-path="url(#pbc84a3bce0)" style="fill: none; stroke: #000000; stroke-opacity: 0.5; stroke-linecap: square"/>
   </g>
   <g id="line2d_17">
    <path d="M 92.290909 299.924424 
L 96.349091 299.939544 
L 100.407273 299.986416 
L 104.465455 300.06504 
L 108.523636 300.17088 
L 112.581818 300.305448 
L 116.64 300.464208 
L 120.698182 300.64716 
L 124.756364 300.848256 
L 128.814545 301.067496 
L 132.872727 301.301856 
L 136.930909 301.545288 
L 140.989091 301.797792 
L 145.047273 302.054832 
L 149.105455 302.313384 
L 153.163636 302.571936 
L 157.221818 302.825952 
L 161.28 303.075432 
L 165.338182 303.31584 
L 169.396364 303.544152 
L 173.454545 303.76188 
L 177.512727 303.962976 
L 181.570909 304.148952 
L 185.629091 304.318296 
L 189.687273 304.466472 
L 193.745455 304.594992 
L 197.803636 304.702344 
L 201.861818 304.787016 
L 205.92 304.849008 
L 209.978182 304.886808 
L 214.036364 304.901928 
L 218.094545 304.891344 
L 222.152727 304.856568 
L 226.210909 304.7976 
L 230.269091 304.712928 
L 234.327273 304.605576 
L 238.385455 304.47252 
L 242.443636 304.315272 
L 246.501818 304.133832 
L 250.56 303.929712 
L 254.618182 303.7014 
L 258.676364 303.45192 
L 262.734545 303.178248 
L 266.792727 302.883408 
L 270.850909 302.5674 
L 274.909091 302.230224 
L 278.967273 301.87188 
L 283.025455 301.495392 
L 287.083636 301.097736 
L 291.141818 300.680424 
L 295.2 300.24648 
L 299.258182 299.79288 
L 303.316364 299.322648 
L 307.374545 298.834272 
L 311.432727 298.330776 
L 315.490909 297.809136 
L 319.549091 297.273888 
L 323.607273 296.722008 
L 327.665455 296.155008 
L 331.723636 295.572888 
L 335.781818 294.978672 
L 339.84 294.369336 
L 343.898182 293.747904 
L 347.956364 293.112864 
L 352.014545 292.465728 
L 356.072727 291.808008 
L 360.130909 291.138192 
L 364.189091 290.457792 
L 368.247273 289.766808 
L 372.305455 289.066752 
L 376.363636 288.357624 
L 380.421818 287.639424 
L 384.48 286.913664 
L 388.538182 286.180344 
L 392.596364 285.442488 
L 396.654545 284.697072 
L 400.712727 283.94712 
L 404.770909 283.194144 
L 408.829091 282.438144 
L 412.887273 281.680632 
L 416.945455 280.92312 
L 421.003636 280.16712 
L 425.061818 279.414144 
L 429.12 278.665704 
L 433.178182 277.924824 
L 437.236364 277.193016 
L 441.294545 276.471792 
L 445.352727 275.7672 
L 449.410909 275.080752 
L 453.469091 274.416984 
L 457.527273 273.77892 
L 461.585455 273.17412 
L 465.643636 272.60712 
L 469.701818 272.082456 
L 473.76 271.6092 
L 477.818182 271.1934 
L 481.876364 270.839592 
L 485.934545 270.55836 
L 489.992727 270.351216 
L 494.050909 270.22572 
L 498.109091 270.183384 
" clip-path="url(#pbc84a3bce0)" style="fill: none; stroke: #000000; stroke-opacity: 0.5; stroke-linecap: square"/>
   </g>
   <g id="line2d_18">
    <path d="M 92.290909 265.771368 
L 96.349091 265.741128 
L 100.407273 265.654944 
L 104.465455 265.509792 
L 108.523636 265.310208 
L 112.581818 265.056192 
L 116.64 264.750768 
L 120.698182 264.395448 
L 124.756364 263.993256 
L 128.814545 263.548728 
L 132.872727 263.063376 
L 136.930909 262.540224 
L 140.989091 261.982296 
L 145.047273 261.394128 
L 149.105455 260.778744 
L 153.163636 260.137656 
L 157.221818 259.4754 
L 161.28 258.795 
L 165.338182 258.097968 
L 169.396364 257.387328 
L 173.454545 256.664592 
L 177.512727 255.935808 
L 181.570909 255.199464 
L 185.629091 254.460096 
L 189.687273 253.719216 
L 193.745455 252.978336 
L 197.803636 252.238968 
L 201.861818 251.504136 
L 205.92 250.775352 
L 209.978182 250.051104 
L 214.036364 249.335928 
L 218.094545 248.629824 
L 222.152727 247.934304 
L 226.210909 247.247856 
L 230.269091 246.573504 
L 234.327273 245.911248 
L 238.385455 245.259576 
L 242.443636 244.62 
L 246.501818 243.991008 
L 250.56 243.375624 
L 254.618182 242.770824 
L 258.676364 242.176608 
L 262.734545 241.594488 
L 266.792727 241.022952 
L 270.850909 240.462 
L 274.909091 239.911632 
L 278.967273 239.370336 
L 283.025455 238.838112 
L 287.083636 238.316472 
L 291.141818 237.802392 
L 295.2 237.298896 
L 299.258182 236.804472 
L 303.316364 236.31912 
L 307.374545 235.841328 
L 311.432727 235.37412 
L 315.490909 234.915984 
L 319.549091 234.468432 
L 323.607273 234.02844 
L 327.665455 233.600544 
L 331.723636 233.183232 
L 335.781818 232.778016 
L 339.84 232.384896 
L 343.898182 232.005384 
L 347.956364 231.640992 
L 352.014545 231.294744 
L 356.072727 230.96664 
L 360.130909 230.66424 
L 364.189091 230.390568 
L 368.247273 230.15772 
L 372.305455 229.979304 
L 376.363636 229.878 
L 380.421818 229.88556 
L 384.48 230.032224 
L 388.538182 230.327064 
L 392.596364 230.756472 
L 396.654545 231.288696 
L 400.712727 231.895008 
L 404.770909 232.55424 
L 408.829091 233.24976 
L 412.887273 233.974008 
L 416.945455 234.7164 
L 421.003636 235.4724 
L 425.061818 236.237472 
L 429.12 237.00708 
L 433.178182 237.775176 
L 437.236364 238.538736 
L 441.294545 239.294736 
L 445.352727 240.037128 
L 449.410909 240.762888 
L 453.469091 241.465968 
L 457.527273 242.14032 
L 461.585455 242.78292 
L 465.643636 243.384696 
L 469.701818 243.9396 
L 473.76 244.441584 
L 477.818182 244.883088 
L 481.876364 245.25504 
L 485.934545 245.554416 
L 489.992727 245.772144 
L 494.050909 245.9052 
L 498.109091 245.95056 
" clip-path="url(#pbc84a3bce0)" style="fill: none; stroke: #000000; stroke-opacity: 0.5; stroke-linecap: square"/>
   </g>
   <g id="line2d_19">
    <path d="M 92.290909 239.346144 
L 96.349091 239.338584 
L 100.407273 239.314392 
L 104.465455 239.27508 
L 108.523636 239.220648 
L 112.581818 239.149584 
L 116.64 239.0634 
L 120.698182 238.962096 
L 124.756364 238.84416 
L 128.814545 238.709592 
L 132.872727 238.559904 
L 136.930909 238.393584 
L 140.989091 238.20912 
L 145.047273 238.009536 
L 149.105455 237.79332 
L 153.163636 237.55896 
L 157.221818 237.30948 
L 161.28 237.040344 
L 165.338182 236.756088 
L 169.396364 236.452176 
L 173.454545 236.131632 
L 177.512727 235.794456 
L 181.570909 235.437624 
L 185.629091 235.06416 
L 189.687273 234.674064 
L 193.745455 234.265824 
L 197.803636 233.840952 
L 201.861818 233.399448 
L 205.92 232.942824 
L 209.978182 232.472592 
L 214.036364 231.98724 
L 218.094545 231.489792 
L 222.152727 230.98176 
L 226.210909 230.464656 
L 230.269091 229.939992 
L 234.327273 229.410792 
L 238.385455 228.878568 
L 242.443636 228.344832 
L 246.501818 227.81412 
L 250.56 227.287944 
L 254.618182 226.77084 
L 258.676364 226.262808 
L 262.734545 225.771408 
L 266.792727 225.29664 
L 270.850909 224.84304 
L 274.909091 224.41212 
L 278.967273 224.009928 
L 283.025455 223.636464 
L 287.083636 223.296264 
L 291.141818 222.992352 
L 295.2 222.72624 
L 299.258182 222.500952 
L 303.316364 222.318 
L 307.374545 222.177384 
L 311.432727 222.08364 
L 315.490909 222.036768 
L 319.549091 222.035256 
L 323.607273 222.082128 
L 327.665455 222.17436 
L 331.723636 222.313464 
L 335.781818 222.497928 
L 339.84 222.724728 
L 343.898182 222.993864 
L 347.956364 223.302312 
L 352.014545 223.647048 
L 356.072727 224.023536 
L 360.130909 224.424216 
L 364.189091 224.844552 
L 368.247273 225.272448 
L 372.305455 225.688248 
L 376.363636 226.070784 
L 380.421818 226.383768 
L 384.48 226.598472 
L 388.538182 226.699776 
L 392.596364 226.701288 
L 396.654545 226.631736 
L 400.712727 226.516824 
L 404.770909 226.37772 
L 408.829091 226.225008 
L 412.887273 226.06776 
L 416.945455 225.910512 
L 421.003636 225.754776 
L 425.061818 225.605088 
L 429.12 225.461448 
L 433.178182 225.325368 
L 437.236364 225.196848 
L 441.294545 225.0774 
L 445.352727 224.965512 
L 449.410909 224.862696 
L 453.469091 224.768952 
L 457.527273 224.682768 
L 461.585455 224.605656 
L 465.643636 224.537616 
L 469.701818 224.477136 
L 473.76 224.425728 
L 477.818182 224.38188 
L 481.876364 224.345592 
L 485.934545 224.318376 
L 489.992727 224.29872 
L 494.050909 224.286624 
L 498.109091 224.2836 
" clip-path="url(#pbc84a3bce0)" style="fill: none; stroke: #000000; stroke-opacity: 0.5; stroke-linecap: square"/>
   </g>
   <g id="line2d_20">
    <path d="M 92.290909 162.804168 
L 96.349091 162.79812 
L 100.407273 162.781488 
L 104.465455 162.754272 
L 108.523636 162.71496 
L 112.581818 162.665064 
L 116.64 162.604584 
L 120.698182 162.53352 
L 124.756364 162.45036 
L 128.814545 162.358128 
L 132.872727 162.255312 
L 136.930909 162.143424 
L 140.989091 162.020952 
L 145.047273 161.889408 
L 149.105455 161.750304 
L 153.163636 161.602128 
L 157.221818 161.447904 
L 161.28 161.287632 
L 165.338182 161.122824 
L 169.396364 160.958016 
L 173.454545 160.793208 
L 177.512727 160.63596 
L 181.570909 160.49232 
L 185.629091 160.375896 
L 189.687273 160.304832 
L 193.745455 160.307856 
L 197.803636 160.419744 
L 201.861818 160.664688 
L 205.92 161.039664 
L 209.978182 161.517456 
L 214.036364 162.060264 
L 218.094545 162.637848 
L 222.152727 163.230552 
L 226.210909 163.823256 
L 230.269091 164.4084 
L 234.327273 164.981448 
L 238.385455 165.536352 
L 242.443636 166.070088 
L 246.501818 166.581144 
L 250.56 167.066496 
L 254.618182 167.526144 
L 258.676364 167.957064 
L 262.734545 168.359256 
L 266.792727 168.731208 
L 270.850909 169.071408 
L 274.909091 169.381368 
L 278.967273 169.658064 
L 283.025455 169.90452 
L 287.083636 170.117712 
L 291.141818 170.300664 
L 295.2 170.453376 
L 299.258182 170.57736 
L 303.316364 170.674128 
L 307.374545 170.745192 
L 311.432727 170.795088 
L 315.490909 170.825328 
L 319.549091 170.838936 
L 323.607273 170.840448 
L 327.665455 170.832888 
L 331.723636 170.817768 
L 335.781818 170.798112 
L 339.84 170.778456 
L 343.898182 170.7588 
L 347.956364 170.739144 
L 352.014545 170.721 
L 356.072727 170.701344 
L 360.130909 170.681688 
L 364.189091 170.657496 
L 368.247273 170.627256 
L 372.305455 170.589456 
L 376.363636 170.53956 
L 380.421818 170.477568 
L 384.48 170.398944 
L 388.538182 170.302176 
L 392.596364 170.187264 
L 396.654545 170.051184 
L 400.712727 169.892424 
L 404.770909 169.712496 
L 408.829091 169.509888 
L 412.887273 169.283088 
L 416.945455 169.03512 
L 421.003636 168.764472 
L 425.061818 168.474168 
L 429.12 168.164208 
L 433.178182 167.836104 
L 437.236364 167.49288 
L 441.294545 167.136048 
L 445.352727 166.768632 
L 449.410909 166.393656 
L 453.469091 166.017168 
L 457.527273 165.64068 
L 461.585455 165.27024 
L 465.643636 164.911896 
L 469.701818 164.571696 
L 473.76 164.2572 
L 477.818182 163.972944 
L 481.876364 163.728 
L 485.934545 163.529928 
L 489.992727 163.381752 
L 494.050909 163.292544 
L 498.109091 163.260792 
" clip-path="url(#pbc84a3bce0)" style="fill: none; stroke: #000000; stroke-opacity: 0.5; stroke-linecap: square"/>
   </g>
   <g id="line2d_21">
    <path d="M 92.290909 135.618408 
L 96.349091 135.751464 
L 100.407273 136.132488 
L 104.465455 136.711584 
L 108.523636 137.437344 
L 112.581818 138.262896 
L 116.64 139.158 
L 120.698182 140.09544 
L 124.756364 141.060096 
L 128.814545 142.042896 
L 132.872727 143.031744 
L 136.930909 144.023616 
L 140.989091 145.013976 
L 145.047273 145.996776 
L 149.105455 146.970504 
L 153.163636 147.933648 
L 157.221818 148.883184 
L 161.28 149.816088 
L 165.338182 150.729336 
L 169.396364 151.621416 
L 173.454545 152.48628 
L 177.512727 153.319392 
L 181.570909 154.11168 
L 185.629091 154.851048 
L 189.687273 155.519352 
L 193.745455 156.08484 
L 197.803636 156.51576 
L 201.861818 156.784896 
L 205.92 156.89376 
L 209.978182 156.87108 
L 214.036364 156.754656 
L 218.094545 156.574728 
L 222.152727 156.34944 
L 226.210909 156.0924 
L 230.269091 155.81268 
L 234.327273 155.516328 
L 238.385455 155.204856 
L 242.443636 154.8828 
L 246.501818 154.553184 
L 250.56 154.21752 
L 254.618182 153.87732 
L 258.676364 153.534096 
L 262.734545 153.192384 
L 266.792727 152.852184 
L 270.850909 152.519544 
L 274.909091 152.197488 
L 278.967273 151.895088 
L 283.025455 151.625952 
L 287.083636 151.408224 
L 291.141818 151.275168 
L 295.2 151.267608 
L 299.258182 151.417296 
L 303.316364 151.712136 
L 307.374545 152.105256 
L 311.432727 152.5392 
L 315.490909 152.974656 
L 319.549091 153.38592 
L 323.607273 153.757872 
L 327.665455 154.079928 
L 331.723636 154.343016 
L 335.781818 154.544112 
L 339.84 154.681704 
L 343.898182 154.752768 
L 347.956364 154.760328 
L 352.014545 154.705896 
L 356.072727 154.592496 
L 360.130909 154.426176 
L 364.189091 154.20996 
L 368.247273 153.954432 
L 372.305455 153.662616 
L 376.363636 153.342072 
L 380.421818 153.001872 
L 384.48 152.646552 
L 388.538182 152.283672 
L 392.596364 151.917768 
L 396.654545 151.557912 
L 400.712727 151.205616 
L 404.770909 150.865416 
L 408.829091 150.541848 
L 412.887273 150.237936 
L 416.945455 149.95368 
L 421.003636 149.692104 
L 425.061818 149.45472 
L 429.12 149.240016 
L 433.178182 149.047992 
L 437.236364 148.88016 
L 441.294545 148.73652 
L 445.352727 148.614048 
L 449.410909 148.515768 
L 453.469091 148.437144 
L 457.527273 148.3812 
L 461.585455 148.344912 
L 465.643636 148.326768 
L 469.701818 148.323744 
L 473.76 148.33584 
L 477.818182 148.357008 
L 481.876364 148.384224 
L 485.934545 148.41144 
L 489.992727 148.435632 
L 494.050909 148.452264 
L 498.109091 148.458312 
" clip-path="url(#pbc84a3bce0)" style="fill: none; stroke: #000000; stroke-opacity: 0.5; stroke-linecap: square"/>
   </g>
   <g id="line2d_22">
    <path d="M 92.290909 124.780392 
L 96.349091 124.633728 
L 100.407273 124.216416 
L 104.465455 123.575328 
L 108.523636 122.761872 
L 112.581818 121.824432 
L 116.64 120.793248 
L 120.698182 119.695536 
L 124.756364 118.546416 
L 128.814545 117.359496 
L 132.872727 116.143848 
L 136.930909 114.908544 
L 140.989091 113.662656 
L 145.047273 112.42584 
L 149.105455 111.235896 
L 153.163636 110.21076 
L 157.221818 109.755648 
L 161.28 110.275776 
L 165.338182 111.311496 
L 169.396364 112.509 
L 173.454545 113.765472 
L 177.512727 115.050672 
L 181.570909 116.34948 
L 185.629091 117.655848 
L 189.687273 118.963728 
L 193.745455 120.271608 
L 197.803636 121.577976 
L 201.861818 122.88132 
L 205.92 124.177104 
L 209.978182 125.46684 
L 214.036364 126.749016 
L 218.094545 128.02212 
L 222.152727 129.283128 
L 226.210909 130.53204 
L 230.269091 131.768856 
L 234.327273 132.990552 
L 238.385455 134.195616 
L 242.443636 135.382536 
L 246.501818 136.5498 
L 250.56 137.694384 
L 254.618182 138.816288 
L 258.676364 139.910976 
L 262.734545 140.976936 
L 266.792727 142.00812 
L 270.850909 143.001504 
L 274.909091 143.949528 
L 278.967273 144.841608 
L 283.025455 145.665648 
L 287.083636 146.398968 
L 291.141818 147.00528 
L 295.2 147.44376 
L 299.258182 147.67812 
L 303.316364 147.717432 
L 307.374545 147.61008 
L 311.432727 147.402936 
L 315.490909 147.136824 
L 319.549091 146.832912 
L 323.607273 146.50632 
L 327.665455 146.161584 
L 331.723636 145.804752 
L 335.781818 145.44036 
L 339.84 145.066896 
L 343.898182 144.687384 
L 347.956364 144.301824 
L 352.014545 143.907192 
L 356.072727 143.506512 
L 360.130909 143.095248 
L 364.189091 142.6734 
L 368.247273 142.239456 
L 372.305455 141.791904 
L 376.363636 141.32772 
L 380.421818 140.846904 
L 384.48 140.34492 
L 388.538182 139.821768 
L 392.596364 139.275936 
L 396.654545 138.707424 
L 400.712727 138.11472 
L 404.770909 137.499336 
L 408.829091 136.861272 
L 412.887273 136.205064 
L 416.945455 135.535248 
L 421.003636 134.860896 
L 425.061818 134.194104 
L 429.12 133.560576 
L 433.178182 133.016256 
L 437.236364 132.677568 
L 441.294545 132.715368 
L 445.352727 133.150824 
L 449.410909 133.80552 
L 453.469091 134.532792 
L 457.527273 135.2646 
L 461.585455 135.96768 
L 465.643636 136.623888 
L 469.701818 137.221128 
L 473.76 137.75184 
L 477.818182 138.208464 
L 481.876364 138.586464 
L 485.934545 138.884328 
L 489.992727 139.09752 
L 494.050909 139.22604 
L 498.109091 139.269888 
" clip-path="url(#pbc84a3bce0)" style="fill: none; stroke: #000000; stroke-opacity: 0.5; stroke-linecap: square"/>
   </g>
   <g id="line2d_23">
    <path d="M 92.290909 95.7258 
L 96.349091 95.743944 
L 100.407273 95.805936 
L 104.465455 95.92992 
L 108.523636 96.144624 
L 112.581818 96.49692 
L 116.64 97.027632 
L 120.698182 97.74432 
L 124.756364 98.616744 
L 128.814545 99.605592 
L 132.872727 100.676088 
L 136.930909 101.802528 
L 140.989091 102.959208 
L 145.047273 104.121936 
L 149.105455 105.248376 
L 153.163636 106.21152 
L 157.221818 106.606152 
L 161.28 106.027056 
L 165.338182 104.929344 
L 169.396364 103.668336 
L 173.454545 102.342312 
L 177.512727 100.986048 
L 181.570909 99.614664 
L 185.629091 98.234208 
L 189.687273 96.855264 
L 193.745455 95.485392 
L 197.803636 94.141224 
L 201.861818 92.859048 
L 205.92 91.729584 
L 209.978182 90.885888 
L 214.036364 90.314352 
L 218.094545 89.87436 
L 222.152727 89.485776 
L 226.210909 89.116848 
L 230.269091 88.752456 
L 234.327273 88.391088 
L 238.385455 88.028208 
L 242.443636 87.662304 
L 246.501818 87.294888 
L 250.56 86.922936 
L 254.618182 86.550984 
L 258.676364 86.180544 
L 262.734545 85.810104 
L 266.792727 85.447224 
L 270.850909 85.09644 
L 274.909091 84.7638 
L 278.967273 84.465936 
L 283.025455 84.224016 
L 287.083636 84.077352 
L 291.141818 84.089448 
L 295.2 84.341952 
L 299.258182 84.89988 
L 303.316364 85.757184 
L 307.374545 86.844312 
L 311.432727 88.08264 
L 315.490909 89.416224 
L 319.549091 90.808776 
L 323.607273 92.239128 
L 327.665455 93.695184 
L 331.723636 95.164848 
L 335.781818 96.643584 
L 339.84 98.125344 
L 343.898182 99.607104 
L 347.956364 101.087352 
L 352.014545 102.563064 
L 356.072727 104.032728 
L 360.130909 105.49332 
L 364.189091 106.94484 
L 368.247273 108.384264 
L 372.305455 109.813104 
L 376.363636 111.226824 
L 380.421818 112.625424 
L 384.48 114.008904 
L 388.538182 115.375752 
L 392.596364 116.721432 
L 396.654545 118.048968 
L 400.712727 119.352312 
L 404.770909 120.631464 
L 408.829091 121.8834 
L 412.887273 123.105096 
L 416.945455 124.290504 
L 421.003636 125.432064 
L 425.061818 126.51768 
L 429.12 127.521648 
L 433.178182 128.391048 
L 437.236364 129.010968 
L 441.294545 129.210552 
L 445.352727 128.973168 
L 449.410909 128.478744 
L 453.469091 127.873944 
L 457.527273 127.229832 
L 461.585455 126.58572 
L 465.643636 125.959752 
L 469.701818 125.370072 
L 473.76 124.827264 
L 477.818182 124.344936 
L 481.876364 123.93216 
L 485.934545 123.601032 
L 489.992727 123.3576 
L 494.050909 123.207912 
L 498.109091 123.158016 
" clip-path="url(#pbc84a3bce0)" style="fill: none; stroke: #000000; stroke-opacity: 0.5; stroke-linecap: square"/>
   </g>
   <g id="patch_3">
    <path d="M 72 384.48 
L 72 51.84 
" style="fill: none; stroke: #000000; stroke-width: 0.8; stroke-linejoin: miter; stroke-linecap: square"/>
   </g>
   <g id="patch_4">
    <path d="M 518.4 384.48 
L 518.4 51.84 
" style="fill: none; stroke: #000000; stroke-width: 0.8; stroke-linejoin: miter; stroke-linecap: square"/>
   </g>
   <g id="patch_5">
    <path d="M 72 384.48 
L 518.4 384.48 
" style="fill: none; stroke: #000000; stroke-width: 0.8; stroke-linejoin: miter; stroke-linecap: square"/>
   </g>
   <g id="patch_6">
    <path d="M 72 51.84 
L 518.4 51.84 
" style="fill: none; stroke: #000000; stroke-width: 0.8; stroke-linejoin: miter; stroke-linecap: square"/>
   </g>
  </g>
 </g>
 <defs>
  <clipPath id="pbc84a3bce0">
   <rect x="72" y="51.84" width="446.4" height="332.64"/>
  </clipPath>
 </defs>
</svg>
