<?xml version="1.0" encoding="utf-8" standalone="no"?>
<!DOCTYPE svg PUBLIC "-//W3C//DTD SVG 1.1//EN"
  "http://www.w3.org/Graphics/SVG/1.1/DTD/svg11.dtd">
<svg xmlns:xlink="http://www.w3.org/1999/xlink" width="576pt" height="432pt" viewBox="0 0 576 432" xmlns="http://www.w3.org/2000/svg" version="1.1">
 <metadata>
  <rdf:RDF xmlns:dc="http://purl.org/dc/elements/1.1/" xmlns:cc="http://creativecommons.org/ns#" xmlns:rdf="http://www.w3.org/1999/02/22-rdf-syntax-ns#">
   <cc:Work>
    <dc:type rdf:resource="http://purl.org/dc/dcmitype/StillImage"/>
    <dc:date>2023-05-03T20:57:54.009177</dc:date>
    <dc:format>image/svg+xml</dc:format>
    <dc:creator>
     <cc:Agent>
      <dc:title>Matplotlib v3.7.1, https://matplotlib.org/</dc:title>
     </cc:Agent>
    </dc:creator>
   </cc:Work>
  </rdf:RDF>
 </metadata>
 <defs>
  <style type="text/css">*{stroke-linejoin: round; stroke-linecap: butt}</style>
 </defs>
 <g id="figure_1">
  <g id="patch_1">
   <path d="M 0 432 
L 576 432 
L 576 0 
L 0 0 
z
" style="fill: #ffffff"/>
  </g>
  <g id="axes_1">
   <g id="patch_2">
    <path d="M 72 384.48 
L 518.4 384.48 
L 518.4 51.84 
L 72 51.84 
z
" style="fill: #ffffff"/>
   </g>
   <g id="matplotlib.axis_1">
    <g id="xtick_1">
     <g id="line2d_1">
      <defs>
       <path id="m79cdd5a782" d="M 0 0 
L 0 3.5 
" style="stroke: #000000; stroke-width: 0.8"/>
      </defs>
      <g>
       <use xlink:href="#m79cdd5a782" x="92.290909" y="384.48" style="stroke: #000000; stroke-width: 0.8"/>
      </g>
     </g>
     <g id="text_1">
      <!-- 0.0 -->
      <g transform="translate(84.339347 399.078438) scale(0.1 -0.1)">
       <defs>
        <path id="DejaVuSans-30" d="M 2034 4250 
Q 1547 4250 1301 3770 
Q 1056 3291 1056 2328 
Q 1056 1369 1301 889 
Q 1547 409 2034 409 
Q 2525 409 2770 889 
Q 3016 1369 3016 2328 
Q 3016 3291 2770 3770 
Q 2525 4250 2034 4250 
z
M 2034 4750 
Q 2819 4750 3233 4129 
Q 3647 3509 3647 2328 
Q 3647 1150 3233 529 
Q 2819 -91 2034 -91 
Q 1250 -91 836 529 
Q 422 1150 422 2328 
Q 422 3509 836 4129 
Q 1250 4750 2034 4750 
z
" transform="scale(0.015625)"/>
        <path id="DejaVuSans-2e" d="M 684 794 
L 1344 794 
L 1344 0 
L 684 0 
L 684 794 
z
" transform="scale(0.015625)"/>
       </defs>
       <use xlink:href="#DejaVuSans-30"/>
       <use xlink:href="#DejaVuSans-2e" x="63.623047"/>
       <use xlink:href="#DejaVuSans-30" x="95.410156"/>
      </g>
     </g>
    </g>
    <g id="xtick_2">
     <g id="line2d_2">
      <g>
       <use xlink:href="#m79cdd5a782" x="173.454545" y="384.48" style="stroke: #000000; stroke-width: 0.8"/>
      </g>
     </g>
     <g id="text_2">
      <!-- 0.2 -->
      <g transform="translate(165.502983 399.078438) scale(0.1 -0.1)">
       <defs>
        <path id="DejaVuSans-32" d="M 1228 531 
L 3431 531 
L 3431 0 
L 469 0 
L 469 531 
Q 828 903 1448 1529 
Q 2069 2156 2228 2338 
Q 2531 2678 2651 2914 
Q 2772 3150 2772 3378 
Q 2772 3750 2511 3984 
Q 2250 4219 1831 4219 
Q 1534 4219 1204 4116 
Q 875 4013 500 3803 
L 500 4441 
Q 881 4594 1212 4672 
Q 1544 4750 1819 4750 
Q 2544 4750 2975 4387 
Q 3406 4025 3406 3419 
Q 3406 3131 3298 2873 
Q 3191 2616 2906 2266 
Q 2828 2175 2409 1742 
Q 1991 1309 1228 531 
z
" transform="scale(0.015625)"/>
       </defs>
       <use xlink:href="#DejaVuSans-30"/>
       <use xlink:href="#DejaVuSans-2e" x="63.623047"/>
       <use xlink:href="#DejaVuSans-32" x="95.410156"/>
      </g>
     </g>
    </g>
    <g id="xtick_3">
     <g id="line2d_3">
      <g>
       <use xlink:href="#m79cdd5a782" x="254.618182" y="384.48" style="stroke: #000000; stroke-width: 0.8"/>
      </g>
     </g>
     <g id="text_3">
      <!-- 0.4 -->
      <g transform="translate(246.666619 399.078438) scale(0.1 -0.1)">
       <defs>
        <path id="DejaVuSans-34" d="M 2419 4116 
L 825 1625 
L 2419 1625 
L 2419 4116 
z
M 2253 4666 
L 3047 4666 
L 3047 1625 
L 3713 1625 
L 3713 1100 
L 3047 1100 
L 3047 0 
L 2419 0 
L 2419 1100 
L 313 1100 
L 313 1709 
L 2253 4666 
z
" transform="scale(0.015625)"/>
       </defs>
       <use xlink:href="#DejaVuSans-30"/>
       <use xlink:href="#DejaVuSans-2e" x="63.623047"/>
       <use xlink:href="#DejaVuSans-34" x="95.410156"/>
      </g>
     </g>
    </g>
    <g id="xtick_4">
     <g id="line2d_4">
      <g>
       <use xlink:href="#m79cdd5a782" x="335.781818" y="384.48" style="stroke: #000000; stroke-width: 0.8"/>
      </g>
     </g>
     <g id="text_4">
      <!-- 0.6 -->
      <g transform="translate(327.830256 399.078438) scale(0.1 -0.1)">
       <defs>
        <path id="DejaVuSans-36" d="M 2113 2584 
Q 1688 2584 1439 2293 
Q 1191 2003 1191 1497 
Q 1191 994 1439 701 
Q 1688 409 2113 409 
Q 2538 409 2786 701 
Q 3034 994 3034 1497 
Q 3034 2003 2786 2293 
Q 2538 2584 2113 2584 
z
M 3366 4563 
L 3366 3988 
Q 3128 4100 2886 4159 
Q 2644 4219 2406 4219 
Q 1781 4219 1451 3797 
Q 1122 3375 1075 2522 
Q 1259 2794 1537 2939 
Q 1816 3084 2150 3084 
Q 2853 3084 3261 2657 
Q 3669 2231 3669 1497 
Q 3669 778 3244 343 
Q 2819 -91 2113 -91 
Q 1303 -91 875 529 
Q 447 1150 447 2328 
Q 447 3434 972 4092 
Q 1497 4750 2381 4750 
Q 2619 4750 2861 4703 
Q 3103 4656 3366 4563 
z
" transform="scale(0.015625)"/>
       </defs>
       <use xlink:href="#DejaVuSans-30"/>
       <use xlink:href="#DejaVuSans-2e" x="63.623047"/>
       <use xlink:href="#DejaVuSans-36" x="95.410156"/>
      </g>
     </g>
    </g>
    <g id="xtick_5">
     <g id="line2d_5">
      <g>
       <use xlink:href="#m79cdd5a782" x="416.945455" y="384.48" style="stroke: #000000; stroke-width: 0.8"/>
      </g>
     </g>
     <g id="text_5">
      <!-- 0.8 -->
      <g transform="translate(408.993892 399.078438) scale(0.1 -0.1)">
       <defs>
        <path id="DejaVuSans-38" d="M 2034 2216 
Q 1584 2216 1326 1975 
Q 1069 1734 1069 1313 
Q 1069 891 1326 650 
Q 1584 409 2034 409 
Q 2484 409 2743 651 
Q 3003 894 3003 1313 
Q 3003 1734 2745 1975 
Q 2488 2216 2034 2216 
z
M 1403 2484 
Q 997 2584 770 2862 
Q 544 3141 544 3541 
Q 544 4100 942 4425 
Q 1341 4750 2034 4750 
Q 2731 4750 3128 4425 
Q 3525 4100 3525 3541 
Q 3525 3141 3298 2862 
Q 3072 2584 2669 2484 
Q 3125 2378 3379 2068 
Q 3634 1759 3634 1313 
Q 3634 634 3220 271 
Q 2806 -91 2034 -91 
Q 1263 -91 848 271 
Q 434 634 434 1313 
Q 434 1759 690 2068 
Q 947 2378 1403 2484 
z
M 1172 3481 
Q 1172 3119 1398 2916 
Q 1625 2713 2034 2713 
Q 2441 2713 2670 2916 
Q 2900 3119 2900 3481 
Q 2900 3844 2670 4047 
Q 2441 4250 2034 4250 
Q 1625 4250 1398 4047 
Q 1172 3844 1172 3481 
z
" transform="scale(0.015625)"/>
       </defs>
       <use xlink:href="#DejaVuSans-30"/>
       <use xlink:href="#DejaVuSans-2e" x="63.623047"/>
       <use xlink:href="#DejaVuSans-38" x="95.410156"/>
      </g>
     </g>
    </g>
    <g id="xtick_6">
     <g id="line2d_6">
      <g>
       <use xlink:href="#m79cdd5a782" x="498.109091" y="384.48" style="stroke: #000000; stroke-width: 0.8"/>
      </g>
     </g>
     <g id="text_6">
      <!-- 1.0 -->
      <g transform="translate(490.157528 399.078438) scale(0.1 -0.1)">
       <defs>
        <path id="DejaVuSans-31" d="M 794 531 
L 1825 531 
L 1825 4091 
L 703 3866 
L 703 4441 
L 1819 4666 
L 2450 4666 
L 2450 531 
L 3481 531 
L 3481 0 
L 794 0 
L 794 531 
z
" transform="scale(0.015625)"/>
       </defs>
       <use xlink:href="#DejaVuSans-31"/>
       <use xlink:href="#DejaVuSans-2e" x="63.623047"/>
       <use xlink:href="#DejaVuSans-30" x="95.410156"/>
      </g>
     </g>
    </g>
   </g>
   <g id="matplotlib.axis_2">
    <g id="ytick_1">
     <g id="line2d_7">
      <defs>
       <path id="mab825418de" d="M 0 0 
L -3.5 0 
" style="stroke: #000000; stroke-width: 0.8"/>
      </defs>
      <g>
       <use xlink:href="#mab825418de" x="72" y="369.36" style="stroke: #000000; stroke-width: 0.8"/>
      </g>
     </g>
     <g id="text_7">
      <!-- −5.0 -->
      <g transform="translate(40.717187 373.159219) scale(0.1 -0.1)">
       <defs>
        <path id="DejaVuSans-2212" d="M 678 2272 
L 4684 2272 
L 4684 1741 
L 678 1741 
L 678 2272 
z
" transform="scale(0.015625)"/>
        <path id="DejaVuSans-35" d="M 691 4666 
L 3169 4666 
L 3169 4134 
L 1269 4134 
L 1269 2991 
Q 1406 3038 1543 3061 
Q 1681 3084 1819 3084 
Q 2600 3084 3056 2656 
Q 3513 2228 3513 1497 
Q 3513 744 3044 326 
Q 2575 -91 1722 -91 
Q 1428 -91 1123 -41 
Q 819 9 494 109 
L 494 744 
Q 775 591 1075 516 
Q 1375 441 1709 441 
Q 2250 441 2565 725 
Q 2881 1009 2881 1497 
Q 2881 1984 2565 2268 
Q 2250 2553 1709 2553 
Q 1456 2553 1204 2497 
Q 953 2441 691 2322 
L 691 4666 
z
" transform="scale(0.015625)"/>
       </defs>
       <use xlink:href="#DejaVuSans-2212"/>
       <use xlink:href="#DejaVuSans-35" x="83.789062"/>
       <use xlink:href="#DejaVuSans-2e" x="147.412109"/>
       <use xlink:href="#DejaVuSans-30" x="179.199219"/>
      </g>
     </g>
    </g>
    <g id="ytick_2">
     <g id="line2d_8">
      <g>
       <use xlink:href="#mab825418de" x="72" y="331.56" style="stroke: #000000; stroke-width: 0.8"/>
      </g>
     </g>
     <g id="text_8">
      <!-- −2.5 -->
      <g transform="translate(40.717187 335.359219) scale(0.1 -0.1)">
       <use xlink:href="#DejaVuSans-2212"/>
       <use xlink:href="#DejaVuSans-32" x="83.789062"/>
       <use xlink:href="#DejaVuSans-2e" x="147.412109"/>
       <use xlink:href="#DejaVuSans-35" x="179.199219"/>
      </g>
     </g>
    </g>
    <g id="ytick_3">
     <g id="line2d_9">
      <g>
       <use xlink:href="#mab825418de" x="72" y="293.76" style="stroke: #000000; stroke-width: 0.8"/>
      </g>
     </g>
     <g id="text_9">
      <!-- 0.0 -->
      <g transform="translate(49.096875 297.559219) scale(0.1 -0.1)">
       <use xlink:href="#DejaVuSans-30"/>
       <use xlink:href="#DejaVuSans-2e" x="63.623047"/>
       <use xlink:href="#DejaVuSans-30" x="95.410156"/>
      </g>
     </g>
    </g>
    <g id="ytick_4">
     <g id="line2d_10">
      <g>
       <use xlink:href="#mab825418de" x="72" y="255.96" style="stroke: #000000; stroke-width: 0.8"/>
      </g>
     </g>
     <g id="text_10">
      <!-- 2.5 -->
      <g transform="translate(49.096875 259.759219) scale(0.1 -0.1)">
       <use xlink:href="#DejaVuSans-32"/>
       <use xlink:href="#DejaVuSans-2e" x="63.623047"/>
       <use xlink:href="#DejaVuSans-35" x="95.410156"/>
      </g>
     </g>
    </g>
    <g id="ytick_5">
     <g id="line2d_11">
      <g>
       <use xlink:href="#mab825418de" x="72" y="218.16" style="stroke: #000000; stroke-width: 0.8"/>
      </g>
     </g>
     <g id="text_11">
      <!-- 5.0 -->
      <g transform="translate(49.096875 221.959219) scale(0.1 -0.1)">
       <use xlink:href="#DejaVuSans-35"/>
       <use xlink:href="#DejaVuSans-2e" x="63.623047"/>
       <use xlink:href="#DejaVuSans-30" x="95.410156"/>
      </g>
     </g>
    </g>
    <g id="ytick_6">
     <g id="line2d_12">
      <g>
       <use xlink:href="#mab825418de" x="72" y="180.36" style="stroke: #000000; stroke-width: 0.8"/>
      </g>
     </g>
     <g id="text_12">
      <!-- 7.5 -->
      <g transform="translate(49.096875 184.159219) scale(0.1 -0.1)">
       <defs>
        <path id="DejaVuSans-37" d="M 525 4666 
L 3525 4666 
L 3525 4397 
L 1831 0 
L 1172 0 
L 2766 4134 
L 525 4134 
L 525 4666 
z
" transform="scale(0.015625)"/>
       </defs>
       <use xlink:href="#DejaVuSans-37"/>
       <use xlink:href="#DejaVuSans-2e" x="63.623047"/>
       <use xlink:href="#DejaVuSans-35" x="95.410156"/>
      </g>
     </g>
    </g>
    <g id="ytick_7">
     <g id="line2d_13">
      <g>
       <use xlink:href="#mab825418de" x="72" y="142.56" style="stroke: #000000; stroke-width: 0.8"/>
      </g>
     </g>
     <g id="text_13">
      <!-- 10.0 -->
      <g transform="translate(42.734375 146.359219) scale(0.1 -0.1)">
       <use xlink:href="#DejaVuSans-31"/>
       <use xlink:href="#DejaVuSans-30" x="63.623047"/>
       <use xlink:href="#DejaVuSans-2e" x="127.246094"/>
       <use xlink:href="#DejaVuSans-30" x="159.033203"/>
      </g>
     </g>
    </g>
    <g id="ytick_8">
     <g id="line2d_14">
      <g>
       <use xlink:href="#mab825418de" x="72" y="104.76" style="stroke: #000000; stroke-width: 0.8"/>
      </g>
     </g>
     <g id="text_14">
      <!-- 12.5 -->
      <g transform="translate(42.734375 108.559219) scale(0.1 -0.1)">
       <use xlink:href="#DejaVuSans-31"/>
       <use xlink:href="#DejaVuSans-32" x="63.623047"/>
       <use xlink:href="#DejaVuSans-2e" x="127.246094"/>
       <use xlink:href="#DejaVuSans-35" x="159.033203"/>
      </g>
     </g>
    </g>
    <g id="ytick_9">
     <g id="line2d_15">
      <g>
       <use xlink:href="#mab825418de" x="72" y="66.96" style="stroke: #000000; stroke-width: 0.8"/>
      </g>
     </g>
     <g id="text_15">
      <!-- 15.0 -->
      <g transform="translate(42.734375 70.759219) scale(0.1 -0.1)">
       <use xlink:href="#DejaVuSans-31"/>
       <use xlink:href="#DejaVuSans-35" x="63.623047"/>
       <use xlink:href="#DejaVuSans-2e" x="127.246094"/>
       <use xlink:href="#DejaVuSans-30" x="159.033203"/>
      </g>
     </g>
    </g>
   </g>
   <g id="line2d_16">
    <path d="M 92.290909 324.43092 
L 96.349091 324.486864 
L 100.407273 324.651672 
L 104.465455 324.917784 
L 108.523636 325.274616 
L 112.581818 325.707048 
L 116.64 326.202984 
L 120.698182 326.753352 
L 124.756364 327.346056 
L 128.814545 327.973536 
L 132.872727 328.631256 
L 136.930909 329.310144 
L 140.989091 330.007176 
L 145.047273 330.72084 
L 149.105455 331.445088 
L 153.163636 332.17992 
L 157.221818 332.9208 
L 161.28 333.66924 
L 165.338182 334.420704 
L 169.396364 335.17368 
L 173.454545 335.92968 
L 177.512727 336.687192 
L 181.570909 337.443192 
L 185.629091 338.199192 
L 189.687273 338.95368 
L 193.745455 339.705144 
L 197.803636 340.453584 
L 201.861818 341.199 
L 205.92 341.93988 
L 209.978182 342.676224 
L 214.036364 343.408032 
L 218.094545 344.135304 
L 222.152727 344.856528 
L 226.210909 345.571704 
L 230.269091 346.280832 
L 234.327273 346.983912 
L 238.385455 347.679432 
L 242.443636 348.367392 
L 246.501818 349.049304 
L 250.56 349.723656 
L 254.618182 350.388936 
L 258.676364 351.046656 
L 262.734545 351.696816 
L 266.792727 352.337904 
L 270.850909 352.96992 
L 274.909091 353.592864 
L 278.967273 354.208248 
L 283.025455 354.813048 
L 287.083636 355.410288 
L 291.141818 355.996944 
L 295.2 356.574528 
L 299.258182 357.141528 
L 303.316364 357.699456 
L 307.374545 358.2468 
L 311.432727 358.785072 
L 315.490909 359.311248 
L 319.549091 359.828352 
L 323.607273 360.336384 
L 327.665455 360.83232 
L 331.723636 361.317672 
L 335.781818 361.79244 
L 339.84 362.256624 
L 343.898182 362.710224 
L 347.956364 363.151728 
L 352.014545 363.58416 
L 356.072727 364.004496 
L 360.130909 364.412736 
L 364.189091 364.811904 
L 368.247273 365.197464 
L 372.305455 365.573952 
L 376.363636 365.936832 
L 380.421818 366.289128 
L 384.48 366.63084 
L 388.538182 366.960456 
L 392.596364 367.277976 
L 396.654545 367.584912 
L 400.712727 367.879752 
L 404.770909 368.162496 
L 408.829091 368.433144 
L 412.887273 368.691696 
L 416.945455 368.939664 
L 421.003636 369.175536 
L 425.061818 369.399312 
L 429.12 369.610992 
L 433.178182 369.810576 
L 437.236364 369.998064 
L 441.294545 370.173456 
L 445.352727 370.338264 
L 449.410909 370.489464 
L 453.469091 370.628568 
L 457.527273 370.757088 
L 461.585455 370.872 
L 465.643636 370.974816 
L 469.701818 371.067048 
L 473.76 371.145672 
L 477.818182 371.2122 
L 481.876364 371.266632 
L 485.934545 371.31048 
L 489.992727 371.34072 
L 494.050909 371.358864 
L 498.109091 371.364912 
" clip-path="url(#p58623e5d3a)" style="fill: none; stroke: #000000; stroke-opacity: 0.5; stroke-linecap: square"/>
   </g>
   <g id="line2d_17">
    <path d="M 92.290909 312.474024 
L 96.349091 312.422616 
L 100.407273 312.268392 
L 104.465455 312.021936 
L 108.523636 311.69232 
L 112.581818 311.293152 
L 116.64 310.83804 
L 120.698182 310.336056 
L 124.756364 309.797784 
L 128.814545 309.230784 
L 132.872727 308.642616 
L 136.930909 308.036304 
L 140.989091 307.417896 
L 145.047273 306.788904 
L 149.105455 306.152352 
L 153.163636 305.511264 
L 157.221818 304.86564 
L 161.28 304.218504 
L 165.338182 303.568344 
L 169.396364 302.918184 
L 173.454545 302.268024 
L 177.512727 301.616352 
L 181.570909 300.966192 
L 185.629091 300.316032 
L 189.687273 299.665872 
L 193.745455 299.017224 
L 197.803636 298.367064 
L 201.861818 297.718416 
L 205.92 297.069768 
L 209.978182 296.419608 
L 214.036364 295.769448 
L 218.094545 295.119288 
L 222.152727 294.466104 
L 226.210909 293.81292 
L 230.269091 293.158224 
L 234.327273 292.502016 
L 238.385455 291.842784 
L 242.443636 291.180528 
L 246.501818 290.51676 
L 250.56 289.848456 
L 254.618182 289.177128 
L 258.676364 288.502776 
L 262.734545 287.823888 
L 266.792727 287.141976 
L 270.850909 286.454016 
L 274.909091 285.763032 
L 278.967273 285.066 
L 283.025455 284.365944 
L 287.083636 283.658328 
L 291.141818 282.947688 
L 295.2 282.229488 
L 299.258182 281.506752 
L 303.316364 280.77948 
L 307.374545 280.044648 
L 311.432727 279.30528 
L 315.490909 278.559864 
L 319.549091 277.806888 
L 323.607273 277.049376 
L 327.665455 276.285816 
L 331.723636 275.516208 
L 335.781818 274.740552 
L 339.84 273.96036 
L 343.898182 273.172608 
L 347.956364 272.38032 
L 352.014545 271.580472 
L 356.072727 270.7776 
L 360.130909 269.967168 
L 364.189091 269.153712 
L 368.247273 268.334208 
L 372.305455 267.510168 
L 376.363636 266.681592 
L 380.421818 265.84848 
L 384.48 265.012344 
L 388.538182 264.173184 
L 392.596364 263.331 
L 396.654545 262.485792 
L 400.712727 261.639072 
L 404.770909 260.79084 
L 408.829091 259.942608 
L 412.887273 259.094376 
L 416.945455 258.247656 
L 421.003636 257.40396 
L 425.061818 256.563288 
L 429.12 255.728664 
L 433.178182 254.900088 
L 437.236364 254.080584 
L 441.294545 253.271664 
L 445.352727 252.477864 
L 449.410909 251.700696 
L 453.469091 250.944696 
L 457.527273 250.2144 
L 461.585455 249.514344 
L 465.643636 248.852088 
L 469.701818 248.232168 
L 473.76 247.66668 
L 477.818182 247.161672 
L 481.876364 246.72924 
L 485.934545 246.379968 
L 489.992727 246.119904 
L 494.050909 245.961144 
L 498.109091 245.908224 
" clip-path="url(#p58623e5d3a)" style="fill: none; stroke: #000000; stroke-opacity: 0.5; stroke-linecap: square"/>
   </g>
   <g id="line2d_18">
    <path d="M 92.290909 265.509792 
L 96.349091 265.497696 
L 100.407273 265.459896 
L 104.465455 265.396392 
L 108.523636 265.308696 
L 112.581818 265.195296 
L 116.64 265.057704 
L 120.698182 264.897432 
L 124.756364 264.712968 
L 128.814545 264.505824 
L 132.872727 264.276 
L 136.930909 264.025008 
L 140.989091 263.752848 
L 145.047273 263.461032 
L 149.105455 263.14956 
L 153.163636 262.821456 
L 157.221818 262.475208 
L 161.28 262.112328 
L 165.338182 261.732816 
L 169.396364 261.341208 
L 173.454545 260.93448 
L 177.512727 260.515656 
L 181.570909 260.084736 
L 185.629091 259.643232 
L 189.687273 259.191144 
L 193.745455 258.729984 
L 197.803636 258.259752 
L 201.861818 257.78196 
L 205.92 257.296608 
L 209.978182 256.803696 
L 214.036364 256.304736 
L 218.094545 255.799728 
L 222.152727 255.28716 
L 226.210909 254.771568 
L 230.269091 254.248416 
L 234.327273 253.720728 
L 238.385455 253.188504 
L 242.443636 252.651744 
L 246.501818 252.108936 
L 250.56 251.56008 
L 254.618182 251.0082 
L 258.676364 250.450272 
L 262.734545 249.88932 
L 266.792727 249.32232 
L 270.850909 248.749272 
L 274.909091 248.1732 
L 278.967273 247.59108 
L 283.025455 247.004424 
L 287.083636 246.413232 
L 291.141818 245.817504 
L 295.2 245.215728 
L 299.258182 244.610928 
L 303.316364 244.00008 
L 307.374545 243.386208 
L 311.432727 242.7678 
L 315.490909 242.144856 
L 319.549091 241.517376 
L 323.607273 240.886872 
L 327.665455 240.253344 
L 331.723636 239.61528 
L 335.781818 238.974192 
L 339.84 238.331592 
L 343.898182 237.685968 
L 347.956364 237.03732 
L 352.014545 236.388672 
L 356.072727 235.738512 
L 360.130909 235.08684 
L 364.189091 234.435168 
L 368.247273 233.785008 
L 372.305455 233.134848 
L 376.363636 232.4862 
L 380.421818 231.840576 
L 384.48 231.199488 
L 388.538182 230.561424 
L 392.596364 229.927896 
L 396.654545 229.300416 
L 400.712727 228.680496 
L 404.770909 228.068136 
L 408.829091 227.46636 
L 412.887273 226.875168 
L 416.945455 226.297584 
L 421.003636 225.733608 
L 425.061818 225.186264 
L 429.12 224.660088 
L 433.178182 224.161128 
L 437.236364 223.70148 
L 441.294545 223.321968 
L 445.352727 223.175304 
L 449.410909 223.45956 
L 453.469091 223.97364 
L 457.527273 224.543664 
L 461.585455 225.118224 
L 465.643636 225.679176 
L 469.701818 226.212912 
L 473.76 226.71036 
L 477.818182 227.1564 
L 481.876364 227.544984 
L 485.934545 227.85948 
L 489.992727 228.09384 
L 494.050909 228.238992 
L 498.109091 228.287376 
" clip-path="url(#p58623e5d3a)" style="fill: none; stroke: #000000; stroke-opacity: 0.5; stroke-linecap: square"/>
   </g>
   <g id="line2d_19">
    <path d="M 92.290909 248.849064 
L 96.349091 248.836968 
L 100.407273 248.803704 
L 104.465455 248.746248 
L 108.523636 248.666112 
L 112.581818 248.563296 
L 116.64 248.4378 
L 120.698182 248.289624 
L 124.756364 248.117256 
L 128.814545 247.922208 
L 132.872727 247.701456 
L 136.930909 247.459536 
L 140.989091 247.191912 
L 145.047273 246.900096 
L 149.105455 246.584088 
L 153.163636 246.243888 
L 157.221818 245.879496 
L 161.28 245.4894 
L 165.338182 245.075112 
L 169.396364 244.63512 
L 173.454545 244.170936 
L 177.512727 243.68256 
L 181.570909 243.16848 
L 185.629091 242.63172 
L 189.687273 242.070768 
L 193.745455 241.485624 
L 197.803636 240.8778 
L 201.861818 240.247296 
L 205.92 239.597136 
L 209.978182 238.924296 
L 214.036364 238.233312 
L 218.094545 237.522672 
L 222.152727 236.7954 
L 226.210909 236.051496 
L 230.269091 235.292472 
L 234.327273 234.51984 
L 238.385455 233.735112 
L 242.443636 232.9398 
L 246.501818 232.135416 
L 250.56 231.323472 
L 254.618182 230.506992 
L 258.676364 229.687488 
L 262.734545 228.866472 
L 266.792727 228.045456 
L 270.850909 227.225952 
L 274.909091 226.412496 
L 278.967273 225.6066 
L 283.025455 224.809776 
L 287.083636 224.023536 
L 291.141818 223.252416 
L 295.2 222.49944 
L 299.258182 221.764608 
L 303.316364 221.052456 
L 307.374545 220.366008 
L 311.432727 219.706776 
L 315.490909 219.077784 
L 319.549091 218.483568 
L 323.607273 217.924128 
L 327.665455 217.405512 
L 331.723636 216.92772 
L 335.781818 216.493776 
L 339.84 216.108216 
L 343.898182 215.769528 
L 347.956364 215.482248 
L 352.014545 215.246376 
L 356.072727 215.063424 
L 360.130909 214.934904 
L 364.189091 214.860816 
L 368.247273 214.84116 
L 372.305455 214.874424 
L 376.363636 214.96212 
L 380.421818 215.101224 
L 384.48 215.290224 
L 388.538182 215.52912 
L 392.596364 215.813376 
L 396.654545 216.14148 
L 400.712727 216.51192 
L 404.770909 216.921672 
L 408.829091 217.3662 
L 412.887273 217.843992 
L 416.945455 218.352024 
L 421.003636 218.884248 
L 425.061818 219.439152 
L 429.12 220.009176 
L 433.178182 220.58676 
L 437.236364 221.158296 
L 441.294545 221.678424 
L 445.352727 221.994432 
L 449.410909 221.903712 
L 453.469091 221.60736 
L 457.527273 221.271696 
L 461.585455 220.943592 
L 465.643636 220.636656 
L 469.701818 220.358448 
L 473.76 220.111992 
L 477.818182 219.8988 
L 481.876364 219.723408 
L 485.934545 219.584304 
L 489.992727 219.484512 
L 494.050909 219.424032 
L 498.109091 219.404376 
" clip-path="url(#p58623e5d3a)" style="fill: none; stroke: #000000; stroke-opacity: 0.5; stroke-linecap: square"/>
   </g>
   <g id="line2d_20">
    <path d="M 92.290909 169.837992 
L 96.349091 169.831944 
L 100.407273 169.812288 
L 104.465455 169.780536 
L 108.523636 169.736688 
L 112.581818 169.679232 
L 116.64 169.60968 
L 120.698182 169.528032 
L 124.756364 169.434288 
L 128.814545 169.326936 
L 132.872727 169.207488 
L 136.930909 169.075944 
L 140.989091 168.930792 
L 145.047273 168.775056 
L 149.105455 168.607224 
L 153.163636 168.427296 
L 157.221818 168.235272 
L 161.28 168.031152 
L 165.338182 167.816448 
L 169.396364 167.589648 
L 173.454545 167.352264 
L 177.512727 167.104296 
L 181.570909 166.844232 
L 185.629091 166.575096 
L 189.687273 166.295376 
L 193.745455 166.005072 
L 197.803636 165.705696 
L 201.861818 165.397248 
L 205.92 165.079728 
L 209.978182 164.754648 
L 214.036364 164.422008 
L 218.094545 164.08332 
L 222.152727 163.737072 
L 226.210909 163.386288 
L 230.269091 163.03248 
L 234.327273 162.67716 
L 238.385455 162.32184 
L 242.443636 161.968032 
L 246.501818 161.621784 
L 250.56 161.284608 
L 254.618182 160.965576 
L 258.676364 160.670736 
L 262.734545 160.412184 
L 266.792727 160.20504 
L 270.850909 160.062912 
L 274.909091 160.003944 
L 278.967273 160.03872 
L 283.025455 160.168752 
L 287.083636 160.380432 
L 291.141818 160.655616 
L 295.2 160.97616 
L 299.258182 161.322408 
L 303.316364 161.67924 
L 307.374545 162.036072 
L 311.432727 162.383832 
L 315.490909 162.716472 
L 319.549091 163.029456 
L 323.607273 163.318248 
L 327.665455 163.579824 
L 331.723636 163.812672 
L 335.781818 164.01528 
L 339.84 164.187648 
L 343.898182 164.328264 
L 347.956364 164.43864 
L 352.014545 164.520288 
L 356.072727 164.579256 
L 360.130909 164.617056 
L 364.189091 164.641248 
L 368.247273 164.659392 
L 372.305455 164.682072 
L 376.363636 164.721384 
L 380.421818 164.7864 
L 384.48 164.893752 
L 388.538182 165.051 
L 392.596364 165.267216 
L 396.654545 165.5424 
L 400.712727 165.87504 
L 404.770909 166.257576 
L 408.829091 166.680936 
L 412.887273 167.136048 
L 416.945455 167.612328 
L 421.003636 168.102216 
L 425.061818 168.59664 
L 429.12 169.091064 
L 433.178182 169.57944 
L 437.236364 170.05572 
L 441.294545 170.518392 
L 445.352727 170.96292 
L 449.410909 171.38628 
L 453.469091 171.785448 
L 457.527273 172.158912 
L 461.585455 172.503648 
L 465.643636 172.819656 
L 469.701818 173.100888 
L 473.76 173.350368 
L 477.818182 173.56356 
L 481.876364 173.738952 
L 485.934545 173.878056 
L 489.992727 173.976336 
L 494.050909 174.036816 
L 498.109091 174.056472 
" clip-path="url(#p58623e5d3a)" style="fill: none; stroke: #000000; stroke-opacity: 0.5; stroke-linecap: square"/>
   </g>
   <g id="line2d_21">
    <path d="M 92.290909 140.742576 
L 96.349091 140.736528 
L 100.407273 140.71536 
L 104.465455 140.682096 
L 108.523636 140.633712 
L 112.581818 140.573232 
L 116.64 140.499144 
L 120.698182 140.411448 
L 124.756364 140.311656 
L 128.814545 140.199768 
L 132.872727 140.075784 
L 136.930909 139.942728 
L 140.989091 139.797576 
L 145.047273 139.644864 
L 149.105455 139.486104 
L 153.163636 139.32432 
L 157.221818 139.162536 
L 161.28 139.0068 
L 165.338182 138.867696 
L 169.396364 138.75732 
L 173.454545 138.699864 
L 177.512727 138.724056 
L 181.570909 138.867696 
L 185.629091 139.16556 
L 189.687273 139.625208 
L 193.745455 140.222448 
L 197.803636 140.920992 
L 201.861818 141.684552 
L 205.92 142.487424 
L 209.978182 143.311464 
L 214.036364 144.144576 
L 218.094545 144.9792 
L 222.152727 145.807776 
L 226.210909 146.628792 
L 230.269091 147.434688 
L 234.327273 148.223952 
L 238.385455 148.99356 
L 242.443636 149.740488 
L 246.501818 150.458688 
L 250.56 151.143624 
L 254.618182 151.787736 
L 258.676364 152.383464 
L 262.734545 152.918712 
L 266.792727 153.379872 
L 270.850909 153.747288 
L 274.909091 154.007352 
L 278.967273 154.146456 
L 283.025455 154.1646 
L 287.083636 154.072368 
L 291.141818 153.887904 
L 295.2 153.630864 
L 299.258182 153.31788 
L 303.316364 152.964072 
L 307.374545 152.580024 
L 311.432727 152.17632 
L 315.490909 151.755984 
L 319.549091 151.3296 
L 323.607273 150.89868 
L 327.665455 150.473808 
L 331.723636 150.062544 
L 335.781818 149.687568 
L 339.84 149.38668 
L 343.898182 149.247576 
L 347.956364 149.406336 
L 352.014545 149.888664 
L 356.072727 150.55092 
L 360.130909 151.272144 
L 364.189091 151.991856 
L 368.247273 152.676792 
L 372.305455 153.307296 
L 376.363636 153.868248 
L 380.421818 154.343016 
L 384.48 154.721016 
L 388.538182 154.991664 
L 392.596364 155.150424 
L 396.654545 155.195784 
L 400.712727 155.135304 
L 404.770909 154.976544 
L 408.829091 154.7316 
L 412.887273 154.41408 
L 416.945455 154.037592 
L 421.003636 153.614232 
L 425.061818 153.15156 
L 429.12 152.663184 
L 433.178182 152.155152 
L 437.236364 151.636536 
L 441.294545 151.116408 
L 445.352727 150.597792 
L 449.410909 150.091272 
L 453.469091 149.599872 
L 457.527273 149.131152 
L 461.585455 148.69116 
L 465.643636 148.28292 
L 469.701818 147.91248 
L 473.76 147.582864 
L 477.818182 147.298608 
L 481.876364 147.062736 
L 485.934545 146.878272 
L 489.992727 146.743704 
L 494.050909 146.663568 
L 498.109091 146.636352 
" clip-path="url(#p58623e5d3a)" style="fill: none; stroke: #000000; stroke-opacity: 0.5; stroke-linecap: square"/>
   </g>
   <g id="line2d_22">
    <path d="M 92.290909 111.551904 
L 96.349091 111.910248 
L 100.407273 112.755456 
L 104.465455 113.803272 
L 108.523636 114.932736 
L 112.581818 116.095464 
L 116.64 117.268776 
L 120.698182 118.4436 
L 124.756364 119.6154 
L 128.814545 120.778128 
L 132.872727 121.931784 
L 136.930909 123.071832 
L 140.989091 124.19676 
L 145.047273 125.305056 
L 149.105455 126.395208 
L 153.163636 127.461168 
L 157.221818 128.499912 
L 161.28 129.505392 
L 165.338182 130.465512 
L 169.396364 131.369688 
L 173.454545 132.193728 
L 177.512727 132.90588 
L 181.570909 133.469856 
L 185.629091 133.85088 
L 189.687273 134.041392 
L 193.745455 134.06256 
L 197.803636 133.953696 
L 201.861818 133.748064 
L 205.92 133.47288 
L 209.978182 133.143264 
L 214.036364 132.774336 
L 218.094545 132.370632 
L 222.152727 131.939712 
L 226.210909 131.4846 
L 230.269091 131.006808 
L 234.327273 130.512384 
L 238.385455 130.00284 
L 242.443636 129.479688 
L 246.501818 128.952 
L 250.56 128.424312 
L 254.618182 127.913256 
L 258.676364 127.446048 
L 262.734545 127.083168 
L 266.792727 126.9486 
L 270.850909 127.211688 
L 274.909091 127.907208 
L 278.967273 128.880936 
L 283.025455 129.990744 
L 287.083636 131.161032 
L 291.141818 132.358536 
L 295.2 133.565112 
L 299.258182 134.768664 
L 303.316364 135.966168 
L 307.374545 137.151576 
L 311.432727 138.321864 
L 315.490909 139.472496 
L 319.549091 140.600448 
L 323.607273 141.701184 
L 327.665455 142.767144 
L 331.723636 143.790768 
L 335.781818 144.750888 
L 339.84 145.60668 
L 343.898182 146.267424 
L 347.956364 146.600064 
L 352.014545 146.572848 
L 356.072727 146.327904 
L 360.130909 145.978632 
L 364.189091 145.584 
L 368.247273 145.1682 
L 372.305455 144.741816 
L 376.363636 144.312408 
L 380.421818 143.884512 
L 384.48 143.45964 
L 388.538182 143.040816 
L 392.596364 142.62804 
L 396.654545 142.222824 
L 400.712727 141.828192 
L 404.770909 141.442632 
L 408.829091 141.069168 
L 412.887273 140.706288 
L 416.945455 140.355504 
L 421.003636 140.018328 
L 425.061818 139.69476 
L 429.12 139.3848 
L 433.178182 139.08996 
L 437.236364 138.81024 
L 441.294545 138.54564 
L 445.352727 138.297672 
L 449.410909 138.064824 
L 453.469091 137.85012 
L 457.527273 137.650536 
L 461.585455 137.469096 
L 465.643636 137.3058 
L 469.701818 137.159136 
L 473.76 137.030616 
L 477.818182 136.92024 
L 481.876364 136.828008 
L 485.934545 136.755432 
L 489.992727 136.704024 
L 494.050909 136.672272 
L 498.109091 136.661688 
" clip-path="url(#p58623e5d3a)" style="fill: none; stroke: #000000; stroke-opacity: 0.5; stroke-linecap: square"/>
   </g>
   <g id="line2d_23">
    <path d="M 92.290909 107.331912 
L 96.349091 106.962984 
L 100.407273 106.086024 
L 104.465455 104.985288 
L 108.523636 103.783248 
L 112.581818 102.526776 
L 116.64 101.238552 
L 120.698182 99.927648 
L 124.756364 98.601624 
L 128.814545 97.265016 
L 132.872727 95.919336 
L 136.930909 94.570632 
L 140.989091 93.224952 
L 145.047273 91.889856 
L 149.105455 90.588024 
L 153.163636 89.370864 
L 157.221818 88.409232 
L 161.28 88.177896 
L 165.338182 88.903656 
L 169.396364 90.07848 
L 173.454545 91.404504 
L 177.512727 92.787984 
L 181.570909 94.200192 
L 185.629091 95.626008 
L 189.687273 97.059384 
L 193.745455 98.497296 
L 197.803636 99.935208 
L 201.861818 101.374632 
L 205.92 102.811032 
L 209.978182 104.244408 
L 214.036364 105.673248 
L 218.094545 107.097552 
L 222.152727 108.51732 
L 226.210909 109.928016 
L 230.269091 111.331152 
L 234.327273 112.723704 
L 238.385455 114.10416 
L 242.443636 115.469496 
L 246.501818 116.813664 
L 250.56 118.129104 
L 254.618182 119.400696 
L 258.676364 120.601224 
L 262.734545 121.670208 
L 266.792727 122.482152 
L 270.850909 122.867712 
L 274.909091 122.792112 
L 278.967273 122.409576 
L 283.025455 121.86072 
L 287.083636 121.221144 
L 291.141818 120.524112 
L 295.2 119.787768 
L 299.258182 119.021184 
L 303.316364 118.230408 
L 307.374545 117.418464 
L 311.432727 116.5914 
L 315.490909 115.749216 
L 319.549091 114.89796 
L 323.607273 114.042168 
L 327.665455 113.1894 
L 331.723636 112.35024 
L 335.781818 111.551904 
L 339.84 110.844288 
L 343.898182 110.349864 
L 347.956364 110.287872 
L 352.014545 110.783808 
L 356.072727 111.656232 
L 360.130909 112.699512 
L 364.189091 113.806296 
L 368.247273 114.934248 
L 372.305455 116.0622 
L 376.363636 117.178056 
L 380.421818 118.275768 
L 384.48 119.3508 
L 388.538182 120.400128 
L 392.596364 121.423752 
L 396.654545 122.417136 
L 400.712727 123.38028 
L 404.770909 124.311672 
L 408.829091 125.208288 
L 412.887273 126.07164 
L 416.945455 126.898704 
L 421.003636 127.68948 
L 425.061818 128.440944 
L 429.12 129.154608 
L 433.178182 129.82896 
L 437.236364 130.462488 
L 441.294545 131.05368 
L 445.352727 131.604048 
L 449.410909 132.11208 
L 453.469091 132.576264 
L 457.527273 132.9966 
L 461.585455 133.3746 
L 465.643636 133.708752 
L 469.701818 134.00208 
L 473.76 134.25156 
L 477.818182 134.461728 
L 481.876364 134.632584 
L 485.934545 134.764128 
L 489.992727 134.85636 
L 494.050909 134.912304 
L 498.109091 134.93196 
" clip-path="url(#p58623e5d3a)" style="fill: none; stroke: #000000; stroke-opacity: 0.5; stroke-linecap: square"/>
   </g>
   <g id="patch_3">
    <path d="M 72 384.48 
L 72 51.84 
" style="fill: none; stroke: #000000; stroke-width: 0.8; stroke-linejoin: miter; stroke-linecap: square"/>
   </g>
   <g id="patch_4">
    <path d="M 518.4 384.48 
L 518.4 51.84 
" style="fill: none; stroke: #000000; stroke-width: 0.8; stroke-linejoin: miter; stroke-linecap: square"/>
   </g>
   <g id="patch_5">
    <path d="M 72 384.48 
L 518.4 384.48 
" style="fill: none; stroke: #000000; stroke-width: 0.8; stroke-linejoin: miter; stroke-linecap: square"/>
   </g>
   <g id="patch_6">
    <path d="M 72 51.84 
L 518.4 51.84 
" style="fill: none; stroke: #000000; stroke-width: 0.8; stroke-linejoin: miter; stroke-linecap: square"/>
   </g>
  </g>
 </g>
 <defs>
  <clipPath id="p58623e5d3a">
   <rect x="72" y="51.84" width="446.4" height="332.64"/>
  </clipPath>
 </defs>
</svg>
