<?xml version="1.0" encoding="utf-8" standalone="no"?>
<!DOCTYPE svg PUBLIC "-//W3C//DTD SVG 1.1//EN"
  "http://www.w3.org/Graphics/SVG/1.1/DTD/svg11.dtd">
<svg xmlns:xlink="http://www.w3.org/1999/xlink" width="576pt" height="432pt" viewBox="0 0 576 432" xmlns="http://www.w3.org/2000/svg" version="1.1">
 <metadata>
  <rdf:RDF xmlns:dc="http://purl.org/dc/elements/1.1/" xmlns:cc="http://creativecommons.org/ns#" xmlns:rdf="http://www.w3.org/1999/02/22-rdf-syntax-ns#">
   <cc:Work>
    <dc:type rdf:resource="http://purl.org/dc/dcmitype/StillImage"/>
    <dc:date>2023-05-02T22:53:45.628802</dc:date>
    <dc:format>image/svg+xml</dc:format>
    <dc:creator>
     <cc:Agent>
      <dc:title>Matplotlib v3.7.1, https://matplotlib.org/</dc:title>
     </cc:Agent>
    </dc:creator>
   </cc:Work>
  </rdf:RDF>
 </metadata>
 <defs>
  <style type="text/css">*{stroke-linejoin: round; stroke-linecap: butt}</style>
 </defs>
 <g id="figure_1">
  <g id="patch_1">
   <path d="M 0 432 
L 576 432 
L 576 0 
L 0 0 
z
" style="fill: #ffffff"/>
  </g>
  <g id="axes_1">
   <g id="patch_2">
    <path d="M 72 384.48 
L 518.4 384.48 
L 518.4 51.84 
L 72 51.84 
z
" style="fill: #ffffff"/>
   </g>
   <g id="matplotlib.axis_1">
    <g id="xtick_1">
     <g id="line2d_1">
      <defs>
       <path id="mab64237eff" d="M 0 0 
L 0 3.5 
" style="stroke: #000000; stroke-width: 0.8"/>
      </defs>
      <g>
       <use xlink:href="#mab64237eff" x="92.290909" y="384.48" style="stroke: #000000; stroke-width: 0.8"/>
      </g>
     </g>
     <g id="text_1">
      <!-- 0.0 -->
      <g transform="translate(84.339347 399.078438) scale(0.1 -0.1)">
       <defs>
        <path id="DejaVuSans-30" d="M 2034 4250 
Q 1547 4250 1301 3770 
Q 1056 3291 1056 2328 
Q 1056 1369 1301 889 
Q 1547 409 2034 409 
Q 2525 409 2770 889 
Q 3016 1369 3016 2328 
Q 3016 3291 2770 3770 
Q 2525 4250 2034 4250 
z
M 2034 4750 
Q 2819 4750 3233 4129 
Q 3647 3509 3647 2328 
Q 3647 1150 3233 529 
Q 2819 -91 2034 -91 
Q 1250 -91 836 529 
Q 422 1150 422 2328 
Q 422 3509 836 4129 
Q 1250 4750 2034 4750 
z
" transform="scale(0.015625)"/>
        <path id="DejaVuSans-2e" d="M 684 794 
L 1344 794 
L 1344 0 
L 684 0 
L 684 794 
z
" transform="scale(0.015625)"/>
       </defs>
       <use xlink:href="#DejaVuSans-30"/>
       <use xlink:href="#DejaVuSans-2e" x="63.623047"/>
       <use xlink:href="#DejaVuSans-30" x="95.410156"/>
      </g>
     </g>
    </g>
    <g id="xtick_2">
     <g id="line2d_2">
      <g>
       <use xlink:href="#mab64237eff" x="173.454545" y="384.48" style="stroke: #000000; stroke-width: 0.8"/>
      </g>
     </g>
     <g id="text_2">
      <!-- 0.2 -->
      <g transform="translate(165.502983 399.078438) scale(0.1 -0.1)">
       <defs>
        <path id="DejaVuSans-32" d="M 1228 531 
L 3431 531 
L 3431 0 
L 469 0 
L 469 531 
Q 828 903 1448 1529 
Q 2069 2156 2228 2338 
Q 2531 2678 2651 2914 
Q 2772 3150 2772 3378 
Q 2772 3750 2511 3984 
Q 2250 4219 1831 4219 
Q 1534 4219 1204 4116 
Q 875 4013 500 3803 
L 500 4441 
Q 881 4594 1212 4672 
Q 1544 4750 1819 4750 
Q 2544 4750 2975 4387 
Q 3406 4025 3406 3419 
Q 3406 3131 3298 2873 
Q 3191 2616 2906 2266 
Q 2828 2175 2409 1742 
Q 1991 1309 1228 531 
z
" transform="scale(0.015625)"/>
       </defs>
       <use xlink:href="#DejaVuSans-30"/>
       <use xlink:href="#DejaVuSans-2e" x="63.623047"/>
       <use xlink:href="#DejaVuSans-32" x="95.410156"/>
      </g>
     </g>
    </g>
    <g id="xtick_3">
     <g id="line2d_3">
      <g>
       <use xlink:href="#mab64237eff" x="254.618182" y="384.48" style="stroke: #000000; stroke-width: 0.8"/>
      </g>
     </g>
     <g id="text_3">
      <!-- 0.4 -->
      <g transform="translate(246.666619 399.078438) scale(0.1 -0.1)">
       <defs>
        <path id="DejaVuSans-34" d="M 2419 4116 
L 825 1625 
L 2419 1625 
L 2419 4116 
z
M 2253 4666 
L 3047 4666 
L 3047 1625 
L 3713 1625 
L 3713 1100 
L 3047 1100 
L 3047 0 
L 2419 0 
L 2419 1100 
L 313 1100 
L 313 1709 
L 2253 4666 
z
" transform="scale(0.015625)"/>
       </defs>
       <use xlink:href="#DejaVuSans-30"/>
       <use xlink:href="#DejaVuSans-2e" x="63.623047"/>
       <use xlink:href="#DejaVuSans-34" x="95.410156"/>
      </g>
     </g>
    </g>
    <g id="xtick_4">
     <g id="line2d_4">
      <g>
       <use xlink:href="#mab64237eff" x="335.781818" y="384.48" style="stroke: #000000; stroke-width: 0.8"/>
      </g>
     </g>
     <g id="text_4">
      <!-- 0.6 -->
      <g transform="translate(327.830256 399.078438) scale(0.1 -0.1)">
       <defs>
        <path id="DejaVuSans-36" d="M 2113 2584 
Q 1688 2584 1439 2293 
Q 1191 2003 1191 1497 
Q 1191 994 1439 701 
Q 1688 409 2113 409 
Q 2538 409 2786 701 
Q 3034 994 3034 1497 
Q 3034 2003 2786 2293 
Q 2538 2584 2113 2584 
z
M 3366 4563 
L 3366 3988 
Q 3128 4100 2886 4159 
Q 2644 4219 2406 4219 
Q 1781 4219 1451 3797 
Q 1122 3375 1075 2522 
Q 1259 2794 1537 2939 
Q 1816 3084 2150 3084 
Q 2853 3084 3261 2657 
Q 3669 2231 3669 1497 
Q 3669 778 3244 343 
Q 2819 -91 2113 -91 
Q 1303 -91 875 529 
Q 447 1150 447 2328 
Q 447 3434 972 4092 
Q 1497 4750 2381 4750 
Q 2619 4750 2861 4703 
Q 3103 4656 3366 4563 
z
" transform="scale(0.015625)"/>
       </defs>
       <use xlink:href="#DejaVuSans-30"/>
       <use xlink:href="#DejaVuSans-2e" x="63.623047"/>
       <use xlink:href="#DejaVuSans-36" x="95.410156"/>
      </g>
     </g>
    </g>
    <g id="xtick_5">
     <g id="line2d_5">
      <g>
       <use xlink:href="#mab64237eff" x="416.945455" y="384.48" style="stroke: #000000; stroke-width: 0.8"/>
      </g>
     </g>
     <g id="text_5">
      <!-- 0.8 -->
      <g transform="translate(408.993892 399.078438) scale(0.1 -0.1)">
       <defs>
        <path id="DejaVuSans-38" d="M 2034 2216 
Q 1584 2216 1326 1975 
Q 1069 1734 1069 1313 
Q 1069 891 1326 650 
Q 1584 409 2034 409 
Q 2484 409 2743 651 
Q 3003 894 3003 1313 
Q 3003 1734 2745 1975 
Q 2488 2216 2034 2216 
z
M 1403 2484 
Q 997 2584 770 2862 
Q 544 3141 544 3541 
Q 544 4100 942 4425 
Q 1341 4750 2034 4750 
Q 2731 4750 3128 4425 
Q 3525 4100 3525 3541 
Q 3525 3141 3298 2862 
Q 3072 2584 2669 2484 
Q 3125 2378 3379 2068 
Q 3634 1759 3634 1313 
Q 3634 634 3220 271 
Q 2806 -91 2034 -91 
Q 1263 -91 848 271 
Q 434 634 434 1313 
Q 434 1759 690 2068 
Q 947 2378 1403 2484 
z
M 1172 3481 
Q 1172 3119 1398 2916 
Q 1625 2713 2034 2713 
Q 2441 2713 2670 2916 
Q 2900 3119 2900 3481 
Q 2900 3844 2670 4047 
Q 2441 4250 2034 4250 
Q 1625 4250 1398 4047 
Q 1172 3844 1172 3481 
z
" transform="scale(0.015625)"/>
       </defs>
       <use xlink:href="#DejaVuSans-30"/>
       <use xlink:href="#DejaVuSans-2e" x="63.623047"/>
       <use xlink:href="#DejaVuSans-38" x="95.410156"/>
      </g>
     </g>
    </g>
    <g id="xtick_6">
     <g id="line2d_6">
      <g>
       <use xlink:href="#mab64237eff" x="498.109091" y="384.48" style="stroke: #000000; stroke-width: 0.8"/>
      </g>
     </g>
     <g id="text_6">
      <!-- 1.0 -->
      <g transform="translate(490.157528 399.078438) scale(0.1 -0.1)">
       <defs>
        <path id="DejaVuSans-31" d="M 794 531 
L 1825 531 
L 1825 4091 
L 703 3866 
L 703 4441 
L 1819 4666 
L 2450 4666 
L 2450 531 
L 3481 531 
L 3481 0 
L 794 0 
L 794 531 
z
" transform="scale(0.015625)"/>
       </defs>
       <use xlink:href="#DejaVuSans-31"/>
       <use xlink:href="#DejaVuSans-2e" x="63.623047"/>
       <use xlink:href="#DejaVuSans-30" x="95.410156"/>
      </g>
     </g>
    </g>
   </g>
   <g id="matplotlib.axis_2">
    <g id="ytick_1">
     <g id="line2d_7">
      <defs>
       <path id="mdae8e29c00" d="M 0 0 
L -3.5 0 
" style="stroke: #000000; stroke-width: 0.8"/>
      </defs>
      <g>
       <use xlink:href="#mdae8e29c00" x="72" y="369.36" style="stroke: #000000; stroke-width: 0.8"/>
      </g>
     </g>
     <g id="text_7">
      <!-- −5.0 -->
      <g transform="translate(40.717187 373.159219) scale(0.1 -0.1)">
       <defs>
        <path id="DejaVuSans-2212" d="M 678 2272 
L 4684 2272 
L 4684 1741 
L 678 1741 
L 678 2272 
z
" transform="scale(0.015625)"/>
        <path id="DejaVuSans-35" d="M 691 4666 
L 3169 4666 
L 3169 4134 
L 1269 4134 
L 1269 2991 
Q 1406 3038 1543 3061 
Q 1681 3084 1819 3084 
Q 2600 3084 3056 2656 
Q 3513 2228 3513 1497 
Q 3513 744 3044 326 
Q 2575 -91 1722 -91 
Q 1428 -91 1123 -41 
Q 819 9 494 109 
L 494 744 
Q 775 591 1075 516 
Q 1375 441 1709 441 
Q 2250 441 2565 725 
Q 2881 1009 2881 1497 
Q 2881 1984 2565 2268 
Q 2250 2553 1709 2553 
Q 1456 2553 1204 2497 
Q 953 2441 691 2322 
L 691 4666 
z
" transform="scale(0.015625)"/>
       </defs>
       <use xlink:href="#DejaVuSans-2212"/>
       <use xlink:href="#DejaVuSans-35" x="83.789062"/>
       <use xlink:href="#DejaVuSans-2e" x="147.412109"/>
       <use xlink:href="#DejaVuSans-30" x="179.199219"/>
      </g>
     </g>
    </g>
    <g id="ytick_2">
     <g id="line2d_8">
      <g>
       <use xlink:href="#mdae8e29c00" x="72" y="331.56" style="stroke: #000000; stroke-width: 0.8"/>
      </g>
     </g>
     <g id="text_8">
      <!-- −2.5 -->
      <g transform="translate(40.717187 335.359219) scale(0.1 -0.1)">
       <use xlink:href="#DejaVuSans-2212"/>
       <use xlink:href="#DejaVuSans-32" x="83.789062"/>
       <use xlink:href="#DejaVuSans-2e" x="147.412109"/>
       <use xlink:href="#DejaVuSans-35" x="179.199219"/>
      </g>
     </g>
    </g>
    <g id="ytick_3">
     <g id="line2d_9">
      <g>
       <use xlink:href="#mdae8e29c00" x="72" y="293.76" style="stroke: #000000; stroke-width: 0.8"/>
      </g>
     </g>
     <g id="text_9">
      <!-- 0.0 -->
      <g transform="translate(49.096875 297.559219) scale(0.1 -0.1)">
       <use xlink:href="#DejaVuSans-30"/>
       <use xlink:href="#DejaVuSans-2e" x="63.623047"/>
       <use xlink:href="#DejaVuSans-30" x="95.410156"/>
      </g>
     </g>
    </g>
    <g id="ytick_4">
     <g id="line2d_10">
      <g>
       <use xlink:href="#mdae8e29c00" x="72" y="255.96" style="stroke: #000000; stroke-width: 0.8"/>
      </g>
     </g>
     <g id="text_10">
      <!-- 2.5 -->
      <g transform="translate(49.096875 259.759219) scale(0.1 -0.1)">
       <use xlink:href="#DejaVuSans-32"/>
       <use xlink:href="#DejaVuSans-2e" x="63.623047"/>
       <use xlink:href="#DejaVuSans-35" x="95.410156"/>
      </g>
     </g>
    </g>
    <g id="ytick_5">
     <g id="line2d_11">
      <g>
       <use xlink:href="#mdae8e29c00" x="72" y="218.16" style="stroke: #000000; stroke-width: 0.8"/>
      </g>
     </g>
     <g id="text_11">
      <!-- 5.0 -->
      <g transform="translate(49.096875 221.959219) scale(0.1 -0.1)">
       <use xlink:href="#DejaVuSans-35"/>
       <use xlink:href="#DejaVuSans-2e" x="63.623047"/>
       <use xlink:href="#DejaVuSans-30" x="95.410156"/>
      </g>
     </g>
    </g>
    <g id="ytick_6">
     <g id="line2d_12">
      <g>
       <use xlink:href="#mdae8e29c00" x="72" y="180.36" style="stroke: #000000; stroke-width: 0.8"/>
      </g>
     </g>
     <g id="text_12">
      <!-- 7.5 -->
      <g transform="translate(49.096875 184.159219) scale(0.1 -0.1)">
       <defs>
        <path id="DejaVuSans-37" d="M 525 4666 
L 3525 4666 
L 3525 4397 
L 1831 0 
L 1172 0 
L 2766 4134 
L 525 4134 
L 525 4666 
z
" transform="scale(0.015625)"/>
       </defs>
       <use xlink:href="#DejaVuSans-37"/>
       <use xlink:href="#DejaVuSans-2e" x="63.623047"/>
       <use xlink:href="#DejaVuSans-35" x="95.410156"/>
      </g>
     </g>
    </g>
    <g id="ytick_7">
     <g id="line2d_13">
      <g>
       <use xlink:href="#mdae8e29c00" x="72" y="142.56" style="stroke: #000000; stroke-width: 0.8"/>
      </g>
     </g>
     <g id="text_13">
      <!-- 10.0 -->
      <g transform="translate(42.734375 146.359219) scale(0.1 -0.1)">
       <use xlink:href="#DejaVuSans-31"/>
       <use xlink:href="#DejaVuSans-30" x="63.623047"/>
       <use xlink:href="#DejaVuSans-2e" x="127.246094"/>
       <use xlink:href="#DejaVuSans-30" x="159.033203"/>
      </g>
     </g>
    </g>
    <g id="ytick_8">
     <g id="line2d_14">
      <g>
       <use xlink:href="#mdae8e29c00" x="72" y="104.76" style="stroke: #000000; stroke-width: 0.8"/>
      </g>
     </g>
     <g id="text_14">
      <!-- 12.5 -->
      <g transform="translate(42.734375 108.559219) scale(0.1 -0.1)">
       <use xlink:href="#DejaVuSans-31"/>
       <use xlink:href="#DejaVuSans-32" x="63.623047"/>
       <use xlink:href="#DejaVuSans-2e" x="127.246094"/>
       <use xlink:href="#DejaVuSans-35" x="159.033203"/>
      </g>
     </g>
    </g>
    <g id="ytick_9">
     <g id="line2d_15">
      <g>
       <use xlink:href="#mdae8e29c00" x="72" y="66.96" style="stroke: #000000; stroke-width: 0.8"/>
      </g>
     </g>
     <g id="text_15">
      <!-- 15.0 -->
      <g transform="translate(42.734375 70.759219) scale(0.1 -0.1)">
       <use xlink:href="#DejaVuSans-31"/>
       <use xlink:href="#DejaVuSans-35" x="63.623047"/>
       <use xlink:href="#DejaVuSans-2e" x="127.246094"/>
       <use xlink:href="#DejaVuSans-30" x="159.033203"/>
      </g>
     </g>
    </g>
   </g>
   <g id="line2d_16">
    <path d="M 92.290909 377.293464 
L 96.349091 377.287416 
L 100.407273 377.26776 
L 104.465455 377.236008 
L 108.523636 377.19216 
L 112.581818 377.136216 
L 116.64 377.066664 
L 120.698182 376.983504 
L 124.756364 376.88976 
L 128.814545 376.782408 
L 132.872727 376.661448 
L 136.930909 376.529904 
L 140.989091 376.384752 
L 145.047273 376.225992 
L 149.105455 376.056648 
L 153.163636 375.873696 
L 157.221818 375.678648 
L 161.28 375.469992 
L 165.338182 375.24924 
L 169.396364 375.016392 
L 173.454545 374.771448 
L 177.512727 374.514408 
L 181.570909 374.24376 
L 185.629091 373.961016 
L 189.687273 373.666176 
L 193.745455 373.35924 
L 197.803636 373.038696 
L 201.861818 372.707568 
L 205.92 372.362832 
L 209.978182 372.006 
L 214.036364 371.637072 
L 218.094545 371.25756 
L 222.152727 370.86444 
L 226.210909 370.459224 
L 230.269091 370.041912 
L 234.327273 369.612504 
L 238.385455 369.171 
L 242.443636 368.7174 
L 246.501818 368.251704 
L 250.56 367.775424 
L 254.618182 367.287048 
L 258.676364 366.785064 
L 262.734545 366.274008 
L 266.792727 365.749344 
L 270.850909 365.214096 
L 274.909091 364.666752 
L 278.967273 364.107312 
L 283.025455 363.537288 
L 287.083636 362.955168 
L 291.141818 362.362464 
L 295.2 361.757664 
L 299.258182 361.14228 
L 303.316364 360.516312 
L 307.374545 359.878248 
L 311.432727 359.2296 
L 315.490909 358.570368 
L 319.549091 357.89904 
L 323.607273 357.21864 
L 327.665455 356.526144 
L 331.723636 355.823064 
L 335.781818 355.110912 
L 339.84 354.386664 
L 343.898182 353.653344 
L 347.956364 352.90944 
L 352.014545 352.156464 
L 356.072727 351.392904 
L 360.130909 350.61876 
L 364.189091 349.835544 
L 368.247273 349.041744 
L 372.305455 348.240384 
L 376.363636 347.42844 
L 380.421818 346.607424 
L 384.48 345.777336 
L 388.538182 344.939688 
L 392.596364 344.091456 
L 396.654545 343.235664 
L 400.712727 342.372312 
L 404.770909 341.499888 
L 408.829091 340.619904 
L 412.887273 339.73236 
L 416.945455 338.837256 
L 421.003636 337.936104 
L 425.061818 337.027392 
L 429.12 336.11112 
L 433.178182 335.190312 
L 437.236364 334.263456 
L 441.294545 333.332064 
L 445.352727 332.396136 
L 449.410909 331.457184 
L 453.469091 330.515208 
L 457.527273 329.57172 
L 461.585455 328.628232 
L 465.643636 327.68928 
L 469.701818 326.754864 
L 473.76 325.834056 
L 477.818182 324.931392 
L 481.876364 324.065016 
L 485.934545 323.260632 
L 489.992727 322.5636 
L 494.050909 322.06464 
L 498.109091 321.87564 
" clip-path="url(#pa35fdc52a2)" style="fill: none; stroke: #000000; stroke-opacity: 0.5; stroke-linecap: square"/>
   </g>
   <g id="line2d_17">
    <path d="M 92.290909 228.024288 
L 96.349091 228.102912 
L 100.407273 228.33576 
L 104.465455 228.704688 
L 108.523636 229.19004 
L 112.581818 229.77216 
L 116.64 230.428368 
L 120.698182 231.146568 
L 124.756364 231.91164 
L 128.814545 232.713 
L 132.872727 233.546112 
L 136.930909 234.400392 
L 140.989091 235.27584 
L 145.047273 236.164896 
L 149.105455 237.066048 
L 153.163636 237.976272 
L 157.221818 238.894056 
L 161.28 239.817888 
L 165.338182 240.746256 
L 169.396364 241.677648 
L 173.454545 242.612064 
L 177.512727 243.547992 
L 181.570909 244.48392 
L 185.629091 245.419848 
L 189.687273 246.355776 
L 193.745455 247.291704 
L 197.803636 248.224608 
L 201.861818 249.157512 
L 205.92 250.088904 
L 209.978182 251.017272 
L 214.036364 251.94564 
L 218.094545 252.869472 
L 222.152727 253.793304 
L 226.210909 254.7126 
L 230.269091 255.631896 
L 234.327273 256.546656 
L 238.385455 257.461416 
L 242.443636 258.37164 
L 246.501818 259.281864 
L 250.56 260.189064 
L 254.618182 261.094752 
L 258.676364 261.997416 
L 262.734545 262.90008 
L 266.792727 263.801232 
L 270.850909 264.700872 
L 274.909091 265.599 
L 278.967273 266.497128 
L 283.025455 267.395256 
L 287.083636 268.293384 
L 291.141818 269.191512 
L 295.2 270.08964 
L 299.258182 270.987768 
L 303.316364 271.887408 
L 307.374545 272.790072 
L 311.432727 273.692736 
L 315.490909 274.596912 
L 319.549091 275.504112 
L 323.607273 276.414336 
L 327.665455 277.326072 
L 331.723636 278.242344 
L 335.781818 279.16164 
L 339.84 280.08396 
L 343.898182 281.010816 
L 347.956364 281.942208 
L 352.014545 282.876624 
L 356.072727 283.815576 
L 360.130909 284.760576 
L 364.189091 285.7086 
L 368.247273 286.662672 
L 372.305455 287.62128 
L 376.363636 288.584424 
L 380.421818 289.552104 
L 384.48 290.52432 
L 388.538182 291.502584 
L 392.596364 292.483872 
L 396.654545 293.471208 
L 400.712727 294.461568 
L 404.770909 295.456464 
L 408.829091 296.454384 
L 412.887273 297.45684 
L 416.945455 298.460808 
L 421.003636 299.469312 
L 425.061818 300.479328 
L 429.12 301.490856 
L 433.178182 302.503896 
L 437.236364 303.518448 
L 441.294545 304.531488 
L 445.352727 305.54604 
L 449.410909 306.557568 
L 453.469091 307.566072 
L 457.527273 308.571552 
L 461.585455 309.570984 
L 465.643636 310.561344 
L 469.701818 311.539608 
L 473.76 312.499728 
L 477.818182 313.434144 
L 481.876364 314.329248 
L 485.934545 315.1548 
L 489.992727 315.866952 
L 494.050909 316.376496 
L 498.109091 316.567008 
" clip-path="url(#pa35fdc52a2)" style="fill: none; stroke: #000000; stroke-opacity: 0.5; stroke-linecap: square"/>
   </g>
   <g id="line2d_18">
    <path d="M 92.290909 217.050192 
L 96.349091 216.9882 
L 100.407273 216.809784 
L 104.465455 216.530064 
L 108.523636 216.173232 
L 112.581818 215.764992 
L 116.64 215.331048 
L 120.698182 214.898616 
L 124.756364 214.4934 
L 128.814545 214.1532 
L 132.872727 213.917328 
L 136.930909 213.826608 
L 140.989091 213.89616 
L 145.047273 214.112376 
L 149.105455 214.44048 
L 153.163636 214.84872 
L 157.221818 215.315928 
L 161.28 215.825472 
L 165.338182 216.36828 
L 169.396364 216.936792 
L 173.454545 217.527984 
L 177.512727 218.13732 
L 181.570909 218.761776 
L 185.629091 219.39984 
L 189.687273 220.046976 
L 193.745455 220.704696 
L 197.803636 221.371488 
L 201.861818 222.042816 
L 205.92 222.721704 
L 209.978182 223.403616 
L 214.036364 224.091576 
L 218.094545 224.781048 
L 222.152727 225.473544 
L 226.210909 226.167552 
L 230.269091 226.864584 
L 234.327273 227.561616 
L 238.385455 228.26016 
L 242.443636 228.958704 
L 246.501818 229.657248 
L 250.56 230.355792 
L 254.618182 231.054336 
L 258.676364 231.75288 
L 262.734545 232.449912 
L 266.792727 233.146944 
L 270.850909 233.843976 
L 274.909091 234.541008 
L 278.967273 235.236528 
L 283.025455 235.930536 
L 287.083636 236.624544 
L 291.141818 237.318552 
L 295.2 238.011048 
L 299.258182 238.702032 
L 303.316364 239.391504 
L 307.374545 240.080976 
L 311.432727 240.767424 
L 315.490909 241.450848 
L 319.549091 242.13276 
L 323.607273 242.811648 
L 327.665455 243.486 
L 331.723636 244.157328 
L 335.781818 244.822608 
L 339.84 245.483352 
L 343.898182 246.136536 
L 347.956364 246.78216 
L 352.014545 247.420224 
L 356.072727 248.049216 
L 360.130909 248.667624 
L 364.189091 249.27696 
L 368.247273 249.8742 
L 372.305455 250.457832 
L 376.363636 251.03088 
L 380.421818 251.588808 
L 384.48 252.131616 
L 388.538182 252.660816 
L 392.596364 253.173384 
L 396.654545 253.66932 
L 400.712727 254.150136 
L 404.770909 254.612808 
L 408.829091 255.057336 
L 412.887273 255.485232 
L 416.945455 255.893472 
L 421.003636 256.283568 
L 425.061818 256.654008 
L 429.12 257.006304 
L 433.178182 257.338944 
L 437.236364 257.651928 
L 441.294545 257.945256 
L 445.352727 258.218928 
L 449.410909 258.472944 
L 453.469091 258.705792 
L 457.527273 258.918984 
L 461.585455 259.11252 
L 465.643636 259.2864 
L 469.701818 259.439112 
L 473.76 259.570656 
L 477.818182 259.682544 
L 481.876364 259.774776 
L 485.934545 259.84584 
L 489.992727 259.897248 
L 494.050909 259.927488 
L 498.109091 259.938072 
" clip-path="url(#pa35fdc52a2)" style="fill: none; stroke: #000000; stroke-opacity: 0.5; stroke-linecap: square"/>
   </g>
   <g id="line2d_19">
    <path d="M 92.290909 209.243736 
L 96.349091 209.263392 
L 100.407273 209.32236 
L 104.465455 209.419128 
L 108.523636 209.550672 
L 112.581818 209.712456 
L 116.64 209.89692 
L 120.698182 210.096504 
L 124.756364 210.291552 
L 128.814545 210.460896 
L 132.872727 210.571272 
L 136.930909 210.587904 
L 140.989091 210.50172 
L 145.047273 210.329352 
L 149.105455 210.113136 
L 153.163636 209.884824 
L 157.221818 209.67012 
L 161.28 209.487168 
L 165.338182 209.348064 
L 169.396364 209.258856 
L 173.454545 209.227104 
L 177.512727 209.25432 
L 181.570909 209.342016 
L 185.629091 209.493216 
L 189.687273 209.706408 
L 193.745455 209.978568 
L 197.803636 210.309696 
L 201.861818 210.695256 
L 205.92 211.133736 
L 209.978182 211.6206 
L 214.036364 212.152824 
L 218.094545 212.725872 
L 222.152727 213.33672 
L 226.210909 213.982344 
L 230.269091 214.656696 
L 234.327273 215.356752 
L 238.385455 216.081 
L 242.443636 216.823392 
L 246.501818 217.583928 
L 250.56 218.358072 
L 254.618182 219.1428 
L 258.676364 219.9366 
L 262.734545 220.736448 
L 266.792727 221.53932 
L 270.850909 222.343704 
L 274.909091 223.146576 
L 278.967273 223.947936 
L 283.025455 224.746272 
L 287.083636 225.537048 
L 291.141818 226.320264 
L 295.2 227.094408 
L 299.258182 227.857968 
L 303.316364 228.609432 
L 307.374545 229.3488 
L 311.432727 230.073048 
L 315.490909 230.783688 
L 319.549091 231.479208 
L 323.607273 232.156584 
L 327.665455 232.81884 
L 331.723636 233.462952 
L 335.781818 234.090432 
L 339.84 234.698256 
L 343.898182 235.289448 
L 347.956364 235.862496 
L 352.014545 236.4174 
L 356.072727 236.955672 
L 360.130909 237.474288 
L 364.189091 237.97476 
L 368.247273 238.4586 
L 372.305455 238.925808 
L 376.363636 239.374872 
L 380.421818 239.807304 
L 384.48 240.223104 
L 388.538182 240.622272 
L 392.596364 241.004808 
L 396.654545 241.370712 
L 400.712727 241.721496 
L 404.770909 242.05716 
L 408.829091 242.377704 
L 412.887273 242.681616 
L 416.945455 242.970408 
L 421.003636 243.245592 
L 425.061818 243.504144 
L 429.12 243.749088 
L 433.178182 243.978912 
L 437.236364 244.195128 
L 441.294545 244.396224 
L 445.352727 244.583712 
L 449.410909 244.75608 
L 453.469091 244.91484 
L 457.527273 245.059992 
L 461.585455 245.190024 
L 465.643636 245.306448 
L 469.701818 245.410776 
L 473.76 245.498472 
L 477.818182 245.574072 
L 481.876364 245.636064 
L 485.934545 245.684448 
L 489.992727 245.717712 
L 494.050909 245.73888 
L 498.109091 245.74644 
" clip-path="url(#pa35fdc52a2)" style="fill: none; stroke: #000000; stroke-opacity: 0.5; stroke-linecap: square"/>
   </g>
   <g id="line2d_20">
    <path d="M 92.290909 167.917752 
L 96.349091 167.898096 
L 100.407273 167.842152 
L 104.465455 167.752944 
L 108.523636 167.631984 
L 112.581818 167.483808 
L 116.64 167.317488 
L 120.698182 167.142096 
L 124.756364 166.969728 
L 128.814545 166.813992 
L 132.872727 166.690008 
L 136.930909 166.612896 
L 140.989091 166.588704 
L 145.047273 166.618944 
L 149.105455 166.690008 
L 153.163636 166.788288 
L 157.221818 166.894128 
L 161.28 166.992408 
L 165.338182 167.071032 
L 169.396364 167.119416 
L 173.454545 167.128488 
L 177.512727 167.098248 
L 181.570909 167.02416 
L 185.629091 166.91076 
L 189.687273 166.758048 
L 193.745455 166.575096 
L 197.803636 166.369464 
L 201.861818 166.151736 
L 205.92 165.937032 
L 209.978182 165.741984 
L 214.036364 165.5802 
L 218.094545 165.471336 
L 222.152727 165.424464 
L 226.210909 165.447144 
L 230.269091 165.5424 
L 234.327273 165.702672 
L 238.385455 165.921912 
L 242.443636 166.19256 
L 246.501818 166.505544 
L 250.56 166.853304 
L 254.618182 167.226768 
L 258.676364 167.624424 
L 262.734545 168.038712 
L 266.792727 168.46812 
L 270.850909 168.9066 
L 274.909091 169.355664 
L 278.967273 169.809264 
L 283.025455 170.2674 
L 287.083636 170.72856 
L 291.141818 171.191232 
L 295.2 171.653904 
L 299.258182 172.116576 
L 303.316364 172.577736 
L 307.374545 173.037384 
L 311.432727 173.492496 
L 315.490909 173.946096 
L 319.549091 174.393648 
L 323.607273 174.838176 
L 327.665455 175.276656 
L 331.723636 175.709088 
L 335.781818 176.135472 
L 339.84 176.555808 
L 343.898182 176.970096 
L 347.956364 177.376824 
L 352.014545 177.775992 
L 356.072727 178.1676 
L 360.130909 178.550136 
L 364.189091 178.925112 
L 368.247273 179.292528 
L 372.305455 179.64936 
L 376.363636 179.998632 
L 380.421818 180.33732 
L 384.48 180.666936 
L 388.538182 180.98748 
L 392.596364 181.29744 
L 396.654545 181.598328 
L 400.712727 181.88712 
L 404.770909 182.16684 
L 408.829091 182.435976 
L 412.887273 182.693016 
L 416.945455 182.939472 
L 421.003636 183.175344 
L 425.061818 183.400632 
L 429.12 183.612312 
L 433.178182 183.81492 
L 437.236364 184.00392 
L 441.294545 184.182336 
L 445.352727 184.348656 
L 449.410909 184.50288 
L 453.469091 184.645008 
L 457.527273 184.776552 
L 461.585455 184.894488 
L 465.643636 185.000328 
L 469.701818 185.094072 
L 473.76 185.174208 
L 477.818182 185.24376 
L 481.876364 185.299704 
L 485.934545 185.343552 
L 489.992727 185.375304 
L 494.050909 185.393448 
L 498.109091 185.399496 
" clip-path="url(#pa35fdc52a2)" style="fill: none; stroke: #000000; stroke-opacity: 0.5; stroke-linecap: square"/>
   </g>
   <g id="line2d_21">
    <path d="M 92.290909 157.288392 
L 96.349091 157.367016 
L 100.407273 157.587768 
L 104.465455 157.911336 
L 108.523636 158.29992 
L 112.581818 158.721768 
L 116.64 159.14664 
L 120.698182 159.55488 
L 124.756364 159.920784 
L 128.814545 160.224696 
L 132.872727 160.445448 
L 136.930909 160.563384 
L 140.989091 160.569432 
L 145.047273 160.460568 
L 149.105455 160.248888 
L 153.163636 159.949512 
L 157.221818 159.58512 
L 161.28 159.175368 
L 165.338182 158.747472 
L 169.396364 158.3226 
L 173.454545 157.932504 
L 177.512727 157.602888 
L 181.570909 157.357944 
L 185.629091 157.208256 
L 189.687273 157.144752 
L 193.745455 157.144752 
L 197.803636 157.182552 
L 201.861818 157.230936 
L 205.92 157.2642 
L 209.978182 157.261176 
L 214.036364 157.200696 
L 218.094545 157.064616 
L 222.152727 156.839328 
L 226.210909 156.520296 
L 230.269091 156.104496 
L 234.327273 155.601 
L 238.385455 155.015856 
L 242.443636 154.36116 
L 246.501818 153.647496 
L 250.56 152.882424 
L 254.618182 152.07804 
L 258.676364 151.241904 
L 262.734545 150.380064 
L 266.792727 149.50008 
L 270.850909 148.614048 
L 274.909091 147.729528 
L 278.967273 146.86164 
L 283.025455 146.034576 
L 287.083636 145.284624 
L 291.141818 144.672264 
L 295.2 144.286704 
L 299.258182 144.209592 
L 303.316364 144.445464 
L 307.374545 144.917208 
L 311.432727 145.534104 
L 315.490909 146.232648 
L 319.549091 146.972016 
L 323.607273 147.732552 
L 327.665455 148.500648 
L 331.723636 149.26572 
L 335.781818 150.024744 
L 339.84 150.773184 
L 343.898182 151.509528 
L 347.956364 152.230752 
L 352.014545 152.936856 
L 356.072727 153.626328 
L 360.130909 154.297656 
L 364.189091 154.95084 
L 368.247273 155.58588 
L 372.305455 156.201264 
L 376.363636 156.798504 
L 380.421818 157.374576 
L 384.48 157.932504 
L 388.538182 158.470776 
L 392.596364 158.989392 
L 396.654545 159.488352 
L 400.712727 159.966144 
L 404.770909 160.425792 
L 408.829091 160.864272 
L 412.887273 161.283096 
L 416.945455 161.682264 
L 421.003636 162.061776 
L 425.061818 162.421632 
L 429.12 162.761832 
L 433.178182 163.082376 
L 437.236364 163.383264 
L 441.294545 163.662984 
L 445.352727 163.92456 
L 449.410909 164.16648 
L 453.469091 164.388744 
L 457.527273 164.591352 
L 461.585455 164.774304 
L 465.643636 164.939112 
L 469.701818 165.082752 
L 473.76 165.208248 
L 477.818182 165.314088 
L 481.876364 165.400272 
L 485.934545 165.468312 
L 489.992727 165.516696 
L 494.050909 165.545424 
L 498.109091 165.554496 
" clip-path="url(#pa35fdc52a2)" style="fill: none; stroke: #000000; stroke-opacity: 0.5; stroke-linecap: square"/>
   </g>
   <g id="line2d_22">
    <path d="M 92.290909 153.565848 
L 96.349091 153.51444 
L 100.407273 153.376848 
L 104.465455 153.186336 
L 108.523636 152.97768 
L 112.581818 152.77356 
L 116.64 152.59212 
L 120.698182 152.442432 
L 124.756364 152.330544 
L 128.814545 152.256456 
L 132.872727 152.220168 
L 136.930909 152.218656 
L 140.989091 152.248896 
L 145.047273 152.307864 
L 149.105455 152.386488 
L 153.163636 152.480232 
L 157.221818 152.578512 
L 161.28 152.672256 
L 165.338182 152.744832 
L 169.396364 152.778096 
L 173.454545 152.749368 
L 177.512727 152.628408 
L 181.570909 152.39556 
L 185.629091 152.037216 
L 189.687273 151.560936 
L 193.745455 150.98184 
L 197.803636 150.321096 
L 201.861818 149.595336 
L 205.92 148.81968 
L 209.978182 148.0032 
L 214.036364 147.154968 
L 218.094545 146.27952 
L 222.152727 145.37988 
L 226.210909 144.460584 
L 230.269091 143.523144 
L 234.327273 142.569072 
L 238.385455 141.602904 
L 242.443636 140.623128 
L 246.501818 139.63428 
L 250.56 138.63636 
L 254.618182 137.63844 
L 258.676364 136.64808 
L 262.734545 135.697032 
L 266.792727 134.897184 
L 270.850909 134.647704 
L 274.909091 135.142128 
L 278.967273 135.890568 
L 283.025455 136.65564 
L 287.083636 137.346624 
L 291.141818 137.889432 
L 295.2 138.187296 
L 299.258182 138.157056 
L 303.316364 137.791152 
L 307.374545 137.166696 
L 311.432727 136.374408 
L 315.490909 135.477792 
L 319.549091 134.51616 
L 323.607273 133.51068 
L 327.665455 132.47496 
L 331.723636 131.41656 
L 335.781818 130.340016 
L 339.84 129.251376 
L 343.898182 128.15064 
L 347.956364 127.03932 
L 352.014545 125.92044 
L 356.072727 124.794 
L 360.130909 123.66 
L 364.189091 122.51844 
L 368.247273 121.372344 
L 372.305455 120.218688 
L 376.363636 119.058984 
L 380.421818 117.893232 
L 384.48 116.722944 
L 388.538182 115.545096 
L 392.596364 114.362712 
L 396.654545 113.172768 
L 400.712727 111.978288 
L 404.770909 110.77776 
L 408.829091 109.571184 
L 412.887273 108.360072 
L 416.945455 107.1414 
L 421.003636 105.91668 
L 425.061818 104.687424 
L 429.12 103.45212 
L 433.178182 102.21228 
L 437.236364 100.966392 
L 441.294545 99.714456 
L 445.352727 98.459496 
L 449.410909 97.2 
L 453.469091 95.935968 
L 457.527273 94.670424 
L 461.585455 93.403368 
L 465.643636 92.137824 
L 469.701818 90.873792 
L 473.76 89.61732 
L 477.818182 88.375968 
L 481.876364 87.158808 
L 485.934545 85.993056 
L 489.992727 84.928608 
L 494.050909 84.092472 
L 498.109091 83.746224 
" clip-path="url(#pa35fdc52a2)" style="fill: none; stroke: #000000; stroke-opacity: 0.5; stroke-linecap: square"/>
   </g>
   <g id="line2d_23">
    <path d="M 92.290909 135.152712 
L 96.349091 135.108864 
L 100.407273 134.97732 
L 104.465455 134.759592 
L 108.523636 134.458704 
L 112.581818 134.074656 
L 116.64 133.615008 
L 120.698182 133.081272 
L 124.756364 132.48252 
L 128.814545 131.820264 
L 132.872727 131.105088 
L 136.930909 130.341528 
L 140.989091 129.537144 
L 145.047273 128.701008 
L 149.105455 127.836144 
L 153.163636 126.954648 
L 157.221818 126.062568 
L 161.28 125.168976 
L 165.338182 124.284456 
L 169.396364 123.41808 
L 173.454545 122.58648 
L 177.512727 121.804776 
L 181.570909 121.094136 
L 185.629091 120.478752 
L 189.687273 119.984328 
L 193.745455 119.639592 
L 197.803636 119.467224 
L 201.861818 119.480832 
L 205.92 119.681928 
L 209.978182 120.056904 
L 214.036364 120.584592 
L 218.094545 121.239288 
L 222.152727 121.993776 
L 226.210909 122.8284 
L 230.269091 123.721992 
L 234.327273 124.660944 
L 238.385455 125.631648 
L 242.443636 126.622008 
L 246.501818 127.625976 
L 250.56 128.629944 
L 254.618182 129.627864 
L 258.676364 130.60008 
L 262.734545 131.511816 
L 266.792727 132.245136 
L 270.850909 132.396336 
L 274.909091 131.759784 
L 278.967273 130.81176 
L 283.025455 129.771504 
L 287.083636 128.6874 
L 291.141818 127.579104 
L 295.2 126.452664 
L 299.258182 125.311104 
L 303.316364 124.155936 
L 307.374545 122.988672 
L 311.432727 121.810824 
L 315.490909 120.62088 
L 319.549091 119.420352 
L 323.607273 118.210752 
L 327.665455 116.990568 
L 331.723636 115.761312 
L 335.781818 114.521472 
L 339.84 113.274072 
L 343.898182 112.0176 
L 347.956364 110.753568 
L 352.014545 109.480464 
L 356.072727 108.201312 
L 360.130909 106.913088 
L 364.189091 105.618816 
L 368.247273 104.316984 
L 372.305455 103.009104 
L 376.363636 101.695176 
L 380.421818 100.376712 
L 384.48 99.050688 
L 388.538182 97.72164 
L 392.596364 96.386544 
L 396.654545 95.048424 
L 400.712727 93.705768 
L 404.770909 92.3616 
L 408.829091 91.014408 
L 412.887273 89.665704 
L 416.945455 88.317 
L 421.003636 86.969808 
L 425.061818 85.62564 
L 429.12 84.28752 
L 433.178182 82.95696 
L 437.236364 81.640008 
L 441.294545 80.342712 
L 445.352727 79.075656 
L 449.410909 77.85396 
L 453.469091 76.707864 
L 457.527273 75.681216 
L 461.585455 74.854152 
L 465.643636 74.344608 
L 469.701818 74.267496 
L 473.76 74.6334 
L 477.818182 75.331944 
L 481.876364 76.227048 
L 485.934545 77.2038 
L 489.992727 78.157872 
L 494.050909 78.938064 
L 498.109091 79.264656 
" clip-path="url(#pa35fdc52a2)" style="fill: none; stroke: #000000; stroke-opacity: 0.5; stroke-linecap: square"/>
   </g>
   <g id="patch_3">
    <path d="M 72 384.48 
L 72 51.84 
" style="fill: none; stroke: #000000; stroke-width: 0.8; stroke-linejoin: miter; stroke-linecap: square"/>
   </g>
   <g id="patch_4">
    <path d="M 518.4 384.48 
L 518.4 51.84 
" style="fill: none; stroke: #000000; stroke-width: 0.8; stroke-linejoin: miter; stroke-linecap: square"/>
   </g>
   <g id="patch_5">
    <path d="M 72 384.48 
L 518.4 384.48 
" style="fill: none; stroke: #000000; stroke-width: 0.8; stroke-linejoin: miter; stroke-linecap: square"/>
   </g>
   <g id="patch_6">
    <path d="M 72 51.84 
L 518.4 51.84 
" style="fill: none; stroke: #000000; stroke-width: 0.8; stroke-linejoin: miter; stroke-linecap: square"/>
   </g>
  </g>
 </g>
 <defs>
  <clipPath id="pa35fdc52a2">
   <rect x="72" y="51.84" width="446.4" height="332.64"/>
  </clipPath>
 </defs>
</svg>
