<?xml version="1.0" encoding="utf-8" standalone="no"?>
<!DOCTYPE svg PUBLIC "-//W3C//DTD SVG 1.1//EN"
  "http://www.w3.org/Graphics/SVG/1.1/DTD/svg11.dtd">
<svg xmlns:xlink="http://www.w3.org/1999/xlink" width="576pt" height="432pt" viewBox="0 0 576 432" xmlns="http://www.w3.org/2000/svg" version="1.1">
 <metadata>
  <rdf:RDF xmlns:dc="http://purl.org/dc/elements/1.1/" xmlns:cc="http://creativecommons.org/ns#" xmlns:rdf="http://www.w3.org/1999/02/22-rdf-syntax-ns#">
   <cc:Work>
    <dc:type rdf:resource="http://purl.org/dc/dcmitype/StillImage"/>
    <dc:date>2023-05-04T11:37:30.217075</dc:date>
    <dc:format>image/svg+xml</dc:format>
    <dc:creator>
     <cc:Agent>
      <dc:title>Matplotlib v3.7.1, https://matplotlib.org/</dc:title>
     </cc:Agent>
    </dc:creator>
   </cc:Work>
  </rdf:RDF>
 </metadata>
 <defs>
  <style type="text/css">*{stroke-linejoin: round; stroke-linecap: butt}</style>
 </defs>
 <g id="figure_1">
  <g id="patch_1">
   <path d="M 0 432 
L 576 432 
L 576 0 
L 0 0 
z
" style="fill: #ffffff"/>
  </g>
  <g id="axes_1">
   <g id="patch_2">
    <path d="M 72 384.48 
L 518.4 384.48 
L 518.4 51.84 
L 72 51.84 
z
" style="fill: #ffffff"/>
   </g>
   <g id="matplotlib.axis_1">
    <g id="xtick_1">
     <g id="line2d_1">
      <defs>
       <path id="m80d0fb7446" d="M 0 0 
L 0 3.5 
" style="stroke: #000000; stroke-width: 0.8"/>
      </defs>
      <g>
       <use xlink:href="#m80d0fb7446" x="92.290909" y="384.48" style="stroke: #000000; stroke-width: 0.8"/>
      </g>
     </g>
     <g id="text_1">
      <!-- 0.0 -->
      <g transform="translate(84.339347 399.078438) scale(0.1 -0.1)">
       <defs>
        <path id="DejaVuSans-30" d="M 2034 4250 
Q 1547 4250 1301 3770 
Q 1056 3291 1056 2328 
Q 1056 1369 1301 889 
Q 1547 409 2034 409 
Q 2525 409 2770 889 
Q 3016 1369 3016 2328 
Q 3016 3291 2770 3770 
Q 2525 4250 2034 4250 
z
M 2034 4750 
Q 2819 4750 3233 4129 
Q 3647 3509 3647 2328 
Q 3647 1150 3233 529 
Q 2819 -91 2034 -91 
Q 1250 -91 836 529 
Q 422 1150 422 2328 
Q 422 3509 836 4129 
Q 1250 4750 2034 4750 
z
" transform="scale(0.015625)"/>
        <path id="DejaVuSans-2e" d="M 684 794 
L 1344 794 
L 1344 0 
L 684 0 
L 684 794 
z
" transform="scale(0.015625)"/>
       </defs>
       <use xlink:href="#DejaVuSans-30"/>
       <use xlink:href="#DejaVuSans-2e" x="63.623047"/>
       <use xlink:href="#DejaVuSans-30" x="95.410156"/>
      </g>
     </g>
    </g>
    <g id="xtick_2">
     <g id="line2d_2">
      <g>
       <use xlink:href="#m80d0fb7446" x="173.454545" y="384.48" style="stroke: #000000; stroke-width: 0.8"/>
      </g>
     </g>
     <g id="text_2">
      <!-- 0.2 -->
      <g transform="translate(165.502983 399.078438) scale(0.1 -0.1)">
       <defs>
        <path id="DejaVuSans-32" d="M 1228 531 
L 3431 531 
L 3431 0 
L 469 0 
L 469 531 
Q 828 903 1448 1529 
Q 2069 2156 2228 2338 
Q 2531 2678 2651 2914 
Q 2772 3150 2772 3378 
Q 2772 3750 2511 3984 
Q 2250 4219 1831 4219 
Q 1534 4219 1204 4116 
Q 875 4013 500 3803 
L 500 4441 
Q 881 4594 1212 4672 
Q 1544 4750 1819 4750 
Q 2544 4750 2975 4387 
Q 3406 4025 3406 3419 
Q 3406 3131 3298 2873 
Q 3191 2616 2906 2266 
Q 2828 2175 2409 1742 
Q 1991 1309 1228 531 
z
" transform="scale(0.015625)"/>
       </defs>
       <use xlink:href="#DejaVuSans-30"/>
       <use xlink:href="#DejaVuSans-2e" x="63.623047"/>
       <use xlink:href="#DejaVuSans-32" x="95.410156"/>
      </g>
     </g>
    </g>
    <g id="xtick_3">
     <g id="line2d_3">
      <g>
       <use xlink:href="#m80d0fb7446" x="254.618182" y="384.48" style="stroke: #000000; stroke-width: 0.8"/>
      </g>
     </g>
     <g id="text_3">
      <!-- 0.4 -->
      <g transform="translate(246.666619 399.078438) scale(0.1 -0.1)">
       <defs>
        <path id="DejaVuSans-34" d="M 2419 4116 
L 825 1625 
L 2419 1625 
L 2419 4116 
z
M 2253 4666 
L 3047 4666 
L 3047 1625 
L 3713 1625 
L 3713 1100 
L 3047 1100 
L 3047 0 
L 2419 0 
L 2419 1100 
L 313 1100 
L 313 1709 
L 2253 4666 
z
" transform="scale(0.015625)"/>
       </defs>
       <use xlink:href="#DejaVuSans-30"/>
       <use xlink:href="#DejaVuSans-2e" x="63.623047"/>
       <use xlink:href="#DejaVuSans-34" x="95.410156"/>
      </g>
     </g>
    </g>
    <g id="xtick_4">
     <g id="line2d_4">
      <g>
       <use xlink:href="#m80d0fb7446" x="335.781818" y="384.48" style="stroke: #000000; stroke-width: 0.8"/>
      </g>
     </g>
     <g id="text_4">
      <!-- 0.6 -->
      <g transform="translate(327.830256 399.078438) scale(0.1 -0.1)">
       <defs>
        <path id="DejaVuSans-36" d="M 2113 2584 
Q 1688 2584 1439 2293 
Q 1191 2003 1191 1497 
Q 1191 994 1439 701 
Q 1688 409 2113 409 
Q 2538 409 2786 701 
Q 3034 994 3034 1497 
Q 3034 2003 2786 2293 
Q 2538 2584 2113 2584 
z
M 3366 4563 
L 3366 3988 
Q 3128 4100 2886 4159 
Q 2644 4219 2406 4219 
Q 1781 4219 1451 3797 
Q 1122 3375 1075 2522 
Q 1259 2794 1537 2939 
Q 1816 3084 2150 3084 
Q 2853 3084 3261 2657 
Q 3669 2231 3669 1497 
Q 3669 778 3244 343 
Q 2819 -91 2113 -91 
Q 1303 -91 875 529 
Q 447 1150 447 2328 
Q 447 3434 972 4092 
Q 1497 4750 2381 4750 
Q 2619 4750 2861 4703 
Q 3103 4656 3366 4563 
z
" transform="scale(0.015625)"/>
       </defs>
       <use xlink:href="#DejaVuSans-30"/>
       <use xlink:href="#DejaVuSans-2e" x="63.623047"/>
       <use xlink:href="#DejaVuSans-36" x="95.410156"/>
      </g>
     </g>
    </g>
    <g id="xtick_5">
     <g id="line2d_5">
      <g>
       <use xlink:href="#m80d0fb7446" x="416.945455" y="384.48" style="stroke: #000000; stroke-width: 0.8"/>
      </g>
     </g>
     <g id="text_5">
      <!-- 0.8 -->
      <g transform="translate(408.993892 399.078438) scale(0.1 -0.1)">
       <defs>
        <path id="DejaVuSans-38" d="M 2034 2216 
Q 1584 2216 1326 1975 
Q 1069 1734 1069 1313 
Q 1069 891 1326 650 
Q 1584 409 2034 409 
Q 2484 409 2743 651 
Q 3003 894 3003 1313 
Q 3003 1734 2745 1975 
Q 2488 2216 2034 2216 
z
M 1403 2484 
Q 997 2584 770 2862 
Q 544 3141 544 3541 
Q 544 4100 942 4425 
Q 1341 4750 2034 4750 
Q 2731 4750 3128 4425 
Q 3525 4100 3525 3541 
Q 3525 3141 3298 2862 
Q 3072 2584 2669 2484 
Q 3125 2378 3379 2068 
Q 3634 1759 3634 1313 
Q 3634 634 3220 271 
Q 2806 -91 2034 -91 
Q 1263 -91 848 271 
Q 434 634 434 1313 
Q 434 1759 690 2068 
Q 947 2378 1403 2484 
z
M 1172 3481 
Q 1172 3119 1398 2916 
Q 1625 2713 2034 2713 
Q 2441 2713 2670 2916 
Q 2900 3119 2900 3481 
Q 2900 3844 2670 4047 
Q 2441 4250 2034 4250 
Q 1625 4250 1398 4047 
Q 1172 3844 1172 3481 
z
" transform="scale(0.015625)"/>
       </defs>
       <use xlink:href="#DejaVuSans-30"/>
       <use xlink:href="#DejaVuSans-2e" x="63.623047"/>
       <use xlink:href="#DejaVuSans-38" x="95.410156"/>
      </g>
     </g>
    </g>
    <g id="xtick_6">
     <g id="line2d_6">
      <g>
       <use xlink:href="#m80d0fb7446" x="498.109091" y="384.48" style="stroke: #000000; stroke-width: 0.8"/>
      </g>
     </g>
     <g id="text_6">
      <!-- 1.0 -->
      <g transform="translate(490.157528 399.078438) scale(0.1 -0.1)">
       <defs>
        <path id="DejaVuSans-31" d="M 794 531 
L 1825 531 
L 1825 4091 
L 703 3866 
L 703 4441 
L 1819 4666 
L 2450 4666 
L 2450 531 
L 3481 531 
L 3481 0 
L 794 0 
L 794 531 
z
" transform="scale(0.015625)"/>
       </defs>
       <use xlink:href="#DejaVuSans-31"/>
       <use xlink:href="#DejaVuSans-2e" x="63.623047"/>
       <use xlink:href="#DejaVuSans-30" x="95.410156"/>
      </g>
     </g>
    </g>
   </g>
   <g id="matplotlib.axis_2">
    <g id="ytick_1">
     <g id="line2d_7">
      <defs>
       <path id="m8efec14722" d="M 0 0 
L -3.5 0 
" style="stroke: #000000; stroke-width: 0.8"/>
      </defs>
      <g>
       <use xlink:href="#m8efec14722" x="72" y="369.36" style="stroke: #000000; stroke-width: 0.8"/>
      </g>
     </g>
     <g id="text_7">
      <!-- −5.0 -->
      <g transform="translate(40.717187 373.159219) scale(0.1 -0.1)">
       <defs>
        <path id="DejaVuSans-2212" d="M 678 2272 
L 4684 2272 
L 4684 1741 
L 678 1741 
L 678 2272 
z
" transform="scale(0.015625)"/>
        <path id="DejaVuSans-35" d="M 691 4666 
L 3169 4666 
L 3169 4134 
L 1269 4134 
L 1269 2991 
Q 1406 3038 1543 3061 
Q 1681 3084 1819 3084 
Q 2600 3084 3056 2656 
Q 3513 2228 3513 1497 
Q 3513 744 3044 326 
Q 2575 -91 1722 -91 
Q 1428 -91 1123 -41 
Q 819 9 494 109 
L 494 744 
Q 775 591 1075 516 
Q 1375 441 1709 441 
Q 2250 441 2565 725 
Q 2881 1009 2881 1497 
Q 2881 1984 2565 2268 
Q 2250 2553 1709 2553 
Q 1456 2553 1204 2497 
Q 953 2441 691 2322 
L 691 4666 
z
" transform="scale(0.015625)"/>
       </defs>
       <use xlink:href="#DejaVuSans-2212"/>
       <use xlink:href="#DejaVuSans-35" x="83.789062"/>
       <use xlink:href="#DejaVuSans-2e" x="147.412109"/>
       <use xlink:href="#DejaVuSans-30" x="179.199219"/>
      </g>
     </g>
    </g>
    <g id="ytick_2">
     <g id="line2d_8">
      <g>
       <use xlink:href="#m8efec14722" x="72" y="331.56" style="stroke: #000000; stroke-width: 0.8"/>
      </g>
     </g>
     <g id="text_8">
      <!-- −2.5 -->
      <g transform="translate(40.717187 335.359219) scale(0.1 -0.1)">
       <use xlink:href="#DejaVuSans-2212"/>
       <use xlink:href="#DejaVuSans-32" x="83.789062"/>
       <use xlink:href="#DejaVuSans-2e" x="147.412109"/>
       <use xlink:href="#DejaVuSans-35" x="179.199219"/>
      </g>
     </g>
    </g>
    <g id="ytick_3">
     <g id="line2d_9">
      <g>
       <use xlink:href="#m8efec14722" x="72" y="293.76" style="stroke: #000000; stroke-width: 0.8"/>
      </g>
     </g>
     <g id="text_9">
      <!-- 0.0 -->
      <g transform="translate(49.096875 297.559219) scale(0.1 -0.1)">
       <use xlink:href="#DejaVuSans-30"/>
       <use xlink:href="#DejaVuSans-2e" x="63.623047"/>
       <use xlink:href="#DejaVuSans-30" x="95.410156"/>
      </g>
     </g>
    </g>
    <g id="ytick_4">
     <g id="line2d_10">
      <g>
       <use xlink:href="#m8efec14722" x="72" y="255.96" style="stroke: #000000; stroke-width: 0.8"/>
      </g>
     </g>
     <g id="text_10">
      <!-- 2.5 -->
      <g transform="translate(49.096875 259.759219) scale(0.1 -0.1)">
       <use xlink:href="#DejaVuSans-32"/>
       <use xlink:href="#DejaVuSans-2e" x="63.623047"/>
       <use xlink:href="#DejaVuSans-35" x="95.410156"/>
      </g>
     </g>
    </g>
    <g id="ytick_5">
     <g id="line2d_11">
      <g>
       <use xlink:href="#m8efec14722" x="72" y="218.16" style="stroke: #000000; stroke-width: 0.8"/>
      </g>
     </g>
     <g id="text_11">
      <!-- 5.0 -->
      <g transform="translate(49.096875 221.959219) scale(0.1 -0.1)">
       <use xlink:href="#DejaVuSans-35"/>
       <use xlink:href="#DejaVuSans-2e" x="63.623047"/>
       <use xlink:href="#DejaVuSans-30" x="95.410156"/>
      </g>
     </g>
    </g>
    <g id="ytick_6">
     <g id="line2d_12">
      <g>
       <use xlink:href="#m8efec14722" x="72" y="180.36" style="stroke: #000000; stroke-width: 0.8"/>
      </g>
     </g>
     <g id="text_12">
      <!-- 7.5 -->
      <g transform="translate(49.096875 184.159219) scale(0.1 -0.1)">
       <defs>
        <path id="DejaVuSans-37" d="M 525 4666 
L 3525 4666 
L 3525 4397 
L 1831 0 
L 1172 0 
L 2766 4134 
L 525 4134 
L 525 4666 
z
" transform="scale(0.015625)"/>
       </defs>
       <use xlink:href="#DejaVuSans-37"/>
       <use xlink:href="#DejaVuSans-2e" x="63.623047"/>
       <use xlink:href="#DejaVuSans-35" x="95.410156"/>
      </g>
     </g>
    </g>
    <g id="ytick_7">
     <g id="line2d_13">
      <g>
       <use xlink:href="#m8efec14722" x="72" y="142.56" style="stroke: #000000; stroke-width: 0.8"/>
      </g>
     </g>
     <g id="text_13">
      <!-- 10.0 -->
      <g transform="translate(42.734375 146.359219) scale(0.1 -0.1)">
       <use xlink:href="#DejaVuSans-31"/>
       <use xlink:href="#DejaVuSans-30" x="63.623047"/>
       <use xlink:href="#DejaVuSans-2e" x="127.246094"/>
       <use xlink:href="#DejaVuSans-30" x="159.033203"/>
      </g>
     </g>
    </g>
    <g id="ytick_8">
     <g id="line2d_14">
      <g>
       <use xlink:href="#m8efec14722" x="72" y="104.76" style="stroke: #000000; stroke-width: 0.8"/>
      </g>
     </g>
     <g id="text_14">
      <!-- 12.5 -->
      <g transform="translate(42.734375 108.559219) scale(0.1 -0.1)">
       <use xlink:href="#DejaVuSans-31"/>
       <use xlink:href="#DejaVuSans-32" x="63.623047"/>
       <use xlink:href="#DejaVuSans-2e" x="127.246094"/>
       <use xlink:href="#DejaVuSans-35" x="159.033203"/>
      </g>
     </g>
    </g>
    <g id="ytick_9">
     <g id="line2d_15">
      <g>
       <use xlink:href="#m8efec14722" x="72" y="66.96" style="stroke: #000000; stroke-width: 0.8"/>
      </g>
     </g>
     <g id="text_15">
      <!-- 15.0 -->
      <g transform="translate(42.734375 70.759219) scale(0.1 -0.1)">
       <use xlink:href="#DejaVuSans-31"/>
       <use xlink:href="#DejaVuSans-35" x="63.623047"/>
       <use xlink:href="#DejaVuSans-2e" x="127.246094"/>
       <use xlink:href="#DejaVuSans-30" x="159.033203"/>
      </g>
     </g>
    </g>
   </g>
   <g id="line2d_16">
    <path d="M 92.290909 322.678512 
L 96.349091 322.755624 
L 100.407273 322.977888 
L 104.465455 323.32716 
L 108.523636 323.779248 
L 112.581818 324.311472 
L 116.64 324.905688 
L 120.698182 325.546776 
L 124.756364 326.22264 
L 128.814545 326.924208 
L 132.872727 327.646944 
L 136.930909 328.386312 
L 140.989091 329.136264 
L 145.047273 329.895288 
L 149.105455 330.661872 
L 153.163636 331.432992 
L 157.221818 332.207136 
L 161.28 332.982792 
L 165.338182 333.761472 
L 169.396364 334.53864 
L 173.454545 335.315808 
L 177.512727 336.091464 
L 181.570909 336.864096 
L 185.629091 337.635216 
L 189.687273 338.403312 
L 193.745455 339.166872 
L 197.803636 339.927408 
L 201.861818 340.683408 
L 205.92 341.43336 
L 209.978182 342.178776 
L 214.036364 342.918144 
L 218.094545 343.651464 
L 222.152727 344.380248 
L 226.210909 345.09996 
L 230.269091 345.815136 
L 234.327273 346.52124 
L 238.385455 347.221296 
L 242.443636 347.913792 
L 246.501818 348.598728 
L 250.56 349.276104 
L 254.618182 349.944408 
L 258.676364 350.605152 
L 262.734545 351.256824 
L 266.792727 351.899424 
L 270.850909 352.534464 
L 274.909091 353.15892 
L 278.967273 353.775816 
L 283.025455 354.382128 
L 287.083636 354.98088 
L 291.141818 355.567536 
L 295.2 356.146632 
L 299.258182 356.715144 
L 303.316364 357.273072 
L 307.374545 357.821928 
L 311.432727 358.3602 
L 315.490909 358.887888 
L 319.549091 359.404992 
L 323.607273 359.913024 
L 327.665455 360.40896 
L 331.723636 360.894312 
L 335.781818 361.370592 
L 339.84 361.834776 
L 343.898182 362.288376 
L 347.956364 362.72988 
L 352.014545 363.162312 
L 356.072727 363.582648 
L 360.130909 363.9924 
L 364.189091 364.390056 
L 368.247273 364.775616 
L 372.305455 365.152104 
L 376.363636 365.514984 
L 380.421818 365.868792 
L 384.48 366.208992 
L 388.538182 366.538608 
L 392.596364 366.856128 
L 396.654545 367.163064 
L 400.712727 367.456392 
L 404.770909 367.739136 
L 408.829091 368.011296 
L 412.887273 368.269848 
L 416.945455 368.517816 
L 421.003636 368.752176 
L 425.061818 368.975952 
L 429.12 369.187632 
L 433.178182 369.387216 
L 437.236364 369.574704 
L 441.294545 369.751608 
L 445.352727 369.914904 
L 449.410909 370.066104 
L 453.469091 370.20672 
L 457.527273 370.333728 
L 461.585455 370.44864 
L 465.643636 370.551456 
L 469.701818 370.643688 
L 473.76 370.722312 
L 477.818182 370.78884 
L 481.876364 370.843272 
L 485.934545 370.88712 
L 489.992727 370.91736 
L 494.050909 370.935504 
L 498.109091 370.941552 
" clip-path="url(#pc782f7f305)" style="fill: none; stroke: #000000; stroke-opacity: 0.5; stroke-linecap: square"/>
   </g>
   <g id="line2d_17">
    <path d="M 92.290909 313.860528 
L 96.349091 313.78644 
L 100.407273 313.571736 
L 104.465455 313.237584 
L 108.523636 312.80364 
L 112.581818 312.295608 
L 116.64 311.73012 
L 120.698182 311.12532 
L 124.756364 310.488768 
L 128.814545 309.829536 
L 132.872727 309.155184 
L 136.930909 308.470248 
L 140.989091 307.77624 
L 145.047273 307.076184 
L 149.105455 306.373104 
L 153.163636 305.668512 
L 157.221818 304.960896 
L 161.28 304.254792 
L 165.338182 303.548688 
L 169.396364 302.842584 
L 173.454545 302.137992 
L 177.512727 301.434912 
L 181.570909 300.733344 
L 185.629091 300.033288 
L 189.687273 299.334744 
L 193.745455 298.637712 
L 197.803636 297.942192 
L 201.861818 297.246672 
L 205.92 296.552664 
L 209.978182 295.860168 
L 214.036364 295.167672 
L 218.094545 294.475176 
L 222.152727 293.78268 
L 226.210909 293.090184 
L 230.269091 292.396176 
L 234.327273 291.70368 
L 238.385455 291.00816 
L 242.443636 290.311128 
L 246.501818 289.614096 
L 250.56 288.91404 
L 254.618182 288.21096 
L 258.676364 287.506368 
L 262.734545 286.798752 
L 266.792727 286.089624 
L 270.850909 285.37596 
L 274.909091 284.659272 
L 278.967273 283.93956 
L 283.025455 283.215312 
L 287.083636 282.48804 
L 291.141818 281.756232 
L 295.2 281.019888 
L 299.258182 280.28052 
L 303.316364 279.536616 
L 307.374545 278.786664 
L 311.432727 278.033688 
L 315.490909 277.276176 
L 319.549091 276.512616 
L 323.607273 275.746032 
L 327.665455 274.9734 
L 331.723636 274.197744 
L 335.781818 273.41604 
L 339.84 272.6298 
L 343.898182 271.839024 
L 347.956364 271.045224 
L 352.014545 270.245376 
L 356.072727 269.442504 
L 360.130909 268.635096 
L 364.189091 267.824664 
L 368.247273 267.011208 
L 372.305455 266.193216 
L 376.363636 265.3722 
L 380.421818 264.549672 
L 384.48 263.72412 
L 388.538182 262.895544 
L 392.596364 262.066968 
L 396.654545 261.238392 
L 400.712727 260.408304 
L 404.770909 259.579728 
L 408.829091 258.751152 
L 412.887273 257.9256 
L 416.945455 257.104584 
L 421.003636 256.286592 
L 425.061818 255.473136 
L 429.12 254.668752 
L 433.178182 253.871928 
L 437.236364 253.0872 
L 441.294545 252.314568 
L 445.352727 251.558568 
L 449.410909 250.822224 
L 453.469091 250.107048 
L 457.527273 249.4206 
L 461.585455 248.764392 
L 465.643636 248.147496 
L 469.701818 247.574448 
L 473.76 247.052808 
L 477.818182 246.590136 
L 481.876364 246.197016 
L 485.934545 245.877984 
L 489.992727 245.645136 
L 494.050909 245.503008 
L 498.109091 245.454624 
" clip-path="url(#pc782f7f305)" style="fill: none; stroke: #000000; stroke-opacity: 0.5; stroke-linecap: square"/>
   </g>
   <g id="line2d_18">
    <path d="M 92.290909 264.099096 
L 96.349091 264.093048 
L 100.407273 264.074904 
L 104.465455 264.044664 
L 108.523636 264.002328 
L 112.581818 263.947896 
L 116.64 263.881368 
L 120.698182 263.802744 
L 124.756364 263.712024 
L 128.814545 263.609208 
L 132.872727 263.494296 
L 136.930909 263.367288 
L 140.989091 263.228184 
L 145.047273 263.076984 
L 149.105455 262.9152 
L 153.163636 262.739808 
L 157.221818 262.553832 
L 161.28 262.35576 
L 165.338182 262.145592 
L 169.396364 261.923328 
L 173.454545 261.69048 
L 177.512727 261.445536 
L 181.570909 261.188496 
L 185.629091 260.91936 
L 189.687273 260.63964 
L 193.745455 260.347824 
L 197.803636 260.045424 
L 201.861818 259.730928 
L 205.92 259.405848 
L 209.978182 259.068672 
L 214.036364 258.7194 
L 218.094545 258.361056 
L 222.152727 257.989104 
L 226.210909 257.60808 
L 230.269091 257.216472 
L 234.327273 256.812768 
L 238.385455 256.39848 
L 242.443636 255.973608 
L 246.501818 255.538152 
L 250.56 255.092112 
L 254.618182 254.635488 
L 258.676364 254.169792 
L 262.734545 253.693512 
L 266.792727 253.206648 
L 270.850909 252.7092 
L 274.909091 252.204192 
L 278.967273 251.687088 
L 283.025455 251.162424 
L 287.083636 250.627176 
L 291.141818 250.084368 
L 295.2 249.530976 
L 299.258182 248.970024 
L 303.316364 248.4 
L 307.374545 247.822416 
L 311.432727 247.23576 
L 315.490909 246.643056 
L 319.549091 246.04128 
L 323.607273 245.431944 
L 327.665455 244.81656 
L 331.723636 244.195128 
L 335.781818 243.566136 
L 339.84 242.931096 
L 343.898182 242.29152 
L 347.956364 241.647408 
L 352.014545 240.997248 
L 356.072727 240.344064 
L 360.130909 239.686344 
L 364.189091 239.0256 
L 368.247273 238.361832 
L 372.305455 237.698064 
L 376.363636 237.031272 
L 380.421818 236.365992 
L 384.48 235.6992 
L 388.538182 235.03392 
L 392.596364 234.371664 
L 396.654545 233.712432 
L 400.712727 233.056224 
L 404.770909 232.407576 
L 408.829091 231.763464 
L 412.887273 231.128424 
L 416.945455 230.502456 
L 421.003636 229.887072 
L 425.061818 229.285296 
L 429.12 228.697128 
L 433.178182 228.12408 
L 437.236364 227.570688 
L 441.294545 227.036952 
L 445.352727 226.527408 
L 449.410909 226.042056 
L 453.469091 225.586944 
L 457.527273 225.16812 
L 461.585455 224.897472 
L 465.643636 225.2664 
L 469.701818 225.729072 
L 473.76 226.164528 
L 477.818182 226.554624 
L 481.876364 226.890288 
L 485.934545 227.16396 
L 489.992727 227.366568 
L 494.050909 227.490552 
L 498.109091 227.531376 
" clip-path="url(#pc782f7f305)" style="fill: none; stroke: #000000; stroke-opacity: 0.5; stroke-linecap: square"/>
   </g>
   <g id="line2d_19">
    <path d="M 92.290909 252.669888 
L 96.349091 252.653256 
L 100.407273 252.601848 
L 104.465455 252.517176 
L 108.523636 252.39924 
L 112.581818 252.246528 
L 116.64 252.060552 
L 120.698182 251.841312 
L 124.756364 251.59032 
L 128.814545 251.304552 
L 132.872727 250.988544 
L 136.930909 250.640784 
L 140.989091 250.261272 
L 145.047273 249.850008 
L 149.105455 249.410016 
L 153.163636 248.939784 
L 157.221818 248.440824 
L 161.28 247.914648 
L 165.338182 247.359744 
L 169.396364 246.779136 
L 173.454545 246.172824 
L 177.512727 245.54232 
L 181.570909 244.886112 
L 185.629091 244.208736 
L 189.687273 243.50868 
L 193.745455 242.788968 
L 197.803636 242.0496 
L 201.861818 241.292088 
L 205.92 240.516432 
L 209.978182 239.725656 
L 214.036364 238.91976 
L 218.094545 238.100256 
L 222.152727 237.270168 
L 226.210909 236.429496 
L 230.269091 235.579752 
L 234.327273 234.722448 
L 238.385455 233.859096 
L 242.443636 232.991208 
L 246.501818 232.121808 
L 250.56 231.252408 
L 254.618182 230.383008 
L 258.676364 229.518144 
L 262.734545 228.657816 
L 266.792727 227.803536 
L 270.850909 226.95984 
L 274.909091 226.126728 
L 278.967273 225.308736 
L 283.025455 224.505864 
L 287.083636 223.721136 
L 291.141818 222.957576 
L 295.2 222.216696 
L 299.258182 221.503032 
L 303.316364 220.816584 
L 307.374545 220.161888 
L 311.432727 219.540456 
L 315.490909 218.9538 
L 319.549091 218.406456 
L 323.607273 217.899936 
L 327.665455 217.43424 
L 331.723636 217.013904 
L 335.781818 216.638928 
L 339.84 216.312336 
L 343.898182 216.032616 
L 347.956364 215.802792 
L 352.014545 215.622864 
L 356.072727 215.492832 
L 360.130909 215.411184 
L 364.189091 215.380944 
L 368.247273 215.397576 
L 372.305455 215.462592 
L 376.363636 215.572968 
L 380.421818 215.728704 
L 384.48 215.926776 
L 388.538182 216.165672 
L 392.596364 216.44388 
L 396.654545 216.759888 
L 400.712727 217.110672 
L 404.770909 217.493208 
L 408.829091 217.905984 
L 412.887273 218.347488 
L 416.945455 218.813184 
L 421.003636 219.30156 
L 425.061818 219.809592 
L 429.12 220.334256 
L 433.178182 220.87404 
L 437.236364 221.422896 
L 441.294545 221.979312 
L 445.352727 222.538752 
L 449.410909 223.09668 
L 453.469091 223.647048 
L 457.527273 224.17776 
L 461.585455 224.57844 
L 465.643636 224.350128 
L 469.701818 224.03412 
L 473.76 223.748352 
L 477.818182 223.501896 
L 481.876364 223.296264 
L 485.934545 223.132968 
L 489.992727 223.016544 
L 494.050909 222.946992 
L 498.109091 222.9228 
" clip-path="url(#pc782f7f305)" style="fill: none; stroke: #000000; stroke-opacity: 0.5; stroke-linecap: square"/>
   </g>
   <g id="line2d_20">
    <path d="M 92.290909 163.413504 
L 96.349091 163.407456 
L 100.407273 163.390824 
L 104.465455 163.362096 
L 108.523636 163.321272 
L 112.581818 163.269864 
L 116.64 163.207872 
L 120.698182 163.132272 
L 124.756364 163.0476 
L 128.814545 162.950832 
L 132.872727 162.841968 
L 136.930909 162.724032 
L 140.989091 162.594 
L 145.047273 162.451872 
L 149.105455 162.300672 
L 153.163636 162.137376 
L 157.221818 161.963496 
L 161.28 161.779032 
L 165.338182 161.583984 
L 169.396364 161.379864 
L 173.454545 161.163648 
L 177.512727 160.93836 
L 181.570909 160.704 
L 185.629091 160.459056 
L 189.687273 160.203528 
L 193.745455 159.94044 
L 197.803636 159.66828 
L 201.861818 159.387048 
L 205.92 159.098256 
L 209.978182 158.800392 
L 214.036364 158.49648 
L 218.094545 158.18652 
L 222.152727 157.872024 
L 226.210909 157.552992 
L 230.269091 157.23396 
L 234.327273 156.917952 
L 238.385455 156.61404 
L 242.443636 156.337344 
L 246.501818 156.119616 
L 250.56 156.028896 
L 254.618182 156.143808 
L 258.676364 156.467376 
L 262.734545 156.914928 
L 266.792727 157.413888 
L 270.850909 157.923432 
L 274.909091 158.42844 
L 278.967273 158.915304 
L 283.025455 159.381 
L 287.083636 159.820992 
L 291.141818 160.230744 
L 295.2 160.610256 
L 299.258182 160.956504 
L 303.316364 161.266464 
L 307.374545 161.540136 
L 311.432727 161.774496 
L 315.490909 161.969544 
L 319.549091 162.123768 
L 323.607273 162.237168 
L 327.665455 162.309744 
L 331.723636 162.339984 
L 335.781818 162.3294 
L 339.84 162.279504 
L 343.898182 162.194832 
L 347.956364 162.076896 
L 352.014545 161.931744 
L 356.072727 161.76996 
L 360.130909 161.602128 
L 364.189091 161.449416 
L 368.247273 161.337528 
L 372.305455 161.304264 
L 376.363636 161.39196 
L 380.421818 161.639928 
L 384.48 162.05724 
L 388.538182 162.627264 
L 392.596364 163.3122 
L 396.654545 164.072736 
L 400.712727 164.881656 
L 404.770909 165.71628 
L 408.829091 166.561488 
L 412.887273 167.405184 
L 416.945455 168.242832 
L 421.003636 169.06536 
L 425.061818 169.871256 
L 429.12 170.654472 
L 433.178182 171.413496 
L 437.236364 172.143792 
L 441.294545 172.843848 
L 445.352727 173.51064 
L 449.410909 174.141144 
L 453.469091 174.733848 
L 457.527273 175.285728 
L 461.585455 175.79376 
L 465.643636 176.256432 
L 469.701818 176.672232 
L 473.76 177.036624 
L 477.818182 177.348096 
L 481.876364 177.606648 
L 485.934545 177.809256 
L 489.992727 177.954408 
L 494.050909 178.042104 
L 498.109091 178.072344 
" clip-path="url(#pc782f7f305)" style="fill: none; stroke: #000000; stroke-opacity: 0.5; stroke-linecap: square"/>
   </g>
   <g id="line2d_21">
    <path d="M 92.290909 142.906248 
L 96.349091 142.898688 
L 100.407273 142.879032 
L 104.465455 142.844256 
L 108.523636 142.795872 
L 112.581818 142.735392 
L 116.64 142.661304 
L 120.698182 142.573608 
L 124.756364 142.475328 
L 128.814545 142.364952 
L 132.872727 142.243992 
L 136.930909 142.11396 
L 140.989091 141.97788 
L 145.047273 141.835752 
L 149.105455 141.692112 
L 153.163636 141.551496 
L 157.221818 141.421464 
L 161.28 141.3126 
L 165.338182 141.243048 
L 169.396364 141.232464 
L 173.454545 141.3126 
L 177.512727 141.513696 
L 181.570909 141.859944 
L 185.629091 142.346808 
L 189.687273 142.951608 
L 193.745455 143.64108 
L 197.803636 144.386496 
L 201.861818 145.166688 
L 205.92 145.963512 
L 209.978182 146.767896 
L 214.036364 147.57228 
L 218.094545 148.369104 
L 222.152727 149.155344 
L 226.210909 149.926464 
L 230.269091 150.676416 
L 234.327273 151.402176 
L 238.385455 152.090136 
L 242.443636 152.7282 
L 246.501818 153.278568 
L 250.56 153.677736 
L 254.618182 153.841032 
L 258.676364 153.766944 
L 262.734545 153.540144 
L 266.792727 153.233208 
L 270.850909 152.880912 
L 274.909091 152.504424 
L 278.967273 152.109792 
L 283.025455 151.703064 
L 287.083636 151.287264 
L 291.141818 150.865416 
L 295.2 150.439032 
L 299.258182 150.008112 
L 303.316364 149.57568 
L 307.374545 149.141736 
L 311.432727 148.709304 
L 315.490909 148.281408 
L 319.549091 147.862584 
L 323.607273 147.45888 
L 327.665455 147.086928 
L 331.723636 146.779992 
L 335.781818 146.631816 
L 339.84 146.828376 
L 343.898182 147.475512 
L 347.956364 148.387248 
L 352.014545 149.388192 
L 356.072727 150.401232 
L 360.130909 151.384032 
L 364.189091 152.306352 
L 368.247273 153.137952 
L 372.305455 153.838008 
L 376.363636 154.365696 
L 380.421818 154.681704 
L 384.48 154.778472 
L 388.538182 154.674144 
L 392.596364 154.411056 
L 396.654545 154.027008 
L 400.712727 153.556776 
L 404.770909 153.024552 
L 408.829091 152.44848 
L 412.887273 151.842168 
L 416.945455 151.219224 
L 421.003636 150.587208 
L 425.061818 149.958216 
L 429.12 149.339808 
L 433.178182 148.738032 
L 437.236364 148.166496 
L 441.294545 147.628224 
L 445.352727 147.135312 
L 449.410909 146.690784 
L 453.469091 146.3022 
L 457.527273 145.971072 
L 461.585455 145.698912 
L 465.643636 145.481184 
L 469.701818 145.31184 
L 473.76 145.187856 
L 477.818182 145.097136 
L 481.876364 145.035144 
L 485.934545 144.995832 
L 489.992727 144.970128 
L 494.050909 144.95652 
L 498.109091 144.951984 
" clip-path="url(#pc782f7f305)" style="fill: none; stroke: #000000; stroke-opacity: 0.5; stroke-linecap: square"/>
   </g>
   <g id="line2d_22">
    <path d="M 92.290909 114.934248 
L 96.349091 115.43472 
L 100.407273 116.446248 
L 104.465455 117.590832 
L 108.523636 118.771704 
L 112.581818 119.958624 
L 116.64 121.144032 
L 120.698182 122.32188 
L 124.756364 123.48612 
L 128.814545 124.638264 
L 132.872727 125.773776 
L 136.930909 126.891144 
L 140.989091 127.988856 
L 145.047273 129.063888 
L 149.105455 130.111704 
L 153.163636 131.126256 
L 157.221818 132.101496 
L 161.28 133.025328 
L 165.338182 133.882632 
L 169.396364 134.649216 
L 173.454545 135.293328 
L 177.512727 135.78624 
L 181.570909 136.10376 
L 185.629091 136.2474 
L 189.687273 136.242864 
L 193.745455 136.120392 
L 197.803636 135.908712 
L 201.861818 135.630504 
L 205.92 135.300888 
L 209.978182 134.928936 
L 214.036364 134.522208 
L 218.094545 134.086752 
L 222.152727 133.62408 
L 226.210909 133.138728 
L 230.269091 132.630696 
L 234.327273 132.10452 
L 238.385455 131.5602 
L 242.443636 130.999248 
L 246.501818 130.424688 
L 250.56 129.838032 
L 254.618182 129.24684 
L 258.676364 128.655648 
L 262.734545 128.078064 
L 266.792727 127.539792 
L 270.850909 127.095264 
L 274.909091 126.863928 
L 278.967273 127.03932 
L 283.025455 127.713672 
L 287.083636 128.734272 
L 291.141818 129.924216 
L 295.2 131.18976 
L 299.258182 132.488568 
L 303.316364 133.800984 
L 307.374545 135.114912 
L 311.432727 136.42128 
L 315.490909 137.71404 
L 319.549091 138.987144 
L 323.607273 140.23152 
L 327.665455 141.427512 
L 331.723636 142.540344 
L 335.781818 143.477784 
L 339.84 144.046296 
L 343.898182 144.143064 
L 347.956364 143.944992 
L 352.014545 143.622936 
L 356.072727 143.249472 
L 360.130909 142.850304 
L 364.189091 142.440552 
L 368.247273 142.026264 
L 372.305455 141.610464 
L 376.363636 141.196176 
L 380.421818 140.786424 
L 384.48 140.379696 
L 388.538182 139.979016 
L 392.596364 139.584384 
L 396.654545 139.197312 
L 400.712727 138.8178 
L 404.770909 138.44736 
L 408.829091 138.087504 
L 412.887273 137.735208 
L 416.945455 137.395008 
L 421.003636 137.065392 
L 425.061818 136.747872 
L 429.12 136.440936 
L 433.178182 136.147608 
L 437.236364 135.867888 
L 441.294545 135.600264 
L 445.352727 135.352296 
L 449.410909 135.14364 
L 453.469091 135.131544 
L 457.527273 135.213192 
L 461.585455 135.255528 
L 465.643636 135.254016 
L 469.701818 135.217728 
L 473.76 135.157248 
L 477.818182 135.084672 
L 481.876364 135.012096 
L 485.934545 134.94708 
L 489.992727 134.895672 
L 494.050909 134.862408 
L 498.109091 134.851824 
" clip-path="url(#pc782f7f305)" style="fill: none; stroke: #000000; stroke-opacity: 0.5; stroke-linecap: square"/>
   </g>
   <g id="line2d_23">
    <path d="M 92.290909 112.202064 
L 96.349091 111.689496 
L 100.407273 110.640168 
L 104.465455 109.436616 
L 108.523636 108.172584 
L 112.581818 106.875288 
L 116.64 105.556824 
L 120.698182 104.221728 
L 124.756364 102.873024 
L 128.814545 101.513736 
L 132.872727 100.142352 
L 136.930909 98.761896 
L 140.989091 97.372368 
L 145.047273 95.97528 
L 149.105455 94.572144 
L 153.163636 93.164472 
L 157.221818 91.755288 
L 161.28 90.349128 
L 165.338182 88.961112 
L 169.396364 87.642648 
L 173.454545 86.756616 
L 177.512727 87.423408 
L 181.570909 88.794792 
L 185.629091 90.27504 
L 189.687273 91.784016 
L 193.745455 93.305088 
L 197.803636 94.830696 
L 201.861818 96.357816 
L 205.92 97.884936 
L 209.978182 99.410544 
L 214.036364 100.933128 
L 218.094545 102.4542 
L 222.152727 103.970736 
L 226.210909 105.482736 
L 230.269091 106.988688 
L 234.327273 108.490104 
L 238.385455 109.982448 
L 242.443636 111.46572 
L 246.501818 112.938408 
L 250.56 114.395976 
L 254.618182 115.8354 
L 258.676364 117.250632 
L 262.734545 118.626552 
L 266.792727 119.937456 
L 270.850909 121.130424 
L 274.909091 122.086008 
L 278.967273 122.607648 
L 283.025455 122.606136 
L 287.083636 122.234184 
L 291.141818 121.667184 
L 295.2 120.99888 
L 299.258182 120.27312 
L 303.316364 119.50956 
L 307.374545 118.72332 
L 311.432727 117.92196 
L 315.490909 117.116064 
L 319.549091 116.316216 
L 323.607273 115.54056 
L 327.665455 114.817824 
L 331.723636 114.21 
L 335.781818 113.822928 
L 339.84 113.818392 
L 343.898182 114.264432 
L 347.956364 115.050672 
L 352.014545 116.021376 
L 356.072727 117.07524 
L 360.130909 118.16388 
L 364.189091 119.261592 
L 368.247273 120.353256 
L 372.305455 121.4298 
L 376.363636 122.486688 
L 380.421818 123.517872 
L 384.48 124.52184 
L 388.538182 125.49708 
L 392.596364 126.437544 
L 396.654545 127.344744 
L 400.712727 128.215656 
L 404.770909 129.047256 
L 408.829091 129.838032 
L 412.887273 130.58496 
L 416.945455 131.286528 
L 421.003636 131.939712 
L 425.061818 132.541488 
L 429.12 133.090344 
L 433.178182 133.580232 
L 437.236364 134.008128 
L 441.294545 134.37252 
L 445.352727 134.665848 
L 449.410909 134.86392 
L 453.469091 134.812512 
L 457.527273 134.615952 
L 461.585455 134.416368 
L 465.643636 134.225856 
L 469.701818 134.048952 
L 473.76 133.885656 
L 477.818182 133.738992 
L 481.876364 133.611984 
L 485.934545 133.507656 
L 489.992727 133.430544 
L 494.050909 133.38216 
L 498.109091 133.365528 
" clip-path="url(#pc782f7f305)" style="fill: none; stroke: #000000; stroke-opacity: 0.5; stroke-linecap: square"/>
   </g>
   <g id="patch_3">
    <path d="M 72 384.48 
L 72 51.84 
" style="fill: none; stroke: #000000; stroke-width: 0.8; stroke-linejoin: miter; stroke-linecap: square"/>
   </g>
   <g id="patch_4">
    <path d="M 518.4 384.48 
L 518.4 51.84 
" style="fill: none; stroke: #000000; stroke-width: 0.8; stroke-linejoin: miter; stroke-linecap: square"/>
   </g>
   <g id="patch_5">
    <path d="M 72 384.48 
L 518.4 384.48 
" style="fill: none; stroke: #000000; stroke-width: 0.8; stroke-linejoin: miter; stroke-linecap: square"/>
   </g>
   <g id="patch_6">
    <path d="M 72 51.84 
L 518.4 51.84 
" style="fill: none; stroke: #000000; stroke-width: 0.8; stroke-linejoin: miter; stroke-linecap: square"/>
   </g>
  </g>
 </g>
 <defs>
  <clipPath id="pc782f7f305">
   <rect x="72" y="51.84" width="446.4" height="332.64"/>
  </clipPath>
 </defs>
</svg>
