<?xml version="1.0" encoding="utf-8" standalone="no"?>
<!DOCTYPE svg PUBLIC "-//W3C//DTD SVG 1.1//EN"
  "http://www.w3.org/Graphics/SVG/1.1/DTD/svg11.dtd">
<svg xmlns:xlink="http://www.w3.org/1999/xlink" width="576pt" height="432pt" viewBox="0 0 576 432" xmlns="http://www.w3.org/2000/svg" version="1.1">
 <metadata>
  <rdf:RDF xmlns:dc="http://purl.org/dc/elements/1.1/" xmlns:cc="http://creativecommons.org/ns#" xmlns:rdf="http://www.w3.org/1999/02/22-rdf-syntax-ns#">
   <cc:Work>
    <dc:type rdf:resource="http://purl.org/dc/dcmitype/StillImage"/>
    <dc:date>2023-05-02T12:46:20.344936</dc:date>
    <dc:format>image/svg+xml</dc:format>
    <dc:creator>
     <cc:Agent>
      <dc:title>Matplotlib v3.7.1, https://matplotlib.org/</dc:title>
     </cc:Agent>
    </dc:creator>
   </cc:Work>
  </rdf:RDF>
 </metadata>
 <defs>
  <style type="text/css">*{stroke-linejoin: round; stroke-linecap: butt}</style>
 </defs>
 <g id="figure_1">
  <g id="patch_1">
   <path d="M 0 432 
L 576 432 
L 576 0 
L 0 0 
z
" style="fill: #ffffff"/>
  </g>
  <g id="axes_1">
   <g id="patch_2">
    <path d="M 72 384.48 
L 518.4 384.48 
L 518.4 51.84 
L 72 51.84 
z
" style="fill: #ffffff"/>
   </g>
   <g id="matplotlib.axis_1">
    <g id="xtick_1">
     <g id="line2d_1">
      <defs>
       <path id="ma45559cb8c" d="M 0 0 
L 0 3.5 
" style="stroke: #000000; stroke-width: 0.8"/>
      </defs>
      <g>
       <use xlink:href="#ma45559cb8c" x="92.290909" y="384.48" style="stroke: #000000; stroke-width: 0.8"/>
      </g>
     </g>
     <g id="text_1">
      <!-- 0.0 -->
      <g transform="translate(84.339347 399.078438) scale(0.1 -0.1)">
       <defs>
        <path id="DejaVuSans-30" d="M 2034 4250 
Q 1547 4250 1301 3770 
Q 1056 3291 1056 2328 
Q 1056 1369 1301 889 
Q 1547 409 2034 409 
Q 2525 409 2770 889 
Q 3016 1369 3016 2328 
Q 3016 3291 2770 3770 
Q 2525 4250 2034 4250 
z
M 2034 4750 
Q 2819 4750 3233 4129 
Q 3647 3509 3647 2328 
Q 3647 1150 3233 529 
Q 2819 -91 2034 -91 
Q 1250 -91 836 529 
Q 422 1150 422 2328 
Q 422 3509 836 4129 
Q 1250 4750 2034 4750 
z
" transform="scale(0.015625)"/>
        <path id="DejaVuSans-2e" d="M 684 794 
L 1344 794 
L 1344 0 
L 684 0 
L 684 794 
z
" transform="scale(0.015625)"/>
       </defs>
       <use xlink:href="#DejaVuSans-30"/>
       <use xlink:href="#DejaVuSans-2e" x="63.623047"/>
       <use xlink:href="#DejaVuSans-30" x="95.410156"/>
      </g>
     </g>
    </g>
    <g id="xtick_2">
     <g id="line2d_2">
      <g>
       <use xlink:href="#ma45559cb8c" x="173.454545" y="384.48" style="stroke: #000000; stroke-width: 0.8"/>
      </g>
     </g>
     <g id="text_2">
      <!-- 0.2 -->
      <g transform="translate(165.502983 399.078438) scale(0.1 -0.1)">
       <defs>
        <path id="DejaVuSans-32" d="M 1228 531 
L 3431 531 
L 3431 0 
L 469 0 
L 469 531 
Q 828 903 1448 1529 
Q 2069 2156 2228 2338 
Q 2531 2678 2651 2914 
Q 2772 3150 2772 3378 
Q 2772 3750 2511 3984 
Q 2250 4219 1831 4219 
Q 1534 4219 1204 4116 
Q 875 4013 500 3803 
L 500 4441 
Q 881 4594 1212 4672 
Q 1544 4750 1819 4750 
Q 2544 4750 2975 4387 
Q 3406 4025 3406 3419 
Q 3406 3131 3298 2873 
Q 3191 2616 2906 2266 
Q 2828 2175 2409 1742 
Q 1991 1309 1228 531 
z
" transform="scale(0.015625)"/>
       </defs>
       <use xlink:href="#DejaVuSans-30"/>
       <use xlink:href="#DejaVuSans-2e" x="63.623047"/>
       <use xlink:href="#DejaVuSans-32" x="95.410156"/>
      </g>
     </g>
    </g>
    <g id="xtick_3">
     <g id="line2d_3">
      <g>
       <use xlink:href="#ma45559cb8c" x="254.618182" y="384.48" style="stroke: #000000; stroke-width: 0.8"/>
      </g>
     </g>
     <g id="text_3">
      <!-- 0.4 -->
      <g transform="translate(246.666619 399.078438) scale(0.1 -0.1)">
       <defs>
        <path id="DejaVuSans-34" d="M 2419 4116 
L 825 1625 
L 2419 1625 
L 2419 4116 
z
M 2253 4666 
L 3047 4666 
L 3047 1625 
L 3713 1625 
L 3713 1100 
L 3047 1100 
L 3047 0 
L 2419 0 
L 2419 1100 
L 313 1100 
L 313 1709 
L 2253 4666 
z
" transform="scale(0.015625)"/>
       </defs>
       <use xlink:href="#DejaVuSans-30"/>
       <use xlink:href="#DejaVuSans-2e" x="63.623047"/>
       <use xlink:href="#DejaVuSans-34" x="95.410156"/>
      </g>
     </g>
    </g>
    <g id="xtick_4">
     <g id="line2d_4">
      <g>
       <use xlink:href="#ma45559cb8c" x="335.781818" y="384.48" style="stroke: #000000; stroke-width: 0.8"/>
      </g>
     </g>
     <g id="text_4">
      <!-- 0.6 -->
      <g transform="translate(327.830256 399.078438) scale(0.1 -0.1)">
       <defs>
        <path id="DejaVuSans-36" d="M 2113 2584 
Q 1688 2584 1439 2293 
Q 1191 2003 1191 1497 
Q 1191 994 1439 701 
Q 1688 409 2113 409 
Q 2538 409 2786 701 
Q 3034 994 3034 1497 
Q 3034 2003 2786 2293 
Q 2538 2584 2113 2584 
z
M 3366 4563 
L 3366 3988 
Q 3128 4100 2886 4159 
Q 2644 4219 2406 4219 
Q 1781 4219 1451 3797 
Q 1122 3375 1075 2522 
Q 1259 2794 1537 2939 
Q 1816 3084 2150 3084 
Q 2853 3084 3261 2657 
Q 3669 2231 3669 1497 
Q 3669 778 3244 343 
Q 2819 -91 2113 -91 
Q 1303 -91 875 529 
Q 447 1150 447 2328 
Q 447 3434 972 4092 
Q 1497 4750 2381 4750 
Q 2619 4750 2861 4703 
Q 3103 4656 3366 4563 
z
" transform="scale(0.015625)"/>
       </defs>
       <use xlink:href="#DejaVuSans-30"/>
       <use xlink:href="#DejaVuSans-2e" x="63.623047"/>
       <use xlink:href="#DejaVuSans-36" x="95.410156"/>
      </g>
     </g>
    </g>
    <g id="xtick_5">
     <g id="line2d_5">
      <g>
       <use xlink:href="#ma45559cb8c" x="416.945455" y="384.48" style="stroke: #000000; stroke-width: 0.8"/>
      </g>
     </g>
     <g id="text_5">
      <!-- 0.8 -->
      <g transform="translate(408.993892 399.078438) scale(0.1 -0.1)">
       <defs>
        <path id="DejaVuSans-38" d="M 2034 2216 
Q 1584 2216 1326 1975 
Q 1069 1734 1069 1313 
Q 1069 891 1326 650 
Q 1584 409 2034 409 
Q 2484 409 2743 651 
Q 3003 894 3003 1313 
Q 3003 1734 2745 1975 
Q 2488 2216 2034 2216 
z
M 1403 2484 
Q 997 2584 770 2862 
Q 544 3141 544 3541 
Q 544 4100 942 4425 
Q 1341 4750 2034 4750 
Q 2731 4750 3128 4425 
Q 3525 4100 3525 3541 
Q 3525 3141 3298 2862 
Q 3072 2584 2669 2484 
Q 3125 2378 3379 2068 
Q 3634 1759 3634 1313 
Q 3634 634 3220 271 
Q 2806 -91 2034 -91 
Q 1263 -91 848 271 
Q 434 634 434 1313 
Q 434 1759 690 2068 
Q 947 2378 1403 2484 
z
M 1172 3481 
Q 1172 3119 1398 2916 
Q 1625 2713 2034 2713 
Q 2441 2713 2670 2916 
Q 2900 3119 2900 3481 
Q 2900 3844 2670 4047 
Q 2441 4250 2034 4250 
Q 1625 4250 1398 4047 
Q 1172 3844 1172 3481 
z
" transform="scale(0.015625)"/>
       </defs>
       <use xlink:href="#DejaVuSans-30"/>
       <use xlink:href="#DejaVuSans-2e" x="63.623047"/>
       <use xlink:href="#DejaVuSans-38" x="95.410156"/>
      </g>
     </g>
    </g>
    <g id="xtick_6">
     <g id="line2d_6">
      <g>
       <use xlink:href="#ma45559cb8c" x="498.109091" y="384.48" style="stroke: #000000; stroke-width: 0.8"/>
      </g>
     </g>
     <g id="text_6">
      <!-- 1.0 -->
      <g transform="translate(490.157528 399.078438) scale(0.1 -0.1)">
       <defs>
        <path id="DejaVuSans-31" d="M 794 531 
L 1825 531 
L 1825 4091 
L 703 3866 
L 703 4441 
L 1819 4666 
L 2450 4666 
L 2450 531 
L 3481 531 
L 3481 0 
L 794 0 
L 794 531 
z
" transform="scale(0.015625)"/>
       </defs>
       <use xlink:href="#DejaVuSans-31"/>
       <use xlink:href="#DejaVuSans-2e" x="63.623047"/>
       <use xlink:href="#DejaVuSans-30" x="95.410156"/>
      </g>
     </g>
    </g>
   </g>
   <g id="matplotlib.axis_2">
    <g id="ytick_1">
     <g id="line2d_7">
      <defs>
       <path id="m0f3e80aa51" d="M 0 0 
L -3.5 0 
" style="stroke: #000000; stroke-width: 0.8"/>
      </defs>
      <g>
       <use xlink:href="#m0f3e80aa51" x="72" y="369.36" style="stroke: #000000; stroke-width: 0.8"/>
      </g>
     </g>
     <g id="text_7">
      <!-- −5.0 -->
      <g transform="translate(40.717187 373.159219) scale(0.1 -0.1)">
       <defs>
        <path id="DejaVuSans-2212" d="M 678 2272 
L 4684 2272 
L 4684 1741 
L 678 1741 
L 678 2272 
z
" transform="scale(0.015625)"/>
        <path id="DejaVuSans-35" d="M 691 4666 
L 3169 4666 
L 3169 4134 
L 1269 4134 
L 1269 2991 
Q 1406 3038 1543 3061 
Q 1681 3084 1819 3084 
Q 2600 3084 3056 2656 
Q 3513 2228 3513 1497 
Q 3513 744 3044 326 
Q 2575 -91 1722 -91 
Q 1428 -91 1123 -41 
Q 819 9 494 109 
L 494 744 
Q 775 591 1075 516 
Q 1375 441 1709 441 
Q 2250 441 2565 725 
Q 2881 1009 2881 1497 
Q 2881 1984 2565 2268 
Q 2250 2553 1709 2553 
Q 1456 2553 1204 2497 
Q 953 2441 691 2322 
L 691 4666 
z
" transform="scale(0.015625)"/>
       </defs>
       <use xlink:href="#DejaVuSans-2212"/>
       <use xlink:href="#DejaVuSans-35" x="83.789062"/>
       <use xlink:href="#DejaVuSans-2e" x="147.412109"/>
       <use xlink:href="#DejaVuSans-30" x="179.199219"/>
      </g>
     </g>
    </g>
    <g id="ytick_2">
     <g id="line2d_8">
      <g>
       <use xlink:href="#m0f3e80aa51" x="72" y="331.56" style="stroke: #000000; stroke-width: 0.8"/>
      </g>
     </g>
     <g id="text_8">
      <!-- −2.5 -->
      <g transform="translate(40.717187 335.359219) scale(0.1 -0.1)">
       <use xlink:href="#DejaVuSans-2212"/>
       <use xlink:href="#DejaVuSans-32" x="83.789062"/>
       <use xlink:href="#DejaVuSans-2e" x="147.412109"/>
       <use xlink:href="#DejaVuSans-35" x="179.199219"/>
      </g>
     </g>
    </g>
    <g id="ytick_3">
     <g id="line2d_9">
      <g>
       <use xlink:href="#m0f3e80aa51" x="72" y="293.76" style="stroke: #000000; stroke-width: 0.8"/>
      </g>
     </g>
     <g id="text_9">
      <!-- 0.0 -->
      <g transform="translate(49.096875 297.559219) scale(0.1 -0.1)">
       <use xlink:href="#DejaVuSans-30"/>
       <use xlink:href="#DejaVuSans-2e" x="63.623047"/>
       <use xlink:href="#DejaVuSans-30" x="95.410156"/>
      </g>
     </g>
    </g>
    <g id="ytick_4">
     <g id="line2d_10">
      <g>
       <use xlink:href="#m0f3e80aa51" x="72" y="255.96" style="stroke: #000000; stroke-width: 0.8"/>
      </g>
     </g>
     <g id="text_10">
      <!-- 2.5 -->
      <g transform="translate(49.096875 259.759219) scale(0.1 -0.1)">
       <use xlink:href="#DejaVuSans-32"/>
       <use xlink:href="#DejaVuSans-2e" x="63.623047"/>
       <use xlink:href="#DejaVuSans-35" x="95.410156"/>
      </g>
     </g>
    </g>
    <g id="ytick_5">
     <g id="line2d_11">
      <g>
       <use xlink:href="#m0f3e80aa51" x="72" y="218.16" style="stroke: #000000; stroke-width: 0.8"/>
      </g>
     </g>
     <g id="text_11">
      <!-- 5.0 -->
      <g transform="translate(49.096875 221.959219) scale(0.1 -0.1)">
       <use xlink:href="#DejaVuSans-35"/>
       <use xlink:href="#DejaVuSans-2e" x="63.623047"/>
       <use xlink:href="#DejaVuSans-30" x="95.410156"/>
      </g>
     </g>
    </g>
    <g id="ytick_6">
     <g id="line2d_12">
      <g>
       <use xlink:href="#m0f3e80aa51" x="72" y="180.36" style="stroke: #000000; stroke-width: 0.8"/>
      </g>
     </g>
     <g id="text_12">
      <!-- 7.5 -->
      <g transform="translate(49.096875 184.159219) scale(0.1 -0.1)">
       <defs>
        <path id="DejaVuSans-37" d="M 525 4666 
L 3525 4666 
L 3525 4397 
L 1831 0 
L 1172 0 
L 2766 4134 
L 525 4134 
L 525 4666 
z
" transform="scale(0.015625)"/>
       </defs>
       <use xlink:href="#DejaVuSans-37"/>
       <use xlink:href="#DejaVuSans-2e" x="63.623047"/>
       <use xlink:href="#DejaVuSans-35" x="95.410156"/>
      </g>
     </g>
    </g>
    <g id="ytick_7">
     <g id="line2d_13">
      <g>
       <use xlink:href="#m0f3e80aa51" x="72" y="142.56" style="stroke: #000000; stroke-width: 0.8"/>
      </g>
     </g>
     <g id="text_13">
      <!-- 10.0 -->
      <g transform="translate(42.734375 146.359219) scale(0.1 -0.1)">
       <use xlink:href="#DejaVuSans-31"/>
       <use xlink:href="#DejaVuSans-30" x="63.623047"/>
       <use xlink:href="#DejaVuSans-2e" x="127.246094"/>
       <use xlink:href="#DejaVuSans-30" x="159.033203"/>
      </g>
     </g>
    </g>
    <g id="ytick_8">
     <g id="line2d_14">
      <g>
       <use xlink:href="#m0f3e80aa51" x="72" y="104.76" style="stroke: #000000; stroke-width: 0.8"/>
      </g>
     </g>
     <g id="text_14">
      <!-- 12.5 -->
      <g transform="translate(42.734375 108.559219) scale(0.1 -0.1)">
       <use xlink:href="#DejaVuSans-31"/>
       <use xlink:href="#DejaVuSans-32" x="63.623047"/>
       <use xlink:href="#DejaVuSans-2e" x="127.246094"/>
       <use xlink:href="#DejaVuSans-35" x="159.033203"/>
      </g>
     </g>
    </g>
    <g id="ytick_9">
     <g id="line2d_15">
      <g>
       <use xlink:href="#m0f3e80aa51" x="72" y="66.96" style="stroke: #000000; stroke-width: 0.8"/>
      </g>
     </g>
     <g id="text_15">
      <!-- 15.0 -->
      <g transform="translate(42.734375 70.759219) scale(0.1 -0.1)">
       <use xlink:href="#DejaVuSans-31"/>
       <use xlink:href="#DejaVuSans-35" x="63.623047"/>
       <use xlink:href="#DejaVuSans-2e" x="127.246094"/>
       <use xlink:href="#DejaVuSans-30" x="159.033203"/>
      </g>
     </g>
    </g>
   </g>
   <g id="line2d_16">
    <path d="M 92.290909 347.70816 
L 96.349091 347.703624 
L 100.407273 347.690016 
L 104.465455 347.664312 
L 108.523636 347.631048 
L 112.581818 347.5872 
L 116.64 347.532768 
L 120.698182 347.469264 
L 124.756364 347.396688 
L 128.814545 347.31504 
L 132.872727 347.222808 
L 136.930909 347.119992 
L 140.989091 347.009616 
L 145.047273 346.888656 
L 149.105455 346.758624 
L 153.163636 346.61952 
L 157.221818 346.469832 
L 161.28 346.312584 
L 165.338182 346.146264 
L 169.396364 345.96936 
L 173.454545 345.784896 
L 177.512727 345.59136 
L 181.570909 345.388752 
L 185.629091 345.177072 
L 189.687273 344.957832 
L 193.745455 344.72952 
L 197.803636 344.493648 
L 201.861818 344.248704 
L 205.92 343.9962 
L 209.978182 343.736136 
L 214.036364 343.468512 
L 218.094545 343.191816 
L 222.152727 342.909072 
L 226.210909 342.618768 
L 230.269091 342.320904 
L 234.327273 342.016992 
L 238.385455 341.707032 
L 242.443636 341.389512 
L 246.501818 341.065944 
L 250.56 340.736328 
L 254.618182 340.400664 
L 258.676364 340.060464 
L 262.734545 339.714216 
L 266.792727 339.36192 
L 270.850909 339.0066 
L 274.909091 338.645232 
L 278.967273 338.28084 
L 283.025455 337.911912 
L 287.083636 337.538448 
L 291.141818 337.16196 
L 295.2 336.78396 
L 299.258182 336.401424 
L 303.316364 336.017376 
L 307.374545 335.630304 
L 311.432727 335.24172 
L 315.490909 334.851624 
L 319.549091 334.460016 
L 323.607273 334.068408 
L 327.665455 333.675288 
L 331.723636 333.28368 
L 335.781818 332.89056 
L 339.84 332.498952 
L 343.898182 332.107344 
L 347.956364 331.717248 
L 352.014545 331.328664 
L 356.072727 330.941592 
L 360.130909 330.557544 
L 364.189091 330.175008 
L 368.247273 329.795496 
L 372.305455 329.419008 
L 376.363636 329.045544 
L 380.421818 328.675104 
L 384.48 328.3092 
L 388.538182 327.94632 
L 392.596364 327.587976 
L 396.654545 327.234168 
L 400.712727 326.884896 
L 404.770909 326.538648 
L 408.829091 326.19996 
L 412.887273 325.864296 
L 416.945455 325.53468 
L 421.003636 325.2096 
L 425.061818 324.890568 
L 429.12 324.577584 
L 433.178182 324.270648 
L 437.236364 323.968248 
L 441.294545 323.673408 
L 445.352727 323.386128 
L 449.410909 323.106408 
L 453.469091 322.832736 
L 457.527273 322.569648 
L 461.585455 322.317144 
L 465.643636 322.076736 
L 469.701818 321.848424 
L 473.76 321.638256 
L 477.818182 321.447744 
L 481.876364 321.281424 
L 485.934545 321.143832 
L 489.992727 321.039504 
L 494.050909 320.976 
L 498.109091 320.95332 
" clip-path="url(#pbb45407b4c)" style="fill: none; stroke: #000000; stroke-opacity: 0.5; stroke-linecap: square"/>
   </g>
   <g id="line2d_17">
    <path d="M 92.290909 287.170704 
L 96.349091 287.176752 
L 100.407273 287.194896 
L 104.465455 287.225136 
L 108.523636 287.267472 
L 112.581818 287.321904 
L 116.64 287.38692 
L 120.698182 287.465544 
L 124.756364 287.556264 
L 128.814545 287.65908 
L 132.872727 287.773992 
L 136.930909 287.901 
L 140.989091 288.040104 
L 145.047273 288.191304 
L 149.105455 288.3546 
L 153.163636 288.531504 
L 157.221818 288.718992 
L 161.28 288.920088 
L 165.338182 289.131768 
L 169.396364 289.355544 
L 173.454545 289.591416 
L 177.512727 289.839384 
L 181.570909 290.097936 
L 185.629091 290.368584 
L 189.687273 290.649816 
L 193.745455 290.943144 
L 197.803636 291.245544 
L 201.861818 291.558528 
L 205.92 291.880584 
L 209.978182 292.213224 
L 214.036364 292.553424 
L 218.094545 292.904208 
L 222.152727 293.26104 
L 226.210909 293.628456 
L 230.269091 294.000408 
L 234.327273 294.381432 
L 238.385455 294.768504 
L 242.443636 295.161624 
L 246.501818 295.55928 
L 250.56 295.962984 
L 254.618182 296.371224 
L 258.676364 296.784 
L 262.734545 297.1998 
L 266.792727 297.618624 
L 270.850909 298.040472 
L 274.909091 298.465344 
L 278.967273 298.890216 
L 283.025455 299.318112 
L 287.083636 299.74752 
L 291.141818 300.176928 
L 295.2 300.606336 
L 299.258182 301.035744 
L 303.316364 301.465152 
L 307.374545 301.893048 
L 311.432727 302.320944 
L 315.490909 302.747328 
L 319.549091 303.1722 
L 323.607273 303.594048 
L 327.665455 304.014384 
L 331.723636 304.431696 
L 335.781818 304.845984 
L 339.84 305.25876 
L 343.898182 305.667 
L 347.956364 306.073728 
L 352.014545 306.47592 
L 356.072727 306.873576 
L 360.130909 307.268208 
L 364.189091 307.658304 
L 368.247273 308.045376 
L 372.305455 308.427912 
L 376.363636 308.805912 
L 380.421818 309.179376 
L 384.48 309.548304 
L 388.538182 309.912696 
L 392.596364 310.27104 
L 396.654545 310.62636 
L 400.712727 310.975632 
L 404.770909 311.32188 
L 408.829091 311.66208 
L 412.887273 311.996232 
L 416.945455 312.325848 
L 421.003636 312.650928 
L 425.061818 312.96996 
L 429.12 313.282944 
L 433.178182 313.58988 
L 437.236364 313.89228 
L 441.294545 314.18712 
L 445.352727 314.475912 
L 449.410909 314.757144 
L 453.469091 315.030816 
L 457.527273 315.293904 
L 461.585455 315.54792 
L 465.643636 315.78984 
L 469.701818 316.018152 
L 473.76 316.229832 
L 477.818182 316.420344 
L 481.876364 316.588176 
L 485.934545 316.725768 
L 489.992727 316.830096 
L 494.050909 316.895112 
L 498.109091 316.91628 
" clip-path="url(#pbb45407b4c)" style="fill: none; stroke: #000000; stroke-opacity: 0.5; stroke-linecap: square"/>
   </g>
   <g id="line2d_18">
    <path d="M 92.290909 241.99668 
L 96.349091 242.05716 
L 100.407273 242.17812 
L 104.465455 242.338392 
L 108.523636 242.537976 
L 112.581818 242.776872 
L 116.64 243.05508 
L 120.698182 243.371088 
L 124.756364 243.723384 
L 128.814545 244.108944 
L 132.872727 244.52928 
L 136.930909 244.976832 
L 140.989091 245.453112 
L 145.047273 245.952072 
L 149.105455 246.473712 
L 153.163636 247.015008 
L 157.221818 247.572936 
L 161.28 248.145984 
L 165.338182 248.729616 
L 169.396364 249.323832 
L 173.454545 249.92712 
L 177.512727 250.536456 
L 181.570909 251.150328 
L 185.629091 251.767224 
L 189.687273 252.385632 
L 193.745455 253.00404 
L 197.803636 253.620936 
L 201.861818 254.23632 
L 205.92 254.847168 
L 209.978182 255.45348 
L 214.036364 256.053744 
L 218.094545 256.649472 
L 222.152727 257.236128 
L 226.210909 257.815224 
L 230.269091 258.385248 
L 234.327273 258.944688 
L 238.385455 259.493544 
L 242.443636 260.033328 
L 246.501818 260.559504 
L 250.56 261.073584 
L 254.618182 261.575568 
L 258.676364 262.063944 
L 262.734545 262.5372 
L 266.792727 262.996848 
L 270.850909 263.439864 
L 274.909091 263.869272 
L 278.967273 264.282048 
L 283.025455 264.67668 
L 287.083636 265.056192 
L 291.141818 265.41756 
L 295.2 265.760784 
L 299.258182 266.085864 
L 303.316364 266.3928 
L 307.374545 266.68008 
L 311.432727 266.947704 
L 315.490909 267.19416 
L 319.549091 267.422472 
L 323.607273 267.628104 
L 327.665455 267.81408 
L 331.723636 267.977376 
L 335.781818 268.119504 
L 339.84 268.238952 
L 343.898182 268.33572 
L 347.956364 268.41132 
L 352.014545 268.462728 
L 356.072727 268.489944 
L 360.130909 268.49448 
L 364.189091 268.476336 
L 368.247273 268.432488 
L 372.305455 268.36596 
L 376.363636 268.273728 
L 380.421818 268.158816 
L 384.48 268.0182 
L 388.538182 267.853392 
L 392.596364 267.664392 
L 396.654545 267.449688 
L 400.712727 267.210792 
L 404.770909 266.949216 
L 408.829091 266.661936 
L 412.887273 266.350464 
L 416.945455 266.016312 
L 421.003636 265.657968 
L 425.061818 265.275432 
L 429.12 264.871728 
L 433.178182 264.443832 
L 437.236364 263.994768 
L 441.294545 263.524536 
L 445.352727 263.033136 
L 449.410909 262.520568 
L 453.469091 261.988344 
L 457.527273 261.437976 
L 461.585455 260.867952 
L 465.643636 260.281296 
L 469.701818 259.676496 
L 473.76 259.058088 
L 477.818182 258.42456 
L 481.876364 257.777424 
L 485.934545 257.121216 
L 489.992727 256.461984 
L 494.050909 255.819384 
L 498.109091 255.405096 
" clip-path="url(#pbb45407b4c)" style="fill: none; stroke: #000000; stroke-opacity: 0.5; stroke-linecap: square"/>
   </g>
   <g id="line2d_19">
    <path d="M 92.290909 241.91352 
L 96.349091 241.88328 
L 100.407273 241.854552 
L 104.465455 241.84548 
L 108.523636 241.854552 
L 112.581818 241.880256 
L 116.64 241.92108 
L 120.698182 241.974 
L 124.756364 242.035992 
L 128.814545 242.107056 
L 132.872727 242.184168 
L 136.930909 242.267328 
L 140.989091 242.353512 
L 145.047273 242.44272 
L 149.105455 242.531928 
L 153.163636 242.621136 
L 157.221818 242.708832 
L 161.28 242.793504 
L 165.338182 242.87364 
L 169.396364 242.94924 
L 173.454545 243.01728 
L 177.512727 243.079272 
L 181.570909 243.132192 
L 185.629091 243.17604 
L 189.687273 243.210816 
L 193.745455 243.235008 
L 197.803636 243.247104 
L 201.861818 243.248616 
L 205.92 243.238032 
L 209.978182 243.215352 
L 214.036364 243.180576 
L 218.094545 243.132192 
L 222.152727 243.071712 
L 226.210909 242.999136 
L 230.269091 242.912952 
L 234.327273 242.816184 
L 238.385455 242.705808 
L 242.443636 242.584848 
L 246.501818 242.451792 
L 250.56 242.308152 
L 254.618182 242.153928 
L 258.676364 241.990632 
L 262.734545 241.818264 
L 266.792727 241.636824 
L 270.850909 241.447824 
L 274.909091 241.251264 
L 278.967273 241.050168 
L 283.025455 240.843024 
L 287.083636 240.632856 
L 291.141818 240.419664 
L 295.2 240.20496 
L 299.258182 239.990256 
L 303.316364 239.777064 
L 307.374545 239.566896 
L 311.432727 239.359752 
L 315.490909 239.160168 
L 319.549091 238.968144 
L 323.607273 238.785192 
L 327.665455 238.612824 
L 331.723636 238.455576 
L 335.781818 238.313448 
L 339.84 238.187952 
L 343.898182 238.083624 
L 347.956364 238.001976 
L 352.014545 237.943008 
L 356.072727 237.911256 
L 360.130909 237.90672 
L 364.189091 237.933936 
L 368.247273 237.992904 
L 372.305455 238.085136 
L 376.363636 238.213656 
L 380.421818 238.378464 
L 384.48 238.581072 
L 388.538182 238.82148 
L 392.596364 239.099688 
L 396.654545 239.415696 
L 400.712727 239.769504 
L 404.770909 240.161112 
L 408.829091 240.587496 
L 412.887273 241.048656 
L 416.945455 241.54308 
L 421.003636 242.067744 
L 425.061818 242.621136 
L 429.12 243.201744 
L 433.178182 243.806544 
L 437.236364 244.434024 
L 441.294545 245.08116 
L 445.352727 245.744928 
L 449.410909 246.425328 
L 453.469091 247.117824 
L 457.527273 247.820904 
L 461.585455 248.531544 
L 465.643636 249.249744 
L 469.701818 249.970968 
L 473.76 250.695216 
L 477.818182 251.419464 
L 481.876364 252.139176 
L 485.934545 252.854352 
L 489.992727 253.557432 
L 494.050909 254.224224 
L 498.109091 254.647584 
" clip-path="url(#pbb45407b4c)" style="fill: none; stroke: #000000; stroke-opacity: 0.5; stroke-linecap: square"/>
   </g>
   <g id="line2d_20">
    <path d="M 92.290909 193.429728 
L 96.349091 193.390416 
L 100.407273 193.277016 
L 104.465455 193.086504 
L 108.523636 192.821904 
L 112.581818 192.484728 
L 116.64 192.076488 
L 120.698182 191.598696 
L 124.756364 191.0574 
L 128.814545 190.451088 
L 132.872727 189.785808 
L 136.930909 189.06156 
L 140.989091 188.28288 
L 145.047273 187.452792 
L 149.105455 186.57432 
L 153.163636 185.648976 
L 157.221818 184.678272 
L 161.28 183.668256 
L 165.338182 182.617416 
L 169.396364 181.528776 
L 173.454545 180.406872 
L 177.512727 179.250192 
L 181.570909 178.06176 
L 185.629091 176.843088 
L 189.687273 175.595688 
L 193.745455 174.321072 
L 197.803636 173.020752 
L 201.861818 171.69624 
L 205.92 170.346024 
L 209.978182 168.97464 
L 214.036364 167.582088 
L 218.094545 166.166856 
L 222.152727 164.73348 
L 226.210909 163.280448 
L 230.269091 161.809272 
L 234.327273 160.319952 
L 238.385455 158.814 
L 242.443636 157.292928 
L 246.501818 155.755224 
L 250.56 154.205424 
L 254.618182 152.646552 
L 258.676364 151.092216 
L 262.734545 150.383088 
L 266.792727 151.787736 
L 270.850909 153.28764 
L 274.909091 154.79208 
L 278.967273 156.291984 
L 283.025455 157.776768 
L 287.083636 159.246432 
L 291.141818 160.694928 
L 295.2 162.120744 
L 299.258182 163.522368 
L 303.316364 164.896776 
L 307.374545 166.243968 
L 311.432727 167.559408 
L 315.490909 168.841584 
L 319.549091 170.090496 
L 323.607273 171.301608 
L 327.665455 172.47492 
L 331.723636 173.607408 
L 335.781818 174.694536 
L 339.84 175.737816 
L 343.898182 176.732712 
L 347.956364 177.677712 
L 352.014545 178.569792 
L 356.072727 179.40744 
L 360.130909 180.189144 
L 364.189091 180.910368 
L 368.247273 181.5696 
L 372.305455 182.16684 
L 376.363636 182.700576 
L 380.421818 183.167784 
L 384.48 183.566952 
L 388.538182 183.899592 
L 392.596364 184.164192 
L 396.654545 184.360752 
L 400.712727 184.490784 
L 404.770909 184.551264 
L 408.829091 184.546728 
L 412.887273 184.477176 
L 416.945455 184.34412 
L 421.003636 184.149072 
L 425.061818 183.893544 
L 429.12 183.58056 
L 433.178182 183.21012 
L 437.236364 182.785248 
L 441.294545 182.31048 
L 445.352727 181.784304 
L 449.410909 181.211256 
L 453.469091 180.591336 
L 457.527273 179.92908 
L 461.585455 179.224488 
L 465.643636 178.479072 
L 469.701818 177.697368 
L 473.76 176.877864 
L 477.818182 176.025096 
L 481.876364 175.139064 
L 485.934545 174.224304 
L 489.992727 173.28384 
L 494.050909 172.337328 
L 498.109091 171.649368 
" clip-path="url(#pbb45407b4c)" style="fill: none; stroke: #000000; stroke-opacity: 0.5; stroke-linecap: square"/>
   </g>
   <g id="line2d_21">
    <path d="M 92.290909 178.302168 
L 96.349091 178.271928 
L 100.407273 178.185744 
L 104.465455 178.03908 
L 108.523636 177.836472 
L 112.581818 177.576408 
L 116.64 177.258888 
L 120.698182 176.886936 
L 124.756364 176.45904 
L 128.814545 175.979736 
L 132.872727 175.446 
L 136.930909 174.862368 
L 140.989091 174.22884 
L 145.047273 173.546928 
L 149.105455 172.818144 
L 153.163636 172.042488 
L 157.221818 171.222984 
L 161.28 170.361144 
L 165.338182 169.45848 
L 169.396364 168.514992 
L 173.454545 167.533704 
L 177.512727 166.514616 
L 181.570909 165.460752 
L 185.629091 164.372112 
L 189.687273 163.250208 
L 193.745455 162.096552 
L 197.803636 160.911144 
L 201.861818 159.69852 
L 205.92 158.45868 
L 209.978182 157.193136 
L 214.036364 155.9034 
L 218.094545 154.594008 
L 222.152727 153.266472 
L 226.210909 151.92684 
L 230.269091 150.582672 
L 234.327273 149.253624 
L 238.385455 147.979008 
L 242.443636 146.860128 
L 246.501818 146.190312 
L 250.56 146.427696 
L 254.618182 147.4362 
L 258.676364 148.750128 
L 262.734545 149.323176 
L 266.792727 147.811176 
L 270.850909 146.205432 
L 274.909091 144.580032 
L 278.967273 142.942536 
L 283.025455 141.294456 
L 287.083636 139.637304 
L 291.141818 137.974104 
L 295.2 136.303344 
L 299.258182 134.62956 
L 303.316364 132.954264 
L 307.374545 131.28048 
L 311.432727 129.612744 
L 315.490909 127.958616 
L 319.549091 126.32868 
L 323.607273 124.744104 
L 327.665455 123.239664 
L 331.723636 121.887936 
L 335.781818 120.835584 
L 339.84 120.324528 
L 343.898182 120.539232 
L 347.956364 121.363272 
L 352.014545 122.54112 
L 356.072727 123.895872 
L 360.130909 125.341344 
L 364.189091 126.8352 
L 368.247273 128.351736 
L 372.305455 129.880368 
L 376.363636 131.412024 
L 380.421818 132.942168 
L 384.48 134.467776 
L 388.538182 135.985824 
L 392.596364 137.496312 
L 396.654545 138.996216 
L 400.712727 140.484024 
L 404.770909 141.959736 
L 408.829091 143.423352 
L 412.887273 144.87336 
L 416.945455 146.308248 
L 421.003636 147.729528 
L 425.061818 149.135688 
L 429.12 150.525216 
L 433.178182 151.899624 
L 437.236364 153.255888 
L 441.294545 154.59552 
L 445.352727 155.91852 
L 449.410909 157.221864 
L 453.469091 158.507064 
L 457.527273 159.77412 
L 461.585455 161.020008 
L 465.643636 162.24624 
L 469.701818 163.449792 
L 473.76 164.632176 
L 477.818182 165.79188 
L 481.876364 166.92588 
L 485.934545 168.035688 
L 489.992727 169.112232 
L 494.050909 170.141904 
L 498.109091 170.858592 
" clip-path="url(#pbb45407b4c)" style="fill: none; stroke: #000000; stroke-opacity: 0.5; stroke-linecap: square"/>
   </g>
   <g id="line2d_22">
    <path d="M 92.290909 88.087176 
L 96.349091 88.0902 
L 100.407273 88.144632 
L 104.465455 88.602768 
L 108.523636 89.275608 
L 112.581818 90.113256 
L 116.64 91.093032 
L 120.698182 92.19528 
L 124.756364 93.406392 
L 128.814545 94.706712 
L 132.872727 96.085656 
L 136.930909 97.528104 
L 140.989091 99.026496 
L 145.047273 100.570248 
L 149.105455 102.153312 
L 153.163636 103.768128 
L 157.221818 105.411672 
L 161.28 107.076384 
L 165.338182 108.75924 
L 169.396364 110.458728 
L 173.454545 112.1688 
L 177.512727 113.889456 
L 181.570909 115.61616 
L 185.629091 117.348912 
L 189.687273 119.083176 
L 193.745455 120.818952 
L 197.803636 122.554728 
L 201.861818 124.28748 
L 205.92 126.015696 
L 209.978182 127.739376 
L 214.036364 129.452472 
L 218.094545 131.156496 
L 222.152727 132.843888 
L 226.210909 134.511624 
L 230.269091 136.150632 
L 234.327273 137.742768 
L 238.385455 139.247208 
L 242.443636 140.562648 
L 246.501818 141.392736 
L 250.56 141.283872 
L 254.618182 140.361552 
L 258.676364 139.0824 
L 262.734545 137.650536 
L 266.792727 136.143072 
L 270.850909 134.587224 
L 274.909091 132.9966 
L 278.967273 131.37876 
L 283.025455 129.736728 
L 287.083636 128.07504 
L 291.141818 126.395208 
L 295.2 124.697232 
L 299.258182 122.985648 
L 303.316364 121.258944 
L 307.374545 119.521656 
L 311.432727 117.772272 
L 315.490909 116.018352 
L 319.549091 114.265944 
L 323.607273 112.5468 
L 327.665455 111.098304 
L 331.723636 111.323592 
L 335.781818 112.173336 
L 339.84 112.566456 
L 343.898182 112.2444 
L 347.956364 111.31452 
L 352.014545 110.02932 
L 356.072727 108.565704 
L 360.130909 107.015904 
L 364.189091 105.429816 
L 368.247273 103.842216 
L 372.305455 102.283344 
L 376.363636 100.786464 
L 380.421818 99.396936 
L 384.48 98.169192 
L 388.538182 97.159176 
L 392.596364 96.389568 
L 396.654545 95.8392 
L 400.712727 95.455152 
L 404.770909 95.186016 
L 408.829091 94.993992 
L 412.887273 94.851864 
L 416.945455 94.744512 
L 421.003636 94.658328 
L 425.061818 94.588776 
L 429.12 94.528296 
L 433.178182 94.476888 
L 437.236364 94.430016 
L 441.294545 94.386168 
L 445.352727 94.345344 
L 449.410909 94.306032 
L 453.469091 94.268232 
L 457.527273 94.231944 
L 461.585455 94.19868 
L 465.643636 94.165416 
L 469.701818 94.135176 
L 473.76 94.10796 
L 477.818182 94.083768 
L 481.876364 94.0626 
L 485.934545 94.045968 
L 489.992727 94.03236 
L 494.050909 94.0248 
L 498.109091 94.023288 
" clip-path="url(#pbb45407b4c)" style="fill: none; stroke: #000000; stroke-opacity: 0.5; stroke-linecap: square"/>
   </g>
   <g id="line2d_23">
    <path d="M 92.290909 87.684984 
L 96.349091 87.784776 
L 100.407273 88.040304 
L 104.465455 88.088688 
L 108.523636 88.100784 
L 112.581818 88.114392 
L 116.64 88.131024 
L 120.698182 88.149168 
L 124.756364 88.171848 
L 128.814545 88.19604 
L 132.872727 88.223256 
L 136.930909 88.253496 
L 140.989091 88.28676 
L 145.047273 88.321536 
L 149.105455 88.360848 
L 153.163636 88.403184 
L 157.221818 88.447032 
L 161.28 88.495416 
L 165.338182 88.545312 
L 169.396364 88.599744 
L 173.454545 88.655688 
L 177.512727 88.714656 
L 181.570909 88.776648 
L 185.629091 88.841664 
L 189.687273 88.909704 
L 193.745455 88.980768 
L 197.803636 89.054856 
L 201.861818 89.130456 
L 205.92 89.20908 
L 209.978182 89.290728 
L 214.036364 89.3754 
L 218.094545 89.463096 
L 222.152727 89.552304 
L 226.210909 89.644536 
L 230.269091 89.73828 
L 234.327273 89.83656 
L 238.385455 89.936352 
L 242.443636 90.039168 
L 246.501818 90.145008 
L 250.56 90.255384 
L 254.618182 90.370296 
L 258.676364 90.491256 
L 262.734545 90.621288 
L 266.792727 90.764928 
L 270.850909 90.935784 
L 274.909091 91.162584 
L 278.967273 91.523952 
L 283.025455 92.224008 
L 287.083636 93.436632 
L 291.141818 94.971312 
L 295.2 96.626952 
L 299.258182 98.321904 
L 303.316364 100.022904 
L 307.374545 101.717856 
L 311.432727 103.393152 
L 315.490909 105.038208 
L 319.549091 106.630344 
L 323.607273 108.122688 
L 327.665455 109.240056 
L 331.723636 108.508248 
L 335.781818 106.837488 
L 339.84 105.066936 
L 343.898182 103.273704 
L 347.956364 101.480472 
L 352.014545 99.700848 
L 356.072727 97.957512 
L 360.130909 96.294312 
L 364.189091 94.806504 
L 368.247273 93.658896 
L 372.305455 92.91348 
L 376.363636 92.390328 
L 380.421818 91.891368 
L 384.48 91.29564 
L 388.538182 90.52452 
L 392.596364 89.559864 
L 396.654545 88.447032 
L 400.712727 87.313032 
L 404.770909 86.355936 
L 408.829091 85.785912 
L 412.887273 85.599936 
L 416.945455 85.637736 
L 421.003636 85.782888 
L 425.061818 85.977936 
L 429.12 86.197176 
L 433.178182 86.427 
L 437.236364 86.658336 
L 441.294545 86.88816 
L 445.352727 87.110424 
L 449.410909 87.323616 
L 453.469091 87.526224 
L 457.527273 87.716736 
L 461.585455 87.89364 
L 465.643636 88.055424 
L 469.701818 88.200576 
L 473.76 88.329096 
L 477.818182 88.440984 
L 481.876364 88.533216 
L 485.934545 88.605792 
L 489.992727 88.6572 
L 494.050909 88.688952 
L 498.109091 88.699536 
" clip-path="url(#pbb45407b4c)" style="fill: none; stroke: #000000; stroke-opacity: 0.5; stroke-linecap: square"/>
   </g>
   <g id="patch_3">
    <path d="M 72 384.48 
L 72 51.84 
" style="fill: none; stroke: #000000; stroke-width: 0.8; stroke-linejoin: miter; stroke-linecap: square"/>
   </g>
   <g id="patch_4">
    <path d="M 518.4 384.48 
L 518.4 51.84 
" style="fill: none; stroke: #000000; stroke-width: 0.8; stroke-linejoin: miter; stroke-linecap: square"/>
   </g>
   <g id="patch_5">
    <path d="M 72 384.48 
L 518.4 384.48 
" style="fill: none; stroke: #000000; stroke-width: 0.8; stroke-linejoin: miter; stroke-linecap: square"/>
   </g>
   <g id="patch_6">
    <path d="M 72 51.84 
L 518.4 51.84 
" style="fill: none; stroke: #000000; stroke-width: 0.8; stroke-linejoin: miter; stroke-linecap: square"/>
   </g>
  </g>
 </g>
 <defs>
  <clipPath id="pbb45407b4c">
   <rect x="72" y="51.84" width="446.4" height="332.64"/>
  </clipPath>
 </defs>
</svg>
