<?xml version="1.0" encoding="utf-8" standalone="no"?>
<!DOCTYPE svg PUBLIC "-//W3C//DTD SVG 1.1//EN"
  "http://www.w3.org/Graphics/SVG/1.1/DTD/svg11.dtd">
<svg xmlns:xlink="http://www.w3.org/1999/xlink" width="576pt" height="432pt" viewBox="0 0 576 432" xmlns="http://www.w3.org/2000/svg" version="1.1">
 <metadata>
  <rdf:RDF xmlns:dc="http://purl.org/dc/elements/1.1/" xmlns:cc="http://creativecommons.org/ns#" xmlns:rdf="http://www.w3.org/1999/02/22-rdf-syntax-ns#">
   <cc:Work>
    <dc:type rdf:resource="http://purl.org/dc/dcmitype/StillImage"/>
    <dc:date>2023-05-04T10:11:52.496716</dc:date>
    <dc:format>image/svg+xml</dc:format>
    <dc:creator>
     <cc:Agent>
      <dc:title>Matplotlib v3.7.1, https://matplotlib.org/</dc:title>
     </cc:Agent>
    </dc:creator>
   </cc:Work>
  </rdf:RDF>
 </metadata>
 <defs>
  <style type="text/css">*{stroke-linejoin: round; stroke-linecap: butt}</style>
 </defs>
 <g id="figure_1">
  <g id="patch_1">
   <path d="M 0 432 
L 576 432 
L 576 0 
L 0 0 
z
" style="fill: #ffffff"/>
  </g>
  <g id="axes_1">
   <g id="patch_2">
    <path d="M 72 384.48 
L 518.4 384.48 
L 518.4 51.84 
L 72 51.84 
z
" style="fill: #ffffff"/>
   </g>
   <g id="matplotlib.axis_1">
    <g id="xtick_1">
     <g id="line2d_1">
      <defs>
       <path id="m07b02b6ede" d="M 0 0 
L 0 3.5 
" style="stroke: #000000; stroke-width: 0.8"/>
      </defs>
      <g>
       <use xlink:href="#m07b02b6ede" x="92.290909" y="384.48" style="stroke: #000000; stroke-width: 0.8"/>
      </g>
     </g>
     <g id="text_1">
      <!-- 0.0 -->
      <g transform="translate(84.339347 399.078438) scale(0.1 -0.1)">
       <defs>
        <path id="DejaVuSans-30" d="M 2034 4250 
Q 1547 4250 1301 3770 
Q 1056 3291 1056 2328 
Q 1056 1369 1301 889 
Q 1547 409 2034 409 
Q 2525 409 2770 889 
Q 3016 1369 3016 2328 
Q 3016 3291 2770 3770 
Q 2525 4250 2034 4250 
z
M 2034 4750 
Q 2819 4750 3233 4129 
Q 3647 3509 3647 2328 
Q 3647 1150 3233 529 
Q 2819 -91 2034 -91 
Q 1250 -91 836 529 
Q 422 1150 422 2328 
Q 422 3509 836 4129 
Q 1250 4750 2034 4750 
z
" transform="scale(0.015625)"/>
        <path id="DejaVuSans-2e" d="M 684 794 
L 1344 794 
L 1344 0 
L 684 0 
L 684 794 
z
" transform="scale(0.015625)"/>
       </defs>
       <use xlink:href="#DejaVuSans-30"/>
       <use xlink:href="#DejaVuSans-2e" x="63.623047"/>
       <use xlink:href="#DejaVuSans-30" x="95.410156"/>
      </g>
     </g>
    </g>
    <g id="xtick_2">
     <g id="line2d_2">
      <g>
       <use xlink:href="#m07b02b6ede" x="173.454545" y="384.48" style="stroke: #000000; stroke-width: 0.8"/>
      </g>
     </g>
     <g id="text_2">
      <!-- 0.2 -->
      <g transform="translate(165.502983 399.078438) scale(0.1 -0.1)">
       <defs>
        <path id="DejaVuSans-32" d="M 1228 531 
L 3431 531 
L 3431 0 
L 469 0 
L 469 531 
Q 828 903 1448 1529 
Q 2069 2156 2228 2338 
Q 2531 2678 2651 2914 
Q 2772 3150 2772 3378 
Q 2772 3750 2511 3984 
Q 2250 4219 1831 4219 
Q 1534 4219 1204 4116 
Q 875 4013 500 3803 
L 500 4441 
Q 881 4594 1212 4672 
Q 1544 4750 1819 4750 
Q 2544 4750 2975 4387 
Q 3406 4025 3406 3419 
Q 3406 3131 3298 2873 
Q 3191 2616 2906 2266 
Q 2828 2175 2409 1742 
Q 1991 1309 1228 531 
z
" transform="scale(0.015625)"/>
       </defs>
       <use xlink:href="#DejaVuSans-30"/>
       <use xlink:href="#DejaVuSans-2e" x="63.623047"/>
       <use xlink:href="#DejaVuSans-32" x="95.410156"/>
      </g>
     </g>
    </g>
    <g id="xtick_3">
     <g id="line2d_3">
      <g>
       <use xlink:href="#m07b02b6ede" x="254.618182" y="384.48" style="stroke: #000000; stroke-width: 0.8"/>
      </g>
     </g>
     <g id="text_3">
      <!-- 0.4 -->
      <g transform="translate(246.666619 399.078438) scale(0.1 -0.1)">
       <defs>
        <path id="DejaVuSans-34" d="M 2419 4116 
L 825 1625 
L 2419 1625 
L 2419 4116 
z
M 2253 4666 
L 3047 4666 
L 3047 1625 
L 3713 1625 
L 3713 1100 
L 3047 1100 
L 3047 0 
L 2419 0 
L 2419 1100 
L 313 1100 
L 313 1709 
L 2253 4666 
z
" transform="scale(0.015625)"/>
       </defs>
       <use xlink:href="#DejaVuSans-30"/>
       <use xlink:href="#DejaVuSans-2e" x="63.623047"/>
       <use xlink:href="#DejaVuSans-34" x="95.410156"/>
      </g>
     </g>
    </g>
    <g id="xtick_4">
     <g id="line2d_4">
      <g>
       <use xlink:href="#m07b02b6ede" x="335.781818" y="384.48" style="stroke: #000000; stroke-width: 0.8"/>
      </g>
     </g>
     <g id="text_4">
      <!-- 0.6 -->
      <g transform="translate(327.830256 399.078438) scale(0.1 -0.1)">
       <defs>
        <path id="DejaVuSans-36" d="M 2113 2584 
Q 1688 2584 1439 2293 
Q 1191 2003 1191 1497 
Q 1191 994 1439 701 
Q 1688 409 2113 409 
Q 2538 409 2786 701 
Q 3034 994 3034 1497 
Q 3034 2003 2786 2293 
Q 2538 2584 2113 2584 
z
M 3366 4563 
L 3366 3988 
Q 3128 4100 2886 4159 
Q 2644 4219 2406 4219 
Q 1781 4219 1451 3797 
Q 1122 3375 1075 2522 
Q 1259 2794 1537 2939 
Q 1816 3084 2150 3084 
Q 2853 3084 3261 2657 
Q 3669 2231 3669 1497 
Q 3669 778 3244 343 
Q 2819 -91 2113 -91 
Q 1303 -91 875 529 
Q 447 1150 447 2328 
Q 447 3434 972 4092 
Q 1497 4750 2381 4750 
Q 2619 4750 2861 4703 
Q 3103 4656 3366 4563 
z
" transform="scale(0.015625)"/>
       </defs>
       <use xlink:href="#DejaVuSans-30"/>
       <use xlink:href="#DejaVuSans-2e" x="63.623047"/>
       <use xlink:href="#DejaVuSans-36" x="95.410156"/>
      </g>
     </g>
    </g>
    <g id="xtick_5">
     <g id="line2d_5">
      <g>
       <use xlink:href="#m07b02b6ede" x="416.945455" y="384.48" style="stroke: #000000; stroke-width: 0.8"/>
      </g>
     </g>
     <g id="text_5">
      <!-- 0.8 -->
      <g transform="translate(408.993892 399.078438) scale(0.1 -0.1)">
       <defs>
        <path id="DejaVuSans-38" d="M 2034 2216 
Q 1584 2216 1326 1975 
Q 1069 1734 1069 1313 
Q 1069 891 1326 650 
Q 1584 409 2034 409 
Q 2484 409 2743 651 
Q 3003 894 3003 1313 
Q 3003 1734 2745 1975 
Q 2488 2216 2034 2216 
z
M 1403 2484 
Q 997 2584 770 2862 
Q 544 3141 544 3541 
Q 544 4100 942 4425 
Q 1341 4750 2034 4750 
Q 2731 4750 3128 4425 
Q 3525 4100 3525 3541 
Q 3525 3141 3298 2862 
Q 3072 2584 2669 2484 
Q 3125 2378 3379 2068 
Q 3634 1759 3634 1313 
Q 3634 634 3220 271 
Q 2806 -91 2034 -91 
Q 1263 -91 848 271 
Q 434 634 434 1313 
Q 434 1759 690 2068 
Q 947 2378 1403 2484 
z
M 1172 3481 
Q 1172 3119 1398 2916 
Q 1625 2713 2034 2713 
Q 2441 2713 2670 2916 
Q 2900 3119 2900 3481 
Q 2900 3844 2670 4047 
Q 2441 4250 2034 4250 
Q 1625 4250 1398 4047 
Q 1172 3844 1172 3481 
z
" transform="scale(0.015625)"/>
       </defs>
       <use xlink:href="#DejaVuSans-30"/>
       <use xlink:href="#DejaVuSans-2e" x="63.623047"/>
       <use xlink:href="#DejaVuSans-38" x="95.410156"/>
      </g>
     </g>
    </g>
    <g id="xtick_6">
     <g id="line2d_6">
      <g>
       <use xlink:href="#m07b02b6ede" x="498.109091" y="384.48" style="stroke: #000000; stroke-width: 0.8"/>
      </g>
     </g>
     <g id="text_6">
      <!-- 1.0 -->
      <g transform="translate(490.157528 399.078438) scale(0.1 -0.1)">
       <defs>
        <path id="DejaVuSans-31" d="M 794 531 
L 1825 531 
L 1825 4091 
L 703 3866 
L 703 4441 
L 1819 4666 
L 2450 4666 
L 2450 531 
L 3481 531 
L 3481 0 
L 794 0 
L 794 531 
z
" transform="scale(0.015625)"/>
       </defs>
       <use xlink:href="#DejaVuSans-31"/>
       <use xlink:href="#DejaVuSans-2e" x="63.623047"/>
       <use xlink:href="#DejaVuSans-30" x="95.410156"/>
      </g>
     </g>
    </g>
   </g>
   <g id="matplotlib.axis_2">
    <g id="ytick_1">
     <g id="line2d_7">
      <defs>
       <path id="m9d48e52d7b" d="M 0 0 
L -3.5 0 
" style="stroke: #000000; stroke-width: 0.8"/>
      </defs>
      <g>
       <use xlink:href="#m9d48e52d7b" x="72" y="369.36" style="stroke: #000000; stroke-width: 0.8"/>
      </g>
     </g>
     <g id="text_7">
      <!-- −5.0 -->
      <g transform="translate(40.717187 373.159219) scale(0.1 -0.1)">
       <defs>
        <path id="DejaVuSans-2212" d="M 678 2272 
L 4684 2272 
L 4684 1741 
L 678 1741 
L 678 2272 
z
" transform="scale(0.015625)"/>
        <path id="DejaVuSans-35" d="M 691 4666 
L 3169 4666 
L 3169 4134 
L 1269 4134 
L 1269 2991 
Q 1406 3038 1543 3061 
Q 1681 3084 1819 3084 
Q 2600 3084 3056 2656 
Q 3513 2228 3513 1497 
Q 3513 744 3044 326 
Q 2575 -91 1722 -91 
Q 1428 -91 1123 -41 
Q 819 9 494 109 
L 494 744 
Q 775 591 1075 516 
Q 1375 441 1709 441 
Q 2250 441 2565 725 
Q 2881 1009 2881 1497 
Q 2881 1984 2565 2268 
Q 2250 2553 1709 2553 
Q 1456 2553 1204 2497 
Q 953 2441 691 2322 
L 691 4666 
z
" transform="scale(0.015625)"/>
       </defs>
       <use xlink:href="#DejaVuSans-2212"/>
       <use xlink:href="#DejaVuSans-35" x="83.789062"/>
       <use xlink:href="#DejaVuSans-2e" x="147.412109"/>
       <use xlink:href="#DejaVuSans-30" x="179.199219"/>
      </g>
     </g>
    </g>
    <g id="ytick_2">
     <g id="line2d_8">
      <g>
       <use xlink:href="#m9d48e52d7b" x="72" y="331.56" style="stroke: #000000; stroke-width: 0.8"/>
      </g>
     </g>
     <g id="text_8">
      <!-- −2.5 -->
      <g transform="translate(40.717187 335.359219) scale(0.1 -0.1)">
       <use xlink:href="#DejaVuSans-2212"/>
       <use xlink:href="#DejaVuSans-32" x="83.789062"/>
       <use xlink:href="#DejaVuSans-2e" x="147.412109"/>
       <use xlink:href="#DejaVuSans-35" x="179.199219"/>
      </g>
     </g>
    </g>
    <g id="ytick_3">
     <g id="line2d_9">
      <g>
       <use xlink:href="#m9d48e52d7b" x="72" y="293.76" style="stroke: #000000; stroke-width: 0.8"/>
      </g>
     </g>
     <g id="text_9">
      <!-- 0.0 -->
      <g transform="translate(49.096875 297.559219) scale(0.1 -0.1)">
       <use xlink:href="#DejaVuSans-30"/>
       <use xlink:href="#DejaVuSans-2e" x="63.623047"/>
       <use xlink:href="#DejaVuSans-30" x="95.410156"/>
      </g>
     </g>
    </g>
    <g id="ytick_4">
     <g id="line2d_10">
      <g>
       <use xlink:href="#m9d48e52d7b" x="72" y="255.96" style="stroke: #000000; stroke-width: 0.8"/>
      </g>
     </g>
     <g id="text_10">
      <!-- 2.5 -->
      <g transform="translate(49.096875 259.759219) scale(0.1 -0.1)">
       <use xlink:href="#DejaVuSans-32"/>
       <use xlink:href="#DejaVuSans-2e" x="63.623047"/>
       <use xlink:href="#DejaVuSans-35" x="95.410156"/>
      </g>
     </g>
    </g>
    <g id="ytick_5">
     <g id="line2d_11">
      <g>
       <use xlink:href="#m9d48e52d7b" x="72" y="218.16" style="stroke: #000000; stroke-width: 0.8"/>
      </g>
     </g>
     <g id="text_11">
      <!-- 5.0 -->
      <g transform="translate(49.096875 221.959219) scale(0.1 -0.1)">
       <use xlink:href="#DejaVuSans-35"/>
       <use xlink:href="#DejaVuSans-2e" x="63.623047"/>
       <use xlink:href="#DejaVuSans-30" x="95.410156"/>
      </g>
     </g>
    </g>
    <g id="ytick_6">
     <g id="line2d_12">
      <g>
       <use xlink:href="#m9d48e52d7b" x="72" y="180.36" style="stroke: #000000; stroke-width: 0.8"/>
      </g>
     </g>
     <g id="text_12">
      <!-- 7.5 -->
      <g transform="translate(49.096875 184.159219) scale(0.1 -0.1)">
       <defs>
        <path id="DejaVuSans-37" d="M 525 4666 
L 3525 4666 
L 3525 4397 
L 1831 0 
L 1172 0 
L 2766 4134 
L 525 4134 
L 525 4666 
z
" transform="scale(0.015625)"/>
       </defs>
       <use xlink:href="#DejaVuSans-37"/>
       <use xlink:href="#DejaVuSans-2e" x="63.623047"/>
       <use xlink:href="#DejaVuSans-35" x="95.410156"/>
      </g>
     </g>
    </g>
    <g id="ytick_7">
     <g id="line2d_13">
      <g>
       <use xlink:href="#m9d48e52d7b" x="72" y="142.56" style="stroke: #000000; stroke-width: 0.8"/>
      </g>
     </g>
     <g id="text_13">
      <!-- 10.0 -->
      <g transform="translate(42.734375 146.359219) scale(0.1 -0.1)">
       <use xlink:href="#DejaVuSans-31"/>
       <use xlink:href="#DejaVuSans-30" x="63.623047"/>
       <use xlink:href="#DejaVuSans-2e" x="127.246094"/>
       <use xlink:href="#DejaVuSans-30" x="159.033203"/>
      </g>
     </g>
    </g>
    <g id="ytick_8">
     <g id="line2d_14">
      <g>
       <use xlink:href="#m9d48e52d7b" x="72" y="104.76" style="stroke: #000000; stroke-width: 0.8"/>
      </g>
     </g>
     <g id="text_14">
      <!-- 12.5 -->
      <g transform="translate(42.734375 108.559219) scale(0.1 -0.1)">
       <use xlink:href="#DejaVuSans-31"/>
       <use xlink:href="#DejaVuSans-32" x="63.623047"/>
       <use xlink:href="#DejaVuSans-2e" x="127.246094"/>
       <use xlink:href="#DejaVuSans-35" x="159.033203"/>
      </g>
     </g>
    </g>
    <g id="ytick_9">
     <g id="line2d_15">
      <g>
       <use xlink:href="#m9d48e52d7b" x="72" y="66.96" style="stroke: #000000; stroke-width: 0.8"/>
      </g>
     </g>
     <g id="text_15">
      <!-- 15.0 -->
      <g transform="translate(42.734375 70.759219) scale(0.1 -0.1)">
       <use xlink:href="#DejaVuSans-31"/>
       <use xlink:href="#DejaVuSans-35" x="63.623047"/>
       <use xlink:href="#DejaVuSans-2e" x="127.246094"/>
       <use xlink:href="#DejaVuSans-30" x="159.033203"/>
      </g>
     </g>
    </g>
   </g>
   <g id="line2d_16">
    <path d="M 92.290909 320.57532 
L 96.349091 321.166512 
L 100.407273 322.161408 
L 104.465455 323.21376 
L 108.523636 324.276696 
L 112.581818 325.341144 
L 116.64 326.402568 
L 120.698182 327.457944 
L 124.756364 328.507272 
L 128.814545 329.54904 
L 132.872727 330.583248 
L 136.930909 331.611408 
L 140.989091 332.630496 
L 145.047273 333.642024 
L 149.105455 334.645992 
L 153.163636 335.640888 
L 157.221818 336.626712 
L 161.28 337.603464 
L 165.338182 338.571144 
L 169.396364 339.531264 
L 173.454545 340.4808 
L 177.512727 341.421264 
L 181.570909 342.352656 
L 185.629091 343.273464 
L 189.687273 344.1852 
L 193.745455 345.087864 
L 197.803636 345.979944 
L 201.861818 346.86144 
L 205.92 347.733864 
L 209.978182 348.595704 
L 214.036364 349.44696 
L 218.094545 350.287632 
L 222.152727 351.119232 
L 226.210909 351.938736 
L 230.269091 352.749168 
L 234.327273 353.547504 
L 238.385455 354.335256 
L 242.443636 355.112424 
L 246.501818 355.879008 
L 250.56 356.633496 
L 254.618182 357.3774 
L 258.676364 358.11072 
L 262.734545 358.831944 
L 266.792727 359.542584 
L 270.850909 360.241128 
L 274.909091 360.929088 
L 278.967273 361.604952 
L 283.025455 362.270232 
L 287.083636 362.923416 
L 291.141818 363.564504 
L 295.2 364.195008 
L 299.258182 364.813416 
L 303.316364 365.419728 
L 307.374545 366.013944 
L 311.432727 366.596064 
L 315.490909 367.1676 
L 319.549091 367.725528 
L 323.607273 368.272872 
L 327.665455 368.806608 
L 331.723636 369.32976 
L 335.781818 369.840816 
L 339.84 370.338264 
L 343.898182 370.825128 
L 347.956364 371.298384 
L 352.014545 371.761056 
L 356.072727 372.21012 
L 360.130909 372.647088 
L 364.189091 373.07196 
L 368.247273 373.483224 
L 372.305455 373.883904 
L 376.363636 374.270976 
L 380.421818 374.645952 
L 384.48 375.008832 
L 388.538182 375.358104 
L 392.596364 375.696792 
L 396.654545 376.021872 
L 400.712727 376.333344 
L 404.770909 376.63272 
L 408.829091 376.92 
L 412.887273 377.195184 
L 416.945455 377.45676 
L 421.003636 377.70624 
L 425.061818 377.942112 
L 429.12 378.165888 
L 433.178182 378.377568 
L 437.236364 378.57564 
L 441.294545 378.761616 
L 445.352727 378.933984 
L 449.410909 379.094256 
L 453.469091 379.24092 
L 457.527273 379.375488 
L 461.585455 379.49796 
L 465.643636 379.606824 
L 469.701818 379.703592 
L 473.76 379.786752 
L 477.818182 379.856304 
L 481.876364 379.91376 
L 485.934545 379.95912 
L 489.992727 379.990872 
L 494.050909 380.010528 
L 498.109091 380.016576 
" clip-path="url(#p79fcf2f5eb)" style="fill: none; stroke: #000000; stroke-opacity: 0.5; stroke-linecap: square"/>
   </g>
   <g id="line2d_17">
    <path d="M 92.290909 319.111704 
L 96.349091 318.512952 
L 100.407273 317.4984 
L 104.465455 316.414296 
L 108.523636 315.306 
L 112.581818 314.184096 
L 116.64 313.051608 
L 120.698182 311.913072 
L 124.756364 310.768488 
L 128.814545 309.616344 
L 132.872727 308.459664 
L 136.930909 307.298448 
L 140.989091 306.132696 
L 145.047273 304.962408 
L 149.105455 303.789096 
L 153.163636 302.611248 
L 157.221818 301.430376 
L 161.28 300.24648 
L 165.338182 299.05956 
L 169.396364 297.869616 
L 173.454545 296.67816 
L 177.512727 295.485192 
L 181.570909 294.290712 
L 185.629091 293.093208 
L 189.687273 291.895704 
L 193.745455 290.6982 
L 197.803636 289.499184 
L 201.861818 288.300168 
L 205.92 287.101152 
L 209.978182 285.902136 
L 214.036364 284.70312 
L 218.094545 283.505616 
L 222.152727 282.309624 
L 226.210909 281.113632 
L 230.269091 279.920664 
L 234.327273 278.729208 
L 238.385455 277.540776 
L 242.443636 276.353856 
L 246.501818 275.16996 
L 250.56 273.987576 
L 254.618182 272.809728 
L 258.676364 271.634904 
L 262.734545 270.464616 
L 266.792727 269.297352 
L 270.850909 268.133112 
L 274.909091 266.97492 
L 278.967273 265.819752 
L 283.025455 264.66912 
L 287.083636 263.523024 
L 291.141818 262.381464 
L 295.2 261.245952 
L 299.258182 260.113464 
L 303.316364 258.987024 
L 307.374545 257.86512 
L 311.432727 256.747752 
L 315.490909 255.636432 
L 319.549091 254.528136 
L 323.607273 253.425888 
L 327.665455 252.329688 
L 331.723636 251.236512 
L 335.781818 250.149384 
L 339.84 249.06528 
L 343.898182 247.987224 
L 347.956364 246.913704 
L 352.014545 245.843208 
L 356.072727 244.77876 
L 360.130909 243.717336 
L 364.189091 242.66196 
L 368.247273 241.608096 
L 372.305455 240.56028 
L 376.363636 239.517 
L 380.421818 238.476744 
L 384.48 237.441024 
L 388.538182 236.408328 
L 392.596364 235.38168 
L 396.654545 234.358056 
L 400.712727 233.338968 
L 404.770909 232.325928 
L 408.829091 231.317424 
L 412.887273 230.313456 
L 416.945455 229.317048 
L 421.003636 228.325176 
L 425.061818 227.340864 
L 429.12 226.365624 
L 433.178182 225.396432 
L 437.236364 224.437824 
L 441.294545 223.4898 
L 445.352727 222.553872 
L 449.410909 221.631552 
L 453.469091 220.725864 
L 457.527273 219.83832 
L 461.585455 218.970432 
L 465.643636 218.12976 
L 469.701818 217.319328 
L 473.76 216.546696 
L 477.818182 215.822448 
L 481.876364 215.161704 
L 485.934545 214.58412 
L 489.992727 214.12296 
L 494.050909 213.819048 
L 498.109091 213.711696 
" clip-path="url(#p79fcf2f5eb)" style="fill: none; stroke: #000000; stroke-opacity: 0.5; stroke-linecap: square"/>
   </g>
   <g id="line2d_18">
    <path d="M 92.290909 251.835264 
L 96.349091 251.827704 
L 100.407273 251.806536 
L 104.465455 251.77176 
L 108.523636 251.721864 
L 112.581818 251.656848 
L 116.64 251.579736 
L 120.698182 251.487504 
L 124.756364 251.380152 
L 128.814545 251.259192 
L 132.872727 251.124624 
L 136.930909 250.974936 
L 140.989091 250.81164 
L 145.047273 250.633224 
L 149.105455 250.4412 
L 153.163636 250.235568 
L 157.221818 250.014816 
L 161.28 249.780456 
L 165.338182 249.532488 
L 169.396364 249.270912 
L 173.454545 248.994216 
L 177.512727 248.703912 
L 181.570909 248.398488 
L 185.629091 248.080968 
L 189.687273 247.748328 
L 193.745455 247.403592 
L 197.803636 247.043736 
L 201.861818 246.670272 
L 205.92 246.2832 
L 209.978182 245.884032 
L 214.036364 245.469744 
L 218.094545 245.04336 
L 222.152727 244.60488 
L 226.210909 244.152792 
L 230.269091 243.687096 
L 234.327273 243.210816 
L 238.385455 242.720928 
L 242.443636 242.220456 
L 246.501818 241.707888 
L 250.56 241.183224 
L 254.618182 240.647976 
L 258.676364 240.103656 
L 262.734545 239.54724 
L 266.792727 238.981752 
L 270.850909 238.40568 
L 274.909091 237.822048 
L 278.967273 237.229344 
L 283.025455 236.627568 
L 287.083636 236.018232 
L 291.141818 235.402848 
L 295.2 234.778392 
L 299.258182 234.1494 
L 303.316364 233.512848 
L 307.374545 232.870248 
L 311.432727 232.2216 
L 315.490909 231.569928 
L 319.549091 230.910696 
L 323.607273 230.24844 
L 327.665455 229.580136 
L 331.723636 228.908808 
L 335.781818 228.234456 
L 339.84 227.554056 
L 343.898182 226.872144 
L 347.956364 226.185696 
L 352.014545 225.497736 
L 356.072727 224.806752 
L 360.130909 224.112744 
L 364.189091 223.417224 
L 368.247273 222.720192 
L 372.305455 222.02316 
L 376.363636 221.324616 
L 380.421818 220.626072 
L 384.48 219.92904 
L 388.538182 219.23352 
L 392.596364 218.539512 
L 396.654545 217.848528 
L 400.712727 217.16208 
L 404.770909 216.48168 
L 408.829091 215.807328 
L 412.887273 215.139024 
L 416.945455 214.481304 
L 421.003636 213.834168 
L 425.061818 213.199128 
L 429.12 212.579208 
L 433.178182 211.97592 
L 437.236364 211.392288 
L 441.294545 210.829824 
L 445.352727 210.294576 
L 449.410909 209.788056 
L 453.469091 209.316312 
L 457.527273 208.888416 
L 461.585455 208.511928 
L 465.643636 208.204992 
L 469.701818 207.993312 
L 473.76 207.907128 
L 477.818182 207.958536 
L 481.876364 208.121832 
L 485.934545 208.33956 
L 489.992727 208.5588 
L 494.050909 208.723608 
L 498.109091 208.784088 
" clip-path="url(#p79fcf2f5eb)" style="fill: none; stroke: #000000; stroke-opacity: 0.5; stroke-linecap: square"/>
   </g>
   <g id="line2d_19">
    <path d="M 92.290909 246.044304 
L 96.349091 246.038256 
L 100.407273 246.020112 
L 104.465455 245.98836 
L 108.523636 245.946024 
L 112.581818 245.89008 
L 116.64 245.82204 
L 120.698182 245.741904 
L 124.756364 245.649672 
L 128.814545 245.545344 
L 132.872727 245.42892 
L 136.930909 245.298888 
L 140.989091 245.15676 
L 145.047273 245.002536 
L 149.105455 244.836216 
L 153.163636 244.6578 
L 157.221818 244.467288 
L 161.28 244.263168 
L 165.338182 244.046952 
L 169.396364 243.81864 
L 173.454545 243.57672 
L 177.512727 243.322704 
L 181.570909 243.056592 
L 185.629091 242.778384 
L 189.687273 242.486568 
L 193.745455 242.182656 
L 197.803636 241.866648 
L 201.861818 241.537032 
L 205.92 241.193808 
L 209.978182 240.838488 
L 214.036364 240.471072 
L 218.094545 240.088536 
L 222.152727 239.693904 
L 226.210909 239.287176 
L 230.269091 238.865328 
L 234.327273 238.431384 
L 238.385455 237.98232 
L 242.443636 237.52116 
L 246.501818 237.04488 
L 250.56 236.554992 
L 254.618182 236.051496 
L 258.676364 235.53288 
L 262.734545 235.000656 
L 266.792727 234.453312 
L 270.850909 233.890848 
L 274.909091 233.314776 
L 278.967273 232.723584 
L 283.025455 232.117272 
L 287.083636 231.497352 
L 291.141818 230.862312 
L 295.2 230.212152 
L 299.258182 229.548384 
L 303.316364 228.871008 
L 307.374545 228.178512 
L 311.432727 227.47392 
L 315.490909 226.75572 
L 319.549091 226.026936 
L 323.607273 225.286056 
L 327.665455 224.53308 
L 331.723636 223.772544 
L 335.781818 223.001424 
L 339.84 222.224256 
L 343.898182 221.439528 
L 347.956364 220.650264 
L 352.014545 219.857976 
L 356.072727 219.062664 
L 360.130909 218.267352 
L 364.189091 217.47204 
L 368.247273 216.681264 
L 372.305455 215.895024 
L 376.363636 215.117856 
L 380.421818 214.34976 
L 384.48 213.59376 
L 388.538182 212.854392 
L 392.596364 212.131656 
L 396.654545 211.433112 
L 400.712727 210.75876 
L 404.770909 210.113136 
L 408.829091 209.499264 
L 412.887273 208.923192 
L 416.945455 208.386432 
L 421.003636 207.895032 
L 425.061818 207.452016 
L 429.12 207.06192 
L 433.178182 206.726256 
L 437.236364 206.44956 
L 441.294545 206.233344 
L 445.352727 206.077608 
L 449.410909 205.982352 
L 453.469091 205.944552 
L 457.527273 205.959672 
L 461.585455 206.015616 
L 465.643636 206.095752 
L 469.701818 206.171352 
L 473.76 206.206128 
L 477.818182 206.178912 
L 481.876364 206.104824 
L 485.934545 206.015616 
L 489.992727 205.938504 
L 494.050909 205.887096 
L 498.109091 205.868952 
" clip-path="url(#p79fcf2f5eb)" style="fill: none; stroke: #000000; stroke-opacity: 0.5; stroke-linecap: square"/>
   </g>
   <g id="line2d_20">
    <path d="M 92.290909 190.198584 
L 96.349091 190.198584 
L 100.407273 190.19556 
L 104.465455 190.191024 
L 108.523636 190.184976 
L 112.581818 190.175904 
L 116.64 190.162296 
L 120.698182 190.145664 
L 124.756364 190.124496 
L 128.814545 190.098792 
L 132.872727 190.065528 
L 136.930909 190.026216 
L 140.989091 189.977832 
L 145.047273 189.9234 
L 149.105455 189.859896 
L 153.163636 189.78732 
L 157.221818 189.70416 
L 161.28 189.61344 
L 165.338182 189.510624 
L 169.396364 189.397224 
L 173.454545 189.274752 
L 177.512727 189.140184 
L 181.570909 188.99352 
L 185.629091 188.837784 
L 189.687273 188.66844 
L 193.745455 188.488512 
L 197.803636 188.298 
L 201.861818 188.095392 
L 205.92 187.880688 
L 209.978182 187.6554 
L 214.036364 187.416504 
L 218.094545 187.168536 
L 222.152727 186.908472 
L 226.210909 186.636312 
L 230.269091 186.353568 
L 234.327273 186.058728 
L 238.385455 185.753304 
L 242.443636 185.437296 
L 246.501818 185.109192 
L 250.56 184.772016 
L 254.618182 184.422744 
L 258.676364 184.0644 
L 262.734545 183.695472 
L 266.792727 183.317472 
L 270.850909 182.928888 
L 274.909091 182.52972 
L 278.967273 182.122992 
L 283.025455 181.70568 
L 287.083636 181.280808 
L 291.141818 180.846864 
L 295.2 180.40536 
L 299.258182 179.954784 
L 303.316364 179.496648 
L 307.374545 179.032464 
L 311.432727 178.56072 
L 315.490909 178.082928 
L 319.549091 177.599088 
L 323.607273 177.1092 
L 327.665455 176.614776 
L 331.723636 176.114304 
L 335.781818 175.610808 
L 339.84 175.104288 
L 343.898182 174.593232 
L 347.956364 174.080664 
L 352.014545 173.566584 
L 356.072727 173.050992 
L 360.130909 172.5354 
L 364.189091 172.02132 
L 368.247273 171.50724 
L 372.305455 170.997696 
L 376.363636 170.489664 
L 380.421818 169.98768 
L 384.48 169.491744 
L 388.538182 169.00488 
L 392.596364 168.525576 
L 396.654545 168.05988 
L 400.712727 167.60628 
L 404.770909 167.170824 
L 408.829091 166.756536 
L 412.887273 166.367952 
L 416.945455 166.01112 
L 421.003636 165.695112 
L 425.061818 165.430512 
L 429.12 165.227904 
L 433.178182 165.094848 
L 437.236364 165.029832 
L 441.294545 165.017736 
L 445.352727 165.037392 
L 449.410909 165.067632 
L 453.469091 165.102408 
L 457.527273 165.146256 
L 461.585455 165.215808 
L 465.643636 165.33072 
L 469.701818 165.498552 
L 473.76 165.702672 
L 477.818182 165.914352 
L 481.876364 166.112424 
L 485.934545 166.278744 
L 489.992727 166.402728 
L 494.050909 166.47984 
L 498.109091 166.507056 
" clip-path="url(#p79fcf2f5eb)" style="fill: none; stroke: #000000; stroke-opacity: 0.5; stroke-linecap: square"/>
   </g>
   <g id="line2d_21">
    <path d="M 92.290909 182.844216 
L 96.349091 182.827584 
L 100.407273 182.7792 
L 104.465455 182.699064 
L 108.523636 182.588688 
L 112.581818 182.44656 
L 116.64 182.274192 
L 120.698182 182.071584 
L 124.756364 181.840248 
L 128.814545 181.581696 
L 132.872727 181.294416 
L 136.930909 180.981432 
L 140.989091 180.642744 
L 145.047273 180.27684 
L 149.105455 179.888256 
L 153.163636 179.473968 
L 157.221818 179.037 
L 161.28 178.57584 
L 165.338182 178.092 
L 169.396364 177.58548 
L 173.454545 177.057792 
L 177.512727 176.507424 
L 181.570909 175.935888 
L 185.629091 175.343184 
L 189.687273 174.729312 
L 193.745455 174.094272 
L 197.803636 173.438064 
L 201.861818 172.763712 
L 205.92 172.068192 
L 209.978182 171.353016 
L 214.036364 170.618184 
L 218.094545 169.863696 
L 222.152727 169.091064 
L 226.210909 168.300288 
L 230.269091 167.489856 
L 234.327273 166.66128 
L 238.385455 165.816072 
L 242.443636 164.954232 
L 246.501818 164.074248 
L 250.56 163.179144 
L 254.618182 162.26892 
L 258.676364 161.343576 
L 262.734545 160.404624 
L 266.792727 159.453576 
L 270.850909 158.490432 
L 274.909091 157.518216 
L 278.967273 156.535416 
L 283.025455 155.54808 
L 287.083636 154.55772 
L 291.141818 153.565848 
L 295.2 152.577 
L 299.258182 151.597224 
L 303.316364 150.63408 
L 307.374545 149.69664 
L 311.432727 148.797 
L 315.490909 147.954816 
L 319.549091 147.19428 
L 323.607273 146.55168 
L 327.665455 146.06784 
L 331.723636 145.792656 
L 335.781818 145.75788 
L 339.84 145.968048 
L 343.898182 146.397456 
L 347.956364 146.996208 
L 352.014545 147.718944 
L 356.072727 148.52484 
L 360.130909 149.38668 
L 364.189091 150.280272 
L 368.247273 151.192008 
L 372.305455 152.109792 
L 376.363636 153.026064 
L 380.421818 153.931752 
L 384.48 154.823832 
L 388.538182 155.693232 
L 392.596364 156.536928 
L 396.654545 157.350384 
L 400.712727 158.12604 
L 404.770909 158.85936 
L 408.829091 159.545808 
L 412.887273 160.176312 
L 416.945455 160.744824 
L 421.003636 161.24076 
L 425.061818 161.655048 
L 429.12 161.977104 
L 433.178182 162.205416 
L 437.236364 162.350568 
L 441.294545 162.441288 
L 445.352727 162.522936 
L 449.410909 162.637848 
L 453.469091 162.807192 
L 457.527273 163.006776 
L 461.585455 163.18368 
L 465.643636 163.283472 
L 469.701818 163.277424 
L 473.76 163.16856 
L 477.818182 162.982584 
L 481.876364 162.743688 
L 485.934545 162.47304 
L 489.992727 162.190296 
L 494.050909 161.924184 
L 498.109091 161.768448 
" clip-path="url(#p79fcf2f5eb)" style="fill: none; stroke: #000000; stroke-opacity: 0.5; stroke-linecap: square"/>
   </g>
   <g id="line2d_22">
    <path d="M 92.290909 65.779128 
L 96.349091 66.14352 
L 100.407273 66.984192 
L 104.465455 68.035032 
L 108.523636 69.188688 
L 112.581818 70.401312 
L 116.64 71.651736 
L 120.698182 72.92484 
L 124.756364 74.216088 
L 128.814545 75.51792 
L 132.872727 76.827312 
L 136.930909 78.142752 
L 140.989091 79.459704 
L 145.047273 80.778168 
L 149.105455 82.098144 
L 153.163636 83.41812 
L 157.221818 84.736584 
L 161.28 86.052024 
L 165.338182 87.367464 
L 169.396364 88.67988 
L 173.454545 89.989272 
L 177.512727 91.297152 
L 181.570909 92.602008 
L 185.629091 93.90384 
L 189.687273 95.201136 
L 193.745455 96.49692 
L 197.803636 97.78968 
L 201.861818 99.079416 
L 205.92 100.366128 
L 209.978182 101.648304 
L 214.036364 102.928968 
L 218.094545 104.206608 
L 222.152727 105.479712 
L 226.210909 106.751304 
L 230.269091 108.01836 
L 234.327273 109.282392 
L 238.385455 110.5434 
L 242.443636 111.801384 
L 246.501818 113.05332 
L 250.56 114.303744 
L 254.618182 115.54812 
L 258.676364 116.78796 
L 262.734545 118.023264 
L 266.792727 119.251008 
L 270.850909 120.474216 
L 274.909091 121.688352 
L 278.967273 122.893416 
L 283.025455 124.087896 
L 287.083636 125.27028 
L 291.141818 126.437544 
L 295.2 127.586664 
L 299.258182 128.713104 
L 303.316364 129.810816 
L 307.374545 130.870728 
L 311.432727 131.882256 
L 315.490909 132.827256 
L 319.549091 133.683048 
L 323.607273 134.41788 
L 327.665455 134.989416 
L 331.723636 135.356832 
L 335.781818 135.486864 
L 339.84 135.391608 
L 343.898182 135.668304 
L 347.956364 136.800792 
L 352.014545 137.943864 
L 356.072727 139.0824 
L 360.130909 140.210352 
L 364.189091 141.330744 
L 368.247273 142.440552 
L 372.305455 143.538264 
L 376.363636 144.62388 
L 380.421818 145.698912 
L 384.48 146.758824 
L 388.538182 147.805128 
L 392.596364 148.8348 
L 396.654545 149.849352 
L 400.712727 150.844248 
L 404.770909 151.821 
L 408.829091 152.775072 
L 412.887273 153.704952 
L 416.945455 154.609128 
L 421.003636 155.481552 
L 425.061818 156.320712 
L 429.12 157.12056 
L 433.178182 157.870512 
L 437.236364 158.561496 
L 441.294545 159.17688 
L 445.352727 159.69096 
L 449.410909 160.081056 
L 453.469091 160.335072 
L 457.527273 160.474176 
L 461.585455 160.53768 
L 465.643636 160.566408 
L 469.701818 160.587576 
L 473.76 160.623864 
L 477.818182 160.685856 
L 481.876364 160.782624 
L 485.934545 160.918704 
L 489.992727 161.091072 
L 494.050909 161.28612 
L 498.109091 161.416152 
" clip-path="url(#p79fcf2f5eb)" style="fill: none; stroke: #000000; stroke-opacity: 0.5; stroke-linecap: square"/>
   </g>
   <g id="line2d_23">
    <path d="M 92.290909 63.228384 
L 96.349091 63.027288 
L 100.407273 62.6886 
L 104.465455 62.52228 
L 108.523636 62.65836 
L 112.581818 63.116496 
L 116.64 63.843768 
L 120.698182 64.770624 
L 124.756364 65.835072 
L 128.814545 66.996288 
L 132.872727 68.221008 
L 136.930909 69.489576 
L 140.989091 70.791408 
L 145.047273 72.114408 
L 149.105455 73.45404 
L 153.163636 74.804256 
L 157.221818 76.162032 
L 161.28 77.525856 
L 165.338182 78.894216 
L 169.396364 80.262576 
L 173.454545 81.63396 
L 177.512727 83.003832 
L 181.570909 84.372192 
L 185.629091 85.740552 
L 189.687273 87.1074 
L 193.745455 88.469712 
L 197.803636 89.830512 
L 201.861818 91.188288 
L 205.92 92.54304 
L 209.978182 93.894768 
L 214.036364 95.240448 
L 218.094545 96.584616 
L 222.152727 97.922736 
L 226.210909 99.257832 
L 230.269091 100.58688 
L 234.327273 101.912904 
L 238.385455 103.23288 
L 242.443636 104.549832 
L 246.501818 105.860736 
L 250.56 107.167104 
L 254.618182 108.467424 
L 258.676364 109.763208 
L 262.734545 111.052944 
L 266.792727 112.338144 
L 270.850909 113.618808 
L 274.909091 114.893424 
L 278.967273 116.161992 
L 283.025455 117.424512 
L 287.083636 118.682496 
L 291.141818 119.934432 
L 295.2 121.18032 
L 299.258182 122.42016 
L 303.316364 123.653952 
L 307.374545 124.881696 
L 311.432727 126.10188 
L 315.490909 127.317528 
L 319.549091 128.525616 
L 323.607273 129.727656 
L 327.665455 130.920624 
L 331.723636 132.107544 
L 335.781818 133.285392 
L 339.84 134.443584 
L 343.898182 135.018144 
L 347.956364 134.579664 
L 352.014545 134.02476 
L 356.072727 133.418448 
L 360.130909 132.804576 
L 364.189091 132.214896 
L 368.247273 131.679648 
L 372.305455 131.221512 
L 376.363636 130.863168 
L 380.421818 130.625784 
L 384.48 130.519944 
L 388.538182 130.556232 
L 392.596364 130.73616 
L 396.654545 131.05368 
L 400.712727 131.49972 
L 404.770909 132.062184 
L 408.829091 132.722928 
L 412.887273 133.466832 
L 416.945455 134.280288 
L 421.003636 135.146664 
L 425.061818 136.053864 
L 429.12 136.991304 
L 433.178182 137.9484 
L 437.236364 138.914568 
L 441.294545 139.882248 
L 445.352727 140.842368 
L 449.410909 141.78888 
L 453.469091 142.712712 
L 457.527273 143.606304 
L 461.585455 144.459072 
L 465.643636 145.264968 
L 469.701818 146.011896 
L 473.76 146.692296 
L 477.818182 147.291048 
L 481.876364 147.800592 
L 485.934545 148.210344 
L 489.992727 148.511232 
L 494.050909 148.694184 
L 498.109091 148.754664 
" clip-path="url(#p79fcf2f5eb)" style="fill: none; stroke: #000000; stroke-opacity: 0.5; stroke-linecap: square"/>
   </g>
   <g id="patch_3">
    <path d="M 72 384.48 
L 72 51.84 
" style="fill: none; stroke: #000000; stroke-width: 0.8; stroke-linejoin: miter; stroke-linecap: square"/>
   </g>
   <g id="patch_4">
    <path d="M 518.4 384.48 
L 518.4 51.84 
" style="fill: none; stroke: #000000; stroke-width: 0.8; stroke-linejoin: miter; stroke-linecap: square"/>
   </g>
   <g id="patch_5">
    <path d="M 72 384.48 
L 518.4 384.48 
" style="fill: none; stroke: #000000; stroke-width: 0.8; stroke-linejoin: miter; stroke-linecap: square"/>
   </g>
   <g id="patch_6">
    <path d="M 72 51.84 
L 518.4 51.84 
" style="fill: none; stroke: #000000; stroke-width: 0.8; stroke-linejoin: miter; stroke-linecap: square"/>
   </g>
  </g>
 </g>
 <defs>
  <clipPath id="p79fcf2f5eb">
   <rect x="72" y="51.84" width="446.4" height="332.64"/>
  </clipPath>
 </defs>
</svg>
