<?xml version="1.0" encoding="utf-8" standalone="no"?>
<!DOCTYPE svg PUBLIC "-//W3C//DTD SVG 1.1//EN"
  "http://www.w3.org/Graphics/SVG/1.1/DTD/svg11.dtd">
<svg xmlns:xlink="http://www.w3.org/1999/xlink" width="576pt" height="432pt" viewBox="0 0 576 432" xmlns="http://www.w3.org/2000/svg" version="1.1">
 <metadata>
  <rdf:RDF xmlns:dc="http://purl.org/dc/elements/1.1/" xmlns:cc="http://creativecommons.org/ns#" xmlns:rdf="http://www.w3.org/1999/02/22-rdf-syntax-ns#">
   <cc:Work>
    <dc:type rdf:resource="http://purl.org/dc/dcmitype/StillImage"/>
    <dc:date>2023-05-04T05:30:47.637046</dc:date>
    <dc:format>image/svg+xml</dc:format>
    <dc:creator>
     <cc:Agent>
      <dc:title>Matplotlib v3.7.1, https://matplotlib.org/</dc:title>
     </cc:Agent>
    </dc:creator>
   </cc:Work>
  </rdf:RDF>
 </metadata>
 <defs>
  <style type="text/css">*{stroke-linejoin: round; stroke-linecap: butt}</style>
 </defs>
 <g id="figure_1">
  <g id="patch_1">
   <path d="M 0 432 
L 576 432 
L 576 0 
L 0 0 
z
" style="fill: #ffffff"/>
  </g>
  <g id="axes_1">
   <g id="patch_2">
    <path d="M 72 384.48 
L 518.4 384.48 
L 518.4 51.84 
L 72 51.84 
z
" style="fill: #ffffff"/>
   </g>
   <g id="matplotlib.axis_1">
    <g id="xtick_1">
     <g id="line2d_1">
      <defs>
       <path id="m8a05ae7531" d="M 0 0 
L 0 3.5 
" style="stroke: #000000; stroke-width: 0.8"/>
      </defs>
      <g>
       <use xlink:href="#m8a05ae7531" x="92.290909" y="384.48" style="stroke: #000000; stroke-width: 0.8"/>
      </g>
     </g>
     <g id="text_1">
      <!-- 0.0 -->
      <g transform="translate(84.339347 399.078438) scale(0.1 -0.1)">
       <defs>
        <path id="DejaVuSans-30" d="M 2034 4250 
Q 1547 4250 1301 3770 
Q 1056 3291 1056 2328 
Q 1056 1369 1301 889 
Q 1547 409 2034 409 
Q 2525 409 2770 889 
Q 3016 1369 3016 2328 
Q 3016 3291 2770 3770 
Q 2525 4250 2034 4250 
z
M 2034 4750 
Q 2819 4750 3233 4129 
Q 3647 3509 3647 2328 
Q 3647 1150 3233 529 
Q 2819 -91 2034 -91 
Q 1250 -91 836 529 
Q 422 1150 422 2328 
Q 422 3509 836 4129 
Q 1250 4750 2034 4750 
z
" transform="scale(0.015625)"/>
        <path id="DejaVuSans-2e" d="M 684 794 
L 1344 794 
L 1344 0 
L 684 0 
L 684 794 
z
" transform="scale(0.015625)"/>
       </defs>
       <use xlink:href="#DejaVuSans-30"/>
       <use xlink:href="#DejaVuSans-2e" x="63.623047"/>
       <use xlink:href="#DejaVuSans-30" x="95.410156"/>
      </g>
     </g>
    </g>
    <g id="xtick_2">
     <g id="line2d_2">
      <g>
       <use xlink:href="#m8a05ae7531" x="173.454545" y="384.48" style="stroke: #000000; stroke-width: 0.8"/>
      </g>
     </g>
     <g id="text_2">
      <!-- 0.2 -->
      <g transform="translate(165.502983 399.078438) scale(0.1 -0.1)">
       <defs>
        <path id="DejaVuSans-32" d="M 1228 531 
L 3431 531 
L 3431 0 
L 469 0 
L 469 531 
Q 828 903 1448 1529 
Q 2069 2156 2228 2338 
Q 2531 2678 2651 2914 
Q 2772 3150 2772 3378 
Q 2772 3750 2511 3984 
Q 2250 4219 1831 4219 
Q 1534 4219 1204 4116 
Q 875 4013 500 3803 
L 500 4441 
Q 881 4594 1212 4672 
Q 1544 4750 1819 4750 
Q 2544 4750 2975 4387 
Q 3406 4025 3406 3419 
Q 3406 3131 3298 2873 
Q 3191 2616 2906 2266 
Q 2828 2175 2409 1742 
Q 1991 1309 1228 531 
z
" transform="scale(0.015625)"/>
       </defs>
       <use xlink:href="#DejaVuSans-30"/>
       <use xlink:href="#DejaVuSans-2e" x="63.623047"/>
       <use xlink:href="#DejaVuSans-32" x="95.410156"/>
      </g>
     </g>
    </g>
    <g id="xtick_3">
     <g id="line2d_3">
      <g>
       <use xlink:href="#m8a05ae7531" x="254.618182" y="384.48" style="stroke: #000000; stroke-width: 0.8"/>
      </g>
     </g>
     <g id="text_3">
      <!-- 0.4 -->
      <g transform="translate(246.666619 399.078438) scale(0.1 -0.1)">
       <defs>
        <path id="DejaVuSans-34" d="M 2419 4116 
L 825 1625 
L 2419 1625 
L 2419 4116 
z
M 2253 4666 
L 3047 4666 
L 3047 1625 
L 3713 1625 
L 3713 1100 
L 3047 1100 
L 3047 0 
L 2419 0 
L 2419 1100 
L 313 1100 
L 313 1709 
L 2253 4666 
z
" transform="scale(0.015625)"/>
       </defs>
       <use xlink:href="#DejaVuSans-30"/>
       <use xlink:href="#DejaVuSans-2e" x="63.623047"/>
       <use xlink:href="#DejaVuSans-34" x="95.410156"/>
      </g>
     </g>
    </g>
    <g id="xtick_4">
     <g id="line2d_4">
      <g>
       <use xlink:href="#m8a05ae7531" x="335.781818" y="384.48" style="stroke: #000000; stroke-width: 0.8"/>
      </g>
     </g>
     <g id="text_4">
      <!-- 0.6 -->
      <g transform="translate(327.830256 399.078438) scale(0.1 -0.1)">
       <defs>
        <path id="DejaVuSans-36" d="M 2113 2584 
Q 1688 2584 1439 2293 
Q 1191 2003 1191 1497 
Q 1191 994 1439 701 
Q 1688 409 2113 409 
Q 2538 409 2786 701 
Q 3034 994 3034 1497 
Q 3034 2003 2786 2293 
Q 2538 2584 2113 2584 
z
M 3366 4563 
L 3366 3988 
Q 3128 4100 2886 4159 
Q 2644 4219 2406 4219 
Q 1781 4219 1451 3797 
Q 1122 3375 1075 2522 
Q 1259 2794 1537 2939 
Q 1816 3084 2150 3084 
Q 2853 3084 3261 2657 
Q 3669 2231 3669 1497 
Q 3669 778 3244 343 
Q 2819 -91 2113 -91 
Q 1303 -91 875 529 
Q 447 1150 447 2328 
Q 447 3434 972 4092 
Q 1497 4750 2381 4750 
Q 2619 4750 2861 4703 
Q 3103 4656 3366 4563 
z
" transform="scale(0.015625)"/>
       </defs>
       <use xlink:href="#DejaVuSans-30"/>
       <use xlink:href="#DejaVuSans-2e" x="63.623047"/>
       <use xlink:href="#DejaVuSans-36" x="95.410156"/>
      </g>
     </g>
    </g>
    <g id="xtick_5">
     <g id="line2d_5">
      <g>
       <use xlink:href="#m8a05ae7531" x="416.945455" y="384.48" style="stroke: #000000; stroke-width: 0.8"/>
      </g>
     </g>
     <g id="text_5">
      <!-- 0.8 -->
      <g transform="translate(408.993892 399.078438) scale(0.1 -0.1)">
       <defs>
        <path id="DejaVuSans-38" d="M 2034 2216 
Q 1584 2216 1326 1975 
Q 1069 1734 1069 1313 
Q 1069 891 1326 650 
Q 1584 409 2034 409 
Q 2484 409 2743 651 
Q 3003 894 3003 1313 
Q 3003 1734 2745 1975 
Q 2488 2216 2034 2216 
z
M 1403 2484 
Q 997 2584 770 2862 
Q 544 3141 544 3541 
Q 544 4100 942 4425 
Q 1341 4750 2034 4750 
Q 2731 4750 3128 4425 
Q 3525 4100 3525 3541 
Q 3525 3141 3298 2862 
Q 3072 2584 2669 2484 
Q 3125 2378 3379 2068 
Q 3634 1759 3634 1313 
Q 3634 634 3220 271 
Q 2806 -91 2034 -91 
Q 1263 -91 848 271 
Q 434 634 434 1313 
Q 434 1759 690 2068 
Q 947 2378 1403 2484 
z
M 1172 3481 
Q 1172 3119 1398 2916 
Q 1625 2713 2034 2713 
Q 2441 2713 2670 2916 
Q 2900 3119 2900 3481 
Q 2900 3844 2670 4047 
Q 2441 4250 2034 4250 
Q 1625 4250 1398 4047 
Q 1172 3844 1172 3481 
z
" transform="scale(0.015625)"/>
       </defs>
       <use xlink:href="#DejaVuSans-30"/>
       <use xlink:href="#DejaVuSans-2e" x="63.623047"/>
       <use xlink:href="#DejaVuSans-38" x="95.410156"/>
      </g>
     </g>
    </g>
    <g id="xtick_6">
     <g id="line2d_6">
      <g>
       <use xlink:href="#m8a05ae7531" x="498.109091" y="384.48" style="stroke: #000000; stroke-width: 0.8"/>
      </g>
     </g>
     <g id="text_6">
      <!-- 1.0 -->
      <g transform="translate(490.157528 399.078438) scale(0.1 -0.1)">
       <defs>
        <path id="DejaVuSans-31" d="M 794 531 
L 1825 531 
L 1825 4091 
L 703 3866 
L 703 4441 
L 1819 4666 
L 2450 4666 
L 2450 531 
L 3481 531 
L 3481 0 
L 794 0 
L 794 531 
z
" transform="scale(0.015625)"/>
       </defs>
       <use xlink:href="#DejaVuSans-31"/>
       <use xlink:href="#DejaVuSans-2e" x="63.623047"/>
       <use xlink:href="#DejaVuSans-30" x="95.410156"/>
      </g>
     </g>
    </g>
   </g>
   <g id="matplotlib.axis_2">
    <g id="ytick_1">
     <g id="line2d_7">
      <defs>
       <path id="m6abf3eecc9" d="M 0 0 
L -3.5 0 
" style="stroke: #000000; stroke-width: 0.8"/>
      </defs>
      <g>
       <use xlink:href="#m6abf3eecc9" x="72" y="369.36" style="stroke: #000000; stroke-width: 0.8"/>
      </g>
     </g>
     <g id="text_7">
      <!-- −5.0 -->
      <g transform="translate(40.717187 373.159219) scale(0.1 -0.1)">
       <defs>
        <path id="DejaVuSans-2212" d="M 678 2272 
L 4684 2272 
L 4684 1741 
L 678 1741 
L 678 2272 
z
" transform="scale(0.015625)"/>
        <path id="DejaVuSans-35" d="M 691 4666 
L 3169 4666 
L 3169 4134 
L 1269 4134 
L 1269 2991 
Q 1406 3038 1543 3061 
Q 1681 3084 1819 3084 
Q 2600 3084 3056 2656 
Q 3513 2228 3513 1497 
Q 3513 744 3044 326 
Q 2575 -91 1722 -91 
Q 1428 -91 1123 -41 
Q 819 9 494 109 
L 494 744 
Q 775 591 1075 516 
Q 1375 441 1709 441 
Q 2250 441 2565 725 
Q 2881 1009 2881 1497 
Q 2881 1984 2565 2268 
Q 2250 2553 1709 2553 
Q 1456 2553 1204 2497 
Q 953 2441 691 2322 
L 691 4666 
z
" transform="scale(0.015625)"/>
       </defs>
       <use xlink:href="#DejaVuSans-2212"/>
       <use xlink:href="#DejaVuSans-35" x="83.789062"/>
       <use xlink:href="#DejaVuSans-2e" x="147.412109"/>
       <use xlink:href="#DejaVuSans-30" x="179.199219"/>
      </g>
     </g>
    </g>
    <g id="ytick_2">
     <g id="line2d_8">
      <g>
       <use xlink:href="#m6abf3eecc9" x="72" y="331.56" style="stroke: #000000; stroke-width: 0.8"/>
      </g>
     </g>
     <g id="text_8">
      <!-- −2.5 -->
      <g transform="translate(40.717187 335.359219) scale(0.1 -0.1)">
       <use xlink:href="#DejaVuSans-2212"/>
       <use xlink:href="#DejaVuSans-32" x="83.789062"/>
       <use xlink:href="#DejaVuSans-2e" x="147.412109"/>
       <use xlink:href="#DejaVuSans-35" x="179.199219"/>
      </g>
     </g>
    </g>
    <g id="ytick_3">
     <g id="line2d_9">
      <g>
       <use xlink:href="#m6abf3eecc9" x="72" y="293.76" style="stroke: #000000; stroke-width: 0.8"/>
      </g>
     </g>
     <g id="text_9">
      <!-- 0.0 -->
      <g transform="translate(49.096875 297.559219) scale(0.1 -0.1)">
       <use xlink:href="#DejaVuSans-30"/>
       <use xlink:href="#DejaVuSans-2e" x="63.623047"/>
       <use xlink:href="#DejaVuSans-30" x="95.410156"/>
      </g>
     </g>
    </g>
    <g id="ytick_4">
     <g id="line2d_10">
      <g>
       <use xlink:href="#m6abf3eecc9" x="72" y="255.96" style="stroke: #000000; stroke-width: 0.8"/>
      </g>
     </g>
     <g id="text_10">
      <!-- 2.5 -->
      <g transform="translate(49.096875 259.759219) scale(0.1 -0.1)">
       <use xlink:href="#DejaVuSans-32"/>
       <use xlink:href="#DejaVuSans-2e" x="63.623047"/>
       <use xlink:href="#DejaVuSans-35" x="95.410156"/>
      </g>
     </g>
    </g>
    <g id="ytick_5">
     <g id="line2d_11">
      <g>
       <use xlink:href="#m6abf3eecc9" x="72" y="218.16" style="stroke: #000000; stroke-width: 0.8"/>
      </g>
     </g>
     <g id="text_11">
      <!-- 5.0 -->
      <g transform="translate(49.096875 221.959219) scale(0.1 -0.1)">
       <use xlink:href="#DejaVuSans-35"/>
       <use xlink:href="#DejaVuSans-2e" x="63.623047"/>
       <use xlink:href="#DejaVuSans-30" x="95.410156"/>
      </g>
     </g>
    </g>
    <g id="ytick_6">
     <g id="line2d_12">
      <g>
       <use xlink:href="#m6abf3eecc9" x="72" y="180.36" style="stroke: #000000; stroke-width: 0.8"/>
      </g>
     </g>
     <g id="text_12">
      <!-- 7.5 -->
      <g transform="translate(49.096875 184.159219) scale(0.1 -0.1)">
       <defs>
        <path id="DejaVuSans-37" d="M 525 4666 
L 3525 4666 
L 3525 4397 
L 1831 0 
L 1172 0 
L 2766 4134 
L 525 4134 
L 525 4666 
z
" transform="scale(0.015625)"/>
       </defs>
       <use xlink:href="#DejaVuSans-37"/>
       <use xlink:href="#DejaVuSans-2e" x="63.623047"/>
       <use xlink:href="#DejaVuSans-35" x="95.410156"/>
      </g>
     </g>
    </g>
    <g id="ytick_7">
     <g id="line2d_13">
      <g>
       <use xlink:href="#m6abf3eecc9" x="72" y="142.56" style="stroke: #000000; stroke-width: 0.8"/>
      </g>
     </g>
     <g id="text_13">
      <!-- 10.0 -->
      <g transform="translate(42.734375 146.359219) scale(0.1 -0.1)">
       <use xlink:href="#DejaVuSans-31"/>
       <use xlink:href="#DejaVuSans-30" x="63.623047"/>
       <use xlink:href="#DejaVuSans-2e" x="127.246094"/>
       <use xlink:href="#DejaVuSans-30" x="159.033203"/>
      </g>
     </g>
    </g>
    <g id="ytick_8">
     <g id="line2d_14">
      <g>
       <use xlink:href="#m6abf3eecc9" x="72" y="104.76" style="stroke: #000000; stroke-width: 0.8"/>
      </g>
     </g>
     <g id="text_14">
      <!-- 12.5 -->
      <g transform="translate(42.734375 108.559219) scale(0.1 -0.1)">
       <use xlink:href="#DejaVuSans-31"/>
       <use xlink:href="#DejaVuSans-32" x="63.623047"/>
       <use xlink:href="#DejaVuSans-2e" x="127.246094"/>
       <use xlink:href="#DejaVuSans-35" x="159.033203"/>
      </g>
     </g>
    </g>
    <g id="ytick_9">
     <g id="line2d_15">
      <g>
       <use xlink:href="#m6abf3eecc9" x="72" y="66.96" style="stroke: #000000; stroke-width: 0.8"/>
      </g>
     </g>
     <g id="text_15">
      <!-- 15.0 -->
      <g transform="translate(42.734375 70.759219) scale(0.1 -0.1)">
       <use xlink:href="#DejaVuSans-31"/>
       <use xlink:href="#DejaVuSans-35" x="63.623047"/>
       <use xlink:href="#DejaVuSans-2e" x="127.246094"/>
       <use xlink:href="#DejaVuSans-30" x="159.033203"/>
      </g>
     </g>
    </g>
   </g>
   <g id="line2d_16">
    <path d="M 92.290909 341.18388 
L 96.349091 341.179344 
L 100.407273 341.165736 
L 104.465455 341.144568 
L 108.523636 341.112816 
L 112.581818 341.073504 
L 116.64 341.026632 
L 120.698182 340.970688 
L 124.756364 340.905672 
L 128.814545 340.831584 
L 132.872727 340.749936 
L 136.930909 340.659216 
L 140.989091 340.559424 
L 145.047273 340.453584 
L 149.105455 340.33716 
L 153.163636 340.214688 
L 157.221818 340.083144 
L 161.28 339.94404 
L 165.338182 339.795864 
L 169.396364 339.64164 
L 173.454545 339.478344 
L 177.512727 339.309 
L 181.570909 339.132096 
L 185.629091 338.947632 
L 189.687273 338.755608 
L 193.745455 338.557536 
L 197.803636 338.353416 
L 201.861818 338.141736 
L 205.92 337.924008 
L 209.978182 337.700232 
L 214.036364 337.470408 
L 218.094545 337.234536 
L 222.152727 336.994128 
L 226.210909 336.747672 
L 230.269091 336.49668 
L 234.327273 336.241152 
L 238.385455 335.979576 
L 242.443636 335.714976 
L 246.501818 335.447352 
L 250.56 335.175192 
L 254.618182 334.900008 
L 258.676364 334.620288 
L 262.734545 334.339056 
L 266.792727 334.056312 
L 270.850909 333.770544 
L 274.909091 333.483264 
L 278.967273 333.194472 
L 283.025455 332.90568 
L 287.083636 332.615376 
L 291.141818 332.32356 
L 295.2 332.033256 
L 299.258182 331.744464 
L 303.316364 331.455672 
L 307.374545 331.16688 
L 311.432727 330.881112 
L 315.490909 330.596856 
L 319.549091 330.315624 
L 323.607273 330.035904 
L 327.665455 329.76072 
L 331.723636 329.48856 
L 335.781818 329.219424 
L 339.84 328.954824 
L 343.898182 328.69476 
L 347.956364 328.440744 
L 352.014545 328.189752 
L 356.072727 327.94632 
L 360.130909 327.707424 
L 364.189091 327.473064 
L 368.247273 327.246264 
L 372.305455 327.025512 
L 376.363636 326.81232 
L 380.421818 326.603664 
L 384.48 326.40408 
L 388.538182 326.209032 
L 392.596364 326.023056 
L 396.654545 325.843128 
L 400.712727 325.67076 
L 404.770909 325.505952 
L 408.829091 325.347192 
L 412.887273 325.195992 
L 416.945455 325.053864 
L 421.003636 324.916272 
L 425.061818 324.787752 
L 429.12 324.666792 
L 433.178182 324.55188 
L 437.236364 324.444528 
L 441.294545 324.344736 
L 445.352727 324.250992 
L 449.410909 324.164808 
L 453.469091 324.086184 
L 457.527273 324.01512 
L 461.585455 323.950104 
L 465.643636 323.891136 
L 469.701818 323.839728 
L 473.76 323.79588 
L 477.818182 323.75808 
L 481.876364 323.72784 
L 485.934545 323.703648 
L 489.992727 323.687016 
L 494.050909 323.676432 
L 498.109091 323.673408 
" clip-path="url(#p4369de4302)" style="fill: none; stroke: #000000; stroke-opacity: 0.5; stroke-linecap: square"/>
   </g>
   <g id="line2d_17">
    <path d="M 92.290909 296.135352 
L 96.349091 296.138376 
L 100.407273 296.147448 
L 104.465455 296.162568 
L 108.523636 296.185248 
L 112.581818 296.212464 
L 116.64 296.24724 
L 120.698182 296.288064 
L 124.756364 296.334936 
L 128.814545 296.389368 
L 132.872727 296.45136 
L 136.930909 296.5194 
L 140.989091 296.593488 
L 145.047273 296.676648 
L 149.105455 296.765856 
L 153.163636 296.862624 
L 157.221818 296.966952 
L 161.28 297.080352 
L 165.338182 297.201312 
L 169.396364 297.329832 
L 173.454545 297.465912 
L 177.512727 297.611064 
L 181.570909 297.763776 
L 185.629091 297.92556 
L 189.687273 298.094904 
L 193.745455 298.27332 
L 197.803636 298.460808 
L 201.861818 298.655856 
L 205.92 298.858464 
L 209.978182 299.070144 
L 214.036364 299.290896 
L 218.094545 299.517696 
L 222.152727 299.753568 
L 226.210909 299.995488 
L 230.269091 300.24648 
L 234.327273 300.50352 
L 238.385455 300.766608 
L 242.443636 301.037256 
L 246.501818 301.313952 
L 250.56 301.595184 
L 254.618182 301.882464 
L 258.676364 302.175792 
L 262.734545 302.472144 
L 266.792727 302.773032 
L 270.850909 303.076944 
L 274.909091 303.385392 
L 278.967273 303.696864 
L 283.025455 304.009848 
L 287.083636 304.324344 
L 291.141818 304.641864 
L 295.2 304.959384 
L 299.258182 305.276904 
L 303.316364 305.595936 
L 307.374545 305.914968 
L 311.432727 306.232488 
L 315.490909 306.548496 
L 319.549091 306.864504 
L 323.607273 307.179 
L 327.665455 307.490472 
L 331.723636 307.79892 
L 335.781818 308.105856 
L 339.84 308.408256 
L 343.898182 308.707632 
L 347.956364 309.003984 
L 352.014545 309.294288 
L 356.072727 309.581568 
L 360.130909 309.864312 
L 364.189091 310.141008 
L 368.247273 310.413168 
L 372.305455 310.67928 
L 376.363636 310.940856 
L 380.421818 311.194872 
L 384.48 311.44284 
L 388.538182 311.68476 
L 392.596364 311.920632 
L 396.654545 312.148944 
L 400.712727 312.369696 
L 404.770909 312.582888 
L 408.829091 312.790032 
L 412.887273 312.988104 
L 416.945455 313.178616 
L 421.003636 313.361568 
L 425.061818 313.53696 
L 429.12 313.70328 
L 433.178182 313.860528 
L 437.236364 314.010216 
L 441.294545 314.150832 
L 445.352727 314.282376 
L 449.410909 314.404848 
L 453.469091 314.518248 
L 457.527273 314.621064 
L 461.585455 314.71632 
L 465.643636 314.800992 
L 469.701818 314.876592 
L 473.76 314.941608 
L 477.818182 314.99604 
L 481.876364 315.0414 
L 485.934545 315.077688 
L 489.992727 315.103392 
L 494.050909 315.118512 
L 498.109091 315.123048 
" clip-path="url(#p4369de4302)" style="fill: none; stroke: #000000; stroke-opacity: 0.5; stroke-linecap: square"/>
   </g>
   <g id="line2d_18">
    <path d="M 92.290909 244.18152 
L 96.349091 244.285848 
L 100.407273 244.485432 
L 104.465455 244.72584 
L 108.523636 244.999512 
L 112.581818 245.301912 
L 116.64 245.63304 
L 120.698182 245.989872 
L 124.756364 246.370896 
L 128.814545 246.773088 
L 132.872727 247.19796 
L 136.930909 247.639464 
L 140.989091 248.099112 
L 145.047273 248.57388 
L 149.105455 249.062256 
L 153.163636 249.562728 
L 157.221818 250.072272 
L 161.28 250.5924 
L 165.338182 251.118576 
L 169.396364 251.652312 
L 173.454545 252.189072 
L 177.512727 252.730368 
L 181.570909 253.273176 
L 185.629091 253.817496 
L 189.687273 254.361816 
L 193.745455 254.906136 
L 197.803636 255.447432 
L 201.861818 255.985704 
L 205.92 256.51944 
L 209.978182 257.04864 
L 214.036364 257.571792 
L 218.094545 258.090408 
L 222.152727 258.599952 
L 226.210909 259.101936 
L 230.269091 259.594848 
L 234.327273 260.077176 
L 238.385455 260.550432 
L 242.443636 261.013104 
L 246.501818 261.46368 
L 250.56 261.90216 
L 254.618182 262.327032 
L 258.676364 262.739808 
L 262.734545 263.137464 
L 266.792727 263.52 
L 270.850909 263.887416 
L 274.909091 264.239712 
L 278.967273 264.573864 
L 283.025455 264.892896 
L 287.083636 265.193784 
L 291.141818 265.476528 
L 295.2 265.739616 
L 299.258182 265.98456 
L 303.316364 266.209848 
L 307.374545 266.41548 
L 311.432727 266.601456 
L 315.490909 266.764752 
L 319.549091 266.908392 
L 323.607273 267.029352 
L 327.665455 267.129144 
L 331.723636 267.204744 
L 335.781818 267.259176 
L 339.84 267.290928 
L 343.898182 267.298488 
L 347.956364 267.283368 
L 352.014545 267.244056 
L 356.072727 267.182064 
L 360.130909 267.094368 
L 364.189091 266.983992 
L 368.247273 266.849424 
L 372.305455 266.690664 
L 376.363636 266.507712 
L 380.421818 266.300568 
L 384.48 266.069232 
L 388.538182 265.813704 
L 392.596364 265.535496 
L 396.654545 265.234608 
L 400.712727 264.909528 
L 404.770909 264.56328 
L 408.829091 264.194352 
L 412.887273 263.802744 
L 416.945455 263.389968 
L 421.003636 262.957536 
L 425.061818 262.503936 
L 429.12 262.03068 
L 433.178182 261.53928 
L 437.236364 261.029736 
L 441.294545 260.50356 
L 445.352727 259.95924 
L 449.410909 259.3998 
L 453.469091 258.826752 
L 457.527273 258.240096 
L 461.585455 257.641344 
L 465.643636 257.030496 
L 469.701818 256.410576 
L 473.76 255.781584 
L 477.818182 255.148056 
L 481.876364 254.509992 
L 485.934545 253.871928 
L 489.992727 253.242936 
L 494.050909 252.653256 
L 498.109091 252.313056 
" clip-path="url(#p4369de4302)" style="fill: none; stroke: #000000; stroke-opacity: 0.5; stroke-linecap: square"/>
   </g>
   <g id="line2d_19">
    <path d="M 92.290909 243.945648 
L 96.349091 243.873072 
L 100.407273 243.768744 
L 104.465455 243.685584 
L 108.523636 243.631152 
L 112.581818 243.605448 
L 116.64 243.609984 
L 120.698182 243.641736 
L 124.756364 243.699192 
L 128.814545 243.782352 
L 132.872727 243.888192 
L 136.930909 244.0152 
L 140.989091 244.15884 
L 145.047273 244.319112 
L 149.105455 244.494504 
L 153.163636 244.678968 
L 157.221818 244.874016 
L 161.28 245.0736 
L 165.338182 245.27772 
L 169.396364 245.484864 
L 173.454545 245.690496 
L 177.512727 245.894616 
L 181.570909 246.0942 
L 185.629091 246.287736 
L 189.687273 246.473712 
L 193.745455 246.650616 
L 197.803636 246.816936 
L 201.861818 246.97116 
L 205.92 247.113288 
L 209.978182 247.241808 
L 214.036364 247.355208 
L 218.094545 247.453488 
L 222.152727 247.536648 
L 226.210909 247.603176 
L 230.269091 247.65156 
L 234.327273 247.683312 
L 238.385455 247.698432 
L 242.443636 247.69692 
L 246.501818 247.675752 
L 250.56 247.639464 
L 254.618182 247.585032 
L 258.676364 247.513968 
L 262.734545 247.426272 
L 266.792727 247.323456 
L 270.850909 247.204008 
L 274.909091 247.070952 
L 278.967273 246.921264 
L 283.025455 246.75948 
L 287.083636 246.582576 
L 291.141818 246.395088 
L 295.2 246.195504 
L 299.258182 245.985336 
L 303.316364 245.766096 
L 307.374545 245.537784 
L 311.432727 245.301912 
L 315.490909 245.061504 
L 319.549091 244.813536 
L 323.607273 244.564056 
L 327.665455 244.311552 
L 331.723636 244.057536 
L 335.781818 243.805032 
L 339.84 243.555552 
L 343.898182 243.309096 
L 347.956364 243.0702 
L 352.014545 242.838864 
L 356.072727 242.6166 
L 360.130909 242.407944 
L 364.189091 242.212896 
L 368.247273 242.035992 
L 372.305455 241.87572 
L 376.363636 241.738128 
L 380.421818 241.623216 
L 384.48 241.534008 
L 388.538182 241.473528 
L 392.596364 241.441776 
L 396.654545 241.441776 
L 400.712727 241.476552 
L 404.770909 241.544592 
L 408.829091 241.64892 
L 412.887273 241.791048 
L 416.945455 241.970976 
L 421.003636 242.188704 
L 425.061818 242.444232 
L 429.12 242.73756 
L 433.178182 243.065664 
L 437.236364 243.431568 
L 441.294545 243.829224 
L 445.352727 244.260144 
L 449.410909 244.722816 
L 453.469091 245.211192 
L 457.527273 245.726784 
L 461.585455 246.266568 
L 465.643636 246.82752 
L 469.701818 247.406616 
L 473.76 248.002344 
L 477.818182 248.610168 
L 481.876364 249.228576 
L 485.934545 249.85152 
L 489.992727 250.47144 
L 494.050909 251.05356 
L 498.109091 251.392248 
" clip-path="url(#p4369de4302)" style="fill: none; stroke: #000000; stroke-opacity: 0.5; stroke-linecap: square"/>
   </g>
   <g id="line2d_20">
    <path d="M 92.290909 193.742712 
L 96.349091 193.709448 
L 100.407273 193.611168 
L 104.465455 193.449384 
L 108.523636 193.222584 
L 112.581818 192.93228 
L 116.64 192.578472 
L 120.698182 192.165696 
L 124.756364 191.69244 
L 128.814545 191.161728 
L 132.872727 190.57356 
L 136.930909 189.932472 
L 140.989091 189.236952 
L 145.047273 188.493048 
L 149.105455 187.697736 
L 153.163636 186.857064 
L 157.221818 185.971032 
L 161.28 185.042664 
L 165.338182 184.07196 
L 169.396364 183.061944 
L 173.454545 182.014128 
L 177.512727 180.931536 
L 181.570909 179.812656 
L 185.629091 178.660512 
L 189.687273 177.476616 
L 193.745455 176.263992 
L 197.803636 175.021128 
L 201.861818 173.749536 
L 205.92 172.45224 
L 209.978182 171.12924 
L 214.036364 169.782048 
L 218.094545 168.410664 
L 222.152727 167.0166 
L 226.210909 165.60288 
L 230.269091 164.16648 
L 234.327273 162.711936 
L 238.385455 161.237736 
L 242.443636 159.746904 
L 246.501818 158.240952 
L 250.56 156.721392 
L 254.618182 155.189736 
L 258.676364 153.652032 
L 262.734545 152.121888 
L 266.792727 150.638616 
L 270.850909 149.422968 
L 274.909091 149.509152 
L 278.967273 150.726312 
L 283.025455 152.174808 
L 287.083636 153.679248 
L 291.141818 155.198808 
L 295.2 156.71988 
L 299.258182 158.23188 
L 303.316364 159.731784 
L 307.374545 161.215056 
L 311.432727 162.678672 
L 315.490909 164.12112 
L 319.549091 165.540888 
L 323.607273 166.934952 
L 327.665455 168.303312 
L 331.723636 169.641432 
L 335.781818 170.949312 
L 339.84 172.22544 
L 343.898182 173.466792 
L 347.956364 174.671856 
L 352.014545 175.83912 
L 356.072727 176.96556 
L 360.130909 178.049664 
L 364.189091 179.088408 
L 368.247273 180.081792 
L 372.305455 181.023768 
L 376.363636 181.915848 
L 380.421818 182.751984 
L 384.48 183.533688 
L 388.538182 184.254912 
L 392.596364 184.917168 
L 396.654545 185.51592 
L 400.712727 186.051168 
L 404.770909 186.519888 
L 408.829091 186.92208 
L 412.887273 187.25472 
L 416.945455 187.51932 
L 421.003636 187.71588 
L 425.061818 187.841376 
L 429.12 187.898832 
L 433.178182 187.888248 
L 437.236364 187.811136 
L 441.294545 187.667496 
L 445.352727 187.45884 
L 449.410909 187.189704 
L 453.469091 186.858576 
L 457.527273 186.469992 
L 461.585455 186.025464 
L 465.643636 185.528016 
L 469.701818 184.97916 
L 473.76 184.38192 
L 477.818182 183.742344 
L 481.876364 183.061944 
L 485.934545 182.351304 
L 489.992727 181.628568 
L 494.050909 180.955728 
L 498.109091 180.606456 
" clip-path="url(#p4369de4302)" style="fill: none; stroke: #000000; stroke-opacity: 0.5; stroke-linecap: square"/>
   </g>
   <g id="line2d_21">
    <path d="M 92.290909 182.820024 
L 96.349091 182.78676 
L 100.407273 182.683944 
L 104.465455 182.513088 
L 108.523636 182.275704 
L 112.581818 181.973304 
L 116.64 181.604376 
L 120.698182 181.173456 
L 124.756364 180.682056 
L 128.814545 180.128664 
L 132.872727 179.519328 
L 136.930909 178.854048 
L 140.989091 178.135848 
L 145.047273 177.364728 
L 149.105455 176.546736 
L 153.163636 175.678848 
L 157.221818 174.768624 
L 161.28 173.81304 
L 165.338182 172.818144 
L 169.396364 171.782424 
L 173.454545 170.708904 
L 177.512727 169.600608 
L 181.570909 168.459048 
L 185.629091 167.282712 
L 189.687273 166.076136 
L 193.745455 164.840832 
L 197.803636 163.5768 
L 201.861818 162.287064 
L 205.92 160.971624 
L 209.978182 159.631992 
L 214.036364 158.271192 
L 218.094545 156.890736 
L 222.152727 155.492136 
L 226.210909 154.078416 
L 230.269091 152.654112 
L 234.327273 151.22376 
L 238.385455 149.797944 
L 242.443636 148.391784 
L 246.501818 147.038544 
L 250.56 145.804752 
L 254.618182 144.853704 
L 258.676364 144.4878 
L 262.734545 144.91116 
L 266.792727 145.862208 
L 270.850909 146.814768 
L 274.909091 146.575872 
L 278.967273 145.246824 
L 283.025455 143.70156 
L 287.083636 142.09884 
L 291.141818 140.471928 
L 295.2 138.83292 
L 299.258182 137.189376 
L 303.316364 135.548856 
L 307.374545 133.923456 
L 311.432727 132.326784 
L 315.490909 130.786056 
L 319.549091 129.348144 
L 323.607273 128.11284 
L 327.665455 127.257048 
L 331.723636 127.01664 
L 335.781818 127.465704 
L 339.84 128.419776 
L 343.898182 129.65508 
L 347.956364 131.03856 
L 352.014545 132.500664 
L 356.072727 134.005104 
L 360.130909 135.530712 
L 364.189091 137.066904 
L 368.247273 138.60612 
L 372.305455 140.143824 
L 376.363636 141.673968 
L 380.421818 143.198064 
L 384.48 144.711576 
L 388.538182 146.214504 
L 392.596364 147.703824 
L 396.654545 149.181048 
L 400.712727 150.644664 
L 404.770909 152.091648 
L 408.829091 153.523512 
L 412.887273 154.940256 
L 416.945455 156.338856 
L 421.003636 157.719312 
L 425.061818 159.083136 
L 429.12 160.427304 
L 433.178182 161.751816 
L 437.236364 163.056672 
L 441.294545 164.34036 
L 445.352727 165.601368 
L 449.410909 166.841208 
L 453.469091 168.056856 
L 457.527273 169.249824 
L 461.585455 170.415576 
L 465.643636 171.555624 
L 469.701818 172.666944 
L 473.76 173.749536 
L 477.818182 174.798864 
L 481.876364 175.811904 
L 485.934545 176.781096 
L 489.992727 177.688296 
L 494.050909 178.47 
L 498.109091 178.857072 
" clip-path="url(#p4369de4302)" style="fill: none; stroke: #000000; stroke-opacity: 0.5; stroke-linecap: square"/>
   </g>
   <g id="line2d_22">
    <path d="M 92.290909 79.6608 
L 96.349091 79.6608 
L 100.407273 79.662312 
L 104.465455 79.666848 
L 108.523636 79.725816 
L 112.581818 80.568 
L 116.64 81.61128 
L 120.698182 82.786104 
L 124.756364 84.069792 
L 128.814545 85.445712 
L 132.872727 86.900256 
L 136.930909 88.421328 
L 140.989091 89.99532 
L 145.047273 91.616184 
L 149.105455 93.27636 
L 153.163636 94.966776 
L 157.221818 96.684408 
L 161.28 98.42472 
L 165.338182 100.181664 
L 169.396364 101.953728 
L 173.454545 103.737888 
L 177.512727 105.529608 
L 181.570909 107.3304 
L 185.629091 109.134216 
L 189.687273 110.941056 
L 193.745455 112.749408 
L 197.803636 114.556248 
L 201.861818 116.361576 
L 205.92 118.16388 
L 209.978182 119.960136 
L 214.036364 121.748832 
L 218.094545 123.529968 
L 222.152727 125.299008 
L 226.210909 127.05444 
L 230.269091 128.790216 
L 234.327273 130.5018 
L 238.385455 132.181632 
L 242.443636 133.808544 
L 246.501818 135.353808 
L 250.56 136.74636 
L 254.618182 137.822904 
L 258.676364 138.274992 
L 262.734545 137.886408 
L 266.792727 136.879416 
L 270.850909 135.563976 
L 274.909091 134.095824 
L 278.967273 132.543 
L 283.025455 130.94028 
L 287.083636 129.304296 
L 291.141818 127.642608 
L 295.2 125.9658 
L 299.258182 124.282944 
L 303.316364 122.604624 
L 307.374545 120.958056 
L 311.432727 119.408256 
L 315.490909 118.172952 
L 319.549091 117.796464 
L 323.607273 118.280304 
L 327.665455 118.803456 
L 331.723636 118.835208 
L 335.781818 118.212264 
L 339.84 117.094896 
L 343.898182 115.690248 
L 347.956364 114.12684 
L 352.014545 112.472712 
L 356.072727 110.76264 
L 360.130909 109.017792 
L 364.189091 107.24724 
L 368.247273 105.460056 
L 372.305455 103.662288 
L 376.363636 101.859984 
L 380.421818 100.054656 
L 384.48 98.25084 
L 388.538182 96.456096 
L 392.596364 94.676472 
L 396.654545 92.922552 
L 400.712727 91.206432 
L 404.770909 89.55684 
L 408.829091 88.016112 
L 412.887273 86.656824 
L 416.945455 85.574232 
L 421.003636 84.821256 
L 425.061818 84.344976 
L 429.12 84.0456 
L 433.178182 83.852064 
L 437.236364 83.72052 
L 441.294545 83.625264 
L 445.352727 83.555712 
L 449.410909 83.504304 
L 453.469091 83.461968 
L 457.527273 83.430216 
L 461.585455 83.404512 
L 465.643636 83.383344 
L 469.701818 83.366712 
L 473.76 83.353104 
L 477.818182 83.34252 
L 481.876364 83.33496 
L 485.934545 83.328912 
L 489.992727 83.324376 
L 494.050909 83.321352 
L 498.109091 83.31984 
" clip-path="url(#p4369de4302)" style="fill: none; stroke: #000000; stroke-opacity: 0.5; stroke-linecap: square"/>
   </g>
   <g id="line2d_23">
    <path d="M 92.290909 77.964336 
L 96.349091 78.074712 
L 100.407273 78.402816 
L 104.465455 78.936552 
L 108.523636 79.606368 
L 112.581818 79.663824 
L 116.64 79.669872 
L 120.698182 79.674408 
L 124.756364 79.680456 
L 128.814545 79.686504 
L 132.872727 79.694064 
L 136.930909 79.703136 
L 140.989091 79.712208 
L 145.047273 79.722792 
L 149.105455 79.733376 
L 153.163636 79.746984 
L 157.221818 79.760592 
L 161.28 79.7742 
L 165.338182 79.790832 
L 169.396364 79.808976 
L 173.454545 79.828632 
L 177.512727 79.848288 
L 181.570909 79.870968 
L 185.629091 79.89516 
L 189.687273 79.922376 
L 193.745455 79.951104 
L 197.803636 79.982856 
L 201.861818 80.017632 
L 205.92 80.055432 
L 209.978182 80.097768 
L 214.036364 80.147664 
L 218.094545 80.20512 
L 222.152727 80.277696 
L 226.210909 80.375976 
L 230.269091 80.527176 
L 234.327273 80.820504 
L 238.385455 81.508464 
L 242.443636 82.826928 
L 246.501818 84.509784 
L 250.56 86.312088 
L 254.618182 88.155216 
L 258.676364 90.01044 
L 262.734545 91.867176 
L 266.792727 93.720888 
L 270.850909 95.565528 
L 274.909091 97.399584 
L 278.967273 99.221544 
L 283.025455 101.028384 
L 287.083636 102.81708 
L 291.141818 104.584608 
L 295.2 106.323408 
L 299.258182 108.027432 
L 303.316364 109.677024 
L 307.374545 111.243456 
L 311.432727 112.646592 
L 315.490909 113.643 
L 319.549091 113.643 
L 323.607273 112.548312 
L 327.665455 111.003048 
L 331.723636 109.305072 
L 335.781818 107.540568 
L 339.84 105.7428 
L 343.898182 103.923864 
L 347.956364 102.092832 
L 352.014545 100.25424 
L 356.072727 98.414136 
L 360.130909 96.575544 
L 364.189091 94.749048 
L 368.247273 92.942208 
L 372.305455 91.170144 
L 376.363636 89.45856 
L 380.421818 87.846768 
L 384.48 86.399784 
L 388.538182 85.19472 
L 392.596364 84.284496 
L 396.654545 83.635848 
L 400.712727 83.159568 
L 404.770909 82.7604 
L 408.829091 82.346112 
L 412.887273 81.824472 
L 416.945455 81.088128 
L 421.003636 80.09172 
L 425.061818 78.898752 
L 429.12 77.636232 
L 433.178182 76.416048 
L 437.236364 75.331944 
L 441.294545 74.453472 
L 445.352727 73.810872 
L 449.410909 73.37844 
L 453.469091 73.109304 
L 457.527273 72.952056 
L 461.585455 72.865872 
L 465.643636 72.825048 
L 469.701818 72.812952 
L 473.76 72.815976 
L 477.818182 72.828072 
L 481.876364 72.843192 
L 485.934545 72.8568 
L 489.992727 72.868896 
L 494.050909 72.876456 
L 498.109091 72.87948 
" clip-path="url(#p4369de4302)" style="fill: none; stroke: #000000; stroke-opacity: 0.5; stroke-linecap: square"/>
   </g>
   <g id="patch_3">
    <path d="M 72 384.48 
L 72 51.84 
" style="fill: none; stroke: #000000; stroke-width: 0.8; stroke-linejoin: miter; stroke-linecap: square"/>
   </g>
   <g id="patch_4">
    <path d="M 518.4 384.48 
L 518.4 51.84 
" style="fill: none; stroke: #000000; stroke-width: 0.8; stroke-linejoin: miter; stroke-linecap: square"/>
   </g>
   <g id="patch_5">
    <path d="M 72 384.48 
L 518.4 384.48 
" style="fill: none; stroke: #000000; stroke-width: 0.8; stroke-linejoin: miter; stroke-linecap: square"/>
   </g>
   <g id="patch_6">
    <path d="M 72 51.84 
L 518.4 51.84 
" style="fill: none; stroke: #000000; stroke-width: 0.8; stroke-linejoin: miter; stroke-linecap: square"/>
   </g>
  </g>
 </g>
 <defs>
  <clipPath id="p4369de4302">
   <rect x="72" y="51.84" width="446.4" height="332.64"/>
  </clipPath>
 </defs>
</svg>
