<?xml version="1.0" encoding="utf-8" standalone="no"?>
<!DOCTYPE svg PUBLIC "-//W3C//DTD SVG 1.1//EN"
  "http://www.w3.org/Graphics/SVG/1.1/DTD/svg11.dtd">
<svg xmlns:xlink="http://www.w3.org/1999/xlink" width="576pt" height="432pt" viewBox="0 0 576 432" xmlns="http://www.w3.org/2000/svg" version="1.1">
 <metadata>
  <rdf:RDF xmlns:dc="http://purl.org/dc/elements/1.1/" xmlns:cc="http://creativecommons.org/ns#" xmlns:rdf="http://www.w3.org/1999/02/22-rdf-syntax-ns#">
   <cc:Work>
    <dc:type rdf:resource="http://purl.org/dc/dcmitype/StillImage"/>
    <dc:date>2023-05-02T15:57:16.596606</dc:date>
    <dc:format>image/svg+xml</dc:format>
    <dc:creator>
     <cc:Agent>
      <dc:title>Matplotlib v3.7.1, https://matplotlib.org/</dc:title>
     </cc:Agent>
    </dc:creator>
   </cc:Work>
  </rdf:RDF>
 </metadata>
 <defs>
  <style type="text/css">*{stroke-linejoin: round; stroke-linecap: butt}</style>
 </defs>
 <g id="figure_1">
  <g id="patch_1">
   <path d="M 0 432 
L 576 432 
L 576 0 
L 0 0 
z
" style="fill: #ffffff"/>
  </g>
  <g id="axes_1">
   <g id="patch_2">
    <path d="M 72 384.48 
L 518.4 384.48 
L 518.4 51.84 
L 72 51.84 
z
" style="fill: #ffffff"/>
   </g>
   <g id="matplotlib.axis_1">
    <g id="xtick_1">
     <g id="line2d_1">
      <defs>
       <path id="m435f544236" d="M 0 0 
L 0 3.5 
" style="stroke: #000000; stroke-width: 0.8"/>
      </defs>
      <g>
       <use xlink:href="#m435f544236" x="92.290909" y="384.48" style="stroke: #000000; stroke-width: 0.8"/>
      </g>
     </g>
     <g id="text_1">
      <!-- 0.0 -->
      <g transform="translate(84.339347 399.078438) scale(0.1 -0.1)">
       <defs>
        <path id="DejaVuSans-30" d="M 2034 4250 
Q 1547 4250 1301 3770 
Q 1056 3291 1056 2328 
Q 1056 1369 1301 889 
Q 1547 409 2034 409 
Q 2525 409 2770 889 
Q 3016 1369 3016 2328 
Q 3016 3291 2770 3770 
Q 2525 4250 2034 4250 
z
M 2034 4750 
Q 2819 4750 3233 4129 
Q 3647 3509 3647 2328 
Q 3647 1150 3233 529 
Q 2819 -91 2034 -91 
Q 1250 -91 836 529 
Q 422 1150 422 2328 
Q 422 3509 836 4129 
Q 1250 4750 2034 4750 
z
" transform="scale(0.015625)"/>
        <path id="DejaVuSans-2e" d="M 684 794 
L 1344 794 
L 1344 0 
L 684 0 
L 684 794 
z
" transform="scale(0.015625)"/>
       </defs>
       <use xlink:href="#DejaVuSans-30"/>
       <use xlink:href="#DejaVuSans-2e" x="63.623047"/>
       <use xlink:href="#DejaVuSans-30" x="95.410156"/>
      </g>
     </g>
    </g>
    <g id="xtick_2">
     <g id="line2d_2">
      <g>
       <use xlink:href="#m435f544236" x="173.454545" y="384.48" style="stroke: #000000; stroke-width: 0.8"/>
      </g>
     </g>
     <g id="text_2">
      <!-- 0.2 -->
      <g transform="translate(165.502983 399.078438) scale(0.1 -0.1)">
       <defs>
        <path id="DejaVuSans-32" d="M 1228 531 
L 3431 531 
L 3431 0 
L 469 0 
L 469 531 
Q 828 903 1448 1529 
Q 2069 2156 2228 2338 
Q 2531 2678 2651 2914 
Q 2772 3150 2772 3378 
Q 2772 3750 2511 3984 
Q 2250 4219 1831 4219 
Q 1534 4219 1204 4116 
Q 875 4013 500 3803 
L 500 4441 
Q 881 4594 1212 4672 
Q 1544 4750 1819 4750 
Q 2544 4750 2975 4387 
Q 3406 4025 3406 3419 
Q 3406 3131 3298 2873 
Q 3191 2616 2906 2266 
Q 2828 2175 2409 1742 
Q 1991 1309 1228 531 
z
" transform="scale(0.015625)"/>
       </defs>
       <use xlink:href="#DejaVuSans-30"/>
       <use xlink:href="#DejaVuSans-2e" x="63.623047"/>
       <use xlink:href="#DejaVuSans-32" x="95.410156"/>
      </g>
     </g>
    </g>
    <g id="xtick_3">
     <g id="line2d_3">
      <g>
       <use xlink:href="#m435f544236" x="254.618182" y="384.48" style="stroke: #000000; stroke-width: 0.8"/>
      </g>
     </g>
     <g id="text_3">
      <!-- 0.4 -->
      <g transform="translate(246.666619 399.078438) scale(0.1 -0.1)">
       <defs>
        <path id="DejaVuSans-34" d="M 2419 4116 
L 825 1625 
L 2419 1625 
L 2419 4116 
z
M 2253 4666 
L 3047 4666 
L 3047 1625 
L 3713 1625 
L 3713 1100 
L 3047 1100 
L 3047 0 
L 2419 0 
L 2419 1100 
L 313 1100 
L 313 1709 
L 2253 4666 
z
" transform="scale(0.015625)"/>
       </defs>
       <use xlink:href="#DejaVuSans-30"/>
       <use xlink:href="#DejaVuSans-2e" x="63.623047"/>
       <use xlink:href="#DejaVuSans-34" x="95.410156"/>
      </g>
     </g>
    </g>
    <g id="xtick_4">
     <g id="line2d_4">
      <g>
       <use xlink:href="#m435f544236" x="335.781818" y="384.48" style="stroke: #000000; stroke-width: 0.8"/>
      </g>
     </g>
     <g id="text_4">
      <!-- 0.6 -->
      <g transform="translate(327.830256 399.078438) scale(0.1 -0.1)">
       <defs>
        <path id="DejaVuSans-36" d="M 2113 2584 
Q 1688 2584 1439 2293 
Q 1191 2003 1191 1497 
Q 1191 994 1439 701 
Q 1688 409 2113 409 
Q 2538 409 2786 701 
Q 3034 994 3034 1497 
Q 3034 2003 2786 2293 
Q 2538 2584 2113 2584 
z
M 3366 4563 
L 3366 3988 
Q 3128 4100 2886 4159 
Q 2644 4219 2406 4219 
Q 1781 4219 1451 3797 
Q 1122 3375 1075 2522 
Q 1259 2794 1537 2939 
Q 1816 3084 2150 3084 
Q 2853 3084 3261 2657 
Q 3669 2231 3669 1497 
Q 3669 778 3244 343 
Q 2819 -91 2113 -91 
Q 1303 -91 875 529 
Q 447 1150 447 2328 
Q 447 3434 972 4092 
Q 1497 4750 2381 4750 
Q 2619 4750 2861 4703 
Q 3103 4656 3366 4563 
z
" transform="scale(0.015625)"/>
       </defs>
       <use xlink:href="#DejaVuSans-30"/>
       <use xlink:href="#DejaVuSans-2e" x="63.623047"/>
       <use xlink:href="#DejaVuSans-36" x="95.410156"/>
      </g>
     </g>
    </g>
    <g id="xtick_5">
     <g id="line2d_5">
      <g>
       <use xlink:href="#m435f544236" x="416.945455" y="384.48" style="stroke: #000000; stroke-width: 0.8"/>
      </g>
     </g>
     <g id="text_5">
      <!-- 0.8 -->
      <g transform="translate(408.993892 399.078438) scale(0.1 -0.1)">
       <defs>
        <path id="DejaVuSans-38" d="M 2034 2216 
Q 1584 2216 1326 1975 
Q 1069 1734 1069 1313 
Q 1069 891 1326 650 
Q 1584 409 2034 409 
Q 2484 409 2743 651 
Q 3003 894 3003 1313 
Q 3003 1734 2745 1975 
Q 2488 2216 2034 2216 
z
M 1403 2484 
Q 997 2584 770 2862 
Q 544 3141 544 3541 
Q 544 4100 942 4425 
Q 1341 4750 2034 4750 
Q 2731 4750 3128 4425 
Q 3525 4100 3525 3541 
Q 3525 3141 3298 2862 
Q 3072 2584 2669 2484 
Q 3125 2378 3379 2068 
Q 3634 1759 3634 1313 
Q 3634 634 3220 271 
Q 2806 -91 2034 -91 
Q 1263 -91 848 271 
Q 434 634 434 1313 
Q 434 1759 690 2068 
Q 947 2378 1403 2484 
z
M 1172 3481 
Q 1172 3119 1398 2916 
Q 1625 2713 2034 2713 
Q 2441 2713 2670 2916 
Q 2900 3119 2900 3481 
Q 2900 3844 2670 4047 
Q 2441 4250 2034 4250 
Q 1625 4250 1398 4047 
Q 1172 3844 1172 3481 
z
" transform="scale(0.015625)"/>
       </defs>
       <use xlink:href="#DejaVuSans-30"/>
       <use xlink:href="#DejaVuSans-2e" x="63.623047"/>
       <use xlink:href="#DejaVuSans-38" x="95.410156"/>
      </g>
     </g>
    </g>
    <g id="xtick_6">
     <g id="line2d_6">
      <g>
       <use xlink:href="#m435f544236" x="498.109091" y="384.48" style="stroke: #000000; stroke-width: 0.8"/>
      </g>
     </g>
     <g id="text_6">
      <!-- 1.0 -->
      <g transform="translate(490.157528 399.078438) scale(0.1 -0.1)">
       <defs>
        <path id="DejaVuSans-31" d="M 794 531 
L 1825 531 
L 1825 4091 
L 703 3866 
L 703 4441 
L 1819 4666 
L 2450 4666 
L 2450 531 
L 3481 531 
L 3481 0 
L 794 0 
L 794 531 
z
" transform="scale(0.015625)"/>
       </defs>
       <use xlink:href="#DejaVuSans-31"/>
       <use xlink:href="#DejaVuSans-2e" x="63.623047"/>
       <use xlink:href="#DejaVuSans-30" x="95.410156"/>
      </g>
     </g>
    </g>
   </g>
   <g id="matplotlib.axis_2">
    <g id="ytick_1">
     <g id="line2d_7">
      <defs>
       <path id="m7b0dfe7ec2" d="M 0 0 
L -3.5 0 
" style="stroke: #000000; stroke-width: 0.8"/>
      </defs>
      <g>
       <use xlink:href="#m7b0dfe7ec2" x="72" y="369.36" style="stroke: #000000; stroke-width: 0.8"/>
      </g>
     </g>
     <g id="text_7">
      <!-- −5.0 -->
      <g transform="translate(40.717187 373.159219) scale(0.1 -0.1)">
       <defs>
        <path id="DejaVuSans-2212" d="M 678 2272 
L 4684 2272 
L 4684 1741 
L 678 1741 
L 678 2272 
z
" transform="scale(0.015625)"/>
        <path id="DejaVuSans-35" d="M 691 4666 
L 3169 4666 
L 3169 4134 
L 1269 4134 
L 1269 2991 
Q 1406 3038 1543 3061 
Q 1681 3084 1819 3084 
Q 2600 3084 3056 2656 
Q 3513 2228 3513 1497 
Q 3513 744 3044 326 
Q 2575 -91 1722 -91 
Q 1428 -91 1123 -41 
Q 819 9 494 109 
L 494 744 
Q 775 591 1075 516 
Q 1375 441 1709 441 
Q 2250 441 2565 725 
Q 2881 1009 2881 1497 
Q 2881 1984 2565 2268 
Q 2250 2553 1709 2553 
Q 1456 2553 1204 2497 
Q 953 2441 691 2322 
L 691 4666 
z
" transform="scale(0.015625)"/>
       </defs>
       <use xlink:href="#DejaVuSans-2212"/>
       <use xlink:href="#DejaVuSans-35" x="83.789062"/>
       <use xlink:href="#DejaVuSans-2e" x="147.412109"/>
       <use xlink:href="#DejaVuSans-30" x="179.199219"/>
      </g>
     </g>
    </g>
    <g id="ytick_2">
     <g id="line2d_8">
      <g>
       <use xlink:href="#m7b0dfe7ec2" x="72" y="331.56" style="stroke: #000000; stroke-width: 0.8"/>
      </g>
     </g>
     <g id="text_8">
      <!-- −2.5 -->
      <g transform="translate(40.717187 335.359219) scale(0.1 -0.1)">
       <use xlink:href="#DejaVuSans-2212"/>
       <use xlink:href="#DejaVuSans-32" x="83.789062"/>
       <use xlink:href="#DejaVuSans-2e" x="147.412109"/>
       <use xlink:href="#DejaVuSans-35" x="179.199219"/>
      </g>
     </g>
    </g>
    <g id="ytick_3">
     <g id="line2d_9">
      <g>
       <use xlink:href="#m7b0dfe7ec2" x="72" y="293.76" style="stroke: #000000; stroke-width: 0.8"/>
      </g>
     </g>
     <g id="text_9">
      <!-- 0.0 -->
      <g transform="translate(49.096875 297.559219) scale(0.1 -0.1)">
       <use xlink:href="#DejaVuSans-30"/>
       <use xlink:href="#DejaVuSans-2e" x="63.623047"/>
       <use xlink:href="#DejaVuSans-30" x="95.410156"/>
      </g>
     </g>
    </g>
    <g id="ytick_4">
     <g id="line2d_10">
      <g>
       <use xlink:href="#m7b0dfe7ec2" x="72" y="255.96" style="stroke: #000000; stroke-width: 0.8"/>
      </g>
     </g>
     <g id="text_10">
      <!-- 2.5 -->
      <g transform="translate(49.096875 259.759219) scale(0.1 -0.1)">
       <use xlink:href="#DejaVuSans-32"/>
       <use xlink:href="#DejaVuSans-2e" x="63.623047"/>
       <use xlink:href="#DejaVuSans-35" x="95.410156"/>
      </g>
     </g>
    </g>
    <g id="ytick_5">
     <g id="line2d_11">
      <g>
       <use xlink:href="#m7b0dfe7ec2" x="72" y="218.16" style="stroke: #000000; stroke-width: 0.8"/>
      </g>
     </g>
     <g id="text_11">
      <!-- 5.0 -->
      <g transform="translate(49.096875 221.959219) scale(0.1 -0.1)">
       <use xlink:href="#DejaVuSans-35"/>
       <use xlink:href="#DejaVuSans-2e" x="63.623047"/>
       <use xlink:href="#DejaVuSans-30" x="95.410156"/>
      </g>
     </g>
    </g>
    <g id="ytick_6">
     <g id="line2d_12">
      <g>
       <use xlink:href="#m7b0dfe7ec2" x="72" y="180.36" style="stroke: #000000; stroke-width: 0.8"/>
      </g>
     </g>
     <g id="text_12">
      <!-- 7.5 -->
      <g transform="translate(49.096875 184.159219) scale(0.1 -0.1)">
       <defs>
        <path id="DejaVuSans-37" d="M 525 4666 
L 3525 4666 
L 3525 4397 
L 1831 0 
L 1172 0 
L 2766 4134 
L 525 4134 
L 525 4666 
z
" transform="scale(0.015625)"/>
       </defs>
       <use xlink:href="#DejaVuSans-37"/>
       <use xlink:href="#DejaVuSans-2e" x="63.623047"/>
       <use xlink:href="#DejaVuSans-35" x="95.410156"/>
      </g>
     </g>
    </g>
    <g id="ytick_7">
     <g id="line2d_13">
      <g>
       <use xlink:href="#m7b0dfe7ec2" x="72" y="142.56" style="stroke: #000000; stroke-width: 0.8"/>
      </g>
     </g>
     <g id="text_13">
      <!-- 10.0 -->
      <g transform="translate(42.734375 146.359219) scale(0.1 -0.1)">
       <use xlink:href="#DejaVuSans-31"/>
       <use xlink:href="#DejaVuSans-30" x="63.623047"/>
       <use xlink:href="#DejaVuSans-2e" x="127.246094"/>
       <use xlink:href="#DejaVuSans-30" x="159.033203"/>
      </g>
     </g>
    </g>
    <g id="ytick_8">
     <g id="line2d_14">
      <g>
       <use xlink:href="#m7b0dfe7ec2" x="72" y="104.76" style="stroke: #000000; stroke-width: 0.8"/>
      </g>
     </g>
     <g id="text_14">
      <!-- 12.5 -->
      <g transform="translate(42.734375 108.559219) scale(0.1 -0.1)">
       <use xlink:href="#DejaVuSans-31"/>
       <use xlink:href="#DejaVuSans-32" x="63.623047"/>
       <use xlink:href="#DejaVuSans-2e" x="127.246094"/>
       <use xlink:href="#DejaVuSans-35" x="159.033203"/>
      </g>
     </g>
    </g>
    <g id="ytick_9">
     <g id="line2d_15">
      <g>
       <use xlink:href="#m7b0dfe7ec2" x="72" y="66.96" style="stroke: #000000; stroke-width: 0.8"/>
      </g>
     </g>
     <g id="text_15">
      <!-- 15.0 -->
      <g transform="translate(42.734375 70.759219) scale(0.1 -0.1)">
       <use xlink:href="#DejaVuSans-31"/>
       <use xlink:href="#DejaVuSans-35" x="63.623047"/>
       <use xlink:href="#DejaVuSans-2e" x="127.246094"/>
       <use xlink:href="#DejaVuSans-30" x="159.033203"/>
      </g>
     </g>
    </g>
   </g>
   <g id="line2d_16">
    <path d="M 92.290909 345.626136 
L 96.349091 345.6216 
L 100.407273 345.60648 
L 104.465455 345.5838 
L 108.523636 345.552048 
L 112.581818 345.509712 
L 116.64 345.459816 
L 120.698182 345.399336 
L 124.756364 345.329784 
L 128.814545 345.252672 
L 132.872727 345.164976 
L 136.930909 345.068208 
L 140.989091 344.96388 
L 145.047273 344.848968 
L 149.105455 344.726496 
L 153.163636 344.594952 
L 157.221818 344.454336 
L 161.28 344.30616 
L 165.338182 344.148912 
L 169.396364 343.984104 
L 173.454545 343.810224 
L 177.512727 343.628784 
L 181.570909 343.438272 
L 185.629091 343.241712 
L 189.687273 343.03608 
L 193.745455 342.8244 
L 197.803636 342.603648 
L 201.861818 342.376848 
L 205.92 342.142488 
L 209.978182 341.90208 
L 214.036364 341.654112 
L 218.094545 341.400096 
L 222.152727 341.140032 
L 226.210909 340.87392 
L 230.269091 340.60176 
L 234.327273 340.325064 
L 238.385455 340.04232 
L 242.443636 339.75504 
L 246.501818 339.463224 
L 250.56 339.166872 
L 254.618182 338.865984 
L 258.676364 338.562072 
L 262.734545 338.255136 
L 266.792727 337.945176 
L 270.850909 337.632192 
L 274.909091 337.317696 
L 278.967273 337.000176 
L 283.025455 336.681144 
L 287.083636 336.362112 
L 291.141818 336.04308 
L 295.2 335.722536 
L 299.258182 335.403504 
L 303.316364 335.084472 
L 307.374545 334.766952 
L 311.432727 334.450944 
L 315.490909 334.136448 
L 319.549091 333.826488 
L 323.607273 333.51804 
L 327.665455 333.214128 
L 331.723636 332.914752 
L 335.781818 332.619912 
L 339.84 332.329608 
L 343.898182 332.045352 
L 347.956364 331.767144 
L 352.014545 331.494984 
L 356.072727 331.230384 
L 360.130909 330.971832 
L 364.189091 330.722352 
L 368.247273 330.480432 
L 372.305455 330.247584 
L 376.363636 330.022296 
L 380.421818 329.807592 
L 384.48 329.600448 
L 388.538182 329.403888 
L 392.596364 329.214888 
L 396.654545 329.036472 
L 400.712727 328.867128 
L 404.770909 328.708368 
L 408.829091 328.55868 
L 412.887273 328.416552 
L 416.945455 328.285008 
L 421.003636 328.162536 
L 425.061818 328.049136 
L 429.12 327.943296 
L 433.178182 327.845016 
L 437.236364 327.755808 
L 441.294545 327.67416 
L 445.352727 327.600072 
L 449.410909 327.532032 
L 453.469091 327.471552 
L 457.527273 327.41712 
L 461.585455 327.370248 
L 465.643636 327.327912 
L 469.701818 327.290112 
L 473.76 327.259872 
L 477.818182 327.234168 
L 481.876364 327.213 
L 485.934545 327.196368 
L 489.992727 327.184272 
L 494.050909 327.178224 
L 498.109091 327.1752 
" clip-path="url(#pabbe03164d)" style="fill: none; stroke: #000000; stroke-opacity: 0.5; stroke-linecap: square"/>
   </g>
   <g id="line2d_17">
    <path d="M 92.290909 290.043504 
L 96.349091 290.049552 
L 100.407273 290.066184 
L 104.465455 290.096424 
L 108.523636 290.137248 
L 112.581818 290.190168 
L 116.64 290.253672 
L 120.698182 290.330784 
L 124.756364 290.41848 
L 128.814545 290.518272 
L 132.872727 290.631672 
L 136.930909 290.754144 
L 140.989091 290.890224 
L 145.047273 291.0384 
L 149.105455 291.19716 
L 153.163636 291.369528 
L 157.221818 291.55248 
L 161.28 291.746016 
L 165.338182 291.95316 
L 169.396364 292.170888 
L 173.454545 292.3992 
L 177.512727 292.638096 
L 181.570909 292.889088 
L 185.629091 293.150664 
L 189.687273 293.421312 
L 193.745455 293.702544 
L 197.803636 293.992848 
L 201.861818 294.290712 
L 205.92 294.59916 
L 209.978182 294.915168 
L 214.036364 295.238736 
L 218.094545 295.569864 
L 222.152727 295.90704 
L 226.210909 296.250264 
L 230.269091 296.599536 
L 234.327273 296.953344 
L 238.385455 297.311688 
L 242.443636 297.673056 
L 246.501818 298.03896 
L 250.56 298.406376 
L 254.618182 298.775304 
L 258.676364 299.147256 
L 262.734545 299.517696 
L 266.792727 299.889648 
L 270.850909 300.2616 
L 274.909091 300.63204 
L 278.967273 301.000968 
L 283.025455 301.368384 
L 287.083636 301.732776 
L 291.141818 302.094144 
L 295.2 302.450976 
L 299.258182 302.804784 
L 303.316364 303.154056 
L 307.374545 303.498792 
L 311.432727 303.83748 
L 315.490909 304.17012 
L 319.549091 304.496712 
L 323.607273 304.815744 
L 327.665455 305.128728 
L 331.723636 305.434152 
L 335.781818 305.732016 
L 339.84 306.020808 
L 343.898182 306.30204 
L 347.956364 306.5742 
L 352.014545 306.8388 
L 356.072727 307.094328 
L 360.130909 307.339272 
L 364.189091 307.576656 
L 368.247273 307.803456 
L 372.305455 308.021184 
L 376.363636 308.228328 
L 380.421818 308.4264 
L 384.48 308.6154 
L 388.538182 308.795328 
L 392.596364 308.964672 
L 396.654545 309.124944 
L 400.712727 309.276144 
L 404.770909 309.418272 
L 408.829091 309.551328 
L 412.887273 309.675312 
L 416.945455 309.791736 
L 421.003636 309.9006 
L 425.061818 310.000392 
L 429.12 310.092624 
L 433.178182 310.177296 
L 437.236364 310.25592 
L 441.294545 310.326984 
L 445.352727 310.392 
L 449.410909 310.450968 
L 453.469091 310.503888 
L 457.527273 310.55076 
L 461.585455 310.593096 
L 465.643636 310.629384 
L 469.701818 310.661136 
L 473.76 310.689864 
L 477.818182 310.712544 
L 481.876364 310.730688 
L 485.934545 310.744296 
L 489.992727 310.75488 
L 494.050909 310.760928 
L 498.109091 310.76244 
" clip-path="url(#pabbe03164d)" style="fill: none; stroke: #000000; stroke-opacity: 0.5; stroke-linecap: square"/>
   </g>
   <g id="line2d_18">
    <path d="M 92.290909 244.051488 
L 96.349091 244.130112 
L 100.407273 244.335744 
L 104.465455 244.615464 
L 108.523636 244.939032 
L 112.581818 245.29284 
L 116.64 245.669328 
L 120.698182 246.06396 
L 124.756364 246.473712 
L 128.814545 246.897072 
L 132.872727 247.331016 
L 136.930909 247.77252 
L 140.989091 248.223096 
L 145.047273 248.678208 
L 149.105455 249.139368 
L 153.163636 249.605064 
L 157.221818 250.072272 
L 161.28 250.542504 
L 165.338182 251.014248 
L 169.396364 251.487504 
L 173.454545 251.96076 
L 177.512727 252.434016 
L 181.570909 252.90576 
L 185.629091 253.377504 
L 189.687273 253.849248 
L 193.745455 254.31948 
L 197.803636 254.786688 
L 201.861818 255.253896 
L 205.92 255.71808 
L 209.978182 256.17924 
L 214.036364 256.637376 
L 218.094545 257.094 
L 222.152727 257.546088 
L 226.210909 257.99364 
L 230.269091 258.436656 
L 234.327273 258.875136 
L 238.385455 259.307568 
L 242.443636 259.735464 
L 246.501818 260.1558 
L 250.56 260.568576 
L 254.618182 260.975304 
L 258.676364 261.37296 
L 262.734545 261.761544 
L 266.792727 262.141056 
L 270.850909 262.509984 
L 274.909091 262.868328 
L 278.967273 263.216088 
L 283.025455 263.55024 
L 287.083636 263.873808 
L 291.141818 264.182256 
L 295.2 264.478608 
L 299.258182 264.75984 
L 303.316364 265.027464 
L 307.374545 265.278456 
L 311.432727 265.512816 
L 315.490909 265.730544 
L 319.549091 265.93164 
L 323.607273 266.116104 
L 327.665455 266.280912 
L 331.723636 266.426064 
L 335.781818 266.553072 
L 339.84 266.660424 
L 343.898182 266.74812 
L 347.956364 266.813136 
L 352.014545 266.858496 
L 356.072727 266.881176 
L 360.130909 266.882688 
L 364.189091 266.863032 
L 368.247273 266.819184 
L 372.305455 266.752656 
L 376.363636 266.663448 
L 380.421818 266.550048 
L 384.48 266.413968 
L 388.538182 266.253696 
L 392.596364 266.070744 
L 396.654545 265.862088 
L 400.712727 265.630752 
L 404.770909 265.376736 
L 408.829091 265.098528 
L 412.887273 264.796128 
L 416.945455 264.471048 
L 421.003636 264.121776 
L 425.061818 263.751336 
L 429.12 263.358216 
L 433.178182 262.943928 
L 437.236364 262.508472 
L 441.294545 262.051848 
L 445.352727 261.575568 
L 449.410909 261.081144 
L 453.469091 260.568576 
L 457.527273 260.037864 
L 461.585455 259.493544 
L 465.643636 258.934104 
L 469.701818 258.36408 
L 473.76 257.786496 
L 477.818182 257.204376 
L 481.876364 256.628304 
L 485.934545 256.070376 
L 489.992727 255.560832 
L 494.050909 255.167712 
L 498.109091 255.010464 
" clip-path="url(#pabbe03164d)" style="fill: none; stroke: #000000; stroke-opacity: 0.5; stroke-linecap: square"/>
   </g>
   <g id="line2d_19">
    <path d="M 92.290909 242.885736 
L 96.349091 242.82828 
L 100.407273 242.690688 
L 104.465455 242.524368 
L 108.523636 242.358048 
L 112.581818 242.203824 
L 116.64 242.069256 
L 120.698182 241.955856 
L 124.756364 241.866648 
L 128.814545 241.80012 
L 132.872727 241.757784 
L 136.930909 241.736616 
L 140.989091 241.738128 
L 145.047273 241.760808 
L 149.105455 241.80012 
L 153.163636 241.856064 
L 157.221818 241.927128 
L 161.28 242.010288 
L 165.338182 242.10252 
L 169.396364 242.203824 
L 173.454545 242.309664 
L 177.512727 242.418528 
L 181.570909 242.527392 
L 185.629091 242.636256 
L 189.687273 242.742096 
L 193.745455 242.841888 
L 197.803636 242.935632 
L 201.861818 243.020304 
L 205.92 243.095904 
L 209.978182 243.16092 
L 214.036364 243.212328 
L 218.094545 243.25164 
L 222.152727 243.278856 
L 226.210909 243.28944 
L 230.269091 243.287928 
L 234.327273 243.269784 
L 238.385455 243.238032 
L 242.443636 243.189648 
L 246.501818 243.127656 
L 250.56 243.050544 
L 254.618182 242.959824 
L 258.676364 242.855496 
L 262.734545 242.73756 
L 266.792727 242.606016 
L 270.850909 242.463888 
L 274.909091 242.311176 
L 278.967273 242.146368 
L 283.025455 241.974 
L 287.083636 241.79256 
L 291.141818 241.60356 
L 295.2 241.410024 
L 299.258182 241.21044 
L 303.316364 241.007832 
L 307.374545 240.803712 
L 311.432727 240.59808 
L 315.490909 240.39396 
L 319.549091 240.192864 
L 323.607273 239.996304 
L 327.665455 239.805792 
L 331.723636 239.624352 
L 335.781818 239.451984 
L 339.84 239.291712 
L 343.898182 239.14656 
L 347.956364 239.016528 
L 352.014545 238.906152 
L 356.072727 238.816944 
L 360.130909 238.750416 
L 364.189091 238.709592 
L 368.247273 238.695984 
L 372.305455 238.712616 
L 376.363636 238.759488 
L 380.421818 238.839624 
L 384.48 238.953024 
L 388.538182 239.102712 
L 392.596364 239.288688 
L 396.654545 239.510952 
L 400.712727 239.771016 
L 404.770909 240.067368 
L 408.829091 240.400008 
L 412.887273 240.768936 
L 416.945455 241.17264 
L 421.003636 241.609608 
L 425.061818 242.076816 
L 429.12 242.574264 
L 433.178182 243.10044 
L 437.236364 243.650808 
L 441.294545 244.223856 
L 445.352727 244.818072 
L 449.410909 245.430432 
L 453.469091 246.057912 
L 457.527273 246.697488 
L 461.585455 247.346136 
L 465.643636 248.002344 
L 469.701818 248.661576 
L 473.76 249.317784 
L 477.818182 249.967944 
L 481.876364 250.602984 
L 485.934545 251.206272 
L 489.992727 251.747568 
L 494.050909 252.160344 
L 498.109091 252.325152 
" clip-path="url(#pabbe03164d)" style="fill: none; stroke: #000000; stroke-opacity: 0.5; stroke-linecap: square"/>
   </g>
   <g id="line2d_20">
    <path d="M 92.290909 191.447496 
L 96.349091 191.42784 
L 100.407273 191.365848 
L 104.465455 191.26152 
L 108.523636 191.116368 
L 112.581818 190.927368 
L 116.64 190.693008 
L 120.698182 190.413288 
L 124.756364 190.086696 
L 128.814545 189.713232 
L 132.872727 189.291384 
L 136.930909 188.81964 
L 140.989091 188.301024 
L 145.047273 187.731 
L 149.105455 187.114104 
L 153.163636 186.448824 
L 157.221818 185.73516 
L 161.28 184.976136 
L 165.338182 184.171752 
L 169.396364 183.322008 
L 173.454545 182.429928 
L 177.512727 181.495512 
L 181.570909 180.521784 
L 185.629091 179.507232 
L 189.687273 178.456392 
L 193.745455 177.370776 
L 197.803636 176.248872 
L 201.861818 175.093704 
L 205.92 173.906784 
L 209.978182 172.689624 
L 214.036364 171.442224 
L 218.094545 170.166096 
L 222.152727 168.864264 
L 226.210909 167.535216 
L 230.269091 166.181976 
L 234.327273 164.804544 
L 238.385455 163.404432 
L 242.443636 161.983152 
L 246.501818 160.542216 
L 250.56 159.081624 
L 254.618182 157.605912 
L 258.676364 156.116592 
L 262.734545 154.624248 
L 266.792727 153.168192 
L 270.850909 152.149104 
L 274.909091 153.026064 
L 278.967273 154.465488 
L 283.025455 155.953296 
L 287.083636 157.441104 
L 291.141818 158.918328 
L 295.2 160.375896 
L 299.258182 161.813808 
L 303.316364 163.227528 
L 307.374545 164.615544 
L 311.432727 165.977856 
L 315.490909 167.308416 
L 319.549091 168.610248 
L 323.607273 169.877304 
L 327.665455 171.109584 
L 331.723636 172.304064 
L 335.781818 173.460744 
L 339.84 174.575088 
L 343.898182 175.645584 
L 347.956364 176.67072 
L 352.014545 177.647472 
L 356.072727 178.574328 
L 360.130909 179.446752 
L 364.189091 180.266256 
L 368.247273 181.026792 
L 372.305455 181.729872 
L 376.363636 182.369448 
L 380.421818 182.948544 
L 384.48 183.461112 
L 388.538182 183.910176 
L 392.596364 184.2912 
L 396.654545 184.604184 
L 400.712727 184.85064 
L 404.770909 185.027544 
L 408.829091 185.13792 
L 412.887273 185.181768 
L 416.945455 185.1606 
L 421.003636 185.072904 
L 425.061818 184.923216 
L 429.12 184.711536 
L 433.178182 184.440888 
L 437.236364 184.111272 
L 441.294545 183.727224 
L 445.352727 183.290256 
L 449.410909 182.80188 
L 453.469091 182.26512 
L 457.527273 181.683 
L 461.585455 181.058544 
L 465.643636 180.391752 
L 469.701818 179.690184 
L 473.76 178.95384 
L 477.818182 178.191792 
L 481.876364 177.413112 
L 485.934545 176.63292 
L 489.992727 175.890528 
L 494.050909 175.281192 
L 498.109091 175.021128 
" clip-path="url(#pabbe03164d)" style="fill: none; stroke: #000000; stroke-opacity: 0.5; stroke-linecap: square"/>
   </g>
   <g id="line2d_21">
    <path d="M 92.290909 178.066296 
L 96.349091 178.026984 
L 100.407273 177.909048 
L 104.465455 177.714 
L 108.523636 177.443352 
L 112.581818 177.097104 
L 116.64 176.681304 
L 120.698182 176.195952 
L 124.756364 175.644072 
L 128.814545 175.028688 
L 132.872727 174.354336 
L 136.930909 173.622528 
L 140.989091 172.836288 
L 145.047273 171.99864 
L 149.105455 171.112608 
L 153.163636 170.181216 
L 157.221818 169.205976 
L 161.28 168.189912 
L 165.338182 167.134536 
L 169.396364 166.04136 
L 173.454545 164.91492 
L 177.512727 163.753704 
L 181.570909 162.562248 
L 185.629091 161.33904 
L 189.687273 160.088616 
L 193.745455 158.810976 
L 197.803636 157.509144 
L 201.861818 156.18312 
L 205.92 154.834416 
L 209.978182 153.466056 
L 214.036364 152.081064 
L 218.094545 150.682464 
L 222.152727 149.27328 
L 226.210909 147.864096 
L 230.269091 146.46852 
L 234.327273 145.119816 
L 238.385455 143.901144 
L 242.443636 143.045352 
L 246.501818 143.010576 
L 250.56 143.86788 
L 254.618182 145.159128 
L 258.676364 146.603088 
L 262.734545 148.095432 
L 266.792727 149.554512 
L 270.850909 150.56604 
L 274.909091 149.661864 
L 278.967273 148.16952 
L 283.025455 146.601576 
L 287.083636 145.004904 
L 291.141818 143.388576 
L 295.2 141.757128 
L 299.258182 140.115096 
L 303.316364 138.463992 
L 307.374545 136.80684 
L 311.432727 135.145152 
L 315.490909 133.484976 
L 319.549091 131.83236 
L 323.607273 130.194864 
L 327.665455 128.593656 
L 331.723636 127.063512 
L 335.781818 125.673984 
L 339.84 124.58988 
L 343.898182 124.104528 
L 347.956364 124.422048 
L 352.014545 125.35344 
L 356.072727 126.60084 
L 360.130909 127.994904 
L 364.189091 129.460032 
L 368.247273 130.959936 
L 372.305455 132.476472 
L 376.363636 133.999056 
L 380.421818 135.520128 
L 384.48 137.038176 
L 388.538182 138.548664 
L 392.596364 140.048568 
L 396.654545 141.5394 
L 400.712727 143.018136 
L 404.770909 144.483264 
L 408.829091 145.934784 
L 412.887273 147.372696 
L 416.945455 148.795488 
L 421.003636 150.201648 
L 425.061818 151.592688 
L 429.12 152.965584 
L 433.178182 154.321848 
L 437.236364 155.659968 
L 441.294545 156.978432 
L 445.352727 158.278752 
L 449.410909 159.557904 
L 453.469091 160.815888 
L 457.527273 162.051192 
L 461.585455 163.263816 
L 465.643636 164.450736 
L 469.701818 165.61044 
L 473.76 166.738392 
L 477.818182 167.83308 
L 481.876364 168.882408 
L 485.934545 169.872768 
L 489.992727 170.764848 
L 494.050909 171.46188 
L 498.109091 171.752184 
" clip-path="url(#pabbe03164d)" style="fill: none; stroke: #000000; stroke-opacity: 0.5; stroke-linecap: square"/>
   </g>
   <g id="line2d_22">
    <path d="M 92.290909 90.745272 
L 96.349091 90.746784 
L 100.407273 90.75132 
L 104.465455 90.75888 
L 108.523636 90.772488 
L 112.581818 90.792144 
L 116.64 90.829944 
L 120.698182 90.920664 
L 124.756364 91.279008 
L 128.814545 92.295072 
L 132.872727 93.613536 
L 136.930909 95.042376 
L 140.989091 96.539256 
L 145.047273 98.089056 
L 149.105455 99.67968 
L 153.163636 101.303568 
L 157.221818 102.956184 
L 161.28 104.63148 
L 165.338182 106.326432 
L 169.396364 108.036504 
L 173.454545 109.75716 
L 177.512727 111.4884 
L 181.570909 113.2272 
L 185.629091 114.970536 
L 189.687273 116.716896 
L 193.745455 118.464768 
L 197.803636 120.211128 
L 201.861818 121.954464 
L 205.92 123.694776 
L 209.978182 125.426016 
L 214.036364 127.149696 
L 218.094545 128.858256 
L 222.152727 130.550184 
L 226.210909 132.214896 
L 230.269091 133.837272 
L 234.327273 135.384048 
L 238.385455 136.772064 
L 242.443636 137.769984 
L 246.501818 137.915136 
L 250.56 137.13948 
L 254.618182 135.898128 
L 258.676364 134.466264 
L 262.734545 132.94368 
L 266.792727 131.369688 
L 270.850909 129.759408 
L 274.909091 128.124936 
L 278.967273 126.469296 
L 283.025455 124.798536 
L 287.083636 123.11568 
L 291.141818 121.42224 
L 295.2 119.724264 
L 299.258182 118.0278 
L 303.316364 116.344944 
L 307.374545 114.695352 
L 311.432727 113.137992 
L 315.490909 111.854304 
L 319.549091 111.391632 
L 323.607273 112.097736 
L 327.665455 113.33304 
L 331.723636 114.668136 
L 335.781818 115.911 
L 339.84 116.86356 
L 343.898182 117.217368 
L 347.956364 116.759232 
L 352.014545 115.67664 
L 356.072727 114.267456 
L 360.130909 112.696488 
L 364.189091 111.04236 
L 368.247273 109.342872 
L 372.305455 107.616168 
L 376.363636 105.877368 
L 380.421818 104.138568 
L 384.48 102.414888 
L 388.538182 100.739592 
L 392.596364 99.197352 
L 396.654545 98.027064 
L 400.712727 97.466112 
L 404.770909 97.284672 
L 408.829091 97.243848 
L 412.887273 97.254432 
L 416.945455 97.29072 
L 421.003636 97.33608 
L 425.061818 97.389 
L 429.12 97.443432 
L 433.178182 97.499376 
L 437.236364 97.553808 
L 441.294545 97.606728 
L 445.352727 97.658136 
L 449.410909 97.70652 
L 453.469091 97.753392 
L 457.527273 97.795728 
L 461.585455 97.833528 
L 465.643636 97.869816 
L 469.701818 97.901568 
L 473.76 97.928784 
L 477.818182 97.951464 
L 481.876364 97.97112 
L 485.934545 97.98624 
L 489.992727 97.996824 
L 494.050909 98.002872 
L 498.109091 98.005896 
" clip-path="url(#pabbe03164d)" style="fill: none; stroke: #000000; stroke-opacity: 0.5; stroke-linecap: square"/>
   </g>
   <g id="line2d_23">
    <path d="M 92.290909 84.980016 
L 96.349091 85.084344 
L 100.407273 85.39128 
L 104.465455 85.893264 
L 108.523636 86.572152 
L 112.581818 87.406776 
L 116.64 88.36992 
L 120.698182 89.407152 
L 124.756364 90.2826 
L 128.814545 90.595584 
L 132.872727 90.681768 
L 136.930909 90.725616 
L 140.989091 90.757368 
L 145.047273 90.784584 
L 149.105455 90.810288 
L 153.163636 90.835992 
L 157.221818 90.863208 
L 161.28 90.891936 
L 165.338182 90.920664 
L 169.396364 90.952416 
L 173.454545 90.98568 
L 177.512727 91.021968 
L 181.570909 91.059768 
L 185.629091 91.09908 
L 189.687273 91.141416 
L 193.745455 91.186776 
L 197.803636 91.23516 
L 201.861818 91.285056 
L 205.92 91.336464 
L 209.978182 91.392408 
L 214.036364 91.449864 
L 218.094545 91.511856 
L 222.152727 91.57536 
L 226.210909 91.641888 
L 230.269091 91.71144 
L 234.327273 91.784016 
L 238.385455 91.858104 
L 242.443636 91.936728 
L 246.501818 92.018376 
L 250.56 92.103048 
L 254.618182 92.190744 
L 258.676364 92.281464 
L 262.734545 92.378232 
L 266.792727 92.48256 
L 270.850909 92.597472 
L 274.909091 92.744136 
L 278.967273 93.013272 
L 283.025455 93.89628 
L 287.083636 95.477832 
L 291.141818 97.198488 
L 295.2 98.934264 
L 299.258182 100.657944 
L 303.316364 102.34836 
L 307.374545 103.984344 
L 311.432727 105.505416 
L 315.490909 106.728624 
L 319.549091 107.105112 
L 323.607273 106.281072 
L 327.665455 104.887008 
L 331.723636 103.337208 
L 335.781818 101.770776 
L 339.84 100.273896 
L 343.898182 98.932752 
L 347.956364 97.85772 
L 352.014545 97.113816 
L 356.072727 96.664752 
L 360.130909 96.418296 
L 364.189091 96.291288 
L 368.247273 96.235344 
L 372.305455 96.2172 
L 376.363636 96.220224 
L 380.421818 96.227784 
L 384.48 96.223248 
L 388.538182 96.173352 
L 392.596364 95.993424 
L 396.654545 95.44608 
L 400.712727 94.29696 
L 404.770909 92.775888 
L 408.829091 91.12932 
L 412.887273 89.446464 
L 416.945455 87.766632 
L 421.003636 86.10948 
L 425.061818 84.4992 
L 429.12 82.958472 
L 433.178182 81.523584 
L 437.236364 80.24292 
L 441.294545 79.172424 
L 445.352727 78.348384 
L 449.410909 77.7708 
L 453.469091 77.395824 
L 457.527273 77.162976 
L 461.585455 77.023872 
L 465.643636 76.94676 
L 469.701818 76.904424 
L 473.76 76.88628 
L 477.818182 76.880232 
L 481.876364 76.881744 
L 485.934545 76.88628 
L 489.992727 76.890816 
L 494.050909 76.89384 
L 498.109091 76.895352 
" clip-path="url(#pabbe03164d)" style="fill: none; stroke: #000000; stroke-opacity: 0.5; stroke-linecap: square"/>
   </g>
   <g id="patch_3">
    <path d="M 72 384.48 
L 72 51.84 
" style="fill: none; stroke: #000000; stroke-width: 0.8; stroke-linejoin: miter; stroke-linecap: square"/>
   </g>
   <g id="patch_4">
    <path d="M 518.4 384.48 
L 518.4 51.84 
" style="fill: none; stroke: #000000; stroke-width: 0.8; stroke-linejoin: miter; stroke-linecap: square"/>
   </g>
   <g id="patch_5">
    <path d="M 72 384.48 
L 518.4 384.48 
" style="fill: none; stroke: #000000; stroke-width: 0.8; stroke-linejoin: miter; stroke-linecap: square"/>
   </g>
   <g id="patch_6">
    <path d="M 72 51.84 
L 518.4 51.84 
" style="fill: none; stroke: #000000; stroke-width: 0.8; stroke-linejoin: miter; stroke-linecap: square"/>
   </g>
  </g>
 </g>
 <defs>
  <clipPath id="pabbe03164d">
   <rect x="72" y="51.84" width="446.4" height="332.64"/>
  </clipPath>
 </defs>
</svg>
