<?xml version="1.0" encoding="utf-8" standalone="no"?>
<!DOCTYPE svg PUBLIC "-//W3C//DTD SVG 1.1//EN"
  "http://www.w3.org/Graphics/SVG/1.1/DTD/svg11.dtd">
<svg xmlns:xlink="http://www.w3.org/1999/xlink" width="576pt" height="432pt" viewBox="0 0 576 432" xmlns="http://www.w3.org/2000/svg" version="1.1">
 <metadata>
  <rdf:RDF xmlns:dc="http://purl.org/dc/elements/1.1/" xmlns:cc="http://creativecommons.org/ns#" xmlns:rdf="http://www.w3.org/1999/02/22-rdf-syntax-ns#">
   <cc:Work>
    <dc:type rdf:resource="http://purl.org/dc/dcmitype/StillImage"/>
    <dc:date>2023-05-03T18:06:48.093271</dc:date>
    <dc:format>image/svg+xml</dc:format>
    <dc:creator>
     <cc:Agent>
      <dc:title>Matplotlib v3.7.1, https://matplotlib.org/</dc:title>
     </cc:Agent>
    </dc:creator>
   </cc:Work>
  </rdf:RDF>
 </metadata>
 <defs>
  <style type="text/css">*{stroke-linejoin: round; stroke-linecap: butt}</style>
 </defs>
 <g id="figure_1">
  <g id="patch_1">
   <path d="M 0 432 
L 576 432 
L 576 0 
L 0 0 
z
" style="fill: #ffffff"/>
  </g>
  <g id="axes_1">
   <g id="patch_2">
    <path d="M 72 384.48 
L 518.4 384.48 
L 518.4 51.84 
L 72 51.84 
z
" style="fill: #ffffff"/>
   </g>
   <g id="matplotlib.axis_1">
    <g id="xtick_1">
     <g id="line2d_1">
      <defs>
       <path id="m9577ec7c94" d="M 0 0 
L 0 3.5 
" style="stroke: #000000; stroke-width: 0.8"/>
      </defs>
      <g>
       <use xlink:href="#m9577ec7c94" x="92.290909" y="384.48" style="stroke: #000000; stroke-width: 0.8"/>
      </g>
     </g>
     <g id="text_1">
      <!-- 0.0 -->
      <g transform="translate(84.339347 399.078438) scale(0.1 -0.1)">
       <defs>
        <path id="DejaVuSans-30" d="M 2034 4250 
Q 1547 4250 1301 3770 
Q 1056 3291 1056 2328 
Q 1056 1369 1301 889 
Q 1547 409 2034 409 
Q 2525 409 2770 889 
Q 3016 1369 3016 2328 
Q 3016 3291 2770 3770 
Q 2525 4250 2034 4250 
z
M 2034 4750 
Q 2819 4750 3233 4129 
Q 3647 3509 3647 2328 
Q 3647 1150 3233 529 
Q 2819 -91 2034 -91 
Q 1250 -91 836 529 
Q 422 1150 422 2328 
Q 422 3509 836 4129 
Q 1250 4750 2034 4750 
z
" transform="scale(0.015625)"/>
        <path id="DejaVuSans-2e" d="M 684 794 
L 1344 794 
L 1344 0 
L 684 0 
L 684 794 
z
" transform="scale(0.015625)"/>
       </defs>
       <use xlink:href="#DejaVuSans-30"/>
       <use xlink:href="#DejaVuSans-2e" x="63.623047"/>
       <use xlink:href="#DejaVuSans-30" x="95.410156"/>
      </g>
     </g>
    </g>
    <g id="xtick_2">
     <g id="line2d_2">
      <g>
       <use xlink:href="#m9577ec7c94" x="173.454545" y="384.48" style="stroke: #000000; stroke-width: 0.8"/>
      </g>
     </g>
     <g id="text_2">
      <!-- 0.2 -->
      <g transform="translate(165.502983 399.078438) scale(0.1 -0.1)">
       <defs>
        <path id="DejaVuSans-32" d="M 1228 531 
L 3431 531 
L 3431 0 
L 469 0 
L 469 531 
Q 828 903 1448 1529 
Q 2069 2156 2228 2338 
Q 2531 2678 2651 2914 
Q 2772 3150 2772 3378 
Q 2772 3750 2511 3984 
Q 2250 4219 1831 4219 
Q 1534 4219 1204 4116 
Q 875 4013 500 3803 
L 500 4441 
Q 881 4594 1212 4672 
Q 1544 4750 1819 4750 
Q 2544 4750 2975 4387 
Q 3406 4025 3406 3419 
Q 3406 3131 3298 2873 
Q 3191 2616 2906 2266 
Q 2828 2175 2409 1742 
Q 1991 1309 1228 531 
z
" transform="scale(0.015625)"/>
       </defs>
       <use xlink:href="#DejaVuSans-30"/>
       <use xlink:href="#DejaVuSans-2e" x="63.623047"/>
       <use xlink:href="#DejaVuSans-32" x="95.410156"/>
      </g>
     </g>
    </g>
    <g id="xtick_3">
     <g id="line2d_3">
      <g>
       <use xlink:href="#m9577ec7c94" x="254.618182" y="384.48" style="stroke: #000000; stroke-width: 0.8"/>
      </g>
     </g>
     <g id="text_3">
      <!-- 0.4 -->
      <g transform="translate(246.666619 399.078438) scale(0.1 -0.1)">
       <defs>
        <path id="DejaVuSans-34" d="M 2419 4116 
L 825 1625 
L 2419 1625 
L 2419 4116 
z
M 2253 4666 
L 3047 4666 
L 3047 1625 
L 3713 1625 
L 3713 1100 
L 3047 1100 
L 3047 0 
L 2419 0 
L 2419 1100 
L 313 1100 
L 313 1709 
L 2253 4666 
z
" transform="scale(0.015625)"/>
       </defs>
       <use xlink:href="#DejaVuSans-30"/>
       <use xlink:href="#DejaVuSans-2e" x="63.623047"/>
       <use xlink:href="#DejaVuSans-34" x="95.410156"/>
      </g>
     </g>
    </g>
    <g id="xtick_4">
     <g id="line2d_4">
      <g>
       <use xlink:href="#m9577ec7c94" x="335.781818" y="384.48" style="stroke: #000000; stroke-width: 0.8"/>
      </g>
     </g>
     <g id="text_4">
      <!-- 0.6 -->
      <g transform="translate(327.830256 399.078438) scale(0.1 -0.1)">
       <defs>
        <path id="DejaVuSans-36" d="M 2113 2584 
Q 1688 2584 1439 2293 
Q 1191 2003 1191 1497 
Q 1191 994 1439 701 
Q 1688 409 2113 409 
Q 2538 409 2786 701 
Q 3034 994 3034 1497 
Q 3034 2003 2786 2293 
Q 2538 2584 2113 2584 
z
M 3366 4563 
L 3366 3988 
Q 3128 4100 2886 4159 
Q 2644 4219 2406 4219 
Q 1781 4219 1451 3797 
Q 1122 3375 1075 2522 
Q 1259 2794 1537 2939 
Q 1816 3084 2150 3084 
Q 2853 3084 3261 2657 
Q 3669 2231 3669 1497 
Q 3669 778 3244 343 
Q 2819 -91 2113 -91 
Q 1303 -91 875 529 
Q 447 1150 447 2328 
Q 447 3434 972 4092 
Q 1497 4750 2381 4750 
Q 2619 4750 2861 4703 
Q 3103 4656 3366 4563 
z
" transform="scale(0.015625)"/>
       </defs>
       <use xlink:href="#DejaVuSans-30"/>
       <use xlink:href="#DejaVuSans-2e" x="63.623047"/>
       <use xlink:href="#DejaVuSans-36" x="95.410156"/>
      </g>
     </g>
    </g>
    <g id="xtick_5">
     <g id="line2d_5">
      <g>
       <use xlink:href="#m9577ec7c94" x="416.945455" y="384.48" style="stroke: #000000; stroke-width: 0.8"/>
      </g>
     </g>
     <g id="text_5">
      <!-- 0.8 -->
      <g transform="translate(408.993892 399.078438) scale(0.1 -0.1)">
       <defs>
        <path id="DejaVuSans-38" d="M 2034 2216 
Q 1584 2216 1326 1975 
Q 1069 1734 1069 1313 
Q 1069 891 1326 650 
Q 1584 409 2034 409 
Q 2484 409 2743 651 
Q 3003 894 3003 1313 
Q 3003 1734 2745 1975 
Q 2488 2216 2034 2216 
z
M 1403 2484 
Q 997 2584 770 2862 
Q 544 3141 544 3541 
Q 544 4100 942 4425 
Q 1341 4750 2034 4750 
Q 2731 4750 3128 4425 
Q 3525 4100 3525 3541 
Q 3525 3141 3298 2862 
Q 3072 2584 2669 2484 
Q 3125 2378 3379 2068 
Q 3634 1759 3634 1313 
Q 3634 634 3220 271 
Q 2806 -91 2034 -91 
Q 1263 -91 848 271 
Q 434 634 434 1313 
Q 434 1759 690 2068 
Q 947 2378 1403 2484 
z
M 1172 3481 
Q 1172 3119 1398 2916 
Q 1625 2713 2034 2713 
Q 2441 2713 2670 2916 
Q 2900 3119 2900 3481 
Q 2900 3844 2670 4047 
Q 2441 4250 2034 4250 
Q 1625 4250 1398 4047 
Q 1172 3844 1172 3481 
z
" transform="scale(0.015625)"/>
       </defs>
       <use xlink:href="#DejaVuSans-30"/>
       <use xlink:href="#DejaVuSans-2e" x="63.623047"/>
       <use xlink:href="#DejaVuSans-38" x="95.410156"/>
      </g>
     </g>
    </g>
    <g id="xtick_6">
     <g id="line2d_6">
      <g>
       <use xlink:href="#m9577ec7c94" x="498.109091" y="384.48" style="stroke: #000000; stroke-width: 0.8"/>
      </g>
     </g>
     <g id="text_6">
      <!-- 1.0 -->
      <g transform="translate(490.157528 399.078438) scale(0.1 -0.1)">
       <defs>
        <path id="DejaVuSans-31" d="M 794 531 
L 1825 531 
L 1825 4091 
L 703 3866 
L 703 4441 
L 1819 4666 
L 2450 4666 
L 2450 531 
L 3481 531 
L 3481 0 
L 794 0 
L 794 531 
z
" transform="scale(0.015625)"/>
       </defs>
       <use xlink:href="#DejaVuSans-31"/>
       <use xlink:href="#DejaVuSans-2e" x="63.623047"/>
       <use xlink:href="#DejaVuSans-30" x="95.410156"/>
      </g>
     </g>
    </g>
   </g>
   <g id="matplotlib.axis_2">
    <g id="ytick_1">
     <g id="line2d_7">
      <defs>
       <path id="ma94bf7fa41" d="M 0 0 
L -3.5 0 
" style="stroke: #000000; stroke-width: 0.8"/>
      </defs>
      <g>
       <use xlink:href="#ma94bf7fa41" x="72" y="369.36" style="stroke: #000000; stroke-width: 0.8"/>
      </g>
     </g>
     <g id="text_7">
      <!-- −5.0 -->
      <g transform="translate(40.717187 373.159219) scale(0.1 -0.1)">
       <defs>
        <path id="DejaVuSans-2212" d="M 678 2272 
L 4684 2272 
L 4684 1741 
L 678 1741 
L 678 2272 
z
" transform="scale(0.015625)"/>
        <path id="DejaVuSans-35" d="M 691 4666 
L 3169 4666 
L 3169 4134 
L 1269 4134 
L 1269 2991 
Q 1406 3038 1543 3061 
Q 1681 3084 1819 3084 
Q 2600 3084 3056 2656 
Q 3513 2228 3513 1497 
Q 3513 744 3044 326 
Q 2575 -91 1722 -91 
Q 1428 -91 1123 -41 
Q 819 9 494 109 
L 494 744 
Q 775 591 1075 516 
Q 1375 441 1709 441 
Q 2250 441 2565 725 
Q 2881 1009 2881 1497 
Q 2881 1984 2565 2268 
Q 2250 2553 1709 2553 
Q 1456 2553 1204 2497 
Q 953 2441 691 2322 
L 691 4666 
z
" transform="scale(0.015625)"/>
       </defs>
       <use xlink:href="#DejaVuSans-2212"/>
       <use xlink:href="#DejaVuSans-35" x="83.789062"/>
       <use xlink:href="#DejaVuSans-2e" x="147.412109"/>
       <use xlink:href="#DejaVuSans-30" x="179.199219"/>
      </g>
     </g>
    </g>
    <g id="ytick_2">
     <g id="line2d_8">
      <g>
       <use xlink:href="#ma94bf7fa41" x="72" y="331.56" style="stroke: #000000; stroke-width: 0.8"/>
      </g>
     </g>
     <g id="text_8">
      <!-- −2.5 -->
      <g transform="translate(40.717187 335.359219) scale(0.1 -0.1)">
       <use xlink:href="#DejaVuSans-2212"/>
       <use xlink:href="#DejaVuSans-32" x="83.789062"/>
       <use xlink:href="#DejaVuSans-2e" x="147.412109"/>
       <use xlink:href="#DejaVuSans-35" x="179.199219"/>
      </g>
     </g>
    </g>
    <g id="ytick_3">
     <g id="line2d_9">
      <g>
       <use xlink:href="#ma94bf7fa41" x="72" y="293.76" style="stroke: #000000; stroke-width: 0.8"/>
      </g>
     </g>
     <g id="text_9">
      <!-- 0.0 -->
      <g transform="translate(49.096875 297.559219) scale(0.1 -0.1)">
       <use xlink:href="#DejaVuSans-30"/>
       <use xlink:href="#DejaVuSans-2e" x="63.623047"/>
       <use xlink:href="#DejaVuSans-30" x="95.410156"/>
      </g>
     </g>
    </g>
    <g id="ytick_4">
     <g id="line2d_10">
      <g>
       <use xlink:href="#ma94bf7fa41" x="72" y="255.96" style="stroke: #000000; stroke-width: 0.8"/>
      </g>
     </g>
     <g id="text_10">
      <!-- 2.5 -->
      <g transform="translate(49.096875 259.759219) scale(0.1 -0.1)">
       <use xlink:href="#DejaVuSans-32"/>
       <use xlink:href="#DejaVuSans-2e" x="63.623047"/>
       <use xlink:href="#DejaVuSans-35" x="95.410156"/>
      </g>
     </g>
    </g>
    <g id="ytick_5">
     <g id="line2d_11">
      <g>
       <use xlink:href="#ma94bf7fa41" x="72" y="218.16" style="stroke: #000000; stroke-width: 0.8"/>
      </g>
     </g>
     <g id="text_11">
      <!-- 5.0 -->
      <g transform="translate(49.096875 221.959219) scale(0.1 -0.1)">
       <use xlink:href="#DejaVuSans-35"/>
       <use xlink:href="#DejaVuSans-2e" x="63.623047"/>
       <use xlink:href="#DejaVuSans-30" x="95.410156"/>
      </g>
     </g>
    </g>
    <g id="ytick_6">
     <g id="line2d_12">
      <g>
       <use xlink:href="#ma94bf7fa41" x="72" y="180.36" style="stroke: #000000; stroke-width: 0.8"/>
      </g>
     </g>
     <g id="text_12">
      <!-- 7.5 -->
      <g transform="translate(49.096875 184.159219) scale(0.1 -0.1)">
       <defs>
        <path id="DejaVuSans-37" d="M 525 4666 
L 3525 4666 
L 3525 4397 
L 1831 0 
L 1172 0 
L 2766 4134 
L 525 4134 
L 525 4666 
z
" transform="scale(0.015625)"/>
       </defs>
       <use xlink:href="#DejaVuSans-37"/>
       <use xlink:href="#DejaVuSans-2e" x="63.623047"/>
       <use xlink:href="#DejaVuSans-35" x="95.410156"/>
      </g>
     </g>
    </g>
    <g id="ytick_7">
     <g id="line2d_13">
      <g>
       <use xlink:href="#ma94bf7fa41" x="72" y="142.56" style="stroke: #000000; stroke-width: 0.8"/>
      </g>
     </g>
     <g id="text_13">
      <!-- 10.0 -->
      <g transform="translate(42.734375 146.359219) scale(0.1 -0.1)">
       <use xlink:href="#DejaVuSans-31"/>
       <use xlink:href="#DejaVuSans-30" x="63.623047"/>
       <use xlink:href="#DejaVuSans-2e" x="127.246094"/>
       <use xlink:href="#DejaVuSans-30" x="159.033203"/>
      </g>
     </g>
    </g>
    <g id="ytick_8">
     <g id="line2d_14">
      <g>
       <use xlink:href="#ma94bf7fa41" x="72" y="104.76" style="stroke: #000000; stroke-width: 0.8"/>
      </g>
     </g>
     <g id="text_14">
      <!-- 12.5 -->
      <g transform="translate(42.734375 108.559219) scale(0.1 -0.1)">
       <use xlink:href="#DejaVuSans-31"/>
       <use xlink:href="#DejaVuSans-32" x="63.623047"/>
       <use xlink:href="#DejaVuSans-2e" x="127.246094"/>
       <use xlink:href="#DejaVuSans-35" x="159.033203"/>
      </g>
     </g>
    </g>
    <g id="ytick_9">
     <g id="line2d_15">
      <g>
       <use xlink:href="#ma94bf7fa41" x="72" y="66.96" style="stroke: #000000; stroke-width: 0.8"/>
      </g>
     </g>
     <g id="text_15">
      <!-- 15.0 -->
      <g transform="translate(42.734375 70.759219) scale(0.1 -0.1)">
       <use xlink:href="#DejaVuSans-31"/>
       <use xlink:href="#DejaVuSans-35" x="63.623047"/>
       <use xlink:href="#DejaVuSans-2e" x="127.246094"/>
       <use xlink:href="#DejaVuSans-30" x="159.033203"/>
      </g>
     </g>
    </g>
   </g>
   <g id="line2d_16">
    <path d="M 92.290909 346.53636 
L 96.349091 346.534848 
L 100.407273 346.5288 
L 104.465455 346.519728 
L 108.523636 346.50612 
L 112.581818 346.489488 
L 116.64 346.46832 
L 120.698182 346.44564 
L 124.756364 346.418424 
L 128.814545 346.388184 
L 132.872727 346.35492 
L 136.930909 346.318632 
L 140.989091 346.280832 
L 145.047273 346.24152 
L 149.105455 346.199184 
L 153.163636 346.155336 
L 157.221818 346.111488 
L 161.28 346.066128 
L 165.338182 346.020768 
L 169.396364 345.975408 
L 173.454545 345.93156 
L 177.512727 345.887712 
L 181.570909 345.846888 
L 185.629091 345.807576 
L 189.687273 345.769776 
L 193.745455 345.736512 
L 197.803636 345.706272 
L 201.861818 345.680568 
L 205.92 345.660912 
L 209.978182 345.645792 
L 214.036364 345.63672 
L 218.094545 345.633696 
L 222.152727 345.638232 
L 226.210909 345.65184 
L 230.269091 345.673008 
L 234.327273 345.701736 
L 238.385455 345.739536 
L 242.443636 345.78792 
L 246.501818 345.845376 
L 250.56 345.913416 
L 254.618182 345.990528 
L 258.676364 346.078224 
L 262.734545 346.174992 
L 266.792727 346.283856 
L 270.850909 346.401792 
L 274.909091 346.530312 
L 278.967273 346.667904 
L 283.025455 346.814568 
L 287.083636 346.970304 
L 291.141818 347.135112 
L 295.2 347.308992 
L 299.258182 347.48892 
L 303.316364 347.676408 
L 307.374545 347.871456 
L 311.432727 348.07104 
L 315.490909 348.276672 
L 319.549091 348.48684 
L 323.607273 348.701544 
L 327.665455 348.919272 
L 331.723636 349.140024 
L 335.781818 349.3638 
L 339.84 349.587576 
L 343.898182 349.812864 
L 347.956364 350.039664 
L 352.014545 350.266464 
L 356.072727 350.491752 
L 360.130909 350.715528 
L 364.189091 350.937792 
L 368.247273 351.158544 
L 372.305455 351.376272 
L 376.363636 351.590976 
L 380.421818 351.802656 
L 384.48 352.0098 
L 388.538182 352.212408 
L 392.596364 352.41048 
L 396.654545 352.604016 
L 400.712727 352.793016 
L 404.770909 352.974456 
L 408.829091 353.15136 
L 412.887273 353.322216 
L 416.945455 353.487024 
L 421.003636 353.644272 
L 425.061818 353.79396 
L 429.12 353.9376 
L 433.178182 354.07368 
L 437.236364 354.203712 
L 441.294545 354.324672 
L 445.352727 354.438072 
L 449.410909 354.543912 
L 453.469091 354.64068 
L 457.527273 354.7314 
L 461.585455 354.813048 
L 465.643636 354.885624 
L 469.701818 354.95064 
L 473.76 355.006584 
L 477.818182 355.053456 
L 481.876364 355.092768 
L 485.934545 355.123008 
L 489.992727 355.144176 
L 494.050909 355.157784 
L 498.109091 355.16232 
" clip-path="url(#pfb7c258778)" style="fill: none; stroke: #000000; stroke-opacity: 0.5; stroke-linecap: square"/>
   </g>
   <g id="line2d_17">
    <path d="M 92.290909 290.990016 
L 96.349091 291.021768 
L 100.407273 291.118536 
L 104.465455 291.277296 
L 108.523636 291.496536 
L 112.581818 291.770208 
L 116.64 292.093776 
L 120.698182 292.462704 
L 124.756364 292.872456 
L 128.814545 293.316984 
L 132.872727 293.79024 
L 136.930909 294.2892 
L 140.989091 294.807816 
L 145.047273 295.341552 
L 149.105455 295.887384 
L 153.163636 296.440776 
L 157.221818 296.998704 
L 161.28 297.559656 
L 165.338182 298.119096 
L 169.396364 298.674 
L 173.454545 299.224368 
L 177.512727 299.765664 
L 181.570909 300.296376 
L 185.629091 300.816504 
L 189.687273 301.321512 
L 193.745455 301.812912 
L 197.803636 302.286168 
L 201.861818 302.742792 
L 205.92 303.178248 
L 209.978182 303.594048 
L 214.036364 303.987168 
L 218.094545 304.357608 
L 222.152727 304.702344 
L 226.210909 305.0244 
L 230.269091 305.317728 
L 234.327273 305.586864 
L 238.385455 305.827272 
L 242.443636 306.038952 
L 246.501818 306.221904 
L 250.56 306.376128 
L 254.618182 306.500112 
L 258.676364 306.593856 
L 262.734545 306.65736 
L 266.792727 306.690624 
L 270.850909 306.693648 
L 274.909091 306.666432 
L 278.967273 306.608976 
L 283.025455 306.52128 
L 287.083636 306.403344 
L 291.141818 306.25668 
L 295.2 306.081288 
L 299.258182 305.877168 
L 303.316364 305.64432 
L 307.374545 305.385768 
L 311.432727 305.098488 
L 315.490909 304.785504 
L 319.549091 304.448328 
L 323.607273 304.085448 
L 327.665455 303.698376 
L 331.723636 303.287112 
L 335.781818 302.853168 
L 339.84 302.398056 
L 343.898182 301.921776 
L 347.956364 301.424328 
L 352.014545 300.907224 
L 356.072727 300.371976 
L 360.130909 299.817072 
L 364.189091 299.245536 
L 368.247273 298.657368 
L 372.305455 298.05408 
L 376.363636 297.43416 
L 380.421818 296.802144 
L 384.48 296.155008 
L 388.538182 295.495776 
L 392.596364 294.824448 
L 396.654545 294.144048 
L 400.712727 293.453064 
L 404.770909 292.75452 
L 408.829091 292.048416 
L 412.887273 291.336264 
L 416.945455 290.619576 
L 421.003636 289.901376 
L 425.061818 289.181664 
L 429.12 288.463464 
L 433.178182 287.748288 
L 437.236364 287.037648 
L 441.294545 286.337592 
L 445.352727 285.64812 
L 449.410909 284.97528 
L 453.469091 284.322096 
L 457.527273 283.691592 
L 461.585455 283.09284 
L 465.643636 282.528864 
L 469.701818 282.005712 
L 473.76 281.532456 
L 477.818182 281.115144 
L 481.876364 280.761336 
L 485.934545 280.47708 
L 489.992727 280.268424 
L 494.050909 280.142928 
L 498.109091 280.09908 
" clip-path="url(#pfb7c258778)" style="fill: none; stroke: #000000; stroke-opacity: 0.5; stroke-linecap: square"/>
   </g>
   <g id="line2d_18">
    <path d="M 92.290909 262.440432 
L 96.349091 262.396584 
L 100.407273 262.266552 
L 104.465455 262.051848 
L 108.523636 261.755496 
L 112.581818 261.382032 
L 116.64 260.93448 
L 120.698182 260.4204 
L 124.756364 259.844328 
L 128.814545 259.2108 
L 132.872727 258.524352 
L 136.930909 257.792544 
L 140.989091 257.0184 
L 145.047273 256.204944 
L 149.105455 255.359736 
L 153.163636 254.482776 
L 157.221818 253.580112 
L 161.28 252.651744 
L 165.338182 251.70372 
L 169.396364 250.737552 
L 173.454545 249.756264 
L 177.512727 248.759856 
L 181.570909 247.754376 
L 185.629091 246.738312 
L 189.687273 245.7162 
L 193.745455 244.68804 
L 197.803636 243.656856 
L 201.861818 242.625672 
L 205.92 241.594488 
L 209.978182 240.56784 
L 214.036364 239.544216 
L 218.094545 238.529664 
L 222.152727 237.524184 
L 226.210909 236.5308 
L 230.269091 235.552536 
L 234.327273 234.592416 
L 238.385455 233.653464 
L 242.443636 232.737192 
L 246.501818 231.849648 
L 250.56 230.993856 
L 254.618182 230.17284 
L 258.676364 229.392648 
L 262.734545 228.656304 
L 266.792727 227.966832 
L 270.850909 227.331792 
L 274.909091 226.749672 
L 278.967273 226.22652 
L 283.025455 225.759312 
L 287.083636 225.346536 
L 291.141818 224.983656 
L 295.2 224.66916 
L 299.258182 224.393976 
L 303.316364 224.15508 
L 307.374545 223.949448 
L 311.432727 223.772544 
L 315.490909 223.62588 
L 319.549091 223.517016 
L 323.607273 223.47468 
L 327.665455 223.566912 
L 331.723636 223.846632 
L 335.781818 224.269992 
L 339.84 224.788608 
L 343.898182 225.378288 
L 347.956364 226.026936 
L 352.014545 226.726992 
L 356.072727 227.47392 
L 360.130909 228.26016 
L 364.189091 229.082688 
L 368.247273 229.93848 
L 372.305455 230.819976 
L 376.363636 231.727176 
L 380.421818 232.655544 
L 384.48 233.600544 
L 388.538182 234.560664 
L 392.596364 235.53288 
L 396.654545 236.514168 
L 400.712727 237.503016 
L 404.770909 238.494888 
L 408.829091 239.488272 
L 412.887273 240.480144 
L 416.945455 241.468992 
L 421.003636 242.451792 
L 425.061818 243.427032 
L 429.12 244.388664 
L 433.178182 245.3382 
L 437.236364 246.269592 
L 441.294545 247.179816 
L 445.352727 248.065848 
L 449.410909 248.924664 
L 453.469091 249.748704 
L 457.527273 250.534944 
L 461.585455 251.277336 
L 465.643636 251.969832 
L 469.701818 252.606384 
L 473.76 253.179432 
L 477.818182 253.679904 
L 481.876364 254.103264 
L 485.934545 254.441952 
L 489.992727 254.688408 
L 494.050909 254.838096 
L 498.109091 254.887992 
" clip-path="url(#pfb7c258778)" style="fill: none; stroke: #000000; stroke-opacity: 0.5; stroke-linecap: square"/>
   </g>
   <g id="line2d_19">
    <path d="M 92.290909 227.954736 
L 96.349091 227.951712 
L 100.407273 227.94264 
L 104.465455 227.926008 
L 108.523636 227.90484 
L 112.581818 227.877624 
L 116.64 227.84436 
L 120.698182 227.805048 
L 124.756364 227.759688 
L 128.814545 227.709792 
L 132.872727 227.652336 
L 136.930909 227.590344 
L 140.989091 227.522304 
L 145.047273 227.448216 
L 149.105455 227.369592 
L 153.163636 227.286432 
L 157.221818 227.195712 
L 161.28 227.101968 
L 165.338182 227.002176 
L 169.396364 226.89936 
L 173.454545 226.790496 
L 177.512727 226.677096 
L 181.570909 226.55916 
L 185.629091 226.4382 
L 189.687273 226.311192 
L 193.745455 226.182672 
L 197.803636 226.048104 
L 201.861818 225.912024 
L 205.92 225.771408 
L 209.978182 225.627768 
L 214.036364 225.481104 
L 218.094545 225.329904 
L 222.152727 225.177192 
L 226.210909 225.021456 
L 230.269091 224.862696 
L 234.327273 224.700912 
L 238.385455 224.534592 
L 242.443636 224.36676 
L 246.501818 224.194392 
L 250.56 224.019 
L 254.618182 223.840584 
L 258.676364 223.657632 
L 262.734545 223.470144 
L 266.792727 223.27812 
L 270.850909 223.084584 
L 274.909091 222.889536 
L 278.967273 222.696 
L 283.025455 222.510024 
L 287.083636 222.339168 
L 291.141818 222.18948 
L 295.2 222.071544 
L 299.258182 221.99292 
L 303.316364 221.961168 
L 307.374545 221.98536 
L 311.432727 222.065496 
L 315.490909 222.201576 
L 319.549091 222.384528 
L 323.607273 222.585624 
L 327.665455 222.7338 
L 331.723636 222.773112 
L 335.781818 222.739848 
L 339.84 222.682392 
L 343.898182 222.618888 
L 347.956364 222.553872 
L 352.014545 222.493392 
L 356.072727 222.437448 
L 360.130909 222.38604 
L 364.189091 222.339168 
L 368.247273 222.296832 
L 372.305455 222.259032 
L 376.363636 222.22728 
L 380.421818 222.198552 
L 384.48 222.17436 
L 388.538182 222.153192 
L 392.596364 222.13656 
L 396.654545 222.122952 
L 400.712727 222.112368 
L 404.770909 222.104808 
L 408.829091 222.09876 
L 412.887273 222.095736 
L 416.945455 222.094224 
L 421.003636 222.095736 
L 425.061818 222.097248 
L 429.12 222.100272 
L 433.178182 222.104808 
L 437.236364 222.110856 
L 441.294545 222.116904 
L 445.352727 222.122952 
L 449.410909 222.129 
L 453.469091 222.13656 
L 457.527273 222.142608 
L 461.585455 222.150168 
L 465.643636 222.156216 
L 469.701818 222.162264 
L 473.76 222.1668 
L 477.818182 222.171336 
L 481.876364 222.175872 
L 485.934545 222.178896 
L 489.992727 222.180408 
L 494.050909 222.18192 
L 498.109091 222.18192 
" clip-path="url(#pfb7c258778)" style="fill: none; stroke: #000000; stroke-opacity: 0.5; stroke-linecap: square"/>
   </g>
   <g id="line2d_20">
    <path d="M 92.290909 168.27156 
L 96.349091 168.268536 
L 100.407273 168.257952 
L 104.465455 168.24132 
L 108.523636 168.217128 
L 112.581818 168.1884 
L 116.64 168.152112 
L 120.698182 168.111288 
L 124.756364 168.065928 
L 128.814545 168.01452 
L 132.872727 167.960088 
L 136.930909 167.902632 
L 140.989091 167.843664 
L 145.047273 167.784696 
L 149.105455 167.724216 
L 153.163636 167.66676 
L 157.221818 167.61384 
L 161.28 167.565456 
L 165.338182 167.526144 
L 169.396364 167.497416 
L 173.454545 167.483808 
L 177.512727 167.486832 
L 181.570909 167.511024 
L 185.629091 167.56092 
L 189.687273 167.641056 
L 193.745455 167.75748 
L 197.803636 167.913216 
L 201.861818 168.1128 
L 205.92 168.359256 
L 209.978182 168.65712 
L 214.036364 169.00488 
L 218.094545 169.404048 
L 222.152727 169.8516 
L 226.210909 170.344512 
L 230.269091 170.876736 
L 234.327273 171.443736 
L 238.385455 172.03644 
L 242.443636 172.650312 
L 246.501818 173.27628 
L 250.56 173.909808 
L 254.618182 174.541824 
L 258.676364 175.16628 
L 262.734545 175.777128 
L 266.792727 176.365296 
L 270.850909 176.92776 
L 274.909091 177.45696 
L 278.967273 177.945336 
L 283.025455 178.388352 
L 287.083636 178.781472 
L 291.141818 179.117136 
L 295.2 179.390808 
L 299.258182 179.600976 
L 303.316364 179.743104 
L 307.374545 179.814168 
L 311.432727 179.814168 
L 315.490909 179.741592 
L 319.549091 179.599464 
L 323.607273 179.387784 
L 327.665455 179.109576 
L 331.723636 178.769376 
L 335.781818 178.370208 
L 339.84 177.916608 
L 343.898182 177.414624 
L 347.956364 176.868792 
L 352.014545 176.283648 
L 356.072727 175.66524 
L 360.130909 175.019616 
L 364.189091 174.3498 
L 368.247273 173.66184 
L 372.305455 172.961784 
L 376.363636 172.252656 
L 380.421818 171.542016 
L 384.48 170.832888 
L 388.538182 170.129808 
L 392.596364 169.440336 
L 396.654545 168.769008 
L 400.712727 168.118848 
L 404.770909 167.497416 
L 408.829091 166.907736 
L 412.887273 166.354344 
L 416.945455 165.841776 
L 421.003636 165.370032 
L 425.061818 164.943648 
L 429.12 164.5596 
L 433.178182 164.220912 
L 437.236364 163.921536 
L 441.294545 163.662984 
L 445.352727 163.437696 
L 449.410909 163.247184 
L 453.469091 163.083888 
L 457.527273 162.947808 
L 461.585455 162.832896 
L 465.643636 162.73764 
L 469.701818 162.659016 
L 473.76 162.595512 
L 477.818182 162.544104 
L 481.876364 162.504792 
L 485.934545 162.474552 
L 489.992727 162.454896 
L 494.050909 162.4428 
L 498.109091 162.438264 
" clip-path="url(#pfb7c258778)" style="fill: none; stroke: #000000; stroke-opacity: 0.5; stroke-linecap: square"/>
   </g>
   <g id="line2d_21">
    <path d="M 92.290909 132.825744 
L 96.349091 132.908904 
L 100.407273 133.153848 
L 104.465455 133.543944 
L 108.523636 134.061048 
L 112.581818 134.68248 
L 116.64 135.388584 
L 120.698182 136.159704 
L 124.756364 136.982232 
L 128.814545 137.841048 
L 132.872727 138.725568 
L 136.930909 139.629744 
L 140.989091 140.546016 
L 145.047273 141.468336 
L 149.105455 142.392168 
L 153.163636 143.312976 
L 157.221818 144.226224 
L 161.28 145.128888 
L 165.338182 146.017944 
L 169.396364 146.887344 
L 173.454545 147.735576 
L 177.512727 148.558104 
L 181.570909 149.350392 
L 185.629091 150.107904 
L 189.687273 150.824592 
L 193.745455 151.49592 
L 197.803636 152.117352 
L 201.861818 152.684352 
L 205.92 153.192384 
L 209.978182 153.638424 
L 214.036364 154.022472 
L 218.094545 154.341504 
L 222.152727 154.600056 
L 226.210909 154.798128 
L 230.269091 154.941768 
L 234.327273 155.035512 
L 238.385455 155.083896 
L 242.443636 155.092968 
L 246.501818 155.065752 
L 250.56 155.009808 
L 254.618182 154.926648 
L 258.676364 154.823832 
L 262.734545 154.70136 
L 266.792727 154.566792 
L 270.850909 154.418616 
L 274.909091 154.26288 
L 278.967273 154.101096 
L 283.025455 153.9378 
L 287.083636 153.777528 
L 291.141818 153.629352 
L 295.2 153.51444 
L 299.258182 153.475128 
L 303.316364 153.52956 
L 307.374545 153.636912 
L 311.432727 153.759384 
L 315.490909 153.87732 
L 319.549091 153.98316 
L 323.607273 154.075392 
L 327.665455 154.155528 
L 331.723636 154.220544 
L 335.781818 154.273464 
L 339.84 154.314288 
L 343.898182 154.343016 
L 347.956364 154.364184 
L 352.014545 154.374768 
L 356.072727 154.374768 
L 360.130909 154.367208 
L 364.189091 154.350576 
L 368.247273 154.321848 
L 372.305455 154.282536 
L 376.363636 154.231128 
L 380.421818 154.1646 
L 384.48 154.079928 
L 388.538182 153.9756 
L 392.596364 153.848592 
L 396.654545 153.69588 
L 400.712727 153.512928 
L 404.770909 153.296712 
L 408.829091 153.044208 
L 412.887273 152.752392 
L 416.945455 152.419752 
L 421.003636 152.043264 
L 425.061818 151.625952 
L 429.12 151.166304 
L 433.178182 150.668856 
L 437.236364 150.13512 
L 441.294545 149.572656 
L 445.352727 148.986 
L 449.410909 148.3812 
L 453.469091 147.767328 
L 457.527273 147.151944 
L 461.585455 146.542608 
L 465.643636 145.951416 
L 469.701818 145.38744 
L 473.76 144.862776 
L 477.818182 144.388008 
L 481.876364 143.978256 
L 485.934545 143.642592 
L 489.992727 143.393112 
L 494.050909 143.238888 
L 498.109091 143.18748 
" clip-path="url(#pfb7c258778)" style="fill: none; stroke: #000000; stroke-opacity: 0.5; stroke-linecap: square"/>
   </g>
   <g id="line2d_22">
    <path d="M 92.290909 116.536968 
L 96.349091 117.005688 
L 100.407273 117.509184 
L 104.465455 118.067112 
L 108.523636 118.696104 
L 112.581818 119.397672 
L 116.64 120.16728 
L 120.698182 120.997368 
L 124.756364 121.877352 
L 128.814545 122.795136 
L 132.872727 123.746184 
L 136.930909 124.719912 
L 140.989091 125.710272 
L 145.047273 126.711216 
L 149.105455 127.71972 
L 153.163636 128.731248 
L 157.221818 129.741264 
L 161.28 130.746744 
L 165.338182 131.746176 
L 169.396364 132.736536 
L 173.454545 133.717824 
L 177.512727 134.683992 
L 181.570909 135.636552 
L 185.629091 136.573992 
L 189.687273 137.493288 
L 193.745455 138.395952 
L 197.803636 139.277448 
L 201.861818 140.137776 
L 205.92 140.976936 
L 209.978182 141.793416 
L 214.036364 142.585704 
L 218.094545 143.355312 
L 222.152727 144.097704 
L 226.210909 144.815904 
L 230.269091 145.5084 
L 234.327273 146.17368 
L 238.385455 146.811744 
L 242.443636 147.422592 
L 246.501818 148.004712 
L 250.56 148.559616 
L 254.618182 149.085792 
L 258.676364 149.58324 
L 262.734545 150.05196 
L 266.792727 150.491952 
L 270.850909 150.903216 
L 274.909091 151.28424 
L 278.967273 151.633512 
L 283.025455 151.952544 
L 287.083636 152.235288 
L 291.141818 152.474184 
L 295.2 152.648064 
L 299.258182 152.72064 
L 303.316364 152.669232 
L 307.374545 152.537688 
L 311.432727 152.36532 
L 315.490909 152.170272 
L 319.549091 151.960104 
L 323.607273 151.73784 
L 327.665455 151.501968 
L 331.723636 151.252488 
L 335.781818 150.9894 
L 339.84 150.70968 
L 343.898182 150.411816 
L 347.956364 150.094296 
L 352.014545 149.75712 
L 356.072727 149.395752 
L 360.130909 149.011704 
L 364.189091 148.601952 
L 368.247273 148.168008 
L 372.305455 147.706848 
L 376.363636 147.218472 
L 380.421818 146.70288 
L 384.48 146.161584 
L 388.538182 145.593072 
L 392.596364 144.997344 
L 396.654545 144.375912 
L 400.712727 143.728776 
L 404.770909 143.05896 
L 408.829091 142.364952 
L 412.887273 141.649776 
L 416.945455 140.913432 
L 421.003636 140.158944 
L 425.061818 139.387824 
L 429.12 138.601584 
L 433.178182 137.801736 
L 437.236364 136.994328 
L 441.294545 136.17936 
L 445.352727 135.359856 
L 449.410909 134.541864 
L 453.469091 133.726896 
L 457.527273 132.921 
L 461.585455 132.128712 
L 465.643636 131.357592 
L 469.701818 130.612176 
L 473.76 129.901536 
L 477.818182 129.233232 
L 481.876364 128.61936 
L 485.934545 128.079576 
L 489.992727 127.642608 
L 494.050909 127.346256 
L 498.109091 127.240416 
" clip-path="url(#pfb7c258778)" style="fill: none; stroke: #000000; stroke-opacity: 0.5; stroke-linecap: square"/>
   </g>
   <g id="line2d_23">
    <path d="M 92.290909 116.520336 
L 96.349091 116.036496 
L 100.407273 115.492176 
L 104.465455 114.869232 
L 108.523636 114.155568 
L 112.581818 113.351184 
L 116.64 112.462128 
L 120.698182 111.502008 
L 124.756364 110.476872 
L 128.814545 109.397304 
L 132.872727 108.273888 
L 136.930909 107.109648 
L 140.989091 105.912144 
L 145.047273 104.687424 
L 149.105455 103.438512 
L 153.163636 102.168432 
L 157.221818 100.880208 
L 161.28 99.579888 
L 165.338182 98.268984 
L 169.396364 96.95052 
L 173.454545 95.629032 
L 177.512727 94.309056 
L 181.570909 92.995128 
L 185.629091 91.694808 
L 189.687273 90.417168 
L 193.745455 89.17128 
L 197.803636 87.973776 
L 201.861818 86.845824 
L 205.92 85.810104 
L 209.978182 84.89988 
L 214.036364 84.142368 
L 218.094545 83.564784 
L 222.152727 83.174688 
L 226.210909 82.958472 
L 230.269091 82.893456 
L 234.327273 82.947888 
L 238.385455 83.09304 
L 242.443636 83.300184 
L 246.501818 83.552688 
L 250.56 83.83392 
L 254.618182 84.130272 
L 258.676364 84.432672 
L 262.734545 84.73356 
L 266.792727 85.025376 
L 270.850909 85.302072 
L 274.909091 85.562136 
L 278.967273 85.79952 
L 283.025455 86.012712 
L 287.083636 86.2002 
L 291.141818 86.357448 
L 295.2 86.48748 
L 299.258182 86.587272 
L 303.316364 86.658336 
L 307.374545 86.702184 
L 311.432727 86.720328 
L 315.490909 86.717304 
L 319.549091 86.696136 
L 323.607273 86.664384 
L 327.665455 86.629608 
L 331.723636 86.602392 
L 335.781818 86.596344 
L 339.84 86.626584 
L 343.898182 86.71428 
L 347.956364 86.8806 
L 352.014545 87.148224 
L 356.072727 87.53832 
L 360.130909 88.062984 
L 364.189091 88.72524 
L 368.247273 89.520552 
L 372.305455 90.4338 
L 376.363636 91.44684 
L 380.421818 92.540016 
L 384.48 93.695184 
L 388.538182 94.897224 
L 392.596364 96.13404 
L 396.654545 97.393536 
L 400.712727 98.671176 
L 404.770909 99.956376 
L 408.829091 101.246112 
L 412.887273 102.534336 
L 416.945455 103.819536 
L 421.003636 105.095664 
L 425.061818 106.359696 
L 429.12 107.61012 
L 433.178182 108.843912 
L 437.236364 110.058048 
L 441.294545 111.249504 
L 445.352727 112.416768 
L 449.410909 113.553792 
L 453.469091 114.659064 
L 457.527273 115.728048 
L 461.585455 116.756208 
L 465.643636 117.739008 
L 469.701818 118.6704 
L 473.76 119.542824 
L 477.818182 120.347208 
L 481.876364 121.072968 
L 485.934545 121.698936 
L 489.992727 122.20092 
L 494.050909 122.53356 
L 498.109091 122.653008 
" clip-path="url(#pfb7c258778)" style="fill: none; stroke: #000000; stroke-opacity: 0.5; stroke-linecap: square"/>
   </g>
   <g id="patch_3">
    <path d="M 72 384.48 
L 72 51.84 
" style="fill: none; stroke: #000000; stroke-width: 0.8; stroke-linejoin: miter; stroke-linecap: square"/>
   </g>
   <g id="patch_4">
    <path d="M 518.4 384.48 
L 518.4 51.84 
" style="fill: none; stroke: #000000; stroke-width: 0.8; stroke-linejoin: miter; stroke-linecap: square"/>
   </g>
   <g id="patch_5">
    <path d="M 72 384.48 
L 518.4 384.48 
" style="fill: none; stroke: #000000; stroke-width: 0.8; stroke-linejoin: miter; stroke-linecap: square"/>
   </g>
   <g id="patch_6">
    <path d="M 72 51.84 
L 518.4 51.84 
" style="fill: none; stroke: #000000; stroke-width: 0.8; stroke-linejoin: miter; stroke-linecap: square"/>
   </g>
  </g>
 </g>
 <defs>
  <clipPath id="pfb7c258778">
   <rect x="72" y="51.84" width="446.4" height="332.64"/>
  </clipPath>
 </defs>
</svg>
