<?xml version="1.0" encoding="utf-8" standalone="no"?>
<!DOCTYPE svg PUBLIC "-//W3C//DTD SVG 1.1//EN"
  "http://www.w3.org/Graphics/SVG/1.1/DTD/svg11.dtd">
<svg xmlns:xlink="http://www.w3.org/1999/xlink" width="576pt" height="432pt" viewBox="0 0 576 432" xmlns="http://www.w3.org/2000/svg" version="1.1">
 <metadata>
  <rdf:RDF xmlns:dc="http://purl.org/dc/elements/1.1/" xmlns:cc="http://creativecommons.org/ns#" xmlns:rdf="http://www.w3.org/1999/02/22-rdf-syntax-ns#">
   <cc:Work>
    <dc:type rdf:resource="http://purl.org/dc/dcmitype/StillImage"/>
    <dc:date>2023-05-04T12:01:57.268938</dc:date>
    <dc:format>image/svg+xml</dc:format>
    <dc:creator>
     <cc:Agent>
      <dc:title>Matplotlib v3.7.1, https://matplotlib.org/</dc:title>
     </cc:Agent>
    </dc:creator>
   </cc:Work>
  </rdf:RDF>
 </metadata>
 <defs>
  <style type="text/css">*{stroke-linejoin: round; stroke-linecap: butt}</style>
 </defs>
 <g id="figure_1">
  <g id="patch_1">
   <path d="M 0 432 
L 576 432 
L 576 0 
L 0 0 
z
" style="fill: #ffffff"/>
  </g>
  <g id="axes_1">
   <g id="patch_2">
    <path d="M 72 384.48 
L 518.4 384.48 
L 518.4 51.84 
L 72 51.84 
z
" style="fill: #ffffff"/>
   </g>
   <g id="matplotlib.axis_1">
    <g id="xtick_1">
     <g id="line2d_1">
      <defs>
       <path id="m19bfb09ace" d="M 0 0 
L 0 3.5 
" style="stroke: #000000; stroke-width: 0.8"/>
      </defs>
      <g>
       <use xlink:href="#m19bfb09ace" x="92.290909" y="384.48" style="stroke: #000000; stroke-width: 0.8"/>
      </g>
     </g>
     <g id="text_1">
      <!-- 0.0 -->
      <g transform="translate(84.339347 399.078438) scale(0.1 -0.1)">
       <defs>
        <path id="DejaVuSans-30" d="M 2034 4250 
Q 1547 4250 1301 3770 
Q 1056 3291 1056 2328 
Q 1056 1369 1301 889 
Q 1547 409 2034 409 
Q 2525 409 2770 889 
Q 3016 1369 3016 2328 
Q 3016 3291 2770 3770 
Q 2525 4250 2034 4250 
z
M 2034 4750 
Q 2819 4750 3233 4129 
Q 3647 3509 3647 2328 
Q 3647 1150 3233 529 
Q 2819 -91 2034 -91 
Q 1250 -91 836 529 
Q 422 1150 422 2328 
Q 422 3509 836 4129 
Q 1250 4750 2034 4750 
z
" transform="scale(0.015625)"/>
        <path id="DejaVuSans-2e" d="M 684 794 
L 1344 794 
L 1344 0 
L 684 0 
L 684 794 
z
" transform="scale(0.015625)"/>
       </defs>
       <use xlink:href="#DejaVuSans-30"/>
       <use xlink:href="#DejaVuSans-2e" x="63.623047"/>
       <use xlink:href="#DejaVuSans-30" x="95.410156"/>
      </g>
     </g>
    </g>
    <g id="xtick_2">
     <g id="line2d_2">
      <g>
       <use xlink:href="#m19bfb09ace" x="173.454545" y="384.48" style="stroke: #000000; stroke-width: 0.8"/>
      </g>
     </g>
     <g id="text_2">
      <!-- 0.2 -->
      <g transform="translate(165.502983 399.078438) scale(0.1 -0.1)">
       <defs>
        <path id="DejaVuSans-32" d="M 1228 531 
L 3431 531 
L 3431 0 
L 469 0 
L 469 531 
Q 828 903 1448 1529 
Q 2069 2156 2228 2338 
Q 2531 2678 2651 2914 
Q 2772 3150 2772 3378 
Q 2772 3750 2511 3984 
Q 2250 4219 1831 4219 
Q 1534 4219 1204 4116 
Q 875 4013 500 3803 
L 500 4441 
Q 881 4594 1212 4672 
Q 1544 4750 1819 4750 
Q 2544 4750 2975 4387 
Q 3406 4025 3406 3419 
Q 3406 3131 3298 2873 
Q 3191 2616 2906 2266 
Q 2828 2175 2409 1742 
Q 1991 1309 1228 531 
z
" transform="scale(0.015625)"/>
       </defs>
       <use xlink:href="#DejaVuSans-30"/>
       <use xlink:href="#DejaVuSans-2e" x="63.623047"/>
       <use xlink:href="#DejaVuSans-32" x="95.410156"/>
      </g>
     </g>
    </g>
    <g id="xtick_3">
     <g id="line2d_3">
      <g>
       <use xlink:href="#m19bfb09ace" x="254.618182" y="384.48" style="stroke: #000000; stroke-width: 0.8"/>
      </g>
     </g>
     <g id="text_3">
      <!-- 0.4 -->
      <g transform="translate(246.666619 399.078438) scale(0.1 -0.1)">
       <defs>
        <path id="DejaVuSans-34" d="M 2419 4116 
L 825 1625 
L 2419 1625 
L 2419 4116 
z
M 2253 4666 
L 3047 4666 
L 3047 1625 
L 3713 1625 
L 3713 1100 
L 3047 1100 
L 3047 0 
L 2419 0 
L 2419 1100 
L 313 1100 
L 313 1709 
L 2253 4666 
z
" transform="scale(0.015625)"/>
       </defs>
       <use xlink:href="#DejaVuSans-30"/>
       <use xlink:href="#DejaVuSans-2e" x="63.623047"/>
       <use xlink:href="#DejaVuSans-34" x="95.410156"/>
      </g>
     </g>
    </g>
    <g id="xtick_4">
     <g id="line2d_4">
      <g>
       <use xlink:href="#m19bfb09ace" x="335.781818" y="384.48" style="stroke: #000000; stroke-width: 0.8"/>
      </g>
     </g>
     <g id="text_4">
      <!-- 0.6 -->
      <g transform="translate(327.830256 399.078438) scale(0.1 -0.1)">
       <defs>
        <path id="DejaVuSans-36" d="M 2113 2584 
Q 1688 2584 1439 2293 
Q 1191 2003 1191 1497 
Q 1191 994 1439 701 
Q 1688 409 2113 409 
Q 2538 409 2786 701 
Q 3034 994 3034 1497 
Q 3034 2003 2786 2293 
Q 2538 2584 2113 2584 
z
M 3366 4563 
L 3366 3988 
Q 3128 4100 2886 4159 
Q 2644 4219 2406 4219 
Q 1781 4219 1451 3797 
Q 1122 3375 1075 2522 
Q 1259 2794 1537 2939 
Q 1816 3084 2150 3084 
Q 2853 3084 3261 2657 
Q 3669 2231 3669 1497 
Q 3669 778 3244 343 
Q 2819 -91 2113 -91 
Q 1303 -91 875 529 
Q 447 1150 447 2328 
Q 447 3434 972 4092 
Q 1497 4750 2381 4750 
Q 2619 4750 2861 4703 
Q 3103 4656 3366 4563 
z
" transform="scale(0.015625)"/>
       </defs>
       <use xlink:href="#DejaVuSans-30"/>
       <use xlink:href="#DejaVuSans-2e" x="63.623047"/>
       <use xlink:href="#DejaVuSans-36" x="95.410156"/>
      </g>
     </g>
    </g>
    <g id="xtick_5">
     <g id="line2d_5">
      <g>
       <use xlink:href="#m19bfb09ace" x="416.945455" y="384.48" style="stroke: #000000; stroke-width: 0.8"/>
      </g>
     </g>
     <g id="text_5">
      <!-- 0.8 -->
      <g transform="translate(408.993892 399.078438) scale(0.1 -0.1)">
       <defs>
        <path id="DejaVuSans-38" d="M 2034 2216 
Q 1584 2216 1326 1975 
Q 1069 1734 1069 1313 
Q 1069 891 1326 650 
Q 1584 409 2034 409 
Q 2484 409 2743 651 
Q 3003 894 3003 1313 
Q 3003 1734 2745 1975 
Q 2488 2216 2034 2216 
z
M 1403 2484 
Q 997 2584 770 2862 
Q 544 3141 544 3541 
Q 544 4100 942 4425 
Q 1341 4750 2034 4750 
Q 2731 4750 3128 4425 
Q 3525 4100 3525 3541 
Q 3525 3141 3298 2862 
Q 3072 2584 2669 2484 
Q 3125 2378 3379 2068 
Q 3634 1759 3634 1313 
Q 3634 634 3220 271 
Q 2806 -91 2034 -91 
Q 1263 -91 848 271 
Q 434 634 434 1313 
Q 434 1759 690 2068 
Q 947 2378 1403 2484 
z
M 1172 3481 
Q 1172 3119 1398 2916 
Q 1625 2713 2034 2713 
Q 2441 2713 2670 2916 
Q 2900 3119 2900 3481 
Q 2900 3844 2670 4047 
Q 2441 4250 2034 4250 
Q 1625 4250 1398 4047 
Q 1172 3844 1172 3481 
z
" transform="scale(0.015625)"/>
       </defs>
       <use xlink:href="#DejaVuSans-30"/>
       <use xlink:href="#DejaVuSans-2e" x="63.623047"/>
       <use xlink:href="#DejaVuSans-38" x="95.410156"/>
      </g>
     </g>
    </g>
    <g id="xtick_6">
     <g id="line2d_6">
      <g>
       <use xlink:href="#m19bfb09ace" x="498.109091" y="384.48" style="stroke: #000000; stroke-width: 0.8"/>
      </g>
     </g>
     <g id="text_6">
      <!-- 1.0 -->
      <g transform="translate(490.157528 399.078438) scale(0.1 -0.1)">
       <defs>
        <path id="DejaVuSans-31" d="M 794 531 
L 1825 531 
L 1825 4091 
L 703 3866 
L 703 4441 
L 1819 4666 
L 2450 4666 
L 2450 531 
L 3481 531 
L 3481 0 
L 794 0 
L 794 531 
z
" transform="scale(0.015625)"/>
       </defs>
       <use xlink:href="#DejaVuSans-31"/>
       <use xlink:href="#DejaVuSans-2e" x="63.623047"/>
       <use xlink:href="#DejaVuSans-30" x="95.410156"/>
      </g>
     </g>
    </g>
   </g>
   <g id="matplotlib.axis_2">
    <g id="ytick_1">
     <g id="line2d_7">
      <defs>
       <path id="m78fae25331" d="M 0 0 
L -3.5 0 
" style="stroke: #000000; stroke-width: 0.8"/>
      </defs>
      <g>
       <use xlink:href="#m78fae25331" x="72" y="369.36" style="stroke: #000000; stroke-width: 0.8"/>
      </g>
     </g>
     <g id="text_7">
      <!-- −5.0 -->
      <g transform="translate(40.717187 373.159219) scale(0.1 -0.1)">
       <defs>
        <path id="DejaVuSans-2212" d="M 678 2272 
L 4684 2272 
L 4684 1741 
L 678 1741 
L 678 2272 
z
" transform="scale(0.015625)"/>
        <path id="DejaVuSans-35" d="M 691 4666 
L 3169 4666 
L 3169 4134 
L 1269 4134 
L 1269 2991 
Q 1406 3038 1543 3061 
Q 1681 3084 1819 3084 
Q 2600 3084 3056 2656 
Q 3513 2228 3513 1497 
Q 3513 744 3044 326 
Q 2575 -91 1722 -91 
Q 1428 -91 1123 -41 
Q 819 9 494 109 
L 494 744 
Q 775 591 1075 516 
Q 1375 441 1709 441 
Q 2250 441 2565 725 
Q 2881 1009 2881 1497 
Q 2881 1984 2565 2268 
Q 2250 2553 1709 2553 
Q 1456 2553 1204 2497 
Q 953 2441 691 2322 
L 691 4666 
z
" transform="scale(0.015625)"/>
       </defs>
       <use xlink:href="#DejaVuSans-2212"/>
       <use xlink:href="#DejaVuSans-35" x="83.789062"/>
       <use xlink:href="#DejaVuSans-2e" x="147.412109"/>
       <use xlink:href="#DejaVuSans-30" x="179.199219"/>
      </g>
     </g>
    </g>
    <g id="ytick_2">
     <g id="line2d_8">
      <g>
       <use xlink:href="#m78fae25331" x="72" y="331.56" style="stroke: #000000; stroke-width: 0.8"/>
      </g>
     </g>
     <g id="text_8">
      <!-- −2.5 -->
      <g transform="translate(40.717187 335.359219) scale(0.1 -0.1)">
       <use xlink:href="#DejaVuSans-2212"/>
       <use xlink:href="#DejaVuSans-32" x="83.789062"/>
       <use xlink:href="#DejaVuSans-2e" x="147.412109"/>
       <use xlink:href="#DejaVuSans-35" x="179.199219"/>
      </g>
     </g>
    </g>
    <g id="ytick_3">
     <g id="line2d_9">
      <g>
       <use xlink:href="#m78fae25331" x="72" y="293.76" style="stroke: #000000; stroke-width: 0.8"/>
      </g>
     </g>
     <g id="text_9">
      <!-- 0.0 -->
      <g transform="translate(49.096875 297.559219) scale(0.1 -0.1)">
       <use xlink:href="#DejaVuSans-30"/>
       <use xlink:href="#DejaVuSans-2e" x="63.623047"/>
       <use xlink:href="#DejaVuSans-30" x="95.410156"/>
      </g>
     </g>
    </g>
    <g id="ytick_4">
     <g id="line2d_10">
      <g>
       <use xlink:href="#m78fae25331" x="72" y="255.96" style="stroke: #000000; stroke-width: 0.8"/>
      </g>
     </g>
     <g id="text_10">
      <!-- 2.5 -->
      <g transform="translate(49.096875 259.759219) scale(0.1 -0.1)">
       <use xlink:href="#DejaVuSans-32"/>
       <use xlink:href="#DejaVuSans-2e" x="63.623047"/>
       <use xlink:href="#DejaVuSans-35" x="95.410156"/>
      </g>
     </g>
    </g>
    <g id="ytick_5">
     <g id="line2d_11">
      <g>
       <use xlink:href="#m78fae25331" x="72" y="218.16" style="stroke: #000000; stroke-width: 0.8"/>
      </g>
     </g>
     <g id="text_11">
      <!-- 5.0 -->
      <g transform="translate(49.096875 221.959219) scale(0.1 -0.1)">
       <use xlink:href="#DejaVuSans-35"/>
       <use xlink:href="#DejaVuSans-2e" x="63.623047"/>
       <use xlink:href="#DejaVuSans-30" x="95.410156"/>
      </g>
     </g>
    </g>
    <g id="ytick_6">
     <g id="line2d_12">
      <g>
       <use xlink:href="#m78fae25331" x="72" y="180.36" style="stroke: #000000; stroke-width: 0.8"/>
      </g>
     </g>
     <g id="text_12">
      <!-- 7.5 -->
      <g transform="translate(49.096875 184.159219) scale(0.1 -0.1)">
       <defs>
        <path id="DejaVuSans-37" d="M 525 4666 
L 3525 4666 
L 3525 4397 
L 1831 0 
L 1172 0 
L 2766 4134 
L 525 4134 
L 525 4666 
z
" transform="scale(0.015625)"/>
       </defs>
       <use xlink:href="#DejaVuSans-37"/>
       <use xlink:href="#DejaVuSans-2e" x="63.623047"/>
       <use xlink:href="#DejaVuSans-35" x="95.410156"/>
      </g>
     </g>
    </g>
    <g id="ytick_7">
     <g id="line2d_13">
      <g>
       <use xlink:href="#m78fae25331" x="72" y="142.56" style="stroke: #000000; stroke-width: 0.8"/>
      </g>
     </g>
     <g id="text_13">
      <!-- 10.0 -->
      <g transform="translate(42.734375 146.359219) scale(0.1 -0.1)">
       <use xlink:href="#DejaVuSans-31"/>
       <use xlink:href="#DejaVuSans-30" x="63.623047"/>
       <use xlink:href="#DejaVuSans-2e" x="127.246094"/>
       <use xlink:href="#DejaVuSans-30" x="159.033203"/>
      </g>
     </g>
    </g>
    <g id="ytick_8">
     <g id="line2d_14">
      <g>
       <use xlink:href="#m78fae25331" x="72" y="104.76" style="stroke: #000000; stroke-width: 0.8"/>
      </g>
     </g>
     <g id="text_14">
      <!-- 12.5 -->
      <g transform="translate(42.734375 108.559219) scale(0.1 -0.1)">
       <use xlink:href="#DejaVuSans-31"/>
       <use xlink:href="#DejaVuSans-32" x="63.623047"/>
       <use xlink:href="#DejaVuSans-2e" x="127.246094"/>
       <use xlink:href="#DejaVuSans-35" x="159.033203"/>
      </g>
     </g>
    </g>
    <g id="ytick_9">
     <g id="line2d_15">
      <g>
       <use xlink:href="#m78fae25331" x="72" y="66.96" style="stroke: #000000; stroke-width: 0.8"/>
      </g>
     </g>
     <g id="text_15">
      <!-- 15.0 -->
      <g transform="translate(42.734375 70.759219) scale(0.1 -0.1)">
       <use xlink:href="#DejaVuSans-31"/>
       <use xlink:href="#DejaVuSans-35" x="63.623047"/>
       <use xlink:href="#DejaVuSans-2e" x="127.246094"/>
       <use xlink:href="#DejaVuSans-30" x="159.033203"/>
      </g>
     </g>
    </g>
   </g>
   <g id="line2d_16">
    <path d="M 92.290909 325.3608 
L 96.349091 325.372896 
L 100.407273 325.410696 
L 104.465455 325.472688 
L 108.523636 325.560384 
L 112.581818 325.672272 
L 116.64 325.80684 
L 120.698182 325.964088 
L 124.756364 326.144016 
L 128.814545 326.345112 
L 132.872727 326.567376 
L 136.930909 326.807784 
L 140.989091 327.067848 
L 145.047273 327.346056 
L 149.105455 327.640896 
L 153.163636 327.952368 
L 157.221818 328.277448 
L 161.28 328.61916 
L 165.338182 328.972968 
L 169.396364 329.340384 
L 173.454545 329.718384 
L 177.512727 330.10848 
L 181.570909 330.50916 
L 185.629091 330.918912 
L 189.687273 331.339248 
L 193.745455 331.767144 
L 197.803636 332.201088 
L 201.861818 332.644104 
L 205.92 333.091656 
L 209.978182 333.545256 
L 214.036364 334.004904 
L 218.094545 334.467576 
L 222.152727 334.934784 
L 226.210909 335.405016 
L 230.269091 335.878272 
L 234.327273 336.35304 
L 238.385455 336.82932 
L 242.443636 337.307112 
L 246.501818 337.784904 
L 250.56 338.262696 
L 254.618182 338.740488 
L 258.676364 339.216768 
L 262.734545 339.691536 
L 266.792727 340.164792 
L 270.850909 340.636536 
L 274.909091 341.103744 
L 278.967273 341.56944 
L 283.025455 342.032112 
L 287.083636 342.490248 
L 291.141818 342.943848 
L 295.2 343.394424 
L 299.258182 343.838952 
L 303.316364 344.278944 
L 307.374545 344.712888 
L 311.432727 345.142296 
L 315.490909 345.565656 
L 319.549091 345.981456 
L 323.607273 346.39272 
L 327.665455 346.796424 
L 331.723636 347.192568 
L 335.781818 347.582664 
L 339.84 347.9652 
L 343.898182 348.340176 
L 347.956364 348.70608 
L 352.014545 349.065936 
L 356.072727 349.41672 
L 360.130909 349.759944 
L 364.189091 350.094096 
L 368.247273 350.420688 
L 372.305455 350.738208 
L 376.363636 351.046656 
L 380.421818 351.346032 
L 384.48 351.636336 
L 388.538182 351.917568 
L 392.596364 352.189728 
L 396.654545 352.451304 
L 400.712727 352.70532 
L 404.770909 352.948752 
L 408.829091 353.1816 
L 412.887273 353.405376 
L 416.945455 353.62008 
L 421.003636 353.822688 
L 425.061818 354.017736 
L 429.12 354.200688 
L 433.178182 354.374568 
L 437.236364 354.537864 
L 441.294545 354.690576 
L 445.352727 354.834216 
L 449.410909 354.96576 
L 453.469091 355.088232 
L 457.527273 355.198608 
L 461.585455 355.299912 
L 465.643636 355.390632 
L 469.701818 355.470768 
L 473.76 355.54032 
L 477.818182 355.597776 
L 481.876364 355.64616 
L 485.934545 355.68396 
L 489.992727 355.709664 
L 494.050909 355.726296 
L 498.109091 355.730832 
" clip-path="url(#pd36a439429)" style="fill: none; stroke: #000000; stroke-opacity: 0.5; stroke-linecap: square"/>
   </g>
   <g id="line2d_17">
    <path d="M 92.290909 311.199408 
L 96.349091 311.190336 
L 100.407273 311.16312 
L 104.465455 311.119272 
L 108.523636 311.05728 
L 112.581818 310.980168 
L 116.64 310.884912 
L 120.698182 310.773024 
L 124.756364 310.646016 
L 128.814545 310.503888 
L 132.872727 310.348152 
L 136.930909 310.178808 
L 140.989091 309.994344 
L 145.047273 309.797784 
L 149.105455 309.589128 
L 153.163636 309.368376 
L 157.221818 309.135528 
L 161.28 308.892096 
L 165.338182 308.63808 
L 169.396364 308.37348 
L 173.454545 308.098296 
L 177.512727 307.812528 
L 181.570909 307.517688 
L 185.629091 307.212264 
L 189.687273 306.897768 
L 193.745455 306.5742 
L 197.803636 306.243072 
L 201.861818 305.90136 
L 205.92 305.550576 
L 209.978182 305.19072 
L 214.036364 304.823304 
L 218.094545 304.446816 
L 222.152727 304.061256 
L 226.210909 303.668136 
L 230.269091 303.267456 
L 234.327273 302.857704 
L 238.385455 302.440392 
L 242.443636 302.014008 
L 246.501818 301.581576 
L 250.56 301.140072 
L 254.618182 300.691008 
L 258.676364 300.235896 
L 262.734545 299.771712 
L 266.792727 299.30148 
L 270.850909 298.823688 
L 274.909091 298.339848 
L 278.967273 297.84996 
L 283.025455 297.352512 
L 287.083636 296.850528 
L 291.141818 296.340984 
L 295.2 295.826904 
L 299.258182 295.306776 
L 303.316364 294.782112 
L 307.374545 294.252912 
L 311.432727 293.717664 
L 315.490909 293.179392 
L 319.549091 292.638096 
L 323.607273 292.092264 
L 327.665455 291.543408 
L 331.723636 290.99304 
L 335.781818 290.439648 
L 339.84 289.886256 
L 343.898182 289.32984 
L 347.956364 288.773424 
L 352.014545 288.217008 
L 356.072727 287.660592 
L 360.130909 287.105688 
L 364.189091 286.553808 
L 368.247273 286.00344 
L 372.305455 285.456096 
L 376.363636 284.911776 
L 380.421818 284.373504 
L 384.48 283.839768 
L 388.538182 283.31208 
L 392.596364 282.791952 
L 396.654545 282.279384 
L 400.712727 281.775888 
L 404.770909 281.282976 
L 408.829091 280.800648 
L 412.887273 280.328904 
L 416.945455 279.870768 
L 421.003636 279.42624 
L 425.061818 278.996832 
L 429.12 278.582544 
L 433.178182 278.1864 
L 437.236364 277.806888 
L 441.294545 277.447032 
L 445.352727 277.10532 
L 449.410909 276.786288 
L 453.469091 276.488424 
L 457.527273 276.21324 
L 461.585455 275.960736 
L 465.643636 275.733936 
L 469.701818 275.531328 
L 473.76 275.354424 
L 477.818182 275.203224 
L 481.876364 275.07924 
L 485.934545 274.982472 
L 489.992727 274.91292 
L 494.050909 274.870584 
L 498.109091 274.856976 
" clip-path="url(#pd36a439429)" style="fill: none; stroke: #000000; stroke-opacity: 0.5; stroke-linecap: square"/>
   </g>
   <g id="line2d_18">
    <path d="M 92.290909 260.506584 
L 96.349091 260.573112 
L 100.407273 260.762112 
L 104.465455 261.041832 
L 108.523636 261.383544 
L 112.581818 261.75852 
L 116.64 262.15164 
L 120.698182 262.549296 
L 124.756364 262.942416 
L 128.814545 263.327976 
L 132.872727 263.699928 
L 136.930909 264.055248 
L 140.989091 264.393936 
L 145.047273 264.712968 
L 149.105455 265.010832 
L 153.163636 265.287528 
L 157.221818 265.543056 
L 161.28 265.775904 
L 165.338182 265.986072 
L 169.396364 266.172048 
L 173.454545 266.336856 
L 177.512727 266.477472 
L 181.570909 266.595408 
L 185.629091 266.690664 
L 189.687273 266.76324 
L 193.745455 266.813136 
L 197.803636 266.840352 
L 201.861818 266.8464 
L 205.92 266.829768 
L 209.978182 266.791968 
L 214.036364 266.731488 
L 218.094545 266.651352 
L 222.152727 266.55156 
L 226.210909 266.4306 
L 230.269091 266.288472 
L 234.327273 266.1282 
L 238.385455 265.949784 
L 242.443636 265.751712 
L 246.501818 265.535496 
L 250.56 265.301136 
L 254.618182 265.048632 
L 258.676364 264.779496 
L 262.734545 264.493728 
L 266.792727 264.19284 
L 270.850909 263.87532 
L 274.909091 263.54268 
L 278.967273 263.19492 
L 283.025455 262.83204 
L 287.083636 262.455552 
L 291.141818 262.065456 
L 295.2 261.661752 
L 299.258182 261.245952 
L 303.316364 260.818056 
L 307.374545 260.376552 
L 311.432727 259.925976 
L 315.490909 259.463304 
L 319.549091 258.990048 
L 323.607273 258.50772 
L 327.665455 258.014808 
L 331.723636 257.514336 
L 335.781818 257.004792 
L 339.84 256.4892 
L 343.898182 255.964536 
L 347.956364 255.435336 
L 352.014545 254.898576 
L 356.072727 254.35728 
L 360.130909 253.81296 
L 364.189091 253.264104 
L 368.247273 252.710712 
L 372.305455 252.15732 
L 376.363636 251.602416 
L 380.421818 251.046 
L 384.48 250.491096 
L 388.538182 249.937704 
L 392.596364 249.385824 
L 396.654545 248.83848 
L 400.712727 248.29416 
L 404.770909 247.7574 
L 408.829091 247.226688 
L 412.887273 246.703536 
L 416.945455 246.189456 
L 421.003636 245.68596 
L 425.061818 245.193048 
L 429.12 244.715256 
L 433.178182 244.24956 
L 437.236364 243.800496 
L 441.294545 243.368064 
L 445.352727 242.953776 
L 449.410909 242.559144 
L 453.469091 242.184168 
L 457.527273 241.831872 
L 461.585455 241.502256 
L 465.643636 241.196832 
L 469.701818 240.918624 
L 473.76 240.667632 
L 477.818182 240.445368 
L 481.876364 240.256368 
L 485.934545 240.103656 
L 489.992727 239.988744 
L 494.050909 239.919192 
L 498.109091 239.895 
" clip-path="url(#pd36a439429)" style="fill: none; stroke: #000000; stroke-opacity: 0.5; stroke-linecap: square"/>
   </g>
   <g id="line2d_19">
    <path d="M 92.290909 255.417192 
L 96.349091 255.331008 
L 100.407273 255.086064 
L 104.465455 254.709576 
L 108.523636 254.23632 
L 112.581818 253.690488 
L 116.64 253.091736 
L 120.698182 252.450648 
L 124.756364 251.777808 
L 128.814545 251.080776 
L 132.872727 250.361064 
L 136.930909 249.626232 
L 140.989091 248.87628 
L 145.047273 248.117256 
L 149.105455 247.34916 
L 153.163636 246.575016 
L 157.221818 245.797848 
L 161.28 245.019168 
L 165.338182 244.242 
L 169.396364 243.467856 
L 173.454545 242.698248 
L 177.512727 241.937712 
L 181.570909 241.186248 
L 185.629091 240.448392 
L 189.687273 239.724144 
L 193.745455 239.016528 
L 197.803636 238.33008 
L 201.861818 237.6648 
L 205.92 237.023712 
L 209.978182 236.408328 
L 214.036364 235.821672 
L 218.094545 235.266768 
L 222.152727 234.743616 
L 226.210909 234.253728 
L 230.269091 233.800128 
L 234.327273 233.382816 
L 238.385455 233.001792 
L 242.443636 232.658568 
L 246.501818 232.354656 
L 250.56 232.088544 
L 254.618182 231.85872 
L 258.676364 231.665184 
L 262.734545 231.509448 
L 266.792727 231.385464 
L 270.850909 231.296256 
L 274.909091 231.2388 
L 278.967273 231.210072 
L 283.025455 231.20856 
L 287.083636 231.234264 
L 291.141818 231.28416 
L 295.2 231.355224 
L 299.258182 231.445944 
L 303.316364 231.55632 
L 307.374545 231.681816 
L 311.432727 231.822432 
L 315.490909 231.975144 
L 319.549091 232.139952 
L 323.607273 232.313832 
L 327.665455 232.495272 
L 331.723636 232.684272 
L 335.781818 232.87932 
L 339.84 233.077392 
L 343.898182 233.278488 
L 347.956364 233.481096 
L 352.014545 233.685216 
L 356.072727 233.887824 
L 360.130909 234.091944 
L 364.189091 234.29304 
L 368.247273 234.491112 
L 372.305455 234.68616 
L 376.363636 234.878184 
L 380.421818 235.065672 
L 384.48 235.248624 
L 388.538182 235.425528 
L 392.596364 235.597896 
L 396.654545 235.764216 
L 400.712727 235.922976 
L 404.770909 236.0772 
L 408.829091 236.223864 
L 412.887273 236.36448 
L 416.945455 236.497536 
L 421.003636 236.624544 
L 425.061818 236.745504 
L 429.12 236.858904 
L 433.178182 236.967768 
L 437.236364 237.069072 
L 441.294545 237.16584 
L 445.352727 237.258072 
L 449.410909 237.345768 
L 453.469091 237.428928 
L 457.527273 237.509064 
L 461.585455 237.586176 
L 465.643636 237.658752 
L 469.701818 237.729816 
L 473.76 237.797856 
L 477.818182 237.86136 
L 481.876364 237.918816 
L 485.934545 237.970224 
L 489.992727 238.009536 
L 494.050909 238.03524 
L 498.109091 238.044312 
" clip-path="url(#pd36a439429)" style="fill: none; stroke: #000000; stroke-opacity: 0.5; stroke-linecap: square"/>
   </g>
   <g id="line2d_20">
    <path d="M 92.290909 157.885632 
L 96.349091 158.281776 
L 100.407273 159.119424 
L 104.465455 160.08408 
L 108.523636 161.083512 
L 112.581818 162.084456 
L 116.64 163.076328 
L 120.698182 164.05308 
L 124.756364 165.010176 
L 128.814545 165.944592 
L 132.872727 166.856328 
L 136.930909 167.74236 
L 140.989091 168.602688 
L 145.047273 169.434288 
L 149.105455 170.235648 
L 153.163636 171.006768 
L 157.221818 171.746136 
L 161.28 172.450728 
L 165.338182 173.120544 
L 169.396364 173.75256 
L 173.454545 174.346776 
L 177.512727 174.900168 
L 181.570909 175.411224 
L 185.629091 175.878432 
L 189.687273 176.298768 
L 193.745455 176.67072 
L 197.803636 176.992776 
L 201.861818 177.263424 
L 205.92 177.47964 
L 209.978182 177.639912 
L 214.036364 177.742728 
L 218.094545 177.786576 
L 222.152727 177.769944 
L 226.210909 177.69132 
L 230.269091 177.549192 
L 234.327273 177.34356 
L 238.385455 177.074424 
L 242.443636 176.740272 
L 246.501818 176.341104 
L 250.56 175.879944 
L 254.618182 175.353768 
L 258.676364 174.767112 
L 262.734545 174.119976 
L 266.792727 173.41236 
L 270.850909 172.647288 
L 274.909091 171.827784 
L 278.967273 170.95536 
L 283.025455 170.030016 
L 287.083636 169.0578 
L 291.141818 168.0372 
L 295.2 166.972752 
L 299.258182 165.86748 
L 303.316364 164.721384 
L 307.374545 163.539 
L 311.432727 162.32184 
L 315.490909 161.071416 
L 319.549091 159.792264 
L 323.607273 158.487408 
L 327.665455 157.16592 
L 331.723636 155.853504 
L 335.781818 154.819296 
L 339.84 155.581344 
L 343.898182 156.940632 
L 347.956364 158.331672 
L 352.014545 159.718176 
L 356.072727 161.088048 
L 360.130909 162.439776 
L 364.189091 163.770336 
L 368.247273 165.08124 
L 372.305455 166.367952 
L 376.363636 167.630472 
L 380.421818 168.867288 
L 384.48 170.079912 
L 388.538182 171.263808 
L 392.596364 172.420488 
L 396.654545 173.54844 
L 400.712727 174.64464 
L 404.770909 175.7106 
L 408.829091 176.744808 
L 412.887273 177.74424 
L 416.945455 178.707384 
L 421.003636 179.635752 
L 425.061818 180.527832 
L 429.12 181.379088 
L 433.178182 182.191032 
L 437.236364 182.962152 
L 441.294545 183.690936 
L 445.352727 184.375872 
L 449.410909 185.015448 
L 453.469091 185.608152 
L 457.527273 186.155496 
L 461.585455 186.652944 
L 465.643636 187.100496 
L 469.701818 187.498152 
L 473.76 187.845912 
L 477.818182 188.13924 
L 481.876364 188.382672 
L 485.934545 188.57016 
L 489.992727 188.70624 
L 494.050909 188.787888 
L 498.109091 188.813592 
" clip-path="url(#pd36a439429)" style="fill: none; stroke: #000000; stroke-opacity: 0.5; stroke-linecap: square"/>
   </g>
   <g id="line2d_21">
    <path d="M 92.290909 155.11716 
L 96.349091 154.702872 
L 100.407273 153.807768 
L 104.465455 152.746344 
L 108.523636 151.613856 
L 112.581818 150.440544 
L 116.64 149.238504 
L 120.698182 148.013784 
L 124.756364 146.769408 
L 128.814545 145.506888 
L 132.872727 144.229248 
L 136.930909 142.936488 
L 140.989091 141.63012 
L 145.047273 140.311656 
L 149.105455 138.982608 
L 153.163636 137.644488 
L 157.221818 136.298808 
L 161.28 134.945568 
L 165.338182 133.589304 
L 169.396364 132.23304 
L 173.454545 130.8798 
L 177.512727 129.535632 
L 181.570909 128.205072 
L 185.629091 126.900216 
L 189.687273 125.63316 
L 193.745455 124.422048 
L 197.803636 123.286536 
L 201.861818 122.252328 
L 205.92 121.337568 
L 209.978182 120.55284 
L 214.036364 119.889072 
L 218.094545 119.331144 
L 222.152727 118.854864 
L 226.210909 118.440576 
L 230.269091 118.076184 
L 234.327273 117.752616 
L 238.385455 117.488016 
L 242.443636 117.58176 
L 246.501818 118.895688 
L 250.56 120.496896 
L 254.618182 122.138928 
L 258.676364 123.794568 
L 262.734545 125.453232 
L 266.792727 127.113408 
L 270.850909 128.77056 
L 274.909091 130.421664 
L 278.967273 132.06672 
L 283.025455 133.705728 
L 287.083636 135.334152 
L 291.141818 136.953504 
L 295.2 138.563784 
L 299.258182 140.161968 
L 303.316364 141.748056 
L 307.374545 143.320536 
L 311.432727 144.88092 
L 315.490909 146.426184 
L 319.549091 147.954816 
L 323.607273 149.463792 
L 327.665455 150.948576 
L 331.723636 152.381952 
L 335.781818 153.494784 
L 339.84 152.772048 
L 343.898182 151.415784 
L 347.956364 149.988456 
L 352.014545 148.5324 
L 356.072727 147.056688 
L 360.130909 145.570392 
L 364.189091 144.093168 
L 368.247273 142.89264 
L 372.305455 143.73936 
L 376.363636 145.04724 
L 380.421818 146.359656 
L 384.48 147.653928 
L 388.538182 148.924008 
L 392.596364 150.168384 
L 396.654545 151.384032 
L 400.712727 152.56944 
L 404.770909 153.724608 
L 408.829091 154.846512 
L 412.887273 155.935152 
L 416.945455 156.989016 
L 421.003636 158.00508 
L 425.061818 158.983344 
L 429.12 159.922296 
L 433.178182 160.818912 
L 437.236364 161.673192 
L 441.294545 162.483624 
L 445.352727 163.247184 
L 449.410909 163.96236 
L 453.469091 164.62764 
L 457.527273 165.241512 
L 461.585455 165.803976 
L 465.643636 166.310496 
L 469.701818 166.761072 
L 473.76 167.155704 
L 477.818182 167.491368 
L 481.876364 167.768064 
L 485.934545 167.98428 
L 489.992727 168.138504 
L 494.050909 168.230736 
L 498.109091 168.262488 
" clip-path="url(#pd36a439429)" style="fill: none; stroke: #000000; stroke-opacity: 0.5; stroke-linecap: square"/>
   </g>
   <g id="line2d_22">
    <path d="M 92.290909 120.395592 
L 96.349091 120.391056 
L 100.407273 120.377448 
L 104.465455 120.354768 
L 108.523636 120.324528 
L 112.581818 120.283704 
L 116.64 120.233808 
L 120.698182 120.173328 
L 124.756364 120.105288 
L 128.814545 120.026664 
L 132.872727 119.938968 
L 136.930909 119.8422 
L 140.989091 119.733336 
L 145.047273 119.6154 
L 149.105455 119.485368 
L 153.163636 119.34324 
L 157.221818 119.189016 
L 161.28 119.019672 
L 165.338182 118.835208 
L 169.396364 118.6326 
L 173.454545 118.408824 
L 177.512727 118.160856 
L 181.570909 117.881136 
L 185.629091 117.562104 
L 189.687273 117.193176 
L 193.745455 116.759232 
L 197.803636 116.242128 
L 201.861818 115.62372 
L 205.92 114.894936 
L 209.978182 114.061824 
L 214.036364 113.169744 
L 218.094545 112.323024 
L 222.152727 111.76056 
L 226.210909 111.869424 
L 230.269091 112.740336 
L 234.327273 114.033096 
L 238.385455 115.478568 
L 242.443636 116.670024 
L 246.501818 116.698752 
L 250.56 116.473464 
L 254.618182 116.22852 
L 258.676364 115.9866 
L 262.734545 115.75224 
L 266.792727 115.528464 
L 270.850909 115.32132 
L 274.909091 115.138368 
L 278.967273 114.991704 
L 283.025455 114.910056 
L 287.083636 114.947856 
L 291.141818 115.210944 
L 295.2 115.839936 
L 299.258182 116.872632 
L 303.316364 118.183536 
L 307.374545 119.63808 
L 311.432727 121.162176 
L 315.490909 122.718024 
L 319.549091 124.284456 
L 323.607273 125.853912 
L 327.665455 127.41732 
L 331.723636 128.973168 
L 335.781818 130.515408 
L 339.84 132.045552 
L 343.898182 133.557552 
L 347.956364 135.054432 
L 352.014545 136.530144 
L 356.072727 137.984688 
L 360.130909 139.413528 
L 364.189091 140.79852 
L 368.247273 141.87204 
L 372.305455 140.862024 
L 376.363636 139.360608 
L 380.421818 137.81988 
L 384.48 136.265544 
L 388.538182 134.703648 
L 392.596364 133.137216 
L 396.654545 131.56776 
L 400.712727 129.996792 
L 404.770909 128.428848 
L 408.829091 126.863928 
L 412.887273 125.305056 
L 416.945455 123.753744 
L 421.003636 122.214528 
L 425.061818 120.68892 
L 429.12 119.179944 
L 433.178182 117.693648 
L 437.236364 116.234568 
L 441.294545 114.808752 
L 445.352727 113.42376 
L 449.410909 112.091688 
L 453.469091 110.827656 
L 457.527273 109.65888 
L 461.585455 108.63072 
L 465.643636 107.811216 
L 469.701818 107.256312 
L 473.76 106.925184 
L 477.818182 106.731648 
L 481.876364 106.6122 
L 485.934545 106.538112 
L 489.992727 106.489728 
L 494.050909 106.464024 
L 498.109091 106.454952 
" clip-path="url(#pd36a439429)" style="fill: none; stroke: #000000; stroke-opacity: 0.5; stroke-linecap: square"/>
   </g>
   <g id="line2d_23">
    <path d="M 92.290909 99.646416 
L 96.349091 99.640368 
L 100.407273 99.622224 
L 104.465455 99.590472 
L 108.523636 99.545112 
L 112.581818 99.489168 
L 116.64 99.419616 
L 120.698182 99.337968 
L 124.756364 99.244224 
L 128.814545 99.138384 
L 132.872727 99.020448 
L 136.930909 98.891928 
L 140.989091 98.752824 
L 145.047273 98.601624 
L 149.105455 98.442864 
L 153.163636 98.275032 
L 157.221818 98.101152 
L 161.28 97.921224 
L 165.338182 97.742808 
L 169.396364 97.565904 
L 173.454545 97.402608 
L 177.512727 97.266528 
L 181.570909 97.183368 
L 185.629091 97.195464 
L 189.687273 97.384464 
L 193.745455 97.85772 
L 197.803636 98.686296 
L 201.861818 99.82332 
L 205.92 101.15388 
L 209.978182 102.570624 
L 214.036364 103.987368 
L 218.094545 105.283152 
L 222.152727 106.231176 
L 226.210909 106.450416 
L 230.269091 105.865272 
L 234.327273 104.82048 
L 238.385455 103.57308 
L 242.443636 102.24252 
L 246.501818 100.905912 
L 250.56 99.673632 
L 254.618182 98.83296 
L 258.676364 98.978112 
L 262.734545 100.078848 
L 266.792727 101.559096 
L 270.850909 103.154256 
L 274.909091 104.776632 
L 278.967273 106.382376 
L 283.025455 107.930664 
L 287.083636 109.359504 
L 291.141818 110.55852 
L 295.2 111.385584 
L 299.258182 111.801384 
L 303.316364 111.929904 
L 307.374545 111.902688 
L 311.432727 111.795336 
L 315.490909 111.645648 
L 319.549091 111.471768 
L 323.607273 111.282768 
L 327.665455 111.086208 
L 331.723636 110.885112 
L 335.781818 110.680992 
L 339.84 110.476872 
L 343.898182 110.274264 
L 347.956364 110.071656 
L 352.014545 109.872072 
L 356.072727 109.674 
L 360.130909 109.480464 
L 364.189091 109.289952 
L 368.247273 109.103976 
L 372.305455 108.921024 
L 376.363636 108.74412 
L 380.421818 108.57024 
L 384.48 108.402408 
L 388.538182 108.2376 
L 392.596364 108.07884 
L 396.654545 107.926128 
L 400.712727 107.777952 
L 404.770909 107.634312 
L 408.829091 107.495208 
L 412.887273 107.362152 
L 416.945455 107.233632 
L 421.003636 107.109648 
L 425.061818 106.9902 
L 429.12 106.875288 
L 433.178182 106.761888 
L 437.236364 106.651512 
L 441.294545 106.541136 
L 445.352727 106.427736 
L 449.410909 106.306776 
L 453.469091 106.169184 
L 457.527273 105.995304 
L 461.585455 105.748848 
L 465.643636 105.373872 
L 469.701818 104.825016 
L 473.76 104.156712 
L 477.818182 103.46724 
L 481.876364 102.838248 
L 485.934545 102.313584 
L 489.992727 101.920464 
L 494.050909 101.677032 
L 498.109091 101.595384 
" clip-path="url(#pd36a439429)" style="fill: none; stroke: #000000; stroke-opacity: 0.5; stroke-linecap: square"/>
   </g>
   <g id="patch_3">
    <path d="M 72 384.48 
L 72 51.84 
" style="fill: none; stroke: #000000; stroke-width: 0.8; stroke-linejoin: miter; stroke-linecap: square"/>
   </g>
   <g id="patch_4">
    <path d="M 518.4 384.48 
L 518.4 51.84 
" style="fill: none; stroke: #000000; stroke-width: 0.8; stroke-linejoin: miter; stroke-linecap: square"/>
   </g>
   <g id="patch_5">
    <path d="M 72 384.48 
L 518.4 384.48 
" style="fill: none; stroke: #000000; stroke-width: 0.8; stroke-linejoin: miter; stroke-linecap: square"/>
   </g>
   <g id="patch_6">
    <path d="M 72 51.84 
L 518.4 51.84 
" style="fill: none; stroke: #000000; stroke-width: 0.8; stroke-linejoin: miter; stroke-linecap: square"/>
   </g>
  </g>
 </g>
 <defs>
  <clipPath id="pd36a439429">
   <rect x="72" y="51.84" width="446.4" height="332.64"/>
  </clipPath>
 </defs>
</svg>
