<?xml version="1.0" encoding="utf-8" standalone="no"?>
<!DOCTYPE svg PUBLIC "-//W3C//DTD SVG 1.1//EN"
  "http://www.w3.org/Graphics/SVG/1.1/DTD/svg11.dtd">
<svg xmlns:xlink="http://www.w3.org/1999/xlink" width="576pt" height="432pt" viewBox="0 0 576 432" xmlns="http://www.w3.org/2000/svg" version="1.1">
 <metadata>
  <rdf:RDF xmlns:dc="http://purl.org/dc/elements/1.1/" xmlns:cc="http://creativecommons.org/ns#" xmlns:rdf="http://www.w3.org/1999/02/22-rdf-syntax-ns#">
   <cc:Work>
    <dc:type rdf:resource="http://purl.org/dc/dcmitype/StillImage"/>
    <dc:date>2023-05-04T15:54:24.216248</dc:date>
    <dc:format>image/svg+xml</dc:format>
    <dc:creator>
     <cc:Agent>
      <dc:title>Matplotlib v3.7.1, https://matplotlib.org/</dc:title>
     </cc:Agent>
    </dc:creator>
   </cc:Work>
  </rdf:RDF>
 </metadata>
 <defs>
  <style type="text/css">*{stroke-linejoin: round; stroke-linecap: butt}</style>
 </defs>
 <g id="figure_1">
  <g id="patch_1">
   <path d="M 0 432 
L 576 432 
L 576 0 
L 0 0 
z
" style="fill: #ffffff"/>
  </g>
  <g id="axes_1">
   <g id="patch_2">
    <path d="M 72 384.48 
L 518.4 384.48 
L 518.4 51.84 
L 72 51.84 
z
" style="fill: #ffffff"/>
   </g>
   <g id="matplotlib.axis_1">
    <g id="xtick_1">
     <g id="line2d_1">
      <defs>
       <path id="m7b351bb812" d="M 0 0 
L 0 3.5 
" style="stroke: #000000; stroke-width: 0.8"/>
      </defs>
      <g>
       <use xlink:href="#m7b351bb812" x="92.290909" y="384.48" style="stroke: #000000; stroke-width: 0.8"/>
      </g>
     </g>
     <g id="text_1">
      <!-- 0.0 -->
      <g transform="translate(84.339347 399.078438) scale(0.1 -0.1)">
       <defs>
        <path id="DejaVuSans-30" d="M 2034 4250 
Q 1547 4250 1301 3770 
Q 1056 3291 1056 2328 
Q 1056 1369 1301 889 
Q 1547 409 2034 409 
Q 2525 409 2770 889 
Q 3016 1369 3016 2328 
Q 3016 3291 2770 3770 
Q 2525 4250 2034 4250 
z
M 2034 4750 
Q 2819 4750 3233 4129 
Q 3647 3509 3647 2328 
Q 3647 1150 3233 529 
Q 2819 -91 2034 -91 
Q 1250 -91 836 529 
Q 422 1150 422 2328 
Q 422 3509 836 4129 
Q 1250 4750 2034 4750 
z
" transform="scale(0.015625)"/>
        <path id="DejaVuSans-2e" d="M 684 794 
L 1344 794 
L 1344 0 
L 684 0 
L 684 794 
z
" transform="scale(0.015625)"/>
       </defs>
       <use xlink:href="#DejaVuSans-30"/>
       <use xlink:href="#DejaVuSans-2e" x="63.623047"/>
       <use xlink:href="#DejaVuSans-30" x="95.410156"/>
      </g>
     </g>
    </g>
    <g id="xtick_2">
     <g id="line2d_2">
      <g>
       <use xlink:href="#m7b351bb812" x="173.454545" y="384.48" style="stroke: #000000; stroke-width: 0.8"/>
      </g>
     </g>
     <g id="text_2">
      <!-- 0.2 -->
      <g transform="translate(165.502983 399.078438) scale(0.1 -0.1)">
       <defs>
        <path id="DejaVuSans-32" d="M 1228 531 
L 3431 531 
L 3431 0 
L 469 0 
L 469 531 
Q 828 903 1448 1529 
Q 2069 2156 2228 2338 
Q 2531 2678 2651 2914 
Q 2772 3150 2772 3378 
Q 2772 3750 2511 3984 
Q 2250 4219 1831 4219 
Q 1534 4219 1204 4116 
Q 875 4013 500 3803 
L 500 4441 
Q 881 4594 1212 4672 
Q 1544 4750 1819 4750 
Q 2544 4750 2975 4387 
Q 3406 4025 3406 3419 
Q 3406 3131 3298 2873 
Q 3191 2616 2906 2266 
Q 2828 2175 2409 1742 
Q 1991 1309 1228 531 
z
" transform="scale(0.015625)"/>
       </defs>
       <use xlink:href="#DejaVuSans-30"/>
       <use xlink:href="#DejaVuSans-2e" x="63.623047"/>
       <use xlink:href="#DejaVuSans-32" x="95.410156"/>
      </g>
     </g>
    </g>
    <g id="xtick_3">
     <g id="line2d_3">
      <g>
       <use xlink:href="#m7b351bb812" x="254.618182" y="384.48" style="stroke: #000000; stroke-width: 0.8"/>
      </g>
     </g>
     <g id="text_3">
      <!-- 0.4 -->
      <g transform="translate(246.666619 399.078438) scale(0.1 -0.1)">
       <defs>
        <path id="DejaVuSans-34" d="M 2419 4116 
L 825 1625 
L 2419 1625 
L 2419 4116 
z
M 2253 4666 
L 3047 4666 
L 3047 1625 
L 3713 1625 
L 3713 1100 
L 3047 1100 
L 3047 0 
L 2419 0 
L 2419 1100 
L 313 1100 
L 313 1709 
L 2253 4666 
z
" transform="scale(0.015625)"/>
       </defs>
       <use xlink:href="#DejaVuSans-30"/>
       <use xlink:href="#DejaVuSans-2e" x="63.623047"/>
       <use xlink:href="#DejaVuSans-34" x="95.410156"/>
      </g>
     </g>
    </g>
    <g id="xtick_4">
     <g id="line2d_4">
      <g>
       <use xlink:href="#m7b351bb812" x="335.781818" y="384.48" style="stroke: #000000; stroke-width: 0.8"/>
      </g>
     </g>
     <g id="text_4">
      <!-- 0.6 -->
      <g transform="translate(327.830256 399.078438) scale(0.1 -0.1)">
       <defs>
        <path id="DejaVuSans-36" d="M 2113 2584 
Q 1688 2584 1439 2293 
Q 1191 2003 1191 1497 
Q 1191 994 1439 701 
Q 1688 409 2113 409 
Q 2538 409 2786 701 
Q 3034 994 3034 1497 
Q 3034 2003 2786 2293 
Q 2538 2584 2113 2584 
z
M 3366 4563 
L 3366 3988 
Q 3128 4100 2886 4159 
Q 2644 4219 2406 4219 
Q 1781 4219 1451 3797 
Q 1122 3375 1075 2522 
Q 1259 2794 1537 2939 
Q 1816 3084 2150 3084 
Q 2853 3084 3261 2657 
Q 3669 2231 3669 1497 
Q 3669 778 3244 343 
Q 2819 -91 2113 -91 
Q 1303 -91 875 529 
Q 447 1150 447 2328 
Q 447 3434 972 4092 
Q 1497 4750 2381 4750 
Q 2619 4750 2861 4703 
Q 3103 4656 3366 4563 
z
" transform="scale(0.015625)"/>
       </defs>
       <use xlink:href="#DejaVuSans-30"/>
       <use xlink:href="#DejaVuSans-2e" x="63.623047"/>
       <use xlink:href="#DejaVuSans-36" x="95.410156"/>
      </g>
     </g>
    </g>
    <g id="xtick_5">
     <g id="line2d_5">
      <g>
       <use xlink:href="#m7b351bb812" x="416.945455" y="384.48" style="stroke: #000000; stroke-width: 0.8"/>
      </g>
     </g>
     <g id="text_5">
      <!-- 0.8 -->
      <g transform="translate(408.993892 399.078438) scale(0.1 -0.1)">
       <defs>
        <path id="DejaVuSans-38" d="M 2034 2216 
Q 1584 2216 1326 1975 
Q 1069 1734 1069 1313 
Q 1069 891 1326 650 
Q 1584 409 2034 409 
Q 2484 409 2743 651 
Q 3003 894 3003 1313 
Q 3003 1734 2745 1975 
Q 2488 2216 2034 2216 
z
M 1403 2484 
Q 997 2584 770 2862 
Q 544 3141 544 3541 
Q 544 4100 942 4425 
Q 1341 4750 2034 4750 
Q 2731 4750 3128 4425 
Q 3525 4100 3525 3541 
Q 3525 3141 3298 2862 
Q 3072 2584 2669 2484 
Q 3125 2378 3379 2068 
Q 3634 1759 3634 1313 
Q 3634 634 3220 271 
Q 2806 -91 2034 -91 
Q 1263 -91 848 271 
Q 434 634 434 1313 
Q 434 1759 690 2068 
Q 947 2378 1403 2484 
z
M 1172 3481 
Q 1172 3119 1398 2916 
Q 1625 2713 2034 2713 
Q 2441 2713 2670 2916 
Q 2900 3119 2900 3481 
Q 2900 3844 2670 4047 
Q 2441 4250 2034 4250 
Q 1625 4250 1398 4047 
Q 1172 3844 1172 3481 
z
" transform="scale(0.015625)"/>
       </defs>
       <use xlink:href="#DejaVuSans-30"/>
       <use xlink:href="#DejaVuSans-2e" x="63.623047"/>
       <use xlink:href="#DejaVuSans-38" x="95.410156"/>
      </g>
     </g>
    </g>
    <g id="xtick_6">
     <g id="line2d_6">
      <g>
       <use xlink:href="#m7b351bb812" x="498.109091" y="384.48" style="stroke: #000000; stroke-width: 0.8"/>
      </g>
     </g>
     <g id="text_6">
      <!-- 1.0 -->
      <g transform="translate(490.157528 399.078438) scale(0.1 -0.1)">
       <defs>
        <path id="DejaVuSans-31" d="M 794 531 
L 1825 531 
L 1825 4091 
L 703 3866 
L 703 4441 
L 1819 4666 
L 2450 4666 
L 2450 531 
L 3481 531 
L 3481 0 
L 794 0 
L 794 531 
z
" transform="scale(0.015625)"/>
       </defs>
       <use xlink:href="#DejaVuSans-31"/>
       <use xlink:href="#DejaVuSans-2e" x="63.623047"/>
       <use xlink:href="#DejaVuSans-30" x="95.410156"/>
      </g>
     </g>
    </g>
   </g>
   <g id="matplotlib.axis_2">
    <g id="ytick_1">
     <g id="line2d_7">
      <defs>
       <path id="md0213b9596" d="M 0 0 
L -3.5 0 
" style="stroke: #000000; stroke-width: 0.8"/>
      </defs>
      <g>
       <use xlink:href="#md0213b9596" x="72" y="369.36" style="stroke: #000000; stroke-width: 0.8"/>
      </g>
     </g>
     <g id="text_7">
      <!-- −5.0 -->
      <g transform="translate(40.717187 373.159219) scale(0.1 -0.1)">
       <defs>
        <path id="DejaVuSans-2212" d="M 678 2272 
L 4684 2272 
L 4684 1741 
L 678 1741 
L 678 2272 
z
" transform="scale(0.015625)"/>
        <path id="DejaVuSans-35" d="M 691 4666 
L 3169 4666 
L 3169 4134 
L 1269 4134 
L 1269 2991 
Q 1406 3038 1543 3061 
Q 1681 3084 1819 3084 
Q 2600 3084 3056 2656 
Q 3513 2228 3513 1497 
Q 3513 744 3044 326 
Q 2575 -91 1722 -91 
Q 1428 -91 1123 -41 
Q 819 9 494 109 
L 494 744 
Q 775 591 1075 516 
Q 1375 441 1709 441 
Q 2250 441 2565 725 
Q 2881 1009 2881 1497 
Q 2881 1984 2565 2268 
Q 2250 2553 1709 2553 
Q 1456 2553 1204 2497 
Q 953 2441 691 2322 
L 691 4666 
z
" transform="scale(0.015625)"/>
       </defs>
       <use xlink:href="#DejaVuSans-2212"/>
       <use xlink:href="#DejaVuSans-35" x="83.789062"/>
       <use xlink:href="#DejaVuSans-2e" x="147.412109"/>
       <use xlink:href="#DejaVuSans-30" x="179.199219"/>
      </g>
     </g>
    </g>
    <g id="ytick_2">
     <g id="line2d_8">
      <g>
       <use xlink:href="#md0213b9596" x="72" y="331.56" style="stroke: #000000; stroke-width: 0.8"/>
      </g>
     </g>
     <g id="text_8">
      <!-- −2.5 -->
      <g transform="translate(40.717187 335.359219) scale(0.1 -0.1)">
       <use xlink:href="#DejaVuSans-2212"/>
       <use xlink:href="#DejaVuSans-32" x="83.789062"/>
       <use xlink:href="#DejaVuSans-2e" x="147.412109"/>
       <use xlink:href="#DejaVuSans-35" x="179.199219"/>
      </g>
     </g>
    </g>
    <g id="ytick_3">
     <g id="line2d_9">
      <g>
       <use xlink:href="#md0213b9596" x="72" y="293.76" style="stroke: #000000; stroke-width: 0.8"/>
      </g>
     </g>
     <g id="text_9">
      <!-- 0.0 -->
      <g transform="translate(49.096875 297.559219) scale(0.1 -0.1)">
       <use xlink:href="#DejaVuSans-30"/>
       <use xlink:href="#DejaVuSans-2e" x="63.623047"/>
       <use xlink:href="#DejaVuSans-30" x="95.410156"/>
      </g>
     </g>
    </g>
    <g id="ytick_4">
     <g id="line2d_10">
      <g>
       <use xlink:href="#md0213b9596" x="72" y="255.96" style="stroke: #000000; stroke-width: 0.8"/>
      </g>
     </g>
     <g id="text_10">
      <!-- 2.5 -->
      <g transform="translate(49.096875 259.759219) scale(0.1 -0.1)">
       <use xlink:href="#DejaVuSans-32"/>
       <use xlink:href="#DejaVuSans-2e" x="63.623047"/>
       <use xlink:href="#DejaVuSans-35" x="95.410156"/>
      </g>
     </g>
    </g>
    <g id="ytick_5">
     <g id="line2d_11">
      <g>
       <use xlink:href="#md0213b9596" x="72" y="218.16" style="stroke: #000000; stroke-width: 0.8"/>
      </g>
     </g>
     <g id="text_11">
      <!-- 5.0 -->
      <g transform="translate(49.096875 221.959219) scale(0.1 -0.1)">
       <use xlink:href="#DejaVuSans-35"/>
       <use xlink:href="#DejaVuSans-2e" x="63.623047"/>
       <use xlink:href="#DejaVuSans-30" x="95.410156"/>
      </g>
     </g>
    </g>
    <g id="ytick_6">
     <g id="line2d_12">
      <g>
       <use xlink:href="#md0213b9596" x="72" y="180.36" style="stroke: #000000; stroke-width: 0.8"/>
      </g>
     </g>
     <g id="text_12">
      <!-- 7.5 -->
      <g transform="translate(49.096875 184.159219) scale(0.1 -0.1)">
       <defs>
        <path id="DejaVuSans-37" d="M 525 4666 
L 3525 4666 
L 3525 4397 
L 1831 0 
L 1172 0 
L 2766 4134 
L 525 4134 
L 525 4666 
z
" transform="scale(0.015625)"/>
       </defs>
       <use xlink:href="#DejaVuSans-37"/>
       <use xlink:href="#DejaVuSans-2e" x="63.623047"/>
       <use xlink:href="#DejaVuSans-35" x="95.410156"/>
      </g>
     </g>
    </g>
    <g id="ytick_7">
     <g id="line2d_13">
      <g>
       <use xlink:href="#md0213b9596" x="72" y="142.56" style="stroke: #000000; stroke-width: 0.8"/>
      </g>
     </g>
     <g id="text_13">
      <!-- 10.0 -->
      <g transform="translate(42.734375 146.359219) scale(0.1 -0.1)">
       <use xlink:href="#DejaVuSans-31"/>
       <use xlink:href="#DejaVuSans-30" x="63.623047"/>
       <use xlink:href="#DejaVuSans-2e" x="127.246094"/>
       <use xlink:href="#DejaVuSans-30" x="159.033203"/>
      </g>
     </g>
    </g>
    <g id="ytick_8">
     <g id="line2d_14">
      <g>
       <use xlink:href="#md0213b9596" x="72" y="104.76" style="stroke: #000000; stroke-width: 0.8"/>
      </g>
     </g>
     <g id="text_14">
      <!-- 12.5 -->
      <g transform="translate(42.734375 108.559219) scale(0.1 -0.1)">
       <use xlink:href="#DejaVuSans-31"/>
       <use xlink:href="#DejaVuSans-32" x="63.623047"/>
       <use xlink:href="#DejaVuSans-2e" x="127.246094"/>
       <use xlink:href="#DejaVuSans-35" x="159.033203"/>
      </g>
     </g>
    </g>
    <g id="ytick_9">
     <g id="line2d_15">
      <g>
       <use xlink:href="#md0213b9596" x="72" y="66.96" style="stroke: #000000; stroke-width: 0.8"/>
      </g>
     </g>
     <g id="text_15">
      <!-- 15.0 -->
      <g transform="translate(42.734375 70.759219) scale(0.1 -0.1)">
       <use xlink:href="#DejaVuSans-31"/>
       <use xlink:href="#DejaVuSans-35" x="63.623047"/>
       <use xlink:href="#DejaVuSans-2e" x="127.246094"/>
       <use xlink:href="#DejaVuSans-30" x="159.033203"/>
      </g>
     </g>
    </g>
   </g>
   <g id="line2d_16">
    <path d="M 92.290909 318.57192 
L 96.349091 319.008888 
L 100.407273 319.748256 
L 104.465455 320.536008 
L 108.523636 321.33888 
L 112.581818 322.1478 
L 116.64 322.961256 
L 120.698182 323.776224 
L 124.756364 324.591192 
L 128.814545 325.407672 
L 132.872727 326.22264 
L 136.930909 327.037608 
L 140.989091 327.852576 
L 145.047273 328.66452 
L 149.105455 329.474952 
L 153.163636 330.283872 
L 157.221818 331.09128 
L 161.28 331.894152 
L 165.338182 332.695512 
L 169.396364 333.492336 
L 173.454545 334.286136 
L 177.512727 335.0754 
L 181.570909 335.860128 
L 185.629091 336.64032 
L 189.687273 337.417488 
L 193.745455 338.187096 
L 197.803636 338.95368 
L 201.861818 339.712704 
L 205.92 340.467192 
L 209.978182 341.21412 
L 214.036364 341.956512 
L 218.094545 342.691344 
L 222.152727 343.420128 
L 226.210909 344.141352 
L 230.269091 344.855016 
L 234.327273 345.56112 
L 238.385455 346.261176 
L 242.443636 346.95216 
L 246.501818 347.635584 
L 250.56 348.311448 
L 254.618182 348.97824 
L 258.676364 349.63596 
L 262.734545 350.28612 
L 266.792727 350.927208 
L 270.850909 351.559224 
L 274.909091 352.182168 
L 278.967273 352.79604 
L 283.025455 353.40084 
L 287.083636 353.996568 
L 291.141818 354.581712 
L 295.2 355.157784 
L 299.258182 355.723272 
L 303.316364 356.279688 
L 307.374545 356.82552 
L 311.432727 357.36228 
L 315.490909 357.886944 
L 319.549091 358.402536 
L 323.607273 358.907544 
L 327.665455 359.401968 
L 331.723636 359.885808 
L 335.781818 360.359064 
L 339.84 360.821736 
L 343.898182 361.272312 
L 347.956364 361.713816 
L 352.014545 362.143224 
L 356.072727 362.562048 
L 360.130909 362.968776 
L 364.189091 363.36492 
L 368.247273 363.75048 
L 372.305455 364.123944 
L 376.363636 364.485312 
L 380.421818 364.837608 
L 384.48 365.176296 
L 388.538182 365.5044 
L 392.596364 365.820408 
L 396.654545 366.125832 
L 400.712727 366.41916 
L 404.770909 366.700392 
L 408.829091 366.969528 
L 412.887273 367.22808 
L 416.945455 367.474536 
L 421.003636 367.708896 
L 425.061818 367.93116 
L 429.12 368.14284 
L 433.178182 368.340912 
L 437.236364 368.5284 
L 441.294545 368.70228 
L 445.352727 368.865576 
L 449.410909 369.016776 
L 453.469091 369.15588 
L 457.527273 369.282888 
L 461.585455 369.3978 
L 465.643636 369.500616 
L 469.701818 369.591336 
L 473.76 369.66996 
L 477.818182 369.736488 
L 481.876364 369.79092 
L 485.934545 369.833256 
L 489.992727 369.863496 
L 494.050909 369.88164 
L 498.109091 369.887688 
" clip-path="url(#pe5b4a541c5)" style="fill: none; stroke: #000000; stroke-opacity: 0.5; stroke-linecap: square"/>
   </g>
   <g id="line2d_17">
    <path d="M 92.290909 317.493864 
L 96.349091 317.05992 
L 100.407273 316.325088 
L 104.465455 315.546408 
L 108.523636 314.757144 
L 112.581818 313.963344 
L 116.64 313.171056 
L 120.698182 312.378768 
L 124.756364 311.589504 
L 128.814545 310.801752 
L 132.872727 310.018536 
L 136.930909 309.236832 
L 140.989091 308.458152 
L 145.047273 307.684008 
L 149.105455 306.912888 
L 153.163636 306.14328 
L 157.221818 305.378208 
L 161.28 304.61616 
L 165.338182 303.858648 
L 169.396364 303.102648 
L 173.454545 302.349672 
L 177.512727 301.59972 
L 181.570909 300.85128 
L 185.629091 300.105864 
L 189.687273 299.363472 
L 193.745455 298.622592 
L 197.803636 297.883224 
L 201.861818 297.145368 
L 205.92 296.410536 
L 209.978182 295.675704 
L 214.036364 294.940872 
L 218.094545 294.209064 
L 222.152727 293.475744 
L 226.210909 292.743936 
L 230.269091 292.012128 
L 234.327273 291.278808 
L 238.385455 290.547 
L 242.443636 289.81368 
L 246.501818 289.078848 
L 250.56 288.344016 
L 254.618182 287.607672 
L 258.676364 286.869816 
L 262.734545 286.130448 
L 266.792727 285.389568 
L 270.850909 284.647176 
L 274.909091 283.90176 
L 278.967273 283.154832 
L 283.025455 282.40488 
L 287.083636 281.653416 
L 291.141818 280.898928 
L 295.2 280.142928 
L 299.258182 279.382392 
L 303.316364 278.620344 
L 307.374545 277.855272 
L 311.432727 277.088688 
L 315.490909 276.317568 
L 319.549091 275.544936 
L 323.607273 274.76928 
L 327.665455 273.9906 
L 331.723636 273.208896 
L 335.781818 272.42568 
L 339.84 271.63944 
L 343.898182 270.851688 
L 347.956364 270.062424 
L 352.014545 269.270136 
L 356.072727 268.476336 
L 360.130909 267.681024 
L 364.189091 266.8842 
L 368.247273 266.085864 
L 372.305455 265.287528 
L 376.363636 264.489192 
L 380.421818 263.690856 
L 384.48 262.894032 
L 388.538182 262.097208 
L 392.596364 261.301896 
L 396.654545 260.509608 
L 400.712727 259.720344 
L 404.770909 258.934104 
L 408.829091 258.1524 
L 412.887273 257.376744 
L 416.945455 256.608648 
L 421.003636 255.8466 
L 425.061818 255.095136 
L 429.12 254.354256 
L 433.178182 253.625472 
L 437.236364 252.911808 
L 441.294545 252.213264 
L 445.352727 251.535888 
L 449.410909 250.87968 
L 453.469091 250.249176 
L 457.527273 249.648912 
L 461.585455 249.0804 
L 465.643636 248.5512 
L 469.701818 248.064336 
L 473.76 247.625856 
L 477.818182 247.241808 
L 481.876364 246.91824 
L 485.934545 246.658176 
L 489.992727 246.470688 
L 494.050909 246.355776 
L 498.109091 246.316464 
" clip-path="url(#pe5b4a541c5)" style="fill: none; stroke: #000000; stroke-opacity: 0.5; stroke-linecap: square"/>
   </g>
   <g id="line2d_18">
    <path d="M 92.290909 260.372016 
L 96.349091 260.47332 
L 100.407273 260.703144 
L 104.465455 260.975304 
L 108.523636 261.250488 
L 112.581818 261.5166 
L 116.64 261.769104 
L 120.698182 262.003464 
L 124.756364 262.218168 
L 128.814545 262.414728 
L 132.872727 262.59012 
L 136.930909 262.745856 
L 140.989091 262.881936 
L 145.047273 262.99836 
L 149.105455 263.095128 
L 153.163636 263.170728 
L 157.221818 263.228184 
L 161.28 263.264472 
L 165.338182 263.282616 
L 169.396364 263.281104 
L 173.454545 263.259936 
L 177.512727 263.222136 
L 181.570909 263.163168 
L 185.629091 263.087568 
L 189.687273 262.993824 
L 193.745455 262.881936 
L 197.803636 262.751904 
L 201.861818 262.603728 
L 205.92 262.43892 
L 209.978182 262.25748 
L 214.036364 262.059408 
L 218.094545 261.843192 
L 222.152727 261.611856 
L 226.210909 261.362376 
L 230.269091 261.097776 
L 234.327273 260.818056 
L 238.385455 260.521704 
L 242.443636 260.210232 
L 246.501818 259.88364 
L 250.56 259.540416 
L 254.618182 259.183584 
L 258.676364 258.811632 
L 262.734545 258.426072 
L 266.792727 258.025392 
L 270.850909 257.611104 
L 274.909091 257.181696 
L 278.967273 256.740192 
L 283.025455 256.283568 
L 287.083636 255.814848 
L 291.141818 255.33252 
L 295.2 254.838096 
L 299.258182 254.330064 
L 303.316364 253.811448 
L 307.374545 253.279224 
L 311.432727 252.736416 
L 315.490909 252.18 
L 319.549091 251.614512 
L 323.607273 251.036928 
L 327.665455 250.450272 
L 331.723636 249.85152 
L 335.781818 249.243696 
L 339.84 248.6268 
L 343.898182 247.99932 
L 347.956364 247.36428 
L 352.014545 246.720168 
L 356.072727 246.068496 
L 360.130909 245.410776 
L 364.189091 244.743984 
L 368.247273 244.072656 
L 372.305455 243.39528 
L 376.363636 242.713368 
L 380.421818 242.02692 
L 384.48 241.337448 
L 388.538182 240.644952 
L 392.596364 239.952456 
L 396.654545 239.258448 
L 400.712727 238.56444 
L 404.770909 237.873456 
L 408.829091 237.183984 
L 412.887273 236.50056 
L 416.945455 235.823184 
L 421.003636 235.153368 
L 425.061818 234.492624 
L 429.12 233.843976 
L 433.178182 233.208936 
L 437.236364 232.590528 
L 441.294545 231.991776 
L 445.352727 231.41268 
L 449.410909 230.859288 
L 453.469091 230.333112 
L 457.527273 229.837176 
L 461.585455 229.374504 
L 465.643636 228.949632 
L 469.701818 228.564072 
L 473.76 228.22236 
L 477.818182 227.92752 
L 481.876364 227.682576 
L 485.934545 227.48904 
L 489.992727 227.348424 
L 494.050909 227.268288 
L 498.109091 227.295504 
" clip-path="url(#pe5b4a541c5)" style="fill: none; stroke: #000000; stroke-opacity: 0.5; stroke-linecap: square"/>
   </g>
   <g id="line2d_19">
    <path d="M 92.290909 259.148808 
L 96.349091 259.026336 
L 100.407273 258.728472 
L 104.465455 258.347448 
L 108.523636 257.916528 
L 112.581818 257.452344 
L 116.64 256.95792 
L 120.698182 256.439304 
L 124.756364 255.894984 
L 128.814545 255.327984 
L 132.872727 254.738304 
L 136.930909 254.125944 
L 140.989091 253.493928 
L 145.047273 252.839232 
L 149.105455 252.166392 
L 153.163636 251.472384 
L 157.221818 250.760232 
L 161.28 250.028424 
L 165.338182 249.279984 
L 169.396364 248.5134 
L 173.454545 247.730184 
L 177.512727 246.930336 
L 181.570909 246.11688 
L 185.629091 245.288304 
L 189.687273 244.447632 
L 193.745455 243.593352 
L 197.803636 242.728488 
L 201.861818 241.85304 
L 205.92 240.967008 
L 209.978182 240.074928 
L 214.036364 239.173776 
L 218.094545 238.2696 
L 222.152727 237.359376 
L 226.210909 236.446128 
L 230.269091 235.531368 
L 234.327273 234.61812 
L 238.385455 233.704872 
L 242.443636 232.79616 
L 246.501818 231.891984 
L 250.56 230.995368 
L 254.618182 230.107824 
L 258.676364 229.230864 
L 262.734545 228.366 
L 266.792727 227.516256 
L 270.850909 226.684656 
L 274.909091 225.872712 
L 278.967273 225.081936 
L 283.025455 224.315352 
L 287.083636 223.574472 
L 291.141818 222.86232 
L 295.2 222.18192 
L 299.258182 221.534784 
L 303.316364 220.922424 
L 307.374545 220.346352 
L 311.432727 219.811104 
L 315.490909 219.315168 
L 319.549091 218.86308 
L 323.607273 218.453328 
L 327.665455 218.088936 
L 331.723636 217.768392 
L 335.781818 217.49472 
L 339.84 217.266408 
L 343.898182 217.083456 
L 347.956364 216.947376 
L 352.014545 216.853632 
L 356.072727 216.803736 
L 360.130909 216.797688 
L 364.189091 216.830952 
L 368.247273 216.90504 
L 372.305455 217.016928 
L 376.363636 217.165104 
L 380.421818 217.348056 
L 384.48 217.564272 
L 388.538182 217.810728 
L 392.596364 218.087424 
L 396.654545 218.389824 
L 400.712727 218.717928 
L 404.770909 219.068712 
L 408.829091 219.442176 
L 412.887273 219.833784 
L 416.945455 220.242024 
L 421.003636 220.665384 
L 425.061818 221.102352 
L 429.12 221.548392 
L 433.178182 222.003504 
L 437.236364 222.463152 
L 441.294545 222.924312 
L 445.352727 223.385472 
L 449.410909 223.842096 
L 453.469091 224.29116 
L 457.527273 224.728128 
L 461.585455 225.148464 
L 465.643636 225.547632 
L 469.701818 225.918072 
L 473.76 226.258272 
L 477.818182 226.557648 
L 481.876364 226.814688 
L 485.934545 227.02032 
L 489.992727 227.17152 
L 494.050909 227.259216 
L 498.109091 227.235024 
" clip-path="url(#pe5b4a541c5)" style="fill: none; stroke: #000000; stroke-opacity: 0.5; stroke-linecap: square"/>
   </g>
   <g id="line2d_20">
    <path d="M 92.290909 150.366456 
L 96.349091 150.36948 
L 100.407273 150.380064 
L 104.465455 150.395184 
L 108.523636 150.413328 
L 112.581818 150.434496 
L 116.64 150.454152 
L 120.698182 150.470784 
L 124.756364 150.484392 
L 128.814545 150.491952 
L 132.872727 150.493464 
L 136.930909 150.487416 
L 140.989091 150.473808 
L 145.047273 150.451128 
L 149.105455 150.419376 
L 153.163636 150.378552 
L 157.221818 150.327144 
L 161.28 150.266664 
L 165.338182 150.197112 
L 169.396364 150.116976 
L 173.454545 150.027768 
L 177.512727 149.929488 
L 181.570909 149.822136 
L 185.629091 149.705712 
L 189.687273 149.586264 
L 193.745455 149.48496 
L 197.803636 149.65884 
L 201.861818 150.321096 
L 205.92 151.054416 
L 209.978182 151.795296 
L 214.036364 152.534664 
L 218.094545 153.263448 
L 222.152727 153.980136 
L 226.210909 154.681704 
L 230.269091 155.365128 
L 234.327273 156.027384 
L 238.385455 156.668472 
L 242.443636 157.28688 
L 246.501818 157.878072 
L 250.56 158.44356 
L 254.618182 158.981832 
L 258.676364 159.488352 
L 262.734545 159.964632 
L 266.792727 160.407648 
L 270.850909 160.814376 
L 274.909091 161.186328 
L 278.967273 161.52048 
L 283.025455 161.813808 
L 287.083636 162.067824 
L 291.141818 162.27648 
L 295.2 162.4428 
L 299.258182 162.562248 
L 303.316364 162.634824 
L 307.374545 162.657504 
L 311.432727 162.6318 
L 315.490909 162.5562 
L 319.549091 162.429192 
L 323.607273 162.249264 
L 327.665455 162.01944 
L 331.723636 161.738208 
L 335.781818 161.405568 
L 339.84 161.023032 
L 343.898182 160.592112 
L 347.956364 160.11432 
L 352.014545 159.591168 
L 356.072727 159.02568 
L 360.130909 158.42088 
L 364.189091 157.782816 
L 368.247273 157.123584 
L 372.305455 156.582288 
L 376.363636 157.39272 
L 380.421818 158.665824 
L 384.48 159.952536 
L 388.538182 161.230176 
L 392.596364 162.491184 
L 396.654545 163.734048 
L 400.712727 164.957256 
L 404.770909 166.159296 
L 408.829091 167.335632 
L 412.887273 168.487776 
L 416.945455 169.612704 
L 421.003636 170.708904 
L 425.061818 171.773352 
L 429.12 172.806048 
L 433.178182 173.802456 
L 437.236364 174.761064 
L 441.294545 175.68036 
L 445.352727 176.555808 
L 449.410909 177.384384 
L 453.469091 178.164576 
L 457.527273 178.891848 
L 461.585455 179.564688 
L 465.643636 180.177048 
L 469.701818 180.727416 
L 473.76 181.212768 
L 477.818182 181.63008 
L 481.876364 181.974816 
L 485.934545 182.245464 
L 489.992727 182.440512 
L 494.050909 182.558448 
L 498.109091 182.59776 
" clip-path="url(#pe5b4a541c5)" style="fill: none; stroke: #000000; stroke-opacity: 0.5; stroke-linecap: square"/>
   </g>
   <g id="line2d_21">
    <path d="M 92.290909 148.06368 
L 96.349091 148.04856 
L 100.407273 148.0032 
L 104.465455 147.932136 
L 108.523636 147.833856 
L 112.581818 147.711384 
L 116.64 147.569256 
L 120.698182 147.407472 
L 124.756364 147.23208 
L 128.814545 147.04308 
L 132.872727 146.845008 
L 136.930909 146.640888 
L 140.989091 146.433744 
L 145.047273 146.231136 
L 149.105455 146.039112 
L 153.163636 145.869768 
L 157.221818 145.7352 
L 161.28 145.655064 
L 165.338182 145.656576 
L 169.396364 145.762416 
L 173.454545 145.995264 
L 177.512727 146.36268 
L 181.570909 146.848032 
L 185.629091 147.42864 
L 189.687273 148.072752 
L 193.745455 148.735008 
L 197.803636 149.140224 
L 201.861818 149.063112 
L 205.92 148.9104 
L 209.978182 148.738032 
L 214.036364 148.553568 
L 218.094545 148.35852 
L 222.152727 148.152888 
L 226.210909 147.938184 
L 230.269091 147.71592 
L 234.327273 147.484584 
L 238.385455 147.244176 
L 242.443636 146.996208 
L 246.501818 146.74068 
L 250.56 146.477592 
L 254.618182 146.208456 
L 258.676364 145.93176 
L 262.734545 145.647504 
L 266.792727 145.360224 
L 270.850909 145.065384 
L 274.909091 144.76752 
L 278.967273 144.46512 
L 283.025455 144.159696 
L 287.083636 143.85276 
L 291.141818 143.544312 
L 295.2 143.238888 
L 299.258182 142.939512 
L 303.316364 142.649208 
L 307.374545 142.375536 
L 311.432727 142.132104 
L 315.490909 141.941592 
L 319.549091 141.847848 
L 323.607273 141.931008 
L 327.665455 142.30296 
L 331.723636 143.030232 
L 335.781818 144.047808 
L 339.84 145.237752 
L 343.898182 146.519928 
L 347.956364 147.848976 
L 352.014545 149.199192 
L 356.072727 150.556968 
L 360.130909 151.914744 
L 364.189091 153.263448 
L 368.247273 154.589472 
L 372.305455 155.755224 
L 376.363636 155.529936 
L 380.421818 154.802664 
L 384.48 154.027008 
L 388.538182 153.230184 
L 392.596364 152.422776 
L 396.654545 151.610832 
L 400.712727 150.806448 
L 404.770909 150.018696 
L 408.829091 149.259672 
L 412.887273 148.544496 
L 416.945455 147.892824 
L 421.003636 147.324312 
L 425.061818 146.858616 
L 429.12 146.512368 
L 433.178182 146.288592 
L 437.236364 146.182752 
L 441.294545 146.175192 
L 445.352727 146.247768 
L 449.410909 146.373264 
L 453.469091 146.535048 
L 457.527273 146.714976 
L 461.585455 146.900952 
L 465.643636 147.085416 
L 469.701818 147.259296 
L 473.76 147.418056 
L 477.818182 147.55716 
L 481.876364 147.673584 
L 485.934545 147.767328 
L 489.992727 147.835368 
L 494.050909 147.876192 
L 498.109091 147.8898 
" clip-path="url(#pe5b4a541c5)" style="fill: none; stroke: #000000; stroke-opacity: 0.5; stroke-linecap: square"/>
   </g>
   <g id="line2d_22">
    <path d="M 92.290909 119.556432 
L 96.349091 120.685896 
L 100.407273 121.9212 
L 104.465455 123.144408 
L 108.523636 124.350984 
L 112.581818 125.540928 
L 116.64 126.715752 
L 120.698182 127.87092 
L 124.756364 129.006432 
L 128.814545 130.120776 
L 132.872727 131.210928 
L 136.930909 132.275376 
L 140.989091 133.309584 
L 145.047273 134.309016 
L 149.105455 135.263088 
L 153.163636 136.165752 
L 157.221818 137.001888 
L 161.28 137.748816 
L 165.338182 138.385368 
L 169.396364 138.884328 
L 173.454545 139.223016 
L 177.512727 139.395384 
L 181.570909 139.41504 
L 185.629091 139.304664 
L 189.687273 139.091472 
L 193.745455 138.798144 
L 197.803636 138.442824 
L 201.861818 138.037608 
L 205.92 137.591568 
L 209.978182 137.110752 
L 214.036364 136.599696 
L 218.094545 136.062936 
L 222.152727 135.501984 
L 226.210909 134.919864 
L 230.269091 134.316576 
L 234.327273 133.693632 
L 238.385455 133.052544 
L 242.443636 132.393312 
L 246.501818 131.717448 
L 250.56 131.024952 
L 254.618182 130.317336 
L 258.676364 129.596112 
L 262.734545 128.859768 
L 266.792727 128.111328 
L 270.850909 127.350792 
L 274.909091 126.581184 
L 278.967273 125.80704 
L 283.025455 125.046504 
L 287.083636 124.61256 
L 291.141818 125.847864 
L 295.2 127.346256 
L 299.258182 128.849184 
L 303.316364 130.33548 
L 307.374545 131.796072 
L 311.432727 133.214328 
L 315.490909 134.56908 
L 319.549091 135.81648 
L 323.607273 136.87488 
L 327.665455 137.632392 
L 331.723636 138.024 
L 335.781818 138.113208 
L 339.84 138.017952 
L 343.898182 137.818368 
L 347.956364 137.559816 
L 352.014545 137.268 
L 356.072727 136.955016 
L 360.130909 136.628424 
L 364.189091 136.294272 
L 368.247273 135.955584 
L 372.305455 135.613872 
L 376.363636 135.27216 
L 380.421818 134.93196 
L 384.48 134.594784 
L 388.538182 134.263656 
L 392.596364 133.946136 
L 396.654545 133.743528 
L 400.712727 134.257608 
L 404.770909 134.885088 
L 408.829091 135.450576 
L 412.887273 135.92988 
L 416.945455 136.30788 
L 421.003636 136.563408 
L 425.061818 136.681344 
L 429.12 136.649592 
L 433.178182 136.463616 
L 437.236364 136.135512 
L 441.294545 135.686448 
L 445.352727 135.142128 
L 449.410909 134.532792 
L 453.469091 133.88112 
L 457.527273 133.209792 
L 461.585455 132.539976 
L 465.643636 131.888304 
L 469.701818 131.271408 
L 473.76 130.699872 
L 477.818182 130.190328 
L 481.876364 129.754872 
L 485.934545 129.402576 
L 489.992727 129.145536 
L 494.050909 128.992824 
L 498.109091 128.948976 
" clip-path="url(#pe5b4a541c5)" style="fill: none; stroke: #000000; stroke-opacity: 0.5; stroke-linecap: square"/>
   </g>
   <g id="line2d_23">
    <path d="M 92.290909 119.29788 
L 96.349091 118.154808 
L 100.407273 116.877168 
L 104.465455 115.58592 
L 108.523636 114.279552 
L 112.581818 112.9626 
L 116.64 111.63204 
L 120.698182 110.290896 
L 124.756364 108.937656 
L 128.814545 107.573832 
L 132.872727 106.199424 
L 136.930909 104.814432 
L 140.989091 103.418856 
L 145.047273 102.01572 
L 149.105455 100.602 
L 153.163636 99.179208 
L 157.221818 97.747344 
L 161.28 96.309432 
L 165.338182 94.862448 
L 169.396364 93.409416 
L 173.454545 91.948824 
L 177.512727 90.483696 
L 181.570909 89.014032 
L 185.629091 87.542856 
L 189.687273 86.115528 
L 193.745455 87.040872 
L 197.803636 88.67988 
L 201.861818 90.324936 
L 205.92 91.971504 
L 209.978182 93.618072 
L 214.036364 95.261616 
L 218.094545 96.903648 
L 222.152727 98.544168 
L 226.210909 100.181664 
L 230.269091 101.817648 
L 234.327273 103.449096 
L 238.385455 105.079032 
L 242.443636 106.70292 
L 246.501818 108.325296 
L 250.56 109.941624 
L 254.618182 111.553416 
L 258.676364 113.15916 
L 262.734545 114.760368 
L 266.792727 116.354016 
L 270.850909 117.941616 
L 274.909091 119.518632 
L 278.967273 121.08204 
L 283.025455 122.613696 
L 287.083636 123.802128 
L 291.141818 123.306192 
L 295.2 122.53356 
L 299.258182 121.745808 
L 303.316364 120.967128 
L 307.374545 120.211128 
L 311.432727 119.502 
L 315.490909 118.87452 
L 319.549091 118.38312 
L 323.607273 118.11096 
L 327.665455 118.147248 
L 331.723636 118.522224 
L 335.781818 119.182968 
L 339.84 120.035736 
L 343.898182 121.001904 
L 347.956364 122.025528 
L 352.014545 123.076368 
L 356.072727 124.13628 
L 360.130909 125.191656 
L 364.189091 126.231912 
L 368.247273 127.254024 
L 372.305455 128.251944 
L 376.363636 129.219624 
L 380.421818 130.155552 
L 384.48 131.05368 
L 388.538182 131.910984 
L 392.596364 132.712344 
L 396.654545 133.356456 
L 400.712727 133.23096 
L 404.770909 132.933096 
L 408.829091 132.630696 
L 412.887273 132.334344 
L 416.945455 132.045552 
L 421.003636 131.76432 
L 425.061818 131.493672 
L 429.12 131.233608 
L 433.178182 130.984128 
L 437.236364 130.746744 
L 441.294545 130.521456 
L 445.352727 130.309776 
L 449.410909 130.110192 
L 453.469091 129.925728 
L 457.527273 129.754872 
L 461.585455 129.599136 
L 465.643636 129.45852 
L 469.701818 129.334536 
L 473.76 129.225672 
L 477.818182 129.13344 
L 481.876364 129.056328 
L 485.934545 128.99736 
L 489.992727 128.953512 
L 494.050909 128.92176 
L 498.109091 128.903616 
" clip-path="url(#pe5b4a541c5)" style="fill: none; stroke: #000000; stroke-opacity: 0.5; stroke-linecap: square"/>
   </g>
   <g id="patch_3">
    <path d="M 72 384.48 
L 72 51.84 
" style="fill: none; stroke: #000000; stroke-width: 0.8; stroke-linejoin: miter; stroke-linecap: square"/>
   </g>
   <g id="patch_4">
    <path d="M 518.4 384.48 
L 518.4 51.84 
" style="fill: none; stroke: #000000; stroke-width: 0.8; stroke-linejoin: miter; stroke-linecap: square"/>
   </g>
   <g id="patch_5">
    <path d="M 72 384.48 
L 518.4 384.48 
" style="fill: none; stroke: #000000; stroke-width: 0.8; stroke-linejoin: miter; stroke-linecap: square"/>
   </g>
   <g id="patch_6">
    <path d="M 72 51.84 
L 518.4 51.84 
" style="fill: none; stroke: #000000; stroke-width: 0.8; stroke-linejoin: miter; stroke-linecap: square"/>
   </g>
  </g>
 </g>
 <defs>
  <clipPath id="pe5b4a541c5">
   <rect x="72" y="51.84" width="446.4" height="332.64"/>
  </clipPath>
 </defs>
</svg>
