<?xml version="1.0" encoding="utf-8" standalone="no"?>
<!DOCTYPE svg PUBLIC "-//W3C//DTD SVG 1.1//EN"
  "http://www.w3.org/Graphics/SVG/1.1/DTD/svg11.dtd">
<svg xmlns:xlink="http://www.w3.org/1999/xlink" width="576pt" height="432pt" viewBox="0 0 576 432" xmlns="http://www.w3.org/2000/svg" version="1.1">
 <metadata>
  <rdf:RDF xmlns:dc="http://purl.org/dc/elements/1.1/" xmlns:cc="http://creativecommons.org/ns#" xmlns:rdf="http://www.w3.org/1999/02/22-rdf-syntax-ns#">
   <cc:Work>
    <dc:type rdf:resource="http://purl.org/dc/dcmitype/StillImage"/>
    <dc:date>2023-05-02T22:02:04.792288</dc:date>
    <dc:format>image/svg+xml</dc:format>
    <dc:creator>
     <cc:Agent>
      <dc:title>Matplotlib v3.7.1, https://matplotlib.org/</dc:title>
     </cc:Agent>
    </dc:creator>
   </cc:Work>
  </rdf:RDF>
 </metadata>
 <defs>
  <style type="text/css">*{stroke-linejoin: round; stroke-linecap: butt}</style>
 </defs>
 <g id="figure_1">
  <g id="patch_1">
   <path d="M 0 432 
L 576 432 
L 576 0 
L 0 0 
z
" style="fill: #ffffff"/>
  </g>
  <g id="axes_1">
   <g id="patch_2">
    <path d="M 72 384.48 
L 518.4 384.48 
L 518.4 51.84 
L 72 51.84 
z
" style="fill: #ffffff"/>
   </g>
   <g id="matplotlib.axis_1">
    <g id="xtick_1">
     <g id="line2d_1">
      <defs>
       <path id="mf0f27dbd3c" d="M 0 0 
L 0 3.5 
" style="stroke: #000000; stroke-width: 0.8"/>
      </defs>
      <g>
       <use xlink:href="#mf0f27dbd3c" x="92.290909" y="384.48" style="stroke: #000000; stroke-width: 0.8"/>
      </g>
     </g>
     <g id="text_1">
      <!-- 0.0 -->
      <g transform="translate(84.339347 399.078438) scale(0.1 -0.1)">
       <defs>
        <path id="DejaVuSans-30" d="M 2034 4250 
Q 1547 4250 1301 3770 
Q 1056 3291 1056 2328 
Q 1056 1369 1301 889 
Q 1547 409 2034 409 
Q 2525 409 2770 889 
Q 3016 1369 3016 2328 
Q 3016 3291 2770 3770 
Q 2525 4250 2034 4250 
z
M 2034 4750 
Q 2819 4750 3233 4129 
Q 3647 3509 3647 2328 
Q 3647 1150 3233 529 
Q 2819 -91 2034 -91 
Q 1250 -91 836 529 
Q 422 1150 422 2328 
Q 422 3509 836 4129 
Q 1250 4750 2034 4750 
z
" transform="scale(0.015625)"/>
        <path id="DejaVuSans-2e" d="M 684 794 
L 1344 794 
L 1344 0 
L 684 0 
L 684 794 
z
" transform="scale(0.015625)"/>
       </defs>
       <use xlink:href="#DejaVuSans-30"/>
       <use xlink:href="#DejaVuSans-2e" x="63.623047"/>
       <use xlink:href="#DejaVuSans-30" x="95.410156"/>
      </g>
     </g>
    </g>
    <g id="xtick_2">
     <g id="line2d_2">
      <g>
       <use xlink:href="#mf0f27dbd3c" x="173.454545" y="384.48" style="stroke: #000000; stroke-width: 0.8"/>
      </g>
     </g>
     <g id="text_2">
      <!-- 0.2 -->
      <g transform="translate(165.502983 399.078438) scale(0.1 -0.1)">
       <defs>
        <path id="DejaVuSans-32" d="M 1228 531 
L 3431 531 
L 3431 0 
L 469 0 
L 469 531 
Q 828 903 1448 1529 
Q 2069 2156 2228 2338 
Q 2531 2678 2651 2914 
Q 2772 3150 2772 3378 
Q 2772 3750 2511 3984 
Q 2250 4219 1831 4219 
Q 1534 4219 1204 4116 
Q 875 4013 500 3803 
L 500 4441 
Q 881 4594 1212 4672 
Q 1544 4750 1819 4750 
Q 2544 4750 2975 4387 
Q 3406 4025 3406 3419 
Q 3406 3131 3298 2873 
Q 3191 2616 2906 2266 
Q 2828 2175 2409 1742 
Q 1991 1309 1228 531 
z
" transform="scale(0.015625)"/>
       </defs>
       <use xlink:href="#DejaVuSans-30"/>
       <use xlink:href="#DejaVuSans-2e" x="63.623047"/>
       <use xlink:href="#DejaVuSans-32" x="95.410156"/>
      </g>
     </g>
    </g>
    <g id="xtick_3">
     <g id="line2d_3">
      <g>
       <use xlink:href="#mf0f27dbd3c" x="254.618182" y="384.48" style="stroke: #000000; stroke-width: 0.8"/>
      </g>
     </g>
     <g id="text_3">
      <!-- 0.4 -->
      <g transform="translate(246.666619 399.078438) scale(0.1 -0.1)">
       <defs>
        <path id="DejaVuSans-34" d="M 2419 4116 
L 825 1625 
L 2419 1625 
L 2419 4116 
z
M 2253 4666 
L 3047 4666 
L 3047 1625 
L 3713 1625 
L 3713 1100 
L 3047 1100 
L 3047 0 
L 2419 0 
L 2419 1100 
L 313 1100 
L 313 1709 
L 2253 4666 
z
" transform="scale(0.015625)"/>
       </defs>
       <use xlink:href="#DejaVuSans-30"/>
       <use xlink:href="#DejaVuSans-2e" x="63.623047"/>
       <use xlink:href="#DejaVuSans-34" x="95.410156"/>
      </g>
     </g>
    </g>
    <g id="xtick_4">
     <g id="line2d_4">
      <g>
       <use xlink:href="#mf0f27dbd3c" x="335.781818" y="384.48" style="stroke: #000000; stroke-width: 0.8"/>
      </g>
     </g>
     <g id="text_4">
      <!-- 0.6 -->
      <g transform="translate(327.830256 399.078438) scale(0.1 -0.1)">
       <defs>
        <path id="DejaVuSans-36" d="M 2113 2584 
Q 1688 2584 1439 2293 
Q 1191 2003 1191 1497 
Q 1191 994 1439 701 
Q 1688 409 2113 409 
Q 2538 409 2786 701 
Q 3034 994 3034 1497 
Q 3034 2003 2786 2293 
Q 2538 2584 2113 2584 
z
M 3366 4563 
L 3366 3988 
Q 3128 4100 2886 4159 
Q 2644 4219 2406 4219 
Q 1781 4219 1451 3797 
Q 1122 3375 1075 2522 
Q 1259 2794 1537 2939 
Q 1816 3084 2150 3084 
Q 2853 3084 3261 2657 
Q 3669 2231 3669 1497 
Q 3669 778 3244 343 
Q 2819 -91 2113 -91 
Q 1303 -91 875 529 
Q 447 1150 447 2328 
Q 447 3434 972 4092 
Q 1497 4750 2381 4750 
Q 2619 4750 2861 4703 
Q 3103 4656 3366 4563 
z
" transform="scale(0.015625)"/>
       </defs>
       <use xlink:href="#DejaVuSans-30"/>
       <use xlink:href="#DejaVuSans-2e" x="63.623047"/>
       <use xlink:href="#DejaVuSans-36" x="95.410156"/>
      </g>
     </g>
    </g>
    <g id="xtick_5">
     <g id="line2d_5">
      <g>
       <use xlink:href="#mf0f27dbd3c" x="416.945455" y="384.48" style="stroke: #000000; stroke-width: 0.8"/>
      </g>
     </g>
     <g id="text_5">
      <!-- 0.8 -->
      <g transform="translate(408.993892 399.078438) scale(0.1 -0.1)">
       <defs>
        <path id="DejaVuSans-38" d="M 2034 2216 
Q 1584 2216 1326 1975 
Q 1069 1734 1069 1313 
Q 1069 891 1326 650 
Q 1584 409 2034 409 
Q 2484 409 2743 651 
Q 3003 894 3003 1313 
Q 3003 1734 2745 1975 
Q 2488 2216 2034 2216 
z
M 1403 2484 
Q 997 2584 770 2862 
Q 544 3141 544 3541 
Q 544 4100 942 4425 
Q 1341 4750 2034 4750 
Q 2731 4750 3128 4425 
Q 3525 4100 3525 3541 
Q 3525 3141 3298 2862 
Q 3072 2584 2669 2484 
Q 3125 2378 3379 2068 
Q 3634 1759 3634 1313 
Q 3634 634 3220 271 
Q 2806 -91 2034 -91 
Q 1263 -91 848 271 
Q 434 634 434 1313 
Q 434 1759 690 2068 
Q 947 2378 1403 2484 
z
M 1172 3481 
Q 1172 3119 1398 2916 
Q 1625 2713 2034 2713 
Q 2441 2713 2670 2916 
Q 2900 3119 2900 3481 
Q 2900 3844 2670 4047 
Q 2441 4250 2034 4250 
Q 1625 4250 1398 4047 
Q 1172 3844 1172 3481 
z
" transform="scale(0.015625)"/>
       </defs>
       <use xlink:href="#DejaVuSans-30"/>
       <use xlink:href="#DejaVuSans-2e" x="63.623047"/>
       <use xlink:href="#DejaVuSans-38" x="95.410156"/>
      </g>
     </g>
    </g>
    <g id="xtick_6">
     <g id="line2d_6">
      <g>
       <use xlink:href="#mf0f27dbd3c" x="498.109091" y="384.48" style="stroke: #000000; stroke-width: 0.8"/>
      </g>
     </g>
     <g id="text_6">
      <!-- 1.0 -->
      <g transform="translate(490.157528 399.078438) scale(0.1 -0.1)">
       <defs>
        <path id="DejaVuSans-31" d="M 794 531 
L 1825 531 
L 1825 4091 
L 703 3866 
L 703 4441 
L 1819 4666 
L 2450 4666 
L 2450 531 
L 3481 531 
L 3481 0 
L 794 0 
L 794 531 
z
" transform="scale(0.015625)"/>
       </defs>
       <use xlink:href="#DejaVuSans-31"/>
       <use xlink:href="#DejaVuSans-2e" x="63.623047"/>
       <use xlink:href="#DejaVuSans-30" x="95.410156"/>
      </g>
     </g>
    </g>
   </g>
   <g id="matplotlib.axis_2">
    <g id="ytick_1">
     <g id="line2d_7">
      <defs>
       <path id="m6984b2fcbf" d="M 0 0 
L -3.5 0 
" style="stroke: #000000; stroke-width: 0.8"/>
      </defs>
      <g>
       <use xlink:href="#m6984b2fcbf" x="72" y="369.36" style="stroke: #000000; stroke-width: 0.8"/>
      </g>
     </g>
     <g id="text_7">
      <!-- −5.0 -->
      <g transform="translate(40.717187 373.159219) scale(0.1 -0.1)">
       <defs>
        <path id="DejaVuSans-2212" d="M 678 2272 
L 4684 2272 
L 4684 1741 
L 678 1741 
L 678 2272 
z
" transform="scale(0.015625)"/>
        <path id="DejaVuSans-35" d="M 691 4666 
L 3169 4666 
L 3169 4134 
L 1269 4134 
L 1269 2991 
Q 1406 3038 1543 3061 
Q 1681 3084 1819 3084 
Q 2600 3084 3056 2656 
Q 3513 2228 3513 1497 
Q 3513 744 3044 326 
Q 2575 -91 1722 -91 
Q 1428 -91 1123 -41 
Q 819 9 494 109 
L 494 744 
Q 775 591 1075 516 
Q 1375 441 1709 441 
Q 2250 441 2565 725 
Q 2881 1009 2881 1497 
Q 2881 1984 2565 2268 
Q 2250 2553 1709 2553 
Q 1456 2553 1204 2497 
Q 953 2441 691 2322 
L 691 4666 
z
" transform="scale(0.015625)"/>
       </defs>
       <use xlink:href="#DejaVuSans-2212"/>
       <use xlink:href="#DejaVuSans-35" x="83.789062"/>
       <use xlink:href="#DejaVuSans-2e" x="147.412109"/>
       <use xlink:href="#DejaVuSans-30" x="179.199219"/>
      </g>
     </g>
    </g>
    <g id="ytick_2">
     <g id="line2d_8">
      <g>
       <use xlink:href="#m6984b2fcbf" x="72" y="331.56" style="stroke: #000000; stroke-width: 0.8"/>
      </g>
     </g>
     <g id="text_8">
      <!-- −2.5 -->
      <g transform="translate(40.717187 335.359219) scale(0.1 -0.1)">
       <use xlink:href="#DejaVuSans-2212"/>
       <use xlink:href="#DejaVuSans-32" x="83.789062"/>
       <use xlink:href="#DejaVuSans-2e" x="147.412109"/>
       <use xlink:href="#DejaVuSans-35" x="179.199219"/>
      </g>
     </g>
    </g>
    <g id="ytick_3">
     <g id="line2d_9">
      <g>
       <use xlink:href="#m6984b2fcbf" x="72" y="293.76" style="stroke: #000000; stroke-width: 0.8"/>
      </g>
     </g>
     <g id="text_9">
      <!-- 0.0 -->
      <g transform="translate(49.096875 297.559219) scale(0.1 -0.1)">
       <use xlink:href="#DejaVuSans-30"/>
       <use xlink:href="#DejaVuSans-2e" x="63.623047"/>
       <use xlink:href="#DejaVuSans-30" x="95.410156"/>
      </g>
     </g>
    </g>
    <g id="ytick_4">
     <g id="line2d_10">
      <g>
       <use xlink:href="#m6984b2fcbf" x="72" y="255.96" style="stroke: #000000; stroke-width: 0.8"/>
      </g>
     </g>
     <g id="text_10">
      <!-- 2.5 -->
      <g transform="translate(49.096875 259.759219) scale(0.1 -0.1)">
       <use xlink:href="#DejaVuSans-32"/>
       <use xlink:href="#DejaVuSans-2e" x="63.623047"/>
       <use xlink:href="#DejaVuSans-35" x="95.410156"/>
      </g>
     </g>
    </g>
    <g id="ytick_5">
     <g id="line2d_11">
      <g>
       <use xlink:href="#m6984b2fcbf" x="72" y="218.16" style="stroke: #000000; stroke-width: 0.8"/>
      </g>
     </g>
     <g id="text_11">
      <!-- 5.0 -->
      <g transform="translate(49.096875 221.959219) scale(0.1 -0.1)">
       <use xlink:href="#DejaVuSans-35"/>
       <use xlink:href="#DejaVuSans-2e" x="63.623047"/>
       <use xlink:href="#DejaVuSans-30" x="95.410156"/>
      </g>
     </g>
    </g>
    <g id="ytick_6">
     <g id="line2d_12">
      <g>
       <use xlink:href="#m6984b2fcbf" x="72" y="180.36" style="stroke: #000000; stroke-width: 0.8"/>
      </g>
     </g>
     <g id="text_12">
      <!-- 7.5 -->
      <g transform="translate(49.096875 184.159219) scale(0.1 -0.1)">
       <defs>
        <path id="DejaVuSans-37" d="M 525 4666 
L 3525 4666 
L 3525 4397 
L 1831 0 
L 1172 0 
L 2766 4134 
L 525 4134 
L 525 4666 
z
" transform="scale(0.015625)"/>
       </defs>
       <use xlink:href="#DejaVuSans-37"/>
       <use xlink:href="#DejaVuSans-2e" x="63.623047"/>
       <use xlink:href="#DejaVuSans-35" x="95.410156"/>
      </g>
     </g>
    </g>
    <g id="ytick_7">
     <g id="line2d_13">
      <g>
       <use xlink:href="#m6984b2fcbf" x="72" y="142.56" style="stroke: #000000; stroke-width: 0.8"/>
      </g>
     </g>
     <g id="text_13">
      <!-- 10.0 -->
      <g transform="translate(42.734375 146.359219) scale(0.1 -0.1)">
       <use xlink:href="#DejaVuSans-31"/>
       <use xlink:href="#DejaVuSans-30" x="63.623047"/>
       <use xlink:href="#DejaVuSans-2e" x="127.246094"/>
       <use xlink:href="#DejaVuSans-30" x="159.033203"/>
      </g>
     </g>
    </g>
    <g id="ytick_8">
     <g id="line2d_14">
      <g>
       <use xlink:href="#m6984b2fcbf" x="72" y="104.76" style="stroke: #000000; stroke-width: 0.8"/>
      </g>
     </g>
     <g id="text_14">
      <!-- 12.5 -->
      <g transform="translate(42.734375 108.559219) scale(0.1 -0.1)">
       <use xlink:href="#DejaVuSans-31"/>
       <use xlink:href="#DejaVuSans-32" x="63.623047"/>
       <use xlink:href="#DejaVuSans-2e" x="127.246094"/>
       <use xlink:href="#DejaVuSans-35" x="159.033203"/>
      </g>
     </g>
    </g>
    <g id="ytick_9">
     <g id="line2d_15">
      <g>
       <use xlink:href="#m6984b2fcbf" x="72" y="66.96" style="stroke: #000000; stroke-width: 0.8"/>
      </g>
     </g>
     <g id="text_15">
      <!-- 15.0 -->
      <g transform="translate(42.734375 70.759219) scale(0.1 -0.1)">
       <use xlink:href="#DejaVuSans-31"/>
       <use xlink:href="#DejaVuSans-35" x="63.623047"/>
       <use xlink:href="#DejaVuSans-2e" x="127.246094"/>
       <use xlink:href="#DejaVuSans-30" x="159.033203"/>
      </g>
     </g>
    </g>
   </g>
   <g id="line2d_16">
    <path d="M 92.290909 365.855184 
L 96.349091 365.849136 
L 100.407273 365.832504 
L 104.465455 365.803776 
L 108.523636 365.762952 
L 112.581818 365.711544 
L 116.64 365.64804 
L 120.698182 365.57244 
L 124.756364 365.486256 
L 128.814545 365.387976 
L 132.872727 365.279112 
L 136.930909 365.158152 
L 140.989091 365.026608 
L 145.047273 364.882968 
L 149.105455 364.727232 
L 153.163636 364.562424 
L 157.221818 364.384008 
L 161.28 364.19652 
L 165.338182 363.995424 
L 169.396364 363.785256 
L 173.454545 363.562992 
L 177.512727 363.330144 
L 181.570909 363.086712 
L 185.629091 362.831184 
L 189.687273 362.565072 
L 193.745455 362.289888 
L 197.803636 362.002608 
L 201.861818 361.704744 
L 205.92 361.396296 
L 209.978182 361.077264 
L 214.036364 360.747648 
L 218.094545 360.40896 
L 222.152727 360.058176 
L 226.210909 359.69832 
L 230.269091 359.329392 
L 234.327273 358.94988 
L 238.385455 358.559784 
L 242.443636 358.162128 
L 246.501818 357.753888 
L 250.56 357.336576 
L 254.618182 356.90868 
L 258.676364 356.473224 
L 262.734545 356.028696 
L 266.792727 355.576608 
L 270.850909 355.113936 
L 274.909091 354.645216 
L 278.967273 354.165912 
L 283.025455 353.68056 
L 287.083636 353.187648 
L 291.141818 352.687176 
L 295.2 352.179144 
L 299.258182 351.665064 
L 303.316364 351.143424 
L 307.374545 350.617248 
L 311.432727 350.083512 
L 315.490909 349.54524 
L 319.549091 349.00092 
L 323.607273 348.452064 
L 327.665455 347.898672 
L 331.723636 347.342256 
L 335.781818 346.781304 
L 339.84 346.217328 
L 343.898182 345.65184 
L 347.956364 345.083328 
L 352.014545 344.513304 
L 356.072727 343.941768 
L 360.130909 343.371744 
L 364.189091 342.800208 
L 368.247273 342.231696 
L 372.305455 341.663184 
L 376.363636 341.097696 
L 380.421818 340.536744 
L 384.48 339.978816 
L 388.538182 339.425424 
L 392.596364 338.879592 
L 396.654545 338.339808 
L 400.712727 337.809096 
L 404.770909 337.285944 
L 408.829091 336.773376 
L 412.887273 336.271392 
L 416.945455 335.783016 
L 421.003636 335.308248 
L 425.061818 334.847088 
L 429.12 334.40256 
L 433.178182 333.974664 
L 437.236364 333.564912 
L 441.294545 333.176328 
L 445.352727 332.8074 
L 449.410909 332.45964 
L 453.469091 332.136072 
L 457.527273 331.836696 
L 461.585455 331.561512 
L 465.643636 331.313544 
L 469.701818 331.09128 
L 473.76 330.897744 
L 477.818182 330.732936 
L 481.876364 330.596856 
L 485.934545 330.491016 
L 489.992727 330.415416 
L 494.050909 330.368544 
L 498.109091 330.353424 
" clip-path="url(#pf9120d4d14)" style="fill: none; stroke: #000000; stroke-opacity: 0.5; stroke-linecap: square"/>
   </g>
   <g id="line2d_17">
    <path d="M 92.290909 259.620552 
L 96.349091 259.6644 
L 100.407273 259.798968 
L 104.465455 260.016696 
L 108.523636 260.316072 
L 112.581818 260.688024 
L 116.64 261.128016 
L 120.698182 261.625464 
L 124.756364 262.17432 
L 128.814545 262.768536 
L 132.872727 263.400552 
L 136.930909 264.065832 
L 140.989091 264.758328 
L 145.047273 265.473504 
L 149.105455 266.206824 
L 153.163636 266.956776 
L 157.221818 267.718824 
L 161.28 268.491456 
L 165.338182 269.27316 
L 169.396364 270.0594 
L 173.454545 270.848664 
L 177.512727 271.642464 
L 181.570909 272.437776 
L 185.629091 273.231576 
L 189.687273 274.025376 
L 193.745455 274.817664 
L 197.803636 275.606928 
L 201.861818 276.391656 
L 205.92 277.17336 
L 209.978182 277.950528 
L 214.036364 278.721648 
L 218.094545 279.48672 
L 222.152727 280.247256 
L 226.210909 280.99872 
L 230.269091 281.744136 
L 234.327273 282.481992 
L 238.385455 283.212288 
L 242.443636 283.935024 
L 246.501818 284.648688 
L 250.56 285.35328 
L 254.618182 286.0488 
L 258.676364 286.735248 
L 262.734545 287.412624 
L 266.792727 288.080928 
L 270.850909 288.738648 
L 274.909091 289.385784 
L 278.967273 290.023848 
L 283.025455 290.651328 
L 287.083636 291.266712 
L 291.141818 291.873024 
L 295.2 292.468752 
L 299.258182 293.052384 
L 303.316364 293.625432 
L 307.374545 294.186384 
L 311.432727 294.736752 
L 315.490909 295.275024 
L 319.549091 295.802712 
L 323.607273 296.318304 
L 327.665455 296.820288 
L 331.723636 297.311688 
L 335.781818 297.790992 
L 339.84 298.2582 
L 343.898182 298.713312 
L 347.956364 299.154816 
L 352.014545 299.585736 
L 356.072727 300.001536 
L 360.130909 300.406752 
L 364.189091 300.79836 
L 368.247273 301.17636 
L 372.305455 301.542264 
L 376.363636 301.89456 
L 380.421818 302.23476 
L 384.48 302.55984 
L 388.538182 302.872824 
L 392.596364 303.173712 
L 396.654545 303.45948 
L 400.712727 303.73164 
L 404.770909 303.991704 
L 408.829091 304.23816 
L 412.887273 304.471008 
L 416.945455 304.690248 
L 421.003636 304.897392 
L 425.061818 305.089416 
L 429.12 305.270856 
L 433.178182 305.437176 
L 437.236364 305.592912 
L 441.294545 305.73504 
L 445.352727 305.865072 
L 449.410909 305.983008 
L 453.469091 306.09036 
L 457.527273 306.185616 
L 461.585455 306.2718 
L 465.643636 306.345888 
L 469.701818 306.410904 
L 473.76 306.465336 
L 477.818182 306.512208 
L 481.876364 306.548496 
L 485.934545 306.577224 
L 489.992727 306.598392 
L 494.050909 306.610488 
L 498.109091 306.613512 
" clip-path="url(#pf9120d4d14)" style="fill: none; stroke: #000000; stroke-opacity: 0.5; stroke-linecap: square"/>
   </g>
   <g id="line2d_18">
    <path d="M 92.290909 237.670848 
L 96.349091 237.627 
L 100.407273 237.495456 
L 104.465455 237.282264 
L 108.523636 236.990448 
L 112.581818 236.627568 
L 116.64 236.199672 
L 120.698182 235.718856 
L 124.756364 235.188144 
L 128.814545 234.61812 
L 132.872727 234.014832 
L 136.930909 233.384328 
L 140.989091 232.734168 
L 145.047273 232.068888 
L 149.105455 231.394536 
L 153.163636 230.71716 
L 157.221818 230.04432 
L 161.28 229.383576 
L 165.338182 228.754584 
L 169.396364 228.208752 
L 173.454545 227.88216 
L 177.512727 227.92752 
L 181.570909 228.211776 
L 185.629091 228.588264 
L 189.687273 229.007088 
L 193.745455 229.451616 
L 197.803636 229.914288 
L 201.861818 230.39208 
L 205.92 230.881968 
L 209.978182 231.38244 
L 214.036364 231.891984 
L 218.094545 232.4106 
L 222.152727 232.936776 
L 226.210909 233.469 
L 230.269091 234.007272 
L 234.327273 234.551592 
L 238.385455 235.100448 
L 242.443636 235.65384 
L 246.501818 236.210256 
L 250.56 236.769696 
L 254.618182 237.33216 
L 258.676364 237.897648 
L 262.734545 238.464648 
L 266.792727 239.031648 
L 270.850909 239.601672 
L 274.909091 240.171696 
L 278.967273 240.743232 
L 283.025455 241.314768 
L 287.083636 241.887816 
L 291.141818 242.460864 
L 295.2 243.033912 
L 299.258182 243.605448 
L 303.316364 244.180008 
L 307.374545 244.753056 
L 311.432727 245.326104 
L 315.490909 245.899152 
L 319.549091 246.473712 
L 323.607273 247.048272 
L 327.665455 247.622832 
L 331.723636 248.198904 
L 335.781818 248.774976 
L 339.84 249.35256 
L 343.898182 249.931656 
L 347.956364 250.512264 
L 352.014545 251.094384 
L 356.072727 251.676504 
L 360.130909 252.261648 
L 364.189091 252.848304 
L 368.247273 253.436472 
L 372.305455 254.02464 
L 376.363636 254.61432 
L 380.421818 255.205512 
L 384.48 255.796704 
L 388.538182 256.387896 
L 392.596364 256.977576 
L 396.654545 257.565744 
L 400.712727 258.149376 
L 404.770909 258.731496 
L 408.829091 259.306056 
L 412.887273 259.874568 
L 416.945455 260.43552 
L 421.003636 260.985888 
L 425.061818 261.52416 
L 429.12 262.050336 
L 433.178182 262.55988 
L 437.236364 263.052792 
L 441.294545 263.524536 
L 445.352727 263.976624 
L 449.410909 264.406032 
L 453.469091 264.808224 
L 457.527273 265.1832 
L 461.585455 265.53096 
L 465.643636 265.845456 
L 469.701818 266.1282 
L 473.76 266.376168 
L 477.818182 266.58936 
L 481.876364 266.764752 
L 485.934545 266.902344 
L 489.992727 267.002136 
L 494.050909 267.061104 
L 498.109091 267.08076 
" clip-path="url(#pf9120d4d14)" style="fill: none; stroke: #000000; stroke-opacity: 0.5; stroke-linecap: square"/>
   </g>
   <g id="line2d_19">
    <path d="M 92.290909 222.74892 
L 96.349091 222.761016 
L 100.407273 222.795792 
L 104.465455 222.853248 
L 108.523636 222.933384 
L 112.581818 223.0362 
L 116.64 223.160184 
L 120.698182 223.30836 
L 124.756364 223.477704 
L 128.814545 223.666704 
L 132.872727 223.878384 
L 136.930909 224.10972 
L 140.989091 224.3592 
L 145.047273 224.628336 
L 149.105455 224.914104 
L 153.163636 225.21348 
L 157.221818 225.526464 
L 161.28 225.842472 
L 165.338182 226.146384 
L 169.396364 226.39284 
L 173.454545 226.444248 
L 177.512727 226.15092 
L 181.570909 225.648936 
L 185.629091 225.086472 
L 189.687273 224.513424 
L 193.745455 223.95096 
L 197.803636 223.40664 
L 201.861818 222.885 
L 205.92 222.390576 
L 209.978182 221.926392 
L 214.036364 221.496984 
L 218.094545 221.102352 
L 222.152727 220.74552 
L 226.210909 220.429512 
L 230.269091 220.15584 
L 234.327273 219.926016 
L 238.385455 219.74004 
L 242.443636 219.602448 
L 246.501818 219.51324 
L 250.56 219.472416 
L 254.618182 219.479976 
L 258.676364 219.537432 
L 262.734545 219.646296 
L 266.792727 219.802032 
L 270.850909 220.007664 
L 274.909091 220.26168 
L 278.967273 220.559544 
L 283.025455 220.90428 
L 287.083636 221.28984 
L 291.141818 221.717736 
L 295.2 222.18192 
L 299.258182 222.683904 
L 303.316364 223.21764 
L 307.374545 223.781616 
L 311.432727 224.372808 
L 315.490909 224.989704 
L 319.549091 225.626256 
L 323.607273 226.282464 
L 327.665455 226.955304 
L 331.723636 227.64024 
L 335.781818 228.334248 
L 339.84 229.035816 
L 343.898182 229.743432 
L 347.956364 230.45256 
L 352.014545 231.160176 
L 356.072727 231.864768 
L 360.130909 232.566336 
L 364.189091 233.258832 
L 368.247273 233.940744 
L 372.305455 234.613584 
L 376.363636 235.271304 
L 380.421818 235.915416 
L 384.48 236.542896 
L 388.538182 237.152232 
L 392.596364 237.743424 
L 396.654545 238.313448 
L 400.712727 238.863816 
L 404.770909 239.391504 
L 408.829091 239.898024 
L 412.887273 240.381864 
L 416.945455 240.841512 
L 421.003636 241.27848 
L 425.061818 241.692768 
L 429.12 242.081352 
L 433.178182 242.448768 
L 437.236364 242.791992 
L 441.294545 243.111024 
L 445.352727 243.407376 
L 449.410909 243.681048 
L 453.469091 243.930528 
L 457.527273 244.15884 
L 461.585455 244.364472 
L 465.643636 244.547424 
L 469.701818 244.707696 
L 473.76 244.8468 
L 477.818182 244.964736 
L 481.876364 245.061504 
L 485.934545 245.135592 
L 489.992727 245.188512 
L 494.050909 245.220264 
L 498.109091 245.230848 
" clip-path="url(#pf9120d4d14)" style="fill: none; stroke: #000000; stroke-opacity: 0.5; stroke-linecap: square"/>
   </g>
   <g id="line2d_20">
    <path d="M 92.290909 171.003744 
L 96.349091 171.005256 
L 100.407273 171.009792 
L 104.465455 171.01584 
L 108.523636 171.021888 
L 112.581818 171.029448 
L 116.64 171.033984 
L 120.698182 171.035496 
L 124.756364 171.032472 
L 128.814545 171.020376 
L 132.872727 171.00072 
L 136.930909 170.97048 
L 140.989091 170.926632 
L 145.047273 170.869176 
L 149.105455 170.7966 
L 153.163636 170.70588 
L 157.221818 170.598528 
L 161.28 170.473032 
L 165.338182 170.329392 
L 169.396364 170.167608 
L 173.454545 169.986168 
L 177.512727 169.789608 
L 181.570909 169.577928 
L 185.629091 169.351128 
L 189.687273 169.115256 
L 193.745455 168.871824 
L 197.803636 168.625368 
L 201.861818 168.380424 
L 205.92 168.14304 
L 209.978182 167.919264 
L 214.036364 167.716656 
L 218.094545 167.53824 
L 222.152727 167.393088 
L 226.210909 167.282712 
L 230.269091 167.208624 
L 234.327273 167.169312 
L 238.385455 167.16024 
L 242.443636 167.178384 
L 246.501818 167.21316 
L 250.56 167.260032 
L 254.618182 167.306904 
L 258.676364 167.350752 
L 262.734545 167.380992 
L 266.792727 167.393088 
L 270.850909 167.384016 
L 274.909091 167.347728 
L 278.967273 167.2812 
L 283.025455 167.18292 
L 287.083636 167.051376 
L 291.141818 166.885056 
L 295.2 166.68396 
L 299.258182 166.446576 
L 303.316364 166.174416 
L 307.374545 165.86748 
L 311.432727 165.525768 
L 315.490909 165.153816 
L 319.549091 164.7486 
L 323.607273 164.314656 
L 327.665455 163.851984 
L 331.723636 163.36512 
L 335.781818 162.854064 
L 339.84 162.323352 
L 343.898182 161.779032 
L 347.956364 161.227152 
L 352.014545 160.682832 
L 356.072727 160.165728 
L 360.130909 159.712128 
L 364.189091 159.376464 
L 368.247273 159.20712 
L 372.305455 159.205608 
L 376.363636 159.32808 
L 380.421818 159.52464 
L 384.48 159.760512 
L 388.538182 160.01604 
L 392.596364 160.279128 
L 396.654545 160.546752 
L 400.712727 160.811352 
L 404.770909 161.071416 
L 408.829091 161.32392 
L 412.887273 161.570376 
L 416.945455 161.80776 
L 421.003636 162.036072 
L 425.061818 162.2538 
L 429.12 162.460944 
L 433.178182 162.659016 
L 437.236364 162.844992 
L 441.294545 163.018872 
L 445.352727 163.18368 
L 449.410909 163.33488 
L 453.469091 163.475496 
L 457.527273 163.604016 
L 461.585455 163.72044 
L 465.643636 163.824768 
L 469.701818 163.917 
L 473.76 163.997136 
L 477.818182 164.065176 
L 481.876364 164.12112 
L 485.934545 164.164968 
L 489.992727 164.195208 
L 494.050909 164.214864 
L 498.109091 164.220912 
" clip-path="url(#pf9120d4d14)" style="fill: none; stroke: #000000; stroke-opacity: 0.5; stroke-linecap: square"/>
   </g>
   <g id="line2d_21">
    <path d="M 92.290909 146.648448 
L 96.349091 146.637864 
L 100.407273 146.609136 
L 104.465455 146.565288 
L 108.523636 146.509344 
L 112.581818 146.450376 
L 116.64 146.397456 
L 120.698182 146.356632 
L 124.756364 146.34 
L 128.814545 146.356632 
L 132.872727 146.414088 
L 136.930909 146.518416 
L 140.989091 146.675664 
L 145.047273 146.882808 
L 149.105455 147.144384 
L 153.163636 147.454344 
L 157.221818 147.811176 
L 161.28 148.208832 
L 165.338182 148.641264 
L 169.396364 149.103936 
L 173.454545 149.587776 
L 177.512727 150.088248 
L 181.570909 150.594768 
L 185.629091 151.101288 
L 189.687273 151.600248 
L 193.745455 152.079552 
L 197.803636 152.533152 
L 201.861818 152.950464 
L 205.92 153.320904 
L 209.978182 153.633888 
L 214.036364 153.878832 
L 218.094545 154.046664 
L 222.152727 154.129824 
L 226.210909 154.11924 
L 230.269091 154.011888 
L 234.327273 153.806256 
L 238.385455 153.503856 
L 242.443636 153.110736 
L 246.501818 152.62992 
L 250.56 152.068968 
L 254.618182 151.438464 
L 258.676364 150.744456 
L 262.734545 149.99904 
L 266.792727 149.221872 
L 270.850909 148.476456 
L 274.909091 148.03344 
L 278.967273 148.183128 
L 283.025455 148.567176 
L 287.083636 149.004144 
L 291.141818 149.460768 
L 295.2 149.921928 
L 299.258182 150.3846 
L 303.316364 150.847272 
L 307.374545 151.305408 
L 311.432727 151.762032 
L 315.490909 152.212608 
L 319.549091 152.657136 
L 323.607273 153.094104 
L 327.665455 153.522 
L 331.723636 153.940824 
L 335.781818 154.34604 
L 339.84 154.736136 
L 343.898182 155.106576 
L 347.956364 155.4498 
L 352.014545 155.753712 
L 356.072727 155.998656 
L 360.130909 156.146832 
L 364.189091 156.14532 
L 368.247273 155.947248 
L 372.305455 155.549592 
L 376.363636 154.999224 
L 380.421818 154.34604 
L 384.48 153.623304 
L 388.538182 152.852184 
L 392.596364 152.044776 
L 396.654545 151.207128 
L 400.712727 150.343776 
L 404.770909 149.459256 
L 408.829091 148.553568 
L 412.887273 147.629736 
L 416.945455 146.689272 
L 421.003636 145.732176 
L 425.061818 144.761472 
L 429.12 143.77716 
L 433.178182 142.780752 
L 437.236364 141.772248 
L 441.294545 140.756184 
L 445.352727 139.731048 
L 449.410909 138.699864 
L 453.469091 137.665656 
L 457.527273 136.629936 
L 461.585455 135.598752 
L 465.643636 134.57664 
L 469.701818 133.569648 
L 473.76 132.591384 
L 477.818182 131.655456 
L 481.876364 130.786056 
L 485.934545 130.016448 
L 489.992727 129.396528 
L 494.050909 128.985264 
L 498.109091 128.840112 
" clip-path="url(#pf9120d4d14)" style="fill: none; stroke: #000000; stroke-opacity: 0.5; stroke-linecap: square"/>
   </g>
   <g id="line2d_22">
    <path d="M 92.290909 138.011904 
L 96.349091 138.002832 
L 100.407273 137.97108 
L 104.465455 137.916648 
L 108.523636 137.835 
L 112.581818 137.7216 
L 116.64 137.571912 
L 120.698182 137.376864 
L 124.756364 137.13192 
L 128.814545 136.82952 
L 132.872727 136.46664 
L 136.930909 136.04328 
L 140.989091 135.560952 
L 145.047273 135.031752 
L 149.105455 134.505576 
L 153.163636 134.1684 
L 157.221818 134.292384 
L 161.28 134.668872 
L 165.338182 135.107352 
L 169.396364 135.562464 
L 173.454545 136.0206 
L 177.512727 136.475712 
L 181.570909 136.926288 
L 185.629091 137.375352 
L 189.687273 137.818368 
L 193.745455 138.261384 
L 197.803636 138.701376 
L 201.861818 139.139856 
L 205.92 139.579848 
L 209.978182 140.01984 
L 214.036364 140.462856 
L 218.094545 140.907384 
L 222.152727 141.353424 
L 226.210909 141.802488 
L 230.269091 142.254576 
L 234.327273 142.709688 
L 238.385455 143.167824 
L 242.443636 143.627472 
L 246.501818 144.090144 
L 250.56 144.552816 
L 254.618182 145.015488 
L 258.676364 145.476648 
L 262.734545 145.927224 
L 266.792727 146.356632 
L 270.850909 146.704392 
L 274.909091 146.705904 
L 278.967273 146.070864 
L 283.025455 145.163664 
L 287.083636 144.164232 
L 291.141818 143.114904 
L 295.2 142.026264 
L 299.258182 140.905872 
L 303.316364 139.758264 
L 307.374545 138.58344 
L 311.432727 137.385936 
L 315.490909 136.167264 
L 319.549091 134.927424 
L 323.607273 133.670952 
L 327.665455 132.396336 
L 331.723636 131.1066 
L 335.781818 129.803256 
L 339.84 128.486304 
L 343.898182 127.155744 
L 347.956364 125.816112 
L 352.014545 124.464384 
L 356.072727 123.105096 
L 360.130909 121.738248 
L 364.189091 120.365352 
L 368.247273 118.989432 
L 372.305455 117.610488 
L 376.363636 116.23608 
L 380.421818 114.879816 
L 384.48 113.579496 
L 388.538182 112.504464 
L 392.596364 112.114368 
L 396.654545 112.2444 
L 400.712727 112.50144 
L 404.770909 112.787208 
L 408.829091 113.076 
L 412.887273 113.361768 
L 416.945455 113.639976 
L 421.003636 113.9076 
L 425.061818 114.166152 
L 429.12 114.417144 
L 433.178182 114.657552 
L 437.236364 114.8904 
L 441.294545 115.115688 
L 445.352727 115.33644 
L 449.410909 115.554168 
L 453.469091 115.77492 
L 457.527273 116.003232 
L 461.585455 116.246664 
L 465.643636 116.520336 
L 469.701818 116.837856 
L 473.76 117.215856 
L 477.818182 117.66492 
L 481.876364 118.172952 
L 485.934545 118.696104 
L 489.992727 119.163312 
L 494.050909 119.491416 
L 498.109091 119.612376 
" clip-path="url(#pf9120d4d14)" style="fill: none; stroke: #000000; stroke-opacity: 0.5; stroke-linecap: square"/>
   </g>
   <g id="line2d_23">
    <path d="M 92.290909 127.972224 
L 96.349091 128.008512 
L 100.407273 128.11284 
L 104.465455 128.283696 
L 108.523636 128.519568 
L 112.581818 128.811384 
L 116.64 129.153096 
L 120.698182 129.540168 
L 124.756364 129.962016 
L 128.814545 130.412592 
L 132.872727 130.881312 
L 136.930909 131.362128 
L 140.989091 131.844456 
L 145.047273 132.307128 
L 149.105455 132.70176 
L 153.163636 132.842376 
L 157.221818 132.453792 
L 161.28 131.7492 
L 165.338182 130.919112 
L 169.396364 130.016448 
L 173.454545 129.054816 
L 177.512727 128.046312 
L 181.570909 126.992448 
L 185.629091 125.899272 
L 189.687273 124.769808 
L 193.745455 123.605568 
L 197.803636 122.409576 
L 201.861818 121.181832 
L 205.92 119.926872 
L 209.978182 118.644696 
L 214.036364 117.336816 
L 218.094545 116.004744 
L 222.152727 114.64848 
L 226.210909 113.271048 
L 230.269091 111.872448 
L 234.327273 110.455704 
L 238.385455 109.017792 
L 242.443636 107.563248 
L 246.501818 106.092072 
L 250.56 104.607288 
L 254.618182 103.108896 
L 258.676364 101.601432 
L 262.734545 100.093968 
L 266.792727 98.604648 
L 270.850909 97.209072 
L 274.909091 96.27768 
L 278.967273 96.392592 
L 283.025455 96.971688 
L 287.083636 97.643016 
L 291.141818 98.334 
L 295.2 99.024984 
L 299.258182 99.706896 
L 303.316364 100.378224 
L 307.374545 101.037456 
L 311.432727 101.68308 
L 315.490909 102.315096 
L 319.549091 102.931992 
L 323.607273 103.53528 
L 327.665455 104.12496 
L 331.723636 104.698008 
L 335.781818 105.257448 
L 339.84 105.801768 
L 343.898182 106.330968 
L 347.956364 106.845048 
L 352.014545 107.344008 
L 356.072727 107.827848 
L 360.130909 108.296568 
L 364.189091 108.748656 
L 368.247273 109.184112 
L 372.305455 109.599912 
L 376.363636 109.99152 
L 380.421818 110.34684 
L 384.48 110.628072 
L 388.538182 110.667384 
L 392.596364 110.005128 
L 396.654545 108.810648 
L 400.712727 107.475552 
L 404.770909 106.102656 
L 408.829091 104.720688 
L 412.887273 103.34628 
L 416.945455 102.0006 
L 421.003636 100.74564 
L 425.061818 99.839952 
L 429.12 100.016856 
L 433.178182 101.03292 
L 437.236364 102.251592 
L 441.294545 103.515624 
L 445.352727 104.78268 
L 449.410909 106.033104 
L 453.469091 107.256312 
L 457.527273 108.440208 
L 461.585455 109.571184 
L 465.643636 110.629584 
L 469.701818 111.591216 
L 473.76 112.428864 
L 477.818182 113.116824 
L 481.876364 113.643 
L 485.934545 114.017976 
L 489.992727 114.26292 
L 494.050909 114.400512 
L 498.109091 114.44436 
" clip-path="url(#pf9120d4d14)" style="fill: none; stroke: #000000; stroke-opacity: 0.5; stroke-linecap: square"/>
   </g>
   <g id="patch_3">
    <path d="M 72 384.48 
L 72 51.84 
" style="fill: none; stroke: #000000; stroke-width: 0.8; stroke-linejoin: miter; stroke-linecap: square"/>
   </g>
   <g id="patch_4">
    <path d="M 518.4 384.48 
L 518.4 51.84 
" style="fill: none; stroke: #000000; stroke-width: 0.8; stroke-linejoin: miter; stroke-linecap: square"/>
   </g>
   <g id="patch_5">
    <path d="M 72 384.48 
L 518.4 384.48 
" style="fill: none; stroke: #000000; stroke-width: 0.8; stroke-linejoin: miter; stroke-linecap: square"/>
   </g>
   <g id="patch_6">
    <path d="M 72 51.84 
L 518.4 51.84 
" style="fill: none; stroke: #000000; stroke-width: 0.8; stroke-linejoin: miter; stroke-linecap: square"/>
   </g>
  </g>
 </g>
 <defs>
  <clipPath id="pf9120d4d14">
   <rect x="72" y="51.84" width="446.4" height="332.64"/>
  </clipPath>
 </defs>
</svg>
