<?xml version="1.0" encoding="utf-8" standalone="no"?>
<!DOCTYPE svg PUBLIC "-//W3C//DTD SVG 1.1//EN"
  "http://www.w3.org/Graphics/SVG/1.1/DTD/svg11.dtd">
<svg xmlns:xlink="http://www.w3.org/1999/xlink" width="576pt" height="432pt" viewBox="0 0 576 432" xmlns="http://www.w3.org/2000/svg" version="1.1">
 <metadata>
  <rdf:RDF xmlns:dc="http://purl.org/dc/elements/1.1/" xmlns:cc="http://creativecommons.org/ns#" xmlns:rdf="http://www.w3.org/1999/02/22-rdf-syntax-ns#">
   <cc:Work>
    <dc:type rdf:resource="http://purl.org/dc/dcmitype/StillImage"/>
    <dc:date>2023-05-02T19:17:43.451965</dc:date>
    <dc:format>image/svg+xml</dc:format>
    <dc:creator>
     <cc:Agent>
      <dc:title>Matplotlib v3.7.1, https://matplotlib.org/</dc:title>
     </cc:Agent>
    </dc:creator>
   </cc:Work>
  </rdf:RDF>
 </metadata>
 <defs>
  <style type="text/css">*{stroke-linejoin: round; stroke-linecap: butt}</style>
 </defs>
 <g id="figure_1">
  <g id="patch_1">
   <path d="M 0 432 
L 576 432 
L 576 0 
L 0 0 
z
" style="fill: #ffffff"/>
  </g>
  <g id="axes_1">
   <g id="patch_2">
    <path d="M 72 384.48 
L 518.4 384.48 
L 518.4 51.84 
L 72 51.84 
z
" style="fill: #ffffff"/>
   </g>
   <g id="matplotlib.axis_1">
    <g id="xtick_1">
     <g id="line2d_1">
      <defs>
       <path id="mc6a844caa1" d="M 0 0 
L 0 3.5 
" style="stroke: #000000; stroke-width: 0.8"/>
      </defs>
      <g>
       <use xlink:href="#mc6a844caa1" x="92.290909" y="384.48" style="stroke: #000000; stroke-width: 0.8"/>
      </g>
     </g>
     <g id="text_1">
      <!-- 0.0 -->
      <g transform="translate(84.339347 399.078438) scale(0.1 -0.1)">
       <defs>
        <path id="DejaVuSans-30" d="M 2034 4250 
Q 1547 4250 1301 3770 
Q 1056 3291 1056 2328 
Q 1056 1369 1301 889 
Q 1547 409 2034 409 
Q 2525 409 2770 889 
Q 3016 1369 3016 2328 
Q 3016 3291 2770 3770 
Q 2525 4250 2034 4250 
z
M 2034 4750 
Q 2819 4750 3233 4129 
Q 3647 3509 3647 2328 
Q 3647 1150 3233 529 
Q 2819 -91 2034 -91 
Q 1250 -91 836 529 
Q 422 1150 422 2328 
Q 422 3509 836 4129 
Q 1250 4750 2034 4750 
z
" transform="scale(0.015625)"/>
        <path id="DejaVuSans-2e" d="M 684 794 
L 1344 794 
L 1344 0 
L 684 0 
L 684 794 
z
" transform="scale(0.015625)"/>
       </defs>
       <use xlink:href="#DejaVuSans-30"/>
       <use xlink:href="#DejaVuSans-2e" x="63.623047"/>
       <use xlink:href="#DejaVuSans-30" x="95.410156"/>
      </g>
     </g>
    </g>
    <g id="xtick_2">
     <g id="line2d_2">
      <g>
       <use xlink:href="#mc6a844caa1" x="173.454545" y="384.48" style="stroke: #000000; stroke-width: 0.8"/>
      </g>
     </g>
     <g id="text_2">
      <!-- 0.2 -->
      <g transform="translate(165.502983 399.078438) scale(0.1 -0.1)">
       <defs>
        <path id="DejaVuSans-32" d="M 1228 531 
L 3431 531 
L 3431 0 
L 469 0 
L 469 531 
Q 828 903 1448 1529 
Q 2069 2156 2228 2338 
Q 2531 2678 2651 2914 
Q 2772 3150 2772 3378 
Q 2772 3750 2511 3984 
Q 2250 4219 1831 4219 
Q 1534 4219 1204 4116 
Q 875 4013 500 3803 
L 500 4441 
Q 881 4594 1212 4672 
Q 1544 4750 1819 4750 
Q 2544 4750 2975 4387 
Q 3406 4025 3406 3419 
Q 3406 3131 3298 2873 
Q 3191 2616 2906 2266 
Q 2828 2175 2409 1742 
Q 1991 1309 1228 531 
z
" transform="scale(0.015625)"/>
       </defs>
       <use xlink:href="#DejaVuSans-30"/>
       <use xlink:href="#DejaVuSans-2e" x="63.623047"/>
       <use xlink:href="#DejaVuSans-32" x="95.410156"/>
      </g>
     </g>
    </g>
    <g id="xtick_3">
     <g id="line2d_3">
      <g>
       <use xlink:href="#mc6a844caa1" x="254.618182" y="384.48" style="stroke: #000000; stroke-width: 0.8"/>
      </g>
     </g>
     <g id="text_3">
      <!-- 0.4 -->
      <g transform="translate(246.666619 399.078438) scale(0.1 -0.1)">
       <defs>
        <path id="DejaVuSans-34" d="M 2419 4116 
L 825 1625 
L 2419 1625 
L 2419 4116 
z
M 2253 4666 
L 3047 4666 
L 3047 1625 
L 3713 1625 
L 3713 1100 
L 3047 1100 
L 3047 0 
L 2419 0 
L 2419 1100 
L 313 1100 
L 313 1709 
L 2253 4666 
z
" transform="scale(0.015625)"/>
       </defs>
       <use xlink:href="#DejaVuSans-30"/>
       <use xlink:href="#DejaVuSans-2e" x="63.623047"/>
       <use xlink:href="#DejaVuSans-34" x="95.410156"/>
      </g>
     </g>
    </g>
    <g id="xtick_4">
     <g id="line2d_4">
      <g>
       <use xlink:href="#mc6a844caa1" x="335.781818" y="384.48" style="stroke: #000000; stroke-width: 0.8"/>
      </g>
     </g>
     <g id="text_4">
      <!-- 0.6 -->
      <g transform="translate(327.830256 399.078438) scale(0.1 -0.1)">
       <defs>
        <path id="DejaVuSans-36" d="M 2113 2584 
Q 1688 2584 1439 2293 
Q 1191 2003 1191 1497 
Q 1191 994 1439 701 
Q 1688 409 2113 409 
Q 2538 409 2786 701 
Q 3034 994 3034 1497 
Q 3034 2003 2786 2293 
Q 2538 2584 2113 2584 
z
M 3366 4563 
L 3366 3988 
Q 3128 4100 2886 4159 
Q 2644 4219 2406 4219 
Q 1781 4219 1451 3797 
Q 1122 3375 1075 2522 
Q 1259 2794 1537 2939 
Q 1816 3084 2150 3084 
Q 2853 3084 3261 2657 
Q 3669 2231 3669 1497 
Q 3669 778 3244 343 
Q 2819 -91 2113 -91 
Q 1303 -91 875 529 
Q 447 1150 447 2328 
Q 447 3434 972 4092 
Q 1497 4750 2381 4750 
Q 2619 4750 2861 4703 
Q 3103 4656 3366 4563 
z
" transform="scale(0.015625)"/>
       </defs>
       <use xlink:href="#DejaVuSans-30"/>
       <use xlink:href="#DejaVuSans-2e" x="63.623047"/>
       <use xlink:href="#DejaVuSans-36" x="95.410156"/>
      </g>
     </g>
    </g>
    <g id="xtick_5">
     <g id="line2d_5">
      <g>
       <use xlink:href="#mc6a844caa1" x="416.945455" y="384.48" style="stroke: #000000; stroke-width: 0.8"/>
      </g>
     </g>
     <g id="text_5">
      <!-- 0.8 -->
      <g transform="translate(408.993892 399.078438) scale(0.1 -0.1)">
       <defs>
        <path id="DejaVuSans-38" d="M 2034 2216 
Q 1584 2216 1326 1975 
Q 1069 1734 1069 1313 
Q 1069 891 1326 650 
Q 1584 409 2034 409 
Q 2484 409 2743 651 
Q 3003 894 3003 1313 
Q 3003 1734 2745 1975 
Q 2488 2216 2034 2216 
z
M 1403 2484 
Q 997 2584 770 2862 
Q 544 3141 544 3541 
Q 544 4100 942 4425 
Q 1341 4750 2034 4750 
Q 2731 4750 3128 4425 
Q 3525 4100 3525 3541 
Q 3525 3141 3298 2862 
Q 3072 2584 2669 2484 
Q 3125 2378 3379 2068 
Q 3634 1759 3634 1313 
Q 3634 634 3220 271 
Q 2806 -91 2034 -91 
Q 1263 -91 848 271 
Q 434 634 434 1313 
Q 434 1759 690 2068 
Q 947 2378 1403 2484 
z
M 1172 3481 
Q 1172 3119 1398 2916 
Q 1625 2713 2034 2713 
Q 2441 2713 2670 2916 
Q 2900 3119 2900 3481 
Q 2900 3844 2670 4047 
Q 2441 4250 2034 4250 
Q 1625 4250 1398 4047 
Q 1172 3844 1172 3481 
z
" transform="scale(0.015625)"/>
       </defs>
       <use xlink:href="#DejaVuSans-30"/>
       <use xlink:href="#DejaVuSans-2e" x="63.623047"/>
       <use xlink:href="#DejaVuSans-38" x="95.410156"/>
      </g>
     </g>
    </g>
    <g id="xtick_6">
     <g id="line2d_6">
      <g>
       <use xlink:href="#mc6a844caa1" x="498.109091" y="384.48" style="stroke: #000000; stroke-width: 0.8"/>
      </g>
     </g>
     <g id="text_6">
      <!-- 1.0 -->
      <g transform="translate(490.157528 399.078438) scale(0.1 -0.1)">
       <defs>
        <path id="DejaVuSans-31" d="M 794 531 
L 1825 531 
L 1825 4091 
L 703 3866 
L 703 4441 
L 1819 4666 
L 2450 4666 
L 2450 531 
L 3481 531 
L 3481 0 
L 794 0 
L 794 531 
z
" transform="scale(0.015625)"/>
       </defs>
       <use xlink:href="#DejaVuSans-31"/>
       <use xlink:href="#DejaVuSans-2e" x="63.623047"/>
       <use xlink:href="#DejaVuSans-30" x="95.410156"/>
      </g>
     </g>
    </g>
   </g>
   <g id="matplotlib.axis_2">
    <g id="ytick_1">
     <g id="line2d_7">
      <defs>
       <path id="mb45ecca1fd" d="M 0 0 
L -3.5 0 
" style="stroke: #000000; stroke-width: 0.8"/>
      </defs>
      <g>
       <use xlink:href="#mb45ecca1fd" x="72" y="369.36" style="stroke: #000000; stroke-width: 0.8"/>
      </g>
     </g>
     <g id="text_7">
      <!-- −5.0 -->
      <g transform="translate(40.717187 373.159219) scale(0.1 -0.1)">
       <defs>
        <path id="DejaVuSans-2212" d="M 678 2272 
L 4684 2272 
L 4684 1741 
L 678 1741 
L 678 2272 
z
" transform="scale(0.015625)"/>
        <path id="DejaVuSans-35" d="M 691 4666 
L 3169 4666 
L 3169 4134 
L 1269 4134 
L 1269 2991 
Q 1406 3038 1543 3061 
Q 1681 3084 1819 3084 
Q 2600 3084 3056 2656 
Q 3513 2228 3513 1497 
Q 3513 744 3044 326 
Q 2575 -91 1722 -91 
Q 1428 -91 1123 -41 
Q 819 9 494 109 
L 494 744 
Q 775 591 1075 516 
Q 1375 441 1709 441 
Q 2250 441 2565 725 
Q 2881 1009 2881 1497 
Q 2881 1984 2565 2268 
Q 2250 2553 1709 2553 
Q 1456 2553 1204 2497 
Q 953 2441 691 2322 
L 691 4666 
z
" transform="scale(0.015625)"/>
       </defs>
       <use xlink:href="#DejaVuSans-2212"/>
       <use xlink:href="#DejaVuSans-35" x="83.789062"/>
       <use xlink:href="#DejaVuSans-2e" x="147.412109"/>
       <use xlink:href="#DejaVuSans-30" x="179.199219"/>
      </g>
     </g>
    </g>
    <g id="ytick_2">
     <g id="line2d_8">
      <g>
       <use xlink:href="#mb45ecca1fd" x="72" y="331.56" style="stroke: #000000; stroke-width: 0.8"/>
      </g>
     </g>
     <g id="text_8">
      <!-- −2.5 -->
      <g transform="translate(40.717187 335.359219) scale(0.1 -0.1)">
       <use xlink:href="#DejaVuSans-2212"/>
       <use xlink:href="#DejaVuSans-32" x="83.789062"/>
       <use xlink:href="#DejaVuSans-2e" x="147.412109"/>
       <use xlink:href="#DejaVuSans-35" x="179.199219"/>
      </g>
     </g>
    </g>
    <g id="ytick_3">
     <g id="line2d_9">
      <g>
       <use xlink:href="#mb45ecca1fd" x="72" y="293.76" style="stroke: #000000; stroke-width: 0.8"/>
      </g>
     </g>
     <g id="text_9">
      <!-- 0.0 -->
      <g transform="translate(49.096875 297.559219) scale(0.1 -0.1)">
       <use xlink:href="#DejaVuSans-30"/>
       <use xlink:href="#DejaVuSans-2e" x="63.623047"/>
       <use xlink:href="#DejaVuSans-30" x="95.410156"/>
      </g>
     </g>
    </g>
    <g id="ytick_4">
     <g id="line2d_10">
      <g>
       <use xlink:href="#mb45ecca1fd" x="72" y="255.96" style="stroke: #000000; stroke-width: 0.8"/>
      </g>
     </g>
     <g id="text_10">
      <!-- 2.5 -->
      <g transform="translate(49.096875 259.759219) scale(0.1 -0.1)">
       <use xlink:href="#DejaVuSans-32"/>
       <use xlink:href="#DejaVuSans-2e" x="63.623047"/>
       <use xlink:href="#DejaVuSans-35" x="95.410156"/>
      </g>
     </g>
    </g>
    <g id="ytick_5">
     <g id="line2d_11">
      <g>
       <use xlink:href="#mb45ecca1fd" x="72" y="218.16" style="stroke: #000000; stroke-width: 0.8"/>
      </g>
     </g>
     <g id="text_11">
      <!-- 5.0 -->
      <g transform="translate(49.096875 221.959219) scale(0.1 -0.1)">
       <use xlink:href="#DejaVuSans-35"/>
       <use xlink:href="#DejaVuSans-2e" x="63.623047"/>
       <use xlink:href="#DejaVuSans-30" x="95.410156"/>
      </g>
     </g>
    </g>
    <g id="ytick_6">
     <g id="line2d_12">
      <g>
       <use xlink:href="#mb45ecca1fd" x="72" y="180.36" style="stroke: #000000; stroke-width: 0.8"/>
      </g>
     </g>
     <g id="text_12">
      <!-- 7.5 -->
      <g transform="translate(49.096875 184.159219) scale(0.1 -0.1)">
       <defs>
        <path id="DejaVuSans-37" d="M 525 4666 
L 3525 4666 
L 3525 4397 
L 1831 0 
L 1172 0 
L 2766 4134 
L 525 4134 
L 525 4666 
z
" transform="scale(0.015625)"/>
       </defs>
       <use xlink:href="#DejaVuSans-37"/>
       <use xlink:href="#DejaVuSans-2e" x="63.623047"/>
       <use xlink:href="#DejaVuSans-35" x="95.410156"/>
      </g>
     </g>
    </g>
    <g id="ytick_7">
     <g id="line2d_13">
      <g>
       <use xlink:href="#mb45ecca1fd" x="72" y="142.56" style="stroke: #000000; stroke-width: 0.8"/>
      </g>
     </g>
     <g id="text_13">
      <!-- 10.0 -->
      <g transform="translate(42.734375 146.359219) scale(0.1 -0.1)">
       <use xlink:href="#DejaVuSans-31"/>
       <use xlink:href="#DejaVuSans-30" x="63.623047"/>
       <use xlink:href="#DejaVuSans-2e" x="127.246094"/>
       <use xlink:href="#DejaVuSans-30" x="159.033203"/>
      </g>
     </g>
    </g>
    <g id="ytick_8">
     <g id="line2d_14">
      <g>
       <use xlink:href="#mb45ecca1fd" x="72" y="104.76" style="stroke: #000000; stroke-width: 0.8"/>
      </g>
     </g>
     <g id="text_14">
      <!-- 12.5 -->
      <g transform="translate(42.734375 108.559219) scale(0.1 -0.1)">
       <use xlink:href="#DejaVuSans-31"/>
       <use xlink:href="#DejaVuSans-32" x="63.623047"/>
       <use xlink:href="#DejaVuSans-2e" x="127.246094"/>
       <use xlink:href="#DejaVuSans-35" x="159.033203"/>
      </g>
     </g>
    </g>
    <g id="ytick_9">
     <g id="line2d_15">
      <g>
       <use xlink:href="#mb45ecca1fd" x="72" y="66.96" style="stroke: #000000; stroke-width: 0.8"/>
      </g>
     </g>
     <g id="text_15">
      <!-- 15.0 -->
      <g transform="translate(42.734375 70.759219) scale(0.1 -0.1)">
       <use xlink:href="#DejaVuSans-31"/>
       <use xlink:href="#DejaVuSans-35" x="63.623047"/>
       <use xlink:href="#DejaVuSans-2e" x="127.246094"/>
       <use xlink:href="#DejaVuSans-30" x="159.033203"/>
      </g>
     </g>
    </g>
   </g>
   <g id="line2d_16">
    <path d="M 92.290909 378.286848 
L 96.349091 378.2808 
L 100.407273 378.261144 
L 104.465455 378.229392 
L 108.523636 378.185544 
L 112.581818 378.128088 
L 116.64 378.058536 
L 120.698182 377.975376 
L 124.756364 377.88012 
L 128.814545 377.772768 
L 132.872727 377.651808 
L 136.930909 377.518752 
L 140.989091 377.3736 
L 145.047273 377.21484 
L 149.105455 377.042472 
L 153.163636 376.85952 
L 157.221818 376.66296 
L 161.28 376.454304 
L 165.338182 376.23204 
L 169.396364 375.99768 
L 173.454545 375.751224 
L 177.512727 375.492672 
L 181.570909 375.220512 
L 185.629091 374.936256 
L 189.687273 374.639904 
L 193.745455 374.329944 
L 197.803636 374.0094 
L 201.861818 373.675248 
L 205.92 373.329 
L 209.978182 372.969144 
L 214.036364 372.598704 
L 218.094545 372.216168 
L 222.152727 371.820024 
L 226.210909 371.411784 
L 230.269091 370.99296 
L 234.327273 370.560528 
L 238.385455 370.116 
L 242.443636 369.659376 
L 246.501818 369.192168 
L 250.56 368.711352 
L 254.618182 368.21844 
L 258.676364 367.714944 
L 262.734545 367.199352 
L 266.792727 366.670152 
L 270.850909 366.13188 
L 274.909091 365.58 
L 278.967273 365.016024 
L 283.025455 364.441464 
L 287.083636 363.85632 
L 291.141818 363.257568 
L 295.2 362.648232 
L 299.258182 362.028312 
L 303.316364 361.396296 
L 307.374545 360.752184 
L 311.432727 360.099 
L 315.490909 359.432208 
L 319.549091 358.756344 
L 323.607273 358.068384 
L 327.665455 357.36984 
L 331.723636 356.660712 
L 335.781818 355.941 
L 339.84 355.210704 
L 343.898182 354.469824 
L 347.956364 353.716848 
L 352.014545 352.9548 
L 356.072727 352.18368 
L 360.130909 351.400464 
L 364.189091 350.608176 
L 368.247273 349.805304 
L 372.305455 348.99336 
L 376.363636 348.170832 
L 380.421818 347.340744 
L 384.48 346.49856 
L 388.538182 345.648816 
L 392.596364 344.79 
L 396.654545 343.9206 
L 400.712727 343.04364 
L 404.770909 342.157608 
L 408.829091 341.264016 
L 412.887273 340.361352 
L 416.945455 339.451128 
L 421.003636 338.533344 
L 425.061818 337.608 
L 429.12 336.675096 
L 433.178182 335.734632 
L 437.236364 334.789632 
L 441.294545 333.837072 
L 445.352727 332.878464 
L 449.410909 331.916832 
L 453.469091 330.950664 
L 457.527273 329.981472 
L 461.585455 329.010768 
L 465.643636 328.040064 
L 469.701818 327.073896 
L 473.76 326.113776 
L 477.818182 325.1718 
L 481.876364 324.25704 
L 485.934545 323.3952 
L 489.992727 322.634664 
L 494.050909 322.070688 
L 498.109091 321.85296 
" clip-path="url(#p4d8c54d35e)" style="fill: none; stroke: #000000; stroke-opacity: 0.5; stroke-linecap: square"/>
   </g>
   <g id="line2d_17">
    <path d="M 92.290909 224.740224 
L 96.349091 224.823384 
L 100.407273 225.068328 
L 104.465455 225.4554 
L 108.523636 225.96192 
L 112.581818 226.563696 
L 116.64 227.241072 
L 120.698182 227.978928 
L 124.756364 228.760632 
L 128.814545 229.578624 
L 132.872727 230.426856 
L 136.930909 231.296256 
L 140.989091 232.1838 
L 145.047273 233.086464 
L 149.105455 234.001224 
L 153.163636 234.925056 
L 157.221818 235.856448 
L 161.28 236.792376 
L 165.338182 237.734352 
L 169.396364 238.679352 
L 173.454545 239.625864 
L 177.512727 240.5754 
L 181.570909 241.524936 
L 185.629091 242.475984 
L 189.687273 243.427032 
L 193.745455 244.376568 
L 197.803636 245.327616 
L 201.861818 246.27564 
L 205.92 247.223664 
L 209.978182 248.170176 
L 214.036364 249.115176 
L 218.094545 250.060176 
L 222.152727 251.002152 
L 226.210909 251.942616 
L 230.269091 252.88308 
L 234.327273 253.82052 
L 238.385455 254.75796 
L 242.443636 255.692376 
L 246.501818 256.628304 
L 250.56 257.561208 
L 254.618182 258.494112 
L 258.676364 259.427016 
L 262.734545 260.358408 
L 266.792727 261.291312 
L 270.850909 262.222704 
L 274.909091 263.155608 
L 278.967273 264.088512 
L 283.025455 265.022928 
L 287.083636 265.958856 
L 291.141818 266.896296 
L 295.2 267.835248 
L 299.258182 268.777224 
L 303.316364 269.720712 
L 307.374545 270.667224 
L 311.432727 271.618272 
L 315.490909 272.570832 
L 319.549091 273.527928 
L 323.607273 274.48956 
L 327.665455 275.454216 
L 331.723636 276.423408 
L 335.781818 277.397136 
L 339.84 278.376912 
L 343.898182 279.359712 
L 347.956364 280.34856 
L 352.014545 281.343456 
L 356.072727 282.342888 
L 360.130909 283.346856 
L 364.189091 284.35536 
L 368.247273 285.369912 
L 372.305455 286.390512 
L 376.363636 287.414136 
L 380.421818 288.443808 
L 384.48 289.478016 
L 388.538182 290.51676 
L 392.596364 291.558528 
L 396.654545 292.604832 
L 400.712727 293.655672 
L 404.770909 294.709536 
L 408.829091 295.764912 
L 412.887273 296.824824 
L 416.945455 297.886248 
L 421.003636 298.949184 
L 425.061818 300.013632 
L 429.12 301.079592 
L 433.178182 302.145552 
L 437.236364 303.211512 
L 441.294545 304.27596 
L 445.352727 305.338896 
L 449.410909 306.40032 
L 453.469091 307.45872 
L 457.527273 308.512584 
L 461.585455 309.558888 
L 465.643636 310.597632 
L 469.701818 311.625792 
L 473.76 312.63732 
L 477.818182 313.626168 
L 481.876364 314.577216 
L 485.934545 315.467784 
L 489.992727 316.249488 
L 494.050909 316.82556 
L 498.109091 317.046312 
" clip-path="url(#p4d8c54d35e)" style="fill: none; stroke: #000000; stroke-opacity: 0.5; stroke-linecap: square"/>
   </g>
   <g id="line2d_18">
    <path d="M 92.290909 214.762536 
L 96.349091 214.699032 
L 100.407273 214.513056 
L 104.465455 214.225776 
L 108.523636 213.861384 
L 112.581818 213.44256 
L 116.64 212.995008 
L 120.698182 212.536872 
L 124.756364 212.083272 
L 128.814545 211.646304 
L 132.872727 211.238064 
L 136.930909 210.867624 
L 140.989091 210.544056 
L 145.047273 210.273408 
L 149.105455 210.060216 
L 153.163636 209.91204 
L 157.221818 210.41856 
L 161.28 210.943224 
L 165.338182 211.483008 
L 169.396364 212.034888 
L 173.454545 212.600376 
L 177.512727 213.174936 
L 181.570909 213.76008 
L 185.629091 214.352784 
L 189.687273 214.950024 
L 193.745455 215.554824 
L 197.803636 216.162648 
L 201.861818 216.775008 
L 205.92 217.38888 
L 209.978182 218.004264 
L 214.036364 218.619648 
L 218.094545 219.235032 
L 222.152727 219.850416 
L 226.210909 220.464288 
L 230.269091 221.076648 
L 234.327273 221.685984 
L 238.385455 222.292296 
L 242.443636 222.894072 
L 246.501818 223.492824 
L 250.56 224.085528 
L 254.618182 224.675208 
L 258.676364 225.25884 
L 262.734545 226.191744 
L 266.792727 227.138256 
L 270.850909 228.08628 
L 274.909091 229.032792 
L 278.967273 229.977792 
L 283.025455 230.919768 
L 287.083636 231.855696 
L 291.141818 232.787088 
L 295.2 233.712432 
L 299.258182 234.628704 
L 303.316364 235.537416 
L 307.374545 236.435544 
L 311.432727 237.323088 
L 315.490909 238.198536 
L 319.549091 239.061888 
L 323.607273 239.913144 
L 327.665455 240.74928 
L 331.723636 241.571808 
L 335.781818 242.377704 
L 339.84 243.16848 
L 343.898182 243.941112 
L 347.956364 244.698624 
L 352.014545 245.437992 
L 356.072727 246.159216 
L 360.130909 246.860784 
L 364.189091 247.544208 
L 368.247273 248.209488 
L 372.305455 248.8536 
L 376.363636 249.479568 
L 380.421818 250.084368 
L 384.48 250.669512 
L 388.538182 251.233488 
L 392.596364 251.776296 
L 396.654545 252.299448 
L 400.712727 252.802944 
L 404.770909 253.28376 
L 408.829091 253.74492 
L 412.887273 254.184912 
L 416.945455 254.603736 
L 421.003636 255.001392 
L 425.061818 255.37788 
L 429.12 255.734712 
L 433.178182 256.070376 
L 437.236364 256.384872 
L 441.294545 256.679712 
L 445.352727 256.953384 
L 449.410909 257.205888 
L 453.469091 257.438736 
L 457.527273 257.650416 
L 461.585455 257.84244 
L 465.643636 258.013296 
L 469.701818 258.164496 
L 473.76 258.29604 
L 477.818182 258.406416 
L 481.876364 258.497136 
L 485.934545 258.566688 
L 489.992727 258.618096 
L 494.050909 258.648336 
L 498.109091 258.657408 
" clip-path="url(#p4d8c54d35e)" style="fill: none; stroke: #000000; stroke-opacity: 0.5; stroke-linecap: square"/>
   </g>
   <g id="line2d_19">
    <path d="M 92.290909 205.689024 
L 96.349091 205.711704 
L 100.407273 205.775208 
L 104.465455 205.881048 
L 108.523636 206.029224 
L 112.581818 206.216712 
L 116.64 206.442 
L 120.698182 206.705088 
L 124.756364 207.004464 
L 128.814545 207.335592 
L 132.872727 207.699984 
L 136.930909 208.091592 
L 140.989091 208.511928 
L 145.047273 208.956456 
L 149.105455 209.423664 
L 153.163636 209.91204 
L 157.221818 209.830392 
L 161.28 209.818296 
L 165.338182 209.880288 
L 169.396364 210.011832 
L 173.454545 210.217464 
L 177.512727 210.492648 
L 181.570909 210.83436 
L 185.629091 211.2426 
L 189.687273 211.71132 
L 193.745455 212.235984 
L 197.803636 212.81508 
L 201.861818 213.44256 
L 205.92 214.113888 
L 209.978182 214.82604 
L 214.036364 215.57448 
L 218.094545 216.354672 
L 222.152727 217.163592 
L 226.210909 217.996704 
L 230.269091 218.854008 
L 234.327273 219.729456 
L 238.385455 220.621536 
L 242.443636 221.527224 
L 246.501818 222.445008 
L 250.56 223.371864 
L 254.618182 224.307792 
L 258.676364 225.248256 
L 262.734545 225.836424 
L 266.792727 226.409472 
L 270.850909 226.97496 
L 274.909091 227.5344 
L 278.967273 228.08628 
L 283.025455 228.632112 
L 287.083636 229.170384 
L 291.141818 229.701096 
L 295.2 230.222736 
L 299.258182 230.738328 
L 303.316364 231.243336 
L 307.374545 231.742296 
L 311.432727 232.232184 
L 315.490909 232.713 
L 319.549091 233.184744 
L 323.607273 233.647416 
L 327.665455 234.101016 
L 331.723636 234.545544 
L 335.781818 234.981 
L 339.84 235.407384 
L 343.898182 235.823184 
L 347.956364 236.229912 
L 352.014545 236.626056 
L 356.072727 237.013128 
L 360.130909 237.389616 
L 364.189091 237.75552 
L 368.247273 238.112352 
L 372.305455 238.457088 
L 376.363636 238.792752 
L 380.421818 239.119344 
L 384.48 239.43384 
L 388.538182 239.737752 
L 392.596364 240.03108 
L 396.654545 240.313824 
L 400.712727 240.585984 
L 404.770909 240.84756 
L 408.829091 241.098552 
L 412.887273 241.33896 
L 416.945455 241.567272 
L 421.003636 241.786512 
L 425.061818 241.993656 
L 429.12 242.188704 
L 433.178182 242.37468 
L 437.236364 242.54856 
L 441.294545 242.710344 
L 445.352727 242.863056 
L 449.410909 243.003672 
L 453.469091 243.132192 
L 457.527273 243.25164 
L 461.585455 243.35748 
L 465.643636 243.454248 
L 469.701818 243.53892 
L 473.76 243.611496 
L 477.818182 243.673488 
L 481.876364 243.724896 
L 485.934545 243.764208 
L 489.992727 243.792936 
L 494.050909 243.809568 
L 498.109091 243.815616 
" clip-path="url(#p4d8c54d35e)" style="fill: none; stroke: #000000; stroke-opacity: 0.5; stroke-linecap: square"/>
   </g>
   <g id="line2d_20">
    <path d="M 92.290909 162.595512 
L 96.349091 162.569808 
L 100.407273 162.492696 
L 104.465455 162.890352 
L 108.523636 163.510272 
L 112.581818 164.12868 
L 116.64 164.738016 
L 120.698182 165.329208 
L 124.756364 165.893184 
L 128.814545 166.42692 
L 132.872727 166.921344 
L 136.930909 167.37192 
L 140.989091 167.771088 
L 145.047273 168.114312 
L 149.105455 168.398568 
L 153.163636 168.620832 
L 157.221818 168.77808 
L 161.28 168.871824 
L 165.338182 168.900552 
L 169.396364 168.8688 
L 173.454545 168.782616 
L 177.512727 168.645024 
L 181.570909 168.469632 
L 185.629091 168.267024 
L 189.687273 168.05232 
L 193.745455 167.84064 
L 197.803636 167.653152 
L 201.861818 167.506488 
L 205.92 167.418792 
L 209.978182 167.397624 
L 214.036364 167.450544 
L 218.094545 167.57604 
L 222.152727 167.766552 
L 226.210909 168.016032 
L 230.269091 168.313896 
L 234.327273 168.651072 
L 238.385455 169.023024 
L 242.443636 169.42068 
L 246.501818 169.839504 
L 250.56 170.276472 
L 254.618182 170.72856 
L 258.676364 171.18972 
L 262.734545 171.659952 
L 266.792727 172.137744 
L 270.850909 172.620072 
L 274.909091 173.105424 
L 278.967273 173.592288 
L 283.025455 174.080664 
L 287.083636 174.56904 
L 291.141818 175.057416 
L 295.2 175.542768 
L 299.258182 176.026608 
L 303.316364 176.507424 
L 307.374545 176.985216 
L 311.432727 177.45696 
L 315.490909 177.92568 
L 319.549091 178.389864 
L 323.607273 178.846488 
L 327.665455 179.298576 
L 331.723636 179.744616 
L 335.781818 180.183096 
L 339.84 180.615528 
L 343.898182 181.0404 
L 347.956364 181.4562 
L 352.014545 181.865952 
L 356.072727 182.266632 
L 360.130909 182.659752 
L 364.189091 183.0438 
L 368.247273 183.418776 
L 372.305455 183.78468 
L 376.363636 184.141512 
L 380.421818 184.48776 
L 384.48 184.824936 
L 388.538182 185.15304 
L 392.596364 185.469048 
L 396.654545 185.775984 
L 400.712727 186.072336 
L 404.770909 186.356592 
L 408.829091 186.631776 
L 412.887273 186.894864 
L 416.945455 187.147368 
L 421.003636 187.387776 
L 425.061818 187.6176 
L 429.12 187.835328 
L 433.178182 188.04096 
L 437.236364 188.234496 
L 441.294545 188.415936 
L 445.352727 188.586792 
L 449.410909 188.74404 
L 453.469091 188.889192 
L 457.527273 189.022248 
L 461.585455 189.143208 
L 465.643636 189.252072 
L 469.701818 189.347328 
L 473.76 189.430488 
L 477.818182 189.50004 
L 481.876364 189.557496 
L 485.934545 189.602856 
L 489.992727 189.634608 
L 494.050909 189.654264 
L 498.109091 189.660312 
" clip-path="url(#p4d8c54d35e)" style="fill: none; stroke: #000000; stroke-opacity: 0.5; stroke-linecap: square"/>
   </g>
   <g id="line2d_21">
    <path d="M 92.290909 161.360208 
L 96.349091 161.70948 
L 100.407273 162.281016 
L 104.465455 162.364176 
L 108.523636 162.184248 
L 112.581818 161.955936 
L 116.64 161.680752 
L 120.698182 161.358696 
L 124.756364 160.992792 
L 128.814545 160.584552 
L 132.872727 160.135488 
L 136.930909 159.648624 
L 140.989091 159.126984 
L 145.047273 158.570568 
L 149.105455 157.9824 
L 153.163636 157.363992 
L 157.221818 157.480416 
L 161.28 157.621032 
L 165.338182 157.781304 
L 169.396364 157.95216 
L 173.454545 158.130576 
L 177.512727 158.304456 
L 181.570909 158.46624 
L 185.629091 158.603832 
L 189.687273 158.705136 
L 193.745455 158.75352 
L 197.803636 158.735376 
L 201.861818 158.63256 
L 205.92 158.434488 
L 209.978182 158.129064 
L 214.036364 157.719312 
L 218.094545 157.206744 
L 222.152727 156.600432 
L 226.210909 155.91096 
L 230.269091 155.151936 
L 234.327273 154.333944 
L 238.385455 153.467568 
L 242.443636 152.56188 
L 246.501818 151.628976 
L 250.56 150.676416 
L 254.618182 149.716296 
L 258.676364 148.762224 
L 262.734545 147.830832 
L 266.792727 146.947824 
L 270.850909 146.151 
L 274.909091 145.490256 
L 278.967273 145.033632 
L 283.025455 144.841608 
L 287.083636 144.93384 
L 291.141818 145.275552 
L 295.2 145.80324 
L 299.258182 146.4534 
L 303.316364 147.182184 
L 307.374545 147.95784 
L 311.432727 148.7592 
L 315.490909 149.57568 
L 319.549091 150.395184 
L 323.607273 151.214688 
L 327.665455 152.026632 
L 331.723636 152.829504 
L 335.781818 153.621792 
L 339.84 154.39896 
L 343.898182 155.16252 
L 347.956364 155.907936 
L 352.014545 156.638232 
L 356.072727 157.350384 
L 360.130909 158.044392 
L 364.189091 158.718744 
L 368.247273 159.374952 
L 372.305455 160.009992 
L 376.363636 160.626888 
L 380.421818 161.224128 
L 384.48 161.8002 
L 388.538182 162.356616 
L 392.596364 162.893376 
L 396.654545 163.408968 
L 400.712727 163.903392 
L 404.770909 164.37816 
L 408.829091 164.833272 
L 412.887273 165.267216 
L 416.945455 165.679992 
L 421.003636 166.073112 
L 425.061818 166.446576 
L 429.12 166.798872 
L 433.178182 167.13 
L 437.236364 167.441472 
L 441.294545 167.731776 
L 445.352727 168.002424 
L 449.410909 168.253416 
L 453.469091 168.48324 
L 457.527273 168.693408 
L 461.585455 168.88392 
L 465.643636 169.053264 
L 469.701818 169.204464 
L 473.76 169.332984 
L 477.818182 169.44336 
L 481.876364 169.532568 
L 485.934545 169.603632 
L 489.992727 169.652016 
L 494.050909 169.682256 
L 498.109091 169.69284 
" clip-path="url(#p4d8c54d35e)" style="fill: none; stroke: #000000; stroke-opacity: 0.5; stroke-linecap: square"/>
   </g>
   <g id="line2d_22">
    <path d="M 92.290909 160.685856 
L 96.349091 160.362288 
L 100.407273 159.866352 
L 104.465455 159.382512 
L 108.523636 158.93496 
L 112.581818 158.53428 
L 116.64 158.185008 
L 120.698182 157.888656 
L 124.756364 157.648248 
L 128.814545 157.462272 
L 132.872727 157.329216 
L 136.930909 157.24908 
L 140.989091 157.215816 
L 145.047273 157.227912 
L 149.105455 157.277808 
L 153.163636 157.363992 
L 157.221818 156.71988 
L 161.28 156.048552 
L 165.338182 155.353032 
L 169.396364 154.636344 
L 173.454545 153.898488 
L 177.512727 153.142488 
L 181.570909 152.368344 
L 185.629091 151.577568 
L 189.687273 150.771672 
L 193.745455 149.950656 
L 197.803636 149.117544 
L 201.861818 148.273848 
L 205.92 147.416544 
L 209.978182 146.550168 
L 214.036364 145.67472 
L 218.094545 144.788688 
L 222.152727 143.895096 
L 226.210909 142.993944 
L 230.269091 142.085232 
L 234.327273 141.170472 
L 238.385455 140.248152 
L 242.443636 139.319784 
L 246.501818 138.385368 
L 250.56 137.444904 
L 254.618182 136.499904 
L 258.676364 135.548856 
L 262.734545 134.59176 
L 266.792727 134.68248 
L 270.850909 135.371952 
L 274.909091 135.898128 
L 278.967273 136.197504 
L 283.025455 136.206576 
L 287.083636 135.9072 
L 291.141818 135.33264 
L 295.2 134.5464 
L 299.258182 133.613496 
L 303.316364 132.576264 
L 307.374545 131.466456 
L 311.432727 130.303728 
L 315.490909 129.1032 
L 319.549091 127.873944 
L 323.607273 126.618984 
L 327.665455 125.347392 
L 331.723636 124.057656 
L 335.781818 122.755824 
L 339.84 121.441896 
L 343.898182 120.118896 
L 347.956364 118.785312 
L 352.014545 117.44568 
L 356.072727 116.098488 
L 360.130909 114.743736 
L 364.189091 113.384448 
L 368.247273 112.019112 
L 372.305455 110.647728 
L 376.363636 109.27332 
L 380.421818 107.894376 
L 384.48 106.510896 
L 388.538182 105.12288 
L 392.596364 103.73184 
L 396.654545 102.336264 
L 400.712727 100.937664 
L 404.770909 99.53604 
L 408.829091 98.131392 
L 412.887273 96.72372 
L 416.945455 95.314536 
L 421.003636 93.900816 
L 425.061818 92.485584 
L 429.12 91.067328 
L 433.178182 89.64756 
L 437.236364 88.380504 
L 441.294545 87.199632 
L 445.352727 86.021784 
L 449.410909 84.848472 
L 453.469091 83.684232 
L 457.527273 82.5336 
L 461.585455 81.401112 
L 465.643636 80.294328 
L 469.701818 79.225344 
L 473.76 78.204744 
L 477.818182 77.255208 
L 481.876364 76.399416 
L 485.934545 75.66912 
L 489.992727 75.103632 
L 494.050909 74.743776 
L 498.109091 74.61828 
" clip-path="url(#p4d8c54d35e)" style="fill: none; stroke: #000000; stroke-opacity: 0.5; stroke-linecap: square"/>
   </g>
   <g id="line2d_23">
    <path d="M 92.290909 137.475144 
L 96.349091 137.43432 
L 100.407273 137.314872 
L 104.465455 137.113776 
L 108.523636 136.834056 
L 112.581818 136.477224 
L 116.64 136.04328 
L 120.698182 135.538272 
L 124.756364 134.9622 
L 128.814545 134.321112 
L 132.872727 133.621056 
L 136.930909 132.86808 
L 140.989091 132.068232 
L 145.047273 131.229072 
L 149.105455 130.359672 
L 153.163636 129.470616 
L 157.221818 128.567952 
L 161.28 127.665288 
L 165.338182 126.77472 
L 169.396364 125.908344 
L 173.454545 125.085816 
L 177.512727 124.32528 
L 181.570909 123.647904 
L 185.629091 123.076368 
L 189.687273 122.634864 
L 193.745455 122.346072 
L 197.803636 122.2236 
L 201.861818 122.273496 
L 205.92 122.492736 
L 209.978182 122.869224 
L 214.036364 123.384816 
L 218.094545 124.016832 
L 222.152727 124.745616 
L 226.210909 125.55 
L 230.269091 126.414864 
L 234.327273 127.322064 
L 238.385455 128.261016 
L 242.443636 129.218112 
L 246.501818 130.18428 
L 250.56 131.145912 
L 254.618182 132.093936 
L 258.676364 133.01172 
L 262.734545 133.882632 
L 266.792727 133.63164 
L 270.850909 132.665472 
L 274.909091 131.694768 
L 278.967273 130.718016 
L 283.025455 129.73824 
L 287.083636 128.752416 
L 291.141818 127.762056 
L 295.2 126.76716 
L 299.258182 125.766216 
L 303.316364 124.760736 
L 307.374545 123.75072 
L 311.432727 122.734656 
L 315.490909 121.714056 
L 319.549091 120.68892 
L 323.607273 119.656224 
L 327.665455 118.620504 
L 331.723636 117.577224 
L 335.781818 116.529408 
L 339.84 115.474032 
L 343.898182 114.41412 
L 347.956364 113.34816 
L 352.014545 112.276152 
L 356.072727 111.198096 
L 360.130909 110.11248 
L 364.189091 109.022328 
L 368.247273 107.924616 
L 372.305455 106.820856 
L 376.363636 105.711048 
L 380.421818 104.595192 
L 384.48 103.471776 
L 388.538182 102.342312 
L 392.596364 101.2068 
L 396.654545 100.06524 
L 400.712727 98.917632 
L 404.770909 97.765488 
L 408.829091 96.605784 
L 412.887273 95.443056 
L 416.945455 94.27428 
L 421.003636 93.100968 
L 425.061818 91.924632 
L 429.12 90.74376 
L 433.178182 89.562888 
L 437.236364 88.22628 
L 441.294545 86.801976 
L 445.352727 85.37616 
L 449.410909 83.950344 
L 453.469091 82.523016 
L 457.527273 81.095688 
L 461.585455 79.669872 
L 465.643636 78.244056 
L 469.701818 76.821264 
L 473.76 75.40452 
L 477.818182 73.995336 
L 481.876364 72.602784 
L 485.934545 71.241984 
L 489.992727 69.947712 
L 494.050909 68.843952 
L 498.109091 68.326848 
" clip-path="url(#p4d8c54d35e)" style="fill: none; stroke: #000000; stroke-opacity: 0.5; stroke-linecap: square"/>
   </g>
   <g id="patch_3">
    <path d="M 72 384.48 
L 72 51.84 
" style="fill: none; stroke: #000000; stroke-width: 0.8; stroke-linejoin: miter; stroke-linecap: square"/>
   </g>
   <g id="patch_4">
    <path d="M 518.4 384.48 
L 518.4 51.84 
" style="fill: none; stroke: #000000; stroke-width: 0.8; stroke-linejoin: miter; stroke-linecap: square"/>
   </g>
   <g id="patch_5">
    <path d="M 72 384.48 
L 518.4 384.48 
" style="fill: none; stroke: #000000; stroke-width: 0.8; stroke-linejoin: miter; stroke-linecap: square"/>
   </g>
   <g id="patch_6">
    <path d="M 72 51.84 
L 518.4 51.84 
" style="fill: none; stroke: #000000; stroke-width: 0.8; stroke-linejoin: miter; stroke-linecap: square"/>
   </g>
  </g>
 </g>
 <defs>
  <clipPath id="p4d8c54d35e">
   <rect x="72" y="51.84" width="446.4" height="332.64"/>
  </clipPath>
 </defs>
</svg>
