<?xml version="1.0" encoding="utf-8" standalone="no"?>
<!DOCTYPE svg PUBLIC "-//W3C//DTD SVG 1.1//EN"
  "http://www.w3.org/Graphics/SVG/1.1/DTD/svg11.dtd">
<svg xmlns:xlink="http://www.w3.org/1999/xlink" width="576pt" height="432pt" viewBox="0 0 576 432" xmlns="http://www.w3.org/2000/svg" version="1.1">
 <metadata>
  <rdf:RDF xmlns:dc="http://purl.org/dc/elements/1.1/" xmlns:cc="http://creativecommons.org/ns#" xmlns:rdf="http://www.w3.org/1999/02/22-rdf-syntax-ns#">
   <cc:Work>
    <dc:type rdf:resource="http://purl.org/dc/dcmitype/StillImage"/>
    <dc:date>2023-05-04T07:13:09.008973</dc:date>
    <dc:format>image/svg+xml</dc:format>
    <dc:creator>
     <cc:Agent>
      <dc:title>Matplotlib v3.7.1, https://matplotlib.org/</dc:title>
     </cc:Agent>
    </dc:creator>
   </cc:Work>
  </rdf:RDF>
 </metadata>
 <defs>
  <style type="text/css">*{stroke-linejoin: round; stroke-linecap: butt}</style>
 </defs>
 <g id="figure_1">
  <g id="patch_1">
   <path d="M 0 432 
L 576 432 
L 576 0 
L 0 0 
z
" style="fill: #ffffff"/>
  </g>
  <g id="axes_1">
   <g id="patch_2">
    <path d="M 72 384.48 
L 518.4 384.48 
L 518.4 51.84 
L 72 51.84 
z
" style="fill: #ffffff"/>
   </g>
   <g id="matplotlib.axis_1">
    <g id="xtick_1">
     <g id="line2d_1">
      <defs>
       <path id="m16ac375643" d="M 0 0 
L 0 3.5 
" style="stroke: #000000; stroke-width: 0.8"/>
      </defs>
      <g>
       <use xlink:href="#m16ac375643" x="92.290909" y="384.48" style="stroke: #000000; stroke-width: 0.8"/>
      </g>
     </g>
     <g id="text_1">
      <!-- 0.0 -->
      <g transform="translate(84.339347 399.078438) scale(0.1 -0.1)">
       <defs>
        <path id="DejaVuSans-30" d="M 2034 4250 
Q 1547 4250 1301 3770 
Q 1056 3291 1056 2328 
Q 1056 1369 1301 889 
Q 1547 409 2034 409 
Q 2525 409 2770 889 
Q 3016 1369 3016 2328 
Q 3016 3291 2770 3770 
Q 2525 4250 2034 4250 
z
M 2034 4750 
Q 2819 4750 3233 4129 
Q 3647 3509 3647 2328 
Q 3647 1150 3233 529 
Q 2819 -91 2034 -91 
Q 1250 -91 836 529 
Q 422 1150 422 2328 
Q 422 3509 836 4129 
Q 1250 4750 2034 4750 
z
" transform="scale(0.015625)"/>
        <path id="DejaVuSans-2e" d="M 684 794 
L 1344 794 
L 1344 0 
L 684 0 
L 684 794 
z
" transform="scale(0.015625)"/>
       </defs>
       <use xlink:href="#DejaVuSans-30"/>
       <use xlink:href="#DejaVuSans-2e" x="63.623047"/>
       <use xlink:href="#DejaVuSans-30" x="95.410156"/>
      </g>
     </g>
    </g>
    <g id="xtick_2">
     <g id="line2d_2">
      <g>
       <use xlink:href="#m16ac375643" x="173.454545" y="384.48" style="stroke: #000000; stroke-width: 0.8"/>
      </g>
     </g>
     <g id="text_2">
      <!-- 0.2 -->
      <g transform="translate(165.502983 399.078438) scale(0.1 -0.1)">
       <defs>
        <path id="DejaVuSans-32" d="M 1228 531 
L 3431 531 
L 3431 0 
L 469 0 
L 469 531 
Q 828 903 1448 1529 
Q 2069 2156 2228 2338 
Q 2531 2678 2651 2914 
Q 2772 3150 2772 3378 
Q 2772 3750 2511 3984 
Q 2250 4219 1831 4219 
Q 1534 4219 1204 4116 
Q 875 4013 500 3803 
L 500 4441 
Q 881 4594 1212 4672 
Q 1544 4750 1819 4750 
Q 2544 4750 2975 4387 
Q 3406 4025 3406 3419 
Q 3406 3131 3298 2873 
Q 3191 2616 2906 2266 
Q 2828 2175 2409 1742 
Q 1991 1309 1228 531 
z
" transform="scale(0.015625)"/>
       </defs>
       <use xlink:href="#DejaVuSans-30"/>
       <use xlink:href="#DejaVuSans-2e" x="63.623047"/>
       <use xlink:href="#DejaVuSans-32" x="95.410156"/>
      </g>
     </g>
    </g>
    <g id="xtick_3">
     <g id="line2d_3">
      <g>
       <use xlink:href="#m16ac375643" x="254.618182" y="384.48" style="stroke: #000000; stroke-width: 0.8"/>
      </g>
     </g>
     <g id="text_3">
      <!-- 0.4 -->
      <g transform="translate(246.666619 399.078438) scale(0.1 -0.1)">
       <defs>
        <path id="DejaVuSans-34" d="M 2419 4116 
L 825 1625 
L 2419 1625 
L 2419 4116 
z
M 2253 4666 
L 3047 4666 
L 3047 1625 
L 3713 1625 
L 3713 1100 
L 3047 1100 
L 3047 0 
L 2419 0 
L 2419 1100 
L 313 1100 
L 313 1709 
L 2253 4666 
z
" transform="scale(0.015625)"/>
       </defs>
       <use xlink:href="#DejaVuSans-30"/>
       <use xlink:href="#DejaVuSans-2e" x="63.623047"/>
       <use xlink:href="#DejaVuSans-34" x="95.410156"/>
      </g>
     </g>
    </g>
    <g id="xtick_4">
     <g id="line2d_4">
      <g>
       <use xlink:href="#m16ac375643" x="335.781818" y="384.48" style="stroke: #000000; stroke-width: 0.8"/>
      </g>
     </g>
     <g id="text_4">
      <!-- 0.6 -->
      <g transform="translate(327.830256 399.078438) scale(0.1 -0.1)">
       <defs>
        <path id="DejaVuSans-36" d="M 2113 2584 
Q 1688 2584 1439 2293 
Q 1191 2003 1191 1497 
Q 1191 994 1439 701 
Q 1688 409 2113 409 
Q 2538 409 2786 701 
Q 3034 994 3034 1497 
Q 3034 2003 2786 2293 
Q 2538 2584 2113 2584 
z
M 3366 4563 
L 3366 3988 
Q 3128 4100 2886 4159 
Q 2644 4219 2406 4219 
Q 1781 4219 1451 3797 
Q 1122 3375 1075 2522 
Q 1259 2794 1537 2939 
Q 1816 3084 2150 3084 
Q 2853 3084 3261 2657 
Q 3669 2231 3669 1497 
Q 3669 778 3244 343 
Q 2819 -91 2113 -91 
Q 1303 -91 875 529 
Q 447 1150 447 2328 
Q 447 3434 972 4092 
Q 1497 4750 2381 4750 
Q 2619 4750 2861 4703 
Q 3103 4656 3366 4563 
z
" transform="scale(0.015625)"/>
       </defs>
       <use xlink:href="#DejaVuSans-30"/>
       <use xlink:href="#DejaVuSans-2e" x="63.623047"/>
       <use xlink:href="#DejaVuSans-36" x="95.410156"/>
      </g>
     </g>
    </g>
    <g id="xtick_5">
     <g id="line2d_5">
      <g>
       <use xlink:href="#m16ac375643" x="416.945455" y="384.48" style="stroke: #000000; stroke-width: 0.8"/>
      </g>
     </g>
     <g id="text_5">
      <!-- 0.8 -->
      <g transform="translate(408.993892 399.078438) scale(0.1 -0.1)">
       <defs>
        <path id="DejaVuSans-38" d="M 2034 2216 
Q 1584 2216 1326 1975 
Q 1069 1734 1069 1313 
Q 1069 891 1326 650 
Q 1584 409 2034 409 
Q 2484 409 2743 651 
Q 3003 894 3003 1313 
Q 3003 1734 2745 1975 
Q 2488 2216 2034 2216 
z
M 1403 2484 
Q 997 2584 770 2862 
Q 544 3141 544 3541 
Q 544 4100 942 4425 
Q 1341 4750 2034 4750 
Q 2731 4750 3128 4425 
Q 3525 4100 3525 3541 
Q 3525 3141 3298 2862 
Q 3072 2584 2669 2484 
Q 3125 2378 3379 2068 
Q 3634 1759 3634 1313 
Q 3634 634 3220 271 
Q 2806 -91 2034 -91 
Q 1263 -91 848 271 
Q 434 634 434 1313 
Q 434 1759 690 2068 
Q 947 2378 1403 2484 
z
M 1172 3481 
Q 1172 3119 1398 2916 
Q 1625 2713 2034 2713 
Q 2441 2713 2670 2916 
Q 2900 3119 2900 3481 
Q 2900 3844 2670 4047 
Q 2441 4250 2034 4250 
Q 1625 4250 1398 4047 
Q 1172 3844 1172 3481 
z
" transform="scale(0.015625)"/>
       </defs>
       <use xlink:href="#DejaVuSans-30"/>
       <use xlink:href="#DejaVuSans-2e" x="63.623047"/>
       <use xlink:href="#DejaVuSans-38" x="95.410156"/>
      </g>
     </g>
    </g>
    <g id="xtick_6">
     <g id="line2d_6">
      <g>
       <use xlink:href="#m16ac375643" x="498.109091" y="384.48" style="stroke: #000000; stroke-width: 0.8"/>
      </g>
     </g>
     <g id="text_6">
      <!-- 1.0 -->
      <g transform="translate(490.157528 399.078438) scale(0.1 -0.1)">
       <defs>
        <path id="DejaVuSans-31" d="M 794 531 
L 1825 531 
L 1825 4091 
L 703 3866 
L 703 4441 
L 1819 4666 
L 2450 4666 
L 2450 531 
L 3481 531 
L 3481 0 
L 794 0 
L 794 531 
z
" transform="scale(0.015625)"/>
       </defs>
       <use xlink:href="#DejaVuSans-31"/>
       <use xlink:href="#DejaVuSans-2e" x="63.623047"/>
       <use xlink:href="#DejaVuSans-30" x="95.410156"/>
      </g>
     </g>
    </g>
   </g>
   <g id="matplotlib.axis_2">
    <g id="ytick_1">
     <g id="line2d_7">
      <defs>
       <path id="m8ae9634c5d" d="M 0 0 
L -3.5 0 
" style="stroke: #000000; stroke-width: 0.8"/>
      </defs>
      <g>
       <use xlink:href="#m8ae9634c5d" x="72" y="369.36" style="stroke: #000000; stroke-width: 0.8"/>
      </g>
     </g>
     <g id="text_7">
      <!-- −5.0 -->
      <g transform="translate(40.717187 373.159219) scale(0.1 -0.1)">
       <defs>
        <path id="DejaVuSans-2212" d="M 678 2272 
L 4684 2272 
L 4684 1741 
L 678 1741 
L 678 2272 
z
" transform="scale(0.015625)"/>
        <path id="DejaVuSans-35" d="M 691 4666 
L 3169 4666 
L 3169 4134 
L 1269 4134 
L 1269 2991 
Q 1406 3038 1543 3061 
Q 1681 3084 1819 3084 
Q 2600 3084 3056 2656 
Q 3513 2228 3513 1497 
Q 3513 744 3044 326 
Q 2575 -91 1722 -91 
Q 1428 -91 1123 -41 
Q 819 9 494 109 
L 494 744 
Q 775 591 1075 516 
Q 1375 441 1709 441 
Q 2250 441 2565 725 
Q 2881 1009 2881 1497 
Q 2881 1984 2565 2268 
Q 2250 2553 1709 2553 
Q 1456 2553 1204 2497 
Q 953 2441 691 2322 
L 691 4666 
z
" transform="scale(0.015625)"/>
       </defs>
       <use xlink:href="#DejaVuSans-2212"/>
       <use xlink:href="#DejaVuSans-35" x="83.789062"/>
       <use xlink:href="#DejaVuSans-2e" x="147.412109"/>
       <use xlink:href="#DejaVuSans-30" x="179.199219"/>
      </g>
     </g>
    </g>
    <g id="ytick_2">
     <g id="line2d_8">
      <g>
       <use xlink:href="#m8ae9634c5d" x="72" y="331.56" style="stroke: #000000; stroke-width: 0.8"/>
      </g>
     </g>
     <g id="text_8">
      <!-- −2.5 -->
      <g transform="translate(40.717187 335.359219) scale(0.1 -0.1)">
       <use xlink:href="#DejaVuSans-2212"/>
       <use xlink:href="#DejaVuSans-32" x="83.789062"/>
       <use xlink:href="#DejaVuSans-2e" x="147.412109"/>
       <use xlink:href="#DejaVuSans-35" x="179.199219"/>
      </g>
     </g>
    </g>
    <g id="ytick_3">
     <g id="line2d_9">
      <g>
       <use xlink:href="#m8ae9634c5d" x="72" y="293.76" style="stroke: #000000; stroke-width: 0.8"/>
      </g>
     </g>
     <g id="text_9">
      <!-- 0.0 -->
      <g transform="translate(49.096875 297.559219) scale(0.1 -0.1)">
       <use xlink:href="#DejaVuSans-30"/>
       <use xlink:href="#DejaVuSans-2e" x="63.623047"/>
       <use xlink:href="#DejaVuSans-30" x="95.410156"/>
      </g>
     </g>
    </g>
    <g id="ytick_4">
     <g id="line2d_10">
      <g>
       <use xlink:href="#m8ae9634c5d" x="72" y="255.96" style="stroke: #000000; stroke-width: 0.8"/>
      </g>
     </g>
     <g id="text_10">
      <!-- 2.5 -->
      <g transform="translate(49.096875 259.759219) scale(0.1 -0.1)">
       <use xlink:href="#DejaVuSans-32"/>
       <use xlink:href="#DejaVuSans-2e" x="63.623047"/>
       <use xlink:href="#DejaVuSans-35" x="95.410156"/>
      </g>
     </g>
    </g>
    <g id="ytick_5">
     <g id="line2d_11">
      <g>
       <use xlink:href="#m8ae9634c5d" x="72" y="218.16" style="stroke: #000000; stroke-width: 0.8"/>
      </g>
     </g>
     <g id="text_11">
      <!-- 5.0 -->
      <g transform="translate(49.096875 221.959219) scale(0.1 -0.1)">
       <use xlink:href="#DejaVuSans-35"/>
       <use xlink:href="#DejaVuSans-2e" x="63.623047"/>
       <use xlink:href="#DejaVuSans-30" x="95.410156"/>
      </g>
     </g>
    </g>
    <g id="ytick_6">
     <g id="line2d_12">
      <g>
       <use xlink:href="#m8ae9634c5d" x="72" y="180.36" style="stroke: #000000; stroke-width: 0.8"/>
      </g>
     </g>
     <g id="text_12">
      <!-- 7.5 -->
      <g transform="translate(49.096875 184.159219) scale(0.1 -0.1)">
       <defs>
        <path id="DejaVuSans-37" d="M 525 4666 
L 3525 4666 
L 3525 4397 
L 1831 0 
L 1172 0 
L 2766 4134 
L 525 4134 
L 525 4666 
z
" transform="scale(0.015625)"/>
       </defs>
       <use xlink:href="#DejaVuSans-37"/>
       <use xlink:href="#DejaVuSans-2e" x="63.623047"/>
       <use xlink:href="#DejaVuSans-35" x="95.410156"/>
      </g>
     </g>
    </g>
    <g id="ytick_7">
     <g id="line2d_13">
      <g>
       <use xlink:href="#m8ae9634c5d" x="72" y="142.56" style="stroke: #000000; stroke-width: 0.8"/>
      </g>
     </g>
     <g id="text_13">
      <!-- 10.0 -->
      <g transform="translate(42.734375 146.359219) scale(0.1 -0.1)">
       <use xlink:href="#DejaVuSans-31"/>
       <use xlink:href="#DejaVuSans-30" x="63.623047"/>
       <use xlink:href="#DejaVuSans-2e" x="127.246094"/>
       <use xlink:href="#DejaVuSans-30" x="159.033203"/>
      </g>
     </g>
    </g>
    <g id="ytick_8">
     <g id="line2d_14">
      <g>
       <use xlink:href="#m8ae9634c5d" x="72" y="104.76" style="stroke: #000000; stroke-width: 0.8"/>
      </g>
     </g>
     <g id="text_14">
      <!-- 12.5 -->
      <g transform="translate(42.734375 108.559219) scale(0.1 -0.1)">
       <use xlink:href="#DejaVuSans-31"/>
       <use xlink:href="#DejaVuSans-32" x="63.623047"/>
       <use xlink:href="#DejaVuSans-2e" x="127.246094"/>
       <use xlink:href="#DejaVuSans-35" x="159.033203"/>
      </g>
     </g>
    </g>
    <g id="ytick_9">
     <g id="line2d_15">
      <g>
       <use xlink:href="#m8ae9634c5d" x="72" y="66.96" style="stroke: #000000; stroke-width: 0.8"/>
      </g>
     </g>
     <g id="text_15">
      <!-- 15.0 -->
      <g transform="translate(42.734375 70.759219) scale(0.1 -0.1)">
       <use xlink:href="#DejaVuSans-31"/>
       <use xlink:href="#DejaVuSans-35" x="63.623047"/>
       <use xlink:href="#DejaVuSans-2e" x="127.246094"/>
       <use xlink:href="#DejaVuSans-30" x="159.033203"/>
      </g>
     </g>
    </g>
   </g>
   <g id="line2d_16">
    <path d="M 92.290909 334.812312 
L 96.349091 334.812312 
L 100.407273 334.8108 
L 104.465455 334.809288 
L 108.523636 334.807776 
L 112.581818 334.806264 
L 116.64 334.804752 
L 120.698182 334.801728 
L 124.756364 334.800216 
L 128.814545 334.798704 
L 132.872727 334.798704 
L 136.930909 334.800216 
L 140.989091 334.801728 
L 145.047273 334.804752 
L 149.105455 334.8108 
L 153.163636 334.819872 
L 157.221818 334.831968 
L 161.28 334.847088 
L 165.338182 334.865232 
L 169.396364 334.887912 
L 173.454545 334.91664 
L 177.512727 334.949904 
L 181.570909 334.990728 
L 185.629091 335.036088 
L 189.687273 335.089008 
L 193.745455 335.149488 
L 197.803636 335.217528 
L 201.861818 335.29464 
L 205.92 335.379312 
L 209.978182 335.473056 
L 214.036364 335.577384 
L 218.094545 335.690784 
L 222.152727 335.813256 
L 226.210909 335.946312 
L 230.269091 336.089952 
L 234.327273 336.242664 
L 238.385455 336.40596 
L 242.443636 336.57984 
L 246.501818 336.762792 
L 250.56 336.954816 
L 254.618182 337.157424 
L 258.676364 337.367592 
L 262.734545 337.586832 
L 266.792727 337.815144 
L 270.850909 338.049504 
L 274.909091 338.291424 
L 278.967273 338.539392 
L 283.025455 338.79492 
L 287.083636 339.053472 
L 291.141818 339.319584 
L 295.2 339.587208 
L 299.258182 339.86088 
L 303.316364 340.136064 
L 307.374545 340.414272 
L 311.432727 340.693992 
L 315.490909 340.975224 
L 319.549091 341.257968 
L 323.607273 341.540712 
L 327.665455 341.821944 
L 331.723636 342.103176 
L 335.781818 342.382896 
L 339.84 342.661104 
L 343.898182 342.9378 
L 347.956364 343.20996 
L 352.014545 343.480608 
L 356.072727 343.74672 
L 360.130909 344.009808 
L 364.189091 344.26836 
L 368.247273 344.522376 
L 372.305455 344.771856 
L 376.363636 345.015288 
L 380.421818 345.254184 
L 384.48 345.48552 
L 388.538182 345.71232 
L 392.596364 345.933072 
L 396.654545 346.146264 
L 400.712727 346.353408 
L 404.770909 346.552992 
L 408.829091 346.746528 
L 412.887273 346.930992 
L 416.945455 347.109408 
L 421.003636 347.278752 
L 425.061818 347.442048 
L 429.12 347.596272 
L 433.178182 347.741424 
L 437.236364 347.879016 
L 441.294545 348.009048 
L 445.352727 348.130008 
L 449.410909 348.241896 
L 453.469091 348.346224 
L 457.527273 348.44148 
L 461.585455 348.527664 
L 465.643636 348.604776 
L 469.701818 348.672816 
L 473.76 348.731784 
L 477.818182 348.78168 
L 481.876364 348.822504 
L 485.934545 348.855768 
L 489.992727 348.878448 
L 494.050909 348.892056 
L 498.109091 348.896592 
" clip-path="url(#p3da5b7a358)" style="fill: none; stroke: #000000; stroke-opacity: 0.5; stroke-linecap: square"/>
   </g>
   <g id="line2d_17">
    <path d="M 92.290909 302.050296 
L 96.349091 302.056344 
L 100.407273 302.074488 
L 104.465455 302.103216 
L 108.523636 302.145552 
L 112.581818 302.19696 
L 116.64 302.261976 
L 120.698182 302.336064 
L 124.756364 302.419224 
L 128.814545 302.512968 
L 132.872727 302.615784 
L 136.930909 302.72616 
L 140.989091 302.842584 
L 145.047273 302.966568 
L 149.105455 303.095088 
L 153.163636 303.228144 
L 157.221818 303.364224 
L 161.28 303.503328 
L 165.338182 303.642432 
L 169.396364 303.781536 
L 173.454545 303.919128 
L 177.512727 304.053696 
L 181.570909 304.183728 
L 185.629091 304.309224 
L 189.687273 304.42716 
L 193.745455 304.539048 
L 197.803636 304.640352 
L 201.861818 304.732584 
L 205.92 304.81272 
L 209.978182 304.88076 
L 214.036364 304.935192 
L 218.094545 304.976016 
L 222.152727 305.000208 
L 226.210909 305.00928 
L 230.269091 305.003232 
L 234.327273 304.97904 
L 238.385455 304.936704 
L 242.443636 304.876224 
L 246.501818 304.7976 
L 250.56 304.700832 
L 254.618182 304.58592 
L 258.676364 304.452864 
L 262.734545 304.300152 
L 266.792727 304.129296 
L 270.850909 303.940296 
L 274.909091 303.733152 
L 278.967273 303.507864 
L 283.025455 303.265944 
L 287.083636 303.007392 
L 291.141818 302.732208 
L 295.2 302.441904 
L 299.258182 302.134968 
L 303.316364 301.814424 
L 307.374545 301.47876 
L 311.432727 301.131 
L 315.490909 300.769632 
L 319.549091 300.39768 
L 323.607273 300.01212 
L 327.665455 299.617488 
L 331.723636 299.212272 
L 335.781818 298.797984 
L 339.84 298.374624 
L 343.898182 297.945216 
L 347.956364 297.508248 
L 352.014545 297.065232 
L 356.072727 296.616168 
L 360.130909 296.16408 
L 364.189091 295.708968 
L 368.247273 295.250832 
L 372.305455 294.791184 
L 376.363636 294.330024 
L 380.421818 293.870376 
L 384.48 293.41224 
L 388.538182 292.957128 
L 392.596364 292.50504 
L 396.654545 292.055976 
L 400.712727 291.614472 
L 404.770909 291.179016 
L 408.829091 290.75112 
L 412.887273 290.333808 
L 416.945455 289.924056 
L 421.003636 289.527912 
L 425.061818 289.142352 
L 429.12 288.771912 
L 433.178182 288.41508 
L 437.236364 288.073368 
L 441.294545 287.748288 
L 445.352727 287.441352 
L 449.410909 287.15256 
L 453.469091 286.883424 
L 457.527273 286.635456 
L 461.585455 286.407144 
L 465.643636 286.201512 
L 469.701818 286.01856 
L 473.76 285.8598 
L 477.818182 285.72372 
L 481.876364 285.61032 
L 485.934545 285.524136 
L 489.992727 285.460632 
L 494.050909 285.422832 
L 498.109091 285.410736 
" clip-path="url(#p3da5b7a358)" style="fill: none; stroke: #000000; stroke-opacity: 0.5; stroke-linecap: square"/>
   </g>
   <g id="line2d_18">
    <path d="M 92.290909 257.538528 
L 96.349091 257.573304 
L 100.407273 257.674608 
L 104.465455 257.83488 
L 108.523636 258.042024 
L 112.581818 258.285456 
L 116.64 258.55308 
L 120.698182 258.835824 
L 124.756364 259.124616 
L 128.814545 259.41492 
L 132.872727 259.699176 
L 136.930909 259.977384 
L 140.989091 260.241984 
L 145.047273 260.494488 
L 149.105455 260.73036 
L 153.163636 260.9496 
L 157.221818 261.150696 
L 161.28 261.332136 
L 165.338182 261.495432 
L 169.396364 261.639072 
L 173.454545 261.761544 
L 177.512727 261.86436 
L 181.570909 261.94752 
L 185.629091 262.011024 
L 189.687273 262.054872 
L 193.745455 262.079064 
L 197.803636 262.085112 
L 201.861818 262.071504 
L 205.92 262.039752 
L 209.978182 261.991368 
L 214.036364 261.92484 
L 218.094545 261.843192 
L 222.152727 261.7434 
L 226.210909 261.63 
L 230.269091 261.50148 
L 234.327273 261.35784 
L 238.385455 261.202104 
L 242.443636 261.03276 
L 246.501818 260.85132 
L 250.56 260.657784 
L 254.618182 260.453664 
L 258.676364 260.240472 
L 262.734545 260.016696 
L 266.792727 259.78536 
L 270.850909 259.546464 
L 274.909091 259.300008 
L 278.967273 259.045992 
L 283.025455 258.788952 
L 287.083636 258.525864 
L 291.141818 258.259752 
L 295.2 257.989104 
L 299.258182 257.718456 
L 303.316364 257.444784 
L 307.374545 257.171112 
L 311.432727 256.89744 
L 315.490909 256.62528 
L 319.549091 256.356144 
L 323.607273 256.08852 
L 327.665455 255.82392 
L 331.723636 255.563856 
L 335.781818 255.308328 
L 339.84 255.057336 
L 343.898182 254.81088 
L 347.956364 254.571984 
L 352.014545 254.337624 
L 356.072727 254.109312 
L 360.130909 253.88856 
L 364.189091 253.672344 
L 368.247273 253.460664 
L 372.305455 253.255032 
L 376.363636 253.053936 
L 380.421818 252.855864 
L 384.48 252.660816 
L 388.538182 252.468792 
L 392.596364 252.27828 
L 396.654545 252.087768 
L 400.712727 251.898768 
L 404.770909 251.706744 
L 408.829091 251.513208 
L 412.887273 251.316648 
L 416.945455 251.115552 
L 421.003636 250.911432 
L 425.061818 250.701264 
L 429.12 250.48656 
L 433.178182 250.265808 
L 437.236364 250.04052 
L 441.294545 249.807672 
L 445.352727 249.570288 
L 449.410909 249.328368 
L 453.469091 249.083424 
L 457.527273 248.836968 
L 461.585455 248.590512 
L 465.643636 248.34708 
L 469.701818 248.109696 
L 473.76 247.884408 
L 477.818182 247.675752 
L 481.876364 247.489776 
L 485.934545 247.332528 
L 489.992727 247.214592 
L 494.050909 247.140504 
L 498.109091 247.1148 
" clip-path="url(#p3da5b7a358)" style="fill: none; stroke: #000000; stroke-opacity: 0.5; stroke-linecap: square"/>
   </g>
   <g id="line2d_19">
    <path d="M 92.290909 249.694272 
L 96.349091 249.642864 
L 100.407273 249.493176 
L 104.465455 249.251256 
L 108.523636 248.930712 
L 112.581818 248.54364 
L 116.64 248.102136 
L 120.698182 247.615272 
L 124.756364 247.09212 
L 128.814545 246.541752 
L 132.872727 245.970216 
L 136.930909 245.38356 
L 140.989091 244.784808 
L 145.047273 244.178496 
L 149.105455 243.570672 
L 153.163636 242.961336 
L 157.221818 242.356536 
L 161.28 241.759296 
L 165.338182 241.17264 
L 169.396364 240.59808 
L 173.454545 240.03864 
L 177.512727 239.498856 
L 181.570909 238.978728 
L 185.629091 238.48128 
L 189.687273 238.011048 
L 193.745455 237.56652 
L 197.803636 237.15072 
L 201.861818 236.766672 
L 205.92 236.412864 
L 209.978182 236.09232 
L 214.036364 235.80504 
L 218.094545 235.551024 
L 222.152727 235.330272 
L 226.210909 235.141272 
L 230.269091 234.985536 
L 234.327273 234.86004 
L 238.385455 234.764784 
L 242.443636 234.698256 
L 246.501818 234.658944 
L 250.56 234.643824 
L 254.618182 234.651384 
L 258.676364 234.680112 
L 262.734545 234.728496 
L 266.792727 234.795024 
L 270.850909 234.87516 
L 274.909091 234.967392 
L 278.967273 235.07172 
L 283.025455 235.18512 
L 287.083636 235.304568 
L 291.141818 235.430064 
L 295.2 235.558584 
L 299.258182 235.690128 
L 303.316364 235.82016 
L 307.374545 235.950192 
L 311.432727 236.0772 
L 315.490909 236.201184 
L 319.549091 236.320632 
L 323.607273 236.43252 
L 327.665455 236.539872 
L 331.723636 236.639664 
L 335.781818 236.730384 
L 339.84 236.815056 
L 343.898182 236.890656 
L 347.956364 236.958696 
L 352.014545 237.017664 
L 356.072727 237.070584 
L 360.130909 237.117456 
L 364.189091 237.156768 
L 368.247273 237.193056 
L 372.305455 237.224808 
L 376.363636 237.255048 
L 380.421818 237.285288 
L 384.48 237.315528 
L 388.538182 237.350304 
L 392.596364 237.388104 
L 396.654545 237.431952 
L 400.712727 237.484872 
L 404.770909 237.548376 
L 408.829091 237.622464 
L 412.887273 237.708648 
L 416.945455 237.809952 
L 421.003636 237.924864 
L 425.061818 238.056408 
L 429.12 238.204584 
L 433.178182 238.36788 
L 437.236364 238.547808 
L 441.294545 238.742856 
L 445.352727 238.951512 
L 449.410909 239.172264 
L 453.469091 239.405112 
L 457.527273 239.644008 
L 461.585455 239.888952 
L 465.643636 240.133896 
L 469.701818 240.374304 
L 473.76 240.607152 
L 477.818182 240.823368 
L 481.876364 241.016904 
L 485.934545 241.178688 
L 489.992727 241.302672 
L 494.050909 241.379784 
L 498.109091 241.407 
" clip-path="url(#p3da5b7a358)" style="fill: none; stroke: #000000; stroke-opacity: 0.5; stroke-linecap: square"/>
   </g>
   <g id="line2d_20">
    <path d="M 92.290909 168.360768 
L 96.349091 168.51348 
L 100.407273 168.927768 
L 104.465455 169.51896 
L 108.523636 170.212968 
L 112.581818 170.959896 
L 116.64 171.72648 
L 120.698182 172.4976 
L 124.756364 173.259648 
L 128.814545 174.005064 
L 132.872727 174.7278 
L 136.930909 175.42332 
L 140.989091 176.0886 
L 145.047273 176.717592 
L 149.105455 177.311808 
L 153.163636 177.8652 
L 157.221818 178.377768 
L 161.28 178.844976 
L 165.338182 179.265312 
L 169.396364 179.637264 
L 173.454545 179.95932 
L 177.512727 180.226944 
L 181.570909 180.438624 
L 185.629091 180.59436 
L 189.687273 180.691128 
L 193.745455 180.727416 
L 197.803636 180.703224 
L 201.861818 180.615528 
L 205.92 180.464328 
L 209.978182 180.248112 
L 214.036364 179.968392 
L 218.094545 179.623656 
L 222.152727 179.215416 
L 226.210909 178.743672 
L 230.269091 178.209936 
L 234.327273 177.614208 
L 238.385455 176.958 
L 242.443636 176.244336 
L 246.501818 175.474728 
L 250.56 174.649176 
L 254.618182 173.772216 
L 258.676364 172.843848 
L 262.734545 171.868608 
L 266.792727 170.846496 
L 270.850909 169.782048 
L 274.909091 168.673752 
L 278.967273 167.527656 
L 283.025455 166.34376 
L 287.083636 165.125088 
L 291.141818 163.873152 
L 295.2 162.590976 
L 299.258182 161.283096 
L 303.316364 159.951024 
L 307.374545 158.608368 
L 311.432727 157.31712 
L 315.490909 156.943656 
L 319.549091 158.139648 
L 323.607273 159.485328 
L 327.665455 160.831008 
L 331.723636 162.160056 
L 335.781818 163.466424 
L 339.84 164.747088 
L 343.898182 165.999024 
L 347.956364 167.222232 
L 352.014545 168.412176 
L 356.072727 169.570368 
L 360.130909 170.693784 
L 364.189091 171.780912 
L 368.247273 172.83024 
L 372.305455 173.838744 
L 376.363636 174.806424 
L 380.421818 175.731768 
L 384.48 176.611752 
L 388.538182 177.446376 
L 392.596364 178.232616 
L 396.654545 178.96896 
L 400.712727 179.655408 
L 404.770909 180.290448 
L 408.829091 180.872568 
L 412.887273 181.400256 
L 416.945455 181.875024 
L 421.003636 182.293848 
L 425.061818 182.659752 
L 429.12 182.969712 
L 433.178182 183.228264 
L 437.236364 183.433896 
L 441.294545 183.589632 
L 445.352727 183.698496 
L 449.410909 183.762 
L 453.469091 183.783168 
L 457.527273 183.768048 
L 461.585455 183.721176 
L 465.643636 183.647088 
L 469.701818 183.554856 
L 473.76 183.449016 
L 477.818182 183.33864 
L 481.876364 183.2328 
L 485.934545 183.139056 
L 489.992727 183.06648 
L 494.050909 183.019608 
L 498.109091 183.002976 
" clip-path="url(#p3da5b7a358)" style="fill: none; stroke: #000000; stroke-opacity: 0.5; stroke-linecap: square"/>
   </g>
   <g id="line2d_21">
    <path d="M 92.290909 161.735184 
L 96.349091 161.55828 
L 100.407273 161.069904 
L 104.465455 160.354728 
L 108.523636 159.48684 
L 112.581818 158.517648 
L 116.64 157.47588 
L 120.698182 156.378168 
L 124.756364 155.239632 
L 128.814545 154.063296 
L 132.872727 152.858232 
L 136.930909 151.62444 
L 140.989091 150.366456 
L 145.047273 149.085792 
L 149.105455 147.785472 
L 153.163636 146.463984 
L 157.221818 145.125864 
L 161.28 143.7696 
L 165.338182 142.396704 
L 169.396364 141.008688 
L 173.454545 139.607064 
L 177.512727 138.191832 
L 181.570909 136.764504 
L 185.629091 135.326592 
L 189.687273 133.879608 
L 193.745455 132.428088 
L 197.803636 130.972032 
L 201.861818 129.520512 
L 205.92 128.081088 
L 209.978182 126.670392 
L 214.036364 125.326224 
L 218.094545 124.133256 
L 222.152727 123.315264 
L 226.210909 123.29712 
L 230.269091 124.15896 
L 234.327273 125.478936 
L 238.385455 126.97884 
L 242.443636 128.552832 
L 246.501818 130.158576 
L 250.56 131.77944 
L 254.618182 133.406352 
L 258.676364 135.031752 
L 262.734545 136.652616 
L 266.792727 138.26592 
L 270.850909 139.870152 
L 274.909091 141.465312 
L 278.967273 143.048376 
L 283.025455 144.617832 
L 287.083636 146.172168 
L 291.141818 147.711384 
L 295.2 149.233968 
L 299.258182 150.735384 
L 303.316364 152.21412 
L 307.374545 153.659592 
L 311.432727 155.008296 
L 315.490909 155.395368 
L 319.549091 154.170648 
L 323.607273 152.75088 
L 327.665455 151.288776 
L 331.723636 149.80248 
L 335.781818 148.29804 
L 339.84 146.77848 
L 343.898182 145.248336 
L 347.956364 143.710632 
L 352.014545 142.172928 
L 356.072727 140.650344 
L 360.130909 139.171608 
L 364.189091 137.853144 
L 368.247273 137.163672 
L 372.305455 137.74428 
L 376.363636 138.949344 
L 380.421818 140.305608 
L 384.48 141.699672 
L 388.538182 143.099784 
L 392.596364 144.492336 
L 396.654545 145.872792 
L 400.712727 147.235104 
L 404.770909 148.57776 
L 408.829091 149.899248 
L 412.887273 151.198056 
L 416.945455 152.472672 
L 421.003636 153.720072 
L 425.061818 154.940256 
L 429.12 156.131712 
L 433.178182 157.289904 
L 437.236364 158.416344 
L 441.294545 159.504984 
L 445.352727 160.554312 
L 449.410909 161.562816 
L 453.469091 162.524448 
L 457.527273 163.436184 
L 461.585455 164.293488 
L 465.643636 165.090312 
L 469.701818 165.820608 
L 473.76 166.476816 
L 477.818182 167.052888 
L 481.876364 167.53824 
L 485.934545 167.928336 
L 489.992727 168.21108 
L 494.050909 168.38496 
L 498.109091 168.442416 
" clip-path="url(#p3da5b7a358)" style="fill: none; stroke: #000000; stroke-opacity: 0.5; stroke-linecap: square"/>
   </g>
   <g id="line2d_22">
    <path d="M 92.290909 118.354392 
L 96.349091 118.351368 
L 100.407273 118.340784 
L 104.465455 118.324152 
L 108.523636 118.301472 
L 112.581818 118.271232 
L 116.64 118.234944 
L 120.698182 118.191096 
L 124.756364 118.1412 
L 128.814545 118.085256 
L 132.872727 118.021752 
L 136.930909 117.953712 
L 140.989091 117.878112 
L 145.047273 117.796464 
L 149.105455 117.71028 
L 153.163636 117.616536 
L 157.221818 117.516744 
L 161.28 117.412416 
L 165.338182 117.30204 
L 169.396364 117.185616 
L 173.454545 117.063144 
L 177.512727 116.936136 
L 181.570909 116.80308 
L 185.629091 116.665488 
L 189.687273 116.520336 
L 193.745455 116.370648 
L 197.803636 116.214912 
L 201.861818 116.053128 
L 205.92 115.882272 
L 209.978182 115.708392 
L 214.036364 115.640352 
L 218.094545 116.874144 
L 222.152727 117.9144 
L 226.210909 118.197144 
L 230.269091 117.68004 
L 234.327273 116.866584 
L 238.385455 116.128728 
L 242.443636 115.58592 
L 246.501818 115.197336 
L 250.56 114.899472 
L 254.618182 114.653016 
L 258.676364 114.435288 
L 262.734545 114.237216 
L 266.792727 114.054264 
L 270.850909 113.881896 
L 274.909091 113.7186 
L 278.967273 113.565888 
L 283.025455 113.422248 
L 287.083636 113.292216 
L 291.141818 113.175792 
L 295.2 113.08356 
L 299.258182 113.03064 
L 303.316364 113.054832 
L 307.374545 113.263488 
L 311.432727 113.88492 
L 315.490909 115.02648 
L 319.549091 116.467416 
L 323.607273 118.023264 
L 327.665455 119.619936 
L 331.723636 121.230216 
L 335.781818 122.840496 
L 339.84 124.441704 
L 343.898182 126.032328 
L 347.956364 127.603296 
L 352.014545 129.150072 
L 356.072727 130.66056 
L 360.130909 132.098472 
L 364.189091 133.356456 
L 368.247273 133.959744 
L 372.305455 133.271784 
L 376.363636 131.935176 
L 380.421818 130.427712 
L 384.48 128.862792 
L 388.538182 127.27368 
L 392.596364 125.673984 
L 396.654545 124.072776 
L 400.712727 122.476104 
L 404.770909 120.891528 
L 408.829091 119.325096 
L 412.887273 117.791928 
L 416.945455 116.310168 
L 421.003636 114.916104 
L 425.061818 113.674752 
L 429.12 112.672296 
L 433.178182 111.973752 
L 437.236364 111.538296 
L 441.294545 111.272184 
L 445.352727 111.10284 
L 449.410909 110.98944 
L 453.469091 110.910816 
L 457.527273 110.851848 
L 461.585455 110.808 
L 465.643636 110.774736 
L 469.701818 110.749032 
L 473.76 110.729376 
L 477.818182 110.714256 
L 481.876364 110.70216 
L 485.934545 110.6946 
L 489.992727 110.688552 
L 494.050909 110.685528 
L 498.109091 110.684016 
" clip-path="url(#p3da5b7a358)" style="fill: none; stroke: #000000; stroke-opacity: 0.5; stroke-linecap: square"/>
   </g>
   <g id="line2d_23">
    <path d="M 92.290909 75.735648 
L 96.349091 75.793104 
L 100.407273 75.974544 
L 104.465455 76.295088 
L 108.523636 76.775904 
L 112.581818 77.429088 
L 116.64 78.25464 
L 120.698182 79.240464 
L 124.756364 80.36388 
L 128.814545 81.600696 
L 132.872727 82.931256 
L 136.930909 84.337416 
L 140.989091 85.804056 
L 145.047273 87.320592 
L 149.105455 88.877952 
L 153.163636 90.468576 
L 157.221818 92.084904 
L 161.28 93.723912 
L 165.338182 95.382576 
L 169.396364 97.053336 
L 173.454545 98.736192 
L 177.512727 100.42812 
L 181.570909 102.126096 
L 185.629091 103.827096 
L 189.687273 105.528096 
L 193.745455 107.226072 
L 197.803636 108.918 
L 201.861818 110.599344 
L 205.92 112.258008 
L 209.978182 113.875848 
L 214.036364 115.303176 
L 218.094545 115.262352 
L 222.152727 115.021944 
L 226.210909 114.72408 
L 230.269091 114.327936 
L 234.327273 113.753376 
L 238.385455 112.906656 
L 242.443636 111.77568 
L 246.501818 110.443608 
L 250.56 108.9936 
L 254.618182 107.477064 
L 258.676364 105.925752 
L 262.734545 104.363856 
L 266.792727 102.818592 
L 270.850909 101.353464 
L 274.909091 100.160496 
L 278.967273 99.835416 
L 283.025455 100.732032 
L 287.083636 102.179016 
L 291.141818 103.781736 
L 295.2 105.422256 
L 299.258182 107.049168 
L 303.316364 108.606528 
L 307.374545 109.982448 
L 311.432727 110.945592 
L 315.490909 111.38256 
L 319.549091 111.515616 
L 323.607273 111.527712 
L 327.665455 111.489912 
L 331.723636 111.429432 
L 335.781818 111.358368 
L 339.84 111.28428 
L 343.898182 111.207168 
L 347.956364 111.131568 
L 352.014545 111.055968 
L 356.072727 110.983392 
L 360.130909 110.912328 
L 364.189091 110.844288 
L 368.247273 110.779272 
L 372.305455 110.715768 
L 376.363636 110.653776 
L 380.421818 110.593296 
L 384.48 110.534328 
L 388.538182 110.473848 
L 392.596364 110.413368 
L 396.654545 110.349864 
L 400.712727 110.281824 
L 404.770909 110.204712 
L 408.829091 110.110968 
L 412.887273 109.994544 
L 416.945455 109.834272 
L 421.003636 109.596888 
L 425.061818 109.223424 
L 429.12 108.626184 
L 433.178182 107.7462 
L 437.236364 106.625808 
L 441.294545 105.3648 
L 445.352727 104.038776 
L 449.410909 102.69612 
L 453.469091 101.36556 
L 457.527273 100.068264 
L 461.585455 98.81784 
L 465.643636 97.632432 
L 469.701818 96.525648 
L 473.76 95.51412 
L 477.818182 94.61448 
L 481.876364 93.846384 
L 485.934545 93.224952 
L 489.992727 92.768328 
L 494.050909 92.487096 
L 498.109091 92.393352 
" clip-path="url(#p3da5b7a358)" style="fill: none; stroke: #000000; stroke-opacity: 0.5; stroke-linecap: square"/>
   </g>
   <g id="patch_3">
    <path d="M 72 384.48 
L 72 51.84 
" style="fill: none; stroke: #000000; stroke-width: 0.8; stroke-linejoin: miter; stroke-linecap: square"/>
   </g>
   <g id="patch_4">
    <path d="M 518.4 384.48 
L 518.4 51.84 
" style="fill: none; stroke: #000000; stroke-width: 0.8; stroke-linejoin: miter; stroke-linecap: square"/>
   </g>
   <g id="patch_5">
    <path d="M 72 384.48 
L 518.4 384.48 
" style="fill: none; stroke: #000000; stroke-width: 0.8; stroke-linejoin: miter; stroke-linecap: square"/>
   </g>
   <g id="patch_6">
    <path d="M 72 51.84 
L 518.4 51.84 
" style="fill: none; stroke: #000000; stroke-width: 0.8; stroke-linejoin: miter; stroke-linecap: square"/>
   </g>
  </g>
 </g>
 <defs>
  <clipPath id="p3da5b7a358">
   <rect x="72" y="51.84" width="446.4" height="332.64"/>
  </clipPath>
 </defs>
</svg>
