<?xml version="1.0" encoding="utf-8" standalone="no"?>
<!DOCTYPE svg PUBLIC "-//W3C//DTD SVG 1.1//EN"
  "http://www.w3.org/Graphics/SVG/1.1/DTD/svg11.dtd">
<svg xmlns:xlink="http://www.w3.org/1999/xlink" width="576pt" height="432pt" viewBox="0 0 576 432" xmlns="http://www.w3.org/2000/svg" version="1.1">
 <metadata>
  <rdf:RDF xmlns:dc="http://purl.org/dc/elements/1.1/" xmlns:cc="http://creativecommons.org/ns#" xmlns:rdf="http://www.w3.org/1999/02/22-rdf-syntax-ns#">
   <cc:Work>
    <dc:type rdf:resource="http://purl.org/dc/dcmitype/StillImage"/>
    <dc:date>2023-05-03T10:11:12.528288</dc:date>
    <dc:format>image/svg+xml</dc:format>
    <dc:creator>
     <cc:Agent>
      <dc:title>Matplotlib v3.7.1, https://matplotlib.org/</dc:title>
     </cc:Agent>
    </dc:creator>
   </cc:Work>
  </rdf:RDF>
 </metadata>
 <defs>
  <style type="text/css">*{stroke-linejoin: round; stroke-linecap: butt}</style>
 </defs>
 <g id="figure_1">
  <g id="patch_1">
   <path d="M 0 432 
L 576 432 
L 576 0 
L 0 0 
z
" style="fill: #ffffff"/>
  </g>
  <g id="axes_1">
   <g id="patch_2">
    <path d="M 72 384.48 
L 518.4 384.48 
L 518.4 51.84 
L 72 51.84 
z
" style="fill: #ffffff"/>
   </g>
   <g id="matplotlib.axis_1">
    <g id="xtick_1">
     <g id="line2d_1">
      <defs>
       <path id="me2d0d9a181" d="M 0 0 
L 0 3.5 
" style="stroke: #000000; stroke-width: 0.8"/>
      </defs>
      <g>
       <use xlink:href="#me2d0d9a181" x="92.290909" y="384.48" style="stroke: #000000; stroke-width: 0.8"/>
      </g>
     </g>
     <g id="text_1">
      <!-- 0.0 -->
      <g transform="translate(84.339347 399.078438) scale(0.1 -0.1)">
       <defs>
        <path id="DejaVuSans-30" d="M 2034 4250 
Q 1547 4250 1301 3770 
Q 1056 3291 1056 2328 
Q 1056 1369 1301 889 
Q 1547 409 2034 409 
Q 2525 409 2770 889 
Q 3016 1369 3016 2328 
Q 3016 3291 2770 3770 
Q 2525 4250 2034 4250 
z
M 2034 4750 
Q 2819 4750 3233 4129 
Q 3647 3509 3647 2328 
Q 3647 1150 3233 529 
Q 2819 -91 2034 -91 
Q 1250 -91 836 529 
Q 422 1150 422 2328 
Q 422 3509 836 4129 
Q 1250 4750 2034 4750 
z
" transform="scale(0.015625)"/>
        <path id="DejaVuSans-2e" d="M 684 794 
L 1344 794 
L 1344 0 
L 684 0 
L 684 794 
z
" transform="scale(0.015625)"/>
       </defs>
       <use xlink:href="#DejaVuSans-30"/>
       <use xlink:href="#DejaVuSans-2e" x="63.623047"/>
       <use xlink:href="#DejaVuSans-30" x="95.410156"/>
      </g>
     </g>
    </g>
    <g id="xtick_2">
     <g id="line2d_2">
      <g>
       <use xlink:href="#me2d0d9a181" x="173.454545" y="384.48" style="stroke: #000000; stroke-width: 0.8"/>
      </g>
     </g>
     <g id="text_2">
      <!-- 0.2 -->
      <g transform="translate(165.502983 399.078438) scale(0.1 -0.1)">
       <defs>
        <path id="DejaVuSans-32" d="M 1228 531 
L 3431 531 
L 3431 0 
L 469 0 
L 469 531 
Q 828 903 1448 1529 
Q 2069 2156 2228 2338 
Q 2531 2678 2651 2914 
Q 2772 3150 2772 3378 
Q 2772 3750 2511 3984 
Q 2250 4219 1831 4219 
Q 1534 4219 1204 4116 
Q 875 4013 500 3803 
L 500 4441 
Q 881 4594 1212 4672 
Q 1544 4750 1819 4750 
Q 2544 4750 2975 4387 
Q 3406 4025 3406 3419 
Q 3406 3131 3298 2873 
Q 3191 2616 2906 2266 
Q 2828 2175 2409 1742 
Q 1991 1309 1228 531 
z
" transform="scale(0.015625)"/>
       </defs>
       <use xlink:href="#DejaVuSans-30"/>
       <use xlink:href="#DejaVuSans-2e" x="63.623047"/>
       <use xlink:href="#DejaVuSans-32" x="95.410156"/>
      </g>
     </g>
    </g>
    <g id="xtick_3">
     <g id="line2d_3">
      <g>
       <use xlink:href="#me2d0d9a181" x="254.618182" y="384.48" style="stroke: #000000; stroke-width: 0.8"/>
      </g>
     </g>
     <g id="text_3">
      <!-- 0.4 -->
      <g transform="translate(246.666619 399.078438) scale(0.1 -0.1)">
       <defs>
        <path id="DejaVuSans-34" d="M 2419 4116 
L 825 1625 
L 2419 1625 
L 2419 4116 
z
M 2253 4666 
L 3047 4666 
L 3047 1625 
L 3713 1625 
L 3713 1100 
L 3047 1100 
L 3047 0 
L 2419 0 
L 2419 1100 
L 313 1100 
L 313 1709 
L 2253 4666 
z
" transform="scale(0.015625)"/>
       </defs>
       <use xlink:href="#DejaVuSans-30"/>
       <use xlink:href="#DejaVuSans-2e" x="63.623047"/>
       <use xlink:href="#DejaVuSans-34" x="95.410156"/>
      </g>
     </g>
    </g>
    <g id="xtick_4">
     <g id="line2d_4">
      <g>
       <use xlink:href="#me2d0d9a181" x="335.781818" y="384.48" style="stroke: #000000; stroke-width: 0.8"/>
      </g>
     </g>
     <g id="text_4">
      <!-- 0.6 -->
      <g transform="translate(327.830256 399.078438) scale(0.1 -0.1)">
       <defs>
        <path id="DejaVuSans-36" d="M 2113 2584 
Q 1688 2584 1439 2293 
Q 1191 2003 1191 1497 
Q 1191 994 1439 701 
Q 1688 409 2113 409 
Q 2538 409 2786 701 
Q 3034 994 3034 1497 
Q 3034 2003 2786 2293 
Q 2538 2584 2113 2584 
z
M 3366 4563 
L 3366 3988 
Q 3128 4100 2886 4159 
Q 2644 4219 2406 4219 
Q 1781 4219 1451 3797 
Q 1122 3375 1075 2522 
Q 1259 2794 1537 2939 
Q 1816 3084 2150 3084 
Q 2853 3084 3261 2657 
Q 3669 2231 3669 1497 
Q 3669 778 3244 343 
Q 2819 -91 2113 -91 
Q 1303 -91 875 529 
Q 447 1150 447 2328 
Q 447 3434 972 4092 
Q 1497 4750 2381 4750 
Q 2619 4750 2861 4703 
Q 3103 4656 3366 4563 
z
" transform="scale(0.015625)"/>
       </defs>
       <use xlink:href="#DejaVuSans-30"/>
       <use xlink:href="#DejaVuSans-2e" x="63.623047"/>
       <use xlink:href="#DejaVuSans-36" x="95.410156"/>
      </g>
     </g>
    </g>
    <g id="xtick_5">
     <g id="line2d_5">
      <g>
       <use xlink:href="#me2d0d9a181" x="416.945455" y="384.48" style="stroke: #000000; stroke-width: 0.8"/>
      </g>
     </g>
     <g id="text_5">
      <!-- 0.8 -->
      <g transform="translate(408.993892 399.078438) scale(0.1 -0.1)">
       <defs>
        <path id="DejaVuSans-38" d="M 2034 2216 
Q 1584 2216 1326 1975 
Q 1069 1734 1069 1313 
Q 1069 891 1326 650 
Q 1584 409 2034 409 
Q 2484 409 2743 651 
Q 3003 894 3003 1313 
Q 3003 1734 2745 1975 
Q 2488 2216 2034 2216 
z
M 1403 2484 
Q 997 2584 770 2862 
Q 544 3141 544 3541 
Q 544 4100 942 4425 
Q 1341 4750 2034 4750 
Q 2731 4750 3128 4425 
Q 3525 4100 3525 3541 
Q 3525 3141 3298 2862 
Q 3072 2584 2669 2484 
Q 3125 2378 3379 2068 
Q 3634 1759 3634 1313 
Q 3634 634 3220 271 
Q 2806 -91 2034 -91 
Q 1263 -91 848 271 
Q 434 634 434 1313 
Q 434 1759 690 2068 
Q 947 2378 1403 2484 
z
M 1172 3481 
Q 1172 3119 1398 2916 
Q 1625 2713 2034 2713 
Q 2441 2713 2670 2916 
Q 2900 3119 2900 3481 
Q 2900 3844 2670 4047 
Q 2441 4250 2034 4250 
Q 1625 4250 1398 4047 
Q 1172 3844 1172 3481 
z
" transform="scale(0.015625)"/>
       </defs>
       <use xlink:href="#DejaVuSans-30"/>
       <use xlink:href="#DejaVuSans-2e" x="63.623047"/>
       <use xlink:href="#DejaVuSans-38" x="95.410156"/>
      </g>
     </g>
    </g>
    <g id="xtick_6">
     <g id="line2d_6">
      <g>
       <use xlink:href="#me2d0d9a181" x="498.109091" y="384.48" style="stroke: #000000; stroke-width: 0.8"/>
      </g>
     </g>
     <g id="text_6">
      <!-- 1.0 -->
      <g transform="translate(490.157528 399.078438) scale(0.1 -0.1)">
       <defs>
        <path id="DejaVuSans-31" d="M 794 531 
L 1825 531 
L 1825 4091 
L 703 3866 
L 703 4441 
L 1819 4666 
L 2450 4666 
L 2450 531 
L 3481 531 
L 3481 0 
L 794 0 
L 794 531 
z
" transform="scale(0.015625)"/>
       </defs>
       <use xlink:href="#DejaVuSans-31"/>
       <use xlink:href="#DejaVuSans-2e" x="63.623047"/>
       <use xlink:href="#DejaVuSans-30" x="95.410156"/>
      </g>
     </g>
    </g>
   </g>
   <g id="matplotlib.axis_2">
    <g id="ytick_1">
     <g id="line2d_7">
      <defs>
       <path id="m80b340672d" d="M 0 0 
L -3.5 0 
" style="stroke: #000000; stroke-width: 0.8"/>
      </defs>
      <g>
       <use xlink:href="#m80b340672d" x="72" y="369.36" style="stroke: #000000; stroke-width: 0.8"/>
      </g>
     </g>
     <g id="text_7">
      <!-- −5.0 -->
      <g transform="translate(40.717187 373.159219) scale(0.1 -0.1)">
       <defs>
        <path id="DejaVuSans-2212" d="M 678 2272 
L 4684 2272 
L 4684 1741 
L 678 1741 
L 678 2272 
z
" transform="scale(0.015625)"/>
        <path id="DejaVuSans-35" d="M 691 4666 
L 3169 4666 
L 3169 4134 
L 1269 4134 
L 1269 2991 
Q 1406 3038 1543 3061 
Q 1681 3084 1819 3084 
Q 2600 3084 3056 2656 
Q 3513 2228 3513 1497 
Q 3513 744 3044 326 
Q 2575 -91 1722 -91 
Q 1428 -91 1123 -41 
Q 819 9 494 109 
L 494 744 
Q 775 591 1075 516 
Q 1375 441 1709 441 
Q 2250 441 2565 725 
Q 2881 1009 2881 1497 
Q 2881 1984 2565 2268 
Q 2250 2553 1709 2553 
Q 1456 2553 1204 2497 
Q 953 2441 691 2322 
L 691 4666 
z
" transform="scale(0.015625)"/>
       </defs>
       <use xlink:href="#DejaVuSans-2212"/>
       <use xlink:href="#DejaVuSans-35" x="83.789062"/>
       <use xlink:href="#DejaVuSans-2e" x="147.412109"/>
       <use xlink:href="#DejaVuSans-30" x="179.199219"/>
      </g>
     </g>
    </g>
    <g id="ytick_2">
     <g id="line2d_8">
      <g>
       <use xlink:href="#m80b340672d" x="72" y="331.56" style="stroke: #000000; stroke-width: 0.8"/>
      </g>
     </g>
     <g id="text_8">
      <!-- −2.5 -->
      <g transform="translate(40.717187 335.359219) scale(0.1 -0.1)">
       <use xlink:href="#DejaVuSans-2212"/>
       <use xlink:href="#DejaVuSans-32" x="83.789062"/>
       <use xlink:href="#DejaVuSans-2e" x="147.412109"/>
       <use xlink:href="#DejaVuSans-35" x="179.199219"/>
      </g>
     </g>
    </g>
    <g id="ytick_3">
     <g id="line2d_9">
      <g>
       <use xlink:href="#m80b340672d" x="72" y="293.76" style="stroke: #000000; stroke-width: 0.8"/>
      </g>
     </g>
     <g id="text_9">
      <!-- 0.0 -->
      <g transform="translate(49.096875 297.559219) scale(0.1 -0.1)">
       <use xlink:href="#DejaVuSans-30"/>
       <use xlink:href="#DejaVuSans-2e" x="63.623047"/>
       <use xlink:href="#DejaVuSans-30" x="95.410156"/>
      </g>
     </g>
    </g>
    <g id="ytick_4">
     <g id="line2d_10">
      <g>
       <use xlink:href="#m80b340672d" x="72" y="255.96" style="stroke: #000000; stroke-width: 0.8"/>
      </g>
     </g>
     <g id="text_10">
      <!-- 2.5 -->
      <g transform="translate(49.096875 259.759219) scale(0.1 -0.1)">
       <use xlink:href="#DejaVuSans-32"/>
       <use xlink:href="#DejaVuSans-2e" x="63.623047"/>
       <use xlink:href="#DejaVuSans-35" x="95.410156"/>
      </g>
     </g>
    </g>
    <g id="ytick_5">
     <g id="line2d_11">
      <g>
       <use xlink:href="#m80b340672d" x="72" y="218.16" style="stroke: #000000; stroke-width: 0.8"/>
      </g>
     </g>
     <g id="text_11">
      <!-- 5.0 -->
      <g transform="translate(49.096875 221.959219) scale(0.1 -0.1)">
       <use xlink:href="#DejaVuSans-35"/>
       <use xlink:href="#DejaVuSans-2e" x="63.623047"/>
       <use xlink:href="#DejaVuSans-30" x="95.410156"/>
      </g>
     </g>
    </g>
    <g id="ytick_6">
     <g id="line2d_12">
      <g>
       <use xlink:href="#m80b340672d" x="72" y="180.36" style="stroke: #000000; stroke-width: 0.8"/>
      </g>
     </g>
     <g id="text_12">
      <!-- 7.5 -->
      <g transform="translate(49.096875 184.159219) scale(0.1 -0.1)">
       <defs>
        <path id="DejaVuSans-37" d="M 525 4666 
L 3525 4666 
L 3525 4397 
L 1831 0 
L 1172 0 
L 2766 4134 
L 525 4134 
L 525 4666 
z
" transform="scale(0.015625)"/>
       </defs>
       <use xlink:href="#DejaVuSans-37"/>
       <use xlink:href="#DejaVuSans-2e" x="63.623047"/>
       <use xlink:href="#DejaVuSans-35" x="95.410156"/>
      </g>
     </g>
    </g>
    <g id="ytick_7">
     <g id="line2d_13">
      <g>
       <use xlink:href="#m80b340672d" x="72" y="142.56" style="stroke: #000000; stroke-width: 0.8"/>
      </g>
     </g>
     <g id="text_13">
      <!-- 10.0 -->
      <g transform="translate(42.734375 146.359219) scale(0.1 -0.1)">
       <use xlink:href="#DejaVuSans-31"/>
       <use xlink:href="#DejaVuSans-30" x="63.623047"/>
       <use xlink:href="#DejaVuSans-2e" x="127.246094"/>
       <use xlink:href="#DejaVuSans-30" x="159.033203"/>
      </g>
     </g>
    </g>
    <g id="ytick_8">
     <g id="line2d_14">
      <g>
       <use xlink:href="#m80b340672d" x="72" y="104.76" style="stroke: #000000; stroke-width: 0.8"/>
      </g>
     </g>
     <g id="text_14">
      <!-- 12.5 -->
      <g transform="translate(42.734375 108.559219) scale(0.1 -0.1)">
       <use xlink:href="#DejaVuSans-31"/>
       <use xlink:href="#DejaVuSans-32" x="63.623047"/>
       <use xlink:href="#DejaVuSans-2e" x="127.246094"/>
       <use xlink:href="#DejaVuSans-35" x="159.033203"/>
      </g>
     </g>
    </g>
    <g id="ytick_9">
     <g id="line2d_15">
      <g>
       <use xlink:href="#m80b340672d" x="72" y="66.96" style="stroke: #000000; stroke-width: 0.8"/>
      </g>
     </g>
     <g id="text_15">
      <!-- 15.0 -->
      <g transform="translate(42.734375 70.759219) scale(0.1 -0.1)">
       <use xlink:href="#DejaVuSans-31"/>
       <use xlink:href="#DejaVuSans-35" x="63.623047"/>
       <use xlink:href="#DejaVuSans-2e" x="127.246094"/>
       <use xlink:href="#DejaVuSans-30" x="159.033203"/>
      </g>
     </g>
    </g>
   </g>
   <g id="line2d_16">
    <path d="M 92.290909 345.158928 
L 96.349091 345.155904 
L 100.407273 345.151368 
L 104.465455 345.140784 
L 108.523636 345.128688 
L 112.581818 345.112056 
L 116.64 345.090888 
L 120.698182 345.068208 
L 124.756364 345.040992 
L 128.814545 345.010752 
L 132.872727 344.979 
L 136.930909 344.942712 
L 140.989091 344.906424 
L 145.047273 344.8656 
L 149.105455 344.824776 
L 153.163636 344.78244 
L 157.221818 344.738592 
L 161.28 344.694744 
L 165.338182 344.649384 
L 169.396364 344.605536 
L 173.454545 344.561688 
L 177.512727 344.519352 
L 181.570909 344.478528 
L 185.629091 344.439216 
L 189.687273 344.402928 
L 193.745455 344.371176 
L 197.803636 344.342448 
L 201.861818 344.316744 
L 205.92 344.297088 
L 209.978182 344.28348 
L 214.036364 344.27592 
L 218.094545 344.274408 
L 222.152727 344.280456 
L 226.210909 344.294064 
L 230.269091 344.316744 
L 234.327273 344.346984 
L 238.385455 344.386296 
L 242.443636 344.43468 
L 246.501818 344.493648 
L 250.56 344.561688 
L 254.618182 344.640312 
L 258.676364 344.72952 
L 262.734545 344.8278 
L 266.792727 344.936664 
L 270.850909 345.056112 
L 274.909091 345.184632 
L 278.967273 345.322224 
L 283.025455 345.4704 
L 287.083636 345.627648 
L 291.141818 345.792456 
L 295.2 345.964824 
L 299.258182 346.146264 
L 303.316364 346.333752 
L 307.374545 346.5288 
L 311.432727 346.728384 
L 315.490909 346.934016 
L 319.549091 347.144184 
L 323.607273 347.358888 
L 327.665455 347.575104 
L 331.723636 347.795856 
L 335.781818 348.01812 
L 339.84 348.243408 
L 343.898182 348.467184 
L 347.956364 348.693984 
L 352.014545 348.919272 
L 356.072727 349.143048 
L 360.130909 349.366824 
L 364.189091 349.589088 
L 368.247273 349.808328 
L 372.305455 350.026056 
L 376.363636 350.239248 
L 380.421818 350.449416 
L 384.48 350.65656 
L 388.538182 350.859168 
L 392.596364 351.055728 
L 396.654545 351.249264 
L 400.712727 351.436752 
L 404.770909 351.618192 
L 408.829091 351.793584 
L 412.887273 351.96444 
L 416.945455 352.127736 
L 421.003636 352.283472 
L 425.061818 352.434672 
L 429.12 352.5768 
L 433.178182 352.71288 
L 437.236364 352.8414 
L 441.294545 352.96236 
L 445.352727 353.074248 
L 449.410909 353.180088 
L 453.469091 353.276856 
L 457.527273 353.366064 
L 461.585455 353.447712 
L 465.643636 353.520288 
L 469.701818 353.583792 
L 473.76 353.639736 
L 477.818182 353.68812 
L 481.876364 353.72592 
L 485.934545 353.75616 
L 489.992727 353.77884 
L 494.050909 353.790936 
L 498.109091 353.795472 
" clip-path="url(#p54e3ffce90)" style="fill: none; stroke: #000000; stroke-opacity: 0.5; stroke-linecap: square"/>
   </g>
   <g id="line2d_17">
    <path d="M 92.290909 291.783816 
L 96.349091 291.812544 
L 100.407273 291.894192 
L 104.465455 292.030272 
L 108.523636 292.216248 
L 112.581818 292.450608 
L 116.64 292.730328 
L 120.698182 293.050872 
L 124.756364 293.407704 
L 128.814545 293.7978 
L 132.872727 294.215112 
L 136.930909 294.658128 
L 140.989091 295.1208 
L 145.047273 295.600104 
L 149.105455 296.091504 
L 153.163636 296.593488 
L 157.221818 297.10152 
L 161.28 297.612576 
L 165.338182 298.125144 
L 169.396364 298.6362 
L 173.454545 299.144232 
L 177.512727 299.644704 
L 181.570909 300.137616 
L 185.629091 300.619944 
L 189.687273 301.091688 
L 193.745455 301.549824 
L 197.803636 301.99284 
L 201.861818 302.417712 
L 205.92 302.827464 
L 209.978182 303.216048 
L 214.036364 303.584976 
L 218.094545 303.931224 
L 222.152727 304.254792 
L 226.210909 304.55568 
L 230.269091 304.830864 
L 234.327273 305.081856 
L 238.385455 305.305632 
L 242.443636 305.502192 
L 246.501818 305.671536 
L 250.56 305.812152 
L 254.618182 305.92404 
L 258.676364 306.0072 
L 262.734545 306.061632 
L 266.792727 306.085824 
L 270.850909 306.081288 
L 274.909091 306.048024 
L 278.967273 305.98452 
L 283.025455 305.8938 
L 287.083636 305.77284 
L 291.141818 305.623152 
L 295.2 305.446248 
L 299.258182 305.242128 
L 303.316364 305.010792 
L 307.374545 304.75224 
L 311.432727 304.469496 
L 315.490909 304.159536 
L 319.549091 303.826896 
L 323.607273 303.470064 
L 327.665455 303.08904 
L 331.723636 302.686848 
L 335.781818 302.261976 
L 339.84 301.817448 
L 343.898182 301.351752 
L 347.956364 300.867912 
L 352.014545 300.364416 
L 356.072727 299.842776 
L 360.130909 299.306016 
L 364.189091 298.751112 
L 368.247273 298.1826 
L 372.305455 297.598968 
L 376.363636 297.001728 
L 380.421818 296.39088 
L 384.48 295.769448 
L 388.538182 295.13592 
L 392.596364 294.49332 
L 396.654545 293.841648 
L 400.712727 293.183928 
L 404.770909 292.518648 
L 408.829091 291.84732 
L 412.887273 291.172968 
L 416.945455 290.497104 
L 421.003636 289.82124 
L 425.061818 289.145376 
L 429.12 288.474048 
L 433.178182 287.808768 
L 437.236364 287.151048 
L 441.294545 286.505424 
L 445.352727 285.871896 
L 449.410909 285.258024 
L 453.469091 284.66532 
L 457.527273 284.096808 
L 461.585455 283.560048 
L 465.643636 283.058064 
L 469.701818 282.596904 
L 473.76 282.182616 
L 477.818182 281.818224 
L 481.876364 281.5128 
L 485.934545 281.267856 
L 489.992727 281.08944 
L 494.050909 280.982088 
L 498.109091 280.9458 
" clip-path="url(#p54e3ffce90)" style="fill: none; stroke: #000000; stroke-opacity: 0.5; stroke-linecap: square"/>
   </g>
   <g id="line2d_18">
    <path d="M 92.290909 261.363888 
L 96.349091 261.329112 
L 100.407273 261.223272 
L 104.465455 261.049392 
L 108.523636 260.807472 
L 112.581818 260.50356 
L 116.64 260.139168 
L 120.698182 259.718832 
L 124.756364 259.245576 
L 128.814545 258.72696 
L 132.872727 258.164496 
L 136.930909 257.56272 
L 140.989091 256.92768 
L 145.047273 256.263912 
L 149.105455 255.572928 
L 153.163636 254.859264 
L 157.221818 254.127456 
L 161.28 253.380528 
L 165.338182 252.619992 
L 169.396364 251.851896 
L 173.454545 251.07624 
L 177.512727 250.299072 
L 181.570909 249.51888 
L 185.629091 248.741712 
L 189.687273 247.96908 
L 193.745455 247.202496 
L 197.803636 246.444984 
L 201.861818 245.698056 
L 205.92 244.964736 
L 209.978182 244.245024 
L 214.036364 243.541944 
L 218.094545 242.857008 
L 222.152727 242.190216 
L 226.210909 241.544592 
L 230.269091 240.918624 
L 234.327273 240.315336 
L 238.385455 239.734728 
L 242.443636 239.175288 
L 246.501818 238.64004 
L 250.56 238.127472 
L 254.618182 237.637584 
L 258.676364 237.170376 
L 262.734545 236.725848 
L 266.792727 236.304 
L 270.850909 235.90332 
L 274.909091 235.52532 
L 278.967273 235.17 
L 283.025455 234.834336 
L 287.083636 234.521352 
L 291.141818 234.231048 
L 295.2 233.961912 
L 299.258182 233.716968 
L 303.316364 233.494704 
L 307.374545 233.296632 
L 311.432727 233.124264 
L 315.490909 232.979112 
L 319.549091 232.862688 
L 323.607273 232.776504 
L 327.665455 232.725096 
L 331.723636 232.709976 
L 335.781818 232.73568 
L 339.84 232.805232 
L 343.898182 232.921656 
L 347.956364 233.091 
L 352.014545 233.314776 
L 356.072727 233.592984 
L 360.130909 233.93016 
L 364.189091 234.32328 
L 368.247273 234.76932 
L 372.305455 235.26828 
L 376.363636 235.8126 
L 380.421818 236.400768 
L 384.48 237.026736 
L 388.538182 237.685968 
L 392.596364 238.373928 
L 396.654545 239.087592 
L 400.712727 239.822424 
L 404.770909 240.573888 
L 408.829091 241.340472 
L 412.887273 242.116128 
L 416.945455 242.899344 
L 421.003636 243.685584 
L 425.061818 244.471824 
L 429.12 245.256552 
L 433.178182 246.032208 
L 437.236364 246.798792 
L 441.294545 247.551768 
L 445.352727 248.2866 
L 449.410909 248.998752 
L 453.469091 249.683688 
L 457.527273 250.338384 
L 461.585455 250.95528 
L 465.643636 251.52984 
L 469.701818 252.056016 
L 473.76 252.52776 
L 477.818182 252.940536 
L 481.876364 253.286784 
L 485.934545 253.56348 
L 489.992727 253.764576 
L 494.050909 253.885536 
L 498.109091 253.92636 
" clip-path="url(#p54e3ffce90)" style="fill: none; stroke: #000000; stroke-opacity: 0.5; stroke-linecap: square"/>
   </g>
   <g id="line2d_19">
    <path d="M 92.290909 234.427608 
L 96.349091 234.42156 
L 100.407273 234.404928 
L 104.465455 234.3762 
L 108.523636 234.336888 
L 112.581818 234.28548 
L 116.64 234.223488 
L 120.698182 234.1494 
L 124.756364 234.063216 
L 128.814545 233.966448 
L 132.872727 233.859096 
L 136.930909 233.739648 
L 140.989091 233.608104 
L 145.047273 233.465976 
L 149.105455 233.311752 
L 153.163636 233.145432 
L 157.221818 232.968528 
L 161.28 232.778016 
L 165.338182 232.57692 
L 169.396364 232.36524 
L 173.454545 232.141464 
L 177.512727 231.905592 
L 181.570909 231.657624 
L 185.629091 231.399072 
L 189.687273 231.129936 
L 193.745455 230.850216 
L 197.803636 230.559912 
L 201.861818 230.259024 
L 205.92 229.950576 
L 209.978182 229.633056 
L 214.036364 229.307976 
L 218.094545 228.97836 
L 222.152727 228.642696 
L 226.210909 228.304008 
L 230.269091 227.963808 
L 234.327273 227.626632 
L 238.385455 227.290968 
L 242.443636 226.961352 
L 246.501818 226.639296 
L 250.56 226.329336 
L 254.618182 226.031472 
L 258.676364 225.75024 
L 262.734545 225.488664 
L 266.792727 225.248256 
L 270.850909 225.03204 
L 274.909091 224.841528 
L 278.967273 224.679744 
L 283.025455 224.5482 
L 287.083636 224.446896 
L 291.141818 224.377344 
L 295.2 224.342568 
L 299.258182 224.339544 
L 303.316364 224.369784 
L 307.374545 224.431776 
L 311.432727 224.52552 
L 315.490909 224.647992 
L 319.549091 224.79768 
L 323.607273 224.97156 
L 327.665455 225.165096 
L 331.723636 225.376776 
L 335.781818 225.59904 
L 339.84 225.827352 
L 343.898182 226.057176 
L 347.956364 226.282464 
L 352.014545 226.500192 
L 356.072727 226.7028 
L 360.130909 226.890288 
L 364.189091 227.059632 
L 368.247273 227.212344 
L 372.305455 227.348424 
L 376.363636 227.467872 
L 380.421818 227.575224 
L 384.48 227.67048 
L 388.538182 227.756664 
L 392.596364 227.833776 
L 396.654545 227.90484 
L 400.712727 227.971368 
L 404.770909 228.03336 
L 408.829091 228.092328 
L 412.887273 228.14676 
L 416.945455 228.19968 
L 421.003636 228.251088 
L 425.061818 228.299472 
L 429.12 228.346344 
L 433.178182 228.390192 
L 437.236364 228.432528 
L 441.294545 228.473352 
L 445.352727 228.512664 
L 449.410909 228.548952 
L 453.469091 228.582216 
L 457.527273 228.613968 
L 461.585455 228.642696 
L 465.643636 228.6684 
L 469.701818 228.692592 
L 473.76 228.712248 
L 477.818182 228.730392 
L 481.876364 228.744 
L 485.934545 228.756096 
L 489.992727 228.763656 
L 494.050909 228.768192 
L 498.109091 228.771216 
" clip-path="url(#p54e3ffce90)" style="fill: none; stroke: #000000; stroke-opacity: 0.5; stroke-linecap: square"/>
   </g>
   <g id="line2d_20">
    <path d="M 92.290909 157.442616 
L 96.349091 157.43808 
L 100.407273 157.427496 
L 104.465455 157.410864 
L 108.523636 157.386672 
L 112.581818 157.356432 
L 116.64 157.320144 
L 120.698182 157.280832 
L 124.756364 157.238496 
L 128.814545 157.194648 
L 132.872727 157.155336 
L 136.930909 157.12812 
L 140.989091 157.123584 
L 145.047273 157.167432 
L 149.105455 157.308048 
L 153.163636 157.601376 
L 157.221818 158.077656 
L 161.28 158.688504 
L 165.338182 159.374952 
L 169.396364 160.094664 
L 173.454545 160.823448 
L 177.512727 161.549208 
L 181.570909 162.267408 
L 185.629091 162.968976 
L 189.687273 163.655424 
L 193.745455 164.320704 
L 197.803636 164.963304 
L 201.861818 165.583224 
L 205.92 166.178952 
L 209.978182 166.748976 
L 214.036364 167.291784 
L 218.094545 167.805864 
L 222.152727 168.289704 
L 226.210909 168.744816 
L 230.269091 169.169688 
L 234.327273 169.562808 
L 238.385455 169.925688 
L 242.443636 170.255304 
L 246.501818 170.551656 
L 250.56 170.817768 
L 254.618182 171.052128 
L 258.676364 171.254736 
L 262.734545 171.427104 
L 266.792727 171.572256 
L 270.850909 171.68868 
L 274.909091 171.782424 
L 278.967273 171.851976 
L 283.025455 171.901872 
L 287.083636 171.935136 
L 291.141818 171.954792 
L 295.2 171.962352 
L 299.258182 171.963864 
L 303.316364 171.959328 
L 307.374545 171.951768 
L 311.432727 171.944208 
L 315.490909 171.935136 
L 319.549091 171.926064 
L 323.607273 171.913968 
L 327.665455 171.90036 
L 331.723636 171.880704 
L 335.781818 171.851976 
L 339.84 171.814176 
L 343.898182 171.762768 
L 347.956364 171.694728 
L 352.014545 171.607032 
L 356.072727 171.496656 
L 360.130909 171.3636 
L 364.189091 171.206352 
L 368.247273 171.020376 
L 372.305455 170.805672 
L 376.363636 170.563752 
L 380.421818 170.291592 
L 384.48 169.989192 
L 388.538182 169.656552 
L 392.596364 169.293672 
L 396.654545 168.902064 
L 400.712727 168.481728 
L 404.770909 168.034176 
L 408.829091 167.557896 
L 412.887273 167.057424 
L 416.945455 166.529736 
L 421.003636 165.98088 
L 425.061818 165.409344 
L 429.12 164.81664 
L 433.178182 164.207304 
L 437.236364 163.581336 
L 441.294545 162.94176 
L 445.352727 162.293112 
L 449.410909 161.636904 
L 453.469091 160.979184 
L 457.527273 160.322976 
L 461.585455 159.674328 
L 465.643636 159.042312 
L 469.701818 158.434488 
L 473.76 157.859928 
L 477.818182 157.33224 
L 481.876364 156.865032 
L 485.934545 156.474936 
L 489.992727 156.180096 
L 494.050909 155.99412 
L 498.109091 155.930616 
" clip-path="url(#p54e3ffce90)" style="fill: none; stroke: #000000; stroke-opacity: 0.5; stroke-linecap: square"/>
   </g>
   <g id="line2d_21">
    <path d="M 92.290909 145.792656 
L 96.349091 145.887912 
L 100.407273 146.164608 
L 104.465455 146.601576 
L 108.523636 147.16404 
L 112.581818 147.823272 
L 116.64 148.553568 
L 120.698182 149.330736 
L 124.756364 150.138144 
L 128.814545 150.960672 
L 132.872727 151.786224 
L 136.930909 152.601192 
L 140.989091 153.384408 
L 145.047273 154.108656 
L 149.105455 154.72404 
L 153.163636 155.17008 
L 157.221818 155.415024 
L 161.28 155.505744 
L 165.338182 155.499696 
L 169.396364 155.437704 
L 173.454545 155.34396 
L 177.512727 155.227536 
L 181.570909 155.095992 
L 185.629091 154.952352 
L 189.687273 154.801152 
L 193.745455 154.642392 
L 197.803636 154.479096 
L 201.861818 154.312776 
L 205.92 154.143432 
L 209.978182 153.974088 
L 214.036364 153.804744 
L 218.094545 153.636912 
L 222.152727 153.473616 
L 226.210909 153.316368 
L 230.269091 153.16668 
L 234.327273 153.029088 
L 238.385455 152.906616 
L 242.443636 152.802288 
L 246.501818 152.722152 
L 250.56 152.673768 
L 254.618182 152.661672 
L 258.676364 152.694936 
L 262.734545 152.779608 
L 266.792727 152.918712 
L 270.850909 153.112248 
L 274.909091 153.352656 
L 278.967273 153.629352 
L 283.025455 153.924192 
L 287.083636 154.223568 
L 291.141818 154.509336 
L 295.2 154.770912 
L 299.258182 154.994688 
L 303.316364 155.173104 
L 307.374545 155.300112 
L 311.432727 155.371176 
L 315.490909 155.386296 
L 319.549091 155.345472 
L 323.607273 155.250216 
L 327.665455 155.105064 
L 331.723636 154.917576 
L 335.781818 154.690776 
L 339.84 154.435248 
L 343.898182 154.160064 
L 347.956364 153.871272 
L 352.014545 153.577944 
L 356.072727 153.28764 
L 360.130909 153.00792 
L 364.189091 152.74332 
L 368.247273 152.499888 
L 372.305455 152.277624 
L 376.363636 152.07804 
L 380.421818 151.90416 
L 384.48 151.751448 
L 388.538182 151.622928 
L 392.596364 151.512552 
L 396.654545 151.423344 
L 400.712727 151.349256 
L 404.770909 151.2918 
L 408.829091 151.24644 
L 412.887273 151.213176 
L 416.945455 151.190496 
L 421.003636 151.175376 
L 425.061818 151.169328 
L 429.12 151.169328 
L 433.178182 151.176888 
L 437.236364 151.187472 
L 441.294545 151.202592 
L 445.352727 151.222248 
L 449.410909 151.244928 
L 453.469091 151.270632 
L 457.527273 151.297848 
L 461.585455 151.3296 
L 465.643636 151.362864 
L 469.701818 151.399152 
L 473.76 151.438464 
L 477.818182 151.479288 
L 481.876364 151.520112 
L 485.934545 151.559424 
L 489.992727 151.592688 
L 494.050909 151.615368 
L 498.109091 151.622928 
" clip-path="url(#p54e3ffce90)" style="fill: none; stroke: #000000; stroke-opacity: 0.5; stroke-linecap: square"/>
   </g>
   <g id="line2d_22">
    <path d="M 92.290909 132.25572 
L 96.349091 132.143832 
L 100.407273 131.820264 
L 104.465455 131.307696 
L 108.523636 130.636368 
L 112.581818 129.838032 
L 116.64 128.93688 
L 120.698182 127.957104 
L 124.756364 126.915336 
L 128.814545 125.823672 
L 132.872727 124.69572 
L 136.930909 123.542064 
L 140.989091 122.376312 
L 145.047273 121.222656 
L 149.105455 120.135528 
L 153.163636 119.272176 
L 157.221818 119.024208 
L 161.28 119.5776 
L 165.338182 120.536208 
L 169.396364 121.639968 
L 173.454545 122.804208 
L 177.512727 123.994152 
L 181.570909 125.196192 
L 185.629091 126.402768 
L 189.687273 127.607832 
L 193.745455 128.809872 
L 197.803636 130.004352 
L 201.861818 131.188248 
L 205.92 132.360048 
L 209.978182 133.516728 
L 214.036364 134.656776 
L 218.094545 135.775656 
L 222.152727 136.871856 
L 226.210909 137.942352 
L 230.269091 138.981096 
L 234.327273 139.986576 
L 238.385455 140.951232 
L 242.443636 141.870528 
L 246.501818 142.736904 
L 250.56 143.541288 
L 254.618182 144.274608 
L 258.676364 144.929304 
L 262.734545 145.491768 
L 266.792727 145.960488 
L 270.850909 146.329416 
L 274.909091 146.601576 
L 278.967273 146.789064 
L 283.025455 146.89944 
L 287.083636 146.947824 
L 291.141818 146.946312 
L 295.2 146.903976 
L 299.258182 146.826864 
L 303.316364 146.724048 
L 307.374545 146.59704 
L 311.432727 146.450376 
L 315.490909 146.284056 
L 319.549091 146.09808 
L 323.607273 145.892448 
L 327.665455 145.664136 
L 331.723636 145.413144 
L 335.781818 145.133424 
L 339.84 144.823464 
L 343.898182 144.48024 
L 347.956364 144.096192 
L 352.014545 143.67132 
L 356.072727 143.199576 
L 360.130909 142.679448 
L 364.189091 142.107912 
L 368.247273 141.48648 
L 372.305455 140.815152 
L 376.363636 140.093928 
L 380.421818 139.327344 
L 384.48 138.516912 
L 388.538182 137.66868 
L 392.596364 136.785672 
L 396.654545 135.872424 
L 400.712727 134.933472 
L 404.770909 133.973352 
L 408.829091 132.999624 
L 412.887273 132.016824 
L 416.945455 131.037048 
L 421.003636 130.072392 
L 425.061818 129.151584 
L 429.12 128.338128 
L 433.178182 127.7802 
L 437.236364 127.748448 
L 441.294545 128.295792 
L 445.352727 129.153096 
L 449.410909 130.120776 
L 453.469091 131.115672 
L 457.527273 132.099984 
L 461.585455 133.052544 
L 465.643636 133.959744 
L 469.701818 134.809488 
L 473.76 135.588168 
L 477.818182 136.282176 
L 481.876364 136.879416 
L 485.934545 137.363256 
L 489.992727 137.7216 
L 494.050909 137.942352 
L 498.109091 138.01644 
" clip-path="url(#p54e3ffce90)" style="fill: none; stroke: #000000; stroke-opacity: 0.5; stroke-linecap: square"/>
   </g>
   <g id="line2d_23">
    <path d="M 92.290909 103.556448 
L 96.349091 103.644144 
L 100.407273 103.90572 
L 104.465455 104.327568 
L 108.523636 104.893056 
L 112.581818 105.585552 
L 116.64 106.382376 
L 120.698182 107.266896 
L 124.756364 108.22248 
L 128.814545 109.232496 
L 132.872727 110.284848 
L 136.930909 111.362904 
L 140.989091 112.453056 
L 145.047273 113.528088 
L 149.105455 114.532056 
L 153.163636 115.3062 
L 157.221818 115.455888 
L 161.28 114.796656 
L 165.338182 113.720112 
L 169.396364 112.487832 
L 173.454545 111.184488 
L 177.512727 109.841832 
L 181.570909 108.474984 
L 185.629091 107.089992 
L 189.687273 105.691392 
L 193.745455 104.28372 
L 197.803636 102.87 
L 201.861818 101.453256 
L 205.92 100.036512 
L 209.978182 98.622792 
L 214.036364 97.21512 
L 218.094545 95.818032 
L 222.152727 94.436064 
L 226.210909 93.076776 
L 230.269091 91.746216 
L 234.327273 90.453456 
L 238.385455 89.210592 
L 242.443636 88.02972 
L 246.501818 86.92596 
L 250.56 85.915944 
L 254.618182 85.017816 
L 258.676364 84.245184 
L 262.734545 83.608632 
L 266.792727 83.112696 
L 270.850909 82.75284 
L 274.909091 82.524528 
L 278.967273 82.417176 
L 283.025455 82.421712 
L 287.083636 82.530576 
L 291.141818 82.743768 
L 295.2 83.061288 
L 299.258182 83.484648 
L 303.316364 84.018384 
L 307.374545 84.664008 
L 311.432727 85.423032 
L 315.490909 86.29092 
L 319.549091 87.2586 
L 323.607273 88.317 
L 327.665455 89.454024 
L 331.723636 90.656064 
L 335.781818 91.914048 
L 339.84 93.21588 
L 343.898182 94.554 
L 347.956364 95.917824 
L 352.014545 97.30584 
L 356.072727 98.707464 
L 360.130909 100.121184 
L 364.189091 101.542464 
L 368.247273 102.966768 
L 372.305455 104.392584 
L 376.363636 105.816888 
L 380.421818 107.238168 
L 384.48 108.6534 
L 388.538182 110.05956 
L 392.596364 111.456648 
L 396.654545 112.840128 
L 400.712727 114.211512 
L 404.770909 115.564752 
L 408.829091 116.896824 
L 412.887273 118.204704 
L 416.945455 119.47932 
L 421.003636 120.710088 
L 425.061818 121.86828 
L 429.12 122.894928 
L 433.178182 123.641856 
L 437.236364 123.84144 
L 441.294545 123.44076 
L 445.352727 122.711976 
L 449.410909 121.856184 
L 453.469091 120.958056 
L 457.527273 120.058416 
L 461.585455 119.17692 
L 465.643636 118.333224 
L 469.701818 117.537912 
L 473.76 116.809128 
L 477.818182 116.155944 
L 481.876364 115.596504 
L 485.934545 115.142904 
L 489.992727 114.808752 
L 494.050909 114.60312 
L 498.109091 114.53508 
" clip-path="url(#p54e3ffce90)" style="fill: none; stroke: #000000; stroke-opacity: 0.5; stroke-linecap: square"/>
   </g>
   <g id="patch_3">
    <path d="M 72 384.48 
L 72 51.84 
" style="fill: none; stroke: #000000; stroke-width: 0.8; stroke-linejoin: miter; stroke-linecap: square"/>
   </g>
   <g id="patch_4">
    <path d="M 518.4 384.48 
L 518.4 51.84 
" style="fill: none; stroke: #000000; stroke-width: 0.8; stroke-linejoin: miter; stroke-linecap: square"/>
   </g>
   <g id="patch_5">
    <path d="M 72 384.48 
L 518.4 384.48 
" style="fill: none; stroke: #000000; stroke-width: 0.8; stroke-linejoin: miter; stroke-linecap: square"/>
   </g>
   <g id="patch_6">
    <path d="M 72 51.84 
L 518.4 51.84 
" style="fill: none; stroke: #000000; stroke-width: 0.8; stroke-linejoin: miter; stroke-linecap: square"/>
   </g>
  </g>
 </g>
 <defs>
  <clipPath id="p54e3ffce90">
   <rect x="72" y="51.84" width="446.4" height="332.64"/>
  </clipPath>
 </defs>
</svg>
