<?xml version="1.0" encoding="utf-8" standalone="no"?>
<!DOCTYPE svg PUBLIC "-//W3C//DTD SVG 1.1//EN"
  "http://www.w3.org/Graphics/SVG/1.1/DTD/svg11.dtd">
<svg xmlns:xlink="http://www.w3.org/1999/xlink" width="576pt" height="432pt" viewBox="0 0 576 432" xmlns="http://www.w3.org/2000/svg" version="1.1">
 <metadata>
  <rdf:RDF xmlns:dc="http://purl.org/dc/elements/1.1/" xmlns:cc="http://creativecommons.org/ns#" xmlns:rdf="http://www.w3.org/1999/02/22-rdf-syntax-ns#">
   <cc:Work>
    <dc:type rdf:resource="http://purl.org/dc/dcmitype/StillImage"/>
    <dc:date>2023-05-02T19:28:05.092928</dc:date>
    <dc:format>image/svg+xml</dc:format>
    <dc:creator>
     <cc:Agent>
      <dc:title>Matplotlib v3.7.1, https://matplotlib.org/</dc:title>
     </cc:Agent>
    </dc:creator>
   </cc:Work>
  </rdf:RDF>
 </metadata>
 <defs>
  <style type="text/css">*{stroke-linejoin: round; stroke-linecap: butt}</style>
 </defs>
 <g id="figure_1">
  <g id="patch_1">
   <path d="M 0 432 
L 576 432 
L 576 0 
L 0 0 
z
" style="fill: #ffffff"/>
  </g>
  <g id="axes_1">
   <g id="patch_2">
    <path d="M 72 384.48 
L 518.4 384.48 
L 518.4 51.84 
L 72 51.84 
z
" style="fill: #ffffff"/>
   </g>
   <g id="matplotlib.axis_1">
    <g id="xtick_1">
     <g id="line2d_1">
      <defs>
       <path id="m72d7ad85be" d="M 0 0 
L 0 3.5 
" style="stroke: #000000; stroke-width: 0.8"/>
      </defs>
      <g>
       <use xlink:href="#m72d7ad85be" x="92.290909" y="384.48" style="stroke: #000000; stroke-width: 0.8"/>
      </g>
     </g>
     <g id="text_1">
      <!-- 0.0 -->
      <g transform="translate(84.339347 399.078438) scale(0.1 -0.1)">
       <defs>
        <path id="DejaVuSans-30" d="M 2034 4250 
Q 1547 4250 1301 3770 
Q 1056 3291 1056 2328 
Q 1056 1369 1301 889 
Q 1547 409 2034 409 
Q 2525 409 2770 889 
Q 3016 1369 3016 2328 
Q 3016 3291 2770 3770 
Q 2525 4250 2034 4250 
z
M 2034 4750 
Q 2819 4750 3233 4129 
Q 3647 3509 3647 2328 
Q 3647 1150 3233 529 
Q 2819 -91 2034 -91 
Q 1250 -91 836 529 
Q 422 1150 422 2328 
Q 422 3509 836 4129 
Q 1250 4750 2034 4750 
z
" transform="scale(0.015625)"/>
        <path id="DejaVuSans-2e" d="M 684 794 
L 1344 794 
L 1344 0 
L 684 0 
L 684 794 
z
" transform="scale(0.015625)"/>
       </defs>
       <use xlink:href="#DejaVuSans-30"/>
       <use xlink:href="#DejaVuSans-2e" x="63.623047"/>
       <use xlink:href="#DejaVuSans-30" x="95.410156"/>
      </g>
     </g>
    </g>
    <g id="xtick_2">
     <g id="line2d_2">
      <g>
       <use xlink:href="#m72d7ad85be" x="173.454545" y="384.48" style="stroke: #000000; stroke-width: 0.8"/>
      </g>
     </g>
     <g id="text_2">
      <!-- 0.2 -->
      <g transform="translate(165.502983 399.078438) scale(0.1 -0.1)">
       <defs>
        <path id="DejaVuSans-32" d="M 1228 531 
L 3431 531 
L 3431 0 
L 469 0 
L 469 531 
Q 828 903 1448 1529 
Q 2069 2156 2228 2338 
Q 2531 2678 2651 2914 
Q 2772 3150 2772 3378 
Q 2772 3750 2511 3984 
Q 2250 4219 1831 4219 
Q 1534 4219 1204 4116 
Q 875 4013 500 3803 
L 500 4441 
Q 881 4594 1212 4672 
Q 1544 4750 1819 4750 
Q 2544 4750 2975 4387 
Q 3406 4025 3406 3419 
Q 3406 3131 3298 2873 
Q 3191 2616 2906 2266 
Q 2828 2175 2409 1742 
Q 1991 1309 1228 531 
z
" transform="scale(0.015625)"/>
       </defs>
       <use xlink:href="#DejaVuSans-30"/>
       <use xlink:href="#DejaVuSans-2e" x="63.623047"/>
       <use xlink:href="#DejaVuSans-32" x="95.410156"/>
      </g>
     </g>
    </g>
    <g id="xtick_3">
     <g id="line2d_3">
      <g>
       <use xlink:href="#m72d7ad85be" x="254.618182" y="384.48" style="stroke: #000000; stroke-width: 0.8"/>
      </g>
     </g>
     <g id="text_3">
      <!-- 0.4 -->
      <g transform="translate(246.666619 399.078438) scale(0.1 -0.1)">
       <defs>
        <path id="DejaVuSans-34" d="M 2419 4116 
L 825 1625 
L 2419 1625 
L 2419 4116 
z
M 2253 4666 
L 3047 4666 
L 3047 1625 
L 3713 1625 
L 3713 1100 
L 3047 1100 
L 3047 0 
L 2419 0 
L 2419 1100 
L 313 1100 
L 313 1709 
L 2253 4666 
z
" transform="scale(0.015625)"/>
       </defs>
       <use xlink:href="#DejaVuSans-30"/>
       <use xlink:href="#DejaVuSans-2e" x="63.623047"/>
       <use xlink:href="#DejaVuSans-34" x="95.410156"/>
      </g>
     </g>
    </g>
    <g id="xtick_4">
     <g id="line2d_4">
      <g>
       <use xlink:href="#m72d7ad85be" x="335.781818" y="384.48" style="stroke: #000000; stroke-width: 0.8"/>
      </g>
     </g>
     <g id="text_4">
      <!-- 0.6 -->
      <g transform="translate(327.830256 399.078438) scale(0.1 -0.1)">
       <defs>
        <path id="DejaVuSans-36" d="M 2113 2584 
Q 1688 2584 1439 2293 
Q 1191 2003 1191 1497 
Q 1191 994 1439 701 
Q 1688 409 2113 409 
Q 2538 409 2786 701 
Q 3034 994 3034 1497 
Q 3034 2003 2786 2293 
Q 2538 2584 2113 2584 
z
M 3366 4563 
L 3366 3988 
Q 3128 4100 2886 4159 
Q 2644 4219 2406 4219 
Q 1781 4219 1451 3797 
Q 1122 3375 1075 2522 
Q 1259 2794 1537 2939 
Q 1816 3084 2150 3084 
Q 2853 3084 3261 2657 
Q 3669 2231 3669 1497 
Q 3669 778 3244 343 
Q 2819 -91 2113 -91 
Q 1303 -91 875 529 
Q 447 1150 447 2328 
Q 447 3434 972 4092 
Q 1497 4750 2381 4750 
Q 2619 4750 2861 4703 
Q 3103 4656 3366 4563 
z
" transform="scale(0.015625)"/>
       </defs>
       <use xlink:href="#DejaVuSans-30"/>
       <use xlink:href="#DejaVuSans-2e" x="63.623047"/>
       <use xlink:href="#DejaVuSans-36" x="95.410156"/>
      </g>
     </g>
    </g>
    <g id="xtick_5">
     <g id="line2d_5">
      <g>
       <use xlink:href="#m72d7ad85be" x="416.945455" y="384.48" style="stroke: #000000; stroke-width: 0.8"/>
      </g>
     </g>
     <g id="text_5">
      <!-- 0.8 -->
      <g transform="translate(408.993892 399.078438) scale(0.1 -0.1)">
       <defs>
        <path id="DejaVuSans-38" d="M 2034 2216 
Q 1584 2216 1326 1975 
Q 1069 1734 1069 1313 
Q 1069 891 1326 650 
Q 1584 409 2034 409 
Q 2484 409 2743 651 
Q 3003 894 3003 1313 
Q 3003 1734 2745 1975 
Q 2488 2216 2034 2216 
z
M 1403 2484 
Q 997 2584 770 2862 
Q 544 3141 544 3541 
Q 544 4100 942 4425 
Q 1341 4750 2034 4750 
Q 2731 4750 3128 4425 
Q 3525 4100 3525 3541 
Q 3525 3141 3298 2862 
Q 3072 2584 2669 2484 
Q 3125 2378 3379 2068 
Q 3634 1759 3634 1313 
Q 3634 634 3220 271 
Q 2806 -91 2034 -91 
Q 1263 -91 848 271 
Q 434 634 434 1313 
Q 434 1759 690 2068 
Q 947 2378 1403 2484 
z
M 1172 3481 
Q 1172 3119 1398 2916 
Q 1625 2713 2034 2713 
Q 2441 2713 2670 2916 
Q 2900 3119 2900 3481 
Q 2900 3844 2670 4047 
Q 2441 4250 2034 4250 
Q 1625 4250 1398 4047 
Q 1172 3844 1172 3481 
z
" transform="scale(0.015625)"/>
       </defs>
       <use xlink:href="#DejaVuSans-30"/>
       <use xlink:href="#DejaVuSans-2e" x="63.623047"/>
       <use xlink:href="#DejaVuSans-38" x="95.410156"/>
      </g>
     </g>
    </g>
    <g id="xtick_6">
     <g id="line2d_6">
      <g>
       <use xlink:href="#m72d7ad85be" x="498.109091" y="384.48" style="stroke: #000000; stroke-width: 0.8"/>
      </g>
     </g>
     <g id="text_6">
      <!-- 1.0 -->
      <g transform="translate(490.157528 399.078438) scale(0.1 -0.1)">
       <defs>
        <path id="DejaVuSans-31" d="M 794 531 
L 1825 531 
L 1825 4091 
L 703 3866 
L 703 4441 
L 1819 4666 
L 2450 4666 
L 2450 531 
L 3481 531 
L 3481 0 
L 794 0 
L 794 531 
z
" transform="scale(0.015625)"/>
       </defs>
       <use xlink:href="#DejaVuSans-31"/>
       <use xlink:href="#DejaVuSans-2e" x="63.623047"/>
       <use xlink:href="#DejaVuSans-30" x="95.410156"/>
      </g>
     </g>
    </g>
   </g>
   <g id="matplotlib.axis_2">
    <g id="ytick_1">
     <g id="line2d_7">
      <defs>
       <path id="me2a1fe4d80" d="M 0 0 
L -3.5 0 
" style="stroke: #000000; stroke-width: 0.8"/>
      </defs>
      <g>
       <use xlink:href="#me2a1fe4d80" x="72" y="369.36" style="stroke: #000000; stroke-width: 0.8"/>
      </g>
     </g>
     <g id="text_7">
      <!-- −5.0 -->
      <g transform="translate(40.717187 373.159219) scale(0.1 -0.1)">
       <defs>
        <path id="DejaVuSans-2212" d="M 678 2272 
L 4684 2272 
L 4684 1741 
L 678 1741 
L 678 2272 
z
" transform="scale(0.015625)"/>
        <path id="DejaVuSans-35" d="M 691 4666 
L 3169 4666 
L 3169 4134 
L 1269 4134 
L 1269 2991 
Q 1406 3038 1543 3061 
Q 1681 3084 1819 3084 
Q 2600 3084 3056 2656 
Q 3513 2228 3513 1497 
Q 3513 744 3044 326 
Q 2575 -91 1722 -91 
Q 1428 -91 1123 -41 
Q 819 9 494 109 
L 494 744 
Q 775 591 1075 516 
Q 1375 441 1709 441 
Q 2250 441 2565 725 
Q 2881 1009 2881 1497 
Q 2881 1984 2565 2268 
Q 2250 2553 1709 2553 
Q 1456 2553 1204 2497 
Q 953 2441 691 2322 
L 691 4666 
z
" transform="scale(0.015625)"/>
       </defs>
       <use xlink:href="#DejaVuSans-2212"/>
       <use xlink:href="#DejaVuSans-35" x="83.789062"/>
       <use xlink:href="#DejaVuSans-2e" x="147.412109"/>
       <use xlink:href="#DejaVuSans-30" x="179.199219"/>
      </g>
     </g>
    </g>
    <g id="ytick_2">
     <g id="line2d_8">
      <g>
       <use xlink:href="#me2a1fe4d80" x="72" y="331.56" style="stroke: #000000; stroke-width: 0.8"/>
      </g>
     </g>
     <g id="text_8">
      <!-- −2.5 -->
      <g transform="translate(40.717187 335.359219) scale(0.1 -0.1)">
       <use xlink:href="#DejaVuSans-2212"/>
       <use xlink:href="#DejaVuSans-32" x="83.789062"/>
       <use xlink:href="#DejaVuSans-2e" x="147.412109"/>
       <use xlink:href="#DejaVuSans-35" x="179.199219"/>
      </g>
     </g>
    </g>
    <g id="ytick_3">
     <g id="line2d_9">
      <g>
       <use xlink:href="#me2a1fe4d80" x="72" y="293.76" style="stroke: #000000; stroke-width: 0.8"/>
      </g>
     </g>
     <g id="text_9">
      <!-- 0.0 -->
      <g transform="translate(49.096875 297.559219) scale(0.1 -0.1)">
       <use xlink:href="#DejaVuSans-30"/>
       <use xlink:href="#DejaVuSans-2e" x="63.623047"/>
       <use xlink:href="#DejaVuSans-30" x="95.410156"/>
      </g>
     </g>
    </g>
    <g id="ytick_4">
     <g id="line2d_10">
      <g>
       <use xlink:href="#me2a1fe4d80" x="72" y="255.96" style="stroke: #000000; stroke-width: 0.8"/>
      </g>
     </g>
     <g id="text_10">
      <!-- 2.5 -->
      <g transform="translate(49.096875 259.759219) scale(0.1 -0.1)">
       <use xlink:href="#DejaVuSans-32"/>
       <use xlink:href="#DejaVuSans-2e" x="63.623047"/>
       <use xlink:href="#DejaVuSans-35" x="95.410156"/>
      </g>
     </g>
    </g>
    <g id="ytick_5">
     <g id="line2d_11">
      <g>
       <use xlink:href="#me2a1fe4d80" x="72" y="218.16" style="stroke: #000000; stroke-width: 0.8"/>
      </g>
     </g>
     <g id="text_11">
      <!-- 5.0 -->
      <g transform="translate(49.096875 221.959219) scale(0.1 -0.1)">
       <use xlink:href="#DejaVuSans-35"/>
       <use xlink:href="#DejaVuSans-2e" x="63.623047"/>
       <use xlink:href="#DejaVuSans-30" x="95.410156"/>
      </g>
     </g>
    </g>
    <g id="ytick_6">
     <g id="line2d_12">
      <g>
       <use xlink:href="#me2a1fe4d80" x="72" y="180.36" style="stroke: #000000; stroke-width: 0.8"/>
      </g>
     </g>
     <g id="text_12">
      <!-- 7.5 -->
      <g transform="translate(49.096875 184.159219) scale(0.1 -0.1)">
       <defs>
        <path id="DejaVuSans-37" d="M 525 4666 
L 3525 4666 
L 3525 4397 
L 1831 0 
L 1172 0 
L 2766 4134 
L 525 4134 
L 525 4666 
z
" transform="scale(0.015625)"/>
       </defs>
       <use xlink:href="#DejaVuSans-37"/>
       <use xlink:href="#DejaVuSans-2e" x="63.623047"/>
       <use xlink:href="#DejaVuSans-35" x="95.410156"/>
      </g>
     </g>
    </g>
    <g id="ytick_7">
     <g id="line2d_13">
      <g>
       <use xlink:href="#me2a1fe4d80" x="72" y="142.56" style="stroke: #000000; stroke-width: 0.8"/>
      </g>
     </g>
     <g id="text_13">
      <!-- 10.0 -->
      <g transform="translate(42.734375 146.359219) scale(0.1 -0.1)">
       <use xlink:href="#DejaVuSans-31"/>
       <use xlink:href="#DejaVuSans-30" x="63.623047"/>
       <use xlink:href="#DejaVuSans-2e" x="127.246094"/>
       <use xlink:href="#DejaVuSans-30" x="159.033203"/>
      </g>
     </g>
    </g>
    <g id="ytick_8">
     <g id="line2d_14">
      <g>
       <use xlink:href="#me2a1fe4d80" x="72" y="104.76" style="stroke: #000000; stroke-width: 0.8"/>
      </g>
     </g>
     <g id="text_14">
      <!-- 12.5 -->
      <g transform="translate(42.734375 108.559219) scale(0.1 -0.1)">
       <use xlink:href="#DejaVuSans-31"/>
       <use xlink:href="#DejaVuSans-32" x="63.623047"/>
       <use xlink:href="#DejaVuSans-2e" x="127.246094"/>
       <use xlink:href="#DejaVuSans-35" x="159.033203"/>
      </g>
     </g>
    </g>
    <g id="ytick_9">
     <g id="line2d_15">
      <g>
       <use xlink:href="#me2a1fe4d80" x="72" y="66.96" style="stroke: #000000; stroke-width: 0.8"/>
      </g>
     </g>
     <g id="text_15">
      <!-- 15.0 -->
      <g transform="translate(42.734375 70.759219) scale(0.1 -0.1)">
       <use xlink:href="#DejaVuSans-31"/>
       <use xlink:href="#DejaVuSans-35" x="63.623047"/>
       <use xlink:href="#DejaVuSans-2e" x="127.246094"/>
       <use xlink:href="#DejaVuSans-30" x="159.033203"/>
      </g>
     </g>
    </g>
   </g>
   <g id="line2d_16">
    <path d="M 92.290909 364.547304 
L 96.349091 364.541256 
L 100.407273 364.523112 
L 104.465455 364.494384 
L 108.523636 364.455072 
L 112.581818 364.403664 
L 116.64 364.34016 
L 120.698182 364.26456 
L 124.756364 364.178376 
L 128.814545 364.081608 
L 132.872727 363.972744 
L 136.930909 363.851784 
L 140.989091 363.72024 
L 145.047273 363.578112 
L 149.105455 363.423888 
L 153.163636 363.257568 
L 157.221818 363.080664 
L 161.28 362.893176 
L 165.338182 362.693592 
L 169.396364 362.483424 
L 173.454545 362.262672 
L 177.512727 362.029824 
L 181.570909 361.787904 
L 185.629091 361.533888 
L 189.687273 361.267776 
L 193.745455 360.992592 
L 197.803636 360.706824 
L 201.861818 360.40896 
L 205.92 360.102024 
L 209.978182 359.784504 
L 214.036364 359.4564 
L 218.094545 359.117712 
L 222.152727 358.76844 
L 226.210909 358.410096 
L 230.269091 358.041168 
L 234.327273 357.663168 
L 238.385455 357.274584 
L 242.443636 356.876928 
L 246.501818 356.468688 
L 250.56 356.051376 
L 254.618182 355.626504 
L 258.676364 355.191048 
L 262.734545 354.74652 
L 266.792727 354.294432 
L 270.850909 353.833272 
L 274.909091 353.36304 
L 278.967273 352.885248 
L 283.025455 352.399896 
L 287.083636 351.905472 
L 291.141818 351.405 
L 295.2 350.896968 
L 299.258182 350.381376 
L 303.316364 349.858224 
L 307.374545 349.330536 
L 311.432727 348.795288 
L 315.490909 348.253992 
L 319.549091 347.70816 
L 323.607273 347.15628 
L 327.665455 346.599864 
L 331.723636 346.0374 
L 335.781818 345.473424 
L 339.84 344.9034 
L 343.898182 344.331864 
L 347.956364 343.755792 
L 352.014545 343.178208 
L 356.072727 342.599112 
L 360.130909 342.018504 
L 364.189091 341.437896 
L 368.247273 340.857288 
L 372.305455 340.27668 
L 376.363636 339.697584 
L 380.421818 339.12 
L 384.48 338.54544 
L 388.538182 337.973904 
L 392.596364 337.408416 
L 396.654545 336.845952 
L 400.712727 336.291048 
L 404.770909 335.743704 
L 408.829091 335.20392 
L 412.887273 334.673208 
L 416.945455 334.15308 
L 421.003636 333.645048 
L 425.061818 333.150624 
L 429.12 332.669808 
L 433.178182 332.204112 
L 437.236364 331.75656 
L 441.294545 331.327152 
L 445.352727 330.9174 
L 449.410909 330.528816 
L 453.469091 330.164424 
L 457.527273 329.824224 
L 461.585455 329.51124 
L 465.643636 329.225472 
L 469.701818 328.968432 
L 473.76 328.743144 
L 477.818182 328.549608 
L 481.876364 328.389336 
L 485.934545 328.26384 
L 489.992727 328.174632 
L 494.050909 328.1202 
L 498.109091 328.102056 
" clip-path="url(#p3a734dc835)" style="fill: none; stroke: #000000; stroke-opacity: 0.5; stroke-linecap: square"/>
   </g>
   <g id="line2d_17">
    <path d="M 92.290909 260.615448 
L 96.349091 260.651736 
L 100.407273 260.759088 
L 104.465455 260.93448 
L 108.523636 261.174888 
L 112.581818 261.4788 
L 116.64 261.838656 
L 120.698182 262.252944 
L 124.756364 262.714104 
L 128.814545 263.2176 
L 132.872727 263.760408 
L 136.930909 264.33648 
L 140.989091 264.94128 
L 145.047273 265.571784 
L 149.105455 266.224968 
L 153.163636 266.896296 
L 157.221818 267.584256 
L 161.28 268.285824 
L 165.338182 268.999488 
L 169.396364 269.722224 
L 173.454545 270.45252 
L 177.512727 271.188864 
L 181.570909 271.929744 
L 185.629091 272.673648 
L 189.687273 273.420576 
L 193.745455 274.167504 
L 197.803636 274.914432 
L 201.861818 275.66136 
L 205.92 276.406776 
L 209.978182 277.15068 
L 214.036364 277.89156 
L 218.094545 278.627904 
L 222.152727 279.361224 
L 226.210909 280.088496 
L 230.269091 280.812744 
L 234.327273 281.529432 
L 238.385455 282.241584 
L 242.443636 282.947688 
L 246.501818 283.647744 
L 250.56 284.34024 
L 254.618182 285.025176 
L 258.676364 285.704064 
L 262.734545 286.375392 
L 266.792727 287.037648 
L 270.850909 287.692344 
L 274.909091 288.33948 
L 278.967273 288.977544 
L 283.025455 289.606536 
L 287.083636 290.227968 
L 291.141818 290.838816 
L 295.2 291.442104 
L 299.258182 292.03632 
L 303.316364 292.621464 
L 307.374545 293.196024 
L 311.432727 293.761512 
L 315.490909 294.317928 
L 319.549091 294.865272 
L 323.607273 295.402032 
L 327.665455 295.92972 
L 331.723636 296.446824 
L 335.781818 296.954856 
L 339.84 297.452304 
L 343.898182 297.939168 
L 347.956364 298.41696 
L 352.014545 298.88568 
L 356.072727 299.343816 
L 360.130909 299.791368 
L 364.189091 300.229848 
L 368.247273 300.657744 
L 372.305455 301.075056 
L 376.363636 301.481784 
L 380.421818 301.87944 
L 384.48 302.268024 
L 388.538182 302.644512 
L 392.596364 303.011928 
L 396.654545 303.36876 
L 400.712727 303.715008 
L 404.770909 304.052184 
L 408.829091 304.377264 
L 412.887273 304.693272 
L 416.945455 304.997184 
L 421.003636 305.290512 
L 425.061818 305.574768 
L 429.12 305.845416 
L 433.178182 306.10548 
L 437.236364 306.353448 
L 441.294545 306.590832 
L 445.352727 306.813096 
L 449.410909 307.023264 
L 453.469091 307.221336 
L 457.527273 307.402776 
L 461.585455 307.57212 
L 465.643636 307.72332 
L 469.701818 307.860912 
L 473.76 307.98036 
L 477.818182 308.083176 
L 481.876364 308.167848 
L 485.934545 308.234376 
L 489.992727 308.28276 
L 494.050909 308.311488 
L 498.109091 308.32056 
" clip-path="url(#p3a734dc835)" style="fill: none; stroke: #000000; stroke-opacity: 0.5; stroke-linecap: square"/>
   </g>
   <g id="line2d_18">
    <path d="M 92.290909 236.7198 
L 96.349091 236.68956 
L 100.407273 236.600352 
L 104.465455 236.452176 
L 108.523636 236.25108 
L 112.581818 236.000088 
L 116.64 235.705248 
L 120.698182 235.37412 
L 124.756364 235.01124 
L 128.814545 234.628704 
L 132.872727 234.234072 
L 136.930909 233.840952 
L 140.989091 233.469 
L 145.047273 233.14392 
L 149.105455 232.903512 
L 153.163636 232.787088 
L 157.221818 232.815816 
L 161.28 232.976088 
L 165.338182 233.236152 
L 169.396364 233.565768 
L 173.454545 233.946792 
L 177.512727 234.362592 
L 181.570909 234.80712 
L 185.629091 235.274328 
L 189.687273 235.75968 
L 193.745455 236.260152 
L 197.803636 236.774232 
L 201.861818 237.297384 
L 205.92 237.83112 
L 209.978182 238.372416 
L 214.036364 238.921272 
L 218.094545 239.474664 
L 222.152727 240.032592 
L 226.210909 240.595056 
L 230.269091 241.159032 
L 234.327273 241.726032 
L 238.385455 242.293032 
L 242.443636 242.861544 
L 246.501818 243.430056 
L 250.56 243.997056 
L 254.618182 244.562544 
L 258.676364 245.12652 
L 262.734545 245.687472 
L 266.792727 246.2454 
L 270.850909 246.801816 
L 274.909091 247.352184 
L 278.967273 247.899528 
L 283.025455 248.442336 
L 287.083636 248.980608 
L 291.141818 249.514344 
L 295.2 250.04052 
L 299.258182 250.563672 
L 303.316364 251.079264 
L 307.374545 251.588808 
L 311.432727 252.090792 
L 315.490909 252.58824 
L 319.549091 253.076616 
L 323.607273 253.560456 
L 327.665455 254.035224 
L 331.723636 254.502432 
L 335.781818 254.963592 
L 339.84 255.417192 
L 343.898182 255.86172 
L 347.956364 256.3002 
L 352.014545 256.729608 
L 356.072727 257.151456 
L 360.130909 257.564232 
L 364.189091 257.969448 
L 368.247273 258.367104 
L 372.305455 258.7572 
L 376.363636 259.136712 
L 380.421818 259.510176 
L 384.48 259.873056 
L 388.538182 260.228376 
L 392.596364 260.576136 
L 396.654545 260.913312 
L 400.712727 261.242928 
L 404.770909 261.563472 
L 408.829091 261.874944 
L 412.887273 262.177344 
L 416.945455 262.46916 
L 421.003636 262.751904 
L 425.061818 263.025576 
L 429.12 263.287152 
L 433.178182 263.539656 
L 437.236364 263.780064 
L 441.294545 264.008376 
L 445.352727 264.224592 
L 449.410909 264.428712 
L 453.469091 264.620736 
L 457.527273 264.79764 
L 461.585455 264.959424 
L 465.643636 265.1076 
L 469.701818 265.239144 
L 473.76 265.355568 
L 477.818182 265.453848 
L 481.876364 265.535496 
L 485.934545 265.600512 
L 489.992727 265.645872 
L 494.050909 265.673088 
L 498.109091 265.68216 
" clip-path="url(#p3a734dc835)" style="fill: none; stroke: #000000; stroke-opacity: 0.5; stroke-linecap: square"/>
   </g>
   <g id="line2d_19">
    <path d="M 92.290909 227.953224 
L 96.349091 227.966832 
L 100.407273 228.006144 
L 104.465455 228.072672 
L 108.523636 228.163392 
L 112.581818 228.279816 
L 116.64 228.417408 
L 120.698182 228.57768 
L 124.756364 228.756096 
L 128.814545 228.94812 
L 132.872727 229.149216 
L 136.930909 229.347288 
L 140.989091 229.531752 
L 145.047273 229.67388 
L 149.105455 229.743432 
L 153.163636 229.701096 
L 157.221818 229.528728 
L 161.28 229.241448 
L 165.338182 228.87252 
L 169.396364 228.453696 
L 173.454545 228.006144 
L 177.512727 227.543472 
L 181.570909 227.074752 
L 185.629091 226.607544 
L 189.687273 226.146384 
L 193.745455 225.694296 
L 197.803636 225.254304 
L 201.861818 224.829432 
L 205.92 224.422704 
L 209.978182 224.03412 
L 214.036364 223.668216 
L 218.094545 223.32348 
L 222.152727 223.004448 
L 226.210909 222.71112 
L 230.269091 222.44652 
L 234.327273 222.210648 
L 238.385455 222.005016 
L 242.443636 221.832648 
L 246.501818 221.695056 
L 250.56 221.59224 
L 254.618182 221.527224 
L 258.676364 221.500008 
L 262.734545 221.512104 
L 266.792727 221.565024 
L 270.850909 221.66028 
L 274.909091 221.79636 
L 278.967273 221.974776 
L 283.025455 222.19704 
L 287.083636 222.46164 
L 291.141818 222.768576 
L 295.2 223.116336 
L 299.258182 223.506432 
L 303.316364 223.93584 
L 307.374545 224.403048 
L 311.432727 224.908056 
L 315.490909 225.446328 
L 319.549091 226.019376 
L 323.607273 226.622664 
L 327.665455 227.25468 
L 331.723636 227.9124 
L 335.781818 228.594312 
L 339.84 229.297392 
L 343.898182 230.018616 
L 347.956364 230.75496 
L 352.014545 231.506424 
L 356.072727 232.268472 
L 360.130909 233.03808 
L 364.189091 233.813736 
L 368.247273 234.593928 
L 372.305455 235.375632 
L 376.363636 236.155824 
L 380.421818 236.932992 
L 384.48 237.704112 
L 388.538182 238.469184 
L 392.596364 239.223672 
L 396.654545 239.966064 
L 400.712727 240.69636 
L 404.770909 241.410024 
L 408.829091 242.107056 
L 412.887273 242.784432 
L 416.945455 243.442152 
L 421.003636 244.077192 
L 425.061818 244.68804 
L 429.12 245.273184 
L 433.178182 245.832624 
L 437.236364 246.363336 
L 441.294545 246.86532 
L 445.352727 247.335552 
L 449.410909 247.775544 
L 453.469091 248.183784 
L 457.527273 248.55876 
L 461.585455 248.900472 
L 465.643636 249.205896 
L 469.701818 249.478056 
L 473.76 249.713928 
L 477.818182 249.915024 
L 481.876364 250.079832 
L 485.934545 250.208352 
L 489.992727 250.299072 
L 494.050909 250.355016 
L 498.109091 250.37316 
" clip-path="url(#p3a734dc835)" style="fill: none; stroke: #000000; stroke-opacity: 0.5; stroke-linecap: square"/>
   </g>
   <g id="line2d_20">
    <path d="M 92.290909 178.028496 
L 96.349091 178.014888 
L 100.407273 177.9786 
L 104.465455 177.91812 
L 108.523636 177.830424 
L 112.581818 177.718536 
L 116.64 177.580944 
L 120.698182 177.416136 
L 124.756364 177.224112 
L 128.814545 177.004872 
L 132.872727 176.755392 
L 136.930909 176.477184 
L 140.989091 176.168736 
L 145.047273 175.830048 
L 149.105455 175.459608 
L 153.163636 175.057416 
L 157.221818 174.623472 
L 161.28 174.159288 
L 165.338182 173.66184 
L 169.396364 173.13264 
L 173.454545 172.5732 
L 177.512727 171.982008 
L 181.570909 171.362088 
L 185.629091 170.71344 
L 189.687273 170.039088 
L 193.745455 169.339032 
L 197.803636 168.616296 
L 201.861818 167.876928 
L 205.92 167.123952 
L 209.978182 166.363416 
L 214.036364 165.607416 
L 218.094545 164.86956 
L 222.152727 164.167992 
L 226.210909 163.532952 
L 230.269091 163.003752 
L 234.327273 162.622728 
L 238.385455 162.42768 
L 242.443636 162.429192 
L 246.501818 162.606096 
L 250.56 162.913032 
L 254.618182 163.303128 
L 258.676364 163.738584 
L 262.734545 164.193696 
L 266.792727 164.647296 
L 270.850909 165.084264 
L 274.909091 165.49704 
L 278.967273 165.87504 
L 283.025455 166.216752 
L 287.083636 166.514616 
L 291.141818 166.768632 
L 295.2 166.975776 
L 299.258182 167.133024 
L 303.316364 167.241888 
L 307.374545 167.300856 
L 311.432727 167.309928 
L 315.490909 167.270616 
L 319.549091 167.18292 
L 323.607273 167.04684 
L 327.665455 166.863888 
L 331.723636 166.637088 
L 335.781818 166.364928 
L 339.84 166.050432 
L 343.898182 165.696624 
L 347.956364 165.301992 
L 352.014545 164.86956 
L 356.072727 164.40084 
L 360.130909 163.895832 
L 364.189091 163.359072 
L 368.247273 162.79056 
L 372.305455 162.190296 
L 376.363636 161.561304 
L 380.421818 160.905096 
L 384.48 160.221672 
L 388.538182 159.515568 
L 392.596364 158.785272 
L 396.654545 158.03532 
L 400.712727 157.267224 
L 404.770909 156.487032 
L 408.829091 155.69928 
L 412.887273 154.919088 
L 416.945455 154.173672 
L 421.003636 153.525024 
L 425.061818 153.07596 
L 429.12 152.8794 
L 433.178182 152.85672 
L 437.236364 152.915688 
L 441.294545 153.00792 
L 445.352727 153.112248 
L 449.410909 153.221112 
L 453.469091 153.326952 
L 457.527273 153.426744 
L 461.585455 153.520488 
L 465.643636 153.60516 
L 469.701818 153.68076 
L 473.76 153.7488 
L 477.818182 153.804744 
L 481.876364 153.851616 
L 485.934545 153.887904 
L 489.992727 153.91512 
L 494.050909 153.93024 
L 498.109091 153.934776 
" clip-path="url(#p3a734dc835)" style="fill: none; stroke: #000000; stroke-opacity: 0.5; stroke-linecap: square"/>
   </g>
   <g id="line2d_21">
    <path d="M 92.290909 150.98184 
L 96.349091 150.953112 
L 100.407273 150.863904 
L 104.465455 150.71724 
L 108.523636 150.51312 
L 112.581818 150.253056 
L 116.64 149.93856 
L 120.698182 149.571144 
L 124.756364 149.153832 
L 128.814545 148.69116 
L 132.872727 148.186152 
L 136.930909 147.643344 
L 140.989091 147.068784 
L 145.047273 146.474568 
L 149.105455 145.869768 
L 153.163636 145.275552 
L 157.221818 144.719136 
L 161.28 144.242856 
L 165.338182 143.907192 
L 169.396364 143.775648 
L 173.454545 143.893584 
L 177.512727 144.250416 
L 181.570909 144.802296 
L 185.629091 145.488744 
L 189.687273 146.265912 
L 193.745455 147.096 
L 197.803636 147.956328 
L 201.861818 148.828752 
L 205.92 149.695128 
L 209.978182 150.541848 
L 214.036364 151.353792 
L 218.094545 152.109792 
L 222.152727 152.787168 
L 226.210909 153.354168 
L 230.269091 153.769968 
L 234.327273 153.984672 
L 238.385455 153.96048 
L 242.443636 153.683784 
L 246.501818 153.175752 
L 250.56 152.480232 
L 254.618182 151.638048 
L 258.676364 150.687 
L 262.734545 149.655816 
L 266.792727 148.559616 
L 270.850909 147.415032 
L 274.909091 146.231136 
L 278.967273 145.018512 
L 283.025455 143.79228 
L 287.083636 142.599312 
L 291.141818 141.726888 
L 295.2 141.729912 
L 299.258182 142.047432 
L 303.316364 142.419384 
L 307.374545 142.804944 
L 311.432727 143.196552 
L 315.490909 143.586648 
L 319.549091 143.976744 
L 323.607273 144.363816 
L 327.665455 144.747864 
L 331.723636 145.127376 
L 335.781818 145.502352 
L 339.84 145.872792 
L 343.898182 146.237184 
L 347.956364 146.595528 
L 352.014545 146.947824 
L 356.072727 147.29256 
L 360.130909 147.631248 
L 364.189091 147.960864 
L 368.247273 148.284432 
L 372.305455 148.597416 
L 376.363636 148.90284 
L 380.421818 149.199192 
L 384.48 149.48496 
L 388.538182 149.760144 
L 392.596364 150.023232 
L 396.654545 150.274224 
L 400.712727 150.510096 
L 404.770909 150.726312 
L 408.829091 150.916824 
L 412.887273 151.069536 
L 416.945455 151.158744 
L 421.003636 151.122456 
L 425.061818 150.856344 
L 429.12 150.310512 
L 433.178182 149.565096 
L 437.236364 148.710816 
L 441.294545 147.797568 
L 445.352727 146.84652 
L 449.410909 145.87128 
L 453.469091 144.876384 
L 457.527273 143.86788 
L 461.585455 142.850304 
L 465.643636 141.82668 
L 469.701818 140.80608 
L 473.76 139.794552 
L 477.818182 138.804192 
L 481.876364 137.856168 
L 485.934545 136.983744 
L 489.992727 136.245888 
L 494.050909 135.728784 
L 498.109091 135.538272 
" clip-path="url(#p3a734dc835)" style="fill: none; stroke: #000000; stroke-opacity: 0.5; stroke-linecap: square"/>
   </g>
   <g id="line2d_22">
    <path d="M 92.290909 131.39388 
L 96.349091 131.409 
L 100.407273 131.451336 
L 104.465455 131.523912 
L 108.523636 131.626728 
L 112.581818 131.761296 
L 116.64 131.932152 
L 120.698182 132.139296 
L 124.756364 132.387264 
L 128.814545 132.67908 
L 132.872727 133.017768 
L 136.930909 133.403328 
L 140.989091 133.83576 
L 145.047273 134.310528 
L 149.105455 134.815536 
L 153.163636 135.33264 
L 157.221818 135.830088 
L 161.28 136.261008 
L 165.338182 136.561896 
L 169.396364 136.664712 
L 173.454545 136.522584 
L 177.512727 136.140048 
L 181.570909 135.571536 
L 185.629091 134.889624 
L 189.687273 134.180496 
L 193.745455 133.575696 
L 197.803636 133.23096 
L 201.861818 133.179552 
L 205.92 133.315632 
L 209.978182 133.54848 
L 214.036364 133.829712 
L 218.094545 134.141184 
L 222.152727 134.4708 
L 226.210909 134.815536 
L 230.269091 135.170856 
L 234.327273 135.535248 
L 238.385455 135.905688 
L 242.443636 136.282176 
L 246.501818 136.666224 
L 250.56 137.053296 
L 254.618182 137.444904 
L 258.676364 137.838024 
L 262.734545 138.23568 
L 266.792727 138.633336 
L 270.850909 139.032504 
L 274.909091 139.428648 
L 278.967273 139.818744 
L 283.025455 140.192208 
L 287.083636 140.506704 
L 291.141818 140.474952 
L 295.2 139.545072 
L 299.258182 138.279528 
L 303.316364 136.939896 
L 307.374545 135.568512 
L 311.432727 134.172936 
L 315.490909 132.760728 
L 319.549091 131.334912 
L 323.607273 129.893976 
L 327.665455 128.443968 
L 331.723636 126.981864 
L 335.781818 125.513712 
L 339.84 124.038 
L 343.898182 122.55624 
L 347.956364 121.072968 
L 352.014545 119.589696 
L 356.072727 118.113984 
L 360.130909 116.65188 
L 364.189091 115.22304 
L 368.247273 113.865264 
L 372.305455 112.678344 
L 376.363636 111.860352 
L 380.421818 111.560976 
L 384.48 111.622968 
L 388.538182 111.845232 
L 392.596364 112.132512 
L 396.654545 112.450032 
L 400.712727 112.778136 
L 404.770909 113.112288 
L 408.829091 113.447952 
L 412.887273 113.78664 
L 416.945455 114.128352 
L 421.003636 114.477624 
L 425.061818 114.83748 
L 429.12 115.220016 
L 433.178182 115.632792 
L 437.236364 116.09244 
L 441.294545 116.617104 
L 445.352727 117.230976 
L 449.410909 117.946152 
L 453.469091 118.76868 
L 457.527273 119.686464 
L 461.585455 120.676824 
L 465.643636 121.718592 
L 469.701818 122.784552 
L 473.76 123.853536 
L 477.818182 124.904376 
L 481.876364 125.908344 
L 485.934545 126.829152 
L 489.992727 127.604808 
L 494.050909 128.144592 
L 498.109091 128.341152 
" clip-path="url(#p3a734dc835)" style="fill: none; stroke: #000000; stroke-opacity: 0.5; stroke-linecap: square"/>
   </g>
   <g id="line2d_23">
    <path d="M 92.290909 121.42224 
L 96.349091 121.469112 
L 100.407273 121.609728 
L 104.465455 121.83804 
L 108.523636 122.148 
L 112.581818 122.530536 
L 116.64 122.975064 
L 120.698182 123.471 
L 124.756364 124.003224 
L 128.814545 124.55964 
L 132.872727 125.12664 
L 136.930909 125.692128 
L 140.989091 126.24552 
L 145.047273 126.779256 
L 149.105455 127.285776 
L 153.163636 127.762056 
L 157.221818 128.208096 
L 161.28 128.625408 
L 165.338182 129.015504 
L 169.396364 129.379896 
L 173.454545 129.720096 
L 177.512727 130.034592 
L 181.570909 130.315824 
L 185.629091 130.545648 
L 189.687273 130.680216 
L 193.745455 130.621248 
L 197.803636 130.235688 
L 201.861818 129.500856 
L 205.92 128.533176 
L 209.978182 127.430928 
L 214.036364 126.248544 
L 218.094545 125.007192 
L 222.152727 123.72048 
L 226.210909 122.395968 
L 230.269091 121.039704 
L 234.327273 119.654712 
L 238.385455 118.242504 
L 242.443636 116.807616 
L 246.501818 115.348536 
L 250.56 113.8698 
L 254.618182 112.369896 
L 258.676364 110.85336 
L 262.734545 109.31868 
L 266.792727 107.770392 
L 270.850909 106.208496 
L 274.909091 104.63904 
L 278.967273 103.071096 
L 283.025455 101.525832 
L 287.083636 100.081872 
L 291.141818 99.09756 
L 295.2 99.109656 
L 299.258182 99.602568 
L 303.316364 100.202832 
L 307.374545 100.827288 
L 311.432727 101.454768 
L 315.490909 102.0762 
L 319.549091 102.687048 
L 323.607273 103.287312 
L 327.665455 103.872456 
L 331.723636 104.443992 
L 335.781818 105.00192 
L 339.84 105.541704 
L 343.898182 106.064856 
L 347.956364 106.569864 
L 352.014545 107.052192 
L 356.072727 107.508816 
L 360.130909 107.930664 
L 364.189091 108.302616 
L 368.247273 108.583848 
L 372.305455 108.679104 
L 376.363636 108.387288 
L 380.421818 107.563248 
L 384.48 106.36272 
L 388.538182 104.989824 
L 392.596364 103.538304 
L 396.654545 102.052008 
L 400.712727 100.547568 
L 404.770909 99.168624 
L 408.829091 100.28448 
L 412.887273 101.66796 
L 416.945455 103.03632 
L 421.003636 104.377464 
L 425.061818 105.686856 
L 429.12 106.9524 
L 433.178182 108.163512 
L 437.236364 109.30356 
L 441.294545 110.349864 
L 445.352727 111.282768 
L 449.410909 112.082616 
L 453.469091 112.746384 
L 457.527273 113.283144 
L 461.585455 113.71104 
L 465.643636 114.049728 
L 469.701818 114.318864 
L 473.76 114.532056 
L 477.818182 114.7014 
L 481.876364 114.831432 
L 485.934545 114.9282 
L 489.992727 114.99624 
L 494.050909 115.035552 
L 498.109091 115.04916 
" clip-path="url(#p3a734dc835)" style="fill: none; stroke: #000000; stroke-opacity: 0.5; stroke-linecap: square"/>
   </g>
   <g id="patch_3">
    <path d="M 72 384.48 
L 72 51.84 
" style="fill: none; stroke: #000000; stroke-width: 0.8; stroke-linejoin: miter; stroke-linecap: square"/>
   </g>
   <g id="patch_4">
    <path d="M 518.4 384.48 
L 518.4 51.84 
" style="fill: none; stroke: #000000; stroke-width: 0.8; stroke-linejoin: miter; stroke-linecap: square"/>
   </g>
   <g id="patch_5">
    <path d="M 72 384.48 
L 518.4 384.48 
" style="fill: none; stroke: #000000; stroke-width: 0.8; stroke-linejoin: miter; stroke-linecap: square"/>
   </g>
   <g id="patch_6">
    <path d="M 72 51.84 
L 518.4 51.84 
" style="fill: none; stroke: #000000; stroke-width: 0.8; stroke-linejoin: miter; stroke-linecap: square"/>
   </g>
  </g>
 </g>
 <defs>
  <clipPath id="p3a734dc835">
   <rect x="72" y="51.84" width="446.4" height="332.64"/>
  </clipPath>
 </defs>
</svg>
