<?xml version="1.0" encoding="utf-8" standalone="no"?>
<!DOCTYPE svg PUBLIC "-//W3C//DTD SVG 1.1//EN"
  "http://www.w3.org/Graphics/SVG/1.1/DTD/svg11.dtd">
<svg xmlns:xlink="http://www.w3.org/1999/xlink" width="576pt" height="432pt" viewBox="0 0 576 432" xmlns="http://www.w3.org/2000/svg" version="1.1">
 <metadata>
  <rdf:RDF xmlns:dc="http://purl.org/dc/elements/1.1/" xmlns:cc="http://creativecommons.org/ns#" xmlns:rdf="http://www.w3.org/1999/02/22-rdf-syntax-ns#">
   <cc:Work>
    <dc:type rdf:resource="http://purl.org/dc/dcmitype/StillImage"/>
    <dc:date>2023-05-03T19:11:39.929361</dc:date>
    <dc:format>image/svg+xml</dc:format>
    <dc:creator>
     <cc:Agent>
      <dc:title>Matplotlib v3.7.1, https://matplotlib.org/</dc:title>
     </cc:Agent>
    </dc:creator>
   </cc:Work>
  </rdf:RDF>
 </metadata>
 <defs>
  <style type="text/css">*{stroke-linejoin: round; stroke-linecap: butt}</style>
 </defs>
 <g id="figure_1">
  <g id="patch_1">
   <path d="M 0 432 
L 576 432 
L 576 0 
L 0 0 
z
" style="fill: #ffffff"/>
  </g>
  <g id="axes_1">
   <g id="patch_2">
    <path d="M 72 384.48 
L 518.4 384.48 
L 518.4 51.84 
L 72 51.84 
z
" style="fill: #ffffff"/>
   </g>
   <g id="matplotlib.axis_1">
    <g id="xtick_1">
     <g id="line2d_1">
      <defs>
       <path id="m05d0ee4108" d="M 0 0 
L 0 3.5 
" style="stroke: #000000; stroke-width: 0.8"/>
      </defs>
      <g>
       <use xlink:href="#m05d0ee4108" x="92.290909" y="384.48" style="stroke: #000000; stroke-width: 0.8"/>
      </g>
     </g>
     <g id="text_1">
      <!-- 0.0 -->
      <g transform="translate(84.339347 399.078438) scale(0.1 -0.1)">
       <defs>
        <path id="DejaVuSans-30" d="M 2034 4250 
Q 1547 4250 1301 3770 
Q 1056 3291 1056 2328 
Q 1056 1369 1301 889 
Q 1547 409 2034 409 
Q 2525 409 2770 889 
Q 3016 1369 3016 2328 
Q 3016 3291 2770 3770 
Q 2525 4250 2034 4250 
z
M 2034 4750 
Q 2819 4750 3233 4129 
Q 3647 3509 3647 2328 
Q 3647 1150 3233 529 
Q 2819 -91 2034 -91 
Q 1250 -91 836 529 
Q 422 1150 422 2328 
Q 422 3509 836 4129 
Q 1250 4750 2034 4750 
z
" transform="scale(0.015625)"/>
        <path id="DejaVuSans-2e" d="M 684 794 
L 1344 794 
L 1344 0 
L 684 0 
L 684 794 
z
" transform="scale(0.015625)"/>
       </defs>
       <use xlink:href="#DejaVuSans-30"/>
       <use xlink:href="#DejaVuSans-2e" x="63.623047"/>
       <use xlink:href="#DejaVuSans-30" x="95.410156"/>
      </g>
     </g>
    </g>
    <g id="xtick_2">
     <g id="line2d_2">
      <g>
       <use xlink:href="#m05d0ee4108" x="173.454545" y="384.48" style="stroke: #000000; stroke-width: 0.8"/>
      </g>
     </g>
     <g id="text_2">
      <!-- 0.2 -->
      <g transform="translate(165.502983 399.078438) scale(0.1 -0.1)">
       <defs>
        <path id="DejaVuSans-32" d="M 1228 531 
L 3431 531 
L 3431 0 
L 469 0 
L 469 531 
Q 828 903 1448 1529 
Q 2069 2156 2228 2338 
Q 2531 2678 2651 2914 
Q 2772 3150 2772 3378 
Q 2772 3750 2511 3984 
Q 2250 4219 1831 4219 
Q 1534 4219 1204 4116 
Q 875 4013 500 3803 
L 500 4441 
Q 881 4594 1212 4672 
Q 1544 4750 1819 4750 
Q 2544 4750 2975 4387 
Q 3406 4025 3406 3419 
Q 3406 3131 3298 2873 
Q 3191 2616 2906 2266 
Q 2828 2175 2409 1742 
Q 1991 1309 1228 531 
z
" transform="scale(0.015625)"/>
       </defs>
       <use xlink:href="#DejaVuSans-30"/>
       <use xlink:href="#DejaVuSans-2e" x="63.623047"/>
       <use xlink:href="#DejaVuSans-32" x="95.410156"/>
      </g>
     </g>
    </g>
    <g id="xtick_3">
     <g id="line2d_3">
      <g>
       <use xlink:href="#m05d0ee4108" x="254.618182" y="384.48" style="stroke: #000000; stroke-width: 0.8"/>
      </g>
     </g>
     <g id="text_3">
      <!-- 0.4 -->
      <g transform="translate(246.666619 399.078438) scale(0.1 -0.1)">
       <defs>
        <path id="DejaVuSans-34" d="M 2419 4116 
L 825 1625 
L 2419 1625 
L 2419 4116 
z
M 2253 4666 
L 3047 4666 
L 3047 1625 
L 3713 1625 
L 3713 1100 
L 3047 1100 
L 3047 0 
L 2419 0 
L 2419 1100 
L 313 1100 
L 313 1709 
L 2253 4666 
z
" transform="scale(0.015625)"/>
       </defs>
       <use xlink:href="#DejaVuSans-30"/>
       <use xlink:href="#DejaVuSans-2e" x="63.623047"/>
       <use xlink:href="#DejaVuSans-34" x="95.410156"/>
      </g>
     </g>
    </g>
    <g id="xtick_4">
     <g id="line2d_4">
      <g>
       <use xlink:href="#m05d0ee4108" x="335.781818" y="384.48" style="stroke: #000000; stroke-width: 0.8"/>
      </g>
     </g>
     <g id="text_4">
      <!-- 0.6 -->
      <g transform="translate(327.830256 399.078438) scale(0.1 -0.1)">
       <defs>
        <path id="DejaVuSans-36" d="M 2113 2584 
Q 1688 2584 1439 2293 
Q 1191 2003 1191 1497 
Q 1191 994 1439 701 
Q 1688 409 2113 409 
Q 2538 409 2786 701 
Q 3034 994 3034 1497 
Q 3034 2003 2786 2293 
Q 2538 2584 2113 2584 
z
M 3366 4563 
L 3366 3988 
Q 3128 4100 2886 4159 
Q 2644 4219 2406 4219 
Q 1781 4219 1451 3797 
Q 1122 3375 1075 2522 
Q 1259 2794 1537 2939 
Q 1816 3084 2150 3084 
Q 2853 3084 3261 2657 
Q 3669 2231 3669 1497 
Q 3669 778 3244 343 
Q 2819 -91 2113 -91 
Q 1303 -91 875 529 
Q 447 1150 447 2328 
Q 447 3434 972 4092 
Q 1497 4750 2381 4750 
Q 2619 4750 2861 4703 
Q 3103 4656 3366 4563 
z
" transform="scale(0.015625)"/>
       </defs>
       <use xlink:href="#DejaVuSans-30"/>
       <use xlink:href="#DejaVuSans-2e" x="63.623047"/>
       <use xlink:href="#DejaVuSans-36" x="95.410156"/>
      </g>
     </g>
    </g>
    <g id="xtick_5">
     <g id="line2d_5">
      <g>
       <use xlink:href="#m05d0ee4108" x="416.945455" y="384.48" style="stroke: #000000; stroke-width: 0.8"/>
      </g>
     </g>
     <g id="text_5">
      <!-- 0.8 -->
      <g transform="translate(408.993892 399.078438) scale(0.1 -0.1)">
       <defs>
        <path id="DejaVuSans-38" d="M 2034 2216 
Q 1584 2216 1326 1975 
Q 1069 1734 1069 1313 
Q 1069 891 1326 650 
Q 1584 409 2034 409 
Q 2484 409 2743 651 
Q 3003 894 3003 1313 
Q 3003 1734 2745 1975 
Q 2488 2216 2034 2216 
z
M 1403 2484 
Q 997 2584 770 2862 
Q 544 3141 544 3541 
Q 544 4100 942 4425 
Q 1341 4750 2034 4750 
Q 2731 4750 3128 4425 
Q 3525 4100 3525 3541 
Q 3525 3141 3298 2862 
Q 3072 2584 2669 2484 
Q 3125 2378 3379 2068 
Q 3634 1759 3634 1313 
Q 3634 634 3220 271 
Q 2806 -91 2034 -91 
Q 1263 -91 848 271 
Q 434 634 434 1313 
Q 434 1759 690 2068 
Q 947 2378 1403 2484 
z
M 1172 3481 
Q 1172 3119 1398 2916 
Q 1625 2713 2034 2713 
Q 2441 2713 2670 2916 
Q 2900 3119 2900 3481 
Q 2900 3844 2670 4047 
Q 2441 4250 2034 4250 
Q 1625 4250 1398 4047 
Q 1172 3844 1172 3481 
z
" transform="scale(0.015625)"/>
       </defs>
       <use xlink:href="#DejaVuSans-30"/>
       <use xlink:href="#DejaVuSans-2e" x="63.623047"/>
       <use xlink:href="#DejaVuSans-38" x="95.410156"/>
      </g>
     </g>
    </g>
    <g id="xtick_6">
     <g id="line2d_6">
      <g>
       <use xlink:href="#m05d0ee4108" x="498.109091" y="384.48" style="stroke: #000000; stroke-width: 0.8"/>
      </g>
     </g>
     <g id="text_6">
      <!-- 1.0 -->
      <g transform="translate(490.157528 399.078438) scale(0.1 -0.1)">
       <defs>
        <path id="DejaVuSans-31" d="M 794 531 
L 1825 531 
L 1825 4091 
L 703 3866 
L 703 4441 
L 1819 4666 
L 2450 4666 
L 2450 531 
L 3481 531 
L 3481 0 
L 794 0 
L 794 531 
z
" transform="scale(0.015625)"/>
       </defs>
       <use xlink:href="#DejaVuSans-31"/>
       <use xlink:href="#DejaVuSans-2e" x="63.623047"/>
       <use xlink:href="#DejaVuSans-30" x="95.410156"/>
      </g>
     </g>
    </g>
   </g>
   <g id="matplotlib.axis_2">
    <g id="ytick_1">
     <g id="line2d_7">
      <defs>
       <path id="m8fb7cc60ab" d="M 0 0 
L -3.5 0 
" style="stroke: #000000; stroke-width: 0.8"/>
      </defs>
      <g>
       <use xlink:href="#m8fb7cc60ab" x="72" y="369.36" style="stroke: #000000; stroke-width: 0.8"/>
      </g>
     </g>
     <g id="text_7">
      <!-- −5.0 -->
      <g transform="translate(40.717187 373.159219) scale(0.1 -0.1)">
       <defs>
        <path id="DejaVuSans-2212" d="M 678 2272 
L 4684 2272 
L 4684 1741 
L 678 1741 
L 678 2272 
z
" transform="scale(0.015625)"/>
        <path id="DejaVuSans-35" d="M 691 4666 
L 3169 4666 
L 3169 4134 
L 1269 4134 
L 1269 2991 
Q 1406 3038 1543 3061 
Q 1681 3084 1819 3084 
Q 2600 3084 3056 2656 
Q 3513 2228 3513 1497 
Q 3513 744 3044 326 
Q 2575 -91 1722 -91 
Q 1428 -91 1123 -41 
Q 819 9 494 109 
L 494 744 
Q 775 591 1075 516 
Q 1375 441 1709 441 
Q 2250 441 2565 725 
Q 2881 1009 2881 1497 
Q 2881 1984 2565 2268 
Q 2250 2553 1709 2553 
Q 1456 2553 1204 2497 
Q 953 2441 691 2322 
L 691 4666 
z
" transform="scale(0.015625)"/>
       </defs>
       <use xlink:href="#DejaVuSans-2212"/>
       <use xlink:href="#DejaVuSans-35" x="83.789062"/>
       <use xlink:href="#DejaVuSans-2e" x="147.412109"/>
       <use xlink:href="#DejaVuSans-30" x="179.199219"/>
      </g>
     </g>
    </g>
    <g id="ytick_2">
     <g id="line2d_8">
      <g>
       <use xlink:href="#m8fb7cc60ab" x="72" y="331.56" style="stroke: #000000; stroke-width: 0.8"/>
      </g>
     </g>
     <g id="text_8">
      <!-- −2.5 -->
      <g transform="translate(40.717187 335.359219) scale(0.1 -0.1)">
       <use xlink:href="#DejaVuSans-2212"/>
       <use xlink:href="#DejaVuSans-32" x="83.789062"/>
       <use xlink:href="#DejaVuSans-2e" x="147.412109"/>
       <use xlink:href="#DejaVuSans-35" x="179.199219"/>
      </g>
     </g>
    </g>
    <g id="ytick_3">
     <g id="line2d_9">
      <g>
       <use xlink:href="#m8fb7cc60ab" x="72" y="293.76" style="stroke: #000000; stroke-width: 0.8"/>
      </g>
     </g>
     <g id="text_9">
      <!-- 0.0 -->
      <g transform="translate(49.096875 297.559219) scale(0.1 -0.1)">
       <use xlink:href="#DejaVuSans-30"/>
       <use xlink:href="#DejaVuSans-2e" x="63.623047"/>
       <use xlink:href="#DejaVuSans-30" x="95.410156"/>
      </g>
     </g>
    </g>
    <g id="ytick_4">
     <g id="line2d_10">
      <g>
       <use xlink:href="#m8fb7cc60ab" x="72" y="255.96" style="stroke: #000000; stroke-width: 0.8"/>
      </g>
     </g>
     <g id="text_10">
      <!-- 2.5 -->
      <g transform="translate(49.096875 259.759219) scale(0.1 -0.1)">
       <use xlink:href="#DejaVuSans-32"/>
       <use xlink:href="#DejaVuSans-2e" x="63.623047"/>
       <use xlink:href="#DejaVuSans-35" x="95.410156"/>
      </g>
     </g>
    </g>
    <g id="ytick_5">
     <g id="line2d_11">
      <g>
       <use xlink:href="#m8fb7cc60ab" x="72" y="218.16" style="stroke: #000000; stroke-width: 0.8"/>
      </g>
     </g>
     <g id="text_11">
      <!-- 5.0 -->
      <g transform="translate(49.096875 221.959219) scale(0.1 -0.1)">
       <use xlink:href="#DejaVuSans-35"/>
       <use xlink:href="#DejaVuSans-2e" x="63.623047"/>
       <use xlink:href="#DejaVuSans-30" x="95.410156"/>
      </g>
     </g>
    </g>
    <g id="ytick_6">
     <g id="line2d_12">
      <g>
       <use xlink:href="#m8fb7cc60ab" x="72" y="180.36" style="stroke: #000000; stroke-width: 0.8"/>
      </g>
     </g>
     <g id="text_12">
      <!-- 7.5 -->
      <g transform="translate(49.096875 184.159219) scale(0.1 -0.1)">
       <defs>
        <path id="DejaVuSans-37" d="M 525 4666 
L 3525 4666 
L 3525 4397 
L 1831 0 
L 1172 0 
L 2766 4134 
L 525 4134 
L 525 4666 
z
" transform="scale(0.015625)"/>
       </defs>
       <use xlink:href="#DejaVuSans-37"/>
       <use xlink:href="#DejaVuSans-2e" x="63.623047"/>
       <use xlink:href="#DejaVuSans-35" x="95.410156"/>
      </g>
     </g>
    </g>
    <g id="ytick_7">
     <g id="line2d_13">
      <g>
       <use xlink:href="#m8fb7cc60ab" x="72" y="142.56" style="stroke: #000000; stroke-width: 0.8"/>
      </g>
     </g>
     <g id="text_13">
      <!-- 10.0 -->
      <g transform="translate(42.734375 146.359219) scale(0.1 -0.1)">
       <use xlink:href="#DejaVuSans-31"/>
       <use xlink:href="#DejaVuSans-30" x="63.623047"/>
       <use xlink:href="#DejaVuSans-2e" x="127.246094"/>
       <use xlink:href="#DejaVuSans-30" x="159.033203"/>
      </g>
     </g>
    </g>
    <g id="ytick_8">
     <g id="line2d_14">
      <g>
       <use xlink:href="#m8fb7cc60ab" x="72" y="104.76" style="stroke: #000000; stroke-width: 0.8"/>
      </g>
     </g>
     <g id="text_14">
      <!-- 12.5 -->
      <g transform="translate(42.734375 108.559219) scale(0.1 -0.1)">
       <use xlink:href="#DejaVuSans-31"/>
       <use xlink:href="#DejaVuSans-32" x="63.623047"/>
       <use xlink:href="#DejaVuSans-2e" x="127.246094"/>
       <use xlink:href="#DejaVuSans-35" x="159.033203"/>
      </g>
     </g>
    </g>
    <g id="ytick_9">
     <g id="line2d_15">
      <g>
       <use xlink:href="#m8fb7cc60ab" x="72" y="66.96" style="stroke: #000000; stroke-width: 0.8"/>
      </g>
     </g>
     <g id="text_15">
      <!-- 15.0 -->
      <g transform="translate(42.734375 70.759219) scale(0.1 -0.1)">
       <use xlink:href="#DejaVuSans-31"/>
       <use xlink:href="#DejaVuSans-35" x="63.623047"/>
       <use xlink:href="#DejaVuSans-2e" x="127.246094"/>
       <use xlink:href="#DejaVuSans-30" x="159.033203"/>
      </g>
     </g>
    </g>
   </g>
   <g id="line2d_16">
    <path d="M 92.290909 343.311264 
L 96.349091 343.311264 
L 100.407273 343.309752 
L 104.465455 343.309752 
L 108.523636 343.30824 
L 112.581818 343.305216 
L 116.64 343.303704 
L 120.698182 343.302192 
L 124.756364 343.30068 
L 128.814545 343.299168 
L 132.872727 343.299168 
L 136.930909 343.299168 
L 140.989091 343.302192 
L 145.047273 343.305216 
L 149.105455 343.312776 
L 153.163636 343.321848 
L 157.221818 343.333944 
L 161.28 343.349064 
L 165.338182 343.36872 
L 169.396364 343.394424 
L 173.454545 343.423152 
L 177.512727 343.45944 
L 181.570909 343.500264 
L 185.629091 343.548648 
L 189.687273 343.604592 
L 193.745455 343.668096 
L 197.803636 343.73916 
L 201.861818 343.819296 
L 205.92 343.910016 
L 209.978182 344.008296 
L 214.036364 344.11716 
L 218.094545 344.236608 
L 222.152727 344.36664 
L 226.210909 344.507256 
L 230.269091 344.658456 
L 234.327273 344.821752 
L 238.385455 344.99412 
L 242.443636 345.178584 
L 246.501818 345.37212 
L 250.56 345.57624 
L 254.618182 345.790944 
L 258.676364 346.016232 
L 262.734545 346.24908 
L 266.792727 346.491 
L 270.850909 346.741992 
L 274.909091 347.000544 
L 278.967273 347.265144 
L 283.025455 347.537304 
L 287.083636 347.815512 
L 291.141818 348.098256 
L 295.2 348.385536 
L 299.258182 348.677352 
L 303.316364 348.972192 
L 307.374545 349.268544 
L 311.432727 349.569432 
L 315.490909 349.87032 
L 319.549091 350.171208 
L 323.607273 350.473608 
L 327.665455 350.774496 
L 331.723636 351.075384 
L 335.781818 351.37476 
L 339.84 351.671112 
L 343.898182 351.965952 
L 347.956364 352.257768 
L 352.014545 352.54656 
L 356.072727 352.830816 
L 360.130909 353.110536 
L 364.189091 353.387232 
L 368.247273 353.65788 
L 372.305455 353.92248 
L 376.363636 354.182544 
L 380.421818 354.43656 
L 384.48 354.684528 
L 388.538182 354.924936 
L 392.596364 355.159296 
L 396.654545 355.386096 
L 400.712727 355.606848 
L 404.770909 355.818528 
L 408.829091 356.022648 
L 412.887273 356.22072 
L 416.945455 356.408208 
L 421.003636 356.589648 
L 425.061818 356.762016 
L 429.12 356.925312 
L 433.178182 357.079536 
L 437.236364 357.2262 
L 441.294545 357.363792 
L 445.352727 357.492312 
L 449.410909 357.610248 
L 453.469091 357.720624 
L 457.527273 357.821928 
L 461.585455 357.912648 
L 465.643636 357.994296 
L 469.701818 358.066872 
L 473.76 358.128864 
L 477.818182 358.181784 
L 481.876364 358.225632 
L 485.934545 358.260408 
L 489.992727 358.2846 
L 494.050909 358.298208 
L 498.109091 358.304256 
" clip-path="url(#p33f60df193)" style="fill: none; stroke: #000000; stroke-opacity: 0.5; stroke-linecap: square"/>
   </g>
   <g id="line2d_17">
    <path d="M 92.290909 294.603696 
L 96.349091 294.632424 
L 100.407273 294.715584 
L 104.465455 294.851664 
L 108.523636 295.039152 
L 112.581818 295.273512 
L 116.64 295.553232 
L 120.698182 295.870752 
L 124.756364 296.223048 
L 128.814545 296.605584 
L 132.872727 297.013824 
L 136.930909 297.44172 
L 140.989091 297.886248 
L 145.047273 298.342872 
L 149.105455 298.808568 
L 153.163636 299.2788 
L 157.221818 299.750544 
L 161.28 300.220776 
L 165.338182 300.68496 
L 169.396364 301.144608 
L 173.454545 301.593672 
L 177.512727 302.03064 
L 181.570909 302.455512 
L 185.629091 302.863752 
L 189.687273 303.25536 
L 193.745455 303.627312 
L 197.803636 303.979608 
L 201.861818 304.309224 
L 205.92 304.61616 
L 209.978182 304.898904 
L 214.036364 305.155944 
L 218.094545 305.38728 
L 222.152727 305.592912 
L 226.210909 305.769816 
L 230.269091 305.917992 
L 234.327273 306.038952 
L 238.385455 306.129672 
L 242.443636 306.193176 
L 246.501818 306.224928 
L 250.56 306.229464 
L 254.618182 306.20376 
L 258.676364 306.147816 
L 262.734545 306.064656 
L 266.792727 305.951256 
L 270.850909 305.81064 
L 274.909091 305.641296 
L 278.967273 305.446248 
L 283.025455 305.222472 
L 287.083636 304.972992 
L 291.141818 304.696296 
L 295.2 304.395408 
L 299.258182 304.070328 
L 303.316364 303.721056 
L 307.374545 303.347592 
L 311.432727 302.951448 
L 315.490909 302.532624 
L 319.549091 302.092632 
L 323.607273 301.632984 
L 327.665455 301.150656 
L 331.723636 300.650184 
L 335.781818 300.130056 
L 339.84 299.591784 
L 343.898182 299.03688 
L 347.956364 298.46232 
L 352.014545 297.87264 
L 356.072727 297.266328 
L 360.130909 296.644896 
L 364.189091 296.009856 
L 368.247273 295.359696 
L 372.305455 294.695928 
L 376.363636 294.018552 
L 380.421818 293.330592 
L 384.48 292.630536 
L 388.538182 291.919896 
L 392.596364 291.200184 
L 396.654545 290.469888 
L 400.712727 289.733544 
L 404.770909 288.988128 
L 408.829091 288.238176 
L 412.887273 287.483688 
L 416.945455 286.724664 
L 421.003636 285.96564 
L 425.061818 285.205104 
L 429.12 284.44608 
L 433.178182 283.69008 
L 437.236364 282.94164 
L 441.294545 282.20076 
L 445.352727 281.473488 
L 449.410909 280.761336 
L 453.469091 280.06884 
L 457.527273 279.400536 
L 461.585455 278.763984 
L 465.643636 278.162208 
L 469.701818 277.605792 
L 473.76 277.09776 
L 477.818182 276.650208 
L 481.876364 276.269184 
L 485.934545 275.962248 
L 489.992727 275.73696 
L 494.050909 275.599368 
L 498.109091 275.554008 
" clip-path="url(#p33f60df193)" style="fill: none; stroke: #000000; stroke-opacity: 0.5; stroke-linecap: square"/>
   </g>
   <g id="line2d_18">
    <path d="M 92.290909 264.709944 
L 96.349091 264.66912 
L 100.407273 264.546648 
L 104.465455 264.34404 
L 108.523636 264.062808 
L 112.581818 263.709 
L 116.64 263.284128 
L 120.698182 262.792728 
L 124.756364 262.240848 
L 128.814545 261.633024 
L 132.872727 260.970768 
L 136.930909 260.263152 
L 140.989091 259.510176 
L 145.047273 258.717888 
L 149.105455 257.890824 
L 153.163636 257.030496 
L 157.221818 256.14144 
L 161.28 255.22668 
L 165.338182 254.287728 
L 169.396364 253.327608 
L 173.454545 252.347832 
L 177.512727 251.352936 
L 181.570909 250.344432 
L 185.629091 249.32232 
L 189.687273 248.289624 
L 193.745455 247.249368 
L 197.803636 246.201552 
L 201.861818 245.1492 
L 205.92 244.093824 
L 209.978182 243.036936 
L 214.036364 241.98156 
L 218.094545 240.927696 
L 222.152727 239.876856 
L 226.210909 238.833576 
L 230.269091 237.799368 
L 234.327273 236.775744 
L 238.385455 235.764216 
L 242.443636 234.76932 
L 246.501818 233.79408 
L 250.56 232.84152 
L 254.618182 231.913152 
L 258.676364 231.015024 
L 262.734545 230.151672 
L 266.792727 229.324608 
L 270.850909 228.53988 
L 274.909091 227.803536 
L 278.967273 227.117088 
L 283.025455 226.485072 
L 287.083636 225.909 
L 291.141818 225.390384 
L 295.2 224.924688 
L 299.258182 224.508888 
L 303.316364 224.136936 
L 307.374545 223.802784 
L 311.432727 223.501896 
L 315.490909 223.228224 
L 319.549091 222.977232 
L 323.607273 222.744384 
L 327.665455 222.531192 
L 331.723636 222.334632 
L 335.781818 222.210648 
L 339.84 222.519096 
L 343.898182 222.963624 
L 347.956364 223.477704 
L 352.014545 224.052264 
L 356.072727 224.682768 
L 360.130909 225.366192 
L 364.189091 226.094976 
L 368.247273 226.866096 
L 372.305455 227.675016 
L 376.363636 228.515688 
L 380.421818 229.3866 
L 384.48 230.281704 
L 388.538182 231.197976 
L 392.596364 232.133904 
L 396.654545 233.08344 
L 400.712727 234.045072 
L 404.770909 235.014264 
L 408.829091 235.989504 
L 412.887273 236.96928 
L 416.945455 237.949056 
L 421.003636 238.924296 
L 425.061818 239.896512 
L 429.12 240.859656 
L 433.178182 241.812216 
L 437.236364 242.749656 
L 441.294545 243.668952 
L 445.352727 244.565568 
L 449.410909 245.43648 
L 453.469091 246.277152 
L 457.527273 247.081536 
L 461.585455 247.843584 
L 465.643636 248.557248 
L 469.701818 249.214968 
L 473.76 249.809184 
L 477.818182 250.332336 
L 481.876364 250.77384 
L 485.934545 251.127648 
L 489.992727 251.387712 
L 494.050909 251.54496 
L 498.109091 251.59788 
" clip-path="url(#p33f60df193)" style="fill: none; stroke: #000000; stroke-opacity: 0.5; stroke-linecap: square"/>
   </g>
   <g id="line2d_19">
    <path d="M 92.290909 229.555944 
L 96.349091 229.55292 
L 100.407273 229.540824 
L 104.465455 229.524192 
L 108.523636 229.498488 
L 112.581818 229.466736 
L 116.64 229.428936 
L 120.698182 229.382064 
L 124.756364 229.330656 
L 128.814545 229.270176 
L 132.872727 229.203648 
L 136.930909 229.131072 
L 140.989091 229.050936 
L 145.047273 228.964752 
L 149.105455 228.87252 
L 153.163636 228.772728 
L 157.221818 228.666888 
L 161.28 228.555 
L 165.338182 228.437064 
L 169.396364 228.31308 
L 173.454545 228.183048 
L 177.512727 228.046968 
L 181.570909 227.906352 
L 185.629091 227.759688 
L 189.687273 227.608488 
L 193.745455 227.45124 
L 197.803636 227.287944 
L 201.861818 227.121624 
L 205.92 226.949256 
L 209.978182 226.772352 
L 214.036364 226.590912 
L 218.094545 226.404936 
L 222.152727 226.215936 
L 226.210909 226.020888 
L 230.269091 225.822816 
L 234.327273 225.620208 
L 238.385455 225.413064 
L 242.443636 225.201384 
L 246.501818 224.98668 
L 250.56 224.765928 
L 254.618182 224.54064 
L 258.676364 224.309304 
L 262.734545 224.073432 
L 266.792727 223.831512 
L 270.850909 223.582032 
L 274.909091 223.326504 
L 278.967273 223.064928 
L 283.025455 222.800328 
L 287.083636 222.534216 
L 291.141818 222.271128 
L 295.2 222.021648 
L 299.258182 221.793336 
L 303.316364 221.596776 
L 307.374545 221.44104 
L 311.432727 221.336712 
L 315.490909 221.292864 
L 319.549091 221.31252 
L 323.607273 221.404752 
L 327.665455 221.566536 
L 331.723636 221.799384 
L 335.781818 222.04584 
L 339.84 221.941512 
L 343.898182 221.779728 
L 347.956364 221.62248 
L 352.014545 221.472792 
L 356.072727 221.330664 
L 360.130909 221.197608 
L 364.189091 221.0706 
L 368.247273 220.94964 
L 372.305455 220.83624 
L 376.363636 220.728888 
L 380.421818 220.629096 
L 384.48 220.53384 
L 388.538182 220.444632 
L 392.596364 220.361472 
L 396.654545 220.282848 
L 400.712727 220.210272 
L 404.770909 220.142232 
L 408.829091 220.078728 
L 412.887273 220.01976 
L 416.945455 219.965328 
L 421.003636 219.915432 
L 425.061818 219.86856 
L 429.12 219.826224 
L 433.178182 219.788424 
L 437.236364 219.752136 
L 441.294545 219.720384 
L 445.352727 219.690144 
L 449.410909 219.66444 
L 453.469091 219.640248 
L 457.527273 219.61908 
L 461.585455 219.600936 
L 465.643636 219.584304 
L 469.701818 219.569184 
L 473.76 219.557088 
L 477.818182 219.548016 
L 481.876364 219.538944 
L 485.934545 219.532896 
L 489.992727 219.52836 
L 494.050909 219.525336 
L 498.109091 219.525336 
" clip-path="url(#p33f60df193)" style="fill: none; stroke: #000000; stroke-opacity: 0.5; stroke-linecap: square"/>
   </g>
   <g id="line2d_20">
    <path d="M 92.290909 171.442224 
L 96.349091 171.437688 
L 100.407273 171.422568 
L 104.465455 171.399888 
L 108.523636 171.366624 
L 112.581818 171.324288 
L 116.64 171.27288 
L 120.698182 171.213912 
L 124.756364 171.145872 
L 128.814545 171.070272 
L 132.872727 170.9856 
L 136.930909 170.89488 
L 140.989091 170.798112 
L 145.047273 170.695296 
L 149.105455 170.587944 
L 153.163636 170.476056 
L 157.221818 170.361144 
L 161.28 170.243208 
L 165.338182 170.126784 
L 169.396364 170.01036 
L 173.454545 169.89696 
L 177.512727 169.788096 
L 181.570909 169.686792 
L 185.629091 169.596072 
L 189.687273 169.51896 
L 193.745455 169.45848 
L 197.803636 169.419168 
L 201.861818 169.404048 
L 205.92 169.419168 
L 209.978182 169.469064 
L 214.036364 169.559784 
L 218.094545 169.694352 
L 222.152727 169.878816 
L 226.210909 170.114688 
L 230.269091 170.406504 
L 234.327273 170.752752 
L 238.385455 171.15192 
L 242.443636 171.602496 
L 246.501818 172.09692 
L 250.56 172.630656 
L 254.618182 173.194632 
L 258.676364 173.784312 
L 262.734545 174.3876 
L 266.792727 174.99996 
L 270.850909 175.610808 
L 274.909091 176.212584 
L 278.967273 176.796216 
L 283.025455 177.355656 
L 287.083636 177.884856 
L 291.141818 178.373232 
L 295.2 178.814736 
L 299.258182 179.204832 
L 303.316364 179.53596 
L 307.374545 179.802072 
L 311.432727 180.001656 
L 315.490909 180.128664 
L 319.549091 180.180072 
L 323.607273 180.157392 
L 327.665455 180.059112 
L 331.723636 179.885232 
L 335.781818 179.640288 
L 339.84 179.325792 
L 343.898182 178.947792 
L 347.956364 178.5078 
L 352.014545 178.013376 
L 356.072727 177.469056 
L 360.130909 176.879376 
L 364.189091 176.251896 
L 368.247273 175.58964 
L 372.305455 174.90168 
L 376.363636 174.189528 
L 380.421818 173.460744 
L 384.48 172.719864 
L 388.538182 171.971424 
L 392.596364 171.222984 
L 396.654545 170.476056 
L 400.712727 169.7382 
L 404.770909 169.01244 
L 408.829091 168.306336 
L 412.887273 167.6214 
L 416.945455 166.965192 
L 421.003636 166.340736 
L 425.061818 165.752568 
L 429.12 165.2022 
L 433.178182 164.692656 
L 437.236364 164.22696 
L 441.294545 163.8036 
L 445.352727 163.422576 
L 449.410909 163.0854 
L 453.469091 162.786024 
L 457.527273 162.524448 
L 461.585455 162.29916 
L 465.643636 162.105624 
L 469.701818 161.942328 
L 473.76 161.804736 
L 477.818182 161.692848 
L 481.876364 161.605152 
L 485.934545 161.537112 
L 489.992727 161.49024 
L 494.050909 161.463024 
L 498.109091 161.453952 
" clip-path="url(#p33f60df193)" style="fill: none; stroke: #000000; stroke-opacity: 0.5; stroke-linecap: square"/>
   </g>
   <g id="line2d_21">
    <path d="M 92.290909 126.758088 
L 96.349091 126.847296 
L 100.407273 127.108872 
L 104.465455 127.529208 
L 108.523636 128.0826 
L 112.581818 128.749392 
L 116.64 129.50388 
L 120.698182 130.32792 
L 124.756364 131.206392 
L 128.814545 132.125688 
L 132.872727 133.075224 
L 136.930909 134.04744 
L 140.989091 135.036288 
L 145.047273 136.03572 
L 149.105455 137.0412 
L 153.163636 138.051216 
L 157.221818 139.061232 
L 161.28 140.068224 
L 165.338182 141.07068 
L 169.396364 142.064064 
L 173.454545 143.048376 
L 177.512727 144.01908 
L 181.570909 144.974664 
L 185.629091 145.912104 
L 189.687273 146.825352 
L 193.745455 147.714408 
L 197.803636 148.571712 
L 201.861818 149.395752 
L 205.92 150.178968 
L 209.978182 150.916824 
L 214.036364 151.603272 
L 218.094545 152.233776 
L 222.152727 152.802288 
L 226.210909 153.305784 
L 230.269091 153.74124 
L 234.327273 154.108656 
L 238.385455 154.405008 
L 242.443636 154.636344 
L 246.501818 154.802664 
L 250.56 154.911528 
L 254.618182 154.96596 
L 258.676364 154.97352 
L 262.734545 154.940256 
L 266.792727 154.869192 
L 270.850909 154.7694 
L 274.909091 154.642392 
L 278.967273 154.492704 
L 283.025455 154.326384 
L 287.083636 154.144944 
L 291.141818 153.95292 
L 295.2 153.751824 
L 299.258182 153.54468 
L 303.316364 153.333 
L 307.374545 153.125856 
L 311.432727 153.004896 
L 315.490909 153.13644 
L 319.549091 153.28764 
L 323.607273 153.422208 
L 327.665455 153.535608 
L 331.723636 153.62784 
L 335.781818 153.700416 
L 339.84 153.753336 
L 343.898182 153.788112 
L 347.956364 153.804744 
L 352.014545 153.804744 
L 356.072727 153.791136 
L 360.130909 153.760896 
L 364.189091 153.71856 
L 368.247273 153.662616 
L 372.305455 153.596088 
L 376.363636 153.515952 
L 380.421818 153.425232 
L 384.48 153.322416 
L 388.538182 153.205992 
L 392.596364 153.074448 
L 396.654545 152.929296 
L 400.712727 152.766 
L 404.770909 152.58456 
L 408.829091 152.38044 
L 412.887273 152.15364 
L 416.945455 151.901136 
L 421.003636 151.621416 
L 425.061818 151.311456 
L 429.12 150.97428 
L 433.178182 150.605352 
L 437.236364 150.209208 
L 441.294545 149.78736 
L 445.352727 149.344344 
L 449.410909 148.883184 
L 453.469091 148.41144 
L 457.527273 147.936672 
L 461.585455 147.464928 
L 465.643636 147.006792 
L 469.701818 146.571336 
L 473.76 146.167632 
L 477.818182 145.804752 
L 481.876364 145.491768 
L 485.934545 145.239264 
L 489.992727 145.051776 
L 494.050909 144.936864 
L 498.109091 144.899064 
" clip-path="url(#p33f60df193)" style="fill: none; stroke: #000000; stroke-opacity: 0.5; stroke-linecap: square"/>
   </g>
   <g id="line2d_22">
    <path d="M 92.290909 114.045192 
L 96.349091 114.238728 
L 100.407273 114.721056 
L 104.465455 115.363656 
L 108.523636 116.106048 
L 112.581818 116.921016 
L 116.64 117.79344 
L 120.698182 118.712736 
L 124.756364 119.66832 
L 128.814545 120.654144 
L 132.872727 121.662648 
L 136.930909 122.686272 
L 140.989091 123.72048 
L 145.047273 124.760736 
L 149.105455 125.802504 
L 153.163636 126.84276 
L 157.221818 127.87848 
L 161.28 128.908152 
L 165.338182 129.930264 
L 169.396364 130.938768 
L 173.454545 131.936688 
L 177.512727 132.919488 
L 181.570909 133.88868 
L 185.629091 134.839728 
L 189.687273 135.772632 
L 193.745455 136.687392 
L 197.803636 137.582496 
L 201.861818 138.456432 
L 205.92 139.3092 
L 209.978182 140.1408 
L 214.036364 140.94972 
L 218.094545 141.73596 
L 222.152727 142.49952 
L 226.210909 143.238888 
L 230.269091 143.952552 
L 234.327273 144.643536 
L 238.385455 145.308816 
L 242.443636 145.949904 
L 246.501818 146.5668 
L 250.56 147.15648 
L 254.618182 147.721968 
L 258.676364 148.26024 
L 262.734545 148.77432 
L 266.792727 149.262696 
L 270.850909 149.723856 
L 274.909091 150.160824 
L 278.967273 150.570576 
L 283.025455 150.954624 
L 287.083636 151.312968 
L 291.141818 151.644096 
L 295.2 151.951032 
L 299.258182 152.230752 
L 303.316364 152.484768 
L 307.374545 152.70552 
L 311.432727 152.812872 
L 315.490909 152.642016 
L 319.549091 152.424288 
L 323.607273 152.200512 
L 327.665455 151.975224 
L 331.723636 151.7454 
L 335.781818 151.514064 
L 339.84 151.278192 
L 343.898182 151.036272 
L 347.956364 150.789816 
L 352.014545 150.534288 
L 356.072727 150.269688 
L 360.130909 149.992992 
L 364.189091 149.7042 
L 368.247273 149.400288 
L 372.305455 149.078232 
L 376.363636 148.738032 
L 380.421818 148.378176 
L 384.48 147.997152 
L 388.538182 147.593448 
L 392.596364 147.167064 
L 396.654545 146.716488 
L 400.712727 146.24172 
L 404.770909 145.741248 
L 408.829091 145.219608 
L 412.887273 144.672264 
L 416.945455 144.10224 
L 421.003636 143.511048 
L 425.061818 142.9002 
L 429.12 142.268184 
L 433.178182 141.619536 
L 437.236364 140.954256 
L 441.294545 140.27688 
L 445.352727 139.587408 
L 449.410909 138.891888 
L 453.469091 138.193344 
L 457.527273 137.4948 
L 461.585455 136.802304 
L 465.643636 136.123416 
L 469.701818 135.465696 
L 473.76 134.839728 
L 477.818182 134.256096 
L 481.876364 133.734456 
L 485.934545 133.29144 
L 489.992727 132.95124 
L 494.050909 132.735024 
L 498.109091 132.660936 
" clip-path="url(#p33f60df193)" style="fill: none; stroke: #000000; stroke-opacity: 0.5; stroke-linecap: square"/>
   </g>
   <g id="line2d_23">
    <path d="M 92.290909 111.252528 
L 96.349091 111.046896 
L 100.407273 110.526768 
L 104.465455 109.822176 
L 108.523636 109.00116 
L 112.581818 108.089424 
L 116.64 107.105112 
L 120.698182 106.061832 
L 124.756364 104.965632 
L 128.814545 103.825584 
L 132.872727 102.647736 
L 136.930909 101.439648 
L 140.989091 100.204344 
L 145.047273 98.944848 
L 149.105455 97.665696 
L 153.163636 96.369912 
L 157.221818 95.06052 
L 161.28 93.740544 
L 165.338182 92.413008 
L 169.396364 91.080936 
L 173.454545 89.747352 
L 177.512727 88.419816 
L 181.570909 87.104376 
L 185.629091 85.816152 
L 189.687273 84.585384 
L 193.745455 83.492208 
L 197.803636 82.708992 
L 201.861818 82.330992 
L 205.92 82.20096 
L 209.978182 82.184328 
L 214.036364 82.226664 
L 218.094545 82.309824 
L 222.152727 82.424736 
L 226.210909 82.566864 
L 230.269091 82.734696 
L 234.327273 82.922184 
L 238.385455 83.13084 
L 242.443636 83.354616 
L 246.501818 83.593512 
L 250.56 83.84148 
L 254.618182 84.097008 
L 258.676364 84.35556 
L 262.734545 84.614112 
L 266.792727 84.86964 
L 270.850909 85.117608 
L 274.909091 85.35348 
L 278.967273 85.577256 
L 283.025455 85.7844 
L 287.083636 85.971888 
L 291.141818 86.13972 
L 295.2 86.284872 
L 299.258182 86.405832 
L 303.316364 86.504112 
L 307.374545 86.579712 
L 311.432727 86.632632 
L 315.490909 86.665896 
L 319.549091 86.68404 
L 323.607273 86.690088 
L 327.665455 86.6916 
L 331.723636 86.69916 
L 335.781818 86.723352 
L 339.84 86.780808 
L 343.898182 86.889672 
L 347.956364 87.0696 
L 352.014545 87.346296 
L 356.072727 87.740928 
L 360.130909 88.267104 
L 364.189091 88.92936 
L 368.247273 89.724672 
L 372.305455 90.63792 
L 376.363636 91.649448 
L 380.421818 92.7396 
L 384.48 93.890232 
L 388.538182 95.086224 
L 392.596364 96.313968 
L 396.654545 97.564392 
L 400.712727 98.826912 
L 404.770909 100.096992 
L 408.829091 101.370096 
L 412.887273 102.638664 
L 416.945455 103.902696 
L 421.003636 105.156144 
L 425.061818 106.397496 
L 429.12 107.62524 
L 433.178182 108.833328 
L 437.236364 110.02176 
L 441.294545 111.187512 
L 445.352727 112.32756 
L 449.410909 113.43888 
L 453.469091 114.518448 
L 457.527273 115.560216 
L 461.585455 116.56116 
L 465.643636 117.515232 
L 469.701818 118.41336 
L 473.76 119.247984 
L 477.818182 120.003984 
L 481.876364 120.669264 
L 485.934545 121.222656 
L 489.992727 121.64148 
L 494.050909 121.903056 
L 498.109091 121.993776 
" clip-path="url(#p33f60df193)" style="fill: none; stroke: #000000; stroke-opacity: 0.5; stroke-linecap: square"/>
   </g>
   <g id="patch_3">
    <path d="M 72 384.48 
L 72 51.84 
" style="fill: none; stroke: #000000; stroke-width: 0.8; stroke-linejoin: miter; stroke-linecap: square"/>
   </g>
   <g id="patch_4">
    <path d="M 518.4 384.48 
L 518.4 51.84 
" style="fill: none; stroke: #000000; stroke-width: 0.8; stroke-linejoin: miter; stroke-linecap: square"/>
   </g>
   <g id="patch_5">
    <path d="M 72 384.48 
L 518.4 384.48 
" style="fill: none; stroke: #000000; stroke-width: 0.8; stroke-linejoin: miter; stroke-linecap: square"/>
   </g>
   <g id="patch_6">
    <path d="M 72 51.84 
L 518.4 51.84 
" style="fill: none; stroke: #000000; stroke-width: 0.8; stroke-linejoin: miter; stroke-linecap: square"/>
   </g>
  </g>
 </g>
 <defs>
  <clipPath id="p33f60df193">
   <rect x="72" y="51.84" width="446.4" height="332.64"/>
  </clipPath>
 </defs>
</svg>
