<?xml version="1.0" encoding="utf-8" standalone="no"?>
<!DOCTYPE svg PUBLIC "-//W3C//DTD SVG 1.1//EN"
  "http://www.w3.org/Graphics/SVG/1.1/DTD/svg11.dtd">
<svg xmlns:xlink="http://www.w3.org/1999/xlink" width="576pt" height="432pt" viewBox="0 0 576 432" xmlns="http://www.w3.org/2000/svg" version="1.1">
 <metadata>
  <rdf:RDF xmlns:dc="http://purl.org/dc/elements/1.1/" xmlns:cc="http://creativecommons.org/ns#" xmlns:rdf="http://www.w3.org/1999/02/22-rdf-syntax-ns#">
   <cc:Work>
    <dc:type rdf:resource="http://purl.org/dc/dcmitype/StillImage"/>
    <dc:date>2023-05-02T22:42:52.396651</dc:date>
    <dc:format>image/svg+xml</dc:format>
    <dc:creator>
     <cc:Agent>
      <dc:title>Matplotlib v3.7.1, https://matplotlib.org/</dc:title>
     </cc:Agent>
    </dc:creator>
   </cc:Work>
  </rdf:RDF>
 </metadata>
 <defs>
  <style type="text/css">*{stroke-linejoin: round; stroke-linecap: butt}</style>
 </defs>
 <g id="figure_1">
  <g id="patch_1">
   <path d="M 0 432 
L 576 432 
L 576 0 
L 0 0 
z
" style="fill: #ffffff"/>
  </g>
  <g id="axes_1">
   <g id="patch_2">
    <path d="M 72 384.48 
L 518.4 384.48 
L 518.4 51.84 
L 72 51.84 
z
" style="fill: #ffffff"/>
   </g>
   <g id="matplotlib.axis_1">
    <g id="xtick_1">
     <g id="line2d_1">
      <defs>
       <path id="m6997e58d6d" d="M 0 0 
L 0 3.5 
" style="stroke: #000000; stroke-width: 0.8"/>
      </defs>
      <g>
       <use xlink:href="#m6997e58d6d" x="92.290909" y="384.48" style="stroke: #000000; stroke-width: 0.8"/>
      </g>
     </g>
     <g id="text_1">
      <!-- 0.0 -->
      <g transform="translate(84.339347 399.078438) scale(0.1 -0.1)">
       <defs>
        <path id="DejaVuSans-30" d="M 2034 4250 
Q 1547 4250 1301 3770 
Q 1056 3291 1056 2328 
Q 1056 1369 1301 889 
Q 1547 409 2034 409 
Q 2525 409 2770 889 
Q 3016 1369 3016 2328 
Q 3016 3291 2770 3770 
Q 2525 4250 2034 4250 
z
M 2034 4750 
Q 2819 4750 3233 4129 
Q 3647 3509 3647 2328 
Q 3647 1150 3233 529 
Q 2819 -91 2034 -91 
Q 1250 -91 836 529 
Q 422 1150 422 2328 
Q 422 3509 836 4129 
Q 1250 4750 2034 4750 
z
" transform="scale(0.015625)"/>
        <path id="DejaVuSans-2e" d="M 684 794 
L 1344 794 
L 1344 0 
L 684 0 
L 684 794 
z
" transform="scale(0.015625)"/>
       </defs>
       <use xlink:href="#DejaVuSans-30"/>
       <use xlink:href="#DejaVuSans-2e" x="63.623047"/>
       <use xlink:href="#DejaVuSans-30" x="95.410156"/>
      </g>
     </g>
    </g>
    <g id="xtick_2">
     <g id="line2d_2">
      <g>
       <use xlink:href="#m6997e58d6d" x="173.454545" y="384.48" style="stroke: #000000; stroke-width: 0.8"/>
      </g>
     </g>
     <g id="text_2">
      <!-- 0.2 -->
      <g transform="translate(165.502983 399.078438) scale(0.1 -0.1)">
       <defs>
        <path id="DejaVuSans-32" d="M 1228 531 
L 3431 531 
L 3431 0 
L 469 0 
L 469 531 
Q 828 903 1448 1529 
Q 2069 2156 2228 2338 
Q 2531 2678 2651 2914 
Q 2772 3150 2772 3378 
Q 2772 3750 2511 3984 
Q 2250 4219 1831 4219 
Q 1534 4219 1204 4116 
Q 875 4013 500 3803 
L 500 4441 
Q 881 4594 1212 4672 
Q 1544 4750 1819 4750 
Q 2544 4750 2975 4387 
Q 3406 4025 3406 3419 
Q 3406 3131 3298 2873 
Q 3191 2616 2906 2266 
Q 2828 2175 2409 1742 
Q 1991 1309 1228 531 
z
" transform="scale(0.015625)"/>
       </defs>
       <use xlink:href="#DejaVuSans-30"/>
       <use xlink:href="#DejaVuSans-2e" x="63.623047"/>
       <use xlink:href="#DejaVuSans-32" x="95.410156"/>
      </g>
     </g>
    </g>
    <g id="xtick_3">
     <g id="line2d_3">
      <g>
       <use xlink:href="#m6997e58d6d" x="254.618182" y="384.48" style="stroke: #000000; stroke-width: 0.8"/>
      </g>
     </g>
     <g id="text_3">
      <!-- 0.4 -->
      <g transform="translate(246.666619 399.078438) scale(0.1 -0.1)">
       <defs>
        <path id="DejaVuSans-34" d="M 2419 4116 
L 825 1625 
L 2419 1625 
L 2419 4116 
z
M 2253 4666 
L 3047 4666 
L 3047 1625 
L 3713 1625 
L 3713 1100 
L 3047 1100 
L 3047 0 
L 2419 0 
L 2419 1100 
L 313 1100 
L 313 1709 
L 2253 4666 
z
" transform="scale(0.015625)"/>
       </defs>
       <use xlink:href="#DejaVuSans-30"/>
       <use xlink:href="#DejaVuSans-2e" x="63.623047"/>
       <use xlink:href="#DejaVuSans-34" x="95.410156"/>
      </g>
     </g>
    </g>
    <g id="xtick_4">
     <g id="line2d_4">
      <g>
       <use xlink:href="#m6997e58d6d" x="335.781818" y="384.48" style="stroke: #000000; stroke-width: 0.8"/>
      </g>
     </g>
     <g id="text_4">
      <!-- 0.6 -->
      <g transform="translate(327.830256 399.078438) scale(0.1 -0.1)">
       <defs>
        <path id="DejaVuSans-36" d="M 2113 2584 
Q 1688 2584 1439 2293 
Q 1191 2003 1191 1497 
Q 1191 994 1439 701 
Q 1688 409 2113 409 
Q 2538 409 2786 701 
Q 3034 994 3034 1497 
Q 3034 2003 2786 2293 
Q 2538 2584 2113 2584 
z
M 3366 4563 
L 3366 3988 
Q 3128 4100 2886 4159 
Q 2644 4219 2406 4219 
Q 1781 4219 1451 3797 
Q 1122 3375 1075 2522 
Q 1259 2794 1537 2939 
Q 1816 3084 2150 3084 
Q 2853 3084 3261 2657 
Q 3669 2231 3669 1497 
Q 3669 778 3244 343 
Q 2819 -91 2113 -91 
Q 1303 -91 875 529 
Q 447 1150 447 2328 
Q 447 3434 972 4092 
Q 1497 4750 2381 4750 
Q 2619 4750 2861 4703 
Q 3103 4656 3366 4563 
z
" transform="scale(0.015625)"/>
       </defs>
       <use xlink:href="#DejaVuSans-30"/>
       <use xlink:href="#DejaVuSans-2e" x="63.623047"/>
       <use xlink:href="#DejaVuSans-36" x="95.410156"/>
      </g>
     </g>
    </g>
    <g id="xtick_5">
     <g id="line2d_5">
      <g>
       <use xlink:href="#m6997e58d6d" x="416.945455" y="384.48" style="stroke: #000000; stroke-width: 0.8"/>
      </g>
     </g>
     <g id="text_5">
      <!-- 0.8 -->
      <g transform="translate(408.993892 399.078438) scale(0.1 -0.1)">
       <defs>
        <path id="DejaVuSans-38" d="M 2034 2216 
Q 1584 2216 1326 1975 
Q 1069 1734 1069 1313 
Q 1069 891 1326 650 
Q 1584 409 2034 409 
Q 2484 409 2743 651 
Q 3003 894 3003 1313 
Q 3003 1734 2745 1975 
Q 2488 2216 2034 2216 
z
M 1403 2484 
Q 997 2584 770 2862 
Q 544 3141 544 3541 
Q 544 4100 942 4425 
Q 1341 4750 2034 4750 
Q 2731 4750 3128 4425 
Q 3525 4100 3525 3541 
Q 3525 3141 3298 2862 
Q 3072 2584 2669 2484 
Q 3125 2378 3379 2068 
Q 3634 1759 3634 1313 
Q 3634 634 3220 271 
Q 2806 -91 2034 -91 
Q 1263 -91 848 271 
Q 434 634 434 1313 
Q 434 1759 690 2068 
Q 947 2378 1403 2484 
z
M 1172 3481 
Q 1172 3119 1398 2916 
Q 1625 2713 2034 2713 
Q 2441 2713 2670 2916 
Q 2900 3119 2900 3481 
Q 2900 3844 2670 4047 
Q 2441 4250 2034 4250 
Q 1625 4250 1398 4047 
Q 1172 3844 1172 3481 
z
" transform="scale(0.015625)"/>
       </defs>
       <use xlink:href="#DejaVuSans-30"/>
       <use xlink:href="#DejaVuSans-2e" x="63.623047"/>
       <use xlink:href="#DejaVuSans-38" x="95.410156"/>
      </g>
     </g>
    </g>
    <g id="xtick_6">
     <g id="line2d_6">
      <g>
       <use xlink:href="#m6997e58d6d" x="498.109091" y="384.48" style="stroke: #000000; stroke-width: 0.8"/>
      </g>
     </g>
     <g id="text_6">
      <!-- 1.0 -->
      <g transform="translate(490.157528 399.078438) scale(0.1 -0.1)">
       <defs>
        <path id="DejaVuSans-31" d="M 794 531 
L 1825 531 
L 1825 4091 
L 703 3866 
L 703 4441 
L 1819 4666 
L 2450 4666 
L 2450 531 
L 3481 531 
L 3481 0 
L 794 0 
L 794 531 
z
" transform="scale(0.015625)"/>
       </defs>
       <use xlink:href="#DejaVuSans-31"/>
       <use xlink:href="#DejaVuSans-2e" x="63.623047"/>
       <use xlink:href="#DejaVuSans-30" x="95.410156"/>
      </g>
     </g>
    </g>
   </g>
   <g id="matplotlib.axis_2">
    <g id="ytick_1">
     <g id="line2d_7">
      <defs>
       <path id="m81eab82bff" d="M 0 0 
L -3.5 0 
" style="stroke: #000000; stroke-width: 0.8"/>
      </defs>
      <g>
       <use xlink:href="#m81eab82bff" x="72" y="369.36" style="stroke: #000000; stroke-width: 0.8"/>
      </g>
     </g>
     <g id="text_7">
      <!-- −5.0 -->
      <g transform="translate(40.717187 373.159219) scale(0.1 -0.1)">
       <defs>
        <path id="DejaVuSans-2212" d="M 678 2272 
L 4684 2272 
L 4684 1741 
L 678 1741 
L 678 2272 
z
" transform="scale(0.015625)"/>
        <path id="DejaVuSans-35" d="M 691 4666 
L 3169 4666 
L 3169 4134 
L 1269 4134 
L 1269 2991 
Q 1406 3038 1543 3061 
Q 1681 3084 1819 3084 
Q 2600 3084 3056 2656 
Q 3513 2228 3513 1497 
Q 3513 744 3044 326 
Q 2575 -91 1722 -91 
Q 1428 -91 1123 -41 
Q 819 9 494 109 
L 494 744 
Q 775 591 1075 516 
Q 1375 441 1709 441 
Q 2250 441 2565 725 
Q 2881 1009 2881 1497 
Q 2881 1984 2565 2268 
Q 2250 2553 1709 2553 
Q 1456 2553 1204 2497 
Q 953 2441 691 2322 
L 691 4666 
z
" transform="scale(0.015625)"/>
       </defs>
       <use xlink:href="#DejaVuSans-2212"/>
       <use xlink:href="#DejaVuSans-35" x="83.789062"/>
       <use xlink:href="#DejaVuSans-2e" x="147.412109"/>
       <use xlink:href="#DejaVuSans-30" x="179.199219"/>
      </g>
     </g>
    </g>
    <g id="ytick_2">
     <g id="line2d_8">
      <g>
       <use xlink:href="#m81eab82bff" x="72" y="331.56" style="stroke: #000000; stroke-width: 0.8"/>
      </g>
     </g>
     <g id="text_8">
      <!-- −2.5 -->
      <g transform="translate(40.717187 335.359219) scale(0.1 -0.1)">
       <use xlink:href="#DejaVuSans-2212"/>
       <use xlink:href="#DejaVuSans-32" x="83.789062"/>
       <use xlink:href="#DejaVuSans-2e" x="147.412109"/>
       <use xlink:href="#DejaVuSans-35" x="179.199219"/>
      </g>
     </g>
    </g>
    <g id="ytick_3">
     <g id="line2d_9">
      <g>
       <use xlink:href="#m81eab82bff" x="72" y="293.76" style="stroke: #000000; stroke-width: 0.8"/>
      </g>
     </g>
     <g id="text_9">
      <!-- 0.0 -->
      <g transform="translate(49.096875 297.559219) scale(0.1 -0.1)">
       <use xlink:href="#DejaVuSans-30"/>
       <use xlink:href="#DejaVuSans-2e" x="63.623047"/>
       <use xlink:href="#DejaVuSans-30" x="95.410156"/>
      </g>
     </g>
    </g>
    <g id="ytick_4">
     <g id="line2d_10">
      <g>
       <use xlink:href="#m81eab82bff" x="72" y="255.96" style="stroke: #000000; stroke-width: 0.8"/>
      </g>
     </g>
     <g id="text_10">
      <!-- 2.5 -->
      <g transform="translate(49.096875 259.759219) scale(0.1 -0.1)">
       <use xlink:href="#DejaVuSans-32"/>
       <use xlink:href="#DejaVuSans-2e" x="63.623047"/>
       <use xlink:href="#DejaVuSans-35" x="95.410156"/>
      </g>
     </g>
    </g>
    <g id="ytick_5">
     <g id="line2d_11">
      <g>
       <use xlink:href="#m81eab82bff" x="72" y="218.16" style="stroke: #000000; stroke-width: 0.8"/>
      </g>
     </g>
     <g id="text_11">
      <!-- 5.0 -->
      <g transform="translate(49.096875 221.959219) scale(0.1 -0.1)">
       <use xlink:href="#DejaVuSans-35"/>
       <use xlink:href="#DejaVuSans-2e" x="63.623047"/>
       <use xlink:href="#DejaVuSans-30" x="95.410156"/>
      </g>
     </g>
    </g>
    <g id="ytick_6">
     <g id="line2d_12">
      <g>
       <use xlink:href="#m81eab82bff" x="72" y="180.36" style="stroke: #000000; stroke-width: 0.8"/>
      </g>
     </g>
     <g id="text_12">
      <!-- 7.5 -->
      <g transform="translate(49.096875 184.159219) scale(0.1 -0.1)">
       <defs>
        <path id="DejaVuSans-37" d="M 525 4666 
L 3525 4666 
L 3525 4397 
L 1831 0 
L 1172 0 
L 2766 4134 
L 525 4134 
L 525 4666 
z
" transform="scale(0.015625)"/>
       </defs>
       <use xlink:href="#DejaVuSans-37"/>
       <use xlink:href="#DejaVuSans-2e" x="63.623047"/>
       <use xlink:href="#DejaVuSans-35" x="95.410156"/>
      </g>
     </g>
    </g>
    <g id="ytick_7">
     <g id="line2d_13">
      <g>
       <use xlink:href="#m81eab82bff" x="72" y="142.56" style="stroke: #000000; stroke-width: 0.8"/>
      </g>
     </g>
     <g id="text_13">
      <!-- 10.0 -->
      <g transform="translate(42.734375 146.359219) scale(0.1 -0.1)">
       <use xlink:href="#DejaVuSans-31"/>
       <use xlink:href="#DejaVuSans-30" x="63.623047"/>
       <use xlink:href="#DejaVuSans-2e" x="127.246094"/>
       <use xlink:href="#DejaVuSans-30" x="159.033203"/>
      </g>
     </g>
    </g>
    <g id="ytick_8">
     <g id="line2d_14">
      <g>
       <use xlink:href="#m81eab82bff" x="72" y="104.76" style="stroke: #000000; stroke-width: 0.8"/>
      </g>
     </g>
     <g id="text_14">
      <!-- 12.5 -->
      <g transform="translate(42.734375 108.559219) scale(0.1 -0.1)">
       <use xlink:href="#DejaVuSans-31"/>
       <use xlink:href="#DejaVuSans-32" x="63.623047"/>
       <use xlink:href="#DejaVuSans-2e" x="127.246094"/>
       <use xlink:href="#DejaVuSans-35" x="159.033203"/>
      </g>
     </g>
    </g>
    <g id="ytick_9">
     <g id="line2d_15">
      <g>
       <use xlink:href="#m81eab82bff" x="72" y="66.96" style="stroke: #000000; stroke-width: 0.8"/>
      </g>
     </g>
     <g id="text_15">
      <!-- 15.0 -->
      <g transform="translate(42.734375 70.759219) scale(0.1 -0.1)">
       <use xlink:href="#DejaVuSans-31"/>
       <use xlink:href="#DejaVuSans-35" x="63.623047"/>
       <use xlink:href="#DejaVuSans-2e" x="127.246094"/>
       <use xlink:href="#DejaVuSans-30" x="159.033203"/>
      </g>
     </g>
    </g>
   </g>
   <g id="line2d_16">
    <path d="M 92.290909 342.09108 
L 96.349091 342.086544 
L 100.407273 342.07596 
L 104.465455 342.059328 
L 108.523636 342.035136 
L 112.581818 342.003384 
L 116.64 341.965584 
L 120.698182 341.920224 
L 124.756364 341.868816 
L 128.814545 341.809848 
L 132.872727 341.746344 
L 136.930909 341.67528 
L 140.989091 341.598168 
L 145.047273 341.513496 
L 149.105455 341.424288 
L 153.163636 341.330544 
L 157.221818 341.22924 
L 161.28 341.1234 
L 165.338182 341.013024 
L 169.396364 340.898112 
L 173.454545 340.777152 
L 177.512727 340.653168 
L 181.570909 340.524648 
L 185.629091 340.393104 
L 189.687273 340.258536 
L 193.745455 340.119432 
L 197.803636 339.978816 
L 201.861818 339.836688 
L 205.92 339.691536 
L 209.978182 339.546384 
L 214.036364 339.39972 
L 218.094545 339.253056 
L 222.152727 339.107904 
L 226.210909 338.96124 
L 230.269091 338.8176 
L 234.327273 338.675472 
L 238.385455 338.534856 
L 242.443636 338.397264 
L 246.501818 338.264208 
L 250.56 338.134176 
L 254.618182 338.010192 
L 258.676364 337.889232 
L 262.734545 337.775832 
L 266.792727 337.66848 
L 270.850909 337.567176 
L 274.909091 337.474944 
L 278.967273 337.38876 
L 283.025455 337.311648 
L 287.083636 337.242096 
L 291.141818 337.181616 
L 295.2 337.130208 
L 299.258182 337.089384 
L 303.316364 337.05612 
L 307.374545 337.03344 
L 311.432727 337.019832 
L 315.490909 337.015296 
L 319.549091 337.019832 
L 323.607273 337.034952 
L 327.665455 337.057632 
L 331.723636 337.089384 
L 335.781818 337.128696 
L 339.84 337.175568 
L 343.898182 337.23 
L 347.956364 337.29048 
L 352.014545 337.35852 
L 356.072727 337.432608 
L 360.130909 337.50972 
L 364.189091 337.59288 
L 368.247273 337.680576 
L 372.305455 337.771296 
L 376.363636 337.86504 
L 380.421818 337.961808 
L 384.48 338.060088 
L 388.538182 338.158368 
L 392.596364 338.25816 
L 396.654545 338.359464 
L 400.712727 338.459256 
L 404.770909 338.559048 
L 408.829091 338.657328 
L 412.887273 338.754096 
L 416.945455 338.849352 
L 421.003636 338.941584 
L 425.061818 339.032304 
L 429.12 339.118488 
L 433.178182 339.201648 
L 437.236364 339.281784 
L 441.294545 339.358896 
L 445.352727 339.42996 
L 449.410909 339.498 
L 453.469091 339.559992 
L 457.527273 339.61896 
L 461.585455 339.67188 
L 465.643636 339.718752 
L 469.701818 339.7626 
L 473.76 339.798888 
L 477.818182 339.83064 
L 481.876364 339.856344 
L 485.934545 339.877512 
L 489.992727 339.89112 
L 494.050909 339.900192 
L 498.109091 339.903216 
" clip-path="url(#pdbf86daa2a)" style="fill: none; stroke: #000000; stroke-opacity: 0.5; stroke-linecap: square"/>
   </g>
   <g id="line2d_17">
    <path d="M 92.290909 294.19092 
L 96.349091 294.199992 
L 100.407273 294.225696 
L 104.465455 294.269544 
L 108.523636 294.331536 
L 112.581818 294.408648 
L 116.64 294.503904 
L 120.698182 294.615792 
L 124.756364 294.744312 
L 128.814545 294.887952 
L 132.872727 295.048224 
L 136.930909 295.222104 
L 140.989091 295.412616 
L 145.047273 295.615224 
L 149.105455 295.832952 
L 153.163636 296.062776 
L 157.221818 296.304696 
L 161.28 296.558712 
L 165.338182 296.8218 
L 169.396364 297.095472 
L 173.454545 297.378216 
L 177.512727 297.667008 
L 181.570909 297.964872 
L 185.629091 298.26576 
L 189.687273 298.572696 
L 193.745455 298.884168 
L 197.803636 299.197152 
L 201.861818 299.511648 
L 205.92 299.826144 
L 209.978182 300.139128 
L 214.036364 300.4506 
L 218.094545 300.759048 
L 222.152727 301.06296 
L 226.210909 301.360824 
L 230.269091 301.654152 
L 234.327273 301.938408 
L 238.385455 302.213592 
L 242.443636 302.478192 
L 246.501818 302.73372 
L 250.56 302.977152 
L 254.618182 303.206976 
L 258.676364 303.423192 
L 262.734545 303.624288 
L 266.792727 303.810264 
L 270.850909 303.98112 
L 274.909091 304.133832 
L 278.967273 304.269912 
L 283.025455 304.386336 
L 287.083636 304.486128 
L 291.141818 304.564752 
L 295.2 304.625232 
L 299.258182 304.666056 
L 303.316364 304.687224 
L 307.374545 304.690248 
L 311.432727 304.672104 
L 315.490909 304.634304 
L 319.549091 304.57836 
L 323.607273 304.504272 
L 327.665455 304.410528 
L 331.723636 304.300152 
L 335.781818 304.173144 
L 339.84 304.029504 
L 343.898182 303.869232 
L 347.956364 303.695352 
L 352.014545 303.509376 
L 356.072727 303.309792 
L 360.130909 303.098112 
L 364.189091 302.875848 
L 368.247273 302.644512 
L 372.305455 302.405616 
L 376.363636 302.15916 
L 380.421818 301.906656 
L 384.48 301.649616 
L 388.538182 301.389552 
L 392.596364 301.126464 
L 396.654545 300.863376 
L 400.712727 300.598776 
L 404.770909 300.3372 
L 408.829091 300.077136 
L 412.887273 299.820096 
L 416.945455 299.567592 
L 421.003636 299.321136 
L 425.061818 299.08224 
L 429.12 298.849392 
L 433.178182 298.625616 
L 437.236364 298.410912 
L 441.294545 298.206792 
L 445.352727 298.013256 
L 449.410909 297.831816 
L 453.469091 297.662472 
L 457.527273 297.505224 
L 461.585455 297.361584 
L 465.643636 297.233064 
L 469.701818 297.118152 
L 473.76 297.016848 
L 477.818182 296.932176 
L 481.876364 296.861112 
L 485.934545 296.80668 
L 489.992727 296.767368 
L 494.050909 296.743176 
L 498.109091 296.735616 
" clip-path="url(#pdbf86daa2a)" style="fill: none; stroke: #000000; stroke-opacity: 0.5; stroke-linecap: square"/>
   </g>
   <g id="line2d_18">
    <path d="M 92.290909 251.381664 
L 96.349091 251.422488 
L 100.407273 251.541936 
L 104.465455 251.729424 
L 108.523636 251.971344 
L 112.581818 252.251064 
L 116.64 252.558 
L 120.698182 252.881568 
L 124.756364 253.214208 
L 128.814545 253.549872 
L 132.872727 253.882512 
L 136.930909 254.209104 
L 140.989091 254.528136 
L 145.047273 254.836584 
L 149.105455 255.131424 
L 153.163636 255.414168 
L 157.221818 255.681792 
L 161.28 255.934296 
L 165.338182 256.170168 
L 169.396364 256.39092 
L 173.454545 256.596552 
L 177.512727 256.785552 
L 181.570909 256.95792 
L 185.629091 257.11668 
L 189.687273 257.26032 
L 193.745455 257.38884 
L 197.803636 257.505264 
L 201.861818 257.60808 
L 205.92 257.6988 
L 209.978182 257.777424 
L 214.036364 257.846976 
L 218.094545 257.905944 
L 222.152727 257.957352 
L 226.210909 258.0012 
L 230.269091 258.037488 
L 234.327273 258.06924 
L 238.385455 258.096456 
L 242.443636 258.119136 
L 246.501818 258.140304 
L 250.56 258.15996 
L 254.618182 258.178104 
L 258.676364 258.19776 
L 262.734545 258.217416 
L 266.792727 258.240096 
L 270.850909 258.262776 
L 274.909091 258.289992 
L 278.967273 258.320232 
L 283.025455 258.355008 
L 287.083636 258.392808 
L 291.141818 258.435144 
L 295.2 258.480504 
L 299.258182 258.528888 
L 303.316364 258.581808 
L 307.374545 258.63624 
L 311.432727 258.693696 
L 315.490909 258.754176 
L 319.549091 258.814656 
L 323.607273 258.875136 
L 327.665455 258.934104 
L 331.723636 258.993072 
L 335.781818 259.049016 
L 339.84 259.101936 
L 343.898182 259.151832 
L 347.956364 259.194168 
L 352.014545 259.231968 
L 356.072727 259.262208 
L 360.130909 259.283376 
L 364.189091 259.295472 
L 368.247273 259.298496 
L 372.305455 259.289424 
L 376.363636 259.269768 
L 380.421818 259.236504 
L 384.48 259.189632 
L 388.538182 259.12764 
L 392.596364 259.05204 
L 396.654545 258.959808 
L 400.712727 258.852456 
L 404.770909 258.728472 
L 408.829091 258.586344 
L 412.887273 258.426072 
L 416.945455 258.249168 
L 421.003636 258.05412 
L 425.061818 257.84244 
L 429.12 257.611104 
L 433.178182 257.363136 
L 437.236364 257.097024 
L 441.294545 256.815792 
L 445.352727 256.51944 
L 449.410909 256.20948 
L 453.469091 255.885912 
L 457.527273 255.553272 
L 461.585455 255.213072 
L 465.643636 254.869848 
L 469.701818 254.528136 
L 473.76 254.195496 
L 477.818182 253.877976 
L 481.876364 253.587672 
L 485.934545 253.33668 
L 489.992727 253.141632 
L 494.050909 253.017648 
L 498.109091 252.9738 
" clip-path="url(#pdbf86daa2a)" style="fill: none; stroke: #000000; stroke-opacity: 0.5; stroke-linecap: square"/>
   </g>
   <g id="line2d_19">
    <path d="M 92.290909 245.324592 
L 96.349091 245.27772 
L 100.407273 245.14164 
L 104.465455 244.928448 
L 108.523636 244.65024 
L 112.581818 244.32516 
L 116.64 243.963792 
L 120.698182 243.578232 
L 124.756364 243.177552 
L 128.814545 242.7678 
L 132.872727 242.358048 
L 136.930909 241.952832 
L 140.989091 241.553664 
L 145.047273 241.166592 
L 149.105455 240.79464 
L 153.163636 240.440832 
L 157.221818 240.10668 
L 161.28 239.795208 
L 165.338182 239.507928 
L 169.396364 239.24484 
L 173.454545 239.007456 
L 177.512727 238.7988 
L 181.570909 238.615848 
L 185.629091 238.4586 
L 189.687273 238.33008 
L 193.745455 238.225752 
L 197.803636 238.147128 
L 201.861818 238.091184 
L 205.92 238.056408 
L 209.978182 238.0428 
L 214.036364 238.045824 
L 218.094545 238.06548 
L 222.152727 238.100256 
L 226.210909 238.145616 
L 230.269091 238.20156 
L 234.327273 238.263552 
L 238.385455 238.331592 
L 242.443636 238.402656 
L 246.501818 238.475232 
L 250.56 238.546296 
L 254.618182 238.614336 
L 258.676364 238.67784 
L 262.734545 238.736808 
L 266.792727 238.786704 
L 270.850909 238.82904 
L 274.909091 238.860792 
L 278.967273 238.883472 
L 283.025455 238.894056 
L 287.083636 238.894056 
L 291.141818 238.88196 
L 295.2 238.857768 
L 299.258182 238.822992 
L 303.316364 238.777632 
L 307.374545 238.721688 
L 311.432727 238.656672 
L 315.490909 238.582584 
L 319.549091 238.502448 
L 323.607273 238.416264 
L 327.665455 238.327056 
L 331.723636 238.233312 
L 335.781818 238.14108 
L 339.84 238.048848 
L 343.898182 237.95964 
L 347.956364 237.87648 
L 352.014545 237.80088 
L 356.072727 237.735864 
L 360.130909 237.681432 
L 364.189091 237.64212 
L 368.247273 237.617928 
L 372.305455 237.613392 
L 376.363636 237.628512 
L 380.421818 237.666312 
L 384.48 237.728304 
L 388.538182 237.816 
L 392.596364 237.9294 
L 396.654545 238.071528 
L 400.712727 238.242384 
L 404.770909 238.44348 
L 408.829091 238.671792 
L 412.887273 238.930344 
L 416.945455 239.217624 
L 421.003636 239.53212 
L 425.061818 239.87232 
L 429.12 240.236712 
L 433.178182 240.625296 
L 437.236364 241.033536 
L 441.294545 241.461432 
L 445.352727 241.902936 
L 449.410909 242.356536 
L 453.469091 242.819208 
L 457.527273 243.286416 
L 461.585455 243.753624 
L 465.643636 244.214784 
L 469.701818 244.66536 
L 473.76 245.094768 
L 477.818182 245.495448 
L 481.876364 245.855304 
L 485.934545 246.160728 
L 489.992727 246.395088 
L 494.050909 246.544776 
L 498.109091 246.596184 
" clip-path="url(#pdbf86daa2a)" style="fill: none; stroke: #000000; stroke-opacity: 0.5; stroke-linecap: square"/>
   </g>
   <g id="line2d_20">
    <path d="M 92.290909 179.676576 
L 96.349091 179.734032 
L 100.407273 179.895816 
L 104.465455 180.14832 
L 108.523636 180.467352 
L 112.581818 180.82872 
L 116.64 181.21428 
L 120.698182 181.604376 
L 124.756364 181.988424 
L 128.814545 182.354328 
L 132.872727 182.693016 
L 136.930909 182.99844 
L 140.989091 183.266064 
L 145.047273 183.488328 
L 149.105455 183.66372 
L 153.163636 183.786192 
L 157.221818 183.855744 
L 161.28 183.869352 
L 165.338182 183.823992 
L 169.396364 183.719664 
L 173.454545 183.553344 
L 177.512727 183.326544 
L 181.570909 183.03624 
L 185.629091 182.685456 
L 189.687273 182.271168 
L 193.745455 181.797912 
L 197.803636 181.262664 
L 201.861818 180.668448 
L 205.92 180.016776 
L 209.978182 179.30916 
L 214.036364 178.5456 
L 218.094545 177.730632 
L 222.152727 176.864256 
L 226.210909 175.947984 
L 230.269091 174.986352 
L 234.327273 173.977848 
L 238.385455 172.92852 
L 242.443636 171.835344 
L 246.501818 170.704368 
L 250.56 169.537104 
L 254.618182 168.33204 
L 258.676364 167.095224 
L 262.734545 165.825144 
L 266.792727 164.523312 
L 270.850909 163.194264 
L 274.909091 161.836488 
L 278.967273 160.453008 
L 283.025455 159.045336 
L 287.083636 157.613472 
L 291.141818 156.171024 
L 295.2 156.800016 
L 299.258182 158.240952 
L 303.316364 159.662232 
L 307.374545 161.060832 
L 311.432727 162.432216 
L 315.490909 163.777896 
L 319.549091 165.093336 
L 323.607273 166.380048 
L 327.665455 167.633496 
L 331.723636 168.85368 
L 335.781818 170.039088 
L 339.84 171.186696 
L 343.898182 172.294992 
L 347.956364 173.362464 
L 352.014545 174.3876 
L 356.072727 175.367376 
L 360.130909 176.298768 
L 364.189091 177.181776 
L 368.247273 178.013376 
L 372.305455 178.792056 
L 376.363636 179.514792 
L 380.421818 180.181584 
L 384.48 180.789408 
L 388.538182 181.336752 
L 392.596364 181.823616 
L 396.654545 182.248488 
L 400.712727 182.609856 
L 404.770909 182.90772 
L 408.829091 183.14208 
L 412.887273 183.312936 
L 416.945455 183.4218 
L 421.003636 183.46716 
L 425.061818 183.45204 
L 429.12 183.377952 
L 433.178182 183.246408 
L 437.236364 183.060432 
L 441.294545 182.821536 
L 445.352727 182.531232 
L 449.410909 182.195568 
L 453.469091 181.817568 
L 457.527273 181.400256 
L 461.585455 180.94968 
L 465.643636 180.4734 
L 469.701818 179.978976 
L 473.76 179.476992 
L 477.818182 178.981056 
L 481.876364 178.510824 
L 485.934545 178.092 
L 489.992727 177.753312 
L 494.050909 177.531048 
L 498.109091 177.453936 
" clip-path="url(#pdbf86daa2a)" style="fill: none; stroke: #000000; stroke-opacity: 0.5; stroke-linecap: square"/>
   </g>
   <g id="line2d_21">
    <path d="M 92.290909 169.381368 
L 96.349091 169.290648 
L 100.407273 169.02 
L 104.465455 168.590592 
L 108.523636 168.023592 
L 112.581818 167.340168 
L 116.64 166.561488 
L 120.698182 165.702672 
L 124.756364 164.777328 
L 128.814545 163.794528 
L 132.872727 162.763344 
L 136.930909 161.6868 
L 140.989091 160.572456 
L 145.047273 159.421824 
L 149.105455 158.23944 
L 153.163636 157.026816 
L 157.221818 155.786976 
L 161.28 154.521432 
L 165.338182 153.230184 
L 169.396364 151.917768 
L 173.454545 150.582672 
L 177.512727 149.22792 
L 181.570909 147.853512 
L 185.629091 146.46096 
L 189.687273 145.053288 
L 193.745455 143.628984 
L 197.803636 142.194096 
L 201.861818 140.747112 
L 205.92 139.295592 
L 209.978182 137.847096 
L 214.036364 136.41372 
L 218.094545 135.028728 
L 222.152727 133.776792 
L 226.210909 132.89832 
L 230.269091 132.892272 
L 234.327273 133.810056 
L 238.385455 135.155736 
L 242.443636 136.654128 
L 246.501818 138.214512 
L 250.56 139.797576 
L 254.618182 141.391224 
L 258.676364 142.98336 
L 262.734545 144.569448 
L 266.792727 146.147976 
L 270.850909 147.71592 
L 274.909091 149.270256 
L 278.967273 150.809472 
L 283.025455 152.332056 
L 287.083636 153.836496 
L 291.141818 155.312208 
L 295.2 154.674144 
L 299.258182 153.183312 
L 303.316364 151.6698 
L 307.374545 150.139656 
L 311.432727 148.59288 
L 315.490909 147.030984 
L 319.549091 145.45548 
L 323.607273 143.869392 
L 327.665455 142.27272 
L 331.723636 140.67 
L 335.781818 139.062744 
L 339.84 137.458512 
L 343.898182 135.866376 
L 347.956364 134.302968 
L 352.014545 132.810624 
L 356.072727 131.49216 
L 360.130909 130.636368 
L 364.189091 130.704408 
L 368.247273 131.598 
L 372.305455 132.854472 
L 376.363636 134.244 
L 380.421818 135.683424 
L 384.48 137.142504 
L 388.538182 138.60612 
L 392.596364 140.0652 
L 396.654545 141.51672 
L 400.712727 142.956144 
L 404.770909 144.383472 
L 408.829091 145.79568 
L 412.887273 147.191256 
L 416.945455 148.568688 
L 421.003636 149.927976 
L 425.061818 151.267608 
L 429.12 152.587584 
L 433.178182 153.88488 
L 437.236364 155.157984 
L 441.294545 156.406896 
L 445.352727 157.628592 
L 449.410909 158.82156 
L 453.469091 159.984288 
L 457.527273 161.110728 
L 461.585455 162.199368 
L 465.643636 163.24416 
L 469.701818 164.237544 
L 473.76 165.168936 
L 477.818182 166.027752 
L 481.876364 166.792824 
L 485.934545 167.441472 
L 489.992727 167.941944 
L 494.050909 168.260976 
L 498.109091 168.371352 
" clip-path="url(#pdbf86daa2a)" style="fill: none; stroke: #000000; stroke-opacity: 0.5; stroke-linecap: square"/>
   </g>
   <g id="line2d_22">
    <path d="M 92.290909 109.17504 
L 96.349091 109.173528 
L 100.407273 109.168992 
L 104.465455 109.162944 
L 108.523636 109.153872 
L 112.581818 109.141776 
L 116.64 109.128168 
L 120.698182 109.111536 
L 124.756364 109.093392 
L 128.814545 109.072224 
L 132.872727 109.051056 
L 136.930909 109.028376 
L 140.989091 109.004184 
L 145.047273 108.981504 
L 149.105455 108.960336 
L 153.163636 108.942192 
L 157.221818 108.930096 
L 161.28 108.930096 
L 165.338182 108.954288 
L 169.396364 109.032912 
L 173.454545 109.249128 
L 177.512727 109.8252 
L 181.570909 110.947104 
L 185.629091 112.406184 
L 189.687273 113.995296 
L 193.745455 115.634304 
L 197.803636 117.292968 
L 201.861818 118.95768 
L 205.92 120.617856 
L 209.978182 122.262912 
L 214.036364 123.876216 
L 218.094545 125.422992 
L 222.152727 126.82008 
L 226.210909 127.822536 
L 230.269091 127.934424 
L 234.327273 127.101312 
L 238.385455 125.820648 
L 242.443636 124.36308 
L 246.501818 122.823864 
L 250.56 121.239288 
L 254.618182 119.624472 
L 258.676364 117.99 
L 262.734545 116.338896 
L 266.792727 114.67872 
L 270.850909 113.01552 
L 274.909091 111.365928 
L 278.967273 109.775304 
L 283.025455 108.47952 
L 287.083636 107.983584 
L 291.141818 107.877744 
L 295.2 107.85204 
L 299.258182 107.853552 
L 303.316364 107.870184 
L 307.374545 107.903448 
L 311.432727 107.992656 
L 315.490909 109.034424 
L 319.549091 110.67192 
L 323.607273 112.336632 
L 327.665455 114.001344 
L 331.723636 115.65396 
L 335.781818 117.292968 
L 339.84 118.907784 
L 343.898182 120.49236 
L 347.956364 122.025528 
L 352.014545 123.469488 
L 356.072727 124.716888 
L 360.130909 125.483472 
L 364.189091 125.306568 
L 368.247273 124.284456 
L 372.305455 122.882832 
L 376.363636 121.333032 
L 380.421818 119.715192 
L 384.48 118.067112 
L 388.538182 116.405424 
L 392.596364 114.748272 
L 396.654545 113.12136 
L 400.712727 111.595752 
L 404.770909 110.425464 
L 408.829091 109.92348 
L 412.887273 109.793448 
L 416.945455 109.775304 
L 421.003636 109.79496 
L 425.061818 109.831248 
L 429.12 109.873584 
L 433.178182 109.918944 
L 437.236364 109.964304 
L 441.294545 110.009664 
L 445.352727 110.055024 
L 449.410909 110.09736 
L 453.469091 110.136672 
L 457.527273 110.174472 
L 461.585455 110.207736 
L 465.643636 110.239488 
L 469.701818 110.266704 
L 473.76 110.292408 
L 477.818182 110.312064 
L 481.876364 110.330208 
L 485.934545 110.343816 
L 489.992727 110.352888 
L 494.050909 110.358936 
L 498.109091 110.360448 
" clip-path="url(#pdbf86daa2a)" style="fill: none; stroke: #000000; stroke-opacity: 0.5; stroke-linecap: square"/>
   </g>
   <g id="line2d_23">
    <path d="M 92.290909 82.506384 
L 96.349091 82.610712 
L 100.407273 82.922184 
L 104.465455 83.428704 
L 108.523636 84.11364 
L 112.581818 84.958848 
L 116.64 85.944672 
L 120.698182 87.049944 
L 124.756364 88.258032 
L 128.814545 89.552304 
L 132.872727 90.919152 
L 136.930909 92.34648 
L 140.989091 93.823704 
L 145.047273 95.341752 
L 149.105455 96.893064 
L 153.163636 98.468568 
L 157.221818 100.060704 
L 161.28 101.661912 
L 165.338182 103.254048 
L 169.396364 104.803848 
L 173.454545 106.22664 
L 177.512727 107.298648 
L 181.570909 107.827848 
L 185.629091 108.024408 
L 189.687273 108.092448 
L 193.745455 108.10908 
L 197.803636 108.103032 
L 201.861818 108.083376 
L 205.92 108.05616 
L 209.978182 108.02592 
L 214.036364 107.992656 
L 218.094545 107.959392 
L 222.152727 107.924616 
L 226.210909 107.891352 
L 230.269091 107.858088 
L 234.327273 107.826336 
L 238.385455 107.796096 
L 242.443636 107.767368 
L 246.501818 107.741664 
L 250.56 107.717472 
L 254.618182 107.694792 
L 258.676364 107.673624 
L 262.734545 107.653968 
L 266.792727 107.6328 
L 270.850909 107.608608 
L 274.909091 107.567784 
L 278.967273 107.47404 
L 283.025455 107.102088 
L 287.083636 105.971112 
L 291.141818 104.561928 
L 295.2 103.42188 
L 299.258182 103.254048 
L 303.316364 104.239872 
L 307.374545 105.691392 
L 311.432727 107.235144 
L 315.490909 107.88228 
L 319.549091 107.951832 
L 323.607273 108.001728 
L 327.665455 108.051624 
L 331.723636 108.10152 
L 335.781818 108.155952 
L 339.84 108.211896 
L 343.898182 108.269352 
L 347.956364 108.329832 
L 352.014545 108.391824 
L 356.072727 108.455328 
L 360.130909 108.518832 
L 364.189091 108.58536 
L 368.247273 108.650376 
L 372.305455 108.715392 
L 376.363636 108.777384 
L 380.421818 108.837864 
L 384.48 108.893808 
L 388.538182 108.94068 
L 392.596364 108.969408 
L 396.654545 108.960336 
L 400.712727 108.843912 
L 404.770909 108.372168 
L 408.829091 107.23212 
L 412.887273 105.72012 
L 416.945455 104.100768 
L 421.003636 102.451176 
L 425.061818 100.794024 
L 429.12 99.141408 
L 433.178182 97.500888 
L 437.236364 95.877 
L 441.294545 94.277304 
L 445.352727 92.703312 
L 449.410909 91.165608 
L 453.469091 89.67024 
L 457.527273 88.224768 
L 461.585455 86.839776 
L 465.643636 85.52736 
L 469.701818 84.301128 
L 473.76 83.179224 
L 477.818182 82.176768 
L 481.876364 81.31644 
L 485.934545 80.619408 
L 489.992727 80.103816 
L 494.050909 79.786296 
L 498.109091 79.678944 
" clip-path="url(#pdbf86daa2a)" style="fill: none; stroke: #000000; stroke-opacity: 0.5; stroke-linecap: square"/>
   </g>
   <g id="patch_3">
    <path d="M 72 384.48 
L 72 51.84 
" style="fill: none; stroke: #000000; stroke-width: 0.8; stroke-linejoin: miter; stroke-linecap: square"/>
   </g>
   <g id="patch_4">
    <path d="M 518.4 384.48 
L 518.4 51.84 
" style="fill: none; stroke: #000000; stroke-width: 0.8; stroke-linejoin: miter; stroke-linecap: square"/>
   </g>
   <g id="patch_5">
    <path d="M 72 384.48 
L 518.4 384.48 
" style="fill: none; stroke: #000000; stroke-width: 0.8; stroke-linejoin: miter; stroke-linecap: square"/>
   </g>
   <g id="patch_6">
    <path d="M 72 51.84 
L 518.4 51.84 
" style="fill: none; stroke: #000000; stroke-width: 0.8; stroke-linejoin: miter; stroke-linecap: square"/>
   </g>
  </g>
 </g>
 <defs>
  <clipPath id="pdbf86daa2a">
   <rect x="72" y="51.84" width="446.4" height="332.64"/>
  </clipPath>
 </defs>
</svg>
